<?xml version="1.0" encoding="UTF-8" standalone="no"?>
<!DOCTYPE svg PUBLIC "-//W3C//DTD SVG 1.1//EN"
 "http://www.w3.org/Graphics/SVG/1.1/DTD/svg11.dtd">
<!-- Generated by graphviz version 13.1.2 (20250808.2320)
 -->
<!-- Title: DHARTAPI.RayTracing.NativeMethods.C_CastOcclusionRays Pages: 1 -->
<svg width="351pt" height="58pt"
 viewBox="0.00 0.00 351.00 58.00" xmlns="http://www.w3.org/2000/svg" xmlns:xlink="http://www.w3.org/1999/xlink">
<g id="graph0" class="graph" transform="scale(1 1) rotate(0) translate(4 54)">
<title>DHARTAPI.RayTracing.NativeMethods.C_CastOcclusionRays</title>
<!-- Node1 -->
<g id="node1" class="node">
<title>Node1</title>
<g id="a_node1"><a xlink:title="Cast occlusion rays in C++ using embree.">
<polygon fill="#999999" stroke="#666666" points="157,-32 0,-32 0,0 157,0 157,-32"/>
<text xml:space="preserve" text-anchor="start" x="8" y="-18.5" font-family="Helvetica,sans-Serif" font-size="10.00">DHARTAPI.RayTracing.Native</text>
<text xml:space="preserve" text-anchor="middle" x="78.5" y="-6.5" font-family="Helvetica,sans-Serif" font-size="10.00">Methods.C_CastOcclusionRays</text>
</a>
</g>
</g>
<!-- Node1&#45;&gt;Node1 -->
<g id="edge1" class="edge">
<title>Node1&#45;&gt;Node1</title>
<path fill="none" stroke="#63b8ff" d="M44.71,-32.44C38.41,-41.58 49.67,-50 78.5,-50 94.27,-50 104.78,-47.48 110.04,-43.71"/>
<polygon fill="#63b8ff" stroke="#63b8ff" points="113.46,-44.42 111.99,-33.93 106.6,-43.05 113.46,-44.42"/>
</g>
<!-- Node2 -->
<g id="node2" class="node">
<title>Node2</title>
<g id="a_node2"><a xlink:href="class_d_h_a_r_t_a_p_i_1_1_native_utils_1_1_helper_functions.html#a25819207027d373e010839e97ee002d1" target="_top" xlink:title="Convert a vector array into an array of floats. Slower than passing a Vector3D array.">
<polygon fill="white" stroke="#666666" points="342.5,-32 193,-32 193,0 342.5,0 342.5,-32"/>
<text xml:space="preserve" text-anchor="start" x="201" y="-18.5" font-family="Helvetica,sans-Serif" font-size="10.00">DHARTAPI.NativeUtils.Helper</text>
<text xml:space="preserve" text-anchor="middle" x="267.75" y="-6.5" font-family="Helvetica,sans-Serif" font-size="10.00">Functions.FlattenVectorArray</text>
</a>
</g>
</g>
<!-- Node1&#45;&gt;Node2 -->
<g id="edge2" class="edge">
<title>Node1&#45;&gt;Node2</title>
<path fill="none" stroke="#63b8ff" d="M157.28,-16C165.12,-16 173.1,-16 181.01,-16"/>
<polygon fill="#63b8ff" stroke="#63b8ff" points="181,-19.5 191,-16 181,-12.5 181,-19.5"/>
</g>
</g>
</svg>
