<?xml version="1.0" encoding="UTF-8" standalone="no"?>
<!DOCTYPE svg PUBLIC "-//W3C//DTD SVG 1.1//EN"
 "http://www.w3.org/Graphics/SVG/1.1/DTD/svg11.dtd">
<!-- Generated by graphviz version 13.1.2 (20250808.2320)
 -->
<!-- Title: DHARTAPI.Geometry.OBJLoader.LoadOBJ Pages: 1 -->
<svg width="556pt" height="90pt"
 viewBox="0.00 0.00 556.00 90.00" xmlns="http://www.w3.org/2000/svg" xmlns:xlink="http://www.w3.org/1999/xlink">
<g id="graph0" class="graph" transform="scale(1 1) rotate(0) translate(4 86)">
<title>DHARTAPI.Geometry.OBJLoader.LoadOBJ</title>
<!-- Node1 -->
<g id="node1" class="node">
<title>Node1</title>
<g id="a_node1"><a xlink:title="Load an obj from the OBJ file at the given filepath.">
<polygon fill="#999999" stroke="#666666" points="166,-57 0,-57 0,-25 166,-25 166,-57"/>
<text xml:space="preserve" text-anchor="start" x="8" y="-43.5" font-family="Helvetica,sans-Serif" font-size="10.00">DHARTAPI.Geometry.OBJLoader.</text>
<text xml:space="preserve" text-anchor="middle" x="83" y="-31.5" font-family="Helvetica,sans-Serif" font-size="10.00">LoadOBJ</text>
</a>
</g>
</g>
<!-- Node2 -->
<g id="node2" class="node">
<title>Node2</title>
<g id="a_node2"><a xlink:href="class_d_h_a_r_t_a_p_i_1_1_geometry_1_1_native_methods.html#ac8b3db134c290a598f228a4eb4cd2c71" target="_top" xlink:title="Load an obj file from the given filepath into a MeshInfo object in native memory.">
<polygon fill="white" stroke="#666666" points="344.75,-57 202,-57 202,-25 344.75,-25 344.75,-57"/>
<text xml:space="preserve" text-anchor="start" x="210" y="-43.5" font-family="Helvetica,sans-Serif" font-size="10.00">DHARTAPI.Geometry.Native</text>
<text xml:space="preserve" text-anchor="middle" x="273.38" y="-31.5" font-family="Helvetica,sans-Serif" font-size="10.00">Methods.C_LoadOBJ</text>
</a>
</g>
</g>
<!-- Node1&#45;&gt;Node2 -->
<g id="edge1" class="edge">
<title>Node1&#45;&gt;Node2</title>
<path fill="none" stroke="#63b8ff" d="M166.35,-41C174.27,-41 182.29,-41 190.21,-41"/>
<polygon fill="#63b8ff" stroke="#63b8ff" points="190.18,-44.5 200.18,-41 190.18,-37.5 190.18,-44.5"/>
</g>
<!-- Node3 -->
<g id="node3" class="node">
<title>Node3</title>
<g id="a_node3"><a xlink:href="class_d_h_a_r_t_a_p_i_1_1_geometry_1_1_native_methods.html#a2c8ad58779d26cb5a14906629624f6a4" target="_top" xlink:title=" ">
<polygon fill="white" stroke="#666666" points="548.25,-82 380.75,-82 380.75,-50 548.25,-50 548.25,-82"/>
<text xml:space="preserve" text-anchor="start" x="388.75" y="-68.5" font-family="Helvetica,sans-Serif" font-size="10.00">DHARTAPI.Geometry.Native</text>
<text xml:space="preserve" text-anchor="middle" x="464.5" y="-56.5" font-family="Helvetica,sans-Serif" font-size="10.00">Methods.DestroyMeshInfoPtrArray</text>
</a>
</g>
</g>
<!-- Node2&#45;&gt;Node3 -->
<g id="edge2" class="edge">
<title>Node2&#45;&gt;Node3</title>
<path fill="none" stroke="#63b8ff" d="M345.07,-50.34C352.91,-51.38 360.99,-52.45 369.07,-53.52"/>
<polygon fill="#63b8ff" stroke="#63b8ff" points="368.59,-56.98 378.96,-54.83 369.51,-50.04 368.59,-56.98"/>
</g>
<!-- Node4 -->
<g id="node4" class="node">
<title>Node4</title>
<g id="a_node4"><a xlink:href="class_d_h_a_r_t_a_p_i_1_1_geometry_1_1_native_methods.html#a742483f0365e454c96583a105653f8c7" target="_top" xlink:title=" ">
<polygon fill="white" stroke="#666666" points="535.88,-32 393.12,-32 393.12,0 535.88,0 535.88,-32"/>
<text xml:space="preserve" text-anchor="start" x="401.12" y="-18.5" font-family="Helvetica,sans-Serif" font-size="10.00">DHARTAPI.Geometry.Native</text>
<text xml:space="preserve" text-anchor="middle" x="464.5" y="-6.5" font-family="Helvetica,sans-Serif" font-size="10.00">Methods.LoadOBJ</text>
</a>
</g>
</g>
<!-- Node2&#45;&gt;Node4 -->
<g id="edge3" class="edge">
<title>Node2&#45;&gt;Node4</title>
<path fill="none" stroke="#63b8ff" d="M345.07,-31.66C357.04,-30.07 369.55,-28.42 381.77,-26.8"/>
<polygon fill="#63b8ff" stroke="#63b8ff" points="381.94,-30.31 391.39,-25.53 381.02,-23.37 381.94,-30.31"/>
</g>
</g>
</svg>
