<?xml version="1.0" encoding="UTF-8" standalone="no"?>
<!DOCTYPE svg PUBLIC "-//W3C//DTD SVG 1.1//EN"
 "http://www.w3.org/Graphics/SVG/1.1/DTD/svg11.dtd">
<!-- Generated by graphviz version 13.1.2 (20250808.2320)
 -->
<!-- Title: DHARTAPI.SpatialStructures.Graph Pages: 1 -->
<svg width="249pt" height="212pt"
 viewBox="0.00 0.00 249.00 212.00" xmlns="http://www.w3.org/2000/svg" xmlns:xlink="http://www.w3.org/1999/xlink">
<g id="graph0" class="graph" transform="scale(1 1) rotate(0) translate(4 208)">
<title>DHARTAPI.SpatialStructures.Graph</title>
<!-- Node1 -->
<g id="node1" class="node">
<title>Node1</title>
<g id="a_node1"><a xlink:title="A graph representing connections between points in space.">
<polygon fill="#999999" stroke="#666666" points="176.12,-32 28.88,-32 28.88,0 176.12,0 176.12,-32"/>
<text xml:space="preserve" text-anchor="start" x="36.88" y="-18.5" font-family="Helvetica,sans-Serif" font-size="10.00">DHARTAPI.SpatialStructures.</text>
<text xml:space="preserve" text-anchor="middle" x="102.5" y="-6.5" font-family="Helvetica,sans-Serif" font-size="10.00">Graph</text>
</a>
</g>
</g>
<!-- Node2 -->
<g id="node2" class="node">
<title>Node2</title>
<g id="a_node2"><a xlink:href="class_d_h_a_r_t_a_p_i_1_1_native_utils_1_1_native_object.html" target="_top" xlink:title="An object that holds a pointer to unmanaged memory or some other resource that must be freed.">
<polygon fill="white" stroke="#666666" points="76,-106 3,-106 3,-86 76,-86 76,-106"/>
<text xml:space="preserve" text-anchor="middle" x="39.5" y="-92.5" font-family="Helvetica,sans-Serif" font-size="10.00">NativeObject</text>
</a>
</g>
</g>
<!-- Node2&#45;&gt;Node1 -->
<g id="edge1" class="edge">
<title>Node2&#45;&gt;Node1</title>
<path fill="none" stroke="#63b8ff" d="M54.11,-76.91C65,-63.43 79.71,-45.21 90.05,-32.42"/>
<polygon fill="#63b8ff" stroke="#63b8ff" points="51.49,-74.59 47.93,-84.57 56.93,-78.99 51.49,-74.59"/>
</g>
<!-- Node3 -->
<g id="node3" class="node">
<title>Node3</title>
<g id="a_node3"><a xlink:href="class_safe_handle.html" target="_top" xlink:title=" ">
<polygon fill="white" stroke="#666666" points="67,-204 0,-204 0,-184 67,-184 67,-204"/>
<text xml:space="preserve" text-anchor="middle" x="33.5" y="-190.5" font-family="Helvetica,sans-Serif" font-size="10.00">SafeHandle</text>
</a>
</g>
</g>
<!-- Node3&#45;&gt;Node2 -->
<g id="edge2" class="edge">
<title>Node3&#45;&gt;Node2</title>
<path fill="none" stroke="#63b8ff" d="M34.78,-172.59C36.05,-152.14 37.97,-121.55 38.92,-106.32"/>
<polygon fill="#63b8ff" stroke="#63b8ff" points="31.3,-172.09 34.17,-182.28 38.29,-172.52 31.3,-172.09"/>
</g>
<!-- Node4 -->
<g id="node4" class="node">
<title>Node4</title>
<g id="a_node4"><a xlink:title=" ">
<polygon fill="white" stroke="#666666" points="125.9,-204 97.1,-204 97.1,-184 125.9,-184 125.9,-204"/>
<text xml:space="preserve" text-anchor="middle" x="111.5" y="-190.5" font-family="Helvetica,sans-Serif" font-size="10.00">int</text>
</a>
</g>
</g>
<!-- Node4&#45;&gt;Node2 -->
<g id="edge3" class="edge">
<title>Node4&#45;&gt;Node2</title>
<path fill="none" stroke="#9a32cd" stroke-dasharray="5,2" d="M90,-176.27C86.46,-173.05 82.98,-169.57 80,-166 63.78,-146.61 50.15,-119.91 43.63,-106.1"/>
<polygon fill="#9a32cd" stroke="#9a32cd" points="87.61,-178.83 97.51,-182.63 92.14,-173.49 87.61,-178.83"/>
<text xml:space="preserve" text-anchor="middle" x="100.25" y="-144.5" font-family="Helvetica,sans-Serif" font-size="10.00"> pressure</text>
</g>
<!-- Node5 -->
<g id="node5" class="node">
<title>Node5</title>
<g id="a_node5"><a xlink:href="struct_d_h_a_r_t_a_p_i_1_1_spatial_structures_1_1_c_s_r_info.html" target="_top" xlink:title="Contains info necessary to reconstruct or access a CSR.">
<polygon fill="white" stroke="#666666" points="241.12,-112 93.88,-112 93.88,-80 241.12,-80 241.12,-112"/>
<text xml:space="preserve" text-anchor="start" x="101.88" y="-98.5" font-family="Helvetica,sans-Serif" font-size="10.00">DHARTAPI.SpatialStructures.</text>
<text xml:space="preserve" text-anchor="middle" x="167.5" y="-86.5" font-family="Helvetica,sans-Serif" font-size="10.00">CSRInfo</text>
</a>
</g>
</g>
<!-- Node4&#45;&gt;Node5 -->
<g id="edge5" class="edge">
<title>Node4&#45;&gt;Node5</title>
<path fill="none" stroke="#9a32cd" stroke-dasharray="5,2" d="M120.89,-173.56C127.18,-160.93 135.87,-144.22 144.5,-130 148.12,-124.03 152.43,-117.69 156.32,-112.18"/>
<polygon fill="#9a32cd" stroke="#9a32cd" points="117.78,-171.95 116.52,-182.47 124.06,-175.03 117.78,-171.95"/>
<text xml:space="preserve" text-anchor="middle" x="155" y="-156.5" font-family="Helvetica,sans-Serif" font-size="10.00"> cols</text>
<text xml:space="preserve" text-anchor="middle" x="155" y="-144.5" font-family="Helvetica,sans-Serif" font-size="10.00">nnz</text>
<text xml:space="preserve" text-anchor="middle" x="155" y="-132.5" font-family="Helvetica,sans-Serif" font-size="10.00">rows</text>
</g>
<!-- Node5&#45;&gt;Node1 -->
<g id="edge4" class="edge">
<title>Node5&#45;&gt;Node1</title>
<path fill="none" stroke="#9a32cd" stroke-dasharray="5,2" d="M147.47,-70.96C136.99,-58.39 124.48,-43.37 115.32,-32.38"/>
<polygon fill="#9a32cd" stroke="#9a32cd" points="144.6,-72.99 153.69,-78.43 149.98,-68.5 144.6,-72.99"/>
<text xml:space="preserve" text-anchor="middle" x="169.27" y="-52.5" font-family="Helvetica,sans-Serif" font-size="10.00"> CSRPointers</text>
</g>
<!-- Node6 -->
<g id="node6" class="node">
<title>Node6</title>
<g id="a_node6"><a xlink:title=" ">
<polygon fill="white" stroke="#666666" points="194.5,-204 154.5,-204 154.5,-184 194.5,-184 194.5,-204"/>
<text xml:space="preserve" text-anchor="middle" x="174.5" y="-190.5" font-family="Helvetica,sans-Serif" font-size="10.00">IntPtr</text>
</a>
</g>
</g>
<!-- Node6&#45;&gt;Node5 -->
<g id="edge6" class="edge">
<title>Node6&#45;&gt;Node5</title>
<path fill="none" stroke="#9a32cd" stroke-dasharray="5,2" d="M173.01,-172.53C171.69,-154.48 169.8,-128.59 168.61,-112.29"/>
<polygon fill="#9a32cd" stroke="#9a32cd" points="169.5,-172.57 173.72,-182.29 176.48,-172.06 169.5,-172.57"/>
<text xml:space="preserve" text-anchor="middle" x="201.31" y="-156.5" font-family="Helvetica,sans-Serif" font-size="10.00"> data</text>
<text xml:space="preserve" text-anchor="middle" x="201.31" y="-144.5" font-family="Helvetica,sans-Serif" font-size="10.00">inner_indices</text>
<text xml:space="preserve" text-anchor="middle" x="201.31" y="-132.5" font-family="Helvetica,sans-Serif" font-size="10.00">outer_indices</text>
</g>
</g>
</svg>
