<?xml version="1.0" encoding="UTF-8" standalone="no"?>
<!DOCTYPE svg PUBLIC "-//W3C//DTD SVG 1.1//EN"
 "http://www.w3.org/Graphics/SVG/1.1/DTD/svg11.dtd">
<!-- Generated by graphviz version 13.1.2 (20250808.2320)
 -->
<!-- Title: DHARTAPI.NativeUtils.DependentNativeArray&lt; T &gt; Pages: 1 -->
<svg width="258pt" height="314pt"
 viewBox="0.00 0.00 258.00 314.00" xmlns="http://www.w3.org/2000/svg" xmlns:xlink="http://www.w3.org/1999/xlink">
<g id="graph0" class="graph" transform="scale(1 1) rotate(0) translate(4 310)">
<title>DHARTAPI.NativeUtils.DependentNativeArray&lt; T &gt;</title>
<!-- Node1 -->
<g id="node1" class="node">
<title>Node1</title>
<g id="a_node1"><a xlink:title="A native array 2D that doesn&#39;t require destruction.">
<polygon fill="#999999" stroke="#666666" points="188.62,-32 20.38,-32 20.38,0 188.62,0 188.62,-32"/>
<text xml:space="preserve" text-anchor="start" x="28.38" y="-18.5" font-family="Helvetica,sans-Serif" font-size="10.00">DHARTAPI.NativeUtils.Dependent</text>
<text xml:space="preserve" text-anchor="middle" x="104.5" y="-6.5" font-family="Helvetica,sans-Serif" font-size="10.00">NativeArray&lt; T &gt;</text>
</a>
</g>
</g>
<!-- Node2 -->
<g id="node2" class="node">
<title>Node2</title>
<g id="a_node2"><a xlink:href="class_d_h_a_r_t_a_p_i_1_1_native_utils_1_1_native_array2_d.html" target="_top" xlink:title="A wrapper for a two dimensional array in unmanaged memory.">
<polygon fill="white" stroke="#666666" points="156.38,-89 52.62,-89 52.62,-69 156.38,-69 156.38,-89"/>
<text xml:space="preserve" text-anchor="middle" x="104.5" y="-75.5" font-family="Helvetica,sans-Serif" font-size="10.00">NativeArray2D&lt; T &gt;</text>
</a>
</g>
</g>
<!-- Node2&#45;&gt;Node1 -->
<g id="edge1" class="edge">
<title>Node2&#45;&gt;Node1</title>
<path fill="none" stroke="#63b8ff" d="M104.5,-57.36C104.5,-49.07 104.5,-39.69 104.5,-32.06"/>
<polygon fill="#63b8ff" stroke="#63b8ff" points="101,-57.22 104.5,-67.22 108,-57.22 101,-57.22"/>
</g>
<!-- Node3 -->
<g id="node3" class="node">
<title>Node3</title>
<g id="a_node3"><a xlink:href="class_d_h_a_r_t_a_p_i_1_1_native_utils_1_1_native_array.html" target="_top" xlink:title="A read&#45;only array stored in unmanaged memory.">
<polygon fill="white" stroke="#666666" points="150,-146 59,-146 59,-126 150,-126 150,-146"/>
<text xml:space="preserve" text-anchor="middle" x="104.5" y="-132.5" font-family="Helvetica,sans-Serif" font-size="10.00">NativeArray&lt; T &gt;</text>
</a>
</g>
</g>
<!-- Node3&#45;&gt;Node2 -->
<g id="edge2" class="edge">
<title>Node3&#45;&gt;Node2</title>
<path fill="none" stroke="#63b8ff" d="M104.5,-114.69C104.5,-105.97 104.5,-96.22 104.5,-89.28"/>
<polygon fill="#63b8ff" stroke="#63b8ff" points="101,-114.4 104.5,-124.4 108,-114.4 101,-114.4"/>
</g>
<!-- Node4 -->
<g id="node4" class="node">
<title>Node4</title>
<g id="a_node4"><a xlink:href="class_d_h_a_r_t_a_p_i_1_1_native_utils_1_1_native_object.html" target="_top" xlink:title="An object that holds a pointer to unmanaged memory or some other resource that must be freed.">
<polygon fill="white" stroke="#666666" points="75,-220 2,-220 2,-200 75,-200 75,-220"/>
<text xml:space="preserve" text-anchor="middle" x="38.5" y="-206.5" font-family="Helvetica,sans-Serif" font-size="10.00">NativeObject</text>
</a>
</g>
</g>
<!-- Node4&#45;&gt;Node3 -->
<g id="edge3" class="edge">
<title>Node4&#45;&gt;Node3</title>
<path fill="none" stroke="#63b8ff" d="M54.54,-191.5C67.64,-177.21 85.64,-157.57 96.08,-146.19"/>
<polygon fill="#63b8ff" stroke="#63b8ff" points="52.33,-188.73 48.15,-198.47 57.49,-193.47 52.33,-188.73"/>
</g>
<!-- Node5 -->
<g id="node5" class="node">
<title>Node5</title>
<g id="a_node5"><a xlink:href="class_safe_handle.html" target="_top" xlink:title=" ">
<polygon fill="white" stroke="#666666" points="67,-306 0,-306 0,-286 67,-286 67,-306"/>
<text xml:space="preserve" text-anchor="middle" x="33.5" y="-292.5" font-family="Helvetica,sans-Serif" font-size="10.00">SafeHandle</text>
</a>
</g>
</g>
<!-- Node5&#45;&gt;Node4 -->
<g id="edge4" class="edge">
<title>Node5&#45;&gt;Node4</title>
<path fill="none" stroke="#63b8ff" d="M34.73,-274.3C35.76,-257.06 37.17,-233.31 37.94,-220.35"/>
<polygon fill="#63b8ff" stroke="#63b8ff" points="31.24,-273.99 34.14,-284.18 38.23,-274.4 31.24,-273.99"/>
</g>
<!-- Node6 -->
<g id="node6" class="node">
<title>Node6</title>
<g id="a_node6"><a xlink:title=" ">
<polygon fill="white" stroke="#666666" points="126.9,-306 98.1,-306 98.1,-286 126.9,-286 126.9,-306"/>
<text xml:space="preserve" text-anchor="middle" x="112.5" y="-292.5" font-family="Helvetica,sans-Serif" font-size="10.00">int</text>
</a>
</g>
</g>
<!-- Node6&#45;&gt;Node4 -->
<g id="edge5" class="edge">
<title>Node6&#45;&gt;Node4</title>
<path fill="none" stroke="#9a32cd" stroke-dasharray="5,2" d="M95.16,-277.75C92.07,-274.55 88.9,-271.21 86,-268 71.31,-251.76 55.18,-231.95 46.01,-220.48"/>
<polygon fill="#9a32cd" stroke="#9a32cd" points="92.41,-279.94 101.92,-284.61 97.39,-275.03 92.41,-279.94"/>
<text xml:space="preserve" text-anchor="middle" x="106.25" y="-252.5" font-family="Helvetica,sans-Serif" font-size="10.00"> pressure</text>
</g>
<!-- Node7 -->
<g id="node7" class="node">
<title>Node7</title>
<g id="a_node7"><a xlink:href="struct_d_h_a_r_t_a_p_i_1_1_native_utils_1_1_c_vector_and_data.html" target="_top" xlink:title="Pointers to a C++ vector&#39;s data, the vector itself, and the size of the vector.">
<polygon fill="white" stroke="#666666" points="249.62,-226 93.38,-226 93.38,-194 249.62,-194 249.62,-226"/>
<text xml:space="preserve" text-anchor="start" x="101.38" y="-212.5" font-family="Helvetica,sans-Serif" font-size="10.00">DHARTAPI.NativeUtils.CVector</text>
<text xml:space="preserve" text-anchor="middle" x="171.5" y="-200.5" font-family="Helvetica,sans-Serif" font-size="10.00">AndData</text>
</a>
</g>
</g>
<!-- Node6&#45;&gt;Node7 -->
<g id="edge8" class="edge">
<title>Node6&#45;&gt;Node7</title>
<path fill="none" stroke="#9a32cd" stroke-dasharray="5,2" d="M124.4,-276.36C130.73,-266.61 138.74,-254.54 146.25,-244 150.43,-238.12 155.2,-231.8 159.46,-226.28"/>
<polygon fill="#9a32cd" stroke="#9a32cd" points="121.58,-274.27 119.11,-284.57 127.47,-278.06 121.58,-274.27"/>
<text xml:space="preserve" text-anchor="middle" x="157.88" y="-258.5" font-family="Helvetica,sans-Serif" font-size="10.00"> size</text>
<text xml:space="preserve" text-anchor="middle" x="157.88" y="-246.5" font-family="Helvetica,sans-Serif" font-size="10.00">size2</text>
</g>
<!-- Node7&#45;&gt;Node3 -->
<g id="edge6" class="edge">
<title>Node7&#45;&gt;Node3</title>
<path fill="none" stroke="#9a32cd" stroke-dasharray="5,2" d="M149.57,-185.43C137.16,-172.09 122.33,-156.16 113.16,-146.31"/>
<polygon fill="#9a32cd" stroke="#9a32cd" points="146.89,-187.69 156.26,-192.62 152.01,-182.92 146.89,-187.69"/>
<text xml:space="preserve" text-anchor="middle" x="149.76" y="-166.5" font-family="Helvetica,sans-Serif" font-size="10.00"> ptrs</text>
</g>
<!-- Node8 -->
<g id="node8" class="node">
<title>Node8</title>
<g id="a_node8"><a xlink:title=" ">
<polygon fill="white" stroke="#666666" points="196.5,-306 156.5,-306 156.5,-286 196.5,-286 196.5,-306"/>
<text xml:space="preserve" text-anchor="middle" x="176.5" y="-292.5" font-family="Helvetica,sans-Serif" font-size="10.00">IntPtr</text>
</a>
</g>
</g>
<!-- Node8&#45;&gt;Node7 -->
<g id="edge7" class="edge">
<title>Node8&#45;&gt;Node7</title>
<path fill="none" stroke="#9a32cd" stroke-dasharray="5,2" d="M175.29,-274.61C174.4,-259.72 173.22,-239.86 172.41,-226.32"/>
<polygon fill="#9a32cd" stroke="#9a32cd" points="171.77,-274.4 175.86,-284.18 178.76,-273.99 171.77,-274.4"/>
<text xml:space="preserve" text-anchor="middle" x="188.38" y="-258.5" font-family="Helvetica,sans-Serif" font-size="10.00"> data</text>
<text xml:space="preserve" text-anchor="middle" x="188.38" y="-246.5" font-family="Helvetica,sans-Serif" font-size="10.00">vector</text>
</g>
</g>
</svg>
