<?xml version="1.0" encoding="UTF-8" standalone="no"?>
<!DOCTYPE svg PUBLIC "-//W3C//DTD SVG 1.1//EN"
 "http://www.w3.org/Graphics/SVG/1.1/DTD/svg11.dtd">
<!-- Generated by graphviz version 13.1.2 (20250808.2320)
 -->
<!-- Title: DHARTAPI.NativeUtils.NativeObject.UpdatePressure Pages: 1 -->
<svg width="351pt" height="140pt"
 viewBox="0.00 0.00 351.00 140.00" xmlns="http://www.w3.org/2000/svg" xmlns:xlink="http://www.w3.org/1999/xlink">
<g id="graph0" class="graph" transform="scale(1 1) rotate(0) translate(4 136)">
<title>DHARTAPI.NativeUtils.NativeObject.UpdatePressure</title>
<!-- Node1 -->
<g id="node1" class="node">
<title>Node1</title>
<g id="a_node1"><a xlink:title="Update the pressure of this object.">
<polygon fill="#999999" stroke="#666666" points="343.25,-82 193.75,-82 193.75,-50 343.25,-50 343.25,-82"/>
<text xml:space="preserve" text-anchor="start" x="201.75" y="-68.5" font-family="Helvetica,sans-Serif" font-size="10.00">DHARTAPI.NativeUtils.Native</text>
<text xml:space="preserve" text-anchor="middle" x="268.5" y="-56.5" font-family="Helvetica,sans-Serif" font-size="10.00">Object.UpdatePressure</text>
</a>
</g>
</g>
<!-- Node2 -->
<g id="node2" class="node">
<title>Node2</title>
<g id="a_node2"><a xlink:href="class_d_h_a_r_t_a_p_i_1_1_ray_tracing_1_1_embree_b_v_h.html#ae786d49adc0969b147bfcfa67fe17c50" target="_top" xlink:title="Add a new mesh to the BVH.">
<polygon fill="white" stroke="#666666" points="157,-132 0.75,-132 0.75,-100 157,-100 157,-132"/>
<text xml:space="preserve" text-anchor="start" x="8.75" y="-118.5" font-family="Helvetica,sans-Serif" font-size="10.00">DHARTAPI.RayTracing.Embree</text>
<text xml:space="preserve" text-anchor="middle" x="78.88" y="-106.5" font-family="Helvetica,sans-Serif" font-size="10.00">BVH.AddMesh</text>
</a>
</g>
</g>
<!-- Node1&#45;&gt;Node2 -->
<g id="edge1" class="edge">
<title>Node1&#45;&gt;Node2</title>
<path fill="none" stroke="#63b8ff" d="M194.99,-85.32C177.37,-90.02 158.68,-95 141.61,-99.55"/>
<polygon fill="#63b8ff" stroke="#63b8ff" points="195.58,-88.79 204.34,-82.83 193.78,-82.02 195.58,-88.79"/>
</g>
<!-- Node3 -->
<g id="node3" class="node">
<title>Node3</title>
<g id="a_node3"><a xlink:href="class_d_h_a_r_t_a_p_i_1_1_ray_tracing_1_1_embree_b_v_h.html#aab9bb7cded6aff8e5ebb7d1fc19c7e08" target="_top" xlink:title="Construct a BVH from an array of meshes.">
<polygon fill="white" stroke="#666666" points="157,-82 0.75,-82 0.75,-50 157,-50 157,-82"/>
<text xml:space="preserve" text-anchor="start" x="8.75" y="-68.5" font-family="Helvetica,sans-Serif" font-size="10.00">DHARTAPI.RayTracing.Embree</text>
<text xml:space="preserve" text-anchor="middle" x="78.88" y="-56.5" font-family="Helvetica,sans-Serif" font-size="10.00">BVH.EmbreeBVH</text>
</a>
</g>
</g>
<!-- Node1&#45;&gt;Node3 -->
<g id="edge2" class="edge">
<title>Node1&#45;&gt;Node3</title>
<path fill="none" stroke="#63b8ff" d="M181.92,-66C173.78,-66 165.56,-66 157.5,-66"/>
<polygon fill="#63b8ff" stroke="#63b8ff" points="181.83,-69.5 191.83,-66 181.83,-62.5 181.83,-69.5"/>
</g>
<!-- Node4 -->
<g id="node4" class="node">
<title>Node4</title>
<g id="a_node4"><a xlink:href="class_d_h_a_r_t_a_p_i_1_1_geometry_1_1_mesh_info.html#a95eab7157f13f269f8ed443d2dba42f6" target="_top" xlink:title="Create a new meshinfo instance from the given pointer.">
<polygon fill="white" stroke="#666666" points="157.75,-32 0,-32 0,0 157.75,0 157.75,-32"/>
<text xml:space="preserve" text-anchor="start" x="8" y="-18.5" font-family="Helvetica,sans-Serif" font-size="10.00">DHARTAPI.Geometry.MeshInfo.</text>
<text xml:space="preserve" text-anchor="middle" x="78.88" y="-6.5" font-family="Helvetica,sans-Serif" font-size="10.00">MeshInfo</text>
</a>
</g>
</g>
<!-- Node1&#45;&gt;Node4 -->
<g id="edge3" class="edge">
<title>Node1&#45;&gt;Node4</title>
<path fill="none" stroke="#63b8ff" d="M194.99,-46.68C177.37,-41.98 158.68,-37 141.61,-32.45"/>
<polygon fill="#63b8ff" stroke="#63b8ff" points="193.78,-49.98 204.34,-49.17 195.58,-43.21 193.78,-49.98"/>
</g>
</g>
</svg>
