<?xml version="1.0" encoding="UTF-8" standalone="no"?>
<!DOCTYPE svg PUBLIC "-//W3C//DTD SVG 1.1//EN"
 "http://www.w3.org/Graphics/SVG/1.1/DTD/svg11.dtd">
<!-- Generated by graphviz version 13.1.2 (20250808.2320)
 -->
<!-- Title: DHARTAPI.Pathfinding.ShortestPath.DijkstraAllToAll Pages: 1 -->
<svg width="537pt" height="90pt"
 viewBox="0.00 0.00 537.00 90.00" xmlns="http://www.w3.org/2000/svg" xmlns:xlink="http://www.w3.org/1999/xlink">
<g id="graph0" class="graph" transform="scale(1 1) rotate(0) translate(4 86)">
<title>DHARTAPI.Pathfinding.ShortestPath.DijkstraAllToAll</title>
<!-- Node1 -->
<g id="node1" class="node">
<title>Node1</title>
<g id="a_node1"><a xlink:title="Generate a path from every node in the graph to every other node in a graph.">
<polygon fill="#999999" stroke="#666666" points="157.75,-57 0,-57 0,-25 157.75,-25 157.75,-57"/>
<text xml:space="preserve" text-anchor="start" x="8" y="-43.5" font-family="Helvetica,sans-Serif" font-size="10.00">DHARTAPI.Pathfinding.Shortest</text>
<text xml:space="preserve" text-anchor="middle" x="78.88" y="-31.5" font-family="Helvetica,sans-Serif" font-size="10.00">Path.DijkstraAllToAll</text>
</a>
</g>
</g>
<!-- Node2 -->
<g id="node2" class="node">
<title>Node2</title>
<g id="a_node2"><a xlink:href="class_d_h_a_r_t_a_p_i_1_1_pathfinding_1_1_native_methods.html#a69f39620ac0151772c22311037fe8d08" target="_top" xlink:title="Generate all to all paths in C++.">
<polygon fill="white" stroke="#666666" points="343.25,-82 193.75,-82 193.75,-50 343.25,-50 343.25,-82"/>
<text xml:space="preserve" text-anchor="start" x="201.75" y="-68.5" font-family="Helvetica,sans-Serif" font-size="10.00">DHARTAPI.Pathfinding.Native</text>
<text xml:space="preserve" text-anchor="middle" x="268.5" y="-56.5" font-family="Helvetica,sans-Serif" font-size="10.00">Methods.C_AllToAllPaths</text>
</a>
</g>
</g>
<!-- Node1&#45;&gt;Node2 -->
<g id="edge1" class="edge">
<title>Node1&#45;&gt;Node2</title>
<path fill="none" stroke="#63b8ff" d="M158.09,-51.42C166.01,-52.48 174.09,-53.55 182.09,-54.62"/>
<polygon fill="#63b8ff" stroke="#63b8ff" points="181.45,-58.06 191.82,-55.92 182.37,-51.13 181.45,-58.06"/>
</g>
<!-- Node4 -->
<g id="node4" class="node">
<title>Node4</title>
<g id="a_node4"><a xlink:href="class_d_h_a_r_t_a_p_i_1_1_spatial_structures_1_1_graph.html#a7113a8d636abc5510a3f794cbc2bf2f4" target="_top" xlink:title="Get the number of nodes in this graph.">
<polygon fill="white" stroke="#666666" points="342.12,-32 194.88,-32 194.88,0 342.12,0 342.12,-32"/>
<text xml:space="preserve" text-anchor="start" x="202.88" y="-18.5" font-family="Helvetica,sans-Serif" font-size="10.00">DHARTAPI.SpatialStructures.</text>
<text xml:space="preserve" text-anchor="middle" x="268.5" y="-6.5" font-family="Helvetica,sans-Serif" font-size="10.00">Graph.NumNodes</text>
</a>
</g>
</g>
<!-- Node1&#45;&gt;Node4 -->
<g id="edge3" class="edge">
<title>Node1&#45;&gt;Node4</title>
<path fill="none" stroke="#63b8ff" d="M158.09,-30.58C166.38,-29.47 174.84,-28.35 183.21,-27.23"/>
<polygon fill="#63b8ff" stroke="#63b8ff" points="183.57,-30.71 193.02,-25.92 182.64,-23.78 183.57,-30.71"/>
</g>
<!-- Node3 -->
<g id="node3" class="node">
<title>Node3</title>
<g id="a_node3"><a xlink:href="class_d_h_a_r_t_a_p_i_1_1_pathfinding_1_1_native_methods.html#a0277f22cea8a9232c0837dccbbb9aaf6" target="_top" xlink:title=" ">
<polygon fill="white" stroke="#666666" points="528.75,-82 379.25,-82 379.25,-50 528.75,-50 528.75,-82"/>
<text xml:space="preserve" text-anchor="start" x="387.25" y="-68.5" font-family="Helvetica,sans-Serif" font-size="10.00">DHARTAPI.Pathfinding.Native</text>
<text xml:space="preserve" text-anchor="middle" x="454" y="-56.5" font-family="Helvetica,sans-Serif" font-size="10.00">Methods.CreateAllToAllPaths</text>
</a>
</g>
</g>
<!-- Node2&#45;&gt;Node3 -->
<g id="edge2" class="edge">
<title>Node2&#45;&gt;Node3</title>
<path fill="none" stroke="#63b8ff" d="M343.61,-66C351.52,-66 359.61,-66 367.64,-66"/>
<polygon fill="#63b8ff" stroke="#63b8ff" points="367.4,-69.5 377.4,-66 367.4,-62.5 367.4,-69.5"/>
</g>
</g>
</svg>
