<?xml version="1.0" encoding="UTF-8" standalone="no"?>
<!DOCTYPE svg PUBLIC "-//W3C//DTD SVG 1.1//EN"
 "http://www.w3.org/Graphics/SVG/1.1/DTD/svg11.dtd">
<!-- Generated by graphviz version 13.1.2 (20250808.2320)
 -->
<!-- Title: DHARTAPI.SpatialStructures.Graph.NumNodes Pages: 1 -->
<svg width="381pt" height="202pt"
 viewBox="0.00 0.00 381.00 202.00" xmlns="http://www.w3.org/2000/svg" xmlns:xlink="http://www.w3.org/1999/xlink">
<g id="graph0" class="graph" transform="scale(1 1) rotate(0) translate(4 198)">
<title>DHARTAPI.SpatialStructures.Graph.NumNodes</title>
<!-- Node1 -->
<g id="node1" class="node">
<title>Node1</title>
<g id="a_node1"><a xlink:title="Get the number of nodes in this graph.">
<polygon fill="#999999" stroke="#666666" points="373.25,-119 226,-119 226,-87 373.25,-87 373.25,-119"/>
<text xml:space="preserve" text-anchor="start" x="234" y="-105.5" font-family="Helvetica,sans-Serif" font-size="10.00">DHARTAPI.SpatialStructures.</text>
<text xml:space="preserve" text-anchor="middle" x="299.62" y="-93.5" font-family="Helvetica,sans-Serif" font-size="10.00">Graph.NumNodes</text>
</a>
</g>
</g>
<!-- Node2 -->
<g id="node2" class="node">
<title>Node2</title>
<g id="a_node2"><a xlink:href="class_d_h_a_r_t_a_p_i_1_1_spatial_structures_1_1_graph.html#a425d4666d544a72bc7fc11fb35f233a2" target="_top" xlink:title="Add attribute to all node in ids, with their respective score in scores.">
<polygon fill="white" stroke="#666666" points="168.62,-194 21.38,-194 21.38,-162 168.62,-162 168.62,-194"/>
<text xml:space="preserve" text-anchor="start" x="29.38" y="-180.5" font-family="Helvetica,sans-Serif" font-size="10.00">DHARTAPI.SpatialStructures.</text>
<text xml:space="preserve" text-anchor="middle" x="95" y="-168.5" font-family="Helvetica,sans-Serif" font-size="10.00">Graph.AddNodeAttribute&lt; T &gt;</text>
</a>
</g>
</g>
<!-- Node1&#45;&gt;Node2 -->
<g id="edge1" class="edge">
<title>Node1&#45;&gt;Node2</title>
<path fill="none" stroke="#63b8ff" d="M256.65,-124.36C236.78,-133.95 212.52,-144.89 190,-153 181.5,-156.06 172.45,-158.93 163.44,-161.57"/>
<polygon fill="#63b8ff" stroke="#63b8ff" points="258.1,-127.55 265.55,-120.02 255.03,-121.26 258.1,-127.55"/>
</g>
<!-- Node3 -->
<g id="node3" class="node">
<title>Node3</title>
<g id="a_node3"><a xlink:href="class_d_h_a_r_t_a_p_i_1_1_spatial_structures_1_1_graph.html#ac31c69fa2fb19842bb3daeee06d230a1" target="_top" xlink:title="Summarize the edgecosts of every node in the graph.">
<polygon fill="white" stroke="#666666" points="168.62,-144 21.38,-144 21.38,-112 168.62,-112 168.62,-144"/>
<text xml:space="preserve" text-anchor="start" x="29.38" y="-130.5" font-family="Helvetica,sans-Serif" font-size="10.00">DHARTAPI.SpatialStructures.</text>
<text xml:space="preserve" text-anchor="middle" x="95" y="-118.5" font-family="Helvetica,sans-Serif" font-size="10.00">Graph.AggregateEdgeCosts</text>
</a>
</g>
</g>
<!-- Node1&#45;&gt;Node3 -->
<g id="edge2" class="edge">
<title>Node1&#45;&gt;Node3</title>
<path fill="none" stroke="#63b8ff" d="M214.34,-113.4C199.25,-115.26 183.64,-117.19 168.9,-119.01"/>
<polygon fill="#63b8ff" stroke="#63b8ff" points="214.76,-116.87 224.26,-112.18 213.9,-109.93 214.76,-116.87"/>
</g>
<!-- Node4 -->
<g id="node4" class="node">
<title>Node4</title>
<g id="a_node4"><a xlink:href="class_d_h_a_r_t_a_p_i_1_1_pathfinding_1_1_shortest_path.html#a5d3e810b6cef979141bd4208700a6df2" target="_top" xlink:title="Generate a path from every node in the graph to every other node in a graph.">
<polygon fill="white" stroke="#666666" points="173.88,-94 16.12,-94 16.12,-62 173.88,-62 173.88,-94"/>
<text xml:space="preserve" text-anchor="start" x="24.12" y="-80.5" font-family="Helvetica,sans-Serif" font-size="10.00">DHARTAPI.Pathfinding.Shortest</text>
<text xml:space="preserve" text-anchor="middle" x="95" y="-68.5" font-family="Helvetica,sans-Serif" font-size="10.00">Path.DijkstraAllToAll</text>
</a>
</g>
</g>
<!-- Node1&#45;&gt;Node4 -->
<g id="edge3" class="edge">
<title>Node1&#45;&gt;Node4</title>
<path fill="none" stroke="#63b8ff" d="M214.6,-92.63C201.17,-90.98 187.32,-89.27 174.04,-87.63"/>
<polygon fill="#63b8ff" stroke="#63b8ff" points="213.9,-96.07 224.26,-93.82 214.76,-89.13 213.9,-96.07"/>
</g>
<!-- Node5 -->
<g id="node5" class="node">
<title>Node5</title>
<g id="a_node5"><a xlink:href="class_d_h_a_r_t_a_p_i_1_1_pathfinding_1_1_shortest_path.html#aa68a818835b9ceeb6de87d86f74d739f" target="_top" xlink:title="Calculate Predecessor and Distance Matricies for a graph.">
<polygon fill="white" stroke="#666666" points="190,-44 0,-44 0,0 190,0 190,-44"/>
<text xml:space="preserve" text-anchor="start" x="8" y="-30.5" font-family="Helvetica,sans-Serif" font-size="10.00">DHARTAPI.Pathfinding.Shortest</text>
<text xml:space="preserve" text-anchor="start" x="8" y="-18.5" font-family="Helvetica,sans-Serif" font-size="10.00">Path.GeneratePredecessorAndDistance</text>
<text xml:space="preserve" text-anchor="middle" x="95" y="-6.5" font-family="Helvetica,sans-Serif" font-size="10.00">Matricies</text>
</a>
</g>
</g>
<!-- Node1&#45;&gt;Node5 -->
<g id="edge4" class="edge">
<title>Node1&#45;&gt;Node5</title>
<path fill="none" stroke="#63b8ff" d="M255.55,-81.81C235.8,-72.45 211.94,-61.64 190,-53 182.56,-50.07 174.73,-47.19 166.88,-44.42"/>
<polygon fill="#63b8ff" stroke="#63b8ff" points="253.87,-84.89 264.4,-86.05 256.89,-78.57 253.87,-84.89"/>
</g>
</g>
</svg>
