<?xml version="1.0" encoding="UTF-8" standalone="no"?>
<!DOCTYPE svg PUBLIC "-//W3C//DTD SVG 1.1//EN"
 "http://www.w3.org/Graphics/SVG/1.1/DTD/svg11.dtd">
<!-- Generated by graphviz version 13.1.2 (20250808.2320)
 -->
<!-- Title: DHARTAPI.NativeUtils.NativeArray&lt; T &gt; Pages: 1 -->
<svg width="258pt" height="200pt"
 viewBox="0.00 0.00 258.00 200.00" xmlns="http://www.w3.org/2000/svg" xmlns:xlink="http://www.w3.org/1999/xlink">
<g id="graph0" class="graph" transform="scale(1 1) rotate(0) translate(4 196)">
<title>DHARTAPI.NativeUtils.NativeArray&lt; T &gt;</title>
<!-- Node1 -->
<g id="node1" class="node">
<title>Node1</title>
<g id="a_node1"><a xlink:title="A read&#45;only array stored in unmanaged memory.">
<polygon fill="#999999" stroke="#666666" points="179.25,-32 29.75,-32 29.75,0 179.25,0 179.25,-32"/>
<text xml:space="preserve" text-anchor="start" x="37.75" y="-18.5" font-family="Helvetica,sans-Serif" font-size="10.00">DHARTAPI.NativeUtils.Native</text>
<text xml:space="preserve" text-anchor="middle" x="104.5" y="-6.5" font-family="Helvetica,sans-Serif" font-size="10.00">Array&lt; T &gt;</text>
</a>
</g>
</g>
<!-- Node2 -->
<g id="node2" class="node">
<title>Node2</title>
<g id="a_node2"><a xlink:href="class_d_h_a_r_t_a_p_i_1_1_native_utils_1_1_native_object.html" target="_top" xlink:title="An object that holds a pointer to unmanaged memory or some other resource that must be freed.">
<polygon fill="white" stroke="#666666" points="75,-106 2,-106 2,-86 75,-86 75,-106"/>
<text xml:space="preserve" text-anchor="middle" x="38.5" y="-92.5" font-family="Helvetica,sans-Serif" font-size="10.00">NativeObject</text>
</a>
</g>
</g>
<!-- Node2&#45;&gt;Node1 -->
<g id="edge1" class="edge">
<title>Node2&#45;&gt;Node1</title>
<path fill="none" stroke="#63b8ff" d="M53.48,-77.3C64.91,-63.78 80.52,-45.34 91.45,-32.42"/>
<polygon fill="#63b8ff" stroke="#63b8ff" points="51.1,-74.7 47.31,-84.59 56.44,-79.22 51.1,-74.7"/>
</g>
<!-- Node3 -->
<g id="node3" class="node">
<title>Node3</title>
<g id="a_node3"><a xlink:href="class_safe_handle.html" target="_top" xlink:title=" ">
<polygon fill="white" stroke="#666666" points="67,-192 0,-192 0,-172 67,-172 67,-192"/>
<text xml:space="preserve" text-anchor="middle" x="33.5" y="-178.5" font-family="Helvetica,sans-Serif" font-size="10.00">SafeHandle</text>
</a>
</g>
</g>
<!-- Node3&#45;&gt;Node2 -->
<g id="edge2" class="edge">
<title>Node3&#45;&gt;Node2</title>
<path fill="none" stroke="#63b8ff" d="M34.73,-160.3C35.76,-143.06 37.17,-119.31 37.94,-106.35"/>
<polygon fill="#63b8ff" stroke="#63b8ff" points="31.24,-159.99 34.14,-170.18 38.23,-160.4 31.24,-159.99"/>
</g>
<!-- Node4 -->
<g id="node4" class="node">
<title>Node4</title>
<g id="a_node4"><a xlink:title=" ">
<polygon fill="white" stroke="#666666" points="126.9,-192 98.1,-192 98.1,-172 126.9,-172 126.9,-192"/>
<text xml:space="preserve" text-anchor="middle" x="112.5" y="-178.5" font-family="Helvetica,sans-Serif" font-size="10.00">int</text>
</a>
</g>
</g>
<!-- Node4&#45;&gt;Node2 -->
<g id="edge3" class="edge">
<title>Node4&#45;&gt;Node2</title>
<path fill="none" stroke="#9a32cd" stroke-dasharray="5,2" d="M95.16,-163.75C92.07,-160.55 88.9,-157.21 86,-154 71.31,-137.76 55.18,-117.95 46.01,-106.48"/>
<polygon fill="#9a32cd" stroke="#9a32cd" points="92.41,-165.94 101.92,-170.61 97.39,-161.03 92.41,-165.94"/>
<text xml:space="preserve" text-anchor="middle" x="106.25" y="-138.5" font-family="Helvetica,sans-Serif" font-size="10.00"> pressure</text>
</g>
<!-- Node5 -->
<g id="node5" class="node">
<title>Node5</title>
<g id="a_node5"><a xlink:href="struct_d_h_a_r_t_a_p_i_1_1_native_utils_1_1_c_vector_and_data.html" target="_top" xlink:title="Pointers to a C++ vector&#39;s data, the vector itself, and the size of the vector.">
<polygon fill="white" stroke="#666666" points="249.62,-112 93.38,-112 93.38,-80 249.62,-80 249.62,-112"/>
<text xml:space="preserve" text-anchor="start" x="101.38" y="-98.5" font-family="Helvetica,sans-Serif" font-size="10.00">DHARTAPI.NativeUtils.CVector</text>
<text xml:space="preserve" text-anchor="middle" x="171.5" y="-86.5" font-family="Helvetica,sans-Serif" font-size="10.00">AndData</text>
</a>
</g>
</g>
<!-- Node4&#45;&gt;Node5 -->
<g id="edge6" class="edge">
<title>Node4&#45;&gt;Node5</title>
<path fill="none" stroke="#9a32cd" stroke-dasharray="5,2" d="M124.4,-162.36C130.73,-152.61 138.74,-140.54 146.25,-130 150.43,-124.12 155.2,-117.8 159.46,-112.28"/>
<polygon fill="#9a32cd" stroke="#9a32cd" points="121.58,-160.27 119.11,-170.57 127.47,-164.06 121.58,-160.27"/>
<text xml:space="preserve" text-anchor="middle" x="157.88" y="-144.5" font-family="Helvetica,sans-Serif" font-size="10.00"> size</text>
<text xml:space="preserve" text-anchor="middle" x="157.88" y="-132.5" font-family="Helvetica,sans-Serif" font-size="10.00">size2</text>
</g>
<!-- Node5&#45;&gt;Node1 -->
<g id="edge4" class="edge">
<title>Node5&#45;&gt;Node1</title>
<path fill="none" stroke="#9a32cd" stroke-dasharray="5,2" d="M150.85,-70.96C140.05,-58.39 127.15,-43.37 117.71,-32.38"/>
<polygon fill="#9a32cd" stroke="#9a32cd" points="148.11,-73.14 157.28,-78.44 153.42,-68.58 148.11,-73.14"/>
<text xml:space="preserve" text-anchor="middle" x="151.76" y="-52.5" font-family="Helvetica,sans-Serif" font-size="10.00"> ptrs</text>
</g>
<!-- Node6 -->
<g id="node6" class="node">
<title>Node6</title>
<g id="a_node6"><a xlink:title=" ">
<polygon fill="white" stroke="#666666" points="196.5,-192 156.5,-192 156.5,-172 196.5,-172 196.5,-192"/>
<text xml:space="preserve" text-anchor="middle" x="176.5" y="-178.5" font-family="Helvetica,sans-Serif" font-size="10.00">IntPtr</text>
</a>
</g>
</g>
<!-- Node6&#45;&gt;Node5 -->
<g id="edge5" class="edge">
<title>Node6&#45;&gt;Node5</title>
<path fill="none" stroke="#9a32cd" stroke-dasharray="5,2" d="M175.29,-160.61C174.4,-145.72 173.22,-125.86 172.41,-112.32"/>
<polygon fill="#9a32cd" stroke="#9a32cd" points="171.77,-160.4 175.86,-170.18 178.76,-159.99 171.77,-160.4"/>
<text xml:space="preserve" text-anchor="middle" x="188.38" y="-144.5" font-family="Helvetica,sans-Serif" font-size="10.00"> data</text>
<text xml:space="preserve" text-anchor="middle" x="188.38" y="-132.5" font-family="Helvetica,sans-Serif" font-size="10.00">vector</text>
</g>
</g>
</svg>
