<?xml version="1.0" encoding="UTF-8" standalone="no"?>
<!DOCTYPE svg PUBLIC "-//W3C//DTD SVG 1.1//EN"
 "http://www.w3.org/Graphics/SVG/1.1/DTD/svg11.dtd">
<!-- Generated by graphviz version 13.1.2 (20250808.2320)
 -->
<!-- Title: DHARTAPI.SpatialStructures.Graph.AggregateEdgeCosts Pages: 1 -->
<svg width="784pt" height="140pt"
 viewBox="0.00 0.00 784.00 140.00" xmlns="http://www.w3.org/2000/svg" xmlns:xlink="http://www.w3.org/1999/xlink">
<g id="graph0" class="graph" transform="scale(1 1) rotate(0) translate(4 136)">
<title>DHARTAPI.SpatialStructures.Graph.AggregateEdgeCosts</title>
<!-- Node1 -->
<g id="node1" class="node">
<title>Node1</title>
<g id="a_node1"><a xlink:title="Summarize the edgecosts of every node in the graph.">
<polygon fill="#999999" stroke="#666666" points="147.25,-82 0,-82 0,-50 147.25,-50 147.25,-82"/>
<text xml:space="preserve" text-anchor="start" x="8" y="-68.5" font-family="Helvetica,sans-Serif" font-size="10.00">DHARTAPI.SpatialStructures.</text>
<text xml:space="preserve" text-anchor="middle" x="73.62" y="-56.5" font-family="Helvetica,sans-Serif" font-size="10.00">Graph.AggregateEdgeCosts</text>
</a>
</g>
</g>
<!-- Node2 -->
<g id="node2" class="node">
<title>Node2</title>
<g id="a_node2"><a xlink:href="class_d_h_a_r_t_a_p_i_1_1_spatial_structures_1_1_native_methods.html#a1e58d746c7053bc4cf5b0ff65f5fd5e0" target="_top" xlink:title="Summarize the edgecosts of every node in the graph.">
<polygon fill="white" stroke="#666666" points="374,-132 183.25,-132 183.25,-100 374,-100 374,-132"/>
<text xml:space="preserve" text-anchor="start" x="191.25" y="-118.5" font-family="Helvetica,sans-Serif" font-size="10.00">DHARTAPI.SpatialStructures.</text>
<text xml:space="preserve" text-anchor="middle" x="278.62" y="-106.5" font-family="Helvetica,sans-Serif" font-size="10.00">NativeMethods.C_AggregateEdgeCosts</text>
</a>
</g>
</g>
<!-- Node1&#45;&gt;Node2 -->
<g id="edge1" class="edge">
<title>Node1&#45;&gt;Node2</title>
<path fill="none" stroke="#63b8ff" d="M141.38,-82.44C160.02,-87.03 180.44,-92.06 199.67,-96.8"/>
<polygon fill="#63b8ff" stroke="#63b8ff" points="198.82,-100.19 209.36,-99.19 200.49,-93.4 198.82,-100.19"/>
</g>
<!-- Node4 -->
<g id="node4" class="node">
<title>Node4</title>
<g id="a_node4"><a xlink:href="class_d_h_a_r_t_a_p_i_1_1_spatial_structures_1_1_graph.html#a49e6fcb61ca17ee4ba5cb6a2045f9334" target="_top" xlink:title="Compress the graph into a CSR representation, and get pointers to it.">
<polygon fill="white" stroke="#666666" points="352.25,-82 205,-82 205,-50 352.25,-50 352.25,-82"/>
<text xml:space="preserve" text-anchor="start" x="213" y="-68.5" font-family="Helvetica,sans-Serif" font-size="10.00">DHARTAPI.SpatialStructures.</text>
<text xml:space="preserve" text-anchor="middle" x="278.62" y="-56.5" font-family="Helvetica,sans-Serif" font-size="10.00">Graph.CompressToCSR</text>
</a>
</g>
</g>
<!-- Node1&#45;&gt;Node4 -->
<g id="edge3" class="edge">
<title>Node1&#45;&gt;Node4</title>
<path fill="none" stroke="#63b8ff" d="M147.63,-66C162.39,-66 178.03,-66 193.15,-66"/>
<polygon fill="#63b8ff" stroke="#63b8ff" points="193.08,-69.5 203.08,-66 193.08,-62.5 193.08,-69.5"/>
</g>
<!-- Node7 -->
<g id="node7" class="node">
<title>Node7</title>
<g id="a_node7"><a xlink:href="class_d_h_a_r_t_a_p_i_1_1_spatial_structures_1_1_graph.html#a7113a8d636abc5510a3f794cbc2bf2f4" target="_top" xlink:title="Get the number of nodes in this graph.">
<polygon fill="white" stroke="#666666" points="352.25,-32 205,-32 205,0 352.25,0 352.25,-32"/>
<text xml:space="preserve" text-anchor="start" x="213" y="-18.5" font-family="Helvetica,sans-Serif" font-size="10.00">DHARTAPI.SpatialStructures.</text>
<text xml:space="preserve" text-anchor="middle" x="278.62" y="-6.5" font-family="Helvetica,sans-Serif" font-size="10.00">Graph.NumNodes</text>
</a>
</g>
</g>
<!-- Node1&#45;&gt;Node7 -->
<g id="edge6" class="edge">
<title>Node1&#45;&gt;Node7</title>
<path fill="none" stroke="#63b8ff" d="M141.38,-49.56C160.02,-44.97 180.44,-39.94 199.67,-35.2"/>
<polygon fill="#63b8ff" stroke="#63b8ff" points="200.49,-38.6 209.36,-32.81 198.82,-31.81 200.49,-38.6"/>
</g>
<!-- Node3 -->
<g id="node3" class="node">
<title>Node3</title>
<g id="a_node3"><a xlink:href="class_d_h_a_r_t_a_p_i_1_1_spatial_structures_1_1_native_methods.html#af471e8791c2855d022f35bb1315e48e7" target="_top" xlink:title=" ">
<polygon fill="white" stroke="#666666" points="573.38,-132 417.88,-132 417.88,-100 573.38,-100 573.38,-132"/>
<text xml:space="preserve" text-anchor="start" x="425.88" y="-118.5" font-family="Helvetica,sans-Serif" font-size="10.00">DHARTAPI.SpatialStructures.</text>
<text xml:space="preserve" text-anchor="middle" x="495.62" y="-106.5" font-family="Helvetica,sans-Serif" font-size="10.00">NativeMethods.AggregateCosts</text>
</a>
</g>
</g>
<!-- Node2&#45;&gt;Node3 -->
<g id="edge2" class="edge">
<title>Node2&#45;&gt;Node3</title>
<path fill="none" stroke="#63b8ff" d="M374.24,-116C384.83,-116 395.59,-116 406.1,-116"/>
<polygon fill="#63b8ff" stroke="#63b8ff" points="405.87,-119.5 415.87,-116 405.87,-112.5 405.87,-119.5"/>
</g>
<!-- Node5 -->
<g id="node5" class="node">
<title>Node5</title>
<g id="a_node5"><a xlink:href="class_d_h_a_r_t_a_p_i_1_1_spatial_structures_1_1_native_methods.html#a684d0fc1c1df272e72bc62fb32eaa516" target="_top" xlink:title="Compress a graph and get the data required to reconstruct its CSR.">
<polygon fill="white" stroke="#666666" points="581.25,-82 410,-82 410,-50 581.25,-50 581.25,-82"/>
<text xml:space="preserve" text-anchor="start" x="418" y="-68.5" font-family="Helvetica,sans-Serif" font-size="10.00">DHARTAPI.SpatialStructures.</text>
<text xml:space="preserve" text-anchor="middle" x="495.62" y="-56.5" font-family="Helvetica,sans-Serif" font-size="10.00">NativeMethods.C_GetCSRPointers</text>
</a>
</g>
</g>
<!-- Node4&#45;&gt;Node5 -->
<g id="edge4" class="edge">
<title>Node4&#45;&gt;Node5</title>
<path fill="none" stroke="#63b8ff" d="M352.71,-66C367.41,-66 383.06,-66 398.4,-66"/>
<polygon fill="#63b8ff" stroke="#63b8ff" points="397.99,-69.5 407.99,-66 397.99,-62.5 397.99,-69.5"/>
</g>
<!-- Node6 -->
<g id="node6" class="node">
<title>Node6</title>
<g id="a_node6"><a xlink:href="class_d_h_a_r_t_a_p_i_1_1_spatial_structures_1_1_native_methods.html#a2cbee1ae2a0e6eda0139d8b86cd90ee4" target="_top" xlink:title=" ">
<polygon fill="white" stroke="#666666" points="775.75,-82 617.25,-82 617.25,-50 775.75,-50 775.75,-82"/>
<text xml:space="preserve" text-anchor="start" x="625.25" y="-68.5" font-family="Helvetica,sans-Serif" font-size="10.00">DHARTAPI.SpatialStructures.</text>
<text xml:space="preserve" text-anchor="middle" x="696.5" y="-56.5" font-family="Helvetica,sans-Serif" font-size="10.00">NativeMethods.GetCSRPointers</text>
</a>
</g>
</g>
<!-- Node5&#45;&gt;Node6 -->
<g id="edge5" class="edge">
<title>Node5&#45;&gt;Node6</title>
<path fill="none" stroke="#63b8ff" d="M581.54,-66C589.51,-66 597.6,-66 605.61,-66"/>
<polygon fill="#63b8ff" stroke="#63b8ff" points="605.34,-69.5 615.34,-66 605.34,-62.5 605.34,-69.5"/>
</g>
</g>
</svg>
