<?xml version="1.0" encoding="UTF-8" standalone="no"?>
<!DOCTYPE svg PUBLIC "-//W3C//DTD SVG 1.1//EN"
 "http://www.w3.org/Graphics/SVG/1.1/DTD/svg11.dtd">
<!-- Generated by graphviz version 13.1.2 (20250808.2320)
 -->
<!-- Title: DHARTAPI.Geometry.MeshInfo.UpdateIDNameAndArrays Pages: 1 -->
<svg width="523pt" height="176pt"
 viewBox="0.00 0.00 523.00 176.00" xmlns="http://www.w3.org/2000/svg" xmlns:xlink="http://www.w3.org/1999/xlink">
<g id="graph0" class="graph" transform="scale(1 1) rotate(0) translate(4 172)">
<title>DHARTAPI.Geometry.MeshInfo.UpdateIDNameAndArrays</title>
<!-- Node1 -->
<g id="node1" class="node">
<title>Node1</title>
<g id="a_node1"><a xlink:title="Updates this mesh&#39;s name, ID, and arrays with it&#39;s values from C++.">
<polygon fill="#999999" stroke="#666666" points="157.75,-100 0,-100 0,-68 157.75,-68 157.75,-100"/>
<text xml:space="preserve" text-anchor="start" x="8" y="-86.5" font-family="Helvetica,sans-Serif" font-size="10.00">DHARTAPI.Geometry.MeshInfo.</text>
<text xml:space="preserve" text-anchor="middle" x="78.88" y="-74.5" font-family="Helvetica,sans-Serif" font-size="10.00">UpdateIDNameAndArrays</text>
</a>
</g>
</g>
<!-- Node2 -->
<g id="node2" class="node">
<title>Node2</title>
<g id="a_node2"><a xlink:href="class_d_h_a_r_t_a_p_i_1_1_geometry_1_1_native_methods.html#a8267d494ee36917f65146966a585793a" target="_top" xlink:title="Get pointers to the vertex and index arrays of a mesh in C++.">
<polygon fill="white" stroke="#666666" points="336.5,-168 193.75,-168 193.75,-136 336.5,-136 336.5,-168"/>
<text xml:space="preserve" text-anchor="start" x="201.75" y="-154.5" font-family="Helvetica,sans-Serif" font-size="10.00">DHARTAPI.Geometry.Native</text>
<text xml:space="preserve" text-anchor="middle" x="265.12" y="-142.5" font-family="Helvetica,sans-Serif" font-size="10.00">Methods.C_GetTrisAndVerts</text>
</a>
</g>
</g>
<!-- Node1&#45;&gt;Node2 -->
<g id="edge1" class="edge">
<title>Node1&#45;&gt;Node2</title>
<path fill="none" stroke="#63b8ff" d="M122.79,-100.43C144.09,-108.53 170.24,-118.39 193.75,-127 198.06,-128.58 202.53,-130.2 207.03,-131.82"/>
<polygon fill="#63b8ff" stroke="#63b8ff" points="205.5,-134.99 216.09,-135.08 207.86,-128.4 205.5,-134.99"/>
</g>
<!-- Node4 -->
<g id="node4" class="node">
<title>Node4</title>
<g id="a_node4"><a xlink:href="class_d_h_a_r_t_a_p_i_1_1_geometry_1_1_native_methods.html#afa9349278d57b0497f92edb3dff2c152" target="_top" xlink:title="Get the ID of an instance of MeshInfo in c++.">
<polygon fill="white" stroke="#666666" points="336.5,-100 193.75,-100 193.75,-68 336.5,-68 336.5,-100"/>
<text xml:space="preserve" text-anchor="start" x="201.75" y="-86.5" font-family="Helvetica,sans-Serif" font-size="10.00">DHARTAPI.Geometry.Native</text>
<text xml:space="preserve" text-anchor="middle" x="265.12" y="-74.5" font-family="Helvetica,sans-Serif" font-size="10.00">Methods.GetMeshID</text>
</a>
</g>
</g>
<!-- Node1&#45;&gt;Node4 -->
<g id="edge3" class="edge">
<title>Node1&#45;&gt;Node4</title>
<path fill="none" stroke="#63b8ff" d="M158.01,-84C166.01,-84 174.16,-84 182.2,-84"/>
<polygon fill="#63b8ff" stroke="#63b8ff" points="181.95,-87.5 191.95,-84 181.95,-80.5 181.95,-87.5"/>
</g>
<!-- Node5 -->
<g id="node5" class="node">
<title>Node5</title>
<g id="a_node5"><a xlink:href="class_d_h_a_r_t_a_p_i_1_1_geometry_1_1_native_methods.html#a1fe911a338ef131e97f4be6feb506615" target="_top" xlink:title="Get the name of an instance of MeshInfo in c++.">
<polygon fill="white" stroke="#666666" points="336.5,-32 193.75,-32 193.75,0 336.5,0 336.5,-32"/>
<text xml:space="preserve" text-anchor="start" x="201.75" y="-18.5" font-family="Helvetica,sans-Serif" font-size="10.00">DHARTAPI.Geometry.Native</text>
<text xml:space="preserve" text-anchor="middle" x="265.12" y="-6.5" font-family="Helvetica,sans-Serif" font-size="10.00">Methods.GetMeshName</text>
</a>
</g>
</g>
<!-- Node1&#45;&gt;Node5 -->
<g id="edge5" class="edge">
<title>Node1&#45;&gt;Node5</title>
<path fill="none" stroke="#63b8ff" d="M124.48,-67.54C149.96,-58.14 182.12,-46.27 209.15,-36.29"/>
<polygon fill="#63b8ff" stroke="#63b8ff" points="210.03,-39.7 218.2,-32.95 207.6,-33.13 210.03,-39.7"/>
</g>
<!-- Node3 -->
<g id="node3" class="node">
<title>Node3</title>
<g id="a_node3"><a xlink:href="class_d_h_a_r_t_a_p_i_1_1_geometry_1_1_native_methods.html#abbb9461128f297e7b82417a549a056e9" target="_top" xlink:title=" ">
<polygon fill="white" stroke="#666666" points="515.25,-168 372.5,-168 372.5,-136 515.25,-136 515.25,-168"/>
<text xml:space="preserve" text-anchor="start" x="380.5" y="-154.5" font-family="Helvetica,sans-Serif" font-size="10.00">DHARTAPI.Geometry.Native</text>
<text xml:space="preserve" text-anchor="middle" x="443.88" y="-142.5" font-family="Helvetica,sans-Serif" font-size="10.00">Methods.GetVertsAndTris</text>
</a>
</g>
</g>
<!-- Node2&#45;&gt;Node3 -->
<g id="edge2" class="edge">
<title>Node2&#45;&gt;Node3</title>
<path fill="none" stroke="#63b8ff" d="M337,-152C344.9,-152 352.99,-152 361.01,-152"/>
<polygon fill="#63b8ff" stroke="#63b8ff" points="360.76,-155.5 370.76,-152 360.76,-148.5 360.76,-155.5"/>
</g>
<!-- Node4&#45;&gt;Node4 -->
<g id="edge4" class="edge">
<title>Node4&#45;&gt;Node4</title>
<path fill="none" stroke="#63b8ff" d="M233.21,-100.44C227.26,-109.58 237.89,-118 265.12,-118 280.02,-118 289.95,-115.48 294.91,-111.71"/>
<polygon fill="#63b8ff" stroke="#63b8ff" points="298.34,-112.41 296.76,-101.93 291.46,-111.11 298.34,-112.41"/>
</g>
<!-- Node5&#45;&gt;Node5 -->
<g id="edge7" class="edge">
<title>Node5&#45;&gt;Node5</title>
<path fill="none" stroke="#63b8ff" d="M233.21,-32.44C227.26,-41.58 237.89,-50 265.12,-50 280.02,-50 289.95,-47.48 294.91,-43.71"/>
<polygon fill="#63b8ff" stroke="#63b8ff" points="298.34,-44.41 296.76,-33.93 291.46,-43.11 298.34,-44.41"/>
</g>
<!-- Node6 -->
<g id="node6" class="node">
<title>Node6</title>
<g id="a_node6"><a xlink:href="class_d_h_a_r_t_a_p_i_1_1_geometry_1_1_native_methods.html#a2d22148d6821031e97d7305df6e9fde0" target="_top" xlink:title=" ">
<polygon fill="white" stroke="#666666" points="515.25,-32 372.5,-32 372.5,0 515.25,0 515.25,-32"/>
<text xml:space="preserve" text-anchor="start" x="380.5" y="-18.5" font-family="Helvetica,sans-Serif" font-size="10.00">DHARTAPI.Geometry.Native</text>
<text xml:space="preserve" text-anchor="middle" x="443.88" y="-6.5" font-family="Helvetica,sans-Serif" font-size="10.00">Methods.DestroyCharArray</text>
</a>
</g>
</g>
<!-- Node5&#45;&gt;Node6 -->
<g id="edge6" class="edge">
<title>Node5&#45;&gt;Node6</title>
<path fill="none" stroke="#63b8ff" d="M337,-16C344.9,-16 352.99,-16 361.01,-16"/>
<polygon fill="#63b8ff" stroke="#63b8ff" points="360.76,-19.5 370.76,-16 360.76,-12.5 360.76,-19.5"/>
</g>
</g>
</svg>
