<?xml version="1.0" encoding="UTF-8" standalone="no"?>
<!DOCTYPE svg PUBLIC "-//W3C//DTD SVG 1.1//EN"
 "http://www.w3.org/Graphics/SVG/1.1/DTD/svg11.dtd">
<!-- Generated by graphviz version 13.1.2 (20250808.2320)
 -->
<!-- Title: DHARTAPI.SpatialStructures.Graph.AddNodeAttribute&lt; T &gt; Pages: 1 -->
<svg width="339pt" height="108pt"
 viewBox="0.00 0.00 339.00 108.00" xmlns="http://www.w3.org/2000/svg" xmlns:xlink="http://www.w3.org/1999/xlink">
<g id="graph0" class="graph" transform="scale(1 1) rotate(0) translate(4 104)">
<title>DHARTAPI.SpatialStructures.Graph.AddNodeAttribute&lt; T &gt;</title>
<!-- Node1 -->
<g id="node1" class="node">
<title>Node1</title>
<g id="a_node1"><a xlink:title="Add attribute to all node in ids, with their respective score in scores.">
<polygon fill="#999999" stroke="#666666" points="147.25,-57 0,-57 0,-25 147.25,-25 147.25,-57"/>
<text xml:space="preserve" text-anchor="start" x="8" y="-43.5" font-family="Helvetica,sans-Serif" font-size="10.00">DHARTAPI.SpatialStructures.</text>
<text xml:space="preserve" text-anchor="middle" x="73.62" y="-31.5" font-family="Helvetica,sans-Serif" font-size="10.00">Graph.AddNodeAttribute&lt; T &gt;</text>
</a>
</g>
</g>
<!-- Node2 -->
<g id="node2" class="node">
<title>Node2</title>
<g id="a_node2"><a xlink:href="class_d_h_a_r_t_a_p_i_1_1_spatial_structures_1_1_graph.html#a818bd069403a09f53dc1d21270bc19ff" target="_top" xlink:title="Define a node attribute for the node at id.">
<polygon fill="white" stroke="#666666" points="330.5,-82 183.25,-82 183.25,-50 330.5,-50 330.5,-82"/>
<text xml:space="preserve" text-anchor="start" x="191.25" y="-68.5" font-family="Helvetica,sans-Serif" font-size="10.00">DHARTAPI.SpatialStructures.</text>
<text xml:space="preserve" text-anchor="middle" x="256.88" y="-56.5" font-family="Helvetica,sans-Serif" font-size="10.00">Graph.AddNodeAttribute</text>
</a>
</g>
</g>
<!-- Node1&#45;&gt;Node2 -->
<g id="edge1" class="edge">
<title>Node1&#45;&gt;Node2</title>
<path fill="none" stroke="#63b8ff" d="M147.56,-51.06C155.45,-52.15 163.53,-53.26 171.54,-54.37"/>
<polygon fill="#63b8ff" stroke="#63b8ff" points="170.91,-57.81 181.29,-55.71 171.86,-50.88 170.91,-57.81"/>
</g>
<!-- Node3 -->
<g id="node3" class="node">
<title>Node3</title>
<g id="a_node3"><a xlink:href="class_d_h_a_r_t_a_p_i_1_1_spatial_structures_1_1_graph.html#a7113a8d636abc5510a3f794cbc2bf2f4" target="_top" xlink:title="Get the number of nodes in this graph.">
<polygon fill="white" stroke="#666666" points="330.5,-32 183.25,-32 183.25,0 330.5,0 330.5,-32"/>
<text xml:space="preserve" text-anchor="start" x="191.25" y="-18.5" font-family="Helvetica,sans-Serif" font-size="10.00">DHARTAPI.SpatialStructures.</text>
<text xml:space="preserve" text-anchor="middle" x="256.88" y="-6.5" font-family="Helvetica,sans-Serif" font-size="10.00">Graph.NumNodes</text>
</a>
</g>
</g>
<!-- Node1&#45;&gt;Node3 -->
<g id="edge3" class="edge">
<title>Node1&#45;&gt;Node3</title>
<path fill="none" stroke="#63b8ff" d="M147.56,-30.94C155.45,-29.85 163.53,-28.74 171.54,-27.63"/>
<polygon fill="#63b8ff" stroke="#63b8ff" points="171.86,-31.12 181.29,-26.29 170.91,-24.19 171.86,-31.12"/>
</g>
<!-- Node2&#45;&gt;Node2 -->
<g id="edge2" class="edge">
<title>Node2&#45;&gt;Node2</title>
<path fill="none" stroke="#63b8ff" d="M224.16,-82.44C218.05,-91.58 228.96,-100 256.88,-100 272.14,-100 282.32,-97.48 287.41,-93.71"/>
<polygon fill="#63b8ff" stroke="#63b8ff" points="290.84,-94.41 289.3,-83.93 283.97,-93.08 290.84,-94.41"/>
</g>
</g>
</svg>
