<?xml version="1.0" encoding="UTF-8" standalone="no"?>
<!DOCTYPE svg PUBLIC "-//W3C//DTD SVG 1.1//EN"
 "http://www.w3.org/Graphics/SVG/1.1/DTD/svg11.dtd">
<!-- Generated by graphviz version 13.1.2 (20250808.2320)
 -->
<!-- Title: DHARTAPI.GraphGenerator.GraphGenerator.GenerateGraph Pages: 1 -->
<svg width="593pt" height="128pt"
 viewBox="0.00 0.00 593.00 128.00" xmlns="http://www.w3.org/2000/svg" xmlns:xlink="http://www.w3.org/1999/xlink">
<g id="graph0" class="graph" transform="scale(1 1) rotate(0) translate(4 124)">
<title>DHARTAPI.GraphGenerator.GraphGenerator.GenerateGraph</title>
<!-- Node1 -->
<g id="node1" class="node">
<title>Node1</title>
<g id="a_node1"><a xlink:title="Generate a graph of accessible space with the given settings. If no graph can be generated,...">
<polygon fill="#999999" stroke="#666666" points="154,-70 0,-70 0,-38 154,-38 154,-70"/>
<text xml:space="preserve" text-anchor="start" x="8" y="-56.5" font-family="Helvetica,sans-Serif" font-size="10.00">DHARTAPI.GraphGenerator.</text>
<text xml:space="preserve" text-anchor="middle" x="77" y="-44.5" font-family="Helvetica,sans-Serif" font-size="10.00">GraphGenerator.GenerateGraph</text>
</a>
</g>
</g>
<!-- Node2 -->
<g id="node2" class="node">
<title>Node2</title>
<g id="a_node2"><a xlink:href="class_d_h_a_r_t_a_p_i_1_1_graph_generator_1_1_native_methods.html#a010f5a4f0dc009da56978d0faf3e7017" target="_top" xlink:title="Generate a graph using the C++ graph generator.">
<polygon fill="white" stroke="#666666" points="353.75,-70 190,-70 190,-38 353.75,-38 353.75,-70"/>
<text xml:space="preserve" text-anchor="start" x="198" y="-56.5" font-family="Helvetica,sans-Serif" font-size="10.00">DHARTAPI.GraphGenerator.</text>
<text xml:space="preserve" text-anchor="middle" x="271.88" y="-44.5" font-family="Helvetica,sans-Serif" font-size="10.00">NativeMethods.C_GenerateGraph</text>
</a>
</g>
</g>
<!-- Node1&#45;&gt;Node2 -->
<g id="edge1" class="edge">
<title>Node1&#45;&gt;Node2</title>
<path fill="none" stroke="#63b8ff" d="M154.23,-54C162.17,-54 170.31,-54 178.41,-54"/>
<polygon fill="#63b8ff" stroke="#63b8ff" points="178.29,-57.5 188.29,-54 178.29,-50.5 178.29,-57.5"/>
</g>
<!-- Node3 -->
<g id="node3" class="node">
<title>Node3</title>
<g id="a_node3"><a xlink:href="class_d_h_a_r_t_a_p_i_1_1_graph_generator_1_1_native_methods.html#adefe319009d6dcdaa37c3975112565ff" target="_top" xlink:title=" ">
<polygon fill="white" stroke="#666666" points="562.88,-120 411.88,-120 411.88,-88 562.88,-88 562.88,-120"/>
<text xml:space="preserve" text-anchor="start" x="419.88" y="-106.5" font-family="Helvetica,sans-Serif" font-size="10.00">DHARTAPI.GraphGenerator.</text>
<text xml:space="preserve" text-anchor="middle" x="487.38" y="-94.5" font-family="Helvetica,sans-Serif" font-size="10.00">NativeMethods.GenerateGraph</text>
</a>
</g>
</g>
<!-- Node2&#45;&gt;Node3 -->
<g id="edge2" class="edge">
<title>Node2&#45;&gt;Node3</title>
<path fill="none" stroke="#63b8ff" d="M343.08,-70.44C362.87,-75.08 384.57,-80.16 404.96,-84.93"/>
<polygon fill="#63b8ff" stroke="#63b8ff" points="404.12,-88.33 414.66,-87.2 405.72,-81.52 404.12,-88.33"/>
</g>
<!-- Node4 -->
<g id="node4" class="node">
<title>Node4</title>
<g id="a_node4"><a xlink:href="class_d_h_a_r_t_a_p_i_1_1_graph_generator_1_1_native_methods.html#a02034631937ef151597dfc480afa4ea0" target="_top" xlink:title=" ">
<polygon fill="white" stroke="#666666" points="585,-70 389.75,-70 389.75,-38 585,-38 585,-70"/>
<text xml:space="preserve" text-anchor="start" x="397.75" y="-56.5" font-family="Helvetica,sans-Serif" font-size="10.00">DHARTAPI.GraphGenerator.</text>
<text xml:space="preserve" text-anchor="middle" x="487.38" y="-44.5" font-family="Helvetica,sans-Serif" font-size="10.00">NativeMethods.GenerateGraphObstacles</text>
</a>
</g>
</g>
<!-- Node2&#45;&gt;Node4 -->
<g id="edge3" class="edge">
<title>Node2&#45;&gt;Node4</title>
<path fill="none" stroke="#63b8ff" d="M354.2,-54C362.05,-54 370.09,-54 378.15,-54"/>
<polygon fill="#63b8ff" stroke="#63b8ff" points="378.01,-57.5 388.01,-54 378.01,-50.5 378.01,-57.5"/>
</g>
<!-- Node5 -->
<g id="node5" class="node">
<title>Node5</title>
<g id="a_node5"><a xlink:href="struct_d_h_a_r_t_a_p_i_1_1_vector3_d.html#a9e68c43e195142d59789c892e43df8ab" target="_top" xlink:title="Convert this vector3D to an array of floats.">
<polygon fill="white" stroke="#666666" points="560.62,-20 414.12,-20 414.12,0 560.62,0 560.62,-20"/>
<text xml:space="preserve" text-anchor="middle" x="487.38" y="-6.5" font-family="Helvetica,sans-Serif" font-size="10.00">DHARTAPI.Vector3D.ToArray</text>
</a>
</g>
</g>
<!-- Node2&#45;&gt;Node5 -->
<g id="edge4" class="edge">
<title>Node2&#45;&gt;Node5</title>
<path fill="none" stroke="#63b8ff" d="M348.91,-37.55C362.5,-34.66 376.54,-31.71 389.75,-29 399.83,-26.93 410.52,-24.78 420.97,-22.71"/>
<polygon fill="#63b8ff" stroke="#63b8ff" points="421.56,-26.16 430.69,-20.79 420.2,-19.29 421.56,-26.16"/>
</g>
</g>
</svg>
