<?xml version="1.0" encoding="UTF-8" standalone="no"?>
<!DOCTYPE svg PUBLIC "-//W3C//DTD SVG 1.1//EN"
 "http://www.w3.org/Graphics/SVG/1.1/DTD/svg11.dtd">
<!-- Generated by graphviz version 13.1.2 (20250808.2320)
 -->
<!-- Title: DHARTAPI.NativeUtils.HelperFunctions.FlattenVectorArray Pages: 1 -->
<svg width="638pt" height="350pt"
 viewBox="0.00 0.00 638.00 350.00" xmlns="http://www.w3.org/2000/svg" xmlns:xlink="http://www.w3.org/1999/xlink">
<g id="graph0" class="graph" transform="scale(1 1) rotate(0) translate(4 346)">
<title>DHARTAPI.NativeUtils.HelperFunctions.FlattenVectorArray</title>
<!-- Node1 -->
<g id="node1" class="node">
<title>Node1</title>
<g id="a_node1"><a xlink:title="Convert a vector array into an array of floats. Slower than passing a Vector3D array.">
<polygon fill="#999999" stroke="#666666" points="630,-190 480.5,-190 480.5,-158 630,-158 630,-190"/>
<text xml:space="preserve" text-anchor="start" x="488.5" y="-176.5" font-family="Helvetica,sans-Serif" font-size="10.00">DHARTAPI.NativeUtils.Helper</text>
<text xml:space="preserve" text-anchor="middle" x="555.25" y="-164.5" font-family="Helvetica,sans-Serif" font-size="10.00">Functions.FlattenVectorArray</text>
</a>
</g>
</g>
<!-- Node2 -->
<g id="node2" class="node">
<title>Node2</title>
<g id="a_node2"><a xlink:href="class_d_h_a_r_t_a_p_i_1_1_visibility_graph_1_1_native_methods.html#a559751c33a91ae696e2969a29ce2126d" target="_top" xlink:title="Generate a visibility graph in C++.">
<polygon fill="white" stroke="#666666" points="429.5,-342 235.75,-342 235.75,-310 429.5,-310 429.5,-342"/>
<text xml:space="preserve" text-anchor="start" x="243.75" y="-328.5" font-family="Helvetica,sans-Serif" font-size="10.00">DHARTAPI.VisibilityGraph.</text>
<text xml:space="preserve" text-anchor="middle" x="332.62" y="-316.5" font-family="Helvetica,sans-Serif" font-size="10.00">NativeMethods.C_AllToAllVisibilityGraph</text>
</a>
</g>
</g>
<!-- Node1&#45;&gt;Node2 -->
<g id="edge1" class="edge">
<title>Node1&#45;&gt;Node2</title>
<path fill="none" stroke="#63b8ff" d="M539.2,-199.69C520.7,-228.91 486.53,-275.81 444.5,-301 439.08,-304.25 433.29,-307.07 427.3,-309.53"/>
<polygon fill="#63b8ff" stroke="#63b8ff" points="542.02,-201.8 544.29,-191.45 536.06,-198.12 542.02,-201.8"/>
</g>
<!-- Node4 -->
<g id="node4" class="node">
<title>Node4</title>
<g id="a_node4"><a xlink:href="class_d_h_a_r_t_a_p_i_1_1_ray_tracing_1_1_native_methods.html#a59fe92246f1f62a542f807783b6cbe6f" target="_top" xlink:title="Cast occlusion rays in C++ using embree.">
<polygon fill="white" stroke="#666666" points="411.12,-274 254.12,-274 254.12,-242 411.12,-242 411.12,-274"/>
<text xml:space="preserve" text-anchor="start" x="262.12" y="-260.5" font-family="Helvetica,sans-Serif" font-size="10.00">DHARTAPI.RayTracing.Native</text>
<text xml:space="preserve" text-anchor="middle" x="332.62" y="-248.5" font-family="Helvetica,sans-Serif" font-size="10.00">Methods.C_CastOcclusionRays</text>
</a>
</g>
</g>
<!-- Node1&#45;&gt;Node4 -->
<g id="edge3" class="edge">
<title>Node1&#45;&gt;Node4</title>
<path fill="none" stroke="#63b8ff" d="M518.85,-196.22C497.9,-208.55 470.45,-223.31 444.5,-233 433.96,-236.94 422.62,-240.36 411.36,-243.3"/>
<polygon fill="#63b8ff" stroke="#63b8ff" points="520.5,-199.31 527.28,-191.17 516.91,-193.3 520.5,-199.31"/>
</g>
<!-- Node5 -->
<g id="node5" class="node">
<title>Node5</title>
<g id="a_node5"><a xlink:href="class_d_h_a_r_t_a_p_i_1_1_visibility_graph_1_1_native_methods.html#a11e756fec10d67be7d1604e94d932926" target="_top" xlink:title="Generate a directed visibility graph from nodes in group_a to the nodes in group_b.">
<polygon fill="white" stroke="#666666" points="444.5,-224 220.75,-224 220.75,-192 444.5,-192 444.5,-224"/>
<text xml:space="preserve" text-anchor="start" x="228.75" y="-210.5" font-family="Helvetica,sans-Serif" font-size="10.00">DHARTAPI.VisibilityGraph.</text>
<text xml:space="preserve" text-anchor="middle" x="332.62" y="-198.5" font-family="Helvetica,sans-Serif" font-size="10.00">NativeMethods.C_GroupToGroupVisibilityGraph</text>
</a>
</g>
</g>
<!-- Node1&#45;&gt;Node5 -->
<g id="edge5" class="edge">
<title>Node1&#45;&gt;Node5</title>
<path fill="none" stroke="#63b8ff" d="M468.94,-187.15C459.61,-188.59 450.02,-190.06 440.48,-191.53"/>
<polygon fill="#63b8ff" stroke="#63b8ff" points="469.33,-190.63 478.68,-185.65 468.26,-183.71 469.33,-190.63"/>
</g>
<!-- Node7 -->
<g id="node7" class="node">
<title>Node7</title>
<g id="a_node7"><a xlink:href="class_d_h_a_r_t_a_p_i_1_1_ray_tracing_1_1_native_methods.html#aef86d7347e7f12f2076191b3b8df8e79" target="_top" xlink:title="Cast multiple rays in C++ then recieve the distance and meshid of geometry intersected by each in ret...">
<polygon fill="white" stroke="#666666" points="408.12,-156 257.12,-156 257.12,-124 408.12,-124 408.12,-156"/>
<text xml:space="preserve" text-anchor="start" x="265.12" y="-142.5" font-family="Helvetica,sans-Serif" font-size="10.00">DHARTAPI.RayTracing.Native</text>
<text xml:space="preserve" text-anchor="middle" x="332.62" y="-130.5" font-family="Helvetica,sans-Serif" font-size="10.00">Methods.C_IntersectRays</text>
</a>
</g>
</g>
<!-- Node1&#45;&gt;Node7 -->
<g id="edge7" class="edge">
<title>Node1&#45;&gt;Node7</title>
<path fill="none" stroke="#63b8ff" d="M468.88,-160.84C448.89,-157.76 427.74,-154.5 408.26,-151.5"/>
<polygon fill="#63b8ff" stroke="#63b8ff" points="468.26,-164.29 478.68,-162.35 469.33,-157.37 468.26,-164.29"/>
</g>
<!-- Node8 -->
<g id="node8" class="node">
<title>Node8</title>
<g id="a_node8"><a xlink:href="class_d_h_a_r_t_a_p_i_1_1_view_analysis_1_1_native_methods.html#ab7f6b79f6dd8af643156fd062aa69116" target="_top" xlink:title="Conduct view analysis and aggregate the results for each node.">
<polygon fill="white" stroke="#666666" points="417.12,-106 248.12,-106 248.12,-62 417.12,-62 417.12,-106"/>
<text xml:space="preserve" text-anchor="start" x="256.12" y="-92.5" font-family="Helvetica,sans-Serif" font-size="10.00">DHARTAPI.ViewAnalysis.Native</text>
<text xml:space="preserve" text-anchor="start" x="256.12" y="-80.5" font-family="Helvetica,sans-Serif" font-size="10.00">Methods.C_SphericalViewAnalysis</text>
<text xml:space="preserve" text-anchor="middle" x="332.62" y="-68.5" font-family="Helvetica,sans-Serif" font-size="10.00">Aggregate</text>
</a>
</g>
</g>
<!-- Node1&#45;&gt;Node8 -->
<g id="edge9" class="edge">
<title>Node1&#45;&gt;Node8</title>
<path fill="none" stroke="#63b8ff" d="M518.24,-152.03C497.27,-139.91 470.02,-125.28 444.5,-115 435.88,-111.53 426.73,-108.29 417.53,-105.33"/>
<polygon fill="#63b8ff" stroke="#63b8ff" points="516.29,-154.94 526.68,-156.98 519.83,-148.9 516.29,-154.94"/>
</g>
<!-- Node9 -->
<g id="node9" class="node">
<title>Node9</title>
<g id="a_node9"><a xlink:href="class_d_h_a_r_t_a_p_i_1_1_view_analysis_1_1_native_methods.html#a382d280d1ca91c9a74198efc36675716" target="_top" xlink:title="Conduct View Analysis and access the results of every ray casted for every node. 1.">
<polygon fill="white" stroke="#666666" points="417.12,-44 248.12,-44 248.12,0 417.12,0 417.12,-44"/>
<text xml:space="preserve" text-anchor="start" x="256.12" y="-30.5" font-family="Helvetica,sans-Serif" font-size="10.00">DHARTAPI.ViewAnalysis.Native</text>
<text xml:space="preserve" text-anchor="start" x="256.12" y="-18.5" font-family="Helvetica,sans-Serif" font-size="10.00">Methods.C_SphericalViewAnalysis</text>
<text xml:space="preserve" text-anchor="middle" x="332.62" y="-6.5" font-family="Helvetica,sans-Serif" font-size="10.00">NoAggregate</text>
</a>
</g>
</g>
<!-- Node1&#45;&gt;Node9 -->
<g id="edge10" class="edge">
<title>Node1&#45;&gt;Node9</title>
<path fill="none" stroke="#63b8ff" d="M537.52,-148.21C518.3,-120.63 484.25,-77.56 444.5,-53 436.17,-47.85 426.96,-43.54 417.53,-39.93"/>
<polygon fill="#63b8ff" stroke="#63b8ff" points="534.54,-150.05 543.06,-156.35 540.33,-146.12 534.54,-150.05"/>
</g>
<!-- Node3 -->
<g id="node3" class="node">
<title>Node3</title>
<g id="a_node3"><a xlink:href="class_d_h_a_r_t_a_p_i_1_1_visibility_graph_1_1_visibility_graph.html#ac2f5b9a059b0ba297db8098a48b2b91a" target="_top" xlink:title="Create a visibility graph from every node to every node in nodes.">
<polygon fill="white" stroke="#666666" points="169.75,-342 15,-342 15,-310 169.75,-310 169.75,-342"/>
<text xml:space="preserve" text-anchor="start" x="23" y="-328.5" font-family="Helvetica,sans-Serif" font-size="10.00">DHARTAPI.VisibilityGraph.</text>
<text xml:space="preserve" text-anchor="middle" x="92.38" y="-316.5" font-family="Helvetica,sans-Serif" font-size="10.00">VisibilityGraph.GenerateAllToAll</text>
</a>
</g>
</g>
<!-- Node2&#45;&gt;Node3 -->
<g id="edge2" class="edge">
<title>Node2&#45;&gt;Node3</title>
<path fill="none" stroke="#63b8ff" d="M224.14,-326C205.95,-326 187.39,-326 170.18,-326"/>
<polygon fill="#63b8ff" stroke="#63b8ff" points="223.89,-329.5 233.89,-326 223.89,-322.5 223.89,-329.5"/>
</g>
<!-- Node4&#45;&gt;Node4 -->
<g id="edge4" class="edge">
<title>Node4&#45;&gt;Node4</title>
<path fill="none" stroke="#63b8ff" d="M369.99,-285.54C363.89,-289.41 351.44,-292 332.62,-292 298.71,-292 285.46,-283.58 292.88,-274.44"/>
<polygon fill="#63b8ff" stroke="#63b8ff" points="373.37,-286.43 372.05,-275.92 366.53,-284.96 373.37,-286.43"/>
</g>
<!-- Node6 -->
<g id="node6" class="node">
<title>Node6</title>
<g id="a_node6"><a xlink:href="class_d_h_a_r_t_a_p_i_1_1_visibility_graph_1_1_visibility_graph.html#aae8c65cb810fbb1db7e314c566ee28ba" target="_top" xlink:title="Generate a directed visibility graph from nodes in group_a to the nodes in group_b.">
<polygon fill="white" stroke="#666666" points="184.75,-224 0,-224 0,-192 184.75,-192 184.75,-224"/>
<text xml:space="preserve" text-anchor="start" x="8" y="-210.5" font-family="Helvetica,sans-Serif" font-size="10.00">DHARTAPI.VisibilityGraph.</text>
<text xml:space="preserve" text-anchor="middle" x="92.38" y="-198.5" font-family="Helvetica,sans-Serif" font-size="10.00">VisibilityGraph.GenerateGroupToGroup</text>
</a>
</g>
</g>
<!-- Node5&#45;&gt;Node6 -->
<g id="edge6" class="edge">
<title>Node5&#45;&gt;Node6</title>
<path fill="none" stroke="#63b8ff" d="M209.08,-208C200.99,-208 192.91,-208 185.01,-208"/>
<polygon fill="#63b8ff" stroke="#63b8ff" points="209.01,-211.5 219.01,-208 209.01,-204.5 209.01,-211.5"/>
</g>
<!-- Node7&#45;&gt;Node7 -->
<g id="edge8" class="edge">
<title>Node7&#45;&gt;Node7</title>
<path fill="none" stroke="#63b8ff" d="M369.99,-167.54C363.89,-171.41 351.44,-174 332.62,-174 298.71,-174 285.46,-165.58 292.88,-156.44"/>
<polygon fill="#63b8ff" stroke="#63b8ff" points="373.37,-168.43 372.05,-157.92 366.53,-166.96 373.37,-168.43"/>
</g>
</g>
</svg>
