<?xml version="1.0" encoding="UTF-8" standalone="no"?>
<!DOCTYPE svg PUBLIC "-//W3C//DTD SVG 1.1//EN"
 "http://www.w3.org/Graphics/SVG/1.1/DTD/svg11.dtd">
<!-- Generated by graphviz version 13.1.2 (20250808.2320)
 -->
<!-- Title: DHARTAPI.RayTracing.EmbreeBVH.AddMesh Pages: 1 -->
<svg width="716pt" height="176pt"
 viewBox="0.00 0.00 716.00 176.00" xmlns="http://www.w3.org/2000/svg" xmlns:xlink="http://www.w3.org/1999/xlink">
<g id="graph0" class="graph" transform="scale(1 1) rotate(0) translate(4 172)">
<title>DHARTAPI.RayTracing.EmbreeBVH.AddMesh</title>
<!-- Node1 -->
<g id="node1" class="node">
<title>Node1</title>
<g id="a_node1"><a xlink:title="Add a new mesh to the BVH.">
<polygon fill="#999999" stroke="#666666" points="156.25,-100 0,-100 0,-68 156.25,-68 156.25,-100"/>
<text xml:space="preserve" text-anchor="start" x="8" y="-86.5" font-family="Helvetica,sans-Serif" font-size="10.00">DHARTAPI.RayTracing.Embree</text>
<text xml:space="preserve" text-anchor="middle" x="78.12" y="-74.5" font-family="Helvetica,sans-Serif" font-size="10.00">BVH.AddMesh</text>
</a>
</g>
</g>
<!-- Node2 -->
<g id="node2" class="node">
<title>Node2</title>
<g id="a_node2"><a xlink:href="class_d_h_a_r_t_a_p_i_1_1_ray_tracing_1_1_native_methods.html#af57f54013a7a4b0d2bcf240e2aded5d2" target="_top" xlink:title=" ">
<polygon fill="white" stroke="#666666" points="346.62,-150 195.62,-150 195.62,-118 346.62,-118 346.62,-150"/>
<text xml:space="preserve" text-anchor="start" x="203.62" y="-136.5" font-family="Helvetica,sans-Serif" font-size="10.00">DHARTAPI.RayTracing.Native</text>
<text xml:space="preserve" text-anchor="middle" x="271.12" y="-124.5" font-family="Helvetica,sans-Serif" font-size="10.00">Methods.C_AddMesh</text>
</a>
</g>
</g>
<!-- Node1&#45;&gt;Node2 -->
<g id="edge1" class="edge">
<title>Node1&#45;&gt;Node2</title>
<path fill="none" stroke="#63b8ff" d="M141.93,-100.44C159.31,-104.99 178.33,-109.97 196.27,-114.67"/>
<polygon fill="#63b8ff" stroke="#63b8ff" points="195.26,-118.02 205.82,-117.17 197.03,-111.25 195.26,-118.02"/>
</g>
<!-- Node3 -->
<g id="node3" class="node">
<title>Node3</title>
<g id="a_node3"><a xlink:href="class_d_h_a_r_t_a_p_i_1_1_geometry_1_1_mesh_info.html#a0409ac3fbfba81d4d488c32defdf3655" target="_top" xlink:title="Updates this mesh&#39;s name, ID, and arrays with it&#39;s values from C++.">
<polygon fill="white" stroke="#666666" points="350,-100 192.25,-100 192.25,-68 350,-68 350,-100"/>
<text xml:space="preserve" text-anchor="start" x="200.25" y="-86.5" font-family="Helvetica,sans-Serif" font-size="10.00">DHARTAPI.Geometry.MeshInfo.</text>
<text xml:space="preserve" text-anchor="middle" x="271.12" y="-74.5" font-family="Helvetica,sans-Serif" font-size="10.00">UpdateIDNameAndArrays</text>
</a>
</g>
</g>
<!-- Node1&#45;&gt;Node3 -->
<g id="edge2" class="edge">
<title>Node1&#45;&gt;Node3</title>
<path fill="none" stroke="#63b8ff" d="M156.54,-84C164.48,-84 172.59,-84 180.65,-84"/>
<polygon fill="#63b8ff" stroke="#63b8ff" points="180.47,-87.5 190.47,-84 180.47,-80.5 180.47,-87.5"/>
</g>
<!-- Node9 -->
<g id="node9" class="node">
<title>Node9</title>
<g id="a_node9"><a xlink:href="class_d_h_a_r_t_a_p_i_1_1_native_utils_1_1_native_object.html#ab63e715d5db528edc64b3aa5233f750c" target="_top" xlink:title="Update the pressure of this object.">
<polygon fill="white" stroke="#666666" points="345.88,-50 196.38,-50 196.38,-18 345.88,-18 345.88,-50"/>
<text xml:space="preserve" text-anchor="start" x="204.38" y="-36.5" font-family="Helvetica,sans-Serif" font-size="10.00">DHARTAPI.NativeUtils.Native</text>
<text xml:space="preserve" text-anchor="middle" x="271.12" y="-24.5" font-family="Helvetica,sans-Serif" font-size="10.00">Object.UpdatePressure</text>
</a>
</g>
</g>
<!-- Node1&#45;&gt;Node9 -->
<g id="edge10" class="edge">
<title>Node1&#45;&gt;Node9</title>
<path fill="none" stroke="#63b8ff" d="M141.93,-67.56C159.31,-63.01 178.33,-58.03 196.27,-53.33"/>
<polygon fill="#63b8ff" stroke="#63b8ff" points="197.03,-56.75 205.82,-50.83 195.26,-49.98 197.03,-56.75"/>
</g>
<!-- Node4 -->
<g id="node4" class="node">
<title>Node4</title>
<g id="a_node4"><a xlink:href="class_d_h_a_r_t_a_p_i_1_1_geometry_1_1_native_methods.html#a8267d494ee36917f65146966a585793a" target="_top" xlink:title="Get pointers to the vertex and index arrays of a mesh in C++.">
<polygon fill="white" stroke="#666666" points="528.75,-168 386,-168 386,-136 528.75,-136 528.75,-168"/>
<text xml:space="preserve" text-anchor="start" x="394" y="-154.5" font-family="Helvetica,sans-Serif" font-size="10.00">DHARTAPI.Geometry.Native</text>
<text xml:space="preserve" text-anchor="middle" x="457.38" y="-142.5" font-family="Helvetica,sans-Serif" font-size="10.00">Methods.C_GetTrisAndVerts</text>
</a>
</g>
</g>
<!-- Node3&#45;&gt;Node4 -->
<g id="edge3" class="edge">
<title>Node3&#45;&gt;Node4</title>
<path fill="none" stroke="#63b8ff" d="M326.97,-100.44C334.77,-103.11 342.64,-106 350,-109 366.56,-115.75 369.54,-119.99 386,-127 389.57,-128.52 393.26,-130.02 397.01,-131.5"/>
<polygon fill="#63b8ff" stroke="#63b8ff" points="395.61,-134.71 406.2,-135.01 398.11,-128.17 395.61,-134.71"/>
</g>
<!-- Node6 -->
<g id="node6" class="node">
<title>Node6</title>
<g id="a_node6"><a xlink:href="class_d_h_a_r_t_a_p_i_1_1_geometry_1_1_native_methods.html#afa9349278d57b0497f92edb3dff2c152" target="_top" xlink:title="Get the ID of an instance of MeshInfo in c++.">
<polygon fill="white" stroke="#666666" points="528.75,-100 386,-100 386,-68 528.75,-68 528.75,-100"/>
<text xml:space="preserve" text-anchor="start" x="394" y="-86.5" font-family="Helvetica,sans-Serif" font-size="10.00">DHARTAPI.Geometry.Native</text>
<text xml:space="preserve" text-anchor="middle" x="457.38" y="-74.5" font-family="Helvetica,sans-Serif" font-size="10.00">Methods.GetMeshID</text>
</a>
</g>
</g>
<!-- Node3&#45;&gt;Node6 -->
<g id="edge5" class="edge">
<title>Node3&#45;&gt;Node6</title>
<path fill="none" stroke="#63b8ff" d="M350.26,-84C358.26,-84 366.41,-84 374.45,-84"/>
<polygon fill="#63b8ff" stroke="#63b8ff" points="374.2,-87.5 384.2,-84 374.2,-80.5 374.2,-87.5"/>
</g>
<!-- Node7 -->
<g id="node7" class="node">
<title>Node7</title>
<g id="a_node7"><a xlink:href="class_d_h_a_r_t_a_p_i_1_1_geometry_1_1_native_methods.html#a1fe911a338ef131e97f4be6feb506615" target="_top" xlink:title="Get the name of an instance of MeshInfo in c++.">
<polygon fill="white" stroke="#666666" points="528.75,-32 386,-32 386,0 528.75,0 528.75,-32"/>
<text xml:space="preserve" text-anchor="start" x="394" y="-18.5" font-family="Helvetica,sans-Serif" font-size="10.00">DHARTAPI.Geometry.Native</text>
<text xml:space="preserve" text-anchor="middle" x="457.38" y="-6.5" font-family="Helvetica,sans-Serif" font-size="10.00">Methods.GetMeshName</text>
</a>
</g>
</g>
<!-- Node3&#45;&gt;Node7 -->
<g id="edge7" class="edge">
<title>Node3&#45;&gt;Node7</title>
<path fill="none" stroke="#63b8ff" d="M325.08,-67.58C333.46,-64.81 341.99,-61.9 350,-59 368.86,-52.17 389.33,-44.06 407.24,-36.74"/>
<polygon fill="#63b8ff" stroke="#63b8ff" points="408.42,-40.04 416.34,-32.99 405.76,-33.57 408.42,-40.04"/>
</g>
<!-- Node5 -->
<g id="node5" class="node">
<title>Node5</title>
<g id="a_node5"><a xlink:href="class_d_h_a_r_t_a_p_i_1_1_geometry_1_1_native_methods.html#abbb9461128f297e7b82417a549a056e9" target="_top" xlink:title=" ">
<polygon fill="white" stroke="#666666" points="707.5,-168 564.75,-168 564.75,-136 707.5,-136 707.5,-168"/>
<text xml:space="preserve" text-anchor="start" x="572.75" y="-154.5" font-family="Helvetica,sans-Serif" font-size="10.00">DHARTAPI.Geometry.Native</text>
<text xml:space="preserve" text-anchor="middle" x="636.12" y="-142.5" font-family="Helvetica,sans-Serif" font-size="10.00">Methods.GetVertsAndTris</text>
</a>
</g>
</g>
<!-- Node4&#45;&gt;Node5 -->
<g id="edge4" class="edge">
<title>Node4&#45;&gt;Node5</title>
<path fill="none" stroke="#63b8ff" d="M529.25,-152C537.15,-152 545.24,-152 553.26,-152"/>
<polygon fill="#63b8ff" stroke="#63b8ff" points="553.01,-155.5 563.01,-152 553.01,-148.5 553.01,-155.5"/>
</g>
<!-- Node6&#45;&gt;Node6 -->
<g id="edge6" class="edge">
<title>Node6&#45;&gt;Node6</title>
<path fill="none" stroke="#63b8ff" d="M425.46,-100.44C419.51,-109.58 430.14,-118 457.38,-118 472.27,-118 482.2,-115.48 487.16,-111.71"/>
<polygon fill="#63b8ff" stroke="#63b8ff" points="490.59,-112.41 489.01,-101.93 483.71,-111.11 490.59,-112.41"/>
</g>
<!-- Node7&#45;&gt;Node7 -->
<g id="edge9" class="edge">
<title>Node7&#45;&gt;Node7</title>
<path fill="none" stroke="#63b8ff" d="M425.46,-32.44C419.51,-41.58 430.14,-50 457.38,-50 472.27,-50 482.2,-47.48 487.16,-43.71"/>
<polygon fill="#63b8ff" stroke="#63b8ff" points="490.59,-44.41 489.01,-33.93 483.71,-43.11 490.59,-44.41"/>
</g>
<!-- Node8 -->
<g id="node8" class="node">
<title>Node8</title>
<g id="a_node8"><a xlink:href="class_d_h_a_r_t_a_p_i_1_1_geometry_1_1_native_methods.html#a2d22148d6821031e97d7305df6e9fde0" target="_top" xlink:title=" ">
<polygon fill="white" stroke="#666666" points="707.5,-32 564.75,-32 564.75,0 707.5,0 707.5,-32"/>
<text xml:space="preserve" text-anchor="start" x="572.75" y="-18.5" font-family="Helvetica,sans-Serif" font-size="10.00">DHARTAPI.Geometry.Native</text>
<text xml:space="preserve" text-anchor="middle" x="636.12" y="-6.5" font-family="Helvetica,sans-Serif" font-size="10.00">Methods.DestroyCharArray</text>
</a>
</g>
</g>
<!-- Node7&#45;&gt;Node8 -->
<g id="edge8" class="edge">
<title>Node7&#45;&gt;Node8</title>
<path fill="none" stroke="#63b8ff" d="M529.25,-16C537.15,-16 545.24,-16 553.26,-16"/>
<polygon fill="#63b8ff" stroke="#63b8ff" points="553.01,-19.5 563.01,-16 553.01,-12.5 553.01,-19.5"/>
</g>
</g>
</svg>
