<?xml version="1.0" encoding="UTF-8" standalone="no"?>
<!DOCTYPE svg PUBLIC "-//W3C//DTD SVG 1.1//EN"
 "http://www.w3.org/Graphics/SVG/1.1/DTD/svg11.dtd">
<!-- Generated by graphviz version 13.1.2 (20250808.2320)
 -->
<!-- Title: DHARTAPI.Geometry.NativeMethods.C_LoadOBJ Pages: 1 -->
<svg width="354pt" height="90pt"
 viewBox="0.00 0.00 354.00 90.00" xmlns="http://www.w3.org/2000/svg" xmlns:xlink="http://www.w3.org/1999/xlink">
<g id="graph0" class="graph" transform="scale(1 1) rotate(0) translate(4 86)">
<title>DHARTAPI.Geometry.NativeMethods.C_LoadOBJ</title>
<!-- Node1 -->
<g id="node1" class="node">
<title>Node1</title>
<g id="a_node1"><a xlink:title="Load an obj file from the given filepath into a MeshInfo object in native memory.">
<polygon fill="#999999" stroke="#666666" points="142.75,-57 0,-57 0,-25 142.75,-25 142.75,-57"/>
<text xml:space="preserve" text-anchor="start" x="8" y="-43.5" font-family="Helvetica,sans-Serif" font-size="10.00">DHARTAPI.Geometry.Native</text>
<text xml:space="preserve" text-anchor="middle" x="71.38" y="-31.5" font-family="Helvetica,sans-Serif" font-size="10.00">Methods.C_LoadOBJ</text>
</a>
</g>
</g>
<!-- Node2 -->
<g id="node2" class="node">
<title>Node2</title>
<g id="a_node2"><a xlink:href="class_d_h_a_r_t_a_p_i_1_1_geometry_1_1_native_methods.html#a2c8ad58779d26cb5a14906629624f6a4" target="_top" xlink:title=" ">
<polygon fill="white" stroke="#666666" points="346.25,-82 178.75,-82 178.75,-50 346.25,-50 346.25,-82"/>
<text xml:space="preserve" text-anchor="start" x="186.75" y="-68.5" font-family="Helvetica,sans-Serif" font-size="10.00">DHARTAPI.Geometry.Native</text>
<text xml:space="preserve" text-anchor="middle" x="262.5" y="-56.5" font-family="Helvetica,sans-Serif" font-size="10.00">Methods.DestroyMeshInfoPtrArray</text>
</a>
</g>
</g>
<!-- Node1&#45;&gt;Node2 -->
<g id="edge1" class="edge">
<title>Node1&#45;&gt;Node2</title>
<path fill="none" stroke="#63b8ff" d="M143.07,-50.34C150.91,-51.38 158.99,-52.45 167.07,-53.52"/>
<polygon fill="#63b8ff" stroke="#63b8ff" points="166.59,-56.98 176.96,-54.83 167.51,-50.04 166.59,-56.98"/>
</g>
<!-- Node3 -->
<g id="node3" class="node">
<title>Node3</title>
<g id="a_node3"><a xlink:href="class_d_h_a_r_t_a_p_i_1_1_geometry_1_1_native_methods.html#a742483f0365e454c96583a105653f8c7" target="_top" xlink:title=" ">
<polygon fill="white" stroke="#666666" points="333.88,-32 191.12,-32 191.12,0 333.88,0 333.88,-32"/>
<text xml:space="preserve" text-anchor="start" x="199.12" y="-18.5" font-family="Helvetica,sans-Serif" font-size="10.00">DHARTAPI.Geometry.Native</text>
<text xml:space="preserve" text-anchor="middle" x="262.5" y="-6.5" font-family="Helvetica,sans-Serif" font-size="10.00">Methods.LoadOBJ</text>
</a>
</g>
</g>
<!-- Node1&#45;&gt;Node3 -->
<g id="edge2" class="edge">
<title>Node1&#45;&gt;Node3</title>
<path fill="none" stroke="#63b8ff" d="M143.07,-31.66C155.04,-30.07 167.55,-28.42 179.77,-26.8"/>
<polygon fill="#63b8ff" stroke="#63b8ff" points="179.94,-30.31 189.39,-25.53 179.02,-23.37 179.94,-30.31"/>
</g>
</g>
</svg>
