<?xml version="1.0" encoding="UTF-8" standalone="no"?>
<!DOCTYPE svg PUBLIC "-//W3C//DTD SVG 1.1//EN"
 "http://www.w3.org/Graphics/SVG/1.1/DTD/svg11.dtd">
<!-- Generated by graphviz version 13.1.2 (20250808.2320)
 -->
<!-- Title: DHARTAPI.VisibilityGraph.VisibilityGraph.GenerateGroupToGroup Pages: 1 -->
<svg width="640pt" height="102pt"
 viewBox="0.00 0.00 640.00 102.00" xmlns="http://www.w3.org/2000/svg" xmlns:xlink="http://www.w3.org/1999/xlink">
<g id="graph0" class="graph" transform="scale(1 1) rotate(0) translate(4 98)">
<title>DHARTAPI.VisibilityGraph.VisibilityGraph.GenerateGroupToGroup</title>
<!-- Node1 -->
<g id="node1" class="node">
<title>Node1</title>
<g id="a_node1"><a xlink:title="Generate a directed visibility graph from nodes in group_a to the nodes in group_b.">
<polygon fill="#999999" stroke="#666666" points="184.75,-60 0,-60 0,-28 184.75,-28 184.75,-60"/>
<text xml:space="preserve" text-anchor="start" x="8" y="-46.5" font-family="Helvetica,sans-Serif" font-size="10.00">DHARTAPI.VisibilityGraph.</text>
<text xml:space="preserve" text-anchor="middle" x="92.38" y="-34.5" font-family="Helvetica,sans-Serif" font-size="10.00">VisibilityGraph.GenerateGroupToGroup</text>
</a>
</g>
</g>
<!-- Node2 -->
<g id="node2" class="node">
<title>Node2</title>
<g id="a_node2"><a xlink:href="class_d_h_a_r_t_a_p_i_1_1_visibility_graph_1_1_native_methods.html#a11e756fec10d67be7d1604e94d932926" target="_top" xlink:title="Generate a directed visibility graph from nodes in group_a to the nodes in group_b.">
<polygon fill="white" stroke="#666666" points="444.5,-60 220.75,-60 220.75,-28 444.5,-28 444.5,-60"/>
<text xml:space="preserve" text-anchor="start" x="228.75" y="-46.5" font-family="Helvetica,sans-Serif" font-size="10.00">DHARTAPI.VisibilityGraph.</text>
<text xml:space="preserve" text-anchor="middle" x="332.62" y="-34.5" font-family="Helvetica,sans-Serif" font-size="10.00">NativeMethods.C_GroupToGroupVisibilityGraph</text>
</a>
</g>
</g>
<!-- Node1&#45;&gt;Node2 -->
<g id="edge1" class="edge">
<title>Node1&#45;&gt;Node2</title>
<path fill="none" stroke="#63b8ff" d="M185.15,-44C192.99,-44 201,-44 209.02,-44"/>
<polygon fill="#63b8ff" stroke="#63b8ff" points="208.86,-47.5 218.86,-44 208.86,-40.5 208.86,-47.5"/>
</g>
<!-- Node3 -->
<g id="node3" class="node">
<title>Node3</title>
<g id="a_node3"><a xlink:href="class_d_h_a_r_t_a_p_i_1_1_visibility_graph_1_1_native_methods.html#aed1fbac372cde37e970b1ab0e2b46db2" target="_top" xlink:title=" ">
<polygon fill="white" stroke="#666666" points="631.5,-94 480.5,-94 480.5,-50 631.5,-50 631.5,-94"/>
<text xml:space="preserve" text-anchor="start" x="488.5" y="-80.5" font-family="Helvetica,sans-Serif" font-size="10.00">DHARTAPI.VisibilityGraph.</text>
<text xml:space="preserve" text-anchor="start" x="488.5" y="-68.5" font-family="Helvetica,sans-Serif" font-size="10.00">NativeMethods.CreateVisibility</text>
<text xml:space="preserve" text-anchor="middle" x="556" y="-56.5" font-family="Helvetica,sans-Serif" font-size="10.00">GraphGroupToGroup</text>
</a>
</g>
</g>
<!-- Node2&#45;&gt;Node3 -->
<g id="edge2" class="edge">
<title>Node2&#45;&gt;Node3</title>
<path fill="none" stroke="#63b8ff" d="M444.96,-58.08C452.99,-59.1 461.02,-60.11 468.87,-61.11"/>
<polygon fill="#63b8ff" stroke="#63b8ff" points="468.37,-64.57 478.73,-62.35 469.24,-57.63 468.37,-64.57"/>
</g>
<!-- Node4 -->
<g id="node4" class="node">
<title>Node4</title>
<g id="a_node4"><a xlink:href="class_d_h_a_r_t_a_p_i_1_1_native_utils_1_1_helper_functions.html#a25819207027d373e010839e97ee002d1" target="_top" xlink:title="Convert a vector array into an array of floats. Slower than passing a Vector3D array.">
<polygon fill="white" stroke="#666666" points="630.75,-32 481.25,-32 481.25,0 630.75,0 630.75,-32"/>
<text xml:space="preserve" text-anchor="start" x="489.25" y="-18.5" font-family="Helvetica,sans-Serif" font-size="10.00">DHARTAPI.NativeUtils.Helper</text>
<text xml:space="preserve" text-anchor="middle" x="556" y="-6.5" font-family="Helvetica,sans-Serif" font-size="10.00">Functions.FlattenVectorArray</text>
</a>
</g>
</g>
<!-- Node2&#45;&gt;Node4 -->
<g id="edge3" class="edge">
<title>Node2&#45;&gt;Node4</title>
<path fill="none" stroke="#63b8ff" d="M444.96,-29.92C453.23,-28.87 461.5,-27.83 469.57,-26.81"/>
<polygon fill="#63b8ff" stroke="#63b8ff" points="469.86,-30.3 479.34,-25.57 468.98,-23.35 469.86,-30.3"/>
</g>
</g>
</svg>
