<?xml version="1.0" encoding="UTF-8" standalone="no"?>
<!DOCTYPE svg PUBLIC "-//W3C//DTD SVG 1.1//EN"
 "http://www.w3.org/Graphics/SVG/1.1/DTD/svg11.dtd">
<!-- Generated by graphviz version 13.1.2 (20250808.2320)
 -->
<!-- Title: DHARTAPI.SpatialStructures.NativeMethods.GetCSRPointers Pages: 1 -->
<svg width="740pt" height="40pt"
 viewBox="0.00 0.00 740.00 40.00" xmlns="http://www.w3.org/2000/svg" xmlns:xlink="http://www.w3.org/1999/xlink">
<g id="graph0" class="graph" transform="scale(1 1) rotate(0) translate(4 36)">
<title>DHARTAPI.SpatialStructures.NativeMethods.GetCSRPointers</title>
<!-- Node1 -->
<g id="node1" class="node">
<title>Node1</title>
<g id="a_node1"><a xlink:title=" ">
<polygon fill="#999999" stroke="#666666" points="732.25,-32 573.75,-32 573.75,0 732.25,0 732.25,-32"/>
<text xml:space="preserve" text-anchor="start" x="581.75" y="-18.5" font-family="Helvetica,sans-Serif" font-size="10.00">DHARTAPI.SpatialStructures.</text>
<text xml:space="preserve" text-anchor="middle" x="653" y="-6.5" font-family="Helvetica,sans-Serif" font-size="10.00">NativeMethods.GetCSRPointers</text>
</a>
</g>
</g>
<!-- Node2 -->
<g id="node2" class="node">
<title>Node2</title>
<g id="a_node2"><a xlink:href="class_d_h_a_r_t_a_p_i_1_1_spatial_structures_1_1_native_methods.html#a684d0fc1c1df272e72bc62fb32eaa516" target="_top" xlink:title="Compress a graph and get the data required to reconstruct its CSR.">
<polygon fill="white" stroke="#666666" points="537.75,-32 366.5,-32 366.5,0 537.75,0 537.75,-32"/>
<text xml:space="preserve" text-anchor="start" x="374.5" y="-18.5" font-family="Helvetica,sans-Serif" font-size="10.00">DHARTAPI.SpatialStructures.</text>
<text xml:space="preserve" text-anchor="middle" x="452.12" y="-6.5" font-family="Helvetica,sans-Serif" font-size="10.00">NativeMethods.C_GetCSRPointers</text>
</a>
</g>
</g>
<!-- Node1&#45;&gt;Node2 -->
<g id="edge1" class="edge">
<title>Node1&#45;&gt;Node2</title>
<path fill="none" stroke="#63b8ff" d="M562.14,-16C554.11,-16 546.01,-16 538.03,-16"/>
<polygon fill="#63b8ff" stroke="#63b8ff" points="561.89,-19.5 571.89,-16 561.89,-12.5 561.89,-19.5"/>
</g>
<!-- Node3 -->
<g id="node3" class="node">
<title>Node3</title>
<g id="a_node3"><a xlink:href="class_d_h_a_r_t_a_p_i_1_1_spatial_structures_1_1_graph.html#a49e6fcb61ca17ee4ba5cb6a2045f9334" target="_top" xlink:title="Compress the graph into a CSR representation, and get pointers to it.">
<polygon fill="white" stroke="#666666" points="330.5,-32 183.25,-32 183.25,0 330.5,0 330.5,-32"/>
<text xml:space="preserve" text-anchor="start" x="191.25" y="-18.5" font-family="Helvetica,sans-Serif" font-size="10.00">DHARTAPI.SpatialStructures.</text>
<text xml:space="preserve" text-anchor="middle" x="256.88" y="-6.5" font-family="Helvetica,sans-Serif" font-size="10.00">Graph.CompressToCSR</text>
</a>
</g>
</g>
<!-- Node2&#45;&gt;Node3 -->
<g id="edge2" class="edge">
<title>Node2&#45;&gt;Node3</title>
<path fill="none" stroke="#63b8ff" d="M354.75,-16C346.71,-16 338.67,-16 330.85,-16"/>
<polygon fill="#63b8ff" stroke="#63b8ff" points="354.57,-19.5 364.57,-16 354.57,-12.5 354.57,-19.5"/>
</g>
<!-- Node4 -->
<g id="node4" class="node">
<title>Node4</title>
<g id="a_node4"><a xlink:href="class_d_h_a_r_t_a_p_i_1_1_spatial_structures_1_1_graph.html#ac31c69fa2fb19842bb3daeee06d230a1" target="_top" xlink:title="Summarize the edgecosts of every node in the graph.">
<polygon fill="white" stroke="#666666" points="147.25,-32 0,-32 0,0 147.25,0 147.25,-32"/>
<text xml:space="preserve" text-anchor="start" x="8" y="-18.5" font-family="Helvetica,sans-Serif" font-size="10.00">DHARTAPI.SpatialStructures.</text>
<text xml:space="preserve" text-anchor="middle" x="73.62" y="-6.5" font-family="Helvetica,sans-Serif" font-size="10.00">Graph.AggregateEdgeCosts</text>
</a>
</g>
</g>
<!-- Node3&#45;&gt;Node4 -->
<g id="edge3" class="edge">
<title>Node3&#45;&gt;Node4</title>
<path fill="none" stroke="#63b8ff" d="M171.69,-16C163.68,-16 155.6,-16 147.71,-16"/>
<polygon fill="#63b8ff" stroke="#63b8ff" points="171.42,-19.5 181.42,-16 171.42,-12.5 171.42,-19.5"/>
</g>
</g>
</svg>
