<?xml version="1.0" encoding="UTF-8" standalone="no"?>
<!DOCTYPE svg PUBLIC "-//W3C//DTD SVG 1.1//EN"
 "http://www.w3.org/Graphics/SVG/1.1/DTD/svg11.dtd">
<!-- Generated by graphviz version 13.1.2 (20250808.2320)
 -->
<!-- Title: DHARTAPI.Pathfinding.ShortestPath.DijkstraShortestPath Pages: 1 -->
<svg width="544pt" height="90pt"
 viewBox="0.00 0.00 544.00 90.00" xmlns="http://www.w3.org/2000/svg" xmlns:xlink="http://www.w3.org/1999/xlink">
<g id="graph0" class="graph" transform="scale(1 1) rotate(0) translate(4 86)">
<title>DHARTAPI.Pathfinding.ShortestPath.DijkstraShortestPath</title>
<!-- Node1 -->
<g id="node1" class="node">
<title>Node1</title>
<g id="a_node1"><a xlink:title="Perform Dijkstra&#39;s shortest path algorithm to find a path between two nodes.">
<polygon fill="#999999" stroke="#666666" points="157.75,-57 0,-57 0,-25 157.75,-25 157.75,-57"/>
<text xml:space="preserve" text-anchor="start" x="8" y="-43.5" font-family="Helvetica,sans-Serif" font-size="10.00">DHARTAPI.Pathfinding.Shortest</text>
<text xml:space="preserve" text-anchor="middle" x="78.88" y="-31.5" font-family="Helvetica,sans-Serif" font-size="10.00">Path.DijkstraShortestPath</text>
</a>
</g>
</g>
<!-- Node2 -->
<g id="node2" class="node">
<title>Node2</title>
<g id="a_node2"><a xlink:href="class_d_h_a_r_t_a_p_i_1_1_pathfinding_1_1_native_methods.html#ae3b5181186bfdce3c11c553e674ed621" target="_top" xlink:title="Generate a path from start to end.">
<polygon fill="white" stroke="#666666" points="346.62,-82 197.12,-82 197.12,-50 346.62,-50 346.62,-82"/>
<text xml:space="preserve" text-anchor="start" x="205.12" y="-68.5" font-family="Helvetica,sans-Serif" font-size="10.00">DHARTAPI.Pathfinding.Native</text>
<text xml:space="preserve" text-anchor="middle" x="271.88" y="-56.5" font-family="Helvetica,sans-Serif" font-size="10.00">Methods.C_CreatePath</text>
</a>
</g>
</g>
<!-- Node1&#45;&gt;Node2 -->
<g id="edge1" class="edge">
<title>Node1&#45;&gt;Node2</title>
<path fill="none" stroke="#63b8ff" d="M158.11,-51.24C167.1,-52.42 176.29,-53.62 185.36,-54.81"/>
<polygon fill="#63b8ff" stroke="#63b8ff" points="184.89,-58.28 195.26,-56.1 185.8,-51.33 184.89,-58.28"/>
</g>
<!-- Node4 -->
<g id="node4" class="node">
<title>Node4</title>
<g id="a_node4"><a xlink:href="struct_d_h_a_r_t_a_p_i_1_1_native_utils_1_1_c_vector_and_data.html#ad50dc2612c71c1c86de883129f18d947" target="_top" xlink:title="Determine whether or not this CVectorAndData points to a actual vector.">
<polygon fill="white" stroke="#666666" points="350,-32 193.75,-32 193.75,0 350,0 350,-32"/>
<text xml:space="preserve" text-anchor="start" x="201.75" y="-18.5" font-family="Helvetica,sans-Serif" font-size="10.00">DHARTAPI.NativeUtils.CVector</text>
<text xml:space="preserve" text-anchor="middle" x="271.88" y="-6.5" font-family="Helvetica,sans-Serif" font-size="10.00">AndData.IsValid</text>
</a>
</g>
</g>
<!-- Node1&#45;&gt;Node4 -->
<g id="edge3" class="edge">
<title>Node1&#45;&gt;Node4</title>
<path fill="none" stroke="#63b8ff" d="M158.11,-30.76C166.03,-29.72 174.1,-28.67 182.11,-27.62"/>
<polygon fill="#63b8ff" stroke="#63b8ff" points="182.41,-31.11 191.88,-26.34 181.51,-24.17 182.41,-31.11"/>
</g>
<!-- Node3 -->
<g id="node3" class="node">
<title>Node3</title>
<g id="a_node3"><a xlink:href="class_d_h_a_r_t_a_p_i_1_1_pathfinding_1_1_native_methods.html#a6376f474d4284b049b2045d942daa7fe" target="_top" xlink:title=" ">
<polygon fill="white" stroke="#666666" points="535.5,-82 386,-82 386,-50 535.5,-50 535.5,-82"/>
<text xml:space="preserve" text-anchor="start" x="394" y="-68.5" font-family="Helvetica,sans-Serif" font-size="10.00">DHARTAPI.Pathfinding.Native</text>
<text xml:space="preserve" text-anchor="middle" x="460.75" y="-56.5" font-family="Helvetica,sans-Serif" font-size="10.00">Methods.CreatePath</text>
</a>
</g>
</g>
<!-- Node2&#45;&gt;Node3 -->
<g id="edge2" class="edge">
<title>Node2&#45;&gt;Node3</title>
<path fill="none" stroke="#63b8ff" d="M347,-66C355.96,-66 365.16,-66 374.26,-66"/>
<polygon fill="#63b8ff" stroke="#63b8ff" points="374.2,-69.5 384.2,-66 374.2,-62.5 374.2,-69.5"/>
</g>
</g>
</svg>
