<?xml version="1.0" encoding="UTF-8" standalone="no"?>
<!DOCTYPE svg PUBLIC "-//W3C//DTD SVG 1.1//EN"
 "http://www.w3.org/Graphics/SVG/1.1/DTD/svg11.dtd">
<!-- Generated by graphviz version 13.1.2 (20250808.2320)
 -->
<!-- Title: DHARTAPI.Geometry.CommonRotations Pages: 1 -->
<svg width="162pt" height="212pt"
 viewBox="0.00 0.00 162.00 212.00" xmlns="http://www.w3.org/2000/svg" xmlns:xlink="http://www.w3.org/1999/xlink">
<g id="graph0" class="graph" transform="scale(1 1) rotate(0) translate(4 208)">
<title>DHARTAPI.Geometry.CommonRotations</title>
<!-- Node1 -->
<g id="node1" class="node">
<title>Node1</title>
<g id="a_node1"><a xlink:title="A collection of rotations that are frequently useful in DHARTAPI.">
<polygon fill="#999999" stroke="#666666" points="154,-32 0,-32 0,0 154,0 154,-32"/>
<text xml:space="preserve" text-anchor="start" x="8" y="-18.5" font-family="Helvetica,sans-Serif" font-size="10.00">DHARTAPI.Geometry.Common</text>
<text xml:space="preserve" text-anchor="middle" x="77" y="-6.5" font-family="Helvetica,sans-Serif" font-size="10.00">Rotations</text>
</a>
</g>
</g>
<!-- Node2 -->
<g id="node2" class="node">
<title>Node2</title>
<g id="a_node2"><a xlink:href="struct_d_h_a_r_t_a_p_i_1_1_vector3_d.html" target="_top" xlink:title="A three dimensional vector with built in utility functions.">
<polygon fill="white" stroke="#666666" points="131.88,-112 22.12,-112 22.12,-92 131.88,-92 131.88,-112"/>
<text xml:space="preserve" text-anchor="middle" x="77" y="-98.5" font-family="Helvetica,sans-Serif" font-size="10.00">DHARTAPI.Vector3D</text>
</a>
</g>
</g>
<!-- Node2&#45;&gt;Node1 -->
<g id="edge1" class="edge">
<title>Node2&#45;&gt;Node1</title>
<path fill="none" stroke="#9a32cd" stroke-dasharray="5,2" d="M77,-80.61C77,-65.72 77,-45.86 77,-32.32"/>
<polygon fill="#9a32cd" stroke="#9a32cd" points="73.5,-80.18 77,-90.18 80.5,-80.18 73.5,-80.18"/>
<text xml:space="preserve" text-anchor="middle" x="105.12" y="-64.5" font-family="Helvetica,sans-Serif" font-size="10.00"> Yup_To_Zup</text>
<text xml:space="preserve" text-anchor="middle" x="105.12" y="-52.5" font-family="Helvetica,sans-Serif" font-size="10.00">Zup_To_Yup</text>
</g>
<!-- Node3 -->
<g id="node3" class="node">
<title>Node3</title>
<g id="a_node3"><a xlink:title=" ">
<polygon fill="white" stroke="#666666" points="94.38,-204 59.62,-204 59.62,-184 94.38,-184 94.38,-204"/>
<text xml:space="preserve" text-anchor="middle" x="77" y="-190.5" font-family="Helvetica,sans-Serif" font-size="10.00">float</text>
</a>
</g>
</g>
<!-- Node3&#45;&gt;Node2 -->
<g id="edge2" class="edge">
<title>Node3&#45;&gt;Node2</title>
<path fill="none" stroke="#9a32cd" stroke-dasharray="5,2" d="M77,-172.2C77,-153.36 77,-126.44 77,-112.38"/>
<polygon fill="#9a32cd" stroke="#9a32cd" points="73.5,-172.19 77,-182.19 80.5,-172.19 73.5,-172.19"/>
<text xml:space="preserve" text-anchor="middle" x="81.12" y="-156.5" font-family="Helvetica,sans-Serif" font-size="10.00"> x</text>
<text xml:space="preserve" text-anchor="middle" x="81.12" y="-144.5" font-family="Helvetica,sans-Serif" font-size="10.00">y</text>
<text xml:space="preserve" text-anchor="middle" x="81.12" y="-132.5" font-family="Helvetica,sans-Serif" font-size="10.00">z</text>
</g>
</g>
</svg>
