<?xml version="1.0" encoding="UTF-8" standalone="no"?>
<!DOCTYPE svg PUBLIC "-//W3C//DTD SVG 1.1//EN"
 "http://www.w3.org/Graphics/SVG/1.1/DTD/svg11.dtd">
<!-- Generated by graphviz version 13.1.2 (20250808.2320)
 -->
<!-- Title: DHARTAPI.RayTracing.NativeMethods.C_CastOcclusionRays Pages: 1 -->
<svg width="544pt" height="80pt"
 viewBox="0.00 0.00 544.00 80.00" xmlns="http://www.w3.org/2000/svg" xmlns:xlink="http://www.w3.org/1999/xlink">
<g id="graph0" class="graph" transform="scale(1 1) rotate(0) translate(4 76)">
<title>DHARTAPI.RayTracing.NativeMethods.C_CastOcclusionRays</title>
<!-- Node1 -->
<g id="node1" class="node">
<title>Node1</title>
<g id="a_node1"><a xlink:title=" ">
<polygon fill="#999999" stroke="#666666" points="157,-32 0,-32 0,0 157,0 157,-32"/>
<text xml:space="preserve" text-anchor="start" x="8" y="-18.5" font-family="Helvetica,sans-Serif" font-size="10.00">DHARTAPI.RayTracing.Native</text>
<text xml:space="preserve" text-anchor="middle" x="78.5" y="-6.5" font-family="Helvetica,sans-Serif" font-size="10.00">Methods.C_CastOcclusionRays</text>
</a>
</g>
</g>
<!-- Node2 -->
<g id="node2" class="node">
<title>Node2</title>
<g id="a_node2"><a xlink:href="class_d_h_a_r_t_a_p_i_1_1_ray_tracing_1_1_native_methods.html#a59fe92246f1f62a542f807783b6cbe6f" target="_top" xlink:title="Cast occlusion rays in C++ using embree.">
<polygon fill="white" stroke="#666666" points="350,-54 193,-54 193,-22 350,-22 350,-54"/>
<text xml:space="preserve" text-anchor="start" x="201" y="-40.5" font-family="Helvetica,sans-Serif" font-size="10.00">DHARTAPI.RayTracing.Native</text>
<text xml:space="preserve" text-anchor="middle" x="271.5" y="-28.5" font-family="Helvetica,sans-Serif" font-size="10.00">Methods.C_CastOcclusionRays</text>
</a>
</g>
</g>
<!-- Node1&#45;&gt;Node2 -->
<g id="edge1" class="edge">
<title>Node1&#45;&gt;Node2</title>
<path fill="none" stroke="#63b8ff" d="M157.46,-24.98C165.39,-25.89 173.47,-26.82 181.5,-27.75"/>
<polygon fill="#63b8ff" stroke="#63b8ff" points="180.95,-31.21 191.28,-28.88 181.75,-24.25 180.95,-31.21"/>
</g>
<!-- Node3 -->
<g id="node3" class="node">
<title>Node3</title>
<g id="a_node3"><a xlink:href="class_d_h_a_r_t_a_p_i_1_1_native_utils_1_1_helper_functions.html#a25819207027d373e010839e97ee002d1" target="_top" xlink:title="Convert a vector array into an array of floats. Slower than passing a Vector3D array.">
<polygon fill="white" stroke="#666666" points="535.5,-32 386,-32 386,0 535.5,0 535.5,-32"/>
<text xml:space="preserve" text-anchor="start" x="394" y="-18.5" font-family="Helvetica,sans-Serif" font-size="10.00">DHARTAPI.NativeUtils.Helper</text>
<text xml:space="preserve" text-anchor="middle" x="460.75" y="-6.5" font-family="Helvetica,sans-Serif" font-size="10.00">Functions.FlattenVectorArray</text>
</a>
</g>
</g>
<!-- Node1&#45;&gt;Node3 -->
<g id="edge4" class="edge">
<title>Node1&#45;&gt;Node3</title>
<path fill="none" stroke="#63b8ff" d="M157.34,-13.67C169.28,-13.39 181.47,-13.15 193,-13 262.77,-12.08 280.23,-12.05 350,-13 357.93,-13.11 366.18,-13.26 374.43,-13.44"/>
<polygon fill="#63b8ff" stroke="#63b8ff" points="374.07,-16.93 384.15,-13.66 374.24,-9.93 374.07,-16.93"/>
</g>
<!-- Node2&#45;&gt;Node2 -->
<g id="edge2" class="edge">
<title>Node2&#45;&gt;Node2</title>
<path fill="none" stroke="#63b8ff" d="M237.71,-54.44C231.41,-63.58 242.67,-72 271.5,-72 287.27,-72 297.78,-69.48 303.04,-65.71"/>
<polygon fill="#63b8ff" stroke="#63b8ff" points="306.46,-66.42 304.99,-55.93 299.6,-65.05 306.46,-66.42"/>
</g>
<!-- Node2&#45;&gt;Node3 -->
<g id="edge3" class="edge">
<title>Node2&#45;&gt;Node3</title>
<path fill="none" stroke="#63b8ff" d="M350.28,-28.86C358.21,-27.93 366.28,-26.98 374.28,-26.04"/>
<polygon fill="#63b8ff" stroke="#63b8ff" points="374.49,-29.54 384.01,-24.9 373.67,-22.59 374.49,-29.54"/>
</g>
</g>
</svg>
