<?xml version="1.0" encoding="UTF-8" standalone="no"?>
<!DOCTYPE svg PUBLIC "-//W3C//DTD SVG 1.1//EN"
 "http://www.w3.org/Graphics/SVG/1.1/DTD/svg11.dtd">
<!-- Generated by graphviz version 13.1.2 (20250808.2320)
 -->
<!-- Title: DHARTAPI.Pathfinding.ShortestPath.GeneratePredecessorAndDistanceMatricies Pages: 1 -->
<svg width="660pt" height="102pt"
 viewBox="0.00 0.00 660.00 102.00" xmlns="http://www.w3.org/2000/svg" xmlns:xlink="http://www.w3.org/1999/xlink">
<g id="graph0" class="graph" transform="scale(1 1) rotate(0) translate(4 98)">
<title>DHARTAPI.Pathfinding.ShortestPath.GeneratePredecessorAndDistanceMatricies</title>
<!-- Node1 -->
<g id="node1" class="node">
<title>Node1</title>
<g id="a_node1"><a xlink:title="Calculate Predecessor and Distance Matricies for a graph.">
<polygon fill="#999999" stroke="#666666" points="190,-66 0,-66 0,-22 190,-22 190,-66"/>
<text xml:space="preserve" text-anchor="start" x="8" y="-52.5" font-family="Helvetica,sans-Serif" font-size="10.00">DHARTAPI.Pathfinding.Shortest</text>
<text xml:space="preserve" text-anchor="start" x="8" y="-40.5" font-family="Helvetica,sans-Serif" font-size="10.00">Path.GeneratePredecessorAndDistance</text>
<text xml:space="preserve" text-anchor="middle" x="95" y="-28.5" font-family="Helvetica,sans-Serif" font-size="10.00">Matricies</text>
</a>
</g>
</g>
<!-- Node2 -->
<g id="node2" class="node">
<title>Node2</title>
<g id="a_node2"><a xlink:href="class_d_h_a_r_t_a_p_i_1_1_pathfinding_1_1_native_methods.html#a20f4321ea9e77203c4f2ddda60a792b7" target="_top" xlink:title="Calculate Predecessor and Distance Matricies for a graph in C++.">
<polygon fill="white" stroke="#666666" points="407,-94 226,-94 226,-50 407,-50 407,-94"/>
<text xml:space="preserve" text-anchor="start" x="234" y="-80.5" font-family="Helvetica,sans-Serif" font-size="10.00">DHARTAPI.Pathfinding.Native</text>
<text xml:space="preserve" text-anchor="start" x="234" y="-68.5" font-family="Helvetica,sans-Serif" font-size="10.00">Methods.C_GeneratePredecessorAnd</text>
<text xml:space="preserve" text-anchor="middle" x="316.5" y="-56.5" font-family="Helvetica,sans-Serif" font-size="10.00">DistanceMatricies</text>
</a>
</g>
</g>
<!-- Node1&#45;&gt;Node2 -->
<g id="edge1" class="edge">
<title>Node1&#45;&gt;Node2</title>
<path fill="none" stroke="#63b8ff" d="M190.36,-56.04C198.34,-57.05 206.43,-58.09 214.45,-59.11"/>
<polygon fill="#63b8ff" stroke="#63b8ff" points="213.87,-62.56 224.23,-60.36 214.76,-55.62 213.87,-62.56"/>
</g>
<!-- Node4 -->
<g id="node4" class="node">
<title>Node4</title>
<g id="a_node4"><a xlink:href="class_d_h_a_r_t_a_p_i_1_1_spatial_structures_1_1_graph.html#a7113a8d636abc5510a3f794cbc2bf2f4" target="_top" xlink:title="Get the number of nodes in this graph.">
<polygon fill="white" stroke="#666666" points="390.12,-32 242.88,-32 242.88,0 390.12,0 390.12,-32"/>
<text xml:space="preserve" text-anchor="start" x="250.88" y="-18.5" font-family="Helvetica,sans-Serif" font-size="10.00">DHARTAPI.SpatialStructures.</text>
<text xml:space="preserve" text-anchor="middle" x="316.5" y="-6.5" font-family="Helvetica,sans-Serif" font-size="10.00">Graph.NumNodes</text>
</a>
</g>
</g>
<!-- Node1&#45;&gt;Node4 -->
<g id="edge3" class="edge">
<title>Node1&#45;&gt;Node4</title>
<path fill="none" stroke="#63b8ff" d="M190.36,-31.96C203.98,-30.23 217.92,-28.45 231.32,-26.74"/>
<polygon fill="#63b8ff" stroke="#63b8ff" points="231.45,-30.25 240.93,-25.51 230.56,-23.31 231.45,-30.25"/>
</g>
<!-- Node3 -->
<g id="node3" class="node">
<title>Node3</title>
<g id="a_node3"><a xlink:href="class_d_h_a_r_t_a_p_i_1_1_pathfinding_1_1_native_methods.html#a66d0b151a1bb3a3674c52ba4a1b35758" target="_top" xlink:title=" ">
<polygon fill="white" stroke="#666666" points="651.75,-88 443,-88 443,-56 651.75,-56 651.75,-88"/>
<text xml:space="preserve" text-anchor="start" x="451" y="-74.5" font-family="Helvetica,sans-Serif" font-size="10.00">DHARTAPI.Pathfinding.Native</text>
<text xml:space="preserve" text-anchor="middle" x="547.38" y="-62.5" font-family="Helvetica,sans-Serif" font-size="10.00">Methods.CalculateDistanceAndPredecessor</text>
</a>
</g>
</g>
<!-- Node2&#45;&gt;Node3 -->
<g id="edge2" class="edge">
<title>Node2&#45;&gt;Node3</title>
<path fill="none" stroke="#63b8ff" d="M407.3,-72C415.22,-72 423.3,-72 431.38,-72"/>
<polygon fill="#63b8ff" stroke="#63b8ff" points="431.29,-75.5 441.29,-72 431.29,-68.5 431.29,-75.5"/>
</g>
</g>
</svg>
