<?xml version="1.0" encoding="UTF-8" standalone="no"?>
<!DOCTYPE svg PUBLIC "-//W3C//DTD SVG 1.1//EN"
 "http://www.w3.org/Graphics/SVG/1.1/DTD/svg11.dtd">
<!-- Generated by graphviz version 13.1.2 (20250808.2320)
 -->
<!-- Title: DHARTAPI.NativeUtils.NativeArray&lt; T &gt; Pages: 1 -->
<svg width="176pt" height="288pt"
 viewBox="0.00 0.00 176.00 288.00" xmlns="http://www.w3.org/2000/svg" xmlns:xlink="http://www.w3.org/1999/xlink">
<g id="graph0" class="graph" transform="scale(1 1) rotate(0) translate(4 284)">
<title>DHARTAPI.NativeUtils.NativeArray&lt; T &gt;</title>
<!-- Node1 -->
<g id="node1" class="node">
<title>Node1</title>
<g id="a_node1"><a xlink:title="A read&#45;only array stored in unmanaged memory.">
<polygon fill="#999999" stroke="#666666" points="158.88,-168 9.38,-168 9.38,-136 158.88,-136 158.88,-168"/>
<text xml:space="preserve" text-anchor="start" x="17.38" y="-154.5" font-family="Helvetica,sans-Serif" font-size="10.00">DHARTAPI.NativeUtils.Native</text>
<text xml:space="preserve" text-anchor="middle" x="84.12" y="-142.5" font-family="Helvetica,sans-Serif" font-size="10.00">Array&lt; T &gt;</text>
</a>
</g>
</g>
<!-- Node4 -->
<g id="node4" class="node">
<title>Node4</title>
<g id="a_node4"><a xlink:href="class_d_h_a_r_t_a_p_i_1_1_native_utils_1_1_native_array2_d.html" target="_top" xlink:title="A wrapper for a two dimensional array in unmanaged memory.">
<polygon fill="white" stroke="#666666" points="158.88,-100 9.38,-100 9.38,-68 158.88,-68 158.88,-100"/>
<text xml:space="preserve" text-anchor="start" x="17.38" y="-86.5" font-family="Helvetica,sans-Serif" font-size="10.00">DHARTAPI.NativeUtils.Native</text>
<text xml:space="preserve" text-anchor="middle" x="84.12" y="-74.5" font-family="Helvetica,sans-Serif" font-size="10.00">Array2D&lt; T &gt;</text>
</a>
</g>
</g>
<!-- Node1&#45;&gt;Node4 -->
<g id="edge3" class="edge">
<title>Node1&#45;&gt;Node4</title>
<path fill="none" stroke="#63b8ff" d="M84.12,-124.31C84.12,-116.12 84.12,-107.38 84.12,-100.22"/>
<polygon fill="#63b8ff" stroke="#63b8ff" points="80.63,-124.18 84.13,-134.18 87.63,-124.18 80.63,-124.18"/>
</g>
<!-- Node2 -->
<g id="node2" class="node">
<title>Node2</title>
<g id="a_node2"><a xlink:href="class_d_h_a_r_t_a_p_i_1_1_native_utils_1_1_native_object.html" target="_top" xlink:title="An object that holds a pointer to unmanaged memory or some other resource that must be freed.">
<polygon fill="white" stroke="#666666" points="120.62,-224 47.62,-224 47.62,-204 120.62,-204 120.62,-224"/>
<text xml:space="preserve" text-anchor="middle" x="84.12" y="-210.5" font-family="Helvetica,sans-Serif" font-size="10.00">NativeObject</text>
</a>
</g>
</g>
<!-- Node2&#45;&gt;Node1 -->
<g id="edge1" class="edge">
<title>Node2&#45;&gt;Node1</title>
<path fill="none" stroke="#63b8ff" d="M84.12,-192.31C84.12,-184.37 84.12,-175.46 84.12,-168.14"/>
<polygon fill="#63b8ff" stroke="#63b8ff" points="80.63,-192.11 84.13,-202.11 87.63,-192.11 80.63,-192.11"/>
</g>
<!-- Node3 -->
<g id="node3" class="node">
<title>Node3</title>
<g id="a_node3"><a xlink:href="class_safe_handle.html" target="_top" xlink:title=" ">
<polygon fill="white" stroke="#666666" points="117.62,-280 50.62,-280 50.62,-260 117.62,-260 117.62,-280"/>
<text xml:space="preserve" text-anchor="middle" x="84.12" y="-266.5" font-family="Helvetica,sans-Serif" font-size="10.00">SafeHandle</text>
</a>
</g>
</g>
<!-- Node3&#45;&gt;Node2 -->
<g id="edge2" class="edge">
<title>Node3&#45;&gt;Node2</title>
<path fill="none" stroke="#63b8ff" d="M84.12,-248.13C84.12,-239.9 84.12,-230.85 84.12,-224.3"/>
<polygon fill="#63b8ff" stroke="#63b8ff" points="80.63,-248.08 84.13,-258.08 87.63,-248.08 80.63,-248.08"/>
</g>
<!-- Node5 -->
<g id="node5" class="node">
<title>Node5</title>
<g id="a_node5"><a xlink:href="class_d_h_a_r_t_a_p_i_1_1_native_utils_1_1_dependent_native_array.html" target="_top" xlink:title="A native array 2D that doesn&#39;t require destruction.">
<polygon fill="white" stroke="#666666" points="168.25,-32 0,-32 0,0 168.25,0 168.25,-32"/>
<text xml:space="preserve" text-anchor="start" x="8" y="-18.5" font-family="Helvetica,sans-Serif" font-size="10.00">DHARTAPI.NativeUtils.Dependent</text>
<text xml:space="preserve" text-anchor="middle" x="84.12" y="-6.5" font-family="Helvetica,sans-Serif" font-size="10.00">NativeArray&lt; T &gt;</text>
</a>
</g>
</g>
<!-- Node4&#45;&gt;Node5 -->
<g id="edge4" class="edge">
<title>Node4&#45;&gt;Node5</title>
<path fill="none" stroke="#63b8ff" d="M84.12,-56.31C84.12,-48.12 84.12,-39.38 84.12,-32.22"/>
<polygon fill="#63b8ff" stroke="#63b8ff" points="80.63,-56.18 84.13,-66.18 87.63,-56.18 80.63,-56.18"/>
</g>
</g>
</svg>
