<?xml version="1.0" encoding="UTF-8" standalone="no"?>
<!DOCTYPE svg PUBLIC "-//W3C//DTD SVG 1.1//EN"
 "http://www.w3.org/Graphics/SVG/1.1/DTD/svg11.dtd">
<!-- Generated by graphviz version 13.1.2 (20250808.2320)
 -->
<!-- Title: DHARTAPI.SpatialStructures.Graph.AddNodeAttribute Pages: 1 -->
<svg width="339pt" height="58pt"
 viewBox="0.00 0.00 339.00 58.00" xmlns="http://www.w3.org/2000/svg" xmlns:xlink="http://www.w3.org/1999/xlink">
<g id="graph0" class="graph" transform="scale(1 1) rotate(0) translate(4 54)">
<title>DHARTAPI.SpatialStructures.Graph.AddNodeAttribute</title>
<!-- Node1 -->
<g id="node1" class="node">
<title>Node1</title>
<g id="a_node1"><a xlink:title="Define a node attribute for the node at id.">
<polygon fill="#999999" stroke="#666666" points="330.5,-32 183.25,-32 183.25,0 330.5,0 330.5,-32"/>
<text xml:space="preserve" text-anchor="start" x="191.25" y="-18.5" font-family="Helvetica,sans-Serif" font-size="10.00">DHARTAPI.SpatialStructures.</text>
<text xml:space="preserve" text-anchor="middle" x="256.88" y="-6.5" font-family="Helvetica,sans-Serif" font-size="10.00">Graph.AddNodeAttribute</text>
</a>
</g>
</g>
<!-- Node1&#45;&gt;Node1 -->
<g id="edge1" class="edge">
<title>Node1&#45;&gt;Node1</title>
<path fill="none" stroke="#63b8ff" d="M287.41,-43.71C282.32,-47.48 272.14,-50 256.88,-50 228.96,-50 218.05,-41.58 224.16,-32.44"/>
<polygon fill="#63b8ff" stroke="#63b8ff" points="290.84,-44.41 289.3,-33.93 283.97,-43.08 290.84,-44.41"/>
</g>
<!-- Node2 -->
<g id="node2" class="node">
<title>Node2</title>
<g id="a_node2"><a xlink:href="class_d_h_a_r_t_a_p_i_1_1_spatial_structures_1_1_graph.html#a425d4666d544a72bc7fc11fb35f233a2" target="_top" xlink:title="Add attribute to all node in ids, with their respective score in scores.">
<polygon fill="white" stroke="#666666" points="147.25,-32 0,-32 0,0 147.25,0 147.25,-32"/>
<text xml:space="preserve" text-anchor="start" x="8" y="-18.5" font-family="Helvetica,sans-Serif" font-size="10.00">DHARTAPI.SpatialStructures.</text>
<text xml:space="preserve" text-anchor="middle" x="73.62" y="-6.5" font-family="Helvetica,sans-Serif" font-size="10.00">Graph.AddNodeAttribute&lt; T &gt;</text>
</a>
</g>
</g>
<!-- Node1&#45;&gt;Node2 -->
<g id="edge2" class="edge">
<title>Node1&#45;&gt;Node2</title>
<path fill="none" stroke="#63b8ff" d="M171.69,-16C163.68,-16 155.6,-16 147.71,-16"/>
<polygon fill="#63b8ff" stroke="#63b8ff" points="171.42,-19.5 181.42,-16 171.42,-12.5 171.42,-19.5"/>
</g>
</g>
</svg>
