<?xml version="1.0" encoding="UTF-8" standalone="no"?>
<!DOCTYPE svg PUBLIC "-//W3C//DTD SVG 1.1//EN"
 "http://www.w3.org/Graphics/SVG/1.1/DTD/svg11.dtd">
<!-- Generated by graphviz version 13.1.2 (20250808.2320)
 -->
<!-- Title: DHARTAPI.GraphGenerator.NativeMethods.GenerateGraphObstacles Pages: 1 -->
<svg width="593pt" height="40pt"
 viewBox="0.00 0.00 593.00 40.00" xmlns="http://www.w3.org/2000/svg" xmlns:xlink="http://www.w3.org/1999/xlink">
<g id="graph0" class="graph" transform="scale(1 1) rotate(0) translate(4 36)">
<title>DHARTAPI.GraphGenerator.NativeMethods.GenerateGraphObstacles</title>
<!-- Node1 -->
<g id="node1" class="node">
<title>Node1</title>
<g id="a_node1"><a xlink:title=" ">
<polygon fill="#999999" stroke="#666666" points="585,-32 389.75,-32 389.75,0 585,0 585,-32"/>
<text xml:space="preserve" text-anchor="start" x="397.75" y="-18.5" font-family="Helvetica,sans-Serif" font-size="10.00">DHARTAPI.GraphGenerator.</text>
<text xml:space="preserve" text-anchor="middle" x="487.38" y="-6.5" font-family="Helvetica,sans-Serif" font-size="10.00">NativeMethods.GenerateGraphObstacles</text>
</a>
</g>
</g>
<!-- Node2 -->
<g id="node2" class="node">
<title>Node2</title>
<g id="a_node2"><a xlink:href="class_d_h_a_r_t_a_p_i_1_1_graph_generator_1_1_native_methods.html#a010f5a4f0dc009da56978d0faf3e7017" target="_top" xlink:title="Generate a graph using the C++ graph generator.">
<polygon fill="white" stroke="#666666" points="353.75,-32 190,-32 190,0 353.75,0 353.75,-32"/>
<text xml:space="preserve" text-anchor="start" x="198" y="-18.5" font-family="Helvetica,sans-Serif" font-size="10.00">DHARTAPI.GraphGenerator.</text>
<text xml:space="preserve" text-anchor="middle" x="271.88" y="-6.5" font-family="Helvetica,sans-Serif" font-size="10.00">NativeMethods.C_GenerateGraph</text>
</a>
</g>
</g>
<!-- Node1&#45;&gt;Node2 -->
<g id="edge1" class="edge">
<title>Node1&#45;&gt;Node2</title>
<path fill="none" stroke="#63b8ff" d="M377.95,-16C369.91,-16 361.89,-16 354.05,-16"/>
<polygon fill="#63b8ff" stroke="#63b8ff" points="377.79,-19.5 387.79,-16 377.79,-12.5 377.79,-19.5"/>
</g>
<!-- Node3 -->
<g id="node3" class="node">
<title>Node3</title>
<g id="a_node3"><a xlink:href="class_d_h_a_r_t_a_p_i_1_1_graph_generator_1_1_graph_generator.html#afd70d8304d009c1816a711d6be6bdf29" target="_top" xlink:title="Generate a graph of accessible space with the given settings. If no graph can be generated,...">
<polygon fill="white" stroke="#666666" points="154,-32 0,-32 0,0 154,0 154,-32"/>
<text xml:space="preserve" text-anchor="start" x="8" y="-18.5" font-family="Helvetica,sans-Serif" font-size="10.00">DHARTAPI.GraphGenerator.</text>
<text xml:space="preserve" text-anchor="middle" x="77" y="-6.5" font-family="Helvetica,sans-Serif" font-size="10.00">GraphGenerator.GenerateGraph</text>
</a>
</g>
</g>
<!-- Node2&#45;&gt;Node3 -->
<g id="edge2" class="edge">
<title>Node2&#45;&gt;Node3</title>
<path fill="none" stroke="#63b8ff" d="M178.29,-16C170.23,-16 162.13,-16 154.22,-16"/>
<polygon fill="#63b8ff" stroke="#63b8ff" points="178.12,-19.5 188.12,-16 178.12,-12.5 178.12,-19.5"/>
</g>
</g>
</svg>
