<?xml version="1.0" encoding="UTF-8" standalone="no"?>
<!DOCTYPE svg PUBLIC "-//W3C//DTD SVG 1.1//EN"
 "http://www.w3.org/Graphics/SVG/1.1/DTD/svg11.dtd">
<!-- Generated by graphviz version 13.1.2 (20250808.2320)
 -->
<!-- Title: DHARTAPI.SpatialStructures.NativeMethods.C_AddEdge Pages: 1 -->
<svg width="367pt" height="78pt"
 viewBox="0.00 0.00 367.00 78.00" xmlns="http://www.w3.org/2000/svg" xmlns:xlink="http://www.w3.org/1999/xlink">
<g id="graph0" class="graph" transform="scale(1 1) rotate(0) translate(4 74)">
<title>DHARTAPI.SpatialStructures.NativeMethods.C_AddEdge</title>
<!-- Node1 -->
<g id="node1" class="node">
<title>Node1</title>
<g id="a_node1"><a xlink:title="Create a new edge between parent and child with cost.">
<polygon fill="#999999" stroke="#666666" points="147.25,-48 0,-48 0,-16 147.25,-16 147.25,-48"/>
<text xml:space="preserve" text-anchor="start" x="8" y="-34.5" font-family="Helvetica,sans-Serif" font-size="10.00">DHARTAPI.SpatialStructures.</text>
<text xml:space="preserve" text-anchor="middle" x="73.62" y="-22.5" font-family="Helvetica,sans-Serif" font-size="10.00">NativeMethods.C_AddEdge</text>
</a>
</g>
</g>
<!-- Node2 -->
<g id="node2" class="node">
<title>Node2</title>
<g id="a_node2"><a xlink:href="class_d_h_a_r_t_a_p_i_1_1_spatial_structures_1_1_native_methods.html#a7f0fd2c1d8640c2428862ec08700bc47" target="_top" xlink:title=" ">
<polygon fill="white" stroke="#666666" points="359,-70 183.25,-70 183.25,-38 359,-38 359,-70"/>
<text xml:space="preserve" text-anchor="start" x="191.25" y="-56.5" font-family="Helvetica,sans-Serif" font-size="10.00">DHARTAPI.SpatialStructures.</text>
<text xml:space="preserve" text-anchor="middle" x="271.12" y="-44.5" font-family="Helvetica,sans-Serif" font-size="10.00">NativeMethods.AddEdgeFromNodes</text>
</a>
</g>
</g>
<!-- Node1&#45;&gt;Node2 -->
<g id="edge1" class="edge">
<title>Node1&#45;&gt;Node2</title>
<path fill="none" stroke="#63b8ff" d="M147.7,-40.22C155.51,-41.1 163.55,-42.01 171.6,-42.91"/>
<polygon fill="#63b8ff" stroke="#63b8ff" points="171.12,-46.38 181.45,-44.02 171.91,-39.43 171.12,-46.38"/>
</g>
<!-- Node3 -->
<g id="node3" class="node">
<title>Node3</title>
<g id="a_node3"><a xlink:href="struct_d_h_a_r_t_a_p_i_1_1_vector3_d.html#a9e68c43e195142d59789c892e43df8ab" target="_top" xlink:title="Convert this vector3D to an array of floats.">
<polygon fill="white" stroke="#666666" points="344.38,-20 197.88,-20 197.88,0 344.38,0 344.38,-20"/>
<text xml:space="preserve" text-anchor="middle" x="271.12" y="-6.5" font-family="Helvetica,sans-Serif" font-size="10.00">DHARTAPI.Vector3D.ToArray</text>
</a>
</g>
</g>
<!-- Node1&#45;&gt;Node3 -->
<g id="edge2" class="edge">
<title>Node1&#45;&gt;Node3</title>
<path fill="none" stroke="#63b8ff" d="M147.7,-23.78C160.28,-22.36 173.45,-20.88 186.29,-19.43"/>
<polygon fill="#63b8ff" stroke="#63b8ff" points="186.41,-22.94 195.96,-18.35 185.63,-15.99 186.41,-22.94"/>
</g>
</g>
</svg>
