<?xml version="1.0" encoding="UTF-8" standalone="no"?>
<!DOCTYPE svg PUBLIC "-//W3C//DTD SVG 1.1//EN"
 "http://www.w3.org/Graphics/SVG/1.1/DTD/svg11.dtd">
<!-- Generated by graphviz version 13.1.2 (20250808.2320)
 -->
<!-- Title: DHARTAPI.RayTracing.NativeMethods.C_IntersectPoints Pages: 1 -->
<svg width="363pt" height="214pt"
 viewBox="0.00 0.00 363.00 214.00" xmlns="http://www.w3.org/2000/svg" xmlns:xlink="http://www.w3.org/1999/xlink">
<g id="graph0" class="graph" transform="scale(1 1) rotate(0) translate(4 210)">
<title>DHARTAPI.RayTracing.NativeMethods.C_IntersectPoints</title>
<!-- Node1 -->
<g id="node1" class="node">
<title>Node1</title>
<g id="a_node1"><a xlink:title=" ">
<polygon fill="#999999" stroke="#666666" points="151,-110 0,-110 0,-78 151,-78 151,-110"/>
<text xml:space="preserve" text-anchor="start" x="8" y="-96.5" font-family="Helvetica,sans-Serif" font-size="10.00">DHARTAPI.RayTracing.Native</text>
<text xml:space="preserve" text-anchor="middle" x="75.5" y="-84.5" font-family="Helvetica,sans-Serif" font-size="10.00">Methods.C_IntersectPoints</text>
</a>
</g>
</g>
<!-- Node2 -->
<g id="node2" class="node">
<title>Node2</title>
<g id="a_node2"><a xlink:href="class_d_h_a_r_t_a_p_i_1_1_ray_tracing_1_1_native_methods.html#a83096b9750d7be8fc19fa16957d9b671" target="_top" xlink:title=" ">
<polygon fill="white" stroke="#666666" points="348.88,-206 193.38,-206 193.38,-162 348.88,-162 348.88,-206"/>
<text xml:space="preserve" text-anchor="start" x="201.38" y="-192.5" font-family="Helvetica,sans-Serif" font-size="10.00">DHARTAPI.RayTracing.Native</text>
<text xml:space="preserve" text-anchor="start" x="201.38" y="-180.5" font-family="Helvetica,sans-Serif" font-size="10.00">Methods.CastMultipleDirections</text>
<text xml:space="preserve" text-anchor="middle" x="271.12" y="-168.5" font-family="Helvetica,sans-Serif" font-size="10.00">OneOrigin</text>
</a>
</g>
</g>
<!-- Node1&#45;&gt;Node2 -->
<g id="edge1" class="edge">
<title>Node1&#45;&gt;Node2</title>
<path fill="none" stroke="#63b8ff" d="M104.6,-110.35C126.62,-122.83 158.25,-140.04 187,-153 190.13,-154.41 193.34,-155.81 196.6,-157.19"/>
<polygon fill="#63b8ff" stroke="#63b8ff" points="195.15,-160.38 205.73,-160.95 197.81,-153.9 195.15,-160.38"/>
</g>
<!-- Node3 -->
<g id="node3" class="node">
<title>Node3</title>
<g id="a_node3"><a xlink:href="class_d_h_a_r_t_a_p_i_1_1_ray_tracing_1_1_native_methods.html#a5f1f892de2c223c8b12bb17cea9f7f6d" target="_top" xlink:title=" ">
<polygon fill="white" stroke="#666666" points="351.12,-144 191.12,-144 191.12,-100 351.12,-100 351.12,-144"/>
<text xml:space="preserve" text-anchor="start" x="199.12" y="-130.5" font-family="Helvetica,sans-Serif" font-size="10.00">DHARTAPI.RayTracing.Native</text>
<text xml:space="preserve" text-anchor="start" x="199.12" y="-118.5" font-family="Helvetica,sans-Serif" font-size="10.00">Methods.CastMultipleOriginsOne</text>
<text xml:space="preserve" text-anchor="middle" x="271.12" y="-106.5" font-family="Helvetica,sans-Serif" font-size="10.00">Direction</text>
</a>
</g>
</g>
<!-- Node1&#45;&gt;Node3 -->
<g id="edge2" class="edge">
<title>Node1&#45;&gt;Node3</title>
<path fill="none" stroke="#63b8ff" d="M151.36,-104.83C160.51,-106.15 169.95,-107.51 179.3,-108.87"/>
<polygon fill="#63b8ff" stroke="#63b8ff" points="178.76,-112.32 189.16,-110.29 179.76,-105.4 178.76,-112.32"/>
</g>
<!-- Node4 -->
<g id="node4" class="node">
<title>Node4</title>
<g id="a_node4"><a xlink:href="class_d_h_a_r_t_a_p_i_1_1_ray_tracing_1_1_native_methods.html#ac8268f2fcdc8cf1603059da5a72a4ca2" target="_top" xlink:title=" ">
<polygon fill="white" stroke="#666666" points="346.62,-82 195.62,-82 195.62,-50 346.62,-50 346.62,-82"/>
<text xml:space="preserve" text-anchor="start" x="203.62" y="-68.5" font-family="Helvetica,sans-Serif" font-size="10.00">DHARTAPI.RayTracing.Native</text>
<text xml:space="preserve" text-anchor="middle" x="271.12" y="-56.5" font-family="Helvetica,sans-Serif" font-size="10.00">Methods.CastMultipleRays</text>
</a>
</g>
</g>
<!-- Node1&#45;&gt;Node4 -->
<g id="edge3" class="edge">
<title>Node1&#45;&gt;Node4</title>
<path fill="none" stroke="#63b8ff" d="M151.36,-83.17C162.02,-81.63 173.06,-80.04 183.92,-78.47"/>
<polygon fill="#63b8ff" stroke="#63b8ff" points="184.25,-81.95 193.65,-77.06 183.25,-75.03 184.25,-81.95"/>
</g>
<!-- Node5 -->
<g id="node5" class="node">
<title>Node5</title>
<g id="a_node5"><a xlink:href="class_d_h_a_r_t_a_p_i_1_1_native_utils_1_1_helper_functions.html#ae95d1223286b95f40cef0dcad143f093" target="_top" xlink:title="Convert a flat array of floats into a vector of points where result_array is true.">
<polygon fill="white" stroke="#666666" points="355.25,-32 187,-32 187,0 355.25,0 355.25,-32"/>
<text xml:space="preserve" text-anchor="start" x="195" y="-18.5" font-family="Helvetica,sans-Serif" font-size="10.00">DHARTAPI.NativeUtils.Helper</text>
<text xml:space="preserve" text-anchor="middle" x="271.12" y="-6.5" font-family="Helvetica,sans-Serif" font-size="10.00">Functions.FloatArrayToVectorArray</text>
</a>
</g>
</g>
<!-- Node1&#45;&gt;Node5 -->
<g id="edge4" class="edge">
<title>Node1&#45;&gt;Node5</title>
<path fill="none" stroke="#63b8ff" d="M107.37,-77.6C129.22,-66.39 159.42,-51.69 187,-41 191.35,-39.32 195.86,-37.67 200.43,-36.09"/>
<polygon fill="#63b8ff" stroke="#63b8ff" points="201.35,-39.47 209.72,-32.98 199.13,-32.83 201.35,-39.47"/>
</g>
</g>
</svg>
