<?xml version="1.0" encoding="UTF-8" standalone="no"?>
<!DOCTYPE svg PUBLIC "-//W3C//DTD SVG 1.1//EN"
 "http://www.w3.org/Graphics/SVG/1.1/DTD/svg11.dtd">
<!-- Generated by graphviz version 13.1.2 (20250808.2320)
 -->
<!-- Title: DHARTAPI.Geometry.NativeMethods.LoadOBJ Pages: 1 -->
<svg width="532pt" height="90pt"
 viewBox="0.00 0.00 532.00 90.00" xmlns="http://www.w3.org/2000/svg" xmlns:xlink="http://www.w3.org/1999/xlink">
<g id="graph0" class="graph" transform="scale(1 1) rotate(0) translate(4 86)">
<title>DHARTAPI.Geometry.NativeMethods.LoadOBJ</title>
<!-- Node1 -->
<g id="node1" class="node">
<title>Node1</title>
<g id="a_node1"><a xlink:title=" ">
<polygon fill="#999999" stroke="#666666" points="523.5,-57 380.75,-57 380.75,-25 523.5,-25 523.5,-57"/>
<text xml:space="preserve" text-anchor="start" x="388.75" y="-43.5" font-family="Helvetica,sans-Serif" font-size="10.00">DHARTAPI.Geometry.Native</text>
<text xml:space="preserve" text-anchor="middle" x="452.12" y="-31.5" font-family="Helvetica,sans-Serif" font-size="10.00">Methods.LoadOBJ</text>
</a>
</g>
</g>
<!-- Node2 -->
<g id="node2" class="node">
<title>Node2</title>
<g id="a_node2"><a xlink:href="class_d_h_a_r_t_a_p_i_1_1_geometry_1_1_native_methods.html#ac8b3db134c290a598f228a4eb4cd2c71" target="_top" xlink:title="Load an obj file from the given filepath into a MeshInfo object in native memory.">
<polygon fill="white" stroke="#666666" points="344.75,-57 202,-57 202,-25 344.75,-25 344.75,-57"/>
<text xml:space="preserve" text-anchor="start" x="210" y="-43.5" font-family="Helvetica,sans-Serif" font-size="10.00">DHARTAPI.Geometry.Native</text>
<text xml:space="preserve" text-anchor="middle" x="273.38" y="-31.5" font-family="Helvetica,sans-Serif" font-size="10.00">Methods.C_LoadOBJ</text>
</a>
</g>
</g>
<!-- Node1&#45;&gt;Node2 -->
<g id="edge1" class="edge">
<title>Node1&#45;&gt;Node2</title>
<path fill="none" stroke="#63b8ff" d="M368.98,-41C360.96,-41 352.87,-41 344.98,-41"/>
<polygon fill="#63b8ff" stroke="#63b8ff" points="368.74,-44.5 378.74,-41 368.74,-37.5 368.74,-44.5"/>
</g>
<!-- Node3 -->
<g id="node3" class="node">
<title>Node3</title>
<g id="a_node3"><a xlink:href="class_d_h_a_r_t_a_p_i_1_1_geometry_1_1_o_b_j_loader.html#a055d65f71455d3f77003520b53ab0aaa" target="_top" xlink:title="Load an obj from the OBJ file at the given filepath.">
<polygon fill="white" stroke="#666666" points="166,-82 0,-82 0,-50 166,-50 166,-82"/>
<text xml:space="preserve" text-anchor="start" x="8" y="-68.5" font-family="Helvetica,sans-Serif" font-size="10.00">DHARTAPI.Geometry.OBJLoader.</text>
<text xml:space="preserve" text-anchor="middle" x="83" y="-56.5" font-family="Helvetica,sans-Serif" font-size="10.00">LoadOBJ</text>
</a>
</g>
</g>
<!-- Node2&#45;&gt;Node3 -->
<g id="edge2" class="edge">
<title>Node2&#45;&gt;Node3</title>
<path fill="none" stroke="#63b8ff" d="M190.53,-51.86C182.56,-52.92 174.47,-53.99 166.49,-55.05"/>
<polygon fill="#63b8ff" stroke="#63b8ff" points="190.74,-55.36 200.19,-50.58 189.82,-48.43 190.74,-55.36"/>
</g>
<!-- Node4 -->
<g id="node4" class="node">
<title>Node4</title>
<g id="a_node4"><a xlink:href="class_d_h_a_r_t_a_p_i_1_1_geometry_1_1_o_b_j_loader.html#a6d7927f1fefbe49c8d374775c4d2a909" target="_top" xlink:title="Load an obj from the OBJ file at the given filepath.">
<polygon fill="white" stroke="#666666" points="166,-32 0,-32 0,0 166,0 166,-32"/>
<text xml:space="preserve" text-anchor="start" x="8" y="-18.5" font-family="Helvetica,sans-Serif" font-size="10.00">DHARTAPI.Geometry.OBJLoader.</text>
<text xml:space="preserve" text-anchor="middle" x="83" y="-6.5" font-family="Helvetica,sans-Serif" font-size="10.00">LoadOBJSubmeshes</text>
</a>
</g>
</g>
<!-- Node2&#45;&gt;Node4 -->
<g id="edge3" class="edge">
<title>Node2&#45;&gt;Node4</title>
<path fill="none" stroke="#63b8ff" d="M190.53,-30.14C182.56,-29.08 174.47,-28.01 166.49,-26.95"/>
<polygon fill="#63b8ff" stroke="#63b8ff" points="189.82,-33.57 200.19,-31.42 190.74,-26.64 189.82,-33.57"/>
</g>
</g>
</svg>
