<?xml version="1.0" encoding="UTF-8" standalone="no"?>
<!DOCTYPE svg PUBLIC "-//W3C//DTD SVG 1.1//EN"
 "http://www.w3.org/Graphics/SVG/1.1/DTD/svg11.dtd">
<!-- Generated by graphviz version 13.1.2 (20250808.2320)
 -->
<!-- Title: DHARTAPI.NativeUtils.NativeArray2D&lt; T &gt; Pages: 1 -->
<svg width="258pt" height="257pt"
 viewBox="0.00 0.00 258.00 257.00" xmlns="http://www.w3.org/2000/svg" xmlns:xlink="http://www.w3.org/1999/xlink">
<g id="graph0" class="graph" transform="scale(1 1) rotate(0) translate(4 253)">
<title>DHARTAPI.NativeUtils.NativeArray2D&lt; T &gt;</title>
<!-- Node1 -->
<g id="node1" class="node">
<title>Node1</title>
<g id="a_node1"><a xlink:title="A wrapper for a two dimensional array in unmanaged memory.">
<polygon fill="#999999" stroke="#666666" points="179.25,-32 29.75,-32 29.75,0 179.25,0 179.25,-32"/>
<text xml:space="preserve" text-anchor="start" x="37.75" y="-18.5" font-family="Helvetica,sans-Serif" font-size="10.00">DHARTAPI.NativeUtils.Native</text>
<text xml:space="preserve" text-anchor="middle" x="104.5" y="-6.5" font-family="Helvetica,sans-Serif" font-size="10.00">Array2D&lt; T &gt;</text>
</a>
</g>
</g>
<!-- Node2 -->
<g id="node2" class="node">
<title>Node2</title>
<g id="a_node2"><a xlink:href="class_d_h_a_r_t_a_p_i_1_1_native_utils_1_1_native_array.html" target="_top" xlink:title="A read&#45;only array stored in unmanaged memory.">
<polygon fill="white" stroke="#666666" points="150,-89 59,-89 59,-69 150,-69 150,-89"/>
<text xml:space="preserve" text-anchor="middle" x="104.5" y="-75.5" font-family="Helvetica,sans-Serif" font-size="10.00">NativeArray&lt; T &gt;</text>
</a>
</g>
</g>
<!-- Node2&#45;&gt;Node1 -->
<g id="edge1" class="edge">
<title>Node2&#45;&gt;Node1</title>
<path fill="none" stroke="#63b8ff" d="M104.5,-57.36C104.5,-49.07 104.5,-39.69 104.5,-32.06"/>
<polygon fill="#63b8ff" stroke="#63b8ff" points="101,-57.22 104.5,-67.22 108,-57.22 101,-57.22"/>
</g>
<!-- Node3 -->
<g id="node3" class="node">
<title>Node3</title>
<g id="a_node3"><a xlink:href="class_d_h_a_r_t_a_p_i_1_1_native_utils_1_1_native_object.html" target="_top" xlink:title="An object that holds a pointer to unmanaged memory or some other resource that must be freed.">
<polygon fill="white" stroke="#666666" points="75,-163 2,-163 2,-143 75,-143 75,-163"/>
<text xml:space="preserve" text-anchor="middle" x="38.5" y="-149.5" font-family="Helvetica,sans-Serif" font-size="10.00">NativeObject</text>
</a>
</g>
</g>
<!-- Node3&#45;&gt;Node2 -->
<g id="edge2" class="edge">
<title>Node3&#45;&gt;Node2</title>
<path fill="none" stroke="#63b8ff" d="M54.54,-134.5C67.64,-120.21 85.64,-100.57 96.08,-89.19"/>
<polygon fill="#63b8ff" stroke="#63b8ff" points="52.33,-131.73 48.15,-141.47 57.49,-136.47 52.33,-131.73"/>
</g>
<!-- Node4 -->
<g id="node4" class="node">
<title>Node4</title>
<g id="a_node4"><a xlink:href="class_safe_handle.html" target="_top" xlink:title=" ">
<polygon fill="white" stroke="#666666" points="67,-249 0,-249 0,-229 67,-229 67,-249"/>
<text xml:space="preserve" text-anchor="middle" x="33.5" y="-235.5" font-family="Helvetica,sans-Serif" font-size="10.00">SafeHandle</text>
</a>
</g>
</g>
<!-- Node4&#45;&gt;Node3 -->
<g id="edge3" class="edge">
<title>Node4&#45;&gt;Node3</title>
<path fill="none" stroke="#63b8ff" d="M34.73,-217.3C35.76,-200.06 37.17,-176.31 37.94,-163.35"/>
<polygon fill="#63b8ff" stroke="#63b8ff" points="31.24,-216.99 34.14,-227.18 38.23,-217.4 31.24,-216.99"/>
</g>
<!-- Node5 -->
<g id="node5" class="node">
<title>Node5</title>
<g id="a_node5"><a xlink:title=" ">
<polygon fill="white" stroke="#666666" points="126.9,-249 98.1,-249 98.1,-229 126.9,-229 126.9,-249"/>
<text xml:space="preserve" text-anchor="middle" x="112.5" y="-235.5" font-family="Helvetica,sans-Serif" font-size="10.00">int</text>
</a>
</g>
</g>
<!-- Node5&#45;&gt;Node3 -->
<g id="edge4" class="edge">
<title>Node5&#45;&gt;Node3</title>
<path fill="none" stroke="#9a32cd" stroke-dasharray="5,2" d="M95.16,-220.75C92.07,-217.55 88.9,-214.21 86,-211 71.31,-194.76 55.18,-174.95 46.01,-163.48"/>
<polygon fill="#9a32cd" stroke="#9a32cd" points="92.41,-222.94 101.92,-227.61 97.39,-218.03 92.41,-222.94"/>
<text xml:space="preserve" text-anchor="middle" x="106.25" y="-195.5" font-family="Helvetica,sans-Serif" font-size="10.00"> pressure</text>
</g>
<!-- Node6 -->
<g id="node6" class="node">
<title>Node6</title>
<g id="a_node6"><a xlink:href="struct_d_h_a_r_t_a_p_i_1_1_native_utils_1_1_c_vector_and_data.html" target="_top" xlink:title="Pointers to a C++ vector&#39;s data, the vector itself, and the size of the vector.">
<polygon fill="white" stroke="#666666" points="249.62,-169 93.38,-169 93.38,-137 249.62,-137 249.62,-169"/>
<text xml:space="preserve" text-anchor="start" x="101.38" y="-155.5" font-family="Helvetica,sans-Serif" font-size="10.00">DHARTAPI.NativeUtils.CVector</text>
<text xml:space="preserve" text-anchor="middle" x="171.5" y="-143.5" font-family="Helvetica,sans-Serif" font-size="10.00">AndData</text>
</a>
</g>
</g>
<!-- Node5&#45;&gt;Node6 -->
<g id="edge7" class="edge">
<title>Node5&#45;&gt;Node6</title>
<path fill="none" stroke="#9a32cd" stroke-dasharray="5,2" d="M124.4,-219.36C130.73,-209.61 138.74,-197.54 146.25,-187 150.43,-181.12 155.2,-174.8 159.46,-169.28"/>
<polygon fill="#9a32cd" stroke="#9a32cd" points="121.58,-217.27 119.11,-227.57 127.47,-221.06 121.58,-217.27"/>
<text xml:space="preserve" text-anchor="middle" x="157.88" y="-201.5" font-family="Helvetica,sans-Serif" font-size="10.00"> size</text>
<text xml:space="preserve" text-anchor="middle" x="157.88" y="-189.5" font-family="Helvetica,sans-Serif" font-size="10.00">size2</text>
</g>
<!-- Node6&#45;&gt;Node2 -->
<g id="edge5" class="edge">
<title>Node6&#45;&gt;Node2</title>
<path fill="none" stroke="#9a32cd" stroke-dasharray="5,2" d="M149.57,-128.43C137.16,-115.09 122.33,-99.16 113.16,-89.31"/>
<polygon fill="#9a32cd" stroke="#9a32cd" points="146.89,-130.69 156.26,-135.62 152.01,-125.92 146.89,-130.69"/>
<text xml:space="preserve" text-anchor="middle" x="149.76" y="-109.5" font-family="Helvetica,sans-Serif" font-size="10.00"> ptrs</text>
</g>
<!-- Node7 -->
<g id="node7" class="node">
<title>Node7</title>
<g id="a_node7"><a xlink:title=" ">
<polygon fill="white" stroke="#666666" points="196.5,-249 156.5,-249 156.5,-229 196.5,-229 196.5,-249"/>
<text xml:space="preserve" text-anchor="middle" x="176.5" y="-235.5" font-family="Helvetica,sans-Serif" font-size="10.00">IntPtr</text>
</a>
</g>
</g>
<!-- Node7&#45;&gt;Node6 -->
<g id="edge6" class="edge">
<title>Node7&#45;&gt;Node6</title>
<path fill="none" stroke="#9a32cd" stroke-dasharray="5,2" d="M175.29,-217.61C174.4,-202.72 173.22,-182.86 172.41,-169.32"/>
<polygon fill="#9a32cd" stroke="#9a32cd" points="171.77,-217.4 175.86,-227.18 178.76,-216.99 171.77,-217.4"/>
<text xml:space="preserve" text-anchor="middle" x="188.38" y="-201.5" font-family="Helvetica,sans-Serif" font-size="10.00"> data</text>
<text xml:space="preserve" text-anchor="middle" x="188.38" y="-189.5" font-family="Helvetica,sans-Serif" font-size="10.00">vector</text>
</g>
</g>
</svg>
