<?xml version="1.0" encoding="UTF-8" standalone="no"?>
<!DOCTYPE svg PUBLIC "-//W3C//DTD SVG 1.1//EN"
 "http://www.w3.org/Graphics/SVG/1.1/DTD/svg11.dtd">
<!-- Generated by graphviz version 13.1.2 (20250808.2320)
 -->
<!-- Title: DHARTAPI.RayTracing.EmbreeBVH.AddMesh Pages: 1 -->
<svg width="357pt" height="140pt"
 viewBox="0.00 0.00 357.00 140.00" xmlns="http://www.w3.org/2000/svg" xmlns:xlink="http://www.w3.org/1999/xlink">
<g id="graph0" class="graph" transform="scale(1 1) rotate(0) translate(4 136)">
<title>DHARTAPI.RayTracing.EmbreeBVH.AddMesh</title>
<!-- Node1 -->
<g id="node1" class="node">
<title>Node1</title>
<g id="a_node1"><a xlink:title="Multiple new meshes to the BVH.">
<polygon fill="#999999" stroke="#666666" points="156.25,-82 0,-82 0,-50 156.25,-50 156.25,-82"/>
<text xml:space="preserve" text-anchor="start" x="8" y="-68.5" font-family="Helvetica,sans-Serif" font-size="10.00">DHARTAPI.RayTracing.Embree</text>
<text xml:space="preserve" text-anchor="middle" x="78.12" y="-56.5" font-family="Helvetica,sans-Serif" font-size="10.00">BVH.AddMesh</text>
</a>
</g>
</g>
<!-- Node2 -->
<g id="node2" class="node">
<title>Node2</title>
<g id="a_node2"><a xlink:href="class_d_h_a_r_t_a_p_i_1_1_ray_tracing_1_1_native_methods.html#af57f54013a7a4b0d2bcf240e2aded5d2" target="_top" xlink:title=" ">
<polygon fill="white" stroke="#666666" points="345.88,-132 194.88,-132 194.88,-100 345.88,-100 345.88,-132"/>
<text xml:space="preserve" text-anchor="start" x="202.88" y="-118.5" font-family="Helvetica,sans-Serif" font-size="10.00">DHARTAPI.RayTracing.Native</text>
<text xml:space="preserve" text-anchor="middle" x="270.38" y="-106.5" font-family="Helvetica,sans-Serif" font-size="10.00">Methods.C_AddMesh</text>
</a>
</g>
</g>
<!-- Node1&#45;&gt;Node2 -->
<g id="edge1" class="edge">
<title>Node1&#45;&gt;Node2</title>
<path fill="none" stroke="#63b8ff" d="M141.68,-82.44C158.99,-86.99 177.94,-91.97 195.81,-96.67"/>
<polygon fill="#63b8ff" stroke="#63b8ff" points="194.75,-100.01 205.32,-99.16 196.53,-93.24 194.75,-100.01"/>
</g>
<!-- Node3 -->
<g id="node3" class="node">
<title>Node3</title>
<g id="a_node3"><a xlink:href="class_d_h_a_r_t_a_p_i_1_1_ray_tracing_1_1_embree_b_v_h.html#ab4ed958a3cf5b8255fa44661fad59405" target="_top" xlink:title="Gets the pointer of every meshinfo in an array of meshinfo.">
<polygon fill="white" stroke="#666666" points="348.5,-82 192.25,-82 192.25,-50 348.5,-50 348.5,-82"/>
<text xml:space="preserve" text-anchor="start" x="200.25" y="-68.5" font-family="Helvetica,sans-Serif" font-size="10.00">DHARTAPI.RayTracing.Embree</text>
<text xml:space="preserve" text-anchor="middle" x="270.38" y="-56.5" font-family="Helvetica,sans-Serif" font-size="10.00">BVH.getMeshInfoPtrs</text>
</a>
</g>
</g>
<!-- Node1&#45;&gt;Node3 -->
<g id="edge2" class="edge">
<title>Node1&#45;&gt;Node3</title>
<path fill="none" stroke="#63b8ff" d="M156.51,-66C164.41,-66 172.48,-66 180.49,-66"/>
<polygon fill="#63b8ff" stroke="#63b8ff" points="180.24,-69.5 190.24,-66 180.24,-62.5 180.24,-69.5"/>
</g>
<!-- Node4 -->
<g id="node4" class="node">
<title>Node4</title>
<g id="a_node4"><a xlink:href="class_d_h_a_r_t_a_p_i_1_1_native_utils_1_1_native_object.html#ab63e715d5db528edc64b3aa5233f750c" target="_top" xlink:title="Update the pressure of this object.">
<polygon fill="white" stroke="#666666" points="345.12,-32 195.62,-32 195.62,0 345.12,0 345.12,-32"/>
<text xml:space="preserve" text-anchor="start" x="203.62" y="-18.5" font-family="Helvetica,sans-Serif" font-size="10.00">DHARTAPI.NativeUtils.Native</text>
<text xml:space="preserve" text-anchor="middle" x="270.38" y="-6.5" font-family="Helvetica,sans-Serif" font-size="10.00">Object.UpdatePressure</text>
</a>
</g>
</g>
<!-- Node1&#45;&gt;Node4 -->
<g id="edge3" class="edge">
<title>Node1&#45;&gt;Node4</title>
<path fill="none" stroke="#63b8ff" d="M141.68,-49.56C158.99,-45.01 177.94,-40.03 195.81,-35.33"/>
<polygon fill="#63b8ff" stroke="#63b8ff" points="196.53,-38.76 205.32,-32.84 194.75,-31.99 196.53,-38.76"/>
</g>
</g>
</svg>
