<?xml version="1.0" encoding="UTF-8" standalone="no"?>
<!DOCTYPE svg PUBLIC "-//W3C//DTD SVG 1.1//EN"
 "http://www.w3.org/Graphics/SVG/1.1/DTD/svg11.dtd">
<!-- Generated by graphviz version 13.1.2 (20250808.2320)
 -->
<!-- Title: DHARTAPI.Pathfinding.NativeMethods.CreatePath Pages: 1 -->
<svg width="731pt" height="40pt"
 viewBox="0.00 0.00 731.00 40.00" xmlns="http://www.w3.org/2000/svg" xmlns:xlink="http://www.w3.org/1999/xlink">
<g id="graph0" class="graph" transform="scale(1 1) rotate(0) translate(4 36)">
<title>DHARTAPI.Pathfinding.NativeMethods.CreatePath</title>
<!-- Node1 -->
<g id="node1" class="node">
<title>Node1</title>
<g id="a_node1"><a xlink:title=" ">
<polygon fill="#999999" stroke="#666666" points="722.5,-32 573,-32 573,0 722.5,0 722.5,-32"/>
<text xml:space="preserve" text-anchor="start" x="581" y="-18.5" font-family="Helvetica,sans-Serif" font-size="10.00">DHARTAPI.Pathfinding.Native</text>
<text xml:space="preserve" text-anchor="middle" x="647.75" y="-6.5" font-family="Helvetica,sans-Serif" font-size="10.00">Methods.CreatePath</text>
</a>
</g>
</g>
<!-- Node2 -->
<g id="node2" class="node">
<title>Node2</title>
<g id="a_node2"><a xlink:href="class_d_h_a_r_t_a_p_i_1_1_pathfinding_1_1_native_methods.html#ae3b5181186bfdce3c11c553e674ed621" target="_top" xlink:title="Generate a path from start to end.">
<polygon fill="white" stroke="#666666" points="537,-32 387.5,-32 387.5,0 537,0 537,-32"/>
<text xml:space="preserve" text-anchor="start" x="395.5" y="-18.5" font-family="Helvetica,sans-Serif" font-size="10.00">DHARTAPI.Pathfinding.Native</text>
<text xml:space="preserve" text-anchor="middle" x="462.25" y="-6.5" font-family="Helvetica,sans-Serif" font-size="10.00">Methods.C_CreatePath</text>
</a>
</g>
</g>
<!-- Node1&#45;&gt;Node2 -->
<g id="edge1" class="edge">
<title>Node1&#45;&gt;Node2</title>
<path fill="none" stroke="#63b8ff" d="M561.36,-16C553.34,-16 545.25,-16 537.34,-16"/>
<polygon fill="#63b8ff" stroke="#63b8ff" points="561.13,-19.5 571.13,-16 561.13,-12.5 561.13,-19.5"/>
</g>
<!-- Node3 -->
<g id="node3" class="node">
<title>Node3</title>
<g id="a_node3"><a xlink:href="class_d_h_a_r_t_a_p_i_1_1_pathfinding_1_1_shortest_path.html#a5f2c0aa645a9c1c6f87a693a57c958cd" target="_top" xlink:title="Perform Dijkstra&#39;s shortest path algorithm to find a path between two nodes.">
<polygon fill="white" stroke="#666666" points="351.5,-32 193.75,-32 193.75,0 351.5,0 351.5,-32"/>
<text xml:space="preserve" text-anchor="start" x="201.75" y="-18.5" font-family="Helvetica,sans-Serif" font-size="10.00">DHARTAPI.Pathfinding.Shortest</text>
<text xml:space="preserve" text-anchor="middle" x="272.62" y="-6.5" font-family="Helvetica,sans-Serif" font-size="10.00">Path.DijkstraShortestPath</text>
</a>
</g>
</g>
<!-- Node2&#45;&gt;Node3 -->
<g id="edge2" class="edge">
<title>Node2&#45;&gt;Node3</title>
<path fill="none" stroke="#63b8ff" d="M375.59,-16C367.69,-16 359.7,-16 351.87,-16"/>
<polygon fill="#63b8ff" stroke="#63b8ff" points="375.58,-19.5 385.58,-16 375.58,-12.5 375.58,-19.5"/>
</g>
<!-- Node4 -->
<g id="node4" class="node">
<title>Node4</title>
<g id="a_node4"><a xlink:href="class_d_h_a_r_t_a_p_i_1_1_pathfinding_1_1_shortest_path.html#a45ddabab96c5913d7c2e3e5cc25404bf" target="_top" xlink:title="Perform Dijkstra&#39;s shortest path algorithm to find a path between two nodes.">
<polygon fill="white" stroke="#666666" points="157.75,-32 0,-32 0,0 157.75,0 157.75,-32"/>
<text xml:space="preserve" text-anchor="start" x="8" y="-18.5" font-family="Helvetica,sans-Serif" font-size="10.00">DHARTAPI.Pathfinding.Shortest</text>
<text xml:space="preserve" text-anchor="middle" x="78.88" y="-6.5" font-family="Helvetica,sans-Serif" font-size="10.00">Path.DijkstraShortestPath</text>
</a>
</g>
</g>
<!-- Node3&#45;&gt;Node4 -->
<g id="edge3" class="edge">
<title>Node3&#45;&gt;Node4</title>
<path fill="none" stroke="#63b8ff" d="M181.85,-16C173.95,-16 166,-16 158.2,-16"/>
<polygon fill="#63b8ff" stroke="#63b8ff" points="181.84,-19.5 191.84,-16 181.84,-12.5 181.84,-19.5"/>
</g>
</g>
</svg>
