<?xml version="1.0" encoding="UTF-8" standalone="no"?>
<!DOCTYPE svg PUBLIC "-//W3C//DTD SVG 1.1//EN"
 "http://www.w3.org/Graphics/SVG/1.1/DTD/svg11.dtd">
<!-- Generated by graphviz version 13.1.2 (20250808.2320)
 -->
<!-- Title: DHARTAPI.SpatialStructures.Graph.CompressToCSR Pages: 1 -->
<svg width="557pt" height="40pt"
 viewBox="0.00 0.00 557.00 40.00" xmlns="http://www.w3.org/2000/svg" xmlns:xlink="http://www.w3.org/1999/xlink">
<g id="graph0" class="graph" transform="scale(1 1) rotate(0) translate(4 36)">
<title>DHARTAPI.SpatialStructures.Graph.CompressToCSR</title>
<!-- Node1 -->
<g id="node1" class="node">
<title>Node1</title>
<g id="a_node1"><a xlink:title="Compress the graph into a CSR representation, and get pointers to it.">
<polygon fill="#999999" stroke="#666666" points="147.25,-32 0,-32 0,0 147.25,0 147.25,-32"/>
<text xml:space="preserve" text-anchor="start" x="8" y="-18.5" font-family="Helvetica,sans-Serif" font-size="10.00">DHARTAPI.SpatialStructures.</text>
<text xml:space="preserve" text-anchor="middle" x="73.62" y="-6.5" font-family="Helvetica,sans-Serif" font-size="10.00">Graph.CompressToCSR</text>
</a>
</g>
</g>
<!-- Node2 -->
<g id="node2" class="node">
<title>Node2</title>
<g id="a_node2"><a xlink:href="class_d_h_a_r_t_a_p_i_1_1_spatial_structures_1_1_native_methods.html#a684d0fc1c1df272e72bc62fb32eaa516" target="_top" xlink:title="Compress a graph and get the data required to reconstruct its CSR.">
<polygon fill="white" stroke="#666666" points="354.5,-32 183.25,-32 183.25,0 354.5,0 354.5,-32"/>
<text xml:space="preserve" text-anchor="start" x="191.25" y="-18.5" font-family="Helvetica,sans-Serif" font-size="10.00">DHARTAPI.SpatialStructures.</text>
<text xml:space="preserve" text-anchor="middle" x="268.88" y="-6.5" font-family="Helvetica,sans-Serif" font-size="10.00">NativeMethods.C_GetCSRPointers</text>
</a>
</g>
</g>
<!-- Node1&#45;&gt;Node2 -->
<g id="edge1" class="edge">
<title>Node1&#45;&gt;Node2</title>
<path fill="none" stroke="#63b8ff" d="M147.68,-16C155.53,-16 163.6,-16 171.66,-16"/>
<polygon fill="#63b8ff" stroke="#63b8ff" points="171.52,-19.5 181.52,-16 171.52,-12.5 171.52,-19.5"/>
</g>
<!-- Node3 -->
<g id="node3" class="node">
<title>Node3</title>
<g id="a_node3"><a xlink:href="class_d_h_a_r_t_a_p_i_1_1_spatial_structures_1_1_native_methods.html#a2cbee1ae2a0e6eda0139d8b86cd90ee4" target="_top" xlink:title=" ">
<polygon fill="white" stroke="#666666" points="549,-32 390.5,-32 390.5,0 549,0 549,-32"/>
<text xml:space="preserve" text-anchor="start" x="398.5" y="-18.5" font-family="Helvetica,sans-Serif" font-size="10.00">DHARTAPI.SpatialStructures.</text>
<text xml:space="preserve" text-anchor="middle" x="469.75" y="-6.5" font-family="Helvetica,sans-Serif" font-size="10.00">NativeMethods.GetCSRPointers</text>
</a>
</g>
</g>
<!-- Node2&#45;&gt;Node3 -->
<g id="edge2" class="edge">
<title>Node2&#45;&gt;Node3</title>
<path fill="none" stroke="#63b8ff" d="M354.79,-16C362.76,-16 370.85,-16 378.86,-16"/>
<polygon fill="#63b8ff" stroke="#63b8ff" points="378.59,-19.5 388.59,-16 378.59,-12.5 378.59,-19.5"/>
</g>
</g>
</svg>
