<?xml version="1.0" encoding="UTF-8" standalone="no"?>
<!DOCTYPE svg PUBLIC "-//W3C//DTD SVG 1.1//EN"
 "http://www.w3.org/Graphics/SVG/1.1/DTD/svg11.dtd">
<!-- Generated by graphviz version 13.1.2 (20250808.2320)
 -->
<!-- Title: DHARTAPI.SpatialStructures.NativeMethods.C_GetNodes Pages: 1 -->
<svg width="381pt" height="90pt"
 viewBox="0.00 0.00 381.00 90.00" xmlns="http://www.w3.org/2000/svg" xmlns:xlink="http://www.w3.org/1999/xlink">
<g id="graph0" class="graph" transform="scale(1 1) rotate(0) translate(4 86)">
<title>DHARTAPI.SpatialStructures.NativeMethods.C_GetNodes</title>
<!-- Node1 -->
<g id="node1" class="node">
<title>Node1</title>
<g id="a_node1"><a xlink:title="Get the Nodes of a graph in C++.">
<polygon fill="#999999" stroke="#666666" points="147.25,-57 0,-57 0,-25 147.25,-25 147.25,-57"/>
<text xml:space="preserve" text-anchor="start" x="8" y="-43.5" font-family="Helvetica,sans-Serif" font-size="10.00">DHARTAPI.SpatialStructures.</text>
<text xml:space="preserve" text-anchor="middle" x="73.62" y="-31.5" font-family="Helvetica,sans-Serif" font-size="10.00">NativeMethods.C_GetNodes</text>
</a>
</g>
</g>
<!-- Node2 -->
<g id="node2" class="node">
<title>Node2</title>
<g id="a_node2"><a xlink:href="class_d_h_a_r_t_a_p_i_1_1_spatial_structures_1_1_native_methods.html#a765d21cb8bec483d2aa80579ef227d5e" target="_top" xlink:title=" ">
<polygon fill="white" stroke="#666666" points="372.5,-82 183.25,-82 183.25,-50 372.5,-50 372.5,-82"/>
<text xml:space="preserve" text-anchor="start" x="191.25" y="-68.5" font-family="Helvetica,sans-Serif" font-size="10.00">DHARTAPI.SpatialStructures.</text>
<text xml:space="preserve" text-anchor="middle" x="277.88" y="-56.5" font-family="Helvetica,sans-Serif" font-size="10.00">NativeMethods.GetAllNodesFromGraph</text>
</a>
</g>
</g>
<!-- Node1&#45;&gt;Node2 -->
<g id="edge1" class="edge">
<title>Node1&#45;&gt;Node2</title>
<path fill="none" stroke="#63b8ff" d="M147.64,-50.03C155.41,-50.99 163.42,-51.98 171.46,-52.97"/>
<polygon fill="#63b8ff" stroke="#63b8ff" points="170.98,-56.44 181.33,-54.19 171.84,-49.49 170.98,-56.44"/>
</g>
<!-- Node3 -->
<g id="node3" class="node">
<title>Node3</title>
<g id="a_node3"><a xlink:href="class_d_h_a_r_t_a_p_i_1_1_spatial_structures_1_1_native_methods.html#a8e02ac486698034282112b4da4cfdc00" target="_top" xlink:title=" ">
<polygon fill="white" stroke="#666666" points="368.75,-32 187,-32 187,0 368.75,0 368.75,-32"/>
<text xml:space="preserve" text-anchor="start" x="195" y="-18.5" font-family="Helvetica,sans-Serif" font-size="10.00">DHARTAPI.SpatialStructures.</text>
<text xml:space="preserve" text-anchor="middle" x="277.88" y="-6.5" font-family="Helvetica,sans-Serif" font-size="10.00">NativeMethods.GetSizeOfNodeVector</text>
</a>
</g>
</g>
<!-- Node1&#45;&gt;Node3 -->
<g id="edge2" class="edge">
<title>Node1&#45;&gt;Node3</title>
<path fill="none" stroke="#63b8ff" d="M147.64,-31.97C156.65,-30.86 165.98,-29.71 175.32,-28.55"/>
<polygon fill="#63b8ff" stroke="#63b8ff" points="175.7,-32.03 185.19,-27.33 174.84,-25.09 175.7,-32.03"/>
</g>
</g>
</svg>
