<?xml version="1.0" encoding="UTF-8" standalone="no"?>
<!DOCTYPE svg PUBLIC "-//W3C//DTD SVG 1.1//EN"
 "http://www.w3.org/Graphics/SVG/1.1/DTD/svg11.dtd">
<!-- Generated by graphviz version 13.1.2 (20250808.2320)
 -->
<!-- Title: DHARTAPI.VisibilityGraph.VisibilityGraph.GenerateAllToAll Pages: 1 -->
<svg width="580pt" height="164pt"
 viewBox="0.00 0.00 580.00 164.00" xmlns="http://www.w3.org/2000/svg" xmlns:xlink="http://www.w3.org/1999/xlink">
<g id="graph0" class="graph" transform="scale(1 1) rotate(0) translate(4 160)">
<title>DHARTAPI.VisibilityGraph.VisibilityGraph.GenerateAllToAll</title>
<!-- Node1 -->
<g id="node1" class="node">
<title>Node1</title>
<g id="a_node1"><a xlink:title="Create a visibility graph from every node to every node in nodes.">
<polygon fill="#999999" stroke="#666666" points="154.75,-88 0,-88 0,-56 154.75,-56 154.75,-88"/>
<text xml:space="preserve" text-anchor="start" x="8" y="-74.5" font-family="Helvetica,sans-Serif" font-size="10.00">DHARTAPI.VisibilityGraph.</text>
<text xml:space="preserve" text-anchor="middle" x="77.38" y="-62.5" font-family="Helvetica,sans-Serif" font-size="10.00">VisibilityGraph.GenerateAllToAll</text>
</a>
</g>
</g>
<!-- Node2 -->
<g id="node2" class="node">
<title>Node2</title>
<g id="a_node2"><a xlink:href="class_d_h_a_r_t_a_p_i_1_1_visibility_graph_1_1_native_methods.html#a559751c33a91ae696e2969a29ce2126d" target="_top" xlink:title="Generate a visibility graph in C++.">
<polygon fill="white" stroke="#666666" points="384.5,-88 190.75,-88 190.75,-56 384.5,-56 384.5,-88"/>
<text xml:space="preserve" text-anchor="start" x="198.75" y="-74.5" font-family="Helvetica,sans-Serif" font-size="10.00">DHARTAPI.VisibilityGraph.</text>
<text xml:space="preserve" text-anchor="middle" x="287.62" y="-62.5" font-family="Helvetica,sans-Serif" font-size="10.00">NativeMethods.C_AllToAllVisibilityGraph</text>
</a>
</g>
</g>
<!-- Node1&#45;&gt;Node2 -->
<g id="edge1" class="edge">
<title>Node1&#45;&gt;Node2</title>
<path fill="none" stroke="#63b8ff" d="M155.03,-72C162.84,-72 170.86,-72 178.92,-72"/>
<polygon fill="#63b8ff" stroke="#63b8ff" points="178.79,-75.5 188.79,-72 178.79,-68.5 178.79,-75.5"/>
</g>
<!-- Node3 -->
<g id="node3" class="node">
<title>Node3</title>
<g id="a_node3"><a xlink:href="class_d_h_a_r_t_a_p_i_1_1_visibility_graph_1_1_native_methods.html#aa284673fe8680770fe8dbfd6ebc7da47" target="_top" xlink:title=" ">
<polygon fill="white" stroke="#666666" points="571.5,-156 420.5,-156 420.5,-112 571.5,-112 571.5,-156"/>
<text xml:space="preserve" text-anchor="start" x="428.5" y="-142.5" font-family="Helvetica,sans-Serif" font-size="10.00">DHARTAPI.VisibilityGraph.</text>
<text xml:space="preserve" text-anchor="start" x="428.5" y="-130.5" font-family="Helvetica,sans-Serif" font-size="10.00">NativeMethods.CreateVisibility</text>
<text xml:space="preserve" text-anchor="middle" x="496" y="-118.5" font-family="Helvetica,sans-Serif" font-size="10.00">GraphAllToAll</text>
</a>
</g>
</g>
<!-- Node2&#45;&gt;Node3 -->
<g id="edge2" class="edge">
<title>Node2&#45;&gt;Node3</title>
<path fill="none" stroke="#63b8ff" d="M343.39,-88.45C363.6,-94.53 387.03,-101.56 409.33,-108.26"/>
<polygon fill="#63b8ff" stroke="#63b8ff" points="408.13,-111.56 418.71,-111.08 410.14,-104.85 408.13,-111.56"/>
</g>
<!-- Node4 -->
<g id="node4" class="node">
<title>Node4</title>
<g id="a_node4"><a xlink:href="class_d_h_a_r_t_a_p_i_1_1_visibility_graph_1_1_native_methods.html#ad1117a033a2be097eb01f0892c3b438d" target="_top" xlink:title=" ">
<polygon fill="white" stroke="#666666" points="571.5,-94 420.5,-94 420.5,-50 571.5,-50 571.5,-94"/>
<text xml:space="preserve" text-anchor="start" x="428.5" y="-80.5" font-family="Helvetica,sans-Serif" font-size="10.00">DHARTAPI.VisibilityGraph.</text>
<text xml:space="preserve" text-anchor="start" x="428.5" y="-68.5" font-family="Helvetica,sans-Serif" font-size="10.00">NativeMethods.CreateVisibility</text>
<text xml:space="preserve" text-anchor="middle" x="496" y="-56.5" font-family="Helvetica,sans-Serif" font-size="10.00">GraphAllToAllUndirected</text>
</a>
</g>
</g>
<!-- Node2&#45;&gt;Node4 -->
<g id="edge3" class="edge">
<title>Node2&#45;&gt;Node4</title>
<path fill="none" stroke="#63b8ff" d="M384.86,-72C392.84,-72 400.88,-72 408.77,-72"/>
<polygon fill="#63b8ff" stroke="#63b8ff" points="408.71,-75.5 418.71,-72 408.71,-68.5 408.71,-75.5"/>
</g>
<!-- Node5 -->
<g id="node5" class="node">
<title>Node5</title>
<g id="a_node5"><a xlink:href="class_d_h_a_r_t_a_p_i_1_1_native_utils_1_1_helper_functions.html#a25819207027d373e010839e97ee002d1" target="_top" xlink:title="Convert a vector array into an array of floats. Slower than passing a Vector3D array.">
<polygon fill="white" stroke="#666666" points="570.75,-32 421.25,-32 421.25,0 570.75,0 570.75,-32"/>
<text xml:space="preserve" text-anchor="start" x="429.25" y="-18.5" font-family="Helvetica,sans-Serif" font-size="10.00">DHARTAPI.NativeUtils.Helper</text>
<text xml:space="preserve" text-anchor="middle" x="496" y="-6.5" font-family="Helvetica,sans-Serif" font-size="10.00">Functions.FlattenVectorArray</text>
</a>
</g>
</g>
<!-- Node2&#45;&gt;Node5 -->
<g id="edge4" class="edge">
<title>Node2&#45;&gt;Node5</title>
<path fill="none" stroke="#63b8ff" d="M349.43,-55.5C372.63,-49.21 399.29,-41.97 423.4,-35.43"/>
<polygon fill="#63b8ff" stroke="#63b8ff" points="424.08,-38.87 432.81,-32.87 422.25,-32.12 424.08,-38.87"/>
</g>
</g>
</svg>
