<?xml version="1.0" encoding="UTF-8" standalone="no"?>
<!DOCTYPE svg PUBLIC "-//W3C//DTD SVG 1.1//EN"
 "http://www.w3.org/Graphics/SVG/1.1/DTD/svg11.dtd">
<!-- Generated by graphviz version 13.1.2 (20250808.2320)
 -->
<!-- Title: DHARTAPI.VisibilityGraph.NativeMethods.C_AllToAllVisibilityGraph Pages: 1 -->
<svg width="389pt" height="164pt"
 viewBox="0.00 0.00 389.00 164.00" xmlns="http://www.w3.org/2000/svg" xmlns:xlink="http://www.w3.org/1999/xlink">
<g id="graph0" class="graph" transform="scale(1 1) rotate(0) translate(4 160)">
<title>DHARTAPI.VisibilityGraph.NativeMethods.C_AllToAllVisibilityGraph</title>
<!-- Node1 -->
<g id="node1" class="node">
<title>Node1</title>
<g id="a_node1"><a xlink:title="Generate a visibility graph in C++.">
<polygon fill="#999999" stroke="#666666" points="193.75,-88 0,-88 0,-56 193.75,-56 193.75,-88"/>
<text xml:space="preserve" text-anchor="start" x="8" y="-74.5" font-family="Helvetica,sans-Serif" font-size="10.00">DHARTAPI.VisibilityGraph.</text>
<text xml:space="preserve" text-anchor="middle" x="96.88" y="-62.5" font-family="Helvetica,sans-Serif" font-size="10.00">NativeMethods.C_AllToAllVisibilityGraph</text>
</a>
</g>
</g>
<!-- Node2 -->
<g id="node2" class="node">
<title>Node2</title>
<g id="a_node2"><a xlink:href="class_d_h_a_r_t_a_p_i_1_1_visibility_graph_1_1_native_methods.html#aa284673fe8680770fe8dbfd6ebc7da47" target="_top" xlink:title=" ">
<polygon fill="white" stroke="#666666" points="380.75,-156 229.75,-156 229.75,-112 380.75,-112 380.75,-156"/>
<text xml:space="preserve" text-anchor="start" x="237.75" y="-142.5" font-family="Helvetica,sans-Serif" font-size="10.00">DHARTAPI.VisibilityGraph.</text>
<text xml:space="preserve" text-anchor="start" x="237.75" y="-130.5" font-family="Helvetica,sans-Serif" font-size="10.00">NativeMethods.CreateVisibility</text>
<text xml:space="preserve" text-anchor="middle" x="305.25" y="-118.5" font-family="Helvetica,sans-Serif" font-size="10.00">GraphAllToAll</text>
</a>
</g>
</g>
<!-- Node1&#45;&gt;Node2 -->
<g id="edge1" class="edge">
<title>Node1&#45;&gt;Node2</title>
<path fill="none" stroke="#63b8ff" d="M152.64,-88.45C172.85,-94.53 196.28,-101.56 218.58,-108.26"/>
<polygon fill="#63b8ff" stroke="#63b8ff" points="217.38,-111.56 227.96,-111.08 219.39,-104.85 217.38,-111.56"/>
</g>
<!-- Node3 -->
<g id="node3" class="node">
<title>Node3</title>
<g id="a_node3"><a xlink:href="class_d_h_a_r_t_a_p_i_1_1_visibility_graph_1_1_native_methods.html#ad1117a033a2be097eb01f0892c3b438d" target="_top" xlink:title=" ">
<polygon fill="white" stroke="#666666" points="380.75,-94 229.75,-94 229.75,-50 380.75,-50 380.75,-94"/>
<text xml:space="preserve" text-anchor="start" x="237.75" y="-80.5" font-family="Helvetica,sans-Serif" font-size="10.00">DHARTAPI.VisibilityGraph.</text>
<text xml:space="preserve" text-anchor="start" x="237.75" y="-68.5" font-family="Helvetica,sans-Serif" font-size="10.00">NativeMethods.CreateVisibility</text>
<text xml:space="preserve" text-anchor="middle" x="305.25" y="-56.5" font-family="Helvetica,sans-Serif" font-size="10.00">GraphAllToAllUndirected</text>
</a>
</g>
</g>
<!-- Node1&#45;&gt;Node3 -->
<g id="edge2" class="edge">
<title>Node1&#45;&gt;Node3</title>
<path fill="none" stroke="#63b8ff" d="M194.11,-72C202.09,-72 210.13,-72 218.02,-72"/>
<polygon fill="#63b8ff" stroke="#63b8ff" points="217.96,-75.5 227.96,-72 217.96,-68.5 217.96,-75.5"/>
</g>
<!-- Node4 -->
<g id="node4" class="node">
<title>Node4</title>
<g id="a_node4"><a xlink:href="class_d_h_a_r_t_a_p_i_1_1_native_utils_1_1_helper_functions.html#a25819207027d373e010839e97ee002d1" target="_top" xlink:title="Convert a vector array into an array of floats. Slower than passing a Vector3D array.">
<polygon fill="white" stroke="#666666" points="380,-32 230.5,-32 230.5,0 380,0 380,-32"/>
<text xml:space="preserve" text-anchor="start" x="238.5" y="-18.5" font-family="Helvetica,sans-Serif" font-size="10.00">DHARTAPI.NativeUtils.Helper</text>
<text xml:space="preserve" text-anchor="middle" x="305.25" y="-6.5" font-family="Helvetica,sans-Serif" font-size="10.00">Functions.FlattenVectorArray</text>
</a>
</g>
</g>
<!-- Node1&#45;&gt;Node4 -->
<g id="edge3" class="edge">
<title>Node1&#45;&gt;Node4</title>
<path fill="none" stroke="#63b8ff" d="M158.68,-55.5C181.88,-49.21 208.54,-41.97 232.65,-35.43"/>
<polygon fill="#63b8ff" stroke="#63b8ff" points="233.33,-38.87 242.06,-32.87 231.5,-32.12 233.33,-38.87"/>
</g>
</g>
</svg>
