<?xml version="1.0" encoding="UTF-8" standalone="no"?>
<!DOCTYPE svg PUBLIC "-//W3C//DTD SVG 1.1//EN"
 "http://www.w3.org/Graphics/SVG/1.1/DTD/svg11.dtd">
<!-- Generated by graphviz version 13.1.2 (20250808.2320)
 -->
<!-- Title: DHARTAPI.Geometry.MeshInfo.MeshInfo Pages: 1 -->
<svg width="717pt" height="176pt"
 viewBox="0.00 0.00 717.00 176.00" xmlns="http://www.w3.org/2000/svg" xmlns:xlink="http://www.w3.org/1999/xlink">
<g id="graph0" class="graph" transform="scale(1 1) rotate(0) translate(4 172)">
<title>DHARTAPI.Geometry.MeshInfo.MeshInfo</title>
<!-- Node1 -->
<g id="node1" class="node">
<title>Node1</title>
<g id="a_node1"><a xlink:title="Create a new meshinfo instance from the given pointer.">
<polygon fill="#999999" stroke="#666666" points="157.75,-100 0,-100 0,-68 157.75,-68 157.75,-100"/>
<text xml:space="preserve" text-anchor="start" x="8" y="-86.5" font-family="Helvetica,sans-Serif" font-size="10.00">DHARTAPI.Geometry.MeshInfo.</text>
<text xml:space="preserve" text-anchor="middle" x="78.88" y="-74.5" font-family="Helvetica,sans-Serif" font-size="10.00">MeshInfo</text>
</a>
</g>
</g>
<!-- Node2 -->
<g id="node2" class="node">
<title>Node2</title>
<g id="a_node2"><a xlink:href="class_d_h_a_r_t_a_p_i_1_1_geometry_1_1_mesh_info.html#a7a2f2c0e893797d7f6dac37d1514f0cb" target="_top" xlink:title="Calculates the amount of pressure this mesh should exert on the GC.">
<polygon fill="white" stroke="#666666" points="351.5,-150 193.75,-150 193.75,-118 351.5,-118 351.5,-150"/>
<text xml:space="preserve" text-anchor="start" x="201.75" y="-136.5" font-family="Helvetica,sans-Serif" font-size="10.00">DHARTAPI.Geometry.MeshInfo.</text>
<text xml:space="preserve" text-anchor="middle" x="272.62" y="-124.5" font-family="Helvetica,sans-Serif" font-size="10.00">CalculatePresure</text>
</a>
</g>
</g>
<!-- Node1&#45;&gt;Node2 -->
<g id="edge1" class="edge">
<title>Node1&#45;&gt;Node2</title>
<path fill="none" stroke="#63b8ff" d="M142.93,-100.44C160.37,-104.99 179.47,-109.97 197.48,-114.67"/>
<polygon fill="#63b8ff" stroke="#63b8ff" points="196.51,-118.03 207.07,-117.17 198.28,-111.26 196.51,-118.03"/>
</g>
<!-- Node3 -->
<g id="node3" class="node">
<title>Node3</title>
<g id="a_node3"><a xlink:href="class_d_h_a_r_t_a_p_i_1_1_geometry_1_1_mesh_info.html#a0409ac3fbfba81d4d488c32defdf3655" target="_top" xlink:title="Updates this mesh&#39;s name, ID, and arrays with it&#39;s values from C++.">
<polygon fill="white" stroke="#666666" points="351.5,-100 193.75,-100 193.75,-68 351.5,-68 351.5,-100"/>
<text xml:space="preserve" text-anchor="start" x="201.75" y="-86.5" font-family="Helvetica,sans-Serif" font-size="10.00">DHARTAPI.Geometry.MeshInfo.</text>
<text xml:space="preserve" text-anchor="middle" x="272.62" y="-74.5" font-family="Helvetica,sans-Serif" font-size="10.00">UpdateIDNameAndArrays</text>
</a>
</g>
</g>
<!-- Node1&#45;&gt;Node3 -->
<g id="edge2" class="edge">
<title>Node1&#45;&gt;Node3</title>
<path fill="none" stroke="#63b8ff" d="M158.14,-84C165.94,-84 173.89,-84 181.79,-84"/>
<polygon fill="#63b8ff" stroke="#63b8ff" points="181.78,-87.5 191.78,-84 181.78,-80.5 181.78,-87.5"/>
</g>
<!-- Node9 -->
<g id="node9" class="node">
<title>Node9</title>
<g id="a_node9"><a xlink:href="class_d_h_a_r_t_a_p_i_1_1_native_utils_1_1_native_object.html#ab63e715d5db528edc64b3aa5233f750c" target="_top" xlink:title="Update the pressure of this object.">
<polygon fill="white" stroke="#666666" points="347.38,-50 197.88,-50 197.88,-18 347.38,-18 347.38,-50"/>
<text xml:space="preserve" text-anchor="start" x="205.88" y="-36.5" font-family="Helvetica,sans-Serif" font-size="10.00">DHARTAPI.NativeUtils.Native</text>
<text xml:space="preserve" text-anchor="middle" x="272.62" y="-24.5" font-family="Helvetica,sans-Serif" font-size="10.00">Object.UpdatePressure</text>
</a>
</g>
</g>
<!-- Node1&#45;&gt;Node9 -->
<g id="edge10" class="edge">
<title>Node1&#45;&gt;Node9</title>
<path fill="none" stroke="#63b8ff" d="M142.93,-67.56C160.37,-63.01 179.47,-58.03 197.48,-53.33"/>
<polygon fill="#63b8ff" stroke="#63b8ff" points="198.28,-56.74 207.07,-50.83 196.51,-49.97 198.28,-56.74"/>
</g>
<!-- Node4 -->
<g id="node4" class="node">
<title>Node4</title>
<g id="a_node4"><a xlink:href="class_d_h_a_r_t_a_p_i_1_1_geometry_1_1_native_methods.html#a8267d494ee36917f65146966a585793a" target="_top" xlink:title="Get pointers to the vertex and index arrays of a mesh in C++.">
<polygon fill="white" stroke="#666666" points="530.25,-168 387.5,-168 387.5,-136 530.25,-136 530.25,-168"/>
<text xml:space="preserve" text-anchor="start" x="395.5" y="-154.5" font-family="Helvetica,sans-Serif" font-size="10.00">DHARTAPI.Geometry.Native</text>
<text xml:space="preserve" text-anchor="middle" x="458.88" y="-142.5" font-family="Helvetica,sans-Serif" font-size="10.00">Methods.C_GetTrisAndVerts</text>
</a>
</g>
</g>
<!-- Node3&#45;&gt;Node4 -->
<g id="edge3" class="edge">
<title>Node3&#45;&gt;Node4</title>
<path fill="none" stroke="#63b8ff" d="M328.47,-100.44C336.27,-103.11 344.14,-106 351.5,-109 368.06,-115.75 371.04,-119.99 387.5,-127 391.07,-128.52 394.76,-130.02 398.51,-131.5"/>
<polygon fill="#63b8ff" stroke="#63b8ff" points="397.11,-134.71 407.7,-135.01 399.61,-128.17 397.11,-134.71"/>
</g>
<!-- Node6 -->
<g id="node6" class="node">
<title>Node6</title>
<g id="a_node6"><a xlink:href="class_d_h_a_r_t_a_p_i_1_1_geometry_1_1_native_methods.html#afa9349278d57b0497f92edb3dff2c152" target="_top" xlink:title="Get the ID of an instance of MeshInfo in c++.">
<polygon fill="white" stroke="#666666" points="530.25,-100 387.5,-100 387.5,-68 530.25,-68 530.25,-100"/>
<text xml:space="preserve" text-anchor="start" x="395.5" y="-86.5" font-family="Helvetica,sans-Serif" font-size="10.00">DHARTAPI.Geometry.Native</text>
<text xml:space="preserve" text-anchor="middle" x="458.88" y="-74.5" font-family="Helvetica,sans-Serif" font-size="10.00">Methods.GetMeshID</text>
</a>
</g>
</g>
<!-- Node3&#45;&gt;Node6 -->
<g id="edge5" class="edge">
<title>Node3&#45;&gt;Node6</title>
<path fill="none" stroke="#63b8ff" d="M351.76,-84C359.76,-84 367.91,-84 375.95,-84"/>
<polygon fill="#63b8ff" stroke="#63b8ff" points="375.7,-87.5 385.7,-84 375.7,-80.5 375.7,-87.5"/>
</g>
<!-- Node7 -->
<g id="node7" class="node">
<title>Node7</title>
<g id="a_node7"><a xlink:href="class_d_h_a_r_t_a_p_i_1_1_geometry_1_1_native_methods.html#a1fe911a338ef131e97f4be6feb506615" target="_top" xlink:title="Get the name of an instance of MeshInfo in c++.">
<polygon fill="white" stroke="#666666" points="530.25,-32 387.5,-32 387.5,0 530.25,0 530.25,-32"/>
<text xml:space="preserve" text-anchor="start" x="395.5" y="-18.5" font-family="Helvetica,sans-Serif" font-size="10.00">DHARTAPI.Geometry.Native</text>
<text xml:space="preserve" text-anchor="middle" x="458.88" y="-6.5" font-family="Helvetica,sans-Serif" font-size="10.00">Methods.GetMeshName</text>
</a>
</g>
</g>
<!-- Node3&#45;&gt;Node7 -->
<g id="edge7" class="edge">
<title>Node3&#45;&gt;Node7</title>
<path fill="none" stroke="#63b8ff" d="M326.58,-67.58C334.96,-64.81 343.49,-61.9 351.5,-59 370.36,-52.17 390.83,-44.06 408.74,-36.74"/>
<polygon fill="#63b8ff" stroke="#63b8ff" points="409.92,-40.04 417.84,-32.99 407.26,-33.57 409.92,-40.04"/>
</g>
<!-- Node5 -->
<g id="node5" class="node">
<title>Node5</title>
<g id="a_node5"><a xlink:href="class_d_h_a_r_t_a_p_i_1_1_geometry_1_1_native_methods.html#abbb9461128f297e7b82417a549a056e9" target="_top" xlink:title=" ">
<polygon fill="white" stroke="#666666" points="709,-168 566.25,-168 566.25,-136 709,-136 709,-168"/>
<text xml:space="preserve" text-anchor="start" x="574.25" y="-154.5" font-family="Helvetica,sans-Serif" font-size="10.00">DHARTAPI.Geometry.Native</text>
<text xml:space="preserve" text-anchor="middle" x="637.62" y="-142.5" font-family="Helvetica,sans-Serif" font-size="10.00">Methods.GetVertsAndTris</text>
</a>
</g>
</g>
<!-- Node4&#45;&gt;Node5 -->
<g id="edge4" class="edge">
<title>Node4&#45;&gt;Node5</title>
<path fill="none" stroke="#63b8ff" d="M530.75,-152C538.65,-152 546.74,-152 554.76,-152"/>
<polygon fill="#63b8ff" stroke="#63b8ff" points="554.51,-155.5 564.51,-152 554.51,-148.5 554.51,-155.5"/>
</g>
<!-- Node6&#45;&gt;Node6 -->
<g id="edge6" class="edge">
<title>Node6&#45;&gt;Node6</title>
<path fill="none" stroke="#63b8ff" d="M426.96,-100.44C421.01,-109.58 431.64,-118 458.88,-118 473.77,-118 483.7,-115.48 488.66,-111.71"/>
<polygon fill="#63b8ff" stroke="#63b8ff" points="492.09,-112.41 490.51,-101.93 485.21,-111.11 492.09,-112.41"/>
</g>
<!-- Node7&#45;&gt;Node7 -->
<g id="edge9" class="edge">
<title>Node7&#45;&gt;Node7</title>
<path fill="none" stroke="#63b8ff" d="M426.96,-32.44C421.01,-41.58 431.64,-50 458.88,-50 473.77,-50 483.7,-47.48 488.66,-43.71"/>
<polygon fill="#63b8ff" stroke="#63b8ff" points="492.09,-44.41 490.51,-33.93 485.21,-43.11 492.09,-44.41"/>
</g>
<!-- Node8 -->
<g id="node8" class="node">
<title>Node8</title>
<g id="a_node8"><a xlink:href="class_d_h_a_r_t_a_p_i_1_1_geometry_1_1_native_methods.html#a2d22148d6821031e97d7305df6e9fde0" target="_top" xlink:title=" ">
<polygon fill="white" stroke="#666666" points="709,-32 566.25,-32 566.25,0 709,0 709,-32"/>
<text xml:space="preserve" text-anchor="start" x="574.25" y="-18.5" font-family="Helvetica,sans-Serif" font-size="10.00">DHARTAPI.Geometry.Native</text>
<text xml:space="preserve" text-anchor="middle" x="637.62" y="-6.5" font-family="Helvetica,sans-Serif" font-size="10.00">Methods.DestroyCharArray</text>
</a>
</g>
</g>
<!-- Node7&#45;&gt;Node8 -->
<g id="edge8" class="edge">
<title>Node7&#45;&gt;Node8</title>
<path fill="none" stroke="#63b8ff" d="M530.75,-16C538.65,-16 546.74,-16 554.76,-16"/>
<polygon fill="#63b8ff" stroke="#63b8ff" points="554.51,-19.5 564.51,-16 554.51,-12.5 554.51,-19.5"/>
</g>
</g>
</svg>
