<?xml version="1.0" encoding="UTF-8" standalone="no"?>
<!DOCTYPE svg PUBLIC "-//W3C//DTD SVG 1.1//EN"
 "http://www.w3.org/Graphics/SVG/1.1/DTD/svg11.dtd">
<!-- Generated by graphviz version 13.1.2 (20250808.2320)
 -->
<!-- Title: DHARTAPI.Pathfinding.ShortestPath.DijkstraShortestPathMulti Pages: 1 -->
<svg width="537pt" height="40pt"
 viewBox="0.00 0.00 537.00 40.00" xmlns="http://www.w3.org/2000/svg" xmlns:xlink="http://www.w3.org/1999/xlink">
<g id="graph0" class="graph" transform="scale(1 1) rotate(0) translate(4 36)">
<title>DHARTAPI.Pathfinding.ShortestPath.DijkstraShortestPathMulti</title>
<!-- Node1 -->
<g id="node1" class="node">
<title>Node1</title>
<g id="a_node1"><a xlink:title="Find the shortest paths between each pair of start_id and end_id in order.">
<polygon fill="#999999" stroke="#666666" points="157.75,-32 0,-32 0,0 157.75,0 157.75,-32"/>
<text xml:space="preserve" text-anchor="start" x="8" y="-18.5" font-family="Helvetica,sans-Serif" font-size="10.00">DHARTAPI.Pathfinding.Shortest</text>
<text xml:space="preserve" text-anchor="middle" x="78.88" y="-6.5" font-family="Helvetica,sans-Serif" font-size="10.00">Path.DijkstraShortestPathMulti</text>
</a>
</g>
</g>
<!-- Node2 -->
<g id="node2" class="node">
<title>Node2</title>
<g id="a_node2"><a xlink:href="class_d_h_a_r_t_a_p_i_1_1_pathfinding_1_1_native_methods.html#addbefb7224e89060b74066ded2e2e756" target="_top" xlink:title="Generate a path from start to end.">
<polygon fill="white" stroke="#666666" points="343.25,-32 193.75,-32 193.75,0 343.25,0 343.25,-32"/>
<text xml:space="preserve" text-anchor="start" x="201.75" y="-18.5" font-family="Helvetica,sans-Serif" font-size="10.00">DHARTAPI.Pathfinding.Native</text>
<text xml:space="preserve" text-anchor="middle" x="268.5" y="-6.5" font-family="Helvetica,sans-Serif" font-size="10.00">Methods.C_CreatePaths</text>
</a>
</g>
</g>
<!-- Node1&#45;&gt;Node2 -->
<g id="edge1" class="edge">
<title>Node1&#45;&gt;Node2</title>
<path fill="none" stroke="#63b8ff" d="M158.09,-16C165.92,-16 173.91,-16 181.82,-16"/>
<polygon fill="#63b8ff" stroke="#63b8ff" points="181.81,-19.5 191.81,-16 181.81,-12.5 181.81,-19.5"/>
</g>
<!-- Node3 -->
<g id="node3" class="node">
<title>Node3</title>
<g id="a_node3"><a xlink:href="class_d_h_a_r_t_a_p_i_1_1_pathfinding_1_1_native_methods.html#ac6e4b01ee8ee69bac411e165a7eded64" target="_top" xlink:title=" ">
<polygon fill="white" stroke="#666666" points="528.75,-32 379.25,-32 379.25,0 528.75,0 528.75,-32"/>
<text xml:space="preserve" text-anchor="start" x="387.25" y="-18.5" font-family="Helvetica,sans-Serif" font-size="10.00">DHARTAPI.Pathfinding.Native</text>
<text xml:space="preserve" text-anchor="middle" x="454" y="-6.5" font-family="Helvetica,sans-Serif" font-size="10.00">Methods.CreatePaths</text>
</a>
</g>
</g>
<!-- Node2&#45;&gt;Node3 -->
<g id="edge2" class="edge">
<title>Node2&#45;&gt;Node3</title>
<path fill="none" stroke="#63b8ff" d="M343.61,-16C351.52,-16 359.61,-16 367.64,-16"/>
<polygon fill="#63b8ff" stroke="#63b8ff" points="367.4,-19.5 377.4,-16 367.4,-12.5 367.4,-19.5"/>
</g>
</g>
</svg>
