<?xml version="1.0" encoding="UTF-8" standalone="no"?>
<!DOCTYPE svg PUBLIC "-//W3C//DTD SVG 1.1//EN"
 "http://www.w3.org/Graphics/SVG/1.1/DTD/svg11.dtd">
<!-- Generated by graphviz version 13.1.2 (20250808.2320)
 -->
<!-- Title: Graphical Class Hierarchy Pages: 1 -->
<svg width="864pt" height="166pt"
 viewBox="0.00 0.00 864.00 166.00" xmlns="http://www.w3.org/2000/svg" xmlns:xlink="http://www.w3.org/1999/xlink">
<g id="graph0" class="graph" transform="scale(1 1) rotate(0) translate(4 162)">
<title>Graphical Class Hierarchy</title>
<!-- Node0 -->
<g id="node1" class="node">
<title>Node0</title>
<g id="a_node1"><a xlink:href="class_safe_handle.html" target="_top" xlink:title=" ">
<polygon fill="white" stroke="#666666" points="67,-92 0,-92 0,-72 67,-72 67,-92"/>
<text xml:space="preserve" text-anchor="middle" x="33.5" y="-78.5" font-family="Helvetica,sans-Serif" font-size="10.00">SafeHandle</text>
</a>
</g>
</g>
<!-- Node1 -->
<g id="node2" class="node">
<title>Node1</title>
<g id="a_node2"><a xlink:href="class_d_h_a_r_t_a_p_i_1_1_native_utils_1_1_native_object.html" target="_top" xlink:title="An object that holds a pointer to unmanaged memory or some other resource that must be freed.">
<polygon fill="white" stroke="#666666" points="252.5,-98 103,-98 103,-66 252.5,-66 252.5,-98"/>
<text xml:space="preserve" text-anchor="start" x="111" y="-84.5" font-family="Helvetica,sans-Serif" font-size="10.00">DHARTAPI.NativeUtils.Native</text>
<text xml:space="preserve" text-anchor="middle" x="177.75" y="-72.5" font-family="Helvetica,sans-Serif" font-size="10.00">Object</text>
</a>
</g>
</g>
<!-- Node0&#45;&gt;Node1 -->
<g id="edge1" class="edge">
<title>Node0&#45;&gt;Node1</title>
<path fill="none" stroke="#63b8ff" d="M78.92,-82C86.47,-82 94.5,-82 102.58,-82"/>
<polygon fill="#63b8ff" stroke="#63b8ff" points="79.01,-78.5 69.01,-82 79.01,-85.5 79.01,-78.5"/>
</g>
<!-- Node2 -->
<g id="node3" class="node">
<title>Node2</title>
<g id="a_node3"><a xlink:href="class_d_h_a_r_t_a_p_i_1_1_geometry_1_1_mesh_info.html" target="_top" xlink:title="A collection of vertices and indices representing geometry.">
<polygon fill="white" stroke="#666666" points="454.5,-158 299.75,-158 299.75,-138 454.5,-138 454.5,-158"/>
<text xml:space="preserve" text-anchor="middle" x="377.12" y="-144.5" font-family="Helvetica,sans-Serif" font-size="10.00">DHARTAPI.Geometry.MeshInfo</text>
</a>
</g>
</g>
<!-- Node1&#45;&gt;Node2 -->
<g id="edge2" class="edge">
<title>Node1&#45;&gt;Node2</title>
<path fill="none" stroke="#63b8ff" d="M222.48,-103.01C242.3,-111.93 266.24,-121.89 288.5,-129 298.58,-132.22 309.49,-135.07 320.08,-137.52"/>
<polygon fill="#63b8ff" stroke="#63b8ff" points="224.15,-99.92 213.6,-98.95 221.24,-106.29 224.15,-99.92"/>
</g>
<!-- Node3 -->
<g id="node4" class="node">
<title>Node3</title>
<g id="a_node4"><a xlink:href="class_d_h_a_r_t_a_p_i_1_1_native_utils_1_1_native_array.html" target="_top" xlink:title="A read&#45;only array stored in unmanaged memory.">
<polygon fill="white" stroke="#666666" points="451.88,-120 302.38,-120 302.38,-88 451.88,-88 451.88,-120"/>
<text xml:space="preserve" text-anchor="start" x="310.38" y="-106.5" font-family="Helvetica,sans-Serif" font-size="10.00">DHARTAPI.NativeUtils.Native</text>
<text xml:space="preserve" text-anchor="middle" x="377.12" y="-94.5" font-family="Helvetica,sans-Serif" font-size="10.00">Array&lt; T &gt;</text>
</a>
</g>
</g>
<!-- Node1&#45;&gt;Node3 -->
<g id="edge3" class="edge">
<title>Node1&#45;&gt;Node3</title>
<path fill="none" stroke="#63b8ff" d="M264.24,-91.53C276.81,-92.93 289.67,-94.36 301.98,-95.74"/>
<polygon fill="#63b8ff" stroke="#63b8ff" points="264.64,-88.05 254.31,-90.42 263.86,-95.01 264.64,-88.05"/>
</g>
<!-- Node6 -->
<g id="node7" class="node">
<title>Node6</title>
<g id="a_node7"><a xlink:href="class_d_h_a_r_t_a_p_i_1_1_ray_tracing_1_1_embree_b_v_h.html" target="_top" xlink:title="A Bounding Volume Hierarchy for the EmbreeRaytracer.">
<polygon fill="white" stroke="#666666" points="465.75,-70 288.5,-70 288.5,-50 465.75,-50 465.75,-70"/>
<text xml:space="preserve" text-anchor="middle" x="377.12" y="-56.5" font-family="Helvetica,sans-Serif" font-size="10.00">DHARTAPI.RayTracing.EmbreeBVH</text>
</a>
</g>
</g>
<!-- Node1&#45;&gt;Node6 -->
<g id="edge6" class="edge">
<title>Node1&#45;&gt;Node6</title>
<path fill="none" stroke="#63b8ff" d="M264.24,-72.47C272.12,-71.59 280.11,-70.7 288.01,-69.82"/>
<polygon fill="#63b8ff" stroke="#63b8ff" points="263.86,-68.99 254.31,-73.58 264.64,-75.95 263.86,-68.99"/>
</g>
<!-- Node7 -->
<g id="node8" class="node">
<title>Node7</title>
<g id="a_node8"><a xlink:href="class_d_h_a_r_t_a_p_i_1_1_spatial_structures_1_1_graph.html" target="_top" xlink:title="A graph representing connections between points in space.">
<polygon fill="white" stroke="#666666" points="450.75,-32 303.5,-32 303.5,0 450.75,0 450.75,-32"/>
<text xml:space="preserve" text-anchor="start" x="311.5" y="-18.5" font-family="Helvetica,sans-Serif" font-size="10.00">DHARTAPI.SpatialStructures.</text>
<text xml:space="preserve" text-anchor="middle" x="377.12" y="-6.5" font-family="Helvetica,sans-Serif" font-size="10.00">Graph</text>
</a>
</g>
</g>
<!-- Node1&#45;&gt;Node7 -->
<g id="edge7" class="edge">
<title>Node1&#45;&gt;Node7</title>
<path fill="none" stroke="#63b8ff" d="M231.06,-61.49C249.14,-54.66 269.61,-47.21 288.5,-41 297.37,-38.08 306.8,-35.18 316.07,-32.45"/>
<polygon fill="#63b8ff" stroke="#63b8ff" points="229.94,-58.17 221.84,-65 232.43,-64.71 229.94,-58.17"/>
</g>
<!-- Node4 -->
<g id="node5" class="node">
<title>Node4</title>
<g id="a_node5"><a xlink:href="class_d_h_a_r_t_a_p_i_1_1_native_utils_1_1_native_array2_d.html" target="_top" xlink:title="A wrapper for a two dimensional array in unmanaged memory.">
<polygon fill="white" stroke="#666666" points="651.25,-120 501.75,-120 501.75,-88 651.25,-88 651.25,-120"/>
<text xml:space="preserve" text-anchor="start" x="509.75" y="-106.5" font-family="Helvetica,sans-Serif" font-size="10.00">DHARTAPI.NativeUtils.Native</text>
<text xml:space="preserve" text-anchor="middle" x="576.5" y="-94.5" font-family="Helvetica,sans-Serif" font-size="10.00">Array2D&lt; T &gt;</text>
</a>
</g>
</g>
<!-- Node3&#45;&gt;Node4 -->
<g id="edge4" class="edge">
<title>Node3&#45;&gt;Node4</title>
<path fill="none" stroke="#63b8ff" d="M463.62,-104C476.18,-104 489.04,-104 501.36,-104"/>
<polygon fill="#63b8ff" stroke="#63b8ff" points="463.7,-100.5 453.7,-104 463.7,-107.5 463.7,-100.5"/>
</g>
<!-- Node5 -->
<g id="node6" class="node">
<title>Node5</title>
<g id="a_node6"><a xlink:href="class_d_h_a_r_t_a_p_i_1_1_native_utils_1_1_dependent_native_array.html" target="_top" xlink:title="A native array 2D that doesn&#39;t require destruction.">
<polygon fill="white" stroke="#666666" points="855.5,-120 687.25,-120 687.25,-88 855.5,-88 855.5,-120"/>
<text xml:space="preserve" text-anchor="start" x="695.25" y="-106.5" font-family="Helvetica,sans-Serif" font-size="10.00">DHARTAPI.NativeUtils.Dependent</text>
<text xml:space="preserve" text-anchor="middle" x="771.38" y="-94.5" font-family="Helvetica,sans-Serif" font-size="10.00">NativeArray&lt; T &gt;</text>
</a>
</g>
</g>
<!-- Node4&#45;&gt;Node5 -->
<g id="edge5" class="edge">
<title>Node4&#45;&gt;Node5</title>
<path fill="none" stroke="#63b8ff" d="M662.76,-104C670.78,-104 678.91,-104 686.91,-104"/>
<polygon fill="#63b8ff" stroke="#63b8ff" points="663.03,-100.5 653.03,-104 663.03,-107.5 663.03,-100.5"/>
</g>
</g>
</svg>
