<?xml version="1.0" encoding="UTF-8" standalone="no"?>
<!DOCTYPE svg PUBLIC "-//W3C//DTD SVG 1.1//EN"
 "http://www.w3.org/Graphics/SVG/1.1/DTD/svg11.dtd">
<!-- Generated by graphviz version 13.1.2 (20250808.2320)
 -->
<!-- Title: DHARTAPI.Pathfinding.PathMember Pages: 1 -->
<svg width="149pt" height="108pt"
 viewBox="0.00 0.00 149.00 108.00" xmlns="http://www.w3.org/2000/svg" xmlns:xlink="http://www.w3.org/1999/xlink">
<g id="graph0" class="graph" transform="scale(1 1) rotate(0) translate(4 104)">
<title>DHARTAPI.Pathfinding.PathMember</title>
<!-- Node1 -->
<g id="node1" class="node">
<title>Node1</title>
<g id="a_node1"><a xlink:title="A ID of a Node in a Path and the cost to it&#39;s next element.">
<polygon fill="#999999" stroke="#666666" points="141.25,-32 0,-32 0,0 141.25,0 141.25,-32"/>
<text xml:space="preserve" text-anchor="start" x="8" y="-18.5" font-family="Helvetica,sans-Serif" font-size="10.00">DHARTAPI.Pathfinding.Path</text>
<text xml:space="preserve" text-anchor="middle" x="70.62" y="-6.5" font-family="Helvetica,sans-Serif" font-size="10.00">Member</text>
</a>
</g>
</g>
<!-- Node2 -->
<g id="node2" class="node">
<title>Node2</title>
<g id="a_node2"><a xlink:title=" ">
<polygon fill="white" stroke="#666666" points="47,-100 12.25,-100 12.25,-80 47,-80 47,-100"/>
<text xml:space="preserve" text-anchor="middle" x="29.62" y="-86.5" font-family="Helvetica,sans-Serif" font-size="10.00">float</text>
</a>
</g>
</g>
<!-- Node2&#45;&gt;Node1 -->
<g id="edge1" class="edge">
<title>Node2&#45;&gt;Node1</title>
<path fill="none" stroke="#9a32cd" stroke-dasharray="5,2" d="M26.81,-68.04C26.83,-61.97 27.71,-55.5 30.38,-50 33.69,-43.17 39.16,-37.27 45.02,-32.42"/>
<polygon fill="#9a32cd" stroke="#9a32cd" points="23.32,-68.29 27.56,-78 30.3,-67.76 23.32,-68.29"/>
<text xml:space="preserve" text-anchor="middle" x="60" y="-52.5" font-family="Helvetica,sans-Serif" font-size="10.00"> cost_to_next</text>
</g>
<!-- Node3 -->
<g id="node3" class="node">
<title>Node3</title>
<g id="a_node3"><a xlink:title=" ">
<polygon fill="white" stroke="#666666" points="126.03,-100 97.22,-100 97.22,-80 126.03,-80 126.03,-100"/>
<text xml:space="preserve" text-anchor="middle" x="111.62" y="-86.5" font-family="Helvetica,sans-Serif" font-size="10.00">int</text>
</a>
</g>
</g>
<!-- Node3&#45;&gt;Node1 -->
<g id="edge2" class="edge">
<title>Node3&#45;&gt;Node1</title>
<path fill="none" stroke="#9a32cd" stroke-dasharray="5,2" d="M100.93,-69.96C97.35,-63.6 93.32,-56.49 89.62,-50 86.35,-44.26 82.74,-37.96 79.55,-32.43"/>
<polygon fill="#9a32cd" stroke="#9a32cd" points="97.71,-71.37 105.66,-78.37 103.81,-67.94 97.71,-71.37"/>
<text xml:space="preserve" text-anchor="middle" x="101.56" y="-52.5" font-family="Helvetica,sans-Serif" font-size="10.00"> id</text>
</g>
</g>
</svg>
