<?xml version="1.0" encoding="UTF-8" standalone="no"?>
<!DOCTYPE svg PUBLIC "-//W3C//DTD SVG 1.1//EN"
 "http://www.w3.org/Graphics/SVG/1.1/DTD/svg11.dtd">
<!-- Generated by graphviz version 13.1.2 (20250808.2320)
 -->
<!-- Title: DHARTAPI.Vector3D.ToArray Pages: 1 -->
<svg width="544pt" height="90pt"
 viewBox="0.00 0.00 544.00 90.00" xmlns="http://www.w3.org/2000/svg" xmlns:xlink="http://www.w3.org/1999/xlink">
<g id="graph0" class="graph" transform="scale(1 1) rotate(0) translate(4 86)">
<title>DHARTAPI.Vector3D.ToArray</title>
<!-- Node1 -->
<g id="node1" class="node">
<title>Node1</title>
<g id="a_node1"><a xlink:title="Convert this vector3D to an array of floats.">
<polygon fill="#999999" stroke="#666666" points="536.25,-51 389.75,-51 389.75,-31 536.25,-31 536.25,-51"/>
<text xml:space="preserve" text-anchor="middle" x="463" y="-37.5" font-family="Helvetica,sans-Serif" font-size="10.00">DHARTAPI.Vector3D.ToArray</text>
</a>
</g>
</g>
<!-- Node2 -->
<g id="node2" class="node">
<title>Node2</title>
<g id="a_node2"><a xlink:href="class_d_h_a_r_t_a_p_i_1_1_spatial_structures_1_1_native_methods.html#ac875c97f0324384b4f285bf49c069b5c" target="_top" xlink:title="Create a new edge between parent and child with cost.">
<polygon fill="white" stroke="#666666" points="345.5,-82 198.25,-82 198.25,-50 345.5,-50 345.5,-82"/>
<text xml:space="preserve" text-anchor="start" x="206.25" y="-68.5" font-family="Helvetica,sans-Serif" font-size="10.00">DHARTAPI.SpatialStructures.</text>
<text xml:space="preserve" text-anchor="middle" x="271.88" y="-56.5" font-family="Helvetica,sans-Serif" font-size="10.00">NativeMethods.C_AddEdge</text>
</a>
</g>
</g>
<!-- Node1&#45;&gt;Node2 -->
<g id="edge1" class="edge">
<title>Node1&#45;&gt;Node2</title>
<path fill="none" stroke="#63b8ff" d="M378.27,-52.07C367.47,-53.5 356.49,-54.95 345.89,-56.35"/>
<polygon fill="#63b8ff" stroke="#63b8ff" points="378.46,-55.57 387.92,-50.79 377.55,-48.63 378.46,-55.57"/>
</g>
<!-- Node3 -->
<g id="node3" class="node">
<title>Node3</title>
<g id="a_node3"><a xlink:href="class_d_h_a_r_t_a_p_i_1_1_graph_generator_1_1_native_methods.html#a010f5a4f0dc009da56978d0faf3e7017" target="_top" xlink:title="Generate a graph using the C++ graph generator.">
<polygon fill="white" stroke="#666666" points="353.75,-32 190,-32 190,0 353.75,0 353.75,-32"/>
<text xml:space="preserve" text-anchor="start" x="198" y="-18.5" font-family="Helvetica,sans-Serif" font-size="10.00">DHARTAPI.GraphGenerator.</text>
<text xml:space="preserve" text-anchor="middle" x="271.88" y="-6.5" font-family="Helvetica,sans-Serif" font-size="10.00">NativeMethods.C_GenerateGraph</text>
</a>
</g>
</g>
<!-- Node1&#45;&gt;Node3 -->
<g id="edge2" class="edge">
<title>Node1&#45;&gt;Node3</title>
<path fill="none" stroke="#63b8ff" d="M378.19,-29.92C370.18,-28.86 362.07,-27.79 354.08,-26.73"/>
<polygon fill="#63b8ff" stroke="#63b8ff" points="377.55,-33.37 387.92,-31.21 378.46,-26.43 377.55,-33.37"/>
</g>
<!-- Node4 -->
<g id="node4" class="node">
<title>Node4</title>
<g id="a_node4"><a xlink:href="class_d_h_a_r_t_a_p_i_1_1_graph_generator_1_1_graph_generator.html#afd70d8304d009c1816a711d6be6bdf29" target="_top" xlink:title="Generate a graph of accessible space with the given settings. If no graph can be generated,...">
<polygon fill="white" stroke="#666666" points="154,-32 0,-32 0,0 154,0 154,-32"/>
<text xml:space="preserve" text-anchor="start" x="8" y="-18.5" font-family="Helvetica,sans-Serif" font-size="10.00">DHARTAPI.GraphGenerator.</text>
<text xml:space="preserve" text-anchor="middle" x="77" y="-6.5" font-family="Helvetica,sans-Serif" font-size="10.00">GraphGenerator.GenerateGraph</text>
</a>
</g>
</g>
<!-- Node3&#45;&gt;Node4 -->
<g id="edge3" class="edge">
<title>Node3&#45;&gt;Node4</title>
<path fill="none" stroke="#63b8ff" d="M178.29,-16C170.23,-16 162.13,-16 154.22,-16"/>
<polygon fill="#63b8ff" stroke="#63b8ff" points="178.12,-19.5 188.12,-16 178.12,-12.5 178.12,-19.5"/>
</g>
</g>
</svg>
