<?xml version="1.0" encoding="UTF-8" standalone="no"?>
<!DOCTYPE svg PUBLIC "-//W3C//DTD SVG 1.1//EN"
 "http://www.w3.org/Graphics/SVG/1.1/DTD/svg11.dtd">
<!-- Generated by graphviz version 13.1.2 (20250808.2320)
 -->
<!-- Title: DHARTAPI.SpatialStructures.CSRInfo Pages: 1 -->
<svg width="158pt" height="132pt"
 viewBox="0.00 0.00 158.00 132.00" xmlns="http://www.w3.org/2000/svg" xmlns:xlink="http://www.w3.org/1999/xlink">
<g id="graph0" class="graph" transform="scale(1 1) rotate(0) translate(4 128)">
<title>DHARTAPI.SpatialStructures.CSRInfo</title>
<!-- Node1 -->
<g id="node1" class="node">
<title>Node1</title>
<g id="a_node1"><a xlink:title="Contains info necessary to reconstruct or access a CSR.">
<polygon fill="#999999" stroke="#666666" points="147.25,-32 0,-32 0,0 147.25,0 147.25,-32"/>
<text xml:space="preserve" text-anchor="start" x="8" y="-18.5" font-family="Helvetica,sans-Serif" font-size="10.00">DHARTAPI.SpatialStructures.</text>
<text xml:space="preserve" text-anchor="middle" x="73.62" y="-6.5" font-family="Helvetica,sans-Serif" font-size="10.00">CSRInfo</text>
</a>
</g>
</g>
<!-- Node2 -->
<g id="node2" class="node">
<title>Node2</title>
<g id="a_node2"><a xlink:title=" ">
<polygon fill="white" stroke="#666666" points="62.02,-124 33.23,-124 33.23,-104 62.02,-104 62.02,-124"/>
<text xml:space="preserve" text-anchor="middle" x="47.62" y="-110.5" font-family="Helvetica,sans-Serif" font-size="10.00">int</text>
</a>
</g>
</g>
<!-- Node2&#45;&gt;Node1 -->
<g id="edge1" class="edge">
<title>Node2&#45;&gt;Node1</title>
<path fill="none" stroke="#9a32cd" stroke-dasharray="5,2" d="M48.83,-92.36C49.99,-79.87 52.24,-63.75 56.62,-50 58.54,-43.98 61.49,-37.74 64.38,-32.32"/>
<polygon fill="#9a32cd" stroke="#9a32cd" points="45.34,-92.07 48.09,-102.31 52.32,-92.59 45.34,-92.07"/>
<text xml:space="preserve" text-anchor="middle" x="67.12" y="-76.5" font-family="Helvetica,sans-Serif" font-size="10.00"> cols</text>
<text xml:space="preserve" text-anchor="middle" x="67.12" y="-64.5" font-family="Helvetica,sans-Serif" font-size="10.00">nnz</text>
<text xml:space="preserve" text-anchor="middle" x="67.12" y="-52.5" font-family="Helvetica,sans-Serif" font-size="10.00">rows</text>
</g>
<!-- Node3 -->
<g id="node3" class="node">
<title>Node3</title>
<g id="a_node3"><a xlink:title=" ">
<polygon fill="white" stroke="#666666" points="119.62,-124 79.62,-124 79.62,-104 119.62,-104 119.62,-124"/>
<text xml:space="preserve" text-anchor="middle" x="99.62" y="-110.5" font-family="Helvetica,sans-Serif" font-size="10.00">IntPtr</text>
</a>
</g>
</g>
<!-- Node3&#45;&gt;Node1 -->
<g id="edge2" class="edge">
<title>Node3&#45;&gt;Node1</title>
<path fill="none" stroke="#9a32cd" stroke-dasharray="5,2" d="M94.15,-92.79C89.26,-74.73 82.2,-48.67 77.77,-32.29"/>
<polygon fill="#9a32cd" stroke="#9a32cd" points="90.74,-93.6 96.74,-102.33 97.5,-91.77 90.74,-93.6"/>
<text xml:space="preserve" text-anchor="middle" x="120.82" y="-76.5" font-family="Helvetica,sans-Serif" font-size="10.00"> data</text>
<text xml:space="preserve" text-anchor="middle" x="120.82" y="-64.5" font-family="Helvetica,sans-Serif" font-size="10.00">inner_indices</text>
<text xml:space="preserve" text-anchor="middle" x="120.82" y="-52.5" font-family="Helvetica,sans-Serif" font-size="10.00">outer_indices</text>
</g>
</g>
</svg>
