<?xml version="1.0" encoding="UTF-8" standalone="no"?>
<!DOCTYPE svg PUBLIC "-//W3C//DTD SVG 1.1//EN"
 "http://www.w3.org/Graphics/SVG/1.1/DTD/svg11.dtd">
<!-- Generated by graphviz version 13.1.2 (20250808.2320)
 -->
<!-- Title: DHARTAPI.RayTracing.RayResult Pages: 1 -->
<svg width="177pt" height="96pt"
 viewBox="0.00 0.00 177.00 96.00" xmlns="http://www.w3.org/2000/svg" xmlns:xlink="http://www.w3.org/1999/xlink">
<g id="graph0" class="graph" transform="scale(1 1) rotate(0) translate(4 92)">
<title>DHARTAPI.RayTracing.RayResult</title>
<!-- Node1 -->
<g id="node1" class="node">
<title>Node1</title>
<g id="a_node1"><a xlink:title="MeshID and Distance for a casted ray.">
<polygon fill="#999999" stroke="#666666" points="169,-20 0,-20 0,0 169,0 169,-20"/>
<text xml:space="preserve" text-anchor="middle" x="84.5" y="-6.5" font-family="Helvetica,sans-Serif" font-size="10.00">DHARTAPI.RayTracing.RayResult</text>
</a>
</g>
</g>
<!-- Node2 -->
<g id="node2" class="node">
<title>Node2</title>
<g id="a_node2"><a xlink:title=" ">
<polygon fill="white" stroke="#666666" points="70.88,-88 36.12,-88 36.12,-68 70.88,-68 70.88,-88"/>
<text xml:space="preserve" text-anchor="middle" x="53.5" y="-74.5" font-family="Helvetica,sans-Serif" font-size="10.00">float</text>
</a>
</g>
</g>
<!-- Node2&#45;&gt;Node1 -->
<g id="edge1" class="edge">
<title>Node2&#45;&gt;Node1</title>
<path fill="none" stroke="#9a32cd" stroke-dasharray="5,2" d="M51.17,-56.1C51.27,-50.03 52.19,-43.55 54.75,-38 58.03,-30.91 64.13,-24.85 69.96,-20.29"/>
<polygon fill="#9a32cd" stroke="#9a32cd" points="47.67,-56.25 51.73,-66.04 54.66,-55.86 47.67,-56.25"/>
<text xml:space="preserve" text-anchor="middle" x="74.62" y="-40.5" font-family="Helvetica,sans-Serif" font-size="10.00"> distance</text>
</g>
<!-- Node3 -->
<g id="node3" class="node">
<title>Node3</title>
<g id="a_node3"><a xlink:title=" ">
<polygon fill="white" stroke="#666666" points="135.38,-88 97.62,-88 97.62,-68 135.38,-68 135.38,-88"/>
<text xml:space="preserve" text-anchor="middle" x="116.5" y="-74.5" font-family="Helvetica,sans-Serif" font-size="10.00">Int32</text>
</a>
</g>
</g>
<!-- Node3&#45;&gt;Node1 -->
<g id="edge2" class="edge">
<title>Node3&#45;&gt;Node1</title>
<path fill="none" stroke="#9a32cd" stroke-dasharray="5,2" d="M107,-57.4C101.08,-45.2 93.73,-30.04 89.08,-20.44"/>
<polygon fill="#9a32cd" stroke="#9a32cd" points="103.74,-58.71 111.25,-66.18 110.04,-55.66 103.74,-58.71"/>
<text xml:space="preserve" text-anchor="middle" x="123.24" y="-40.5" font-family="Helvetica,sans-Serif" font-size="10.00"> mesh_id</text>
</g>
</g>
</svg>
