<?xml version="1.0" encoding="UTF-8" standalone="no"?>
<!DOCTYPE svg PUBLIC "-//W3C//DTD SVG 1.1//EN"
 "http://www.w3.org/Graphics/SVG/1.1/DTD/svg11.dtd">
<!-- Generated by graphviz version 13.1.2 (20250808.2320)
 -->
<!-- Title: Cpp/analysismethods/src/unique_queue.h Pages: 1 -->
<svg width="237pt" height="152pt"
 viewBox="0.00 0.00 237.00 152.00" xmlns="http://www.w3.org/2000/svg" xmlns:xlink="http://www.w3.org/1999/xlink">
<g id="graph0" class="graph" transform="scale(1 1) rotate(0) translate(4 148)">
<title>Cpp/analysismethods/src/unique_queue.h</title>
<!-- Node1 -->
<g id="node1" class="node">
<title>Node1</title>
<g id="a_node1"><a xlink:title="Contains definitions for the UniqueQueue class.">
<polygon fill="#999999" stroke="#666666" points="166,-144 55.5,-144 55.5,-112 166,-112 166,-144"/>
<text xml:space="preserve" text-anchor="start" x="63.5" y="-130.5" font-family="Helvetica,sans-Serif" font-size="10.00">Cpp/analysismethods</text>
<text xml:space="preserve" text-anchor="middle" x="110.75" y="-118.5" font-family="Helvetica,sans-Serif" font-size="10.00">/src/unique_queue.h</text>
</a>
</g>
</g>
<!-- Node2 -->
<g id="node2" class="node">
<title>Node2</title>
<g id="a_node2"><a xlink:title=" ">
<polygon fill="#e0e0e0" stroke="#999999" points="71.5,-76 0,-76 0,-56 71.5,-56 71.5,-76"/>
<text xml:space="preserve" text-anchor="middle" x="35.75" y="-62.5" font-family="Helvetica,sans-Serif" font-size="10.00">robin_hood.h</text>
</a>
</g>
</g>
<!-- Node1&#45;&gt;Node2 -->
<g id="edge1" class="edge">
<title>Node1&#45;&gt;Node2</title>
<path fill="none" stroke="#63b8ff" d="M91.44,-111.55C80.69,-102.95 67.32,-92.26 56.38,-83.5"/>
<polygon fill="#63b8ff" stroke="#63b8ff" points="58.69,-80.87 48.69,-77.35 54.31,-86.33 58.69,-80.87"/>
</g>
<!-- Node3 -->
<g id="node3" class="node">
<title>Node3</title>
<g id="a_node3"><a xlink:title=" ">
<polygon fill="#e0e0e0" stroke="#999999" points="131.88,-76 89.62,-76 89.62,-56 131.88,-56 131.88,-76"/>
<text xml:space="preserve" text-anchor="middle" x="110.75" y="-62.5" font-family="Helvetica,sans-Serif" font-size="10.00">queue</text>
</a>
</g>
</g>
<!-- Node1&#45;&gt;Node3 -->
<g id="edge2" class="edge">
<title>Node1&#45;&gt;Node3</title>
<path fill="none" stroke="#63b8ff" d="M110.75,-111.55C110.75,-104.34 110.75,-95.66 110.75,-87.88"/>
<polygon fill="#63b8ff" stroke="#63b8ff" points="114.25,-87.92 110.75,-77.92 107.25,-87.92 114.25,-87.92"/>
</g>
<!-- Node4 -->
<g id="node4" class="node">
<title>Node4</title>
<g id="a_node4"><a xlink:href="a00275.html" target="_top" xlink:title="Contains definitions for the Node structure.">
<polygon fill="white" stroke="#666666" points="195.38,-76 150.12,-76 150.12,-56 195.38,-56 195.38,-76"/>
<text xml:space="preserve" text-anchor="middle" x="172.75" y="-62.5" font-family="Helvetica,sans-Serif" font-size="10.00">node.h</text>
</a>
</g>
</g>
<!-- Node1&#45;&gt;Node4 -->
<g id="edge3" class="edge">
<title>Node1&#45;&gt;Node4</title>
<path fill="none" stroke="#63b8ff" d="M126.72,-111.55C135.33,-103.22 145.98,-92.91 154.87,-84.3"/>
<polygon fill="#63b8ff" stroke="#63b8ff" points="157.19,-86.93 161.94,-77.46 152.32,-81.9 157.19,-86.93"/>
</g>
<!-- Node5 -->
<g id="node5" class="node">
<title>Node5</title>
<g id="a_node5"><a xlink:title=" ">
<polygon fill="#e0e0e0" stroke="#999999" points="159.62,-20 121.88,-20 121.88,0 159.62,0 159.62,-20"/>
<text xml:space="preserve" text-anchor="middle" x="140.75" y="-6.5" font-family="Helvetica,sans-Serif" font-size="10.00">array</text>
</a>
</g>
</g>
<!-- Node4&#45;&gt;Node5 -->
<g id="edge4" class="edge">
<title>Node4&#45;&gt;Node5</title>
<path fill="none" stroke="#63b8ff" d="M167.18,-55.59C163,-48.55 157.15,-38.67 152.01,-30"/>
<polygon fill="#63b8ff" stroke="#63b8ff" points="155.14,-28.42 147.03,-21.6 149.12,-31.99 155.14,-28.42"/>
</g>
<!-- Node6 -->
<g id="node6" class="node">
<title>Node6</title>
<g id="a_node6"><a xlink:title=" ">
<polygon fill="#e0e0e0" stroke="#999999" points="229.38,-20 178.12,-20 178.12,0 229.38,0 229.38,-20"/>
<text xml:space="preserve" text-anchor="middle" x="203.75" y="-6.5" font-family="Helvetica,sans-Serif" font-size="10.00">ostream</text>
</a>
</g>
</g>
<!-- Node4&#45;&gt;Node6 -->
<g id="edge5" class="edge">
<title>Node4&#45;&gt;Node6</title>
<path fill="none" stroke="#63b8ff" d="M178.15,-55.59C182.19,-48.55 187.87,-38.67 192.84,-30"/>
<polygon fill="#63b8ff" stroke="#63b8ff" points="195.72,-32.03 197.66,-21.61 189.64,-28.54 195.72,-32.03"/>
</g>
</g>
</svg>
