<?xml version="1.0" encoding="UTF-8" standalone="no"?>
<!DOCTYPE svg PUBLIC "-//W3C//DTD SVG 1.1//EN"
 "http://www.w3.org/Graphics/SVG/1.1/DTD/svg11.dtd">
<!-- Generated by graphviz version 13.1.2 (20250808.2320)
 -->
<!-- Title: Cpp/analysismethods/src/view_analysis.h Pages: 1 -->
<svg width="364pt" height="96pt"
 viewBox="0.00 0.00 364.00 96.00" xmlns="http://www.w3.org/2000/svg" xmlns:xlink="http://www.w3.org/1999/xlink">
<g id="graph0" class="graph" transform="scale(1 1) rotate(0) translate(4 92)">
<title>Cpp/analysismethods/src/view_analysis.h</title>
<!-- Node1 -->
<g id="node1" class="node">
<title>Node1</title>
<g id="a_node1"><a xlink:title="Contains definitions for the ViewAnalysis namespace.">
<polygon fill="#999999" stroke="#666666" points="225.75,-88 115.25,-88 115.25,-56 225.75,-56 225.75,-88"/>
<text xml:space="preserve" text-anchor="start" x="123.25" y="-74.5" font-family="Helvetica,sans-Serif" font-size="10.00">Cpp/analysismethods</text>
<text xml:space="preserve" text-anchor="middle" x="170.5" y="-62.5" font-family="Helvetica,sans-Serif" font-size="10.00">/src/view_analysis.h</text>
</a>
</g>
</g>
<!-- Node2 -->
<g id="node2" class="node">
<title>Node2</title>
<g id="a_node2"><a xlink:title=" ">
<polygon fill="#e0e0e0" stroke="#999999" points="43,-20 0,-20 0,0 43,0 43,-20"/>
<text xml:space="preserve" text-anchor="middle" x="21.5" y="-6.5" font-family="Helvetica,sans-Serif" font-size="10.00">vector</text>
</a>
</g>
</g>
<!-- Node1&#45;&gt;Node2 -->
<g id="edge1" class="edge">
<title>Node1&#45;&gt;Node2</title>
<path fill="none" stroke="#63b8ff" d="M132.13,-55.55C107.82,-45.76 76.75,-33.25 53.73,-23.98"/>
<polygon fill="#63b8ff" stroke="#63b8ff" points="55.12,-20.77 44.54,-20.28 52.51,-27.26 55.12,-20.77"/>
</g>
<!-- Node3 -->
<g id="node3" class="node">
<title>Node3</title>
<g id="a_node3"><a xlink:title=" ">
<polygon fill="#e0e0e0" stroke="#999999" points="98.38,-20 60.62,-20 60.62,0 98.38,0 98.38,-20"/>
<text xml:space="preserve" text-anchor="middle" x="79.5" y="-6.5" font-family="Helvetica,sans-Serif" font-size="10.00">array</text>
</a>
</g>
</g>
<!-- Node1&#45;&gt;Node3 -->
<g id="edge2" class="edge">
<title>Node1&#45;&gt;Node3</title>
<path fill="none" stroke="#63b8ff" d="M147.07,-55.55C133.64,-46.69 116.82,-35.61 103.33,-26.71"/>
<polygon fill="#63b8ff" stroke="#63b8ff" points="105.31,-23.82 95.03,-21.24 101.45,-29.67 105.31,-23.82"/>
</g>
<!-- Node4 -->
<g id="node4" class="node">
<title>Node4</title>
<g id="a_node4"><a xlink:title=" ">
<polygon fill="#e0e0e0" stroke="#999999" points="159,-20 116,-20 116,0 159,0 159,-20"/>
<text xml:space="preserve" text-anchor="middle" x="137.5" y="-6.5" font-family="Helvetica,sans-Serif" font-size="10.00">cmath</text>
</a>
</g>
</g>
<!-- Node1&#45;&gt;Node4 -->
<g id="edge3" class="edge">
<title>Node1&#45;&gt;Node4</title>
<path fill="none" stroke="#63b8ff" d="M162,-55.55C157.8,-47.91 152.69,-38.61 148.22,-30.49"/>
<polygon fill="#63b8ff" stroke="#63b8ff" points="151.29,-28.81 143.4,-21.73 145.16,-32.18 151.29,-28.81"/>
</g>
<!-- Node5 -->
<g id="node5" class="node">
<title>Node5</title>
<g id="a_node5"><a xlink:title=" ">
<polygon fill="#e0e0e0" stroke="#999999" points="230.25,-20 176.75,-20 176.75,0 230.25,0 230.25,-20"/>
<text xml:space="preserve" text-anchor="middle" x="203.5" y="-6.5" font-family="Helvetica,sans-Serif" font-size="10.00">iostream</text>
</a>
</g>
</g>
<!-- Node1&#45;&gt;Node5 -->
<g id="edge4" class="edge">
<title>Node1&#45;&gt;Node5</title>
<path fill="none" stroke="#63b8ff" d="M179,-55.55C183.2,-47.91 188.31,-38.61 192.78,-30.49"/>
<polygon fill="#63b8ff" stroke="#63b8ff" points="195.84,-32.18 197.6,-21.73 189.71,-28.81 195.84,-32.18"/>
</g>
<!-- Node6 -->
<g id="node6" class="node">
<title>Node6</title>
<g id="a_node6"><a xlink:title=" ">
<polygon fill="#e0e0e0" stroke="#999999" points="299.12,-20 247.88,-20 247.88,0 299.12,0 299.12,-20"/>
<text xml:space="preserve" text-anchor="middle" x="273.5" y="-6.5" font-family="Helvetica,sans-Serif" font-size="10.00">assert.h</text>
</a>
</g>
</g>
<!-- Node1&#45;&gt;Node6 -->
<g id="edge5" class="edge">
<title>Node1&#45;&gt;Node6</title>
<path fill="none" stroke="#63b8ff" d="M197.03,-55.55C212.52,-46.52 232,-35.17 247.42,-26.19"/>
<polygon fill="#63b8ff" stroke="#63b8ff" points="249.16,-29.23 256.04,-21.17 245.64,-23.18 249.16,-29.23"/>
</g>
<!-- Node7 -->
<g id="node7" class="node">
<title>Node7</title>
<g id="a_node7"><a xlink:title=" ">
<polygon fill="#e0e0e0" stroke="#999999" points="356.12,-20 316.88,-20 316.88,0 356.12,0 356.12,-20"/>
<text xml:space="preserve" text-anchor="middle" x="336.5" y="-6.5" font-family="Helvetica,sans-Serif" font-size="10.00">limits</text>
</a>
</g>
</g>
<!-- Node1&#45;&gt;Node7 -->
<g id="edge6" class="edge">
<title>Node1&#45;&gt;Node7</title>
<path fill="none" stroke="#63b8ff" d="M213.25,-55.55C242.2,-45.08 279.78,-31.5 305.79,-22.1"/>
<polygon fill="#63b8ff" stroke="#63b8ff" points="306.88,-25.43 315.09,-18.74 304.5,-18.85 306.88,-25.43"/>
</g>
</g>
</svg>
