<?xml version="1.0" encoding="UTF-8" standalone="no"?>
<!DOCTYPE svg PUBLIC "-//W3C//DTD SVG 1.1//EN"
 "http://www.w3.org/Graphics/SVG/1.1/DTD/svg11.dtd">
<!-- Generated by graphviz version 13.1.2 (20250808.2320)
 -->
<!-- Title: Cpp/analysismethods/src/unique_queue.h Pages: 1 -->
<svg width="264pt" height="108pt"
 viewBox="0.00 0.00 264.00 108.00" xmlns="http://www.w3.org/2000/svg" xmlns:xlink="http://www.w3.org/1999/xlink">
<g id="graph0" class="graph" transform="scale(1 1) rotate(0) translate(4 104)">
<title>Cpp/analysismethods/src/unique_queue.h</title>
<!-- Node1 -->
<g id="node1" class="node">
<title>Node1</title>
<g id="a_node1"><a xlink:title="Contains definitions for the UniqueQueue class.">
<polygon fill="#999999" stroke="#666666" points="185.25,-100 74.75,-100 74.75,-68 185.25,-68 185.25,-100"/>
<text xml:space="preserve" text-anchor="start" x="82.75" y="-86.5" font-family="Helvetica,sans-Serif" font-size="10.00">Cpp/analysismethods</text>
<text xml:space="preserve" text-anchor="middle" x="130" y="-74.5" font-family="Helvetica,sans-Serif" font-size="10.00">/src/unique_queue.h</text>
</a>
</g>
</g>
<!-- Node2 -->
<g id="node2" class="node">
<title>Node2</title>
<g id="a_node2"><a xlink:href="a00005.html" target="_top" xlink:title="Contains implementation for the functions in the GraphGenerator class.">
<polygon fill="white" stroke="#666666" points="124,-32 0,-32 0,0 124,0 124,-32"/>
<text xml:space="preserve" text-anchor="start" x="8" y="-18.5" font-family="Helvetica,sans-Serif" font-size="10.00">Cpp/analysismethods</text>
<text xml:space="preserve" text-anchor="middle" x="62" y="-6.5" font-family="Helvetica,sans-Serif" font-size="10.00">/src/graph_generator.cpp</text>
</a>
</g>
</g>
<!-- Node1&#45;&gt;Node2 -->
<g id="edge1" class="edge">
<title>Node1&#45;&gt;Node2</title>
<path fill="none" stroke="#63b8ff" d="M106,-59.71C96.6,-50.59 86.08,-40.37 77.69,-32.22"/>
<polygon fill="#63b8ff" stroke="#63b8ff" points="103.53,-62.18 113.14,-66.64 108.4,-57.16 103.53,-62.18"/>
</g>
<!-- Node3 -->
<g id="node3" class="node">
<title>Node3</title>
<g id="a_node3"><a xlink:href="a00014.html" target="_top" xlink:title="Contains implementation for the UniqueQueue class.">
<polygon fill="white" stroke="#666666" points="256.12,-32 141.88,-32 141.88,0 256.12,0 256.12,-32"/>
<text xml:space="preserve" text-anchor="start" x="149.88" y="-18.5" font-family="Helvetica,sans-Serif" font-size="10.00">Cpp/analysismethods</text>
<text xml:space="preserve" text-anchor="middle" x="199" y="-6.5" font-family="Helvetica,sans-Serif" font-size="10.00">/src/unique_queue.cpp</text>
</a>
</g>
</g>
<!-- Node1&#45;&gt;Node3 -->
<g id="edge2" class="edge">
<title>Node1&#45;&gt;Node3</title>
<path fill="none" stroke="#63b8ff" d="M154.06,-59.99C163.67,-50.79 174.48,-40.46 183.08,-32.22"/>
<polygon fill="#63b8ff" stroke="#63b8ff" points="151.9,-57.2 147.1,-66.65 156.74,-62.26 151.9,-57.2"/>
</g>
</g>
</svg>
