<?xml version="1.0" encoding="UTF-8" standalone="no"?>
<!DOCTYPE svg PUBLIC "-//W3C//DTD SVG 1.1//EN"
 "http://www.w3.org/Graphics/SVG/1.1/DTD/svg11.dtd">
<!-- Generated by graphviz version 13.1.2 (20250808.2320)
 -->
<!-- Title: Cpp/analysismethods/src/view_analysis.cpp Pages: 1 -->
<svg width="642pt" height="152pt"
 viewBox="0.00 0.00 642.00 152.00" xmlns="http://www.w3.org/2000/svg" xmlns:xlink="http://www.w3.org/1999/xlink">
<g id="graph0" class="graph" transform="scale(1 1) rotate(0) translate(4 148)">
<title>Cpp/analysismethods/src/view_analysis.cpp</title>
<!-- Node1 -->
<g id="node1" class="node">
<title>Node1</title>
<g id="a_node1"><a xlink:title="Contains implementation for the ViewAnalysis namespace.">
<polygon fill="#999999" stroke="#666666" points="345.38,-144 229.62,-144 229.62,-112 345.38,-112 345.38,-144"/>
<text xml:space="preserve" text-anchor="start" x="237.62" y="-130.5" font-family="Helvetica,sans-Serif" font-size="10.00">Cpp/analysismethods</text>
<text xml:space="preserve" text-anchor="middle" x="287.5" y="-118.5" font-family="Helvetica,sans-Serif" font-size="10.00">/src/view_analysis.cpp</text>
</a>
</g>
</g>
<!-- Node2 -->
<g id="node2" class="node">
<title>Node2</title>
<g id="a_node2"><a xlink:href="a00023.html" target="_top" xlink:title="Contains definitions for the ViewAnalysis namespace.">
<polygon fill="white" stroke="#666666" points="191.38,-76 105.62,-76 105.62,-56 191.38,-56 191.38,-76"/>
<text xml:space="preserve" text-anchor="middle" x="148.5" y="-62.5" font-family="Helvetica,sans-Serif" font-size="10.00">view_analysis.h</text>
</a>
</g>
</g>
<!-- Node1&#45;&gt;Node2 -->
<g id="edge1" class="edge">
<title>Node1&#45;&gt;Node2</title>
<path fill="none" stroke="#63b8ff" d="M251.7,-111.55C229.78,-102.09 201.96,-90.08 180.73,-80.91"/>
<polygon fill="#63b8ff" stroke="#63b8ff" points="182.25,-77.76 171.68,-77.01 179.48,-84.18 182.25,-77.76"/>
</g>
<!-- Node3 -->
<g id="node3" class="node">
<title>Node3</title>
<g id="a_node3"><a xlink:title=" ">
<polygon fill="#e0e0e0" stroke="#999999" points="301,-20 258,-20 258,0 301,0 301,-20"/>
<text xml:space="preserve" text-anchor="middle" x="279.5" y="-6.5" font-family="Helvetica,sans-Serif" font-size="10.00">vector</text>
</a>
</g>
</g>
<!-- Node1&#45;&gt;Node3 -->
<g id="edge8" class="edge">
<title>Node1&#45;&gt;Node3</title>
<path fill="none" stroke="#63b8ff" d="M267.31,-111.92C256.86,-102.82 245.15,-90.24 239.5,-76 232.57,-58.52 245.61,-40.45 258.62,-27.81"/>
<polygon fill="#63b8ff" stroke="#63b8ff" points="260.71,-30.64 265.82,-21.36 256.04,-25.42 260.71,-30.64"/>
</g>
<!-- Node4 -->
<g id="node4" class="node">
<title>Node4</title>
<g id="a_node4"><a xlink:title=" ">
<polygon fill="#e0e0e0" stroke="#999999" points="356.38,-20 318.62,-20 318.62,0 356.38,0 356.38,-20"/>
<text xml:space="preserve" text-anchor="middle" x="337.5" y="-6.5" font-family="Helvetica,sans-Serif" font-size="10.00">array</text>
</a>
</g>
</g>
<!-- Node1&#45;&gt;Node4 -->
<g id="edge9" class="edge">
<title>Node1&#45;&gt;Node4</title>
<path fill="none" stroke="#63b8ff" d="M308.53,-111.54C319.03,-102.49 330.71,-90.08 336.5,-76 342.29,-61.92 342.26,-44.63 340.93,-31.43"/>
<polygon fill="#63b8ff" stroke="#63b8ff" points="344.43,-31.19 339.61,-21.75 337.49,-32.13 344.43,-31.19"/>
</g>
<!-- Node5 -->
<g id="node5" class="node">
<title>Node5</title>
<g id="a_node5"><a xlink:title=" ">
<polygon fill="#e0e0e0" stroke="#999999" points="43,-20 0,-20 0,0 43,0 43,-20"/>
<text xml:space="preserve" text-anchor="middle" x="21.5" y="-6.5" font-family="Helvetica,sans-Serif" font-size="10.00">cmath</text>
</a>
</g>
</g>
<!-- Node1&#45;&gt;Node5 -->
<g id="edge10" class="edge">
<title>Node1&#45;&gt;Node5</title>
<path fill="none" stroke="#63b8ff" d="M229.41,-118.54C190.2,-111.18 138.19,-98.11 96.5,-76 73.56,-63.84 51.63,-43.46 37.48,-28.77"/>
<polygon fill="#63b8ff" stroke="#63b8ff" points="40.15,-26.5 30.77,-21.58 35.03,-31.27 40.15,-26.5"/>
</g>
<!-- Node9 -->
<g id="node9" class="node">
<title>Node9</title>
<g id="a_node9"><a xlink:href="a00212.html" target="_top" xlink:title="Contains definitions for the EmbreeRayTracer">
<polygon fill="white" stroke="#666666" points="483.5,-76 383.5,-76 383.5,-56 483.5,-56 483.5,-76"/>
<text xml:space="preserve" text-anchor="middle" x="433.5" y="-62.5" font-family="Helvetica,sans-Serif" font-size="10.00">embree_raytracer.h</text>
</a>
</g>
</g>
<!-- Node1&#45;&gt;Node9 -->
<g id="edge11" class="edge">
<title>Node1&#45;&gt;Node9</title>
<path fill="none" stroke="#63b8ff" d="M325.1,-111.55C348.33,-102 377.88,-89.86 400.26,-80.66"/>
<polygon fill="#63b8ff" stroke="#63b8ff" points="401.29,-84.02 409.21,-76.98 398.63,-77.55 401.29,-84.02"/>
</g>
<!-- Node13 -->
<g id="node13" class="node">
<title>Node13</title>
<g id="a_node13"><a xlink:href="a00236.html" target="_top" xlink:title="Contains definitions for the RayTracer namespace.">
<polygon fill="white" stroke="#666666" points="327,-76 248,-76 248,-56 327,-56 327,-76"/>
<text xml:space="preserve" text-anchor="middle" x="287.5" y="-62.5" font-family="Helvetica,sans-Serif" font-size="10.00">RayRequest.h</text>
</a>
</g>
</g>
<!-- Node1&#45;&gt;Node13 -->
<g id="edge17" class="edge">
<title>Node1&#45;&gt;Node13</title>
<path fill="none" stroke="#63b8ff" d="M287.5,-111.55C287.5,-104.34 287.5,-95.66 287.5,-87.88"/>
<polygon fill="#63b8ff" stroke="#63b8ff" points="291,-87.92 287.5,-77.92 284,-87.92 291,-87.92"/>
</g>
<!-- Node14 -->
<g id="node14" class="node">
<title>Node14</title>
<g id="a_node14"><a xlink:href="a00275.html" target="_top" xlink:title="Contains definitions for the Node structure.">
<polygon fill="white" stroke="#666666" points="547.12,-76 501.88,-76 501.88,-56 547.12,-56 547.12,-76"/>
<text xml:space="preserve" text-anchor="middle" x="524.5" y="-62.5" font-family="Helvetica,sans-Serif" font-size="10.00">node.h</text>
</a>
</g>
</g>
<!-- Node1&#45;&gt;Node14 -->
<g id="edge20" class="edge">
<title>Node1&#45;&gt;Node14</title>
<path fill="none" stroke="#63b8ff" d="M345.5,-113.07C384.05,-103.69 436.05,-90.83 490.53,-76.47"/>
<polygon fill="#63b8ff" stroke="#63b8ff" points="491.22,-79.9 499.99,-73.96 489.42,-73.14 491.22,-79.9"/>
</g>
<!-- Node2&#45;&gt;Node3 -->
<g id="edge2" class="edge">
<title>Node2&#45;&gt;Node3</title>
<path fill="none" stroke="#63b8ff" d="M171.32,-55.59C192.33,-46.93 223.72,-33.99 247.28,-24.28"/>
<polygon fill="#63b8ff" stroke="#63b8ff" points="248.5,-27.56 256.41,-20.52 245.83,-21.09 248.5,-27.56"/>
</g>
<!-- Node2&#45;&gt;Node4 -->
<g id="edge3" class="edge">
<title>Node2&#45;&gt;Node4</title>
<path fill="none" stroke="#63b8ff" d="M184.68,-55.51C215.24,-47.38 260.38,-35.07 307.36,-20.87"/>
<polygon fill="#63b8ff" stroke="#63b8ff" points="308.37,-24.22 316.92,-17.95 306.33,-17.52 308.37,-24.22"/>
</g>
<!-- Node2&#45;&gt;Node5 -->
<g id="edge4" class="edge">
<title>Node2&#45;&gt;Node5</title>
<path fill="none" stroke="#63b8ff" d="M126.38,-55.59C106.35,-47.08 76.58,-34.42 53.88,-24.77"/>
<polygon fill="#63b8ff" stroke="#63b8ff" points="55.33,-21.58 44.76,-20.89 52.59,-28.02 55.33,-21.58"/>
</g>
<!-- Node6 -->
<g id="node6" class="node">
<title>Node6</title>
<g id="a_node6"><a xlink:title=" ">
<polygon fill="#e0e0e0" stroke="#999999" points="114.25,-20 60.75,-20 60.75,0 114.25,0 114.25,-20"/>
<text xml:space="preserve" text-anchor="middle" x="87.5" y="-6.5" font-family="Helvetica,sans-Serif" font-size="10.00">iostream</text>
</a>
</g>
</g>
<!-- Node2&#45;&gt;Node6 -->
<g id="edge5" class="edge">
<title>Node2&#45;&gt;Node6</title>
<path fill="none" stroke="#63b8ff" d="M137.87,-55.59C129.22,-47.93 116.77,-36.91 106.42,-27.75"/>
<polygon fill="#63b8ff" stroke="#63b8ff" points="108.94,-25.31 99.14,-21.3 104.3,-30.55 108.94,-25.31"/>
</g>
<!-- Node7 -->
<g id="node7" class="node">
<title>Node7</title>
<g id="a_node7"><a xlink:title=" ">
<polygon fill="#e0e0e0" stroke="#999999" points="183.12,-20 131.88,-20 131.88,0 183.12,0 183.12,-20"/>
<text xml:space="preserve" text-anchor="middle" x="157.5" y="-6.5" font-family="Helvetica,sans-Serif" font-size="10.00">assert.h</text>
</a>
</g>
</g>
<!-- Node2&#45;&gt;Node7 -->
<g id="edge6" class="edge">
<title>Node2&#45;&gt;Node7</title>
<path fill="none" stroke="#63b8ff" d="M150.07,-55.59C151.18,-48.93 152.71,-39.75 154.09,-31.44"/>
<polygon fill="#63b8ff" stroke="#63b8ff" points="157.51,-32.23 155.7,-21.79 150.61,-31.08 157.51,-32.23"/>
</g>
<!-- Node8 -->
<g id="node8" class="node">
<title>Node8</title>
<g id="a_node8"><a xlink:title=" ">
<polygon fill="#e0e0e0" stroke="#999999" points="240.12,-20 200.88,-20 200.88,0 240.12,0 240.12,-20"/>
<text xml:space="preserve" text-anchor="middle" x="220.5" y="-6.5" font-family="Helvetica,sans-Serif" font-size="10.00">limits</text>
</a>
</g>
</g>
<!-- Node2&#45;&gt;Node8 -->
<g id="edge7" class="edge">
<title>Node2&#45;&gt;Node8</title>
<path fill="none" stroke="#63b8ff" d="M161.04,-55.59C171.47,-47.77 186.55,-36.46 198.91,-27.19"/>
<polygon fill="#63b8ff" stroke="#63b8ff" points="200.99,-30.01 206.89,-21.21 196.79,-24.41 200.99,-30.01"/>
</g>
<!-- Node9&#45;&gt;Node3 -->
<g id="edge13" class="edge">
<title>Node9&#45;&gt;Node3</title>
<path fill="none" stroke="#63b8ff" d="M406.68,-55.59C380.2,-46.31 339.71,-32.11 311.55,-22.24"/>
<polygon fill="#63b8ff" stroke="#63b8ff" points="313.08,-19.07 302.48,-19.06 310.76,-25.67 313.08,-19.07"/>
</g>
<!-- Node9&#45;&gt;Node4 -->
<g id="edge14" class="edge">
<title>Node9&#45;&gt;Node4</title>
<path fill="none" stroke="#63b8ff" d="M416.78,-55.59C402.28,-47.44 381.03,-35.48 364.18,-26"/>
<polygon fill="#63b8ff" stroke="#63b8ff" points="366.1,-23.07 355.67,-21.22 362.67,-29.17 366.1,-23.07"/>
</g>
<!-- Node10 -->
<g id="node10" class="node">
<title>Node10</title>
<g id="a_node10"><a xlink:title=" ">
<polygon fill="#e0e0e0" stroke="#999999" points="423,-20 374,-20 374,0 423,0 423,-20"/>
<text xml:space="preserve" text-anchor="middle" x="398.5" y="-6.5" font-family="Helvetica,sans-Serif" font-size="10.00">rtcore.h</text>
</a>
</g>
</g>
<!-- Node9&#45;&gt;Node10 -->
<g id="edge12" class="edge">
<title>Node9&#45;&gt;Node10</title>
<path fill="none" stroke="#63b8ff" d="M427.4,-55.59C422.79,-48.47 416.29,-38.45 410.63,-29.72"/>
<polygon fill="#63b8ff" stroke="#63b8ff" points="413.73,-28.06 405.35,-21.57 407.85,-31.86 413.73,-28.06"/>
</g>
<!-- Node11 -->
<g id="node11" class="node">
<title>Node11</title>
<g id="a_node11"><a xlink:href="a00218.html" target="_top" xlink:title=" ">
<polygon fill="white" stroke="#666666" points="504.12,-20 440.88,-20 440.88,0 504.12,0 504.12,-20"/>
<text xml:space="preserve" text-anchor="middle" x="472.5" y="-6.5" font-family="Helvetica,sans-Serif" font-size="10.00">HitStruct.h</text>
</a>
</g>
</g>
<!-- Node9&#45;&gt;Node11 -->
<g id="edge15" class="edge">
<title>Node9&#45;&gt;Node11</title>
<path fill="none" stroke="#63b8ff" d="M440.29,-55.59C445.49,-48.39 452.83,-38.23 459.19,-29.43"/>
<polygon fill="#63b8ff" stroke="#63b8ff" points="461.88,-31.68 464.9,-21.53 456.21,-27.58 461.88,-31.68"/>
</g>
<!-- Node12 -->
<g id="node12" class="node">
<title>Node12</title>
<g id="a_node12"><a xlink:title=" ">
<polygon fill="#e0e0e0" stroke="#999999" points="565,-20 522,-20 522,0 565,0 565,-20"/>
<text xml:space="preserve" text-anchor="middle" x="543.5" y="-6.5" font-family="Helvetica,sans-Serif" font-size="10.00">omp.h</text>
</a>
</g>
</g>
<!-- Node9&#45;&gt;Node12 -->
<g id="edge16" class="edge">
<title>Node9&#45;&gt;Node12</title>
<path fill="none" stroke="#63b8ff" d="M452.66,-55.59C469.59,-47.28 494.55,-35.03 514.02,-25.47"/>
<polygon fill="#63b8ff" stroke="#63b8ff" points="515.4,-28.7 522.83,-21.15 512.31,-22.41 515.4,-28.7"/>
</g>
<!-- Node13&#45;&gt;Node3 -->
<g id="edge18" class="edge">
<title>Node13&#45;&gt;Node3</title>
<path fill="none" stroke="#63b8ff" d="M286.11,-55.59C285.12,-48.93 283.76,-39.75 282.53,-31.44"/>
<polygon fill="#63b8ff" stroke="#63b8ff" points="286.03,-31.17 281.1,-21.8 279.1,-32.2 286.03,-31.17"/>
</g>
<!-- Node13&#45;&gt;Node4 -->
<g id="edge19" class="edge">
<title>Node13&#45;&gt;Node4</title>
<path fill="none" stroke="#63b8ff" d="M296.21,-55.59C303.09,-48.16 312.89,-37.58 321.22,-28.58"/>
<polygon fill="#63b8ff" stroke="#63b8ff" points="323.64,-31.12 327.86,-21.41 318.5,-26.37 323.64,-31.12"/>
</g>
<!-- Node14&#45;&gt;Node4 -->
<g id="edge21" class="edge">
<title>Node14&#45;&gt;Node4</title>
<path fill="none" stroke="#63b8ff" d="M501.49,-58.54C465.77,-48.5 398.48,-29.56 367.57,-20.5"/>
<polygon fill="#63b8ff" stroke="#63b8ff" points="368.79,-17.21 358.2,-17.72 366.79,-23.92 368.79,-17.21"/>
</g>
<!-- Node15 -->
<g id="node15" class="node">
<title>Node15</title>
<g id="a_node15"><a xlink:title=" ">
<polygon fill="#e0e0e0" stroke="#999999" points="634.12,-20 582.88,-20 582.88,0 634.12,0 634.12,-20"/>
<text xml:space="preserve" text-anchor="middle" x="608.5" y="-6.5" font-family="Helvetica,sans-Serif" font-size="10.00">ostream</text>
</a>
</g>
</g>
<!-- Node14&#45;&gt;Node15 -->
<g id="edge22" class="edge">
<title>Node14&#45;&gt;Node15</title>
<path fill="none" stroke="#63b8ff" d="M539.13,-55.59C551.58,-47.59 569.72,-35.93 584.32,-26.54"/>
<polygon fill="#63b8ff" stroke="#63b8ff" points="585.96,-29.65 592.48,-21.3 582.18,-23.76 585.96,-29.65"/>
</g>
</g>
</svg>
