<?xml version="1.0" encoding="UTF-8" standalone="no"?>
<!DOCTYPE svg PUBLIC "-//W3C//DTD SVG 1.1//EN"
 "http://www.w3.org/Graphics/SVG/1.1/DTD/svg11.dtd">
<!-- Generated by graphviz version 13.1.2 (20250808.2320)
 -->
<!-- Title: Cpp/analysismethods/src/graph_utils.cpp Pages: 1 -->
<svg width="1458pt" height="320pt"
 viewBox="0.00 0.00 1458.00 320.00" xmlns="http://www.w3.org/2000/svg" xmlns:xlink="http://www.w3.org/1999/xlink">
<g id="graph0" class="graph" transform="scale(1 1) rotate(0) translate(4 316)">
<title>Cpp/analysismethods/src/graph_utils.cpp</title>
<!-- Node1 -->
<g id="node1" class="node">
<title>Node1</title>
<g id="a_node1"><a xlink:title=" ">
<polygon fill="#999999" stroke="#666666" points="681.66,-312 571.16,-312 571.16,-280 681.66,-280 681.66,-312"/>
<text xml:space="preserve" text-anchor="start" x="579.16" y="-298.5" font-family="Helvetica,sans-Serif" font-size="10.00">Cpp/analysismethods</text>
<text xml:space="preserve" text-anchor="middle" x="626.41" y="-286.5" font-family="Helvetica,sans-Serif" font-size="10.00">/src/graph_utils.cpp</text>
</a>
</g>
</g>
<!-- Node2 -->
<g id="node2" class="node">
<title>Node2</title>
<g id="a_node2"><a xlink:href="a00008.html" target="_top" xlink:title="Contains declarations for all functions related to the graph generator.">
<polygon fill="white" stroke="#666666" points="436.41,-244 342.41,-244 342.41,-224 436.41,-224 436.41,-244"/>
<text xml:space="preserve" text-anchor="middle" x="389.41" y="-230.5" font-family="Helvetica,sans-Serif" font-size="10.00">graph_generator.h</text>
</a>
</g>
</g>
<!-- Node1&#45;&gt;Node2 -->
<g id="edge1" class="edge">
<title>Node1&#45;&gt;Node2</title>
<path fill="none" stroke="#63b8ff" d="M570.85,-280.93C530.5,-270.72 476.44,-257.03 437.85,-247.26"/>
<polygon fill="#63b8ff" stroke="#63b8ff" points="438.93,-243.92 428.37,-244.86 437.21,-250.71 438.93,-243.92"/>
</g>
<!-- Node11 -->
<g id="node11" class="node">
<title>Node11</title>
<g id="a_node11"><a xlink:href="a00263.html" target="_top" xlink:title="Contains definitions for the Edge structure.">
<polygon fill="white" stroke="#666666" points="122.04,-132 76.79,-132 76.79,-112 122.04,-112 122.04,-132"/>
<text xml:space="preserve" text-anchor="middle" x="99.41" y="-118.5" font-family="Helvetica,sans-Serif" font-size="10.00">edge.h</text>
</a>
</g>
</g>
<!-- Node1&#45;&gt;Node11 -->
<g id="edge31" class="edge">
<title>Node1&#45;&gt;Node11</title>
<path fill="none" stroke="#63b8ff" d="M570.69,-288.69C457.81,-274.97 207.12,-239.48 139.41,-188 124.27,-176.48 113.53,-157.43 107.02,-142.92"/>
<polygon fill="#63b8ff" stroke="#63b8ff" points="110.34,-141.79 103.28,-133.89 103.87,-144.47 110.34,-141.79"/>
</g>
<!-- Node14 -->
<g id="node14" class="node">
<title>Node14</title>
<g id="a_node14"><a xlink:href="a00251.html" target="_top" xlink:title="Contains definitions for the HF::SpatialStructures namespace.">
<polygon fill="white" stroke="#666666" points="78.91,-76 11.91,-76 11.91,-56 78.91,-56 78.91,-76"/>
<text xml:space="preserve" text-anchor="middle" x="45.41" y="-62.5" font-family="Helvetica,sans-Serif" font-size="10.00">constants.h</text>
</a>
</g>
</g>
<!-- Node1&#45;&gt;Node14 -->
<g id="edge30" class="edge">
<title>Node1&#45;&gt;Node14</title>
<path fill="none" stroke="#63b8ff" d="M570.84,-294.5C491.31,-292.35 341.29,-282.92 220.41,-244 137.79,-217.4 102.83,-207.73 60.41,-132 52.78,-118.37 49.03,-101.06 47.18,-87.73"/>
<polygon fill="#63b8ff" stroke="#63b8ff" points="50.68,-87.48 46.1,-77.92 43.72,-88.24 50.68,-87.48"/>
</g>
<!-- Node16 -->
<g id="node16" class="node">
<title>Node16</title>
<g id="a_node16"><a xlink:title=" ">
<polygon fill="#e0e0e0" stroke="#999999" points="626.54,-76 578.29,-76 578.29,-56 626.54,-56 626.54,-76"/>
<text xml:space="preserve" text-anchor="middle" x="602.41" y="-62.5" font-family="Helvetica,sans-Serif" font-size="10.00">cassert</text>
</a>
</g>
</g>
<!-- Node1&#45;&gt;Node16 -->
<g id="edge55" class="edge">
<title>Node1&#45;&gt;Node16</title>
<path fill="none" stroke="#63b8ff" d="M624.8,-279.69C620.6,-239.8 609.33,-132.67 604.57,-87.51"/>
<polygon fill="#63b8ff" stroke="#63b8ff" points="608.08,-87.39 603.55,-77.81 601.12,-88.12 608.08,-87.39"/>
</g>
<!-- Node19 -->
<g id="node19" class="node">
<title>Node19</title>
<g id="a_node19"><a xlink:href="a00218.html" target="_top" xlink:title=" ">
<polygon fill="white" stroke="#666666" points="718.04,-132 654.79,-132 654.79,-112 718.04,-112 718.04,-132"/>
<text xml:space="preserve" text-anchor="middle" x="686.41" y="-118.5" font-family="Helvetica,sans-Serif" font-size="10.00">HitStruct.h</text>
</a>
</g>
</g>
<!-- Node1&#45;&gt;Node19 -->
<g id="edge29" class="edge">
<title>Node1&#45;&gt;Node19</title>
<path fill="none" stroke="#63b8ff" d="M631.74,-279.74C642.62,-248.55 667.38,-177.56 679.49,-142.85"/>
<polygon fill="#63b8ff" stroke="#63b8ff" points="682.71,-144.23 682.7,-133.64 676.1,-141.93 682.71,-144.23"/>
</g>
<!-- Node21 -->
<g id="node21" class="node">
<title>Node21</title>
<g id="a_node21"><a xlink:href="a00212.html" target="_top" xlink:title="Contains definitions for the EmbreeRayTracer">
<polygon fill="white" stroke="#666666" points="1128.41,-188 1028.41,-188 1028.41,-168 1128.41,-168 1128.41,-188"/>
<text xml:space="preserve" text-anchor="middle" x="1078.41" y="-174.5" font-family="Helvetica,sans-Serif" font-size="10.00">embree_raytracer.h</text>
</a>
</g>
</g>
<!-- Node1&#45;&gt;Node21 -->
<g id="edge32" class="edge">
<title>Node1&#45;&gt;Node21</title>
<path fill="none" stroke="#63b8ff" d="M681.84,-280.78C771.31,-257.81 946.07,-212.97 1030.49,-191.3"/>
<polygon fill="#63b8ff" stroke="#63b8ff" points="1031.26,-194.71 1040.08,-188.84 1029.52,-187.93 1031.26,-194.71"/>
</g>
<!-- Node24 -->
<g id="node24" class="node">
<title>Node24</title>
<g id="a_node24"><a xlink:href="a00239.html" target="_top" xlink:title=" ">
<polygon fill="white" stroke="#666666" points="777.29,-188 715.54,-188 715.54,-168 777.29,-168 777.29,-188"/>
<text xml:space="preserve" text-anchor="middle" x="746.41" y="-174.5" font-family="Helvetica,sans-Serif" font-size="10.00">ray_data.h</text>
</a>
</g>
</g>
<!-- Node1&#45;&gt;Node24 -->
<g id="edge38" class="edge">
<title>Node1&#45;&gt;Node24</title>
<path fill="none" stroke="#63b8ff" d="M647.3,-279.53C659.94,-269.83 676.12,-256.78 689.41,-244 704.91,-229.1 720.91,-210.53 732,-197.05"/>
<polygon fill="#63b8ff" stroke="#63b8ff" points="734.59,-199.41 738.17,-189.44 729.15,-195 734.59,-199.41"/>
</g>
<!-- Node3 -->
<g id="node3" class="node">
<title>Node3</title>
<g id="a_node3"><a xlink:title=" ">
<polygon fill="#e0e0e0" stroke="#999999" points="66.91,-20 23.91,-20 23.91,0 66.91,0 66.91,-20"/>
<text xml:space="preserve" text-anchor="middle" x="45.41" y="-6.5" font-family="Helvetica,sans-Serif" font-size="10.00">cmath</text>
</a>
</g>
</g>
<!-- Node2&#45;&gt;Node3 -->
<g id="edge2" class="edge">
<title>Node2&#45;&gt;Node3</title>
<path fill="none" stroke="#63b8ff" d="M342.13,-229.79C270.27,-224.23 137.57,-211.15 96.41,-188 39.78,-156.13 24.64,-137.07 2.41,-76 -0.63,-67.65 -0.89,-64.25 2.41,-56 6.79,-45.1 15.2,-35.34 23.43,-27.72"/>
<polygon fill="#63b8ff" stroke="#63b8ff" points="25.6,-30.47 30.94,-21.33 21.06,-25.15 25.6,-30.47"/>
</g>
<!-- Node4 -->
<g id="node4" class="node">
<title>Node4</title>
<g id="a_node4"><a xlink:title=" ">
<polygon fill="#e0e0e0" stroke="#999999" points="560.16,-188 530.66,-188 530.66,-168 560.16,-168 560.16,-188"/>
<text xml:space="preserve" text-anchor="middle" x="545.41" y="-174.5" font-family="Helvetica,sans-Serif" font-size="10.00">set</text>
</a>
</g>
</g>
<!-- Node2&#45;&gt;Node4 -->
<g id="edge3" class="edge">
<title>Node2&#45;&gt;Node4</title>
<path fill="none" stroke="#63b8ff" d="M418.61,-223.56C443.43,-215.43 480.24,-203.17 519.72,-188.88"/>
<polygon fill="#63b8ff" stroke="#63b8ff" points="520.74,-192.24 528.94,-185.53 518.34,-185.66 520.74,-192.24"/>
</g>
<!-- Node5 -->
<g id="node5" class="node">
<title>Node5</title>
<g id="a_node5"><a xlink:title=" ">
<polygon fill="#e0e0e0" stroke="#999999" points="470.91,-76 427.91,-76 427.91,-56 470.91,-56 470.91,-76"/>
<text xml:space="preserve" text-anchor="middle" x="449.41" y="-62.5" font-family="Helvetica,sans-Serif" font-size="10.00">vector</text>
</a>
</g>
</g>
<!-- Node2&#45;&gt;Node5 -->
<g id="edge4" class="edge">
<title>Node2&#45;&gt;Node5</title>
<path fill="none" stroke="#63b8ff" d="M391.98,-223.86C395.78,-211 403.52,-186.99 413.41,-168 422.42,-150.72 431.06,-150.04 438.41,-132 444.25,-117.71 446.99,-100.43 448.27,-87.28"/>
<polygon fill="#63b8ff" stroke="#63b8ff" points="451.73,-87.92 449,-77.68 444.75,-87.39 451.73,-87.92"/>
</g>
<!-- Node6 -->
<g id="node6" class="node">
<title>Node6</title>
<g id="a_node6"><a xlink:title=" ">
<polygon fill="#e0e0e0" stroke="#999999" points="569.29,-20 531.54,-20 531.54,0 569.29,0 569.29,-20"/>
<text xml:space="preserve" text-anchor="middle" x="550.41" y="-6.5" font-family="Helvetica,sans-Serif" font-size="10.00">array</text>
</a>
</g>
</g>
<!-- Node2&#45;&gt;Node6 -->
<g id="edge5" class="edge">
<title>Node2&#45;&gt;Node6</title>
<path fill="none" stroke="#63b8ff" d="M436.59,-227.75C484.28,-221.35 553.21,-208.76 569.41,-188 588.12,-164.05 566.87,-72.44 556.02,-31.26"/>
<polygon fill="#63b8ff" stroke="#63b8ff" points="559.42,-30.43 553.43,-21.69 552.66,-32.26 559.42,-30.43"/>
</g>
<!-- Node7 -->
<g id="node7" class="node">
<title>Node7</title>
<g id="a_node7"><a xlink:href="a00275.html" target="_top" xlink:title="Contains definitions for the Node structure.">
<polygon fill="white" stroke="#666666" points="163.04,-76 117.79,-76 117.79,-56 163.04,-56 163.04,-76"/>
<text xml:space="preserve" text-anchor="middle" x="140.41" y="-62.5" font-family="Helvetica,sans-Serif" font-size="10.00">node.h</text>
</a>
</g>
</g>
<!-- Node2&#45;&gt;Node7 -->
<g id="edge6" class="edge">
<title>Node2&#45;&gt;Node7</title>
<path fill="none" stroke="#63b8ff" d="M342.29,-231.22C290.51,-227.77 205.87,-217.64 139.41,-188 102.39,-171.49 85.23,-168.42 67.41,-132 56.31,-109.29 82.84,-91 106.97,-79.68"/>
<polygon fill="#63b8ff" stroke="#63b8ff" points="108.25,-82.94 116.01,-75.72 105.45,-76.53 108.25,-82.94"/>
</g>
<!-- Node9 -->
<g id="node9" class="node">
<title>Node9</title>
<g id="a_node9"><a xlink:href="a00269.html" target="_top" xlink:title="Contains definitions for the Graph &#160;class.">
<polygon fill="white" stroke="#666666" points="361.54,-188 313.29,-188 313.29,-168 361.54,-168 361.54,-188"/>
<text xml:space="preserve" text-anchor="middle" x="337.41" y="-174.5" font-family="Helvetica,sans-Serif" font-size="10.00">graph.h</text>
</a>
</g>
</g>
<!-- Node2&#45;&gt;Node9 -->
<g id="edge9" class="edge">
<title>Node2&#45;&gt;Node9</title>
<path fill="none" stroke="#63b8ff" d="M380.36,-223.59C373.2,-216.16 363.01,-205.58 354.35,-196.58"/>
<polygon fill="#63b8ff" stroke="#63b8ff" points="356.88,-194.16 347.42,-189.39 351.83,-199.02 356.88,-194.16"/>
</g>
<!-- Node2&#45;&gt;Node16 -->
<g id="edge23" class="edge">
<title>Node2&#45;&gt;Node16</title>
<path fill="none" stroke="#63b8ff" d="M396.1,-223.89C406.1,-210.62 425.97,-185.67 446.41,-168 487.6,-132.4 542.27,-99.85 574.75,-81.8"/>
<polygon fill="#63b8ff" stroke="#63b8ff" points="576.07,-85.07 583.15,-77.19 572.7,-78.93 576.07,-85.07"/>
</g>
<!-- Node17 -->
<g id="node17" class="node">
<title>Node17</title>
<g id="a_node17"><a xlink:title=" ">
<polygon fill="#e0e0e0" stroke="#999999" points="194.04,-188 148.79,-188 148.79,-168 194.04,-168 194.04,-188"/>
<text xml:space="preserve" text-anchor="middle" x="171.41" y="-174.5" font-family="Helvetica,sans-Serif" font-size="10.00">variant</text>
</a>
</g>
</g>
<!-- Node2&#45;&gt;Node17 -->
<g id="edge24" class="edge">
<title>Node2&#45;&gt;Node17</title>
<path fill="none" stroke="#63b8ff" d="M348.3,-223.51C312.9,-215.24 260.18,-202.68 205.43,-188.46"/>
<polygon fill="#63b8ff" stroke="#63b8ff" points="206.48,-185.11 195.92,-185.97 204.71,-191.89 206.48,-185.11"/>
</g>
<!-- Node18 -->
<g id="node18" class="node">
<title>Node18</title>
<g id="a_node18"><a xlink:href="a00224.html" target="_top" xlink:title=" ">
<polygon fill="white" stroke="#666666" points="513.04,-188 455.79,-188 455.79,-168 513.04,-168 513.04,-188"/>
<text xml:space="preserve" text-anchor="middle" x="484.41" y="-174.5" font-family="Helvetica,sans-Serif" font-size="10.00">MultiRT.h</text>
</a>
</g>
</g>
<!-- Node2&#45;&gt;Node18 -->
<g id="edge25" class="edge">
<title>Node2&#45;&gt;Node18</title>
<path fill="none" stroke="#63b8ff" d="M405.96,-223.59C420.31,-215.44 441.34,-203.48 458.02,-194"/>
<polygon fill="#63b8ff" stroke="#63b8ff" points="459.46,-197.21 466.42,-189.23 456,-191.13 459.46,-197.21"/>
</g>
<!-- Node20 -->
<g id="node20" class="node">
<title>Node20</title>
<g id="a_node20"><a xlink:title=" ">
<polygon fill="#e0e0e0" stroke="#999999" points="294.79,-188 212.04,-188 212.04,-168 294.79,-168 294.79,-188"/>
<text xml:space="preserve" text-anchor="middle" x="253.41" y="-174.5" font-family="Helvetica,sans-Serif" font-size="10.00">unordered_map</text>
</a>
</g>
</g>
<!-- Node2&#45;&gt;Node20 -->
<g id="edge28" class="edge">
<title>Node2&#45;&gt;Node20</title>
<path fill="none" stroke="#63b8ff" d="M365.72,-223.59C344.21,-215.05 312.21,-202.35 287.87,-192.68"/>
<polygon fill="#63b8ff" stroke="#63b8ff" points="289.28,-189.48 278.7,-189.04 286.7,-195.98 289.28,-189.48"/>
</g>
<!-- Node7&#45;&gt;Node6 -->
<g id="edge7" class="edge">
<title>Node7&#45;&gt;Node6</title>
<path fill="none" stroke="#63b8ff" d="M163.37,-61.58C175.05,-59.86 189.48,-57.77 202.41,-56 319.58,-39.92 459.16,-22.35 519.79,-14.8"/>
<polygon fill="#63b8ff" stroke="#63b8ff" points="520.17,-18.28 529.66,-13.57 519.3,-11.33 520.17,-18.28"/>
</g>
<!-- Node8 -->
<g id="node8" class="node">
<title>Node8</title>
<g id="a_node8"><a xlink:title=" ">
<polygon fill="#e0e0e0" stroke="#999999" points="166.04,-20 114.79,-20 114.79,0 166.04,0 166.04,-20"/>
<text xml:space="preserve" text-anchor="middle" x="140.41" y="-6.5" font-family="Helvetica,sans-Serif" font-size="10.00">ostream</text>
</a>
</g>
</g>
<!-- Node7&#45;&gt;Node8 -->
<g id="edge8" class="edge">
<title>Node7&#45;&gt;Node8</title>
<path fill="none" stroke="#63b8ff" d="M140.41,-55.59C140.41,-49.01 140.41,-39.96 140.41,-31.73"/>
<polygon fill="#63b8ff" stroke="#63b8ff" points="143.91,-31.81 140.41,-21.81 136.91,-31.81 143.91,-31.81"/>
</g>
<!-- Node9&#45;&gt;Node5 -->
<g id="edge11" class="edge">
<title>Node9&#45;&gt;Node5</title>
<path fill="none" stroke="#63b8ff" d="M361.99,-167.79C379.27,-160.31 401.97,-148.32 417.41,-132 429.45,-119.28 437.86,-101.17 443.03,-87.3"/>
<polygon fill="#63b8ff" stroke="#63b8ff" points="446.33,-88.46 446.25,-77.87 439.7,-86.2 446.33,-88.46"/>
</g>
<!-- Node9&#45;&gt;Node7 -->
<g id="edge15" class="edge">
<title>Node9&#45;&gt;Node7</title>
<path fill="none" stroke="#63b8ff" d="M312.8,-170.52C278.73,-161.29 219.26,-144.12 200.41,-132 181.31,-119.72 164.26,-99.94 153.26,-85.42"/>
<polygon fill="#63b8ff" stroke="#63b8ff" points="156.27,-83.61 147.55,-77.59 150.61,-87.73 156.27,-83.61"/>
</g>
<!-- Node10 -->
<g id="node10" class="node">
<title>Node10</title>
<g id="a_node10"><a xlink:title=" ">
<polygon fill="#e0e0e0" stroke="#999999" points="408.16,-132 336.66,-132 336.66,-112 408.16,-112 408.16,-132"/>
<text xml:space="preserve" text-anchor="middle" x="372.41" y="-118.5" font-family="Helvetica,sans-Serif" font-size="10.00">robin_hood.h</text>
</a>
</g>
</g>
<!-- Node9&#45;&gt;Node10 -->
<g id="edge10" class="edge">
<title>Node9&#45;&gt;Node10</title>
<path fill="none" stroke="#63b8ff" d="M343.51,-167.59C348.13,-160.47 354.62,-150.45 360.28,-141.72"/>
<polygon fill="#63b8ff" stroke="#63b8ff" points="363.06,-143.86 365.56,-133.57 357.19,-140.06 363.06,-143.86"/>
</g>
<!-- Node9&#45;&gt;Node11 -->
<g id="edge12" class="edge">
<title>Node9&#45;&gt;Node11</title>
<path fill="none" stroke="#63b8ff" d="M312.93,-170.37C309.74,-169.55 306.5,-168.74 303.41,-168 229.58,-150.28 210.42,-148.97 136.41,-132 135.43,-131.77 134.43,-131.54 133.42,-131.31"/>
<polygon fill="#63b8ff" stroke="#63b8ff" points="134.5,-127.97 123.96,-129.06 132.88,-134.78 134.5,-127.97"/>
</g>
<!-- Node12 -->
<g id="node12" class="node">
<title>Node12</title>
<g id="a_node12"><a xlink:href="a00281.html" target="_top" xlink:title="Contains definitions for the Path structure.">
<polygon fill="white" stroke="#666666" points="259.91,-132 216.91,-132 216.91,-112 259.91,-112 259.91,-132"/>
<text xml:space="preserve" text-anchor="middle" x="238.41" y="-118.5" font-family="Helvetica,sans-Serif" font-size="10.00">path.h</text>
</a>
</g>
</g>
<!-- Node9&#45;&gt;Node12 -->
<g id="edge16" class="edge">
<title>Node9&#45;&gt;Node12</title>
<path fill="none" stroke="#63b8ff" d="M320.17,-167.59C305.07,-159.36 282.89,-147.26 265.43,-137.74"/>
<polygon fill="#63b8ff" stroke="#63b8ff" points="267.58,-134.92 257.12,-133.2 264.22,-141.07 267.58,-134.92"/>
</g>
<!-- Node13 -->
<g id="node13" class="node">
<title>Node13</title>
<g id="a_node13"><a xlink:title=" ">
<polygon fill="#e0e0e0" stroke="#999999" points="265.16,-76 211.66,-76 211.66,-56 265.16,-56 265.16,-76"/>
<text xml:space="preserve" text-anchor="middle" x="238.41" y="-62.5" font-family="Helvetica,sans-Serif" font-size="10.00">iostream</text>
</a>
</g>
</g>
<!-- Node9&#45;&gt;Node13 -->
<g id="edge22" class="edge">
<title>Node9&#45;&gt;Node13</title>
<path fill="none" stroke="#63b8ff" d="M312.88,-170.1C277.23,-159.83 214.66,-140.8 208.41,-132 198.01,-117.35 208.93,-98.5 220.41,-84.88"/>
<polygon fill="#63b8ff" stroke="#63b8ff" points="222.98,-87.25 227.17,-77.52 217.83,-82.52 222.98,-87.25"/>
</g>
<!-- Node15 -->
<g id="node15" class="node">
<title>Node15</title>
<g id="a_node15"><a xlink:title=" ">
<polygon fill="#e0e0e0" stroke="#999999" points="318.79,-132 278.04,-132 278.04,-112 318.79,-112 318.79,-132"/>
<text xml:space="preserve" text-anchor="middle" x="298.41" y="-118.5" font-family="Helvetica,sans-Serif" font-size="10.00">Eigen</text>
</a>
</g>
</g>
<!-- Node9&#45;&gt;Node15 -->
<g id="edge21" class="edge">
<title>Node9&#45;&gt;Node15</title>
<path fill="none" stroke="#63b8ff" d="M330.62,-167.59C325.42,-160.39 318.08,-150.23 311.73,-141.43"/>
<polygon fill="#63b8ff" stroke="#63b8ff" points="314.71,-139.58 306.02,-133.53 309.03,-143.68 314.71,-139.58"/>
</g>
<!-- Node11&#45;&gt;Node5 -->
<g id="edge14" class="edge">
<title>Node11&#45;&gt;Node5</title>
<path fill="none" stroke="#63b8ff" d="M122.38,-117.46C182.76,-108.14 346.15,-82.93 416.48,-72.08"/>
<polygon fill="#63b8ff" stroke="#63b8ff" points="416.87,-75.56 426.22,-70.58 415.81,-68.64 416.87,-75.56"/>
</g>
<!-- Node11&#45;&gt;Node7 -->
<g id="edge13" class="edge">
<title>Node11&#45;&gt;Node7</title>
<path fill="none" stroke="#63b8ff" d="M106.56,-111.59C112.02,-104.39 119.74,-94.23 126.42,-85.43"/>
<polygon fill="#63b8ff" stroke="#63b8ff" points="129.18,-87.58 132.44,-77.5 123.6,-83.35 129.18,-87.58"/>
</g>
<!-- Node12&#45;&gt;Node5 -->
<g id="edge17" class="edge">
<title>Node12&#45;&gt;Node5</title>
<path fill="none" stroke="#63b8ff" d="M260.4,-114.51C263.42,-113.65 266.49,-112.79 269.41,-112 320.63,-98.17 380.43,-83.51 416.59,-74.81"/>
<polygon fill="#63b8ff" stroke="#63b8ff" points="417.08,-78.3 425.98,-72.56 415.44,-71.49 417.08,-78.3"/>
</g>
<!-- Node12&#45;&gt;Node13 -->
<g id="edge18" class="edge">
<title>Node12&#45;&gt;Node13</title>
<path fill="none" stroke="#63b8ff" d="M238.41,-111.59C238.41,-105.01 238.41,-95.96 238.41,-87.73"/>
<polygon fill="#63b8ff" stroke="#63b8ff" points="241.91,-87.81 238.41,-77.81 234.91,-87.81 241.91,-87.81"/>
</g>
<!-- Node12&#45;&gt;Node14 -->
<g id="edge19" class="edge">
<title>Node12&#45;&gt;Node14</title>
<path fill="none" stroke="#63b8ff" d="M216.65,-114.91C186.08,-106.36 129.72,-90.59 90.03,-79.48"/>
<polygon fill="#63b8ff" stroke="#63b8ff" points="91.09,-76.14 80.51,-76.82 89.2,-82.89 91.09,-76.14"/>
</g>
<!-- Node14&#45;&gt;Node3 -->
<g id="edge20" class="edge">
<title>Node14&#45;&gt;Node3</title>
<path fill="none" stroke="#63b8ff" d="M45.41,-55.59C45.41,-49.01 45.41,-39.96 45.41,-31.73"/>
<polygon fill="#63b8ff" stroke="#63b8ff" points="48.91,-31.81 45.41,-21.81 41.91,-31.81 48.91,-31.81"/>
</g>
<!-- Node18&#45;&gt;Node6 -->
<g id="edge26" class="edge">
<title>Node18&#45;&gt;Node6</title>
<path fill="none" stroke="#63b8ff" d="M488.15,-167.6C498.59,-141.35 528.21,-66.84 542.51,-30.89"/>
<polygon fill="#63b8ff" stroke="#63b8ff" points="545.72,-32.29 546.16,-21.7 539.21,-29.7 545.72,-32.29"/>
</g>
<!-- Node18&#45;&gt;Node19 -->
<g id="edge27" class="edge">
<title>Node18&#45;&gt;Node19</title>
<path fill="none" stroke="#63b8ff" d="M513.36,-169.26C547.41,-160.16 604.28,-144.96 643.47,-134.48"/>
<polygon fill="#63b8ff" stroke="#63b8ff" points="644.31,-137.88 653.06,-131.92 642.5,-131.12 644.31,-137.88"/>
</g>
<!-- Node21&#45;&gt;Node5 -->
<g id="edge34" class="edge">
<title>Node21&#45;&gt;Node5</title>
<path fill="none" stroke="#63b8ff" d="M1027.95,-167.78C979.92,-158.93 905.65,-145 841.41,-132 799.98,-123.61 790,-119.59 748.41,-112 652.19,-94.43 537.64,-78.6 482.42,-71.28"/>
<polygon fill="#63b8ff" stroke="#63b8ff" points="483.12,-67.84 472.75,-70.01 482.21,-74.78 483.12,-67.84"/>
</g>
<!-- Node21&#45;&gt;Node6 -->
<g id="edge35" class="edge">
<title>Node21&#45;&gt;Node6</title>
<path fill="none" stroke="#63b8ff" d="M1128.91,-167.97C1208.09,-151.79 1347.04,-114.04 1292.41,-56 1267.62,-29.66 716.99,-14.94 580.71,-11.69"/>
<polygon fill="#63b8ff" stroke="#63b8ff" points="581.12,-8.2 571.04,-11.46 580.96,-15.2 581.12,-8.2"/>
</g>
<!-- Node21&#45;&gt;Node19 -->
<g id="edge36" class="edge">
<title>Node21&#45;&gt;Node19</title>
<path fill="none" stroke="#63b8ff" d="M1027.97,-170.05C950.24,-159.34 802.55,-139 729.51,-128.94"/>
<polygon fill="#63b8ff" stroke="#63b8ff" points="730.34,-125.52 719.96,-127.62 729.39,-132.45 730.34,-125.52"/>
</g>
<!-- Node22 -->
<g id="node22" class="node">
<title>Node22</title>
<g id="a_node22"><a xlink:title=" ">
<polygon fill="#e0e0e0" stroke="#999999" points="1449.91,-132 1400.91,-132 1400.91,-112 1449.91,-112 1449.91,-132"/>
<text xml:space="preserve" text-anchor="middle" x="1425.41" y="-118.5" font-family="Helvetica,sans-Serif" font-size="10.00">rtcore.h</text>
</a>
</g>
</g>
<!-- Node21&#45;&gt;Node22 -->
<g id="edge33" class="edge">
<title>Node21&#45;&gt;Node22</title>
<path fill="none" stroke="#63b8ff" d="M1128.78,-171.73C1188.77,-165.02 1292.17,-152.11 1389.41,-132.42"/>
<polygon fill="#63b8ff" stroke="#63b8ff" points="1390.06,-135.86 1399.15,-130.42 1388.64,-129.01 1390.06,-135.86"/>
</g>
<!-- Node23 -->
<g id="node23" class="node">
<title>Node23</title>
<g id="a_node23"><a xlink:title=" ">
<polygon fill="#e0e0e0" stroke="#999999" points="1382.91,-132 1339.91,-132 1339.91,-112 1382.91,-112 1382.91,-132"/>
<text xml:space="preserve" text-anchor="middle" x="1361.41" y="-118.5" font-family="Helvetica,sans-Serif" font-size="10.00">omp.h</text>
</a>
</g>
</g>
<!-- Node21&#45;&gt;Node23 -->
<g id="edge37" class="edge">
<title>Node21&#45;&gt;Node23</title>
<path fill="none" stroke="#63b8ff" d="M1128.75,-168.81C1178.79,-160.44 1257.67,-146.62 1325.41,-132 1326.58,-131.75 1327.76,-131.49 1328.96,-131.22"/>
<polygon fill="#63b8ff" stroke="#63b8ff" points="1329.37,-134.72 1338.29,-129 1327.75,-127.91 1329.37,-134.72"/>
</g>
<!-- Node24&#45;&gt;Node6 -->
<g id="edge54" class="edge">
<title>Node24&#45;&gt;Node6</title>
<path fill="none" stroke="#63b8ff" d="M749.64,-167.8C753.73,-154.42 759.03,-129.33 748.41,-112 729.4,-80.95 630.81,-40.79 580.31,-21.83"/>
<polygon fill="#63b8ff" stroke="#63b8ff" points="581.74,-18.62 571.15,-18.43 579.31,-25.19 581.74,-18.62"/>
</g>
<!-- Node24&#45;&gt;Node13 -->
<g id="edge53" class="edge">
<title>Node24&#45;&gt;Node13</title>
<path fill="none" stroke="#63b8ff" d="M746.71,-167.73C746.62,-153.32 744.11,-125.75 727.41,-112 710.07,-97.72 389.67,-76.44 277.11,-69.38"/>
<polygon fill="#63b8ff" stroke="#63b8ff" points="277.37,-65.88 267.17,-68.76 276.93,-72.87 277.37,-65.88"/>
</g>
<!-- Node24&#45;&gt;Node19 -->
<g id="edge52" class="edge">
<title>Node24&#45;&gt;Node19</title>
<path fill="none" stroke="#63b8ff" d="M735.96,-167.59C727.45,-159.93 715.2,-148.91 705.02,-139.75"/>
<polygon fill="#63b8ff" stroke="#63b8ff" points="707.65,-137.4 697.87,-133.31 702.96,-142.6 707.65,-137.4"/>
</g>
<!-- Node25 -->
<g id="node25" class="node">
<title>Node25</title>
<g id="a_node25"><a xlink:href="a00227.html" target="_top" xlink:title=" ">
<polygon fill="white" stroke="#666666" points="902.04,-132 850.79,-132 850.79,-112 902.04,-112 902.04,-132"/>
<text xml:space="preserve" text-anchor="middle" x="876.41" y="-118.5" font-family="Helvetica,sans-Serif" font-size="10.00">nanort.h</text>
</a>
</g>
</g>
<!-- Node24&#45;&gt;Node25 -->
<g id="edge39" class="edge">
<title>Node24&#45;&gt;Node25</title>
<path fill="none" stroke="#63b8ff" d="M769.06,-167.59C789.53,-159.09 819.93,-146.46 843.16,-136.81"/>
<polygon fill="#63b8ff" stroke="#63b8ff" points="844.3,-140.13 852.2,-133.06 841.62,-133.66 844.3,-140.13"/>
</g>
<!-- Node25&#45;&gt;Node3 -->
<g id="edge42" class="edge">
<title>Node25&#45;&gt;Node3</title>
<path fill="none" stroke="#63b8ff" d="M850.4,-113.91C789.2,-97.25 640.84,-56.91 635.41,-56 402.55,-17.07 340.13,-45.53 105.41,-20 96.7,-19.05 87.32,-17.77 78.62,-16.47"/>
<polygon fill="#63b8ff" stroke="#63b8ff" points="79.22,-13.02 68.8,-14.95 78.14,-19.94 79.22,-13.02"/>
</g>
<!-- Node25&#45;&gt;Node5 -->
<g id="edge51" class="edge">
<title>Node25&#45;&gt;Node5</title>
<path fill="none" stroke="#63b8ff" d="M850.67,-114.79C845.95,-113.77 841.05,-112.79 836.41,-112 706.2,-89.84 549.46,-75.31 482.43,-69.65"/>
<polygon fill="#63b8ff" stroke="#63b8ff" points="483.11,-66.2 472.86,-68.86 482.53,-73.18 483.11,-66.2"/>
</g>
<!-- Node25&#45;&gt;Node16 -->
<g id="edge41" class="edge">
<title>Node25&#45;&gt;Node16</title>
<path fill="none" stroke="#63b8ff" d="M850.62,-115.07C845.9,-114.02 841.01,-112.96 836.41,-112 766.19,-97.35 683.74,-81.9 637.84,-73.46"/>
<polygon fill="#63b8ff" stroke="#63b8ff" points="638.67,-70.05 628.21,-71.69 637.41,-76.94 638.67,-70.05"/>
</g>
<!-- Node26 -->
<g id="node26" class="node">
<title>Node26</title>
<g id="a_node26"><a xlink:title=" ">
<polygon fill="#e0e0e0" stroke="#999999" points="894.29,-76 838.54,-76 838.54,-56 894.29,-56 894.29,-76"/>
<text xml:space="preserve" text-anchor="middle" x="866.41" y="-62.5" font-family="Helvetica,sans-Serif" font-size="10.00">algorithm</text>
</a>
</g>
</g>
<!-- Node25&#45;&gt;Node26 -->
<g id="edge40" class="edge">
<title>Node25&#45;&gt;Node26</title>
<path fill="none" stroke="#63b8ff" d="M874.67,-111.59C873.44,-104.93 871.74,-95.75 870.2,-87.44"/>
<polygon fill="#63b8ff" stroke="#63b8ff" points="873.67,-86.98 868.41,-77.79 866.79,-88.26 873.67,-86.98"/>
</g>
<!-- Node27 -->
<g id="node27" class="node">
<title>Node27</title>
<g id="a_node27"><a xlink:title=" ">
<polygon fill="#e0e0e0" stroke="#999999" points="954.54,-76 912.29,-76 912.29,-56 954.54,-56 954.54,-76"/>
<text xml:space="preserve" text-anchor="middle" x="933.41" y="-62.5" font-family="Helvetica,sans-Serif" font-size="10.00">cstdio</text>
</a>
</g>
</g>
<!-- Node25&#45;&gt;Node27 -->
<g id="edge43" class="edge">
<title>Node25&#45;&gt;Node27</title>
<path fill="none" stroke="#63b8ff" d="M886.34,-111.59C894.35,-104.01 905.83,-93.13 915.44,-84.02"/>
<polygon fill="#63b8ff" stroke="#63b8ff" points="917.65,-86.76 922.5,-77.34 912.83,-81.68 917.65,-86.76"/>
</g>
<!-- Node28 -->
<g id="node28" class="node">
<title>Node28</title>
<g id="a_node28"><a xlink:title=" ">
<polygon fill="#e0e0e0" stroke="#999999" points="1016.66,-76 972.16,-76 972.16,-56 1016.66,-56 1016.66,-76"/>
<text xml:space="preserve" text-anchor="middle" x="994.41" y="-62.5" font-family="Helvetica,sans-Serif" font-size="10.00">cstdlib</text>
</a>
</g>
</g>
<!-- Node25&#45;&gt;Node28 -->
<g id="edge44" class="edge">
<title>Node25&#45;&gt;Node28</title>
<path fill="none" stroke="#63b8ff" d="M896.97,-111.59C915.3,-103.21 942.4,-90.8 963.37,-81.21"/>
<polygon fill="#63b8ff" stroke="#63b8ff" points="964.69,-84.45 972.32,-77.11 961.77,-78.09 964.69,-84.45"/>
</g>
<!-- Node29 -->
<g id="node29" class="node">
<title>Node29</title>
<g id="a_node29"><a xlink:title=" ">
<polygon fill="#e0e0e0" stroke="#999999" points="1080.04,-76 1034.79,-76 1034.79,-56 1080.04,-56 1080.04,-76"/>
<text xml:space="preserve" text-anchor="middle" x="1057.41" y="-62.5" font-family="Helvetica,sans-Serif" font-size="10.00">cstring</text>
</a>
</g>
</g>
<!-- Node25&#45;&gt;Node29 -->
<g id="edge45" class="edge">
<title>Node25&#45;&gt;Node29</title>
<path fill="none" stroke="#63b8ff" d="M902.35,-113.26C934.28,-103.74 988.58,-87.54 1023.72,-77.05"/>
<polygon fill="#63b8ff" stroke="#63b8ff" points="1024.36,-80.51 1032.95,-74.3 1022.36,-73.81 1024.36,-80.51"/>
</g>
<!-- Node30 -->
<g id="node30" class="node">
<title>Node30</title>
<g id="a_node30"><a xlink:title=" ">
<polygon fill="#e0e0e0" stroke="#999999" points="1156.41,-76 1098.41,-76 1098.41,-56 1156.41,-56 1156.41,-76"/>
<text xml:space="preserve" text-anchor="middle" x="1127.41" y="-62.5" font-family="Helvetica,sans-Serif" font-size="10.00">functional</text>
</a>
</g>
</g>
<!-- Node25&#45;&gt;Node30 -->
<g id="edge46" class="edge">
<title>Node25&#45;&gt;Node30</title>
<path fill="none" stroke="#63b8ff" d="M902.36,-115.73C940.55,-107.93 1014.43,-92.67 1086.84,-76.54"/>
<polygon fill="#63b8ff" stroke="#63b8ff" points="1087.5,-79.98 1096.5,-74.38 1085.97,-73.14 1087.5,-79.98"/>
</g>
<!-- Node31 -->
<g id="node31" class="node">
<title>Node31</title>
<g id="a_node31"><a xlink:title=" ">
<polygon fill="#e0e0e0" stroke="#999999" points="1214.04,-76 1174.79,-76 1174.79,-56 1214.04,-56 1214.04,-76"/>
<text xml:space="preserve" text-anchor="middle" x="1194.41" y="-62.5" font-family="Helvetica,sans-Serif" font-size="10.00">limits</text>
</a>
</g>
</g>
<!-- Node25&#45;&gt;Node31 -->
<g id="edge47" class="edge">
<title>Node25&#45;&gt;Node31</title>
<path fill="none" stroke="#63b8ff" d="M902.17,-118.27C951.18,-112.81 1061.34,-99.24 1163.43,-76.15"/>
<polygon fill="#63b8ff" stroke="#63b8ff" points="1164.12,-79.58 1173.08,-73.92 1162.55,-72.76 1164.12,-79.58"/>
</g>
<!-- Node32 -->
<g id="node32" class="node">
<title>Node32</title>
<g id="a_node32"><a xlink:title=" ">
<polygon fill="#e0e0e0" stroke="#999999" points="1283.04,-76 1231.79,-76 1231.79,-56 1283.04,-56 1283.04,-76"/>
<text xml:space="preserve" text-anchor="middle" x="1257.41" y="-62.5" font-family="Helvetica,sans-Serif" font-size="10.00">memory</text>
</a>
</g>
</g>
<!-- Node25&#45;&gt;Node32 -->
<g id="edge48" class="edge">
<title>Node25&#45;&gt;Node32</title>
<path fill="none" stroke="#63b8ff" d="M902.28,-118.8C958.49,-113.79 1096.11,-100.18 1220.3,-76.41"/>
<polygon fill="#63b8ff" stroke="#63b8ff" points="1220.87,-79.86 1230.02,-74.52 1219.54,-72.99 1220.87,-79.86"/>
</g>
<!-- Node33 -->
<g id="node33" class="node">
<title>Node33</title>
<g id="a_node33"><a xlink:title=" ">
<polygon fill="#e0e0e0" stroke="#999999" points="762.54,-76 720.29,-76 720.29,-56 762.54,-56 762.54,-76"/>
<text xml:space="preserve" text-anchor="middle" x="741.41" y="-62.5" font-family="Helvetica,sans-Serif" font-size="10.00">queue</text>
</a>
</g>
</g>
<!-- Node25&#45;&gt;Node33 -->
<g id="edge49" class="edge">
<title>Node25&#45;&gt;Node33</title>
<path fill="none" stroke="#63b8ff" d="M852.9,-111.59C830.89,-102.79 797.82,-89.56 773.41,-79.8"/>
<polygon fill="#63b8ff" stroke="#63b8ff" points="774.87,-76.61 764.29,-76.15 772.27,-83.11 774.87,-76.61"/>
</g>
<!-- Node34 -->
<g id="node34" class="node">
<title>Node34</title>
<g id="a_node34"><a xlink:title=" ">
<polygon fill="#e0e0e0" stroke="#999999" points="820.41,-76 780.41,-76 780.41,-56 820.41,-56 820.41,-76"/>
<text xml:space="preserve" text-anchor="middle" x="800.41" y="-62.5" font-family="Helvetica,sans-Serif" font-size="10.00">string</text>
</a>
</g>
</g>
<!-- Node25&#45;&gt;Node34 -->
<g id="edge50" class="edge">
<title>Node25&#45;&gt;Node34</title>
<path fill="none" stroke="#63b8ff" d="M863.18,-111.59C852.13,-103.74 836.13,-92.38 823.06,-83.09"/>
<polygon fill="#63b8ff" stroke="#63b8ff" points="825.17,-80.3 814.99,-77.36 821.11,-86 825.17,-80.3"/>
</g>
</g>
</svg>
