<?xml version="1.0" encoding="UTF-8" standalone="no"?>
<!DOCTYPE svg PUBLIC "-//W3C//DTD SVG 1.1//EN"
 "http://www.w3.org/Graphics/SVG/1.1/DTD/svg11.dtd">
<!-- Generated by graphviz version 13.1.2 (20250808.2320)
 -->
<!-- Title: Cpp/analysismethods/src/unique_queue.cpp Pages: 1 -->
<svg width="237pt" height="208pt"
 viewBox="0.00 0.00 237.00 208.00" xmlns="http://www.w3.org/2000/svg" xmlns:xlink="http://www.w3.org/1999/xlink">
<g id="graph0" class="graph" transform="scale(1 1) rotate(0) translate(4 204)">
<title>Cpp/analysismethods/src/unique_queue.cpp</title>
<!-- Node1 -->
<g id="node1" class="node">
<title>Node1</title>
<g id="a_node1"><a xlink:title="Contains implementation for the UniqueQueue class.">
<polygon fill="#999999" stroke="#666666" points="167.88,-200 53.62,-200 53.62,-168 167.88,-168 167.88,-200"/>
<text xml:space="preserve" text-anchor="start" x="61.62" y="-186.5" font-family="Helvetica,sans-Serif" font-size="10.00">Cpp/analysismethods</text>
<text xml:space="preserve" text-anchor="middle" x="110.75" y="-174.5" font-family="Helvetica,sans-Serif" font-size="10.00">/src/unique_queue.cpp</text>
</a>
</g>
</g>
<!-- Node2 -->
<g id="node2" class="node">
<title>Node2</title>
<g id="a_node2"><a xlink:href="a00017.html" target="_top" xlink:title="Contains definitions for the UniqueQueue class.">
<polygon fill="white" stroke="#666666" points="152.88,-132 68.62,-132 68.62,-112 152.88,-112 152.88,-132"/>
<text xml:space="preserve" text-anchor="middle" x="110.75" y="-118.5" font-family="Helvetica,sans-Serif" font-size="10.00">unique_queue.h</text>
</a>
</g>
</g>
<!-- Node1&#45;&gt;Node2 -->
<g id="edge1" class="edge">
<title>Node1&#45;&gt;Node2</title>
<path fill="none" stroke="#63b8ff" d="M110.75,-167.55C110.75,-160.34 110.75,-151.66 110.75,-143.88"/>
<polygon fill="#63b8ff" stroke="#63b8ff" points="114.25,-143.92 110.75,-133.92 107.25,-143.92 114.25,-143.92"/>
</g>
<!-- Node3 -->
<g id="node3" class="node">
<title>Node3</title>
<g id="a_node3"><a xlink:title=" ">
<polygon fill="#e0e0e0" stroke="#999999" points="71.5,-76 0,-76 0,-56 71.5,-56 71.5,-76"/>
<text xml:space="preserve" text-anchor="middle" x="35.75" y="-62.5" font-family="Helvetica,sans-Serif" font-size="10.00">robin_hood.h</text>
</a>
</g>
</g>
<!-- Node2&#45;&gt;Node3 -->
<g id="edge2" class="edge">
<title>Node2&#45;&gt;Node3</title>
<path fill="none" stroke="#63b8ff" d="M97.69,-111.59C86.78,-103.74 71,-92.38 58.09,-83.09"/>
<polygon fill="#63b8ff" stroke="#63b8ff" points="60.3,-80.37 50.14,-77.36 56.21,-86.05 60.3,-80.37"/>
</g>
<!-- Node4 -->
<g id="node4" class="node">
<title>Node4</title>
<g id="a_node4"><a xlink:title=" ">
<polygon fill="#e0e0e0" stroke="#999999" points="131.88,-76 89.62,-76 89.62,-56 131.88,-56 131.88,-76"/>
<text xml:space="preserve" text-anchor="middle" x="110.75" y="-62.5" font-family="Helvetica,sans-Serif" font-size="10.00">queue</text>
</a>
</g>
</g>
<!-- Node2&#45;&gt;Node4 -->
<g id="edge3" class="edge">
<title>Node2&#45;&gt;Node4</title>
<path fill="none" stroke="#63b8ff" d="M110.75,-111.59C110.75,-105.01 110.75,-95.96 110.75,-87.73"/>
<polygon fill="#63b8ff" stroke="#63b8ff" points="114.25,-87.81 110.75,-77.81 107.25,-87.81 114.25,-87.81"/>
</g>
<!-- Node5 -->
<g id="node5" class="node">
<title>Node5</title>
<g id="a_node5"><a xlink:href="a00275.html" target="_top" xlink:title="Contains definitions for the Node structure.">
<polygon fill="white" stroke="#666666" points="195.38,-76 150.12,-76 150.12,-56 195.38,-56 195.38,-76"/>
<text xml:space="preserve" text-anchor="middle" x="172.75" y="-62.5" font-family="Helvetica,sans-Serif" font-size="10.00">node.h</text>
</a>
</g>
</g>
<!-- Node2&#45;&gt;Node5 -->
<g id="edge4" class="edge">
<title>Node2&#45;&gt;Node5</title>
<path fill="none" stroke="#63b8ff" d="M121.55,-111.59C130.35,-103.93 143,-92.91 153.52,-83.75"/>
<polygon fill="#63b8ff" stroke="#63b8ff" points="155.69,-86.5 160.93,-77.29 151.09,-81.22 155.69,-86.5"/>
</g>
<!-- Node6 -->
<g id="node6" class="node">
<title>Node6</title>
<g id="a_node6"><a xlink:title=" ">
<polygon fill="#e0e0e0" stroke="#999999" points="159.62,-20 121.88,-20 121.88,0 159.62,0 159.62,-20"/>
<text xml:space="preserve" text-anchor="middle" x="140.75" y="-6.5" font-family="Helvetica,sans-Serif" font-size="10.00">array</text>
</a>
</g>
</g>
<!-- Node5&#45;&gt;Node6 -->
<g id="edge5" class="edge">
<title>Node5&#45;&gt;Node6</title>
<path fill="none" stroke="#63b8ff" d="M167.18,-55.59C163,-48.55 157.15,-38.67 152.01,-30"/>
<polygon fill="#63b8ff" stroke="#63b8ff" points="155.14,-28.42 147.03,-21.6 149.12,-31.99 155.14,-28.42"/>
</g>
<!-- Node7 -->
<g id="node7" class="node">
<title>Node7</title>
<g id="a_node7"><a xlink:title=" ">
<polygon fill="#e0e0e0" stroke="#999999" points="229.38,-20 178.12,-20 178.12,0 229.38,0 229.38,-20"/>
<text xml:space="preserve" text-anchor="middle" x="203.75" y="-6.5" font-family="Helvetica,sans-Serif" font-size="10.00">ostream</text>
</a>
</g>
</g>
<!-- Node5&#45;&gt;Node7 -->
<g id="edge6" class="edge">
<title>Node5&#45;&gt;Node7</title>
<path fill="none" stroke="#63b8ff" d="M178.15,-55.59C182.19,-48.55 187.87,-38.67 192.84,-30"/>
<polygon fill="#63b8ff" stroke="#63b8ff" points="195.72,-32.03 197.66,-21.61 189.64,-28.54 195.72,-32.03"/>
</g>
</g>
</svg>
