<?xml version="1.0" encoding="UTF-8" standalone="no"?>
<!DOCTYPE svg PUBLIC "-//W3C//DTD SVG 1.1//EN"
 "http://www.w3.org/Graphics/SVG/1.1/DTD/svg11.dtd">
<!-- Generated by graphviz version 13.1.2 (20250808.2320)
 -->
<!-- Title: Cpp/analysismethods/src/view_analysis.h Pages: 1 -->
<svg width="268pt" height="108pt"
 viewBox="0.00 0.00 268.00 108.00" xmlns="http://www.w3.org/2000/svg" xmlns:xlink="http://www.w3.org/1999/xlink">
<g id="graph0" class="graph" transform="scale(1 1) rotate(0) translate(4 104)">
<title>Cpp/analysismethods/src/view_analysis.h</title>
<!-- Node1 -->
<g id="node1" class="node">
<title>Node1</title>
<g id="a_node1"><a xlink:title="Contains definitions for the ViewAnalysis namespace.">
<polygon fill="#999999" stroke="#666666" points="187,-100 76.5,-100 76.5,-68 187,-68 187,-100"/>
<text xml:space="preserve" text-anchor="start" x="84.5" y="-86.5" font-family="Helvetica,sans-Serif" font-size="10.00">Cpp/analysismethods</text>
<text xml:space="preserve" text-anchor="middle" x="131.75" y="-74.5" font-family="Helvetica,sans-Serif" font-size="10.00">/src/view_analysis.h</text>
</a>
</g>
</g>
<!-- Node2 -->
<g id="node2" class="node">
<title>Node2</title>
<g id="a_node2"><a xlink:href="a00440.html" target="_top" xlink:title=" ">
<polygon fill="white" stroke="#666666" points="125.5,-32 0,-32 0,0 125.5,0 125.5,-32"/>
<text xml:space="preserve" text-anchor="start" x="8" y="-18.5" font-family="Helvetica,sans-Serif" font-size="10.00">Cinterface/view_analysis</text>
<text xml:space="preserve" text-anchor="middle" x="62.75" y="-6.5" font-family="Helvetica,sans-Serif" font-size="10.00">_C.cpp</text>
</a>
</g>
</g>
<!-- Node1&#45;&gt;Node2 -->
<g id="edge1" class="edge">
<title>Node1&#45;&gt;Node2</title>
<path fill="none" stroke="#63b8ff" d="M107.69,-59.99C98.08,-50.79 87.27,-40.46 78.67,-32.22"/>
<polygon fill="#63b8ff" stroke="#63b8ff" points="105.01,-62.26 114.65,-66.65 109.85,-57.2 105.01,-62.26"/>
</g>
<!-- Node3 -->
<g id="node3" class="node">
<title>Node3</title>
<g id="a_node3"><a xlink:href="a00020.html" target="_top" xlink:title="Contains implementation for the ViewAnalysis namespace.">
<polygon fill="white" stroke="#666666" points="259.62,-32 143.88,-32 143.88,0 259.62,0 259.62,-32"/>
<text xml:space="preserve" text-anchor="start" x="151.88" y="-18.5" font-family="Helvetica,sans-Serif" font-size="10.00">Cpp/analysismethods</text>
<text xml:space="preserve" text-anchor="middle" x="201.75" y="-6.5" font-family="Helvetica,sans-Serif" font-size="10.00">/src/view_analysis.cpp</text>
</a>
</g>
</g>
<!-- Node1&#45;&gt;Node3 -->
<g id="edge2" class="edge">
<title>Node1&#45;&gt;Node3</title>
<path fill="none" stroke="#63b8ff" d="M156.16,-59.99C165.91,-50.79 176.87,-40.46 185.6,-32.22"/>
<polygon fill="#63b8ff" stroke="#63b8ff" points="153.96,-57.25 149.09,-66.65 158.76,-62.34 153.96,-57.25"/>
</g>
</g>
</svg>
