<?xml version="1.0" encoding="UTF-8" standalone="no"?>
<!DOCTYPE svg PUBLIC "-//W3C//DTD SVG 1.1//EN"
 "http://www.w3.org/Graphics/SVG/1.1/DTD/svg11.dtd">
<!-- Generated by graphviz version 13.1.2 (20250808.2320)
 -->
<!-- Title: Cpp/analysismethods/src/graph_generator.h Pages: 1 -->
<svg width="840pt" height="264pt"
 viewBox="0.00 0.00 840.00 264.00" xmlns="http://www.w3.org/2000/svg" xmlns:xlink="http://www.w3.org/1999/xlink">
<g id="graph0" class="graph" transform="scale(1 1) rotate(0) translate(4 260)">
<title>Cpp/analysismethods/src/graph_generator.h</title>
<!-- Node1 -->
<g id="node1" class="node">
<title>Node1</title>
<g id="a_node1"><a xlink:title="Contains declarations for all functions related to the graph generator.">
<polygon fill="#999999" stroke="#666666" points="553.55,-256 440.05,-256 440.05,-224 553.55,-224 553.55,-256"/>
<text xml:space="preserve" text-anchor="start" x="448.05" y="-242.5" font-family="Helvetica,sans-Serif" font-size="10.00">Cpp/analysismethods</text>
<text xml:space="preserve" text-anchor="middle" x="496.8" y="-230.5" font-family="Helvetica,sans-Serif" font-size="10.00">/src/graph_generator.h</text>
</a>
</g>
</g>
<!-- Node2 -->
<g id="node2" class="node">
<title>Node2</title>
<g id="a_node2"><a xlink:title=" ">
<polygon fill="#e0e0e0" stroke="#999999" points="53.3,-20 10.3,-20 10.3,0 53.3,0 53.3,-20"/>
<text xml:space="preserve" text-anchor="middle" x="31.8" y="-6.5" font-family="Helvetica,sans-Serif" font-size="10.00">cmath</text>
</a>
</g>
</g>
<!-- Node1&#45;&gt;Node2 -->
<g id="edge1" class="edge">
<title>Node1&#45;&gt;Node2</title>
<path fill="none" stroke="#63b8ff" d="M439.84,-235.09C346.44,-228.09 165.18,-211.88 105.8,-188 42.78,-162.65 17.41,-142.11 1.8,-76 -0.24,-67.35 -0.78,-64.51 1.8,-56 4.67,-46.5 10.29,-37.18 15.89,-29.5"/>
<polygon fill="#63b8ff" stroke="#63b8ff" points="18.62,-31.69 22.08,-21.67 13.13,-27.35 18.62,-31.69"/>
</g>
<!-- Node3 -->
<g id="node3" class="node">
<title>Node3</title>
<g id="a_node3"><a xlink:title=" ">
<polygon fill="#e0e0e0" stroke="#999999" points="601.55,-188 572.05,-188 572.05,-168 601.55,-168 601.55,-188"/>
<text xml:space="preserve" text-anchor="middle" x="586.8" y="-174.5" font-family="Helvetica,sans-Serif" font-size="10.00">set</text>
</a>
</g>
</g>
<!-- Node1&#45;&gt;Node3 -->
<g id="edge2" class="edge">
<title>Node1&#45;&gt;Node3</title>
<path fill="none" stroke="#63b8ff" d="M519.98,-223.55C533.26,-214.69 549.88,-203.61 563.23,-194.71"/>
<polygon fill="#63b8ff" stroke="#63b8ff" points="565.05,-197.71 571.43,-189.25 561.17,-191.88 565.05,-197.71"/>
</g>
<!-- Node4 -->
<g id="node4" class="node">
<title>Node4</title>
<g id="a_node4"><a xlink:title=" ">
<polygon fill="#e0e0e0" stroke="#999999" points="54.3,-76 11.3,-76 11.3,-56 54.3,-56 54.3,-76"/>
<text xml:space="preserve" text-anchor="middle" x="32.8" y="-62.5" font-family="Helvetica,sans-Serif" font-size="10.00">vector</text>
</a>
</g>
</g>
<!-- Node1&#45;&gt;Node4 -->
<g id="edge3" class="edge">
<title>Node1&#45;&gt;Node4</title>
<path fill="none" stroke="#63b8ff" d="M439.9,-233.67C330.19,-222.15 95.62,-191.08 43.8,-132 33.28,-120.01 30.96,-101.81 31.02,-87.72"/>
<polygon fill="#63b8ff" stroke="#63b8ff" points="34.51,-87.9 31.51,-77.74 27.52,-87.56 34.51,-87.9"/>
</g>
<!-- Node5 -->
<g id="node5" class="node">
<title>Node5</title>
<g id="a_node5"><a xlink:title=" ">
<polygon fill="#e0e0e0" stroke="#999999" points="487.67,-20 449.92,-20 449.92,0 487.67,0 487.67,-20"/>
<text xml:space="preserve" text-anchor="middle" x="468.8" y="-6.5" font-family="Helvetica,sans-Serif" font-size="10.00">array</text>
</a>
</g>
</g>
<!-- Node1&#45;&gt;Node5 -->
<g id="edge4" class="edge">
<title>Node1&#45;&gt;Node5</title>
<path fill="none" stroke="#63b8ff" d="M493.85,-223.87C491.95,-213.74 489.51,-200.11 487.8,-188 479.8,-131.54 473.46,-64.52 470.54,-31.49"/>
<polygon fill="#63b8ff" stroke="#63b8ff" points="474.05,-31.41 469.7,-21.75 467.08,-32.01 474.05,-31.41"/>
</g>
<!-- Node6 -->
<g id="node6" class="node">
<title>Node6</title>
<g id="a_node6"><a xlink:href="a00275.html" target="_top" xlink:title="Contains definitions for the Node structure.">
<polygon fill="white" stroke="#666666" points="421.42,-76 376.17,-76 376.17,-56 421.42,-56 421.42,-76"/>
<text xml:space="preserve" text-anchor="middle" x="398.8" y="-62.5" font-family="Helvetica,sans-Serif" font-size="10.00">node.h</text>
</a>
</g>
</g>
<!-- Node1&#45;&gt;Node6 -->
<g id="edge5" class="edge">
<title>Node1&#45;&gt;Node6</title>
<path fill="none" stroke="#63b8ff" d="M482.45,-223.72C473.77,-213.98 462.86,-200.82 454.8,-188 433.63,-154.32 415.64,-111.32 406.11,-86.7"/>
<polygon fill="#63b8ff" stroke="#63b8ff" points="409.48,-85.73 402.67,-77.63 402.94,-88.22 409.48,-85.73"/>
</g>
<!-- Node8 -->
<g id="node8" class="node">
<title>Node8</title>
<g id="a_node8"><a xlink:href="a00269.html" target="_top" xlink:title="Contains definitions for the Graph &#160;class.">
<polygon fill="white" stroke="#666666" points="282.92,-188 234.67,-188 234.67,-168 282.92,-168 282.92,-188"/>
<text xml:space="preserve" text-anchor="middle" x="258.8" y="-174.5" font-family="Helvetica,sans-Serif" font-size="10.00">graph.h</text>
</a>
</g>
</g>
<!-- Node1&#45;&gt;Node8 -->
<g id="edge8" class="edge">
<title>Node1&#45;&gt;Node8</title>
<path fill="none" stroke="#63b8ff" d="M439.79,-224.63C394.55,-213.22 332.73,-197.64 294.31,-187.95"/>
<polygon fill="#63b8ff" stroke="#63b8ff" points="295.2,-184.57 284.65,-185.52 293.49,-191.35 295.2,-184.57"/>
</g>
<!-- Node15 -->
<g id="node15" class="node">
<title>Node15</title>
<g id="a_node15"><a xlink:title=" ">
<polygon fill="#e0e0e0" stroke="#999999" points="667.92,-188 619.67,-188 619.67,-168 667.92,-168 667.92,-188"/>
<text xml:space="preserve" text-anchor="middle" x="643.8" y="-174.5" font-family="Helvetica,sans-Serif" font-size="10.00">cassert</text>
</a>
</g>
</g>
<!-- Node1&#45;&gt;Node15 -->
<g id="edge22" class="edge">
<title>Node1&#45;&gt;Node15</title>
<path fill="none" stroke="#63b8ff" d="M534.65,-223.55C558.05,-214 587.8,-201.86 610.33,-192.66"/>
<polygon fill="#63b8ff" stroke="#63b8ff" points="611.41,-196 619.35,-188.98 608.77,-189.52 611.41,-196"/>
</g>
<!-- Node16 -->
<g id="node16" class="node">
<title>Node16</title>
<g id="a_node16"><a xlink:title=" ">
<polygon fill="#e0e0e0" stroke="#999999" points="731.42,-188 686.17,-188 686.17,-168 731.42,-168 731.42,-188"/>
<text xml:space="preserve" text-anchor="middle" x="708.8" y="-174.5" font-family="Helvetica,sans-Serif" font-size="10.00">variant</text>
</a>
</g>
</g>
<!-- Node1&#45;&gt;Node16 -->
<g id="edge23" class="edge">
<title>Node1&#45;&gt;Node16</title>
<path fill="none" stroke="#63b8ff" d="M551.39,-223.55C590.35,-212.52 641.54,-198.04 674.79,-188.62"/>
<polygon fill="#63b8ff" stroke="#63b8ff" points="675.63,-192.02 684.3,-185.93 673.73,-185.29 675.63,-192.02"/>
</g>
<!-- Node17 -->
<g id="node17" class="node">
<title>Node17</title>
<g id="a_node17"><a xlink:href="a00224.html" target="_top" xlink:title=" ">
<polygon fill="white" stroke="#666666" points="554.42,-188 497.17,-188 497.17,-168 554.42,-168 554.42,-188"/>
<text xml:space="preserve" text-anchor="middle" x="525.8" y="-174.5" font-family="Helvetica,sans-Serif" font-size="10.00">MultiRT.h</text>
</a>
</g>
</g>
<!-- Node1&#45;&gt;Node17 -->
<g id="edge24" class="edge">
<title>Node1&#45;&gt;Node17</title>
<path fill="none" stroke="#63b8ff" d="M504.27,-223.55C507.92,-216 512.35,-206.82 516.25,-198.77"/>
<polygon fill="#63b8ff" stroke="#63b8ff" points="519.39,-200.3 520.59,-189.77 513.09,-197.25 519.39,-200.3"/>
</g>
<!-- Node19 -->
<g id="node19" class="node">
<title>Node19</title>
<g id="a_node19"><a xlink:title=" ">
<polygon fill="#e0e0e0" stroke="#999999" points="832.17,-188 749.42,-188 749.42,-168 832.17,-168 832.17,-188"/>
<text xml:space="preserve" text-anchor="middle" x="790.8" y="-174.5" font-family="Helvetica,sans-Serif" font-size="10.00">unordered_map</text>
</a>
</g>
</g>
<!-- Node1&#45;&gt;Node19 -->
<g id="edge27" class="edge">
<title>Node1&#45;&gt;Node19</title>
<path fill="none" stroke="#63b8ff" d="M553.83,-227.36C607.19,-216.47 686.25,-200.34 738.15,-189.75"/>
<polygon fill="#63b8ff" stroke="#63b8ff" points="738.53,-193.24 747.63,-187.81 737.13,-186.38 738.53,-193.24"/>
</g>
<!-- Node6&#45;&gt;Node5 -->
<g id="edge6" class="edge">
<title>Node6&#45;&gt;Node5</title>
<path fill="none" stroke="#63b8ff" d="M410.99,-55.59C421.13,-47.77 435.79,-36.46 447.81,-27.19"/>
<polygon fill="#63b8ff" stroke="#63b8ff" points="449.77,-30.1 455.55,-21.22 445.49,-24.56 449.77,-30.1"/>
</g>
<!-- Node7 -->
<g id="node7" class="node">
<title>Node7</title>
<g id="a_node7"><a xlink:title=" ">
<polygon fill="#e0e0e0" stroke="#999999" points="424.42,-20 373.17,-20 373.17,0 424.42,0 424.42,-20"/>
<text xml:space="preserve" text-anchor="middle" x="398.8" y="-6.5" font-family="Helvetica,sans-Serif" font-size="10.00">ostream</text>
</a>
</g>
</g>
<!-- Node6&#45;&gt;Node7 -->
<g id="edge7" class="edge">
<title>Node6&#45;&gt;Node7</title>
<path fill="none" stroke="#63b8ff" d="M398.8,-55.59C398.8,-49.01 398.8,-39.96 398.8,-31.73"/>
<polygon fill="#63b8ff" stroke="#63b8ff" points="402.3,-31.81 398.8,-21.81 395.3,-31.81 402.3,-31.81"/>
</g>
<!-- Node8&#45;&gt;Node4 -->
<g id="edge10" class="edge">
<title>Node8&#45;&gt;Node4</title>
<path fill="none" stroke="#63b8ff" d="M234.34,-177.82C194.3,-177.88 114.2,-172.45 63.8,-132 49.78,-120.75 41.73,-101.64 37.37,-87.04"/>
<polygon fill="#63b8ff" stroke="#63b8ff" points="40.81,-86.37 34.9,-77.58 34.04,-88.14 40.81,-86.37"/>
</g>
<!-- Node8&#45;&gt;Node6 -->
<g id="edge14" class="edge">
<title>Node8&#45;&gt;Node6</title>
<path fill="none" stroke="#63b8ff" d="M283.08,-173.4C308.78,-168.39 349.01,-156.93 373.8,-132 385.8,-119.93 392.16,-101.48 395.46,-87.32"/>
<polygon fill="#63b8ff" stroke="#63b8ff" points="398.85,-88.21 397.34,-77.73 391.98,-86.87 398.85,-88.21"/>
</g>
<!-- Node9 -->
<g id="node9" class="node">
<title>Node9</title>
<g id="a_node9"><a xlink:title=" ">
<polygon fill="#e0e0e0" stroke="#999999" points="204.55,-132 133.05,-132 133.05,-112 204.55,-112 204.55,-132"/>
<text xml:space="preserve" text-anchor="middle" x="168.8" y="-118.5" font-family="Helvetica,sans-Serif" font-size="10.00">robin_hood.h</text>
</a>
</g>
</g>
<!-- Node8&#45;&gt;Node9 -->
<g id="edge9" class="edge">
<title>Node8&#45;&gt;Node9</title>
<path fill="none" stroke="#63b8ff" d="M243.12,-167.59C229.65,-159.51 209.98,-147.71 194.25,-138.27"/>
<polygon fill="#63b8ff" stroke="#63b8ff" points="196.27,-135.4 185.9,-133.26 192.67,-141.4 196.27,-135.4"/>
</g>
<!-- Node10 -->
<g id="node10" class="node">
<title>Node10</title>
<g id="a_node10"><a xlink:href="a00263.html" target="_top" xlink:title="Contains definitions for the Edge structure.">
<polygon fill="white" stroke="#666666" points="306.42,-132 261.17,-132 261.17,-112 306.42,-112 306.42,-132"/>
<text xml:space="preserve" text-anchor="middle" x="283.8" y="-118.5" font-family="Helvetica,sans-Serif" font-size="10.00">edge.h</text>
</a>
</g>
</g>
<!-- Node8&#45;&gt;Node10 -->
<g id="edge11" class="edge">
<title>Node8&#45;&gt;Node10</title>
<path fill="none" stroke="#63b8ff" d="M263.15,-167.59C266.34,-160.7 270.79,-151.1 274.74,-142.57"/>
<polygon fill="#63b8ff" stroke="#63b8ff" points="277.83,-144.22 278.86,-133.67 271.48,-141.28 277.83,-144.22"/>
</g>
<!-- Node11 -->
<g id="node11" class="node">
<title>Node11</title>
<g id="a_node11"><a xlink:href="a00281.html" target="_top" xlink:title="Contains definitions for the Path structure.">
<polygon fill="white" stroke="#666666" points="115.3,-132 72.3,-132 72.3,-112 115.3,-112 115.3,-132"/>
<text xml:space="preserve" text-anchor="middle" x="93.8" y="-118.5" font-family="Helvetica,sans-Serif" font-size="10.00">path.h</text>
</a>
</g>
</g>
<!-- Node8&#45;&gt;Node11 -->
<g id="edge15" class="edge">
<title>Node8&#45;&gt;Node11</title>
<path fill="none" stroke="#63b8ff" d="M234.45,-169.03C205.87,-159.68 158.34,-144.12 126.55,-133.72"/>
<polygon fill="#63b8ff" stroke="#63b8ff" points="127.64,-130.39 117.05,-130.61 125.46,-137.05 127.64,-130.39"/>
</g>
<!-- Node12 -->
<g id="node12" class="node">
<title>Node12</title>
<g id="a_node12"><a xlink:title=" ">
<polygon fill="#e0e0e0" stroke="#999999" points="240.55,-76 187.05,-76 187.05,-56 240.55,-56 240.55,-76"/>
<text xml:space="preserve" text-anchor="middle" x="213.8" y="-62.5" font-family="Helvetica,sans-Serif" font-size="10.00">iostream</text>
</a>
</g>
</g>
<!-- Node8&#45;&gt;Node12 -->
<g id="edge21" class="edge">
<title>Node8&#45;&gt;Node12</title>
<path fill="none" stroke="#63b8ff" d="M254.96,-167.62C247.69,-149.84 231.75,-110.88 221.98,-87"/>
<polygon fill="#63b8ff" stroke="#63b8ff" points="225.22,-85.69 218.2,-77.76 218.75,-88.34 225.22,-85.69"/>
</g>
<!-- Node14 -->
<g id="node14" class="node">
<title>Node14</title>
<g id="a_node14"><a xlink:title=" ">
<polygon fill="#e0e0e0" stroke="#999999" points="365.17,-132 324.42,-132 324.42,-112 365.17,-112 365.17,-132"/>
<text xml:space="preserve" text-anchor="middle" x="344.8" y="-118.5" font-family="Helvetica,sans-Serif" font-size="10.00">Eigen</text>
</a>
</g>
</g>
<!-- Node8&#45;&gt;Node14 -->
<g id="edge20" class="edge">
<title>Node8&#45;&gt;Node14</title>
<path fill="none" stroke="#63b8ff" d="M273.78,-167.59C286.53,-159.59 305.09,-147.93 320.04,-138.54"/>
<polygon fill="#63b8ff" stroke="#63b8ff" points="321.81,-141.57 328.42,-133.28 318.09,-135.64 321.81,-141.57"/>
</g>
<!-- Node10&#45;&gt;Node4 -->
<g id="edge13" class="edge">
<title>Node10&#45;&gt;Node4</title>
<path fill="none" stroke="#63b8ff" d="M260.86,-116.94C222.5,-110.02 142.74,-95.05 65.61,-76.28"/>
<polygon fill="#63b8ff" stroke="#63b8ff" points="66.77,-72.96 56.22,-73.97 65.1,-79.76 66.77,-72.96"/>
</g>
<!-- Node10&#45;&gt;Node6 -->
<g id="edge12" class="edge">
<title>Node10&#45;&gt;Node6</title>
<path fill="none" stroke="#63b8ff" d="M303.83,-111.59C321.61,-103.24 347.86,-90.92 368.26,-81.34"/>
<polygon fill="#63b8ff" stroke="#63b8ff" points="369.68,-84.54 377.24,-77.12 366.7,-78.21 369.68,-84.54"/>
</g>
<!-- Node11&#45;&gt;Node4 -->
<g id="edge16" class="edge">
<title>Node11&#45;&gt;Node4</title>
<path fill="none" stroke="#63b8ff" d="M83.17,-111.59C74.51,-103.93 62.07,-92.91 51.71,-83.75"/>
<polygon fill="#63b8ff" stroke="#63b8ff" points="54.24,-81.31 44.44,-77.3 49.6,-86.55 54.24,-81.31"/>
</g>
<!-- Node11&#45;&gt;Node12 -->
<g id="edge17" class="edge">
<title>Node11&#45;&gt;Node12</title>
<path fill="none" stroke="#63b8ff" d="M114.7,-111.59C133.43,-103.17 161.16,-90.69 182.52,-81.07"/>
<polygon fill="#63b8ff" stroke="#63b8ff" points="183.67,-84.4 191.35,-77.1 180.8,-78.01 183.67,-84.4"/>
</g>
<!-- Node13 -->
<g id="node13" class="node">
<title>Node13</title>
<g id="a_node13"><a xlink:href="a00251.html" target="_top" xlink:title="Contains definitions for the HF::SpatialStructures namespace.">
<polygon fill="white" stroke="#666666" points="139.3,-76 72.3,-76 72.3,-56 139.3,-56 139.3,-76"/>
<text xml:space="preserve" text-anchor="middle" x="105.8" y="-62.5" font-family="Helvetica,sans-Serif" font-size="10.00">constants.h</text>
</a>
</g>
</g>
<!-- Node11&#45;&gt;Node13 -->
<g id="edge18" class="edge">
<title>Node11&#45;&gt;Node13</title>
<path fill="none" stroke="#63b8ff" d="M95.89,-111.59C97.37,-104.93 99.41,-95.75 101.26,-87.44"/>
<polygon fill="#63b8ff" stroke="#63b8ff" points="104.65,-88.3 103.4,-77.78 97.82,-86.78 104.65,-88.3"/>
</g>
<!-- Node13&#45;&gt;Node2 -->
<g id="edge19" class="edge">
<title>Node13&#45;&gt;Node2</title>
<path fill="none" stroke="#63b8ff" d="M92.91,-55.59C82.09,-47.7 66.39,-36.24 53.61,-26.92"/>
<polygon fill="#63b8ff" stroke="#63b8ff" points="55.9,-24.26 45.76,-21.19 51.78,-29.91 55.9,-24.26"/>
</g>
<!-- Node17&#45;&gt;Node5 -->
<g id="edge25" class="edge">
<title>Node17&#45;&gt;Node5</title>
<path fill="none" stroke="#63b8ff" d="M539.8,-167.59C555.82,-155.55 578.77,-133.65 569.8,-112 554.45,-74.95 518.19,-44.4 493.56,-26.93"/>
<polygon fill="#63b8ff" stroke="#63b8ff" points="495.61,-24.09 485.38,-21.33 491.65,-29.86 495.61,-24.09"/>
</g>
<!-- Node18 -->
<g id="node18" class="node">
<title>Node18</title>
<g id="a_node18"><a xlink:href="a00218.html" target="_top" xlink:title=" ">
<polygon fill="white" stroke="#666666" points="560.42,-132 497.17,-132 497.17,-112 560.42,-112 560.42,-132"/>
<text xml:space="preserve" text-anchor="middle" x="528.8" y="-118.5" font-family="Helvetica,sans-Serif" font-size="10.00">HitStruct.h</text>
</a>
</g>
</g>
<!-- Node17&#45;&gt;Node18 -->
<g id="edge26" class="edge">
<title>Node17&#45;&gt;Node18</title>
<path fill="none" stroke="#63b8ff" d="M526.32,-167.59C526.69,-161.01 527.19,-151.96 527.65,-143.73"/>
<polygon fill="#63b8ff" stroke="#63b8ff" points="531.14,-143.99 528.2,-133.81 524.15,-143.6 531.14,-143.99"/>
</g>
</g>
</svg>
