<?xml version="1.0" encoding="UTF-8" standalone="no"?>
<!DOCTYPE svg PUBLIC "-//W3C//DTD SVG 1.1//EN"
 "http://www.w3.org/Graphics/SVG/1.1/DTD/svg11.dtd">
<!-- Generated by graphviz version 13.1.2 (20250808.2320)
 -->
<!-- Title: Cpp/analysismethods/src/graph_generator.h Pages: 1 -->
<svg width="378pt" height="108pt"
 viewBox="0.00 0.00 378.00 108.00" xmlns="http://www.w3.org/2000/svg" xmlns:xlink="http://www.w3.org/1999/xlink">
<g id="graph0" class="graph" transform="scale(1 1) rotate(0) translate(4 104)">
<title>Cpp/analysismethods/src/graph_generator.h</title>
<!-- Node1 -->
<g id="node1" class="node">
<title>Node1</title>
<g id="a_node1"><a xlink:title="Contains declarations for all functions related to the graph generator.">
<polygon fill="#999999" stroke="#666666" points="236.75,-100 123.25,-100 123.25,-68 236.75,-68 236.75,-100"/>
<text xml:space="preserve" text-anchor="start" x="131.25" y="-86.5" font-family="Helvetica,sans-Serif" font-size="10.00">Cpp/analysismethods</text>
<text xml:space="preserve" text-anchor="middle" x="180" y="-74.5" font-family="Helvetica,sans-Serif" font-size="10.00">/src/graph_generator.h</text>
</a>
</g>
</g>
<!-- Node2 -->
<g id="node2" class="node">
<title>Node2</title>
<g id="a_node2"><a xlink:href="a00404.html" target="_top" xlink:title=" ">
<polygon fill="white" stroke="#666666" points="100,-32 0,-32 0,0 100,0 100,-32"/>
<text xml:space="preserve" text-anchor="start" x="8" y="-18.5" font-family="Helvetica,sans-Serif" font-size="10.00">Cinterface/analysis</text>
<text xml:space="preserve" text-anchor="middle" x="50" y="-6.5" font-family="Helvetica,sans-Serif" font-size="10.00">_C.cpp</text>
</a>
</g>
</g>
<!-- Node1&#45;&gt;Node2 -->
<g id="edge1" class="edge">
<title>Node1&#45;&gt;Node2</title>
<path fill="none" stroke="#63b8ff" d="M139.3,-62.34C120.21,-52.65 97.86,-41.3 80.29,-32.38"/>
<polygon fill="#63b8ff" stroke="#63b8ff" points="137.67,-65.43 148.17,-66.84 140.84,-59.19 137.67,-65.43"/>
</g>
<!-- Node3 -->
<g id="node3" class="node">
<title>Node3</title>
<g id="a_node3"><a xlink:href="a00005.html" target="_top" xlink:title="Contains implementation for the functions in the GraphGenerator class.">
<polygon fill="white" stroke="#666666" points="242,-32 118,-32 118,0 242,0 242,-32"/>
<text xml:space="preserve" text-anchor="start" x="126" y="-18.5" font-family="Helvetica,sans-Serif" font-size="10.00">Cpp/analysismethods</text>
<text xml:space="preserve" text-anchor="middle" x="180" y="-6.5" font-family="Helvetica,sans-Serif" font-size="10.00">/src/graph_generator.cpp</text>
</a>
</g>
</g>
<!-- Node1&#45;&gt;Node3 -->
<g id="edge2" class="edge">
<title>Node1&#45;&gt;Node3</title>
<path fill="none" stroke="#63b8ff" d="M180,-56.31C180,-48.12 180,-39.38 180,-32.22"/>
<polygon fill="#63b8ff" stroke="#63b8ff" points="176.5,-56.18 180,-66.18 183.5,-56.18 176.5,-56.18"/>
</g>
<!-- Node4 -->
<g id="node4" class="node">
<title>Node4</title>
<g id="a_node4"><a xlink:href="a00011.html" target="_top" xlink:title=" ">
<polygon fill="white" stroke="#666666" points="370.25,-32 259.75,-32 259.75,0 370.25,0 370.25,-32"/>
<text xml:space="preserve" text-anchor="start" x="267.75" y="-18.5" font-family="Helvetica,sans-Serif" font-size="10.00">Cpp/analysismethods</text>
<text xml:space="preserve" text-anchor="middle" x="315" y="-6.5" font-family="Helvetica,sans-Serif" font-size="10.00">/src/graph_utils.cpp</text>
</a>
</g>
</g>
<!-- Node1&#45;&gt;Node4 -->
<g id="edge3" class="edge">
<title>Node1&#45;&gt;Node4</title>
<path fill="none" stroke="#63b8ff" d="M221.99,-62.47C241.87,-52.75 265.22,-41.34 283.55,-32.38"/>
<polygon fill="#63b8ff" stroke="#63b8ff" points="220.46,-59.32 213.01,-66.86 223.53,-65.61 220.46,-59.32"/>
</g>
</g>
</svg>
