<?xml version="1.0" encoding="UTF-8" standalone="no"?>
<!DOCTYPE svg PUBLIC "-//W3C//DTD SVG 1.1//EN"
 "http://www.w3.org/Graphics/SVG/1.1/DTD/svg11.dtd">
<!-- Generated by graphviz version 13.1.2 (20250808.2320)
 -->
<!-- Title: Cpp/analysismethods/src/graph_generator.cpp Pages: 1 -->
<svg width="1068pt" height="320pt"
 viewBox="0.00 0.00 1068.00 320.00" xmlns="http://www.w3.org/2000/svg" xmlns:xlink="http://www.w3.org/1999/xlink">
<g id="graph0" class="graph" transform="scale(1 1) rotate(0) translate(4 316)">
<title>Cpp/analysismethods/src/graph_generator.cpp</title>
<!-- Node1 -->
<g id="node1" class="node">
<title>Node1</title>
<g id="a_node1"><a xlink:title="Contains implementation for the functions in the GraphGenerator class.">
<polygon fill="#999999" stroke="#666666" points="868.5,-312 744.5,-312 744.5,-280 868.5,-280 868.5,-312"/>
<text xml:space="preserve" text-anchor="start" x="752.5" y="-298.5" font-family="Helvetica,sans-Serif" font-size="10.00">Cpp/analysismethods</text>
<text xml:space="preserve" text-anchor="middle" x="806.5" y="-286.5" font-family="Helvetica,sans-Serif" font-size="10.00">/src/graph_generator.cpp</text>
</a>
</g>
</g>
<!-- Node2 -->
<g id="node2" class="node">
<title>Node2</title>
<g id="a_node2"><a xlink:href="a00008.html" target="_top" xlink:title="Contains declarations for all functions related to the graph generator.">
<polygon fill="white" stroke="#666666" points="431.5,-244 337.5,-244 337.5,-224 431.5,-224 431.5,-244"/>
<text xml:space="preserve" text-anchor="middle" x="384.5" y="-230.5" font-family="Helvetica,sans-Serif" font-size="10.00">graph_generator.h</text>
</a>
</g>
</g>
<!-- Node1&#45;&gt;Node2 -->
<g id="edge1" class="edge">
<title>Node1&#45;&gt;Node2</title>
<path fill="none" stroke="#63b8ff" d="M744.23,-286.15C663.16,-274.62 522.48,-254.62 443.2,-243.35"/>
<polygon fill="#63b8ff" stroke="#63b8ff" points="443.86,-239.9 433.47,-241.96 442.87,-246.83 443.86,-239.9"/>
</g>
<!-- Node7 -->
<g id="node7" class="node">
<title>Node7</title>
<g id="a_node7"><a xlink:href="a00275.html" target="_top" xlink:title="Contains definitions for the Node structure.">
<polygon fill="white" stroke="#666666" points="809.12,-76 763.88,-76 763.88,-56 809.12,-56 809.12,-76"/>
<text xml:space="preserve" text-anchor="middle" x="786.5" y="-62.5" font-family="Helvetica,sans-Serif" font-size="10.00">node.h</text>
</a>
</g>
</g>
<!-- Node1&#45;&gt;Node7 -->
<g id="edge30" class="edge">
<title>Node1&#45;&gt;Node7</title>
<path fill="none" stroke="#63b8ff" d="M809.55,-279.51C815.24,-247.6 825.61,-172.43 810.5,-112 808.25,-103.01 803.83,-93.85 799.39,-86.16"/>
<polygon fill="#63b8ff" stroke="#63b8ff" points="802.39,-84.35 794.12,-77.72 796.45,-88.06 802.39,-84.35"/>
</g>
<!-- Node9 -->
<g id="node9" class="node">
<title>Node9</title>
<g id="a_node9"><a xlink:href="a00269.html" target="_top" xlink:title="Contains definitions for the Graph &#160;class.">
<polygon fill="white" stroke="#666666" points="686.62,-188 638.38,-188 638.38,-168 686.62,-168 686.62,-188"/>
<text xml:space="preserve" text-anchor="middle" x="662.5" y="-174.5" font-family="Helvetica,sans-Serif" font-size="10.00">graph.h</text>
</a>
</g>
</g>
<!-- Node1&#45;&gt;Node9 -->
<g id="edge32" class="edge">
<title>Node1&#45;&gt;Node9</title>
<path fill="none" stroke="#63b8ff" d="M787.38,-279.6C760.28,-257.76 710.9,-217.99 683.04,-195.55"/>
<polygon fill="#63b8ff" stroke="#63b8ff" points="685.32,-192.89 675.34,-189.34 680.93,-198.34 685.32,-192.89"/>
</g>
<!-- Node10 -->
<g id="node10" class="node">
<title>Node10</title>
<g id="a_node10"><a xlink:title=" ">
<polygon fill="#e0e0e0" stroke="#999999" points="950.25,-132 878.75,-132 878.75,-112 950.25,-112 950.25,-132"/>
<text xml:space="preserve" text-anchor="middle" x="914.5" y="-118.5" font-family="Helvetica,sans-Serif" font-size="10.00">robin_hood.h</text>
</a>
</g>
</g>
<!-- Node1&#45;&gt;Node10 -->
<g id="edge33" class="edge">
<title>Node1&#45;&gt;Node10</title>
<path fill="none" stroke="#63b8ff" d="M828.58,-279.53C840.47,-270.31 854.67,-257.74 864.5,-244 887.23,-212.21 901.98,-168.53 909.22,-143.28"/>
<polygon fill="#63b8ff" stroke="#63b8ff" points="912.59,-144.24 911.85,-133.67 905.84,-142.39 912.59,-144.24"/>
</g>
<!-- Node11 -->
<g id="node11" class="node">
<title>Node11</title>
<g id="a_node11"><a xlink:href="a00263.html" target="_top" xlink:title="Contains definitions for the Edge structure.">
<polygon fill="white" stroke="#666666" points="784.12,-132 738.88,-132 738.88,-112 784.12,-112 784.12,-132"/>
<text xml:space="preserve" text-anchor="middle" x="761.5" y="-118.5" font-family="Helvetica,sans-Serif" font-size="10.00">edge.h</text>
</a>
</g>
</g>
<!-- Node1&#45;&gt;Node11 -->
<g id="edge31" class="edge">
<title>Node1&#45;&gt;Node11</title>
<path fill="none" stroke="#63b8ff" d="M802.51,-279.74C794.38,-248.69 775.94,-178.18 766.81,-143.31"/>
<polygon fill="#63b8ff" stroke="#63b8ff" points="770.21,-142.46 764.29,-133.67 763.44,-144.23 770.21,-142.46"/>
</g>
<!-- Node13 -->
<g id="node13" class="node">
<title>Node13</title>
<g id="a_node13"><a xlink:title=" ">
<polygon fill="#e0e0e0" stroke="#999999" points="515.25,-76 461.75,-76 461.75,-56 515.25,-56 515.25,-76"/>
<text xml:space="preserve" text-anchor="middle" x="488.5" y="-62.5" font-family="Helvetica,sans-Serif" font-size="10.00">iostream</text>
</a>
</g>
</g>
<!-- Node1&#45;&gt;Node13 -->
<g id="edge39" class="edge">
<title>Node1&#45;&gt;Node13</title>
<path fill="none" stroke="#63b8ff" d="M744.07,-286.28C661.96,-271.1 520.71,-231.28 457.5,-132 447.79,-116.75 458.94,-97.98 470.49,-84.54"/>
<polygon fill="#63b8ff" stroke="#63b8ff" points="472.98,-87 477.26,-77.3 467.87,-82.22 472.98,-87"/>
</g>
<!-- Node14 -->
<g id="node14" class="node">
<title>Node14</title>
<g id="a_node14"><a xlink:href="a00251.html" target="_top" xlink:title="Contains definitions for the HF::SpatialStructures namespace.">
<polygon fill="white" stroke="#666666" points="86,-76 19,-76 19,-56 86,-56 86,-76"/>
<text xml:space="preserve" text-anchor="middle" x="52.5" y="-62.5" font-family="Helvetica,sans-Serif" font-size="10.00">constants.h</text>
</a>
</g>
</g>
<!-- Node1&#45;&gt;Node14 -->
<g id="edge29" class="edge">
<title>Node1&#45;&gt;Node14</title>
<path fill="none" stroke="#63b8ff" d="M744.02,-293.2C592.34,-287.61 210.05,-265.97 113.5,-188 81.12,-161.85 64.36,-114.06 57.1,-87.03"/>
<polygon fill="#63b8ff" stroke="#63b8ff" points="60.59,-86.54 54.77,-77.69 53.79,-88.24 60.59,-86.54"/>
</g>
<!-- Node21 -->
<g id="node21" class="node">
<title>Node21</title>
<g id="a_node21"><a xlink:title=" ">
<polygon fill="#e0e0e0" stroke="#999999" points="960,-244 917,-244 917,-224 960,-224 960,-244"/>
<text xml:space="preserve" text-anchor="middle" x="938.5" y="-230.5" font-family="Helvetica,sans-Serif" font-size="10.00">omp.h</text>
</a>
</g>
</g>
<!-- Node1&#45;&gt;Node21 -->
<g id="edge34" class="edge">
<title>Node1&#45;&gt;Node21</title>
<path fill="none" stroke="#63b8ff" d="M840.49,-279.55C861.12,-270.17 887.24,-258.3 907.34,-249.17"/>
<polygon fill="#63b8ff" stroke="#63b8ff" points="908.77,-252.36 916.42,-245.03 905.87,-245.99 908.77,-252.36"/>
</g>
<!-- Node22 -->
<g id="node22" class="node">
<title>Node22</title>
<g id="a_node22"><a xlink:href="a00017.html" target="_top" xlink:title="Contains definitions for the UniqueQueue class.">
<polygon fill="white" stroke="#666666" points="1025.62,-188 941.38,-188 941.38,-168 1025.62,-168 1025.62,-188"/>
<text xml:space="preserve" text-anchor="middle" x="983.5" y="-174.5" font-family="Helvetica,sans-Serif" font-size="10.00">unique_queue.h</text>
</a>
</g>
</g>
<!-- Node1&#45;&gt;Node22 -->
<g id="edge35" class="edge">
<title>Node1&#45;&gt;Node22</title>
<path fill="none" stroke="#63b8ff" d="M868.81,-290.52C903.16,-284.78 943.91,-272.03 969.5,-244 980.45,-232 983.6,-213.54 984.2,-199.36"/>
<polygon fill="#63b8ff" stroke="#63b8ff" points="987.7,-199.78 984.22,-189.78 980.7,-199.77 987.7,-199.78"/>
</g>
<!-- Node24 -->
<g id="node24" class="node">
<title>Node24</title>
<g id="a_node24"><a xlink:title=" ">
<polygon fill="#e0e0e0" stroke="#999999" points="1060,-244 1017,-244 1017,-224 1060,-224 1060,-244"/>
<text xml:space="preserve" text-anchor="middle" x="1038.5" y="-230.5" font-family="Helvetica,sans-Serif" font-size="10.00">thread</text>
</a>
</g>
</g>
<!-- Node1&#45;&gt;Node24 -->
<g id="edge40" class="edge">
<title>Node1&#45;&gt;Node24</title>
<path fill="none" stroke="#63b8ff" d="M866.25,-279.55C910.71,-268.05 969.72,-252.79 1005.85,-243.44"/>
<polygon fill="#63b8ff" stroke="#63b8ff" points="1006.46,-246.9 1015.27,-241.01 1004.71,-240.12 1006.46,-246.9"/>
</g>
<!-- Node3 -->
<g id="node3" class="node">
<title>Node3</title>
<g id="a_node3"><a xlink:title=" ">
<polygon fill="#e0e0e0" stroke="#999999" points="43,-20 0,-20 0,0 43,0 43,-20"/>
<text xml:space="preserve" text-anchor="middle" x="21.5" y="-6.5" font-family="Helvetica,sans-Serif" font-size="10.00">cmath</text>
</a>
</g>
</g>
<!-- Node2&#45;&gt;Node3 -->
<g id="edge2" class="edge">
<title>Node2&#45;&gt;Node3</title>
<path fill="none" stroke="#63b8ff" d="M337.02,-228.83C269.92,-222.32 151.3,-208.33 113.5,-188 53.68,-155.82 34.33,-139.23 9.5,-76 3.73,-61.29 7.63,-43.61 12.48,-30.4"/>
<polygon fill="#63b8ff" stroke="#63b8ff" points="15.56,-32.1 16.18,-21.53 9.1,-29.41 15.56,-32.1"/>
</g>
<!-- Node4 -->
<g id="node4" class="node">
<title>Node4</title>
<g id="a_node4"><a xlink:title=" ">
<polygon fill="#e0e0e0" stroke="#999999" points="342.25,-188 312.75,-188 312.75,-168 342.25,-168 342.25,-188"/>
<text xml:space="preserve" text-anchor="middle" x="327.5" y="-174.5" font-family="Helvetica,sans-Serif" font-size="10.00">set</text>
</a>
</g>
</g>
<!-- Node2&#45;&gt;Node4 -->
<g id="edge3" class="edge">
<title>Node2&#45;&gt;Node4</title>
<path fill="none" stroke="#63b8ff" d="M374.57,-223.59C366.56,-216.01 355.08,-205.13 345.47,-196.02"/>
<polygon fill="#63b8ff" stroke="#63b8ff" points="348.08,-193.68 338.41,-189.34 343.27,-198.76 348.08,-193.68"/>
</g>
<!-- Node5 -->
<g id="node5" class="node">
<title>Node5</title>
<g id="a_node5"><a xlink:title=" ">
<polygon fill="#e0e0e0" stroke="#999999" points="606,-76 563,-76 563,-56 606,-56 606,-76"/>
<text xml:space="preserve" text-anchor="middle" x="584.5" y="-62.5" font-family="Helvetica,sans-Serif" font-size="10.00">vector</text>
</a>
</g>
</g>
<!-- Node2&#45;&gt;Node5 -->
<g id="edge4" class="edge">
<title>Node2&#45;&gt;Node5</title>
<path fill="none" stroke="#63b8ff" d="M413.02,-223.51C433.35,-215.88 460.66,-203.84 481.5,-188 520.49,-158.36 554.94,-111.64 572.39,-85.78"/>
<polygon fill="#63b8ff" stroke="#63b8ff" points="575.18,-87.91 577.77,-77.64 569.34,-84.05 575.18,-87.91"/>
</g>
<!-- Node6 -->
<g id="node6" class="node">
<title>Node6</title>
<g id="a_node6"><a xlink:title=" ">
<polygon fill="#e0e0e0" stroke="#999999" points="255.38,-20 217.62,-20 217.62,0 255.38,0 255.38,-20"/>
<text xml:space="preserve" text-anchor="middle" x="236.5" y="-6.5" font-family="Helvetica,sans-Serif" font-size="10.00">array</text>
</a>
</g>
</g>
<!-- Node2&#45;&gt;Node6 -->
<g id="edge5" class="edge">
<title>Node2&#45;&gt;Node6</title>
<path fill="none" stroke="#63b8ff" d="M337.11,-231.68C270.57,-228.72 154.61,-219.1 128.5,-188 83.31,-134.17 169.86,-59.5 213.5,-27.09"/>
<polygon fill="#63b8ff" stroke="#63b8ff" points="215.33,-30.08 221.36,-21.37 211.21,-24.42 215.33,-30.08"/>
</g>
<!-- Node2&#45;&gt;Node7 -->
<g id="edge6" class="edge">
<title>Node2&#45;&gt;Node7</title>
<path fill="none" stroke="#63b8ff" d="M431.89,-231.63C494,-228.6 605.61,-218.93 695.5,-188 742.94,-171.68 768.32,-175.39 793.5,-132 801.43,-118.33 798.67,-100.31 794.49,-86.71"/>
<polygon fill="#63b8ff" stroke="#63b8ff" points="797.88,-85.77 791.21,-77.54 791.29,-88.13 797.88,-85.77"/>
</g>
<!-- Node2&#45;&gt;Node9 -->
<g id="edge9" class="edge">
<title>Node2&#45;&gt;Node9</title>
<path fill="none" stroke="#63b8ff" d="M431.97,-223.78C487.25,-213.04 577.28,-195.55 626.89,-185.92"/>
<polygon fill="#63b8ff" stroke="#63b8ff" points="627.37,-189.39 636.52,-184.05 626.04,-182.52 627.37,-189.39"/>
</g>
<!-- Node16 -->
<g id="node16" class="node">
<title>Node16</title>
<g id="a_node16"><a xlink:title=" ">
<polygon fill="#e0e0e0" stroke="#999999" points="408.62,-188 360.38,-188 360.38,-168 408.62,-168 408.62,-188"/>
<text xml:space="preserve" text-anchor="middle" x="384.5" y="-174.5" font-family="Helvetica,sans-Serif" font-size="10.00">cassert</text>
</a>
</g>
</g>
<!-- Node2&#45;&gt;Node16 -->
<g id="edge23" class="edge">
<title>Node2&#45;&gt;Node16</title>
<path fill="none" stroke="#63b8ff" d="M384.5,-223.59C384.5,-217.01 384.5,-207.96 384.5,-199.73"/>
<polygon fill="#63b8ff" stroke="#63b8ff" points="388,-199.81 384.5,-189.81 381,-199.81 388,-199.81"/>
</g>
<!-- Node17 -->
<g id="node17" class="node">
<title>Node17</title>
<g id="a_node17"><a xlink:title=" ">
<polygon fill="#e0e0e0" stroke="#999999" points="472.12,-188 426.88,-188 426.88,-168 472.12,-168 472.12,-188"/>
<text xml:space="preserve" text-anchor="middle" x="449.5" y="-174.5" font-family="Helvetica,sans-Serif" font-size="10.00">variant</text>
</a>
</g>
</g>
<!-- Node2&#45;&gt;Node17 -->
<g id="edge24" class="edge">
<title>Node2&#45;&gt;Node17</title>
<path fill="none" stroke="#63b8ff" d="M395.82,-223.59C405.14,-215.85 418.58,-204.69 429.68,-195.47"/>
<polygon fill="#63b8ff" stroke="#63b8ff" points="431.69,-198.35 437.14,-189.27 427.21,-192.96 431.69,-198.35"/>
</g>
<!-- Node18 -->
<g id="node18" class="node">
<title>Node18</title>
<g id="a_node18"><a xlink:href="a00224.html" target="_top" xlink:title=" ">
<polygon fill="white" stroke="#666666" points="295.12,-188 237.88,-188 237.88,-168 295.12,-168 295.12,-188"/>
<text xml:space="preserve" text-anchor="middle" x="266.5" y="-174.5" font-family="Helvetica,sans-Serif" font-size="10.00">MultiRT.h</text>
</a>
</g>
</g>
<!-- Node2&#45;&gt;Node18 -->
<g id="edge25" class="edge">
<title>Node2&#45;&gt;Node18</title>
<path fill="none" stroke="#63b8ff" d="M363.95,-223.59C345.62,-215.21 318.51,-202.8 297.54,-193.21"/>
<polygon fill="#63b8ff" stroke="#63b8ff" points="299.14,-190.09 288.59,-189.11 296.23,-196.45 299.14,-190.09"/>
</g>
<!-- Node20 -->
<g id="node20" class="node">
<title>Node20</title>
<g id="a_node20"><a xlink:title=" ">
<polygon fill="#e0e0e0" stroke="#999999" points="219.88,-188 137.12,-188 137.12,-168 219.88,-168 219.88,-188"/>
<text xml:space="preserve" text-anchor="middle" x="178.5" y="-174.5" font-family="Helvetica,sans-Serif" font-size="10.00">unordered_map</text>
</a>
</g>
</g>
<!-- Node2&#45;&gt;Node20 -->
<g id="edge28" class="edge">
<title>Node2&#45;&gt;Node20</title>
<path fill="none" stroke="#63b8ff" d="M348.62,-223.59C314.56,-214.67 263.17,-201.19 225.78,-191.39"/>
<polygon fill="#63b8ff" stroke="#63b8ff" points="226.69,-188.01 216.13,-188.86 224.91,-194.78 226.69,-188.01"/>
</g>
<!-- Node7&#45;&gt;Node6 -->
<g id="edge7" class="edge">
<title>Node7&#45;&gt;Node6</title>
<path fill="none" stroke="#63b8ff" d="M763.57,-62.75C676.43,-54.19 365.8,-23.7 266.95,-13.99"/>
<polygon fill="#63b8ff" stroke="#63b8ff" points="267.51,-10.53 257.22,-13.03 266.83,-17.49 267.51,-10.53"/>
</g>
<!-- Node8 -->
<g id="node8" class="node">
<title>Node8</title>
<g id="a_node8"><a xlink:title=" ">
<polygon fill="#e0e0e0" stroke="#999999" points="812.12,-20 760.88,-20 760.88,0 812.12,0 812.12,-20"/>
<text xml:space="preserve" text-anchor="middle" x="786.5" y="-6.5" font-family="Helvetica,sans-Serif" font-size="10.00">ostream</text>
</a>
</g>
</g>
<!-- Node7&#45;&gt;Node8 -->
<g id="edge8" class="edge">
<title>Node7&#45;&gt;Node8</title>
<path fill="none" stroke="#63b8ff" d="M786.5,-55.59C786.5,-49.01 786.5,-39.96 786.5,-31.73"/>
<polygon fill="#63b8ff" stroke="#63b8ff" points="790,-31.81 786.5,-21.81 783,-31.81 790,-31.81"/>
</g>
<!-- Node9&#45;&gt;Node5 -->
<g id="edge11" class="edge">
<title>Node9&#45;&gt;Node5</title>
<path fill="none" stroke="#63b8ff" d="M655.85,-167.62C643.01,-149.52 614.6,-109.45 597.76,-85.7"/>
<polygon fill="#63b8ff" stroke="#63b8ff" points="600.65,-83.72 592.01,-77.59 594.94,-87.77 600.65,-83.72"/>
</g>
<!-- Node9&#45;&gt;Node7 -->
<g id="edge15" class="edge">
<title>Node9&#45;&gt;Node7</title>
<path fill="none" stroke="#63b8ff" d="M671.33,-167.87C683.88,-155.01 707.8,-131.01 729.5,-112 740.94,-101.98 754.26,-91.41 765.15,-83.03"/>
<polygon fill="#63b8ff" stroke="#63b8ff" points="766.94,-86.06 772.77,-77.22 762.7,-80.5 766.94,-86.06"/>
</g>
<!-- Node9&#45;&gt;Node10 -->
<g id="edge10" class="edge">
<title>Node9&#45;&gt;Node10</title>
<path fill="none" stroke="#63b8ff" d="M687.12,-171.72C728.77,-162.8 813.82,-144.57 867.27,-133.12"/>
<polygon fill="#63b8ff" stroke="#63b8ff" points="867.98,-136.55 877.02,-131.03 866.51,-129.7 867.98,-136.55"/>
</g>
<!-- Node9&#45;&gt;Node11 -->
<g id="edge12" class="edge">
<title>Node9&#45;&gt;Node11</title>
<path fill="none" stroke="#63b8ff" d="M679.74,-167.59C694.84,-159.36 717.03,-147.26 734.48,-137.74"/>
<polygon fill="#63b8ff" stroke="#63b8ff" points="735.69,-141.07 742.79,-133.2 732.34,-134.92 735.69,-141.07"/>
</g>
<!-- Node12 -->
<g id="node12" class="node">
<title>Node12</title>
<g id="a_node12"><a xlink:href="a00281.html" target="_top" xlink:title="Contains definitions for the Path structure.">
<polygon fill="white" stroke="#666666" points="510,-132 467,-132 467,-112 510,-112 510,-132"/>
<text xml:space="preserve" text-anchor="middle" x="488.5" y="-118.5" font-family="Helvetica,sans-Serif" font-size="10.00">path.h</text>
</a>
</g>
</g>
<!-- Node9&#45;&gt;Node12 -->
<g id="edge16" class="edge">
<title>Node9&#45;&gt;Node12</title>
<path fill="none" stroke="#63b8ff" d="M637.94,-169.38C607.39,-159.9 555.12,-143.68 521.2,-133.15"/>
<polygon fill="#63b8ff" stroke="#63b8ff" points="522.5,-129.89 511.91,-130.26 520.42,-136.57 522.5,-129.89"/>
</g>
<!-- Node9&#45;&gt;Node13 -->
<g id="edge22" class="edge">
<title>Node9&#45;&gt;Node13</title>
<path fill="none" stroke="#63b8ff" d="M647.66,-167.62C617.62,-148.63 549.32,-105.45 512.72,-82.31"/>
<polygon fill="#63b8ff" stroke="#63b8ff" points="514.9,-79.55 504.58,-77.16 511.16,-85.47 514.9,-79.55"/>
</g>
<!-- Node15 -->
<g id="node15" class="node">
<title>Node15</title>
<g id="a_node15"><a xlink:title=" ">
<polygon fill="#e0e0e0" stroke="#999999" points="682.88,-132 642.12,-132 642.12,-112 682.88,-112 682.88,-132"/>
<text xml:space="preserve" text-anchor="middle" x="662.5" y="-118.5" font-family="Helvetica,sans-Serif" font-size="10.00">Eigen</text>
</a>
</g>
</g>
<!-- Node9&#45;&gt;Node15 -->
<g id="edge21" class="edge">
<title>Node9&#45;&gt;Node15</title>
<path fill="none" stroke="#63b8ff" d="M662.5,-167.59C662.5,-161.01 662.5,-151.96 662.5,-143.73"/>
<polygon fill="#63b8ff" stroke="#63b8ff" points="666,-143.81 662.5,-133.81 659,-143.81 666,-143.81"/>
</g>
<!-- Node11&#45;&gt;Node5 -->
<g id="edge14" class="edge">
<title>Node11&#45;&gt;Node5</title>
<path fill="none" stroke="#63b8ff" d="M738.72,-114.05C707.8,-104.62 652.36,-87.7 617.06,-76.93"/>
<polygon fill="#63b8ff" stroke="#63b8ff" points="618.39,-73.68 607.8,-74.11 616.35,-80.38 618.39,-73.68"/>
</g>
<!-- Node11&#45;&gt;Node7 -->
<g id="edge13" class="edge">
<title>Node11&#45;&gt;Node7</title>
<path fill="none" stroke="#63b8ff" d="M765.85,-111.59C769.05,-104.7 773.49,-95.1 777.44,-86.57"/>
<polygon fill="#63b8ff" stroke="#63b8ff" points="780.53,-88.22 781.56,-77.67 774.18,-85.28 780.53,-88.22"/>
</g>
<!-- Node12&#45;&gt;Node5 -->
<g id="edge17" class="edge">
<title>Node12&#45;&gt;Node5</title>
<path fill="none" stroke="#63b8ff" d="M505.22,-111.59C519.72,-103.44 540.97,-91.48 557.82,-82"/>
<polygon fill="#63b8ff" stroke="#63b8ff" points="559.33,-85.17 566.33,-77.22 555.9,-79.07 559.33,-85.17"/>
</g>
<!-- Node12&#45;&gt;Node13 -->
<g id="edge18" class="edge">
<title>Node12&#45;&gt;Node13</title>
<path fill="none" stroke="#63b8ff" d="M488.5,-111.59C488.5,-105.01 488.5,-95.96 488.5,-87.73"/>
<polygon fill="#63b8ff" stroke="#63b8ff" points="492,-87.81 488.5,-77.81 485,-87.81 492,-87.81"/>
</g>
<!-- Node12&#45;&gt;Node14 -->
<g id="edge19" class="edge">
<title>Node12&#45;&gt;Node14</title>
<path fill="none" stroke="#63b8ff" d="M466.58,-118.29C398.52,-109.86 189.86,-84.01 97.4,-72.56"/>
<polygon fill="#63b8ff" stroke="#63b8ff" points="98.05,-69.12 87.7,-71.36 97.19,-76.06 98.05,-69.12"/>
</g>
<!-- Node14&#45;&gt;Node3 -->
<g id="edge20" class="edge">
<title>Node14&#45;&gt;Node3</title>
<path fill="none" stroke="#63b8ff" d="M47.1,-55.59C43.06,-48.55 37.38,-38.67 32.41,-30"/>
<polygon fill="#63b8ff" stroke="#63b8ff" points="35.61,-28.54 27.59,-21.61 29.53,-32.03 35.61,-28.54"/>
</g>
<!-- Node18&#45;&gt;Node6 -->
<g id="edge26" class="edge">
<title>Node18&#45;&gt;Node6</title>
<path fill="none" stroke="#63b8ff" d="M264,-167.74C261.6,-158.68 258,-144.46 255.5,-132 248.49,-97.01 242.5,-55.89 239.21,-31.72"/>
<polygon fill="#63b8ff" stroke="#63b8ff" points="242.7,-31.41 237.91,-21.96 235.77,-32.34 242.7,-31.41"/>
</g>
<!-- Node19 -->
<g id="node19" class="node">
<title>Node19</title>
<g id="a_node19"><a xlink:href="a00218.html" target="_top" xlink:title=" ">
<polygon fill="white" stroke="#666666" points="328.12,-132 264.88,-132 264.88,-112 328.12,-112 328.12,-132"/>
<text xml:space="preserve" text-anchor="middle" x="296.5" y="-118.5" font-family="Helvetica,sans-Serif" font-size="10.00">HitStruct.h</text>
</a>
</g>
</g>
<!-- Node18&#45;&gt;Node19 -->
<g id="edge27" class="edge">
<title>Node18&#45;&gt;Node19</title>
<path fill="none" stroke="#63b8ff" d="M271.73,-167.59C275.6,-160.63 281.01,-150.89 285.78,-142.29"/>
<polygon fill="#63b8ff" stroke="#63b8ff" points="288.8,-144.06 290.6,-133.62 282.68,-140.66 288.8,-144.06"/>
</g>
<!-- Node22&#45;&gt;Node7 -->
<g id="edge38" class="edge">
<title>Node22&#45;&gt;Node7</title>
<path fill="none" stroke="#63b8ff" d="M982.71,-167.53C981.01,-153.35 975.73,-126.69 959.5,-112 921.12,-77.25 859.28,-68.68 820.87,-66.93"/>
<polygon fill="#63b8ff" stroke="#63b8ff" points="821.13,-63.43 811.03,-66.62 820.91,-70.43 821.13,-63.43"/>
</g>
<!-- Node22&#45;&gt;Node10 -->
<g id="edge36" class="edge">
<title>Node22&#45;&gt;Node10</title>
<path fill="none" stroke="#63b8ff" d="M971.48,-167.59C961.49,-159.77 947.04,-148.46 935.19,-139.19"/>
<polygon fill="#63b8ff" stroke="#63b8ff" points="937.61,-136.64 927.57,-133.23 933.29,-142.15 937.61,-136.64"/>
</g>
<!-- Node23 -->
<g id="node23" class="node">
<title>Node23</title>
<g id="a_node23"><a xlink:title=" ">
<polygon fill="#e0e0e0" stroke="#999999" points="1048.62,-132 1006.38,-132 1006.38,-112 1048.62,-112 1048.62,-132"/>
<text xml:space="preserve" text-anchor="middle" x="1027.5" y="-118.5" font-family="Helvetica,sans-Serif" font-size="10.00">queue</text>
</a>
</g>
</g>
<!-- Node22&#45;&gt;Node23 -->
<g id="edge37" class="edge">
<title>Node22&#45;&gt;Node23</title>
<path fill="none" stroke="#63b8ff" d="M991.16,-167.59C997.09,-160.32 1005.49,-150.02 1012.71,-141.15"/>
<polygon fill="#63b8ff" stroke="#63b8ff" points="1015.36,-143.43 1018.97,-133.47 1009.94,-139.01 1015.36,-143.43"/>
</g>
</g>
</svg>
