<?xml version="1.0" encoding="UTF-8" standalone="no"?>
<!DOCTYPE svg PUBLIC "-//W3C//DTD SVG 1.1//EN"
 "http://www.w3.org/Graphics/SVG/1.1/DTD/svg11.dtd">
<!-- Generated by graphviz version 13.1.2 (20250808.2320)
 -->
<!-- Title: Cpp/exceptions/src/HFExceptions.cpp Pages: 1 -->
<svg width="206pt" height="152pt"
 viewBox="0.00 0.00 206.00 152.00" xmlns="http://www.w3.org/2000/svg" xmlns:xlink="http://www.w3.org/1999/xlink">
<g id="graph0" class="graph" transform="scale(1 1) rotate(0) translate(4 148)">
<title>Cpp/exceptions/src/HFExceptions.cpp</title>
<!-- Node1 -->
<g id="node1" class="node">
<title>Node1</title>
<g id="a_node1"><a xlink:title="Contains implementation for the Exceptions namespace.">
<polygon fill="#999999" stroke="#666666" points="149.38,-144 48.62,-144 48.62,-112 149.38,-112 149.38,-144"/>
<text xml:space="preserve" text-anchor="start" x="56.62" y="-130.5" font-family="Helvetica,sans-Serif" font-size="10.00">Cpp/exceptions/src</text>
<text xml:space="preserve" text-anchor="middle" x="99" y="-118.5" font-family="Helvetica,sans-Serif" font-size="10.00">/HFExceptions.cpp</text>
</a>
</g>
</g>
<!-- Node2 -->
<g id="node2" class="node">
<title>Node2</title>
<g id="a_node2"><a xlink:href="a00176.html" target="_top" xlink:title="Contains definitions for the Exceptions namespace.">
<polygon fill="white" stroke="#666666" points="142.25,-76 55.75,-76 55.75,-56 142.25,-56 142.25,-76"/>
<text xml:space="preserve" text-anchor="middle" x="99" y="-62.5" font-family="Helvetica,sans-Serif" font-size="10.00">HFExceptions.h</text>
</a>
</g>
</g>
<!-- Node1&#45;&gt;Node2 -->
<g id="edge1" class="edge">
<title>Node1&#45;&gt;Node2</title>
<path fill="none" stroke="#63b8ff" d="M99,-111.55C99,-104.34 99,-95.66 99,-87.88"/>
<polygon fill="#63b8ff" stroke="#63b8ff" points="102.5,-87.92 99,-77.92 95.5,-87.92 102.5,-87.92"/>
</g>
<!-- Node3 -->
<g id="node3" class="node">
<title>Node3</title>
<g id="a_node3"><a xlink:title=" ">
<polygon fill="#e0e0e0" stroke="#999999" points="58,-20 0,-20 0,0 58,0 58,-20"/>
<text xml:space="preserve" text-anchor="middle" x="29" y="-6.5" font-family="Helvetica,sans-Serif" font-size="10.00">exception</text>
</a>
</g>
</g>
<!-- Node2&#45;&gt;Node3 -->
<g id="edge2" class="edge">
<title>Node2&#45;&gt;Node3</title>
<path fill="none" stroke="#63b8ff" d="M86.81,-55.59C76.67,-47.77 62.01,-36.46 49.99,-27.19"/>
<polygon fill="#63b8ff" stroke="#63b8ff" points="52.31,-24.56 42.25,-21.22 48.03,-30.1 52.31,-24.56"/>
</g>
<!-- Node4 -->
<g id="node4" class="node">
<title>Node4</title>
<g id="a_node4"><a xlink:title=" ">
<polygon fill="#e0e0e0" stroke="#999999" points="121.62,-20 76.38,-20 76.38,0 121.62,0 121.62,-20"/>
<text xml:space="preserve" text-anchor="middle" x="99" y="-6.5" font-family="Helvetica,sans-Serif" font-size="10.00">cstring</text>
</a>
</g>
</g>
<!-- Node2&#45;&gt;Node4 -->
<g id="edge3" class="edge">
<title>Node2&#45;&gt;Node4</title>
<path fill="none" stroke="#63b8ff" d="M99,-55.59C99,-49.01 99,-39.96 99,-31.73"/>
<polygon fill="#63b8ff" stroke="#63b8ff" points="102.5,-31.81 99,-21.81 95.5,-31.81 102.5,-31.81"/>
</g>
<!-- Node5 -->
<g id="node5" class="node">
<title>Node5</title>
<g id="a_node5"><a xlink:title=" ">
<polygon fill="#e0e0e0" stroke="#999999" points="198.38,-20 139.62,-20 139.62,0 198.38,0 198.38,-20"/>
<text xml:space="preserve" text-anchor="middle" x="169" y="-6.5" font-family="Helvetica,sans-Serif" font-size="10.00">stdexcept</text>
</a>
</g>
</g>
<!-- Node2&#45;&gt;Node5 -->
<g id="edge4" class="edge">
<title>Node2&#45;&gt;Node5</title>
<path fill="none" stroke="#63b8ff" d="M111.19,-55.59C121.33,-47.77 135.99,-36.46 148.01,-27.19"/>
<polygon fill="#63b8ff" stroke="#63b8ff" points="149.97,-30.1 155.75,-21.22 145.69,-24.56 149.97,-30.1"/>
</g>
</g>
</svg>
