<?xml version="1.0" encoding="UTF-8" standalone="no"?>
<!DOCTYPE svg PUBLIC "-//W3C//DTD SVG 1.1//EN"
 "http://www.w3.org/Graphics/SVG/1.1/DTD/svg11.dtd">
<!-- Generated by graphviz version 13.1.2 (20250808.2320)
 -->
<!-- Title: Cpp/exceptions/src/HFExceptions.h Pages: 1 -->
<svg width="206pt" height="96pt"
 viewBox="0.00 0.00 206.00 96.00" xmlns="http://www.w3.org/2000/svg" xmlns:xlink="http://www.w3.org/1999/xlink">
<g id="graph0" class="graph" transform="scale(1 1) rotate(0) translate(4 92)">
<title>Cpp/exceptions/src/HFExceptions.h</title>
<!-- Node1 -->
<g id="node1" class="node">
<title>Node1</title>
<g id="a_node1"><a xlink:title="Contains definitions for the Exceptions namespace.">
<polygon fill="#999999" stroke="#666666" points="149.38,-88 48.62,-88 48.62,-56 149.38,-56 149.38,-88"/>
<text xml:space="preserve" text-anchor="start" x="56.62" y="-74.5" font-family="Helvetica,sans-Serif" font-size="10.00">Cpp/exceptions/src</text>
<text xml:space="preserve" text-anchor="middle" x="99" y="-62.5" font-family="Helvetica,sans-Serif" font-size="10.00">/HFExceptions.h</text>
</a>
</g>
</g>
<!-- Node2 -->
<g id="node2" class="node">
<title>Node2</title>
<g id="a_node2"><a xlink:title=" ">
<polygon fill="#e0e0e0" stroke="#999999" points="58,-20 0,-20 0,0 58,0 58,-20"/>
<text xml:space="preserve" text-anchor="middle" x="29" y="-6.5" font-family="Helvetica,sans-Serif" font-size="10.00">exception</text>
</a>
</g>
</g>
<!-- Node1&#45;&gt;Node2 -->
<g id="edge1" class="edge">
<title>Node1&#45;&gt;Node2</title>
<path fill="none" stroke="#63b8ff" d="M80.97,-55.55C71.05,-47.04 58.72,-36.48 48.56,-27.77"/>
<polygon fill="#63b8ff" stroke="#63b8ff" points="51,-25.24 41.13,-21.39 46.44,-30.56 51,-25.24"/>
</g>
<!-- Node3 -->
<g id="node3" class="node">
<title>Node3</title>
<g id="a_node3"><a xlink:title=" ">
<polygon fill="#e0e0e0" stroke="#999999" points="121.62,-20 76.38,-20 76.38,0 121.62,0 121.62,-20"/>
<text xml:space="preserve" text-anchor="middle" x="99" y="-6.5" font-family="Helvetica,sans-Serif" font-size="10.00">cstring</text>
</a>
</g>
</g>
<!-- Node1&#45;&gt;Node3 -->
<g id="edge2" class="edge">
<title>Node1&#45;&gt;Node3</title>
<path fill="none" stroke="#63b8ff" d="M99,-55.55C99,-48.34 99,-39.66 99,-31.88"/>
<polygon fill="#63b8ff" stroke="#63b8ff" points="102.5,-31.92 99,-21.92 95.5,-31.92 102.5,-31.92"/>
</g>
<!-- Node4 -->
<g id="node4" class="node">
<title>Node4</title>
<g id="a_node4"><a xlink:title=" ">
<polygon fill="#e0e0e0" stroke="#999999" points="198.38,-20 139.62,-20 139.62,0 198.38,0 198.38,-20"/>
<text xml:space="preserve" text-anchor="middle" x="169" y="-6.5" font-family="Helvetica,sans-Serif" font-size="10.00">stdexcept</text>
</a>
</g>
</g>
<!-- Node1&#45;&gt;Node4 -->
<g id="edge3" class="edge">
<title>Node1&#45;&gt;Node4</title>
<path fill="none" stroke="#63b8ff" d="M117.03,-55.55C126.95,-47.04 139.28,-36.48 149.44,-27.77"/>
<polygon fill="#63b8ff" stroke="#63b8ff" points="151.56,-30.56 156.87,-21.39 147,-25.24 151.56,-30.56"/>
</g>
</g>
</svg>
