<?xml version="1.0" encoding="UTF-8" standalone="no"?>
<!DOCTYPE svg PUBLIC "-//W3C//DTD SVG 1.1//EN"
 "http://www.w3.org/Graphics/SVG/1.1/DTD/svg11.dtd">
<!-- Generated by graphviz version 13.1.2 (20250808.2320)
 -->
<!-- Title: Cpp/exceptions/src/HFExceptions.h Pages: 1 -->
<svg width="1875pt" height="108pt"
 viewBox="0.00 0.00 1875.00 108.00" xmlns="http://www.w3.org/2000/svg" xmlns:xlink="http://www.w3.org/1999/xlink">
<g id="graph0" class="graph" transform="scale(1 1) rotate(0) translate(4 104)">
<title>Cpp/exceptions/src/HFExceptions.h</title>
<!-- Node1 -->
<g id="node1" class="node">
<title>Node1</title>
<g id="a_node1"><a xlink:title="Contains definitions for the Exceptions namespace.">
<polygon fill="#999999" stroke="#666666" points="941.38,-100 840.62,-100 840.62,-68 941.38,-68 941.38,-100"/>
<text xml:space="preserve" text-anchor="start" x="848.62" y="-86.5" font-family="Helvetica,sans-Serif" font-size="10.00">Cpp/exceptions/src</text>
<text xml:space="preserve" text-anchor="middle" x="891" y="-74.5" font-family="Helvetica,sans-Serif" font-size="10.00">/HFExceptions.h</text>
</a>
</g>
</g>
<!-- Node2 -->
<g id="node2" class="node">
<title>Node2</title>
<g id="a_node2"><a xlink:href="a00404.html" target="_top" xlink:title=" ">
<polygon fill="white" stroke="#666666" points="100,-32 0,-32 0,0 100,0 100,-32"/>
<text xml:space="preserve" text-anchor="start" x="8" y="-18.5" font-family="Helvetica,sans-Serif" font-size="10.00">Cinterface/analysis</text>
<text xml:space="preserve" text-anchor="middle" x="50" y="-6.5" font-family="Helvetica,sans-Serif" font-size="10.00">_C.cpp</text>
</a>
</g>
</g>
<!-- Node1&#45;&gt;Node2 -->
<g id="edge1" class="edge">
<title>Node1&#45;&gt;Node2</title>
<path fill="none" stroke="#63b8ff" d="M829.21,-82.82C696.5,-81.58 374.71,-74.08 109,-32 106.18,-31.55 103.3,-31.03 100.4,-30.46"/>
<polygon fill="#63b8ff" stroke="#63b8ff" points="828.78,-86.31 838.81,-82.9 828.84,-79.31 828.78,-86.31"/>
</g>
<!-- Node3 -->
<g id="node3" class="node">
<title>Node3</title>
<g id="a_node3"><a xlink:href="a00410.html" target="_top" xlink:title=" ">
<polygon fill="white" stroke="#666666" points="224.38,-32 117.62,-32 117.62,0 224.38,0 224.38,-32"/>
<text xml:space="preserve" text-anchor="start" x="125.62" y="-18.5" font-family="Helvetica,sans-Serif" font-size="10.00">Cinterface/cinterface</text>
<text xml:space="preserve" text-anchor="middle" x="171" y="-6.5" font-family="Helvetica,sans-Serif" font-size="10.00">_utils.cpp</text>
</a>
</g>
</g>
<!-- Node1&#45;&gt;Node3 -->
<g id="edge2" class="edge">
<title>Node1&#45;&gt;Node3</title>
<path fill="none" stroke="#63b8ff" d="M829.11,-81.5C712.04,-77.94 450.39,-66.49 233,-32 230.27,-31.57 227.47,-31.07 224.66,-30.54"/>
<polygon fill="#63b8ff" stroke="#63b8ff" points="828.71,-84.99 838.81,-81.79 828.92,-77.99 828.71,-84.99"/>
</g>
<!-- Node4 -->
<g id="node4" class="node">
<title>Node4</title>
<g id="a_node4"><a xlink:href="a00416.html" target="_top" xlink:title=" ">
<polygon fill="white" stroke="#666666" points="345.5,-32 242.5,-32 242.5,0 345.5,0 345.5,-32"/>
<text xml:space="preserve" text-anchor="start" x="250.5" y="-18.5" font-family="Helvetica,sans-Serif" font-size="10.00">Cinterface/objloader</text>
<text xml:space="preserve" text-anchor="middle" x="294" y="-6.5" font-family="Helvetica,sans-Serif" font-size="10.00">_C.cpp</text>
</a>
</g>
</g>
<!-- Node1&#45;&gt;Node4 -->
<g id="edge3" class="edge">
<title>Node1&#45;&gt;Node4</title>
<path fill="none" stroke="#63b8ff" d="M829.02,-80.05C728.8,-74.63 525.21,-60.87 355,-32 351.99,-31.49 348.91,-30.91 345.81,-30.29"/>
<polygon fill="#63b8ff" stroke="#63b8ff" points="828.74,-83.54 838.92,-80.58 829.12,-76.55 828.74,-83.54"/>
</g>
<!-- Node5 -->
<g id="node5" class="node">
<title>Node5</title>
<g id="a_node5"><a xlink:href="a00422.html" target="_top" xlink:title=" ">
<polygon fill="white" stroke="#666666" points="470.38,-32 363.62,-32 363.62,0 470.38,0 470.38,-32"/>
<text xml:space="preserve" text-anchor="start" x="371.62" y="-18.5" font-family="Helvetica,sans-Serif" font-size="10.00">Cinterface/pathfinder</text>
<text xml:space="preserve" text-anchor="middle" x="417" y="-6.5" font-family="Helvetica,sans-Serif" font-size="10.00">_C.cpp</text>
</a>
</g>
</g>
<!-- Node1&#45;&gt;Node5 -->
<g id="edge4" class="edge">
<title>Node1&#45;&gt;Node5</title>
<path fill="none" stroke="#63b8ff" d="M829,-77.46C748.25,-69.75 602.91,-54.19 480,-32 477.01,-31.46 473.95,-30.87 470.87,-30.24"/>
<polygon fill="#63b8ff" stroke="#63b8ff" points="828.64,-80.94 838.92,-78.39 829.3,-73.97 828.64,-80.94"/>
</g>
<!-- Node6 -->
<g id="node6" class="node">
<title>Node6</title>
<g id="a_node6"><a xlink:href="a00428.html" target="_top" xlink:title=" ">
<polygon fill="white" stroke="#666666" points="591.12,-32 488.88,-32 488.88,0 591.12,0 591.12,-32"/>
<text xml:space="preserve" text-anchor="start" x="496.88" y="-18.5" font-family="Helvetica,sans-Serif" font-size="10.00">Cinterface/raytracer</text>
<text xml:space="preserve" text-anchor="middle" x="540" y="-6.5" font-family="Helvetica,sans-Serif" font-size="10.00">_C.cpp</text>
</a>
</g>
</g>
<!-- Node1&#45;&gt;Node6 -->
<g id="edge5" class="edge">
<title>Node1&#45;&gt;Node6</title>
<path fill="none" stroke="#63b8ff" d="M829.32,-73.5C770.24,-64.1 678.71,-48.71 600,-32 597.16,-31.4 594.26,-30.76 591.33,-30.09"/>
<polygon fill="#63b8ff" stroke="#63b8ff" points="828.4,-76.9 838.83,-75.01 829.5,-69.99 828.4,-76.9"/>
</g>
<!-- Node7 -->
<g id="node7" class="node">
<title>Node7</title>
<g id="a_node7"><a xlink:href="a00434.html" target="_top" xlink:title=" ">
<polygon fill="white" stroke="#666666" points="745,-32 609,-32 609,0 745,0 745,-32"/>
<text xml:space="preserve" text-anchor="start" x="617" y="-18.5" font-family="Helvetica,sans-Serif" font-size="10.00">Cinterface/spatialstructures</text>
<text xml:space="preserve" text-anchor="middle" x="677" y="-6.5" font-family="Helvetica,sans-Serif" font-size="10.00">_C.cpp</text>
</a>
</g>
</g>
<!-- Node1&#45;&gt;Node7 -->
<g id="edge6" class="edge">
<title>Node1&#45;&gt;Node7</title>
<path fill="none" stroke="#63b8ff" d="M830.08,-64.21C797.55,-54.18 757.98,-41.98 727.23,-32.49"/>
<polygon fill="#63b8ff" stroke="#63b8ff" points="828.79,-67.48 839.38,-67.08 830.86,-60.79 828.79,-67.48"/>
</g>
<!-- Node8 -->
<g id="node8" class="node">
<title>Node8</title>
<g id="a_node8"><a xlink:href="a00440.html" target="_top" xlink:title=" ">
<polygon fill="white" stroke="#666666" points="888.75,-32 763.25,-32 763.25,0 888.75,0 888.75,-32"/>
<text xml:space="preserve" text-anchor="start" x="771.25" y="-18.5" font-family="Helvetica,sans-Serif" font-size="10.00">Cinterface/view_analysis</text>
<text xml:space="preserve" text-anchor="middle" x="826" y="-6.5" font-family="Helvetica,sans-Serif" font-size="10.00">_C.cpp</text>
</a>
</g>
</g>
<!-- Node1&#45;&gt;Node8 -->
<g id="edge7" class="edge">
<title>Node1&#45;&gt;Node8</title>
<path fill="none" stroke="#63b8ff" d="M868.06,-59.71C859.08,-50.59 849.02,-40.37 840.99,-32.22"/>
<polygon fill="#63b8ff" stroke="#63b8ff" points="865.35,-61.95 874.86,-66.61 870.34,-57.03 865.35,-61.95"/>
</g>
<!-- Node9 -->
<g id="node9" class="node">
<title>Node9</title>
<g id="a_node9"><a xlink:href="a00446.html" target="_top" xlink:title=" ">
<polygon fill="white" stroke="#666666" points="1005.62,-32 906.38,-32 906.38,0 1005.62,0 1005.62,-32"/>
<text xml:space="preserve" text-anchor="start" x="914.38" y="-18.5" font-family="Helvetica,sans-Serif" font-size="10.00">Cinterface/visibility</text>
<text xml:space="preserve" text-anchor="middle" x="956" y="-6.5" font-family="Helvetica,sans-Serif" font-size="10.00">_graph_C.cpp</text>
</a>
</g>
</g>
<!-- Node1&#45;&gt;Node9 -->
<g id="edge8" class="edge">
<title>Node1&#45;&gt;Node9</title>
<path fill="none" stroke="#63b8ff" d="M913.94,-59.71C922.92,-50.59 932.98,-40.37 941.01,-32.22"/>
<polygon fill="#63b8ff" stroke="#63b8ff" points="911.66,-57.03 907.14,-66.61 916.65,-61.95 911.66,-57.03"/>
</g>
<!-- Node10 -->
<g id="node10" class="node">
<title>Node10</title>
<g id="a_node10"><a xlink:href="a00173.html" target="_top" xlink:title="Contains implementation for the Exceptions namespace.">
<polygon fill="white" stroke="#666666" points="1124.38,-32 1023.62,-32 1023.62,0 1124.38,0 1124.38,-32"/>
<text xml:space="preserve" text-anchor="start" x="1031.62" y="-18.5" font-family="Helvetica,sans-Serif" font-size="10.00">Cpp/exceptions/src</text>
<text xml:space="preserve" text-anchor="middle" x="1074" y="-6.5" font-family="Helvetica,sans-Serif" font-size="10.00">/HFExceptions.cpp</text>
</a>
</g>
</g>
<!-- Node1&#45;&gt;Node10 -->
<g id="edge9" class="edge">
<title>Node1&#45;&gt;Node10</title>
<path fill="none" stroke="#63b8ff" d="M944.55,-63.69C972.09,-53.76 1005.2,-41.81 1031.05,-32.49"/>
<polygon fill="#63b8ff" stroke="#63b8ff" points="943.55,-60.33 935.33,-67.01 945.92,-66.91 943.55,-60.33"/>
</g>
<!-- Node11 -->
<g id="node11" class="node">
<title>Node11</title>
<g id="a_node11"><a xlink:href="a00182.html" target="_top" xlink:title="Contains implementation for the MeshInfo class.">
<polygon fill="white" stroke="#666666" points="1296,-26 1142,-26 1142,-6 1296,-6 1296,-26"/>
<text xml:space="preserve" text-anchor="middle" x="1219" y="-12.5" font-family="Helvetica,sans-Serif" font-size="10.00">Cpp/objloader/src/meshinfo.cpp</text>
</a>
</g>
</g>
<!-- Node1&#45;&gt;Node11 -->
<g id="edge10" class="edge">
<title>Node1&#45;&gt;Node11</title>
<path fill="none" stroke="#63b8ff" d="M952.61,-70.6C1016.24,-57.8 1114.15,-38.1 1171.87,-26.48"/>
<polygon fill="#63b8ff" stroke="#63b8ff" points="952.13,-67.13 943.01,-72.53 953.51,-73.99 952.13,-67.13"/>
</g>
<!-- Node12 -->
<g id="node12" class="node">
<title>Node12</title>
<g id="a_node12"><a xlink:href="a00188.html" target="_top" xlink:title="Contains implementation for the Geometry namespace.">
<polygon fill="white" stroke="#666666" points="1467.62,-26 1314.38,-26 1314.38,-6 1467.62,-6 1467.62,-26"/>
<text xml:space="preserve" text-anchor="middle" x="1391" y="-12.5" font-family="Helvetica,sans-Serif" font-size="10.00">Cpp/objloader/src/objloader.cpp</text>
</a>
</g>
</g>
<!-- Node1&#45;&gt;Node12 -->
<g id="edge11" class="edge">
<title>Node1&#45;&gt;Node12</title>
<path fill="none" stroke="#63b8ff" d="M952.77,-76.37C1033.79,-67.45 1180.32,-50.54 1305,-32 1316.09,-30.35 1327.96,-28.4 1339.22,-26.46"/>
<polygon fill="#63b8ff" stroke="#63b8ff" points="952.84,-72.84 943.28,-77.41 953.6,-79.8 952.84,-72.84"/>
</g>
<!-- Node13 -->
<g id="node13" class="node">
<title>Node13</title>
<g id="a_node13"><a xlink:href="a00209.html" target="_top" xlink:title="Contains implementation for the EmbreeRayTracer">
<polygon fill="white" stroke="#666666" points="1612.5,-32 1485.5,-32 1485.5,0 1612.5,0 1612.5,-32"/>
<text xml:space="preserve" text-anchor="start" x="1493.5" y="-18.5" font-family="Helvetica,sans-Serif" font-size="10.00">Cpp/raytracer/src/embree</text>
<text xml:space="preserve" text-anchor="middle" x="1549" y="-6.5" font-family="Helvetica,sans-Serif" font-size="10.00">_raytracer.cpp</text>
</a>
</g>
</g>
<!-- Node1&#45;&gt;Node13 -->
<g id="edge12" class="edge">
<title>Node1&#45;&gt;Node13</title>
<path fill="none" stroke="#63b8ff" d="M953.03,-80.02C1060.29,-74.34 1287.16,-59.94 1477,-32 1479.65,-31.61 1482.35,-31.18 1485.08,-30.73"/>
<polygon fill="#63b8ff" stroke="#63b8ff" points="953.11,-76.52 943.3,-80.53 953.47,-83.51 953.11,-76.52"/>
</g>
<!-- Node14 -->
<g id="node14" class="node">
<title>Node14</title>
<g id="a_node14"><a xlink:href="a00245.html" target="_top" xlink:title="Contains implementation for the CInterface.">
<polygon fill="white" stroke="#666666" points="1739.5,-32 1630.5,-32 1630.5,0 1739.5,0 1739.5,-32"/>
<text xml:space="preserve" text-anchor="start" x="1638.5" y="-18.5" font-family="Helvetica,sans-Serif" font-size="10.00">Cpp/spatialstructures</text>
<text xml:space="preserve" text-anchor="middle" x="1685" y="-6.5" font-family="Helvetica,sans-Serif" font-size="10.00">/src/CInterface.cpp</text>
</a>
</g>
</g>
<!-- Node1&#45;&gt;Node14 -->
<g id="edge13" class="edge">
<title>Node1&#45;&gt;Node14</title>
<path fill="none" stroke="#63b8ff" d="M953.18,-82.09C1079.78,-79.5 1376.27,-69.57 1622,-32 1624.67,-31.59 1627.39,-31.13 1630.13,-30.62"/>
<polygon fill="#63b8ff" stroke="#63b8ff" points="953.27,-78.59 943.34,-82.29 953.41,-85.59 953.27,-78.59"/>
</g>
<!-- Node15 -->
<g id="node15" class="node">
<title>Node15</title>
<g id="a_node15"><a xlink:href="a00266.html" target="_top" xlink:title="Contains implementation for the Graph class.">
<polygon fill="white" stroke="#666666" points="1866.5,-32 1757.5,-32 1757.5,0 1866.5,0 1866.5,-32"/>
<text xml:space="preserve" text-anchor="start" x="1765.5" y="-18.5" font-family="Helvetica,sans-Serif" font-size="10.00">Cpp/spatialstructures</text>
<text xml:space="preserve" text-anchor="middle" x="1812" y="-6.5" font-family="Helvetica,sans-Serif" font-size="10.00">/src/graph.cpp</text>
</a>
</g>
</g>
<!-- Node1&#45;&gt;Node15 -->
<g id="edge14" class="edge">
<title>Node1&#45;&gt;Node15</title>
<path fill="none" stroke="#63b8ff" d="M953.04,-83.01C1094.84,-82.22 1453.21,-75.66 1749,-32 1751.67,-31.61 1754.39,-31.15 1757.13,-30.66"/>
<polygon fill="#63b8ff" stroke="#63b8ff" points="953.1,-79.51 943.12,-83.05 953.13,-86.51 953.1,-79.51"/>
</g>
</g>
</svg>
