<?xml version="1.0" encoding="UTF-8" standalone="no"?>
<!DOCTYPE svg PUBLIC "-//W3C//DTD SVG 1.1//EN"
 "http://www.w3.org/Graphics/SVG/1.1/DTD/svg11.dtd">
<!-- Generated by graphviz version 13.1.2 (20250808.2320)
 -->
<!-- Title: Cpp/objloader/src/objloader.h Pages: 1 -->
<svg width="207pt" height="140pt"
 viewBox="0.00 0.00 207.00 140.00" xmlns="http://www.w3.org/2000/svg" xmlns:xlink="http://www.w3.org/1999/xlink">
<g id="graph0" class="graph" transform="scale(1 1) rotate(0) translate(4 136)">
<title>Cpp/objloader/src/objloader.h</title>
<!-- Node1 -->
<g id="node1" class="node">
<title>Node1</title>
<g id="a_node1"><a xlink:title="Contains definitions for the Geometry namespace.">
<polygon fill="#999999" stroke="#666666" points="152.88,-132 10.12,-132 10.12,-112 152.88,-112 152.88,-132"/>
<text xml:space="preserve" text-anchor="middle" x="81.5" y="-118.5" font-family="Helvetica,sans-Serif" font-size="10.00">Cpp/objloader/src/objloader.h</text>
</a>
</g>
</g>
<!-- Node2 -->
<g id="node2" class="node">
<title>Node2</title>
<g id="a_node2"><a xlink:title=" ">
<polygon fill="#e0e0e0" stroke="#999999" points="43,-76 0,-76 0,-56 43,-56 43,-76"/>
<text xml:space="preserve" text-anchor="middle" x="21.5" y="-62.5" font-family="Helvetica,sans-Serif" font-size="10.00">vector</text>
</a>
</g>
</g>
<!-- Node1&#45;&gt;Node2 -->
<g id="edge1" class="edge">
<title>Node1&#45;&gt;Node2</title>
<path fill="none" stroke="#63b8ff" d="M71.05,-111.59C62.53,-103.93 50.29,-92.91 40.11,-83.75"/>
<polygon fill="#63b8ff" stroke="#63b8ff" points="42.73,-81.4 32.96,-77.31 38.05,-86.6 42.73,-81.4"/>
</g>
<!-- Node3 -->
<g id="node3" class="node">
<title>Node3</title>
<g id="a_node3"><a xlink:title=" ">
<polygon fill="#e0e0e0" stroke="#999999" points="101.5,-76 61.5,-76 61.5,-56 101.5,-56 101.5,-76"/>
<text xml:space="preserve" text-anchor="middle" x="81.5" y="-62.5" font-family="Helvetica,sans-Serif" font-size="10.00">string</text>
</a>
</g>
</g>
<!-- Node1&#45;&gt;Node3 -->
<g id="edge2" class="edge">
<title>Node1&#45;&gt;Node3</title>
<path fill="none" stroke="#63b8ff" d="M81.5,-111.59C81.5,-105.01 81.5,-95.96 81.5,-87.73"/>
<polygon fill="#63b8ff" stroke="#63b8ff" points="85,-87.81 81.5,-77.81 78,-87.81 85,-87.81"/>
</g>
<!-- Node4 -->
<g id="node4" class="node">
<title>Node4</title>
<g id="a_node4"><a xlink:href="a00185.html" target="_top" xlink:title="Contains definitions for the MeshInfo class.">
<polygon fill="white" stroke="#666666" points="183.5,-76 119.5,-76 119.5,-56 183.5,-56 183.5,-76"/>
<text xml:space="preserve" text-anchor="middle" x="151.5" y="-62.5" font-family="Helvetica,sans-Serif" font-size="10.00">meshinfo.h</text>
</a>
</g>
</g>
<!-- Node1&#45;&gt;Node4 -->
<g id="edge3" class="edge">
<title>Node1&#45;&gt;Node4</title>
<path fill="none" stroke="#63b8ff" d="M93.69,-111.59C103.83,-103.77 118.49,-92.46 130.51,-83.19"/>
<polygon fill="#63b8ff" stroke="#63b8ff" points="132.47,-86.1 138.25,-77.22 128.19,-80.56 132.47,-86.1"/>
</g>
<!-- Node5 -->
<g id="node5" class="node">
<title>Node5</title>
<g id="a_node5"><a xlink:title=" ">
<polygon fill="#e0e0e0" stroke="#999999" points="143.75,-20 99.25,-20 99.25,0 143.75,0 143.75,-20"/>
<text xml:space="preserve" text-anchor="middle" x="121.5" y="-6.5" font-family="Helvetica,sans-Serif" font-size="10.00">Dense</text>
</a>
</g>
</g>
<!-- Node4&#45;&gt;Node5 -->
<g id="edge4" class="edge">
<title>Node4&#45;&gt;Node5</title>
<path fill="none" stroke="#63b8ff" d="M146.27,-55.59C142.4,-48.63 136.99,-38.89 132.22,-30.29"/>
<polygon fill="#63b8ff" stroke="#63b8ff" points="135.32,-28.66 127.4,-21.62 129.2,-32.06 135.32,-28.66"/>
</g>
<!-- Node6 -->
<g id="node6" class="node">
<title>Node6</title>
<g id="a_node6"><a xlink:title=" ">
<polygon fill="#e0e0e0" stroke="#999999" points="199.38,-20 161.62,-20 161.62,0 199.38,0 199.38,-20"/>
<text xml:space="preserve" text-anchor="middle" x="180.5" y="-6.5" font-family="Helvetica,sans-Serif" font-size="10.00">array</text>
</a>
</g>
</g>
<!-- Node4&#45;&gt;Node6 -->
<g id="edge5" class="edge">
<title>Node4&#45;&gt;Node6</title>
<path fill="none" stroke="#63b8ff" d="M156.55,-55.59C160.29,-48.63 165.52,-38.89 170.14,-30.29"/>
<polygon fill="#63b8ff" stroke="#63b8ff" points="173.14,-32.1 174.79,-21.63 166.98,-28.79 173.14,-32.1"/>
</g>
</g>
</svg>
