<?xml version="1.0" encoding="UTF-8" standalone="no"?>
<!DOCTYPE svg PUBLIC "-//W3C//DTD SVG 1.1//EN"
 "http://www.w3.org/Graphics/SVG/1.1/DTD/svg11.dtd">
<!-- Generated by graphviz version 13.1.2 (20250808.2320)
 -->
<!-- Title: Cpp/objloader/src/meshinfo.h Pages: 1 -->
<svg width="152pt" height="84pt"
 viewBox="0.00 0.00 152.00 84.00" xmlns="http://www.w3.org/2000/svg" xmlns:xlink="http://www.w3.org/1999/xlink">
<g id="graph0" class="graph" transform="scale(1 1) rotate(0) translate(4 80)">
<title>Cpp/objloader/src/meshinfo.h</title>
<!-- Node1 -->
<g id="node1" class="node">
<title>Node1</title>
<g id="a_node1"><a xlink:title="Contains definitions for the MeshInfo class.">
<polygon fill="#999999" stroke="#666666" points="143.5,-76 0,-76 0,-56 143.5,-56 143.5,-76"/>
<text xml:space="preserve" text-anchor="middle" x="71.75" y="-62.5" font-family="Helvetica,sans-Serif" font-size="10.00">Cpp/objloader/src/meshinfo.h</text>
</a>
</g>
</g>
<!-- Node2 -->
<g id="node2" class="node">
<title>Node2</title>
<g id="a_node2"><a xlink:title=" ">
<polygon fill="#e0e0e0" stroke="#999999" points="65,-20 20.5,-20 20.5,0 65,0 65,-20"/>
<text xml:space="preserve" text-anchor="middle" x="42.75" y="-6.5" font-family="Helvetica,sans-Serif" font-size="10.00">Dense</text>
</a>
</g>
</g>
<!-- Node1&#45;&gt;Node2 -->
<g id="edge1" class="edge">
<title>Node1&#45;&gt;Node2</title>
<path fill="none" stroke="#63b8ff" d="M66.7,-55.59C62.96,-48.63 57.73,-38.89 53.11,-30.29"/>
<polygon fill="#63b8ff" stroke="#63b8ff" points="56.27,-28.79 48.46,-21.63 50.11,-32.1 56.27,-28.79"/>
</g>
<!-- Node3 -->
<g id="node3" class="node">
<title>Node3</title>
<g id="a_node3"><a xlink:title=" ">
<polygon fill="#e0e0e0" stroke="#999999" points="120.62,-20 82.88,-20 82.88,0 120.62,0 120.62,-20"/>
<text xml:space="preserve" text-anchor="middle" x="101.75" y="-6.5" font-family="Helvetica,sans-Serif" font-size="10.00">array</text>
</a>
</g>
</g>
<!-- Node1&#45;&gt;Node3 -->
<g id="edge2" class="edge">
<title>Node1&#45;&gt;Node3</title>
<path fill="none" stroke="#63b8ff" d="M76.98,-55.59C80.85,-48.63 86.26,-38.89 91.03,-30.29"/>
<polygon fill="#63b8ff" stroke="#63b8ff" points="94.05,-32.06 95.85,-21.62 87.93,-28.66 94.05,-32.06"/>
</g>
</g>
</svg>
