<?xml version="1.0" encoding="UTF-8" standalone="no"?>
<!DOCTYPE svg PUBLIC "-//W3C//DTD SVG 1.1//EN"
 "http://www.w3.org/Graphics/SVG/1.1/DTD/svg11.dtd">
<!-- Generated by graphviz version 13.1.2 (20250808.2320)
 -->
<!-- Title: Cpp/objloader/src/objloader.cpp Pages: 1 -->
<svg width="682pt" height="196pt"
 viewBox="0.00 0.00 682.00 196.00" xmlns="http://www.w3.org/2000/svg" xmlns:xlink="http://www.w3.org/1999/xlink">
<g id="graph0" class="graph" transform="scale(1 1) rotate(0) translate(4 192)">
<title>Cpp/objloader/src/objloader.cpp</title>
<!-- Node1 -->
<g id="node1" class="node">
<title>Node1</title>
<g id="a_node1"><a xlink:title="Contains implementation for the Geometry namespace.">
<polygon fill="#999999" stroke="#666666" points="361.12,-188 207.88,-188 207.88,-168 361.12,-168 361.12,-188"/>
<text xml:space="preserve" text-anchor="middle" x="284.5" y="-174.5" font-family="Helvetica,sans-Serif" font-size="10.00">Cpp/objloader/src/objloader.cpp</text>
</a>
</g>
</g>
<!-- Node2 -->
<g id="node2" class="node">
<title>Node2</title>
<g id="a_node2"><a xlink:href="a00191.html" target="_top" xlink:title="Contains definitions for the Geometry namespace.">
<polygon fill="white" stroke="#666666" points="118.12,-132 54.88,-132 54.88,-112 118.12,-112 118.12,-132"/>
<text xml:space="preserve" text-anchor="middle" x="86.5" y="-118.5" font-family="Helvetica,sans-Serif" font-size="10.00">objloader.h</text>
</a>
</g>
</g>
<!-- Node1&#45;&gt;Node2 -->
<g id="edge1" class="edge">
<title>Node1&#45;&gt;Node2</title>
<path fill="none" stroke="#63b8ff" d="M250.01,-167.59C216.37,-158.42 165.14,-144.45 129,-134.59"/>
<polygon fill="#63b8ff" stroke="#63b8ff" points="130.33,-131.33 119.77,-132.07 128.49,-138.08 130.33,-131.33"/>
</g>
<!-- Node3 -->
<g id="node3" class="node">
<title>Node3</title>
<g id="a_node3"><a xlink:title=" ">
<polygon fill="#e0e0e0" stroke="#999999" points="43,-76 0,-76 0,-56 43,-56 43,-76"/>
<text xml:space="preserve" text-anchor="middle" x="21.5" y="-62.5" font-family="Helvetica,sans-Serif" font-size="10.00">vector</text>
</a>
</g>
</g>
<!-- Node1&#45;&gt;Node3 -->
<g id="edge16" class="edge">
<title>Node1&#45;&gt;Node3</title>
<path fill="none" stroke="#63b8ff" d="M207.64,-170.72C147.32,-164.34 69.65,-152.4 45.5,-132 32.42,-120.95 26.47,-102.1 23.76,-87.53"/>
<polygon fill="#63b8ff" stroke="#63b8ff" points="27.22,-87.04 22.33,-77.64 20.3,-88.04 27.22,-87.04"/>
</g>
<!-- Node5 -->
<g id="node5" class="node">
<title>Node5</title>
<g id="a_node5"><a xlink:href="a00185.html" target="_top" xlink:title="Contains definitions for the MeshInfo class.">
<polygon fill="white" stroke="#666666" points="183.5,-76 119.5,-76 119.5,-56 183.5,-56 183.5,-76"/>
<text xml:space="preserve" text-anchor="middle" x="151.5" y="-62.5" font-family="Helvetica,sans-Serif" font-size="10.00">meshinfo.h</text>
</a>
</g>
</g>
<!-- Node1&#45;&gt;Node5 -->
<g id="edge8" class="edge">
<title>Node1&#45;&gt;Node5</title>
<path fill="none" stroke="#63b8ff" d="M258.94,-167.61C240.49,-159.96 215.72,-147.85 197.5,-132 182.54,-118.98 169.9,-100.15 161.68,-86.1"/>
<polygon fill="#63b8ff" stroke="#63b8ff" points="164.97,-84.8 157.03,-77.79 158.86,-88.22 164.97,-84.8"/>
</g>
<!-- Node6 -->
<g id="node6" class="node">
<title>Node6</title>
<g id="a_node6"><a xlink:title=" ">
<polygon fill="#e0e0e0" stroke="#999999" points="232.75,-20 188.25,-20 188.25,0 232.75,0 232.75,-20"/>
<text xml:space="preserve" text-anchor="middle" x="210.5" y="-6.5" font-family="Helvetica,sans-Serif" font-size="10.00">Dense</text>
</a>
</g>
</g>
<!-- Node1&#45;&gt;Node6 -->
<g id="edge7" class="edge">
<title>Node1&#45;&gt;Node6</title>
<path fill="none" stroke="#63b8ff" d="M267.81,-167.62C255.45,-159.75 239.29,-147.36 230.5,-132 212.39,-100.37 209.56,-56.95 209.67,-31.64"/>
<polygon fill="#63b8ff" stroke="#63b8ff" points="213.17,-31.8 209.89,-21.73 206.17,-31.64 213.17,-31.8"/>
</g>
<!-- Node8 -->
<g id="node8" class="node">
<title>Node8</title>
<g id="a_node8"><a xlink:title=" ">
<polygon fill="#e0e0e0" stroke="#999999" points="329.25,-132 239.75,-132 239.75,-112 329.25,-112 329.25,-132"/>
<text xml:space="preserve" text-anchor="middle" x="284.5" y="-118.5" font-family="Helvetica,sans-Serif" font-size="10.00">tiny_obj_loader.h</text>
</a>
</g>
</g>
<!-- Node1&#45;&gt;Node8 -->
<g id="edge9" class="edge">
<title>Node1&#45;&gt;Node8</title>
<path fill="none" stroke="#63b8ff" d="M284.5,-167.59C284.5,-161.01 284.5,-151.96 284.5,-143.73"/>
<polygon fill="#63b8ff" stroke="#63b8ff" points="288,-143.81 284.5,-133.81 281,-143.81 288,-143.81"/>
</g>
<!-- Node9 -->
<g id="node9" class="node">
<title>Node9</title>
<g id="a_node9"><a xlink:title=" ">
<polygon fill="#e0e0e0" stroke="#999999" points="419.25,-132 347.75,-132 347.75,-112 419.25,-112 419.25,-132"/>
<text xml:space="preserve" text-anchor="middle" x="383.5" y="-118.5" font-family="Helvetica,sans-Serif" font-size="10.00">robin_hood.h</text>
</a>
</g>
</g>
<!-- Node1&#45;&gt;Node9 -->
<g id="edge10" class="edge">
<title>Node1&#45;&gt;Node9</title>
<path fill="none" stroke="#63b8ff" d="M301.74,-167.59C316.84,-159.36 339.03,-147.26 356.48,-137.74"/>
<polygon fill="#63b8ff" stroke="#63b8ff" points="357.69,-141.07 364.79,-133.2 354.34,-134.92 357.69,-141.07"/>
</g>
<!-- Node10 -->
<g id="node10" class="node">
<title>Node10</title>
<g id="a_node10"><a xlink:href="a00176.html" target="_top" xlink:title="Contains definitions for the Exceptions namespace.">
<polygon fill="white" stroke="#666666" points="523.75,-132 437.25,-132 437.25,-112 523.75,-112 523.75,-132"/>
<text xml:space="preserve" text-anchor="middle" x="480.5" y="-118.5" font-family="Helvetica,sans-Serif" font-size="10.00">HFExceptions.h</text>
</a>
</g>
</g>
<!-- Node1&#45;&gt;Node10 -->
<g id="edge11" class="edge">
<title>Node1&#45;&gt;Node10</title>
<path fill="none" stroke="#63b8ff" d="M318.64,-167.59C350.9,-158.71 399.52,-145.31 435.05,-135.52"/>
<polygon fill="#63b8ff" stroke="#63b8ff" points="435.92,-138.91 444.63,-132.88 434.06,-132.16 435.92,-138.91"/>
</g>
<!-- Node14 -->
<g id="node14" class="node">
<title>Node14</title>
<g id="a_node14"><a xlink:title=" ">
<polygon fill="#e0e0e0" stroke="#999999" points="595.25,-132 541.75,-132 541.75,-112 595.25,-112 595.25,-132"/>
<text xml:space="preserve" text-anchor="middle" x="568.5" y="-118.5" font-family="Helvetica,sans-Serif" font-size="10.00">iostream</text>
</a>
</g>
</g>
<!-- Node1&#45;&gt;Node14 -->
<g id="edge15" class="edge">
<title>Node1&#45;&gt;Node14</title>
<path fill="none" stroke="#63b8ff" d="M342.84,-167.52C390.67,-159.5 460.39,-147.24 530.21,-132.38"/>
<polygon fill="#63b8ff" stroke="#63b8ff" points="530.9,-135.81 539.94,-130.29 529.43,-128.97 530.9,-135.81"/>
</g>
<!-- Node15 -->
<g id="node15" class="node">
<title>Node15</title>
<g id="a_node15"><a xlink:title=" ">
<polygon fill="#e0e0e0" stroke="#999999" points="674,-132 613,-132 613,-112 674,-112 674,-132"/>
<text xml:space="preserve" text-anchor="middle" x="643.5" y="-118.5" font-family="Helvetica,sans-Serif" font-size="10.00">filesystem</text>
</a>
</g>
</g>
<!-- Node1&#45;&gt;Node15 -->
<g id="edge17" class="edge">
<title>Node1&#45;&gt;Node15</title>
<path fill="none" stroke="#63b8ff" d="M361.42,-168.09C423.77,-160.43 514.11,-148.35 601.68,-132.4"/>
<polygon fill="#63b8ff" stroke="#63b8ff" points="602.21,-135.86 611.41,-130.6 600.94,-128.97 602.21,-135.86"/>
</g>
<!-- Node2&#45;&gt;Node3 -->
<g id="edge2" class="edge">
<title>Node2&#45;&gt;Node3</title>
<path fill="none" stroke="#63b8ff" d="M75.18,-111.59C65.86,-103.85 52.42,-92.69 41.32,-83.47"/>
<polygon fill="#63b8ff" stroke="#63b8ff" points="43.79,-80.96 33.86,-77.27 39.31,-86.35 43.79,-80.96"/>
</g>
<!-- Node4 -->
<g id="node4" class="node">
<title>Node4</title>
<g id="a_node4"><a xlink:title=" ">
<polygon fill="#e0e0e0" stroke="#999999" points="101.5,-76 61.5,-76 61.5,-56 101.5,-56 101.5,-76"/>
<text xml:space="preserve" text-anchor="middle" x="81.5" y="-62.5" font-family="Helvetica,sans-Serif" font-size="10.00">string</text>
</a>
</g>
</g>
<!-- Node2&#45;&gt;Node4 -->
<g id="edge3" class="edge">
<title>Node2&#45;&gt;Node4</title>
<path fill="none" stroke="#63b8ff" d="M85.63,-111.59C85.02,-105.01 84.18,-95.96 83.42,-87.73"/>
<polygon fill="#63b8ff" stroke="#63b8ff" points="86.91,-87.44 82.5,-77.81 79.94,-88.09 86.91,-87.44"/>
</g>
<!-- Node2&#45;&gt;Node5 -->
<g id="edge4" class="edge">
<title>Node2&#45;&gt;Node5</title>
<path fill="none" stroke="#63b8ff" d="M97.82,-111.59C107.14,-103.85 120.58,-92.69 131.68,-83.47"/>
<polygon fill="#63b8ff" stroke="#63b8ff" points="133.69,-86.35 139.14,-77.27 129.21,-80.96 133.69,-86.35"/>
</g>
<!-- Node5&#45;&gt;Node6 -->
<g id="edge5" class="edge">
<title>Node5&#45;&gt;Node6</title>
<path fill="none" stroke="#63b8ff" d="M161.78,-55.59C170.07,-48.01 181.95,-37.13 191.9,-28.02"/>
<polygon fill="#63b8ff" stroke="#63b8ff" points="194.21,-30.65 199.22,-21.32 189.48,-25.49 194.21,-30.65"/>
</g>
<!-- Node7 -->
<g id="node7" class="node">
<title>Node7</title>
<g id="a_node7"><a xlink:title=" ">
<polygon fill="#e0e0e0" stroke="#999999" points="170.38,-20 132.62,-20 132.62,0 170.38,0 170.38,-20"/>
<text xml:space="preserve" text-anchor="middle" x="151.5" y="-6.5" font-family="Helvetica,sans-Serif" font-size="10.00">array</text>
</a>
</g>
</g>
<!-- Node5&#45;&gt;Node7 -->
<g id="edge6" class="edge">
<title>Node5&#45;&gt;Node7</title>
<path fill="none" stroke="#63b8ff" d="M151.5,-55.59C151.5,-49.01 151.5,-39.96 151.5,-31.73"/>
<polygon fill="#63b8ff" stroke="#63b8ff" points="155,-31.81 151.5,-21.81 148,-31.81 155,-31.81"/>
</g>
<!-- Node11 -->
<g id="node11" class="node">
<title>Node11</title>
<g id="a_node11"><a xlink:title=" ">
<polygon fill="#e0e0e0" stroke="#999999" points="439.5,-76 381.5,-76 381.5,-56 439.5,-56 439.5,-76"/>
<text xml:space="preserve" text-anchor="middle" x="410.5" y="-62.5" font-family="Helvetica,sans-Serif" font-size="10.00">exception</text>
</a>
</g>
</g>
<!-- Node10&#45;&gt;Node11 -->
<g id="edge12" class="edge">
<title>Node10&#45;&gt;Node11</title>
<path fill="none" stroke="#63b8ff" d="M468.31,-111.59C458.17,-103.77 443.51,-92.46 431.49,-83.19"/>
<polygon fill="#63b8ff" stroke="#63b8ff" points="433.81,-80.56 423.75,-77.22 429.53,-86.1 433.81,-80.56"/>
</g>
<!-- Node12 -->
<g id="node12" class="node">
<title>Node12</title>
<g id="a_node12"><a xlink:title=" ">
<polygon fill="#e0e0e0" stroke="#999999" points="503.12,-76 457.88,-76 457.88,-56 503.12,-56 503.12,-76"/>
<text xml:space="preserve" text-anchor="middle" x="480.5" y="-62.5" font-family="Helvetica,sans-Serif" font-size="10.00">cstring</text>
</a>
</g>
</g>
<!-- Node10&#45;&gt;Node12 -->
<g id="edge13" class="edge">
<title>Node10&#45;&gt;Node12</title>
<path fill="none" stroke="#63b8ff" d="M480.5,-111.59C480.5,-105.01 480.5,-95.96 480.5,-87.73"/>
<polygon fill="#63b8ff" stroke="#63b8ff" points="484,-87.81 480.5,-77.81 477,-87.81 484,-87.81"/>
</g>
<!-- Node13 -->
<g id="node13" class="node">
<title>Node13</title>
<g id="a_node13"><a xlink:title=" ">
<polygon fill="#e0e0e0" stroke="#999999" points="579.88,-76 521.12,-76 521.12,-56 579.88,-56 579.88,-76"/>
<text xml:space="preserve" text-anchor="middle" x="550.5" y="-62.5" font-family="Helvetica,sans-Serif" font-size="10.00">stdexcept</text>
</a>
</g>
</g>
<!-- Node10&#45;&gt;Node13 -->
<g id="edge14" class="edge">
<title>Node10&#45;&gt;Node13</title>
<path fill="none" stroke="#63b8ff" d="M492.69,-111.59C502.83,-103.77 517.49,-92.46 529.51,-83.19"/>
<polygon fill="#63b8ff" stroke="#63b8ff" points="531.47,-86.1 537.25,-77.22 527.19,-80.56 531.47,-86.1"/>
</g>
</g>
</svg>
