<?xml version="1.0" encoding="UTF-8" standalone="no"?>
<!DOCTYPE svg PUBLIC "-//W3C//DTD SVG 1.1//EN"
 "http://www.w3.org/Graphics/SVG/1.1/DTD/svg11.dtd">
<!-- Generated by graphviz version 13.1.2 (20250808.2320)
 -->
<!-- Title: Cpp/pathfinding/src/boost_graph.cpp Pages: 1 -->
<svg width="1140pt" height="276pt"
 viewBox="0.00 0.00 1140.00 276.00" xmlns="http://www.w3.org/2000/svg" xmlns:xlink="http://www.w3.org/1999/xlink">
<g id="graph0" class="graph" transform="scale(1 1) rotate(0) translate(4 272)">
<title>Cpp/pathfinding/src/boost_graph.cpp</title>
<!-- Node1 -->
<g id="node1" class="node">
<title>Node1</title>
<g id="a_node1"><a xlink:title="Contains implementation for the BoostGraph class.">
<polygon fill="#999999" stroke="#666666" points="797.5,-268 696.75,-268 696.75,-236 797.5,-236 797.5,-268"/>
<text xml:space="preserve" text-anchor="start" x="704.75" y="-254.5" font-family="Helvetica,sans-Serif" font-size="10.00">Cpp/pathfinding/src</text>
<text xml:space="preserve" text-anchor="middle" x="747.12" y="-242.5" font-family="Helvetica,sans-Serif" font-size="10.00">/boost_graph.cpp</text>
</a>
</g>
</g>
<!-- Node2 -->
<g id="node2" class="node">
<title>Node2</title>
<g id="a_node2"><a xlink:href="a00200.html" target="_top" xlink:title="Contains definitions for the BoostGraph class.">
<polygon fill="white" stroke="#666666" points="449.88,-200 372.38,-200 372.38,-180 449.88,-180 449.88,-200"/>
<text xml:space="preserve" text-anchor="middle" x="411.12" y="-186.5" font-family="Helvetica,sans-Serif" font-size="10.00">boost_graph.h</text>
</a>
</g>
</g>
<!-- Node1&#45;&gt;Node2 -->
<g id="edge1" class="edge">
<title>Node1&#45;&gt;Node2</title>
<path fill="none" stroke="#63b8ff" d="M696.46,-241.95C632.95,-230.61 524.75,-211.29 461.41,-199.98"/>
<polygon fill="#63b8ff" stroke="#63b8ff" points="462.08,-196.54 451.62,-198.23 460.85,-203.43 462.08,-196.54"/>
</g>
<!-- Node8 -->
<g id="node8" class="node">
<title>Node8</title>
<g id="a_node8"><a xlink:href="a00269.html" target="_top" xlink:title="Contains definitions for the Graph &#160;class.">
<polygon fill="white" stroke="#666666" points="886.25,-200 838,-200 838,-180 886.25,-180 886.25,-200"/>
<text xml:space="preserve" text-anchor="middle" x="862.12" y="-186.5" font-family="Helvetica,sans-Serif" font-size="10.00">graph.h</text>
</a>
</g>
</g>
<!-- Node1&#45;&gt;Node8 -->
<g id="edge7" class="edge">
<title>Node1&#45;&gt;Node8</title>
<path fill="none" stroke="#63b8ff" d="M776.74,-235.55C794.38,-226.35 816.63,-214.74 834,-205.68"/>
<polygon fill="#63b8ff" stroke="#63b8ff" points="835.5,-208.84 842.75,-201.11 832.27,-202.63 835.5,-208.84"/>
</g>
<!-- Node11 -->
<g id="node11" class="node">
<title>Node11</title>
<g id="a_node11"><a xlink:href="a00263.html" target="_top" xlink:title="Contains definitions for the Edge structure.">
<polygon fill="white" stroke="#666666" points="769.75,-138 724.5,-138 724.5,-118 769.75,-118 769.75,-138"/>
<text xml:space="preserve" text-anchor="middle" x="747.12" y="-124.5" font-family="Helvetica,sans-Serif" font-size="10.00">edge.h</text>
</a>
</g>
</g>
<!-- Node1&#45;&gt;Node11 -->
<g id="edge24" class="edge">
<title>Node1&#45;&gt;Node11</title>
<path fill="none" stroke="#63b8ff" d="M747.12,-235.55C747.12,-213.81 747.12,-174.14 747.12,-149.82"/>
<polygon fill="#63b8ff" stroke="#63b8ff" points="750.63,-149.9 747.13,-139.9 743.63,-149.9 750.63,-149.9"/>
</g>
<!-- Node12 -->
<g id="node12" class="node">
<title>Node12</title>
<g id="a_node12"><a xlink:href="a00275.html" target="_top" xlink:title="Contains definitions for the Node structure.">
<polygon fill="white" stroke="#666666" points="769.75,-76 724.5,-76 724.5,-56 769.75,-56 769.75,-76"/>
<text xml:space="preserve" text-anchor="middle" x="747.12" y="-62.5" font-family="Helvetica,sans-Serif" font-size="10.00">node.h</text>
</a>
</g>
</g>
<!-- Node1&#45;&gt;Node12 -->
<g id="edge23" class="edge">
<title>Node1&#45;&gt;Node12</title>
<path fill="none" stroke="#63b8ff" d="M738.33,-235.76C724.61,-209.95 701.04,-156.11 715.12,-112 718.24,-102.24 724.33,-92.79 730.37,-85.08"/>
<polygon fill="#63b8ff" stroke="#63b8ff" points="732.98,-87.42 736.79,-77.53 727.65,-82.89 732.98,-87.42"/>
</g>
<!-- Node20 -->
<g id="node20" class="node">
<title>Node20</title>
<g id="a_node20"><a xlink:title=" ">
<polygon fill="#e0e0e0" stroke="#999999" points="955.75,-200 904.5,-200 904.5,-180 955.75,-180 955.75,-200"/>
<text xml:space="preserve" text-anchor="middle" x="930.12" y="-186.5" font-family="Helvetica,sans-Serif" font-size="10.00">assert.h</text>
</a>
</g>
</g>
<!-- Node1&#45;&gt;Node20 -->
<g id="edge25" class="edge">
<title>Node1&#45;&gt;Node20</title>
<path fill="none" stroke="#63b8ff" d="M794.25,-235.55C825.1,-225.43 864.84,-212.41 893.36,-203.06"/>
<polygon fill="#63b8ff" stroke="#63b8ff" points="894.22,-206.45 902.63,-200.01 892.04,-199.8 894.22,-206.45"/>
</g>
<!-- Node3 -->
<g id="node3" class="node">
<title>Node3</title>
<g id="a_node3"><a xlink:title=" ">
<polygon fill="#e0e0e0" stroke="#999999" points="272,-138 132.25,-138 132.25,-118 272,-118 272,-138"/>
<text xml:space="preserve" text-anchor="middle" x="202.12" y="-124.5" font-family="Helvetica,sans-Serif" font-size="10.00">boost/graph/graph_traits.hpp</text>
</a>
</g>
</g>
<!-- Node2&#45;&gt;Node3 -->
<g id="edge2" class="edge">
<title>Node2&#45;&gt;Node3</title>
<path fill="none" stroke="#63b8ff" d="M378.47,-179.62C342.76,-169.37 285.36,-152.9 245.8,-141.54"/>
<polygon fill="#63b8ff" stroke="#63b8ff" points="246.93,-138.22 236.35,-138.83 245,-144.95 246.93,-138.22"/>
</g>
<!-- Node4 -->
<g id="node4" class="node">
<title>Node4</title>
<g id="a_node4"><a xlink:title=" ">
<polygon fill="#e0e0e0" stroke="#999999" points="404.25,-144 290,-144 290,-112 404.25,-112 404.25,-144"/>
<text xml:space="preserve" text-anchor="start" x="298" y="-130.5" font-family="Helvetica,sans-Serif" font-size="10.00">boost/graph/adjacency</text>
<text xml:space="preserve" text-anchor="middle" x="347.12" y="-118.5" font-family="Helvetica,sans-Serif" font-size="10.00">_matrix.hpp</text>
</a>
</g>
</g>
<!-- Node2&#45;&gt;Node4 -->
<g id="edge3" class="edge">
<title>Node2&#45;&gt;Node4</title>
<path fill="none" stroke="#63b8ff" d="M401.12,-179.62C393.27,-172.26 381.99,-161.68 371.76,-152.1"/>
<polygon fill="#63b8ff" stroke="#63b8ff" points="374.32,-149.69 364.63,-145.41 369.53,-154.8 374.32,-149.69"/>
</g>
<!-- Node5 -->
<g id="node5" class="node">
<title>Node5</title>
<g id="a_node5"><a xlink:title=" ">
<polygon fill="#e0e0e0" stroke="#999999" points="526.38,-144 421.88,-144 421.88,-112 526.38,-112 526.38,-144"/>
<text xml:space="preserve" text-anchor="start" x="429.88" y="-130.5" font-family="Helvetica,sans-Serif" font-size="10.00">boost/graph/directed</text>
<text xml:space="preserve" text-anchor="middle" x="474.12" y="-118.5" font-family="Helvetica,sans-Serif" font-size="10.00">_graph.hpp</text>
</a>
</g>
</g>
<!-- Node2&#45;&gt;Node5 -->
<g id="edge4" class="edge">
<title>Node2&#45;&gt;Node5</title>
<path fill="none" stroke="#63b8ff" d="M420.97,-179.62C428.76,-172.21 439.96,-161.53 450.08,-151.9"/>
<polygon fill="#63b8ff" stroke="#63b8ff" points="452.3,-154.62 457.13,-145.18 447.48,-149.55 452.3,-154.62"/>
</g>
<!-- Node6 -->
<g id="node6" class="node">
<title>Node6</title>
<g id="a_node6"><a xlink:title=" ">
<polygon fill="#e0e0e0" stroke="#999999" points="667.75,-144 544.5,-144 544.5,-112 667.75,-112 667.75,-144"/>
<text xml:space="preserve" text-anchor="start" x="552.5" y="-130.5" font-family="Helvetica,sans-Serif" font-size="10.00">boost/graph/compressed</text>
<text xml:space="preserve" text-anchor="middle" x="606.12" y="-118.5" font-family="Helvetica,sans-Serif" font-size="10.00">_sparse_row_graph.hpp</text>
</a>
</g>
</g>
<!-- Node2&#45;&gt;Node6 -->
<g id="edge5" class="edge">
<title>Node2&#45;&gt;Node6</title>
<path fill="none" stroke="#63b8ff" d="M441.59,-179.62C469.14,-171.15 510.52,-158.42 544.89,-147.84"/>
<polygon fill="#63b8ff" stroke="#63b8ff" points="545.81,-151.22 554.33,-144.94 543.75,-144.53 545.81,-151.22"/>
</g>
<!-- Node7 -->
<g id="node7" class="node">
<title>Node7</title>
<g id="a_node7"><a xlink:title=" ">
<polygon fill="#e0e0e0" stroke="#999999" points="114.25,-144 0,-144 0,-112 114.25,-112 114.25,-144"/>
<text xml:space="preserve" text-anchor="start" x="8" y="-130.5" font-family="Helvetica,sans-Serif" font-size="10.00">boost/graph/adjacency</text>
<text xml:space="preserve" text-anchor="middle" x="57.12" y="-118.5" font-family="Helvetica,sans-Serif" font-size="10.00">_list.hpp</text>
</a>
</g>
</g>
<!-- Node2&#45;&gt;Node7 -->
<g id="edge6" class="edge">
<title>Node2&#45;&gt;Node7</title>
<path fill="none" stroke="#63b8ff" d="M372.32,-183.8C318.97,-176.46 219.77,-162.14 125.8,-144.44"/>
<polygon fill="#63b8ff" stroke="#63b8ff" points="126.63,-141.04 116.16,-142.6 125.33,-147.91 126.63,-141.04"/>
</g>
<!-- Node9 -->
<g id="node9" class="node">
<title>Node9</title>
<g id="a_node9"><a xlink:title=" ">
<polygon fill="#e0e0e0" stroke="#999999" points="897.88,-138 826.38,-138 826.38,-118 897.88,-118 897.88,-138"/>
<text xml:space="preserve" text-anchor="middle" x="862.12" y="-124.5" font-family="Helvetica,sans-Serif" font-size="10.00">robin_hood.h</text>
</a>
</g>
</g>
<!-- Node8&#45;&gt;Node9 -->
<g id="edge8" class="edge">
<title>Node8&#45;&gt;Node9</title>
<path fill="none" stroke="#63b8ff" d="M862.12,-179.62C862.12,-171.56 862.12,-159.65 862.12,-149.41"/>
<polygon fill="#63b8ff" stroke="#63b8ff" points="865.63,-149.63 862.13,-139.63 858.63,-149.63 865.63,-149.63"/>
</g>
<!-- Node10 -->
<g id="node10" class="node">
<title>Node10</title>
<g id="a_node10"><a xlink:title=" ">
<polygon fill="#e0e0e0" stroke="#999999" points="975.62,-76 932.62,-76 932.62,-56 975.62,-56 975.62,-76"/>
<text xml:space="preserve" text-anchor="middle" x="954.12" y="-62.5" font-family="Helvetica,sans-Serif" font-size="10.00">vector</text>
</a>
</g>
</g>
<!-- Node8&#45;&gt;Node10 -->
<g id="edge9" class="edge">
<title>Node8&#45;&gt;Node10</title>
<path fill="none" stroke="#63b8ff" d="M886.6,-181.72C914.1,-172.99 956.1,-157.8 965.12,-144 976.3,-126.92 970.45,-103.17 963.78,-86.58"/>
<polygon fill="#63b8ff" stroke="#63b8ff" points="967.12,-85.49 959.85,-77.79 960.73,-88.35 967.12,-85.49"/>
</g>
<!-- Node8&#45;&gt;Node11 -->
<g id="edge10" class="edge">
<title>Node8&#45;&gt;Node11</title>
<path fill="none" stroke="#63b8ff" d="M844.16,-179.62C825.67,-169.98 796.63,-154.83 775.13,-143.61"/>
<polygon fill="#63b8ff" stroke="#63b8ff" points="776.79,-140.53 766.31,-139.01 773.56,-146.74 776.79,-140.53"/>
</g>
<!-- Node8&#45;&gt;Node12 -->
<g id="edge15" class="edge">
<title>Node8&#45;&gt;Node12</title>
<path fill="none" stroke="#63b8ff" d="M852.69,-179.82C843.49,-170.81 829.17,-156.63 817.12,-144 797.95,-123.89 776.55,-100.15 762.51,-84.4"/>
<polygon fill="#63b8ff" stroke="#63b8ff" points="765.44,-82.42 756.18,-77.27 760.21,-87.07 765.44,-82.42"/>
</g>
<!-- Node15 -->
<g id="node15" class="node">
<title>Node15</title>
<g id="a_node15"><a xlink:href="a00281.html" target="_top" xlink:title="Contains definitions for the Path structure.">
<polygon fill="white" stroke="#666666" points="1055.62,-138 1012.62,-138 1012.62,-118 1055.62,-118 1055.62,-138"/>
<text xml:space="preserve" text-anchor="middle" x="1034.12" y="-124.5" font-family="Helvetica,sans-Serif" font-size="10.00">path.h</text>
</a>
</g>
</g>
<!-- Node8&#45;&gt;Node15 -->
<g id="edge16" class="edge">
<title>Node8&#45;&gt;Node15</title>
<path fill="none" stroke="#63b8ff" d="M886.39,-181.58C913.74,-173.07 959.45,-158.43 998.12,-144 999.27,-143.57 1000.43,-143.13 1001.59,-142.68"/>
<polygon fill="#63b8ff" stroke="#63b8ff" points="1002.75,-145.99 1010.74,-139.03 1000.15,-139.49 1002.75,-145.99"/>
</g>
<!-- Node16 -->
<g id="node16" class="node">
<title>Node16</title>
<g id="a_node16"><a xlink:title=" ">
<polygon fill="#e0e0e0" stroke="#999999" points="1131.88,-76 1078.38,-76 1078.38,-56 1131.88,-56 1131.88,-76"/>
<text xml:space="preserve" text-anchor="middle" x="1105.12" y="-62.5" font-family="Helvetica,sans-Serif" font-size="10.00">iostream</text>
</a>
</g>
</g>
<!-- Node8&#45;&gt;Node16 -->
<g id="edge22" class="edge">
<title>Node8&#45;&gt;Node16</title>
<path fill="none" stroke="#63b8ff" d="M886.59,-182.16C889.46,-181.41 892.35,-180.67 895.12,-180 970.19,-161.83 1003.65,-190.75 1065.12,-144 1083.64,-129.92 1094.37,-104.82 1099.97,-87.11"/>
<polygon fill="#63b8ff" stroke="#63b8ff" points="1103.27,-88.29 1102.65,-77.72 1096.54,-86.37 1103.27,-88.29"/>
</g>
<!-- Node19 -->
<g id="node19" class="node">
<title>Node19</title>
<g id="a_node19"><a xlink:title=" ">
<polygon fill="#e0e0e0" stroke="#999999" points="956.5,-138 915.75,-138 915.75,-118 956.5,-118 956.5,-138"/>
<text xml:space="preserve" text-anchor="middle" x="936.12" y="-124.5" font-family="Helvetica,sans-Serif" font-size="10.00">Eigen</text>
</a>
</g>
</g>
<!-- Node8&#45;&gt;Node19 -->
<g id="edge21" class="edge">
<title>Node8&#45;&gt;Node19</title>
<path fill="none" stroke="#63b8ff" d="M873.69,-179.62C885.05,-170.41 902.61,-156.17 916.22,-145.14"/>
<polygon fill="#63b8ff" stroke="#63b8ff" points="918.15,-148.08 923.71,-139.07 913.74,-142.65 918.15,-148.08"/>
</g>
<!-- Node11&#45;&gt;Node10 -->
<g id="edge14" class="edge">
<title>Node11&#45;&gt;Node10</title>
<path fill="none" stroke="#63b8ff" d="M770.07,-120.35C806.9,-109.67 879.36,-88.67 921.54,-76.44"/>
<polygon fill="#63b8ff" stroke="#63b8ff" points="922.25,-79.88 930.88,-73.74 920.3,-73.16 922.25,-79.88"/>
</g>
<!-- Node11&#45;&gt;Node12 -->
<g id="edge11" class="edge">
<title>Node11&#45;&gt;Node12</title>
<path fill="none" stroke="#63b8ff" d="M747.12,-117.62C747.12,-109.56 747.12,-97.65 747.12,-87.41"/>
<polygon fill="#63b8ff" stroke="#63b8ff" points="750.63,-87.63 747.13,-77.63 743.63,-87.63 750.63,-87.63"/>
</g>
<!-- Node13 -->
<g id="node13" class="node">
<title>Node13</title>
<g id="a_node13"><a xlink:title=" ">
<polygon fill="#e0e0e0" stroke="#999999" points="798,-20 760.25,-20 760.25,0 798,0 798,-20"/>
<text xml:space="preserve" text-anchor="middle" x="779.12" y="-6.5" font-family="Helvetica,sans-Serif" font-size="10.00">array</text>
</a>
</g>
</g>
<!-- Node12&#45;&gt;Node13 -->
<g id="edge12" class="edge">
<title>Node12&#45;&gt;Node13</title>
<path fill="none" stroke="#63b8ff" d="M752.7,-55.59C756.87,-48.55 762.73,-38.67 767.87,-30"/>
<polygon fill="#63b8ff" stroke="#63b8ff" points="770.76,-31.99 772.84,-21.6 764.73,-28.42 770.76,-31.99"/>
</g>
<!-- Node14 -->
<g id="node14" class="node">
<title>Node14</title>
<g id="a_node14"><a xlink:title=" ">
<polygon fill="#e0e0e0" stroke="#999999" points="741.75,-20 690.5,-20 690.5,0 741.75,0 741.75,-20"/>
<text xml:space="preserve" text-anchor="middle" x="716.12" y="-6.5" font-family="Helvetica,sans-Serif" font-size="10.00">ostream</text>
</a>
</g>
</g>
<!-- Node12&#45;&gt;Node14 -->
<g id="edge13" class="edge">
<title>Node12&#45;&gt;Node14</title>
<path fill="none" stroke="#63b8ff" d="M741.73,-55.59C737.68,-48.55 732.01,-38.67 727.03,-30"/>
<polygon fill="#63b8ff" stroke="#63b8ff" points="730.23,-28.54 722.22,-21.61 724.16,-32.03 730.23,-28.54"/>
</g>
<!-- Node15&#45;&gt;Node10 -->
<g id="edge17" class="edge">
<title>Node15&#45;&gt;Node10</title>
<path fill="none" stroke="#63b8ff" d="M1021.62,-117.62C1009.3,-108.38 990.21,-94.07 975.48,-83.01"/>
<polygon fill="#63b8ff" stroke="#63b8ff" points="977.85,-80.42 967.75,-77.22 973.65,-86.02 977.85,-80.42"/>
</g>
<!-- Node15&#45;&gt;Node16 -->
<g id="edge18" class="edge">
<title>Node15&#45;&gt;Node16</title>
<path fill="none" stroke="#63b8ff" d="M1045.22,-117.62C1056.01,-108.5 1072.65,-94.45 1085.65,-83.46"/>
<polygon fill="#63b8ff" stroke="#63b8ff" points="1087.81,-86.22 1093.19,-77.09 1083.29,-80.87 1087.81,-86.22"/>
</g>
<!-- Node17 -->
<g id="node17" class="node">
<title>Node17</title>
<g id="a_node17"><a xlink:href="a00251.html" target="_top" xlink:title="Contains definitions for the HF::SpatialStructures namespace.">
<polygon fill="white" stroke="#666666" points="1060.62,-76 993.62,-76 993.62,-56 1060.62,-56 1060.62,-76"/>
<text xml:space="preserve" text-anchor="middle" x="1027.12" y="-62.5" font-family="Helvetica,sans-Serif" font-size="10.00">constants.h</text>
</a>
</g>
</g>
<!-- Node15&#45;&gt;Node17 -->
<g id="edge19" class="edge">
<title>Node15&#45;&gt;Node17</title>
<path fill="none" stroke="#63b8ff" d="M1033.03,-117.62C1032.09,-109.56 1030.7,-97.65 1029.51,-87.41"/>
<polygon fill="#63b8ff" stroke="#63b8ff" points="1033,-87.14 1028.36,-77.62 1026.05,-87.95 1033,-87.14"/>
</g>
<!-- Node18 -->
<g id="node18" class="node">
<title>Node18</title>
<g id="a_node18"><a xlink:title=" ">
<polygon fill="#e0e0e0" stroke="#999999" points="1048.62,-20 1005.62,-20 1005.62,0 1048.62,0 1048.62,-20"/>
<text xml:space="preserve" text-anchor="middle" x="1027.12" y="-6.5" font-family="Helvetica,sans-Serif" font-size="10.00">cmath</text>
</a>
</g>
</g>
<!-- Node17&#45;&gt;Node18 -->
<g id="edge20" class="edge">
<title>Node17&#45;&gt;Node18</title>
<path fill="none" stroke="#63b8ff" d="M1027.12,-55.59C1027.12,-49.01 1027.12,-39.96 1027.12,-31.73"/>
<polygon fill="#63b8ff" stroke="#63b8ff" points="1030.63,-31.81 1027.13,-21.81 1023.63,-31.81 1030.63,-31.81"/>
</g>
</g>
</svg>
