<?xml version="1.0" encoding="UTF-8" standalone="no"?>
<!DOCTYPE svg PUBLIC "-//W3C//DTD SVG 1.1//EN"
 "http://www.w3.org/Graphics/SVG/1.1/DTD/svg11.dtd">
<!-- Generated by graphviz version 13.1.2 (20250808.2320)
 -->
<!-- Title: Cpp/spatialstructures/src/node.h Pages: 1 -->
<svg width="120pt" height="96pt"
 viewBox="0.00 0.00 120.00 96.00" xmlns="http://www.w3.org/2000/svg" xmlns:xlink="http://www.w3.org/1999/xlink">
<g id="graph0" class="graph" transform="scale(1 1) rotate(0) translate(4 92)">
<title>Cpp/spatialstructures/src/node.h</title>
<!-- Node1 -->
<g id="node1" class="node">
<title>Node1</title>
<g id="a_node1"><a xlink:title="Contains definitions for the Node structure.">
<polygon fill="#999999" stroke="#666666" points="109,-88 0,-88 0,-56 109,-56 109,-88"/>
<text xml:space="preserve" text-anchor="start" x="8" y="-74.5" font-family="Helvetica,sans-Serif" font-size="10.00">Cpp/spatialstructures</text>
<text xml:space="preserve" text-anchor="middle" x="54.5" y="-62.5" font-family="Helvetica,sans-Serif" font-size="10.00">/src/node.h</text>
</a>
</g>
</g>
<!-- Node2 -->
<g id="node2" class="node">
<title>Node2</title>
<g id="a_node2"><a xlink:title=" ">
<polygon fill="#e0e0e0" stroke="#999999" points="42.38,-20 4.62,-20 4.62,0 42.38,0 42.38,-20"/>
<text xml:space="preserve" text-anchor="middle" x="23.5" y="-6.5" font-family="Helvetica,sans-Serif" font-size="10.00">array</text>
</a>
</g>
</g>
<!-- Node1&#45;&gt;Node2 -->
<g id="edge1" class="edge">
<title>Node1&#45;&gt;Node2</title>
<path fill="none" stroke="#63b8ff" d="M46.52,-55.55C42.57,-47.91 37.77,-38.61 33.57,-30.49"/>
<polygon fill="#63b8ff" stroke="#63b8ff" points="36.76,-29.03 29.06,-21.75 30.54,-32.24 36.76,-29.03"/>
</g>
<!-- Node3 -->
<g id="node3" class="node">
<title>Node3</title>
<g id="a_node3"><a xlink:title=" ">
<polygon fill="#e0e0e0" stroke="#999999" points="112.12,-20 60.88,-20 60.88,0 112.12,0 112.12,-20"/>
<text xml:space="preserve" text-anchor="middle" x="86.5" y="-6.5" font-family="Helvetica,sans-Serif" font-size="10.00">ostream</text>
</a>
</g>
</g>
<!-- Node1&#45;&gt;Node3 -->
<g id="edge2" class="edge">
<title>Node1&#45;&gt;Node3</title>
<path fill="none" stroke="#63b8ff" d="M62.74,-55.55C66.81,-47.91 71.77,-38.61 76.11,-30.49"/>
<polygon fill="#63b8ff" stroke="#63b8ff" points="79.15,-32.21 80.77,-21.74 72.98,-28.92 79.15,-32.21"/>
</g>
</g>
</svg>
