<?xml version="1.0" encoding="UTF-8" standalone="no"?>
<!DOCTYPE svg PUBLIC "-//W3C//DTD SVG 1.1//EN"
 "http://www.w3.org/Graphics/SVG/1.1/DTD/svg11.dtd">
<!-- Generated by graphviz version 13.1.2 (20250808.2320)
 -->
<!-- Title: Cpp/spatialstructures/src/node.h Pages: 1 -->
<svg width="1757pt" height="312pt"
 viewBox="0.00 0.00 1757.00 312.00" xmlns="http://www.w3.org/2000/svg" xmlns:xlink="http://www.w3.org/1999/xlink">
<g id="graph0" class="graph" transform="scale(1 1) rotate(0) translate(4 308)">
<title>Cpp/spatialstructures/src/node.h</title>
<!-- Node1 -->
<g id="node1" class="node">
<title>Node1</title>
<g id="a_node1"><a xlink:title="Contains definitions for the Node structure.">
<polygon fill="#999999" stroke="#666666" points="896.5,-304 787.5,-304 787.5,-272 896.5,-272 896.5,-304"/>
<text xml:space="preserve" text-anchor="start" x="795.5" y="-290.5" font-family="Helvetica,sans-Serif" font-size="10.00">Cpp/spatialstructures</text>
<text xml:space="preserve" text-anchor="middle" x="842" y="-278.5" font-family="Helvetica,sans-Serif" font-size="10.00">/src/node.h</text>
</a>
</g>
</g>
<!-- Node2 -->
<g id="node2" class="node">
<title>Node2</title>
<g id="a_node2"><a xlink:href="a00434.html" target="_top" xlink:title=" ">
<polygon fill="white" stroke="#666666" points="1348,-100 1212,-100 1212,-68 1348,-68 1348,-100"/>
<text xml:space="preserve" text-anchor="start" x="1220" y="-86.5" font-family="Helvetica,sans-Serif" font-size="10.00">Cinterface/spatialstructures</text>
<text xml:space="preserve" text-anchor="middle" x="1280" y="-74.5" font-family="Helvetica,sans-Serif" font-size="10.00">_C.cpp</text>
</a>
</g>
</g>
<!-- Node1&#45;&gt;Node2 -->
<g id="edge1" class="edge">
<title>Node1&#45;&gt;Node2</title>
<path fill="none" stroke="#63b8ff" d="M908,-282.66C997.02,-275.94 1150.2,-261.12 1200,-236 1237.89,-216.89 1247.91,-205.89 1267,-168 1277.96,-146.25 1280.16,-117.55 1280.36,-100.23"/>
<polygon fill="#63b8ff" stroke="#63b8ff" points="907.9,-279.15 898.18,-283.38 908.41,-286.14 907.9,-279.15"/>
</g>
<!-- Node3 -->
<g id="node3" class="node">
<title>Node3</title>
<g id="a_node3"><a xlink:href="a00440.html" target="_top" xlink:title=" ">
<polygon fill="white" stroke="#666666" points="347.75,-100 222.25,-100 222.25,-68 347.75,-68 347.75,-100"/>
<text xml:space="preserve" text-anchor="start" x="230.25" y="-86.5" font-family="Helvetica,sans-Serif" font-size="10.00">Cinterface/view_analysis</text>
<text xml:space="preserve" text-anchor="middle" x="285" y="-74.5" font-family="Helvetica,sans-Serif" font-size="10.00">_C.cpp</text>
</a>
</g>
</g>
<!-- Node1&#45;&gt;Node3 -->
<g id="edge2" class="edge">
<title>Node1&#45;&gt;Node3</title>
<path fill="none" stroke="#63b8ff" d="M775.93,-271.61C738.86,-262.42 691.96,-249.85 651,-236 525.66,-193.61 381.87,-129.59 318.25,-100.44"/>
<polygon fill="#63b8ff" stroke="#63b8ff" points="775.09,-275.01 785.63,-274 776.76,-268.21 775.09,-275.01"/>
</g>
<!-- Node4 -->
<g id="node4" class="node">
<title>Node4</title>
<g id="a_node4"><a xlink:href="a00446.html" target="_top" xlink:title=" ">
<polygon fill="white" stroke="#666666" points="464.63,-100 365.38,-100 365.38,-68 464.63,-68 464.63,-100"/>
<text xml:space="preserve" text-anchor="start" x="373.38" y="-86.5" font-family="Helvetica,sans-Serif" font-size="10.00">Cinterface/visibility</text>
<text xml:space="preserve" text-anchor="middle" x="415" y="-74.5" font-family="Helvetica,sans-Serif" font-size="10.00">_graph_C.cpp</text>
</a>
</g>
</g>
<!-- Node1&#45;&gt;Node4 -->
<g id="edge3" class="edge">
<title>Node1&#45;&gt;Node4</title>
<path fill="none" stroke="#63b8ff" d="M793.36,-267.27C771.16,-258.07 744.61,-246.79 721,-236 618.36,-189.09 499.03,-128.38 444.69,-100.38"/>
<polygon fill="#63b8ff" stroke="#63b8ff" points="791.9,-270.45 802.48,-271.03 794.57,-263.98 791.9,-270.45"/>
</g>
<!-- Node5 -->
<g id="node5" class="node">
<title>Node5</title>
<g id="a_node5"><a xlink:href="a00005.html" target="_top" xlink:title="Contains implementation for the functions in the GraphGenerator class.">
<polygon fill="white" stroke="#666666" points="256,-32 132,-32 132,0 256,0 256,-32"/>
<text xml:space="preserve" text-anchor="start" x="140" y="-18.5" font-family="Helvetica,sans-Serif" font-size="10.00">Cpp/analysismethods</text>
<text xml:space="preserve" text-anchor="middle" x="194" y="-6.5" font-family="Helvetica,sans-Serif" font-size="10.00">/src/graph_generator.cpp</text>
</a>
</g>
</g>
<!-- Node1&#45;&gt;Node5 -->
<g id="edge4" class="edge">
<title>Node1&#45;&gt;Node5</title>
<path fill="none" stroke="#63b8ff" d="M775.91,-278.39C718.29,-270.09 632.79,-255.87 560,-236 391.79,-190.09 291.66,-243.08 192,-100 178.08,-80.01 183.41,-50.24 188.64,-32.32"/>
<polygon fill="#63b8ff" stroke="#63b8ff" points="775.16,-281.82 785.55,-279.76 776.14,-274.89 775.16,-281.82"/>
</g>
<!-- Node6 -->
<g id="node6" class="node">
<title>Node6</title>
<g id="a_node6"><a xlink:href="a00008.html" target="_top" xlink:title="Contains declarations for all functions related to the graph generator.">
<polygon fill="white" stroke="#666666" points="634.75,-100 521.25,-100 521.25,-68 634.75,-68 634.75,-100"/>
<text xml:space="preserve" text-anchor="start" x="529.25" y="-86.5" font-family="Helvetica,sans-Serif" font-size="10.00">Cpp/analysismethods</text>
<text xml:space="preserve" text-anchor="middle" x="578" y="-74.5" font-family="Helvetica,sans-Serif" font-size="10.00">/src/graph_generator.h</text>
</a>
</g>
</g>
<!-- Node1&#45;&gt;Node6 -->
<g id="edge5" class="edge">
<title>Node1&#45;&gt;Node6</title>
<path fill="none" stroke="#63b8ff" d="M808.67,-265.52C795.24,-256.64 779.71,-246.07 766,-236 701.75,-188.77 629.02,-128.21 596.01,-100.32"/>
<polygon fill="#63b8ff" stroke="#63b8ff" points="806.48,-268.27 816.76,-270.83 810.32,-262.42 806.48,-268.27"/>
</g>
<!-- Node9 -->
<g id="node9" class="node">
<title>Node9</title>
<g id="a_node9"><a xlink:href="a00017.html" target="_top" xlink:title="Contains definitions for the UniqueQueue class.">
<polygon fill="white" stroke="#666666" points="126.25,-236 15.75,-236 15.75,-204 126.25,-204 126.25,-236"/>
<text xml:space="preserve" text-anchor="start" x="23.75" y="-222.5" font-family="Helvetica,sans-Serif" font-size="10.00">Cpp/analysismethods</text>
<text xml:space="preserve" text-anchor="middle" x="71" y="-210.5" font-family="Helvetica,sans-Serif" font-size="10.00">/src/unique_queue.h</text>
</a>
</g>
</g>
<!-- Node1&#45;&gt;Node9 -->
<g id="edge9" class="edge">
<title>Node1&#45;&gt;Node9</title>
<path fill="none" stroke="#63b8ff" d="M776.07,-285.17C651.59,-281.07 373.66,-268.76 142,-236 137.01,-235.29 131.85,-234.44 126.69,-233.51"/>
<polygon fill="#63b8ff" stroke="#63b8ff" points="775.66,-288.66 785.77,-285.49 775.88,-281.67 775.66,-288.66"/>
</g>
<!-- Node11 -->
<g id="node11" class="node">
<title>Node11</title>
<g id="a_node11"><a xlink:href="a00020.html" target="_top" xlink:title="Contains implementation for the ViewAnalysis namespace.">
<polygon fill="white" stroke="#666666" points="899.88,-236 784.13,-236 784.13,-204 899.88,-204 899.88,-236"/>
<text xml:space="preserve" text-anchor="start" x="792.13" y="-222.5" font-family="Helvetica,sans-Serif" font-size="10.00">Cpp/analysismethods</text>
<text xml:space="preserve" text-anchor="middle" x="842" y="-210.5" font-family="Helvetica,sans-Serif" font-size="10.00">/src/view_analysis.cpp</text>
</a>
</g>
</g>
<!-- Node1&#45;&gt;Node11 -->
<g id="edge12" class="edge">
<title>Node1&#45;&gt;Node11</title>
<path fill="none" stroke="#63b8ff" d="M842,-260.31C842,-252.12 842,-243.38 842,-236.22"/>
<polygon fill="#63b8ff" stroke="#63b8ff" points="838.5,-260.18 842,-270.18 845.5,-260.18 838.5,-260.18"/>
</g>
<!-- Node12 -->
<g id="node12" class="node">
<title>Node12</title>
<g id="a_node12"><a xlink:href="a00026.html" target="_top" xlink:title="Contains implementation for the VisibilityGraph class.">
<polygon fill="white" stroke="#666666" points="1484.38,-100 1365.63,-100 1365.63,-68 1484.38,-68 1484.38,-100"/>
<text xml:space="preserve" text-anchor="start" x="1373.63" y="-86.5" font-family="Helvetica,sans-Serif" font-size="10.00">Cpp/analysismethods</text>
<text xml:space="preserve" text-anchor="middle" x="1425" y="-74.5" font-family="Helvetica,sans-Serif" font-size="10.00">/src/visibility_graph.cpp</text>
</a>
</g>
</g>
<!-- Node1&#45;&gt;Node12 -->
<g id="edge13" class="edge">
<title>Node1&#45;&gt;Node12</title>
<path fill="none" stroke="#63b8ff" d="M908.24,-282.76C1004.66,-275.85 1178.43,-260.44 1236,-236 1312.17,-203.67 1383.03,-131.68 1411.65,-100.21"/>
<polygon fill="#63b8ff" stroke="#63b8ff" points="908.12,-279.26 898.39,-283.45 908.61,-286.24 908.12,-279.26"/>
</g>
<!-- Node13 -->
<g id="node13" class="node">
<title>Node13</title>
<g id="a_node13"><a xlink:href="a00197.html" target="_top" xlink:title="Contains implementation for the BoostGraph class.">
<polygon fill="white" stroke="#666666" points="1603.38,-100 1502.63,-100 1502.63,-68 1603.38,-68 1603.38,-100"/>
<text xml:space="preserve" text-anchor="start" x="1510.63" y="-86.5" font-family="Helvetica,sans-Serif" font-size="10.00">Cpp/pathfinding/src</text>
<text xml:space="preserve" text-anchor="middle" x="1553" y="-74.5" font-family="Helvetica,sans-Serif" font-size="10.00">/boost_graph.cpp</text>
</a>
</g>
</g>
<!-- Node1&#45;&gt;Node13 -->
<g id="edge14" class="edge">
<title>Node1&#45;&gt;Node13</title>
<path fill="none" stroke="#63b8ff" d="M908.2,-287.14C995.28,-285.57 1152.13,-276.63 1279,-236 1380.65,-203.45 1487.69,-131.9 1531.95,-100.4"/>
<polygon fill="#63b8ff" stroke="#63b8ff" points="908.36,-283.64 898.42,-287.29 908.47,-290.64 908.36,-283.64"/>
</g>
<!-- Node14 -->
<g id="node14" class="node">
<title>Node14</title>
<g id="a_node14"><a xlink:href="a00245.html" target="_top" xlink:title="Contains implementation for the CInterface.">
<polygon fill="white" stroke="#666666" points="1052.5,-100 943.5,-100 943.5,-68 1052.5,-68 1052.5,-100"/>
<text xml:space="preserve" text-anchor="start" x="951.5" y="-86.5" font-family="Helvetica,sans-Serif" font-size="10.00">Cpp/spatialstructures</text>
<text xml:space="preserve" text-anchor="middle" x="998" y="-74.5" font-family="Helvetica,sans-Serif" font-size="10.00">/src/CInterface.cpp</text>
</a>
</g>
</g>
<!-- Node1&#45;&gt;Node14 -->
<g id="edge15" class="edge">
<title>Node1&#45;&gt;Node14</title>
<path fill="none" stroke="#63b8ff" d="M877.87,-265.29C889,-257.2 900.55,-247.22 909,-236 937.72,-197.91 922.11,-176.07 948,-136 956.75,-122.46 969.51,-109.52 979.95,-100.06"/>
<polygon fill="#63b8ff" stroke="#63b8ff" points="876.18,-262.21 869.95,-270.77 880.16,-267.96 876.18,-262.21"/>
</g>
<!-- Node15 -->
<g id="node15" class="node">
<title>Node15</title>
<g id="a_node15"><a xlink:href="a00263.html" target="_top" xlink:title="Contains definitions for the Edge structure.">
<polygon fill="white" stroke="#666666" points="1190.5,-236 1081.5,-236 1081.5,-204 1190.5,-204 1190.5,-236"/>
<text xml:space="preserve" text-anchor="start" x="1089.5" y="-222.5" font-family="Helvetica,sans-Serif" font-size="10.00">Cpp/spatialstructures</text>
<text xml:space="preserve" text-anchor="middle" x="1136" y="-210.5" font-family="Helvetica,sans-Serif" font-size="10.00">/src/edge.h</text>
</a>
</g>
</g>
<!-- Node1&#45;&gt;Node15 -->
<g id="edge16" class="edge">
<title>Node1&#45;&gt;Node15</title>
<path fill="none" stroke="#63b8ff" d="M908.12,-272.16C960.33,-260.44 1032.32,-244.28 1081.32,-233.28"/>
<polygon fill="#63b8ff" stroke="#63b8ff" points="907.43,-268.73 898.44,-274.33 908.96,-275.56 907.43,-268.73"/>
</g>
<!-- Node19 -->
<g id="node19" class="node">
<title>Node19</title>
<g id="a_node19"><a xlink:href="a00269.html" target="_top" xlink:title="Contains definitions for the Graph &#160;class.">
<polygon fill="white" stroke="#666666" points="887.5,-168 778.5,-168 778.5,-136 887.5,-136 887.5,-168"/>
<text xml:space="preserve" text-anchor="start" x="786.5" y="-154.5" font-family="Helvetica,sans-Serif" font-size="10.00">Cpp/spatialstructures</text>
<text xml:space="preserve" text-anchor="middle" x="833" y="-142.5" font-family="Helvetica,sans-Serif" font-size="10.00">/src/graph.h</text>
</a>
</g>
</g>
<!-- Node1&#45;&gt;Node19 -->
<g id="edge40" class="edge">
<title>Node1&#45;&gt;Node19</title>
<path fill="none" stroke="#63b8ff" d="M801.29,-265.28C790.8,-257.53 780.83,-247.75 775,-236 768.69,-223.26 769.14,-216.96 775,-204 781.64,-189.34 794.79,-177.22 806.9,-168.47"/>
<polygon fill="#63b8ff" stroke="#63b8ff" points="799.07,-267.99 809.31,-270.71 803,-262.2 799.07,-267.99"/>
</g>
<!-- Node22 -->
<g id="node22" class="node">
<title>Node22</title>
<g id="a_node22"><a xlink:href="a03558.html" target="_top" xlink:title="Contains implementation for the Node structure.">
<polygon fill="white" stroke="#666666" points="1748.5,-236 1639.5,-236 1639.5,-204 1748.5,-204 1748.5,-236"/>
<text xml:space="preserve" text-anchor="start" x="1647.5" y="-222.5" font-family="Helvetica,sans-Serif" font-size="10.00">Cpp/spatialstructures</text>
<text xml:space="preserve" text-anchor="middle" x="1694" y="-210.5" font-family="Helvetica,sans-Serif" font-size="10.00">/src/node.cpp</text>
</a>
</g>
</g>
<!-- Node1&#45;&gt;Node22 -->
<g id="edge41" class="edge">
<title>Node1&#45;&gt;Node22</title>
<path fill="none" stroke="#63b8ff" d="M908.23,-286.01C1043.54,-283.26 1361.2,-273.05 1625,-236 1629.62,-235.35 1634.38,-234.57 1639.15,-233.7"/>
<polygon fill="#63b8ff" stroke="#63b8ff" points="908.32,-282.51 898.39,-286.2 908.45,-289.51 908.32,-282.51"/>
</g>
<!-- Node6&#45;&gt;Node5 -->
<g id="edge7" class="edge">
<title>Node6&#45;&gt;Node5</title>
<path fill="none" stroke="#63b8ff" d="M510.03,-68.57C509.02,-68.38 508.01,-68.19 507,-68 420.28,-51.78 319.48,-35.88 256.21,-26.26"/>
<polygon fill="#63b8ff" stroke="#63b8ff" points="509.11,-71.96 519.6,-70.44 510.46,-65.09 509.11,-71.96"/>
</g>
<!-- Node7 -->
<g id="node7" class="node">
<title>Node7</title>
<g id="a_node7"><a xlink:href="a00404.html" target="_top" xlink:title=" ">
<polygon fill="white" stroke="#666666" points="796,-32 696,-32 696,0 796,0 796,-32"/>
<text xml:space="preserve" text-anchor="start" x="704" y="-18.5" font-family="Helvetica,sans-Serif" font-size="10.00">Cinterface/analysis</text>
<text xml:space="preserve" text-anchor="middle" x="746" y="-6.5" font-family="Helvetica,sans-Serif" font-size="10.00">_C.cpp</text>
</a>
</g>
</g>
<!-- Node6&#45;&gt;Node7 -->
<g id="edge6" class="edge">
<title>Node6&#45;&gt;Node7</title>
<path fill="none" stroke="#63b8ff" d="M627.84,-63.42C652.98,-53.54 683.06,-41.73 706.57,-32.49"/>
<polygon fill="#63b8ff" stroke="#63b8ff" points="626.83,-60.06 618.8,-66.97 629.39,-66.57 626.83,-60.06"/>
</g>
<!-- Node8 -->
<g id="node8" class="node">
<title>Node8</title>
<g id="a_node8"><a xlink:href="a00011.html" target="_top" xlink:title=" ">
<polygon fill="white" stroke="#666666" points="1389.25,-32 1278.75,-32 1278.75,0 1389.25,0 1389.25,-32"/>
<text xml:space="preserve" text-anchor="start" x="1286.75" y="-18.5" font-family="Helvetica,sans-Serif" font-size="10.00">Cpp/analysismethods</text>
<text xml:space="preserve" text-anchor="middle" x="1334" y="-6.5" font-family="Helvetica,sans-Serif" font-size="10.00">/src/graph_utils.cpp</text>
</a>
</g>
</g>
<!-- Node6&#45;&gt;Node8 -->
<g id="edge8" class="edge">
<title>Node6&#45;&gt;Node8</title>
<path fill="none" stroke="#63b8ff" d="M646.21,-67.82C886.85,-32.57 1162.97,-21.57 1278.69,-18.28"/>
<polygon fill="#63b8ff" stroke="#63b8ff" points="646.02,-64.31 636.64,-69.24 647.04,-71.24 646.02,-64.31"/>
</g>
<!-- Node9&#45;&gt;Node5 -->
<g id="edge10" class="edge">
<title>Node9&#45;&gt;Node5</title>
<path fill="none" stroke="#63b8ff" d="M31.16,-197.36C20.72,-189.58 10.78,-179.76 5,-168 -1.26,-155.23 -1.87,-148.45 5,-136 34.61,-82.37 99.67,-49.61 145.14,-32.39"/>
<polygon fill="#63b8ff" stroke="#63b8ff" points="28.89,-200.05 39.12,-202.82 32.85,-194.28 28.89,-200.05"/>
</g>
<!-- Node10 -->
<g id="node10" class="node">
<title>Node10</title>
<g id="a_node10"><a xlink:href="a00014.html" target="_top" xlink:title="Contains implementation for the UniqueQueue class.">
<polygon fill="white" stroke="#666666" points="128.13,-168 13.88,-168 13.88,-136 128.13,-136 128.13,-168"/>
<text xml:space="preserve" text-anchor="start" x="21.88" y="-154.5" font-family="Helvetica,sans-Serif" font-size="10.00">Cpp/analysismethods</text>
<text xml:space="preserve" text-anchor="middle" x="71" y="-142.5" font-family="Helvetica,sans-Serif" font-size="10.00">/src/unique_queue.cpp</text>
</a>
</g>
</g>
<!-- Node9&#45;&gt;Node10 -->
<g id="edge11" class="edge">
<title>Node9&#45;&gt;Node10</title>
<path fill="none" stroke="#63b8ff" d="M71,-192.31C71,-184.12 71,-175.38 71,-168.22"/>
<polygon fill="#63b8ff" stroke="#63b8ff" points="67.5,-192.18 71,-202.18 74.5,-192.18 67.5,-192.18"/>
</g>
<!-- Node15&#45;&gt;Node2 -->
<g id="edge17" class="edge">
<title>Node15&#45;&gt;Node2</title>
<path fill="none" stroke="#63b8ff" d="M1196.63,-199.06C1213.23,-191.37 1230.16,-181.18 1243,-168 1261.73,-148.8 1271.9,-118.5 1276.62,-100.31"/>
<polygon fill="#63b8ff" stroke="#63b8ff" points="1195.54,-195.72 1187.77,-202.92 1198.34,-202.14 1195.54,-195.72"/>
</g>
<!-- Node15&#45;&gt;Node5 -->
<g id="edge18" class="edge">
<title>Node15&#45;&gt;Node5</title>
<path fill="none" stroke="#63b8ff" d="M1069.92,-214.81C869.21,-201.5 276.49,-157.62 213,-100 194.18,-82.91 192.07,-51.32 192.72,-32.43"/>
<polygon fill="#63b8ff" stroke="#63b8ff" points="1069.44,-218.29 1079.65,-215.45 1069.9,-211.3 1069.44,-218.29"/>
</g>
<!-- Node15&#45;&gt;Node8 -->
<g id="edge19" class="edge">
<title>Node15&#45;&gt;Node8</title>
<path fill="none" stroke="#63b8ff" d="M1201.94,-212.55C1320.7,-199.41 1562.83,-165.11 1612,-100 1620.57,-88.65 1621.11,-78.93 1612,-68 1584.24,-34.68 1462.3,-23.06 1389.45,-19.06"/>
<polygon fill="#63b8ff" stroke="#63b8ff" points="1201.91,-209.04 1192.34,-213.6 1202.66,-216 1201.91,-209.04"/>
</g>
<!-- Node15&#45;&gt;Node12 -->
<g id="edge20" class="edge">
<title>Node15&#45;&gt;Node12</title>
<path fill="none" stroke="#63b8ff" d="M1189.92,-199.57C1213.79,-190.57 1242.06,-179.36 1267,-168 1313.95,-146.61 1366.67,-117.94 1397.79,-100.5"/>
<polygon fill="#63b8ff" stroke="#63b8ff" points="1188.84,-196.24 1180.7,-203.02 1191.29,-202.79 1188.84,-196.24"/>
</g>
<!-- Node15&#45;&gt;Node13 -->
<g id="edge21" class="edge">
<title>Node15&#45;&gt;Node13</title>
<path fill="none" stroke="#63b8ff" d="M1201.85,-200.76C1235.01,-191.36 1275.77,-179.48 1312,-168 1381.82,-145.88 1462.09,-117.67 1510.12,-100.49"/>
<polygon fill="#63b8ff" stroke="#63b8ff" points="1201.05,-197.35 1192.37,-203.43 1202.95,-204.08 1201.05,-197.35"/>
</g>
<!-- Node15&#45;&gt;Node14 -->
<g id="edge22" class="edge">
<title>Node15&#45;&gt;Node14</title>
<path fill="none" stroke="#63b8ff" d="M1121.05,-194.12C1109.78,-176.62 1093.19,-153.32 1075,-136 1060.37,-122.07 1041.49,-109.49 1026.09,-100.32"/>
<polygon fill="#63b8ff" stroke="#63b8ff" points="1117.96,-195.78 1126.24,-202.38 1123.89,-192.05 1117.96,-195.78"/>
</g>
<!-- Node16 -->
<g id="node16" class="node">
<title>Node16</title>
<g id="a_node16"><a xlink:href="a00257.html" target="_top" xlink:title="Contains implementation for the HF::SpatialStructures::CostAlgorithms namespace.">
<polygon fill="white" stroke="#666666" points="1234.38,-168 1121.63,-168 1121.63,-136 1234.38,-136 1234.38,-168"/>
<text xml:space="preserve" text-anchor="start" x="1129.63" y="-154.5" font-family="Helvetica,sans-Serif" font-size="10.00">Cpp/spatialstructures</text>
<text xml:space="preserve" text-anchor="middle" x="1178" y="-142.5" font-family="Helvetica,sans-Serif" font-size="10.00">/src/cost_algorithms.h</text>
</a>
</g>
</g>
<!-- Node15&#45;&gt;Node16 -->
<g id="edge23" class="edge">
<title>Node15&#45;&gt;Node16</title>
<path fill="none" stroke="#63b8ff" d="M1151.9,-194.02C1157.42,-185.34 1163.45,-175.88 1168.32,-168.22"/>
<polygon fill="#63b8ff" stroke="#63b8ff" points="1148.97,-192.1 1146.56,-202.42 1154.88,-195.86 1148.97,-192.1"/>
</g>
<!-- Node18 -->
<g id="node18" class="node">
<title>Node18</title>
<g id="a_node18"><a xlink:href="a00260.html" target="_top" xlink:title="Contains implementation for the Edge structure.">
<polygon fill="white" stroke="#666666" points="1065.5,-168 956.5,-168 956.5,-136 1065.5,-136 1065.5,-168"/>
<text xml:space="preserve" text-anchor="start" x="964.5" y="-154.5" font-family="Helvetica,sans-Serif" font-size="10.00">Cpp/spatialstructures</text>
<text xml:space="preserve" text-anchor="middle" x="1011" y="-142.5" font-family="Helvetica,sans-Serif" font-size="10.00">/src/edge.cpp</text>
</a>
</g>
</g>
<!-- Node15&#45;&gt;Node18 -->
<g id="edge26" class="edge">
<title>Node15&#45;&gt;Node18</title>
<path fill="none" stroke="#63b8ff" d="M1096.62,-198.2C1078.32,-188.54 1056.94,-177.26 1040.13,-168.38"/>
<polygon fill="#63b8ff" stroke="#63b8ff" points="1094.88,-201.25 1105.36,-202.82 1098.15,-195.05 1094.88,-201.25"/>
</g>
<!-- Node15&#45;&gt;Node19 -->
<g id="edge27" class="edge">
<title>Node15&#45;&gt;Node19</title>
<path fill="none" stroke="#63b8ff" d="M1070.2,-204.67C1015.73,-192.8 939.23,-176.14 887.98,-164.97"/>
<polygon fill="#63b8ff" stroke="#63b8ff" points="1069.14,-208.02 1079.65,-206.73 1070.63,-201.18 1069.14,-208.02"/>
</g>
<!-- Node16&#45;&gt;Node2 -->
<g id="edge24" class="edge">
<title>Node16&#45;&gt;Node2</title>
<path fill="none" stroke="#63b8ff" d="M1211.19,-129.53C1225.89,-120.02 1242.84,-109.05 1256.24,-100.38"/>
<polygon fill="#63b8ff" stroke="#63b8ff" points="1209.68,-126.33 1203.19,-134.7 1213.49,-132.21 1209.68,-126.33"/>
</g>
<!-- Node17 -->
<g id="node17" class="node">
<title>Node17</title>
<g id="a_node17"><a xlink:href="a00254.html" target="_top" xlink:title=" ">
<polygon fill="white" stroke="#666666" points="1193.63,-100 1070.38,-100 1070.38,-68 1193.63,-68 1193.63,-100"/>
<text xml:space="preserve" text-anchor="start" x="1078.38" y="-86.5" font-family="Helvetica,sans-Serif" font-size="10.00">Cpp/spatialstructures</text>
<text xml:space="preserve" text-anchor="middle" x="1132" y="-74.5" font-family="Helvetica,sans-Serif" font-size="10.00">/src/cost_algorithms.cpp</text>
</a>
</g>
</g>
<!-- Node16&#45;&gt;Node17 -->
<g id="edge25" class="edge">
<title>Node16&#45;&gt;Node17</title>
<path fill="none" stroke="#63b8ff" d="M1160.79,-126.3C1154.69,-117.55 1148.01,-107.96 1142.62,-100.22"/>
<polygon fill="#63b8ff" stroke="#63b8ff" points="1157.88,-128.25 1166.47,-134.45 1163.62,-124.25 1157.88,-128.25"/>
</g>
<!-- Node19&#45;&gt;Node2 -->
<g id="edge30" class="edge">
<title>Node19&#45;&gt;Node2</title>
<path fill="none" stroke="#63b8ff" d="M899.06,-142.34C989.2,-130.45 1146.03,-109.47 1203,-100 1205.83,-99.53 1208.7,-99.04 1211.61,-98.53"/>
<polygon fill="#63b8ff" stroke="#63b8ff" points="898.84,-138.84 889.38,-143.62 899.75,-145.78 898.84,-138.84"/>
</g>
<!-- Node19&#45;&gt;Node3 -->
<g id="edge31" class="edge">
<title>Node19&#45;&gt;Node3</title>
<path fill="none" stroke="#63b8ff" d="M766.63,-146.05C674.22,-138.67 501.74,-123.12 356,-100 353.39,-99.59 350.73,-99.14 348.04,-98.67"/>
<polygon fill="#63b8ff" stroke="#63b8ff" points="766.28,-149.53 776.53,-146.83 766.84,-142.55 766.28,-149.53"/>
</g>
<!-- Node19&#45;&gt;Node4 -->
<g id="edge32" class="edge">
<title>Node19&#45;&gt;Node4</title>
<path fill="none" stroke="#63b8ff" d="M767.14,-143.25C695.84,-134.46 578.91,-118.87 479,-100 474.41,-99.13 469.64,-98.16 464.88,-97.13"/>
<polygon fill="#63b8ff" stroke="#63b8ff" points="766.33,-146.68 776.68,-144.42 767.18,-139.73 766.33,-146.68"/>
</g>
<!-- Node19&#45;&gt;Node5 -->
<g id="edge33" class="edge">
<title>Node19&#45;&gt;Node5</title>
<path fill="none" stroke="#63b8ff" d="M766.96,-150.73C699.9,-148.16 594.48,-137.7 512,-100 491.92,-90.82 493.98,-77.41 474,-68 404.04,-35.06 314.98,-23.34 256.31,-19.2"/>
<polygon fill="#63b8ff" stroke="#63b8ff" points="766.58,-154.22 776.69,-151.05 766.81,-147.22 766.58,-154.22"/>
</g>
<!-- Node19&#45;&gt;Node6 -->
<g id="edge34" class="edge">
<title>Node19&#45;&gt;Node6</title>
<path fill="none" stroke="#63b8ff" d="M767.32,-134C726.31,-123.39 674.05,-109.86 634.83,-99.71"/>
<polygon fill="#63b8ff" stroke="#63b8ff" points="766.28,-137.34 776.83,-136.46 768.03,-130.57 766.28,-137.34"/>
</g>
<!-- Node19&#45;&gt;Node7 -->
<g id="edge28" class="edge">
<title>Node19&#45;&gt;Node7</title>
<path fill="none" stroke="#63b8ff" d="M871.13,-128.99C881.07,-121.2 890.53,-111.47 896,-100 902.13,-87.16 904.29,-79.56 896,-68 873.5,-36.58 830.52,-24.29 796.31,-19.59"/>
<polygon fill="#63b8ff" stroke="#63b8ff" points="869.26,-126.02 863.18,-134.7 873.35,-131.7 869.26,-126.02"/>
</g>
<!-- Node19&#45;&gt;Node12 -->
<g id="edge35" class="edge">
<title>Node19&#45;&gt;Node12</title>
<path fill="none" stroke="#63b8ff" d="M899.32,-141.87C915.25,-139.81 932.22,-137.72 948,-136 1129.41,-116.19 1176.64,-127.71 1357,-100 1359.75,-99.58 1362.56,-99.11 1365.38,-98.61"/>
<polygon fill="#63b8ff" stroke="#63b8ff" points="898.9,-138.39 889.43,-143.16 899.8,-145.33 898.9,-138.39"/>
</g>
<!-- Node19&#45;&gt;Node13 -->
<g id="edge36" class="edge">
<title>Node19&#45;&gt;Node13</title>
<path fill="none" stroke="#63b8ff" d="M899.29,-141.62C915.22,-139.57 932.2,-137.55 948,-136 1189.59,-112.29 1253.18,-137.59 1493,-100 1496.08,-99.52 1499.23,-98.95 1502.4,-98.33"/>
<polygon fill="#63b8ff" stroke="#63b8ff" points="898.87,-138.15 889.41,-142.92 899.78,-145.09 898.87,-138.15"/>
</g>
<!-- Node19&#45;&gt;Node14 -->
<g id="edge37" class="edge">
<title>Node19&#45;&gt;Node14</title>
<path fill="none" stroke="#63b8ff" d="M882.28,-131.29C906.91,-121.44 936.28,-109.69 959.28,-100.49"/>
<polygon fill="#63b8ff" stroke="#63b8ff" points="881.08,-128 873.09,-134.96 883.68,-134.5 881.08,-128"/>
</g>
<!-- Node19&#45;&gt;Node17 -->
<g id="edge38" class="edge">
<title>Node19&#45;&gt;Node17</title>
<path fill="none" stroke="#63b8ff" d="M899.07,-136.42C950.06,-125.16 1020.09,-109.7 1070.03,-98.68"/>
<polygon fill="#63b8ff" stroke="#63b8ff" points="898.33,-133 889.32,-138.57 899.84,-139.83 898.33,-133"/>
</g>
<!-- Node20 -->
<g id="node20" class="node">
<title>Node20</title>
<g id="a_node20"><a xlink:href="a00422.html" target="_top" xlink:title=" ">
<polygon fill="white" stroke="#666666" points="759.38,-100 652.63,-100 652.63,-68 759.38,-68 759.38,-100"/>
<text xml:space="preserve" text-anchor="start" x="660.63" y="-86.5" font-family="Helvetica,sans-Serif" font-size="10.00">Cinterface/pathfinder</text>
<text xml:space="preserve" text-anchor="middle" x="706" y="-74.5" font-family="Helvetica,sans-Serif" font-size="10.00">_C.cpp</text>
</a>
</g>
</g>
<!-- Node19&#45;&gt;Node20 -->
<g id="edge29" class="edge">
<title>Node19&#45;&gt;Node20</title>
<path fill="none" stroke="#63b8ff" d="M793.25,-130.34C774.6,-120.65 752.76,-109.3 735.59,-100.38"/>
<polygon fill="#63b8ff" stroke="#63b8ff" points="791.4,-133.32 801.89,-134.83 794.63,-127.11 791.4,-133.32"/>
</g>
<!-- Node21 -->
<g id="node21" class="node">
<title>Node21</title>
<g id="a_node21"><a xlink:href="a00266.html" target="_top" xlink:title="Contains implementation for the Graph class.">
<polygon fill="white" stroke="#666666" points="886.5,-100 777.5,-100 777.5,-68 886.5,-68 886.5,-100"/>
<text xml:space="preserve" text-anchor="start" x="785.5" y="-86.5" font-family="Helvetica,sans-Serif" font-size="10.00">Cpp/spatialstructures</text>
<text xml:space="preserve" text-anchor="middle" x="832" y="-74.5" font-family="Helvetica,sans-Serif" font-size="10.00">/src/graph.cpp</text>
</a>
</g>
</g>
<!-- Node19&#45;&gt;Node21 -->
<g id="edge39" class="edge">
<title>Node19&#45;&gt;Node21</title>
<path fill="none" stroke="#63b8ff" d="M832.6,-124.31C832.48,-116.12 832.34,-107.38 832.23,-100.22"/>
<polygon fill="#63b8ff" stroke="#63b8ff" points="829.1,-124.23 832.75,-134.18 836.1,-124.13 829.1,-124.23"/>
</g>
</g>
</svg>
