<?xml version="1.0" encoding="UTF-8" standalone="no"?>
<!DOCTYPE svg PUBLIC "-//W3C//DTD SVG 1.1//EN"
 "http://www.w3.org/Graphics/SVG/1.1/DTD/svg11.dtd">
<!-- Generated by graphviz version 13.1.2 (20250808.2320)
 -->
<!-- Title: operator&lt;&lt; Pages: 1 -->
<svg width="268pt" height="90pt"
 viewBox="0.00 0.00 268.00 90.00" xmlns="http://www.w3.org/2000/svg" xmlns:xlink="http://www.w3.org/1999/xlink">
<g id="graph0" class="graph" transform="scale(1 1) rotate(0) translate(4 86)">
<title>operator&lt;&lt;</title>
<!-- Node1 -->
<g id="node1" class="node">
<title>Node1</title>
<g id="a_node1"><a xlink:title="An overload to print HF::Pathfinding::DistanceAndPredecessor when passed to cout .">
<polygon fill="#999999" stroke="#666666" points="63.25,-51 0,-51 0,-31 63.25,-31 63.25,-51"/>
<text xml:space="preserve" text-anchor="middle" x="31.62" y="-37.5" font-family="Helvetica,sans-Serif" font-size="10.00">operator&lt;&lt;</text>
</a>
</g>
</g>
<!-- Node2 -->
<g id="node2" class="node">
<title>Node2</title>
<g id="a_node2"><a xlink:href="a01395.html#a7237256578bb77a912babbc2f777756c" target="_top" xlink:title="Get a pointer to the beginning of the ith row of the distance array.">
<polygon fill="white" stroke="#666666" points="258.88,-82 100.38,-82 100.38,-50 258.88,-50 258.88,-82"/>
<text xml:space="preserve" text-anchor="start" x="108.38" y="-68.5" font-family="Helvetica,sans-Serif" font-size="10.00">HF::Pathfinding::Distance</text>
<text xml:space="preserve" text-anchor="middle" x="179.62" y="-56.5" font-family="Helvetica,sans-Serif" font-size="10.00">AndPredecessor::GetRowOfDist</text>
</a>
</g>
</g>
<!-- Node1&#45;&gt;Node2 -->
<g id="edge1" class="edge">
<title>Node1&#45;&gt;Node2</title>
<path fill="none" stroke="#63b8ff" d="M63.59,-46.3C71.26,-47.62 79.88,-49.09 88.86,-50.63"/>
<polygon fill="#63b8ff" stroke="#63b8ff" points="88,-54.03 98.45,-52.27 89.18,-47.13 88,-54.03"/>
</g>
<!-- Node3 -->
<g id="node3" class="node">
<title>Node3</title>
<g id="a_node3"><a xlink:href="a01395.html#a4ab3579abd7bd4f18456e8e5022b51ca" target="_top" xlink:title="Get a pointer to the beginning of the ith row of the predecessor array.">
<polygon fill="white" stroke="#666666" points="260,-32 99.25,-32 99.25,0 260,0 260,-32"/>
<text xml:space="preserve" text-anchor="start" x="107.25" y="-18.5" font-family="Helvetica,sans-Serif" font-size="10.00">HF::Pathfinding::Distance</text>
<text xml:space="preserve" text-anchor="middle" x="179.62" y="-6.5" font-family="Helvetica,sans-Serif" font-size="10.00">AndPredecessor::GetRowOfPred</text>
</a>
</g>
</g>
<!-- Node1&#45;&gt;Node3 -->
<g id="edge2" class="edge">
<title>Node1&#45;&gt;Node3</title>
<path fill="none" stroke="#63b8ff" d="M63.59,-35.7C71,-34.43 79.3,-33.01 87.94,-31.53"/>
<polygon fill="#63b8ff" stroke="#63b8ff" points="88.29,-35.02 97.55,-29.88 87.1,-28.12 88.29,-35.02"/>
</g>
</g>
</svg>
