<?xml version="1.0" encoding="UTF-8" standalone="no"?>
<!DOCTYPE svg PUBLIC "-//W3C//DTD SVG 1.1//EN"
 "http://www.w3.org/Graphics/SVG/1.1/DTD/svg11.dtd">
<!-- Generated by graphviz version 13.1.2 (20250808.2320)
 -->
<!-- Title: Cpp/raytracer/src/RayRequest.h Pages: 1 -->
<svg width="455pt" height="96pt"
 viewBox="0.00 0.00 455.00 96.00" xmlns="http://www.w3.org/2000/svg" xmlns:xlink="http://www.w3.org/1999/xlink">
<g id="graph0" class="graph" transform="scale(1 1) rotate(0) translate(4 92)">
<title>Cpp/raytracer/src/RayRequest.h</title>
<!-- Node1 -->
<g id="node1" class="node">
<title>Node1</title>
<g id="a_node1"><a xlink:title="Contains definitions for the RayTracer namespace.">
<polygon fill="#999999" stroke="#666666" points="296.75,-88 139,-88 139,-68 296.75,-68 296.75,-88"/>
<text xml:space="preserve" text-anchor="middle" x="217.88" y="-74.5" font-family="Helvetica,sans-Serif" font-size="10.00">Cpp/raytracer/src/RayRequest.h</text>
</a>
</g>
</g>
<!-- Node2 -->
<g id="node2" class="node">
<title>Node2</title>
<g id="a_node2"><a xlink:href="a00020.html" target="_top" xlink:title="Contains implementation for the ViewAnalysis namespace.">
<polygon fill="white" stroke="#666666" points="115.75,-32 0,-32 0,0 115.75,0 115.75,-32"/>
<text xml:space="preserve" text-anchor="start" x="8" y="-18.5" font-family="Helvetica,sans-Serif" font-size="10.00">Cpp/analysismethods</text>
<text xml:space="preserve" text-anchor="middle" x="57.88" y="-6.5" font-family="Helvetica,sans-Serif" font-size="10.00">/src/view_analysis.cpp</text>
</a>
</g>
</g>
<!-- Node1&#45;&gt;Node2 -->
<g id="edge1" class="edge">
<title>Node1&#45;&gt;Node2</title>
<path fill="none" stroke="#63b8ff" d="M182.21,-63.63C157.63,-54.41 124.9,-42.13 99.18,-32.49"/>
<polygon fill="#63b8ff" stroke="#63b8ff" points="180.87,-66.86 191.46,-67.09 183.32,-60.31 180.87,-66.86"/>
</g>
<!-- Node3 -->
<g id="node3" class="node">
<title>Node3</title>
<g id="a_node3"><a xlink:href="a00233.html" target="_top" xlink:title="Contains implementation for the RayTracer namespace.">
<polygon fill="white" stroke="#666666" points="302,-26 133.75,-26 133.75,-6 302,-6 302,-26"/>
<text xml:space="preserve" text-anchor="middle" x="217.88" y="-12.5" font-family="Helvetica,sans-Serif" font-size="10.00">Cpp/raytracer/src/RayRequest.cpp</text>
</a>
</g>
</g>
<!-- Node1&#45;&gt;Node3 -->
<g id="edge2" class="edge">
<title>Node1&#45;&gt;Node3</title>
<path fill="none" stroke="#63b8ff" d="M217.88,-56.25C217.88,-45.97 217.88,-34.09 217.88,-26.11"/>
<polygon fill="#63b8ff" stroke="#63b8ff" points="214.38,-56.11 217.88,-66.11 221.38,-56.11 214.38,-56.11"/>
</g>
<!-- Node4 -->
<g id="node4" class="node">
<title>Node4</title>
<g id="a_node4"><a xlink:href="a00209.html" target="_top" xlink:title="Contains implementation for the EmbreeRayTracer">
<polygon fill="white" stroke="#666666" points="447.38,-32 320.38,-32 320.38,0 447.38,0 447.38,-32"/>
<text xml:space="preserve" text-anchor="start" x="328.38" y="-18.5" font-family="Helvetica,sans-Serif" font-size="10.00">Cpp/raytracer/src/embree</text>
<text xml:space="preserve" text-anchor="middle" x="383.88" y="-6.5" font-family="Helvetica,sans-Serif" font-size="10.00">_raytracer.cpp</text>
</a>
</g>
</g>
<!-- Node1&#45;&gt;Node4 -->
<g id="edge3" class="edge">
<title>Node1&#45;&gt;Node4</title>
<path fill="none" stroke="#63b8ff" d="M254.53,-63.75C280.07,-54.52 314.22,-42.18 341.02,-32.49"/>
<polygon fill="#63b8ff" stroke="#63b8ff" points="253.45,-60.42 245.24,-67.11 255.83,-67 253.45,-60.42"/>
</g>
</g>
</svg>
