<?xml version="1.0" encoding="UTF-8" standalone="no"?>
<!DOCTYPE svg PUBLIC "-//W3C//DTD SVG 1.1//EN"
 "http://www.w3.org/Graphics/SVG/1.1/DTD/svg11.dtd">
<!-- Generated by graphviz version 13.1.2 (20250808.2320)
 -->
<!-- Title: Cpp/spatialstructures/src/edge.h Pages: 1 -->
<svg width="143pt" height="152pt"
 viewBox="0.00 0.00 143.00 152.00" xmlns="http://www.w3.org/2000/svg" xmlns:xlink="http://www.w3.org/1999/xlink">
<g id="graph0" class="graph" transform="scale(1 1) rotate(0) translate(4 148)">
<title>Cpp/spatialstructures/src/edge.h</title>
<!-- Node1 -->
<g id="node1" class="node">
<title>Node1</title>
<g id="a_node1"><a xlink:title="Contains definitions for the Edge structure.">
<polygon fill="#999999" stroke="#666666" points="135.38,-144 26.38,-144 26.38,-112 135.38,-112 135.38,-144"/>
<text xml:space="preserve" text-anchor="start" x="34.38" y="-130.5" font-family="Helvetica,sans-Serif" font-size="10.00">Cpp/spatialstructures</text>
<text xml:space="preserve" text-anchor="middle" x="80.88" y="-118.5" font-family="Helvetica,sans-Serif" font-size="10.00">/src/edge.h</text>
</a>
</g>
</g>
<!-- Node2 -->
<g id="node2" class="node">
<title>Node2</title>
<g id="a_node2"><a xlink:href="a00275.html" target="_top" xlink:title="Contains definitions for the Node structure.">
<polygon fill="white" stroke="#666666" points="72.5,-76 27.25,-76 27.25,-56 72.5,-56 72.5,-76"/>
<text xml:space="preserve" text-anchor="middle" x="49.88" y="-62.5" font-family="Helvetica,sans-Serif" font-size="10.00">node.h</text>
</a>
</g>
</g>
<!-- Node1&#45;&gt;Node2 -->
<g id="edge1" class="edge">
<title>Node1&#45;&gt;Node2</title>
<path fill="none" stroke="#63b8ff" d="M72.89,-111.55C68.95,-103.91 64.14,-94.61 59.94,-86.49"/>
<polygon fill="#63b8ff" stroke="#63b8ff" points="63.13,-85.03 55.43,-77.75 56.91,-88.24 63.13,-85.03"/>
</g>
<!-- Node5 -->
<g id="node5" class="node">
<title>Node5</title>
<g id="a_node5"><a xlink:title=" ">
<polygon fill="#e0e0e0" stroke="#999999" points="133.38,-76 90.38,-76 90.38,-56 133.38,-56 133.38,-76"/>
<text xml:space="preserve" text-anchor="middle" x="111.88" y="-62.5" font-family="Helvetica,sans-Serif" font-size="10.00">vector</text>
</a>
</g>
</g>
<!-- Node1&#45;&gt;Node5 -->
<g id="edge4" class="edge">
<title>Node1&#45;&gt;Node5</title>
<path fill="none" stroke="#63b8ff" d="M88.86,-111.55C92.8,-103.91 97.61,-94.61 101.81,-86.49"/>
<polygon fill="#63b8ff" stroke="#63b8ff" points="104.84,-88.24 106.32,-77.75 98.62,-85.03 104.84,-88.24"/>
</g>
<!-- Node3 -->
<g id="node3" class="node">
<title>Node3</title>
<g id="a_node3"><a xlink:title=" ">
<polygon fill="#e0e0e0" stroke="#999999" points="37.75,-20 0,-20 0,0 37.75,0 37.75,-20"/>
<text xml:space="preserve" text-anchor="middle" x="18.88" y="-6.5" font-family="Helvetica,sans-Serif" font-size="10.00">array</text>
</a>
</g>
</g>
<!-- Node2&#45;&gt;Node3 -->
<g id="edge2" class="edge">
<title>Node2&#45;&gt;Node3</title>
<path fill="none" stroke="#63b8ff" d="M44.48,-55.59C40.43,-48.55 34.76,-38.67 29.78,-30"/>
<polygon fill="#63b8ff" stroke="#63b8ff" points="32.98,-28.54 24.97,-21.61 26.91,-32.03 32.98,-28.54"/>
</g>
<!-- Node4 -->
<g id="node4" class="node">
<title>Node4</title>
<g id="a_node4"><a xlink:title=" ">
<polygon fill="#e0e0e0" stroke="#999999" points="107.5,-20 56.25,-20 56.25,0 107.5,0 107.5,-20"/>
<text xml:space="preserve" text-anchor="middle" x="81.88" y="-6.5" font-family="Helvetica,sans-Serif" font-size="10.00">ostream</text>
</a>
</g>
</g>
<!-- Node2&#45;&gt;Node4 -->
<g id="edge3" class="edge">
<title>Node2&#45;&gt;Node4</title>
<path fill="none" stroke="#63b8ff" d="M55.45,-55.59C59.62,-48.55 65.48,-38.67 70.62,-30"/>
<polygon fill="#63b8ff" stroke="#63b8ff" points="73.51,-31.99 75.59,-21.6 67.48,-28.42 73.51,-31.99"/>
</g>
</g>
</svg>
