<?xml version="1.0" encoding="UTF-8" standalone="no"?>
<!DOCTYPE svg PUBLIC "-//W3C//DTD SVG 1.1//EN"
 "http://www.w3.org/Graphics/SVG/1.1/DTD/svg11.dtd">
<!-- Generated by graphviz version 13.1.2 (20250808.2320)
 -->
<!-- Title: Cpp/raytracer/src/MultiRT.h Pages: 1 -->
<svg width="409pt" height="164pt"
 viewBox="0.00 0.00 409.00 164.00" xmlns="http://www.w3.org/2000/svg" xmlns:xlink="http://www.w3.org/1999/xlink">
<g id="graph0" class="graph" transform="scale(1 1) rotate(0) translate(4 160)">
<title>Cpp/raytracer/src/MultiRT.h</title>
<!-- Node1 -->
<g id="node1" class="node">
<title>Node1</title>
<g id="a_node1"><a xlink:title=" ">
<polygon fill="#999999" stroke="#666666" points="322,-156 186,-156 186,-136 322,-136 322,-156"/>
<text xml:space="preserve" text-anchor="middle" x="254" y="-142.5" font-family="Helvetica,sans-Serif" font-size="10.00">Cpp/raytracer/src/MultiRT.h</text>
</a>
</g>
</g>
<!-- Node2 -->
<g id="node2" class="node">
<title>Node2</title>
<g id="a_node2"><a xlink:href="a00008.html" target="_top" xlink:title="Contains declarations for all functions related to the graph generator.">
<polygon fill="white" stroke="#666666" points="236.75,-100 123.25,-100 123.25,-68 236.75,-68 236.75,-100"/>
<text xml:space="preserve" text-anchor="start" x="131.25" y="-86.5" font-family="Helvetica,sans-Serif" font-size="10.00">Cpp/analysismethods</text>
<text xml:space="preserve" text-anchor="middle" x="180" y="-74.5" font-family="Helvetica,sans-Serif" font-size="10.00">/src/graph_generator.h</text>
</a>
</g>
</g>
<!-- Node1&#45;&gt;Node2 -->
<g id="edge1" class="edge">
<title>Node1&#45;&gt;Node2</title>
<path fill="none" stroke="#63b8ff" d="M233.66,-128.51C222.83,-119.72 209.58,-108.98 198.96,-100.37"/>
<polygon fill="#63b8ff" stroke="#63b8ff" points="231.29,-131.09 241.26,-134.67 235.7,-125.66 231.29,-131.09"/>
</g>
<!-- Node6 -->
<g id="node6" class="node">
<title>Node6</title>
<g id="a_node6"><a xlink:href="a00221.html" target="_top" xlink:title=" ">
<polygon fill="white" stroke="#666666" points="401.25,-94 254.75,-94 254.75,-74 401.25,-74 401.25,-94"/>
<text xml:space="preserve" text-anchor="middle" x="328" y="-80.5" font-family="Helvetica,sans-Serif" font-size="10.00">Cpp/raytracer/src/MultiRT.cpp</text>
</a>
</g>
</g>
<!-- Node1&#45;&gt;Node6 -->
<g id="edge5" class="edge">
<title>Node1&#45;&gt;Node6</title>
<path fill="none" stroke="#63b8ff" d="M274.29,-128.55C287.98,-117.45 305.52,-103.23 316.76,-94.11"/>
<polygon fill="#63b8ff" stroke="#63b8ff" points="272.3,-125.66 266.74,-134.67 276.71,-131.09 272.3,-125.66"/>
</g>
<!-- Node3 -->
<g id="node3" class="node">
<title>Node3</title>
<g id="a_node3"><a xlink:href="a00404.html" target="_top" xlink:title=" ">
<polygon fill="white" stroke="#666666" points="100,-32 0,-32 0,0 100,0 100,-32"/>
<text xml:space="preserve" text-anchor="start" x="8" y="-18.5" font-family="Helvetica,sans-Serif" font-size="10.00">Cinterface/analysis</text>
<text xml:space="preserve" text-anchor="middle" x="50" y="-6.5" font-family="Helvetica,sans-Serif" font-size="10.00">_C.cpp</text>
</a>
</g>
</g>
<!-- Node2&#45;&gt;Node3 -->
<g id="edge2" class="edge">
<title>Node2&#45;&gt;Node3</title>
<path fill="none" stroke="#63b8ff" d="M139.3,-62.34C120.21,-52.65 97.86,-41.3 80.29,-32.38"/>
<polygon fill="#63b8ff" stroke="#63b8ff" points="137.67,-65.43 148.17,-66.84 140.84,-59.19 137.67,-65.43"/>
</g>
<!-- Node4 -->
<g id="node4" class="node">
<title>Node4</title>
<g id="a_node4"><a xlink:href="a00005.html" target="_top" xlink:title="Contains implementation for the functions in the GraphGenerator class.">
<polygon fill="white" stroke="#666666" points="242,-32 118,-32 118,0 242,0 242,-32"/>
<text xml:space="preserve" text-anchor="start" x="126" y="-18.5" font-family="Helvetica,sans-Serif" font-size="10.00">Cpp/analysismethods</text>
<text xml:space="preserve" text-anchor="middle" x="180" y="-6.5" font-family="Helvetica,sans-Serif" font-size="10.00">/src/graph_generator.cpp</text>
</a>
</g>
</g>
<!-- Node2&#45;&gt;Node4 -->
<g id="edge3" class="edge">
<title>Node2&#45;&gt;Node4</title>
<path fill="none" stroke="#63b8ff" d="M180,-56.31C180,-48.12 180,-39.38 180,-32.22"/>
<polygon fill="#63b8ff" stroke="#63b8ff" points="176.5,-56.18 180,-66.18 183.5,-56.18 176.5,-56.18"/>
</g>
<!-- Node5 -->
<g id="node5" class="node">
<title>Node5</title>
<g id="a_node5"><a xlink:href="a00011.html" target="_top" xlink:title=" ">
<polygon fill="white" stroke="#666666" points="370.25,-32 259.75,-32 259.75,0 370.25,0 370.25,-32"/>
<text xml:space="preserve" text-anchor="start" x="267.75" y="-18.5" font-family="Helvetica,sans-Serif" font-size="10.00">Cpp/analysismethods</text>
<text xml:space="preserve" text-anchor="middle" x="315" y="-6.5" font-family="Helvetica,sans-Serif" font-size="10.00">/src/graph_utils.cpp</text>
</a>
</g>
</g>
<!-- Node2&#45;&gt;Node5 -->
<g id="edge4" class="edge">
<title>Node2&#45;&gt;Node5</title>
<path fill="none" stroke="#63b8ff" d="M221.99,-62.47C241.87,-52.75 265.22,-41.34 283.55,-32.38"/>
<polygon fill="#63b8ff" stroke="#63b8ff" points="220.46,-59.32 213.01,-66.86 223.53,-65.61 220.46,-59.32"/>
</g>
</g>
</svg>
