<?xml version="1.0" encoding="UTF-8" standalone="no"?>
<!DOCTYPE svg PUBLIC "-//W3C//DTD SVG 1.1//EN"
 "http://www.w3.org/Graphics/SVG/1.1/DTD/svg11.dtd">
<!-- Generated by graphviz version 13.1.2 (20250808.2320)
 -->
<!-- Title: Cpp/raytracer/src/embree_raytracer.h Pages: 1 -->
<svg width="1198pt" height="108pt"
 viewBox="0.00 0.00 1198.00 108.00" xmlns="http://www.w3.org/2000/svg" xmlns:xlink="http://www.w3.org/1999/xlink">
<g id="graph0" class="graph" transform="scale(1 1) rotate(0) translate(4 104)">
<title>Cpp/raytracer/src/embree_raytracer.h</title>
<!-- Node1 -->
<g id="node1" class="node">
<title>Node1</title>
<g id="a_node1"><a xlink:title="Contains definitions for the EmbreeRayTracer">
<polygon fill="#999999" stroke="#666666" points="617.5,-100 490.5,-100 490.5,-68 617.5,-68 617.5,-100"/>
<text xml:space="preserve" text-anchor="start" x="498.5" y="-86.5" font-family="Helvetica,sans-Serif" font-size="10.00">Cpp/raytracer/src/embree</text>
<text xml:space="preserve" text-anchor="middle" x="554" y="-74.5" font-family="Helvetica,sans-Serif" font-size="10.00">_raytracer.h</text>
</a>
</g>
</g>
<!-- Node2 -->
<g id="node2" class="node">
<title>Node2</title>
<g id="a_node2"><a xlink:href="a00404.html" target="_top" xlink:title=" ">
<polygon fill="white" stroke="#666666" points="100,-32 0,-32 0,0 100,0 100,-32"/>
<text xml:space="preserve" text-anchor="start" x="8" y="-18.5" font-family="Helvetica,sans-Serif" font-size="10.00">Cinterface/analysis</text>
<text xml:space="preserve" text-anchor="middle" x="50" y="-6.5" font-family="Helvetica,sans-Serif" font-size="10.00">_C.cpp</text>
</a>
</g>
</g>
<!-- Node1&#45;&gt;Node2 -->
<g id="edge1" class="edge">
<title>Node1&#45;&gt;Node2</title>
<path fill="none" stroke="#63b8ff" d="M478.92,-77.5C390.08,-70.29 237.96,-55.67 109,-32 106.19,-31.48 103.32,-30.91 100.43,-30.3"/>
<polygon fill="#63b8ff" stroke="#63b8ff" points="478.47,-80.98 488.72,-78.29 479.03,-74 478.47,-80.98"/>
</g>
<!-- Node3 -->
<g id="node3" class="node">
<title>Node3</title>
<g id="a_node3"><a xlink:href="a00428.html" target="_top" xlink:title=" ">
<polygon fill="white" stroke="#666666" points="220.12,-32 117.88,-32 117.88,0 220.12,0 220.12,-32"/>
<text xml:space="preserve" text-anchor="start" x="125.88" y="-18.5" font-family="Helvetica,sans-Serif" font-size="10.00">Cinterface/raytracer</text>
<text xml:space="preserve" text-anchor="middle" x="169" y="-6.5" font-family="Helvetica,sans-Serif" font-size="10.00">_C.cpp</text>
</a>
</g>
</g>
<!-- Node1&#45;&gt;Node3 -->
<g id="edge2" class="edge">
<title>Node1&#45;&gt;Node3</title>
<path fill="none" stroke="#63b8ff" d="M479.05,-73.18C412.95,-64.05 314.19,-49.3 229,-32 226.16,-31.42 223.25,-30.8 220.32,-30.15"/>
<polygon fill="#63b8ff" stroke="#63b8ff" points="478.3,-76.61 488.68,-74.5 479.25,-69.67 478.3,-76.61"/>
</g>
<!-- Node4 -->
<g id="node4" class="node">
<title>Node4</title>
<g id="a_node4"><a xlink:href="a00440.html" target="_top" xlink:title=" ">
<polygon fill="white" stroke="#666666" points="363.75,-32 238.25,-32 238.25,0 363.75,0 363.75,-32"/>
<text xml:space="preserve" text-anchor="start" x="246.25" y="-18.5" font-family="Helvetica,sans-Serif" font-size="10.00">Cinterface/view_analysis</text>
<text xml:space="preserve" text-anchor="middle" x="301" y="-6.5" font-family="Helvetica,sans-Serif" font-size="10.00">_C.cpp</text>
</a>
</g>
</g>
<!-- Node1&#45;&gt;Node4 -->
<g id="edge3" class="edge">
<title>Node1&#45;&gt;Node4</title>
<path fill="none" stroke="#63b8ff" d="M483.98,-64.73C445.15,-54.6 397.38,-42.14 360.38,-32.49"/>
<polygon fill="#63b8ff" stroke="#63b8ff" points="482.66,-68.01 493.22,-67.14 484.43,-61.23 482.66,-68.01"/>
</g>
<!-- Node5 -->
<g id="node5" class="node">
<title>Node5</title>
<g id="a_node5"><a xlink:href="a00446.html" target="_top" xlink:title=" ">
<polygon fill="white" stroke="#666666" points="480.62,-32 381.38,-32 381.38,0 480.62,0 480.62,-32"/>
<text xml:space="preserve" text-anchor="start" x="389.38" y="-18.5" font-family="Helvetica,sans-Serif" font-size="10.00">Cinterface/visibility</text>
<text xml:space="preserve" text-anchor="middle" x="431" y="-6.5" font-family="Helvetica,sans-Serif" font-size="10.00">_graph_C.cpp</text>
</a>
</g>
</g>
<!-- Node1&#45;&gt;Node5 -->
<g id="edge4" class="edge">
<title>Node1&#45;&gt;Node5</title>
<path fill="none" stroke="#63b8ff" d="M515.24,-62.2C497.24,-52.54 476.2,-41.26 459.66,-32.38"/>
<polygon fill="#63b8ff" stroke="#63b8ff" points="513.36,-65.17 523.83,-66.81 516.67,-59 513.36,-65.17"/>
</g>
<!-- Node6 -->
<g id="node6" class="node">
<title>Node6</title>
<g id="a_node6"><a xlink:href="a00011.html" target="_top" xlink:title=" ">
<polygon fill="white" stroke="#666666" points="609.25,-32 498.75,-32 498.75,0 609.25,0 609.25,-32"/>
<text xml:space="preserve" text-anchor="start" x="506.75" y="-18.5" font-family="Helvetica,sans-Serif" font-size="10.00">Cpp/analysismethods</text>
<text xml:space="preserve" text-anchor="middle" x="554" y="-6.5" font-family="Helvetica,sans-Serif" font-size="10.00">/src/graph_utils.cpp</text>
</a>
</g>
</g>
<!-- Node1&#45;&gt;Node6 -->
<g id="edge5" class="edge">
<title>Node1&#45;&gt;Node6</title>
<path fill="none" stroke="#63b8ff" d="M554,-56.31C554,-48.12 554,-39.38 554,-32.22"/>
<polygon fill="#63b8ff" stroke="#63b8ff" points="550.5,-56.18 554,-66.18 557.5,-56.18 550.5,-56.18"/>
</g>
<!-- Node7 -->
<g id="node7" class="node">
<title>Node7</title>
<g id="a_node7"><a xlink:href="a00020.html" target="_top" xlink:title="Contains implementation for the ViewAnalysis namespace.">
<polygon fill="white" stroke="#666666" points="742.88,-32 627.12,-32 627.12,0 742.88,0 742.88,-32"/>
<text xml:space="preserve" text-anchor="start" x="635.12" y="-18.5" font-family="Helvetica,sans-Serif" font-size="10.00">Cpp/analysismethods</text>
<text xml:space="preserve" text-anchor="middle" x="685" y="-6.5" font-family="Helvetica,sans-Serif" font-size="10.00">/src/view_analysis.cpp</text>
</a>
</g>
</g>
<!-- Node1&#45;&gt;Node7 -->
<g id="edge6" class="edge">
<title>Node1&#45;&gt;Node7</title>
<path fill="none" stroke="#63b8ff" d="M594.74,-62.47C614.04,-52.75 636.69,-41.34 654.48,-32.38"/>
<polygon fill="#63b8ff" stroke="#63b8ff" points="593.42,-59.22 586.07,-66.84 596.57,-65.47 593.42,-59.22"/>
</g>
<!-- Node8 -->
<g id="node8" class="node">
<title>Node8</title>
<g id="a_node8"><a xlink:href="a00026.html" target="_top" xlink:title="Contains implementation for the VisibilityGraph class.">
<polygon fill="white" stroke="#666666" points="879.38,-32 760.62,-32 760.62,0 879.38,0 879.38,-32"/>
<text xml:space="preserve" text-anchor="start" x="768.62" y="-18.5" font-family="Helvetica,sans-Serif" font-size="10.00">Cpp/analysismethods</text>
<text xml:space="preserve" text-anchor="middle" x="820" y="-6.5" font-family="Helvetica,sans-Serif" font-size="10.00">/src/visibility_graph.cpp</text>
</a>
</g>
</g>
<!-- Node1&#45;&gt;Node8 -->
<g id="edge7" class="edge">
<title>Node1&#45;&gt;Node8</title>
<path fill="none" stroke="#63b8ff" d="M627.33,-64.81C669.18,-54.42 720.97,-41.57 760.31,-31.81"/>
<polygon fill="#63b8ff" stroke="#63b8ff" points="626.7,-61.36 617.83,-67.16 628.38,-68.15 626.7,-61.36"/>
</g>
<!-- Node9 -->
<g id="node9" class="node">
<title>Node9</title>
<g id="a_node9"><a xlink:href="a00221.html" target="_top" xlink:title=" ">
<polygon fill="white" stroke="#666666" points="1044.25,-26 897.75,-26 897.75,-6 1044.25,-6 1044.25,-26"/>
<text xml:space="preserve" text-anchor="middle" x="971" y="-12.5" font-family="Helvetica,sans-Serif" font-size="10.00">Cpp/raytracer/src/MultiRT.cpp</text>
</a>
</g>
</g>
<!-- Node1&#45;&gt;Node9 -->
<g id="edge8" class="edge">
<title>Node1&#45;&gt;Node9</title>
<path fill="none" stroke="#63b8ff" d="M628.78,-72.18C696.54,-62.23 799.07,-46.82 888,-32 898.4,-30.27 909.51,-28.32 920.12,-26.42"/>
<polygon fill="#63b8ff" stroke="#63b8ff" points="628.69,-68.65 619.3,-73.57 629.7,-75.58 628.69,-68.65"/>
</g>
<!-- Node10 -->
<g id="node10" class="node">
<title>Node10</title>
<g id="a_node10"><a xlink:href="a00209.html" target="_top" xlink:title="Contains implementation for the EmbreeRayTracer">
<polygon fill="white" stroke="#666666" points="1189.5,-32 1062.5,-32 1062.5,0 1189.5,0 1189.5,-32"/>
<text xml:space="preserve" text-anchor="start" x="1070.5" y="-18.5" font-family="Helvetica,sans-Serif" font-size="10.00">Cpp/raytracer/src/embree</text>
<text xml:space="preserve" text-anchor="middle" x="1126" y="-6.5" font-family="Helvetica,sans-Serif" font-size="10.00">_raytracer.cpp</text>
</a>
</g>
</g>
<!-- Node1&#45;&gt;Node10 -->
<g id="edge9" class="edge">
<title>Node1&#45;&gt;Node10</title>
<path fill="none" stroke="#63b8ff" d="M628.92,-77.71C726.8,-70.26 903.34,-54.96 1053,-32 1056.07,-31.53 1059.2,-31.01 1062.37,-30.47"/>
<polygon fill="#63b8ff" stroke="#63b8ff" points="628.89,-74.2 619.18,-78.45 629.41,-81.18 628.89,-74.2"/>
</g>
</g>
</svg>
