<?xml version="1.0" encoding="UTF-8" standalone="no"?>
<!DOCTYPE svg PUBLIC "-//W3C//DTD SVG 1.1//EN"
 "http://www.w3.org/Graphics/SVG/1.1/DTD/svg11.dtd">
<!-- Generated by graphviz version 13.1.2 (20250808.2320)
 -->
<!-- Title: Cpp/spatialstructures/src/constants.cpp Pages: 1 -->
<svg width="311pt" height="152pt"
 viewBox="0.00 0.00 311.00 152.00" xmlns="http://www.w3.org/2000/svg" xmlns:xlink="http://www.w3.org/1999/xlink">
<g id="graph0" class="graph" transform="scale(1 1) rotate(0) translate(4 148)">
<title>Cpp/spatialstructures/src/constants.cpp</title>
<!-- Node1 -->
<g id="node1" class="node">
<title>Node1</title>
<g id="a_node1"><a xlink:title="Contains implementation for the HF::SpatialStructures namespace.">
<polygon fill="#999999" stroke="#666666" points="203,-144 94,-144 94,-112 203,-112 203,-144"/>
<text xml:space="preserve" text-anchor="start" x="102" y="-130.5" font-family="Helvetica,sans-Serif" font-size="10.00">Cpp/spatialstructures</text>
<text xml:space="preserve" text-anchor="middle" x="148.5" y="-118.5" font-family="Helvetica,sans-Serif" font-size="10.00">/src/constants.cpp</text>
</a>
</g>
</g>
<!-- Node2 -->
<g id="node2" class="node">
<title>Node2</title>
<g id="a_node2"><a xlink:href="a00251.html" target="_top" xlink:title="Contains definitions for the HF::SpatialStructures namespace.">
<polygon fill="white" stroke="#666666" points="67,-76 0,-76 0,-56 67,-56 67,-76"/>
<text xml:space="preserve" text-anchor="middle" x="33.5" y="-62.5" font-family="Helvetica,sans-Serif" font-size="10.00">constants.h</text>
</a>
</g>
</g>
<!-- Node1&#45;&gt;Node2 -->
<g id="edge1" class="edge">
<title>Node1&#45;&gt;Node2</title>
<path fill="none" stroke="#63b8ff" d="M118.88,-111.55C101.25,-102.35 79,-90.74 61.63,-81.68"/>
<polygon fill="#63b8ff" stroke="#63b8ff" points="63.36,-78.63 52.87,-77.11 60.12,-84.84 63.36,-78.63"/>
</g>
<!-- Node3 -->
<g id="node3" class="node">
<title>Node3</title>
<g id="a_node3"><a xlink:title=" ">
<polygon fill="#e0e0e0" stroke="#999999" points="86,-20 43,-20 43,0 86,0 86,-20"/>
<text xml:space="preserve" text-anchor="middle" x="64.5" y="-6.5" font-family="Helvetica,sans-Serif" font-size="10.00">cmath</text>
</a>
</g>
</g>
<!-- Node1&#45;&gt;Node3 -->
<g id="edge5" class="edge">
<title>Node1&#45;&gt;Node3</title>
<path fill="none" stroke="#63b8ff" d="M137.52,-111.84C122.25,-90.75 94.61,-52.58 78.07,-29.74"/>
<polygon fill="#63b8ff" stroke="#63b8ff" points="80.92,-27.71 72.22,-21.66 75.25,-31.82 80.92,-27.71"/>
</g>
<!-- Node4 -->
<g id="node4" class="node">
<title>Node4</title>
<g id="a_node4"><a xlink:title=" ">
<polygon fill="#e0e0e0" stroke="#999999" points="173.75,-76 123.25,-76 123.25,-56 173.75,-56 173.75,-76"/>
<text xml:space="preserve" text-anchor="middle" x="148.5" y="-62.5" font-family="Helvetica,sans-Serif" font-size="10.00">numeric</text>
</a>
</g>
</g>
<!-- Node1&#45;&gt;Node4 -->
<g id="edge3" class="edge">
<title>Node1&#45;&gt;Node4</title>
<path fill="none" stroke="#63b8ff" d="M148.5,-111.55C148.5,-104.34 148.5,-95.66 148.5,-87.88"/>
<polygon fill="#63b8ff" stroke="#63b8ff" points="152,-87.92 148.5,-77.92 145,-87.92 152,-87.92"/>
</g>
<!-- Node5 -->
<g id="node5" class="node">
<title>Node5</title>
<g id="a_node5"><a xlink:title=" ">
<polygon fill="#e0e0e0" stroke="#999999" points="236.75,-76 192.25,-76 192.25,-56 236.75,-56 236.75,-76"/>
<text xml:space="preserve" text-anchor="middle" x="214.5" y="-62.5" font-family="Helvetica,sans-Serif" font-size="10.00">cstdlib</text>
</a>
</g>
</g>
<!-- Node1&#45;&gt;Node5 -->
<g id="edge4" class="edge">
<title>Node1&#45;&gt;Node5</title>
<path fill="none" stroke="#63b8ff" d="M165.5,-111.55C174.76,-103.13 186.24,-92.69 195.76,-84.04"/>
<polygon fill="#63b8ff" stroke="#63b8ff" points="197.99,-86.74 203.03,-77.43 193.28,-81.56 197.99,-86.74"/>
</g>
<!-- Node6 -->
<g id="node6" class="node">
<title>Node6</title>
<g id="a_node6"><a xlink:title=" ">
<polygon fill="#e0e0e0" stroke="#999999" points="302.62,-76 254.38,-76 254.38,-56 302.62,-56 302.62,-76"/>
<text xml:space="preserve" text-anchor="middle" x="278.5" y="-62.5" font-family="Helvetica,sans-Serif" font-size="10.00">cassert</text>
</a>
</g>
</g>
<!-- Node1&#45;&gt;Node6 -->
<g id="edge6" class="edge">
<title>Node1&#45;&gt;Node6</title>
<path fill="none" stroke="#63b8ff" d="M181.98,-111.55C202.29,-102.17 228.02,-90.3 247.81,-81.17"/>
<polygon fill="#63b8ff" stroke="#63b8ff" points="249.13,-84.41 256.74,-77.04 246.2,-78.06 249.13,-84.41"/>
</g>
<!-- Node2&#45;&gt;Node3 -->
<g id="edge2" class="edge">
<title>Node2&#45;&gt;Node3</title>
<path fill="none" stroke="#63b8ff" d="M38.9,-55.59C42.94,-48.55 48.62,-38.67 53.59,-30"/>
<polygon fill="#63b8ff" stroke="#63b8ff" points="56.47,-32.03 58.41,-21.61 50.39,-28.54 56.47,-32.03"/>
</g>
</g>
</svg>
