<?xml version="1.0" encoding="UTF-8" standalone="no"?>
<!DOCTYPE svg PUBLIC "-//W3C//DTD SVG 1.1//EN"
 "http://www.w3.org/Graphics/SVG/1.1/DTD/svg11.dtd">
<!-- Generated by graphviz version 13.1.2 (20250808.2320)
 -->
<!-- Title: Cpp/spatialstructures/src/constants.h Pages: 1 -->
<svg width="1696pt" height="312pt"
 viewBox="0.00 0.00 1696.00 312.00" xmlns="http://www.w3.org/2000/svg" xmlns:xlink="http://www.w3.org/1999/xlink">
<g id="graph0" class="graph" transform="scale(1 1) rotate(0) translate(4 308)">
<title>Cpp/spatialstructures/src/constants.h</title>
<!-- Node1 -->
<g id="node1" class="node">
<title>Node1</title>
<g id="a_node1"><a xlink:title="Contains definitions for the HF::SpatialStructures namespace.">
<polygon fill="#999999" stroke="#666666" points="762.13,-304 653.13,-304 653.13,-272 762.13,-272 762.13,-304"/>
<text xml:space="preserve" text-anchor="start" x="661.13" y="-290.5" font-family="Helvetica,sans-Serif" font-size="10.00">Cpp/spatialstructures</text>
<text xml:space="preserve" text-anchor="middle" x="707.63" y="-278.5" font-family="Helvetica,sans-Serif" font-size="10.00">/src/constants.h</text>
</a>
</g>
</g>
<!-- Node2 -->
<g id="node2" class="node">
<title>Node2</title>
<g id="a_node2"><a xlink:href="a00005.html" target="_top" xlink:title="Contains implementation for the functions in the GraphGenerator class.">
<polygon fill="white" stroke="#666666" points="646.63,-32 522.63,-32 522.63,0 646.63,0 646.63,-32"/>
<text xml:space="preserve" text-anchor="start" x="530.63" y="-18.5" font-family="Helvetica,sans-Serif" font-size="10.00">Cpp/analysismethods</text>
<text xml:space="preserve" text-anchor="middle" x="584.63" y="-6.5" font-family="Helvetica,sans-Serif" font-size="10.00">/src/graph_generator.cpp</text>
</a>
</g>
</g>
<!-- Node1&#45;&gt;Node2 -->
<g id="edge1" class="edge">
<title>Node1&#45;&gt;Node2</title>
<path fill="none" stroke="#63b8ff" d="M641.52,-284.25C562.3,-279.64 426.16,-267.49 313.63,-236 169.91,-195.78 88.02,-225.08 6.63,-100 -1.13,-88.08 -2.98,-78.49 6.63,-68 40.94,-30.53 380.15,-20.44 522.38,-17.85"/>
<polygon fill="#63b8ff" stroke="#63b8ff" points="641.1,-287.73 651.28,-284.79 641.49,-280.74 641.1,-287.73"/>
</g>
<!-- Node3 -->
<g id="node3" class="node">
<title>Node3</title>
<g id="a_node3"><a xlink:href="a00011.html" target="_top" xlink:title=" ">
<polygon fill="white" stroke="#666666" points="1195.88,-32 1085.38,-32 1085.38,0 1195.88,0 1195.88,-32"/>
<text xml:space="preserve" text-anchor="start" x="1093.38" y="-18.5" font-family="Helvetica,sans-Serif" font-size="10.00">Cpp/analysismethods</text>
<text xml:space="preserve" text-anchor="middle" x="1140.63" y="-6.5" font-family="Helvetica,sans-Serif" font-size="10.00">/src/graph_utils.cpp</text>
</a>
</g>
</g>
<!-- Node1&#45;&gt;Node3 -->
<g id="edge2" class="edge">
<title>Node1&#45;&gt;Node3</title>
<path fill="none" stroke="#63b8ff" d="M773.64,-279.54C932.41,-260.08 1328.16,-202.09 1404.63,-100 1459.13,-27.22 1288.77,-16.69 1196.23,-16.14"/>
<polygon fill="#63b8ff" stroke="#63b8ff" points="773.63,-276.01 764.13,-280.69 774.47,-282.96 773.63,-276.01"/>
</g>
<!-- Node4 -->
<g id="node4" class="node">
<title>Node4</title>
<g id="a_node4"><a xlink:href="a00026.html" target="_top" xlink:title="Contains implementation for the VisibilityGraph class.">
<polygon fill="white" stroke="#666666" points="134,-100 15.25,-100 15.25,-68 134,-68 134,-100"/>
<text xml:space="preserve" text-anchor="start" x="23.25" y="-86.5" font-family="Helvetica,sans-Serif" font-size="10.00">Cpp/analysismethods</text>
<text xml:space="preserve" text-anchor="middle" x="74.63" y="-74.5" font-family="Helvetica,sans-Serif" font-size="10.00">/src/visibility_graph.cpp</text>
</a>
</g>
</g>
<!-- Node1&#45;&gt;Node4 -->
<g id="edge3" class="edge">
<title>Node1&#45;&gt;Node4</title>
<path fill="none" stroke="#63b8ff" d="M641.5,-280.92C579.34,-274.03 484.2,-260.43 404.63,-236 287.18,-199.93 157.18,-131.2 101.9,-100.49"/>
<polygon fill="#63b8ff" stroke="#63b8ff" points="640.9,-284.38 651.21,-281.97 641.65,-277.42 640.9,-284.38"/>
</g>
<!-- Node5 -->
<g id="node5" class="node">
<title>Node5</title>
<g id="a_node5"><a xlink:href="a00245.html" target="_top" xlink:title="Contains implementation for the CInterface.">
<polygon fill="white" stroke="#666666" points="261.13,-100 152.13,-100 152.13,-68 261.13,-68 261.13,-100"/>
<text xml:space="preserve" text-anchor="start" x="160.13" y="-86.5" font-family="Helvetica,sans-Serif" font-size="10.00">Cpp/spatialstructures</text>
<text xml:space="preserve" text-anchor="middle" x="206.63" y="-74.5" font-family="Helvetica,sans-Serif" font-size="10.00">/src/CInterface.cpp</text>
</a>
</g>
</g>
<!-- Node1&#45;&gt;Node5 -->
<g id="edge4" class="edge">
<title>Node1&#45;&gt;Node5</title>
<path fill="none" stroke="#63b8ff" d="M641.66,-277.14C595.82,-269.09 533.81,-255.77 481.63,-236 382.56,-198.48 275.28,-130.81 229.46,-100.46"/>
<polygon fill="#63b8ff" stroke="#63b8ff" points="641.02,-280.58 651.47,-278.82 642.2,-273.68 641.02,-280.58"/>
</g>
<!-- Node6 -->
<g id="node6" class="node">
<title>Node6</title>
<g id="a_node6"><a xlink:href="a00248.html" target="_top" xlink:title="Contains implementation for the HF::SpatialStructures namespace.">
<polygon fill="white" stroke="#666666" points="1561.13,-236 1452.13,-236 1452.13,-204 1561.13,-204 1561.13,-236"/>
<text xml:space="preserve" text-anchor="start" x="1460.13" y="-222.5" font-family="Helvetica,sans-Serif" font-size="10.00">Cpp/spatialstructures</text>
<text xml:space="preserve" text-anchor="middle" x="1506.63" y="-210.5" font-family="Helvetica,sans-Serif" font-size="10.00">/src/constants.cpp</text>
</a>
</g>
</g>
<!-- Node1&#45;&gt;Node6 -->
<g id="edge5" class="edge">
<title>Node1&#45;&gt;Node6</title>
<path fill="none" stroke="#63b8ff" d="M773.57,-285.58C902,-282.1 1194.37,-270.75 1437.63,-236 1442.24,-235.34 1447,-234.55 1451.77,-233.67"/>
<polygon fill="#63b8ff" stroke="#63b8ff" points="773.82,-282.07 763.91,-285.83 774,-289.07 773.82,-282.07"/>
</g>
<!-- Node7 -->
<g id="node7" class="node">
<title>Node7</title>
<g id="a_node7"><a xlink:href="a00254.html" target="_top" xlink:title=" ">
<polygon fill="white" stroke="#666666" points="402.25,-100 279,-100 279,-68 402.25,-68 402.25,-100"/>
<text xml:space="preserve" text-anchor="start" x="287" y="-86.5" font-family="Helvetica,sans-Serif" font-size="10.00">Cpp/spatialstructures</text>
<text xml:space="preserve" text-anchor="middle" x="340.63" y="-74.5" font-family="Helvetica,sans-Serif" font-size="10.00">/src/cost_algorithms.cpp</text>
</a>
</g>
</g>
<!-- Node1&#45;&gt;Node7 -->
<g id="edge6" class="edge">
<title>Node1&#45;&gt;Node7</title>
<path fill="none" stroke="#63b8ff" d="M641.92,-268.44C581.59,-249.4 491.53,-215.79 423.63,-168 395.46,-148.18 368.31,-118.36 353.11,-100.37"/>
<polygon fill="#63b8ff" stroke="#63b8ff" points="640.79,-271.75 651.38,-271.38 642.87,-265.07 640.79,-271.75"/>
</g>
<!-- Node8 -->
<g id="node8" class="node">
<title>Node8</title>
<g id="a_node8"><a xlink:href="a00257.html" target="_top" xlink:title="Contains implementation for the HF::SpatialStructures::CostAlgorithms namespace.">
<polygon fill="white" stroke="#666666" points="545,-168 432.25,-168 432.25,-136 545,-136 545,-168"/>
<text xml:space="preserve" text-anchor="start" x="440.25" y="-154.5" font-family="Helvetica,sans-Serif" font-size="10.00">Cpp/spatialstructures</text>
<text xml:space="preserve" text-anchor="middle" x="488.63" y="-142.5" font-family="Helvetica,sans-Serif" font-size="10.00">/src/cost_algorithms.h</text>
</a>
</g>
</g>
<!-- Node1&#45;&gt;Node8 -->
<g id="edge7" class="edge">
<title>Node1&#45;&gt;Node8</title>
<path fill="none" stroke="#63b8ff" d="M672.74,-265.65C628.39,-238.52 552.91,-192.33 513.79,-168.4"/>
<polygon fill="#63b8ff" stroke="#63b8ff" points="670.86,-268.6 681.21,-270.84 674.51,-262.63 670.86,-268.6"/>
</g>
<!-- Node10 -->
<g id="node10" class="node">
<title>Node10</title>
<g id="a_node10"><a xlink:href="a00266.html" target="_top" xlink:title="Contains implementation for the Graph class.">
<polygon fill="white" stroke="#666666" points="1271.13,-100 1162.13,-100 1162.13,-68 1271.13,-68 1271.13,-100"/>
<text xml:space="preserve" text-anchor="start" x="1170.13" y="-86.5" font-family="Helvetica,sans-Serif" font-size="10.00">Cpp/spatialstructures</text>
<text xml:space="preserve" text-anchor="middle" x="1216.63" y="-74.5" font-family="Helvetica,sans-Serif" font-size="10.00">/src/graph.cpp</text>
</a>
</g>
</g>
<!-- Node1&#45;&gt;Node10 -->
<g id="edge10" class="edge">
<title>Node1&#45;&gt;Node10</title>
<path fill="none" stroke="#63b8ff" d="M724.06,-262.76C749.04,-228.08 800.14,-165.28 860.63,-136 978.33,-79.04 1023.9,-122.95 1152.63,-100 1155.66,-99.46 1158.77,-98.87 1161.89,-98.24"/>
<polygon fill="#63b8ff" stroke="#63b8ff" points="721.5,-260.31 718.59,-270.5 727.21,-264.35 721.5,-260.31"/>
</g>
<!-- Node11 -->
<g id="node11" class="node">
<title>Node11</title>
<g id="a_node11"><a xlink:href="a03558.html" target="_top" xlink:title="Contains implementation for the Node structure.">
<polygon fill="white" stroke="#666666" points="1688.13,-236 1579.13,-236 1579.13,-204 1688.13,-204 1688.13,-236"/>
<text xml:space="preserve" text-anchor="start" x="1587.13" y="-222.5" font-family="Helvetica,sans-Serif" font-size="10.00">Cpp/spatialstructures</text>
<text xml:space="preserve" text-anchor="middle" x="1633.63" y="-210.5" font-family="Helvetica,sans-Serif" font-size="10.00">/src/node.cpp</text>
</a>
</g>
</g>
<!-- Node1&#45;&gt;Node11 -->
<g id="edge11" class="edge">
<title>Node1&#45;&gt;Node11</title>
<path fill="none" stroke="#63b8ff" d="M773.81,-287.02C918.93,-286.19 1275.71,-279.48 1570.63,-236 1573.3,-235.61 1576.02,-235.15 1578.76,-234.66"/>
<polygon fill="#63b8ff" stroke="#63b8ff" points="773.99,-283.51 764,-287.06 774.02,-290.51 773.99,-283.51"/>
</g>
<!-- Node12 -->
<g id="node12" class="node">
<title>Node12</title>
<g id="a_node12"><a xlink:href="a00281.html" target="_top" xlink:title="Contains definitions for the Path structure.">
<polygon fill="white" stroke="#666666" points="932.13,-236 823.13,-236 823.13,-204 932.13,-204 932.13,-236"/>
<text xml:space="preserve" text-anchor="start" x="831.13" y="-222.5" font-family="Helvetica,sans-Serif" font-size="10.00">Cpp/spatialstructures</text>
<text xml:space="preserve" text-anchor="middle" x="877.63" y="-210.5" font-family="Helvetica,sans-Serif" font-size="10.00">/src/path.h</text>
</a>
</g>
</g>
<!-- Node1&#45;&gt;Node12 -->
<g id="edge12" class="edge">
<title>Node1&#45;&gt;Node12</title>
<path fill="none" stroke="#63b8ff" d="M758.05,-267.42C783.5,-257.54 813.93,-245.73 837.72,-236.49"/>
<polygon fill="#63b8ff" stroke="#63b8ff" points="756.95,-264.1 748.89,-270.98 759.48,-270.62 756.95,-264.1"/>
</g>
<!-- Node8&#45;&gt;Node7 -->
<g id="edge9" class="edge">
<title>Node8&#45;&gt;Node7</title>
<path fill="none" stroke="#63b8ff" d="M443.54,-130.89C421.63,-121.12 395.71,-109.56 375.36,-100.49"/>
<polygon fill="#63b8ff" stroke="#63b8ff" points="441.99,-134.03 452.54,-134.91 444.84,-127.64 441.99,-134.03"/>
</g>
<!-- Node9 -->
<g id="node9" class="node">
<title>Node9</title>
<g id="a_node9"><a xlink:href="a00434.html" target="_top" xlink:title=" ">
<polygon fill="white" stroke="#666666" points="556.63,-100 420.63,-100 420.63,-68 556.63,-68 556.63,-100"/>
<text xml:space="preserve" text-anchor="start" x="428.63" y="-86.5" font-family="Helvetica,sans-Serif" font-size="10.00">Cinterface/spatialstructures</text>
<text xml:space="preserve" text-anchor="middle" x="488.63" y="-74.5" font-family="Helvetica,sans-Serif" font-size="10.00">_C.cpp</text>
</a>
</g>
</g>
<!-- Node8&#45;&gt;Node9 -->
<g id="edge8" class="edge">
<title>Node8&#45;&gt;Node9</title>
<path fill="none" stroke="#63b8ff" d="M488.63,-124.31C488.63,-116.12 488.63,-107.38 488.63,-100.22"/>
<polygon fill="#63b8ff" stroke="#63b8ff" points="485.13,-124.18 488.63,-134.18 492.13,-124.18 485.13,-124.18"/>
</g>
<!-- Node13 -->
<g id="node13" class="node">
<title>Node13</title>
<g id="a_node13"><a xlink:href="a00422.html" target="_top" xlink:title=" ">
<polygon fill="white" stroke="#666666" points="1396,-100 1289.25,-100 1289.25,-68 1396,-68 1396,-100"/>
<text xml:space="preserve" text-anchor="start" x="1297.25" y="-86.5" font-family="Helvetica,sans-Serif" font-size="10.00">Cinterface/pathfinder</text>
<text xml:space="preserve" text-anchor="middle" x="1342.63" y="-74.5" font-family="Helvetica,sans-Serif" font-size="10.00">_C.cpp</text>
</a>
</g>
</g>
<!-- Node12&#45;&gt;Node13 -->
<g id="edge13" class="edge">
<title>Node12&#45;&gt;Node13</title>
<path fill="none" stroke="#63b8ff" d="M868.04,-192.86C863.2,-174.63 860.91,-150.99 874.63,-136 905.2,-102.59 1235.94,-107.35 1280.63,-100 1283.36,-99.55 1286.15,-99.05 1288.96,-98.5"/>
<polygon fill="#63b8ff" stroke="#63b8ff" points="864.62,-193.66 870.9,-202.19 871.32,-191.61 864.62,-193.66"/>
</g>
<!-- Node14 -->
<g id="node14" class="node">
<title>Node14</title>
<g id="a_node14"><a xlink:href="a00203.html" target="_top" xlink:title="Contains implmentation for the BoostGraphDeleter structure.">
<polygon fill="white" stroke="#666666" points="984,-168 883.25,-168 883.25,-136 984,-136 984,-168"/>
<text xml:space="preserve" text-anchor="start" x="891.25" y="-154.5" font-family="Helvetica,sans-Serif" font-size="10.00">Cpp/pathfinding/src</text>
<text xml:space="preserve" text-anchor="middle" x="933.63" y="-142.5" font-family="Helvetica,sans-Serif" font-size="10.00">/path_finder.cpp</text>
</a>
</g>
</g>
<!-- Node12&#45;&gt;Node14 -->
<g id="edge14" class="edge">
<title>Node12&#45;&gt;Node14</title>
<path fill="none" stroke="#63b8ff" d="M897.86,-195.15C905.48,-186.17 913.93,-176.21 920.71,-168.22"/>
<polygon fill="#63b8ff" stroke="#63b8ff" points="895.39,-192.65 891.59,-202.54 900.73,-197.18 895.39,-192.65"/>
</g>
<!-- Node15 -->
<g id="node15" class="node">
<title>Node15</title>
<g id="a_node15"><a xlink:href="a00269.html" target="_top" xlink:title="Contains definitions for the Graph &#160;class.">
<polygon fill="white" stroke="#666666" points="766.13,-168 657.13,-168 657.13,-136 766.13,-136 766.13,-168"/>
<text xml:space="preserve" text-anchor="start" x="665.13" y="-154.5" font-family="Helvetica,sans-Serif" font-size="10.00">Cpp/spatialstructures</text>
<text xml:space="preserve" text-anchor="middle" x="711.63" y="-142.5" font-family="Helvetica,sans-Serif" font-size="10.00">/src/graph.h</text>
</a>
</g>
</g>
<!-- Node12&#45;&gt;Node15 -->
<g id="edge15" class="edge">
<title>Node12&#45;&gt;Node15</title>
<path fill="none" stroke="#63b8ff" d="M828.05,-199.29C803.27,-189.44 773.72,-177.69 750.59,-168.49"/>
<polygon fill="#63b8ff" stroke="#63b8ff" points="826.71,-202.52 837.3,-202.97 829.3,-196.02 826.71,-202.52"/>
</g>
<!-- Node21 -->
<g id="node21" class="node">
<title>Node21</title>
<g id="a_node21"><a xlink:href="a00278.html" target="_top" xlink:title="Contains implementation for the Path structure.">
<polygon fill="white" stroke="#666666" points="1111.13,-168 1002.13,-168 1002.13,-136 1111.13,-136 1111.13,-168"/>
<text xml:space="preserve" text-anchor="start" x="1010.13" y="-154.5" font-family="Helvetica,sans-Serif" font-size="10.00">Cpp/spatialstructures</text>
<text xml:space="preserve" text-anchor="middle" x="1056.63" y="-142.5" font-family="Helvetica,sans-Serif" font-size="10.00">/src/path.cpp</text>
</a>
</g>
</g>
<!-- Node12&#45;&gt;Node21 -->
<g id="edge31" class="edge">
<title>Node12&#45;&gt;Node21</title>
<path fill="none" stroke="#63b8ff" d="M930.36,-199.56C957.23,-189.65 989.45,-177.77 1014.61,-168.49"/>
<polygon fill="#63b8ff" stroke="#63b8ff" points="929.19,-196.26 921.01,-203 931.61,-202.83 929.19,-196.26"/>
</g>
<!-- Node15&#45;&gt;Node2 -->
<g id="edge21" class="edge">
<title>Node15&#45;&gt;Node2</title>
<path fill="none" stroke="#63b8ff" d="M646.17,-131.49C630.25,-123.95 614.66,-113.72 603.63,-100 587.97,-80.53 584.7,-50.6 584.29,-32.5"/>
<polygon fill="#63b8ff" stroke="#63b8ff" points="644.68,-134.66 655.24,-135.46 647.49,-128.25 644.68,-134.66"/>
</g>
<!-- Node15&#45;&gt;Node4 -->
<g id="edge26" class="edge">
<title>Node15&#45;&gt;Node4</title>
<path fill="none" stroke="#63b8ff" d="M645.42,-144.61C617.14,-141.9 583.77,-138.75 553.63,-136 371.02,-119.33 323.87,-127.81 142.63,-100 139.88,-99.58 137.07,-99.11 134.25,-98.61"/>
<polygon fill="#63b8ff" stroke="#63b8ff" points="645,-148.08 655.29,-145.55 645.67,-141.11 645,-148.08"/>
</g>
<!-- Node15&#45;&gt;Node5 -->
<g id="edge28" class="edge">
<title>Node15&#45;&gt;Node5</title>
<path fill="none" stroke="#63b8ff" d="M645.24,-144.32C540.14,-133.58 340.11,-112.41 269.63,-100 266.97,-99.53 264.26,-99.02 261.52,-98.48"/>
<polygon fill="#63b8ff" stroke="#63b8ff" points="644.84,-147.8 655.15,-145.33 645.55,-140.83 644.84,-147.8"/>
</g>
<!-- Node15&#45;&gt;Node7 -->
<g id="edge29" class="edge">
<title>Node15&#45;&gt;Node7</title>
<path fill="none" stroke="#63b8ff" d="M645.4,-140.52C584.52,-130.7 491.83,-115.28 411.63,-100 408.66,-99.43 405.62,-98.84 402.55,-98.23"/>
<polygon fill="#63b8ff" stroke="#63b8ff" points="644.84,-143.97 655.27,-142.11 645.95,-137.06 644.84,-143.97"/>
</g>
<!-- Node15&#45;&gt;Node9 -->
<g id="edge18" class="edge">
<title>Node15&#45;&gt;Node9</title>
<path fill="none" stroke="#63b8ff" d="M648.59,-132.34C614.6,-122.28 573.16,-110.02 540.97,-100.49"/>
<polygon fill="#63b8ff" stroke="#63b8ff" points="647.31,-135.61 657.89,-135.1 649.3,-128.9 647.31,-135.61"/>
</g>
<!-- Node15&#45;&gt;Node10 -->
<g id="edge30" class="edge">
<title>Node15&#45;&gt;Node10</title>
<path fill="none" stroke="#63b8ff" d="M777.59,-136.49C778.61,-136.32 779.62,-136.16 780.63,-136 944.73,-110.31 988.73,-127.01 1152.63,-100 1155.67,-99.5 1158.78,-98.94 1161.91,-98.33"/>
<polygon fill="#63b8ff" stroke="#63b8ff" points="777.23,-133 767.99,-138.2 778.45,-139.89 777.23,-133"/>
</g>
<!-- Node15&#45;&gt;Node13 -->
<g id="edge17" class="edge">
<title>Node15&#45;&gt;Node13</title>
<path fill="none" stroke="#63b8ff" d="M778.02,-142.91C798.41,-140.54 820.93,-138.04 841.63,-136 1036.45,-116.78 1087.35,-131.11 1280.63,-100 1283.36,-99.56 1286.15,-99.06 1288.96,-98.52"/>
<polygon fill="#63b8ff" stroke="#63b8ff" points="777.64,-139.43 768.12,-144.07 778.46,-146.38 777.64,-139.43"/>
</g>
<!-- Node16 -->
<g id="node16" class="node">
<title>Node16</title>
<g id="a_node16"><a xlink:href="a00404.html" target="_top" xlink:title=" ">
<polygon fill="white" stroke="#666666" points="784.63,-32 684.63,-32 684.63,0 784.63,0 784.63,-32"/>
<text xml:space="preserve" text-anchor="start" x="692.63" y="-18.5" font-family="Helvetica,sans-Serif" font-size="10.00">Cinterface/analysis</text>
<text xml:space="preserve" text-anchor="middle" x="734.63" y="-6.5" font-family="Helvetica,sans-Serif" font-size="10.00">_C.cpp</text>
</a>
</g>
</g>
<!-- Node15&#45;&gt;Node16 -->
<g id="edge16" class="edge">
<title>Node15&#45;&gt;Node16</title>
<path fill="none" stroke="#63b8ff" d="M726.29,-125.52C730.11,-117.6 733.69,-108.67 735.63,-100 740.81,-76.79 738.9,-49.02 736.88,-32.21"/>
<polygon fill="#63b8ff" stroke="#63b8ff" points="723.28,-123.74 721.78,-134.22 729.49,-126.96 723.28,-123.74"/>
</g>
<!-- Node17 -->
<g id="node17" class="node">
<title>Node17</title>
<g id="a_node17"><a xlink:href="a00440.html" target="_top" xlink:title=" ">
<polygon fill="white" stroke="#666666" points="908.38,-100 782.88,-100 782.88,-68 908.38,-68 908.38,-100"/>
<text xml:space="preserve" text-anchor="start" x="790.88" y="-86.5" font-family="Helvetica,sans-Serif" font-size="10.00">Cinterface/view_analysis</text>
<text xml:space="preserve" text-anchor="middle" x="845.63" y="-74.5" font-family="Helvetica,sans-Serif" font-size="10.00">_C.cpp</text>
</a>
</g>
</g>
<!-- Node15&#45;&gt;Node17 -->
<g id="edge19" class="edge">
<title>Node15&#45;&gt;Node17</title>
<path fill="none" stroke="#63b8ff" d="M753.3,-130.47C773.04,-120.75 796.21,-109.34 814.41,-100.38"/>
<polygon fill="#63b8ff" stroke="#63b8ff" points="751.83,-127.3 744.4,-134.86 754.92,-133.58 751.83,-127.3"/>
</g>
<!-- Node18 -->
<g id="node18" class="node">
<title>Node18</title>
<g id="a_node18"><a xlink:href="a00446.html" target="_top" xlink:title=" ">
<polygon fill="white" stroke="#666666" points="1025.25,-100 926,-100 926,-68 1025.25,-68 1025.25,-100"/>
<text xml:space="preserve" text-anchor="start" x="934" y="-86.5" font-family="Helvetica,sans-Serif" font-size="10.00">Cinterface/visibility</text>
<text xml:space="preserve" text-anchor="middle" x="975.63" y="-74.5" font-family="Helvetica,sans-Serif" font-size="10.00">_graph_C.cpp</text>
</a>
</g>
</g>
<!-- Node15&#45;&gt;Node18 -->
<g id="edge20" class="edge">
<title>Node15&#45;&gt;Node18</title>
<path fill="none" stroke="#63b8ff" d="M777.38,-134.9C817.85,-124.95 870.78,-111.86 917.63,-100 920.25,-99.34 922.93,-98.65 925.65,-97.96"/>
<polygon fill="#63b8ff" stroke="#63b8ff" points="776.66,-131.48 767.78,-137.26 778.33,-138.28 776.66,-131.48"/>
</g>
<!-- Node19 -->
<g id="node19" class="node">
<title>Node19</title>
<g id="a_node19"><a xlink:href="a00008.html" target="_top" xlink:title="Contains declarations for all functions related to the graph generator.">
<polygon fill="white" stroke="#666666" points="726.38,-100 612.88,-100 612.88,-68 726.38,-68 726.38,-100"/>
<text xml:space="preserve" text-anchor="start" x="620.88" y="-86.5" font-family="Helvetica,sans-Serif" font-size="10.00">Cpp/analysismethods</text>
<text xml:space="preserve" text-anchor="middle" x="669.63" y="-74.5" font-family="Helvetica,sans-Serif" font-size="10.00">/src/graph_generator.h</text>
</a>
</g>
</g>
<!-- Node15&#45;&gt;Node19 -->
<g id="edge22" class="edge">
<title>Node15&#45;&gt;Node19</title>
<path fill="none" stroke="#63b8ff" d="M695.73,-126.02C690.21,-117.34 684.18,-107.88 679.31,-100.22"/>
<polygon fill="#63b8ff" stroke="#63b8ff" points="692.75,-127.86 701.07,-134.42 698.66,-124.1 692.75,-127.86"/>
</g>
<!-- Node20 -->
<g id="node20" class="node">
<title>Node20</title>
<g id="a_node20"><a xlink:href="a00197.html" target="_top" xlink:title="Contains implementation for the BoostGraph class.">
<polygon fill="white" stroke="#666666" points="1144,-100 1043.25,-100 1043.25,-68 1144,-68 1144,-100"/>
<text xml:space="preserve" text-anchor="start" x="1051.25" y="-86.5" font-family="Helvetica,sans-Serif" font-size="10.00">Cpp/pathfinding/src</text>
<text xml:space="preserve" text-anchor="middle" x="1093.63" y="-74.5" font-family="Helvetica,sans-Serif" font-size="10.00">/boost_graph.cpp</text>
</a>
</g>
</g>
<!-- Node15&#45;&gt;Node20 -->
<g id="edge27" class="edge">
<title>Node15&#45;&gt;Node20</title>
<path fill="none" stroke="#63b8ff" d="M777.6,-136.55C778.61,-136.36 779.62,-136.18 780.63,-136 892.85,-115.88 922.77,-122.08 1034.63,-100 1037.32,-99.47 1040.08,-98.89 1042.86,-98.28"/>
<polygon fill="#63b8ff" stroke="#63b8ff" points="777.18,-133.07 768.03,-138.4 778.51,-139.94 777.18,-133.07"/>
</g>
<!-- Node19&#45;&gt;Node2 -->
<g id="edge24" class="edge">
<title>Node19&#45;&gt;Node2</title>
<path fill="none" stroke="#63b8ff" d="M641.13,-60.87C629.12,-51.55 615.42,-40.91 604.53,-32.45"/>
<polygon fill="#63b8ff" stroke="#63b8ff" points="638.67,-63.4 648.72,-66.76 642.96,-57.87 638.67,-63.4"/>
</g>
<!-- Node19&#45;&gt;Node3 -->
<g id="edge25" class="edge">
<title>Node19&#45;&gt;Node3</title>
<path fill="none" stroke="#63b8ff" d="M738.06,-73.08C749.92,-71.37 762.13,-69.63 773.63,-68 883.97,-52.38 1013.05,-34.54 1084.97,-24.64"/>
<polygon fill="#63b8ff" stroke="#63b8ff" points="737.73,-69.59 728.33,-74.48 738.73,-76.52 737.73,-69.59"/>
</g>
<!-- Node19&#45;&gt;Node16 -->
<g id="edge23" class="edge">
<title>Node19&#45;&gt;Node16</title>
<path fill="none" stroke="#63b8ff" d="M692.56,-59.71C701.55,-50.59 711.61,-40.37 719.63,-32.22"/>
<polygon fill="#63b8ff" stroke="#63b8ff" points="690.29,-57.03 685.76,-66.61 695.27,-61.95 690.29,-57.03"/>
</g>
</g>
</svg>
