<?xml version="1.0" encoding="UTF-8" standalone="no"?>
<!DOCTYPE svg PUBLIC "-//W3C//DTD SVG 1.1//EN"
 "http://www.w3.org/Graphics/SVG/1.1/DTD/svg11.dtd">
<!-- Generated by graphviz version 13.1.2 (20250808.2320)
 -->
<!-- Title: Cpp/pathfinding/src/boost_graph.h Pages: 1 -->
<svg width="353pt" height="108pt"
 viewBox="0.00 0.00 353.00 108.00" xmlns="http://www.w3.org/2000/svg" xmlns:xlink="http://www.w3.org/1999/xlink">
<g id="graph0" class="graph" transform="scale(1 1) rotate(0) translate(4 104)">
<title>Cpp/pathfinding/src/boost_graph.h</title>
<!-- Node1 -->
<g id="node1" class="node">
<title>Node1</title>
<g id="a_node1"><a xlink:title="Contains definitions for the BoostGraph class.">
<polygon fill="#999999" stroke="#666666" points="225.75,-100 125,-100 125,-68 225.75,-68 225.75,-100"/>
<text xml:space="preserve" text-anchor="start" x="133" y="-86.5" font-family="Helvetica,sans-Serif" font-size="10.00">Cpp/pathfinding/src</text>
<text xml:space="preserve" text-anchor="middle" x="175.38" y="-74.5" font-family="Helvetica,sans-Serif" font-size="10.00">/boost_graph.h</text>
</a>
</g>
</g>
<!-- Node2 -->
<g id="node2" class="node">
<title>Node2</title>
<g id="a_node2"><a xlink:href="a00422.html" target="_top" xlink:title=" ">
<polygon fill="white" stroke="#666666" points="106.75,-32 0,-32 0,0 106.75,0 106.75,-32"/>
<text xml:space="preserve" text-anchor="start" x="8" y="-18.5" font-family="Helvetica,sans-Serif" font-size="10.00">Cinterface/pathfinder</text>
<text xml:space="preserve" text-anchor="middle" x="53.38" y="-6.5" font-family="Helvetica,sans-Serif" font-size="10.00">_C.cpp</text>
</a>
</g>
</g>
<!-- Node1&#45;&gt;Node2 -->
<g id="edge1" class="edge">
<title>Node1&#45;&gt;Node2</title>
<path fill="none" stroke="#63b8ff" d="M136.68,-62.07C118.88,-52.44 98.13,-41.21 81.8,-32.38"/>
<polygon fill="#63b8ff" stroke="#63b8ff" points="134.98,-65.13 145.44,-66.81 138.31,-58.97 134.98,-65.13"/>
</g>
<!-- Node3 -->
<g id="node3" class="node">
<title>Node3</title>
<g id="a_node3"><a xlink:href="a00197.html" target="_top" xlink:title="Contains implementation for the BoostGraph class.">
<polygon fill="white" stroke="#666666" points="225.75,-32 125,-32 125,0 225.75,0 225.75,-32"/>
<text xml:space="preserve" text-anchor="start" x="133" y="-18.5" font-family="Helvetica,sans-Serif" font-size="10.00">Cpp/pathfinding/src</text>
<text xml:space="preserve" text-anchor="middle" x="175.38" y="-6.5" font-family="Helvetica,sans-Serif" font-size="10.00">/boost_graph.cpp</text>
</a>
</g>
</g>
<!-- Node1&#45;&gt;Node3 -->
<g id="edge2" class="edge">
<title>Node1&#45;&gt;Node3</title>
<path fill="none" stroke="#63b8ff" d="M175.38,-56.31C175.38,-48.12 175.38,-39.38 175.38,-32.22"/>
<polygon fill="#63b8ff" stroke="#63b8ff" points="171.88,-56.18 175.38,-66.18 178.88,-56.18 171.88,-56.18"/>
</g>
<!-- Node4 -->
<g id="node4" class="node">
<title>Node4</title>
<g id="a_node4"><a xlink:href="a00203.html" target="_top" xlink:title="Contains implmentation for the BoostGraphDeleter structure.">
<polygon fill="white" stroke="#666666" points="344.75,-32 244,-32 244,0 344.75,0 344.75,-32"/>
<text xml:space="preserve" text-anchor="start" x="252" y="-18.5" font-family="Helvetica,sans-Serif" font-size="10.00">Cpp/pathfinding/src</text>
<text xml:space="preserve" text-anchor="middle" x="294.38" y="-6.5" font-family="Helvetica,sans-Serif" font-size="10.00">/path_finder.cpp</text>
</a>
</g>
</g>
<!-- Node1&#45;&gt;Node4 -->
<g id="edge3" class="edge">
<title>Node1&#45;&gt;Node4</title>
<path fill="none" stroke="#63b8ff" d="M213.11,-62.07C230.48,-52.44 250.72,-41.21 266.65,-32.38"/>
<polygon fill="#63b8ff" stroke="#63b8ff" points="211.65,-58.88 204.6,-66.79 215.04,-65 211.65,-58.88"/>
</g>
</g>
</svg>
