<?xml version="1.0" encoding="UTF-8" standalone="no"?>
<!DOCTYPE svg PUBLIC "-//W3C//DTD SVG 1.1//EN"
 "http://www.w3.org/Graphics/SVG/1.1/DTD/svg11.dtd">
<!-- Generated by graphviz version 13.1.2 (20250808.2320)
 -->
<!-- Title: Cpp/spatialstructures/src/path.cpp Pages: 1 -->
<svg width="207pt" height="208pt"
 viewBox="0.00 0.00 207.00 208.00" xmlns="http://www.w3.org/2000/svg" xmlns:xlink="http://www.w3.org/1999/xlink">
<g id="graph0" class="graph" transform="scale(1 1) rotate(0) translate(4 204)">
<title>Cpp/spatialstructures/src/path.cpp</title>
<!-- Node1 -->
<g id="node1" class="node">
<title>Node1</title>
<g id="a_node1"><a xlink:title="Contains implementation for the Path structure.">
<polygon fill="#999999" stroke="#666666" points="175,-200 66,-200 66,-168 175,-168 175,-200"/>
<text xml:space="preserve" text-anchor="start" x="74" y="-186.5" font-family="Helvetica,sans-Serif" font-size="10.00">Cpp/spatialstructures</text>
<text xml:space="preserve" text-anchor="middle" x="120.5" y="-174.5" font-family="Helvetica,sans-Serif" font-size="10.00">/src/path.cpp</text>
</a>
</g>
</g>
<!-- Node2 -->
<g id="node2" class="node">
<title>Node2</title>
<g id="a_node2"><a xlink:href="a00281.html" target="_top" xlink:title="Contains definitions for the Path structure.">
<polygon fill="white" stroke="#666666" points="109,-132 66,-132 66,-112 109,-112 109,-132"/>
<text xml:space="preserve" text-anchor="middle" x="87.5" y="-118.5" font-family="Helvetica,sans-Serif" font-size="10.00">path.h</text>
</a>
</g>
</g>
<!-- Node1&#45;&gt;Node2 -->
<g id="edge1" class="edge">
<title>Node1&#45;&gt;Node2</title>
<path fill="none" stroke="#63b8ff" d="M112,-167.55C107.8,-159.91 102.69,-150.61 98.22,-142.49"/>
<polygon fill="#63b8ff" stroke="#63b8ff" points="101.29,-140.81 93.4,-133.73 95.16,-144.18 101.29,-140.81"/>
</g>
<!-- Node7 -->
<g id="node7" class="node">
<title>Node7</title>
<g id="a_node7"><a xlink:title=" ">
<polygon fill="#e0e0e0" stroke="#999999" points="182.38,-132 126.62,-132 126.62,-112 182.38,-112 182.38,-132"/>
<text xml:space="preserve" text-anchor="middle" x="154.5" y="-118.5" font-family="Helvetica,sans-Serif" font-size="10.00">algorithm</text>
</a>
</g>
</g>
<!-- Node1&#45;&gt;Node7 -->
<g id="edge6" class="edge">
<title>Node1&#45;&gt;Node7</title>
<path fill="none" stroke="#63b8ff" d="M129.26,-167.55C133.63,-159.82 138.97,-150.4 143.61,-142.21"/>
<polygon fill="#63b8ff" stroke="#63b8ff" points="146.54,-144.15 148.42,-133.72 140.45,-140.7 146.54,-144.15"/>
</g>
<!-- Node3 -->
<g id="node3" class="node">
<title>Node3</title>
<g id="a_node3"><a xlink:title=" ">
<polygon fill="#e0e0e0" stroke="#999999" points="43,-76 0,-76 0,-56 43,-56 43,-76"/>
<text xml:space="preserve" text-anchor="middle" x="21.5" y="-62.5" font-family="Helvetica,sans-Serif" font-size="10.00">vector</text>
</a>
</g>
</g>
<!-- Node2&#45;&gt;Node3 -->
<g id="edge2" class="edge">
<title>Node2&#45;&gt;Node3</title>
<path fill="none" stroke="#63b8ff" d="M76,-111.59C66.54,-103.85 52.9,-92.69 41.63,-83.47"/>
<polygon fill="#63b8ff" stroke="#63b8ff" points="43.99,-80.88 34.04,-77.26 39.56,-86.3 43.99,-80.88"/>
</g>
<!-- Node4 -->
<g id="node4" class="node">
<title>Node4</title>
<g id="a_node4"><a xlink:title=" ">
<polygon fill="#e0e0e0" stroke="#999999" points="114.25,-76 60.75,-76 60.75,-56 114.25,-56 114.25,-76"/>
<text xml:space="preserve" text-anchor="middle" x="87.5" y="-62.5" font-family="Helvetica,sans-Serif" font-size="10.00">iostream</text>
</a>
</g>
</g>
<!-- Node2&#45;&gt;Node4 -->
<g id="edge3" class="edge">
<title>Node2&#45;&gt;Node4</title>
<path fill="none" stroke="#63b8ff" d="M87.5,-111.59C87.5,-105.01 87.5,-95.96 87.5,-87.73"/>
<polygon fill="#63b8ff" stroke="#63b8ff" points="91,-87.81 87.5,-77.81 84,-87.81 91,-87.81"/>
</g>
<!-- Node5 -->
<g id="node5" class="node">
<title>Node5</title>
<g id="a_node5"><a xlink:href="a00251.html" target="_top" xlink:title="Contains definitions for the HF::SpatialStructures namespace.">
<polygon fill="white" stroke="#666666" points="199,-76 132,-76 132,-56 199,-56 199,-76"/>
<text xml:space="preserve" text-anchor="middle" x="165.5" y="-62.5" font-family="Helvetica,sans-Serif" font-size="10.00">constants.h</text>
</a>
</g>
</g>
<!-- Node2&#45;&gt;Node5 -->
<g id="edge4" class="edge">
<title>Node2&#45;&gt;Node5</title>
<path fill="none" stroke="#63b8ff" d="M101.09,-111.59C112.54,-103.67 129.16,-92.16 142.66,-82.82"/>
<polygon fill="#63b8ff" stroke="#63b8ff" points="144.33,-85.91 150.56,-77.34 140.35,-80.16 144.33,-85.91"/>
</g>
<!-- Node6 -->
<g id="node6" class="node">
<title>Node6</title>
<g id="a_node6"><a xlink:title=" ">
<polygon fill="#e0e0e0" stroke="#999999" points="187,-20 144,-20 144,0 187,0 187,-20"/>
<text xml:space="preserve" text-anchor="middle" x="165.5" y="-6.5" font-family="Helvetica,sans-Serif" font-size="10.00">cmath</text>
</a>
</g>
</g>
<!-- Node5&#45;&gt;Node6 -->
<g id="edge5" class="edge">
<title>Node5&#45;&gt;Node6</title>
<path fill="none" stroke="#63b8ff" d="M165.5,-55.59C165.5,-49.01 165.5,-39.96 165.5,-31.73"/>
<polygon fill="#63b8ff" stroke="#63b8ff" points="169,-31.81 165.5,-21.81 162,-31.81 169,-31.81"/>
</g>
</g>
</svg>
