<?xml version="1.0" encoding="UTF-8" standalone="no"?>
<!DOCTYPE svg PUBLIC "-//W3C//DTD SVG 1.1//EN"
 "http://www.w3.org/Graphics/SVG/1.1/DTD/svg11.dtd">
<!-- Generated by graphviz version 13.1.2 (20250808.2320)
 -->
<!-- Title: Cpp/raytracer/src/embree_raytracer.h Pages: 1 -->
<svg width="316pt" height="96pt"
 viewBox="0.00 0.00 316.00 96.00" xmlns="http://www.w3.org/2000/svg" xmlns:xlink="http://www.w3.org/1999/xlink">
<g id="graph0" class="graph" transform="scale(1 1) rotate(0) translate(4 92)">
<title>Cpp/raytracer/src/embree_raytracer.h</title>
<!-- Node1 -->
<g id="node1" class="node">
<title>Node1</title>
<g id="a_node1"><a xlink:title="Contains definitions for the EmbreeRayTracer">
<polygon fill="#999999" stroke="#666666" points="210,-88 83,-88 83,-56 210,-56 210,-88"/>
<text xml:space="preserve" text-anchor="start" x="91" y="-74.5" font-family="Helvetica,sans-Serif" font-size="10.00">Cpp/raytracer/src/embree</text>
<text xml:space="preserve" text-anchor="middle" x="146.5" y="-62.5" font-family="Helvetica,sans-Serif" font-size="10.00">_raytracer.h</text>
</a>
</g>
</g>
<!-- Node2 -->
<g id="node2" class="node">
<title>Node2</title>
<g id="a_node2"><a xlink:title=" ">
<polygon fill="#e0e0e0" stroke="#999999" points="49,-20 0,-20 0,0 49,0 49,-20"/>
<text xml:space="preserve" text-anchor="middle" x="24.5" y="-6.5" font-family="Helvetica,sans-Serif" font-size="10.00">rtcore.h</text>
</a>
</g>
</g>
<!-- Node1&#45;&gt;Node2 -->
<g id="edge1" class="edge">
<title>Node1&#45;&gt;Node2</title>
<path fill="none" stroke="#63b8ff" d="M115.08,-55.55C96.2,-46.26 72.32,-34.52 53.82,-25.42"/>
<polygon fill="#63b8ff" stroke="#63b8ff" points="55.51,-22.35 44.99,-21.08 52.42,-28.63 55.51,-22.35"/>
</g>
<!-- Node3 -->
<g id="node3" class="node">
<title>Node3</title>
<g id="a_node3"><a xlink:title=" ">
<polygon fill="#e0e0e0" stroke="#999999" points="110,-20 67,-20 67,0 110,0 110,-20"/>
<text xml:space="preserve" text-anchor="middle" x="88.5" y="-6.5" font-family="Helvetica,sans-Serif" font-size="10.00">vector</text>
</a>
</g>
</g>
<!-- Node1&#45;&gt;Node3 -->
<g id="edge2" class="edge">
<title>Node1&#45;&gt;Node3</title>
<path fill="none" stroke="#63b8ff" d="M131.56,-55.55C123.59,-47.3 113.75,-37.12 105.49,-28.57"/>
<polygon fill="#63b8ff" stroke="#63b8ff" points="108.11,-26.25 98.65,-21.5 103.08,-31.12 108.11,-26.25"/>
</g>
<!-- Node4 -->
<g id="node4" class="node">
<title>Node4</title>
<g id="a_node4"><a xlink:title=" ">
<polygon fill="#e0e0e0" stroke="#999999" points="165.38,-20 127.62,-20 127.62,0 165.38,0 165.38,-20"/>
<text xml:space="preserve" text-anchor="middle" x="146.5" y="-6.5" font-family="Helvetica,sans-Serif" font-size="10.00">array</text>
</a>
</g>
</g>
<!-- Node1&#45;&gt;Node4 -->
<g id="edge3" class="edge">
<title>Node1&#45;&gt;Node4</title>
<path fill="none" stroke="#63b8ff" d="M146.5,-55.55C146.5,-48.34 146.5,-39.66 146.5,-31.88"/>
<polygon fill="#63b8ff" stroke="#63b8ff" points="150,-31.92 146.5,-21.92 143,-31.92 150,-31.92"/>
</g>
<!-- Node5 -->
<g id="node5" class="node">
<title>Node5</title>
<g id="a_node5"><a xlink:href="a00218.html" target="_top" xlink:title=" ">
<polygon fill="white" stroke="#666666" points="247.12,-20 183.88,-20 183.88,0 247.12,0 247.12,-20"/>
<text xml:space="preserve" text-anchor="middle" x="215.5" y="-6.5" font-family="Helvetica,sans-Serif" font-size="10.00">HitStruct.h</text>
</a>
</g>
</g>
<!-- Node1&#45;&gt;Node5 -->
<g id="edge4" class="edge">
<title>Node1&#45;&gt;Node5</title>
<path fill="none" stroke="#63b8ff" d="M164.27,-55.55C174.05,-47.04 186.2,-36.48 196.22,-27.77"/>
<polygon fill="#63b8ff" stroke="#63b8ff" points="198.29,-30.6 203.54,-21.4 193.7,-25.32 198.29,-30.6"/>
</g>
<!-- Node6 -->
<g id="node6" class="node">
<title>Node6</title>
<g id="a_node6"><a xlink:title=" ">
<polygon fill="#e0e0e0" stroke="#999999" points="308,-20 265,-20 265,0 308,0 308,-20"/>
<text xml:space="preserve" text-anchor="middle" x="286.5" y="-6.5" font-family="Helvetica,sans-Serif" font-size="10.00">omp.h</text>
</a>
</g>
</g>
<!-- Node1&#45;&gt;Node6 -->
<g id="edge5" class="edge">
<title>Node1&#45;&gt;Node6</title>
<path fill="none" stroke="#63b8ff" d="M182.55,-55.55C204.63,-46.09 232.65,-34.08 254.04,-24.91"/>
<polygon fill="#63b8ff" stroke="#63b8ff" points="255.34,-28.16 263.16,-21 252.59,-21.73 255.34,-28.16"/>
</g>
</g>
</svg>
