<?xml version="1.0" encoding="UTF-8" standalone="no"?>
<!DOCTYPE svg PUBLIC "-//W3C//DTD SVG 1.1//EN"
 "http://www.w3.org/Graphics/SVG/1.1/DTD/svg11.dtd">
<!-- Generated by graphviz version 13.1.2 (20250808.2320)
 -->
<!-- Title: Cpp/pathfinding/src/path_finder.cpp Pages: 1 -->
<svg width="1690pt" height="244pt"
 viewBox="0.00 0.00 1690.00 244.00" xmlns="http://www.w3.org/2000/svg" xmlns:xlink="http://www.w3.org/1999/xlink">
<g id="graph0" class="graph" transform="scale(1 1) rotate(0) translate(4 240)">
<title>Cpp/pathfinding/src/path_finder.cpp</title>
<!-- Node1 -->
<g id="node1" class="node">
<title>Node1</title>
<g id="a_node1"><a xlink:title="Contains implmentation for the BoostGraphDeleter structure.">
<polygon fill="#999999" stroke="#666666" points="537,-236 436.25,-236 436.25,-204 537,-204 537,-236"/>
<text xml:space="preserve" text-anchor="start" x="444.25" y="-222.5" font-family="Helvetica,sans-Serif" font-size="10.00">Cpp/pathfinding/src</text>
<text xml:space="preserve" text-anchor="middle" x="486.62" y="-210.5" font-family="Helvetica,sans-Serif" font-size="10.00">/path_finder.cpp</text>
</a>
</g>
</g>
<!-- Node2 -->
<g id="node2" class="node">
<title>Node2</title>
<g id="a_node2"><a xlink:href="a00206.html" target="_top" xlink:title="Contains definition for the BoostGraphDeleter structure.">
<polygon fill="white" stroke="#666666" points="125.75,-156 53.5,-156 53.5,-136 125.75,-136 125.75,-156"/>
<text xml:space="preserve" text-anchor="middle" x="89.62" y="-142.5" font-family="Helvetica,sans-Serif" font-size="10.00">path_finder.h</text>
</a>
</g>
</g>
<!-- Node1&#45;&gt;Node2 -->
<g id="edge1" class="edge">
<title>Node1&#45;&gt;Node2</title>
<path fill="none" stroke="#63b8ff" d="M435.81,-215.55C367.45,-210.01 242.56,-196.69 139.62,-168 132.89,-166.12 125.85,-163.56 119.25,-160.88"/>
<polygon fill="#63b8ff" stroke="#63b8ff" points="120.65,-157.67 110.08,-156.94 117.89,-164.11 120.65,-157.67"/>
</g>
<!-- Node3 -->
<g id="node3" class="node">
<title>Node3</title>
<g id="a_node3"><a xlink:title=" ">
<polygon fill="#e0e0e0" stroke="#999999" points="51.25,-82 0,-82 0,-62 51.25,-62 51.25,-82"/>
<text xml:space="preserve" text-anchor="middle" x="25.62" y="-68.5" font-family="Helvetica,sans-Serif" font-size="10.00">memory</text>
</a>
</g>
</g>
<!-- Node1&#45;&gt;Node3 -->
<g id="edge14" class="edge">
<title>Node1&#45;&gt;Node3</title>
<path fill="none" stroke="#63b8ff" d="M436.09,-216.48C326.2,-210.53 73,-194.13 44.62,-168 24.25,-149.24 22.22,-115.3 23.37,-93.48"/>
<polygon fill="#63b8ff" stroke="#63b8ff" points="26.84,-94 24.18,-83.74 19.87,-93.42 26.84,-94"/>
</g>
<!-- Node4 -->
<g id="node4" class="node">
<title>Node4</title>
<g id="a_node4"><a xlink:title=" ">
<polygon fill="#e0e0e0" stroke="#999999" points="275.12,-82 232.12,-82 232.12,-62 275.12,-62 275.12,-82"/>
<text xml:space="preserve" text-anchor="middle" x="253.62" y="-68.5" font-family="Helvetica,sans-Serif" font-size="10.00">vector</text>
</a>
</g>
</g>
<!-- Node1&#45;&gt;Node4 -->
<g id="edge8" class="edge">
<title>Node1&#45;&gt;Node4</title>
<path fill="none" stroke="#63b8ff" d="M435.85,-218.4C355.77,-216.27 205.82,-207.02 172.62,-168 159.95,-153.1 163.17,-141.12 172.62,-124 178.43,-113.48 203.51,-98.58 224.25,-87.6"/>
<polygon fill="#63b8ff" stroke="#63b8ff" points="225.66,-90.81 232.93,-83.1 222.44,-84.59 225.66,-90.81"/>
</g>
<!-- Node9 -->
<g id="node9" class="node">
<title>Node9</title>
<g id="a_node9"><a xlink:title=" ">
<polygon fill="#e0e0e0" stroke="#999999" points="253.38,-156 181.88,-156 181.88,-136 253.38,-136 253.38,-156"/>
<text xml:space="preserve" text-anchor="middle" x="217.62" y="-142.5" font-family="Helvetica,sans-Serif" font-size="10.00">robin_hood.h</text>
</a>
</g>
</g>
<!-- Node1&#45;&gt;Node9 -->
<g id="edge9" class="edge">
<title>Node1&#45;&gt;Node9</title>
<path fill="none" stroke="#63b8ff" d="M436.13,-210.88C389.93,-202.67 320.09,-188.29 261.62,-168 256.07,-166.07 250.29,-163.64 244.82,-161.13"/>
<polygon fill="#63b8ff" stroke="#63b8ff" points="246.7,-158.15 236.17,-156.95 243.65,-164.45 246.7,-158.15"/>
</g>
<!-- Node10 -->
<g id="node10" class="node">
<title>Node10</title>
<g id="a_node10"><a xlink:title=" ">
<polygon fill="#e0e0e0" stroke="#999999" points="314.12,-156 271.12,-156 271.12,-136 314.12,-136 314.12,-156"/>
<text xml:space="preserve" text-anchor="middle" x="292.62" y="-142.5" font-family="Helvetica,sans-Serif" font-size="10.00">omp.h</text>
</a>
</g>
</g>
<!-- Node1&#45;&gt;Node10 -->
<g id="edge10" class="edge">
<title>Node1&#45;&gt;Node10</title>
<path fill="none" stroke="#63b8ff" d="M435.93,-207.57C402.72,-199.04 358.9,-185.8 322.62,-168 319.63,-166.53 316.6,-164.78 313.68,-162.93"/>
<polygon fill="#63b8ff" stroke="#63b8ff" points="315.82,-160.15 305.6,-157.34 311.84,-165.91 315.82,-160.15"/>
</g>
<!-- Node11 -->
<g id="node11" class="node">
<title>Node11</title>
<g id="a_node11"><a xlink:title=" ">
<polygon fill="#e0e0e0" stroke="#999999" points="375.12,-156 332.12,-156 332.12,-136 375.12,-136 375.12,-156"/>
<text xml:space="preserve" text-anchor="middle" x="353.62" y="-142.5" font-family="Helvetica,sans-Serif" font-size="10.00">thread</text>
</a>
</g>
</g>
<!-- Node1&#45;&gt;Node11 -->
<g id="edge11" class="edge">
<title>Node1&#45;&gt;Node11</title>
<path fill="none" stroke="#63b8ff" d="M452.96,-203.55C432.79,-193.95 406.84,-181 384.62,-168 381.78,-166.34 378.86,-164.51 375.98,-162.65"/>
<polygon fill="#63b8ff" stroke="#63b8ff" points="378.16,-159.9 367.91,-157.23 374.26,-165.71 378.16,-159.9"/>
</g>
<!-- Node12 -->
<g id="node12" class="node">
<title>Node12</title>
<g id="a_node12"><a xlink:title=" ">
<polygon fill="#e0e0e0" stroke="#999999" points="439.62,-156 393.62,-156 393.62,-136 439.62,-136 439.62,-156"/>
<text xml:space="preserve" text-anchor="middle" x="416.62" y="-142.5" font-family="Helvetica,sans-Serif" font-size="10.00">math.h</text>
</a>
</g>
</g>
<!-- Node1&#45;&gt;Node12 -->
<g id="edge12" class="edge">
<title>Node1&#45;&gt;Node12</title>
<path fill="none" stroke="#63b8ff" d="M471.78,-203.73C460.54,-192.17 445.1,-176.29 433.41,-164.26"/>
<polygon fill="#63b8ff" stroke="#63b8ff" points="436.21,-162.13 426.73,-157.4 431.19,-167.01 436.21,-162.13"/>
</g>
<!-- Node13 -->
<g id="node13" class="node">
<title>Node13</title>
<g id="a_node13"><a xlink:title=" ">
<polygon fill="#e0e0e0" stroke="#999999" points="515.62,-156 457.62,-156 457.62,-136 515.62,-136 515.62,-156"/>
<text xml:space="preserve" text-anchor="middle" x="486.62" y="-142.5" font-family="Helvetica,sans-Serif" font-size="10.00">execution</text>
</a>
</g>
</g>
<!-- Node1&#45;&gt;Node13 -->
<g id="edge13" class="edge">
<title>Node1&#45;&gt;Node13</title>
<path fill="none" stroke="#63b8ff" d="M486.62,-203.73C486.62,-193.18 486.62,-179.03 486.62,-167.5"/>
<polygon fill="#63b8ff" stroke="#63b8ff" points="490.13,-167.82 486.63,-157.82 483.13,-167.82 490.13,-167.82"/>
</g>
<!-- Node14 -->
<g id="node14" class="node">
<title>Node14</title>
<g id="a_node14"><a xlink:title=" ">
<polygon fill="#e0e0e0" stroke="#999999" points="637.88,-162 533.38,-162 533.38,-130 637.88,-130 637.88,-162"/>
<text xml:space="preserve" text-anchor="start" x="541.38" y="-148.5" font-family="Helvetica,sans-Serif" font-size="10.00">boost/graph/dijkstra</text>
<text xml:space="preserve" text-anchor="middle" x="585.62" y="-136.5" font-family="Helvetica,sans-Serif" font-size="10.00">_shortest_paths.hpp</text>
</a>
</g>
</g>
<!-- Node1&#45;&gt;Node14 -->
<g id="edge15" class="edge">
<title>Node1&#45;&gt;Node14</title>
<path fill="none" stroke="#63b8ff" d="M507.62,-203.73C521.44,-193.68 539.75,-180.36 555.16,-169.15"/>
<polygon fill="#63b8ff" stroke="#63b8ff" points="557.07,-172.1 563.09,-163.39 552.95,-166.44 557.07,-172.1"/>
</g>
<!-- Node15 -->
<g id="node15" class="node">
<title>Node15</title>
<g id="a_node15"><a xlink:title=" ">
<polygon fill="#e0e0e0" stroke="#999999" points="757.75,-162 655.5,-162 655.5,-130 757.75,-130 757.75,-162"/>
<text xml:space="preserve" text-anchor="start" x="663.5" y="-148.5" font-family="Helvetica,sans-Serif" font-size="10.00">boost/graph/breadth</text>
<text xml:space="preserve" text-anchor="middle" x="706.62" y="-136.5" font-family="Helvetica,sans-Serif" font-size="10.00">_first_search.hpp</text>
</a>
</g>
</g>
<!-- Node1&#45;&gt;Node15 -->
<g id="edge16" class="edge">
<title>Node1&#45;&gt;Node15</title>
<path fill="none" stroke="#63b8ff" d="M536.47,-203.51C568.1,-193.58 609.85,-180.29 646.62,-168 648.46,-167.39 650.33,-166.76 652.21,-166.12"/>
<polygon fill="#63b8ff" stroke="#63b8ff" points="653.33,-169.44 661.66,-162.89 651.06,-162.81 653.33,-169.44"/>
</g>
<!-- Node16 -->
<g id="node16" class="node">
<title>Node16</title>
<g id="a_node16"><a xlink:title=" ">
<polygon fill="#e0e0e0" stroke="#999999" points="903.5,-168 775.75,-168 775.75,-124 903.5,-124 903.5,-168"/>
<text xml:space="preserve" text-anchor="start" x="783.75" y="-154.5" font-family="Helvetica,sans-Serif" font-size="10.00">boost/graph/dijkstra</text>
<text xml:space="preserve" text-anchor="start" x="783.75" y="-142.5" font-family="Helvetica,sans-Serif" font-size="10.00">_shortest_paths_no_color</text>
<text xml:space="preserve" text-anchor="middle" x="839.62" y="-130.5" font-family="Helvetica,sans-Serif" font-size="10.00">_map.hpp</text>
</a>
</g>
</g>
<!-- Node1&#45;&gt;Node16 -->
<g id="edge17" class="edge">
<title>Node1&#45;&gt;Node16</title>
<path fill="none" stroke="#63b8ff" d="M537.27,-211.34C591.23,-202.83 679.34,-187.94 764.45,-168.4"/>
<polygon fill="#63b8ff" stroke="#63b8ff" points="765.2,-171.82 774.15,-166.15 763.62,-165 765.2,-171.82"/>
</g>
<!-- Node17 -->
<g id="node17" class="node">
<title>Node17</title>
<g id="a_node17"><a xlink:title=" ">
<polygon fill="#e0e0e0" stroke="#999999" points="1070,-156 921.25,-156 921.25,-136 1070,-136 1070,-156"/>
<text xml:space="preserve" text-anchor="middle" x="995.62" y="-142.5" font-family="Helvetica,sans-Serif" font-size="10.00">boost/exception/exception.hpp</text>
</a>
</g>
</g>
<!-- Node1&#45;&gt;Node17 -->
<g id="edge18" class="edge">
<title>Node1&#45;&gt;Node17</title>
<path fill="none" stroke="#63b8ff" d="M537.44,-215.05C617.63,-208.33 778.24,-192.94 912.62,-168 925.27,-165.65 938.85,-162.49 951.28,-159.34"/>
<polygon fill="#63b8ff" stroke="#63b8ff" points="952.06,-162.75 960.86,-156.85 950.3,-155.98 952.06,-162.75"/>
</g>
<!-- Node18 -->
<g id="node18" class="node">
<title>Node18</title>
<g id="a_node18"><a xlink:title=" ">
<polygon fill="#e0e0e0" stroke="#999999" points="1211.62,-162 1087.62,-162 1087.62,-130 1211.62,-130 1211.62,-162"/>
<text xml:space="preserve" text-anchor="start" x="1095.62" y="-148.5" font-family="Helvetica,sans-Serif" font-size="10.00">boost/math/special</text>
<text xml:space="preserve" text-anchor="middle" x="1149.62" y="-136.5" font-family="Helvetica,sans-Serif" font-size="10.00">_functions/fpclassify.hpp</text>
</a>
</g>
</g>
<!-- Node1&#45;&gt;Node18 -->
<g id="edge19" class="edge">
<title>Node1&#45;&gt;Node18</title>
<path fill="none" stroke="#63b8ff" d="M537.38,-218.07C640.32,-215.42 880.71,-205.4 1078.62,-168 1082.72,-167.23 1086.91,-166.31 1091.12,-165.31"/>
<polygon fill="#63b8ff" stroke="#63b8ff" points="1091.93,-168.71 1100.74,-162.83 1090.19,-161.93 1091.93,-168.71"/>
</g>
<!-- Node19 -->
<g id="node19" class="node">
<title>Node19</title>
<g id="a_node19"><a xlink:href="a00200.html" target="_top" xlink:title="Contains definitions for the BoostGraph class.">
<polygon fill="white" stroke="#666666" points="1368.38,-156 1290.88,-156 1290.88,-136 1368.38,-136 1368.38,-156"/>
<text xml:space="preserve" text-anchor="middle" x="1329.62" y="-142.5" font-family="Helvetica,sans-Serif" font-size="10.00">boost_graph.h</text>
</a>
</g>
</g>
<!-- Node1&#45;&gt;Node19 -->
<g id="edge20" class="edge">
<title>Node1&#45;&gt;Node19</title>
<path fill="none" stroke="#63b8ff" d="M537.26,-218.1C689.35,-215.03 1140.37,-203.13 1282.62,-168 1289.3,-166.35 1296.2,-163.8 1302.59,-161.04"/>
<polygon fill="#63b8ff" stroke="#63b8ff" points="1303.78,-164.34 1311.37,-156.95 1300.83,-158 1303.78,-164.34"/>
</g>
<!-- Node25 -->
<g id="node25" class="node">
<title>Node25</title>
<g id="a_node25"><a xlink:href="a00281.html" target="_top" xlink:title="Contains definitions for the Path structure.">
<polygon fill="white" stroke="#666666" points="1273.12,-156 1230.12,-156 1230.12,-136 1273.12,-136 1273.12,-156"/>
<text xml:space="preserve" text-anchor="middle" x="1251.62" y="-142.5" font-family="Helvetica,sans-Serif" font-size="10.00">path.h</text>
</a>
</g>
</g>
<!-- Node1&#45;&gt;Node25 -->
<g id="edge26" class="edge">
<title>Node1&#45;&gt;Node25</title>
<path fill="none" stroke="#63b8ff" d="M537.44,-218.89C682.13,-218.03 1093.99,-211.71 1220.62,-168 1224.43,-166.69 1228.2,-164.78 1231.74,-162.65"/>
<polygon fill="#63b8ff" stroke="#63b8ff" points="1233.42,-165.74 1239.67,-157.19 1229.45,-159.98 1233.42,-165.74"/>
</g>
<!-- Node2&#45;&gt;Node3 -->
<g id="edge2" class="edge">
<title>Node2&#45;&gt;Node3</title>
<path fill="none" stroke="#63b8ff" d="M81.26,-135.59C71.14,-124.21 53.9,-104.81 41.29,-90.62"/>
<polygon fill="#63b8ff" stroke="#63b8ff" points="44.06,-88.47 34.8,-83.32 38.82,-93.12 44.06,-88.47"/>
</g>
<!-- Node2&#45;&gt;Node4 -->
<g id="edge3" class="edge">
<title>Node2&#45;&gt;Node4</title>
<path fill="none" stroke="#63b8ff" d="M111.07,-135.59C139.3,-123.19 189.19,-101.29 221.83,-86.96"/>
<polygon fill="#63b8ff" stroke="#63b8ff" points="223.04,-90.25 230.79,-83.02 220.23,-83.84 223.04,-90.25"/>
</g>
<!-- Node5 -->
<g id="node5" class="node">
<title>Node5</title>
<g id="a_node5"><a xlink:title=" ">
<polygon fill="#e0e0e0" stroke="#999999" points="109.62,-82 69.62,-82 69.62,-62 109.62,-62 109.62,-82"/>
<text xml:space="preserve" text-anchor="middle" x="89.62" y="-68.5" font-family="Helvetica,sans-Serif" font-size="10.00">string</text>
</a>
</g>
</g>
<!-- Node2&#45;&gt;Node5 -->
<g id="edge4" class="edge">
<title>Node2&#45;&gt;Node5</title>
<path fill="none" stroke="#63b8ff" d="M89.62,-135.59C89.62,-124.96 89.62,-107.36 89.62,-93.53"/>
<polygon fill="#63b8ff" stroke="#63b8ff" points="93.13,-93.7 89.63,-83.7 86.13,-93.7 93.13,-93.7"/>
</g>
<!-- Node6 -->
<g id="node6" class="node">
<title>Node6</title>
<g id="a_node6"><a xlink:title=" ">
<polygon fill="#e0e0e0" stroke="#999999" points="175.75,-82 127.5,-82 127.5,-62 175.75,-62 175.75,-82"/>
<text xml:space="preserve" text-anchor="middle" x="151.62" y="-68.5" font-family="Helvetica,sans-Serif" font-size="10.00">cassert</text>
</a>
</g>
</g>
<!-- Node2&#45;&gt;Node6 -->
<g id="edge5" class="edge">
<title>Node2&#45;&gt;Node6</title>
<path fill="none" stroke="#63b8ff" d="M97.73,-135.59C107.53,-124.21 124.23,-104.81 136.45,-90.62"/>
<polygon fill="#63b8ff" stroke="#63b8ff" points="138.85,-93.2 142.73,-83.33 133.55,-88.63 138.85,-93.2"/>
</g>
<!-- Node7 -->
<g id="node7" class="node">
<title>Node7</title>
<g id="a_node7"><a xlink:title=" ">
<polygon fill="#e0e0e0" stroke="#999999" points="487.38,-82 433.88,-82 433.88,-62 487.38,-62 487.38,-82"/>
<text xml:space="preserve" text-anchor="middle" x="460.62" y="-68.5" font-family="Helvetica,sans-Serif" font-size="10.00">iostream</text>
</a>
</g>
</g>
<!-- Node2&#45;&gt;Node7 -->
<g id="edge6" class="edge">
<title>Node2&#45;&gt;Node7</title>
<path fill="none" stroke="#63b8ff" d="M124.63,-135.54C139.39,-131.71 156.78,-127.4 172.62,-124 261.43,-104.93 366.74,-87.61 422.14,-78.9"/>
<polygon fill="#63b8ff" stroke="#63b8ff" points="422.66,-82.37 432,-77.36 421.58,-75.45 422.66,-82.37"/>
</g>
<!-- Node8 -->
<g id="node8" class="node">
<title>Node8</title>
<g id="a_node8"><a xlink:title=" ">
<polygon fill="#e0e0e0" stroke="#999999" points="604.12,-20 561.12,-20 561.12,0 604.12,0 604.12,-20"/>
<text xml:space="preserve" text-anchor="middle" x="582.62" y="-6.5" font-family="Helvetica,sans-Serif" font-size="10.00">cmath</text>
</a>
</g>
</g>
<!-- Node2&#45;&gt;Node8 -->
<g id="edge7" class="edge">
<title>Node2&#45;&gt;Node8</title>
<path fill="none" stroke="#63b8ff" d="M107.31,-135.5C126.8,-124.79 158.8,-106.44 184.62,-88 202.59,-75.17 202.39,-64.84 222.62,-56 280.97,-30.49 471.71,-17.21 549.32,-12.75"/>
<polygon fill="#63b8ff" stroke="#63b8ff" points="549.47,-16.25 559.26,-12.19 549.08,-9.26 549.47,-16.25"/>
</g>
<!-- Node20 -->
<g id="node20" class="node">
<title>Node20</title>
<g id="a_node20"><a xlink:title=" ">
<polygon fill="#e0e0e0" stroke="#999999" points="1681.5,-82 1541.75,-82 1541.75,-62 1681.5,-62 1681.5,-82"/>
<text xml:space="preserve" text-anchor="middle" x="1611.62" y="-68.5" font-family="Helvetica,sans-Serif" font-size="10.00">boost/graph/graph_traits.hpp</text>
</a>
</g>
</g>
<!-- Node19&#45;&gt;Node20 -->
<g id="edge21" class="edge">
<title>Node19&#45;&gt;Node20</title>
<path fill="none" stroke="#63b8ff" d="M1366.78,-135.51C1417.43,-122.58 1508.2,-99.41 1563.86,-85.2"/>
<polygon fill="#63b8ff" stroke="#63b8ff" points="1564.54,-88.63 1573.37,-82.77 1562.81,-81.85 1564.54,-88.63"/>
</g>
<!-- Node21 -->
<g id="node21" class="node">
<title>Node21</title>
<g id="a_node21"><a xlink:title=" ">
<polygon fill="#e0e0e0" stroke="#999999" points="1127.75,-88 1013.5,-88 1013.5,-56 1127.75,-56 1127.75,-88"/>
<text xml:space="preserve" text-anchor="start" x="1021.5" y="-74.5" font-family="Helvetica,sans-Serif" font-size="10.00">boost/graph/adjacency</text>
<text xml:space="preserve" text-anchor="middle" x="1070.62" y="-62.5" font-family="Helvetica,sans-Serif" font-size="10.00">_matrix.hpp</text>
</a>
</g>
</g>
<!-- Node19&#45;&gt;Node21 -->
<g id="edge22" class="edge">
<title>Node19&#45;&gt;Node21</title>
<path fill="none" stroke="#63b8ff" d="M1310.74,-135.6C1302.28,-131.65 1292.1,-127.23 1282.62,-124 1268.91,-119.33 1195.83,-102.02 1139.26,-88.85"/>
<polygon fill="#63b8ff" stroke="#63b8ff" points="1140.19,-85.47 1129.66,-86.61 1138.61,-92.29 1140.19,-85.47"/>
</g>
<!-- Node22 -->
<g id="node22" class="node">
<title>Node22</title>
<g id="a_node22"><a xlink:title=" ">
<polygon fill="#e0e0e0" stroke="#999999" points="1249.88,-88 1145.38,-88 1145.38,-56 1249.88,-56 1249.88,-88"/>
<text xml:space="preserve" text-anchor="start" x="1153.38" y="-74.5" font-family="Helvetica,sans-Serif" font-size="10.00">boost/graph/directed</text>
<text xml:space="preserve" text-anchor="middle" x="1197.62" y="-62.5" font-family="Helvetica,sans-Serif" font-size="10.00">_graph.hpp</text>
</a>
</g>
</g>
<!-- Node19&#45;&gt;Node22 -->
<g id="edge23" class="edge">
<title>Node19&#45;&gt;Node22</title>
<path fill="none" stroke="#63b8ff" d="M1312.37,-135.59C1293.08,-125.07 1261.25,-107.7 1236,-93.93"/>
<polygon fill="#63b8ff" stroke="#63b8ff" points="1237.77,-90.91 1227.32,-89.2 1234.42,-97.06 1237.77,-90.91"/>
</g>
<!-- Node23 -->
<g id="node23" class="node">
<title>Node23</title>
<g id="a_node23"><a xlink:title=" ">
<polygon fill="#e0e0e0" stroke="#999999" points="1391.25,-88 1268,-88 1268,-56 1391.25,-56 1391.25,-88"/>
<text xml:space="preserve" text-anchor="start" x="1276" y="-74.5" font-family="Helvetica,sans-Serif" font-size="10.00">boost/graph/compressed</text>
<text xml:space="preserve" text-anchor="middle" x="1329.62" y="-62.5" font-family="Helvetica,sans-Serif" font-size="10.00">_sparse_row_graph.hpp</text>
</a>
</g>
</g>
<!-- Node19&#45;&gt;Node23 -->
<g id="edge24" class="edge">
<title>Node19&#45;&gt;Node23</title>
<path fill="none" stroke="#63b8ff" d="M1329.62,-135.59C1329.62,-126.52 1329.62,-112.36 1329.62,-99.8"/>
<polygon fill="#63b8ff" stroke="#63b8ff" points="1333.13,-99.98 1329.63,-89.98 1326.13,-99.98 1333.13,-99.98"/>
</g>
<!-- Node24 -->
<g id="node24" class="node">
<title>Node24</title>
<g id="a_node24"><a xlink:title=" ">
<polygon fill="#e0e0e0" stroke="#999999" points="1523.75,-88 1409.5,-88 1409.5,-56 1523.75,-56 1523.75,-88"/>
<text xml:space="preserve" text-anchor="start" x="1417.5" y="-74.5" font-family="Helvetica,sans-Serif" font-size="10.00">boost/graph/adjacency</text>
<text xml:space="preserve" text-anchor="middle" x="1466.62" y="-62.5" font-family="Helvetica,sans-Serif" font-size="10.00">_list.hpp</text>
</a>
</g>
</g>
<!-- Node19&#45;&gt;Node24 -->
<g id="edge25" class="edge">
<title>Node19&#45;&gt;Node24</title>
<path fill="none" stroke="#63b8ff" d="M1347.54,-135.59C1367.64,-125.02 1400.88,-107.55 1427.15,-93.75"/>
<polygon fill="#63b8ff" stroke="#63b8ff" points="1428.62,-96.93 1435.85,-89.17 1425.37,-90.73 1428.62,-96.93"/>
</g>
<!-- Node25&#45;&gt;Node4 -->
<g id="edge27" class="edge">
<title>Node25&#45;&gt;Node4</title>
<path fill="none" stroke="#63b8ff" d="M1240.94,-135.6C1235.3,-131.22 1228.03,-126.46 1220.62,-124 1052.56,-68.25 601.31,-99.74 424.62,-88 376.61,-84.81 321.14,-79.68 286.72,-76.32"/>
<polygon fill="#63b8ff" stroke="#63b8ff" points="287.27,-72.86 276.97,-75.36 286.58,-79.82 287.27,-72.86"/>
</g>
<!-- Node25&#45;&gt;Node7 -->
<g id="edge28" class="edge">
<title>Node25&#45;&gt;Node7</title>
<path fill="none" stroke="#63b8ff" d="M1240.92,-135.66C1235.27,-131.31 1228,-126.54 1220.62,-124 1186.19,-112.16 648.29,-82.93 498.86,-75.01"/>
<polygon fill="#63b8ff" stroke="#63b8ff" points="499.28,-71.53 489.11,-74.49 498.91,-78.52 499.28,-71.53"/>
</g>
<!-- Node26 -->
<g id="node26" class="node">
<title>Node26</title>
<g id="a_node26"><a xlink:href="a00251.html" target="_top" xlink:title="Contains definitions for the HF::SpatialStructures namespace.">
<polygon fill="white" stroke="#666666" points="854.12,-82 787.12,-82 787.12,-62 854.12,-62 854.12,-82"/>
<text xml:space="preserve" text-anchor="middle" x="820.62" y="-68.5" font-family="Helvetica,sans-Serif" font-size="10.00">constants.h</text>
</a>
</g>
</g>
<!-- Node25&#45;&gt;Node26 -->
<g id="edge29" class="edge">
<title>Node25&#45;&gt;Node26</title>
<path fill="none" stroke="#63b8ff" d="M1240.57,-135.63C1234.95,-131.38 1227.8,-126.71 1220.62,-124 1156.47,-99.77 956.25,-82.76 865.79,-76.11"/>
<polygon fill="#63b8ff" stroke="#63b8ff" points="866.28,-72.63 856.06,-75.4 865.78,-79.61 866.28,-72.63"/>
</g>
<!-- Node26&#45;&gt;Node8 -->
<g id="edge30" class="edge">
<title>Node26&#45;&gt;Node8</title>
<path fill="none" stroke="#63b8ff" d="M786.78,-62.47C741.09,-50.95 660.23,-30.57 615.21,-19.21"/>
<polygon fill="#63b8ff" stroke="#63b8ff" points="616.33,-15.89 605.78,-16.84 614.62,-22.67 616.33,-15.89"/>
</g>
</g>
</svg>
