<?xml version="1.0" encoding="UTF-8" standalone="no"?>
<!DOCTYPE svg PUBLIC "-//W3C//DTD SVG 1.1//EN"
 "http://www.w3.org/Graphics/SVG/1.1/DTD/svg11.dtd">
<!-- Generated by graphviz version 13.1.2 (20250808.2320)
 -->
<!-- Title: Cpp/spatialstructures/src/CInterface.cpp Pages: 1 -->
<svg width="870pt" height="264pt"
 viewBox="0.00 0.00 870.00 264.00" xmlns="http://www.w3.org/2000/svg" xmlns:xlink="http://www.w3.org/1999/xlink">
<g id="graph0" class="graph" transform="scale(1 1) rotate(0) translate(4 260)">
<title>Cpp/spatialstructures/src/CInterface.cpp</title>
<!-- Node1 -->
<g id="node1" class="node">
<title>Node1</title>
<g id="a_node1"><a xlink:title="Contains implementation for the CInterface.">
<polygon fill="#999999" stroke="#666666" points="456.51,-256 347.51,-256 347.51,-224 456.51,-224 456.51,-256"/>
<text xml:space="preserve" text-anchor="start" x="355.51" y="-242.5" font-family="Helvetica,sans-Serif" font-size="10.00">Cpp/spatialstructures</text>
<text xml:space="preserve" text-anchor="middle" x="402.01" y="-230.5" font-family="Helvetica,sans-Serif" font-size="10.00">/src/CInterface.cpp</text>
</a>
</g>
</g>
<!-- Node2 -->
<g id="node2" class="node">
<title>Node2</title>
<g id="a_node2"><a xlink:href="a00437.html" target="_top" xlink:title="Header file related to manipulating nodes, edges, and graphs via CInterface.">
<polygon fill="white" stroke="#666666" points="152.51,-188 43.51,-188 43.51,-168 152.51,-168 152.51,-188"/>
<text xml:space="preserve" text-anchor="middle" x="98.01" y="-174.5" font-family="Helvetica,sans-Serif" font-size="10.00">spatialstructures_C.h</text>
</a>
</g>
</g>
<!-- Node1&#45;&gt;Node2 -->
<g id="edge1" class="edge">
<title>Node1&#45;&gt;Node2</title>
<path fill="none" stroke="#63b8ff" d="M347.31,-228.2C293.58,-217.6 211.85,-201.47 156.76,-190.6"/>
<polygon fill="#63b8ff" stroke="#63b8ff" points="157.75,-187.22 147.26,-188.72 156.39,-194.09 157.75,-187.22"/>
</g>
<!-- Node6 -->
<g id="node6" class="node">
<title>Node6</title>
<g id="a_node6"><a xlink:title=" ">
<polygon fill="#e0e0e0" stroke="#999999" points="574.76,-76 521.26,-76 521.26,-56 574.76,-56 574.76,-76"/>
<text xml:space="preserve" text-anchor="middle" x="548.01" y="-62.5" font-family="Helvetica,sans-Serif" font-size="10.00">iostream</text>
</a>
</g>
</g>
<!-- Node1&#45;&gt;Node6 -->
<g id="edge7" class="edge">
<title>Node1&#45;&gt;Node6</title>
<path fill="none" stroke="#63b8ff" d="M453.47,-223.6C495.58,-207.97 552.38,-179.23 579.01,-132 587.8,-116.43 577.09,-97.97 565.93,-84.71"/>
<polygon fill="#63b8ff" stroke="#63b8ff" points="568.73,-82.58 559.39,-77.58 563.57,-87.31 568.73,-82.58"/>
</g>
<!-- Node7 -->
<g id="node7" class="node">
<title>Node7</title>
<g id="a_node7"><a xlink:href="a00251.html" target="_top" xlink:title="Contains definitions for the HF::SpatialStructures namespace.">
<polygon fill="white" stroke="#666666" points="664.51,-76 597.51,-76 597.51,-56 664.51,-56 664.51,-76"/>
<text xml:space="preserve" text-anchor="middle" x="631.01" y="-62.5" font-family="Helvetica,sans-Serif" font-size="10.00">constants.h</text>
</a>
</g>
</g>
<!-- Node1&#45;&gt;Node7 -->
<g id="edge8" class="edge">
<title>Node1&#45;&gt;Node7</title>
<path fill="none" stroke="#63b8ff" d="M456.98,-228.52C487.07,-220.86 523.84,-208.19 552.01,-188 588.25,-162.03 612.24,-113.81 623.53,-86.74"/>
<polygon fill="#63b8ff" stroke="#63b8ff" points="626.7,-88.25 627.15,-77.66 620.2,-85.66 626.7,-88.25"/>
</g>
<!-- Node9 -->
<g id="node9" class="node">
<title>Node9</title>
<g id="a_node9"><a xlink:href="a00176.html" target="_top" xlink:title="Contains definitions for the Exceptions namespace.">
<polygon fill="white" stroke="#666666" points="781.26,-188 694.76,-188 694.76,-168 781.26,-168 781.26,-188"/>
<text xml:space="preserve" text-anchor="middle" x="738.01" y="-174.5" font-family="Helvetica,sans-Serif" font-size="10.00">HFExceptions.h</text>
</a>
</g>
</g>
<!-- Node1&#45;&gt;Node9 -->
<g id="edge10" class="edge">
<title>Node1&#45;&gt;Node9</title>
<path fill="none" stroke="#63b8ff" d="M456.74,-229.23C519.15,-218.08 620.6,-199.97 683.09,-188.81"/>
<polygon fill="#63b8ff" stroke="#63b8ff" points="683.57,-192.28 692.79,-187.07 682.33,-185.39 683.57,-192.28"/>
</g>
<!-- Node13 -->
<g id="node13" class="node">
<title>Node13</title>
<g id="a_node13"><a xlink:href="a00269.html" target="_top" xlink:title="Contains definitions for the Graph &#160;class.">
<polygon fill="white" stroke="#666666" points="426.14,-188 377.89,-188 377.89,-168 426.14,-168 426.14,-188"/>
<text xml:space="preserve" text-anchor="middle" x="402.01" y="-174.5" font-family="Helvetica,sans-Serif" font-size="10.00">graph.h</text>
</a>
</g>
</g>
<!-- Node1&#45;&gt;Node13 -->
<g id="edge14" class="edge">
<title>Node1&#45;&gt;Node13</title>
<path fill="none" stroke="#63b8ff" d="M402.01,-223.55C402.01,-216.34 402.01,-207.66 402.01,-199.88"/>
<polygon fill="#63b8ff" stroke="#63b8ff" points="405.51,-199.92 402.01,-189.92 398.51,-199.92 405.51,-199.92"/>
</g>
<!-- Node15 -->
<g id="node15" class="node">
<title>Node15</title>
<g id="a_node15"><a xlink:href="a00263.html" target="_top" xlink:title="Contains definitions for the Edge structure.">
<polygon fill="white" stroke="#666666" points="245.64,-132 200.39,-132 200.39,-112 245.64,-112 245.64,-132"/>
<text xml:space="preserve" text-anchor="middle" x="223.01" y="-118.5" font-family="Helvetica,sans-Serif" font-size="10.00">edge.h</text>
</a>
</g>
</g>
<!-- Node1&#45;&gt;Node15 -->
<g id="edge30" class="edge">
<title>Node1&#45;&gt;Node15</title>
<path fill="none" stroke="#63b8ff" d="M347.17,-228.89C318.69,-221.42 284.78,-208.82 260.01,-188 245.88,-176.12 236.03,-157.38 230.07,-143.07"/>
<polygon fill="#63b8ff" stroke="#63b8ff" points="233.35,-141.85 226.51,-133.76 226.81,-144.35 233.35,-141.85"/>
</g>
<!-- Node16 -->
<g id="node16" class="node">
<title>Node16</title>
<g id="a_node16"><a xlink:href="a00275.html" target="_top" xlink:title="Contains definitions for the Node structure.">
<polygon fill="white" stroke="#666666" points="276.64,-76 231.39,-76 231.39,-56 276.64,-56 276.64,-76"/>
<text xml:space="preserve" text-anchor="middle" x="254.01" y="-62.5" font-family="Helvetica,sans-Serif" font-size="10.00">node.h</text>
</a>
</g>
</g>
<!-- Node1&#45;&gt;Node16 -->
<g id="edge29" class="edge">
<title>Node1&#45;&gt;Node16</title>
<path fill="none" stroke="#63b8ff" d="M383.63,-223.57C360.75,-203.81 321.25,-167.82 293.01,-132 281.68,-117.63 271.15,-99.69 263.9,-86.3"/>
<polygon fill="#63b8ff" stroke="#63b8ff" points="267.09,-84.86 259.34,-77.64 260.9,-88.12 267.09,-84.86"/>
</g>
<!-- Node3 -->
<g id="node3" class="node">
<title>Node3</title>
<g id="a_node3"><a xlink:href="a00413.html" target="_top" xlink:title=" ">
<polygon fill="white" stroke="#666666" points="106.14,-132 15.89,-132 15.89,-112 106.14,-112 106.14,-132"/>
<text xml:space="preserve" text-anchor="middle" x="61.01" y="-118.5" font-family="Helvetica,sans-Serif" font-size="10.00">cinterface_utils.h</text>
</a>
</g>
</g>
<!-- Node2&#45;&gt;Node3 -->
<g id="edge2" class="edge">
<title>Node2&#45;&gt;Node3</title>
<path fill="none" stroke="#63b8ff" d="M91.57,-167.59C86.69,-160.47 79.82,-150.45 73.84,-141.72"/>
<polygon fill="#63b8ff" stroke="#63b8ff" points="76.78,-139.82 68.24,-133.55 71,-143.77 76.78,-139.82"/>
</g>
<!-- Node4 -->
<g id="node4" class="node">
<title>Node4</title>
<g id="a_node4"><a xlink:title=" ">
<polygon fill="#e0e0e0" stroke="#999999" points="193.51,-76 150.51,-76 150.51,-56 193.51,-56 193.51,-76"/>
<text xml:space="preserve" text-anchor="middle" x="172.01" y="-62.5" font-family="Helvetica,sans-Serif" font-size="10.00">vector</text>
</a>
</g>
</g>
<!-- Node2&#45;&gt;Node4 -->
<g id="edge5" class="edge">
<title>Node2&#45;&gt;Node4</title>
<path fill="none" stroke="#63b8ff" d="M104.32,-167.62C116.5,-149.52 143.45,-109.45 159.43,-85.7"/>
<polygon fill="#63b8ff" stroke="#63b8ff" points="162.2,-87.86 164.87,-77.61 156.39,-83.95 162.2,-87.86"/>
</g>
<!-- Node5 -->
<g id="node5" class="node">
<title>Node5</title>
<g id="a_node5"><a xlink:title=" ">
<polygon fill="#e0e0e0" stroke="#999999" points="79.89,-20 42.14,-20 42.14,0 79.89,0 79.89,-20"/>
<text xml:space="preserve" text-anchor="middle" x="61.01" y="-6.5" font-family="Helvetica,sans-Serif" font-size="10.00">array</text>
</a>
</g>
</g>
<!-- Node2&#45;&gt;Node5 -->
<g id="edge6" class="edge">
<title>Node2&#45;&gt;Node5</title>
<path fill="none" stroke="#63b8ff" d="M57.7,-167.61C38.86,-160.98 18.17,-149.97 7.01,-132 -14.61,-97.19 20,-52.24 43.06,-28.12"/>
<polygon fill="#63b8ff" stroke="#63b8ff" points="45.27,-30.86 49.84,-21.3 40.31,-25.92 45.27,-30.86"/>
</g>
<!-- Node3&#45;&gt;Node4 -->
<g id="edge3" class="edge">
<title>Node3&#45;&gt;Node4</title>
<path fill="none" stroke="#63b8ff" d="M80.35,-111.59C97.43,-103.28 122.62,-91.03 142.27,-81.47"/>
<polygon fill="#63b8ff" stroke="#63b8ff" points="143.71,-84.66 151.17,-77.14 140.64,-78.37 143.71,-84.66"/>
</g>
<!-- Node3&#45;&gt;Node5 -->
<g id="edge4" class="edge">
<title>Node3&#45;&gt;Node5</title>
<path fill="none" stroke="#63b8ff" d="M61.01,-111.62C61.01,-94.01 61.01,-55.59 61.01,-31.65"/>
<polygon fill="#63b8ff" stroke="#63b8ff" points="64.51,-31.87 61.01,-21.87 57.51,-31.87 64.51,-31.87"/>
</g>
<!-- Node8 -->
<g id="node8" class="node">
<title>Node8</title>
<g id="a_node8"><a xlink:title=" ">
<polygon fill="#e0e0e0" stroke="#999999" points="652.51,-20 609.51,-20 609.51,0 652.51,0 652.51,-20"/>
<text xml:space="preserve" text-anchor="middle" x="631.01" y="-6.5" font-family="Helvetica,sans-Serif" font-size="10.00">cmath</text>
</a>
</g>
</g>
<!-- Node7&#45;&gt;Node8 -->
<g id="edge9" class="edge">
<title>Node7&#45;&gt;Node8</title>
<path fill="none" stroke="#63b8ff" d="M631.01,-55.59C631.01,-49.01 631.01,-39.96 631.01,-31.73"/>
<polygon fill="#63b8ff" stroke="#63b8ff" points="634.51,-31.81 631.01,-21.81 627.51,-31.81 634.51,-31.81"/>
</g>
<!-- Node10 -->
<g id="node10" class="node">
<title>Node10</title>
<g id="a_node10"><a xlink:title=" ">
<polygon fill="#e0e0e0" stroke="#999999" points="798.01,-132 740.01,-132 740.01,-112 798.01,-112 798.01,-132"/>
<text xml:space="preserve" text-anchor="middle" x="769.01" y="-118.5" font-family="Helvetica,sans-Serif" font-size="10.00">exception</text>
</a>
</g>
</g>
<!-- Node9&#45;&gt;Node10 -->
<g id="edge11" class="edge">
<title>Node9&#45;&gt;Node10</title>
<path fill="none" stroke="#63b8ff" d="M743.41,-167.59C747.46,-160.55 753.13,-150.67 758.1,-142"/>
<polygon fill="#63b8ff" stroke="#63b8ff" points="760.98,-144.03 762.92,-133.61 754.91,-140.54 760.98,-144.03"/>
</g>
<!-- Node11 -->
<g id="node11" class="node">
<title>Node11</title>
<g id="a_node11"><a xlink:title=" ">
<polygon fill="#e0e0e0" stroke="#999999" points="861.64,-132 816.39,-132 816.39,-112 861.64,-112 861.64,-132"/>
<text xml:space="preserve" text-anchor="middle" x="839.01" y="-118.5" font-family="Helvetica,sans-Serif" font-size="10.00">cstring</text>
</a>
</g>
</g>
<!-- Node9&#45;&gt;Node11 -->
<g id="edge12" class="edge">
<title>Node9&#45;&gt;Node11</title>
<path fill="none" stroke="#63b8ff" d="M755.61,-167.59C770.94,-159.4 793.43,-147.37 811.2,-137.87"/>
<polygon fill="#63b8ff" stroke="#63b8ff" points="812.78,-140.99 819.95,-133.19 809.48,-134.82 812.78,-140.99"/>
</g>
<!-- Node12 -->
<g id="node12" class="node">
<title>Node12</title>
<g id="a_node12"><a xlink:title=" ">
<polygon fill="#e0e0e0" stroke="#999999" points="722.39,-132 663.64,-132 663.64,-112 722.39,-112 722.39,-132"/>
<text xml:space="preserve" text-anchor="middle" x="693.01" y="-118.5" font-family="Helvetica,sans-Serif" font-size="10.00">stdexcept</text>
</a>
</g>
</g>
<!-- Node9&#45;&gt;Node12 -->
<g id="edge13" class="edge">
<title>Node9&#45;&gt;Node12</title>
<path fill="none" stroke="#63b8ff" d="M730.17,-167.59C724.04,-160.24 715.34,-149.8 707.9,-140.87"/>
<polygon fill="#63b8ff" stroke="#63b8ff" points="710.82,-138.9 701.73,-133.46 705.44,-143.38 710.82,-138.9"/>
</g>
<!-- Node13&#45;&gt;Node4 -->
<g id="edge16" class="edge">
<title>Node13&#45;&gt;Node4</title>
<path fill="none" stroke="#63b8ff" d="M377.49,-174.89C327.87,-170.15 217.98,-157.04 191.01,-132 178.75,-120.62 174.25,-101.8 172.67,-87.34"/>
<polygon fill="#63b8ff" stroke="#63b8ff" points="176.18,-87.29 172.02,-77.55 169.19,-87.76 176.18,-87.29"/>
</g>
<!-- Node13&#45;&gt;Node6 -->
<g id="edge28" class="edge">
<title>Node13&#45;&gt;Node6</title>
<path fill="none" stroke="#63b8ff" d="M408.46,-167.59C418.16,-153.96 437.66,-128.55 459.01,-112 475.44,-99.26 496.04,-88.57 513.28,-80.81"/>
<polygon fill="#63b8ff" stroke="#63b8ff" points="514.35,-84.16 522.13,-76.97 511.56,-77.74 514.35,-84.16"/>
</g>
<!-- Node14 -->
<g id="node14" class="node">
<title>Node14</title>
<g id="a_node14"><a xlink:title=" ">
<polygon fill="#e0e0e0" stroke="#999999" points="373.76,-132 302.26,-132 302.26,-112 373.76,-112 373.76,-132"/>
<text xml:space="preserve" text-anchor="middle" x="338.01" y="-118.5" font-family="Helvetica,sans-Serif" font-size="10.00">robin_hood.h</text>
</a>
</g>
</g>
<!-- Node13&#45;&gt;Node14 -->
<g id="edge15" class="edge">
<title>Node13&#45;&gt;Node14</title>
<path fill="none" stroke="#63b8ff" d="M390.86,-167.59C381.69,-159.85 368.46,-148.69 357.53,-139.47"/>
<polygon fill="#63b8ff" stroke="#63b8ff" points="360.09,-137.05 350.19,-133.27 355.58,-142.4 360.09,-137.05"/>
</g>
<!-- Node13&#45;&gt;Node15 -->
<g id="edge17" class="edge">
<title>Node13&#45;&gt;Node15</title>
<path fill="none" stroke="#63b8ff" d="M377.5,-169.6C346.22,-160.17 291.97,-143.8 256.8,-133.19"/>
<polygon fill="#63b8ff" stroke="#63b8ff" points="258.13,-129.94 247.55,-130.4 256.11,-136.64 258.13,-129.94"/>
</g>
<!-- Node13&#45;&gt;Node16 -->
<g id="edge22" class="edge">
<title>Node13&#45;&gt;Node16</title>
<path fill="none" stroke="#63b8ff" d="M401.86,-167.73C401.14,-153.82 397.75,-127.51 383.01,-112 358.17,-85.85 317.33,-74.89 288.26,-70.3"/>
<polygon fill="#63b8ff" stroke="#63b8ff" points="288.87,-66.85 278.49,-68.95 287.91,-73.79 288.87,-66.85"/>
</g>
<!-- Node18 -->
<g id="node18" class="node">
<title>Node18</title>
<g id="a_node18"><a xlink:href="a00281.html" target="_top" xlink:title="Contains definitions for the Path structure.">
<polygon fill="white" stroke="#666666" points="569.51,-132 526.51,-132 526.51,-112 569.51,-112 569.51,-132"/>
<text xml:space="preserve" text-anchor="middle" x="548.01" y="-118.5" font-family="Helvetica,sans-Serif" font-size="10.00">path.h</text>
</a>
</g>
</g>
<!-- Node13&#45;&gt;Node18 -->
<g id="edge23" class="edge">
<title>Node13&#45;&gt;Node18</title>
<path fill="none" stroke="#63b8ff" d="M426.45,-167.96C450.99,-158.88 488.94,-144.85 515.9,-134.88"/>
<polygon fill="#63b8ff" stroke="#63b8ff" points="516.77,-138.29 524.94,-131.53 514.34,-131.72 516.77,-138.29"/>
</g>
<!-- Node19 -->
<g id="node19" class="node">
<title>Node19</title>
<g id="a_node19"><a xlink:title=" ">
<polygon fill="#e0e0e0" stroke="#999999" points="508.39,-132 467.64,-132 467.64,-112 508.39,-112 508.39,-132"/>
<text xml:space="preserve" text-anchor="middle" x="488.01" y="-118.5" font-family="Helvetica,sans-Serif" font-size="10.00">Eigen</text>
</a>
</g>
</g>
<!-- Node13&#45;&gt;Node19 -->
<g id="edge27" class="edge">
<title>Node13&#45;&gt;Node19</title>
<path fill="none" stroke="#63b8ff" d="M416.99,-167.59C429.74,-159.59 448.31,-147.93 463.26,-138.54"/>
<polygon fill="#63b8ff" stroke="#63b8ff" points="465.03,-141.57 471.63,-133.28 461.3,-135.64 465.03,-141.57"/>
</g>
<!-- Node15&#45;&gt;Node4 -->
<g id="edge21" class="edge">
<title>Node15&#45;&gt;Node4</title>
<path fill="none" stroke="#63b8ff" d="M214.13,-111.59C207.11,-104.16 197.11,-93.58 188.62,-84.58"/>
<polygon fill="#63b8ff" stroke="#63b8ff" points="191.24,-82.27 181.83,-77.4 186.16,-87.07 191.24,-82.27"/>
</g>
<!-- Node15&#45;&gt;Node16 -->
<g id="edge18" class="edge">
<title>Node15&#45;&gt;Node16</title>
<path fill="none" stroke="#63b8ff" d="M228.41,-111.59C232.46,-104.55 238.13,-94.67 243.1,-86"/>
<polygon fill="#63b8ff" stroke="#63b8ff" points="245.98,-88.03 247.92,-77.61 239.91,-84.54 245.98,-88.03"/>
</g>
<!-- Node16&#45;&gt;Node5 -->
<g id="edge19" class="edge">
<title>Node16&#45;&gt;Node5</title>
<path fill="none" stroke="#63b8ff" d="M231.12,-58.59C196.28,-48.85 129.93,-30.28 91.19,-19.44"/>
<polygon fill="#63b8ff" stroke="#63b8ff" points="92.15,-16.08 81.58,-16.75 90.27,-22.82 92.15,-16.08"/>
</g>
<!-- Node17 -->
<g id="node17" class="node">
<title>Node17</title>
<g id="a_node17"><a xlink:title=" ">
<polygon fill="#e0e0e0" stroke="#999999" points="279.64,-20 228.39,-20 228.39,0 279.64,0 279.64,-20"/>
<text xml:space="preserve" text-anchor="middle" x="254.01" y="-6.5" font-family="Helvetica,sans-Serif" font-size="10.00">ostream</text>
</a>
</g>
</g>
<!-- Node16&#45;&gt;Node17 -->
<g id="edge20" class="edge">
<title>Node16&#45;&gt;Node17</title>
<path fill="none" stroke="#63b8ff" d="M254.01,-55.59C254.01,-49.01 254.01,-39.96 254.01,-31.73"/>
<polygon fill="#63b8ff" stroke="#63b8ff" points="257.51,-31.81 254.01,-21.81 250.51,-31.81 257.51,-31.81"/>
</g>
<!-- Node18&#45;&gt;Node4 -->
<g id="edge24" class="edge">
<title>Node18&#45;&gt;Node4</title>
<path fill="none" stroke="#63b8ff" d="M526.11,-114.17C523.07,-113.36 519.98,-112.61 517.01,-112 387.61,-85.5 352.62,-95.71 222.01,-76 216.52,-75.17 210.71,-74.21 205.07,-73.22"/>
<polygon fill="#63b8ff" stroke="#63b8ff" points="205.82,-69.8 195.36,-71.48 204.59,-76.69 205.82,-69.8"/>
</g>
<!-- Node18&#45;&gt;Node6 -->
<g id="edge25" class="edge">
<title>Node18&#45;&gt;Node6</title>
<path fill="none" stroke="#63b8ff" d="M548.01,-111.59C548.01,-105.01 548.01,-95.96 548.01,-87.73"/>
<polygon fill="#63b8ff" stroke="#63b8ff" points="551.51,-87.81 548.01,-77.81 544.51,-87.81 551.51,-87.81"/>
</g>
<!-- Node18&#45;&gt;Node7 -->
<g id="edge26" class="edge">
<title>Node18&#45;&gt;Node7</title>
<path fill="none" stroke="#63b8ff" d="M562.47,-111.59C574.77,-103.59 592.69,-91.93 607.12,-82.54"/>
<polygon fill="#63b8ff" stroke="#63b8ff" points="608.7,-85.69 615.17,-77.3 604.88,-79.82 608.7,-85.69"/>
</g>
</g>
</svg>
