<?xml version="1.0" encoding="UTF-8" standalone="no"?>
<!DOCTYPE svg PUBLIC "-//W3C//DTD SVG 1.1//EN"
 "http://www.w3.org/Graphics/SVG/1.1/DTD/svg11.dtd">
<!-- Generated by graphviz version 13.1.2 (20250808.2320)
 -->
<!-- Title: Cpp/raytracer/src/nanort_raytracer.cpp Pages: 1 -->
<svg width="816pt" height="208pt"
 viewBox="0.00 0.00 816.00 208.00" xmlns="http://www.w3.org/2000/svg" xmlns:xlink="http://www.w3.org/1999/xlink">
<g id="graph0" class="graph" transform="scale(1 1) rotate(0) translate(4 204)">
<title>Cpp/raytracer/src/nanort_raytracer.cpp</title>
<!-- Node1 -->
<g id="node1" class="node">
<title>Node1</title>
<g id="a_node1"><a xlink:title=" ">
<polygon fill="#999999" stroke="#666666" points="676,-200 554.25,-200 554.25,-168 676,-168 676,-200"/>
<text xml:space="preserve" text-anchor="start" x="562.25" y="-186.5" font-family="Helvetica,sans-Serif" font-size="10.00">Cpp/raytracer/src/nanort</text>
<text xml:space="preserve" text-anchor="middle" x="615.12" y="-174.5" font-family="Helvetica,sans-Serif" font-size="10.00">_raytracer.cpp</text>
</a>
</g>
</g>
<!-- Node2 -->
<g id="node2" class="node">
<title>Node2</title>
<g id="a_node2"><a xlink:href="a00239.html" target="_top" xlink:title=" ">
<polygon fill="white" stroke="#666666" points="557,-132 495.25,-132 495.25,-112 557,-112 557,-132"/>
<text xml:space="preserve" text-anchor="middle" x="526.12" y="-118.5" font-family="Helvetica,sans-Serif" font-size="10.00">ray_data.h</text>
</a>
</g>
</g>
<!-- Node1&#45;&gt;Node2 -->
<g id="edge1" class="edge">
<title>Node1&#45;&gt;Node2</title>
<path fill="none" stroke="#63b8ff" d="M592.21,-167.55C579.07,-158.69 562.63,-147.61 549.43,-138.71"/>
<polygon fill="#63b8ff" stroke="#63b8ff" points="551.58,-135.94 541.34,-133.25 547.67,-141.75 551.58,-135.94"/>
</g>
<!-- Node3 -->
<g id="node3" class="node">
<title>Node3</title>
<g id="a_node3"><a xlink:href="a00227.html" target="_top" xlink:title=" ">
<polygon fill="white" stroke="#666666" points="431.75,-76 380.5,-76 380.5,-56 431.75,-56 431.75,-76"/>
<text xml:space="preserve" text-anchor="middle" x="406.12" y="-62.5" font-family="Helvetica,sans-Serif" font-size="10.00">nanort.h</text>
</a>
</g>
</g>
<!-- Node1&#45;&gt;Node3 -->
<g id="edge21" class="edge">
<title>Node1&#45;&gt;Node3</title>
<path fill="none" stroke="#63b8ff" d="M566.01,-167.58C541.22,-158.81 511.17,-146.66 486.12,-132 462.88,-118.4 439.33,-98.33 423.85,-84.1"/>
<polygon fill="#63b8ff" stroke="#63b8ff" points="426.53,-81.81 416.84,-77.52 421.74,-86.91 426.53,-81.81"/>
</g>
<!-- Node15 -->
<g id="node15" class="node">
<title>Node15</title>
<g id="a_node15"><a xlink:title=" ">
<polygon fill="#e0e0e0" stroke="#999999" points="751.62,-20 708.62,-20 708.62,0 751.62,0 751.62,-20"/>
<text xml:space="preserve" text-anchor="middle" x="730.12" y="-6.5" font-family="Helvetica,sans-Serif" font-size="10.00">vector</text>
</a>
</g>
</g>
<!-- Node1&#45;&gt;Node15 -->
<g id="edge24" class="edge">
<title>Node1&#45;&gt;Node15</title>
<path fill="none" stroke="#63b8ff" d="M643.5,-167.51C657.75,-158.61 674.43,-146.35 686.12,-132 710.53,-102.06 722.04,-57.41 726.94,-31.55"/>
<polygon fill="#63b8ff" stroke="#63b8ff" points="730.38,-32.15 728.63,-21.7 723.49,-30.96 730.38,-32.15"/>
</g>
<!-- Node17 -->
<g id="node17" class="node">
<title>Node17</title>
<g id="a_node17"><a xlink:title=" ">
<polygon fill="#e0e0e0" stroke="#999999" points="583.88,-76 530.38,-76 530.38,-56 583.88,-56 583.88,-76"/>
<text xml:space="preserve" text-anchor="middle" x="557.12" y="-62.5" font-family="Helvetica,sans-Serif" font-size="10.00">iostream</text>
</a>
</g>
</g>
<!-- Node1&#45;&gt;Node17 -->
<g id="edge22" class="edge">
<title>Node1&#45;&gt;Node17</title>
<path fill="none" stroke="#63b8ff" d="M607.54,-167.84C597.14,-147.03 578.43,-109.61 566.96,-86.67"/>
<polygon fill="#63b8ff" stroke="#63b8ff" points="570.12,-85.17 562.52,-77.79 563.86,-88.3 570.12,-85.17"/>
</g>
<!-- Node19 -->
<g id="node19" class="node">
<title>Node19</title>
<g id="a_node19"><a xlink:href="a00185.html" target="_top" xlink:title="Contains definitions for the MeshInfo class.">
<polygon fill="white" stroke="#666666" points="677.12,-132 613.12,-132 613.12,-112 677.12,-112 677.12,-132"/>
<text xml:space="preserve" text-anchor="middle" x="645.12" y="-118.5" font-family="Helvetica,sans-Serif" font-size="10.00">meshinfo.h</text>
</a>
</g>
</g>
<!-- Node1&#45;&gt;Node19 -->
<g id="edge18" class="edge">
<title>Node1&#45;&gt;Node19</title>
<path fill="none" stroke="#63b8ff" d="M622.85,-167.55C626.67,-159.91 631.32,-150.61 635.38,-142.49"/>
<polygon fill="#63b8ff" stroke="#63b8ff" points="638.4,-144.27 639.74,-133.76 632.14,-141.14 638.4,-144.27"/>
</g>
<!-- Node21 -->
<g id="node21" class="node">
<title>Node21</title>
<g id="a_node21"><a xlink:title=" ">
<polygon fill="#e0e0e0" stroke="#999999" points="807.62,-132 758.62,-132 758.62,-112 807.62,-112 807.62,-132"/>
<text xml:space="preserve" text-anchor="middle" x="783.12" y="-118.5" font-family="Helvetica,sans-Serif" font-size="10.00">fstream</text>
</a>
</g>
</g>
<!-- Node1&#45;&gt;Node21 -->
<g id="edge23" class="edge">
<title>Node1&#45;&gt;Node21</title>
<path fill="none" stroke="#63b8ff" d="M658.39,-167.55C686.12,-157.64 721.67,-144.95 747.72,-135.65"/>
<polygon fill="#63b8ff" stroke="#63b8ff" points="748.58,-139.05 756.82,-132.39 746.23,-132.46 748.58,-139.05"/>
</g>
<!-- Node2&#45;&gt;Node3 -->
<g id="edge2" class="edge">
<title>Node2&#45;&gt;Node3</title>
<path fill="none" stroke="#63b8ff" d="M505.22,-111.59C486.5,-103.17 458.77,-90.69 437.4,-81.07"/>
<polygon fill="#63b8ff" stroke="#63b8ff" points="439.13,-78.01 428.57,-77.1 436.25,-84.4 439.13,-78.01"/>
</g>
<!-- Node16 -->
<g id="node16" class="node">
<title>Node16</title>
<g id="a_node16"><a xlink:href="a00218.html" target="_top" xlink:title=" ">
<polygon fill="white" stroke="#666666" points="512.75,-76 449.5,-76 449.5,-56 512.75,-56 512.75,-76"/>
<text xml:space="preserve" text-anchor="middle" x="481.12" y="-62.5" font-family="Helvetica,sans-Serif" font-size="10.00">HitStruct.h</text>
</a>
</g>
</g>
<!-- Node2&#45;&gt;Node16 -->
<g id="edge15" class="edge">
<title>Node2&#45;&gt;Node16</title>
<path fill="none" stroke="#63b8ff" d="M518.29,-111.59C512.16,-104.24 503.45,-93.8 496.01,-84.87"/>
<polygon fill="#63b8ff" stroke="#63b8ff" points="498.93,-82.9 489.84,-77.46 493.56,-87.38 498.93,-82.9"/>
</g>
<!-- Node2&#45;&gt;Node17 -->
<g id="edge16" class="edge">
<title>Node2&#45;&gt;Node17</title>
<path fill="none" stroke="#63b8ff" d="M531.52,-111.59C535.57,-104.55 541.24,-94.67 546.22,-86"/>
<polygon fill="#63b8ff" stroke="#63b8ff" points="549.09,-88.03 551.03,-77.61 543.02,-84.54 549.09,-88.03"/>
</g>
<!-- Node18 -->
<g id="node18" class="node">
<title>Node18</title>
<g id="a_node18"><a xlink:title=" ">
<polygon fill="#e0e0e0" stroke="#999999" points="640,-76 602.25,-76 602.25,-56 640,-56 640,-76"/>
<text xml:space="preserve" text-anchor="middle" x="621.12" y="-62.5" font-family="Helvetica,sans-Serif" font-size="10.00">array</text>
</a>
</g>
</g>
<!-- Node2&#45;&gt;Node18 -->
<g id="edge17" class="edge">
<title>Node2&#45;&gt;Node18</title>
<path fill="none" stroke="#63b8ff" d="M542.67,-111.59C557.02,-103.44 578.05,-91.48 594.73,-82"/>
<polygon fill="#63b8ff" stroke="#63b8ff" points="596.17,-85.21 603.13,-77.23 592.71,-79.13 596.17,-85.21"/>
</g>
<!-- Node4 -->
<g id="node4" class="node">
<title>Node4</title>
<g id="a_node4"><a xlink:title=" ">
<polygon fill="#e0e0e0" stroke="#999999" points="563,-20 507.25,-20 507.25,0 563,0 563,-20"/>
<text xml:space="preserve" text-anchor="middle" x="535.12" y="-6.5" font-family="Helvetica,sans-Serif" font-size="10.00">algorithm</text>
</a>
</g>
</g>
<!-- Node3&#45;&gt;Node4 -->
<g id="edge3" class="edge">
<title>Node3&#45;&gt;Node4</title>
<path fill="none" stroke="#63b8ff" d="M428.6,-55.59C448.91,-47.09 479.08,-34.46 502.13,-24.81"/>
<polygon fill="#63b8ff" stroke="#63b8ff" points="503.21,-28.15 511.08,-21.06 500.51,-21.7 503.21,-28.15"/>
</g>
<!-- Node5 -->
<g id="node5" class="node">
<title>Node5</title>
<g id="a_node5"><a xlink:title=" ">
<polygon fill="#e0e0e0" stroke="#999999" points="629.25,-20 581,-20 581,0 629.25,0 629.25,-20"/>
<text xml:space="preserve" text-anchor="middle" x="605.12" y="-6.5" font-family="Helvetica,sans-Serif" font-size="10.00">cassert</text>
</a>
</g>
</g>
<!-- Node3&#45;&gt;Node5 -->
<g id="edge4" class="edge">
<title>Node3&#45;&gt;Node5</title>
<path fill="none" stroke="#63b8ff" d="M432.01,-58C462.63,-49.71 515.43,-35.41 569.74,-20.65"/>
<polygon fill="#63b8ff" stroke="#63b8ff" points="570.43,-24.09 579.16,-18.09 568.59,-17.33 570.43,-24.09"/>
</g>
<!-- Node6 -->
<g id="node6" class="node">
<title>Node6</title>
<g id="a_node6"><a xlink:title=" ">
<polygon fill="#e0e0e0" stroke="#999999" points="690.62,-20 647.62,-20 647.62,0 690.62,0 690.62,-20"/>
<text xml:space="preserve" text-anchor="middle" x="669.12" y="-6.5" font-family="Helvetica,sans-Serif" font-size="10.00">cmath</text>
</a>
</g>
</g>
<!-- Node3&#45;&gt;Node6 -->
<g id="edge5" class="edge">
<title>Node3&#45;&gt;Node6</title>
<path fill="none" stroke="#63b8ff" d="M432.06,-57.91C434.78,-57.23 437.5,-56.58 440.12,-56 523.93,-37.32 549.07,-40.22 635.98,-20.29"/>
<polygon fill="#63b8ff" stroke="#63b8ff" points="636.77,-23.7 645.71,-18.02 635.18,-16.88 636.77,-23.7"/>
</g>
<!-- Node7 -->
<g id="node7" class="node">
<title>Node7</title>
<g id="a_node7"><a xlink:title=" ">
<polygon fill="#e0e0e0" stroke="#999999" points="42.25,-20 0,-20 0,0 42.25,0 42.25,-20"/>
<text xml:space="preserve" text-anchor="middle" x="21.12" y="-6.5" font-family="Helvetica,sans-Serif" font-size="10.00">cstdio</text>
</a>
</g>
</g>
<!-- Node3&#45;&gt;Node7 -->
<g id="edge6" class="edge">
<title>Node3&#45;&gt;Node7</title>
<path fill="none" stroke="#63b8ff" d="M380.04,-63.18C322.65,-58.86 181.01,-46.48 53.73,-20.25"/>
<polygon fill="#63b8ff" stroke="#63b8ff" points="54.63,-16.86 44.13,-18.23 53.19,-23.71 54.63,-16.86"/>
</g>
<!-- Node8 -->
<g id="node8" class="node">
<title>Node8</title>
<g id="a_node8"><a xlink:title=" ">
<polygon fill="#e0e0e0" stroke="#999999" points="104.38,-20 59.88,-20 59.88,0 104.38,0 104.38,-20"/>
<text xml:space="preserve" text-anchor="middle" x="82.12" y="-6.5" font-family="Helvetica,sans-Serif" font-size="10.00">cstdlib</text>
</a>
</g>
</g>
<!-- Node3&#45;&gt;Node8 -->
<g id="edge7" class="edge">
<title>Node3&#45;&gt;Node8</title>
<path fill="none" stroke="#63b8ff" d="M380.05,-62.15C330.42,-56.48 218.83,-42.57 115.93,-20.39"/>
<polygon fill="#63b8ff" stroke="#63b8ff" points="116.72,-16.98 106.2,-18.25 115.22,-23.81 116.72,-16.98"/>
</g>
<!-- Node9 -->
<g id="node9" class="node">
<title>Node9</title>
<g id="a_node9"><a xlink:title=" ">
<polygon fill="#e0e0e0" stroke="#999999" points="167.75,-20 122.5,-20 122.5,0 167.75,0 167.75,-20"/>
<text xml:space="preserve" text-anchor="middle" x="145.12" y="-6.5" font-family="Helvetica,sans-Serif" font-size="10.00">cstring</text>
</a>
</g>
</g>
<!-- Node3&#45;&gt;Node9 -->
<g id="edge8" class="edge">
<title>Node3&#45;&gt;Node9</title>
<path fill="none" stroke="#63b8ff" d="M380.22,-60.61C339.54,-53.56 258,-38.84 179.23,-20.34"/>
<polygon fill="#63b8ff" stroke="#63b8ff" points="180.15,-16.97 169.61,-18.06 178.53,-23.78 180.15,-16.97"/>
</g>
<!-- Node10 -->
<g id="node10" class="node">
<title>Node10</title>
<g id="a_node10"><a xlink:title=" ">
<polygon fill="#e0e0e0" stroke="#999999" points="244.12,-20 186.12,-20 186.12,0 244.12,0 244.12,-20"/>
<text xml:space="preserve" text-anchor="middle" x="215.12" y="-6.5" font-family="Helvetica,sans-Serif" font-size="10.00">functional</text>
</a>
</g>
</g>
<!-- Node3&#45;&gt;Node10 -->
<g id="edge9" class="edge">
<title>Node3&#45;&gt;Node10</title>
<path fill="none" stroke="#63b8ff" d="M380.37,-57.72C348.21,-48.63 292.85,-32.97 255.15,-22.32"/>
<polygon fill="#63b8ff" stroke="#63b8ff" points="256.57,-19.08 246,-19.73 254.67,-25.82 256.57,-19.08"/>
</g>
<!-- Node11 -->
<g id="node11" class="node">
<title>Node11</title>
<g id="a_node11"><a xlink:title=" ">
<polygon fill="#e0e0e0" stroke="#999999" points="301.75,-20 262.5,-20 262.5,0 301.75,0 301.75,-20"/>
<text xml:space="preserve" text-anchor="middle" x="282.12" y="-6.5" font-family="Helvetica,sans-Serif" font-size="10.00">limits</text>
</a>
</g>
</g>
<!-- Node3&#45;&gt;Node11 -->
<g id="edge10" class="edge">
<title>Node3&#45;&gt;Node11</title>
<path fill="none" stroke="#63b8ff" d="M384.53,-55.59C364.61,-46.92 334.84,-33.96 312.53,-24.24"/>
<polygon fill="#63b8ff" stroke="#63b8ff" points="314.2,-21.15 303.63,-20.37 311.4,-27.57 314.2,-21.15"/>
</g>
<!-- Node12 -->
<g id="node12" class="node">
<title>Node12</title>
<g id="a_node12"><a xlink:title=" ">
<polygon fill="#e0e0e0" stroke="#999999" points="370.75,-20 319.5,-20 319.5,0 370.75,0 370.75,-20"/>
<text xml:space="preserve" text-anchor="middle" x="345.12" y="-6.5" font-family="Helvetica,sans-Serif" font-size="10.00">memory</text>
</a>
</g>
</g>
<!-- Node3&#45;&gt;Node12 -->
<g id="edge11" class="edge">
<title>Node3&#45;&gt;Node12</title>
<path fill="none" stroke="#63b8ff" d="M395.5,-55.59C386.84,-47.93 374.39,-36.91 364.04,-27.75"/>
<polygon fill="#63b8ff" stroke="#63b8ff" points="366.57,-25.31 356.76,-21.3 361.93,-30.55 366.57,-25.31"/>
</g>
<!-- Node13 -->
<g id="node13" class="node">
<title>Node13</title>
<g id="a_node13"><a xlink:title=" ">
<polygon fill="#e0e0e0" stroke="#999999" points="431.25,-20 389,-20 389,0 431.25,0 431.25,-20"/>
<text xml:space="preserve" text-anchor="middle" x="410.12" y="-6.5" font-family="Helvetica,sans-Serif" font-size="10.00">queue</text>
</a>
</g>
</g>
<!-- Node3&#45;&gt;Node13 -->
<g id="edge12" class="edge">
<title>Node3&#45;&gt;Node13</title>
<path fill="none" stroke="#63b8ff" d="M406.82,-55.59C407.31,-49.01 407.98,-39.96 408.59,-31.73"/>
<polygon fill="#63b8ff" stroke="#63b8ff" points="412.08,-32.04 409.32,-21.81 405.1,-31.52 412.08,-32.04"/>
</g>
<!-- Node14 -->
<g id="node14" class="node">
<title>Node14</title>
<g id="a_node14"><a xlink:title=" ">
<polygon fill="#e0e0e0" stroke="#999999" points="489.12,-20 449.12,-20 449.12,0 489.12,0 489.12,-20"/>
<text xml:space="preserve" text-anchor="middle" x="469.12" y="-6.5" font-family="Helvetica,sans-Serif" font-size="10.00">string</text>
</a>
</g>
</g>
<!-- Node3&#45;&gt;Node14 -->
<g id="edge13" class="edge">
<title>Node3&#45;&gt;Node14</title>
<path fill="none" stroke="#63b8ff" d="M417.1,-55.59C426.04,-47.93 438.9,-36.91 449.59,-27.75"/>
<polygon fill="#63b8ff" stroke="#63b8ff" points="451.81,-30.45 457.13,-21.28 447.26,-25.13 451.81,-30.45"/>
</g>
<!-- Node3&#45;&gt;Node15 -->
<g id="edge14" class="edge">
<title>Node3&#45;&gt;Node15</title>
<path fill="none" stroke="#63b8ff" d="M432.04,-57.79C434.76,-57.14 437.49,-56.53 440.12,-56 550.93,-33.75 584.08,-44.13 697.08,-20.39"/>
<polygon fill="#63b8ff" stroke="#63b8ff" points="697.75,-23.82 706.79,-18.3 696.28,-16.98 697.75,-23.82"/>
</g>
<!-- Node19&#45;&gt;Node18 -->
<g id="edge20" class="edge">
<title>Node19&#45;&gt;Node18</title>
<path fill="none" stroke="#63b8ff" d="M640.94,-111.59C637.88,-104.7 633.61,-95.1 629.82,-86.57"/>
<polygon fill="#63b8ff" stroke="#63b8ff" points="633.13,-85.4 625.87,-77.68 626.74,-88.24 633.13,-85.4"/>
</g>
<!-- Node20 -->
<g id="node20" class="node">
<title>Node20</title>
<g id="a_node20"><a xlink:title=" ">
<polygon fill="#e0e0e0" stroke="#999999" points="702.38,-76 657.88,-76 657.88,-56 702.38,-56 702.38,-76"/>
<text xml:space="preserve" text-anchor="middle" x="680.12" y="-62.5" font-family="Helvetica,sans-Serif" font-size="10.00">Dense</text>
</a>
</g>
</g>
<!-- Node19&#45;&gt;Node20 -->
<g id="edge19" class="edge">
<title>Node19&#45;&gt;Node20</title>
<path fill="none" stroke="#63b8ff" d="M651.22,-111.59C655.84,-104.47 662.33,-94.45 667.99,-85.72"/>
<polygon fill="#63b8ff" stroke="#63b8ff" points="670.77,-87.86 673.28,-77.57 664.9,-84.06 670.77,-87.86"/>
</g>
</g>
</svg>
