<?xml version="1.0" encoding="UTF-8" standalone="no"?>
<!DOCTYPE svg PUBLIC "-//W3C//DTD SVG 1.1//EN"
 "http://www.w3.org/Graphics/SVG/1.1/DTD/svg11.dtd">
<!-- Generated by graphviz version 13.1.2 (20250808.2320)
 -->
<!-- Title: Cpp/raytracer/src/RayRequest.h Pages: 1 -->
<svg width="166pt" height="84pt"
 viewBox="0.00 0.00 166.00 84.00" xmlns="http://www.w3.org/2000/svg" xmlns:xlink="http://www.w3.org/1999/xlink">
<g id="graph0" class="graph" transform="scale(1 1) rotate(0) translate(4 80)">
<title>Cpp/raytracer/src/RayRequest.h</title>
<!-- Node1 -->
<g id="node1" class="node">
<title>Node1</title>
<g id="a_node1"><a xlink:title="Contains definitions for the RayTracer namespace.">
<polygon fill="#999999" stroke="#666666" points="157.75,-76 0,-76 0,-56 157.75,-56 157.75,-76"/>
<text xml:space="preserve" text-anchor="middle" x="78.88" y="-62.5" font-family="Helvetica,sans-Serif" font-size="10.00">Cpp/raytracer/src/RayRequest.h</text>
</a>
</g>
</g>
<!-- Node2 -->
<g id="node2" class="node">
<title>Node2</title>
<g id="a_node2"><a xlink:title=" ">
<polygon fill="#e0e0e0" stroke="#999999" points="71.38,-20 28.38,-20 28.38,0 71.38,0 71.38,-20"/>
<text xml:space="preserve" text-anchor="middle" x="49.88" y="-6.5" font-family="Helvetica,sans-Serif" font-size="10.00">vector</text>
</a>
</g>
</g>
<!-- Node1&#45;&gt;Node2 -->
<g id="edge1" class="edge">
<title>Node1&#45;&gt;Node2</title>
<path fill="none" stroke="#63b8ff" d="M73.82,-55.59C70.08,-48.63 64.85,-38.89 60.23,-30.29"/>
<polygon fill="#63b8ff" stroke="#63b8ff" points="63.4,-28.79 55.58,-21.63 57.23,-32.1 63.4,-28.79"/>
</g>
<!-- Node3 -->
<g id="node3" class="node">
<title>Node3</title>
<g id="a_node3"><a xlink:title=" ">
<polygon fill="#e0e0e0" stroke="#999999" points="126.75,-20 89,-20 89,0 126.75,0 126.75,-20"/>
<text xml:space="preserve" text-anchor="middle" x="107.88" y="-6.5" font-family="Helvetica,sans-Serif" font-size="10.00">array</text>
</a>
</g>
</g>
<!-- Node1&#45;&gt;Node3 -->
<g id="edge2" class="edge">
<title>Node1&#45;&gt;Node3</title>
<path fill="none" stroke="#63b8ff" d="M83.93,-55.59C87.67,-48.63 92.9,-38.89 97.52,-30.29"/>
<polygon fill="#63b8ff" stroke="#63b8ff" points="100.52,-32.1 102.17,-21.63 94.35,-28.79 100.52,-32.1"/>
</g>
</g>
</svg>
