<?xml version="1.0" encoding="UTF-8" standalone="no"?>
<!DOCTYPE svg PUBLIC "-//W3C//DTD SVG 1.1//EN"
 "http://www.w3.org/Graphics/SVG/1.1/DTD/svg11.dtd">
<!-- Generated by graphviz version 13.1.2 (20250808.2320)
 -->
<!-- Title: Cpp/raytracer/src/HitStruct.h Pages: 1 -->
<svg width="1550pt" height="232pt"
 viewBox="0.00 0.00 1550.00 232.00" xmlns="http://www.w3.org/2000/svg" xmlns:xlink="http://www.w3.org/1999/xlink">
<g id="graph0" class="graph" transform="scale(1 1) rotate(0) translate(4 228)">
<title>Cpp/raytracer/src/HitStruct.h</title>
<!-- Node1 -->
<g id="node1" class="node">
<title>Node1</title>
<g id="a_node1"><a xlink:title=" ">
<polygon fill="#999999" stroke="#666666" points="922,-224 780,-224 780,-204 922,-204 922,-224"/>
<text xml:space="preserve" text-anchor="middle" x="851" y="-210.5" font-family="Helvetica,sans-Serif" font-size="10.00">Cpp/raytracer/src/HitStruct.h</text>
</a>
</g>
</g>
<!-- Node2 -->
<g id="node2" class="node">
<title>Node2</title>
<g id="a_node2"><a xlink:href="a00011.html" target="_top" xlink:title=" ">
<polygon fill="white" stroke="#666666" points="630.25,-32 519.75,-32 519.75,0 630.25,0 630.25,-32"/>
<text xml:space="preserve" text-anchor="start" x="527.75" y="-18.5" font-family="Helvetica,sans-Serif" font-size="10.00">Cpp/analysismethods</text>
<text xml:space="preserve" text-anchor="middle" x="575" y="-6.5" font-family="Helvetica,sans-Serif" font-size="10.00">/src/graph_utils.cpp</text>
</a>
</g>
</g>
<!-- Node1&#45;&gt;Node2 -->
<g id="edge1" class="edge">
<title>Node1&#45;&gt;Node2</title>
<path fill="none" stroke="#63b8ff" d="M933.68,-213.87C1103,-213.09 1463.52,-196.79 1343,-68 1294.58,-16.26 799.09,-15.25 630.68,-16.42"/>
<polygon fill="#63b8ff" stroke="#63b8ff" points="933.83,-210.37 923.84,-213.9 933.85,-217.37 933.83,-210.37"/>
</g>
<!-- Node3 -->
<g id="node3" class="node">
<title>Node3</title>
<g id="a_node3"><a xlink:href="a00215.html" target="_top" xlink:title=" ">
<polygon fill="white" stroke="#666666" points="1542.25,-162 1389.75,-162 1389.75,-142 1542.25,-142 1542.25,-162"/>
<text xml:space="preserve" text-anchor="middle" x="1466" y="-148.5" font-family="Helvetica,sans-Serif" font-size="10.00">Cpp/raytracer/src/HitStruct.cpp</text>
</a>
</g>
</g>
<!-- Node1&#45;&gt;Node3 -->
<g id="edge2" class="edge">
<title>Node1&#45;&gt;Node3</title>
<path fill="none" stroke="#63b8ff" d="M933.4,-207.97C1036.96,-201.19 1220.06,-187.65 1376,-168 1388.26,-166.46 1401.4,-164.46 1413.75,-162.43"/>
<polygon fill="#63b8ff" stroke="#63b8ff" points="933.36,-204.47 923.6,-208.61 933.81,-211.46 933.36,-204.47"/>
</g>
<!-- Node4 -->
<g id="node4" class="node">
<title>Node4</title>
<g id="a_node4"><a xlink:href="a00224.html" target="_top" xlink:title=" ">
<polygon fill="white" stroke="#666666" points="278,-162 142,-162 142,-142 278,-142 278,-162"/>
<text xml:space="preserve" text-anchor="middle" x="210" y="-148.5" font-family="Helvetica,sans-Serif" font-size="10.00">Cpp/raytracer/src/MultiRT.h</text>
</a>
</g>
</g>
<!-- Node1&#45;&gt;Node4 -->
<g id="edge3" class="edge">
<title>Node1&#45;&gt;Node4</title>
<path fill="none" stroke="#63b8ff" d="M768.5,-205.58C671.28,-196.79 504.87,-181.62 362,-168 334.68,-165.39 304.6,-162.44 278.47,-159.85"/>
<polygon fill="#63b8ff" stroke="#63b8ff" points="767.94,-209.04 778.21,-206.45 768.57,-202.07 767.94,-209.04"/>
</g>
<!-- Node9 -->
<g id="node9" class="node">
<title>Node9</title>
<g id="a_node9"><a xlink:href="a00212.html" target="_top" xlink:title="Contains definitions for the EmbreeRayTracer">
<polygon fill="white" stroke="#666666" points="914.5,-168 787.5,-168 787.5,-136 914.5,-136 914.5,-168"/>
<text xml:space="preserve" text-anchor="start" x="795.5" y="-154.5" font-family="Helvetica,sans-Serif" font-size="10.00">Cpp/raytracer/src/embree</text>
<text xml:space="preserve" text-anchor="middle" x="851" y="-142.5" font-family="Helvetica,sans-Serif" font-size="10.00">_raytracer.h</text>
</a>
</g>
</g>
<!-- Node1&#45;&gt;Node9 -->
<g id="edge9" class="edge">
<title>Node1&#45;&gt;Node9</title>
<path fill="none" stroke="#63b8ff" d="M851,-192.31C851,-184.37 851,-175.46 851,-168.14"/>
<polygon fill="#63b8ff" stroke="#63b8ff" points="847.5,-192.11 851,-202.11 854.5,-192.11 847.5,-192.11"/>
</g>
<!-- Node16 -->
<g id="node16" class="node">
<title>Node16</title>
<g id="a_node16"><a xlink:href="a00239.html" target="_top" xlink:title=" ">
<polygon fill="white" stroke="#666666" points="479.12,-168 370.88,-168 370.88,-136 479.12,-136 479.12,-168"/>
<text xml:space="preserve" text-anchor="start" x="378.88" y="-154.5" font-family="Helvetica,sans-Serif" font-size="10.00">Cpp/raytracer/src/ray</text>
<text xml:space="preserve" text-anchor="middle" x="425" y="-142.5" font-family="Helvetica,sans-Serif" font-size="10.00">_data.h</text>
</a>
</g>
</g>
<!-- Node1&#45;&gt;Node16 -->
<g id="edge19" class="edge">
<title>Node1&#45;&gt;Node16</title>
<path fill="none" stroke="#63b8ff" d="M772.81,-201.99C687.71,-190 553.87,-171.15 479.47,-160.67"/>
<polygon fill="#63b8ff" stroke="#63b8ff" points="772.08,-205.42 782.47,-203.35 773.06,-198.49 772.08,-205.42"/>
</g>
<!-- Node5 -->
<g id="node5" class="node">
<title>Node5</title>
<g id="a_node5"><a xlink:href="a00008.html" target="_top" xlink:title="Contains declarations for all functions related to the graph generator.">
<polygon fill="white" stroke="#666666" points="118.75,-100 5.25,-100 5.25,-68 118.75,-68 118.75,-100"/>
<text xml:space="preserve" text-anchor="start" x="13.25" y="-86.5" font-family="Helvetica,sans-Serif" font-size="10.00">Cpp/analysismethods</text>
<text xml:space="preserve" text-anchor="middle" x="62" y="-74.5" font-family="Helvetica,sans-Serif" font-size="10.00">/src/graph_generator.h</text>
</a>
</g>
</g>
<!-- Node4&#45;&gt;Node5 -->
<g id="edge4" class="edge">
<title>Node4&#45;&gt;Node5</title>
<path fill="none" stroke="#63b8ff" d="M178.45,-136.93C154.41,-126.21 121.35,-111.47 96.6,-100.43"/>
<polygon fill="#63b8ff" stroke="#63b8ff" points="176.85,-140.05 187.41,-140.93 179.71,-133.66 176.85,-140.05"/>
</g>
<!-- Node8 -->
<g id="node8" class="node">
<title>Node8</title>
<g id="a_node8"><a xlink:href="a00221.html" target="_top" xlink:title=" ">
<polygon fill="white" stroke="#666666" points="283.25,-94 136.75,-94 136.75,-74 283.25,-74 283.25,-94"/>
<text xml:space="preserve" text-anchor="middle" x="210" y="-80.5" font-family="Helvetica,sans-Serif" font-size="10.00">Cpp/raytracer/src/MultiRT.cpp</text>
</a>
</g>
</g>
<!-- Node4&#45;&gt;Node8 -->
<g id="edge8" class="edge">
<title>Node4&#45;&gt;Node8</title>
<path fill="none" stroke="#63b8ff" d="M210,-130.28C210,-118.27 210,-103.74 210,-94.44"/>
<polygon fill="#63b8ff" stroke="#63b8ff" points="206.5,-130.03 210,-140.03 213.5,-130.03 206.5,-130.03"/>
</g>
<!-- Node5&#45;&gt;Node2 -->
<g id="edge7" class="edge">
<title>Node5&#45;&gt;Node2</title>
<path fill="none" stroke="#63b8ff" d="M130.28,-67.77C219.87,-53.54 421.26,-32.53 519.42,-22.57"/>
<polygon fill="#63b8ff" stroke="#63b8ff" points="129.95,-64.28 120.65,-69.36 131.09,-71.19 129.95,-64.28"/>
</g>
<!-- Node6 -->
<g id="node6" class="node">
<title>Node6</title>
<g id="a_node6"><a xlink:href="a00404.html" target="_top" xlink:title=" ">
<polygon fill="white" stroke="#666666" points="415,-32 315,-32 315,0 415,0 415,-32"/>
<text xml:space="preserve" text-anchor="start" x="323" y="-18.5" font-family="Helvetica,sans-Serif" font-size="10.00">Cinterface/analysis</text>
<text xml:space="preserve" text-anchor="middle" x="365" y="-6.5" font-family="Helvetica,sans-Serif" font-size="10.00">_C.cpp</text>
</a>
</g>
</g>
<!-- Node5&#45;&gt;Node6 -->
<g id="edge5" class="edge">
<title>Node5&#45;&gt;Node6</title>
<path fill="none" stroke="#63b8ff" d="M130.37,-67.49C199.79,-52.17 269,-37.36 314.57,-27.68"/>
<polygon fill="#63b8ff" stroke="#63b8ff" points="129.72,-64.05 120.71,-69.62 131.23,-70.88 129.72,-64.05"/>
</g>
<!-- Node7 -->
<g id="node7" class="node">
<title>Node7</title>
<g id="a_node7"><a xlink:href="a00005.html" target="_top" xlink:title="Contains implementation for the functions in the GraphGenerator class.">
<polygon fill="white" stroke="#666666" points="124,-32 0,-32 0,0 124,0 124,-32"/>
<text xml:space="preserve" text-anchor="start" x="8" y="-18.5" font-family="Helvetica,sans-Serif" font-size="10.00">Cpp/analysismethods</text>
<text xml:space="preserve" text-anchor="middle" x="62" y="-6.5" font-family="Helvetica,sans-Serif" font-size="10.00">/src/graph_generator.cpp</text>
</a>
</g>
</g>
<!-- Node5&#45;&gt;Node7 -->
<g id="edge6" class="edge">
<title>Node5&#45;&gt;Node7</title>
<path fill="none" stroke="#63b8ff" d="M62,-56.31C62,-48.12 62,-39.38 62,-32.22"/>
<polygon fill="#63b8ff" stroke="#63b8ff" points="58.5,-56.18 62,-66.18 65.5,-56.18 58.5,-56.18"/>
</g>
<!-- Node9&#45;&gt;Node2 -->
<g id="edge14" class="edge">
<title>Node9&#45;&gt;Node2</title>
<path fill="none" stroke="#63b8ff" d="M890.55,-129.58C916.37,-112.88 942.19,-89.05 924,-68 886.76,-24.92 719.4,-17.52 630.66,-16.69"/>
<polygon fill="#63b8ff" stroke="#63b8ff" points="888.71,-126.6 882.03,-134.83 892.38,-132.56 888.71,-126.6"/>
</g>
<!-- Node9&#45;&gt;Node6 -->
<g id="edge10" class="edge">
<title>Node9&#45;&gt;Node6</title>
<path fill="none" stroke="#63b8ff" d="M775.54,-147.94C704.71,-143.19 596.68,-131.04 508,-100 461.13,-83.59 412.3,-51.46 385.57,-32.34"/>
<polygon fill="#63b8ff" stroke="#63b8ff" points="775.3,-151.44 785.5,-148.58 775.74,-144.45 775.3,-151.44"/>
</g>
<!-- Node9&#45;&gt;Node8 -->
<g id="edge17" class="edge">
<title>Node9&#45;&gt;Node8</title>
<path fill="none" stroke="#63b8ff" d="M775.7,-146.29C668.12,-139.07 464.34,-123.58 292,-100 280.82,-98.47 268.83,-96.48 257.58,-94.45"/>
<polygon fill="#63b8ff" stroke="#63b8ff" points="775.35,-149.77 785.56,-146.95 775.82,-142.79 775.35,-149.77"/>
</g>
<!-- Node10 -->
<g id="node10" class="node">
<title>Node10</title>
<g id="a_node10"><a xlink:href="a00428.html" target="_top" xlink:title=" ">
<polygon fill="white" stroke="#666666" points="1073.12,-100 970.88,-100 970.88,-68 1073.12,-68 1073.12,-100"/>
<text xml:space="preserve" text-anchor="start" x="978.88" y="-86.5" font-family="Helvetica,sans-Serif" font-size="10.00">Cinterface/raytracer</text>
<text xml:space="preserve" text-anchor="middle" x="1022" y="-74.5" font-family="Helvetica,sans-Serif" font-size="10.00">_C.cpp</text>
</a>
</g>
</g>
<!-- Node9&#45;&gt;Node10 -->
<g id="edge11" class="edge">
<title>Node9&#45;&gt;Node10</title>
<path fill="none" stroke="#63b8ff" d="M901.72,-131.42C927.32,-121.54 957.93,-109.73 981.86,-100.49"/>
<polygon fill="#63b8ff" stroke="#63b8ff" points="900.57,-128.11 892.5,-134.98 903.09,-134.65 900.57,-128.11"/>
</g>
<!-- Node11 -->
<g id="node11" class="node">
<title>Node11</title>
<g id="a_node11"><a xlink:href="a00440.html" target="_top" xlink:title=" ">
<polygon fill="white" stroke="#666666" points="1216.75,-100 1091.25,-100 1091.25,-68 1216.75,-68 1216.75,-100"/>
<text xml:space="preserve" text-anchor="start" x="1099.25" y="-86.5" font-family="Helvetica,sans-Serif" font-size="10.00">Cinterface/view_analysis</text>
<text xml:space="preserve" text-anchor="middle" x="1154" y="-74.5" font-family="Helvetica,sans-Serif" font-size="10.00">_C.cpp</text>
</a>
</g>
</g>
<!-- Node9&#45;&gt;Node11 -->
<g id="edge12" class="edge">
<title>Node9&#45;&gt;Node11</title>
<path fill="none" stroke="#63b8ff" d="M926.12,-134.64C976.83,-123.59 1043.01,-109.18 1090.98,-98.73"/>
<polygon fill="#63b8ff" stroke="#63b8ff" points="925.39,-131.21 916.37,-136.76 926.88,-138.05 925.39,-131.21"/>
</g>
<!-- Node12 -->
<g id="node12" class="node">
<title>Node12</title>
<g id="a_node12"><a xlink:href="a00446.html" target="_top" xlink:title=" ">
<polygon fill="white" stroke="#666666" points="1333.62,-100 1234.38,-100 1234.38,-68 1333.62,-68 1333.62,-100"/>
<text xml:space="preserve" text-anchor="start" x="1242.38" y="-86.5" font-family="Helvetica,sans-Serif" font-size="10.00">Cinterface/visibility</text>
<text xml:space="preserve" text-anchor="middle" x="1284" y="-74.5" font-family="Helvetica,sans-Serif" font-size="10.00">_graph_C.cpp</text>
</a>
</g>
</g>
<!-- Node9&#45;&gt;Node12 -->
<g id="edge13" class="edge">
<title>Node9&#45;&gt;Node12</title>
<path fill="none" stroke="#63b8ff" d="M926.09,-143.42C1002.1,-135.14 1122.83,-120.28 1226,-100 1228.65,-99.48 1231.37,-98.91 1234.1,-98.3"/>
<polygon fill="#63b8ff" stroke="#63b8ff" points="925.81,-139.93 916.25,-144.49 926.56,-146.89 925.81,-139.93"/>
</g>
<!-- Node13 -->
<g id="node13" class="node">
<title>Node13</title>
<g id="a_node13"><a xlink:href="a00020.html" target="_top" xlink:title="Contains implementation for the ViewAnalysis namespace.">
<polygon fill="white" stroke="#666666" points="632.88,-100 517.12,-100 517.12,-68 632.88,-68 632.88,-100"/>
<text xml:space="preserve" text-anchor="start" x="525.12" y="-86.5" font-family="Helvetica,sans-Serif" font-size="10.00">Cpp/analysismethods</text>
<text xml:space="preserve" text-anchor="middle" x="575" y="-74.5" font-family="Helvetica,sans-Serif" font-size="10.00">/src/view_analysis.cpp</text>
</a>
</g>
</g>
<!-- Node9&#45;&gt;Node13 -->
<g id="edge15" class="edge">
<title>Node9&#45;&gt;Node13</title>
<path fill="none" stroke="#63b8ff" d="M776.16,-133.1C731.18,-122.35 674.79,-108.86 633.17,-98.91"/>
<polygon fill="#63b8ff" stroke="#63b8ff" points="775.32,-136.5 785.86,-135.42 776.95,-129.69 775.32,-136.5"/>
</g>
<!-- Node14 -->
<g id="node14" class="node">
<title>Node14</title>
<g id="a_node14"><a xlink:href="a00026.html" target="_top" xlink:title="Contains implementation for the VisibilityGraph class.">
<polygon fill="white" stroke="#666666" points="769.38,-100 650.62,-100 650.62,-68 769.38,-68 769.38,-100"/>
<text xml:space="preserve" text-anchor="start" x="658.62" y="-86.5" font-family="Helvetica,sans-Serif" font-size="10.00">Cpp/analysismethods</text>
<text xml:space="preserve" text-anchor="middle" x="710" y="-74.5" font-family="Helvetica,sans-Serif" font-size="10.00">/src/visibility_graph.cpp</text>
</a>
</g>
</g>
<!-- Node9&#45;&gt;Node14 -->
<g id="edge16" class="edge">
<title>Node9&#45;&gt;Node14</title>
<path fill="none" stroke="#63b8ff" d="M807.72,-130.74C786.83,-120.96 762.17,-109.42 742.85,-100.38"/>
<polygon fill="#63b8ff" stroke="#63b8ff" points="806.03,-133.81 816.57,-134.88 809,-127.47 806.03,-133.81"/>
</g>
<!-- Node15 -->
<g id="node15" class="node">
<title>Node15</title>
<g id="a_node15"><a xlink:href="a00209.html" target="_top" xlink:title="Contains implementation for the EmbreeRayTracer">
<polygon fill="white" stroke="#666666" points="914.5,-100 787.5,-100 787.5,-68 914.5,-68 914.5,-100"/>
<text xml:space="preserve" text-anchor="start" x="795.5" y="-86.5" font-family="Helvetica,sans-Serif" font-size="10.00">Cpp/raytracer/src/embree</text>
<text xml:space="preserve" text-anchor="middle" x="851" y="-74.5" font-family="Helvetica,sans-Serif" font-size="10.00">_raytracer.cpp</text>
</a>
</g>
</g>
<!-- Node9&#45;&gt;Node15 -->
<g id="edge18" class="edge">
<title>Node9&#45;&gt;Node15</title>
<path fill="none" stroke="#63b8ff" d="M851,-124.31C851,-116.12 851,-107.38 851,-100.22"/>
<polygon fill="#63b8ff" stroke="#63b8ff" points="847.5,-124.18 851,-134.18 854.5,-124.18 847.5,-124.18"/>
</g>
<!-- Node16&#45;&gt;Node2 -->
<g id="edge20" class="edge">
<title>Node16&#45;&gt;Node2</title>
<path fill="none" stroke="#63b8ff" d="M446.97,-127.38C463.26,-110.28 486.31,-86.95 508,-68 522.53,-55.31 539.89,-42.14 553.3,-32.37"/>
<polygon fill="#63b8ff" stroke="#63b8ff" points="444.48,-124.92 440.16,-134.59 449.57,-129.73 444.48,-124.92"/>
</g>
<!-- Node16&#45;&gt;Node8 -->
<g id="edge21" class="edge">
<title>Node16&#45;&gt;Node8</title>
<path fill="none" stroke="#63b8ff" d="M363.83,-132.22C323.65,-119.89 272.79,-104.28 240.82,-94.46"/>
<polygon fill="#63b8ff" stroke="#63b8ff" points="362.56,-135.49 373.15,-135.08 364.61,-128.8 362.56,-135.49"/>
</g>
<!-- Node17 -->
<g id="node17" class="node">
<title>Node17</title>
<g id="a_node17"><a xlink:href="a00230.html" target="_top" xlink:title=" ">
<polygon fill="white" stroke="#666666" points="422.88,-100 301.12,-100 301.12,-68 422.88,-68 422.88,-100"/>
<text xml:space="preserve" text-anchor="start" x="309.12" y="-86.5" font-family="Helvetica,sans-Serif" font-size="10.00">Cpp/raytracer/src/nanort</text>
<text xml:space="preserve" text-anchor="middle" x="362" y="-74.5" font-family="Helvetica,sans-Serif" font-size="10.00">_raytracer.cpp</text>
</a>
</g>
</g>
<!-- Node16&#45;&gt;Node17 -->
<g id="edge22" class="edge">
<title>Node16&#45;&gt;Node17</title>
<path fill="none" stroke="#63b8ff" d="M402.5,-127.43C393.86,-118.38 384.23,-108.29 376.53,-100.22"/>
<polygon fill="#63b8ff" stroke="#63b8ff" points="399.91,-129.78 409.34,-134.6 404.97,-124.95 399.91,-129.78"/>
</g>
</g>
</svg>
