<?xml version="1.0" encoding="UTF-8" standalone="no"?>
<!DOCTYPE svg PUBLIC "-//W3C//DTD SVG 1.1//EN"
 "http://www.w3.org/Graphics/SVG/1.1/DTD/svg11.dtd">
<!-- Generated by graphviz version 13.1.2 (20250808.2320)
 -->
<!-- Title: Cpp/pathfinding/src/path_finder.h Pages: 1 -->
<svg width="234pt" height="108pt"
 viewBox="0.00 0.00 234.00 108.00" xmlns="http://www.w3.org/2000/svg" xmlns:xlink="http://www.w3.org/1999/xlink">
<g id="graph0" class="graph" transform="scale(1 1) rotate(0) translate(4 104)">
<title>Cpp/pathfinding/src/path_finder.h</title>
<!-- Node1 -->
<g id="node1" class="node">
<title>Node1</title>
<g id="a_node1"><a xlink:title="Contains definition for the BoostGraphDeleter structure.">
<polygon fill="#999999" stroke="#666666" points="164.75,-100 64,-100 64,-68 164.75,-68 164.75,-100"/>
<text xml:space="preserve" text-anchor="start" x="72" y="-86.5" font-family="Helvetica,sans-Serif" font-size="10.00">Cpp/pathfinding/src</text>
<text xml:space="preserve" text-anchor="middle" x="114.38" y="-74.5" font-family="Helvetica,sans-Serif" font-size="10.00">/path_finder.h</text>
</a>
</g>
</g>
<!-- Node2 -->
<g id="node2" class="node">
<title>Node2</title>
<g id="a_node2"><a xlink:href="a00422.html" target="_top" xlink:title=" ">
<polygon fill="white" stroke="#666666" points="106.75,-32 0,-32 0,0 106.75,0 106.75,-32"/>
<text xml:space="preserve" text-anchor="start" x="8" y="-18.5" font-family="Helvetica,sans-Serif" font-size="10.00">Cinterface/pathfinder</text>
<text xml:space="preserve" text-anchor="middle" x="53.38" y="-6.5" font-family="Helvetica,sans-Serif" font-size="10.00">_C.cpp</text>
</a>
</g>
</g>
<!-- Node1&#45;&gt;Node2 -->
<g id="edge1" class="edge">
<title>Node1&#45;&gt;Node2</title>
<path fill="none" stroke="#63b8ff" d="M92.59,-59.43C84.22,-50.38 74.9,-40.29 67.45,-32.22"/>
<polygon fill="#63b8ff" stroke="#63b8ff" points="89.84,-61.61 99.2,-66.58 94.98,-56.86 89.84,-61.61"/>
</g>
<!-- Node3 -->
<g id="node3" class="node">
<title>Node3</title>
<g id="a_node3"><a xlink:href="a00203.html" target="_top" xlink:title="Contains implmentation for the BoostGraphDeleter structure.">
<polygon fill="white" stroke="#666666" points="225.75,-32 125,-32 125,0 225.75,0 225.75,-32"/>
<text xml:space="preserve" text-anchor="start" x="133" y="-18.5" font-family="Helvetica,sans-Serif" font-size="10.00">Cpp/pathfinding/src</text>
<text xml:space="preserve" text-anchor="middle" x="175.38" y="-6.5" font-family="Helvetica,sans-Serif" font-size="10.00">/path_finder.cpp</text>
</a>
</g>
</g>
<!-- Node1&#45;&gt;Node3 -->
<g id="edge2" class="edge">
<title>Node1&#45;&gt;Node3</title>
<path fill="none" stroke="#63b8ff" d="M136.16,-59.43C144.53,-50.38 153.85,-40.29 161.3,-32.22"/>
<polygon fill="#63b8ff" stroke="#63b8ff" points="133.77,-56.86 129.55,-66.58 138.91,-61.61 133.77,-56.86"/>
</g>
</g>
</svg>
