<?xml version="1.0" encoding="UTF-8" standalone="no"?>
<!DOCTYPE svg PUBLIC "-//W3C//DTD SVG 1.1//EN"
 "http://www.w3.org/Graphics/SVG/1.1/DTD/svg11.dtd">
<!-- Generated by graphviz version 13.1.2 (20250808.2320)
 -->
<!-- Title: Cpp/spatialstructures/src/json.hpp Pages: 1 -->
<svg width="2131pt" height="96pt"
 viewBox="0.00 0.00 2131.00 96.00" xmlns="http://www.w3.org/2000/svg" xmlns:xlink="http://www.w3.org/1999/xlink">
<g id="graph0" class="graph" transform="scale(1 1) rotate(0) translate(4 92)">
<title>Cpp/spatialstructures/src/json.hpp</title>
<!-- Node1 -->
<g id="node1" class="node">
<title>Node1</title>
<g id="a_node1"><a xlink:title=" ">
<polygon fill="#999999" stroke="#666666" points="1124.38,-88 1015.38,-88 1015.38,-56 1124.38,-56 1124.38,-88"/>
<text xml:space="preserve" text-anchor="start" x="1023.38" y="-74.5" font-family="Helvetica,sans-Serif" font-size="10.00">Cpp/spatialstructures</text>
<text xml:space="preserve" text-anchor="middle" x="1069.88" y="-62.5" font-family="Helvetica,sans-Serif" font-size="10.00">/src/json.hpp</text>
</a>
</g>
</g>
<!-- Node2 -->
<g id="node2" class="node">
<title>Node2</title>
<g id="a_node2"><a xlink:title=" ">
<polygon fill="#e0e0e0" stroke="#999999" points="55.75,-20 0,-20 0,0 55.75,0 55.75,-20"/>
<text xml:space="preserve" text-anchor="middle" x="27.88" y="-6.5" font-family="Helvetica,sans-Serif" font-size="10.00">algorithm</text>
</a>
</g>
</g>
<!-- Node1&#45;&gt;Node2 -->
<g id="edge1" class="edge">
<title>Node1&#45;&gt;Node2</title>
<path fill="none" stroke="#63b8ff" d="M1015.1,-69.58C836.64,-64.74 272.2,-47.72 67.28,-20.01"/>
<polygon fill="#63b8ff" stroke="#63b8ff" points="67.94,-16.57 57.55,-18.64 66.96,-23.5 67.94,-16.57"/>
</g>
<!-- Node3 -->
<g id="node3" class="node">
<title>Node3</title>
<g id="a_node3"><a xlink:title=" ">
<polygon fill="#e0e0e0" stroke="#999999" points="122,-20 73.75,-20 73.75,0 122,0 122,-20"/>
<text xml:space="preserve" text-anchor="middle" x="97.88" y="-6.5" font-family="Helvetica,sans-Serif" font-size="10.00">cstddef</text>
</a>
</g>
</g>
<!-- Node1&#45;&gt;Node3 -->
<g id="edge2" class="edge">
<title>Node1&#45;&gt;Node3</title>
<path fill="none" stroke="#63b8ff" d="M1015.05,-69.55C844.59,-64.8 324.33,-48.48 133.53,-20.03"/>
<polygon fill="#63b8ff" stroke="#63b8ff" points="134.17,-16.59 123.75,-18.5 133.09,-23.5 134.17,-16.59"/>
</g>
<!-- Node4 -->
<g id="node4" class="node">
<title>Node4</title>
<g id="a_node4"><a xlink:title=" ">
<polygon fill="#e0e0e0" stroke="#999999" points="197.88,-20 139.88,-20 139.88,0 197.88,0 197.88,-20"/>
<text xml:space="preserve" text-anchor="middle" x="168.88" y="-6.5" font-family="Helvetica,sans-Serif" font-size="10.00">functional</text>
</a>
</g>
</g>
<!-- Node1&#45;&gt;Node4 -->
<g id="edge3" class="edge">
<title>Node1&#45;&gt;Node4</title>
<path fill="none" stroke="#63b8ff" d="M1015.02,-71.05C879.56,-70.46 518.4,-64.62 209.21,-20.09"/>
<polygon fill="#63b8ff" stroke="#63b8ff" points="210.13,-16.68 199.73,-18.7 209.12,-23.61 210.13,-16.68"/>
</g>
<!-- Node5 -->
<g id="node5" class="node">
<title>Node5</title>
<g id="a_node5"><a xlink:title=" ">
<polygon fill="#e0e0e0" stroke="#999999" points="288,-20 215.75,-20 215.75,0 288,0 288,-20"/>
<text xml:space="preserve" text-anchor="middle" x="251.88" y="-6.5" font-family="Helvetica,sans-Serif" font-size="10.00">initializer_list</text>
</a>
</g>
</g>
<!-- Node1&#45;&gt;Node5 -->
<g id="edge4" class="edge">
<title>Node1&#45;&gt;Node5</title>
<path fill="none" stroke="#63b8ff" d="M1015.28,-69.86C890.29,-66.73 573.68,-55.79 299.53,-20.18"/>
<polygon fill="#63b8ff" stroke="#63b8ff" points="300.03,-16.71 289.66,-18.88 299.12,-23.65 300.03,-16.71"/>
</g>
<!-- Node6 -->
<g id="node6" class="node">
<title>Node6</title>
<g id="a_node6"><a xlink:title=" ">
<polygon fill="#e0e0e0" stroke="#999999" points="350.12,-20 305.62,-20 305.62,0 350.12,0 350.12,-20"/>
<text xml:space="preserve" text-anchor="middle" x="327.88" y="-6.5" font-family="Helvetica,sans-Serif" font-size="10.00">iosfwd</text>
</a>
</g>
</g>
<!-- Node1&#45;&gt;Node6 -->
<g id="edge5" class="edge">
<title>Node1&#45;&gt;Node6</title>
<path fill="none" stroke="#63b8ff" d="M1014.98,-70.99C896.73,-70.11 609.27,-63.47 361.46,-20.1"/>
<polygon fill="#63b8ff" stroke="#63b8ff" points="362.38,-16.71 351.92,-18.41 361.15,-23.61 362.38,-16.71"/>
</g>
<!-- Node7 -->
<g id="node7" class="node">
<title>Node7</title>
<g id="a_node7"><a xlink:title=" ">
<polygon fill="#e0e0e0" stroke="#999999" points="413.88,-20 367.88,-20 367.88,0 413.88,0 413.88,-20"/>
<text xml:space="preserve" text-anchor="middle" x="390.88" y="-6.5" font-family="Helvetica,sans-Serif" font-size="10.00">iterator</text>
</a>
</g>
</g>
<!-- Node1&#45;&gt;Node7 -->
<g id="edge6" class="edge">
<title>Node1&#45;&gt;Node7</title>
<path fill="none" stroke="#63b8ff" d="M1014.88,-70.28C904.56,-68.05 648.43,-58.97 425.44,-20.11"/>
<polygon fill="#63b8ff" stroke="#63b8ff" points="426.12,-16.68 415.66,-18.38 424.9,-23.57 426.12,-16.68"/>
</g>
<!-- Node8 -->
<g id="node8" class="node">
<title>Node8</title>
<g id="a_node8"><a xlink:title=" ">
<polygon fill="#e0e0e0" stroke="#999999" points="483.5,-20 432.25,-20 432.25,0 483.5,0 483.5,-20"/>
<text xml:space="preserve" text-anchor="middle" x="457.88" y="-6.5" font-family="Helvetica,sans-Serif" font-size="10.00">memory</text>
</a>
</g>
</g>
<!-- Node1&#45;&gt;Node8 -->
<g id="edge7" class="edge">
<title>Node1&#45;&gt;Node8</title>
<path fill="none" stroke="#63b8ff" d="M1015,-69.14C913.9,-65.06 691.39,-53.07 494.88,-20.06"/>
<polygon fill="#63b8ff" stroke="#63b8ff" points="495.7,-16.65 485.26,-18.42 494.53,-23.55 495.7,-16.65"/>
</g>
<!-- Node9 -->
<g id="node9" class="node">
<title>Node9</title>
<g id="a_node9"><a xlink:title=" ">
<polygon fill="#e0e0e0" stroke="#999999" points="552.12,-20 501.62,-20 501.62,0 552.12,0 552.12,-20"/>
<text xml:space="preserve" text-anchor="middle" x="526.88" y="-6.5" font-family="Helvetica,sans-Serif" font-size="10.00">numeric</text>
</a>
</g>
</g>
<!-- Node1&#45;&gt;Node9 -->
<g id="edge8" class="edge">
<title>Node1&#45;&gt;Node9</title>
<path fill="none" stroke="#63b8ff" d="M1015.24,-68.38C923.62,-63.36 733.14,-50.28 563.54,-20.23"/>
<polygon fill="#63b8ff" stroke="#63b8ff" points="564.35,-16.82 553.89,-18.49 563.11,-23.7 564.35,-16.82"/>
</g>
<!-- Node10 -->
<g id="node10" class="node">
<title>Node10</title>
<g id="a_node10"><a xlink:title=" ">
<polygon fill="#e0e0e0" stroke="#999999" points="609.88,-20 569.88,-20 569.88,0 609.88,0 609.88,-20"/>
<text xml:space="preserve" text-anchor="middle" x="589.88" y="-6.5" font-family="Helvetica,sans-Serif" font-size="10.00">string</text>
</a>
</g>
</g>
<!-- Node1&#45;&gt;Node10 -->
<g id="edge9" class="edge">
<title>Node1&#45;&gt;Node10</title>
<path fill="none" stroke="#63b8ff" d="M1015.2,-68.15C931.91,-63.07 768.25,-50.25 621.34,-20.17"/>
<polygon fill="#63b8ff" stroke="#63b8ff" points="622.33,-16.8 611.83,-18.18 620.9,-23.65 622.33,-16.8"/>
</g>
<!-- Node11 -->
<g id="node11" class="node">
<title>Node11</title>
<g id="a_node11"><a xlink:title=" ">
<polygon fill="#e0e0e0" stroke="#999999" points="667.5,-20 628.25,-20 628.25,0 667.5,0 667.5,-20"/>
<text xml:space="preserve" text-anchor="middle" x="647.88" y="-6.5" font-family="Helvetica,sans-Serif" font-size="10.00">utility</text>
</a>
</g>
</g>
<!-- Node1&#45;&gt;Node11 -->
<g id="edge10" class="edge">
<title>Node1&#45;&gt;Node11</title>
<path fill="none" stroke="#63b8ff" d="M1015.16,-67.09C940.81,-61.07 803.69,-47.53 679.18,-20.42"/>
<polygon fill="#63b8ff" stroke="#63b8ff" points="679.94,-17.01 669.42,-18.26 678.43,-23.84 679.94,-17.01"/>
</g>
<!-- Node12 -->
<g id="node12" class="node">
<title>Node12</title>
<g id="a_node12"><a xlink:title=" ">
<polygon fill="#e0e0e0" stroke="#999999" points="728.38,-20 685.38,-20 685.38,0 728.38,0 728.38,-20"/>
<text xml:space="preserve" text-anchor="middle" x="706.88" y="-6.5" font-family="Helvetica,sans-Serif" font-size="10.00">vector</text>
</a>
</g>
</g>
<!-- Node1&#45;&gt;Node12 -->
<g id="edge11" class="edge">
<title>Node1&#45;&gt;Node12</title>
<path fill="none" stroke="#63b8ff" d="M1014.93,-64.97C950.88,-57.41 841.74,-42.9 739.84,-20.43"/>
<polygon fill="#63b8ff" stroke="#63b8ff" points="740.74,-17.04 730.21,-18.27 739.21,-23.87 740.74,-17.04"/>
</g>
<!-- Node13 -->
<g id="node13" class="node">
<title>Node13</title>
<g id="a_node13"><a xlink:title=" ">
<polygon fill="#e0e0e0" stroke="#999999" points="783.75,-20 746,-20 746,0 783.75,0 783.75,-20"/>
<text xml:space="preserve" text-anchor="middle" x="764.88" y="-6.5" font-family="Helvetica,sans-Serif" font-size="10.00">array</text>
</a>
</g>
</g>
<!-- Node1&#45;&gt;Node13 -->
<g id="edge12" class="edge">
<title>Node1&#45;&gt;Node13</title>
<path fill="none" stroke="#63b8ff" d="M1015.03,-63.04C961.23,-54.76 876.75,-40.48 795.05,-20.28"/>
<polygon fill="#63b8ff" stroke="#63b8ff" points="796.08,-16.93 785.53,-17.89 794.38,-23.72 796.08,-16.93"/>
</g>
<!-- Node14 -->
<g id="node14" class="node">
<title>Node14</title>
<g id="a_node14"><a xlink:title=" ">
<polygon fill="#e0e0e0" stroke="#999999" points="868,-20 801.75,-20 801.75,0 868,0 868,-20"/>
<text xml:space="preserve" text-anchor="middle" x="834.88" y="-6.5" font-family="Helvetica,sans-Serif" font-size="10.00">forward_list</text>
</a>
</g>
</g>
<!-- Node1&#45;&gt;Node14 -->
<g id="edge13" class="edge">
<title>Node1&#45;&gt;Node14</title>
<path fill="none" stroke="#63b8ff" d="M1015.07,-57.01C973.72,-46.45 917.72,-32.15 879.17,-22.31"/>
<polygon fill="#63b8ff" stroke="#63b8ff" points="880.32,-18.99 869.77,-19.91 878.59,-25.77 880.32,-18.99"/>
</g>
<!-- Node15 -->
<g id="node15" class="node">
<title>Node15</title>
<g id="a_node15"><a xlink:title=" ">
<polygon fill="#e0e0e0" stroke="#999999" points="921.25,-20 886.5,-20 886.5,0 921.25,0 921.25,-20"/>
<text xml:space="preserve" text-anchor="middle" x="903.88" y="-6.5" font-family="Helvetica,sans-Serif" font-size="10.00">map</text>
</a>
</g>
</g>
<!-- Node1&#45;&gt;Node15 -->
<g id="edge14" class="edge">
<title>Node1&#45;&gt;Node15</title>
<path fill="none" stroke="#63b8ff" d="M1027.13,-55.55C997.34,-44.78 958.42,-30.71 932.36,-21.29"/>
<polygon fill="#63b8ff" stroke="#63b8ff" points="933.72,-18.07 923.13,-17.96 931.34,-24.65 933.72,-18.07"/>
</g>
<!-- Node16 -->
<g id="node16" class="node">
<title>Node16</title>
<g id="a_node16"><a xlink:title=" ">
<polygon fill="#e0e0e0" stroke="#999999" points="976.38,-20 939.38,-20 939.38,0 976.38,0 976.38,-20"/>
<text xml:space="preserve" text-anchor="middle" x="957.88" y="-6.5" font-family="Helvetica,sans-Serif" font-size="10.00">tuple</text>
</a>
</g>
</g>
<!-- Node1&#45;&gt;Node16 -->
<g id="edge15" class="edge">
<title>Node1&#45;&gt;Node16</title>
<path fill="none" stroke="#63b8ff" d="M1041.03,-55.55C1023.86,-46.35 1002.18,-34.74 985.27,-25.68"/>
<polygon fill="#63b8ff" stroke="#63b8ff" points="987.24,-22.76 976.77,-21.12 983.93,-28.93 987.24,-22.76"/>
</g>
<!-- Node17 -->
<g id="node17" class="node">
<title>Node17</title>
<g id="a_node17"><a xlink:title=" ">
<polygon fill="#e0e0e0" stroke="#999999" points="1055.75,-20 994,-20 994,0 1055.75,0 1055.75,-20"/>
<text xml:space="preserve" text-anchor="middle" x="1024.88" y="-6.5" font-family="Helvetica,sans-Serif" font-size="10.00">type_traits</text>
</a>
</g>
</g>
<!-- Node1&#45;&gt;Node17 -->
<g id="edge16" class="edge">
<title>Node1&#45;&gt;Node17</title>
<path fill="none" stroke="#63b8ff" d="M1058.29,-55.55C1052.3,-47.56 1044.95,-37.76 1038.67,-29.39"/>
<polygon fill="#63b8ff" stroke="#63b8ff" points="1041.64,-27.52 1032.84,-21.62 1036.04,-31.72 1041.64,-27.52"/>
</g>
<!-- Node18 -->
<g id="node18" class="node">
<title>Node18</title>
<g id="a_node18"><a xlink:title=" ">
<polygon fill="#e0e0e0" stroke="#999999" points="1156.25,-20 1073.5,-20 1073.5,0 1156.25,0 1156.25,-20"/>
<text xml:space="preserve" text-anchor="middle" x="1114.88" y="-6.5" font-family="Helvetica,sans-Serif" font-size="10.00">unordered_map</text>
</a>
</g>
</g>
<!-- Node1&#45;&gt;Node18 -->
<g id="edge17" class="edge">
<title>Node1&#45;&gt;Node18</title>
<path fill="none" stroke="#63b8ff" d="M1081.46,-55.55C1087.45,-47.56 1094.8,-37.76 1101.08,-29.39"/>
<polygon fill="#63b8ff" stroke="#63b8ff" points="1103.71,-31.72 1106.91,-21.62 1098.11,-27.52 1103.71,-31.72"/>
</g>
<!-- Node19 -->
<g id="node19" class="node">
<title>Node19</title>
<g id="a_node19"><a xlink:title=" ">
<polygon fill="#e0e0e0" stroke="#999999" points="1225.12,-20 1174.62,-20 1174.62,0 1225.12,0 1225.12,-20"/>
<text xml:space="preserve" text-anchor="middle" x="1199.88" y="-6.5" font-family="Helvetica,sans-Serif" font-size="10.00">valarray</text>
</a>
</g>
</g>
<!-- Node1&#45;&gt;Node19 -->
<g id="edge18" class="edge">
<title>Node1&#45;&gt;Node19</title>
<path fill="none" stroke="#63b8ff" d="M1103.35,-55.55C1123.67,-46.17 1149.4,-34.3 1169.18,-25.17"/>
<polygon fill="#63b8ff" stroke="#63b8ff" points="1170.5,-28.41 1178.12,-21.04 1167.57,-22.06 1170.5,-28.41"/>
</g>
<!-- Node20 -->
<g id="node20" class="node">
<title>Node20</title>
<g id="a_node20"><a xlink:title=" ">
<polygon fill="#e0e0e0" stroke="#999999" points="1300.88,-20 1242.88,-20 1242.88,0 1300.88,0 1300.88,-20"/>
<text xml:space="preserve" text-anchor="middle" x="1271.88" y="-6.5" font-family="Helvetica,sans-Serif" font-size="10.00">exception</text>
</a>
</g>
</g>
<!-- Node1&#45;&gt;Node20 -->
<g id="edge19" class="edge">
<title>Node1&#45;&gt;Node20</title>
<path fill="none" stroke="#63b8ff" d="M1121.9,-55.55C1156.04,-45.41 1200.05,-32.33 1231.55,-22.98"/>
<polygon fill="#63b8ff" stroke="#63b8ff" points="1232.5,-26.35 1241.09,-20.14 1230.51,-19.64 1232.5,-26.35"/>
</g>
<!-- Node21 -->
<g id="node21" class="node">
<title>Node21</title>
<g id="a_node21"><a xlink:title=" ">
<polygon fill="#e0e0e0" stroke="#999999" points="1377.25,-20 1318.5,-20 1318.5,0 1377.25,0 1377.25,-20"/>
<text xml:space="preserve" text-anchor="middle" x="1347.88" y="-6.5" font-family="Helvetica,sans-Serif" font-size="10.00">stdexcept</text>
</a>
</g>
</g>
<!-- Node1&#45;&gt;Node21 -->
<g id="edge20" class="edge">
<title>Node1&#45;&gt;Node21</title>
<path fill="none" stroke="#63b8ff" d="M1124.76,-59.71C1170.99,-50.12 1239.14,-35.79 1307.11,-20.59"/>
<polygon fill="#63b8ff" stroke="#63b8ff" points="1307.55,-24.08 1316.54,-18.47 1306.02,-17.25 1307.55,-24.08"/>
</g>
<!-- Node22 -->
<g id="node22" class="node">
<title>Node22</title>
<g id="a_node22"><a xlink:title=" ">
<polygon fill="#e0e0e0" stroke="#999999" points="1440.12,-20 1395.62,-20 1395.62,0 1440.12,0 1440.12,-20"/>
<text xml:space="preserve" text-anchor="middle" x="1417.88" y="-6.5" font-family="Helvetica,sans-Serif" font-size="10.00">cstdlib</text>
</a>
</g>
</g>
<!-- Node1&#45;&gt;Node22 -->
<g id="edge21" class="edge">
<title>Node1&#45;&gt;Node22</title>
<path fill="none" stroke="#63b8ff" d="M1124.75,-64.08C1185.72,-55.96 1287.23,-41.17 1384.06,-20.17"/>
<polygon fill="#63b8ff" stroke="#63b8ff" points="1384.74,-23.6 1393.75,-18.04 1383.23,-16.77 1384.74,-23.6"/>
</g>
<!-- Node23 -->
<g id="node23" class="node">
<title>Node23</title>
<g id="a_node23"><a xlink:title=" ">
<polygon fill="#e0e0e0" stroke="#999999" points="1506,-20 1457.75,-20 1457.75,0 1506,0 1506,-20"/>
<text xml:space="preserve" text-anchor="middle" x="1481.88" y="-6.5" font-family="Helvetica,sans-Serif" font-size="10.00">cassert</text>
</a>
</g>
</g>
<!-- Node1&#45;&gt;Node23 -->
<g id="edge22" class="edge">
<title>Node1&#45;&gt;Node23</title>
<path fill="none" stroke="#63b8ff" d="M1124.86,-65.91C1196.69,-58.75 1326.52,-44.07 1446.27,-20.3"/>
<polygon fill="#63b8ff" stroke="#63b8ff" points="1446.86,-23.75 1455.97,-18.35 1445.48,-16.89 1446.86,-23.75"/>
</g>
<!-- Node24 -->
<g id="node24" class="node">
<title>Node24</title>
<g id="a_node24"><a xlink:title=" ">
<polygon fill="#e0e0e0" stroke="#999999" points="1563.5,-20 1524.25,-20 1524.25,0 1563.5,0 1563.5,-20"/>
<text xml:space="preserve" text-anchor="middle" x="1543.88" y="-6.5" font-family="Helvetica,sans-Serif" font-size="10.00">limits</text>
</a>
</g>
</g>
<!-- Node1&#45;&gt;Node24 -->
<g id="edge23" class="edge">
<title>Node1&#45;&gt;Node24</title>
<path fill="none" stroke="#63b8ff" d="M1124.86,-68.01C1207.37,-62.8 1368.1,-49.85 1513.17,-19.97"/>
<polygon fill="#63b8ff" stroke="#63b8ff" points="1513.48,-23.48 1522.55,-18 1512.05,-16.63 1513.48,-23.48"/>
</g>
<!-- Node25 -->
<g id="node25" class="node">
<title>Node25</title>
<g id="a_node25"><a xlink:title=" ">
<polygon fill="#e0e0e0" stroke="#999999" points="1626.5,-20 1581.25,-20 1581.25,0 1626.5,0 1626.5,-20"/>
<text xml:space="preserve" text-anchor="middle" x="1603.88" y="-6.5" font-family="Helvetica,sans-Serif" font-size="10.00">cstdint</text>
</a>
</g>
</g>
<!-- Node1&#45;&gt;Node25 -->
<g id="edge24" class="edge">
<title>Node1&#45;&gt;Node25</title>
<path fill="none" stroke="#63b8ff" d="M1124.68,-68.7C1215.63,-64.18 1403.45,-51.83 1570.03,-20.26"/>
<polygon fill="#63b8ff" stroke="#63b8ff" points="1570.32,-23.77 1579.48,-18.44 1569,-16.9 1570.32,-23.77"/>
</g>
<!-- Node26 -->
<g id="node26" class="node">
<title>Node26</title>
<g id="a_node26"><a xlink:title=" ">
<polygon fill="#e0e0e0" stroke="#999999" points="1687.38,-20 1644.38,-20 1644.38,0 1687.38,0 1687.38,-20"/>
<text xml:space="preserve" text-anchor="middle" x="1665.88" y="-6.5" font-family="Helvetica,sans-Serif" font-size="10.00">cmath</text>
</a>
</g>
</g>
<!-- Node1&#45;&gt;Node26 -->
<g id="edge25" class="edge">
<title>Node1&#45;&gt;Node26</title>
<path fill="none" stroke="#63b8ff" d="M1124.63,-69.73C1224.33,-66.61 1442.1,-56.17 1632.96,-20.23"/>
<polygon fill="#63b8ff" stroke="#63b8ff" points="1633.4,-23.71 1642.56,-18.39 1632.08,-16.83 1633.4,-23.71"/>
</g>
<!-- Node27 -->
<g id="node27" class="node">
<title>Node27</title>
<g id="a_node27"><a xlink:title=" ">
<polygon fill="#e0e0e0" stroke="#999999" points="1748,-20 1705.75,-20 1705.75,0 1748,0 1748,-20"/>
<text xml:space="preserve" text-anchor="middle" x="1726.88" y="-6.5" font-family="Helvetica,sans-Serif" font-size="10.00">cstdio</text>
</a>
</g>
</g>
<!-- Node1&#45;&gt;Node27 -->
<g id="edge26" class="edge">
<title>Node1&#45;&gt;Node27</title>
<path fill="none" stroke="#63b8ff" d="M1124.48,-70.4C1232.12,-68.4 1479.23,-59.7 1694.2,-20.13"/>
<polygon fill="#63b8ff" stroke="#63b8ff" points="1694.71,-23.6 1703.89,-18.32 1693.42,-16.72 1694.71,-23.6"/>
</g>
<!-- Node28 -->
<g id="node28" class="node">
<title>Node28</title>
<g id="a_node28"><a xlink:title=" ">
<polygon fill="#e0e0e0" stroke="#999999" points="1811.5,-20 1766.25,-20 1766.25,0 1811.5,0 1811.5,-20"/>
<text xml:space="preserve" text-anchor="middle" x="1788.88" y="-6.5" font-family="Helvetica,sans-Serif" font-size="10.00">cstring</text>
</a>
</g>
</g>
<!-- Node1&#45;&gt;Node28 -->
<g id="edge27" class="edge">
<title>Node1&#45;&gt;Node28</title>
<path fill="none" stroke="#63b8ff" d="M1124.66,-70.64C1239.89,-69.08 1515.72,-61.17 1754.93,-19.97"/>
<polygon fill="#63b8ff" stroke="#63b8ff" points="1755.19,-23.48 1764.44,-18.31 1753.99,-16.58 1755.19,-23.48"/>
</g>
<!-- Node29 -->
<g id="node29" class="node">
<title>Node29</title>
<g id="a_node29"><a xlink:title=" ">
<polygon fill="#e0e0e0" stroke="#999999" points="1878,-20 1829.75,-20 1829.75,0 1878,0 1878,-20"/>
<text xml:space="preserve" text-anchor="middle" x="1853.88" y="-6.5" font-family="Helvetica,sans-Serif" font-size="10.00">istream</text>
</a>
</g>
</g>
<!-- Node1&#45;&gt;Node29 -->
<g id="edge28" class="edge">
<title>Node1&#45;&gt;Node29</title>
<path fill="none" stroke="#63b8ff" d="M1124.5,-70.99C1247.2,-70.17 1553.97,-63.69 1818.13,-20.13"/>
<polygon fill="#63b8ff" stroke="#63b8ff" points="1818.71,-23.58 1827.99,-18.48 1817.55,-16.68 1818.71,-23.58"/>
</g>
<!-- Node30 -->
<g id="node30" class="node">
<title>Node30</title>
<g id="a_node30"><a xlink:title=" ">
<polygon fill="#e0e0e0" stroke="#999999" points="1943.25,-20 1896.5,-20 1896.5,0 1943.25,0 1943.25,-20"/>
<text xml:space="preserve" text-anchor="middle" x="1919.88" y="-6.5" font-family="Helvetica,sans-Serif" font-size="10.00">clocale</text>
</a>
</g>
</g>
<!-- Node1&#45;&gt;Node30 -->
<g id="edge29" class="edge">
<title>Node1&#45;&gt;Node30</title>
<path fill="none" stroke="#63b8ff" d="M1124.81,-71.42C1255.33,-71.58 1594.22,-67.18 1885.02,-19.92"/>
<polygon fill="#63b8ff" stroke="#63b8ff" points="1885.42,-23.4 1894.72,-18.32 1884.28,-16.49 1885.42,-23.4"/>
</g>
<!-- Node31 -->
<g id="node31" class="node">
<title>Node31</title>
<g id="a_node31"><a xlink:title=" ">
<polygon fill="#e0e0e0" stroke="#999999" points="2006.5,-20 1961.25,-20 1961.25,0 2006.5,0 2006.5,-20"/>
<text xml:space="preserve" text-anchor="middle" x="1983.88" y="-6.5" font-family="Helvetica,sans-Serif" font-size="10.00">cctype</text>
</a>
</g>
</g>
<!-- Node1&#45;&gt;Node31 -->
<g id="edge30" class="edge">
<title>Node1&#45;&gt;Node31</title>
<path fill="none" stroke="#63b8ff" d="M1124.87,-69.38C1288.38,-64.32 1770.69,-47.58 1949.84,-19.89"/>
<polygon fill="#63b8ff" stroke="#63b8ff" points="1950.13,-23.39 1959.44,-18.33 1949.01,-16.48 1950.13,-23.39"/>
</g>
<!-- Node32 -->
<g id="node32" class="node">
<title>Node32</title>
<g id="a_node32"><a xlink:title=" ">
<polygon fill="#e0e0e0" stroke="#999999" points="2053.28,-20 2024.47,-20 2024.47,0 2053.28,0 2053.28,-20"/>
<text xml:space="preserve" text-anchor="middle" x="2038.88" y="-6.5" font-family="Helvetica,sans-Serif" font-size="10.00">ios</text>
</a>
</g>
</g>
<!-- Node1&#45;&gt;Node32 -->
<g id="edge31" class="edge">
<title>Node1&#45;&gt;Node32</title>
<path fill="none" stroke="#63b8ff" d="M1124.63,-70.33C1296.15,-67.89 1822.43,-57.65 2012.76,-19.96"/>
<polygon fill="#63b8ff" stroke="#63b8ff" points="2013.44,-23.39 2022.51,-17.92 2012.01,-16.54 2013.44,-23.39"/>
</g>
<!-- Node33 -->
<g id="node33" class="node">
<title>Node33</title>
<g id="a_node33"><a xlink:title=" ">
<polygon fill="#e0e0e0" stroke="#999999" points="2122.5,-20 2071.25,-20 2071.25,0 2122.5,0 2122.5,-20"/>
<text xml:space="preserve" text-anchor="middle" x="2096.88" y="-6.5" font-family="Helvetica,sans-Serif" font-size="10.00">ostream</text>
</a>
</g>
</g>
<!-- Node1&#45;&gt;Node33 -->
<g id="edge32" class="edge">
<title>Node1&#45;&gt;Node33</title>
<path fill="none" stroke="#63b8ff" d="M1124.59,-69.63C1301.38,-64.99 1857.11,-48.59 2059.61,-19.95"/>
<polygon fill="#63b8ff" stroke="#63b8ff" points="2060.12,-23.41 2069.5,-18.49 2059.1,-16.49 2060.12,-23.41"/>
</g>
</g>
</svg>
