<?xml version="1.0" encoding="UTF-8" standalone="no"?>
<!DOCTYPE svg PUBLIC "-//W3C//DTD SVG 1.1//EN"
 "http://www.w3.org/Graphics/SVG/1.1/DTD/svg11.dtd">
<!-- Generated by graphviz version 13.1.2 (20250808.2320)
 -->
<!-- Title: Cpp/raytracer/src/nanort.h Pages: 1 -->
<svg width="423pt" height="164pt"
 viewBox="0.00 0.00 423.00 164.00" xmlns="http://www.w3.org/2000/svg" xmlns:xlink="http://www.w3.org/1999/xlink">
<g id="graph0" class="graph" transform="scale(1 1) rotate(0) translate(4 160)">
<title>Cpp/raytracer/src/nanort.h</title>
<!-- Node1 -->
<g id="node1" class="node">
<title>Node1</title>
<g id="a_node1"><a xlink:title=" ">
<polygon fill="#999999" stroke="#666666" points="192.88,-156 62.88,-156 62.88,-136 192.88,-136 192.88,-156"/>
<text xml:space="preserve" text-anchor="middle" x="127.88" y="-142.5" font-family="Helvetica,sans-Serif" font-size="10.00">Cpp/raytracer/src/nanort.h</text>
</a>
</g>
</g>
<!-- Node2 -->
<g id="node2" class="node">
<title>Node2</title>
<g id="a_node2"><a xlink:href="a00230.html" target="_top" xlink:title=" ">
<polygon fill="white" stroke="#666666" points="121.75,-32 0,-32 0,0 121.75,0 121.75,-32"/>
<text xml:space="preserve" text-anchor="start" x="8" y="-18.5" font-family="Helvetica,sans-Serif" font-size="10.00">Cpp/raytracer/src/nanort</text>
<text xml:space="preserve" text-anchor="middle" x="60.88" y="-6.5" font-family="Helvetica,sans-Serif" font-size="10.00">_raytracer.cpp</text>
</a>
</g>
</g>
<!-- Node1&#45;&gt;Node2 -->
<g id="edge1" class="edge">
<title>Node1&#45;&gt;Node2</title>
<path fill="none" stroke="#63b8ff" d="M117.85,-125.85C104.49,-100.33 81.11,-55.66 68.87,-32.27"/>
<polygon fill="#63b8ff" stroke="#63b8ff" points="114.62,-127.22 122.35,-134.45 120.82,-123.97 114.62,-127.22"/>
</g>
<!-- Node3 -->
<g id="node3" class="node">
<title>Node3</title>
<g id="a_node3"><a xlink:href="a00239.html" target="_top" xlink:title=" ">
<polygon fill="white" stroke="#666666" points="236,-100 127.75,-100 127.75,-68 236,-68 236,-100"/>
<text xml:space="preserve" text-anchor="start" x="135.75" y="-86.5" font-family="Helvetica,sans-Serif" font-size="10.00">Cpp/raytracer/src/ray</text>
<text xml:space="preserve" text-anchor="middle" x="181.88" y="-74.5" font-family="Helvetica,sans-Serif" font-size="10.00">_data.h</text>
</a>
</g>
</g>
<!-- Node1&#45;&gt;Node3 -->
<g id="edge2" class="edge">
<title>Node1&#45;&gt;Node3</title>
<path fill="none" stroke="#63b8ff" d="M143.99,-127.1C151.71,-118.51 160.87,-108.34 168.25,-100.14"/>
<polygon fill="#63b8ff" stroke="#63b8ff" points="141.41,-124.73 137.33,-134.5 146.62,-129.41 141.41,-124.73"/>
</g>
<!-- Node3&#45;&gt;Node2 -->
<g id="edge5" class="edge">
<title>Node3&#45;&gt;Node2</title>
<path fill="none" stroke="#63b8ff" d="M143.5,-62.07C125.84,-52.44 105.27,-41.21 89.07,-32.38"/>
<polygon fill="#63b8ff" stroke="#63b8ff" points="141.72,-65.09 152.18,-66.8 145.07,-58.94 141.72,-65.09"/>
</g>
<!-- Node4 -->
<g id="node4" class="node">
<title>Node4</title>
<g id="a_node4"><a xlink:href="a00011.html" target="_top" xlink:title=" ">
<polygon fill="white" stroke="#666666" points="250.12,-32 139.62,-32 139.62,0 250.12,0 250.12,-32"/>
<text xml:space="preserve" text-anchor="start" x="147.62" y="-18.5" font-family="Helvetica,sans-Serif" font-size="10.00">Cpp/analysismethods</text>
<text xml:space="preserve" text-anchor="middle" x="194.88" y="-6.5" font-family="Helvetica,sans-Serif" font-size="10.00">/src/graph_utils.cpp</text>
</a>
</g>
</g>
<!-- Node3&#45;&gt;Node4 -->
<g id="edge3" class="edge">
<title>Node3&#45;&gt;Node4</title>
<path fill="none" stroke="#63b8ff" d="M187.07,-56.6C188.71,-48.32 190.45,-39.46 191.88,-32.22"/>
<polygon fill="#63b8ff" stroke="#63b8ff" points="183.68,-55.72 185.18,-66.21 190.55,-57.07 183.68,-55.72"/>
</g>
<!-- Node5 -->
<g id="node5" class="node">
<title>Node5</title>
<g id="a_node5"><a xlink:href="a00221.html" target="_top" xlink:title=" ">
<polygon fill="white" stroke="#666666" points="415.12,-26 268.62,-26 268.62,-6 415.12,-6 415.12,-26"/>
<text xml:space="preserve" text-anchor="middle" x="341.88" y="-12.5" font-family="Helvetica,sans-Serif" font-size="10.00">Cpp/raytracer/src/MultiRT.cpp</text>
</a>
</g>
</g>
<!-- Node3&#45;&gt;Node5 -->
<g id="edge4" class="edge">
<title>Node3&#45;&gt;Node5</title>
<path fill="none" stroke="#63b8ff" d="M229.9,-63.19C259.38,-51.03 295.8,-36 318.94,-26.46"/>
<polygon fill="#63b8ff" stroke="#63b8ff" points="228.7,-59.9 220.79,-66.95 231.37,-66.37 228.7,-59.9"/>
</g>
</g>
</svg>
