<?xml version="1.0" encoding="UTF-8" standalone="no"?>
<!DOCTYPE svg PUBLIC "-//W3C//DTD SVG 1.1//EN"
 "http://www.w3.org/Graphics/SVG/1.1/DTD/svg11.dtd">
<!-- Generated by graphviz version 13.1.2 (20250808.2320)
 -->
<!-- Title: Cpp/spatialstructures/src/graph.cpp Pages: 1 -->
<svg width="2714pt" height="264pt"
 viewBox="0.00 0.00 2714.00 264.00" xmlns="http://www.w3.org/2000/svg" xmlns:xlink="http://www.w3.org/1999/xlink">
<g id="graph0" class="graph" transform="scale(1 1) rotate(0) translate(4 260)">
<title>Cpp/spatialstructures/src/graph.cpp</title>
<!-- Node1 -->
<g id="node1" class="node">
<title>Node1</title>
<g id="a_node1"><a xlink:title="Contains implementation for the Graph class.">
<polygon fill="#999999" stroke="#666666" points="1366.12,-256 1257.12,-256 1257.12,-224 1366.12,-224 1366.12,-256"/>
<text xml:space="preserve" text-anchor="start" x="1265.12" y="-242.5" font-family="Helvetica,sans-Serif" font-size="10.00">Cpp/spatialstructures</text>
<text xml:space="preserve" text-anchor="middle" x="1311.62" y="-230.5" font-family="Helvetica,sans-Serif" font-size="10.00">/src/graph.cpp</text>
</a>
</g>
</g>
<!-- Node2 -->
<g id="node2" class="node">
<title>Node2</title>
<g id="a_node2"><a xlink:href="a00269.html" target="_top" xlink:title="Contains definitions for the Graph &#160;class.">
<polygon fill="white" stroke="#666666" points="212.75,-188 164.5,-188 164.5,-168 212.75,-168 212.75,-188"/>
<text xml:space="preserve" text-anchor="middle" x="188.62" y="-174.5" font-family="Helvetica,sans-Serif" font-size="10.00">graph.h</text>
</a>
</g>
</g>
<!-- Node1&#45;&gt;Node2 -->
<g id="edge1" class="edge">
<title>Node1&#45;&gt;Node2</title>
<path fill="none" stroke="#63b8ff" d="M1256.7,-236.07C1059.08,-225.51 387.33,-189.62 224.43,-180.91"/>
<polygon fill="#63b8ff" stroke="#63b8ff" points="224.85,-177.43 214.68,-180.39 224.48,-184.42 224.85,-177.43"/>
</g>
<!-- Node8 -->
<g id="node8" class="node">
<title>Node8</title>
<g id="a_node8"><a xlink:title=" ">
<polygon fill="#e0e0e0" stroke="#999999" points="1582.25,-20 1531,-20 1531,0 1582.25,0 1582.25,-20"/>
<text xml:space="preserve" text-anchor="middle" x="1556.62" y="-6.5" font-family="Helvetica,sans-Serif" font-size="10.00">ostream</text>
</a>
</g>
</g>
<!-- Node1&#45;&gt;Node8 -->
<g id="edge62" class="edge">
<title>Node1&#45;&gt;Node8</title>
<path fill="none" stroke="#63b8ff" d="M1366.32,-238.3C1548.53,-235.64 2133.89,-224.41 2318.62,-188 2392.13,-173.51 2434.33,-193.15 2477.62,-132 2537.25,-47.79 2945.31,-153.49 2128.62,-56 1927.71,-32.02 1685.5,-17.76 1594.03,-12.9"/>
<polygon fill="#63b8ff" stroke="#63b8ff" points="1594.32,-9.41 1584.15,-12.38 1593.95,-16.4 1594.32,-9.41"/>
</g>
<!-- Node10 -->
<g id="node10" class="node">
<title>Node10</title>
<g id="a_node10"><a xlink:title=" ">
<polygon fill="#e0e0e0" stroke="#999999" points="324.38,-76 270.88,-76 270.88,-56 324.38,-56 324.38,-76"/>
<text xml:space="preserve" text-anchor="middle" x="297.62" y="-62.5" font-family="Helvetica,sans-Serif" font-size="10.00">iostream</text>
</a>
</g>
</g>
<!-- Node1&#45;&gt;Node10 -->
<g id="edge26" class="edge">
<title>Node1&#45;&gt;Node10</title>
<path fill="none" stroke="#63b8ff" d="M1256.83,-238.14C1102.9,-235.28 668.93,-224.16 531.62,-188 476.26,-173.42 466.49,-158.26 415.62,-132 383.73,-115.53 347.66,-95.44 323.89,-82"/>
<polygon fill="#63b8ff" stroke="#63b8ff" points="325.63,-78.96 315.21,-77.07 322.18,-85.05 325.63,-78.96"/>
</g>
<!-- Node11 -->
<g id="node11" class="node">
<title>Node11</title>
<g id="a_node11"><a xlink:href="a00251.html" target="_top" xlink:title="Contains definitions for the HF::SpatialStructures namespace.">
<polygon fill="white" stroke="#666666" points="2119.12,-76 2052.12,-76 2052.12,-56 2119.12,-56 2119.12,-76"/>
<text xml:space="preserve" text-anchor="middle" x="2085.62" y="-62.5" font-family="Helvetica,sans-Serif" font-size="10.00">constants.h</text>
</a>
</g>
</g>
<!-- Node1&#45;&gt;Node11 -->
<g id="edge19" class="edge">
<title>Node1&#45;&gt;Node11</title>
<path fill="none" stroke="#63b8ff" d="M1366.37,-238.13C1584.85,-234.09 2386.12,-213.77 2460.62,-132 2506.09,-82.11 2240.14,-70.45 2130.88,-67.78"/>
<polygon fill="#63b8ff" stroke="#63b8ff" points="2131.18,-64.28 2121.1,-67.55 2131.02,-71.28 2131.18,-64.28"/>
</g>
<!-- Node12 -->
<g id="node12" class="node">
<title>Node12</title>
<g id="a_node12"><a xlink:title=" ">
<polygon fill="#e0e0e0" stroke="#999999" points="2169.12,-20 2126.12,-20 2126.12,0 2169.12,0 2169.12,-20"/>
<text xml:space="preserve" text-anchor="middle" x="2147.62" y="-6.5" font-family="Helvetica,sans-Serif" font-size="10.00">cmath</text>
</a>
</g>
</g>
<!-- Node1&#45;&gt;Node12 -->
<g id="edge18" class="edge">
<title>Node1&#45;&gt;Node12</title>
<path fill="none" stroke="#63b8ff" d="M1366.5,-239.4C1558.02,-240.33 2195.73,-239.41 2392.62,-188 2446.47,-173.94 2475.37,-179.34 2504.62,-132 2540.88,-73.34 2275.53,-29.26 2180.56,-15.51"/>
<polygon fill="#63b8ff" stroke="#63b8ff" points="2181.24,-12.07 2170.84,-14.13 2180.25,-19 2181.24,-12.07"/>
</g>
<!-- Node14 -->
<g id="node14" class="node">
<title>Node14</title>
<g id="a_node14"><a xlink:title=" ">
<polygon fill="#e0e0e0" stroke="#999999" points="480.5,-132 424.75,-132 424.75,-112 480.5,-112 480.5,-132"/>
<text xml:space="preserve" text-anchor="middle" x="452.62" y="-118.5" font-family="Helvetica,sans-Serif" font-size="10.00">algorithm</text>
</a>
</g>
</g>
<!-- Node1&#45;&gt;Node14 -->
<g id="edge17" class="edge">
<title>Node1&#45;&gt;Node14</title>
<path fill="none" stroke="#63b8ff" d="M1256.83,-237.73C1111.09,-233.94 716.44,-220.85 590.62,-188 548.78,-177.07 504.16,-153.63 477.34,-138.09"/>
<polygon fill="#63b8ff" stroke="#63b8ff" points="479.34,-135.21 468.95,-133.14 475.78,-141.24 479.34,-135.21"/>
</g>
<!-- Node15 -->
<g id="node15" class="node">
<title>Node15</title>
<g id="a_node15"><a xlink:title=" ">
<polygon fill="#e0e0e0" stroke="#999999" points="546.75,-132 498.5,-132 498.5,-112 546.75,-112 546.75,-132"/>
<text xml:space="preserve" text-anchor="middle" x="522.62" y="-118.5" font-family="Helvetica,sans-Serif" font-size="10.00">cassert</text>
</a>
</g>
</g>
<!-- Node1&#45;&gt;Node15 -->
<g id="edge20" class="edge">
<title>Node1&#45;&gt;Node15</title>
<path fill="none" stroke="#63b8ff" d="M1256.78,-237.73C1118.45,-234.07 758.19,-221.51 643.62,-188 606.74,-177.21 568.35,-154.25 544.96,-138.71"/>
<polygon fill="#63b8ff" stroke="#63b8ff" points="547.1,-135.94 536.87,-133.22 543.17,-141.73 547.1,-135.94"/>
</g>
<!-- Node16 -->
<g id="node16" class="node">
<title>Node16</title>
<g id="a_node16"><a xlink:href="a00176.html" target="_top" xlink:title="Contains definitions for the Exceptions namespace.">
<polygon fill="white" stroke="#666666" points="738.88,-188 652.38,-188 652.38,-168 738.88,-168 738.88,-188"/>
<text xml:space="preserve" text-anchor="middle" x="695.62" y="-174.5" font-family="Helvetica,sans-Serif" font-size="10.00">HFExceptions.h</text>
</a>
</g>
</g>
<!-- Node1&#45;&gt;Node16 -->
<g id="edge21" class="edge">
<title>Node1&#45;&gt;Node16</title>
<path fill="none" stroke="#63b8ff" d="M1256.69,-233.65C1139.68,-222.25 867.06,-195.7 750.3,-184.33"/>
<polygon fill="#63b8ff" stroke="#63b8ff" points="750.96,-180.87 740.67,-183.39 750.28,-187.84 750.96,-180.87"/>
</g>
<!-- Node20 -->
<g id="node20" class="node">
<title>Node20</title>
<g id="a_node20"><a xlink:title=" ">
<polygon fill="#e0e0e0" stroke="#999999" points="830.88,-132 780.38,-132 780.38,-112 830.88,-112 830.88,-132"/>
<text xml:space="preserve" text-anchor="middle" x="805.62" y="-118.5" font-family="Helvetica,sans-Serif" font-size="10.00">numeric</text>
</a>
</g>
</g>
<!-- Node1&#45;&gt;Node20 -->
<g id="edge25" class="edge">
<title>Node1&#45;&gt;Node20</title>
<path fill="none" stroke="#63b8ff" d="M1256.97,-227.28C1170.86,-208.66 998.16,-170.73 841.96,-132.51"/>
<polygon fill="#63b8ff" stroke="#63b8ff" points="843.24,-129.22 832.69,-130.24 841.57,-136.02 843.24,-129.22"/>
</g>
<!-- Node21 -->
<g id="node21" class="node">
<title>Node21</title>
<g id="a_node21"><a xlink:title=" ">
<polygon fill="#e0e0e0" stroke="#999999" points="2639.5,-188 2583.75,-188 2583.75,-168 2639.5,-168 2639.5,-188"/>
<text xml:space="preserve" text-anchor="middle" x="2611.62" y="-174.5" font-family="Helvetica,sans-Serif" font-size="10.00">charconv</text>
</a>
</g>
</g>
<!-- Node1&#45;&gt;Node21 -->
<g id="edge27" class="edge">
<title>Node1&#45;&gt;Node21</title>
<path fill="none" stroke="#63b8ff" d="M1366.54,-238.02C1576.91,-234.08 2331.63,-218.1 2569.62,-188 2570.46,-187.89 2571.3,-187.78 2572.14,-187.66"/>
<polygon fill="#63b8ff" stroke="#63b8ff" points="2572.51,-191.15 2581.78,-186.02 2571.33,-184.25 2572.51,-191.15"/>
</g>
<!-- Node22 -->
<g id="node22" class="node">
<title>Node22</title>
<g id="a_node22"><a xlink:href="a00272.html" target="_top" xlink:title=" ">
<polygon fill="white" stroke="#666666" points="1507,-188 1454.25,-188 1454.25,-168 1507,-168 1507,-188"/>
<text xml:space="preserve" text-anchor="middle" x="1480.62" y="-174.5" font-family="Helvetica,sans-Serif" font-size="10.00">json.hpp</text>
</a>
</g>
</g>
<!-- Node1&#45;&gt;Node22 -->
<g id="edge28" class="edge">
<title>Node1&#45;&gt;Node22</title>
<path fill="none" stroke="#63b8ff" d="M1355.15,-223.55C1382.45,-213.86 1417.27,-201.49 1443.31,-192.25"/>
<polygon fill="#63b8ff" stroke="#63b8ff" points="1444.2,-195.65 1452.45,-189 1441.86,-189.05 1444.2,-195.65"/>
</g>
<!-- Node45 -->
<g id="node45" class="node">
<title>Node45</title>
<g id="a_node45"><a xlink:title=" ">
<polygon fill="#e0e0e0" stroke="#999999" points="2706.12,-188 2657.12,-188 2657.12,-168 2706.12,-168 2706.12,-188"/>
<text xml:space="preserve" text-anchor="middle" x="2681.62" y="-174.5" font-family="Helvetica,sans-Serif" font-size="10.00">fstream</text>
</a>
</g>
</g>
<!-- Node1&#45;&gt;Node45 -->
<g id="edge61" class="edge">
<title>Node1&#45;&gt;Node45</title>
<path fill="none" stroke="#63b8ff" d="M1366.28,-238.58C1581.7,-236.65 2373.15,-227.13 2645.85,-188.04"/>
<polygon fill="#63b8ff" stroke="#63b8ff" points="2646.02,-191.55 2655.39,-186.62 2644.99,-184.63 2646.02,-191.55"/>
</g>
<!-- Node3 -->
<g id="node3" class="node">
<title>Node3</title>
<g id="a_node3"><a xlink:title=" ">
<polygon fill="#e0e0e0" stroke="#999999" points="368.38,-132 296.88,-132 296.88,-112 368.38,-112 368.38,-132"/>
<text xml:space="preserve" text-anchor="middle" x="332.62" y="-118.5" font-family="Helvetica,sans-Serif" font-size="10.00">robin_hood.h</text>
</a>
</g>
</g>
<!-- Node2&#45;&gt;Node3 -->
<g id="edge2" class="edge">
<title>Node2&#45;&gt;Node3</title>
<path fill="none" stroke="#63b8ff" d="M213.05,-167.84C236.08,-159.2 270.86,-146.16 296.99,-136.36"/>
<polygon fill="#63b8ff" stroke="#63b8ff" points="298.04,-139.71 306.18,-132.92 295.58,-133.15 298.04,-139.71"/>
</g>
<!-- Node4 -->
<g id="node4" class="node">
<title>Node4</title>
<g id="a_node4"><a xlink:title=" ">
<polygon fill="#e0e0e0" stroke="#999999" points="253.12,-76 210.12,-76 210.12,-56 253.12,-56 253.12,-76"/>
<text xml:space="preserve" text-anchor="middle" x="231.62" y="-62.5" font-family="Helvetica,sans-Serif" font-size="10.00">vector</text>
</a>
</g>
</g>
<!-- Node2&#45;&gt;Node4 -->
<g id="edge3" class="edge">
<title>Node2&#45;&gt;Node4</title>
<path fill="none" stroke="#63b8ff" d="M164.09,-171.35C129.01,-162.09 71.02,-141.71 92.62,-112 94.25,-109.76 158.31,-89.65 198.89,-77.08"/>
<polygon fill="#63b8ff" stroke="#63b8ff" points="199.67,-80.5 208.19,-74.2 197.6,-73.81 199.67,-80.5"/>
</g>
<!-- Node5 -->
<g id="node5" class="node">
<title>Node5</title>
<g id="a_node5"><a xlink:href="a00263.html" target="_top" xlink:title="Contains definitions for the Edge structure.">
<polygon fill="white" stroke="#666666" points="45.25,-132 0,-132 0,-112 45.25,-112 45.25,-132"/>
<text xml:space="preserve" text-anchor="middle" x="22.62" y="-118.5" font-family="Helvetica,sans-Serif" font-size="10.00">edge.h</text>
</a>
</g>
</g>
<!-- Node2&#45;&gt;Node5 -->
<g id="edge4" class="edge">
<title>Node2&#45;&gt;Node5</title>
<path fill="none" stroke="#63b8ff" d="M164.13,-169.03C135.57,-159.74 88.21,-144.34 56.23,-133.93"/>
<polygon fill="#63b8ff" stroke="#63b8ff" points="57.65,-130.71 47.05,-130.95 55.48,-137.37 57.65,-130.71"/>
</g>
<!-- Node6 -->
<g id="node6" class="node">
<title>Node6</title>
<g id="a_node6"><a xlink:href="a00275.html" target="_top" xlink:title="Contains definitions for the Node structure.">
<polygon fill="white" stroke="#666666" points="192.25,-76 147,-76 147,-56 192.25,-56 192.25,-76"/>
<text xml:space="preserve" text-anchor="middle" x="169.62" y="-62.5" font-family="Helvetica,sans-Serif" font-size="10.00">node.h</text>
</a>
</g>
</g>
<!-- Node2&#45;&gt;Node6 -->
<g id="edge9" class="edge">
<title>Node2&#45;&gt;Node6</title>
<path fill="none" stroke="#63b8ff" d="M187.01,-167.62C183.96,-150.01 177.33,-111.59 173.19,-87.65"/>
<polygon fill="#63b8ff" stroke="#63b8ff" points="176.65,-87.1 171.5,-77.85 169.75,-88.3 176.65,-87.1"/>
</g>
<!-- Node9 -->
<g id="node9" class="node">
<title>Node9</title>
<g id="a_node9"><a xlink:href="a00281.html" target="_top" xlink:title="Contains definitions for the Path structure.">
<polygon fill="white" stroke="#666666" points="279.12,-132 236.12,-132 236.12,-112 279.12,-112 279.12,-132"/>
<text xml:space="preserve" text-anchor="middle" x="257.62" y="-118.5" font-family="Helvetica,sans-Serif" font-size="10.00">path.h</text>
</a>
</g>
</g>
<!-- Node2&#45;&gt;Node9 -->
<g id="edge10" class="edge">
<title>Node2&#45;&gt;Node9</title>
<path fill="none" stroke="#63b8ff" d="M200.64,-167.59C210.64,-159.77 225.09,-148.46 236.93,-139.19"/>
<polygon fill="#63b8ff" stroke="#63b8ff" points="238.83,-142.15 244.55,-133.23 234.52,-136.64 238.83,-142.15"/>
</g>
<!-- Node2&#45;&gt;Node10 -->
<g id="edge16" class="edge">
<title>Node2&#45;&gt;Node10</title>
<path fill="none" stroke="#63b8ff" d="M192.54,-167.71C198.55,-154.23 211.14,-129.01 227.62,-112 239.33,-99.93 254.85,-89.54 268.3,-81.79"/>
<polygon fill="#63b8ff" stroke="#63b8ff" points="269.7,-85.02 276.77,-77.13 266.32,-78.89 269.7,-85.02"/>
</g>
<!-- Node13 -->
<g id="node13" class="node">
<title>Node13</title>
<g id="a_node13"><a xlink:title=" ">
<polygon fill="#e0e0e0" stroke="#999999" points="142,-132 101.25,-132 101.25,-112 142,-112 142,-132"/>
<text xml:space="preserve" text-anchor="middle" x="121.62" y="-118.5" font-family="Helvetica,sans-Serif" font-size="10.00">Eigen</text>
</a>
</g>
</g>
<!-- Node2&#45;&gt;Node13 -->
<g id="edge15" class="edge">
<title>Node2&#45;&gt;Node13</title>
<path fill="none" stroke="#63b8ff" d="M176.95,-167.59C167.35,-159.85 153.5,-148.69 142.06,-139.47"/>
<polygon fill="#63b8ff" stroke="#63b8ff" points="144.32,-136.8 134.34,-133.25 139.93,-142.25 144.32,-136.8"/>
</g>
<!-- Node5&#45;&gt;Node4 -->
<g id="edge8" class="edge">
<title>Node5&#45;&gt;Node4</title>
<path fill="none" stroke="#63b8ff" d="M45.68,-115.34C83.37,-106.07 157.5,-87.75 198.75,-76.68"/>
<polygon fill="#63b8ff" stroke="#63b8ff" points="199.51,-80.1 208.24,-74.1 197.67,-73.35 199.51,-80.1"/>
</g>
<!-- Node5&#45;&gt;Node6 -->
<g id="edge5" class="edge">
<title>Node5&#45;&gt;Node6</title>
<path fill="none" stroke="#63b8ff" d="M45.59,-112.56C69.87,-103.65 108.39,-89.5 136.06,-79.33"/>
<polygon fill="#63b8ff" stroke="#63b8ff" points="137.22,-82.63 145.4,-75.9 134.8,-76.06 137.22,-82.63"/>
</g>
<!-- Node7 -->
<g id="node7" class="node">
<title>Node7</title>
<g id="a_node7"><a xlink:title=" ">
<polygon fill="#e0e0e0" stroke="#999999" points="850.5,-20 812.75,-20 812.75,0 850.5,0 850.5,-20"/>
<text xml:space="preserve" text-anchor="middle" x="831.62" y="-6.5" font-family="Helvetica,sans-Serif" font-size="10.00">array</text>
</a>
</g>
</g>
<!-- Node6&#45;&gt;Node7 -->
<g id="edge6" class="edge">
<title>Node6&#45;&gt;Node7</title>
<path fill="none" stroke="#63b8ff" d="M192.57,-57.95C195.59,-57.19 198.67,-56.52 201.62,-56 429.35,-16.27 709.23,-11.46 800.95,-11"/>
<polygon fill="#63b8ff" stroke="#63b8ff" points="800.88,-14.5 810.87,-10.96 800.86,-7.5 800.88,-14.5"/>
</g>
<!-- Node6&#45;&gt;Node8 -->
<g id="edge7" class="edge">
<title>Node6&#45;&gt;Node8</title>
<path fill="none" stroke="#63b8ff" d="M192.55,-57.84C195.58,-57.1 198.66,-56.46 201.62,-56 334.9,-35.36 1315.55,-15.61 1519.52,-11.7"/>
<polygon fill="#63b8ff" stroke="#63b8ff" points="1519.33,-15.2 1529.26,-11.51 1519.2,-8.2 1519.33,-15.2"/>
</g>
<!-- Node9&#45;&gt;Node4 -->
<g id="edge11" class="edge">
<title>Node9&#45;&gt;Node4</title>
<path fill="none" stroke="#63b8ff" d="M253.1,-111.59C249.78,-104.7 245.16,-95.1 241.05,-86.57"/>
<polygon fill="#63b8ff" stroke="#63b8ff" points="244.25,-85.15 236.76,-77.66 237.94,-88.19 244.25,-85.15"/>
</g>
<!-- Node9&#45;&gt;Node10 -->
<g id="edge12" class="edge">
<title>Node9&#45;&gt;Node10</title>
<path fill="none" stroke="#63b8ff" d="M264.59,-111.59C269.93,-104.39 277.45,-94.23 283.97,-85.43"/>
<polygon fill="#63b8ff" stroke="#63b8ff" points="286.7,-87.63 289.84,-77.51 281.07,-83.47 286.7,-87.63"/>
</g>
<!-- Node9&#45;&gt;Node11 -->
<g id="edge13" class="edge">
<title>Node9&#45;&gt;Node11</title>
<path fill="none" stroke="#63b8ff" d="M279.42,-113.73C282.16,-113.03 284.94,-112.43 287.62,-112 465.18,-83.67 1778.78,-69.89 2040.39,-67.41"/>
<polygon fill="#63b8ff" stroke="#63b8ff" points="2040.22,-70.91 2050.18,-67.32 2040.15,-63.91 2040.22,-70.91"/>
</g>
<!-- Node11&#45;&gt;Node12 -->
<g id="edge14" class="edge">
<title>Node11&#45;&gt;Node12</title>
<path fill="none" stroke="#63b8ff" d="M2096.42,-55.59C2105.23,-47.93 2117.88,-36.91 2128.4,-27.75"/>
<polygon fill="#63b8ff" stroke="#63b8ff" points="2130.57,-30.5 2135.81,-21.29 2125.97,-25.22 2130.57,-30.5"/>
</g>
<!-- Node17 -->
<g id="node17" class="node">
<title>Node17</title>
<g id="a_node17"><a xlink:title=" ">
<polygon fill="#e0e0e0" stroke="#999999" points="762.62,-132 704.62,-132 704.62,-112 762.62,-112 762.62,-132"/>
<text xml:space="preserve" text-anchor="middle" x="733.62" y="-118.5" font-family="Helvetica,sans-Serif" font-size="10.00">exception</text>
</a>
</g>
</g>
<!-- Node16&#45;&gt;Node17 -->
<g id="edge22" class="edge">
<title>Node16&#45;&gt;Node17</title>
<path fill="none" stroke="#63b8ff" d="M702.24,-167.59C707.31,-160.39 714.46,-150.23 720.65,-141.43"/>
<polygon fill="#63b8ff" stroke="#63b8ff" points="723.32,-143.73 726.21,-133.54 717.59,-139.7 723.32,-143.73"/>
</g>
<!-- Node18 -->
<g id="node18" class="node">
<title>Node18</title>
<g id="a_node18"><a xlink:title=" ">
<polygon fill="#e0e0e0" stroke="#999999" points="610.25,-132 565,-132 565,-112 610.25,-112 610.25,-132"/>
<text xml:space="preserve" text-anchor="middle" x="587.62" y="-118.5" font-family="Helvetica,sans-Serif" font-size="10.00">cstring</text>
</a>
</g>
</g>
<!-- Node16&#45;&gt;Node18 -->
<g id="edge23" class="edge">
<title>Node16&#45;&gt;Node18</title>
<path fill="none" stroke="#63b8ff" d="M676.81,-167.59C660.27,-159.32 635.91,-147.14 616.83,-137.6"/>
<polygon fill="#63b8ff" stroke="#63b8ff" points="618.45,-134.5 607.94,-133.16 615.32,-140.76 618.45,-134.5"/>
</g>
<!-- Node19 -->
<g id="node19" class="node">
<title>Node19</title>
<g id="a_node19"><a xlink:title=" ">
<polygon fill="#e0e0e0" stroke="#999999" points="687,-132 628.25,-132 628.25,-112 687,-112 687,-132"/>
<text xml:space="preserve" text-anchor="middle" x="657.62" y="-118.5" font-family="Helvetica,sans-Serif" font-size="10.00">stdexcept</text>
</a>
</g>
</g>
<!-- Node16&#45;&gt;Node19 -->
<g id="edge24" class="edge">
<title>Node16&#45;&gt;Node19</title>
<path fill="none" stroke="#63b8ff" d="M689.01,-167.59C683.94,-160.39 676.79,-150.23 670.6,-141.43"/>
<polygon fill="#63b8ff" stroke="#63b8ff" points="673.66,-139.7 665.04,-133.54 667.93,-143.73 673.66,-139.7"/>
</g>
<!-- Node22&#45;&gt;Node4 -->
<g id="edge39" class="edge">
<title>Node22&#45;&gt;Node4</title>
<path fill="none" stroke="#63b8ff" d="M1481.02,-167.61C1481.07,-153.02 1478.74,-125.23 1461.62,-112 1410.67,-72.6 400.18,-85.68 264.47,-75.44"/>
<polygon fill="#63b8ff" stroke="#63b8ff" points="265.25,-72 254.93,-74.42 264.5,-78.96 265.25,-72"/>
</g>
<!-- Node22&#45;&gt;Node7 -->
<g id="edge40" class="edge">
<title>Node22&#45;&gt;Node7</title>
<path fill="none" stroke="#63b8ff" d="M1484.38,-167.76C1489.34,-153.87 1495.99,-127.6 1482.62,-112 1400.87,-16.58 979.88,-10.55 862.21,-10.76"/>
<polygon fill="#63b8ff" stroke="#63b8ff" points="862.39,-7.26 852.4,-10.8 862.41,-14.26 862.39,-7.26"/>
</g>
<!-- Node22&#45;&gt;Node8 -->
<g id="edge60" class="edge">
<title>Node22&#45;&gt;Node8</title>
<path fill="none" stroke="#63b8ff" d="M1496.32,-167.56C1508.18,-159.59 1523.86,-147.07 1532.62,-132 1551.05,-100.31 1555.57,-56.9 1556.53,-31.62"/>
<polygon fill="#63b8ff" stroke="#63b8ff" points="1560.03,-31.79 1556.74,-21.72 1553.03,-31.64 1560.03,-31.79"/>
</g>
<!-- Node22&#45;&gt;Node12 -->
<g id="edge53" class="edge">
<title>Node22&#45;&gt;Node12</title>
<path fill="none" stroke="#63b8ff" d="M1507.45,-177.07C1623.95,-177.11 2082.24,-174.54 2128.62,-132 2156.22,-106.69 2154.84,-58.94 2151.29,-31.6"/>
<polygon fill="#63b8ff" stroke="#63b8ff" points="2154.77,-31.16 2149.78,-21.82 2147.85,-32.23 2154.77,-31.16"/>
</g>
<!-- Node22&#45;&gt;Node14 -->
<g id="edge29" class="edge">
<title>Node22&#45;&gt;Node14</title>
<path fill="none" stroke="#63b8ff" d="M1454.18,-176.49C1319.24,-173.79 705.88,-160.24 491.89,-131.98"/>
<polygon fill="#63b8ff" stroke="#63b8ff" points="492.68,-128.55 482.3,-130.65 491.72,-135.49 492.68,-128.55"/>
</g>
<!-- Node22&#45;&gt;Node15 -->
<g id="edge50" class="edge">
<title>Node22&#45;&gt;Node15</title>
<path fill="none" stroke="#63b8ff" d="M1453.77,-176.48C1323.7,-173.86 757.6,-161.05 558.2,-131.99"/>
<polygon fill="#63b8ff" stroke="#63b8ff" points="558.91,-128.56 548.5,-130.51 557.86,-135.48 558.91,-128.56"/>
</g>
<!-- Node22&#45;&gt;Node17 -->
<g id="edge47" class="edge">
<title>Node22&#45;&gt;Node17</title>
<path fill="none" stroke="#63b8ff" d="M1454.06,-176.93C1361.5,-176.34 1044.56,-171.5 774.2,-132.13"/>
<polygon fill="#63b8ff" stroke="#63b8ff" points="774.89,-128.69 764.49,-130.69 773.87,-135.62 774.89,-128.69"/>
</g>
<!-- Node22&#45;&gt;Node18 -->
<g id="edge55" class="edge">
<title>Node22&#45;&gt;Node18</title>
<path fill="none" stroke="#63b8ff" d="M1453.96,-176.4C1329.96,-173.51 808.17,-159.99 621.82,-131.89"/>
<polygon fill="#63b8ff" stroke="#63b8ff" points="622.48,-128.45 612.05,-130.34 621.38,-135.37 622.48,-128.45"/>
</g>
<!-- Node22&#45;&gt;Node19 -->
<g id="edge48" class="edge">
<title>Node22&#45;&gt;Node19</title>
<path fill="none" stroke="#63b8ff" d="M1454.03,-177.16C1355.18,-177.4 999.6,-175.13 698.54,-132.18"/>
<polygon fill="#63b8ff" stroke="#63b8ff" points="699.3,-128.76 688.9,-130.79 698.29,-135.69 699.3,-128.76"/>
</g>
<!-- Node22&#45;&gt;Node20 -->
<g id="edge36" class="edge">
<title>Node22&#45;&gt;Node20</title>
<path fill="none" stroke="#63b8ff" d="M1453.85,-176.92C1366.84,-176.29 1084.15,-171.28 842.26,-132.13"/>
<polygon fill="#63b8ff" stroke="#63b8ff" points="843.06,-128.72 832.63,-130.55 841.93,-135.63 843.06,-128.72"/>
</g>
<!-- Node23 -->
<g id="node23" class="node">
<title>Node23</title>
<g id="a_node23"><a xlink:title=" ">
<polygon fill="#e0e0e0" stroke="#999999" points="2223.75,-132 2175.5,-132 2175.5,-112 2223.75,-112 2223.75,-132"/>
<text xml:space="preserve" text-anchor="middle" x="2199.62" y="-118.5" font-family="Helvetica,sans-Serif" font-size="10.00">cstddef</text>
</a>
</g>
</g>
<!-- Node22&#45;&gt;Node23 -->
<g id="edge30" class="edge">
<title>Node22&#45;&gt;Node23</title>
<path fill="none" stroke="#63b8ff" d="M1507.41,-176.83C1599.16,-175.9 1909.12,-169.97 2161.62,-132 2162.45,-131.88 2163.29,-131.74 2164.14,-131.6"/>
<polygon fill="#63b8ff" stroke="#63b8ff" points="2164.59,-135.08 2173.73,-129.71 2163.24,-128.21 2164.59,-135.08"/>
</g>
<!-- Node24 -->
<g id="node24" class="node">
<title>Node24</title>
<g id="a_node24"><a xlink:title=" ">
<polygon fill="#e0e0e0" stroke="#999999" points="2299.62,-132 2241.62,-132 2241.62,-112 2299.62,-112 2299.62,-132"/>
<text xml:space="preserve" text-anchor="middle" x="2270.62" y="-118.5" font-family="Helvetica,sans-Serif" font-size="10.00">functional</text>
</a>
</g>
</g>
<!-- Node22&#45;&gt;Node24 -->
<g id="edge31" class="edge">
<title>Node22&#45;&gt;Node24</title>
<path fill="none" stroke="#63b8ff" d="M1507.44,-177.06C1603.91,-176.95 1942.45,-173.52 2230.19,-132.1"/>
<polygon fill="#63b8ff" stroke="#63b8ff" points="2230.38,-135.61 2239.77,-130.7 2229.37,-128.68 2230.38,-135.61"/>
</g>
<!-- Node25 -->
<g id="node25" class="node">
<title>Node25</title>
<g id="a_node25"><a xlink:title=" ">
<polygon fill="#e0e0e0" stroke="#999999" points="2389.75,-132 2317.5,-132 2317.5,-112 2389.75,-112 2389.75,-132"/>
<text xml:space="preserve" text-anchor="middle" x="2353.62" y="-118.5" font-family="Helvetica,sans-Serif" font-size="10.00">initializer_list</text>
</a>
</g>
</g>
<!-- Node22&#45;&gt;Node25 -->
<g id="edge32" class="edge">
<title>Node22&#45;&gt;Node25</title>
<path fill="none" stroke="#63b8ff" d="M1507.2,-176.94C1609.3,-176.4 1986.15,-171.77 2306,-132.14"/>
<polygon fill="#63b8ff" stroke="#63b8ff" points="2306.36,-135.62 2315.85,-130.91 2305.49,-128.68 2306.36,-135.62"/>
</g>
<!-- Node26 -->
<g id="node26" class="node">
<title>Node26</title>
<g id="a_node26"><a xlink:title=" ">
<polygon fill="#e0e0e0" stroke="#999999" points="2451.88,-132 2407.38,-132 2407.38,-112 2451.88,-112 2451.88,-132"/>
<text xml:space="preserve" text-anchor="middle" x="2429.62" y="-118.5" font-family="Helvetica,sans-Serif" font-size="10.00">iosfwd</text>
</a>
</g>
</g>
<!-- Node22&#45;&gt;Node26 -->
<g id="edge33" class="edge">
<title>Node22&#45;&gt;Node26</title>
<path fill="none" stroke="#63b8ff" d="M1507.29,-176.53C1636.42,-174.15 2198.41,-162.28 2395.99,-131.99"/>
<polygon fill="#63b8ff" stroke="#63b8ff" points="2396.27,-135.49 2405.59,-130.45 2395.16,-128.58 2396.27,-135.49"/>
</g>
<!-- Node27 -->
<g id="node27" class="node">
<title>Node27</title>
<g id="a_node27"><a xlink:title=" ">
<polygon fill="#e0e0e0" stroke="#999999" points="894.62,-132 848.62,-132 848.62,-112 894.62,-112 894.62,-132"/>
<text xml:space="preserve" text-anchor="middle" x="871.62" y="-118.5" font-family="Helvetica,sans-Serif" font-size="10.00">iterator</text>
</a>
</g>
</g>
<!-- Node22&#45;&gt;Node27 -->
<g id="edge34" class="edge">
<title>Node22&#45;&gt;Node27</title>
<path fill="none" stroke="#63b8ff" d="M1453.94,-176.77C1372.83,-175.7 1122.12,-169.51 906.15,-132.1"/>
<polygon fill="#63b8ff" stroke="#63b8ff" points="906.87,-128.67 896.41,-130.39 905.65,-135.57 906.87,-128.67"/>
</g>
<!-- Node28 -->
<g id="node28" class="node">
<title>Node28</title>
<g id="a_node28"><a xlink:title=" ">
<polygon fill="#e0e0e0" stroke="#999999" points="964.25,-132 913,-132 913,-112 964.25,-112 964.25,-132"/>
<text xml:space="preserve" text-anchor="middle" x="938.62" y="-118.5" font-family="Helvetica,sans-Serif" font-size="10.00">memory</text>
</a>
</g>
</g>
<!-- Node22&#45;&gt;Node28 -->
<g id="edge35" class="edge">
<title>Node22&#45;&gt;Node28</title>
<path fill="none" stroke="#63b8ff" d="M1453.77,-176.16C1379.34,-173.5 1164.06,-163.62 975.74,-132.07"/>
<polygon fill="#63b8ff" stroke="#63b8ff" points="976.45,-128.64 966.01,-130.41 975.28,-135.54 976.45,-128.64"/>
</g>
<!-- Node29 -->
<g id="node29" class="node">
<title>Node29</title>
<g id="a_node29"><a xlink:title=" ">
<polygon fill="#e0e0e0" stroke="#999999" points="1022.62,-132 982.62,-132 982.62,-112 1022.62,-112 1022.62,-132"/>
<text xml:space="preserve" text-anchor="middle" x="1002.62" y="-118.5" font-family="Helvetica,sans-Serif" font-size="10.00">string</text>
</a>
</g>
</g>
<!-- Node22&#45;&gt;Node29 -->
<g id="edge37" class="edge">
<title>Node22&#45;&gt;Node29</title>
<path fill="none" stroke="#63b8ff" d="M1453.78,-176.19C1385.24,-173.72 1198.24,-164.51 1034.35,-132.18"/>
<polygon fill="#63b8ff" stroke="#63b8ff" points="1035.07,-128.75 1024.57,-130.21 1033.68,-135.61 1035.07,-128.75"/>
</g>
<!-- Node30 -->
<g id="node30" class="node">
<title>Node30</title>
<g id="a_node30"><a xlink:title=" ">
<polygon fill="#e0e0e0" stroke="#999999" points="1080.25,-132 1041,-132 1041,-112 1080.25,-112 1080.25,-132"/>
<text xml:space="preserve" text-anchor="middle" x="1060.62" y="-118.5" font-family="Helvetica,sans-Serif" font-size="10.00">utility</text>
</a>
</g>
</g>
<!-- Node22&#45;&gt;Node30 -->
<g id="edge38" class="edge">
<title>Node22&#45;&gt;Node30</title>
<path fill="none" stroke="#63b8ff" d="M1453.8,-175.64C1391.67,-172.12 1233.02,-161.05 1091.49,-132"/>
<polygon fill="#63b8ff" stroke="#63b8ff" points="1092.45,-128.62 1081.95,-130 1091.02,-135.48 1092.45,-128.62"/>
</g>
<!-- Node31 -->
<g id="node31" class="node">
<title>Node31</title>
<g id="a_node31"><a xlink:title=" ">
<polygon fill="#e0e0e0" stroke="#999999" points="1164.75,-132 1098.5,-132 1098.5,-112 1164.75,-112 1164.75,-132"/>
<text xml:space="preserve" text-anchor="middle" x="1131.62" y="-118.5" font-family="Helvetica,sans-Serif" font-size="10.00">forward_list</text>
</a>
</g>
</g>
<!-- Node22&#45;&gt;Node31 -->
<g id="edge41" class="edge">
<title>Node22&#45;&gt;Node31</title>
<path fill="none" stroke="#63b8ff" d="M1453.93,-173.63C1402.43,-167 1285.55,-151.39 1176.16,-132.17"/>
<polygon fill="#63b8ff" stroke="#63b8ff" points="1176.87,-128.74 1166.41,-130.44 1175.65,-135.63 1176.87,-128.74"/>
</g>
<!-- Node32 -->
<g id="node32" class="node">
<title>Node32</title>
<g id="a_node32"><a xlink:title=" ">
<polygon fill="#e0e0e0" stroke="#999999" points="1218,-132 1183.25,-132 1183.25,-112 1218,-112 1218,-132"/>
<text xml:space="preserve" text-anchor="middle" x="1200.62" y="-118.5" font-family="Helvetica,sans-Serif" font-size="10.00">map</text>
</a>
</g>
</g>
<!-- Node22&#45;&gt;Node32 -->
<g id="edge42" class="edge">
<title>Node22&#45;&gt;Node32</title>
<path fill="none" stroke="#63b8ff" d="M1453.76,-173.53C1409.12,-167.5 1316.7,-153.81 1229.16,-132.05"/>
<polygon fill="#63b8ff" stroke="#63b8ff" points="1230.25,-128.71 1219.7,-129.65 1228.54,-135.5 1230.25,-128.71"/>
</g>
<!-- Node33 -->
<g id="node33" class="node">
<title>Node33</title>
<g id="a_node33"><a xlink:title=" ">
<polygon fill="#e0e0e0" stroke="#999999" points="1273.12,-132 1236.12,-132 1236.12,-112 1273.12,-112 1273.12,-132"/>
<text xml:space="preserve" text-anchor="middle" x="1254.62" y="-118.5" font-family="Helvetica,sans-Serif" font-size="10.00">tuple</text>
</a>
</g>
</g>
<!-- Node22&#45;&gt;Node33 -->
<g id="edge43" class="edge">
<title>Node22&#45;&gt;Node33</title>
<path fill="none" stroke="#63b8ff" d="M1454.02,-171.86C1417.68,-164.65 1350.29,-150.62 1284.42,-132.58"/>
<polygon fill="#63b8ff" stroke="#63b8ff" points="1285.46,-129.24 1274.89,-129.94 1283.59,-135.99 1285.46,-129.24"/>
</g>
<!-- Node34 -->
<g id="node34" class="node">
<title>Node34</title>
<g id="a_node34"><a xlink:title=" ">
<polygon fill="#e0e0e0" stroke="#999999" points="1352.5,-132 1290.75,-132 1290.75,-112 1352.5,-112 1352.5,-132"/>
<text xml:space="preserve" text-anchor="middle" x="1321.62" y="-118.5" font-family="Helvetica,sans-Serif" font-size="10.00">type_traits</text>
</a>
</g>
</g>
<!-- Node22&#45;&gt;Node34 -->
<g id="edge44" class="edge">
<title>Node22&#45;&gt;Node34</title>
<path fill="none" stroke="#63b8ff" d="M1454.01,-167.96C1428.3,-159.23 1389.08,-145.91 1360,-136.03"/>
<polygon fill="#63b8ff" stroke="#63b8ff" points="1361.42,-132.82 1350.83,-132.92 1359.17,-139.45 1361.42,-132.82"/>
</g>
<!-- Node35 -->
<g id="node35" class="node">
<title>Node35</title>
<g id="a_node35"><a xlink:title=" ">
<polygon fill="#e0e0e0" stroke="#999999" points="1453,-132 1370.25,-132 1370.25,-112 1453,-112 1453,-132"/>
<text xml:space="preserve" text-anchor="middle" x="1411.62" y="-118.5" font-family="Helvetica,sans-Serif" font-size="10.00">unordered_map</text>
</a>
</g>
</g>
<!-- Node22&#45;&gt;Node35 -->
<g id="edge45" class="edge">
<title>Node22&#45;&gt;Node35</title>
<path fill="none" stroke="#63b8ff" d="M1468.61,-167.59C1458.61,-159.77 1444.16,-148.46 1432.32,-139.19"/>
<polygon fill="#63b8ff" stroke="#63b8ff" points="1434.73,-136.64 1424.7,-133.23 1430.42,-142.15 1434.73,-136.64"/>
</g>
<!-- Node36 -->
<g id="node36" class="node">
<title>Node36</title>
<g id="a_node36"><a xlink:title=" ">
<polygon fill="#e0e0e0" stroke="#999999" points="1634.88,-132 1584.38,-132 1584.38,-112 1634.88,-112 1634.88,-132"/>
<text xml:space="preserve" text-anchor="middle" x="1609.62" y="-118.5" font-family="Helvetica,sans-Serif" font-size="10.00">valarray</text>
</a>
</g>
</g>
<!-- Node22&#45;&gt;Node36 -->
<g id="edge46" class="edge">
<title>Node22&#45;&gt;Node36</title>
<path fill="none" stroke="#63b8ff" d="M1503.1,-167.59C1523.41,-159.09 1553.58,-146.46 1576.63,-136.81"/>
<polygon fill="#63b8ff" stroke="#63b8ff" points="1577.71,-140.15 1585.58,-133.06 1575.01,-133.7 1577.71,-140.15"/>
</g>
<!-- Node37 -->
<g id="node37" class="node">
<title>Node37</title>
<g id="a_node37"><a xlink:title=" ">
<polygon fill="#e0e0e0" stroke="#999999" points="1697.88,-132 1653.38,-132 1653.38,-112 1697.88,-112 1697.88,-132"/>
<text xml:space="preserve" text-anchor="middle" x="1675.62" y="-118.5" font-family="Helvetica,sans-Serif" font-size="10.00">cstdlib</text>
</a>
</g>
</g>
<!-- Node22&#45;&gt;Node37 -->
<g id="edge49" class="edge">
<title>Node22&#45;&gt;Node37</title>
<path fill="none" stroke="#63b8ff" d="M1507.46,-169.63C1537.69,-161.33 1588.58,-147.32 1641.86,-132.48"/>
<polygon fill="#63b8ff" stroke="#63b8ff" points="1642.75,-135.87 1651.45,-129.81 1640.87,-129.12 1642.75,-135.87"/>
</g>
<!-- Node38 -->
<g id="node38" class="node">
<title>Node38</title>
<g id="a_node38"><a xlink:title=" ">
<polygon fill="#e0e0e0" stroke="#999999" points="1755.25,-132 1716,-132 1716,-112 1755.25,-112 1755.25,-132"/>
<text xml:space="preserve" text-anchor="middle" x="1735.62" y="-118.5" font-family="Helvetica,sans-Serif" font-size="10.00">limits</text>
</a>
</g>
</g>
<!-- Node22&#45;&gt;Node38 -->
<g id="edge51" class="edge">
<title>Node22&#45;&gt;Node38</title>
<path fill="none" stroke="#63b8ff" d="M1507.27,-172.62C1547.83,-165.76 1627.68,-151.48 1704.87,-132.22"/>
<polygon fill="#63b8ff" stroke="#63b8ff" points="1705.43,-135.69 1714.27,-129.84 1703.71,-128.9 1705.43,-135.69"/>
</g>
<!-- Node39 -->
<g id="node39" class="node">
<title>Node39</title>
<g id="a_node39"><a xlink:title=" ">
<polygon fill="#e0e0e0" stroke="#999999" points="1818.25,-132 1773,-132 1773,-112 1818.25,-112 1818.25,-132"/>
<text xml:space="preserve" text-anchor="middle" x="1795.62" y="-118.5" font-family="Helvetica,sans-Serif" font-size="10.00">cstdint</text>
</a>
</g>
</g>
<!-- Node22&#45;&gt;Node39 -->
<g id="edge52" class="edge">
<title>Node22&#45;&gt;Node39</title>
<path fill="none" stroke="#63b8ff" d="M1507.46,-173.89C1556.27,-167.99 1663,-153.97 1761.63,-132.46"/>
<polygon fill="#63b8ff" stroke="#63b8ff" points="1762.2,-135.92 1771.21,-130.34 1760.69,-129.08 1762.2,-135.92"/>
</g>
<!-- Node40 -->
<g id="node40" class="node">
<title>Node40</title>
<g id="a_node40"><a xlink:title=" ">
<polygon fill="#e0e0e0" stroke="#999999" points="1878.75,-132 1836.5,-132 1836.5,-112 1878.75,-112 1878.75,-132"/>
<text xml:space="preserve" text-anchor="middle" x="1857.62" y="-118.5" font-family="Helvetica,sans-Serif" font-size="10.00">cstdio</text>
</a>
</g>
</g>
<!-- Node22&#45;&gt;Node40 -->
<g id="edge54" class="edge">
<title>Node22&#45;&gt;Node40</title>
<path fill="none" stroke="#63b8ff" d="M1507.43,-175.02C1564.31,-170.49 1701.35,-157.93 1824.95,-132.27"/>
<polygon fill="#63b8ff" stroke="#63b8ff" points="1825.56,-135.72 1834.62,-130.23 1824.11,-128.87 1825.56,-135.72"/>
</g>
<!-- Node41 -->
<g id="node41" class="node">
<title>Node41</title>
<g id="a_node41"><a xlink:title=" ">
<polygon fill="#e0e0e0" stroke="#999999" points="1944.75,-132 1896.5,-132 1896.5,-112 1944.75,-112 1944.75,-132"/>
<text xml:space="preserve" text-anchor="middle" x="1920.62" y="-118.5" font-family="Helvetica,sans-Serif" font-size="10.00">istream</text>
</a>
</g>
</g>
<!-- Node22&#45;&gt;Node41 -->
<g id="edge56" class="edge">
<title>Node22&#45;&gt;Node41</title>
<path fill="none" stroke="#63b8ff" d="M1507.03,-175.51C1570.56,-171.63 1737.11,-159.67 1885.14,-132.2"/>
<polygon fill="#63b8ff" stroke="#63b8ff" points="1885.55,-135.69 1894.73,-130.39 1884.25,-128.81 1885.55,-135.69"/>
</g>
<!-- Node42 -->
<g id="node42" class="node">
<title>Node42</title>
<g id="a_node42"><a xlink:title=" ">
<polygon fill="#e0e0e0" stroke="#999999" points="2010,-132 1963.25,-132 1963.25,-112 2010,-112 2010,-132"/>
<text xml:space="preserve" text-anchor="middle" x="1986.62" y="-118.5" font-family="Helvetica,sans-Serif" font-size="10.00">clocale</text>
</a>
</g>
</g>
<!-- Node22&#45;&gt;Node42 -->
<g id="edge57" class="edge">
<title>Node22&#45;&gt;Node42</title>
<path fill="none" stroke="#63b8ff" d="M1507.25,-176.07C1578.05,-173.25 1776.86,-163.14 1951.73,-132.01"/>
<polygon fill="#63b8ff" stroke="#63b8ff" points="1952.24,-135.48 1961.45,-130.25 1950.99,-128.59 1952.24,-135.48"/>
</g>
<!-- Node43 -->
<g id="node43" class="node">
<title>Node43</title>
<g id="a_node43"><a xlink:title=" ">
<polygon fill="#e0e0e0" stroke="#999999" points="2073.25,-132 2028,-132 2028,-112 2073.25,-112 2073.25,-132"/>
<text xml:space="preserve" text-anchor="middle" x="2050.62" y="-118.5" font-family="Helvetica,sans-Serif" font-size="10.00">cctype</text>
</a>
</g>
</g>
<!-- Node22&#45;&gt;Node43 -->
<g id="edge58" class="edge">
<title>Node22&#45;&gt;Node43</title>
<path fill="none" stroke="#63b8ff" d="M1507.45,-176.56C1585,-174.91 1816.14,-167.33 2016.64,-132"/>
<polygon fill="#63b8ff" stroke="#63b8ff" points="2016.96,-135.5 2026.19,-130.29 2015.72,-128.61 2016.96,-135.5"/>
</g>
<!-- Node44 -->
<g id="node44" class="node">
<title>Node44</title>
<g id="a_node44"><a xlink:title=" ">
<polygon fill="#e0e0e0" stroke="#999999" points="2120.03,-132 2091.22,-132 2091.22,-112 2120.03,-112 2120.03,-132"/>
<text xml:space="preserve" text-anchor="middle" x="2105.62" y="-118.5" font-family="Helvetica,sans-Serif" font-size="10.00">ios</text>
</a>
</g>
</g>
<!-- Node22&#45;&gt;Node44 -->
<g id="edge59" class="edge">
<title>Node22&#45;&gt;Node44</title>
<path fill="none" stroke="#63b8ff" d="M1507.36,-176.06C1605.92,-172.44 1949.63,-158.36 2079.57,-131.99"/>
<polygon fill="#63b8ff" stroke="#63b8ff" points="2080.22,-135.43 2089.25,-129.89 2078.74,-128.59 2080.22,-135.43"/>
</g>
</g>
</svg>
