<?xml version="1.0" encoding="UTF-8" standalone="no"?>
<!DOCTYPE svg PUBLIC "-//W3C//DTD SVG 1.1//EN"
 "http://www.w3.org/Graphics/SVG/1.1/DTD/svg11.dtd">
<!-- Generated by graphviz version 13.1.2 (20250808.2320)
 -->
<!-- Title: Cpp/spatialstructures/src/cost_algorithms.h Pages: 1 -->
<svg width="286pt" height="108pt"
 viewBox="0.00 0.00 286.00 108.00" xmlns="http://www.w3.org/2000/svg" xmlns:xlink="http://www.w3.org/1999/xlink">
<g id="graph0" class="graph" transform="scale(1 1) rotate(0) translate(4 104)">
<title>Cpp/spatialstructures/src/cost_algorithms.h</title>
<!-- Node1 -->
<g id="node1" class="node">
<title>Node1</title>
<g id="a_node1"><a xlink:title="Contains implementation for the HF::SpatialStructures::CostAlgorithms namespace.">
<polygon fill="#999999" stroke="#666666" points="198.38,-100 85.62,-100 85.62,-68 198.38,-68 198.38,-100"/>
<text xml:space="preserve" text-anchor="start" x="93.62" y="-86.5" font-family="Helvetica,sans-Serif" font-size="10.00">Cpp/spatialstructures</text>
<text xml:space="preserve" text-anchor="middle" x="142" y="-74.5" font-family="Helvetica,sans-Serif" font-size="10.00">/src/cost_algorithms.h</text>
</a>
</g>
</g>
<!-- Node2 -->
<g id="node2" class="node">
<title>Node2</title>
<g id="a_node2"><a xlink:href="a00434.html" target="_top" xlink:title=" ">
<polygon fill="white" stroke="#666666" points="136,-32 0,-32 0,0 136,0 136,-32"/>
<text xml:space="preserve" text-anchor="start" x="8" y="-18.5" font-family="Helvetica,sans-Serif" font-size="10.00">Cinterface/spatialstructures</text>
<text xml:space="preserve" text-anchor="middle" x="68" y="-6.5" font-family="Helvetica,sans-Serif" font-size="10.00">_C.cpp</text>
</a>
</g>
</g>
<!-- Node1&#45;&gt;Node2 -->
<g id="edge1" class="edge">
<title>Node1&#45;&gt;Node2</title>
<path fill="none" stroke="#63b8ff" d="M116.26,-60.05C106.03,-50.92 94.53,-40.67 85.33,-32.45"/>
<polygon fill="#63b8ff" stroke="#63b8ff" points="113.91,-62.64 123.71,-66.68 118.57,-57.42 113.91,-62.64"/>
</g>
<!-- Node3 -->
<g id="node3" class="node">
<title>Node3</title>
<g id="a_node3"><a xlink:href="a00254.html" target="_top" xlink:title=" ">
<polygon fill="white" stroke="#666666" points="277.62,-32 154.38,-32 154.38,0 277.62,0 277.62,-32"/>
<text xml:space="preserve" text-anchor="start" x="162.38" y="-18.5" font-family="Helvetica,sans-Serif" font-size="10.00">Cpp/spatialstructures</text>
<text xml:space="preserve" text-anchor="middle" x="216" y="-6.5" font-family="Helvetica,sans-Serif" font-size="10.00">/src/cost_algorithms.cpp</text>
</a>
</g>
</g>
<!-- Node1&#45;&gt;Node3 -->
<g id="edge2" class="edge">
<title>Node1&#45;&gt;Node3</title>
<path fill="none" stroke="#63b8ff" d="M167.74,-60.05C177.97,-50.92 189.47,-40.67 198.67,-32.45"/>
<polygon fill="#63b8ff" stroke="#63b8ff" points="165.43,-57.42 160.29,-66.68 170.09,-62.64 165.43,-57.42"/>
</g>
</g>
</svg>
