<?xml version="1.0" encoding="UTF-8" standalone="no"?>
<!DOCTYPE svg PUBLIC "-//W3C//DTD SVG 1.1//EN"
 "http://www.w3.org/Graphics/SVG/1.1/DTD/svg11.dtd">
<!-- Generated by graphviz version 13.1.2 (20250808.2320)
 -->
<!-- Title: Cpp/spatialstructures/src/graph.h Pages: 1 -->
<svg width="1368pt" height="176pt"
 viewBox="0.00 0.00 1368.00 176.00" xmlns="http://www.w3.org/2000/svg" xmlns:xlink="http://www.w3.org/1999/xlink">
<g id="graph0" class="graph" transform="scale(1 1) rotate(0) translate(4 172)">
<title>Cpp/spatialstructures/src/graph.h</title>
<!-- Node1 -->
<g id="node1" class="node">
<title>Node1</title>
<g id="a_node1"><a xlink:title="Contains definitions for the Graph &#160;class.">
<polygon fill="#999999" stroke="#666666" points="711.26,-168 602.26,-168 602.26,-136 711.26,-136 711.26,-168"/>
<text xml:space="preserve" text-anchor="start" x="610.26" y="-154.5" font-family="Helvetica,sans-Serif" font-size="10.00">Cpp/spatialstructures</text>
<text xml:space="preserve" text-anchor="middle" x="656.76" y="-142.5" font-family="Helvetica,sans-Serif" font-size="10.00">/src/graph.h</text>
</a>
</g>
</g>
<!-- Node2 -->
<g id="node2" class="node">
<title>Node2</title>
<g id="a_node2"><a xlink:href="a00404.html" target="_top" xlink:title=" ">
<polygon fill="white" stroke="#666666" points="266.76,-32 166.76,-32 166.76,0 266.76,0 266.76,-32"/>
<text xml:space="preserve" text-anchor="start" x="174.76" y="-18.5" font-family="Helvetica,sans-Serif" font-size="10.00">Cinterface/analysis</text>
<text xml:space="preserve" text-anchor="middle" x="216.76" y="-6.5" font-family="Helvetica,sans-Serif" font-size="10.00">_C.cpp</text>
</a>
</g>
</g>
<!-- Node1&#45;&gt;Node2 -->
<g id="edge1" class="edge">
<title>Node1&#45;&gt;Node2</title>
<path fill="none" stroke="#63b8ff" d="M590.53,-150.74C433.64,-149.44 49.54,-141.96 10.76,-100 -37.59,-47.68 91.14,-27.65 166.54,-20.55"/>
<polygon fill="#63b8ff" stroke="#63b8ff" points="590.33,-154.24 600.36,-150.82 590.38,-147.24 590.33,-154.24"/>
</g>
<!-- Node3 -->
<g id="node3" class="node">
<title>Node3</title>
<g id="a_node3"><a xlink:href="a00422.html" target="_top" xlink:title=" ">
<polygon fill="white" stroke="#666666" points="126.14,-100 19.39,-100 19.39,-68 126.14,-68 126.14,-100"/>
<text xml:space="preserve" text-anchor="start" x="27.39" y="-86.5" font-family="Helvetica,sans-Serif" font-size="10.00">Cinterface/pathfinder</text>
<text xml:space="preserve" text-anchor="middle" x="72.76" y="-74.5" font-family="Helvetica,sans-Serif" font-size="10.00">_C.cpp</text>
</a>
</g>
</g>
<!-- Node1&#45;&gt;Node3 -->
<g id="edge2" class="edge">
<title>Node1&#45;&gt;Node3</title>
<path fill="none" stroke="#63b8ff" d="M590.58,-147.51C491.1,-141.6 297.34,-127.47 134.76,-100 132.03,-99.54 129.24,-99.02 126.43,-98.47"/>
<polygon fill="#63b8ff" stroke="#63b8ff" points="590.25,-151 600.43,-148.09 590.65,-144.01 590.25,-151"/>
</g>
<!-- Node4 -->
<g id="node4" class="node">
<title>Node4</title>
<g id="a_node4"><a xlink:href="a00434.html" target="_top" xlink:title=" ">
<polygon fill="white" stroke="#666666" points="279.76,-100 143.76,-100 143.76,-68 279.76,-68 279.76,-100"/>
<text xml:space="preserve" text-anchor="start" x="151.76" y="-86.5" font-family="Helvetica,sans-Serif" font-size="10.00">Cinterface/spatialstructures</text>
<text xml:space="preserve" text-anchor="middle" x="211.76" y="-74.5" font-family="Helvetica,sans-Serif" font-size="10.00">_C.cpp</text>
</a>
</g>
</g>
<!-- Node1&#45;&gt;Node4 -->
<g id="edge3" class="edge">
<title>Node1&#45;&gt;Node4</title>
<path fill="none" stroke="#63b8ff" d="M590.65,-142.94C516.86,-133.7 393.99,-117.53 288.76,-100 285.94,-99.53 283.06,-99.04 280.16,-98.53"/>
<polygon fill="#63b8ff" stroke="#63b8ff" points="590.2,-146.42 600.56,-144.18 591.07,-139.47 590.2,-146.42"/>
</g>
<!-- Node5 -->
<g id="node5" class="node">
<title>Node5</title>
<g id="a_node5"><a xlink:href="a00440.html" target="_top" xlink:title=" ">
<polygon fill="white" stroke="#666666" points="423.51,-100 298.01,-100 298.01,-68 423.51,-68 423.51,-100"/>
<text xml:space="preserve" text-anchor="start" x="306.01" y="-86.5" font-family="Helvetica,sans-Serif" font-size="10.00">Cinterface/view_analysis</text>
<text xml:space="preserve" text-anchor="middle" x="360.76" y="-74.5" font-family="Helvetica,sans-Serif" font-size="10.00">_C.cpp</text>
</a>
</g>
</g>
<!-- Node1&#45;&gt;Node5 -->
<g id="edge4" class="edge">
<title>Node1&#45;&gt;Node5</title>
<path fill="none" stroke="#63b8ff" d="M590.8,-136.29C540.99,-125.19 473.04,-110.04 423.92,-99.08"/>
<polygon fill="#63b8ff" stroke="#63b8ff" points="589.78,-139.65 600.3,-138.41 591.3,-132.82 589.78,-139.65"/>
</g>
<!-- Node6 -->
<g id="node6" class="node">
<title>Node6</title>
<g id="a_node6"><a xlink:href="a00446.html" target="_top" xlink:title=" ">
<polygon fill="white" stroke="#666666" points="540.39,-100 441.14,-100 441.14,-68 540.39,-68 540.39,-100"/>
<text xml:space="preserve" text-anchor="start" x="449.14" y="-86.5" font-family="Helvetica,sans-Serif" font-size="10.00">Cinterface/visibility</text>
<text xml:space="preserve" text-anchor="middle" x="490.76" y="-74.5" font-family="Helvetica,sans-Serif" font-size="10.00">_graph_C.cpp</text>
</a>
</g>
</g>
<!-- Node1&#45;&gt;Node6 -->
<g id="edge5" class="edge">
<title>Node1&#45;&gt;Node6</title>
<path fill="none" stroke="#63b8ff" d="M607.19,-131.29C582.41,-121.44 552.85,-109.69 529.72,-100.49"/>
<polygon fill="#63b8ff" stroke="#63b8ff" points="605.85,-134.52 616.43,-134.97 608.43,-128.02 605.85,-134.52"/>
</g>
<!-- Node7 -->
<g id="node7" class="node">
<title>Node7</title>
<g id="a_node7"><a xlink:href="a00005.html" target="_top" xlink:title="Contains implementation for the functions in the GraphGenerator class.">
<polygon fill="white" stroke="#666666" points="761.76,-32 637.76,-32 637.76,0 761.76,0 761.76,-32"/>
<text xml:space="preserve" text-anchor="start" x="645.76" y="-18.5" font-family="Helvetica,sans-Serif" font-size="10.00">Cpp/analysismethods</text>
<text xml:space="preserve" text-anchor="middle" x="699.76" y="-6.5" font-family="Helvetica,sans-Serif" font-size="10.00">/src/graph_generator.cpp</text>
</a>
</g>
</g>
<!-- Node1&#45;&gt;Node7 -->
<g id="edge6" class="edge">
<title>Node1&#45;&gt;Node7</title>
<path fill="none" stroke="#63b8ff" d="M670.06,-125.54C673.89,-117.51 677.82,-108.52 680.76,-100 688.72,-76.94 694.31,-49.13 697.28,-32.27"/>
<polygon fill="#63b8ff" stroke="#63b8ff" points="666.98,-123.87 665.67,-134.38 673.25,-126.97 666.98,-123.87"/>
</g>
<!-- Node8 -->
<g id="node8" class="node">
<title>Node8</title>
<g id="a_node8"><a xlink:href="a00008.html" target="_top" xlink:title="Contains declarations for all functions related to the graph generator.">
<polygon fill="white" stroke="#666666" points="671.51,-100 558.01,-100 558.01,-68 671.51,-68 671.51,-100"/>
<text xml:space="preserve" text-anchor="start" x="566.01" y="-86.5" font-family="Helvetica,sans-Serif" font-size="10.00">Cpp/analysismethods</text>
<text xml:space="preserve" text-anchor="middle" x="614.76" y="-74.5" font-family="Helvetica,sans-Serif" font-size="10.00">/src/graph_generator.h</text>
</a>
</g>
</g>
<!-- Node1&#45;&gt;Node8 -->
<g id="edge7" class="edge">
<title>Node1&#45;&gt;Node8</title>
<path fill="none" stroke="#63b8ff" d="M640.87,-126.02C635.34,-117.34 629.32,-107.88 624.45,-100.22"/>
<polygon fill="#63b8ff" stroke="#63b8ff" points="637.88,-127.86 646.21,-134.42 643.79,-124.1 637.88,-127.86"/>
</g>
<!-- Node10 -->
<g id="node10" class="node">
<title>Node10</title>
<g id="a_node10"><a xlink:href="a00026.html" target="_top" xlink:title="Contains implementation for the VisibilityGraph class.">
<polygon fill="white" stroke="#666666" points="846.14,-100 727.39,-100 727.39,-68 846.14,-68 846.14,-100"/>
<text xml:space="preserve" text-anchor="start" x="735.39" y="-86.5" font-family="Helvetica,sans-Serif" font-size="10.00">Cpp/analysismethods</text>
<text xml:space="preserve" text-anchor="middle" x="786.76" y="-74.5" font-family="Helvetica,sans-Serif" font-size="10.00">/src/visibility_graph.cpp</text>
</a>
</g>
</g>
<!-- Node1&#45;&gt;Node10 -->
<g id="edge11" class="edge">
<title>Node1&#45;&gt;Node10</title>
<path fill="none" stroke="#63b8ff" d="M697.46,-130.34C716.55,-120.65 738.9,-109.3 756.47,-100.38"/>
<polygon fill="#63b8ff" stroke="#63b8ff" points="695.92,-127.19 688.59,-134.84 699.09,-133.43 695.92,-127.19"/>
</g>
<!-- Node11 -->
<g id="node11" class="node">
<title>Node11</title>
<g id="a_node11"><a xlink:href="a00197.html" target="_top" xlink:title="Contains implementation for the BoostGraph class.">
<polygon fill="white" stroke="#666666" points="965.14,-100 864.39,-100 864.39,-68 965.14,-68 965.14,-100"/>
<text xml:space="preserve" text-anchor="start" x="872.39" y="-86.5" font-family="Helvetica,sans-Serif" font-size="10.00">Cpp/pathfinding/src</text>
<text xml:space="preserve" text-anchor="middle" x="914.76" y="-74.5" font-family="Helvetica,sans-Serif" font-size="10.00">/boost_graph.cpp</text>
</a>
</g>
</g>
<!-- Node1&#45;&gt;Node11 -->
<g id="edge12" class="edge">
<title>Node1&#45;&gt;Node11</title>
<path fill="none" stroke="#63b8ff" d="M722.37,-134.22C766.39,-122.95 823.53,-108.34 864.07,-97.97"/>
<polygon fill="#63b8ff" stroke="#63b8ff" points="721.76,-130.76 712.94,-136.63 723.5,-137.54 721.76,-130.76"/>
</g>
<!-- Node12 -->
<g id="node12" class="node">
<title>Node12</title>
<g id="a_node12"><a xlink:href="a00245.html" target="_top" xlink:title="Contains implementation for the CInterface.">
<polygon fill="white" stroke="#666666" points="1092.26,-100 983.26,-100 983.26,-68 1092.26,-68 1092.26,-100"/>
<text xml:space="preserve" text-anchor="start" x="991.26" y="-86.5" font-family="Helvetica,sans-Serif" font-size="10.00">Cpp/spatialstructures</text>
<text xml:space="preserve" text-anchor="middle" x="1037.76" y="-74.5" font-family="Helvetica,sans-Serif" font-size="10.00">/src/CInterface.cpp</text>
</a>
</g>
</g>
<!-- Node1&#45;&gt;Node12 -->
<g id="edge13" class="edge">
<title>Node1&#45;&gt;Node12</title>
<path fill="none" stroke="#63b8ff" d="M722.84,-141.76C787.14,-132.44 887.48,-117.03 973.76,-100 976.78,-99.4 979.88,-98.77 983,-98.1"/>
<polygon fill="#63b8ff" stroke="#63b8ff" points="722.56,-138.26 713.16,-143.15 723.56,-145.19 722.56,-138.26"/>
</g>
<!-- Node13 -->
<g id="node13" class="node">
<title>Node13</title>
<g id="a_node13"><a xlink:href="a00254.html" target="_top" xlink:title=" ">
<polygon fill="white" stroke="#666666" points="1233.39,-100 1110.14,-100 1110.14,-68 1233.39,-68 1233.39,-100"/>
<text xml:space="preserve" text-anchor="start" x="1118.14" y="-86.5" font-family="Helvetica,sans-Serif" font-size="10.00">Cpp/spatialstructures</text>
<text xml:space="preserve" text-anchor="middle" x="1171.76" y="-74.5" font-family="Helvetica,sans-Serif" font-size="10.00">/src/cost_algorithms.cpp</text>
</a>
</g>
</g>
<!-- Node1&#45;&gt;Node13 -->
<g id="edge14" class="edge">
<title>Node1&#45;&gt;Node13</title>
<path fill="none" stroke="#63b8ff" d="M722.76,-145.45C809.88,-137.67 967.92,-121.96 1101.76,-100 1104.46,-99.56 1107.21,-99.08 1109.99,-98.58"/>
<polygon fill="#63b8ff" stroke="#63b8ff" points="722.62,-141.95 712.96,-146.32 723.23,-148.92 722.62,-141.95"/>
</g>
<!-- Node14 -->
<g id="node14" class="node">
<title>Node14</title>
<g id="a_node14"><a xlink:href="a00266.html" target="_top" xlink:title="Contains implementation for the Graph class.">
<polygon fill="white" stroke="#666666" points="1360.26,-100 1251.26,-100 1251.26,-68 1360.26,-68 1360.26,-100"/>
<text xml:space="preserve" text-anchor="start" x="1259.26" y="-86.5" font-family="Helvetica,sans-Serif" font-size="10.00">Cpp/spatialstructures</text>
<text xml:space="preserve" text-anchor="middle" x="1305.76" y="-74.5" font-family="Helvetica,sans-Serif" font-size="10.00">/src/graph.cpp</text>
</a>
</g>
</g>
<!-- Node1&#45;&gt;Node14 -->
<g id="edge15" class="edge">
<title>Node1&#45;&gt;Node14</title>
<path fill="none" stroke="#63b8ff" d="M723.08,-148.4C832.1,-143.43 1055.76,-130.23 1242.76,-100 1245.42,-99.57 1248.14,-99.09 1250.88,-98.57"/>
<polygon fill="#63b8ff" stroke="#63b8ff" points="722.97,-144.91 713.14,-148.85 723.28,-151.9 722.97,-144.91"/>
</g>
<!-- Node8&#45;&gt;Node2 -->
<g id="edge8" class="edge">
<title>Node8&#45;&gt;Node2</title>
<path fill="none" stroke="#63b8ff" d="M546.67,-67.48C442.13,-47.77 330.34,-31.96 267.17,-23.52"/>
<polygon fill="#63b8ff" stroke="#63b8ff" points="545.78,-70.87 556.25,-69.3 547.09,-64 545.78,-70.87"/>
</g>
<!-- Node8&#45;&gt;Node7 -->
<g id="edge9" class="edge">
<title>Node8&#45;&gt;Node7</title>
<path fill="none" stroke="#63b8ff" d="M643.26,-60.87C655.27,-51.55 668.96,-40.91 679.86,-32.45"/>
<polygon fill="#63b8ff" stroke="#63b8ff" points="641.42,-57.87 635.67,-66.76 645.72,-63.4 641.42,-57.87"/>
</g>
<!-- Node9 -->
<g id="node9" class="node">
<title>Node9</title>
<g id="a_node9"><a xlink:href="a00011.html" target="_top" xlink:title=" ">
<polygon fill="white" stroke="#666666" points="620.01,-32 509.51,-32 509.51,0 620.01,0 620.01,-32"/>
<text xml:space="preserve" text-anchor="start" x="517.51" y="-18.5" font-family="Helvetica,sans-Serif" font-size="10.00">Cpp/analysismethods</text>
<text xml:space="preserve" text-anchor="middle" x="564.76" y="-6.5" font-family="Helvetica,sans-Serif" font-size="10.00">/src/graph_utils.cpp</text>
</a>
</g>
</g>
<!-- Node8&#45;&gt;Node9 -->
<g id="edge10" class="edge">
<title>Node8&#45;&gt;Node9</title>
<path fill="none" stroke="#63b8ff" d="M596.27,-58.59C589.57,-49.75 582.22,-40.04 576.29,-32.22"/>
<polygon fill="#63b8ff" stroke="#63b8ff" points="593.42,-60.63 602.25,-66.49 599,-56.4 593.42,-60.63"/>
</g>
</g>
</svg>
