<?xml version="1.0" encoding="UTF-8" standalone="no"?>
<!DOCTYPE svg PUBLIC "-//W3C//DTD SVG 1.1//EN"
 "http://www.w3.org/Graphics/SVG/1.1/DTD/svg11.dtd">
<!-- Generated by graphviz version 13.1.2 (20250808.2320)
 -->
<!-- Title: Cpp/raytracer/src/MultiRT.cpp Pages: 1 -->
<svg width="759pt" height="196pt"
 viewBox="0.00 0.00 759.00 196.00" xmlns="http://www.w3.org/2000/svg" xmlns:xlink="http://www.w3.org/1999/xlink">
<g id="graph0" class="graph" transform="scale(1 1) rotate(0) translate(4 192)">
<title>Cpp/raytracer/src/MultiRT.cpp</title>
<!-- Node1 -->
<g id="node1" class="node">
<title>Node1</title>
<g id="a_node1"><a xlink:title=" ">
<polygon fill="#999999" stroke="#666666" points="439.75,-188 293.25,-188 293.25,-168 439.75,-168 439.75,-188"/>
<text xml:space="preserve" text-anchor="middle" x="366.5" y="-174.5" font-family="Helvetica,sans-Serif" font-size="10.00">Cpp/raytracer/src/MultiRT.cpp</text>
</a>
</g>
</g>
<!-- Node2 -->
<g id="node2" class="node">
<title>Node2</title>
<g id="a_node2"><a xlink:href="a00224.html" target="_top" xlink:title=" ">
<polygon fill="white" stroke="#666666" points="317.12,-132 259.88,-132 259.88,-112 317.12,-112 317.12,-132"/>
<text xml:space="preserve" text-anchor="middle" x="288.5" y="-118.5" font-family="Helvetica,sans-Serif" font-size="10.00">MultiRT.h</text>
</a>
</g>
</g>
<!-- Node1&#45;&gt;Node2 -->
<g id="edge1" class="edge">
<title>Node1&#45;&gt;Node2</title>
<path fill="none" stroke="#63b8ff" d="M352.91,-167.59C341.46,-159.67 324.84,-148.16 311.34,-138.82"/>
<polygon fill="#63b8ff" stroke="#63b8ff" points="313.65,-136.16 303.44,-133.34 309.67,-141.91 313.65,-136.16"/>
</g>
<!-- Node5 -->
<g id="node5" class="node">
<title>Node5</title>
<g id="a_node5"><a xlink:href="a00212.html" target="_top" xlink:title="Contains definitions for the EmbreeRayTracer">
<polygon fill="white" stroke="#666666" points="233.5,-132 133.5,-132 133.5,-112 233.5,-112 233.5,-132"/>
<text xml:space="preserve" text-anchor="middle" x="183.5" y="-118.5" font-family="Helvetica,sans-Serif" font-size="10.00">embree_raytracer.h</text>
</a>
</g>
</g>
<!-- Node1&#45;&gt;Node5 -->
<g id="edge4" class="edge">
<title>Node1&#45;&gt;Node5</title>
<path fill="none" stroke="#63b8ff" d="M334.62,-167.59C304.63,-158.74 259.5,-145.43 226.36,-135.65"/>
<polygon fill="#63b8ff" stroke="#63b8ff" points="227.66,-132.38 217.08,-132.91 225.68,-139.09 227.66,-132.38"/>
</g>
<!-- Node9 -->
<g id="node9" class="node">
<title>Node9</title>
<g id="a_node9"><a xlink:href="a00239.html" target="_top" xlink:title=" ">
<polygon fill="white" stroke="#666666" points="397.38,-132 335.62,-132 335.62,-112 397.38,-112 397.38,-132"/>
<text xml:space="preserve" text-anchor="middle" x="366.5" y="-118.5" font-family="Helvetica,sans-Serif" font-size="10.00">ray_data.h</text>
</a>
</g>
</g>
<!-- Node1&#45;&gt;Node9 -->
<g id="edge10" class="edge">
<title>Node1&#45;&gt;Node9</title>
<path fill="none" stroke="#63b8ff" d="M366.5,-167.59C366.5,-161.01 366.5,-151.96 366.5,-143.73"/>
<polygon fill="#63b8ff" stroke="#63b8ff" points="370,-143.81 366.5,-133.81 363,-143.81 370,-143.81"/>
</g>
<!-- Node12 -->
<g id="node12" class="node">
<title>Node12</title>
<g id="a_node12"><a xlink:title=" ">
<polygon fill="#e0e0e0" stroke="#999999" points="750.62,-20 702.38,-20 702.38,0 750.62,0 750.62,-20"/>
<text xml:space="preserve" text-anchor="middle" x="726.5" y="-6.5" font-family="Helvetica,sans-Serif" font-size="10.00">cassert</text>
</a>
</g>
</g>
<!-- Node1&#45;&gt;Node12 -->
<g id="edge27" class="edge">
<title>Node1&#45;&gt;Node12</title>
<path fill="none" stroke="#63b8ff" d="M386.89,-167.6C447.16,-139.81 624.74,-57.92 696.2,-24.97"/>
<polygon fill="#63b8ff" stroke="#63b8ff" points="697.35,-28.3 704.96,-20.93 694.42,-21.94 697.35,-28.3"/>
</g>
<!-- Node23 -->
<g id="node23" class="node">
<title>Node23</title>
<g id="a_node23"><a xlink:title=" ">
<polygon fill="#e0e0e0" stroke="#999999" points="565.12,-132 519.88,-132 519.88,-112 565.12,-112 565.12,-132"/>
<text xml:space="preserve" text-anchor="middle" x="542.5" y="-118.5" font-family="Helvetica,sans-Serif" font-size="10.00">stdio.h</text>
</a>
</g>
</g>
<!-- Node1&#45;&gt;Node23 -->
<g id="edge28" class="edge">
<title>Node1&#45;&gt;Node23</title>
<path fill="none" stroke="#63b8ff" d="M397.16,-167.59C428.34,-158.03 476.55,-143.23 508.79,-133.34"/>
<polygon fill="#63b8ff" stroke="#63b8ff" points="509.5,-136.79 518.03,-130.51 507.45,-130.09 509.5,-136.79"/>
</g>
<!-- Node3 -->
<g id="node3" class="node">
<title>Node3</title>
<g id="a_node3"><a xlink:title=" ">
<polygon fill="#e0e0e0" stroke="#999999" points="241.38,-76 203.62,-76 203.62,-56 241.38,-56 241.38,-76"/>
<text xml:space="preserve" text-anchor="middle" x="222.5" y="-62.5" font-family="Helvetica,sans-Serif" font-size="10.00">array</text>
</a>
</g>
</g>
<!-- Node2&#45;&gt;Node3 -->
<g id="edge2" class="edge">
<title>Node2&#45;&gt;Node3</title>
<path fill="none" stroke="#63b8ff" d="M277,-111.59C267.54,-103.85 253.9,-92.69 242.63,-83.47"/>
<polygon fill="#63b8ff" stroke="#63b8ff" points="244.99,-80.88 235.04,-77.26 240.56,-86.3 244.99,-80.88"/>
</g>
<!-- Node4 -->
<g id="node4" class="node">
<title>Node4</title>
<g id="a_node4"><a xlink:href="a00218.html" target="_top" xlink:title=" ">
<polygon fill="white" stroke="#666666" points="323.12,-76 259.88,-76 259.88,-56 323.12,-56 323.12,-76"/>
<text xml:space="preserve" text-anchor="middle" x="291.5" y="-62.5" font-family="Helvetica,sans-Serif" font-size="10.00">HitStruct.h</text>
</a>
</g>
</g>
<!-- Node2&#45;&gt;Node4 -->
<g id="edge3" class="edge">
<title>Node2&#45;&gt;Node4</title>
<path fill="none" stroke="#63b8ff" d="M289.02,-111.59C289.39,-105.01 289.89,-95.96 290.35,-87.73"/>
<polygon fill="#63b8ff" stroke="#63b8ff" points="293.84,-87.99 290.9,-77.81 286.85,-87.6 293.84,-87.99"/>
</g>
<!-- Node5&#45;&gt;Node3 -->
<g id="edge7" class="edge">
<title>Node5&#45;&gt;Node3</title>
<path fill="none" stroke="#63b8ff" d="M190.29,-111.59C195.49,-104.39 202.83,-94.23 209.19,-85.43"/>
<polygon fill="#63b8ff" stroke="#63b8ff" points="211.88,-87.68 214.9,-77.53 206.21,-83.58 211.88,-87.68"/>
</g>
<!-- Node5&#45;&gt;Node4 -->
<g id="edge8" class="edge">
<title>Node5&#45;&gt;Node4</title>
<path fill="none" stroke="#63b8ff" d="M202.31,-111.59C218.86,-103.32 243.21,-91.14 262.29,-81.6"/>
<polygon fill="#63b8ff" stroke="#63b8ff" points="263.81,-84.76 271.19,-77.16 260.68,-78.5 263.81,-84.76"/>
</g>
<!-- Node6 -->
<g id="node6" class="node">
<title>Node6</title>
<g id="a_node6"><a xlink:title=" ">
<polygon fill="#e0e0e0" stroke="#999999" points="147,-76 98,-76 98,-56 147,-56 147,-76"/>
<text xml:space="preserve" text-anchor="middle" x="122.5" y="-62.5" font-family="Helvetica,sans-Serif" font-size="10.00">rtcore.h</text>
</a>
</g>
</g>
<!-- Node5&#45;&gt;Node6 -->
<g id="edge5" class="edge">
<title>Node5&#45;&gt;Node6</title>
<path fill="none" stroke="#63b8ff" d="M172.87,-111.59C164.22,-103.93 151.77,-92.91 141.42,-83.75"/>
<polygon fill="#63b8ff" stroke="#63b8ff" points="143.94,-81.31 134.14,-77.3 139.3,-86.55 143.94,-81.31"/>
</g>
<!-- Node7 -->
<g id="node7" class="node">
<title>Node7</title>
<g id="a_node7"><a xlink:title=" ">
<polygon fill="#e0e0e0" stroke="#999999" points="43,-20 0,-20 0,0 43,0 43,-20"/>
<text xml:space="preserve" text-anchor="middle" x="21.5" y="-6.5" font-family="Helvetica,sans-Serif" font-size="10.00">vector</text>
</a>
</g>
</g>
<!-- Node5&#45;&gt;Node7 -->
<g id="edge6" class="edge">
<title>Node5&#45;&gt;Node7</title>
<path fill="none" stroke="#63b8ff" d="M181.96,-111.64C179.16,-97.61 171.95,-71.15 155.5,-56 151.62,-52.43 92.45,-33.34 54.05,-21.2"/>
<polygon fill="#63b8ff" stroke="#63b8ff" points="55.39,-17.95 44.8,-18.28 53.28,-24.63 55.39,-17.95"/>
</g>
<!-- Node8 -->
<g id="node8" class="node">
<title>Node8</title>
<g id="a_node8"><a xlink:title=" ">
<polygon fill="#e0e0e0" stroke="#999999" points="80,-76 37,-76 37,-56 80,-56 80,-76"/>
<text xml:space="preserve" text-anchor="middle" x="58.5" y="-62.5" font-family="Helvetica,sans-Serif" font-size="10.00">omp.h</text>
</a>
</g>
</g>
<!-- Node5&#45;&gt;Node8 -->
<g id="edge9" class="edge">
<title>Node5&#45;&gt;Node8</title>
<path fill="none" stroke="#63b8ff" d="M161.73,-111.59C142.13,-103.13 113.07,-90.58 90.78,-80.94"/>
<polygon fill="#63b8ff" stroke="#63b8ff" points="92.4,-77.83 81.83,-77.08 89.62,-84.26 92.4,-77.83"/>
</g>
<!-- Node9&#45;&gt;Node3 -->
<g id="edge26" class="edge">
<title>Node9&#45;&gt;Node3</title>
<path fill="none" stroke="#63b8ff" d="M341.42,-111.59C316.6,-102.29 278.61,-88.04 252.27,-78.16"/>
<polygon fill="#63b8ff" stroke="#63b8ff" points="253.78,-74.99 243.19,-74.76 251.32,-81.55 253.78,-74.99"/>
</g>
<!-- Node9&#45;&gt;Node4 -->
<g id="edge24" class="edge">
<title>Node9&#45;&gt;Node4</title>
<path fill="none" stroke="#63b8ff" d="M353.44,-111.59C342.53,-103.74 326.75,-92.38 313.84,-83.09"/>
<polygon fill="#63b8ff" stroke="#63b8ff" points="316.05,-80.37 305.89,-77.36 311.96,-86.05 316.05,-80.37"/>
</g>
<!-- Node10 -->
<g id="node10" class="node">
<title>Node10</title>
<g id="a_node10"><a xlink:href="a00227.html" target="_top" xlink:title=" ">
<polygon fill="white" stroke="#666666" points="392.12,-76 340.88,-76 340.88,-56 392.12,-56 392.12,-76"/>
<text xml:space="preserve" text-anchor="middle" x="366.5" y="-62.5" font-family="Helvetica,sans-Serif" font-size="10.00">nanort.h</text>
</a>
</g>
</g>
<!-- Node9&#45;&gt;Node10 -->
<g id="edge11" class="edge">
<title>Node9&#45;&gt;Node10</title>
<path fill="none" stroke="#63b8ff" d="M366.5,-111.59C366.5,-105.01 366.5,-95.96 366.5,-87.73"/>
<polygon fill="#63b8ff" stroke="#63b8ff" points="370,-87.81 366.5,-77.81 363,-87.81 370,-87.81"/>
</g>
<!-- Node22 -->
<g id="node22" class="node">
<title>Node22</title>
<g id="a_node22"><a xlink:title=" ">
<polygon fill="#e0e0e0" stroke="#999999" points="463.25,-76 409.75,-76 409.75,-56 463.25,-56 463.25,-76"/>
<text xml:space="preserve" text-anchor="middle" x="436.5" y="-62.5" font-family="Helvetica,sans-Serif" font-size="10.00">iostream</text>
</a>
</g>
</g>
<!-- Node9&#45;&gt;Node22 -->
<g id="edge25" class="edge">
<title>Node9&#45;&gt;Node22</title>
<path fill="none" stroke="#63b8ff" d="M378.69,-111.59C388.83,-103.77 403.49,-92.46 415.51,-83.19"/>
<polygon fill="#63b8ff" stroke="#63b8ff" points="417.47,-86.1 423.25,-77.22 413.19,-80.56 417.47,-86.1"/>
</g>
<!-- Node10&#45;&gt;Node7 -->
<g id="edge23" class="edge">
<title>Node10&#45;&gt;Node7</title>
<path fill="none" stroke="#63b8ff" d="M340.59,-57.77C337.87,-57.12 335.14,-56.52 332.5,-56 212.43,-32.52 176.67,-45.4 54.27,-20.3"/>
<polygon fill="#63b8ff" stroke="#63b8ff" points="55.33,-16.95 44.83,-18.32 53.9,-23.8 55.33,-16.95"/>
</g>
<!-- Node11 -->
<g id="node11" class="node">
<title>Node11</title>
<g id="a_node11"><a xlink:title=" ">
<polygon fill="#e0e0e0" stroke="#999999" points="361.38,-20 305.62,-20 305.62,0 361.38,0 361.38,-20"/>
<text xml:space="preserve" text-anchor="middle" x="333.5" y="-6.5" font-family="Helvetica,sans-Serif" font-size="10.00">algorithm</text>
</a>
</g>
</g>
<!-- Node10&#45;&gt;Node11 -->
<g id="edge12" class="edge">
<title>Node10&#45;&gt;Node11</title>
<path fill="none" stroke="#63b8ff" d="M360.75,-55.59C356.45,-48.55 350.41,-38.67 345.11,-30"/>
<polygon fill="#63b8ff" stroke="#63b8ff" points="348.17,-28.3 339.97,-21.59 342.2,-31.95 348.17,-28.3"/>
</g>
<!-- Node10&#45;&gt;Node12 -->
<g id="edge13" class="edge">
<title>Node10&#45;&gt;Node12</title>
<path fill="none" stroke="#63b8ff" d="M392.4,-57.75C395.13,-57.11 397.86,-56.51 400.5,-56 525.81,-31.83 562.76,-44.58 691.04,-20.22"/>
<polygon fill="#63b8ff" stroke="#63b8ff" points="691.45,-23.71 700.6,-18.37 690.11,-16.84 691.45,-23.71"/>
</g>
<!-- Node13 -->
<g id="node13" class="node">
<title>Node13</title>
<g id="a_node13"><a xlink:title=" ">
<polygon fill="#e0e0e0" stroke="#999999" points="422,-20 379,-20 379,0 422,0 422,-20"/>
<text xml:space="preserve" text-anchor="middle" x="400.5" y="-6.5" font-family="Helvetica,sans-Serif" font-size="10.00">cmath</text>
</a>
</g>
</g>
<!-- Node10&#45;&gt;Node13 -->
<g id="edge14" class="edge">
<title>Node10&#45;&gt;Node13</title>
<path fill="none" stroke="#63b8ff" d="M372.42,-55.59C376.86,-48.55 383.08,-38.67 388.54,-30"/>
<polygon fill="#63b8ff" stroke="#63b8ff" points="391.47,-31.91 393.84,-21.58 385.55,-28.18 391.47,-31.91"/>
</g>
<!-- Node14 -->
<g id="node14" class="node">
<title>Node14</title>
<g id="a_node14"><a xlink:title=" ">
<polygon fill="#e0e0e0" stroke="#999999" points="482.62,-20 440.38,-20 440.38,0 482.62,0 482.62,-20"/>
<text xml:space="preserve" text-anchor="middle" x="461.5" y="-6.5" font-family="Helvetica,sans-Serif" font-size="10.00">cstdio</text>
</a>
</g>
</g>
<!-- Node10&#45;&gt;Node14 -->
<g id="edge15" class="edge">
<title>Node10&#45;&gt;Node14</title>
<path fill="none" stroke="#63b8ff" d="M383.05,-55.59C397.4,-47.44 418.43,-35.48 435.1,-26"/>
<polygon fill="#63b8ff" stroke="#63b8ff" points="436.54,-29.21 443.51,-21.23 433.08,-23.13 436.54,-29.21"/>
</g>
<!-- Node15 -->
<g id="node15" class="node">
<title>Node15</title>
<g id="a_node15"><a xlink:title=" ">
<polygon fill="#e0e0e0" stroke="#999999" points="544.75,-20 500.25,-20 500.25,0 544.75,0 544.75,-20"/>
<text xml:space="preserve" text-anchor="middle" x="522.5" y="-6.5" font-family="Helvetica,sans-Serif" font-size="10.00">cstdlib</text>
</a>
</g>
</g>
<!-- Node10&#45;&gt;Node15 -->
<g id="edge16" class="edge">
<title>Node10&#45;&gt;Node15</title>
<path fill="none" stroke="#63b8ff" d="M392.61,-55.96C419.11,-46.79 460.22,-32.56 489.08,-22.57"/>
<polygon fill="#63b8ff" stroke="#63b8ff" points="490.12,-25.91 498.43,-19.33 487.83,-19.3 490.12,-25.91"/>
</g>
<!-- Node16 -->
<g id="node16" class="node">
<title>Node16</title>
<g id="a_node16"><a xlink:title=" ">
<polygon fill="#e0e0e0" stroke="#999999" points="608.12,-20 562.88,-20 562.88,0 608.12,0 608.12,-20"/>
<text xml:space="preserve" text-anchor="middle" x="585.5" y="-6.5" font-family="Helvetica,sans-Serif" font-size="10.00">cstring</text>
</a>
</g>
</g>
<!-- Node10&#45;&gt;Node16 -->
<g id="edge17" class="edge">
<title>Node10&#45;&gt;Node16</title>
<path fill="none" stroke="#63b8ff" d="M392.47,-58.05C395.18,-57.34 397.89,-56.65 400.5,-56 464.96,-39.89 484.02,-37.65 551.65,-20.39"/>
<polygon fill="#63b8ff" stroke="#63b8ff" points="552.18,-23.87 560.99,-17.99 550.44,-17.09 552.18,-23.87"/>
</g>
<!-- Node17 -->
<g id="node17" class="node">
<title>Node17</title>
<g id="a_node17"><a xlink:title=" ">
<polygon fill="#e0e0e0" stroke="#999999" points="684.5,-20 626.5,-20 626.5,0 684.5,0 684.5,-20"/>
<text xml:space="preserve" text-anchor="middle" x="655.5" y="-6.5" font-family="Helvetica,sans-Serif" font-size="10.00">functional</text>
</a>
</g>
</g>
<!-- Node10&#45;&gt;Node17 -->
<g id="edge18" class="edge">
<title>Node10&#45;&gt;Node17</title>
<path fill="none" stroke="#63b8ff" d="M392.43,-57.87C395.15,-57.2 397.87,-56.56 400.5,-56 492.63,-36.21 519.72,-39.03 615.07,-20.37"/>
<polygon fill="#63b8ff" stroke="#63b8ff" points="615.48,-23.86 624.6,-18.47 614.11,-16.99 615.48,-23.86"/>
</g>
<!-- Node18 -->
<g id="node18" class="node">
<title>Node18</title>
<g id="a_node18"><a xlink:title=" ">
<polygon fill="#e0e0e0" stroke="#999999" points="100.12,-20 60.88,-20 60.88,0 100.12,0 100.12,-20"/>
<text xml:space="preserve" text-anchor="middle" x="80.5" y="-6.5" font-family="Helvetica,sans-Serif" font-size="10.00">limits</text>
</a>
</g>
</g>
<!-- Node10&#45;&gt;Node18 -->
<g id="edge19" class="edge">
<title>Node10&#45;&gt;Node18</title>
<path fill="none" stroke="#63b8ff" d="M340.58,-57.85C337.86,-57.19 335.13,-56.56 332.5,-56 237.43,-35.83 208.62,-42.93 111.77,-20.51"/>
<polygon fill="#63b8ff" stroke="#63b8ff" points="112.59,-17.11 102.06,-18.21 110.98,-23.92 112.59,-17.11"/>
</g>
<!-- Node19 -->
<g id="node19" class="node">
<title>Node19</title>
<g id="a_node19"><a xlink:title=" ">
<polygon fill="#e0e0e0" stroke="#999999" points="169.12,-20 117.88,-20 117.88,0 169.12,0 169.12,-20"/>
<text xml:space="preserve" text-anchor="middle" x="143.5" y="-6.5" font-family="Helvetica,sans-Serif" font-size="10.00">memory</text>
</a>
</g>
</g>
<!-- Node10&#45;&gt;Node19 -->
<g id="edge20" class="edge">
<title>Node10&#45;&gt;Node19</title>
<path fill="none" stroke="#63b8ff" d="M340.53,-58.04C337.82,-57.34 335.11,-56.65 332.5,-56 267.63,-39.83 248.6,-37.01 180.38,-20.42"/>
<polygon fill="#63b8ff" stroke="#63b8ff" points="181.49,-17.08 170.95,-18.11 179.83,-23.88 181.49,-17.08"/>
</g>
<!-- Node20 -->
<g id="node20" class="node">
<title>Node20</title>
<g id="a_node20"><a xlink:title=" ">
<polygon fill="#e0e0e0" stroke="#999999" points="229.62,-20 187.38,-20 187.38,0 229.62,0 229.62,-20"/>
<text xml:space="preserve" text-anchor="middle" x="208.5" y="-6.5" font-family="Helvetica,sans-Serif" font-size="10.00">queue</text>
</a>
</g>
</g>
<!-- Node10&#45;&gt;Node20 -->
<g id="edge21" class="edge">
<title>Node10&#45;&gt;Node20</title>
<path fill="none" stroke="#63b8ff" d="M340.41,-56.08C313.05,-46.73 270.03,-32.03 240.6,-21.97"/>
<polygon fill="#63b8ff" stroke="#63b8ff" points="242.08,-18.78 231.49,-18.86 239.82,-25.4 242.08,-18.78"/>
</g>
<!-- Node21 -->
<g id="node21" class="node">
<title>Node21</title>
<g id="a_node21"><a xlink:title=" ">
<polygon fill="#e0e0e0" stroke="#999999" points="287.5,-20 247.5,-20 247.5,0 287.5,0 287.5,-20"/>
<text xml:space="preserve" text-anchor="middle" x="267.5" y="-6.5" font-family="Helvetica,sans-Serif" font-size="10.00">string</text>
</a>
</g>
</g>
<!-- Node10&#45;&gt;Node21 -->
<g id="edge22" class="edge">
<title>Node10&#45;&gt;Node21</title>
<path fill="none" stroke="#63b8ff" d="M349.26,-55.59C334.16,-47.36 311.97,-35.26 294.52,-25.74"/>
<polygon fill="#63b8ff" stroke="#63b8ff" points="296.66,-22.92 286.21,-21.2 293.31,-29.07 296.66,-22.92"/>
</g>
</g>
</svg>
