<?xml version="1.0" encoding="UTF-8" standalone="no"?>
<!DOCTYPE svg PUBLIC "-//W3C//DTD SVG 1.1//EN"
 "http://www.w3.org/Graphics/SVG/1.1/DTD/svg11.dtd">
<!-- Generated by graphviz version 13.1.2 (20250808.2320)
 -->
<!-- Title: Cpp/raytracer/src/ray_data.h Pages: 1 -->
<svg width="760pt" height="152pt"
 viewBox="0.00 0.00 760.00 152.00" xmlns="http://www.w3.org/2000/svg" xmlns:xlink="http://www.w3.org/1999/xlink">
<g id="graph0" class="graph" transform="scale(1 1) rotate(0) translate(4 148)">
<title>Cpp/raytracer/src/ray_data.h</title>
<!-- Node1 -->
<g id="node1" class="node">
<title>Node1</title>
<g id="a_node1"><a xlink:title=" ">
<polygon fill="#999999" stroke="#666666" points="549,-144 440.75,-144 440.75,-112 549,-112 549,-144"/>
<text xml:space="preserve" text-anchor="start" x="448.75" y="-130.5" font-family="Helvetica,sans-Serif" font-size="10.00">Cpp/raytracer/src/ray</text>
<text xml:space="preserve" text-anchor="middle" x="494.88" y="-118.5" font-family="Helvetica,sans-Serif" font-size="10.00">_data.h</text>
</a>
</g>
</g>
<!-- Node2 -->
<g id="node2" class="node">
<title>Node2</title>
<g id="a_node2"><a xlink:href="a00227.html" target="_top" xlink:title=" ">
<polygon fill="white" stroke="#666666" points="407.5,-76 356.25,-76 356.25,-56 407.5,-56 407.5,-76"/>
<text xml:space="preserve" text-anchor="middle" x="381.88" y="-62.5" font-family="Helvetica,sans-Serif" font-size="10.00">nanort.h</text>
</a>
</g>
</g>
<!-- Node1&#45;&gt;Node2 -->
<g id="edge1" class="edge">
<title>Node1&#45;&gt;Node2</title>
<path fill="none" stroke="#63b8ff" d="M465.77,-111.55C448.45,-102.35 426.58,-90.74 409.51,-81.68"/>
<polygon fill="#63b8ff" stroke="#63b8ff" points="411.4,-78.72 400.93,-77.12 408.12,-84.9 411.4,-78.72"/>
</g>
<!-- Node15 -->
<g id="node15" class="node">
<title>Node15</title>
<g id="a_node15"><a xlink:href="a00218.html" target="_top" xlink:title=" ">
<polygon fill="white" stroke="#666666" points="488.5,-76 425.25,-76 425.25,-56 488.5,-56 488.5,-76"/>
<text xml:space="preserve" text-anchor="middle" x="456.88" y="-62.5" font-family="Helvetica,sans-Serif" font-size="10.00">HitStruct.h</text>
</a>
</g>
</g>
<!-- Node1&#45;&gt;Node15 -->
<g id="edge14" class="edge">
<title>Node1&#45;&gt;Node15</title>
<path fill="none" stroke="#63b8ff" d="M485.09,-111.55C480.14,-103.74 474.09,-94.19 468.87,-85.94"/>
<polygon fill="#63b8ff" stroke="#63b8ff" points="471.95,-84.26 463.64,-77.69 466.04,-88.01 471.95,-84.26"/>
</g>
<!-- Node16 -->
<g id="node16" class="node">
<title>Node16</title>
<g id="a_node16"><a xlink:title=" ">
<polygon fill="#e0e0e0" stroke="#999999" points="559.62,-76 506.12,-76 506.12,-56 559.62,-56 559.62,-76"/>
<text xml:space="preserve" text-anchor="middle" x="532.88" y="-62.5" font-family="Helvetica,sans-Serif" font-size="10.00">iostream</text>
</a>
</g>
</g>
<!-- Node1&#45;&gt;Node16 -->
<g id="edge15" class="edge">
<title>Node1&#45;&gt;Node16</title>
<path fill="none" stroke="#63b8ff" d="M504.66,-111.55C509.61,-103.74 515.66,-94.19 520.88,-85.94"/>
<polygon fill="#63b8ff" stroke="#63b8ff" points="523.71,-88.01 526.11,-77.69 517.8,-84.26 523.71,-88.01"/>
</g>
<!-- Node17 -->
<g id="node17" class="node">
<title>Node17</title>
<g id="a_node17"><a xlink:title=" ">
<polygon fill="#e0e0e0" stroke="#999999" points="615.75,-76 578,-76 578,-56 615.75,-56 615.75,-76"/>
<text xml:space="preserve" text-anchor="middle" x="596.88" y="-62.5" font-family="Helvetica,sans-Serif" font-size="10.00">array</text>
</a>
</g>
</g>
<!-- Node1&#45;&gt;Node17 -->
<g id="edge16" class="edge">
<title>Node1&#45;&gt;Node17</title>
<path fill="none" stroke="#63b8ff" d="M521.14,-111.55C536.49,-102.52 555.78,-91.17 571.05,-82.19"/>
<polygon fill="#63b8ff" stroke="#63b8ff" points="572.73,-85.26 579.58,-77.18 569.18,-79.23 572.73,-85.26"/>
</g>
<!-- Node3 -->
<g id="node3" class="node">
<title>Node3</title>
<g id="a_node3"><a xlink:title=" ">
<polygon fill="#e0e0e0" stroke="#999999" points="55.75,-20 0,-20 0,0 55.75,0 55.75,-20"/>
<text xml:space="preserve" text-anchor="middle" x="27.88" y="-6.5" font-family="Helvetica,sans-Serif" font-size="10.00">algorithm</text>
</a>
</g>
</g>
<!-- Node2&#45;&gt;Node3 -->
<g id="edge2" class="edge">
<title>Node2&#45;&gt;Node3</title>
<path fill="none" stroke="#63b8ff" d="M355.85,-62.18C303.26,-56.29 180.4,-41.6 67.35,-20.31"/>
<polygon fill="#63b8ff" stroke="#63b8ff" points="68.06,-16.88 57.58,-18.45 66.75,-23.76 68.06,-16.88"/>
</g>
<!-- Node4 -->
<g id="node4" class="node">
<title>Node4</title>
<g id="a_node4"><a xlink:title=" ">
<polygon fill="#e0e0e0" stroke="#999999" points="122,-20 73.75,-20 73.75,0 122,0 122,-20"/>
<text xml:space="preserve" text-anchor="middle" x="97.88" y="-6.5" font-family="Helvetica,sans-Serif" font-size="10.00">cassert</text>
</a>
</g>
</g>
<!-- Node2&#45;&gt;Node4 -->
<g id="edge3" class="edge">
<title>Node2&#45;&gt;Node4</title>
<path fill="none" stroke="#63b8ff" d="M356.07,-61.15C312.28,-54.45 220.44,-39.69 133.45,-20.42"/>
<polygon fill="#63b8ff" stroke="#63b8ff" points="134.32,-17.03 123.8,-18.26 132.79,-23.86 134.32,-17.03"/>
</g>
<!-- Node5 -->
<g id="node5" class="node">
<title>Node5</title>
<g id="a_node5"><a xlink:title=" ">
<polygon fill="#e0e0e0" stroke="#999999" points="183.38,-20 140.38,-20 140.38,0 183.38,0 183.38,-20"/>
<text xml:space="preserve" text-anchor="middle" x="161.88" y="-6.5" font-family="Helvetica,sans-Serif" font-size="10.00">cmath</text>
</a>
</g>
</g>
<!-- Node2&#45;&gt;Node5 -->
<g id="edge4" class="edge">
<title>Node2&#45;&gt;Node5</title>
<path fill="none" stroke="#63b8ff" d="M355.79,-59.21C321.24,-51.46 258.16,-36.98 194.84,-20.42"/>
<polygon fill="#63b8ff" stroke="#63b8ff" points="195.88,-17.07 185.32,-17.91 194.1,-23.84 195.88,-17.07"/>
</g>
<!-- Node6 -->
<g id="node6" class="node">
<title>Node6</title>
<g id="a_node6"><a xlink:title=" ">
<polygon fill="#e0e0e0" stroke="#999999" points="244,-20 201.75,-20 201.75,0 244,0 244,-20"/>
<text xml:space="preserve" text-anchor="middle" x="222.88" y="-6.5" font-family="Helvetica,sans-Serif" font-size="10.00">cstdio</text>
</a>
</g>
</g>
<!-- Node2&#45;&gt;Node6 -->
<g id="edge5" class="edge">
<title>Node2&#45;&gt;Node6</title>
<path fill="none" stroke="#63b8ff" d="M355.98,-56.2C328.35,-46.82 284.57,-31.95 254.83,-21.85"/>
<polygon fill="#63b8ff" stroke="#63b8ff" points="256.21,-18.62 245.61,-18.72 253.95,-25.25 256.21,-18.62"/>
</g>
<!-- Node7 -->
<g id="node7" class="node">
<title>Node7</title>
<g id="a_node7"><a xlink:title=" ">
<polygon fill="#e0e0e0" stroke="#999999" points="306.12,-20 261.62,-20 261.62,0 306.12,0 306.12,-20"/>
<text xml:space="preserve" text-anchor="middle" x="283.88" y="-6.5" font-family="Helvetica,sans-Serif" font-size="10.00">cstdlib</text>
</a>
</g>
</g>
<!-- Node2&#45;&gt;Node7 -->
<g id="edge6" class="edge">
<title>Node2&#45;&gt;Node7</title>
<path fill="none" stroke="#63b8ff" d="M364.8,-55.59C350,-47.44 328.31,-35.48 311.11,-26"/>
<polygon fill="#63b8ff" stroke="#63b8ff" points="312.85,-22.97 302.4,-21.21 309.47,-29.1 312.85,-22.97"/>
</g>
<!-- Node8 -->
<g id="node8" class="node">
<title>Node8</title>
<g id="a_node8"><a xlink:title=" ">
<polygon fill="#e0e0e0" stroke="#999999" points="369.5,-20 324.25,-20 324.25,0 369.5,0 369.5,-20"/>
<text xml:space="preserve" text-anchor="middle" x="346.88" y="-6.5" font-family="Helvetica,sans-Serif" font-size="10.00">cstring</text>
</a>
</g>
</g>
<!-- Node2&#45;&gt;Node8 -->
<g id="edge7" class="edge">
<title>Node2&#45;&gt;Node8</title>
<path fill="none" stroke="#63b8ff" d="M375.78,-55.59C371.16,-48.47 364.67,-38.45 359.01,-29.72"/>
<polygon fill="#63b8ff" stroke="#63b8ff" points="362.1,-28.06 353.72,-21.57 356.23,-31.86 362.1,-28.06"/>
</g>
<!-- Node9 -->
<g id="node9" class="node">
<title>Node9</title>
<g id="a_node9"><a xlink:title=" ">
<polygon fill="#e0e0e0" stroke="#999999" points="445.88,-20 387.88,-20 387.88,0 445.88,0 445.88,-20"/>
<text xml:space="preserve" text-anchor="middle" x="416.88" y="-6.5" font-family="Helvetica,sans-Serif" font-size="10.00">functional</text>
</a>
</g>
</g>
<!-- Node2&#45;&gt;Node9 -->
<g id="edge8" class="edge">
<title>Node2&#45;&gt;Node9</title>
<path fill="none" stroke="#63b8ff" d="M387.97,-55.59C392.59,-48.47 399.08,-38.45 404.74,-29.72"/>
<polygon fill="#63b8ff" stroke="#63b8ff" points="407.52,-31.86 410.03,-21.57 401.65,-28.06 407.52,-31.86"/>
</g>
<!-- Node10 -->
<g id="node10" class="node">
<title>Node10</title>
<g id="a_node10"><a xlink:title=" ">
<polygon fill="#e0e0e0" stroke="#999999" points="503.5,-20 464.25,-20 464.25,0 503.5,0 503.5,-20"/>
<text xml:space="preserve" text-anchor="middle" x="483.88" y="-6.5" font-family="Helvetica,sans-Serif" font-size="10.00">limits</text>
</a>
</g>
</g>
<!-- Node2&#45;&gt;Node10 -->
<g id="edge9" class="edge">
<title>Node2&#45;&gt;Node10</title>
<path fill="none" stroke="#63b8ff" d="M399.64,-55.59C415.2,-47.36 438.06,-35.26 456.04,-25.74"/>
<polygon fill="#63b8ff" stroke="#63b8ff" points="457.43,-28.96 464.63,-21.19 454.16,-22.77 457.43,-28.96"/>
</g>
<!-- Node11 -->
<g id="node11" class="node">
<title>Node11</title>
<g id="a_node11"><a xlink:title=" ">
<polygon fill="#e0e0e0" stroke="#999999" points="572.5,-20 521.25,-20 521.25,0 572.5,0 572.5,-20"/>
<text xml:space="preserve" text-anchor="middle" x="546.88" y="-6.5" font-family="Helvetica,sans-Serif" font-size="10.00">memory</text>
</a>
</g>
</g>
<!-- Node2&#45;&gt;Node11 -->
<g id="edge10" class="edge">
<title>Node2&#45;&gt;Node11</title>
<path fill="none" stroke="#63b8ff" d="M407.66,-56.56C435.18,-47.55 479.04,-33.2 510.16,-23.01"/>
<polygon fill="#63b8ff" stroke="#63b8ff" points="511.15,-26.37 519.56,-19.94 508.97,-19.72 511.15,-26.37"/>
</g>
<!-- Node12 -->
<g id="node12" class="node">
<title>Node12</title>
<g id="a_node12"><a xlink:title=" ">
<polygon fill="#e0e0e0" stroke="#999999" points="633,-20 590.75,-20 590.75,0 633,0 633,-20"/>
<text xml:space="preserve" text-anchor="middle" x="611.88" y="-6.5" font-family="Helvetica,sans-Serif" font-size="10.00">queue</text>
</a>
</g>
</g>
<!-- Node2&#45;&gt;Node12 -->
<g id="edge11" class="edge">
<title>Node2&#45;&gt;Node12</title>
<path fill="none" stroke="#63b8ff" d="M407.83,-58C410.54,-57.31 413.26,-56.63 415.88,-56 485.83,-39.16 506.83,-38.85 579.23,-20.53"/>
<polygon fill="#63b8ff" stroke="#63b8ff" points="580.02,-23.94 588.84,-18.07 578.28,-17.16 580.02,-23.94"/>
</g>
<!-- Node13 -->
<g id="node13" class="node">
<title>Node13</title>
<g id="a_node13"><a xlink:title=" ">
<polygon fill="#e0e0e0" stroke="#999999" points="690.88,-20 650.88,-20 650.88,0 690.88,0 690.88,-20"/>
<text xml:space="preserve" text-anchor="middle" x="670.88" y="-6.5" font-family="Helvetica,sans-Serif" font-size="10.00">string</text>
</a>
</g>
</g>
<!-- Node2&#45;&gt;Node13 -->
<g id="edge12" class="edge">
<title>Node2&#45;&gt;Node13</title>
<path fill="none" stroke="#63b8ff" d="M407.8,-57.85C410.52,-57.19 413.25,-56.56 415.88,-56 511.89,-35.7 540.81,-42.59 639.33,-20.31"/>
<polygon fill="#63b8ff" stroke="#63b8ff" points="639.95,-23.76 648.9,-18.1 638.37,-16.94 639.95,-23.76"/>
</g>
<!-- Node14 -->
<g id="node14" class="node">
<title>Node14</title>
<g id="a_node14"><a xlink:title=" ">
<polygon fill="#e0e0e0" stroke="#999999" points="752.38,-20 709.38,-20 709.38,0 752.38,0 752.38,-20"/>
<text xml:space="preserve" text-anchor="middle" x="730.88" y="-6.5" font-family="Helvetica,sans-Serif" font-size="10.00">vector</text>
</a>
</g>
</g>
<!-- Node2&#45;&gt;Node14 -->
<g id="edge13" class="edge">
<title>Node2&#45;&gt;Node14</title>
<path fill="none" stroke="#63b8ff" d="M407.78,-57.76C410.5,-57.12 413.24,-56.51 415.88,-56 537.22,-32.36 573.26,-45.05 697.84,-20.1"/>
<polygon fill="#63b8ff" stroke="#63b8ff" points="698.39,-23.56 707.48,-18.12 696.98,-16.7 698.39,-23.56"/>
</g>
</g>
</svg>
