<?xml version="1.0" encoding="UTF-8" standalone="no"?>
<!DOCTYPE svg PUBLIC "-//W3C//DTD SVG 1.1//EN"
 "http://www.w3.org/Graphics/SVG/1.1/DTD/svg11.dtd">
<!-- Generated by graphviz version 13.1.2 (20250808.2320)
 -->
<!-- Title: Cpp/spatialstructures/src/edge.h Pages: 1 -->
<svg width="1452pt" height="244pt"
 viewBox="0.00 0.00 1452.00 244.00" xmlns="http://www.w3.org/2000/svg" xmlns:xlink="http://www.w3.org/1999/xlink">
<g id="graph0" class="graph" transform="scale(1 1) rotate(0) translate(4 240)">
<title>Cpp/spatialstructures/src/edge.h</title>
<!-- Node1 -->
<g id="node1" class="node">
<title>Node1</title>
<g id="a_node1"><a xlink:title="Contains definitions for the Edge structure.">
<polygon fill="#999999" stroke="#666666" points="473.52,-236 364.52,-236 364.52,-204 473.52,-204 473.52,-236"/>
<text xml:space="preserve" text-anchor="start" x="372.52" y="-222.5" font-family="Helvetica,sans-Serif" font-size="10.00">Cpp/spatialstructures</text>
<text xml:space="preserve" text-anchor="middle" x="419.02" y="-210.5" font-family="Helvetica,sans-Serif" font-size="10.00">/src/edge.h</text>
</a>
</g>
</g>
<!-- Node2 -->
<g id="node2" class="node">
<title>Node2</title>
<g id="a_node2"><a xlink:href="a00434.html" target="_top" xlink:title=" ">
<polygon fill="white" stroke="#666666" points="200.02,-100 64.02,-100 64.02,-68 200.02,-68 200.02,-100"/>
<text xml:space="preserve" text-anchor="start" x="72.02" y="-86.5" font-family="Helvetica,sans-Serif" font-size="10.00">Cinterface/spatialstructures</text>
<text xml:space="preserve" text-anchor="middle" x="132.02" y="-74.5" font-family="Helvetica,sans-Serif" font-size="10.00">_C.cpp</text>
</a>
</g>
</g>
<!-- Node1&#45;&gt;Node2 -->
<g id="edge1" class="edge">
<title>Node1&#45;&gt;Node2</title>
<path fill="none" stroke="#63b8ff" d="M352.94,-211.67C311.27,-204.9 257.5,-192.06 215.02,-168 184.51,-150.73 157.53,-119.2 143.11,-100.37"/>
<polygon fill="#63b8ff" stroke="#63b8ff" points="352.17,-215.1 362.58,-213.16 353.23,-208.18 352.17,-215.1"/>
</g>
<!-- Node3 -->
<g id="node3" class="node">
<title>Node3</title>
<g id="a_node3"><a xlink:href="a00005.html" target="_top" xlink:title="Contains implementation for the functions in the GraphGenerator class.">
<polygon fill="white" stroke="#666666" points="480.02,-32 356.02,-32 356.02,0 480.02,0 480.02,-32"/>
<text xml:space="preserve" text-anchor="start" x="364.02" y="-18.5" font-family="Helvetica,sans-Serif" font-size="10.00">Cpp/analysismethods</text>
<text xml:space="preserve" text-anchor="middle" x="418.02" y="-6.5" font-family="Helvetica,sans-Serif" font-size="10.00">/src/graph_generator.cpp</text>
</a>
</g>
</g>
<!-- Node1&#45;&gt;Node3 -->
<g id="edge2" class="edge">
<title>Node1&#45;&gt;Node3</title>
<path fill="none" stroke="#63b8ff" d="M353.03,-215.22C245.8,-208.39 43.49,-192.41 22.02,-168 -7.34,-134.63 -7.34,-101.37 22.02,-68 43.67,-43.37 249.73,-27.29 355.71,-20.57"/>
<polygon fill="#63b8ff" stroke="#63b8ff" points="352.64,-218.7 362.84,-215.83 353.08,-211.71 352.64,-218.7"/>
</g>
<!-- Node4 -->
<g id="node4" class="node">
<title>Node4</title>
<g id="a_node4"><a xlink:href="a00011.html" target="_top" xlink:title=" ">
<polygon fill="white" stroke="#666666" points="608.27,-32 497.77,-32 497.77,0 608.27,0 608.27,-32"/>
<text xml:space="preserve" text-anchor="start" x="505.77" y="-18.5" font-family="Helvetica,sans-Serif" font-size="10.00">Cpp/analysismethods</text>
<text xml:space="preserve" text-anchor="middle" x="553.02" y="-6.5" font-family="Helvetica,sans-Serif" font-size="10.00">/src/graph_utils.cpp</text>
</a>
</g>
</g>
<!-- Node1&#45;&gt;Node4 -->
<g id="edge3" class="edge">
<title>Node1&#45;&gt;Node4</title>
<path fill="none" stroke="#63b8ff" d="M353.12,-214.23C225.39,-202.7 -35.73,-166.58 55.02,-68 87.79,-32.4 441.22,-39.54 489.02,-32 491.83,-31.56 494.71,-31.05 497.61,-30.51"/>
<polygon fill="#63b8ff" stroke="#63b8ff" points="352.54,-217.7 362.8,-215.08 353.15,-210.72 352.54,-217.7"/>
</g>
<!-- Node5 -->
<g id="node5" class="node">
<title>Node5</title>
<g id="a_node5"><a xlink:href="a00026.html" target="_top" xlink:title="Contains implementation for the VisibilityGraph class.">
<polygon fill="white" stroke="#666666" points="478.39,-100 359.64,-100 359.64,-68 478.39,-68 478.39,-100"/>
<text xml:space="preserve" text-anchor="start" x="367.64" y="-86.5" font-family="Helvetica,sans-Serif" font-size="10.00">Cpp/analysismethods</text>
<text xml:space="preserve" text-anchor="middle" x="419.02" y="-74.5" font-family="Helvetica,sans-Serif" font-size="10.00">/src/visibility_graph.cpp</text>
</a>
</g>
</g>
<!-- Node1&#45;&gt;Node5 -->
<g id="edge4" class="edge">
<title>Node1&#45;&gt;Node5</title>
<path fill="none" stroke="#63b8ff" d="M419.02,-192.45C419.02,-164.84 419.02,-122.6 419.02,-100.19"/>
<polygon fill="#63b8ff" stroke="#63b8ff" points="415.52,-192.11 419.02,-202.11 422.52,-192.11 415.52,-192.11"/>
</g>
<!-- Node6 -->
<g id="node6" class="node">
<title>Node6</title>
<g id="a_node6"><a xlink:href="a00197.html" target="_top" xlink:title="Contains implementation for the BoostGraph class.">
<polygon fill="white" stroke="#666666" points="1316.39,-100 1215.64,-100 1215.64,-68 1316.39,-68 1316.39,-100"/>
<text xml:space="preserve" text-anchor="start" x="1223.64" y="-86.5" font-family="Helvetica,sans-Serif" font-size="10.00">Cpp/pathfinding/src</text>
<text xml:space="preserve" text-anchor="middle" x="1266.02" y="-74.5" font-family="Helvetica,sans-Serif" font-size="10.00">/boost_graph.cpp</text>
</a>
</g>
</g>
<!-- Node1&#45;&gt;Node6 -->
<g id="edge5" class="edge">
<title>Node1&#45;&gt;Node6</title>
<path fill="none" stroke="#63b8ff" d="M485.13,-215.36C543.06,-210.22 628.48,-197.84 697.02,-168 718.86,-158.49 717.71,-144.36 740.02,-136 934.96,-62.99 1001.6,-133.77 1207.02,-100 1209.73,-99.55 1212.5,-99.04 1215.28,-98.49"/>
<polygon fill="#63b8ff" stroke="#63b8ff" points="485.1,-211.85 475.43,-216.17 485.69,-218.83 485.1,-211.85"/>
</g>
<!-- Node7 -->
<g id="node7" class="node">
<title>Node7</title>
<g id="a_node7"><a xlink:href="a00245.html" target="_top" xlink:title="Contains implementation for the CInterface.">
<polygon fill="white" stroke="#666666" points="1443.52,-100 1334.52,-100 1334.52,-68 1443.52,-68 1443.52,-100"/>
<text xml:space="preserve" text-anchor="start" x="1342.52" y="-86.5" font-family="Helvetica,sans-Serif" font-size="10.00">Cpp/spatialstructures</text>
<text xml:space="preserve" text-anchor="middle" x="1389.02" y="-74.5" font-family="Helvetica,sans-Serif" font-size="10.00">/src/CInterface.cpp</text>
</a>
</g>
</g>
<!-- Node1&#45;&gt;Node7 -->
<g id="edge6" class="edge">
<title>Node1&#45;&gt;Node7</title>
<path fill="none" stroke="#63b8ff" d="M485.2,-217.74C550.66,-214.34 652.45,-203.2 733.02,-168 754.2,-158.75 752.41,-144.23 774.02,-136 888.68,-92.32 1203.65,-118.06 1325.02,-100 1328.06,-99.55 1331.18,-99.02 1334.32,-98.45"/>
<polygon fill="#63b8ff" stroke="#63b8ff" points="485.15,-214.23 475.33,-218.2 485.48,-221.23 485.15,-214.23"/>
</g>
<!-- Node8 -->
<g id="node8" class="node">
<title>Node8</title>
<g id="a_node8"><a xlink:href="a00257.html" target="_top" xlink:title="Contains implementation for the HF::SpatialStructures::CostAlgorithms namespace.">
<polygon fill="white" stroke="#666666" points="336.39,-168 223.64,-168 223.64,-136 336.39,-136 336.39,-168"/>
<text xml:space="preserve" text-anchor="start" x="231.64" y="-154.5" font-family="Helvetica,sans-Serif" font-size="10.00">Cpp/spatialstructures</text>
<text xml:space="preserve" text-anchor="middle" x="280.02" y="-142.5" font-family="Helvetica,sans-Serif" font-size="10.00">/src/cost_algorithms.h</text>
</a>
</g>
</g>
<!-- Node1&#45;&gt;Node8 -->
<g id="edge7" class="edge">
<title>Node1&#45;&gt;Node8</title>
<path fill="none" stroke="#63b8ff" d="M376.07,-198.61C355.53,-188.86 331.36,-177.38 312.4,-168.38"/>
<polygon fill="#63b8ff" stroke="#63b8ff" points="374.52,-201.75 385.06,-202.88 377.53,-195.43 374.52,-201.75"/>
</g>
<!-- Node10 -->
<g id="node10" class="node">
<title>Node10</title>
<g id="a_node10"><a xlink:href="a00260.html" target="_top" xlink:title="Contains implementation for the Edge structure.">
<polygon fill="white" stroke="#666666" points="891.52,-168 782.52,-168 782.52,-136 891.52,-136 891.52,-168"/>
<text xml:space="preserve" text-anchor="start" x="790.52" y="-154.5" font-family="Helvetica,sans-Serif" font-size="10.00">Cpp/spatialstructures</text>
<text xml:space="preserve" text-anchor="middle" x="837.02" y="-142.5" font-family="Helvetica,sans-Serif" font-size="10.00">/src/edge.cpp</text>
</a>
</g>
</g>
<!-- Node1&#45;&gt;Node10 -->
<g id="edge10" class="edge">
<title>Node1&#45;&gt;Node10</title>
<path fill="none" stroke="#63b8ff" d="M485.24,-210.71C555.61,-201.57 669.99,-185.79 768.02,-168 772.6,-167.17 777.34,-166.25 782.1,-165.3"/>
<polygon fill="#63b8ff" stroke="#63b8ff" points="484.88,-207.22 475.41,-211.97 485.78,-214.17 484.88,-207.22"/>
</g>
<!-- Node11 -->
<g id="node11" class="node">
<title>Node11</title>
<g id="a_node11"><a xlink:href="a00269.html" target="_top" xlink:title="Contains definitions for the Graph &#160;class.">
<polygon fill="white" stroke="#666666" points="687.52,-168 578.52,-168 578.52,-136 687.52,-136 687.52,-168"/>
<text xml:space="preserve" text-anchor="start" x="586.52" y="-154.5" font-family="Helvetica,sans-Serif" font-size="10.00">Cpp/spatialstructures</text>
<text xml:space="preserve" text-anchor="middle" x="633.02" y="-142.5" font-family="Helvetica,sans-Serif" font-size="10.00">/src/graph.h</text>
</a>
</g>
</g>
<!-- Node1&#45;&gt;Node11 -->
<g id="edge11" class="edge">
<title>Node1&#45;&gt;Node11</title>
<path fill="none" stroke="#63b8ff" d="M479.93,-200.21C512.47,-190.18 552.03,-177.98 582.79,-168.49"/>
<polygon fill="#63b8ff" stroke="#63b8ff" points="479.16,-196.79 470.64,-203.08 481.22,-203.48 479.16,-196.79"/>
</g>
<!-- Node8&#45;&gt;Node2 -->
<g id="edge8" class="edge">
<title>Node8&#45;&gt;Node2</title>
<path fill="none" stroke="#63b8ff" d="M234.93,-130.89C213.02,-121.12 187.1,-109.56 166.75,-100.49"/>
<polygon fill="#63b8ff" stroke="#63b8ff" points="233.38,-134.03 243.93,-134.91 236.23,-127.64 233.38,-134.03"/>
</g>
<!-- Node9 -->
<g id="node9" class="node">
<title>Node9</title>
<g id="a_node9"><a xlink:href="a00254.html" target="_top" xlink:title=" ">
<polygon fill="white" stroke="#666666" points="341.64,-100 218.39,-100 218.39,-68 341.64,-68 341.64,-100"/>
<text xml:space="preserve" text-anchor="start" x="226.39" y="-86.5" font-family="Helvetica,sans-Serif" font-size="10.00">Cpp/spatialstructures</text>
<text xml:space="preserve" text-anchor="middle" x="280.02" y="-74.5" font-family="Helvetica,sans-Serif" font-size="10.00">/src/cost_algorithms.cpp</text>
</a>
</g>
</g>
<!-- Node8&#45;&gt;Node9 -->
<g id="edge9" class="edge">
<title>Node8&#45;&gt;Node9</title>
<path fill="none" stroke="#63b8ff" d="M280.02,-124.31C280.02,-116.12 280.02,-107.38 280.02,-100.22"/>
<polygon fill="#63b8ff" stroke="#63b8ff" points="276.52,-124.18 280.02,-134.18 283.52,-124.18 276.52,-124.18"/>
</g>
<!-- Node11&#45;&gt;Node2 -->
<g id="edge14" class="edge">
<title>Node11&#45;&gt;Node2</title>
<path fill="none" stroke="#63b8ff" d="M566.93,-144.55C483.35,-136.06 335.1,-119.84 209.02,-100 206.19,-99.56 203.31,-99.08 200.4,-98.59"/>
<polygon fill="#63b8ff" stroke="#63b8ff" points="566.48,-148.03 576.78,-145.55 567.19,-141.06 566.48,-148.03"/>
</g>
<!-- Node11&#45;&gt;Node3 -->
<g id="edge17" class="edge">
<title>Node11&#45;&gt;Node3</title>
<path fill="none" stroke="#63b8ff" d="M583.73,-130.97C564.79,-122.45 543.34,-111.76 525.02,-100 506.43,-88.08 504.35,-81.68 487.02,-68 471.35,-55.63 453.18,-42.24 439.42,-32.28"/>
<polygon fill="#63b8ff" stroke="#63b8ff" points="582.31,-134.17 592.87,-134.99 585.13,-127.76 582.31,-134.17"/>
</g>
<!-- Node11&#45;&gt;Node5 -->
<g id="edge22" class="edge">
<title>Node11&#45;&gt;Node5</title>
<path fill="none" stroke="#63b8ff" d="M572.1,-132.21C539.56,-122.18 500,-109.98 469.25,-100.49"/>
<polygon fill="#63b8ff" stroke="#63b8ff" points="570.81,-135.48 581.4,-135.08 572.87,-128.79 570.81,-135.48"/>
</g>
<!-- Node11&#45;&gt;Node6 -->
<g id="edge23" class="edge">
<title>Node11&#45;&gt;Node6</title>
<path fill="none" stroke="#63b8ff" d="M698.97,-136.45C699.99,-136.3 701.01,-136.14 702.02,-136 924.75,-104.02 984.88,-135.86 1207.02,-100 1209.73,-99.56 1212.5,-99.06 1215.29,-98.51"/>
<polygon fill="#63b8ff" stroke="#63b8ff" points="698.64,-132.96 689.37,-138.08 699.81,-139.86 698.64,-132.96"/>
</g>
<!-- Node11&#45;&gt;Node7 -->
<g id="edge24" class="edge">
<title>Node11&#45;&gt;Node7</title>
<path fill="none" stroke="#63b8ff" d="M699.08,-140.92C712.6,-139.09 726.75,-137.34 740.02,-136 999.2,-109.9 1067.29,-137.86 1325.02,-100 1328.06,-99.55 1331.18,-99.03 1334.32,-98.46"/>
<polygon fill="#63b8ff" stroke="#63b8ff" points="698.82,-137.42 689.4,-142.26 699.79,-144.35 698.82,-137.42"/>
</g>
<!-- Node11&#45;&gt;Node9 -->
<g id="edge25" class="edge">
<title>Node11&#45;&gt;Node9</title>
<path fill="none" stroke="#63b8ff" d="M567.01,-139.63C509.8,-129.63 424.82,-114.47 351.02,-100 348.05,-99.42 345.01,-98.81 341.95,-98.2"/>
<polygon fill="#63b8ff" stroke="#63b8ff" points="566.13,-143.03 576.58,-141.29 567.33,-136.13 566.13,-143.03"/>
</g>
<!-- Node12 -->
<g id="node12" class="node">
<title>Node12</title>
<g id="a_node12"><a xlink:href="a00404.html" target="_top" xlink:title=" ">
<polygon fill="white" stroke="#666666" points="726.02,-32 626.02,-32 626.02,0 726.02,0 726.02,-32"/>
<text xml:space="preserve" text-anchor="start" x="634.02" y="-18.5" font-family="Helvetica,sans-Serif" font-size="10.00">Cinterface/analysis</text>
<text xml:space="preserve" text-anchor="middle" x="676.02" y="-6.5" font-family="Helvetica,sans-Serif" font-size="10.00">_C.cpp</text>
</a>
</g>
</g>
<!-- Node11&#45;&gt;Node12 -->
<g id="edge12" class="edge">
<title>Node11&#45;&gt;Node12</title>
<path fill="none" stroke="#63b8ff" d="M646.31,-125.54C650.14,-117.51 654.07,-108.52 657.02,-100 664.98,-76.94 670.57,-49.13 673.54,-32.27"/>
<polygon fill="#63b8ff" stroke="#63b8ff" points="643.23,-123.87 641.93,-134.38 649.51,-126.97 643.23,-123.87"/>
</g>
<!-- Node13 -->
<g id="node13" class="node">
<title>Node13</title>
<g id="a_node13"><a xlink:href="a00422.html" target="_top" xlink:title=" ">
<polygon fill="white" stroke="#666666" points="810.39,-100 703.64,-100 703.64,-68 810.39,-68 810.39,-100"/>
<text xml:space="preserve" text-anchor="start" x="711.64" y="-86.5" font-family="Helvetica,sans-Serif" font-size="10.00">Cinterface/pathfinder</text>
<text xml:space="preserve" text-anchor="middle" x="757.02" y="-74.5" font-family="Helvetica,sans-Serif" font-size="10.00">_C.cpp</text>
</a>
</g>
</g>
<!-- Node11&#45;&gt;Node13 -->
<g id="edge13" class="edge">
<title>Node11&#45;&gt;Node13</title>
<path fill="none" stroke="#63b8ff" d="M672.09,-130.2C690.24,-120.54 711.45,-109.26 728.13,-100.38"/>
<polygon fill="#63b8ff" stroke="#63b8ff" points="670.61,-127.03 663.42,-134.81 673.9,-133.21 670.61,-127.03"/>
</g>
<!-- Node14 -->
<g id="node14" class="node">
<title>Node14</title>
<g id="a_node14"><a xlink:href="a00440.html" target="_top" xlink:title=" ">
<polygon fill="white" stroke="#666666" points="953.77,-100 828.27,-100 828.27,-68 953.77,-68 953.77,-100"/>
<text xml:space="preserve" text-anchor="start" x="836.27" y="-86.5" font-family="Helvetica,sans-Serif" font-size="10.00">Cinterface/view_analysis</text>
<text xml:space="preserve" text-anchor="middle" x="891.02" y="-74.5" font-family="Helvetica,sans-Serif" font-size="10.00">_C.cpp</text>
</a>
</g>
</g>
<!-- Node11&#45;&gt;Node14 -->
<g id="edge15" class="edge">
<title>Node11&#45;&gt;Node14</title>
<path fill="none" stroke="#63b8ff" d="M698.85,-134.16C739.4,-123.79 791,-110.59 830.52,-100.48"/>
<polygon fill="#63b8ff" stroke="#63b8ff" points="698.02,-130.76 689.2,-136.63 699.75,-137.54 698.02,-130.76"/>
</g>
<!-- Node15 -->
<g id="node15" class="node">
<title>Node15</title>
<g id="a_node15"><a xlink:href="a00446.html" target="_top" xlink:title=" ">
<polygon fill="white" stroke="#666666" points="1070.64,-100 971.39,-100 971.39,-68 1070.64,-68 1070.64,-100"/>
<text xml:space="preserve" text-anchor="start" x="979.39" y="-86.5" font-family="Helvetica,sans-Serif" font-size="10.00">Cinterface/visibility</text>
<text xml:space="preserve" text-anchor="middle" x="1021.02" y="-74.5" font-family="Helvetica,sans-Serif" font-size="10.00">_graph_C.cpp</text>
</a>
</g>
</g>
<!-- Node11&#45;&gt;Node15 -->
<g id="edge16" class="edge">
<title>Node11&#45;&gt;Node15</title>
<path fill="none" stroke="#63b8ff" d="M698.98,-136.55C700,-136.36 701.01,-136.18 702.02,-136 817.31,-115.55 848.14,-122.7 963.02,-100 965.67,-99.48 968.38,-98.9 971.11,-98.3"/>
<polygon fill="#63b8ff" stroke="#63b8ff" points="698.58,-133.06 689.41,-138.38 699.89,-139.94 698.58,-133.06"/>
</g>
<!-- Node16 -->
<g id="node16" class="node">
<title>Node16</title>
<g id="a_node16"><a xlink:href="a00008.html" target="_top" xlink:title="Contains declarations for all functions related to the graph generator.">
<polygon fill="white" stroke="#666666" points="647.77,-100 534.27,-100 534.27,-68 647.77,-68 647.77,-100"/>
<text xml:space="preserve" text-anchor="start" x="542.27" y="-86.5" font-family="Helvetica,sans-Serif" font-size="10.00">Cpp/analysismethods</text>
<text xml:space="preserve" text-anchor="middle" x="591.02" y="-74.5" font-family="Helvetica,sans-Serif" font-size="10.00">/src/graph_generator.h</text>
</a>
</g>
</g>
<!-- Node11&#45;&gt;Node16 -->
<g id="edge18" class="edge">
<title>Node11&#45;&gt;Node16</title>
<path fill="none" stroke="#63b8ff" d="M617.12,-126.02C611.6,-117.34 605.57,-107.88 600.7,-100.22"/>
<polygon fill="#63b8ff" stroke="#63b8ff" points="614.14,-127.86 622.46,-134.42 620.05,-124.1 614.14,-127.86"/>
</g>
<!-- Node17 -->
<g id="node17" class="node">
<title>Node17</title>
<g id="a_node17"><a xlink:href="a00266.html" target="_top" xlink:title="Contains implementation for the Graph class.">
<polygon fill="white" stroke="#666666" points="1197.52,-100 1088.52,-100 1088.52,-68 1197.52,-68 1197.52,-100"/>
<text xml:space="preserve" text-anchor="start" x="1096.52" y="-86.5" font-family="Helvetica,sans-Serif" font-size="10.00">Cpp/spatialstructures</text>
<text xml:space="preserve" text-anchor="middle" x="1143.02" y="-74.5" font-family="Helvetica,sans-Serif" font-size="10.00">/src/graph.cpp</text>
</a>
</g>
</g>
<!-- Node11&#45;&gt;Node17 -->
<g id="edge26" class="edge">
<title>Node11&#45;&gt;Node17</title>
<path fill="none" stroke="#63b8ff" d="M698.97,-136.49C699.99,-136.32 701.01,-136.16 702.02,-136 868.77,-110.03 913.53,-127.61 1080.02,-100 1082.68,-99.56 1085.39,-99.07 1088.13,-98.54"/>
<polygon fill="#63b8ff" stroke="#63b8ff" points="698.62,-133 689.38,-138.19 699.84,-139.89 698.62,-133"/>
</g>
<!-- Node16&#45;&gt;Node3 -->
<g id="edge20" class="edge">
<title>Node16&#45;&gt;Node3</title>
<path fill="none" stroke="#63b8ff" d="M539.7,-63.42C513.8,-53.54 482.84,-41.73 458.62,-32.49"/>
<polygon fill="#63b8ff" stroke="#63b8ff" points="538.45,-66.69 549.04,-66.99 540.95,-60.15 538.45,-66.69"/>
</g>
<!-- Node16&#45;&gt;Node4 -->
<g id="edge21" class="edge">
<title>Node16&#45;&gt;Node4</title>
<path fill="none" stroke="#63b8ff" d="M576.47,-57.74C571.52,-49.14 566.14,-39.79 561.78,-32.22"/>
<polygon fill="#63b8ff" stroke="#63b8ff" points="573.42,-59.46 581.45,-66.38 579.49,-55.97 573.42,-59.46"/>
</g>
<!-- Node16&#45;&gt;Node12 -->
<g id="edge19" class="edge">
<title>Node16&#45;&gt;Node12</title>
<path fill="none" stroke="#63b8ff" d="M619.51,-60.87C631.53,-51.55 645.22,-40.91 656.11,-32.45"/>
<polygon fill="#63b8ff" stroke="#63b8ff" points="617.68,-57.87 611.93,-66.76 621.97,-63.4 617.68,-57.87"/>
</g>
</g>
</svg>
