<?xml version="1.0" encoding="UTF-8" standalone="no"?>
<!DOCTYPE svg PUBLIC "-//W3C//DTD SVG 1.1//EN"
 "http://www.w3.org/Graphics/SVG/1.1/DTD/svg11.dtd">
<!-- Generated by graphviz version 13.1.2 (20250808.2320)
 -->
<!-- Title: Cinterface/pathfinder_C.h Pages: 1 -->
<svg width="136pt" height="140pt"
 viewBox="0.00 0.00 136.00 140.00" xmlns="http://www.w3.org/2000/svg" xmlns:xlink="http://www.w3.org/1999/xlink">
<g id="graph0" class="graph" transform="scale(1 1) rotate(0) translate(4 136)">
<title>Cinterface/pathfinder_C.h</title>
<!-- Node1 -->
<g id="node1" class="node">
<title>Node1</title>
<g id="a_node1"><a xlink:title="Header file for C Interface pathfinding functionality.">
<polygon fill="#999999" stroke="#666666" points="127.75,-132 0,-132 0,-112 127.75,-112 127.75,-132"/>
<text xml:space="preserve" text-anchor="middle" x="63.88" y="-118.5" font-family="Helvetica,sans-Serif" font-size="10.00">Cinterface/pathfinder_C.h</text>
</a>
</g>
</g>
<!-- Node2 -->
<g id="node2" class="node">
<title>Node2</title>
<g id="a_node2"><a xlink:href="a00413.html" target="_top" xlink:title=" ">
<polygon fill="white" stroke="#666666" points="109,-76 18.75,-76 18.75,-56 109,-56 109,-76"/>
<text xml:space="preserve" text-anchor="middle" x="63.88" y="-62.5" font-family="Helvetica,sans-Serif" font-size="10.00">cinterface_utils.h</text>
</a>
</g>
</g>
<!-- Node1&#45;&gt;Node2 -->
<g id="edge1" class="edge">
<title>Node1&#45;&gt;Node2</title>
<path fill="none" stroke="#63b8ff" d="M63.88,-111.59C63.88,-105.01 63.88,-95.96 63.88,-87.73"/>
<polygon fill="#63b8ff" stroke="#63b8ff" points="67.38,-87.81 63.88,-77.81 60.38,-87.81 67.38,-87.81"/>
</g>
<!-- Node3 -->
<g id="node3" class="node">
<title>Node3</title>
<g id="a_node3"><a xlink:title=" ">
<polygon fill="#e0e0e0" stroke="#999999" points="56.38,-20 13.38,-20 13.38,0 56.38,0 56.38,-20"/>
<text xml:space="preserve" text-anchor="middle" x="34.88" y="-6.5" font-family="Helvetica,sans-Serif" font-size="10.00">vector</text>
</a>
</g>
</g>
<!-- Node2&#45;&gt;Node3 -->
<g id="edge2" class="edge">
<title>Node2&#45;&gt;Node3</title>
<path fill="none" stroke="#63b8ff" d="M58.82,-55.59C55.08,-48.63 49.85,-38.89 45.23,-30.29"/>
<polygon fill="#63b8ff" stroke="#63b8ff" points="48.4,-28.79 40.58,-21.63 42.23,-32.1 48.4,-28.79"/>
</g>
<!-- Node4 -->
<g id="node4" class="node">
<title>Node4</title>
<g id="a_node4"><a xlink:title=" ">
<polygon fill="#e0e0e0" stroke="#999999" points="111.75,-20 74,-20 74,0 111.75,0 111.75,-20"/>
<text xml:space="preserve" text-anchor="middle" x="92.88" y="-6.5" font-family="Helvetica,sans-Serif" font-size="10.00">array</text>
</a>
</g>
</g>
<!-- Node2&#45;&gt;Node4 -->
<g id="edge3" class="edge">
<title>Node2&#45;&gt;Node4</title>
<path fill="none" stroke="#63b8ff" d="M68.93,-55.59C72.67,-48.63 77.9,-38.89 82.52,-30.29"/>
<polygon fill="#63b8ff" stroke="#63b8ff" points="85.52,-32.1 87.17,-21.63 79.35,-28.79 85.52,-32.1"/>
</g>
</g>
</svg>
