<?xml version="1.0" encoding="UTF-8" standalone="no"?>
<!DOCTYPE svg PUBLIC "-//W3C//DTD SVG 1.1//EN"
 "http://www.w3.org/Graphics/SVG/1.1/DTD/svg11.dtd">
<!-- Generated by graphviz version 13.1.2 (20250808.2320)
 -->
<!-- Title: HF::SpatialStructures::CostAlgorithms::CalculateEnergyExpenditure Pages: 1 -->
<svg width="637pt" height="233pt"
 viewBox="0.00 0.00 637.00 233.00" xmlns="http://www.w3.org/2000/svg" xmlns:xlink="http://www.w3.org/1999/xlink">
<g id="graph0" class="graph" transform="scale(1 1) rotate(0) translate(4 229)">
<title>HF::SpatialStructures::CostAlgorithms::CalculateEnergyExpenditure</title>
<!-- Node1 -->
<g id="node1" class="node">
<title>Node1</title>
<g id="a_node1"><a xlink:title=" ">
<polygon fill="#999999" stroke="#666666" points="136.75,-88 0,-88 0,-44 136.75,-44 136.75,-88"/>
<text xml:space="preserve" text-anchor="start" x="8" y="-74.5" font-family="Helvetica,sans-Serif" font-size="10.00">HF::SpatialStructures</text>
<text xml:space="preserve" text-anchor="start" x="8" y="-62.5" font-family="Helvetica,sans-Serif" font-size="10.00">::CostAlgorithms::Calculate</text>
<text xml:space="preserve" text-anchor="middle" x="68.38" y="-50.5" font-family="Helvetica,sans-Serif" font-size="10.00">EnergyExpenditure</text>
</a>
</g>
</g>
<!-- Node2 -->
<g id="node2" class="node">
<title>Node2</title>
<g id="a_node2"><a xlink:href="a00475.html#ac51f2e76c00356f8a6145bee865cd922" target="_top" xlink:title=" ">
<polygon fill="white" stroke="#666666" points="309.5,-144 172.75,-144 172.75,-100 309.5,-100 309.5,-144"/>
<text xml:space="preserve" text-anchor="start" x="180.75" y="-130.5" font-family="Helvetica,sans-Serif" font-size="10.00">HF::SpatialStructures</text>
<text xml:space="preserve" text-anchor="start" x="180.75" y="-118.5" font-family="Helvetica,sans-Serif" font-size="10.00">::CostAlgorithms::Calculate</text>
<text xml:space="preserve" text-anchor="middle" x="241.12" y="-106.5" font-family="Helvetica,sans-Serif" font-size="10.00">EnergyExpenditure</text>
</a>
</g>
</g>
<!-- Node1&#45;&gt;Node2 -->
<g id="edge1" class="edge">
<title>Node1&#45;&gt;Node2</title>
<path fill="none" stroke="#63b8ff" d="M136.86,-88.13C144.96,-90.79 153.29,-93.52 161.53,-96.22"/>
<polygon fill="#63b8ff" stroke="#63b8ff" points="160.26,-99.49 170.85,-99.28 162.44,-92.84 160.26,-99.49"/>
</g>
<!-- Node9 -->
<g id="node9" class="node">
<title>Node9</title>
<g id="a_node9"><a xlink:href="a01551.html#a89250c619a726fd0adbd71778d166887" target="_top" xlink:title="Retrieves a Subgraph using a Node.">
<polygon fill="white" stroke="#666666" points="296.75,-82 185.5,-82 185.5,-50 296.75,-50 296.75,-82"/>
<text xml:space="preserve" text-anchor="start" x="193.5" y="-68.5" font-family="Helvetica,sans-Serif" font-size="10.00">HF::SpatialStructures</text>
<text xml:space="preserve" text-anchor="middle" x="241.12" y="-56.5" font-family="Helvetica,sans-Serif" font-size="10.00">::Graph::GetSubgraph</text>
</a>
</g>
</g>
<!-- Node1&#45;&gt;Node9 -->
<g id="edge8" class="edge">
<title>Node1&#45;&gt;Node9</title>
<path fill="none" stroke="#63b8ff" d="M136.86,-66C149.01,-66 161.67,-66 173.78,-66"/>
<polygon fill="#63b8ff" stroke="#63b8ff" points="173.69,-69.5 183.69,-66 173.69,-62.5 173.69,-69.5"/>
</g>
<!-- Node10 -->
<g id="node10" class="node">
<title>Node10</title>
<g id="a_node10"><a xlink:href="a01551.html#aa70347b8a33b57c6f0a72d6eca4248d7" target="_top" xlink:title="Get a list of nodes from the graph sorted by ID.">
<polygon fill="white" stroke="#666666" points="296.38,-32 185.88,-32 185.88,0 296.38,0 296.38,-32"/>
<text xml:space="preserve" text-anchor="start" x="193.88" y="-18.5" font-family="Helvetica,sans-Serif" font-size="10.00">HF::SpatialStructures</text>
<text xml:space="preserve" text-anchor="middle" x="241.12" y="-6.5" font-family="Helvetica,sans-Serif" font-size="10.00">::Graph::Nodes</text>
</a>
</g>
</g>
<!-- Node1&#45;&gt;Node10 -->
<g id="edge9" class="edge">
<title>Node1&#45;&gt;Node10</title>
<path fill="none" stroke="#63b8ff" d="M136.86,-46.24C149.33,-42.59 162.34,-38.78 174.75,-35.14"/>
<polygon fill="#63b8ff" stroke="#63b8ff" points="175.41,-38.6 184.02,-32.43 173.44,-31.88 175.41,-38.6"/>
</g>
<!-- Node3 -->
<g id="node3" class="node">
<title>Node3</title>
<g id="a_node3"><a xlink:href="a00475.html#ae06eb693d0d7858d7a863fae3a6eee2c" target="_top" xlink:title=" ">
<polygon fill="white" stroke="#666666" points="482.25,-225 345.5,-225 345.5,-181 482.25,-181 482.25,-225"/>
<text xml:space="preserve" text-anchor="start" x="353.5" y="-211.5" font-family="Helvetica,sans-Serif" font-size="10.00">HF::SpatialStructures</text>
<text xml:space="preserve" text-anchor="start" x="353.5" y="-199.5" font-family="Helvetica,sans-Serif" font-size="10.00">::CostAlgorithms::Calculate</text>
<text xml:space="preserve" text-anchor="middle" x="413.88" y="-187.5" font-family="Helvetica,sans-Serif" font-size="10.00">Slope</text>
</a>
</g>
</g>
<!-- Node2&#45;&gt;Node3 -->
<g id="edge2" class="edge">
<title>Node2&#45;&gt;Node3</title>
<path fill="none" stroke="#63b8ff" d="M288.09,-144.47C305.97,-153.15 326.66,-163.11 345.5,-172 348.19,-173.27 350.95,-174.56 353.73,-175.86"/>
<polygon fill="#63b8ff" stroke="#63b8ff" points="351.97,-178.9 362.51,-179.95 354.92,-172.56 351.97,-178.9"/>
</g>
<!-- Node5 -->
<g id="node5" class="node">
<title>Node5</title>
<g id="a_node5"><a xlink:href="a02071.html#ad3f7898ef3178eef0c3579869a7f5c67" target="_top" xlink:title="Get the direction between this node and another node">
<polygon fill="white" stroke="#666666" points="469.12,-163 358.62,-163 358.62,-131 469.12,-131 469.12,-163"/>
<text xml:space="preserve" text-anchor="start" x="366.62" y="-149.5" font-family="Helvetica,sans-Serif" font-size="10.00">HF::SpatialStructures</text>
<text xml:space="preserve" text-anchor="middle" x="413.88" y="-137.5" font-family="Helvetica,sans-Serif" font-size="10.00">::Node::directionTo</text>
</a>
</g>
</g>
<!-- Node2&#45;&gt;Node5 -->
<g id="edge4" class="edge">
<title>Node2&#45;&gt;Node5</title>
<path fill="none" stroke="#63b8ff" d="M309.61,-131.88C321.96,-133.69 334.83,-135.57 347.12,-137.37"/>
<polygon fill="#63b8ff" stroke="#63b8ff" points="346.32,-140.79 356.72,-138.78 347.34,-133.87 346.32,-140.79"/>
</g>
<!-- Node7 -->
<g id="node7" class="node">
<title>Node7</title>
<g id="a_node7"><a xlink:href="a02071.html#abbd66b566460f9557a373b5fbcc30bb1" target="_top" xlink:title="Calculate the distance between this node and n2.">
<polygon fill="white" stroke="#666666" points="469.12,-113 358.62,-113 358.62,-81 469.12,-81 469.12,-113"/>
<text xml:space="preserve" text-anchor="start" x="366.62" y="-99.5" font-family="Helvetica,sans-Serif" font-size="10.00">HF::SpatialStructures</text>
<text xml:space="preserve" text-anchor="middle" x="413.88" y="-87.5" font-family="Helvetica,sans-Serif" font-size="10.00">::Node::distanceTo</text>
</a>
</g>
</g>
<!-- Node2&#45;&gt;Node7 -->
<g id="edge6" class="edge">
<title>Node2&#45;&gt;Node7</title>
<path fill="none" stroke="#63b8ff" d="M309.61,-112.12C321.96,-110.31 334.83,-108.43 347.12,-106.63"/>
<polygon fill="#63b8ff" stroke="#63b8ff" points="347.34,-110.13 356.72,-105.22 346.32,-103.21 347.34,-110.13"/>
</g>
<!-- Node8 -->
<g id="node8" class="node">
<title>Node8</title>
<g id="a_node8"><a xlink:href="a00475.html#ae7b446fefe0b9994859f47b85de79039" target="_top" xlink:title=" ">
<polygon fill="white" stroke="#666666" points="469.12,-63 358.62,-63 358.62,-19 469.12,-19 469.12,-63"/>
<text xml:space="preserve" text-anchor="start" x="366.62" y="-49.5" font-family="Helvetica,sans-Serif" font-size="10.00">HF::SpatialStructures</text>
<text xml:space="preserve" text-anchor="start" x="366.62" y="-37.5" font-family="Helvetica,sans-Serif" font-size="10.00">::CostAlgorithms::to</text>
<text xml:space="preserve" text-anchor="middle" x="413.88" y="-25.5" font-family="Helvetica,sans-Serif" font-size="10.00">_radians</text>
</a>
</g>
</g>
<!-- Node2&#45;&gt;Node8 -->
<g id="edge7" class="edge">
<title>Node2&#45;&gt;Node8</title>
<path fill="none" stroke="#63b8ff" d="M291.58,-99.62C297.64,-96.77 303.73,-93.85 309.5,-91 325.72,-82.99 329.28,-80.01 345.5,-72 348.03,-70.75 350.61,-69.49 353.23,-68.23"/>
<polygon fill="#63b8ff" stroke="#63b8ff" points="354.53,-71.49 362.05,-64.03 351.52,-65.17 354.53,-71.49"/>
</g>
<!-- Node4 -->
<g id="node4" class="node">
<title>Node4</title>
<g id="a_node4"><a xlink:href="a00475.html#adee2fb2573f4dbc2e5c7db153dff2694" target="_top" xlink:title=" ">
<polygon fill="white" stroke="#666666" points="628.75,-225 518.25,-225 518.25,-181 628.75,-181 628.75,-225"/>
<text xml:space="preserve" text-anchor="start" x="526.25" y="-211.5" font-family="Helvetica,sans-Serif" font-size="10.00">HF::SpatialStructures</text>
<text xml:space="preserve" text-anchor="start" x="526.25" y="-199.5" font-family="Helvetica,sans-Serif" font-size="10.00">::CostAlgorithms::to</text>
<text xml:space="preserve" text-anchor="middle" x="573.5" y="-187.5" font-family="Helvetica,sans-Serif" font-size="10.00">_degrees</text>
</a>
</g>
</g>
<!-- Node3&#45;&gt;Node4 -->
<g id="edge3" class="edge">
<title>Node3&#45;&gt;Node4</title>
<path fill="none" stroke="#63b8ff" d="M482.64,-203C490.6,-203 498.71,-203 506.65,-203"/>
<polygon fill="#63b8ff" stroke="#63b8ff" points="506.59,-206.5 516.59,-203 506.59,-199.5 506.59,-206.5"/>
</g>
<!-- Node6 -->
<g id="node6" class="node">
<title>Node6</title>
<g id="a_node6"><a xlink:href="a00465.html#ad9a8f0f70b3f60ac5cb7889885d851d1" target="_top" xlink:title=" ">
<polygon fill="white" stroke="#666666" points="628.75,-163 518.25,-163 518.25,-131 628.75,-131 628.75,-163"/>
<text xml:space="preserve" text-anchor="start" x="526.25" y="-149.5" font-family="Helvetica,sans-Serif" font-size="10.00">HF::SpatialStructures</text>
<text xml:space="preserve" text-anchor="middle" x="573.5" y="-137.5" font-family="Helvetica,sans-Serif" font-size="10.00">::Normalize</text>
</a>
</g>
</g>
<!-- Node5&#45;&gt;Node6 -->
<g id="edge5" class="edge">
<title>Node5&#45;&gt;Node6</title>
<path fill="none" stroke="#63b8ff" d="M469.56,-147C481.54,-147 494.35,-147 506.71,-147"/>
<polygon fill="#63b8ff" stroke="#63b8ff" points="506.4,-150.5 516.4,-147 506.4,-143.5 506.4,-150.5"/>
</g>
</g>
</svg>
