<?xml version="1.0" encoding="UTF-8" standalone="no"?>
<!DOCTYPE svg PUBLIC "-//W3C//DTD SVG 1.1//EN"
 "http://www.w3.org/Graphics/SVG/1.1/DTD/svg11.dtd">
<!-- Generated by graphviz version 13.1.2 (20250808.2320)
 -->
<!-- Title: HF::GraphGenerator::CheckConnection Pages: 1 -->
<svg width="551pt" height="158pt"
 viewBox="0.00 0.00 551.00 158.00" xmlns="http://www.w3.org/2000/svg" xmlns:xlink="http://www.w3.org/1999/xlink">
<g id="graph0" class="graph" transform="scale(1 1) rotate(0) translate(4 154)">
<title>HF::GraphGenerator::CheckConnection</title>
<!-- Node1 -->
<g id="node1" class="node">
<title>Node1</title>
<g id="a_node1"><a xlink:title="Determine what kind of step (if any) is between parent and child.">
<polygon fill="#999999" stroke="#666666" points="104.5,-125 0,-125 0,-93 104.5,-93 104.5,-125"/>
<text xml:space="preserve" text-anchor="start" x="8" y="-111.5" font-family="Helvetica,sans-Serif" font-size="10.00">HF::GraphGenerator</text>
<text xml:space="preserve" text-anchor="middle" x="52.25" y="-99.5" font-family="Helvetica,sans-Serif" font-size="10.00">::CheckConnection</text>
</a>
</g>
</g>
<!-- Node2 -->
<g id="node2" class="node">
<title>Node2</title>
<g id="a_node2"><a xlink:href="a00463.html#a9daa85cb56a1b18d44f46aa9c420afde" target="_top" xlink:title="Determine if the slope between parent and child is traversable according to the graph parameters.">
<polygon fill="white" stroke="#666666" points="245,-150 140.5,-150 140.5,-118 245,-118 245,-150"/>
<text xml:space="preserve" text-anchor="start" x="148.5" y="-136.5" font-family="Helvetica,sans-Serif" font-size="10.00">HF::GraphGenerator</text>
<text xml:space="preserve" text-anchor="middle" x="192.75" y="-124.5" font-family="Helvetica,sans-Serif" font-size="10.00">::CheckSlope</text>
</a>
</g>
</g>
<!-- Node1&#45;&gt;Node2 -->
<g id="edge1" class="edge">
<title>Node1&#45;&gt;Node2</title>
<path fill="none" stroke="#63b8ff" d="M104.82,-118.31C112.66,-119.72 120.83,-121.2 128.88,-122.65"/>
<polygon fill="#63b8ff" stroke="#63b8ff" points="128.18,-126.08 138.65,-124.41 129.43,-119.19 128.18,-126.08"/>
</g>
<!-- Node3 -->
<g id="node3" class="node">
<title>Node3</title>
<g id="a_node3"><a xlink:href="a00463.html#ace66c1b60785c32433402f012019ab81" target="_top" xlink:title="Determine if there is a valid line of sight between parent and child.">
<polygon fill="white" stroke="#666666" points="245,-100 140.5,-100 140.5,-68 245,-68 245,-100"/>
<text xml:space="preserve" text-anchor="start" x="148.5" y="-86.5" font-family="Helvetica,sans-Serif" font-size="10.00">HF::GraphGenerator</text>
<text xml:space="preserve" text-anchor="middle" x="192.75" y="-74.5" font-family="Helvetica,sans-Serif" font-size="10.00">::OcclusionCheck</text>
</a>
</g>
</g>
<!-- Node1&#45;&gt;Node3 -->
<g id="edge2" class="edge">
<title>Node1&#45;&gt;Node3</title>
<path fill="none" stroke="#63b8ff" d="M104.82,-99.69C112.66,-98.28 120.83,-96.8 128.88,-95.35"/>
<polygon fill="#63b8ff" stroke="#63b8ff" points="129.43,-98.81 138.65,-93.59 128.18,-91.92 129.43,-98.81"/>
</g>
<!-- Node4 -->
<g id="node4" class="node">
<title>Node4</title>
<g id="a_node4"><a xlink:href="a00463.html#a750afc15c798c79a8b6a0784ed092f3c" target="_top" xlink:title="Calculate the normalized direction from one node to another.">
<polygon fill="white" stroke="#666666" points="393.75,-150 289.25,-150 289.25,-118 393.75,-118 393.75,-150"/>
<text xml:space="preserve" text-anchor="start" x="297.25" y="-136.5" font-family="Helvetica,sans-Serif" font-size="10.00">HF::GraphGenerator</text>
<text xml:space="preserve" text-anchor="middle" x="341.5" y="-124.5" font-family="Helvetica,sans-Serif" font-size="10.00">::DirectionTo</text>
</a>
</g>
</g>
<!-- Node3&#45;&gt;Node4 -->
<g id="edge3" class="edge">
<title>Node3&#45;&gt;Node4</title>
<path fill="none" stroke="#63b8ff" d="M241.8,-100.37C254.41,-104.67 268.15,-109.35 281.26,-113.82"/>
<polygon fill="#63b8ff" stroke="#63b8ff" points="280.06,-117.11 290.66,-117.02 282.32,-110.48 280.06,-117.11"/>
</g>
<!-- Node6 -->
<g id="node6" class="node">
<title>Node6</title>
<g id="a_node6"><a xlink:href="a00463.html#a7f96186b8f24f878404d1feccf2f64db" target="_top" xlink:title="Calculate the distance between two nodes.">
<polygon fill="white" stroke="#666666" points="393.75,-100 289.25,-100 289.25,-68 393.75,-68 393.75,-100"/>
<text xml:space="preserve" text-anchor="start" x="297.25" y="-86.5" font-family="Helvetica,sans-Serif" font-size="10.00">HF::GraphGenerator</text>
<text xml:space="preserve" text-anchor="middle" x="341.5" y="-74.5" font-family="Helvetica,sans-Serif" font-size="10.00">::DistanceTo</text>
</a>
</g>
</g>
<!-- Node3&#45;&gt;Node6 -->
<g id="edge5" class="edge">
<title>Node3&#45;&gt;Node6</title>
<path fill="none" stroke="#63b8ff" d="M245.49,-84C255.91,-84 266.97,-84 277.73,-84"/>
<polygon fill="#63b8ff" stroke="#63b8ff" points="277.72,-87.5 287.72,-84 277.72,-80.5 277.72,-87.5"/>
</g>
<!-- Node7 -->
<g id="node7" class="node">
<title>Node7</title>
<g id="a_node7"><a xlink:href="a01419.html#a22ebf97e859ef651e81deb40b74f668f" target="_top" xlink:title=" ">
<polygon fill="white" stroke="#666666" points="402,-32 281,-32 281,0 402,0 402,-32"/>
<text xml:space="preserve" text-anchor="start" x="289" y="-18.5" font-family="Helvetica,sans-Serif" font-size="10.00">HF::RayTracer::MultiRT</text>
<text xml:space="preserve" text-anchor="middle" x="341.5" y="-6.5" font-family="Helvetica,sans-Serif" font-size="10.00">::Occluded</text>
</a>
</g>
</g>
<!-- Node3&#45;&gt;Node7 -->
<g id="edge6" class="edge">
<title>Node3&#45;&gt;Node7</title>
<path fill="none" stroke="#63b8ff" d="M229.27,-67.54C248.94,-58.43 273.6,-47 294.7,-37.22"/>
<polygon fill="#63b8ff" stroke="#63b8ff" points="296.07,-40.44 303.68,-33.06 293.13,-34.09 296.07,-40.44"/>
</g>
<!-- Node5 -->
<g id="node5" class="node">
<title>Node5</title>
<g id="a_node5"><a xlink:href="a00463.html#ad2e09e0825a1db4fc511907179eddf00" target="_top" xlink:title="Normalize a vector.">
<polygon fill="white" stroke="#666666" points="542.5,-150 438,-150 438,-118 542.5,-118 542.5,-150"/>
<text xml:space="preserve" text-anchor="start" x="446" y="-136.5" font-family="Helvetica,sans-Serif" font-size="10.00">HF::GraphGenerator</text>
<text xml:space="preserve" text-anchor="middle" x="490.25" y="-124.5" font-family="Helvetica,sans-Serif" font-size="10.00">::Normalize</text>
</a>
</g>
</g>
<!-- Node4&#45;&gt;Node5 -->
<g id="edge4" class="edge">
<title>Node4&#45;&gt;Node5</title>
<path fill="none" stroke="#63b8ff" d="M394.24,-134C404.66,-134 415.72,-134 426.48,-134"/>
<polygon fill="#63b8ff" stroke="#63b8ff" points="426.47,-137.5 436.47,-134 426.47,-130.5 426.47,-137.5"/>
</g>
<!-- Node7&#45;&gt;Node7 -->
<g id="edge7" class="edge">
<title>Node7&#45;&gt;Node7</title>
<path fill="none" stroke="#63b8ff" d="M314.94,-32.44C309.99,-41.58 318.84,-50 341.5,-50 353.89,-50 362.16,-47.48 366.29,-43.71"/>
<polygon fill="#63b8ff" stroke="#63b8ff" points="369.73,-44.36 367.82,-33.94 362.81,-43.27 369.73,-44.36"/>
</g>
</g>
</svg>
