<?xml version="1.0" encoding="UTF-8" standalone="no"?>
<!DOCTYPE svg PUBLIC "-//W3C//DTD SVG 1.1//EN"
 "http://www.w3.org/Graphics/SVG/1.1/DTD/svg11.dtd">
<!-- Generated by graphviz version 13.1.2 (20250808.2320)
 -->
<!-- Title: CreateVisibilityGraphAllToAllUndirected Pages: 1 -->
<svg width="1153pt" height="184pt"
 viewBox="0.00 0.00 1153.00 184.00" xmlns="http://www.w3.org/2000/svg" xmlns:xlink="http://www.w3.org/1999/xlink">
<g id="graph0" class="graph" transform="scale(1 1) rotate(0) translate(4 180)">
<title>CreateVisibilityGraphAllToAllUndirected</title>
<!-- Node1 -->
<g id="node1" class="node">
<title>Node1</title>
<g id="a_node1"><a xlink:title="Create a new undirected visibility graph between all nodes in nodes.">
<polygon fill="#999999" stroke="#666666" points="119.5,-82 0,-82 0,-50 119.5,-50 119.5,-82"/>
<text xml:space="preserve" text-anchor="start" x="8" y="-68.5" font-family="Helvetica,sans-Serif" font-size="10.00">CreateVisibilityGraphAll</text>
<text xml:space="preserve" text-anchor="middle" x="59.75" y="-56.5" font-family="Helvetica,sans-Serif" font-size="10.00">ToAllUndirected</text>
</a>
</g>
</g>
<!-- Node2 -->
<g id="node2" class="node">
<title>Node2</title>
<g id="a_node2"><a xlink:href="a00467.html#ab1db87927118f70786a664c3b3cc7905" target="_top" xlink:title="Generate a Visibility Graph with every edge stored twice.">
<polygon fill="white" stroke="#666666" points="283.62,-104 181.38,-104 181.38,-72 283.62,-72 283.62,-104"/>
<text xml:space="preserve" text-anchor="start" x="189.38" y="-90.5" font-family="Helvetica,sans-Serif" font-size="10.00">HF::VisibilityGraph</text>
<text xml:space="preserve" text-anchor="middle" x="232.5" y="-78.5" font-family="Helvetica,sans-Serif" font-size="10.00">::AllToAllUndirected</text>
</a>
</g>
</g>
<!-- Node1&#45;&gt;Node2 -->
<g id="edge1" class="edge">
<title>Node1&#45;&gt;Node2</title>
<path fill="none" stroke="#63b8ff" d="M119.99,-73.63C136.11,-75.71 153.61,-77.96 169.86,-80.06"/>
<polygon fill="#63b8ff" stroke="#63b8ff" points="169.01,-83.48 179.38,-81.28 169.91,-76.54 169.01,-83.48"/>
</g>
<!-- Node13 -->
<g id="node13" class="node">
<title>Node13</title>
<g id="a_node13"><a xlink:href="a00245.html#a603d456361c9737b88a091e6683db12b" target="_top" xlink:title="Convert a raw array from an external caller to an organized vector of points">
<polygon fill="white" stroke="#666666" points="309.5,-54 155.5,-54 155.5,-34 309.5,-34 309.5,-54"/>
<text xml:space="preserve" text-anchor="middle" x="232.5" y="-40.5" font-family="Helvetica,sans-Serif" font-size="10.00">ConvertRawFloatArrayToPoints</text>
</a>
</g>
</g>
<!-- Node1&#45;&gt;Node13 -->
<g id="edge14" class="edge">
<title>Node1&#45;&gt;Node13</title>
<path fill="none" stroke="#63b8ff" d="M119.99,-58.37C127.72,-57.37 135.76,-56.34 143.83,-55.3"/>
<polygon fill="#63b8ff" stroke="#63b8ff" points="144.25,-58.77 153.72,-54.02 143.36,-51.83 144.25,-58.77"/>
</g>
<!-- Node3 -->
<g id="node3" class="node">
<title>Node3</title>
<g id="a_node3"><a xlink:href="a02071.html#abbd66b566460f9557a373b5fbcc30bb1" target="_top" xlink:title="Calculate the distance between this node and n2.">
<polygon fill="white" stroke="#666666" points="610.75,-126 500.25,-126 500.25,-94 610.75,-94 610.75,-126"/>
<text xml:space="preserve" text-anchor="start" x="508.25" y="-112.5" font-family="Helvetica,sans-Serif" font-size="10.00">HF::SpatialStructures</text>
<text xml:space="preserve" text-anchor="middle" x="555.5" y="-100.5" font-family="Helvetica,sans-Serif" font-size="10.00">::Node::distanceTo</text>
</a>
</g>
</g>
<!-- Node2&#45;&gt;Node3 -->
<g id="edge2" class="edge">
<title>Node2&#45;&gt;Node3</title>
<path fill="none" stroke="#63b8ff" d="M284.01,-91.46C339.24,-95.25 427.96,-101.33 488.63,-105.49"/>
<polygon fill="#63b8ff" stroke="#63b8ff" points="488.27,-108.97 498.48,-106.16 488.74,-101.99 488.27,-108.97"/>
</g>
<!-- Node4 -->
<g id="node4" class="node">
<title>Node4</title>
<g id="a_node4"><a xlink:href="a00467.html#a05b8a83ab27113369c95649470d864b9" target="_top" xlink:title="Obtain the indexes of all nodes that pass the HeightCheck.">
<polygon fill="white" stroke="#666666" points="464.25,-173 345.5,-173 345.5,-141 464.25,-141 464.25,-173"/>
<text xml:space="preserve" text-anchor="start" x="353.5" y="-159.5" font-family="Helvetica,sans-Serif" font-size="10.00">HF::VisibilityGraph</text>
<text xml:space="preserve" text-anchor="middle" x="404.88" y="-147.5" font-family="Helvetica,sans-Serif" font-size="10.00">::HeightCheckAllNodes</text>
</a>
</g>
</g>
<!-- Node2&#45;&gt;Node4 -->
<g id="edge3" class="edge">
<title>Node2&#45;&gt;Node4</title>
<path fill="none" stroke="#63b8ff" d="M273.88,-104.35C297.47,-113.91 327.47,-126.06 352.71,-136.28"/>
<polygon fill="#63b8ff" stroke="#63b8ff" points="351.21,-139.45 361.8,-139.96 353.84,-132.96 351.21,-139.45"/>
</g>
<!-- Node9 -->
<g id="node9" class="node">
<title>Node9</title>
<g id="a_node9"><a xlink:href="a00467.html#a4d9cf77879eb78075f7f7b0a7e31119a" target="_top" xlink:title="Perform a line of sight check between two nodes.">
<polygon fill="white" stroke="#666666" points="460.88,-82 348.88,-82 348.88,-50 460.88,-50 460.88,-82"/>
<text xml:space="preserve" text-anchor="start" x="356.88" y="-68.5" font-family="Helvetica,sans-Serif" font-size="10.00">HF::VisibilityGraph</text>
<text xml:space="preserve" text-anchor="middle" x="404.88" y="-56.5" font-family="Helvetica,sans-Serif" font-size="10.00">::IsOcclusionBetween</text>
</a>
</g>
</g>
<!-- Node2&#45;&gt;Node9 -->
<g id="edge8" class="edge">
<title>Node2&#45;&gt;Node9</title>
<path fill="none" stroke="#63b8ff" d="M283.7,-81.52C300.44,-79.36 319.37,-76.91 337.17,-74.61"/>
<polygon fill="#63b8ff" stroke="#63b8ff" points="337.4,-78.11 346.87,-73.36 336.51,-71.17 337.4,-78.11"/>
</g>
<!-- Node12 -->
<g id="node12" class="node">
<title>Node12</title>
<g id="a_node12"><a xlink:href="a01551.html#a2710af2a75976862d7a235793567d2f3" target="_top" xlink:title="Determine how many nodes are in the graph.">
<polygon fill="white" stroke="#666666" points="460.12,-32 349.62,-32 349.62,0 460.12,0 460.12,-32"/>
<text xml:space="preserve" text-anchor="start" x="357.62" y="-18.5" font-family="Helvetica,sans-Serif" font-size="10.00">HF::SpatialStructures</text>
<text xml:space="preserve" text-anchor="middle" x="404.88" y="-6.5" font-family="Helvetica,sans-Serif" font-size="10.00">::Graph::size</text>
</a>
</g>
</g>
<!-- Node2&#45;&gt;Node12 -->
<g id="edge13" class="edge">
<title>Node2&#45;&gt;Node12</title>
<path fill="none" stroke="#63b8ff" d="M284.01,-73.2C292.65,-70.16 301.43,-66.73 309.5,-63 326.52,-55.13 328.84,-49.6 345.5,-41 347.99,-39.72 350.55,-38.44 353.16,-37.19"/>
<polygon fill="#63b8ff" stroke="#63b8ff" points="354.36,-40.49 361.96,-33.1 351.41,-34.14 354.36,-40.49"/>
</g>
<!-- Node5 -->
<g id="node5" class="node">
<title>Node5</title>
<g id="a_node5"><a xlink:href="a00467.html#af811d21e4c49275521912df9254bb737" target="_top" xlink:title="Check if Node can be raised by height without clipping into any geometry.">
<polygon fill="white" stroke="#666666" points="604.75,-176 506.25,-176 506.25,-144 604.75,-144 604.75,-176"/>
<text xml:space="preserve" text-anchor="start" x="514.25" y="-162.5" font-family="Helvetica,sans-Serif" font-size="10.00">HF::VisibilityGraph</text>
<text xml:space="preserve" text-anchor="middle" x="555.5" y="-150.5" font-family="Helvetica,sans-Serif" font-size="10.00">::HeightCheck</text>
</a>
</g>
</g>
<!-- Node4&#45;&gt;Node5 -->
<g id="edge4" class="edge">
<title>Node4&#45;&gt;Node5</title>
<path fill="none" stroke="#63b8ff" d="M464.62,-158.19C474.41,-158.38 484.59,-158.59 494.42,-158.79"/>
<polygon fill="#63b8ff" stroke="#63b8ff" points="494.18,-162.28 504.24,-158.99 494.32,-155.28 494.18,-162.28"/>
</g>
<!-- Node6 -->
<g id="node6" class="node">
<title>Node6</title>
<g id="a_node6"><a xlink:href="a01411.html#a3a7488f8e41c8a9e3dc9c334047c6457" target="_top" xlink:title="Determine if there is an intersection with any geometry.">
<polygon fill="white" stroke="#666666" points="785.75,-132 646.75,-132 646.75,-100 785.75,-100 785.75,-132"/>
<text xml:space="preserve" text-anchor="start" x="654.75" y="-118.5" font-family="Helvetica,sans-Serif" font-size="10.00">HF::RayTracer::EmbreeRay</text>
<text xml:space="preserve" text-anchor="middle" x="716.25" y="-106.5" font-family="Helvetica,sans-Serif" font-size="10.00">Tracer::Occluded</text>
</a>
</g>
</g>
<!-- Node5&#45;&gt;Node6 -->
<g id="edge5" class="edge">
<title>Node5&#45;&gt;Node6</title>
<path fill="none" stroke="#63b8ff" d="M604.99,-146.56C617.66,-143.05 631.56,-139.2 645.1,-135.44"/>
<polygon fill="#63b8ff" stroke="#63b8ff" points="645.69,-138.91 654.4,-132.87 643.83,-132.16 645.69,-138.91"/>
</g>
<!-- Node7 -->
<g id="node7" class="node">
<title>Node7</title>
<g id="a_node7"><a xlink:href="a01411.html#ade19fda460dadd98769b347840bd305a" target="_top" xlink:title="Implementation for fundamental occlusion ray intersection.">
<polygon fill="white" stroke="#666666" points="960.75,-132 821.75,-132 821.75,-100 960.75,-100 960.75,-132"/>
<text xml:space="preserve" text-anchor="start" x="829.75" y="-118.5" font-family="Helvetica,sans-Serif" font-size="10.00">HF::RayTracer::EmbreeRay</text>
<text xml:space="preserve" text-anchor="middle" x="891.25" y="-106.5" font-family="Helvetica,sans-Serif" font-size="10.00">Tracer::Occluded_IMPL</text>
</a>
</g>
</g>
<!-- Node6&#45;&gt;Node7 -->
<g id="edge6" class="edge">
<title>Node6&#45;&gt;Node7</title>
<path fill="none" stroke="#63b8ff" d="M786.12,-116C794,-116 802.08,-116 810.09,-116"/>
<polygon fill="#63b8ff" stroke="#63b8ff" points="809.82,-119.5 819.82,-116 809.82,-112.5 809.82,-119.5"/>
</g>
<!-- Node8 -->
<g id="node8" class="node">
<title>Node8</title>
<g id="a_node8"><a xlink:href="a00464.html#a76e5d26b5063f0e5b49b4ba835f1da93" target="_top" xlink:title=" ">
<polygon fill="white" stroke="#666666" points="1144.75,-126 996.75,-126 996.75,-106 1144.75,-106 1144.75,-126"/>
<text xml:space="preserve" text-anchor="middle" x="1070.75" y="-112.5" font-family="Helvetica,sans-Serif" font-size="10.00">HF::RayTracer::ConstructRay</text>
</a>
</g>
</g>
<!-- Node7&#45;&gt;Node8 -->
<g id="edge7" class="edge">
<title>Node7&#45;&gt;Node8</title>
<path fill="none" stroke="#63b8ff" d="M961.13,-116C969.01,-116 977.11,-116 985.17,-116"/>
<polygon fill="#63b8ff" stroke="#63b8ff" points="984.99,-119.5 994.99,-116 984.99,-112.5 984.99,-119.5"/>
</g>
<!-- Node9&#45;&gt;Node3 -->
<g id="edge11" class="edge">
<title>Node9&#45;&gt;Node3</title>
<path fill="none" stroke="#63b8ff" d="M461.22,-82.38C470.35,-85.09 479.9,-87.91 489.25,-90.68"/>
<polygon fill="#63b8ff" stroke="#63b8ff" points="488.07,-93.98 498.65,-93.47 490.05,-87.27 488.07,-93.98"/>
</g>
<!-- Node9&#45;&gt;Node6 -->
<g id="edge12" class="edge">
<title>Node9&#45;&gt;Node6</title>
<path fill="none" stroke="#63b8ff" d="M461.07,-68.19C502.54,-70.54 560.59,-75.33 610.75,-85 625.63,-87.87 641.43,-91.98 656.11,-96.27"/>
<polygon fill="#63b8ff" stroke="#63b8ff" points="655.06,-99.6 665.64,-99.13 657.07,-92.9 655.06,-99.6"/>
</g>
<!-- Node10 -->
<g id="node10" class="node">
<title>Node10</title>
<g id="a_node10"><a xlink:href="a02071.html#ad3f7898ef3178eef0c3579869a7f5c67" target="_top" xlink:title="Get the direction between this node and another node">
<polygon fill="white" stroke="#666666" points="610.75,-38 500.25,-38 500.25,-6 610.75,-6 610.75,-38"/>
<text xml:space="preserve" text-anchor="start" x="508.25" y="-24.5" font-family="Helvetica,sans-Serif" font-size="10.00">HF::SpatialStructures</text>
<text xml:space="preserve" text-anchor="middle" x="555.5" y="-12.5" font-family="Helvetica,sans-Serif" font-size="10.00">::Node::directionTo</text>
</a>
</g>
</g>
<!-- Node9&#45;&gt;Node10 -->
<g id="edge9" class="edge">
<title>Node9&#45;&gt;Node10</title>
<path fill="none" stroke="#63b8ff" d="M461.22,-49.62C470.35,-46.91 479.9,-44.09 489.25,-41.32"/>
<polygon fill="#63b8ff" stroke="#63b8ff" points="490.05,-44.73 498.65,-38.53 488.07,-38.02 490.05,-44.73"/>
</g>
<!-- Node11 -->
<g id="node11" class="node">
<title>Node11</title>
<g id="a_node11"><a xlink:href="a00465.html#ad9a8f0f70b3f60ac5cb7889885d851d1" target="_top" xlink:title=" ">
<polygon fill="white" stroke="#666666" points="771.5,-38 661,-38 661,-6 771.5,-6 771.5,-38"/>
<text xml:space="preserve" text-anchor="start" x="669" y="-24.5" font-family="Helvetica,sans-Serif" font-size="10.00">HF::SpatialStructures</text>
<text xml:space="preserve" text-anchor="middle" x="716.25" y="-12.5" font-family="Helvetica,sans-Serif" font-size="10.00">::Normalize</text>
</a>
</g>
</g>
<!-- Node10&#45;&gt;Node11 -->
<g id="edge10" class="edge">
<title>Node10&#45;&gt;Node11</title>
<path fill="none" stroke="#63b8ff" d="M611.13,-22C623.36,-22 636.45,-22 649.08,-22"/>
<polygon fill="#63b8ff" stroke="#63b8ff" points="649,-25.5 659,-22 649,-18.5 649,-25.5"/>
</g>
</g>
</svg>
