<?xml version="1.0" encoding="UTF-8" standalone="no"?>
<!DOCTYPE svg PUBLIC "-//W3C//DTD SVG 1.1//EN"
 "http://www.w3.org/Graphics/SVG/1.1/DTD/svg11.dtd">
<!-- Generated by graphviz version 13.1.2 (20250808.2320)
 -->
<!-- Title: nanort::IntersectRayAABB Pages: 1 -->
<svg width="671pt" height="165pt"
 viewBox="0.00 0.00 671.00 165.00" xmlns="http://www.w3.org/2000/svg" xmlns:xlink="http://www.w3.org/1999/xlink">
<g id="graph0" class="graph" transform="scale(1 1) rotate(0) translate(4 161)">
<title>nanort::IntersectRayAABB</title>
<!-- Node1 -->
<g id="node1" class="node">
<title>Node1</title>
<g id="a_node1"><a xlink:title=" ">
<polygon fill="#999999" stroke="#666666" points="662.5,-98 530.25,-98 530.25,-78 662.5,-78 662.5,-98"/>
<text xml:space="preserve" text-anchor="middle" x="596.38" y="-84.5" font-family="Helvetica,sans-Serif" font-size="10.00">nanort::IntersectRayAABB</text>
</a>
</g>
</g>
<!-- Node2 -->
<g id="node2" class="node">
<title>Node2</title>
<g id="a_node2"><a xlink:href="a01483.html#a5f253e3bfd6bbefe21eb3c8faa881d59" target="_top" xlink:title="List up nodes which intersects along the ray. This function is useful for two&#45;level BVH traversal....">
<polygon fill="white" stroke="#666666" points="494.25,-126 354.5,-126 354.5,-94 494.25,-94 494.25,-126"/>
<text xml:space="preserve" text-anchor="start" x="362.5" y="-112.5" font-family="Helvetica,sans-Serif" font-size="10.00">nanort::BVHAccel::ListNode</text>
<text xml:space="preserve" text-anchor="middle" x="424.38" y="-100.5" font-family="Helvetica,sans-Serif" font-size="10.00">Intersections</text>
</a>
</g>
</g>
<!-- Node1&#45;&gt;Node2 -->
<g id="edge1" class="edge">
<title>Node1&#45;&gt;Node2</title>
<path fill="none" stroke="#63b8ff" d="M518.85,-97.9C510.79,-98.95 502.64,-100 494.67,-101.03"/>
<polygon fill="#63b8ff" stroke="#63b8ff" points="519.17,-101.39 528.63,-96.64 518.27,-94.45 519.17,-101.39"/>
</g>
<!-- Node3 -->
<g id="node3" class="node">
<title>Node3</title>
<g id="a_node3"><a xlink:href="a01483.html#a4d07d0fc035d860dd1bfbeaa90c14a11" target="_top" xlink:title="Traverse into BVH along ray and find closest hit point &amp; primitive if found.">
<polygon fill="white" stroke="#666666" points="493.88,-76 354.88,-76 354.88,-56 493.88,-56 493.88,-76"/>
<text xml:space="preserve" text-anchor="middle" x="424.38" y="-62.5" font-family="Helvetica,sans-Serif" font-size="10.00">nanort::BVHAccel::Traverse</text>
</a>
</g>
</g>
<!-- Node1&#45;&gt;Node3 -->
<g id="edge2" class="edge">
<title>Node1&#45;&gt;Node3</title>
<path fill="none" stroke="#63b8ff" d="M518.95,-78.11C510.67,-77.04 502.28,-75.95 494.11,-74.89"/>
<polygon fill="#63b8ff" stroke="#63b8ff" points="518.27,-81.55 528.63,-79.36 519.17,-74.61 518.27,-81.55"/>
</g>
<!-- Node4 -->
<g id="node4" class="node">
<title>Node4</title>
<g id="a_node4"><a xlink:href="a01519.html#a980fe63296fb23f96ceafc82789cff6c" target="_top" xlink:title=" ">
<polygon fill="white" stroke="#666666" points="318.5,-132 177.25,-132 177.25,-100 318.5,-100 318.5,-132"/>
<text xml:space="preserve" text-anchor="start" x="185.25" y="-118.5" font-family="Helvetica,sans-Serif" font-size="10.00">HF::RayTracer::NanoRTRay</text>
<text xml:space="preserve" text-anchor="middle" x="247.88" y="-106.5" font-family="Helvetica,sans-Serif" font-size="10.00">Tracer::Intersect</text>
</a>
</g>
</g>
<!-- Node3&#45;&gt;Node4 -->
<g id="edge3" class="edge">
<title>Node3&#45;&gt;Node4</title>
<path fill="none" stroke="#63b8ff" d="M374.13,-79.48C367.52,-81.32 360.84,-83.19 354.5,-85 338.23,-89.63 320.59,-94.76 304.47,-99.5"/>
<polygon fill="#63b8ff" stroke="#63b8ff" points="374.93,-82.89 383.63,-76.85 373.06,-76.14 374.93,-82.89"/>
</g>
<!-- Node7 -->
<g id="node7" class="node">
<title>Node7</title>
<g id="a_node7"><a xlink:href="a00470.html#ab842b43dc319eba17876627bae3286f6" target="_top" xlink:title=" ">
<polygon fill="white" stroke="#666666" points="309.12,-82 186.62,-82 186.62,-50 309.12,-50 309.12,-82"/>
<text xml:space="preserve" text-anchor="start" x="194.62" y="-68.5" font-family="Helvetica,sans-Serif" font-size="10.00">HF::nanoGeom::nanoRT</text>
<text xml:space="preserve" text-anchor="middle" x="247.88" y="-56.5" font-family="Helvetica,sans-Serif" font-size="10.00">_Intersect</text>
</a>
</g>
</g>
<!-- Node3&#45;&gt;Node7 -->
<g id="edge6" class="edge">
<title>Node3&#45;&gt;Node7</title>
<path fill="none" stroke="#63b8ff" d="M343.15,-66C331.81,-66 320.32,-66 309.43,-66"/>
<polygon fill="#63b8ff" stroke="#63b8ff" points="342.89,-69.5 352.89,-66 342.89,-62.5 342.89,-69.5"/>
</g>
<!-- Node8 -->
<g id="node8" class="node">
<title>Node8</title>
<g id="a_node8"><a xlink:href="a00470.html#ae4ab3809e1f437e93ae1ad78c2792025" target="_top" xlink:title=" ">
<polygon fill="white" stroke="#666666" points="309.12,-32 186.62,-32 186.62,0 309.12,0 309.12,-32"/>
<text xml:space="preserve" text-anchor="start" x="194.62" y="-18.5" font-family="Helvetica,sans-Serif" font-size="10.00">HF::nanoGeom::nanoRT</text>
<text xml:space="preserve" text-anchor="middle" x="247.88" y="-6.5" font-family="Helvetica,sans-Serif" font-size="10.00">_RayCast</text>
</a>
</g>
</g>
<!-- Node3&#45;&gt;Node8 -->
<g id="edge7" class="edge">
<title>Node3&#45;&gt;Node8</title>
<path fill="none" stroke="#63b8ff" d="M375.98,-52.42C354.5,-46.26 328.92,-38.94 306.36,-32.47"/>
<polygon fill="#63b8ff" stroke="#63b8ff" points="374.76,-55.71 385.34,-55.1 376.69,-48.98 374.76,-55.71"/>
</g>
<!-- Node5 -->
<g id="node5" class="node">
<title>Node5</title>
<g id="a_node5"><a xlink:href="a01519.html#a026deea38d40b0980713e96869761ac5" target="_top" xlink:title=" ">
<polygon fill="white" stroke="#666666" points="141.25,-157 0,-157 0,-125 141.25,-125 141.25,-157"/>
<text xml:space="preserve" text-anchor="start" x="8" y="-143.5" font-family="Helvetica,sans-Serif" font-size="10.00">HF::RayTracer::NanoRTRay</text>
<text xml:space="preserve" text-anchor="middle" x="70.62" y="-131.5" font-family="Helvetica,sans-Serif" font-size="10.00">Tracer::Occluded</text>
</a>
</g>
</g>
<!-- Node4&#45;&gt;Node5 -->
<g id="edge4" class="edge">
<title>Node4&#45;&gt;Node5</title>
<path fill="none" stroke="#63b8ff" d="M165.57,-127.6C157.54,-128.74 149.44,-129.9 141.53,-131.03"/>
<polygon fill="#63b8ff" stroke="#63b8ff" points="165.95,-131.08 175.36,-126.2 164.96,-124.15 165.95,-131.08"/>
</g>
<!-- Node6 -->
<g id="node6" class="node">
<title>Node6</title>
<g id="a_node6"><a xlink:href="a01519.html#a2d5a5ae0fd9a0830b8eb14e5cd9ffd34" target="_top" xlink:title=" ">
<polygon fill="white" stroke="#666666" points="141.25,-107 0,-107 0,-75 141.25,-75 141.25,-107"/>
<text xml:space="preserve" text-anchor="start" x="8" y="-93.5" font-family="Helvetica,sans-Serif" font-size="10.00">HF::RayTracer::NanoRTRay</text>
<text xml:space="preserve" text-anchor="middle" x="70.62" y="-81.5" font-family="Helvetica,sans-Serif" font-size="10.00">Tracer::PointIntersection</text>
</a>
</g>
</g>
<!-- Node4&#45;&gt;Node6 -->
<g id="edge5" class="edge">
<title>Node4&#45;&gt;Node6</title>
<path fill="none" stroke="#63b8ff" d="M165.57,-104.4C157.54,-103.26 149.44,-102.1 141.53,-100.97"/>
<polygon fill="#63b8ff" stroke="#63b8ff" points="164.96,-107.85 175.36,-105.8 165.95,-100.92 164.96,-107.85"/>
</g>
</g>
</svg>
