<?xml version="1.0" encoding="UTF-8" standalone="no"?>
<!DOCTYPE svg PUBLIC "-//W3C//DTD SVG 1.1//EN"
 "http://www.w3.org/Graphics/SVG/1.1/DTD/svg11.dtd">
<!-- Generated by graphviz version 13.1.2 (20250808.2320)
 -->
<!-- Title: HF::GraphGenerator::setupRT Pages: 1 -->
<svg width="517pt" height="102pt"
 viewBox="0.00 0.00 517.00 102.00" xmlns="http://www.w3.org/2000/svg" xmlns:xlink="http://www.w3.org/1999/xlink">
<g id="graph0" class="graph" transform="scale(1 1) rotate(0) translate(4 98)">
<title>HF::GraphGenerator::setupRT</title>
<!-- Node1 -->
<g id="node1" class="node">
<title>Node1</title>
<g id="a_node1"><a xlink:title="Converts the raytracer to a multiRT if required, then map geometry ids to hitflags.">
<polygon fill="#999999" stroke="#666666" points="104.5,-60 0,-60 0,-28 104.5,-28 104.5,-60"/>
<text xml:space="preserve" text-anchor="start" x="8" y="-46.5" font-family="Helvetica,sans-Serif" font-size="10.00">HF::GraphGenerator</text>
<text xml:space="preserve" text-anchor="middle" x="52.25" y="-34.5" font-family="Helvetica,sans-Serif" font-size="10.00">::setupRT</text>
</a>
</g>
</g>
<!-- Node2 -->
<g id="node2" class="node">
<title>Node2</title>
<g id="a_node2"><a xlink:href="a01299.html#a5f5b32d65d3d43143915633c8411acaf" target="_top" xlink:title="Set geometry ids as being walkable or obstacles.">
<polygon fill="white" stroke="#666666" points="320,-60 140.5,-60 140.5,-28 320,-28 320,-60"/>
<text xml:space="preserve" text-anchor="start" x="148.5" y="-46.5" font-family="Helvetica,sans-Serif" font-size="10.00">HF::GraphGenerator</text>
<text xml:space="preserve" text-anchor="middle" x="230.25" y="-34.5" font-family="Helvetica,sans-Serif" font-size="10.00">::GeometryFlagMap::SetGeometryIds</text>
</a>
</g>
</g>
<!-- Node1&#45;&gt;Node2 -->
<g id="edge1" class="edge">
<title>Node1&#45;&gt;Node2</title>
<path fill="none" stroke="#63b8ff" d="M104.63,-44C112.3,-44 120.43,-44 128.7,-44"/>
<polygon fill="#63b8ff" stroke="#63b8ff" points="128.54,-47.5 138.54,-44 128.54,-40.5 128.54,-47.5"/>
</g>
<!-- Node3 -->
<g id="node3" class="node">
<title>Node3</title>
<g id="a_node3"><a xlink:href="a01299.html#aa6023b7a8de09fb747bd049938f1e5b8" target="_top" xlink:title="Set the filter mode of this GeometryFlagMap based on the input types.">
<polygon fill="white" stroke="#666666" points="509.25,-94 356,-94 356,-50 509.25,-50 509.25,-94"/>
<text xml:space="preserve" text-anchor="start" x="364" y="-80.5" font-family="Helvetica,sans-Serif" font-size="10.00">HF::GraphGenerator</text>
<text xml:space="preserve" text-anchor="start" x="364" y="-68.5" font-family="Helvetica,sans-Serif" font-size="10.00">::GeometryFlagMap::Determine</text>
<text xml:space="preserve" text-anchor="middle" x="432.62" y="-56.5" font-family="Helvetica,sans-Serif" font-size="10.00">FilterMode</text>
</a>
</g>
</g>
<!-- Node2&#45;&gt;Node3 -->
<g id="edge2" class="edge">
<title>Node2&#45;&gt;Node3</title>
<path fill="none" stroke="#63b8ff" d="M320.3,-56.44C328.33,-57.57 336.46,-58.7 344.47,-59.82"/>
<polygon fill="#63b8ff" stroke="#63b8ff" points="343.81,-63.26 354.2,-61.18 344.78,-56.33 343.81,-63.26"/>
</g>
<!-- Node4 -->
<g id="node4" class="node">
<title>Node4</title>
<g id="a_node4"><a xlink:href="a01299.html#ac9dab2d023f758ccf718d1e7c8f98e31" target="_top" xlink:title="Set the value of a key in the internal dictionary.">
<polygon fill="white" stroke="#666666" points="494.25,-32 371,-32 371,0 494.25,0 494.25,-32"/>
<text xml:space="preserve" text-anchor="start" x="379" y="-18.5" font-family="Helvetica,sans-Serif" font-size="10.00">HF::GraphGenerator</text>
<text xml:space="preserve" text-anchor="middle" x="432.62" y="-6.5" font-family="Helvetica,sans-Serif" font-size="10.00">::GeometryFlagMap::Set</text>
</a>
</g>
</g>
<!-- Node2&#45;&gt;Node4 -->
<g id="edge3" class="edge">
<title>Node2&#45;&gt;Node4</title>
<path fill="none" stroke="#63b8ff" d="M320.3,-31.56C333.48,-29.71 346.92,-27.84 359.69,-26.05"/>
<polygon fill="#63b8ff" stroke="#63b8ff" points="359.8,-29.57 369.22,-24.72 358.83,-22.64 359.8,-29.57"/>
</g>
</g>
</svg>
