<?xml version="1.0" encoding="UTF-8" standalone="no"?>
<!DOCTYPE svg PUBLIC "-//W3C//DTD SVG 1.1//EN"
 "http://www.w3.org/Graphics/SVG/1.1/DTD/svg11.dtd">
<!-- Generated by graphviz version 13.1.2 (20250808.2320)
 -->
<!-- Title: Cinterface/raytracer_C.h Pages: 1 -->
<svg width="131pt" height="84pt"
 viewBox="0.00 0.00 131.00 84.00" xmlns="http://www.w3.org/2000/svg" xmlns:xlink="http://www.w3.org/1999/xlink">
<g id="graph0" class="graph" transform="scale(1 1) rotate(0) translate(4 80)">
<title>Cinterface/raytracer_C.h</title>
<!-- Node1 -->
<g id="node1" class="node">
<title>Node1</title>
<g id="a_node1"><a xlink:title="C Interface header file for Raytracer functionality.">
<polygon fill="#999999" stroke="#666666" points="123.25,-76 0,-76 0,-56 123.25,-56 123.25,-76"/>
<text xml:space="preserve" text-anchor="middle" x="61.62" y="-62.5" font-family="Helvetica,sans-Serif" font-size="10.00">Cinterface/raytracer_C.h</text>
</a>
</g>
</g>
<!-- Node2 -->
<g id="node2" class="node">
<title>Node2</title>
<g id="a_node2"><a xlink:title=" ">
<polygon fill="#e0e0e0" stroke="#999999" points="54.12,-20 11.12,-20 11.12,0 54.12,0 54.12,-20"/>
<text xml:space="preserve" text-anchor="middle" x="32.62" y="-6.5" font-family="Helvetica,sans-Serif" font-size="10.00">vector</text>
</a>
</g>
</g>
<!-- Node1&#45;&gt;Node2 -->
<g id="edge1" class="edge">
<title>Node1&#45;&gt;Node2</title>
<path fill="none" stroke="#63b8ff" d="M56.57,-55.59C52.83,-48.63 47.6,-38.89 42.98,-30.29"/>
<polygon fill="#63b8ff" stroke="#63b8ff" points="46.15,-28.79 38.33,-21.63 39.98,-32.1 46.15,-28.79"/>
</g>
<!-- Node3 -->
<g id="node3" class="node">
<title>Node3</title>
<g id="a_node3"><a xlink:title=" ">
<polygon fill="#e0e0e0" stroke="#999999" points="109.5,-20 71.75,-20 71.75,0 109.5,0 109.5,-20"/>
<text xml:space="preserve" text-anchor="middle" x="90.62" y="-6.5" font-family="Helvetica,sans-Serif" font-size="10.00">array</text>
</a>
</g>
</g>
<!-- Node1&#45;&gt;Node3 -->
<g id="edge2" class="edge">
<title>Node1&#45;&gt;Node3</title>
<path fill="none" stroke="#63b8ff" d="M66.68,-55.59C70.42,-48.63 75.65,-38.89 80.27,-30.29"/>
<polygon fill="#63b8ff" stroke="#63b8ff" points="83.27,-32.1 84.92,-21.63 77.1,-28.79 83.27,-32.1"/>
</g>
</g>
</svg>
