<?xml version="1.0" encoding="UTF-8" standalone="no"?>
<!DOCTYPE svg PUBLIC "-//W3C//DTD SVG 1.1//EN"
 "http://www.w3.org/Graphics/SVG/1.1/DTD/svg11.dtd">
<!-- Generated by graphviz version 13.1.2 (20250808.2320)
 -->
<!-- Title: nanort::ComputeBoundingBox Pages: 1 -->
<svg width="702pt" height="66pt"
 viewBox="0.00 0.00 702.00 66.00" xmlns="http://www.w3.org/2000/svg" xmlns:xlink="http://www.w3.org/1999/xlink">
<g id="graph0" class="graph" transform="scale(1 1) rotate(0) translate(4 62)">
<title>nanort::ComputeBoundingBox</title>
<!-- Node1 -->
<g id="node1" class="node">
<title>Node1</title>
<g id="a_node1"><a xlink:title=" ">
<polygon fill="#999999" stroke="#666666" points="694,-39 547.5,-39 547.5,-19 694,-19 694,-39"/>
<text xml:space="preserve" text-anchor="middle" x="620.75" y="-25.5" font-family="Helvetica,sans-Serif" font-size="10.00">nanort::ComputeBoundingBox</text>
</a>
</g>
</g>
<!-- Node2 -->
<g id="node2" class="node">
<title>Node2</title>
<g id="a_node2"><a xlink:href="a01483.html#a96521982d08e0ccd728798410dabeed5" target="_top" xlink:title="Build BVH for input primitives.">
<polygon fill="white" stroke="#666666" points="501.75,-58 379.25,-58 379.25,-38 501.75,-38 501.75,-58"/>
<text xml:space="preserve" text-anchor="middle" x="440.5" y="-44.5" font-family="Helvetica,sans-Serif" font-size="10.00">nanort::BVHAccel::Build</text>
</a>
</g>
</g>
<!-- Node1&#45;&gt;Node2 -->
<g id="edge1" class="edge">
<title>Node1&#45;&gt;Node2</title>
<path fill="none" stroke="#63b8ff" d="M535.88,-37.94C524.44,-39.16 512.88,-40.39 501.97,-41.55"/>
<polygon fill="#63b8ff" stroke="#63b8ff" points="536.17,-41.43 545.74,-36.89 535.43,-34.47 536.17,-41.43"/>
</g>
<!-- Node5 -->
<g id="node5" class="node">
<title>Node5</title>
<g id="a_node5"><a xlink:href="a01483.html#ae0e4bf0fab331dbacf469a3e991132e5" target="_top" xlink:title="Builds BVH tree recursively.">
<polygon fill="white" stroke="#666666" points="511.5,-20 369.5,-20 369.5,0 511.5,0 511.5,-20"/>
<text xml:space="preserve" text-anchor="middle" x="440.5" y="-6.5" font-family="Helvetica,sans-Serif" font-size="10.00">nanort::BVHAccel::BuildTree</text>
</a>
</g>
</g>
<!-- Node1&#45;&gt;Node5 -->
<g id="edge4" class="edge">
<title>Node1&#45;&gt;Node5</title>
<path fill="none" stroke="#63b8ff" d="M535.95,-20.07C527.91,-19.21 519.81,-18.35 511.92,-17.51"/>
<polygon fill="#63b8ff" stroke="#63b8ff" points="535.43,-23.53 545.74,-21.11 536.17,-16.57 535.43,-23.53"/>
</g>
<!-- Node3 -->
<g id="node3" class="node">
<title>Node3</title>
<g id="a_node3"><a xlink:href="a00470.html#a1cb19dd0ff847089a65139f01ee06b8c" target="_top" xlink:title=" ">
<polygon fill="white" stroke="#666666" points="333.5,-58 184.75,-58 184.75,-38 333.5,-38 333.5,-58"/>
<text xml:space="preserve" text-anchor="middle" x="259.12" y="-44.5" font-family="Helvetica,sans-Serif" font-size="10.00">HF::nanoGeom::nanoRT_BVH</text>
</a>
</g>
</g>
<!-- Node2&#45;&gt;Node3 -->
<g id="edge2" class="edge">
<title>Node2&#45;&gt;Node3</title>
<path fill="none" stroke="#63b8ff" d="M367.42,-48C356.36,-48 344.93,-48 333.84,-48"/>
<polygon fill="#63b8ff" stroke="#63b8ff" points="367.26,-51.5 377.26,-48 367.26,-44.5 367.26,-51.5"/>
</g>
<!-- Node4 -->
<g id="node4" class="node">
<title>Node4</title>
<g id="a_node4"><a xlink:href="a00470.html#a6291ce624c796ab1fe2a45a92eb0c6b0" target="_top" xlink:title=" ">
<polygon fill="white" stroke="#666666" points="148.75,-58 0,-58 0,-38 148.75,-38 148.75,-58"/>
<text xml:space="preserve" text-anchor="middle" x="74.38" y="-44.5" font-family="Helvetica,sans-Serif" font-size="10.00">HF::nanoGeom::nanoRT_BVH</text>
</a>
</g>
</g>
<!-- Node3&#45;&gt;Node4 -->
<g id="edge3" class="edge">
<title>Node3&#45;&gt;Node4</title>
<path fill="none" stroke="#63b8ff" d="M172.81,-48C164.91,-48 156.94,-48 149.16,-48"/>
<polygon fill="#63b8ff" stroke="#63b8ff" points="172.81,-51.5 182.81,-48 172.81,-44.5 172.81,-51.5"/>
</g>
</g>
</svg>
