<?xml version="1.0" encoding="UTF-8" standalone="no"?>
<!DOCTYPE svg PUBLIC "-//W3C//DTD SVG 1.1//EN"
 "http://www.w3.org/Graphics/SVG/1.1/DTD/svg11.dtd">
<!-- Generated by graphviz version 13.1.2 (20250808.2320)
 -->
<!-- Title: nanort::vlength Pages: 1 -->
<svg width="206pt" height="104pt"
 viewBox="0.00 0.00 206.00 104.00" xmlns="http://www.w3.org/2000/svg" xmlns:xlink="http://www.w3.org/1999/xlink">
<g id="graph0" class="graph" transform="scale(1 1) rotate(0) translate(4 100)">
<title>nanort::vlength</title>
<!-- Node1 -->
<g id="node1" class="node">
<title>Node1</title>
<g id="a_node1"><a xlink:title=" ">
<polygon fill="#999999" stroke="#666666" points="80.5,-58 0,-58 0,-38 80.5,-38 80.5,-58"/>
<text xml:space="preserve" text-anchor="middle" x="40.25" y="-44.5" font-family="Helvetica,sans-Serif" font-size="10.00">nanort::vlength</text>
</a>
</g>
</g>
<!-- Node2 -->
<g id="node2" class="node">
<title>Node2</title>
<g id="a_node2"><a xlink:href="a01443.html#a245ee0e429d5695c33ea29ccbe1792ec" target="_top" xlink:title=" ">
<polygon fill="white" stroke="#666666" points="197.75,-96 116.5,-96 116.5,-76 197.75,-76 197.75,-96"/>
<text xml:space="preserve" text-anchor="middle" x="157.12" y="-82.5" font-family="Helvetica,sans-Serif" font-size="10.00">nanort::real3::x</text>
</a>
</g>
</g>
<!-- Node1&#45;&gt;Node2 -->
<g id="edge1" class="edge">
<title>Node1&#45;&gt;Node2</title>
<path fill="none" stroke="#63b8ff" d="M72.94,-58.48C85.63,-62.68 100.42,-67.57 113.98,-72.06"/>
<polygon fill="#63b8ff" stroke="#63b8ff" points="112.5,-75.26 123.1,-75.07 114.7,-68.61 112.5,-75.26"/>
</g>
<!-- Node3 -->
<g id="node3" class="node">
<title>Node3</title>
<g id="a_node3"><a xlink:href="a01443.html#af92059bf1d44c9bf67c90ca2d46be17e" target="_top" xlink:title=" ">
<polygon fill="white" stroke="#666666" points="197.75,-58 116.5,-58 116.5,-38 197.75,-38 197.75,-58"/>
<text xml:space="preserve" text-anchor="middle" x="157.12" y="-44.5" font-family="Helvetica,sans-Serif" font-size="10.00">nanort::real3::y</text>
</a>
</g>
</g>
<!-- Node1&#45;&gt;Node3 -->
<g id="edge2" class="edge">
<title>Node1&#45;&gt;Node3</title>
<path fill="none" stroke="#63b8ff" d="M80.78,-48C88.55,-48 96.8,-48 104.88,-48"/>
<polygon fill="#63b8ff" stroke="#63b8ff" points="104.62,-51.5 114.62,-48 104.62,-44.5 104.62,-51.5"/>
</g>
<!-- Node4 -->
<g id="node4" class="node">
<title>Node4</title>
<g id="a_node4"><a xlink:href="a01443.html#a96d4a74ac8a453a85c5661d38d3003d1" target="_top" xlink:title=" ">
<polygon fill="white" stroke="#666666" points="197.75,-20 116.5,-20 116.5,0 197.75,0 197.75,-20"/>
<text xml:space="preserve" text-anchor="middle" x="157.12" y="-6.5" font-family="Helvetica,sans-Serif" font-size="10.00">nanort::real3::z</text>
</a>
</g>
</g>
<!-- Node1&#45;&gt;Node4 -->
<g id="edge3" class="edge">
<title>Node1&#45;&gt;Node4</title>
<path fill="none" stroke="#63b8ff" d="M72.94,-37.52C85.63,-33.32 100.42,-28.43 113.98,-23.94"/>
<polygon fill="#63b8ff" stroke="#63b8ff" points="114.7,-27.39 123.1,-20.93 112.5,-20.74 114.7,-27.39"/>
</g>
</g>
</svg>
