<?xml version="1.0" encoding="UTF-8" standalone="no"?>
<!DOCTYPE svg PUBLIC "-//W3C//DTD SVG 1.1//EN"
 "http://www.w3.org/Graphics/SVG/1.1/DTD/svg11.dtd">
<!-- Generated by graphviz version 13.1.2 (20250808.2320)
 -->
<!-- Title: CastOcclusionRays Pages: 1 -->
<svg width="661pt" height="78pt"
 viewBox="0.00 0.00 661.00 78.00" xmlns="http://www.w3.org/2000/svg" xmlns:xlink="http://www.w3.org/1999/xlink">
<g id="graph0" class="graph" transform="scale(1 1) rotate(0) translate(4 74)">
<title>CastOcclusionRays</title>
<!-- Node1 -->
<g id="node1" class="node">
<title>Node1</title>
<g id="a_node1"><a xlink:title="Cast one or more occlusion rays in parallel.">
<polygon fill="#999999" stroke="#666666" points="103.75,-48 0,-48 0,-28 103.75,-28 103.75,-48"/>
<text xml:space="preserve" text-anchor="middle" x="51.88" y="-34.5" font-family="Helvetica,sans-Serif" font-size="10.00">CastOcclusionRays</text>
</a>
</g>
</g>
<!-- Node2 -->
<g id="node2" class="node">
<title>Node2</title>
<g id="a_node2"><a xlink:href="a00245.html#a603d456361c9737b88a091e6683db12b" target="_top" xlink:title="Convert a raw array from an external caller to an organized vector of points">
<polygon fill="white" stroke="#666666" points="293.75,-70 139.75,-70 139.75,-50 293.75,-50 293.75,-70"/>
<text xml:space="preserve" text-anchor="middle" x="216.75" y="-56.5" font-family="Helvetica,sans-Serif" font-size="10.00">ConvertRawFloatArrayToPoints</text>
</a>
</g>
</g>
<!-- Node1&#45;&gt;Node2 -->
<g id="edge1" class="edge">
<title>Node1&#45;&gt;Node2</title>
<path fill="none" stroke="#63b8ff" d="M103.96,-44.9C111.72,-45.95 119.91,-47.06 128.19,-48.17"/>
<polygon fill="#63b8ff" stroke="#63b8ff" points="127.61,-51.63 137.99,-49.5 128.55,-44.69 127.61,-51.63"/>
</g>
<!-- Node3 -->
<g id="node3" class="node">
<title>Node3</title>
<g id="a_node3"><a xlink:href="a01411.html#af718d171387e217f3c2172f795abfb90" target="_top" xlink:title="Cast multiple occlusion rays in parallel.">
<polygon fill="white" stroke="#666666" points="286.25,-32 147.25,-32 147.25,0 286.25,0 286.25,-32"/>
<text xml:space="preserve" text-anchor="start" x="155.25" y="-18.5" font-family="Helvetica,sans-Serif" font-size="10.00">HF::RayTracer::EmbreeRay</text>
<text xml:space="preserve" text-anchor="middle" x="216.75" y="-6.5" font-family="Helvetica,sans-Serif" font-size="10.00">Tracer::Occlusions</text>
</a>
</g>
</g>
<!-- Node1&#45;&gt;Node3 -->
<g id="edge2" class="edge">
<title>Node1&#45;&gt;Node3</title>
<path fill="none" stroke="#63b8ff" d="M103.96,-31.1C114.07,-29.73 124.91,-28.27 135.71,-26.81"/>
<polygon fill="#63b8ff" stroke="#63b8ff" points="135.99,-30.31 145.43,-25.5 135.05,-23.37 135.99,-30.31"/>
</g>
<!-- Node4 -->
<g id="node4" class="node">
<title>Node4</title>
<g id="a_node4"><a xlink:href="a01411.html#ade19fda460dadd98769b347840bd305a" target="_top" xlink:title="Implementation for fundamental occlusion ray intersection.">
<polygon fill="white" stroke="#666666" points="468.75,-32 329.75,-32 329.75,0 468.75,0 468.75,-32"/>
<text xml:space="preserve" text-anchor="start" x="337.75" y="-18.5" font-family="Helvetica,sans-Serif" font-size="10.00">HF::RayTracer::EmbreeRay</text>
<text xml:space="preserve" text-anchor="middle" x="399.25" y="-6.5" font-family="Helvetica,sans-Serif" font-size="10.00">Tracer::Occluded_IMPL</text>
</a>
</g>
</g>
<!-- Node3&#45;&gt;Node4 -->
<g id="edge3" class="edge">
<title>Node3&#45;&gt;Node4</title>
<path fill="none" stroke="#63b8ff" d="M286.5,-16C296.82,-16 307.53,-16 318.06,-16"/>
<polygon fill="#63b8ff" stroke="#63b8ff" points="317.87,-19.5 327.87,-16 317.87,-12.5 317.87,-19.5"/>
</g>
<!-- Node5 -->
<g id="node5" class="node">
<title>Node5</title>
<g id="a_node5"><a xlink:href="a00464.html#a76e5d26b5063f0e5b49b4ba835f1da93" target="_top" xlink:title=" ">
<polygon fill="white" stroke="#666666" points="652.75,-26 504.75,-26 504.75,-6 652.75,-6 652.75,-26"/>
<text xml:space="preserve" text-anchor="middle" x="578.75" y="-12.5" font-family="Helvetica,sans-Serif" font-size="10.00">HF::RayTracer::ConstructRay</text>
</a>
</g>
</g>
<!-- Node4&#45;&gt;Node5 -->
<g id="edge4" class="edge">
<title>Node4&#45;&gt;Node5</title>
<path fill="none" stroke="#63b8ff" d="M469.13,-16C477.01,-16 485.11,-16 493.17,-16"/>
<polygon fill="#63b8ff" stroke="#63b8ff" points="492.99,-19.5 502.99,-16 492.99,-12.5 492.99,-19.5"/>
</g>
</g>
</svg>
