<?xml version="1.0" encoding="UTF-8" standalone="no"?>
<!DOCTYPE svg PUBLIC "-//W3C//DTD SVG 1.1//EN"
 "http://www.w3.org/Graphics/SVG/1.1/DTD/svg11.dtd">
<!-- Generated by graphviz version 13.1.2 (20250808.2320)
 -->
<!-- Title: HF::SpatialStructures::CostAlgorithms::CalculateCrossSlope Pages: 1 -->
<svg width="318pt" height="152pt"
 viewBox="0.00 0.00 318.00 152.00" xmlns="http://www.w3.org/2000/svg" xmlns:xlink="http://www.w3.org/1999/xlink">
<g id="graph0" class="graph" transform="scale(1 1) rotate(0) translate(4 148)">
<title>HF::SpatialStructures::CostAlgorithms::CalculateCrossSlope</title>
<!-- Node1 -->
<g id="node1" class="node">
<title>Node1</title>
<g id="a_node1"><a xlink:title=" ">
<polygon fill="#999999" stroke="#666666" points="136.75,-88 0,-88 0,-44 136.75,-44 136.75,-88"/>
<text xml:space="preserve" text-anchor="start" x="8" y="-74.5" font-family="Helvetica,sans-Serif" font-size="10.00">HF::SpatialStructures</text>
<text xml:space="preserve" text-anchor="start" x="8" y="-62.5" font-family="Helvetica,sans-Serif" font-size="10.00">::CostAlgorithms::Calculate</text>
<text xml:space="preserve" text-anchor="middle" x="68.38" y="-50.5" font-family="Helvetica,sans-Serif" font-size="10.00">CrossSlope</text>
</a>
</g>
</g>
<!-- Node2 -->
<g id="node2" class="node">
<title>Node2</title>
<g id="a_node2"><a xlink:href="a00475.html#a51b88e596c3b5f68b7abbcbc91e30bdf" target="_top" xlink:title=" ">
<polygon fill="white" stroke="#666666" points="309.5,-144 172.75,-144 172.75,-100 309.5,-100 309.5,-144"/>
<text xml:space="preserve" text-anchor="start" x="180.75" y="-130.5" font-family="Helvetica,sans-Serif" font-size="10.00">HF::SpatialStructures</text>
<text xml:space="preserve" text-anchor="start" x="180.75" y="-118.5" font-family="Helvetica,sans-Serif" font-size="10.00">::CostAlgorithms::Calculate</text>
<text xml:space="preserve" text-anchor="middle" x="241.12" y="-106.5" font-family="Helvetica,sans-Serif" font-size="10.00">CrossSlope</text>
</a>
</g>
</g>
<!-- Node1&#45;&gt;Node2 -->
<g id="edge1" class="edge">
<title>Node1&#45;&gt;Node2</title>
<path fill="none" stroke="#63b8ff" d="M136.86,-88.13C144.96,-90.79 153.29,-93.52 161.53,-96.22"/>
<polygon fill="#63b8ff" stroke="#63b8ff" points="160.26,-99.49 170.85,-99.28 162.44,-92.84 160.26,-99.49"/>
</g>
<!-- Node3 -->
<g id="node3" class="node">
<title>Node3</title>
<g id="a_node3"><a xlink:href="a01551.html#a89250c619a726fd0adbd71778d166887" target="_top" xlink:title="Retrieves a Subgraph using a Node.">
<polygon fill="white" stroke="#666666" points="296.75,-82 185.5,-82 185.5,-50 296.75,-50 296.75,-82"/>
<text xml:space="preserve" text-anchor="start" x="193.5" y="-68.5" font-family="Helvetica,sans-Serif" font-size="10.00">HF::SpatialStructures</text>
<text xml:space="preserve" text-anchor="middle" x="241.12" y="-56.5" font-family="Helvetica,sans-Serif" font-size="10.00">::Graph::GetSubgraph</text>
</a>
</g>
</g>
<!-- Node1&#45;&gt;Node3 -->
<g id="edge2" class="edge">
<title>Node1&#45;&gt;Node3</title>
<path fill="none" stroke="#63b8ff" d="M136.86,-66C149.01,-66 161.67,-66 173.78,-66"/>
<polygon fill="#63b8ff" stroke="#63b8ff" points="173.69,-69.5 183.69,-66 173.69,-62.5 173.69,-69.5"/>
</g>
<!-- Node4 -->
<g id="node4" class="node">
<title>Node4</title>
<g id="a_node4"><a xlink:href="a01551.html#aa70347b8a33b57c6f0a72d6eca4248d7" target="_top" xlink:title="Get a list of nodes from the graph sorted by ID.">
<polygon fill="white" stroke="#666666" points="296.38,-32 185.88,-32 185.88,0 296.38,0 296.38,-32"/>
<text xml:space="preserve" text-anchor="start" x="193.88" y="-18.5" font-family="Helvetica,sans-Serif" font-size="10.00">HF::SpatialStructures</text>
<text xml:space="preserve" text-anchor="middle" x="241.12" y="-6.5" font-family="Helvetica,sans-Serif" font-size="10.00">::Graph::Nodes</text>
</a>
</g>
</g>
<!-- Node1&#45;&gt;Node4 -->
<g id="edge3" class="edge">
<title>Node1&#45;&gt;Node4</title>
<path fill="none" stroke="#63b8ff" d="M136.86,-46.24C149.33,-42.59 162.34,-38.78 174.75,-35.14"/>
<polygon fill="#63b8ff" stroke="#63b8ff" points="175.41,-38.6 184.02,-32.43 173.44,-31.88 175.41,-38.6"/>
</g>
</g>
</svg>
