<?xml version="1.0" encoding="UTF-8" standalone="no"?>
<!DOCTYPE svg PUBLIC "-//W3C//DTD SVG 1.1//EN"
 "http://www.w3.org/Graphics/SVG/1.1/DTD/svg11.dtd">
<!-- Generated by graphviz version 13.1.2 (20250808.2320)
 -->
<!-- Title: HF::SpatialStructures::CostAlgorithms::CalculateCrossSlope Pages: 1 -->
<svg width="330pt" height="90pt"
 viewBox="0.00 0.00 330.00 90.00" xmlns="http://www.w3.org/2000/svg" xmlns:xlink="http://www.w3.org/1999/xlink">
<g id="graph0" class="graph" transform="scale(1 1) rotate(0) translate(4 86)">
<title>HF::SpatialStructures::CostAlgorithms::CalculateCrossSlope</title>
<!-- Node1 -->
<g id="node1" class="node">
<title>Node1</title>
<g id="a_node1"><a xlink:title=" ">
<polygon fill="#999999" stroke="#666666" points="321.5,-69 184.75,-69 184.75,-25 321.5,-25 321.5,-69"/>
<text xml:space="preserve" text-anchor="start" x="192.75" y="-55.5" font-family="Helvetica,sans-Serif" font-size="10.00">HF::SpatialStructures</text>
<text xml:space="preserve" text-anchor="start" x="192.75" y="-43.5" font-family="Helvetica,sans-Serif" font-size="10.00">::CostAlgorithms::Calculate</text>
<text xml:space="preserve" text-anchor="middle" x="253.12" y="-31.5" font-family="Helvetica,sans-Serif" font-size="10.00">CrossSlope</text>
</a>
</g>
</g>
<!-- Node2 -->
<g id="node2" class="node">
<title>Node2</title>
<g id="a_node2"><a xlink:href="a00458.html#gad7f7fa84fbf7484d38228ccd346d1ae0" target="_top" xlink:title="Calculates cross slope for all subgraphs in *g.">
<polygon fill="white" stroke="#666666" points="148.75,-82 0,-82 0,-62 148.75,-62 148.75,-82"/>
<text xml:space="preserve" text-anchor="middle" x="74.38" y="-68.5" font-family="Helvetica,sans-Serif" font-size="10.00">CalculateAndStoreCrossSlope</text>
</a>
</g>
</g>
<!-- Node1&#45;&gt;Node2 -->
<g id="edge1" class="edge">
<title>Node1&#45;&gt;Node2</title>
<path fill="none" stroke="#63b8ff" d="M173.13,-58.17C165.17,-59.3 157.1,-60.44 149.2,-61.56"/>
<polygon fill="#63b8ff" stroke="#63b8ff" points="173.38,-61.67 182.8,-56.81 172.4,-54.74 173.38,-61.67"/>
</g>
<!-- Node3 -->
<g id="node3" class="node">
<title>Node3</title>
<g id="a_node3"><a xlink:href="a00475.html#a6d12a3af69887cb335b490304138afc6" target="_top" xlink:title=" ">
<polygon fill="white" stroke="#666666" points="142.75,-44 6,-44 6,0 142.75,0 142.75,-44"/>
<text xml:space="preserve" text-anchor="start" x="14" y="-30.5" font-family="Helvetica,sans-Serif" font-size="10.00">HF::SpatialStructures</text>
<text xml:space="preserve" text-anchor="start" x="14" y="-18.5" font-family="Helvetica,sans-Serif" font-size="10.00">::CostAlgorithms::Calculate</text>
<text xml:space="preserve" text-anchor="middle" x="74.38" y="-6.5" font-family="Helvetica,sans-Serif" font-size="10.00">CrossSlope</text>
</a>
</g>
</g>
<!-- Node1&#45;&gt;Node3 -->
<g id="edge2" class="edge">
<title>Node1&#45;&gt;Node3</title>
<path fill="none" stroke="#63b8ff" d="M173.07,-35.82C163.04,-34.4 152.85,-32.96 143.02,-31.57"/>
<polygon fill="#63b8ff" stroke="#63b8ff" points="172.4,-39.26 182.8,-37.19 173.38,-32.33 172.4,-39.26"/>
</g>
</g>
</svg>
