<?xml version="1.0" encoding="UTF-8" standalone="no"?>
<!DOCTYPE svg PUBLIC "-//W3C//DTD SVG 1.1//EN"
 "http://www.w3.org/Graphics/SVG/1.1/DTD/svg11.dtd">
<!-- Generated by graphviz version 13.1.2 (20250808.2320)
 -->
<!-- Title: GetVertsAndTris Pages: 1 -->
<svg width="257pt" height="90pt"
 viewBox="0.00 0.00 257.00 90.00" xmlns="http://www.w3.org/2000/svg" xmlns:xlink="http://www.w3.org/1999/xlink">
<g id="graph0" class="graph" transform="scale(1 1) rotate(0) translate(4 86)">
<title>GetVertsAndTris</title>
<!-- Node1 -->
<g id="node1" class="node">
<title>Node1</title>
<g id="a_node1"><a xlink:title="Get a pointer to and the size of a mesh&#39;s triangle and vertex arrays.">
<polygon fill="#999999" stroke="#666666" points="88,-51 0,-51 0,-31 88,-31 88,-51"/>
<text xml:space="preserve" text-anchor="middle" x="44" y="-37.5" font-family="Helvetica,sans-Serif" font-size="10.00">GetVertsAndTris</text>
</a>
</g>
</g>
<!-- Node2 -->
<g id="node2" class="node">
<title>Node2</title>
<g id="a_node2"><a xlink:href="a01351.html#a9ca41370061bec524b5c84d689114e41" target="_top" xlink:title="Get a pointer to the index array of this mesh.">
<polygon fill="white" stroke="#666666" points="248.75,-82 124,-82 124,-50 248.75,-50 248.75,-82"/>
<text xml:space="preserve" text-anchor="start" x="132" y="-68.5" font-family="Helvetica,sans-Serif" font-size="10.00">HF::Geometry::MeshInfo</text>
<text xml:space="preserve" text-anchor="middle" x="186.38" y="-56.5" font-family="Helvetica,sans-Serif" font-size="10.00">::GetIndexPointer</text>
</a>
</g>
</g>
<!-- Node1&#45;&gt;Node2 -->
<g id="edge1" class="edge">
<title>Node1&#45;&gt;Node2</title>
<path fill="none" stroke="#63b8ff" d="M88.26,-48.7C95.96,-50.08 104.17,-51.54 112.43,-53.01"/>
<polygon fill="#63b8ff" stroke="#63b8ff" points="111.73,-56.44 122.19,-54.75 112.96,-49.55 111.73,-56.44"/>
</g>
<!-- Node3 -->
<g id="node3" class="node">
<title>Node3</title>
<g id="a_node3"><a xlink:href="a01351.html#aa88fe8bcfc24db635994e529fac008da" target="_top" xlink:title="Get a pointer to the vertex array of this mesh.">
<polygon fill="white" stroke="#666666" points="248.75,-32 124,-32 124,0 248.75,0 248.75,-32"/>
<text xml:space="preserve" text-anchor="start" x="132" y="-18.5" font-family="Helvetica,sans-Serif" font-size="10.00">HF::Geometry::MeshInfo</text>
<text xml:space="preserve" text-anchor="middle" x="186.38" y="-6.5" font-family="Helvetica,sans-Serif" font-size="10.00">::GetVertexPointer</text>
</a>
</g>
</g>
<!-- Node1&#45;&gt;Node3 -->
<g id="edge2" class="edge">
<title>Node1&#45;&gt;Node3</title>
<path fill="none" stroke="#63b8ff" d="M88.26,-33.3C95.96,-31.92 104.17,-30.46 112.43,-28.99"/>
<polygon fill="#63b8ff" stroke="#63b8ff" points="112.96,-32.45 122.19,-27.25 111.73,-25.56 112.96,-32.45"/>
</g>
</g>
</svg>
