<?xml version="1.0" encoding="UTF-8" standalone="no"?>
<!DOCTYPE svg PUBLIC "-//W3C//DTD SVG 1.1//EN"
 "http://www.w3.org/Graphics/SVG/1.1/DTD/svg11.dtd">
<!-- Generated by graphviz version 13.1.2 (20250808.2320)
 -->
<!-- Title: HF::GraphGenerator::DistanceTo Pages: 1 -->
<svg width="1269pt" height="240pt"
 viewBox="0.00 0.00 1269.00 240.00" xmlns="http://www.w3.org/2000/svg" xmlns:xlink="http://www.w3.org/1999/xlink">
<g id="graph0" class="graph" transform="scale(1 1) rotate(0) translate(4 236)">
<title>HF::GraphGenerator::DistanceTo</title>
<!-- Node1 -->
<g id="node1" class="node">
<title>Node1</title>
<g id="a_node1"><a xlink:title="Calculate the distance between two nodes.">
<polygon fill="#999999" stroke="#666666" points="1261.25,-146 1156.75,-146 1156.75,-114 1261.25,-114 1261.25,-146"/>
<text xml:space="preserve" text-anchor="start" x="1164.75" y="-132.5" font-family="Helvetica,sans-Serif" font-size="10.00">HF::GraphGenerator</text>
<text xml:space="preserve" text-anchor="middle" x="1209" y="-120.5" font-family="Helvetica,sans-Serif" font-size="10.00">::DistanceTo</text>
</a>
</g>
</g>
<!-- Node2 -->
<g id="node2" class="node">
<title>Node2</title>
<g id="a_node2"><a xlink:href="a00463.html#ab7ffcc7d6657ce276c06deed24c546a4" target="_top" xlink:title="Calculate all possible edges between parent and possible_children.">
<polygon fill="white" stroke="#666666" points="819.5,-173 715,-173 715,-141 819.5,-141 819.5,-173"/>
<text xml:space="preserve" text-anchor="start" x="723" y="-159.5" font-family="Helvetica,sans-Serif" font-size="10.00">HF::GraphGenerator</text>
<text xml:space="preserve" text-anchor="middle" x="767.25" y="-147.5" font-family="Helvetica,sans-Serif" font-size="10.00">::GetChildren</text>
</a>
</g>
</g>
<!-- Node1&#45;&gt;Node2 -->
<g id="edge1" class="edge">
<title>Node1&#45;&gt;Node2</title>
<path fill="none" stroke="#63b8ff" d="M1144.9,-133.87C1057.36,-139.25 900.72,-148.87 819.79,-153.84"/>
<polygon fill="#63b8ff" stroke="#63b8ff" points="1144.98,-137.38 1154.75,-133.27 1144.56,-130.39 1144.98,-137.38"/>
</g>
<!-- Node9 -->
<g id="node9" class="node">
<title>Node9</title>
<g id="a_node9"><a xlink:href="a00463.html#ace66c1b60785c32433402f012019ab81" target="_top" xlink:title="Determine if there is a valid line of sight between parent and child.">
<polygon fill="white" stroke="#666666" points="1120.75,-124 1016.25,-124 1016.25,-92 1120.75,-92 1120.75,-124"/>
<text xml:space="preserve" text-anchor="start" x="1024.25" y="-110.5" font-family="Helvetica,sans-Serif" font-size="10.00">HF::GraphGenerator</text>
<text xml:space="preserve" text-anchor="middle" x="1068.5" y="-98.5" font-family="Helvetica,sans-Serif" font-size="10.00">::OcclusionCheck</text>
</a>
</g>
</g>
<!-- Node1&#45;&gt;Node9 -->
<g id="edge9" class="edge">
<title>Node1&#45;&gt;Node9</title>
<path fill="none" stroke="#63b8ff" d="M1145.17,-120.02C1137.12,-118.74 1128.96,-117.44 1121.12,-116.2"/>
<polygon fill="#63b8ff" stroke="#63b8ff" points="1144.51,-123.46 1154.93,-121.57 1145.61,-116.55 1144.51,-123.46"/>
</g>
<!-- Node3 -->
<g id="node3" class="node">
<title>Node3</title>
<g id="a_node3"><a xlink:href="a01311.html#ac7052d4b625fb96f29c5bfc091a86f7e" target="_top" xlink:title="Perform breadth first search to populate the graph with with nodes and edges.">
<polygon fill="white" stroke="#666666" points="658.75,-232 510,-232 510,-200 658.75,-200 658.75,-232"/>
<text xml:space="preserve" text-anchor="start" x="518" y="-218.5" font-family="Helvetica,sans-Serif" font-size="10.00">HF::GraphGenerator</text>
<text xml:space="preserve" text-anchor="middle" x="584.38" y="-206.5" font-family="Helvetica,sans-Serif" font-size="10.00">::GraphGenerator::CrawlGeom</text>
</a>
</g>
</g>
<!-- Node2&#45;&gt;Node3 -->
<g id="edge2" class="edge">
<title>Node2&#45;&gt;Node3</title>
<path fill="none" stroke="#63b8ff" d="M705.05,-176.96C682.52,-184.31 657.28,-192.55 635.8,-199.55"/>
<polygon fill="#63b8ff" stroke="#63b8ff" points="706.01,-180.33 714.43,-173.9 703.83,-173.68 706.01,-180.33"/>
</g>
<!-- Node8 -->
<g id="node8" class="node">
<title>Node8</title>
<g id="a_node8"><a xlink:href="a01311.html#a843cc6b5b69b5d013930b3685789fa15" target="_top" xlink:title="Perform breadth first search to populate the graph with nodes and edges using multiple cores.">
<polygon fill="white" stroke="#666666" points="658.75,-182 510,-182 510,-138 658.75,-138 658.75,-182"/>
<text xml:space="preserve" text-anchor="start" x="518" y="-168.5" font-family="Helvetica,sans-Serif" font-size="10.00">HF::GraphGenerator</text>
<text xml:space="preserve" text-anchor="start" x="518" y="-156.5" font-family="Helvetica,sans-Serif" font-size="10.00">::GraphGenerator::CrawlGeom</text>
<text xml:space="preserve" text-anchor="middle" x="584.38" y="-144.5" font-family="Helvetica,sans-Serif" font-size="10.00">Parallel</text>
</a>
</g>
</g>
<!-- Node2&#45;&gt;Node8 -->
<g id="edge7" class="edge">
<title>Node2&#45;&gt;Node8</title>
<path fill="none" stroke="#63b8ff" d="M703.65,-158.04C689.29,-158.28 673.9,-158.53 659.13,-158.78"/>
<polygon fill="#63b8ff" stroke="#63b8ff" points="703.45,-161.54 713.39,-157.88 703.33,-154.54 703.45,-161.54"/>
</g>
<!-- Node4 -->
<g id="node4" class="node">
<title>Node4</title>
<g id="a_node4"><a xlink:href="a01311.html#a5788e421d921ec0ff27defc139c45106" target="_top" xlink:title="Generate a graph of accessible space.">
<polygon fill="white" stroke="#666666" points="474,-210 353.75,-210 353.75,-166 474,-166 474,-210"/>
<text xml:space="preserve" text-anchor="start" x="361.75" y="-196.5" font-family="Helvetica,sans-Serif" font-size="10.00">HF::GraphGenerator</text>
<text xml:space="preserve" text-anchor="start" x="361.75" y="-184.5" font-family="Helvetica,sans-Serif" font-size="10.00">::GraphGenerator::IMPL</text>
<text xml:space="preserve" text-anchor="middle" x="413.88" y="-172.5" font-family="Helvetica,sans-Serif" font-size="10.00">_BuildNetwork</text>
</a>
</g>
</g>
<!-- Node3&#45;&gt;Node4 -->
<g id="edge3" class="edge">
<title>Node3&#45;&gt;Node4</title>
<path fill="none" stroke="#63b8ff" d="M498.76,-201.94C490.53,-200.57 482.3,-199.2 474.4,-197.89"/>
<polygon fill="#63b8ff" stroke="#63b8ff" points="498.03,-205.37 508.47,-203.55 499.17,-198.46 498.03,-205.37"/>
</g>
<!-- Node5 -->
<g id="node5" class="node">
<title>Node5</title>
<g id="a_node5"><a xlink:href="a01311.html#a0c12341433bbec41cc12cc1dbb41a976" target="_top" xlink:title="Generate a graph of accessible space.">
<polygon fill="white" stroke="#666666" points="317.75,-204 162.25,-204 162.25,-172 317.75,-172 317.75,-204"/>
<text xml:space="preserve" text-anchor="start" x="170.25" y="-190.5" font-family="Helvetica,sans-Serif" font-size="10.00">HF::GraphGenerator</text>
<text xml:space="preserve" text-anchor="middle" x="240" y="-178.5" font-family="Helvetica,sans-Serif" font-size="10.00">::GraphGenerator::BuildNetwork</text>
</a>
</g>
</g>
<!-- Node4&#45;&gt;Node5 -->
<g id="edge4" class="edge">
<title>Node4&#45;&gt;Node5</title>
<path fill="none" stroke="#63b8ff" d="M342.25,-188C334.31,-188 326.19,-188 318.17,-188"/>
<polygon fill="#63b8ff" stroke="#63b8ff" points="342.21,-191.5 352.21,-188 342.21,-184.5 342.21,-191.5"/>
</g>
<!-- Node6 -->
<g id="node6" class="node">
<title>Node6</title>
<g id="a_node6"><a xlink:href="a00454.html#ga2df84a732d1edfb70b7bd26d3282e129" target="_top" xlink:title="Construct a graph by performing a breadth&#45;first search of accessible space.">
<polygon fill="white" stroke="#666666" points="104.12,-217 22.12,-217 22.12,-197 104.12,-197 104.12,-217"/>
<text xml:space="preserve" text-anchor="middle" x="63.12" y="-203.5" font-family="Helvetica,sans-Serif" font-size="10.00">GenerateGraph</text>
</a>
</g>
</g>
<!-- Node5&#45;&gt;Node6 -->
<g id="edge5" class="edge">
<title>Node5&#45;&gt;Node6</title>
<path fill="none" stroke="#63b8ff" d="M150.62,-197.6C134.47,-199.36 118.36,-201.11 104.49,-202.61"/>
<polygon fill="#63b8ff" stroke="#63b8ff" points="150.72,-201.11 160.28,-196.55 149.96,-194.15 150.72,-201.11"/>
</g>
<!-- Node7 -->
<g id="node7" class="node">
<title>Node7</title>
<g id="a_node7"><a xlink:href="a00454.html#gab9f58e3ecc686fa9bc34519b0faed734" target="_top" xlink:title="Construct a graph by performing a breadth&#45;first search of accessible space, seperating obstacles from...">
<polygon fill="white" stroke="#666666" points="126.25,-179 0,-179 0,-159 126.25,-159 126.25,-179"/>
<text xml:space="preserve" text-anchor="middle" x="63.12" y="-165.5" font-family="Helvetica,sans-Serif" font-size="10.00">GenerateGraphObstacles</text>
</a>
</g>
</g>
<!-- Node5&#45;&gt;Node7 -->
<g id="edge6" class="edge">
<title>Node5&#45;&gt;Node7</title>
<path fill="none" stroke="#63b8ff" d="M150.4,-178.37C142.33,-177.5 134.27,-176.62 126.5,-175.78"/>
<polygon fill="#63b8ff" stroke="#63b8ff" points="149.96,-181.85 160.28,-179.45 150.72,-174.89 149.96,-181.85"/>
</g>
<!-- Node8&#45;&gt;Node4 -->
<g id="edge8" class="edge">
<title>Node8&#45;&gt;Node4</title>
<path fill="none" stroke="#63b8ff" d="M498.76,-174.06C490.53,-175.43 482.3,-176.8 474.4,-178.11"/>
<polygon fill="#63b8ff" stroke="#63b8ff" points="499.17,-177.54 508.47,-172.45 498.03,-170.63 499.17,-177.54"/>
</g>
<!-- Node10 -->
<g id="node10" class="node">
<title>Node10</title>
<g id="a_node10"><a xlink:href="a00463.html#a260a25e02193ce904849ee090daefa2e" target="_top" xlink:title="Determine what kind of step (if any) is between parent and child, given that a connection was verifie...">
<polygon fill="white" stroke="#666666" points="980.25,-121 875.75,-121 875.75,-89 980.25,-89 980.25,-121"/>
<text xml:space="preserve" text-anchor="start" x="883.75" y="-107.5" font-family="Helvetica,sans-Serif" font-size="10.00">HF::GraphGenerator</text>
<text xml:space="preserve" text-anchor="middle" x="928" y="-95.5" font-family="Helvetica,sans-Serif" font-size="10.00">::CheckConnection</text>
</a>
</g>
</g>
<!-- Node9&#45;&gt;Node10 -->
<g id="edge10" class="edge">
<title>Node9&#45;&gt;Node10</title>
<path fill="none" stroke="#63b8ff" d="M1004.67,-106.64C996.62,-106.46 988.46,-106.29 980.62,-106.12"/>
<polygon fill="#63b8ff" stroke="#63b8ff" points="1004.34,-110.13 1014.41,-106.85 1004.49,-103.13 1004.34,-110.13"/>
</g>
<!-- Node10&#45;&gt;Node2 -->
<g id="edge16" class="edge">
<title>Node10&#45;&gt;Node2</title>
<path fill="none" stroke="#63b8ff" d="M866.07,-124.96C850.32,-130.12 833.55,-135.61 818.42,-140.56"/>
<polygon fill="#63b8ff" stroke="#63b8ff" points="866.92,-128.36 875.33,-121.92 864.74,-121.71 866.92,-128.36"/>
</g>
<!-- Node11 -->
<g id="node11" class="node">
<title>Node11</title>
<g id="a_node11"><a xlink:href="a00463.html#a176c58b25fb5cb545d17128d4535f921" target="_top" xlink:title=" ">
<polygon fill="white" stroke="#666666" points="819.5,-120 715,-120 715,-88 819.5,-88 819.5,-120"/>
<text xml:space="preserve" text-anchor="start" x="723" y="-106.5" font-family="Helvetica,sans-Serif" font-size="10.00">HF::GraphGenerator</text>
<text xml:space="preserve" text-anchor="middle" x="767.25" y="-94.5" font-family="Helvetica,sans-Serif" font-size="10.00">::CalculateStepType</text>
</a>
</g>
</g>
<!-- Node10&#45;&gt;Node11 -->
<g id="edge11" class="edge">
<title>Node10&#45;&gt;Node11</title>
<path fill="none" stroke="#63b8ff" d="M864.36,-104.61C849.59,-104.51 834.02,-104.41 819.8,-104.32"/>
<polygon fill="#63b8ff" stroke="#63b8ff" points="863.92,-108.1 873.94,-104.67 863.97,-101.1 863.92,-108.1"/>
</g>
<!-- Node15 -->
<g id="node15" class="node">
<title>Node15</title>
<g id="a_node15"><a xlink:href="a00463.html#a5d2ad6de2131b1a90a80f901ac8dd185" target="_top" xlink:title=" ">
<polygon fill="white" stroke="#666666" points="839.75,-70 694.75,-70 694.75,-38 839.75,-38 839.75,-70"/>
<text xml:space="preserve" text-anchor="start" x="702.75" y="-56.5" font-family="Helvetica,sans-Serif" font-size="10.00">HF::GraphGenerator</text>
<text xml:space="preserve" text-anchor="middle" x="767.25" y="-44.5" font-family="Helvetica,sans-Serif" font-size="10.00">::CompareCheckConnections</text>
</a>
</g>
</g>
<!-- Node10&#45;&gt;Node15 -->
<g id="edge15" class="edge">
<title>Node10&#45;&gt;Node15</title>
<path fill="none" stroke="#63b8ff" d="M865.1,-85.12C850.02,-80.27 834.06,-75.14 819.53,-70.47"/>
<polygon fill="#63b8ff" stroke="#63b8ff" points="863.86,-88.39 874.46,-88.12 866.01,-81.73 863.86,-88.39"/>
</g>
<!-- Node12 -->
<g id="node12" class="node">
<title>Node12</title>
<g id="a_node12"><a xlink:href="a00463.html#a0251caf5a32eb2c1f9d846d88eb7fe22" target="_top" xlink:title=" ">
<polygon fill="white" stroke="#666666" points="656.88,-120 511.88,-120 511.88,-88 656.88,-88 656.88,-120"/>
<text xml:space="preserve" text-anchor="start" x="519.88" y="-106.5" font-family="Helvetica,sans-Serif" font-size="10.00">HF::GraphGenerator</text>
<text xml:space="preserve" text-anchor="middle" x="584.38" y="-94.5" font-family="Helvetica,sans-Serif" font-size="10.00">::CalculateAndStoreStepType</text>
</a>
</g>
</g>
<!-- Node11&#45;&gt;Node12 -->
<g id="edge12" class="edge">
<title>Node11&#45;&gt;Node12</title>
<path fill="none" stroke="#63b8ff" d="M703.67,-104C688.65,-104 672.5,-104 657.11,-104"/>
<polygon fill="#63b8ff" stroke="#63b8ff" points="703.39,-107.5 713.39,-104 703.39,-100.5 703.39,-107.5"/>
</g>
<!-- Node13 -->
<g id="node13" class="node">
<title>Node13</title>
<g id="a_node13"><a xlink:href="a00454.html#gae7f55e49ba1992471430d0e3d415ebae" target="_top" xlink:title="Query the graph and identify the step types of all edges, adding them to the graph.">
<polygon fill="white" stroke="#666666" points="656.5,-70 512.25,-70 512.25,-50 656.5,-50 656.5,-70"/>
<text xml:space="preserve" text-anchor="middle" x="584.38" y="-56.5" font-family="Helvetica,sans-Serif" font-size="10.00">CalculateAndStoreStepTypes</text>
</a>
</g>
</g>
<!-- Node11&#45;&gt;Node13 -->
<g id="edge13" class="edge">
<title>Node11&#45;&gt;Node13</title>
<path fill="none" stroke="#63b8ff" d="M703.72,-88.79C678.83,-82.73 650.81,-75.92 628.29,-70.44"/>
<polygon fill="#63b8ff" stroke="#63b8ff" points="702.89,-92.19 713.43,-91.15 704.54,-85.39 702.89,-92.19"/>
</g>
<!-- Node14 -->
<g id="node14" class="node">
<title>Node14</title>
<g id="a_node14"><a xlink:href="a00463.html#a81398de53e151ae58b206523e555309e" target="_top" xlink:title=" ">
<polygon fill="white" stroke="#666666" points="636.62,-32 532.12,-32 532.12,0 636.62,0 636.62,-32"/>
<text xml:space="preserve" text-anchor="start" x="540.12" y="-18.5" font-family="Helvetica,sans-Serif" font-size="10.00">HF::GraphGenerator</text>
<text xml:space="preserve" text-anchor="middle" x="584.38" y="-6.5" font-family="Helvetica,sans-Serif" font-size="10.00">::CalculateStepType</text>
</a>
</g>
</g>
<!-- Node11&#45;&gt;Node14 -->
<g id="edge14" class="edge">
<title>Node11&#45;&gt;Node14</title>
<path fill="none" stroke="#63b8ff" d="M704.48,-84.59C701.11,-82.86 697.84,-81 694.75,-79 675.22,-66.36 678.33,-53.56 658.75,-41 652.07,-36.71 644.57,-33.07 636.98,-30.01"/>
<polygon fill="#63b8ff" stroke="#63b8ff" points="702.92,-87.72 713.46,-88.76 705.86,-81.37 702.92,-87.72"/>
</g>
</g>
</svg>
