<?xml version="1.0" encoding="UTF-8" standalone="no"?>
<!DOCTYPE svg PUBLIC "-//W3C//DTD SVG 1.1//EN"
 "http://www.w3.org/Graphics/SVG/1.1/DTD/svg11.dtd">
<!-- Generated by graphviz version 13.1.2 (20250808.2320)
 -->
<!-- Title: Cinterface/spatialstructures_C.cpp Pages: 1 -->
<svg width="966pt" height="264pt"
 viewBox="0.00 0.00 966.00 264.00" xmlns="http://www.w3.org/2000/svg" xmlns:xlink="http://www.w3.org/1999/xlink">
<g id="graph0" class="graph" transform="scale(1 1) rotate(0) translate(4 260)">
<title>Cinterface/spatialstructures_C.cpp</title>
<!-- Node1 -->
<g id="node1" class="node">
<title>Node1</title>
<g id="a_node1"><a xlink:title=" ">
<polygon fill="#999999" stroke="#666666" points="519.01,-256 383.01,-256 383.01,-224 519.01,-224 519.01,-256"/>
<text xml:space="preserve" text-anchor="start" x="391.01" y="-242.5" font-family="Helvetica,sans-Serif" font-size="10.00">Cinterface/spatialstructures</text>
<text xml:space="preserve" text-anchor="middle" x="451.01" y="-230.5" font-family="Helvetica,sans-Serif" font-size="10.00">_C.cpp</text>
</a>
</g>
</g>
<!-- Node2 -->
<g id="node2" class="node">
<title>Node2</title>
<g id="a_node2"><a xlink:href="a00257.html" target="_top" xlink:title="Contains implementation for the HF::SpatialStructures::CostAlgorithms namespace.">
<polygon fill="white" stroke="#666666" points="327.64,-188 234.39,-188 234.39,-168 327.64,-168 327.64,-188"/>
<text xml:space="preserve" text-anchor="middle" x="281.01" y="-174.5" font-family="Helvetica,sans-Serif" font-size="10.00">cost_algorithms.h</text>
</a>
</g>
</g>
<!-- Node1&#45;&gt;Node2 -->
<g id="edge1" class="edge">
<title>Node1&#45;&gt;Node2</title>
<path fill="none" stroke="#63b8ff" d="M407.23,-223.55C379.77,-213.86 344.74,-201.49 318.55,-192.25"/>
<polygon fill="#63b8ff" stroke="#63b8ff" points="319.94,-189.03 309.35,-189 317.61,-195.63 319.94,-189.03"/>
</g>
<!-- Node5 -->
<g id="node5" class="node">
<title>Node5</title>
<g id="a_node5"><a xlink:href="a00263.html" target="_top" xlink:title="Contains definitions for the Edge structure.">
<polygon fill="white" stroke="#666666" points="303.64,-132 258.39,-132 258.39,-112 303.64,-112 303.64,-132"/>
<text xml:space="preserve" text-anchor="middle" x="281.01" y="-118.5" font-family="Helvetica,sans-Serif" font-size="10.00">edge.h</text>
</a>
</g>
</g>
<!-- Node1&#45;&gt;Node5 -->
<g id="edge32" class="edge">
<title>Node1&#45;&gt;Node5</title>
<path fill="none" stroke="#63b8ff" d="M428.44,-223.6C396.02,-201.48 336.62,-160.94 303.99,-138.68"/>
<polygon fill="#63b8ff" stroke="#63b8ff" points="306.26,-135.99 296.03,-133.25 302.32,-141.77 306.26,-135.99"/>
</g>
<!-- Node6 -->
<g id="node6" class="node">
<title>Node6</title>
<g id="a_node6"><a xlink:href="a00275.html" target="_top" xlink:title="Contains definitions for the Node structure.">
<polygon fill="white" stroke="#666666" points="373.64,-76 328.39,-76 328.39,-56 373.64,-56 373.64,-76"/>
<text xml:space="preserve" text-anchor="middle" x="351.01" y="-62.5" font-family="Helvetica,sans-Serif" font-size="10.00">node.h</text>
</a>
</g>
</g>
<!-- Node1&#45;&gt;Node6 -->
<g id="edge33" class="edge">
<title>Node1&#45;&gt;Node6</title>
<path fill="none" stroke="#63b8ff" d="M442.14,-223.74C423.85,-192.28 382.01,-120.32 362.03,-85.95"/>
<polygon fill="#63b8ff" stroke="#63b8ff" points="365.18,-84.4 357.13,-77.52 359.13,-87.92 365.18,-84.4"/>
</g>
<!-- Node11 -->
<g id="node11" class="node">
<title>Node11</title>
<g id="a_node11"><a xlink:href="a00437.html" target="_top" xlink:title="Header file related to manipulating nodes, edges, and graphs via CInterface.">
<polygon fill="white" stroke="#666666" points="152.51,-188 43.51,-188 43.51,-168 152.51,-168 152.51,-188"/>
<text xml:space="preserve" text-anchor="middle" x="98.01" y="-174.5" font-family="Helvetica,sans-Serif" font-size="10.00">spatialstructures_C.h</text>
</a>
</g>
</g>
<!-- Node1&#45;&gt;Node11 -->
<g id="edge11" class="edge">
<title>Node1&#45;&gt;Node11</title>
<path fill="none" stroke="#63b8ff" d="M382.53,-227.36C319.49,-216.64 226.57,-200.85 164.25,-190.26"/>
<polygon fill="#63b8ff" stroke="#63b8ff" points="164.92,-186.82 154.48,-188.6 163.75,-193.72 164.92,-186.82"/>
</g>
<!-- Node13 -->
<g id="node13" class="node">
<title>Node13</title>
<g id="a_node13"><a xlink:href="a00176.html" target="_top" xlink:title="Contains definitions for the Exceptions namespace.">
<polygon fill="white" stroke="#666666" points="874.26,-188 787.76,-188 787.76,-168 874.26,-168 874.26,-188"/>
<text xml:space="preserve" text-anchor="middle" x="831.01" y="-174.5" font-family="Helvetica,sans-Serif" font-size="10.00">HFExceptions.h</text>
</a>
</g>
</g>
<!-- Node1&#45;&gt;Node13 -->
<g id="edge17" class="edge">
<title>Node1&#45;&gt;Node13</title>
<path fill="none" stroke="#63b8ff" d="M519.39,-228.2C592.91,-216.59 708.36,-198.37 776.17,-187.66"/>
<polygon fill="#63b8ff" stroke="#63b8ff" points="776.62,-191.13 785.95,-186.11 775.53,-184.22 776.62,-191.13"/>
</g>
<!-- Node17 -->
<g id="node17" class="node">
<title>Node17</title>
<g id="a_node17"><a xlink:href="a00269.html" target="_top" xlink:title="Contains definitions for the Graph &#160;class.">
<polygon fill="white" stroke="#666666" points="501.14,-188 452.89,-188 452.89,-168 501.14,-168 501.14,-188"/>
<text xml:space="preserve" text-anchor="middle" x="477.01" y="-174.5" font-family="Helvetica,sans-Serif" font-size="10.00">graph.h</text>
</a>
</g>
</g>
<!-- Node1&#45;&gt;Node17 -->
<g id="edge21" class="edge">
<title>Node1&#45;&gt;Node17</title>
<path fill="none" stroke="#63b8ff" d="M457.71,-223.55C460.98,-216 464.96,-206.82 468.45,-198.77"/>
<polygon fill="#63b8ff" stroke="#63b8ff" points="471.57,-200.36 472.33,-189.8 465.15,-197.58 471.57,-200.36"/>
</g>
<!-- Node18 -->
<g id="node18" class="node">
<title>Node18</title>
<g id="a_node18"><a xlink:title=" ">
<polygon fill="#e0e0e0" stroke="#999999" points="703.76,-132 632.26,-132 632.26,-112 703.76,-112 703.76,-132"/>
<text xml:space="preserve" text-anchor="middle" x="668.01" y="-118.5" font-family="Helvetica,sans-Serif" font-size="10.00">robin_hood.h</text>
</a>
</g>
</g>
<!-- Node1&#45;&gt;Node18 -->
<g id="edge34" class="edge">
<title>Node1&#45;&gt;Node18</title>
<path fill="none" stroke="#63b8ff" d="M479.83,-223.6C521.83,-201.15 599.33,-159.72 640.55,-137.68"/>
<polygon fill="#63b8ff" stroke="#63b8ff" points="641.94,-140.91 649.11,-133.11 638.64,-134.73 641.94,-140.91"/>
</g>
<!-- Node20 -->
<g id="node20" class="node">
<title>Node20</title>
<g id="a_node20"><a xlink:title=" ">
<polygon fill="#e0e0e0" stroke="#999999" points="630.76,-76 577.26,-76 577.26,-56 630.76,-56 630.76,-76"/>
<text xml:space="preserve" text-anchor="middle" x="604.01" y="-62.5" font-family="Helvetica,sans-Serif" font-size="10.00">iostream</text>
</a>
</g>
</g>
<!-- Node1&#45;&gt;Node20 -->
<g id="edge35" class="edge">
<title>Node1&#45;&gt;Node20</title>
<path fill="none" stroke="#63b8ff" d="M519.3,-232.08C581.56,-221.73 670.16,-195.99 713.01,-132 733.43,-101.51 681.14,-83.18 642.11,-74.09"/>
<polygon fill="#63b8ff" stroke="#63b8ff" points="643.02,-70.71 632.5,-71.99 641.52,-77.55 643.02,-70.71"/>
</g>
<!-- Node3 -->
<g id="node3" class="node">
<title>Node3</title>
<g id="a_node3"><a xlink:title=" ">
<polygon fill="#e0e0e0" stroke="#999999" points="252.51,-76 209.51,-76 209.51,-56 252.51,-56 252.51,-76"/>
<text xml:space="preserve" text-anchor="middle" x="231.01" y="-62.5" font-family="Helvetica,sans-Serif" font-size="10.00">vector</text>
</a>
</g>
</g>
<!-- Node2&#45;&gt;Node3 -->
<g id="edge2" class="edge">
<title>Node2&#45;&gt;Node3</title>
<path fill="none" stroke="#63b8ff" d="M272.84,-167.61C265.65,-158.91 255.36,-145.33 249.01,-132 242.23,-117.74 237.59,-100.46 234.73,-87.3"/>
<polygon fill="#63b8ff" stroke="#63b8ff" points="238.2,-86.79 232.81,-77.67 231.33,-88.16 238.2,-86.79"/>
</g>
<!-- Node4 -->
<g id="node4" class="node">
<title>Node4</title>
<g id="a_node4"><a xlink:title=" ">
<polygon fill="#e0e0e0" stroke="#999999" points="202.01,-132 162.01,-132 162.01,-112 202.01,-112 202.01,-132"/>
<text xml:space="preserve" text-anchor="middle" x="182.01" y="-118.5" font-family="Helvetica,sans-Serif" font-size="10.00">string</text>
</a>
</g>
</g>
<!-- Node2&#45;&gt;Node4 -->
<g id="edge3" class="edge">
<title>Node2&#45;&gt;Node4</title>
<path fill="none" stroke="#63b8ff" d="M263.77,-167.59C248.67,-159.36 226.48,-147.26 209.03,-137.74"/>
<polygon fill="#63b8ff" stroke="#63b8ff" points="211.18,-134.92 200.72,-133.2 207.82,-141.07 211.18,-134.92"/>
</g>
<!-- Node2&#45;&gt;Node5 -->
<g id="edge4" class="edge">
<title>Node2&#45;&gt;Node5</title>
<path fill="none" stroke="#63b8ff" d="M281.01,-167.59C281.01,-161.01 281.01,-151.96 281.01,-143.73"/>
<polygon fill="#63b8ff" stroke="#63b8ff" points="284.51,-143.81 281.01,-133.81 277.51,-143.81 284.51,-143.81"/>
</g>
<!-- Node9 -->
<g id="node9" class="node">
<title>Node9</title>
<g id="a_node9"><a xlink:href="a00251.html" target="_top" xlink:title="Contains definitions for the HF::SpatialStructures namespace.">
<polygon fill="white" stroke="#666666" points="460.51,-76 393.51,-76 393.51,-56 460.51,-56 460.51,-76"/>
<text xml:space="preserve" text-anchor="middle" x="427.01" y="-62.5" font-family="Helvetica,sans-Serif" font-size="10.00">constants.h</text>
</a>
</g>
</g>
<!-- Node2&#45;&gt;Node9 -->
<g id="edge9" class="edge">
<title>Node2&#45;&gt;Node9</title>
<path fill="none" stroke="#63b8ff" d="M293.46,-167.62C318.35,-148.87 374.52,-106.55 405.5,-83.21"/>
<polygon fill="#63b8ff" stroke="#63b8ff" points="407.51,-86.08 413.39,-77.27 403.29,-80.49 407.51,-86.08"/>
</g>
<!-- Node5&#45;&gt;Node3 -->
<g id="edge8" class="edge">
<title>Node5&#45;&gt;Node3</title>
<path fill="none" stroke="#63b8ff" d="M272.3,-111.59C265.42,-104.16 255.62,-93.58 247.29,-84.58"/>
<polygon fill="#63b8ff" stroke="#63b8ff" points="250.01,-82.37 240.65,-77.41 244.88,-87.12 250.01,-82.37"/>
</g>
<!-- Node5&#45;&gt;Node6 -->
<g id="edge5" class="edge">
<title>Node5&#45;&gt;Node6</title>
<path fill="none" stroke="#63b8ff" d="M293.21,-111.59C303.34,-103.77 318,-92.46 330.02,-83.19"/>
<polygon fill="#63b8ff" stroke="#63b8ff" points="331.98,-86.1 337.76,-77.22 327.71,-80.56 331.98,-86.1"/>
</g>
<!-- Node7 -->
<g id="node7" class="node">
<title>Node7</title>
<g id="a_node7"><a xlink:title=" ">
<polygon fill="#e0e0e0" stroke="#999999" points="79.89,-20 42.14,-20 42.14,0 79.89,0 79.89,-20"/>
<text xml:space="preserve" text-anchor="middle" x="61.01" y="-6.5" font-family="Helvetica,sans-Serif" font-size="10.00">array</text>
</a>
</g>
</g>
<!-- Node6&#45;&gt;Node7 -->
<g id="edge6" class="edge">
<title>Node6&#45;&gt;Node7</title>
<path fill="none" stroke="#63b8ff" d="M328.26,-60.76C276.42,-51.11 149.53,-27.48 91.22,-16.62"/>
<polygon fill="#63b8ff" stroke="#63b8ff" points="92.15,-13.24 81.68,-14.85 90.87,-20.12 92.15,-13.24"/>
</g>
<!-- Node8 -->
<g id="node8" class="node">
<title>Node8</title>
<g id="a_node8"><a xlink:title=" ">
<polygon fill="#e0e0e0" stroke="#999999" points="376.64,-20 325.39,-20 325.39,0 376.64,0 376.64,-20"/>
<text xml:space="preserve" text-anchor="middle" x="351.01" y="-6.5" font-family="Helvetica,sans-Serif" font-size="10.00">ostream</text>
</a>
</g>
</g>
<!-- Node6&#45;&gt;Node8 -->
<g id="edge7" class="edge">
<title>Node6&#45;&gt;Node8</title>
<path fill="none" stroke="#63b8ff" d="M351.01,-55.59C351.01,-49.01 351.01,-39.96 351.01,-31.73"/>
<polygon fill="#63b8ff" stroke="#63b8ff" points="354.51,-31.81 351.01,-21.81 347.51,-31.81 354.51,-31.81"/>
</g>
<!-- Node10 -->
<g id="node10" class="node">
<title>Node10</title>
<g id="a_node10"><a xlink:title=" ">
<polygon fill="#e0e0e0" stroke="#999999" points="448.51,-20 405.51,-20 405.51,0 448.51,0 448.51,-20"/>
<text xml:space="preserve" text-anchor="middle" x="427.01" y="-6.5" font-family="Helvetica,sans-Serif" font-size="10.00">cmath</text>
</a>
</g>
</g>
<!-- Node9&#45;&gt;Node10 -->
<g id="edge10" class="edge">
<title>Node9&#45;&gt;Node10</title>
<path fill="none" stroke="#63b8ff" d="M427.01,-55.59C427.01,-49.01 427.01,-39.96 427.01,-31.73"/>
<polygon fill="#63b8ff" stroke="#63b8ff" points="430.51,-31.81 427.01,-21.81 423.51,-31.81 430.51,-31.81"/>
</g>
<!-- Node11&#45;&gt;Node3 -->
<g id="edge15" class="edge">
<title>Node11&#45;&gt;Node3</title>
<path fill="none" stroke="#63b8ff" d="M104.28,-167.73C113.7,-154.26 132.59,-129.06 153.01,-112 167.44,-99.95 185.52,-89.29 200.65,-81.37"/>
<polygon fill="#63b8ff" stroke="#63b8ff" points="201.87,-84.68 209.21,-77.03 198.71,-78.43 201.87,-84.68"/>
</g>
<!-- Node11&#45;&gt;Node7 -->
<g id="edge16" class="edge">
<title>Node11&#45;&gt;Node7</title>
<path fill="none" stroke="#63b8ff" d="M57.7,-167.61C38.86,-160.98 18.17,-149.97 7.01,-132 -14.61,-97.19 20,-52.24 43.06,-28.12"/>
<polygon fill="#63b8ff" stroke="#63b8ff" points="45.27,-30.86 49.84,-21.3 40.31,-25.92 45.27,-30.86"/>
</g>
<!-- Node12 -->
<g id="node12" class="node">
<title>Node12</title>
<g id="a_node12"><a xlink:href="a00413.html" target="_top" xlink:title=" ">
<polygon fill="white" stroke="#666666" points="106.14,-132 15.89,-132 15.89,-112 106.14,-112 106.14,-132"/>
<text xml:space="preserve" text-anchor="middle" x="61.01" y="-118.5" font-family="Helvetica,sans-Serif" font-size="10.00">cinterface_utils.h</text>
</a>
</g>
</g>
<!-- Node11&#45;&gt;Node12 -->
<g id="edge12" class="edge">
<title>Node11&#45;&gt;Node12</title>
<path fill="none" stroke="#63b8ff" d="M91.57,-167.59C86.69,-160.47 79.82,-150.45 73.84,-141.72"/>
<polygon fill="#63b8ff" stroke="#63b8ff" points="76.78,-139.82 68.24,-133.55 71,-143.77 76.78,-139.82"/>
</g>
<!-- Node12&#45;&gt;Node3 -->
<g id="edge13" class="edge">
<title>Node12&#45;&gt;Node3</title>
<path fill="none" stroke="#63b8ff" d="M90.62,-111.59C120.7,-102.04 167.17,-87.28 198.31,-77.39"/>
<polygon fill="#63b8ff" stroke="#63b8ff" points="199.12,-80.8 207.59,-74.44 197,-74.13 199.12,-80.8"/>
</g>
<!-- Node12&#45;&gt;Node7 -->
<g id="edge14" class="edge">
<title>Node12&#45;&gt;Node7</title>
<path fill="none" stroke="#63b8ff" d="M61.01,-111.62C61.01,-94.01 61.01,-55.59 61.01,-31.65"/>
<polygon fill="#63b8ff" stroke="#63b8ff" points="64.51,-31.87 61.01,-21.87 57.51,-31.87 64.51,-31.87"/>
</g>
<!-- Node14 -->
<g id="node14" class="node">
<title>Node14</title>
<g id="a_node14"><a xlink:title=" ">
<polygon fill="#e0e0e0" stroke="#999999" points="818.01,-132 760.01,-132 760.01,-112 818.01,-112 818.01,-132"/>
<text xml:space="preserve" text-anchor="middle" x="789.01" y="-118.5" font-family="Helvetica,sans-Serif" font-size="10.00">exception</text>
</a>
</g>
</g>
<!-- Node13&#45;&gt;Node14 -->
<g id="edge18" class="edge">
<title>Node13&#45;&gt;Node14</title>
<path fill="none" stroke="#63b8ff" d="M823.7,-167.59C818.04,-160.32 810.02,-150.02 803.13,-141.15"/>
<polygon fill="#63b8ff" stroke="#63b8ff" points="806.08,-139.24 797.17,-133.49 800.55,-143.54 806.08,-139.24"/>
</g>
<!-- Node15 -->
<g id="node15" class="node">
<title>Node15</title>
<g id="a_node15"><a xlink:title=" ">
<polygon fill="#e0e0e0" stroke="#999999" points="881.64,-132 836.39,-132 836.39,-112 881.64,-112 881.64,-132"/>
<text xml:space="preserve" text-anchor="middle" x="859.01" y="-118.5" font-family="Helvetica,sans-Serif" font-size="10.00">cstring</text>
</a>
</g>
</g>
<!-- Node13&#45;&gt;Node15 -->
<g id="edge19" class="edge">
<title>Node13&#45;&gt;Node15</title>
<path fill="none" stroke="#63b8ff" d="M835.89,-167.59C839.5,-160.63 844.55,-150.89 849.01,-142.29"/>
<polygon fill="#63b8ff" stroke="#63b8ff" points="852,-144.13 853.49,-133.64 845.78,-140.91 852,-144.13"/>
</g>
<!-- Node16 -->
<g id="node16" class="node">
<title>Node16</title>
<g id="a_node16"><a xlink:title=" ">
<polygon fill="#e0e0e0" stroke="#999999" points="958.39,-132 899.64,-132 899.64,-112 958.39,-112 958.39,-132"/>
<text xml:space="preserve" text-anchor="middle" x="929.01" y="-118.5" font-family="Helvetica,sans-Serif" font-size="10.00">stdexcept</text>
</a>
</g>
</g>
<!-- Node13&#45;&gt;Node16 -->
<g id="edge20" class="edge">
<title>Node13&#45;&gt;Node16</title>
<path fill="none" stroke="#63b8ff" d="M848.08,-167.59C862.89,-159.44 884.58,-147.48 901.78,-138"/>
<polygon fill="#63b8ff" stroke="#63b8ff" points="903.41,-141.1 910.48,-133.21 900.04,-134.97 903.41,-141.1"/>
</g>
<!-- Node17&#45;&gt;Node3 -->
<g id="edge23" class="edge">
<title>Node17&#45;&gt;Node3</title>
<path fill="none" stroke="#63b8ff" d="M456.04,-167.62C412.74,-148.26 313.26,-103.78 262.32,-81"/>
<polygon fill="#63b8ff" stroke="#63b8ff" points="263.87,-77.86 253.32,-76.97 261.02,-84.25 263.87,-77.86"/>
</g>
<!-- Node17&#45;&gt;Node5 -->
<g id="edge24" class="edge">
<title>Node17&#45;&gt;Node5</title>
<path fill="none" stroke="#63b8ff" d="M452.59,-170.27C417.84,-160.7 354.02,-143.11 314.77,-132.3"/>
<polygon fill="#63b8ff" stroke="#63b8ff" points="315.95,-128.99 305.38,-129.71 314.09,-135.74 315.95,-128.99"/>
</g>
<!-- Node17&#45;&gt;Node6 -->
<g id="edge25" class="edge">
<title>Node17&#45;&gt;Node6</title>
<path fill="none" stroke="#63b8ff" d="M470.65,-167.84C461.12,-154.51 442.07,-129.48 422.01,-112 408.86,-100.54 392.51,-89.97 378.82,-81.96"/>
<polygon fill="#63b8ff" stroke="#63b8ff" points="380.7,-79 370.28,-77.11 377.24,-85.09 380.7,-79"/>
</g>
<!-- Node17&#45;&gt;Node18 -->
<g id="edge22" class="edge">
<title>Node17&#45;&gt;Node18</title>
<path fill="none" stroke="#63b8ff" d="M501.59,-170.05C532.4,-161.34 585.78,-146.25 623.77,-135.51"/>
<polygon fill="#63b8ff" stroke="#63b8ff" points="624.41,-138.96 633.08,-132.88 622.51,-132.23 624.41,-138.96"/>
</g>
<!-- Node19 -->
<g id="node19" class="node">
<title>Node19</title>
<g id="a_node19"><a xlink:href="a00281.html" target="_top" xlink:title="Contains definitions for the Path structure.">
<polygon fill="white" stroke="#666666" points="575.51,-132 532.51,-132 532.51,-112 575.51,-112 575.51,-132"/>
<text xml:space="preserve" text-anchor="middle" x="554.01" y="-118.5" font-family="Helvetica,sans-Serif" font-size="10.00">path.h</text>
</a>
</g>
</g>
<!-- Node17&#45;&gt;Node19 -->
<g id="edge26" class="edge">
<title>Node17&#45;&gt;Node19</title>
<path fill="none" stroke="#63b8ff" d="M490.43,-167.59C501.62,-159.74 517.82,-148.38 531.07,-139.09"/>
<polygon fill="#63b8ff" stroke="#63b8ff" points="533.08,-141.96 539.26,-133.35 529.06,-136.22 533.08,-141.96"/>
</g>
<!-- Node17&#45;&gt;Node20 -->
<g id="edge31" class="edge">
<title>Node17&#45;&gt;Node20</title>
<path fill="none" stroke="#63b8ff" d="M501.58,-173.07C526.11,-167.88 563.2,-156.37 585.01,-132 595.94,-119.79 600.6,-101.62 602.58,-87.59"/>
<polygon fill="#63b8ff" stroke="#63b8ff" points="606.06,-87.97 603.59,-77.66 599.1,-87.26 606.06,-87.97"/>
</g>
<!-- Node21 -->
<g id="node21" class="node">
<title>Node21</title>
<g id="a_node21"><a xlink:title=" ">
<polygon fill="#e0e0e0" stroke="#999999" points="514.39,-132 473.64,-132 473.64,-112 514.39,-112 514.39,-132"/>
<text xml:space="preserve" text-anchor="middle" x="494.01" y="-118.5" font-family="Helvetica,sans-Serif" font-size="10.00">Eigen</text>
</a>
</g>
</g>
<!-- Node17&#45;&gt;Node21 -->
<g id="edge30" class="edge">
<title>Node17&#45;&gt;Node21</title>
<path fill="none" stroke="#63b8ff" d="M479.97,-167.59C482.09,-160.86 485.03,-151.53 487.67,-143.15"/>
<polygon fill="#63b8ff" stroke="#63b8ff" points="490.97,-144.33 490.63,-133.74 484.29,-142.23 490.97,-144.33"/>
</g>
<!-- Node19&#45;&gt;Node3 -->
<g id="edge27" class="edge">
<title>Node19&#45;&gt;Node3</title>
<path fill="none" stroke="#63b8ff" d="M532.09,-114.25C529.06,-113.43 525.97,-112.65 523.01,-112 430.12,-91.45 318.56,-77.06 264.14,-70.69"/>
<polygon fill="#63b8ff" stroke="#63b8ff" points="264.64,-67.22 254.31,-69.55 263.84,-74.17 264.64,-67.22"/>
</g>
<!-- Node19&#45;&gt;Node9 -->
<g id="edge29" class="edge">
<title>Node19&#45;&gt;Node9</title>
<path fill="none" stroke="#63b8ff" d="M532.18,-111.72C512.19,-103.22 482.34,-90.52 459.54,-80.83"/>
<polygon fill="#63b8ff" stroke="#63b8ff" points="460.95,-77.63 450.38,-76.93 458.21,-84.07 460.95,-77.63"/>
</g>
<!-- Node19&#45;&gt;Node20 -->
<g id="edge28" class="edge">
<title>Node19&#45;&gt;Node20</title>
<path fill="none" stroke="#63b8ff" d="M562.72,-111.59C569.61,-104.16 579.41,-93.58 587.73,-84.58"/>
<polygon fill="#63b8ff" stroke="#63b8ff" points="590.15,-87.12 594.37,-77.41 585.01,-82.37 590.15,-87.12"/>
</g>
</g>
</svg>
