<?xml version="1.0" encoding="UTF-8" standalone="no"?>
<!DOCTYPE svg PUBLIC "-//W3C//DTD SVG 1.1//EN"
 "http://www.w3.org/Graphics/SVG/1.1/DTD/svg11.dtd">
<!-- Generated by graphviz version 13.1.2 (20250808.2320)
 -->
<!-- Title: HF::GraphGenerator::CalculateStepType Pages: 1 -->
<svg width="838pt" height="180pt"
 viewBox="0.00 0.00 838.00 180.00" xmlns="http://www.w3.org/2000/svg" xmlns:xlink="http://www.w3.org/1999/xlink">
<g id="graph0" class="graph" transform="scale(1 1) rotate(0) translate(4 176)">
<title>HF::GraphGenerator::CalculateStepType</title>
<!-- Node1 -->
<g id="node1" class="node">
<title>Node1</title>
<g id="a_node1"><a xlink:title=" ">
<polygon fill="#999999" stroke="#666666" points="104.5,-100 0,-100 0,-68 104.5,-68 104.5,-100"/>
<text xml:space="preserve" text-anchor="start" x="8" y="-86.5" font-family="Helvetica,sans-Serif" font-size="10.00">HF::GraphGenerator</text>
<text xml:space="preserve" text-anchor="middle" x="52.25" y="-74.5" font-family="Helvetica,sans-Serif" font-size="10.00">::CalculateStepType</text>
</a>
</g>
</g>
<!-- Node2 -->
<g id="node2" class="node">
<title>Node2</title>
<g id="a_node2"><a xlink:href="a00463.html#a176c58b25fb5cb545d17128d4535f921" target="_top" xlink:title=" ">
<polygon fill="white" stroke="#666666" points="248.38,-150 143.88,-150 143.88,-118 248.38,-118 248.38,-150"/>
<text xml:space="preserve" text-anchor="start" x="151.88" y="-136.5" font-family="Helvetica,sans-Serif" font-size="10.00">HF::GraphGenerator</text>
<text xml:space="preserve" text-anchor="middle" x="196.12" y="-124.5" font-family="Helvetica,sans-Serif" font-size="10.00">::CalculateStepType</text>
</a>
</g>
</g>
<!-- Node1&#45;&gt;Node2 -->
<g id="edge1" class="edge">
<title>Node1&#45;&gt;Node2</title>
<path fill="none" stroke="#63b8ff" d="M99.71,-100.37C111.95,-104.69 125.31,-109.4 138.05,-113.89"/>
<polygon fill="#63b8ff" stroke="#63b8ff" points="136.54,-117.07 147.14,-117.09 138.87,-110.46 136.54,-117.07"/>
</g>
<!-- Node11 -->
<g id="node11" class="node">
<title>Node11</title>
<g id="a_node11"><a xlink:href="a01551.html#a89250c619a726fd0adbd71778d166887" target="_top" xlink:title="Retrieves a Subgraph using a Node.">
<polygon fill="white" stroke="#666666" points="251.75,-100 140.5,-100 140.5,-68 251.75,-68 251.75,-100"/>
<text xml:space="preserve" text-anchor="start" x="148.5" y="-86.5" font-family="Helvetica,sans-Serif" font-size="10.00">HF::SpatialStructures</text>
<text xml:space="preserve" text-anchor="middle" x="196.12" y="-74.5" font-family="Helvetica,sans-Serif" font-size="10.00">::Graph::GetSubgraph</text>
</a>
</g>
</g>
<!-- Node1&#45;&gt;Node11 -->
<g id="edge12" class="edge">
<title>Node1&#45;&gt;Node11</title>
<path fill="none" stroke="#63b8ff" d="M104.87,-84C112.73,-84 120.94,-84 129.06,-84"/>
<polygon fill="#63b8ff" stroke="#63b8ff" points="128.92,-87.5 138.92,-84 128.92,-80.5 128.92,-87.5"/>
</g>
<!-- Node12 -->
<g id="node12" class="node">
<title>Node12</title>
<g id="a_node12"><a xlink:href="a01551.html#aa70347b8a33b57c6f0a72d6eca4248d7" target="_top" xlink:title="Get a list of nodes from the graph sorted by ID.">
<polygon fill="white" stroke="#666666" points="251.38,-50 140.88,-50 140.88,-18 251.38,-18 251.38,-50"/>
<text xml:space="preserve" text-anchor="start" x="148.88" y="-36.5" font-family="Helvetica,sans-Serif" font-size="10.00">HF::SpatialStructures</text>
<text xml:space="preserve" text-anchor="middle" x="196.12" y="-24.5" font-family="Helvetica,sans-Serif" font-size="10.00">::Graph::Nodes</text>
</a>
</g>
</g>
<!-- Node1&#45;&gt;Node12 -->
<g id="edge13" class="edge">
<title>Node1&#45;&gt;Node12</title>
<path fill="none" stroke="#63b8ff" d="M99.71,-67.63C111.95,-63.31 125.31,-58.6 138.05,-54.11"/>
<polygon fill="#63b8ff" stroke="#63b8ff" points="138.87,-57.54 147.14,-50.91 136.54,-50.93 138.87,-57.54"/>
</g>
<!-- Node3 -->
<g id="node3" class="node">
<title>Node3</title>
<g id="a_node3"><a xlink:href="a00463.html#a73b53db067a504d36e9481dfe3326b60" target="_top" xlink:title="Cast an input value to real_t using static cast.">
<polygon fill="white" stroke="#666666" points="532.75,-172 428.25,-172 428.25,-140 532.75,-140 532.75,-172"/>
<text xml:space="preserve" text-anchor="start" x="436.25" y="-158.5" font-family="Helvetica,sans-Serif" font-size="10.00">HF::GraphGenerator</text>
<text xml:space="preserve" text-anchor="middle" x="480.5" y="-146.5" font-family="Helvetica,sans-Serif" font-size="10.00">::CastToReal</text>
</a>
</g>
</g>
<!-- Node2&#45;&gt;Node3 -->
<g id="edge2" class="edge">
<title>Node2&#45;&gt;Node3</title>
<path fill="none" stroke="#63b8ff" d="M247.43,-150.46C260.42,-153.99 274.49,-157.2 287.75,-159 330.51,-164.79 379.11,-163.95 416.69,-161.71"/>
<polygon fill="#63b8ff" stroke="#63b8ff" points="416.72,-165.21 426.47,-161.07 416.26,-158.23 416.72,-165.21"/>
</g>
<!-- Node4 -->
<g id="node4" class="node">
<title>Node4</title>
<g id="a_node4"><a xlink:href="a00463.html#a58892abe1152c28d26d3ca749c99ea4d" target="_top" xlink:title="Cast an array of 3 values to the graph_generator&#39;s real_3 type.">
<polygon fill="white" stroke="#666666" points="392.25,-150 287.75,-150 287.75,-118 392.25,-118 392.25,-150"/>
<text xml:space="preserve" text-anchor="start" x="295.75" y="-136.5" font-family="Helvetica,sans-Serif" font-size="10.00">HF::GraphGenerator</text>
<text xml:space="preserve" text-anchor="middle" x="340" y="-124.5" font-family="Helvetica,sans-Serif" font-size="10.00">::CastToReal3</text>
</a>
</g>
</g>
<!-- Node2&#45;&gt;Node4 -->
<g id="edge3" class="edge">
<title>Node2&#45;&gt;Node4</title>
<path fill="none" stroke="#63b8ff" d="M248.75,-134C257.66,-134 267.01,-134 276.18,-134"/>
<polygon fill="#63b8ff" stroke="#63b8ff" points="276.14,-137.5 286.14,-134 276.14,-130.5 276.14,-137.5"/>
</g>
<!-- Node5 -->
<g id="node5" class="node">
<title>Node5</title>
<g id="a_node5"><a xlink:href="a00463.html#a260a25e02193ce904849ee090daefa2e" target="_top" xlink:title="Determine what kind of step (if any) is between parent and child, given that a connection was verifie...">
<polygon fill="white" stroke="#666666" points="392.25,-100 287.75,-100 287.75,-68 392.25,-68 392.25,-100"/>
<text xml:space="preserve" text-anchor="start" x="295.75" y="-86.5" font-family="Helvetica,sans-Serif" font-size="10.00">HF::GraphGenerator</text>
<text xml:space="preserve" text-anchor="middle" x="340" y="-74.5" font-family="Helvetica,sans-Serif" font-size="10.00">::CheckConnection</text>
</a>
</g>
</g>
<!-- Node2&#45;&gt;Node5 -->
<g id="edge5" class="edge">
<title>Node2&#45;&gt;Node5</title>
<path fill="none" stroke="#63b8ff" d="M243.58,-117.63C255.83,-113.31 269.19,-108.6 281.92,-104.11"/>
<polygon fill="#63b8ff" stroke="#63b8ff" points="282.74,-107.54 291.01,-100.91 280.42,-100.93 282.74,-107.54"/>
</g>
<!-- Node4&#45;&gt;Node3 -->
<g id="edge4" class="edge">
<title>Node4&#45;&gt;Node3</title>
<path fill="none" stroke="#63b8ff" d="M392.57,-142.19C400.41,-143.44 408.58,-144.73 416.63,-146.01"/>
<polygon fill="#63b8ff" stroke="#63b8ff" points="415.96,-149.45 426.39,-147.56 417.06,-142.54 415.96,-149.45"/>
</g>
<!-- Node6 -->
<g id="node6" class="node">
<title>Node6</title>
<g id="a_node6"><a xlink:href="a00463.html#ace66c1b60785c32433402f012019ab81" target="_top" xlink:title="Determine if there is a valid line of sight between parent and child.">
<polygon fill="white" stroke="#666666" points="532.75,-100 428.25,-100 428.25,-68 532.75,-68 532.75,-100"/>
<text xml:space="preserve" text-anchor="start" x="436.25" y="-86.5" font-family="Helvetica,sans-Serif" font-size="10.00">HF::GraphGenerator</text>
<text xml:space="preserve" text-anchor="middle" x="480.5" y="-74.5" font-family="Helvetica,sans-Serif" font-size="10.00">::OcclusionCheck</text>
</a>
</g>
</g>
<!-- Node5&#45;&gt;Node6 -->
<g id="edge6" class="edge">
<title>Node5&#45;&gt;Node6</title>
<path fill="none" stroke="#63b8ff" d="M392.57,-84C400.41,-84 408.58,-84 416.63,-84"/>
<polygon fill="#63b8ff" stroke="#63b8ff" points="416.37,-87.5 426.37,-84 416.37,-80.5 416.37,-87.5"/>
</g>
<!-- Node7 -->
<g id="node7" class="node">
<title>Node7</title>
<g id="a_node7"><a xlink:href="a00463.html#a750afc15c798c79a8b6a0784ed092f3c" target="_top" xlink:title="Calculate the normalized direction from one node to another.">
<polygon fill="white" stroke="#666666" points="681.5,-150 577,-150 577,-118 681.5,-118 681.5,-150"/>
<text xml:space="preserve" text-anchor="start" x="585" y="-136.5" font-family="Helvetica,sans-Serif" font-size="10.00">HF::GraphGenerator</text>
<text xml:space="preserve" text-anchor="middle" x="629.25" y="-124.5" font-family="Helvetica,sans-Serif" font-size="10.00">::DirectionTo</text>
</a>
</g>
</g>
<!-- Node6&#45;&gt;Node7 -->
<g id="edge7" class="edge">
<title>Node6&#45;&gt;Node7</title>
<path fill="none" stroke="#63b8ff" d="M529.55,-100.37C542.16,-104.67 555.9,-109.35 569.01,-113.82"/>
<polygon fill="#63b8ff" stroke="#63b8ff" points="567.81,-117.11 578.41,-117.02 570.07,-110.48 567.81,-117.11"/>
</g>
<!-- Node9 -->
<g id="node9" class="node">
<title>Node9</title>
<g id="a_node9"><a xlink:href="a00463.html#a7f96186b8f24f878404d1feccf2f64db" target="_top" xlink:title="Calculate the distance between two nodes.">
<polygon fill="white" stroke="#666666" points="681.5,-100 577,-100 577,-68 681.5,-68 681.5,-100"/>
<text xml:space="preserve" text-anchor="start" x="585" y="-86.5" font-family="Helvetica,sans-Serif" font-size="10.00">HF::GraphGenerator</text>
<text xml:space="preserve" text-anchor="middle" x="629.25" y="-74.5" font-family="Helvetica,sans-Serif" font-size="10.00">::DistanceTo</text>
</a>
</g>
</g>
<!-- Node6&#45;&gt;Node9 -->
<g id="edge9" class="edge">
<title>Node6&#45;&gt;Node9</title>
<path fill="none" stroke="#63b8ff" d="M533.24,-84C543.66,-84 554.72,-84 565.48,-84"/>
<polygon fill="#63b8ff" stroke="#63b8ff" points="565.47,-87.5 575.47,-84 565.47,-80.5 565.47,-87.5"/>
</g>
<!-- Node10 -->
<g id="node10" class="node">
<title>Node10</title>
<g id="a_node10"><a xlink:href="a01419.html#a22ebf97e859ef651e81deb40b74f668f" target="_top" xlink:title=" ">
<polygon fill="white" stroke="#666666" points="689.75,-32 568.75,-32 568.75,0 689.75,0 689.75,-32"/>
<text xml:space="preserve" text-anchor="start" x="576.75" y="-18.5" font-family="Helvetica,sans-Serif" font-size="10.00">HF::RayTracer::MultiRT</text>
<text xml:space="preserve" text-anchor="middle" x="629.25" y="-6.5" font-family="Helvetica,sans-Serif" font-size="10.00">::Occluded</text>
</a>
</g>
</g>
<!-- Node6&#45;&gt;Node10 -->
<g id="edge10" class="edge">
<title>Node6&#45;&gt;Node10</title>
<path fill="none" stroke="#63b8ff" d="M517.02,-67.54C536.69,-58.43 561.35,-47 582.45,-37.22"/>
<polygon fill="#63b8ff" stroke="#63b8ff" points="583.82,-40.44 591.43,-33.06 580.88,-34.09 583.82,-40.44"/>
</g>
<!-- Node8 -->
<g id="node8" class="node">
<title>Node8</title>
<g id="a_node8"><a xlink:href="a00463.html#ad2e09e0825a1db4fc511907179eddf00" target="_top" xlink:title="Normalize a vector.">
<polygon fill="white" stroke="#666666" points="830.25,-150 725.75,-150 725.75,-118 830.25,-118 830.25,-150"/>
<text xml:space="preserve" text-anchor="start" x="733.75" y="-136.5" font-family="Helvetica,sans-Serif" font-size="10.00">HF::GraphGenerator</text>
<text xml:space="preserve" text-anchor="middle" x="778" y="-124.5" font-family="Helvetica,sans-Serif" font-size="10.00">::Normalize</text>
</a>
</g>
</g>
<!-- Node7&#45;&gt;Node8 -->
<g id="edge8" class="edge">
<title>Node7&#45;&gt;Node8</title>
<path fill="none" stroke="#63b8ff" d="M681.99,-134C692.41,-134 703.47,-134 714.23,-134"/>
<polygon fill="#63b8ff" stroke="#63b8ff" points="714.22,-137.5 724.22,-134 714.22,-130.5 714.22,-137.5"/>
</g>
<!-- Node10&#45;&gt;Node10 -->
<g id="edge11" class="edge">
<title>Node10&#45;&gt;Node10</title>
<path fill="none" stroke="#63b8ff" d="M602.69,-32.44C597.74,-41.58 606.59,-50 629.25,-50 641.64,-50 649.91,-47.48 654.04,-43.71"/>
<polygon fill="#63b8ff" stroke="#63b8ff" points="657.48,-44.36 655.57,-33.94 650.56,-43.27 657.48,-44.36"/>
</g>
</g>
</svg>
