<?xml version="1.0" encoding="UTF-8" standalone="no"?>
<!DOCTYPE svg PUBLIC "-//W3C//DTD SVG 1.1//EN"
 "http://www.w3.org/Graphics/SVG/1.1/DTD/svg11.dtd">
<!-- Generated by graphviz version 13.1.2 (20250808.2320)
 -->
<!-- Title: std::array_hash_combine_impl Pages: 1 -->
<svg width="313pt" height="90pt"
 viewBox="0.00 0.00 313.00 90.00" xmlns="http://www.w3.org/2000/svg" xmlns:xlink="http://www.w3.org/1999/xlink">
<g id="graph0" class="graph" transform="scale(1 1) rotate(0) translate(4 86)">
<title>std::array_hash_combine_impl</title>
<!-- Node1 -->
<g id="node1" class="node">
<title>Node1</title>
<g id="a_node1"><a xlink:title="Combine the hash of value into seed.">
<polygon fill="#999999" stroke="#666666" points="305,-51 156.25,-51 156.25,-31 305,-31 305,-51"/>
<text xml:space="preserve" text-anchor="middle" x="230.62" y="-37.5" font-family="Helvetica,sans-Serif" font-size="10.00">std::array_hash_combine_impl</text>
</a>
</g>
</g>
<!-- Node2 -->
<g id="node2" class="node">
<title>Node2</title>
<g id="a_node2"><a xlink:href="a01371.html#af1c504305bc3e72e72884840ae9b1177" target="_top" xlink:title="Template specialization to hash an array of floats.">
<polygon fill="white" stroke="#666666" points="120.25,-82 0,-82 0,-50 120.25,-50 120.25,-82"/>
<text xml:space="preserve" text-anchor="start" x="8" y="-68.5" font-family="Helvetica,sans-Serif" font-size="10.00">std::hash&lt; std::array</text>
<text xml:space="preserve" text-anchor="middle" x="60.12" y="-56.5" font-family="Helvetica,sans-Serif" font-size="10.00">&lt; float, 3 &gt; &gt;::operator()</text>
</a>
</g>
</g>
<!-- Node1&#45;&gt;Node2 -->
<g id="edge1" class="edge">
<title>Node1&#45;&gt;Node2</title>
<path fill="none" stroke="#63b8ff" d="M147.96,-53.12C138.75,-54.48 129.49,-55.86 120.64,-57.17"/>
<polygon fill="#63b8ff" stroke="#63b8ff" points="148.27,-56.61 157.64,-51.68 147.24,-49.69 148.27,-56.61"/>
</g>
<!-- Node3 -->
<g id="node3" class="node">
<title>Node3</title>
<g id="a_node3"><a xlink:href="a01343.html#afb0661eb1c8c1113e135274672e3026c" target="_top" xlink:title="Calculate a hash for k.">
<polygon fill="white" stroke="#666666" points="113.5,-32 6.75,-32 6.75,0 113.5,0 113.5,-32"/>
<text xml:space="preserve" text-anchor="start" x="14.75" y="-18.5" font-family="Helvetica,sans-Serif" font-size="10.00">std::hash&lt; std::array</text>
<text xml:space="preserve" text-anchor="middle" x="60.12" y="-6.5" font-family="Helvetica,sans-Serif" font-size="10.00">&lt; T, 3 &gt; &gt;::operator()</text>
</a>
</g>
</g>
<!-- Node1&#45;&gt;Node3 -->
<g id="edge2" class="edge">
<title>Node1&#45;&gt;Node3</title>
<path fill="none" stroke="#63b8ff" d="M148.06,-28.9C136.44,-27.17 124.76,-25.44 113.89,-23.83"/>
<polygon fill="#63b8ff" stroke="#63b8ff" points="147.24,-32.31 157.64,-30.32 148.27,-25.39 147.24,-32.31"/>
</g>
</g>
</svg>
