<?xml version="1.0" encoding="UTF-8" standalone="no"?>
<!DOCTYPE svg PUBLIC "-//W3C//DTD SVG 1.1//EN"
 "http://www.w3.org/Graphics/SVG/1.1/DTD/svg11.dtd">
<!-- Generated by graphviz version 13.1.2 (20250808.2320)
 -->
<!-- Title: Cinterface/pathfinder_C.cpp Pages: 1 -->
<svg width="1555pt" height="276pt"
 viewBox="0.00 0.00 1555.00 276.00" xmlns="http://www.w3.org/2000/svg" xmlns:xlink="http://www.w3.org/1999/xlink">
<g id="graph0" class="graph" transform="scale(1 1) rotate(0) translate(4 272)">
<title>Cinterface/pathfinder_C.cpp</title>
<!-- Node1 -->
<g id="node1" class="node">
<title>Node1</title>
<g id="a_node1"><a xlink:title=" ">
<polygon fill="#999999" stroke="#666666" points="725.75,-268 619,-268 619,-236 725.75,-236 725.75,-268"/>
<text xml:space="preserve" text-anchor="start" x="627" y="-254.5" font-family="Helvetica,sans-Serif" font-size="10.00">Cinterface/pathfinder</text>
<text xml:space="preserve" text-anchor="middle" x="672.38" y="-242.5" font-family="Helvetica,sans-Serif" font-size="10.00">_C.cpp</text>
</a>
</g>
</g>
<!-- Node2 -->
<g id="node2" class="node">
<title>Node2</title>
<g id="a_node2"><a xlink:href="a00425.html" target="_top" xlink:title="Header file for C Interface pathfinding functionality.">
<polygon fill="white" stroke="#666666" points="404.25,-200 324.5,-200 324.5,-180 404.25,-180 404.25,-200"/>
<text xml:space="preserve" text-anchor="middle" x="364.38" y="-186.5" font-family="Helvetica,sans-Serif" font-size="10.00">pathfinder_C.h</text>
</a>
</g>
</g>
<!-- Node1&#45;&gt;Node2 -->
<g id="edge1" class="edge">
<title>Node1&#45;&gt;Node2</title>
<path fill="none" stroke="#63b8ff" d="M618.73,-240.55C561.65,-229.43 471.99,-211.96 415.78,-201.01"/>
<polygon fill="#63b8ff" stroke="#63b8ff" points="416.63,-197.61 406.15,-199.14 415.29,-204.48 416.63,-197.61"/>
</g>
<!-- Node4 -->
<g id="node4" class="node">
<title>Node4</title>
<g id="a_node4"><a xlink:title=" ">
<polygon fill="#e0e0e0" stroke="#999999" points="592.88,-76 549.88,-76 549.88,-56 592.88,-56 592.88,-76"/>
<text xml:space="preserve" text-anchor="middle" x="571.38" y="-62.5" font-family="Helvetica,sans-Serif" font-size="10.00">vector</text>
</a>
</g>
</g>
<!-- Node1&#45;&gt;Node4 -->
<g id="edge6" class="edge">
<title>Node1&#45;&gt;Node4</title>
<path fill="none" stroke="#63b8ff" d="M663.94,-235.63C645.55,-202.13 601.9,-122.61 581.82,-86.02"/>
<polygon fill="#63b8ff" stroke="#63b8ff" points="585,-84.55 577.12,-77.47 578.87,-87.92 585,-84.55"/>
</g>
<!-- Node6 -->
<g id="node6" class="node">
<title>Node6</title>
<g id="a_node6"><a xlink:title=" ">
<polygon fill="#e0e0e0" stroke="#999999" points="981,-76 929.75,-76 929.75,-56 981,-56 981,-76"/>
<text xml:space="preserve" text-anchor="middle" x="955.38" y="-62.5" font-family="Helvetica,sans-Serif" font-size="10.00">memory</text>
</a>
</g>
</g>
<!-- Node1&#45;&gt;Node6 -->
<g id="edge5" class="edge">
<title>Node1&#45;&gt;Node6</title>
<path fill="none" stroke="#63b8ff" d="M696.91,-235.65C728.63,-215.55 785.28,-178.76 831.38,-144 849,-130.71 851.04,-124.3 869.38,-112 886.71,-100.37 907.4,-89.46 924.15,-81.29"/>
<polygon fill="#63b8ff" stroke="#63b8ff" points="925.62,-84.47 933.14,-77 922.61,-78.15 925.62,-84.47"/>
</g>
<!-- Node7 -->
<g id="node7" class="node">
<title>Node7</title>
<g id="a_node7"><a xlink:href="a00176.html" target="_top" xlink:title="Contains definitions for the Exceptions namespace.">
<polygon fill="white" stroke="#666666" points="183.62,-200 97.12,-200 97.12,-180 183.62,-180 183.62,-200"/>
<text xml:space="preserve" text-anchor="middle" x="140.38" y="-186.5" font-family="Helvetica,sans-Serif" font-size="10.00">HFExceptions.h</text>
</a>
</g>
</g>
<!-- Node1&#45;&gt;Node7 -->
<g id="edge7" class="edge">
<title>Node1&#45;&gt;Node7</title>
<path fill="none" stroke="#63b8ff" d="M618.93,-244.97C517.44,-233.53 297.83,-208.76 195.25,-197.19"/>
<polygon fill="#63b8ff" stroke="#63b8ff" points="195.76,-193.72 185.43,-196.08 194.97,-200.68 195.76,-193.72"/>
</g>
<!-- Node11 -->
<g id="node11" class="node">
<title>Node11</title>
<g id="a_node11"><a xlink:href="a00269.html" target="_top" xlink:title="Contains definitions for the Graph &#160;class.">
<polygon fill="white" stroke="#666666" points="576.5,-200 528.25,-200 528.25,-180 576.5,-180 576.5,-200"/>
<text xml:space="preserve" text-anchor="middle" x="552.38" y="-186.5" font-family="Helvetica,sans-Serif" font-size="10.00">graph.h</text>
</a>
</g>
</g>
<!-- Node1&#45;&gt;Node11 -->
<g id="edge11" class="edge">
<title>Node1&#45;&gt;Node11</title>
<path fill="none" stroke="#63b8ff" d="M641.47,-235.55C622.98,-226.3 599.63,-214.63 581.47,-205.55"/>
<polygon fill="#63b8ff" stroke="#63b8ff" points="583.05,-202.43 572.54,-201.08 579.92,-208.69 583.05,-202.43"/>
</g>
<!-- Node16 -->
<g id="node16" class="node">
<title>Node16</title>
<g id="a_node16"><a xlink:href="a00281.html" target="_top" xlink:title="Contains definitions for the Path structure.">
<polygon fill="white" stroke="#666666" points="693.88,-138 650.88,-138 650.88,-118 693.88,-118 693.88,-138"/>
<text xml:space="preserve" text-anchor="middle" x="672.38" y="-124.5" font-family="Helvetica,sans-Serif" font-size="10.00">path.h</text>
</a>
</g>
</g>
<!-- Node1&#45;&gt;Node16 -->
<g id="edge34" class="edge">
<title>Node1&#45;&gt;Node16</title>
<path fill="none" stroke="#63b8ff" d="M672.38,-235.55C672.38,-213.81 672.38,-174.14 672.38,-149.82"/>
<polygon fill="#63b8ff" stroke="#63b8ff" points="675.88,-149.9 672.38,-139.9 668.88,-149.9 675.88,-149.9"/>
</g>
<!-- Node21 -->
<g id="node21" class="node">
<title>Node21</title>
<g id="a_node21"><a xlink:href="a00206.html" target="_top" xlink:title="Contains definition for the BoostGraphDeleter structure.">
<polygon fill="white" stroke="#666666" points="822.5,-138 750.25,-138 750.25,-118 822.5,-118 822.5,-138"/>
<text xml:space="preserve" text-anchor="middle" x="786.38" y="-124.5" font-family="Helvetica,sans-Serif" font-size="10.00">path_finder.h</text>
</a>
</g>
</g>
<!-- Node1&#45;&gt;Node21 -->
<g id="edge27" class="edge">
<title>Node1&#45;&gt;Node21</title>
<path fill="none" stroke="#63b8ff" d="M686.81,-235.55C708.06,-212.81 747.65,-170.44 769.97,-146.55"/>
<polygon fill="#63b8ff" stroke="#63b8ff" points="772.3,-149.19 776.57,-139.49 767.19,-144.41 772.3,-149.19"/>
</g>
<!-- Node24 -->
<g id="node24" class="node">
<title>Node24</title>
<g id="a_node24"><a xlink:title=" ">
<polygon fill="#e0e0e0" stroke="#999999" points="928.62,-200 878.12,-200 878.12,-180 928.62,-180 928.62,-200"/>
<text xml:space="preserve" text-anchor="middle" x="903.38" y="-186.5" font-family="Helvetica,sans-Serif" font-size="10.00">numeric</text>
</a>
</g>
</g>
<!-- Node1&#45;&gt;Node24 -->
<g id="edge35" class="edge">
<title>Node1&#45;&gt;Node24</title>
<path fill="none" stroke="#63b8ff" d="M726.24,-237.01C769.5,-225.77 829.06,-210.3 866.89,-200.48"/>
<polygon fill="#63b8ff" stroke="#63b8ff" points="867.63,-203.9 876.43,-198 865.87,-197.13 867.63,-203.9"/>
</g>
<!-- Node25 -->
<g id="node25" class="node">
<title>Node25</title>
<g id="a_node25"><a xlink:href="a00200.html" target="_top" xlink:title="Contains definitions for the BoostGraph class.">
<polygon fill="white" stroke="#666666" points="1195.12,-200 1117.62,-200 1117.62,-180 1195.12,-180 1195.12,-200"/>
<text xml:space="preserve" text-anchor="middle" x="1156.38" y="-186.5" font-family="Helvetica,sans-Serif" font-size="10.00">boost_graph.h</text>
</a>
</g>
</g>
<!-- Node1&#45;&gt;Node25 -->
<g id="edge36" class="edge">
<title>Node1&#45;&gt;Node25</title>
<path fill="none" stroke="#63b8ff" d="M726.02,-244.35C820.31,-232.66 1014.45,-208.59 1106.22,-197.22"/>
<polygon fill="#63b8ff" stroke="#63b8ff" points="1106.42,-200.72 1115.91,-196.02 1105.56,-193.77 1106.42,-200.72"/>
</g>
<!-- Node3 -->
<g id="node3" class="node">
<title>Node3</title>
<g id="a_node3"><a xlink:href="a00413.html" target="_top" xlink:title=" ">
<polygon fill="white" stroke="#666666" points="306.5,-138 216.25,-138 216.25,-118 306.5,-118 306.5,-138"/>
<text xml:space="preserve" text-anchor="middle" x="261.38" y="-124.5" font-family="Helvetica,sans-Serif" font-size="10.00">cinterface_utils.h</text>
</a>
</g>
</g>
<!-- Node2&#45;&gt;Node3 -->
<g id="edge2" class="edge">
<title>Node2&#45;&gt;Node3</title>
<path fill="none" stroke="#63b8ff" d="M348.28,-179.62C331.95,-170.11 306.43,-155.24 287.25,-144.08"/>
<polygon fill="#63b8ff" stroke="#63b8ff" points="289.07,-141.08 278.66,-139.07 285.54,-147.13 289.07,-141.08"/>
</g>
<!-- Node3&#45;&gt;Node4 -->
<g id="edge3" class="edge">
<title>Node3&#45;&gt;Node4</title>
<path fill="none" stroke="#63b8ff" d="M306.78,-118.21C369.93,-105.99 482.74,-84.15 538.43,-73.38"/>
<polygon fill="#63b8ff" stroke="#63b8ff" points="539.08,-76.82 548.23,-71.48 537.75,-69.94 539.08,-76.82"/>
</g>
<!-- Node5 -->
<g id="node5" class="node">
<title>Node5</title>
<g id="a_node5"><a xlink:title=" ">
<polygon fill="#e0e0e0" stroke="#999999" points="288.25,-20 250.5,-20 250.5,0 288.25,0 288.25,-20"/>
<text xml:space="preserve" text-anchor="middle" x="269.38" y="-6.5" font-family="Helvetica,sans-Serif" font-size="10.00">array</text>
</a>
</g>
</g>
<!-- Node3&#45;&gt;Node5 -->
<g id="edge4" class="edge">
<title>Node3&#45;&gt;Node5</title>
<path fill="none" stroke="#63b8ff" d="M262.03,-117.51C263.32,-98.81 266.21,-56.82 267.96,-31.51"/>
<polygon fill="#63b8ff" stroke="#63b8ff" points="271.43,-32.03 268.63,-21.81 264.45,-31.55 271.43,-32.03"/>
</g>
<!-- Node8 -->
<g id="node8" class="node">
<title>Node8</title>
<g id="a_node8"><a xlink:title=" ">
<polygon fill="#e0e0e0" stroke="#999999" points="134.38,-138 76.38,-138 76.38,-118 134.38,-118 134.38,-138"/>
<text xml:space="preserve" text-anchor="middle" x="105.38" y="-124.5" font-family="Helvetica,sans-Serif" font-size="10.00">exception</text>
</a>
</g>
</g>
<!-- Node7&#45;&gt;Node8 -->
<g id="edge8" class="edge">
<title>Node7&#45;&gt;Node8</title>
<path fill="none" stroke="#63b8ff" d="M134.91,-179.62C129.95,-171.12 122.49,-158.33 116.31,-147.74"/>
<polygon fill="#63b8ff" stroke="#63b8ff" points="119.52,-146.29 111.45,-139.42 113.47,-149.82 119.52,-146.29"/>
</g>
<!-- Node9 -->
<g id="node9" class="node">
<title>Node9</title>
<g id="a_node9"><a xlink:title=" ">
<polygon fill="#e0e0e0" stroke="#999999" points="198,-138 152.75,-138 152.75,-118 198,-118 198,-138"/>
<text xml:space="preserve" text-anchor="middle" x="175.38" y="-124.5" font-family="Helvetica,sans-Serif" font-size="10.00">cstring</text>
</a>
</g>
</g>
<!-- Node7&#45;&gt;Node9 -->
<g id="edge9" class="edge">
<title>Node7&#45;&gt;Node9</title>
<path fill="none" stroke="#63b8ff" d="M145.84,-179.62C150.8,-171.12 158.26,-158.33 164.44,-147.74"/>
<polygon fill="#63b8ff" stroke="#63b8ff" points="167.28,-149.82 169.3,-139.42 161.23,-146.29 167.28,-149.82"/>
</g>
<!-- Node10 -->
<g id="node10" class="node">
<title>Node10</title>
<g id="a_node10"><a xlink:title=" ">
<polygon fill="#e0e0e0" stroke="#999999" points="58.75,-138 0,-138 0,-118 58.75,-118 58.75,-138"/>
<text xml:space="preserve" text-anchor="middle" x="29.38" y="-124.5" font-family="Helvetica,sans-Serif" font-size="10.00">stdexcept</text>
</a>
</g>
</g>
<!-- Node7&#45;&gt;Node10 -->
<g id="edge10" class="edge">
<title>Node7&#45;&gt;Node10</title>
<path fill="none" stroke="#63b8ff" d="M123.03,-179.62C105.27,-170.03 77.41,-154.97 56.69,-143.77"/>
<polygon fill="#63b8ff" stroke="#63b8ff" points="58.39,-140.71 47.93,-139.03 55.06,-146.86 58.39,-140.71"/>
</g>
<!-- Node11&#45;&gt;Node4 -->
<g id="edge13" class="edge">
<title>Node11&#45;&gt;Node4</title>
<path fill="none" stroke="#63b8ff" d="M555.62,-179.82C558.67,-170.82 563.08,-156.64 565.38,-144 568.82,-125.03 570.28,-103.09 570.91,-87.49"/>
<polygon fill="#63b8ff" stroke="#63b8ff" points="574.41,-87.7 571.22,-77.6 567.41,-87.49 574.41,-87.7"/>
</g>
<!-- Node12 -->
<g id="node12" class="node">
<title>Node12</title>
<g id="a_node12"><a xlink:title=" ">
<polygon fill="#e0e0e0" stroke="#999999" points="434.12,-138 362.62,-138 362.62,-118 434.12,-118 434.12,-138"/>
<text xml:space="preserve" text-anchor="middle" x="398.38" y="-124.5" font-family="Helvetica,sans-Serif" font-size="10.00">robin_hood.h</text>
</a>
</g>
</g>
<!-- Node11&#45;&gt;Node12 -->
<g id="edge12" class="edge">
<title>Node11&#45;&gt;Node12</title>
<path fill="none" stroke="#63b8ff" d="M528.31,-179.62C502.73,-169.66 462.05,-153.81 433.02,-142.5"/>
<polygon fill="#63b8ff" stroke="#63b8ff" points="434.52,-139.33 423.93,-138.96 431.98,-145.85 434.52,-139.33"/>
</g>
<!-- Node13 -->
<g id="node13" class="node">
<title>Node13</title>
<g id="a_node13"><a xlink:href="a00263.html" target="_top" xlink:title="Contains definitions for the Edge structure.">
<polygon fill="white" stroke="#666666" points="556,-138 510.75,-138 510.75,-118 556,-118 556,-138"/>
<text xml:space="preserve" text-anchor="middle" x="533.38" y="-124.5" font-family="Helvetica,sans-Serif" font-size="10.00">edge.h</text>
</a>
</g>
</g>
<!-- Node11&#45;&gt;Node13 -->
<g id="edge14" class="edge">
<title>Node11&#45;&gt;Node13</title>
<path fill="none" stroke="#63b8ff" d="M549.41,-179.62C546.83,-171.48 543,-159.39 539.73,-149.07"/>
<polygon fill="#63b8ff" stroke="#63b8ff" points="543.07,-148.03 536.72,-139.56 536.4,-150.15 543.07,-148.03"/>
</g>
<!-- Node14 -->
<g id="node14" class="node">
<title>Node14</title>
<g id="a_node14"><a xlink:href="a00275.html" target="_top" xlink:title="Contains definitions for the Node structure.">
<polygon fill="white" stroke="#666666" points="357,-76 311.75,-76 311.75,-56 357,-56 357,-76"/>
<text xml:space="preserve" text-anchor="middle" x="334.38" y="-62.5" font-family="Helvetica,sans-Serif" font-size="10.00">node.h</text>
</a>
</g>
</g>
<!-- Node11&#45;&gt;Node14 -->
<g id="edge19" class="edge">
<title>Node11&#45;&gt;Node14</title>
<path fill="none" stroke="#63b8ff" d="M528.06,-186.67C480.59,-181.63 378.03,-168.18 353.38,-144 338.5,-129.41 334.57,-105.16 333.85,-87.77"/>
<polygon fill="#63b8ff" stroke="#63b8ff" points="337.35,-87.81 333.79,-77.83 330.35,-87.85 337.35,-87.81"/>
</g>
<!-- Node11&#45;&gt;Node16 -->
<g id="edge20" class="edge">
<title>Node11&#45;&gt;Node16</title>
<path fill="none" stroke="#63b8ff" d="M571.12,-179.62C590.59,-169.89 621.27,-154.55 643.76,-143.31"/>
<polygon fill="#63b8ff" stroke="#63b8ff" points="645.02,-146.59 652.4,-138.99 641.89,-140.33 645.02,-146.59"/>
</g>
<!-- Node17 -->
<g id="node17" class="node">
<title>Node17</title>
<g id="a_node17"><a xlink:title=" ">
<polygon fill="#e0e0e0" stroke="#999999" points="749.12,-76 695.62,-76 695.62,-56 749.12,-56 749.12,-76"/>
<text xml:space="preserve" text-anchor="middle" x="722.38" y="-62.5" font-family="Helvetica,sans-Serif" font-size="10.00">iostream</text>
</a>
</g>
</g>
<!-- Node11&#45;&gt;Node17 -->
<g id="edge26" class="edge">
<title>Node11&#45;&gt;Node17</title>
<path fill="none" stroke="#63b8ff" d="M576.81,-188.81C610.23,-187.19 669.87,-179.14 703.38,-144 717.68,-129 721.73,-105.01 722.64,-87.8"/>
<polygon fill="#63b8ff" stroke="#63b8ff" points="726.14,-88.02 722.82,-77.96 719.14,-87.89 726.14,-88.02"/>
</g>
<!-- Node20 -->
<g id="node20" class="node">
<title>Node20</title>
<g id="a_node20"><a xlink:title=" ">
<polygon fill="#e0e0e0" stroke="#999999" points="492.75,-138 452,-138 452,-118 492.75,-118 492.75,-138"/>
<text xml:space="preserve" text-anchor="middle" x="472.38" y="-124.5" font-family="Helvetica,sans-Serif" font-size="10.00">Eigen</text>
</a>
</g>
</g>
<!-- Node11&#45;&gt;Node20 -->
<g id="edge25" class="edge">
<title>Node11&#45;&gt;Node20</title>
<path fill="none" stroke="#63b8ff" d="M539.88,-179.62C527.55,-170.38 508.46,-156.07 493.73,-145.01"/>
<polygon fill="#63b8ff" stroke="#63b8ff" points="496.1,-142.42 486,-139.22 491.9,-148.02 496.1,-142.42"/>
</g>
<!-- Node13&#45;&gt;Node4 -->
<g id="edge18" class="edge">
<title>Node13&#45;&gt;Node4</title>
<path fill="none" stroke="#63b8ff" d="M539.31,-117.62C544.7,-109.12 552.8,-96.33 559.51,-85.74"/>
<polygon fill="#63b8ff" stroke="#63b8ff" points="562.4,-87.71 564.79,-77.39 556.49,-83.97 562.4,-87.71"/>
</g>
<!-- Node13&#45;&gt;Node14 -->
<g id="edge15" class="edge">
<title>Node13&#45;&gt;Node14</title>
<path fill="none" stroke="#63b8ff" d="M514.66,-117.56C510.35,-115.58 505.75,-113.6 501.38,-112 456.48,-95.57 402.82,-82.17 368.68,-74.39"/>
<polygon fill="#63b8ff" stroke="#63b8ff" points="369.46,-70.98 358.94,-72.2 367.93,-77.81 369.46,-70.98"/>
</g>
<!-- Node14&#45;&gt;Node5 -->
<g id="edge16" class="edge">
<title>Node14&#45;&gt;Node5</title>
<path fill="none" stroke="#63b8ff" d="M323.05,-55.59C313.73,-47.85 300.3,-36.69 289.2,-27.47"/>
<polygon fill="#63b8ff" stroke="#63b8ff" points="291.66,-24.96 281.73,-21.27 287.19,-30.35 291.66,-24.96"/>
</g>
<!-- Node15 -->
<g id="node15" class="node">
<title>Node15</title>
<g id="a_node15"><a xlink:title=" ">
<polygon fill="#e0e0e0" stroke="#999999" points="360,-20 308.75,-20 308.75,0 360,0 360,-20"/>
<text xml:space="preserve" text-anchor="middle" x="334.38" y="-6.5" font-family="Helvetica,sans-Serif" font-size="10.00">ostream</text>
</a>
</g>
</g>
<!-- Node14&#45;&gt;Node15 -->
<g id="edge17" class="edge">
<title>Node14&#45;&gt;Node15</title>
<path fill="none" stroke="#63b8ff" d="M334.38,-55.59C334.38,-49.01 334.38,-39.96 334.38,-31.73"/>
<polygon fill="#63b8ff" stroke="#63b8ff" points="337.88,-31.81 334.38,-21.81 330.88,-31.81 337.88,-31.81"/>
</g>
<!-- Node16&#45;&gt;Node4 -->
<g id="edge21" class="edge">
<title>Node16&#45;&gt;Node4</title>
<path fill="none" stroke="#63b8ff" d="M656.59,-117.62C640.58,-108.11 615.55,-93.24 596.75,-82.08"/>
<polygon fill="#63b8ff" stroke="#63b8ff" points="598.73,-79.18 588.35,-77.08 595.16,-85.2 598.73,-79.18"/>
</g>
<!-- Node16&#45;&gt;Node17 -->
<g id="edge22" class="edge">
<title>Node16&#45;&gt;Node17</title>
<path fill="none" stroke="#63b8ff" d="M680.19,-117.62C687.5,-108.86 698.6,-95.53 707.58,-84.75"/>
<polygon fill="#63b8ff" stroke="#63b8ff" points="710.1,-87.2 713.81,-77.28 704.72,-82.72 710.1,-87.2"/>
</g>
<!-- Node18 -->
<g id="node18" class="node">
<title>Node18</title>
<g id="a_node18"><a xlink:href="a00251.html" target="_top" xlink:title="Contains definitions for the HF::SpatialStructures namespace.">
<polygon fill="white" stroke="#666666" points="677.88,-76 610.88,-76 610.88,-56 677.88,-56 677.88,-76"/>
<text xml:space="preserve" text-anchor="middle" x="644.38" y="-62.5" font-family="Helvetica,sans-Serif" font-size="10.00">constants.h</text>
</a>
</g>
</g>
<!-- Node16&#45;&gt;Node18 -->
<g id="edge23" class="edge">
<title>Node16&#45;&gt;Node18</title>
<path fill="none" stroke="#63b8ff" d="M668,-117.62C664.11,-109.3 658.31,-96.86 653.43,-86.4"/>
<polygon fill="#63b8ff" stroke="#63b8ff" points="656.67,-85.07 649.27,-77.48 650.32,-88.03 656.67,-85.07"/>
</g>
<!-- Node19 -->
<g id="node19" class="node">
<title>Node19</title>
<g id="a_node19"><a xlink:title=" ">
<polygon fill="#e0e0e0" stroke="#999999" points="731.88,-20 688.88,-20 688.88,0 731.88,0 731.88,-20"/>
<text xml:space="preserve" text-anchor="middle" x="710.38" y="-6.5" font-family="Helvetica,sans-Serif" font-size="10.00">cmath</text>
</a>
</g>
</g>
<!-- Node18&#45;&gt;Node19 -->
<g id="edge24" class="edge">
<title>Node18&#45;&gt;Node19</title>
<path fill="none" stroke="#63b8ff" d="M655.87,-55.59C665.34,-47.85 678.98,-36.69 690.25,-27.47"/>
<polygon fill="#63b8ff" stroke="#63b8ff" points="692.32,-30.3 697.84,-21.26 687.88,-24.88 692.32,-30.3"/>
</g>
<!-- Node21&#45;&gt;Node4 -->
<g id="edge29" class="edge">
<title>Node21&#45;&gt;Node4</title>
<path fill="none" stroke="#63b8ff" d="M751.19,-117.55C716.18,-108.1 660.65,-92.95 604.23,-76.78"/>
<polygon fill="#63b8ff" stroke="#63b8ff" points="605.35,-73.46 594.77,-74.06 603.41,-80.19 605.35,-73.46"/>
</g>
<!-- Node21&#45;&gt;Node6 -->
<g id="edge28" class="edge">
<title>Node21&#45;&gt;Node6</title>
<path fill="none" stroke="#63b8ff" d="M812.78,-117.62C841.27,-107.51 886.82,-91.34 918.75,-80"/>
<polygon fill="#63b8ff" stroke="#63b8ff" points="919.75,-83.36 928.01,-76.72 917.41,-76.76 919.75,-83.36"/>
</g>
<!-- Node21&#45;&gt;Node17 -->
<g id="edge32" class="edge">
<title>Node21&#45;&gt;Node17</title>
<path fill="none" stroke="#63b8ff" d="M776.38,-117.62C766.74,-108.59 751.94,-94.72 740.27,-83.78"/>
<polygon fill="#63b8ff" stroke="#63b8ff" points="742.89,-81.43 733.2,-77.15 738.1,-86.54 742.89,-81.43"/>
</g>
<!-- Node21&#45;&gt;Node19 -->
<g id="edge33" class="edge">
<title>Node21&#45;&gt;Node19</title>
<path fill="none" stroke="#63b8ff" d="M784.11,-117.63C780.36,-103.42 771.92,-75.95 758.38,-56 751.15,-45.37 741.01,-35.39 731.91,-27.55"/>
<polygon fill="#63b8ff" stroke="#63b8ff" points="734.41,-25.08 724.47,-21.43 729.97,-30.48 734.41,-25.08"/>
</g>
<!-- Node22 -->
<g id="node22" class="node">
<title>Node22</title>
<g id="a_node22"><a xlink:title=" ">
<polygon fill="#e0e0e0" stroke="#999999" points="845.38,-76 805.38,-76 805.38,-56 845.38,-56 845.38,-76"/>
<text xml:space="preserve" text-anchor="middle" x="825.38" y="-62.5" font-family="Helvetica,sans-Serif" font-size="10.00">string</text>
</a>
</g>
</g>
<!-- Node21&#45;&gt;Node22 -->
<g id="edge30" class="edge">
<title>Node21&#45;&gt;Node22</title>
<path fill="none" stroke="#63b8ff" d="M792.47,-117.62C798,-109.12 806.31,-96.33 813.2,-85.74"/>
<polygon fill="#63b8ff" stroke="#63b8ff" points="816.11,-87.67 818.63,-77.38 810.24,-83.86 816.11,-87.67"/>
</g>
<!-- Node23 -->
<g id="node23" class="node">
<title>Node23</title>
<g id="a_node23"><a xlink:title=" ">
<polygon fill="#e0e0e0" stroke="#999999" points="911.5,-76 863.25,-76 863.25,-56 911.5,-56 911.5,-76"/>
<text xml:space="preserve" text-anchor="middle" x="887.38" y="-62.5" font-family="Helvetica,sans-Serif" font-size="10.00">cassert</text>
</a>
</g>
</g>
<!-- Node21&#45;&gt;Node23 -->
<g id="edge31" class="edge">
<title>Node21&#45;&gt;Node23</title>
<path fill="none" stroke="#63b8ff" d="M802.16,-117.62C818.17,-108.11 843.2,-93.24 862,-82.08"/>
<polygon fill="#63b8ff" stroke="#63b8ff" points="863.59,-85.2 870.4,-77.08 860.02,-79.18 863.59,-85.2"/>
</g>
<!-- Node26 -->
<g id="node26" class="node">
<title>Node26</title>
<g id="a_node26"><a xlink:title=" ">
<polygon fill="#e0e0e0" stroke="#999999" points="1018.25,-138 878.5,-138 878.5,-118 1018.25,-118 1018.25,-138"/>
<text xml:space="preserve" text-anchor="middle" x="948.38" y="-124.5" font-family="Helvetica,sans-Serif" font-size="10.00">boost/graph/graph_traits.hpp</text>
</a>
</g>
</g>
<!-- Node25&#45;&gt;Node26 -->
<g id="edge37" class="edge">
<title>Node25&#45;&gt;Node26</title>
<path fill="none" stroke="#63b8ff" d="M1123.88,-179.62C1088.34,-169.37 1031.21,-152.9 991.84,-141.54"/>
<polygon fill="#63b8ff" stroke="#63b8ff" points="993.02,-138.24 982.44,-138.83 991.08,-144.96 993.02,-138.24"/>
</g>
<!-- Node27 -->
<g id="node27" class="node">
<title>Node27</title>
<g id="a_node27"><a xlink:title=" ">
<polygon fill="#e0e0e0" stroke="#999999" points="1150.5,-144 1036.25,-144 1036.25,-112 1150.5,-112 1150.5,-144"/>
<text xml:space="preserve" text-anchor="start" x="1044.25" y="-130.5" font-family="Helvetica,sans-Serif" font-size="10.00">boost/graph/adjacency</text>
<text xml:space="preserve" text-anchor="middle" x="1093.38" y="-118.5" font-family="Helvetica,sans-Serif" font-size="10.00">_matrix.hpp</text>
</a>
</g>
</g>
<!-- Node25&#45;&gt;Node27 -->
<g id="edge38" class="edge">
<title>Node25&#45;&gt;Node27</title>
<path fill="none" stroke="#63b8ff" d="M1146.53,-179.62C1138.74,-172.21 1127.54,-161.53 1117.42,-151.9"/>
<polygon fill="#63b8ff" stroke="#63b8ff" points="1120.02,-149.55 1110.37,-145.18 1115.2,-154.62 1120.02,-149.55"/>
</g>
<!-- Node28 -->
<g id="node28" class="node">
<title>Node28</title>
<g id="a_node28"><a xlink:title=" ">
<polygon fill="#e0e0e0" stroke="#999999" points="1272.62,-144 1168.12,-144 1168.12,-112 1272.62,-112 1272.62,-144"/>
<text xml:space="preserve" text-anchor="start" x="1176.12" y="-130.5" font-family="Helvetica,sans-Serif" font-size="10.00">boost/graph/directed</text>
<text xml:space="preserve" text-anchor="middle" x="1220.38" y="-118.5" font-family="Helvetica,sans-Serif" font-size="10.00">_graph.hpp</text>
</a>
</g>
</g>
<!-- Node25&#45;&gt;Node28 -->
<g id="edge39" class="edge">
<title>Node25&#45;&gt;Node28</title>
<path fill="none" stroke="#63b8ff" d="M1166.38,-179.62C1174.23,-172.26 1185.51,-161.68 1195.74,-152.1"/>
<polygon fill="#63b8ff" stroke="#63b8ff" points="1197.97,-154.8 1202.87,-145.41 1193.18,-149.69 1197.97,-154.8"/>
</g>
<!-- Node29 -->
<g id="node29" class="node">
<title>Node29</title>
<g id="a_node29"><a xlink:title=" ">
<polygon fill="#e0e0e0" stroke="#999999" points="1414,-144 1290.75,-144 1290.75,-112 1414,-112 1414,-144"/>
<text xml:space="preserve" text-anchor="start" x="1298.75" y="-130.5" font-family="Helvetica,sans-Serif" font-size="10.00">boost/graph/compressed</text>
<text xml:space="preserve" text-anchor="middle" x="1352.38" y="-118.5" font-family="Helvetica,sans-Serif" font-size="10.00">_sparse_row_graph.hpp</text>
</a>
</g>
</g>
<!-- Node25&#45;&gt;Node29 -->
<g id="edge40" class="edge">
<title>Node25&#45;&gt;Node29</title>
<path fill="none" stroke="#63b8ff" d="M1187,-179.62C1214.69,-171.15 1256.28,-158.42 1290.83,-147.84"/>
<polygon fill="#63b8ff" stroke="#63b8ff" points="1291.79,-151.21 1300.33,-144.93 1289.74,-144.51 1291.79,-151.21"/>
</g>
<!-- Node30 -->
<g id="node30" class="node">
<title>Node30</title>
<g id="a_node30"><a xlink:title=" ">
<polygon fill="#e0e0e0" stroke="#999999" points="1546.5,-144 1432.25,-144 1432.25,-112 1546.5,-112 1546.5,-144"/>
<text xml:space="preserve" text-anchor="start" x="1440.25" y="-130.5" font-family="Helvetica,sans-Serif" font-size="10.00">boost/graph/adjacency</text>
<text xml:space="preserve" text-anchor="middle" x="1489.38" y="-118.5" font-family="Helvetica,sans-Serif" font-size="10.00">_list.hpp</text>
</a>
</g>
</g>
<!-- Node25&#45;&gt;Node30 -->
<g id="edge41" class="edge">
<title>Node25&#45;&gt;Node30</title>
<path fill="none" stroke="#63b8ff" d="M1195.41,-183.13C1245.35,-175.46 1334.76,-161.22 1420.56,-144.49"/>
<polygon fill="#63b8ff" stroke="#63b8ff" points="1421.2,-147.94 1430.34,-142.57 1419.85,-141.07 1421.2,-147.94"/>
</g>
</g>
</svg>
