<?xml version="1.0" encoding="UTF-8" standalone="no"?>
<!DOCTYPE svg PUBLIC "-//W3C//DTD SVG 1.1//EN"
 "http://www.w3.org/Graphics/SVG/1.1/DTD/svg11.dtd">
<!-- Generated by graphviz version 13.1.2 (20250808.2320)
 -->
<!-- Title: Cinterface/visibility_graph_C.h Pages: 1 -->
<svg width="192pt" height="152pt"
 viewBox="0.00 0.00 192.00 152.00" xmlns="http://www.w3.org/2000/svg" xmlns:xlink="http://www.w3.org/1999/xlink">
<g id="graph0" class="graph" transform="scale(1 1) rotate(0) translate(4 148)">
<title>Cinterface/visibility_graph_C.h</title>
<!-- Node1 -->
<g id="node1" class="node">
<title>Node1</title>
<g id="a_node1"><a xlink:title="Header file for functions related to creating a visibility graph.">
<polygon fill="#999999" stroke="#666666" points="144.75,-144 45.5,-144 45.5,-112 144.75,-112 144.75,-144"/>
<text xml:space="preserve" text-anchor="start" x="53.5" y="-130.5" font-family="Helvetica,sans-Serif" font-size="10.00">Cinterface/visibility</text>
<text xml:space="preserve" text-anchor="middle" x="95.12" y="-118.5" font-family="Helvetica,sans-Serif" font-size="10.00">_graph_C.h</text>
</a>
</g>
</g>
<!-- Node2 -->
<g id="node2" class="node">
<title>Node2</title>
<g id="a_node2"><a xlink:href="a00413.html" target="_top" xlink:title=" ">
<polygon fill="white" stroke="#666666" points="90.25,-76 0,-76 0,-56 90.25,-56 90.25,-76"/>
<text xml:space="preserve" text-anchor="middle" x="45.12" y="-62.5" font-family="Helvetica,sans-Serif" font-size="10.00">cinterface_utils.h</text>
</a>
</g>
</g>
<!-- Node1&#45;&gt;Node2 -->
<g id="edge1" class="edge">
<title>Node1&#45;&gt;Node2</title>
<path fill="none" stroke="#63b8ff" d="M82.25,-111.55C75.52,-103.48 67.25,-93.55 60.22,-85.12"/>
<polygon fill="#63b8ff" stroke="#63b8ff" points="63.02,-83.01 53.93,-77.57 57.65,-87.49 63.02,-83.01"/>
</g>
<!-- Node5 -->
<g id="node5" class="node">
<title>Node5</title>
<g id="a_node5"><a xlink:href="a00431.html" target="_top" xlink:title="C Interface header file for Raytracer functionality.">
<polygon fill="white" stroke="#666666" points="183.75,-76 108.5,-76 108.5,-56 183.75,-56 183.75,-76"/>
<text xml:space="preserve" text-anchor="middle" x="146.12" y="-62.5" font-family="Helvetica,sans-Serif" font-size="10.00">raytracer_C.h</text>
</a>
</g>
</g>
<!-- Node1&#45;&gt;Node5 -->
<g id="edge4" class="edge">
<title>Node1&#45;&gt;Node5</title>
<path fill="none" stroke="#63b8ff" d="M108.26,-111.55C115.12,-103.48 123.56,-93.55 130.73,-85.12"/>
<polygon fill="#63b8ff" stroke="#63b8ff" points="133.34,-87.45 137.15,-77.56 128,-82.91 133.34,-87.45"/>
</g>
<!-- Node3 -->
<g id="node3" class="node">
<title>Node3</title>
<g id="a_node3"><a xlink:title=" ">
<polygon fill="#e0e0e0" stroke="#999999" points="87.62,-20 44.62,-20 44.62,0 87.62,0 87.62,-20"/>
<text xml:space="preserve" text-anchor="middle" x="66.12" y="-6.5" font-family="Helvetica,sans-Serif" font-size="10.00">vector</text>
</a>
</g>
</g>
<!-- Node2&#45;&gt;Node3 -->
<g id="edge2" class="edge">
<title>Node2&#45;&gt;Node3</title>
<path fill="none" stroke="#63b8ff" d="M48.78,-55.59C51.43,-48.78 55.11,-39.32 58.4,-30.86"/>
<polygon fill="#63b8ff" stroke="#63b8ff" points="61.6,-32.3 61.96,-21.71 55.07,-29.76 61.6,-32.3"/>
</g>
<!-- Node4 -->
<g id="node4" class="node">
<title>Node4</title>
<g id="a_node4"><a xlink:title=" ">
<polygon fill="#e0e0e0" stroke="#999999" points="154,-20 116.25,-20 116.25,0 154,0 154,-20"/>
<text xml:space="preserve" text-anchor="middle" x="135.12" y="-6.5" font-family="Helvetica,sans-Serif" font-size="10.00">array</text>
</a>
</g>
</g>
<!-- Node2&#45;&gt;Node4 -->
<g id="edge3" class="edge">
<title>Node2&#45;&gt;Node4</title>
<path fill="none" stroke="#63b8ff" d="M60.8,-55.59C74.27,-47.51 93.94,-35.71 109.67,-26.27"/>
<polygon fill="#63b8ff" stroke="#63b8ff" points="111.25,-29.4 118.03,-21.26 107.65,-23.4 111.25,-29.4"/>
</g>
<!-- Node5&#45;&gt;Node3 -->
<g id="edge5" class="edge">
<title>Node5&#45;&gt;Node3</title>
<path fill="none" stroke="#63b8ff" d="M132.19,-55.59C120.45,-47.67 103.39,-36.16 89.56,-26.82"/>
<polygon fill="#63b8ff" stroke="#63b8ff" points="91.67,-24.02 81.42,-21.33 87.75,-29.82 91.67,-24.02"/>
</g>
<!-- Node5&#45;&gt;Node4 -->
<g id="edge6" class="edge">
<title>Node5&#45;&gt;Node4</title>
<path fill="none" stroke="#63b8ff" d="M144.21,-55.59C142.85,-48.93 140.98,-39.75 139.29,-31.44"/>
<polygon fill="#63b8ff" stroke="#63b8ff" points="142.75,-30.88 137.32,-21.78 135.89,-32.28 142.75,-30.88"/>
</g>
</g>
</svg>
