<?xml version="1.0" encoding="UTF-8" standalone="no"?>
<!DOCTYPE svg PUBLIC "-//W3C//DTD SVG 1.1//EN"
 "http://www.w3.org/Graphics/SVG/1.1/DTD/svg11.dtd">
<!-- Generated by graphviz version 13.1.2 (20250808.2320)
 -->
<!-- Title: Cinterface/analysis_C.cpp Pages: 1 -->
<svg width="1127pt" height="320pt"
 viewBox="0.00 0.00 1127.00 320.00" xmlns="http://www.w3.org/2000/svg" xmlns:xlink="http://www.w3.org/1999/xlink">
<g id="graph0" class="graph" transform="scale(1 1) rotate(0) translate(4 316)">
<title>Cinterface/analysis_C.cpp</title>
<!-- Node1 -->
<g id="node1" class="node">
<title>Node1</title>
<g id="a_node1"><a xlink:title=" ">
<polygon fill="#999999" stroke="#666666" points="711.62,-312 611.62,-312 611.62,-280 711.62,-280 711.62,-312"/>
<text xml:space="preserve" text-anchor="start" x="619.62" y="-298.5" font-family="Helvetica,sans-Serif" font-size="10.00">Cinterface/analysis</text>
<text xml:space="preserve" text-anchor="middle" x="661.62" y="-286.5" font-family="Helvetica,sans-Serif" font-size="10.00">_C.cpp</text>
</a>
</g>
</g>
<!-- Node2 -->
<g id="node2" class="node">
<title>Node2</title>
<g id="a_node2"><a xlink:href="a00407.html" target="_top" xlink:title="Header file for C Interface functions related to graph generation.">
<polygon fill="white" stroke="#666666" points="386.12,-188 313.12,-188 313.12,-168 386.12,-168 386.12,-188"/>
<text xml:space="preserve" text-anchor="middle" x="349.62" y="-174.5" font-family="Helvetica,sans-Serif" font-size="10.00">analysis_C.h</text>
</a>
</g>
</g>
<!-- Node1&#45;&gt;Node2 -->
<g id="edge1" class="edge">
<title>Node1&#45;&gt;Node2</title>
<path fill="none" stroke="#63b8ff" d="M619.32,-279.57C591.76,-269.5 555.04,-256.03 522.62,-244 474.99,-226.31 420.09,-205.64 385.14,-192.44"/>
<polygon fill="#63b8ff" stroke="#63b8ff" points="386.53,-189.22 375.94,-188.96 384.06,-195.77 386.53,-189.22"/>
</g>
<!-- Node6 -->
<g id="node6" class="node">
<title>Node6</title>
<g id="a_node6"><a xlink:title=" ">
<polygon fill="#e0e0e0" stroke="#999999" points="954.38,-132 882.88,-132 882.88,-112 954.38,-112 954.38,-132"/>
<text xml:space="preserve" text-anchor="middle" x="918.62" y="-118.5" font-family="Helvetica,sans-Serif" font-size="10.00">robin_hood.h</text>
</a>
</g>
</g>
<!-- Node1&#45;&gt;Node6 -->
<g id="edge7" class="edge">
<title>Node1&#45;&gt;Node6</title>
<path fill="none" stroke="#63b8ff" d="M703.7,-279.64C747.94,-262.1 818.02,-230.28 868.62,-188 884.3,-174.91 898.1,-156.08 907.21,-142.05"/>
<polygon fill="#63b8ff" stroke="#63b8ff" points="910.09,-144.06 912.42,-133.72 904.15,-140.35 910.09,-144.06"/>
</g>
<!-- Node7 -->
<g id="node7" class="node">
<title>Node7</title>
<g id="a_node7"><a xlink:href="a00176.html" target="_top" xlink:title="Contains definitions for the Exceptions namespace.">
<polygon fill="white" stroke="#666666" points="1034.88,-244 948.38,-244 948.38,-224 1034.88,-224 1034.88,-244"/>
<text xml:space="preserve" text-anchor="middle" x="991.62" y="-230.5" font-family="Helvetica,sans-Serif" font-size="10.00">HFExceptions.h</text>
</a>
</g>
</g>
<!-- Node1&#45;&gt;Node7 -->
<g id="edge8" class="edge">
<title>Node1&#45;&gt;Node7</title>
<path fill="none" stroke="#63b8ff" d="M712.1,-285.82C772.78,-274.79 874.24,-256.34 936.8,-244.97"/>
<polygon fill="#63b8ff" stroke="#63b8ff" points="937.3,-248.43 946.52,-243.2 936.05,-241.55 937.3,-248.43"/>
</g>
<!-- Node11 -->
<g id="node11" class="node">
<title>Node11</title>
<g id="a_node11"><a xlink:href="a00212.html" target="_top" xlink:title="Contains definitions for the EmbreeRayTracer">
<polygon fill="white" stroke="#666666" points="268.62,-132 168.62,-132 168.62,-112 268.62,-112 268.62,-132"/>
<text xml:space="preserve" text-anchor="middle" x="218.62" y="-118.5" font-family="Helvetica,sans-Serif" font-size="10.00">embree_raytracer.h</text>
</a>
</g>
</g>
<!-- Node1&#45;&gt;Node11 -->
<g id="edge12" class="edge">
<title>Node1&#45;&gt;Node11</title>
<path fill="none" stroke="#63b8ff" d="M611.42,-286.61C539.85,-273.22 405.83,-242.76 303.62,-188 278.62,-174.6 253.2,-154.06 236.76,-139.66"/>
<polygon fill="#63b8ff" stroke="#63b8ff" points="239.52,-137.44 229.73,-133.39 234.86,-142.66 239.52,-137.44"/>
</g>
<!-- Node15 -->
<g id="node15" class="node">
<title>Node15</title>
<g id="a_node15"><a xlink:href="a00008.html" target="_top" xlink:title="Contains declarations for all functions related to the graph generator.">
<polygon fill="white" stroke="#666666" points="625.62,-244 531.62,-244 531.62,-224 625.62,-224 625.62,-244"/>
<text xml:space="preserve" text-anchor="middle" x="578.62" y="-230.5" font-family="Helvetica,sans-Serif" font-size="10.00">graph_generator.h</text>
</a>
</g>
</g>
<!-- Node1&#45;&gt;Node15 -->
<g id="edge18" class="edge">
<title>Node1&#45;&gt;Node15</title>
<path fill="none" stroke="#63b8ff" d="M640.25,-279.55C628.12,-270.78 612.97,-259.83 600.72,-250.97"/>
<polygon fill="#63b8ff" stroke="#63b8ff" points="603.02,-248.32 592.87,-245.29 598.92,-253.99 603.02,-248.32"/>
</g>
<!-- Node20 -->
<g id="node20" class="node">
<title>Node20</title>
<g id="a_node20"><a xlink:href="a00269.html" target="_top" xlink:title="Contains definitions for the Graph &#160;class.">
<polygon fill="white" stroke="#666666" points="768.75,-188 720.5,-188 720.5,-168 768.75,-168 768.75,-188"/>
<text xml:space="preserve" text-anchor="middle" x="744.62" y="-174.5" font-family="Helvetica,sans-Serif" font-size="10.00">graph.h</text>
</a>
</g>
</g>
<!-- Node1&#45;&gt;Node20 -->
<g id="edge46" class="edge">
<title>Node1&#45;&gt;Node20</title>
<path fill="none" stroke="#63b8ff" d="M672.48,-279.84C687.57,-258.75 714.87,-220.58 731.22,-197.74"/>
<polygon fill="#63b8ff" stroke="#63b8ff" points="734.02,-199.84 736.99,-189.67 728.33,-195.76 734.02,-199.84"/>
</g>
<!-- Node3 -->
<g id="node3" class="node">
<title>Node3</title>
<g id="a_node3"><a xlink:href="a00413.html" target="_top" xlink:title=" ">
<polygon fill="white" stroke="#666666" points="376.75,-132 286.5,-132 286.5,-112 376.75,-112 376.75,-132"/>
<text xml:space="preserve" text-anchor="middle" x="331.62" y="-118.5" font-family="Helvetica,sans-Serif" font-size="10.00">cinterface_utils.h</text>
</a>
</g>
</g>
<!-- Node2&#45;&gt;Node3 -->
<g id="edge2" class="edge">
<title>Node2&#45;&gt;Node3</title>
<path fill="none" stroke="#63b8ff" d="M346.49,-167.59C344.24,-160.86 341.14,-151.53 338.34,-143.15"/>
<polygon fill="#63b8ff" stroke="#63b8ff" points="341.69,-142.11 335.2,-133.73 335.05,-144.33 341.69,-142.11"/>
</g>
<!-- Node4 -->
<g id="node4" class="node">
<title>Node4</title>
<g id="a_node4"><a xlink:title=" ">
<polygon fill="#e0e0e0" stroke="#999999" points="502.12,-76 459.12,-76 459.12,-56 502.12,-56 502.12,-76"/>
<text xml:space="preserve" text-anchor="middle" x="480.62" y="-62.5" font-family="Helvetica,sans-Serif" font-size="10.00">vector</text>
</a>
</g>
</g>
<!-- Node2&#45;&gt;Node4 -->
<g id="edge5" class="edge">
<title>Node2&#45;&gt;Node4</title>
<path fill="none" stroke="#63b8ff" d="M366.26,-167.63C380.72,-159.15 401.91,-145.9 418.62,-132 435.97,-117.58 453.51,-98.71 465.48,-85.02"/>
<polygon fill="#63b8ff" stroke="#63b8ff" points="467.96,-87.5 471.82,-77.63 462.65,-82.94 467.96,-87.5"/>
</g>
<!-- Node5 -->
<g id="node5" class="node">
<title>Node5</title>
<g id="a_node5"><a xlink:title=" ">
<polygon fill="#e0e0e0" stroke="#999999" points="366.5,-20 328.75,-20 328.75,0 366.5,0 366.5,-20"/>
<text xml:space="preserve" text-anchor="middle" x="347.62" y="-6.5" font-family="Helvetica,sans-Serif" font-size="10.00">array</text>
</a>
</g>
</g>
<!-- Node2&#45;&gt;Node5 -->
<g id="edge6" class="edge">
<title>Node2&#45;&gt;Node5</title>
<path fill="none" stroke="#63b8ff" d="M360.48,-167.53C369.15,-159.18 380.66,-146.16 385.62,-132 398.2,-96.16 376.58,-53.69 361.13,-29.79"/>
<polygon fill="#63b8ff" stroke="#63b8ff" points="364.18,-28.04 355.67,-21.74 358.39,-31.98 364.18,-28.04"/>
</g>
<!-- Node3&#45;&gt;Node4 -->
<g id="edge3" class="edge">
<title>Node3&#45;&gt;Node4</title>
<path fill="none" stroke="#63b8ff" d="M357.58,-111.59C382.79,-102.46 421.13,-88.56 448.31,-78.71"/>
<polygon fill="#63b8ff" stroke="#63b8ff" points="449.21,-82.11 457.42,-75.41 446.82,-75.53 449.21,-82.11"/>
</g>
<!-- Node3&#45;&gt;Node5 -->
<g id="edge4" class="edge">
<title>Node3&#45;&gt;Node5</title>
<path fill="none" stroke="#63b8ff" d="M334.35,-111.78C336.9,-102.75 340.62,-88.55 342.62,-76 344.98,-61.25 346.24,-44.43 346.9,-31.59"/>
<polygon fill="#63b8ff" stroke="#63b8ff" points="350.39,-31.97 347.32,-21.82 343.39,-31.67 350.39,-31.97"/>
</g>
<!-- Node8 -->
<g id="node8" class="node">
<title>Node8</title>
<g id="a_node8"><a xlink:title=" ">
<polygon fill="#e0e0e0" stroke="#999999" points="978.62,-188 920.62,-188 920.62,-168 978.62,-168 978.62,-188"/>
<text xml:space="preserve" text-anchor="middle" x="949.62" y="-174.5" font-family="Helvetica,sans-Serif" font-size="10.00">exception</text>
</a>
</g>
</g>
<!-- Node7&#45;&gt;Node8 -->
<g id="edge9" class="edge">
<title>Node7&#45;&gt;Node8</title>
<path fill="none" stroke="#63b8ff" d="M984.31,-223.59C978.65,-216.32 970.64,-206.02 963.74,-197.15"/>
<polygon fill="#63b8ff" stroke="#63b8ff" points="966.69,-195.24 957.79,-189.49 961.16,-199.54 966.69,-195.24"/>
</g>
<!-- Node9 -->
<g id="node9" class="node">
<title>Node9</title>
<g id="a_node9"><a xlink:title=" ">
<polygon fill="#e0e0e0" stroke="#999999" points="1042.25,-188 997,-188 997,-168 1042.25,-168 1042.25,-188"/>
<text xml:space="preserve" text-anchor="middle" x="1019.62" y="-174.5" font-family="Helvetica,sans-Serif" font-size="10.00">cstring</text>
</a>
</g>
</g>
<!-- Node7&#45;&gt;Node9 -->
<g id="edge10" class="edge">
<title>Node7&#45;&gt;Node9</title>
<path fill="none" stroke="#63b8ff" d="M996.5,-223.59C1000.12,-216.63 1005.17,-206.89 1009.62,-198.29"/>
<polygon fill="#63b8ff" stroke="#63b8ff" points="1012.61,-200.13 1014.11,-189.64 1006.4,-196.91 1012.61,-200.13"/>
</g>
<!-- Node10 -->
<g id="node10" class="node">
<title>Node10</title>
<g id="a_node10"><a xlink:title=" ">
<polygon fill="#e0e0e0" stroke="#999999" points="1119,-188 1060.25,-188 1060.25,-168 1119,-168 1119,-188"/>
<text xml:space="preserve" text-anchor="middle" x="1089.62" y="-174.5" font-family="Helvetica,sans-Serif" font-size="10.00">stdexcept</text>
</a>
</g>
</g>
<!-- Node7&#45;&gt;Node10 -->
<g id="edge11" class="edge">
<title>Node7&#45;&gt;Node10</title>
<path fill="none" stroke="#63b8ff" d="M1008.7,-223.59C1023.5,-215.44 1045.19,-203.48 1062.39,-194"/>
<polygon fill="#63b8ff" stroke="#63b8ff" points="1064.03,-197.1 1071.1,-189.21 1060.65,-190.97 1064.03,-197.1"/>
</g>
<!-- Node11&#45;&gt;Node4 -->
<g id="edge14" class="edge">
<title>Node11&#45;&gt;Node4</title>
<path fill="none" stroke="#63b8ff" d="M264.56,-111.53C316.94,-100.74 401.3,-83.35 447.59,-73.81"/>
<polygon fill="#63b8ff" stroke="#63b8ff" points="448.19,-77.26 457.28,-71.81 446.78,-70.4 448.19,-77.26"/>
</g>
<!-- Node11&#45;&gt;Node5 -->
<g id="edge15" class="edge">
<title>Node11&#45;&gt;Node5</title>
<path fill="none" stroke="#63b8ff" d="M247.09,-111.57C266.17,-104.18 290.94,-92.38 308.62,-76 322.35,-63.29 332.86,-44.64 339.49,-30.58"/>
<polygon fill="#63b8ff" stroke="#63b8ff" points="342.68,-32.02 343.53,-21.46 336.28,-29.19 342.68,-32.02"/>
</g>
<!-- Node12 -->
<g id="node12" class="node">
<title>Node12</title>
<g id="a_node12"><a xlink:title=" ">
<polygon fill="#e0e0e0" stroke="#999999" points="239.12,-76 190.12,-76 190.12,-56 239.12,-56 239.12,-76"/>
<text xml:space="preserve" text-anchor="middle" x="214.62" y="-62.5" font-family="Helvetica,sans-Serif" font-size="10.00">rtcore.h</text>
</a>
</g>
</g>
<!-- Node11&#45;&gt;Node12 -->
<g id="edge13" class="edge">
<title>Node11&#45;&gt;Node12</title>
<path fill="none" stroke="#63b8ff" d="M217.93,-111.59C217.44,-105.01 216.77,-95.96 216.16,-87.73"/>
<polygon fill="#63b8ff" stroke="#63b8ff" points="219.65,-87.52 215.43,-77.81 212.67,-88.04 219.65,-87.52"/>
</g>
<!-- Node13 -->
<g id="node13" class="node">
<title>Node13</title>
<g id="a_node13"><a xlink:href="a00218.html" target="_top" xlink:title=" ">
<polygon fill="white" stroke="#666666" points="172.25,-76 109,-76 109,-56 172.25,-56 172.25,-76"/>
<text xml:space="preserve" text-anchor="middle" x="140.62" y="-62.5" font-family="Helvetica,sans-Serif" font-size="10.00">HitStruct.h</text>
</a>
</g>
</g>
<!-- Node11&#45;&gt;Node13 -->
<g id="edge16" class="edge">
<title>Node11&#45;&gt;Node13</title>
<path fill="none" stroke="#63b8ff" d="M205.04,-111.59C193.59,-103.67 176.96,-92.16 163.47,-82.82"/>
<polygon fill="#63b8ff" stroke="#63b8ff" points="165.78,-80.16 155.56,-77.34 161.79,-85.91 165.78,-80.16"/>
</g>
<!-- Node14 -->
<g id="node14" class="node">
<title>Node14</title>
<g id="a_node14"><a xlink:title=" ">
<polygon fill="#e0e0e0" stroke="#999999" points="300.12,-76 257.12,-76 257.12,-56 300.12,-56 300.12,-76"/>
<text xml:space="preserve" text-anchor="middle" x="278.62" y="-62.5" font-family="Helvetica,sans-Serif" font-size="10.00">omp.h</text>
</a>
</g>
</g>
<!-- Node11&#45;&gt;Node14 -->
<g id="edge17" class="edge">
<title>Node11&#45;&gt;Node14</title>
<path fill="none" stroke="#63b8ff" d="M229.08,-111.59C237.59,-103.93 249.84,-92.91 260.02,-83.75"/>
<polygon fill="#63b8ff" stroke="#63b8ff" points="262.08,-86.6 267.17,-77.31 257.39,-81.4 262.08,-86.6"/>
</g>
<!-- Node15&#45;&gt;Node4 -->
<g id="edge21" class="edge">
<title>Node15&#45;&gt;Node4</title>
<path fill="none" stroke="#63b8ff" d="M532.76,-223.58C513.2,-217.05 492.25,-206.12 480.62,-188 461.04,-157.45 467.88,-113.04 474.41,-87.38"/>
<polygon fill="#63b8ff" stroke="#63b8ff" points="477.74,-88.46 477.06,-77.89 471,-86.58 477.74,-88.46"/>
</g>
<!-- Node15&#45;&gt;Node5 -->
<g id="edge22" class="edge">
<title>Node15&#45;&gt;Node5</title>
<path fill="none" stroke="#63b8ff" d="M531.18,-231.27C449.33,-226.28 278.9,-206.93 159.62,-132 128.74,-112.6 114.16,-109.45 99.62,-76 96.08,-67.85 93.93,-62.82 99.62,-56 127.04,-23.16 257.25,-14.23 317.24,-11.85"/>
<polygon fill="#63b8ff" stroke="#63b8ff" points="317.2,-15.35 327.07,-11.5 316.95,-8.36 317.2,-15.35"/>
</g>
<!-- Node16 -->
<g id="node16" class="node">
<title>Node16</title>
<g id="a_node16"><a xlink:title=" ">
<polygon fill="#e0e0e0" stroke="#999999" points="809.12,-20 766.12,-20 766.12,0 809.12,0 809.12,-20"/>
<text xml:space="preserve" text-anchor="middle" x="787.62" y="-6.5" font-family="Helvetica,sans-Serif" font-size="10.00">cmath</text>
</a>
</g>
</g>
<!-- Node15&#45;&gt;Node16 -->
<g id="edge19" class="edge">
<title>Node15&#45;&gt;Node16</title>
<path fill="none" stroke="#63b8ff" d="M625.81,-228.43C681.26,-222.18 768.88,-209.23 793.62,-188 840.35,-147.91 860.1,-112.49 835.62,-56 830.65,-44.52 821.15,-34.63 811.91,-27.07"/>
<polygon fill="#63b8ff" stroke="#63b8ff" points="814.23,-24.43 804.13,-21.22 810.02,-30.03 814.23,-24.43"/>
</g>
<!-- Node17 -->
<g id="node17" class="node">
<title>Node17</title>
<g id="a_node17"><a xlink:title=" ">
<polygon fill="#e0e0e0" stroke="#999999" points="433.38,-188 403.88,-188 403.88,-168 433.38,-168 433.38,-188"/>
<text xml:space="preserve" text-anchor="middle" x="418.62" y="-174.5" font-family="Helvetica,sans-Serif" font-size="10.00">set</text>
</a>
</g>
</g>
<!-- Node15&#45;&gt;Node17 -->
<g id="edge20" class="edge">
<title>Node15&#45;&gt;Node17</title>
<path fill="none" stroke="#63b8ff" d="M550.76,-223.59C520.72,-213.46 473.32,-197.46 444.2,-187.63"/>
<polygon fill="#63b8ff" stroke="#63b8ff" points="445.69,-184.44 435.09,-184.56 443.45,-191.07 445.69,-184.44"/>
</g>
<!-- Node18 -->
<g id="node18" class="node">
<title>Node18</title>
<g id="a_node18"><a xlink:href="a00275.html" target="_top" xlink:title="Contains definitions for the Node structure.">
<polygon fill="white" stroke="#666666" points="617.25,-76 572,-76 572,-56 617.25,-56 617.25,-76"/>
<text xml:space="preserve" text-anchor="middle" x="594.62" y="-62.5" font-family="Helvetica,sans-Serif" font-size="10.00">node.h</text>
</a>
</g>
</g>
<!-- Node15&#45;&gt;Node18 -->
<g id="edge23" class="edge">
<title>Node15&#45;&gt;Node18</title>
<path fill="none" stroke="#63b8ff" d="M625.95,-228.99C678.68,-223.43 759,-211.31 777.62,-188 783.17,-181.06 781.73,-175.88 777.62,-168 762.43,-138.81 676.91,-100.28 628.34,-80.3"/>
<polygon fill="#63b8ff" stroke="#63b8ff" points="629.7,-77.08 619.11,-76.55 627.06,-83.56 629.7,-77.08"/>
</g>
<!-- Node15&#45;&gt;Node20 -->
<g id="edge26" class="edge">
<title>Node15&#45;&gt;Node20</title>
<path fill="none" stroke="#63b8ff" d="M607.54,-223.59C635.79,-214.4 678.85,-200.4 709.16,-190.54"/>
<polygon fill="#63b8ff" stroke="#63b8ff" points="710.23,-193.87 718.65,-187.45 708.06,-187.21 710.23,-193.87"/>
</g>
<!-- Node26 -->
<g id="node26" class="node">
<title>Node26</title>
<g id="a_node26"><a xlink:title=" ">
<polygon fill="#e0e0e0" stroke="#999999" points="537.75,-188 489.5,-188 489.5,-168 537.75,-168 537.75,-188"/>
<text xml:space="preserve" text-anchor="middle" x="513.62" y="-174.5" font-family="Helvetica,sans-Serif" font-size="10.00">cassert</text>
</a>
</g>
</g>
<!-- Node15&#45;&gt;Node26 -->
<g id="edge40" class="edge">
<title>Node15&#45;&gt;Node26</title>
<path fill="none" stroke="#63b8ff" d="M567.3,-223.59C557.98,-215.85 544.55,-204.69 533.45,-195.47"/>
<polygon fill="#63b8ff" stroke="#63b8ff" points="535.91,-192.96 525.98,-189.27 531.44,-198.35 535.91,-192.96"/>
</g>
<!-- Node27 -->
<g id="node27" class="node">
<title>Node27</title>
<g id="a_node27"><a xlink:title=" ">
<polygon fill="#e0e0e0" stroke="#999999" points="601.25,-188 556,-188 556,-168 601.25,-168 601.25,-188"/>
<text xml:space="preserve" text-anchor="middle" x="578.62" y="-174.5" font-family="Helvetica,sans-Serif" font-size="10.00">variant</text>
</a>
</g>
</g>
<!-- Node15&#45;&gt;Node27 -->
<g id="edge41" class="edge">
<title>Node15&#45;&gt;Node27</title>
<path fill="none" stroke="#63b8ff" d="M578.62,-223.59C578.62,-217.01 578.62,-207.96 578.62,-199.73"/>
<polygon fill="#63b8ff" stroke="#63b8ff" points="582.13,-199.81 578.63,-189.81 575.13,-199.81 582.13,-199.81"/>
</g>
<!-- Node28 -->
<g id="node28" class="node">
<title>Node28</title>
<g id="a_node28"><a xlink:href="a00224.html" target="_top" xlink:title=" ">
<polygon fill="white" stroke="#666666" points="57.25,-132 0,-132 0,-112 57.25,-112 57.25,-132"/>
<text xml:space="preserve" text-anchor="middle" x="28.62" y="-118.5" font-family="Helvetica,sans-Serif" font-size="10.00">MultiRT.h</text>
</a>
</g>
</g>
<!-- Node15&#45;&gt;Node28 -->
<g id="edge42" class="edge">
<title>Node15&#45;&gt;Node28</title>
<path fill="none" stroke="#63b8ff" d="M531.34,-231.13C412.98,-226.13 110.58,-211.21 71.62,-188 54.4,-177.73 42.7,-157.57 35.91,-142.4"/>
<polygon fill="#63b8ff" stroke="#63b8ff" points="39.27,-141.36 32.24,-133.43 32.79,-144.01 39.27,-141.36"/>
</g>
<!-- Node29 -->
<g id="node29" class="node">
<title>Node29</title>
<g id="a_node29"><a xlink:title=" ">
<polygon fill="#e0e0e0" stroke="#999999" points="702,-188 619.25,-188 619.25,-168 702,-168 702,-188"/>
<text xml:space="preserve" text-anchor="middle" x="660.62" y="-174.5" font-family="Helvetica,sans-Serif" font-size="10.00">unordered_map</text>
</a>
</g>
</g>
<!-- Node15&#45;&gt;Node29 -->
<g id="edge45" class="edge">
<title>Node15&#45;&gt;Node29</title>
<path fill="none" stroke="#63b8ff" d="M592.91,-223.59C605.06,-215.59 622.76,-203.93 637.02,-194.54"/>
<polygon fill="#63b8ff" stroke="#63b8ff" points="638.54,-197.73 644.97,-189.31 634.69,-191.89 638.54,-197.73"/>
</g>
<!-- Node18&#45;&gt;Node5 -->
<g id="edge24" class="edge">
<title>Node18&#45;&gt;Node5</title>
<path fill="none" stroke="#63b8ff" d="M571.83,-60.02C527.16,-50.25 428.11,-28.6 377.97,-17.63"/>
<polygon fill="#63b8ff" stroke="#63b8ff" points="378.9,-14.25 368.38,-15.54 377.4,-21.09 378.9,-14.25"/>
</g>
<!-- Node19 -->
<g id="node19" class="node">
<title>Node19</title>
<g id="a_node19"><a xlink:title=" ">
<polygon fill="#e0e0e0" stroke="#999999" points="620.25,-20 569,-20 569,0 620.25,0 620.25,-20"/>
<text xml:space="preserve" text-anchor="middle" x="594.62" y="-6.5" font-family="Helvetica,sans-Serif" font-size="10.00">ostream</text>
</a>
</g>
</g>
<!-- Node18&#45;&gt;Node19 -->
<g id="edge25" class="edge">
<title>Node18&#45;&gt;Node19</title>
<path fill="none" stroke="#63b8ff" d="M594.62,-55.59C594.62,-49.01 594.62,-39.96 594.62,-31.73"/>
<polygon fill="#63b8ff" stroke="#63b8ff" points="598.13,-31.81 594.63,-21.81 591.13,-31.81 598.13,-31.81"/>
</g>
<!-- Node20&#45;&gt;Node4 -->
<g id="edge28" class="edge">
<title>Node20&#45;&gt;Node4</title>
<path fill="none" stroke="#63b8ff" d="M720.15,-170.35C716.95,-169.53 713.72,-168.73 710.62,-168 634.19,-149.95 605.46,-171.57 537.62,-132 518.24,-120.69 502.06,-100.43 491.95,-85.52"/>
<polygon fill="#63b8ff" stroke="#63b8ff" points="495.14,-84.01 486.77,-77.5 489.26,-87.8 495.14,-84.01"/>
</g>
<!-- Node20&#45;&gt;Node6 -->
<g id="edge27" class="edge">
<title>Node20&#45;&gt;Node6</title>
<path fill="none" stroke="#63b8ff" d="M769.19,-169.38C797.21,-160.68 843.51,-146.31 877.16,-135.87"/>
<polygon fill="#63b8ff" stroke="#63b8ff" points="878.08,-139.25 886.59,-132.94 876.01,-132.56 878.08,-139.25"/>
</g>
<!-- Node20&#45;&gt;Node18 -->
<g id="edge32" class="edge">
<title>Node20&#45;&gt;Node18</title>
<path fill="none" stroke="#63b8ff" d="M720.04,-170.73C697.33,-164 663.58,-151.58 639.62,-132 624.36,-119.53 612.06,-100.59 604.2,-86.37"/>
<polygon fill="#63b8ff" stroke="#63b8ff" points="607.32,-84.77 599.58,-77.53 601.11,-88.02 607.32,-84.77"/>
</g>
<!-- Node21 -->
<g id="node21" class="node">
<title>Node21</title>
<g id="a_node21"><a xlink:href="a00263.html" target="_top" xlink:title="Contains definitions for the Edge structure.">
<polygon fill="white" stroke="#666666" points="592.25,-132 547,-132 547,-112 592.25,-112 592.25,-132"/>
<text xml:space="preserve" text-anchor="middle" x="569.62" y="-118.5" font-family="Helvetica,sans-Serif" font-size="10.00">edge.h</text>
</a>
</g>
</g>
<!-- Node20&#45;&gt;Node21 -->
<g id="edge29" class="edge">
<title>Node20&#45;&gt;Node21</title>
<path fill="none" stroke="#63b8ff" d="M720.29,-169.49C689.92,-160.12 637.79,-144.03 603.52,-133.46"/>
<polygon fill="#63b8ff" stroke="#63b8ff" points="604.67,-130.15 594.08,-130.55 602.61,-136.84 604.67,-130.15"/>
</g>
<!-- Node22 -->
<g id="node22" class="node">
<title>Node22</title>
<g id="a_node22"><a xlink:href="a00281.html" target="_top" xlink:title="Contains definitions for the Path structure.">
<polygon fill="white" stroke="#666666" points="788.12,-132 745.12,-132 745.12,-112 788.12,-112 788.12,-132"/>
<text xml:space="preserve" text-anchor="middle" x="766.62" y="-118.5" font-family="Helvetica,sans-Serif" font-size="10.00">path.h</text>
</a>
</g>
</g>
<!-- Node20&#45;&gt;Node22 -->
<g id="edge33" class="edge">
<title>Node20&#45;&gt;Node22</title>
<path fill="none" stroke="#63b8ff" d="M748.46,-167.59C751.23,-160.78 755.09,-151.32 758.53,-142.86"/>
<polygon fill="#63b8ff" stroke="#63b8ff" points="761.73,-144.28 762.27,-133.7 755.25,-141.64 761.73,-144.28"/>
</g>
<!-- Node23 -->
<g id="node23" class="node">
<title>Node23</title>
<g id="a_node23"><a xlink:title=" ">
<polygon fill="#e0e0e0" stroke="#999999" points="826.38,-76 772.88,-76 772.88,-56 826.38,-56 826.38,-76"/>
<text xml:space="preserve" text-anchor="middle" x="799.62" y="-62.5" font-family="Helvetica,sans-Serif" font-size="10.00">iostream</text>
</a>
</g>
</g>
<!-- Node20&#45;&gt;Node23 -->
<g id="edge39" class="edge">
<title>Node20&#45;&gt;Node23</title>
<path fill="none" stroke="#63b8ff" d="M762.11,-167.53C774.48,-159.77 790.14,-147.55 797.62,-132 804.23,-118.28 804.43,-100.97 803.14,-87.67"/>
<polygon fill="#63b8ff" stroke="#63b8ff" points="806.63,-87.32 801.81,-77.88 799.69,-88.26 806.63,-87.32"/>
</g>
<!-- Node25 -->
<g id="node25" class="node">
<title>Node25</title>
<g id="a_node25"><a xlink:title=" ">
<polygon fill="#e0e0e0" stroke="#999999" points="689,-132 648.25,-132 648.25,-112 689,-112 689,-132"/>
<text xml:space="preserve" text-anchor="middle" x="668.62" y="-118.5" font-family="Helvetica,sans-Serif" font-size="10.00">Eigen</text>
</a>
</g>
</g>
<!-- Node20&#45;&gt;Node25 -->
<g id="edge38" class="edge">
<title>Node20&#45;&gt;Node25</title>
<path fill="none" stroke="#63b8ff" d="M731.39,-167.59C720.34,-159.74 704.34,-148.38 691.27,-139.09"/>
<polygon fill="#63b8ff" stroke="#63b8ff" points="693.38,-136.3 683.2,-133.36 689.32,-142 693.38,-136.3"/>
</g>
<!-- Node21&#45;&gt;Node4 -->
<g id="edge31" class="edge">
<title>Node21&#45;&gt;Node4</title>
<path fill="none" stroke="#63b8ff" d="M554.12,-111.59C540.8,-103.51 521.35,-91.71 505.8,-82.27"/>
<polygon fill="#63b8ff" stroke="#63b8ff" points="507.91,-79.46 497.54,-77.26 504.28,-85.44 507.91,-79.46"/>
</g>
<!-- Node21&#45;&gt;Node18 -->
<g id="edge30" class="edge">
<title>Node21&#45;&gt;Node18</title>
<path fill="none" stroke="#63b8ff" d="M573.98,-111.59C577.17,-104.7 581.61,-95.1 585.56,-86.57"/>
<polygon fill="#63b8ff" stroke="#63b8ff" points="588.66,-88.22 589.68,-77.67 582.31,-85.28 588.66,-88.22"/>
</g>
<!-- Node22&#45;&gt;Node4 -->
<g id="edge34" class="edge">
<title>Node22&#45;&gt;Node4</title>
<path fill="none" stroke="#63b8ff" d="M744.66,-116.85C694.73,-107.43 572.5,-84.35 513.52,-73.21"/>
<polygon fill="#63b8ff" stroke="#63b8ff" points="514.24,-69.78 503.76,-71.37 512.94,-76.66 514.24,-69.78"/>
</g>
<!-- Node22&#45;&gt;Node23 -->
<g id="edge35" class="edge">
<title>Node22&#45;&gt;Node23</title>
<path fill="none" stroke="#63b8ff" d="M772.37,-111.59C776.68,-104.55 782.72,-94.67 788.01,-86"/>
<polygon fill="#63b8ff" stroke="#63b8ff" points="790.93,-87.95 793.15,-77.59 784.95,-84.3 790.93,-87.95"/>
</g>
<!-- Node24 -->
<g id="node24" class="node">
<title>Node24</title>
<g id="a_node24"><a xlink:href="a00251.html" target="_top" xlink:title="Contains definitions for the HF::SpatialStructures namespace.">
<polygon fill="white" stroke="#666666" points="755.12,-76 688.12,-76 688.12,-56 755.12,-56 755.12,-76"/>
<text xml:space="preserve" text-anchor="middle" x="721.62" y="-62.5" font-family="Helvetica,sans-Serif" font-size="10.00">constants.h</text>
</a>
</g>
</g>
<!-- Node22&#45;&gt;Node24 -->
<g id="edge36" class="edge">
<title>Node22&#45;&gt;Node24</title>
<path fill="none" stroke="#63b8ff" d="M758.79,-111.59C752.66,-104.24 743.95,-93.8 736.51,-84.87"/>
<polygon fill="#63b8ff" stroke="#63b8ff" points="739.43,-82.9 730.34,-77.46 734.06,-87.38 739.43,-82.9"/>
</g>
<!-- Node24&#45;&gt;Node16 -->
<g id="edge37" class="edge">
<title>Node24&#45;&gt;Node16</title>
<path fill="none" stroke="#63b8ff" d="M733.12,-55.59C742.59,-47.85 756.23,-36.69 767.5,-27.47"/>
<polygon fill="#63b8ff" stroke="#63b8ff" points="769.57,-30.3 775.09,-21.26 765.13,-24.88 769.57,-30.3"/>
</g>
<!-- Node28&#45;&gt;Node5 -->
<g id="edge43" class="edge">
<title>Node28&#45;&gt;Node5</title>
<path fill="none" stroke="#63b8ff" d="M31.24,-111.69C35.83,-97.22 46.78,-69.59 66.62,-56 107.03,-28.34 253.34,-16.53 317.32,-12.61"/>
<polygon fill="#63b8ff" stroke="#63b8ff" points="317.33,-16.12 327.11,-12.04 316.92,-9.13 317.33,-16.12"/>
</g>
<!-- Node28&#45;&gt;Node13 -->
<g id="edge44" class="edge">
<title>Node28&#45;&gt;Node13</title>
<path fill="none" stroke="#63b8ff" d="M48.13,-111.59C65.37,-103.28 90.78,-91.03 110.61,-81.47"/>
<polygon fill="#63b8ff" stroke="#63b8ff" points="112.11,-84.63 119.6,-77.14 109.07,-78.33 112.11,-84.63"/>
</g>
</g>
</svg>
