<?xml version="1.0" encoding="UTF-8" standalone="no"?>
<!DOCTYPE svg PUBLIC "-//W3C//DTD SVG 1.1//EN"
 "http://www.w3.org/Graphics/SVG/1.1/DTD/svg11.dtd">
<!-- Generated by graphviz version 13.1.2 (20250808.2320)
 -->
<!-- Title: HF::Pathfinding::InsertPathsIntoArray Pages: 1 -->
<svg width="451pt" height="78pt"
 viewBox="0.00 0.00 451.00 78.00" xmlns="http://www.w3.org/2000/svg" xmlns:xlink="http://www.w3.org/1999/xlink">
<g id="graph0" class="graph" transform="scale(1 1) rotate(0) translate(4 74)">
<title>HF::Pathfinding::InsertPathsIntoArray</title>
<!-- Node1 -->
<g id="node1" class="node">
<title>Node1</title>
<g id="a_node1"><a xlink:title="A special version of FindPaths optimized for the C_Interface.">
<polygon fill="#999999" stroke="#666666" points="442.5,-54 302,-54 302,-22 442.5,-22 442.5,-54"/>
<text xml:space="preserve" text-anchor="start" x="310" y="-40.5" font-family="Helvetica,sans-Serif" font-size="10.00">HF::Pathfinding::InsertPaths</text>
<text xml:space="preserve" text-anchor="middle" x="372.25" y="-28.5" font-family="Helvetica,sans-Serif" font-size="10.00">IntoArray</text>
</a>
</g>
</g>
<!-- Node2 -->
<g id="node2" class="node">
<title>Node2</title>
<g id="a_node2"><a xlink:href="a00456.html#gae1ac2805c3b86883bb88269ed3868367" target="_top" xlink:title="Find multiple shortest paths in paralllel.">
<polygon fill="white" stroke="#666666" points="238.25,-70 167.5,-70 167.5,-50 238.25,-50 238.25,-70"/>
<text xml:space="preserve" text-anchor="middle" x="202.88" y="-56.5" font-family="Helvetica,sans-Serif" font-size="10.00">CreatePaths</text>
</a>
</g>
</g>
<!-- Node1&#45;&gt;Node2 -->
<g id="edge1" class="edge">
<title>Node1&#45;&gt;Node2</title>
<path fill="none" stroke="#63b8ff" d="M290.43,-48.62C272.2,-51.02 253.8,-53.44 238.67,-55.43"/>
<polygon fill="#63b8ff" stroke="#63b8ff" points="290.76,-52.11 300.22,-47.34 289.85,-45.17 290.76,-52.11"/>
</g>
<!-- Node3 -->
<g id="node3" class="node">
<title>Node3</title>
<g id="a_node3"><a xlink:href="a00472.html#a69bd3efcc13788e7c4be43b67d6002e5" target="_top" xlink:title="A special version of FindPaths optimized for the C_Interface, such that all paths possible from each ...">
<polygon fill="white" stroke="#666666" points="266,-32 139.75,-32 139.75,0 266,0 266,-32"/>
<text xml:space="preserve" text-anchor="start" x="147.75" y="-18.5" font-family="Helvetica,sans-Serif" font-size="10.00">HF::Pathfinding::InsertAll</text>
<text xml:space="preserve" text-anchor="middle" x="202.88" y="-6.5" font-family="Helvetica,sans-Serif" font-size="10.00">ToAllPathsIntoArray</text>
</a>
</g>
</g>
<!-- Node1&#45;&gt;Node3 -->
<g id="edge2" class="edge">
<title>Node1&#45;&gt;Node3</title>
<path fill="none" stroke="#63b8ff" d="M290.33,-27.36C282.23,-26.3 274.1,-25.23 266.24,-24.2"/>
<polygon fill="#63b8ff" stroke="#63b8ff" points="289.85,-30.83 300.22,-28.66 290.76,-23.89 289.85,-30.83"/>
</g>
<!-- Node4 -->
<g id="node4" class="node">
<title>Node4</title>
<g id="a_node4"><a xlink:href="a00456.html#gaba6ec6ce84974dd6a311d7d65dd34221" target="_top" xlink:title="Find a path from every node in a graph to every other node.">
<polygon fill="white" stroke="#666666" points="103.75,-26 0,-26 0,-6 103.75,-6 103.75,-26"/>
<text xml:space="preserve" text-anchor="middle" x="51.88" y="-12.5" font-family="Helvetica,sans-Serif" font-size="10.00">CreateAllToAllPaths</text>
</a>
</g>
</g>
<!-- Node3&#45;&gt;Node4 -->
<g id="edge3" class="edge">
<title>Node3&#45;&gt;Node4</title>
<path fill="none" stroke="#63b8ff" d="M128.12,-16C120,-16 111.87,-16 104.11,-16"/>
<polygon fill="#63b8ff" stroke="#63b8ff" points="128.04,-19.5 138.04,-16 128.04,-12.5 128.04,-19.5"/>
</g>
</g>
</svg>
