<?xml version="1.0" encoding="UTF-8" standalone="no"?>
<!DOCTYPE svg PUBLIC "-//W3C//DTD SVG 1.1//EN"
 "http://www.w3.org/Graphics/SVG/1.1/DTD/svg11.dtd">
<!-- Generated by graphviz version 13.1.2 (20250808.2320)
 -->
<!-- Title: HF::Pathfinding::FindPaths Pages: 1 -->
<svg width="476pt" height="140pt"
 viewBox="0.00 0.00 476.00 140.00" xmlns="http://www.w3.org/2000/svg" xmlns:xlink="http://www.w3.org/1999/xlink">
<g id="graph0" class="graph" transform="scale(1 1) rotate(0) translate(4 136)">
<title>HF::Pathfinding::FindPaths</title>
<!-- Node1 -->
<g id="node1" class="node">
<title>Node1</title>
<g id="a_node1"><a xlink:title="Find a path from every id in start_ids to the matching end node in end_ids.">
<polygon fill="#999999" stroke="#666666" points="134.5,-101 0,-101 0,-81 134.5,-81 134.5,-101"/>
<text xml:space="preserve" text-anchor="middle" x="67.25" y="-87.5" font-family="Helvetica,sans-Serif" font-size="10.00">HF::Pathfinding::FindPaths</text>
</a>
</g>
</g>
<!-- Node2 -->
<g id="node2" class="node">
<title>Node2</title>
<g id="a_node2"><a xlink:href="a00472.html#a9f6490539108da057db2486295458886" target="_top" xlink:title="Build a row of the distance and predecessor matrices for the node at id.">
<polygon fill="white" stroke="#666666" points="321.5,-132 170.5,-132 170.5,-100 321.5,-100 321.5,-132"/>
<text xml:space="preserve" text-anchor="start" x="178.5" y="-118.5" font-family="Helvetica,sans-Serif" font-size="10.00">HF::Pathfinding::BuildDistance</text>
<text xml:space="preserve" text-anchor="middle" x="246" y="-106.5" font-family="Helvetica,sans-Serif" font-size="10.00">AndPredecessor</text>
</a>
</g>
</g>
<!-- Node1&#45;&gt;Node2 -->
<g id="edge1" class="edge">
<title>Node1&#45;&gt;Node2</title>
<path fill="none" stroke="#63b8ff" d="M134.82,-100.42C142.67,-101.53 150.76,-102.67 158.83,-103.81"/>
<polygon fill="#63b8ff" stroke="#63b8ff" points="158.3,-107.27 168.69,-105.21 159.28,-100.34 158.3,-107.27"/>
</g>
<!-- Node3 -->
<g id="node3" class="node">
<title>Node3</title>
<g id="a_node3"><a xlink:href="a00472.html#a977e4c93a977ab4e9e784d1e6fec79f4" target="_top" xlink:title="Construct the shortest path from start to end using the given predecessor and distance vectors.">
<polygon fill="white" stroke="#666666" points="312.5,-82 179.5,-82 179.5,-50 312.5,-50 312.5,-82"/>
<text xml:space="preserve" text-anchor="start" x="187.5" y="-68.5" font-family="Helvetica,sans-Serif" font-size="10.00">HF::Pathfinding::Construct</text>
<text xml:space="preserve" text-anchor="middle" x="246" y="-56.5" font-family="Helvetica,sans-Serif" font-size="10.00">ShortestPathFromPred</text>
</a>
</g>
</g>
<!-- Node1&#45;&gt;Node3 -->
<g id="edge2" class="edge">
<title>Node1&#45;&gt;Node3</title>
<path fill="none" stroke="#63b8ff" d="M134.82,-81.58C145.57,-80.06 156.78,-78.48 167.75,-76.93"/>
<polygon fill="#63b8ff" stroke="#63b8ff" points="168.17,-80.4 177.58,-75.54 167.19,-73.47 168.17,-80.4"/>
</g>
<!-- Node4 -->
<g id="node4" class="node">
<title>Node4</title>
<g id="a_node4"><a xlink:href="a02083.html#a55ded4e02787eb739770ebe28ef386a9" target="_top" xlink:title="Add a new node to the path.">
<polygon fill="white" stroke="#666666" points="468,-132 357.5,-132 357.5,-100 468,-100 468,-132"/>
<text xml:space="preserve" text-anchor="start" x="365.5" y="-118.5" font-family="Helvetica,sans-Serif" font-size="10.00">HF::SpatialStructures</text>
<text xml:space="preserve" text-anchor="middle" x="412.75" y="-106.5" font-family="Helvetica,sans-Serif" font-size="10.00">::Path::AddNode</text>
</a>
</g>
</g>
<!-- Node3&#45;&gt;Node4 -->
<g id="edge3" class="edge">
<title>Node3&#45;&gt;Node4</title>
<path fill="none" stroke="#63b8ff" d="M300.95,-82.37C315.52,-86.8 331.45,-91.63 346.57,-96.22"/>
<polygon fill="#63b8ff" stroke="#63b8ff" points="345.37,-99.51 355.95,-99.07 347.4,-92.81 345.37,-99.51"/>
</g>
<!-- Node5 -->
<g id="node5" class="node">
<title>Node5</title>
<g id="a_node5"><a xlink:href="a02083.html#adf2bad9ac73dbdc436c365654d54ad98" target="_top" xlink:title="Reverse the direction of this path.">
<polygon fill="white" stroke="#666666" points="468,-82 357.5,-82 357.5,-50 468,-50 468,-82"/>
<text xml:space="preserve" text-anchor="start" x="365.5" y="-68.5" font-family="Helvetica,sans-Serif" font-size="10.00">HF::SpatialStructures</text>
<text xml:space="preserve" text-anchor="middle" x="412.75" y="-56.5" font-family="Helvetica,sans-Serif" font-size="10.00">::Path::Reverse</text>
</a>
</g>
</g>
<!-- Node3&#45;&gt;Node5 -->
<g id="edge4" class="edge">
<title>Node3&#45;&gt;Node5</title>
<path fill="none" stroke="#63b8ff" d="M312.59,-66C323.58,-66 334.98,-66 345.97,-66"/>
<polygon fill="#63b8ff" stroke="#63b8ff" points="345.73,-69.5 355.73,-66 345.73,-62.5 345.73,-69.5"/>
</g>
<!-- Node6 -->
<g id="node6" class="node">
<title>Node6</title>
<g id="a_node6"><a xlink:href="a02083.html#a28f61f0f57b38a5249a11a725d9d692b" target="_top" xlink:title="Determine how many nodes are in this path.">
<polygon fill="white" stroke="#666666" points="468,-32 357.5,-32 357.5,0 468,0 468,-32"/>
<text xml:space="preserve" text-anchor="start" x="365.5" y="-18.5" font-family="Helvetica,sans-Serif" font-size="10.00">HF::SpatialStructures</text>
<text xml:space="preserve" text-anchor="middle" x="412.75" y="-6.5" font-family="Helvetica,sans-Serif" font-size="10.00">::Path::size</text>
</a>
</g>
</g>
<!-- Node3&#45;&gt;Node6 -->
<g id="edge5" class="edge">
<title>Node3&#45;&gt;Node6</title>
<path fill="none" stroke="#63b8ff" d="M300.95,-49.63C315.52,-45.2 331.45,-40.37 346.57,-35.78"/>
<polygon fill="#63b8ff" stroke="#63b8ff" points="347.4,-39.19 355.95,-32.93 345.37,-32.49 347.4,-39.19"/>
</g>
</g>
</svg>
