<?xml version="1.0" encoding="UTF-8" standalone="no"?>
<!DOCTYPE svg PUBLIC "-//W3C//DTD SVG 1.1//EN"
 "http://www.w3.org/Graphics/SVG/1.1/DTD/svg11.dtd">
<!-- Generated by graphviz version 13.1.2 (20250808.2320)
 -->
<!-- Title: HF::Pathfinding::ConstructShortestPathFromPred Pages: 1 -->
<svg width="288pt" height="140pt"
 viewBox="0.00 0.00 288.00 140.00" xmlns="http://www.w3.org/2000/svg" xmlns:xlink="http://www.w3.org/1999/xlink">
<g id="graph0" class="graph" transform="scale(1 1) rotate(0) translate(4 136)">
<title>HF::Pathfinding::ConstructShortestPathFromPred</title>
<!-- Node1 -->
<g id="node1" class="node">
<title>Node1</title>
<g id="a_node1"><a xlink:title="Construct the shortest path from start to end using the given predecessor and distance vectors.">
<polygon fill="#999999" stroke="#666666" points="133,-82 0,-82 0,-50 133,-50 133,-82"/>
<text xml:space="preserve" text-anchor="start" x="8" y="-68.5" font-family="Helvetica,sans-Serif" font-size="10.00">HF::Pathfinding::Construct</text>
<text xml:space="preserve" text-anchor="middle" x="66.5" y="-56.5" font-family="Helvetica,sans-Serif" font-size="10.00">ShortestPathFromPred</text>
</a>
</g>
</g>
<!-- Node2 -->
<g id="node2" class="node">
<title>Node2</title>
<g id="a_node2"><a xlink:href="a02083.html#a55ded4e02787eb739770ebe28ef386a9" target="_top" xlink:title="Add a new node to the path.">
<polygon fill="white" stroke="#666666" points="279.5,-132 169,-132 169,-100 279.5,-100 279.5,-132"/>
<text xml:space="preserve" text-anchor="start" x="177" y="-118.5" font-family="Helvetica,sans-Serif" font-size="10.00">HF::SpatialStructures</text>
<text xml:space="preserve" text-anchor="middle" x="224.25" y="-106.5" font-family="Helvetica,sans-Serif" font-size="10.00">::Path::AddNode</text>
</a>
</g>
</g>
<!-- Node1&#45;&gt;Node2 -->
<g id="edge1" class="edge">
<title>Node1&#45;&gt;Node2</title>
<path fill="none" stroke="#63b8ff" d="M118.5,-82.37C132.14,-86.75 147.04,-91.54 161.21,-96.08"/>
<polygon fill="#63b8ff" stroke="#63b8ff" points="159.84,-99.32 170.43,-99.04 161.98,-92.65 159.84,-99.32"/>
</g>
<!-- Node3 -->
<g id="node3" class="node">
<title>Node3</title>
<g id="a_node3"><a xlink:href="a02083.html#adf2bad9ac73dbdc436c365654d54ad98" target="_top" xlink:title="Reverse the direction of this path.">
<polygon fill="white" stroke="#666666" points="279.5,-82 169,-82 169,-50 279.5,-50 279.5,-82"/>
<text xml:space="preserve" text-anchor="start" x="177" y="-68.5" font-family="Helvetica,sans-Serif" font-size="10.00">HF::SpatialStructures</text>
<text xml:space="preserve" text-anchor="middle" x="224.25" y="-56.5" font-family="Helvetica,sans-Serif" font-size="10.00">::Path::Reverse</text>
</a>
</g>
</g>
<!-- Node1&#45;&gt;Node3 -->
<g id="edge2" class="edge">
<title>Node1&#45;&gt;Node3</title>
<path fill="none" stroke="#63b8ff" d="M133.1,-66C141.03,-66 149.14,-66 157.08,-66"/>
<polygon fill="#63b8ff" stroke="#63b8ff" points="157.04,-69.5 167.04,-66 157.04,-62.5 157.04,-69.5"/>
</g>
<!-- Node4 -->
<g id="node4" class="node">
<title>Node4</title>
<g id="a_node4"><a xlink:href="a02083.html#a28f61f0f57b38a5249a11a725d9d692b" target="_top" xlink:title="Determine how many nodes are in this path.">
<polygon fill="white" stroke="#666666" points="279.5,-32 169,-32 169,0 279.5,0 279.5,-32"/>
<text xml:space="preserve" text-anchor="start" x="177" y="-18.5" font-family="Helvetica,sans-Serif" font-size="10.00">HF::SpatialStructures</text>
<text xml:space="preserve" text-anchor="middle" x="224.25" y="-6.5" font-family="Helvetica,sans-Serif" font-size="10.00">::Path::size</text>
</a>
</g>
</g>
<!-- Node1&#45;&gt;Node4 -->
<g id="edge3" class="edge">
<title>Node1&#45;&gt;Node4</title>
<path fill="none" stroke="#63b8ff" d="M118.5,-49.63C132.14,-45.25 147.04,-40.46 161.21,-35.92"/>
<polygon fill="#63b8ff" stroke="#63b8ff" points="161.98,-39.35 170.43,-32.96 159.84,-32.68 161.98,-39.35"/>
</g>
</g>
</svg>
