<?xml version="1.0" encoding="UTF-8" standalone="no"?>
<!DOCTYPE svg PUBLIC "-//W3C//DTD SVG 1.1//EN"
 "http://www.w3.org/Graphics/SVG/1.1/DTD/svg11.dtd">
<!-- Generated by graphviz version 13.1.2 (20250808.2320)
 -->
<!-- Title: AggregateCosts Pages: 1 -->
<svg width="255pt" height="78pt"
 viewBox="0.00 0.00 255.00 78.00" xmlns="http://www.w3.org/2000/svg" xmlns:xlink="http://www.w3.org/1999/xlink">
<g id="graph0" class="graph" transform="scale(1 1) rotate(0) translate(4 74)">
<title>AggregateCosts</title>
<!-- Node1 -->
<g id="node1" class="node">
<title>Node1</title>
<g id="a_node1"><a xlink:title="Get an ordered array of costs for each node aggregated by the desired function.">
<polygon fill="#999999" stroke="#666666" points="86.5,-42 0,-42 0,-22 86.5,-22 86.5,-42"/>
<text xml:space="preserve" text-anchor="middle" x="43.25" y="-28.5" font-family="Helvetica,sans-Serif" font-size="10.00">AggregateCosts</text>
</a>
</g>
</g>
<!-- Node2 -->
<g id="node2" class="node">
<title>Node2</title>
<g id="a_node2"><a xlink:href="a01551.html#a487b0b29dc7c554089e0255779218567" target="_top" xlink:title="Summarize the costs of every outgoing edge for every node in the graph.">
<polygon fill="white" stroke="#666666" points="247.25,-70 122.5,-70 122.5,-38 247.25,-38 247.25,-70"/>
<text xml:space="preserve" text-anchor="start" x="130.5" y="-56.5" font-family="Helvetica,sans-Serif" font-size="10.00">HF::SpatialStructures</text>
<text xml:space="preserve" text-anchor="middle" x="184.88" y="-44.5" font-family="Helvetica,sans-Serif" font-size="10.00">::Graph::AggregateGraph</text>
</a>
</g>
</g>
<!-- Node1&#45;&gt;Node2 -->
<g id="edge1" class="edge">
<title>Node1&#45;&gt;Node2</title>
<path fill="none" stroke="#63b8ff" d="M86.9,-38.72C94.56,-39.93 102.75,-41.22 110.98,-42.52"/>
<polygon fill="#63b8ff" stroke="#63b8ff" points="110.29,-45.95 120.72,-44.05 111.38,-39.03 110.29,-45.95"/>
</g>
<!-- Node3 -->
<g id="node3" class="node">
<title>Node3</title>
<g id="a_node3"><a xlink:href="a00434.html#a4a6d9b1a1bf9c8f2b5394875a8ca0c72" target="_top" xlink:title=" ">
<polygon fill="white" stroke="#666666" points="219.5,-20 150.25,-20 150.25,0 219.5,0 219.5,-20"/>
<text xml:space="preserve" text-anchor="middle" x="184.88" y="-6.5" font-family="Helvetica,sans-Serif" font-size="10.00">parse_string</text>
</a>
</g>
</g>
<!-- Node1&#45;&gt;Node3 -->
<g id="edge2" class="edge">
<title>Node1&#45;&gt;Node3</title>
<path fill="none" stroke="#63b8ff" d="M86.9,-25.28C103.32,-22.69 122.12,-19.73 138.76,-17.11"/>
<polygon fill="#63b8ff" stroke="#63b8ff" points="139.06,-20.6 148.39,-15.59 137.97,-13.69 139.06,-20.6"/>
</g>
</g>
</svg>
