<?xml version="1.0" encoding="UTF-8" standalone="no"?>
<!DOCTYPE svg PUBLIC "-//W3C//DTD SVG 1.1//EN"
 "http://www.w3.org/Graphics/SVG/1.1/DTD/svg11.dtd">
<!-- Generated by graphviz version 13.1.2 (20250808.2320)
 -->
<!-- Title: CastMultipleRays Pages: 1 -->
<svg width="467pt" height="78pt"
 viewBox="0.00 0.00 467.00 78.00" xmlns="http://www.w3.org/2000/svg" xmlns:xlink="http://www.w3.org/1999/xlink">
<g id="graph0" class="graph" transform="scale(1 1) rotate(0) translate(4 74)">
<title>CastMultipleRays</title>
<!-- Node1 -->
<g id="node1" class="node">
<title>Node1</title>
<g id="a_node1"><a xlink:title="Cast multiple rays at once in parallel and receive their hitpoints in return. The number of direction...">
<polygon fill="#999999" stroke="#666666" points="94,-48 0,-48 0,-28 94,-28 94,-48"/>
<text xml:space="preserve" text-anchor="middle" x="47" y="-34.5" font-family="Helvetica,sans-Serif" font-size="10.00">CastMultipleRays</text>
</a>
</g>
</g>
<!-- Node2 -->
<g id="node2" class="node">
<title>Node2</title>
<g id="a_node2"><a xlink:href="a00245.html#a603d456361c9737b88a091e6683db12b" target="_top" xlink:title="Convert a raw array from an external caller to an organized vector of points">
<polygon fill="white" stroke="#666666" points="284,-70 130,-70 130,-50 284,-50 284,-70"/>
<text xml:space="preserve" text-anchor="middle" x="207" y="-56.5" font-family="Helvetica,sans-Serif" font-size="10.00">ConvertRawFloatArrayToPoints</text>
</a>
</g>
</g>
<!-- Node1&#45;&gt;Node2 -->
<g id="edge1" class="edge">
<title>Node1&#45;&gt;Node2</title>
<path fill="none" stroke="#63b8ff" d="M94.12,-44.42C102.19,-45.55 110.82,-46.75 119.57,-47.97"/>
<polygon fill="#63b8ff" stroke="#63b8ff" points="118.8,-51.39 129.19,-49.3 119.76,-44.46 118.8,-51.39"/>
</g>
<!-- Node3 -->
<g id="node3" class="node">
<title>Node3</title>
<g id="a_node3"><a xlink:href="a01411.html#a0c4abe0d3160c1a59231e0ae492fe537" target="_top" xlink:title="Cast multiple rays and recieve hitpoints in return.">
<polygon fill="white" stroke="#666666" points="276.5,-32 137.5,-32 137.5,0 276.5,0 276.5,-32"/>
<text xml:space="preserve" text-anchor="start" x="145.5" y="-18.5" font-family="Helvetica,sans-Serif" font-size="10.00">HF::RayTracer::EmbreeRay</text>
<text xml:space="preserve" text-anchor="middle" x="207" y="-6.5" font-family="Helvetica,sans-Serif" font-size="10.00">Tracer::PointIntersections</text>
</a>
</g>
</g>
<!-- Node1&#45;&gt;Node3 -->
<g id="edge2" class="edge">
<title>Node1&#45;&gt;Node3</title>
<path fill="none" stroke="#63b8ff" d="M94.12,-31.58C104.13,-30.18 114.99,-28.67 125.88,-27.16"/>
<polygon fill="#63b8ff" stroke="#63b8ff" points="126.28,-30.63 135.71,-25.79 125.32,-23.7 126.28,-30.63"/>
</g>
<!-- Node4 -->
<g id="node4" class="node">
<title>Node4</title>
<g id="a_node4"><a xlink:href="a01411.html#aa8424b274c7c5d0598ff13b49ac8c8d2" target="_top" xlink:title="Cast a ray and overwrite the origin with the hitpoint if it intersects any geometry.">
<polygon fill="white" stroke="#666666" points="459,-32 320,-32 320,0 459,0 459,-32"/>
<text xml:space="preserve" text-anchor="start" x="328" y="-18.5" font-family="Helvetica,sans-Serif" font-size="10.00">HF::RayTracer::EmbreeRay</text>
<text xml:space="preserve" text-anchor="middle" x="389.5" y="-6.5" font-family="Helvetica,sans-Serif" font-size="10.00">Tracer::PointIntersection</text>
</a>
</g>
</g>
<!-- Node3&#45;&gt;Node4 -->
<g id="edge3" class="edge">
<title>Node3&#45;&gt;Node4</title>
<path fill="none" stroke="#63b8ff" d="M276.75,-16C287.07,-16 297.78,-16 308.31,-16"/>
<polygon fill="#63b8ff" stroke="#63b8ff" points="308.12,-19.5 318.12,-16 308.12,-12.5 308.12,-19.5"/>
</g>
<!-- Node4&#45;&gt;Node4 -->
<g id="edge4" class="edge">
<title>Node4&#45;&gt;Node4</title>
<path fill="none" stroke="#63b8ff" d="M356.92,-32.44C350.84,-41.58 361.7,-50 389.5,-50 404.7,-50 414.84,-47.48 419.91,-43.71"/>
<polygon fill="#63b8ff" stroke="#63b8ff" points="423.34,-44.41 421.8,-33.93 416.47,-43.09 423.34,-44.41"/>
</g>
</g>
</svg>
