<?xml version="1.0" encoding="UTF-8" standalone="no"?>
<!DOCTYPE svg PUBLIC "-//W3C//DTD SVG 1.1//EN"
 "http://www.w3.org/Graphics/SVG/1.1/DTD/svg11.dtd">
<!-- Generated by graphviz version 13.1.2 (20250808.2320)
 -->
<!-- Title: nlohmann::detail::dtoa_impl::compute_boundaries Pages: 1 -->
<svg width="307pt" height="90pt"
 viewBox="0.00 0.00 307.00 90.00" xmlns="http://www.w3.org/2000/svg" xmlns:xlink="http://www.w3.org/1999/xlink">
<g id="graph0" class="graph" transform="scale(1 1) rotate(0) translate(4 86)">
<title>nlohmann::detail::dtoa_impl::compute_boundaries</title>
<!-- Node1 -->
<g id="node1" class="node">
<title>Node1</title>
<g id="a_node1"><a xlink:title=" ">
<polygon fill="#999999" stroke="#666666" points="135.25,-57 0,-57 0,-25 135.25,-25 135.25,-57"/>
<text xml:space="preserve" text-anchor="start" x="8" y="-43.5" font-family="Helvetica,sans-Serif" font-size="10.00">nlohmann::detail::dtoa</text>
<text xml:space="preserve" text-anchor="middle" x="67.62" y="-31.5" font-family="Helvetica,sans-Serif" font-size="10.00">_impl::compute_boundaries</text>
</a>
</g>
</g>
<!-- Node2 -->
<g id="node2" class="node">
<title>Node2</title>
<g id="a_node2"><a xlink:href="a02043.html#a2246b5b40c7c6992153ef174063d6aa6" target="_top" xlink:title="normalize x such that the significand is &gt;= 2^(q&#45;1)">
<polygon fill="white" stroke="#666666" points="292.25,-82 178,-82 178,-50 292.25,-50 292.25,-82"/>
<text xml:space="preserve" text-anchor="start" x="186" y="-68.5" font-family="Helvetica,sans-Serif" font-size="10.00">nlohmann::detail::dtoa</text>
<text xml:space="preserve" text-anchor="middle" x="235.12" y="-56.5" font-family="Helvetica,sans-Serif" font-size="10.00">_impl::diyfp::normalize</text>
</a>
</g>
</g>
<!-- Node1&#45;&gt;Node2 -->
<g id="edge1" class="edge">
<title>Node1&#45;&gt;Node2</title>
<path fill="none" stroke="#63b8ff" d="M135.46,-51.1C145.63,-52.63 156.13,-54.22 166.32,-55.76"/>
<polygon fill="#63b8ff" stroke="#63b8ff" points="165.75,-59.21 176.16,-57.24 166.8,-52.29 165.75,-59.21"/>
</g>
<!-- Node3 -->
<g id="node3" class="node">
<title>Node3</title>
<g id="a_node3"><a xlink:href="a02043.html#a6b6665e467ebabe0c0f7418d3fe4b118" target="_top" xlink:title="normalize x such that the result has the exponent E">
<polygon fill="white" stroke="#666666" points="299,-32 171.25,-32 171.25,0 299,0 299,-32"/>
<text xml:space="preserve" text-anchor="start" x="179.25" y="-18.5" font-family="Helvetica,sans-Serif" font-size="10.00">nlohmann::detail::dtoa</text>
<text xml:space="preserve" text-anchor="middle" x="235.12" y="-6.5" font-family="Helvetica,sans-Serif" font-size="10.00">_impl::diyfp::normalize_to</text>
</a>
</g>
</g>
<!-- Node1&#45;&gt;Node3 -->
<g id="edge2" class="edge">
<title>Node1&#45;&gt;Node3</title>
<path fill="none" stroke="#63b8ff" d="M135.46,-30.9C143.39,-29.71 151.52,-28.48 159.55,-27.27"/>
<polygon fill="#63b8ff" stroke="#63b8ff" points="159.93,-30.75 169.29,-25.79 158.88,-23.83 159.93,-30.75"/>
</g>
</g>
</svg>
