<?xml version="1.0" encoding="UTF-8" standalone="no"?>
<!DOCTYPE svg PUBLIC "-//W3C//DTD SVG 1.1//EN"
 "http://www.w3.org/Graphics/SVG/1.1/DTD/svg11.dtd">
<!-- Generated by graphviz version 13.1.2 (20250808.2320)
 -->
<!-- Title: nlohmann::detail::to_chars Pages: 1 -->
<svg width="586pt" height="202pt"
 viewBox="0.00 0.00 586.00 202.00" xmlns="http://www.w3.org/2000/svg" xmlns:xlink="http://www.w3.org/1999/xlink">
<g id="graph0" class="graph" transform="scale(1 1) rotate(0) translate(4 198)">
<title>nlohmann::detail::to_chars</title>
<!-- Node1 -->
<g id="node1" class="node">
<title>Node1</title>
<g id="a_node1"><a xlink:title="generates a decimal representation of the floating&#45;point number value in [first, last).">
<polygon fill="#999999" stroke="#666666" points="101.5,-135 0,-135 0,-103 101.5,-103 101.5,-135"/>
<text xml:space="preserve" text-anchor="start" x="8" y="-121.5" font-family="Helvetica,sans-Serif" font-size="10.00">nlohmann::detail::to</text>
<text xml:space="preserve" text-anchor="middle" x="50.75" y="-109.5" font-family="Helvetica,sans-Serif" font-size="10.00">_chars</text>
</a>
</g>
</g>
<!-- Node2 -->
<g id="node2" class="node">
<title>Node2</title>
<g id="a_node2"><a xlink:href="a00479.html#a0986c3e015db045df89506436f19e07c" target="_top" xlink:title="prettify v = buf * 10^decimal_exponent">
<polygon fill="white" stroke="#666666" points="249.5,-177 137.5,-177 137.5,-145 249.5,-145 249.5,-177"/>
<text xml:space="preserve" text-anchor="start" x="145.5" y="-163.5" font-family="Helvetica,sans-Serif" font-size="10.00">nlohmann::detail::dtoa</text>
<text xml:space="preserve" text-anchor="middle" x="193.5" y="-151.5" font-family="Helvetica,sans-Serif" font-size="10.00">_impl::format_buffer</text>
</a>
</g>
</g>
<!-- Node1&#45;&gt;Node2 -->
<g id="edge1" class="edge">
<title>Node1&#45;&gt;Node2</title>
<path fill="none" stroke="#63b8ff" d="M101.77,-133.93C109.79,-136.32 118.2,-138.83 126.52,-141.31"/>
<polygon fill="#63b8ff" stroke="#63b8ff" points="125.35,-144.61 135.93,-144.12 127.35,-137.91 125.35,-144.61"/>
</g>
<!-- Node4 -->
<g id="node4" class="node">
<title>Node4</title>
<g id="a_node4"><a xlink:href="a00479.html#a05b681dcb8569b9784c6dccfadb01633" target="_top" xlink:title=" ">
<polygon fill="white" stroke="#666666" points="249.5,-110 137.5,-110 137.5,-78 249.5,-78 249.5,-110"/>
<text xml:space="preserve" text-anchor="start" x="145.5" y="-96.5" font-family="Helvetica,sans-Serif" font-size="10.00">nlohmann::detail::dtoa</text>
<text xml:space="preserve" text-anchor="middle" x="193.5" y="-84.5" font-family="Helvetica,sans-Serif" font-size="10.00">_impl::grisu2</text>
</a>
</g>
</g>
<!-- Node1&#45;&gt;Node4 -->
<g id="edge3" class="edge">
<title>Node1&#45;&gt;Node4</title>
<path fill="none" stroke="#63b8ff" d="M101.77,-110.12C109.7,-108.71 118.01,-107.23 126.24,-105.77"/>
<polygon fill="#63b8ff" stroke="#63b8ff" points="126.66,-109.25 135.89,-104.06 125.43,-102.36 126.66,-109.25"/>
</g>
<!-- Node3 -->
<g id="node3" class="node">
<title>Node3</title>
<g id="a_node3"><a xlink:href="a00479.html#a78ad745d14b79fc65714c9938981faf6" target="_top" xlink:title="appends a decimal representation of e to buf">
<polygon fill="white" stroke="#666666" points="409.88,-194 288.12,-194 288.12,-162 409.88,-162 409.88,-194"/>
<text xml:space="preserve" text-anchor="start" x="296.12" y="-180.5" font-family="Helvetica,sans-Serif" font-size="10.00">nlohmann::detail::dtoa</text>
<text xml:space="preserve" text-anchor="middle" x="349" y="-168.5" font-family="Helvetica,sans-Serif" font-size="10.00">_impl::append_exponent</text>
</a>
</g>
</g>
<!-- Node2&#45;&gt;Node3 -->
<g id="edge2" class="edge">
<title>Node2&#45;&gt;Node3</title>
<path fill="none" stroke="#63b8ff" d="M249.92,-167.14C258.55,-168.09 267.58,-169.09 276.51,-170.08"/>
<polygon fill="#63b8ff" stroke="#63b8ff" points="275.9,-173.54 286.23,-171.16 276.67,-166.58 275.9,-173.54"/>
</g>
<!-- Node5 -->
<g id="node5" class="node">
<title>Node5</title>
<g id="a_node5"><a xlink:href="a00479.html#adbf329a18c5cf854a3477327afd2200b" target="_top" xlink:title=" ">
<polygon fill="white" stroke="#666666" points="412.5,-144 285.5,-144 285.5,-100 412.5,-100 412.5,-144"/>
<text xml:space="preserve" text-anchor="start" x="293.5" y="-130.5" font-family="Helvetica,sans-Serif" font-size="10.00">nlohmann::detail::dtoa</text>
<text xml:space="preserve" text-anchor="start" x="293.5" y="-118.5" font-family="Helvetica,sans-Serif" font-size="10.00">_impl::get_cached_power</text>
<text xml:space="preserve" text-anchor="middle" x="349" y="-106.5" font-family="Helvetica,sans-Serif" font-size="10.00">_for_binary_exponent</text>
</a>
</g>
</g>
<!-- Node4&#45;&gt;Node5 -->
<g id="edge4" class="edge">
<title>Node4&#45;&gt;Node5</title>
<path fill="none" stroke="#63b8ff" d="M249.92,-104.11C257.68,-105.52 265.76,-107 273.8,-108.47"/>
<polygon fill="#63b8ff" stroke="#63b8ff" points="273.15,-111.91 283.62,-110.26 274.41,-105.02 273.15,-111.91"/>
</g>
<!-- Node6 -->
<g id="node6" class="node">
<title>Node6</title>
<g id="a_node6"><a xlink:href="a00479.html#a9b899c72b0e1e3dd46d75c2b4e6bcdfb" target="_top" xlink:title=" ">
<polygon fill="white" stroke="#666666" points="406.88,-82 291.12,-82 291.12,-50 406.88,-50 406.88,-82"/>
<text xml:space="preserve" text-anchor="start" x="299.12" y="-68.5" font-family="Helvetica,sans-Serif" font-size="10.00">nlohmann::detail::dtoa</text>
<text xml:space="preserve" text-anchor="middle" x="349" y="-56.5" font-family="Helvetica,sans-Serif" font-size="10.00">_impl::grisu2_digit_gen</text>
</a>
</g>
</g>
<!-- Node4&#45;&gt;Node6 -->
<g id="edge5" class="edge">
<title>Node4&#45;&gt;Node6</title>
<path fill="none" stroke="#63b8ff" d="M249.92,-83.89C259.59,-82.13 269.75,-80.27 279.72,-78.46"/>
<polygon fill="#63b8ff" stroke="#63b8ff" points="280.16,-81.93 289.37,-76.7 278.9,-75.05 280.16,-81.93"/>
</g>
<!-- Node10 -->
<g id="node10" class="node">
<title>Node10</title>
<g id="a_node10"><a xlink:href="a02043.html#aa5f250d12ce89c81fdb08900c6a823e8" target="_top" xlink:title="returns x * y">
<polygon fill="white" stroke="#666666" points="405,-32 293,-32 293,0 405,0 405,-32"/>
<text xml:space="preserve" text-anchor="start" x="301" y="-18.5" font-family="Helvetica,sans-Serif" font-size="10.00">nlohmann::detail::dtoa</text>
<text xml:space="preserve" text-anchor="middle" x="349" y="-6.5" font-family="Helvetica,sans-Serif" font-size="10.00">_impl::diyfp::mul</text>
</a>
</g>
</g>
<!-- Node4&#45;&gt;Node10 -->
<g id="edge9" class="edge">
<title>Node4&#45;&gt;Node10</title>
<path fill="none" stroke="#63b8ff" d="M220.23,-77.65C238.15,-66.6 262.82,-52.06 285.5,-41 288.36,-39.61 291.31,-38.23 294.31,-36.87"/>
<polygon fill="#63b8ff" stroke="#63b8ff" points="295.44,-40.2 303.22,-33 292.65,-33.78 295.44,-40.2"/>
</g>
<!-- Node7 -->
<g id="node7" class="node">
<title>Node7</title>
<g id="a_node7"><a xlink:href="a00479.html#a36ded358763b5dbcea9867660fbe4e28" target="_top" xlink:title=" ">
<polygon fill="white" stroke="#666666" points="577.75,-132 448.5,-132 448.5,-100 577.75,-100 577.75,-132"/>
<text xml:space="preserve" text-anchor="start" x="456.5" y="-118.5" font-family="Helvetica,sans-Serif" font-size="10.00">nlohmann::detail::dtoa</text>
<text xml:space="preserve" text-anchor="middle" x="513.12" y="-106.5" font-family="Helvetica,sans-Serif" font-size="10.00">_impl::find_largest_pow10</text>
</a>
</g>
</g>
<!-- Node6&#45;&gt;Node7 -->
<g id="edge6" class="edge">
<title>Node6&#45;&gt;Node7</title>
<path fill="none" stroke="#63b8ff" d="M403.09,-82.37C417.43,-86.8 433.1,-91.63 447.98,-96.22"/>
<polygon fill="#63b8ff" stroke="#63b8ff" points="446.61,-99.46 457.2,-99.06 448.67,-92.77 446.61,-99.46"/>
</g>
<!-- Node8 -->
<g id="node8" class="node">
<title>Node8</title>
<g id="a_node8"><a xlink:href="a00479.html#a5bc841e0bee12fd6489d49cf7bd07bb4" target="_top" xlink:title=" ">
<polygon fill="white" stroke="#666666" points="569.12,-82 457.12,-82 457.12,-50 569.12,-50 569.12,-82"/>
<text xml:space="preserve" text-anchor="start" x="465.12" y="-68.5" font-family="Helvetica,sans-Serif" font-size="10.00">nlohmann::detail::dtoa</text>
<text xml:space="preserve" text-anchor="middle" x="513.12" y="-56.5" font-family="Helvetica,sans-Serif" font-size="10.00">_impl::grisu2_round</text>
</a>
</g>
</g>
<!-- Node6&#45;&gt;Node8 -->
<g id="edge7" class="edge">
<title>Node6&#45;&gt;Node8</title>
<path fill="none" stroke="#63b8ff" d="M407.16,-66C419.51,-66 432.68,-66 445.37,-66"/>
<polygon fill="#63b8ff" stroke="#63b8ff" points="445.33,-69.5 455.33,-66 445.33,-62.5 445.33,-69.5"/>
</g>
<!-- Node9 -->
<g id="node9" class="node">
<title>Node9</title>
<g id="a_node9"><a xlink:href="a02043.html#aeb26771af54ad73598c1a0430d65d884" target="_top" xlink:title="returns x &#45; y">
<polygon fill="white" stroke="#666666" points="569.12,-32 457.12,-32 457.12,0 569.12,0 569.12,-32"/>
<text xml:space="preserve" text-anchor="start" x="465.12" y="-18.5" font-family="Helvetica,sans-Serif" font-size="10.00">nlohmann::detail::dtoa</text>
<text xml:space="preserve" text-anchor="middle" x="513.12" y="-6.5" font-family="Helvetica,sans-Serif" font-size="10.00">_impl::diyfp::sub</text>
</a>
</g>
</g>
<!-- Node6&#45;&gt;Node9 -->
<g id="edge8" class="edge">
<title>Node6&#45;&gt;Node9</title>
<path fill="none" stroke="#63b8ff" d="M403.09,-49.63C417.43,-45.2 433.1,-40.37 447.98,-35.78"/>
<polygon fill="#63b8ff" stroke="#63b8ff" points="448.67,-39.23 457.2,-32.94 446.61,-32.54 448.67,-39.23"/>
</g>
</g>
</svg>
