<?xml version="1.0" encoding="UTF-8" standalone="no"?>
<!DOCTYPE svg PUBLIC "-//W3C//DTD SVG 1.1//EN"
 "http://www.w3.org/Graphics/SVG/1.1/DTD/svg11.dtd">
<!-- Generated by graphviz version 13.1.2 (20250808.2320)
 -->
<!-- Title: nanort::vnormalize Pages: 1 -->
<svg width="338pt" height="104pt"
 viewBox="0.00 0.00 338.00 104.00" xmlns="http://www.w3.org/2000/svg" xmlns:xlink="http://www.w3.org/1999/xlink">
<g id="graph0" class="graph" transform="scale(1 1) rotate(0) translate(4 100)">
<title>nanort::vnormalize</title>
<!-- Node1 -->
<g id="node1" class="node">
<title>Node1</title>
<g id="a_node1"><a xlink:title=" ">
<polygon fill="#999999" stroke="#666666" points="96.25,-58 0,-58 0,-38 96.25,-38 96.25,-58"/>
<text xml:space="preserve" text-anchor="middle" x="48.12" y="-44.5" font-family="Helvetica,sans-Serif" font-size="10.00">nanort::vnormalize</text>
</a>
</g>
</g>
<!-- Node2 -->
<g id="node2" class="node">
<title>Node2</title>
<g id="a_node2"><a xlink:href="a00474.html#ab9ba72d8d5e11d213c39ce9bd8e851ef" target="_top" xlink:title=" ">
<polygon fill="white" stroke="#666666" points="212.75,-58 132.25,-58 132.25,-38 212.75,-38 212.75,-58"/>
<text xml:space="preserve" text-anchor="middle" x="172.5" y="-44.5" font-family="Helvetica,sans-Serif" font-size="10.00">nanort::vlength</text>
</a>
</g>
</g>
<!-- Node1&#45;&gt;Node2 -->
<g id="edge1" class="edge">
<title>Node1&#45;&gt;Node2</title>
<path fill="none" stroke="#63b8ff" d="M96.44,-48C104.3,-48 112.49,-48 120.44,-48"/>
<polygon fill="#63b8ff" stroke="#63b8ff" points="120.34,-51.5 130.34,-48 120.34,-44.5 120.34,-51.5"/>
</g>
<!-- Node3 -->
<g id="node3" class="node">
<title>Node3</title>
<g id="a_node3"><a xlink:href="a01443.html#a245ee0e429d5695c33ea29ccbe1792ec" target="_top" xlink:title=" ">
<polygon fill="white" stroke="#666666" points="330,-96 248.75,-96 248.75,-76 330,-76 330,-96"/>
<text xml:space="preserve" text-anchor="middle" x="289.38" y="-82.5" font-family="Helvetica,sans-Serif" font-size="10.00">nanort::real3::x</text>
</a>
</g>
</g>
<!-- Node2&#45;&gt;Node3 -->
<g id="edge2" class="edge">
<title>Node2&#45;&gt;Node3</title>
<path fill="none" stroke="#63b8ff" d="M205.19,-58.48C217.88,-62.68 232.67,-67.57 246.23,-72.06"/>
<polygon fill="#63b8ff" stroke="#63b8ff" points="244.75,-75.26 255.35,-75.07 246.95,-68.61 244.75,-75.26"/>
</g>
<!-- Node4 -->
<g id="node4" class="node">
<title>Node4</title>
<g id="a_node4"><a xlink:href="a01443.html#af92059bf1d44c9bf67c90ca2d46be17e" target="_top" xlink:title=" ">
<polygon fill="white" stroke="#666666" points="330,-58 248.75,-58 248.75,-38 330,-38 330,-58"/>
<text xml:space="preserve" text-anchor="middle" x="289.38" y="-44.5" font-family="Helvetica,sans-Serif" font-size="10.00">nanort::real3::y</text>
</a>
</g>
</g>
<!-- Node2&#45;&gt;Node4 -->
<g id="edge3" class="edge">
<title>Node2&#45;&gt;Node4</title>
<path fill="none" stroke="#63b8ff" d="M213.03,-48C220.8,-48 229.05,-48 237.13,-48"/>
<polygon fill="#63b8ff" stroke="#63b8ff" points="236.87,-51.5 246.87,-48 236.87,-44.5 236.87,-51.5"/>
</g>
<!-- Node5 -->
<g id="node5" class="node">
<title>Node5</title>
<g id="a_node5"><a xlink:href="a01443.html#a96d4a74ac8a453a85c5661d38d3003d1" target="_top" xlink:title=" ">
<polygon fill="white" stroke="#666666" points="330,-20 248.75,-20 248.75,0 330,0 330,-20"/>
<text xml:space="preserve" text-anchor="middle" x="289.38" y="-6.5" font-family="Helvetica,sans-Serif" font-size="10.00">nanort::real3::z</text>
</a>
</g>
</g>
<!-- Node2&#45;&gt;Node5 -->
<g id="edge4" class="edge">
<title>Node2&#45;&gt;Node5</title>
<path fill="none" stroke="#63b8ff" d="M205.19,-37.52C217.88,-33.32 232.67,-28.43 246.23,-23.94"/>
<polygon fill="#63b8ff" stroke="#63b8ff" points="246.95,-27.39 255.35,-20.93 244.75,-20.74 246.95,-27.39"/>
</g>
</g>
</svg>
