<?xml version="1.0" encoding="UTF-8" standalone="no"?>
<!DOCTYPE svg PUBLIC "-//W3C//DTD SVG 1.1//EN"
 "http://www.w3.org/Graphics/SVG/1.1/DTD/svg11.dtd">
<!-- Generated by graphviz version 13.1.2 (20250808.2320)
 -->
<!-- Title: parse_string Pages: 1 -->
<svg width="246pt" height="142pt"
 viewBox="0.00 0.00 246.00 142.00" xmlns="http://www.w3.org/2000/svg" xmlns:xlink="http://www.w3.org/1999/xlink">
<g id="graph0" class="graph" transform="scale(1 1) rotate(0) translate(4 138)">
<title>parse_string</title>
<!-- Node1 -->
<g id="node1" class="node">
<title>Node1</title>
<g id="a_node1"><a xlink:title=" ">
<polygon fill="#999999" stroke="#666666" points="238.25,-77 169,-77 169,-57 238.25,-57 238.25,-77"/>
<text xml:space="preserve" text-anchor="middle" x="203.62" y="-63.5" font-family="Helvetica,sans-Serif" font-size="10.00">parse_string</text>
</a>
</g>
</g>
<!-- Node2 -->
<g id="node2" class="node">
<title>Node2</title>
<g id="a_node2"><a xlink:href="a00458.html#ga02213608939a85d5165da6c0a47c113b" target="_top" xlink:title="Create a new edge between parent_id and child_id. If these IDs do not exist in the graph,...">
<polygon fill="white" stroke="#666666" points="125.12,-134 7.88,-134 7.88,-114 125.12,-114 125.12,-134"/>
<text xml:space="preserve" text-anchor="middle" x="66.5" y="-120.5" font-family="Helvetica,sans-Serif" font-size="10.00">AddEdgeFromNodeIDs</text>
</a>
</g>
</g>
<!-- Node1&#45;&gt;Node2 -->
<g id="edge1" class="edge">
<title>Node1&#45;&gt;Node2</title>
<path fill="none" stroke="#63b8ff" d="M176.06,-83.27C163.35,-90.59 147.72,-98.93 133,-105 125.23,-108.2 116.73,-111.09 108.5,-113.59"/>
<polygon fill="#63b8ff" stroke="#63b8ff" points="177.82,-86.3 184.66,-78.2 174.27,-80.27 177.82,-86.3"/>
</g>
<!-- Node3 -->
<g id="node3" class="node">
<title>Node3</title>
<g id="a_node3"><a xlink:href="a00458.html#ga43f715ce7f57fb92e78f8f6e90b84baf" target="_top" xlink:title="Add an edge between parent and child. If parent or child does not already exist in the graph,...">
<polygon fill="white" stroke="#666666" points="119.88,-96 13.13,-96 13.13,-76 119.88,-76 119.88,-96"/>
<text xml:space="preserve" text-anchor="middle" x="66.5" y="-82.5" font-family="Helvetica,sans-Serif" font-size="10.00">AddEdgeFromNodes</text>
</a>
</g>
</g>
<!-- Node1&#45;&gt;Node3 -->
<g id="edge2" class="edge">
<title>Node1&#45;&gt;Node3</title>
<path fill="none" stroke="#63b8ff" d="M157.47,-73.35C145.54,-75.03 132.56,-76.85 120.27,-78.58"/>
<polygon fill="#63b8ff" stroke="#63b8ff" points="157.61,-76.86 167.03,-72.01 156.64,-69.93 157.61,-76.86"/>
</g>
<!-- Node4 -->
<g id="node4" class="node">
<title>Node4</title>
<g id="a_node4"><a xlink:href="a00458.html#gaa1aab878001ed3842f34a46ef62e7d30" target="_top" xlink:title="Add an edge between parent and child. If parent or child does not already exist in the graph,...">
<polygon fill="white" stroke="#666666" points="133,-58 0,-58 0,-38 133,-38 133,-58"/>
<text xml:space="preserve" text-anchor="middle" x="66.5" y="-44.5" font-family="Helvetica,sans-Serif" font-size="10.00">AddEdgeFromNodeStructs</text>
</a>
</g>
</g>
<!-- Node1&#45;&gt;Node4 -->
<g id="edge3" class="edge">
<title>Node1&#45;&gt;Node4</title>
<path fill="none" stroke="#63b8ff" d="M157.28,-60.62C149.62,-59.55 141.52,-58.41 133.46,-57.27"/>
<polygon fill="#63b8ff" stroke="#63b8ff" points="156.64,-64.07 167.03,-61.99 157.61,-57.14 156.64,-64.07"/>
</g>
<!-- Node5 -->
<g id="node5" class="node">
<title>Node5</title>
<g id="a_node5"><a xlink:href="a00458.html#ga0b0293bbac3cdc8bdaa1d2c36bec0a26" target="_top" xlink:title="Get an ordered array of costs for each node aggregated by the desired function.">
<polygon fill="white" stroke="#666666" points="109.75,-20 23.25,-20 23.25,0 109.75,0 109.75,-20"/>
<text xml:space="preserve" text-anchor="middle" x="66.5" y="-6.5" font-family="Helvetica,sans-Serif" font-size="10.00">AggregateCosts</text>
</a>
</g>
</g>
<!-- Node1&#45;&gt;Node5 -->
<g id="edge4" class="edge">
<title>Node1&#45;&gt;Node5</title>
<path fill="none" stroke="#63b8ff" d="M176.06,-50.73C163.35,-43.41 147.72,-35.07 133,-29 125.23,-25.8 116.73,-22.91 108.5,-20.41"/>
<polygon fill="#63b8ff" stroke="#63b8ff" points="174.27,-53.73 184.66,-55.8 177.82,-47.7 174.27,-53.73"/>
</g>
</g>
</svg>
