<?xml version="1.0" encoding="UTF-8" standalone="no"?>
<!DOCTYPE svg PUBLIC "-//W3C//DTD SVG 1.1//EN"
 "http://www.w3.org/Graphics/SVG/1.1/DTD/svg11.dtd">
<!-- Generated by graphviz version 13.1.2 (20250808.2320)
 -->
<!-- Title: nlohmann::detail::hash Pages: 1 -->
<svg width="288pt" height="46pt"
 viewBox="0.00 0.00 288.00 46.00" xmlns="http://www.w3.org/2000/svg" xmlns:xlink="http://www.w3.org/1999/xlink">
<g id="graph0" class="graph" transform="scale(1 1) rotate(0) translate(4 42)">
<title>nlohmann::detail::hash</title>
<!-- Node1 -->
<g id="node1" class="node">
<title>Node1</title>
<g id="a_node1"><a xlink:title="hash a JSON value">
<polygon fill="#999999" stroke="#666666" points="114.25,-20 0,-20 0,0 114.25,0 114.25,-20"/>
<text xml:space="preserve" text-anchor="middle" x="57.12" y="-6.5" font-family="Helvetica,sans-Serif" font-size="10.00">nlohmann::detail::hash</text>
</a>
</g>
</g>
<!-- Node1&#45;&gt;Node1 -->
<g id="edge2" class="edge">
<title>Node1&#45;&gt;Node1</title>
<path fill="none" stroke="#63b8ff" d="M32,-20.34C21.26,-28.98 29.64,-38 57.12,-38 72.16,-38 81.47,-35.3 85.07,-31.44"/>
<polygon fill="#63b8ff" stroke="#63b8ff" points="88.48,-30.63 82.62,-21.81 81.69,-32.36 88.48,-30.63"/>
</g>
<!-- Node2 -->
<g id="node2" class="node">
<title>Node2</title>
<g id="a_node2"><a xlink:href="a00477.html#a66eb4d912b6f872d6983f7d0826f32c6" target="_top" xlink:title=" ">
<polygon fill="white" stroke="#666666" points="280.25,-20 150.25,-20 150.25,0 280.25,0 280.25,-20"/>
<text xml:space="preserve" text-anchor="middle" x="215.25" y="-6.5" font-family="Helvetica,sans-Serif" font-size="10.00">nlohmann::detail::combine</text>
</a>
</g>
</g>
<!-- Node1&#45;&gt;Node2 -->
<g id="edge1" class="edge">
<title>Node1&#45;&gt;Node2</title>
<path fill="none" stroke="#63b8ff" d="M114.49,-10C122.33,-10 130.48,-10 138.6,-10"/>
<polygon fill="#63b8ff" stroke="#63b8ff" points="138.5,-13.5 148.5,-10 138.5,-6.5 138.5,-13.5"/>
</g>
</g>
</svg>
