<?xml version="1.0" encoding="UTF-8" standalone="no"?>
<!DOCTYPE svg PUBLIC "-//W3C//DTD SVG 1.1//EN"
 "http://www.w3.org/Graphics/SVG/1.1/DTD/svg11.dtd">
<!-- Generated by graphviz version 13.1.2 (20250808.2320)
 -->
<!-- Title: Cinterface/cinterface_utils.cpp Pages: 1 -->
<svg width="323pt" height="152pt"
 viewBox="0.00 0.00 323.00 152.00" xmlns="http://www.w3.org/2000/svg" xmlns:xlink="http://www.w3.org/1999/xlink">
<g id="graph0" class="graph" transform="scale(1 1) rotate(0) translate(4 148)">
<title>Cinterface/cinterface_utils.cpp</title>
<!-- Node1 -->
<g id="node1" class="node">
<title>Node1</title>
<g id="a_node1"><a xlink:title=" ">
<polygon fill="#999999" stroke="#666666" points="185.88,-144 79.12,-144 79.12,-112 185.88,-112 185.88,-144"/>
<text xml:space="preserve" text-anchor="start" x="87.12" y="-130.5" font-family="Helvetica,sans-Serif" font-size="10.00">Cinterface/cinterface</text>
<text xml:space="preserve" text-anchor="middle" x="132.5" y="-118.5" font-family="Helvetica,sans-Serif" font-size="10.00">_utils.cpp</text>
</a>
</g>
</g>
<!-- Node2 -->
<g id="node2" class="node">
<title>Node2</title>
<g id="a_node2"><a xlink:href="a00413.html" target="_top" xlink:title=" ">
<polygon fill="white" stroke="#666666" points="124.62,-76 34.38,-76 34.38,-56 124.62,-56 124.62,-76"/>
<text xml:space="preserve" text-anchor="middle" x="79.5" y="-62.5" font-family="Helvetica,sans-Serif" font-size="10.00">cinterface_utils.h</text>
</a>
</g>
</g>
<!-- Node1&#45;&gt;Node2 -->
<g id="edge1" class="edge">
<title>Node1&#45;&gt;Node2</title>
<path fill="none" stroke="#63b8ff" d="M118.85,-111.55C111.64,-103.39 102.76,-93.33 95.26,-84.84"/>
<polygon fill="#63b8ff" stroke="#63b8ff" points="98.06,-82.72 88.81,-77.54 92.81,-87.35 98.06,-82.72"/>
</g>
<!-- Node5 -->
<g id="node5" class="node">
<title>Node5</title>
<g id="a_node5"><a xlink:href="a00176.html" target="_top" xlink:title="Contains definitions for the Exceptions namespace.">
<polygon fill="white" stroke="#666666" points="243.75,-76 157.25,-76 157.25,-56 243.75,-56 243.75,-76"/>
<text xml:space="preserve" text-anchor="middle" x="200.5" y="-62.5" font-family="Helvetica,sans-Serif" font-size="10.00">HFExceptions.h</text>
</a>
</g>
</g>
<!-- Node1&#45;&gt;Node5 -->
<g id="edge4" class="edge">
<title>Node1&#45;&gt;Node5</title>
<path fill="none" stroke="#63b8ff" d="M150.01,-111.55C159.65,-103.04 171.63,-92.48 181.5,-83.77"/>
<polygon fill="#63b8ff" stroke="#63b8ff" points="183.52,-86.65 188.7,-77.41 178.89,-81.4 183.52,-86.65"/>
</g>
<!-- Node3 -->
<g id="node3" class="node">
<title>Node3</title>
<g id="a_node3"><a xlink:title=" ">
<polygon fill="#e0e0e0" stroke="#999999" points="43,-20 0,-20 0,0 43,0 43,-20"/>
<text xml:space="preserve" text-anchor="middle" x="21.5" y="-6.5" font-family="Helvetica,sans-Serif" font-size="10.00">vector</text>
</a>
</g>
</g>
<!-- Node2&#45;&gt;Node3 -->
<g id="edge2" class="edge">
<title>Node2&#45;&gt;Node3</title>
<path fill="none" stroke="#63b8ff" d="M69.4,-55.59C61.25,-48.01 49.57,-37.13 39.78,-28.02"/>
<polygon fill="#63b8ff" stroke="#63b8ff" points="42.3,-25.58 32.59,-21.33 37.53,-30.71 42.3,-25.58"/>
</g>
<!-- Node4 -->
<g id="node4" class="node">
<title>Node4</title>
<g id="a_node4"><a xlink:title=" ">
<polygon fill="#e0e0e0" stroke="#999999" points="98.38,-20 60.62,-20 60.62,0 98.38,0 98.38,-20"/>
<text xml:space="preserve" text-anchor="middle" x="79.5" y="-6.5" font-family="Helvetica,sans-Serif" font-size="10.00">array</text>
</a>
</g>
</g>
<!-- Node2&#45;&gt;Node4 -->
<g id="edge3" class="edge">
<title>Node2&#45;&gt;Node4</title>
<path fill="none" stroke="#63b8ff" d="M79.5,-55.59C79.5,-49.01 79.5,-39.96 79.5,-31.73"/>
<polygon fill="#63b8ff" stroke="#63b8ff" points="83,-31.81 79.5,-21.81 76,-31.81 83,-31.81"/>
</g>
<!-- Node6 -->
<g id="node6" class="node">
<title>Node6</title>
<g id="a_node6"><a xlink:title=" ">
<polygon fill="#e0e0e0" stroke="#999999" points="174.5,-20 116.5,-20 116.5,0 174.5,0 174.5,-20"/>
<text xml:space="preserve" text-anchor="middle" x="145.5" y="-6.5" font-family="Helvetica,sans-Serif" font-size="10.00">exception</text>
</a>
</g>
</g>
<!-- Node5&#45;&gt;Node6 -->
<g id="edge5" class="edge">
<title>Node5&#45;&gt;Node6</title>
<path fill="none" stroke="#63b8ff" d="M190.92,-55.59C183.27,-48.08 172.34,-37.35 163.12,-28.3"/>
<polygon fill="#63b8ff" stroke="#63b8ff" points="165.64,-25.87 156.05,-21.36 160.73,-30.86 165.64,-25.87"/>
</g>
<!-- Node7 -->
<g id="node7" class="node">
<title>Node7</title>
<g id="a_node7"><a xlink:title=" ">
<polygon fill="#e0e0e0" stroke="#999999" points="238.12,-20 192.88,-20 192.88,0 238.12,0 238.12,-20"/>
<text xml:space="preserve" text-anchor="middle" x="215.5" y="-6.5" font-family="Helvetica,sans-Serif" font-size="10.00">cstring</text>
</a>
</g>
</g>
<!-- Node5&#45;&gt;Node7 -->
<g id="edge6" class="edge">
<title>Node5&#45;&gt;Node7</title>
<path fill="none" stroke="#63b8ff" d="M203.11,-55.59C204.98,-48.86 207.57,-39.53 209.9,-31.15"/>
<polygon fill="#63b8ff" stroke="#63b8ff" points="213.21,-32.33 212.51,-21.76 206.46,-30.46 213.21,-32.33"/>
</g>
<!-- Node8 -->
<g id="node8" class="node">
<title>Node8</title>
<g id="a_node8"><a xlink:title=" ">
<polygon fill="#e0e0e0" stroke="#999999" points="314.88,-20 256.12,-20 256.12,0 314.88,0 314.88,-20"/>
<text xml:space="preserve" text-anchor="middle" x="285.5" y="-6.5" font-family="Helvetica,sans-Serif" font-size="10.00">stdexcept</text>
</a>
</g>
</g>
<!-- Node5&#45;&gt;Node8 -->
<g id="edge7" class="edge">
<title>Node5&#45;&gt;Node8</title>
<path fill="none" stroke="#63b8ff" d="M215.31,-55.59C227.9,-47.59 246.25,-35.93 261.03,-26.54"/>
<polygon fill="#63b8ff" stroke="#63b8ff" points="262.74,-29.61 269.3,-21.29 258.98,-23.7 262.74,-29.61"/>
</g>
</g>
</svg>
