<?xml version="1.0" encoding="UTF-8" standalone="no"?>
<!DOCTYPE svg PUBLIC "-//W3C//DTD SVG 1.1//EN"
 "http://www.w3.org/Graphics/SVG/1.1/DTD/svg11.dtd">
<!-- Generated by graphviz version 13.1.2 (20250808.2320)
 -->
<!-- Title: HF::ViewAnalysis::SphericalViewAnalysis Pages: 1 -->
<svg width="716pt" height="128pt"
 viewBox="0.00 0.00 716.00 128.00" xmlns="http://www.w3.org/2000/svg" xmlns:xlink="http://www.w3.org/1999/xlink">
<g id="graph0" class="graph" transform="scale(1 1) rotate(0) translate(4 124)">
<title>HF::ViewAnalysis::SphericalViewAnalysis</title>
<!-- Node1 -->
<g id="node1" class="node">
<title>Node1</title>
<g id="a_node1"><a xlink:title="Conduct view analysis with any Raytracer in parallel.">
<polygon fill="#999999" stroke="#666666" points="141.25,-70 0,-70 0,-38 141.25,-38 141.25,-70"/>
<text xml:space="preserve" text-anchor="start" x="8" y="-56.5" font-family="Helvetica,sans-Serif" font-size="10.00">HF::ViewAnalysis::Spherical</text>
<text xml:space="preserve" text-anchor="middle" x="70.62" y="-44.5" font-family="Helvetica,sans-Serif" font-size="10.00">ViewAnalysis</text>
</a>
</g>
</g>
<!-- Node2 -->
<g id="node2" class="node">
<title>Node2</title>
<g id="a_node2"><a xlink:href="a00459.html#ga6ca336e3887ef82d17b0713c2bf862df" target="_top" xlink:title="Evenly distribute a set of points around a sphere centered at the origin.">
<polygon fill="white" stroke="#666666" points="325.25,-70 177.25,-70 177.25,-38 325.25,-38 325.25,-70"/>
<text xml:space="preserve" text-anchor="start" x="185.25" y="-56.5" font-family="Helvetica,sans-Serif" font-size="10.00">HF::ViewAnalysis::Fibbonacci</text>
<text xml:space="preserve" text-anchor="middle" x="251.25" y="-44.5" font-family="Helvetica,sans-Serif" font-size="10.00">DistributePoints</text>
</a>
</g>
</g>
<!-- Node1&#45;&gt;Node2 -->
<g id="edge1" class="edge">
<title>Node1&#45;&gt;Node2</title>
<path fill="none" stroke="#63b8ff" d="M141.71,-54C149.55,-54 157.6,-54 165.59,-54"/>
<polygon fill="#63b8ff" stroke="#63b8ff" points="165.32,-57.5 175.32,-54 165.32,-50.5 165.32,-57.5"/>
</g>
<!-- Node3 -->
<g id="node3" class="node">
<title>Node3</title>
<g id="a_node3"><a xlink:href="a00466.html#a5b45790c767b670bc00bf3fd2335159a" target="_top" xlink:title=" ">
<polygon fill="white" stroke="#666666" points="527.25,-64 361.25,-64 361.25,-44 527.25,-44 527.25,-64"/>
<text xml:space="preserve" text-anchor="middle" x="444.25" y="-50.5" font-family="Helvetica,sans-Serif" font-size="10.00">HF::ViewAnalysis::FibbonacciDist</text>
</a>
</g>
</g>
<!-- Node2&#45;&gt;Node3 -->
<g id="edge2" class="edge">
<title>Node2&#45;&gt;Node3</title>
<path fill="none" stroke="#63b8ff" d="M325.55,-54C333.41,-54 341.49,-54 349.55,-54"/>
<polygon fill="#63b8ff" stroke="#63b8ff" points="349.4,-57.5 359.4,-54 349.4,-50.5 349.4,-57.5"/>
</g>
<!-- Node4 -->
<g id="node4" class="node">
<title>Node4</title>
<g id="a_node4"><a xlink:href="a00466.html#a94327f2628a43ffe3dc4ab854e8aa20d" target="_top" xlink:title=" ">
<polygon fill="white" stroke="#666666" points="702.62,-120 568.88,-120 568.88,-88 702.62,-88 702.62,-120"/>
<text xml:space="preserve" text-anchor="start" x="576.88" y="-106.5" font-family="Helvetica,sans-Serif" font-size="10.00">HF::ViewAnalysis::Altitude</text>
<text xml:space="preserve" text-anchor="middle" x="635.75" y="-94.5" font-family="Helvetica,sans-Serif" font-size="10.00">WithinRange</text>
</a>
</g>
</g>
<!-- Node3&#45;&gt;Node4 -->
<g id="edge3" class="edge">
<title>Node3&#45;&gt;Node4</title>
<path fill="none" stroke="#63b8ff" d="M484.98,-64.48C507.1,-70.32 535.36,-77.77 561.35,-84.63"/>
<polygon fill="#63b8ff" stroke="#63b8ff" points="560.3,-87.98 570.86,-87.14 562.08,-81.21 560.3,-87.98"/>
</g>
<!-- Node5 -->
<g id="node5" class="node">
<title>Node5</title>
<g id="a_node5"><a xlink:href="a00466.html#a9dcf81751f63f5c7356a4f45159184bb" target="_top" xlink:title="Convert a number from degrees to radians.">
<polygon fill="white" stroke="#666666" points="703.38,-70 568.12,-70 568.12,-38 703.38,-38 703.38,-70"/>
<text xml:space="preserve" text-anchor="start" x="576.12" y="-56.5" font-family="Helvetica,sans-Serif" font-size="10.00">HF::ViewAnalysis::Convert</text>
<text xml:space="preserve" text-anchor="middle" x="635.75" y="-44.5" font-family="Helvetica,sans-Serif" font-size="10.00">ToRadians</text>
</a>
</g>
</g>
<!-- Node3&#45;&gt;Node5 -->
<g id="edge4" class="edge">
<title>Node3&#45;&gt;Node5</title>
<path fill="none" stroke="#63b8ff" d="M527.54,-54C537.13,-54 546.89,-54 556.42,-54"/>
<polygon fill="#63b8ff" stroke="#63b8ff" points="556.39,-57.5 566.39,-54 556.39,-50.5 556.39,-57.5"/>
</g>
<!-- Node6 -->
<g id="node6" class="node">
<title>Node6</title>
<g id="a_node6"><a xlink:href="a00466.html#a38ed3d26d2fcc4bde1790c53eda3945a" target="_top" xlink:title="Normalize a vector.">
<polygon fill="white" stroke="#666666" points="708.25,-20 563.25,-20 563.25,0 708.25,0 708.25,-20"/>
<text xml:space="preserve" text-anchor="middle" x="635.75" y="-6.5" font-family="Helvetica,sans-Serif" font-size="10.00">HF::ViewAnalysis::Normalize</text>
</a>
</g>
</g>
<!-- Node3&#45;&gt;Node6 -->
<g id="edge5" class="edge">
<title>Node3&#45;&gt;Node6</title>
<path fill="none" stroke="#63b8ff" d="M490.16,-43.57C516.73,-37.4 550.61,-29.54 578.9,-22.97"/>
<polygon fill="#63b8ff" stroke="#63b8ff" points="579.41,-26.44 588.36,-20.77 577.83,-19.62 579.41,-26.44"/>
</g>
</g>
</svg>
