<?xml version="1.0" encoding="UTF-8" standalone="no"?>
<!DOCTYPE svg PUBLIC "-//W3C//DTD SVG 1.1//EN"
 "http://www.w3.org/Graphics/SVG/1.1/DTD/svg11.dtd">
<!-- Generated by graphviz version 13.1.2 (20250808.2320)
 -->
<!-- Title: CreateVisibilityGraphGroupToGroup Pages: 1 -->
<svg width="1168pt" height="184pt"
 viewBox="0.00 0.00 1168.00 184.00" xmlns="http://www.w3.org/2000/svg" xmlns:xlink="http://www.w3.org/1999/xlink">
<g id="graph0" class="graph" transform="scale(1 1) rotate(0) translate(4 180)">
<title>CreateVisibilityGraphGroupToGroup</title>
<!-- Node1 -->
<g id="node1" class="node">
<title>Node1</title>
<g id="a_node1"><a xlink:title="Create a new visibility graph from the nodes in group_a, into the nodes of group_b.">
<polygon fill="#999999" stroke="#666666" points="134.5,-126 0,-126 0,-94 134.5,-94 134.5,-126"/>
<text xml:space="preserve" text-anchor="start" x="8" y="-112.5" font-family="Helvetica,sans-Serif" font-size="10.00">CreateVisibilityGraphGroup</text>
<text xml:space="preserve" text-anchor="middle" x="67.25" y="-100.5" font-family="Helvetica,sans-Serif" font-size="10.00">ToGroup</text>
</a>
</g>
</g>
<!-- Node2 -->
<g id="node2" class="node">
<title>Node2</title>
<g id="a_node2"><a xlink:href="a00245.html#a603d456361c9737b88a091e6683db12b" target="_top" xlink:title="Convert a raw array from an external caller to an organized vector of points">
<polygon fill="white" stroke="#666666" points="324.5,-142 170.5,-142 170.5,-122 324.5,-122 324.5,-142"/>
<text xml:space="preserve" text-anchor="middle" x="247.5" y="-128.5" font-family="Helvetica,sans-Serif" font-size="10.00">ConvertRawFloatArrayToPoints</text>
</a>
</g>
</g>
<!-- Node1&#45;&gt;Node2 -->
<g id="edge1" class="edge">
<title>Node1&#45;&gt;Node2</title>
<path fill="none" stroke="#63b8ff" d="M134.88,-118.22C142.67,-119.19 150.72,-120.18 158.74,-121.17"/>
<polygon fill="#63b8ff" stroke="#63b8ff" points="158.2,-124.63 168.55,-122.38 159.06,-117.68 158.2,-124.63"/>
</g>
<!-- Node3 -->
<g id="node3" class="node">
<title>Node3</title>
<g id="a_node3"><a xlink:href="a00467.html#ae42a5aafdfcc29b6a668355c07602efb" target="_top" xlink:title="Generate a Visibility Graph from a set of nodes to another set of nodes.">
<polygon fill="white" stroke="#666666" points="296.75,-104 198.25,-104 198.25,-72 296.75,-72 296.75,-104"/>
<text xml:space="preserve" text-anchor="start" x="206.25" y="-90.5" font-family="Helvetica,sans-Serif" font-size="10.00">HF::VisibilityGraph</text>
<text xml:space="preserve" text-anchor="middle" x="247.5" y="-78.5" font-family="Helvetica,sans-Serif" font-size="10.00">::GroupToGroup</text>
</a>
</g>
</g>
<!-- Node1&#45;&gt;Node3 -->
<g id="edge2" class="edge">
<title>Node1&#45;&gt;Node3</title>
<path fill="none" stroke="#63b8ff" d="M134.88,-101.78C151.83,-99.68 169.94,-97.45 186.54,-95.4"/>
<polygon fill="#63b8ff" stroke="#63b8ff" points="186.76,-98.9 196.26,-94.2 185.9,-91.95 186.76,-98.9"/>
</g>
<!-- Node4 -->
<g id="node4" class="node">
<title>Node4</title>
<g id="a_node4"><a xlink:href="a02071.html#abbd66b566460f9557a373b5fbcc30bb1" target="_top" xlink:title="Calculate the distance between this node and n2.">
<polygon fill="white" stroke="#666666" points="625.75,-126 515.25,-126 515.25,-94 625.75,-94 625.75,-126"/>
<text xml:space="preserve" text-anchor="start" x="523.25" y="-112.5" font-family="Helvetica,sans-Serif" font-size="10.00">HF::SpatialStructures</text>
<text xml:space="preserve" text-anchor="middle" x="570.5" y="-100.5" font-family="Helvetica,sans-Serif" font-size="10.00">::Node::distanceTo</text>
</a>
</g>
</g>
<!-- Node3&#45;&gt;Node4 -->
<g id="edge3" class="edge">
<title>Node3&#45;&gt;Node4</title>
<path fill="none" stroke="#63b8ff" d="M296.9,-91.32C351.98,-95.09 442.21,-101.28 503.66,-105.49"/>
<polygon fill="#63b8ff" stroke="#63b8ff" points="503.05,-108.95 513.27,-106.15 503.53,-101.97 503.05,-108.95"/>
</g>
<!-- Node5 -->
<g id="node5" class="node">
<title>Node5</title>
<g id="a_node5"><a xlink:href="a00467.html#a05b8a83ab27113369c95649470d864b9" target="_top" xlink:title="Obtain the indexes of all nodes that pass the HeightCheck.">
<polygon fill="white" stroke="#666666" points="479.25,-173 360.5,-173 360.5,-141 479.25,-141 479.25,-173"/>
<text xml:space="preserve" text-anchor="start" x="368.5" y="-159.5" font-family="Helvetica,sans-Serif" font-size="10.00">HF::VisibilityGraph</text>
<text xml:space="preserve" text-anchor="middle" x="419.88" y="-147.5" font-family="Helvetica,sans-Serif" font-size="10.00">::HeightCheckAllNodes</text>
</a>
</g>
</g>
<!-- Node3&#45;&gt;Node5 -->
<g id="edge4" class="edge">
<title>Node3&#45;&gt;Node5</title>
<path fill="none" stroke="#63b8ff" d="M297.05,-103.02C306.24,-106.13 315.72,-109.52 324.5,-113 341.6,-119.77 360.01,-128.11 375.99,-135.7"/>
<polygon fill="#63b8ff" stroke="#63b8ff" points="374.21,-138.72 384.74,-139.9 377.24,-132.41 374.21,-138.72"/>
</g>
<!-- Node10 -->
<g id="node10" class="node">
<title>Node10</title>
<g id="a_node10"><a xlink:href="a00467.html#a4d9cf77879eb78075f7f7b0a7e31119a" target="_top" xlink:title="Perform a line of sight check between two nodes.">
<polygon fill="white" stroke="#666666" points="475.88,-82 363.88,-82 363.88,-50 475.88,-50 475.88,-82"/>
<text xml:space="preserve" text-anchor="start" x="371.88" y="-68.5" font-family="Helvetica,sans-Serif" font-size="10.00">HF::VisibilityGraph</text>
<text xml:space="preserve" text-anchor="middle" x="419.88" y="-56.5" font-family="Helvetica,sans-Serif" font-size="10.00">::IsOcclusionBetween</text>
</a>
</g>
</g>
<!-- Node3&#45;&gt;Node10 -->
<g id="edge9" class="edge">
<title>Node3&#45;&gt;Node10</title>
<path fill="none" stroke="#63b8ff" d="M296.87,-81.75C314.06,-79.53 333.72,-77 352.18,-74.61"/>
<polygon fill="#63b8ff" stroke="#63b8ff" points="352.5,-78.1 361.97,-73.35 351.61,-71.16 352.5,-78.1"/>
</g>
<!-- Node13 -->
<g id="node13" class="node">
<title>Node13</title>
<g id="a_node13"><a xlink:href="a01551.html#a2710af2a75976862d7a235793567d2f3" target="_top" xlink:title="Determine how many nodes are in the graph.">
<polygon fill="white" stroke="#666666" points="475.12,-32 364.62,-32 364.62,0 475.12,0 475.12,-32"/>
<text xml:space="preserve" text-anchor="start" x="372.62" y="-18.5" font-family="Helvetica,sans-Serif" font-size="10.00">HF::SpatialStructures</text>
<text xml:space="preserve" text-anchor="middle" x="419.88" y="-6.5" font-family="Helvetica,sans-Serif" font-size="10.00">::Graph::size</text>
</a>
</g>
</g>
<!-- Node3&#45;&gt;Node13 -->
<g id="edge14" class="edge">
<title>Node3&#45;&gt;Node13</title>
<path fill="none" stroke="#63b8ff" d="M287.16,-71.66C311.58,-61.34 343.36,-47.91 369.58,-36.83"/>
<polygon fill="#63b8ff" stroke="#63b8ff" points="370.83,-40.1 378.68,-32.99 368.1,-33.66 370.83,-40.1"/>
</g>
<!-- Node6 -->
<g id="node6" class="node">
<title>Node6</title>
<g id="a_node6"><a xlink:href="a00467.html#af811d21e4c49275521912df9254bb737" target="_top" xlink:title="Check if Node can be raised by height without clipping into any geometry.">
<polygon fill="white" stroke="#666666" points="619.75,-176 521.25,-176 521.25,-144 619.75,-144 619.75,-176"/>
<text xml:space="preserve" text-anchor="start" x="529.25" y="-162.5" font-family="Helvetica,sans-Serif" font-size="10.00">HF::VisibilityGraph</text>
<text xml:space="preserve" text-anchor="middle" x="570.5" y="-150.5" font-family="Helvetica,sans-Serif" font-size="10.00">::HeightCheck</text>
</a>
</g>
</g>
<!-- Node5&#45;&gt;Node6 -->
<g id="edge5" class="edge">
<title>Node5&#45;&gt;Node6</title>
<path fill="none" stroke="#63b8ff" d="M479.62,-158.19C489.41,-158.38 499.59,-158.59 509.42,-158.79"/>
<polygon fill="#63b8ff" stroke="#63b8ff" points="509.18,-162.28 519.24,-158.99 509.32,-155.28 509.18,-162.28"/>
</g>
<!-- Node7 -->
<g id="node7" class="node">
<title>Node7</title>
<g id="a_node7"><a xlink:href="a01411.html#a3a7488f8e41c8a9e3dc9c334047c6457" target="_top" xlink:title="Determine if there is an intersection with any geometry.">
<polygon fill="white" stroke="#666666" points="800.75,-132 661.75,-132 661.75,-100 800.75,-100 800.75,-132"/>
<text xml:space="preserve" text-anchor="start" x="669.75" y="-118.5" font-family="Helvetica,sans-Serif" font-size="10.00">HF::RayTracer::EmbreeRay</text>
<text xml:space="preserve" text-anchor="middle" x="731.25" y="-106.5" font-family="Helvetica,sans-Serif" font-size="10.00">Tracer::Occluded</text>
</a>
</g>
</g>
<!-- Node6&#45;&gt;Node7 -->
<g id="edge6" class="edge">
<title>Node6&#45;&gt;Node7</title>
<path fill="none" stroke="#63b8ff" d="M619.99,-146.56C632.66,-143.05 646.56,-139.2 660.1,-135.44"/>
<polygon fill="#63b8ff" stroke="#63b8ff" points="660.69,-138.91 669.4,-132.87 658.83,-132.16 660.69,-138.91"/>
</g>
<!-- Node8 -->
<g id="node8" class="node">
<title>Node8</title>
<g id="a_node8"><a xlink:href="a01411.html#ade19fda460dadd98769b347840bd305a" target="_top" xlink:title="Implementation for fundamental occlusion ray intersection.">
<polygon fill="white" stroke="#666666" points="975.75,-132 836.75,-132 836.75,-100 975.75,-100 975.75,-132"/>
<text xml:space="preserve" text-anchor="start" x="844.75" y="-118.5" font-family="Helvetica,sans-Serif" font-size="10.00">HF::RayTracer::EmbreeRay</text>
<text xml:space="preserve" text-anchor="middle" x="906.25" y="-106.5" font-family="Helvetica,sans-Serif" font-size="10.00">Tracer::Occluded_IMPL</text>
</a>
</g>
</g>
<!-- Node7&#45;&gt;Node8 -->
<g id="edge7" class="edge">
<title>Node7&#45;&gt;Node8</title>
<path fill="none" stroke="#63b8ff" d="M801.12,-116C809,-116 817.08,-116 825.09,-116"/>
<polygon fill="#63b8ff" stroke="#63b8ff" points="824.82,-119.5 834.82,-116 824.82,-112.5 824.82,-119.5"/>
</g>
<!-- Node9 -->
<g id="node9" class="node">
<title>Node9</title>
<g id="a_node9"><a xlink:href="a00464.html#a76e5d26b5063f0e5b49b4ba835f1da93" target="_top" xlink:title=" ">
<polygon fill="white" stroke="#666666" points="1159.75,-126 1011.75,-126 1011.75,-106 1159.75,-106 1159.75,-126"/>
<text xml:space="preserve" text-anchor="middle" x="1085.75" y="-112.5" font-family="Helvetica,sans-Serif" font-size="10.00">HF::RayTracer::ConstructRay</text>
</a>
</g>
</g>
<!-- Node8&#45;&gt;Node9 -->
<g id="edge8" class="edge">
<title>Node8&#45;&gt;Node9</title>
<path fill="none" stroke="#63b8ff" d="M976.13,-116C984.01,-116 992.11,-116 1000.17,-116"/>
<polygon fill="#63b8ff" stroke="#63b8ff" points="999.99,-119.5 1009.99,-116 999.99,-112.5 999.99,-119.5"/>
</g>
<!-- Node10&#45;&gt;Node4 -->
<g id="edge12" class="edge">
<title>Node10&#45;&gt;Node4</title>
<path fill="none" stroke="#63b8ff" d="M476.22,-82.38C485.35,-85.09 494.9,-87.91 504.25,-90.68"/>
<polygon fill="#63b8ff" stroke="#63b8ff" points="503.07,-93.98 513.65,-93.47 505.05,-87.27 503.07,-93.98"/>
</g>
<!-- Node10&#45;&gt;Node7 -->
<g id="edge13" class="edge">
<title>Node10&#45;&gt;Node7</title>
<path fill="none" stroke="#63b8ff" d="M476.07,-68.19C517.54,-70.54 575.59,-75.33 625.75,-85 640.63,-87.87 656.43,-91.98 671.11,-96.27"/>
<polygon fill="#63b8ff" stroke="#63b8ff" points="670.06,-99.6 680.64,-99.13 672.07,-92.9 670.06,-99.6"/>
</g>
<!-- Node11 -->
<g id="node11" class="node">
<title>Node11</title>
<g id="a_node11"><a xlink:href="a02071.html#ad3f7898ef3178eef0c3579869a7f5c67" target="_top" xlink:title="Get the direction between this node and another node">
<polygon fill="white" stroke="#666666" points="625.75,-38 515.25,-38 515.25,-6 625.75,-6 625.75,-38"/>
<text xml:space="preserve" text-anchor="start" x="523.25" y="-24.5" font-family="Helvetica,sans-Serif" font-size="10.00">HF::SpatialStructures</text>
<text xml:space="preserve" text-anchor="middle" x="570.5" y="-12.5" font-family="Helvetica,sans-Serif" font-size="10.00">::Node::directionTo</text>
</a>
</g>
</g>
<!-- Node10&#45;&gt;Node11 -->
<g id="edge10" class="edge">
<title>Node10&#45;&gt;Node11</title>
<path fill="none" stroke="#63b8ff" d="M476.22,-49.62C485.35,-46.91 494.9,-44.09 504.25,-41.32"/>
<polygon fill="#63b8ff" stroke="#63b8ff" points="505.05,-44.73 513.65,-38.53 503.07,-38.02 505.05,-44.73"/>
</g>
<!-- Node12 -->
<g id="node12" class="node">
<title>Node12</title>
<g id="a_node12"><a xlink:href="a00465.html#ad9a8f0f70b3f60ac5cb7889885d851d1" target="_top" xlink:title=" ">
<polygon fill="white" stroke="#666666" points="786.5,-38 676,-38 676,-6 786.5,-6 786.5,-38"/>
<text xml:space="preserve" text-anchor="start" x="684" y="-24.5" font-family="Helvetica,sans-Serif" font-size="10.00">HF::SpatialStructures</text>
<text xml:space="preserve" text-anchor="middle" x="731.25" y="-12.5" font-family="Helvetica,sans-Serif" font-size="10.00">::Normalize</text>
</a>
</g>
</g>
<!-- Node11&#45;&gt;Node12 -->
<g id="edge11" class="edge">
<title>Node11&#45;&gt;Node12</title>
<path fill="none" stroke="#63b8ff" d="M626.13,-22C638.36,-22 651.45,-22 664.08,-22"/>
<polygon fill="#63b8ff" stroke="#63b8ff" points="664,-25.5 674,-22 664,-18.5 664,-25.5"/>
</g>
</g>
</svg>
