<?xml version="1.0" encoding="UTF-8" standalone="no"?>
<!DOCTYPE svg PUBLIC "-//W3C//DTD SVG 1.1//EN"
 "http://www.w3.org/Graphics/SVG/1.1/DTD/svg11.dtd">
<!-- Generated by graphviz version 13.1.2 (20250808.2320)
 -->
<!-- Title: HF::Geometry::LoadMeshObjects Pages: 1 -->
<svg width="264pt" height="46pt"
 viewBox="0.00 0.00 264.00 46.00" xmlns="http://www.w3.org/2000/svg" xmlns:xlink="http://www.w3.org/1999/xlink">
<g id="graph0" class="graph" transform="scale(1 1) rotate(0) translate(4 42)">
<title>HF::Geometry::LoadMeshObjects</title>
<!-- Node1 -->
<g id="node1" class="node">
<title>Node1</title>
<g id="a_node1"><a xlink:title="Create MeshInfo instances from the OBJ at path.">
<polygon fill="#999999" stroke="#666666" points="255.5,-20 92.5,-20 92.5,0 255.5,0 255.5,-20"/>
<text xml:space="preserve" text-anchor="middle" x="174" y="-6.5" font-family="Helvetica,sans-Serif" font-size="10.00">HF::Geometry::LoadMeshObjects</text>
</a>
</g>
</g>
<!-- Node1&#45;&gt;Node1 -->
<g id="edge1" class="edge">
<title>Node1&#45;&gt;Node1</title>
<path fill="none" stroke="#63b8ff" d="M199.76,-31.44C196.44,-35.3 187.86,-38 174,-38 148.66,-38 140.95,-28.98 150.84,-20.34"/>
<polygon fill="#63b8ff" stroke="#63b8ff" points="203.19,-30.75 197.5,-21.81 196.38,-32.35 203.19,-30.75"/>
</g>
<!-- Node2 -->
<g id="node2" class="node">
<title>Node2</title>
<g id="a_node2"><a xlink:href="a00455.html#ga0805e80d13b29aeddc35f0bcf3f16a1a" target="_top" xlink:title="Load an obj from the given path then rotate it by x,y, and z.">
<polygon fill="white" stroke="#666666" points="56.5,-20 0,-20 0,0 56.5,0 56.5,-20"/>
<text xml:space="preserve" text-anchor="middle" x="28.25" y="-6.5" font-family="Helvetica,sans-Serif" font-size="10.00">LoadOBJ</text>
</a>
</g>
</g>
<!-- Node1&#45;&gt;Node2 -->
<g id="edge2" class="edge">
<title>Node1&#45;&gt;Node2</title>
<path fill="none" stroke="#63b8ff" d="M81.04,-10C72.31,-10 64,-10 56.7,-10"/>
<polygon fill="#63b8ff" stroke="#63b8ff" points="80.79,-13.5 90.79,-10 80.79,-6.5 80.79,-13.5"/>
</g>
</g>
</svg>
