<?xml version="1.0" encoding="UTF-8" standalone="no"?>
<!DOCTYPE svg PUBLIC "-//W3C//DTD SVG 1.1//EN"
 "http://www.w3.org/Graphics/SVG/1.1/DTD/svg11.dtd">
<!-- Generated by graphviz version 13.1.2 (20250808.2320)
 -->
<!-- Title: HF::GraphGenerator::CompareCheckConnections Pages: 1 -->
<svg width="738pt" height="212pt"
 viewBox="0.00 0.00 738.00 212.00" xmlns="http://www.w3.org/2000/svg" xmlns:xlink="http://www.w3.org/1999/xlink">
<g id="graph0" class="graph" transform="scale(1 1) rotate(0) translate(4 208)">
<title>HF::GraphGenerator::CompareCheckConnections</title>
<!-- Node1 -->
<g id="node1" class="node">
<title>Node1</title>
<g id="a_node1"><a xlink:title=" ">
<polygon fill="#999999" stroke="#666666" points="145,-132 0,-132 0,-100 145,-100 145,-132"/>
<text xml:space="preserve" text-anchor="start" x="8" y="-118.5" font-family="Helvetica,sans-Serif" font-size="10.00">HF::GraphGenerator</text>
<text xml:space="preserve" text-anchor="middle" x="72.5" y="-106.5" font-family="Helvetica,sans-Serif" font-size="10.00">::CompareCheckConnections</text>
</a>
</g>
</g>
<!-- Node2 -->
<g id="node2" class="node">
<title>Node2</title>
<g id="a_node2"><a xlink:href="a00463.html#a73b53db067a504d36e9481dfe3326b60" target="_top" xlink:title="Cast an input value to real_t using static cast.">
<polygon fill="white" stroke="#666666" points="432,-204 327.5,-204 327.5,-172 432,-172 432,-204"/>
<text xml:space="preserve" text-anchor="start" x="335.5" y="-190.5" font-family="Helvetica,sans-Serif" font-size="10.00">HF::GraphGenerator</text>
<text xml:space="preserve" text-anchor="middle" x="379.75" y="-178.5" font-family="Helvetica,sans-Serif" font-size="10.00">::CastToReal</text>
</a>
</g>
</g>
<!-- Node1&#45;&gt;Node2 -->
<g id="edge1" class="edge">
<title>Node1&#45;&gt;Node2</title>
<path fill="none" stroke="#63b8ff" d="M89.95,-132.43C109.63,-150.82 144.53,-179.53 181,-191 224.53,-204.68 276.15,-203.35 315.73,-198.91"/>
<polygon fill="#63b8ff" stroke="#63b8ff" points="316.08,-202.39 325.58,-197.7 315.23,-195.44 316.08,-202.39"/>
</g>
<!-- Node3 -->
<g id="node3" class="node">
<title>Node3</title>
<g id="a_node3"><a xlink:href="a00463.html#a58892abe1152c28d26d3ca749c99ea4d" target="_top" xlink:title="Cast an array of 3 values to the graph_generator&#39;s real_3 type.">
<polygon fill="white" stroke="#666666" points="288.5,-182 184,-182 184,-150 288.5,-150 288.5,-182"/>
<text xml:space="preserve" text-anchor="start" x="192" y="-168.5" font-family="Helvetica,sans-Serif" font-size="10.00">HF::GraphGenerator</text>
<text xml:space="preserve" text-anchor="middle" x="236.25" y="-156.5" font-family="Helvetica,sans-Serif" font-size="10.00">::CastToReal3</text>
</a>
</g>
</g>
<!-- Node1&#45;&gt;Node3 -->
<g id="edge2" class="edge">
<title>Node1&#45;&gt;Node3</title>
<path fill="none" stroke="#63b8ff" d="M126.46,-132.37C141.22,-136.93 157.38,-141.93 172.64,-146.64"/>
<polygon fill="#63b8ff" stroke="#63b8ff" points="171.51,-149.96 182.1,-149.57 173.58,-143.27 171.51,-149.96"/>
</g>
<!-- Node4 -->
<g id="node4" class="node">
<title>Node4</title>
<g id="a_node4"><a xlink:href="a00463.html#a260a25e02193ce904849ee090daefa2e" target="_top" xlink:title="Determine what kind of step (if any) is between parent and child, given that a connection was verifie...">
<polygon fill="white" stroke="#666666" points="288.5,-132 184,-132 184,-100 288.5,-100 288.5,-132"/>
<text xml:space="preserve" text-anchor="start" x="192" y="-118.5" font-family="Helvetica,sans-Serif" font-size="10.00">HF::GraphGenerator</text>
<text xml:space="preserve" text-anchor="middle" x="236.25" y="-106.5" font-family="Helvetica,sans-Serif" font-size="10.00">::CheckConnection</text>
</a>
</g>
</g>
<!-- Node1&#45;&gt;Node4 -->
<g id="edge4" class="edge">
<title>Node1&#45;&gt;Node4</title>
<path fill="none" stroke="#63b8ff" d="M145.39,-116C154.42,-116 163.61,-116 172.49,-116"/>
<polygon fill="#63b8ff" stroke="#63b8ff" points="172.43,-119.5 182.43,-116 172.43,-112.5 172.43,-119.5"/>
</g>
<!-- Node10 -->
<g id="node10" class="node">
<title>Node10</title>
<g id="a_node10"><a xlink:href="a01551.html#a794c342603cefb342fdc698ba539b25f" target="_top" xlink:title="Retrieve the node that corresponds to id.">
<polygon fill="white" stroke="#666666" points="291.5,-82 181,-82 181,-50 291.5,-50 291.5,-82"/>
<text xml:space="preserve" text-anchor="start" x="189" y="-68.5" font-family="Helvetica,sans-Serif" font-size="10.00">HF::SpatialStructures</text>
<text xml:space="preserve" text-anchor="middle" x="236.25" y="-56.5" font-family="Helvetica,sans-Serif" font-size="10.00">::Graph::NodeFromID</text>
</a>
</g>
</g>
<!-- Node1&#45;&gt;Node10 -->
<g id="edge11" class="edge">
<title>Node1&#45;&gt;Node10</title>
<path fill="none" stroke="#63b8ff" d="M126.46,-99.63C140.77,-95.2 156.41,-90.37 171.25,-85.78"/>
<polygon fill="#63b8ff" stroke="#63b8ff" points="171.92,-89.24 180.45,-82.94 169.86,-82.55 171.92,-89.24"/>
</g>
<!-- Node11 -->
<g id="node11" class="node">
<title>Node11</title>
<g id="a_node11"><a xlink:href="a01551.html#aa70347b8a33b57c6f0a72d6eca4248d7" target="_top" xlink:title="Get a list of nodes from the graph sorted by ID.">
<polygon fill="white" stroke="#666666" points="291.5,-32 181,-32 181,0 291.5,0 291.5,-32"/>
<text xml:space="preserve" text-anchor="start" x="189" y="-18.5" font-family="Helvetica,sans-Serif" font-size="10.00">HF::SpatialStructures</text>
<text xml:space="preserve" text-anchor="middle" x="236.25" y="-6.5" font-family="Helvetica,sans-Serif" font-size="10.00">::Graph::Nodes</text>
</a>
</g>
</g>
<!-- Node1&#45;&gt;Node11 -->
<g id="edge12" class="edge">
<title>Node1&#45;&gt;Node11</title>
<path fill="none" stroke="#63b8ff" d="M94.58,-99.61C115.74,-83.57 149.61,-58.99 181,-41 183.04,-39.83 185.14,-38.67 187.28,-37.53"/>
<polygon fill="#63b8ff" stroke="#63b8ff" points="188.78,-40.7 196.11,-33.05 185.61,-34.46 188.78,-40.7"/>
</g>
<!-- Node3&#45;&gt;Node2 -->
<g id="edge3" class="edge">
<title>Node3&#45;&gt;Node2</title>
<path fill="none" stroke="#63b8ff" d="M288.74,-174C297.51,-175.37 306.72,-176.8 315.76,-178.21"/>
<polygon fill="#63b8ff" stroke="#63b8ff" points="315.15,-181.65 325.57,-179.73 316.23,-174.74 315.15,-181.65"/>
</g>
<!-- Node5 -->
<g id="node5" class="node">
<title>Node5</title>
<g id="a_node5"><a xlink:href="a00463.html#ace66c1b60785c32433402f012019ab81" target="_top" xlink:title="Determine if there is a valid line of sight between parent and child.">
<polygon fill="white" stroke="#666666" points="432,-132 327.5,-132 327.5,-100 432,-100 432,-132"/>
<text xml:space="preserve" text-anchor="start" x="335.5" y="-118.5" font-family="Helvetica,sans-Serif" font-size="10.00">HF::GraphGenerator</text>
<text xml:space="preserve" text-anchor="middle" x="379.75" y="-106.5" font-family="Helvetica,sans-Serif" font-size="10.00">::OcclusionCheck</text>
</a>
</g>
</g>
<!-- Node4&#45;&gt;Node5 -->
<g id="edge5" class="edge">
<title>Node4&#45;&gt;Node5</title>
<path fill="none" stroke="#63b8ff" d="M288.74,-116C297.51,-116 306.72,-116 315.76,-116"/>
<polygon fill="#63b8ff" stroke="#63b8ff" points="315.55,-119.5 325.55,-116 315.55,-112.5 315.55,-119.5"/>
</g>
<!-- Node6 -->
<g id="node6" class="node">
<title>Node6</title>
<g id="a_node6"><a xlink:href="a00463.html#a750afc15c798c79a8b6a0784ed092f3c" target="_top" xlink:title="Calculate the normalized direction from one node to another.">
<polygon fill="white" stroke="#666666" points="580.75,-182 476.25,-182 476.25,-150 580.75,-150 580.75,-182"/>
<text xml:space="preserve" text-anchor="start" x="484.25" y="-168.5" font-family="Helvetica,sans-Serif" font-size="10.00">HF::GraphGenerator</text>
<text xml:space="preserve" text-anchor="middle" x="528.5" y="-156.5" font-family="Helvetica,sans-Serif" font-size="10.00">::DirectionTo</text>
</a>
</g>
</g>
<!-- Node5&#45;&gt;Node6 -->
<g id="edge6" class="edge">
<title>Node5&#45;&gt;Node6</title>
<path fill="none" stroke="#63b8ff" d="M428.8,-132.37C441.41,-136.67 455.15,-141.35 468.26,-145.82"/>
<polygon fill="#63b8ff" stroke="#63b8ff" points="467.06,-149.11 477.66,-149.02 469.32,-142.48 467.06,-149.11"/>
</g>
<!-- Node8 -->
<g id="node8" class="node">
<title>Node8</title>
<g id="a_node8"><a xlink:href="a00463.html#a7f96186b8f24f878404d1feccf2f64db" target="_top" xlink:title="Calculate the distance between two nodes.">
<polygon fill="white" stroke="#666666" points="580.75,-132 476.25,-132 476.25,-100 580.75,-100 580.75,-132"/>
<text xml:space="preserve" text-anchor="start" x="484.25" y="-118.5" font-family="Helvetica,sans-Serif" font-size="10.00">HF::GraphGenerator</text>
<text xml:space="preserve" text-anchor="middle" x="528.5" y="-106.5" font-family="Helvetica,sans-Serif" font-size="10.00">::DistanceTo</text>
</a>
</g>
</g>
<!-- Node5&#45;&gt;Node8 -->
<g id="edge8" class="edge">
<title>Node5&#45;&gt;Node8</title>
<path fill="none" stroke="#63b8ff" d="M432.49,-116C442.91,-116 453.97,-116 464.73,-116"/>
<polygon fill="#63b8ff" stroke="#63b8ff" points="464.72,-119.5 474.72,-116 464.72,-112.5 464.72,-119.5"/>
</g>
<!-- Node9 -->
<g id="node9" class="node">
<title>Node9</title>
<g id="a_node9"><a xlink:href="a01419.html#a22ebf97e859ef651e81deb40b74f668f" target="_top" xlink:title=" ">
<polygon fill="white" stroke="#666666" points="589,-64 468,-64 468,-32 589,-32 589,-64"/>
<text xml:space="preserve" text-anchor="start" x="476" y="-50.5" font-family="Helvetica,sans-Serif" font-size="10.00">HF::RayTracer::MultiRT</text>
<text xml:space="preserve" text-anchor="middle" x="528.5" y="-38.5" font-family="Helvetica,sans-Serif" font-size="10.00">::Occluded</text>
</a>
</g>
</g>
<!-- Node5&#45;&gt;Node9 -->
<g id="edge9" class="edge">
<title>Node5&#45;&gt;Node9</title>
<path fill="none" stroke="#63b8ff" d="M416.27,-99.54C435.94,-90.43 460.6,-79 481.7,-69.22"/>
<polygon fill="#63b8ff" stroke="#63b8ff" points="483.07,-72.44 490.68,-65.06 480.13,-66.09 483.07,-72.44"/>
</g>
<!-- Node7 -->
<g id="node7" class="node">
<title>Node7</title>
<g id="a_node7"><a xlink:href="a00463.html#ad2e09e0825a1db4fc511907179eddf00" target="_top" xlink:title="Normalize a vector.">
<polygon fill="white" stroke="#666666" points="729.5,-182 625,-182 625,-150 729.5,-150 729.5,-182"/>
<text xml:space="preserve" text-anchor="start" x="633" y="-168.5" font-family="Helvetica,sans-Serif" font-size="10.00">HF::GraphGenerator</text>
<text xml:space="preserve" text-anchor="middle" x="677.25" y="-156.5" font-family="Helvetica,sans-Serif" font-size="10.00">::Normalize</text>
</a>
</g>
</g>
<!-- Node6&#45;&gt;Node7 -->
<g id="edge7" class="edge">
<title>Node6&#45;&gt;Node7</title>
<path fill="none" stroke="#63b8ff" d="M581.24,-166C591.66,-166 602.72,-166 613.48,-166"/>
<polygon fill="#63b8ff" stroke="#63b8ff" points="613.47,-169.5 623.47,-166 613.47,-162.5 613.47,-169.5"/>
</g>
<!-- Node9&#45;&gt;Node9 -->
<g id="edge10" class="edge">
<title>Node9&#45;&gt;Node9</title>
<path fill="none" stroke="#63b8ff" d="M501.94,-64.44C496.99,-73.58 505.84,-82 528.5,-82 540.89,-82 549.16,-79.48 553.29,-75.71"/>
<polygon fill="#63b8ff" stroke="#63b8ff" points="556.73,-76.36 554.82,-65.94 549.81,-75.27 556.73,-76.36"/>
</g>
</g>
</svg>
