<?xml version="1.0" encoding="UTF-8" standalone="no"?>
<!DOCTYPE svg PUBLIC "-//W3C//DTD SVG 1.1//EN"
 "http://www.w3.org/Graphics/SVG/1.1/DTD/svg11.dtd">
<!-- Generated by graphviz version 13.1.2 (20250808.2320)
 -->
<!-- Title: nlohmann::detail::from_json Pages: 1 -->
<svg width="436pt" height="40pt"
 viewBox="0.00 0.00 436.00 40.00" xmlns="http://www.w3.org/2000/svg" xmlns:xlink="http://www.w3.org/1999/xlink">
<g id="graph0" class="graph" transform="scale(1 1) rotate(0) translate(4 36)">
<title>nlohmann::detail::from_json</title>
<!-- Node1 -->
<g id="node1" class="node">
<title>Node1</title>
<g id="a_node1"><a xlink:title=" ">
<polygon fill="#999999" stroke="#666666" points="136,-26 0,-26 0,-6 136,-6 136,-26"/>
<text xml:space="preserve" text-anchor="middle" x="68" y="-12.5" font-family="Helvetica,sans-Serif" font-size="10.00">nlohmann::detail::from_json</text>
</a>
</g>
</g>
<!-- Node2 -->
<g id="node2" class="node">
<title>Node2</title>
<g id="a_node2"><a xlink:href="a00477.html#a28253915d9db4a0112d60eaee0422949" target="_top" xlink:title=" ">
<polygon fill="white" stroke="#666666" points="284.75,-32 172,-32 172,0 284.75,0 284.75,-32"/>
<text xml:space="preserve" text-anchor="start" x="180" y="-18.5" font-family="Helvetica,sans-Serif" font-size="10.00">nlohmann::detail::from</text>
<text xml:space="preserve" text-anchor="middle" x="228.38" y="-6.5" font-family="Helvetica,sans-Serif" font-size="10.00">_json_tuple_impl</text>
</a>
</g>
</g>
<!-- Node1&#45;&gt;Node2 -->
<g id="edge1" class="edge">
<title>Node1&#45;&gt;Node2</title>
<path fill="none" stroke="#63b8ff" d="M136.17,-16C144.1,-16 152.19,-16 160.12,-16"/>
<polygon fill="#63b8ff" stroke="#63b8ff" points="160.07,-19.5 170.07,-16 160.07,-12.5 160.07,-19.5"/>
</g>
<!-- Node3 -->
<g id="node3" class="node">
<title>Node3</title>
<g id="a_node3"><a xlink:href="a00477.html#acc422c11342b31368f610b6f96fcedc6" target="_top" xlink:title=" ">
<polygon fill="white" stroke="#666666" points="427.5,-26 320.75,-26 320.75,-6 427.5,-6 427.5,-26"/>
<text xml:space="preserve" text-anchor="middle" x="374.12" y="-12.5" font-family="Helvetica,sans-Serif" font-size="10.00">nlohmann::detail::get</text>
</a>
</g>
</g>
<!-- Node2&#45;&gt;Node3 -->
<g id="edge2" class="edge">
<title>Node2&#45;&gt;Node3</title>
<path fill="none" stroke="#63b8ff" d="M284.95,-16C292.9,-16 301.13,-16 309.22,-16"/>
<polygon fill="#63b8ff" stroke="#63b8ff" points="309.01,-19.5 319.01,-16 309.01,-12.5 309.01,-19.5"/>
</g>
</g>
</svg>
