<?xml version="1.0" encoding="UTF-8" standalone="no"?>
<!DOCTYPE svg PUBLIC "-//W3C//DTD SVG 1.1//EN"
 "http://www.w3.org/Graphics/SVG/1.1/DTD/svg11.dtd">
<!-- Generated by graphviz version 13.1.2 (20250808.2320)
 -->
<!-- Title: CastRay Pages: 1 -->
<svg width="238pt" height="58pt"
 viewBox="0.00 0.00 238.00 58.00" xmlns="http://www.w3.org/2000/svg" xmlns:xlink="http://www.w3.org/1999/xlink">
<g id="graph0" class="graph" transform="scale(1 1) rotate(0) translate(4 54)">
<title>CastRay</title>
<!-- Node1 -->
<g id="node1" class="node">
<title>Node1</title>
<g id="a_node1"><a xlink:title="Cast a single ray from the raytracer and receive a point in return.">
<polygon fill="#999999" stroke="#666666" points="55,-26 0,-26 0,-6 55,-6 55,-26"/>
<text xml:space="preserve" text-anchor="middle" x="27.5" y="-12.5" font-family="Helvetica,sans-Serif" font-size="10.00">CastRay</text>
</a>
</g>
</g>
<!-- Node2 -->
<g id="node2" class="node">
<title>Node2</title>
<g id="a_node2"><a xlink:href="a01411.html#aa8424b274c7c5d0598ff13b49ac8c8d2" target="_top" xlink:title="Cast a ray and overwrite the origin with the hitpoint if it intersects any geometry.">
<polygon fill="white" stroke="#666666" points="230,-32 91,-32 91,0 230,0 230,-32"/>
<text xml:space="preserve" text-anchor="start" x="99" y="-18.5" font-family="Helvetica,sans-Serif" font-size="10.00">HF::RayTracer::EmbreeRay</text>
<text xml:space="preserve" text-anchor="middle" x="160.5" y="-6.5" font-family="Helvetica,sans-Serif" font-size="10.00">Tracer::PointIntersection</text>
</a>
</g>
</g>
<!-- Node1&#45;&gt;Node2 -->
<g id="edge1" class="edge">
<title>Node1&#45;&gt;Node2</title>
<path fill="none" stroke="#63b8ff" d="M55.33,-16C62.56,-16 70.78,-16 79.34,-16"/>
<polygon fill="#63b8ff" stroke="#63b8ff" points="79.24,-19.5 89.24,-16 79.24,-12.5 79.24,-19.5"/>
</g>
<!-- Node2&#45;&gt;Node2 -->
<g id="edge2" class="edge">
<title>Node2&#45;&gt;Node2</title>
<path fill="none" stroke="#63b8ff" d="M136.76,-32.44C132.32,-41.58 140.24,-50 160.5,-50 171.58,-50 178.97,-47.48 182.66,-43.71"/>
<polygon fill="#63b8ff" stroke="#63b8ff" points="186.11,-44.33 184.03,-33.94 179.18,-43.36 186.11,-44.33"/>
</g>
</g>
</svg>
