<?xml version="1.0" encoding="UTF-8" standalone="no"?>
<!DOCTYPE svg PUBLIC "-//W3C//DTD SVG 1.1//EN"
 "http://www.w3.org/Graphics/SVG/1.1/DTD/svg11.dtd">
<!-- Generated by graphviz version 13.1.2 (20250808.2320)
 -->
<!-- Title: CalculateAndStoreStepTypes Pages: 1 -->
<svg width="877pt" height="208pt"
 viewBox="0.00 0.00 877.00 208.00" xmlns="http://www.w3.org/2000/svg" xmlns:xlink="http://www.w3.org/1999/xlink">
<g id="graph0" class="graph" transform="scale(1 1) rotate(0) translate(4 204)">
<title>CalculateAndStoreStepTypes</title>
<!-- Node1 -->
<g id="node1" class="node">
<title>Node1</title>
<g id="a_node1"><a xlink:title="Query the graph and identify the step types of all edges, adding them to the graph.">
<polygon fill="#999999" stroke="#666666" points="144.25,-144 0,-144 0,-124 144.25,-124 144.25,-144"/>
<text xml:space="preserve" text-anchor="middle" x="72.12" y="-130.5" font-family="Helvetica,sans-Serif" font-size="10.00">CalculateAndStoreStepTypes</text>
</a>
</g>
</g>
<!-- Node2 -->
<g id="node2" class="node">
<title>Node2</title>
<g id="a_node2"><a xlink:href="a01551.html#a6f04c5320d4bf88120f8c5e31b0fb02a" target="_top" xlink:title="Add multiple edges to the graph.">
<polygon fill="white" stroke="#666666" points="290.75,-200 180.25,-200 180.25,-168 290.75,-168 290.75,-200"/>
<text xml:space="preserve" text-anchor="start" x="188.25" y="-186.5" font-family="Helvetica,sans-Serif" font-size="10.00">HF::SpatialStructures</text>
<text xml:space="preserve" text-anchor="middle" x="235.5" y="-174.5" font-family="Helvetica,sans-Serif" font-size="10.00">::Graph::AddEdges</text>
</a>
</g>
</g>
<!-- Node1&#45;&gt;Node2 -->
<g id="edge1" class="edge">
<title>Node1&#45;&gt;Node2</title>
<path fill="none" stroke="#63b8ff" d="M106.95,-144.48C125.38,-150.19 148.79,-157.44 170.51,-164.17"/>
<polygon fill="#63b8ff" stroke="#63b8ff" points="169.31,-167.46 179.89,-167.08 171.38,-160.78 169.31,-167.46"/>
</g>
<!-- Node3 -->
<g id="node3" class="node">
<title>Node3</title>
<g id="a_node3"><a xlink:href="a00463.html#a176c58b25fb5cb545d17128d4535f921" target="_top" xlink:title=" ">
<polygon fill="white" stroke="#666666" points="287.75,-150 183.25,-150 183.25,-118 287.75,-118 287.75,-150"/>
<text xml:space="preserve" text-anchor="start" x="191.25" y="-136.5" font-family="Helvetica,sans-Serif" font-size="10.00">HF::GraphGenerator</text>
<text xml:space="preserve" text-anchor="middle" x="235.5" y="-124.5" font-family="Helvetica,sans-Serif" font-size="10.00">::CalculateStepType</text>
</a>
</g>
</g>
<!-- Node1&#45;&gt;Node3 -->
<g id="edge2" class="edge">
<title>Node1&#45;&gt;Node3</title>
<path fill="none" stroke="#63b8ff" d="M144.38,-134C153.42,-134 162.62,-134 171.52,-134"/>
<polygon fill="#63b8ff" stroke="#63b8ff" points="171.49,-137.5 181.49,-134 171.49,-130.5 171.49,-137.5"/>
</g>
<!-- Node12 -->
<g id="node12" class="node">
<title>Node12</title>
<g id="a_node12"><a xlink:href="a01551.html#a41cece77d0eee98df39ecc6d3a366ec8" target="_top" xlink:title="Compress the graph to a CSR and enable the usage of several functions.">
<polygon fill="white" stroke="#666666" points="290.75,-100 180.25,-100 180.25,-68 290.75,-68 290.75,-100"/>
<text xml:space="preserve" text-anchor="start" x="188.25" y="-86.5" font-family="Helvetica,sans-Serif" font-size="10.00">HF::SpatialStructures</text>
<text xml:space="preserve" text-anchor="middle" x="235.5" y="-74.5" font-family="Helvetica,sans-Serif" font-size="10.00">::Graph::Compress</text>
</a>
</g>
</g>
<!-- Node1&#45;&gt;Node12 -->
<g id="edge13" class="edge">
<title>Node1&#45;&gt;Node12</title>
<path fill="none" stroke="#63b8ff" d="M106.95,-123.52C125.38,-117.81 148.79,-110.56 170.51,-103.83"/>
<polygon fill="#63b8ff" stroke="#63b8ff" points="171.38,-107.22 179.89,-100.92 169.31,-100.54 171.38,-107.22"/>
</g>
<!-- Node4 -->
<g id="node4" class="node">
<title>Node4</title>
<g id="a_node4"><a xlink:href="a00463.html#a73b53db067a504d36e9481dfe3326b60" target="_top" xlink:title="Cast an input value to real_t using static cast.">
<polygon fill="white" stroke="#666666" points="571.75,-172 467.25,-172 467.25,-140 571.75,-140 571.75,-172"/>
<text xml:space="preserve" text-anchor="start" x="475.25" y="-158.5" font-family="Helvetica,sans-Serif" font-size="10.00">HF::GraphGenerator</text>
<text xml:space="preserve" text-anchor="middle" x="519.5" y="-146.5" font-family="Helvetica,sans-Serif" font-size="10.00">::CastToReal</text>
</a>
</g>
</g>
<!-- Node3&#45;&gt;Node4 -->
<g id="edge3" class="edge">
<title>Node3&#45;&gt;Node4</title>
<path fill="none" stroke="#63b8ff" d="M286.59,-150.46C299.53,-153.99 313.54,-157.2 326.75,-159 369.5,-164.81 418.11,-163.97 455.69,-161.72"/>
<polygon fill="#63b8ff" stroke="#63b8ff" points="455.72,-165.23 465.47,-161.08 455.26,-158.24 455.72,-165.23"/>
</g>
<!-- Node5 -->
<g id="node5" class="node">
<title>Node5</title>
<g id="a_node5"><a xlink:href="a00463.html#a58892abe1152c28d26d3ca749c99ea4d" target="_top" xlink:title="Cast an array of 3 values to the graph_generator&#39;s real_3 type.">
<polygon fill="white" stroke="#666666" points="431.25,-150 326.75,-150 326.75,-118 431.25,-118 431.25,-150"/>
<text xml:space="preserve" text-anchor="start" x="334.75" y="-136.5" font-family="Helvetica,sans-Serif" font-size="10.00">HF::GraphGenerator</text>
<text xml:space="preserve" text-anchor="middle" x="379" y="-124.5" font-family="Helvetica,sans-Serif" font-size="10.00">::CastToReal3</text>
</a>
</g>
</g>
<!-- Node3&#45;&gt;Node5 -->
<g id="edge4" class="edge">
<title>Node3&#45;&gt;Node5</title>
<path fill="none" stroke="#63b8ff" d="M287.99,-134C296.76,-134 305.97,-134 315.01,-134"/>
<polygon fill="#63b8ff" stroke="#63b8ff" points="314.8,-137.5 324.8,-134 314.8,-130.5 314.8,-137.5"/>
</g>
<!-- Node6 -->
<g id="node6" class="node">
<title>Node6</title>
<g id="a_node6"><a xlink:href="a00463.html#a260a25e02193ce904849ee090daefa2e" target="_top" xlink:title="Determine what kind of step (if any) is between parent and child, given that a connection was verifie...">
<polygon fill="white" stroke="#666666" points="431.25,-100 326.75,-100 326.75,-68 431.25,-68 431.25,-100"/>
<text xml:space="preserve" text-anchor="start" x="334.75" y="-86.5" font-family="Helvetica,sans-Serif" font-size="10.00">HF::GraphGenerator</text>
<text xml:space="preserve" text-anchor="middle" x="379" y="-74.5" font-family="Helvetica,sans-Serif" font-size="10.00">::CheckConnection</text>
</a>
</g>
</g>
<!-- Node3&#45;&gt;Node6 -->
<g id="edge6" class="edge">
<title>Node3&#45;&gt;Node6</title>
<path fill="none" stroke="#63b8ff" d="M282.83,-117.63C295.05,-113.31 308.37,-108.6 321.08,-104.11"/>
<polygon fill="#63b8ff" stroke="#63b8ff" points="321.87,-107.54 330.14,-100.91 319.54,-100.94 321.87,-107.54"/>
</g>
<!-- Node5&#45;&gt;Node4 -->
<g id="edge5" class="edge">
<title>Node5&#45;&gt;Node4</title>
<path fill="none" stroke="#63b8ff" d="M431.57,-142.19C439.41,-143.44 447.58,-144.73 455.63,-146.01"/>
<polygon fill="#63b8ff" stroke="#63b8ff" points="454.96,-149.45 465.39,-147.56 456.06,-142.54 454.96,-149.45"/>
</g>
<!-- Node7 -->
<g id="node7" class="node">
<title>Node7</title>
<g id="a_node7"><a xlink:href="a00463.html#ace66c1b60785c32433402f012019ab81" target="_top" xlink:title="Determine if there is a valid line of sight between parent and child.">
<polygon fill="white" stroke="#666666" points="571.75,-100 467.25,-100 467.25,-68 571.75,-68 571.75,-100"/>
<text xml:space="preserve" text-anchor="start" x="475.25" y="-86.5" font-family="Helvetica,sans-Serif" font-size="10.00">HF::GraphGenerator</text>
<text xml:space="preserve" text-anchor="middle" x="519.5" y="-74.5" font-family="Helvetica,sans-Serif" font-size="10.00">::OcclusionCheck</text>
</a>
</g>
</g>
<!-- Node6&#45;&gt;Node7 -->
<g id="edge7" class="edge">
<title>Node6&#45;&gt;Node7</title>
<path fill="none" stroke="#63b8ff" d="M431.57,-84C439.41,-84 447.58,-84 455.63,-84"/>
<polygon fill="#63b8ff" stroke="#63b8ff" points="455.37,-87.5 465.37,-84 455.37,-80.5 455.37,-87.5"/>
</g>
<!-- Node8 -->
<g id="node8" class="node">
<title>Node8</title>
<g id="a_node8"><a xlink:href="a00463.html#a750afc15c798c79a8b6a0784ed092f3c" target="_top" xlink:title="Calculate the normalized direction from one node to another.">
<polygon fill="white" stroke="#666666" points="720.5,-150 616,-150 616,-118 720.5,-118 720.5,-150"/>
<text xml:space="preserve" text-anchor="start" x="624" y="-136.5" font-family="Helvetica,sans-Serif" font-size="10.00">HF::GraphGenerator</text>
<text xml:space="preserve" text-anchor="middle" x="668.25" y="-124.5" font-family="Helvetica,sans-Serif" font-size="10.00">::DirectionTo</text>
</a>
</g>
</g>
<!-- Node7&#45;&gt;Node8 -->
<g id="edge8" class="edge">
<title>Node7&#45;&gt;Node8</title>
<path fill="none" stroke="#63b8ff" d="M568.55,-100.37C581.16,-104.67 594.9,-109.35 608.01,-113.82"/>
<polygon fill="#63b8ff" stroke="#63b8ff" points="606.81,-117.11 617.41,-117.02 609.07,-110.48 606.81,-117.11"/>
</g>
<!-- Node10 -->
<g id="node10" class="node">
<title>Node10</title>
<g id="a_node10"><a xlink:href="a00463.html#a7f96186b8f24f878404d1feccf2f64db" target="_top" xlink:title="Calculate the distance between two nodes.">
<polygon fill="white" stroke="#666666" points="720.5,-100 616,-100 616,-68 720.5,-68 720.5,-100"/>
<text xml:space="preserve" text-anchor="start" x="624" y="-86.5" font-family="Helvetica,sans-Serif" font-size="10.00">HF::GraphGenerator</text>
<text xml:space="preserve" text-anchor="middle" x="668.25" y="-74.5" font-family="Helvetica,sans-Serif" font-size="10.00">::DistanceTo</text>
</a>
</g>
</g>
<!-- Node7&#45;&gt;Node10 -->
<g id="edge10" class="edge">
<title>Node7&#45;&gt;Node10</title>
<path fill="none" stroke="#63b8ff" d="M572.24,-84C582.66,-84 593.72,-84 604.48,-84"/>
<polygon fill="#63b8ff" stroke="#63b8ff" points="604.47,-87.5 614.47,-84 604.47,-80.5 604.47,-87.5"/>
</g>
<!-- Node11 -->
<g id="node11" class="node">
<title>Node11</title>
<g id="a_node11"><a xlink:href="a01419.html#a22ebf97e859ef651e81deb40b74f668f" target="_top" xlink:title=" ">
<polygon fill="white" stroke="#666666" points="728.75,-32 607.75,-32 607.75,0 728.75,0 728.75,-32"/>
<text xml:space="preserve" text-anchor="start" x="615.75" y="-18.5" font-family="Helvetica,sans-Serif" font-size="10.00">HF::RayTracer::MultiRT</text>
<text xml:space="preserve" text-anchor="middle" x="668.25" y="-6.5" font-family="Helvetica,sans-Serif" font-size="10.00">::Occluded</text>
</a>
</g>
</g>
<!-- Node7&#45;&gt;Node11 -->
<g id="edge11" class="edge">
<title>Node7&#45;&gt;Node11</title>
<path fill="none" stroke="#63b8ff" d="M556.02,-67.54C575.69,-58.43 600.35,-47 621.45,-37.22"/>
<polygon fill="#63b8ff" stroke="#63b8ff" points="622.82,-40.44 630.43,-33.06 619.88,-34.09 622.82,-40.44"/>
</g>
<!-- Node9 -->
<g id="node9" class="node">
<title>Node9</title>
<g id="a_node9"><a xlink:href="a00463.html#ad2e09e0825a1db4fc511907179eddf00" target="_top" xlink:title="Normalize a vector.">
<polygon fill="white" stroke="#666666" points="869.25,-150 764.75,-150 764.75,-118 869.25,-118 869.25,-150"/>
<text xml:space="preserve" text-anchor="start" x="772.75" y="-136.5" font-family="Helvetica,sans-Serif" font-size="10.00">HF::GraphGenerator</text>
<text xml:space="preserve" text-anchor="middle" x="817" y="-124.5" font-family="Helvetica,sans-Serif" font-size="10.00">::Normalize</text>
</a>
</g>
</g>
<!-- Node8&#45;&gt;Node9 -->
<g id="edge9" class="edge">
<title>Node8&#45;&gt;Node9</title>
<path fill="none" stroke="#63b8ff" d="M720.99,-134C731.41,-134 742.47,-134 753.23,-134"/>
<polygon fill="#63b8ff" stroke="#63b8ff" points="753.22,-137.5 763.22,-134 753.22,-130.5 753.22,-137.5"/>
</g>
<!-- Node11&#45;&gt;Node11 -->
<g id="edge12" class="edge">
<title>Node11&#45;&gt;Node11</title>
<path fill="none" stroke="#63b8ff" d="M641.69,-32.44C636.74,-41.58 645.59,-50 668.25,-50 680.64,-50 688.91,-47.48 693.04,-43.71"/>
<polygon fill="#63b8ff" stroke="#63b8ff" points="696.48,-44.36 694.57,-33.94 689.56,-43.27 696.48,-44.36"/>
</g>
</g>
</svg>
