<?xml version="1.0" encoding="UTF-8" standalone="no"?>
<!DOCTYPE svg PUBLIC "-//W3C//DTD SVG 1.1//EN"
 "http://www.w3.org/Graphics/SVG/1.1/DTD/svg11.dtd">
<!-- Generated by graphviz version 13.1.2 (20250808.2320)
 -->
<!-- Title: HF::Geometry::MakeMaterials Pages: 1 -->
<svg width="518pt" height="40pt"
 viewBox="0.00 0.00 518.00 40.00" xmlns="http://www.w3.org/2000/svg" xmlns:xlink="http://www.w3.org/1999/xlink">
<g id="graph0" class="graph" transform="scale(1 1) rotate(0) translate(4 36)">
<title>HF::Geometry::MakeMaterials</title>
<!-- Node1 -->
<g id="node1" class="node">
<title>Node1</title>
<g id="a_node1"><a xlink:title=" ">
<polygon fill="#999999" stroke="#666666" points="510,-26 362,-26 362,-6 510,-6 510,-26"/>
<text xml:space="preserve" text-anchor="middle" x="436" y="-12.5" font-family="Helvetica,sans-Serif" font-size="10.00">HF::Geometry::MakeMaterials</text>
</a>
</g>
</g>
<!-- Node2 -->
<g id="node2" class="node">
<title>Node2</title>
<g id="a_node2"><a xlink:href="a00469.html#a9bbdc23c626ed431d5a084722c22f99f" target="_top" xlink:title=" ">
<polygon fill="white" stroke="#666666" points="326,-32 186.25,-32 186.25,0 326,0 326,-32"/>
<text xml:space="preserve" text-anchor="start" x="194.25" y="-18.5" font-family="Helvetica,sans-Serif" font-size="10.00">HF::Geometry::LoadMeshes</text>
<text xml:space="preserve" text-anchor="middle" x="256.12" y="-6.5" font-family="Helvetica,sans-Serif" font-size="10.00">FromTinyOBJ</text>
</a>
</g>
</g>
<!-- Node1&#45;&gt;Node2 -->
<g id="edge1" class="edge">
<title>Node1&#45;&gt;Node2</title>
<path fill="none" stroke="#63b8ff" d="M350.32,-16C342.28,-16 334.2,-16 326.33,-16"/>
<polygon fill="#63b8ff" stroke="#63b8ff" points="350.11,-19.5 360.11,-16 350.11,-12.5 350.11,-19.5"/>
</g>
<!-- Node3 -->
<g id="node3" class="node">
<title>Node3</title>
<g id="a_node3"><a xlink:href="a00469.html#a945c4699b13a7c924fd6532ae66963ca" target="_top" xlink:title=" ">
<polygon fill="white" stroke="#666666" points="150.25,-32 0,-32 0,0 150.25,0 150.25,-32"/>
<text xml:space="preserve" text-anchor="start" x="8" y="-18.5" font-family="Helvetica,sans-Serif" font-size="10.00">HF::Geometry::LoadTMPMesh</text>
<text xml:space="preserve" text-anchor="middle" x="75.12" y="-6.5" font-family="Helvetica,sans-Serif" font-size="10.00">Objects</text>
</a>
</g>
</g>
<!-- Node2&#45;&gt;Node3 -->
<g id="edge2" class="edge">
<title>Node2&#45;&gt;Node3</title>
<path fill="none" stroke="#63b8ff" d="M174.64,-16C166.6,-16 158.46,-16 150.49,-16"/>
<polygon fill="#63b8ff" stroke="#63b8ff" points="174.41,-19.5 184.41,-16 174.41,-12.5 174.41,-19.5"/>
</g>
</g>
</svg>
