<?xml version="1.0" encoding="UTF-8" standalone="no"?>
<!DOCTYPE svg PUBLIC "-//W3C//DTD SVG 1.1//EN"
 "http://www.w3.org/Graphics/SVG/1.1/DTD/svg11.dtd">
<!-- Generated by graphviz version 13.1.2 (20250808.2320)
 -->
<!-- Title: CreatePaths Pages: 1 -->
<svg width="593pt" height="181pt"
 viewBox="0.00 0.00 593.00 181.00" xmlns="http://www.w3.org/2000/svg" xmlns:xlink="http://www.w3.org/1999/xlink">
<g id="graph0" class="graph" transform="scale(1 1) rotate(0) translate(4 177)">
<title>CreatePaths</title>
<!-- Node1 -->
<g id="node1" class="node">
<title>Node1</title>
<g id="a_node1"><a xlink:title="Find multiple shortest paths in paralllel.">
<polygon fill="#999999" stroke="#666666" points="70.75,-117 0,-117 0,-97 70.75,-97 70.75,-117"/>
<text xml:space="preserve" text-anchor="middle" x="35.38" y="-103.5" font-family="Helvetica,sans-Serif" font-size="10.00">CreatePaths</text>
</a>
</g>
</g>
<!-- Node2 -->
<g id="node2" class="node">
<title>Node2</title>
<g id="a_node2"><a xlink:href="a00472.html#ae2106e09eb44d681fbc6c0f66a3d3ac4" target="_top" xlink:title="Create a new boost graph from a HF::SpatialStructures:Graph.">
<polygon fill="white" stroke="#666666" points="251.75,-148 106.75,-148 106.75,-116 251.75,-116 251.75,-148"/>
<text xml:space="preserve" text-anchor="start" x="114.75" y="-134.5" font-family="Helvetica,sans-Serif" font-size="10.00">HF::Pathfinding::CreateBoost</text>
<text xml:space="preserve" text-anchor="middle" x="179.25" y="-122.5" font-family="Helvetica,sans-Serif" font-size="10.00">Graph</text>
</a>
</g>
</g>
<!-- Node1&#45;&gt;Node2 -->
<g id="edge1" class="edge">
<title>Node1&#45;&gt;Node2</title>
<path fill="none" stroke="#63b8ff" d="M71.08,-113.12C78.55,-114.43 86.76,-115.88 95.2,-117.37"/>
<polygon fill="#63b8ff" stroke="#63b8ff" points="94.44,-120.79 104.9,-119.07 95.66,-113.89 94.44,-120.79"/>
</g>
<!-- Node3 -->
<g id="node3" class="node">
<title>Node3</title>
<g id="a_node3"><a xlink:href="a00472.html#a417084c97d0672af2da7739157a9d8c0" target="_top" xlink:title="A special version of FindPaths optimized for the C_Interface.">
<polygon fill="white" stroke="#666666" points="249.5,-98 109,-98 109,-66 249.5,-66 249.5,-98"/>
<text xml:space="preserve" text-anchor="start" x="117" y="-84.5" font-family="Helvetica,sans-Serif" font-size="10.00">HF::Pathfinding::InsertPaths</text>
<text xml:space="preserve" text-anchor="middle" x="179.25" y="-72.5" font-family="Helvetica,sans-Serif" font-size="10.00">IntoArray</text>
</a>
</g>
</g>
<!-- Node1&#45;&gt;Node3 -->
<g id="edge2" class="edge">
<title>Node1&#45;&gt;Node3</title>
<path fill="none" stroke="#63b8ff" d="M71.08,-100.88C79.19,-99.46 88.16,-97.88 97.36,-96.25"/>
<polygon fill="#63b8ff" stroke="#63b8ff" points="97.91,-99.71 107.15,-94.53 96.7,-92.82 97.91,-99.71"/>
</g>
<!-- Node4 -->
<g id="node4" class="node">
<title>Node4</title>
<g id="a_node4"><a xlink:href="a00472.html#a9f6490539108da057db2486295458886" target="_top" xlink:title="Build a row of the distance and predecessor matrices for the node at id.">
<polygon fill="white" stroke="#666666" points="438.75,-170 287.75,-170 287.75,-138 438.75,-138 438.75,-170"/>
<text xml:space="preserve" text-anchor="start" x="295.75" y="-156.5" font-family="Helvetica,sans-Serif" font-size="10.00">HF::Pathfinding::BuildDistance</text>
<text xml:space="preserve" text-anchor="middle" x="363.25" y="-144.5" font-family="Helvetica,sans-Serif" font-size="10.00">AndPredecessor</text>
</a>
</g>
</g>
<!-- Node3&#45;&gt;Node4 -->
<g id="edge3" class="edge">
<title>Node3&#45;&gt;Node4</title>
<path fill="none" stroke="#63b8ff" d="M231.56,-98.45C238.44,-101.09 245.33,-103.96 251.75,-107 268.7,-115.03 270.75,-121.08 287.75,-129 291.03,-130.53 294.42,-132.01 297.88,-133.43"/>
<polygon fill="#63b8ff" stroke="#63b8ff" points="296.37,-136.6 306.96,-136.98 298.92,-130.08 296.37,-136.6"/>
</g>
<!-- Node5 -->
<g id="node5" class="node">
<title>Node5</title>
<g id="a_node5"><a xlink:href="a00472.html#a977e4c93a977ab4e9e784d1e6fec79f4" target="_top" xlink:title="Construct the shortest path from start to end using the given predecessor and distance vectors.">
<polygon fill="white" stroke="#666666" points="429.75,-120 296.75,-120 296.75,-88 429.75,-88 429.75,-120"/>
<text xml:space="preserve" text-anchor="start" x="304.75" y="-106.5" font-family="Helvetica,sans-Serif" font-size="10.00">HF::Pathfinding::Construct</text>
<text xml:space="preserve" text-anchor="middle" x="363.25" y="-94.5" font-family="Helvetica,sans-Serif" font-size="10.00">ShortestPathFromPred</text>
</a>
</g>
</g>
<!-- Node3&#45;&gt;Node5 -->
<g id="edge4" class="edge">
<title>Node3&#45;&gt;Node5</title>
<path fill="none" stroke="#63b8ff" d="M249.84,-90.41C261.39,-91.81 273.44,-93.27 285.17,-94.68"/>
<polygon fill="#63b8ff" stroke="#63b8ff" points="284.45,-98.12 294.8,-95.85 285.29,-91.17 284.45,-98.12"/>
</g>
<!-- Node8 -->
<g id="node8" class="node">
<title>Node8</title>
<g id="a_node8"><a xlink:href="a02083.html#a28f61f0f57b38a5249a11a725d9d692b" target="_top" xlink:title="Determine how many nodes are in this path.">
<polygon fill="white" stroke="#666666" points="585.25,-73 474.75,-73 474.75,-41 585.25,-41 585.25,-73"/>
<text xml:space="preserve" text-anchor="start" x="482.75" y="-59.5" font-family="Helvetica,sans-Serif" font-size="10.00">HF::SpatialStructures</text>
<text xml:space="preserve" text-anchor="middle" x="530" y="-47.5" font-family="Helvetica,sans-Serif" font-size="10.00">::Path::size</text>
</a>
</g>
</g>
<!-- Node3&#45;&gt;Node8 -->
<g id="edge9" class="edge">
<title>Node3&#45;&gt;Node8</title>
<path fill="none" stroke="#63b8ff" d="M249.99,-77C311.98,-72.56 401.99,-66.1 462.87,-61.74"/>
<polygon fill="#63b8ff" stroke="#63b8ff" points="463.03,-65.24 472.75,-61.03 462.53,-58.26 463.03,-65.24"/>
</g>
<!-- Node9 -->
<g id="node9" class="node">
<title>Node9</title>
<g id="a_node9"><a xlink:href="a02083.html#a942cb49007bbeb5588e2d526c68bdcf9" target="_top" xlink:title="Get a pointer to the path&#39;s underlying path members vector.">
<polygon fill="white" stroke="#666666" points="418.5,-32 308,-32 308,0 418.5,0 418.5,-32"/>
<text xml:space="preserve" text-anchor="start" x="316" y="-18.5" font-family="Helvetica,sans-Serif" font-size="10.00">HF::SpatialStructures</text>
<text xml:space="preserve" text-anchor="middle" x="363.25" y="-6.5" font-family="Helvetica,sans-Serif" font-size="10.00">::Path::GetPMPointer</text>
</a>
</g>
</g>
<!-- Node3&#45;&gt;Node9 -->
<g id="edge8" class="edge">
<title>Node3&#45;&gt;Node9</title>
<path fill="none" stroke="#63b8ff" d="M225.71,-65.52C250.12,-56.66 280.43,-45.67 306.28,-36.3"/>
<polygon fill="#63b8ff" stroke="#63b8ff" points="307.43,-39.6 315.63,-32.9 305.04,-33.02 307.43,-39.6"/>
</g>
<!-- Node6 -->
<g id="node6" class="node">
<title>Node6</title>
<g id="a_node6"><a xlink:href="a02083.html#a55ded4e02787eb739770ebe28ef386a9" target="_top" xlink:title="Add a new node to the path.">
<polygon fill="white" stroke="#666666" points="585.25,-173 474.75,-173 474.75,-141 585.25,-141 585.25,-173"/>
<text xml:space="preserve" text-anchor="start" x="482.75" y="-159.5" font-family="Helvetica,sans-Serif" font-size="10.00">HF::SpatialStructures</text>
<text xml:space="preserve" text-anchor="middle" x="530" y="-147.5" font-family="Helvetica,sans-Serif" font-size="10.00">::Path::AddNode</text>
</a>
</g>
</g>
<!-- Node5&#45;&gt;Node6 -->
<g id="edge5" class="edge">
<title>Node5&#45;&gt;Node6</title>
<path fill="none" stroke="#63b8ff" d="M415.47,-120.48C431.75,-125.71 449.92,-131.56 466.87,-137.01"/>
<polygon fill="#63b8ff" stroke="#63b8ff" points="465.77,-140.34 476.37,-140.07 467.92,-133.67 465.77,-140.34"/>
</g>
<!-- Node7 -->
<g id="node7" class="node">
<title>Node7</title>
<g id="a_node7"><a xlink:href="a02083.html#adf2bad9ac73dbdc436c365654d54ad98" target="_top" xlink:title="Reverse the direction of this path.">
<polygon fill="white" stroke="#666666" points="585.25,-123 474.75,-123 474.75,-91 585.25,-91 585.25,-123"/>
<text xml:space="preserve" text-anchor="start" x="482.75" y="-109.5" font-family="Helvetica,sans-Serif" font-size="10.00">HF::SpatialStructures</text>
<text xml:space="preserve" text-anchor="middle" x="530" y="-97.5" font-family="Helvetica,sans-Serif" font-size="10.00">::Path::Reverse</text>
</a>
</g>
</g>
<!-- Node5&#45;&gt;Node7 -->
<g id="edge6" class="edge">
<title>Node5&#45;&gt;Node7</title>
<path fill="none" stroke="#63b8ff" d="M429.84,-105.19C440.83,-105.39 452.23,-105.6 463.22,-105.8"/>
<polygon fill="#63b8ff" stroke="#63b8ff" points="462.92,-109.3 472.98,-105.98 463.05,-102.3 462.92,-109.3"/>
</g>
<!-- Node5&#45;&gt;Node8 -->
<g id="edge7" class="edge">
<title>Node5&#45;&gt;Node8</title>
<path fill="none" stroke="#63b8ff" d="M421.87,-87.56C435.34,-83.72 449.79,-79.6 463.57,-75.66"/>
<polygon fill="#63b8ff" stroke="#63b8ff" points="464.34,-79.08 473,-72.98 462.42,-72.35 464.34,-79.08"/>
</g>
</g>
</svg>
