<?xml version="1.0" encoding="UTF-8" standalone="no"?>
<!DOCTYPE svg PUBLIC "-//W3C//DTD SVG 1.1//EN"
 "http://www.w3.org/Graphics/SVG/1.1/DTD/svg11.dtd">
<!-- Generated by graphviz version 13.1.2 (20250808.2320)
 -->
<!-- Title: nanort::FindCutFromBinBuffer Pages: 1 -->
<svg width="334pt" height="66pt"
 viewBox="0.00 0.00 334.00 66.00" xmlns="http://www.w3.org/2000/svg" xmlns:xlink="http://www.w3.org/1999/xlink">
<g id="graph0" class="graph" transform="scale(1 1) rotate(0) translate(4 62)">
<title>nanort::FindCutFromBinBuffer</title>
<!-- Node1 -->
<g id="node1" class="node">
<title>Node1</title>
<g id="a_node1"><a xlink:title=" ">
<polygon fill="#999999" stroke="#666666" points="145.75,-39 0,-39 0,-19 145.75,-19 145.75,-39"/>
<text xml:space="preserve" text-anchor="middle" x="72.88" y="-25.5" font-family="Helvetica,sans-Serif" font-size="10.00">nanort::FindCutFromBinBuffer</text>
</a>
</g>
</g>
<!-- Node2 -->
<g id="node2" class="node">
<title>Node2</title>
<g id="a_node2"><a xlink:href="a00474.html#a1f672faac125854c89c907614545fe60" target="_top" xlink:title=" ">
<polygon fill="white" stroke="#666666" points="326,-58 181.75,-58 181.75,-38 326,-38 326,-58"/>
<text xml:space="preserve" text-anchor="middle" x="253.88" y="-44.5" font-family="Helvetica,sans-Serif" font-size="10.00">nanort::CalculateSurfaceArea</text>
</a>
</g>
</g>
<!-- Node1&#45;&gt;Node2 -->
<g id="edge1" class="edge">
<title>Node1&#45;&gt;Node2</title>
<path fill="none" stroke="#63b8ff" d="M146.17,-36.67C154.08,-37.51 162.18,-38.37 170.21,-39.23"/>
<polygon fill="#63b8ff" stroke="#63b8ff" points="169.66,-42.69 179.97,-40.26 170.4,-35.73 169.66,-42.69"/>
</g>
<!-- Node3 -->
<g id="node3" class="node">
<title>Node3</title>
<g id="a_node3"><a xlink:href="a00474.html#a2224f7a101ce863a9332f059dfef9dd1" target="_top" xlink:title=" ">
<polygon fill="white" stroke="#666666" points="288.88,-20 218.88,-20 218.88,0 288.88,0 288.88,-20"/>
<text xml:space="preserve" text-anchor="middle" x="253.88" y="-6.5" font-family="Helvetica,sans-Serif" font-size="10.00">nanort::SAH</text>
</a>
</g>
</g>
<!-- Node1&#45;&gt;Node3 -->
<g id="edge2" class="edge">
<title>Node1&#45;&gt;Node3</title>
<path fill="none" stroke="#63b8ff" d="M146.17,-21.33C166.8,-19.14 188.7,-16.81 207.26,-14.84"/>
<polygon fill="#63b8ff" stroke="#63b8ff" points="207.55,-18.33 217.12,-13.79 206.81,-11.37 207.55,-18.33"/>
</g>
</g>
</svg>
