<?xml version="1.0" encoding="UTF-8" standalone="no"?>
<!DOCTYPE svg PUBLIC "-//W3C//DTD SVG 1.1//EN"
 "http://www.w3.org/Graphics/SVG/1.1/DTD/svg11.dtd">
<!-- Generated by graphviz version 13.1.2 (20250808.2320)
 -->
<!-- Title: GenerateGraphObstacles Pages: 1 -->
<svg width="1462pt" height="719pt"
 viewBox="0.00 0.00 1462.00 719.00" xmlns="http://www.w3.org/2000/svg" xmlns:xlink="http://www.w3.org/1999/xlink">
<g id="graph0" class="graph" transform="scale(1 1) rotate(0) translate(4 715)">
<title>GenerateGraphObstacles</title>
<!-- Node1 -->
<g id="node1" class="node">
<title>Node1</title>
<g id="a_node1"><a xlink:title="Construct a graph by performing a breadth&#45;first search of accessible space, seperating obstacles from...">
<polygon fill="#999999" stroke="#666666" points="126.25,-639 0,-639 0,-619 126.25,-619 126.25,-639"/>
<text xml:space="preserve" text-anchor="middle" x="63.12" y="-625.5" font-family="Helvetica,sans-Serif" font-size="10.00">GenerateGraphObstacles</text>
</a>
</g>
</g>
<!-- Node2 -->
<g id="node2" class="node">
<title>Node2</title>
<g id="a_node2"><a xlink:href="a01311.html#a0c12341433bbec41cc12cc1dbb41a976" target="_top" xlink:title="Generate a graph of accessible space.">
<polygon fill="white" stroke="#666666" points="317.75,-689 162.25,-689 162.25,-657 317.75,-657 317.75,-689"/>
<text xml:space="preserve" text-anchor="start" x="170.25" y="-675.5" font-family="Helvetica,sans-Serif" font-size="10.00">HF::GraphGenerator</text>
<text xml:space="preserve" text-anchor="middle" x="240" y="-663.5" font-family="Helvetica,sans-Serif" font-size="10.00">::GraphGenerator::BuildNetwork</text>
</a>
</g>
</g>
<!-- Node1&#45;&gt;Node2 -->
<g id="edge1" class="edge">
<title>Node1&#45;&gt;Node2</title>
<path fill="none" stroke="#63b8ff" d="M105.57,-639.43C122.62,-643.72 142.93,-648.83 162.5,-653.75"/>
<polygon fill="#63b8ff" stroke="#63b8ff" points="161.57,-657.13 172.12,-656.17 163.27,-650.34 161.57,-657.13"/>
</g>
<!-- Node35 -->
<g id="node35" class="node">
<title>Node35</title>
<g id="a_node35"><a xlink:href="a00404.html#ae57988500f66a8ab4a31a9b50ed58b02" target="_top" xlink:title=" ">
<polygon fill="white" stroke="#666666" points="276.5,-639 203.5,-639 203.5,-619 276.5,-619 276.5,-639"/>
<text xml:space="preserve" text-anchor="middle" x="240" y="-625.5" font-family="Helvetica,sans-Serif" font-size="10.00">MapToVector</text>
</a>
</g>
</g>
<!-- Node1&#45;&gt;Node35 -->
<g id="edge51" class="edge">
<title>Node1&#45;&gt;Node35</title>
<path fill="none" stroke="#63b8ff" d="M126.27,-629C147.77,-629 171.51,-629 191.63,-629"/>
<polygon fill="#63b8ff" stroke="#63b8ff" points="191.5,-632.5 201.5,-629 191.5,-625.5 191.5,-632.5"/>
</g>
<!-- Node36 -->
<g id="node36" class="node">
<title>Node36</title>
<g id="a_node36"><a xlink:href="a01551.html#aa70347b8a33b57c6f0a72d6eca4248d7" target="_top" xlink:title="Get a list of nodes from the graph sorted by ID.">
<polygon fill="white" stroke="#666666" points="295.25,-601 184.75,-601 184.75,-569 295.25,-569 295.25,-601"/>
<text xml:space="preserve" text-anchor="start" x="192.75" y="-587.5" font-family="Helvetica,sans-Serif" font-size="10.00">HF::SpatialStructures</text>
<text xml:space="preserve" text-anchor="middle" x="240" y="-575.5" font-family="Helvetica,sans-Serif" font-size="10.00">::Graph::Nodes</text>
</a>
</g>
</g>
<!-- Node1&#45;&gt;Node36 -->
<g id="edge52" class="edge">
<title>Node1&#45;&gt;Node36</title>
<path fill="none" stroke="#63b8ff" d="M105.57,-618.57C125.79,-613.48 150.61,-607.24 173.33,-601.52"/>
<polygon fill="#63b8ff" stroke="#63b8ff" points="173.97,-604.97 182.81,-599.14 172.26,-598.18 173.97,-604.97"/>
</g>
<!-- Node3 -->
<g id="node3" class="node">
<title>Node3</title>
<g id="a_node3"><a xlink:href="a00463.html#a73b53db067a504d36e9481dfe3326b60" target="_top" xlink:title="Cast an input value to real_t using static cast.">
<polygon fill="white" stroke="#666666" points="973.12,-711 868.62,-711 868.62,-679 973.12,-679 973.12,-711"/>
<text xml:space="preserve" text-anchor="start" x="876.62" y="-697.5" font-family="Helvetica,sans-Serif" font-size="10.00">HF::GraphGenerator</text>
<text xml:space="preserve" text-anchor="middle" x="920.88" y="-685.5" font-family="Helvetica,sans-Serif" font-size="10.00">::CastToReal</text>
</a>
</g>
</g>
<!-- Node2&#45;&gt;Node3 -->
<g id="edge2" class="edge">
<title>Node2&#45;&gt;Node3</title>
<path fill="none" stroke="#63b8ff" d="M318.24,-683.54C330.11,-684.88 342.25,-686.1 353.75,-687 565.16,-703.5 618.72,-701.57 830.75,-698 839.25,-697.86 848.21,-697.64 857.04,-697.38"/>
<polygon fill="#63b8ff" stroke="#63b8ff" points="857.11,-700.88 867,-697.07 856.9,-693.88 857.11,-700.88"/>
</g>
<!-- Node4 -->
<g id="node4" class="node">
<title>Node4</title>
<g id="a_node4"><a xlink:href="a00463.html#a58892abe1152c28d26d3ca749c99ea4d" target="_top" xlink:title="Cast an array of 3 values to the graph_generator&#39;s real_3 type.">
<polygon fill="white" stroke="#666666" points="815,-689 710.5,-689 710.5,-657 815,-657 815,-689"/>
<text xml:space="preserve" text-anchor="start" x="718.5" y="-675.5" font-family="Helvetica,sans-Serif" font-size="10.00">HF::GraphGenerator</text>
<text xml:space="preserve" text-anchor="middle" x="762.75" y="-663.5" font-family="Helvetica,sans-Serif" font-size="10.00">::CastToReal3</text>
</a>
</g>
</g>
<!-- Node2&#45;&gt;Node4 -->
<g id="edge3" class="edge">
<title>Node2&#45;&gt;Node4</title>
<path fill="none" stroke="#63b8ff" d="M318.12,-673C421.53,-673 603.18,-673 698.8,-673"/>
<polygon fill="#63b8ff" stroke="#63b8ff" points="698.8,-676.5 708.8,-673 698.8,-669.5 698.8,-676.5"/>
</g>
<!-- Node5 -->
<g id="node5" class="node">
<title>Node5</title>
<g id="a_node5"><a xlink:href="a01311.html#a5788e421d921ec0ff27defc139c45106" target="_top" xlink:title="Generate a graph of accessible space.">
<polygon fill="white" stroke="#666666" points="474,-404 353.75,-404 353.75,-360 474,-360 474,-404"/>
<text xml:space="preserve" text-anchor="start" x="361.75" y="-390.5" font-family="Helvetica,sans-Serif" font-size="10.00">HF::GraphGenerator</text>
<text xml:space="preserve" text-anchor="start" x="361.75" y="-378.5" font-family="Helvetica,sans-Serif" font-size="10.00">::GraphGenerator::IMPL</text>
<text xml:space="preserve" text-anchor="middle" x="413.88" y="-366.5" font-family="Helvetica,sans-Serif" font-size="10.00">_BuildNetwork</text>
</a>
</g>
</g>
<!-- Node2&#45;&gt;Node5 -->
<g id="edge5" class="edge">
<title>Node2&#45;&gt;Node5</title>
<path fill="none" stroke="#63b8ff" d="M306.34,-656.7C310.47,-654.2 314.33,-651.32 317.75,-648 383.45,-584.15 403.92,-471.86 410.18,-415.81"/>
<polygon fill="#63b8ff" stroke="#63b8ff" points="413.66,-416.23 411.19,-405.93 406.69,-415.52 413.66,-416.23"/>
</g>
<!-- Node4&#45;&gt;Node3 -->
<g id="edge4" class="edge">
<title>Node4&#45;&gt;Node3</title>
<path fill="none" stroke="#63b8ff" d="M815.3,-680.26C828.76,-682.16 843.41,-684.22 857.37,-686.19"/>
<polygon fill="#63b8ff" stroke="#63b8ff" points="856.49,-689.6 866.88,-687.53 857.46,-682.67 856.49,-689.6"/>
</g>
<!-- Node6 -->
<g id="node6" class="node">
<title>Node6</title>
<g id="a_node6"><a xlink:href="a01311.html#ac7052d4b625fb96f29c5bfc091a86f7e" target="_top" xlink:title="Perform breadth first search to populate the graph with with nodes and edges.">
<polygon fill="white" stroke="#666666" points="658.75,-373 510,-373 510,-341 658.75,-341 658.75,-373"/>
<text xml:space="preserve" text-anchor="start" x="518" y="-359.5" font-family="Helvetica,sans-Serif" font-size="10.00">HF::GraphGenerator</text>
<text xml:space="preserve" text-anchor="middle" x="584.38" y="-347.5" font-family="Helvetica,sans-Serif" font-size="10.00">::GraphGenerator::CrawlGeom</text>
</a>
</g>
</g>
<!-- Node5&#45;&gt;Node6 -->
<g id="edge6" class="edge">
<title>Node5&#45;&gt;Node6</title>
<path fill="none" stroke="#63b8ff" d="M474.28,-373.19C482.16,-372.02 490.36,-370.8 498.57,-369.58"/>
<polygon fill="#63b8ff" stroke="#63b8ff" points="498.86,-373.08 508.24,-368.15 497.84,-366.15 498.86,-373.08"/>
</g>
<!-- Node29 -->
<g id="node29" class="node">
<title>Node29</title>
<g id="a_node29"><a xlink:href="a01315.html#a35a8d70ffef5833ae214feaa89aaf220" target="_top" xlink:title="Call push with any type of object.">
<polygon fill="white" stroke="#666666" points="826.25,-225 699.25,-225 699.25,-193 826.25,-193 826.25,-225"/>
<text xml:space="preserve" text-anchor="start" x="707.25" y="-211.5" font-family="Helvetica,sans-Serif" font-size="10.00">HF::GraphGenerator</text>
<text xml:space="preserve" text-anchor="middle" x="762.75" y="-199.5" font-family="Helvetica,sans-Serif" font-size="10.00">::UniqueQueue::PushAny</text>
</a>
</g>
</g>
<!-- Node5&#45;&gt;Node29 -->
<g id="edge47" class="edge">
<title>Node5&#45;&gt;Node29</title>
<path fill="none" stroke="#63b8ff" d="M453.48,-359.54C506.74,-329.02 606.24,-273.72 694.75,-234 698.03,-232.53 701.44,-231.07 704.88,-229.63"/>
<polygon fill="#63b8ff" stroke="#63b8ff" points="705.93,-232.99 713.9,-226.01 703.31,-226.49 705.93,-232.99"/>
</g>
<!-- Node31 -->
<g id="node31" class="node">
<title>Node31</title>
<g id="a_node31"><a xlink:href="a01311.html#a843cc6b5b69b5d013930b3685789fa15" target="_top" xlink:title="Perform breadth first search to populate the graph with nodes and edges using multiple cores.">
<polygon fill="white" stroke="#666666" points="658.75,-494 510,-494 510,-450 658.75,-450 658.75,-494"/>
<text xml:space="preserve" text-anchor="start" x="518" y="-480.5" font-family="Helvetica,sans-Serif" font-size="10.00">HF::GraphGenerator</text>
<text xml:space="preserve" text-anchor="start" x="518" y="-468.5" font-family="Helvetica,sans-Serif" font-size="10.00">::GraphGenerator::CrawlGeom</text>
<text xml:space="preserve" text-anchor="middle" x="584.38" y="-456.5" font-family="Helvetica,sans-Serif" font-size="10.00">Parallel</text>
</a>
</g>
</g>
<!-- Node5&#45;&gt;Node31 -->
<g id="edge35" class="edge">
<title>Node5&#45;&gt;Node31</title>
<path fill="none" stroke="#63b8ff" d="M456.96,-404.48C479.56,-416.55 507.62,-431.54 531.56,-444.32"/>
<polygon fill="#63b8ff" stroke="#63b8ff" points="529.73,-447.31 540.2,-448.94 533.03,-441.14 529.73,-447.31"/>
</g>
<!-- Node33 -->
<g id="node33" class="node">
<title>Node33</title>
<g id="a_node33"><a xlink:href="a00463.html#af8cc1a7a794699308cf5c46d3ae59491" target="_top" xlink:title="Sets the core count of OpenMP.">
<polygon fill="white" stroke="#666666" points="636.62,-423 532.12,-423 532.12,-391 636.62,-391 636.62,-423"/>
<text xml:space="preserve" text-anchor="start" x="540.12" y="-409.5" font-family="Helvetica,sans-Serif" font-size="10.00">HF::GraphGenerator</text>
<text xml:space="preserve" text-anchor="middle" x="584.38" y="-397.5" font-family="Helvetica,sans-Serif" font-size="10.00">::SetupCoreCount</text>
</a>
</g>
</g>
<!-- Node5&#45;&gt;Node33 -->
<g id="edge48" class="edge">
<title>Node5&#45;&gt;Node33</title>
<path fill="none" stroke="#63b8ff" d="M474.28,-390.81C489.23,-393.03 505.33,-395.42 520.44,-397.66"/>
<polygon fill="#63b8ff" stroke="#63b8ff" points="519.87,-401.12 530.28,-399.12 520.9,-394.19 519.87,-401.12"/>
</g>
<!-- Node34 -->
<g id="node34" class="node">
<title>Node34</title>
<g id="a_node34"><a xlink:href="a00463.html#a9ddffecb75b34434d7157b49d3c67b60" target="_top" xlink:title="Determine if the start point of the graph is over valid ground.">
<polygon fill="white" stroke="#666666" points="636.62,-152 532.12,-152 532.12,-120 636.62,-120 636.62,-152"/>
<text xml:space="preserve" text-anchor="start" x="540.12" y="-138.5" font-family="Helvetica,sans-Serif" font-size="10.00">HF::GraphGenerator</text>
<text xml:space="preserve" text-anchor="middle" x="584.38" y="-126.5" font-family="Helvetica,sans-Serif" font-size="10.00">::ValidateStartPoint</text>
</a>
</g>
</g>
<!-- Node5&#45;&gt;Node34 -->
<g id="edge49" class="edge">
<title>Node5&#45;&gt;Node34</title>
<path fill="none" stroke="#63b8ff" d="M430.13,-359.74C461.36,-314.13 532.46,-210.33 565.67,-161.85"/>
<polygon fill="#63b8ff" stroke="#63b8ff" points="568.54,-163.86 571.3,-153.63 562.76,-159.9 568.54,-163.86"/>
</g>
<!-- Node6&#45;&gt;Node4 -->
<g id="edge8" class="edge">
<title>Node6&#45;&gt;Node4</title>
<path fill="none" stroke="#63b8ff" d="M649.23,-373.36C652.75,-375.84 655.98,-378.7 658.75,-382 724.8,-460.5 646.8,-519.31 694.75,-610 702.8,-625.22 715.95,-638.8 728.48,-649.41"/>
<polygon fill="#63b8ff" stroke="#63b8ff" points="726.25,-652.11 736.24,-655.65 730.64,-646.66 726.25,-652.11"/>
</g>
<!-- Node7 -->
<g id="node7" class="node">
<title>Node7</title>
<g id="a_node7"><a xlink:href="a01551.html#a37be5c12e488072dea7fa1c8c64346f7" target="_top" xlink:title="Add a new edge to the graph from parent to child.">
<polygon fill="white" stroke="#666666" points="818,-413 707.5,-413 707.5,-381 818,-381 818,-413"/>
<text xml:space="preserve" text-anchor="start" x="715.5" y="-399.5" font-family="Helvetica,sans-Serif" font-size="10.00">HF::SpatialStructures</text>
<text xml:space="preserve" text-anchor="middle" x="762.75" y="-387.5" font-family="Helvetica,sans-Serif" font-size="10.00">::Graph::addEdge</text>
</a>
</g>
</g>
<!-- Node6&#45;&gt;Node7 -->
<g id="edge7" class="edge">
<title>Node6&#45;&gt;Node7</title>
<path fill="none" stroke="#63b8ff" d="M657.88,-373.44C670.46,-376.3 683.49,-379.25 695.88,-382.06"/>
<polygon fill="#63b8ff" stroke="#63b8ff" points="695.06,-385.46 705.58,-384.26 696.6,-378.64 695.06,-385.46"/>
</g>
<!-- Node8 -->
<g id="node8" class="node">
<title>Node8</title>
<g id="a_node8"><a xlink:href="a00463.html#aefd344ebb2faadc64a56a16dc8582026" target="_top" xlink:title="Create a set of directions based on max_step_connections.">
<polygon fill="white" stroke="#666666" points="815,-363 710.5,-363 710.5,-331 815,-331 815,-363"/>
<text xml:space="preserve" text-anchor="start" x="718.5" y="-349.5" font-family="Helvetica,sans-Serif" font-size="10.00">HF::GraphGenerator</text>
<text xml:space="preserve" text-anchor="middle" x="762.75" y="-337.5" font-family="Helvetica,sans-Serif" font-size="10.00">::CreateDirecs</text>
</a>
</g>
</g>
<!-- Node6&#45;&gt;Node8 -->
<g id="edge9" class="edge">
<title>Node6&#45;&gt;Node8</title>
<path fill="none" stroke="#63b8ff" d="M659.15,-352.82C672.44,-352.06 686.18,-351.28 699.11,-350.55"/>
<polygon fill="#63b8ff" stroke="#63b8ff" points="698.94,-354.07 708.73,-350.01 698.55,-347.08 698.94,-354.07"/>
</g>
<!-- Node10 -->
<g id="node10" class="node">
<title>Node10</title>
<g id="a_node10"><a xlink:href="a01315.html#ab659349de3391b0e2327f3736135752f" target="_top" xlink:title="Tell if the queue is empty.">
<polygon fill="white" stroke="#666666" points="819.88,-601 705.62,-601 705.62,-569 819.88,-569 819.88,-601"/>
<text xml:space="preserve" text-anchor="start" x="713.62" y="-587.5" font-family="Helvetica,sans-Serif" font-size="10.00">HF::GraphGenerator</text>
<text xml:space="preserve" text-anchor="middle" x="762.75" y="-575.5" font-family="Helvetica,sans-Serif" font-size="10.00">::UniqueQueue::empty</text>
</a>
</g>
</g>
<!-- Node6&#45;&gt;Node10 -->
<g id="edge11" class="edge">
<title>Node6&#45;&gt;Node10</title>
<path fill="none" stroke="#63b8ff" d="M649.07,-373.5C652.63,-375.95 655.91,-378.77 658.75,-382 712.03,-442.63 642.35,-498.61 694.75,-560 695.32,-560.67 695.92,-561.33 696.53,-561.96"/>
<polygon fill="#63b8ff" stroke="#63b8ff" points="694.3,-564.66 704.24,-568.33 698.76,-559.26 694.3,-564.66"/>
</g>
<!-- Node12 -->
<g id="node12" class="node">
<title>Node12</title>
<g id="a_node12"><a xlink:href="a00463.html#a41e03f9bab54e4e0d1314c6a4bdf2ec1" target="_top" xlink:title="Populare out_children with a potential child position for every direction in directions.">
<polygon fill="white" stroke="#666666" points="830.75,-463 694.75,-463 694.75,-431 830.75,-431 830.75,-463"/>
<text xml:space="preserve" text-anchor="start" x="702.75" y="-449.5" font-family="Helvetica,sans-Serif" font-size="10.00">HF::GraphGenerator</text>
<text xml:space="preserve" text-anchor="middle" x="762.75" y="-437.5" font-family="Helvetica,sans-Serif" font-size="10.00">::GeneratePotentialChildren</text>
</a>
</g>
</g>
<!-- Node6&#45;&gt;Node12 -->
<g id="edge13" class="edge">
<title>Node6&#45;&gt;Node12</title>
<path fill="none" stroke="#63b8ff" d="M642.82,-373.33C648.4,-375.86 653.81,-378.74 658.75,-382 678.71,-395.17 674.98,-408.54 694.75,-422 696.52,-423.2 698.36,-424.36 700.24,-425.47"/>
<polygon fill="#63b8ff" stroke="#63b8ff" points="698.18,-428.34 708.66,-429.91 701.45,-422.15 698.18,-428.34"/>
</g>
<!-- Node13 -->
<g id="node13" class="node">
<title>Node13</title>
<g id="a_node13"><a xlink:href="a00463.html#ab7ffcc7d6657ce276c06deed24c546a4" target="_top" xlink:title="Calculate all possible edges between parent and possible_children.">
<polygon fill="white" stroke="#666666" points="815,-275 710.5,-275 710.5,-243 815,-243 815,-275"/>
<text xml:space="preserve" text-anchor="start" x="718.5" y="-261.5" font-family="Helvetica,sans-Serif" font-size="10.00">HF::GraphGenerator</text>
<text xml:space="preserve" text-anchor="middle" x="762.75" y="-249.5" font-family="Helvetica,sans-Serif" font-size="10.00">::GetChildren</text>
</a>
</g>
</g>
<!-- Node6&#45;&gt;Node13 -->
<g id="edge14" class="edge">
<title>Node6&#45;&gt;Node13</title>
<path fill="none" stroke="#63b8ff" d="M609.57,-340.63C631.37,-326.21 664.54,-305.06 694.75,-289 700.45,-285.97 706.51,-282.97 712.57,-280.1"/>
<polygon fill="#63b8ff" stroke="#63b8ff" points="713.72,-283.42 721.33,-276.05 710.78,-277.07 713.72,-283.42"/>
</g>
<!-- Node28 -->
<g id="node28" class="node">
<title>Node28</title>
<g id="a_node28"><a xlink:href="a01315.html#a4aab642bf2c86a04f6890711ab7f2437" target="_top" xlink:title="Remove the topmost node from the queue and return it.">
<polygon fill="white" stroke="#666666" points="973.12,-509 868.62,-509 868.62,-477 973.12,-477 973.12,-509"/>
<text xml:space="preserve" text-anchor="start" x="876.62" y="-495.5" font-family="Helvetica,sans-Serif" font-size="10.00">HF::GraphGenerator</text>
<text xml:space="preserve" text-anchor="middle" x="920.88" y="-483.5" font-family="Helvetica,sans-Serif" font-size="10.00">::UniqueQueue::pop</text>
</a>
</g>
</g>
<!-- Node6&#45;&gt;Node28 -->
<g id="edge32" class="edge">
<title>Node6&#45;&gt;Node28</title>
<path fill="none" stroke="#63b8ff" d="M614.94,-340.59C664.45,-315.57 765.13,-275.42 830.75,-322 870.29,-350.07 843.51,-382.44 866.75,-425 875.18,-440.45 887.07,-456.04 897.45,-468.39"/>
<polygon fill="#63b8ff" stroke="#63b8ff" points="894.51,-470.33 903.69,-475.61 899.81,-465.76 894.51,-470.33"/>
</g>
<!-- Node6&#45;&gt;Node29 -->
<g id="edge33" class="edge">
<title>Node6&#45;&gt;Node29</title>
<path fill="none" stroke="#63b8ff" d="M602.64,-340.62C617.94,-325.81 640.6,-303.15 658.75,-282 676.11,-261.76 673.4,-249.97 694.75,-234 696.09,-233 697.47,-232.04 698.88,-231.11"/>
<polygon fill="#63b8ff" stroke="#63b8ff" points="700.43,-234.26 707.35,-226.23 696.94,-228.19 700.43,-234.26"/>
</g>
<!-- Node9 -->
<g id="node9" class="node">
<title>Node9</title>
<g id="a_node9"><a xlink:href="a00463.html#afe5670b4cb780fd3ccf2a0d72a2e3c2e" target="_top" xlink:title="Calculate P(n,r) as an array with each unique permutaton of 2 values being a pair.">
<polygon fill="white" stroke="#666666" points="973.12,-416 868.62,-416 868.62,-384 973.12,-384 973.12,-416"/>
<text xml:space="preserve" text-anchor="start" x="876.62" y="-402.5" font-family="Helvetica,sans-Serif" font-size="10.00">HF::GraphGenerator</text>
<text xml:space="preserve" text-anchor="middle" x="920.88" y="-390.5" font-family="Helvetica,sans-Serif" font-size="10.00">::permutations</text>
</a>
</g>
</g>
<!-- Node8&#45;&gt;Node9 -->
<g id="edge10" class="edge">
<title>Node8&#45;&gt;Node9</title>
<path fill="none" stroke="#63b8ff" d="M812.29,-363.48C827.57,-368.66 844.61,-374.45 860.54,-379.86"/>
<polygon fill="#63b8ff" stroke="#63b8ff" points="859.33,-383.14 869.93,-383.04 861.58,-376.52 859.33,-383.14"/>
</g>
<!-- Node11 -->
<g id="node11" class="node">
<title>Node11</title>
<g id="a_node11"><a xlink:href="a01315.html#a6d38edb96130bda3eb8126cc7501065f" target="_top" xlink:title="Determine how many nodes are currently in the queue.">
<polygon fill="white" stroke="#666666" points="973.5,-601 868.25,-601 868.25,-569 973.5,-569 973.5,-601"/>
<text xml:space="preserve" text-anchor="start" x="876.25" y="-587.5" font-family="Helvetica,sans-Serif" font-size="10.00">HF::GraphGenerator</text>
<text xml:space="preserve" text-anchor="middle" x="920.88" y="-575.5" font-family="Helvetica,sans-Serif" font-size="10.00">::UniqueQueue::size</text>
</a>
</g>
</g>
<!-- Node10&#45;&gt;Node11 -->
<g id="edge12" class="edge">
<title>Node10&#45;&gt;Node11</title>
<path fill="none" stroke="#63b8ff" d="M820.11,-585C831.9,-585 844.39,-585 856.41,-585"/>
<polygon fill="#63b8ff" stroke="#63b8ff" points="856.24,-588.5 866.24,-585 856.24,-581.5 856.24,-588.5"/>
</g>
<!-- Node14 -->
<g id="node14" class="node">
<title>Node14</title>
<g id="a_node14"><a xlink:href="a00463.html#a4b7cc0ad0002975404acef5064f4f546" target="_top" xlink:title="Determine whether children are over valid ground, and and meet upstep/downstep requirements.">
<polygon fill="white" stroke="#666666" points="973.12,-178 868.62,-178 868.62,-146 973.12,-146 973.12,-178"/>
<text xml:space="preserve" text-anchor="start" x="876.62" y="-164.5" font-family="Helvetica,sans-Serif" font-size="10.00">HF::GraphGenerator</text>
<text xml:space="preserve" text-anchor="middle" x="920.88" y="-152.5" font-family="Helvetica,sans-Serif" font-size="10.00">::CheckChildren</text>
</a>
</g>
</g>
<!-- Node13&#45;&gt;Node14 -->
<g id="edge15" class="edge">
<title>Node13&#45;&gt;Node14</title>
<path fill="none" stroke="#63b8ff" d="M815.43,-243.16C820.83,-240.51 826.06,-237.47 830.75,-234 851.9,-218.35 846.27,-203.51 866.75,-187 867.84,-186.12 868.97,-185.26 870.13,-184.42"/>
<polygon fill="#63b8ff" stroke="#63b8ff" points="871.65,-187.6 878.2,-179.27 867.88,-181.71 871.65,-187.6"/>
</g>
<!-- Node21 -->
<g id="node21" class="node">
<title>Node21</title>
<g id="a_node21"><a xlink:href="a00463.html#a260a25e02193ce904849ee090daefa2e" target="_top" xlink:title="Determine what kind of step (if any) is between parent and child, given that a connection was verifie...">
<polygon fill="white" stroke="#666666" points="973.12,-316 868.62,-316 868.62,-284 973.12,-284 973.12,-316"/>
<text xml:space="preserve" text-anchor="start" x="876.62" y="-302.5" font-family="Helvetica,sans-Serif" font-size="10.00">HF::GraphGenerator</text>
<text xml:space="preserve" text-anchor="middle" x="920.88" y="-290.5" font-family="Helvetica,sans-Serif" font-size="10.00">::CheckConnection</text>
</a>
</g>
</g>
<!-- Node13&#45;&gt;Node21 -->
<g id="edge23" class="edge">
<title>Node13&#45;&gt;Node21</title>
<path fill="none" stroke="#63b8ff" d="M815.3,-272.54C828.76,-276.07 843.41,-279.92 857.37,-283.58"/>
<polygon fill="#63b8ff" stroke="#63b8ff" points="856.35,-286.94 866.91,-286.09 858.13,-280.17 856.35,-286.94"/>
</g>
<!-- Node25 -->
<g id="node25" class="node">
<title>Node25</title>
<g id="a_node25"><a xlink:href="a00463.html#a7f96186b8f24f878404d1feccf2f64db" target="_top" xlink:title="Calculate the distance between two nodes.">
<polygon fill="white" stroke="#666666" points="1266.88,-269 1162.38,-269 1162.38,-237 1266.88,-237 1266.88,-269"/>
<text xml:space="preserve" text-anchor="start" x="1170.38" y="-255.5" font-family="Helvetica,sans-Serif" font-size="10.00">HF::GraphGenerator</text>
<text xml:space="preserve" text-anchor="middle" x="1214.62" y="-243.5" font-family="Helvetica,sans-Serif" font-size="10.00">::DistanceTo</text>
</a>
</g>
</g>
<!-- Node13&#45;&gt;Node25 -->
<g id="edge30" class="edge">
<title>Node13&#45;&gt;Node25</title>
<path fill="none" stroke="#63b8ff" d="M815.36,-258.31C898.27,-257.21 1060.91,-255.04 1150.57,-253.84"/>
<polygon fill="#63b8ff" stroke="#63b8ff" points="1150.46,-257.34 1160.42,-253.71 1150.37,-250.34 1150.46,-257.34"/>
</g>
<!-- Node27 -->
<g id="node27" class="node">
<title>Node27</title>
<g id="a_node27"><a xlink:href="a00463.html#abf1a3ae7dc89b3cf430e059a87fcd477" target="_top" xlink:title="Convert a point_type to a node.">
<polygon fill="white" stroke="#666666" points="973.12,-366 868.62,-366 868.62,-334 973.12,-334 973.12,-366"/>
<text xml:space="preserve" text-anchor="start" x="876.62" y="-352.5" font-family="Helvetica,sans-Serif" font-size="10.00">HF::GraphGenerator</text>
<text xml:space="preserve" text-anchor="middle" x="920.88" y="-340.5" font-family="Helvetica,sans-Serif" font-size="10.00">::ToNode</text>
</a>
</g>
</g>
<!-- Node13&#45;&gt;Node27 -->
<g id="edge31" class="edge">
<title>Node13&#45;&gt;Node27</title>
<path fill="none" stroke="#63b8ff" d="M806.83,-275.48C815.06,-279.4 823.4,-283.94 830.75,-289 849.38,-301.84 848.24,-311.99 866.75,-325 868.27,-326.07 869.84,-327.11 871.45,-328.13"/>
<polygon fill="#63b8ff" stroke="#63b8ff" points="869.26,-330.9 879.67,-332.87 872.76,-324.84 869.26,-330.9"/>
</g>
<!-- Node15 -->
<g id="node15" class="node">
<title>Node15</title>
<g id="a_node15"><a xlink:href="a00463.html#a74be560268a713fc9e9b8b4a453afa2f" target="_top" xlink:title="Cast a ray and get the point of intersection if it connects.">
<polygon fill="white" stroke="#666666" points="1115.5,-143 1011,-143 1011,-111 1115.5,-111 1115.5,-143"/>
<text xml:space="preserve" text-anchor="start" x="1019" y="-129.5" font-family="Helvetica,sans-Serif" font-size="10.00">HF::GraphGenerator</text>
<text xml:space="preserve" text-anchor="middle" x="1063.25" y="-117.5" font-family="Helvetica,sans-Serif" font-size="10.00">::CheckRay</text>
</a>
</g>
</g>
<!-- Node14&#45;&gt;Node15 -->
<g id="edge16" class="edge">
<title>Node14&#45;&gt;Node15</title>
<path fill="none" stroke="#63b8ff" d="M973.35,-149.17C981.93,-147.03 990.92,-144.79 999.74,-142.59"/>
<polygon fill="#63b8ff" stroke="#63b8ff" points="1000.46,-146.01 1009.31,-140.2 998.76,-139.22 1000.46,-146.01"/>
</g>
<!-- Node16 -->
<g id="node16" class="node">
<title>Node16</title>
<g id="a_node16"><a xlink:href="a00463.html#ab731d597ee2a843f7b7cb1ccbae67782" target="_top" xlink:title="Determine if a hit is against the geometry type specified.">
<polygon fill="white" stroke="#666666" points="1266.88,-200 1162.38,-200 1162.38,-168 1266.88,-168 1266.88,-200"/>
<text xml:space="preserve" text-anchor="start" x="1170.38" y="-186.5" font-family="Helvetica,sans-Serif" font-size="10.00">HF::GraphGenerator</text>
<text xml:space="preserve" text-anchor="middle" x="1214.62" y="-174.5" font-family="Helvetica,sans-Serif" font-size="10.00">::CheckGeometryID</text>
</a>
</g>
</g>
<!-- Node15&#45;&gt;Node16 -->
<g id="edge17" class="edge">
<title>Node15&#45;&gt;Node16</title>
<path fill="none" stroke="#63b8ff" d="M1107.46,-143.49C1123.87,-149.75 1142.76,-156.96 1160.02,-163.54"/>
<polygon fill="#63b8ff" stroke="#63b8ff" points="1158.51,-166.72 1169.1,-167.01 1161.01,-160.18 1158.51,-166.72"/>
</g>
<!-- Node17 -->
<g id="node17" class="node">
<title>Node17</title>
<g id="a_node17"><a xlink:href="a01415.html#a3d86c2c8d8e0ec6bf63a653ec89807a8" target="_top" xlink:title="Determine whether or not this hitstruct contains a hit.">
<polygon fill="white" stroke="#666666" points="1277.75,-150 1151.5,-150 1151.5,-118 1277.75,-118 1277.75,-150"/>
<text xml:space="preserve" text-anchor="start" x="1159.5" y="-136.5" font-family="Helvetica,sans-Serif" font-size="10.00">HF::RayTracer::HitStruct</text>
<text xml:space="preserve" text-anchor="middle" x="1214.62" y="-124.5" font-family="Helvetica,sans-Serif" font-size="10.00">::DidHit</text>
</a>
</g>
</g>
<!-- Node15&#45;&gt;Node17 -->
<g id="edge18" class="edge">
<title>Node15&#45;&gt;Node17</title>
<path fill="none" stroke="#63b8ff" d="M1115.66,-129.41C1123.4,-129.77 1131.51,-130.15 1139.62,-130.53"/>
<polygon fill="#63b8ff" stroke="#63b8ff" points="1139.36,-134.02 1149.52,-131 1139.69,-127.03 1139.36,-134.02"/>
</g>
<!-- Node19 -->
<g id="node19" class="node">
<title>Node19</title>
<g id="a_node19"><a xlink:href="a01419.html#a7ee672618f7fe9ce6938978d93d18514" target="_top" xlink:title=" ">
<polygon fill="white" stroke="#666666" points="1275.12,-82 1154.12,-82 1154.12,-50 1275.12,-50 1275.12,-82"/>
<text xml:space="preserve" text-anchor="start" x="1162.12" y="-68.5" font-family="Helvetica,sans-Serif" font-size="10.00">HF::RayTracer::MultiRT</text>
<text xml:space="preserve" text-anchor="middle" x="1214.62" y="-56.5" font-family="Helvetica,sans-Serif" font-size="10.00">::Intersect</text>
</a>
</g>
</g>
<!-- Node15&#45;&gt;Node19 -->
<g id="edge20" class="edge">
<title>Node15&#45;&gt;Node19</title>
<path fill="none" stroke="#63b8ff" d="M1104.28,-110.65C1122.21,-103.33 1143.56,-94.61 1162.61,-86.83"/>
<polygon fill="#63b8ff" stroke="#63b8ff" points="1163.89,-90.09 1171.82,-83.07 1161.24,-83.61 1163.89,-90.09"/>
</g>
<!-- Node20 -->
<g id="node20" class="node">
<title>Node20</title>
<g id="a_node20"><a xlink:href="a00463.html#a5ad3e8fac4a21eee744f3633f7a3692f" target="_top" xlink:title="Move a node in direction by dist units.">
<polygon fill="white" stroke="#666666" points="1266.88,-32 1162.38,-32 1162.38,0 1266.88,0 1266.88,-32"/>
<text xml:space="preserve" text-anchor="start" x="1170.38" y="-18.5" font-family="Helvetica,sans-Serif" font-size="10.00">HF::GraphGenerator</text>
<text xml:space="preserve" text-anchor="middle" x="1214.62" y="-6.5" font-family="Helvetica,sans-Serif" font-size="10.00">::MoveNode</text>
</a>
</g>
</g>
<!-- Node15&#45;&gt;Node20 -->
<g id="edge22" class="edge">
<title>Node15&#45;&gt;Node20</title>
<path fill="none" stroke="#63b8ff" d="M1077.22,-110.78C1093.05,-91.88 1121.44,-60.71 1151.5,-41 1153.29,-39.83 1155.14,-38.7 1157.03,-37.6"/>
<polygon fill="#63b8ff" stroke="#63b8ff" points="1158.23,-40.93 1165.46,-33.18 1154.98,-34.73 1158.23,-40.93"/>
</g>
<!-- Node18 -->
<g id="node18" class="node">
<title>Node18</title>
<g id="a_node18"><a xlink:href="a00464.html#a2630761a64fac02a4ee33abaf5c885a1" target="_top" xlink:title=" ">
<polygon fill="white" stroke="#666666" points="1454.25,-144 1313.75,-144 1313.75,-124 1454.25,-124 1454.25,-144"/>
<text xml:space="preserve" text-anchor="middle" x="1384" y="-130.5" font-family="Helvetica,sans-Serif" font-size="10.00">HF::RayTracer::DidIntersect</text>
</a>
</g>
</g>
<!-- Node17&#45;&gt;Node18 -->
<g id="edge19" class="edge">
<title>Node17&#45;&gt;Node18</title>
<path fill="none" stroke="#63b8ff" d="M1277.95,-134C1285.78,-134 1293.88,-134 1301.95,-134"/>
<polygon fill="#63b8ff" stroke="#63b8ff" points="1301.79,-137.5 1311.79,-134 1301.79,-130.5 1301.79,-137.5"/>
</g>
<!-- Node19&#45;&gt;Node19 -->
<g id="edge21" class="edge">
<title>Node19&#45;&gt;Node19</title>
<path fill="none" stroke="#63b8ff" d="M1187.6,-82.44C1182.56,-91.58 1191.56,-100 1214.62,-100 1227.24,-100 1235.65,-97.48 1239.85,-93.71"/>
<polygon fill="#63b8ff" stroke="#63b8ff" points="1243.29,-94.36 1241.41,-83.94 1236.38,-93.26 1243.29,-94.36"/>
</g>
<!-- Node22 -->
<g id="node22" class="node">
<title>Node22</title>
<g id="a_node22"><a xlink:href="a00463.html#ace66c1b60785c32433402f012019ab81" target="_top" xlink:title="Determine if there is a valid line of sight between parent and child.">
<polygon fill="white" stroke="#666666" points="1115.5,-317 1011,-317 1011,-285 1115.5,-285 1115.5,-317"/>
<text xml:space="preserve" text-anchor="start" x="1019" y="-303.5" font-family="Helvetica,sans-Serif" font-size="10.00">HF::GraphGenerator</text>
<text xml:space="preserve" text-anchor="middle" x="1063.25" y="-291.5" font-family="Helvetica,sans-Serif" font-size="10.00">::OcclusionCheck</text>
</a>
</g>
</g>
<!-- Node21&#45;&gt;Node22 -->
<g id="edge24" class="edge">
<title>Node21&#45;&gt;Node22</title>
<path fill="none" stroke="#63b8ff" d="M973.35,-300.37C981.84,-300.43 990.72,-300.49 999.44,-300.55"/>
<polygon fill="#63b8ff" stroke="#63b8ff" points="999.24,-304.05 1009.27,-300.62 999.29,-297.05 999.24,-304.05"/>
</g>
<!-- Node23 -->
<g id="node23" class="node">
<title>Node23</title>
<g id="a_node23"><a xlink:href="a00463.html#a750afc15c798c79a8b6a0784ed092f3c" target="_top" xlink:title="Calculate the normalized direction from one node to another.">
<polygon fill="white" stroke="#666666" points="1266.88,-319 1162.38,-319 1162.38,-287 1266.88,-287 1266.88,-319"/>
<text xml:space="preserve" text-anchor="start" x="1170.38" y="-305.5" font-family="Helvetica,sans-Serif" font-size="10.00">HF::GraphGenerator</text>
<text xml:space="preserve" text-anchor="middle" x="1214.62" y="-293.5" font-family="Helvetica,sans-Serif" font-size="10.00">::DirectionTo</text>
</a>
</g>
</g>
<!-- Node22&#45;&gt;Node23 -->
<g id="edge25" class="edge">
<title>Node22&#45;&gt;Node23</title>
<path fill="none" stroke="#63b8ff" d="M1115.66,-301.69C1126.92,-301.84 1138.97,-302 1150.64,-302.16"/>
<polygon fill="#63b8ff" stroke="#63b8ff" points="1150.56,-305.66 1160.61,-302.29 1150.66,-298.66 1150.56,-305.66"/>
</g>
<!-- Node22&#45;&gt;Node25 -->
<g id="edge27" class="edge">
<title>Node22&#45;&gt;Node25</title>
<path fill="none" stroke="#63b8ff" d="M1115.24,-284.62C1126.89,-280.87 1139.39,-276.85 1151.45,-272.98"/>
<polygon fill="#63b8ff" stroke="#63b8ff" points="1152.47,-276.33 1160.92,-269.94 1150.33,-269.66 1152.47,-276.33"/>
</g>
<!-- Node26 -->
<g id="node26" class="node">
<title>Node26</title>
<g id="a_node26"><a xlink:href="a01419.html#a22ebf97e859ef651e81deb40b74f668f" target="_top" xlink:title=" ">
<polygon fill="white" stroke="#666666" points="1275.12,-369 1154.12,-369 1154.12,-337 1275.12,-337 1275.12,-369"/>
<text xml:space="preserve" text-anchor="start" x="1162.12" y="-355.5" font-family="Helvetica,sans-Serif" font-size="10.00">HF::RayTracer::MultiRT</text>
<text xml:space="preserve" text-anchor="middle" x="1214.62" y="-343.5" font-family="Helvetica,sans-Serif" font-size="10.00">::Occluded</text>
</a>
</g>
</g>
<!-- Node22&#45;&gt;Node26 -->
<g id="edge28" class="edge">
<title>Node22&#45;&gt;Node26</title>
<path fill="none" stroke="#63b8ff" d="M1111.51,-317.45C1125.61,-322.36 1141.23,-327.8 1155.92,-332.91"/>
<polygon fill="#63b8ff" stroke="#63b8ff" points="1154.39,-336.08 1164.98,-336.07 1156.69,-329.47 1154.39,-336.08"/>
</g>
<!-- Node24 -->
<g id="node24" class="node">
<title>Node24</title>
<g id="a_node24"><a xlink:href="a00463.html#ad2e09e0825a1db4fc511907179eddf00" target="_top" xlink:title="Normalize a vector.">
<polygon fill="white" stroke="#666666" points="1436.25,-319 1331.75,-319 1331.75,-287 1436.25,-287 1436.25,-319"/>
<text xml:space="preserve" text-anchor="start" x="1339.75" y="-305.5" font-family="Helvetica,sans-Serif" font-size="10.00">HF::GraphGenerator</text>
<text xml:space="preserve" text-anchor="middle" x="1384" y="-293.5" font-family="Helvetica,sans-Serif" font-size="10.00">::Normalize</text>
</a>
</g>
</g>
<!-- Node23&#45;&gt;Node24 -->
<g id="edge26" class="edge">
<title>Node23&#45;&gt;Node24</title>
<path fill="none" stroke="#63b8ff" d="M1267.21,-303C1283.91,-303 1302.63,-303 1320.06,-303"/>
<polygon fill="#63b8ff" stroke="#63b8ff" points="1319.78,-306.5 1329.78,-303 1319.78,-299.5 1319.78,-306.5"/>
</g>
<!-- Node26&#45;&gt;Node26 -->
<g id="edge29" class="edge">
<title>Node26&#45;&gt;Node26</title>
<path fill="none" stroke="#63b8ff" d="M1187.6,-369.44C1182.56,-378.58 1191.56,-387 1214.62,-387 1227.24,-387 1235.65,-384.48 1239.85,-380.71"/>
<polygon fill="#63b8ff" stroke="#63b8ff" points="1243.29,-381.36 1241.41,-370.94 1236.38,-380.26 1243.29,-381.36"/>
</g>
<!-- Node30 -->
<g id="node30" class="node">
<title>Node30</title>
<g id="a_node30"><a xlink:href="a01315.html#ae0dc637a2d7c3aae32d8f035ac6b8016" target="_top" xlink:title="Add a node to the queue if it has never previously been in the queue.">
<polygon fill="white" stroke="#666666" points="975,-228 866.75,-228 866.75,-196 975,-196 975,-228"/>
<text xml:space="preserve" text-anchor="start" x="874.75" y="-214.5" font-family="Helvetica,sans-Serif" font-size="10.00">HF::GraphGenerator</text>
<text xml:space="preserve" text-anchor="middle" x="920.88" y="-202.5" font-family="Helvetica,sans-Serif" font-size="10.00">::UniqueQueue::push</text>
</a>
</g>
</g>
<!-- Node29&#45;&gt;Node30 -->
<g id="edge34" class="edge">
<title>Node29&#45;&gt;Node30</title>
<path fill="none" stroke="#63b8ff" d="M826.35,-210.2C835.76,-210.38 845.48,-210.57 854.94,-210.75"/>
<polygon fill="#63b8ff" stroke="#63b8ff" points="854.72,-214.25 864.79,-210.94 854.86,-207.25 854.72,-214.25"/>
</g>
<!-- Node31&#45;&gt;Node4 -->
<g id="edge37" class="edge">
<title>Node31&#45;&gt;Node4</title>
<path fill="none" stroke="#63b8ff" d="M594.55,-494.34C610.24,-530.09 645.37,-600.44 694.75,-643 698.13,-645.91 701.84,-648.59 705.72,-651.04"/>
<polygon fill="#63b8ff" stroke="#63b8ff" points="703.9,-654.03 714.33,-655.93 707.36,-647.95 703.9,-654.03"/>
</g>
<!-- Node31&#45;&gt;Node7 -->
<g id="edge36" class="edge">
<title>Node31&#45;&gt;Node7</title>
<path fill="none" stroke="#63b8ff" d="M632.43,-449.6C651.62,-440.69 674.11,-430.55 694.75,-422 698.36,-420.5 702.09,-419 705.86,-417.51"/>
<polygon fill="#63b8ff" stroke="#63b8ff" points="707.06,-420.8 715.12,-413.92 704.53,-414.27 707.06,-420.8"/>
</g>
<!-- Node31&#45;&gt;Node8 -->
<g id="edge38" class="edge">
<title>Node31&#45;&gt;Node8</title>
<path fill="none" stroke="#63b8ff" d="M635.22,-449.56C643.62,-444.5 651.84,-438.63 658.75,-432 681.19,-410.47 670.84,-391.89 694.75,-372 696.47,-370.57 698.28,-369.22 700.15,-367.94"/>
<polygon fill="#63b8ff" stroke="#63b8ff" points="701.86,-371 708.7,-362.91 698.31,-364.97 701.86,-371"/>
</g>
<!-- Node31&#45;&gt;Node10 -->
<g id="edge39" class="edge">
<title>Node31&#45;&gt;Node10</title>
<path fill="none" stroke="#63b8ff" d="M608.51,-494.32C629.6,-513.73 662.34,-541.56 694.75,-560 697.07,-561.32 699.48,-562.6 701.93,-563.83"/>
<polygon fill="#63b8ff" stroke="#63b8ff" points="700.34,-566.94 710.88,-567.97 703.28,-560.59 700.34,-566.94"/>
</g>
<!-- Node31&#45;&gt;Node11 -->
<g id="edge46" class="edge">
<title>Node31&#45;&gt;Node11</title>
<path fill="none" stroke="#63b8ff" d="M595.21,-494.39C610.88,-526.9 644.93,-585.92 694.75,-610 750.59,-636.99 823.07,-621.24 870.5,-605.16"/>
<polygon fill="#63b8ff" stroke="#63b8ff" points="871.41,-608.55 879.68,-601.92 869.08,-601.95 871.41,-608.55"/>
</g>
<!-- Node31&#45;&gt;Node12 -->
<g id="edge40" class="edge">
<title>Node31&#45;&gt;Node12</title>
<path fill="none" stroke="#63b8ff" d="M659.15,-461.54C667.11,-460.41 675.22,-459.26 683.23,-458.13"/>
<polygon fill="#63b8ff" stroke="#63b8ff" points="683.55,-461.62 692.96,-456.75 682.57,-454.69 683.55,-461.62"/>
</g>
<!-- Node31&#45;&gt;Node13 -->
<g id="edge41" class="edge">
<title>Node31&#45;&gt;Node13</title>
<path fill="none" stroke="#63b8ff" d="M638.38,-449.57C645.96,-444.64 653.09,-438.8 658.75,-432 691.65,-392.46 667.15,-365.41 694.75,-322 704.12,-307.25 717.73,-293.6 730.23,-282.8"/>
<polygon fill="#63b8ff" stroke="#63b8ff" points="732.44,-285.52 737.9,-276.44 727.97,-280.13 732.44,-285.52"/>
</g>
<!-- Node31&#45;&gt;Node30 -->
<g id="edge45" class="edge">
<title>Node31&#45;&gt;Node30</title>
<path fill="none" stroke="#63b8ff" d="M657.84,-494.5C711.64,-506.36 783.55,-511.35 830.75,-472 899.11,-415 828.79,-355.5 866.75,-275 873.4,-260.91 884,-247.41 893.99,-236.54"/>
<polygon fill="#63b8ff" stroke="#63b8ff" points="896.33,-239.16 900.74,-229.52 891.28,-234.31 896.33,-239.16"/>
</g>
<!-- Node32 -->
<g id="node32" class="node">
<title>Node32</title>
<g id="a_node32"><a xlink:href="a01315.html#ae941f357ddbefc3b670c43ce2d90b589" target="_top" xlink:title="Pop a set amount of nodes from the queue, and return them as a vector.">
<polygon fill="white" stroke="#666666" points="826.25,-551 699.25,-551 699.25,-519 826.25,-519 826.25,-551"/>
<text xml:space="preserve" text-anchor="start" x="707.25" y="-537.5" font-family="Helvetica,sans-Serif" font-size="10.00">HF::GraphGenerator</text>
<text xml:space="preserve" text-anchor="middle" x="762.75" y="-525.5" font-family="Helvetica,sans-Serif" font-size="10.00">::UniqueQueue::popMany</text>
</a>
</g>
</g>
<!-- Node31&#45;&gt;Node32 -->
<g id="edge42" class="edge">
<title>Node31&#45;&gt;Node32</title>
<path fill="none" stroke="#63b8ff" d="M648.05,-494.39C666.59,-501.01 686.77,-508.22 704.92,-514.7"/>
<polygon fill="#63b8ff" stroke="#63b8ff" points="703.61,-517.95 714.2,-518.02 705.96,-511.36 703.61,-517.95"/>
</g>
<!-- Node32&#45;&gt;Node11 -->
<g id="edge44" class="edge">
<title>Node32&#45;&gt;Node11</title>
<path fill="none" stroke="#63b8ff" d="M814.87,-551.37C828.55,-555.75 843.48,-560.54 857.69,-565.08"/>
<polygon fill="#63b8ff" stroke="#63b8ff" points="856.34,-568.33 866.93,-568.04 858.47,-561.66 856.34,-568.33"/>
</g>
<!-- Node32&#45;&gt;Node28 -->
<g id="edge43" class="edge">
<title>Node32&#45;&gt;Node28</title>
<path fill="none" stroke="#63b8ff" d="M825.01,-518.52C835.66,-515.66 846.75,-512.67 857.43,-509.8"/>
<polygon fill="#63b8ff" stroke="#63b8ff" points="858.17,-513.22 866.92,-507.25 856.35,-506.46 858.17,-513.22"/>
</g>
<!-- Node34&#45;&gt;Node15 -->
<g id="edge50" class="edge">
<title>Node34&#45;&gt;Node15</title>
<path fill="none" stroke="#63b8ff" d="M636.86,-135.03C724.83,-133.37 903.79,-129.99 999.14,-128.19"/>
<polygon fill="#63b8ff" stroke="#63b8ff" points="999.17,-131.69 1009.1,-128 999.04,-124.69 999.17,-131.69"/>
</g>
</g>
</svg>
