<?xml version="1.0" encoding="UTF-8" standalone="no"?>
<!DOCTYPE svg PUBLIC "-//W3C//DTD SVG 1.1//EN"
 "http://www.w3.org/Graphics/SVG/1.1/DTD/svg11.dtd">
<!-- Generated by graphviz version 13.1.2 (20250808.2320)
 -->
<!-- Title: CalculateDistanceAndPredecessor Pages: 1 -->
<svg width="554pt" height="115pt"
 viewBox="0.00 0.00 554.00 115.00" xmlns="http://www.w3.org/2000/svg" xmlns:xlink="http://www.w3.org/1999/xlink">
<g id="graph0" class="graph" transform="scale(1 1) rotate(0) translate(4 111)">
<title>CalculateDistanceAndPredecessor</title>
<!-- Node1 -->
<g id="node1" class="node">
<title>Node1</title>
<g id="a_node1"><a xlink:title="Calculate the distance and predecessor matricies for a graph.">
<polygon fill="#999999" stroke="#666666" points="168.25,-76 0,-76 0,-56 168.25,-56 168.25,-76"/>
<text xml:space="preserve" text-anchor="middle" x="84.12" y="-62.5" font-family="Helvetica,sans-Serif" font-size="10.00">CalculateDistanceAndPredecessor</text>
</a>
</g>
</g>
<!-- Node2 -->
<g id="node2" class="node">
<title>Node2</title>
<g id="a_node2"><a xlink:href="a00472.html#ae2106e09eb44d681fbc6c0f66a3d3ac4" target="_top" xlink:title="Create a new boost graph from a HF::SpatialStructures:Graph.">
<polygon fill="white" stroke="#666666" points="349.25,-107 204.25,-107 204.25,-75 349.25,-75 349.25,-107"/>
<text xml:space="preserve" text-anchor="start" x="212.25" y="-93.5" font-family="Helvetica,sans-Serif" font-size="10.00">HF::Pathfinding::CreateBoost</text>
<text xml:space="preserve" text-anchor="middle" x="276.75" y="-81.5" font-family="Helvetica,sans-Serif" font-size="10.00">Graph</text>
</a>
</g>
</g>
<!-- Node1&#45;&gt;Node2 -->
<g id="edge1" class="edge">
<title>Node1&#45;&gt;Node2</title>
<path fill="none" stroke="#63b8ff" d="M165.14,-76.49C174.17,-77.68 183.38,-78.89 192.45,-80.08"/>
<polygon fill="#63b8ff" stroke="#63b8ff" points="191.96,-83.54 202.33,-81.37 192.87,-76.6 191.96,-83.54"/>
</g>
<!-- Node3 -->
<g id="node3" class="node">
<title>Node3</title>
<g id="a_node3"><a xlink:href="a00472.html#ab58662be8e56c333d74d60a823e810e3" target="_top" xlink:title="Generate the distance and predecessor matricies for a specific boost graph.">
<polygon fill="white" stroke="#666666" points="341.75,-57 211.75,-57 211.75,-25 341.75,-25 341.75,-57"/>
<text xml:space="preserve" text-anchor="start" x="219.75" y="-43.5" font-family="Helvetica,sans-Serif" font-size="10.00">HF::Pathfinding::Generate</text>
<text xml:space="preserve" text-anchor="middle" x="276.75" y="-31.5" font-family="Helvetica,sans-Serif" font-size="10.00">DistanceAndPred</text>
</a>
</g>
</g>
<!-- Node1&#45;&gt;Node3 -->
<g id="edge2" class="edge">
<title>Node1&#45;&gt;Node3</title>
<path fill="none" stroke="#63b8ff" d="M165.14,-55.51C176.68,-53.99 188.52,-52.44 199.98,-50.94"/>
<polygon fill="#63b8ff" stroke="#63b8ff" points="200.31,-54.42 209.77,-49.65 199.4,-47.48 200.31,-54.42"/>
</g>
<!-- Node4 -->
<g id="node4" class="node">
<title>Node4</title>
<g id="a_node4"><a xlink:href="a01395.html#a7237256578bb77a912babbc2f777756c" target="_top" xlink:title="Get a pointer to the beginning of the ith row of the distance array.">
<polygon fill="white" stroke="#666666" points="544.88,-82 386.38,-82 386.38,-50 544.88,-50 544.88,-82"/>
<text xml:space="preserve" text-anchor="start" x="394.38" y="-68.5" font-family="Helvetica,sans-Serif" font-size="10.00">HF::Pathfinding::Distance</text>
<text xml:space="preserve" text-anchor="middle" x="465.62" y="-56.5" font-family="Helvetica,sans-Serif" font-size="10.00">AndPredecessor::GetRowOfDist</text>
</a>
</g>
</g>
<!-- Node3&#45;&gt;Node4 -->
<g id="edge3" class="edge">
<title>Node3&#45;&gt;Node4</title>
<path fill="none" stroke="#63b8ff" d="M342.06,-49.6C352.56,-51.01 363.61,-52.49 374.59,-53.96"/>
<polygon fill="#63b8ff" stroke="#63b8ff" points="374.11,-57.42 384.49,-55.28 375.04,-50.48 374.11,-57.42"/>
</g>
<!-- Node5 -->
<g id="node5" class="node">
<title>Node5</title>
<g id="a_node5"><a xlink:href="a01395.html#a4ab3579abd7bd4f18456e8e5022b51ca" target="_top" xlink:title="Get a pointer to the beginning of the ith row of the predecessor array.">
<polygon fill="white" stroke="#666666" points="546,-32 385.25,-32 385.25,0 546,0 546,-32"/>
<text xml:space="preserve" text-anchor="start" x="393.25" y="-18.5" font-family="Helvetica,sans-Serif" font-size="10.00">HF::Pathfinding::Distance</text>
<text xml:space="preserve" text-anchor="middle" x="465.62" y="-6.5" font-family="Helvetica,sans-Serif" font-size="10.00">AndPredecessor::GetRowOfPred</text>
</a>
</g>
</g>
<!-- Node3&#45;&gt;Node5 -->
<g id="edge4" class="edge">
<title>Node3&#45;&gt;Node5</title>
<path fill="none" stroke="#63b8ff" d="M342.06,-32.4C352.33,-31.02 363.11,-29.58 373.85,-28.14"/>
<polygon fill="#63b8ff" stroke="#63b8ff" points="374.05,-31.65 383.5,-26.85 373.13,-24.71 374.05,-31.65"/>
</g>
</g>
</svg>
