<?xml version="1.0" encoding="UTF-8" standalone="no"?>
<!DOCTYPE svg PUBLIC "-//W3C//DTD SVG 1.1//EN"
 "http://www.w3.org/Graphics/SVG/1.1/DTD/svg11.dtd">
<!-- Generated by graphviz version 13.1.2 (20250808.2320)
 -->
<!-- Title: SphericalDistribute Pages: 1 -->
<svg width="674pt" height="128pt"
 viewBox="0.00 0.00 674.00 128.00" xmlns="http://www.w3.org/2000/svg" xmlns:xlink="http://www.w3.org/1999/xlink">
<g id="graph0" class="graph" transform="scale(1 1) rotate(0) translate(4 124)">
<title>SphericalDistribute</title>
<!-- Node1 -->
<g id="node1" class="node">
<title>Node1</title>
<g id="a_node1"><a xlink:title="Equally distribute points around a unit sphere.">
<polygon fill="#999999" stroke="#666666" points="98.5,-64 0,-64 0,-44 98.5,-44 98.5,-64"/>
<text xml:space="preserve" text-anchor="middle" x="49.25" y="-50.5" font-family="Helvetica,sans-Serif" font-size="10.00">SphericalDistribute</text>
</a>
</g>
</g>
<!-- Node2 -->
<g id="node2" class="node">
<title>Node2</title>
<g id="a_node2"><a xlink:href="a00459.html#ga6ca336e3887ef82d17b0713c2bf862df" target="_top" xlink:title="Evenly distribute a set of points around a sphere centered at the origin.">
<polygon fill="white" stroke="#666666" points="282.5,-70 134.5,-70 134.5,-38 282.5,-38 282.5,-70"/>
<text xml:space="preserve" text-anchor="start" x="142.5" y="-56.5" font-family="Helvetica,sans-Serif" font-size="10.00">HF::ViewAnalysis::Fibbonacci</text>
<text xml:space="preserve" text-anchor="middle" x="208.5" y="-44.5" font-family="Helvetica,sans-Serif" font-size="10.00">DistributePoints</text>
</a>
</g>
</g>
<!-- Node1&#45;&gt;Node2 -->
<g id="edge1" class="edge">
<title>Node1&#45;&gt;Node2</title>
<path fill="none" stroke="#63b8ff" d="M98.71,-54C106.41,-54 114.55,-54 122.79,-54"/>
<polygon fill="#63b8ff" stroke="#63b8ff" points="122.53,-57.5 132.53,-54 122.53,-50.5 122.53,-57.5"/>
</g>
<!-- Node3 -->
<g id="node3" class="node">
<title>Node3</title>
<g id="a_node3"><a xlink:href="a00466.html#a5b45790c767b670bc00bf3fd2335159a" target="_top" xlink:title=" ">
<polygon fill="white" stroke="#666666" points="484.5,-64 318.5,-64 318.5,-44 484.5,-44 484.5,-64"/>
<text xml:space="preserve" text-anchor="middle" x="401.5" y="-50.5" font-family="Helvetica,sans-Serif" font-size="10.00">HF::ViewAnalysis::FibbonacciDist</text>
</a>
</g>
</g>
<!-- Node2&#45;&gt;Node3 -->
<g id="edge2" class="edge">
<title>Node2&#45;&gt;Node3</title>
<path fill="none" stroke="#63b8ff" d="M282.8,-54C290.66,-54 298.74,-54 306.8,-54"/>
<polygon fill="#63b8ff" stroke="#63b8ff" points="306.65,-57.5 316.65,-54 306.65,-50.5 306.65,-57.5"/>
</g>
<!-- Node4 -->
<g id="node4" class="node">
<title>Node4</title>
<g id="a_node4"><a xlink:href="a00466.html#a94327f2628a43ffe3dc4ab854e8aa20d" target="_top" xlink:title=" ">
<polygon fill="white" stroke="#666666" points="659.88,-120 526.12,-120 526.12,-88 659.88,-88 659.88,-120"/>
<text xml:space="preserve" text-anchor="start" x="534.12" y="-106.5" font-family="Helvetica,sans-Serif" font-size="10.00">HF::ViewAnalysis::Altitude</text>
<text xml:space="preserve" text-anchor="middle" x="593" y="-94.5" font-family="Helvetica,sans-Serif" font-size="10.00">WithinRange</text>
</a>
</g>
</g>
<!-- Node3&#45;&gt;Node4 -->
<g id="edge3" class="edge">
<title>Node3&#45;&gt;Node4</title>
<path fill="none" stroke="#63b8ff" d="M442.23,-64.48C464.35,-70.32 492.61,-77.77 518.6,-84.63"/>
<polygon fill="#63b8ff" stroke="#63b8ff" points="517.55,-87.98 528.11,-87.14 519.33,-81.21 517.55,-87.98"/>
</g>
<!-- Node5 -->
<g id="node5" class="node">
<title>Node5</title>
<g id="a_node5"><a xlink:href="a00466.html#a9dcf81751f63f5c7356a4f45159184bb" target="_top" xlink:title="Convert a number from degrees to radians.">
<polygon fill="white" stroke="#666666" points="660.62,-70 525.38,-70 525.38,-38 660.62,-38 660.62,-70"/>
<text xml:space="preserve" text-anchor="start" x="533.38" y="-56.5" font-family="Helvetica,sans-Serif" font-size="10.00">HF::ViewAnalysis::Convert</text>
<text xml:space="preserve" text-anchor="middle" x="593" y="-44.5" font-family="Helvetica,sans-Serif" font-size="10.00">ToRadians</text>
</a>
</g>
</g>
<!-- Node3&#45;&gt;Node5 -->
<g id="edge4" class="edge">
<title>Node3&#45;&gt;Node5</title>
<path fill="none" stroke="#63b8ff" d="M484.79,-54C494.38,-54 504.14,-54 513.67,-54"/>
<polygon fill="#63b8ff" stroke="#63b8ff" points="513.64,-57.5 523.64,-54 513.64,-50.5 513.64,-57.5"/>
</g>
<!-- Node6 -->
<g id="node6" class="node">
<title>Node6</title>
<g id="a_node6"><a xlink:href="a00466.html#a38ed3d26d2fcc4bde1790c53eda3945a" target="_top" xlink:title="Normalize a vector.">
<polygon fill="white" stroke="#666666" points="665.5,-20 520.5,-20 520.5,0 665.5,0 665.5,-20"/>
<text xml:space="preserve" text-anchor="middle" x="593" y="-6.5" font-family="Helvetica,sans-Serif" font-size="10.00">HF::ViewAnalysis::Normalize</text>
</a>
</g>
</g>
<!-- Node3&#45;&gt;Node6 -->
<g id="edge5" class="edge">
<title>Node3&#45;&gt;Node6</title>
<path fill="none" stroke="#63b8ff" d="M447.41,-43.57C473.98,-37.4 507.86,-29.54 536.15,-22.97"/>
<polygon fill="#63b8ff" stroke="#63b8ff" points="536.66,-26.44 545.61,-20.77 535.08,-19.62 536.66,-26.44"/>
</g>
</g>
</svg>
