<?xml version="1.0" encoding="UTF-8" standalone="no"?>
<!DOCTYPE svg PUBLIC "-//W3C//DTD SVG 1.1//EN"
 "http://www.w3.org/Graphics/SVG/1.1/DTD/svg11.dtd">
<!-- Generated by graphviz version 13.1.2 (20250808.2320)
 -->
<!-- Title: AlgorithmCostTitle Pages: 1 -->
<svg width="321pt" height="66pt"
 viewBox="0.00 0.00 321.00 66.00" xmlns="http://www.w3.org/2000/svg" xmlns:xlink="http://www.w3.org/1999/xlink">
<g id="graph0" class="graph" transform="scale(1 1) rotate(0) translate(4 62)">
<title>AlgorithmCostTitle</title>
<!-- Node1 -->
<g id="node1" class="node">
<title>Node1</title>
<g id="a_node1"><a xlink:title="Get the cost algorithm title (as std::string) from the COST_ALG_KEY enum member.">
<polygon fill="#999999" stroke="#666666" points="313.25,-39 216.25,-39 216.25,-19 313.25,-19 313.25,-39"/>
<text xml:space="preserve" text-anchor="middle" x="264.75" y="-25.5" font-family="Helvetica,sans-Serif" font-size="10.00">AlgorithmCostTitle</text>
</a>
</g>
</g>
<!-- Node2 -->
<g id="node2" class="node">
<title>Node2</title>
<g id="a_node2"><a xlink:href="a00458.html#gad7f7fa84fbf7484d38228ccd346d1ae0" target="_top" xlink:title="Calculates cross slope for all subgraphs in *g.">
<polygon fill="white" stroke="#666666" points="164.5,-58 15.75,-58 15.75,-38 164.5,-38 164.5,-58"/>
<text xml:space="preserve" text-anchor="middle" x="90.12" y="-44.5" font-family="Helvetica,sans-Serif" font-size="10.00">CalculateAndStoreCrossSlope</text>
</a>
</g>
</g>
<!-- Node1&#45;&gt;Node2 -->
<g id="edge1" class="edge">
<title>Node1&#45;&gt;Node2</title>
<path fill="none" stroke="#63b8ff" d="M205.03,-35.46C192.1,-36.89 178.25,-38.41 164.82,-39.89"/>
<polygon fill="#63b8ff" stroke="#63b8ff" points="205.06,-38.98 214.62,-34.41 204.3,-32.02 205.06,-38.98"/>
</g>
<!-- Node3 -->
<g id="node3" class="node">
<title>Node3</title>
<g id="a_node3"><a xlink:href="a00458.html#ga76d98cf2df63a766a74137dfa815d9a9" target="_top" xlink:title="Calculates energy expenditure for all subgraphs in *g and stores them in the graph at AlgorithmCostTi...">
<polygon fill="white" stroke="#666666" points="180.25,-20 0,-20 0,0 180.25,0 180.25,-20"/>
<text xml:space="preserve" text-anchor="middle" x="90.12" y="-6.5" font-family="Helvetica,sans-Serif" font-size="10.00">CalculateAndStoreEnergyExpenditure</text>
</a>
</g>
</g>
<!-- Node1&#45;&gt;Node3 -->
<g id="edge2" class="edge">
<title>Node1&#45;&gt;Node3</title>
<path fill="none" stroke="#63b8ff" d="M204.91,-22.52C197.06,-21.66 188.88,-20.76 180.66,-19.85"/>
<polygon fill="#63b8ff" stroke="#63b8ff" points="204.3,-25.98 214.62,-23.59 205.06,-19.02 204.3,-25.98"/>
</g>
</g>
</svg>
