<?xml version="1.0" encoding="UTF-8" standalone="no"?>
<!DOCTYPE svg PUBLIC "-//W3C//DTD SVG 1.1//EN"
 "http://www.w3.org/Graphics/SVG/1.1/DTD/svg11.dtd">
<!-- Generated by graphviz version 13.1.2 (20250808.2320)
 -->
<!-- Title: CastRaysDistance Pages: 1 -->
<svg width="647pt" height="78pt"
 viewBox="0.00 0.00 647.00 78.00" xmlns="http://www.w3.org/2000/svg" xmlns:xlink="http://www.w3.org/1999/xlink">
<g id="graph0" class="graph" transform="scale(1 1) rotate(0) translate(4 74)">
<title>CastRaysDistance</title>
<!-- Node1 -->
<g id="node1" class="node">
<title>Node1</title>
<g id="a_node1"><a xlink:title="Cast rays for each node in origins/directions as ordered pairs and get distance back as a result.">
<polygon fill="#999999" stroke="#666666" points="99.25,-48 0,-48 0,-28 99.25,-28 99.25,-48"/>
<text xml:space="preserve" text-anchor="middle" x="49.62" y="-34.5" font-family="Helvetica,sans-Serif" font-size="10.00">CastRaysDistance</text>
</a>
</g>
</g>
<!-- Node2 -->
<g id="node2" class="node">
<title>Node2</title>
<g id="a_node2"><a xlink:href="a00245.html#a603d456361c9737b88a091e6683db12b" target="_top" xlink:title="Convert a raw array from an external caller to an organized vector of points">
<polygon fill="white" stroke="#666666" points="294.5,-70 140.5,-70 140.5,-50 294.5,-50 294.5,-70"/>
<text xml:space="preserve" text-anchor="middle" x="217.5" y="-56.5" font-family="Helvetica,sans-Serif" font-size="10.00">ConvertRawFloatArrayToPoints</text>
</a>
</g>
</g>
<!-- Node1&#45;&gt;Node2 -->
<g id="edge1" class="edge">
<title>Node1&#45;&gt;Node2</title>
<path fill="none" stroke="#63b8ff" d="M99.5,-44.48C108.8,-45.72 118.8,-47.04 128.89,-48.38"/>
<polygon fill="#63b8ff" stroke="#63b8ff" points="128.41,-51.85 138.78,-49.69 129.33,-44.91 128.41,-51.85"/>
</g>
<!-- Node3 -->
<g id="node3" class="node">
<title>Node3</title>
<g id="a_node3"><a xlink:href="a01411.html#a7f8ab81033bdefaea0eea729aa9125ae" target="_top" xlink:title="Cast a ray from origin in direction and update the parameters instead of returning a hitstruct.">
<polygon fill="white" stroke="#666666" points="299.75,-32 135.25,-32 135.25,0 299.75,0 299.75,-32"/>
<text xml:space="preserve" text-anchor="start" x="143.25" y="-18.5" font-family="Helvetica,sans-Serif" font-size="10.00">HF::RayTracer::EmbreeRay</text>
<text xml:space="preserve" text-anchor="middle" x="217.5" y="-6.5" font-family="Helvetica,sans-Serif" font-size="10.00">Tracer::IntersectOutputArguments</text>
</a>
</g>
</g>
<!-- Node1&#45;&gt;Node3 -->
<g id="edge2" class="edge">
<title>Node1&#45;&gt;Node3</title>
<path fill="none" stroke="#63b8ff" d="M99.5,-31.52C107.18,-30.5 115.34,-29.42 123.64,-28.32"/>
<polygon fill="#63b8ff" stroke="#63b8ff" points="124.04,-31.79 133.5,-27.01 123.12,-24.85 124.04,-31.79"/>
</g>
<!-- Node4 -->
<g id="node4" class="node">
<title>Node4</title>
<g id="a_node4"><a xlink:href="a01415.html#a3d86c2c8d8e0ec6bf63a653ec89807a8" target="_top" xlink:title="Determine whether or not this hitstruct contains a hit.">
<polygon fill="white" stroke="#666666" points="462,-32 335.75,-32 335.75,0 462,0 462,-32"/>
<text xml:space="preserve" text-anchor="start" x="343.75" y="-18.5" font-family="Helvetica,sans-Serif" font-size="10.00">HF::RayTracer::HitStruct</text>
<text xml:space="preserve" text-anchor="middle" x="398.88" y="-6.5" font-family="Helvetica,sans-Serif" font-size="10.00">::DidHit</text>
</a>
</g>
</g>
<!-- Node3&#45;&gt;Node4 -->
<g id="edge3" class="edge">
<title>Node3&#45;&gt;Node4</title>
<path fill="none" stroke="#63b8ff" d="M300.05,-16C308.01,-16 316.06,-16 323.93,-16"/>
<polygon fill="#63b8ff" stroke="#63b8ff" points="323.81,-19.5 333.81,-16 323.81,-12.5 323.81,-19.5"/>
</g>
<!-- Node5 -->
<g id="node5" class="node">
<title>Node5</title>
<g id="a_node5"><a xlink:href="a00464.html#a2630761a64fac02a4ee33abaf5c885a1" target="_top" xlink:title=" ">
<polygon fill="white" stroke="#666666" points="638.5,-26 498,-26 498,-6 638.5,-6 638.5,-26"/>
<text xml:space="preserve" text-anchor="middle" x="568.25" y="-12.5" font-family="Helvetica,sans-Serif" font-size="10.00">HF::RayTracer::DidIntersect</text>
</a>
</g>
</g>
<!-- Node4&#45;&gt;Node5 -->
<g id="edge4" class="edge">
<title>Node4&#45;&gt;Node5</title>
<path fill="none" stroke="#63b8ff" d="M462.2,-16C470.03,-16 478.13,-16 486.2,-16"/>
<polygon fill="#63b8ff" stroke="#63b8ff" points="486.04,-19.5 496.04,-16 486.04,-12.5 486.04,-19.5"/>
</g>
</g>
</svg>
