<?xml version="1.0" encoding="UTF-8" standalone="no"?>
<!DOCTYPE svg PUBLIC "-//W3C//DTD SVG 1.1//EN"
 "http://www.w3.org/Graphics/SVG/1.1/DTD/svg11.dtd">
<!-- Generated by graphviz version 13.1.2 (20250808.2320)
 -->
<!-- Title: nlohmann::detail::input_adapter Pages: 1 -->
<svg width="1096pt" height="492pt"
 viewBox="0.00 0.00 1096.00 492.00" xmlns="http://www.w3.org/2000/svg" xmlns:xlink="http://www.w3.org/1999/xlink">
<g id="graph0" class="graph" transform="scale(1 1) rotate(0) translate(4 488)">
<title>nlohmann::detail::input_adapter</title>
<!-- Node1 -->
<g id="node1" class="node">
<title>Node1</title>
<g id="a_node1"><a xlink:title=" ">
<polygon fill="#999999" stroke="#666666" points="1087.75,-264 973.5,-264 973.5,-232 1087.75,-232 1087.75,-264"/>
<text xml:space="preserve" text-anchor="start" x="981.5" y="-250.5" font-family="Helvetica,sans-Serif" font-size="10.00">nlohmann::detail::input</text>
<text xml:space="preserve" text-anchor="middle" x="1030.62" y="-238.5" font-family="Helvetica,sans-Serif" font-size="10.00">_adapter</text>
</a>
</g>
</g>
<!-- Node2 -->
<g id="node2" class="node">
<title>Node2</title>
<g id="a_node2"><a xlink:href="a01659.html#a32872afe5bfd040777e3e2bb85f0ca55" target="_top" xlink:title="check if the input is valid JSON">
<polygon fill="white" stroke="#666666" points="930.38,-484 819.88,-484 819.88,-452 930.38,-452 930.38,-484"/>
<text xml:space="preserve" text-anchor="start" x="827.88" y="-470.5" font-family="Helvetica,sans-Serif" font-size="10.00">nlohmann::basic_json</text>
<text xml:space="preserve" text-anchor="middle" x="875.12" y="-458.5" font-family="Helvetica,sans-Serif" font-size="10.00">::accept</text>
</a>
</g>
</g>
<!-- Node1&#45;&gt;Node2 -->
<g id="edge1" class="edge">
<title>Node1&#45;&gt;Node2</title>
<path fill="none" stroke="#63b8ff" d="M1022.55,-275.45C1010.92,-315.71 984.27,-391.08 937.5,-438 932.22,-443.29 925.83,-447.8 919.18,-451.58"/>
<polygon fill="#63b8ff" stroke="#63b8ff" points="1025.91,-276.41 1025.21,-265.84 1019.17,-274.54 1025.91,-276.41"/>
</g>
<!-- Node3 -->
<g id="node3" class="node">
<title>Node3</title>
<g id="a_node3"><a xlink:href="a01659.html#a4e02793f2691aa29ab7cb69fddafbf5c" target="_top" xlink:title="Create a JSON value from an input in BSON format.">
<polygon fill="white" stroke="#666666" points="257,-429 146.5,-429 146.5,-397 257,-397 257,-429"/>
<text xml:space="preserve" text-anchor="start" x="154.5" y="-415.5" font-family="Helvetica,sans-Serif" font-size="10.00">nlohmann::basic_json</text>
<text xml:space="preserve" text-anchor="middle" x="201.75" y="-403.5" font-family="Helvetica,sans-Serif" font-size="10.00">::from_bson</text>
</a>
</g>
</g>
<!-- Node1&#45;&gt;Node3 -->
<g id="edge2" class="edge">
<title>Node1&#45;&gt;Node3</title>
<path fill="none" stroke="#63b8ff" d="M1016.18,-274.3C1000.84,-301.63 973.19,-343.61 937.5,-367 851.31,-423.49 815.8,-424 712.75,-424 712.75,-424 712.75,-424 535.38,-424 437.44,-424 323.37,-419.18 257.47,-415.92"/>
<polygon fill="#63b8ff" stroke="#63b8ff" points="1019.21,-276.06 1020.9,-265.6 1013.05,-272.72 1019.21,-276.06"/>
</g>
<!-- Node5 -->
<g id="node5" class="node">
<title>Node5</title>
<g id="a_node5"><a xlink:href="a01659.html#a44dd5635fb2da4710f6cd6e42b72773f" target="_top" xlink:title="create a JSON value from an input in CBOR format">
<polygon fill="white" stroke="#666666" points="257,-367 146.5,-367 146.5,-335 257,-335 257,-367"/>
<text xml:space="preserve" text-anchor="start" x="154.5" y="-353.5" font-family="Helvetica,sans-Serif" font-size="10.00">nlohmann::basic_json</text>
<text xml:space="preserve" text-anchor="middle" x="201.75" y="-341.5" font-family="Helvetica,sans-Serif" font-size="10.00">::from_cbor</text>
</a>
</g>
</g>
<!-- Node1&#45;&gt;Node5 -->
<g id="edge4" class="edge">
<title>Node1&#45;&gt;Node5</title>
<path fill="none" stroke="#63b8ff" d="M1007.48,-272.57C990.1,-290.43 964.41,-313.86 937.5,-328 846.18,-375.99 815.91,-386 712.75,-386 712.75,-386 712.75,-386 535.38,-386 436.95,-386 323.04,-370.66 257.3,-360.29"/>
<polygon fill="#63b8ff" stroke="#63b8ff" points="1009.93,-275.08 1014.28,-265.42 1004.85,-270.26 1009.93,-275.08"/>
</g>
<!-- Node7 -->
<g id="node7" class="node">
<title>Node7</title>
<g id="a_node7"><a xlink:href="a01659.html#adbcab52fca1e25b3311ef14e71a57590" target="_top" xlink:title="create a JSON value from an input in MessagePack format">
<polygon fill="white" stroke="#666666" points="257,-294 146.5,-294 146.5,-262 257,-262 257,-294"/>
<text xml:space="preserve" text-anchor="start" x="154.5" y="-280.5" font-family="Helvetica,sans-Serif" font-size="10.00">nlohmann::basic_json</text>
<text xml:space="preserve" text-anchor="middle" x="201.75" y="-268.5" font-family="Helvetica,sans-Serif" font-size="10.00">::from_msgpack</text>
</a>
</g>
</g>
<!-- Node1&#45;&gt;Node7 -->
<g id="edge6" class="edge">
<title>Node1&#45;&gt;Node7</title>
<path fill="none" stroke="#63b8ff" d="M989.59,-269.35C930.69,-298.72 816.42,-348 712.75,-348 712.75,-348 712.75,-348 535.38,-348 427.21,-348 396.66,-356.9 293,-326 269.36,-318.95 244.78,-305.41 227.26,-294.5"/>
<polygon fill="#63b8ff" stroke="#63b8ff" points="990.9,-272.61 998.24,-264.97 987.74,-266.37 990.9,-272.61"/>
</g>
<!-- Node9 -->
<g id="node9" class="node">
<title>Node9</title>
<g id="a_node9"><a xlink:href="a01659.html#aa81f62db69978b90ff701f05c72e03a7" target="_top" xlink:title="create a JSON value from an input in UBJSON format">
<polygon fill="white" stroke="#666666" points="257,-235 146.5,-235 146.5,-203 257,-203 257,-235"/>
<text xml:space="preserve" text-anchor="start" x="154.5" y="-221.5" font-family="Helvetica,sans-Serif" font-size="10.00">nlohmann::basic_json</text>
<text xml:space="preserve" text-anchor="middle" x="201.75" y="-209.5" font-family="Helvetica,sans-Serif" font-size="10.00">::from_ubjson</text>
</a>
</g>
</g>
<!-- Node1&#45;&gt;Node9 -->
<g id="edge8" class="edge">
<title>Node1&#45;&gt;Node9</title>
<path fill="none" stroke="#63b8ff" d="M989.59,-226.65C930.69,-197.28 816.42,-148 712.75,-148 712.75,-148 712.75,-148 535.38,-148 427.21,-148 396.53,-138.66 293,-170 268.94,-177.28 244.01,-191.41 226.46,-202.63"/>
<polygon fill="#63b8ff" stroke="#63b8ff" points="987.74,-229.63 998.24,-231.03 990.9,-223.39 987.74,-229.63"/>
</g>
<!-- Node11 -->
<g id="node11" class="node">
<title>Node11</title>
<g id="a_node11"><a xlink:href="a01995.html#a26c694413fb860057e1a839d5422b361" target="_top" xlink:title=" ">
<polygon fill="white" stroke="#666666" points="937.5,-270 812.75,-270 812.75,-226 937.5,-226 937.5,-270"/>
<text xml:space="preserve" text-anchor="start" x="820.75" y="-256.5" font-family="Helvetica,sans-Serif" font-size="10.00">nlohmann::detail::binary</text>
<text xml:space="preserve" text-anchor="start" x="820.75" y="-244.5" font-family="Helvetica,sans-Serif" font-size="10.00">_reader::get_ubjson_high</text>
<text xml:space="preserve" text-anchor="middle" x="875.12" y="-232.5" font-family="Helvetica,sans-Serif" font-size="10.00">_precision_number</text>
</a>
</g>
</g>
<!-- Node1&#45;&gt;Node11 -->
<g id="edge10" class="edge">
<title>Node1&#45;&gt;Node11</title>
<path fill="none" stroke="#63b8ff" d="M962.07,-248C954.01,-248 945.81,-248 937.84,-248"/>
<polygon fill="#63b8ff" stroke="#63b8ff" points="961.83,-251.5 971.83,-248 961.83,-244.5 961.83,-251.5"/>
</g>
<!-- Node17 -->
<g id="node17" class="node">
<title>Node17</title>
<g id="a_node17"><a xlink:href="a01659.html#a12b382c6407da5543827ce4b24bb5008" target="_top" xlink:title="generate SAX events">
<polygon fill="white" stroke="#666666" points="257,-166 146.5,-166 146.5,-134 257,-134 257,-166"/>
<text xml:space="preserve" text-anchor="start" x="154.5" y="-152.5" font-family="Helvetica,sans-Serif" font-size="10.00">nlohmann::basic_json</text>
<text xml:space="preserve" text-anchor="middle" x="201.75" y="-140.5" font-family="Helvetica,sans-Serif" font-size="10.00">::sax_parse</text>
</a>
</g>
</g>
<!-- Node1&#45;&gt;Node17 -->
<g id="edge28" class="edge">
<title>Node1&#45;&gt;Node17</title>
<path fill="none" stroke="#63b8ff" d="M1010.46,-222.97C993.49,-202.6 966.92,-174.74 937.5,-159 847.36,-110.76 814.99,-110 712.75,-110 712.75,-110 712.75,-110 535.38,-110 436.79,-110 322.93,-127.54 257.25,-139.39"/>
<polygon fill="#63b8ff" stroke="#63b8ff" points="1007.58,-224.98 1016.6,-230.55 1013.02,-220.57 1007.58,-224.98"/>
</g>
<!-- Node18 -->
<g id="node18" class="node">
<title>Node18</title>
<g id="a_node18"><a xlink:href="a00477.html#a8487ca95646f8368f70e279e9bf63396" target="_top" xlink:title=" ">
<polygon fill="white" stroke="#666666" points="932.25,-82 818,-82 818,-50 932.25,-50 932.25,-82"/>
<text xml:space="preserve" text-anchor="start" x="826" y="-68.5" font-family="Helvetica,sans-Serif" font-size="10.00">nlohmann::detail::input</text>
<text xml:space="preserve" text-anchor="middle" x="875.12" y="-56.5" font-family="Helvetica,sans-Serif" font-size="10.00">_adapter</text>
</a>
</g>
</g>
<!-- Node1&#45;&gt;Node18 -->
<g id="edge25" class="edge">
<title>Node1&#45;&gt;Node18</title>
<path fill="none" stroke="#63b8ff" d="M1019.16,-221.49C1004.96,-188.44 976.8,-131.9 937.5,-96 931.81,-90.8 925.05,-86.31 918.13,-82.5"/>
<polygon fill="#63b8ff" stroke="#63b8ff" points="1015.77,-222.46 1022.85,-230.35 1022.23,-219.77 1015.77,-222.46"/>
</g>
<!-- Node19 -->
<g id="node19" class="node">
<title>Node19</title>
<g id="a_node19"><a xlink:href="a01659.html#a15018ade392a844ea32d5188d1a0b9c6" target="_top" xlink:title="deserialize from a compatible input">
<polygon fill="white" stroke="#666666" points="930.38,-32 819.88,-32 819.88,0 930.38,0 930.38,-32"/>
<text xml:space="preserve" text-anchor="start" x="827.88" y="-18.5" font-family="Helvetica,sans-Serif" font-size="10.00">nlohmann::basic_json</text>
<text xml:space="preserve" text-anchor="middle" x="875.12" y="-6.5" font-family="Helvetica,sans-Serif" font-size="10.00">::parse</text>
</a>
</g>
</g>
<!-- Node1&#45;&gt;Node19 -->
<g id="edge26" class="edge">
<title>Node1&#45;&gt;Node19</title>
<path fill="none" stroke="#63b8ff" d="M1024.3,-220.49C1014.51,-176.85 989.67,-91.53 937.5,-41 934.11,-37.72 930.23,-34.85 926.11,-32.34"/>
<polygon fill="#63b8ff" stroke="#63b8ff" points="1020.85,-221.1 1026.36,-230.15 1027.7,-219.64 1020.85,-221.1"/>
</g>
<!-- Node4 -->
<g id="node4" class="node">
<title>Node4</title>
<g id="a_node4"><a xlink:href="a01659.html#ae2612581e4788ddffc2f45d5e4cc04fc" target="_top" xlink:title=" ">
<polygon fill="white" stroke="#666666" points="110.5,-429 0,-429 0,-397 110.5,-397 110.5,-429"/>
<text xml:space="preserve" text-anchor="start" x="8" y="-415.5" font-family="Helvetica,sans-Serif" font-size="10.00">nlohmann::basic_json</text>
<text xml:space="preserve" text-anchor="middle" x="55.25" y="-403.5" font-family="Helvetica,sans-Serif" font-size="10.00">::from_bson</text>
</a>
</g>
</g>
<!-- Node3&#45;&gt;Node4 -->
<g id="edge3" class="edge">
<title>Node3&#45;&gt;Node4</title>
<path fill="none" stroke="#63b8ff" d="M134.63,-413C126.71,-413 118.69,-413 110.96,-413"/>
<polygon fill="#63b8ff" stroke="#63b8ff" points="134.61,-416.5 144.61,-413 134.61,-409.5 134.61,-416.5"/>
</g>
<!-- Node6 -->
<g id="node6" class="node">
<title>Node6</title>
<g id="a_node6"><a xlink:href="a01659.html#a188755c8cda27e2afb03c016c14125d8" target="_top" xlink:title=" ">
<polygon fill="white" stroke="#666666" points="110.5,-367 0,-367 0,-335 110.5,-335 110.5,-367"/>
<text xml:space="preserve" text-anchor="start" x="8" y="-353.5" font-family="Helvetica,sans-Serif" font-size="10.00">nlohmann::basic_json</text>
<text xml:space="preserve" text-anchor="middle" x="55.25" y="-341.5" font-family="Helvetica,sans-Serif" font-size="10.00">::from_cbor</text>
</a>
</g>
</g>
<!-- Node5&#45;&gt;Node6 -->
<g id="edge5" class="edge">
<title>Node5&#45;&gt;Node6</title>
<path fill="none" stroke="#63b8ff" d="M134.63,-351C126.71,-351 118.69,-351 110.96,-351"/>
<polygon fill="#63b8ff" stroke="#63b8ff" points="134.61,-354.5 144.61,-351 134.61,-347.5 134.61,-354.5"/>
</g>
<!-- Node8 -->
<g id="node8" class="node">
<title>Node8</title>
<g id="a_node8"><a xlink:href="a01659.html#a0d69d3102639759d5202a6f764760d23" target="_top" xlink:title=" ">
<polygon fill="white" stroke="#666666" points="110.5,-294 0,-294 0,-262 110.5,-262 110.5,-294"/>
<text xml:space="preserve" text-anchor="start" x="8" y="-280.5" font-family="Helvetica,sans-Serif" font-size="10.00">nlohmann::basic_json</text>
<text xml:space="preserve" text-anchor="middle" x="55.25" y="-268.5" font-family="Helvetica,sans-Serif" font-size="10.00">::from_msgpack</text>
</a>
</g>
</g>
<!-- Node7&#45;&gt;Node8 -->
<g id="edge7" class="edge">
<title>Node7&#45;&gt;Node8</title>
<path fill="none" stroke="#63b8ff" d="M134.63,-278C126.71,-278 118.69,-278 110.96,-278"/>
<polygon fill="#63b8ff" stroke="#63b8ff" points="134.61,-281.5 144.61,-278 134.61,-274.5 134.61,-281.5"/>
</g>
<!-- Node10 -->
<g id="node10" class="node">
<title>Node10</title>
<g id="a_node10"><a xlink:href="a01659.html#ab6eeda23c34cee79d8d72f1a8691a8de" target="_top" xlink:title=" ">
<polygon fill="white" stroke="#666666" points="110.5,-235 0,-235 0,-203 110.5,-203 110.5,-235"/>
<text xml:space="preserve" text-anchor="start" x="8" y="-221.5" font-family="Helvetica,sans-Serif" font-size="10.00">nlohmann::basic_json</text>
<text xml:space="preserve" text-anchor="middle" x="55.25" y="-209.5" font-family="Helvetica,sans-Serif" font-size="10.00">::from_ubjson</text>
</a>
</g>
</g>
<!-- Node9&#45;&gt;Node10 -->
<g id="edge9" class="edge">
<title>Node9&#45;&gt;Node10</title>
<path fill="none" stroke="#63b8ff" d="M134.63,-219C126.71,-219 118.69,-219 110.96,-219"/>
<polygon fill="#63b8ff" stroke="#63b8ff" points="134.61,-222.5 144.61,-219 134.61,-215.5 134.61,-222.5"/>
</g>
<!-- Node12 -->
<g id="node12" class="node">
<title>Node12</title>
<g id="a_node12"><a xlink:href="a01995.html#a7e5e0b71548d0649ce4f131280d06c33" target="_top" xlink:title=" ">
<polygon fill="white" stroke="#666666" points="776.75,-264 646.75,-264 646.75,-232 776.75,-232 776.75,-264"/>
<text xml:space="preserve" text-anchor="start" x="654.75" y="-250.5" font-family="Helvetica,sans-Serif" font-size="10.00">nlohmann::detail::binary</text>
<text xml:space="preserve" text-anchor="middle" x="711.75" y="-238.5" font-family="Helvetica,sans-Serif" font-size="10.00">_reader::get_ubjson_value</text>
</a>
</g>
</g>
<!-- Node11&#45;&gt;Node12 -->
<g id="edge11" class="edge">
<title>Node11&#45;&gt;Node12</title>
<path fill="none" stroke="#63b8ff" d="M801.3,-248C793.2,-248 784.99,-248 777,-248"/>
<polygon fill="#63b8ff" stroke="#63b8ff" points="801.14,-251.5 811.14,-248 801.14,-244.5 801.14,-251.5"/>
</g>
<!-- Node13 -->
<g id="node13" class="node">
<title>Node13</title>
<g id="a_node13"><a xlink:href="a01995.html#afb36cb588b795efa513fc95e949493b7" target="_top" xlink:title=" ">
<polygon fill="white" stroke="#666666" points="423.75,-317 295.25,-317 295.25,-285 423.75,-285 423.75,-317"/>
<text xml:space="preserve" text-anchor="start" x="303.25" y="-303.5" font-family="Helvetica,sans-Serif" font-size="10.00">nlohmann::detail::binary</text>
<text xml:space="preserve" text-anchor="middle" x="359.5" y="-291.5" font-family="Helvetica,sans-Serif" font-size="10.00">_reader::get_ubjson_array</text>
</a>
</g>
</g>
<!-- Node12&#45;&gt;Node13 -->
<g id="edge12" class="edge">
<title>Node12&#45;&gt;Node13</title>
<path fill="none" stroke="#63b8ff" d="M635.29,-259.05C627.04,-260.85 618.74,-262.56 610.75,-264 547.72,-275.35 474.87,-282.88 424.09,-288.93"/>
<polygon fill="#63b8ff" stroke="#63b8ff" points="635.99,-262.48 644.99,-256.89 634.47,-255.65 635.99,-262.48"/>
</g>
<!-- Node14 -->
<g id="node14" class="node">
<title>Node14</title>
<g id="a_node14"><a xlink:href="a01995.html#adcf64ad3207f4bf37a5a31c920a385c3" target="_top" xlink:title=" ">
<polygon fill="white" stroke="#666666" points="426,-211 293,-211 293,-179 426,-179 426,-211"/>
<text xml:space="preserve" text-anchor="start" x="301" y="-197.5" font-family="Helvetica,sans-Serif" font-size="10.00">nlohmann::detail::binary</text>
<text xml:space="preserve" text-anchor="middle" x="359.5" y="-185.5" font-family="Helvetica,sans-Serif" font-size="10.00">_reader::get_ubjson_object</text>
</a>
</g>
</g>
<!-- Node12&#45;&gt;Node14 -->
<g id="edge14" class="edge">
<title>Node12&#45;&gt;Node14</title>
<path fill="none" stroke="#63b8ff" d="M669.39,-228.07C651.48,-222.64 630.2,-217.5 610.75,-214 548.69,-202.82 477.11,-195.35 426.45,-192.57"/>
<polygon fill="#63b8ff" stroke="#63b8ff" points="668.31,-231.39 678.9,-231.1 670.44,-224.73 668.31,-231.39"/>
</g>
<!-- Node15 -->
<g id="node15" class="node">
<title>Node15</title>
<g id="a_node15"><a xlink:href="a01995.html#a5a79480d661019b0f3fc615ae12f7de7" target="_top" xlink:title=" ">
<polygon fill="white" stroke="#666666" points="610.75,-264 462,-264 462,-232 610.75,-232 610.75,-264"/>
<text xml:space="preserve" text-anchor="start" x="470" y="-250.5" font-family="Helvetica,sans-Serif" font-size="10.00">nlohmann::detail::binary</text>
<text xml:space="preserve" text-anchor="middle" x="536.38" y="-238.5" font-family="Helvetica,sans-Serif" font-size="10.00">_reader::parse_ubjson_internal</text>
</a>
</g>
</g>
<!-- Node12&#45;&gt;Node15 -->
<g id="edge16" class="edge">
<title>Node12&#45;&gt;Node15</title>
<path fill="none" stroke="#63b8ff" d="M635.41,-248C627.36,-248 619.17,-248 611.13,-248"/>
<polygon fill="#63b8ff" stroke="#63b8ff" points="635.17,-251.5 645.17,-248 635.17,-244.5 635.17,-251.5"/>
</g>
<!-- Node13&#45;&gt;Node12 -->
<g id="edge13" class="edge">
<title>Node13&#45;&gt;Node12</title>
<path fill="none" stroke="#63b8ff" d="M435.43,-302.9C485.35,-299.77 552.27,-292.53 610.75,-282 634.35,-277.75 660.64,-271.1 680.34,-264.43"/>
<polygon fill="#63b8ff" stroke="#63b8ff" points="435.38,-299.4 425.6,-303.47 435.79,-306.39 435.38,-299.4"/>
</g>
<!-- Node14&#45;&gt;Node12 -->
<g id="edge15" class="edge">
<title>Node14&#45;&gt;Node12</title>
<path fill="none" stroke="#63b8ff" d="M437.75,-208.67C487.41,-214.45 553.17,-221.63 610.75,-232 622.37,-234.09 634.65,-236.77 646.47,-239.43"/>
<polygon fill="#63b8ff" stroke="#63b8ff" points="438.29,-205.21 427.95,-207.52 437.47,-212.17 438.29,-205.21"/>
</g>
<!-- Node15&#45;&gt;Node13 -->
<g id="edge17" class="edge">
<title>Node15&#45;&gt;Node13</title>
<path fill="none" stroke="#63b8ff" d="M470.17,-267.76C451.95,-273.28 432.36,-279.22 414.84,-284.53"/>
<polygon fill="#63b8ff" stroke="#63b8ff" points="471,-271.17 479.55,-264.92 468.97,-264.47 471,-271.17"/>
</g>
<!-- Node15&#45;&gt;Node14 -->
<g id="edge18" class="edge">
<title>Node15&#45;&gt;Node14</title>
<path fill="none" stroke="#63b8ff" d="M470.17,-228.24C451.95,-222.72 432.36,-216.78 414.84,-211.47"/>
<polygon fill="#63b8ff" stroke="#63b8ff" points="468.97,-231.53 479.55,-231.08 471,-224.83 468.97,-231.53"/>
</g>
<!-- Node16 -->
<g id="node16" class="node">
<title>Node16</title>
<g id="a_node16"><a xlink:href="a01995.html#ab4afd9ee276bbb15a0f898061aad94dd" target="_top" xlink:title=" ">
<polygon fill="white" stroke="#666666" points="419.25,-265 299.75,-265 299.75,-233 419.25,-233 419.25,-265"/>
<text xml:space="preserve" text-anchor="start" x="307.75" y="-251.5" font-family="Helvetica,sans-Serif" font-size="10.00">nlohmann::detail::binary</text>
<text xml:space="preserve" text-anchor="middle" x="359.5" y="-239.5" font-family="Helvetica,sans-Serif" font-size="10.00">_reader::sax_parse</text>
</a>
</g>
</g>
<!-- Node15&#45;&gt;Node16 -->
<g id="edge19" class="edge">
<title>Node15&#45;&gt;Node16</title>
<path fill="none" stroke="#63b8ff" d="M450.49,-248.49C440.09,-248.54 429.65,-248.6 419.75,-248.66"/>
<polygon fill="#63b8ff" stroke="#63b8ff" points="450.23,-251.99 460.21,-248.43 450.19,-244.99 450.23,-251.99"/>
</g>
<!-- Node16&#45;&gt;Node3 -->
<g id="edge20" class="edge">
<title>Node16&#45;&gt;Node3</title>
<path fill="none" stroke="#63b8ff" d="M297.27,-271.99C295.77,-273.26 294.34,-274.59 293,-276 260.37,-310.15 285.92,-338.65 257,-376 250.79,-384.02 242.34,-390.94 233.96,-396.55"/>
<polygon fill="#63b8ff" stroke="#63b8ff" points="299.12,-274.97 305.24,-266.32 295.06,-269.26 299.12,-274.97"/>
</g>
<!-- Node16&#45;&gt;Node5 -->
<g id="edge21" class="edge">
<title>Node16&#45;&gt;Node5</title>
<path fill="none" stroke="#63b8ff" d="M303.37,-270.27C299.8,-272.09 296.31,-274 293,-276 278.08,-284.99 242.82,-315.43 221.06,-334.66"/>
<polygon fill="#63b8ff" stroke="#63b8ff" points="304.69,-273.52 312.21,-266.05 301.67,-267.2 304.69,-273.52"/>
</g>
<!-- Node16&#45;&gt;Node7 -->
<g id="edge22" class="edge">
<title>Node16&#45;&gt;Node7</title>
<path fill="none" stroke="#63b8ff" d="M288.42,-262.05C278,-263.99 267.39,-265.96 257.35,-267.83"/>
<polygon fill="#63b8ff" stroke="#63b8ff" points="288.94,-265.51 298.13,-260.24 287.66,-258.63 288.94,-265.51"/>
</g>
<!-- Node16&#45;&gt;Node9 -->
<g id="edge23" class="edge">
<title>Node16&#45;&gt;Node9</title>
<path fill="none" stroke="#63b8ff" d="M288.42,-235.5C278,-233.49 267.39,-231.45 257.35,-229.52"/>
<polygon fill="#63b8ff" stroke="#63b8ff" points="287.65,-238.92 298.13,-237.37 288.97,-232.04 287.65,-238.92"/>
</g>
<!-- Node16&#45;&gt;Node17 -->
<g id="edge24" class="edge">
<title>Node16&#45;&gt;Node17</title>
<path fill="none" stroke="#63b8ff" d="M307.17,-227.73C302.3,-225.28 297.5,-222.69 293,-220 278.78,-211.51 244.71,-184.31 222.73,-166.42"/>
<polygon fill="#63b8ff" stroke="#63b8ff" points="305.3,-230.71 315.83,-231.89 308.34,-224.4 305.3,-230.71"/>
</g>
<!-- Node20 -->
<g id="node20" class="node">
<title>Node20</title>
<g id="a_node20"><a xlink:href="a00272.html#ae90d59ab420a183cd5fb8588bdc95e06" target="_top" xlink:title="user&#45;defined string literal for JSON values">
<polygon fill="white" stroke="#666666" points="752.75,-26 670.75,-26 670.75,-6 752.75,-6 752.75,-26"/>
<text xml:space="preserve" text-anchor="middle" x="711.75" y="-12.5" font-family="Helvetica,sans-Serif" font-size="10.00">operator&quot;&quot;_json</text>
</a>
</g>
</g>
<!-- Node19&#45;&gt;Node20 -->
<g id="edge27" class="edge">
<title>Node19&#45;&gt;Node20</title>
<path fill="none" stroke="#63b8ff" d="M808.06,-16C789.41,-16 769.68,-16 753.04,-16"/>
<polygon fill="#63b8ff" stroke="#63b8ff" points="807.98,-19.5 817.98,-16 807.98,-12.5 807.98,-19.5"/>
</g>
</g>
</svg>
