<?xml version="1.0" encoding="UTF-8" standalone="no"?>
<!DOCTYPE svg PUBLIC "-//W3C//DTD SVG 1.1//EN"
 "http://www.w3.org/Graphics/SVG/1.1/DTD/svg11.dtd">
<!-- Generated by graphviz version 13.1.2 (20250808.2320)
 -->
<!-- Title: HF::nanoGeom::nanoRT_Intersect Pages: 1 -->
<svg width="474pt" height="66pt"
 viewBox="0.00 0.00 474.00 66.00" xmlns="http://www.w3.org/2000/svg" xmlns:xlink="http://www.w3.org/1999/xlink">
<g id="graph0" class="graph" transform="scale(1 1) rotate(0) translate(4 62)">
<title>HF::nanoGeom::nanoRT_Intersect</title>
<!-- Node1 -->
<g id="node1" class="node">
<title>Node1</title>
<g id="a_node1"><a xlink:title=" ">
<polygon fill="#999999" stroke="#666666" points="122.5,-45 0,-45 0,-13 122.5,-13 122.5,-45"/>
<text xml:space="preserve" text-anchor="start" x="8" y="-31.5" font-family="Helvetica,sans-Serif" font-size="10.00">HF::nanoGeom::nanoRT</text>
<text xml:space="preserve" text-anchor="middle" x="61.25" y="-19.5" font-family="Helvetica,sans-Serif" font-size="10.00">_Intersect</text>
</a>
</g>
</g>
<!-- Node2 -->
<g id="node2" class="node">
<title>Node2</title>
<g id="a_node2"><a xlink:href="a01483.html#a4d07d0fc035d860dd1bfbeaa90c14a11" target="_top" xlink:title="Traverse into BVH along ray and find closest hit point &amp; primitive if found.">
<polygon fill="white" stroke="#666666" points="297.5,-39 158.5,-39 158.5,-19 297.5,-19 297.5,-39"/>
<text xml:space="preserve" text-anchor="middle" x="228" y="-25.5" font-family="Helvetica,sans-Serif" font-size="10.00">nanort::BVHAccel::Traverse</text>
</a>
</g>
</g>
<!-- Node1&#45;&gt;Node2 -->
<g id="edge1" class="edge">
<title>Node1&#45;&gt;Node2</title>
<path fill="none" stroke="#63b8ff" d="M122.66,-29C130.53,-29 138.68,-29 146.8,-29"/>
<polygon fill="#63b8ff" stroke="#63b8ff" points="146.72,-32.5 156.72,-29 146.72,-25.5 146.72,-32.5"/>
</g>
<!-- Node3 -->
<g id="node3" class="node">
<title>Node3</title>
<g id="a_node3"><a xlink:href="a00474.html#aa5a9a561d084639fafc84873ab8f3d51" target="_top" xlink:title=" ">
<polygon fill="white" stroke="#666666" points="465.75,-58 333.5,-58 333.5,-38 465.75,-38 465.75,-58"/>
<text xml:space="preserve" text-anchor="middle" x="399.62" y="-44.5" font-family="Helvetica,sans-Serif" font-size="10.00">nanort::IntersectRayAABB</text>
</a>
</g>
</g>
<!-- Node2&#45;&gt;Node3 -->
<g id="edge2" class="edge">
<title>Node2&#45;&gt;Node3</title>
<path fill="none" stroke="#63b8ff" d="M297.99,-36.73C305.91,-37.61 314.02,-38.52 322.03,-39.42"/>
<polygon fill="#63b8ff" stroke="#63b8ff" points="321.42,-42.87 331.75,-40.51 322.2,-35.92 321.42,-42.87"/>
</g>
<!-- Node4 -->
<g id="node4" class="node">
<title>Node4</title>
<g id="a_node4"><a xlink:href="a00474.html#aa6d08ee0bfbbaa13319f31e5412111bc" target="_top" xlink:title=" ">
<polygon fill="white" stroke="#666666" points="454.5,-20 344.75,-20 344.75,0 454.5,0 454.5,-20"/>
<text xml:space="preserve" text-anchor="middle" x="399.62" y="-6.5" font-family="Helvetica,sans-Serif" font-size="10.00">nanort::vsafe_inverse</text>
</a>
</g>
</g>
<!-- Node2&#45;&gt;Node4 -->
<g id="edge3" class="edge">
<title>Node2&#45;&gt;Node4</title>
<path fill="none" stroke="#63b8ff" d="M297.99,-21.27C309.55,-19.98 321.51,-18.64 332.98,-17.35"/>
<polygon fill="#63b8ff" stroke="#63b8ff" points="333.2,-20.85 342.75,-16.26 332.42,-13.89 333.2,-20.85"/>
</g>
</g>
</svg>
