<?xml version="1.0" encoding="UTF-8" standalone="no"?>
<!DOCTYPE svg PUBLIC "-//W3C//DTD SVG 1.1//EN"
 "http://www.w3.org/Graphics/SVG/1.1/DTD/svg11.dtd">
<!-- Generated by graphviz version 13.1.2 (20250808.2320)
 -->
<!-- Title: Cinterface/analysis_C.h Pages: 1 -->
<svg width="156pt" height="140pt"
 viewBox="0.00 0.00 156.00 140.00" xmlns="http://www.w3.org/2000/svg" xmlns:xlink="http://www.w3.org/1999/xlink">
<g id="graph0" class="graph" transform="scale(1 1) rotate(0) translate(4 136)">
<title>Cinterface/analysis_C.h</title>
<!-- Node1 -->
<g id="node1" class="node">
<title>Node1</title>
<g id="a_node1"><a xlink:title="Header file for C Interface functions related to graph generation.">
<polygon fill="#999999" stroke="#666666" points="148,-132 27,-132 27,-112 148,-112 148,-132"/>
<text xml:space="preserve" text-anchor="middle" x="87.5" y="-118.5" font-family="Helvetica,sans-Serif" font-size="10.00">Cinterface/analysis_C.h</text>
</a>
</g>
</g>
<!-- Node2 -->
<g id="node2" class="node">
<title>Node2</title>
<g id="a_node2"><a xlink:href="a00413.html" target="_top" xlink:title=" ">
<polygon fill="white" stroke="#666666" points="132.62,-76 42.38,-76 42.38,-56 132.62,-56 132.62,-76"/>
<text xml:space="preserve" text-anchor="middle" x="87.5" y="-62.5" font-family="Helvetica,sans-Serif" font-size="10.00">cinterface_utils.h</text>
</a>
</g>
</g>
<!-- Node1&#45;&gt;Node2 -->
<g id="edge1" class="edge">
<title>Node1&#45;&gt;Node2</title>
<path fill="none" stroke="#63b8ff" d="M87.5,-111.59C87.5,-105.01 87.5,-95.96 87.5,-87.73"/>
<polygon fill="#63b8ff" stroke="#63b8ff" points="91,-87.81 87.5,-77.81 84,-87.81 91,-87.81"/>
</g>
<!-- Node3 -->
<g id="node3" class="node">
<title>Node3</title>
<g id="a_node3"><a xlink:title=" ">
<polygon fill="#e0e0e0" stroke="#999999" points="43,-20 0,-20 0,0 43,0 43,-20"/>
<text xml:space="preserve" text-anchor="middle" x="21.5" y="-6.5" font-family="Helvetica,sans-Serif" font-size="10.00">vector</text>
</a>
</g>
</g>
<!-- Node1&#45;&gt;Node3 -->
<g id="edge4" class="edge">
<title>Node1&#45;&gt;Node3</title>
<path fill="none" stroke="#63b8ff" d="M70.89,-111.57C58.57,-103.68 42.43,-91.27 33.5,-76 25.6,-62.49 22.71,-44.92 21.73,-31.46"/>
<polygon fill="#63b8ff" stroke="#63b8ff" points="25.24,-31.44 21.35,-21.58 18.24,-31.71 25.24,-31.44"/>
</g>
<!-- Node4 -->
<g id="node4" class="node">
<title>Node4</title>
<g id="a_node4"><a xlink:title=" ">
<polygon fill="#e0e0e0" stroke="#999999" points="142.38,-20 104.62,-20 104.62,0 142.38,0 142.38,-20"/>
<text xml:space="preserve" text-anchor="middle" x="123.5" y="-6.5" font-family="Helvetica,sans-Serif" font-size="10.00">array</text>
</a>
</g>
</g>
<!-- Node1&#45;&gt;Node4 -->
<g id="edge5" class="edge">
<title>Node1&#45;&gt;Node4</title>
<path fill="none" stroke="#63b8ff" d="M105.72,-111.51C118.34,-103.82 134.15,-91.69 141.5,-76 148.41,-61.25 142.5,-43.35 135.66,-30.07"/>
<polygon fill="#63b8ff" stroke="#63b8ff" points="138.74,-28.4 130.71,-21.48 132.67,-31.89 138.74,-28.4"/>
</g>
<!-- Node2&#45;&gt;Node3 -->
<g id="edge2" class="edge">
<title>Node2&#45;&gt;Node3</title>
<path fill="none" stroke="#63b8ff" d="M76,-55.59C66.54,-47.85 52.9,-36.69 41.63,-27.47"/>
<polygon fill="#63b8ff" stroke="#63b8ff" points="43.99,-24.88 34.04,-21.26 39.56,-30.3 43.99,-24.88"/>
</g>
<!-- Node2&#45;&gt;Node4 -->
<g id="edge3" class="edge">
<title>Node2&#45;&gt;Node4</title>
<path fill="none" stroke="#63b8ff" d="M93.77,-55.59C98.52,-48.47 105.2,-38.45 111.02,-29.72"/>
<polygon fill="#63b8ff" stroke="#63b8ff" points="113.83,-31.82 116.46,-21.56 108,-27.94 113.83,-31.82"/>
</g>
</g>
</svg>
