<?xml version="1.0" encoding="UTF-8" standalone="no"?>
<!DOCTYPE svg PUBLIC "-//W3C//DTD SVG 1.1//EN"
 "http://www.w3.org/Graphics/SVG/1.1/DTD/svg11.dtd">
<!-- Generated by graphviz version 13.1.2 (20250808.2320)
 -->
<!-- Title: HF::GraphGenerator::CheckRay Pages: 1 -->
<svg width="1088pt" height="146pt"
 viewBox="0.00 0.00 1088.00 146.00" xmlns="http://www.w3.org/2000/svg" xmlns:xlink="http://www.w3.org/1999/xlink">
<g id="graph0" class="graph" transform="scale(1 1) rotate(0) translate(4 142)">
<title>HF::GraphGenerator::CheckRay</title>
<!-- Node1 -->
<g id="node1" class="node">
<title>Node1</title>
<g id="a_node1"><a xlink:title="Cast a ray and get the point of intersection if it connects.">
<polygon fill="#999999" stroke="#666666" points="1080.25,-57 975.75,-57 975.75,-25 1080.25,-25 1080.25,-57"/>
<text xml:space="preserve" text-anchor="start" x="983.75" y="-43.5" font-family="Helvetica,sans-Serif" font-size="10.00">HF::GraphGenerator</text>
<text xml:space="preserve" text-anchor="middle" x="1028" y="-31.5" font-family="Helvetica,sans-Serif" font-size="10.00">::CheckRay</text>
</a>
</g>
</g>
<!-- Node2 -->
<g id="node2" class="node">
<title>Node2</title>
<g id="a_node2"><a xlink:href="a00463.html#a4b7cc0ad0002975404acef5064f4f546" target="_top" xlink:title="Determine whether children are over valid ground, and and meet upstep/downstep requirements.">
<polygon fill="white" stroke="#666666" points="939.75,-80 835.25,-80 835.25,-48 939.75,-48 939.75,-80"/>
<text xml:space="preserve" text-anchor="start" x="843.25" y="-66.5" font-family="Helvetica,sans-Serif" font-size="10.00">HF::GraphGenerator</text>
<text xml:space="preserve" text-anchor="middle" x="887.5" y="-54.5" font-family="Helvetica,sans-Serif" font-size="10.00">::CheckChildren</text>
</a>
</g>
</g>
<!-- Node1&#45;&gt;Node2 -->
<g id="edge1" class="edge">
<title>Node1&#45;&gt;Node2</title>
<path fill="none" stroke="#63b8ff" d="M964.17,-51.43C956.12,-52.77 947.96,-54.13 940.12,-55.43"/>
<polygon fill="#63b8ff" stroke="#63b8ff" points="964.64,-54.9 973.93,-49.81 963.5,-48 964.64,-54.9"/>
</g>
<!-- Node10 -->
<g id="node10" class="node">
<title>Node10</title>
<g id="a_node10"><a xlink:href="a00463.html#a9ddffecb75b34434d7157b49d3c67b60" target="_top" xlink:title="Determine if the start point of the graph is over valid ground.">
<polygon fill="white" stroke="#666666" points="799.25,-32 694.75,-32 694.75,0 799.25,0 799.25,-32"/>
<text xml:space="preserve" text-anchor="start" x="702.75" y="-18.5" font-family="Helvetica,sans-Serif" font-size="10.00">HF::GraphGenerator</text>
<text xml:space="preserve" text-anchor="middle" x="747" y="-6.5" font-family="Helvetica,sans-Serif" font-size="10.00">::ValidateStartPoint</text>
</a>
</g>
</g>
<!-- Node1&#45;&gt;Node10 -->
<g id="edge10" class="edge">
<title>Node1&#45;&gt;Node10</title>
<path fill="none" stroke="#63b8ff" d="M964.27,-35.38C914.63,-30.93 846.18,-24.8 799.67,-20.63"/>
<polygon fill="#63b8ff" stroke="#63b8ff" points="963.72,-38.84 973.99,-36.25 964.35,-31.87 963.72,-38.84"/>
</g>
<!-- Node3 -->
<g id="node3" class="node">
<title>Node3</title>
<g id="a_node3"><a xlink:href="a00463.html#ab7ffcc7d6657ce276c06deed24c546a4" target="_top" xlink:title="Calculate all possible edges between parent and possible_children.">
<polygon fill="white" stroke="#666666" points="799.25,-82 694.75,-82 694.75,-50 799.25,-50 799.25,-82"/>
<text xml:space="preserve" text-anchor="start" x="702.75" y="-68.5" font-family="Helvetica,sans-Serif" font-size="10.00">HF::GraphGenerator</text>
<text xml:space="preserve" text-anchor="middle" x="747" y="-56.5" font-family="Helvetica,sans-Serif" font-size="10.00">::GetChildren</text>
</a>
</g>
</g>
<!-- Node2&#45;&gt;Node3 -->
<g id="edge2" class="edge">
<title>Node2&#45;&gt;Node3</title>
<path fill="none" stroke="#63b8ff" d="M823.67,-64.91C815.62,-65.02 807.46,-65.14 799.62,-65.25"/>
<polygon fill="#63b8ff" stroke="#63b8ff" points="823.47,-68.41 833.41,-64.77 823.36,-61.41 823.47,-68.41"/>
</g>
<!-- Node4 -->
<g id="node4" class="node">
<title>Node4</title>
<g id="a_node4"><a xlink:href="a01311.html#ac7052d4b625fb96f29c5bfc091a86f7e" target="_top" xlink:title="Perform breadth first search to populate the graph with with nodes and edges.">
<polygon fill="white" stroke="#666666" points="658.75,-138 510,-138 510,-106 658.75,-106 658.75,-138"/>
<text xml:space="preserve" text-anchor="start" x="518" y="-124.5" font-family="Helvetica,sans-Serif" font-size="10.00">HF::GraphGenerator</text>
<text xml:space="preserve" text-anchor="middle" x="584.38" y="-112.5" font-family="Helvetica,sans-Serif" font-size="10.00">::GraphGenerator::CrawlGeom</text>
</a>
</g>
</g>
<!-- Node3&#45;&gt;Node4 -->
<g id="edge3" class="edge">
<title>Node3&#45;&gt;Node4</title>
<path fill="none" stroke="#63b8ff" d="M689.74,-86.11C679.44,-89.76 668.78,-93.51 658.75,-97 650.74,-99.79 642.23,-102.72 633.95,-105.55"/>
<polygon fill="#63b8ff" stroke="#63b8ff" points="690.62,-89.51 698.88,-82.87 688.28,-82.91 690.62,-89.51"/>
</g>
<!-- Node9 -->
<g id="node9" class="node">
<title>Node9</title>
<g id="a_node9"><a xlink:href="a01311.html#a843cc6b5b69b5d013930b3685789fa15" target="_top" xlink:title="Perform breadth first search to populate the graph with nodes and edges using multiple cores.">
<polygon fill="white" stroke="#666666" points="658.75,-88 510,-88 510,-44 658.75,-44 658.75,-88"/>
<text xml:space="preserve" text-anchor="start" x="518" y="-74.5" font-family="Helvetica,sans-Serif" font-size="10.00">HF::GraphGenerator</text>
<text xml:space="preserve" text-anchor="start" x="518" y="-62.5" font-family="Helvetica,sans-Serif" font-size="10.00">::GraphGenerator::CrawlGeom</text>
<text xml:space="preserve" text-anchor="middle" x="584.38" y="-50.5" font-family="Helvetica,sans-Serif" font-size="10.00">Parallel</text>
</a>
</g>
</g>
<!-- Node3&#45;&gt;Node9 -->
<g id="edge8" class="edge">
<title>Node3&#45;&gt;Node9</title>
<path fill="none" stroke="#63b8ff" d="M683.04,-66C675.22,-66 667.17,-66 659.21,-66"/>
<polygon fill="#63b8ff" stroke="#63b8ff" points="682.78,-69.5 692.78,-66 682.78,-62.5 682.78,-69.5"/>
</g>
<!-- Node5 -->
<g id="node5" class="node">
<title>Node5</title>
<g id="a_node5"><a xlink:href="a01311.html#a5788e421d921ec0ff27defc139c45106" target="_top" xlink:title="Generate a graph of accessible space.">
<polygon fill="white" stroke="#666666" points="474,-88 353.75,-88 353.75,-44 474,-44 474,-88"/>
<text xml:space="preserve" text-anchor="start" x="361.75" y="-74.5" font-family="Helvetica,sans-Serif" font-size="10.00">HF::GraphGenerator</text>
<text xml:space="preserve" text-anchor="start" x="361.75" y="-62.5" font-family="Helvetica,sans-Serif" font-size="10.00">::GraphGenerator::IMPL</text>
<text xml:space="preserve" text-anchor="middle" x="413.88" y="-50.5" font-family="Helvetica,sans-Serif" font-size="10.00">_BuildNetwork</text>
</a>
</g>
</g>
<!-- Node4&#45;&gt;Node5 -->
<g id="edge4" class="edge">
<title>Node4&#45;&gt;Node5</title>
<path fill="none" stroke="#63b8ff" d="M522.99,-101.93C507.14,-96.67 490.07,-90.99 474.28,-85.74"/>
<polygon fill="#63b8ff" stroke="#63b8ff" points="521.7,-105.19 532.29,-105.02 523.91,-98.55 521.7,-105.19"/>
</g>
<!-- Node6 -->
<g id="node6" class="node">
<title>Node6</title>
<g id="a_node6"><a xlink:href="a01311.html#a0c12341433bbec41cc12cc1dbb41a976" target="_top" xlink:title="Generate a graph of accessible space.">
<polygon fill="white" stroke="#666666" points="317.75,-82 162.25,-82 162.25,-50 317.75,-50 317.75,-82"/>
<text xml:space="preserve" text-anchor="start" x="170.25" y="-68.5" font-family="Helvetica,sans-Serif" font-size="10.00">HF::GraphGenerator</text>
<text xml:space="preserve" text-anchor="middle" x="240" y="-56.5" font-family="Helvetica,sans-Serif" font-size="10.00">::GraphGenerator::BuildNetwork</text>
</a>
</g>
</g>
<!-- Node5&#45;&gt;Node6 -->
<g id="edge5" class="edge">
<title>Node5&#45;&gt;Node6</title>
<path fill="none" stroke="#63b8ff" d="M342.25,-66C334.31,-66 326.19,-66 318.17,-66"/>
<polygon fill="#63b8ff" stroke="#63b8ff" points="342.21,-69.5 352.21,-66 342.21,-62.5 342.21,-69.5"/>
</g>
<!-- Node7 -->
<g id="node7" class="node">
<title>Node7</title>
<g id="a_node7"><a xlink:href="a00454.html#ga2df84a732d1edfb70b7bd26d3282e129" target="_top" xlink:title="Construct a graph by performing a breadth&#45;first search of accessible space.">
<polygon fill="white" stroke="#666666" points="104.12,-95 22.12,-95 22.12,-75 104.12,-75 104.12,-95"/>
<text xml:space="preserve" text-anchor="middle" x="63.12" y="-81.5" font-family="Helvetica,sans-Serif" font-size="10.00">GenerateGraph</text>
</a>
</g>
</g>
<!-- Node6&#45;&gt;Node7 -->
<g id="edge6" class="edge">
<title>Node6&#45;&gt;Node7</title>
<path fill="none" stroke="#63b8ff" d="M150.62,-75.6C134.47,-77.36 118.36,-79.11 104.49,-80.61"/>
<polygon fill="#63b8ff" stroke="#63b8ff" points="150.72,-79.11 160.28,-74.55 149.96,-72.15 150.72,-79.11"/>
</g>
<!-- Node8 -->
<g id="node8" class="node">
<title>Node8</title>
<g id="a_node8"><a xlink:href="a00454.html#gab9f58e3ecc686fa9bc34519b0faed734" target="_top" xlink:title="Construct a graph by performing a breadth&#45;first search of accessible space, seperating obstacles from...">
<polygon fill="white" stroke="#666666" points="126.25,-57 0,-57 0,-37 126.25,-37 126.25,-57"/>
<text xml:space="preserve" text-anchor="middle" x="63.12" y="-43.5" font-family="Helvetica,sans-Serif" font-size="10.00">GenerateGraphObstacles</text>
</a>
</g>
</g>
<!-- Node6&#45;&gt;Node8 -->
<g id="edge7" class="edge">
<title>Node6&#45;&gt;Node8</title>
<path fill="none" stroke="#63b8ff" d="M150.4,-56.37C142.33,-55.5 134.27,-54.62 126.5,-53.78"/>
<polygon fill="#63b8ff" stroke="#63b8ff" points="149.96,-59.85 160.28,-57.45 150.72,-52.89 149.96,-59.85"/>
</g>
<!-- Node9&#45;&gt;Node5 -->
<g id="edge9" class="edge">
<title>Node9&#45;&gt;Node5</title>
<path fill="none" stroke="#63b8ff" d="M498.48,-66C490.34,-66 482.21,-66 474.4,-66"/>
<polygon fill="#63b8ff" stroke="#63b8ff" points="498.45,-69.5 508.45,-66 498.45,-62.5 498.45,-69.5"/>
</g>
<!-- Node10&#45;&gt;Node5 -->
<g id="edge11" class="edge">
<title>Node10&#45;&gt;Node5</title>
<path fill="none" stroke="#63b8ff" d="M682.99,-17.07C635.13,-18.84 567.9,-23.4 510,-35 498.33,-37.34 486.1,-40.64 474.44,-44.23"/>
<polygon fill="#63b8ff" stroke="#63b8ff" points="683.03,-20.57 692.91,-16.73 682.79,-13.57 683.03,-20.57"/>
</g>
</g>
</svg>
