<?xml version="1.0" encoding="UTF-8" standalone="no"?>
<!DOCTYPE svg PUBLIC "-//W3C//DTD SVG 1.1//EN"
 "http://www.w3.org/Graphics/SVG/1.1/DTD/svg11.dtd">
<!-- Generated by graphviz version 13.1.2 (20250808.2320)
 -->
<!-- Title: HF::VisibilityGraph::AllToAllUndirected Pages: 1 -->
<svg width="946pt" height="184pt"
 viewBox="0.00 0.00 946.00 184.00" xmlns="http://www.w3.org/2000/svg" xmlns:xlink="http://www.w3.org/1999/xlink">
<g id="graph0" class="graph" transform="scale(1 1) rotate(0) translate(4 180)">
<title>HF::VisibilityGraph::AllToAllUndirected</title>
<!-- Node1 -->
<g id="node1" class="node">
<title>Node1</title>
<g id="a_node1"><a xlink:title="Generate a Visibility Graph with every edge stored twice.">
<polygon fill="#999999" stroke="#666666" points="102.25,-104 0,-104 0,-72 102.25,-72 102.25,-104"/>
<text xml:space="preserve" text-anchor="start" x="8" y="-90.5" font-family="Helvetica,sans-Serif" font-size="10.00">HF::VisibilityGraph</text>
<text xml:space="preserve" text-anchor="middle" x="51.12" y="-78.5" font-family="Helvetica,sans-Serif" font-size="10.00">::AllToAllUndirected</text>
</a>
</g>
</g>
<!-- Node2 -->
<g id="node2" class="node">
<title>Node2</title>
<g id="a_node2"><a xlink:href="a02071.html#abbd66b566460f9557a373b5fbcc30bb1" target="_top" xlink:title="Calculate the distance between this node and n2.">
<polygon fill="white" stroke="#666666" points="403.5,-126 293,-126 293,-94 403.5,-94 403.5,-126"/>
<text xml:space="preserve" text-anchor="start" x="301" y="-112.5" font-family="Helvetica,sans-Serif" font-size="10.00">HF::SpatialStructures</text>
<text xml:space="preserve" text-anchor="middle" x="348.25" y="-100.5" font-family="Helvetica,sans-Serif" font-size="10.00">::Node::distanceTo</text>
</a>
</g>
</g>
<!-- Node1&#45;&gt;Node2 -->
<g id="edge1" class="edge">
<title>Node1&#45;&gt;Node2</title>
<path fill="none" stroke="#63b8ff" d="M102.52,-91.76C151.86,-95.43 227.28,-101.06 281.35,-105.09"/>
<polygon fill="#63b8ff" stroke="#63b8ff" points="280.81,-108.56 291.04,-105.81 281.33,-101.58 280.81,-108.56"/>
</g>
<!-- Node3 -->
<g id="node3" class="node">
<title>Node3</title>
<g id="a_node3"><a xlink:href="a00467.html#a05b8a83ab27113369c95649470d864b9" target="_top" xlink:title="Obtain the indexes of all nodes that pass the HeightCheck.">
<polygon fill="white" stroke="#666666" points="257,-173 138.25,-173 138.25,-141 257,-141 257,-173"/>
<text xml:space="preserve" text-anchor="start" x="146.25" y="-159.5" font-family="Helvetica,sans-Serif" font-size="10.00">HF::VisibilityGraph</text>
<text xml:space="preserve" text-anchor="middle" x="197.62" y="-147.5" font-family="Helvetica,sans-Serif" font-size="10.00">::HeightCheckAllNodes</text>
</a>
</g>
</g>
<!-- Node1&#45;&gt;Node3 -->
<g id="edge2" class="edge">
<title>Node1&#45;&gt;Node3</title>
<path fill="none" stroke="#63b8ff" d="M86.37,-104.35C105.93,-113.69 130.69,-125.52 151.79,-135.59"/>
<polygon fill="#63b8ff" stroke="#63b8ff" points="150.23,-138.72 160.76,-139.87 153.24,-132.41 150.23,-138.72"/>
</g>
<!-- Node8 -->
<g id="node8" class="node">
<title>Node8</title>
<g id="a_node8"><a xlink:href="a00467.html#a4d9cf77879eb78075f7f7b0a7e31119a" target="_top" xlink:title="Perform a line of sight check between two nodes.">
<polygon fill="white" stroke="#666666" points="253.62,-82 141.62,-82 141.62,-50 253.62,-50 253.62,-82"/>
<text xml:space="preserve" text-anchor="start" x="149.62" y="-68.5" font-family="Helvetica,sans-Serif" font-size="10.00">HF::VisibilityGraph</text>
<text xml:space="preserve" text-anchor="middle" x="197.62" y="-56.5" font-family="Helvetica,sans-Serif" font-size="10.00">::IsOcclusionBetween</text>
</a>
</g>
</g>
<!-- Node1&#45;&gt;Node8 -->
<g id="edge7" class="edge">
<title>Node1&#45;&gt;Node8</title>
<path fill="none" stroke="#63b8ff" d="M102.66,-80.31C111.57,-78.95 120.97,-77.52 130.24,-76.11"/>
<polygon fill="#63b8ff" stroke="#63b8ff" points="130.58,-79.6 139.94,-74.63 129.53,-72.68 130.58,-79.6"/>
</g>
<!-- Node11 -->
<g id="node11" class="node">
<title>Node11</title>
<g id="a_node11"><a xlink:href="a01551.html#a2710af2a75976862d7a235793567d2f3" target="_top" xlink:title="Determine how many nodes are in the graph.">
<polygon fill="white" stroke="#666666" points="252.88,-32 142.38,-32 142.38,0 252.88,0 252.88,-32"/>
<text xml:space="preserve" text-anchor="start" x="150.38" y="-18.5" font-family="Helvetica,sans-Serif" font-size="10.00">HF::SpatialStructures</text>
<text xml:space="preserve" text-anchor="middle" x="197.62" y="-6.5" font-family="Helvetica,sans-Serif" font-size="10.00">::Graph::size</text>
</a>
</g>
</g>
<!-- Node1&#45;&gt;Node11 -->
<g id="edge12" class="edge">
<title>Node1&#45;&gt;Node11</title>
<path fill="none" stroke="#63b8ff" d="M80.48,-71.64C97.11,-62.27 118.64,-50.52 138.25,-41 140.95,-39.69 143.73,-38.38 146.55,-37.08"/>
<polygon fill="#63b8ff" stroke="#63b8ff" points="147.77,-40.36 155.45,-33.06 144.9,-33.98 147.77,-40.36"/>
</g>
<!-- Node4 -->
<g id="node4" class="node">
<title>Node4</title>
<g id="a_node4"><a xlink:href="a00467.html#af811d21e4c49275521912df9254bb737" target="_top" xlink:title="Check if Node can be raised by height without clipping into any geometry.">
<polygon fill="white" stroke="#666666" points="397.5,-176 299,-176 299,-144 397.5,-144 397.5,-176"/>
<text xml:space="preserve" text-anchor="start" x="307" y="-162.5" font-family="Helvetica,sans-Serif" font-size="10.00">HF::VisibilityGraph</text>
<text xml:space="preserve" text-anchor="middle" x="348.25" y="-150.5" font-family="Helvetica,sans-Serif" font-size="10.00">::HeightCheck</text>
</a>
</g>
</g>
<!-- Node3&#45;&gt;Node4 -->
<g id="edge3" class="edge">
<title>Node3&#45;&gt;Node4</title>
<path fill="none" stroke="#63b8ff" d="M257.37,-158.19C267.16,-158.38 277.34,-158.59 287.17,-158.79"/>
<polygon fill="#63b8ff" stroke="#63b8ff" points="286.93,-162.28 296.99,-158.99 287.07,-155.28 286.93,-162.28"/>
</g>
<!-- Node5 -->
<g id="node5" class="node">
<title>Node5</title>
<g id="a_node5"><a xlink:href="a01411.html#a3a7488f8e41c8a9e3dc9c334047c6457" target="_top" xlink:title="Determine if there is an intersection with any geometry.">
<polygon fill="white" stroke="#666666" points="578.5,-132 439.5,-132 439.5,-100 578.5,-100 578.5,-132"/>
<text xml:space="preserve" text-anchor="start" x="447.5" y="-118.5" font-family="Helvetica,sans-Serif" font-size="10.00">HF::RayTracer::EmbreeRay</text>
<text xml:space="preserve" text-anchor="middle" x="509" y="-106.5" font-family="Helvetica,sans-Serif" font-size="10.00">Tracer::Occluded</text>
</a>
</g>
</g>
<!-- Node4&#45;&gt;Node5 -->
<g id="edge4" class="edge">
<title>Node4&#45;&gt;Node5</title>
<path fill="none" stroke="#63b8ff" d="M397.74,-146.56C410.41,-143.05 424.31,-139.2 437.85,-135.44"/>
<polygon fill="#63b8ff" stroke="#63b8ff" points="438.44,-138.91 447.15,-132.87 436.58,-132.16 438.44,-138.91"/>
</g>
<!-- Node6 -->
<g id="node6" class="node">
<title>Node6</title>
<g id="a_node6"><a xlink:href="a01411.html#ade19fda460dadd98769b347840bd305a" target="_top" xlink:title="Implementation for fundamental occlusion ray intersection.">
<polygon fill="white" stroke="#666666" points="753.5,-132 614.5,-132 614.5,-100 753.5,-100 753.5,-132"/>
<text xml:space="preserve" text-anchor="start" x="622.5" y="-118.5" font-family="Helvetica,sans-Serif" font-size="10.00">HF::RayTracer::EmbreeRay</text>
<text xml:space="preserve" text-anchor="middle" x="684" y="-106.5" font-family="Helvetica,sans-Serif" font-size="10.00">Tracer::Occluded_IMPL</text>
</a>
</g>
</g>
<!-- Node5&#45;&gt;Node6 -->
<g id="edge5" class="edge">
<title>Node5&#45;&gt;Node6</title>
<path fill="none" stroke="#63b8ff" d="M578.87,-116C586.75,-116 594.83,-116 602.84,-116"/>
<polygon fill="#63b8ff" stroke="#63b8ff" points="602.57,-119.5 612.57,-116 602.57,-112.5 602.57,-119.5"/>
</g>
<!-- Node7 -->
<g id="node7" class="node">
<title>Node7</title>
<g id="a_node7"><a xlink:href="a00464.html#a76e5d26b5063f0e5b49b4ba835f1da93" target="_top" xlink:title=" ">
<polygon fill="white" stroke="#666666" points="937.5,-126 789.5,-126 789.5,-106 937.5,-106 937.5,-126"/>
<text xml:space="preserve" text-anchor="middle" x="863.5" y="-112.5" font-family="Helvetica,sans-Serif" font-size="10.00">HF::RayTracer::ConstructRay</text>
</a>
</g>
</g>
<!-- Node6&#45;&gt;Node7 -->
<g id="edge6" class="edge">
<title>Node6&#45;&gt;Node7</title>
<path fill="none" stroke="#63b8ff" d="M753.88,-116C761.76,-116 769.86,-116 777.92,-116"/>
<polygon fill="#63b8ff" stroke="#63b8ff" points="777.74,-119.5 787.74,-116 777.74,-112.5 777.74,-119.5"/>
</g>
<!-- Node8&#45;&gt;Node2 -->
<g id="edge10" class="edge">
<title>Node8&#45;&gt;Node2</title>
<path fill="none" stroke="#63b8ff" d="M253.97,-82.38C263.1,-85.09 272.65,-87.91 282,-90.68"/>
<polygon fill="#63b8ff" stroke="#63b8ff" points="280.82,-93.98 291.4,-93.47 282.8,-87.27 280.82,-93.98"/>
</g>
<!-- Node8&#45;&gt;Node5 -->
<g id="edge11" class="edge">
<title>Node8&#45;&gt;Node5</title>
<path fill="none" stroke="#63b8ff" d="M253.82,-68.19C295.29,-70.54 353.34,-75.33 403.5,-85 418.38,-87.87 434.18,-91.98 448.86,-96.27"/>
<polygon fill="#63b8ff" stroke="#63b8ff" points="447.81,-99.6 458.39,-99.13 449.82,-92.9 447.81,-99.6"/>
</g>
<!-- Node9 -->
<g id="node9" class="node">
<title>Node9</title>
<g id="a_node9"><a xlink:href="a02071.html#ad3f7898ef3178eef0c3579869a7f5c67" target="_top" xlink:title="Get the direction between this node and another node">
<polygon fill="white" stroke="#666666" points="403.5,-38 293,-38 293,-6 403.5,-6 403.5,-38"/>
<text xml:space="preserve" text-anchor="start" x="301" y="-24.5" font-family="Helvetica,sans-Serif" font-size="10.00">HF::SpatialStructures</text>
<text xml:space="preserve" text-anchor="middle" x="348.25" y="-12.5" font-family="Helvetica,sans-Serif" font-size="10.00">::Node::directionTo</text>
</a>
</g>
</g>
<!-- Node8&#45;&gt;Node9 -->
<g id="edge8" class="edge">
<title>Node8&#45;&gt;Node9</title>
<path fill="none" stroke="#63b8ff" d="M253.97,-49.62C263.1,-46.91 272.65,-44.09 282,-41.32"/>
<polygon fill="#63b8ff" stroke="#63b8ff" points="282.8,-44.73 291.4,-38.53 280.82,-38.02 282.8,-44.73"/>
</g>
<!-- Node10 -->
<g id="node10" class="node">
<title>Node10</title>
<g id="a_node10"><a xlink:href="a00465.html#ad9a8f0f70b3f60ac5cb7889885d851d1" target="_top" xlink:title=" ">
<polygon fill="white" stroke="#666666" points="564.25,-38 453.75,-38 453.75,-6 564.25,-6 564.25,-38"/>
<text xml:space="preserve" text-anchor="start" x="461.75" y="-24.5" font-family="Helvetica,sans-Serif" font-size="10.00">HF::SpatialStructures</text>
<text xml:space="preserve" text-anchor="middle" x="509" y="-12.5" font-family="Helvetica,sans-Serif" font-size="10.00">::Normalize</text>
</a>
</g>
</g>
<!-- Node9&#45;&gt;Node10 -->
<g id="edge9" class="edge">
<title>Node9&#45;&gt;Node10</title>
<path fill="none" stroke="#63b8ff" d="M403.88,-22C416.11,-22 429.2,-22 441.83,-22"/>
<polygon fill="#63b8ff" stroke="#63b8ff" points="441.75,-25.5 451.75,-22 441.75,-18.5 441.75,-25.5"/>
</g>
</g>
</svg>
