<?xml version="1.0" encoding="UTF-8" standalone="no"?>
<!DOCTYPE svg PUBLIC "-//W3C//DTD SVG 1.1//EN"
 "http://www.w3.org/Graphics/SVG/1.1/DTD/svg11.dtd">
<!-- Generated by graphviz version 13.1.2 (20250808.2320)
 -->
<!-- Title: nanort::get_vertex_addr Pages: 1 -->
<svg width="293pt" height="90pt"
 viewBox="0.00 0.00 293.00 90.00" xmlns="http://www.w3.org/2000/svg" xmlns:xlink="http://www.w3.org/1999/xlink">
<g id="graph0" class="graph" transform="scale(1 1) rotate(0) translate(4 86)">
<title>nanort::get_vertex_addr</title>
<!-- Node1 -->
<g id="node1" class="node">
<title>Node1</title>
<g id="a_node1"><a xlink:title=" ">
<polygon fill="#999999" stroke="#666666" points="284.75,-51 166,-51 166,-31 284.75,-31 284.75,-51"/>
<text xml:space="preserve" text-anchor="middle" x="225.38" y="-37.5" font-family="Helvetica,sans-Serif" font-size="10.00">nanort::get_vertex_addr</text>
</a>
</g>
</g>
<!-- Node2 -->
<g id="node2" class="node">
<title>Node2</title>
<g id="a_node2"><a xlink:href="a01491.html#aba236136712b2ac9ed6a732a92649839" target="_top" xlink:title="Compute bounding box for prim_indexth triangle. This function is called for each primitive in BVH bui...">
<polygon fill="white" stroke="#666666" points="118.75,-82 11.25,-82 11.25,-50 118.75,-50 118.75,-82"/>
<text xml:space="preserve" text-anchor="start" x="19.25" y="-68.5" font-family="Helvetica,sans-Serif" font-size="10.00">nanort::TriangleMesh</text>
<text xml:space="preserve" text-anchor="middle" x="65" y="-56.5" font-family="Helvetica,sans-Serif" font-size="10.00">::BoundingBox</text>
</a>
</g>
</g>
<!-- Node1&#45;&gt;Node2 -->
<g id="edge1" class="edge">
<title>Node1&#45;&gt;Node2</title>
<path fill="none" stroke="#63b8ff" d="M154.55,-52.02C142.64,-53.9 130.44,-55.83 119.05,-57.63"/>
<polygon fill="#63b8ff" stroke="#63b8ff" points="155.02,-55.49 164.36,-50.47 153.93,-48.58 155.02,-55.49"/>
</g>
<!-- Node3 -->
<g id="node3" class="node">
<title>Node3</title>
<g id="a_node3"><a xlink:href="a01499.html#ac392e9a3133446809b902a178ea9092b" target="_top" xlink:title="Do ray intersection stuff for prim_index th primitive and return hit distance t, barycentric coordina...">
<polygon fill="white" stroke="#666666" points="130,-32 0,-32 0,0 130,0 130,-32"/>
<text xml:space="preserve" text-anchor="start" x="8" y="-18.5" font-family="Helvetica,sans-Serif" font-size="10.00">nanort::TriangleIntersector</text>
<text xml:space="preserve" text-anchor="middle" x="65" y="-6.5" font-family="Helvetica,sans-Serif" font-size="10.00">::Intersect</text>
</a>
</g>
</g>
<!-- Node1&#45;&gt;Node3 -->
<g id="edge2" class="edge">
<title>Node1&#45;&gt;Node3</title>
<path fill="none" stroke="#63b8ff" d="M154.6,-29.99C146.56,-28.72 138.38,-27.43 130.41,-26.17"/>
<polygon fill="#63b8ff" stroke="#63b8ff" points="153.93,-33.42 164.36,-31.53 155.02,-26.51 153.93,-33.42"/>
</g>
</g>
</svg>
