<?xml version="1.0" encoding="UTF-8" standalone="no"?>
<!DOCTYPE svg PUBLIC "-//W3C//DTD SVG 1.1//EN"
 "http://www.w3.org/Graphics/SVG/1.1/DTD/svg11.dtd">
<!-- Generated by graphviz version 13.1.2 (20250808.2320)
 -->
<!-- Title: CalculateAndStoreCrossSlope Pages: 1 -->
<svg width="330pt" height="140pt"
 viewBox="0.00 0.00 330.00 140.00" xmlns="http://www.w3.org/2000/svg" xmlns:xlink="http://www.w3.org/1999/xlink">
<g id="graph0" class="graph" transform="scale(1 1) rotate(0) translate(4 136)">
<title>CalculateAndStoreCrossSlope</title>
<!-- Node1 -->
<g id="node1" class="node">
<title>Node1</title>
<g id="a_node1"><a xlink:title="Calculates cross slope for all subgraphs in *g.">
<polygon fill="#999999" stroke="#666666" points="148.75,-82 0,-82 0,-62 148.75,-62 148.75,-82"/>
<text xml:space="preserve" text-anchor="middle" x="74.38" y="-68.5" font-family="Helvetica,sans-Serif" font-size="10.00">CalculateAndStoreCrossSlope</text>
</a>
</g>
</g>
<!-- Node2 -->
<g id="node2" class="node">
<title>Node2</title>
<g id="a_node2"><a xlink:href="a01551.html#a6f04c5320d4bf88120f8c5e31b0fb02a" target="_top" xlink:title="Add multiple edges to the graph.">
<polygon fill="white" stroke="#666666" points="308.38,-132 197.88,-132 197.88,-100 308.38,-100 308.38,-132"/>
<text xml:space="preserve" text-anchor="start" x="205.88" y="-118.5" font-family="Helvetica,sans-Serif" font-size="10.00">HF::SpatialStructures</text>
<text xml:space="preserve" text-anchor="middle" x="253.12" y="-106.5" font-family="Helvetica,sans-Serif" font-size="10.00">::Graph::AddEdges</text>
</a>
</g>
</g>
<!-- Node1&#45;&gt;Node2 -->
<g id="edge1" class="edge">
<title>Node1&#45;&gt;Node2</title>
<path fill="none" stroke="#63b8ff" d="M117.26,-82.43C137.88,-87.56 163.21,-93.87 186.34,-99.62"/>
<polygon fill="#63b8ff" stroke="#63b8ff" points="185.46,-103.01 196.01,-102.03 187.15,-96.22 185.46,-103.01"/>
</g>
<!-- Node3 -->
<g id="node3" class="node">
<title>Node3</title>
<g id="a_node3"><a xlink:href="a00437.html#a047beaeb65d7842c75f024915219177e" target="_top" xlink:title="Get the cost algorithm title (as std::string) from the COST_ALG_KEY enum member.">
<polygon fill="white" stroke="#666666" points="301.62,-82 204.62,-82 204.62,-62 301.62,-62 301.62,-82"/>
<text xml:space="preserve" text-anchor="middle" x="253.12" y="-68.5" font-family="Helvetica,sans-Serif" font-size="10.00">AlgorithmCostTitle</text>
</a>
</g>
</g>
<!-- Node1&#45;&gt;Node3 -->
<g id="edge2" class="edge">
<title>Node1&#45;&gt;Node3</title>
<path fill="none" stroke="#63b8ff" d="M149.05,-72C163.63,-72 178.76,-72 192.79,-72"/>
<polygon fill="#63b8ff" stroke="#63b8ff" points="192.76,-75.5 202.76,-72 192.76,-68.5 192.76,-75.5"/>
</g>
<!-- Node4 -->
<g id="node4" class="node">
<title>Node4</title>
<g id="a_node4"><a xlink:href="a00475.html#a51b88e596c3b5f68b7abbcbc91e30bdf" target="_top" xlink:title=" ">
<polygon fill="white" stroke="#666666" points="321.5,-44 184.75,-44 184.75,0 321.5,0 321.5,-44"/>
<text xml:space="preserve" text-anchor="start" x="192.75" y="-30.5" font-family="Helvetica,sans-Serif" font-size="10.00">HF::SpatialStructures</text>
<text xml:space="preserve" text-anchor="start" x="192.75" y="-18.5" font-family="Helvetica,sans-Serif" font-size="10.00">::CostAlgorithms::Calculate</text>
<text xml:space="preserve" text-anchor="middle" x="253.12" y="-6.5" font-family="Helvetica,sans-Serif" font-size="10.00">CrossSlope</text>
</a>
</g>
</g>
<!-- Node1&#45;&gt;Node4 -->
<g id="edge3" class="edge">
<title>Node1&#45;&gt;Node4</title>
<path fill="none" stroke="#63b8ff" d="M112.43,-61.52C130.19,-56.49 152.17,-50.27 173.41,-44.27"/>
<polygon fill="#63b8ff" stroke="#63b8ff" points="174.29,-47.66 182.96,-41.57 172.39,-40.92 174.29,-47.66"/>
</g>
</g>
</svg>
