<?xml version="1.0" encoding="UTF-8" standalone="no"?>
<!DOCTYPE svg PUBLIC "-//W3C//DTD SVG 1.1//EN"
 "http://www.w3.org/Graphics/SVG/1.1/DTD/svg11.dtd">
<!-- Generated by graphviz version 13.1.2 (20250808.2320)
 -->
<!-- Title: HF::GraphGenerator::CastToReal Pages: 1 -->
<svg width="973pt" height="353pt"
 viewBox="0.00 0.00 973.00 353.00" xmlns="http://www.w3.org/2000/svg" xmlns:xlink="http://www.w3.org/1999/xlink">
<g id="graph0" class="graph" transform="scale(1 1) rotate(0) translate(4 349.49)">
<title>HF::GraphGenerator::CastToReal</title>
<!-- Node1 -->
<g id="node1" class="node">
<title>Node1</title>
<g id="a_node1"><a xlink:title="Cast an input value to real_t using static cast.">
<polygon fill="#999999" stroke="#666666" points="964.5,-188 860,-188 860,-156 964.5,-156 964.5,-188"/>
<text xml:space="preserve" text-anchor="start" x="868" y="-174.5" font-family="Helvetica,sans-Serif" font-size="10.00">HF::GraphGenerator</text>
<text xml:space="preserve" text-anchor="middle" x="912.25" y="-162.5" font-family="Helvetica,sans-Serif" font-size="10.00">::CastToReal</text>
</a>
</g>
</g>
<!-- Node2 -->
<g id="node2" class="node">
<title>Node2</title>
<g id="a_node2"><a xlink:href="a01311.html#a0c12341433bbec41cc12cc1dbb41a976" target="_top" xlink:title="Generate a graph of accessible space.">
<polygon fill="white" stroke="#666666" points="317.75,-188 162.25,-188 162.25,-156 317.75,-156 317.75,-188"/>
<text xml:space="preserve" text-anchor="start" x="170.25" y="-174.5" font-family="Helvetica,sans-Serif" font-size="10.00">HF::GraphGenerator</text>
<text xml:space="preserve" text-anchor="middle" x="240" y="-162.5" font-family="Helvetica,sans-Serif" font-size="10.00">::GraphGenerator::BuildNetwork</text>
</a>
</g>
</g>
<!-- Node1&#45;&gt;Node2 -->
<g id="edge1" class="edge">
<title>Node1&#45;&gt;Node2</title>
<path fill="none" stroke="#63b8ff" d="M869.95,-193.58C797.3,-230.2 640.82,-303.03 498.75,-329 435.36,-340.59 411.09,-358.42 353.75,-329 294.93,-298.83 259.87,-222.12 246.83,-188.37"/>
<polygon fill="#63b8ff" stroke="#63b8ff" points="871.37,-196.79 878.7,-189.14 868.2,-190.55 871.37,-196.79"/>
</g>
<!-- Node5 -->
<g id="node5" class="node">
<title>Node5</title>
<g id="a_node5"><a xlink:href="a00463.html#a176c58b25fb5cb545d17128d4535f921" target="_top" xlink:title=" ">
<polygon fill="white" stroke="#666666" points="661.38,-232 556.88,-232 556.88,-200 661.38,-200 661.38,-232"/>
<text xml:space="preserve" text-anchor="start" x="564.88" y="-218.5" font-family="Helvetica,sans-Serif" font-size="10.00">HF::GraphGenerator</text>
<text xml:space="preserve" text-anchor="middle" x="609.12" y="-206.5" font-family="Helvetica,sans-Serif" font-size="10.00">::CalculateStepType</text>
</a>
</g>
</g>
<!-- Node1&#45;&gt;Node5 -->
<g id="edge4" class="edge">
<title>Node1&#45;&gt;Node5</title>
<path fill="none" stroke="#63b8ff" d="M848.76,-181.13C793.44,-189.21 713.65,-200.87 661.84,-208.44"/>
<polygon fill="#63b8ff" stroke="#63b8ff" points="848.94,-184.64 858.33,-179.73 847.93,-177.72 848.94,-184.64"/>
</g>
<!-- Node9 -->
<g id="node9" class="node">
<title>Node9</title>
<g id="a_node9"><a xlink:href="a00463.html#a58892abe1152c28d26d3ca749c99ea4d" target="_top" xlink:title="Cast an array of 3 values to the graph_generator&#39;s real_3 type.">
<polygon fill="white" stroke="#666666" points="824,-166 719.5,-166 719.5,-134 824,-134 824,-166"/>
<text xml:space="preserve" text-anchor="start" x="727.5" y="-152.5" font-family="Helvetica,sans-Serif" font-size="10.00">HF::GraphGenerator</text>
<text xml:space="preserve" text-anchor="middle" x="771.75" y="-140.5" font-family="Helvetica,sans-Serif" font-size="10.00">::CastToReal3</text>
</a>
</g>
</g>
<!-- Node1&#45;&gt;Node9 -->
<g id="edge8" class="edge">
<title>Node1&#45;&gt;Node9</title>
<path fill="none" stroke="#63b8ff" d="M848.42,-162.02C840.37,-160.74 832.21,-159.44 824.37,-158.2"/>
<polygon fill="#63b8ff" stroke="#63b8ff" points="847.76,-165.46 858.18,-163.57 848.86,-158.55 847.76,-165.46"/>
</g>
<!-- Node10 -->
<g id="node10" class="node">
<title>Node10</title>
<g id="a_node10"><a xlink:href="a00463.html#a5d2ad6de2131b1a90a80f901ac8dd185" target="_top" xlink:title=" ">
<polygon fill="white" stroke="#666666" points="681.62,-32 536.62,-32 536.62,0 681.62,0 681.62,-32"/>
<text xml:space="preserve" text-anchor="start" x="544.62" y="-18.5" font-family="Helvetica,sans-Serif" font-size="10.00">HF::GraphGenerator</text>
<text xml:space="preserve" text-anchor="middle" x="609.12" y="-6.5" font-family="Helvetica,sans-Serif" font-size="10.00">::CompareCheckConnections</text>
</a>
</g>
</g>
<!-- Node1&#45;&gt;Node10 -->
<g id="edge17" class="edge">
<title>Node1&#45;&gt;Node10</title>
<path fill="none" stroke="#63b8ff" d="M876.94,-149.44C833.3,-121.43 755.01,-73.38 683.5,-41 676.76,-37.95 669.52,-35.05 662.32,-32.39"/>
<polygon fill="#63b8ff" stroke="#63b8ff" points="874.91,-152.3 885.21,-154.79 878.71,-146.42 874.91,-152.3"/>
</g>
<!-- Node3 -->
<g id="node3" class="node">
<title>Node3</title>
<g id="a_node3"><a xlink:href="a00454.html#ga2df84a732d1edfb70b7bd26d3282e129" target="_top" xlink:title="Construct a graph by performing a breadth&#45;first search of accessible space.">
<polygon fill="white" stroke="#666666" points="104.12,-201 22.12,-201 22.12,-181 104.12,-181 104.12,-201"/>
<text xml:space="preserve" text-anchor="middle" x="63.12" y="-187.5" font-family="Helvetica,sans-Serif" font-size="10.00">GenerateGraph</text>
</a>
</g>
</g>
<!-- Node2&#45;&gt;Node3 -->
<g id="edge2" class="edge">
<title>Node2&#45;&gt;Node3</title>
<path fill="none" stroke="#63b8ff" d="M150.62,-181.6C134.47,-183.36 118.36,-185.11 104.49,-186.61"/>
<polygon fill="#63b8ff" stroke="#63b8ff" points="150.72,-185.11 160.28,-180.55 149.96,-178.15 150.72,-185.11"/>
</g>
<!-- Node4 -->
<g id="node4" class="node">
<title>Node4</title>
<g id="a_node4"><a xlink:href="a00454.html#gab9f58e3ecc686fa9bc34519b0faed734" target="_top" xlink:title="Construct a graph by performing a breadth&#45;first search of accessible space, seperating obstacles from...">
<polygon fill="white" stroke="#666666" points="126.25,-163 0,-163 0,-143 126.25,-143 126.25,-163"/>
<text xml:space="preserve" text-anchor="middle" x="63.12" y="-149.5" font-family="Helvetica,sans-Serif" font-size="10.00">GenerateGraphObstacles</text>
</a>
</g>
</g>
<!-- Node2&#45;&gt;Node4 -->
<g id="edge3" class="edge">
<title>Node2&#45;&gt;Node4</title>
<path fill="none" stroke="#63b8ff" d="M150.4,-162.37C142.33,-161.5 134.27,-160.62 126.5,-159.78"/>
<polygon fill="#63b8ff" stroke="#63b8ff" points="149.96,-165.85 160.28,-163.45 150.72,-158.89 149.96,-165.85"/>
</g>
<!-- Node6 -->
<g id="node6" class="node">
<title>Node6</title>
<g id="a_node6"><a xlink:href="a00463.html#a0251caf5a32eb2c1f9d846d88eb7fe22" target="_top" xlink:title=" ">
<polygon fill="white" stroke="#666666" points="498.75,-320 353.75,-320 353.75,-288 498.75,-288 498.75,-320"/>
<text xml:space="preserve" text-anchor="start" x="361.75" y="-306.5" font-family="Helvetica,sans-Serif" font-size="10.00">HF::GraphGenerator</text>
<text xml:space="preserve" text-anchor="middle" x="426.25" y="-294.5" font-family="Helvetica,sans-Serif" font-size="10.00">::CalculateAndStoreStepType</text>
</a>
</g>
</g>
<!-- Node5&#45;&gt;Node6 -->
<g id="edge5" class="edge">
<title>Node5&#45;&gt;Node6</title>
<path fill="none" stroke="#63b8ff" d="M573.01,-238.47C551.98,-251.35 524.43,-267.24 498.75,-279 492.17,-282.01 485.12,-284.88 478.11,-287.54"/>
<polygon fill="#63b8ff" stroke="#63b8ff" points="574.83,-241.46 581.48,-233.22 571.14,-235.51 574.83,-241.46"/>
</g>
<!-- Node7 -->
<g id="node7" class="node">
<title>Node7</title>
<g id="a_node7"><a xlink:href="a00454.html#gae7f55e49ba1992471430d0e3d415ebae" target="_top" xlink:title="Query the graph and identify the step types of all edges, adding them to the graph.">
<polygon fill="white" stroke="#666666" points="498.38,-270 354.12,-270 354.12,-250 498.38,-250 498.38,-270"/>
<text xml:space="preserve" text-anchor="middle" x="426.25" y="-256.5" font-family="Helvetica,sans-Serif" font-size="10.00">CalculateAndStoreStepTypes</text>
</a>
</g>
</g>
<!-- Node5&#45;&gt;Node7 -->
<g id="edge6" class="edge">
<title>Node5&#45;&gt;Node7</title>
<path fill="none" stroke="#63b8ff" d="M545.59,-231.21C520.7,-237.27 492.69,-244.08 470.17,-249.56"/>
<polygon fill="#63b8ff" stroke="#63b8ff" points="546.42,-234.61 555.31,-228.85 544.76,-227.81 546.42,-234.61"/>
</g>
<!-- Node8 -->
<g id="node8" class="node">
<title>Node8</title>
<g id="a_node8"><a xlink:href="a00463.html#a81398de53e151ae58b206523e555309e" target="_top" xlink:title=" ">
<polygon fill="white" stroke="#666666" points="478.5,-232 374,-232 374,-200 478.5,-200 478.5,-232"/>
<text xml:space="preserve" text-anchor="start" x="382" y="-218.5" font-family="Helvetica,sans-Serif" font-size="10.00">HF::GraphGenerator</text>
<text xml:space="preserve" text-anchor="middle" x="426.25" y="-206.5" font-family="Helvetica,sans-Serif" font-size="10.00">::CalculateStepType</text>
</a>
</g>
</g>
<!-- Node5&#45;&gt;Node8 -->
<g id="edge7" class="edge">
<title>Node5&#45;&gt;Node8</title>
<path fill="none" stroke="#63b8ff" d="M545.31,-216C523.56,-216 499.46,-216 478.73,-216"/>
<polygon fill="#63b8ff" stroke="#63b8ff" points="545.26,-219.5 555.26,-216 545.26,-212.5 545.26,-219.5"/>
</g>
<!-- Node9&#45;&gt;Node2 -->
<g id="edge9" class="edge">
<title>Node9&#45;&gt;Node2</title>
<path fill="none" stroke="#63b8ff" d="M708.07,-152.6C610.78,-156.64 423.68,-164.41 318.21,-168.79"/>
<polygon fill="#63b8ff" stroke="#63b8ff" points="708.12,-156.1 717.96,-152.19 707.83,-149.11 708.12,-156.1"/>
</g>
<!-- Node9&#45;&gt;Node5 -->
<g id="edge10" class="edge">
<title>Node9&#45;&gt;Node5</title>
<path fill="none" stroke="#63b8ff" d="M720.78,-170.65C708.58,-175.68 695.58,-181.04 683.5,-186 672.81,-190.39 661.23,-195.13 650.5,-199.52"/>
<polygon fill="#63b8ff" stroke="#63b8ff" points="721.93,-173.96 729.84,-166.91 719.26,-167.49 721.93,-173.96"/>
</g>
<!-- Node9&#45;&gt;Node10 -->
<g id="edge11" class="edge">
<title>Node9&#45;&gt;Node10</title>
<path fill="none" stroke="#63b8ff" d="M755.82,-123.75C740.57,-99.14 714.75,-62.94 683.5,-41 678.87,-37.75 673.79,-34.9 668.52,-32.39"/>
<polygon fill="#63b8ff" stroke="#63b8ff" points="752.76,-125.45 760.91,-132.22 758.75,-121.84 752.76,-125.45"/>
</g>
<!-- Node11 -->
<g id="node11" class="node">
<title>Node11</title>
<g id="a_node11"><a xlink:href="a01311.html#ac7052d4b625fb96f29c5bfc091a86f7e" target="_top" xlink:title="Perform breadth first search to populate the graph with with nodes and edges.">
<polygon fill="white" stroke="#666666" points="683.5,-144 534.75,-144 534.75,-112 683.5,-112 683.5,-144"/>
<text xml:space="preserve" text-anchor="start" x="542.75" y="-130.5" font-family="Helvetica,sans-Serif" font-size="10.00">HF::GraphGenerator</text>
<text xml:space="preserve" text-anchor="middle" x="609.12" y="-118.5" font-family="Helvetica,sans-Serif" font-size="10.00">::GraphGenerator::CrawlGeom</text>
</a>
</g>
</g>
<!-- Node9&#45;&gt;Node11 -->
<g id="edge12" class="edge">
<title>Node9&#45;&gt;Node11</title>
<path fill="none" stroke="#63b8ff" d="M707.79,-141.38C699.97,-140.31 691.92,-139.2 683.96,-138.11"/>
<polygon fill="#63b8ff" stroke="#63b8ff" points="707.16,-144.82 717.54,-142.71 708.11,-137.89 707.16,-144.82"/>
</g>
<!-- Node13 -->
<g id="node13" class="node">
<title>Node13</title>
<g id="a_node13"><a xlink:href="a01311.html#a843cc6b5b69b5d013930b3685789fa15" target="_top" xlink:title="Perform breadth first search to populate the graph with nodes and edges using multiple cores.">
<polygon fill="white" stroke="#666666" points="683.5,-94 534.75,-94 534.75,-50 683.5,-50 683.5,-94"/>
<text xml:space="preserve" text-anchor="start" x="542.75" y="-80.5" font-family="Helvetica,sans-Serif" font-size="10.00">HF::GraphGenerator</text>
<text xml:space="preserve" text-anchor="start" x="542.75" y="-68.5" font-family="Helvetica,sans-Serif" font-size="10.00">::GraphGenerator::CrawlGeom</text>
<text xml:space="preserve" text-anchor="middle" x="609.12" y="-56.5" font-family="Helvetica,sans-Serif" font-size="10.00">Parallel</text>
</a>
</g>
</g>
<!-- Node9&#45;&gt;Node13 -->
<g id="edge15" class="edge">
<title>Node9&#45;&gt;Node13</title>
<path fill="none" stroke="#63b8ff" d="M732.07,-128.15C717.06,-119.94 699.64,-110.73 683.5,-103 677.51,-100.13 671.19,-97.25 664.87,-94.46"/>
<polygon fill="#63b8ff" stroke="#63b8ff" points="730.25,-131.14 740.69,-132.91 733.63,-125.01 730.25,-131.14"/>
</g>
<!-- Node12 -->
<g id="node12" class="node">
<title>Node12</title>
<g id="a_node12"><a xlink:href="a01311.html#a5788e421d921ec0ff27defc139c45106" target="_top" xlink:title="Generate a graph of accessible space.">
<polygon fill="white" stroke="#666666" points="486.38,-144 366.12,-144 366.12,-100 486.38,-100 486.38,-144"/>
<text xml:space="preserve" text-anchor="start" x="374.12" y="-130.5" font-family="Helvetica,sans-Serif" font-size="10.00">HF::GraphGenerator</text>
<text xml:space="preserve" text-anchor="start" x="374.12" y="-118.5" font-family="Helvetica,sans-Serif" font-size="10.00">::GraphGenerator::IMPL</text>
<text xml:space="preserve" text-anchor="middle" x="426.25" y="-106.5" font-family="Helvetica,sans-Serif" font-size="10.00">_BuildNetwork</text>
</a>
</g>
</g>
<!-- Node11&#45;&gt;Node12 -->
<g id="edge13" class="edge">
<title>Node11&#45;&gt;Node12</title>
<path fill="none" stroke="#63b8ff" d="M523.08,-125.18C510.8,-124.77 498.38,-124.36 486.74,-123.97"/>
<polygon fill="#63b8ff" stroke="#63b8ff" points="522.67,-128.67 532.78,-125.5 522.9,-121.67 522.67,-128.67"/>
</g>
<!-- Node12&#45;&gt;Node2 -->
<g id="edge14" class="edge">
<title>Node12&#45;&gt;Node2</title>
<path fill="none" stroke="#63b8ff" d="M354.92,-141.09C337.36,-145.85 318.67,-150.92 301.62,-155.55"/>
<polygon fill="#63b8ff" stroke="#63b8ff" points="355.49,-144.56 364.22,-138.56 353.66,-137.8 355.49,-144.56"/>
</g>
<!-- Node13&#45;&gt;Node12 -->
<g id="edge16" class="edge">
<title>Node13&#45;&gt;Node12</title>
<path fill="none" stroke="#63b8ff" d="M523.45,-95.41C511.05,-98.83 498.5,-102.3 486.74,-105.55"/>
<polygon fill="#63b8ff" stroke="#63b8ff" points="524.13,-98.85 532.84,-92.81 522.27,-92.1 524.13,-98.85"/>
</g>
</g>
</svg>
