<?xml version="1.0" encoding="UTF-8" standalone="no"?>
<!DOCTYPE svg PUBLIC "-//W3C//DTD SVG 1.1//EN"
 "http://www.w3.org/Graphics/SVG/1.1/DTD/svg11.dtd">
<!-- Generated by graphviz version 13.1.2 (20250808.2320)
 -->
<!-- Title: HF::Pathfinding::BuildDistanceAndPredecessor Pages: 1 -->
<svg width="638pt" height="176pt"
 viewBox="0.00 0.00 638.00 176.00" xmlns="http://www.w3.org/2000/svg" xmlns:xlink="http://www.w3.org/1999/xlink">
<g id="graph0" class="graph" transform="scale(1 1) rotate(0) translate(4 172)">
<title>HF::Pathfinding::BuildDistanceAndPredecessor</title>
<!-- Node1 -->
<g id="node1" class="node">
<title>Node1</title>
<g id="a_node1"><a xlink:title="Build a row of the distance and predecessor matrices for the node at id.">
<polygon fill="#999999" stroke="#666666" points="629.5,-117 478.5,-117 478.5,-85 629.5,-85 629.5,-117"/>
<text xml:space="preserve" text-anchor="start" x="486.5" y="-103.5" font-family="Helvetica,sans-Serif" font-size="10.00">HF::Pathfinding::BuildDistance</text>
<text xml:space="preserve" text-anchor="middle" x="554" y="-91.5" font-family="Helvetica,sans-Serif" font-size="10.00">AndPredecessor</text>
</a>
</g>
</g>
<!-- Node2 -->
<g id="node2" class="node">
<title>Node2</title>
<g id="a_node2"><a xlink:href="a00472.html#a6d24adcb1c0891a98e7d9a8d36f8cc01" target="_top" xlink:title=" ">
<polygon fill="white" stroke="#666666" points="440.25,-168 304.25,-168 304.25,-148 440.25,-148 440.25,-168"/>
<text xml:space="preserve" text-anchor="middle" x="372.25" y="-154.5" font-family="Helvetica,sans-Serif" font-size="10.00">HF::Pathfinding::FindAPSP</text>
</a>
</g>
</g>
<!-- Node1&#45;&gt;Node2 -->
<g id="edge1" class="edge">
<title>Node1&#45;&gt;Node2</title>
<path fill="none" stroke="#63b8ff" d="M496.73,-121.12C479.41,-127.11 460.24,-133.52 442.5,-139 432.97,-141.94 422.63,-144.9 412.93,-147.58"/>
<polygon fill="#63b8ff" stroke="#63b8ff" points="497.52,-124.55 505.82,-117.96 495.22,-117.94 497.52,-124.55"/>
</g>
<!-- Node4 -->
<g id="node4" class="node">
<title>Node4</title>
<g id="a_node4"><a xlink:href="a00472.html#a47d06b1c4bd84f4d0a7519ea0e96ff02" target="_top" xlink:title="Find a path between points A and B using Dijkstra&#39;s Shortest Path algorithm.">
<polygon fill="white" stroke="#666666" points="436.88,-130 307.62,-130 307.62,-110 436.88,-110 436.88,-130"/>
<text xml:space="preserve" text-anchor="middle" x="372.25" y="-116.5" font-family="Helvetica,sans-Serif" font-size="10.00">HF::Pathfinding::FindPath</text>
</a>
</g>
</g>
<!-- Node1&#45;&gt;Node4 -->
<g id="edge3" class="edge">
<title>Node1&#45;&gt;Node4</title>
<path fill="none" stroke="#63b8ff" d="M466.85,-110.11C456.87,-111.16 446.82,-112.22 437.21,-113.24"/>
<polygon fill="#63b8ff" stroke="#63b8ff" points="466.99,-113.61 476.57,-109.08 466.25,-106.65 466.99,-113.61"/>
</g>
<!-- Node6 -->
<g id="node6" class="node">
<title>Node6</title>
<g id="a_node6"><a xlink:href="a00472.html#a15badb9d0a17849de7b21105605c9c91" target="_top" xlink:title="Find a path from every id in start_ids to the matching end node in end_ids.">
<polygon fill="white" stroke="#666666" points="439.5,-92 305,-92 305,-72 439.5,-72 439.5,-92"/>
<text xml:space="preserve" text-anchor="middle" x="372.25" y="-78.5" font-family="Helvetica,sans-Serif" font-size="10.00">HF::Pathfinding::FindPaths</text>
</a>
</g>
</g>
<!-- Node1&#45;&gt;Node6 -->
<g id="edge5" class="edge">
<title>Node1&#45;&gt;Node6</title>
<path fill="none" stroke="#63b8ff" d="M466.67,-91.87C457.62,-90.92 448.52,-89.96 439.75,-89.03"/>
<polygon fill="#63b8ff" stroke="#63b8ff" points="466.25,-95.35 476.57,-92.92 466.99,-88.39 466.25,-95.35"/>
</g>
<!-- Node7 -->
<g id="node7" class="node">
<title>Node7</title>
<g id="a_node7"><a xlink:href="a00472.html#a417084c97d0672af2da7739157a9d8c0" target="_top" xlink:title="A special version of FindPaths optimized for the C_Interface.">
<polygon fill="white" stroke="#666666" points="442.5,-54 302,-54 302,-22 442.5,-22 442.5,-54"/>
<text xml:space="preserve" text-anchor="start" x="310" y="-40.5" font-family="Helvetica,sans-Serif" font-size="10.00">HF::Pathfinding::InsertPaths</text>
<text xml:space="preserve" text-anchor="middle" x="372.25" y="-28.5" font-family="Helvetica,sans-Serif" font-size="10.00">IntoArray</text>
</a>
</g>
</g>
<!-- Node1&#45;&gt;Node7 -->
<g id="edge6" class="edge">
<title>Node1&#45;&gt;Node7</title>
<path fill="none" stroke="#63b8ff" d="M495.68,-80.91C471.29,-72.36 443.2,-62.52 420.09,-54.42"/>
<polygon fill="#63b8ff" stroke="#63b8ff" points="494.22,-84.11 504.81,-84.11 496.53,-77.5 494.22,-84.11"/>
</g>
<!-- Node3 -->
<g id="node3" class="node">
<title>Node3</title>
<g id="a_node3"><a xlink:href="a00456.html#gaff8b6c35105e6a465af490691069727a" target="_top" xlink:title=" ">
<polygon fill="white" stroke="#666666" points="256.62,-168 149.12,-168 149.12,-148 256.62,-148 256.62,-168"/>
<text xml:space="preserve" text-anchor="middle" x="202.88" y="-154.5" font-family="Helvetica,sans-Serif" font-size="10.00">CreateAllPredToPath</text>
</a>
</g>
</g>
<!-- Node2&#45;&gt;Node3 -->
<g id="edge2" class="edge">
<title>Node2&#45;&gt;Node3</title>
<path fill="none" stroke="#63b8ff" d="M292.66,-158C280.61,-158 268.43,-158 257.1,-158"/>
<polygon fill="#63b8ff" stroke="#63b8ff" points="292.62,-161.5 302.62,-158 292.62,-154.5 292.62,-161.5"/>
</g>
<!-- Node5 -->
<g id="node5" class="node">
<title>Node5</title>
<g id="a_node5"><a xlink:href="a00456.html#ga3dc85450e989a996a3c3fcfad0a5944e" target="_top" xlink:title="Find the shortest path from start to end.">
<polygon fill="white" stroke="#666666" points="235.62,-130 170.12,-130 170.12,-110 235.62,-110 235.62,-130"/>
<text xml:space="preserve" text-anchor="middle" x="202.88" y="-116.5" font-family="Helvetica,sans-Serif" font-size="10.00">CreatePath</text>
</a>
</g>
</g>
<!-- Node4&#45;&gt;Node5 -->
<g id="edge4" class="edge">
<title>Node4&#45;&gt;Node5</title>
<path fill="none" stroke="#63b8ff" d="M296.21,-120C275.1,-120 253.24,-120 236.09,-120"/>
<polygon fill="#63b8ff" stroke="#63b8ff" points="295.98,-123.5 305.98,-120 295.98,-116.5 295.98,-123.5"/>
</g>
<!-- Node8 -->
<g id="node8" class="node">
<title>Node8</title>
<g id="a_node8"><a xlink:href="a00456.html#gae1ac2805c3b86883bb88269ed3868367" target="_top" xlink:title="Find multiple shortest paths in paralllel.">
<polygon fill="white" stroke="#666666" points="238.25,-70 167.5,-70 167.5,-50 238.25,-50 238.25,-70"/>
<text xml:space="preserve" text-anchor="middle" x="202.88" y="-56.5" font-family="Helvetica,sans-Serif" font-size="10.00">CreatePaths</text>
</a>
</g>
</g>
<!-- Node7&#45;&gt;Node8 -->
<g id="edge7" class="edge">
<title>Node7&#45;&gt;Node8</title>
<path fill="none" stroke="#63b8ff" d="M290.43,-48.62C272.2,-51.02 253.8,-53.44 238.67,-55.43"/>
<polygon fill="#63b8ff" stroke="#63b8ff" points="290.76,-52.11 300.22,-47.34 289.85,-45.17 290.76,-52.11"/>
</g>
<!-- Node9 -->
<g id="node9" class="node">
<title>Node9</title>
<g id="a_node9"><a xlink:href="a00472.html#a69bd3efcc13788e7c4be43b67d6002e5" target="_top" xlink:title="A special version of FindPaths optimized for the C_Interface, such that all paths possible from each ...">
<polygon fill="white" stroke="#666666" points="266,-32 139.75,-32 139.75,0 266,0 266,-32"/>
<text xml:space="preserve" text-anchor="start" x="147.75" y="-18.5" font-family="Helvetica,sans-Serif" font-size="10.00">HF::Pathfinding::InsertAll</text>
<text xml:space="preserve" text-anchor="middle" x="202.88" y="-6.5" font-family="Helvetica,sans-Serif" font-size="10.00">ToAllPathsIntoArray</text>
</a>
</g>
</g>
<!-- Node7&#45;&gt;Node9 -->
<g id="edge8" class="edge">
<title>Node7&#45;&gt;Node9</title>
<path fill="none" stroke="#63b8ff" d="M290.33,-27.36C282.23,-26.3 274.1,-25.23 266.24,-24.2"/>
<polygon fill="#63b8ff" stroke="#63b8ff" points="289.85,-30.83 300.22,-28.66 290.76,-23.89 289.85,-30.83"/>
</g>
<!-- Node10 -->
<g id="node10" class="node">
<title>Node10</title>
<g id="a_node10"><a xlink:href="a00456.html#gaba6ec6ce84974dd6a311d7d65dd34221" target="_top" xlink:title="Find a path from every node in a graph to every other node.">
<polygon fill="white" stroke="#666666" points="103.75,-26 0,-26 0,-6 103.75,-6 103.75,-26"/>
<text xml:space="preserve" text-anchor="middle" x="51.88" y="-12.5" font-family="Helvetica,sans-Serif" font-size="10.00">CreateAllToAllPaths</text>
</a>
</g>
</g>
<!-- Node9&#45;&gt;Node10 -->
<g id="edge9" class="edge">
<title>Node9&#45;&gt;Node10</title>
<path fill="none" stroke="#63b8ff" d="M128.12,-16C120,-16 111.87,-16 104.11,-16"/>
<polygon fill="#63b8ff" stroke="#63b8ff" points="128.04,-19.5 138.04,-16 128.04,-12.5 128.04,-19.5"/>
</g>
</g>
</svg>
