<?xml version="1.0" encoding="UTF-8" standalone="no"?>
<!DOCTYPE svg PUBLIC "-//W3C//DTD SVG 1.1//EN"
 "http://www.w3.org/Graphics/SVG/1.1/DTD/svg11.dtd">
<!-- Generated by graphviz version 13.1.2 (20250808.2320)
 -->
<!-- Title: HF::VisibilityGraph::IsOcclusionBetween Pages: 1 -->
<svg width="654pt" height="140pt"
 viewBox="0.00 0.00 654.00 140.00" xmlns="http://www.w3.org/2000/svg" xmlns:xlink="http://www.w3.org/1999/xlink">
<g id="graph0" class="graph" transform="scale(1 1) rotate(0) translate(4 136)">
<title>HF::VisibilityGraph::IsOcclusionBetween</title>
<!-- Node1 -->
<g id="node1" class="node">
<title>Node1</title>
<g id="a_node1"><a xlink:title="Perform a line of sight check between two nodes.">
<polygon fill="#999999" stroke="#666666" points="112,-82 0,-82 0,-50 112,-50 112,-82"/>
<text xml:space="preserve" text-anchor="start" x="8" y="-68.5" font-family="Helvetica,sans-Serif" font-size="10.00">HF::VisibilityGraph</text>
<text xml:space="preserve" text-anchor="middle" x="56" y="-56.5" font-family="Helvetica,sans-Serif" font-size="10.00">::IsOcclusionBetween</text>
</a>
</g>
</g>
<!-- Node2 -->
<g id="node2" class="node">
<title>Node2</title>
<g id="a_node2"><a xlink:href="a02071.html#ad3f7898ef3178eef0c3579869a7f5c67" target="_top" xlink:title="Get the direction between this node and another node">
<polygon fill="white" stroke="#666666" points="272.75,-132 162.25,-132 162.25,-100 272.75,-100 272.75,-132"/>
<text xml:space="preserve" text-anchor="start" x="170.25" y="-118.5" font-family="Helvetica,sans-Serif" font-size="10.00">HF::SpatialStructures</text>
<text xml:space="preserve" text-anchor="middle" x="217.5" y="-106.5" font-family="Helvetica,sans-Serif" font-size="10.00">::Node::directionTo</text>
</a>
</g>
</g>
<!-- Node1&#45;&gt;Node2 -->
<g id="edge1" class="edge">
<title>Node1&#45;&gt;Node2</title>
<path fill="none" stroke="#63b8ff" d="M109.23,-82.37C123.2,-86.75 138.46,-91.54 152.97,-96.08"/>
<polygon fill="#63b8ff" stroke="#63b8ff" points="151.85,-99.4 162.44,-99.05 153.94,-92.72 151.85,-99.4"/>
</g>
<!-- Node4 -->
<g id="node4" class="node">
<title>Node4</title>
<g id="a_node4"><a xlink:href="a02071.html#abbd66b566460f9557a373b5fbcc30bb1" target="_top" xlink:title="Calculate the distance between this node and n2.">
<polygon fill="white" stroke="#666666" points="272.75,-82 162.25,-82 162.25,-50 272.75,-50 272.75,-82"/>
<text xml:space="preserve" text-anchor="start" x="170.25" y="-68.5" font-family="Helvetica,sans-Serif" font-size="10.00">HF::SpatialStructures</text>
<text xml:space="preserve" text-anchor="middle" x="217.5" y="-56.5" font-family="Helvetica,sans-Serif" font-size="10.00">::Node::distanceTo</text>
</a>
</g>
</g>
<!-- Node1&#45;&gt;Node4 -->
<g id="edge3" class="edge">
<title>Node1&#45;&gt;Node4</title>
<path fill="none" stroke="#63b8ff" d="M112.34,-66C124.6,-66 137.71,-66 150.36,-66"/>
<polygon fill="#63b8ff" stroke="#63b8ff" points="150.29,-69.5 160.29,-66 150.29,-62.5 150.29,-69.5"/>
</g>
<!-- Node5 -->
<g id="node5" class="node">
<title>Node5</title>
<g id="a_node5"><a xlink:href="a01411.html#a3a7488f8e41c8a9e3dc9c334047c6457" target="_top" xlink:title="Determine if there is an intersection with any geometry.">
<polygon fill="white" stroke="#666666" points="287,-32 148,-32 148,0 287,0 287,-32"/>
<text xml:space="preserve" text-anchor="start" x="156" y="-18.5" font-family="Helvetica,sans-Serif" font-size="10.00">HF::RayTracer::EmbreeRay</text>
<text xml:space="preserve" text-anchor="middle" x="217.5" y="-6.5" font-family="Helvetica,sans-Serif" font-size="10.00">Tracer::Occluded</text>
</a>
</g>
</g>
<!-- Node1&#45;&gt;Node5 -->
<g id="edge4" class="edge">
<title>Node1&#45;&gt;Node5</title>
<path fill="none" stroke="#63b8ff" d="M109.23,-49.63C123.2,-45.25 138.46,-40.46 152.97,-35.92"/>
<polygon fill="#63b8ff" stroke="#63b8ff" points="153.94,-39.28 162.44,-32.95 151.85,-32.6 153.94,-39.28"/>
</g>
<!-- Node3 -->
<g id="node3" class="node">
<title>Node3</title>
<g id="a_node3"><a xlink:href="a00465.html#ad9a8f0f70b3f60ac5cb7889885d851d1" target="_top" xlink:title=" ">
<polygon fill="white" stroke="#666666" points="447.75,-132 337.25,-132 337.25,-100 447.75,-100 447.75,-132"/>
<text xml:space="preserve" text-anchor="start" x="345.25" y="-118.5" font-family="Helvetica,sans-Serif" font-size="10.00">HF::SpatialStructures</text>
<text xml:space="preserve" text-anchor="middle" x="392.5" y="-106.5" font-family="Helvetica,sans-Serif" font-size="10.00">::Normalize</text>
</a>
</g>
</g>
<!-- Node2&#45;&gt;Node3 -->
<g id="edge2" class="edge">
<title>Node2&#45;&gt;Node3</title>
<path fill="none" stroke="#63b8ff" d="M273.24,-116C289.89,-116 308.35,-116 325.65,-116"/>
<polygon fill="#63b8ff" stroke="#63b8ff" points="325.31,-119.5 335.31,-116 325.31,-112.5 325.31,-119.5"/>
</g>
<!-- Node6 -->
<g id="node6" class="node">
<title>Node6</title>
<g id="a_node6"><a xlink:href="a01411.html#ade19fda460dadd98769b347840bd305a" target="_top" xlink:title="Implementation for fundamental occlusion ray intersection.">
<polygon fill="white" stroke="#666666" points="462,-32 323,-32 323,0 462,0 462,-32"/>
<text xml:space="preserve" text-anchor="start" x="331" y="-18.5" font-family="Helvetica,sans-Serif" font-size="10.00">HF::RayTracer::EmbreeRay</text>
<text xml:space="preserve" text-anchor="middle" x="392.5" y="-6.5" font-family="Helvetica,sans-Serif" font-size="10.00">Tracer::Occluded_IMPL</text>
</a>
</g>
</g>
<!-- Node5&#45;&gt;Node6 -->
<g id="edge5" class="edge">
<title>Node5&#45;&gt;Node6</title>
<path fill="none" stroke="#63b8ff" d="M287.37,-16C295.25,-16 303.33,-16 311.34,-16"/>
<polygon fill="#63b8ff" stroke="#63b8ff" points="311.07,-19.5 321.07,-16 311.07,-12.5 311.07,-19.5"/>
</g>
<!-- Node7 -->
<g id="node7" class="node">
<title>Node7</title>
<g id="a_node7"><a xlink:href="a00464.html#a76e5d26b5063f0e5b49b4ba835f1da93" target="_top" xlink:title=" ">
<polygon fill="white" stroke="#666666" points="646,-26 498,-26 498,-6 646,-6 646,-26"/>
<text xml:space="preserve" text-anchor="middle" x="572" y="-12.5" font-family="Helvetica,sans-Serif" font-size="10.00">HF::RayTracer::ConstructRay</text>
</a>
</g>
</g>
<!-- Node6&#45;&gt;Node7 -->
<g id="edge6" class="edge">
<title>Node6&#45;&gt;Node7</title>
<path fill="none" stroke="#63b8ff" d="M462.38,-16C470.26,-16 478.36,-16 486.42,-16"/>
<polygon fill="#63b8ff" stroke="#63b8ff" points="486.24,-19.5 496.24,-16 486.24,-12.5 486.24,-19.5"/>
</g>
</g>
</svg>
