<?xml version="1.0" encoding="UTF-8" standalone="no"?>
<!DOCTYPE svg PUBLIC "-//W3C//DTD SVG 1.1//EN"
 "http://www.w3.org/Graphics/SVG/1.1/DTD/svg11.dtd">
<!-- Generated by graphviz version 13.1.2 (20250808.2320)
 -->
<!-- Title: HF::RayTracer::RayTriangleIntersection Pages: 1 -->
<svg width="295pt" height="66pt"
 viewBox="0.00 0.00 295.00 66.00" xmlns="http://www.w3.org/2000/svg" xmlns:xlink="http://www.w3.org/1999/xlink">
<g id="graph0" class="graph" transform="scale(1 1) rotate(0) translate(4 62)">
<title>HF::RayTracer::RayTriangleIntersection</title>
<!-- Node1 -->
<g id="node1" class="node">
<title>Node1</title>
<g id="a_node1"><a xlink:title="Determine the distance between a ray&#39;s origin and it&#39;s point of intersection with a triangle.">
<polygon fill="#999999" stroke="#666666" points="139.75,-45 0,-45 0,-13 139.75,-13 139.75,-45"/>
<text xml:space="preserve" text-anchor="start" x="8" y="-31.5" font-family="Helvetica,sans-Serif" font-size="10.00">HF::RayTracer::RayTriangle</text>
<text xml:space="preserve" text-anchor="middle" x="69.88" y="-19.5" font-family="Helvetica,sans-Serif" font-size="10.00">Intersection</text>
</a>
</g>
</g>
<!-- Node2 -->
<g id="node2" class="node">
<title>Node2</title>
<g id="a_node2"><a xlink:href="a00464.html#a16f9f26b0140f023ce820ec55e38c66b" target="_top" xlink:title=" ">
<polygon fill="white" stroke="#666666" points="287,-58 175.75,-58 175.75,-38 287,-38 287,-58"/>
<text xml:space="preserve" text-anchor="middle" x="231.38" y="-44.5" font-family="Helvetica,sans-Serif" font-size="10.00">HF::RayTracer::cross</text>
</a>
</g>
</g>
<!-- Node1&#45;&gt;Node2 -->
<g id="edge1" class="edge">
<title>Node1&#45;&gt;Node2</title>
<path fill="none" stroke="#63b8ff" d="M139.91,-37.22C148.03,-38.19 156.31,-39.18 164.39,-40.14"/>
<polygon fill="#63b8ff" stroke="#63b8ff" points="163.81,-43.59 174.15,-41.3 164.63,-36.64 163.81,-43.59"/>
</g>
<!-- Node3 -->
<g id="node3" class="node">
<title>Node3</title>
<g id="a_node3"><a xlink:href="a00464.html#ae551c109488ce94d0a568712b50da689" target="_top" xlink:title=" ">
<polygon fill="white" stroke="#666666" points="281.75,-20 181,-20 181,0 281.75,0 281.75,-20"/>
<text xml:space="preserve" text-anchor="middle" x="231.38" y="-6.5" font-family="Helvetica,sans-Serif" font-size="10.00">HF::RayTracer::dot</text>
</a>
</g>
</g>
<!-- Node1&#45;&gt;Node3 -->
<g id="edge2" class="edge">
<title>Node1&#45;&gt;Node3</title>
<path fill="none" stroke="#63b8ff" d="M139.91,-20.78C149.83,-19.59 159.98,-18.39 169.73,-17.22"/>
<polygon fill="#63b8ff" stroke="#63b8ff" points="169.92,-20.73 179.44,-16.07 169.1,-13.78 169.92,-20.73"/>
</g>
</g>
</svg>
