<?xml version="1.0" encoding="UTF-8" standalone="no"?>
<!DOCTYPE svg PUBLIC "-//W3C//DTD SVG 1.1//EN"
 "http://www.w3.org/Graphics/SVG/1.1/DTD/svg11.dtd">
<!-- Generated by graphviz version 13.1.2 (20250808.2320)
 -->
<!-- Title: HF::nanoGeom::nanoRT_BVH Pages: 1 -->
<svg width="683pt" height="28pt"
 viewBox="0.00 0.00 683.00 28.00" xmlns="http://www.w3.org/2000/svg" xmlns:xlink="http://www.w3.org/1999/xlink">
<g id="graph0" class="graph" transform="scale(1 1) rotate(0) translate(4 24)">
<title>HF::nanoGeom::nanoRT_BVH</title>
<!-- Node1 -->
<g id="node1" class="node">
<title>Node1</title>
<g id="a_node1"><a xlink:title=" ">
<polygon fill="#999999" stroke="#666666" points="148.75,-20 0,-20 0,0 148.75,0 148.75,-20"/>
<text xml:space="preserve" text-anchor="middle" x="74.38" y="-6.5" font-family="Helvetica,sans-Serif" font-size="10.00">HF::nanoGeom::nanoRT_BVH</text>
</a>
</g>
</g>
<!-- Node2 -->
<g id="node2" class="node">
<title>Node2</title>
<g id="a_node2"><a xlink:href="a00470.html#a1cb19dd0ff847089a65139f01ee06b8c" target="_top" xlink:title=" ">
<polygon fill="white" stroke="#666666" points="333.5,-20 184.75,-20 184.75,0 333.5,0 333.5,-20"/>
<text xml:space="preserve" text-anchor="middle" x="259.12" y="-6.5" font-family="Helvetica,sans-Serif" font-size="10.00">HF::nanoGeom::nanoRT_BVH</text>
</a>
</g>
</g>
<!-- Node1&#45;&gt;Node2 -->
<g id="edge1" class="edge">
<title>Node1&#45;&gt;Node2</title>
<path fill="none" stroke="#63b8ff" d="M149.18,-10C156.97,-10 164.93,-10 172.83,-10"/>
<polygon fill="#63b8ff" stroke="#63b8ff" points="172.83,-13.5 182.83,-10 172.83,-6.5 172.83,-13.5"/>
</g>
<!-- Node3 -->
<g id="node3" class="node">
<title>Node3</title>
<g id="a_node3"><a xlink:href="a01483.html#a96521982d08e0ccd728798410dabeed5" target="_top" xlink:title="Build BVH for input primitives.">
<polygon fill="white" stroke="#666666" points="492,-20 369.5,-20 369.5,0 492,0 492,-20"/>
<text xml:space="preserve" text-anchor="middle" x="430.75" y="-6.5" font-family="Helvetica,sans-Serif" font-size="10.00">nanort::BVHAccel::Build</text>
</a>
</g>
</g>
<!-- Node2&#45;&gt;Node3 -->
<g id="edge2" class="edge">
<title>Node2&#45;&gt;Node3</title>
<path fill="none" stroke="#63b8ff" d="M333.54,-10C341.63,-10 349.87,-10 357.94,-10"/>
<polygon fill="#63b8ff" stroke="#63b8ff" points="357.7,-13.5 367.7,-10 357.7,-6.5 357.7,-13.5"/>
</g>
<!-- Node4 -->
<g id="node4" class="node">
<title>Node4</title>
<g id="a_node4"><a xlink:href="a00474.html#a06549eb8469b9a2004cc5332ca0d011e" target="_top" xlink:title=" ">
<polygon fill="white" stroke="#666666" points="674.5,-20 528,-20 528,0 674.5,0 674.5,-20"/>
<text xml:space="preserve" text-anchor="middle" x="601.25" y="-6.5" font-family="Helvetica,sans-Serif" font-size="10.00">nanort::ComputeBoundingBox</text>
</a>
</g>
</g>
<!-- Node3&#45;&gt;Node4 -->
<g id="edge3" class="edge">
<title>Node3&#45;&gt;Node4</title>
<path fill="none" stroke="#63b8ff" d="M492.11,-10C499.94,-10 508.07,-10 516.2,-10"/>
<polygon fill="#63b8ff" stroke="#63b8ff" points="516.14,-13.5 526.14,-10 516.14,-6.5 516.14,-13.5"/>
</g>
</g>
</svg>
