<?xml version="1.0" encoding="UTF-8" standalone="no"?>
<!DOCTYPE svg PUBLIC "-//W3C//DTD SVG 1.1//EN"
 "http://www.w3.org/Graphics/SVG/1.1/DTD/svg11.dtd">
<!-- Generated by graphviz version 13.1.2 (20250808.2320)
 -->
<!-- Title: AddEdgeFromNodeIDs Pages: 1 -->
<svg width="272pt" height="78pt"
 viewBox="0.00 0.00 272.00 78.00" xmlns="http://www.w3.org/2000/svg" xmlns:xlink="http://www.w3.org/1999/xlink">
<g id="graph0" class="graph" transform="scale(1 1) rotate(0) translate(4 74)">
<title>AddEdgeFromNodeIDs</title>
<!-- Node1 -->
<g id="node1" class="node">
<title>Node1</title>
<g id="a_node1"><a xlink:title="Create a new edge between parent_id and child_id. If these IDs do not exist in the graph,...">
<polygon fill="#999999" stroke="#666666" points="117.25,-42 0,-42 0,-22 117.25,-22 117.25,-42"/>
<text xml:space="preserve" text-anchor="middle" x="58.62" y="-28.5" font-family="Helvetica,sans-Serif" font-size="10.00">AddEdgeFromNodeIDs</text>
</a>
</g>
</g>
<!-- Node2 -->
<g id="node2" class="node">
<title>Node2</title>
<g id="a_node2"><a xlink:href="a01551.html#a37be5c12e488072dea7fa1c8c64346f7" target="_top" xlink:title="Add a new edge to the graph from parent to child.">
<polygon fill="white" stroke="#666666" points="263.75,-70 153.25,-70 153.25,-38 263.75,-38 263.75,-70"/>
<text xml:space="preserve" text-anchor="start" x="161.25" y="-56.5" font-family="Helvetica,sans-Serif" font-size="10.00">HF::SpatialStructures</text>
<text xml:space="preserve" text-anchor="middle" x="208.5" y="-44.5" font-family="Helvetica,sans-Serif" font-size="10.00">::Graph::addEdge</text>
</a>
</g>
</g>
<!-- Node1&#45;&gt;Node2 -->
<g id="edge1" class="edge">
<title>Node1&#45;&gt;Node2</title>
<path fill="none" stroke="#63b8ff" d="M117.64,-40.63C125.56,-41.81 133.74,-43.03 141.78,-44.22"/>
<polygon fill="#63b8ff" stroke="#63b8ff" points="141.12,-47.66 151.53,-45.67 142.15,-40.74 141.12,-47.66"/>
</g>
<!-- Node3 -->
<g id="node3" class="node">
<title>Node3</title>
<g id="a_node3"><a xlink:href="a00434.html#a4a6d9b1a1bf9c8f2b5394875a8ca0c72" target="_top" xlink:title=" ">
<polygon fill="white" stroke="#666666" points="243.12,-20 173.88,-20 173.88,0 243.12,0 243.12,-20"/>
<text xml:space="preserve" text-anchor="middle" x="208.5" y="-6.5" font-family="Helvetica,sans-Serif" font-size="10.00">parse_string</text>
</a>
</g>
</g>
<!-- Node1&#45;&gt;Node3 -->
<g id="edge2" class="edge">
<title>Node1&#45;&gt;Node3</title>
<path fill="none" stroke="#63b8ff" d="M117.64,-23.37C132.44,-21.17 148.12,-18.83 162.17,-16.74"/>
<polygon fill="#63b8ff" stroke="#63b8ff" points="162.67,-20.21 172.04,-15.27 161.64,-13.28 162.67,-20.21"/>
</g>
</g>
</svg>
