<?xml version="1.0" encoding="UTF-8" standalone="no"?>
<!DOCTYPE svg PUBLIC "-//W3C//DTD SVG 1.1//EN"
 "http://www.w3.org/Graphics/SVG/1.1/DTD/svg11.dtd">
<!-- Generated by graphviz version 13.1.2 (20250808.2320)
 -->
<!-- Title: HF::ViewAnalysis::Aggregate Pages: 1 -->
<svg width="568pt" height="66pt"
 viewBox="0.00 0.00 568.00 66.00" xmlns="http://www.w3.org/2000/svg" xmlns:xlink="http://www.w3.org/1999/xlink">
<g id="graph0" class="graph" transform="scale(1 1) rotate(0) translate(4 62)">
<title>HF::ViewAnalysis::Aggregate</title>
<!-- Node1 -->
<g id="node1" class="node">
<title>Node1</title>
<g id="a_node1"><a xlink:title=" ">
<polygon fill="#999999" stroke="#666666" points="560.25,-39 415.25,-39 415.25,-19 560.25,-19 560.25,-39"/>
<text xml:space="preserve" text-anchor="middle" x="487.75" y="-25.5" font-family="Helvetica,sans-Serif" font-size="10.00">HF::ViewAnalysis::Aggregate</text>
</a>
</g>
</g>
<!-- Node2 -->
<g id="node2" class="node">
<title>Node2</title>
<g id="a_node2"><a xlink:href="a00459.html#ga78f77d24531d0fa55c9b60d7ec1bf32a" target="_top" xlink:title="Conduct view analysis and recieve a summarized set of results for each node.">
<polygon fill="white" stroke="#666666" points="379.25,-45 217.75,-45 217.75,-13 379.25,-13 379.25,-45"/>
<text xml:space="preserve" text-anchor="start" x="225.75" y="-31.5" font-family="Helvetica,sans-Serif" font-size="10.00">HF::ViewAnalysis::Spherical</text>
<text xml:space="preserve" text-anchor="middle" x="298.5" y="-19.5" font-family="Helvetica,sans-Serif" font-size="10.00">RayshootWithAnyRTForDistance</text>
</a>
</g>
</g>
<!-- Node1&#45;&gt;Node2 -->
<g id="edge1" class="edge">
<title>Node1&#45;&gt;Node2</title>
<path fill="none" stroke="#63b8ff" d="M403.39,-29C395.48,-29 387.47,-29 379.59,-29"/>
<polygon fill="#63b8ff" stroke="#63b8ff" points="403.38,-32.5 413.38,-29 403.38,-25.5 403.38,-32.5"/>
</g>
<!-- Node3 -->
<g id="node3" class="node">
<title>Node3</title>
<g id="a_node3"><a xlink:href="a00459.html#gab6b8e3eab649b42ac014fb7d02d54892" target="_top" xlink:title="Conduct view analysis, then aggregate the results.">
<polygon fill="white" stroke="#666666" points="173.5,-58 8.25,-58 8.25,-38 173.5,-38 173.5,-58"/>
<text xml:space="preserve" text-anchor="middle" x="90.88" y="-44.5" font-family="Helvetica,sans-Serif" font-size="10.00">SphereicalViewAnalysisAggregate</text>
</a>
</g>
</g>
<!-- Node2&#45;&gt;Node3 -->
<g id="edge2" class="edge">
<title>Node2&#45;&gt;Node3</title>
<path fill="none" stroke="#63b8ff" d="M206.23,-37.43C195.42,-38.43 184.44,-39.45 173.78,-40.43"/>
<polygon fill="#63b8ff" stroke="#63b8ff" points="206.27,-40.94 215.9,-36.54 205.62,-33.97 206.27,-40.94"/>
</g>
<!-- Node4 -->
<g id="node4" class="node">
<title>Node4</title>
<g id="a_node4"><a xlink:href="a00459.html#gaa4c5714c1e557ef83a03d447eb30c6d0" target="_top" xlink:title="Conduct view analysis, and aggregate the results.">
<polygon fill="white" stroke="#666666" points="181.75,-20 0,-20 0,0 181.75,0 181.75,-20"/>
<text xml:space="preserve" text-anchor="middle" x="90.88" y="-6.5" font-family="Helvetica,sans-Serif" font-size="10.00">SphereicalViewAnalysisAggregateFlat</text>
</a>
</g>
</g>
<!-- Node2&#45;&gt;Node4 -->
<g id="edge3" class="edge">
<title>Node2&#45;&gt;Node4</title>
<path fill="none" stroke="#63b8ff" d="M206.15,-20.56C198.12,-19.82 190,-19.07 181.98,-18.33"/>
<polygon fill="#63b8ff" stroke="#63b8ff" points="205.62,-24.03 215.9,-21.46 206.27,-17.06 205.62,-24.03"/>
</g>
</g>
</svg>
