<?xml version="1.0" encoding="UTF-8" standalone="no"?>
<!DOCTYPE svg PUBLIC "-//W3C//DTD SVG 1.1//EN"
 "http://www.w3.org/Graphics/SVG/1.1/DTD/svg11.dtd">
<!-- Generated by graphviz version 13.1.2 (20250808.2320)
 -->
<!-- Title: LoadOBJ Pages: 1 -->
<svg width="264pt" height="84pt"
 viewBox="0.00 0.00 264.00 84.00" xmlns="http://www.w3.org/2000/svg" xmlns:xlink="http://www.w3.org/1999/xlink">
<g id="graph0" class="graph" transform="scale(1 1) rotate(0) translate(4 80)">
<title>LoadOBJ</title>
<!-- Node1 -->
<g id="node1" class="node">
<title>Node1</title>
<g id="a_node1"><a xlink:title="Load an obj from the given path then rotate it by x,y, and z.">
<polygon fill="#999999" stroke="#666666" points="56.5,-48 0,-48 0,-28 56.5,-28 56.5,-48"/>
<text xml:space="preserve" text-anchor="middle" x="28.25" y="-34.5" font-family="Helvetica,sans-Serif" font-size="10.00">LoadOBJ</text>
</a>
</g>
</g>
<!-- Node2 -->
<g id="node2" class="node">
<title>Node2</title>
<g id="a_node2"><a xlink:href="a00455.html#gaa07792b399e76e6101388bb6bbb96047" target="_top" xlink:title="Get the ID of a mesh.">
<polygon fill="white" stroke="#666666" points="207.12,-76 140.88,-76 140.88,-56 207.12,-56 207.12,-76"/>
<text xml:space="preserve" text-anchor="middle" x="174" y="-62.5" font-family="Helvetica,sans-Serif" font-size="10.00">GetMeshID</text>
</a>
</g>
</g>
<!-- Node1&#45;&gt;Node2 -->
<g id="edge1" class="edge">
<title>Node1&#45;&gt;Node2</title>
<path fill="none" stroke="#63b8ff" d="M56.97,-43.4C77.51,-47.4 105.91,-52.93 129.47,-57.52"/>
<polygon fill="#63b8ff" stroke="#63b8ff" points="128.62,-60.92 139.11,-59.4 129.96,-54.05 128.62,-60.92"/>
</g>
<!-- Node3 -->
<g id="node3" class="node">
<title>Node3</title>
<g id="a_node3"><a xlink:href="a00469.html#a06c0c11adb62f8b204e42f75ac1990ac" target="_top" xlink:title="Create MeshInfo instances from the OBJ at path.">
<polygon fill="white" stroke="#666666" points="255.5,-20 92.5,-20 92.5,0 255.5,0 255.5,-20"/>
<text xml:space="preserve" text-anchor="middle" x="174" y="-6.5" font-family="Helvetica,sans-Serif" font-size="10.00">HF::Geometry::LoadMeshObjects</text>
</a>
</g>
</g>
<!-- Node1&#45;&gt;Node3 -->
<g id="edge2" class="edge">
<title>Node1&#45;&gt;Node3</title>
<path fill="none" stroke="#63b8ff" d="M56.97,-32.6C71.56,-29.76 90.12,-26.14 108.09,-22.64"/>
<polygon fill="#63b8ff" stroke="#63b8ff" points="108.53,-26.12 117.68,-20.78 107.2,-19.25 108.53,-26.12"/>
</g>
<!-- Node3&#45;&gt;Node3 -->
<g id="edge3" class="edge">
<title>Node3&#45;&gt;Node3</title>
<path fill="none" stroke="#63b8ff" d="M150.84,-20.34C140.95,-28.98 148.66,-38 174,-38 187.86,-38 196.44,-35.3 199.76,-31.44"/>
<polygon fill="#63b8ff" stroke="#63b8ff" points="203.19,-30.75 197.5,-21.81 196.38,-32.35 203.19,-30.75"/>
</g>
</g>
</svg>
