<?xml version="1.0" encoding="UTF-8" standalone="no"?>
<!DOCTYPE svg PUBLIC "-//W3C//DTD SVG 1.1//EN"
 "http://www.w3.org/Graphics/SVG/1.1/DTD/svg11.dtd">
<!-- Generated by graphviz version 13.1.2 (20250808.2320)
 -->
<!-- Title: AddEdgeFromNodeStructs Pages: 1 -->
<svg width="288pt" height="78pt"
 viewBox="0.00 0.00 288.00 78.00" xmlns="http://www.w3.org/2000/svg" xmlns:xlink="http://www.w3.org/1999/xlink">
<g id="graph0" class="graph" transform="scale(1 1) rotate(0) translate(4 74)">
<title>AddEdgeFromNodeStructs</title>
<!-- Node1 -->
<g id="node1" class="node">
<title>Node1</title>
<g id="a_node1"><a xlink:title="Add an edge between parent and child. If parent or child does not already exist in the graph,...">
<polygon fill="#999999" stroke="#666666" points="133,-42 0,-42 0,-22 133,-22 133,-42"/>
<text xml:space="preserve" text-anchor="middle" x="66.5" y="-28.5" font-family="Helvetica,sans-Serif" font-size="10.00">AddEdgeFromNodeStructs</text>
</a>
</g>
</g>
<!-- Node2 -->
<g id="node2" class="node">
<title>Node2</title>
<g id="a_node2"><a xlink:href="a01551.html#a37be5c12e488072dea7fa1c8c64346f7" target="_top" xlink:title="Add a new edge to the graph from parent to child.">
<polygon fill="white" stroke="#666666" points="279.5,-70 169,-70 169,-38 279.5,-38 279.5,-70"/>
<text xml:space="preserve" text-anchor="start" x="177" y="-56.5" font-family="Helvetica,sans-Serif" font-size="10.00">HF::SpatialStructures</text>
<text xml:space="preserve" text-anchor="middle" x="224.25" y="-44.5" font-family="Helvetica,sans-Serif" font-size="10.00">::Graph::addEdge</text>
</a>
</g>
</g>
<!-- Node1&#45;&gt;Node2 -->
<g id="edge1" class="edge">
<title>Node1&#45;&gt;Node2</title>
<path fill="none" stroke="#63b8ff" d="M133.1,-41.27C141.12,-42.4 149.33,-43.56 157.35,-44.69"/>
<polygon fill="#63b8ff" stroke="#63b8ff" points="156.66,-48.13 167.05,-46.06 157.64,-41.2 156.66,-48.13"/>
</g>
<!-- Node3 -->
<g id="node3" class="node">
<title>Node3</title>
<g id="a_node3"><a xlink:href="a00434.html#a4a6d9b1a1bf9c8f2b5394875a8ca0c72" target="_top" xlink:title=" ">
<polygon fill="white" stroke="#666666" points="258.88,-20 189.62,-20 189.62,0 258.88,0 258.88,-20"/>
<text xml:space="preserve" text-anchor="middle" x="224.25" y="-6.5" font-family="Helvetica,sans-Serif" font-size="10.00">parse_string</text>
</a>
</g>
</g>
<!-- Node1&#45;&gt;Node3 -->
<g id="edge2" class="edge">
<title>Node1&#45;&gt;Node3</title>
<path fill="none" stroke="#63b8ff" d="M133.1,-22.73C148.17,-20.61 163.87,-18.39 177.86,-16.41"/>
<polygon fill="#63b8ff" stroke="#63b8ff" points="178.25,-19.89 187.66,-15.03 177.27,-12.96 178.25,-19.89"/>
</g>
</g>
</svg>
