<?xml version="1.0" encoding="UTF-8" standalone="no"?>
<!DOCTYPE svg PUBLIC "-//W3C//DTD SVG 1.1//EN"
 "http://www.w3.org/Graphics/SVG/1.1/DTD/svg11.dtd">
<!-- Generated by graphviz version 13.1.2 (20250808.2320)
 -->
<!-- Title: nanort::IntersectRayAABB&lt; float &gt; Pages: 1 -->
<svg width="263pt" height="66pt"
 viewBox="0.00 0.00 263.00 66.00" xmlns="http://www.w3.org/2000/svg" xmlns:xlink="http://www.w3.org/1999/xlink">
<g id="graph0" class="graph" transform="scale(1 1) rotate(0) translate(4 62)">
<title>nanort::IntersectRayAABB&lt; float &gt;</title>
<!-- Node1 -->
<g id="node1" class="node">
<title>Node1</title>
<g id="a_node1"><a xlink:title=" ">
<polygon fill="#999999" stroke="#666666" points="132.25,-45 0,-45 0,-13 132.25,-13 132.25,-45"/>
<text xml:space="preserve" text-anchor="start" x="8" y="-31.5" font-family="Helvetica,sans-Serif" font-size="10.00">nanort::IntersectRayAABB</text>
<text xml:space="preserve" text-anchor="middle" x="66.12" y="-19.5" font-family="Helvetica,sans-Serif" font-size="10.00">&lt; float &gt;</text>
</a>
</g>
</g>
<!-- Node2 -->
<g id="node2" class="node">
<title>Node2</title>
<g id="a_node2"><a xlink:href="a00474.html#a3253537ad2f0cdbca3f1b418007a1736" target="_top" xlink:title=" ">
<polygon fill="white" stroke="#666666" points="254.75,-58 168.25,-58 168.25,-38 254.75,-38 254.75,-58"/>
<text xml:space="preserve" text-anchor="middle" x="211.5" y="-44.5" font-family="Helvetica,sans-Serif" font-size="10.00">nanort::safemax</text>
</a>
</g>
</g>
<!-- Node1&#45;&gt;Node2 -->
<g id="edge1" class="edge">
<title>Node1&#45;&gt;Node2</title>
<path fill="none" stroke="#63b8ff" d="M132.52,-37.67C140.56,-38.73 148.7,-39.81 156.55,-40.85"/>
<polygon fill="#63b8ff" stroke="#63b8ff" points="155.9,-44.29 166.27,-42.14 156.82,-37.36 155.9,-44.29"/>
</g>
<!-- Node3 -->
<g id="node3" class="node">
<title>Node3</title>
<g id="a_node3"><a xlink:href="a00474.html#a319aa74b4c12ff9ad2a2ea634d0d4397" target="_top" xlink:title=" ">
<polygon fill="white" stroke="#666666" points="253.25,-20 169.75,-20 169.75,0 253.25,0 253.25,-20"/>
<text xml:space="preserve" text-anchor="middle" x="211.5" y="-6.5" font-family="Helvetica,sans-Serif" font-size="10.00">nanort::safemin</text>
</a>
</g>
</g>
<!-- Node1&#45;&gt;Node3 -->
<g id="edge2" class="edge">
<title>Node1&#45;&gt;Node3</title>
<path fill="none" stroke="#63b8ff" d="M132.52,-20.33C141.15,-19.19 149.91,-18.03 158.28,-16.92"/>
<polygon fill="#63b8ff" stroke="#63b8ff" points="158.45,-20.43 167.91,-15.64 157.53,-13.49 158.45,-20.43"/>
</g>
</g>
</svg>
