<?xml version="1.0" encoding="UTF-8" standalone="no"?>
<!DOCTYPE svg PUBLIC "-//W3C//DTD SVG 1.1//EN"
 "http://www.w3.org/Graphics/SVG/1.1/DTD/svg11.dtd">
<!-- Generated by graphviz version 13.1.2 (20250808.2320)
 -->
<!-- Title: nlohmann::detail::dtoa_impl::get_cached_power_for_binary_exponent Pages: 1 -->
<svg width="599pt" height="90pt"
 viewBox="0.00 0.00 599.00 90.00" xmlns="http://www.w3.org/2000/svg" xmlns:xlink="http://www.w3.org/1999/xlink">
<g id="graph0" class="graph" transform="scale(1 1) rotate(0) translate(4 86)">
<title>nlohmann::detail::dtoa_impl::get_cached_power_for_binary_exponent</title>
<!-- Node1 -->
<g id="node1" class="node">
<title>Node1</title>
<g id="a_node1"><a xlink:title=" ">
<polygon fill="#999999" stroke="#666666" points="591.25,-63 464.25,-63 464.25,-19 591.25,-19 591.25,-63"/>
<text xml:space="preserve" text-anchor="start" x="472.25" y="-49.5" font-family="Helvetica,sans-Serif" font-size="10.00">nlohmann::detail::dtoa</text>
<text xml:space="preserve" text-anchor="start" x="472.25" y="-37.5" font-family="Helvetica,sans-Serif" font-size="10.00">_impl::get_cached_power</text>
<text xml:space="preserve" text-anchor="middle" x="527.75" y="-25.5" font-family="Helvetica,sans-Serif" font-size="10.00">_for_binary_exponent</text>
</a>
</g>
</g>
<!-- Node2 -->
<g id="node2" class="node">
<title>Node2</title>
<g id="a_node2"><a xlink:href="a00479.html#a05b681dcb8569b9784c6dccfadb01633" target="_top" xlink:title=" ">
<polygon fill="white" stroke="#666666" points="428.25,-57 316.25,-57 316.25,-25 428.25,-25 428.25,-57"/>
<text xml:space="preserve" text-anchor="start" x="324.25" y="-43.5" font-family="Helvetica,sans-Serif" font-size="10.00">nlohmann::detail::dtoa</text>
<text xml:space="preserve" text-anchor="middle" x="372.25" y="-31.5" font-family="Helvetica,sans-Serif" font-size="10.00">_impl::grisu2</text>
</a>
</g>
</g>
<!-- Node1&#45;&gt;Node2 -->
<g id="edge1" class="edge">
<title>Node1&#45;&gt;Node2</title>
<path fill="none" stroke="#63b8ff" d="M452.47,-41C444.37,-41 436.23,-41 428.41,-41"/>
<polygon fill="#63b8ff" stroke="#63b8ff" points="452.36,-44.5 462.36,-41 452.36,-37.5 452.36,-44.5"/>
</g>
<!-- Node3 -->
<g id="node3" class="node">
<title>Node3</title>
<g id="a_node3"><a xlink:href="a00479.html#aab7a9670a4f4704a5d0347ad7588576b" target="_top" xlink:title=" ">
<polygon fill="white" stroke="#666666" points="280.25,-82 168.25,-82 168.25,-50 280.25,-50 280.25,-82"/>
<text xml:space="preserve" text-anchor="start" x="176.25" y="-68.5" font-family="Helvetica,sans-Serif" font-size="10.00">nlohmann::detail::dtoa</text>
<text xml:space="preserve" text-anchor="middle" x="224.25" y="-56.5" font-family="Helvetica,sans-Serif" font-size="10.00">_impl::grisu2</text>
</a>
</g>
</g>
<!-- Node2&#45;&gt;Node3 -->
<g id="edge2" class="edge">
<title>Node2&#45;&gt;Node3</title>
<path fill="none" stroke="#63b8ff" d="M304.72,-52.39C296.63,-53.78 288.43,-55.18 280.52,-56.54"/>
<polygon fill="#63b8ff" stroke="#63b8ff" points="305.3,-55.84 314.56,-50.71 304.11,-48.94 305.3,-55.84"/>
</g>
<!-- Node4 -->
<g id="node4" class="node">
<title>Node4</title>
<g id="a_node4"><a xlink:href="a00477.html#a4ceeb4ec7f2cd493dd9cf328044c1e3c" target="_top" xlink:title="generates a decimal representation of the floating&#45;point number value in [first, last).">
<polygon fill="white" stroke="#666666" points="275,-32 173.5,-32 173.5,0 275,0 275,-32"/>
<text xml:space="preserve" text-anchor="start" x="181.5" y="-18.5" font-family="Helvetica,sans-Serif" font-size="10.00">nlohmann::detail::to</text>
<text xml:space="preserve" text-anchor="middle" x="224.25" y="-6.5" font-family="Helvetica,sans-Serif" font-size="10.00">_chars</text>
</a>
</g>
</g>
<!-- Node2&#45;&gt;Node4 -->
<g id="edge3" class="edge">
<title>Node2&#45;&gt;Node4</title>
<path fill="none" stroke="#63b8ff" d="M304.91,-29.64C294.93,-27.93 284.8,-26.2 275.24,-24.56"/>
<polygon fill="#63b8ff" stroke="#63b8ff" points="304.11,-33.06 314.56,-31.29 305.3,-26.16 304.11,-33.06"/>
</g>
<!-- Node5 -->
<g id="node5" class="node">
<title>Node5</title>
<g id="a_node5"><a xlink:href="a02055.html#a24b0fe45dc774441237bde198a133d8a" target="_top" xlink:title=" ">
<polygon fill="white" stroke="#666666" points="132.25,-32 0,-32 0,0 132.25,0 132.25,-32"/>
<text xml:space="preserve" text-anchor="start" x="8" y="-18.5" font-family="Helvetica,sans-Serif" font-size="10.00">nlohmann::detail::serializer</text>
<text xml:space="preserve" text-anchor="middle" x="66.12" y="-6.5" font-family="Helvetica,sans-Serif" font-size="10.00">::dump_float</text>
</a>
</g>
</g>
<!-- Node4&#45;&gt;Node5 -->
<g id="edge4" class="edge">
<title>Node4&#45;&gt;Node5</title>
<path fill="none" stroke="#63b8ff" d="M161.94,-16C152.35,-16 142.41,-16 132.73,-16"/>
<polygon fill="#63b8ff" stroke="#63b8ff" points="161.91,-19.5 171.91,-16 161.91,-12.5 161.91,-19.5"/>
</g>
</g>
</svg>
