<?xml version="1.0" encoding="UTF-8" standalone="no"?>
<!DOCTYPE svg PUBLIC "-//W3C//DTD SVG 1.1//EN"
 "http://www.w3.org/Graphics/SVG/1.1/DTD/svg11.dtd">
<!-- Generated by graphviz version 13.1.2 (20250808.2320)
 -->
<!-- Title: nlohmann::detail::dtoa_impl::grisu2 Pages: 1 -->
<svg width="620pt" height="252pt"
 viewBox="0.00 0.00 620.00 252.00" xmlns="http://www.w3.org/2000/svg" xmlns:xlink="http://www.w3.org/1999/xlink">
<g id="graph0" class="graph" transform="scale(1 1) rotate(0) translate(4 248)">
<title>nlohmann::detail::dtoa_impl::grisu2</title>
<!-- Node1 -->
<g id="node1" class="node">
<title>Node1</title>
<g id="a_node1"><a xlink:title=" ">
<polygon fill="#999999" stroke="#666666" points="112,-138 0,-138 0,-106 112,-106 112,-138"/>
<text xml:space="preserve" text-anchor="start" x="8" y="-124.5" font-family="Helvetica,sans-Serif" font-size="10.00">nlohmann::detail::dtoa</text>
<text xml:space="preserve" text-anchor="middle" x="56" y="-112.5" font-family="Helvetica,sans-Serif" font-size="10.00">_impl::grisu2</text>
</a>
</g>
</g>
<!-- Node2 -->
<g id="node2" class="node">
<title>Node2</title>
<g id="a_node2"><a xlink:href="a00479.html#a22b6e37654ac93c6d0d9c06ec1bf5ded" target="_top" xlink:title=" ">
<polygon fill="white" stroke="#666666" points="283.25,-194 148,-194 148,-162 283.25,-162 283.25,-194"/>
<text xml:space="preserve" text-anchor="start" x="156" y="-180.5" font-family="Helvetica,sans-Serif" font-size="10.00">nlohmann::detail::dtoa</text>
<text xml:space="preserve" text-anchor="middle" x="215.62" y="-168.5" font-family="Helvetica,sans-Serif" font-size="10.00">_impl::compute_boundaries</text>
</a>
</g>
</g>
<!-- Node1&#45;&gt;Node2 -->
<g id="edge1" class="edge">
<title>Node1&#45;&gt;Node2</title>
<path fill="none" stroke="#63b8ff" d="M103.44,-138.5C120.36,-144.51 139.69,-151.38 157.44,-157.68"/>
<polygon fill="#63b8ff" stroke="#63b8ff" points="156.22,-160.97 166.82,-161.02 158.57,-154.37 156.22,-160.97"/>
</g>
<!-- Node5 -->
<g id="node5" class="node">
<title>Node5</title>
<g id="a_node5"><a xlink:href="a00479.html#a05b681dcb8569b9784c6dccfadb01633" target="_top" xlink:title=" ">
<polygon fill="white" stroke="#666666" points="271.62,-110 159.62,-110 159.62,-78 271.62,-78 271.62,-110"/>
<text xml:space="preserve" text-anchor="start" x="167.62" y="-96.5" font-family="Helvetica,sans-Serif" font-size="10.00">nlohmann::detail::dtoa</text>
<text xml:space="preserve" text-anchor="middle" x="215.62" y="-84.5" font-family="Helvetica,sans-Serif" font-size="10.00">_impl::grisu2</text>
</a>
</g>
</g>
<!-- Node1&#45;&gt;Node5 -->
<g id="edge4" class="edge">
<title>Node1&#45;&gt;Node5</title>
<path fill="none" stroke="#63b8ff" d="M112.13,-112.21C123.7,-110.15 136.02,-107.96 147.97,-105.84"/>
<polygon fill="#63b8ff" stroke="#63b8ff" points="148.54,-109.29 157.77,-104.1 147.31,-102.4 148.54,-109.29"/>
</g>
<!-- Node3 -->
<g id="node3" class="node">
<title>Node3</title>
<g id="a_node3"><a xlink:href="a02043.html#a2246b5b40c7c6992153ef174063d6aa6" target="_top" xlink:title="normalize x such that the significand is &gt;= 2^(q&#45;1)">
<polygon fill="white" stroke="#666666" points="440.25,-244 326,-244 326,-212 440.25,-212 440.25,-244"/>
<text xml:space="preserve" text-anchor="start" x="334" y="-230.5" font-family="Helvetica,sans-Serif" font-size="10.00">nlohmann::detail::dtoa</text>
<text xml:space="preserve" text-anchor="middle" x="383.12" y="-218.5" font-family="Helvetica,sans-Serif" font-size="10.00">_impl::diyfp::normalize</text>
</a>
</g>
</g>
<!-- Node2&#45;&gt;Node3 -->
<g id="edge2" class="edge">
<title>Node2&#45;&gt;Node3</title>
<path fill="none" stroke="#63b8ff" d="M270.82,-194.37C285.46,-198.8 301.46,-203.63 316.64,-208.22"/>
<polygon fill="#63b8ff" stroke="#63b8ff" points="315.5,-211.53 326.08,-211.07 317.52,-204.83 315.5,-211.53"/>
</g>
<!-- Node4 -->
<g id="node4" class="node">
<title>Node4</title>
<g id="a_node4"><a xlink:href="a02043.html#a6b6665e467ebabe0c0f7418d3fe4b118" target="_top" xlink:title="normalize x such that the result has the exponent E">
<polygon fill="white" stroke="#666666" points="447,-194 319.25,-194 319.25,-162 447,-162 447,-194"/>
<text xml:space="preserve" text-anchor="start" x="327.25" y="-180.5" font-family="Helvetica,sans-Serif" font-size="10.00">nlohmann::detail::dtoa</text>
<text xml:space="preserve" text-anchor="middle" x="383.12" y="-168.5" font-family="Helvetica,sans-Serif" font-size="10.00">_impl::diyfp::normalize_to</text>
</a>
</g>
</g>
<!-- Node2&#45;&gt;Node4 -->
<g id="edge3" class="edge">
<title>Node2&#45;&gt;Node4</title>
<path fill="none" stroke="#63b8ff" d="M283.46,-178C291.39,-178 299.52,-178 307.55,-178"/>
<polygon fill="#63b8ff" stroke="#63b8ff" points="307.28,-181.5 317.28,-178 307.28,-174.5 307.28,-181.5"/>
</g>
<!-- Node6 -->
<g id="node6" class="node">
<title>Node6</title>
<g id="a_node6"><a xlink:href="a00479.html#adbf329a18c5cf854a3477327afd2200b" target="_top" xlink:title=" ">
<polygon fill="white" stroke="#666666" points="446.62,-144 319.62,-144 319.62,-100 446.62,-100 446.62,-144"/>
<text xml:space="preserve" text-anchor="start" x="327.62" y="-130.5" font-family="Helvetica,sans-Serif" font-size="10.00">nlohmann::detail::dtoa</text>
<text xml:space="preserve" text-anchor="start" x="327.62" y="-118.5" font-family="Helvetica,sans-Serif" font-size="10.00">_impl::get_cached_power</text>
<text xml:space="preserve" text-anchor="middle" x="383.12" y="-106.5" font-family="Helvetica,sans-Serif" font-size="10.00">_for_binary_exponent</text>
</a>
</g>
</g>
<!-- Node5&#45;&gt;Node6 -->
<g id="edge5" class="edge">
<title>Node5&#45;&gt;Node6</title>
<path fill="none" stroke="#63b8ff" d="M271.73,-103.32C283.4,-105.3 295.89,-107.41 308.12,-109.48"/>
<polygon fill="#63b8ff" stroke="#63b8ff" points="307.31,-112.89 317.76,-111.11 308.48,-105.99 307.31,-112.89"/>
</g>
<!-- Node7 -->
<g id="node7" class="node">
<title>Node7</title>
<g id="a_node7"><a xlink:href="a00479.html#a9b899c72b0e1e3dd46d75c2b4e6bcdfb" target="_top" xlink:title=" ">
<polygon fill="white" stroke="#666666" points="441,-82 325.25,-82 325.25,-50 441,-50 441,-82"/>
<text xml:space="preserve" text-anchor="start" x="333.25" y="-68.5" font-family="Helvetica,sans-Serif" font-size="10.00">nlohmann::detail::dtoa</text>
<text xml:space="preserve" text-anchor="middle" x="383.12" y="-56.5" font-family="Helvetica,sans-Serif" font-size="10.00">_impl::grisu2_digit_gen</text>
</a>
</g>
</g>
<!-- Node5&#45;&gt;Node7 -->
<g id="edge6" class="edge">
<title>Node5&#45;&gt;Node7</title>
<path fill="none" stroke="#63b8ff" d="M271.73,-84.68C285.24,-82.39 299.85,-79.92 313.89,-77.54"/>
<polygon fill="#63b8ff" stroke="#63b8ff" points="314.22,-81.04 323.5,-75.92 313.06,-74.14 314.22,-81.04"/>
</g>
<!-- Node11 -->
<g id="node11" class="node">
<title>Node11</title>
<g id="a_node11"><a xlink:href="a02043.html#aa5f250d12ce89c81fdb08900c6a823e8" target="_top" xlink:title="returns x * y">
<polygon fill="white" stroke="#666666" points="439.12,-32 327.12,-32 327.12,0 439.12,0 439.12,-32"/>
<text xml:space="preserve" text-anchor="start" x="335.12" y="-18.5" font-family="Helvetica,sans-Serif" font-size="10.00">nlohmann::detail::dtoa</text>
<text xml:space="preserve" text-anchor="middle" x="383.12" y="-6.5" font-family="Helvetica,sans-Serif" font-size="10.00">_impl::diyfp::mul</text>
</a>
</g>
</g>
<!-- Node5&#45;&gt;Node11 -->
<g id="edge10" class="edge">
<title>Node5&#45;&gt;Node11</title>
<path fill="none" stroke="#63b8ff" d="M246.33,-77.67C266.62,-66.77 294.25,-52.39 319.25,-41 322.36,-39.58 325.57,-38.17 328.82,-36.77"/>
<polygon fill="#63b8ff" stroke="#63b8ff" points="330.01,-40.07 337.88,-32.97 327.3,-33.61 330.01,-40.07"/>
</g>
<!-- Node8 -->
<g id="node8" class="node">
<title>Node8</title>
<g id="a_node8"><a xlink:href="a00479.html#a36ded358763b5dbcea9867660fbe4e28" target="_top" xlink:title=" ">
<polygon fill="white" stroke="#666666" points="612.25,-132 483,-132 483,-100 612.25,-100 612.25,-132"/>
<text xml:space="preserve" text-anchor="start" x="491" y="-118.5" font-family="Helvetica,sans-Serif" font-size="10.00">nlohmann::detail::dtoa</text>
<text xml:space="preserve" text-anchor="middle" x="547.62" y="-106.5" font-family="Helvetica,sans-Serif" font-size="10.00">_impl::find_largest_pow10</text>
</a>
</g>
</g>
<!-- Node7&#45;&gt;Node8 -->
<g id="edge7" class="edge">
<title>Node7&#45;&gt;Node8</title>
<path fill="none" stroke="#63b8ff" d="M437.33,-82.37C451.71,-86.8 467.42,-91.63 482.33,-96.22"/>
<polygon fill="#63b8ff" stroke="#63b8ff" points="480.99,-99.46 491.57,-99.06 483.04,-92.77 480.99,-99.46"/>
</g>
<!-- Node9 -->
<g id="node9" class="node">
<title>Node9</title>
<g id="a_node9"><a xlink:href="a00479.html#a5bc841e0bee12fd6489d49cf7bd07bb4" target="_top" xlink:title=" ">
<polygon fill="white" stroke="#666666" points="603.62,-82 491.62,-82 491.62,-50 603.62,-50 603.62,-82"/>
<text xml:space="preserve" text-anchor="start" x="499.62" y="-68.5" font-family="Helvetica,sans-Serif" font-size="10.00">nlohmann::detail::dtoa</text>
<text xml:space="preserve" text-anchor="middle" x="547.62" y="-56.5" font-family="Helvetica,sans-Serif" font-size="10.00">_impl::grisu2_round</text>
</a>
</g>
</g>
<!-- Node7&#45;&gt;Node9 -->
<g id="edge8" class="edge">
<title>Node7&#45;&gt;Node9</title>
<path fill="none" stroke="#63b8ff" d="M441.42,-66C453.8,-66 467,-66 479.71,-66"/>
<polygon fill="#63b8ff" stroke="#63b8ff" points="479.7,-69.5 489.7,-66 479.7,-62.5 479.7,-69.5"/>
</g>
<!-- Node10 -->
<g id="node10" class="node">
<title>Node10</title>
<g id="a_node10"><a xlink:href="a02043.html#aeb26771af54ad73598c1a0430d65d884" target="_top" xlink:title="returns x &#45; y">
<polygon fill="white" stroke="#666666" points="603.62,-32 491.62,-32 491.62,0 603.62,0 603.62,-32"/>
<text xml:space="preserve" text-anchor="start" x="499.62" y="-18.5" font-family="Helvetica,sans-Serif" font-size="10.00">nlohmann::detail::dtoa</text>
<text xml:space="preserve" text-anchor="middle" x="547.62" y="-6.5" font-family="Helvetica,sans-Serif" font-size="10.00">_impl::diyfp::sub</text>
</a>
</g>
</g>
<!-- Node7&#45;&gt;Node10 -->
<g id="edge9" class="edge">
<title>Node7&#45;&gt;Node10</title>
<path fill="none" stroke="#63b8ff" d="M437.33,-49.63C451.71,-45.2 467.42,-40.37 482.33,-35.78"/>
<polygon fill="#63b8ff" stroke="#63b8ff" points="483.04,-39.23 491.57,-32.94 480.99,-32.54 483.04,-39.23"/>
</g>
</g>
</svg>
