<?xml version="1.0" encoding="UTF-8" standalone="no"?>
<!DOCTYPE svg PUBLIC "-//W3C//DTD SVG 1.1//EN"
 "http://www.w3.org/Graphics/SVG/1.1/DTD/svg11.dtd">
<!-- Generated by graphviz version 13.1.2 (20250808.2320)
 -->
<!-- Title: HF::GraphGenerator::CalculateStepType Pages: 1 -->
<svg width="691pt" height="180pt"
 viewBox="0.00 0.00 691.00 180.00" xmlns="http://www.w3.org/2000/svg" xmlns:xlink="http://www.w3.org/1999/xlink">
<g id="graph0" class="graph" transform="scale(1 1) rotate(0) translate(4 176)">
<title>HF::GraphGenerator::CalculateStepType</title>
<!-- Node1 -->
<g id="node1" class="node">
<title>Node1</title>
<g id="a_node1"><a xlink:title=" ">
<polygon fill="#999999" stroke="#666666" points="104.5,-150 0,-150 0,-118 104.5,-118 104.5,-150"/>
<text xml:space="preserve" text-anchor="start" x="8" y="-136.5" font-family="Helvetica,sans-Serif" font-size="10.00">HF::GraphGenerator</text>
<text xml:space="preserve" text-anchor="middle" x="52.25" y="-124.5" font-family="Helvetica,sans-Serif" font-size="10.00">::CalculateStepType</text>
</a>
</g>
</g>
<!-- Node2 -->
<g id="node2" class="node">
<title>Node2</title>
<g id="a_node2"><a xlink:href="a00463.html#a73b53db067a504d36e9481dfe3326b60" target="_top" xlink:title="Cast an input value to real_t using static cast.">
<polygon fill="white" stroke="#666666" points="385.5,-172 281,-172 281,-140 385.5,-140 385.5,-172"/>
<text xml:space="preserve" text-anchor="start" x="289" y="-158.5" font-family="Helvetica,sans-Serif" font-size="10.00">HF::GraphGenerator</text>
<text xml:space="preserve" text-anchor="middle" x="333.25" y="-146.5" font-family="Helvetica,sans-Serif" font-size="10.00">::CastToReal</text>
</a>
</g>
</g>
<!-- Node1&#45;&gt;Node2 -->
<g id="edge1" class="edge">
<title>Node1&#45;&gt;Node2</title>
<path fill="none" stroke="#63b8ff" d="M101.65,-150.46C114.15,-153.99 127.7,-157.2 140.5,-159 183.23,-165 231.83,-164.16 269.42,-161.86"/>
<polygon fill="#63b8ff" stroke="#63b8ff" points="269.45,-165.37 279.2,-161.21 268.99,-158.38 269.45,-165.37"/>
</g>
<!-- Node3 -->
<g id="node3" class="node">
<title>Node3</title>
<g id="a_node3"><a xlink:href="a00463.html#a58892abe1152c28d26d3ca749c99ea4d" target="_top" xlink:title="Cast an array of 3 values to the graph_generator&#39;s real_3 type.">
<polygon fill="white" stroke="#666666" points="245,-150 140.5,-150 140.5,-118 245,-118 245,-150"/>
<text xml:space="preserve" text-anchor="start" x="148.5" y="-136.5" font-family="Helvetica,sans-Serif" font-size="10.00">HF::GraphGenerator</text>
<text xml:space="preserve" text-anchor="middle" x="192.75" y="-124.5" font-family="Helvetica,sans-Serif" font-size="10.00">::CastToReal3</text>
</a>
</g>
</g>
<!-- Node1&#45;&gt;Node3 -->
<g id="edge2" class="edge">
<title>Node1&#45;&gt;Node3</title>
<path fill="none" stroke="#63b8ff" d="M104.82,-134C112.66,-134 120.83,-134 128.88,-134"/>
<polygon fill="#63b8ff" stroke="#63b8ff" points="128.62,-137.5 138.62,-134 128.62,-130.5 128.62,-137.5"/>
</g>
<!-- Node4 -->
<g id="node4" class="node">
<title>Node4</title>
<g id="a_node4"><a xlink:href="a00463.html#a260a25e02193ce904849ee090daefa2e" target="_top" xlink:title="Determine what kind of step (if any) is between parent and child, given that a connection was verifie...">
<polygon fill="white" stroke="#666666" points="245,-100 140.5,-100 140.5,-68 245,-68 245,-100"/>
<text xml:space="preserve" text-anchor="start" x="148.5" y="-86.5" font-family="Helvetica,sans-Serif" font-size="10.00">HF::GraphGenerator</text>
<text xml:space="preserve" text-anchor="middle" x="192.75" y="-74.5" font-family="Helvetica,sans-Serif" font-size="10.00">::CheckConnection</text>
</a>
</g>
</g>
<!-- Node1&#45;&gt;Node4 -->
<g id="edge4" class="edge">
<title>Node1&#45;&gt;Node4</title>
<path fill="none" stroke="#63b8ff" d="M98.6,-117.63C110.44,-113.35 123.34,-108.7 135.66,-104.25"/>
<polygon fill="#63b8ff" stroke="#63b8ff" points="136.66,-107.61 144.87,-100.92 134.28,-101.03 136.66,-107.61"/>
</g>
<!-- Node3&#45;&gt;Node2 -->
<g id="edge3" class="edge">
<title>Node3&#45;&gt;Node2</title>
<path fill="none" stroke="#63b8ff" d="M245.32,-142.19C253.16,-143.44 261.33,-144.73 269.38,-146.01"/>
<polygon fill="#63b8ff" stroke="#63b8ff" points="268.71,-149.45 279.14,-147.56 269.81,-142.54 268.71,-149.45"/>
</g>
<!-- Node5 -->
<g id="node5" class="node">
<title>Node5</title>
<g id="a_node5"><a xlink:href="a00463.html#ace66c1b60785c32433402f012019ab81" target="_top" xlink:title="Determine if there is a valid line of sight between parent and child.">
<polygon fill="white" stroke="#666666" points="385.5,-100 281,-100 281,-68 385.5,-68 385.5,-100"/>
<text xml:space="preserve" text-anchor="start" x="289" y="-86.5" font-family="Helvetica,sans-Serif" font-size="10.00">HF::GraphGenerator</text>
<text xml:space="preserve" text-anchor="middle" x="333.25" y="-74.5" font-family="Helvetica,sans-Serif" font-size="10.00">::OcclusionCheck</text>
</a>
</g>
</g>
<!-- Node4&#45;&gt;Node5 -->
<g id="edge5" class="edge">
<title>Node4&#45;&gt;Node5</title>
<path fill="none" stroke="#63b8ff" d="M245.32,-84C253.16,-84 261.33,-84 269.38,-84"/>
<polygon fill="#63b8ff" stroke="#63b8ff" points="269.12,-87.5 279.12,-84 269.12,-80.5 269.12,-87.5"/>
</g>
<!-- Node6 -->
<g id="node6" class="node">
<title>Node6</title>
<g id="a_node6"><a xlink:href="a00463.html#a750afc15c798c79a8b6a0784ed092f3c" target="_top" xlink:title="Calculate the normalized direction from one node to another.">
<polygon fill="white" stroke="#666666" points="534.25,-150 429.75,-150 429.75,-118 534.25,-118 534.25,-150"/>
<text xml:space="preserve" text-anchor="start" x="437.75" y="-136.5" font-family="Helvetica,sans-Serif" font-size="10.00">HF::GraphGenerator</text>
<text xml:space="preserve" text-anchor="middle" x="482" y="-124.5" font-family="Helvetica,sans-Serif" font-size="10.00">::DirectionTo</text>
</a>
</g>
</g>
<!-- Node5&#45;&gt;Node6 -->
<g id="edge6" class="edge">
<title>Node5&#45;&gt;Node6</title>
<path fill="none" stroke="#63b8ff" d="M382.3,-100.37C394.91,-104.67 408.65,-109.35 421.76,-113.82"/>
<polygon fill="#63b8ff" stroke="#63b8ff" points="420.56,-117.11 431.16,-117.02 422.82,-110.48 420.56,-117.11"/>
</g>
<!-- Node8 -->
<g id="node8" class="node">
<title>Node8</title>
<g id="a_node8"><a xlink:href="a00463.html#a7f96186b8f24f878404d1feccf2f64db" target="_top" xlink:title="Calculate the distance between two nodes.">
<polygon fill="white" stroke="#666666" points="534.25,-100 429.75,-100 429.75,-68 534.25,-68 534.25,-100"/>
<text xml:space="preserve" text-anchor="start" x="437.75" y="-86.5" font-family="Helvetica,sans-Serif" font-size="10.00">HF::GraphGenerator</text>
<text xml:space="preserve" text-anchor="middle" x="482" y="-74.5" font-family="Helvetica,sans-Serif" font-size="10.00">::DistanceTo</text>
</a>
</g>
</g>
<!-- Node5&#45;&gt;Node8 -->
<g id="edge8" class="edge">
<title>Node5&#45;&gt;Node8</title>
<path fill="none" stroke="#63b8ff" d="M385.99,-84C396.41,-84 407.47,-84 418.23,-84"/>
<polygon fill="#63b8ff" stroke="#63b8ff" points="418.22,-87.5 428.22,-84 418.22,-80.5 418.22,-87.5"/>
</g>
<!-- Node9 -->
<g id="node9" class="node">
<title>Node9</title>
<g id="a_node9"><a xlink:href="a01419.html#a22ebf97e859ef651e81deb40b74f668f" target="_top" xlink:title=" ">
<polygon fill="white" stroke="#666666" points="542.5,-32 421.5,-32 421.5,0 542.5,0 542.5,-32"/>
<text xml:space="preserve" text-anchor="start" x="429.5" y="-18.5" font-family="Helvetica,sans-Serif" font-size="10.00">HF::RayTracer::MultiRT</text>
<text xml:space="preserve" text-anchor="middle" x="482" y="-6.5" font-family="Helvetica,sans-Serif" font-size="10.00">::Occluded</text>
</a>
</g>
</g>
<!-- Node5&#45;&gt;Node9 -->
<g id="edge9" class="edge">
<title>Node5&#45;&gt;Node9</title>
<path fill="none" stroke="#63b8ff" d="M369.77,-67.54C389.44,-58.43 414.1,-47 435.2,-37.22"/>
<polygon fill="#63b8ff" stroke="#63b8ff" points="436.57,-40.44 444.18,-33.06 433.63,-34.09 436.57,-40.44"/>
</g>
<!-- Node7 -->
<g id="node7" class="node">
<title>Node7</title>
<g id="a_node7"><a xlink:href="a00463.html#ad2e09e0825a1db4fc511907179eddf00" target="_top" xlink:title="Normalize a vector.">
<polygon fill="white" stroke="#666666" points="683,-150 578.5,-150 578.5,-118 683,-118 683,-150"/>
<text xml:space="preserve" text-anchor="start" x="586.5" y="-136.5" font-family="Helvetica,sans-Serif" font-size="10.00">HF::GraphGenerator</text>
<text xml:space="preserve" text-anchor="middle" x="630.75" y="-124.5" font-family="Helvetica,sans-Serif" font-size="10.00">::Normalize</text>
</a>
</g>
</g>
<!-- Node6&#45;&gt;Node7 -->
<g id="edge7" class="edge">
<title>Node6&#45;&gt;Node7</title>
<path fill="none" stroke="#63b8ff" d="M534.74,-134C545.16,-134 556.22,-134 566.98,-134"/>
<polygon fill="#63b8ff" stroke="#63b8ff" points="566.97,-137.5 576.97,-134 566.97,-130.5 566.97,-137.5"/>
</g>
<!-- Node9&#45;&gt;Node9 -->
<g id="edge10" class="edge">
<title>Node9&#45;&gt;Node9</title>
<path fill="none" stroke="#63b8ff" d="M455.44,-32.44C450.49,-41.58 459.34,-50 482,-50 494.39,-50 502.66,-47.48 506.79,-43.71"/>
<polygon fill="#63b8ff" stroke="#63b8ff" points="510.23,-44.36 508.32,-33.94 503.31,-43.27 510.23,-44.36"/>
</g>
</g>
</svg>
