<?xml version="1.0" encoding="UTF-8" standalone="no"?>
<!DOCTYPE svg PUBLIC "-//W3C//DTD SVG 1.1//EN"
 "http://www.w3.org/Graphics/SVG/1.1/DTD/svg11.dtd">
<!-- Generated by graphviz version 13.1.2 (20250808.2320)
 -->
<!-- Title: HF::GraphGenerator::CastToReal3 Pages: 1 -->
<svg width="832pt" height="261pt"
 viewBox="0.00 0.00 832.00 261.00" xmlns="http://www.w3.org/2000/svg" xmlns:xlink="http://www.w3.org/1999/xlink">
<g id="graph0" class="graph" transform="scale(1 1) rotate(0) translate(4 257.02)">
<title>HF::GraphGenerator::CastToReal3</title>
<!-- Node1 -->
<g id="node1" class="node">
<title>Node1</title>
<g id="a_node1"><a xlink:title="Cast an array of 3 values to the graph_generator&#39;s real_3 type.">
<polygon fill="#999999" stroke="#666666" points="824,-144 719.5,-144 719.5,-112 824,-112 824,-144"/>
<text xml:space="preserve" text-anchor="start" x="727.5" y="-130.5" font-family="Helvetica,sans-Serif" font-size="10.00">HF::GraphGenerator</text>
<text xml:space="preserve" text-anchor="middle" x="771.75" y="-118.5" font-family="Helvetica,sans-Serif" font-size="10.00">::CastToReal3</text>
</a>
</g>
</g>
<!-- Node2 -->
<g id="node2" class="node">
<title>Node2</title>
<g id="a_node2"><a xlink:href="a01311.html#a0c12341433bbec41cc12cc1dbb41a976" target="_top" xlink:title="Generate a graph of accessible space.">
<polygon fill="white" stroke="#666666" points="317.75,-166 162.25,-166 162.25,-134 317.75,-134 317.75,-166"/>
<text xml:space="preserve" text-anchor="start" x="170.25" y="-152.5" font-family="Helvetica,sans-Serif" font-size="10.00">HF::GraphGenerator</text>
<text xml:space="preserve" text-anchor="middle" x="240" y="-140.5" font-family="Helvetica,sans-Serif" font-size="10.00">::GraphGenerator::BuildNetwork</text>
</a>
</g>
</g>
<!-- Node1&#45;&gt;Node2 -->
<g id="edge1" class="edge">
<title>Node1&#45;&gt;Node2</title>
<path fill="none" stroke="#63b8ff" d="M749.48,-152.81C733.25,-169.95 709.35,-191.63 683.5,-203 549.04,-262.12 494.35,-267.49 353.75,-225 315.94,-213.57 279.2,-184.84 258.41,-166.44"/>
<polygon fill="#63b8ff" stroke="#63b8ff" points="752.04,-155.2 756.21,-145.46 746.88,-150.47 752.04,-155.2"/>
</g>
<!-- Node5 -->
<g id="node5" class="node">
<title>Node5</title>
<g id="a_node5"><a xlink:href="a00463.html#a176c58b25fb5cb545d17128d4535f921" target="_top" xlink:title=" ">
<polygon fill="white" stroke="#666666" points="661.38,-194 556.88,-194 556.88,-162 661.38,-162 661.38,-194"/>
<text xml:space="preserve" text-anchor="start" x="564.88" y="-180.5" font-family="Helvetica,sans-Serif" font-size="10.00">HF::GraphGenerator</text>
<text xml:space="preserve" text-anchor="middle" x="609.12" y="-168.5" font-family="Helvetica,sans-Serif" font-size="10.00">::CalculateStepType</text>
</a>
</g>
</g>
<!-- Node1&#45;&gt;Node5 -->
<g id="edge4" class="edge">
<title>Node1&#45;&gt;Node5</title>
<path fill="none" stroke="#63b8ff" d="M708.07,-147.51C692.73,-152.29 676.49,-157.34 661.74,-161.93"/>
<polygon fill="#63b8ff" stroke="#63b8ff" points="709.09,-150.86 717.6,-144.55 707.01,-144.18 709.09,-150.86"/>
</g>
<!-- Node9 -->
<g id="node9" class="node">
<title>Node9</title>
<g id="a_node9"><a xlink:href="a00463.html#a5d2ad6de2131b1a90a80f901ac8dd185" target="_top" xlink:title=" ">
<polygon fill="white" stroke="#666666" points="681.62,-144 536.62,-144 536.62,-112 681.62,-112 681.62,-144"/>
<text xml:space="preserve" text-anchor="start" x="544.62" y="-130.5" font-family="Helvetica,sans-Serif" font-size="10.00">HF::GraphGenerator</text>
<text xml:space="preserve" text-anchor="middle" x="609.12" y="-118.5" font-family="Helvetica,sans-Serif" font-size="10.00">::CompareCheckConnections</text>
</a>
</g>
</g>
<!-- Node1&#45;&gt;Node9 -->
<g id="edge8" class="edge">
<title>Node1&#45;&gt;Node9</title>
<path fill="none" stroke="#63b8ff" d="M707.71,-128C699.25,-128 690.52,-128 681.92,-128"/>
<polygon fill="#63b8ff" stroke="#63b8ff" points="707.53,-131.5 717.53,-128 707.53,-124.5 707.53,-131.5"/>
</g>
<!-- Node10 -->
<g id="node10" class="node">
<title>Node10</title>
<g id="a_node10"><a xlink:href="a01311.html#ac7052d4b625fb96f29c5bfc091a86f7e" target="_top" xlink:title="Perform breadth first search to populate the graph with with nodes and edges.">
<polygon fill="white" stroke="#666666" points="683.5,-94 534.75,-94 534.75,-62 683.5,-62 683.5,-94"/>
<text xml:space="preserve" text-anchor="start" x="542.75" y="-80.5" font-family="Helvetica,sans-Serif" font-size="10.00">HF::GraphGenerator</text>
<text xml:space="preserve" text-anchor="middle" x="609.12" y="-68.5" font-family="Helvetica,sans-Serif" font-size="10.00">::GraphGenerator::CrawlGeom</text>
</a>
</g>
</g>
<!-- Node1&#45;&gt;Node10 -->
<g id="edge9" class="edge">
<title>Node1&#45;&gt;Node10</title>
<path fill="none" stroke="#63b8ff" d="M708.35,-108.57C693.4,-103.92 677.59,-99 663.11,-94.49"/>
<polygon fill="#63b8ff" stroke="#63b8ff" points="707.01,-111.82 717.6,-111.45 709.09,-105.14 707.01,-111.82"/>
</g>
<!-- Node12 -->
<g id="node12" class="node">
<title>Node12</title>
<g id="a_node12"><a xlink:href="a01311.html#a843cc6b5b69b5d013930b3685789fa15" target="_top" xlink:title="Perform breadth first search to populate the graph with nodes and edges using multiple cores.">
<polygon fill="white" stroke="#666666" points="683.5,-44 534.75,-44 534.75,0 683.5,0 683.5,-44"/>
<text xml:space="preserve" text-anchor="start" x="542.75" y="-30.5" font-family="Helvetica,sans-Serif" font-size="10.00">HF::GraphGenerator</text>
<text xml:space="preserve" text-anchor="start" x="542.75" y="-18.5" font-family="Helvetica,sans-Serif" font-size="10.00">::GraphGenerator::CrawlGeom</text>
<text xml:space="preserve" text-anchor="middle" x="609.12" y="-6.5" font-family="Helvetica,sans-Serif" font-size="10.00">Parallel</text>
</a>
</g>
</g>
<!-- Node1&#45;&gt;Node12 -->
<g id="edge12" class="edge">
<title>Node1&#45;&gt;Node12</title>
<path fill="none" stroke="#63b8ff" d="M746.83,-103.83C730.15,-87.91 706.78,-67.43 683.5,-53 678.56,-49.94 673.27,-47.05 667.87,-44.36"/>
<polygon fill="#63b8ff" stroke="#63b8ff" points="744.22,-106.17 753.83,-110.63 749.09,-101.15 744.22,-106.17"/>
</g>
<!-- Node3 -->
<g id="node3" class="node">
<title>Node3</title>
<g id="a_node3"><a xlink:href="a00454.html#ga2df84a732d1edfb70b7bd26d3282e129" target="_top" xlink:title="Construct a graph by performing a breadth&#45;first search of accessible space.">
<polygon fill="white" stroke="#666666" points="104.12,-179 22.12,-179 22.12,-159 104.12,-159 104.12,-179"/>
<text xml:space="preserve" text-anchor="middle" x="63.12" y="-165.5" font-family="Helvetica,sans-Serif" font-size="10.00">GenerateGraph</text>
</a>
</g>
</g>
<!-- Node2&#45;&gt;Node3 -->
<g id="edge2" class="edge">
<title>Node2&#45;&gt;Node3</title>
<path fill="none" stroke="#63b8ff" d="M150.62,-159.6C134.47,-161.36 118.36,-163.11 104.49,-164.61"/>
<polygon fill="#63b8ff" stroke="#63b8ff" points="150.72,-163.11 160.28,-158.55 149.96,-156.15 150.72,-163.11"/>
</g>
<!-- Node4 -->
<g id="node4" class="node">
<title>Node4</title>
<g id="a_node4"><a xlink:href="a00454.html#gab9f58e3ecc686fa9bc34519b0faed734" target="_top" xlink:title="Construct a graph by performing a breadth&#45;first search of accessible space, seperating obstacles from...">
<polygon fill="white" stroke="#666666" points="126.25,-141 0,-141 0,-121 126.25,-121 126.25,-141"/>
<text xml:space="preserve" text-anchor="middle" x="63.12" y="-127.5" font-family="Helvetica,sans-Serif" font-size="10.00">GenerateGraphObstacles</text>
</a>
</g>
</g>
<!-- Node2&#45;&gt;Node4 -->
<g id="edge3" class="edge">
<title>Node2&#45;&gt;Node4</title>
<path fill="none" stroke="#63b8ff" d="M150.4,-140.37C142.33,-139.5 134.27,-138.62 126.5,-137.78"/>
<polygon fill="#63b8ff" stroke="#63b8ff" points="149.96,-143.85 160.28,-141.45 150.72,-136.89 149.96,-143.85"/>
</g>
<!-- Node6 -->
<g id="node6" class="node">
<title>Node6</title>
<g id="a_node6"><a xlink:href="a00463.html#a0251caf5a32eb2c1f9d846d88eb7fe22" target="_top" xlink:title=" ">
<polygon fill="white" stroke="#666666" points="498.75,-216 353.75,-216 353.75,-184 498.75,-184 498.75,-216"/>
<text xml:space="preserve" text-anchor="start" x="361.75" y="-202.5" font-family="Helvetica,sans-Serif" font-size="10.00">HF::GraphGenerator</text>
<text xml:space="preserve" text-anchor="middle" x="426.25" y="-190.5" font-family="Helvetica,sans-Serif" font-size="10.00">::CalculateAndStoreStepType</text>
</a>
</g>
</g>
<!-- Node5&#45;&gt;Node6 -->
<g id="edge5" class="edge">
<title>Node5&#45;&gt;Node6</title>
<path fill="none" stroke="#63b8ff" d="M545.55,-185.61C530.53,-187.44 514.38,-189.4 498.98,-191.28"/>
<polygon fill="#63b8ff" stroke="#63b8ff" points="545.77,-189.11 555.27,-184.43 544.93,-182.16 545.77,-189.11"/>
</g>
<!-- Node7 -->
<g id="node7" class="node">
<title>Node7</title>
<g id="a_node7"><a xlink:href="a00454.html#gae7f55e49ba1992471430d0e3d415ebae" target="_top" xlink:title="Query the graph and identify the step types of all edges, adding them to the graph.">
<polygon fill="white" stroke="#666666" points="498.38,-166 354.12,-166 354.12,-146 498.38,-146 498.38,-166"/>
<text xml:space="preserve" text-anchor="middle" x="426.25" y="-152.5" font-family="Helvetica,sans-Serif" font-size="10.00">CalculateAndStoreStepTypes</text>
</a>
</g>
</g>
<!-- Node5&#45;&gt;Node7 -->
<g id="edge6" class="edge">
<title>Node5&#45;&gt;Node7</title>
<path fill="none" stroke="#63b8ff" d="M545.48,-170.38C530.37,-168.54 514.12,-166.57 498.64,-164.68"/>
<polygon fill="#63b8ff" stroke="#63b8ff" points="544.93,-173.84 555.27,-171.57 545.77,-166.89 544.93,-173.84"/>
</g>
<!-- Node8 -->
<g id="node8" class="node">
<title>Node8</title>
<g id="a_node8"><a xlink:href="a00463.html#a81398de53e151ae58b206523e555309e" target="_top" xlink:title=" ">
<polygon fill="white" stroke="#666666" points="478.5,-128 374,-128 374,-96 478.5,-96 478.5,-128"/>
<text xml:space="preserve" text-anchor="start" x="382" y="-114.5" font-family="Helvetica,sans-Serif" font-size="10.00">HF::GraphGenerator</text>
<text xml:space="preserve" text-anchor="middle" x="426.25" y="-102.5" font-family="Helvetica,sans-Serif" font-size="10.00">::CalculateStepType</text>
</a>
</g>
</g>
<!-- Node5&#45;&gt;Node8 -->
<g id="edge7" class="edge">
<title>Node5&#45;&gt;Node8</title>
<path fill="none" stroke="#63b8ff" d="M547.22,-157.72C542.98,-156.17 538.79,-154.58 534.75,-153 518.45,-146.61 515.03,-143.45 498.75,-137 491.41,-134.09 483.59,-131.18 475.91,-128.41"/>
<polygon fill="#63b8ff" stroke="#63b8ff" points="545.76,-160.92 556.36,-161 548.13,-154.33 545.76,-160.92"/>
</g>
<!-- Node11 -->
<g id="node11" class="node">
<title>Node11</title>
<g id="a_node11"><a xlink:href="a01311.html#a5788e421d921ec0ff27defc139c45106" target="_top" xlink:title="Generate a graph of accessible space.">
<polygon fill="white" stroke="#666666" points="486.38,-78 366.12,-78 366.12,-34 486.38,-34 486.38,-78"/>
<text xml:space="preserve" text-anchor="start" x="374.12" y="-64.5" font-family="Helvetica,sans-Serif" font-size="10.00">HF::GraphGenerator</text>
<text xml:space="preserve" text-anchor="start" x="374.12" y="-52.5" font-family="Helvetica,sans-Serif" font-size="10.00">::GraphGenerator::IMPL</text>
<text xml:space="preserve" text-anchor="middle" x="426.25" y="-40.5" font-family="Helvetica,sans-Serif" font-size="10.00">_BuildNetwork</text>
</a>
</g>
</g>
<!-- Node10&#45;&gt;Node11 -->
<g id="edge10" class="edge">
<title>Node10&#45;&gt;Node11</title>
<path fill="none" stroke="#63b8ff" d="M523.08,-67.66C510.8,-66.16 498.38,-64.65 486.74,-63.24"/>
<polygon fill="#63b8ff" stroke="#63b8ff" points="522.44,-71.1 532.79,-68.84 523.29,-64.16 522.44,-71.1"/>
</g>
<!-- Node11&#45;&gt;Node2 -->
<g id="edge11" class="edge">
<title>Node11&#45;&gt;Node2</title>
<path fill="none" stroke="#63b8ff" d="M361.55,-83.22C358.91,-84.48 356.3,-85.74 353.75,-87 324,-101.71 290.97,-120.47 268.39,-133.68"/>
<polygon fill="#63b8ff" stroke="#63b8ff" points="362.9,-86.46 370.5,-79.07 359.96,-80.1 362.9,-86.46"/>
</g>
<!-- Node12&#45;&gt;Node11 -->
<g id="edge13" class="edge">
<title>Node12&#45;&gt;Node11</title>
<path fill="none" stroke="#63b8ff" d="M523.08,-37.99C510.8,-40.3 498.38,-42.63 486.74,-44.82"/>
<polygon fill="#63b8ff" stroke="#63b8ff" points="523.63,-41.44 532.81,-36.16 522.33,-34.57 523.63,-41.44"/>
</g>
</g>
</svg>
