<?xml version="1.0" encoding="UTF-8" standalone="no"?>
<!DOCTYPE svg PUBLIC "-//W3C//DTD SVG 1.1//EN"
 "http://www.w3.org/Graphics/SVG/1.1/DTD/svg11.dtd">
<!-- Generated by graphviz version 13.1.2 (20250808.2320)
 -->
<!-- Title: HF::SpatialStructures::CostAlgorithms::to_degrees Pages: 1 -->
<svg width="680pt" height="90pt"
 viewBox="0.00 0.00 680.00 90.00" xmlns="http://www.w3.org/2000/svg" xmlns:xlink="http://www.w3.org/1999/xlink">
<g id="graph0" class="graph" transform="scale(1 1) rotate(0) translate(4 86)">
<title>HF::SpatialStructures::CostAlgorithms::to_degrees</title>
<!-- Node1 -->
<g id="node1" class="node">
<title>Node1</title>
<g id="a_node1"><a xlink:title=" ">
<polygon fill="#999999" stroke="#666666" points="672.25,-69 561.75,-69 561.75,-25 672.25,-25 672.25,-69"/>
<text xml:space="preserve" text-anchor="start" x="569.75" y="-55.5" font-family="Helvetica,sans-Serif" font-size="10.00">HF::SpatialStructures</text>
<text xml:space="preserve" text-anchor="start" x="569.75" y="-43.5" font-family="Helvetica,sans-Serif" font-size="10.00">::CostAlgorithms::to</text>
<text xml:space="preserve" text-anchor="middle" x="617" y="-31.5" font-family="Helvetica,sans-Serif" font-size="10.00">_degrees</text>
</a>
</g>
</g>
<!-- Node2 -->
<g id="node2" class="node">
<title>Node2</title>
<g id="a_node2"><a xlink:href="a00475.html#ae06eb693d0d7858d7a863fae3a6eee2c" target="_top" xlink:title=" ">
<polygon fill="white" stroke="#666666" points="525.75,-69 389,-69 389,-25 525.75,-25 525.75,-69"/>
<text xml:space="preserve" text-anchor="start" x="397" y="-55.5" font-family="Helvetica,sans-Serif" font-size="10.00">HF::SpatialStructures</text>
<text xml:space="preserve" text-anchor="start" x="397" y="-43.5" font-family="Helvetica,sans-Serif" font-size="10.00">::CostAlgorithms::Calculate</text>
<text xml:space="preserve" text-anchor="middle" x="457.38" y="-31.5" font-family="Helvetica,sans-Serif" font-size="10.00">Slope</text>
</a>
</g>
</g>
<!-- Node1&#45;&gt;Node2 -->
<g id="edge1" class="edge">
<title>Node1&#45;&gt;Node2</title>
<path fill="none" stroke="#63b8ff" d="M549.91,-47C542.01,-47 533.94,-47 526.02,-47"/>
<polygon fill="#63b8ff" stroke="#63b8ff" points="549.8,-50.5 559.8,-47 549.8,-43.5 549.8,-50.5"/>
</g>
<!-- Node3 -->
<g id="node3" class="node">
<title>Node3</title>
<g id="a_node3"><a xlink:href="a00475.html#ac51f2e76c00356f8a6145bee865cd922" target="_top" xlink:title=" ">
<polygon fill="white" stroke="#666666" points="353,-69 216.25,-69 216.25,-25 353,-25 353,-69"/>
<text xml:space="preserve" text-anchor="start" x="224.25" y="-55.5" font-family="Helvetica,sans-Serif" font-size="10.00">HF::SpatialStructures</text>
<text xml:space="preserve" text-anchor="start" x="224.25" y="-43.5" font-family="Helvetica,sans-Serif" font-size="10.00">::CostAlgorithms::Calculate</text>
<text xml:space="preserve" text-anchor="middle" x="284.62" y="-31.5" font-family="Helvetica,sans-Serif" font-size="10.00">EnergyExpenditure</text>
</a>
</g>
</g>
<!-- Node2&#45;&gt;Node3 -->
<g id="edge2" class="edge">
<title>Node2&#45;&gt;Node3</title>
<path fill="none" stroke="#63b8ff" d="M377.58,-47C369.52,-47 361.38,-47 353.46,-47"/>
<polygon fill="#63b8ff" stroke="#63b8ff" points="377.38,-50.5 387.38,-47 377.38,-43.5 377.38,-50.5"/>
</g>
<!-- Node4 -->
<g id="node4" class="node">
<title>Node4</title>
<g id="a_node4"><a xlink:href="a00458.html#ga76d98cf2df63a766a74137dfa815d9a9" target="_top" xlink:title="Calculates energy expenditure for all subgraphs in *g and stores them in the graph at AlgorithmCostTi...">
<polygon fill="white" stroke="#666666" points="180.25,-82 0,-82 0,-62 180.25,-62 180.25,-82"/>
<text xml:space="preserve" text-anchor="middle" x="90.12" y="-68.5" font-family="Helvetica,sans-Serif" font-size="10.00">CalculateAndStoreEnergyExpenditure</text>
</a>
</g>
</g>
<!-- Node3&#45;&gt;Node4 -->
<g id="edge3" class="edge">
<title>Node3&#45;&gt;Node4</title>
<path fill="none" stroke="#63b8ff" d="M204.63,-57.26C193.83,-58.66 182.73,-60.1 171.9,-61.51"/>
<polygon fill="#63b8ff" stroke="#63b8ff" points="204.79,-60.77 214.26,-56.01 203.89,-53.83 204.79,-60.77"/>
</g>
<!-- Node5 -->
<g id="node5" class="node">
<title>Node5</title>
<g id="a_node5"><a xlink:href="a00475.html#adbe5e58355a884494d6e99bf17fc5f7b" target="_top" xlink:title=" ">
<polygon fill="white" stroke="#666666" points="158.5,-44 21.75,-44 21.75,0 158.5,0 158.5,-44"/>
<text xml:space="preserve" text-anchor="start" x="29.75" y="-30.5" font-family="Helvetica,sans-Serif" font-size="10.00">HF::SpatialStructures</text>
<text xml:space="preserve" text-anchor="start" x="29.75" y="-18.5" font-family="Helvetica,sans-Serif" font-size="10.00">::CostAlgorithms::Calculate</text>
<text xml:space="preserve" text-anchor="middle" x="90.12" y="-6.5" font-family="Helvetica,sans-Serif" font-size="10.00">EnergyExpenditure</text>
</a>
</g>
</g>
<!-- Node3&#45;&gt;Node5 -->
<g id="edge4" class="edge">
<title>Node3&#45;&gt;Node5</title>
<path fill="none" stroke="#63b8ff" d="M204.76,-36.76C189.47,-34.77 173.59,-32.71 158.7,-30.78"/>
<polygon fill="#63b8ff" stroke="#63b8ff" points="203.89,-40.17 214.26,-37.99 204.79,-33.23 203.89,-40.17"/>
</g>
</g>
</svg>
