<?xml version="1.0" encoding="UTF-8" standalone="no"?>
<!DOCTYPE svg PUBLIC "-//W3C//DTD SVG 1.1//EN"
 "http://www.w3.org/Graphics/SVG/1.1/DTD/svg11.dtd">
<!-- Generated by graphviz version 13.1.2 (20250808.2320)
 -->
<!-- Title: HF::SpatialStructures::CostAlgorithms::CalculateEnergyExpenditure Pages: 1 -->
<svg width="464pt" height="214pt"
 viewBox="0.00 0.00 464.00 214.00" xmlns="http://www.w3.org/2000/svg" xmlns:xlink="http://www.w3.org/1999/xlink">
<g id="graph0" class="graph" transform="scale(1 1) rotate(0) translate(4 210)">
<title>HF::SpatialStructures::CostAlgorithms::CalculateEnergyExpenditure</title>
<!-- Node1 -->
<g id="node1" class="node">
<title>Node1</title>
<g id="a_node1"><a xlink:title=" ">
<polygon fill="#999999" stroke="#666666" points="136.75,-125 0,-125 0,-81 136.75,-81 136.75,-125"/>
<text xml:space="preserve" text-anchor="start" x="8" y="-111.5" font-family="Helvetica,sans-Serif" font-size="10.00">HF::SpatialStructures</text>
<text xml:space="preserve" text-anchor="start" x="8" y="-99.5" font-family="Helvetica,sans-Serif" font-size="10.00">::CostAlgorithms::Calculate</text>
<text xml:space="preserve" text-anchor="middle" x="68.38" y="-87.5" font-family="Helvetica,sans-Serif" font-size="10.00">EnergyExpenditure</text>
</a>
</g>
</g>
<!-- Node2 -->
<g id="node2" class="node">
<title>Node2</title>
<g id="a_node2"><a xlink:href="a00475.html#ae06eb693d0d7858d7a863fae3a6eee2c" target="_top" xlink:title=" ">
<polygon fill="white" stroke="#666666" points="309.5,-206 172.75,-206 172.75,-162 309.5,-162 309.5,-206"/>
<text xml:space="preserve" text-anchor="start" x="180.75" y="-192.5" font-family="Helvetica,sans-Serif" font-size="10.00">HF::SpatialStructures</text>
<text xml:space="preserve" text-anchor="start" x="180.75" y="-180.5" font-family="Helvetica,sans-Serif" font-size="10.00">::CostAlgorithms::Calculate</text>
<text xml:space="preserve" text-anchor="middle" x="241.12" y="-168.5" font-family="Helvetica,sans-Serif" font-size="10.00">Slope</text>
</a>
</g>
</g>
<!-- Node1&#45;&gt;Node2 -->
<g id="edge1" class="edge">
<title>Node1&#45;&gt;Node2</title>
<path fill="none" stroke="#63b8ff" d="M115.34,-125.47C133.22,-134.15 153.91,-144.11 172.75,-153 175.44,-154.27 178.2,-155.56 180.98,-156.86"/>
<polygon fill="#63b8ff" stroke="#63b8ff" points="179.22,-159.9 189.76,-160.95 182.17,-153.56 179.22,-159.9"/>
</g>
<!-- Node4 -->
<g id="node4" class="node">
<title>Node4</title>
<g id="a_node4"><a xlink:href="a02071.html#ad3f7898ef3178eef0c3579869a7f5c67" target="_top" xlink:title="Get the direction between this node and another node">
<polygon fill="white" stroke="#666666" points="296.38,-144 185.88,-144 185.88,-112 296.38,-112 296.38,-144"/>
<text xml:space="preserve" text-anchor="start" x="193.88" y="-130.5" font-family="Helvetica,sans-Serif" font-size="10.00">HF::SpatialStructures</text>
<text xml:space="preserve" text-anchor="middle" x="241.12" y="-118.5" font-family="Helvetica,sans-Serif" font-size="10.00">::Node::directionTo</text>
</a>
</g>
</g>
<!-- Node1&#45;&gt;Node4 -->
<g id="edge3" class="edge">
<title>Node1&#45;&gt;Node4</title>
<path fill="none" stroke="#63b8ff" d="M136.86,-112.88C149.21,-114.69 162.08,-116.57 174.37,-118.37"/>
<polygon fill="#63b8ff" stroke="#63b8ff" points="173.57,-121.79 183.97,-119.78 174.59,-114.87 173.57,-121.79"/>
</g>
<!-- Node6 -->
<g id="node6" class="node">
<title>Node6</title>
<g id="a_node6"><a xlink:href="a02071.html#abbd66b566460f9557a373b5fbcc30bb1" target="_top" xlink:title="Calculate the distance between this node and n2.">
<polygon fill="white" stroke="#666666" points="296.38,-94 185.88,-94 185.88,-62 296.38,-62 296.38,-94"/>
<text xml:space="preserve" text-anchor="start" x="193.88" y="-80.5" font-family="Helvetica,sans-Serif" font-size="10.00">HF::SpatialStructures</text>
<text xml:space="preserve" text-anchor="middle" x="241.12" y="-68.5" font-family="Helvetica,sans-Serif" font-size="10.00">::Node::distanceTo</text>
</a>
</g>
</g>
<!-- Node1&#45;&gt;Node6 -->
<g id="edge5" class="edge">
<title>Node1&#45;&gt;Node6</title>
<path fill="none" stroke="#63b8ff" d="M136.86,-93.12C149.21,-91.31 162.08,-89.43 174.37,-87.63"/>
<polygon fill="#63b8ff" stroke="#63b8ff" points="174.59,-91.13 183.97,-86.22 173.57,-84.21 174.59,-91.13"/>
</g>
<!-- Node7 -->
<g id="node7" class="node">
<title>Node7</title>
<g id="a_node7"><a xlink:href="a00475.html#ae7b446fefe0b9994859f47b85de79039" target="_top" xlink:title=" ">
<polygon fill="white" stroke="#666666" points="296.38,-44 185.88,-44 185.88,0 296.38,0 296.38,-44"/>
<text xml:space="preserve" text-anchor="start" x="193.88" y="-30.5" font-family="Helvetica,sans-Serif" font-size="10.00">HF::SpatialStructures</text>
<text xml:space="preserve" text-anchor="start" x="193.88" y="-18.5" font-family="Helvetica,sans-Serif" font-size="10.00">::CostAlgorithms::to</text>
<text xml:space="preserve" text-anchor="middle" x="241.12" y="-6.5" font-family="Helvetica,sans-Serif" font-size="10.00">_radians</text>
</a>
</g>
</g>
<!-- Node1&#45;&gt;Node7 -->
<g id="edge6" class="edge">
<title>Node1&#45;&gt;Node7</title>
<path fill="none" stroke="#63b8ff" d="M115.34,-80.53C133.22,-71.85 153.91,-61.89 172.75,-53 175.44,-51.73 178.2,-50.44 180.98,-49.14"/>
<polygon fill="#63b8ff" stroke="#63b8ff" points="182.17,-52.44 189.76,-45.05 179.22,-46.1 182.17,-52.44"/>
</g>
<!-- Node3 -->
<g id="node3" class="node">
<title>Node3</title>
<g id="a_node3"><a xlink:href="a00475.html#adee2fb2573f4dbc2e5c7db153dff2694" target="_top" xlink:title=" ">
<polygon fill="white" stroke="#666666" points="456,-206 345.5,-206 345.5,-162 456,-162 456,-206"/>
<text xml:space="preserve" text-anchor="start" x="353.5" y="-192.5" font-family="Helvetica,sans-Serif" font-size="10.00">HF::SpatialStructures</text>
<text xml:space="preserve" text-anchor="start" x="353.5" y="-180.5" font-family="Helvetica,sans-Serif" font-size="10.00">::CostAlgorithms::to</text>
<text xml:space="preserve" text-anchor="middle" x="400.75" y="-168.5" font-family="Helvetica,sans-Serif" font-size="10.00">_degrees</text>
</a>
</g>
</g>
<!-- Node2&#45;&gt;Node3 -->
<g id="edge2" class="edge">
<title>Node2&#45;&gt;Node3</title>
<path fill="none" stroke="#63b8ff" d="M309.89,-184C317.85,-184 325.96,-184 333.9,-184"/>
<polygon fill="#63b8ff" stroke="#63b8ff" points="333.84,-187.5 343.84,-184 333.84,-180.5 333.84,-187.5"/>
</g>
<!-- Node5 -->
<g id="node5" class="node">
<title>Node5</title>
<g id="a_node5"><a xlink:href="a00465.html#ad9a8f0f70b3f60ac5cb7889885d851d1" target="_top" xlink:title=" ">
<polygon fill="white" stroke="#666666" points="456,-144 345.5,-144 345.5,-112 456,-112 456,-144"/>
<text xml:space="preserve" text-anchor="start" x="353.5" y="-130.5" font-family="Helvetica,sans-Serif" font-size="10.00">HF::SpatialStructures</text>
<text xml:space="preserve" text-anchor="middle" x="400.75" y="-118.5" font-family="Helvetica,sans-Serif" font-size="10.00">::Normalize</text>
</a>
</g>
</g>
<!-- Node4&#45;&gt;Node5 -->
<g id="edge4" class="edge">
<title>Node4&#45;&gt;Node5</title>
<path fill="none" stroke="#63b8ff" d="M296.81,-128C308.79,-128 321.6,-128 333.96,-128"/>
<polygon fill="#63b8ff" stroke="#63b8ff" points="333.65,-131.5 343.65,-128 333.65,-124.5 333.65,-131.5"/>
</g>
</g>
</svg>
