<?xml version="1.0" encoding="UTF-8" standalone="no"?>
<!DOCTYPE svg PUBLIC "-//W3C//DTD SVG 1.1//EN"
 "http://www.w3.org/Graphics/SVG/1.1/DTD/svg11.dtd">
<!-- Generated by graphviz version 13.1.2 (20250808.2320)
 -->
<!-- Title: GetPathInfo Pages: 1 -->
<svg width="223pt" height="90pt"
 viewBox="0.00 0.00 223.00 90.00" xmlns="http://www.w3.org/2000/svg" xmlns:xlink="http://www.w3.org/1999/xlink">
<g id="graph0" class="graph" transform="scale(1 1) rotate(0) translate(4 86)">
<title>GetPathInfo</title>
<!-- Node1 -->
<g id="node1" class="node">
<title>Node1</title>
<g id="a_node1"><a xlink:title="Get the size of a path and a pointer to its path members.">
<polygon fill="#999999" stroke="#666666" points="68.5,-51 0,-51 0,-31 68.5,-31 68.5,-51"/>
<text xml:space="preserve" text-anchor="middle" x="34.25" y="-37.5" font-family="Helvetica,sans-Serif" font-size="10.00">GetPathInfo</text>
</a>
</g>
</g>
<!-- Node2 -->
<g id="node2" class="node">
<title>Node2</title>
<g id="a_node2"><a xlink:href="a02083.html#a942cb49007bbeb5588e2d526c68bdcf9" target="_top" xlink:title="Get a pointer to the path&#39;s underlying path members vector.">
<polygon fill="white" stroke="#666666" points="215,-82 104.5,-82 104.5,-50 215,-50 215,-82"/>
<text xml:space="preserve" text-anchor="start" x="112.5" y="-68.5" font-family="Helvetica,sans-Serif" font-size="10.00">HF::SpatialStructures</text>
<text xml:space="preserve" text-anchor="middle" x="159.75" y="-56.5" font-family="Helvetica,sans-Serif" font-size="10.00">::Path::GetPMPointer</text>
</a>
</g>
</g>
<!-- Node1&#45;&gt;Node2 -->
<g id="edge1" class="edge">
<title>Node1&#45;&gt;Node2</title>
<path fill="none" stroke="#63b8ff" d="M69,-47.83C76.46,-49.34 84.62,-50.99 92.87,-52.66"/>
<polygon fill="#63b8ff" stroke="#63b8ff" points="92.15,-56.09 102.65,-54.64 93.54,-49.23 92.15,-56.09"/>
</g>
<!-- Node3 -->
<g id="node3" class="node">
<title>Node3</title>
<g id="a_node3"><a xlink:href="a02083.html#a28f61f0f57b38a5249a11a725d9d692b" target="_top" xlink:title="Determine how many nodes are in this path.">
<polygon fill="white" stroke="#666666" points="215,-32 104.5,-32 104.5,0 215,0 215,-32"/>
<text xml:space="preserve" text-anchor="start" x="112.5" y="-18.5" font-family="Helvetica,sans-Serif" font-size="10.00">HF::SpatialStructures</text>
<text xml:space="preserve" text-anchor="middle" x="159.75" y="-6.5" font-family="Helvetica,sans-Serif" font-size="10.00">::Path::size</text>
</a>
</g>
</g>
<!-- Node1&#45;&gt;Node3 -->
<g id="edge2" class="edge">
<title>Node1&#45;&gt;Node3</title>
<path fill="none" stroke="#63b8ff" d="M69,-34.17C76.46,-32.66 84.62,-31.01 92.87,-29.34"/>
<polygon fill="#63b8ff" stroke="#63b8ff" points="93.54,-32.77 102.65,-27.36 92.15,-25.91 93.54,-32.77"/>
</g>
</g>
</svg>
