<?xml version="1.0" encoding="UTF-8" standalone="no"?>
<!DOCTYPE svg PUBLIC "-//W3C//DTD SVG 1.1//EN"
 "http://www.w3.org/Graphics/SVG/1.1/DTD/svg11.dtd">
<!-- Generated by graphviz version 13.1.2 (20250808.2320)
 -->
<!-- Title: HF::Geometry::LoadMeshesFromTinyOBJ Pages: 1 -->
<svg width="332pt" height="66pt"
 viewBox="0.00 0.00 332.00 66.00" xmlns="http://www.w3.org/2000/svg" xmlns:xlink="http://www.w3.org/1999/xlink">
<g id="graph0" class="graph" transform="scale(1 1) rotate(0) translate(4 62)">
<title>HF::Geometry::LoadMeshesFromTinyOBJ</title>
<!-- Node1 -->
<g id="node1" class="node">
<title>Node1</title>
<g id="a_node1"><a xlink:title=" ">
<polygon fill="#999999" stroke="#666666" points="139.75,-45 0,-45 0,-13 139.75,-13 139.75,-45"/>
<text xml:space="preserve" text-anchor="start" x="8" y="-31.5" font-family="Helvetica,sans-Serif" font-size="10.00">HF::Geometry::LoadMeshes</text>
<text xml:space="preserve" text-anchor="middle" x="69.88" y="-19.5" font-family="Helvetica,sans-Serif" font-size="10.00">FromTinyOBJ</text>
</a>
</g>
</g>
<!-- Node2 -->
<g id="node2" class="node">
<title>Node2</title>
<g id="a_node2"><a xlink:href="a00469.html#aece9b1559429cfcd59fc5c60bc3dc5b1" target="_top" xlink:title=" ">
<polygon fill="white" stroke="#666666" points="322.25,-58 177.25,-58 177.25,-38 322.25,-38 322.25,-58"/>
<text xml:space="preserve" text-anchor="middle" x="249.75" y="-44.5" font-family="Helvetica,sans-Serif" font-size="10.00">HF::Geometry::CreateReader</text>
</a>
</g>
</g>
<!-- Node1&#45;&gt;Node2 -->
<g id="edge1" class="edge">
<title>Node1&#45;&gt;Node2</title>
<path fill="none" stroke="#63b8ff" d="M140.16,-36.4C148.57,-37.3 157.22,-38.22 165.81,-39.14"/>
<polygon fill="#63b8ff" stroke="#63b8ff" points="165.2,-42.6 175.51,-40.18 165.94,-35.63 165.2,-42.6"/>
</g>
<!-- Node3 -->
<g id="node3" class="node">
<title>Node3</title>
<g id="a_node3"><a xlink:href="a00469.html#abc6b7e5052eb1564d1bb3c67d9f93031" target="_top" xlink:title=" ">
<polygon fill="white" stroke="#666666" points="323.75,-20 175.75,-20 175.75,0 323.75,0 323.75,-20"/>
<text xml:space="preserve" text-anchor="middle" x="249.75" y="-6.5" font-family="Helvetica,sans-Serif" font-size="10.00">HF::Geometry::MakeMaterials</text>
</a>
</g>
</g>
<!-- Node1&#45;&gt;Node3 -->
<g id="edge2" class="edge">
<title>Node1&#45;&gt;Node3</title>
<path fill="none" stroke="#63b8ff" d="M140.16,-21.6C148.05,-20.76 156.15,-19.89 164.21,-19.03"/>
<polygon fill="#63b8ff" stroke="#63b8ff" points="164.47,-22.52 174.04,-17.98 163.72,-15.56 164.47,-22.52"/>
</g>
</g>
</svg>
