<?xml version="1.0" encoding="UTF-8" standalone="no"?>
<!DOCTYPE svg PUBLIC "-//W3C//DTD SVG 1.1//EN"
 "http://www.w3.org/Graphics/SVG/1.1/DTD/svg11.dtd">
<!-- Generated by graphviz version 13.1.2 (20250808.2320)
 -->
<!-- Title: HF::GraphGenerator::CalculateStepType Pages: 1 -->
<svg width="294pt" height="128pt"
 viewBox="0.00 0.00 294.00 128.00" xmlns="http://www.w3.org/2000/svg" xmlns:xlink="http://www.w3.org/1999/xlink">
<g id="graph0" class="graph" transform="scale(1 1) rotate(0) translate(4 124)">
<title>HF::GraphGenerator::CalculateStepType</title>
<!-- Node1 -->
<g id="node1" class="node">
<title>Node1</title>
<g id="a_node1"><a xlink:title=" ">
<polygon fill="#999999" stroke="#666666" points="285.5,-76 181,-76 181,-44 285.5,-44 285.5,-76"/>
<text xml:space="preserve" text-anchor="start" x="189" y="-62.5" font-family="Helvetica,sans-Serif" font-size="10.00">HF::GraphGenerator</text>
<text xml:space="preserve" text-anchor="middle" x="233.25" y="-50.5" font-family="Helvetica,sans-Serif" font-size="10.00">::CalculateStepType</text>
</a>
</g>
</g>
<!-- Node2 -->
<g id="node2" class="node">
<title>Node2</title>
<g id="a_node2"><a xlink:href="a00463.html#a0251caf5a32eb2c1f9d846d88eb7fe22" target="_top" xlink:title=" ">
<polygon fill="white" stroke="#666666" points="145,-120 0,-120 0,-88 145,-88 145,-120"/>
<text xml:space="preserve" text-anchor="start" x="8" y="-106.5" font-family="Helvetica,sans-Serif" font-size="10.00">HF::GraphGenerator</text>
<text xml:space="preserve" text-anchor="middle" x="72.5" y="-94.5" font-family="Helvetica,sans-Serif" font-size="10.00">::CalculateAndStoreStepType</text>
</a>
</g>
</g>
<!-- Node1&#45;&gt;Node2 -->
<g id="edge1" class="edge">
<title>Node1&#45;&gt;Node2</title>
<path fill="none" stroke="#63b8ff" d="M169.72,-77.33C157.56,-80.7 144.84,-84.23 132.78,-87.57"/>
<polygon fill="#63b8ff" stroke="#63b8ff" points="170.55,-80.73 179.25,-74.69 168.68,-73.99 170.55,-80.73"/>
</g>
<!-- Node3 -->
<g id="node3" class="node">
<title>Node3</title>
<g id="a_node3"><a xlink:href="a00454.html#gae7f55e49ba1992471430d0e3d415ebae" target="_top" xlink:title="Query the graph and identify the step types of all edges, adding them to the graph.">
<polygon fill="white" stroke="#666666" points="144.62,-70 0.38,-70 0.38,-50 144.62,-50 144.62,-70"/>
<text xml:space="preserve" text-anchor="middle" x="72.5" y="-56.5" font-family="Helvetica,sans-Serif" font-size="10.00">CalculateAndStoreStepTypes</text>
</a>
</g>
</g>
<!-- Node1&#45;&gt;Node3 -->
<g id="edge2" class="edge">
<title>Node1&#45;&gt;Node3</title>
<path fill="none" stroke="#63b8ff" d="M169.24,-60C161.26,-60 153.06,-60 144.97,-60"/>
<polygon fill="#63b8ff" stroke="#63b8ff" points="169.19,-63.5 179.19,-60 169.19,-56.5 169.19,-63.5"/>
</g>
<!-- Node4 -->
<g id="node4" class="node">
<title>Node4</title>
<g id="a_node4"><a xlink:href="a00463.html#a81398de53e151ae58b206523e555309e" target="_top" xlink:title=" ">
<polygon fill="white" stroke="#666666" points="124.75,-32 20.25,-32 20.25,0 124.75,0 124.75,-32"/>
<text xml:space="preserve" text-anchor="start" x="28.25" y="-18.5" font-family="Helvetica,sans-Serif" font-size="10.00">HF::GraphGenerator</text>
<text xml:space="preserve" text-anchor="middle" x="72.5" y="-6.5" font-family="Helvetica,sans-Serif" font-size="10.00">::CalculateStepType</text>
</a>
</g>
</g>
<!-- Node1&#45;&gt;Node4 -->
<g id="edge3" class="edge">
<title>Node1&#45;&gt;Node4</title>
<path fill="none" stroke="#63b8ff" d="M170.04,-42.76C155.15,-38.63 139.41,-34.27 125.05,-30.29"/>
<polygon fill="#63b8ff" stroke="#63b8ff" points="168.68,-46.01 179.25,-45.31 170.55,-39.27 168.68,-46.01"/>
</g>
</g>
</svg>
