<?xml version="1.0" encoding="UTF-8" standalone="no"?>
<!DOCTYPE svg PUBLIC "-//W3C//DTD SVG 1.1//EN"
 "http://www.w3.org/Graphics/SVG/1.1/DTD/svg11.dtd">
<!-- Generated by graphviz version 13.1.2 (20250808.2320)
 -->
<!-- Title: HF::SpatialStructures::Normalize Pages: 1 -->
<svg width="858pt" height="246pt"
 viewBox="0.00 0.00 858.00 246.00" xmlns="http://www.w3.org/2000/svg" xmlns:xlink="http://www.w3.org/1999/xlink">
<g id="graph0" class="graph" transform="scale(1 1) rotate(0) translate(4 242)">
<title>HF::SpatialStructures::Normalize</title>
<!-- Node1 -->
<g id="node1" class="node">
<title>Node1</title>
<g id="a_node1"><a xlink:title=" ">
<polygon fill="#999999" stroke="#666666" points="850.25,-138 739.75,-138 739.75,-106 850.25,-106 850.25,-138"/>
<text xml:space="preserve" text-anchor="start" x="747.75" y="-124.5" font-family="Helvetica,sans-Serif" font-size="10.00">HF::SpatialStructures</text>
<text xml:space="preserve" text-anchor="middle" x="795" y="-112.5" font-family="Helvetica,sans-Serif" font-size="10.00">::Normalize</text>
</a>
</g>
</g>
<!-- Node2 -->
<g id="node2" class="node">
<title>Node2</title>
<g id="a_node2"><a xlink:href="a02071.html#ad3f7898ef3178eef0c3579869a7f5c67" target="_top" xlink:title="Get the direction between this node and another node">
<polygon fill="white" stroke="#666666" points="703.75,-138 593.25,-138 593.25,-106 703.75,-106 703.75,-138"/>
<text xml:space="preserve" text-anchor="start" x="601.25" y="-124.5" font-family="Helvetica,sans-Serif" font-size="10.00">HF::SpatialStructures</text>
<text xml:space="preserve" text-anchor="middle" x="648.5" y="-112.5" font-family="Helvetica,sans-Serif" font-size="10.00">::Node::directionTo</text>
</a>
</g>
</g>
<!-- Node1&#45;&gt;Node2 -->
<g id="edge1" class="edge">
<title>Node1&#45;&gt;Node2</title>
<path fill="none" stroke="#63b8ff" d="M727.88,-122C719.96,-122 711.94,-122 704.21,-122"/>
<polygon fill="#63b8ff" stroke="#63b8ff" points="727.86,-125.5 737.86,-122 727.86,-118.5 727.86,-125.5"/>
</g>
<!-- Node3 -->
<g id="node3" class="node">
<title>Node3</title>
<g id="a_node3"><a xlink:href="a00475.html#ac51f2e76c00356f8a6145bee865cd922" target="_top" xlink:title=" ">
<polygon fill="white" stroke="#666666" points="540.38,-206 403.62,-206 403.62,-162 540.38,-162 540.38,-206"/>
<text xml:space="preserve" text-anchor="start" x="411.62" y="-192.5" font-family="Helvetica,sans-Serif" font-size="10.00">HF::SpatialStructures</text>
<text xml:space="preserve" text-anchor="start" x="411.62" y="-180.5" font-family="Helvetica,sans-Serif" font-size="10.00">::CostAlgorithms::Calculate</text>
<text xml:space="preserve" text-anchor="middle" x="472" y="-168.5" font-family="Helvetica,sans-Serif" font-size="10.00">EnergyExpenditure</text>
</a>
</g>
</g>
<!-- Node2&#45;&gt;Node3 -->
<g id="edge2" class="edge">
<title>Node2&#45;&gt;Node3</title>
<path fill="none" stroke="#63b8ff" d="M590.64,-142.2C573.27,-148.38 554.05,-155.2 536.28,-161.52"/>
<polygon fill="#63b8ff" stroke="#63b8ff" points="591.52,-145.6 599.77,-138.96 589.17,-139.01 591.52,-145.6"/>
</g>
<!-- Node6 -->
<g id="node6" class="node">
<title>Node6</title>
<g id="a_node6"><a xlink:href="a00475.html#aeec6f9a28592565ad59609852e482663" target="_top" xlink:title=" ">
<polygon fill="white" stroke="#666666" points="557.25,-144 386.75,-144 386.75,-100 557.25,-100 557.25,-144"/>
<text xml:space="preserve" text-anchor="start" x="394.75" y="-130.5" font-family="Helvetica,sans-Serif" font-size="10.00">HF::SpatialStructures</text>
<text xml:space="preserve" text-anchor="start" x="394.75" y="-118.5" font-family="Helvetica,sans-Serif" font-size="10.00">::CostAlgorithms::GetPerpendicular</text>
<text xml:space="preserve" text-anchor="middle" x="472" y="-106.5" font-family="Helvetica,sans-Serif" font-size="10.00">Edges</text>
</a>
</g>
</g>
<!-- Node2&#45;&gt;Node6 -->
<g id="edge5" class="edge">
<title>Node2&#45;&gt;Node6</title>
<path fill="none" stroke="#63b8ff" d="M581.51,-122C573.69,-122 565.62,-122 557.58,-122"/>
<polygon fill="#63b8ff" stroke="#63b8ff" points="581.25,-125.5 591.25,-122 581.25,-118.5 581.25,-125.5"/>
</g>
<!-- Node7 -->
<g id="node7" class="node">
<title>Node7</title>
<g id="a_node7"><a xlink:href="a00467.html#a4d9cf77879eb78075f7f7b0a7e31119a" target="_top" xlink:title="Perform a line of sight check between two nodes.">
<polygon fill="white" stroke="#666666" points="528,-82 416,-82 416,-50 528,-50 528,-82"/>
<text xml:space="preserve" text-anchor="start" x="424" y="-68.5" font-family="Helvetica,sans-Serif" font-size="10.00">HF::VisibilityGraph</text>
<text xml:space="preserve" text-anchor="middle" x="472" y="-56.5" font-family="Helvetica,sans-Serif" font-size="10.00">::IsOcclusionBetween</text>
</a>
</g>
</g>
<!-- Node2&#45;&gt;Node7 -->
<g id="edge6" class="edge">
<title>Node2&#45;&gt;Node7</title>
<path fill="none" stroke="#63b8ff" d="M590.09,-101.87C579.21,-98.17 567.9,-94.41 557.25,-91 547.95,-88.02 538.03,-84.97 528.39,-82.07"/>
<polygon fill="#63b8ff" stroke="#63b8ff" points="588.76,-105.12 599.35,-105.04 591.02,-98.49 588.76,-105.12"/>
</g>
<!-- Node4 -->
<g id="node4" class="node">
<title>Node4</title>
<g id="a_node4"><a xlink:href="a00458.html#ga76d98cf2df63a766a74137dfa815d9a9" target="_top" xlink:title="Calculates energy expenditure for all subgraphs in *g and stores them in the graph at AlgorithmCostTi...">
<polygon fill="white" stroke="#666666" points="350.75,-238 170.5,-238 170.5,-218 350.75,-218 350.75,-238"/>
<text xml:space="preserve" text-anchor="middle" x="260.62" y="-224.5" font-family="Helvetica,sans-Serif" font-size="10.00">CalculateAndStoreEnergyExpenditure</text>
</a>
</g>
</g>
<!-- Node3&#45;&gt;Node4 -->
<g id="edge3" class="edge">
<title>Node3&#45;&gt;Node4</title>
<path fill="none" stroke="#63b8ff" d="M392.28,-200.54C365.19,-206.24 335.64,-212.45 311.49,-217.52"/>
<polygon fill="#63b8ff" stroke="#63b8ff" points="392.76,-204.02 401.83,-198.54 391.32,-197.17 392.76,-204.02"/>
</g>
<!-- Node5 -->
<g id="node5" class="node">
<title>Node5</title>
<g id="a_node5"><a xlink:href="a00475.html#adbe5e58355a884494d6e99bf17fc5f7b" target="_top" xlink:title=" ">
<polygon fill="white" stroke="#666666" points="329,-200 192.25,-200 192.25,-156 329,-156 329,-200"/>
<text xml:space="preserve" text-anchor="start" x="200.25" y="-186.5" font-family="Helvetica,sans-Serif" font-size="10.00">HF::SpatialStructures</text>
<text xml:space="preserve" text-anchor="start" x="200.25" y="-174.5" font-family="Helvetica,sans-Serif" font-size="10.00">::CostAlgorithms::Calculate</text>
<text xml:space="preserve" text-anchor="middle" x="260.62" y="-162.5" font-family="Helvetica,sans-Serif" font-size="10.00">EnergyExpenditure</text>
</a>
</g>
</g>
<!-- Node3&#45;&gt;Node5 -->
<g id="edge4" class="edge">
<title>Node3&#45;&gt;Node5</title>
<path fill="none" stroke="#63b8ff" d="M392.03,-181.74C371.43,-181.15 349.41,-180.52 329.44,-179.94"/>
<polygon fill="#63b8ff" stroke="#63b8ff" points="391.7,-185.23 401.8,-182.02 391.9,-178.23 391.7,-185.23"/>
</g>
<!-- Node8 -->
<g id="node8" class="node">
<title>Node8</title>
<g id="a_node8"><a xlink:href="a00467.html#a12eb1e4c06400c4625cd22d925927b03" target="_top" xlink:title="Generate a Visibility Graph between every node in a set of nodes in parallel.">
<polygon fill="white" stroke="#666666" points="309.88,-132 211.38,-132 211.38,-100 309.88,-100 309.88,-132"/>
<text xml:space="preserve" text-anchor="start" x="219.38" y="-118.5" font-family="Helvetica,sans-Serif" font-size="10.00">HF::VisibilityGraph</text>
<text xml:space="preserve" text-anchor="middle" x="260.62" y="-106.5" font-family="Helvetica,sans-Serif" font-size="10.00">::AllToAll</text>
</a>
</g>
</g>
<!-- Node7&#45;&gt;Node8 -->
<g id="edge7" class="edge">
<title>Node7&#45;&gt;Node8</title>
<path fill="none" stroke="#63b8ff" d="M404.66,-81.84C373.98,-89.17 338.19,-97.72 310.08,-104.43"/>
<polygon fill="#63b8ff" stroke="#63b8ff" points="405.33,-85.28 414.24,-79.55 403.7,-78.47 405.33,-85.28"/>
</g>
<!-- Node10 -->
<g id="node10" class="node">
<title>Node10</title>
<g id="a_node10"><a xlink:href="a00467.html#ab1db87927118f70786a664c3b3cc7905" target="_top" xlink:title="Generate a Visibility Graph with every edge stored twice.">
<polygon fill="white" stroke="#666666" points="311.75,-82 209.5,-82 209.5,-50 311.75,-50 311.75,-82"/>
<text xml:space="preserve" text-anchor="start" x="217.5" y="-68.5" font-family="Helvetica,sans-Serif" font-size="10.00">HF::VisibilityGraph</text>
<text xml:space="preserve" text-anchor="middle" x="260.62" y="-56.5" font-family="Helvetica,sans-Serif" font-size="10.00">::AllToAllUndirected</text>
</a>
</g>
</g>
<!-- Node7&#45;&gt;Node10 -->
<g id="edge9" class="edge">
<title>Node7&#45;&gt;Node10</title>
<path fill="none" stroke="#63b8ff" d="M404.52,-66C374.63,-66 339.92,-66 312.19,-66"/>
<polygon fill="#63b8ff" stroke="#63b8ff" points="404.2,-69.5 414.2,-66 404.2,-62.5 404.2,-69.5"/>
</g>
<!-- Node12 -->
<g id="node12" class="node">
<title>Node12</title>
<g id="a_node12"><a xlink:href="a00467.html#ae42a5aafdfcc29b6a668355c07602efb" target="_top" xlink:title="Generate a Visibility Graph from a set of nodes to another set of nodes.">
<polygon fill="white" stroke="#666666" points="309.88,-32 211.38,-32 211.38,0 309.88,0 309.88,-32"/>
<text xml:space="preserve" text-anchor="start" x="219.38" y="-18.5" font-family="Helvetica,sans-Serif" font-size="10.00">HF::VisibilityGraph</text>
<text xml:space="preserve" text-anchor="middle" x="260.62" y="-6.5" font-family="Helvetica,sans-Serif" font-size="10.00">::GroupToGroup</text>
</a>
</g>
</g>
<!-- Node7&#45;&gt;Node12 -->
<g id="edge11" class="edge">
<title>Node7&#45;&gt;Node12</title>
<path fill="none" stroke="#63b8ff" d="M404.66,-50.16C373.98,-42.83 338.19,-34.28 310.08,-27.57"/>
<polygon fill="#63b8ff" stroke="#63b8ff" points="403.7,-53.53 414.24,-52.45 405.33,-46.72 403.7,-53.53"/>
</g>
<!-- Node9 -->
<g id="node9" class="node">
<title>Node9</title>
<g id="a_node9"><a xlink:href="a00460.html#ga0255e6c4811298e61110adc64c0f8acd" target="_top" xlink:title="Create a new directed visibility graph between all nodes in parameter nodes.">
<polygon fill="white" stroke="#666666" points="127,-132 7.5,-132 7.5,-100 127,-100 127,-132"/>
<text xml:space="preserve" text-anchor="start" x="15.5" y="-118.5" font-family="Helvetica,sans-Serif" font-size="10.00">CreateVisibilityGraphAll</text>
<text xml:space="preserve" text-anchor="middle" x="67.25" y="-106.5" font-family="Helvetica,sans-Serif" font-size="10.00">ToAll</text>
</a>
</g>
</g>
<!-- Node8&#45;&gt;Node9 -->
<g id="edge8" class="edge">
<title>Node8&#45;&gt;Node9</title>
<path fill="none" stroke="#63b8ff" d="M199.95,-116C176.87,-116 150.51,-116 127.48,-116"/>
<polygon fill="#63b8ff" stroke="#63b8ff" points="199.82,-119.5 209.82,-116 199.82,-112.5 199.82,-119.5"/>
</g>
<!-- Node11 -->
<g id="node11" class="node">
<title>Node11</title>
<g id="a_node11"><a xlink:href="a00460.html#ga9b0664a60bcdf276b0fe0a2023b3d9b8" target="_top" xlink:title="Create a new undirected visibility graph between all nodes in nodes.">
<polygon fill="white" stroke="#666666" points="127,-82 7.5,-82 7.5,-50 127,-50 127,-82"/>
<text xml:space="preserve" text-anchor="start" x="15.5" y="-68.5" font-family="Helvetica,sans-Serif" font-size="10.00">CreateVisibilityGraphAll</text>
<text xml:space="preserve" text-anchor="middle" x="67.25" y="-56.5" font-family="Helvetica,sans-Serif" font-size="10.00">ToAllUndirected</text>
</a>
</g>
</g>
<!-- Node10&#45;&gt;Node11 -->
<g id="edge10" class="edge">
<title>Node10&#45;&gt;Node11</title>
<path fill="none" stroke="#63b8ff" d="M197.88,-66C175.22,-66 149.64,-66 127.22,-66"/>
<polygon fill="#63b8ff" stroke="#63b8ff" points="197.58,-69.5 207.58,-66 197.58,-62.5 197.58,-69.5"/>
</g>
<!-- Node13 -->
<g id="node13" class="node">
<title>Node13</title>
<g id="a_node13"><a xlink:href="a00460.html#gaf2e404cb696aee3473cac0d1507576d8" target="_top" xlink:title="Create a new visibility graph from the nodes in group_a, into the nodes of group_b.">
<polygon fill="white" stroke="#666666" points="134.5,-32 0,-32 0,0 134.5,0 134.5,-32"/>
<text xml:space="preserve" text-anchor="start" x="8" y="-18.5" font-family="Helvetica,sans-Serif" font-size="10.00">CreateVisibilityGraphGroup</text>
<text xml:space="preserve" text-anchor="middle" x="67.25" y="-6.5" font-family="Helvetica,sans-Serif" font-size="10.00">ToGroup</text>
</a>
</g>
</g>
<!-- Node12&#45;&gt;Node13 -->
<g id="edge12" class="edge">
<title>Node12&#45;&gt;Node13</title>
<path fill="none" stroke="#63b8ff" d="M199.87,-16C179.27,-16 156.07,-16 134.96,-16"/>
<polygon fill="#63b8ff" stroke="#63b8ff" points="199.82,-19.5 209.82,-16 199.82,-12.5 199.82,-19.5"/>
</g>
</g>
</svg>
