<?xml version="1.0" encoding="UTF-8" standalone="no"?>
<!DOCTYPE svg PUBLIC "-//W3C//DTD SVG 1.1//EN"
 "http://www.w3.org/Graphics/SVG/1.1/DTD/svg11.dtd">
<!-- Generated by graphviz version 13.1.2 (20250808.2320)
 -->
<!-- Title: Cinterface/view_analysis_C.cpp Pages: 1 -->
<svg width="1134pt" height="264pt"
 viewBox="0.00 0.00 1134.00 264.00" xmlns="http://www.w3.org/2000/svg" xmlns:xlink="http://www.w3.org/1999/xlink">
<g id="graph0" class="graph" transform="scale(1 1) rotate(0) translate(4 260)">
<title>Cinterface/view_analysis_C.cpp</title>
<!-- Node1 -->
<g id="node1" class="node">
<title>Node1</title>
<g id="a_node1"><a xlink:title=" ">
<polygon fill="#999999" stroke="#666666" points="657.38,-256 531.88,-256 531.88,-224 657.38,-224 657.38,-256"/>
<text xml:space="preserve" text-anchor="start" x="539.88" y="-242.5" font-family="Helvetica,sans-Serif" font-size="10.00">Cinterface/view_analysis</text>
<text xml:space="preserve" text-anchor="middle" x="594.62" y="-230.5" font-family="Helvetica,sans-Serif" font-size="10.00">_C.cpp</text>
</a>
</g>
</g>
<!-- Node2 -->
<g id="node2" class="node">
<title>Node2</title>
<g id="a_node2"><a xlink:href="a00443.html" target="_top" xlink:title="Header file for conducting view analysis via the C Interface.">
<polygon fill="white" stroke="#666666" points="336.88,-188 238.38,-188 238.38,-168 336.88,-168 336.88,-188"/>
<text xml:space="preserve" text-anchor="middle" x="287.62" y="-174.5" font-family="Helvetica,sans-Serif" font-size="10.00">view_analysis_C.h</text>
</a>
</g>
</g>
<!-- Node1&#45;&gt;Node2 -->
<g id="edge1" class="edge">
<title>Node1&#45;&gt;Node2</title>
<path fill="none" stroke="#63b8ff" d="M531.39,-226.64C477.42,-216.09 400.37,-201.04 347.42,-190.69"/>
<polygon fill="#63b8ff" stroke="#63b8ff" points="348.14,-187.26 337.66,-188.78 346.8,-194.13 348.14,-187.26"/>
</g>
<!-- Node7 -->
<g id="node7" class="node">
<title>Node7</title>
<g id="a_node7"><a xlink:title=" ">
<polygon fill="#e0e0e0" stroke="#999999" points="630.38,-132 558.88,-132 558.88,-112 630.38,-112 630.38,-132"/>
<text xml:space="preserve" text-anchor="middle" x="594.62" y="-118.5" font-family="Helvetica,sans-Serif" font-size="10.00">robin_hood.h</text>
</a>
</g>
</g>
<!-- Node1&#45;&gt;Node7 -->
<g id="edge9" class="edge">
<title>Node1&#45;&gt;Node7</title>
<path fill="none" stroke="#63b8ff" d="M594.62,-223.84C594.62,-203.41 594.62,-166.97 594.62,-143.95"/>
<polygon fill="#63b8ff" stroke="#63b8ff" points="598.13,-143.95 594.63,-133.95 591.13,-143.95 598.13,-143.95"/>
</g>
<!-- Node8 -->
<g id="node8" class="node">
<title>Node8</title>
<g id="a_node8"><a xlink:href="a00176.html" target="_top" xlink:title="Contains definitions for the Exceptions namespace.">
<polygon fill="white" stroke="#666666" points="519.88,-188 433.38,-188 433.38,-168 519.88,-168 519.88,-188"/>
<text xml:space="preserve" text-anchor="middle" x="476.62" y="-174.5" font-family="Helvetica,sans-Serif" font-size="10.00">HFExceptions.h</text>
</a>
</g>
</g>
<!-- Node1&#45;&gt;Node8 -->
<g id="edge10" class="edge">
<title>Node1&#45;&gt;Node8</title>
<path fill="none" stroke="#63b8ff" d="M564.24,-223.55C546.06,-214.3 523.09,-202.63 505.24,-193.55"/>
<polygon fill="#63b8ff" stroke="#63b8ff" points="506.98,-190.51 496.48,-189.09 503.8,-196.75 506.98,-190.51"/>
</g>
<!-- Node12 -->
<g id="node12" class="node">
<title>Node12</title>
<g id="a_node12"><a xlink:href="a00023.html" target="_top" xlink:title="Contains definitions for the ViewAnalysis namespace.">
<polygon fill="white" stroke="#666666" points="287.5,-132 201.75,-132 201.75,-112 287.5,-112 287.5,-132"/>
<text xml:space="preserve" text-anchor="middle" x="244.62" y="-118.5" font-family="Helvetica,sans-Serif" font-size="10.00">view_analysis.h</text>
</a>
</g>
</g>
<!-- Node1&#45;&gt;Node12 -->
<g id="edge14" class="edge">
<title>Node1&#45;&gt;Node12</title>
<path fill="none" stroke="#63b8ff" d="M540.41,-223.56C506.9,-213.82 463.1,-200.71 424.62,-188 374.02,-171.29 316.16,-150 280.01,-136.43"/>
<polygon fill="#63b8ff" stroke="#63b8ff" points="281.52,-133.26 270.93,-133.01 279.06,-139.81 281.52,-133.26"/>
</g>
<!-- Node17 -->
<g id="node17" class="node">
<title>Node17</title>
<g id="a_node17"><a xlink:href="a00212.html" target="_top" xlink:title="Contains definitions for the EmbreeRayTracer">
<polygon fill="white" stroke="#666666" points="1083.62,-132 983.62,-132 983.62,-112 1083.62,-112 1083.62,-132"/>
<text xml:space="preserve" text-anchor="middle" x="1033.62" y="-118.5" font-family="Helvetica,sans-Serif" font-size="10.00">embree_raytracer.h</text>
</a>
</g>
</g>
<!-- Node1&#45;&gt;Node17 -->
<g id="edge21" class="edge">
<title>Node1&#45;&gt;Node17</title>
<path fill="none" stroke="#63b8ff" d="M657.87,-235.34C750.1,-229.17 916.31,-214.69 969.62,-188 991,-177.3 1009.42,-156.62 1020.93,-141.45"/>
<polygon fill="#63b8ff" stroke="#63b8ff" points="1023.54,-143.81 1026.58,-133.66 1017.88,-139.7 1023.54,-143.81"/>
</g>
<!-- Node21 -->
<g id="node21" class="node">
<title>Node21</title>
<g id="a_node21"><a xlink:href="a00269.html" target="_top" xlink:title="Contains definitions for the Graph &#160;class.">
<polygon fill="white" stroke="#666666" points="765.75,-188 717.5,-188 717.5,-168 765.75,-168 765.75,-188"/>
<text xml:space="preserve" text-anchor="middle" x="741.62" y="-174.5" font-family="Helvetica,sans-Serif" font-size="10.00">graph.h</text>
</a>
</g>
</g>
<!-- Node1&#45;&gt;Node21 -->
<g id="edge27" class="edge">
<title>Node1&#45;&gt;Node21</title>
<path fill="none" stroke="#63b8ff" d="M632.48,-223.55C655.87,-214 685.63,-201.86 708.15,-192.66"/>
<polygon fill="#63b8ff" stroke="#63b8ff" points="709.24,-196 717.17,-188.98 706.59,-189.52 709.24,-196"/>
</g>
<!-- Node23 -->
<g id="node23" class="node">
<title>Node23</title>
<g id="a_node23"><a xlink:href="a00275.html" target="_top" xlink:title="Contains definitions for the Node structure.">
<polygon fill="white" stroke="#666666" points="867.25,-76 822,-76 822,-56 867.25,-56 867.25,-76"/>
<text xml:space="preserve" text-anchor="middle" x="844.62" y="-62.5" font-family="Helvetica,sans-Serif" font-size="10.00">node.h</text>
</a>
</g>
</g>
<!-- Node1&#45;&gt;Node23 -->
<g id="edge43" class="edge">
<title>Node1&#45;&gt;Node23</title>
<path fill="none" stroke="#63b8ff" d="M657.6,-237.51C729.35,-231.94 843.05,-210.4 892.62,-132 903.63,-114.59 886.23,-95.77 869.38,-82.89"/>
<polygon fill="#63b8ff" stroke="#63b8ff" points="871.67,-80.22 861.49,-77.26 867.6,-85.92 871.67,-80.22"/>
</g>
<!-- Node3 -->
<g id="node3" class="node">
<title>Node3</title>
<g id="a_node3"><a xlink:href="a00413.html" target="_top" xlink:title=" ">
<polygon fill="white" stroke="#666666" points="183.75,-132 93.5,-132 93.5,-112 183.75,-112 183.75,-132"/>
<text xml:space="preserve" text-anchor="middle" x="138.62" y="-118.5" font-family="Helvetica,sans-Serif" font-size="10.00">cinterface_utils.h</text>
</a>
</g>
</g>
<!-- Node2&#45;&gt;Node3 -->
<g id="edge2" class="edge">
<title>Node2&#45;&gt;Node3</title>
<path fill="none" stroke="#63b8ff" d="M261.67,-167.59C237.78,-158.94 202.1,-146 175.3,-136.29"/>
<polygon fill="#63b8ff" stroke="#63b8ff" points="176.8,-133.11 166.2,-133 174.41,-139.69 176.8,-133.11"/>
</g>
<!-- Node4 -->
<g id="node4" class="node">
<title>Node4</title>
<g id="a_node4"><a xlink:title=" ">
<polygon fill="#e0e0e0" stroke="#999999" points="557.12,-76 514.12,-76 514.12,-56 557.12,-56 557.12,-76"/>
<text xml:space="preserve" text-anchor="middle" x="535.62" y="-62.5" font-family="Helvetica,sans-Serif" font-size="10.00">vector</text>
</a>
</g>
</g>
<!-- Node2&#45;&gt;Node4 -->
<g id="edge5" class="edge">
<title>Node2&#45;&gt;Node4</title>
<path fill="none" stroke="#63b8ff" d="M291.61,-167.81C298.31,-153.51 313.23,-126.1 334.62,-112 386.38,-77.91 460.17,-69.35 502.45,-67.38"/>
<polygon fill="#63b8ff" stroke="#63b8ff" points="502.37,-70.89 512.24,-67.03 502.12,-63.89 502.37,-70.89"/>
</g>
<!-- Node6 -->
<g id="node6" class="node">
<title>Node6</title>
<g id="a_node6"><a xlink:href="a00431.html" target="_top" xlink:title="C Interface header file for Raytracer functionality.">
<polygon fill="white" stroke="#666666" points="75.25,-132 0,-132 0,-112 75.25,-112 75.25,-132"/>
<text xml:space="preserve" text-anchor="middle" x="37.62" y="-118.5" font-family="Helvetica,sans-Serif" font-size="10.00">raytracer_C.h</text>
</a>
</g>
</g>
<!-- Node2&#45;&gt;Node6 -->
<g id="edge6" class="edge">
<title>Node2&#45;&gt;Node6</title>
<path fill="none" stroke="#63b8ff" d="M243.79,-167.53C199.9,-158.05 132.48,-143.49 86.79,-133.62"/>
<polygon fill="#63b8ff" stroke="#63b8ff" points="87.67,-130.23 77.15,-131.54 86.19,-137.07 87.67,-130.23"/>
</g>
<!-- Node3&#45;&gt;Node4 -->
<g id="edge3" class="edge">
<title>Node3&#45;&gt;Node4</title>
<path fill="none" stroke="#63b8ff" d="M183.98,-113.32C186.9,-112.86 189.8,-112.42 192.62,-112 306.24,-95.09 441.53,-78.33 502.7,-70.93"/>
<polygon fill="#63b8ff" stroke="#63b8ff" points="502.91,-74.43 512.42,-69.76 502.07,-67.48 502.91,-74.43"/>
</g>
<!-- Node5 -->
<g id="node5" class="node">
<title>Node5</title>
<g id="a_node5"><a xlink:title=" ">
<polygon fill="#e0e0e0" stroke="#999999" points="263.5,-20 225.75,-20 225.75,0 263.5,0 263.5,-20"/>
<text xml:space="preserve" text-anchor="middle" x="244.62" y="-6.5" font-family="Helvetica,sans-Serif" font-size="10.00">array</text>
</a>
</g>
</g>
<!-- Node3&#45;&gt;Node5 -->
<g id="edge4" class="edge">
<title>Node3&#45;&gt;Node5</title>
<path fill="none" stroke="#63b8ff" d="M140.85,-111.59C144.47,-97.97 152.78,-72.56 167.62,-56 180.56,-41.57 199.24,-30.5 214.97,-22.95"/>
<polygon fill="#63b8ff" stroke="#63b8ff" points="216.23,-26.22 223.89,-18.91 213.34,-19.84 216.23,-26.22"/>
</g>
<!-- Node6&#45;&gt;Node4 -->
<g id="edge7" class="edge">
<title>Node6&#45;&gt;Node4</title>
<path fill="none" stroke="#63b8ff" d="M75.54,-113.44C78.61,-112.92 81.67,-112.43 84.62,-112 240.26,-89.38 427.79,-74.65 502.54,-69.28"/>
<polygon fill="#63b8ff" stroke="#63b8ff" points="502.71,-72.78 512.44,-68.58 502.22,-65.79 502.71,-72.78"/>
</g>
<!-- Node6&#45;&gt;Node5 -->
<g id="edge8" class="edge">
<title>Node6&#45;&gt;Node5</title>
<path fill="none" stroke="#63b8ff" d="M53.14,-111.58C74.72,-98.58 115.17,-74.65 150.62,-56 171.91,-44.8 196.43,-33.1 215.09,-24.44"/>
<polygon fill="#63b8ff" stroke="#63b8ff" points="216.34,-27.72 223.96,-20.35 213.41,-21.36 216.34,-27.72"/>
</g>
<!-- Node9 -->
<g id="node9" class="node">
<title>Node9</title>
<g id="a_node9"><a xlink:title=" ">
<polygon fill="#e0e0e0" stroke="#999999" points="477.62,-132 419.62,-132 419.62,-112 477.62,-112 477.62,-132"/>
<text xml:space="preserve" text-anchor="middle" x="448.62" y="-118.5" font-family="Helvetica,sans-Serif" font-size="10.00">exception</text>
</a>
</g>
</g>
<!-- Node8&#45;&gt;Node9 -->
<g id="edge11" class="edge">
<title>Node8&#45;&gt;Node9</title>
<path fill="none" stroke="#63b8ff" d="M471.75,-167.59C468.13,-160.63 463.08,-150.89 458.63,-142.29"/>
<polygon fill="#63b8ff" stroke="#63b8ff" points="461.85,-140.91 454.14,-133.64 455.64,-144.13 461.85,-140.91"/>
</g>
<!-- Node10 -->
<g id="node10" class="node">
<title>Node10</title>
<g id="a_node10"><a xlink:title=" ">
<polygon fill="#e0e0e0" stroke="#999999" points="541.25,-132 496,-132 496,-112 541.25,-112 541.25,-132"/>
<text xml:space="preserve" text-anchor="middle" x="518.62" y="-118.5" font-family="Helvetica,sans-Serif" font-size="10.00">cstring</text>
</a>
</g>
</g>
<!-- Node8&#45;&gt;Node10 -->
<g id="edge12" class="edge">
<title>Node8&#45;&gt;Node10</title>
<path fill="none" stroke="#63b8ff" d="M483.94,-167.59C489.6,-160.32 497.61,-150.02 504.51,-141.15"/>
<polygon fill="#63b8ff" stroke="#63b8ff" points="507.09,-143.54 510.46,-133.49 501.56,-139.24 507.09,-143.54"/>
</g>
<!-- Node11 -->
<g id="node11" class="node">
<title>Node11</title>
<g id="a_node11"><a xlink:title=" ">
<polygon fill="#e0e0e0" stroke="#999999" points="402,-132 343.25,-132 343.25,-112 402,-112 402,-132"/>
<text xml:space="preserve" text-anchor="middle" x="372.62" y="-118.5" font-family="Helvetica,sans-Serif" font-size="10.00">stdexcept</text>
</a>
</g>
</g>
<!-- Node8&#45;&gt;Node11 -->
<g id="edge13" class="edge">
<title>Node8&#45;&gt;Node11</title>
<path fill="none" stroke="#63b8ff" d="M458.51,-167.59C442.65,-159.36 419.34,-147.26 401.01,-137.74"/>
<polygon fill="#63b8ff" stroke="#63b8ff" points="402.71,-134.68 392.23,-133.18 399.49,-140.89 402.71,-134.68"/>
</g>
<!-- Node12&#45;&gt;Node4 -->
<g id="edge15" class="edge">
<title>Node12&#45;&gt;Node4</title>
<path fill="none" stroke="#63b8ff" d="M287.88,-112.97C346.61,-102.08 450.28,-82.84 502.95,-73.06"/>
<polygon fill="#63b8ff" stroke="#63b8ff" points="503.3,-76.56 512.49,-71.29 502.02,-69.68 503.3,-76.56"/>
</g>
<!-- Node12&#45;&gt;Node5 -->
<g id="edge16" class="edge">
<title>Node12&#45;&gt;Node5</title>
<path fill="none" stroke="#63b8ff" d="M244.62,-111.62C244.62,-94.01 244.62,-55.59 244.62,-31.65"/>
<polygon fill="#63b8ff" stroke="#63b8ff" points="248.13,-31.87 244.63,-21.87 241.13,-31.87 248.13,-31.87"/>
</g>
<!-- Node13 -->
<g id="node13" class="node">
<title>Node13</title>
<g id="a_node13"><a xlink:title=" ">
<polygon fill="#e0e0e0" stroke="#999999" points="542.12,-20 499.12,-20 499.12,0 542.12,0 542.12,-20"/>
<text xml:space="preserve" text-anchor="middle" x="520.62" y="-6.5" font-family="Helvetica,sans-Serif" font-size="10.00">cmath</text>
</a>
</g>
</g>
<!-- Node12&#45;&gt;Node13 -->
<g id="edge17" class="edge">
<title>Node12&#45;&gt;Node13</title>
<path fill="none" stroke="#63b8ff" d="M268.16,-111.62C317.53,-91.94 432.01,-46.32 488.26,-23.9"/>
<polygon fill="#63b8ff" stroke="#63b8ff" points="489.29,-27.25 497.29,-20.3 486.7,-20.75 489.29,-27.25"/>
</g>
<!-- Node14 -->
<g id="node14" class="node">
<title>Node14</title>
<g id="a_node14"><a xlink:title=" ">
<polygon fill="#e0e0e0" stroke="#999999" points="793.38,-76 739.88,-76 739.88,-56 793.38,-56 793.38,-76"/>
<text xml:space="preserve" text-anchor="middle" x="766.62" y="-62.5" font-family="Helvetica,sans-Serif" font-size="10.00">iostream</text>
</a>
</g>
</g>
<!-- Node12&#45;&gt;Node14 -->
<g id="edge18" class="edge">
<title>Node12&#45;&gt;Node14</title>
<path fill="none" stroke="#63b8ff" d="M287.65,-116.67C302.53,-115.18 319.31,-113.51 334.62,-112 499.05,-95.78 540.6,-95.87 704.62,-76 712.32,-75.07 720.52,-73.96 728.37,-72.84"/>
<polygon fill="#63b8ff" stroke="#63b8ff" points="728.61,-76.34 738,-71.44 727.6,-69.42 728.61,-76.34"/>
</g>
<!-- Node15 -->
<g id="node15" class="node">
<title>Node15</title>
<g id="a_node15"><a xlink:title=" ">
<polygon fill="#e0e0e0" stroke="#999999" points="324.25,-76 273,-76 273,-56 324.25,-56 324.25,-76"/>
<text xml:space="preserve" text-anchor="middle" x="298.62" y="-62.5" font-family="Helvetica,sans-Serif" font-size="10.00">assert.h</text>
</a>
</g>
</g>
<!-- Node12&#45;&gt;Node15 -->
<g id="edge19" class="edge">
<title>Node12&#45;&gt;Node15</title>
<path fill="none" stroke="#63b8ff" d="M254.03,-111.59C261.54,-104.08 272.27,-93.35 281.32,-84.3"/>
<polygon fill="#63b8ff" stroke="#63b8ff" points="283.66,-86.91 288.26,-77.37 278.71,-81.96 283.66,-86.91"/>
</g>
<!-- Node16 -->
<g id="node16" class="node">
<title>Node16</title>
<g id="a_node16"><a xlink:title=" ">
<polygon fill="#e0e0e0" stroke="#999999" points="216.25,-76 177,-76 177,-56 216.25,-56 216.25,-76"/>
<text xml:space="preserve" text-anchor="middle" x="196.62" y="-62.5" font-family="Helvetica,sans-Serif" font-size="10.00">limits</text>
</a>
</g>
</g>
<!-- Node12&#45;&gt;Node16 -->
<g id="edge20" class="edge">
<title>Node12&#45;&gt;Node16</title>
<path fill="none" stroke="#63b8ff" d="M236.26,-111.59C229.73,-104.24 220.44,-93.8 212.51,-84.87"/>
<polygon fill="#63b8ff" stroke="#63b8ff" points="215.16,-82.58 205.9,-77.43 209.92,-87.23 215.16,-82.58"/>
</g>
<!-- Node17&#45;&gt;Node4 -->
<g id="edge23" class="edge">
<title>Node17&#45;&gt;Node4</title>
<path fill="none" stroke="#63b8ff" d="M983.13,-115.53C881.33,-104.49 653.9,-79.83 568.7,-70.59"/>
<polygon fill="#63b8ff" stroke="#63b8ff" points="569.24,-67.13 558.93,-69.53 568.49,-74.08 569.24,-67.13"/>
</g>
<!-- Node17&#45;&gt;Node5 -->
<g id="edge24" class="edge">
<title>Node17&#45;&gt;Node5</title>
<path fill="none" stroke="#63b8ff" d="M1011.07,-111.55C968.47,-93.73 880.11,-56.82 876.62,-56 760.15,-28.51 385.09,-15.24 275.17,-11.88"/>
<polygon fill="#63b8ff" stroke="#63b8ff" points="275.56,-8.39 265.46,-11.59 275.35,-15.39 275.56,-8.39"/>
</g>
<!-- Node18 -->
<g id="node18" class="node">
<title>Node18</title>
<g id="a_node18"><a xlink:title=" ">
<polygon fill="#e0e0e0" stroke="#999999" points="984.12,-76 935.12,-76 935.12,-56 984.12,-56 984.12,-76"/>
<text xml:space="preserve" text-anchor="middle" x="959.62" y="-62.5" font-family="Helvetica,sans-Serif" font-size="10.00">rtcore.h</text>
</a>
</g>
</g>
<!-- Node17&#45;&gt;Node18 -->
<g id="edge22" class="edge">
<title>Node17&#45;&gt;Node18</title>
<path fill="none" stroke="#63b8ff" d="M1020.74,-111.59C1009.91,-103.7 994.21,-92.24 981.44,-82.92"/>
<polygon fill="#63b8ff" stroke="#63b8ff" points="983.73,-80.26 973.59,-77.19 979.6,-85.91 983.73,-80.26"/>
</g>
<!-- Node19 -->
<g id="node19" class="node">
<title>Node19</title>
<g id="a_node19"><a xlink:href="a00218.html" target="_top" xlink:title=" ">
<polygon fill="white" stroke="#666666" points="1065.25,-76 1002,-76 1002,-56 1065.25,-56 1065.25,-76"/>
<text xml:space="preserve" text-anchor="middle" x="1033.62" y="-62.5" font-family="Helvetica,sans-Serif" font-size="10.00">HitStruct.h</text>
</a>
</g>
</g>
<!-- Node17&#45;&gt;Node19 -->
<g id="edge25" class="edge">
<title>Node17&#45;&gt;Node19</title>
<path fill="none" stroke="#63b8ff" d="M1033.62,-111.59C1033.62,-105.01 1033.62,-95.96 1033.62,-87.73"/>
<polygon fill="#63b8ff" stroke="#63b8ff" points="1037.13,-87.81 1033.63,-77.81 1030.13,-87.81 1037.13,-87.81"/>
</g>
<!-- Node20 -->
<g id="node20" class="node">
<title>Node20</title>
<g id="a_node20"><a xlink:title=" ">
<polygon fill="#e0e0e0" stroke="#999999" points="1126.12,-76 1083.12,-76 1083.12,-56 1126.12,-56 1126.12,-76"/>
<text xml:space="preserve" text-anchor="middle" x="1104.62" y="-62.5" font-family="Helvetica,sans-Serif" font-size="10.00">omp.h</text>
</a>
</g>
</g>
<!-- Node17&#45;&gt;Node20 -->
<g id="edge26" class="edge">
<title>Node17&#45;&gt;Node20</title>
<path fill="none" stroke="#63b8ff" d="M1045.99,-111.59C1056.27,-103.77 1071.14,-92.46 1083.34,-83.19"/>
<polygon fill="#63b8ff" stroke="#63b8ff" points="1085.35,-86.05 1091.19,-77.21 1081.12,-80.48 1085.35,-86.05"/>
</g>
<!-- Node21&#45;&gt;Node4 -->
<g id="edge29" class="edge">
<title>Node21&#45;&gt;Node4</title>
<path fill="none" stroke="#63b8ff" d="M737.97,-167.94C731.81,-153.81 717.98,-126.64 697.62,-112 658.87,-84.14 603.53,-73.51 568.6,-69.47"/>
<polygon fill="#63b8ff" stroke="#63b8ff" points="569.41,-66.03 559.1,-68.49 568.69,-72.99 569.41,-66.03"/>
</g>
<!-- Node21&#45;&gt;Node7 -->
<g id="edge28" class="edge">
<title>Node21&#45;&gt;Node7</title>
<path fill="none" stroke="#63b8ff" d="M717.02,-167.96C693.46,-159.31 657.63,-146.14 630.81,-136.29"/>
<polygon fill="#63b8ff" stroke="#63b8ff" points="632.31,-133.12 621.72,-132.95 629.9,-139.69 632.31,-133.12"/>
</g>
<!-- Node21&#45;&gt;Node14 -->
<g id="edge42" class="edge">
<title>Node21&#45;&gt;Node14</title>
<path fill="none" stroke="#63b8ff" d="M766.16,-175.58C794.34,-172.48 839.41,-162.71 860.62,-132 878.56,-106.04 837.94,-87.25 804.59,-76.74"/>
<polygon fill="#63b8ff" stroke="#63b8ff" points="805.69,-73.42 795.11,-73.93 803.7,-80.13 805.69,-73.42"/>
</g>
<!-- Node22 -->
<g id="node22" class="node">
<title>Node22</title>
<g id="a_node22"><a xlink:href="a00263.html" target="_top" xlink:title="Contains definitions for the Edge structure.">
<polygon fill="white" stroke="#666666" points="851.25,-132 806,-132 806,-112 851.25,-112 851.25,-132"/>
<text xml:space="preserve" text-anchor="middle" x="828.62" y="-118.5" font-family="Helvetica,sans-Serif" font-size="10.00">edge.h</text>
</a>
</g>
</g>
<!-- Node21&#45;&gt;Node22 -->
<g id="edge30" class="edge">
<title>Node21&#45;&gt;Node22</title>
<path fill="none" stroke="#63b8ff" d="M756.78,-167.59C769.67,-159.59 788.46,-147.93 803.58,-138.54"/>
<polygon fill="#63b8ff" stroke="#63b8ff" points="805.42,-141.53 812.07,-133.28 801.72,-135.58 805.42,-141.53"/>
</g>
<!-- Node21&#45;&gt;Node23 -->
<g id="edge35" class="edge">
<title>Node21&#45;&gt;Node23</title>
<path fill="none" stroke="#63b8ff" d="M766.03,-176.87C797.54,-175.22 851.35,-167.07 876.62,-132 887.36,-117.1 875.44,-98.05 863.22,-84.43"/>
<polygon fill="#63b8ff" stroke="#63b8ff" points="865.91,-82.18 856.43,-77.45 860.89,-87.06 865.91,-82.18"/>
</g>
<!-- Node25 -->
<g id="node25" class="node">
<title>Node25</title>
<g id="a_node25"><a xlink:href="a00281.html" target="_top" xlink:title="Contains definitions for the Path structure.">
<polygon fill="white" stroke="#666666" points="788.12,-132 745.12,-132 745.12,-112 788.12,-112 788.12,-132"/>
<text xml:space="preserve" text-anchor="middle" x="766.62" y="-118.5" font-family="Helvetica,sans-Serif" font-size="10.00">path.h</text>
</a>
</g>
</g>
<!-- Node21&#45;&gt;Node25 -->
<g id="edge36" class="edge">
<title>Node21&#45;&gt;Node25</title>
<path fill="none" stroke="#63b8ff" d="M745.98,-167.59C749.17,-160.7 753.61,-151.1 757.56,-142.57"/>
<polygon fill="#63b8ff" stroke="#63b8ff" points="760.66,-144.22 761.68,-133.67 754.31,-141.28 760.66,-144.22"/>
</g>
<!-- Node27 -->
<g id="node27" class="node">
<title>Node27</title>
<g id="a_node27"><a xlink:title=" ">
<polygon fill="#e0e0e0" stroke="#999999" points="689,-132 648.25,-132 648.25,-112 689,-112 689,-132"/>
<text xml:space="preserve" text-anchor="middle" x="668.62" y="-118.5" font-family="Helvetica,sans-Serif" font-size="10.00">Eigen</text>
</a>
</g>
</g>
<!-- Node21&#45;&gt;Node27 -->
<g id="edge41" class="edge">
<title>Node21&#45;&gt;Node27</title>
<path fill="none" stroke="#63b8ff" d="M728.91,-167.59C718.23,-159.7 702.75,-148.24 690.14,-138.92"/>
<polygon fill="#63b8ff" stroke="#63b8ff" points="692.53,-136.33 682.41,-133.2 688.37,-141.96 692.53,-136.33"/>
</g>
<!-- Node22&#45;&gt;Node4 -->
<g id="edge34" class="edge">
<title>Node22&#45;&gt;Node4</title>
<path fill="none" stroke="#63b8ff" d="M805.68,-114.03C802.97,-113.3 800.25,-112.6 797.62,-112 716.19,-93.25 618.88,-78.51 568.89,-71.49"/>
<polygon fill="#63b8ff" stroke="#63b8ff" points="569.41,-68.03 559.03,-70.12 568.45,-74.96 569.41,-68.03"/>
</g>
<!-- Node22&#45;&gt;Node23 -->
<g id="edge31" class="edge">
<title>Node22&#45;&gt;Node23</title>
<path fill="none" stroke="#63b8ff" d="M831.41,-111.59C833.41,-104.86 836.17,-95.53 838.65,-87.15"/>
<polygon fill="#63b8ff" stroke="#63b8ff" points="841.95,-88.33 841.44,-77.75 835.24,-86.34 841.95,-88.33"/>
</g>
<!-- Node23&#45;&gt;Node5 -->
<g id="edge32" class="edge">
<title>Node23&#45;&gt;Node5</title>
<path fill="none" stroke="#63b8ff" d="M821.62,-59.5C815.47,-58.19 808.82,-56.91 802.62,-56 602.57,-26.63 359.15,-15.28 274.97,-12.05"/>
<polygon fill="#63b8ff" stroke="#63b8ff" points="275.15,-8.56 265.02,-11.68 274.89,-15.55 275.15,-8.56"/>
</g>
<!-- Node24 -->
<g id="node24" class="node">
<title>Node24</title>
<g id="a_node24"><a xlink:title=" ">
<polygon fill="#e0e0e0" stroke="#999999" points="870.25,-20 819,-20 819,0 870.25,0 870.25,-20"/>
<text xml:space="preserve" text-anchor="middle" x="844.62" y="-6.5" font-family="Helvetica,sans-Serif" font-size="10.00">ostream</text>
</a>
</g>
</g>
<!-- Node23&#45;&gt;Node24 -->
<g id="edge33" class="edge">
<title>Node23&#45;&gt;Node24</title>
<path fill="none" stroke="#63b8ff" d="M844.62,-55.59C844.62,-49.01 844.62,-39.96 844.62,-31.73"/>
<polygon fill="#63b8ff" stroke="#63b8ff" points="848.13,-31.81 844.63,-21.81 841.13,-31.81 848.13,-31.81"/>
</g>
<!-- Node25&#45;&gt;Node4 -->
<g id="edge37" class="edge">
<title>Node25&#45;&gt;Node4</title>
<path fill="none" stroke="#63b8ff" d="M744.94,-115.51C740.22,-114.34 735.26,-113.11 730.62,-112 673.83,-98.35 607.54,-83.22 568.72,-74.44"/>
<polygon fill="#63b8ff" stroke="#63b8ff" points="569.59,-71.05 559.06,-72.26 568.05,-77.88 569.59,-71.05"/>
</g>
<!-- Node25&#45;&gt;Node14 -->
<g id="edge38" class="edge">
<title>Node25&#45;&gt;Node14</title>
<path fill="none" stroke="#63b8ff" d="M766.62,-111.59C766.62,-105.01 766.62,-95.96 766.62,-87.73"/>
<polygon fill="#63b8ff" stroke="#63b8ff" points="770.13,-87.81 766.63,-77.81 763.13,-87.81 770.13,-87.81"/>
</g>
<!-- Node26 -->
<g id="node26" class="node">
<title>Node26</title>
<g id="a_node26"><a xlink:href="a00251.html" target="_top" xlink:title="Contains definitions for the HF::SpatialStructures namespace.">
<polygon fill="white" stroke="#666666" points="695.12,-76 628.12,-76 628.12,-56 695.12,-56 695.12,-76"/>
<text xml:space="preserve" text-anchor="middle" x="661.62" y="-62.5" font-family="Helvetica,sans-Serif" font-size="10.00">constants.h</text>
</a>
</g>
</g>
<!-- Node25&#45;&gt;Node26 -->
<g id="edge39" class="edge">
<title>Node25&#45;&gt;Node26</title>
<path fill="none" stroke="#63b8ff" d="M748.34,-111.59C732.32,-103.36 708.79,-91.26 690.28,-81.74"/>
<polygon fill="#63b8ff" stroke="#63b8ff" points="691.9,-78.63 681.4,-77.17 688.7,-84.86 691.9,-78.63"/>
</g>
<!-- Node26&#45;&gt;Node13 -->
<g id="edge40" class="edge">
<title>Node26&#45;&gt;Node13</title>
<path fill="none" stroke="#63b8ff" d="M637.06,-55.59C613.83,-46.7 578.82,-33.29 553.25,-23.49"/>
<polygon fill="#63b8ff" stroke="#63b8ff" points="554.59,-20.26 544,-19.95 552.09,-26.8 554.59,-20.26"/>
</g>
</g>
</svg>
