<?xml version="1.0" encoding="UTF-8" standalone="no"?>
<!DOCTYPE svg PUBLIC "-//W3C//DTD SVG 1.1//EN"
 "http://www.w3.org/Graphics/SVG/1.1/DTD/svg11.dtd">
<!-- Generated by graphviz version 13.1.2 (20250808.2320)
 -->
<!-- Title: HF::SpatialStructures::CostAlgorithms::to_radians Pages: 1 -->
<svg width="508pt" height="90pt"
 viewBox="0.00 0.00 508.00 90.00" xmlns="http://www.w3.org/2000/svg" xmlns:xlink="http://www.w3.org/1999/xlink">
<g id="graph0" class="graph" transform="scale(1 1) rotate(0) translate(4 86)">
<title>HF::SpatialStructures::CostAlgorithms::to_radians</title>
<!-- Node1 -->
<g id="node1" class="node">
<title>Node1</title>
<g id="a_node1"><a xlink:title=" ">
<polygon fill="#999999" stroke="#666666" points="499.5,-69 389,-69 389,-25 499.5,-25 499.5,-69"/>
<text xml:space="preserve" text-anchor="start" x="397" y="-55.5" font-family="Helvetica,sans-Serif" font-size="10.00">HF::SpatialStructures</text>
<text xml:space="preserve" text-anchor="start" x="397" y="-43.5" font-family="Helvetica,sans-Serif" font-size="10.00">::CostAlgorithms::to</text>
<text xml:space="preserve" text-anchor="middle" x="444.25" y="-31.5" font-family="Helvetica,sans-Serif" font-size="10.00">_radians</text>
</a>
</g>
</g>
<!-- Node2 -->
<g id="node2" class="node">
<title>Node2</title>
<g id="a_node2"><a xlink:href="a00475.html#ac51f2e76c00356f8a6145bee865cd922" target="_top" xlink:title=" ">
<polygon fill="white" stroke="#666666" points="353,-69 216.25,-69 216.25,-25 353,-25 353,-69"/>
<text xml:space="preserve" text-anchor="start" x="224.25" y="-55.5" font-family="Helvetica,sans-Serif" font-size="10.00">HF::SpatialStructures</text>
<text xml:space="preserve" text-anchor="start" x="224.25" y="-43.5" font-family="Helvetica,sans-Serif" font-size="10.00">::CostAlgorithms::Calculate</text>
<text xml:space="preserve" text-anchor="middle" x="284.62" y="-31.5" font-family="Helvetica,sans-Serif" font-size="10.00">EnergyExpenditure</text>
</a>
</g>
</g>
<!-- Node1&#45;&gt;Node2 -->
<g id="edge1" class="edge">
<title>Node1&#45;&gt;Node2</title>
<path fill="none" stroke="#63b8ff" d="M377.16,-47C369.26,-47 361.19,-47 353.27,-47"/>
<polygon fill="#63b8ff" stroke="#63b8ff" points="377.05,-50.5 387.05,-47 377.05,-43.5 377.05,-50.5"/>
</g>
<!-- Node3 -->
<g id="node3" class="node">
<title>Node3</title>
<g id="a_node3"><a xlink:href="a00458.html#ga76d98cf2df63a766a74137dfa815d9a9" target="_top" xlink:title="Calculates energy expenditure for all subgraphs in *g and stores them in the graph at AlgorithmCostTi...">
<polygon fill="white" stroke="#666666" points="180.25,-82 0,-82 0,-62 180.25,-62 180.25,-82"/>
<text xml:space="preserve" text-anchor="middle" x="90.12" y="-68.5" font-family="Helvetica,sans-Serif" font-size="10.00">CalculateAndStoreEnergyExpenditure</text>
</a>
</g>
</g>
<!-- Node2&#45;&gt;Node3 -->
<g id="edge2" class="edge">
<title>Node2&#45;&gt;Node3</title>
<path fill="none" stroke="#63b8ff" d="M204.63,-57.26C193.83,-58.66 182.73,-60.1 171.9,-61.51"/>
<polygon fill="#63b8ff" stroke="#63b8ff" points="204.79,-60.77 214.26,-56.01 203.89,-53.83 204.79,-60.77"/>
</g>
<!-- Node4 -->
<g id="node4" class="node">
<title>Node4</title>
<g id="a_node4"><a xlink:href="a00475.html#adbe5e58355a884494d6e99bf17fc5f7b" target="_top" xlink:title=" ">
<polygon fill="white" stroke="#666666" points="158.5,-44 21.75,-44 21.75,0 158.5,0 158.5,-44"/>
<text xml:space="preserve" text-anchor="start" x="29.75" y="-30.5" font-family="Helvetica,sans-Serif" font-size="10.00">HF::SpatialStructures</text>
<text xml:space="preserve" text-anchor="start" x="29.75" y="-18.5" font-family="Helvetica,sans-Serif" font-size="10.00">::CostAlgorithms::Calculate</text>
<text xml:space="preserve" text-anchor="middle" x="90.12" y="-6.5" font-family="Helvetica,sans-Serif" font-size="10.00">EnergyExpenditure</text>
</a>
</g>
</g>
<!-- Node2&#45;&gt;Node4 -->
<g id="edge3" class="edge">
<title>Node2&#45;&gt;Node4</title>
<path fill="none" stroke="#63b8ff" d="M204.76,-36.76C189.47,-34.77 173.59,-32.71 158.7,-30.78"/>
<polygon fill="#63b8ff" stroke="#63b8ff" points="203.89,-40.17 214.26,-37.99 204.79,-33.23 203.89,-40.17"/>
</g>
</g>
</svg>
