<?xml version="1.0" encoding="UTF-8" standalone="no"?>
<!DOCTYPE svg PUBLIC "-//W3C//DTD SVG 1.1//EN"
 "http://www.w3.org/Graphics/SVG/1.1/DTD/svg11.dtd">
<!-- Generated by graphviz version 13.1.2 (20250808.2320)
 -->
<!-- Title: CreateAllPredToPath Pages: 1 -->
<svg width="484pt" height="109pt"
 viewBox="0.00 0.00 484.00 109.00" xmlns="http://www.w3.org/2000/svg" xmlns:xlink="http://www.w3.org/1999/xlink">
<g id="graph0" class="graph" transform="scale(1 1) rotate(0) translate(4 105)">
<title>CreateAllPredToPath</title>
<!-- Node1 -->
<g id="node1" class="node">
<title>Node1</title>
<g id="a_node1"><a xlink:title=" ">
<polygon fill="#999999" stroke="#666666" points="107.5,-73 0,-73 0,-53 107.5,-53 107.5,-73"/>
<text xml:space="preserve" text-anchor="middle" x="53.75" y="-59.5" font-family="Helvetica,sans-Serif" font-size="10.00">CreateAllPredToPath</text>
</a>
</g>
</g>
<!-- Node2 -->
<g id="node2" class="node">
<title>Node2</title>
<g id="a_node2"><a xlink:href="a00472.html#ae2106e09eb44d681fbc6c0f66a3d3ac4" target="_top" xlink:title="Create a new boost graph from a HF::SpatialStructures:Graph.">
<polygon fill="white" stroke="#666666" points="288.5,-101 143.5,-101 143.5,-69 288.5,-69 288.5,-101"/>
<text xml:space="preserve" text-anchor="start" x="151.5" y="-87.5" font-family="Helvetica,sans-Serif" font-size="10.00">HF::Pathfinding::CreateBoost</text>
<text xml:space="preserve" text-anchor="middle" x="216" y="-75.5" font-family="Helvetica,sans-Serif" font-size="10.00">Graph</text>
</a>
</g>
</g>
<!-- Node1&#45;&gt;Node2 -->
<g id="edge1" class="edge">
<title>Node1&#45;&gt;Node2</title>
<path fill="none" stroke="#63b8ff" d="M107.67,-70.26C115.5,-71.34 123.73,-72.47 132,-73.61"/>
<polygon fill="#63b8ff" stroke="#63b8ff" points="131.38,-77.05 141.77,-74.95 132.34,-70.12 131.38,-77.05"/>
</g>
<!-- Node3 -->
<g id="node3" class="node">
<title>Node3</title>
<g id="a_node3"><a xlink:href="a00472.html#a6d24adcb1c0891a98e7d9a8d36f8cc01" target="_top" xlink:title=" ">
<polygon fill="white" stroke="#666666" points="284,-51 148,-51 148,-31 284,-31 284,-51"/>
<text xml:space="preserve" text-anchor="middle" x="216" y="-37.5" font-family="Helvetica,sans-Serif" font-size="10.00">HF::Pathfinding::FindAPSP</text>
</a>
</g>
</g>
<!-- Node1&#45;&gt;Node3 -->
<g id="edge2" class="edge">
<title>Node1&#45;&gt;Node3</title>
<path fill="none" stroke="#63b8ff" d="M107.67,-55.74C116.84,-54.48 126.55,-53.14 136.24,-51.81"/>
<polygon fill="#63b8ff" stroke="#63b8ff" points="136.64,-55.29 146.07,-50.46 135.68,-48.36 136.64,-55.29"/>
</g>
<!-- Node4 -->
<g id="node4" class="node">
<title>Node4</title>
<g id="a_node4"><a xlink:href="a00472.html#a9f6490539108da057db2486295458886" target="_top" xlink:title="Build a row of the distance and predecessor matrices for the node at id.">
<polygon fill="white" stroke="#666666" points="475.5,-82 324.5,-82 324.5,-50 475.5,-50 475.5,-82"/>
<text xml:space="preserve" text-anchor="start" x="332.5" y="-68.5" font-family="Helvetica,sans-Serif" font-size="10.00">HF::Pathfinding::BuildDistance</text>
<text xml:space="preserve" text-anchor="middle" x="400" y="-56.5" font-family="Helvetica,sans-Serif" font-size="10.00">AndPredecessor</text>
</a>
</g>
</g>
<!-- Node3&#45;&gt;Node4 -->
<g id="edge3" class="edge">
<title>Node3&#45;&gt;Node4</title>
<path fill="none" stroke="#63b8ff" d="M284.25,-50.24C293.57,-51.52 303.24,-52.85 312.84,-54.17"/>
<polygon fill="#63b8ff" stroke="#63b8ff" points="312.17,-57.61 322.55,-55.5 313.12,-50.67 312.17,-57.61"/>
</g>
<!-- Node5 -->
<g id="node5" class="node">
<title>Node5</title>
<g id="a_node5"><a xlink:href="a00472.html#a3d6e0ea77f750fa05bbf4339584cc15a" target="_top" xlink:title="Construct the shortest path of node ids given predecessor and distance vectors.">
<polygon fill="white" stroke="#666666" points="472.12,-32 327.88,-32 327.88,0 472.12,0 472.12,-32"/>
<text xml:space="preserve" text-anchor="start" x="335.88" y="-18.5" font-family="Helvetica,sans-Serif" font-size="10.00">HF::Pathfinding::Construct</text>
<text xml:space="preserve" text-anchor="middle" x="400" y="-6.5" font-family="Helvetica,sans-Serif" font-size="10.00">ShortestPathNodesFromPred</text>
</a>
</g>
</g>
<!-- Node3&#45;&gt;Node5 -->
<g id="edge4" class="edge">
<title>Node3&#45;&gt;Node5</title>
<path fill="none" stroke="#63b8ff" d="M284.25,-31.76C294.7,-30.33 305.59,-28.83 316.33,-27.36"/>
<polygon fill="#63b8ff" stroke="#63b8ff" points="316.51,-30.86 325.94,-26.04 315.56,-23.93 316.51,-30.86"/>
</g>
</g>
</svg>
