<?xml version="1.0" encoding="UTF-8" standalone="no"?>
<!DOCTYPE svg PUBLIC "-//W3C//DTD SVG 1.1//EN"
 "http://www.w3.org/Graphics/SVG/1.1/DTD/svg11.dtd">
<!-- Generated by graphviz version 13.1.2 (20250808.2320)
 -->
<!-- Title: HF::Pathfinding::InsertPathsIntoArray Pages: 1 -->
<svg width="482pt" height="181pt"
 viewBox="0.00 0.00 482.00 181.00" xmlns="http://www.w3.org/2000/svg" xmlns:xlink="http://www.w3.org/1999/xlink">
<g id="graph0" class="graph" transform="scale(1 1) rotate(0) translate(4 177)">
<title>HF::Pathfinding::InsertPathsIntoArray</title>
<!-- Node1 -->
<g id="node1" class="node">
<title>Node1</title>
<g id="a_node1"><a xlink:title="A special version of FindPaths optimized for the C_Interface.">
<polygon fill="#999999" stroke="#666666" points="140.5,-98 0,-98 0,-66 140.5,-66 140.5,-98"/>
<text xml:space="preserve" text-anchor="start" x="8" y="-84.5" font-family="Helvetica,sans-Serif" font-size="10.00">HF::Pathfinding::InsertPaths</text>
<text xml:space="preserve" text-anchor="middle" x="70.25" y="-72.5" font-family="Helvetica,sans-Serif" font-size="10.00">IntoArray</text>
</a>
</g>
</g>
<!-- Node2 -->
<g id="node2" class="node">
<title>Node2</title>
<g id="a_node2"><a xlink:href="a00472.html#a9f6490539108da057db2486295458886" target="_top" xlink:title="Build a row of the distance and predecessor matrices for the node at id.">
<polygon fill="white" stroke="#666666" points="327.5,-170 176.5,-170 176.5,-138 327.5,-138 327.5,-170"/>
<text xml:space="preserve" text-anchor="start" x="184.5" y="-156.5" font-family="Helvetica,sans-Serif" font-size="10.00">HF::Pathfinding::BuildDistance</text>
<text xml:space="preserve" text-anchor="middle" x="252" y="-144.5" font-family="Helvetica,sans-Serif" font-size="10.00">AndPredecessor</text>
</a>
</g>
</g>
<!-- Node1&#45;&gt;Node2 -->
<g id="edge1" class="edge">
<title>Node1&#45;&gt;Node2</title>
<path fill="none" stroke="#63b8ff" d="M105.5,-98.3C125.91,-107.76 152.45,-119.62 176.5,-129 180.6,-130.6 184.85,-132.19 189.15,-133.76"/>
<polygon fill="#63b8ff" stroke="#63b8ff" points="187.85,-137.01 198.44,-137.06 190.19,-130.41 187.85,-137.01"/>
</g>
<!-- Node3 -->
<g id="node3" class="node">
<title>Node3</title>
<g id="a_node3"><a xlink:href="a00472.html#a977e4c93a977ab4e9e784d1e6fec79f4" target="_top" xlink:title="Construct the shortest path from start to end using the given predecessor and distance vectors.">
<polygon fill="white" stroke="#666666" points="318.5,-120 185.5,-120 185.5,-88 318.5,-88 318.5,-120"/>
<text xml:space="preserve" text-anchor="start" x="193.5" y="-106.5" font-family="Helvetica,sans-Serif" font-size="10.00">HF::Pathfinding::Construct</text>
<text xml:space="preserve" text-anchor="middle" x="252" y="-94.5" font-family="Helvetica,sans-Serif" font-size="10.00">ShortestPathFromPred</text>
</a>
</g>
</g>
<!-- Node1&#45;&gt;Node3 -->
<g id="edge2" class="edge">
<title>Node1&#45;&gt;Node3</title>
<path fill="none" stroke="#63b8ff" d="M140.75,-90.51C151.6,-91.83 162.87,-93.21 173.88,-94.56"/>
<polygon fill="#63b8ff" stroke="#63b8ff" points="173.37,-98.03 183.73,-95.77 174.22,-91.08 173.37,-98.03"/>
</g>
<!-- Node6 -->
<g id="node6" class="node">
<title>Node6</title>
<g id="a_node6"><a xlink:href="a02083.html#a28f61f0f57b38a5249a11a725d9d692b" target="_top" xlink:title="Determine how many nodes are in this path.">
<polygon fill="white" stroke="#666666" points="474,-73 363.5,-73 363.5,-41 474,-41 474,-73"/>
<text xml:space="preserve" text-anchor="start" x="371.5" y="-59.5" font-family="Helvetica,sans-Serif" font-size="10.00">HF::SpatialStructures</text>
<text xml:space="preserve" text-anchor="middle" x="418.75" y="-47.5" font-family="Helvetica,sans-Serif" font-size="10.00">::Path::size</text>
</a>
</g>
</g>
<!-- Node1&#45;&gt;Node6 -->
<g id="edge7" class="edge">
<title>Node1&#45;&gt;Node6</title>
<path fill="none" stroke="#63b8ff" d="M140.95,-76.97C202.5,-72.53 291.58,-66.1 351.93,-61.75"/>
<polygon fill="#63b8ff" stroke="#63b8ff" points="352,-65.25 361.72,-61.04 351.49,-58.27 352,-65.25"/>
</g>
<!-- Node7 -->
<g id="node7" class="node">
<title>Node7</title>
<g id="a_node7"><a xlink:href="a02083.html#a942cb49007bbeb5588e2d526c68bdcf9" target="_top" xlink:title="Get a pointer to the path&#39;s underlying path members vector.">
<polygon fill="white" stroke="#666666" points="307.25,-32 196.75,-32 196.75,0 307.25,0 307.25,-32"/>
<text xml:space="preserve" text-anchor="start" x="204.75" y="-18.5" font-family="Helvetica,sans-Serif" font-size="10.00">HF::SpatialStructures</text>
<text xml:space="preserve" text-anchor="middle" x="252" y="-6.5" font-family="Helvetica,sans-Serif" font-size="10.00">::Path::GetPMPointer</text>
</a>
</g>
</g>
<!-- Node1&#45;&gt;Node7 -->
<g id="edge6" class="edge">
<title>Node1&#45;&gt;Node7</title>
<path fill="none" stroke="#63b8ff" d="M116.14,-65.52C140.26,-56.66 170.19,-45.67 195.72,-36.3"/>
<polygon fill="#63b8ff" stroke="#63b8ff" points="196.76,-39.64 204.95,-32.91 194.35,-33.07 196.76,-39.64"/>
</g>
<!-- Node4 -->
<g id="node4" class="node">
<title>Node4</title>
<g id="a_node4"><a xlink:href="a02083.html#a55ded4e02787eb739770ebe28ef386a9" target="_top" xlink:title="Add a new node to the path.">
<polygon fill="white" stroke="#666666" points="474,-173 363.5,-173 363.5,-141 474,-141 474,-173"/>
<text xml:space="preserve" text-anchor="start" x="371.5" y="-159.5" font-family="Helvetica,sans-Serif" font-size="10.00">HF::SpatialStructures</text>
<text xml:space="preserve" text-anchor="middle" x="418.75" y="-147.5" font-family="Helvetica,sans-Serif" font-size="10.00">::Path::AddNode</text>
</a>
</g>
</g>
<!-- Node3&#45;&gt;Node4 -->
<g id="edge3" class="edge">
<title>Node3&#45;&gt;Node4</title>
<path fill="none" stroke="#63b8ff" d="M304.22,-120.48C320.5,-125.71 338.67,-131.56 355.62,-137.01"/>
<polygon fill="#63b8ff" stroke="#63b8ff" points="354.52,-140.34 365.12,-140.07 356.67,-133.67 354.52,-140.34"/>
</g>
<!-- Node5 -->
<g id="node5" class="node">
<title>Node5</title>
<g id="a_node5"><a xlink:href="a02083.html#adf2bad9ac73dbdc436c365654d54ad98" target="_top" xlink:title="Reverse the direction of this path.">
<polygon fill="white" stroke="#666666" points="474,-123 363.5,-123 363.5,-91 474,-91 474,-123"/>
<text xml:space="preserve" text-anchor="start" x="371.5" y="-109.5" font-family="Helvetica,sans-Serif" font-size="10.00">HF::SpatialStructures</text>
<text xml:space="preserve" text-anchor="middle" x="418.75" y="-97.5" font-family="Helvetica,sans-Serif" font-size="10.00">::Path::Reverse</text>
</a>
</g>
</g>
<!-- Node3&#45;&gt;Node5 -->
<g id="edge4" class="edge">
<title>Node3&#45;&gt;Node5</title>
<path fill="none" stroke="#63b8ff" d="M318.59,-105.19C329.58,-105.39 340.98,-105.6 351.97,-105.8"/>
<polygon fill="#63b8ff" stroke="#63b8ff" points="351.67,-109.3 361.73,-105.98 351.8,-102.3 351.67,-109.3"/>
</g>
<!-- Node3&#45;&gt;Node6 -->
<g id="edge5" class="edge">
<title>Node3&#45;&gt;Node6</title>
<path fill="none" stroke="#63b8ff" d="M310.62,-87.56C324.09,-83.72 338.54,-79.6 352.32,-75.66"/>
<polygon fill="#63b8ff" stroke="#63b8ff" points="353.09,-79.08 361.75,-72.98 351.17,-72.35 353.09,-79.08"/>
</g>
</g>
</svg>
