<?xml version="1.0" encoding="UTF-8" standalone="no"?>
<!DOCTYPE svg PUBLIC "-//W3C//DTD SVG 1.1//EN"
 "http://www.w3.org/Graphics/SVG/1.1/DTD/svg11.dtd">
<!-- Generated by graphviz version 13.1.2 (20250808.2320)
 -->
<!-- Title: AddMesh Pages: 1 -->
<svg width="609pt" height="170pt"
 viewBox="0.00 0.00 609.00 170.00" xmlns="http://www.w3.org/2000/svg" xmlns:xlink="http://www.w3.org/1999/xlink">
<g id="graph0" class="graph" transform="scale(1 1) rotate(0) translate(4 166)">
<title>AddMesh</title>
<!-- Node1 -->
<g id="node1" class="node">
<title>Node1</title>
<g id="a_node1"><a xlink:title="Add a new mesh to a raytracer.">
<polygon fill="#999999" stroke="#666666" points="57.25,-76 0,-76 0,-56 57.25,-56 57.25,-76"/>
<text xml:space="preserve" text-anchor="middle" x="28.62" y="-62.5" font-family="Helvetica,sans-Serif" font-size="10.00">AddMesh</text>
</a>
</g>
</g>
<!-- Node2 -->
<g id="node2" class="node">
<title>Node2</title>
<g id="a_node2"><a xlink:href="a01411.html#a6425a0f8f4a3ef8073e734ceb745cd1e" target="_top" xlink:title="Add a new mesh to this raytracer&#39;s BVH with the specified ID.">
<polygon fill="white" stroke="#666666" points="232.25,-82 93.25,-82 93.25,-50 232.25,-50 232.25,-82"/>
<text xml:space="preserve" text-anchor="start" x="101.25" y="-68.5" font-family="Helvetica,sans-Serif" font-size="10.00">HF::RayTracer::EmbreeRay</text>
<text xml:space="preserve" text-anchor="middle" x="162.75" y="-56.5" font-family="Helvetica,sans-Serif" font-size="10.00">Tracer::AddMesh</text>
</a>
</g>
</g>
<!-- Node1&#45;&gt;Node2 -->
<g id="edge1" class="edge">
<title>Node1&#45;&gt;Node2</title>
<path fill="none" stroke="#63b8ff" d="M57.65,-66C64.91,-66 73.11,-66 81.64,-66"/>
<polygon fill="#63b8ff" stroke="#63b8ff" points="81.48,-69.5 91.48,-66 81.48,-62.5 81.48,-69.5"/>
</g>
<!-- Node3 -->
<g id="node3" class="node">
<title>Node3</title>
<g id="a_node3"><a xlink:href="a01411.html#aa602f6c44fa5230477642942ebc3216e" target="_top" xlink:title="Create a new instance of RTCGeometry from a triangle and vertex buffer.">
<polygon fill="white" stroke="#666666" points="426,-162 268.25,-162 268.25,-118 426,-118 426,-162"/>
<text xml:space="preserve" text-anchor="start" x="276.25" y="-148.5" font-family="Helvetica,sans-Serif" font-size="10.00">HF::RayTracer::EmbreeRay</text>
<text xml:space="preserve" text-anchor="start" x="276.25" y="-136.5" font-family="Helvetica,sans-Serif" font-size="10.00">Tracer::ConstructGeometryFrom</text>
<text xml:space="preserve" text-anchor="middle" x="347.12" y="-124.5" font-family="Helvetica,sans-Serif" font-size="10.00">Buffers</text>
</a>
</g>
</g>
<!-- Node2&#45;&gt;Node3 -->
<g id="edge2" class="edge">
<title>Node2&#45;&gt;Node3</title>
<path fill="none" stroke="#63b8ff" d="M203.4,-82.44C222.91,-90.5 246.79,-100.31 268.25,-109 271.8,-110.44 275.44,-111.9 279.11,-113.38"/>
<polygon fill="#63b8ff" stroke="#63b8ff" points="277.54,-116.52 288.12,-116.99 280.14,-110.02 277.54,-116.52"/>
</g>
<!-- Node4 -->
<g id="node4" class="node">
<title>Node4</title>
<g id="a_node4"><a xlink:href="a01411.html#a6ee1e15bc515878b156bc6a3778f8033" target="_top" xlink:title="Attach geometry to the current scene.">
<polygon fill="white" stroke="#666666" points="416.62,-82 277.62,-82 277.62,-50 416.62,-50 416.62,-82"/>
<text xml:space="preserve" text-anchor="start" x="285.62" y="-68.5" font-family="Helvetica,sans-Serif" font-size="10.00">HF::RayTracer::EmbreeRay</text>
<text xml:space="preserve" text-anchor="middle" x="347.12" y="-56.5" font-family="Helvetica,sans-Serif" font-size="10.00">Tracer::InsertGeom</text>
</a>
</g>
</g>
<!-- Node2&#45;&gt;Node4 -->
<g id="edge3" class="edge">
<title>Node2&#45;&gt;Node4</title>
<path fill="none" stroke="#63b8ff" d="M232.7,-66C243.55,-66 254.86,-66 265.94,-66"/>
<polygon fill="#63b8ff" stroke="#63b8ff" points="265.87,-69.5 275.87,-66 265.87,-62.5 265.87,-69.5"/>
</g>
<!-- Node6 -->
<g id="node6" class="node">
<title>Node6</title>
<g id="a_node6"><a xlink:href="a00464.html#a732eb910d06064bea04e6a959fd235f0" target="_top" xlink:title="Index a list of verticies and place them into a triangle and vertex buffer.">
<polygon fill="white" stroke="#666666" points="412.12,-32 282.12,-32 282.12,0 412.12,0 412.12,-32"/>
<text xml:space="preserve" text-anchor="start" x="290.12" y="-18.5" font-family="Helvetica,sans-Serif" font-size="10.00">HF::RayTracer::vectorsTo</text>
<text xml:space="preserve" text-anchor="middle" x="347.12" y="-6.5" font-family="Helvetica,sans-Serif" font-size="10.00">Buffers</text>
</a>
</g>
</g>
<!-- Node2&#45;&gt;Node6 -->
<g id="edge6" class="edge">
<title>Node2&#45;&gt;Node6</title>
<path fill="none" stroke="#63b8ff" d="M223.72,-49.56C240.16,-45.05 258.13,-40.12 275.12,-35.47"/>
<polygon fill="#63b8ff" stroke="#63b8ff" points="275.94,-38.87 284.66,-32.85 274.09,-32.12 275.94,-38.87"/>
</g>
<!-- Node4&#45;&gt;Node4 -->
<g id="edge5" class="edge">
<title>Node4&#45;&gt;Node4</title>
<path fill="none" stroke="#63b8ff" d="M314.21,-82.44C308.06,-91.58 319.04,-100 347.12,-100 362.49,-100 372.73,-97.48 377.85,-93.71"/>
<polygon fill="#63b8ff" stroke="#63b8ff" points="381.28,-94.41 379.75,-83.93 374.41,-93.08 381.28,-94.41"/>
</g>
<!-- Node5 -->
<g id="node5" class="node">
<title>Node5</title>
<g id="a_node5"><a xlink:href="a00464.html#a19e11d13f73136d6819b8abee57b0fd9" target="_top" xlink:title="Check an embree device for errors.">
<polygon fill="white" stroke="#666666" points="601,-76 462,-76 462,-56 601,-56 601,-76"/>
<text xml:space="preserve" text-anchor="middle" x="531.5" y="-62.5" font-family="Helvetica,sans-Serif" font-size="10.00">HF::RayTracer::CheckState</text>
</a>
</g>
</g>
<!-- Node4&#45;&gt;Node5 -->
<g id="edge4" class="edge">
<title>Node4&#45;&gt;Node5</title>
<path fill="none" stroke="#63b8ff" d="M417.07,-66C427.93,-66 439.23,-66 450.31,-66"/>
<polygon fill="#63b8ff" stroke="#63b8ff" points="450.24,-69.5 460.24,-66 450.24,-62.5 450.24,-69.5"/>
</g>
</g>
</svg>
