<?xml version="1.0" encoding="UTF-8" standalone="no"?>
<!DOCTYPE svg PUBLIC "-//W3C//DTD SVG 1.1//EN"
 "http://www.w3.org/Graphics/SVG/1.1/DTD/svg11.dtd">
<!-- Generated by graphviz version 13.1.2 (20250808.2320)
 -->
<!-- Title: HF::nanoGeom::nanoRT_BVH Pages: 1 -->
<svg width="498pt" height="28pt"
 viewBox="0.00 0.00 498.00 28.00" xmlns="http://www.w3.org/2000/svg" xmlns:xlink="http://www.w3.org/1999/xlink">
<g id="graph0" class="graph" transform="scale(1 1) rotate(0) translate(4 24)">
<title>HF::nanoGeom::nanoRT_BVH</title>
<!-- Node1 -->
<g id="node1" class="node">
<title>Node1</title>
<g id="a_node1"><a xlink:title=" ">
<polygon fill="#999999" stroke="#666666" points="148.75,-20 0,-20 0,0 148.75,0 148.75,-20"/>
<text xml:space="preserve" text-anchor="middle" x="74.38" y="-6.5" font-family="Helvetica,sans-Serif" font-size="10.00">HF::nanoGeom::nanoRT_BVH</text>
</a>
</g>
</g>
<!-- Node2 -->
<g id="node2" class="node">
<title>Node2</title>
<g id="a_node2"><a xlink:href="a01483.html#a96521982d08e0ccd728798410dabeed5" target="_top" xlink:title="Build BVH for input primitives.">
<polygon fill="white" stroke="#666666" points="307.25,-20 184.75,-20 184.75,0 307.25,0 307.25,-20"/>
<text xml:space="preserve" text-anchor="middle" x="246" y="-6.5" font-family="Helvetica,sans-Serif" font-size="10.00">nanort::BVHAccel::Build</text>
</a>
</g>
</g>
<!-- Node1&#45;&gt;Node2 -->
<g id="edge1" class="edge">
<title>Node1&#45;&gt;Node2</title>
<path fill="none" stroke="#63b8ff" d="M148.79,-10C156.88,-10 165.12,-10 173.19,-10"/>
<polygon fill="#63b8ff" stroke="#63b8ff" points="172.95,-13.5 182.95,-10 172.95,-6.5 172.95,-13.5"/>
</g>
<!-- Node3 -->
<g id="node3" class="node">
<title>Node3</title>
<g id="a_node3"><a xlink:href="a00474.html#a06549eb8469b9a2004cc5332ca0d011e" target="_top" xlink:title=" ">
<polygon fill="white" stroke="#666666" points="489.75,-20 343.25,-20 343.25,0 489.75,0 489.75,-20"/>
<text xml:space="preserve" text-anchor="middle" x="416.5" y="-6.5" font-family="Helvetica,sans-Serif" font-size="10.00">nanort::ComputeBoundingBox</text>
</a>
</g>
</g>
<!-- Node2&#45;&gt;Node3 -->
<g id="edge2" class="edge">
<title>Node2&#45;&gt;Node3</title>
<path fill="none" stroke="#63b8ff" d="M307.36,-10C315.19,-10 323.32,-10 331.45,-10"/>
<polygon fill="#63b8ff" stroke="#63b8ff" points="331.39,-13.5 341.39,-10 331.39,-6.5 331.39,-13.5"/>
</g>
</g>
</svg>
