<?xml version="1.0" encoding="UTF-8" standalone="no"?>
<!DOCTYPE svg PUBLIC "-//W3C//DTD SVG 1.1//EN"
 "http://www.w3.org/Graphics/SVG/1.1/DTD/svg11.dtd">
<!-- Generated by graphviz version 13.1.2 (20250808.2320)
 -->
<!-- Title: HF::ViewAnalysis::AltitudeWithinRange Pages: 1 -->
<svg width="943pt" height="128pt"
 viewBox="0.00 0.00 943.00 128.00" xmlns="http://www.w3.org/2000/svg" xmlns:xlink="http://www.w3.org/1999/xlink">
<g id="graph0" class="graph" transform="scale(1 1) rotate(0) translate(4 124)">
<title>HF::ViewAnalysis::AltitudeWithinRange</title>
<!-- Node1 -->
<g id="node1" class="node">
<title>Node1</title>
<g id="a_node1"><a xlink:title=" ">
<polygon fill="#999999" stroke="#666666" points="935,-82 801.25,-82 801.25,-50 935,-50 935,-82"/>
<text xml:space="preserve" text-anchor="start" x="809.25" y="-68.5" font-family="Helvetica,sans-Serif" font-size="10.00">HF::ViewAnalysis::Altitude</text>
<text xml:space="preserve" text-anchor="middle" x="868.12" y="-56.5" font-family="Helvetica,sans-Serif" font-size="10.00">WithinRange</text>
</a>
</g>
</g>
<!-- Node2 -->
<g id="node2" class="node">
<title>Node2</title>
<g id="a_node2"><a xlink:href="a00466.html#a5b45790c767b670bc00bf3fd2335159a" target="_top" xlink:title=" ">
<polygon fill="white" stroke="#666666" points="765.25,-76 599.25,-76 599.25,-56 765.25,-56 765.25,-76"/>
<text xml:space="preserve" text-anchor="middle" x="682.25" y="-62.5" font-family="Helvetica,sans-Serif" font-size="10.00">HF::ViewAnalysis::FibbonacciDist</text>
</a>
</g>
</g>
<!-- Node1&#45;&gt;Node2 -->
<g id="edge1" class="edge">
<title>Node1&#45;&gt;Node2</title>
<path fill="none" stroke="#63b8ff" d="M789.49,-66C781.54,-66 773.44,-66 765.45,-66"/>
<polygon fill="#63b8ff" stroke="#63b8ff" points="789.49,-69.5 799.49,-66 789.49,-62.5 789.49,-69.5"/>
</g>
<!-- Node3 -->
<g id="node3" class="node">
<title>Node3</title>
<g id="a_node3"><a xlink:href="a00459.html#ga6ca336e3887ef82d17b0713c2bf862df" target="_top" xlink:title="Evenly distribute a set of points around a sphere centered at the origin.">
<polygon fill="white" stroke="#666666" points="563.25,-82 415.25,-82 415.25,-50 563.25,-50 563.25,-82"/>
<text xml:space="preserve" text-anchor="start" x="423.25" y="-68.5" font-family="Helvetica,sans-Serif" font-size="10.00">HF::ViewAnalysis::Fibbonacci</text>
<text xml:space="preserve" text-anchor="middle" x="489.25" y="-56.5" font-family="Helvetica,sans-Serif" font-size="10.00">DistributePoints</text>
</a>
</g>
</g>
<!-- Node2&#45;&gt;Node3 -->
<g id="edge2" class="edge">
<title>Node2&#45;&gt;Node3</title>
<path fill="none" stroke="#63b8ff" d="M587.55,-66C579.52,-66 571.48,-66 563.65,-66"/>
<polygon fill="#63b8ff" stroke="#63b8ff" points="587.35,-69.5 597.35,-66 587.35,-62.5 587.35,-69.5"/>
</g>
<!-- Node4 -->
<g id="node4" class="node">
<title>Node4</title>
<g id="a_node4"><a xlink:href="a00459.html#gaf572b7bec28d55bf2c72719742703dff" target="_top" xlink:title="Equally distribute points around a unit sphere.">
<polygon fill="white" stroke="#666666" points="347.75,-120 249.25,-120 249.25,-100 347.75,-100 347.75,-120"/>
<text xml:space="preserve" text-anchor="middle" x="298.5" y="-106.5" font-family="Helvetica,sans-Serif" font-size="10.00">SphericalDistribute</text>
</a>
</g>
</g>
<!-- Node3&#45;&gt;Node4 -->
<g id="edge3" class="edge">
<title>Node3&#45;&gt;Node4</title>
<path fill="none" stroke="#63b8ff" d="M406.66,-85.02C385.35,-89.99 363.15,-95.16 344.53,-99.5"/>
<polygon fill="#63b8ff" stroke="#63b8ff" points="407.28,-88.47 416.22,-82.79 405.69,-81.65 407.28,-88.47"/>
</g>
<!-- Node5 -->
<g id="node5" class="node">
<title>Node5</title>
<g id="a_node5"><a xlink:href="a00459.html#ga78f77d24531d0fa55c9b60d7ec1bf32a" target="_top" xlink:title="Conduct view analysis and recieve a summarized set of results for each node.">
<polygon fill="white" stroke="#666666" points="379.25,-82 217.75,-82 217.75,-50 379.25,-50 379.25,-82"/>
<text xml:space="preserve" text-anchor="start" x="225.75" y="-68.5" font-family="Helvetica,sans-Serif" font-size="10.00">HF::ViewAnalysis::Spherical</text>
<text xml:space="preserve" text-anchor="middle" x="298.5" y="-56.5" font-family="Helvetica,sans-Serif" font-size="10.00">RayshootWithAnyRTForDistance</text>
</a>
</g>
</g>
<!-- Node3&#45;&gt;Node5 -->
<g id="edge4" class="edge">
<title>Node3&#45;&gt;Node5</title>
<path fill="none" stroke="#63b8ff" d="M403.74,-66C395.71,-66 387.58,-66 379.59,-66"/>
<polygon fill="#63b8ff" stroke="#63b8ff" points="403.49,-69.5 413.49,-66 403.49,-62.5 403.49,-69.5"/>
</g>
<!-- Node8 -->
<g id="node8" class="node">
<title>Node8</title>
<g id="a_node8"><a xlink:href="a00459.html#gaecaa04882696ac6d73173227bd28e91b" target="_top" xlink:title="Conduct view analysis with any Raytracer in parallel.">
<polygon fill="white" stroke="#666666" points="369.12,-32 227.88,-32 227.88,0 369.12,0 369.12,-32"/>
<text xml:space="preserve" text-anchor="start" x="235.88" y="-18.5" font-family="Helvetica,sans-Serif" font-size="10.00">HF::ViewAnalysis::Spherical</text>
<text xml:space="preserve" text-anchor="middle" x="298.5" y="-6.5" font-family="Helvetica,sans-Serif" font-size="10.00">ViewAnalysis</text>
</a>
</g>
</g>
<!-- Node3&#45;&gt;Node8 -->
<g id="edge7" class="edge">
<title>Node3&#45;&gt;Node8</title>
<path fill="none" stroke="#63b8ff" d="M415.06,-46.61C397.4,-41.93 378.7,-36.98 361.6,-32.45"/>
<polygon fill="#63b8ff" stroke="#63b8ff" points="414.16,-49.99 424.72,-49.17 415.95,-43.23 414.16,-49.99"/>
</g>
<!-- Node6 -->
<g id="node6" class="node">
<title>Node6</title>
<g id="a_node6"><a xlink:href="a00459.html#gab6b8e3eab649b42ac014fb7d02d54892" target="_top" xlink:title="Conduct view analysis, then aggregate the results.">
<polygon fill="white" stroke="#666666" points="173.5,-95 8.25,-95 8.25,-75 173.5,-75 173.5,-95"/>
<text xml:space="preserve" text-anchor="middle" x="90.88" y="-81.5" font-family="Helvetica,sans-Serif" font-size="10.00">SphereicalViewAnalysisAggregate</text>
</a>
</g>
</g>
<!-- Node5&#45;&gt;Node6 -->
<g id="edge5" class="edge">
<title>Node5&#45;&gt;Node6</title>
<path fill="none" stroke="#63b8ff" d="M206.23,-74.43C195.42,-75.43 184.44,-76.45 173.78,-77.43"/>
<polygon fill="#63b8ff" stroke="#63b8ff" points="206.27,-77.94 215.9,-73.54 205.62,-70.97 206.27,-77.94"/>
</g>
<!-- Node7 -->
<g id="node7" class="node">
<title>Node7</title>
<g id="a_node7"><a xlink:href="a00459.html#gaa4c5714c1e557ef83a03d447eb30c6d0" target="_top" xlink:title="Conduct view analysis, and aggregate the results.">
<polygon fill="white" stroke="#666666" points="181.75,-57 0,-57 0,-37 181.75,-37 181.75,-57"/>
<text xml:space="preserve" text-anchor="middle" x="90.88" y="-43.5" font-family="Helvetica,sans-Serif" font-size="10.00">SphereicalViewAnalysisAggregateFlat</text>
</a>
</g>
</g>
<!-- Node5&#45;&gt;Node7 -->
<g id="edge6" class="edge">
<title>Node5&#45;&gt;Node7</title>
<path fill="none" stroke="#63b8ff" d="M206.15,-57.56C198.12,-56.82 190,-56.07 181.98,-55.33"/>
<polygon fill="#63b8ff" stroke="#63b8ff" points="205.62,-61.03 215.9,-58.46 206.27,-54.06 205.62,-61.03"/>
</g>
</g>
</svg>
