<?xml version="1.0" encoding="UTF-8" standalone="no"?>
<!DOCTYPE svg PUBLIC "-//W3C//DTD SVG 1.1//EN"
 "http://www.w3.org/Graphics/SVG/1.1/DTD/svg11.dtd">
<!-- Generated by graphviz version 13.1.2 (20250808.2320)
 -->
<!-- Title: AddMeshes Pages: 1 -->
<svg width="620pt" height="170pt"
 viewBox="0.00 0.00 620.00 170.00" xmlns="http://www.w3.org/2000/svg" xmlns:xlink="http://www.w3.org/1999/xlink">
<g id="graph0" class="graph" transform="scale(1 1) rotate(0) translate(4 166)">
<title>AddMeshes</title>
<!-- Node1 -->
<g id="node1" class="node">
<title>Node1</title>
<g id="a_node1"><a xlink:title="Add a new mesh to a raytracer.">
<polygon fill="#999999" stroke="#666666" points="67.75,-76 0,-76 0,-56 67.75,-56 67.75,-76"/>
<text xml:space="preserve" text-anchor="middle" x="33.88" y="-62.5" font-family="Helvetica,sans-Serif" font-size="10.00">AddMeshes</text>
</a>
</g>
</g>
<!-- Node2 -->
<g id="node2" class="node">
<title>Node2</title>
<g id="a_node2"><a xlink:href="a01411.html#a6425a0f8f4a3ef8073e734ceb745cd1e" target="_top" xlink:title="Add a new mesh to this raytracer&#39;s BVH with the specified ID.">
<polygon fill="white" stroke="#666666" points="242.75,-82 103.75,-82 103.75,-50 242.75,-50 242.75,-82"/>
<text xml:space="preserve" text-anchor="start" x="111.75" y="-68.5" font-family="Helvetica,sans-Serif" font-size="10.00">HF::RayTracer::EmbreeRay</text>
<text xml:space="preserve" text-anchor="middle" x="173.25" y="-56.5" font-family="Helvetica,sans-Serif" font-size="10.00">Tracer::AddMesh</text>
</a>
</g>
</g>
<!-- Node1&#45;&gt;Node2 -->
<g id="edge1" class="edge">
<title>Node1&#45;&gt;Node2</title>
<path fill="none" stroke="#63b8ff" d="M68.13,-66C75.5,-66 83.62,-66 91.97,-66"/>
<polygon fill="#63b8ff" stroke="#63b8ff" points="91.95,-69.5 101.95,-66 91.95,-62.5 91.95,-69.5"/>
</g>
<!-- Node3 -->
<g id="node3" class="node">
<title>Node3</title>
<g id="a_node3"><a xlink:href="a01411.html#aa602f6c44fa5230477642942ebc3216e" target="_top" xlink:title="Create a new instance of RTCGeometry from a triangle and vertex buffer.">
<polygon fill="white" stroke="#666666" points="436.5,-162 278.75,-162 278.75,-118 436.5,-118 436.5,-162"/>
<text xml:space="preserve" text-anchor="start" x="286.75" y="-148.5" font-family="Helvetica,sans-Serif" font-size="10.00">HF::RayTracer::EmbreeRay</text>
<text xml:space="preserve" text-anchor="start" x="286.75" y="-136.5" font-family="Helvetica,sans-Serif" font-size="10.00">Tracer::ConstructGeometryFrom</text>
<text xml:space="preserve" text-anchor="middle" x="357.62" y="-124.5" font-family="Helvetica,sans-Serif" font-size="10.00">Buffers</text>
</a>
</g>
</g>
<!-- Node2&#45;&gt;Node3 -->
<g id="edge2" class="edge">
<title>Node2&#45;&gt;Node3</title>
<path fill="none" stroke="#63b8ff" d="M213.9,-82.44C233.41,-90.5 257.29,-100.31 278.75,-109 282.3,-110.44 285.94,-111.9 289.61,-113.38"/>
<polygon fill="#63b8ff" stroke="#63b8ff" points="288.04,-116.52 298.62,-116.99 290.64,-110.02 288.04,-116.52"/>
</g>
<!-- Node4 -->
<g id="node4" class="node">
<title>Node4</title>
<g id="a_node4"><a xlink:href="a01411.html#a6ee1e15bc515878b156bc6a3778f8033" target="_top" xlink:title="Attach geometry to the current scene.">
<polygon fill="white" stroke="#666666" points="427.12,-82 288.12,-82 288.12,-50 427.12,-50 427.12,-82"/>
<text xml:space="preserve" text-anchor="start" x="296.12" y="-68.5" font-family="Helvetica,sans-Serif" font-size="10.00">HF::RayTracer::EmbreeRay</text>
<text xml:space="preserve" text-anchor="middle" x="357.62" y="-56.5" font-family="Helvetica,sans-Serif" font-size="10.00">Tracer::InsertGeom</text>
</a>
</g>
</g>
<!-- Node2&#45;&gt;Node4 -->
<g id="edge3" class="edge">
<title>Node2&#45;&gt;Node4</title>
<path fill="none" stroke="#63b8ff" d="M243.2,-66C254.05,-66 265.36,-66 276.44,-66"/>
<polygon fill="#63b8ff" stroke="#63b8ff" points="276.37,-69.5 286.37,-66 276.37,-62.5 276.37,-69.5"/>
</g>
<!-- Node6 -->
<g id="node6" class="node">
<title>Node6</title>
<g id="a_node6"><a xlink:href="a00464.html#a732eb910d06064bea04e6a959fd235f0" target="_top" xlink:title="Index a list of verticies and place them into a triangle and vertex buffer.">
<polygon fill="white" stroke="#666666" points="422.62,-32 292.62,-32 292.62,0 422.62,0 422.62,-32"/>
<text xml:space="preserve" text-anchor="start" x="300.62" y="-18.5" font-family="Helvetica,sans-Serif" font-size="10.00">HF::RayTracer::vectorsTo</text>
<text xml:space="preserve" text-anchor="middle" x="357.62" y="-6.5" font-family="Helvetica,sans-Serif" font-size="10.00">Buffers</text>
</a>
</g>
</g>
<!-- Node2&#45;&gt;Node6 -->
<g id="edge6" class="edge">
<title>Node2&#45;&gt;Node6</title>
<path fill="none" stroke="#63b8ff" d="M234.22,-49.56C250.66,-45.05 268.63,-40.12 285.62,-35.47"/>
<polygon fill="#63b8ff" stroke="#63b8ff" points="286.44,-38.87 295.16,-32.85 284.59,-32.12 286.44,-38.87"/>
</g>
<!-- Node4&#45;&gt;Node4 -->
<g id="edge5" class="edge">
<title>Node4&#45;&gt;Node4</title>
<path fill="none" stroke="#63b8ff" d="M324.71,-82.44C318.56,-91.58 329.54,-100 357.62,-100 372.99,-100 383.23,-97.48 388.35,-93.71"/>
<polygon fill="#63b8ff" stroke="#63b8ff" points="391.78,-94.41 390.25,-83.93 384.91,-93.08 391.78,-94.41"/>
</g>
<!-- Node5 -->
<g id="node5" class="node">
<title>Node5</title>
<g id="a_node5"><a xlink:href="a00464.html#a19e11d13f73136d6819b8abee57b0fd9" target="_top" xlink:title="Check an embree device for errors.">
<polygon fill="white" stroke="#666666" points="611.5,-76 472.5,-76 472.5,-56 611.5,-56 611.5,-76"/>
<text xml:space="preserve" text-anchor="middle" x="542" y="-62.5" font-family="Helvetica,sans-Serif" font-size="10.00">HF::RayTracer::CheckState</text>
</a>
</g>
</g>
<!-- Node4&#45;&gt;Node5 -->
<g id="edge4" class="edge">
<title>Node4&#45;&gt;Node5</title>
<path fill="none" stroke="#63b8ff" d="M427.57,-66C438.43,-66 449.73,-66 460.81,-66"/>
<polygon fill="#63b8ff" stroke="#63b8ff" points="460.74,-69.5 470.74,-66 460.74,-62.5 460.74,-69.5"/>
</g>
</g>
</svg>
