<?xml version="1.0" encoding="UTF-8" standalone="no"?>
<!DOCTYPE svg PUBLIC "-//W3C//DTD SVG 1.1//EN"
 "http://www.w3.org/Graphics/SVG/1.1/DTD/svg11.dtd">
<!-- Generated by graphviz version 13.1.2 (20250808.2320)
 -->
<!-- Title: nanort::SAH Pages: 1 -->
<svg width="438pt" height="28pt"
 viewBox="0.00 0.00 438.00 28.00" xmlns="http://www.w3.org/2000/svg" xmlns:xlink="http://www.w3.org/1999/xlink">
<g id="graph0" class="graph" transform="scale(1 1) rotate(0) translate(4 24)">
<title>nanort::SAH</title>
<!-- Node1 -->
<g id="node1" class="node">
<title>Node1</title>
<g id="a_node1"><a xlink:title=" ">
<polygon fill="#999999" stroke="#666666" points="429.75,-20 359.75,-20 359.75,0 429.75,0 429.75,-20"/>
<text xml:space="preserve" text-anchor="middle" x="394.75" y="-6.5" font-family="Helvetica,sans-Serif" font-size="10.00">nanort::SAH</text>
</a>
</g>
</g>
<!-- Node2 -->
<g id="node2" class="node">
<title>Node2</title>
<g id="a_node2"><a xlink:href="a00474.html#ac281b6ed7e50b406666a6e67e9547b7e" target="_top" xlink:title=" ">
<polygon fill="white" stroke="#666666" points="323.75,-20 178,-20 178,0 323.75,0 323.75,-20"/>
<text xml:space="preserve" text-anchor="middle" x="250.88" y="-6.5" font-family="Helvetica,sans-Serif" font-size="10.00">nanort::FindCutFromBinBuffer</text>
</a>
</g>
</g>
<!-- Node1&#45;&gt;Node2 -->
<g id="edge1" class="edge">
<title>Node1&#45;&gt;Node2</title>
<path fill="none" stroke="#63b8ff" d="M348.11,-10C340.4,-10 332.23,-10 324.04,-10"/>
<polygon fill="#63b8ff" stroke="#63b8ff" points="347.89,-13.5 357.89,-10 347.89,-6.5 347.89,-13.5"/>
</g>
<!-- Node3 -->
<g id="node3" class="node">
<title>Node3</title>
<g id="a_node3"><a xlink:href="a01483.html#ae0e4bf0fab331dbacf469a3e991132e5" target="_top" xlink:title="Builds BVH tree recursively.">
<polygon fill="white" stroke="#666666" points="142,-20 0,-20 0,0 142,0 142,-20"/>
<text xml:space="preserve" text-anchor="middle" x="71" y="-6.5" font-family="Helvetica,sans-Serif" font-size="10.00">nanort::BVHAccel::BuildTree</text>
</a>
</g>
</g>
<!-- Node2&#45;&gt;Node3 -->
<g id="edge2" class="edge">
<title>Node2&#45;&gt;Node3</title>
<path fill="none" stroke="#63b8ff" d="M166.25,-10C158.23,-10 150.15,-10 142.27,-10"/>
<polygon fill="#63b8ff" stroke="#63b8ff" points="166.01,-13.5 176.01,-10 166.01,-6.5 166.01,-13.5"/>
</g>
</g>
</svg>
