<?xml version="1.0" encoding="UTF-8" standalone="no"?>
<!DOCTYPE svg PUBLIC "-//W3C//DTD SVG 1.1//EN"
 "http://www.w3.org/Graphics/SVG/1.1/DTD/svg11.dtd">
<!-- Generated by graphviz version 13.1.2 (20250808.2320)
 -->
<!-- Title: CreatePath Pages: 1 -->
<svg width="588pt" height="219pt"
 viewBox="0.00 0.00 588.00 219.00" xmlns="http://www.w3.org/2000/svg" xmlns:xlink="http://www.w3.org/1999/xlink">
<g id="graph0" class="graph" transform="scale(1 1) rotate(0) translate(4 215)">
<title>CreatePath</title>
<!-- Node1 -->
<g id="node1" class="node">
<title>Node1</title>
<g id="a_node1"><a xlink:title="Find the shortest path from start to end.">
<polygon fill="#999999" stroke="#666666" points="65.5,-111 0,-111 0,-91 65.5,-91 65.5,-111"/>
<text xml:space="preserve" text-anchor="middle" x="32.75" y="-97.5" font-family="Helvetica,sans-Serif" font-size="10.00">CreatePath</text>
</a>
</g>
</g>
<!-- Node2 -->
<g id="node2" class="node">
<title>Node2</title>
<g id="a_node2"><a xlink:href="a00472.html#ae2106e09eb44d681fbc6c0f66a3d3ac4" target="_top" xlink:title="Create a new boost graph from a HF::SpatialStructures:Graph.">
<polygon fill="white" stroke="#666666" points="246.5,-211 101.5,-211 101.5,-179 246.5,-179 246.5,-211"/>
<text xml:space="preserve" text-anchor="start" x="109.5" y="-197.5" font-family="Helvetica,sans-Serif" font-size="10.00">HF::Pathfinding::CreateBoost</text>
<text xml:space="preserve" text-anchor="middle" x="174" y="-185.5" font-family="Helvetica,sans-Serif" font-size="10.00">Graph</text>
</a>
</g>
</g>
<!-- Node1&#45;&gt;Node2 -->
<g id="edge1" class="edge">
<title>Node1&#45;&gt;Node2</title>
<path fill="none" stroke="#63b8ff" d="M41.37,-111.35C52.86,-126.27 75.98,-153.81 101.5,-170 103.37,-171.19 105.31,-172.33 107.3,-173.42"/>
<polygon fill="#63b8ff" stroke="#63b8ff" points="105.67,-176.52 116.18,-177.83 108.78,-170.25 105.67,-176.52"/>
</g>
<!-- Node3 -->
<g id="node3" class="node">
<title>Node3</title>
<g id="a_node3"><a xlink:href="a02083.html#a3066bac2d76b5c8a28b35a8d1f6ace71" target="_top" xlink:title="Determine if this path has any nodes in it.">
<polygon fill="white" stroke="#666666" points="229.25,-161 118.75,-161 118.75,-129 229.25,-129 229.25,-161"/>
<text xml:space="preserve" text-anchor="start" x="126.75" y="-147.5" font-family="Helvetica,sans-Serif" font-size="10.00">HF::SpatialStructures</text>
<text xml:space="preserve" text-anchor="middle" x="174" y="-135.5" font-family="Helvetica,sans-Serif" font-size="10.00">::Path::empty</text>
</a>
</g>
</g>
<!-- Node1&#45;&gt;Node3 -->
<g id="edge2" class="edge">
<title>Node1&#45;&gt;Node3</title>
<path fill="none" stroke="#63b8ff" d="M65.7,-111.09C79.01,-115.3 94.94,-120.34 110.41,-125.22"/>
<polygon fill="#63b8ff" stroke="#63b8ff" points="108.98,-128.44 119.57,-128.12 111.09,-121.77 108.98,-128.44"/>
</g>
<!-- Node4 -->
<g id="node4" class="node">
<title>Node4</title>
<g id="a_node4"><a xlink:href="a00472.html#a47d06b1c4bd84f4d0a7519ea0e96ff02" target="_top" xlink:title="Find a path between points A and B using Dijkstra&#39;s Shortest Path algorithm.">
<polygon fill="white" stroke="#666666" points="238.62,-111 109.38,-111 109.38,-91 238.62,-91 238.62,-111"/>
<text xml:space="preserve" text-anchor="middle" x="174" y="-97.5" font-family="Helvetica,sans-Serif" font-size="10.00">HF::Pathfinding::FindPath</text>
</a>
</g>
</g>
<!-- Node1&#45;&gt;Node4 -->
<g id="edge3" class="edge">
<title>Node1&#45;&gt;Node4</title>
<path fill="none" stroke="#63b8ff" d="M65.7,-101C75.39,-101 86.48,-101 97.77,-101"/>
<polygon fill="#63b8ff" stroke="#63b8ff" points="97.57,-104.5 107.57,-101 97.57,-97.5 97.57,-104.5"/>
</g>
<!-- Node9 -->
<g id="node9" class="node">
<title>Node9</title>
<g id="a_node9"><a xlink:href="a02083.html#a28f61f0f57b38a5249a11a725d9d692b" target="_top" xlink:title="Determine how many nodes are in this path.">
<polygon fill="white" stroke="#666666" points="580,-73 469.5,-73 469.5,-41 580,-41 580,-73"/>
<text xml:space="preserve" text-anchor="start" x="477.5" y="-59.5" font-family="Helvetica,sans-Serif" font-size="10.00">HF::SpatialStructures</text>
<text xml:space="preserve" text-anchor="middle" x="524.75" y="-47.5" font-family="Helvetica,sans-Serif" font-size="10.00">::Path::size</text>
</a>
</g>
</g>
<!-- Node1&#45;&gt;Node9 -->
<g id="edge10" class="edge">
<title>Node1&#45;&gt;Node9</title>
<path fill="none" stroke="#63b8ff" d="M65.48,-90.59C76.74,-87.3 89.57,-84 101.5,-82 226.18,-61.08 374.12,-56.99 457.66,-56.55"/>
<polygon fill="#63b8ff" stroke="#63b8ff" points="457.51,-60.06 467.49,-56.52 457.48,-53.06 457.51,-60.06"/>
</g>
<!-- Node10 -->
<g id="node10" class="node">
<title>Node10</title>
<g id="a_node10"><a xlink:href="a02083.html#a942cb49007bbeb5588e2d526c68bdcf9" target="_top" xlink:title="Get a pointer to the path&#39;s underlying path members vector.">
<polygon fill="white" stroke="#666666" points="229.25,-32 118.75,-32 118.75,0 229.25,0 229.25,-32"/>
<text xml:space="preserve" text-anchor="start" x="126.75" y="-18.5" font-family="Helvetica,sans-Serif" font-size="10.00">HF::SpatialStructures</text>
<text xml:space="preserve" text-anchor="middle" x="174" y="-6.5" font-family="Helvetica,sans-Serif" font-size="10.00">::Path::GetPMPointer</text>
</a>
</g>
</g>
<!-- Node1&#45;&gt;Node10 -->
<g id="edge9" class="edge">
<title>Node1&#45;&gt;Node10</title>
<path fill="none" stroke="#63b8ff" d="M44.52,-90.61C57.31,-78.68 79.66,-59.08 101.5,-46 106.7,-42.89 112.28,-39.94 117.94,-37.2"/>
<polygon fill="#63b8ff" stroke="#63b8ff" points="119.17,-40.49 126.8,-33.13 116.25,-34.13 119.17,-40.49"/>
</g>
<!-- Node5 -->
<g id="node5" class="node">
<title>Node5</title>
<g id="a_node5"><a xlink:href="a00472.html#a9f6490539108da057db2486295458886" target="_top" xlink:title="Build a row of the distance and predecessor matrices for the node at id.">
<polygon fill="white" stroke="#666666" points="433.5,-170 282.5,-170 282.5,-138 433.5,-138 433.5,-170"/>
<text xml:space="preserve" text-anchor="start" x="290.5" y="-156.5" font-family="Helvetica,sans-Serif" font-size="10.00">HF::Pathfinding::BuildDistance</text>
<text xml:space="preserve" text-anchor="middle" x="358" y="-144.5" font-family="Helvetica,sans-Serif" font-size="10.00">AndPredecessor</text>
</a>
</g>
</g>
<!-- Node4&#45;&gt;Node5 -->
<g id="edge4" class="edge">
<title>Node4&#45;&gt;Node5</title>
<path fill="none" stroke="#63b8ff" d="M215.54,-111.48C225.67,-114.18 236.5,-117.13 246.5,-120 262.1,-124.47 278.87,-129.51 294.51,-134.31"/>
<polygon fill="#63b8ff" stroke="#63b8ff" points="293.09,-137.54 303.68,-137.14 295.16,-130.85 293.09,-137.54"/>
</g>
<!-- Node6 -->
<g id="node6" class="node">
<title>Node6</title>
<g id="a_node6"><a xlink:href="a00472.html#a977e4c93a977ab4e9e784d1e6fec79f4" target="_top" xlink:title="Construct the shortest path from start to end using the given predecessor and distance vectors.">
<polygon fill="white" stroke="#666666" points="424.5,-120 291.5,-120 291.5,-88 424.5,-88 424.5,-120"/>
<text xml:space="preserve" text-anchor="start" x="299.5" y="-106.5" font-family="Helvetica,sans-Serif" font-size="10.00">HF::Pathfinding::Construct</text>
<text xml:space="preserve" text-anchor="middle" x="358" y="-94.5" font-family="Helvetica,sans-Serif" font-size="10.00">ShortestPathFromPred</text>
</a>
</g>
</g>
<!-- Node4&#45;&gt;Node6 -->
<g id="edge5" class="edge">
<title>Node4&#45;&gt;Node6</title>
<path fill="none" stroke="#63b8ff" d="M238.91,-102.05C252.11,-102.27 266.15,-102.5 279.77,-102.73"/>
<polygon fill="#63b8ff" stroke="#63b8ff" points="279.52,-106.22 289.57,-102.89 279.63,-99.22 279.52,-106.22"/>
</g>
<!-- Node7 -->
<g id="node7" class="node">
<title>Node7</title>
<g id="a_node7"><a xlink:href="a02083.html#a55ded4e02787eb739770ebe28ef386a9" target="_top" xlink:title="Add a new node to the path.">
<polygon fill="white" stroke="#666666" points="580,-173 469.5,-173 469.5,-141 580,-141 580,-173"/>
<text xml:space="preserve" text-anchor="start" x="477.5" y="-159.5" font-family="Helvetica,sans-Serif" font-size="10.00">HF::SpatialStructures</text>
<text xml:space="preserve" text-anchor="middle" x="524.75" y="-147.5" font-family="Helvetica,sans-Serif" font-size="10.00">::Path::AddNode</text>
</a>
</g>
</g>
<!-- Node6&#45;&gt;Node7 -->
<g id="edge6" class="edge">
<title>Node6&#45;&gt;Node7</title>
<path fill="none" stroke="#63b8ff" d="M410.22,-120.48C426.5,-125.71 444.67,-131.56 461.62,-137.01"/>
<polygon fill="#63b8ff" stroke="#63b8ff" points="460.52,-140.34 471.12,-140.07 462.67,-133.67 460.52,-140.34"/>
</g>
<!-- Node8 -->
<g id="node8" class="node">
<title>Node8</title>
<g id="a_node8"><a xlink:href="a02083.html#adf2bad9ac73dbdc436c365654d54ad98" target="_top" xlink:title="Reverse the direction of this path.">
<polygon fill="white" stroke="#666666" points="580,-123 469.5,-123 469.5,-91 580,-91 580,-123"/>
<text xml:space="preserve" text-anchor="start" x="477.5" y="-109.5" font-family="Helvetica,sans-Serif" font-size="10.00">HF::SpatialStructures</text>
<text xml:space="preserve" text-anchor="middle" x="524.75" y="-97.5" font-family="Helvetica,sans-Serif" font-size="10.00">::Path::Reverse</text>
</a>
</g>
</g>
<!-- Node6&#45;&gt;Node8 -->
<g id="edge7" class="edge">
<title>Node6&#45;&gt;Node8</title>
<path fill="none" stroke="#63b8ff" d="M424.59,-105.19C435.58,-105.39 446.98,-105.6 457.97,-105.8"/>
<polygon fill="#63b8ff" stroke="#63b8ff" points="457.67,-109.3 467.73,-105.98 457.8,-102.3 457.67,-109.3"/>
</g>
<!-- Node6&#45;&gt;Node9 -->
<g id="edge8" class="edge">
<title>Node6&#45;&gt;Node9</title>
<path fill="none" stroke="#63b8ff" d="M416.62,-87.56C430.09,-83.72 444.54,-79.6 458.32,-75.66"/>
<polygon fill="#63b8ff" stroke="#63b8ff" points="459.09,-79.08 467.75,-72.98 457.17,-72.35 459.09,-79.08"/>
</g>
</g>
</svg>
