<?xml version="1.0" encoding="UTF-8" standalone="no"?>
<!DOCTYPE svg PUBLIC "-//W3C//DTD SVG 1.1//EN"
 "http://www.w3.org/Graphics/SVG/1.1/DTD/svg11.dtd">
<!-- Generated by graphviz version 13.1.2 (20250808.2320)
 -->
<!-- Title: HF::Pathfinding::ConstructShortestPathFromPred Pages: 1 -->
<svg width="457pt" height="140pt"
 viewBox="0.00 0.00 457.00 140.00" xmlns="http://www.w3.org/2000/svg" xmlns:xlink="http://www.w3.org/1999/xlink">
<g id="graph0" class="graph" transform="scale(1 1) rotate(0) translate(4 136)">
<title>HF::Pathfinding::ConstructShortestPathFromPred</title>
<!-- Node1 -->
<g id="node1" class="node">
<title>Node1</title>
<g id="a_node1"><a xlink:title="Overload to call this with a distPred instead of the raw arrays.">
<polygon fill="#999999" stroke="#666666" points="133,-82 0,-82 0,-50 133,-50 133,-82"/>
<text xml:space="preserve" text-anchor="start" x="8" y="-68.5" font-family="Helvetica,sans-Serif" font-size="10.00">HF::Pathfinding::Construct</text>
<text xml:space="preserve" text-anchor="middle" x="66.5" y="-56.5" font-family="Helvetica,sans-Serif" font-size="10.00">ShortestPathFromPred</text>
</a>
</g>
</g>
<!-- Node2 -->
<g id="node2" class="node">
<title>Node2</title>
<g id="a_node2"><a xlink:href="a00472.html#a977e4c93a977ab4e9e784d1e6fec79f4" target="_top" xlink:title="Construct the shortest path from start to end using the given predecessor and distance vectors.">
<polygon fill="white" stroke="#666666" points="302,-82 169,-82 169,-50 302,-50 302,-82"/>
<text xml:space="preserve" text-anchor="start" x="177" y="-68.5" font-family="Helvetica,sans-Serif" font-size="10.00">HF::Pathfinding::Construct</text>
<text xml:space="preserve" text-anchor="middle" x="235.5" y="-56.5" font-family="Helvetica,sans-Serif" font-size="10.00">ShortestPathFromPred</text>
</a>
</g>
</g>
<!-- Node1&#45;&gt;Node2 -->
<g id="edge1" class="edge">
<title>Node1&#45;&gt;Node2</title>
<path fill="none" stroke="#63b8ff" d="M133.02,-66C140.97,-66 149.15,-66 157.25,-66"/>
<polygon fill="#63b8ff" stroke="#63b8ff" points="157.1,-69.5 167.1,-66 157.1,-62.5 157.1,-69.5"/>
</g>
<!-- Node3 -->
<g id="node3" class="node">
<title>Node3</title>
<g id="a_node3"><a xlink:href="a02083.html#a55ded4e02787eb739770ebe28ef386a9" target="_top" xlink:title="Add a new node to the path.">
<polygon fill="white" stroke="#666666" points="448.5,-132 338,-132 338,-100 448.5,-100 448.5,-132"/>
<text xml:space="preserve" text-anchor="start" x="346" y="-118.5" font-family="Helvetica,sans-Serif" font-size="10.00">HF::SpatialStructures</text>
<text xml:space="preserve" text-anchor="middle" x="393.25" y="-106.5" font-family="Helvetica,sans-Serif" font-size="10.00">::Path::AddNode</text>
</a>
</g>
</g>
<!-- Node2&#45;&gt;Node3 -->
<g id="edge2" class="edge">
<title>Node2&#45;&gt;Node3</title>
<path fill="none" stroke="#63b8ff" d="M287.5,-82.37C301.14,-86.75 316.04,-91.54 330.21,-96.08"/>
<polygon fill="#63b8ff" stroke="#63b8ff" points="328.84,-99.32 339.43,-99.04 330.98,-92.65 328.84,-99.32"/>
</g>
<!-- Node4 -->
<g id="node4" class="node">
<title>Node4</title>
<g id="a_node4"><a xlink:href="a02083.html#adf2bad9ac73dbdc436c365654d54ad98" target="_top" xlink:title="Reverse the direction of this path.">
<polygon fill="white" stroke="#666666" points="448.5,-82 338,-82 338,-50 448.5,-50 448.5,-82"/>
<text xml:space="preserve" text-anchor="start" x="346" y="-68.5" font-family="Helvetica,sans-Serif" font-size="10.00">HF::SpatialStructures</text>
<text xml:space="preserve" text-anchor="middle" x="393.25" y="-56.5" font-family="Helvetica,sans-Serif" font-size="10.00">::Path::Reverse</text>
</a>
</g>
</g>
<!-- Node2&#45;&gt;Node4 -->
<g id="edge3" class="edge">
<title>Node2&#45;&gt;Node4</title>
<path fill="none" stroke="#63b8ff" d="M302.1,-66C310.03,-66 318.14,-66 326.08,-66"/>
<polygon fill="#63b8ff" stroke="#63b8ff" points="326.04,-69.5 336.04,-66 326.04,-62.5 326.04,-69.5"/>
</g>
<!-- Node5 -->
<g id="node5" class="node">
<title>Node5</title>
<g id="a_node5"><a xlink:href="a02083.html#a28f61f0f57b38a5249a11a725d9d692b" target="_top" xlink:title="Determine how many nodes are in this path.">
<polygon fill="white" stroke="#666666" points="448.5,-32 338,-32 338,0 448.5,0 448.5,-32"/>
<text xml:space="preserve" text-anchor="start" x="346" y="-18.5" font-family="Helvetica,sans-Serif" font-size="10.00">HF::SpatialStructures</text>
<text xml:space="preserve" text-anchor="middle" x="393.25" y="-6.5" font-family="Helvetica,sans-Serif" font-size="10.00">::Path::size</text>
</a>
</g>
</g>
<!-- Node2&#45;&gt;Node5 -->
<g id="edge4" class="edge">
<title>Node2&#45;&gt;Node5</title>
<path fill="none" stroke="#63b8ff" d="M287.5,-49.63C301.14,-45.25 316.04,-40.46 330.21,-35.92"/>
<polygon fill="#63b8ff" stroke="#63b8ff" points="330.98,-39.35 339.43,-32.96 328.84,-32.68 330.98,-39.35"/>
</g>
</g>
</svg>
