<?xml version="1.0" encoding="UTF-8" standalone="no"?>
<!DOCTYPE svg PUBLIC "-//W3C//DTD SVG 1.1//EN"
 "http://www.w3.org/Graphics/SVG/1.1/DTD/svg11.dtd">
<!-- Generated by graphviz version 13.1.2 (20250808.2320)
 -->
<!-- Title: Cinterface/visibility_graph_C.cpp Pages: 1 -->
<svg width="1027pt" height="264pt"
 viewBox="0.00 0.00 1027.00 264.00" xmlns="http://www.w3.org/2000/svg" xmlns:xlink="http://www.w3.org/1999/xlink">
<g id="graph0" class="graph" transform="scale(1 1) rotate(0) translate(4 260)">
<title>Cinterface/visibility_graph_C.cpp</title>
<!-- Node1 -->
<g id="node1" class="node">
<title>Node1</title>
<g id="a_node1"><a xlink:title=" ">
<polygon fill="#999999" stroke="#666666" points="415.25,-256 316,-256 316,-224 415.25,-224 415.25,-256"/>
<text xml:space="preserve" text-anchor="start" x="324" y="-242.5" font-family="Helvetica,sans-Serif" font-size="10.00">Cinterface/visibility</text>
<text xml:space="preserve" text-anchor="middle" x="365.62" y="-230.5" font-family="Helvetica,sans-Serif" font-size="10.00">_graph_C.cpp</text>
</a>
</g>
</g>
<!-- Node2 -->
<g id="node2" class="node">
<title>Node2</title>
<g id="a_node2"><a xlink:href="a00449.html" target="_top" xlink:title="Header file for functions related to creating a visibility graph.">
<polygon fill="white" stroke="#666666" points="183.38,-188 81.88,-188 81.88,-168 183.38,-168 183.38,-188"/>
<text xml:space="preserve" text-anchor="middle" x="132.62" y="-174.5" font-family="Helvetica,sans-Serif" font-size="10.00">visibility_graph_C.h</text>
</a>
</g>
</g>
<!-- Node1&#45;&gt;Node2 -->
<g id="edge1" class="edge">
<title>Node1&#45;&gt;Node2</title>
<path fill="none" stroke="#63b8ff" d="M315.64,-226.13C275.51,-215.8 219.56,-201.39 180.11,-191.23"/>
<polygon fill="#63b8ff" stroke="#63b8ff" points="181.22,-187.9 170.66,-188.79 179.47,-194.68 181.22,-187.9"/>
</g>
<!-- Node4 -->
<g id="node4" class="node">
<title>Node4</title>
<g id="a_node4"><a xlink:title=" ">
<polygon fill="#e0e0e0" stroke="#999999" points="271.12,-76 228.12,-76 228.12,-56 271.12,-56 271.12,-76"/>
<text xml:space="preserve" text-anchor="middle" x="249.62" y="-62.5" font-family="Helvetica,sans-Serif" font-size="10.00">vector</text>
</a>
</g>
</g>
<!-- Node1&#45;&gt;Node4 -->
<g id="edge8" class="edge">
<title>Node1&#45;&gt;Node4</title>
<path fill="none" stroke="#63b8ff" d="M315.71,-233.16C287.14,-226.98 253.52,-214.24 235.62,-188 214.86,-157.55 228.86,-112.47 239.91,-86.8"/>
<polygon fill="#63b8ff" stroke="#63b8ff" points="243.02,-88.42 244.02,-77.87 236.66,-85.49 243.02,-88.42"/>
</g>
<!-- Node7 -->
<g id="node7" class="node">
<title>Node7</title>
<g id="a_node7"><a xlink:href="a00029.html" target="_top" xlink:title="Contains definitions for the VisibilityGraph class.">
<polygon fill="white" stroke="#666666" points="333,-188 244.25,-188 244.25,-168 333,-168 333,-188"/>
<text xml:space="preserve" text-anchor="middle" x="288.62" y="-174.5" font-family="Helvetica,sans-Serif" font-size="10.00">visibility_graph.h</text>
</a>
</g>
</g>
<!-- Node1&#45;&gt;Node7 -->
<g id="edge9" class="edge">
<title>Node1&#45;&gt;Node7</title>
<path fill="none" stroke="#63b8ff" d="M345.8,-223.55C334.66,-214.87 320.76,-204.04 309.46,-195.24"/>
<polygon fill="#63b8ff" stroke="#63b8ff" points="311.93,-192.72 301.89,-189.34 307.63,-198.25 311.93,-192.72"/>
</g>
<!-- Node8 -->
<g id="node8" class="node">
<title>Node8</title>
<g id="a_node8"><a xlink:href="a00212.html" target="_top" xlink:title="Contains definitions for the EmbreeRayTracer">
<polygon fill="white" stroke="#666666" points="415.62,-132 315.62,-132 315.62,-112 415.62,-112 415.62,-132"/>
<text xml:space="preserve" text-anchor="middle" x="365.62" y="-118.5" font-family="Helvetica,sans-Serif" font-size="10.00">embree_raytracer.h</text>
</a>
</g>
</g>
<!-- Node1&#45;&gt;Node8 -->
<g id="edge11" class="edge">
<title>Node1&#45;&gt;Node8</title>
<path fill="none" stroke="#63b8ff" d="M365.62,-223.84C365.62,-203.41 365.62,-166.97 365.62,-143.95"/>
<polygon fill="#63b8ff" stroke="#63b8ff" points="369.13,-143.95 365.63,-133.95 362.13,-143.95 369.13,-143.95"/>
</g>
<!-- Node12 -->
<g id="node12" class="node">
<title>Node12</title>
<g id="a_node12"><a xlink:href="a00269.html" target="_top" xlink:title="Contains definitions for the Graph &#160;class.">
<polygon fill="white" stroke="#666666" points="563.75,-188 515.5,-188 515.5,-168 563.75,-168 563.75,-188"/>
<text xml:space="preserve" text-anchor="middle" x="539.62" y="-174.5" font-family="Helvetica,sans-Serif" font-size="10.00">graph.h</text>
</a>
</g>
</g>
<!-- Node1&#45;&gt;Node12 -->
<g id="edge17" class="edge">
<title>Node1&#45;&gt;Node12</title>
<path fill="none" stroke="#63b8ff" d="M410.43,-223.55C439.82,-213.42 477.67,-200.36 504.79,-191.01"/>
<polygon fill="#63b8ff" stroke="#63b8ff" points="505.6,-194.43 513.91,-187.87 503.32,-187.82 505.6,-194.43"/>
</g>
<!-- Node15 -->
<g id="node15" class="node">
<title>Node15</title>
<g id="a_node15"><a xlink:href="a00275.html" target="_top" xlink:title="Contains definitions for the Node structure.">
<polygon fill="white" stroke="#666666" points="585.25,-76 540,-76 540,-56 585.25,-56 585.25,-76"/>
<text xml:space="preserve" text-anchor="middle" x="562.62" y="-62.5" font-family="Helvetica,sans-Serif" font-size="10.00">node.h</text>
</a>
</g>
</g>
<!-- Node1&#45;&gt;Node15 -->
<g id="edge33" class="edge">
<title>Node1&#45;&gt;Node15</title>
<path fill="none" stroke="#63b8ff" d="M415.72,-232.18C507.86,-218.49 698.23,-184.38 735.62,-132 740.79,-124.77 741.06,-119.03 735.62,-112 718.81,-90.25 642.41,-77.05 596.95,-70.99"/>
<polygon fill="#63b8ff" stroke="#63b8ff" points="597.44,-67.52 587.07,-69.72 596.55,-74.46 597.44,-67.52"/>
</g>
<!-- Node22 -->
<g id="node22" class="node">
<title>Node22</title>
<g id="a_node22"><a xlink:href="a00176.html" target="_top" xlink:title="Contains definitions for the Exceptions namespace.">
<polygon fill="white" stroke="#666666" points="927.88,-188 841.38,-188 841.38,-168 927.88,-168 927.88,-188"/>
<text xml:space="preserve" text-anchor="middle" x="884.62" y="-174.5" font-family="Helvetica,sans-Serif" font-size="10.00">HFExceptions.h</text>
</a>
</g>
</g>
<!-- Node1&#45;&gt;Node22 -->
<g id="edge34" class="edge">
<title>Node1&#45;&gt;Node22</title>
<path fill="none" stroke="#63b8ff" d="M415.39,-233.25C512.86,-221.98 728.26,-197.08 829.73,-185.35"/>
<polygon fill="#63b8ff" stroke="#63b8ff" points="829.9,-188.85 839.43,-184.22 829.1,-181.9 829.9,-188.85"/>
</g>
<!-- Node3 -->
<g id="node3" class="node">
<title>Node3</title>
<g id="a_node3"><a xlink:href="a00413.html" target="_top" xlink:title=" ">
<polygon fill="white" stroke="#666666" points="183.75,-132 93.5,-132 93.5,-112 183.75,-112 183.75,-132"/>
<text xml:space="preserve" text-anchor="middle" x="138.62" y="-118.5" font-family="Helvetica,sans-Serif" font-size="10.00">cinterface_utils.h</text>
</a>
</g>
</g>
<!-- Node2&#45;&gt;Node3 -->
<g id="edge2" class="edge">
<title>Node2&#45;&gt;Node3</title>
<path fill="none" stroke="#63b8ff" d="M133.67,-167.59C134.4,-161.01 135.41,-151.96 136.32,-143.73"/>
<polygon fill="#63b8ff" stroke="#63b8ff" points="139.8,-144.13 137.42,-133.8 132.84,-143.35 139.8,-144.13"/>
</g>
<!-- Node6 -->
<g id="node6" class="node">
<title>Node6</title>
<g id="a_node6"><a xlink:href="a00431.html" target="_top" xlink:title="C Interface header file for Raytracer functionality.">
<polygon fill="white" stroke="#666666" points="75.25,-132 0,-132 0,-112 75.25,-112 75.25,-132"/>
<text xml:space="preserve" text-anchor="middle" x="37.62" y="-118.5" font-family="Helvetica,sans-Serif" font-size="10.00">raytracer_C.h</text>
</a>
</g>
</g>
<!-- Node2&#45;&gt;Node6 -->
<g id="edge5" class="edge">
<title>Node2&#45;&gt;Node6</title>
<path fill="none" stroke="#63b8ff" d="M116.08,-167.59C101.73,-159.44 80.7,-147.48 64.02,-138"/>
<polygon fill="#63b8ff" stroke="#63b8ff" points="66.04,-135.13 55.62,-133.23 62.58,-141.21 66.04,-135.13"/>
</g>
<!-- Node3&#45;&gt;Node4 -->
<g id="edge3" class="edge">
<title>Node3&#45;&gt;Node4</title>
<path fill="none" stroke="#63b8ff" d="M157.96,-111.59C175.04,-103.28 200.23,-91.03 219.88,-81.47"/>
<polygon fill="#63b8ff" stroke="#63b8ff" points="221.32,-84.66 228.78,-77.14 218.25,-78.37 221.32,-84.66"/>
</g>
<!-- Node5 -->
<g id="node5" class="node">
<title>Node5</title>
<g id="a_node5"><a xlink:title=" ">
<polygon fill="#e0e0e0" stroke="#999999" points="253.5,-20 215.75,-20 215.75,0 253.5,0 253.5,-20"/>
<text xml:space="preserve" text-anchor="middle" x="234.62" y="-6.5" font-family="Helvetica,sans-Serif" font-size="10.00">array</text>
</a>
</g>
</g>
<!-- Node3&#45;&gt;Node5 -->
<g id="edge4" class="edge">
<title>Node3&#45;&gt;Node5</title>
<path fill="none" stroke="#63b8ff" d="M146.81,-111.62C162.82,-93.27 198.52,-52.37 219.13,-28.75"/>
<polygon fill="#63b8ff" stroke="#63b8ff" points="221.53,-31.33 225.47,-21.5 216.25,-26.73 221.53,-31.33"/>
</g>
<!-- Node6&#45;&gt;Node4 -->
<g id="edge6" class="edge">
<title>Node6&#45;&gt;Node4</title>
<path fill="none" stroke="#63b8ff" d="M74.55,-111.59C114.65,-101.38 178.12,-85.21 216.61,-75.41"/>
<polygon fill="#63b8ff" stroke="#63b8ff" points="217.41,-78.82 226.24,-72.96 215.68,-72.03 217.41,-78.82"/>
</g>
<!-- Node6&#45;&gt;Node5 -->
<g id="edge7" class="edge">
<title>Node6&#45;&gt;Node5</title>
<path fill="none" stroke="#63b8ff" d="M54.42,-111.62C88.66,-92.5 166.76,-48.89 208,-25.87"/>
<polygon fill="#63b8ff" stroke="#63b8ff" points="209.53,-29.02 216.55,-21.09 206.11,-22.91 209.53,-29.02"/>
</g>
<!-- Node7&#45;&gt;Node4 -->
<g id="edge10" class="edge">
<title>Node7&#45;&gt;Node4</title>
<path fill="none" stroke="#63b8ff" d="M285.3,-167.62C279,-149.84 265.18,-110.88 256.71,-87"/>
<polygon fill="#63b8ff" stroke="#63b8ff" points="260.09,-86.04 253.45,-77.78 253.49,-88.38 260.09,-86.04"/>
</g>
<!-- Node8&#45;&gt;Node4 -->
<g id="edge13" class="edge">
<title>Node8&#45;&gt;Node4</title>
<path fill="none" stroke="#63b8ff" d="M345.42,-111.59C327.4,-103.21 300.76,-90.8 280.14,-81.21"/>
<polygon fill="#63b8ff" stroke="#63b8ff" points="281.9,-78.17 271.36,-77.12 278.95,-84.51 281.9,-78.17"/>
</g>
<!-- Node8&#45;&gt;Node5 -->
<g id="edge14" class="edge">
<title>Node8&#45;&gt;Node5</title>
<path fill="none" stroke="#63b8ff" d="M354.46,-111.62C332.22,-92.95 282.16,-50.92 254.29,-27.52"/>
<polygon fill="#63b8ff" stroke="#63b8ff" points="256.83,-25.08 246.92,-21.33 252.33,-30.44 256.83,-25.08"/>
</g>
<!-- Node9 -->
<g id="node9" class="node">
<title>Node9</title>
<g id="a_node9"><a xlink:title=" ">
<polygon fill="#e0e0e0" stroke="#999999" points="377.12,-76 328.12,-76 328.12,-56 377.12,-56 377.12,-76"/>
<text xml:space="preserve" text-anchor="middle" x="352.62" y="-62.5" font-family="Helvetica,sans-Serif" font-size="10.00">rtcore.h</text>
</a>
</g>
</g>
<!-- Node8&#45;&gt;Node9 -->
<g id="edge12" class="edge">
<title>Node8&#45;&gt;Node9</title>
<path fill="none" stroke="#63b8ff" d="M363.36,-111.59C361.76,-104.93 359.55,-95.75 357.55,-87.44"/>
<polygon fill="#63b8ff" stroke="#63b8ff" points="360.96,-86.67 355.22,-77.77 354.16,-88.31 360.96,-86.67"/>
</g>
<!-- Node10 -->
<g id="node10" class="node">
<title>Node10</title>
<g id="a_node10"><a xlink:href="a00218.html" target="_top" xlink:title=" ">
<polygon fill="white" stroke="#666666" points="458.25,-76 395,-76 395,-56 458.25,-56 458.25,-76"/>
<text xml:space="preserve" text-anchor="middle" x="426.62" y="-62.5" font-family="Helvetica,sans-Serif" font-size="10.00">HitStruct.h</text>
</a>
</g>
</g>
<!-- Node8&#45;&gt;Node10 -->
<g id="edge15" class="edge">
<title>Node8&#45;&gt;Node10</title>
<path fill="none" stroke="#63b8ff" d="M376.25,-111.59C384.91,-103.93 397.36,-92.91 407.71,-83.75"/>
<polygon fill="#63b8ff" stroke="#63b8ff" points="409.82,-86.55 414.99,-77.3 405.18,-81.31 409.82,-86.55"/>
</g>
<!-- Node11 -->
<g id="node11" class="node">
<title>Node11</title>
<g id="a_node11"><a xlink:title=" ">
<polygon fill="#e0e0e0" stroke="#999999" points="519.12,-76 476.12,-76 476.12,-56 519.12,-56 519.12,-76"/>
<text xml:space="preserve" text-anchor="middle" x="497.62" y="-62.5" font-family="Helvetica,sans-Serif" font-size="10.00">omp.h</text>
</a>
</g>
</g>
<!-- Node8&#45;&gt;Node11 -->
<g id="edge16" class="edge">
<title>Node8&#45;&gt;Node11</title>
<path fill="none" stroke="#63b8ff" d="M388.62,-111.59C409.79,-102.93 441.42,-89.99 465.16,-80.28"/>
<polygon fill="#63b8ff" stroke="#63b8ff" points="466.44,-83.54 474.37,-76.51 463.79,-77.06 466.44,-83.54"/>
</g>
<!-- Node12&#45;&gt;Node4 -->
<g id="edge19" class="edge">
<title>Node12&#45;&gt;Node4</title>
<path fill="none" stroke="#63b8ff" d="M515.04,-177.34C470.48,-176.9 374.7,-171.05 306.62,-132 287.16,-120.83 270.99,-100.54 260.91,-85.59"/>
<polygon fill="#63b8ff" stroke="#63b8ff" points="264.09,-84.07 255.75,-77.55 258.2,-87.85 264.09,-84.07"/>
</g>
<!-- Node13 -->
<g id="node13" class="node">
<title>Node13</title>
<g id="a_node13"><a xlink:title=" ">
<polygon fill="#e0e0e0" stroke="#999999" points="665.38,-132 593.88,-132 593.88,-112 665.38,-112 665.38,-132"/>
<text xml:space="preserve" text-anchor="middle" x="629.62" y="-118.5" font-family="Helvetica,sans-Serif" font-size="10.00">robin_hood.h</text>
</a>
</g>
</g>
<!-- Node12&#45;&gt;Node13 -->
<g id="edge18" class="edge">
<title>Node12&#45;&gt;Node13</title>
<path fill="none" stroke="#63b8ff" d="M555.3,-167.59C568.77,-159.51 588.44,-147.71 604.17,-138.27"/>
<polygon fill="#63b8ff" stroke="#63b8ff" points="605.75,-141.4 612.53,-133.26 602.15,-135.4 605.75,-141.4"/>
</g>
<!-- Node14 -->
<g id="node14" class="node">
<title>Node14</title>
<g id="a_node14"><a xlink:href="a00263.html" target="_top" xlink:title="Contains definitions for the Edge structure.">
<polygon fill="white" stroke="#666666" points="537.25,-132 492,-132 492,-112 537.25,-112 537.25,-132"/>
<text xml:space="preserve" text-anchor="middle" x="514.62" y="-118.5" font-family="Helvetica,sans-Serif" font-size="10.00">edge.h</text>
</a>
</g>
</g>
<!-- Node12&#45;&gt;Node14 -->
<g id="edge20" class="edge">
<title>Node12&#45;&gt;Node14</title>
<path fill="none" stroke="#63b8ff" d="M535.27,-167.59C532.08,-160.7 527.64,-151.1 523.69,-142.57"/>
<polygon fill="#63b8ff" stroke="#63b8ff" points="526.94,-141.28 519.57,-133.67 520.59,-144.22 526.94,-141.28"/>
</g>
<!-- Node12&#45;&gt;Node15 -->
<g id="edge25" class="edge">
<title>Node12&#45;&gt;Node15</title>
<path fill="none" stroke="#63b8ff" d="M541.59,-167.62C545.29,-149.92 553.38,-111.24 558.38,-87.32"/>
<polygon fill="#63b8ff" stroke="#63b8ff" points="561.74,-88.34 560.36,-77.84 554.89,-86.91 561.74,-88.34"/>
</g>
<!-- Node17 -->
<g id="node17" class="node">
<title>Node17</title>
<g id="a_node17"><a xlink:href="a00281.html" target="_top" xlink:title="Contains definitions for the Path structure.">
<polygon fill="white" stroke="#666666" points="726.12,-132 683.12,-132 683.12,-112 726.12,-112 726.12,-132"/>
<text xml:space="preserve" text-anchor="middle" x="704.62" y="-118.5" font-family="Helvetica,sans-Serif" font-size="10.00">path.h</text>
</a>
</g>
</g>
<!-- Node12&#45;&gt;Node17 -->
<g id="edge26" class="edge">
<title>Node12&#45;&gt;Node17</title>
<path fill="none" stroke="#63b8ff" d="M563.97,-169.03C592.55,-159.68 640.08,-144.12 671.88,-133.72"/>
<polygon fill="#63b8ff" stroke="#63b8ff" points="672.96,-137.05 681.38,-130.61 670.78,-130.39 672.96,-137.05"/>
</g>
<!-- Node18 -->
<g id="node18" class="node">
<title>Node18</title>
<g id="a_node18"><a xlink:title=" ">
<polygon fill="#e0e0e0" stroke="#999999" points="814.38,-76 760.88,-76 760.88,-56 814.38,-56 814.38,-76"/>
<text xml:space="preserve" text-anchor="middle" x="787.62" y="-62.5" font-family="Helvetica,sans-Serif" font-size="10.00">iostream</text>
</a>
</g>
</g>
<!-- Node12&#45;&gt;Node18 -->
<g id="edge32" class="edge">
<title>Node12&#45;&gt;Node18</title>
<path fill="none" stroke="#63b8ff" d="M564.19,-176.45C603.35,-174.51 681.08,-166.26 735.62,-132 753.74,-120.62 768.3,-100.66 777.35,-85.85"/>
<polygon fill="#63b8ff" stroke="#63b8ff" points="780.21,-87.9 782.18,-77.49 774.15,-84.39 780.21,-87.9"/>
</g>
<!-- Node21 -->
<g id="node21" class="node">
<title>Node21</title>
<g id="a_node21"><a xlink:title=" ">
<polygon fill="#e0e0e0" stroke="#999999" points="474,-132 433.25,-132 433.25,-112 474,-112 474,-132"/>
<text xml:space="preserve" text-anchor="middle" x="453.62" y="-118.5" font-family="Helvetica,sans-Serif" font-size="10.00">Eigen</text>
</a>
</g>
</g>
<!-- Node12&#45;&gt;Node21 -->
<g id="edge31" class="edge">
<title>Node12&#45;&gt;Node21</title>
<path fill="none" stroke="#63b8ff" d="M524.64,-167.59C511.9,-159.59 493.33,-147.93 478.38,-138.54"/>
<polygon fill="#63b8ff" stroke="#63b8ff" points="480.33,-135.64 470,-133.28 476.61,-141.57 480.33,-135.64"/>
</g>
<!-- Node14&#45;&gt;Node4 -->
<g id="edge24" class="edge">
<title>Node14&#45;&gt;Node4</title>
<path fill="none" stroke="#63b8ff" d="M491.61,-114.28C488.6,-113.47 485.55,-112.69 482.62,-112 411.97,-95.27 328.16,-80.25 282.8,-72.51"/>
<polygon fill="#63b8ff" stroke="#63b8ff" points="283.53,-69.08 273.09,-70.87 282.37,-75.99 283.53,-69.08"/>
</g>
<!-- Node14&#45;&gt;Node15 -->
<g id="edge21" class="edge">
<title>Node14&#45;&gt;Node15</title>
<path fill="none" stroke="#63b8ff" d="M522.99,-111.59C529.52,-104.24 538.81,-93.8 546.74,-84.87"/>
<polygon fill="#63b8ff" stroke="#63b8ff" points="549.33,-87.23 553.35,-77.43 544.09,-82.58 549.33,-87.23"/>
</g>
<!-- Node15&#45;&gt;Node5 -->
<g id="edge22" class="edge">
<title>Node15&#45;&gt;Node5</title>
<path fill="none" stroke="#63b8ff" d="M539.66,-58.56C535.98,-57.64 532.21,-56.75 528.62,-56 433.19,-36.12 318.62,-21.09 265.04,-14.57"/>
<polygon fill="#63b8ff" stroke="#63b8ff" points="265.52,-11.1 255.17,-13.38 264.68,-18.05 265.52,-11.1"/>
</g>
<!-- Node16 -->
<g id="node16" class="node">
<title>Node16</title>
<g id="a_node16"><a xlink:title=" ">
<polygon fill="#e0e0e0" stroke="#999999" points="588.25,-20 537,-20 537,0 588.25,0 588.25,-20"/>
<text xml:space="preserve" text-anchor="middle" x="562.62" y="-6.5" font-family="Helvetica,sans-Serif" font-size="10.00">ostream</text>
</a>
</g>
</g>
<!-- Node15&#45;&gt;Node16 -->
<g id="edge23" class="edge">
<title>Node15&#45;&gt;Node16</title>
<path fill="none" stroke="#63b8ff" d="M562.62,-55.59C562.62,-49.01 562.62,-39.96 562.62,-31.73"/>
<polygon fill="#63b8ff" stroke="#63b8ff" points="566.13,-31.81 562.63,-21.81 559.13,-31.81 566.13,-31.81"/>
</g>
<!-- Node17&#45;&gt;Node4 -->
<g id="edge27" class="edge">
<title>Node17&#45;&gt;Node4</title>
<path fill="none" stroke="#63b8ff" d="M682.79,-113.93C680.06,-113.2 677.29,-112.53 674.62,-112 518.64,-81.01 476.6,-94.29 318.62,-76 306.87,-74.64 294,-73 282.6,-71.5"/>
<polygon fill="#63b8ff" stroke="#63b8ff" points="283.23,-68.05 272.86,-70.2 282.31,-74.99 283.23,-68.05"/>
</g>
<!-- Node17&#45;&gt;Node18 -->
<g id="edge28" class="edge">
<title>Node17&#45;&gt;Node18</title>
<path fill="none" stroke="#63b8ff" d="M719.08,-111.59C731.38,-103.59 749.3,-91.93 763.73,-82.54"/>
<polygon fill="#63b8ff" stroke="#63b8ff" points="765.31,-85.69 771.79,-77.3 761.5,-79.82 765.31,-85.69"/>
</g>
<!-- Node19 -->
<g id="node19" class="node">
<title>Node19</title>
<g id="a_node19"><a xlink:href="a00251.html" target="_top" xlink:title="Contains definitions for the HF::SpatialStructures namespace.">
<polygon fill="white" stroke="#666666" points="738.12,-76 671.12,-76 671.12,-56 738.12,-56 738.12,-76"/>
<text xml:space="preserve" text-anchor="middle" x="704.62" y="-62.5" font-family="Helvetica,sans-Serif" font-size="10.00">constants.h</text>
</a>
</g>
</g>
<!-- Node17&#45;&gt;Node19 -->
<g id="edge29" class="edge">
<title>Node17&#45;&gt;Node19</title>
<path fill="none" stroke="#63b8ff" d="M704.62,-111.59C704.62,-105.01 704.62,-95.96 704.62,-87.73"/>
<polygon fill="#63b8ff" stroke="#63b8ff" points="708.13,-87.81 704.63,-77.81 701.13,-87.81 708.13,-87.81"/>
</g>
<!-- Node20 -->
<g id="node20" class="node">
<title>Node20</title>
<g id="a_node20"><a xlink:title=" ">
<polygon fill="#e0e0e0" stroke="#999999" points="726.12,-20 683.12,-20 683.12,0 726.12,0 726.12,-20"/>
<text xml:space="preserve" text-anchor="middle" x="704.62" y="-6.5" font-family="Helvetica,sans-Serif" font-size="10.00">cmath</text>
</a>
</g>
</g>
<!-- Node19&#45;&gt;Node20 -->
<g id="edge30" class="edge">
<title>Node19&#45;&gt;Node20</title>
<path fill="none" stroke="#63b8ff" d="M704.62,-55.59C704.62,-49.01 704.62,-39.96 704.62,-31.73"/>
<polygon fill="#63b8ff" stroke="#63b8ff" points="708.13,-31.81 704.63,-21.81 701.13,-31.81 708.13,-31.81"/>
</g>
<!-- Node23 -->
<g id="node23" class="node">
<title>Node23</title>
<g id="a_node23"><a xlink:title=" ">
<polygon fill="#e0e0e0" stroke="#999999" points="878.62,-132 820.62,-132 820.62,-112 878.62,-112 878.62,-132"/>
<text xml:space="preserve" text-anchor="middle" x="849.62" y="-118.5" font-family="Helvetica,sans-Serif" font-size="10.00">exception</text>
</a>
</g>
</g>
<!-- Node22&#45;&gt;Node23 -->
<g id="edge35" class="edge">
<title>Node22&#45;&gt;Node23</title>
<path fill="none" stroke="#63b8ff" d="M878.53,-167.59C873.91,-160.47 867.42,-150.45 861.76,-141.72"/>
<polygon fill="#63b8ff" stroke="#63b8ff" points="864.85,-140.06 856.47,-133.57 858.98,-143.86 864.85,-140.06"/>
</g>
<!-- Node24 -->
<g id="node24" class="node">
<title>Node24</title>
<g id="a_node24"><a xlink:title=" ">
<polygon fill="#e0e0e0" stroke="#999999" points="942.25,-132 897,-132 897,-112 942.25,-112 942.25,-132"/>
<text xml:space="preserve" text-anchor="middle" x="919.62" y="-118.5" font-family="Helvetica,sans-Serif" font-size="10.00">cstring</text>
</a>
</g>
</g>
<!-- Node22&#45;&gt;Node24 -->
<g id="edge36" class="edge">
<title>Node22&#45;&gt;Node24</title>
<path fill="none" stroke="#63b8ff" d="M890.72,-167.59C895.34,-160.47 901.83,-150.45 907.49,-141.72"/>
<polygon fill="#63b8ff" stroke="#63b8ff" points="910.27,-143.86 912.78,-133.57 904.4,-140.06 910.27,-143.86"/>
</g>
<!-- Node25 -->
<g id="node25" class="node">
<title>Node25</title>
<g id="a_node25"><a xlink:title=" ">
<polygon fill="#e0e0e0" stroke="#999999" points="1019,-132 960.25,-132 960.25,-112 1019,-112 1019,-132"/>
<text xml:space="preserve" text-anchor="middle" x="989.62" y="-118.5" font-family="Helvetica,sans-Serif" font-size="10.00">stdexcept</text>
</a>
</g>
</g>
<!-- Node22&#45;&gt;Node25 -->
<g id="edge37" class="edge">
<title>Node22&#45;&gt;Node25</title>
<path fill="none" stroke="#63b8ff" d="M902.91,-167.59C918.93,-159.36 942.46,-147.26 960.97,-137.74"/>
<polygon fill="#63b8ff" stroke="#63b8ff" points="962.55,-140.86 969.85,-133.17 959.35,-134.63 962.55,-140.86"/>
</g>
</g>
</svg>
