<?xml version="1.0" encoding="UTF-8" standalone="no"?>
<!DOCTYPE svg PUBLIC "-//W3C//DTD SVG 1.1//EN"
 "http://www.w3.org/Graphics/SVG/1.1/DTD/svg11.dtd">
<!-- Generated by graphviz version 13.1.2 (20250808.2320)
 -->
<!-- Title: HF::GraphGenerator::GeometryFlagMap::DetermineFilterMode Pages: 1 -->
<svg width="579pt" height="90pt"
 viewBox="0.00 0.00 579.00 90.00" xmlns="http://www.w3.org/2000/svg" xmlns:xlink="http://www.w3.org/1999/xlink">
<g id="graph0" class="graph" transform="scale(1 1) rotate(0) translate(4 86)">
<title>HF::GraphGenerator::GeometryFlagMap::DetermineFilterMode</title>
<!-- Node1 -->
<g id="node1" class="node">
<title>Node1</title>
<g id="a_node1"><a xlink:title="Set the filter mode of this GeometryFlagMap based on the input types.">
<polygon fill="#999999" stroke="#666666" points="570.75,-63 417.5,-63 417.5,-19 570.75,-19 570.75,-63"/>
<text xml:space="preserve" text-anchor="start" x="425.5" y="-49.5" font-family="Helvetica,sans-Serif" font-size="10.00">HF::GraphGenerator</text>
<text xml:space="preserve" text-anchor="start" x="425.5" y="-37.5" font-family="Helvetica,sans-Serif" font-size="10.00">::GeometryFlagMap::Determine</text>
<text xml:space="preserve" text-anchor="middle" x="494.12" y="-25.5" font-family="Helvetica,sans-Serif" font-size="10.00">FilterMode</text>
</a>
</g>
</g>
<!-- Node2 -->
<g id="node2" class="node">
<title>Node2</title>
<g id="a_node2"><a xlink:href="a01299.html#a5f5b32d65d3d43143915633c8411acaf" target="_top" xlink:title="Set geometry ids as being walkable or obstacles.">
<polygon fill="white" stroke="#666666" points="381.5,-57 202,-57 202,-25 381.5,-25 381.5,-57"/>
<text xml:space="preserve" text-anchor="start" x="210" y="-43.5" font-family="Helvetica,sans-Serif" font-size="10.00">HF::GraphGenerator</text>
<text xml:space="preserve" text-anchor="middle" x="291.75" y="-31.5" font-family="Helvetica,sans-Serif" font-size="10.00">::GeometryFlagMap::SetGeometryIds</text>
</a>
</g>
</g>
<!-- Node1&#45;&gt;Node2 -->
<g id="edge1" class="edge">
<title>Node1&#45;&gt;Node2</title>
<path fill="none" stroke="#63b8ff" d="M405.63,-41C397.74,-41 389.75,-41 381.85,-41"/>
<polygon fill="#63b8ff" stroke="#63b8ff" points="405.57,-44.5 415.57,-41 405.57,-37.5 405.57,-44.5"/>
</g>
<!-- Node3 -->
<g id="node3" class="node">
<title>Node3</title>
<g id="a_node3"><a xlink:href="a01311.html#a804c4c9a8169aa9901cb32ee0f64c555" target="_top" xlink:title="Construct a new graph generator with a specific raytracer.">
<polygon fill="white" stroke="#666666" points="166,-82 0,-82 0,-50 166,-50 166,-82"/>
<text xml:space="preserve" text-anchor="start" x="8" y="-68.5" font-family="Helvetica,sans-Serif" font-size="10.00">HF::GraphGenerator</text>
<text xml:space="preserve" text-anchor="middle" x="83" y="-56.5" font-family="Helvetica,sans-Serif" font-size="10.00">::GraphGenerator::GraphGenerator</text>
</a>
</g>
</g>
<!-- Node2&#45;&gt;Node3 -->
<g id="edge2" class="edge">
<title>Node2&#45;&gt;Node3</title>
<path fill="none" stroke="#63b8ff" d="M190.28,-53.15C182.26,-54.12 174.23,-55.09 166.36,-56.04"/>
<polygon fill="#63b8ff" stroke="#63b8ff" points="190.56,-56.64 200.07,-51.97 189.72,-49.69 190.56,-56.64"/>
</g>
<!-- Node4 -->
<g id="node4" class="node">
<title>Node4</title>
<g id="a_node4"><a xlink:href="a00463.html#a124a96c53ed2021db9d819369fe6b7ad" target="_top" xlink:title="Converts the raytracer to a multiRT if required, then map geometry ids to hitflags.">
<polygon fill="white" stroke="#666666" points="135.25,-32 30.75,-32 30.75,0 135.25,0 135.25,-32"/>
<text xml:space="preserve" text-anchor="start" x="38.75" y="-18.5" font-family="Helvetica,sans-Serif" font-size="10.00">HF::GraphGenerator</text>
<text xml:space="preserve" text-anchor="middle" x="83" y="-6.5" font-family="Helvetica,sans-Serif" font-size="10.00">::setupRT</text>
</a>
</g>
</g>
<!-- Node2&#45;&gt;Node4 -->
<g id="edge3" class="edge">
<title>Node2&#45;&gt;Node4</title>
<path fill="none" stroke="#63b8ff" d="M190.17,-28.84C171.28,-26.55 152.27,-24.26 135.66,-22.25"/>
<polygon fill="#63b8ff" stroke="#63b8ff" points="189.72,-32.31 200.07,-30.03 190.56,-25.36 189.72,-32.31"/>
</g>
</g>
</svg>
