<?xml version="1.0" encoding="UTF-8" standalone="no"?>
<!DOCTYPE svg PUBLIC "-//W3C//DTD SVG 1.1//EN"
 "http://www.w3.org/Graphics/SVG/1.1/DTD/svg11.dtd">
<!-- Generated by graphviz version 13.1.2 (20250808.2320)
 -->
<!-- Title: HF::GraphGenerator::GeometryFlagMap Pages: 1 -->
<svg width="232pt" height="188pt"
 viewBox="0.00 0.00 232.00 188.00" xmlns="http://www.w3.org/2000/svg" xmlns:xlink="http://www.w3.org/1999/xlink">
<g id="graph0" class="graph" transform="scale(1 1) rotate(0) translate(4 184)">
<title>HF::GraphGenerator::GeometryFlagMap</title>
<!-- Node1 -->
<g id="node1" class="node">
<title>Node1</title>
<g id="a_node1"><a xlink:title="Manages rules and ids for different types of geometry in the graph generator.">
<polygon fill="#999999" stroke="#666666" points="163.38,-32 58.88,-32 58.88,0 163.38,0 163.38,-32"/>
<text xml:space="preserve" text-anchor="start" x="66.88" y="-18.5" font-family="Helvetica,sans-Serif" font-size="10.00">HF::GraphGenerator</text>
<text xml:space="preserve" text-anchor="middle" x="111.12" y="-6.5" font-family="Helvetica,sans-Serif" font-size="10.00">::GeometryFlagMap</text>
</a>
</g>
</g>
<!-- Node2 -->
<g id="node2" class="node">
<title>Node2</title>
<g id="a_node2"><a xlink:title=" ">
<polygon fill="white" stroke="#666666" points="102.25,-112 0,-112 0,-80 102.25,-80 102.25,-112"/>
<text xml:space="preserve" text-anchor="start" x="8" y="-98.5" font-family="Helvetica,sans-Serif" font-size="10.00">std::unordered_map</text>
<text xml:space="preserve" text-anchor="middle" x="51.12" y="-86.5" font-family="Helvetica,sans-Serif" font-size="10.00">&lt; int, HIT_FLAG &gt;</text>
</a>
</g>
</g>
<!-- Node2&#45;&gt;Node1 -->
<g id="edge1" class="edge">
<title>Node2&#45;&gt;Node1</title>
<path fill="none" stroke="#9a32cd" stroke-dasharray="5,2" d="M58.29,-69.12C60.84,-62.51 64.15,-55.68 68.38,-50 73.3,-43.38 79.89,-37.41 86.42,-32.43"/>
<polygon fill="#9a32cd" stroke="#9a32cd" points="55.05,-67.76 55.19,-78.36 61.69,-69.99 55.05,-67.76"/>
<text xml:space="preserve" text-anchor="middle" x="109.25" y="-52.5" font-family="Helvetica,sans-Serif" font-size="10.00"> internal_dictionary</text>
</g>
<!-- Node3 -->
<g id="node3" class="node">
<title>Node3</title>
<g id="a_node3"><a xlink:title=" ">
<polygon fill="white" stroke="#666666" points="33.52,-180 4.72,-180 4.72,-160 33.52,-160 33.52,-180"/>
<text xml:space="preserve" text-anchor="middle" x="19.12" y="-166.5" font-family="Helvetica,sans-Serif" font-size="10.00">int</text>
</a>
</g>
</g>
<!-- Node3&#45;&gt;Node2 -->
<g id="edge2" class="edge">
<title>Node3&#45;&gt;Node2</title>
<path fill="none" stroke="#9a32cd" stroke-dasharray="5,2" d="M27.93,-149.19C33.08,-137.61 39.48,-123.21 44.25,-112.47"/>
<polygon fill="#9a32cd" stroke="#9a32cd" points="24.79,-147.64 23.92,-158.2 31.18,-150.49 24.79,-147.64"/>
<text xml:space="preserve" text-anchor="middle" x="48.08" y="-132.5" font-family="Helvetica,sans-Serif" font-size="10.00"> keys</text>
</g>
<!-- Node4 -->
<g id="node4" class="node">
<title>Node4</title>
<g id="a_node4"><a xlink:title=" ">
<polygon fill="white" stroke="#666666" points="114.75,-180 51.5,-180 51.5,-160 114.75,-160 114.75,-180"/>
<text xml:space="preserve" text-anchor="middle" x="83.12" y="-166.5" font-family="Helvetica,sans-Serif" font-size="10.00">HIT_FLAG</text>
</a>
</g>
</g>
<!-- Node4&#45;&gt;Node2 -->
<g id="edge3" class="edge">
<title>Node4&#45;&gt;Node2</title>
<path fill="none" stroke="#9a32cd" stroke-dasharray="5,2" d="M74.32,-149.19C69.17,-137.61 62.77,-123.21 58,-112.47"/>
<polygon fill="#9a32cd" stroke="#9a32cd" points="71.07,-150.49 78.33,-158.2 77.46,-147.64 71.07,-150.49"/>
<text xml:space="preserve" text-anchor="middle" x="92.31" y="-132.5" font-family="Helvetica,sans-Serif" font-size="10.00"> elements</text>
</g>
<!-- Node5 -->
<g id="node5" class="node">
<title>Node5</title>
<g id="a_node5"><a xlink:title=" ">
<polygon fill="white" stroke="#666666" points="224.38,-106 119.88,-106 119.88,-86 224.38,-86 224.38,-106"/>
<text xml:space="preserve" text-anchor="middle" x="172.12" y="-92.5" font-family="Helvetica,sans-Serif" font-size="10.00">GeometryFilterMode</text>
</a>
</g>
</g>
<!-- Node5&#45;&gt;Node1 -->
<g id="edge4" class="edge">
<title>Node5&#45;&gt;Node1</title>
<path fill="none" stroke="#9a32cd" stroke-dasharray="5,2" d="M164.57,-75.17C160.9,-66.94 156.01,-57.55 150.12,-50 145.11,-43.56 138.66,-37.49 132.46,-32.35"/>
<polygon fill="#9a32cd" stroke="#9a32cd" points="161.3,-76.43 168.33,-84.35 167.77,-73.77 161.3,-76.43"/>
<text xml:space="preserve" text-anchor="middle" x="171.17" y="-52.5" font-family="Helvetica,sans-Serif" font-size="10.00"> Mode</text>
</g>
</g>
</svg>
