<?xml version="1.0" encoding="UTF-8" standalone="no"?>
<!DOCTYPE svg PUBLIC "-//W3C//DTD SVG 1.1//EN"
 "http://www.w3.org/Graphics/SVG/1.1/DTD/svg11.dtd">
<!-- Generated by graphviz version 13.1.2 (20250808.2320)
 -->
<!-- Title: HF::Pathfinding::vertex_data Pages: 1 -->
<svg width="167pt" height="96pt"
 viewBox="0.00 0.00 167.00 96.00" xmlns="http://www.w3.org/2000/svg" xmlns:xlink="http://www.w3.org/1999/xlink">
<g id="graph0" class="graph" transform="scale(1 1) rotate(0) translate(4 92)">
<title>HF::Pathfinding::vertex_data</title>
<!-- Node1 -->
<g id="node1" class="node">
<title>Node1</title>
<g id="a_node1"><a xlink:title="Data stored for every vertex in the BoostGraph.">
<polygon fill="#999999" stroke="#666666" points="159.12,-20 17.88,-20 17.88,0 159.12,0 159.12,-20"/>
<text xml:space="preserve" text-anchor="middle" x="88.5" y="-6.5" font-family="Helvetica,sans-Serif" font-size="10.00">HF::Pathfinding::vertex_data</text>
</a>
</g>
</g>
<!-- Node2 -->
<g id="node2" class="node">
<title>Node2</title>
<g id="a_node2"><a xlink:title=" ">
<polygon fill="white" stroke="#666666" points="91,-88 0,-88 0,-68 91,-68 91,-88"/>
<text xml:space="preserve" text-anchor="middle" x="45.5" y="-74.5" font-family="Helvetica,sans-Serif" font-size="10.00">vertex_descriptor</text>
</a>
</g>
</g>
<!-- Node2&#45;&gt;Node1 -->
<g id="edge1" class="edge">
<title>Node2&#45;&gt;Node1</title>
<path fill="none" stroke="#9a32cd" stroke-dasharray="5,2" d="M57.78,-58.15C65.82,-45.82 75.97,-30.23 82.35,-20.44"/>
<polygon fill="#9a32cd" stroke="#9a32cd" points="55.01,-55.99 52.49,-66.28 60.88,-59.81 55.01,-55.99"/>
<text xml:space="preserve" text-anchor="middle" x="74.98" y="-40.5" font-family="Helvetica,sans-Serif" font-size="10.00"> p</text>
</g>
<!-- Node3 -->
<g id="node3" class="node">
<title>Node3</title>
<g id="a_node3"><a xlink:href="a00001.html#a02139" target="_top" xlink:title=" ">
<polygon fill="white" stroke="#666666" points="153.75,-88 109.25,-88 109.25,-68 153.75,-68 153.75,-88"/>
<text xml:space="preserve" text-anchor="middle" x="131.5" y="-74.5" font-family="Helvetica,sans-Serif" font-size="10.00">double</text>
</a>
</g>
</g>
<!-- Node3&#45;&gt;Node1 -->
<g id="edge2" class="edge">
<title>Node3&#45;&gt;Node1</title>
<path fill="none" stroke="#9a32cd" stroke-dasharray="5,2" d="M119.22,-58.15C111.18,-45.82 101.03,-30.23 94.65,-20.44"/>
<polygon fill="#9a32cd" stroke="#9a32cd" points="116.12,-59.81 124.51,-66.28 121.99,-55.99 116.12,-59.81"/>
<text xml:space="preserve" text-anchor="middle" x="117.98" y="-40.5" font-family="Helvetica,sans-Serif" font-size="10.00"> d</text>
</g>
</g>
</svg>
