<?xml version="1.0" encoding="UTF-8" standalone="no"?>
<!DOCTYPE svg PUBLIC "-//W3C//DTD SVG 1.1//EN"
 "http://www.w3.org/Graphics/SVG/1.1/DTD/svg11.dtd">
<!-- Generated by graphviz version 13.1.2 (20250808.2320)
 -->
<!-- Title: HF::GraphGenerator::GraphGenerator::CrawlGeom Pages: 1 -->
<svg width="952pt" height="464pt"
 viewBox="0.00 0.00 952.00 464.00" xmlns="http://www.w3.org/2000/svg" xmlns:xlink="http://www.w3.org/1999/xlink">
<g id="graph0" class="graph" transform="scale(1 1) rotate(0) translate(4 460)">
<title>HF::GraphGenerator::GraphGenerator::CrawlGeom</title>
<!-- Node1 -->
<g id="node1" class="node">
<title>Node1</title>
<g id="a_node1"><a xlink:title="Perform breadth first search to populate the graph with with nodes and edges.">
<polygon fill="#999999" stroke="#666666" points="148.75,-245 0,-245 0,-213 148.75,-213 148.75,-245"/>
<text xml:space="preserve" text-anchor="start" x="8" y="-231.5" font-family="Helvetica,sans-Serif" font-size="10.00">HF::GraphGenerator</text>
<text xml:space="preserve" text-anchor="middle" x="74.38" y="-219.5" font-family="Helvetica,sans-Serif" font-size="10.00">::GraphGenerator::CrawlGeom</text>
</a>
</g>
</g>
<!-- Node2 -->
<g id="node2" class="node">
<title>Node2</title>
<g id="a_node2"><a xlink:href="a01551.html#a37be5c12e488072dea7fa1c8c64346f7" target="_top" xlink:title="Add a new edge to the graph from parent to child.">
<polygon fill="white" stroke="#666666" points="308,-420 197.5,-420 197.5,-388 308,-388 308,-420"/>
<text xml:space="preserve" text-anchor="start" x="205.5" y="-406.5" font-family="Helvetica,sans-Serif" font-size="10.00">HF::SpatialStructures</text>
<text xml:space="preserve" text-anchor="middle" x="252.75" y="-394.5" font-family="Helvetica,sans-Serif" font-size="10.00">::Graph::addEdge</text>
</a>
</g>
</g>
<!-- Node1&#45;&gt;Node2 -->
<g id="edge1" class="edge">
<title>Node1&#45;&gt;Node2</title>
<path fill="none" stroke="#63b8ff" d="M83.22,-245.43C98.58,-275.93 135.45,-341.6 184.75,-379 186.08,-380.01 187.45,-380.98 188.86,-381.91"/>
<polygon fill="#63b8ff" stroke="#63b8ff" points="186.91,-384.82 197.31,-386.82 190.42,-378.77 186.91,-384.82"/>
</g>
<!-- Node3 -->
<g id="node3" class="node">
<title>Node3</title>
<g id="a_node3"><a xlink:href="a00463.html#a58892abe1152c28d26d3ca749c99ea4d" target="_top" xlink:title="Cast an array of 3 values to the graph_generator&#39;s real_3 type.">
<polygon fill="white" stroke="#666666" points="305,-370 200.5,-370 200.5,-338 305,-338 305,-370"/>
<text xml:space="preserve" text-anchor="start" x="208.5" y="-356.5" font-family="Helvetica,sans-Serif" font-size="10.00">HF::GraphGenerator</text>
<text xml:space="preserve" text-anchor="middle" x="252.75" y="-344.5" font-family="Helvetica,sans-Serif" font-size="10.00">::CastToReal3</text>
</a>
</g>
</g>
<!-- Node1&#45;&gt;Node3 -->
<g id="edge2" class="edge">
<title>Node1&#45;&gt;Node3</title>
<path fill="none" stroke="#63b8ff" d="M89.43,-245.27C108.91,-266.97 146.12,-305.37 184.75,-329 186.78,-330.24 188.88,-331.43 191.02,-332.58"/>
<polygon fill="#63b8ff" stroke="#63b8ff" points="189.47,-335.72 199.99,-336.96 192.54,-329.43 189.47,-335.72"/>
</g>
<!-- Node5 -->
<g id="node5" class="node">
<title>Node5</title>
<g id="a_node5"><a xlink:href="a00463.html#aefd344ebb2faadc64a56a16dc8582026" target="_top" xlink:title="Create a set of directions based on max_step_connections.">
<polygon fill="white" stroke="#666666" points="305,-320 200.5,-320 200.5,-288 305,-288 305,-320"/>
<text xml:space="preserve" text-anchor="start" x="208.5" y="-306.5" font-family="Helvetica,sans-Serif" font-size="10.00">HF::GraphGenerator</text>
<text xml:space="preserve" text-anchor="middle" x="252.75" y="-294.5" font-family="Helvetica,sans-Serif" font-size="10.00">::CreateDirecs</text>
</a>
</g>
</g>
<!-- Node1&#45;&gt;Node5 -->
<g id="edge4" class="edge">
<title>Node1&#45;&gt;Node5</title>
<path fill="none" stroke="#63b8ff" d="M109.58,-245.4C131.01,-255.48 159.29,-268.45 184.75,-279 188.36,-280.5 192.09,-282 195.86,-283.49"/>
<polygon fill="#63b8ff" stroke="#63b8ff" points="194.53,-286.73 205.12,-287.08 197.06,-280.2 194.53,-286.73"/>
</g>
<!-- Node7 -->
<g id="node7" class="node">
<title>Node7</title>
<g id="a_node7"><a xlink:href="a01315.html#ab659349de3391b0e2327f3736135752f" target="_top" xlink:title="Tell if the queue is empty.">
<polygon fill="white" stroke="#666666" points="309.88,-270 195.62,-270 195.62,-238 309.88,-238 309.88,-270"/>
<text xml:space="preserve" text-anchor="start" x="203.62" y="-256.5" font-family="Helvetica,sans-Serif" font-size="10.00">HF::GraphGenerator</text>
<text xml:space="preserve" text-anchor="middle" x="252.75" y="-244.5" font-family="Helvetica,sans-Serif" font-size="10.00">::UniqueQueue::empty</text>
</a>
</g>
</g>
<!-- Node1&#45;&gt;Node7 -->
<g id="edge6" class="edge">
<title>Node1&#45;&gt;Node7</title>
<path fill="none" stroke="#63b8ff" d="M149.15,-239.46C160.69,-241.09 172.57,-242.78 183.97,-244.39"/>
<polygon fill="#63b8ff" stroke="#63b8ff" points="183.28,-247.83 193.68,-245.77 184.27,-240.9 183.28,-247.83"/>
</g>
<!-- Node9 -->
<g id="node9" class="node">
<title>Node9</title>
<g id="a_node9"><a xlink:href="a00463.html#a41e03f9bab54e4e0d1314c6a4bdf2ec1" target="_top" xlink:title="Populare out_children with a potential child position for every direction in directions.">
<polygon fill="white" stroke="#666666" points="320.75,-220 184.75,-220 184.75,-188 320.75,-188 320.75,-220"/>
<text xml:space="preserve" text-anchor="start" x="192.75" y="-206.5" font-family="Helvetica,sans-Serif" font-size="10.00">HF::GraphGenerator</text>
<text xml:space="preserve" text-anchor="middle" x="252.75" y="-194.5" font-family="Helvetica,sans-Serif" font-size="10.00">::GeneratePotentialChildren</text>
</a>
</g>
</g>
<!-- Node1&#45;&gt;Node9 -->
<g id="edge8" class="edge">
<title>Node1&#45;&gt;Node9</title>
<path fill="none" stroke="#63b8ff" d="M149.15,-218.54C157.11,-217.41 165.22,-216.26 173.23,-215.13"/>
<polygon fill="#63b8ff" stroke="#63b8ff" points="173.55,-218.62 182.96,-213.75 172.57,-211.69 173.55,-218.62"/>
</g>
<!-- Node10 -->
<g id="node10" class="node">
<title>Node10</title>
<g id="a_node10"><a xlink:href="a00463.html#ab7ffcc7d6657ce276c06deed24c546a4" target="_top" xlink:title="Calculate all possible edges between parent and possible_children.">
<polygon fill="white" stroke="#666666" points="305,-170 200.5,-170 200.5,-138 305,-138 305,-170"/>
<text xml:space="preserve" text-anchor="start" x="208.5" y="-156.5" font-family="Helvetica,sans-Serif" font-size="10.00">HF::GraphGenerator</text>
<text xml:space="preserve" text-anchor="middle" x="252.75" y="-144.5" font-family="Helvetica,sans-Serif" font-size="10.00">::GetChildren</text>
</a>
</g>
</g>
<!-- Node1&#45;&gt;Node10 -->
<g id="edge9" class="edge">
<title>Node1&#45;&gt;Node10</title>
<path fill="none" stroke="#63b8ff" d="M109.58,-212.6C131.01,-202.52 159.29,-189.55 184.75,-179 188.36,-177.5 192.09,-176 195.86,-174.51"/>
<polygon fill="#63b8ff" stroke="#63b8ff" points="197.06,-177.8 205.12,-170.92 194.53,-171.27 197.06,-177.8"/>
</g>
<!-- Node25 -->
<g id="node25" class="node">
<title>Node25</title>
<g id="a_node25"><a xlink:href="a01315.html#a4aab642bf2c86a04f6890711ab7f2437" target="_top" xlink:title="Remove the topmost node from the queue and return it.">
<polygon fill="white" stroke="#666666" points="305,-120 200.5,-120 200.5,-88 305,-88 305,-120"/>
<text xml:space="preserve" text-anchor="start" x="208.5" y="-106.5" font-family="Helvetica,sans-Serif" font-size="10.00">HF::GraphGenerator</text>
<text xml:space="preserve" text-anchor="middle" x="252.75" y="-94.5" font-family="Helvetica,sans-Serif" font-size="10.00">::UniqueQueue::pop</text>
</a>
</g>
</g>
<!-- Node1&#45;&gt;Node25 -->
<g id="edge27" class="edge">
<title>Node1&#45;&gt;Node25</title>
<path fill="none" stroke="#63b8ff" d="M89.43,-212.73C108.91,-191.03 146.12,-152.63 184.75,-129 186.78,-127.76 188.88,-126.57 191.02,-125.42"/>
<polygon fill="#63b8ff" stroke="#63b8ff" points="192.54,-128.57 199.99,-121.04 189.47,-122.28 192.54,-128.57"/>
</g>
<!-- Node26 -->
<g id="node26" class="node">
<title>Node26</title>
<g id="a_node26"><a xlink:href="a01315.html#a35a8d70ffef5833ae214feaa89aaf220" target="_top" xlink:title="Call push with any type of object.">
<polygon fill="white" stroke="#666666" points="316.25,-51 189.25,-51 189.25,-19 316.25,-19 316.25,-51"/>
<text xml:space="preserve" text-anchor="start" x="197.25" y="-37.5" font-family="Helvetica,sans-Serif" font-size="10.00">HF::GraphGenerator</text>
<text xml:space="preserve" text-anchor="middle" x="252.75" y="-25.5" font-family="Helvetica,sans-Serif" font-size="10.00">::UniqueQueue::PushAny</text>
</a>
</g>
</g>
<!-- Node1&#45;&gt;Node26 -->
<g id="edge28" class="edge">
<title>Node1&#45;&gt;Node26</title>
<path fill="none" stroke="#63b8ff" d="M84.59,-212.65C101.64,-183.4 140.4,-121.23 184.75,-79 193.06,-71.08 202.98,-63.7 212.6,-57.33"/>
<polygon fill="#63b8ff" stroke="#63b8ff" points="214.22,-60.45 220.77,-52.12 210.46,-54.54 214.22,-60.45"/>
</g>
<!-- Node4 -->
<g id="node4" class="node">
<title>Node4</title>
<g id="a_node4"><a xlink:href="a00463.html#a73b53db067a504d36e9481dfe3326b60" target="_top" xlink:title="Cast an input value to real_t using static cast.">
<polygon fill="white" stroke="#666666" points="463.12,-370 358.62,-370 358.62,-338 463.12,-338 463.12,-370"/>
<text xml:space="preserve" text-anchor="start" x="366.62" y="-356.5" font-family="Helvetica,sans-Serif" font-size="10.00">HF::GraphGenerator</text>
<text xml:space="preserve" text-anchor="middle" x="410.88" y="-344.5" font-family="Helvetica,sans-Serif" font-size="10.00">::CastToReal</text>
</a>
</g>
</g>
<!-- Node3&#45;&gt;Node4 -->
<g id="edge3" class="edge">
<title>Node3&#45;&gt;Node4</title>
<path fill="none" stroke="#63b8ff" d="M305.3,-354C318.63,-354 333.12,-354 346.95,-354"/>
<polygon fill="#63b8ff" stroke="#63b8ff" points="346.86,-357.5 356.86,-354 346.86,-350.5 346.86,-357.5"/>
</g>
<!-- Node6 -->
<g id="node6" class="node">
<title>Node6</title>
<g id="a_node6"><a xlink:href="a00463.html#afe5670b4cb780fd3ccf2a0d72a2e3c2e" target="_top" xlink:title="Calculate P(n,r) as an array with each unique permutaton of 2 values being a pair.">
<polygon fill="white" stroke="#666666" points="463.12,-320 358.62,-320 358.62,-288 463.12,-288 463.12,-320"/>
<text xml:space="preserve" text-anchor="start" x="366.62" y="-306.5" font-family="Helvetica,sans-Serif" font-size="10.00">HF::GraphGenerator</text>
<text xml:space="preserve" text-anchor="middle" x="410.88" y="-294.5" font-family="Helvetica,sans-Serif" font-size="10.00">::permutations</text>
</a>
</g>
</g>
<!-- Node5&#45;&gt;Node6 -->
<g id="edge5" class="edge">
<title>Node5&#45;&gt;Node6</title>
<path fill="none" stroke="#63b8ff" d="M305.3,-304C318.63,-304 333.12,-304 346.95,-304"/>
<polygon fill="#63b8ff" stroke="#63b8ff" points="346.86,-307.5 356.86,-304 346.86,-300.5 346.86,-307.5"/>
</g>
<!-- Node8 -->
<g id="node8" class="node">
<title>Node8</title>
<g id="a_node8"><a xlink:href="a01315.html#a6d38edb96130bda3eb8126cc7501065f" target="_top" xlink:title="Determine how many nodes are currently in the queue.">
<polygon fill="white" stroke="#666666" points="463.5,-270 358.25,-270 358.25,-238 463.5,-238 463.5,-270"/>
<text xml:space="preserve" text-anchor="start" x="366.25" y="-256.5" font-family="Helvetica,sans-Serif" font-size="10.00">HF::GraphGenerator</text>
<text xml:space="preserve" text-anchor="middle" x="410.88" y="-244.5" font-family="Helvetica,sans-Serif" font-size="10.00">::UniqueQueue::size</text>
</a>
</g>
</g>
<!-- Node7&#45;&gt;Node8 -->
<g id="edge7" class="edge">
<title>Node7&#45;&gt;Node8</title>
<path fill="none" stroke="#63b8ff" d="M310.11,-254C321.9,-254 334.39,-254 346.41,-254"/>
<polygon fill="#63b8ff" stroke="#63b8ff" points="346.24,-257.5 356.24,-254 346.24,-250.5 346.24,-257.5"/>
</g>
<!-- Node11 -->
<g id="node11" class="node">
<title>Node11</title>
<g id="a_node11"><a xlink:href="a00463.html#a4b7cc0ad0002975404acef5064f4f546" target="_top" xlink:title="Determine whether children are over valid ground, and and meet upstep/downstep requirements.">
<polygon fill="white" stroke="#666666" points="463.12,-220 358.62,-220 358.62,-188 463.12,-188 463.12,-220"/>
<text xml:space="preserve" text-anchor="start" x="366.62" y="-206.5" font-family="Helvetica,sans-Serif" font-size="10.00">HF::GraphGenerator</text>
<text xml:space="preserve" text-anchor="middle" x="410.88" y="-194.5" font-family="Helvetica,sans-Serif" font-size="10.00">::CheckChildren</text>
</a>
</g>
</g>
<!-- Node10&#45;&gt;Node11 -->
<g id="edge10" class="edge">
<title>Node10&#45;&gt;Node11</title>
<path fill="none" stroke="#63b8ff" d="M304.87,-170.37C318.55,-174.75 333.48,-179.54 347.69,-184.08"/>
<polygon fill="#63b8ff" stroke="#63b8ff" points="346.34,-187.33 356.93,-187.04 348.47,-180.66 346.34,-187.33"/>
</g>
<!-- Node18 -->
<g id="node18" class="node">
<title>Node18</title>
<g id="a_node18"><a xlink:href="a00463.html#a260a25e02193ce904849ee090daefa2e" target="_top" xlink:title="Determine what kind of step (if any) is between parent and child, given that a connection was verifie...">
<polygon fill="white" stroke="#666666" points="463.12,-170 358.62,-170 358.62,-138 463.12,-138 463.12,-170"/>
<text xml:space="preserve" text-anchor="start" x="366.62" y="-156.5" font-family="Helvetica,sans-Serif" font-size="10.00">HF::GraphGenerator</text>
<text xml:space="preserve" text-anchor="middle" x="410.88" y="-144.5" font-family="Helvetica,sans-Serif" font-size="10.00">::CheckConnection</text>
</a>
</g>
</g>
<!-- Node10&#45;&gt;Node18 -->
<g id="edge18" class="edge">
<title>Node10&#45;&gt;Node18</title>
<path fill="none" stroke="#63b8ff" d="M305.3,-154C318.63,-154 333.12,-154 346.95,-154"/>
<polygon fill="#63b8ff" stroke="#63b8ff" points="346.86,-157.5 356.86,-154 346.86,-150.5 346.86,-157.5"/>
</g>
<!-- Node22 -->
<g id="node22" class="node">
<title>Node22</title>
<g id="a_node22"><a xlink:href="a00463.html#a7f96186b8f24f878404d1feccf2f64db" target="_top" xlink:title="Calculate the distance between two nodes.">
<polygon fill="white" stroke="#666666" points="756.88,-120 652.38,-120 652.38,-88 756.88,-88 756.88,-120"/>
<text xml:space="preserve" text-anchor="start" x="660.38" y="-106.5" font-family="Helvetica,sans-Serif" font-size="10.00">HF::GraphGenerator</text>
<text xml:space="preserve" text-anchor="middle" x="704.62" y="-94.5" font-family="Helvetica,sans-Serif" font-size="10.00">::DistanceTo</text>
</a>
</g>
</g>
<!-- Node10&#45;&gt;Node22 -->
<g id="edge25" class="edge">
<title>Node10&#45;&gt;Node22</title>
<path fill="none" stroke="#63b8ff" d="M305.28,-139.71C321.63,-135.66 339.84,-131.64 356.75,-129 455.21,-113.61 570.91,-107.67 640.68,-105.4"/>
<polygon fill="#63b8ff" stroke="#63b8ff" points="640.5,-108.9 650.39,-105.1 640.28,-101.91 640.5,-108.9"/>
</g>
<!-- Node24 -->
<g id="node24" class="node">
<title>Node24</title>
<g id="a_node24"><a xlink:href="a00463.html#abf1a3ae7dc89b3cf430e059a87fcd477" target="_top" xlink:title="Convert a point_type to a node.">
<polygon fill="white" stroke="#666666" points="463.12,-82 358.62,-82 358.62,-50 463.12,-50 463.12,-82"/>
<text xml:space="preserve" text-anchor="start" x="366.62" y="-68.5" font-family="Helvetica,sans-Serif" font-size="10.00">HF::GraphGenerator</text>
<text xml:space="preserve" text-anchor="middle" x="410.88" y="-56.5" font-family="Helvetica,sans-Serif" font-size="10.00">::ToNode</text>
</a>
</g>
</g>
<!-- Node10&#45;&gt;Node24 -->
<g id="edge26" class="edge">
<title>Node10&#45;&gt;Node24</title>
<path fill="none" stroke="#63b8ff" d="M304.15,-137.63C309.91,-135.05 315.56,-132.18 320.75,-129 339.26,-117.66 339.19,-108.75 356.75,-96 360.36,-93.38 364.22,-90.81 368.15,-88.34"/>
<polygon fill="#63b8ff" stroke="#63b8ff" points="369.88,-91.38 376.66,-83.24 366.28,-85.38 369.88,-91.38"/>
</g>
<!-- Node12 -->
<g id="node12" class="node">
<title>Node12</title>
<g id="a_node12"><a xlink:href="a00463.html#a74be560268a713fc9e9b8b4a453afa2f" target="_top" xlink:title="Cast a ray and get the point of intersection if it connects.">
<polygon fill="white" stroke="#666666" points="605.5,-338 501,-338 501,-306 605.5,-306 605.5,-338"/>
<text xml:space="preserve" text-anchor="start" x="509" y="-324.5" font-family="Helvetica,sans-Serif" font-size="10.00">HF::GraphGenerator</text>
<text xml:space="preserve" text-anchor="middle" x="553.25" y="-312.5" font-family="Helvetica,sans-Serif" font-size="10.00">::CheckRay</text>
</a>
</g>
</g>
<!-- Node11&#45;&gt;Node12 -->
<g id="edge11" class="edge">
<title>Node11&#45;&gt;Node12</title>
<path fill="none" stroke="#63b8ff" d="M451.15,-220.39C455.97,-223 460.71,-225.88 465,-229 491.59,-248.33 516.69,-276.52 533.08,-296.8"/>
<polygon fill="#63b8ff" stroke="#63b8ff" points="530.29,-298.91 539.24,-304.58 535.78,-294.57 530.29,-298.91"/>
</g>
<!-- Node13 -->
<g id="node13" class="node">
<title>Node13</title>
<g id="a_node13"><a xlink:href="a00463.html#ab731d597ee2a843f7b7cb1ccbae67782" target="_top" xlink:title="Determine if a hit is against the geometry type specified.">
<polygon fill="white" stroke="#666666" points="756.88,-456 652.38,-456 652.38,-424 756.88,-424 756.88,-456"/>
<text xml:space="preserve" text-anchor="start" x="660.38" y="-442.5" font-family="Helvetica,sans-Serif" font-size="10.00">HF::GraphGenerator</text>
<text xml:space="preserve" text-anchor="middle" x="704.62" y="-430.5" font-family="Helvetica,sans-Serif" font-size="10.00">::CheckGeometryID</text>
</a>
</g>
</g>
<!-- Node12&#45;&gt;Node13 -->
<g id="edge12" class="edge">
<title>Node12&#45;&gt;Node13</title>
<path fill="none" stroke="#63b8ff" d="M565.85,-338.17C581.16,-358.51 609.89,-393.38 641.5,-415 643.08,-416.08 644.72,-417.13 646.4,-418.14"/>
<polygon fill="#63b8ff" stroke="#63b8ff" points="644.57,-421.13 655.03,-422.82 647.91,-414.98 644.57,-421.13"/>
</g>
<!-- Node14 -->
<g id="node14" class="node">
<title>Node14</title>
<g id="a_node14"><a xlink:href="a01415.html#a3d86c2c8d8e0ec6bf63a653ec89807a8" target="_top" xlink:title="Determine whether or not this hitstruct contains a hit.">
<polygon fill="white" stroke="#666666" points="767.75,-406 641.5,-406 641.5,-374 767.75,-374 767.75,-406"/>
<text xml:space="preserve" text-anchor="start" x="649.5" y="-392.5" font-family="Helvetica,sans-Serif" font-size="10.00">HF::RayTracer::HitStruct</text>
<text xml:space="preserve" text-anchor="middle" x="704.62" y="-380.5" font-family="Helvetica,sans-Serif" font-size="10.00">::DidHit</text>
</a>
</g>
</g>
<!-- Node12&#45;&gt;Node14 -->
<g id="edge13" class="edge">
<title>Node12&#45;&gt;Node14</title>
<path fill="none" stroke="#63b8ff" d="M585.89,-338.31C602.33,-346.6 622.84,-356.66 641.5,-365 644.64,-366.4 647.88,-367.81 651.15,-369.21"/>
<polygon fill="#63b8ff" stroke="#63b8ff" points="649.7,-372.4 660.28,-373.03 652.4,-365.94 649.7,-372.4"/>
</g>
<!-- Node16 -->
<g id="node16" class="node">
<title>Node16</title>
<g id="a_node16"><a xlink:href="a01419.html#a7ee672618f7fe9ce6938978d93d18514" target="_top" xlink:title=" ">
<polygon fill="white" stroke="#666666" points="765.12,-338 644.12,-338 644.12,-306 765.12,-306 765.12,-338"/>
<text xml:space="preserve" text-anchor="start" x="652.12" y="-324.5" font-family="Helvetica,sans-Serif" font-size="10.00">HF::RayTracer::MultiRT</text>
<text xml:space="preserve" text-anchor="middle" x="704.62" y="-312.5" font-family="Helvetica,sans-Serif" font-size="10.00">::Intersect</text>
</a>
</g>
</g>
<!-- Node12&#45;&gt;Node16 -->
<g id="edge15" class="edge">
<title>Node12&#45;&gt;Node16</title>
<path fill="none" stroke="#63b8ff" d="M605.66,-322C614.26,-322 623.32,-322 632.32,-322"/>
<polygon fill="#63b8ff" stroke="#63b8ff" points="632.13,-325.5 642.13,-322 632.13,-318.5 632.13,-325.5"/>
</g>
<!-- Node17 -->
<g id="node17" class="node">
<title>Node17</title>
<g id="a_node17"><a xlink:href="a00463.html#a5ad3e8fac4a21eee744f3633f7a3692f" target="_top" xlink:title="Move a node in direction by dist units.">
<polygon fill="white" stroke="#666666" points="756.88,-288 652.38,-288 652.38,-256 756.88,-256 756.88,-288"/>
<text xml:space="preserve" text-anchor="start" x="660.38" y="-274.5" font-family="Helvetica,sans-Serif" font-size="10.00">HF::GraphGenerator</text>
<text xml:space="preserve" text-anchor="middle" x="704.62" y="-262.5" font-family="Helvetica,sans-Serif" font-size="10.00">::MoveNode</text>
</a>
</g>
</g>
<!-- Node12&#45;&gt;Node17 -->
<g id="edge17" class="edge">
<title>Node12&#45;&gt;Node17</title>
<path fill="none" stroke="#63b8ff" d="M603.16,-305.63C616.12,-301.29 630.26,-296.56 643.73,-292.05"/>
<polygon fill="#63b8ff" stroke="#63b8ff" points="644.54,-295.47 652.91,-288.97 642.32,-288.83 644.54,-295.47"/>
</g>
<!-- Node15 -->
<g id="node15" class="node">
<title>Node15</title>
<g id="a_node15"><a xlink:href="a00464.html#a2630761a64fac02a4ee33abaf5c885a1" target="_top" xlink:title=" ">
<polygon fill="white" stroke="#666666" points="944.25,-400 803.75,-400 803.75,-380 944.25,-380 944.25,-400"/>
<text xml:space="preserve" text-anchor="middle" x="874" y="-386.5" font-family="Helvetica,sans-Serif" font-size="10.00">HF::RayTracer::DidIntersect</text>
</a>
</g>
</g>
<!-- Node14&#45;&gt;Node15 -->
<g id="edge14" class="edge">
<title>Node14&#45;&gt;Node15</title>
<path fill="none" stroke="#63b8ff" d="M767.95,-390C775.78,-390 783.88,-390 791.95,-390"/>
<polygon fill="#63b8ff" stroke="#63b8ff" points="791.79,-393.5 801.79,-390 791.79,-386.5 791.79,-393.5"/>
</g>
<!-- Node16&#45;&gt;Node16 -->
<g id="edge16" class="edge">
<title>Node16&#45;&gt;Node16</title>
<path fill="none" stroke="#63b8ff" d="M677.6,-338.44C672.56,-347.58 681.56,-356 704.62,-356 717.24,-356 725.65,-353.48 729.85,-349.71"/>
<polygon fill="#63b8ff" stroke="#63b8ff" points="733.29,-350.36 731.41,-339.94 726.38,-349.26 733.29,-350.36"/>
</g>
<!-- Node19 -->
<g id="node19" class="node">
<title>Node19</title>
<g id="a_node19"><a xlink:href="a00463.html#ace66c1b60785c32433402f012019ab81" target="_top" xlink:title="Determine if there is a valid line of sight between parent and child.">
<polygon fill="white" stroke="#666666" points="605.5,-170 501,-170 501,-138 605.5,-138 605.5,-170"/>
<text xml:space="preserve" text-anchor="start" x="509" y="-156.5" font-family="Helvetica,sans-Serif" font-size="10.00">HF::GraphGenerator</text>
<text xml:space="preserve" text-anchor="middle" x="553.25" y="-144.5" font-family="Helvetica,sans-Serif" font-size="10.00">::OcclusionCheck</text>
</a>
</g>
</g>
<!-- Node18&#45;&gt;Node19 -->
<g id="edge19" class="edge">
<title>Node18&#45;&gt;Node19</title>
<path fill="none" stroke="#63b8ff" d="M463.35,-154C471.84,-154 480.72,-154 489.44,-154"/>
<polygon fill="#63b8ff" stroke="#63b8ff" points="489.27,-157.5 499.27,-154 489.27,-150.5 489.27,-157.5"/>
</g>
<!-- Node20 -->
<g id="node20" class="node">
<title>Node20</title>
<g id="a_node20"><a xlink:href="a00463.html#a750afc15c798c79a8b6a0784ed092f3c" target="_top" xlink:title="Calculate the normalized direction from one node to another.">
<polygon fill="white" stroke="#666666" points="756.88,-238 652.38,-238 652.38,-206 756.88,-206 756.88,-238"/>
<text xml:space="preserve" text-anchor="start" x="660.38" y="-224.5" font-family="Helvetica,sans-Serif" font-size="10.00">HF::GraphGenerator</text>
<text xml:space="preserve" text-anchor="middle" x="704.62" y="-212.5" font-family="Helvetica,sans-Serif" font-size="10.00">::DirectionTo</text>
</a>
</g>
</g>
<!-- Node19&#45;&gt;Node20 -->
<g id="edge20" class="edge">
<title>Node19&#45;&gt;Node20</title>
<path fill="none" stroke="#63b8ff" d="M585.89,-170.31C602.33,-178.6 622.84,-188.66 641.5,-197 644.64,-198.4 647.88,-199.81 651.15,-201.21"/>
<polygon fill="#63b8ff" stroke="#63b8ff" points="649.7,-204.4 660.28,-205.03 652.4,-197.94 649.7,-204.4"/>
</g>
<!-- Node19&#45;&gt;Node22 -->
<g id="edge22" class="edge">
<title>Node19&#45;&gt;Node22</title>
<path fill="none" stroke="#63b8ff" d="M603.16,-137.63C616.12,-133.29 630.26,-128.56 643.73,-124.05"/>
<polygon fill="#63b8ff" stroke="#63b8ff" points="644.54,-127.47 652.91,-120.97 642.32,-120.83 644.54,-127.47"/>
</g>
<!-- Node23 -->
<g id="node23" class="node">
<title>Node23</title>
<g id="a_node23"><a xlink:href="a01419.html#a22ebf97e859ef651e81deb40b74f668f" target="_top" xlink:title=" ">
<polygon fill="white" stroke="#666666" points="765.12,-170 644.12,-170 644.12,-138 765.12,-138 765.12,-170"/>
<text xml:space="preserve" text-anchor="start" x="652.12" y="-156.5" font-family="Helvetica,sans-Serif" font-size="10.00">HF::RayTracer::MultiRT</text>
<text xml:space="preserve" text-anchor="middle" x="704.62" y="-144.5" font-family="Helvetica,sans-Serif" font-size="10.00">::Occluded</text>
</a>
</g>
</g>
<!-- Node19&#45;&gt;Node23 -->
<g id="edge23" class="edge">
<title>Node19&#45;&gt;Node23</title>
<path fill="none" stroke="#63b8ff" d="M605.66,-154C614.26,-154 623.32,-154 632.32,-154"/>
<polygon fill="#63b8ff" stroke="#63b8ff" points="632.13,-157.5 642.13,-154 632.13,-150.5 632.13,-157.5"/>
</g>
<!-- Node21 -->
<g id="node21" class="node">
<title>Node21</title>
<g id="a_node21"><a xlink:href="a00463.html#ad2e09e0825a1db4fc511907179eddf00" target="_top" xlink:title="Normalize a vector.">
<polygon fill="white" stroke="#666666" points="926.25,-238 821.75,-238 821.75,-206 926.25,-206 926.25,-238"/>
<text xml:space="preserve" text-anchor="start" x="829.75" y="-224.5" font-family="Helvetica,sans-Serif" font-size="10.00">HF::GraphGenerator</text>
<text xml:space="preserve" text-anchor="middle" x="874" y="-212.5" font-family="Helvetica,sans-Serif" font-size="10.00">::Normalize</text>
</a>
</g>
</g>
<!-- Node20&#45;&gt;Node21 -->
<g id="edge21" class="edge">
<title>Node20&#45;&gt;Node21</title>
<path fill="none" stroke="#63b8ff" d="M757.21,-222C773.91,-222 792.63,-222 810.06,-222"/>
<polygon fill="#63b8ff" stroke="#63b8ff" points="809.78,-225.5 819.78,-222 809.78,-218.5 809.78,-225.5"/>
</g>
<!-- Node23&#45;&gt;Node23 -->
<g id="edge24" class="edge">
<title>Node23&#45;&gt;Node23</title>
<path fill="none" stroke="#63b8ff" d="M677.6,-170.44C672.56,-179.58 681.56,-188 704.62,-188 717.24,-188 725.65,-185.48 729.85,-181.71"/>
<polygon fill="#63b8ff" stroke="#63b8ff" points="733.29,-182.36 731.41,-171.94 726.38,-181.26 733.29,-182.36"/>
</g>
<!-- Node27 -->
<g id="node27" class="node">
<title>Node27</title>
<g id="a_node27"><a xlink:href="a01315.html#ae0dc637a2d7c3aae32d8f035ac6b8016" target="_top" xlink:title="Add a node to the queue if it has never previously been in the queue.">
<polygon fill="white" stroke="#666666" points="465,-32 356.75,-32 356.75,0 465,0 465,-32"/>
<text xml:space="preserve" text-anchor="start" x="364.75" y="-18.5" font-family="Helvetica,sans-Serif" font-size="10.00">HF::GraphGenerator</text>
<text xml:space="preserve" text-anchor="middle" x="410.88" y="-6.5" font-family="Helvetica,sans-Serif" font-size="10.00">::UniqueQueue::push</text>
</a>
</g>
</g>
<!-- Node26&#45;&gt;Node27 -->
<g id="edge29" class="edge">
<title>Node26&#45;&gt;Node27</title>
<path fill="none" stroke="#63b8ff" d="M316.35,-27.38C325.76,-26.24 335.48,-25.05 344.94,-23.9"/>
<polygon fill="#63b8ff" stroke="#63b8ff" points="345.3,-27.38 354.8,-22.7 344.45,-20.44 345.3,-27.38"/>
</g>
</g>
</svg>
