<?xml version="1.0" encoding="UTF-8" standalone="no"?>
<!DOCTYPE svg PUBLIC "-//W3C//DTD SVG 1.1//EN"
 "http://www.w3.org/Graphics/SVG/1.1/DTD/svg11.dtd">
<!-- Generated by graphviz version 13.1.2 (20250808.2320)
 -->
<!-- Title: HF::Geometry::MeshInfo&lt; numeric_type &gt; Pages: 1 -->
<svg width="326pt" height="177pt"
 viewBox="0.00 0.00 326.00 177.00" xmlns="http://www.w3.org/2000/svg" xmlns:xlink="http://www.w3.org/1999/xlink">
<g id="graph0" class="graph" transform="scale(1 1) rotate(0) translate(4 173)">
<title>HF::Geometry::MeshInfo&lt; numeric_type &gt;</title>
<!-- Node1 -->
<g id="node1" class="node">
<title>Node1</title>
<g id="a_node1"><a xlink:title="A collection of vertices and indices representing geometry.">
<polygon fill="#999999" stroke="#666666" points="207.78,-32 83.03,-32 83.03,0 207.78,0 207.78,-32"/>
<text xml:space="preserve" text-anchor="start" x="91.03" y="-18.5" font-family="Helvetica,sans-Serif" font-size="10.00">HF::Geometry::MeshInfo</text>
<text xml:space="preserve" text-anchor="middle" x="145.4" y="-6.5" font-family="Helvetica,sans-Serif" font-size="10.00">&lt; numeric_type &gt;</text>
</a>
</g>
</g>
<!-- Node2 -->
<g id="node2" class="node">
<title>Node2</title>
<g id="a_node2"><a xlink:title=" ">
<polygon fill="white" stroke="#666666" points="28.8,-100 0,-100 0,-80 28.8,-80 28.8,-100"/>
<text xml:space="preserve" text-anchor="middle" x="14.4" y="-86.5" font-family="Helvetica,sans-Serif" font-size="10.00">int</text>
</a>
</g>
</g>
<!-- Node2&#45;&gt;Node1 -->
<g id="edge1" class="edge">
<title>Node2&#45;&gt;Node1</title>
<path fill="none" stroke="#9a32cd" stroke-dasharray="5,2" d="M33.11,-72.2C42.01,-64.76 53.06,-56.29 63.9,-50 75.39,-43.33 88.48,-37.38 100.76,-32.44"/>
<polygon fill="#9a32cd" stroke="#9a32cd" points="30.83,-69.55 25.55,-78.73 35.4,-74.84 30.83,-69.55"/>
<text xml:space="preserve" text-anchor="middle" x="81.15" y="-52.5" font-family="Helvetica,sans-Serif" font-size="10.00"> meshid</text>
</g>
<!-- Node3 -->
<g id="node3" class="node">
<title>Node3</title>
<g id="a_node3"><a xlink:title=" ">
<polygon fill="white" stroke="#666666" points="106.15,-100 46.65,-100 46.65,-80 106.15,-80 106.15,-100"/>
<text xml:space="preserve" text-anchor="middle" x="76.4" y="-86.5" font-family="Helvetica,sans-Serif" font-size="10.00">std::string</text>
</a>
</g>
</g>
<!-- Node3&#45;&gt;Node1 -->
<g id="edge2" class="edge">
<title>Node3&#45;&gt;Node1</title>
<path fill="none" stroke="#9a32cd" stroke-dasharray="5,2" d="M93.34,-71.33C104.74,-59.43 119.64,-43.88 130.57,-32.47"/>
<polygon fill="#9a32cd" stroke="#9a32cd" points="90.86,-68.85 86.47,-78.49 95.91,-73.7 90.86,-68.85"/>
<text xml:space="preserve" text-anchor="middle" x="126.47" y="-52.5" font-family="Helvetica,sans-Serif" font-size="10.00"> name</text>
</g>
<!-- Node4 -->
<g id="node4" class="node">
<title>Node4</title>
<g id="a_node4"><a xlink:title=" ">
<polygon fill="white" stroke="#666666" points="123.4,-169 29.4,-169 29.4,-137 123.4,-137 123.4,-169"/>
<text xml:space="preserve" text-anchor="start" x="37.4" y="-155.5" font-family="Helvetica,sans-Serif" font-size="10.00">std::basic_string&lt;</text>
<text xml:space="preserve" text-anchor="middle" x="76.4" y="-143.5" font-family="Helvetica,sans-Serif" font-size="10.00"> Char &gt;</text>
</a>
</g>
</g>
<!-- Node4&#45;&gt;Node3 -->
<g id="edge3" class="edge">
<title>Node4&#45;&gt;Node3</title>
<path fill="none" stroke="#63b8ff" d="M76.4,-125.36C76.4,-116.41 76.4,-107.01 76.4,-100.31"/>
<polygon fill="#63b8ff" stroke="#63b8ff" points="72.9,-125.09 76.4,-135.09 79.9,-125.09 72.9,-125.09"/>
</g>
<!-- Node5 -->
<g id="node5" class="node">
<title>Node5</title>
<g id="a_node5"><a xlink:title=" ">
<polygon fill="white" stroke="#666666" points="216.28,-100 124.53,-100 124.53,-80 216.28,-80 216.28,-100"/>
<text xml:space="preserve" text-anchor="middle" x="170.4" y="-86.5" font-family="Helvetica,sans-Serif" font-size="10.00">Matrix3X&lt; float &gt;</text>
</a>
</g>
</g>
<!-- Node5&#45;&gt;Node1 -->
<g id="edge4" class="edge">
<title>Node5&#45;&gt;Node1</title>
<path fill="none" stroke="#9a32cd" stroke-dasharray="5,2" d="M163.4,-68.83C159.4,-57.31 154.46,-43.1 150.77,-32.47"/>
<polygon fill="#9a32cd" stroke="#9a32cd" points="160.05,-69.86 166.64,-78.16 166.66,-67.56 160.05,-69.86"/>
<text xml:space="preserve" text-anchor="middle" x="173.25" y="-52.5" font-family="Helvetica,sans-Serif" font-size="10.00"> verts</text>
</g>
<!-- Node6 -->
<g id="node6" class="node">
<title>Node6</title>
<g id="a_node6"><a xlink:title=" ">
<polygon fill="white" stroke="#666666" points="318.15,-100 234.65,-100 234.65,-80 318.15,-80 318.15,-100"/>
<text xml:space="preserve" text-anchor="middle" x="276.4" y="-86.5" font-family="Helvetica,sans-Serif" font-size="10.00">Matrix3X&lt; int &gt;</text>
</a>
</g>
</g>
<!-- Node6&#45;&gt;Node1 -->
<g id="edge5" class="edge">
<title>Node6&#45;&gt;Node1</title>
<path fill="none" stroke="#9a32cd" stroke-dasharray="5,2" d="M249.21,-74.05C227.07,-61.89 195.94,-44.78 173.55,-32.47"/>
<polygon fill="#9a32cd" stroke="#9a32cd" points="247.5,-77.11 257.95,-78.86 250.87,-70.97 247.5,-77.11"/>
<text xml:space="preserve" text-anchor="middle" x="243.36" y="-52.5" font-family="Helvetica,sans-Serif" font-size="10.00"> indices</text>
</g>
</g>
</svg>
