<?xml version="1.0" encoding="UTF-8" standalone="no"?>
<!DOCTYPE svg PUBLIC "-//W3C//DTD SVG 1.1//EN"
 "http://www.w3.org/Graphics/SVG/1.1/DTD/svg11.dtd">
<!-- Generated by graphviz version 13.1.2 (20250808.2320)
 -->
<!-- Title: HF::Pathfinding::BoostGraph Pages: 1 -->
<svg width="498pt" height="140pt"
 viewBox="0.00 0.00 498.00 140.00" xmlns="http://www.w3.org/2000/svg" xmlns:xlink="http://www.w3.org/1999/xlink">
<g id="graph0" class="graph" transform="scale(1 1) rotate(0) translate(4 136)">
<title>HF::Pathfinding::BoostGraph</title>
<!-- Node1 -->
<g id="node1" class="node">
<title>Node1</title>
<g id="a_node1"><a xlink:title="A graph usable with the BoostGraphLibrary.">
<polygon fill="#999999" stroke="#666666" points="489.75,-64 347.75,-64 347.75,-44 489.75,-44 489.75,-64"/>
<text xml:space="preserve" text-anchor="middle" x="418.75" y="-50.5" font-family="Helvetica,sans-Serif" font-size="10.00">HF::Pathfinding::BoostGraph</text>
</a>
</g>
</g>
<!-- Node2 -->
<g id="node2" class="node">
<title>Node2</title>
<g id="a_node2"><a xlink:title=" ">
<polygon fill="white" stroke="#666666" points="303.5,-132 169.75,-132 169.75,-88 303.5,-88 303.5,-132"/>
<text xml:space="preserve" text-anchor="start" x="177.75" y="-118.5" font-family="Helvetica,sans-Serif" font-size="10.00">compressed_sparse_row</text>
<text xml:space="preserve" text-anchor="start" x="177.75" y="-106.5" font-family="Helvetica,sans-Serif" font-size="10.00">_graph&lt; boost::directedS,</text>
<text xml:space="preserve" text-anchor="middle" x="236.62" y="-94.5" font-family="Helvetica,sans-Serif" font-size="10.00"> vertex_data, Edge_Cost &gt;</text>
</a>
</g>
</g>
<!-- Node2&#45;&gt;Node1 -->
<g id="edge1" class="edge">
<title>Node2&#45;&gt;Node1</title>
<path fill="none" stroke="#9a32cd" stroke-dasharray="5,2" d="M314.61,-86.06C338.93,-78.51 364.54,-70.54 384.15,-64.44"/>
<polygon fill="#9a32cd" stroke="#9a32cd" points="313.88,-82.63 305.37,-88.94 315.96,-89.31 313.88,-82.63"/>
<text xml:space="preserve" text-anchor="middle" x="325.62" y="-86.18" font-family="Helvetica,sans-Serif" font-size="10.00"> g</text>
</g>
<!-- Node3 -->
<g id="node3" class="node">
<title>Node3</title>
<g id="a_node3"><a xlink:title=" ">
<polygon fill="white" stroke="#666666" points="285.88,-70 187.38,-70 187.38,-38 285.88,-38 285.88,-70"/>
<text xml:space="preserve" text-anchor="start" x="195.38" y="-56.5" font-family="Helvetica,sans-Serif" font-size="10.00">std::vector&lt; vertex</text>
<text xml:space="preserve" text-anchor="middle" x="236.62" y="-44.5" font-family="Helvetica,sans-Serif" font-size="10.00">_descriptor &gt;</text>
</a>
</g>
</g>
<!-- Node3&#45;&gt;Node1 -->
<g id="edge2" class="edge">
<title>Node3&#45;&gt;Node1</title>
<path fill="none" stroke="#9a32cd" stroke-dasharray="5,2" d="M297.67,-54C313.59,-54 330.91,-54 347.32,-54"/>
<polygon fill="#9a32cd" stroke="#9a32cd" points="297.88,-50.5 287.88,-54 297.88,-57.5 297.88,-50.5"/>
<text xml:space="preserve" text-anchor="middle" x="325.62" y="-56.5" font-family="Helvetica,sans-Serif" font-size="10.00"> p</text>
</g>
<!-- Node4 -->
<g id="node4" class="node">
<title>Node4</title>
<g id="a_node4"><a xlink:title=" ">
<polygon fill="white" stroke="#666666" points="91,-64 0,-64 0,-44 91,-44 91,-64"/>
<text xml:space="preserve" text-anchor="middle" x="45.5" y="-50.5" font-family="Helvetica,sans-Serif" font-size="10.00">vertex_descriptor</text>
</a>
</g>
</g>
<!-- Node4&#45;&gt;Node3 -->
<g id="edge3" class="edge">
<title>Node4&#45;&gt;Node3</title>
<path fill="none" stroke="#9a32cd" stroke-dasharray="5,2" d="M102.51,-54C129.4,-54 161.31,-54 187.15,-54"/>
<polygon fill="#9a32cd" stroke="#9a32cd" points="102.83,-50.5 92.83,-54 102.83,-57.5 102.83,-50.5"/>
<text xml:space="preserve" text-anchor="middle" x="130.38" y="-56.5" font-family="Helvetica,sans-Serif" font-size="10.00"> elements</text>
</g>
<!-- Node5 -->
<g id="node5" class="node">
<title>Node5</title>
<g id="a_node5"><a xlink:title=" ">
<polygon fill="white" stroke="#666666" points="291.12,-20 182.12,-20 182.12,0 291.12,0 291.12,-20"/>
<text xml:space="preserve" text-anchor="middle" x="236.62" y="-6.5" font-family="Helvetica,sans-Serif" font-size="10.00">std::vector&lt; double &gt;</text>
</a>
</g>
</g>
<!-- Node5&#45;&gt;Node1 -->
<g id="edge4" class="edge">
<title>Node5&#45;&gt;Node1</title>
<path fill="none" stroke="#9a32cd" stroke-dasharray="5,2" d="M291.42,-23.14C318.16,-29.67 350.02,-37.46 375.06,-43.57"/>
<polygon fill="#9a32cd" stroke="#9a32cd" points="292.33,-19.76 281.78,-20.79 290.67,-26.56 292.33,-19.76"/>
<text xml:space="preserve" text-anchor="middle" x="325.62" y="-34.5" font-family="Helvetica,sans-Serif" font-size="10.00"> d</text>
</g>
<!-- Node6 -->
<g id="node6" class="node">
<title>Node6</title>
<g id="a_node6"><a xlink:href="a00001.html#a02139" target="_top" xlink:title=" ">
<polygon fill="white" stroke="#666666" points="67.75,-20 23.25,-20 23.25,0 67.75,0 67.75,-20"/>
<text xml:space="preserve" text-anchor="middle" x="45.5" y="-6.5" font-family="Helvetica,sans-Serif" font-size="10.00">double</text>
</a>
</g>
</g>
<!-- Node6&#45;&gt;Node5 -->
<g id="edge5" class="edge">
<title>Node6&#45;&gt;Node5</title>
<path fill="none" stroke="#9a32cd" stroke-dasharray="5,2" d="M79.45,-10C107.71,-10 148.97,-10 181.98,-10"/>
<polygon fill="#9a32cd" stroke="#9a32cd" points="79.71,-6.5 69.71,-10 79.71,-13.5 79.71,-6.5"/>
<text xml:space="preserve" text-anchor="middle" x="130.38" y="-12.5" font-family="Helvetica,sans-Serif" font-size="10.00"> elements</text>
</g>
</g>
</svg>
