<?xml version="1.0" encoding="UTF-8" standalone="no"?>
<!DOCTYPE svg PUBLIC "-//W3C//DTD SVG 1.1//EN"
 "http://www.w3.org/Graphics/SVG/1.1/DTD/svg11.dtd">
<!-- Generated by graphviz version 13.1.2 (20250808.2320)
 -->
<!-- Title: HF::GraphGenerator::GraphParams Pages: 1 -->
<svg width="349pt" height="308pt"
 viewBox="0.00 0.00 349.00 308.00" xmlns="http://www.w3.org/2000/svg" xmlns:xlink="http://www.w3.org/1999/xlink">
<g id="graph0" class="graph" transform="scale(1 1) rotate(0) translate(4 304)">
<title>HF::GraphGenerator::GraphParams</title>
<!-- Node1 -->
<g id="node1" class="node">
<title>Node1</title>
<g id="a_node1"><a xlink:title="Holds parameters for the GraphGenerator.">
<polygon fill="#999999" stroke="#666666" points="175.76,-32 71.26,-32 71.26,0 175.76,0 175.76,-32"/>
<text xml:space="preserve" text-anchor="start" x="79.26" y="-18.5" font-family="Helvetica,sans-Serif" font-size="10.00">HF::GraphGenerator</text>
<text xml:space="preserve" text-anchor="middle" x="123.51" y="-6.5" font-family="Helvetica,sans-Serif" font-size="10.00">::GraphParams</text>
</a>
</g>
</g>
<!-- Node2 -->
<g id="node2" class="node">
<title>Node2</title>
<g id="a_node2"><a xlink:href="a00001.html#a02139" target="_top" xlink:title=" ">
<polygon fill="white" stroke="#666666" points="80.76,-226 36.26,-226 36.26,-206 80.76,-206 80.76,-226"/>
<text xml:space="preserve" text-anchor="middle" x="58.51" y="-212.5" font-family="Helvetica,sans-Serif" font-size="10.00">double</text>
</a>
</g>
</g>
<!-- Node2&#45;&gt;Node1 -->
<g id="edge1" class="edge">
<title>Node2&#45;&gt;Node1</title>
<path fill="none" stroke="#9a32cd" stroke-dasharray="5,2" d="M42.26,-197.32C19.8,-170.65 -15.46,-119.09 7.76,-80 21.56,-56.79 47.23,-41.59 70.89,-31.95"/>
<polygon fill="#9a32cd" stroke="#9a32cd" points="39.33,-199.3 48.55,-204.52 44.6,-194.69 39.33,-199.3"/>
<text xml:space="preserve" text-anchor="middle" x="35.14" y="-118.5" font-family="Helvetica,sans-Serif" font-size="10.00"> down_slope</text>
<text xml:space="preserve" text-anchor="middle" x="35.14" y="-106.5" font-family="Helvetica,sans-Serif" font-size="10.00">down_step</text>
<text xml:space="preserve" text-anchor="middle" x="35.14" y="-94.5" font-family="Helvetica,sans-Serif" font-size="10.00">up_slope</text>
<text xml:space="preserve" text-anchor="middle" x="35.14" y="-82.5" font-family="Helvetica,sans-Serif" font-size="10.00">up_step</text>
</g>
<!-- Node3 -->
<g id="node3" class="node">
<title>Node3</title>
<g id="a_node3"><a xlink:href="a00463.html#a01295" target="_top" xlink:title="Various parameters to set the precision of certain parts of the graph generator.">
<polygon fill="white" stroke="#666666" points="175.76,-120 71.26,-120 71.26,-88 175.76,-88 175.76,-120"/>
<text xml:space="preserve" text-anchor="start" x="79.26" y="-106.5" font-family="Helvetica,sans-Serif" font-size="10.00">HF::GraphGenerator</text>
<text xml:space="preserve" text-anchor="middle" x="123.51" y="-94.5" font-family="Helvetica,sans-Serif" font-size="10.00">::Precision</text>
</a>
</g>
</g>
<!-- Node2&#45;&gt;Node3 -->
<g id="edge3" class="edge">
<title>Node2&#45;&gt;Node3</title>
<path fill="none" stroke="#9a32cd" stroke-dasharray="5,2" d="M67.62,-195.43C74.38,-181.38 84.12,-162.16 94.01,-146 99.42,-137.18 106.11,-127.78 111.75,-120.2"/>
<polygon fill="#9a32cd" stroke="#9a32cd" points="64.46,-193.93 63.34,-204.47 70.78,-196.93 64.46,-193.93"/>
<text xml:space="preserve" text-anchor="middle" x="124.76" y="-172.5" font-family="Helvetica,sans-Serif" font-size="10.00"> ground_offset</text>
<text xml:space="preserve" text-anchor="middle" x="124.76" y="-160.5" font-family="Helvetica,sans-Serif" font-size="10.00">node_spacing</text>
<text xml:space="preserve" text-anchor="middle" x="124.76" y="-148.5" font-family="Helvetica,sans-Serif" font-size="10.00">node_z</text>
</g>
<!-- Node3&#45;&gt;Node1 -->
<g id="edge2" class="edge">
<title>Node3&#45;&gt;Node1</title>
<path fill="none" stroke="#9a32cd" stroke-dasharray="5,2" d="M123.51,-76.31C123.51,-61.82 123.51,-44.43 123.51,-32.24"/>
<polygon fill="#9a32cd" stroke="#9a32cd" points="120.01,-76.11 123.51,-86.11 127.01,-76.11 120.01,-76.11"/>
<text xml:space="preserve" text-anchor="middle" x="144.51" y="-52.5" font-family="Helvetica,sans-Serif" font-size="10.00"> precision</text>
</g>
<!-- Node4 -->
<g id="node4" class="node">
<title>Node4</title>
<g id="a_node4"><a xlink:href="a01299.html" target="_top" xlink:title="Manages rules and ids for different types of geometry in the graph generator.">
<polygon fill="white" stroke="#666666" points="298.76,-120 194.26,-120 194.26,-88 298.76,-88 298.76,-120"/>
<text xml:space="preserve" text-anchor="start" x="202.26" y="-106.5" font-family="Helvetica,sans-Serif" font-size="10.00">HF::GraphGenerator</text>
<text xml:space="preserve" text-anchor="middle" x="246.51" y="-94.5" font-family="Helvetica,sans-Serif" font-size="10.00">::GeometryFlagMap</text>
</a>
</g>
</g>
<!-- Node4&#45;&gt;Node1 -->
<g id="edge4" class="edge">
<title>Node4&#45;&gt;Node1</title>
<path fill="none" stroke="#9a32cd" stroke-dasharray="5,2" d="M215.31,-81.19C193.44,-65.89 164.76,-45.84 145.31,-32.24"/>
<polygon fill="#9a32cd" stroke="#9a32cd" points="213.08,-83.9 223.28,-86.76 217.09,-78.16 213.08,-83.9"/>
<text xml:space="preserve" text-anchor="middle" x="207.51" y="-52.5" font-family="Helvetica,sans-Serif" font-size="10.00"> geom_ids</text>
</g>
<!-- Node5 -->
<g id="node5" class="node">
<title>Node5</title>
<g id="a_node5"><a xlink:title=" ">
<polygon fill="white" stroke="#666666" points="218.64,-232 116.39,-232 116.39,-200 218.64,-200 218.64,-232"/>
<text xml:space="preserve" text-anchor="start" x="124.39" y="-218.5" font-family="Helvetica,sans-Serif" font-size="10.00">std::unordered_map</text>
<text xml:space="preserve" text-anchor="middle" x="167.51" y="-206.5" font-family="Helvetica,sans-Serif" font-size="10.00">&lt; int, HIT_FLAG &gt;</text>
</a>
</g>
</g>
<!-- Node5&#45;&gt;Node4 -->
<g id="edge5" class="edge">
<title>Node5&#45;&gt;Node4</title>
<path fill="none" stroke="#9a32cd" stroke-dasharray="5,2" d="M166.23,-188.49C166.78,-174.78 169.47,-158.37 177.76,-146 185.03,-135.15 196.23,-126.74 207.5,-120.44"/>
<polygon fill="#9a32cd" stroke="#9a32cd" points="162.73,-188.16 166.2,-198.16 169.73,-188.17 162.73,-188.16"/>
<text xml:space="preserve" text-anchor="middle" x="218.64" y="-160.5" font-family="Helvetica,sans-Serif" font-size="10.00"> internal_dictionary</text>
</g>
<!-- Node6 -->
<g id="node6" class="node">
<title>Node6</title>
<g id="a_node6"><a xlink:title=" ">
<polygon fill="white" stroke="#666666" points="149.91,-300 121.11,-300 121.11,-280 149.91,-280 149.91,-300"/>
<text xml:space="preserve" text-anchor="middle" x="135.51" y="-286.5" font-family="Helvetica,sans-Serif" font-size="10.00">int</text>
</a>
</g>
</g>
<!-- Node6&#45;&gt;Node5 -->
<g id="edge6" class="edge">
<title>Node6&#45;&gt;Node5</title>
<path fill="none" stroke="#9a32cd" stroke-dasharray="5,2" d="M144.32,-269.19C149.46,-257.61 155.86,-243.21 160.64,-232.47"/>
<polygon fill="#9a32cd" stroke="#9a32cd" points="141.17,-267.64 140.31,-278.2 147.57,-270.49 141.17,-267.64"/>
<text xml:space="preserve" text-anchor="middle" x="164.47" y="-252.5" font-family="Helvetica,sans-Serif" font-size="10.00"> keys</text>
</g>
<!-- Node7 -->
<g id="node7" class="node">
<title>Node7</title>
<g id="a_node7"><a xlink:title=" ">
<polygon fill="white" stroke="#666666" points="231.14,-300 167.89,-300 167.89,-280 231.14,-280 231.14,-300"/>
<text xml:space="preserve" text-anchor="middle" x="199.51" y="-286.5" font-family="Helvetica,sans-Serif" font-size="10.00">HIT_FLAG</text>
</a>
</g>
</g>
<!-- Node7&#45;&gt;Node5 -->
<g id="edge7" class="edge">
<title>Node7&#45;&gt;Node5</title>
<path fill="none" stroke="#9a32cd" stroke-dasharray="5,2" d="M190.71,-269.19C185.56,-257.61 179.16,-243.21 174.39,-232.47"/>
<polygon fill="#9a32cd" stroke="#9a32cd" points="187.46,-270.49 194.72,-278.2 193.85,-267.64 187.46,-270.49"/>
<text xml:space="preserve" text-anchor="middle" x="208.7" y="-252.5" font-family="Helvetica,sans-Serif" font-size="10.00"> elements</text>
</g>
<!-- Node8 -->
<g id="node8" class="node">
<title>Node8</title>
<g id="a_node8"><a xlink:title=" ">
<polygon fill="white" stroke="#666666" points="340.76,-226 236.26,-226 236.26,-206 340.76,-206 340.76,-226"/>
<text xml:space="preserve" text-anchor="middle" x="288.51" y="-212.5" font-family="Helvetica,sans-Serif" font-size="10.00">GeometryFilterMode</text>
</a>
</g>
</g>
<!-- Node8&#45;&gt;Node4 -->
<g id="edge8" class="edge">
<title>Node8&#45;&gt;Node4</title>
<path fill="none" stroke="#9a32cd" stroke-dasharray="5,2" d="M281.5,-194.88C276.61,-181.07 269.86,-162.35 263.51,-146 260.17,-137.38 256.22,-127.83 252.98,-120.12"/>
<polygon fill="#9a32cd" stroke="#9a32cd" points="278.13,-195.87 284.75,-204.15 284.74,-193.55 278.13,-195.87"/>
<text xml:space="preserve" text-anchor="middle" x="290.27" y="-160.5" font-family="Helvetica,sans-Serif" font-size="10.00"> Mode</text>
</g>
</g>
</svg>
