<?xml version="1.0" encoding="UTF-8" standalone="no"?>
<!DOCTYPE svg PUBLIC "-//W3C//DTD SVG 1.1//EN"
 "http://www.w3.org/Graphics/SVG/1.1/DTD/svg11.dtd">
<!-- Generated by graphviz version 13.1.2 (20250808.2320)
 -->
<!-- Title: HF::GraphGenerator::GraphGenerator::GraphGenerator Pages: 1 -->
<svg width="579pt" height="102pt"
 viewBox="0.00 0.00 579.00 102.00" xmlns="http://www.w3.org/2000/svg" xmlns:xlink="http://www.w3.org/1999/xlink">
<g id="graph0" class="graph" transform="scale(1 1) rotate(0) translate(4 98)">
<title>HF::GraphGenerator::GraphGenerator::GraphGenerator</title>
<!-- Node1 -->
<g id="node1" class="node">
<title>Node1</title>
<g id="a_node1"><a xlink:title="Construct a new graph generator with a specific raytracer.">
<polygon fill="#999999" stroke="#666666" points="166,-60 0,-60 0,-28 166,-28 166,-60"/>
<text xml:space="preserve" text-anchor="start" x="8" y="-46.5" font-family="Helvetica,sans-Serif" font-size="10.00">HF::GraphGenerator</text>
<text xml:space="preserve" text-anchor="middle" x="83" y="-34.5" font-family="Helvetica,sans-Serif" font-size="10.00">::GraphGenerator::GraphGenerator</text>
</a>
</g>
</g>
<!-- Node2 -->
<g id="node2" class="node">
<title>Node2</title>
<g id="a_node2"><a xlink:href="a01299.html#a5f5b32d65d3d43143915633c8411acaf" target="_top" xlink:title="Set geometry ids as being walkable or obstacles.">
<polygon fill="white" stroke="#666666" points="381.5,-60 202,-60 202,-28 381.5,-28 381.5,-60"/>
<text xml:space="preserve" text-anchor="start" x="210" y="-46.5" font-family="Helvetica,sans-Serif" font-size="10.00">HF::GraphGenerator</text>
<text xml:space="preserve" text-anchor="middle" x="291.75" y="-34.5" font-family="Helvetica,sans-Serif" font-size="10.00">::GeometryFlagMap::SetGeometryIds</text>
</a>
</g>
</g>
<!-- Node1&#45;&gt;Node2 -->
<g id="edge1" class="edge">
<title>Node1&#45;&gt;Node2</title>
<path fill="none" stroke="#63b8ff" d="M166.31,-44C174.19,-44 182.24,-44 190.28,-44"/>
<polygon fill="#63b8ff" stroke="#63b8ff" points="190.08,-47.5 200.08,-44 190.08,-40.5 190.08,-47.5"/>
</g>
<!-- Node3 -->
<g id="node3" class="node">
<title>Node3</title>
<g id="a_node3"><a xlink:href="a01299.html#aa6023b7a8de09fb747bd049938f1e5b8" target="_top" xlink:title="Set the filter mode of this GeometryFlagMap based on the input types.">
<polygon fill="white" stroke="#666666" points="570.75,-94 417.5,-94 417.5,-50 570.75,-50 570.75,-94"/>
<text xml:space="preserve" text-anchor="start" x="425.5" y="-80.5" font-family="Helvetica,sans-Serif" font-size="10.00">HF::GraphGenerator</text>
<text xml:space="preserve" text-anchor="start" x="425.5" y="-68.5" font-family="Helvetica,sans-Serif" font-size="10.00">::GeometryFlagMap::Determine</text>
<text xml:space="preserve" text-anchor="middle" x="494.12" y="-56.5" font-family="Helvetica,sans-Serif" font-size="10.00">FilterMode</text>
</a>
</g>
</g>
<!-- Node2&#45;&gt;Node3 -->
<g id="edge2" class="edge">
<title>Node2&#45;&gt;Node3</title>
<path fill="none" stroke="#63b8ff" d="M381.8,-56.44C389.83,-57.57 397.96,-58.7 405.97,-59.82"/>
<polygon fill="#63b8ff" stroke="#63b8ff" points="405.31,-63.26 415.7,-61.18 406.28,-56.33 405.31,-63.26"/>
</g>
<!-- Node4 -->
<g id="node4" class="node">
<title>Node4</title>
<g id="a_node4"><a xlink:href="a01299.html#ac9dab2d023f758ccf718d1e7c8f98e31" target="_top" xlink:title="Set the value of a key in the internal dictionary.">
<polygon fill="white" stroke="#666666" points="555.75,-32 432.5,-32 432.5,0 555.75,0 555.75,-32"/>
<text xml:space="preserve" text-anchor="start" x="440.5" y="-18.5" font-family="Helvetica,sans-Serif" font-size="10.00">HF::GraphGenerator</text>
<text xml:space="preserve" text-anchor="middle" x="494.12" y="-6.5" font-family="Helvetica,sans-Serif" font-size="10.00">::GeometryFlagMap::Set</text>
</a>
</g>
</g>
<!-- Node2&#45;&gt;Node4 -->
<g id="edge3" class="edge">
<title>Node2&#45;&gt;Node4</title>
<path fill="none" stroke="#63b8ff" d="M381.8,-31.56C394.98,-29.71 408.42,-27.84 421.19,-26.05"/>
<polygon fill="#63b8ff" stroke="#63b8ff" points="421.3,-29.57 430.72,-24.72 420.33,-22.64 421.3,-29.57"/>
</g>
</g>
</svg>
