<?xml version="1.0" encoding="UTF-8" standalone="no"?>
<!DOCTYPE svg PUBLIC "-//W3C//DTD SVG 1.1//EN"
 "http://www.w3.org/Graphics/SVG/1.1/DTD/svg11.dtd">
<!-- Generated by graphviz version 13.1.2 (20250808.2320)
 -->
<!-- Title: HF::GraphGenerator::UniqueQueue::size Pages: 1 -->
<svg width="971pt" height="107pt"
 viewBox="0.00 0.00 971.00 107.00" xmlns="http://www.w3.org/2000/svg" xmlns:xlink="http://www.w3.org/1999/xlink">
<g id="graph0" class="graph" transform="scale(1 1) rotate(0) translate(4 103.31)">
<title>HF::GraphGenerator::UniqueQueue::size</title>
<!-- Node1 -->
<g id="node1" class="node">
<title>Node1</title>
<g id="a_node1"><a xlink:title="Determine how many nodes are currently in the queue.">
<polygon fill="#999999" stroke="#666666" points="963,-85 857.75,-85 857.75,-53 963,-53 963,-85"/>
<text xml:space="preserve" text-anchor="start" x="865.75" y="-71.5" font-family="Helvetica,sans-Serif" font-size="10.00">HF::GraphGenerator</text>
<text xml:space="preserve" text-anchor="middle" x="910.38" y="-59.5" font-family="Helvetica,sans-Serif" font-size="10.00">::UniqueQueue::size</text>
</a>
</g>
</g>
<!-- Node2 -->
<g id="node2" class="node">
<title>Node2</title>
<g id="a_node2"><a xlink:href="a01311.html#a843cc6b5b69b5d013930b3685789fa15" target="_top" xlink:title="Perform breadth first search to populate the graph with nodes and edges using multiple cores.">
<polygon fill="white" stroke="#666666" points="658.75,-94 510,-94 510,-50 658.75,-50 658.75,-94"/>
<text xml:space="preserve" text-anchor="start" x="518" y="-80.5" font-family="Helvetica,sans-Serif" font-size="10.00">HF::GraphGenerator</text>
<text xml:space="preserve" text-anchor="start" x="518" y="-68.5" font-family="Helvetica,sans-Serif" font-size="10.00">::GraphGenerator::CrawlGeom</text>
<text xml:space="preserve" text-anchor="middle" x="584.38" y="-56.5" font-family="Helvetica,sans-Serif" font-size="10.00">Parallel</text>
</a>
</g>
</g>
<!-- Node1&#45;&gt;Node2 -->
<g id="edge1" class="edge">
<title>Node1&#45;&gt;Node2</title>
<path fill="none" stroke="#63b8ff" d="M849.65,-88.42C840.4,-90.73 830.88,-92.72 821.75,-94 765.85,-101.82 750.92,-99.59 694.75,-94 683.19,-92.85 671.03,-91.03 659.21,-88.92"/>
<polygon fill="#63b8ff" stroke="#63b8ff" points="850.54,-91.8 859.3,-85.85 848.74,-85.04 850.54,-91.8"/>
</g>
<!-- Node7 -->
<g id="node7" class="node">
<title>Node7</title>
<g id="a_node7"><a xlink:href="a01315.html#ab659349de3391b0e2327f3736135752f" target="_top" xlink:title="Tell if the queue is empty.">
<polygon fill="white" stroke="#666666" points="815.38,-35 701.12,-35 701.12,-3 815.38,-3 815.38,-35"/>
<text xml:space="preserve" text-anchor="start" x="709.12" y="-21.5" font-family="Helvetica,sans-Serif" font-size="10.00">HF::GraphGenerator</text>
<text xml:space="preserve" text-anchor="middle" x="758.25" y="-9.5" font-family="Helvetica,sans-Serif" font-size="10.00">::UniqueQueue::empty</text>
</a>
</g>
</g>
<!-- Node1&#45;&gt;Node7 -->
<g id="edge6" class="edge">
<title>Node1&#45;&gt;Node7</title>
<path fill="none" stroke="#63b8ff" d="M849.56,-49.08C836.03,-44.57 821.82,-39.84 808.77,-35.49"/>
<polygon fill="#63b8ff" stroke="#63b8ff" points="848.19,-52.31 858.78,-52.15 850.4,-45.67 848.19,-52.31"/>
</g>
<!-- Node9 -->
<g id="node9" class="node">
<title>Node9</title>
<g id="a_node9"><a xlink:href="a01315.html#ae941f357ddbefc3b670c43ce2d90b589" target="_top" xlink:title="Pop a set amount of nodes from the queue, and return them as a vector.">
<polygon fill="white" stroke="#666666" points="821.75,-85 694.75,-85 694.75,-53 821.75,-53 821.75,-85"/>
<text xml:space="preserve" text-anchor="start" x="702.75" y="-71.5" font-family="Helvetica,sans-Serif" font-size="10.00">HF::GraphGenerator</text>
<text xml:space="preserve" text-anchor="middle" x="758.25" y="-59.5" font-family="Helvetica,sans-Serif" font-size="10.00">::UniqueQueue::popMany</text>
</a>
</g>
</g>
<!-- Node1&#45;&gt;Node9 -->
<g id="edge10" class="edge">
<title>Node1&#45;&gt;Node9</title>
<path fill="none" stroke="#63b8ff" d="M845.91,-69C838.03,-69 829.97,-69 822.1,-69"/>
<polygon fill="#63b8ff" stroke="#63b8ff" points="845.78,-72.5 855.78,-69 845.78,-65.5 845.78,-72.5"/>
</g>
<!-- Node3 -->
<g id="node3" class="node">
<title>Node3</title>
<g id="a_node3"><a xlink:href="a01311.html#a5788e421d921ec0ff27defc139c45106" target="_top" xlink:title="Generate a graph of accessible space.">
<polygon fill="white" stroke="#666666" points="474,-66 353.75,-66 353.75,-22 474,-22 474,-66"/>
<text xml:space="preserve" text-anchor="start" x="361.75" y="-52.5" font-family="Helvetica,sans-Serif" font-size="10.00">HF::GraphGenerator</text>
<text xml:space="preserve" text-anchor="start" x="361.75" y="-40.5" font-family="Helvetica,sans-Serif" font-size="10.00">::GraphGenerator::IMPL</text>
<text xml:space="preserve" text-anchor="middle" x="413.88" y="-28.5" font-family="Helvetica,sans-Serif" font-size="10.00">_BuildNetwork</text>
</a>
</g>
</g>
<!-- Node2&#45;&gt;Node3 -->
<g id="edge2" class="edge">
<title>Node2&#45;&gt;Node3</title>
<path fill="none" stroke="#63b8ff" d="M498.76,-57.94C490.53,-56.57 482.3,-55.2 474.4,-53.89"/>
<polygon fill="#63b8ff" stroke="#63b8ff" points="498.03,-61.37 508.47,-59.55 499.17,-54.46 498.03,-61.37"/>
</g>
<!-- Node4 -->
<g id="node4" class="node">
<title>Node4</title>
<g id="a_node4"><a xlink:href="a01311.html#a0c12341433bbec41cc12cc1dbb41a976" target="_top" xlink:title="Generate a graph of accessible space.">
<polygon fill="white" stroke="#666666" points="317.75,-60 162.25,-60 162.25,-28 317.75,-28 317.75,-60"/>
<text xml:space="preserve" text-anchor="start" x="170.25" y="-46.5" font-family="Helvetica,sans-Serif" font-size="10.00">HF::GraphGenerator</text>
<text xml:space="preserve" text-anchor="middle" x="240" y="-34.5" font-family="Helvetica,sans-Serif" font-size="10.00">::GraphGenerator::BuildNetwork</text>
</a>
</g>
</g>
<!-- Node3&#45;&gt;Node4 -->
<g id="edge3" class="edge">
<title>Node3&#45;&gt;Node4</title>
<path fill="none" stroke="#63b8ff" d="M342.25,-44C334.31,-44 326.19,-44 318.17,-44"/>
<polygon fill="#63b8ff" stroke="#63b8ff" points="342.21,-47.5 352.21,-44 342.21,-40.5 342.21,-47.5"/>
</g>
<!-- Node5 -->
<g id="node5" class="node">
<title>Node5</title>
<g id="a_node5"><a xlink:href="a00454.html#ga2df84a732d1edfb70b7bd26d3282e129" target="_top" xlink:title="Construct a graph by performing a breadth&#45;first search of accessible space.">
<polygon fill="white" stroke="#666666" points="104.12,-73 22.12,-73 22.12,-53 104.12,-53 104.12,-73"/>
<text xml:space="preserve" text-anchor="middle" x="63.12" y="-59.5" font-family="Helvetica,sans-Serif" font-size="10.00">GenerateGraph</text>
</a>
</g>
</g>
<!-- Node4&#45;&gt;Node5 -->
<g id="edge4" class="edge">
<title>Node4&#45;&gt;Node5</title>
<path fill="none" stroke="#63b8ff" d="M150.62,-53.6C134.47,-55.36 118.36,-57.11 104.49,-58.61"/>
<polygon fill="#63b8ff" stroke="#63b8ff" points="150.72,-57.11 160.28,-52.55 149.96,-50.15 150.72,-57.11"/>
</g>
<!-- Node6 -->
<g id="node6" class="node">
<title>Node6</title>
<g id="a_node6"><a xlink:href="a00454.html#gab9f58e3ecc686fa9bc34519b0faed734" target="_top" xlink:title="Construct a graph by performing a breadth&#45;first search of accessible space, seperating obstacles from...">
<polygon fill="white" stroke="#666666" points="126.25,-35 0,-35 0,-15 126.25,-15 126.25,-35"/>
<text xml:space="preserve" text-anchor="middle" x="63.12" y="-21.5" font-family="Helvetica,sans-Serif" font-size="10.00">GenerateGraphObstacles</text>
</a>
</g>
</g>
<!-- Node4&#45;&gt;Node6 -->
<g id="edge5" class="edge">
<title>Node4&#45;&gt;Node6</title>
<path fill="none" stroke="#63b8ff" d="M150.4,-34.37C142.33,-33.5 134.27,-32.62 126.5,-31.78"/>
<polygon fill="#63b8ff" stroke="#63b8ff" points="149.96,-37.85 160.28,-35.45 150.72,-30.89 149.96,-37.85"/>
</g>
<!-- Node7&#45;&gt;Node2 -->
<g id="edge9" class="edge">
<title>Node7&#45;&gt;Node2</title>
<path fill="none" stroke="#63b8ff" d="M693.06,-38.79C681.64,-42.31 669.68,-46 658.04,-49.59"/>
<polygon fill="#63b8ff" stroke="#63b8ff" points="693.84,-42.22 702.36,-35.93 691.78,-35.53 693.84,-42.22"/>
</g>
<!-- Node8 -->
<g id="node8" class="node">
<title>Node8</title>
<g id="a_node8"><a xlink:href="a01311.html#ac7052d4b625fb96f29c5bfc091a86f7e" target="_top" xlink:title="Perform breadth first search to populate the graph with with nodes and edges.">
<polygon fill="white" stroke="#666666" points="658.75,-32 510,-32 510,0 658.75,0 658.75,-32"/>
<text xml:space="preserve" text-anchor="start" x="518" y="-18.5" font-family="Helvetica,sans-Serif" font-size="10.00">HF::GraphGenerator</text>
<text xml:space="preserve" text-anchor="middle" x="584.38" y="-6.5" font-family="Helvetica,sans-Serif" font-size="10.00">::GraphGenerator::CrawlGeom</text>
</a>
</g>
</g>
<!-- Node7&#45;&gt;Node8 -->
<g id="edge7" class="edge">
<title>Node7&#45;&gt;Node8</title>
<path fill="none" stroke="#63b8ff" d="M689.75,-17.82C679.66,-17.65 669.2,-17.46 658.99,-17.28"/>
<polygon fill="#63b8ff" stroke="#63b8ff" points="689.4,-21.32 699.46,-17.99 689.52,-14.32 689.4,-21.32"/>
</g>
<!-- Node8&#45;&gt;Node3 -->
<g id="edge8" class="edge">
<title>Node8&#45;&gt;Node3</title>
<path fill="none" stroke="#63b8ff" d="M498.76,-30.06C490.53,-31.43 482.3,-32.8 474.4,-34.11"/>
<polygon fill="#63b8ff" stroke="#63b8ff" points="499.17,-33.54 508.47,-28.45 498.03,-26.63 499.17,-33.54"/>
</g>
<!-- Node9&#45;&gt;Node2 -->
<g id="edge11" class="edge">
<title>Node9&#45;&gt;Node2</title>
<path fill="none" stroke="#63b8ff" d="M683.39,-70.29C675.3,-70.43 667.05,-70.57 658.96,-70.72"/>
<polygon fill="#63b8ff" stroke="#63b8ff" points="683.26,-73.79 693.2,-70.12 683.14,-66.79 683.26,-73.79"/>
</g>
</g>
</svg>
