<?xml version="1.0" encoding="UTF-8" standalone="no"?>
<!DOCTYPE svg PUBLIC "-//W3C//DTD SVG 1.1//EN"
 "http://www.w3.org/Graphics/SVG/1.1/DTD/svg11.dtd">
<!-- Generated by graphviz version 13.1.2 (20250808.2320)
 -->
<!-- Title: HF::GraphGenerator::GraphGenerator Pages: 1 -->
<svg width="931pt" height="372pt"
 viewBox="0.00 0.00 931.00 372.00" xmlns="http://www.w3.org/2000/svg" xmlns:xlink="http://www.w3.org/1999/xlink">
<g id="graph0" class="graph" transform="scale(1 1) rotate(0) translate(4 368)">
<title>HF::GraphGenerator::GraphGenerator</title>
<!-- Node1 -->
<g id="node1" class="node">
<title>Node1</title>
<g id="a_node1"><a xlink:title="Generate a graph of accessible space from a given start point.">
<polygon fill="#999999" stroke="#666666" points="923.25,-210 818.75,-210 818.75,-178 923.25,-178 923.25,-210"/>
<text xml:space="preserve" text-anchor="start" x="826.75" y="-196.5" font-family="Helvetica,sans-Serif" font-size="10.00">HF::GraphGenerator</text>
<text xml:space="preserve" text-anchor="middle" x="871" y="-184.5" font-family="Helvetica,sans-Serif" font-size="10.00">::GraphGenerator</text>
</a>
</g>
</g>
<!-- Node2 -->
<g id="node2" class="node">
<title>Node2</title>
<g id="a_node2"><a xlink:title=" ">
<polygon fill="white" stroke="#666666" points="46.02,-269 17.23,-269 17.23,-249 46.02,-249 46.02,-269"/>
<text xml:space="preserve" text-anchor="middle" x="31.62" y="-255.5" font-family="Helvetica,sans-Serif" font-size="10.00">int</text>
</a>
</g>
</g>
<!-- Node2&#45;&gt;Node1 -->
<g id="edge1" class="edge">
<title>Node2&#45;&gt;Node1</title>
<path fill="none" stroke="#9a32cd" stroke-dasharray="5,2" d="M55.9,-272.93C86.36,-289.81 141.9,-316 193.25,-316 193.25,-316 193.25,-316 676.75,-316 754.91,-316 827.22,-243.75 856.39,-210.45"/>
<polygon fill="#9a32cd" stroke="#9a32cd" points="57.96,-270.08 47.54,-268.16 54.49,-276.16 57.96,-270.08"/>
<text xml:space="preserve" text-anchor="middle" x="416.5" y="-354.5" font-family="Helvetica,sans-Serif" font-size="10.00"> core_count</text>
<text xml:space="preserve" text-anchor="middle" x="416.5" y="-342.5" font-family="Helvetica,sans-Serif" font-size="10.00">max_nodes</text>
<text xml:space="preserve" text-anchor="middle" x="416.5" y="-330.5" font-family="Helvetica,sans-Serif" font-size="10.00">max_step_connection</text>
<text xml:space="preserve" text-anchor="middle" x="416.5" y="-318.5" font-family="Helvetica,sans-Serif" font-size="10.00">min_connections</text>
</g>
<!-- Node8 -->
<g id="node8" class="node">
<title>Node8</title>
<g id="a_node8"><a xlink:title=" ">
<polygon fill="white" stroke="#666666" points="245.38,-163 143.12,-163 143.12,-131 245.38,-131 245.38,-163"/>
<text xml:space="preserve" text-anchor="start" x="151.12" y="-149.5" font-family="Helvetica,sans-Serif" font-size="10.00">std::unordered_map</text>
<text xml:space="preserve" text-anchor="middle" x="194.25" y="-137.5" font-family="Helvetica,sans-Serif" font-size="10.00">&lt; int, HIT_FLAG &gt;</text>
</a>
</g>
</g>
<!-- Node2&#45;&gt;Node8 -->
<g id="edge10" class="edge">
<title>Node2&#45;&gt;Node8</title>
<path fill="none" stroke="#9a32cd" stroke-dasharray="5,2" d="M55.66,-242.94C85.98,-221.8 138.98,-184.84 169.6,-163.49"/>
<polygon fill="#9a32cd" stroke="#9a32cd" points="53.76,-239.99 47.56,-248.59 57.77,-245.74 53.76,-239.99"/>
<text xml:space="preserve" text-anchor="middle" x="102.62" y="-225.27" font-family="Helvetica,sans-Serif" font-size="10.00"> keys</text>
</g>
<!-- Node3 -->
<g id="node3" class="node">
<title>Node3</title>
<g id="a_node3"><a xlink:title=" ">
<polygon fill="white" stroke="#666666" points="597.25,-265 486.75,-265 486.75,-245 597.25,-245 597.25,-265"/>
<text xml:space="preserve" text-anchor="middle" x="542" y="-251.5" font-family="Helvetica,sans-Serif" font-size="10.00">std::array&lt; real_t, 3 &gt;</text>
</a>
</g>
</g>
<!-- Node3&#45;&gt;Node1 -->
<g id="edge2" class="edge">
<title>Node3&#45;&gt;Node1</title>
<path fill="none" stroke="#9a32cd" stroke-dasharray="5,2" d="M608.91,-242.71C670.65,-231.19 761.68,-214.21 818.33,-203.64"/>
<polygon fill="#9a32cd" stroke="#9a32cd" points="608.41,-239.24 599.22,-244.51 609.69,-246.12 608.41,-239.24"/>
<text xml:space="preserve" text-anchor="middle" x="675.75" y="-243.21" font-family="Helvetica,sans-Serif" font-size="10.00"> spacing</text>
</g>
<!-- Node4 -->
<g id="node4" class="node">
<title>Node4</title>
<g id="a_node4"><a xlink:href="a00001.html#a02139" target="_top" xlink:title=" ">
<polygon fill="white" stroke="#666666" points="216.5,-221 172,-221 172,-201 216.5,-201 216.5,-221"/>
<text xml:space="preserve" text-anchor="middle" x="194.25" y="-207.5" font-family="Helvetica,sans-Serif" font-size="10.00">double</text>
</a>
</g>
</g>
<!-- Node4&#45;&gt;Node3 -->
<g id="edge3" class="edge">
<title>Node4&#45;&gt;Node3</title>
<path fill="none" stroke="#9a32cd" stroke-dasharray="5,2" d="M219.25,-227.37C232.08,-235.18 248.49,-243.74 264.5,-248 339.44,-267.97 429.87,-265.53 486.42,-261"/>
<polygon fill="#9a32cd" stroke="#9a32cd" points="221.4,-224.59 211.09,-222.18 217.65,-230.5 221.4,-224.59"/>
<text xml:space="preserve" text-anchor="middle" x="305.38" y="-263.89" font-family="Helvetica,sans-Serif" font-size="10.00"> elements</text>
</g>
<!-- Node5 -->
<g id="node5" class="node">
<title>Node5</title>
<g id="a_node5"><a xlink:href="a00463.html#a01303" target="_top" xlink:title="Holds parameters for the GraphGenerator.">
<polygon fill="white" stroke="#666666" points="728,-189 623.5,-189 623.5,-157 728,-157 728,-189"/>
<text xml:space="preserve" text-anchor="start" x="631.5" y="-175.5" font-family="Helvetica,sans-Serif" font-size="10.00">HF::GraphGenerator</text>
<text xml:space="preserve" text-anchor="middle" x="675.75" y="-163.5" font-family="Helvetica,sans-Serif" font-size="10.00">::GraphParams</text>
</a>
</g>
</g>
<!-- Node4&#45;&gt;Node5 -->
<g id="edge5" class="edge">
<title>Node4&#45;&gt;Node5</title>
<path fill="none" stroke="#9a32cd" stroke-dasharray="5,2" d="M227.28,-196.43C260.66,-182.11 314.91,-161.23 364.25,-153 454.43,-137.96 561.09,-151.55 623.02,-162.48"/>
<polygon fill="#9a32cd" stroke="#9a32cd" points="225.94,-193.2 218.18,-200.41 228.74,-199.61 225.94,-193.2"/>
<text xml:space="preserve" text-anchor="middle" x="416.5" y="-191.5" font-family="Helvetica,sans-Serif" font-size="10.00"> down_slope</text>
<text xml:space="preserve" text-anchor="middle" x="416.5" y="-179.5" font-family="Helvetica,sans-Serif" font-size="10.00">down_step</text>
<text xml:space="preserve" text-anchor="middle" x="416.5" y="-167.5" font-family="Helvetica,sans-Serif" font-size="10.00">up_slope</text>
<text xml:space="preserve" text-anchor="middle" x="416.5" y="-155.5" font-family="Helvetica,sans-Serif" font-size="10.00">up_step</text>
</g>
<!-- Node6 -->
<g id="node6" class="node">
<title>Node6</title>
<g id="a_node6"><a xlink:href="a00463.html#a01295" target="_top" xlink:title="Various parameters to set the precision of certain parts of the graph generator.">
<polygon fill="white" stroke="#666666" points="468.75,-242 364.25,-242 364.25,-210 468.75,-210 468.75,-242"/>
<text xml:space="preserve" text-anchor="start" x="372.25" y="-228.5" font-family="Helvetica,sans-Serif" font-size="10.00">HF::GraphGenerator</text>
<text xml:space="preserve" text-anchor="middle" x="416.5" y="-216.5" font-family="Helvetica,sans-Serif" font-size="10.00">::Precision</text>
</a>
</g>
</g>
<!-- Node4&#45;&gt;Node6 -->
<g id="edge7" class="edge">
<title>Node4&#45;&gt;Node6</title>
<path fill="none" stroke="#9a32cd" stroke-dasharray="5,2" d="M228.12,-209.4C258.77,-208.34 305.73,-207.81 346.25,-212 351.98,-212.59 357.95,-213.44 363.86,-214.43"/>
<polygon fill="#9a32cd" stroke="#9a32cd" points="228.19,-205.89 218.34,-209.78 228.47,-212.89 228.19,-205.89"/>
<text xml:space="preserve" text-anchor="middle" x="305.38" y="-238.5" font-family="Helvetica,sans-Serif" font-size="10.00"> ground_offset</text>
<text xml:space="preserve" text-anchor="middle" x="305.38" y="-226.5" font-family="Helvetica,sans-Serif" font-size="10.00">node_spacing</text>
<text xml:space="preserve" text-anchor="middle" x="305.38" y="-214.5" font-family="Helvetica,sans-Serif" font-size="10.00">node_z</text>
</g>
<!-- Node5&#45;&gt;Node1 -->
<g id="edge4" class="edge">
<title>Node5&#45;&gt;Node1</title>
<path fill="none" stroke="#9a32cd" stroke-dasharray="5,2" d="M739.69,-179.84C765.12,-182.6 794.11,-185.75 818.27,-188.38"/>
<polygon fill="#9a32cd" stroke="#9a32cd" points="740.11,-176.36 729.79,-178.76 739.35,-183.32 740.11,-176.36"/>
<text xml:space="preserve" text-anchor="middle" x="777.5" y="-188.5" font-family="Helvetica,sans-Serif" font-size="10.00"> params</text>
</g>
<!-- Node6&#45;&gt;Node5 -->
<g id="edge6" class="edge">
<title>Node6&#45;&gt;Node5</title>
<path fill="none" stroke="#9a32cd" stroke-dasharray="5,2" d="M480.36,-213.05C524.18,-204.02 581.94,-192.12 623.08,-183.64"/>
<polygon fill="#9a32cd" stroke="#9a32cd" points="479.82,-209.59 470.73,-215.03 481.23,-216.44 479.82,-209.59"/>
<text xml:space="preserve" text-anchor="middle" x="542" y="-212.84" font-family="Helvetica,sans-Serif" font-size="10.00"> precision</text>
</g>
<!-- Node7 -->
<g id="node7" class="node">
<title>Node7</title>
<g id="a_node7"><a xlink:href="a01299.html" target="_top" xlink:title="Manages rules and ids for different types of geometry in the graph generator.">
<polygon fill="white" stroke="#666666" points="468.75,-108 364.25,-108 364.25,-76 468.75,-76 468.75,-108"/>
<text xml:space="preserve" text-anchor="start" x="372.25" y="-94.5" font-family="Helvetica,sans-Serif" font-size="10.00">HF::GraphGenerator</text>
<text xml:space="preserve" text-anchor="middle" x="416.5" y="-82.5" font-family="Helvetica,sans-Serif" font-size="10.00">::GeometryFlagMap</text>
</a>
</g>
</g>
<!-- Node7&#45;&gt;Node5 -->
<g id="edge8" class="edge">
<title>Node7&#45;&gt;Node5</title>
<path fill="none" stroke="#9a32cd" stroke-dasharray="5,2" d="M480.29,-93.84C515.69,-96.64 560.13,-103.16 597.25,-118 619.92,-127.07 642.28,-144.03 657.11,-156.73"/>
<polygon fill="#9a32cd" stroke="#9a32cd" points="480.86,-90.37 470.64,-93.16 480.37,-97.35 480.86,-90.37"/>
<text xml:space="preserve" text-anchor="middle" x="542" y="-120.5" font-family="Helvetica,sans-Serif" font-size="10.00"> geom_ids</text>
</g>
<!-- Node8&#45;&gt;Node7 -->
<g id="edge9" class="edge">
<title>Node8&#45;&gt;Node7</title>
<path fill="none" stroke="#9a32cd" stroke-dasharray="5,2" d="M240.7,-126.26C248.53,-123.18 256.67,-120.28 264.5,-118 296.93,-108.55 334.35,-102.08 363.82,-97.95"/>
<polygon fill="#9a32cd" stroke="#9a32cd" points="239.61,-122.92 231.68,-129.95 242.26,-129.4 239.61,-122.92"/>
<text xml:space="preserve" text-anchor="middle" x="305.38" y="-120.5" font-family="Helvetica,sans-Serif" font-size="10.00"> internal_dictionary</text>
</g>
<!-- Node9 -->
<g id="node9" class="node">
<title>Node9</title>
<g id="a_node9"><a xlink:title=" ">
<polygon fill="white" stroke="#666666" points="63.25,-157 0,-157 0,-137 63.25,-137 63.25,-157"/>
<text xml:space="preserve" text-anchor="middle" x="31.62" y="-143.5" font-family="Helvetica,sans-Serif" font-size="10.00">HIT_FLAG</text>
</a>
</g>
</g>
<!-- Node9&#45;&gt;Node8 -->
<g id="edge11" class="edge">
<title>Node9&#45;&gt;Node8</title>
<path fill="none" stroke="#9a32cd" stroke-dasharray="5,2" d="M74.96,-147C95.76,-147 120.99,-147 142.79,-147"/>
<polygon fill="#9a32cd" stroke="#9a32cd" points="75.11,-143.5 65.11,-147 75.11,-150.5 75.11,-143.5"/>
<text xml:space="preserve" text-anchor="middle" x="102.62" y="-149.5" font-family="Helvetica,sans-Serif" font-size="10.00"> elements</text>
</g>
<!-- Node10 -->
<g id="node10" class="node">
<title>Node10</title>
<g id="a_node10"><a xlink:title=" ">
<polygon fill="white" stroke="#666666" points="246.5,-92 142,-92 142,-72 246.5,-72 246.5,-92"/>
<text xml:space="preserve" text-anchor="middle" x="194.25" y="-78.5" font-family="Helvetica,sans-Serif" font-size="10.00">GeometryFilterMode</text>
</a>
</g>
</g>
<!-- Node10&#45;&gt;Node7 -->
<g id="edge12" class="edge">
<title>Node10&#45;&gt;Node7</title>
<path fill="none" stroke="#9a32cd" stroke-dasharray="5,2" d="M257.99,-80.7C285.15,-80.58 317.3,-81.03 346.25,-83 351.93,-83.39 357.87,-83.93 363.76,-84.57"/>
<polygon fill="#9a32cd" stroke="#9a32cd" points="258.16,-77.2 248.19,-80.77 258.22,-84.2 258.16,-77.2"/>
<text xml:space="preserve" text-anchor="middle" x="305.38" y="-85.5" font-family="Helvetica,sans-Serif" font-size="10.00"> Mode</text>
</g>
<!-- Node11 -->
<g id="node11" class="node">
<title>Node11</title>
<g id="a_node11"><a xlink:href="a01419.html" target="_top" xlink:title=" ">
<polygon fill="white" stroke="#666666" points="736.25,-58 615.25,-58 615.25,-38 736.25,-38 736.25,-58"/>
<text xml:space="preserve" text-anchor="middle" x="675.75" y="-44.5" font-family="Helvetica,sans-Serif" font-size="10.00">HF::RayTracer::MultiRT</text>
</a>
</g>
</g>
<!-- Node11&#45;&gt;Node1 -->
<g id="edge13" class="edge">
<title>Node11&#45;&gt;Node1</title>
<path fill="none" stroke="#9a32cd" stroke-dasharray="5,2" d="M699.8,-65.42C737.41,-93.83 811.44,-149.75 848.21,-177.54"/>
<polygon fill="#9a32cd" stroke="#9a32cd" points="701.94,-62.65 691.86,-59.41 697.72,-68.23 701.94,-62.65"/>
<text xml:space="preserve" text-anchor="middle" x="777.5" y="-140.87" font-family="Helvetica,sans-Serif" font-size="10.00"> ray_tracer</text>
</g>
<!-- Node12 -->
<g id="node12" class="node">
<title>Node12</title>
<g id="a_node12"><a xlink:title=" ">
<polygon fill="white" stroke="#666666" points="436.88,-20 396.12,-20 396.12,0 436.88,0 436.88,-20"/>
<text xml:space="preserve" text-anchor="middle" x="416.5" y="-6.5" font-family="Helvetica,sans-Serif" font-size="10.00">void *</text>
</a>
</g>
</g>
<!-- Node12&#45;&gt;Node11 -->
<g id="edge14" class="edge">
<title>Node12&#45;&gt;Node11</title>
<path fill="none" stroke="#9a32cd" stroke-dasharray="5,2" d="M448.42,-13.01C484.33,-16.68 545.27,-23.47 597.25,-32 607.01,-33.6 617.41,-35.57 627.32,-37.57"/>
<polygon fill="#9a32cd" stroke="#9a32cd" points="449.06,-9.55 438.76,-12.04 448.36,-16.52 449.06,-9.55"/>
<text xml:space="preserve" text-anchor="middle" x="542" y="-34.5" font-family="Helvetica,sans-Serif" font-size="10.00"> RayTracer</text>
</g>
<!-- Node13 -->
<g id="node13" class="node">
<title>Node13</title>
<g id="a_node13"><a xlink:title=" ">
<polygon fill="white" stroke="#666666" points="444,-58 389,-58 389,-38 444,-38 444,-58"/>
<text xml:space="preserve" text-anchor="middle" x="416.5" y="-44.5" font-family="Helvetica,sans-Serif" font-size="10.00">RT_Type</text>
</a>
</g>
</g>
<!-- Node13&#45;&gt;Node11 -->
<g id="edge15" class="edge">
<title>Node13&#45;&gt;Node11</title>
<path fill="none" stroke="#9a32cd" stroke-dasharray="5,2" d="M455.44,-48C497.45,-48 565.76,-48 614.98,-48"/>
<polygon fill="#9a32cd" stroke="#9a32cd" points="455.57,-44.5 445.57,-48 455.57,-51.5 455.57,-44.5"/>
<text xml:space="preserve" text-anchor="middle" x="542" y="-50.5" font-family="Helvetica,sans-Serif" font-size="10.00"> type</text>
</g>
</g>
</svg>
