<?xml version="1.0" encoding="UTF-8" standalone="no"?>
<!DOCTYPE svg PUBLIC "-//W3C//DTD SVG 1.1//EN"
 "http://www.w3.org/Graphics/SVG/1.1/DTD/svg11.dtd">
<!-- Generated by graphviz version 13.1.2 (20250808.2320)
 -->
<!-- Title: HF::Geometry::array_and_size&lt; ptr_type &gt; Pages: 1 -->
<svg width="125pt" height="108pt"
 viewBox="0.00 0.00 125.00 108.00" xmlns="http://www.w3.org/2000/svg" xmlns:xlink="http://www.w3.org/1999/xlink">
<g id="graph0" class="graph" transform="scale(1 1) rotate(0) translate(4 104)">
<title>HF::Geometry::array_and_size&lt; ptr_type &gt;</title>
<!-- Node1 -->
<g id="node1" class="node">
<title>Node1</title>
<g id="a_node1"><a xlink:title="A simple type to hold the size and data pointer of an array.">
<polygon fill="#999999" stroke="#666666" points="113.5,-32 0,-32 0,0 113.5,0 113.5,-32"/>
<text xml:space="preserve" text-anchor="start" x="8" y="-18.5" font-family="Helvetica,sans-Serif" font-size="10.00">HF::Geometry::array</text>
<text xml:space="preserve" text-anchor="middle" x="56.75" y="-6.5" font-family="Helvetica,sans-Serif" font-size="10.00">_and_size&lt; ptr_type &gt;</text>
</a>
</g>
</g>
<!-- Node2 -->
<g id="node2" class="node">
<title>Node2</title>
<g id="a_node2"><a xlink:title=" ">
<polygon fill="white" stroke="#666666" points="41.15,-100 12.35,-100 12.35,-80 41.15,-80 41.15,-100"/>
<text xml:space="preserve" text-anchor="middle" x="26.75" y="-86.5" font-family="Helvetica,sans-Serif" font-size="10.00">int</text>
</a>
</g>
</g>
<!-- Node2&#45;&gt;Node1 -->
<g id="edge1" class="edge">
<title>Node2&#45;&gt;Node1</title>
<path fill="none" stroke="#9a32cd" stroke-dasharray="5,2" d="M35,-69.19C39.83,-57.61 45.83,-43.21 50.3,-32.47"/>
<polygon fill="#9a32cd" stroke="#9a32cd" points="31.87,-67.61 31.25,-78.19 38.33,-70.31 31.87,-67.61"/>
<text xml:space="preserve" text-anchor="middle" x="53.15" y="-52.5" font-family="Helvetica,sans-Serif" font-size="10.00"> size</text>
</g>
<!-- Node3 -->
<g id="node3" class="node">
<title>Node3</title>
<g id="a_node3"><a xlink:title=" ">
<polygon fill="white" stroke="#666666" points="116.75,-100 58.75,-100 58.75,-80 116.75,-80 116.75,-100"/>
<text xml:space="preserve" text-anchor="middle" x="87.75" y="-86.5" font-family="Helvetica,sans-Serif" font-size="10.00">ptr_type *</text>
</a>
</g>
</g>
<!-- Node3&#45;&gt;Node1 -->
<g id="edge2" class="edge">
<title>Node3&#45;&gt;Node1</title>
<path fill="none" stroke="#9a32cd" stroke-dasharray="5,2" d="M79.22,-69.19C74.24,-57.61 68.03,-43.21 63.41,-32.47"/>
<polygon fill="#9a32cd" stroke="#9a32cd" points="75.93,-70.4 83.1,-78.2 82.36,-67.63 75.93,-70.4"/>
<text xml:space="preserve" text-anchor="middle" x="86.81" y="-52.5" font-family="Helvetica,sans-Serif" font-size="10.00"> data</text>
</g>
</g>
</svg>
