<?xml version="1.0" encoding="UTF-8" standalone="no"?>
<!DOCTYPE svg PUBLIC "-//W3C//DTD SVG 1.1//EN"
 "http://www.w3.org/Graphics/SVG/1.1/DTD/svg11.dtd">
<!-- Generated by graphviz version 13.1.2 (20250808.2320)
 -->
<!-- Title: HF::Pathfinding::DistPred Pages: 1 -->
<svg width="224pt" height="176pt"
 viewBox="0.00 0.00 224.00 176.00" xmlns="http://www.w3.org/2000/svg" xmlns:xlink="http://www.w3.org/1999/xlink">
<g id="graph0" class="graph" transform="scale(1 1) rotate(0) translate(4 172)">
<title>HF::Pathfinding::DistPred</title>
<!-- Node1 -->
<g id="node1" class="node">
<title>Node1</title>
<g id="a_node1"><a xlink:title="A single row of a distance and predecessor matrix.">
<polygon fill="#999999" stroke="#666666" points="171.88,-20 43.38,-20 43.38,0 171.88,0 171.88,-20"/>
<text xml:space="preserve" text-anchor="middle" x="107.62" y="-6.5" font-family="Helvetica,sans-Serif" font-size="10.00">HF::Pathfinding::DistPred</text>
</a>
</g>
</g>
<!-- Node2 -->
<g id="node2" class="node">
<title>Node2</title>
<g id="a_node2"><a xlink:title=" ">
<polygon fill="white" stroke="#666666" points="99.25,-94 0,-94 0,-74 99.25,-74 99.25,-94"/>
<text xml:space="preserve" text-anchor="middle" x="49.62" y="-80.5" font-family="Helvetica,sans-Serif" font-size="10.00">std::vector&lt; float &gt;</text>
</a>
</g>
</g>
<!-- Node2&#45;&gt;Node1 -->
<g id="edge1" class="edge">
<title>Node2&#45;&gt;Node1</title>
<path fill="none" stroke="#9a32cd" stroke-dasharray="5,2" d="M64.38,-64.68C75.83,-50.47 91.23,-31.36 100.22,-20.19"/>
<polygon fill="#9a32cd" stroke="#9a32cd" points="61.7,-62.43 58.16,-72.41 67.16,-66.82 61.7,-62.43"/>
<text xml:space="preserve" text-anchor="middle" x="105.4" y="-40.5" font-family="Helvetica,sans-Serif" font-size="10.00"> distance</text>
</g>
<!-- Node3 -->
<g id="node3" class="node">
<title>Node3</title>
<g id="a_node3"><a xlink:title=" ">
<polygon fill="white" stroke="#666666" points="67,-168 32.25,-168 32.25,-148 67,-148 67,-168"/>
<text xml:space="preserve" text-anchor="middle" x="49.62" y="-154.5" font-family="Helvetica,sans-Serif" font-size="10.00">float</text>
</a>
</g>
</g>
<!-- Node3&#45;&gt;Node2 -->
<g id="edge2" class="edge">
<title>Node3&#45;&gt;Node2</title>
<path fill="none" stroke="#9a32cd" stroke-dasharray="5,2" d="M49.62,-136.18C49.62,-122.29 49.62,-104.71 49.62,-94.19"/>
<polygon fill="#9a32cd" stroke="#9a32cd" points="46.13,-136.07 49.63,-146.07 53.13,-136.07 46.13,-136.07"/>
<text xml:space="preserve" text-anchor="middle" x="71" y="-120.5" font-family="Helvetica,sans-Serif" font-size="10.00"> elements</text>
</g>
<!-- Node4 -->
<g id="node4" class="node">
<title>Node4</title>
<g id="a_node4"><a xlink:title=" ">
<polygon fill="white" stroke="#666666" points="215.88,-100 117.38,-100 117.38,-68 215.88,-68 215.88,-100"/>
<text xml:space="preserve" text-anchor="start" x="125.38" y="-86.5" font-family="Helvetica,sans-Serif" font-size="10.00">std::vector&lt; vertex</text>
<text xml:space="preserve" text-anchor="middle" x="166.62" y="-74.5" font-family="Helvetica,sans-Serif" font-size="10.00">_descriptor &gt;</text>
</a>
</g>
</g>
<!-- Node4&#45;&gt;Node1 -->
<g id="edge3" class="edge">
<title>Node4&#45;&gt;Node1</title>
<path fill="none" stroke="#9a32cd" stroke-dasharray="5,2" d="M147,-59.05C136.13,-45.79 123.25,-30.07 115.26,-20.31"/>
<polygon fill="#9a32cd" stroke="#9a32cd" points="144.11,-61.04 153.15,-66.56 149.52,-56.61 144.11,-61.04"/>
<text xml:space="preserve" text-anchor="middle" x="167.02" y="-40.5" font-family="Helvetica,sans-Serif" font-size="10.00"> predecessor</text>
</g>
<!-- Node5 -->
<g id="node5" class="node">
<title>Node5</title>
<g id="a_node5"><a xlink:title=" ">
<polygon fill="white" stroke="#666666" points="212.12,-168 121.12,-168 121.12,-148 212.12,-148 212.12,-168"/>
<text xml:space="preserve" text-anchor="middle" x="166.62" y="-154.5" font-family="Helvetica,sans-Serif" font-size="10.00">vertex_descriptor</text>
</a>
</g>
</g>
<!-- Node5&#45;&gt;Node4 -->
<g id="edge4" class="edge">
<title>Node5&#45;&gt;Node4</title>
<path fill="none" stroke="#9a32cd" stroke-dasharray="5,2" d="M166.62,-136.1C166.62,-124.71 166.62,-110.87 166.62,-100.47"/>
<polygon fill="#9a32cd" stroke="#9a32cd" points="163.13,-136.07 166.63,-146.07 170.13,-136.07 163.13,-136.07"/>
<text xml:space="preserve" text-anchor="middle" x="188" y="-120.5" font-family="Helvetica,sans-Serif" font-size="10.00"> elements</text>
</g>
</g>
</svg>
