<?xml version="1.0" encoding="UTF-8" standalone="no"?>
<!DOCTYPE svg PUBLIC "-//W3C//DTD SVG 1.1//EN"
 "http://www.w3.org/Graphics/SVG/1.1/DTD/svg11.dtd">
<!-- Generated by graphviz version 13.1.2 (20250808.2320)
 -->
<!-- Title: HF::Geometry::MeshInfo::operator== Pages: 1 -->
<svg width="294pt" height="78pt"
 viewBox="0.00 0.00 294.00 78.00" xmlns="http://www.w3.org/2000/svg" xmlns:xlink="http://www.w3.org/1999/xlink">
<g id="graph0" class="graph" transform="scale(1 1) rotate(0) translate(4 74)">
<title>HF::Geometry::MeshInfo::operator==</title>
<!-- Node1 -->
<g id="node1" class="node">
<title>Node1</title>
<g id="a_node1"><a xlink:title="Compare the vertices of two MeshInfo objects.">
<polygon fill="#999999" stroke="#666666" points="124.75,-54 0,-54 0,-22 124.75,-22 124.75,-54"/>
<text xml:space="preserve" text-anchor="start" x="8" y="-40.5" font-family="Helvetica,sans-Serif" font-size="10.00">HF::Geometry::MeshInfo</text>
<text xml:space="preserve" text-anchor="middle" x="62.38" y="-28.5" font-family="Helvetica,sans-Serif" font-size="10.00">::operator==</text>
</a>
</g>
</g>
<!-- Node2 -->
<g id="node2" class="node">
<title>Node2</title>
<g id="a_node2"><a xlink:href="a00469.html#aa99106d1e4908e4385773774fb482b4f" target="_top" xlink:title="Calculate the distance between from and to.">
<polygon fill="white" stroke="#666666" points="285.12,-70 161.12,-70 161.12,-50 285.12,-50 285.12,-70"/>
<text xml:space="preserve" text-anchor="middle" x="223.12" y="-56.5" font-family="Helvetica,sans-Serif" font-size="10.00">HF::Geometry::arrayDist</text>
</a>
</g>
</g>
<!-- Node1&#45;&gt;Node2 -->
<g id="edge1" class="edge">
<title>Node1&#45;&gt;Node2</title>
<path fill="none" stroke="#63b8ff" d="M125.21,-46.57C133.14,-47.67 141.31,-48.8 149.39,-49.92"/>
<polygon fill="#63b8ff" stroke="#63b8ff" points="148.84,-53.38 159.22,-51.28 149.8,-46.44 148.84,-53.38"/>
</g>
<!-- Node3 -->
<g id="node3" class="node">
<title>Node3</title>
<g id="a_node3"><a xlink:href="a01351.html#a70a6f6b9270d47e0b8428cdc15b707d3" target="_top" xlink:title="Determine how many vertices are in this mesh.">
<polygon fill="white" stroke="#666666" points="285.5,-32 160.75,-32 160.75,0 285.5,0 285.5,-32"/>
<text xml:space="preserve" text-anchor="start" x="168.75" y="-18.5" font-family="Helvetica,sans-Serif" font-size="10.00">HF::Geometry::MeshInfo</text>
<text xml:space="preserve" text-anchor="middle" x="223.12" y="-6.5" font-family="Helvetica,sans-Serif" font-size="10.00">::NumVerts</text>
</a>
</g>
</g>
<!-- Node1&#45;&gt;Node3 -->
<g id="edge2" class="edge">
<title>Node1&#45;&gt;Node3</title>
<path fill="none" stroke="#63b8ff" d="M125.21,-29.43C133.08,-28.34 141.19,-27.22 149.21,-26.1"/>
<polygon fill="#63b8ff" stroke="#63b8ff" points="149.54,-29.59 158.96,-24.75 148.58,-22.66 149.54,-29.59"/>
</g>
</g>
</svg>
