<?xml version="1.0" encoding="UTF-8" standalone="no"?>
<!DOCTYPE svg PUBLIC "-//W3C//DTD SVG 1.1//EN"
 "http://www.w3.org/Graphics/SVG/1.1/DTD/svg11.dtd">
<!-- Generated by graphviz version 13.1.2 (20250808.2320)
 -->
<!-- Title: HF::Exceptions::NoCost Pages: 1 -->
<svg width="188pt" height="165pt"
 viewBox="0.00 0.00 188.00 165.00" xmlns="http://www.w3.org/2000/svg" xmlns:xlink="http://www.w3.org/1999/xlink">
<g id="graph0" class="graph" transform="scale(1 1) rotate(0) translate(4 161)">
<title>HF::Exceptions::NoCost</title>
<!-- Node1 -->
<g id="node1" class="node">
<title>Node1</title>
<g id="a_node1"><a xlink:title="Thrown when a dependency is missing such as Embree.">
<polygon fill="#999999" stroke="#666666" points="124,-20 0,-20 0,0 124,0 124,-20"/>
<text xml:space="preserve" text-anchor="middle" x="62" y="-6.5" font-family="Helvetica,sans-Serif" font-size="10.00">HF::Exceptions::NoCost</text>
</a>
</g>
</g>
<!-- Node2 -->
<g id="node2" class="node">
<title>Node2</title>
<g id="a_node2"><a xlink:title=" ">
<polygon fill="white" stroke="#666666" points="84.75,-88 7.25,-88 7.25,-68 84.75,-68 84.75,-88"/>
<text xml:space="preserve" text-anchor="middle" x="46" y="-74.5" font-family="Helvetica,sans-Serif" font-size="10.00">std::exception</text>
</a>
</g>
</g>
<!-- Node2&#45;&gt;Node1 -->
<g id="edge1" class="edge">
<title>Node2&#45;&gt;Node1</title>
<path fill="none" stroke="#63b8ff" d="M50.93,-56.65C53.86,-44.58 57.43,-29.84 59.71,-20.44"/>
<polygon fill="#63b8ff" stroke="#63b8ff" points="47.6,-55.53 48.65,-66.07 54.41,-57.18 47.6,-55.53"/>
</g>
<!-- Node3 -->
<g id="node3" class="node">
<title>Node3</title>
<g id="a_node3"><a xlink:title=" ">
<polygon fill="white" stroke="#666666" points="162.75,-88 103.25,-88 103.25,-68 162.75,-68 162.75,-88"/>
<text xml:space="preserve" text-anchor="middle" x="133" y="-74.5" font-family="Helvetica,sans-Serif" font-size="10.00">std::string</text>
</a>
</g>
</g>
<!-- Node3&#45;&gt;Node1 -->
<g id="edge2" class="edge">
<title>Node3&#45;&gt;Node1</title>
<path fill="none" stroke="#9a32cd" stroke-dasharray="5,2" d="M114.68,-59.97C101.15,-47.39 83.22,-30.72 72.15,-20.44"/>
<polygon fill="#9a32cd" stroke="#9a32cd" points="112.01,-62.27 121.72,-66.51 116.78,-57.14 112.01,-62.27"/>
<text xml:space="preserve" text-anchor="middle" x="126.73" y="-40.5" font-family="Helvetica,sans-Serif" font-size="10.00"> cost_type</text>
</g>
<!-- Node4 -->
<g id="node4" class="node">
<title>Node4</title>
<g id="a_node4"><a xlink:title=" ">
<polygon fill="white" stroke="#666666" points="180,-157 86,-157 86,-125 180,-125 180,-157"/>
<text xml:space="preserve" text-anchor="start" x="94" y="-143.5" font-family="Helvetica,sans-Serif" font-size="10.00">std::basic_string&lt;</text>
<text xml:space="preserve" text-anchor="middle" x="133" y="-131.5" font-family="Helvetica,sans-Serif" font-size="10.00"> Char &gt;</text>
</a>
</g>
</g>
<!-- Node4&#45;&gt;Node3 -->
<g id="edge3" class="edge">
<title>Node4&#45;&gt;Node3</title>
<path fill="none" stroke="#63b8ff" d="M133,-113.36C133,-104.41 133,-95.01 133,-88.31"/>
<polygon fill="#63b8ff" stroke="#63b8ff" points="129.5,-113.09 133,-123.09 136.5,-113.09 129.5,-113.09"/>
</g>
</g>
</svg>
