<?xml version="1.0" encoding="UTF-8" standalone="no"?>
<!DOCTYPE svg PUBLIC "-//W3C//DTD SVG 1.1//EN"
 "http://www.w3.org/Graphics/SVG/1.1/DTD/svg11.dtd">
<!-- Generated by graphviz version 13.1.2 (20250808.2320)
 -->
<!-- Title: HF::Geometry::tinyobj_geometry&lt; T &gt; Pages: 1 -->
<svg width="779pt" height="128pt"
 viewBox="0.00 0.00 779.00 128.00" xmlns="http://www.w3.org/2000/svg" xmlns:xlink="http://www.w3.org/1999/xlink">
<g id="graph0" class="graph" transform="scale(1 1) rotate(0) translate(4 124)">
<title>HF::Geometry::tinyobj_geometry&lt; T &gt;</title>
<!-- Node1 -->
<g id="node1" class="node">
<title>Node1</title>
<g id="a_node1"><a xlink:title=" ">
<polygon fill="#999999" stroke="#666666" points="771,-76 658.25,-76 658.25,-44 771,-44 771,-76"/>
<text xml:space="preserve" text-anchor="start" x="666.25" y="-62.5" font-family="Helvetica,sans-Serif" font-size="10.00">HF::Geometry::tinyobj</text>
<text xml:space="preserve" text-anchor="middle" x="714.62" y="-50.5" font-family="Helvetica,sans-Serif" font-size="10.00">_geometry&lt; T &gt;</text>
</a>
</g>
</g>
<!-- Node2 -->
<g id="node2" class="node">
<title>Node2</title>
<g id="a_node2"><a xlink:title=" ">
<polygon fill="white" stroke="#666666" points="578.75,-120 445,-120 445,-88 578.75,-88 578.75,-120"/>
<text xml:space="preserve" text-anchor="start" x="453" y="-106.5" font-family="Helvetica,sans-Serif" font-size="10.00">std::vector&lt; HF::Geometry</text>
<text xml:space="preserve" text-anchor="middle" x="511.88" y="-94.5" font-family="Helvetica,sans-Serif" font-size="10.00">::tinyobj_shape&lt; T &gt; &gt;</text>
</a>
</g>
</g>
<!-- Node2&#45;&gt;Node1 -->
<g id="edge1" class="edge">
<title>Node2&#45;&gt;Node1</title>
<path fill="none" stroke="#9a32cd" stroke-dasharray="5,2" d="M590.39,-87.01C612.86,-82.08 636.95,-76.81 657.81,-72.23"/>
<polygon fill="#9a32cd" stroke="#9a32cd" points="589.66,-83.59 580.64,-89.15 591.16,-90.42 589.66,-83.59"/>
<text xml:space="preserve" text-anchor="middle" x="618.5" y="-87.13" font-family="Helvetica,sans-Serif" font-size="10.00"> shapes</text>
</g>
<!-- Node3 -->
<g id="node3" class="node">
<title>Node3</title>
<g id="a_node3"><a xlink:title=" ">
<polygon fill="white" stroke="#666666" points="359.5,-114 260.25,-114 260.25,-94 359.5,-94 359.5,-114"/>
<text xml:space="preserve" text-anchor="middle" x="309.88" y="-100.5" font-family="Helvetica,sans-Serif" font-size="10.00">tinyobj_shape&lt; T &gt;</text>
</a>
</g>
</g>
<!-- Node3&#45;&gt;Node2 -->
<g id="edge2" class="edge">
<title>Node3&#45;&gt;Node2</title>
<path fill="none" stroke="#9a32cd" stroke-dasharray="5,2" d="M371.23,-104C394.42,-104 421,-104 444.71,-104"/>
<polygon fill="#9a32cd" stroke="#9a32cd" points="371.31,-100.5 361.31,-104 371.31,-107.5 371.31,-100.5"/>
<text xml:space="preserve" text-anchor="middle" x="405.62" y="-106.5" font-family="Helvetica,sans-Serif" font-size="10.00"> elements</text>
</g>
<!-- Node4 -->
<g id="node4" class="node">
<title>Node4</title>
<g id="a_node4"><a xlink:title=" ">
<polygon fill="white" stroke="#666666" points="555.5,-70 468.25,-70 468.25,-50 555.5,-50 555.5,-70"/>
<text xml:space="preserve" text-anchor="middle" x="511.88" y="-56.5" font-family="Helvetica,sans-Serif" font-size="10.00">tinyobj_attr&lt; T &gt;</text>
</a>
</g>
</g>
<!-- Node4&#45;&gt;Node1 -->
<g id="edge3" class="edge">
<title>Node4&#45;&gt;Node1</title>
<path fill="none" stroke="#9a32cd" stroke-dasharray="5,2" d="M567.2,-60C595.35,-60 629.69,-60 658.03,-60"/>
<polygon fill="#9a32cd" stroke="#9a32cd" points="567.45,-56.5 557.45,-60 567.45,-63.5 567.45,-56.5"/>
<text xml:space="preserve" text-anchor="middle" x="618.5" y="-62.5" font-family="Helvetica,sans-Serif" font-size="10.00"> attributes</text>
</g>
<!-- Node5 -->
<g id="node5" class="node">
<title>Node5</title>
<g id="a_node5"><a xlink:title=" ">
<polygon fill="white" stroke="#666666" points="578.75,-32 445,-32 445,0 578.75,0 578.75,-32"/>
<text xml:space="preserve" text-anchor="start" x="453" y="-18.5" font-family="Helvetica,sans-Serif" font-size="10.00">std::vector&lt; HF::Geometry</text>
<text xml:space="preserve" text-anchor="middle" x="511.88" y="-6.5" font-family="Helvetica,sans-Serif" font-size="10.00">::tinyobj_material &gt;</text>
</a>
</g>
</g>
<!-- Node5&#45;&gt;Node1 -->
<g id="edge4" class="edge">
<title>Node5&#45;&gt;Node1</title>
<path fill="none" stroke="#9a32cd" stroke-dasharray="5,2" d="M590.39,-32.99C612.86,-37.92 636.95,-43.19 657.81,-47.77"/>
<polygon fill="#9a32cd" stroke="#9a32cd" points="591.16,-29.58 580.64,-30.85 589.66,-36.41 591.16,-29.58"/>
<text xml:space="preserve" text-anchor="middle" x="618.5" y="-45.73" font-family="Helvetica,sans-Serif" font-size="10.00"> materials</text>
</g>
<!-- Node6 -->
<g id="node6" class="node">
<title>Node6</title>
<g id="a_node6"><a xlink:href="a00469.html#a01363" target="_top" xlink:title=" ">
<polygon fill="white" stroke="#666666" points="366.25,-32 253.5,-32 253.5,0 366.25,0 366.25,-32"/>
<text xml:space="preserve" text-anchor="start" x="261.5" y="-18.5" font-family="Helvetica,sans-Serif" font-size="10.00">HF::Geometry::tinyobj</text>
<text xml:space="preserve" text-anchor="middle" x="309.88" y="-6.5" font-family="Helvetica,sans-Serif" font-size="10.00">_material</text>
</a>
</g>
</g>
<!-- Node6&#45;&gt;Node5 -->
<g id="edge5" class="edge">
<title>Node6&#45;&gt;Node5</title>
<path fill="none" stroke="#9a32cd" stroke-dasharray="5,2" d="M377.96,-16C399.51,-16 423.35,-16 444.83,-16"/>
<polygon fill="#9a32cd" stroke="#9a32cd" points="378.1,-12.5 368.1,-16 378.1,-19.5 378.1,-12.5"/>
<text xml:space="preserve" text-anchor="middle" x="405.62" y="-18.5" font-family="Helvetica,sans-Serif" font-size="10.00"> elements</text>
</g>
<!-- Node7 -->
<g id="node7" class="node">
<title>Node7</title>
<g id="a_node7"><a xlink:title=" ">
<polygon fill="white" stroke="#666666" points="190.5,-26 131,-26 131,-6 190.5,-6 190.5,-26"/>
<text xml:space="preserve" text-anchor="middle" x="160.75" y="-12.5" font-family="Helvetica,sans-Serif" font-size="10.00">std::string</text>
</a>
</g>
</g>
<!-- Node7&#45;&gt;Node6 -->
<g id="edge6" class="edge">
<title>Node7&#45;&gt;Node6</title>
<path fill="none" stroke="#9a32cd" stroke-dasharray="5,2" d="M202.26,-16C217.95,-16 236.17,-16 253.06,-16"/>
<polygon fill="#9a32cd" stroke="#9a32cd" points="202.33,-12.5 192.33,-16 202.33,-19.5 202.33,-12.5"/>
<text xml:space="preserve" text-anchor="middle" x="222" y="-18.5" font-family="Helvetica,sans-Serif" font-size="10.00"> name</text>
</g>
<!-- Node8 -->
<g id="node8" class="node">
<title>Node8</title>
<g id="a_node8"><a xlink:title=" ">
<polygon fill="white" stroke="#666666" points="94,-32 0,-32 0,0 94,0 94,-32"/>
<text xml:space="preserve" text-anchor="start" x="8" y="-18.5" font-family="Helvetica,sans-Serif" font-size="10.00">std::basic_string&lt;</text>
<text xml:space="preserve" text-anchor="middle" x="47" y="-6.5" font-family="Helvetica,sans-Serif" font-size="10.00"> Char &gt;</text>
</a>
</g>
</g>
<!-- Node8&#45;&gt;Node7 -->
<g id="edge7" class="edge">
<title>Node8&#45;&gt;Node7</title>
<path fill="none" stroke="#63b8ff" d="M105.71,-16C114.32,-16 122.87,-16 130.55,-16"/>
<polygon fill="#63b8ff" stroke="#63b8ff" points="105.93,-12.5 95.93,-16 105.93,-19.5 105.93,-12.5"/>
</g>
</g>
</svg>
