<?xml version="1.0" encoding="UTF-8" standalone="no"?>
<!DOCTYPE svg PUBLIC "-//W3C//DTD SVG 1.1//EN"
 "http://www.w3.org/Graphics/SVG/1.1/DTD/svg11.dtd">
<!-- Generated by graphviz version 13.1.2 (20250808.2320)
 -->
<!-- Title: HF::GraphGenerator::UniqueQueue::PushAny Pages: 1 -->
<svg width="830pt" height="75pt"
 viewBox="0.00 0.00 830.00 75.00" xmlns="http://www.w3.org/2000/svg" xmlns:xlink="http://www.w3.org/1999/xlink">
<g id="graph0" class="graph" transform="scale(1 1) rotate(0) translate(4 71)">
<title>HF::GraphGenerator::UniqueQueue::PushAny</title>
<!-- Node1 -->
<g id="node1" class="node">
<title>Node1</title>
<g id="a_node1"><a xlink:title="Call push with any type of object.">
<polygon fill="#999999" stroke="#666666" points="821.75,-45 694.75,-45 694.75,-13 821.75,-13 821.75,-45"/>
<text xml:space="preserve" text-anchor="start" x="702.75" y="-31.5" font-family="Helvetica,sans-Serif" font-size="10.00">HF::GraphGenerator</text>
<text xml:space="preserve" text-anchor="middle" x="758.25" y="-19.5" font-family="Helvetica,sans-Serif" font-size="10.00">::UniqueQueue::PushAny</text>
</a>
</g>
</g>
<!-- Node2 -->
<g id="node2" class="node">
<title>Node2</title>
<g id="a_node2"><a xlink:href="a01311.html#ac7052d4b625fb96f29c5bfc091a86f7e" target="_top" xlink:title="Perform breadth first search to populate the graph with with nodes and edges.">
<polygon fill="white" stroke="#666666" points="658.75,-67 510,-67 510,-35 658.75,-35 658.75,-67"/>
<text xml:space="preserve" text-anchor="start" x="518" y="-53.5" font-family="Helvetica,sans-Serif" font-size="10.00">HF::GraphGenerator</text>
<text xml:space="preserve" text-anchor="middle" x="584.38" y="-41.5" font-family="Helvetica,sans-Serif" font-size="10.00">::GraphGenerator::CrawlGeom</text>
</a>
</g>
</g>
<!-- Node1&#45;&gt;Node2 -->
<g id="edge1" class="edge">
<title>Node1&#45;&gt;Node2</title>
<path fill="none" stroke="#63b8ff" d="M683.39,-38.45C675.3,-39.49 667.05,-40.55 658.96,-41.58"/>
<polygon fill="#63b8ff" stroke="#63b8ff" points="683.74,-41.94 693.21,-37.2 682.85,-34.99 683.74,-41.94"/>
</g>
<!-- Node3 -->
<g id="node3" class="node">
<title>Node3</title>
<g id="a_node3"><a xlink:href="a01311.html#a5788e421d921ec0ff27defc139c45106" target="_top" xlink:title="Generate a graph of accessible space.">
<polygon fill="white" stroke="#666666" points="474,-51 353.75,-51 353.75,-7 474,-7 474,-51"/>
<text xml:space="preserve" text-anchor="start" x="361.75" y="-37.5" font-family="Helvetica,sans-Serif" font-size="10.00">HF::GraphGenerator</text>
<text xml:space="preserve" text-anchor="start" x="361.75" y="-25.5" font-family="Helvetica,sans-Serif" font-size="10.00">::GraphGenerator::IMPL</text>
<text xml:space="preserve" text-anchor="middle" x="413.88" y="-13.5" font-family="Helvetica,sans-Serif" font-size="10.00">_BuildNetwork</text>
</a>
</g>
</g>
<!-- Node1&#45;&gt;Node3 -->
<g id="edge6" class="edge">
<title>Node1&#45;&gt;Node3</title>
<path fill="none" stroke="#63b8ff" d="M682.97,-26.5C674.8,-26.29 666.6,-26.12 658.75,-26 592.65,-24.99 576.1,-24.96 510,-26 498.52,-26.18 486.26,-26.48 474.49,-26.83"/>
<polygon fill="#63b8ff" stroke="#63b8ff" points="682.86,-29.99 692.95,-26.76 683.05,-23 682.86,-29.99"/>
</g>
<!-- Node2&#45;&gt;Node3 -->
<g id="edge2" class="edge">
<title>Node2&#45;&gt;Node3</title>
<path fill="none" stroke="#63b8ff" d="M498.76,-39.95C490.53,-38.88 482.3,-37.8 474.4,-36.77"/>
<polygon fill="#63b8ff" stroke="#63b8ff" points="498.09,-43.39 508.46,-41.22 499,-36.45 498.09,-43.39"/>
</g>
<!-- Node4 -->
<g id="node4" class="node">
<title>Node4</title>
<g id="a_node4"><a xlink:href="a01311.html#a0c12341433bbec41cc12cc1dbb41a976" target="_top" xlink:title="Generate a graph of accessible space.">
<polygon fill="white" stroke="#666666" points="317.75,-45 162.25,-45 162.25,-13 317.75,-13 317.75,-45"/>
<text xml:space="preserve" text-anchor="start" x="170.25" y="-31.5" font-family="Helvetica,sans-Serif" font-size="10.00">HF::GraphGenerator</text>
<text xml:space="preserve" text-anchor="middle" x="240" y="-19.5" font-family="Helvetica,sans-Serif" font-size="10.00">::GraphGenerator::BuildNetwork</text>
</a>
</g>
</g>
<!-- Node3&#45;&gt;Node4 -->
<g id="edge3" class="edge">
<title>Node3&#45;&gt;Node4</title>
<path fill="none" stroke="#63b8ff" d="M342.25,-29C334.31,-29 326.19,-29 318.17,-29"/>
<polygon fill="#63b8ff" stroke="#63b8ff" points="342.21,-32.5 352.21,-29 342.21,-25.5 342.21,-32.5"/>
</g>
<!-- Node5 -->
<g id="node5" class="node">
<title>Node5</title>
<g id="a_node5"><a xlink:href="a00454.html#ga2df84a732d1edfb70b7bd26d3282e129" target="_top" xlink:title="Construct a graph by performing a breadth&#45;first search of accessible space.">
<polygon fill="white" stroke="#666666" points="104.12,-58 22.12,-58 22.12,-38 104.12,-38 104.12,-58"/>
<text xml:space="preserve" text-anchor="middle" x="63.12" y="-44.5" font-family="Helvetica,sans-Serif" font-size="10.00">GenerateGraph</text>
</a>
</g>
</g>
<!-- Node4&#45;&gt;Node5 -->
<g id="edge4" class="edge">
<title>Node4&#45;&gt;Node5</title>
<path fill="none" stroke="#63b8ff" d="M150.62,-38.6C134.47,-40.36 118.36,-42.11 104.49,-43.61"/>
<polygon fill="#63b8ff" stroke="#63b8ff" points="150.72,-42.11 160.28,-37.55 149.96,-35.15 150.72,-42.11"/>
</g>
<!-- Node6 -->
<g id="node6" class="node">
<title>Node6</title>
<g id="a_node6"><a xlink:href="a00454.html#gab9f58e3ecc686fa9bc34519b0faed734" target="_top" xlink:title="Construct a graph by performing a breadth&#45;first search of accessible space, seperating obstacles from...">
<polygon fill="white" stroke="#666666" points="126.25,-20 0,-20 0,0 126.25,0 126.25,-20"/>
<text xml:space="preserve" text-anchor="middle" x="63.12" y="-6.5" font-family="Helvetica,sans-Serif" font-size="10.00">GenerateGraphObstacles</text>
</a>
</g>
</g>
<!-- Node4&#45;&gt;Node6 -->
<g id="edge5" class="edge">
<title>Node4&#45;&gt;Node6</title>
<path fill="none" stroke="#63b8ff" d="M150.4,-19.37C142.33,-18.5 134.27,-17.62 126.5,-16.78"/>
<polygon fill="#63b8ff" stroke="#63b8ff" points="149.96,-22.85 160.28,-20.45 150.72,-15.89 149.96,-22.85"/>
</g>
</g>
</svg>
