<?xml version="1.0" encoding="UTF-8" standalone="no"?>
<!DOCTYPE svg PUBLIC "-//W3C//DTD SVG 1.1//EN"
 "http://www.w3.org/Graphics/SVG/1.1/DTD/svg11.dtd">
<!-- Generated by graphviz version 13.1.2 (20250808.2320)
 -->
<!-- Title: HF::Geometry::tinyobj_material Pages: 1 -->
<svg width="121pt" height="177pt"
 viewBox="0.00 0.00 121.00 177.00" xmlns="http://www.w3.org/2000/svg" xmlns:xlink="http://www.w3.org/1999/xlink">
<g id="graph0" class="graph" transform="scale(1 1) rotate(0) translate(4 173)">
<title>HF::Geometry::tinyobj_material</title>
<!-- Node1 -->
<g id="node1" class="node">
<title>Node1</title>
<g id="a_node1"><a xlink:title=" ">
<polygon fill="#999999" stroke="#666666" points="112.75,-32 0,-32 0,0 112.75,0 112.75,-32"/>
<text xml:space="preserve" text-anchor="start" x="8" y="-18.5" font-family="Helvetica,sans-Serif" font-size="10.00">HF::Geometry::tinyobj</text>
<text xml:space="preserve" text-anchor="middle" x="56.38" y="-6.5" font-family="Helvetica,sans-Serif" font-size="10.00">_material</text>
</a>
</g>
</g>
<!-- Node2 -->
<g id="node2" class="node">
<title>Node2</title>
<g id="a_node2"><a xlink:title=" ">
<polygon fill="white" stroke="#666666" points="86.12,-100 26.62,-100 26.62,-80 86.12,-80 86.12,-100"/>
<text xml:space="preserve" text-anchor="middle" x="56.38" y="-86.5" font-family="Helvetica,sans-Serif" font-size="10.00">std::string</text>
</a>
</g>
</g>
<!-- Node2&#45;&gt;Node1 -->
<g id="edge1" class="edge">
<title>Node2&#45;&gt;Node1</title>
<path fill="none" stroke="#9a32cd" stroke-dasharray="5,2" d="M56.38,-68.1C56.38,-56.71 56.38,-42.87 56.38,-32.47"/>
<polygon fill="#9a32cd" stroke="#9a32cd" points="52.88,-68.07 56.38,-78.07 59.88,-68.07 52.88,-68.07"/>
<text xml:space="preserve" text-anchor="middle" x="69.88" y="-52.5" font-family="Helvetica,sans-Serif" font-size="10.00"> name</text>
</g>
<!-- Node3 -->
<g id="node3" class="node">
<title>Node3</title>
<g id="a_node3"><a xlink:title=" ">
<polygon fill="white" stroke="#666666" points="103.38,-169 9.37,-169 9.37,-137 103.38,-137 103.38,-169"/>
<text xml:space="preserve" text-anchor="start" x="17.38" y="-155.5" font-family="Helvetica,sans-Serif" font-size="10.00">std::basic_string&lt;</text>
<text xml:space="preserve" text-anchor="middle" x="56.38" y="-143.5" font-family="Helvetica,sans-Serif" font-size="10.00"> Char &gt;</text>
</a>
</g>
</g>
<!-- Node3&#45;&gt;Node2 -->
<g id="edge2" class="edge">
<title>Node3&#45;&gt;Node2</title>
<path fill="none" stroke="#63b8ff" d="M56.38,-125.36C56.38,-116.41 56.38,-107.01 56.38,-100.31"/>
<polygon fill="#63b8ff" stroke="#63b8ff" points="52.88,-125.09 56.38,-135.09 59.88,-125.09 52.88,-125.09"/>
</g>
</g>
</svg>
