<?xml version="1.0" encoding="UTF-8" standalone="no"?>
<!DOCTYPE svg PUBLIC "-//W3C//DTD SVG 1.1//EN"
 "http://www.w3.org/Graphics/SVG/1.1/DTD/svg11.dtd">
<!-- Generated by graphviz version 13.1.2 (20250808.2320)
 -->
<!-- Title: HF::GraphGenerator::UniqueQueue::popMany Pages: 1 -->
<svg width="276pt" height="90pt"
 viewBox="0.00 0.00 276.00 90.00" xmlns="http://www.w3.org/2000/svg" xmlns:xlink="http://www.w3.org/1999/xlink">
<g id="graph0" class="graph" transform="scale(1 1) rotate(0) translate(4 86)">
<title>HF::GraphGenerator::UniqueQueue::popMany</title>
<!-- Node1 -->
<g id="node1" class="node">
<title>Node1</title>
<g id="a_node1"><a xlink:title="Pop a set amount of nodes from the queue, and return them as a vector.">
<polygon fill="#999999" stroke="#666666" points="127,-57 0,-57 0,-25 127,-25 127,-57"/>
<text xml:space="preserve" text-anchor="start" x="8" y="-43.5" font-family="Helvetica,sans-Serif" font-size="10.00">HF::GraphGenerator</text>
<text xml:space="preserve" text-anchor="middle" x="63.5" y="-31.5" font-family="Helvetica,sans-Serif" font-size="10.00">::UniqueQueue::popMany</text>
</a>
</g>
</g>
<!-- Node2 -->
<g id="node2" class="node">
<title>Node2</title>
<g id="a_node2"><a xlink:href="a01315.html#a4aab642bf2c86a04f6890711ab7f2437" target="_top" xlink:title="Remove the topmost node from the queue and return it.">
<polygon fill="white" stroke="#666666" points="267.88,-82 163.38,-82 163.38,-50 267.88,-50 267.88,-82"/>
<text xml:space="preserve" text-anchor="start" x="171.38" y="-68.5" font-family="Helvetica,sans-Serif" font-size="10.00">HF::GraphGenerator</text>
<text xml:space="preserve" text-anchor="middle" x="215.62" y="-56.5" font-family="Helvetica,sans-Serif" font-size="10.00">::UniqueQueue::pop</text>
</a>
</g>
</g>
<!-- Node1&#45;&gt;Node2 -->
<g id="edge1" class="edge">
<title>Node1&#45;&gt;Node2</title>
<path fill="none" stroke="#63b8ff" d="M127.3,-51.46C135.38,-52.8 143.66,-54.18 151.74,-55.53"/>
<polygon fill="#63b8ff" stroke="#63b8ff" points="151.07,-58.96 161.51,-57.15 152.22,-52.06 151.07,-58.96"/>
</g>
<!-- Node3 -->
<g id="node3" class="node">
<title>Node3</title>
<g id="a_node3"><a xlink:href="a01315.html#a6d38edb96130bda3eb8126cc7501065f" target="_top" xlink:title="Determine how many nodes are currently in the queue.">
<polygon fill="white" stroke="#666666" points="268.25,-32 163,-32 163,0 268.25,0 268.25,-32"/>
<text xml:space="preserve" text-anchor="start" x="171" y="-18.5" font-family="Helvetica,sans-Serif" font-size="10.00">HF::GraphGenerator</text>
<text xml:space="preserve" text-anchor="middle" x="215.62" y="-6.5" font-family="Helvetica,sans-Serif" font-size="10.00">::UniqueQueue::size</text>
</a>
</g>
</g>
<!-- Node1&#45;&gt;Node3 -->
<g id="edge2" class="edge">
<title>Node1&#45;&gt;Node3</title>
<path fill="none" stroke="#63b8ff" d="M127.3,-30.54C135.27,-29.21 143.43,-27.86 151.41,-26.53"/>
<polygon fill="#63b8ff" stroke="#63b8ff" points="151.75,-30.02 161.04,-24.92 150.6,-23.11 151.75,-30.02"/>
</g>
</g>
</svg>
