<?xml version="1.0" encoding="UTF-8" standalone="no"?>
<!DOCTYPE svg PUBLIC "-//W3C//DTD SVG 1.1//EN"
 "http://www.w3.org/Graphics/SVG/1.1/DTD/svg11.dtd">
<!-- Generated by graphviz version 13.1.2 (20250808.2320)
 -->
<!-- Title: HF::Geometry::MeshInfo::GetVertexPointer Pages: 1 -->
<svg width="310pt" height="78pt"
 viewBox="0.00 0.00 310.00 78.00" xmlns="http://www.w3.org/2000/svg" xmlns:xlink="http://www.w3.org/1999/xlink">
<g id="graph0" class="graph" transform="scale(1 1) rotate(0) translate(4 74)">
<title>HF::Geometry::MeshInfo::GetVertexPointer</title>
<!-- Node1 -->
<g id="node1" class="node">
<title>Node1</title>
<g id="a_node1"><a xlink:title="Get a pointer to the vertex array of this mesh.">
<polygon fill="#999999" stroke="#666666" points="302,-48 177.25,-48 177.25,-16 302,-16 302,-48"/>
<text xml:space="preserve" text-anchor="start" x="185.25" y="-34.5" font-family="Helvetica,sans-Serif" font-size="10.00">HF::Geometry::MeshInfo</text>
<text xml:space="preserve" text-anchor="middle" x="239.62" y="-22.5" font-family="Helvetica,sans-Serif" font-size="10.00">::GetVertexPointer</text>
</a>
</g>
</g>
<!-- Node2 -->
<g id="node2" class="node">
<title>Node2</title>
<g id="a_node2"><a xlink:href="a01519.html#a0229249855045b4fbf7097c31827f6e6" target="_top" xlink:title="Construct a new raytracer with an instance of meshinfo.">
<polygon fill="white" stroke="#666666" points="141.25,-70 0,-70 0,-38 141.25,-38 141.25,-70"/>
<text xml:space="preserve" text-anchor="start" x="8" y="-56.5" font-family="Helvetica,sans-Serif" font-size="10.00">HF::RayTracer::NanoRTRay</text>
<text xml:space="preserve" text-anchor="middle" x="70.62" y="-44.5" font-family="Helvetica,sans-Serif" font-size="10.00">Tracer::NanoRTRayTracer</text>
</a>
</g>
</g>
<!-- Node1&#45;&gt;Node2 -->
<g id="edge1" class="edge">
<title>Node1&#45;&gt;Node2</title>
<path fill="none" stroke="#63b8ff" d="M165.69,-41.61C157.67,-42.66 149.51,-43.74 141.53,-44.79"/>
<polygon fill="#63b8ff" stroke="#63b8ff" points="165.96,-45.1 175.41,-40.33 165.04,-38.16 165.96,-45.1"/>
</g>
<!-- Node3 -->
<g id="node3" class="node">
<title>Node3</title>
<g id="a_node3"><a xlink:href="a00455.html#ga89fc0803b894e7fa218ae271c46fb434" target="_top" xlink:title="Get a pointer to and the size of a mesh&#39;s triangle and vertex arrays.">
<polygon fill="white" stroke="#666666" points="114.62,-20 26.62,-20 26.62,0 114.62,0 114.62,-20"/>
<text xml:space="preserve" text-anchor="middle" x="70.62" y="-6.5" font-family="Helvetica,sans-Serif" font-size="10.00">GetVertsAndTris</text>
</a>
</g>
</g>
<!-- Node1&#45;&gt;Node3 -->
<g id="edge2" class="edge">
<title>Node1&#45;&gt;Node3</title>
<path fill="none" stroke="#63b8ff" d="M165.69,-22.39C148.44,-20.12 130.57,-17.76 115.1,-15.73"/>
<polygon fill="#63b8ff" stroke="#63b8ff" points="165.04,-25.84 175.41,-23.67 165.96,-18.9 165.04,-25.84"/>
</g>
</g>
</svg>
