<?xml version="1.0" encoding="UTF-8" standalone="no"?>
<!DOCTYPE svg PUBLIC "-//W3C//DTD SVG 1.1//EN"
 "http://www.w3.org/Graphics/SVG/1.1/DTD/svg11.dtd">
<!-- Generated by graphviz version 13.1.2 (20250808.2320)
 -->
<!-- Title: HF::GraphGenerator::GraphGenerator::BuildNetwork Pages: 1 -->
<svg width="1300pt" height="719pt"
 viewBox="0.00 0.00 1300.00 719.00" xmlns="http://www.w3.org/2000/svg" xmlns:xlink="http://www.w3.org/1999/xlink">
<g id="graph0" class="graph" transform="scale(1 1) rotate(0) translate(4 715)">
<title>HF::GraphGenerator::GraphGenerator::BuildNetwork</title>
<!-- Node1 -->
<g id="node1" class="node">
<title>Node1</title>
<g id="a_node1"><a xlink:title="Generate a graph of accessible space.">
<polygon fill="#999999" stroke="#666666" points="155.5,-689 0,-689 0,-657 155.5,-657 155.5,-689"/>
<text xml:space="preserve" text-anchor="start" x="8" y="-675.5" font-family="Helvetica,sans-Serif" font-size="10.00">HF::GraphGenerator</text>
<text xml:space="preserve" text-anchor="middle" x="77.75" y="-663.5" font-family="Helvetica,sans-Serif" font-size="10.00">::GraphGenerator::BuildNetwork</text>
</a>
</g>
</g>
<!-- Node2 -->
<g id="node2" class="node">
<title>Node2</title>
<g id="a_node2"><a xlink:href="a00463.html#a73b53db067a504d36e9481dfe3326b60" target="_top" xlink:title="Cast an input value to real_t using static cast.">
<polygon fill="white" stroke="#666666" points="810.88,-711 706.38,-711 706.38,-679 810.88,-679 810.88,-711"/>
<text xml:space="preserve" text-anchor="start" x="714.38" y="-697.5" font-family="Helvetica,sans-Serif" font-size="10.00">HF::GraphGenerator</text>
<text xml:space="preserve" text-anchor="middle" x="758.62" y="-685.5" font-family="Helvetica,sans-Serif" font-size="10.00">::CastToReal</text>
</a>
</g>
</g>
<!-- Node1&#45;&gt;Node2 -->
<g id="edge1" class="edge">
<title>Node1&#45;&gt;Node2</title>
<path fill="none" stroke="#63b8ff" d="M155.99,-683.54C167.86,-684.88 180,-686.1 191.5,-687 402.91,-703.5 456.47,-701.57 668.5,-698 677,-697.86 685.96,-697.64 694.79,-697.38"/>
<polygon fill="#63b8ff" stroke="#63b8ff" points="694.86,-700.88 704.75,-697.07 694.65,-693.88 694.86,-700.88"/>
</g>
<!-- Node3 -->
<g id="node3" class="node">
<title>Node3</title>
<g id="a_node3"><a xlink:href="a00463.html#a58892abe1152c28d26d3ca749c99ea4d" target="_top" xlink:title="Cast an array of 3 values to the graph_generator&#39;s real_3 type.">
<polygon fill="white" stroke="#666666" points="652.75,-689 548.25,-689 548.25,-657 652.75,-657 652.75,-689"/>
<text xml:space="preserve" text-anchor="start" x="556.25" y="-675.5" font-family="Helvetica,sans-Serif" font-size="10.00">HF::GraphGenerator</text>
<text xml:space="preserve" text-anchor="middle" x="600.5" y="-663.5" font-family="Helvetica,sans-Serif" font-size="10.00">::CastToReal3</text>
</a>
</g>
</g>
<!-- Node1&#45;&gt;Node3 -->
<g id="edge2" class="edge">
<title>Node1&#45;&gt;Node3</title>
<path fill="none" stroke="#63b8ff" d="M155.87,-673C259.28,-673 440.93,-673 536.55,-673"/>
<polygon fill="#63b8ff" stroke="#63b8ff" points="536.55,-676.5 546.55,-673 536.55,-669.5 536.55,-676.5"/>
</g>
<!-- Node4 -->
<g id="node4" class="node">
<title>Node4</title>
<g id="a_node4"><a xlink:href="a01311.html#a5788e421d921ec0ff27defc139c45106" target="_top" xlink:title="Generate a graph of accessible space.">
<polygon fill="white" stroke="#666666" points="311.75,-404 191.5,-404 191.5,-360 311.75,-360 311.75,-404"/>
<text xml:space="preserve" text-anchor="start" x="199.5" y="-390.5" font-family="Helvetica,sans-Serif" font-size="10.00">HF::GraphGenerator</text>
<text xml:space="preserve" text-anchor="start" x="199.5" y="-378.5" font-family="Helvetica,sans-Serif" font-size="10.00">::GraphGenerator::IMPL</text>
<text xml:space="preserve" text-anchor="middle" x="251.62" y="-366.5" font-family="Helvetica,sans-Serif" font-size="10.00">_BuildNetwork</text>
</a>
</g>
</g>
<!-- Node1&#45;&gt;Node4 -->
<g id="edge4" class="edge">
<title>Node1&#45;&gt;Node4</title>
<path fill="none" stroke="#63b8ff" d="M88.48,-656.52C116.06,-609.82 195.1,-476.01 231.66,-414.12"/>
<polygon fill="#63b8ff" stroke="#63b8ff" points="234.51,-416.17 236.58,-405.78 228.48,-412.61 234.51,-416.17"/>
</g>
<!-- Node3&#45;&gt;Node2 -->
<g id="edge3" class="edge">
<title>Node3&#45;&gt;Node2</title>
<path fill="none" stroke="#63b8ff" d="M653.05,-680.26C666.51,-682.16 681.16,-684.22 695.12,-686.19"/>
<polygon fill="#63b8ff" stroke="#63b8ff" points="694.24,-689.6 704.63,-687.53 695.21,-682.67 694.24,-689.6"/>
</g>
<!-- Node5 -->
<g id="node5" class="node">
<title>Node5</title>
<g id="a_node5"><a xlink:href="a01311.html#ac7052d4b625fb96f29c5bfc091a86f7e" target="_top" xlink:title="Perform breadth first search to populate the graph with with nodes and edges.">
<polygon fill="white" stroke="#666666" points="496.5,-373 347.75,-373 347.75,-341 496.5,-341 496.5,-373"/>
<text xml:space="preserve" text-anchor="start" x="355.75" y="-359.5" font-family="Helvetica,sans-Serif" font-size="10.00">HF::GraphGenerator</text>
<text xml:space="preserve" text-anchor="middle" x="422.12" y="-347.5" font-family="Helvetica,sans-Serif" font-size="10.00">::GraphGenerator::CrawlGeom</text>
</a>
</g>
</g>
<!-- Node4&#45;&gt;Node5 -->
<g id="edge5" class="edge">
<title>Node4&#45;&gt;Node5</title>
<path fill="none" stroke="#63b8ff" d="M312.03,-373.19C319.91,-372.02 328.11,-370.8 336.32,-369.58"/>
<polygon fill="#63b8ff" stroke="#63b8ff" points="336.61,-373.08 345.99,-368.15 335.59,-366.15 336.61,-373.08"/>
</g>
<!-- Node28 -->
<g id="node28" class="node">
<title>Node28</title>
<g id="a_node28"><a xlink:href="a01315.html#a35a8d70ffef5833ae214feaa89aaf220" target="_top" xlink:title="Call push with any type of object.">
<polygon fill="white" stroke="#666666" points="664,-225 537,-225 537,-193 664,-193 664,-225"/>
<text xml:space="preserve" text-anchor="start" x="545" y="-211.5" font-family="Helvetica,sans-Serif" font-size="10.00">HF::GraphGenerator</text>
<text xml:space="preserve" text-anchor="middle" x="600.5" y="-199.5" font-family="Helvetica,sans-Serif" font-size="10.00">::UniqueQueue::PushAny</text>
</a>
</g>
</g>
<!-- Node4&#45;&gt;Node28 -->
<g id="edge46" class="edge">
<title>Node4&#45;&gt;Node28</title>
<path fill="none" stroke="#63b8ff" d="M291.23,-359.54C344.49,-329.02 443.99,-273.72 532.5,-234 535.78,-232.53 539.19,-231.07 542.63,-229.63"/>
<polygon fill="#63b8ff" stroke="#63b8ff" points="543.68,-232.99 551.65,-226.01 541.06,-226.49 543.68,-232.99"/>
</g>
<!-- Node30 -->
<g id="node30" class="node">
<title>Node30</title>
<g id="a_node30"><a xlink:href="a01311.html#a843cc6b5b69b5d013930b3685789fa15" target="_top" xlink:title="Perform breadth first search to populate the graph with nodes and edges using multiple cores.">
<polygon fill="white" stroke="#666666" points="496.5,-494 347.75,-494 347.75,-450 496.5,-450 496.5,-494"/>
<text xml:space="preserve" text-anchor="start" x="355.75" y="-480.5" font-family="Helvetica,sans-Serif" font-size="10.00">HF::GraphGenerator</text>
<text xml:space="preserve" text-anchor="start" x="355.75" y="-468.5" font-family="Helvetica,sans-Serif" font-size="10.00">::GraphGenerator::CrawlGeom</text>
<text xml:space="preserve" text-anchor="middle" x="422.12" y="-456.5" font-family="Helvetica,sans-Serif" font-size="10.00">Parallel</text>
</a>
</g>
</g>
<!-- Node4&#45;&gt;Node30 -->
<g id="edge34" class="edge">
<title>Node4&#45;&gt;Node30</title>
<path fill="none" stroke="#63b8ff" d="M294.71,-404.48C317.31,-416.55 345.37,-431.54 369.31,-444.32"/>
<polygon fill="#63b8ff" stroke="#63b8ff" points="367.48,-447.31 377.95,-448.94 370.78,-441.14 367.48,-447.31"/>
</g>
<!-- Node32 -->
<g id="node32" class="node">
<title>Node32</title>
<g id="a_node32"><a xlink:href="a00463.html#af8cc1a7a794699308cf5c46d3ae59491" target="_top" xlink:title="Sets the core count of OpenMP.">
<polygon fill="white" stroke="#666666" points="474.38,-423 369.88,-423 369.88,-391 474.38,-391 474.38,-423"/>
<text xml:space="preserve" text-anchor="start" x="377.88" y="-409.5" font-family="Helvetica,sans-Serif" font-size="10.00">HF::GraphGenerator</text>
<text xml:space="preserve" text-anchor="middle" x="422.12" y="-397.5" font-family="Helvetica,sans-Serif" font-size="10.00">::SetupCoreCount</text>
</a>
</g>
</g>
<!-- Node4&#45;&gt;Node32 -->
<g id="edge47" class="edge">
<title>Node4&#45;&gt;Node32</title>
<path fill="none" stroke="#63b8ff" d="M312.03,-390.81C326.98,-393.03 343.08,-395.42 358.19,-397.66"/>
<polygon fill="#63b8ff" stroke="#63b8ff" points="357.62,-401.12 368.03,-399.12 358.65,-394.19 357.62,-401.12"/>
</g>
<!-- Node33 -->
<g id="node33" class="node">
<title>Node33</title>
<g id="a_node33"><a xlink:href="a00463.html#a9ddffecb75b34434d7157b49d3c67b60" target="_top" xlink:title="Determine if the start point of the graph is over valid ground.">
<polygon fill="white" stroke="#666666" points="474.38,-152 369.88,-152 369.88,-120 474.38,-120 474.38,-152"/>
<text xml:space="preserve" text-anchor="start" x="377.88" y="-138.5" font-family="Helvetica,sans-Serif" font-size="10.00">HF::GraphGenerator</text>
<text xml:space="preserve" text-anchor="middle" x="422.12" y="-126.5" font-family="Helvetica,sans-Serif" font-size="10.00">::ValidateStartPoint</text>
</a>
</g>
</g>
<!-- Node4&#45;&gt;Node33 -->
<g id="edge48" class="edge">
<title>Node4&#45;&gt;Node33</title>
<path fill="none" stroke="#63b8ff" d="M267.88,-359.74C299.11,-314.13 370.21,-210.33 403.42,-161.85"/>
<polygon fill="#63b8ff" stroke="#63b8ff" points="406.29,-163.86 409.05,-153.63 400.51,-159.9 406.29,-163.86"/>
</g>
<!-- Node5&#45;&gt;Node3 -->
<g id="edge7" class="edge">
<title>Node5&#45;&gt;Node3</title>
<path fill="none" stroke="#63b8ff" d="M486.98,-373.36C490.5,-375.84 493.73,-378.7 496.5,-382 562.55,-460.5 484.55,-519.31 532.5,-610 540.55,-625.22 553.7,-638.8 566.23,-649.41"/>
<polygon fill="#63b8ff" stroke="#63b8ff" points="564,-652.11 573.99,-655.65 568.39,-646.66 564,-652.11"/>
</g>
<!-- Node6 -->
<g id="node6" class="node">
<title>Node6</title>
<g id="a_node6"><a xlink:href="a01551.html#a37be5c12e488072dea7fa1c8c64346f7" target="_top" xlink:title="Add a new edge to the graph from parent to child.">
<polygon fill="white" stroke="#666666" points="655.75,-413 545.25,-413 545.25,-381 655.75,-381 655.75,-413"/>
<text xml:space="preserve" text-anchor="start" x="553.25" y="-399.5" font-family="Helvetica,sans-Serif" font-size="10.00">HF::SpatialStructures</text>
<text xml:space="preserve" text-anchor="middle" x="600.5" y="-387.5" font-family="Helvetica,sans-Serif" font-size="10.00">::Graph::addEdge</text>
</a>
</g>
</g>
<!-- Node5&#45;&gt;Node6 -->
<g id="edge6" class="edge">
<title>Node5&#45;&gt;Node6</title>
<path fill="none" stroke="#63b8ff" d="M495.63,-373.44C508.21,-376.3 521.24,-379.25 533.63,-382.06"/>
<polygon fill="#63b8ff" stroke="#63b8ff" points="532.81,-385.46 543.33,-384.26 534.35,-378.64 532.81,-385.46"/>
</g>
<!-- Node7 -->
<g id="node7" class="node">
<title>Node7</title>
<g id="a_node7"><a xlink:href="a00463.html#aefd344ebb2faadc64a56a16dc8582026" target="_top" xlink:title="Create a set of directions based on max_step_connections.">
<polygon fill="white" stroke="#666666" points="652.75,-363 548.25,-363 548.25,-331 652.75,-331 652.75,-363"/>
<text xml:space="preserve" text-anchor="start" x="556.25" y="-349.5" font-family="Helvetica,sans-Serif" font-size="10.00">HF::GraphGenerator</text>
<text xml:space="preserve" text-anchor="middle" x="600.5" y="-337.5" font-family="Helvetica,sans-Serif" font-size="10.00">::CreateDirecs</text>
</a>
</g>
</g>
<!-- Node5&#45;&gt;Node7 -->
<g id="edge8" class="edge">
<title>Node5&#45;&gt;Node7</title>
<path fill="none" stroke="#63b8ff" d="M496.9,-352.82C510.19,-352.06 523.93,-351.28 536.86,-350.55"/>
<polygon fill="#63b8ff" stroke="#63b8ff" points="536.69,-354.07 546.48,-350.01 536.3,-347.08 536.69,-354.07"/>
</g>
<!-- Node9 -->
<g id="node9" class="node">
<title>Node9</title>
<g id="a_node9"><a xlink:href="a01315.html#ab659349de3391b0e2327f3736135752f" target="_top" xlink:title="Tell if the queue is empty.">
<polygon fill="white" stroke="#666666" points="657.62,-601 543.38,-601 543.38,-569 657.62,-569 657.62,-601"/>
<text xml:space="preserve" text-anchor="start" x="551.38" y="-587.5" font-family="Helvetica,sans-Serif" font-size="10.00">HF::GraphGenerator</text>
<text xml:space="preserve" text-anchor="middle" x="600.5" y="-575.5" font-family="Helvetica,sans-Serif" font-size="10.00">::UniqueQueue::empty</text>
</a>
</g>
</g>
<!-- Node5&#45;&gt;Node9 -->
<g id="edge10" class="edge">
<title>Node5&#45;&gt;Node9</title>
<path fill="none" stroke="#63b8ff" d="M486.82,-373.5C490.38,-375.95 493.66,-378.77 496.5,-382 549.78,-442.63 480.1,-498.61 532.5,-560 533.07,-560.67 533.67,-561.33 534.28,-561.96"/>
<polygon fill="#63b8ff" stroke="#63b8ff" points="532.05,-564.66 541.99,-568.33 536.51,-559.26 532.05,-564.66"/>
</g>
<!-- Node11 -->
<g id="node11" class="node">
<title>Node11</title>
<g id="a_node11"><a xlink:href="a00463.html#a41e03f9bab54e4e0d1314c6a4bdf2ec1" target="_top" xlink:title="Populare out_children with a potential child position for every direction in directions.">
<polygon fill="white" stroke="#666666" points="668.5,-463 532.5,-463 532.5,-431 668.5,-431 668.5,-463"/>
<text xml:space="preserve" text-anchor="start" x="540.5" y="-449.5" font-family="Helvetica,sans-Serif" font-size="10.00">HF::GraphGenerator</text>
<text xml:space="preserve" text-anchor="middle" x="600.5" y="-437.5" font-family="Helvetica,sans-Serif" font-size="10.00">::GeneratePotentialChildren</text>
</a>
</g>
</g>
<!-- Node5&#45;&gt;Node11 -->
<g id="edge12" class="edge">
<title>Node5&#45;&gt;Node11</title>
<path fill="none" stroke="#63b8ff" d="M480.57,-373.33C486.15,-375.86 491.56,-378.74 496.5,-382 516.46,-395.17 512.73,-408.54 532.5,-422 534.27,-423.2 536.11,-424.36 537.99,-425.47"/>
<polygon fill="#63b8ff" stroke="#63b8ff" points="535.93,-428.34 546.41,-429.91 539.2,-422.15 535.93,-428.34"/>
</g>
<!-- Node12 -->
<g id="node12" class="node">
<title>Node12</title>
<g id="a_node12"><a xlink:href="a00463.html#ab7ffcc7d6657ce276c06deed24c546a4" target="_top" xlink:title="Calculate all possible edges between parent and possible_children.">
<polygon fill="white" stroke="#666666" points="652.75,-275 548.25,-275 548.25,-243 652.75,-243 652.75,-275"/>
<text xml:space="preserve" text-anchor="start" x="556.25" y="-261.5" font-family="Helvetica,sans-Serif" font-size="10.00">HF::GraphGenerator</text>
<text xml:space="preserve" text-anchor="middle" x="600.5" y="-249.5" font-family="Helvetica,sans-Serif" font-size="10.00">::GetChildren</text>
</a>
</g>
</g>
<!-- Node5&#45;&gt;Node12 -->
<g id="edge13" class="edge">
<title>Node5&#45;&gt;Node12</title>
<path fill="none" stroke="#63b8ff" d="M447.32,-340.63C469.12,-326.21 502.29,-305.06 532.5,-289 538.2,-285.97 544.26,-282.97 550.32,-280.1"/>
<polygon fill="#63b8ff" stroke="#63b8ff" points="551.47,-283.42 559.08,-276.05 548.53,-277.07 551.47,-283.42"/>
</g>
<!-- Node27 -->
<g id="node27" class="node">
<title>Node27</title>
<g id="a_node27"><a xlink:href="a01315.html#a4aab642bf2c86a04f6890711ab7f2437" target="_top" xlink:title="Remove the topmost node from the queue and return it.">
<polygon fill="white" stroke="#666666" points="810.88,-509 706.38,-509 706.38,-477 810.88,-477 810.88,-509"/>
<text xml:space="preserve" text-anchor="start" x="714.38" y="-495.5" font-family="Helvetica,sans-Serif" font-size="10.00">HF::GraphGenerator</text>
<text xml:space="preserve" text-anchor="middle" x="758.62" y="-483.5" font-family="Helvetica,sans-Serif" font-size="10.00">::UniqueQueue::pop</text>
</a>
</g>
</g>
<!-- Node5&#45;&gt;Node27 -->
<g id="edge31" class="edge">
<title>Node5&#45;&gt;Node27</title>
<path fill="none" stroke="#63b8ff" d="M452.69,-340.59C502.2,-315.57 602.88,-275.42 668.5,-322 708.04,-350.07 681.26,-382.44 704.5,-425 712.93,-440.45 724.82,-456.04 735.2,-468.39"/>
<polygon fill="#63b8ff" stroke="#63b8ff" points="732.26,-470.33 741.44,-475.61 737.56,-465.76 732.26,-470.33"/>
</g>
<!-- Node5&#45;&gt;Node28 -->
<g id="edge32" class="edge">
<title>Node5&#45;&gt;Node28</title>
<path fill="none" stroke="#63b8ff" d="M440.39,-340.62C455.69,-325.81 478.35,-303.15 496.5,-282 513.86,-261.76 511.15,-249.97 532.5,-234 533.84,-233 535.22,-232.04 536.63,-231.11"/>
<polygon fill="#63b8ff" stroke="#63b8ff" points="538.18,-234.26 545.1,-226.23 534.69,-228.19 538.18,-234.26"/>
</g>
<!-- Node8 -->
<g id="node8" class="node">
<title>Node8</title>
<g id="a_node8"><a xlink:href="a00463.html#afe5670b4cb780fd3ccf2a0d72a2e3c2e" target="_top" xlink:title="Calculate P(n,r) as an array with each unique permutaton of 2 values being a pair.">
<polygon fill="white" stroke="#666666" points="810.88,-416 706.38,-416 706.38,-384 810.88,-384 810.88,-416"/>
<text xml:space="preserve" text-anchor="start" x="714.38" y="-402.5" font-family="Helvetica,sans-Serif" font-size="10.00">HF::GraphGenerator</text>
<text xml:space="preserve" text-anchor="middle" x="758.62" y="-390.5" font-family="Helvetica,sans-Serif" font-size="10.00">::permutations</text>
</a>
</g>
</g>
<!-- Node7&#45;&gt;Node8 -->
<g id="edge9" class="edge">
<title>Node7&#45;&gt;Node8</title>
<path fill="none" stroke="#63b8ff" d="M650.04,-363.48C665.32,-368.66 682.36,-374.45 698.29,-379.86"/>
<polygon fill="#63b8ff" stroke="#63b8ff" points="697.08,-383.14 707.68,-383.04 699.33,-376.52 697.08,-383.14"/>
</g>
<!-- Node10 -->
<g id="node10" class="node">
<title>Node10</title>
<g id="a_node10"><a xlink:href="a01315.html#a6d38edb96130bda3eb8126cc7501065f" target="_top" xlink:title="Determine how many nodes are currently in the queue.">
<polygon fill="white" stroke="#666666" points="811.25,-601 706,-601 706,-569 811.25,-569 811.25,-601"/>
<text xml:space="preserve" text-anchor="start" x="714" y="-587.5" font-family="Helvetica,sans-Serif" font-size="10.00">HF::GraphGenerator</text>
<text xml:space="preserve" text-anchor="middle" x="758.62" y="-575.5" font-family="Helvetica,sans-Serif" font-size="10.00">::UniqueQueue::size</text>
</a>
</g>
</g>
<!-- Node9&#45;&gt;Node10 -->
<g id="edge11" class="edge">
<title>Node9&#45;&gt;Node10</title>
<path fill="none" stroke="#63b8ff" d="M657.86,-585C669.65,-585 682.14,-585 694.16,-585"/>
<polygon fill="#63b8ff" stroke="#63b8ff" points="693.99,-588.5 703.99,-585 693.99,-581.5 693.99,-588.5"/>
</g>
<!-- Node13 -->
<g id="node13" class="node">
<title>Node13</title>
<g id="a_node13"><a xlink:href="a00463.html#a4b7cc0ad0002975404acef5064f4f546" target="_top" xlink:title="Determine whether children are over valid ground, and and meet upstep/downstep requirements.">
<polygon fill="white" stroke="#666666" points="810.88,-178 706.38,-178 706.38,-146 810.88,-146 810.88,-178"/>
<text xml:space="preserve" text-anchor="start" x="714.38" y="-164.5" font-family="Helvetica,sans-Serif" font-size="10.00">HF::GraphGenerator</text>
<text xml:space="preserve" text-anchor="middle" x="758.62" y="-152.5" font-family="Helvetica,sans-Serif" font-size="10.00">::CheckChildren</text>
</a>
</g>
</g>
<!-- Node12&#45;&gt;Node13 -->
<g id="edge14" class="edge">
<title>Node12&#45;&gt;Node13</title>
<path fill="none" stroke="#63b8ff" d="M653.18,-243.16C658.58,-240.51 663.81,-237.47 668.5,-234 689.65,-218.35 684.02,-203.51 704.5,-187 705.59,-186.12 706.72,-185.26 707.88,-184.42"/>
<polygon fill="#63b8ff" stroke="#63b8ff" points="709.4,-187.6 715.95,-179.27 705.63,-181.71 709.4,-187.6"/>
</g>
<!-- Node20 -->
<g id="node20" class="node">
<title>Node20</title>
<g id="a_node20"><a xlink:href="a00463.html#a260a25e02193ce904849ee090daefa2e" target="_top" xlink:title="Determine what kind of step (if any) is between parent and child, given that a connection was verifie...">
<polygon fill="white" stroke="#666666" points="810.88,-316 706.38,-316 706.38,-284 810.88,-284 810.88,-316"/>
<text xml:space="preserve" text-anchor="start" x="714.38" y="-302.5" font-family="Helvetica,sans-Serif" font-size="10.00">HF::GraphGenerator</text>
<text xml:space="preserve" text-anchor="middle" x="758.62" y="-290.5" font-family="Helvetica,sans-Serif" font-size="10.00">::CheckConnection</text>
</a>
</g>
</g>
<!-- Node12&#45;&gt;Node20 -->
<g id="edge22" class="edge">
<title>Node12&#45;&gt;Node20</title>
<path fill="none" stroke="#63b8ff" d="M653.05,-272.54C666.51,-276.07 681.16,-279.92 695.12,-283.58"/>
<polygon fill="#63b8ff" stroke="#63b8ff" points="694.1,-286.94 704.66,-286.09 695.88,-280.17 694.1,-286.94"/>
</g>
<!-- Node24 -->
<g id="node24" class="node">
<title>Node24</title>
<g id="a_node24"><a xlink:href="a00463.html#a7f96186b8f24f878404d1feccf2f64db" target="_top" xlink:title="Calculate the distance between two nodes.">
<polygon fill="white" stroke="#666666" points="1104.62,-269 1000.12,-269 1000.12,-237 1104.62,-237 1104.62,-269"/>
<text xml:space="preserve" text-anchor="start" x="1008.12" y="-255.5" font-family="Helvetica,sans-Serif" font-size="10.00">HF::GraphGenerator</text>
<text xml:space="preserve" text-anchor="middle" x="1052.38" y="-243.5" font-family="Helvetica,sans-Serif" font-size="10.00">::DistanceTo</text>
</a>
</g>
</g>
<!-- Node12&#45;&gt;Node24 -->
<g id="edge29" class="edge">
<title>Node12&#45;&gt;Node24</title>
<path fill="none" stroke="#63b8ff" d="M653.11,-258.31C736.02,-257.21 898.66,-255.04 988.32,-253.84"/>
<polygon fill="#63b8ff" stroke="#63b8ff" points="988.21,-257.34 998.17,-253.71 988.12,-250.34 988.21,-257.34"/>
</g>
<!-- Node26 -->
<g id="node26" class="node">
<title>Node26</title>
<g id="a_node26"><a xlink:href="a00463.html#abf1a3ae7dc89b3cf430e059a87fcd477" target="_top" xlink:title="Convert a point_type to a node.">
<polygon fill="white" stroke="#666666" points="810.88,-366 706.38,-366 706.38,-334 810.88,-334 810.88,-366"/>
<text xml:space="preserve" text-anchor="start" x="714.38" y="-352.5" font-family="Helvetica,sans-Serif" font-size="10.00">HF::GraphGenerator</text>
<text xml:space="preserve" text-anchor="middle" x="758.62" y="-340.5" font-family="Helvetica,sans-Serif" font-size="10.00">::ToNode</text>
</a>
</g>
</g>
<!-- Node12&#45;&gt;Node26 -->
<g id="edge30" class="edge">
<title>Node12&#45;&gt;Node26</title>
<path fill="none" stroke="#63b8ff" d="M644.58,-275.48C652.81,-279.4 661.15,-283.94 668.5,-289 687.13,-301.84 685.99,-311.99 704.5,-325 706.02,-326.07 707.59,-327.11 709.2,-328.13"/>
<polygon fill="#63b8ff" stroke="#63b8ff" points="707.01,-330.9 717.42,-332.87 710.51,-324.84 707.01,-330.9"/>
</g>
<!-- Node14 -->
<g id="node14" class="node">
<title>Node14</title>
<g id="a_node14"><a xlink:href="a00463.html#a74be560268a713fc9e9b8b4a453afa2f" target="_top" xlink:title="Cast a ray and get the point of intersection if it connects.">
<polygon fill="white" stroke="#666666" points="953.25,-143 848.75,-143 848.75,-111 953.25,-111 953.25,-143"/>
<text xml:space="preserve" text-anchor="start" x="856.75" y="-129.5" font-family="Helvetica,sans-Serif" font-size="10.00">HF::GraphGenerator</text>
<text xml:space="preserve" text-anchor="middle" x="901" y="-117.5" font-family="Helvetica,sans-Serif" font-size="10.00">::CheckRay</text>
</a>
</g>
</g>
<!-- Node13&#45;&gt;Node14 -->
<g id="edge15" class="edge">
<title>Node13&#45;&gt;Node14</title>
<path fill="none" stroke="#63b8ff" d="M811.1,-149.17C819.68,-147.03 828.67,-144.79 837.49,-142.59"/>
<polygon fill="#63b8ff" stroke="#63b8ff" points="838.21,-146.01 847.06,-140.2 836.51,-139.22 838.21,-146.01"/>
</g>
<!-- Node15 -->
<g id="node15" class="node">
<title>Node15</title>
<g id="a_node15"><a xlink:href="a00463.html#ab731d597ee2a843f7b7cb1ccbae67782" target="_top" xlink:title="Determine if a hit is against the geometry type specified.">
<polygon fill="white" stroke="#666666" points="1104.62,-200 1000.12,-200 1000.12,-168 1104.62,-168 1104.62,-200"/>
<text xml:space="preserve" text-anchor="start" x="1008.12" y="-186.5" font-family="Helvetica,sans-Serif" font-size="10.00">HF::GraphGenerator</text>
<text xml:space="preserve" text-anchor="middle" x="1052.38" y="-174.5" font-family="Helvetica,sans-Serif" font-size="10.00">::CheckGeometryID</text>
</a>
</g>
</g>
<!-- Node14&#45;&gt;Node15 -->
<g id="edge16" class="edge">
<title>Node14&#45;&gt;Node15</title>
<path fill="none" stroke="#63b8ff" d="M945.21,-143.49C961.62,-149.75 980.51,-156.96 997.77,-163.54"/>
<polygon fill="#63b8ff" stroke="#63b8ff" points="996.26,-166.72 1006.85,-167.01 998.76,-160.18 996.26,-166.72"/>
</g>
<!-- Node16 -->
<g id="node16" class="node">
<title>Node16</title>
<g id="a_node16"><a xlink:href="a01415.html#a3d86c2c8d8e0ec6bf63a653ec89807a8" target="_top" xlink:title="Determine whether or not this hitstruct contains a hit.">
<polygon fill="white" stroke="#666666" points="1115.5,-150 989.25,-150 989.25,-118 1115.5,-118 1115.5,-150"/>
<text xml:space="preserve" text-anchor="start" x="997.25" y="-136.5" font-family="Helvetica,sans-Serif" font-size="10.00">HF::RayTracer::HitStruct</text>
<text xml:space="preserve" text-anchor="middle" x="1052.38" y="-124.5" font-family="Helvetica,sans-Serif" font-size="10.00">::DidHit</text>
</a>
</g>
</g>
<!-- Node14&#45;&gt;Node16 -->
<g id="edge17" class="edge">
<title>Node14&#45;&gt;Node16</title>
<path fill="none" stroke="#63b8ff" d="M953.41,-129.41C961.15,-129.77 969.26,-130.15 977.37,-130.53"/>
<polygon fill="#63b8ff" stroke="#63b8ff" points="977.11,-134.02 987.27,-131 977.44,-127.03 977.11,-134.02"/>
</g>
<!-- Node18 -->
<g id="node18" class="node">
<title>Node18</title>
<g id="a_node18"><a xlink:href="a01419.html#a7ee672618f7fe9ce6938978d93d18514" target="_top" xlink:title=" ">
<polygon fill="white" stroke="#666666" points="1112.88,-82 991.88,-82 991.88,-50 1112.88,-50 1112.88,-82"/>
<text xml:space="preserve" text-anchor="start" x="999.88" y="-68.5" font-family="Helvetica,sans-Serif" font-size="10.00">HF::RayTracer::MultiRT</text>
<text xml:space="preserve" text-anchor="middle" x="1052.38" y="-56.5" font-family="Helvetica,sans-Serif" font-size="10.00">::Intersect</text>
</a>
</g>
</g>
<!-- Node14&#45;&gt;Node18 -->
<g id="edge19" class="edge">
<title>Node14&#45;&gt;Node18</title>
<path fill="none" stroke="#63b8ff" d="M942.03,-110.65C959.96,-103.33 981.31,-94.61 1000.36,-86.83"/>
<polygon fill="#63b8ff" stroke="#63b8ff" points="1001.64,-90.09 1009.57,-83.07 998.99,-83.61 1001.64,-90.09"/>
</g>
<!-- Node19 -->
<g id="node19" class="node">
<title>Node19</title>
<g id="a_node19"><a xlink:href="a00463.html#a5ad3e8fac4a21eee744f3633f7a3692f" target="_top" xlink:title="Move a node in direction by dist units.">
<polygon fill="white" stroke="#666666" points="1104.62,-32 1000.12,-32 1000.12,0 1104.62,0 1104.62,-32"/>
<text xml:space="preserve" text-anchor="start" x="1008.12" y="-18.5" font-family="Helvetica,sans-Serif" font-size="10.00">HF::GraphGenerator</text>
<text xml:space="preserve" text-anchor="middle" x="1052.38" y="-6.5" font-family="Helvetica,sans-Serif" font-size="10.00">::MoveNode</text>
</a>
</g>
</g>
<!-- Node14&#45;&gt;Node19 -->
<g id="edge21" class="edge">
<title>Node14&#45;&gt;Node19</title>
<path fill="none" stroke="#63b8ff" d="M914.97,-110.78C930.8,-91.88 959.19,-60.71 989.25,-41 991.04,-39.83 992.89,-38.7 994.78,-37.6"/>
<polygon fill="#63b8ff" stroke="#63b8ff" points="995.98,-40.93 1003.21,-33.18 992.73,-34.73 995.98,-40.93"/>
</g>
<!-- Node17 -->
<g id="node17" class="node">
<title>Node17</title>
<g id="a_node17"><a xlink:href="a00464.html#a2630761a64fac02a4ee33abaf5c885a1" target="_top" xlink:title=" ">
<polygon fill="white" stroke="#666666" points="1292,-144 1151.5,-144 1151.5,-124 1292,-124 1292,-144"/>
<text xml:space="preserve" text-anchor="middle" x="1221.75" y="-130.5" font-family="Helvetica,sans-Serif" font-size="10.00">HF::RayTracer::DidIntersect</text>
</a>
</g>
</g>
<!-- Node16&#45;&gt;Node17 -->
<g id="edge18" class="edge">
<title>Node16&#45;&gt;Node17</title>
<path fill="none" stroke="#63b8ff" d="M1115.7,-134C1123.53,-134 1131.63,-134 1139.7,-134"/>
<polygon fill="#63b8ff" stroke="#63b8ff" points="1139.54,-137.5 1149.54,-134 1139.54,-130.5 1139.54,-137.5"/>
</g>
<!-- Node18&#45;&gt;Node18 -->
<g id="edge20" class="edge">
<title>Node18&#45;&gt;Node18</title>
<path fill="none" stroke="#63b8ff" d="M1025.35,-82.44C1020.31,-91.58 1029.31,-100 1052.38,-100 1064.99,-100 1073.4,-97.48 1077.6,-93.71"/>
<polygon fill="#63b8ff" stroke="#63b8ff" points="1081.04,-94.36 1079.16,-83.94 1074.13,-93.26 1081.04,-94.36"/>
</g>
<!-- Node21 -->
<g id="node21" class="node">
<title>Node21</title>
<g id="a_node21"><a xlink:href="a00463.html#ace66c1b60785c32433402f012019ab81" target="_top" xlink:title="Determine if there is a valid line of sight between parent and child.">
<polygon fill="white" stroke="#666666" points="953.25,-317 848.75,-317 848.75,-285 953.25,-285 953.25,-317"/>
<text xml:space="preserve" text-anchor="start" x="856.75" y="-303.5" font-family="Helvetica,sans-Serif" font-size="10.00">HF::GraphGenerator</text>
<text xml:space="preserve" text-anchor="middle" x="901" y="-291.5" font-family="Helvetica,sans-Serif" font-size="10.00">::OcclusionCheck</text>
</a>
</g>
</g>
<!-- Node20&#45;&gt;Node21 -->
<g id="edge23" class="edge">
<title>Node20&#45;&gt;Node21</title>
<path fill="none" stroke="#63b8ff" d="M811.1,-300.37C819.59,-300.43 828.47,-300.49 837.19,-300.55"/>
<polygon fill="#63b8ff" stroke="#63b8ff" points="836.99,-304.05 847.02,-300.62 837.04,-297.05 836.99,-304.05"/>
</g>
<!-- Node22 -->
<g id="node22" class="node">
<title>Node22</title>
<g id="a_node22"><a xlink:href="a00463.html#a750afc15c798c79a8b6a0784ed092f3c" target="_top" xlink:title="Calculate the normalized direction from one node to another.">
<polygon fill="white" stroke="#666666" points="1104.62,-319 1000.12,-319 1000.12,-287 1104.62,-287 1104.62,-319"/>
<text xml:space="preserve" text-anchor="start" x="1008.12" y="-305.5" font-family="Helvetica,sans-Serif" font-size="10.00">HF::GraphGenerator</text>
<text xml:space="preserve" text-anchor="middle" x="1052.38" y="-293.5" font-family="Helvetica,sans-Serif" font-size="10.00">::DirectionTo</text>
</a>
</g>
</g>
<!-- Node21&#45;&gt;Node22 -->
<g id="edge24" class="edge">
<title>Node21&#45;&gt;Node22</title>
<path fill="none" stroke="#63b8ff" d="M953.41,-301.69C964.67,-301.84 976.72,-302 988.39,-302.16"/>
<polygon fill="#63b8ff" stroke="#63b8ff" points="988.31,-305.66 998.36,-302.29 988.41,-298.66 988.31,-305.66"/>
</g>
<!-- Node21&#45;&gt;Node24 -->
<g id="edge26" class="edge">
<title>Node21&#45;&gt;Node24</title>
<path fill="none" stroke="#63b8ff" d="M952.99,-284.62C964.64,-280.87 977.14,-276.85 989.2,-272.98"/>
<polygon fill="#63b8ff" stroke="#63b8ff" points="990.22,-276.33 998.67,-269.94 988.08,-269.66 990.22,-276.33"/>
</g>
<!-- Node25 -->
<g id="node25" class="node">
<title>Node25</title>
<g id="a_node25"><a xlink:href="a01419.html#a22ebf97e859ef651e81deb40b74f668f" target="_top" xlink:title=" ">
<polygon fill="white" stroke="#666666" points="1112.88,-369 991.88,-369 991.88,-337 1112.88,-337 1112.88,-369"/>
<text xml:space="preserve" text-anchor="start" x="999.88" y="-355.5" font-family="Helvetica,sans-Serif" font-size="10.00">HF::RayTracer::MultiRT</text>
<text xml:space="preserve" text-anchor="middle" x="1052.38" y="-343.5" font-family="Helvetica,sans-Serif" font-size="10.00">::Occluded</text>
</a>
</g>
</g>
<!-- Node21&#45;&gt;Node25 -->
<g id="edge27" class="edge">
<title>Node21&#45;&gt;Node25</title>
<path fill="none" stroke="#63b8ff" d="M949.26,-317.45C963.36,-322.36 978.98,-327.8 993.67,-332.91"/>
<polygon fill="#63b8ff" stroke="#63b8ff" points="992.14,-336.08 1002.73,-336.07 994.44,-329.47 992.14,-336.08"/>
</g>
<!-- Node23 -->
<g id="node23" class="node">
<title>Node23</title>
<g id="a_node23"><a xlink:href="a00463.html#ad2e09e0825a1db4fc511907179eddf00" target="_top" xlink:title="Normalize a vector.">
<polygon fill="white" stroke="#666666" points="1274,-319 1169.5,-319 1169.5,-287 1274,-287 1274,-319"/>
<text xml:space="preserve" text-anchor="start" x="1177.5" y="-305.5" font-family="Helvetica,sans-Serif" font-size="10.00">HF::GraphGenerator</text>
<text xml:space="preserve" text-anchor="middle" x="1221.75" y="-293.5" font-family="Helvetica,sans-Serif" font-size="10.00">::Normalize</text>
</a>
</g>
</g>
<!-- Node22&#45;&gt;Node23 -->
<g id="edge25" class="edge">
<title>Node22&#45;&gt;Node23</title>
<path fill="none" stroke="#63b8ff" d="M1104.96,-303C1121.66,-303 1140.38,-303 1157.81,-303"/>
<polygon fill="#63b8ff" stroke="#63b8ff" points="1157.53,-306.5 1167.53,-303 1157.53,-299.5 1157.53,-306.5"/>
</g>
<!-- Node25&#45;&gt;Node25 -->
<g id="edge28" class="edge">
<title>Node25&#45;&gt;Node25</title>
<path fill="none" stroke="#63b8ff" d="M1025.35,-369.44C1020.31,-378.58 1029.31,-387 1052.38,-387 1064.99,-387 1073.4,-384.48 1077.6,-380.71"/>
<polygon fill="#63b8ff" stroke="#63b8ff" points="1081.04,-381.36 1079.16,-370.94 1074.13,-380.26 1081.04,-381.36"/>
</g>
<!-- Node29 -->
<g id="node29" class="node">
<title>Node29</title>
<g id="a_node29"><a xlink:href="a01315.html#ae0dc637a2d7c3aae32d8f035ac6b8016" target="_top" xlink:title="Add a node to the queue if it has never previously been in the queue.">
<polygon fill="white" stroke="#666666" points="812.75,-228 704.5,-228 704.5,-196 812.75,-196 812.75,-228"/>
<text xml:space="preserve" text-anchor="start" x="712.5" y="-214.5" font-family="Helvetica,sans-Serif" font-size="10.00">HF::GraphGenerator</text>
<text xml:space="preserve" text-anchor="middle" x="758.62" y="-202.5" font-family="Helvetica,sans-Serif" font-size="10.00">::UniqueQueue::push</text>
</a>
</g>
</g>
<!-- Node28&#45;&gt;Node29 -->
<g id="edge33" class="edge">
<title>Node28&#45;&gt;Node29</title>
<path fill="none" stroke="#63b8ff" d="M664.1,-210.2C673.51,-210.38 683.23,-210.57 692.69,-210.75"/>
<polygon fill="#63b8ff" stroke="#63b8ff" points="692.47,-214.25 702.54,-210.94 692.61,-207.25 692.47,-214.25"/>
</g>
<!-- Node30&#45;&gt;Node3 -->
<g id="edge36" class="edge">
<title>Node30&#45;&gt;Node3</title>
<path fill="none" stroke="#63b8ff" d="M432.3,-494.34C447.99,-530.09 483.12,-600.44 532.5,-643 535.88,-645.91 539.59,-648.59 543.47,-651.04"/>
<polygon fill="#63b8ff" stroke="#63b8ff" points="541.65,-654.03 552.08,-655.93 545.11,-647.95 541.65,-654.03"/>
</g>
<!-- Node30&#45;&gt;Node6 -->
<g id="edge35" class="edge">
<title>Node30&#45;&gt;Node6</title>
<path fill="none" stroke="#63b8ff" d="M470.18,-449.6C489.37,-440.69 511.86,-430.55 532.5,-422 536.11,-420.5 539.84,-419 543.61,-417.51"/>
<polygon fill="#63b8ff" stroke="#63b8ff" points="544.81,-420.8 552.87,-413.92 542.28,-414.27 544.81,-420.8"/>
</g>
<!-- Node30&#45;&gt;Node7 -->
<g id="edge37" class="edge">
<title>Node30&#45;&gt;Node7</title>
<path fill="none" stroke="#63b8ff" d="M472.97,-449.56C481.37,-444.5 489.59,-438.63 496.5,-432 518.94,-410.47 508.59,-391.89 532.5,-372 534.22,-370.57 536.03,-369.22 537.9,-367.94"/>
<polygon fill="#63b8ff" stroke="#63b8ff" points="539.61,-371 546.45,-362.91 536.06,-364.97 539.61,-371"/>
</g>
<!-- Node30&#45;&gt;Node9 -->
<g id="edge38" class="edge">
<title>Node30&#45;&gt;Node9</title>
<path fill="none" stroke="#63b8ff" d="M446.26,-494.32C467.35,-513.73 500.09,-541.56 532.5,-560 534.82,-561.32 537.23,-562.6 539.68,-563.83"/>
<polygon fill="#63b8ff" stroke="#63b8ff" points="538.09,-566.94 548.63,-567.97 541.03,-560.59 538.09,-566.94"/>
</g>
<!-- Node30&#45;&gt;Node10 -->
<g id="edge45" class="edge">
<title>Node30&#45;&gt;Node10</title>
<path fill="none" stroke="#63b8ff" d="M432.96,-494.39C448.63,-526.9 482.68,-585.92 532.5,-610 588.34,-636.99 660.82,-621.24 708.25,-605.16"/>
<polygon fill="#63b8ff" stroke="#63b8ff" points="709.16,-608.55 717.43,-601.92 706.83,-601.95 709.16,-608.55"/>
</g>
<!-- Node30&#45;&gt;Node11 -->
<g id="edge39" class="edge">
<title>Node30&#45;&gt;Node11</title>
<path fill="none" stroke="#63b8ff" d="M496.9,-461.54C504.86,-460.41 512.97,-459.26 520.98,-458.13"/>
<polygon fill="#63b8ff" stroke="#63b8ff" points="521.3,-461.62 530.71,-456.75 520.32,-454.69 521.3,-461.62"/>
</g>
<!-- Node30&#45;&gt;Node12 -->
<g id="edge40" class="edge">
<title>Node30&#45;&gt;Node12</title>
<path fill="none" stroke="#63b8ff" d="M476.13,-449.57C483.71,-444.64 490.84,-438.8 496.5,-432 529.4,-392.46 504.9,-365.41 532.5,-322 541.87,-307.25 555.48,-293.6 567.98,-282.8"/>
<polygon fill="#63b8ff" stroke="#63b8ff" points="570.19,-285.52 575.65,-276.44 565.72,-280.13 570.19,-285.52"/>
</g>
<!-- Node30&#45;&gt;Node29 -->
<g id="edge44" class="edge">
<title>Node30&#45;&gt;Node29</title>
<path fill="none" stroke="#63b8ff" d="M495.59,-494.5C549.39,-506.36 621.3,-511.35 668.5,-472 736.86,-415 666.54,-355.5 704.5,-275 711.15,-260.91 721.75,-247.41 731.74,-236.54"/>
<polygon fill="#63b8ff" stroke="#63b8ff" points="734.08,-239.16 738.49,-229.52 729.03,-234.31 734.08,-239.16"/>
</g>
<!-- Node31 -->
<g id="node31" class="node">
<title>Node31</title>
<g id="a_node31"><a xlink:href="a01315.html#ae941f357ddbefc3b670c43ce2d90b589" target="_top" xlink:title="Pop a set amount of nodes from the queue, and return them as a vector.">
<polygon fill="white" stroke="#666666" points="664,-551 537,-551 537,-519 664,-519 664,-551"/>
<text xml:space="preserve" text-anchor="start" x="545" y="-537.5" font-family="Helvetica,sans-Serif" font-size="10.00">HF::GraphGenerator</text>
<text xml:space="preserve" text-anchor="middle" x="600.5" y="-525.5" font-family="Helvetica,sans-Serif" font-size="10.00">::UniqueQueue::popMany</text>
</a>
</g>
</g>
<!-- Node30&#45;&gt;Node31 -->
<g id="edge41" class="edge">
<title>Node30&#45;&gt;Node31</title>
<path fill="none" stroke="#63b8ff" d="M485.8,-494.39C504.34,-501.01 524.52,-508.22 542.67,-514.7"/>
<polygon fill="#63b8ff" stroke="#63b8ff" points="541.36,-517.95 551.95,-518.02 543.71,-511.36 541.36,-517.95"/>
</g>
<!-- Node31&#45;&gt;Node10 -->
<g id="edge43" class="edge">
<title>Node31&#45;&gt;Node10</title>
<path fill="none" stroke="#63b8ff" d="M652.62,-551.37C666.3,-555.75 681.23,-560.54 695.44,-565.08"/>
<polygon fill="#63b8ff" stroke="#63b8ff" points="694.09,-568.33 704.68,-568.04 696.22,-561.66 694.09,-568.33"/>
</g>
<!-- Node31&#45;&gt;Node27 -->
<g id="edge42" class="edge">
<title>Node31&#45;&gt;Node27</title>
<path fill="none" stroke="#63b8ff" d="M662.76,-518.52C673.41,-515.66 684.5,-512.67 695.18,-509.8"/>
<polygon fill="#63b8ff" stroke="#63b8ff" points="695.92,-513.22 704.67,-507.25 694.1,-506.46 695.92,-513.22"/>
</g>
<!-- Node33&#45;&gt;Node14 -->
<g id="edge49" class="edge">
<title>Node33&#45;&gt;Node14</title>
<path fill="none" stroke="#63b8ff" d="M474.61,-135.03C562.58,-133.37 741.54,-129.99 836.89,-128.19"/>
<polygon fill="#63b8ff" stroke="#63b8ff" points="836.92,-131.69 846.85,-128 836.79,-124.69 836.92,-131.69"/>
</g>
</g>
</svg>
