<?xml version="1.0" encoding="UTF-8" standalone="no"?>
<!DOCTYPE svg PUBLIC "-//W3C//DTD SVG 1.1//EN"
 "http://www.w3.org/Graphics/SVG/1.1/DTD/svg11.dtd">
<!-- Generated by graphviz version 13.1.2 (20250808.2320)
 -->
<!-- Title: HF::nanoGeom::Mesh Pages: 1 -->
<svg width="302pt" height="156pt"
 viewBox="0.00 0.00 302.00 156.00" xmlns="http://www.w3.org/2000/svg" xmlns:xlink="http://www.w3.org/1999/xlink">
<g id="graph0" class="graph" transform="scale(1 1) rotate(0) translate(4 152)">
<title>HF::nanoGeom::Mesh</title>
<!-- Node1 -->
<g id="node1" class="node">
<title>Node1</title>
<g id="a_node1"><a xlink:title=" ">
<polygon fill="#999999" stroke="#666666" points="159.5,-20 46.75,-20 46.75,0 159.5,0 159.5,-20"/>
<text xml:space="preserve" text-anchor="middle" x="103.12" y="-6.5" font-family="Helvetica,sans-Serif" font-size="10.00">HF::nanoGeom::Mesh</text>
</a>
</g>
</g>
<!-- Node2 -->
<g id="node2" class="node">
<title>Node2</title>
<g id="a_node2"><a xlink:title=" ">
<polygon fill="white" stroke="#666666" points="42.25,-148 0,-148 0,-128 42.25,-128 42.25,-148"/>
<text xml:space="preserve" text-anchor="middle" x="21.12" y="-134.5" font-family="Helvetica,sans-Serif" font-size="10.00">size_t</text>
</a>
</g>
</g>
<!-- Node2&#45;&gt;Node1 -->
<g id="edge1" class="edge">
<title>Node2&#45;&gt;Node1</title>
<path fill="none" stroke="#9a32cd" stroke-dasharray="5,2" d="M19.88,-116.43C19.66,-94.64 22.61,-60.34 40.62,-38 47.01,-30.09 56.15,-24.44 65.49,-20.44"/>
<polygon fill="#9a32cd" stroke="#9a32cd" points="16.37,-116.26 20.23,-126.13 23.37,-116.01 16.37,-116.26"/>
<text xml:space="preserve" text-anchor="middle" x="69.88" y="-76.5" font-family="Helvetica,sans-Serif" font-size="10.00"> num_faces</text>
<text xml:space="preserve" text-anchor="middle" x="69.88" y="-64.5" font-family="Helvetica,sans-Serif" font-size="10.00">num_vertices</text>
</g>
<!-- Node3 -->
<g id="node3" class="node">
<title>Node3</title>
<g id="a_node3"><a xlink:href="a00001.html#a02139" target="_top" xlink:title=" ">
<polygon fill="white" stroke="#666666" points="125.38,-148 80.88,-148 80.88,-128 125.38,-128 125.38,-148"/>
<text xml:space="preserve" text-anchor="middle" x="103.12" y="-134.5" font-family="Helvetica,sans-Serif" font-size="10.00">double</text>
</a>
</g>
</g>
<!-- Node3&#45;&gt;Node1 -->
<g id="edge2" class="edge">
<title>Node3&#45;&gt;Node1</title>
<path fill="none" stroke="#9a32cd" stroke-dasharray="5,2" d="M103.12,-116.39C103.12,-88.62 103.12,-40.37 103.12,-20.24"/>
<polygon fill="#9a32cd" stroke="#9a32cd" points="99.63,-116.02 103.13,-126.02 106.63,-116.02 99.63,-116.02"/>
<text xml:space="preserve" text-anchor="middle" x="160.12" y="-100.5" font-family="Helvetica,sans-Serif" font-size="10.00"> facevarying_binormals</text>
<text xml:space="preserve" text-anchor="middle" x="160.12" y="-88.5" font-family="Helvetica,sans-Serif" font-size="10.00">facevarying_normals</text>
<text xml:space="preserve" text-anchor="middle" x="160.12" y="-76.5" font-family="Helvetica,sans-Serif" font-size="10.00">facevarying_tangents</text>
<text xml:space="preserve" text-anchor="middle" x="160.12" y="-64.5" font-family="Helvetica,sans-Serif" font-size="10.00">facevarying_uvs</text>
<text xml:space="preserve" text-anchor="middle" x="160.12" y="-52.5" font-family="Helvetica,sans-Serif" font-size="10.00">facevarying_vertex_colors</text>
<text xml:space="preserve" text-anchor="middle" x="160.12" y="-40.5" font-family="Helvetica,sans-Serif" font-size="10.00">vertices</text>
</g>
<!-- Node4 -->
<g id="node4" class="node">
<title>Node4</title>
<g id="a_node4"><a xlink:title=" ">
<polygon fill="white" stroke="#666666" points="254.53,-148 225.72,-148 225.72,-128 254.53,-128 254.53,-148"/>
<text xml:space="preserve" text-anchor="middle" x="240.12" y="-134.5" font-family="Helvetica,sans-Serif" font-size="10.00">int</text>
</a>
</g>
</g>
<!-- Node4&#45;&gt;Node1 -->
<g id="edge3" class="edge">
<title>Node4&#45;&gt;Node1</title>
<path fill="none" stroke="#9a32cd" stroke-dasharray="5,2" d="M241.5,-116.38C241.8,-94.01 238.6,-58.72 218.12,-38 209.62,-29.39 184.52,-22.98 159.94,-18.58"/>
<polygon fill="#9a32cd" stroke="#9a32cd" points="238.02,-115.93 241.1,-126.07 245.01,-116.22 238.02,-115.93"/>
<text xml:space="preserve" text-anchor="middle" x="267.72" y="-76.5" font-family="Helvetica,sans-Serif" font-size="10.00"> faces</text>
<text xml:space="preserve" text-anchor="middle" x="267.72" y="-64.5" font-family="Helvetica,sans-Serif" font-size="10.00">material_ids</text>
</g>
</g>
</svg>
