<?xml version="1.0" encoding="UTF-8" standalone="no"?>
<!DOCTYPE svg PUBLIC "-//W3C//DTD SVG 1.1//EN"
 "http://www.w3.org/Graphics/SVG/1.1/DTD/svg11.dtd">
<!-- Generated by graphviz version 13.1.2 (20250808.2320)
 -->
<!-- Title: HF::Pathfinding::BoostGraph::BoostGraph Pages: 1 -->
<svg width="297pt" height="140pt"
 viewBox="0.00 0.00 297.00 140.00" xmlns="http://www.w3.org/2000/svg" xmlns:xlink="http://www.w3.org/1999/xlink">
<g id="graph0" class="graph" transform="scale(1 1) rotate(0) translate(4 136)">
<title>HF::Pathfinding::BoostGraph::BoostGraph</title>
<!-- Node1 -->
<g id="node1" class="node">
<title>Node1</title>
<g id="a_node1"><a xlink:title="Create a boost graph from a HF::SpatialStructures::Graph.">
<polygon fill="#999999" stroke="#666666" points="142,-82 0,-82 0,-50 142,-50 142,-82"/>
<text xml:space="preserve" text-anchor="start" x="8" y="-68.5" font-family="Helvetica,sans-Serif" font-size="10.00">HF::Pathfinding::BoostGraph</text>
<text xml:space="preserve" text-anchor="middle" x="71" y="-56.5" font-family="Helvetica,sans-Serif" font-size="10.00">::BoostGraph</text>
</a>
</g>
</g>
<!-- Node2 -->
<g id="node2" class="node">
<title>Node2</title>
<g id="a_node2"><a xlink:href="a01551.html#a1a26ebb794b444e2214cf0b0fed5a529" target="_top" xlink:title="Get every in the given graph as IDs.">
<polygon fill="white" stroke="#666666" points="288.5,-132 178,-132 178,-100 288.5,-100 288.5,-132"/>
<text xml:space="preserve" text-anchor="start" x="186" y="-118.5" font-family="Helvetica,sans-Serif" font-size="10.00">HF::SpatialStructures</text>
<text xml:space="preserve" text-anchor="middle" x="233.25" y="-106.5" font-family="Helvetica,sans-Serif" font-size="10.00">::Graph::GetEdges</text>
</a>
</g>
</g>
<!-- Node1&#45;&gt;Node2 -->
<g id="edge1" class="edge">
<title>Node1&#45;&gt;Node2</title>
<path fill="none" stroke="#63b8ff" d="M124.47,-82.37C138.51,-86.75 153.84,-91.54 168.42,-96.08"/>
<polygon fill="#63b8ff" stroke="#63b8ff" points="167.35,-99.42 177.94,-99.05 169.44,-92.74 167.35,-99.42"/>
</g>
<!-- Node3 -->
<g id="node3" class="node">
<title>Node3</title>
<g id="a_node3"><a xlink:href="a01551.html#a5d1505ad796c9f222c923a1a22980bb2" target="_top" xlink:title="Calculate the maximum ID of any node in the graph.">
<polygon fill="white" stroke="#666666" points="288.5,-82 178,-82 178,-50 288.5,-50 288.5,-82"/>
<text xml:space="preserve" text-anchor="start" x="186" y="-68.5" font-family="Helvetica,sans-Serif" font-size="10.00">HF::SpatialStructures</text>
<text xml:space="preserve" text-anchor="middle" x="233.25" y="-56.5" font-family="Helvetica,sans-Serif" font-size="10.00">::Graph::MaxID</text>
</a>
</g>
</g>
<!-- Node1&#45;&gt;Node3 -->
<g id="edge2" class="edge">
<title>Node1&#45;&gt;Node3</title>
<path fill="none" stroke="#63b8ff" d="M142.29,-66C150.31,-66 158.47,-66 166.43,-66"/>
<polygon fill="#63b8ff" stroke="#63b8ff" points="166.4,-69.5 176.4,-66 166.4,-62.5 166.4,-69.5"/>
</g>
<!-- Node4 -->
<g id="node4" class="node">
<title>Node4</title>
<g id="a_node4"><a xlink:href="a01551.html#a2710af2a75976862d7a235793567d2f3" target="_top" xlink:title="Determine how many nodes are in the graph.">
<polygon fill="white" stroke="#666666" points="288.5,-32 178,-32 178,0 288.5,0 288.5,-32"/>
<text xml:space="preserve" text-anchor="start" x="186" y="-18.5" font-family="Helvetica,sans-Serif" font-size="10.00">HF::SpatialStructures</text>
<text xml:space="preserve" text-anchor="middle" x="233.25" y="-6.5" font-family="Helvetica,sans-Serif" font-size="10.00">::Graph::size</text>
</a>
</g>
</g>
<!-- Node1&#45;&gt;Node4 -->
<g id="edge3" class="edge">
<title>Node1&#45;&gt;Node4</title>
<path fill="none" stroke="#63b8ff" d="M124.47,-49.63C138.51,-45.25 153.84,-40.46 168.42,-35.92"/>
<polygon fill="#63b8ff" stroke="#63b8ff" points="169.44,-39.26 177.94,-32.95 167.35,-32.58 169.44,-39.26"/>
</g>
</g>
</svg>
