<?xml version="1.0" encoding="UTF-8" standalone="no"?>
<!DOCTYPE svg PUBLIC "-//W3C//DTD SVG 1.1//EN"
 "http://www.w3.org/Graphics/SVG/1.1/DTD/svg11.dtd">
<!-- Generated by graphviz version 13.1.2 (20250808.2320)
 -->
<!-- Title: HF::Pathfinding::DistanceAndPredecessor Pages: 1 -->
<svg width="274pt" height="176pt"
 viewBox="0.00 0.00 274.00 176.00" xmlns="http://www.w3.org/2000/svg" xmlns:xlink="http://www.w3.org/1999/xlink">
<g id="graph0" class="graph" transform="scale(1 1) rotate(0) translate(4 172)">
<title>HF::Pathfinding::DistanceAndPredecessor</title>
<!-- Node1 -->
<g id="node1" class="node">
<title>Node1</title>
<g id="a_node1"><a xlink:title="Holds and maintains a distance and predecessor matrix.">
<polygon fill="#999999" stroke="#666666" points="200.25,-32 71,-32 71,0 200.25,0 200.25,-32"/>
<text xml:space="preserve" text-anchor="start" x="79" y="-18.5" font-family="Helvetica,sans-Serif" font-size="10.00">HF::Pathfinding::Distance</text>
<text xml:space="preserve" text-anchor="middle" x="135.62" y="-6.5" font-family="Helvetica,sans-Serif" font-size="10.00">AndPredecessor</text>
</a>
</g>
</g>
<!-- Node2 -->
<g id="node2" class="node">
<title>Node2</title>
<g id="a_node2"><a xlink:title=" ">
<polygon fill="white" stroke="#666666" points="99.25,-100 0,-100 0,-80 99.25,-80 99.25,-100"/>
<text xml:space="preserve" text-anchor="middle" x="49.62" y="-86.5" font-family="Helvetica,sans-Serif" font-size="10.00">std::vector&lt; float &gt;</text>
</a>
</g>
</g>
<!-- Node2&#45;&gt;Node1 -->
<g id="edge1" class="edge">
<title>Node2&#45;&gt;Node1</title>
<path fill="none" stroke="#9a32cd" stroke-dasharray="5,2" d="M69.49,-72.37C83.85,-60.34 103.12,-44.22 117.15,-32.47"/>
<polygon fill="#9a32cd" stroke="#9a32cd" points="67.45,-69.51 62.03,-78.62 71.94,-74.88 67.45,-69.51"/>
<text xml:space="preserve" text-anchor="middle" x="104.58" y="-52.5" font-family="Helvetica,sans-Serif" font-size="10.00"> dist</text>
</g>
<!-- Node3 -->
<g id="node3" class="node">
<title>Node3</title>
<g id="a_node3"><a xlink:title=" ">
<polygon fill="white" stroke="#666666" points="67,-168 32.25,-168 32.25,-148 67,-148 67,-168"/>
<text xml:space="preserve" text-anchor="middle" x="49.62" y="-154.5" font-family="Helvetica,sans-Serif" font-size="10.00">float</text>
</a>
</g>
</g>
<!-- Node3&#45;&gt;Node2 -->
<g id="edge2" class="edge">
<title>Node3&#45;&gt;Node2</title>
<path fill="none" stroke="#9a32cd" stroke-dasharray="5,2" d="M49.62,-136.28C49.62,-124.27 49.62,-109.74 49.62,-100.44"/>
<polygon fill="#9a32cd" stroke="#9a32cd" points="46.13,-136.03 49.63,-146.03 53.13,-136.03 46.13,-136.03"/>
<text xml:space="preserve" text-anchor="middle" x="71" y="-120.5" font-family="Helvetica,sans-Serif" font-size="10.00"> elements</text>
</g>
<!-- Node4 -->
<g id="node4" class="node">
<title>Node4</title>
<g id="a_node4"><a xlink:title=" ">
<polygon fill="white" stroke="#666666" points="266.12,-100 175.12,-100 175.12,-80 266.12,-80 266.12,-100"/>
<text xml:space="preserve" text-anchor="middle" x="220.62" y="-86.5" font-family="Helvetica,sans-Serif" font-size="10.00">std::vector&lt; int &gt;</text>
</a>
</g>
</g>
<!-- Node4&#45;&gt;Node1 -->
<g id="edge3" class="edge">
<title>Node4&#45;&gt;Node1</title>
<path fill="none" stroke="#9a32cd" stroke-dasharray="5,2" d="M200.99,-72.37C186.79,-60.34 167.76,-44.22 153.89,-32.47"/>
<polygon fill="#9a32cd" stroke="#9a32cd" points="198.47,-74.82 208.36,-78.61 202.99,-69.47 198.47,-74.82"/>
<text xml:space="preserve" text-anchor="middle" x="199.11" y="-52.5" font-family="Helvetica,sans-Serif" font-size="10.00"> pred</text>
</g>
<!-- Node5 -->
<g id="node5" class="node">
<title>Node5</title>
<g id="a_node5"><a xlink:title=" ">
<polygon fill="white" stroke="#666666" points="179.03,-168 150.22,-168 150.22,-148 179.03,-148 179.03,-168"/>
<text xml:space="preserve" text-anchor="middle" x="164.62" y="-154.5" font-family="Helvetica,sans-Serif" font-size="10.00">int</text>
</a>
</g>
</g>
<!-- Node5&#45;&gt;Node1 -->
<g id="edge5" class="edge">
<title>Node5&#45;&gt;Node1</title>
<path fill="none" stroke="#9a32cd" stroke-dasharray="5,2" d="M157.02,-137.45C153.07,-126.58 148.48,-112.71 145.62,-100 140.41,-76.78 137.77,-49.24 136.55,-32.46"/>
<polygon fill="#9a32cd" stroke="#9a32cd" points="153.61,-138.34 160.41,-146.47 160.17,-135.87 153.61,-138.34"/>
<text xml:space="preserve" text-anchor="middle" x="156.12" y="-86.5" font-family="Helvetica,sans-Serif" font-size="10.00"> size</text>
</g>
<!-- Node5&#45;&gt;Node4 -->
<g id="edge4" class="edge">
<title>Node5&#45;&gt;Node4</title>
<path fill="none" stroke="#9a32cd" stroke-dasharray="5,2" d="M180,-138.88C190.55,-126.44 204.14,-110.43 212.62,-100.44"/>
<polygon fill="#9a32cd" stroke="#9a32cd" points="177.43,-136.5 173.63,-146.39 182.77,-141.03 177.43,-136.5"/>
<text xml:space="preserve" text-anchor="middle" x="219.02" y="-120.5" font-family="Helvetica,sans-Serif" font-size="10.00"> elements</text>
</g>
</g>
</svg>
