<?xml version="1.0" encoding="UTF-8" standalone="no"?>
<!DOCTYPE svg PUBLIC "-//W3C//DTD SVG 1.1//EN"
 "http://www.w3.org/Graphics/SVG/1.1/DTD/svg11.dtd">
<!-- Generated by graphviz version 13.1.2 (20250808.2320)
 -->
<!-- Title: HF::GraphGenerator::UniqueQueue Pages: 1 -->
<svg width="654pt" height="149pt"
 viewBox="0.00 0.00 654.00 149.00" xmlns="http://www.w3.org/2000/svg" xmlns:xlink="http://www.w3.org/1999/xlink">
<g id="graph0" class="graph" transform="scale(1 1) rotate(0) translate(4 144.77)">
<title>HF::GraphGenerator::UniqueQueue</title>
<!-- Node1 -->
<g id="node1" class="node">
<title>Node1</title>
<g id="a_node1"><a xlink:title="A queue that remembers every object inserted, and prevents the addition of nodes that have already be...">
<polygon fill="#999999" stroke="#666666" points="646,-55 541.5,-55 541.5,-23 646,-23 646,-55"/>
<text xml:space="preserve" text-anchor="start" x="549.5" y="-41.5" font-family="Helvetica,sans-Serif" font-size="10.00">HF::GraphGenerator</text>
<text xml:space="preserve" text-anchor="middle" x="593.75" y="-29.5" font-family="Helvetica,sans-Serif" font-size="10.00">::UniqueQueue</text>
</a>
</g>
</g>
<!-- Node2 -->
<g id="node2" class="node">
<title>Node2</title>
<g id="a_node2"><a xlink:title=" ">
<polygon fill="white" stroke="#666666" points="450,-94 284.75,-94 284.75,-62 450,-62 450,-94"/>
<text xml:space="preserve" text-anchor="start" x="292.75" y="-80.5" font-family="Helvetica,sans-Serif" font-size="10.00">std::queue&lt; HF::SpatialStructures</text>
<text xml:space="preserve" text-anchor="middle" x="367.38" y="-68.5" font-family="Helvetica,sans-Serif" font-size="10.00">::Node &gt;</text>
</a>
</g>
</g>
<!-- Node2&#45;&gt;Node1 -->
<g id="edge1" class="edge">
<title>Node2&#45;&gt;Node1</title>
<path fill="none" stroke="#9a32cd" stroke-dasharray="5,2" d="M461.51,-61.81C488.8,-57.07 517.64,-52.06 541.31,-47.94"/>
<polygon fill="#9a32cd" stroke="#9a32cd" points="461.08,-58.33 451.82,-63.5 462.27,-65.23 461.08,-58.33"/>
<text xml:space="preserve" text-anchor="middle" x="495.75" y="-62.17" font-family="Helvetica,sans-Serif" font-size="10.00"> node_queue</text>
</g>
<!-- Node3 -->
<g id="node3" class="node">
<title>Node3</title>
<g id="a_node3"><a xlink:href="a02071.html" target="_top" xlink:title="A point in space with an ID.">
<polygon fill="white" stroke="#666666" points="206,-94 95.5,-94 95.5,-62 206,-62 206,-94"/>
<text xml:space="preserve" text-anchor="start" x="103.5" y="-80.5" font-family="Helvetica,sans-Serif" font-size="10.00">HF::SpatialStructures</text>
<text xml:space="preserve" text-anchor="middle" x="150.75" y="-68.5" font-family="Helvetica,sans-Serif" font-size="10.00">::Node</text>
</a>
</g>
</g>
<!-- Node3&#45;&gt;Node2 -->
<g id="edge2" class="edge">
<title>Node3&#45;&gt;Node2</title>
<path fill="none" stroke="#9a32cd" stroke-dasharray="5,2" d="M217.89,-78C238.97,-78 262.55,-78 284.59,-78"/>
<polygon fill="#9a32cd" stroke="#9a32cd" points="217.98,-74.5 207.98,-78 217.98,-81.5 217.98,-74.5"/>
<text xml:space="preserve" text-anchor="middle" x="245.38" y="-80.5" font-family="Helvetica,sans-Serif" font-size="10.00"> elements</text>
</g>
<!-- Node4 -->
<g id="node4" class="node">
<title>Node4</title>
<g id="a_node4"><a xlink:title=" ">
<polygon fill="white" stroke="#666666" points="36.25,-126 1.5,-126 1.5,-106 36.25,-106 36.25,-126"/>
<text xml:space="preserve" text-anchor="middle" x="18.88" y="-112.5" font-family="Helvetica,sans-Serif" font-size="10.00">float</text>
</a>
</g>
</g>
<!-- Node4&#45;&gt;Node3 -->
<g id="edge3" class="edge">
<title>Node4&#45;&gt;Node3</title>
<path fill="none" stroke="#9a32cd" stroke-dasharray="5,2" d="M47.36,-107.96C61.27,-103.89 78.66,-98.8 95.15,-93.98"/>
<polygon fill="#9a32cd" stroke="#9a32cd" points="46.66,-104.52 38.04,-110.68 48.62,-111.24 46.66,-104.52"/>
<text xml:space="preserve" text-anchor="middle" x="66.62" y="-131.27" font-family="Helvetica,sans-Serif" font-size="10.00"> x</text>
<text xml:space="preserve" text-anchor="middle" x="66.62" y="-119.27" font-family="Helvetica,sans-Serif" font-size="10.00">y</text>
<text xml:space="preserve" text-anchor="middle" x="66.62" y="-107.27" font-family="Helvetica,sans-Serif" font-size="10.00">z</text>
</g>
<!-- Node5 -->
<g id="node5" class="node">
<title>Node5</title>
<g id="a_node5"><a xlink:title=" ">
<polygon fill="white" stroke="#666666" points="37.75,-88 0,-88 0,-68 37.75,-68 37.75,-88"/>
<text xml:space="preserve" text-anchor="middle" x="18.88" y="-74.5" font-family="Helvetica,sans-Serif" font-size="10.00">short</text>
</a>
</g>
</g>
<!-- Node5&#45;&gt;Node3 -->
<g id="edge4" class="edge">
<title>Node5&#45;&gt;Node3</title>
<path fill="none" stroke="#9a32cd" stroke-dasharray="5,2" d="M49.65,-78C63.11,-78 79.46,-78 95.01,-78"/>
<polygon fill="#9a32cd" stroke="#9a32cd" points="49.72,-74.5 39.72,-78 49.72,-81.5 49.72,-74.5"/>
<text xml:space="preserve" text-anchor="middle" x="66.62" y="-80.5" font-family="Helvetica,sans-Serif" font-size="10.00"> type</text>
</g>
<!-- Node6 -->
<g id="node6" class="node">
<title>Node6</title>
<g id="a_node6"><a xlink:title=" ">
<polygon fill="white" stroke="#666666" points="33.27,-50 4.47,-50 4.47,-30 33.27,-30 33.27,-50"/>
<text xml:space="preserve" text-anchor="middle" x="18.88" y="-36.5" font-family="Helvetica,sans-Serif" font-size="10.00">int</text>
</a>
</g>
</g>
<!-- Node6&#45;&gt;Node3 -->
<g id="edge5" class="edge">
<title>Node6&#45;&gt;Node3</title>
<path fill="none" stroke="#9a32cd" stroke-dasharray="5,2" d="M44.68,-47.26C58.99,-51.45 77.6,-56.89 95.16,-62.03"/>
<polygon fill="#9a32cd" stroke="#9a32cd" points="45.81,-43.94 35.23,-44.49 43.84,-50.66 45.81,-43.94"/>
<text xml:space="preserve" text-anchor="middle" x="66.62" y="-59.22" font-family="Helvetica,sans-Serif" font-size="10.00"> id</text>
</g>
<!-- Node7 -->
<g id="node7" class="node">
<title>Node7</title>
<g id="a_node7"><a xlink:title=" ">
<polygon fill="white" stroke="#666666" points="429,-44 305.75,-44 305.75,0 429,0 429,-44"/>
<text xml:space="preserve" text-anchor="start" x="313.75" y="-30.5" font-family="Helvetica,sans-Serif" font-size="10.00">unordered_map&lt; HF::</text>
<text xml:space="preserve" text-anchor="start" x="313.75" y="-18.5" font-family="Helvetica,sans-Serif" font-size="10.00">SpatialStructures::Node,</text>
<text xml:space="preserve" text-anchor="middle" x="367.38" y="-6.5" font-family="Helvetica,sans-Serif" font-size="10.00"> int &gt;</text>
</a>
</g>
</g>
<!-- Node7&#45;&gt;Node1 -->
<g id="edge6" class="edge">
<title>Node7&#45;&gt;Node1</title>
<path fill="none" stroke="#9a32cd" stroke-dasharray="5,2" d="M440.52,-26.88C466.66,-28.71 496.42,-30.87 523.5,-33 529.27,-33.45 535.32,-33.95 541.33,-34.45"/>
<polygon fill="#9a32cd" stroke="#9a32cd" points="440.9,-23.4 430.68,-26.2 440.41,-30.38 440.9,-23.4"/>
<text xml:space="preserve" text-anchor="middle" x="495.75" y="-35.5" font-family="Helvetica,sans-Serif" font-size="10.00"> hashmap</text>
</g>
</g>
</svg>
