<?xml version="1.0" encoding="UTF-8" standalone="no"?>
<!DOCTYPE svg PUBLIC "-//W3C//DTD SVG 1.1//EN"
 "http://www.w3.org/Graphics/SVG/1.1/DTD/svg11.dtd">
<!-- Generated by graphviz version 13.1.2 (20250808.2320)
 -->
<!-- Title: HF::RayTracer::MultiRT::Occluded Pages: 1 -->
<svg width="1286pt" height="243pt"
 viewBox="0.00 0.00 1286.00 243.00" xmlns="http://www.w3.org/2000/svg" xmlns:xlink="http://www.w3.org/1999/xlink">
<g id="graph0" class="graph" transform="scale(1 1) rotate(0) translate(4 239)">
<title>HF::RayTracer::MultiRT::Occluded</title>
<!-- Node1 -->
<g id="node1" class="node">
<title>Node1</title>
<g id="a_node1"><a xlink:title=" ">
<polygon fill="#999999" stroke="#666666" points="1277.75,-141 1156.75,-141 1156.75,-109 1277.75,-109 1277.75,-141"/>
<text xml:space="preserve" text-anchor="start" x="1164.75" y="-127.5" font-family="Helvetica,sans-Serif" font-size="10.00">HF::RayTracer::MultiRT</text>
<text xml:space="preserve" text-anchor="middle" x="1217.25" y="-115.5" font-family="Helvetica,sans-Serif" font-size="10.00">::Occluded</text>
</a>
</g>
</g>
<!-- Node1&#45;&gt;Node1 -->
<g id="edge1" class="edge">
<title>Node1&#45;&gt;Node1</title>
<path fill="none" stroke="#63b8ff" d="M1242.04,-152.71C1237.91,-156.48 1229.64,-159 1217.25,-159 1194.59,-159 1185.74,-150.58 1190.69,-141.44"/>
<polygon fill="#63b8ff" stroke="#63b8ff" points="1245.48,-153.36 1243.57,-142.94 1238.56,-152.27 1245.48,-153.36"/>
</g>
<!-- Node2 -->
<g id="node2" class="node">
<title>Node2</title>
<g id="a_node2"><a xlink:href="a00463.html#ace66c1b60785c32433402f012019ab81" target="_top" xlink:title="Determine if there is a valid line of sight between parent and child.">
<polygon fill="white" stroke="#666666" points="1120.75,-141 1016.25,-141 1016.25,-109 1120.75,-109 1120.75,-141"/>
<text xml:space="preserve" text-anchor="start" x="1024.25" y="-127.5" font-family="Helvetica,sans-Serif" font-size="10.00">HF::GraphGenerator</text>
<text xml:space="preserve" text-anchor="middle" x="1068.5" y="-115.5" font-family="Helvetica,sans-Serif" font-size="10.00">::OcclusionCheck</text>
</a>
</g>
</g>
<!-- Node1&#45;&gt;Node2 -->
<g id="edge2" class="edge">
<title>Node1&#45;&gt;Node2</title>
<path fill="none" stroke="#63b8ff" d="M1145.17,-125C1137.06,-125 1128.92,-125 1121.14,-125"/>
<polygon fill="#63b8ff" stroke="#63b8ff" points="1145.05,-128.5 1155.05,-125 1145.05,-121.5 1145.05,-128.5"/>
</g>
<!-- Node3 -->
<g id="node3" class="node">
<title>Node3</title>
<g id="a_node3"><a xlink:href="a00463.html#a260a25e02193ce904849ee090daefa2e" target="_top" xlink:title="Determine what kind of step (if any) is between parent and child, given that a connection was verifie...">
<polygon fill="white" stroke="#666666" points="980.25,-141 875.75,-141 875.75,-109 980.25,-109 980.25,-141"/>
<text xml:space="preserve" text-anchor="start" x="883.75" y="-127.5" font-family="Helvetica,sans-Serif" font-size="10.00">HF::GraphGenerator</text>
<text xml:space="preserve" text-anchor="middle" x="928" y="-115.5" font-family="Helvetica,sans-Serif" font-size="10.00">::CheckConnection</text>
</a>
</g>
</g>
<!-- Node2&#45;&gt;Node3 -->
<g id="edge3" class="edge">
<title>Node2&#45;&gt;Node3</title>
<path fill="none" stroke="#63b8ff" d="M1004.67,-125C996.62,-125 988.46,-125 980.62,-125"/>
<polygon fill="#63b8ff" stroke="#63b8ff" points="1004.41,-128.5 1014.41,-125 1004.41,-121.5 1004.41,-128.5"/>
</g>
<!-- Node4 -->
<g id="node4" class="node">
<title>Node4</title>
<g id="a_node4"><a xlink:href="a00463.html#a176c58b25fb5cb545d17128d4535f921" target="_top" xlink:title=" ">
<polygon fill="white" stroke="#666666" points="819.5,-191 715,-191 715,-159 819.5,-159 819.5,-191"/>
<text xml:space="preserve" text-anchor="start" x="723" y="-177.5" font-family="Helvetica,sans-Serif" font-size="10.00">HF::GraphGenerator</text>
<text xml:space="preserve" text-anchor="middle" x="767.25" y="-165.5" font-family="Helvetica,sans-Serif" font-size="10.00">::CalculateStepType</text>
</a>
</g>
</g>
<!-- Node3&#45;&gt;Node4 -->
<g id="edge4" class="edge">
<title>Node3&#45;&gt;Node4</title>
<path fill="none" stroke="#63b8ff" d="M864.79,-144.59C849.9,-149.28 834.16,-154.24 819.8,-158.76"/>
<polygon fill="#63b8ff" stroke="#63b8ff" points="865.53,-148.03 874.01,-141.69 863.43,-141.35 865.53,-148.03"/>
</g>
<!-- Node8 -->
<g id="node8" class="node">
<title>Node8</title>
<g id="a_node8"><a xlink:href="a00463.html#a5d2ad6de2131b1a90a80f901ac8dd185" target="_top" xlink:title=" ">
<polygon fill="white" stroke="#666666" points="839.75,-141 694.75,-141 694.75,-109 839.75,-109 839.75,-141"/>
<text xml:space="preserve" text-anchor="start" x="702.75" y="-127.5" font-family="Helvetica,sans-Serif" font-size="10.00">HF::GraphGenerator</text>
<text xml:space="preserve" text-anchor="middle" x="767.25" y="-115.5" font-family="Helvetica,sans-Serif" font-size="10.00">::CompareCheckConnections</text>
</a>
</g>
</g>
<!-- Node3&#45;&gt;Node8 -->
<g id="edge8" class="edge">
<title>Node3&#45;&gt;Node8</title>
<path fill="none" stroke="#63b8ff" d="M864.08,-125C856.17,-125 848.04,-125 840.01,-125"/>
<polygon fill="#63b8ff" stroke="#63b8ff" points="863.94,-128.5 873.94,-125 863.94,-121.5 863.94,-128.5"/>
</g>
<!-- Node9 -->
<g id="node9" class="node">
<title>Node9</title>
<g id="a_node9"><a xlink:href="a00463.html#ab7ffcc7d6657ce276c06deed24c546a4" target="_top" xlink:title="Calculate all possible edges between parent and possible_children.">
<polygon fill="white" stroke="#666666" points="819.5,-91 715,-91 715,-59 819.5,-59 819.5,-91"/>
<text xml:space="preserve" text-anchor="start" x="723" y="-77.5" font-family="Helvetica,sans-Serif" font-size="10.00">HF::GraphGenerator</text>
<text xml:space="preserve" text-anchor="middle" x="767.25" y="-65.5" font-family="Helvetica,sans-Serif" font-size="10.00">::GetChildren</text>
</a>
</g>
</g>
<!-- Node3&#45;&gt;Node9 -->
<g id="edge9" class="edge">
<title>Node3&#45;&gt;Node9</title>
<path fill="none" stroke="#63b8ff" d="M864.79,-105.41C849.9,-100.72 834.16,-95.76 819.8,-91.24"/>
<polygon fill="#63b8ff" stroke="#63b8ff" points="863.43,-108.65 874.01,-108.31 865.53,-101.97 863.43,-108.65"/>
</g>
<!-- Node5 -->
<g id="node5" class="node">
<title>Node5</title>
<g id="a_node5"><a xlink:href="a00463.html#a0251caf5a32eb2c1f9d846d88eb7fe22" target="_top" xlink:title=" ">
<polygon fill="white" stroke="#666666" points="656.88,-235 511.88,-235 511.88,-203 656.88,-203 656.88,-235"/>
<text xml:space="preserve" text-anchor="start" x="519.88" y="-221.5" font-family="Helvetica,sans-Serif" font-size="10.00">HF::GraphGenerator</text>
<text xml:space="preserve" text-anchor="middle" x="584.38" y="-209.5" font-family="Helvetica,sans-Serif" font-size="10.00">::CalculateAndStoreStepType</text>
</a>
</g>
</g>
<!-- Node4&#45;&gt;Node5 -->
<g id="edge5" class="edge">
<title>Node4&#45;&gt;Node5</title>
<path fill="none" stroke="#63b8ff" d="M703.82,-190.19C687.44,-194.17 669.71,-198.48 653.08,-202.53"/>
<polygon fill="#63b8ff" stroke="#63b8ff" points="704.54,-193.61 713.43,-187.85 702.89,-186.81 704.54,-193.61"/>
</g>
<!-- Node6 -->
<g id="node6" class="node">
<title>Node6</title>
<g id="a_node6"><a xlink:href="a00454.html#gae7f55e49ba1992471430d0e3d415ebae" target="_top" xlink:title="Query the graph and identify the step types of all edges, adding them to the graph.">
<polygon fill="white" stroke="#666666" points="656.5,-185 512.25,-185 512.25,-165 656.5,-165 656.5,-185"/>
<text xml:space="preserve" text-anchor="middle" x="584.38" y="-171.5" font-family="Helvetica,sans-Serif" font-size="10.00">CalculateAndStoreStepTypes</text>
</a>
</g>
</g>
<!-- Node4&#45;&gt;Node6 -->
<g id="edge6" class="edge">
<title>Node4&#45;&gt;Node6</title>
<path fill="none" stroke="#63b8ff" d="M703.6,-175C688.5,-175 672.24,-175 656.77,-175"/>
<polygon fill="#63b8ff" stroke="#63b8ff" points="703.39,-178.5 713.39,-175 703.39,-171.5 703.39,-178.5"/>
</g>
<!-- Node7 -->
<g id="node7" class="node">
<title>Node7</title>
<g id="a_node7"><a xlink:href="a00463.html#a81398de53e151ae58b206523e555309e" target="_top" xlink:title=" ">
<polygon fill="white" stroke="#666666" points="636.62,-147 532.12,-147 532.12,-115 636.62,-115 636.62,-147"/>
<text xml:space="preserve" text-anchor="start" x="540.12" y="-133.5" font-family="Helvetica,sans-Serif" font-size="10.00">HF::GraphGenerator</text>
<text xml:space="preserve" text-anchor="middle" x="584.38" y="-121.5" font-family="Helvetica,sans-Serif" font-size="10.00">::CalculateStepType</text>
</a>
</g>
</g>
<!-- Node4&#45;&gt;Node7 -->
<g id="edge7" class="edge">
<title>Node4&#45;&gt;Node7</title>
<path fill="none" stroke="#63b8ff" d="M703.74,-159.79C681.91,-154.48 657.68,-148.59 636.85,-143.52"/>
<polygon fill="#63b8ff" stroke="#63b8ff" points="702.89,-163.19 713.43,-162.15 704.54,-156.39 702.89,-163.19"/>
</g>
<!-- Node10 -->
<g id="node10" class="node">
<title>Node10</title>
<g id="a_node10"><a xlink:href="a01311.html#ac7052d4b625fb96f29c5bfc091a86f7e" target="_top" xlink:title="Perform breadth first search to populate the graph with with nodes and edges.">
<polygon fill="white" stroke="#666666" points="658.75,-94 510,-94 510,-62 658.75,-62 658.75,-94"/>
<text xml:space="preserve" text-anchor="start" x="518" y="-80.5" font-family="Helvetica,sans-Serif" font-size="10.00">HF::GraphGenerator</text>
<text xml:space="preserve" text-anchor="middle" x="584.38" y="-68.5" font-family="Helvetica,sans-Serif" font-size="10.00">::GraphGenerator::CrawlGeom</text>
</a>
</g>
</g>
<!-- Node9&#45;&gt;Node10 -->
<g id="edge10" class="edge">
<title>Node9&#45;&gt;Node10</title>
<path fill="none" stroke="#63b8ff" d="M703.65,-76.04C689.29,-76.28 673.9,-76.53 659.13,-76.78"/>
<polygon fill="#63b8ff" stroke="#63b8ff" points="703.45,-79.54 713.39,-75.88 703.33,-72.54 703.45,-79.54"/>
</g>
<!-- Node15 -->
<g id="node15" class="node">
<title>Node15</title>
<g id="a_node15"><a xlink:href="a01311.html#a843cc6b5b69b5d013930b3685789fa15" target="_top" xlink:title="Perform breadth first search to populate the graph with nodes and edges using multiple cores.">
<polygon fill="white" stroke="#666666" points="658.75,-44 510,-44 510,0 658.75,0 658.75,-44"/>
<text xml:space="preserve" text-anchor="start" x="518" y="-30.5" font-family="Helvetica,sans-Serif" font-size="10.00">HF::GraphGenerator</text>
<text xml:space="preserve" text-anchor="start" x="518" y="-18.5" font-family="Helvetica,sans-Serif" font-size="10.00">::GraphGenerator::CrawlGeom</text>
<text xml:space="preserve" text-anchor="middle" x="584.38" y="-6.5" font-family="Helvetica,sans-Serif" font-size="10.00">Parallel</text>
</a>
</g>
</g>
<!-- Node9&#45;&gt;Node15 -->
<g id="edge15" class="edge">
<title>Node9&#45;&gt;Node15</title>
<path fill="none" stroke="#63b8ff" d="M704.07,-56.78C689.6,-52.54 674.05,-47.98 659.13,-43.61"/>
<polygon fill="#63b8ff" stroke="#63b8ff" points="702.87,-60.08 713.45,-59.53 704.84,-53.36 702.87,-60.08"/>
</g>
<!-- Node11 -->
<g id="node11" class="node">
<title>Node11</title>
<g id="a_node11"><a xlink:href="a01311.html#a5788e421d921ec0ff27defc139c45106" target="_top" xlink:title="Generate a graph of accessible space.">
<polygon fill="white" stroke="#666666" points="474,-72 353.75,-72 353.75,-28 474,-28 474,-72"/>
<text xml:space="preserve" text-anchor="start" x="361.75" y="-58.5" font-family="Helvetica,sans-Serif" font-size="10.00">HF::GraphGenerator</text>
<text xml:space="preserve" text-anchor="start" x="361.75" y="-46.5" font-family="Helvetica,sans-Serif" font-size="10.00">::GraphGenerator::IMPL</text>
<text xml:space="preserve" text-anchor="middle" x="413.88" y="-34.5" font-family="Helvetica,sans-Serif" font-size="10.00">_BuildNetwork</text>
</a>
</g>
</g>
<!-- Node10&#45;&gt;Node11 -->
<g id="edge11" class="edge">
<title>Node10&#45;&gt;Node11</title>
<path fill="none" stroke="#63b8ff" d="M498.76,-63.94C490.53,-62.57 482.3,-61.2 474.4,-59.89"/>
<polygon fill="#63b8ff" stroke="#63b8ff" points="498.03,-67.37 508.47,-65.55 499.17,-60.46 498.03,-67.37"/>
</g>
<!-- Node12 -->
<g id="node12" class="node">
<title>Node12</title>
<g id="a_node12"><a xlink:href="a01311.html#a0c12341433bbec41cc12cc1dbb41a976" target="_top" xlink:title="Generate a graph of accessible space.">
<polygon fill="white" stroke="#666666" points="317.75,-66 162.25,-66 162.25,-34 317.75,-34 317.75,-66"/>
<text xml:space="preserve" text-anchor="start" x="170.25" y="-52.5" font-family="Helvetica,sans-Serif" font-size="10.00">HF::GraphGenerator</text>
<text xml:space="preserve" text-anchor="middle" x="240" y="-40.5" font-family="Helvetica,sans-Serif" font-size="10.00">::GraphGenerator::BuildNetwork</text>
</a>
</g>
</g>
<!-- Node11&#45;&gt;Node12 -->
<g id="edge12" class="edge">
<title>Node11&#45;&gt;Node12</title>
<path fill="none" stroke="#63b8ff" d="M342.25,-50C334.31,-50 326.19,-50 318.17,-50"/>
<polygon fill="#63b8ff" stroke="#63b8ff" points="342.21,-53.5 352.21,-50 342.21,-46.5 342.21,-53.5"/>
</g>
<!-- Node13 -->
<g id="node13" class="node">
<title>Node13</title>
<g id="a_node13"><a xlink:href="a00454.html#ga2df84a732d1edfb70b7bd26d3282e129" target="_top" xlink:title="Construct a graph by performing a breadth&#45;first search of accessible space.">
<polygon fill="white" stroke="#666666" points="104.12,-79 22.12,-79 22.12,-59 104.12,-59 104.12,-79"/>
<text xml:space="preserve" text-anchor="middle" x="63.12" y="-65.5" font-family="Helvetica,sans-Serif" font-size="10.00">GenerateGraph</text>
</a>
</g>
</g>
<!-- Node12&#45;&gt;Node13 -->
<g id="edge13" class="edge">
<title>Node12&#45;&gt;Node13</title>
<path fill="none" stroke="#63b8ff" d="M150.62,-59.6C134.47,-61.36 118.36,-63.11 104.49,-64.61"/>
<polygon fill="#63b8ff" stroke="#63b8ff" points="150.72,-63.11 160.28,-58.55 149.96,-56.15 150.72,-63.11"/>
</g>
<!-- Node14 -->
<g id="node14" class="node">
<title>Node14</title>
<g id="a_node14"><a xlink:href="a00454.html#gab9f58e3ecc686fa9bc34519b0faed734" target="_top" xlink:title="Construct a graph by performing a breadth&#45;first search of accessible space, seperating obstacles from...">
<polygon fill="white" stroke="#666666" points="126.25,-41 0,-41 0,-21 126.25,-21 126.25,-41"/>
<text xml:space="preserve" text-anchor="middle" x="63.12" y="-27.5" font-family="Helvetica,sans-Serif" font-size="10.00">GenerateGraphObstacles</text>
</a>
</g>
</g>
<!-- Node12&#45;&gt;Node14 -->
<g id="edge14" class="edge">
<title>Node12&#45;&gt;Node14</title>
<path fill="none" stroke="#63b8ff" d="M150.4,-40.37C142.33,-39.5 134.27,-38.62 126.5,-37.78"/>
<polygon fill="#63b8ff" stroke="#63b8ff" points="149.96,-43.85 160.28,-41.45 150.72,-36.89 149.96,-43.85"/>
</g>
<!-- Node15&#45;&gt;Node11 -->
<g id="edge16" class="edge">
<title>Node15&#45;&gt;Node11</title>
<path fill="none" stroke="#63b8ff" d="M498.76,-36.06C490.53,-37.43 482.3,-38.8 474.4,-40.11"/>
<polygon fill="#63b8ff" stroke="#63b8ff" points="499.17,-39.54 508.47,-34.45 498.03,-32.63 499.17,-39.54"/>
</g>
</g>
</svg>
