<?xml version="1.0" encoding="UTF-8" standalone="no"?>
<!DOCTYPE svg PUBLIC "-//W3C//DTD SVG 1.1//EN"
 "http://www.w3.org/Graphics/SVG/1.1/DTD/svg11.dtd">
<!-- Generated by graphviz version 13.1.2 (20250808.2320)
 -->
<!-- Title: HF::RayTracer::EmbreeRayTracer::IntersectOutputArguments Pages: 1 -->
<svg width="330pt" height="66pt"
 viewBox="0.00 0.00 330.00 66.00" xmlns="http://www.w3.org/2000/svg" xmlns:xlink="http://www.w3.org/1999/xlink">
<g id="graph0" class="graph" transform="scale(1 1) rotate(0) translate(4 62)">
<title>HF::RayTracer::EmbreeRayTracer::IntersectOutputArguments</title>
<!-- Node1 -->
<g id="node1" class="node">
<title>Node1</title>
<g id="a_node1"><a xlink:title="Cast a ray from origin in direction and update the parameters instead of returning a hitstruct.">
<polygon fill="#999999" stroke="#666666" points="321.5,-45 157,-45 157,-13 321.5,-13 321.5,-45"/>
<text xml:space="preserve" text-anchor="start" x="165" y="-31.5" font-family="Helvetica,sans-Serif" font-size="10.00">HF::RayTracer::EmbreeRay</text>
<text xml:space="preserve" text-anchor="middle" x="239.25" y="-19.5" font-family="Helvetica,sans-Serif" font-size="10.00">Tracer::IntersectOutputArguments</text>
</a>
</g>
</g>
<!-- Node2 -->
<g id="node2" class="node">
<title>Node2</title>
<g id="a_node2"><a xlink:href="a00457.html#ga81a505c14bba3bed1515384b209b3422" target="_top" xlink:title="Cast rays for each node in origins/directions as ordered pairs and get distance back as a result.">
<polygon fill="white" stroke="#666666" points="110.12,-58 10.88,-58 10.88,-38 110.12,-38 110.12,-58"/>
<text xml:space="preserve" text-anchor="middle" x="60.5" y="-44.5" font-family="Helvetica,sans-Serif" font-size="10.00">CastRaysDistance</text>
</a>
</g>
</g>
<!-- Node1&#45;&gt;Node2 -->
<g id="edge1" class="edge">
<title>Node1&#45;&gt;Node2</title>
<path fill="none" stroke="#63b8ff" d="M145.51,-38.97C133.45,-40.27 121.49,-41.55 110.54,-42.73"/>
<polygon fill="#63b8ff" stroke="#63b8ff" points="145.53,-42.49 155.1,-37.94 144.78,-35.53 145.53,-42.49"/>
</g>
<!-- Node3 -->
<g id="node3" class="node">
<title>Node3</title>
<g id="a_node3"><a xlink:href="a00457.html#ga1377ba0807c3141ef68b1c94682853e6" target="_top" xlink:title="Cast a single ray and get the distance to its hit and the mesh ID if it hit anything....">
<polygon fill="white" stroke="#666666" points="121,-20 0,-20 0,0 121,0 121,-20"/>
<text xml:space="preserve" text-anchor="middle" x="60.5" y="-6.5" font-family="Helvetica,sans-Serif" font-size="10.00">CastSingleRayDistance</text>
</a>
</g>
</g>
<!-- Node1&#45;&gt;Node3 -->
<g id="edge2" class="edge">
<title>Node1&#45;&gt;Node3</title>
<path fill="none" stroke="#63b8ff" d="M145.19,-19C137.13,-18.13 129.12,-17.27 121.43,-16.44"/>
<polygon fill="#63b8ff" stroke="#63b8ff" points="144.78,-22.47 155.1,-20.06 145.53,-15.51 144.78,-22.47"/>
</g>
</g>
</svg>
