<?xml version="1.0" encoding="UTF-8" standalone="no"?>
<!DOCTYPE svg PUBLIC "-//W3C//DTD SVG 1.1//EN"
 "http://www.w3.org/Graphics/SVG/1.1/DTD/svg11.dtd">
<!-- Generated by graphviz version 13.1.2 (20250808.2320)
 -->
<!-- Title: HF::RayTracer::EmbreeRayTracer::Intersect Pages: 1 -->
<svg width="709pt" height="156pt"
 viewBox="0.00 0.00 709.00 156.00" xmlns="http://www.w3.org/2000/svg" xmlns:xlink="http://www.w3.org/1999/xlink">
<g id="graph0" class="graph" transform="scale(1 1) rotate(0) translate(4 152)">
<title>HF::RayTracer::EmbreeRayTracer::Intersect</title>
<!-- Node1 -->
<g id="node1" class="node">
<title>Node1</title>
<g id="a_node1"><a xlink:title="Cast a ray from origin in direction.">
<polygon fill="#999999" stroke="#666666" points="139,-76 0,-76 0,-44 139,-44 139,-76"/>
<text xml:space="preserve" text-anchor="start" x="8" y="-62.5" font-family="Helvetica,sans-Serif" font-size="10.00">HF::RayTracer::EmbreeRay</text>
<text xml:space="preserve" text-anchor="middle" x="69.5" y="-50.5" font-family="Helvetica,sans-Serif" font-size="10.00">Tracer::Intersect</text>
</a>
</g>
</g>
<!-- Node2 -->
<g id="node2" class="node">
<title>Node2</title>
<g id="a_node2"><a xlink:href="a01411.html#a28032c693ac330c5b11bc2a877b04c75" target="_top" xlink:title="Calculate the distance from origin to the point of intersection using an algorithm with higher precis...">
<polygon fill="white" stroke="#666666" points="338,-120 175,-120 175,-88 338,-88 338,-120"/>
<text xml:space="preserve" text-anchor="start" x="183" y="-106.5" font-family="Helvetica,sans-Serif" font-size="10.00">HF::RayTracer::EmbreeRay</text>
<text xml:space="preserve" text-anchor="middle" x="256.5" y="-94.5" font-family="Helvetica,sans-Serif" font-size="10.00">Tracer::CalculatePreciseDistance</text>
</a>
</g>
</g>
<!-- Node1&#45;&gt;Node2 -->
<g id="edge1" class="edge">
<title>Node1&#45;&gt;Node2</title>
<path fill="none" stroke="#63b8ff" d="M139.39,-76.38C151.11,-79.17 163.37,-82.09 175.35,-84.94"/>
<polygon fill="#63b8ff" stroke="#63b8ff" points="174.24,-88.27 184.77,-87.18 175.86,-81.46 174.24,-88.27"/>
</g>
<!-- Node8 -->
<g id="node8" class="node">
<title>Node8</title>
<g id="a_node8"><a xlink:href="a00464.html#a2630761a64fac02a4ee33abaf5c885a1" target="_top" xlink:title=" ">
<polygon fill="white" stroke="#666666" points="326.75,-70 186.25,-70 186.25,-50 326.75,-50 326.75,-70"/>
<text xml:space="preserve" text-anchor="middle" x="256.5" y="-56.5" font-family="Helvetica,sans-Serif" font-size="10.00">HF::RayTracer::DidIntersect</text>
</a>
</g>
</g>
<!-- Node1&#45;&gt;Node8 -->
<g id="edge7" class="edge">
<title>Node1&#45;&gt;Node8</title>
<path fill="none" stroke="#63b8ff" d="M139.39,-60C150.91,-60 162.95,-60 174.74,-60"/>
<polygon fill="#63b8ff" stroke="#63b8ff" points="174.42,-63.5 184.42,-60 174.42,-56.5 174.42,-63.5"/>
</g>
<!-- Node9 -->
<g id="node9" class="node">
<title>Node9</title>
<g id="a_node9"><a xlink:href="a01411.html#ae3341adf12ae91e33f1188a434d8e28d" target="_top" xlink:title="Implementation for fundamental ray intersection.">
<polygon fill="white" stroke="#666666" points="326,-32 187,-32 187,0 326,0 326,-32"/>
<text xml:space="preserve" text-anchor="start" x="195" y="-18.5" font-family="Helvetica,sans-Serif" font-size="10.00">HF::RayTracer::EmbreeRay</text>
<text xml:space="preserve" text-anchor="middle" x="256.5" y="-6.5" font-family="Helvetica,sans-Serif" font-size="10.00">Tracer::Intersect_IMPL</text>
</a>
</g>
</g>
<!-- Node1&#45;&gt;Node9 -->
<g id="edge8" class="edge">
<title>Node1&#45;&gt;Node9</title>
<path fill="none" stroke="#63b8ff" d="M139.39,-43.62C151.19,-40.81 163.53,-37.87 175.59,-35.01"/>
<polygon fill="#63b8ff" stroke="#63b8ff" points="176.16,-38.47 185.08,-32.75 174.54,-31.66 176.16,-38.47"/>
</g>
<!-- Node3 -->
<g id="node3" class="node">
<title>Node3</title>
<g id="a_node3"><a xlink:href="a01411.html#a619072a17db71253fc9ce3bdf1ba1920" target="_top" xlink:title="Get the vertices for a specific triangle in a mesh.">
<polygon fill="white" stroke="#666666" points="514.88,-148 375.88,-148 375.88,-116 514.88,-116 514.88,-148"/>
<text xml:space="preserve" text-anchor="start" x="383.88" y="-134.5" font-family="Helvetica,sans-Serif" font-size="10.00">HF::RayTracer::EmbreeRay</text>
<text xml:space="preserve" text-anchor="middle" x="445.38" y="-122.5" font-family="Helvetica,sans-Serif" font-size="10.00">Tracer::GetTriangle</text>
</a>
</g>
</g>
<!-- Node2&#45;&gt;Node3 -->
<g id="edge2" class="edge">
<title>Node2&#45;&gt;Node3</title>
<path fill="none" stroke="#63b8ff" d="M338.38,-116.12C346.95,-117.4 355.67,-118.71 364.23,-119.99"/>
<polygon fill="#63b8ff" stroke="#63b8ff" points="363.48,-123.42 373.88,-121.44 364.51,-116.5 363.48,-123.42"/>
</g>
<!-- Node5 -->
<g id="node5" class="node">
<title>Node5</title>
<g id="a_node5"><a xlink:href="a00464.html#a9498ae7ffabd8c5bca4026374ac862e9" target="_top" xlink:title="Determine the distance between a ray&#39;s origin and it&#39;s point of intersection with a triangle.">
<polygon fill="white" stroke="#666666" points="515.25,-98 375.5,-98 375.5,-66 515.25,-66 515.25,-98"/>
<text xml:space="preserve" text-anchor="start" x="383.5" y="-84.5" font-family="Helvetica,sans-Serif" font-size="10.00">HF::RayTracer::RayTriangle</text>
<text xml:space="preserve" text-anchor="middle" x="445.38" y="-72.5" font-family="Helvetica,sans-Serif" font-size="10.00">Intersection</text>
</a>
</g>
</g>
<!-- Node2&#45;&gt;Node5 -->
<g id="edge4" class="edge">
<title>Node2&#45;&gt;Node5</title>
<path fill="none" stroke="#63b8ff" d="M338.38,-94.48C346.79,-93.49 355.34,-92.48 363.74,-91.49"/>
<polygon fill="#63b8ff" stroke="#63b8ff" points="364.07,-94.98 373.59,-90.33 363.25,-88.03 364.07,-94.98"/>
</g>
<!-- Node4 -->
<g id="node4" class="node">
<title>Node4</title>
<g id="a_node4"><a xlink:href="a00464.html#a6e20c473674ea46f649ef827818841d2" target="_top" xlink:title=" ">
<polygon fill="white" stroke="#666666" points="700.75,-148 552.75,-148 552.75,-116 700.75,-116 700.75,-148"/>
<text xml:space="preserve" text-anchor="start" x="560.75" y="-134.5" font-family="Helvetica,sans-Serif" font-size="10.00">HF::RayTracer::GetPointFrom</text>
<text xml:space="preserve" text-anchor="middle" x="626.75" y="-122.5" font-family="Helvetica,sans-Serif" font-size="10.00">Buffer</text>
</a>
</g>
</g>
<!-- Node3&#45;&gt;Node4 -->
<g id="edge3" class="edge">
<title>Node3&#45;&gt;Node4</title>
<path fill="none" stroke="#63b8ff" d="M515.21,-132C523.66,-132 532.37,-132 541.02,-132"/>
<polygon fill="#63b8ff" stroke="#63b8ff" points="540.82,-135.5 550.82,-132 540.82,-128.5 540.82,-135.5"/>
</g>
<!-- Node6 -->
<g id="node6" class="node">
<title>Node6</title>
<g id="a_node6"><a xlink:href="a00464.html#a16f9f26b0140f023ce820ec55e38c66b" target="_top" xlink:title=" ">
<polygon fill="white" stroke="#666666" points="682.38,-95 571.12,-95 571.12,-75 682.38,-75 682.38,-95"/>
<text xml:space="preserve" text-anchor="middle" x="626.75" y="-81.5" font-family="Helvetica,sans-Serif" font-size="10.00">HF::RayTracer::cross</text>
</a>
</g>
</g>
<!-- Node5&#45;&gt;Node6 -->
<g id="edge5" class="edge">
<title>Node5&#45;&gt;Node6</title>
<path fill="none" stroke="#63b8ff" d="M515.73,-83.16C530.12,-83.4 545.25,-83.65 559.52,-83.89"/>
<polygon fill="#63b8ff" stroke="#63b8ff" points="559.19,-87.39 569.24,-84.05 559.3,-80.39 559.19,-87.39"/>
</g>
<!-- Node7 -->
<g id="node7" class="node">
<title>Node7</title>
<g id="a_node7"><a xlink:href="a00464.html#ae551c109488ce94d0a568712b50da689" target="_top" xlink:title=" ">
<polygon fill="white" stroke="#666666" points="677.12,-57 576.38,-57 576.38,-37 677.12,-37 677.12,-57"/>
<text xml:space="preserve" text-anchor="middle" x="626.75" y="-43.5" font-family="Helvetica,sans-Serif" font-size="10.00">HF::RayTracer::dot</text>
</a>
</g>
</g>
<!-- Node5&#45;&gt;Node7 -->
<g id="edge6" class="edge">
<title>Node5&#45;&gt;Node7</title>
<path fill="none" stroke="#63b8ff" d="M515.73,-68.47C531.91,-65.31 549.03,-61.97 564.81,-58.89"/>
<polygon fill="#63b8ff" stroke="#63b8ff" points="565.41,-62.34 574.56,-56.99 564.07,-55.47 565.41,-62.34"/>
</g>
<!-- Node10 -->
<g id="node10" class="node">
<title>Node10</title>
<g id="a_node10"><a xlink:href="a00464.html#a864ebcf0023de27e610ee897de5436c2" target="_top" xlink:title=" ">
<polygon fill="white" stroke="#666666" points="516.75,-26 374,-26 374,-6 516.75,-6 516.75,-26"/>
<text xml:space="preserve" text-anchor="middle" x="445.38" y="-12.5" font-family="Helvetica,sans-Serif" font-size="10.00">HF::RayTracer::ConstructHit</text>
</a>
</g>
</g>
<!-- Node9&#45;&gt;Node10 -->
<g id="edge9" class="edge">
<title>Node9&#45;&gt;Node10</title>
<path fill="none" stroke="#63b8ff" d="M326.29,-16C337.96,-16 350.19,-16 362.16,-16"/>
<polygon fill="#63b8ff" stroke="#63b8ff" points="362.03,-19.5 372.03,-16 362.03,-12.5 362.03,-19.5"/>
</g>
</g>
</svg>
