<?xml version="1.0" encoding="UTF-8" standalone="no"?>
<!DOCTYPE svg PUBLIC "-//W3C//DTD SVG 1.1//EN"
 "http://www.w3.org/Graphics/SVG/1.1/DTD/svg11.dtd">
<!-- Generated by graphviz version 13.1.2 (20250808.2320)
 -->
<!-- Title: nanort::BVHBuildOptions&lt; T &gt; Pages: 1 -->
<svg width="329pt" height="156pt"
 viewBox="0.00 0.00 329.00 156.00" xmlns="http://www.w3.org/2000/svg" xmlns:xlink="http://www.w3.org/1999/xlink">
<g id="graph0" class="graph" transform="scale(1 1) rotate(0) translate(4 152)">
<title>nanort::BVHBuildOptions&lt; T &gt;</title>
<!-- Node1 -->
<g id="node1" class="node">
<title>Node1</title>
<g id="a_node1"><a xlink:title="BVH build option.">
<polygon fill="#999999" stroke="#666666" points="223.75,-20 75,-20 75,0 223.75,0 223.75,-20"/>
<text xml:space="preserve" text-anchor="middle" x="149.38" y="-6.5" font-family="Helvetica,sans-Serif" font-size="10.00">nanort::BVHBuildOptions&lt; T &gt;</text>
</a>
</g>
</g>
<!-- Node2 -->
<g id="node2" class="node">
<title>Node2</title>
<g id="a_node2"><a xlink:title=" ">
<polygon fill="white" stroke="#666666" points="34.75,-148 0,-148 0,-128 34.75,-128 34.75,-148"/>
<text xml:space="preserve" text-anchor="middle" x="17.38" y="-134.5" font-family="Helvetica,sans-Serif" font-size="10.00">float</text>
</a>
</g>
</g>
<!-- Node2&#45;&gt;Node1 -->
<g id="edge1" class="edge">
<title>Node2&#45;&gt;Node1</title>
<path fill="none" stroke="#9a32cd" stroke-dasharray="5,2" d="M12.81,-116.65C9.13,-94.51 7.27,-59.43 26.12,-38 33.22,-29.94 52.94,-24.1 74.58,-19.95"/>
<polygon fill="#9a32cd" stroke="#9a32cd" points="9.33,-117.09 14.69,-126.23 16.2,-115.74 9.33,-117.09"/>
<text xml:space="preserve" text-anchor="middle" x="54.25" y="-70.5" font-family="Helvetica,sans-Serif" font-size="10.00"> cost_t_aabb</text>
</g>
<!-- Node3 -->
<g id="node3" class="node">
<title>Node3</title>
<g id="a_node3"><a xlink:title=" ">
<polygon fill="white" stroke="#666666" points="110.78,-148 81.97,-148 81.97,-128 110.78,-128 110.78,-148"/>
<text xml:space="preserve" text-anchor="middle" x="96.38" y="-134.5" font-family="Helvetica,sans-Serif" font-size="10.00">int</text>
</a>
</g>
</g>
<!-- Node3&#45;&gt;Node1 -->
<g id="edge2" class="edge">
<title>Node3&#45;&gt;Node1</title>
<path fill="none" stroke="#9a32cd" stroke-dasharray="5,2" d="M90.87,-116.75C86.31,-95.48 82.71,-61.87 97.38,-38 102.17,-30.2 110.02,-24.55 118.18,-20.5"/>
<polygon fill="#9a32cd" stroke="#9a32cd" points="87.4,-117.32 93.17,-126.21 94.21,-115.67 87.4,-117.32"/>
<text xml:space="preserve" text-anchor="middle" x="139.38" y="-100.5" font-family="Helvetica,sans-Serif" font-size="10.00"> bin_size</text>
<text xml:space="preserve" text-anchor="middle" x="139.38" y="-88.5" font-family="Helvetica,sans-Serif" font-size="10.00">max_tree_depth</text>
<text xml:space="preserve" text-anchor="middle" x="139.38" y="-76.5" font-family="Helvetica,sans-Serif" font-size="10.00">min_leaf_primitives</text>
<text xml:space="preserve" text-anchor="start" x="97.38" y="-64.5" font-family="Helvetica,sans-Serif" font-size="10.00">min_primitives_for</text>
<text xml:space="preserve" text-anchor="middle" x="139.38" y="-52.5" font-family="Helvetica,sans-Serif" font-size="10.00">_parallel_build</text>
<text xml:space="preserve" text-anchor="middle" x="139.38" y="-40.5" font-family="Helvetica,sans-Serif" font-size="10.00">shallow_depth</text>
</g>
<!-- Node4 -->
<g id="node4" class="node">
<title>Node4</title>
<g id="a_node4"><a xlink:title=" ">
<polygon fill="white" stroke="#666666" points="220.38,-148 186.38,-148 186.38,-128 220.38,-128 220.38,-148"/>
<text xml:space="preserve" text-anchor="middle" x="203.38" y="-134.5" font-family="Helvetica,sans-Serif" font-size="10.00">bool</text>
</a>
</g>
</g>
<!-- Node4&#45;&gt;Node1 -->
<g id="edge3" class="edge">
<title>Node4&#45;&gt;Node1</title>
<path fill="none" stroke="#9a32cd" stroke-dasharray="5,2" d="M202.59,-116.1C200.95,-95.01 196.02,-62.2 181.38,-38 177.16,-31.04 170.51,-25 164.36,-20.41"/>
<polygon fill="#9a32cd" stroke="#9a32cd" points="199.09,-116.24 203.15,-126.02 206.08,-115.84 199.09,-116.24"/>
<text xml:space="preserve" text-anchor="middle" x="229.69" y="-70.5" font-family="Helvetica,sans-Serif" font-size="10.00"> cache_bbox</text>
</g>
<!-- Node5 -->
<g id="node5" class="node">
<title>Node5</title>
<g id="a_node5"><a xlink:title=" ">
<polygon fill="white" stroke="#666666" points="320.75,-148 244,-148 244,-128 320.75,-128 320.75,-148"/>
<text xml:space="preserve" text-anchor="middle" x="282.38" y="-134.5" font-family="Helvetica,sans-Serif" font-size="10.00">unsigned char</text>
</a>
</g>
</g>
<!-- Node5&#45;&gt;Node1 -->
<g id="edge4" class="edge">
<title>Node5&#45;&gt;Node1</title>
<path fill="none" stroke="#9a32cd" stroke-dasharray="5,2" d="M283.72,-116.1C283.96,-93.74 280.67,-58.71 260.38,-38 253.16,-30.64 233.48,-24.8 212.67,-20.46"/>
<polygon fill="#9a32cd" stroke="#9a32cd" points="280.23,-115.96 283.34,-126.08 287.22,-116.23 280.23,-115.96"/>
<text xml:space="preserve" text-anchor="middle" x="293.05" y="-70.5" font-family="Helvetica,sans-Serif" font-size="10.00"> pad</text>
</g>
</g>
</svg>
