<?xml version="1.0" encoding="UTF-8" standalone="no"?>
<!DOCTYPE svg PUBLIC "-//W3C//DTD SVG 1.1//EN"
 "http://www.w3.org/Graphics/SVG/1.1/DTD/svg11.dtd">
<!-- Generated by graphviz version 13.1.2 (20250808.2320)
 -->
<!-- Title: nanort::real3::operator* Pages: 1 -->
<svg width="256pt" height="142pt"
 viewBox="0.00 0.00 256.00 142.00" xmlns="http://www.w3.org/2000/svg" xmlns:xlink="http://www.w3.org/1999/xlink">
<g id="graph0" class="graph" transform="scale(1 1) rotate(0) translate(4 138)">
<title>nanort::real3::operator*</title>
<!-- Node1 -->
<g id="node1" class="node">
<title>Node1</title>
<g id="a_node1"><a xlink:title=" ">
<polygon fill="#999999" stroke="#666666" points="115,-77 0,-77 0,-57 115,-57 115,-77"/>
<text xml:space="preserve" text-anchor="middle" x="57.5" y="-63.5" font-family="Helvetica,sans-Serif" font-size="10.00">nanort::real3::operator*</text>
</a>
</g>
</g>
<!-- Node2 -->
<g id="node2" class="node">
<title>Node2</title>
<g id="a_node2"><a xlink:href="a01443.html#a0ae6f0e4cb138da0359e18103ce609b8" target="_top" xlink:title=" ">
<polygon fill="white" stroke="#666666" points="248,-134 151,-134 151,-114 248,-114 248,-134"/>
<text xml:space="preserve" text-anchor="middle" x="199.5" y="-120.5" font-family="Helvetica,sans-Serif" font-size="10.00">nanort::real3::real3</text>
</a>
</g>
</g>
<!-- Node1&#45;&gt;Node2 -->
<g id="edge1" class="edge">
<title>Node1&#45;&gt;Node2</title>
<path fill="none" stroke="#63b8ff" d="M83.6,-77.39C102.19,-85.06 128.15,-95.74 151,-105 154.57,-106.45 158.28,-107.95 162,-109.44"/>
<polygon fill="#63b8ff" stroke="#63b8ff" points="160.36,-112.55 170.94,-113.03 162.97,-106.06 160.36,-112.55"/>
</g>
<!-- Node3 -->
<g id="node3" class="node">
<title>Node3</title>
<g id="a_node3"><a xlink:href="a01443.html#a245ee0e429d5695c33ea29ccbe1792ec" target="_top" xlink:title=" ">
<polygon fill="white" stroke="#666666" points="240.12,-96 158.88,-96 158.88,-76 240.12,-76 240.12,-96"/>
<text xml:space="preserve" text-anchor="middle" x="199.5" y="-82.5" font-family="Helvetica,sans-Serif" font-size="10.00">nanort::real3::x</text>
</a>
</g>
</g>
<!-- Node1&#45;&gt;Node3 -->
<g id="edge2" class="edge">
<title>Node1&#45;&gt;Node3</title>
<path fill="none" stroke="#63b8ff" d="M115.44,-74.73C126,-76.16 136.98,-77.65 147.35,-79.06"/>
<polygon fill="#63b8ff" stroke="#63b8ff" points="146.88,-82.53 157.26,-80.4 147.82,-75.59 146.88,-82.53"/>
</g>
<!-- Node4 -->
<g id="node4" class="node">
<title>Node4</title>
<g id="a_node4"><a xlink:href="a01443.html#af92059bf1d44c9bf67c90ca2d46be17e" target="_top" xlink:title=" ">
<polygon fill="white" stroke="#666666" points="240.12,-58 158.88,-58 158.88,-38 240.12,-38 240.12,-58"/>
<text xml:space="preserve" text-anchor="middle" x="199.5" y="-44.5" font-family="Helvetica,sans-Serif" font-size="10.00">nanort::real3::y</text>
</a>
</g>
</g>
<!-- Node1&#45;&gt;Node4 -->
<g id="edge3" class="edge">
<title>Node1&#45;&gt;Node4</title>
<path fill="none" stroke="#63b8ff" d="M115.44,-59.27C126,-57.84 136.98,-56.35 147.35,-54.94"/>
<polygon fill="#63b8ff" stroke="#63b8ff" points="147.82,-58.41 157.26,-53.6 146.88,-51.47 147.82,-58.41"/>
</g>
<!-- Node5 -->
<g id="node5" class="node">
<title>Node5</title>
<g id="a_node5"><a xlink:href="a01443.html#a96d4a74ac8a453a85c5661d38d3003d1" target="_top" xlink:title=" ">
<polygon fill="white" stroke="#666666" points="240.12,-20 158.88,-20 158.88,0 240.12,0 240.12,-20"/>
<text xml:space="preserve" text-anchor="middle" x="199.5" y="-6.5" font-family="Helvetica,sans-Serif" font-size="10.00">nanort::real3::z</text>
</a>
</g>
</g>
<!-- Node1&#45;&gt;Node5 -->
<g id="edge4" class="edge">
<title>Node1&#45;&gt;Node5</title>
<path fill="none" stroke="#63b8ff" d="M83.6,-56.61C102.19,-48.94 128.15,-38.26 151,-29 154.57,-27.55 158.28,-26.05 162,-24.56"/>
<polygon fill="#63b8ff" stroke="#63b8ff" points="162.97,-27.94 170.94,-20.97 160.36,-21.45 162.97,-27.94"/>
</g>
</g>
</svg>
