<?xml version="1.0" encoding="UTF-8" standalone="no"?>
<!DOCTYPE svg PUBLIC "-//W3C//DTD SVG 1.1//EN"
 "http://www.w3.org/Graphics/SVG/1.1/DTD/svg11.dtd">
<!-- Generated by graphviz version 13.1.2 (20250808.2320)
 -->
<!-- Title: HF::RayTracer::EmbreeRayTracer::AddMesh Pages: 1 -->
<svg width="322pt" height="166pt"
 viewBox="0.00 0.00 322.00 166.00" xmlns="http://www.w3.org/2000/svg" xmlns:xlink="http://www.w3.org/1999/xlink">
<g id="graph0" class="graph" transform="scale(1 1) rotate(0) translate(4 162)">
<title>HF::RayTracer::EmbreeRayTracer::AddMesh</title>
<!-- Node1 -->
<g id="node1" class="node">
<title>Node1</title>
<g id="a_node1"><a xlink:title="Add a new mesh to this raytracer&#39;s BVH with the specified ID.">
<polygon fill="#999999" stroke="#666666" points="314,-92 175,-92 175,-60 314,-60 314,-92"/>
<text xml:space="preserve" text-anchor="start" x="183" y="-78.5" font-family="Helvetica,sans-Serif" font-size="10.00">HF::RayTracer::EmbreeRay</text>
<text xml:space="preserve" text-anchor="middle" x="244.5" y="-66.5" font-family="Helvetica,sans-Serif" font-size="10.00">Tracer::AddMesh</text>
</a>
</g>
</g>
<!-- Node2 -->
<g id="node2" class="node">
<title>Node2</title>
<g id="a_node2"><a xlink:href="a01411.html#a0a3fa22a253ce3a7738f01286c11f589" target="_top" xlink:title="Create a new EmbreeRayTracer and add a single mesh to the scene.">
<polygon fill="white" stroke="#666666" points="139,-158 0,-158 0,-126 139,-126 139,-158"/>
<text xml:space="preserve" text-anchor="start" x="8" y="-144.5" font-family="Helvetica,sans-Serif" font-size="10.00">HF::RayTracer::EmbreeRay</text>
<text xml:space="preserve" text-anchor="middle" x="69.5" y="-132.5" font-family="Helvetica,sans-Serif" font-size="10.00">Tracer::EmbreeRayTracer</text>
</a>
</g>
</g>
<!-- Node1&#45;&gt;Node2 -->
<g id="edge1" class="edge">
<title>Node1&#45;&gt;Node2</title>
<path fill="none" stroke="#63b8ff" d="M191.46,-96.7C174.74,-103.27 156.12,-110.52 139,-117 131.54,-119.82 123.6,-122.77 115.88,-125.61"/>
<polygon fill="#63b8ff" stroke="#63b8ff" points="192.71,-99.97 200.73,-93.04 190.15,-93.46 192.71,-99.97"/>
</g>
<!-- Node3 -->
<g id="node3" class="node">
<title>Node3</title>
<g id="a_node3"><a xlink:href="a00457.html#ga7f80c3aff3b2a8a28794830913ef2a36" target="_top" xlink:title="Add a new mesh to a raytracer.">
<polygon fill="white" stroke="#666666" points="98.12,-108 40.88,-108 40.88,-88 98.12,-88 98.12,-108"/>
<text xml:space="preserve" text-anchor="middle" x="69.5" y="-94.5" font-family="Helvetica,sans-Serif" font-size="10.00">AddMesh</text>
</a>
</g>
</g>
<!-- Node1&#45;&gt;Node3 -->
<g id="edge2" class="edge">
<title>Node1&#45;&gt;Node3</title>
<path fill="none" stroke="#63b8ff" d="M163.31,-86.2C140.1,-89.15 116.27,-92.18 98.57,-94.43"/>
<polygon fill="#63b8ff" stroke="#63b8ff" points="163.65,-89.68 173.13,-84.95 162.77,-82.74 163.65,-89.68"/>
</g>
<!-- Node4 -->
<g id="node4" class="node">
<title>Node4</title>
<g id="a_node4"><a xlink:href="a01411.html#a3d478f577e30d1b437421224134b5a38" target="_top" xlink:title="Add several new meshes to the BVH.">
<polygon fill="white" stroke="#666666" points="139,-70 0,-70 0,-38 139,-38 139,-70"/>
<text xml:space="preserve" text-anchor="start" x="8" y="-56.5" font-family="Helvetica,sans-Serif" font-size="10.00">HF::RayTracer::EmbreeRay</text>
<text xml:space="preserve" text-anchor="middle" x="69.5" y="-44.5" font-family="Helvetica,sans-Serif" font-size="10.00">Tracer::AddMesh</text>
</a>
</g>
</g>
<!-- Node1&#45;&gt;Node4 -->
<g id="edge3" class="edge">
<title>Node1&#45;&gt;Node4</title>
<path fill="none" stroke="#63b8ff" d="M163.38,-65.81C155.38,-64.79 147.3,-63.77 139.42,-62.76"/>
<polygon fill="#63b8ff" stroke="#63b8ff" points="162.77,-69.26 173.13,-67.05 163.65,-62.32 162.77,-69.26"/>
</g>
<!-- Node5 -->
<g id="node5" class="node">
<title>Node5</title>
<g id="a_node5"><a xlink:href="a00457.html#ga06215cb24d54f979920f6022af214a00" target="_top" xlink:title="Add a new mesh to a raytracer.">
<polygon fill="white" stroke="#666666" points="103.38,-20 35.62,-20 35.62,0 103.38,0 103.38,-20"/>
<text xml:space="preserve" text-anchor="middle" x="69.5" y="-6.5" font-family="Helvetica,sans-Serif" font-size="10.00">AddMeshes</text>
</a>
</g>
</g>
<!-- Node1&#45;&gt;Node5 -->
<g id="edge4" class="edge">
<title>Node1&#45;&gt;Node5</title>
<path fill="none" stroke="#63b8ff" d="M200.39,-54.83C181.78,-46.16 159.58,-36.43 139,-29 127.62,-24.89 114.92,-21.14 103.57,-18.08"/>
<polygon fill="#63b8ff" stroke="#63b8ff" points="198.71,-57.91 209.25,-59.01 201.7,-51.58 198.71,-57.91"/>
</g>
</g>
</svg>
