<?xml version="1.0" encoding="UTF-8" standalone="no"?>
<!DOCTYPE svg PUBLIC "-//W3C//DTD SVG 1.1//EN"
 "http://www.w3.org/Graphics/SVG/1.1/DTD/svg11.dtd">
<!-- Generated by graphviz version 13.1.2 (20250808.2320)
 -->
<!-- Title: HF::RayTracer::EmbreeRayTracer::EmbreeRayTracer Pages: 1 -->
<svg width="516pt" height="220pt"
 viewBox="0.00 0.00 516.00 220.00" xmlns="http://www.w3.org/2000/svg" xmlns:xlink="http://www.w3.org/1999/xlink">
<g id="graph0" class="graph" transform="scale(1 1) rotate(0) translate(4 216)">
<title>HF::RayTracer::EmbreeRayTracer::EmbreeRayTracer</title>
<!-- Node1 -->
<g id="node1" class="node">
<title>Node1</title>
<g id="a_node1"><a xlink:title="Create a new Raytracer and generate its BVH from a flat array of vertices.">
<polygon fill="#999999" stroke="#666666" points="139,-107 0,-107 0,-75 139,-75 139,-107"/>
<text xml:space="preserve" text-anchor="start" x="8" y="-93.5" font-family="Helvetica,sans-Serif" font-size="10.00">HF::RayTracer::EmbreeRay</text>
<text xml:space="preserve" text-anchor="middle" x="69.5" y="-81.5" font-family="Helvetica,sans-Serif" font-size="10.00">Tracer::EmbreeRayTracer</text>
</a>
</g>
</g>
<!-- Node2 -->
<g id="node2" class="node">
<title>Node2</title>
<g id="a_node2"><a xlink:href="a01411.html#aa602f6c44fa5230477642942ebc3216e" target="_top" xlink:title="Create a new instance of RTCGeometry from a triangle and vertex buffer.">
<polygon fill="white" stroke="#666666" points="332.75,-212 175,-212 175,-168 332.75,-168 332.75,-212"/>
<text xml:space="preserve" text-anchor="start" x="183" y="-198.5" font-family="Helvetica,sans-Serif" font-size="10.00">HF::RayTracer::EmbreeRay</text>
<text xml:space="preserve" text-anchor="start" x="183" y="-186.5" font-family="Helvetica,sans-Serif" font-size="10.00">Tracer::ConstructGeometryFrom</text>
<text xml:space="preserve" text-anchor="middle" x="253.88" y="-174.5" font-family="Helvetica,sans-Serif" font-size="10.00">Buffers</text>
</a>
</g>
</g>
<!-- Node1&#45;&gt;Node2 -->
<g id="edge1" class="edge">
<title>Node1&#45;&gt;Node2</title>
<path fill="none" stroke="#63b8ff" d="M92.95,-107.48C113.6,-122.18 145.4,-143.67 175,-159 177.54,-160.32 180.16,-161.62 182.81,-162.89"/>
<polygon fill="#63b8ff" stroke="#63b8ff" points="181.3,-166.05 191.85,-167.04 184.22,-159.69 181.3,-166.05"/>
</g>
<!-- Node3 -->
<g id="node3" class="node">
<title>Node3</title>
<g id="a_node3"><a xlink:href="a01411.html#a6ee1e15bc515878b156bc6a3778f8033" target="_top" xlink:title="Attach geometry to the current scene.">
<polygon fill="white" stroke="#666666" points="323.38,-132 184.38,-132 184.38,-100 323.38,-100 323.38,-132"/>
<text xml:space="preserve" text-anchor="start" x="192.38" y="-118.5" font-family="Helvetica,sans-Serif" font-size="10.00">HF::RayTracer::EmbreeRay</text>
<text xml:space="preserve" text-anchor="middle" x="253.88" y="-106.5" font-family="Helvetica,sans-Serif" font-size="10.00">Tracer::InsertGeom</text>
</a>
</g>
</g>
<!-- Node1&#45;&gt;Node3 -->
<g id="edge2" class="edge">
<title>Node1&#45;&gt;Node3</title>
<path fill="none" stroke="#63b8ff" d="M139.45,-100.45C150.42,-101.96 161.84,-103.52 173.04,-105.06"/>
<polygon fill="#63b8ff" stroke="#63b8ff" points="172.25,-108.48 182.63,-106.37 173.2,-101.55 172.25,-108.48"/>
</g>
<!-- Node5 -->
<g id="node5" class="node">
<title>Node5</title>
<g id="a_node5"><a xlink:href="a01411.html#a19527943d1afe002c1105cb3b3691ca7" target="_top" xlink:title="Performs all the necessary operations to set up the scene.">
<polygon fill="white" stroke="#666666" points="323.38,-82 184.38,-82 184.38,-50 323.38,-50 323.38,-82"/>
<text xml:space="preserve" text-anchor="start" x="192.38" y="-68.5" font-family="Helvetica,sans-Serif" font-size="10.00">HF::RayTracer::EmbreeRay</text>
<text xml:space="preserve" text-anchor="middle" x="253.88" y="-56.5" font-family="Helvetica,sans-Serif" font-size="10.00">Tracer::SetupScene</text>
</a>
</g>
</g>
<!-- Node1&#45;&gt;Node5 -->
<g id="edge5" class="edge">
<title>Node1&#45;&gt;Node5</title>
<path fill="none" stroke="#63b8ff" d="M139.45,-81.55C150.42,-80.04 161.84,-78.48 173.04,-76.94"/>
<polygon fill="#63b8ff" stroke="#63b8ff" points="173.2,-80.45 182.63,-75.63 172.25,-73.52 173.2,-80.45"/>
</g>
<!-- Node6 -->
<g id="node6" class="node">
<title>Node6</title>
<g id="a_node6"><a xlink:href="a00464.html#a732eb910d06064bea04e6a959fd235f0" target="_top" xlink:title="Index a list of verticies and place them into a triangle and vertex buffer.">
<polygon fill="white" stroke="#666666" points="318.88,-32 188.88,-32 188.88,0 318.88,0 318.88,-32"/>
<text xml:space="preserve" text-anchor="start" x="196.88" y="-18.5" font-family="Helvetica,sans-Serif" font-size="10.00">HF::RayTracer::vectorsTo</text>
<text xml:space="preserve" text-anchor="middle" x="253.88" y="-6.5" font-family="Helvetica,sans-Serif" font-size="10.00">Buffers</text>
</a>
</g>
</g>
<!-- Node1&#45;&gt;Node6 -->
<g id="edge6" class="edge">
<title>Node1&#45;&gt;Node6</title>
<path fill="none" stroke="#63b8ff" d="M102.02,-74.54C122.5,-64.19 149.96,-50.96 175,-41 179.11,-39.36 183.38,-37.76 187.7,-36.19"/>
<polygon fill="#63b8ff" stroke="#63b8ff" points="188.79,-39.52 197.07,-32.91 186.47,-32.92 188.79,-39.52"/>
</g>
<!-- Node3&#45;&gt;Node3 -->
<g id="edge4" class="edge">
<title>Node3&#45;&gt;Node3</title>
<path fill="none" stroke="#63b8ff" d="M220.96,-132.44C214.81,-141.58 225.79,-150 253.88,-150 269.24,-150 279.48,-147.48 284.6,-143.71"/>
<polygon fill="#63b8ff" stroke="#63b8ff" points="288.03,-144.41 286.5,-133.93 281.16,-143.08 288.03,-144.41"/>
</g>
<!-- Node4 -->
<g id="node4" class="node">
<title>Node4</title>
<g id="a_node4"><a xlink:href="a00464.html#a19e11d13f73136d6819b8abee57b0fd9" target="_top" xlink:title="Check an embree device for errors.">
<polygon fill="white" stroke="#666666" points="507.75,-126 368.75,-126 368.75,-106 507.75,-106 507.75,-126"/>
<text xml:space="preserve" text-anchor="middle" x="438.25" y="-112.5" font-family="Helvetica,sans-Serif" font-size="10.00">HF::RayTracer::CheckState</text>
</a>
</g>
</g>
<!-- Node3&#45;&gt;Node4 -->
<g id="edge3" class="edge">
<title>Node3&#45;&gt;Node4</title>
<path fill="none" stroke="#63b8ff" d="M323.82,-116C334.68,-116 345.98,-116 357.06,-116"/>
<polygon fill="#63b8ff" stroke="#63b8ff" points="356.99,-119.5 366.99,-116 356.99,-112.5 356.99,-119.5"/>
</g>
</g>
</svg>
