<?xml version="1.0" encoding="UTF-8" standalone="no"?>
<!DOCTYPE svg PUBLIC "-//W3C//DTD SVG 1.1//EN"
 "http://www.w3.org/Graphics/SVG/1.1/DTD/svg11.dtd">
<!-- Generated by graphviz version 13.1.2 (20250808.2320)
 -->
<!-- Title: nanort::BVHAccel::Traverse Pages: 1 -->
<svg width="502pt" height="165pt"
 viewBox="0.00 0.00 502.00 165.00" xmlns="http://www.w3.org/2000/svg" xmlns:xlink="http://www.w3.org/1999/xlink">
<g id="graph0" class="graph" transform="scale(1 1) rotate(0) translate(4 161)">
<title>nanort::BVHAccel::Traverse</title>
<!-- Node1 -->
<g id="node1" class="node">
<title>Node1</title>
<g id="a_node1"><a xlink:title="Traverse into BVH along ray and find closest hit point &amp; primitive if found.">
<polygon fill="#999999" stroke="#666666" points="493.5,-76 354.5,-76 354.5,-56 493.5,-56 493.5,-76"/>
<text xml:space="preserve" text-anchor="middle" x="424" y="-62.5" font-family="Helvetica,sans-Serif" font-size="10.00">nanort::BVHAccel::Traverse</text>
</a>
</g>
</g>
<!-- Node2 -->
<g id="node2" class="node">
<title>Node2</title>
<g id="a_node2"><a xlink:href="a01519.html#a980fe63296fb23f96ceafc82789cff6c" target="_top" xlink:title=" ">
<polygon fill="white" stroke="#666666" points="318.5,-132 177.25,-132 177.25,-100 318.5,-100 318.5,-132"/>
<text xml:space="preserve" text-anchor="start" x="185.25" y="-118.5" font-family="Helvetica,sans-Serif" font-size="10.00">HF::RayTracer::NanoRTRay</text>
<text xml:space="preserve" text-anchor="middle" x="247.88" y="-106.5" font-family="Helvetica,sans-Serif" font-size="10.00">Tracer::Intersect</text>
</a>
</g>
</g>
<!-- Node1&#45;&gt;Node2 -->
<g id="edge1" class="edge">
<title>Node1&#45;&gt;Node2</title>
<path fill="none" stroke="#63b8ff" d="M375.7,-79.58C354.27,-85.74 328.75,-93.06 306.24,-99.53"/>
<polygon fill="#63b8ff" stroke="#63b8ff" points="376.4,-83.02 385.04,-76.9 374.47,-76.3 376.4,-83.02"/>
</g>
<!-- Node5 -->
<g id="node5" class="node">
<title>Node5</title>
<g id="a_node5"><a xlink:href="a00470.html#ab842b43dc319eba17876627bae3286f6" target="_top" xlink:title=" ">
<polygon fill="white" stroke="#666666" points="309.12,-82 186.62,-82 186.62,-50 309.12,-50 309.12,-82"/>
<text xml:space="preserve" text-anchor="start" x="194.62" y="-68.5" font-family="Helvetica,sans-Serif" font-size="10.00">HF::nanoGeom::nanoRT</text>
<text xml:space="preserve" text-anchor="middle" x="247.88" y="-56.5" font-family="Helvetica,sans-Serif" font-size="10.00">_Intersect</text>
</a>
</g>
</g>
<!-- Node1&#45;&gt;Node5 -->
<g id="edge4" class="edge">
<title>Node1&#45;&gt;Node5</title>
<path fill="none" stroke="#63b8ff" d="M342.67,-66C331.54,-66 320.27,-66 309.58,-66"/>
<polygon fill="#63b8ff" stroke="#63b8ff" points="342.67,-69.5 352.67,-66 342.67,-62.5 342.67,-69.5"/>
</g>
<!-- Node6 -->
<g id="node6" class="node">
<title>Node6</title>
<g id="a_node6"><a xlink:href="a00470.html#ae4ab3809e1f437e93ae1ad78c2792025" target="_top" xlink:title=" ">
<polygon fill="white" stroke="#666666" points="309.12,-32 186.62,-32 186.62,0 309.12,0 309.12,-32"/>
<text xml:space="preserve" text-anchor="start" x="194.62" y="-18.5" font-family="Helvetica,sans-Serif" font-size="10.00">HF::nanoGeom::nanoRT</text>
<text xml:space="preserve" text-anchor="middle" x="247.88" y="-6.5" font-family="Helvetica,sans-Serif" font-size="10.00">_RayCast</text>
</a>
</g>
</g>
<!-- Node1&#45;&gt;Node6 -->
<g id="edge5" class="edge">
<title>Node1&#45;&gt;Node6</title>
<path fill="none" stroke="#63b8ff" d="M375.7,-52.42C354.27,-46.26 328.75,-38.94 306.24,-32.47"/>
<polygon fill="#63b8ff" stroke="#63b8ff" points="374.47,-55.7 385.04,-55.1 376.4,-48.98 374.47,-55.7"/>
</g>
<!-- Node3 -->
<g id="node3" class="node">
<title>Node3</title>
<g id="a_node3"><a xlink:href="a01519.html#a026deea38d40b0980713e96869761ac5" target="_top" xlink:title=" ">
<polygon fill="white" stroke="#666666" points="141.25,-157 0,-157 0,-125 141.25,-125 141.25,-157"/>
<text xml:space="preserve" text-anchor="start" x="8" y="-143.5" font-family="Helvetica,sans-Serif" font-size="10.00">HF::RayTracer::NanoRTRay</text>
<text xml:space="preserve" text-anchor="middle" x="70.62" y="-131.5" font-family="Helvetica,sans-Serif" font-size="10.00">Tracer::Occluded</text>
</a>
</g>
</g>
<!-- Node2&#45;&gt;Node3 -->
<g id="edge2" class="edge">
<title>Node2&#45;&gt;Node3</title>
<path fill="none" stroke="#63b8ff" d="M165.57,-127.6C157.54,-128.74 149.44,-129.9 141.53,-131.03"/>
<polygon fill="#63b8ff" stroke="#63b8ff" points="165.95,-131.08 175.36,-126.2 164.96,-124.15 165.95,-131.08"/>
</g>
<!-- Node4 -->
<g id="node4" class="node">
<title>Node4</title>
<g id="a_node4"><a xlink:href="a01519.html#a2d5a5ae0fd9a0830b8eb14e5cd9ffd34" target="_top" xlink:title=" ">
<polygon fill="white" stroke="#666666" points="141.25,-107 0,-107 0,-75 141.25,-75 141.25,-107"/>
<text xml:space="preserve" text-anchor="start" x="8" y="-93.5" font-family="Helvetica,sans-Serif" font-size="10.00">HF::RayTracer::NanoRTRay</text>
<text xml:space="preserve" text-anchor="middle" x="70.62" y="-81.5" font-family="Helvetica,sans-Serif" font-size="10.00">Tracer::PointIntersection</text>
</a>
</g>
</g>
<!-- Node2&#45;&gt;Node4 -->
<g id="edge3" class="edge">
<title>Node2&#45;&gt;Node4</title>
<path fill="none" stroke="#63b8ff" d="M165.57,-104.4C157.54,-103.26 149.44,-102.1 141.53,-100.97"/>
<polygon fill="#63b8ff" stroke="#63b8ff" points="164.96,-107.85 175.36,-105.8 165.95,-100.92 164.96,-107.85"/>
</g>
</g>
</svg>
