<?xml version="1.0" encoding="UTF-8" standalone="no"?>
<!DOCTYPE svg PUBLIC "-//W3C//DTD SVG 1.1//EN"
 "http://www.w3.org/Graphics/SVG/1.1/DTD/svg11.dtd">
<!-- Generated by graphviz version 13.1.2 (20250808.2320)
 -->
<!-- Title: nanort::Ray&lt; T &gt; Pages: 1 -->
<svg width="98pt" height="132pt"
 viewBox="0.00 0.00 98.00 132.00" xmlns="http://www.w3.org/2000/svg" xmlns:xlink="http://www.w3.org/1999/xlink">
<g id="graph0" class="graph" transform="scale(1 1) rotate(0) translate(4 128)">
<title>nanort::Ray&lt; T &gt;</title>
<!-- Node1 -->
<g id="node1" class="node">
<title>Node1</title>
<g id="a_node1"><a xlink:title=" ">
<polygon fill="#999999" stroke="#666666" points="90.25,-20 0,-20 0,0 90.25,0 90.25,-20"/>
<text xml:space="preserve" text-anchor="middle" x="45.12" y="-6.5" font-family="Helvetica,sans-Serif" font-size="10.00">nanort::Ray&lt; T &gt;</text>
</a>
</g>
</g>
<!-- Node2 -->
<g id="node2" class="node">
<title>Node2</title>
<g id="a_node2"><a xlink:title=" ">
<polygon fill="white" stroke="#666666" points="37.5,-124 2.75,-124 2.75,-104 37.5,-104 37.5,-124"/>
<text xml:space="preserve" text-anchor="middle" x="20.12" y="-110.5" font-family="Helvetica,sans-Serif" font-size="10.00">float</text>
</a>
</g>
</g>
<!-- Node2&#45;&gt;Node1 -->
<g id="edge1" class="edge">
<title>Node2&#45;&gt;Node1</title>
<path fill="none" stroke="#9a32cd" stroke-dasharray="5,2" d="M16.63,-92.45C14.87,-76.95 14.36,-55.45 21.12,-38 23.76,-31.22 28.93,-25.04 33.8,-20.31"/>
<polygon fill="#9a32cd" stroke="#9a32cd" points="13.16,-92.94 18.05,-102.34 20.09,-91.95 13.16,-92.94"/>
<text xml:space="preserve" text-anchor="middle" x="34.62" y="-76.5" font-family="Helvetica,sans-Serif" font-size="10.00"> dir</text>
<text xml:space="preserve" text-anchor="middle" x="34.62" y="-64.5" font-family="Helvetica,sans-Serif" font-size="10.00">max_t</text>
<text xml:space="preserve" text-anchor="middle" x="34.62" y="-52.5" font-family="Helvetica,sans-Serif" font-size="10.00">min_t</text>
<text xml:space="preserve" text-anchor="middle" x="34.62" y="-40.5" font-family="Helvetica,sans-Serif" font-size="10.00">org</text>
</g>
<!-- Node3 -->
<g id="node3" class="node">
<title>Node3</title>
<g id="a_node3"><a xlink:title=" ">
<polygon fill="white" stroke="#666666" points="84.53,-124 55.73,-124 55.73,-104 84.53,-104 84.53,-124"/>
<text xml:space="preserve" text-anchor="middle" x="70.12" y="-110.5" font-family="Helvetica,sans-Serif" font-size="10.00">int</text>
</a>
</g>
</g>
<!-- Node3&#45;&gt;Node1 -->
<g id="edge2" class="edge">
<title>Node3&#45;&gt;Node1</title>
<path fill="none" stroke="#9a32cd" stroke-dasharray="5,2" d="M65.11,-92.54C59.73,-70.59 51.42,-36.69 47.43,-20.39"/>
<polygon fill="#9a32cd" stroke="#9a32cd" points="61.68,-93.24 67.46,-102.12 68.48,-91.57 61.68,-93.24"/>
<text xml:space="preserve" text-anchor="middle" x="74.3" y="-58.5" font-family="Helvetica,sans-Serif" font-size="10.00"> type</text>
</g>
</g>
</svg>
