<?xml version="1.0" encoding="UTF-8" standalone="no"?>
<!DOCTYPE svg PUBLIC "-//W3C//DTD SVG 1.1//EN"
 "http://www.w3.org/Graphics/SVG/1.1/DTD/svg11.dtd">
<!-- Generated by graphviz version 13.1.2 (20250808.2320)
 -->
<!-- Title: nanort::TriangleIntersector&lt; T, H &gt; Pages: 1 -->
<svg width="580pt" height="358pt"
 viewBox="0.00 0.00 580.00 358.00" xmlns="http://www.w3.org/2000/svg" xmlns:xlink="http://www.w3.org/1999/xlink">
<g id="graph0" class="graph" transform="scale(1 1) rotate(0) translate(4 353.74)">
<title>nanort::TriangleIntersector&lt; T, H &gt;</title>
<!-- Node1 -->
<g id="node1" class="node">
<title>Node1</title>
<g id="a_node1"><a xlink:title=" ">
<polygon fill="#999999" stroke="#666666" points="571.5,-167 441.5,-167 441.5,-135 571.5,-135 571.5,-167"/>
<text xml:space="preserve" text-anchor="start" x="449.5" y="-153.5" font-family="Helvetica,sans-Serif" font-size="10.00">nanort::TriangleIntersector</text>
<text xml:space="preserve" text-anchor="middle" x="506.5" y="-141.5" font-family="Helvetica,sans-Serif" font-size="10.00">&lt; T, H &gt;</text>
</a>
</g>
</g>
<!-- Node2 -->
<g id="node2" class="node">
<title>Node2</title>
<g id="a_node2"><a xlink:title=" ">
<polygon fill="white" stroke="#666666" points="55.75,-296 21,-296 21,-276 55.75,-276 55.75,-296"/>
<text xml:space="preserve" text-anchor="middle" x="38.38" y="-282.5" font-family="Helvetica,sans-Serif" font-size="10.00">float</text>
</a>
</g>
</g>
<!-- Node2&#45;&gt;Node1 -->
<g id="edge1" class="edge">
<title>Node2&#45;&gt;Node1</title>
<path fill="none" stroke="#9a32cd" stroke-dasharray="5,2" d="M67.14,-288.55C133.4,-293.32 304.14,-297.82 423.5,-232 452.94,-215.77 479.05,-185.96 493.53,-167.38"/>
<polygon fill="#9a32cd" stroke="#9a32cd" points="67.77,-285.08 57.53,-287.79 67.22,-292.06 67.77,-285.08"/>
<text xml:space="preserve" text-anchor="middle" x="246.75" y="-340.24" font-family="Helvetica,sans-Serif" font-size="10.00"> t_</text>
<text xml:space="preserve" text-anchor="middle" x="246.75" y="-328.24" font-family="Helvetica,sans-Serif" font-size="10.00">t_min_</text>
<text xml:space="preserve" text-anchor="middle" x="246.75" y="-316.24" font-family="Helvetica,sans-Serif" font-size="10.00">u_</text>
<text xml:space="preserve" text-anchor="middle" x="246.75" y="-304.24" font-family="Helvetica,sans-Serif" font-size="10.00">v_</text>
<text xml:space="preserve" text-anchor="middle" x="246.75" y="-292.24" font-family="Helvetica,sans-Serif" font-size="10.00">vertices_</text>
</g>
<!-- Node5 -->
<g id="node5" class="node">
<title>Node5</title>
<g id="a_node5"><a xlink:href="a01443.html" target="_top" xlink:title=" ">
<polygon fill="white" stroke="#666666" points="300.12,-249 193.38,-249 193.38,-229 300.12,-229 300.12,-249"/>
<text xml:space="preserve" text-anchor="middle" x="246.75" y="-235.5" font-family="Helvetica,sans-Serif" font-size="10.00">nanort::real3&lt; float &gt;</text>
</a>
</g>
</g>
<!-- Node2&#45;&gt;Node5 -->
<g id="edge5" class="edge">
<title>Node2&#45;&gt;Node5</title>
<path fill="none" stroke="#9a32cd" stroke-dasharray="5,2" d="M66.84,-279.74C100.8,-272.01 159.08,-258.74 199.87,-249.45"/>
<polygon fill="#9a32cd" stroke="#9a32cd" points="66.36,-276.26 57.39,-281.9 67.92,-283.09 66.36,-276.26"/>
<text xml:space="preserve" text-anchor="middle" x="129.25" y="-274.61" font-family="Helvetica,sans-Serif" font-size="10.00"> v</text>
</g>
<!-- Node3 -->
<g id="node3" class="node">
<title>Node3</title>
<g id="a_node3"><a xlink:title=" ">
<polygon fill="white" stroke="#666666" points="52.77,-132 23.98,-132 23.98,-112 52.77,-112 52.77,-132"/>
<text xml:space="preserve" text-anchor="middle" x="38.38" y="-118.5" font-family="Helvetica,sans-Serif" font-size="10.00">int</text>
</a>
</g>
</g>
<!-- Node3&#45;&gt;Node1 -->
<g id="edge2" class="edge">
<title>Node3&#45;&gt;Node1</title>
<path fill="none" stroke="#9a32cd" stroke-dasharray="5,2" d="M64.36,-122.24C112.35,-122.84 220.75,-124.81 311.75,-131 354.93,-133.94 403.37,-138.94 441.01,-143.2"/>
<polygon fill="#9a32cd" stroke="#9a32cd" points="64.55,-118.74 54.51,-122.13 64.47,-125.74 64.55,-118.74"/>
<text xml:space="preserve" text-anchor="middle" x="246.75" y="-145.5" font-family="Helvetica,sans-Serif" font-size="10.00"> faces_</text>
<text xml:space="preserve" text-anchor="middle" x="246.75" y="-133.5" font-family="Helvetica,sans-Serif" font-size="10.00">prim_id_</text>
</g>
<!-- Node6 -->
<g id="node6" class="node">
<title>Node6</title>
<g id="a_node6"><a xlink:href="a01499.html#a01503" target="_top" xlink:title=" ">
<polygon fill="white" stroke="#666666" points="311.75,-196 181.75,-196 181.75,-164 311.75,-164 311.75,-196"/>
<text xml:space="preserve" text-anchor="start" x="189.75" y="-182.5" font-family="Helvetica,sans-Serif" font-size="10.00">nanort::TriangleIntersector</text>
<text xml:space="preserve" text-anchor="middle" x="246.75" y="-170.5" font-family="Helvetica,sans-Serif" font-size="10.00">&lt; T, H &gt;::RayCoeff</text>
</a>
</g>
</g>
<!-- Node3&#45;&gt;Node6 -->
<g id="edge8" class="edge">
<title>Node3&#45;&gt;Node6</title>
<path fill="none" stroke="#9a32cd" stroke-dasharray="5,2" d="M64.34,-127.99C89.53,-134.14 129.49,-144.17 163.75,-154 174.09,-156.97 185.09,-160.32 195.58,-163.61"/>
<polygon fill="#9a32cd" stroke="#9a32cd" points="65.26,-124.61 54.72,-125.66 63.61,-131.42 65.26,-124.61"/>
<text xml:space="preserve" text-anchor="middle" x="129.25" y="-180.5" font-family="Helvetica,sans-Serif" font-size="10.00"> kx</text>
<text xml:space="preserve" text-anchor="middle" x="129.25" y="-168.5" font-family="Helvetica,sans-Serif" font-size="10.00">ky</text>
<text xml:space="preserve" text-anchor="middle" x="129.25" y="-156.5" font-family="Helvetica,sans-Serif" font-size="10.00">kz</text>
</g>
<!-- Node8 -->
<g id="node8" class="node">
<title>Node8</title>
<g id="a_node8"><a xlink:href="a01467.html" target="_top" xlink:title="BVH trace option.">
<polygon fill="white" stroke="#666666" points="311,-86 182.5,-86 182.5,-66 311,-66 311,-86"/>
<text xml:space="preserve" text-anchor="middle" x="246.75" y="-72.5" font-family="Helvetica,sans-Serif" font-size="10.00">nanort::BVHTraceOptions</text>
</a>
</g>
</g>
<!-- Node3&#45;&gt;Node8 -->
<g id="edge10" class="edge">
<title>Node3&#45;&gt;Node8</title>
<path fill="none" stroke="#9a32cd" stroke-dasharray="5,2" d="M58.89,-104.68C68.89,-96.87 81.7,-88.43 94.75,-84 122.47,-74.59 154.69,-71.86 182.23,-71.78"/>
<polygon fill="#9a32cd" stroke="#9a32cd" points="56.89,-101.78 51.41,-110.85 61.35,-107.18 56.89,-101.78"/>
<text xml:space="preserve" text-anchor="middle" x="129.25" y="-98.5" font-family="Helvetica,sans-Serif" font-size="10.00"> prim_ids_range</text>
<text xml:space="preserve" text-anchor="middle" x="129.25" y="-86.5" font-family="Helvetica,sans-Serif" font-size="10.00">skip_prim_id</text>
</g>
<!-- Node4 -->
<g id="node4" class="node">
<title>Node4</title>
<g id="a_node4"><a xlink:title=" ">
<polygon fill="white" stroke="#666666" points="267.88,-48 225.62,-48 225.62,-28 267.88,-28 267.88,-48"/>
<text xml:space="preserve" text-anchor="middle" x="246.75" y="-34.5" font-family="Helvetica,sans-Serif" font-size="10.00">size_t</text>
</a>
</g>
</g>
<!-- Node4&#45;&gt;Node1 -->
<g id="edge3" class="edge">
<title>Node4&#45;&gt;Node1</title>
<path fill="none" stroke="#9a32cd" stroke-dasharray="5,2" d="M279.82,-35.8C316.62,-34.66 377.79,-37.14 423.5,-61 456.29,-78.11 482.57,-113.89 495.92,-134.81"/>
<polygon fill="#9a32cd" stroke="#9a32cd" points="279.68,-32.3 269.84,-36.23 279.98,-39.29 279.68,-32.3"/>
<text xml:space="preserve" text-anchor="middle" x="376.62" y="-63.5" font-family="Helvetica,sans-Serif" font-size="10.00"> vertex_stride_bytes_</text>
</g>
<!-- Node5&#45;&gt;Node1 -->
<g id="edge4" class="edge">
<title>Node5&#45;&gt;Node1</title>
<path fill="none" stroke="#9a32cd" stroke-dasharray="5,2" d="M299.36,-225.57C334.68,-215.94 382.38,-202.04 423.5,-187 439.27,-181.23 456.33,-173.92 470.78,-167.4"/>
<polygon fill="#9a32cd" stroke="#9a32cd" points="298.56,-222.17 289.82,-228.15 300.38,-228.92 298.56,-222.17"/>
<text xml:space="preserve" text-anchor="middle" x="376.62" y="-218.58" font-family="Helvetica,sans-Serif" font-size="10.00"> ray_org_</text>
</g>
<!-- Node6&#45;&gt;Node1 -->
<g id="edge6" class="edge">
<title>Node6&#45;&gt;Node1</title>
<path fill="none" stroke="#9a32cd" stroke-dasharray="5,2" d="M323.47,-171.48C360.81,-167.28 405.36,-162.27 441.05,-158.25"/>
<polygon fill="#9a32cd" stroke="#9a32cd" points="323.18,-167.99 313.63,-172.59 323.96,-174.95 323.18,-167.99"/>
<text xml:space="preserve" text-anchor="middle" x="376.62" y="-173.12" font-family="Helvetica,sans-Serif" font-size="10.00"> ray_coeff_</text>
</g>
<!-- Node7 -->
<g id="node7" class="node">
<title>Node7</title>
<g id="a_node7"><a xlink:title=" ">
<polygon fill="white" stroke="#666666" points="52.77,-224 23.98,-224 23.98,-204 52.77,-204 52.77,-224"/>
<text xml:space="preserve" text-anchor="middle" x="38.38" y="-210.5" font-family="Helvetica,sans-Serif" font-size="10.00">T</text>
</a>
</g>
</g>
<!-- Node7&#45;&gt;Node6 -->
<g id="edge7" class="edge">
<title>Node7&#45;&gt;Node6</title>
<path fill="none" stroke="#9a32cd" stroke-dasharray="5,2" d="M64.31,-209.89C93.16,-205.14 141.79,-197.13 181.44,-190.59"/>
<polygon fill="#9a32cd" stroke="#9a32cd" points="64.03,-206.39 54.73,-211.47 65.17,-213.3 64.03,-206.39"/>
<text xml:space="preserve" text-anchor="middle" x="129.25" y="-230.45" font-family="Helvetica,sans-Serif" font-size="10.00"> Sx</text>
<text xml:space="preserve" text-anchor="middle" x="129.25" y="-218.45" font-family="Helvetica,sans-Serif" font-size="10.00">Sy</text>
<text xml:space="preserve" text-anchor="middle" x="129.25" y="-206.45" font-family="Helvetica,sans-Serif" font-size="10.00">Sz</text>
</g>
<!-- Node8&#45;&gt;Node1 -->
<g id="edge9" class="edge">
<title>Node8&#45;&gt;Node1</title>
<path fill="none" stroke="#9a32cd" stroke-dasharray="5,2" d="M322.72,-76.7C354.59,-78.98 391.67,-84.31 423.5,-96 447.31,-104.75 471,-121.76 486.75,-134.56"/>
<polygon fill="#9a32cd" stroke="#9a32cd" points="322.94,-73.21 312.74,-76.09 322.51,-80.2 322.94,-73.21"/>
<text xml:space="preserve" text-anchor="middle" x="376.62" y="-98.5" font-family="Helvetica,sans-Serif" font-size="10.00"> trace_options_</text>
</g>
<!-- Node9 -->
<g id="node9" class="node">
<title>Node9</title>
<g id="a_node9"><a xlink:title=" ">
<polygon fill="white" stroke="#666666" points="55.38,-58 21.38,-58 21.38,-38 55.38,-38 55.38,-58"/>
<text xml:space="preserve" text-anchor="middle" x="38.38" y="-44.5" font-family="Helvetica,sans-Serif" font-size="10.00">bool</text>
</a>
</g>
</g>
<!-- Node9&#45;&gt;Node8 -->
<g id="edge11" class="edge">
<title>Node9&#45;&gt;Node8</title>
<path fill="none" stroke="#9a32cd" stroke-dasharray="5,2" d="M67.06,-45.03C92.5,-43.04 131.1,-41.93 163.75,-49 172.31,-50.85 173.54,-53.97 181.75,-57 190.01,-60.05 199.01,-62.96 207.58,-65.55"/>
<polygon fill="#9a32cd" stroke="#9a32cd" points="66.86,-41.53 57.21,-45.9 67.49,-48.5 66.86,-41.53"/>
<text xml:space="preserve" text-anchor="middle" x="129.25" y="-51.5" font-family="Helvetica,sans-Serif" font-size="10.00"> cull_back_face</text>
</g>
<!-- Node10 -->
<g id="node10" class="node">
<title>Node10</title>
<g id="a_node10"><a xlink:title=" ">
<polygon fill="white" stroke="#666666" points="76.75,-20 0,-20 0,0 76.75,0 76.75,-20"/>
<text xml:space="preserve" text-anchor="middle" x="38.38" y="-6.5" font-family="Helvetica,sans-Serif" font-size="10.00">unsigned char</text>
</a>
</g>
</g>
<!-- Node10&#45;&gt;Node8 -->
<g id="edge12" class="edge">
<title>Node10&#45;&gt;Node8</title>
<path fill="none" stroke="#9a32cd" stroke-dasharray="5,2" d="M88.32,-7.68C112.73,-8.74 141.69,-13.56 163.75,-28 176.44,-36.31 169.69,-47.8 181.75,-57 186.26,-60.45 191.4,-63.27 196.74,-65.58"/>
<polygon fill="#9a32cd" stroke="#9a32cd" points="88.69,-4.19 78.61,-7.47 88.53,-11.19 88.69,-4.19"/>
<text xml:space="preserve" text-anchor="middle" x="129.25" y="-30.5" font-family="Helvetica,sans-Serif" font-size="10.00"> pad</text>
</g>
</g>
</svg>
