<?xml version="1.0" encoding="UTF-8" standalone="no"?>
<!DOCTYPE svg PUBLIC "-//W3C//DTD SVG 1.1//EN"
 "http://www.w3.org/Graphics/SVG/1.1/DTD/svg11.dtd">
<!-- Generated by graphviz version 13.1.2 (20250808.2320)
 -->
<!-- Title: nanort::TriangleMesh&lt; T &gt; Pages: 1 -->
<svg width="227pt" height="96pt"
 viewBox="0.00 0.00 227.00 96.00" xmlns="http://www.w3.org/2000/svg" xmlns:xlink="http://www.w3.org/1999/xlink">
<g id="graph0" class="graph" transform="scale(1 1) rotate(0) translate(4 92)">
<title>nanort::TriangleMesh&lt; T &gt;</title>
<!-- Node1 -->
<g id="node1" class="node">
<title>Node1</title>
<g id="a_node1"><a xlink:title=" ">
<polygon fill="#999999" stroke="#666666" points="148.75,-20 18,-20 18,0 148.75,0 148.75,-20"/>
<text xml:space="preserve" text-anchor="middle" x="83.38" y="-6.5" font-family="Helvetica,sans-Serif" font-size="10.00">nanort::TriangleMesh&lt; T &gt;</text>
</a>
</g>
</g>
<!-- Node2 -->
<g id="node2" class="node">
<title>Node2</title>
<g id="a_node2"><a xlink:title=" ">
<polygon fill="white" stroke="#666666" points="34.75,-88 0,-88 0,-68 34.75,-68 34.75,-88"/>
<text xml:space="preserve" text-anchor="middle" x="17.38" y="-74.5" font-family="Helvetica,sans-Serif" font-size="10.00">float</text>
</a>
</g>
</g>
<!-- Node2&#45;&gt;Node1 -->
<g id="edge1" class="edge">
<title>Node2&#45;&gt;Node1</title>
<path fill="none" stroke="#9a32cd" stroke-dasharray="5,2" d="M24.36,-57.33C27.4,-50.66 31.47,-43.51 36.62,-38 43.42,-30.75 52.6,-24.87 61.03,-20.48"/>
<polygon fill="#9a32cd" stroke="#9a32cd" points="21.23,-55.74 20.77,-66.33 27.73,-58.34 21.23,-55.74"/>
<text xml:space="preserve" text-anchor="middle" x="58" y="-40.5" font-family="Helvetica,sans-Serif" font-size="10.00"> vertices_</text>
</g>
<!-- Node3 -->
<g id="node3" class="node">
<title>Node3</title>
<g id="a_node3"><a xlink:title=" ">
<polygon fill="white" stroke="#666666" points="97.78,-88 68.97,-88 68.97,-68 97.78,-68 97.78,-88"/>
<text xml:space="preserve" text-anchor="middle" x="83.38" y="-74.5" font-family="Helvetica,sans-Serif" font-size="10.00">int</text>
</a>
</g>
</g>
<!-- Node3&#45;&gt;Node1 -->
<g id="edge2" class="edge">
<title>Node3&#45;&gt;Node1</title>
<path fill="none" stroke="#9a32cd" stroke-dasharray="5,2" d="M83.38,-56.28C83.38,-44.27 83.38,-29.74 83.38,-20.44"/>
<polygon fill="#9a32cd" stroke="#9a32cd" points="79.88,-56.03 83.38,-66.03 86.88,-56.03 79.88,-56.03"/>
<text xml:space="preserve" text-anchor="middle" x="99.5" y="-40.5" font-family="Helvetica,sans-Serif" font-size="10.00"> faces_</text>
</g>
<!-- Node4 -->
<g id="node4" class="node">
<title>Node4</title>
<g id="a_node4"><a xlink:title=" ">
<polygon fill="white" stroke="#666666" points="159.5,-88 117.25,-88 117.25,-68 159.5,-68 159.5,-88"/>
<text xml:space="preserve" text-anchor="middle" x="138.38" y="-74.5" font-family="Helvetica,sans-Serif" font-size="10.00">size_t</text>
</a>
</g>
</g>
<!-- Node4&#45;&gt;Node1 -->
<g id="edge3" class="edge">
<title>Node4&#45;&gt;Node1</title>
<path fill="none" stroke="#9a32cd" stroke-dasharray="5,2" d="M129.25,-57.56C125.71,-51.01 121.31,-43.87 116.38,-38 110.85,-31.43 103.55,-25.27 97.23,-20.5"/>
<polygon fill="#9a32cd" stroke="#9a32cd" points="126.06,-59 133.67,-66.37 132.32,-55.86 126.06,-59"/>
<text xml:space="preserve" text-anchor="middle" x="171.77" y="-40.5" font-family="Helvetica,sans-Serif" font-size="10.00"> vertex_stride_bytes_</text>
</g>
</g>
</svg>
