<?xml version="1.0" encoding="UTF-8" standalone="no"?>
<!DOCTYPE svg PUBLIC "-//W3C//DTD SVG 1.1//EN"
 "http://www.w3.org/Graphics/SVG/1.1/DTD/svg11.dtd">
<!-- Generated by graphviz version 13.1.2 (20250808.2320)
 -->
<!-- Title: HF::RayTracer::EmbreeRayTracer::InsertGeom Pages: 1 -->
<svg width="497pt" height="166pt"
 viewBox="0.00 0.00 497.00 166.00" xmlns="http://www.w3.org/2000/svg" xmlns:xlink="http://www.w3.org/1999/xlink">
<g id="graph0" class="graph" transform="scale(1 1) rotate(0) translate(4 162)">
<title>HF::RayTracer::EmbreeRayTracer::InsertGeom</title>
<!-- Node1 -->
<g id="node1" class="node">
<title>Node1</title>
<g id="a_node1"><a xlink:title="Attach geometry to the current scene.">
<polygon fill="#999999" stroke="#666666" points="489,-117 350,-117 350,-85 489,-85 489,-117"/>
<text xml:space="preserve" text-anchor="start" x="358" y="-103.5" font-family="Helvetica,sans-Serif" font-size="10.00">HF::RayTracer::EmbreeRay</text>
<text xml:space="preserve" text-anchor="middle" x="419.5" y="-91.5" font-family="Helvetica,sans-Serif" font-size="10.00">Tracer::InsertGeom</text>
</a>
</g>
</g>
<!-- Node1&#45;&gt;Node1 -->
<g id="edge7" class="edge">
<title>Node1&#45;&gt;Node1</title>
<path fill="none" stroke="#63b8ff" d="M448.66,-128.71C443.8,-132.48 434.08,-135 419.5,-135 392.84,-135 382.43,-126.58 388.26,-117.44"/>
<polygon fill="#63b8ff" stroke="#63b8ff" points="452.09,-129.4 450.47,-118.93 445.21,-128.13 452.09,-129.4"/>
</g>
<!-- Node2 -->
<g id="node2" class="node">
<title>Node2</title>
<g id="a_node2"><a xlink:href="a01411.html#a99f9cf2231668b40902c19d6b886865a" target="_top" xlink:title="Create a new Raytracer and generate its BVH from a flat array of vertices.">
<polygon fill="white" stroke="#666666" points="314,-142 175,-142 175,-110 314,-110 314,-142"/>
<text xml:space="preserve" text-anchor="start" x="183" y="-128.5" font-family="Helvetica,sans-Serif" font-size="10.00">HF::RayTracer::EmbreeRay</text>
<text xml:space="preserve" text-anchor="middle" x="244.5" y="-116.5" font-family="Helvetica,sans-Serif" font-size="10.00">Tracer::EmbreeRayTracer</text>
</a>
</g>
</g>
<!-- Node1&#45;&gt;Node2 -->
<g id="edge1" class="edge">
<title>Node1&#45;&gt;Node2</title>
<path fill="none" stroke="#63b8ff" d="M338.38,-112.58C330.38,-113.73 322.3,-114.9 314.42,-116.04"/>
<polygon fill="#63b8ff" stroke="#63b8ff" points="338.73,-116.06 348.13,-111.17 337.73,-109.14 338.73,-116.06"/>
</g>
<!-- Node3 -->
<g id="node3" class="node">
<title>Node3</title>
<g id="a_node3"><a xlink:href="a01411.html#a6425a0f8f4a3ef8073e734ceb745cd1e" target="_top" xlink:title="Add a new mesh to this raytracer&#39;s BVH with the specified ID.">
<polygon fill="white" stroke="#666666" points="314,-92 175,-92 175,-60 314,-60 314,-92"/>
<text xml:space="preserve" text-anchor="start" x="183" y="-78.5" font-family="Helvetica,sans-Serif" font-size="10.00">HF::RayTracer::EmbreeRay</text>
<text xml:space="preserve" text-anchor="middle" x="244.5" y="-66.5" font-family="Helvetica,sans-Serif" font-size="10.00">Tracer::AddMesh</text>
</a>
</g>
</g>
<!-- Node1&#45;&gt;Node3 -->
<g id="edge2" class="edge">
<title>Node1&#45;&gt;Node3</title>
<path fill="none" stroke="#63b8ff" d="M338.38,-89.42C330.38,-88.27 322.3,-87.1 314.42,-85.96"/>
<polygon fill="#63b8ff" stroke="#63b8ff" points="337.73,-92.86 348.13,-90.83 338.73,-85.94 337.73,-92.86"/>
</g>
<!-- Node4 -->
<g id="node4" class="node">
<title>Node4</title>
<g id="a_node4"><a xlink:href="a01411.html#a0a3fa22a253ce3a7738f01286c11f589" target="_top" xlink:title="Create a new EmbreeRayTracer and add a single mesh to the scene.">
<polygon fill="white" stroke="#666666" points="139,-158 0,-158 0,-126 139,-126 139,-158"/>
<text xml:space="preserve" text-anchor="start" x="8" y="-144.5" font-family="Helvetica,sans-Serif" font-size="10.00">HF::RayTracer::EmbreeRay</text>
<text xml:space="preserve" text-anchor="middle" x="69.5" y="-132.5" font-family="Helvetica,sans-Serif" font-size="10.00">Tracer::EmbreeRayTracer</text>
</a>
</g>
</g>
<!-- Node3&#45;&gt;Node4 -->
<g id="edge3" class="edge">
<title>Node3&#45;&gt;Node4</title>
<path fill="none" stroke="#63b8ff" d="M186.72,-96.38C182.74,-97.91 178.8,-99.46 175,-101 158.77,-107.56 155.23,-110.44 139,-117 131.84,-119.89 124.2,-122.83 116.72,-125.62"/>
<polygon fill="#63b8ff" stroke="#63b8ff" points="187.75,-99.73 195.86,-92.92 185.27,-93.19 187.75,-99.73"/>
</g>
<!-- Node5 -->
<g id="node5" class="node">
<title>Node5</title>
<g id="a_node5"><a xlink:href="a00457.html#ga7f80c3aff3b2a8a28794830913ef2a36" target="_top" xlink:title="Add a new mesh to a raytracer.">
<polygon fill="white" stroke="#666666" points="98.12,-108 40.88,-108 40.88,-88 98.12,-88 98.12,-108"/>
<text xml:space="preserve" text-anchor="middle" x="69.5" y="-94.5" font-family="Helvetica,sans-Serif" font-size="10.00">AddMesh</text>
</a>
</g>
</g>
<!-- Node3&#45;&gt;Node5 -->
<g id="edge4" class="edge">
<title>Node3&#45;&gt;Node5</title>
<path fill="none" stroke="#63b8ff" d="M163.31,-86.2C140.1,-89.15 116.27,-92.18 98.57,-94.43"/>
<polygon fill="#63b8ff" stroke="#63b8ff" points="163.65,-89.68 173.13,-84.95 162.77,-82.74 163.65,-89.68"/>
</g>
<!-- Node6 -->
<g id="node6" class="node">
<title>Node6</title>
<g id="a_node6"><a xlink:href="a01411.html#a3d478f577e30d1b437421224134b5a38" target="_top" xlink:title="Add several new meshes to the BVH.">
<polygon fill="white" stroke="#666666" points="139,-70 0,-70 0,-38 139,-38 139,-70"/>
<text xml:space="preserve" text-anchor="start" x="8" y="-56.5" font-family="Helvetica,sans-Serif" font-size="10.00">HF::RayTracer::EmbreeRay</text>
<text xml:space="preserve" text-anchor="middle" x="69.5" y="-44.5" font-family="Helvetica,sans-Serif" font-size="10.00">Tracer::AddMesh</text>
</a>
</g>
</g>
<!-- Node3&#45;&gt;Node6 -->
<g id="edge5" class="edge">
<title>Node3&#45;&gt;Node6</title>
<path fill="none" stroke="#63b8ff" d="M163.38,-65.81C155.38,-64.79 147.3,-63.77 139.42,-62.76"/>
<polygon fill="#63b8ff" stroke="#63b8ff" points="162.77,-69.26 173.13,-67.05 163.65,-62.32 162.77,-69.26"/>
</g>
<!-- Node7 -->
<g id="node7" class="node">
<title>Node7</title>
<g id="a_node7"><a xlink:href="a00457.html#ga06215cb24d54f979920f6022af214a00" target="_top" xlink:title="Add a new mesh to a raytracer.">
<polygon fill="white" stroke="#666666" points="103.38,-20 35.62,-20 35.62,0 103.38,0 103.38,-20"/>
<text xml:space="preserve" text-anchor="middle" x="69.5" y="-6.5" font-family="Helvetica,sans-Serif" font-size="10.00">AddMeshes</text>
</a>
</g>
</g>
<!-- Node3&#45;&gt;Node7 -->
<g id="edge6" class="edge">
<title>Node3&#45;&gt;Node7</title>
<path fill="none" stroke="#63b8ff" d="M200.39,-54.83C181.78,-46.16 159.58,-36.43 139,-29 127.62,-24.89 114.92,-21.14 103.57,-18.08"/>
<polygon fill="#63b8ff" stroke="#63b8ff" points="198.71,-57.91 209.25,-59.01 201.7,-51.58 198.71,-57.91"/>
</g>
</g>
</svg>
