<?xml version="1.0" encoding="UTF-8" standalone="no"?>
<!DOCTYPE svg PUBLIC "-//W3C//DTD SVG 1.1//EN"
 "http://www.w3.org/Graphics/SVG/1.1/DTD/svg11.dtd">
<!-- Generated by graphviz version 13.1.2 (20250808.2320)
 -->
<!-- Title: nanort::BVHBuildStatistics Pages: 1 -->
<svg width="174pt" height="120pt"
 viewBox="0.00 0.00 174.00 120.00" xmlns="http://www.w3.org/2000/svg" xmlns:xlink="http://www.w3.org/1999/xlink">
<g id="graph0" class="graph" transform="scale(1 1) rotate(0) translate(4 116)">
<title>nanort::BVHBuildStatistics</title>
<!-- Node1 -->
<g id="node1" class="node">
<title>Node1</title>
<g id="a_node1"><a xlink:title="BVH build statistics.">
<polygon fill="#999999" stroke="#666666" points="134.9,-20 1.9,-20 1.9,0 134.9,0 134.9,-20"/>
<text xml:space="preserve" text-anchor="middle" x="68.4" y="-6.5" font-family="Helvetica,sans-Serif" font-size="10.00">nanort::BVHBuildStatistics</text>
</a>
</g>
</g>
<!-- Node2 -->
<g id="node2" class="node">
<title>Node2</title>
<g id="a_node2"><a xlink:title=" ">
<polygon fill="white" stroke="#666666" points="28.8,-112 0,-112 0,-92 28.8,-92 28.8,-112"/>
<text xml:space="preserve" text-anchor="middle" x="14.4" y="-98.5" font-family="Helvetica,sans-Serif" font-size="10.00">int</text>
</a>
</g>
</g>
<!-- Node2&#45;&gt;Node1 -->
<g id="edge1" class="edge">
<title>Node2&#45;&gt;Node1</title>
<path fill="none" stroke="#9a32cd" stroke-dasharray="5,2" d="M9.72,-80.44C7.9,-67.33 7.83,-50.51 15.65,-38 20.56,-30.15 28.54,-24.48 36.82,-20.43"/>
<polygon fill="#9a32cd" stroke="#9a32cd" points="6.25,-80.94 11.53,-90.13 13.14,-79.66 6.25,-80.94"/>
<text xml:space="preserve" text-anchor="middle" x="58.03" y="-64.5" font-family="Helvetica,sans-Serif" font-size="10.00"> max_tree_depth</text>
<text xml:space="preserve" text-anchor="middle" x="58.03" y="-52.5" font-family="Helvetica,sans-Serif" font-size="10.00">num_branch_nodes</text>
<text xml:space="preserve" text-anchor="middle" x="58.03" y="-40.5" font-family="Helvetica,sans-Serif" font-size="10.00">num_leaf_nodes</text>
</g>
<!-- Node3 -->
<g id="node3" class="node">
<title>Node3</title>
<g id="a_node3"><a xlink:title=" ">
<polygon fill="white" stroke="#666666" points="139.78,-112 105.03,-112 105.03,-92 139.78,-92 139.78,-112"/>
<text xml:space="preserve" text-anchor="middle" x="122.4" y="-98.5" font-family="Helvetica,sans-Serif" font-size="10.00">float</text>
</a>
</g>
</g>
<!-- Node3&#45;&gt;Node1 -->
<g id="edge2" class="edge">
<title>Node3&#45;&gt;Node1</title>
<path fill="none" stroke="#9a32cd" stroke-dasharray="5,2" d="M118.24,-80.68C114.89,-67.67 109.26,-50.87 100.4,-38 95.7,-31.17 88.84,-25.07 82.68,-20.41"/>
<polygon fill="#9a32cd" stroke="#9a32cd" points="114.79,-81.31 120.44,-90.27 121.61,-79.74 114.79,-81.31"/>
<text xml:space="preserve" text-anchor="middle" x="141.14" y="-52.5" font-family="Helvetica,sans-Serif" font-size="10.00"> build_secs</text>
</g>
</g>
</svg>
