<?xml version="1.0" encoding="UTF-8" standalone="no"?>
<!DOCTYPE svg PUBLIC "-//W3C//DTD SVG 1.1//EN"
 "http://www.w3.org/Graphics/SVG/1.1/DTD/svg11.dtd">
<!-- Generated by graphviz version 13.1.2 (20250808.2320)
 -->
<!-- Title: nanort::BBox&lt; T &gt; Pages: 1 -->
<svg width="104pt" height="176pt"
 viewBox="0.00 0.00 104.00 176.00" xmlns="http://www.w3.org/2000/svg" xmlns:xlink="http://www.w3.org/1999/xlink">
<g id="graph0" class="graph" transform="scale(1 1) rotate(0) translate(4 172)">
<title>nanort::BBox&lt; T &gt;</title>
<!-- Node1 -->
<g id="node1" class="node">
<title>Node1</title>
<g id="a_node1"><a xlink:title="Bounding box.">
<polygon fill="#999999" stroke="#666666" points="96.25,-20 0,-20 0,0 96.25,0 96.25,-20"/>
<text xml:space="preserve" text-anchor="middle" x="48.12" y="-6.5" font-family="Helvetica,sans-Serif" font-size="10.00">nanort::BBox&lt; T &gt;</text>
</a>
</g>
</g>
<!-- Node2 -->
<g id="node2" class="node">
<title>Node2</title>
<g id="a_node2"><a xlink:href="a01443.html" target="_top" xlink:title=" ">
<polygon fill="white" stroke="#666666" points="94.75,-100 1.5,-100 1.5,-80 94.75,-80 94.75,-100"/>
<text xml:space="preserve" text-anchor="middle" x="48.12" y="-86.5" font-family="Helvetica,sans-Serif" font-size="10.00">nanort::real3&lt; T &gt;</text>
</a>
</g>
</g>
<!-- Node2&#45;&gt;Node1 -->
<g id="edge1" class="edge">
<title>Node2&#45;&gt;Node1</title>
<path fill="none" stroke="#9a32cd" stroke-dasharray="5,2" d="M48.12,-68.59C48.12,-52.94 48.12,-32.08 48.12,-20.24"/>
<polygon fill="#9a32cd" stroke="#9a32cd" points="44.63,-68.23 48.13,-78.23 51.63,-68.23 44.63,-68.23"/>
<text xml:space="preserve" text-anchor="middle" x="61.62" y="-52.5" font-family="Helvetica,sans-Serif" font-size="10.00"> bmax</text>
<text xml:space="preserve" text-anchor="middle" x="61.62" y="-40.5" font-family="Helvetica,sans-Serif" font-size="10.00">bmin</text>
</g>
<!-- Node3 -->
<g id="node3" class="node">
<title>Node3</title>
<g id="a_node3"><a xlink:title=" ">
<polygon fill="white" stroke="#666666" points="62.52,-168 33.73,-168 33.73,-148 62.52,-148 62.52,-168"/>
<text xml:space="preserve" text-anchor="middle" x="48.12" y="-154.5" font-family="Helvetica,sans-Serif" font-size="10.00">T</text>
</a>
</g>
</g>
<!-- Node3&#45;&gt;Node2 -->
<g id="edge2" class="edge">
<title>Node3&#45;&gt;Node2</title>
<path fill="none" stroke="#9a32cd" stroke-dasharray="5,2" d="M48.12,-136.28C48.12,-124.27 48.12,-109.74 48.12,-100.44"/>
<polygon fill="#9a32cd" stroke="#9a32cd" points="44.63,-136.03 48.13,-146.03 51.63,-136.03 44.63,-136.03"/>
<text xml:space="preserve" text-anchor="middle" x="52.25" y="-120.5" font-family="Helvetica,sans-Serif" font-size="10.00"> v</text>
</g>
</g>
</svg>
