<?xml version="1.0" encoding="UTF-8" standalone="no"?>
<!DOCTYPE svg PUBLIC "-//W3C//DTD SVG 1.1//EN"
 "http://www.w3.org/Graphics/SVG/1.1/DTD/svg11.dtd">
<!-- Generated by graphviz version 13.1.2 (20250808.2320)
 -->
<!-- Title: nanort::StackContainer&lt; TContainerType, stack_capacity &gt; Pages: 1 -->
<svg width="680pt" height="176pt"
 viewBox="0.00 0.00 680.00 176.00" xmlns="http://www.w3.org/2000/svg" xmlns:xlink="http://www.w3.org/1999/xlink">
<g id="graph0" class="graph" transform="scale(1 1) rotate(0) translate(4 172)">
<title>nanort::StackContainer&lt; TContainerType, stack_capacity &gt;</title>
<!-- Node1 -->
<g id="node1" class="node">
<title>Node1</title>
<g id="a_node1"><a xlink:title=" ">
<polygon fill="#999999" stroke="#666666" points="672.25,-93 549,-93 549,-49 672.25,-49 672.25,-93"/>
<text xml:space="preserve" text-anchor="start" x="557" y="-79.5" font-family="Helvetica,sans-Serif" font-size="10.00">nanort::StackContainer</text>
<text xml:space="preserve" text-anchor="start" x="557" y="-67.5" font-family="Helvetica,sans-Serif" font-size="10.00">&lt; TContainerType, stack</text>
<text xml:space="preserve" text-anchor="middle" x="610.62" y="-55.5" font-family="Helvetica,sans-Serif" font-size="10.00">_capacity &gt;</text>
</a>
</g>
</g>
<!-- Node2 -->
<g id="node2" class="node">
<title>Node2</title>
<g id="a_node2"><a xlink:href="a01427.html" target="_top" xlink:title=" ">
<polygon fill="white" stroke="#666666" points="271.25,-123 158.5,-123 158.5,-79 271.25,-79 271.25,-123"/>
<text xml:space="preserve" text-anchor="start" x="166.5" y="-109.5" font-family="Helvetica,sans-Serif" font-size="10.00">nanort::StackAllocator</text>
<text xml:space="preserve" text-anchor="start" x="166.5" y="-97.5" font-family="Helvetica,sans-Serif" font-size="10.00">&lt; T, stack_capacity &gt;</text>
<text xml:space="preserve" text-anchor="middle" x="214.88" y="-85.5" font-family="Helvetica,sans-Serif" font-size="10.00">::Source</text>
</a>
</g>
</g>
<!-- Node2&#45;&gt;Node1 -->
<g id="edge1" class="edge">
<title>Node2&#45;&gt;Node1</title>
<path fill="none" stroke="#9a32cd" stroke-dasharray="5,2" d="M282.55,-95.92C356.98,-90.25 476.41,-81.15 548.5,-75.66"/>
<polygon fill="#9a32cd" stroke="#9a32cd" points="282.67,-92.4 272.96,-96.65 283.2,-99.38 282.67,-92.4"/>
<text xml:space="preserve" text-anchor="middle" x="404.88" y="-93.42" font-family="Helvetica,sans-Serif" font-size="10.00"> stack_data_</text>
</g>
<!-- Node5 -->
<g id="node5" class="node">
<title>Node5</title>
<g id="a_node5"><a xlink:href="a01423.html" target="_top" xlink:title=" ">
<polygon fill="white" stroke="#666666" points="465,-168 344.75,-168 344.75,-124 465,-124 465,-168"/>
<text xml:space="preserve" text-anchor="start" x="352.75" y="-154.5" font-family="Helvetica,sans-Serif" font-size="10.00">nanort::StackAllocator</text>
<text xml:space="preserve" text-anchor="start" x="352.75" y="-142.5" font-family="Helvetica,sans-Serif" font-size="10.00">&lt; ContainedType, stack</text>
<text xml:space="preserve" text-anchor="middle" x="404.88" y="-130.5" font-family="Helvetica,sans-Serif" font-size="10.00">_capacity &gt;</text>
</a>
</g>
</g>
<!-- Node2&#45;&gt;Node5 -->
<g id="edge8" class="edge">
<title>Node2&#45;&gt;Node5</title>
<path fill="none" stroke="#9a32cd" stroke-dasharray="5,2" d="M282.52,-116.95C302.72,-121.79 324.76,-127.06 344.45,-131.77"/>
<polygon fill="#9a32cd" stroke="#9a32cd" points="283.53,-113.6 272.99,-114.67 281.9,-120.4 283.53,-113.6"/>
<text xml:space="preserve" text-anchor="middle" x="308" y="-130.03" font-family="Helvetica,sans-Serif" font-size="10.00"> source_</text>
</g>
<!-- Node3 -->
<g id="node3" class="node">
<title>Node3</title>
<g id="a_node3"><a xlink:title=" ">
<polygon fill="white" stroke="#666666" points="34.75,-73 0,-73 0,-53 34.75,-53 34.75,-73"/>
<text xml:space="preserve" text-anchor="middle" x="17.38" y="-59.5" font-family="Helvetica,sans-Serif" font-size="10.00">char</text>
</a>
</g>
</g>
<!-- Node3&#45;&gt;Node1 -->
<g id="edge4" class="edge">
<title>Node3&#45;&gt;Node1</title>
<path fill="none" stroke="#9a32cd" stroke-dasharray="5,2" d="M46.59,-63.38C137.33,-64.61 423.04,-68.48 548.98,-70.18"/>
<polygon fill="#9a32cd" stroke="#9a32cd" points="46.68,-59.88 36.63,-63.25 46.58,-66.88 46.68,-59.88"/>
<text xml:space="preserve" text-anchor="middle" x="308" y="-69.59" font-family="Helvetica,sans-Serif" font-size="10.00"> pad_</text>
</g>
<!-- Node3&#45;&gt;Node2 -->
<g id="edge2" class="edge">
<title>Node3&#45;&gt;Node2</title>
<path fill="none" stroke="#9a32cd" stroke-dasharray="5,2" d="M45.97,-68.36C74.99,-74 121.44,-83.03 158.13,-90.16"/>
<polygon fill="#9a32cd" stroke="#9a32cd" points="47.01,-65 36.53,-66.53 45.68,-71.87 47.01,-65"/>
<text xml:space="preserve" text-anchor="middle" x="96.62" y="-89.02" font-family="Helvetica,sans-Serif" font-size="10.00"> stack_buffer_</text>
</g>
<!-- Node4 -->
<g id="node4" class="node">
<title>Node4</title>
<g id="a_node4"><a xlink:title=" ">
<polygon fill="white" stroke="#666666" points="34.38,-126 0.38,-126 0.38,-106 34.38,-106 34.38,-126"/>
<text xml:space="preserve" text-anchor="middle" x="17.38" y="-112.5" font-family="Helvetica,sans-Serif" font-size="10.00">bool</text>
</a>
</g>
</g>
<!-- Node4&#45;&gt;Node2 -->
<g id="edge3" class="edge">
<title>Node4&#45;&gt;Node2</title>
<path fill="none" stroke="#9a32cd" stroke-dasharray="5,2" d="M46.02,-113.88C75.09,-111.65 121.63,-108.08 158.34,-105.26"/>
<polygon fill="#9a32cd" stroke="#9a32cd" points="45.92,-110.38 36.22,-114.63 46.45,-117.36 45.92,-110.38"/>
<text xml:space="preserve" text-anchor="middle" x="96.62" y="-115.63" font-family="Helvetica,sans-Serif" font-size="10.00"> used_stack_buffer_</text>
</g>
<!-- Node5&#45;&gt;Node1 -->
<g id="edge5" class="edge">
<title>Node5&#45;&gt;Node1</title>
<path fill="none" stroke="#9a32cd" stroke-dasharray="5,2" d="M476.37,-126.54C494.36,-121.05 513.54,-114.72 531,-108 542.12,-103.72 553.87,-98.56 564.79,-93.47"/>
<polygon fill="#9a32cd" stroke="#9a32cd" points="475.37,-123.19 466.8,-129.42 477.38,-129.89 475.37,-123.19"/>
<text xml:space="preserve" text-anchor="middle" x="507" y="-126.86" font-family="Helvetica,sans-Serif" font-size="10.00"> allocator_</text>
</g>
<!-- Node6 -->
<g id="node6" class="node">
<title>Node6</title>
<g id="a_node6"><a xlink:title=" ">
<polygon fill="white" stroke="#666666" points="262.62,-164 167.12,-164 167.12,-144 262.62,-144 262.62,-164"/>
<text xml:space="preserve" text-anchor="middle" x="214.88" y="-150.5" font-family="Helvetica,sans-Serif" font-size="10.00">std::allocator&lt; T &gt;</text>
</a>
</g>
</g>
<!-- Node6&#45;&gt;Node5 -->
<g id="edge6" class="edge">
<title>Node6&#45;&gt;Node5</title>
<path fill="none" stroke="#63b8ff" d="M274.18,-151.52C296.49,-150.57 321.95,-149.49 344.37,-148.53"/>
<polygon fill="#63b8ff" stroke="#63b8ff" points="274.18,-148.02 264.34,-151.94 274.48,-155.01 274.18,-148.02"/>
</g>
<!-- Node7 -->
<g id="node7" class="node">
<title>Node7</title>
<g id="a_node7"><a xlink:title=" ">
<polygon fill="white" stroke="#666666" points="31.77,-164 2.97,-164 2.97,-144 31.77,-144 31.77,-164"/>
<text xml:space="preserve" text-anchor="middle" x="17.38" y="-150.5" font-family="Helvetica,sans-Serif" font-size="10.00">T</text>
</a>
</g>
</g>
<!-- Node7&#45;&gt;Node6 -->
<g id="edge7" class="edge">
<title>Node7&#45;&gt;Node6</title>
<path fill="none" stroke="#9a32cd" stroke-dasharray="5,2" d="M43.6,-154C74.68,-154 128.12,-154 166.85,-154"/>
<polygon fill="#9a32cd" stroke="#9a32cd" points="43.64,-150.5 33.64,-154 43.64,-157.5 43.64,-150.5"/>
<text xml:space="preserve" text-anchor="middle" x="96.62" y="-156.5" font-family="Helvetica,sans-Serif" font-size="10.00"> elements</text>
</g>
<!-- Node8 -->
<g id="node8" class="node">
<title>Node8</title>
<g id="a_node8"><a xlink:title=" ">
<polygon fill="white" stroke="#666666" points="447.38,-20 362.38,-20 362.38,0 447.38,0 447.38,-20"/>
<text xml:space="preserve" text-anchor="middle" x="404.88" y="-6.5" font-family="Helvetica,sans-Serif" font-size="10.00">TContainerType</text>
</a>
</g>
</g>
<!-- Node8&#45;&gt;Node1 -->
<g id="edge9" class="edge">
<title>Node8&#45;&gt;Node1</title>
<path fill="none" stroke="#9a32cd" stroke-dasharray="5,2" d="M459.19,-9.74C481.83,-10.99 508.21,-14.28 531,-22 548.82,-28.03 566.78,-38.79 581.02,-48.69"/>
<polygon fill="#9a32cd" stroke="#9a32cd" points="459.38,-6.24 449.24,-9.32 459.09,-13.23 459.38,-6.24"/>
<text xml:space="preserve" text-anchor="middle" x="507" y="-24.5" font-family="Helvetica,sans-Serif" font-size="10.00"> container_</text>
</g>
</g>
</svg>
