<?xml version="1.0" encoding="UTF-8" standalone="no"?>
<!DOCTYPE svg PUBLIC "-//W3C//DTD SVG 1.1//EN"
 "http://www.w3.org/Graphics/SVG/1.1/DTD/svg11.dtd">
<!-- Generated by graphviz version 13.1.2 (20250808.2320)
 -->
<!-- Title: HF::RayTracer::EmbreeRayTracer::AddMesh Pages: 1 -->
<svg width="516pt" height="370pt"
 viewBox="0.00 0.00 516.00 370.00" xmlns="http://www.w3.org/2000/svg" xmlns:xlink="http://www.w3.org/1999/xlink">
<g id="graph0" class="graph" transform="scale(1 1) rotate(0) translate(4 366)">
<title>HF::RayTracer::EmbreeRayTracer::AddMesh</title>
<!-- Node1 -->
<g id="node1" class="node">
<title>Node1</title>
<g id="a_node1"><a xlink:title="Add a new mesh to the BVH with the specified ID. If False, then the addition failed,...">
<polygon fill="#999999" stroke="#666666" points="139,-200 0,-200 0,-168 139,-168 139,-200"/>
<text xml:space="preserve" text-anchor="start" x="8" y="-186.5" font-family="Helvetica,sans-Serif" font-size="10.00">HF::RayTracer::EmbreeRay</text>
<text xml:space="preserve" text-anchor="middle" x="69.5" y="-174.5" font-family="Helvetica,sans-Serif" font-size="10.00">Tracer::AddMesh</text>
</a>
</g>
</g>
<!-- Node2 -->
<g id="node2" class="node">
<title>Node2</title>
<g id="a_node2"><a xlink:href="a00464.html#aac8c0b245ea813969c50b6496cc67945" target="_top" xlink:title="Package raw arrays of floats and indices in buffers to the required Embree types.">
<polygon fill="white" stroke="#666666" points="317.38,-362 190.38,-362 190.38,-330 317.38,-330 317.38,-362"/>
<text xml:space="preserve" text-anchor="start" x="198.38" y="-348.5" font-family="Helvetica,sans-Serif" font-size="10.00">HF::RayTracer::buffersTo</text>
<text xml:space="preserve" text-anchor="middle" x="253.88" y="-336.5" font-family="Helvetica,sans-Serif" font-size="10.00">Structs</text>
</a>
</g>
</g>
<!-- Node1&#45;&gt;Node2 -->
<g id="edge1" class="edge">
<title>Node1&#45;&gt;Node2</title>
<path fill="none" stroke="#63b8ff" d="M78.5,-200.08C93.5,-228.63 128.57,-288.21 175,-321 176.59,-322.13 178.24,-323.2 179.93,-324.23"/>
<polygon fill="#63b8ff" stroke="#63b8ff" points="178.22,-327.28 188.68,-328.92 181.52,-321.11 178.22,-327.28"/>
</g>
<!-- Node3 -->
<g id="node3" class="node">
<title>Node3</title>
<g id="a_node3"><a xlink:href="a01411.html#aa602f6c44fa5230477642942ebc3216e" target="_top" xlink:title="Create a new instance of RTCGeometry from a triangle and vertex buffer.">
<polygon fill="white" stroke="#666666" points="332.75,-312 175,-312 175,-268 332.75,-268 332.75,-312"/>
<text xml:space="preserve" text-anchor="start" x="183" y="-298.5" font-family="Helvetica,sans-Serif" font-size="10.00">HF::RayTracer::EmbreeRay</text>
<text xml:space="preserve" text-anchor="start" x="183" y="-286.5" font-family="Helvetica,sans-Serif" font-size="10.00">Tracer::ConstructGeometryFrom</text>
<text xml:space="preserve" text-anchor="middle" x="253.88" y="-274.5" font-family="Helvetica,sans-Serif" font-size="10.00">Buffers</text>
</a>
</g>
</g>
<!-- Node1&#45;&gt;Node3 -->
<g id="edge2" class="edge">
<title>Node1&#45;&gt;Node3</title>
<path fill="none" stroke="#63b8ff" d="M90.34,-200.49C110.67,-216.84 143.66,-241.85 175,-259 177.32,-260.27 179.69,-261.51 182.12,-262.73"/>
<polygon fill="#63b8ff" stroke="#63b8ff" points="180.36,-265.76 190.89,-266.92 183.37,-259.45 180.36,-265.76"/>
</g>
<!-- Node4 -->
<g id="node4" class="node">
<title>Node4</title>
<g id="a_node4"><a xlink:href="a01351.html#af2d1b696c55aa036cff585d2e7eba50b" target="_top" xlink:title="A copy of every vertex in this array.">
<polygon fill="white" stroke="#666666" points="316.25,-250 191.5,-250 191.5,-218 316.25,-218 316.25,-250"/>
<text xml:space="preserve" text-anchor="start" x="199.5" y="-236.5" font-family="Helvetica,sans-Serif" font-size="10.00">HF::Geometry::MeshInfo</text>
<text xml:space="preserve" text-anchor="middle" x="253.88" y="-224.5" font-family="Helvetica,sans-Serif" font-size="10.00">::GetIndexedVertices</text>
</a>
</g>
</g>
<!-- Node1&#45;&gt;Node4 -->
<g id="edge3" class="edge">
<title>Node1&#45;&gt;Node4</title>
<path fill="none" stroke="#63b8ff" d="M130.47,-200.44C146.91,-204.95 164.88,-209.88 181.87,-214.53"/>
<polygon fill="#63b8ff" stroke="#63b8ff" points="180.84,-217.88 191.41,-217.15 182.69,-211.13 180.84,-217.88"/>
</g>
<!-- Node5 -->
<g id="node5" class="node">
<title>Node5</title>
<g id="a_node5"><a xlink:href="a01351.html#afddea10734ba213b2bb5cc148c24c942" target="_top" xlink:title="Retrieve a copy of this mesh&#39;s index buffer as a 1D array.">
<polygon fill="white" stroke="#666666" points="316.25,-200 191.5,-200 191.5,-168 316.25,-168 316.25,-200"/>
<text xml:space="preserve" text-anchor="start" x="199.5" y="-186.5" font-family="Helvetica,sans-Serif" font-size="10.00">HF::Geometry::MeshInfo</text>
<text xml:space="preserve" text-anchor="middle" x="253.88" y="-174.5" font-family="Helvetica,sans-Serif" font-size="10.00">::getRawIndices</text>
</a>
</g>
</g>
<!-- Node1&#45;&gt;Node5 -->
<g id="edge4" class="edge">
<title>Node1&#45;&gt;Node5</title>
<path fill="none" stroke="#63b8ff" d="M139.45,-184C152.55,-184 166.31,-184 179.55,-184"/>
<polygon fill="#63b8ff" stroke="#63b8ff" points="179.51,-187.5 189.51,-184 179.51,-180.5 179.51,-187.5"/>
</g>
<!-- Node6 -->
<g id="node6" class="node">
<title>Node6</title>
<g id="a_node6"><a xlink:href="a01411.html#a6ee1e15bc515878b156bc6a3778f8033" target="_top" xlink:title="Attach geometry to the current scene.">
<polygon fill="white" stroke="#666666" points="323.38,-132 184.38,-132 184.38,-100 323.38,-100 323.38,-132"/>
<text xml:space="preserve" text-anchor="start" x="192.38" y="-118.5" font-family="Helvetica,sans-Serif" font-size="10.00">HF::RayTracer::EmbreeRay</text>
<text xml:space="preserve" text-anchor="middle" x="253.88" y="-106.5" font-family="Helvetica,sans-Serif" font-size="10.00">Tracer::InsertGeom</text>
</a>
</g>
</g>
<!-- Node1&#45;&gt;Node6 -->
<g id="edge5" class="edge">
<title>Node1&#45;&gt;Node6</title>
<path fill="none" stroke="#63b8ff" d="M114.65,-167.54C139.76,-158.18 171.42,-146.37 198.1,-136.42"/>
<polygon fill="#63b8ff" stroke="#63b8ff" points="199.25,-139.73 207.4,-132.96 196.81,-133.17 199.25,-139.73"/>
</g>
<!-- Node8 -->
<g id="node8" class="node">
<title>Node8</title>
<g id="a_node8"><a xlink:href="a01351.html#a5fa8cc590a7bd0764a7903ed521e2fc4" target="_top" xlink:title="Calculate the total number of triangles in this mesh.">
<polygon fill="white" stroke="#666666" points="316.25,-82 191.5,-82 191.5,-50 316.25,-50 316.25,-82"/>
<text xml:space="preserve" text-anchor="start" x="199.5" y="-68.5" font-family="Helvetica,sans-Serif" font-size="10.00">HF::Geometry::MeshInfo</text>
<text xml:space="preserve" text-anchor="middle" x="253.88" y="-56.5" font-family="Helvetica,sans-Serif" font-size="10.00">::NumTris</text>
</a>
</g>
</g>
<!-- Node1&#45;&gt;Node8 -->
<g id="edge8" class="edge">
<title>Node1&#45;&gt;Node8</title>
<path fill="none" stroke="#63b8ff" d="M84.83,-167.58C103.62,-146.98 138.52,-111.84 175,-91 177.34,-89.66 179.76,-88.39 182.24,-87.17"/>
<polygon fill="#63b8ff" stroke="#63b8ff" points="183.6,-90.39 191.3,-83.11 180.74,-84.01 183.6,-90.39"/>
</g>
<!-- Node9 -->
<g id="node9" class="node">
<title>Node9</title>
<g id="a_node9"><a xlink:href="a01351.html#a70a6f6b9270d47e0b8428cdc15b707d3" target="_top" xlink:title="Determine how many vertices are in this mesh.">
<polygon fill="white" stroke="#666666" points="316.25,-32 191.5,-32 191.5,0 316.25,0 316.25,-32"/>
<text xml:space="preserve" text-anchor="start" x="199.5" y="-18.5" font-family="Helvetica,sans-Serif" font-size="10.00">HF::Geometry::MeshInfo</text>
<text xml:space="preserve" text-anchor="middle" x="253.88" y="-6.5" font-family="Helvetica,sans-Serif" font-size="10.00">::NumVerts</text>
</a>
</g>
</g>
<!-- Node1&#45;&gt;Node9 -->
<g id="edge9" class="edge">
<title>Node1&#45;&gt;Node9</title>
<path fill="none" stroke="#63b8ff" d="M78.08,-167.67C92.65,-138.06 127.38,-75.37 175,-41 176.93,-39.6 178.95,-38.28 181.03,-37.04"/>
<polygon fill="#63b8ff" stroke="#63b8ff" points="182.59,-40.17 189.8,-32.41 179.32,-33.98 182.59,-40.17"/>
</g>
<!-- Node6&#45;&gt;Node6 -->
<g id="edge7" class="edge">
<title>Node6&#45;&gt;Node6</title>
<path fill="none" stroke="#63b8ff" d="M220.96,-132.44C214.81,-141.58 225.79,-150 253.88,-150 269.24,-150 279.48,-147.48 284.6,-143.71"/>
<polygon fill="#63b8ff" stroke="#63b8ff" points="288.03,-144.41 286.5,-133.93 281.16,-143.08 288.03,-144.41"/>
</g>
<!-- Node7 -->
<g id="node7" class="node">
<title>Node7</title>
<g id="a_node7"><a xlink:href="a00464.html#a19e11d13f73136d6819b8abee57b0fd9" target="_top" xlink:title="Check an embree device for errors.">
<polygon fill="white" stroke="#666666" points="507.75,-126 368.75,-126 368.75,-106 507.75,-106 507.75,-126"/>
<text xml:space="preserve" text-anchor="middle" x="438.25" y="-112.5" font-family="Helvetica,sans-Serif" font-size="10.00">HF::RayTracer::CheckState</text>
</a>
</g>
</g>
<!-- Node6&#45;&gt;Node7 -->
<g id="edge6" class="edge">
<title>Node6&#45;&gt;Node7</title>
<path fill="none" stroke="#63b8ff" d="M323.82,-116C334.68,-116 345.98,-116 357.06,-116"/>
<polygon fill="#63b8ff" stroke="#63b8ff" points="356.99,-119.5 366.99,-116 356.99,-112.5 356.99,-119.5"/>
</g>
</g>
</svg>
