<?xml version="1.0" encoding="UTF-8" standalone="no"?>
<!DOCTYPE svg PUBLIC "-//W3C//DTD SVG 1.1//EN"
 "http://www.w3.org/Graphics/SVG/1.1/DTD/svg11.dtd">
<!-- Generated by graphviz version 13.1.2 (20250808.2320)
 -->
<!-- Title: nanort::StackVector&lt; T, stack_capacity &gt; Pages: 1 -->
<svg width="965pt" height="165pt"
 viewBox="0.00 0.00 965.00 165.00" xmlns="http://www.w3.org/2000/svg" xmlns:xlink="http://www.w3.org/1999/xlink">
<g id="graph0" class="graph" transform="scale(1 1) rotate(0) translate(4 160.74)">
<title>nanort::StackVector&lt; T, stack_capacity &gt;</title>
<!-- Node1 -->
<g id="node1" class="node">
<title>Node1</title>
<g id="a_node1"><a xlink:title=" ">
<polygon fill="#999999" stroke="#666666" points="956.5,-114 846,-114 846,-82 956.5,-82 956.5,-114"/>
<text xml:space="preserve" text-anchor="start" x="854" y="-100.5" font-family="Helvetica,sans-Serif" font-size="10.00">nanort::StackVector</text>
<text xml:space="preserve" text-anchor="middle" x="901.25" y="-88.5" font-family="Helvetica,sans-Serif" font-size="10.00">&lt; T, stack_capacity &gt;</text>
</a>
</g>
</g>
<!-- Node2 -->
<g id="node2" class="node">
<title>Node2</title>
<g id="a_node2"><a xlink:href="a01435.html" target="_top" xlink:title=" ">
<polygon fill="white" stroke="#666666" points="809,-126 654.25,-126 654.25,-70 809,-70 809,-126"/>
<text xml:space="preserve" text-anchor="start" x="662.25" y="-112.5" font-family="Helvetica,sans-Serif" font-size="10.00">nanort::StackContainer</text>
<text xml:space="preserve" text-anchor="start" x="662.25" y="-100.5" font-family="Helvetica,sans-Serif" font-size="10.00">&lt; std::vector&lt; T, StackAllocator</text>
<text xml:space="preserve" text-anchor="start" x="662.25" y="-88.5" font-family="Helvetica,sans-Serif" font-size="10.00">&lt; T, stack_capacity &gt; &gt;, stack</text>
<text xml:space="preserve" text-anchor="middle" x="731.62" y="-76.5" font-family="Helvetica,sans-Serif" font-size="10.00">_capacity &gt;</text>
</a>
</g>
</g>
<!-- Node2&#45;&gt;Node1 -->
<g id="edge1" class="edge">
<title>Node2&#45;&gt;Node1</title>
<path fill="none" stroke="#63b8ff" d="M820.47,-98C829.14,-98 837.75,-98 845.93,-98"/>
<polygon fill="#63b8ff" stroke="#63b8ff" points="820.59,-94.5 810.59,-98 820.59,-101.5 820.59,-94.5"/>
</g>
<!-- Node3 -->
<g id="node3" class="node">
<title>Node3</title>
<g id="a_node3"><a xlink:href="a01427.html" target="_top" xlink:title=" ">
<polygon fill="white" stroke="#666666" points="271.25,-155 158.5,-155 158.5,-111 271.25,-111 271.25,-155"/>
<text xml:space="preserve" text-anchor="start" x="166.5" y="-141.5" font-family="Helvetica,sans-Serif" font-size="10.00">nanort::StackAllocator</text>
<text xml:space="preserve" text-anchor="start" x="166.5" y="-129.5" font-family="Helvetica,sans-Serif" font-size="10.00">&lt; T, stack_capacity &gt;</text>
<text xml:space="preserve" text-anchor="middle" x="214.88" y="-117.5" font-family="Helvetica,sans-Serif" font-size="10.00">::Source</text>
</a>
</g>
</g>
<!-- Node3&#45;&gt;Node2 -->
<g id="edge2" class="edge">
<title>Node3&#45;&gt;Node2</title>
<path fill="none" stroke="#9a32cd" stroke-dasharray="5,2" d="M282.84,-139.79C366.6,-146.46 513.9,-152.11 636.25,-125 641.99,-123.73 647.9,-122.31 653.82,-120.8"/>
<polygon fill="#9a32cd" stroke="#9a32cd" points="283.21,-136.31 272.95,-138.97 282.63,-143.29 283.21,-136.31"/>
<text xml:space="preserve" text-anchor="middle" x="513.12" y="-147.24" font-family="Helvetica,sans-Serif" font-size="10.00"> stack_data_</text>
</g>
<!-- Node7 -->
<g id="node7" class="node">
<title>Node7</title>
<g id="a_node7"><a xlink:href="a01423.html" target="_top" xlink:title=" ">
<polygon fill="white" stroke="#666666" points="573.25,-88 453,-88 453,-44 573.25,-44 573.25,-88"/>
<text xml:space="preserve" text-anchor="start" x="461" y="-74.5" font-family="Helvetica,sans-Serif" font-size="10.00">nanort::StackAllocator</text>
<text xml:space="preserve" text-anchor="start" x="461" y="-62.5" font-family="Helvetica,sans-Serif" font-size="10.00">&lt; ContainedType, stack</text>
<text xml:space="preserve" text-anchor="middle" x="513.12" y="-50.5" font-family="Helvetica,sans-Serif" font-size="10.00">_capacity &gt;</text>
</a>
</g>
</g>
<!-- Node3&#45;&gt;Node7 -->
<g id="edge9" class="edge">
<title>Node3&#45;&gt;Node7</title>
<path fill="none" stroke="#9a32cd" stroke-dasharray="5,2" d="M282.52,-117.93C333.58,-106.38 403.39,-90.59 452.59,-79.47"/>
<polygon fill="#9a32cd" stroke="#9a32cd" points="282.06,-114.44 273.07,-120.06 283.6,-121.27 282.06,-114.44"/>
<text xml:space="preserve" text-anchor="middle" x="362.12" y="-117.53" font-family="Helvetica,sans-Serif" font-size="10.00"> source_</text>
</g>
<!-- Node4 -->
<g id="node4" class="node">
<title>Node4</title>
<g id="a_node4"><a xlink:title=" ">
<polygon fill="white" stroke="#666666" points="34.75,-144 0,-144 0,-124 34.75,-124 34.75,-144"/>
<text xml:space="preserve" text-anchor="middle" x="17.38" y="-130.5" font-family="Helvetica,sans-Serif" font-size="10.00">char</text>
</a>
</g>
</g>
<!-- Node4&#45;&gt;Node3 -->
<g id="edge3" class="edge">
<title>Node4&#45;&gt;Node3</title>
<path fill="none" stroke="#9a32cd" stroke-dasharray="5,2" d="M46.36,-133.86C75.4,-133.71 121.6,-133.47 158.13,-133.29"/>
<polygon fill="#9a32cd" stroke="#9a32cd" points="46.54,-130.36 36.56,-133.91 46.57,-137.36 46.54,-130.36"/>
<text xml:space="preserve" text-anchor="middle" x="96.62" y="-136.31" font-family="Helvetica,sans-Serif" font-size="10.00"> stack_buffer_</text>
</g>
<!-- Node5 -->
<g id="node5" class="node">
<title>Node5</title>
<g id="a_node5"><a xlink:title=" ">
<polygon fill="white" stroke="#666666" points="34.38,-106 0.38,-106 0.38,-86 34.38,-86 34.38,-106"/>
<text xml:space="preserve" text-anchor="middle" x="17.38" y="-92.5" font-family="Helvetica,sans-Serif" font-size="10.00">bool</text>
</a>
</g>
</g>
<!-- Node5&#45;&gt;Node3 -->
<g id="edge4" class="edge">
<title>Node5&#45;&gt;Node3</title>
<path fill="none" stroke="#9a32cd" stroke-dasharray="5,2" d="M45.68,-100.34C70.48,-104.36 108.02,-110.67 140.5,-117 146.26,-118.12 152.26,-119.34 158.24,-120.6"/>
<polygon fill="#9a32cd" stroke="#9a32cd" points="46.54,-96.93 36.11,-98.8 45.43,-103.84 46.54,-96.93"/>
<text xml:space="preserve" text-anchor="middle" x="96.62" y="-119.5" font-family="Helvetica,sans-Serif" font-size="10.00"> used_stack_buffer_</text>
</g>
<!-- Node6 -->
<g id="node6" class="node">
<title>Node6</title>
<g id="a_node6"><a xlink:title=" ">
<polygon fill="white" stroke="#666666" points="551.5,-126 474.75,-126 474.75,-106 551.5,-106 551.5,-126"/>
<text xml:space="preserve" text-anchor="middle" x="513.12" y="-112.5" font-family="Helvetica,sans-Serif" font-size="10.00">unsigned char</text>
</a>
</g>
</g>
<!-- Node6&#45;&gt;Node2 -->
<g id="edge5" class="edge">
<title>Node6&#45;&gt;Node2</title>
<path fill="none" stroke="#9a32cd" stroke-dasharray="5,2" d="M563.23,-111.92C590.01,-109.69 623.75,-106.89 653.91,-104.38"/>
<polygon fill="#9a32cd" stroke="#9a32cd" points="563.02,-108.42 553.34,-112.74 563.6,-115.4 563.02,-108.42"/>
<text xml:space="preserve" text-anchor="middle" x="613.75" y="-111.64" font-family="Helvetica,sans-Serif" font-size="10.00"> pad_</text>
</g>
<!-- Node7&#45;&gt;Node2 -->
<g id="edge6" class="edge">
<title>Node7&#45;&gt;Node2</title>
<path fill="none" stroke="#9a32cd" stroke-dasharray="5,2" d="M584.87,-76.46C606.94,-79.72 631.37,-83.33 653.83,-86.65"/>
<polygon fill="#9a32cd" stroke="#9a32cd" points="585.47,-73.01 575.07,-75.01 584.45,-79.93 585.47,-73.01"/>
<text xml:space="preserve" text-anchor="middle" x="613.75" y="-86.42" font-family="Helvetica,sans-Serif" font-size="10.00"> allocator_</text>
</g>
<!-- Node8 -->
<g id="node8" class="node">
<title>Node8</title>
<g id="a_node8"><a xlink:title=" ">
<polygon fill="white" stroke="#666666" points="262.62,-72 167.12,-72 167.12,-52 262.62,-52 262.62,-72"/>
<text xml:space="preserve" text-anchor="middle" x="214.88" y="-58.5" font-family="Helvetica,sans-Serif" font-size="10.00">std::allocator&lt; T &gt;</text>
</a>
</g>
</g>
<!-- Node8&#45;&gt;Node7 -->
<g id="edge7" class="edge">
<title>Node8&#45;&gt;Node7</title>
<path fill="none" stroke="#63b8ff" d="M274.1,-62.79C325.68,-63.48 400.66,-64.5 452.63,-65.2"/>
<polygon fill="#63b8ff" stroke="#63b8ff" points="274.38,-59.29 264.33,-62.65 274.28,-66.29 274.38,-59.29"/>
</g>
<!-- Node9 -->
<g id="node9" class="node">
<title>Node9</title>
<g id="a_node9"><a xlink:title=" ">
<polygon fill="white" stroke="#666666" points="31.77,-52 2.97,-52 2.97,-32 31.77,-32 31.77,-52"/>
<text xml:space="preserve" text-anchor="middle" x="17.38" y="-38.5" font-family="Helvetica,sans-Serif" font-size="10.00">T</text>
</a>
</g>
</g>
<!-- Node9&#45;&gt;Node8 -->
<g id="edge8" class="edge">
<title>Node9&#45;&gt;Node8</title>
<path fill="none" stroke="#9a32cd" stroke-dasharray="5,2" d="M43.19,-44.54C74.2,-47.71 127.95,-53.21 166.85,-57.19"/>
<polygon fill="#9a32cd" stroke="#9a32cd" points="43.93,-41.1 33.63,-43.56 43.22,-48.06 43.93,-41.1"/>
<text xml:space="preserve" text-anchor="middle" x="96.62" y="-56.88" font-family="Helvetica,sans-Serif" font-size="10.00"> elements</text>
</g>
<!-- Node10 -->
<g id="node10" class="node">
<title>Node10</title>
<g id="a_node10"><a xlink:title=" ">
<polygon fill="white" stroke="#666666" points="435,-32 289.25,-32 289.25,0 435,0 435,-32"/>
<text xml:space="preserve" text-anchor="start" x="297.25" y="-18.5" font-family="Helvetica,sans-Serif" font-size="10.00">std::vector&lt; T, StackAllocator</text>
<text xml:space="preserve" text-anchor="middle" x="362.12" y="-6.5" font-family="Helvetica,sans-Serif" font-size="10.00">&lt; T, stack_capacity &gt; &gt;</text>
</a>
</g>
</g>
<!-- Node9&#45;&gt;Node10 -->
<g id="edge11" class="edge">
<title>Node9&#45;&gt;Node10</title>
<path fill="none" stroke="#9a32cd" stroke-dasharray="5,2" d="M42.83,-32.5C46.12,-31.5 49.49,-30.63 52.75,-30 132.47,-14.62 225.84,-12.54 288.77,-13.4"/>
<polygon fill="#9a32cd" stroke="#9a32cd" points="41.93,-29.11 33.6,-35.66 44.2,-35.73 41.93,-29.11"/>
<text xml:space="preserve" text-anchor="middle" x="96.62" y="-32.5" font-family="Helvetica,sans-Serif" font-size="10.00"> elements</text>
</g>
<!-- Node10&#45;&gt;Node2 -->
<g id="edge10" class="edge">
<title>Node10&#45;&gt;Node2</title>
<path fill="none" stroke="#9a32cd" stroke-dasharray="5,2" d="M446.43,-10.99C485.45,-10.62 532.26,-13.01 573.25,-23 612.65,-32.6 653.93,-52.7 684.31,-69.68"/>
<polygon fill="#9a32cd" stroke="#9a32cd" points="446.56,-7.49 436.62,-11.16 446.68,-14.49 446.56,-7.49"/>
<text xml:space="preserve" text-anchor="middle" x="513.12" y="-25.5" font-family="Helvetica,sans-Serif" font-size="10.00"> container_</text>
</g>
</g>
</svg>
