<?xml version="1.0" encoding="UTF-8" standalone="no"?>
<!DOCTYPE svg PUBLIC "-//W3C//DTD SVG 1.1//EN"
 "http://www.w3.org/Graphics/SVG/1.1/DTD/svg11.dtd">
<!-- Generated by graphviz version 13.1.2 (20250808.2320)
 -->
<!-- Title: nanort::TriangleSAHPred&lt; T &gt; Pages: 1 -->
<svg width="230pt" height="108pt"
 viewBox="0.00 0.00 230.00 108.00" xmlns="http://www.w3.org/2000/svg" xmlns:xlink="http://www.w3.org/1999/xlink">
<g id="graph0" class="graph" transform="scale(1 1) rotate(0) translate(4 104)">
<title>nanort::TriangleSAHPred&lt; T &gt;</title>
<!-- Node1 -->
<g id="node1" class="node">
<title>Node1</title>
<g id="a_node1"><a xlink:title=" ">
<polygon fill="#999999" stroke="#666666" points="148,-20 0,-20 0,0 148,0 148,-20"/>
<text xml:space="preserve" text-anchor="middle" x="74" y="-6.5" font-family="Helvetica,sans-Serif" font-size="10.00">nanort::TriangleSAHPred&lt; T &gt;</text>
</a>
</g>
</g>
<!-- Node2 -->
<g id="node2" class="node">
<title>Node2</title>
<g id="a_node2"><a xlink:title=" ">
<polygon fill="white" stroke="#666666" points="36.4,-100 7.6,-100 7.6,-80 36.4,-80 36.4,-100"/>
<text xml:space="preserve" text-anchor="middle" x="22" y="-86.5" font-family="Helvetica,sans-Serif" font-size="10.00">int</text>
</a>
</g>
</g>
<!-- Node2&#45;&gt;Node1 -->
<g id="edge1" class="edge">
<title>Node2&#45;&gt;Node1</title>
<path fill="none" stroke="#9a32cd" stroke-dasharray="5,2" d="M26.72,-68.77C29.68,-58.88 34.2,-47.17 40.75,-38 45.68,-31.1 52.81,-24.99 59.21,-20.34"/>
<polygon fill="#9a32cd" stroke="#9a32cd" points="23.41,-67.61 24.24,-78.17 30.18,-69.39 23.41,-67.61"/>
<text xml:space="preserve" text-anchor="middle" x="55.38" y="-52.5" font-family="Helvetica,sans-Serif" font-size="10.00"> axis_</text>
<text xml:space="preserve" text-anchor="middle" x="55.38" y="-40.5" font-family="Helvetica,sans-Serif" font-size="10.00">faces_</text>
</g>
<!-- Node3 -->
<g id="node3" class="node">
<title>Node3</title>
<g id="a_node3"><a xlink:title=" ">
<polygon fill="white" stroke="#666666" points="91.38,-100 56.62,-100 56.62,-80 91.38,-80 91.38,-100"/>
<text xml:space="preserve" text-anchor="middle" x="74" y="-86.5" font-family="Helvetica,sans-Serif" font-size="10.00">float</text>
</a>
</g>
</g>
<!-- Node3&#45;&gt;Node1 -->
<g id="edge2" class="edge">
<title>Node3&#45;&gt;Node1</title>
<path fill="none" stroke="#9a32cd" stroke-dasharray="5,2" d="M74,-68.59C74,-52.94 74,-32.08 74,-20.24"/>
<polygon fill="#9a32cd" stroke="#9a32cd" points="70.5,-68.23 74,-78.23 77.5,-68.23 70.5,-68.23"/>
<text xml:space="preserve" text-anchor="middle" x="93.88" y="-52.5" font-family="Helvetica,sans-Serif" font-size="10.00"> pos_</text>
<text xml:space="preserve" text-anchor="middle" x="93.88" y="-40.5" font-family="Helvetica,sans-Serif" font-size="10.00">vertices_</text>
</g>
<!-- Node4 -->
<g id="node4" class="node">
<title>Node4</title>
<g id="a_node4"><a xlink:title=" ">
<polygon fill="white" stroke="#666666" points="158.12,-100 115.88,-100 115.88,-80 158.12,-80 158.12,-100"/>
<text xml:space="preserve" text-anchor="middle" x="137" y="-86.5" font-family="Helvetica,sans-Serif" font-size="10.00">size_t</text>
</a>
</g>
</g>
<!-- Node4&#45;&gt;Node1 -->
<g id="edge3" class="edge">
<title>Node4&#45;&gt;Node1</title>
<path fill="none" stroke="#9a32cd" stroke-dasharray="5,2" d="M131.46,-69.16C127.93,-59.06 122.57,-47.03 115,-38 108.98,-30.82 100.56,-24.82 92.92,-20.32"/>
<polygon fill="#9a32cd" stroke="#9a32cd" points="128.02,-69.9 134.34,-78.41 134.7,-67.82 128.02,-69.9"/>
<text xml:space="preserve" text-anchor="middle" x="175.39" y="-46.5" font-family="Helvetica,sans-Serif" font-size="10.00"> vertex_stride_bytes_</text>
</g>
</g>
</svg>
