<?xml version="1.0" encoding="UTF-8" standalone="no"?>
<!DOCTYPE svg PUBLIC "-//W3C//DTD SVG 1.1//EN"
 "http://www.w3.org/Graphics/SVG/1.1/DTD/svg11.dtd">
<!-- Generated by graphviz version 13.1.2 (20250808.2320)
 -->
<!-- Title: nanort::BVHAccel&lt; T &gt; Pages: 1 -->
<svg width="793pt" height="472pt"
 viewBox="0.00 0.00 793.00 472.00" xmlns="http://www.w3.org/2000/svg" xmlns:xlink="http://www.w3.org/1999/xlink">
<g id="graph0" class="graph" transform="scale(1 1) rotate(0) translate(4 468)">
<title>nanort::BVHAccel&lt; T &gt;</title>
<!-- Node1 -->
<g id="node1" class="node">
<title>Node1</title>
<g id="a_node1"><a xlink:title="Bounding Volume Hierarchy acceleration.">
<polygon fill="#999999" stroke="#666666" points="785,-348 667,-348 667,-328 785,-328 785,-348"/>
<text xml:space="preserve" text-anchor="middle" x="726" y="-334.5" font-family="Helvetica,sans-Serif" font-size="10.00">nanort::BVHAccel&lt; T &gt;</text>
</a>
</g>
</g>
<!-- Node2 -->
<g id="node2" class="node">
<title>Node2</title>
<g id="a_node2"><a xlink:title=" ">
<polygon fill="white" stroke="#666666" points="591.25,-372 492.75,-372 492.75,-340 591.25,-340 591.25,-372"/>
<text xml:space="preserve" text-anchor="start" x="500.75" y="-358.5" font-family="Helvetica,sans-Serif" font-size="10.00">std::vector&lt; nanort</text>
<text xml:space="preserve" text-anchor="middle" x="542" y="-346.5" font-family="Helvetica,sans-Serif" font-size="10.00">::BVHNode&lt; T &gt; &gt;</text>
</a>
</g>
</g>
<!-- Node2&#45;&gt;Node1 -->
<g id="edge1" class="edge">
<title>Node2&#45;&gt;Node1</title>
<path fill="none" stroke="#9a32cd" stroke-dasharray="5,2" d="M602.47,-350.12C623.11,-348.08 646.21,-345.79 666.75,-343.76"/>
<polygon fill="#9a32cd" stroke="#9a32cd" points="602.41,-346.61 592.8,-351.07 603.1,-353.57 602.41,-346.61"/>
<text xml:space="preserve" text-anchor="middle" x="629.12" y="-351.64" font-family="Helvetica,sans-Serif" font-size="10.00"> nodes_</text>
</g>
<!-- Node3 -->
<g id="node3" class="node">
<title>Node3</title>
<g id="a_node3"><a xlink:href="a01451.html" target="_top" xlink:title=" ">
<polygon fill="white" stroke="#666666" points="330.12,-364 213.62,-364 213.62,-344 330.12,-344 330.12,-364"/>
<text xml:space="preserve" text-anchor="middle" x="271.88" y="-350.5" font-family="Helvetica,sans-Serif" font-size="10.00">nanort::BVHNode&lt; T &gt;</text>
</a>
</g>
</g>
<!-- Node3&#45;&gt;Node2 -->
<g id="edge2" class="edge">
<title>Node3&#45;&gt;Node2</title>
<path fill="none" stroke="#9a32cd" stroke-dasharray="5,2" d="M341.76,-354.51C388.98,-354.87 450.45,-355.32 492.55,-355.64"/>
<polygon fill="#9a32cd" stroke="#9a32cd" points="341.93,-351.02 331.91,-354.44 341.88,-358.01 341.93,-351.02"/>
<text xml:space="preserve" text-anchor="middle" x="419.5" y="-357.96" font-family="Helvetica,sans-Serif" font-size="10.00"> elements</text>
</g>
<!-- Node4 -->
<g id="node4" class="node">
<title>Node4</title>
<g id="a_node4"><a xlink:title=" ">
<polygon fill="white" stroke="#666666" points="52.77,-212 23.98,-212 23.98,-192 52.77,-192 52.77,-212"/>
<text xml:space="preserve" text-anchor="middle" x="38.38" y="-198.5" font-family="Helvetica,sans-Serif" font-size="10.00">T</text>
</a>
</g>
</g>
<!-- Node4&#45;&gt;Node3 -->
<g id="edge3" class="edge">
<title>Node4&#45;&gt;Node3</title>
<path fill="none" stroke="#9a32cd" stroke-dasharray="5,2" d="M63.34,-212.95C73.01,-217.22 84.33,-222.03 94.75,-226 131.82,-240.12 152.46,-224.97 179.5,-254 201.69,-277.82 176,-300.55 197.5,-325 204.83,-333.33 214.86,-339.29 225.16,-343.55"/>
<polygon fill="#9a32cd" stroke="#9a32cd" points="64.83,-209.78 54.27,-208.88 61.96,-216.16 64.83,-209.78"/>
<text xml:space="preserve" text-anchor="middle" x="137.12" y="-268.5" font-family="Helvetica,sans-Serif" font-size="10.00"> bmax</text>
<text xml:space="preserve" text-anchor="middle" x="137.12" y="-256.5" font-family="Helvetica,sans-Serif" font-size="10.00">bmin</text>
</g>
<!-- Node9 -->
<g id="node9" class="node">
<title>Node9</title>
<g id="a_node9"><a xlink:href="a01459.html" target="_top" xlink:title=" ">
<polygon fill="white" stroke="#666666" points="346.25,-93 197.5,-93 197.5,-73 346.25,-73 346.25,-93"/>
<text xml:space="preserve" text-anchor="middle" x="271.88" y="-79.5" font-family="Helvetica,sans-Serif" font-size="10.00">nanort::BVHBuildOptions&lt; T &gt;</text>
</a>
</g>
</g>
<!-- Node4&#45;&gt;Node9 -->
<g id="edge10" class="edge">
<title>Node4&#45;&gt;Node9</title>
<path fill="none" stroke="#9a32cd" stroke-dasharray="5,2" d="M52.06,-182.28C59.84,-169.66 69.63,-152.75 76.75,-137 87,-114.33 74.57,-98.55 94.75,-84 136.3,-54.05 198.88,-62.87 237.18,-72.54"/>
<polygon fill="#9a32cd" stroke="#9a32cd" points="49.27,-180.14 46.91,-190.47 55.2,-183.86 49.27,-180.14"/>
<text xml:space="preserve" text-anchor="middle" x="137.12" y="-86.5" font-family="Helvetica,sans-Serif" font-size="10.00"> cost_t_aabb</text>
</g>
<!-- Node5 -->
<g id="node5" class="node">
<title>Node5</title>
<g id="a_node5"><a xlink:title=" ">
<polygon fill="white" stroke="#666666" points="52.77,-364 23.98,-364 23.98,-344 52.77,-344 52.77,-364"/>
<text xml:space="preserve" text-anchor="middle" x="38.38" y="-350.5" font-family="Helvetica,sans-Serif" font-size="10.00">int</text>
</a>
</g>
</g>
<!-- Node5&#45;&gt;Node1 -->
<g id="edge17" class="edge">
<title>Node5&#45;&gt;Node1</title>
<path fill="none" stroke="#9a32cd" stroke-dasharray="5,2" d="M48.87,-374.63C57.98,-391.75 73.49,-415.01 94.75,-426 244.79,-503.55 306.2,-439.75 474.75,-429 526.79,-425.68 541.42,-430.38 591.25,-415 618.89,-406.47 623.85,-399.28 649,-385 670.04,-373.05 693.66,-358.21 708.9,-348.44"/>
<polygon fill="#9a32cd" stroke="#9a32cd" points="52.07,-373.2 44.48,-365.81 45.8,-376.32 52.07,-373.2"/>
<text xml:space="preserve" text-anchor="middle" x="419.5" y="-446.18" font-family="Helvetica,sans-Serif" font-size="10.00"> pad0_</text>
</g>
<!-- Node5&#45;&gt;Node3 -->
<g id="edge4" class="edge">
<title>Node5&#45;&gt;Node3</title>
<path fill="none" stroke="#9a32cd" stroke-dasharray="5,2" d="M64.34,-354C99.73,-354 165.52,-354 213.36,-354"/>
<polygon fill="#9a32cd" stroke="#9a32cd" points="64.68,-350.5 54.68,-354 64.68,-357.5 64.68,-350.5"/>
<text xml:space="preserve" text-anchor="middle" x="137.12" y="-380.5" font-family="Helvetica,sans-Serif" font-size="10.00"> axis</text>
<text xml:space="preserve" text-anchor="middle" x="137.12" y="-368.5" font-family="Helvetica,sans-Serif" font-size="10.00">data</text>
<text xml:space="preserve" text-anchor="middle" x="137.12" y="-356.5" font-family="Helvetica,sans-Serif" font-size="10.00">flag</text>
</g>
<!-- Node6 -->
<g id="node6" class="node">
<title>Node6</title>
<g id="a_node6"><a xlink:title=" ">
<polygon fill="white" stroke="#666666" points="474.75,-427 364.25,-427 364.25,-395 474.75,-395 474.75,-427"/>
<text xml:space="preserve" text-anchor="start" x="372.25" y="-413.5" font-family="Helvetica,sans-Serif" font-size="10.00">std::vector&lt; unsigned</text>
<text xml:space="preserve" text-anchor="middle" x="419.5" y="-401.5" font-family="Helvetica,sans-Serif" font-size="10.00"> int &gt;</text>
</a>
</g>
</g>
<!-- Node5&#45;&gt;Node6 -->
<g id="edge6" class="edge">
<title>Node5&#45;&gt;Node6</title>
<path fill="none" stroke="#9a32cd" stroke-dasharray="5,2" d="M59.67,-371.34C69.59,-378.78 82.1,-386.73 94.75,-391 185.33,-421.56 298.13,-420.38 363.86,-416.12"/>
<polygon fill="#9a32cd" stroke="#9a32cd" points="61.9,-368.65 51.89,-365.17 57.55,-374.13 61.9,-368.65"/>
<text xml:space="preserve" text-anchor="middle" x="137.12" y="-412.34" font-family="Helvetica,sans-Serif" font-size="10.00"> elements</text>
</g>
<!-- Node5&#45;&gt;Node9 -->
<g id="edge11" class="edge">
<title>Node5&#45;&gt;Node9</title>
<path fill="none" stroke="#9a32cd" stroke-dasharray="5,2" d="M45.51,-332.82C53.05,-306.62 66.17,-260.61 76.75,-221 85.15,-189.55 71.41,-172.7 94.75,-150 122.42,-123.09 143.27,-144.31 179.5,-131 206.92,-120.93 236.46,-104.22 254.31,-93.41"/>
<polygon fill="#9a32cd" stroke="#9a32cd" points="42.2,-331.65 42.79,-342.22 48.93,-333.59 42.2,-331.65"/>
<text xml:space="preserve" text-anchor="middle" x="137.12" y="-212.5" font-family="Helvetica,sans-Serif" font-size="10.00"> bin_size</text>
<text xml:space="preserve" text-anchor="middle" x="137.12" y="-200.5" font-family="Helvetica,sans-Serif" font-size="10.00">max_tree_depth</text>
<text xml:space="preserve" text-anchor="middle" x="137.12" y="-188.5" font-family="Helvetica,sans-Serif" font-size="10.00">min_leaf_primitives</text>
<text xml:space="preserve" text-anchor="start" x="95.12" y="-176.5" font-family="Helvetica,sans-Serif" font-size="10.00">min_primitives_for</text>
<text xml:space="preserve" text-anchor="middle" x="137.12" y="-164.5" font-family="Helvetica,sans-Serif" font-size="10.00">_parallel_build</text>
<text xml:space="preserve" text-anchor="middle" x="137.12" y="-152.5" font-family="Helvetica,sans-Serif" font-size="10.00">shallow_depth</text>
</g>
<!-- Node12 -->
<g id="node12" class="node">
<title>Node12</title>
<g id="a_node12"><a xlink:href="a01463.html" target="_top" xlink:title="BVH build statistics.">
<polygon fill="white" stroke="#666666" points="338.38,-270 205.38,-270 205.38,-250 338.38,-250 338.38,-270"/>
<text xml:space="preserve" text-anchor="middle" x="271.88" y="-256.5" font-family="Helvetica,sans-Serif" font-size="10.00">nanort::BVHBuildStatistics</text>
</a>
</g>
</g>
<!-- Node5&#45;&gt;Node12 -->
<g id="edge15" class="edge">
<title>Node5&#45;&gt;Node12</title>
<path fill="none" stroke="#9a32cd" stroke-dasharray="5,2" d="M60.1,-336.53C70.08,-328.79 82.52,-320.08 94.75,-314 135.56,-293.7 185.51,-279.27 221.78,-270.46"/>
<polygon fill="#9a32cd" stroke="#9a32cd" points="58.16,-333.6 52.56,-342.59 62.55,-339.06 58.16,-333.6"/>
<text xml:space="preserve" text-anchor="middle" x="137.12" y="-340.5" font-family="Helvetica,sans-Serif" font-size="10.00"> max_tree_depth</text>
<text xml:space="preserve" text-anchor="middle" x="137.12" y="-328.5" font-family="Helvetica,sans-Serif" font-size="10.00">num_branch_nodes</text>
<text xml:space="preserve" text-anchor="middle" x="137.12" y="-316.5" font-family="Helvetica,sans-Serif" font-size="10.00">num_leaf_nodes</text>
</g>
<!-- Node6&#45;&gt;Node1 -->
<g id="edge5" class="edge">
<title>Node6&#45;&gt;Node1</title>
<path fill="none" stroke="#9a32cd" stroke-dasharray="5,2" d="M485.96,-401.02C517.87,-395.76 556.71,-388.8 591.25,-381 617.23,-375.13 623.6,-373.02 649,-365 665.02,-359.94 682.72,-353.69 697.01,-348.48"/>
<polygon fill="#9a32cd" stroke="#9a32cd" points="485.78,-397.5 476.47,-402.56 486.91,-404.41 485.78,-397.5"/>
<text xml:space="preserve" text-anchor="middle" x="542" y="-401.92" font-family="Helvetica,sans-Serif" font-size="10.00"> indices_</text>
</g>
<!-- Node7 -->
<g id="node7" class="node">
<title>Node7</title>
<g id="a_node7"><a xlink:title=" ">
<polygon fill="white" stroke="#666666" points="591.25,-322 492.75,-322 492.75,-290 591.25,-290 591.25,-322"/>
<text xml:space="preserve" text-anchor="start" x="500.75" y="-308.5" font-family="Helvetica,sans-Serif" font-size="10.00">std::vector&lt; nanort</text>
<text xml:space="preserve" text-anchor="middle" x="542" y="-296.5" font-family="Helvetica,sans-Serif" font-size="10.00">::BBox&lt; T &gt; &gt;</text>
</a>
</g>
</g>
<!-- Node7&#45;&gt;Node1 -->
<g id="edge7" class="edge">
<title>Node7&#45;&gt;Node1</title>
<path fill="none" stroke="#9a32cd" stroke-dasharray="5,2" d="M602.47,-316.46C623.11,-320.08 646.21,-324.15 666.75,-327.76"/>
<polygon fill="#9a32cd" stroke="#9a32cd" points="603.24,-313.04 592.79,-314.75 602.03,-319.93 603.24,-313.04"/>
<text xml:space="preserve" text-anchor="middle" x="629.12" y="-326.42" font-family="Helvetica,sans-Serif" font-size="10.00"> bboxes_</text>
</g>
<!-- Node8 -->
<g id="node8" class="node">
<title>Node8</title>
<g id="a_node8"><a xlink:title=" ">
<polygon fill="white" stroke="#666666" points="303.5,-316 240.25,-316 240.25,-296 303.5,-296 303.5,-316"/>
<text xml:space="preserve" text-anchor="middle" x="271.88" y="-302.5" font-family="Helvetica,sans-Serif" font-size="10.00">BBox&lt; T &gt;</text>
</a>
</g>
</g>
<!-- Node8&#45;&gt;Node7 -->
<g id="edge8" class="edge">
<title>Node8&#45;&gt;Node7</title>
<path fill="none" stroke="#9a32cd" stroke-dasharray="5,2" d="M315.16,-306C363.37,-306 442.02,-306 492.63,-306"/>
<polygon fill="#9a32cd" stroke="#9a32cd" points="315.41,-302.5 305.41,-306 315.41,-309.5 315.41,-302.5"/>
<text xml:space="preserve" text-anchor="middle" x="419.5" y="-308.5" font-family="Helvetica,sans-Serif" font-size="10.00"> elements</text>
</g>
<!-- Node9&#45;&gt;Node1 -->
<g id="edge9" class="edge">
<title>Node9&#45;&gt;Node1</title>
<path fill="none" stroke="#9a32cd" stroke-dasharray="5,2" d="M311.6,-97.61C382.37,-125.3 535.71,-189.98 649,-271 674.18,-289.01 700.66,-313.92 714.75,-327.74"/>
<polygon fill="#9a32cd" stroke="#9a32cd" points="312.97,-94.39 302.38,-94.03 310.44,-100.91 312.97,-94.39"/>
<text xml:space="preserve" text-anchor="middle" x="542" y="-235.05" font-family="Helvetica,sans-Serif" font-size="10.00"> options_</text>
</g>
<!-- Node10 -->
<g id="node10" class="node">
<title>Node10</title>
<g id="a_node10"><a xlink:title=" ">
<polygon fill="white" stroke="#666666" points="55.38,-58 21.38,-58 21.38,-38 55.38,-38 55.38,-58"/>
<text xml:space="preserve" text-anchor="middle" x="38.38" y="-44.5" font-family="Helvetica,sans-Serif" font-size="10.00">bool</text>
</a>
</g>
</g>
<!-- Node10&#45;&gt;Node9 -->
<g id="edge12" class="edge">
<title>Node10&#45;&gt;Node9</title>
<path fill="none" stroke="#9a32cd" stroke-dasharray="5,2" d="M66.95,-45.39C95.4,-43.35 140.94,-41.92 179.5,-49 204.31,-53.56 231.19,-64.33 249.33,-72.53"/>
<polygon fill="#9a32cd" stroke="#9a32cd" points="66.71,-41.9 57.03,-46.19 67.27,-48.88 66.71,-41.9"/>
<text xml:space="preserve" text-anchor="middle" x="137.12" y="-51.5" font-family="Helvetica,sans-Serif" font-size="10.00"> cache_bbox</text>
</g>
<!-- Node11 -->
<g id="node11" class="node">
<title>Node11</title>
<g id="a_node11"><a xlink:title=" ">
<polygon fill="white" stroke="#666666" points="76.75,-20 0,-20 0,0 76.75,0 76.75,-20"/>
<text xml:space="preserve" text-anchor="middle" x="38.38" y="-6.5" font-family="Helvetica,sans-Serif" font-size="10.00">unsigned char</text>
</a>
</g>
</g>
<!-- Node11&#45;&gt;Node9 -->
<g id="edge13" class="edge">
<title>Node11&#45;&gt;Node9</title>
<path fill="none" stroke="#9a32cd" stroke-dasharray="5,2" d="M88.5,-11.36C115.91,-13.33 150.31,-17.85 179.5,-28 209.58,-38.46 240.49,-59.69 257.53,-72.5"/>
<polygon fill="#9a32cd" stroke="#9a32cd" points="88.92,-7.87 78.72,-10.75 88.49,-14.86 88.92,-7.87"/>
<text xml:space="preserve" text-anchor="middle" x="137.12" y="-30.5" font-family="Helvetica,sans-Serif" font-size="10.00"> pad</text>
</g>
<!-- Node12&#45;&gt;Node1 -->
<g id="edge14" class="edge">
<title>Node12&#45;&gt;Node1</title>
<path fill="none" stroke="#9a32cd" stroke-dasharray="5,2" d="M350.12,-252.7C415.44,-248.77 510.94,-248.3 591.25,-269 637.8,-281 686.53,-311.4 710.26,-327.54"/>
<polygon fill="#9a32cd" stroke="#9a32cd" points="349.96,-249.21 340.2,-253.35 350.41,-256.19 349.96,-249.21"/>
<text xml:space="preserve" text-anchor="middle" x="542" y="-271.5" font-family="Helvetica,sans-Serif" font-size="10.00"> stats_</text>
</g>
<!-- Node13 -->
<g id="node13" class="node">
<title>Node13</title>
<g id="a_node13"><a xlink:title=" ">
<polygon fill="white" stroke="#666666" points="55.75,-128 21,-128 21,-108 55.75,-108 55.75,-128"/>
<text xml:space="preserve" text-anchor="middle" x="38.38" y="-114.5" font-family="Helvetica,sans-Serif" font-size="10.00">float</text>
</a>
</g>
</g>
<!-- Node13&#45;&gt;Node12 -->
<g id="edge16" class="edge">
<title>Node13&#45;&gt;Node12</title>
<path fill="none" stroke="#9a32cd" stroke-dasharray="5,2" d="M67.39,-110.81C97.15,-104.77 144.63,-99.88 179.5,-119 232.45,-148.03 259.51,-222.3 267.93,-249.67"/>
<polygon fill="#9a32cd" stroke="#9a32cd" points="66.65,-107.38 57.65,-112.98 68.18,-114.22 66.65,-107.38"/>
<text xml:space="preserve" text-anchor="middle" x="137.12" y="-121.5" font-family="Helvetica,sans-Serif" font-size="10.00"> build_secs</text>
</g>
</g>
</svg>
