<?xml version="1.0" encoding="UTF-8" standalone="no"?>
<!DOCTYPE svg PUBLIC "-//W3C//DTD SVG 1.1//EN"
 "http://www.w3.org/Graphics/SVG/1.1/DTD/svg11.dtd">
<!-- Generated by graphviz version 13.1.2 (20250808.2320)
 -->
<!-- Title: HF::RayTracer::EmbreeRayTracer::CalculatePreciseDistance Pages: 1 -->
<svg width="531pt" height="119pt"
 viewBox="0.00 0.00 531.00 119.00" xmlns="http://www.w3.org/2000/svg" xmlns:xlink="http://www.w3.org/1999/xlink">
<g id="graph0" class="graph" transform="scale(1 1) rotate(0) translate(4 115)">
<title>HF::RayTracer::EmbreeRayTracer::CalculatePreciseDistance</title>
<!-- Node1 -->
<g id="node1" class="node">
<title>Node1</title>
<g id="a_node1"><a xlink:title="Calculate the distance from origin to the point of intersection using an algorithm with higher precis...">
<polygon fill="#999999" stroke="#666666" points="163,-86 0,-86 0,-54 163,-54 163,-86"/>
<text xml:space="preserve" text-anchor="start" x="8" y="-72.5" font-family="Helvetica,sans-Serif" font-size="10.00">HF::RayTracer::EmbreeRay</text>
<text xml:space="preserve" text-anchor="middle" x="81.5" y="-60.5" font-family="Helvetica,sans-Serif" font-size="10.00">Tracer::CalculatePreciseDistance</text>
</a>
</g>
</g>
<!-- Node2 -->
<g id="node2" class="node">
<title>Node2</title>
<g id="a_node2"><a xlink:href="a01411.html#a619072a17db71253fc9ce3bdf1ba1920" target="_top" xlink:title="Get the vertices for a specific triangle in a mesh.">
<polygon fill="white" stroke="#666666" points="338.38,-111 199.38,-111 199.38,-79 338.38,-79 338.38,-111"/>
<text xml:space="preserve" text-anchor="start" x="207.38" y="-97.5" font-family="Helvetica,sans-Serif" font-size="10.00">HF::RayTracer::EmbreeRay</text>
<text xml:space="preserve" text-anchor="middle" x="268.88" y="-85.5" font-family="Helvetica,sans-Serif" font-size="10.00">Tracer::GetTriangle</text>
</a>
</g>
</g>
<!-- Node1&#45;&gt;Node2 -->
<g id="edge1" class="edge">
<title>Node1&#45;&gt;Node2</title>
<path fill="none" stroke="#63b8ff" d="M163.27,-80.89C171.36,-81.98 179.57,-83.09 187.66,-84.18"/>
<polygon fill="#63b8ff" stroke="#63b8ff" points="187.1,-87.64 197.48,-85.51 188.03,-80.7 187.1,-87.64"/>
</g>
<!-- Node4 -->
<g id="node4" class="node">
<title>Node4</title>
<g id="a_node4"><a xlink:href="a00464.html#a9498ae7ffabd8c5bca4026374ac862e9" target="_top" xlink:title="Determine the distance between a ray&#39;s origin and it&#39;s point of intersection with a triangle.">
<polygon fill="white" stroke="#666666" points="338.75,-61 199,-61 199,-29 338.75,-29 338.75,-61"/>
<text xml:space="preserve" text-anchor="start" x="207" y="-47.5" font-family="Helvetica,sans-Serif" font-size="10.00">HF::RayTracer::RayTriangle</text>
<text xml:space="preserve" text-anchor="middle" x="268.88" y="-35.5" font-family="Helvetica,sans-Serif" font-size="10.00">Intersection</text>
</a>
</g>
</g>
<!-- Node1&#45;&gt;Node4 -->
<g id="edge3" class="edge">
<title>Node1&#45;&gt;Node4</title>
<path fill="none" stroke="#63b8ff" d="M163.27,-59.11C171.29,-58.03 179.44,-56.93 187.46,-55.85"/>
<polygon fill="#63b8ff" stroke="#63b8ff" points="187.75,-59.34 197.19,-54.53 186.81,-52.4 187.75,-59.34"/>
</g>
<!-- Node3 -->
<g id="node3" class="node">
<title>Node3</title>
<g id="a_node3"><a xlink:href="a00464.html#a6e20c473674ea46f649ef827818841d2" target="_top" xlink:title=" ">
<polygon fill="white" stroke="#666666" points="522.75,-111 374.75,-111 374.75,-79 522.75,-79 522.75,-111"/>
<text xml:space="preserve" text-anchor="start" x="382.75" y="-97.5" font-family="Helvetica,sans-Serif" font-size="10.00">HF::RayTracer::GetPointFrom</text>
<text xml:space="preserve" text-anchor="middle" x="448.75" y="-85.5" font-family="Helvetica,sans-Serif" font-size="10.00">Buffer</text>
</a>
</g>
</g>
<!-- Node2&#45;&gt;Node3 -->
<g id="edge2" class="edge">
<title>Node2&#45;&gt;Node3</title>
<path fill="none" stroke="#63b8ff" d="M338.65,-95C346.62,-95 354.82,-95 362.98,-95"/>
<polygon fill="#63b8ff" stroke="#63b8ff" points="362.93,-98.5 372.93,-95 362.93,-91.5 362.93,-98.5"/>
</g>
<!-- Node5 -->
<g id="node5" class="node">
<title>Node5</title>
<g id="a_node5"><a xlink:href="a00464.html#a16f9f26b0140f023ce820ec55e38c66b" target="_top" xlink:title=" ">
<polygon fill="white" stroke="#666666" points="504.38,-58 393.12,-58 393.12,-38 504.38,-38 504.38,-58"/>
<text xml:space="preserve" text-anchor="middle" x="448.75" y="-44.5" font-family="Helvetica,sans-Serif" font-size="10.00">HF::RayTracer::cross</text>
</a>
</g>
</g>
<!-- Node4&#45;&gt;Node5 -->
<g id="edge4" class="edge">
<title>Node4&#45;&gt;Node5</title>
<path fill="none" stroke="#63b8ff" d="M339.16,-46.17C353.03,-46.4 367.57,-46.65 381.34,-46.88"/>
<polygon fill="#63b8ff" stroke="#63b8ff" points="381.12,-50.38 391.18,-47.05 381.24,-43.38 381.12,-50.38"/>
</g>
<!-- Node6 -->
<g id="node6" class="node">
<title>Node6</title>
<g id="a_node6"><a xlink:href="a00464.html#ae551c109488ce94d0a568712b50da689" target="_top" xlink:title=" ">
<polygon fill="white" stroke="#666666" points="499.12,-20 398.38,-20 398.38,0 499.12,0 499.12,-20"/>
<text xml:space="preserve" text-anchor="middle" x="448.75" y="-6.5" font-family="Helvetica,sans-Serif" font-size="10.00">HF::RayTracer::dot</text>
</a>
</g>
</g>
<!-- Node4&#45;&gt;Node6 -->
<g id="edge5" class="edge">
<title>Node4&#45;&gt;Node6</title>
<path fill="none" stroke="#63b8ff" d="M339.16,-31.37C354.93,-28.26 371.58,-24.99 386.97,-21.96"/>
<polygon fill="#63b8ff" stroke="#63b8ff" points="387.31,-25.46 396.44,-20.1 385.95,-18.59 387.31,-25.46"/>
</g>
</g>
</svg>
