<?xml version="1.0" encoding="UTF-8" standalone="no"?>
<!DOCTYPE svg PUBLIC "-//W3C//DTD SVG 1.1//EN"
 "http://www.w3.org/Graphics/SVG/1.1/DTD/svg11.dtd">
<!-- Generated by graphviz version 13.1.2 (20250808.2320)
 -->
<!-- Title: HF::RayTracer::EmbreeRayTracer::Occluded Pages: 1 -->
<svg width="745pt" height="140pt"
 viewBox="0.00 0.00 745.00 140.00" xmlns="http://www.w3.org/2000/svg" xmlns:xlink="http://www.w3.org/1999/xlink">
<g id="graph0" class="graph" transform="scale(1 1) rotate(0) translate(4 136)">
<title>HF::RayTracer::EmbreeRayTracer::Occluded</title>
<!-- Node1 -->
<g id="node1" class="node">
<title>Node1</title>
<g id="a_node1"><a xlink:title="Determine if there is an intersection with any geometry.">
<polygon fill="#999999" stroke="#666666" points="737,-82 598,-82 598,-50 737,-50 737,-82"/>
<text xml:space="preserve" text-anchor="start" x="606" y="-68.5" font-family="Helvetica,sans-Serif" font-size="10.00">HF::RayTracer::EmbreeRay</text>
<text xml:space="preserve" text-anchor="middle" x="667.5" y="-56.5" font-family="Helvetica,sans-Serif" font-size="10.00">Tracer::Occluded</text>
</a>
</g>
</g>
<!-- Node2 -->
<g id="node2" class="node">
<title>Node2</title>
<g id="a_node2"><a xlink:href="a00467.html#af811d21e4c49275521912df9254bb737" target="_top" xlink:title="Check if Node can be raised by height without clipping into any geometry.">
<polygon fill="white" stroke="#666666" points="562,-105 463.5,-105 463.5,-73 562,-73 562,-105"/>
<text xml:space="preserve" text-anchor="start" x="471.5" y="-91.5" font-family="Helvetica,sans-Serif" font-size="10.00">HF::VisibilityGraph</text>
<text xml:space="preserve" text-anchor="middle" x="512.75" y="-79.5" font-family="Helvetica,sans-Serif" font-size="10.00">::HeightCheck</text>
</a>
</g>
</g>
<!-- Node1&#45;&gt;Node2 -->
<g id="edge1" class="edge">
<title>Node1&#45;&gt;Node2</title>
<path fill="none" stroke="#63b8ff" d="M586.4,-78.06C578.1,-79.31 569.85,-80.55 562.06,-81.73"/>
<polygon fill="#63b8ff" stroke="#63b8ff" points="586.86,-81.53 596.22,-76.58 585.82,-74.61 586.86,-81.53"/>
</g>
<!-- Node10 -->
<g id="node10" class="node">
<title>Node10</title>
<g id="a_node10"><a xlink:href="a00467.html#a4d9cf77879eb78075f7f7b0a7e31119a" target="_top" xlink:title="Perform a line of sight check between two nodes.">
<polygon fill="white" stroke="#666666" points="424.12,-57 312.12,-57 312.12,-25 424.12,-25 424.12,-57"/>
<text xml:space="preserve" text-anchor="start" x="320.12" y="-43.5" font-family="Helvetica,sans-Serif" font-size="10.00">HF::VisibilityGraph</text>
<text xml:space="preserve" text-anchor="middle" x="368.12" y="-31.5" font-family="Helvetica,sans-Serif" font-size="10.00">::IsOcclusionBetween</text>
</a>
</g>
</g>
<!-- Node1&#45;&gt;Node10 -->
<g id="edge9" class="edge">
<title>Node1&#45;&gt;Node10</title>
<path fill="none" stroke="#63b8ff" d="M586.15,-59.25C534.89,-54.94 469.79,-49.46 424.32,-45.64"/>
<polygon fill="#63b8ff" stroke="#63b8ff" points="585.76,-62.72 596.02,-60.07 586.35,-55.75 585.76,-62.72"/>
</g>
<!-- Node3 -->
<g id="node3" class="node">
<title>Node3</title>
<g id="a_node3"><a xlink:href="a00467.html#a05b8a83ab27113369c95649470d864b9" target="_top" xlink:title="Obtain the indexes of all nodes that pass the HeightCheck.">
<polygon fill="white" stroke="#666666" points="427.5,-107 308.75,-107 308.75,-75 427.5,-75 427.5,-107"/>
<text xml:space="preserve" text-anchor="start" x="316.75" y="-93.5" font-family="Helvetica,sans-Serif" font-size="10.00">HF::VisibilityGraph</text>
<text xml:space="preserve" text-anchor="middle" x="368.12" y="-81.5" font-family="Helvetica,sans-Serif" font-size="10.00">::HeightCheckAllNodes</text>
</a>
</g>
</g>
<!-- Node2&#45;&gt;Node3 -->
<g id="edge2" class="edge">
<title>Node2&#45;&gt;Node3</title>
<path fill="none" stroke="#63b8ff" d="M451.72,-89.84C443.85,-89.95 435.79,-90.07 427.94,-90.18"/>
<polygon fill="#63b8ff" stroke="#63b8ff" points="451.6,-93.34 461.55,-89.7 451.5,-86.34 451.6,-93.34"/>
</g>
<!-- Node4 -->
<g id="node4" class="node">
<title>Node4</title>
<g id="a_node4"><a xlink:href="a00467.html#a12eb1e4c06400c4625cd22d925927b03" target="_top" xlink:title="Generate a Visibility Graph between every node in a set of nodes in parallel.">
<polygon fill="white" stroke="#666666" points="270.88,-132 172.38,-132 172.38,-100 270.88,-100 270.88,-132"/>
<text xml:space="preserve" text-anchor="start" x="180.38" y="-118.5" font-family="Helvetica,sans-Serif" font-size="10.00">HF::VisibilityGraph</text>
<text xml:space="preserve" text-anchor="middle" x="221.62" y="-106.5" font-family="Helvetica,sans-Serif" font-size="10.00">::AllToAll</text>
</a>
</g>
</g>
<!-- Node3&#45;&gt;Node4 -->
<g id="edge3" class="edge">
<title>Node3&#45;&gt;Node4</title>
<path fill="none" stroke="#63b8ff" d="M297.25,-103.09C288.44,-104.61 279.58,-106.15 271.19,-107.6"/>
<polygon fill="#63b8ff" stroke="#63b8ff" points="297.6,-106.58 306.86,-101.43 296.41,-99.68 297.6,-106.58"/>
</g>
<!-- Node6 -->
<g id="node6" class="node">
<title>Node6</title>
<g id="a_node6"><a xlink:href="a00467.html#ab1db87927118f70786a664c3b3cc7905" target="_top" xlink:title="Generate a Visibility Graph with every edge stored twice.">
<polygon fill="white" stroke="#666666" points="272.75,-82 170.5,-82 170.5,-50 272.75,-50 272.75,-82"/>
<text xml:space="preserve" text-anchor="start" x="178.5" y="-68.5" font-family="Helvetica,sans-Serif" font-size="10.00">HF::VisibilityGraph</text>
<text xml:space="preserve" text-anchor="middle" x="221.62" y="-56.5" font-family="Helvetica,sans-Serif" font-size="10.00">::AllToAllUndirected</text>
</a>
</g>
</g>
<!-- Node3&#45;&gt;Node6 -->
<g id="edge5" class="edge">
<title>Node3&#45;&gt;Node6</title>
<path fill="none" stroke="#63b8ff" d="M297.26,-78.91C289.08,-77.5 280.85,-76.07 273.01,-74.72"/>
<polygon fill="#63b8ff" stroke="#63b8ff" points="296.41,-82.32 306.86,-80.57 297.6,-75.42 296.41,-82.32"/>
</g>
<!-- Node8 -->
<g id="node8" class="node">
<title>Node8</title>
<g id="a_node8"><a xlink:href="a00467.html#ae42a5aafdfcc29b6a668355c07602efb" target="_top" xlink:title="Generate a Visibility Graph from a set of nodes to another set of nodes.">
<polygon fill="white" stroke="#666666" points="270.88,-32 172.38,-32 172.38,0 270.88,0 270.88,-32"/>
<text xml:space="preserve" text-anchor="start" x="180.38" y="-18.5" font-family="Helvetica,sans-Serif" font-size="10.00">HF::VisibilityGraph</text>
<text xml:space="preserve" text-anchor="middle" x="221.62" y="-6.5" font-family="Helvetica,sans-Serif" font-size="10.00">::GroupToGroup</text>
</a>
</g>
</g>
<!-- Node3&#45;&gt;Node8 -->
<g id="edge7" class="edge">
<title>Node3&#45;&gt;Node8</title>
<path fill="none" stroke="#63b8ff" d="M315.52,-69.58C313.21,-68.41 310.94,-67.22 308.75,-66 291.71,-56.56 289.51,-50.93 272.75,-41 267.81,-38.08 262.49,-35.17 257.22,-32.43"/>
<polygon fill="#63b8ff" stroke="#63b8ff" points="313.91,-72.69 324.43,-73.89 316.95,-66.39 313.91,-72.69"/>
</g>
<!-- Node5 -->
<g id="node5" class="node">
<title>Node5</title>
<g id="a_node5"><a xlink:href="a00460.html#ga0255e6c4811298e61110adc64c0f8acd" target="_top" xlink:title="Create a new directed visibility graph between all nodes in parameter nodes.">
<polygon fill="white" stroke="#666666" points="127,-132 7.5,-132 7.5,-100 127,-100 127,-132"/>
<text xml:space="preserve" text-anchor="start" x="15.5" y="-118.5" font-family="Helvetica,sans-Serif" font-size="10.00">CreateVisibilityGraphAll</text>
<text xml:space="preserve" text-anchor="middle" x="67.25" y="-106.5" font-family="Helvetica,sans-Serif" font-size="10.00">ToAll</text>
</a>
</g>
</g>
<!-- Node4&#45;&gt;Node5 -->
<g id="edge4" class="edge">
<title>Node4&#45;&gt;Node5</title>
<path fill="none" stroke="#63b8ff" d="M160.76,-116C149.78,-116 138.32,-116 127.36,-116"/>
<polygon fill="#63b8ff" stroke="#63b8ff" points="160.48,-119.5 170.48,-116 160.48,-112.5 160.48,-119.5"/>
</g>
<!-- Node7 -->
<g id="node7" class="node">
<title>Node7</title>
<g id="a_node7"><a xlink:href="a00460.html#ga9b0664a60bcdf276b0fe0a2023b3d9b8" target="_top" xlink:title="Create a new undirected visibility graph between all nodes in nodes.">
<polygon fill="white" stroke="#666666" points="127,-82 7.5,-82 7.5,-50 127,-50 127,-82"/>
<text xml:space="preserve" text-anchor="start" x="15.5" y="-68.5" font-family="Helvetica,sans-Serif" font-size="10.00">CreateVisibilityGraphAll</text>
<text xml:space="preserve" text-anchor="middle" x="67.25" y="-56.5" font-family="Helvetica,sans-Serif" font-size="10.00">ToAllUndirected</text>
</a>
</g>
</g>
<!-- Node6&#45;&gt;Node7 -->
<g id="edge6" class="edge">
<title>Node6&#45;&gt;Node7</title>
<path fill="none" stroke="#63b8ff" d="M159.09,-66C148.58,-66 137.68,-66 127.24,-66"/>
<polygon fill="#63b8ff" stroke="#63b8ff" points="158.8,-69.5 168.8,-66 158.8,-62.5 158.8,-69.5"/>
</g>
<!-- Node9 -->
<g id="node9" class="node">
<title>Node9</title>
<g id="a_node9"><a xlink:href="a00460.html#gaf2e404cb696aee3473cac0d1507576d8" target="_top" xlink:title="Create a new visibility graph from the nodes in group_a, into the nodes of group_b.">
<polygon fill="white" stroke="#666666" points="134.5,-32 0,-32 0,0 134.5,0 134.5,-32"/>
<text xml:space="preserve" text-anchor="start" x="8" y="-18.5" font-family="Helvetica,sans-Serif" font-size="10.00">CreateVisibilityGraphGroup</text>
<text xml:space="preserve" text-anchor="middle" x="67.25" y="-6.5" font-family="Helvetica,sans-Serif" font-size="10.00">ToGroup</text>
</a>
</g>
</g>
<!-- Node8&#45;&gt;Node9 -->
<g id="edge8" class="edge">
<title>Node8&#45;&gt;Node9</title>
<path fill="none" stroke="#63b8ff" d="M160.63,-16C152.14,-16 143.36,-16 134.76,-16"/>
<polygon fill="#63b8ff" stroke="#63b8ff" points="160.48,-19.5 170.48,-16 160.48,-12.5 160.48,-19.5"/>
</g>
<!-- Node10&#45;&gt;Node4 -->
<g id="edge10" class="edge">
<title>Node10&#45;&gt;Node4</title>
<path fill="none" stroke="#63b8ff" d="M315.52,-62.42C313.21,-63.59 310.94,-64.78 308.75,-66 291.71,-75.44 289.51,-81.07 272.75,-91 267.81,-93.92 262.49,-96.83 257.22,-99.57"/>
<polygon fill="#63b8ff" stroke="#63b8ff" points="316.95,-65.61 324.43,-58.11 313.91,-59.31 316.95,-65.61"/>
</g>
<!-- Node10&#45;&gt;Node6 -->
<g id="edge11" class="edge">
<title>Node10&#45;&gt;Node6</title>
<path fill="none" stroke="#63b8ff" d="M300.48,-52.53C291.23,-54.13 281.85,-55.75 272.96,-57.29"/>
<polygon fill="#63b8ff" stroke="#63b8ff" points="300.92,-56.01 310.18,-50.85 299.73,-49.11 300.92,-56.01"/>
</g>
<!-- Node10&#45;&gt;Node8 -->
<g id="edge12" class="edge">
<title>Node10&#45;&gt;Node8</title>
<path fill="none" stroke="#63b8ff" d="M300.56,-29.48C290.63,-27.77 280.56,-26.02 271.09,-24.39"/>
<polygon fill="#63b8ff" stroke="#63b8ff" points="299.73,-32.89 310.18,-31.15 300.92,-25.99 299.73,-32.89"/>
</g>
</g>
</svg>
