<?xml version="1.0" encoding="UTF-8" standalone="no"?>
<!DOCTYPE svg PUBLIC "-//W3C//DTD SVG 1.1//EN"
 "http://www.w3.org/Graphics/SVG/1.1/DTD/svg11.dtd">
<!-- Generated by graphviz version 13.1.2 (20250808.2320)
 -->
<!-- Title: nanort::StackAllocator&lt; T, stack_capacity &gt; Pages: 1 -->
<svg width="308pt" height="200pt"
 viewBox="0.00 0.00 308.00 200.00" xmlns="http://www.w3.org/2000/svg" xmlns:xlink="http://www.w3.org/1999/xlink">
<g id="graph0" class="graph" transform="scale(1 1) rotate(0) translate(4 196)">
<title>nanort::StackAllocator&lt; T, stack_capacity &gt;</title>
<!-- Node1 -->
<g id="node1" class="node">
<title>Node1</title>
<g id="a_node1"><a xlink:title=" ">
<polygon fill="#999999" stroke="#666666" points="164.12,-32 51.38,-32 51.38,0 164.12,0 164.12,-32"/>
<text xml:space="preserve" text-anchor="start" x="59.38" y="-18.5" font-family="Helvetica,sans-Serif" font-size="10.00">nanort::StackAllocator</text>
<text xml:space="preserve" text-anchor="middle" x="107.75" y="-6.5" font-family="Helvetica,sans-Serif" font-size="10.00">&lt; T, stack_capacity &gt;</text>
</a>
</g>
</g>
<!-- Node2 -->
<g id="node2" class="node">
<title>Node2</title>
<g id="a_node2"><a xlink:title=" ">
<polygon fill="white" stroke="#666666" points="95.5,-112 0,-112 0,-92 95.5,-92 95.5,-112"/>
<text xml:space="preserve" text-anchor="middle" x="47.75" y="-98.5" font-family="Helvetica,sans-Serif" font-size="10.00">std::allocator&lt; T &gt;</text>
</a>
</g>
</g>
<!-- Node2&#45;&gt;Node1 -->
<g id="edge1" class="edge">
<title>Node2&#45;&gt;Node1</title>
<path fill="none" stroke="#63b8ff" d="M61.06,-82.37C71.81,-67.32 86.75,-46.41 96.81,-32.32"/>
<polygon fill="#63b8ff" stroke="#63b8ff" points="58.24,-80.29 55.28,-90.46 63.94,-84.35 58.24,-80.29"/>
</g>
<!-- Node3 -->
<g id="node3" class="node">
<title>Node3</title>
<g id="a_node3"><a xlink:title=" ">
<polygon fill="white" stroke="#666666" points="62.15,-192 33.35,-192 33.35,-172 62.15,-172 62.15,-192"/>
<text xml:space="preserve" text-anchor="middle" x="47.75" y="-178.5" font-family="Helvetica,sans-Serif" font-size="10.00">T</text>
</a>
</g>
</g>
<!-- Node3&#45;&gt;Node2 -->
<g id="edge2" class="edge">
<title>Node3&#45;&gt;Node2</title>
<path fill="none" stroke="#9a32cd" stroke-dasharray="5,2" d="M47.75,-160.59C47.75,-144.94 47.75,-124.08 47.75,-112.24"/>
<polygon fill="#9a32cd" stroke="#9a32cd" points="44.25,-160.23 47.75,-170.23 51.25,-160.23 44.25,-160.23"/>
<text xml:space="preserve" text-anchor="middle" x="69.12" y="-144.5" font-family="Helvetica,sans-Serif" font-size="10.00"> elements</text>
</g>
<!-- Node4 -->
<g id="node4" class="node">
<title>Node4</title>
<g id="a_node4"><a xlink:href="a01427.html" target="_top" xlink:title=" ">
<polygon fill="white" stroke="#666666" points="226.12,-124 113.38,-124 113.38,-80 226.12,-80 226.12,-124"/>
<text xml:space="preserve" text-anchor="start" x="121.38" y="-110.5" font-family="Helvetica,sans-Serif" font-size="10.00">nanort::StackAllocator</text>
<text xml:space="preserve" text-anchor="start" x="121.38" y="-98.5" font-family="Helvetica,sans-Serif" font-size="10.00">&lt; T, stack_capacity &gt;</text>
<text xml:space="preserve" text-anchor="middle" x="169.75" y="-86.5" font-family="Helvetica,sans-Serif" font-size="10.00">::Source</text>
</a>
</g>
</g>
<!-- Node4&#45;&gt;Node1 -->
<g id="edge3" class="edge">
<title>Node4&#45;&gt;Node1</title>
<path fill="none" stroke="#9a32cd" stroke-dasharray="5,2" d="M147.39,-70.7C137.79,-57.69 126.98,-43.06 119.09,-32.36"/>
<polygon fill="#9a32cd" stroke="#9a32cd" points="144.45,-72.62 153.21,-78.59 150.08,-68.46 144.45,-72.62"/>
<text xml:space="preserve" text-anchor="middle" x="159.36" y="-52.5" font-family="Helvetica,sans-Serif" font-size="10.00"> source_</text>
</g>
<!-- Node5 -->
<g id="node5" class="node">
<title>Node5</title>
<g id="a_node5"><a xlink:title=" ">
<polygon fill="white" stroke="#666666" points="159.12,-192 124.38,-192 124.38,-172 159.12,-172 159.12,-192"/>
<text xml:space="preserve" text-anchor="middle" x="141.75" y="-178.5" font-family="Helvetica,sans-Serif" font-size="10.00">char</text>
</a>
</g>
</g>
<!-- Node5&#45;&gt;Node4 -->
<g id="edge4" class="edge">
<title>Node5&#45;&gt;Node4</title>
<path fill="none" stroke="#9a32cd" stroke-dasharray="5,2" d="M140.42,-160.43C140.59,-154.37 141.34,-147.81 143.25,-142 145.3,-135.78 148.65,-129.64 152.3,-124.13"/>
<polygon fill="#9a32cd" stroke="#9a32cd" points="136.92,-160.34 140.66,-170.25 143.91,-160.17 136.92,-160.34"/>
<text xml:space="preserve" text-anchor="middle" x="174" y="-144.5" font-family="Helvetica,sans-Serif" font-size="10.00"> stack_buffer_</text>
</g>
<!-- Node6 -->
<g id="node6" class="node">
<title>Node6</title>
<g id="a_node6"><a xlink:title=" ">
<polygon fill="white" stroke="#666666" points="243.75,-192 209.75,-192 209.75,-172 243.75,-172 243.75,-192"/>
<text xml:space="preserve" text-anchor="middle" x="226.75" y="-178.5" font-family="Helvetica,sans-Serif" font-size="10.00">bool</text>
</a>
</g>
</g>
<!-- Node6&#45;&gt;Node4 -->
<g id="edge5" class="edge">
<title>Node6&#45;&gt;Node4</title>
<path fill="none" stroke="#9a32cd" stroke-dasharray="5,2" d="M216.96,-161.72C213.4,-155.26 209.16,-148.15 204.75,-142 200.4,-135.94 195.25,-129.76 190.25,-124.16"/>
<polygon fill="#9a32cd" stroke="#9a32cd" points="213.75,-163.13 221.51,-170.33 219.94,-159.86 213.75,-163.13"/>
<text xml:space="preserve" text-anchor="middle" x="256.01" y="-144.5" font-family="Helvetica,sans-Serif" font-size="10.00"> used_stack_buffer_</text>
</g>
</g>
</svg>
