<?xml version="1.0" encoding="UTF-8" standalone="no"?>
<!DOCTYPE svg PUBLIC "-//W3C//DTD SVG 1.1//EN"
 "http://www.w3.org/Graphics/SVG/1.1/DTD/svg11.dtd">
<!-- Generated by graphviz version 13.1.2 (20250808.2320)
 -->
<!-- Title: HF::RayTracer::EmbreeRayTracer::PointIntersections Pages: 1 -->
<svg width="322pt" height="58pt"
 viewBox="0.00 0.00 322.00 58.00" xmlns="http://www.w3.org/2000/svg" xmlns:xlink="http://www.w3.org/1999/xlink">
<g id="graph0" class="graph" transform="scale(1 1) rotate(0) translate(4 54)">
<title>HF::RayTracer::EmbreeRayTracer::PointIntersections</title>
<!-- Node1 -->
<g id="node1" class="node">
<title>Node1</title>
<g id="a_node1"><a xlink:title="Cast multiple rays and recieve hitpoints in return.">
<polygon fill="#999999" stroke="#666666" points="139,-32 0,-32 0,0 139,0 139,-32"/>
<text xml:space="preserve" text-anchor="start" x="8" y="-18.5" font-family="Helvetica,sans-Serif" font-size="10.00">HF::RayTracer::EmbreeRay</text>
<text xml:space="preserve" text-anchor="middle" x="69.5" y="-6.5" font-family="Helvetica,sans-Serif" font-size="10.00">Tracer::PointIntersections</text>
</a>
</g>
</g>
<!-- Node2 -->
<g id="node2" class="node">
<title>Node2</title>
<g id="a_node2"><a xlink:href="a01411.html#aa8424b274c7c5d0598ff13b49ac8c8d2" target="_top" xlink:title="Cast a ray and overwrite the origin with the hitpoint if it intersects any geometry.">
<polygon fill="white" stroke="#666666" points="314,-32 175,-32 175,0 314,0 314,-32"/>
<text xml:space="preserve" text-anchor="start" x="183" y="-18.5" font-family="Helvetica,sans-Serif" font-size="10.00">HF::RayTracer::EmbreeRay</text>
<text xml:space="preserve" text-anchor="middle" x="244.5" y="-6.5" font-family="Helvetica,sans-Serif" font-size="10.00">Tracer::PointIntersection</text>
</a>
</g>
</g>
<!-- Node1&#45;&gt;Node2 -->
<g id="edge1" class="edge">
<title>Node1&#45;&gt;Node2</title>
<path fill="none" stroke="#63b8ff" d="M139.37,-16C147.25,-16 155.33,-16 163.34,-16"/>
<polygon fill="#63b8ff" stroke="#63b8ff" points="163.07,-19.5 173.07,-16 163.07,-12.5 163.07,-19.5"/>
</g>
<!-- Node2&#45;&gt;Node2 -->
<g id="edge2" class="edge">
<title>Node2&#45;&gt;Node2</title>
<path fill="none" stroke="#63b8ff" d="M213.26,-32.44C207.43,-41.58 217.84,-50 244.5,-50 259.08,-50 268.8,-47.48 273.66,-43.71"/>
<polygon fill="#63b8ff" stroke="#63b8ff" points="277.09,-44.4 275.47,-33.93 270.21,-43.13 277.09,-44.4"/>
</g>
</g>
</svg>
