<?xml version="1.0" encoding="UTF-8" standalone="no"?>
<!DOCTYPE svg PUBLIC "-//W3C//DTD SVG 1.1//EN"
 "http://www.w3.org/Graphics/SVG/1.1/DTD/svg11.dtd">
<!-- Generated by graphviz version 13.1.2 (20250808.2320)
 -->
<!-- Title: HF::RayTracer::EmbreeRayTracer::GetTriangle Pages: 1 -->
<svg width="521pt" height="40pt"
 viewBox="0.00 0.00 521.00 40.00" xmlns="http://www.w3.org/2000/svg" xmlns:xlink="http://www.w3.org/1999/xlink">
<g id="graph0" class="graph" transform="scale(1 1) rotate(0) translate(4 36)">
<title>HF::RayTracer::EmbreeRayTracer::GetTriangle</title>
<!-- Node1 -->
<g id="node1" class="node">
<title>Node1</title>
<g id="a_node1"><a xlink:title="Get the vertices for a specific triangle in a mesh.">
<polygon fill="#999999" stroke="#666666" points="513,-32 374,-32 374,0 513,0 513,-32"/>
<text xml:space="preserve" text-anchor="start" x="382" y="-18.5" font-family="Helvetica,sans-Serif" font-size="10.00">HF::RayTracer::EmbreeRay</text>
<text xml:space="preserve" text-anchor="middle" x="443.5" y="-6.5" font-family="Helvetica,sans-Serif" font-size="10.00">Tracer::GetTriangle</text>
</a>
</g>
</g>
<!-- Node2 -->
<g id="node2" class="node">
<title>Node2</title>
<g id="a_node2"><a xlink:href="a01411.html#a28032c693ac330c5b11bc2a877b04c75" target="_top" xlink:title="Calculate the distance from origin to the point of intersection using an algorithm with higher precis...">
<polygon fill="white" stroke="#666666" points="338,-32 175,-32 175,0 338,0 338,-32"/>
<text xml:space="preserve" text-anchor="start" x="183" y="-18.5" font-family="Helvetica,sans-Serif" font-size="10.00">HF::RayTracer::EmbreeRay</text>
<text xml:space="preserve" text-anchor="middle" x="256.5" y="-6.5" font-family="Helvetica,sans-Serif" font-size="10.00">Tracer::CalculatePreciseDistance</text>
</a>
</g>
</g>
<!-- Node1&#45;&gt;Node2 -->
<g id="edge1" class="edge">
<title>Node1&#45;&gt;Node2</title>
<path fill="none" stroke="#63b8ff" d="M362.15,-16C354.24,-16 346.22,-16 338.31,-16"/>
<polygon fill="#63b8ff" stroke="#63b8ff" points="362.1,-19.5 372.1,-16 362.1,-12.5 362.1,-19.5"/>
</g>
<!-- Node3 -->
<g id="node3" class="node">
<title>Node3</title>
<g id="a_node3"><a xlink:href="a01411.html#af37604ed6d68c27bb9224afd795cab18" target="_top" xlink:title="Cast a ray from origin in direction.">
<polygon fill="white" stroke="#666666" points="139,-32 0,-32 0,0 139,0 139,-32"/>
<text xml:space="preserve" text-anchor="start" x="8" y="-18.5" font-family="Helvetica,sans-Serif" font-size="10.00">HF::RayTracer::EmbreeRay</text>
<text xml:space="preserve" text-anchor="middle" x="69.5" y="-6.5" font-family="Helvetica,sans-Serif" font-size="10.00">Tracer::Intersect</text>
</a>
</g>
</g>
<!-- Node2&#45;&gt;Node3 -->
<g id="edge2" class="edge">
<title>Node2&#45;&gt;Node3</title>
<path fill="none" stroke="#63b8ff" d="M163.27,-16C155.21,-16 147.16,-16 139.34,-16"/>
<polygon fill="#63b8ff" stroke="#63b8ff" points="163.11,-19.5 173.11,-16 163.11,-12.5 163.11,-19.5"/>
</g>
</g>
</svg>
