<?xml version="1.0" encoding="UTF-8" standalone="no"?>
<!DOCTYPE svg PUBLIC "-//W3C//DTD SVG 1.1//EN"
 "http://www.w3.org/Graphics/SVG/1.1/DTD/svg11.dtd">
<!-- Generated by graphviz version 13.1.2 (20250808.2320)
 -->
<!-- Title: HF::RayTracer::EmbreeRayTracer Pages: 1 -->
<svg width="540pt" height="256pt"
 viewBox="0.00 0.00 540.00 256.00" xmlns="http://www.w3.org/2000/svg" xmlns:xlink="http://www.w3.org/1999/xlink">
<g id="graph0" class="graph" transform="scale(1 1) rotate(0) translate(4 252)">
<title>HF::RayTracer::EmbreeRayTracer</title>
<!-- Node1 -->
<g id="node1" class="node">
<title>Node1</title>
<g id="a_node1"><a xlink:title="A wrapper for Intel&#39;s Embree Library.">
<polygon fill="#999999" stroke="#666666" points="531.75,-140 392.75,-140 392.75,-108 531.75,-108 531.75,-140"/>
<text xml:space="preserve" text-anchor="start" x="400.75" y="-126.5" font-family="Helvetica,sans-Serif" font-size="10.00">HF::RayTracer::EmbreeRay</text>
<text xml:space="preserve" text-anchor="middle" x="462.25" y="-114.5" font-family="Helvetica,sans-Serif" font-size="10.00">Tracer</text>
</a>
</g>
</g>
<!-- Node2 -->
<g id="node2" class="node">
<title>Node2</title>
<g id="a_node2"><a xlink:title=" ">
<polygon fill="white" stroke="#666666" points="263,-248 196,-248 196,-228 263,-228 263,-248"/>
<text xml:space="preserve" text-anchor="middle" x="229.5" y="-234.5" font-family="Helvetica,sans-Serif" font-size="10.00">RTCDevice</text>
</a>
</g>
</g>
<!-- Node2&#45;&gt;Node1 -->
<g id="edge1" class="edge">
<title>Node2&#45;&gt;Node1</title>
<path fill="none" stroke="#9a32cd" stroke-dasharray="5,2" d="M274.51,-230.7C304.11,-224.56 343.31,-214.01 374.75,-197 402.58,-181.95 429.62,-156.95 445.85,-140.48"/>
<polygon fill="#9a32cd" stroke="#9a32cd" points="273.9,-227.25 264.76,-232.62 275.25,-234.12 273.9,-227.25"/>
<text xml:space="preserve" text-anchor="middle" x="347" y="-221.15" font-family="Helvetica,sans-Serif" font-size="10.00"> device</text>
</g>
<!-- Node3 -->
<g id="node3" class="node">
<title>Node3</title>
<g id="a_node3"><a xlink:title=" ">
<polygon fill="white" stroke="#666666" points="261.5,-210 197.5,-210 197.5,-190 261.5,-190 261.5,-210"/>
<text xml:space="preserve" text-anchor="middle" x="229.5" y="-196.5" font-family="Helvetica,sans-Serif" font-size="10.00">RTCScene</text>
</a>
</g>
</g>
<!-- Node3&#45;&gt;Node1 -->
<g id="edge2" class="edge">
<title>Node3&#45;&gt;Node1</title>
<path fill="none" stroke="#9a32cd" stroke-dasharray="5,2" d="M273,-192.08C302.09,-186.08 341.3,-176.85 374.75,-165 393.86,-158.23 414.4,-148.6 430.67,-140.38"/>
<polygon fill="#9a32cd" stroke="#9a32cd" points="272.59,-188.59 263.47,-193.99 273.97,-195.45 272.59,-188.59"/>
<text xml:space="preserve" text-anchor="middle" x="347" y="-183.78" font-family="Helvetica,sans-Serif" font-size="10.00"> scene</text>
</g>
<!-- Node4 -->
<g id="node4" class="node">
<title>Node4</title>
<g id="a_node4"><a xlink:title=" ">
<polygon fill="white" stroke="#666666" points="284,-172 175,-172 175,-152 284,-152 284,-172"/>
<text xml:space="preserve" text-anchor="middle" x="229.5" y="-158.5" font-family="Helvetica,sans-Serif" font-size="10.00">RTCIntersectContext</text>
</a>
</g>
</g>
<!-- Node4&#45;&gt;Node1 -->
<g id="edge3" class="edge">
<title>Node4&#45;&gt;Node1</title>
<path fill="none" stroke="#9a32cd" stroke-dasharray="5,2" d="M295.46,-152.54C320.3,-148.8 348.86,-144.37 374.75,-140 380.47,-139.03 386.4,-138 392.35,-136.95"/>
<polygon fill="#9a32cd" stroke="#9a32cd" points="295.21,-149.04 285.84,-153.98 296.24,-155.96 295.21,-149.04"/>
<text xml:space="preserve" text-anchor="middle" x="347" y="-151.41" font-family="Helvetica,sans-Serif" font-size="10.00"> context</text>
</g>
<!-- Node5 -->
<g id="node5" class="node">
<title>Node5</title>
<g id="a_node5"><a xlink:href="a00464.html#a01403" target="_top" xlink:title="A triangle. Used internally in Embree.">
<polygon fill="white" stroke="#666666" points="290.38,-134 168.62,-134 168.62,-114 290.38,-114 290.38,-134"/>
<text xml:space="preserve" text-anchor="middle" x="229.5" y="-120.5" font-family="Helvetica,sans-Serif" font-size="10.00">HF::RayTracer::Triangle</text>
</a>
</g>
</g>
<!-- Node5&#45;&gt;Node1 -->
<g id="edge4" class="edge">
<title>Node5&#45;&gt;Node1</title>
<path fill="none" stroke="#9a32cd" stroke-dasharray="5,2" d="M302.03,-124C330.79,-124 363.81,-124 392.3,-124"/>
<polygon fill="#9a32cd" stroke="#9a32cd" points="302.34,-120.5 292.34,-124 302.34,-127.5 302.34,-120.5"/>
<text xml:space="preserve" text-anchor="middle" x="347" y="-126.5" font-family="Helvetica,sans-Serif" font-size="10.00"> triangles</text>
</g>
<!-- Node6 -->
<g id="node6" class="node">
<title>Node6</title>
<g id="a_node6"><a xlink:title=" ">
<polygon fill="white" stroke="#666666" points="53.9,-144 25.1,-144 25.1,-124 53.9,-124 53.9,-144"/>
<text xml:space="preserve" text-anchor="middle" x="39.5" y="-130.5" font-family="Helvetica,sans-Serif" font-size="10.00">int</text>
</a>
</g>
</g>
<!-- Node6&#45;&gt;Node5 -->
<g id="edge5" class="edge">
<title>Node6&#45;&gt;Node5</title>
<path fill="none" stroke="#9a32cd" stroke-dasharray="5,2" d="M65.79,-132.65C91.9,-131.27 133.6,-129.05 168.25,-127.2"/>
<polygon fill="#9a32cd" stroke="#9a32cd" points="65.64,-129.16 55.84,-133.18 66.01,-136.15 65.64,-129.16"/>
<text xml:space="preserve" text-anchor="middle" x="118.38" y="-157.27" font-family="Helvetica,sans-Serif" font-size="10.00"> v0</text>
<text xml:space="preserve" text-anchor="middle" x="118.38" y="-145.27" font-family="Helvetica,sans-Serif" font-size="10.00">v1</text>
<text xml:space="preserve" text-anchor="middle" x="118.38" y="-133.27" font-family="Helvetica,sans-Serif" font-size="10.00">v2</text>
</g>
<!-- Node7 -->
<g id="node7" class="node">
<title>Node7</title>
<g id="a_node7"><a xlink:href="a00464.html#a01399" target="_top" xlink:title="A vertex. Used internally in Embree.">
<polygon fill="white" stroke="#666666" points="287,-96 172,-96 172,-76 287,-76 287,-96"/>
<text xml:space="preserve" text-anchor="middle" x="229.5" y="-82.5" font-family="Helvetica,sans-Serif" font-size="10.00">HF::RayTracer::Vertex</text>
</a>
</g>
</g>
<!-- Node7&#45;&gt;Node1 -->
<g id="edge6" class="edge">
<title>Node7&#45;&gt;Node1</title>
<path fill="none" stroke="#9a32cd" stroke-dasharray="5,2" d="M298.61,-95.94C322.69,-99.57 349.95,-103.82 374.75,-108 380.47,-108.97 386.4,-110 392.35,-111.05"/>
<polygon fill="#9a32cd" stroke="#9a32cd" points="299.34,-92.51 288.93,-94.48 298.3,-99.43 299.34,-92.51"/>
<text xml:space="preserve" text-anchor="middle" x="347" y="-110.5" font-family="Helvetica,sans-Serif" font-size="10.00"> Vertices</text>
</g>
<!-- Node8 -->
<g id="node8" class="node">
<title>Node8</title>
<g id="a_node8"><a xlink:title=" ">
<polygon fill="white" stroke="#666666" points="56.88,-85 22.12,-85 22.12,-65 56.88,-65 56.88,-85"/>
<text xml:space="preserve" text-anchor="middle" x="39.5" y="-71.5" font-family="Helvetica,sans-Serif" font-size="10.00">float</text>
</a>
</g>
</g>
<!-- Node8&#45;&gt;Node7 -->
<g id="edge7" class="edge">
<title>Node8&#45;&gt;Node7</title>
<path fill="none" stroke="#9a32cd" stroke-dasharray="5,2" d="M68.52,-76.64C95.62,-78.23 137.5,-80.68 171.61,-82.67"/>
<polygon fill="#9a32cd" stroke="#9a32cd" points="68.88,-73.15 58.69,-76.06 68.47,-80.14 68.88,-73.15"/>
<text xml:space="preserve" text-anchor="middle" x="118.38" y="-107" font-family="Helvetica,sans-Serif" font-size="10.00"> x</text>
<text xml:space="preserve" text-anchor="middle" x="118.38" y="-95" font-family="Helvetica,sans-Serif" font-size="10.00">y</text>
<text xml:space="preserve" text-anchor="middle" x="118.38" y="-83" font-family="Helvetica,sans-Serif" font-size="10.00">z</text>
</g>
<!-- Node9 -->
<g id="node9" class="node">
<title>Node9</title>
<g id="a_node9"><a xlink:title=" ">
<polygon fill="white" stroke="#666666" points="246.5,-58 212.5,-58 212.5,-38 246.5,-38 246.5,-58"/>
<text xml:space="preserve" text-anchor="middle" x="229.5" y="-44.5" font-family="Helvetica,sans-Serif" font-size="10.00">bool</text>
</a>
</g>
</g>
<!-- Node9&#45;&gt;Node1 -->
<g id="edge8" class="edge">
<title>Node9&#45;&gt;Node1</title>
<path fill="none" stroke="#9a32cd" stroke-dasharray="5,2" d="M257.85,-52.9C287.22,-58.56 335.04,-68.94 374.75,-83 393.86,-89.77 414.4,-99.4 430.67,-107.62"/>
<polygon fill="#9a32cd" stroke="#9a32cd" points="258.78,-49.52 248.31,-51.11 257.49,-56.4 258.78,-49.52"/>
<text xml:space="preserve" text-anchor="middle" x="347" y="-85.5" font-family="Helvetica,sans-Serif" font-size="10.00"> use_precise</text>
</g>
<!-- Node10 -->
<g id="node10" class="node">
<title>Node10</title>
<g id="a_node10"><a xlink:title=" ">
<polygon fill="white" stroke="#666666" points="301.25,-20 157.75,-20 157.75,0 301.25,0 301.25,-20"/>
<text xml:space="preserve" text-anchor="middle" x="229.5" y="-6.5" font-family="Helvetica,sans-Serif" font-size="10.00">std::vector&lt; RTCGeometry &gt;</text>
</a>
</g>
</g>
<!-- Node10&#45;&gt;Node1 -->
<g id="edge9" class="edge">
<title>Node10&#45;&gt;Node1</title>
<path fill="none" stroke="#9a32cd" stroke-dasharray="5,2" d="M299.97,-23.21C324.51,-29.54 351.71,-38.54 374.75,-51 402.58,-66.05 429.62,-91.05 445.85,-107.52"/>
<polygon fill="#9a32cd" stroke="#9a32cd" points="300.92,-19.84 290.37,-20.84 299.25,-26.63 300.92,-19.84"/>
<text xml:space="preserve" text-anchor="middle" x="347" y="-53.5" font-family="Helvetica,sans-Serif" font-size="10.00"> geometry</text>
</g>
<!-- Node11 -->
<g id="node11" class="node">
<title>Node11</title>
<g id="a_node11"><a xlink:title=" ">
<polygon fill="white" stroke="#666666" points="79,-20 0,-20 0,0 79,0 79,-20"/>
<text xml:space="preserve" text-anchor="middle" x="39.5" y="-6.5" font-family="Helvetica,sans-Serif" font-size="10.00">RTCGeometry</text>
</a>
</g>
</g>
<!-- Node11&#45;&gt;Node10 -->
<g id="edge10" class="edge">
<title>Node11&#45;&gt;Node10</title>
<path fill="none" stroke="#9a32cd" stroke-dasharray="5,2" d="M90.72,-10C111.14,-10 135.12,-10 157.3,-10"/>
<polygon fill="#9a32cd" stroke="#9a32cd" points="90.97,-6.5 80.97,-10 90.97,-13.5 90.97,-6.5"/>
<text xml:space="preserve" text-anchor="middle" x="118.38" y="-12.5" font-family="Helvetica,sans-Serif" font-size="10.00"> elements</text>
</g>
</g>
</svg>
