<?xml version="1.0" encoding="UTF-8" standalone="no"?>
<!DOCTYPE svg PUBLIC "-//W3C//DTD SVG 1.1//EN"
 "http://www.w3.org/Graphics/SVG/1.1/DTD/svg11.dtd">
<!-- Generated by graphviz version 13.1.2 (20250808.2320)
 -->
<!-- Title: nanort::TriangleIntersection&lt; T &gt; Pages: 1 -->
<svg width="166pt" height="120pt"
 viewBox="0.00 0.00 166.00 120.00" xmlns="http://www.w3.org/2000/svg" xmlns:xlink="http://www.w3.org/1999/xlink">
<g id="graph0" class="graph" transform="scale(1 1) rotate(0) translate(4 116)">
<title>nanort::TriangleIntersection&lt; T &gt;</title>
<!-- Node1 -->
<g id="node1" class="node">
<title>Node1</title>
<g id="a_node1"><a xlink:title=" ">
<polygon fill="#999999" stroke="#666666" points="157.75,-20 0,-20 0,0 157.75,0 157.75,-20"/>
<text xml:space="preserve" text-anchor="middle" x="78.88" y="-6.5" font-family="Helvetica,sans-Serif" font-size="10.00">nanort::TriangleIntersection&lt; T &gt;</text>
</a>
</g>
</g>
<!-- Node2 -->
<g id="node2" class="node">
<title>Node2</title>
<g id="a_node2"><a xlink:title=" ">
<polygon fill="white" stroke="#666666" points="71.25,-112 36.5,-112 36.5,-92 71.25,-92 71.25,-112"/>
<text xml:space="preserve" text-anchor="middle" x="53.88" y="-98.5" font-family="Helvetica,sans-Serif" font-size="10.00">float</text>
</a>
</g>
</g>
<!-- Node2&#45;&gt;Node1 -->
<g id="edge1" class="edge">
<title>Node2&#45;&gt;Node1</title>
<path fill="none" stroke="#9a32cd" stroke-dasharray="5,2" d="M59.5,-80.75C64.74,-61.87 72.33,-34.58 76.27,-20.38"/>
<polygon fill="#9a32cd" stroke="#9a32cd" points="56.17,-79.68 56.86,-90.25 62.91,-81.55 56.17,-79.68"/>
<text xml:space="preserve" text-anchor="middle" x="73.79" y="-64.5" font-family="Helvetica,sans-Serif" font-size="10.00"> t</text>
<text xml:space="preserve" text-anchor="middle" x="73.79" y="-52.5" font-family="Helvetica,sans-Serif" font-size="10.00">u</text>
<text xml:space="preserve" text-anchor="middle" x="73.79" y="-40.5" font-family="Helvetica,sans-Serif" font-size="10.00">v</text>
</g>
<!-- Node3 -->
<g id="node3" class="node">
<title>Node3</title>
<g id="a_node3"><a xlink:title=" ">
<polygon fill="white" stroke="#666666" points="118.28,-112 89.47,-112 89.47,-92 118.28,-92 118.28,-112"/>
<text xml:space="preserve" text-anchor="middle" x="103.88" y="-98.5" font-family="Helvetica,sans-Serif" font-size="10.00">int</text>
</a>
</g>
</g>
<!-- Node3&#45;&gt;Node1 -->
<g id="edge2" class="edge">
<title>Node3&#45;&gt;Node1</title>
<path fill="none" stroke="#9a32cd" stroke-dasharray="5,2" d="M98.25,-80.75C93.01,-61.87 85.42,-34.58 81.48,-20.38"/>
<polygon fill="#9a32cd" stroke="#9a32cd" points="94.84,-81.55 100.89,-90.25 101.58,-79.68 94.84,-81.55"/>
<text xml:space="preserve" text-anchor="middle" x="113.04" y="-52.5" font-family="Helvetica,sans-Serif" font-size="10.00"> prim_id</text>
</g>
</g>
</svg>
