<?xml version="1.0" encoding="UTF-8" standalone="no"?>
<!DOCTYPE svg PUBLIC "-//W3C//DTD SVG 1.1//EN"
 "http://www.w3.org/Graphics/SVG/1.1/DTD/svg11.dtd">
<!-- Generated by graphviz version 13.1.2 (20250808.2320)
 -->
<!-- Title: nanort::BVHTraceOptions Pages: 1 -->
<svg width="244pt" height="108pt"
 viewBox="0.00 0.00 244.00 108.00" xmlns="http://www.w3.org/2000/svg" xmlns:xlink="http://www.w3.org/1999/xlink">
<g id="graph0" class="graph" transform="scale(1 1) rotate(0) translate(4 104)">
<title>nanort::BVHTraceOptions</title>
<!-- Node1 -->
<g id="node1" class="node">
<title>Node1</title>
<g id="a_node1"><a xlink:title="BVH trace option.">
<polygon fill="#999999" stroke="#666666" points="170.65,-20 42.15,-20 42.15,0 170.65,0 170.65,-20"/>
<text xml:space="preserve" text-anchor="middle" x="106.4" y="-6.5" font-family="Helvetica,sans-Serif" font-size="10.00">nanort::BVHTraceOptions</text>
</a>
</g>
</g>
<!-- Node2 -->
<g id="node2" class="node">
<title>Node2</title>
<g id="a_node2"><a xlink:title=" ">
<polygon fill="white" stroke="#666666" points="28.8,-100 0,-100 0,-80 28.8,-80 28.8,-100"/>
<text xml:space="preserve" text-anchor="middle" x="14.4" y="-86.5" font-family="Helvetica,sans-Serif" font-size="10.00">int</text>
</a>
</g>
</g>
<!-- Node2&#45;&gt;Node1 -->
<g id="edge1" class="edge">
<title>Node2&#45;&gt;Node1</title>
<path fill="none" stroke="#9a32cd" stroke-dasharray="5,2" d="M17.75,-68.81C20.42,-58.43 25.13,-46.25 33.4,-38 41.34,-30.08 51.8,-24.46 62.32,-20.47"/>
<polygon fill="#9a32cd" stroke="#9a32cd" points="14.38,-67.85 15.78,-78.36 21.23,-69.27 14.38,-67.85"/>
<text xml:space="preserve" text-anchor="middle" x="67.9" y="-52.5" font-family="Helvetica,sans-Serif" font-size="10.00"> prim_ids_range</text>
<text xml:space="preserve" text-anchor="middle" x="67.9" y="-40.5" font-family="Helvetica,sans-Serif" font-size="10.00">skip_prim_id</text>
</g>
<!-- Node3 -->
<g id="node3" class="node">
<title>Node3</title>
<g id="a_node3"><a xlink:title=" ">
<polygon fill="white" stroke="#666666" points="123.4,-100 89.4,-100 89.4,-80 123.4,-80 123.4,-100"/>
<text xml:space="preserve" text-anchor="middle" x="106.4" y="-86.5" font-family="Helvetica,sans-Serif" font-size="10.00">bool</text>
</a>
</g>
</g>
<!-- Node3&#45;&gt;Node1 -->
<g id="edge2" class="edge">
<title>Node3&#45;&gt;Node1</title>
<path fill="none" stroke="#9a32cd" stroke-dasharray="5,2" d="M106.4,-68.59C106.4,-52.94 106.4,-32.08 106.4,-20.24"/>
<polygon fill="#9a32cd" stroke="#9a32cd" points="102.9,-68.23 106.4,-78.23 109.9,-68.23 102.9,-68.23"/>
<text xml:space="preserve" text-anchor="middle" x="140.53" y="-46.5" font-family="Helvetica,sans-Serif" font-size="10.00"> cull_back_face</text>
</g>
<!-- Node4 -->
<g id="node4" class="node">
<title>Node4</title>
<g id="a_node4"><a xlink:title=" ">
<polygon fill="white" stroke="#666666" points="235.78,-100 159.03,-100 159.03,-80 235.78,-80 235.78,-100"/>
<text xml:space="preserve" text-anchor="middle" x="197.4" y="-86.5" font-family="Helvetica,sans-Serif" font-size="10.00">unsigned char</text>
</a>
</g>
</g>
<!-- Node4&#45;&gt;Node1 -->
<g id="edge3" class="edge">
<title>Node4&#45;&gt;Node1</title>
<path fill="none" stroke="#9a32cd" stroke-dasharray="5,2" d="M192.71,-68.84C189.4,-58.46 183.97,-46.28 175.4,-38 167.26,-30.13 156.56,-24.49 146.03,-20.46"/>
<polygon fill="#9a32cd" stroke="#9a32cd" points="189.31,-69.66 195.3,-78.39 196.06,-67.82 189.31,-69.66"/>
<text xml:space="preserve" text-anchor="middle" x="199.13" y="-46.5" font-family="Helvetica,sans-Serif" font-size="10.00"> pad</text>
</g>
</g>
</svg>
