<?xml version="1.0" encoding="UTF-8" standalone="no"?>
<!DOCTYPE svg PUBLIC "-//W3C//DTD SVG 1.1//EN"
 "http://www.w3.org/Graphics/SVG/1.1/DTD/svg11.dtd">
<!-- Generated by graphviz version 13.1.2 (20250808.2320)
 -->
<!-- Title: nanort::BVHAccel::BuildTree Pages: 1 -->
<svg width="513pt" height="142pt"
 viewBox="0.00 0.00 513.00 142.00" xmlns="http://www.w3.org/2000/svg" xmlns:xlink="http://www.w3.org/1999/xlink">
<g id="graph0" class="graph" transform="scale(1 1) rotate(0) translate(4 138)">
<title>nanort::BVHAccel::BuildTree</title>
<!-- Node1 -->
<g id="node1" class="node">
<title>Node1</title>
<g id="a_node1"><a xlink:title="Builds BVH tree recursively.">
<polygon fill="#999999" stroke="#666666" points="142,-77 0,-77 0,-57 142,-57 142,-77"/>
<text xml:space="preserve" text-anchor="middle" x="71" y="-63.5" font-family="Helvetica,sans-Serif" font-size="10.00">nanort::BVHAccel::BuildTree</text>
</a>
</g>
</g>
<!-- Node2 -->
<g id="node2" class="node">
<title>Node2</title>
<g id="a_node2"><a xlink:href="a00474.html#a06549eb8469b9a2004cc5332ca0d011e" target="_top" xlink:title=" ">
<polygon fill="white" stroke="#666666" points="324.5,-134 178,-134 178,-114 324.5,-114 324.5,-134"/>
<text xml:space="preserve" text-anchor="middle" x="251.25" y="-120.5" font-family="Helvetica,sans-Serif" font-size="10.00">nanort::ComputeBoundingBox</text>
</a>
</g>
</g>
<!-- Node1&#45;&gt;Node2 -->
<g id="edge1" class="edge">
<title>Node1&#45;&gt;Node2</title>
<path fill="none" stroke="#63b8ff" d="M98.79,-77.34C120.09,-85.38 150.74,-96.55 178,-105 184.19,-106.92 190.72,-108.81 197.21,-110.62"/>
<polygon fill="#63b8ff" stroke="#63b8ff" points="196.02,-113.92 206.59,-113.17 197.86,-107.17 196.02,-113.92"/>
</g>
<!-- Node3 -->
<g id="node3" class="node">
<title>Node3</title>
<g id="a_node3"><a xlink:href="a00474.html#a67ae269fe2215d261b995f1da13320f7" target="_top" xlink:title=" ">
<polygon fill="white" stroke="#666666" points="318.12,-96 184.38,-96 184.38,-76 318.12,-76 318.12,-96"/>
<text xml:space="preserve" text-anchor="middle" x="251.25" y="-82.5" font-family="Helvetica,sans-Serif" font-size="10.00">nanort::ContributeBinBuffer</text>
</a>
</g>
</g>
<!-- Node1&#45;&gt;Node3 -->
<g id="edge2" class="edge">
<title>Node1&#45;&gt;Node3</title>
<path fill="none" stroke="#63b8ff" d="M142.45,-74.51C152.42,-75.57 162.71,-76.67 172.81,-77.75"/>
<polygon fill="#63b8ff" stroke="#63b8ff" points="172.27,-81.21 182.58,-78.79 173.01,-74.25 172.27,-81.21"/>
</g>
<!-- Node4 -->
<g id="node4" class="node">
<title>Node4</title>
<g id="a_node4"><a xlink:href="a00474.html#ac281b6ed7e50b406666a6e67e9547b7e" target="_top" xlink:title=" ">
<polygon fill="white" stroke="#666666" points="324.12,-58 178.38,-58 178.38,-38 324.12,-38 324.12,-58"/>
<text xml:space="preserve" text-anchor="middle" x="251.25" y="-44.5" font-family="Helvetica,sans-Serif" font-size="10.00">nanort::FindCutFromBinBuffer</text>
</a>
</g>
</g>
<!-- Node1&#45;&gt;Node4 -->
<g id="edge3" class="edge">
<title>Node1&#45;&gt;Node4</title>
<path fill="none" stroke="#63b8ff" d="M142.45,-59.49C150.39,-58.64 158.53,-57.78 166.61,-56.91"/>
<polygon fill="#63b8ff" stroke="#63b8ff" points="166.9,-60.4 176.47,-55.86 166.15,-53.44 166.9,-60.4"/>
</g>
<!-- Node7 -->
<g id="node7" class="node">
<title>Node7</title>
<g id="a_node7"><a xlink:href="a00474.html#a60ac3f02ccb852decfdc6f7f02d7184f" target="_top" xlink:title=" ">
<polygon fill="white" stroke="#666666" points="312.5,-20 190,-20 190,0 312.5,0 312.5,-20"/>
<text xml:space="preserve" text-anchor="middle" x="251.25" y="-6.5" font-family="Helvetica,sans-Serif" font-size="10.00">nanort::GetBoundingBox</text>
</a>
</g>
</g>
<!-- Node1&#45;&gt;Node7 -->
<g id="edge6" class="edge">
<title>Node1&#45;&gt;Node7</title>
<path fill="none" stroke="#63b8ff" d="M98.79,-56.66C120.09,-48.62 150.74,-37.45 178,-29 184.19,-27.08 190.72,-25.19 197.21,-23.38"/>
<polygon fill="#63b8ff" stroke="#63b8ff" points="197.86,-26.83 206.59,-20.83 196.02,-20.08 197.86,-26.83"/>
</g>
<!-- Node5 -->
<g id="node5" class="node">
<title>Node5</title>
<g id="a_node5"><a xlink:href="a00474.html#a1f672faac125854c89c907614545fe60" target="_top" xlink:title=" ">
<polygon fill="white" stroke="#666666" points="504.75,-77 360.5,-77 360.5,-57 504.75,-57 504.75,-77"/>
<text xml:space="preserve" text-anchor="middle" x="432.62" y="-63.5" font-family="Helvetica,sans-Serif" font-size="10.00">nanort::CalculateSurfaceArea</text>
</a>
</g>
</g>
<!-- Node4&#45;&gt;Node5 -->
<g id="edge4" class="edge">
<title>Node4&#45;&gt;Node5</title>
<path fill="none" stroke="#63b8ff" d="M324.43,-55.65C332.44,-56.49 340.64,-57.36 348.76,-58.22"/>
<polygon fill="#63b8ff" stroke="#63b8ff" points="348.35,-61.7 358.67,-59.27 349.09,-54.74 348.35,-61.7"/>
</g>
<!-- Node6 -->
<g id="node6" class="node">
<title>Node6</title>
<g id="a_node6"><a xlink:href="a00474.html#a2224f7a101ce863a9332f059dfef9dd1" target="_top" xlink:title=" ">
<polygon fill="white" stroke="#666666" points="467.62,-39 397.62,-39 397.62,-19 467.62,-19 467.62,-39"/>
<text xml:space="preserve" text-anchor="middle" x="432.62" y="-25.5" font-family="Helvetica,sans-Serif" font-size="10.00">nanort::SAH</text>
</a>
</g>
</g>
<!-- Node4&#45;&gt;Node6 -->
<g id="edge5" class="edge">
<title>Node4&#45;&gt;Node6</title>
<path fill="none" stroke="#63b8ff" d="M324.43,-40.35C345.13,-38.16 367.13,-35.83 385.78,-33.86"/>
<polygon fill="#63b8ff" stroke="#63b8ff" points="386.12,-37.34 395.7,-32.81 385.38,-30.38 386.12,-37.34"/>
</g>
</g>
</svg>
