<?xml version="1.0" encoding="UTF-8" standalone="no"?>
<!DOCTYPE svg PUBLIC "-//W3C//DTD SVG 1.1//EN"
 "http://www.w3.org/Graphics/SVG/1.1/DTD/svg11.dtd">
<!-- Generated by graphviz version 13.1.2 (20250808.2320)
 -->
<!-- Title: nanort::real3::z Pages: 1 -->
<svg width="381pt" height="294pt"
 viewBox="0.00 0.00 381.00 294.00" xmlns="http://www.w3.org/2000/svg" xmlns:xlink="http://www.w3.org/1999/xlink">
<g id="graph0" class="graph" transform="scale(1 1) rotate(0) translate(4 290)">
<title>nanort::real3::z</title>
<!-- Node1 -->
<g id="node1" class="node">
<title>Node1</title>
<g id="a_node1"><a xlink:title=" ">
<polygon fill="#999999" stroke="#666666" points="372.75,-153 291.5,-153 291.5,-133 372.75,-133 372.75,-153"/>
<text xml:space="preserve" text-anchor="middle" x="332.12" y="-139.5" font-family="Helvetica,sans-Serif" font-size="10.00">nanort::real3::z</text>
</a>
</g>
</g>
<!-- Node2 -->
<g id="node2" class="node">
<title>Node2</title>
<g id="a_node2"><a xlink:href="a01443.html#a53be64ec8d91a0d750a386c28b86d8c5" target="_top" xlink:title=" ">
<polygon fill="white" stroke="#666666" points="251.38,-286 136.38,-286 136.38,-266 251.38,-266 251.38,-286"/>
<text xml:space="preserve" text-anchor="middle" x="193.88" y="-272.5" font-family="Helvetica,sans-Serif" font-size="10.00">nanort::real3::operator*</text>
</a>
</g>
</g>
<!-- Node1&#45;&gt;Node2 -->
<g id="edge1" class="edge">
<title>Node1&#45;&gt;Node2</title>
<path fill="none" stroke="#63b8ff" d="M322.7,-163.59C311.22,-189.15 288.27,-232.38 255.5,-257 250.91,-260.45 245.69,-263.28 240.28,-265.6"/>
<polygon fill="#63b8ff" stroke="#63b8ff" points="325.83,-165.18 326.57,-154.61 319.4,-162.41 325.83,-165.18"/>
</g>
<!-- Node3 -->
<g id="node3" class="node">
<title>Node3</title>
<g id="a_node3"><a xlink:href="a00474.html#ac087438e0e06d6e0bfd900f023d566cf" target="_top" xlink:title=" ">
<polygon fill="white" stroke="#666666" points="237.88,-248 149.88,-248 149.88,-228 237.88,-228 237.88,-248"/>
<text xml:space="preserve" text-anchor="middle" x="193.88" y="-234.5" font-family="Helvetica,sans-Serif" font-size="10.00">nanort::operator*</text>
</a>
</g>
</g>
<!-- Node1&#45;&gt;Node3 -->
<g id="edge2" class="edge">
<title>Node1&#45;&gt;Node3</title>
<path fill="none" stroke="#63b8ff" d="M316.68,-162.08C302.75,-179.24 280.2,-204 255.5,-219 249.94,-222.38 243.72,-225.21 237.44,-227.56"/>
<polygon fill="#63b8ff" stroke="#63b8ff" points="319.12,-164.64 322.55,-154.62 313.62,-160.31 319.12,-164.64"/>
</g>
<!-- Node4 -->
<g id="node4" class="node">
<title>Node4</title>
<g id="a_node4"><a xlink:href="a01443.html#abba2600acee60dddefa6797835e44300" target="_top" xlink:title=" ">
<polygon fill="white" stroke="#666666" points="252.5,-210 135.25,-210 135.25,-190 252.5,-190 252.5,-210"/>
<text xml:space="preserve" text-anchor="middle" x="193.88" y="-196.5" font-family="Helvetica,sans-Serif" font-size="10.00">nanort::real3::operator+</text>
</a>
</g>
</g>
<!-- Node1&#45;&gt;Node4 -->
<g id="edge3" class="edge">
<title>Node1&#45;&gt;Node4</title>
<path fill="none" stroke="#63b8ff" d="M302.59,-158.71C288.64,-166.04 271.45,-174.54 255.5,-181 247.83,-184.1 239.45,-187.02 231.44,-189.59"/>
<polygon fill="#63b8ff" stroke="#63b8ff" points="304.05,-161.9 311.22,-154.11 300.75,-155.73 304.05,-161.9"/>
</g>
<!-- Node5 -->
<g id="node5" class="node">
<title>Node5</title>
<g id="a_node5"><a xlink:href="a01443.html#ac5df078f42dc0877ba9fab81dc48d1c4" target="_top" xlink:title=" ">
<polygon fill="white" stroke="#666666" points="255.5,-172 132.25,-172 132.25,-152 255.5,-152 255.5,-172"/>
<text xml:space="preserve" text-anchor="middle" x="193.88" y="-158.5" font-family="Helvetica,sans-Serif" font-size="10.00">nanort::real3::operator+=</text>
</a>
</g>
</g>
<!-- Node1&#45;&gt;Node5 -->
<g id="edge4" class="edge">
<title>Node1&#45;&gt;Node5</title>
<path fill="none" stroke="#63b8ff" d="M280.11,-150.11C272.24,-151.21 264.05,-152.35 255.98,-153.48"/>
<polygon fill="#63b8ff" stroke="#63b8ff" points="280.43,-153.6 289.85,-148.76 279.46,-146.67 280.43,-153.6"/>
</g>
<!-- Node6 -->
<g id="node6" class="node">
<title>Node6</title>
<g id="a_node6"><a xlink:href="a01443.html#aff71230adfb3070aa773cb08dad19e03" target="_top" xlink:title=" ">
<polygon fill="white" stroke="#666666" points="251,-134 136.75,-134 136.75,-114 251,-114 251,-134"/>
<text xml:space="preserve" text-anchor="middle" x="193.88" y="-120.5" font-family="Helvetica,sans-Serif" font-size="10.00">nanort::real3::operator&#45;</text>
</a>
</g>
</g>
<!-- Node1&#45;&gt;Node6 -->
<g id="edge5" class="edge">
<title>Node1&#45;&gt;Node6</title>
<path fill="none" stroke="#63b8ff" d="M280.18,-135.9C270.8,-134.59 260.95,-133.21 251.41,-131.88"/>
<polygon fill="#63b8ff" stroke="#63b8ff" points="279.46,-139.33 289.85,-137.24 280.43,-132.4 279.46,-139.33"/>
</g>
<!-- Node7 -->
<g id="node7" class="node">
<title>Node7</title>
<g id="a_node7"><a xlink:href="a01443.html#a0fdbf92ea5a1299ad4b6eb6199336eeb" target="_top" xlink:title=" ">
<polygon fill="white" stroke="#666666" points="251,-96 136.75,-96 136.75,-76 251,-76 251,-96"/>
<text xml:space="preserve" text-anchor="middle" x="193.88" y="-82.5" font-family="Helvetica,sans-Serif" font-size="10.00">nanort::real3::operator/</text>
</a>
</g>
</g>
<!-- Node1&#45;&gt;Node7 -->
<g id="edge6" class="edge">
<title>Node1&#45;&gt;Node7</title>
<path fill="none" stroke="#63b8ff" d="M302.59,-127.29C288.64,-119.96 271.45,-111.46 255.5,-105 247.83,-101.9 239.45,-98.98 231.44,-96.41"/>
<polygon fill="#63b8ff" stroke="#63b8ff" points="300.75,-130.27 311.22,-131.89 304.05,-124.1 300.75,-130.27"/>
</g>
<!-- Node8 -->
<g id="node8" class="node">
<title>Node8</title>
<g id="a_node8"><a xlink:href="a00474.html#ab9ba72d8d5e11d213c39ce9bd8e851ef" target="_top" xlink:title=" ">
<polygon fill="white" stroke="#666666" points="234.12,-58 153.62,-58 153.62,-38 234.12,-38 234.12,-58"/>
<text xml:space="preserve" text-anchor="middle" x="193.88" y="-44.5" font-family="Helvetica,sans-Serif" font-size="10.00">nanort::vlength</text>
</a>
</g>
</g>
<!-- Node1&#45;&gt;Node8 -->
<g id="edge7" class="edge">
<title>Node1&#45;&gt;Node8</title>
<path fill="none" stroke="#63b8ff" d="M316.68,-123.92C302.75,-106.76 280.2,-82 255.5,-67 249.09,-63.11 241.81,-59.94 234.57,-57.39"/>
<polygon fill="#63b8ff" stroke="#63b8ff" points="313.62,-125.69 322.55,-131.38 319.12,-121.36 313.62,-125.69"/>
</g>
<!-- Node10 -->
<g id="node10" class="node">
<title>Node10</title>
<g id="a_node10"><a xlink:href="a00474.html#aecb04fda18a17169fe84e62932fba761" target="_top" xlink:title=" ">
<polygon fill="white" stroke="#666666" points="228.88,-20 158.88,-20 158.88,0 228.88,0 228.88,-20"/>
<text xml:space="preserve" text-anchor="middle" x="193.88" y="-6.5" font-family="Helvetica,sans-Serif" font-size="10.00">nanort::vneg</text>
</a>
</g>
</g>
<!-- Node1&#45;&gt;Node10 -->
<g id="edge9" class="edge">
<title>Node1&#45;&gt;Node10</title>
<path fill="none" stroke="#63b8ff" d="M322.7,-122.41C311.22,-96.85 288.27,-53.62 255.5,-29 247.83,-23.24 238.37,-19.19 229.22,-16.37"/>
<polygon fill="#63b8ff" stroke="#63b8ff" points="319.4,-123.59 326.57,-131.39 325.83,-120.82 319.4,-123.59"/>
</g>
<!-- Node9 -->
<g id="node9" class="node">
<title>Node9</title>
<g id="a_node9"><a xlink:href="a00474.html#a3158af945b024d902dbe469939dfd025" target="_top" xlink:title=" ">
<polygon fill="white" stroke="#666666" points="96.25,-58 0,-58 0,-38 96.25,-38 96.25,-58"/>
<text xml:space="preserve" text-anchor="middle" x="48.12" y="-44.5" font-family="Helvetica,sans-Serif" font-size="10.00">nanort::vnormalize</text>
</a>
</g>
</g>
<!-- Node8&#45;&gt;Node9 -->
<g id="edge8" class="edge">
<title>Node8&#45;&gt;Node9</title>
<path fill="none" stroke="#63b8ff" d="M141.74,-48C127.03,-48 111.05,-48 96.57,-48"/>
<polygon fill="#63b8ff" stroke="#63b8ff" points="141.7,-51.5 151.7,-48 141.7,-44.5 141.7,-51.5"/>
</g>
</g>
</svg>
