<?xml version="1.0" encoding="UTF-8" standalone="no"?>
<!DOCTYPE svg PUBLIC "-//W3C//DTD SVG 1.1//EN"
 "http://www.w3.org/Graphics/SVG/1.1/DTD/svg11.dtd">
<!-- Generated by graphviz version 13.1.2 (20250808.2320)
 -->
<!-- Title: HF::RayTracer::EmbreeRayTracer::EmbreeRayTracer Pages: 1 -->
<svg width="691pt" height="170pt"
 viewBox="0.00 0.00 691.00 170.00" xmlns="http://www.w3.org/2000/svg" xmlns:xlink="http://www.w3.org/1999/xlink">
<g id="graph0" class="graph" transform="scale(1 1) rotate(0) translate(4 166)">
<title>HF::RayTracer::EmbreeRayTracer::EmbreeRayTracer</title>
<!-- Node1 -->
<g id="node1" class="node">
<title>Node1</title>
<g id="a_node1"><a xlink:title="Construct the raytracer using only a single mesh.">
<polygon fill="#999999" stroke="#666666" points="139,-57 0,-57 0,-25 139,-25 139,-57"/>
<text xml:space="preserve" text-anchor="start" x="8" y="-43.5" font-family="Helvetica,sans-Serif" font-size="10.00">HF::RayTracer::EmbreeRay</text>
<text xml:space="preserve" text-anchor="middle" x="69.5" y="-31.5" font-family="Helvetica,sans-Serif" font-size="10.00">Tracer::EmbreeRayTracer</text>
</a>
</g>
</g>
<!-- Node2 -->
<g id="node2" class="node">
<title>Node2</title>
<g id="a_node2"><a xlink:href="a01411.html#a6425a0f8f4a3ef8073e734ceb745cd1e" target="_top" xlink:title="Add a new mesh to this raytracer&#39;s BVH with the specified ID.">
<polygon fill="white" stroke="#666666" points="314,-82 175,-82 175,-50 314,-50 314,-82"/>
<text xml:space="preserve" text-anchor="start" x="183" y="-68.5" font-family="Helvetica,sans-Serif" font-size="10.00">HF::RayTracer::EmbreeRay</text>
<text xml:space="preserve" text-anchor="middle" x="244.5" y="-56.5" font-family="Helvetica,sans-Serif" font-size="10.00">Tracer::AddMesh</text>
</a>
</g>
</g>
<!-- Node1&#45;&gt;Node2 -->
<g id="edge1" class="edge">
<title>Node1&#45;&gt;Node2</title>
<path fill="none" stroke="#63b8ff" d="M139.37,-50.95C147.25,-52.09 155.33,-53.26 163.34,-54.42"/>
<polygon fill="#63b8ff" stroke="#63b8ff" points="162.69,-57.86 173.09,-55.82 163.69,-50.93 162.69,-57.86"/>
</g>
<!-- Node7 -->
<g id="node7" class="node">
<title>Node7</title>
<g id="a_node7"><a xlink:href="a01411.html#a19527943d1afe002c1105cb3b3691ca7" target="_top" xlink:title="Performs all the necessary operations to set up the scene.">
<polygon fill="white" stroke="#666666" points="314,-32 175,-32 175,0 314,0 314,-32"/>
<text xml:space="preserve" text-anchor="start" x="183" y="-18.5" font-family="Helvetica,sans-Serif" font-size="10.00">HF::RayTracer::EmbreeRay</text>
<text xml:space="preserve" text-anchor="middle" x="244.5" y="-6.5" font-family="Helvetica,sans-Serif" font-size="10.00">Tracer::SetupScene</text>
</a>
</g>
</g>
<!-- Node1&#45;&gt;Node7 -->
<g id="edge7" class="edge">
<title>Node1&#45;&gt;Node7</title>
<path fill="none" stroke="#63b8ff" d="M139.37,-31.05C147.25,-29.91 155.33,-28.74 163.34,-27.58"/>
<polygon fill="#63b8ff" stroke="#63b8ff" points="163.69,-31.07 173.09,-26.18 162.69,-24.14 163.69,-31.07"/>
</g>
<!-- Node3 -->
<g id="node3" class="node">
<title>Node3</title>
<g id="a_node3"><a xlink:href="a01411.html#aa602f6c44fa5230477642942ebc3216e" target="_top" xlink:title="Create a new instance of RTCGeometry from a triangle and vertex buffer.">
<polygon fill="white" stroke="#666666" points="507.75,-162 350,-162 350,-118 507.75,-118 507.75,-162"/>
<text xml:space="preserve" text-anchor="start" x="358" y="-148.5" font-family="Helvetica,sans-Serif" font-size="10.00">HF::RayTracer::EmbreeRay</text>
<text xml:space="preserve" text-anchor="start" x="358" y="-136.5" font-family="Helvetica,sans-Serif" font-size="10.00">Tracer::ConstructGeometryFrom</text>
<text xml:space="preserve" text-anchor="middle" x="428.88" y="-124.5" font-family="Helvetica,sans-Serif" font-size="10.00">Buffers</text>
</a>
</g>
</g>
<!-- Node2&#45;&gt;Node3 -->
<g id="edge2" class="edge">
<title>Node2&#45;&gt;Node3</title>
<path fill="none" stroke="#63b8ff" d="M285.15,-82.44C304.66,-90.5 328.54,-100.31 350,-109 353.55,-110.44 357.19,-111.9 360.86,-113.38"/>
<polygon fill="#63b8ff" stroke="#63b8ff" points="359.29,-116.52 369.87,-116.99 361.89,-110.02 359.29,-116.52"/>
</g>
<!-- Node4 -->
<g id="node4" class="node">
<title>Node4</title>
<g id="a_node4"><a xlink:href="a01411.html#a6ee1e15bc515878b156bc6a3778f8033" target="_top" xlink:title="Attach geometry to the current scene.">
<polygon fill="white" stroke="#666666" points="498.38,-82 359.38,-82 359.38,-50 498.38,-50 498.38,-82"/>
<text xml:space="preserve" text-anchor="start" x="367.38" y="-68.5" font-family="Helvetica,sans-Serif" font-size="10.00">HF::RayTracer::EmbreeRay</text>
<text xml:space="preserve" text-anchor="middle" x="428.88" y="-56.5" font-family="Helvetica,sans-Serif" font-size="10.00">Tracer::InsertGeom</text>
</a>
</g>
</g>
<!-- Node2&#45;&gt;Node4 -->
<g id="edge3" class="edge">
<title>Node2&#45;&gt;Node4</title>
<path fill="none" stroke="#63b8ff" d="M314.45,-66C325.3,-66 336.61,-66 347.69,-66"/>
<polygon fill="#63b8ff" stroke="#63b8ff" points="347.62,-69.5 357.62,-66 347.62,-62.5 347.62,-69.5"/>
</g>
<!-- Node6 -->
<g id="node6" class="node">
<title>Node6</title>
<g id="a_node6"><a xlink:href="a00464.html#a732eb910d06064bea04e6a959fd235f0" target="_top" xlink:title="Index a list of verticies and place them into a triangle and vertex buffer.">
<polygon fill="white" stroke="#666666" points="493.88,-32 363.88,-32 363.88,0 493.88,0 493.88,-32"/>
<text xml:space="preserve" text-anchor="start" x="371.88" y="-18.5" font-family="Helvetica,sans-Serif" font-size="10.00">HF::RayTracer::vectorsTo</text>
<text xml:space="preserve" text-anchor="middle" x="428.88" y="-6.5" font-family="Helvetica,sans-Serif" font-size="10.00">Buffers</text>
</a>
</g>
</g>
<!-- Node2&#45;&gt;Node6 -->
<g id="edge6" class="edge">
<title>Node2&#45;&gt;Node6</title>
<path fill="none" stroke="#63b8ff" d="M305.47,-49.56C321.91,-45.05 339.88,-40.12 356.87,-35.47"/>
<polygon fill="#63b8ff" stroke="#63b8ff" points="357.69,-38.87 366.41,-32.85 355.84,-32.12 357.69,-38.87"/>
</g>
<!-- Node4&#45;&gt;Node4 -->
<g id="edge5" class="edge">
<title>Node4&#45;&gt;Node4</title>
<path fill="none" stroke="#63b8ff" d="M395.96,-82.44C389.81,-91.58 400.79,-100 428.88,-100 444.24,-100 454.48,-97.48 459.6,-93.71"/>
<polygon fill="#63b8ff" stroke="#63b8ff" points="463.03,-94.41 461.5,-83.93 456.16,-93.08 463.03,-94.41"/>
</g>
<!-- Node5 -->
<g id="node5" class="node">
<title>Node5</title>
<g id="a_node5"><a xlink:href="a00464.html#a19e11d13f73136d6819b8abee57b0fd9" target="_top" xlink:title="Check an embree device for errors.">
<polygon fill="white" stroke="#666666" points="682.75,-76 543.75,-76 543.75,-56 682.75,-56 682.75,-76"/>
<text xml:space="preserve" text-anchor="middle" x="613.25" y="-62.5" font-family="Helvetica,sans-Serif" font-size="10.00">HF::RayTracer::CheckState</text>
</a>
</g>
</g>
<!-- Node4&#45;&gt;Node5 -->
<g id="edge4" class="edge">
<title>Node4&#45;&gt;Node5</title>
<path fill="none" stroke="#63b8ff" d="M498.82,-66C509.68,-66 520.98,-66 532.06,-66"/>
<polygon fill="#63b8ff" stroke="#63b8ff" points="531.99,-69.5 541.99,-66 531.99,-62.5 531.99,-69.5"/>
</g>
</g>
</svg>
