<?xml version="1.0" encoding="UTF-8" standalone="no"?>
<!DOCTYPE svg PUBLIC "-//W3C//DTD SVG 1.1//EN"
 "http://www.w3.org/Graphics/SVG/1.1/DTD/svg11.dtd">
<!-- Generated by graphviz version 13.1.2 (20250808.2320)
 -->
<!-- Title: HF::RayTracer::EmbreeRayTracer::Occluded_IMPL Pages: 1 -->
<svg width="925pt" height="189pt"
 viewBox="0.00 0.00 925.00 189.00" xmlns="http://www.w3.org/2000/svg" xmlns:xlink="http://www.w3.org/1999/xlink">
<g id="graph0" class="graph" transform="scale(1 1) rotate(0) translate(4 185)">
<title>HF::RayTracer::EmbreeRayTracer::Occluded_IMPL</title>
<!-- Node1 -->
<g id="node1" class="node">
<title>Node1</title>
<g id="a_node1"><a xlink:title="Implementation for fundamental occlusion ray intersection.">
<polygon fill="#999999" stroke="#666666" points="917.25,-82 778.25,-82 778.25,-50 917.25,-50 917.25,-82"/>
<text xml:space="preserve" text-anchor="start" x="786.25" y="-68.5" font-family="Helvetica,sans-Serif" font-size="10.00">HF::RayTracer::EmbreeRay</text>
<text xml:space="preserve" text-anchor="middle" x="847.75" y="-56.5" font-family="Helvetica,sans-Serif" font-size="10.00">Tracer::Occluded_IMPL</text>
</a>
</g>
</g>
<!-- Node2 -->
<g id="node2" class="node">
<title>Node2</title>
<g id="a_node2"><a xlink:href="a01411.html#a3a7488f8e41c8a9e3dc9c334047c6457" target="_top" xlink:title="Determine if there is an intersection with any geometry.">
<polygon fill="white" stroke="#666666" points="742.25,-132 603.25,-132 603.25,-100 742.25,-100 742.25,-132"/>
<text xml:space="preserve" text-anchor="start" x="611.25" y="-118.5" font-family="Helvetica,sans-Serif" font-size="10.00">HF::RayTracer::EmbreeRay</text>
<text xml:space="preserve" text-anchor="middle" x="672.75" y="-106.5" font-family="Helvetica,sans-Serif" font-size="10.00">Tracer::Occluded</text>
</a>
</g>
</g>
<!-- Node1&#45;&gt;Node2 -->
<g id="edge1" class="edge">
<title>Node1&#45;&gt;Node2</title>
<path fill="none" stroke="#63b8ff" d="M779.2,-85.52C763.21,-90.15 746.3,-95.03 730.82,-99.51"/>
<polygon fill="#63b8ff" stroke="#63b8ff" points="780.01,-88.93 788.65,-82.79 778.07,-82.21 780.01,-88.93"/>
</g>
<!-- Node12 -->
<g id="node12" class="node">
<title>Node12</title>
<g id="a_node12"><a xlink:href="a01411.html#a7b06460e537c22386fa5a9af2701591a" target="_top" xlink:title="Cast an occlusion ray using arrays as input.">
<polygon fill="white" stroke="#666666" points="742.25,-82 603.25,-82 603.25,-50 742.25,-50 742.25,-82"/>
<text xml:space="preserve" text-anchor="start" x="611.25" y="-68.5" font-family="Helvetica,sans-Serif" font-size="10.00">HF::RayTracer::EmbreeRay</text>
<text xml:space="preserve" text-anchor="middle" x="672.75" y="-56.5" font-family="Helvetica,sans-Serif" font-size="10.00">Tracer::Occluded_IMPL</text>
</a>
</g>
</g>
<!-- Node1&#45;&gt;Node12 -->
<g id="edge14" class="edge">
<title>Node1&#45;&gt;Node12</title>
<path fill="none" stroke="#63b8ff" d="M766.63,-66C758.63,-66 750.55,-66 742.67,-66"/>
<polygon fill="#63b8ff" stroke="#63b8ff" points="766.37,-69.5 776.37,-66 766.37,-62.5 766.37,-69.5"/>
</g>
<!-- Node13 -->
<g id="node13" class="node">
<title>Node13</title>
<g id="a_node13"><a xlink:href="a01411.html#af718d171387e217f3c2172f795abfb90" target="_top" xlink:title="Cast multiple occlusion rays in parallel.">
<polygon fill="white" stroke="#666666" points="742.25,-32 603.25,-32 603.25,0 742.25,0 742.25,-32"/>
<text xml:space="preserve" text-anchor="start" x="611.25" y="-18.5" font-family="Helvetica,sans-Serif" font-size="10.00">HF::RayTracer::EmbreeRay</text>
<text xml:space="preserve" text-anchor="middle" x="672.75" y="-6.5" font-family="Helvetica,sans-Serif" font-size="10.00">Tracer::Occlusions</text>
</a>
</g>
</g>
<!-- Node1&#45;&gt;Node13 -->
<g id="edge15" class="edge">
<title>Node1&#45;&gt;Node13</title>
<path fill="none" stroke="#63b8ff" d="M779.2,-46.48C763.21,-41.85 746.3,-36.97 730.82,-32.49"/>
<polygon fill="#63b8ff" stroke="#63b8ff" points="778.07,-49.79 788.65,-49.21 780.01,-43.07 778.07,-49.79"/>
</g>
<!-- Node3 -->
<g id="node3" class="node">
<title>Node3</title>
<g id="a_node3"><a xlink:href="a00467.html#af811d21e4c49275521912df9254bb737" target="_top" xlink:title="Check if Node can be raised by height without clipping into any geometry.">
<polygon fill="white" stroke="#666666" points="564.62,-108 466.12,-108 466.12,-76 564.62,-76 564.62,-108"/>
<text xml:space="preserve" text-anchor="start" x="474.12" y="-94.5" font-family="Helvetica,sans-Serif" font-size="10.00">HF::VisibilityGraph</text>
<text xml:space="preserve" text-anchor="middle" x="515.38" y="-82.5" font-family="Helvetica,sans-Serif" font-size="10.00">::HeightCheck</text>
</a>
</g>
</g>
<!-- Node2&#45;&gt;Node3 -->
<g id="edge2" class="edge">
<title>Node2&#45;&gt;Node3</title>
<path fill="none" stroke="#63b8ff" d="M591.96,-103.68C582.77,-102.26 573.63,-100.84 565.04,-99.52"/>
<polygon fill="#63b8ff" stroke="#63b8ff" points="591.24,-107.1 601.65,-105.17 592.3,-100.19 591.24,-107.1"/>
</g>
<!-- Node11 -->
<g id="node11" class="node">
<title>Node11</title>
<g id="a_node11"><a xlink:href="a00467.html#a4d9cf77879eb78075f7f7b0a7e31119a" target="_top" xlink:title="Perform a line of sight check between two nodes.">
<polygon fill="white" stroke="#666666" points="424.12,-156 312.12,-156 312.12,-124 424.12,-124 424.12,-156"/>
<text xml:space="preserve" text-anchor="start" x="320.12" y="-142.5" font-family="Helvetica,sans-Serif" font-size="10.00">HF::VisibilityGraph</text>
<text xml:space="preserve" text-anchor="middle" x="368.12" y="-130.5" font-family="Helvetica,sans-Serif" font-size="10.00">::IsOcclusionBetween</text>
</a>
</g>
</g>
<!-- Node2&#45;&gt;Node11 -->
<g id="edge10" class="edge">
<title>Node2&#45;&gt;Node11</title>
<path fill="none" stroke="#63b8ff" d="M591.72,-122.35C538.97,-126.53 471.22,-131.9 424.39,-135.62"/>
<polygon fill="#63b8ff" stroke="#63b8ff" points="591.88,-125.85 601.57,-121.57 591.33,-118.87 591.88,-125.85"/>
</g>
<!-- Node4 -->
<g id="node4" class="node">
<title>Node4</title>
<g id="a_node4"><a xlink:href="a00467.html#a05b8a83ab27113369c95649470d864b9" target="_top" xlink:title="Obtain the indexes of all nodes that pass the HeightCheck.">
<polygon fill="white" stroke="#666666" points="427.5,-106 308.75,-106 308.75,-74 427.5,-74 427.5,-106"/>
<text xml:space="preserve" text-anchor="start" x="316.75" y="-92.5" font-family="Helvetica,sans-Serif" font-size="10.00">HF::VisibilityGraph</text>
<text xml:space="preserve" text-anchor="middle" x="368.12" y="-80.5" font-family="Helvetica,sans-Serif" font-size="10.00">::HeightCheckAllNodes</text>
</a>
</g>
</g>
<!-- Node3&#45;&gt;Node4 -->
<g id="edge3" class="edge">
<title>Node3&#45;&gt;Node4</title>
<path fill="none" stroke="#63b8ff" d="M454.6,-91.18C445.78,-91.06 436.69,-90.93 427.88,-90.81"/>
<polygon fill="#63b8ff" stroke="#63b8ff" points="454.45,-94.68 464.5,-91.31 454.54,-87.68 454.45,-94.68"/>
</g>
<!-- Node5 -->
<g id="node5" class="node">
<title>Node5</title>
<g id="a_node5"><a xlink:href="a00467.html#a12eb1e4c06400c4625cd22d925927b03" target="_top" xlink:title="Generate a Visibility Graph between every node in a set of nodes in parallel.">
<polygon fill="white" stroke="#666666" points="270.88,-181 172.38,-181 172.38,-149 270.88,-149 270.88,-181"/>
<text xml:space="preserve" text-anchor="start" x="180.38" y="-167.5" font-family="Helvetica,sans-Serif" font-size="10.00">HF::VisibilityGraph</text>
<text xml:space="preserve" text-anchor="middle" x="221.62" y="-155.5" font-family="Helvetica,sans-Serif" font-size="10.00">::AllToAll</text>
</a>
</g>
</g>
<!-- Node4&#45;&gt;Node5 -->
<g id="edge4" class="edge">
<title>Node4&#45;&gt;Node5</title>
<path fill="none" stroke="#63b8ff" d="M315.52,-111.42C313.21,-112.59 310.94,-113.78 308.75,-115 291.71,-124.44 289.51,-130.07 272.75,-140 267.81,-142.92 262.49,-145.83 257.22,-148.57"/>
<polygon fill="#63b8ff" stroke="#63b8ff" points="316.95,-114.61 324.43,-107.11 313.91,-108.31 316.95,-114.61"/>
</g>
<!-- Node7 -->
<g id="node7" class="node">
<title>Node7</title>
<g id="a_node7"><a xlink:href="a00467.html#ab1db87927118f70786a664c3b3cc7905" target="_top" xlink:title="Generate a Visibility Graph with every edge stored twice.">
<polygon fill="white" stroke="#666666" points="272.75,-131 170.5,-131 170.5,-99 272.75,-99 272.75,-131"/>
<text xml:space="preserve" text-anchor="start" x="178.5" y="-117.5" font-family="Helvetica,sans-Serif" font-size="10.00">HF::VisibilityGraph</text>
<text xml:space="preserve" text-anchor="middle" x="221.62" y="-105.5" font-family="Helvetica,sans-Serif" font-size="10.00">::AllToAllUndirected</text>
</a>
</g>
</g>
<!-- Node4&#45;&gt;Node7 -->
<g id="edge6" class="edge">
<title>Node4&#45;&gt;Node7</title>
<path fill="none" stroke="#63b8ff" d="M297.26,-102.09C289.08,-103.5 280.85,-104.93 273.01,-106.28"/>
<polygon fill="#63b8ff" stroke="#63b8ff" points="297.6,-105.58 306.86,-100.43 296.41,-98.68 297.6,-105.58"/>
</g>
<!-- Node9 -->
<g id="node9" class="node">
<title>Node9</title>
<g id="a_node9"><a xlink:href="a00467.html#ae42a5aafdfcc29b6a668355c07602efb" target="_top" xlink:title="Generate a Visibility Graph from a set of nodes to another set of nodes.">
<polygon fill="white" stroke="#666666" points="270.88,-81 172.38,-81 172.38,-49 270.88,-49 270.88,-81"/>
<text xml:space="preserve" text-anchor="start" x="180.38" y="-67.5" font-family="Helvetica,sans-Serif" font-size="10.00">HF::VisibilityGraph</text>
<text xml:space="preserve" text-anchor="middle" x="221.62" y="-55.5" font-family="Helvetica,sans-Serif" font-size="10.00">::GroupToGroup</text>
</a>
</g>
</g>
<!-- Node4&#45;&gt;Node9 -->
<g id="edge8" class="edge">
<title>Node4&#45;&gt;Node9</title>
<path fill="none" stroke="#63b8ff" d="M297.25,-77.91C288.44,-76.39 279.58,-74.85 271.19,-73.4"/>
<polygon fill="#63b8ff" stroke="#63b8ff" points="296.41,-81.32 306.86,-79.57 297.6,-74.42 296.41,-81.32"/>
</g>
<!-- Node6 -->
<g id="node6" class="node">
<title>Node6</title>
<g id="a_node6"><a xlink:href="a00460.html#ga0255e6c4811298e61110adc64c0f8acd" target="_top" xlink:title="Create a new directed visibility graph between all nodes in parameter nodes.">
<polygon fill="white" stroke="#666666" points="127,-181 7.5,-181 7.5,-149 127,-149 127,-181"/>
<text xml:space="preserve" text-anchor="start" x="15.5" y="-167.5" font-family="Helvetica,sans-Serif" font-size="10.00">CreateVisibilityGraphAll</text>
<text xml:space="preserve" text-anchor="middle" x="67.25" y="-155.5" font-family="Helvetica,sans-Serif" font-size="10.00">ToAll</text>
</a>
</g>
</g>
<!-- Node5&#45;&gt;Node6 -->
<g id="edge5" class="edge">
<title>Node5&#45;&gt;Node6</title>
<path fill="none" stroke="#63b8ff" d="M160.76,-165C149.78,-165 138.32,-165 127.36,-165"/>
<polygon fill="#63b8ff" stroke="#63b8ff" points="160.48,-168.5 170.48,-165 160.48,-161.5 160.48,-168.5"/>
</g>
<!-- Node8 -->
<g id="node8" class="node">
<title>Node8</title>
<g id="a_node8"><a xlink:href="a00460.html#ga9b0664a60bcdf276b0fe0a2023b3d9b8" target="_top" xlink:title="Create a new undirected visibility graph between all nodes in nodes.">
<polygon fill="white" stroke="#666666" points="127,-131 7.5,-131 7.5,-99 127,-99 127,-131"/>
<text xml:space="preserve" text-anchor="start" x="15.5" y="-117.5" font-family="Helvetica,sans-Serif" font-size="10.00">CreateVisibilityGraphAll</text>
<text xml:space="preserve" text-anchor="middle" x="67.25" y="-105.5" font-family="Helvetica,sans-Serif" font-size="10.00">ToAllUndirected</text>
</a>
</g>
</g>
<!-- Node7&#45;&gt;Node8 -->
<g id="edge7" class="edge">
<title>Node7&#45;&gt;Node8</title>
<path fill="none" stroke="#63b8ff" d="M159.09,-115C148.58,-115 137.68,-115 127.24,-115"/>
<polygon fill="#63b8ff" stroke="#63b8ff" points="158.8,-118.5 168.8,-115 158.8,-111.5 158.8,-118.5"/>
</g>
<!-- Node10 -->
<g id="node10" class="node">
<title>Node10</title>
<g id="a_node10"><a xlink:href="a00460.html#gaf2e404cb696aee3473cac0d1507576d8" target="_top" xlink:title="Create a new visibility graph from the nodes in group_a, into the nodes of group_b.">
<polygon fill="white" stroke="#666666" points="134.5,-81 0,-81 0,-49 134.5,-49 134.5,-81"/>
<text xml:space="preserve" text-anchor="start" x="8" y="-67.5" font-family="Helvetica,sans-Serif" font-size="10.00">CreateVisibilityGraphGroup</text>
<text xml:space="preserve" text-anchor="middle" x="67.25" y="-55.5" font-family="Helvetica,sans-Serif" font-size="10.00">ToGroup</text>
</a>
</g>
</g>
<!-- Node9&#45;&gt;Node10 -->
<g id="edge9" class="edge">
<title>Node9&#45;&gt;Node10</title>
<path fill="none" stroke="#63b8ff" d="M160.63,-65C152.14,-65 143.36,-65 134.76,-65"/>
<polygon fill="#63b8ff" stroke="#63b8ff" points="160.48,-68.5 170.48,-65 160.48,-61.5 160.48,-68.5"/>
</g>
<!-- Node11&#45;&gt;Node5 -->
<g id="edge11" class="edge">
<title>Node11&#45;&gt;Node5</title>
<path fill="none" stroke="#63b8ff" d="M300.56,-151.52C290.63,-153.23 280.56,-154.98 271.09,-156.61"/>
<polygon fill="#63b8ff" stroke="#63b8ff" points="300.92,-155.01 310.18,-149.85 299.73,-148.11 300.92,-155.01"/>
</g>
<!-- Node11&#45;&gt;Node7 -->
<g id="edge12" class="edge">
<title>Node11&#45;&gt;Node7</title>
<path fill="none" stroke="#63b8ff" d="M300.48,-128.47C291.23,-126.87 281.85,-125.25 272.96,-123.71"/>
<polygon fill="#63b8ff" stroke="#63b8ff" points="299.73,-131.89 310.18,-130.15 300.92,-124.99 299.73,-131.89"/>
</g>
<!-- Node11&#45;&gt;Node9 -->
<g id="edge13" class="edge">
<title>Node11&#45;&gt;Node9</title>
<path fill="none" stroke="#63b8ff" d="M315.52,-118.58C313.21,-117.41 310.94,-116.22 308.75,-115 291.71,-105.56 289.51,-99.93 272.75,-90 267.81,-87.08 262.49,-84.17 257.22,-81.43"/>
<polygon fill="#63b8ff" stroke="#63b8ff" points="313.91,-121.69 324.43,-122.89 316.95,-115.39 313.91,-121.69"/>
</g>
<!-- Node14 -->
<g id="node14" class="node">
<title>Node14</title>
<g id="a_node14"><a xlink:href="a00457.html#gad1ec557a577507e2da4dfcb0717ea05c" target="_top" xlink:title="Cast one or more occlusion rays in parallel.">
<polygon fill="white" stroke="#666666" points="567.25,-26 463.5,-26 463.5,-6 567.25,-6 567.25,-26"/>
<text xml:space="preserve" text-anchor="middle" x="515.38" y="-12.5" font-family="Helvetica,sans-Serif" font-size="10.00">CastOcclusionRays</text>
</a>
</g>
</g>
<!-- Node13&#45;&gt;Node14 -->
<g id="edge16" class="edge">
<title>Node13&#45;&gt;Node14</title>
<path fill="none" stroke="#63b8ff" d="M591.82,-16C583.5,-16 575.21,-16 567.34,-16"/>
<polygon fill="#63b8ff" stroke="#63b8ff" points="591.63,-19.5 601.63,-16 591.63,-12.5 591.63,-19.5"/>
</g>
</g>
</svg>
