<?xml version="1.0" encoding="UTF-8" standalone="no"?>
<!DOCTYPE svg PUBLIC "-//W3C//DTD SVG 1.1//EN"
 "http://www.w3.org/Graphics/SVG/1.1/DTD/svg11.dtd">
<!-- Generated by graphviz version 13.1.2 (20250808.2320)
 -->
<!-- Title: HF::RayTracer::EmbreeRayTracer::InsertGeom Pages: 1 -->
<svg width="322pt" height="58pt"
 viewBox="0.00 0.00 322.00 58.00" xmlns="http://www.w3.org/2000/svg" xmlns:xlink="http://www.w3.org/1999/xlink">
<g id="graph0" class="graph" transform="scale(1 1) rotate(0) translate(4 54)">
<title>HF::RayTracer::EmbreeRayTracer::InsertGeom</title>
<!-- Node1 -->
<g id="node1" class="node">
<title>Node1</title>
<g id="a_node1"><a xlink:title="Attach geometry to the current scene.">
<polygon fill="#999999" stroke="#666666" points="139,-32 0,-32 0,0 139,0 139,-32"/>
<text xml:space="preserve" text-anchor="start" x="8" y="-18.5" font-family="Helvetica,sans-Serif" font-size="10.00">HF::RayTracer::EmbreeRay</text>
<text xml:space="preserve" text-anchor="middle" x="69.5" y="-6.5" font-family="Helvetica,sans-Serif" font-size="10.00">Tracer::InsertGeom</text>
</a>
</g>
</g>
<!-- Node1&#45;&gt;Node1 -->
<g id="edge2" class="edge">
<title>Node1&#45;&gt;Node1</title>
<path fill="none" stroke="#63b8ff" d="M38.26,-32.44C32.43,-41.58 42.84,-50 69.5,-50 84.08,-50 93.8,-47.48 98.66,-43.71"/>
<polygon fill="#63b8ff" stroke="#63b8ff" points="102.09,-44.4 100.47,-33.93 95.21,-43.13 102.09,-44.4"/>
</g>
<!-- Node2 -->
<g id="node2" class="node">
<title>Node2</title>
<g id="a_node2"><a xlink:href="a00464.html#a19e11d13f73136d6819b8abee57b0fd9" target="_top" xlink:title="Check an embree device for errors.">
<polygon fill="white" stroke="#666666" points="314,-26 175,-26 175,-6 314,-6 314,-26"/>
<text xml:space="preserve" text-anchor="middle" x="244.5" y="-12.5" font-family="Helvetica,sans-Serif" font-size="10.00">HF::RayTracer::CheckState</text>
</a>
</g>
</g>
<!-- Node1&#45;&gt;Node2 -->
<g id="edge1" class="edge">
<title>Node1&#45;&gt;Node2</title>
<path fill="none" stroke="#63b8ff" d="M139.37,-16C147.25,-16 155.33,-16 163.34,-16"/>
<polygon fill="#63b8ff" stroke="#63b8ff" points="163.07,-19.5 173.07,-16 163.07,-12.5 163.07,-19.5"/>
</g>
</g>
</svg>
