<?xml version="1.0" encoding="UTF-8" standalone="no"?>
<!DOCTYPE svg PUBLIC "-//W3C//DTD SVG 1.1//EN"
 "http://www.w3.org/Graphics/SVG/1.1/DTD/svg11.dtd">
<!-- Generated by graphviz version 13.1.2 (20250808.2320)
 -->
<!-- Title: nanort::BVHNode&lt; T &gt; Pages: 1 -->
<svg width="125pt" height="120pt"
 viewBox="0.00 0.00 125.00 120.00" xmlns="http://www.w3.org/2000/svg" xmlns:xlink="http://www.w3.org/1999/xlink">
<g id="graph0" class="graph" transform="scale(1 1) rotate(0) translate(4 116)">
<title>nanort::BVHNode&lt; T &gt;</title>
<!-- Node1 -->
<g id="node1" class="node">
<title>Node1</title>
<g id="a_node1"><a xlink:title=" ">
<polygon fill="#999999" stroke="#666666" points="116.5,-20 0,-20 0,0 116.5,0 116.5,-20"/>
<text xml:space="preserve" text-anchor="middle" x="58.25" y="-6.5" font-family="Helvetica,sans-Serif" font-size="10.00">nanort::BVHNode&lt; T &gt;</text>
</a>
</g>
</g>
<!-- Node2 -->
<g id="node2" class="node">
<title>Node2</title>
<g id="a_node2"><a xlink:title=" ">
<polygon fill="white" stroke="#666666" points="50.62,-112 15.88,-112 15.88,-92 50.62,-92 50.62,-112"/>
<text xml:space="preserve" text-anchor="middle" x="33.25" y="-98.5" font-family="Helvetica,sans-Serif" font-size="10.00">float</text>
</a>
</g>
</g>
<!-- Node2&#45;&gt;Node1 -->
<g id="edge1" class="edge">
<title>Node2&#45;&gt;Node1</title>
<path fill="none" stroke="#9a32cd" stroke-dasharray="5,2" d="M30.04,-80.45C28.91,-67.78 29.01,-51.46 34.25,-38 36.89,-31.22 42.06,-25.04 46.94,-20.31"/>
<polygon fill="#9a32cd" stroke="#9a32cd" points="26.54,-80.65 31.25,-90.14 33.48,-79.79 26.54,-80.65"/>
<text xml:space="preserve" text-anchor="middle" x="47.75" y="-58.5" font-family="Helvetica,sans-Serif" font-size="10.00"> bmax</text>
<text xml:space="preserve" text-anchor="middle" x="47.75" y="-46.5" font-family="Helvetica,sans-Serif" font-size="10.00">bmin</text>
</g>
<!-- Node3 -->
<g id="node3" class="node">
<title>Node3</title>
<g id="a_node3"><a xlink:title=" ">
<polygon fill="white" stroke="#666666" points="97.65,-112 68.85,-112 68.85,-92 97.65,-92 97.65,-112"/>
<text xml:space="preserve" text-anchor="middle" x="83.25" y="-98.5" font-family="Helvetica,sans-Serif" font-size="10.00">int</text>
</a>
</g>
</g>
<!-- Node3&#45;&gt;Node1 -->
<g id="edge2" class="edge">
<title>Node3&#45;&gt;Node1</title>
<path fill="none" stroke="#9a32cd" stroke-dasharray="5,2" d="M77.62,-80.75C72.38,-61.87 64.8,-34.58 60.85,-20.38"/>
<polygon fill="#9a32cd" stroke="#9a32cd" points="74.21,-81.55 80.26,-90.25 80.96,-79.68 74.21,-81.55"/>
<text xml:space="preserve" text-anchor="middle" x="85.66" y="-64.5" font-family="Helvetica,sans-Serif" font-size="10.00"> axis</text>
<text xml:space="preserve" text-anchor="middle" x="85.66" y="-52.5" font-family="Helvetica,sans-Serif" font-size="10.00">data</text>
<text xml:space="preserve" text-anchor="middle" x="85.66" y="-40.5" font-family="Helvetica,sans-Serif" font-size="10.00">flag</text>
</g>
</g>
</svg>
