<?xml version="1.0" encoding="UTF-8" standalone="no"?>
<!DOCTYPE svg PUBLIC "-//W3C//DTD SVG 1.1//EN"
 "http://www.w3.org/Graphics/SVG/1.1/DTD/svg11.dtd">
<!-- Generated by graphviz version 13.1.2 (20250808.2320)
 -->
<!-- Title: nanort::NodeHit&lt; T &gt; Pages: 1 -->
<svg width="116pt" height="108pt"
 viewBox="0.00 0.00 116.00 108.00" xmlns="http://www.w3.org/2000/svg" xmlns:xlink="http://www.w3.org/1999/xlink">
<g id="graph0" class="graph" transform="scale(1 1) rotate(0) translate(4 104)">
<title>nanort::NodeHit&lt; T &gt;</title>
<!-- Node1 -->
<g id="node1" class="node">
<title>Node1</title>
<g id="a_node1"><a xlink:title="Hit class for traversing nodes.">
<polygon fill="#999999" stroke="#666666" points="108.25,-20 0,-20 0,0 108.25,0 108.25,-20"/>
<text xml:space="preserve" text-anchor="middle" x="54.12" y="-6.5" font-family="Helvetica,sans-Serif" font-size="10.00">nanort::NodeHit&lt; T &gt;</text>
</a>
</g>
</g>
<!-- Node2 -->
<g id="node2" class="node">
<title>Node2</title>
<g id="a_node2"><a xlink:title=" ">
<polygon fill="white" stroke="#666666" points="42.52,-100 13.72,-100 13.72,-80 42.52,-80 42.52,-100"/>
<text xml:space="preserve" text-anchor="middle" x="28.12" y="-86.5" font-family="Helvetica,sans-Serif" font-size="10.00">T</text>
</a>
</g>
</g>
<!-- Node2&#45;&gt;Node1 -->
<g id="edge1" class="edge">
<title>Node2&#45;&gt;Node1</title>
<path fill="none" stroke="#9a32cd" stroke-dasharray="5,2" d="M25.24,-68.33C24.72,-58.78 25.3,-47.48 29.12,-38 31.85,-31.25 37.1,-25.15 42.1,-20.47"/>
<polygon fill="#9a32cd" stroke="#9a32cd" points="21.74,-68.47 26.22,-78.07 28.7,-67.77 21.74,-68.47"/>
<text xml:space="preserve" text-anchor="middle" x="44.12" y="-52.5" font-family="Helvetica,sans-Serif" font-size="10.00"> t_max</text>
<text xml:space="preserve" text-anchor="middle" x="44.12" y="-40.5" font-family="Helvetica,sans-Serif" font-size="10.00">t_min</text>
</g>
<!-- Node3 -->
<g id="node3" class="node">
<title>Node3</title>
<g id="a_node3"><a xlink:title=" ">
<polygon fill="white" stroke="#666666" points="95.53,-100 66.72,-100 66.72,-80 95.53,-80 95.53,-100"/>
<text xml:space="preserve" text-anchor="middle" x="81.12" y="-86.5" font-family="Helvetica,sans-Serif" font-size="10.00">int</text>
</a>
</g>
</g>
<!-- Node3&#45;&gt;Node1 -->
<g id="edge2" class="edge">
<title>Node3&#45;&gt;Node1</title>
<path fill="none" stroke="#9a32cd" stroke-dasharray="5,2" d="M74.22,-69.05C68.79,-53.35 61.46,-32.2 57.32,-20.24"/>
<polygon fill="#9a32cd" stroke="#9a32cd" points="70.85,-70.01 77.43,-78.32 77.46,-67.72 70.85,-70.01"/>
<text xml:space="preserve" text-anchor="middle" x="90" y="-46.5" font-family="Helvetica,sans-Serif" font-size="10.00"> node_id</text>
</g>
</g>
</svg>
