<?xml version="1.0" encoding="UTF-8" standalone="no"?>
<!DOCTYPE svg PUBLIC "-//W3C//DTD SVG 1.1//EN"
 "http://www.w3.org/Graphics/SVG/1.1/DTD/svg11.dtd">
<!-- Generated by graphviz version 13.1.2 (20250808.2320)
 -->
<!-- Title: nanort::real3::operator/ Pages: 1 -->
<svg width="255pt" height="142pt"
 viewBox="0.00 0.00 255.00 142.00" xmlns="http://www.w3.org/2000/svg" xmlns:xlink="http://www.w3.org/1999/xlink">
<g id="graph0" class="graph" transform="scale(1 1) rotate(0) translate(4 138)">
<title>nanort::real3::operator/</title>
<!-- Node1 -->
<g id="node1" class="node">
<title>Node1</title>
<g id="a_node1"><a xlink:title=" ">
<polygon fill="#999999" stroke="#666666" points="114.25,-77 0,-77 0,-57 114.25,-57 114.25,-77"/>
<text xml:space="preserve" text-anchor="middle" x="57.12" y="-63.5" font-family="Helvetica,sans-Serif" font-size="10.00">nanort::real3::operator/</text>
</a>
</g>
</g>
<!-- Node2 -->
<g id="node2" class="node">
<title>Node2</title>
<g id="a_node2"><a xlink:href="a01443.html#a0ae6f0e4cb138da0359e18103ce609b8" target="_top" xlink:title=" ">
<polygon fill="white" stroke="#666666" points="247.25,-134 150.25,-134 150.25,-114 247.25,-114 247.25,-134"/>
<text xml:space="preserve" text-anchor="middle" x="198.75" y="-120.5" font-family="Helvetica,sans-Serif" font-size="10.00">nanort::real3::real3</text>
</a>
</g>
</g>
<!-- Node1&#45;&gt;Node2 -->
<g id="edge1" class="edge">
<title>Node1&#45;&gt;Node2</title>
<path fill="none" stroke="#63b8ff" d="M83.12,-77.39C101.63,-85.07 127.49,-95.75 150.25,-105 153.81,-106.45 157.53,-107.95 161.25,-109.45"/>
<polygon fill="#63b8ff" stroke="#63b8ff" points="159.61,-112.56 170.19,-113.03 162.21,-106.06 159.61,-112.56"/>
</g>
<!-- Node3 -->
<g id="node3" class="node">
<title>Node3</title>
<g id="a_node3"><a xlink:href="a01443.html#a245ee0e429d5695c33ea29ccbe1792ec" target="_top" xlink:title=" ">
<polygon fill="white" stroke="#666666" points="239.38,-96 158.12,-96 158.12,-76 239.38,-76 239.38,-96"/>
<text xml:space="preserve" text-anchor="middle" x="198.75" y="-82.5" font-family="Helvetica,sans-Serif" font-size="10.00">nanort::real3::x</text>
</a>
</g>
</g>
<!-- Node1&#45;&gt;Node3 -->
<g id="edge2" class="edge">
<title>Node1&#45;&gt;Node3</title>
<path fill="none" stroke="#63b8ff" d="M114.51,-74.67C125.19,-76.13 136.29,-77.64 146.78,-79.06"/>
<polygon fill="#63b8ff" stroke="#63b8ff" points="146,-82.49 156.38,-80.37 146.94,-75.55 146,-82.49"/>
</g>
<!-- Node4 -->
<g id="node4" class="node">
<title>Node4</title>
<g id="a_node4"><a xlink:href="a01443.html#af92059bf1d44c9bf67c90ca2d46be17e" target="_top" xlink:title=" ">
<polygon fill="white" stroke="#666666" points="239.38,-58 158.12,-58 158.12,-38 239.38,-38 239.38,-58"/>
<text xml:space="preserve" text-anchor="middle" x="198.75" y="-44.5" font-family="Helvetica,sans-Serif" font-size="10.00">nanort::real3::y</text>
</a>
</g>
</g>
<!-- Node1&#45;&gt;Node4 -->
<g id="edge3" class="edge">
<title>Node1&#45;&gt;Node4</title>
<path fill="none" stroke="#63b8ff" d="M114.51,-59.33C125.19,-57.87 136.29,-56.36 146.78,-54.94"/>
<polygon fill="#63b8ff" stroke="#63b8ff" points="146.94,-58.45 156.38,-53.63 146,-51.51 146.94,-58.45"/>
</g>
<!-- Node5 -->
<g id="node5" class="node">
<title>Node5</title>
<g id="a_node5"><a xlink:href="a01443.html#a96d4a74ac8a453a85c5661d38d3003d1" target="_top" xlink:title=" ">
<polygon fill="white" stroke="#666666" points="239.38,-20 158.12,-20 158.12,0 239.38,0 239.38,-20"/>
<text xml:space="preserve" text-anchor="middle" x="198.75" y="-6.5" font-family="Helvetica,sans-Serif" font-size="10.00">nanort::real3::z</text>
</a>
</g>
</g>
<!-- Node1&#45;&gt;Node5 -->
<g id="edge4" class="edge">
<title>Node1&#45;&gt;Node5</title>
<path fill="none" stroke="#63b8ff" d="M83.12,-56.61C101.63,-48.93 127.49,-38.25 150.25,-29 153.81,-27.55 157.53,-26.05 161.25,-24.55"/>
<polygon fill="#63b8ff" stroke="#63b8ff" points="162.21,-27.94 170.19,-20.97 159.61,-21.44 162.21,-27.94"/>
</g>
</g>
</svg>
