<?xml version="1.0" encoding="UTF-8" standalone="no"?>
<!DOCTYPE svg PUBLIC "-//W3C//DTD SVG 1.1//EN"
 "http://www.w3.org/Graphics/SVG/1.1/DTD/svg11.dtd">
<!-- Generated by graphviz version 13.1.2 (20250808.2320)
 -->
<!-- Title: HF::RayTracer::HitStruct&lt; numeric_type &gt; Pages: 1 -->
<svg width="134pt" height="108pt"
 viewBox="0.00 0.00 134.00 108.00" xmlns="http://www.w3.org/2000/svg" xmlns:xlink="http://www.w3.org/1999/xlink">
<g id="graph0" class="graph" transform="scale(1 1) rotate(0) translate(4 104)">
<title>HF::RayTracer::HitStruct&lt; numeric_type &gt;</title>
<!-- Node1 -->
<g id="node1" class="node">
<title>Node1</title>
<g id="a_node1"><a xlink:title="A simple hit struct to carry all relevant information about hits.">
<polygon fill="#999999" stroke="#666666" points="126.25,-32 0,-32 0,0 126.25,0 126.25,-32"/>
<text xml:space="preserve" text-anchor="start" x="8" y="-18.5" font-family="Helvetica,sans-Serif" font-size="10.00">HF::RayTracer::HitStruct</text>
<text xml:space="preserve" text-anchor="middle" x="63.12" y="-6.5" font-family="Helvetica,sans-Serif" font-size="10.00">&lt; numeric_type &gt;</text>
</a>
</g>
</g>
<!-- Node2 -->
<g id="node2" class="node">
<title>Node2</title>
<g id="a_node2"><a xlink:href="a00001.html#a02139" target="_top" xlink:title=" ">
<polygon fill="white" stroke="#666666" points="54.38,-100 9.88,-100 9.88,-80 54.38,-80 54.38,-100"/>
<text xml:space="preserve" text-anchor="middle" x="32.12" y="-86.5" font-family="Helvetica,sans-Serif" font-size="10.00">double</text>
</a>
</g>
</g>
<!-- Node2&#45;&gt;Node1 -->
<g id="edge1" class="edge">
<title>Node2&#45;&gt;Node1</title>
<path fill="none" stroke="#9a32cd" stroke-dasharray="5,2" d="M30.15,-68.26C30.26,-62.19 31.09,-55.67 33.38,-50 36.03,-43.42 40.61,-37.3 45.4,-32.17"/>
<polygon fill="#9a32cd" stroke="#9a32cd" points="26.64,-68.31 30.6,-78.14 33.64,-67.99 26.64,-68.31"/>
<text xml:space="preserve" text-anchor="middle" x="53.25" y="-52.5" font-family="Helvetica,sans-Serif" font-size="10.00"> distance</text>
</g>
<!-- Node3 -->
<g id="node3" class="node">
<title>Node3</title>
<g id="a_node3"><a xlink:title=" ">
<polygon fill="white" stroke="#666666" points="109.53,-100 80.72,-100 80.72,-80 109.53,-80 109.53,-100"/>
<text xml:space="preserve" text-anchor="middle" x="95.12" y="-86.5" font-family="Helvetica,sans-Serif" font-size="10.00">int</text>
</a>
</g>
</g>
<!-- Node3&#45;&gt;Node1 -->
<g id="edge2" class="edge">
<title>Node3&#45;&gt;Node1</title>
<path fill="none" stroke="#9a32cd" stroke-dasharray="5,2" d="M86.32,-69.19C81.17,-57.61 74.77,-43.21 70,-32.47"/>
<polygon fill="#9a32cd" stroke="#9a32cd" points="83.07,-70.49 90.33,-78.2 89.46,-67.64 83.07,-70.49"/>
<text xml:space="preserve" text-anchor="middle" x="100.18" y="-52.5" font-family="Helvetica,sans-Serif" font-size="10.00"> meshid</text>
</g>
</g>
</svg>
