<?xml version="1.0" encoding="UTF-8" standalone="no"?>
<!DOCTYPE svg PUBLIC "-//W3C//DTD SVG 1.1//EN"
 "http://www.w3.org/Graphics/SVG/1.1/DTD/svg11.dtd">
<!-- Generated by graphviz version 13.1.2 (20250808.2320)
 -->
<!-- Title: nanort::real3::x Pages: 1 -->
<svg width="381pt" height="332pt"
 viewBox="0.00 0.00 381.00 332.00" xmlns="http://www.w3.org/2000/svg" xmlns:xlink="http://www.w3.org/1999/xlink">
<g id="graph0" class="graph" transform="scale(1 1) rotate(0) translate(4 328)">
<title>nanort::real3::x</title>
<!-- Node1 -->
<g id="node1" class="node">
<title>Node1</title>
<g id="a_node1"><a xlink:title=" ">
<polygon fill="#999999" stroke="#666666" points="372.75,-172 291.5,-172 291.5,-152 372.75,-152 372.75,-172"/>
<text xml:space="preserve" text-anchor="middle" x="332.12" y="-158.5" font-family="Helvetica,sans-Serif" font-size="10.00">nanort::real3::x</text>
</a>
</g>
</g>
<!-- Node2 -->
<g id="node2" class="node">
<title>Node2</title>
<g id="a_node2"><a xlink:href="a01443.html#aa0b4c0778d47d681f61b6381c6f01ac9" target="_top" xlink:title=" ">
<polygon fill="white" stroke="#666666" points="242.38,-324 145.38,-324 145.38,-304 242.38,-304 242.38,-324"/>
<text xml:space="preserve" text-anchor="middle" x="193.88" y="-310.5" font-family="Helvetica,sans-Serif" font-size="10.00">nanort::real3::real3</text>
</a>
</g>
</g>
<!-- Node1&#45;&gt;Node2 -->
<g id="edge1" class="edge">
<title>Node1&#45;&gt;Node2</title>
<path fill="none" stroke="#63b8ff" d="M324.66,-183.04C314.59,-212.36 292.39,-265.25 255.5,-295 251.21,-298.46 246.28,-301.3 241.13,-303.62"/>
<polygon fill="#63b8ff" stroke="#63b8ff" points="327.89,-184.42 327.67,-173.83 321.24,-182.25 327.89,-184.42"/>
</g>
<!-- Node3 -->
<g id="node3" class="node">
<title>Node3</title>
<g id="a_node3"><a xlink:href="a01443.html#a53be64ec8d91a0d750a386c28b86d8c5" target="_top" xlink:title=" ">
<polygon fill="white" stroke="#666666" points="251.38,-286 136.38,-286 136.38,-266 251.38,-266 251.38,-286"/>
<text xml:space="preserve" text-anchor="middle" x="193.88" y="-272.5" font-family="Helvetica,sans-Serif" font-size="10.00">nanort::real3::operator*</text>
</a>
</g>
</g>
<!-- Node1&#45;&gt;Node3 -->
<g id="edge2" class="edge">
<title>Node1&#45;&gt;Node3</title>
<path fill="none" stroke="#63b8ff" d="M320.15,-181.98C307.34,-203.51 284.2,-237.32 255.5,-257 250.5,-260.43 244.85,-263.26 239.05,-265.6"/>
<polygon fill="#63b8ff" stroke="#63b8ff" points="323.04,-183.98 324.98,-173.56 316.97,-180.49 323.04,-183.98"/>
</g>
<!-- Node4 -->
<g id="node4" class="node">
<title>Node4</title>
<g id="a_node4"><a xlink:href="a00474.html#ac087438e0e06d6e0bfd900f023d566cf" target="_top" xlink:title=" ">
<polygon fill="white" stroke="#666666" points="237.88,-248 149.88,-248 149.88,-228 237.88,-228 237.88,-248"/>
<text xml:space="preserve" text-anchor="middle" x="193.88" y="-234.5" font-family="Helvetica,sans-Serif" font-size="10.00">nanort::operator*</text>
</a>
</g>
</g>
<!-- Node1&#45;&gt;Node4 -->
<g id="edge3" class="edge">
<title>Node1&#45;&gt;Node4</title>
<path fill="none" stroke="#63b8ff" d="M311.56,-179.73C296.99,-192.17 276.13,-208.4 255.5,-219 249.12,-222.28 242.08,-225.12 235.11,-227.53"/>
<polygon fill="#63b8ff" stroke="#63b8ff" points="313.8,-182.42 319.03,-173.2 309.2,-177.15 313.8,-182.42"/>
</g>
<!-- Node5 -->
<g id="node5" class="node">
<title>Node5</title>
<g id="a_node5"><a xlink:href="a01443.html#abba2600acee60dddefa6797835e44300" target="_top" xlink:title=" ">
<polygon fill="white" stroke="#666666" points="252.5,-210 135.25,-210 135.25,-190 252.5,-190 252.5,-210"/>
<text xml:space="preserve" text-anchor="middle" x="193.88" y="-196.5" font-family="Helvetica,sans-Serif" font-size="10.00">nanort::real3::operator+</text>
</a>
</g>
</g>
<!-- Node1&#45;&gt;Node5 -->
<g id="edge4" class="edge">
<title>Node1&#45;&gt;Node5</title>
<path fill="none" stroke="#63b8ff" d="M282.92,-175.45C266.31,-180.08 247.97,-185.19 232.34,-189.55"/>
<polygon fill="#63b8ff" stroke="#63b8ff" points="283.38,-178.95 292.08,-172.89 281.5,-172.21 283.38,-178.95"/>
</g>
<!-- Node6 -->
<g id="node6" class="node">
<title>Node6</title>
<g id="a_node6"><a xlink:href="a01443.html#ac5df078f42dc0877ba9fab81dc48d1c4" target="_top" xlink:title=" ">
<polygon fill="white" stroke="#666666" points="255.5,-172 132.25,-172 132.25,-152 255.5,-152 255.5,-172"/>
<text xml:space="preserve" text-anchor="middle" x="193.88" y="-158.5" font-family="Helvetica,sans-Serif" font-size="10.00">nanort::real3::operator+=</text>
</a>
</g>
</g>
<!-- Node1&#45;&gt;Node6 -->
<g id="edge5" class="edge">
<title>Node1&#45;&gt;Node6</title>
<path fill="none" stroke="#63b8ff" d="M280.11,-162C272.24,-162 264.05,-162 255.98,-162"/>
<polygon fill="#63b8ff" stroke="#63b8ff" points="279.84,-165.5 289.84,-162 279.84,-158.5 279.84,-165.5"/>
</g>
<!-- Node7 -->
<g id="node7" class="node">
<title>Node7</title>
<g id="a_node7"><a xlink:href="a01443.html#aff71230adfb3070aa773cb08dad19e03" target="_top" xlink:title=" ">
<polygon fill="white" stroke="#666666" points="251,-134 136.75,-134 136.75,-114 251,-114 251,-134"/>
<text xml:space="preserve" text-anchor="middle" x="193.88" y="-120.5" font-family="Helvetica,sans-Serif" font-size="10.00">nanort::real3::operator&#45;</text>
</a>
</g>
</g>
<!-- Node1&#45;&gt;Node7 -->
<g id="edge6" class="edge">
<title>Node1&#45;&gt;Node7</title>
<path fill="none" stroke="#63b8ff" d="M282.92,-148.55C266.31,-143.92 247.97,-138.81 232.34,-134.45"/>
<polygon fill="#63b8ff" stroke="#63b8ff" points="281.5,-151.79 292.08,-151.11 283.38,-145.05 281.5,-151.79"/>
</g>
<!-- Node8 -->
<g id="node8" class="node">
<title>Node8</title>
<g id="a_node8"><a xlink:href="a01443.html#a0fdbf92ea5a1299ad4b6eb6199336eeb" target="_top" xlink:title=" ">
<polygon fill="white" stroke="#666666" points="251,-96 136.75,-96 136.75,-76 251,-76 251,-96"/>
<text xml:space="preserve" text-anchor="middle" x="193.88" y="-82.5" font-family="Helvetica,sans-Serif" font-size="10.00">nanort::real3::operator/</text>
</a>
</g>
</g>
<!-- Node1&#45;&gt;Node8 -->
<g id="edge7" class="edge">
<title>Node1&#45;&gt;Node8</title>
<path fill="none" stroke="#63b8ff" d="M311.56,-144.27C296.99,-131.83 276.13,-115.6 255.5,-105 249.12,-101.72 242.08,-98.88 235.11,-96.47"/>
<polygon fill="#63b8ff" stroke="#63b8ff" points="309.2,-146.85 319.03,-150.8 313.8,-141.58 309.2,-146.85"/>
</g>
<!-- Node9 -->
<g id="node9" class="node">
<title>Node9</title>
<g id="a_node9"><a xlink:href="a00474.html#ab9ba72d8d5e11d213c39ce9bd8e851ef" target="_top" xlink:title=" ">
<polygon fill="white" stroke="#666666" points="234.12,-58 153.62,-58 153.62,-38 234.12,-38 234.12,-58"/>
<text xml:space="preserve" text-anchor="middle" x="193.88" y="-44.5" font-family="Helvetica,sans-Serif" font-size="10.00">nanort::vlength</text>
</a>
</g>
</g>
<!-- Node1&#45;&gt;Node9 -->
<g id="edge8" class="edge">
<title>Node1&#45;&gt;Node9</title>
<path fill="none" stroke="#63b8ff" d="M320.15,-142.02C307.34,-120.49 284.2,-86.68 255.5,-67 249.22,-62.7 241.93,-59.33 234.61,-56.71"/>
<polygon fill="#63b8ff" stroke="#63b8ff" points="316.97,-143.51 324.98,-150.44 323.04,-140.02 316.97,-143.51"/>
</g>
<!-- Node11 -->
<g id="node11" class="node">
<title>Node11</title>
<g id="a_node11"><a xlink:href="a00474.html#aecb04fda18a17169fe84e62932fba761" target="_top" xlink:title=" ">
<polygon fill="white" stroke="#666666" points="228.88,-20 158.88,-20 158.88,0 228.88,0 228.88,-20"/>
<text xml:space="preserve" text-anchor="middle" x="193.88" y="-6.5" font-family="Helvetica,sans-Serif" font-size="10.00">nanort::vneg</text>
</a>
</g>
</g>
<!-- Node1&#45;&gt;Node11 -->
<g id="edge10" class="edge">
<title>Node1&#45;&gt;Node11</title>
<path fill="none" stroke="#63b8ff" d="M324.66,-140.96C314.59,-111.64 292.39,-58.75 255.5,-29 247.94,-22.91 238.42,-18.76 229.17,-15.94"/>
<polygon fill="#63b8ff" stroke="#63b8ff" points="321.24,-141.75 327.67,-150.17 327.89,-139.58 321.24,-141.75"/>
</g>
<!-- Node10 -->
<g id="node10" class="node">
<title>Node10</title>
<g id="a_node10"><a xlink:href="a00474.html#a3158af945b024d902dbe469939dfd025" target="_top" xlink:title=" ">
<polygon fill="white" stroke="#666666" points="96.25,-58 0,-58 0,-38 96.25,-38 96.25,-58"/>
<text xml:space="preserve" text-anchor="middle" x="48.12" y="-44.5" font-family="Helvetica,sans-Serif" font-size="10.00">nanort::vnormalize</text>
</a>
</g>
</g>
<!-- Node9&#45;&gt;Node10 -->
<g id="edge9" class="edge">
<title>Node9&#45;&gt;Node10</title>
<path fill="none" stroke="#63b8ff" d="M141.74,-48C127.03,-48 111.05,-48 96.57,-48"/>
<polygon fill="#63b8ff" stroke="#63b8ff" points="141.7,-51.5 151.7,-48 141.7,-44.5 141.7,-51.5"/>
</g>
</g>
</svg>
