<?xml version="1.0" encoding="UTF-8" standalone="no"?>
<!DOCTYPE svg PUBLIC "-//W3C//DTD SVG 1.1//EN"
 "http://www.w3.org/Graphics/SVG/1.1/DTD/svg11.dtd">
<!-- Generated by graphviz version 13.1.2 (20250808.2320)
 -->
<!-- Title: nanort::real3::real3 Pages: 1 -->
<svg width="258pt" height="142pt"
 viewBox="0.00 0.00 258.00 142.00" xmlns="http://www.w3.org/2000/svg" xmlns:xlink="http://www.w3.org/1999/xlink">
<g id="graph0" class="graph" transform="scale(1 1) rotate(0) translate(4 138)">
<title>nanort::real3::real3</title>
<!-- Node1 -->
<g id="node1" class="node">
<title>Node1</title>
<g id="a_node1"><a xlink:title=" ">
<polygon fill="#999999" stroke="#666666" points="250.25,-77 153.25,-77 153.25,-57 250.25,-57 250.25,-77"/>
<text xml:space="preserve" text-anchor="middle" x="201.75" y="-63.5" font-family="Helvetica,sans-Serif" font-size="10.00">nanort::real3::real3</text>
</a>
</g>
</g>
<!-- Node2 -->
<g id="node2" class="node">
<title>Node2</title>
<g id="a_node2"><a xlink:href="a01443.html#a53be64ec8d91a0d750a386c28b86d8c5" target="_top" xlink:title=" ">
<polygon fill="white" stroke="#666666" points="116.12,-134 1.12,-134 1.12,-114 116.12,-114 116.12,-134"/>
<text xml:space="preserve" text-anchor="middle" x="58.62" y="-120.5" font-family="Helvetica,sans-Serif" font-size="10.00">nanort::real3::operator*</text>
</a>
</g>
</g>
<!-- Node1&#45;&gt;Node2 -->
<g id="edge1" class="edge">
<title>Node1&#45;&gt;Node2</title>
<path fill="none" stroke="#63b8ff" d="M169.3,-82.29C153.8,-89.57 134.73,-98.17 117.25,-105 109.6,-107.99 101.26,-110.93 93.36,-113.56"/>
<polygon fill="#63b8ff" stroke="#63b8ff" points="170.5,-85.59 178.03,-78.14 167.5,-79.27 170.5,-85.59"/>
</g>
<!-- Node3 -->
<g id="node3" class="node">
<title>Node3</title>
<g id="a_node3"><a xlink:href="a01443.html#abba2600acee60dddefa6797835e44300" target="_top" xlink:title=" ">
<polygon fill="white" stroke="#666666" points="117.25,-96 0,-96 0,-76 117.25,-76 117.25,-96"/>
<text xml:space="preserve" text-anchor="middle" x="58.62" y="-82.5" font-family="Helvetica,sans-Serif" font-size="10.00">nanort::real3::operator+</text>
</a>
</g>
</g>
<!-- Node1&#45;&gt;Node3 -->
<g id="edge2" class="edge">
<title>Node1&#45;&gt;Node3</title>
<path fill="none" stroke="#63b8ff" d="M141.83,-74.93C133.83,-76.01 125.61,-77.12 117.62,-78.19"/>
<polygon fill="#63b8ff" stroke="#63b8ff" points="142.03,-78.44 151.47,-73.63 141.09,-71.5 142.03,-78.44"/>
</g>
<!-- Node4 -->
<g id="node4" class="node">
<title>Node4</title>
<g id="a_node4"><a xlink:href="a01443.html#aff71230adfb3070aa773cb08dad19e03" target="_top" xlink:title=" ">
<polygon fill="white" stroke="#666666" points="115.75,-58 1.5,-58 1.5,-38 115.75,-38 115.75,-58"/>
<text xml:space="preserve" text-anchor="middle" x="58.62" y="-44.5" font-family="Helvetica,sans-Serif" font-size="10.00">nanort::real3::operator&#45;</text>
</a>
</g>
</g>
<!-- Node1&#45;&gt;Node4 -->
<g id="edge3" class="edge">
<title>Node1&#45;&gt;Node4</title>
<path fill="none" stroke="#63b8ff" d="M141.64,-59.04C133.2,-57.91 124.53,-56.74 116.14,-55.61"/>
<polygon fill="#63b8ff" stroke="#63b8ff" points="141.09,-62.5 151.47,-60.37 142.03,-55.56 141.09,-62.5"/>
</g>
<!-- Node5 -->
<g id="node5" class="node">
<title>Node5</title>
<g id="a_node5"><a xlink:href="a01443.html#a0fdbf92ea5a1299ad4b6eb6199336eeb" target="_top" xlink:title=" ">
<polygon fill="white" stroke="#666666" points="115.75,-20 1.5,-20 1.5,0 115.75,0 115.75,-20"/>
<text xml:space="preserve" text-anchor="middle" x="58.62" y="-6.5" font-family="Helvetica,sans-Serif" font-size="10.00">nanort::real3::operator/</text>
</a>
</g>
</g>
<!-- Node1&#45;&gt;Node5 -->
<g id="edge4" class="edge">
<title>Node1&#45;&gt;Node5</title>
<path fill="none" stroke="#63b8ff" d="M169.3,-51.71C153.8,-44.43 134.73,-35.83 117.25,-29 109.6,-26.01 101.26,-23.07 93.36,-20.44"/>
<polygon fill="#63b8ff" stroke="#63b8ff" points="167.5,-54.73 178.03,-55.86 170.5,-48.41 167.5,-54.73"/>
</g>
</g>
</svg>
