<?xml version="1.0" encoding="UTF-8" standalone="no"?>
<!DOCTYPE svg PUBLIC "-//W3C//DTD SVG 1.1//EN"
 "http://www.w3.org/Graphics/SVG/1.1/DTD/svg11.dtd">
<!-- Generated by graphviz version 13.1.2 (20250808.2320)
 -->
<!-- Title: HF::RayTracer::HitStruct::DidHit Pages: 1 -->
<svg width="1327pt" height="241pt"
 viewBox="0.00 0.00 1327.00 241.00" xmlns="http://www.w3.org/2000/svg" xmlns:xlink="http://www.w3.org/1999/xlink">
<g id="graph0" class="graph" transform="scale(1 1) rotate(0) translate(4 237)">
<title>HF::RayTracer::HitStruct::DidHit</title>
<!-- Node1 -->
<g id="node1" class="node">
<title>Node1</title>
<g id="a_node1"><a xlink:title="Determine whether or not this hitstruct contains a hit.">
<polygon fill="#999999" stroke="#666666" points="1319,-82 1192.75,-82 1192.75,-50 1319,-50 1319,-82"/>
<text xml:space="preserve" text-anchor="start" x="1200.75" y="-68.5" font-family="Helvetica,sans-Serif" font-size="10.00">HF::RayTracer::HitStruct</text>
<text xml:space="preserve" text-anchor="middle" x="1255.88" y="-56.5" font-family="Helvetica,sans-Serif" font-size="10.00">::DidHit</text>
</a>
</g>
</g>
<!-- Node2 -->
<g id="node2" class="node">
<title>Node2</title>
<g id="a_node2"><a xlink:href="a00463.html#a74be560268a713fc9e9b8b4a453afa2f" target="_top" xlink:title="Cast a ray and get the point of intersection if it connects.">
<polygon fill="white" stroke="#666666" points="1126.75,-132 1022.25,-132 1022.25,-100 1126.75,-100 1126.75,-132"/>
<text xml:space="preserve" text-anchor="start" x="1030.25" y="-118.5" font-family="Helvetica,sans-Serif" font-size="10.00">HF::GraphGenerator</text>
<text xml:space="preserve" text-anchor="middle" x="1074.5" y="-106.5" font-family="Helvetica,sans-Serif" font-size="10.00">::CheckRay</text>
</a>
</g>
</g>
<!-- Node1&#45;&gt;Node2 -->
<g id="edge1" class="edge">
<title>Node1&#45;&gt;Node2</title>
<path fill="none" stroke="#63b8ff" d="M1185.24,-85.41C1165.89,-90.8 1145.24,-96.56 1127.12,-101.61"/>
<polygon fill="#63b8ff" stroke="#63b8ff" points="1185.99,-88.83 1194.68,-82.78 1184.11,-82.09 1185.99,-88.83"/>
</g>
<!-- Node12 -->
<g id="node12" class="node">
<title>Node12</title>
<g id="a_node12"><a xlink:href="a01411.html#a7f8ab81033bdefaea0eea729aa9125ae" target="_top" xlink:title="Cast a ray from origin in direction and update the parameters instead of returning a hitstruct.">
<polygon fill="white" stroke="#666666" points="1156.75,-82 992.25,-82 992.25,-50 1156.75,-50 1156.75,-82"/>
<text xml:space="preserve" text-anchor="start" x="1000.25" y="-68.5" font-family="Helvetica,sans-Serif" font-size="10.00">HF::RayTracer::EmbreeRay</text>
<text xml:space="preserve" text-anchor="middle" x="1074.5" y="-56.5" font-family="Helvetica,sans-Serif" font-size="10.00">Tracer::IntersectOutputArguments</text>
</a>
</g>
</g>
<!-- Node1&#45;&gt;Node12 -->
<g id="edge13" class="edge">
<title>Node1&#45;&gt;Node12</title>
<path fill="none" stroke="#63b8ff" d="M1180.96,-66C1173.06,-66 1164.99,-66 1157.01,-66"/>
<polygon fill="#63b8ff" stroke="#63b8ff" points="1180.88,-69.5 1190.88,-66 1180.88,-62.5 1180.88,-69.5"/>
</g>
<!-- Node15 -->
<g id="node15" class="node">
<title>Node15</title>
<g id="a_node15"><a xlink:href="a01411.html#a8de15e23054b0b579087acc48616149f" target="_top" xlink:title="Cast a single ray and get the hitpoint. x , y ,and z &#160;are overridden with the hitpoint on a successfu...">
<polygon fill="white" stroke="#666666" points="1144,-32 1005,-32 1005,0 1144,0 1144,-32"/>
<text xml:space="preserve" text-anchor="start" x="1013" y="-18.5" font-family="Helvetica,sans-Serif" font-size="10.00">HF::RayTracer::EmbreeRay</text>
<text xml:space="preserve" text-anchor="middle" x="1074.5" y="-6.5" font-family="Helvetica,sans-Serif" font-size="10.00">Tracer::PointIntersection</text>
</a>
</g>
</g>
<!-- Node1&#45;&gt;Node15 -->
<g id="edge16" class="edge">
<title>Node1&#45;&gt;Node15</title>
<path fill="none" stroke="#63b8ff" d="M1185.32,-46.61C1168.59,-41.95 1150.88,-37.01 1134.67,-32.49"/>
<polygon fill="#63b8ff" stroke="#63b8ff" points="1184.11,-49.91 1194.68,-49.22 1185.99,-43.17 1184.11,-49.91"/>
</g>
<!-- Node3 -->
<g id="node3" class="node">
<title>Node3</title>
<g id="a_node3"><a xlink:href="a00463.html#a4b7cc0ad0002975404acef5064f4f546" target="_top" xlink:title="Determine whether children are over valid ground, and and meet upstep/downstep requirements.">
<polygon fill="white" stroke="#666666" points="948,-176 843.5,-176 843.5,-144 948,-144 948,-176"/>
<text xml:space="preserve" text-anchor="start" x="851.5" y="-162.5" font-family="Helvetica,sans-Serif" font-size="10.00">HF::GraphGenerator</text>
<text xml:space="preserve" text-anchor="middle" x="895.75" y="-150.5" font-family="Helvetica,sans-Serif" font-size="10.00">::CheckChildren</text>
</a>
</g>
</g>
<!-- Node2&#45;&gt;Node3 -->
<g id="edge2" class="edge">
<title>Node2&#45;&gt;Node3</title>
<path fill="none" stroke="#63b8ff" d="M1010.79,-131.61C990.36,-136.7 967.94,-142.28 948.41,-147.14"/>
<polygon fill="#63b8ff" stroke="#63b8ff" points="1011.57,-135.02 1020.43,-129.21 1009.88,-128.23 1011.57,-135.02"/>
</g>
<!-- Node11 -->
<g id="node11" class="node">
<title>Node11</title>
<g id="a_node11"><a xlink:href="a00463.html#a9ddffecb75b34434d7157b49d3c67b60" target="_top" xlink:title="Determine if the start point of the graph is over valid ground.">
<polygon fill="white" stroke="#666666" points="799.25,-127 694.75,-127 694.75,-95 799.25,-95 799.25,-127"/>
<text xml:space="preserve" text-anchor="start" x="702.75" y="-113.5" font-family="Helvetica,sans-Serif" font-size="10.00">HF::GraphGenerator</text>
<text xml:space="preserve" text-anchor="middle" x="747" y="-101.5" font-family="Helvetica,sans-Serif" font-size="10.00">::ValidateStartPoint</text>
</a>
</g>
</g>
<!-- Node2&#45;&gt;Node11 -->
<g id="edge11" class="edge">
<title>Node2&#45;&gt;Node11</title>
<path fill="none" stroke="#63b8ff" d="M1010.45,-115.03C949.03,-114.09 856.79,-112.67 799.6,-111.79"/>
<polygon fill="#63b8ff" stroke="#63b8ff" points="1010.36,-118.53 1020.41,-115.18 1010.47,-111.53 1010.36,-118.53"/>
</g>
<!-- Node4 -->
<g id="node4" class="node">
<title>Node4</title>
<g id="a_node4"><a xlink:href="a00463.html#ab7ffcc7d6657ce276c06deed24c546a4" target="_top" xlink:title="Calculate all possible edges between parent and possible_children.">
<polygon fill="white" stroke="#666666" points="799.25,-177 694.75,-177 694.75,-145 799.25,-145 799.25,-177"/>
<text xml:space="preserve" text-anchor="start" x="702.75" y="-163.5" font-family="Helvetica,sans-Serif" font-size="10.00">HF::GraphGenerator</text>
<text xml:space="preserve" text-anchor="middle" x="747" y="-151.5" font-family="Helvetica,sans-Serif" font-size="10.00">::GetChildren</text>
</a>
</g>
</g>
<!-- Node3&#45;&gt;Node4 -->
<g id="edge3" class="edge">
<title>Node3&#45;&gt;Node4</title>
<path fill="none" stroke="#63b8ff" d="M831.84,-160.43C820.97,-160.5 809.79,-160.58 799.27,-160.65"/>
<polygon fill="#63b8ff" stroke="#63b8ff" points="831.52,-163.93 841.5,-160.36 831.47,-156.93 831.52,-163.93"/>
</g>
<!-- Node5 -->
<g id="node5" class="node">
<title>Node5</title>
<g id="a_node5"><a xlink:href="a01311.html#ac7052d4b625fb96f29c5bfc091a86f7e" target="_top" xlink:title="Perform breadth first search to populate the graph with with nodes and edges.">
<polygon fill="white" stroke="#666666" points="658.75,-233 510,-233 510,-201 658.75,-201 658.75,-233"/>
<text xml:space="preserve" text-anchor="start" x="518" y="-219.5" font-family="Helvetica,sans-Serif" font-size="10.00">HF::GraphGenerator</text>
<text xml:space="preserve" text-anchor="middle" x="584.38" y="-207.5" font-family="Helvetica,sans-Serif" font-size="10.00">::GraphGenerator::CrawlGeom</text>
</a>
</g>
</g>
<!-- Node4&#45;&gt;Node5 -->
<g id="edge4" class="edge">
<title>Node4&#45;&gt;Node5</title>
<path fill="none" stroke="#63b8ff" d="M689.74,-181.11C679.44,-184.76 668.78,-188.51 658.75,-192 650.74,-194.79 642.23,-197.72 633.95,-200.55"/>
<polygon fill="#63b8ff" stroke="#63b8ff" points="690.62,-184.51 698.88,-177.87 688.28,-177.91 690.62,-184.51"/>
</g>
<!-- Node10 -->
<g id="node10" class="node">
<title>Node10</title>
<g id="a_node10"><a xlink:href="a01311.html#a843cc6b5b69b5d013930b3685789fa15" target="_top" xlink:title="Perform breadth first search to populate the graph with nodes and edges using multiple cores.">
<polygon fill="white" stroke="#666666" points="658.75,-183 510,-183 510,-139 658.75,-139 658.75,-183"/>
<text xml:space="preserve" text-anchor="start" x="518" y="-169.5" font-family="Helvetica,sans-Serif" font-size="10.00">HF::GraphGenerator</text>
<text xml:space="preserve" text-anchor="start" x="518" y="-157.5" font-family="Helvetica,sans-Serif" font-size="10.00">::GraphGenerator::CrawlGeom</text>
<text xml:space="preserve" text-anchor="middle" x="584.38" y="-145.5" font-family="Helvetica,sans-Serif" font-size="10.00">Parallel</text>
</a>
</g>
</g>
<!-- Node4&#45;&gt;Node10 -->
<g id="edge9" class="edge">
<title>Node4&#45;&gt;Node10</title>
<path fill="none" stroke="#63b8ff" d="M683.04,-161C675.22,-161 667.17,-161 659.21,-161"/>
<polygon fill="#63b8ff" stroke="#63b8ff" points="682.78,-164.5 692.78,-161 682.78,-157.5 682.78,-164.5"/>
</g>
<!-- Node6 -->
<g id="node6" class="node">
<title>Node6</title>
<g id="a_node6"><a xlink:href="a01311.html#a5788e421d921ec0ff27defc139c45106" target="_top" xlink:title="Generate a graph of accessible space.">
<polygon fill="white" stroke="#666666" points="474,-183 353.75,-183 353.75,-139 474,-139 474,-183"/>
<text xml:space="preserve" text-anchor="start" x="361.75" y="-169.5" font-family="Helvetica,sans-Serif" font-size="10.00">HF::GraphGenerator</text>
<text xml:space="preserve" text-anchor="start" x="361.75" y="-157.5" font-family="Helvetica,sans-Serif" font-size="10.00">::GraphGenerator::IMPL</text>
<text xml:space="preserve" text-anchor="middle" x="413.88" y="-145.5" font-family="Helvetica,sans-Serif" font-size="10.00">_BuildNetwork</text>
</a>
</g>
</g>
<!-- Node5&#45;&gt;Node6 -->
<g id="edge5" class="edge">
<title>Node5&#45;&gt;Node6</title>
<path fill="none" stroke="#63b8ff" d="M522.99,-196.93C507.14,-191.67 490.07,-185.99 474.28,-180.74"/>
<polygon fill="#63b8ff" stroke="#63b8ff" points="521.7,-200.19 532.29,-200.02 523.91,-193.55 521.7,-200.19"/>
</g>
<!-- Node7 -->
<g id="node7" class="node">
<title>Node7</title>
<g id="a_node7"><a xlink:href="a01311.html#a0c12341433bbec41cc12cc1dbb41a976" target="_top" xlink:title="Generate a graph of accessible space.">
<polygon fill="white" stroke="#666666" points="317.75,-177 162.25,-177 162.25,-145 317.75,-145 317.75,-177"/>
<text xml:space="preserve" text-anchor="start" x="170.25" y="-163.5" font-family="Helvetica,sans-Serif" font-size="10.00">HF::GraphGenerator</text>
<text xml:space="preserve" text-anchor="middle" x="240" y="-151.5" font-family="Helvetica,sans-Serif" font-size="10.00">::GraphGenerator::BuildNetwork</text>
</a>
</g>
</g>
<!-- Node6&#45;&gt;Node7 -->
<g id="edge6" class="edge">
<title>Node6&#45;&gt;Node7</title>
<path fill="none" stroke="#63b8ff" d="M342.25,-161C334.31,-161 326.19,-161 318.17,-161"/>
<polygon fill="#63b8ff" stroke="#63b8ff" points="342.21,-164.5 352.21,-161 342.21,-157.5 342.21,-164.5"/>
</g>
<!-- Node8 -->
<g id="node8" class="node">
<title>Node8</title>
<g id="a_node8"><a xlink:href="a00454.html#ga2df84a732d1edfb70b7bd26d3282e129" target="_top" xlink:title="Construct a graph by performing a breadth&#45;first search of accessible space.">
<polygon fill="white" stroke="#666666" points="104.12,-190 22.12,-190 22.12,-170 104.12,-170 104.12,-190"/>
<text xml:space="preserve" text-anchor="middle" x="63.12" y="-176.5" font-family="Helvetica,sans-Serif" font-size="10.00">GenerateGraph</text>
</a>
</g>
</g>
<!-- Node7&#45;&gt;Node8 -->
<g id="edge7" class="edge">
<title>Node7&#45;&gt;Node8</title>
<path fill="none" stroke="#63b8ff" d="M150.62,-170.6C134.47,-172.36 118.36,-174.11 104.49,-175.61"/>
<polygon fill="#63b8ff" stroke="#63b8ff" points="150.72,-174.11 160.28,-169.55 149.96,-167.15 150.72,-174.11"/>
</g>
<!-- Node9 -->
<g id="node9" class="node">
<title>Node9</title>
<g id="a_node9"><a xlink:href="a00454.html#gab9f58e3ecc686fa9bc34519b0faed734" target="_top" xlink:title="Construct a graph by performing a breadth&#45;first search of accessible space, seperating obstacles from...">
<polygon fill="white" stroke="#666666" points="126.25,-152 0,-152 0,-132 126.25,-132 126.25,-152"/>
<text xml:space="preserve" text-anchor="middle" x="63.12" y="-138.5" font-family="Helvetica,sans-Serif" font-size="10.00">GenerateGraphObstacles</text>
</a>
</g>
</g>
<!-- Node7&#45;&gt;Node9 -->
<g id="edge8" class="edge">
<title>Node7&#45;&gt;Node9</title>
<path fill="none" stroke="#63b8ff" d="M150.4,-151.37C142.33,-150.5 134.27,-149.62 126.5,-148.78"/>
<polygon fill="#63b8ff" stroke="#63b8ff" points="149.96,-154.85 160.28,-152.45 150.72,-147.89 149.96,-154.85"/>
</g>
<!-- Node10&#45;&gt;Node6 -->
<g id="edge10" class="edge">
<title>Node10&#45;&gt;Node6</title>
<path fill="none" stroke="#63b8ff" d="M498.48,-161C490.34,-161 482.21,-161 474.4,-161"/>
<polygon fill="#63b8ff" stroke="#63b8ff" points="498.45,-164.5 508.45,-161 498.45,-157.5 498.45,-164.5"/>
</g>
<!-- Node11&#45;&gt;Node6 -->
<g id="edge12" class="edge">
<title>Node11&#45;&gt;Node6</title>
<path fill="none" stroke="#63b8ff" d="M682.99,-112.07C635.13,-113.84 567.9,-118.4 510,-130 498.33,-132.34 486.1,-135.64 474.44,-139.23"/>
<polygon fill="#63b8ff" stroke="#63b8ff" points="683.03,-115.57 692.91,-111.73 682.79,-108.57 683.03,-115.57"/>
</g>
<!-- Node13 -->
<g id="node13" class="node">
<title>Node13</title>
<g id="a_node13"><a xlink:href="a00457.html#ga81a505c14bba3bed1515384b209b3422" target="_top" xlink:title="Cast rays for each node in origins/directions as ordered pairs and get distance back as a result.">
<polygon fill="white" stroke="#666666" points="945.38,-82 846.12,-82 846.12,-62 945.38,-62 945.38,-82"/>
<text xml:space="preserve" text-anchor="middle" x="895.75" y="-68.5" font-family="Helvetica,sans-Serif" font-size="10.00">CastRaysDistance</text>
</a>
</g>
</g>
<!-- Node12&#45;&gt;Node13 -->
<g id="edge14" class="edge">
<title>Node12&#45;&gt;Node13</title>
<path fill="none" stroke="#63b8ff" d="M980.39,-69.16C968.45,-69.57 956.62,-69.97 945.79,-70.34"/>
<polygon fill="#63b8ff" stroke="#63b8ff" points="980.46,-72.66 990.34,-68.82 980.23,-65.66 980.46,-72.66"/>
</g>
<!-- Node14 -->
<g id="node14" class="node">
<title>Node14</title>
<g id="a_node14"><a xlink:href="a00457.html#ga1377ba0807c3141ef68b1c94682853e6" target="_top" xlink:title="Cast a single ray and get the distance to its hit and the mesh ID if it hit anything....">
<polygon fill="white" stroke="#666666" points="956.25,-44 835.25,-44 835.25,-24 956.25,-24 956.25,-44"/>
<text xml:space="preserve" text-anchor="middle" x="895.75" y="-30.5" font-family="Helvetica,sans-Serif" font-size="10.00">CastSingleRayDistance</text>
</a>
</g>
</g>
<!-- Node12&#45;&gt;Node14 -->
<g id="edge15" class="edge">
<title>Node12&#45;&gt;Node14</title>
<path fill="none" stroke="#63b8ff" d="M980.63,-49.19C971.78,-47.58 962.99,-45.99 954.61,-44.48"/>
<polygon fill="#63b8ff" stroke="#63b8ff" points="979.9,-52.61 990.36,-50.95 981.15,-45.72 979.9,-52.61"/>
</g>
</g>
</svg>
