<?xml version="1.0" encoding="UTF-8" standalone="no"?>
<!DOCTYPE svg PUBLIC "-//W3C//DTD SVG 1.1//EN"
 "http://www.w3.org/Graphics/SVG/1.1/DTD/svg11.dtd">
<!-- Generated by graphviz version 13.1.2 (20250808.2320)
 -->
<!-- Title: nanort::StackAllocator&lt; T, stack_capacity &gt;::Source Pages: 1 -->
<svg width="183pt" height="120pt"
 viewBox="0.00 0.00 183.00 120.00" xmlns="http://www.w3.org/2000/svg" xmlns:xlink="http://www.w3.org/1999/xlink">
<g id="graph0" class="graph" transform="scale(1 1) rotate(0) translate(4 116)">
<title>nanort::StackAllocator&lt; T, stack_capacity &gt;::Source</title>
<!-- Node1 -->
<g id="node1" class="node">
<title>Node1</title>
<g id="a_node1"><a xlink:title=" ">
<polygon fill="#999999" stroke="#666666" points="115.75,-44 3,-44 3,0 115.75,0 115.75,-44"/>
<text xml:space="preserve" text-anchor="start" x="11" y="-30.5" font-family="Helvetica,sans-Serif" font-size="10.00">nanort::StackAllocator</text>
<text xml:space="preserve" text-anchor="start" x="11" y="-18.5" font-family="Helvetica,sans-Serif" font-size="10.00">&lt; T, stack_capacity &gt;</text>
<text xml:space="preserve" text-anchor="middle" x="59.38" y="-6.5" font-family="Helvetica,sans-Serif" font-size="10.00">::Source</text>
</a>
</g>
</g>
<!-- Node2 -->
<g id="node2" class="node">
<title>Node2</title>
<g id="a_node2"><a xlink:title=" ">
<polygon fill="white" stroke="#666666" points="34.75,-112 0,-112 0,-92 34.75,-92 34.75,-112"/>
<text xml:space="preserve" text-anchor="middle" x="17.38" y="-98.5" font-family="Helvetica,sans-Serif" font-size="10.00">char</text>
</a>
</g>
</g>
<!-- Node2&#45;&gt;Node1 -->
<g id="edge1" class="edge">
<title>Node2&#45;&gt;Node1</title>
<path fill="none" stroke="#9a32cd" stroke-dasharray="5,2" d="M15.3,-80.14C15.45,-74.07 16.37,-67.58 18.88,-62 21.83,-55.41 26.46,-49.37 31.55,-44.11"/>
<polygon fill="#9a32cd" stroke="#9a32cd" points="11.8,-80.23 15.76,-90.06 18.79,-79.91 11.8,-80.23"/>
<text xml:space="preserve" text-anchor="middle" x="49.62" y="-64.5" font-family="Helvetica,sans-Serif" font-size="10.00"> stack_buffer_</text>
</g>
<!-- Node3 -->
<g id="node3" class="node">
<title>Node3</title>
<g id="a_node3"><a xlink:title=" ">
<polygon fill="white" stroke="#666666" points="119.38,-112 85.38,-112 85.38,-92 119.38,-92 119.38,-112"/>
<text xml:space="preserve" text-anchor="middle" x="102.38" y="-98.5" font-family="Helvetica,sans-Serif" font-size="10.00">bool</text>
</a>
</g>
</g>
<!-- Node3&#45;&gt;Node1 -->
<g id="edge2" class="edge">
<title>Node3&#45;&gt;Node1</title>
<path fill="none" stroke="#9a32cd" stroke-dasharray="5,2" d="M91.88,-81.97C85.6,-70.57 77.6,-56.06 71.11,-44.29"/>
<polygon fill="#9a32cd" stroke="#9a32cd" points="88.65,-83.35 96.54,-90.42 94.78,-79.97 88.65,-83.35"/>
<text xml:space="preserve" text-anchor="middle" x="131.11" y="-64.5" font-family="Helvetica,sans-Serif" font-size="10.00"> used_stack_buffer_</text>
</g>
</g>
</svg>
