<?xml version="1.0" encoding="UTF-8" standalone="no"?>
<!DOCTYPE svg PUBLIC "-//W3C//DTD SVG 1.1//EN"
 "http://www.w3.org/Graphics/SVG/1.1/DTD/svg11.dtd">
<!-- Generated by graphviz version 13.1.2 (20250808.2320)
 -->
<!-- Title: nanort::real3::operator+ Pages: 1 -->
<svg width="258pt" height="142pt"
 viewBox="0.00 0.00 258.00 142.00" xmlns="http://www.w3.org/2000/svg" xmlns:xlink="http://www.w3.org/1999/xlink">
<g id="graph0" class="graph" transform="scale(1 1) rotate(0) translate(4 138)">
<title>nanort::real3::operator+</title>
<!-- Node1 -->
<g id="node1" class="node">
<title>Node1</title>
<g id="a_node1"><a xlink:title=" ">
<polygon fill="#999999" stroke="#666666" points="117.25,-77 0,-77 0,-57 117.25,-57 117.25,-77"/>
<text xml:space="preserve" text-anchor="middle" x="58.62" y="-63.5" font-family="Helvetica,sans-Serif" font-size="10.00">nanort::real3::operator+</text>
</a>
</g>
</g>
<!-- Node2 -->
<g id="node2" class="node">
<title>Node2</title>
<g id="a_node2"><a xlink:href="a01443.html#a0ae6f0e4cb138da0359e18103ce609b8" target="_top" xlink:title=" ">
<polygon fill="white" stroke="#666666" points="250.25,-134 153.25,-134 153.25,-114 250.25,-114 250.25,-134"/>
<text xml:space="preserve" text-anchor="middle" x="201.75" y="-120.5" font-family="Helvetica,sans-Serif" font-size="10.00">nanort::real3::real3</text>
</a>
</g>
</g>
<!-- Node1&#45;&gt;Node2 -->
<g id="edge1" class="edge">
<title>Node1&#45;&gt;Node2</title>
<path fill="none" stroke="#63b8ff" d="M85.04,-77.36C103.87,-85.02 130.15,-95.69 153.25,-105 156.82,-106.44 160.54,-107.93 164.26,-109.42"/>
<polygon fill="#63b8ff" stroke="#63b8ff" points="162.62,-112.54 173.2,-113.01 165.22,-106.04 162.62,-112.54"/>
</g>
<!-- Node3 -->
<g id="node3" class="node">
<title>Node3</title>
<g id="a_node3"><a xlink:href="a01443.html#a245ee0e429d5695c33ea29ccbe1792ec" target="_top" xlink:title=" ">
<polygon fill="white" stroke="#666666" points="242.38,-96 161.12,-96 161.12,-76 242.38,-76 242.38,-96"/>
<text xml:space="preserve" text-anchor="middle" x="201.75" y="-82.5" font-family="Helvetica,sans-Serif" font-size="10.00">nanort::real3::x</text>
</a>
</g>
</g>
<!-- Node1&#45;&gt;Node3 -->
<g id="edge2" class="edge">
<title>Node1&#45;&gt;Node3</title>
<path fill="none" stroke="#63b8ff" d="M117.43,-74.78C128.17,-76.23 139.31,-77.73 149.82,-79.14"/>
<polygon fill="#63b8ff" stroke="#63b8ff" points="149.04,-82.57 159.42,-80.44 149.98,-75.63 149.04,-82.57"/>
</g>
<!-- Node4 -->
<g id="node4" class="node">
<title>Node4</title>
<g id="a_node4"><a xlink:href="a01443.html#af92059bf1d44c9bf67c90ca2d46be17e" target="_top" xlink:title=" ">
<polygon fill="white" stroke="#666666" points="242.38,-58 161.12,-58 161.12,-38 242.38,-38 242.38,-58"/>
<text xml:space="preserve" text-anchor="middle" x="201.75" y="-44.5" font-family="Helvetica,sans-Serif" font-size="10.00">nanort::real3::y</text>
</a>
</g>
</g>
<!-- Node1&#45;&gt;Node4 -->
<g id="edge3" class="edge">
<title>Node1&#45;&gt;Node4</title>
<path fill="none" stroke="#63b8ff" d="M117.43,-59.22C128.17,-57.77 139.31,-56.27 149.82,-54.86"/>
<polygon fill="#63b8ff" stroke="#63b8ff" points="149.98,-58.37 159.42,-53.56 149.04,-51.43 149.98,-58.37"/>
</g>
<!-- Node5 -->
<g id="node5" class="node">
<title>Node5</title>
<g id="a_node5"><a xlink:href="a01443.html#a96d4a74ac8a453a85c5661d38d3003d1" target="_top" xlink:title=" ">
<polygon fill="white" stroke="#666666" points="242.38,-20 161.12,-20 161.12,0 242.38,0 242.38,-20"/>
<text xml:space="preserve" text-anchor="middle" x="201.75" y="-6.5" font-family="Helvetica,sans-Serif" font-size="10.00">nanort::real3::z</text>
</a>
</g>
</g>
<!-- Node1&#45;&gt;Node5 -->
<g id="edge4" class="edge">
<title>Node1&#45;&gt;Node5</title>
<path fill="none" stroke="#63b8ff" d="M85.04,-56.64C103.87,-48.98 130.15,-38.31 153.25,-29 156.82,-27.56 160.54,-26.07 164.26,-24.58"/>
<polygon fill="#63b8ff" stroke="#63b8ff" points="165.22,-27.96 173.2,-20.99 162.62,-21.46 165.22,-27.96"/>
</g>
</g>
</svg>
