<?xml version="1.0" encoding="UTF-8" standalone="no"?>
<!DOCTYPE svg PUBLIC "-//W3C//DTD SVG 1.1//EN"
 "http://www.w3.org/Graphics/SVG/1.1/DTD/svg11.dtd">
<!-- Generated by graphviz version 13.1.2 (20250808.2320)
 -->
<!-- Title: HF::SpatialStructures::Subgraph Pages: 1 -->
<svg width="236pt" height="372pt"
 viewBox="0.00 0.00 236.00 372.00" xmlns="http://www.w3.org/2000/svg" xmlns:xlink="http://www.w3.org/1999/xlink">
<g id="graph0" class="graph" transform="scale(1 1) rotate(0) translate(4 368)">
<title>HF::SpatialStructures::Subgraph</title>
<!-- Node1 -->
<g id="node1" class="node">
<title>Node1</title>
<g id="a_node1"><a xlink:title="A Subgraph consists of a parent Node m_parent and a container of Edge m_edges such that all Edge in m...">
<polygon fill="#999999" stroke="#666666" points="127.5,-32 17,-32 17,0 127.5,0 127.5,-32"/>
<text xml:space="preserve" text-anchor="start" x="25" y="-18.5" font-family="Helvetica,sans-Serif" font-size="10.00">HF::SpatialStructures</text>
<text xml:space="preserve" text-anchor="middle" x="72.25" y="-6.5" font-family="Helvetica,sans-Serif" font-size="10.00">::Subgraph</text>
</a>
</g>
</g>
<!-- Node2 -->
<g id="node2" class="node">
<title>Node2</title>
<g id="a_node2"><a xlink:href="a02071.html" target="_top" xlink:title="A point in space with an ID.">
<polygon fill="white" stroke="#666666" points="110.5,-272 0,-272 0,-240 110.5,-240 110.5,-272"/>
<text xml:space="preserve" text-anchor="start" x="8" y="-258.5" font-family="Helvetica,sans-Serif" font-size="10.00">HF::SpatialStructures</text>
<text xml:space="preserve" text-anchor="middle" x="55.25" y="-246.5" font-family="Helvetica,sans-Serif" font-size="10.00">::Node</text>
</a>
</g>
</g>
<!-- Node2&#45;&gt;Node1 -->
<g id="edge1" class="edge">
<title>Node2&#45;&gt;Node1</title>
<path fill="none" stroke="#9a32cd" stroke-dasharray="5,2" d="M57.15,-228.34C60.72,-178.38 68.31,-72.17 71.15,-32.43"/>
<polygon fill="#9a32cd" stroke="#9a32cd" points="53.67,-228.02 56.45,-238.24 60.65,-228.52 53.67,-228.02"/>
<text xml:space="preserve" text-anchor="middle" x="85.89" y="-132.5" font-family="Helvetica,sans-Serif" font-size="10.00"> m_parent</text>
</g>
<!-- Node7 -->
<g id="node7" class="node">
<title>Node7</title>
<g id="a_node7"><a xlink:href="a01527.html" target="_top" xlink:title="A connection to a child node.">
<polygon fill="white" stroke="#666666" points="200.5,-192 90,-192 90,-160 200.5,-160 200.5,-192"/>
<text xml:space="preserve" text-anchor="start" x="98" y="-178.5" font-family="Helvetica,sans-Serif" font-size="10.00">HF::SpatialStructures</text>
<text xml:space="preserve" text-anchor="middle" x="145.25" y="-166.5" font-family="Helvetica,sans-Serif" font-size="10.00">::Edge</text>
</a>
</g>
</g>
<!-- Node2&#45;&gt;Node7 -->
<g id="edge7" class="edge">
<title>Node2&#45;&gt;Node7</title>
<path fill="none" stroke="#9a32cd" stroke-dasharray="5,2" d="M81.73,-232.05C96.48,-219.27 114.45,-203.69 127.51,-192.38"/>
<polygon fill="#9a32cd" stroke="#9a32cd" points="79.44,-229.4 74.17,-238.6 84.02,-234.69 79.44,-229.4"/>
<text xml:space="preserve" text-anchor="middle" x="117.26" y="-212.5" font-family="Helvetica,sans-Serif" font-size="10.00"> child</text>
</g>
<!-- Node3 -->
<g id="node3" class="node">
<title>Node3</title>
<g id="a_node3"><a xlink:title=" ">
<polygon fill="white" stroke="#666666" points="180.62,-364 145.88,-364 145.88,-344 180.62,-344 180.62,-364"/>
<text xml:space="preserve" text-anchor="middle" x="163.25" y="-350.5" font-family="Helvetica,sans-Serif" font-size="10.00">float</text>
</a>
</g>
</g>
<!-- Node3&#45;&gt;Node2 -->
<g id="edge2" class="edge">
<title>Node3&#45;&gt;Node2</title>
<path fill="none" stroke="#9a32cd" stroke-dasharray="5,2" d="M144.49,-336.32C124.19,-318.28 92.12,-289.77 72.45,-272.29"/>
<polygon fill="#9a32cd" stroke="#9a32cd" points="141.96,-338.76 151.76,-342.79 146.61,-333.53 141.96,-338.76"/>
<text xml:space="preserve" text-anchor="middle" x="135.46" y="-316.5" font-family="Helvetica,sans-Serif" font-size="10.00"> x</text>
<text xml:space="preserve" text-anchor="middle" x="135.46" y="-304.5" font-family="Helvetica,sans-Serif" font-size="10.00">y</text>
<text xml:space="preserve" text-anchor="middle" x="135.46" y="-292.5" font-family="Helvetica,sans-Serif" font-size="10.00">z</text>
</g>
<!-- Node3&#45;&gt;Node7 -->
<g id="edge9" class="edge">
<title>Node3&#45;&gt;Node7</title>
<path fill="none" stroke="#9a32cd" stroke-dasharray="5,2" d="M174.71,-333.83C190.15,-305.31 213.39,-250.68 192.25,-210 188.57,-202.92 182.6,-197.05 176.13,-192.31"/>
<polygon fill="#9a32cd" stroke="#9a32cd" points="171.74,-331.98 169.84,-342.41 177.82,-335.44 171.74,-331.98"/>
<text xml:space="preserve" text-anchor="middle" x="214.22" y="-252.5" font-family="Helvetica,sans-Serif" font-size="10.00"> score</text>
</g>
<!-- Node4 -->
<g id="node4" class="node">
<title>Node4</title>
<g id="a_node4"><a xlink:title=" ">
<polygon fill="white" stroke="#666666" points="49.12,-364 11.38,-364 11.38,-344 49.12,-344 49.12,-364"/>
<text xml:space="preserve" text-anchor="middle" x="30.25" y="-350.5" font-family="Helvetica,sans-Serif" font-size="10.00">short</text>
</a>
</g>
</g>
<!-- Node4&#45;&gt;Node2 -->
<g id="edge3" class="edge">
<title>Node4&#45;&gt;Node2</title>
<path fill="none" stroke="#9a32cd" stroke-dasharray="5,2" d="M30.67,-332.34C31.4,-319.84 33.19,-303.72 37.5,-290 39.41,-283.92 42.46,-277.66 45.49,-272.24"/>
<polygon fill="#9a32cd" stroke="#9a32cd" points="27.17,-332.17 30.29,-342.29 34.16,-332.43 27.17,-332.17"/>
<text xml:space="preserve" text-anchor="middle" x="48.38" y="-304.5" font-family="Helvetica,sans-Serif" font-size="10.00"> type</text>
</g>
<!-- Node5 -->
<g id="node5" class="node">
<title>Node5</title>
<g id="a_node5"><a xlink:title=" ">
<polygon fill="white" stroke="#666666" points="95.65,-364 66.85,-364 66.85,-344 95.65,-344 95.65,-364"/>
<text xml:space="preserve" text-anchor="middle" x="81.25" y="-350.5" font-family="Helvetica,sans-Serif" font-size="10.00">int</text>
</a>
</g>
</g>
<!-- Node5&#45;&gt;Node2 -->
<g id="edge4" class="edge">
<title>Node5&#45;&gt;Node2</title>
<path fill="none" stroke="#9a32cd" stroke-dasharray="5,2" d="M75.78,-332.79C70.89,-314.73 63.83,-288.67 59.39,-272.29"/>
<polygon fill="#9a32cd" stroke="#9a32cd" points="72.37,-333.6 78.36,-342.33 79.13,-331.77 72.37,-333.6"/>
<text xml:space="preserve" text-anchor="middle" x="78.82" y="-304.5" font-family="Helvetica,sans-Serif" font-size="10.00"> id</text>
</g>
<!-- Node6 -->
<g id="node6" class="node">
<title>Node6</title>
<g id="a_node6"><a xlink:title=" ">
<polygon fill="white" stroke="#666666" points="205.75,-112 84.75,-112 84.75,-80 205.75,-80 205.75,-112"/>
<text xml:space="preserve" text-anchor="start" x="92.75" y="-98.5" font-family="Helvetica,sans-Serif" font-size="10.00">std::vector&lt; HF::Spatial</text>
<text xml:space="preserve" text-anchor="middle" x="145.25" y="-86.5" font-family="Helvetica,sans-Serif" font-size="10.00">Structures::Edge &gt;</text>
</a>
</g>
</g>
<!-- Node6&#45;&gt;Node1 -->
<g id="edge5" class="edge">
<title>Node6&#45;&gt;Node1</title>
<path fill="none" stroke="#9a32cd" stroke-dasharray="5,2" d="M123.09,-71.33C111.26,-58.68 97.03,-43.48 86.64,-32.38"/>
<polygon fill="#9a32cd" stroke="#9a32cd" points="120.4,-73.58 129.79,-78.48 125.52,-68.79 120.4,-73.58"/>
<text xml:space="preserve" text-anchor="middle" x="134.5" y="-52.5" font-family="Helvetica,sans-Serif" font-size="10.00"> m_edges</text>
</g>
<!-- Node7&#45;&gt;Node6 -->
<g id="edge6" class="edge">
<title>Node7&#45;&gt;Node6</title>
<path fill="none" stroke="#9a32cd" stroke-dasharray="5,2" d="M145.25,-148.37C145.25,-136.37 145.25,-122.63 145.25,-112.38"/>
<polygon fill="#9a32cd" stroke="#9a32cd" points="141.75,-148.08 145.25,-158.08 148.75,-148.08 141.75,-148.08"/>
<text xml:space="preserve" text-anchor="middle" x="166.62" y="-132.5" font-family="Helvetica,sans-Serif" font-size="10.00"> elements</text>
</g>
<!-- Node8 -->
<g id="node8" class="node">
<title>Node8</title>
<g id="a_node8"><a xlink:title=" ">
<polygon fill="white" stroke="#666666" points="170.38,-266 128.12,-266 128.12,-246 170.38,-246 170.38,-266"/>
<text xml:space="preserve" text-anchor="middle" x="149.25" y="-252.5" font-family="Helvetica,sans-Serif" font-size="10.00">STEP</text>
</a>
</g>
</g>
<!-- Node8&#45;&gt;Node7 -->
<g id="edge8" class="edge">
<title>Node8&#45;&gt;Node7</title>
<path fill="none" stroke="#9a32cd" stroke-dasharray="5,2" d="M147.36,-234.42C147.03,-230.31 146.72,-226.02 146.5,-222 145.95,-212.17 145.64,-201.11 145.47,-192.42"/>
<polygon fill="#9a32cd" stroke="#9a32cd" points="143.86,-234.6 148.21,-244.26 150.83,-233.99 143.86,-234.6"/>
<text xml:space="preserve" text-anchor="middle" x="169.38" y="-212.5" font-family="Helvetica,sans-Serif" font-size="10.00"> step_type</text>
</g>
</g>
</svg>
