<?xml version="1.0" encoding="UTF-8" standalone="no"?>
<!DOCTYPE svg PUBLIC "-//W3C//DTD SVG 1.1//EN"
 "http://www.w3.org/Graphics/SVG/1.1/DTD/svg11.dtd">
<!-- Generated by graphviz version 13.1.2 (20250808.2320)
 -->
<!-- Title: HF::RayTracer::NanoRTRayTracer::Occluded Pages: 1 -->
<svg width="672pt" height="97pt"
 viewBox="0.00 0.00 672.00 97.00" xmlns="http://www.w3.org/2000/svg" xmlns:xlink="http://www.w3.org/1999/xlink">
<g id="graph0" class="graph" transform="scale(1 1) rotate(0) translate(4 93)">
<title>HF::RayTracer::NanoRTRayTracer::Occluded</title>
<!-- Node1 -->
<g id="node1" class="node">
<title>Node1</title>
<g id="a_node1"><a xlink:title=" ">
<polygon fill="#999999" stroke="#666666" points="141.25,-67 0,-67 0,-35 141.25,-35 141.25,-67"/>
<text xml:space="preserve" text-anchor="start" x="8" y="-53.5" font-family="Helvetica,sans-Serif" font-size="10.00">HF::RayTracer::NanoRTRay</text>
<text xml:space="preserve" text-anchor="middle" x="70.62" y="-41.5" font-family="Helvetica,sans-Serif" font-size="10.00">Tracer::Occluded</text>
</a>
</g>
</g>
<!-- Node2 -->
<g id="node2" class="node">
<title>Node2</title>
<g id="a_node2"><a xlink:href="a01519.html#a980fe63296fb23f96ceafc82789cff6c" target="_top" xlink:title=" ">
<polygon fill="white" stroke="#666666" points="318.5,-67 177.25,-67 177.25,-35 318.5,-35 318.5,-67"/>
<text xml:space="preserve" text-anchor="start" x="185.25" y="-53.5" font-family="Helvetica,sans-Serif" font-size="10.00">HF::RayTracer::NanoRTRay</text>
<text xml:space="preserve" text-anchor="middle" x="247.88" y="-41.5" font-family="Helvetica,sans-Serif" font-size="10.00">Tracer::Intersect</text>
</a>
</g>
</g>
<!-- Node1&#45;&gt;Node2 -->
<g id="edge1" class="edge">
<title>Node1&#45;&gt;Node2</title>
<path fill="none" stroke="#63b8ff" d="M141.64,-51C149.55,-51 157.65,-51 165.69,-51"/>
<polygon fill="#63b8ff" stroke="#63b8ff" points="165.45,-54.5 175.45,-51 165.45,-47.5 165.45,-54.5"/>
</g>
<!-- Node3 -->
<g id="node3" class="node">
<title>Node3</title>
<g id="a_node3"><a xlink:href="a01519.html#a7aa768fa79aa76a2a70d2a5e348a2374" target="_top" xlink:title=" ">
<polygon fill="white" stroke="#666666" points="495.75,-89 354.5,-89 354.5,-57 495.75,-57 495.75,-89"/>
<text xml:space="preserve" text-anchor="start" x="362.5" y="-75.5" font-family="Helvetica,sans-Serif" font-size="10.00">HF::RayTracer::NanoRTRay</text>
<text xml:space="preserve" text-anchor="middle" x="425.12" y="-63.5" font-family="Helvetica,sans-Serif" font-size="10.00">Tracer::CreateHit</text>
</a>
</g>
</g>
<!-- Node2&#45;&gt;Node3 -->
<g id="edge2" class="edge">
<title>Node2&#45;&gt;Node3</title>
<path fill="none" stroke="#63b8ff" d="M318.89,-59.79C326.8,-60.78 334.9,-61.8 342.94,-62.81"/>
<polygon fill="#63b8ff" stroke="#63b8ff" points="342.36,-66.26 352.72,-64.04 343.23,-59.32 342.36,-66.26"/>
</g>
<!-- Node4 -->
<g id="node4" class="node">
<title>Node4</title>
<g id="a_node4"><a xlink:href="a01483.html#a4d07d0fc035d860dd1bfbeaa90c14a11" target="_top" xlink:title="Traverse into BVH along ray and find closest hit point &amp; primitive if found.">
<polygon fill="white" stroke="#666666" points="494.62,-39 355.62,-39 355.62,-19 494.62,-19 494.62,-39"/>
<text xml:space="preserve" text-anchor="middle" x="425.12" y="-25.5" font-family="Helvetica,sans-Serif" font-size="10.00">nanort::BVHAccel::Traverse</text>
</a>
</g>
</g>
<!-- Node2&#45;&gt;Node4 -->
<g id="edge3" class="edge">
<title>Node2&#45;&gt;Node4</title>
<path fill="none" stroke="#63b8ff" d="M318.89,-42.21C327.15,-41.17 335.63,-40.11 344.01,-39.06"/>
<polygon fill="#63b8ff" stroke="#63b8ff" points="344.37,-42.54 353.86,-37.82 343.5,-35.59 344.37,-42.54"/>
</g>
<!-- Node5 -->
<g id="node5" class="node">
<title>Node5</title>
<g id="a_node5"><a xlink:href="a00474.html#aa5a9a561d084639fafc84873ab8f3d51" target="_top" xlink:title=" ">
<polygon fill="white" stroke="#666666" points="664,-58 531.75,-58 531.75,-38 664,-38 664,-58"/>
<text xml:space="preserve" text-anchor="middle" x="597.88" y="-44.5" font-family="Helvetica,sans-Serif" font-size="10.00">nanort::IntersectRayAABB</text>
</a>
</g>
</g>
<!-- Node4&#45;&gt;Node5 -->
<g id="edge4" class="edge">
<title>Node4&#45;&gt;Node5</title>
<path fill="none" stroke="#63b8ff" d="M495.08,-36.67C503.29,-37.59 511.71,-38.52 520.02,-39.45"/>
<polygon fill="#63b8ff" stroke="#63b8ff" points="519.43,-42.9 529.75,-40.53 520.2,-35.95 519.43,-42.9"/>
</g>
<!-- Node6 -->
<g id="node6" class="node">
<title>Node6</title>
<g id="a_node6"><a xlink:href="a00474.html#aa6d08ee0bfbbaa13319f31e5412111bc" target="_top" xlink:title=" ">
<polygon fill="white" stroke="#666666" points="652.75,-20 543,-20 543,0 652.75,0 652.75,-20"/>
<text xml:space="preserve" text-anchor="middle" x="597.88" y="-6.5" font-family="Helvetica,sans-Serif" font-size="10.00">nanort::vsafe_inverse</text>
</a>
</g>
</g>
<!-- Node4&#45;&gt;Node6 -->
<g id="edge5" class="edge">
<title>Node4&#45;&gt;Node6</title>
<path fill="none" stroke="#63b8ff" d="M495.08,-21.33C507.08,-19.99 519.52,-18.61 531.42,-17.28"/>
<polygon fill="#63b8ff" stroke="#63b8ff" points="531.57,-20.79 541.12,-16.2 530.79,-13.83 531.57,-20.79"/>
</g>
</g>
</svg>
