<?xml version="1.0" encoding="UTF-8" standalone="no"?>
<!DOCTYPE svg PUBLIC "-//W3C//DTD SVG 1.1//EN"
 "http://www.w3.org/Graphics/SVG/1.1/DTD/svg11.dtd">
<!-- Generated by graphviz version 13.1.2 (20250808.2320)
 -->
<!-- Title: nanoRT_Data Pages: 1 -->
<svg width="790pt" height="716pt"
 viewBox="0.00 0.00 790.00 716.00" xmlns="http://www.w3.org/2000/svg" xmlns:xlink="http://www.w3.org/1999/xlink">
<g id="graph0" class="graph" transform="scale(1 1) rotate(0) translate(4 711.75)">
<title>nanoRT_Data</title>
<!-- Node1 -->
<g id="node1" class="node">
<title>Node1</title>
<g id="a_node1"><a xlink:title=" ">
<polygon fill="#999999" stroke="#666666" points="782,-222.75 706,-222.75 706,-202.75 782,-202.75 782,-222.75"/>
<text xml:space="preserve" text-anchor="middle" x="744" y="-209.25" font-family="Helvetica,sans-Serif" font-size="10.00">nanoRT_Data</text>
</a>
</g>
</g>
<!-- Node2 -->
<g id="node2" class="node">
<title>Node2</title>
<g id="a_node2"><a xlink:href="a01499.html" target="_top" xlink:title=" ">
<polygon fill="white" stroke="#666666" points="669,-555.75 491,-555.75 491,-511.75 669,-511.75 669,-555.75"/>
<text xml:space="preserve" text-anchor="start" x="499" y="-542.25" font-family="Helvetica,sans-Serif" font-size="10.00">nanort::TriangleIntersector</text>
<text xml:space="preserve" text-anchor="start" x="499" y="-530.25" font-family="Helvetica,sans-Serif" font-size="10.00">&lt; double, nanort::TriangleIntersection</text>
<text xml:space="preserve" text-anchor="middle" x="580" y="-518.25" font-family="Helvetica,sans-Serif" font-size="10.00">&lt; double &gt; &gt;</text>
</a>
</g>
</g>
<!-- Node2&#45;&gt;Node1 -->
<g id="edge1" class="edge">
<title>Node2&#45;&gt;Node1</title>
<path fill="none" stroke="#63b8ff" d="M597.36,-501.34C632.95,-430.8 716.01,-266.23 737.73,-223.2"/>
<polygon fill="#63b8ff" stroke="#63b8ff" points="594.33,-499.58 592.94,-510.08 600.57,-502.73 594.33,-499.58"/>
</g>
<!-- Node3 -->
<g id="node3" class="node">
<title>Node3</title>
<g id="a_node3"><a xlink:href="a00001.html#a02123" target="_top" xlink:title=" ">
<polygon fill="white" stroke="#666666" points="333.12,-707.75 254.88,-707.75 254.88,-687.75 333.12,-687.75 333.12,-707.75"/>
<text xml:space="preserve" text-anchor="middle" x="294" y="-694.25" font-family="Helvetica,sans-Serif" font-size="10.00">const double *</text>
</a>
</g>
</g>
<!-- Node3&#45;&gt;Node2 -->
<g id="edge2" class="edge">
<title>Node3&#45;&gt;Node2</title>
<path fill="none" stroke="#9a32cd" stroke-dasharray="5,2" d="M344.64,-697.64C382.26,-695.5 433.96,-687.99 473,-664.75 517.37,-638.34 550.95,-586.08 567.52,-556.16"/>
<polygon fill="#9a32cd" stroke="#9a32cd" points="344.79,-694.13 334.96,-698.08 345.11,-701.13 344.79,-694.13"/>
<text xml:space="preserve" text-anchor="middle" x="426.12" y="-696.64" font-family="Helvetica,sans-Serif" font-size="10.00"> vertices_</text>
</g>
<!-- Node4 -->
<g id="node4" class="node">
<title>Node4</title>
<g id="a_node4"><a xlink:href="a00001.html#a02127" target="_top" xlink:title=" ">
<polygon fill="white" stroke="#666666" points="345.12,-669.75 242.88,-669.75 242.88,-649.75 345.12,-649.75 345.12,-669.75"/>
<text xml:space="preserve" text-anchor="middle" x="294" y="-656.25" font-family="Helvetica,sans-Serif" font-size="10.00">const unsigned int *</text>
</a>
</g>
</g>
<!-- Node4&#45;&gt;Node2 -->
<g id="edge3" class="edge">
<title>Node4&#45;&gt;Node2</title>
<path fill="none" stroke="#9a32cd" stroke-dasharray="5,2" d="M356.56,-653.52C391.97,-648.19 436.53,-638.44 473,-620.75 506.2,-604.65 538.06,-576.15 558.03,-556.17"/>
<polygon fill="#9a32cd" stroke="#9a32cd" points="356.32,-650.02 346.91,-654.88 357.3,-656.95 356.32,-650.02"/>
<text xml:space="preserve" text-anchor="middle" x="426.12" y="-651.35" font-family="Helvetica,sans-Serif" font-size="10.00"> faces_</text>
</g>
<!-- Node5 -->
<g id="node5" class="node">
<title>Node5</title>
<g id="a_node5"><a xlink:href="a00001.html#a02131" target="_top" xlink:title=" ">
<polygon fill="white" stroke="#666666" points="328.62,-631.75 259.38,-631.75 259.38,-611.75 328.62,-611.75 328.62,-631.75"/>
<text xml:space="preserve" text-anchor="middle" x="294" y="-618.25" font-family="Helvetica,sans-Serif" font-size="10.00">const size_t</text>
</a>
</g>
</g>
<!-- Node5&#45;&gt;Node2 -->
<g id="edge4" class="edge">
<title>Node5&#45;&gt;Node2</title>
<path fill="none" stroke="#9a32cd" stroke-dasharray="5,2" d="M340.18,-613.4C376.53,-606.14 428.68,-594.47 473,-579.75 492.8,-573.18 514.01,-564.35 532.21,-556.19"/>
<polygon fill="#9a32cd" stroke="#9a32cd" points="339.58,-609.95 330.44,-615.31 340.93,-616.82 339.58,-609.95"/>
<text xml:space="preserve" text-anchor="middle" x="426.12" y="-607.06" font-family="Helvetica,sans-Serif" font-size="10.00"> vertex_stride_bytes_</text>
</g>
<!-- Node6 -->
<g id="node6" class="node">
<title>Node6</title>
<g id="a_node6"><a xlink:href="a01443.html" target="_top" xlink:title=" ">
<polygon fill="white" stroke="#666666" points="352.25,-505.75 235.75,-505.75 235.75,-485.75 352.25,-485.75 352.25,-505.75"/>
<text xml:space="preserve" text-anchor="middle" x="294" y="-492.25" font-family="Helvetica,sans-Serif" font-size="10.00">nanort::real3&lt; double &gt;</text>
</a>
</g>
</g>
<!-- Node6&#45;&gt;Node2 -->
<g id="edge5" class="edge">
<title>Node6&#45;&gt;Node2</title>
<path fill="none" stroke="#9a32cd" stroke-dasharray="5,2" d="M363.75,-503.81C396.81,-507.8 436.99,-512.81 473,-517.75 478.72,-518.53 484.6,-519.36 490.53,-520.22"/>
<polygon fill="#9a32cd" stroke="#9a32cd" points="364.22,-500.34 353.87,-502.63 363.38,-507.29 364.22,-500.34"/>
<text xml:space="preserve" text-anchor="middle" x="426.12" y="-520.25" font-family="Helvetica,sans-Serif" font-size="10.00"> ray_org_</text>
</g>
<!-- Node7 -->
<g id="node7" class="node">
<title>Node7</title>
<g id="a_node7"><a xlink:href="a00001.html#a02139" target="_top" xlink:title=" ">
<polygon fill="white" stroke="#666666" points="60.62,-240.75 16.12,-240.75 16.12,-220.75 60.62,-220.75 60.62,-240.75"/>
<text xml:space="preserve" text-anchor="middle" x="38.38" y="-227.25" font-family="Helvetica,sans-Serif" font-size="10.00">double</text>
</a>
</g>
</g>
<!-- Node7&#45;&gt;Node1 -->
<g id="edge26" class="edge">
<title>Node7&#45;&gt;Node1</title>
<path fill="none" stroke="#9a32cd" stroke-dasharray="5,2" d="M50.01,-210.68C59.46,-195.2 74.85,-174.94 94.75,-165.75 140.75,-144.51 158.12,-163.93 208.75,-165.75 395.78,-172.47 618.46,-197.61 705.52,-208.1"/>
<polygon fill="#9a32cd" stroke="#9a32cd" points="47.11,-208.7 45.19,-219.12 53.19,-212.17 47.11,-208.7"/>
<text xml:space="preserve" text-anchor="middle" x="426.12" y="-197.77" font-family="Helvetica,sans-Serif" font-size="10.00"> dist</text>
<text xml:space="preserve" text-anchor="middle" x="426.12" y="-185.77" font-family="Helvetica,sans-Serif" font-size="10.00">point</text>
</g>
<!-- Node7&#45;&gt;Node2 -->
<g id="edge14" class="edge">
<title>Node7&#45;&gt;Node2</title>
<path fill="none" stroke="#9a32cd" stroke-dasharray="5,2" d="M41.29,-252.46C45.3,-283.61 57.58,-340.28 94.75,-367.75 142.56,-403.08 305.08,-371.29 361.25,-390.75 438.81,-417.63 515.85,-478.27 554.12,-511.3"/>
<polygon fill="#9a32cd" stroke="#9a32cd" points="44.78,-252.24 40.22,-242.68 37.83,-253 44.78,-252.24"/>
<text xml:space="preserve" text-anchor="middle" x="294" y="-429.25" font-family="Helvetica,sans-Serif" font-size="10.00"> t_</text>
<text xml:space="preserve" text-anchor="middle" x="294" y="-417.25" font-family="Helvetica,sans-Serif" font-size="10.00">t_min_</text>
<text xml:space="preserve" text-anchor="middle" x="294" y="-405.25" font-family="Helvetica,sans-Serif" font-size="10.00">u_</text>
<text xml:space="preserve" text-anchor="middle" x="294" y="-393.25" font-family="Helvetica,sans-Serif" font-size="10.00">v_</text>
</g>
<!-- Node7&#45;&gt;Node6 -->
<g id="edge6" class="edge">
<title>Node7&#45;&gt;Node6</title>
<path fill="none" stroke="#9a32cd" stroke-dasharray="5,2" d="M40.1,-252.32C42.53,-287.48 52.7,-356.79 94.75,-392.75 133.84,-426.19 170.6,-378.25 208.75,-412.75 230.67,-432.57 205.91,-455.8 226.75,-476.75 230.21,-480.23 234.26,-483.08 238.63,-485.42"/>
<polygon fill="#9a32cd" stroke="#9a32cd" points="43.61,-252.36 39.59,-242.56 36.62,-252.72 43.61,-252.36"/>
<text xml:space="preserve" text-anchor="middle" x="151.75" y="-415.25" font-family="Helvetica,sans-Serif" font-size="10.00"> v</text>
</g>
<!-- Node15 -->
<g id="node15" class="node">
<title>Node15</title>
<g id="a_node15"><a xlink:href="a00470.html#a01339" target="_top" xlink:title=" ">
<polygon fill="white" stroke="#666666" points="350.38,-90.75 237.62,-90.75 237.62,-70.75 350.38,-70.75 350.38,-90.75"/>
<text xml:space="preserve" text-anchor="middle" x="294" y="-77.25" font-family="Helvetica,sans-Serif" font-size="10.00">HF::nanoGeom::Mesh</text>
</a>
</g>
</g>
<!-- Node7&#45;&gt;Node15 -->
<g id="edge18" class="edge">
<title>Node7&#45;&gt;Node15</title>
<path fill="none" stroke="#9a32cd" stroke-dasharray="5,2" d="M38.92,-209.09C39.44,-171.24 46.69,-93.77 94.75,-58.75 148.77,-19.39 234.02,-51.88 272.7,-70.26"/>
<polygon fill="#9a32cd" stroke="#9a32cd" points="35.42,-208.78 38.94,-218.77 42.42,-208.76 35.42,-208.78"/>
<text xml:space="preserve" text-anchor="middle" x="151.75" y="-121.25" font-family="Helvetica,sans-Serif" font-size="10.00"> facevarying_binormals</text>
<text xml:space="preserve" text-anchor="middle" x="151.75" y="-109.25" font-family="Helvetica,sans-Serif" font-size="10.00">facevarying_normals</text>
<text xml:space="preserve" text-anchor="middle" x="151.75" y="-97.25" font-family="Helvetica,sans-Serif" font-size="10.00">facevarying_tangents</text>
<text xml:space="preserve" text-anchor="middle" x="151.75" y="-85.25" font-family="Helvetica,sans-Serif" font-size="10.00">facevarying_uvs</text>
<text xml:space="preserve" text-anchor="middle" x="151.75" y="-73.25" font-family="Helvetica,sans-Serif" font-size="10.00">facevarying_vertex_colors</text>
<text xml:space="preserve" text-anchor="middle" x="151.75" y="-61.25" font-family="Helvetica,sans-Serif" font-size="10.00">vertices</text>
</g>
<!-- Node17 -->
<g id="node17" class="node">
<title>Node17</title>
<g id="a_node17"><a xlink:href="a01447.html" target="_top" xlink:title=" ">
<polygon fill="white" stroke="#666666" points="350.75,-293.75 237.25,-293.75 237.25,-273.75 350.75,-273.75 350.75,-293.75"/>
<text xml:space="preserve" text-anchor="middle" x="294" y="-280.25" font-family="Helvetica,sans-Serif" font-size="10.00">nanort::Ray&lt; double &gt;</text>
</a>
</g>
</g>
<!-- Node7&#45;&gt;Node17 -->
<g id="edge21" class="edge">
<title>Node7&#45;&gt;Node17</title>
<path fill="none" stroke="#9a32cd" stroke-dasharray="5,2" d="M63.84,-247.23C73.15,-252.73 84.08,-258.33 94.75,-261.75 141.24,-276.67 196.66,-281.83 237.07,-283.45"/>
<polygon fill="#9a32cd" stroke="#9a32cd" points="65.76,-244.3 55.42,-241.98 62.05,-250.24 65.76,-244.3"/>
<text xml:space="preserve" text-anchor="middle" x="151.75" y="-320.11" font-family="Helvetica,sans-Serif" font-size="10.00"> dir</text>
<text xml:space="preserve" text-anchor="middle" x="151.75" y="-308.11" font-family="Helvetica,sans-Serif" font-size="10.00">max_t</text>
<text xml:space="preserve" text-anchor="middle" x="151.75" y="-296.11" font-family="Helvetica,sans-Serif" font-size="10.00">min_t</text>
<text xml:space="preserve" text-anchor="middle" x="151.75" y="-284.11" font-family="Helvetica,sans-Serif" font-size="10.00">org</text>
</g>
<!-- Node18 -->
<g id="node18" class="node">
<title>Node18</title>
<g id="a_node18"><a xlink:href="a00474.html#a00474" target="_top" xlink:title=" ">
<polygon fill="white" stroke="#666666" points="361.25,-228.75 226.75,-228.75 226.75,-196.75 361.25,-196.75 361.25,-228.75"/>
<text xml:space="preserve" text-anchor="start" x="234.75" y="-215.25" font-family="Helvetica,sans-Serif" font-size="10.00">nanort::TriangleIntersection</text>
<text xml:space="preserve" text-anchor="middle" x="294" y="-203.25" font-family="Helvetica,sans-Serif" font-size="10.00">&lt; double &gt;</text>
</a>
</g>
</g>
<!-- Node7&#45;&gt;Node18 -->
<g id="edge24" class="edge">
<title>Node7&#45;&gt;Node18</title>
<path fill="none" stroke="#9a32cd" stroke-dasharray="5,2" d="M53.54,-211.46C63.55,-199.56 78.11,-185.34 94.75,-178.75 149.78,-156.96 218.85,-178.93 259.24,-196.27"/>
<polygon fill="#9a32cd" stroke="#9a32cd" points="50.93,-209.12 47.47,-219.14 56.42,-213.46 50.93,-209.12"/>
<text xml:space="preserve" text-anchor="middle" x="151.75" y="-205.25" font-family="Helvetica,sans-Serif" font-size="10.00"> t</text>
<text xml:space="preserve" text-anchor="middle" x="151.75" y="-193.25" font-family="Helvetica,sans-Serif" font-size="10.00">u</text>
<text xml:space="preserve" text-anchor="middle" x="151.75" y="-181.25" font-family="Helvetica,sans-Serif" font-size="10.00">v</text>
</g>
<!-- Node8 -->
<g id="node8" class="node">
<title>Node8</title>
<g id="a_node8"><a xlink:href="a01499.html#a01503" target="_top" xlink:title=" ">
<polygon fill="white" stroke="#666666" points="359,-593.75 229,-593.75 229,-561.75 359,-561.75 359,-593.75"/>
<text xml:space="preserve" text-anchor="start" x="237" y="-580.25" font-family="Helvetica,sans-Serif" font-size="10.00">nanort::TriangleIntersector</text>
<text xml:space="preserve" text-anchor="middle" x="294" y="-568.25" font-family="Helvetica,sans-Serif" font-size="10.00">&lt; T, H &gt;::RayCoeff</text>
</a>
</g>
</g>
<!-- Node8&#45;&gt;Node2 -->
<g id="edge7" class="edge">
<title>Node8&#45;&gt;Node2</title>
<path fill="none" stroke="#9a32cd" stroke-dasharray="5,2" d="M370.63,-566.03C407.53,-560.32 452.13,-553.41 490.59,-547.45"/>
<polygon fill="#9a32cd" stroke="#9a32cd" points="370.29,-562.54 360.94,-567.53 371.36,-569.46 370.29,-562.54"/>
<text xml:space="preserve" text-anchor="middle" x="426.12" y="-566.02" font-family="Helvetica,sans-Serif" font-size="10.00"> ray_coeff_</text>
</g>
<!-- Node9 -->
<g id="node9" class="node">
<title>Node9</title>
<g id="a_node9"><a xlink:title=" ">
<polygon fill="white" stroke="#666666" points="52.77,-673.75 23.98,-673.75 23.98,-653.75 52.77,-653.75 52.77,-673.75"/>
<text xml:space="preserve" text-anchor="middle" x="38.38" y="-660.25" font-family="Helvetica,sans-Serif" font-size="10.00">T</text>
</a>
</g>
</g>
<!-- Node9&#45;&gt;Node8 -->
<g id="edge8" class="edge">
<title>Node9&#45;&gt;Node8</title>
<path fill="none" stroke="#9a32cd" stroke-dasharray="5,2" d="M64.04,-667.46C99.62,-671.4 165.79,-673.32 208.75,-641.75 224.13,-630.45 212.78,-615.76 226.75,-602.75 230.26,-599.48 234.24,-596.63 238.46,-594.14"/>
<polygon fill="#9a32cd" stroke="#9a32cd" points="64.68,-664.01 54.32,-666.22 63.8,-670.95 64.68,-664.01"/>
<text xml:space="preserve" text-anchor="middle" x="151.75" y="-696.11" font-family="Helvetica,sans-Serif" font-size="10.00"> Sx</text>
<text xml:space="preserve" text-anchor="middle" x="151.75" y="-684.11" font-family="Helvetica,sans-Serif" font-size="10.00">Sy</text>
<text xml:space="preserve" text-anchor="middle" x="151.75" y="-672.11" font-family="Helvetica,sans-Serif" font-size="10.00">Sz</text>
</g>
<!-- Node10 -->
<g id="node10" class="node">
<title>Node10</title>
<g id="a_node10"><a xlink:title=" ">
<polygon fill="white" stroke="#666666" points="52.77,-459.75 23.98,-459.75 23.98,-439.75 52.77,-439.75 52.77,-459.75"/>
<text xml:space="preserve" text-anchor="middle" x="38.38" y="-446.25" font-family="Helvetica,sans-Serif" font-size="10.00">int</text>
</a>
</g>
</g>
<!-- Node10&#45;&gt;Node8 -->
<g id="edge9" class="edge">
<title>Node10&#45;&gt;Node8</title>
<path fill="none" stroke="#9a32cd" stroke-dasharray="5,2" d="M51.36,-469.69C58.75,-482.05 68.38,-498.27 76.75,-512.75 84.91,-526.88 81.39,-535.38 94.75,-544.75 94.84,-544.81 170.81,-557.45 228.67,-567.06"/>
<polygon fill="#9a32cd" stroke="#9a32cd" points="54.46,-468.04 46.31,-461.26 48.45,-471.64 54.46,-468.04"/>
<text xml:space="preserve" text-anchor="middle" x="151.75" y="-589.76" font-family="Helvetica,sans-Serif" font-size="10.00"> kx</text>
<text xml:space="preserve" text-anchor="middle" x="151.75" y="-577.76" font-family="Helvetica,sans-Serif" font-size="10.00">ky</text>
<text xml:space="preserve" text-anchor="middle" x="151.75" y="-565.76" font-family="Helvetica,sans-Serif" font-size="10.00">kz</text>
</g>
<!-- Node11 -->
<g id="node11" class="node">
<title>Node11</title>
<g id="a_node11"><a xlink:href="a01467.html" target="_top" xlink:title="BVH trace option.">
<polygon fill="white" stroke="#666666" points="358.25,-543.75 229.75,-543.75 229.75,-523.75 358.25,-523.75 358.25,-543.75"/>
<text xml:space="preserve" text-anchor="middle" x="294" y="-530.25" font-family="Helvetica,sans-Serif" font-size="10.00">nanort::BVHTraceOptions</text>
</a>
</g>
</g>
<!-- Node10&#45;&gt;Node11 -->
<g id="edge11" class="edge">
<title>Node10&#45;&gt;Node11</title>
<path fill="none" stroke="#9a32cd" stroke-dasharray="5,2" d="M63.99,-455.61C97.57,-464.05 159.25,-481.13 208.75,-503.75 217.28,-507.65 218.17,-510.98 226.75,-514.75 234.2,-518.02 242.37,-520.9 250.34,-523.35"/>
<polygon fill="#9a32cd" stroke="#9a32cd" points="64.97,-452.25 54.43,-453.26 63.3,-459.05 64.97,-452.25"/>
<text xml:space="preserve" text-anchor="middle" x="151.75" y="-518.25" font-family="Helvetica,sans-Serif" font-size="10.00"> prim_ids_range</text>
<text xml:space="preserve" text-anchor="middle" x="151.75" y="-506.25" font-family="Helvetica,sans-Serif" font-size="10.00">skip_prim_id</text>
</g>
<!-- Node10&#45;&gt;Node15 -->
<g id="edge19" class="edge">
<title>Node10&#45;&gt;Node15</title>
<path fill="none" stroke="#9a32cd" stroke-dasharray="5,2" d="M41.93,-428.11C48.21,-378.76 66.02,-260.12 94.75,-233.75 132.6,-199.02 165.99,-243.21 208.75,-214.75 211.78,-212.73 267.57,-122.16 286.66,-91.09"/>
<polygon fill="#9a32cd" stroke="#9a32cd" points="38.49,-427.46 40.74,-437.81 45.43,-428.31 38.49,-427.46"/>
<text xml:space="preserve" text-anchor="middle" x="151.75" y="-248.25" font-family="Helvetica,sans-Serif" font-size="10.00"> faces</text>
<text xml:space="preserve" text-anchor="middle" x="151.75" y="-236.25" font-family="Helvetica,sans-Serif" font-size="10.00">material_ids</text>
</g>
<!-- Node10&#45;&gt;Node17 -->
<g id="edge22" class="edge">
<title>Node10&#45;&gt;Node17</title>
<path fill="none" stroke="#9a32cd" stroke-dasharray="5,2" d="M64.5,-448.02C109.03,-444.74 198.11,-437.09 208.75,-427.75 232.24,-407.12 212.1,-387.37 226.75,-359.75 240.94,-333 266.21,-307.7 281.1,-294.1"/>
<polygon fill="#9a32cd" stroke="#9a32cd" points="64.46,-444.52 54.74,-448.72 64.96,-451.5 64.46,-444.52"/>
<text xml:space="preserve" text-anchor="middle" x="151.75" y="-448.11" font-family="Helvetica,sans-Serif" font-size="10.00"> type</text>
</g>
<!-- Node10&#45;&gt;Node18 -->
<g id="edge25" class="edge">
<title>Node10&#45;&gt;Node18</title>
<path fill="none" stroke="#9a32cd" stroke-dasharray="5,2" d="M51.29,-430.04C61.3,-414.87 76.82,-394.28 94.75,-380.75 138.63,-347.63 172.69,-374.24 208.75,-332.75 229.26,-309.15 209.56,-290.87 226.75,-264.75 236.23,-250.34 251.05,-238.16 264.27,-229.23"/>
<polygon fill="#9a32cd" stroke="#9a32cd" points="48.49,-427.92 46.09,-438.24 54.4,-431.67 48.49,-427.92"/>
<text xml:space="preserve" text-anchor="middle" x="151.75" y="-383.25" font-family="Helvetica,sans-Serif" font-size="10.00"> prim_id</text>
</g>
<!-- Node11&#45;&gt;Node2 -->
<g id="edge10" class="edge">
<title>Node11&#45;&gt;Node2</title>
<path fill="none" stroke="#9a32cd" stroke-dasharray="5,2" d="M369.97,-533.75C407.03,-533.75 451.99,-533.75 490.71,-533.75"/>
<polygon fill="#9a32cd" stroke="#9a32cd" points="370.25,-530.25 360.25,-533.75 370.25,-537.25 370.25,-530.25"/>
<text xml:space="preserve" text-anchor="middle" x="426.12" y="-536.25" font-family="Helvetica,sans-Serif" font-size="10.00"> trace_options_</text>
</g>
<!-- Node12 -->
<g id="node12" class="node">
<title>Node12</title>
<g id="a_node12"><a xlink:title=" ">
<polygon fill="white" stroke="#666666" points="55.38,-635.75 21.38,-635.75 21.38,-615.75 55.38,-615.75 55.38,-635.75"/>
<text xml:space="preserve" text-anchor="middle" x="38.38" y="-622.25" font-family="Helvetica,sans-Serif" font-size="10.00">bool</text>
</a>
</g>
</g>
<!-- Node12&#45;&gt;Node11 -->
<g id="edge12" class="edge">
<title>Node12&#45;&gt;Node11</title>
<path fill="none" stroke="#9a32cd" stroke-dasharray="5,2" d="M67.1,-625.58C109.45,-624.76 187.56,-620.9 208.75,-603.75 227.44,-588.63 209.25,-569.23 226.75,-552.75 230.41,-549.31 234.65,-546.48 239.18,-544.16"/>
<polygon fill="#9a32cd" stroke="#9a32cd" points="67.16,-622.08 57.21,-625.72 67.26,-629.08 67.16,-622.08"/>
<text xml:space="preserve" text-anchor="middle" x="151.75" y="-627.2" font-family="Helvetica,sans-Serif" font-size="10.00"> cull_back_face</text>
</g>
<!-- Node13 -->
<g id="node13" class="node">
<title>Node13</title>
<g id="a_node13"><a xlink:title=" ">
<polygon fill="white" stroke="#666666" points="76.75,-541.75 0,-541.75 0,-521.75 76.75,-521.75 76.75,-541.75"/>
<text xml:space="preserve" text-anchor="middle" x="38.38" y="-528.25" font-family="Helvetica,sans-Serif" font-size="10.00">unsigned char</text>
</a>
</g>
</g>
<!-- Node13&#45;&gt;Node11 -->
<g id="edge13" class="edge">
<title>Node13&#45;&gt;Node11</title>
<path fill="none" stroke="#9a32cd" stroke-dasharray="5,2" d="M88.47,-531.96C122.28,-532.13 168.24,-532.39 208.75,-532.75 215.48,-532.81 222.51,-532.88 229.52,-532.96"/>
<polygon fill="#9a32cd" stroke="#9a32cd" points="88.58,-528.46 78.56,-531.92 88.54,-535.46 88.58,-528.46"/>
<text xml:space="preserve" text-anchor="middle" x="151.75" y="-535.25" font-family="Helvetica,sans-Serif" font-size="10.00"> pad</text>
</g>
<!-- Node14 -->
<g id="node14" class="node">
<title>Node14</title>
<g id="a_node14"><a xlink:href="a00001.html#a02143" target="_top" xlink:title=" ">
<polygon fill="white" stroke="#666666" points="328.25,-467.75 259.75,-467.75 259.75,-447.75 328.25,-447.75 328.25,-467.75"/>
<text xml:space="preserve" text-anchor="middle" x="294" y="-454.25" font-family="Helvetica,sans-Serif" font-size="10.00">unsigned int</text>
</a>
</g>
</g>
<!-- Node14&#45;&gt;Node2 -->
<g id="edge15" class="edge">
<title>Node14&#45;&gt;Node2</title>
<path fill="none" stroke="#9a32cd" stroke-dasharray="5,2" d="M339.85,-463.09C376.22,-468.06 428.55,-476.7 473,-489.75 492.5,-495.48 513.29,-503.63 531.24,-511.36"/>
<polygon fill="#9a32cd" stroke="#9a32cd" points="340.51,-459.64 330.13,-461.8 339.59,-466.58 340.51,-459.64"/>
<text xml:space="preserve" text-anchor="middle" x="426.12" y="-492.25" font-family="Helvetica,sans-Serif" font-size="10.00"> prim_id_</text>
</g>
<!-- Node15&#45;&gt;Node1 -->
<g id="edge16" class="edge">
<title>Node15&#45;&gt;Node1</title>
<path fill="none" stroke="#9a32cd" stroke-dasharray="5,2" d="M361.92,-78.44C438.31,-77.86 566.01,-83.21 669,-118.75 707.87,-132.17 730.88,-181.06 739.31,-202.53"/>
<polygon fill="#9a32cd" stroke="#9a32cd" points="362.04,-74.94 352.08,-78.56 362.12,-81.94 362.04,-74.94"/>
<text xml:space="preserve" text-anchor="middle" x="580" y="-121.25" font-family="Helvetica,sans-Serif" font-size="10.00"> mesh</text>
</g>
<!-- Node16 -->
<g id="node16" class="node">
<title>Node16</title>
<g id="a_node16"><a xlink:title=" ">
<polygon fill="white" stroke="#666666" points="59.5,-20.75 17.25,-20.75 17.25,-0.75 59.5,-0.75 59.5,-20.75"/>
<text xml:space="preserve" text-anchor="middle" x="38.38" y="-7.25" font-family="Helvetica,sans-Serif" font-size="10.00">size_t</text>
</a>
</g>
</g>
<!-- Node16&#45;&gt;Node15 -->
<g id="edge17" class="edge">
<title>Node16&#45;&gt;Node15</title>
<path fill="none" stroke="#9a32cd" stroke-dasharray="5,2" d="M71.32,-4.76C106.22,0.39 163.22,4.67 208.75,-11.75 241.65,-23.61 271,-54.37 284.75,-70.51"/>
<polygon fill="#9a32cd" stroke="#9a32cd" points="70.77,-1.31 61.45,-6.35 71.88,-8.22 70.77,-1.31"/>
<text xml:space="preserve" text-anchor="middle" x="151.75" y="-26.25" font-family="Helvetica,sans-Serif" font-size="10.00"> num_faces</text>
<text xml:space="preserve" text-anchor="middle" x="151.75" y="-14.25" font-family="Helvetica,sans-Serif" font-size="10.00">num_vertices</text>
</g>
<!-- Node17&#45;&gt;Node1 -->
<g id="edge20" class="edge">
<title>Node17&#45;&gt;Node1</title>
<path fill="none" stroke="#9a32cd" stroke-dasharray="5,2" d="M362.14,-276.19C440.67,-266.85 574.42,-249.38 688,-226.75 693.7,-225.61 699.7,-224.26 705.55,-222.84"/>
<polygon fill="#9a32cd" stroke="#9a32cd" points="361.98,-272.69 352.46,-277.34 362.8,-279.64 361.98,-272.69"/>
<text xml:space="preserve" text-anchor="middle" x="580" y="-261.84" font-family="Helvetica,sans-Serif" font-size="10.00"> ray</text>
</g>
<!-- Node18&#45;&gt;Node1 -->
<g id="edge23" class="edge">
<title>Node18&#45;&gt;Node1</title>
<path fill="none" stroke="#9a32cd" stroke-dasharray="5,2" d="M372.83,-212.75C470.16,-212.75 632.84,-212.75 705.71,-212.75"/>
<polygon fill="#9a32cd" stroke="#9a32cd" points="373.1,-209.25 363.1,-212.75 373.1,-216.25 373.1,-209.25"/>
<text xml:space="preserve" text-anchor="middle" x="580" y="-215.25" font-family="Helvetica,sans-Serif" font-size="10.00"> hit</text>
</g>
</g>
</svg>
