<?xml version="1.0" encoding="UTF-8" standalone="no"?>
<!DOCTYPE svg PUBLIC "-//W3C//DTD SVG 1.1//EN"
 "http://www.w3.org/Graphics/SVG/1.1/DTD/svg11.dtd">
<!-- Generated by graphviz version 13.1.2 (20250808.2320)
 -->
<!-- Title: HF::SpatialStructures::Graph::GetSubgraph Pages: 1 -->
<svg width="292pt" height="164pt"
 viewBox="0.00 0.00 292.00 164.00" xmlns="http://www.w3.org/2000/svg" xmlns:xlink="http://www.w3.org/1999/xlink">
<g id="graph0" class="graph" transform="scale(1 1) rotate(0) translate(4 160)">
<title>HF::SpatialStructures::Graph::GetSubgraph</title>
<!-- Node1 -->
<g id="node1" class="node">
<title>Node1</title>
<g id="a_node1"><a xlink:title="Retrieves a Subgraph using a Node.">
<polygon fill="#999999" stroke="#666666" points="284,-88 172.75,-88 172.75,-56 284,-56 284,-88"/>
<text xml:space="preserve" text-anchor="start" x="180.75" y="-74.5" font-family="Helvetica,sans-Serif" font-size="10.00">HF::SpatialStructures</text>
<text xml:space="preserve" text-anchor="middle" x="228.38" y="-62.5" font-family="Helvetica,sans-Serif" font-size="10.00">::Graph::GetSubgraph</text>
</a>
</g>
</g>
<!-- Node2 -->
<g id="node2" class="node">
<title>Node2</title>
<g id="a_node2"><a xlink:href="a00475.html#a6d12a3af69887cb335b490304138afc6" target="_top" xlink:title=" ">
<polygon fill="white" stroke="#666666" points="136.75,-156 0,-156 0,-112 136.75,-112 136.75,-156"/>
<text xml:space="preserve" text-anchor="start" x="8" y="-142.5" font-family="Helvetica,sans-Serif" font-size="10.00">HF::SpatialStructures</text>
<text xml:space="preserve" text-anchor="start" x="8" y="-130.5" font-family="Helvetica,sans-Serif" font-size="10.00">::CostAlgorithms::Calculate</text>
<text xml:space="preserve" text-anchor="middle" x="68.38" y="-118.5" font-family="Helvetica,sans-Serif" font-size="10.00">CrossSlope</text>
</a>
</g>
</g>
<!-- Node1&#45;&gt;Node2 -->
<g id="edge1" class="edge">
<title>Node1&#45;&gt;Node2</title>
<path fill="none" stroke="#63b8ff" d="M175,-92.55C159.5,-98.63 142.46,-105.32 126.67,-111.52"/>
<polygon fill="#63b8ff" stroke="#63b8ff" points="176.01,-95.92 184.04,-89 173.45,-89.4 176.01,-95.92"/>
</g>
<!-- Node3 -->
<g id="node3" class="node">
<title>Node3</title>
<g id="a_node3"><a xlink:href="a00475.html#adbe5e58355a884494d6e99bf17fc5f7b" target="_top" xlink:title=" ">
<polygon fill="white" stroke="#666666" points="136.75,-94 0,-94 0,-50 136.75,-50 136.75,-94"/>
<text xml:space="preserve" text-anchor="start" x="8" y="-80.5" font-family="Helvetica,sans-Serif" font-size="10.00">HF::SpatialStructures</text>
<text xml:space="preserve" text-anchor="start" x="8" y="-68.5" font-family="Helvetica,sans-Serif" font-size="10.00">::CostAlgorithms::Calculate</text>
<text xml:space="preserve" text-anchor="middle" x="68.38" y="-56.5" font-family="Helvetica,sans-Serif" font-size="10.00">EnergyExpenditure</text>
</a>
</g>
</g>
<!-- Node1&#45;&gt;Node3 -->
<g id="edge2" class="edge">
<title>Node1&#45;&gt;Node3</title>
<path fill="none" stroke="#63b8ff" d="M161.13,-72C153.21,-72 145.12,-72 137.18,-72"/>
<polygon fill="#63b8ff" stroke="#63b8ff" points="161.04,-75.5 171.04,-72 161.04,-68.5 161.04,-75.5"/>
</g>
<!-- Node4 -->
<g id="node4" class="node">
<title>Node4</title>
<g id="a_node4"><a xlink:href="a00463.html#a81398de53e151ae58b206523e555309e" target="_top" xlink:title=" ">
<polygon fill="white" stroke="#666666" points="120.62,-32 16.12,-32 16.12,0 120.62,0 120.62,-32"/>
<text xml:space="preserve" text-anchor="start" x="24.12" y="-18.5" font-family="Helvetica,sans-Serif" font-size="10.00">HF::GraphGenerator</text>
<text xml:space="preserve" text-anchor="middle" x="68.38" y="-6.5" font-family="Helvetica,sans-Serif" font-size="10.00">::CalculateStepType</text>
</a>
</g>
</g>
<!-- Node1&#45;&gt;Node4 -->
<g id="edge3" class="edge">
<title>Node1&#45;&gt;Node4</title>
<path fill="none" stroke="#63b8ff" d="M169.99,-51.66C152.2,-45.35 132.82,-38.49 115.87,-32.48"/>
<polygon fill="#63b8ff" stroke="#63b8ff" points="168.8,-54.95 179.4,-55 171.14,-48.36 168.8,-54.95"/>
</g>
</g>
</svg>
