<?xml version="1.0" encoding="UTF-8" standalone="no"?>
<!DOCTYPE svg PUBLIC "-//W3C//DTD SVG 1.1//EN"
 "http://www.w3.org/Graphics/SVG/1.1/DTD/svg11.dtd">
<!-- Generated by graphviz version 13.1.2 (20250808.2320)
 -->
<!-- Title: nlohmann::detail::invalid_iterator Pages: 1 -->
<svg width="202pt" height="222pt"
 viewBox="0.00 0.00 202.00 222.00" xmlns="http://www.w3.org/2000/svg" xmlns:xlink="http://www.w3.org/1999/xlink">
<g id="graph0" class="graph" transform="scale(1 1) rotate(0) translate(4 218)">
<title>nlohmann::detail::invalid_iterator</title>
<!-- Node1 -->
<g id="node1" class="node">
<title>Node1</title>
<g id="a_node1"><a xlink:title="exception indicating errors with iterators">
<polygon fill="#999999" stroke="#666666" points="161.25,-32 40.25,-32 40.25,0 161.25,0 161.25,-32"/>
<text xml:space="preserve" text-anchor="start" x="48.25" y="-18.5" font-family="Helvetica,sans-Serif" font-size="10.00">nlohmann::detail::invalid</text>
<text xml:space="preserve" text-anchor="middle" x="100.75" y="-6.5" font-family="Helvetica,sans-Serif" font-size="10.00">_iterator</text>
</a>
</g>
</g>
<!-- Node2 -->
<g id="node2" class="node">
<title>Node2</title>
<g id="a_node2"><a xlink:href="a01559.html" target="_top" xlink:title="general exception of the basic_json class">
<polygon fill="white" stroke="#666666" points="168.38,-89 33.12,-89 33.12,-69 168.38,-69 168.38,-89"/>
<text xml:space="preserve" text-anchor="middle" x="100.75" y="-75.5" font-family="Helvetica,sans-Serif" font-size="10.00">nlohmann::detail::exception</text>
</a>
</g>
</g>
<!-- Node2&#45;&gt;Node1 -->
<g id="edge1" class="edge">
<title>Node2&#45;&gt;Node1</title>
<path fill="none" stroke="#63b8ff" d="M100.75,-57.36C100.75,-49.07 100.75,-39.69 100.75,-32.06"/>
<polygon fill="#63b8ff" stroke="#63b8ff" points="97.25,-57.22 100.75,-67.22 104.25,-57.22 97.25,-57.22"/>
</g>
<!-- Node3 -->
<g id="node3" class="node">
<title>Node3</title>
<g id="a_node3"><a xlink:title=" ">
<polygon fill="white" stroke="#666666" points="77.5,-214 0,-214 0,-194 77.5,-194 77.5,-214"/>
<text xml:space="preserve" text-anchor="middle" x="38.75" y="-200.5" font-family="Helvetica,sans-Serif" font-size="10.00">std::exception</text>
</a>
</g>
</g>
<!-- Node3&#45;&gt;Node2 -->
<g id="edge2" class="edge">
<title>Node3&#45;&gt;Node2</title>
<path fill="none" stroke="#63b8ff" d="M37.55,-182.12C37.59,-168.65 39.18,-151.08 45.75,-137 55.17,-116.81 74.69,-99.35 87.76,-89.25"/>
<polygon fill="#63b8ff" stroke="#63b8ff" points="34.05,-182.12 37.84,-192.02 41.05,-181.92 34.05,-182.12"/>
</g>
<!-- Node5 -->
<g id="node5" class="node">
<title>Node5</title>
<g id="a_node5"><a xlink:title=" ">
<polygon fill="white" stroke="#666666" points="147,-157 54.5,-157 54.5,-137 147,-137 147,-157"/>
<text xml:space="preserve" text-anchor="middle" x="100.75" y="-143.5" font-family="Helvetica,sans-Serif" font-size="10.00">std::runtime_error</text>
</a>
</g>
</g>
<!-- Node3&#45;&gt;Node5 -->
<g id="edge5" class="edge">
<title>Node3&#45;&gt;Node5</title>
<path fill="none" stroke="#63b8ff" d="M57.62,-186.26C68.39,-176.71 81.47,-165.1 90.39,-157.19"/>
<polygon fill="#63b8ff" stroke="#63b8ff" points="55.56,-183.41 50.4,-192.67 60.2,-188.65 55.56,-183.41"/>
</g>
<!-- Node4 -->
<g id="node4" class="node">
<title>Node4</title>
<g id="a_node4"><a xlink:title=" ">
<polygon fill="white" stroke="#666666" points="194.15,-157 165.35,-157 165.35,-137 194.15,-137 194.15,-157"/>
<text xml:space="preserve" text-anchor="middle" x="179.75" y="-143.5" font-family="Helvetica,sans-Serif" font-size="10.00">int</text>
</a>
</g>
</g>
<!-- Node4&#45;&gt;Node2 -->
<g id="edge3" class="edge">
<title>Node4&#45;&gt;Node2</title>
<path fill="none" stroke="#9a32cd" stroke-dasharray="5,2" d="M159.8,-129.33C144.69,-116.71 124.48,-99.82 112.05,-89.44"/>
<polygon fill="#9a32cd" stroke="#9a32cd" points="157.35,-131.85 167.27,-135.57 161.84,-126.48 157.35,-131.85"/>
<text xml:space="preserve" text-anchor="middle" x="152.58" y="-109.5" font-family="Helvetica,sans-Serif" font-size="10.00"> id</text>
</g>
<!-- Node5&#45;&gt;Node2 -->
<g id="edge4" class="edge">
<title>Node5&#45;&gt;Node2</title>
<path fill="none" stroke="#9a32cd" stroke-dasharray="5,2" d="M100.75,-125.28C100.75,-113.27 100.75,-98.74 100.75,-89.44"/>
<polygon fill="#9a32cd" stroke="#9a32cd" points="97.25,-125.03 100.75,-135.03 104.25,-125.03 97.25,-125.03"/>
<text xml:space="preserve" text-anchor="middle" x="106.38" y="-109.5" font-family="Helvetica,sans-Serif" font-size="10.00"> m</text>
</g>
</g>
</svg>
