<?xml version="1.0" encoding="UTF-8" standalone="no"?>
<!DOCTYPE svg PUBLIC "-//W3C//DTD SVG 1.1//EN"
 "http://www.w3.org/Graphics/SVG/1.1/DTD/svg11.dtd">
<!-- Generated by graphviz version 13.1.2 (20250808.2320)
 -->
<!-- Title: nlohmann::detail::invalid_iterator::create Pages: 1 -->
<svg width="422pt" height="626pt"
 viewBox="0.00 0.00 422.00 626.00" xmlns="http://www.w3.org/2000/svg" xmlns:xlink="http://www.w3.org/1999/xlink">
<g id="graph0" class="graph" transform="scale(1 1) rotate(0) translate(4 622)">
<title>nlohmann::detail::invalid_iterator::create</title>
<!-- Node1 -->
<g id="node1" class="node">
<title>Node1</title>
<g id="a_node1"><a xlink:title=" ">
<polygon fill="#999999" stroke="#666666" points="414,-307 293,-307 293,-275 414,-275 414,-307"/>
<text xml:space="preserve" text-anchor="start" x="301" y="-293.5" font-family="Helvetica,sans-Serif" font-size="10.00">nlohmann::detail::invalid</text>
<text xml:space="preserve" text-anchor="middle" x="353.5" y="-281.5" font-family="Helvetica,sans-Serif" font-size="10.00">_iterator::create</text>
</a>
</g>
</g>
<!-- Node2 -->
<g id="node2" class="node">
<title>Node2</title>
<g id="a_node2"><a xlink:href="a01659.html#a23e540f473d32f1cf5d3243ea3ad495e" target="_top" xlink:title="construct a JSON container given an iterator range">
<polygon fill="white" stroke="#666666" points="257,-591 146.5,-591 146.5,-559 257,-559 257,-591"/>
<text xml:space="preserve" text-anchor="start" x="154.5" y="-577.5" font-family="Helvetica,sans-Serif" font-size="10.00">nlohmann::basic_json</text>
<text xml:space="preserve" text-anchor="middle" x="201.75" y="-565.5" font-family="Helvetica,sans-Serif" font-size="10.00">::basic_json</text>
</a>
</g>
</g>
<!-- Node1&#45;&gt;Node2 -->
<g id="edge1" class="edge">
<title>Node1&#45;&gt;Node2</title>
<path fill="none" stroke="#63b8ff" d="M349.35,-318.35C342.08,-369.87 319.64,-482.23 257,-550 254.04,-553.2 250.6,-556.02 246.9,-558.5"/>
<polygon fill="#63b8ff" stroke="#63b8ff" points="352.79,-319.05 350.63,-308.68 345.85,-318.14 352.79,-319.05"/>
</g>
<!-- Node3 -->
<g id="node3" class="node">
<title>Node3</title>
<g id="a_node3"><a xlink:href="a01659.html#a494632b69bbe1d0153d3bedad0901b8e" target="_top" xlink:title="remove element given an iterator">
<polygon fill="white" stroke="#666666" points="257,-541 146.5,-541 146.5,-509 257,-509 257,-541"/>
<text xml:space="preserve" text-anchor="start" x="154.5" y="-527.5" font-family="Helvetica,sans-Serif" font-size="10.00">nlohmann::basic_json</text>
<text xml:space="preserve" text-anchor="middle" x="201.75" y="-515.5" font-family="Helvetica,sans-Serif" font-size="10.00">::erase</text>
</a>
</g>
</g>
<!-- Node1&#45;&gt;Node3 -->
<g id="edge2" class="edge">
<title>Node1&#45;&gt;Node3</title>
<path fill="none" stroke="#63b8ff" d="M344.94,-318.08C332.35,-359.33 303.72,-438.61 257,-491 250.93,-497.8 243.19,-503.74 235.46,-508.66"/>
<polygon fill="#63b8ff" stroke="#63b8ff" points="348.23,-319.31 347.71,-308.73 341.52,-317.33 348.23,-319.31"/>
</g>
<!-- Node6 -->
<g id="node6" class="node">
<title>Node6</title>
<g id="a_node6"><a xlink:href="a01659.html#aeb86e8478e20d95970a8b61ff01dce3b" target="_top" xlink:title="inserts element">
<polygon fill="white" stroke="#666666" points="257,-482 146.5,-482 146.5,-450 257,-450 257,-482"/>
<text xml:space="preserve" text-anchor="start" x="154.5" y="-468.5" font-family="Helvetica,sans-Serif" font-size="10.00">nlohmann::basic_json</text>
<text xml:space="preserve" text-anchor="middle" x="201.75" y="-456.5" font-family="Helvetica,sans-Serif" font-size="10.00">::insert</text>
</a>
</g>
</g>
<!-- Node1&#45;&gt;Node6 -->
<g id="edge6" class="edge">
<title>Node1&#45;&gt;Node6</title>
<path fill="none" stroke="#63b8ff" d="M341.45,-317.28C326.53,-350.04 297.11,-405.97 257,-441 253.33,-444.21 249.18,-447.08 244.84,-449.63"/>
<polygon fill="#63b8ff" stroke="#63b8ff" points="344.49,-319.07 345.34,-308.51 338.09,-316.24 344.49,-319.07"/>
</g>
<!-- Node9 -->
<g id="node9" class="node">
<title>Node9</title>
<g id="a_node9"><a xlink:href="a02011.html#a9aa08ccaf6e80f7bd9513c0d054efb64" target="_top" xlink:title="return the key of an object iterator">
<polygon fill="white" stroke="#666666" points="255.12,-432 148.38,-432 148.38,-400 255.12,-400 255.12,-432"/>
<text xml:space="preserve" text-anchor="start" x="156.38" y="-418.5" font-family="Helvetica,sans-Serif" font-size="10.00">nlohmann::detail::iter</text>
<text xml:space="preserve" text-anchor="middle" x="201.75" y="-406.5" font-family="Helvetica,sans-Serif" font-size="10.00">_impl::key</text>
</a>
</g>
</g>
<!-- Node1&#45;&gt;Node9 -->
<g id="edge11" class="edge">
<title>Node1&#45;&gt;Node9</title>
<path fill="none" stroke="#63b8ff" d="M333.12,-316.12C315.21,-338.05 286.92,-369.64 257,-391 252.61,-394.13 247.77,-397.03 242.83,-399.65"/>
<polygon fill="#63b8ff" stroke="#63b8ff" points="335.67,-318.54 339.19,-308.55 330.2,-314.16 335.67,-318.54"/>
</g>
<!-- Node10 -->
<g id="node10" class="node">
<title>Node10</title>
<g id="a_node10"><a xlink:href="a02011.html#a5ca57856d9bba54a5fc51cee891de827" target="_top" xlink:title="return a reference to the value pointed to by the iterator">
<polygon fill="white" stroke="#666666" points="255.12,-382 148.38,-382 148.38,-350 255.12,-350 255.12,-382"/>
<text xml:space="preserve" text-anchor="start" x="156.38" y="-368.5" font-family="Helvetica,sans-Serif" font-size="10.00">nlohmann::detail::iter</text>
<text xml:space="preserve" text-anchor="middle" x="201.75" y="-356.5" font-family="Helvetica,sans-Serif" font-size="10.00">_impl::operator*</text>
</a>
</g>
</g>
<!-- Node1&#45;&gt;Node10 -->
<g id="edge12" class="edge">
<title>Node1&#45;&gt;Node10</title>
<path fill="none" stroke="#63b8ff" d="M312.06,-312.75C295.15,-321.69 275.22,-332.04 257,-341 251.23,-343.84 245.07,-346.77 239.06,-349.58"/>
<polygon fill="#63b8ff" stroke="#63b8ff" points="313.64,-315.87 320.83,-308.09 310.35,-309.69 313.64,-315.87"/>
</g>
<!-- Node12 -->
<g id="node12" class="node">
<title>Node12</title>
<g id="a_node12"><a xlink:href="a02011.html#ae576098902fa32c109d9d036d30e0cd7" target="_top" xlink:title="add to iterator">
<polygon fill="white" stroke="#666666" points="255.12,-332 148.38,-332 148.38,-300 255.12,-300 255.12,-332"/>
<text xml:space="preserve" text-anchor="start" x="156.38" y="-318.5" font-family="Helvetica,sans-Serif" font-size="10.00">nlohmann::detail::iter</text>
<text xml:space="preserve" text-anchor="middle" x="201.75" y="-306.5" font-family="Helvetica,sans-Serif" font-size="10.00">_impl::operator+=</text>
</a>
</g>
</g>
<!-- Node1&#45;&gt;Node12 -->
<g id="edge14" class="edge">
<title>Node1&#45;&gt;Node12</title>
<path fill="none" stroke="#63b8ff" d="M281.73,-302.82C272.86,-304.3 263.91,-305.79 255.38,-307.21"/>
<polygon fill="#63b8ff" stroke="#63b8ff" points="282.1,-306.3 291.39,-301.2 280.95,-299.4 282.1,-306.3"/>
</g>
<!-- Node14 -->
<g id="node14" class="node">
<title>Node14</title>
<g id="a_node14"><a xlink:href="a02011.html#a49bf3e708a9c1c88c415011735962d06" target="_top" xlink:title="return difference">
<polygon fill="white" stroke="#666666" points="255.12,-282 148.38,-282 148.38,-250 255.12,-250 255.12,-282"/>
<text xml:space="preserve" text-anchor="start" x="156.38" y="-268.5" font-family="Helvetica,sans-Serif" font-size="10.00">nlohmann::detail::iter</text>
<text xml:space="preserve" text-anchor="middle" x="201.75" y="-256.5" font-family="Helvetica,sans-Serif" font-size="10.00">_impl::operator&#45;</text>
</a>
</g>
</g>
<!-- Node1&#45;&gt;Node14 -->
<g id="edge16" class="edge">
<title>Node1&#45;&gt;Node14</title>
<path fill="none" stroke="#63b8ff" d="M281.73,-279.18C272.86,-277.7 263.91,-276.21 255.38,-274.79"/>
<polygon fill="#63b8ff" stroke="#63b8ff" points="280.95,-282.6 291.39,-280.8 282.1,-275.7 280.95,-282.6"/>
</g>
<!-- Node15 -->
<g id="node15" class="node">
<title>Node15</title>
<g id="a_node15"><a xlink:href="a02011.html#a6da3d2b34528aff328f3dcb513076dec" target="_top" xlink:title="dereference the iterator">
<polygon fill="white" stroke="#666666" points="255.12,-232 148.38,-232 148.38,-200 255.12,-200 255.12,-232"/>
<text xml:space="preserve" text-anchor="start" x="156.38" y="-218.5" font-family="Helvetica,sans-Serif" font-size="10.00">nlohmann::detail::iter</text>
<text xml:space="preserve" text-anchor="middle" x="201.75" y="-206.5" font-family="Helvetica,sans-Serif" font-size="10.00">_impl::operator&#45;&gt;</text>
</a>
</g>
</g>
<!-- Node1&#45;&gt;Node15 -->
<g id="edge17" class="edge">
<title>Node1&#45;&gt;Node15</title>
<path fill="none" stroke="#63b8ff" d="M312.06,-269.25C295.15,-260.31 275.22,-249.96 257,-241 251.23,-238.16 245.07,-235.23 239.06,-232.42"/>
<polygon fill="#63b8ff" stroke="#63b8ff" points="310.35,-272.31 320.83,-273.91 313.64,-266.13 310.35,-272.31"/>
</g>
<!-- Node16 -->
<g id="node16" class="node">
<title>Node16</title>
<g id="a_node16"><a xlink:href="a02011.html#a0d14cd76203e00bdcef6a64a5d055cc7" target="_top" xlink:title="comparison: smaller">
<polygon fill="white" stroke="#666666" points="255.12,-182 148.38,-182 148.38,-150 255.12,-150 255.12,-182"/>
<text xml:space="preserve" text-anchor="start" x="156.38" y="-168.5" font-family="Helvetica,sans-Serif" font-size="10.00">nlohmann::detail::iter</text>
<text xml:space="preserve" text-anchor="middle" x="201.75" y="-156.5" font-family="Helvetica,sans-Serif" font-size="10.00">_impl::operator&lt;</text>
</a>
</g>
</g>
<!-- Node1&#45;&gt;Node16 -->
<g id="edge18" class="edge">
<title>Node1&#45;&gt;Node16</title>
<path fill="none" stroke="#63b8ff" d="M333.12,-265.88C315.21,-243.95 286.92,-212.36 257,-191 252.61,-187.87 247.77,-184.97 242.83,-182.35"/>
<polygon fill="#63b8ff" stroke="#63b8ff" points="330.2,-267.84 339.19,-273.45 335.67,-263.46 330.2,-267.84"/>
</g>
<!-- Node18 -->
<g id="node18" class="node">
<title>Node18</title>
<g id="a_node18"><a xlink:href="a02011.html#a2b592605b63ae7f5401996ffa3b14393" target="_top" xlink:title="comparison: equal">
<polygon fill="white" stroke="#666666" points="255.12,-132 148.38,-132 148.38,-100 255.12,-100 255.12,-132"/>
<text xml:space="preserve" text-anchor="start" x="156.38" y="-118.5" font-family="Helvetica,sans-Serif" font-size="10.00">nlohmann::detail::iter</text>
<text xml:space="preserve" text-anchor="middle" x="201.75" y="-106.5" font-family="Helvetica,sans-Serif" font-size="10.00">_impl::operator==</text>
</a>
</g>
</g>
<!-- Node1&#45;&gt;Node18 -->
<g id="edge20" class="edge">
<title>Node1&#45;&gt;Node18</title>
<path fill="none" stroke="#63b8ff" d="M341.45,-264.72C326.53,-231.96 297.11,-176.03 257,-141 253.33,-137.79 249.18,-134.92 244.84,-132.37"/>
<polygon fill="#63b8ff" stroke="#63b8ff" points="338.09,-265.76 345.34,-273.49 344.49,-262.93 338.09,-265.76"/>
</g>
<!-- Node20 -->
<g id="node20" class="node">
<title>Node20</title>
<g id="a_node20"><a xlink:href="a02011.html#ac0b9276f1102ed4b9cd3f5f56287e3ce" target="_top" xlink:title="access to successor">
<polygon fill="white" stroke="#666666" points="255.12,-82 148.38,-82 148.38,-50 255.12,-50 255.12,-82"/>
<text xml:space="preserve" text-anchor="start" x="156.38" y="-68.5" font-family="Helvetica,sans-Serif" font-size="10.00">nlohmann::detail::iter</text>
<text xml:space="preserve" text-anchor="middle" x="201.75" y="-56.5" font-family="Helvetica,sans-Serif" font-size="10.00">_impl::operator[]</text>
</a>
</g>
</g>
<!-- Node1&#45;&gt;Node20 -->
<g id="edge22" class="edge">
<title>Node1&#45;&gt;Node20</title>
<path fill="none" stroke="#63b8ff" d="M345.84,-263.46C334.35,-221.29 307.1,-140.42 257,-91 253.75,-87.8 250.02,-84.95 246.06,-82.45"/>
<polygon fill="#63b8ff" stroke="#63b8ff" points="342.43,-264.26 348.34,-273.05 349.2,-262.49 342.43,-264.26"/>
</g>
<!-- Node21 -->
<g id="node21" class="node">
<title>Node21</title>
<g id="a_node21"><a xlink:href="a01659.html#a9f9e5f668474280acc9bd7f5410b9392" target="_top" xlink:title="updates a JSON object from another object, overwriting existing keys">
<polygon fill="white" stroke="#666666" points="257,-32 146.5,-32 146.5,0 257,0 257,-32"/>
<text xml:space="preserve" text-anchor="start" x="154.5" y="-18.5" font-family="Helvetica,sans-Serif" font-size="10.00">nlohmann::basic_json</text>
<text xml:space="preserve" text-anchor="middle" x="201.75" y="-6.5" font-family="Helvetica,sans-Serif" font-size="10.00">::update</text>
</a>
</g>
</g>
<!-- Node1&#45;&gt;Node21 -->
<g id="edge23" class="edge">
<title>Node1&#45;&gt;Node21</title>
<path fill="none" stroke="#63b8ff" d="M348.91,-263.55C341,-213.34 317.69,-105.89 257,-41 253.95,-37.74 250.4,-34.87 246.6,-32.36"/>
<polygon fill="#63b8ff" stroke="#63b8ff" points="345.42,-263.87 350.34,-273.25 352.34,-262.85 345.42,-263.87"/>
</g>
<!-- Node4 -->
<g id="node4" class="node">
<title>Node4</title>
<g id="a_node4"><a xlink:href="a01659.html#a844a77cb154752d12118f10af26d54cb" target="_top" xlink:title="applies a JSON Merge Patch">
<polygon fill="white" stroke="#666666" points="110.5,-600 0,-600 0,-568 110.5,-568 110.5,-600"/>
<text xml:space="preserve" text-anchor="start" x="8" y="-586.5" font-family="Helvetica,sans-Serif" font-size="10.00">nlohmann::basic_json</text>
<text xml:space="preserve" text-anchor="middle" x="55.25" y="-574.5" font-family="Helvetica,sans-Serif" font-size="10.00">::merge_patch</text>
</a>
</g>
</g>
<!-- Node3&#45;&gt;Node4 -->
<g id="edge3" class="edge">
<title>Node3&#45;&gt;Node4</title>
<path fill="none" stroke="#63b8ff" d="M149.89,-545.77C132.4,-552.91 113.07,-560.8 96.54,-567.55"/>
<polygon fill="#63b8ff" stroke="#63b8ff" points="151.16,-549.03 159.1,-542.01 148.52,-542.55 151.16,-549.03"/>
</g>
<!-- Node5 -->
<g id="node5" class="node">
<title>Node5</title>
<g id="a_node5"><a xlink:href="a01659.html#adcc786998f220a5b3083ee8a37c4553e" target="_top" xlink:title="applies a JSON patch">
<polygon fill="white" stroke="#666666" points="110.5,-550 0,-550 0,-518 110.5,-518 110.5,-550"/>
<text xml:space="preserve" text-anchor="start" x="8" y="-536.5" font-family="Helvetica,sans-Serif" font-size="10.00">nlohmann::basic_json</text>
<text xml:space="preserve" text-anchor="middle" x="55.25" y="-524.5" font-family="Helvetica,sans-Serif" font-size="10.00">::patch</text>
</a>
</g>
</g>
<!-- Node3&#45;&gt;Node5 -->
<g id="edge5" class="edge">
<title>Node3&#45;&gt;Node5</title>
<path fill="none" stroke="#63b8ff" d="M134.63,-529.12C126.71,-529.61 118.69,-530.11 110.96,-530.59"/>
<polygon fill="#63b8ff" stroke="#63b8ff" points="134.85,-532.61 144.61,-528.5 134.41,-525.63 134.85,-532.61"/>
</g>
<!-- Node4&#45;&gt;Node4 -->
<g id="edge4" class="edge">
<title>Node4&#45;&gt;Node4</title>
<path fill="none" stroke="#63b8ff" d="M79.66,-611.71C75.59,-615.48 67.46,-618 55.25,-618 32.93,-618 24.21,-609.58 29.1,-600.44"/>
<polygon fill="#63b8ff" stroke="#63b8ff" points="83.1,-612.36 81.17,-601.94 76.19,-611.29 83.1,-612.36"/>
</g>
<!-- Node6&#45;&gt;Node5 -->
<g id="edge10" class="edge">
<title>Node6&#45;&gt;Node5</title>
<path fill="none" stroke="#63b8ff" d="M156.25,-487.34C141.69,-494.29 125.42,-502.01 110.5,-509 104.58,-511.77 98.29,-514.69 92.17,-517.52"/>
<polygon fill="#63b8ff" stroke="#63b8ff" points="157.63,-490.56 165.15,-483.09 154.62,-484.24 157.63,-490.56"/>
</g>
<!-- Node7 -->
<g id="node7" class="node">
<title>Node7</title>
<g id="a_node7"><a xlink:href="a01659.html#a1c1f21327df91a4dd6c5f5a107240385" target="_top" xlink:title="creates a diff as a JSON patch">
<polygon fill="white" stroke="#666666" points="110.5,-482 0,-482 0,-450 110.5,-450 110.5,-482"/>
<text xml:space="preserve" text-anchor="start" x="8" y="-468.5" font-family="Helvetica,sans-Serif" font-size="10.00">nlohmann::basic_json</text>
<text xml:space="preserve" text-anchor="middle" x="55.25" y="-456.5" font-family="Helvetica,sans-Serif" font-size="10.00">::diff</text>
</a>
</g>
</g>
<!-- Node6&#45;&gt;Node7 -->
<g id="edge7" class="edge">
<title>Node6&#45;&gt;Node7</title>
<path fill="none" stroke="#63b8ff" d="M134.63,-466C126.71,-466 118.69,-466 110.96,-466"/>
<polygon fill="#63b8ff" stroke="#63b8ff" points="134.61,-469.5 144.61,-466 134.61,-462.5 134.61,-469.5"/>
</g>
<!-- Node8 -->
<g id="node8" class="node">
<title>Node8</title>
<g id="a_node8"><a xlink:href="a01659.html#a9c5b9de8a4a759861cb600b38a6c81b1" target="_top" xlink:title="inserts element">
<polygon fill="white" stroke="#666666" points="110.5,-432 0,-432 0,-400 110.5,-400 110.5,-432"/>
<text xml:space="preserve" text-anchor="start" x="8" y="-418.5" font-family="Helvetica,sans-Serif" font-size="10.00">nlohmann::basic_json</text>
<text xml:space="preserve" text-anchor="middle" x="55.25" y="-406.5" font-family="Helvetica,sans-Serif" font-size="10.00">::insert</text>
</a>
</g>
</g>
<!-- Node6&#45;&gt;Node8 -->
<g id="edge9" class="edge">
<title>Node6&#45;&gt;Node8</title>
<path fill="none" stroke="#63b8ff" d="M142.73,-445.92C129.76,-441.44 116.15,-436.73 103.67,-432.41"/>
<polygon fill="#63b8ff" stroke="#63b8ff" points="141.41,-449.17 152,-449.13 143.7,-442.56 141.41,-449.17"/>
</g>
<!-- Node7&#45;&gt;Node7 -->
<g id="edge8" class="edge">
<title>Node7&#45;&gt;Node7</title>
<path fill="none" stroke="#63b8ff" d="M79.66,-493.71C75.59,-497.48 67.46,-500 55.25,-500 32.93,-500 24.21,-491.58 29.1,-482.44"/>
<polygon fill="#63b8ff" stroke="#63b8ff" points="83.1,-494.36 81.17,-483.94 76.19,-493.29 83.1,-494.36"/>
</g>
<!-- Node11 -->
<g id="node11" class="node">
<title>Node11</title>
<g id="a_node11"><a xlink:href="a02011.html#ab447c50354c6611fa2ae0100ac17845c" target="_top" xlink:title="return the value of an iterator">
<polygon fill="white" stroke="#666666" points="108.62,-382 1.88,-382 1.88,-350 108.62,-350 108.62,-382"/>
<text xml:space="preserve" text-anchor="start" x="9.88" y="-368.5" font-family="Helvetica,sans-Serif" font-size="10.00">nlohmann::detail::iter</text>
<text xml:space="preserve" text-anchor="middle" x="55.25" y="-356.5" font-family="Helvetica,sans-Serif" font-size="10.00">_impl::value</text>
</a>
</g>
</g>
<!-- Node10&#45;&gt;Node11 -->
<g id="edge13" class="edge">
<title>Node10&#45;&gt;Node11</title>
<path fill="none" stroke="#63b8ff" d="M136.94,-366C127.61,-366 118.1,-366 109.03,-366"/>
<polygon fill="#63b8ff" stroke="#63b8ff" points="136.66,-369.5 146.66,-366 136.66,-362.5 136.66,-369.5"/>
</g>
<!-- Node13 -->
<g id="node13" class="node">
<title>Node13</title>
<g id="a_node13"><a xlink:href="a02011.html#af0d52c75e651a915e3dc5cdab71c06bd" target="_top" xlink:title="subtract from iterator">
<polygon fill="white" stroke="#666666" points="108.62,-332 1.88,-332 1.88,-300 108.62,-300 108.62,-332"/>
<text xml:space="preserve" text-anchor="start" x="9.88" y="-318.5" font-family="Helvetica,sans-Serif" font-size="10.00">nlohmann::detail::iter</text>
<text xml:space="preserve" text-anchor="middle" x="55.25" y="-306.5" font-family="Helvetica,sans-Serif" font-size="10.00">_impl::operator&#45;=</text>
</a>
</g>
</g>
<!-- Node12&#45;&gt;Node13 -->
<g id="edge15" class="edge">
<title>Node12&#45;&gt;Node13</title>
<path fill="none" stroke="#63b8ff" d="M136.94,-316C127.61,-316 118.1,-316 109.03,-316"/>
<polygon fill="#63b8ff" stroke="#63b8ff" points="136.66,-319.5 146.66,-316 136.66,-312.5 136.66,-319.5"/>
</g>
<!-- Node17 -->
<g id="node17" class="node">
<title>Node17</title>
<g id="a_node17"><a xlink:href="a02011.html#a634f85da575cb60b012a687efa26e11a" target="_top" xlink:title="comparison: greater than or equal">
<polygon fill="white" stroke="#666666" points="108.62,-182 1.88,-182 1.88,-150 108.62,-150 108.62,-182"/>
<text xml:space="preserve" text-anchor="start" x="9.88" y="-168.5" font-family="Helvetica,sans-Serif" font-size="10.00">nlohmann::detail::iter</text>
<text xml:space="preserve" text-anchor="middle" x="55.25" y="-156.5" font-family="Helvetica,sans-Serif" font-size="10.00">_impl::operator&gt;=</text>
</a>
</g>
</g>
<!-- Node16&#45;&gt;Node17 -->
<g id="edge19" class="edge">
<title>Node16&#45;&gt;Node17</title>
<path fill="none" stroke="#63b8ff" d="M136.94,-166C127.61,-166 118.1,-166 109.03,-166"/>
<polygon fill="#63b8ff" stroke="#63b8ff" points="136.66,-169.5 146.66,-166 136.66,-162.5 136.66,-169.5"/>
</g>
<!-- Node19 -->
<g id="node19" class="node">
<title>Node19</title>
<g id="a_node19"><a xlink:href="a02011.html#aeab0e2b5da70b3bdebecd5b1a6ee66a6" target="_top" xlink:title="comparison: not equal">
<polygon fill="white" stroke="#666666" points="108.62,-132 1.88,-132 1.88,-100 108.62,-100 108.62,-132"/>
<text xml:space="preserve" text-anchor="start" x="9.88" y="-118.5" font-family="Helvetica,sans-Serif" font-size="10.00">nlohmann::detail::iter</text>
<text xml:space="preserve" text-anchor="middle" x="55.25" y="-106.5" font-family="Helvetica,sans-Serif" font-size="10.00">_impl::operator!=</text>
</a>
</g>
</g>
<!-- Node18&#45;&gt;Node19 -->
<g id="edge21" class="edge">
<title>Node18&#45;&gt;Node19</title>
<path fill="none" stroke="#63b8ff" d="M136.94,-116C127.61,-116 118.1,-116 109.03,-116"/>
<polygon fill="#63b8ff" stroke="#63b8ff" points="136.66,-119.5 146.66,-116 136.66,-112.5 136.66,-119.5"/>
</g>
</g>
</svg>
