<?xml version="1.0" encoding="UTF-8" standalone="no"?>
<!DOCTYPE svg PUBLIC "-//W3C//DTD SVG 1.1//EN"
 "http://www.w3.org/Graphics/SVG/1.1/DTD/svg11.dtd">
<!-- Generated by graphviz version 13.1.2 (20250808.2320)
 -->
<!-- Title: HF::SpatialStructures::Graph::addEdge Pages: 1 -->
<svg width="813pt" height="216pt"
 viewBox="0.00 0.00 813.00 216.00" xmlns="http://www.w3.org/2000/svg" xmlns:xlink="http://www.w3.org/1999/xlink">
<g id="graph0" class="graph" transform="scale(1 1) rotate(0) translate(4 212)">
<title>HF::SpatialStructures::Graph::addEdge</title>
<!-- Node1 -->
<g id="node1" class="node">
<title>Node1</title>
<g id="a_node1"><a xlink:title="Add a new edge to the graph from parent to child.">
<polygon fill="#999999" stroke="#666666" points="805.25,-138 694.75,-138 694.75,-106 805.25,-106 805.25,-138"/>
<text xml:space="preserve" text-anchor="start" x="702.75" y="-124.5" font-family="Helvetica,sans-Serif" font-size="10.00">HF::SpatialStructures</text>
<text xml:space="preserve" text-anchor="middle" x="750" y="-112.5" font-family="Helvetica,sans-Serif" font-size="10.00">::Graph::addEdge</text>
</a>
</g>
</g>
<!-- Node2 -->
<g id="node2" class="node">
<title>Node2</title>
<g id="a_node2"><a xlink:href="a00458.html#ga02213608939a85d5165da6c0a47c113b" target="_top" xlink:title="Create a new edge between parent_id and child_id. If these IDs do not exist in the graph,...">
<polygon fill="white" stroke="#666666" points="643,-208 525.75,-208 525.75,-188 643,-188 643,-208"/>
<text xml:space="preserve" text-anchor="middle" x="584.38" y="-194.5" font-family="Helvetica,sans-Serif" font-size="10.00">AddEdgeFromNodeIDs</text>
</a>
</g>
</g>
<!-- Node1&#45;&gt;Node2 -->
<g id="edge1" class="edge">
<title>Node1&#45;&gt;Node2</title>
<path fill="none" stroke="#63b8ff" d="M718.12,-144.87C701.28,-156.46 679.65,-169.96 658.75,-179 651.02,-182.34 642.57,-185.2 634.24,-187.61"/>
<polygon fill="#63b8ff" stroke="#63b8ff" points="720.04,-147.8 726.21,-139.19 716.01,-142.08 720.04,-147.8"/>
</g>
<!-- Node3 -->
<g id="node3" class="node">
<title>Node3</title>
<g id="a_node3"><a xlink:href="a00458.html#ga43f715ce7f57fb92e78f8f6e90b84baf" target="_top" xlink:title="Add an edge between parent and child. If parent or child does not already exist in the graph,...">
<polygon fill="white" stroke="#666666" points="637.75,-170 531,-170 531,-150 637.75,-150 637.75,-170"/>
<text xml:space="preserve" text-anchor="middle" x="584.38" y="-156.5" font-family="Helvetica,sans-Serif" font-size="10.00">AddEdgeFromNodes</text>
</a>
</g>
</g>
<!-- Node1&#45;&gt;Node3 -->
<g id="edge2" class="edge">
<title>Node1&#45;&gt;Node3</title>
<path fill="none" stroke="#63b8ff" d="M683.32,-137.25C665.54,-141.38 646.71,-145.76 630.36,-149.55"/>
<polygon fill="#63b8ff" stroke="#63b8ff" points="684.09,-140.67 693.04,-135 682.51,-133.85 684.09,-140.67"/>
</g>
<!-- Node4 -->
<g id="node4" class="node">
<title>Node4</title>
<g id="a_node4"><a xlink:href="a00458.html#gaa1aab878001ed3842f34a46ef62e7d30" target="_top" xlink:title="Add an edge between parent and child. If parent or child does not already exist in the graph,...">
<polygon fill="white" stroke="#666666" points="650.88,-132 517.88,-132 517.88,-112 650.88,-112 650.88,-132"/>
<text xml:space="preserve" text-anchor="middle" x="584.38" y="-118.5" font-family="Helvetica,sans-Serif" font-size="10.00">AddEdgeFromNodeStructs</text>
</a>
</g>
</g>
<!-- Node1&#45;&gt;Node4 -->
<g id="edge3" class="edge">
<title>Node1&#45;&gt;Node4</title>
<path fill="none" stroke="#63b8ff" d="M683.26,-122C672.73,-122 661.82,-122 651.28,-122"/>
<polygon fill="#63b8ff" stroke="#63b8ff" points="683,-125.5 693,-122 683,-118.5 683,-125.5"/>
</g>
<!-- Node5 -->
<g id="node5" class="node">
<title>Node5</title>
<g id="a_node5"><a xlink:href="a01311.html#ac7052d4b625fb96f29c5bfc091a86f7e" target="_top" xlink:title="Perform breadth first search to populate the graph with with nodes and edges.">
<polygon fill="white" stroke="#666666" points="658.75,-94 510,-94 510,-62 658.75,-62 658.75,-94"/>
<text xml:space="preserve" text-anchor="start" x="518" y="-80.5" font-family="Helvetica,sans-Serif" font-size="10.00">HF::GraphGenerator</text>
<text xml:space="preserve" text-anchor="middle" x="584.38" y="-68.5" font-family="Helvetica,sans-Serif" font-size="10.00">::GraphGenerator::CrawlGeom</text>
</a>
</g>
</g>
<!-- Node1&#45;&gt;Node5 -->
<g id="edge4" class="edge">
<title>Node1&#45;&gt;Node5</title>
<path fill="none" stroke="#63b8ff" d="M683.52,-104.39C671.37,-101.12 658.71,-97.72 646.68,-94.49"/>
<polygon fill="#63b8ff" stroke="#63b8ff" points="682.49,-107.74 693.05,-106.96 684.31,-100.98 682.49,-107.74"/>
</g>
<!-- Node10 -->
<g id="node10" class="node">
<title>Node10</title>
<g id="a_node10"><a xlink:href="a01311.html#a843cc6b5b69b5d013930b3685789fa15" target="_top" xlink:title="Perform breadth first search to populate the graph with nodes and edges using multiple cores.">
<polygon fill="white" stroke="#666666" points="658.75,-44 510,-44 510,0 658.75,0 658.75,-44"/>
<text xml:space="preserve" text-anchor="start" x="518" y="-30.5" font-family="Helvetica,sans-Serif" font-size="10.00">HF::GraphGenerator</text>
<text xml:space="preserve" text-anchor="start" x="518" y="-18.5" font-family="Helvetica,sans-Serif" font-size="10.00">::GraphGenerator::CrawlGeom</text>
<text xml:space="preserve" text-anchor="middle" x="584.38" y="-6.5" font-family="Helvetica,sans-Serif" font-size="10.00">Parallel</text>
</a>
</g>
</g>
<!-- Node1&#45;&gt;Node10 -->
<g id="edge9" class="edge">
<title>Node1&#45;&gt;Node10</title>
<path fill="none" stroke="#63b8ff" d="M722.17,-98.59C704.85,-84.24 681.41,-66.16 658.75,-53 653.61,-50.01 648.12,-47.16 642.56,-44.47"/>
<polygon fill="#63b8ff" stroke="#63b8ff" points="719.56,-100.98 729.47,-104.74 724.07,-95.62 719.56,-100.98"/>
</g>
<!-- Node6 -->
<g id="node6" class="node">
<title>Node6</title>
<g id="a_node6"><a xlink:href="a01311.html#a5788e421d921ec0ff27defc139c45106" target="_top" xlink:title="Generate a graph of accessible space.">
<polygon fill="white" stroke="#666666" points="474,-72 353.75,-72 353.75,-28 474,-28 474,-72"/>
<text xml:space="preserve" text-anchor="start" x="361.75" y="-58.5" font-family="Helvetica,sans-Serif" font-size="10.00">HF::GraphGenerator</text>
<text xml:space="preserve" text-anchor="start" x="361.75" y="-46.5" font-family="Helvetica,sans-Serif" font-size="10.00">::GraphGenerator::IMPL</text>
<text xml:space="preserve" text-anchor="middle" x="413.88" y="-34.5" font-family="Helvetica,sans-Serif" font-size="10.00">_BuildNetwork</text>
</a>
</g>
</g>
<!-- Node5&#45;&gt;Node6 -->
<g id="edge5" class="edge">
<title>Node5&#45;&gt;Node6</title>
<path fill="none" stroke="#63b8ff" d="M498.76,-63.94C490.53,-62.57 482.3,-61.2 474.4,-59.89"/>
<polygon fill="#63b8ff" stroke="#63b8ff" points="498.03,-67.37 508.47,-65.55 499.17,-60.46 498.03,-67.37"/>
</g>
<!-- Node7 -->
<g id="node7" class="node">
<title>Node7</title>
<g id="a_node7"><a xlink:href="a01311.html#a0c12341433bbec41cc12cc1dbb41a976" target="_top" xlink:title="Generate a graph of accessible space.">
<polygon fill="white" stroke="#666666" points="317.75,-66 162.25,-66 162.25,-34 317.75,-34 317.75,-66"/>
<text xml:space="preserve" text-anchor="start" x="170.25" y="-52.5" font-family="Helvetica,sans-Serif" font-size="10.00">HF::GraphGenerator</text>
<text xml:space="preserve" text-anchor="middle" x="240" y="-40.5" font-family="Helvetica,sans-Serif" font-size="10.00">::GraphGenerator::BuildNetwork</text>
</a>
</g>
</g>
<!-- Node6&#45;&gt;Node7 -->
<g id="edge6" class="edge">
<title>Node6&#45;&gt;Node7</title>
<path fill="none" stroke="#63b8ff" d="M342.25,-50C334.31,-50 326.19,-50 318.17,-50"/>
<polygon fill="#63b8ff" stroke="#63b8ff" points="342.21,-53.5 352.21,-50 342.21,-46.5 342.21,-53.5"/>
</g>
<!-- Node8 -->
<g id="node8" class="node">
<title>Node8</title>
<g id="a_node8"><a xlink:href="a00454.html#ga2df84a732d1edfb70b7bd26d3282e129" target="_top" xlink:title="Construct a graph by performing a breadth&#45;first search of accessible space.">
<polygon fill="white" stroke="#666666" points="104.12,-79 22.12,-79 22.12,-59 104.12,-59 104.12,-79"/>
<text xml:space="preserve" text-anchor="middle" x="63.12" y="-65.5" font-family="Helvetica,sans-Serif" font-size="10.00">GenerateGraph</text>
</a>
</g>
</g>
<!-- Node7&#45;&gt;Node8 -->
<g id="edge7" class="edge">
<title>Node7&#45;&gt;Node8</title>
<path fill="none" stroke="#63b8ff" d="M150.62,-59.6C134.47,-61.36 118.36,-63.11 104.49,-64.61"/>
<polygon fill="#63b8ff" stroke="#63b8ff" points="150.72,-63.11 160.28,-58.55 149.96,-56.15 150.72,-63.11"/>
</g>
<!-- Node9 -->
<g id="node9" class="node">
<title>Node9</title>
<g id="a_node9"><a xlink:href="a00454.html#gab9f58e3ecc686fa9bc34519b0faed734" target="_top" xlink:title="Construct a graph by performing a breadth&#45;first search of accessible space, seperating obstacles from...">
<polygon fill="white" stroke="#666666" points="126.25,-41 0,-41 0,-21 126.25,-21 126.25,-41"/>
<text xml:space="preserve" text-anchor="middle" x="63.12" y="-27.5" font-family="Helvetica,sans-Serif" font-size="10.00">GenerateGraphObstacles</text>
</a>
</g>
</g>
<!-- Node7&#45;&gt;Node9 -->
<g id="edge8" class="edge">
<title>Node7&#45;&gt;Node9</title>
<path fill="none" stroke="#63b8ff" d="M150.4,-40.37C142.33,-39.5 134.27,-38.62 126.5,-37.78"/>
<polygon fill="#63b8ff" stroke="#63b8ff" points="149.96,-43.85 160.28,-41.45 150.72,-36.89 149.96,-43.85"/>
</g>
<!-- Node10&#45;&gt;Node6 -->
<g id="edge10" class="edge">
<title>Node10&#45;&gt;Node6</title>
<path fill="none" stroke="#63b8ff" d="M498.76,-36.06C490.53,-37.43 482.3,-38.8 474.4,-40.11"/>
<polygon fill="#63b8ff" stroke="#63b8ff" points="499.17,-39.54 508.47,-34.45 498.03,-32.63 499.17,-39.54"/>
</g>
</g>
</svg>
