<?xml version="1.0" encoding="UTF-8" standalone="no"?>
<!DOCTYPE svg PUBLIC "-//W3C//DTD SVG 1.1//EN"
 "http://www.w3.org/Graphics/SVG/1.1/DTD/svg11.dtd">
<!-- Generated by graphviz version 13.1.2 (20250808.2320)
 -->
<!-- Title: HF::SpatialStructures::Graph::size Pages: 1 -->
<svg width="467pt" height="228pt"
 viewBox="0.00 0.00 467.00 228.00" xmlns="http://www.w3.org/2000/svg" xmlns:xlink="http://www.w3.org/1999/xlink">
<g id="graph0" class="graph" transform="scale(1 1) rotate(0) translate(4 224)">
<title>HF::SpatialStructures::Graph::size</title>
<!-- Node1 -->
<g id="node1" class="node">
<title>Node1</title>
<g id="a_node1"><a xlink:title="Determine how many nodes are in the graph.">
<polygon fill="#999999" stroke="#666666" points="459,-120 348.5,-120 348.5,-88 459,-88 459,-120"/>
<text xml:space="preserve" text-anchor="start" x="356.5" y="-106.5" font-family="Helvetica,sans-Serif" font-size="10.00">HF::SpatialStructures</text>
<text xml:space="preserve" text-anchor="middle" x="403.75" y="-94.5" font-family="Helvetica,sans-Serif" font-size="10.00">::Graph::size</text>
</a>
</g>
</g>
<!-- Node2 -->
<g id="node2" class="node">
<title>Node2</title>
<g id="a_node2"><a xlink:href="a01383.html#ac7878a25105aec59a116942a717d71b4" target="_top" xlink:title="Create a boost graph from a HF::SpatialStructures::Graph.">
<polygon fill="white" stroke="#666666" points="312.5,-220 170.5,-220 170.5,-188 312.5,-188 312.5,-220"/>
<text xml:space="preserve" text-anchor="start" x="178.5" y="-206.5" font-family="Helvetica,sans-Serif" font-size="10.00">HF::Pathfinding::BoostGraph</text>
<text xml:space="preserve" text-anchor="middle" x="241.5" y="-194.5" font-family="Helvetica,sans-Serif" font-size="10.00">::BoostGraph</text>
</a>
</g>
</g>
<!-- Node1&#45;&gt;Node2 -->
<g id="edge1" class="edge">
<title>Node1&#45;&gt;Node2</title>
<path fill="none" stroke="#63b8ff" d="M378.92,-127.81C361.67,-144 337.14,-164.95 312.5,-179 307.01,-182.13 301.05,-184.98 295.01,-187.54"/>
<polygon fill="#63b8ff" stroke="#63b8ff" points="380.88,-130.79 385.68,-121.34 376.04,-125.73 380.88,-130.79"/>
</g>
<!-- Node3 -->
<g id="node3" class="node">
<title>Node3</title>
<g id="a_node3"><a xlink:href="a00467.html#a12eb1e4c06400c4625cd22d925927b03" target="_top" xlink:title="Generate a Visibility Graph between every node in a set of nodes in parallel.">
<polygon fill="white" stroke="#666666" points="290.75,-170 192.25,-170 192.25,-138 290.75,-138 290.75,-170"/>
<text xml:space="preserve" text-anchor="start" x="200.25" y="-156.5" font-family="Helvetica,sans-Serif" font-size="10.00">HF::VisibilityGraph</text>
<text xml:space="preserve" text-anchor="middle" x="241.5" y="-144.5" font-family="Helvetica,sans-Serif" font-size="10.00">::AllToAll</text>
</a>
</g>
</g>
<!-- Node1&#45;&gt;Node3 -->
<g id="edge2" class="edge">
<title>Node1&#45;&gt;Node3</title>
<path fill="none" stroke="#63b8ff" d="M339.33,-123.79C323.25,-128.81 306.23,-134.12 291.02,-138.86"/>
<polygon fill="#63b8ff" stroke="#63b8ff" points="340.33,-127.14 348.83,-120.82 338.24,-120.46 340.33,-127.14"/>
</g>
<!-- Node5 -->
<g id="node5" class="node">
<title>Node5</title>
<g id="a_node5"><a xlink:href="a00467.html#ab1db87927118f70786a664c3b3cc7905" target="_top" xlink:title="Generate a Visibility Graph with every edge stored twice.">
<polygon fill="white" stroke="#666666" points="292.62,-120 190.38,-120 190.38,-88 292.62,-88 292.62,-120"/>
<text xml:space="preserve" text-anchor="start" x="198.38" y="-106.5" font-family="Helvetica,sans-Serif" font-size="10.00">HF::VisibilityGraph</text>
<text xml:space="preserve" text-anchor="middle" x="241.5" y="-94.5" font-family="Helvetica,sans-Serif" font-size="10.00">::AllToAllUndirected</text>
</a>
</g>
</g>
<!-- Node1&#45;&gt;Node5 -->
<g id="edge4" class="edge">
<title>Node1&#45;&gt;Node5</title>
<path fill="none" stroke="#63b8ff" d="M336.97,-104C322.26,-104 306.88,-104 292.91,-104"/>
<polygon fill="#63b8ff" stroke="#63b8ff" points="336.54,-107.5 346.54,-104 336.54,-100.5 336.54,-107.5"/>
</g>
<!-- Node7 -->
<g id="node7" class="node">
<title>Node7</title>
<g id="a_node7"><a xlink:href="a00458.html#ga5bbc8687b0d04c0f177fbb8385302a56" target="_top" xlink:title="Get the number of nodes in a graph.">
<polygon fill="white" stroke="#666666" points="285.5,-70 197.5,-70 197.5,-50 285.5,-50 285.5,-70"/>
<text xml:space="preserve" text-anchor="middle" x="241.5" y="-56.5" font-family="Helvetica,sans-Serif" font-size="10.00">GetSizeOfGraph</text>
</a>
</g>
</g>
<!-- Node1&#45;&gt;Node7 -->
<g id="edge6" class="edge">
<title>Node1&#45;&gt;Node7</title>
<path fill="none" stroke="#63b8ff" d="M337.42,-85.86C329.04,-83.55 320.57,-81.21 312.5,-79 302.3,-76.2 291.26,-73.2 281.02,-70.42"/>
<polygon fill="#63b8ff" stroke="#63b8ff" points="336.33,-89.19 346.9,-88.48 338.19,-82.44 336.33,-89.19"/>
</g>
<!-- Node8 -->
<g id="node8" class="node">
<title>Node8</title>
<g id="a_node8"><a xlink:href="a00467.html#ae42a5aafdfcc29b6a668355c07602efb" target="_top" xlink:title="Generate a Visibility Graph from a set of nodes to another set of nodes.">
<polygon fill="white" stroke="#666666" points="290.75,-32 192.25,-32 192.25,0 290.75,0 290.75,-32"/>
<text xml:space="preserve" text-anchor="start" x="200.25" y="-18.5" font-family="Helvetica,sans-Serif" font-size="10.00">HF::VisibilityGraph</text>
<text xml:space="preserve" text-anchor="middle" x="241.5" y="-6.5" font-family="Helvetica,sans-Serif" font-size="10.00">::GroupToGroup</text>
</a>
</g>
</g>
<!-- Node1&#45;&gt;Node8 -->
<g id="edge7" class="edge">
<title>Node1&#45;&gt;Node8</title>
<path fill="none" stroke="#63b8ff" d="M373.69,-80.73C356.59,-67.82 334.14,-52.16 312.5,-41 305.73,-37.51 298.37,-34.3 291.04,-31.43"/>
<polygon fill="#63b8ff" stroke="#63b8ff" points="371.34,-83.33 381.4,-86.65 375.6,-77.78 371.34,-83.33"/>
</g>
<!-- Node4 -->
<g id="node4" class="node">
<title>Node4</title>
<g id="a_node4"><a xlink:href="a00460.html#ga0255e6c4811298e61110adc64c0f8acd" target="_top" xlink:title="Create a new directed visibility graph between all nodes in parameter nodes.">
<polygon fill="white" stroke="#666666" points="127,-170 7.5,-170 7.5,-138 127,-138 127,-170"/>
<text xml:space="preserve" text-anchor="start" x="15.5" y="-156.5" font-family="Helvetica,sans-Serif" font-size="10.00">CreateVisibilityGraphAll</text>
<text xml:space="preserve" text-anchor="middle" x="67.25" y="-144.5" font-family="Helvetica,sans-Serif" font-size="10.00">ToAll</text>
</a>
</g>
</g>
<!-- Node3&#45;&gt;Node4 -->
<g id="edge3" class="edge">
<title>Node3&#45;&gt;Node4</title>
<path fill="none" stroke="#63b8ff" d="M180.93,-154C163.59,-154 144.66,-154 127.35,-154"/>
<polygon fill="#63b8ff" stroke="#63b8ff" points="180.55,-157.5 190.55,-154 180.55,-150.5 180.55,-157.5"/>
</g>
<!-- Node6 -->
<g id="node6" class="node">
<title>Node6</title>
<g id="a_node6"><a xlink:href="a00460.html#ga9b0664a60bcdf276b0fe0a2023b3d9b8" target="_top" xlink:title="Create a new undirected visibility graph between all nodes in nodes.">
<polygon fill="white" stroke="#666666" points="127,-120 7.5,-120 7.5,-88 127,-88 127,-120"/>
<text xml:space="preserve" text-anchor="start" x="15.5" y="-106.5" font-family="Helvetica,sans-Serif" font-size="10.00">CreateVisibilityGraphAll</text>
<text xml:space="preserve" text-anchor="middle" x="67.25" y="-94.5" font-family="Helvetica,sans-Serif" font-size="10.00">ToAllUndirected</text>
</a>
</g>
</g>
<!-- Node5&#45;&gt;Node6 -->
<g id="edge5" class="edge">
<title>Node5&#45;&gt;Node6</title>
<path fill="none" stroke="#63b8ff" d="M178.87,-104C162.12,-104 144.03,-104 127.42,-104"/>
<polygon fill="#63b8ff" stroke="#63b8ff" points="178.7,-107.5 188.7,-104 178.7,-100.5 178.7,-107.5"/>
</g>
<!-- Node9 -->
<g id="node9" class="node">
<title>Node9</title>
<g id="a_node9"><a xlink:href="a00460.html#gaf2e404cb696aee3473cac0d1507576d8" target="_top" xlink:title="Create a new visibility graph from the nodes in group_a, into the nodes of group_b.">
<polygon fill="white" stroke="#666666" points="134.5,-32 0,-32 0,0 134.5,0 134.5,-32"/>
<text xml:space="preserve" text-anchor="start" x="8" y="-18.5" font-family="Helvetica,sans-Serif" font-size="10.00">CreateVisibilityGraphGroup</text>
<text xml:space="preserve" text-anchor="middle" x="67.25" y="-6.5" font-family="Helvetica,sans-Serif" font-size="10.00">ToGroup</text>
</a>
</g>
</g>
<!-- Node8&#45;&gt;Node9 -->
<g id="edge8" class="edge">
<title>Node8&#45;&gt;Node9</title>
<path fill="none" stroke="#63b8ff" d="M180.97,-16C166.13,-16 150.12,-16 134.96,-16"/>
<polygon fill="#63b8ff" stroke="#63b8ff" points="180.55,-19.5 190.55,-16 180.55,-12.5 180.55,-19.5"/>
</g>
</g>
</svg>
