<?xml version="1.0" encoding="UTF-8" standalone="no"?>
<!DOCTYPE svg PUBLIC "-//W3C//DTD SVG 1.1//EN"
 "http://www.w3.org/Graphics/SVG/1.1/DTD/svg11.dtd">
<!-- Generated by graphviz version 13.1.2 (20250808.2320)
 -->
<!-- Title: HF::SpatialStructures::EdgeCostSet::size Pages: 1 -->
<svg width="493pt" height="90pt"
 viewBox="0.00 0.00 493.00 90.00" xmlns="http://www.w3.org/2000/svg" xmlns:xlink="http://www.w3.org/1999/xlink">
<g id="graph0" class="graph" transform="scale(1 1) rotate(0) translate(4 86)">
<title>HF::SpatialStructures::EdgeCostSet::size</title>
<!-- Node1 -->
<g id="node1" class="node">
<title>Node1</title>
<g id="a_node1"><a xlink:title="Get the size of this edge matrix.">
<polygon fill="#999999" stroke="#666666" points="484.5,-57 374,-57 374,-25 484.5,-25 484.5,-57"/>
<text xml:space="preserve" text-anchor="start" x="382" y="-43.5" font-family="Helvetica,sans-Serif" font-size="10.00">HF::SpatialStructures</text>
<text xml:space="preserve" text-anchor="middle" x="429.25" y="-31.5" font-family="Helvetica,sans-Serif" font-size="10.00">::EdgeCostSet::size</text>
</a>
</g>
</g>
<!-- Node2 -->
<g id="node2" class="node">
<title>Node2</title>
<g id="a_node2"><a xlink:href="a01547.html#a4b139518bc0939554df19e83c8e0b916" target="_top" xlink:title=" ">
<polygon fill="white" stroke="#666666" points="334.25,-82 184.75,-82 184.75,-50 334.25,-50 334.25,-82"/>
<text xml:space="preserve" text-anchor="start" x="192.75" y="-68.5" font-family="Helvetica,sans-Serif" font-size="10.00">HF::SpatialStructures</text>
<text xml:space="preserve" text-anchor="middle" x="259.5" y="-56.5" font-family="Helvetica,sans-Serif" font-size="10.00">::EdgeCostSet::bounds_check</text>
</a>
</g>
</g>
<!-- Node1&#45;&gt;Node2 -->
<g id="edge1" class="edge">
<title>Node1&#45;&gt;Node2</title>
<path fill="none" stroke="#63b8ff" d="M362.7,-50.77C353.46,-52.15 343.9,-53.57 334.51,-54.97"/>
<polygon fill="#63b8ff" stroke="#63b8ff" points="362.91,-54.28 372.29,-49.34 361.88,-47.35 362.91,-54.28"/>
</g>
<!-- Node4 -->
<g id="node4" class="node">
<title>Node4</title>
<g id="a_node4"><a xlink:href="a01547.html#a22bf925d64a8ab8c0920d668068dc3db" target="_top" xlink:title="Resize this edge matrix if needed.">
<polygon fill="white" stroke="#666666" points="338,-32 181,-32 181,0 338,0 338,-32"/>
<text xml:space="preserve" text-anchor="start" x="189" y="-18.5" font-family="Helvetica,sans-Serif" font-size="10.00">HF::SpatialStructures</text>
<text xml:space="preserve" text-anchor="middle" x="259.5" y="-6.5" font-family="Helvetica,sans-Serif" font-size="10.00">::EdgeCostSet::ResizeIfNeeded</text>
</a>
</g>
</g>
<!-- Node1&#45;&gt;Node4 -->
<g id="edge3" class="edge">
<title>Node1&#45;&gt;Node4</title>
<path fill="none" stroke="#63b8ff" d="M362.45,-31.19C354.57,-30.02 346.48,-28.81 338.45,-27.62"/>
<polygon fill="#63b8ff" stroke="#63b8ff" points="361.88,-34.65 372.29,-32.66 362.91,-27.72 361.88,-34.65"/>
</g>
<!-- Node3 -->
<g id="node3" class="node">
<title>Node3</title>
<g id="a_node3"><a xlink:href="a01547.html#a383475da303d0b59bedfa2a83f1487b4" target="_top" xlink:title="Index internal values array.">
<polygon fill="white" stroke="#666666" points="136.38,-82 8.62,-82 8.62,-50 136.38,-50 136.38,-82"/>
<text xml:space="preserve" text-anchor="start" x="16.62" y="-68.5" font-family="Helvetica,sans-Serif" font-size="10.00">HF::SpatialStructures</text>
<text xml:space="preserve" text-anchor="middle" x="72.5" y="-56.5" font-family="Helvetica,sans-Serif" font-size="10.00">::EdgeCostSet::operator[]</text>
</a>
</g>
</g>
<!-- Node2&#45;&gt;Node3 -->
<g id="edge2" class="edge">
<title>Node2&#45;&gt;Node3</title>
<path fill="none" stroke="#63b8ff" d="M173.13,-66C160.86,-66 148.42,-66 136.69,-66"/>
<polygon fill="#63b8ff" stroke="#63b8ff" points="172.81,-69.5 182.81,-66 172.81,-62.5 172.81,-69.5"/>
</g>
<!-- Node5 -->
<g id="node5" class="node">
<title>Node5</title>
<g id="a_node5"><a xlink:href="a01547.html#a292cb98e857b8ae2606395ed57ebcec8" target="_top" xlink:title="Create an edge cost set and allocate a specific size.">
<polygon fill="white" stroke="#666666" points="145,-32 0,-32 0,0 145,0 145,-32"/>
<text xml:space="preserve" text-anchor="start" x="8" y="-18.5" font-family="Helvetica,sans-Serif" font-size="10.00">HF::SpatialStructures</text>
<text xml:space="preserve" text-anchor="middle" x="72.5" y="-6.5" font-family="Helvetica,sans-Serif" font-size="10.00">::EdgeCostSet::EdgeCostSet</text>
</a>
</g>
</g>
<!-- Node4&#45;&gt;Node5 -->
<g id="edge4" class="edge">
<title>Node4&#45;&gt;Node5</title>
<path fill="none" stroke="#63b8ff" d="M169.31,-16C161.31,-16 153.27,-16 145.44,-16"/>
<polygon fill="#63b8ff" stroke="#63b8ff" points="169.07,-19.5 179.07,-16 169.07,-12.5 169.07,-19.5"/>
</g>
</g>
</svg>
