<?xml version="1.0" encoding="UTF-8" standalone="no"?>
<!DOCTYPE svg PUBLIC "-//W3C//DTD SVG 1.1//EN"
 "http://www.w3.org/Graphics/SVG/1.1/DTD/svg11.dtd">
<!-- Generated by graphviz version 13.1.2 (20250808.2320)
 -->
<!-- Title: HF::SpatialStructures::EdgeCostSet::EdgeCostSet Pages: 1 -->
<svg width="493pt" height="40pt"
 viewBox="0.00 0.00 493.00 40.00" xmlns="http://www.w3.org/2000/svg" xmlns:xlink="http://www.w3.org/1999/xlink">
<g id="graph0" class="graph" transform="scale(1 1) rotate(0) translate(4 36)">
<title>HF::SpatialStructures::EdgeCostSet::EdgeCostSet</title>
<!-- Node1 -->
<g id="node1" class="node">
<title>Node1</title>
<g id="a_node1"><a xlink:title="Create an edge cost set and allocate a specific size.">
<polygon fill="#999999" stroke="#666666" points="145,-32 0,-32 0,0 145,0 145,-32"/>
<text xml:space="preserve" text-anchor="start" x="8" y="-18.5" font-family="Helvetica,sans-Serif" font-size="10.00">HF::SpatialStructures</text>
<text xml:space="preserve" text-anchor="middle" x="72.5" y="-6.5" font-family="Helvetica,sans-Serif" font-size="10.00">::EdgeCostSet::EdgeCostSet</text>
</a>
</g>
</g>
<!-- Node2 -->
<g id="node2" class="node">
<title>Node2</title>
<g id="a_node2"><a xlink:href="a01547.html#a22bf925d64a8ab8c0920d668068dc3db" target="_top" xlink:title="Resize this edge matrix if needed.">
<polygon fill="white" stroke="#666666" points="338,-32 181,-32 181,0 338,0 338,-32"/>
<text xml:space="preserve" text-anchor="start" x="189" y="-18.5" font-family="Helvetica,sans-Serif" font-size="10.00">HF::SpatialStructures</text>
<text xml:space="preserve" text-anchor="middle" x="259.5" y="-6.5" font-family="Helvetica,sans-Serif" font-size="10.00">::EdgeCostSet::ResizeIfNeeded</text>
</a>
</g>
</g>
<!-- Node1&#45;&gt;Node2 -->
<g id="edge1" class="edge">
<title>Node1&#45;&gt;Node2</title>
<path fill="none" stroke="#63b8ff" d="M145.29,-16C153.16,-16 161.24,-16 169.29,-16"/>
<polygon fill="#63b8ff" stroke="#63b8ff" points="169.1,-19.5 179.1,-16 169.1,-12.5 169.1,-19.5"/>
</g>
<!-- Node3 -->
<g id="node3" class="node">
<title>Node3</title>
<g id="a_node3"><a xlink:href="a01547.html#abc5ff8ee3175dca75cacbfbd592907db" target="_top" xlink:title="Get the size of this edge matrix.">
<polygon fill="white" stroke="#666666" points="484.5,-32 374,-32 374,0 484.5,0 484.5,-32"/>
<text xml:space="preserve" text-anchor="start" x="382" y="-18.5" font-family="Helvetica,sans-Serif" font-size="10.00">HF::SpatialStructures</text>
<text xml:space="preserve" text-anchor="middle" x="429.25" y="-6.5" font-family="Helvetica,sans-Serif" font-size="10.00">::EdgeCostSet::size</text>
</a>
</g>
</g>
<!-- Node2&#45;&gt;Node3 -->
<g id="edge2" class="edge">
<title>Node2&#45;&gt;Node3</title>
<path fill="none" stroke="#63b8ff" d="M338.48,-16C346.53,-16 354.65,-16 362.55,-16"/>
<polygon fill="#63b8ff" stroke="#63b8ff" points="362.4,-19.5 372.4,-16 362.4,-12.5 362.4,-19.5"/>
</g>
</g>
</svg>
