<?xml version="1.0" encoding="UTF-8" standalone="no"?>
<!DOCTYPE svg PUBLIC "-//W3C//DTD SVG 1.1//EN"
 "http://www.w3.org/Graphics/SVG/1.1/DTD/svg11.dtd">
<!-- Generated by graphviz version 13.1.2 (20250808.2320)
 -->
<!-- Title: nlohmann::detail::out_of_range::create Pages: 1 -->
<svg width="1531pt" height="828pt"
 viewBox="0.00 0.00 1531.00 828.00" xmlns="http://www.w3.org/2000/svg" xmlns:xlink="http://www.w3.org/1999/xlink">
<g id="graph0" class="graph" transform="scale(1 1) rotate(0) translate(4 824)">
<title>nlohmann::detail::out_of_range::create</title>
<!-- Node1 -->
<g id="node1" class="node">
<title>Node1</title>
<g id="a_node1"><a xlink:title=" ">
<polygon fill="#999999" stroke="#666666" points="1523.25,-446 1416.5,-446 1416.5,-414 1523.25,-414 1523.25,-446"/>
<text xml:space="preserve" text-anchor="start" x="1424.5" y="-432.5" font-family="Helvetica,sans-Serif" font-size="10.00">nlohmann::detail::out</text>
<text xml:space="preserve" text-anchor="middle" x="1469.88" y="-420.5" font-family="Helvetica,sans-Serif" font-size="10.00">_of_range::create</text>
</a>
</g>
</g>
<!-- Node2 -->
<g id="node2" class="node">
<title>Node2</title>
<g id="a_node2"><a xlink:href="a01663.html#ae28e4b79b9d4fac9e6dca29f47f946fa" target="_top" xlink:title=" ">
<polygon fill="white" stroke="#666666" points="1365.88,-758 1249.38,-758 1249.38,-726 1365.88,-726 1365.88,-758"/>
<text xml:space="preserve" text-anchor="start" x="1257.38" y="-744.5" font-family="Helvetica,sans-Serif" font-size="10.00">nlohmann::json_pointer</text>
<text xml:space="preserve" text-anchor="middle" x="1307.62" y="-732.5" font-family="Helvetica,sans-Serif" font-size="10.00">::array_index</text>
</a>
</g>
</g>
<!-- Node1&#45;&gt;Node2 -->
<g id="edge1" class="edge">
<title>Node1&#45;&gt;Node2</title>
<path fill="none" stroke="#63b8ff" d="M1467.71,-457.61C1463.95,-512.85 1448.01,-638 1380.5,-712 1375.58,-717.39 1369.54,-721.85 1363.06,-725.52"/>
<polygon fill="#63b8ff" stroke="#63b8ff" points="1471.19,-458.03 1468.29,-447.84 1464.21,-457.62 1471.19,-458.03"/>
</g>
<!-- Node8 -->
<g id="node8" class="node">
<title>Node8</title>
<g id="a_node8"><a xlink:href="a01663.html#ac97f74aff788336b07bc5ecf85598b14" target="_top" xlink:title=" ">
<polygon fill="white" stroke="#666666" points="1177.75,-720 1061.25,-720 1061.25,-688 1177.75,-688 1177.75,-720"/>
<text xml:space="preserve" text-anchor="start" x="1069.25" y="-706.5" font-family="Helvetica,sans-Serif" font-size="10.00">nlohmann::json_pointer</text>
<text xml:space="preserve" text-anchor="middle" x="1119.5" y="-694.5" font-family="Helvetica,sans-Serif" font-size="10.00">::get_checked</text>
</a>
</g>
</g>
<!-- Node1&#45;&gt;Node8 -->
<g id="edge30" class="edge">
<title>Node1&#45;&gt;Node8</title>
<path fill="none" stroke="#63b8ff" d="M1466.91,-457.57C1461.84,-506.76 1443.82,-609.31 1380.5,-661 1323.53,-707.51 1235.59,-712.57 1178.04,-709.89"/>
<polygon fill="#63b8ff" stroke="#63b8ff" points="1470.38,-458.06 1467.81,-447.79 1463.41,-457.43 1470.38,-458.06"/>
</g>
<!-- Node11 -->
<g id="node11" class="node">
<title>Node11</title>
<g id="a_node11"><a xlink:href="a01663.html#aef65869da8f68d30b30021f3efdc54f8" target="_top" xlink:title="return a reference to the pointed to value">
<polygon fill="white" stroke="#666666" points="1177.75,-670 1061.25,-670 1061.25,-638 1177.75,-638 1177.75,-670"/>
<text xml:space="preserve" text-anchor="start" x="1069.25" y="-656.5" font-family="Helvetica,sans-Serif" font-size="10.00">nlohmann::json_pointer</text>
<text xml:space="preserve" text-anchor="middle" x="1119.5" y="-644.5" font-family="Helvetica,sans-Serif" font-size="10.00">::get_unchecked</text>
</a>
</g>
</g>
<!-- Node1&#45;&gt;Node11 -->
<g id="edge31" class="edge">
<title>Node1&#45;&gt;Node11</title>
<path fill="none" stroke="#63b8ff" d="M1465.23,-457.6C1457.84,-501.48 1436.72,-586.33 1380.5,-627 1321.76,-669.49 1235.09,-669.47 1178.21,-663.44"/>
<polygon fill="#63b8ff" stroke="#63b8ff" points="1468.66,-458.3 1466.74,-447.88 1461.75,-457.23 1468.66,-458.3"/>
</g>
<!-- Node13 -->
<g id="node13" class="node">
<title>Node13</title>
<g id="a_node13"><a xlink:href="a01659.html#adcc786998f220a5b3083ee8a37c4553e" target="_top" xlink:title="applies a JSON patch">
<polygon fill="white" stroke="#666666" points="1174.75,-578 1064.25,-578 1064.25,-546 1174.75,-546 1174.75,-578"/>
<text xml:space="preserve" text-anchor="start" x="1072.25" y="-564.5" font-family="Helvetica,sans-Serif" font-size="10.00">nlohmann::basic_json</text>
<text xml:space="preserve" text-anchor="middle" x="1119.5" y="-552.5" font-family="Helvetica,sans-Serif" font-size="10.00">::patch</text>
</a>
</g>
</g>
<!-- Node1&#45;&gt;Node13 -->
<g id="edge32" class="edge">
<title>Node1&#45;&gt;Node13</title>
<path fill="none" stroke="#63b8ff" d="M1464,-457.52C1455.23,-497.69 1432.62,-571.1 1380.5,-603 1307.03,-647.97 1200.79,-604.48 1149.87,-578.43"/>
<polygon fill="#63b8ff" stroke="#63b8ff" points="1467.39,-458.41 1465.95,-447.91 1460.53,-457.02 1467.39,-458.41"/>
</g>
<!-- Node14 -->
<g id="node14" class="node">
<title>Node14</title>
<g id="a_node14"><a xlink:href="a01659.html#a52b18a5b7e68652c65b070900c438c6e" target="_top" xlink:title="access specified array element with bounds checking">
<polygon fill="white" stroke="#666666" points="1370,-594 1245.25,-594 1245.25,-574 1370,-574 1370,-594"/>
<text xml:space="preserve" text-anchor="middle" x="1307.62" y="-580.5" font-family="Helvetica,sans-Serif" font-size="10.00">nlohmann::basic_json::at</text>
</a>
</g>
</g>
<!-- Node1&#45;&gt;Node14 -->
<g id="edge13" class="edge">
<title>Node1&#45;&gt;Node14</title>
<path fill="none" stroke="#63b8ff" d="M1458.55,-456.46C1445.18,-487.21 1418.95,-537.27 1380.5,-565 1375.68,-568.47 1370.28,-571.31 1364.65,-573.63"/>
<polygon fill="#63b8ff" stroke="#63b8ff" points="1461.68,-458.06 1462.31,-447.48 1455.22,-455.36 1461.68,-458.06"/>
</g>
<!-- Node15 -->
<g id="node15" class="node">
<title>Node15</title>
<g id="a_node15"><a xlink:href="a01663.html#a58b4e4cd3551787d9c20c67ed5b1dfb8" target="_top" xlink:title="return last reference token">
<polygon fill="white" stroke="#666666" points="1365.88,-556 1249.38,-556 1249.38,-524 1365.88,-524 1365.88,-556"/>
<text xml:space="preserve" text-anchor="start" x="1257.38" y="-542.5" font-family="Helvetica,sans-Serif" font-size="10.00">nlohmann::json_pointer</text>
<text xml:space="preserve" text-anchor="middle" x="1307.62" y="-530.5" font-family="Helvetica,sans-Serif" font-size="10.00">::back</text>
</a>
</g>
</g>
<!-- Node1&#45;&gt;Node15 -->
<g id="edge15" class="edge">
<title>Node1&#45;&gt;Node15</title>
<path fill="none" stroke="#63b8ff" d="M1448.36,-454.89C1431.75,-473.65 1406.85,-498.83 1380.5,-515 1375.32,-518.18 1369.68,-521.02 1363.91,-523.55"/>
<polygon fill="#63b8ff" stroke="#63b8ff" points="1450.93,-457.26 1454.83,-447.4 1445.64,-452.68 1450.93,-457.26"/>
</g>
<!-- Node16 -->
<g id="node16" class="node">
<title>Node16</title>
<g id="a_node16"><a xlink:href="a02039.html#a5bae2f1db2c511b869dffaddf15a1653" target="_top" xlink:title=" ">
<polygon fill="white" stroke="#666666" points="1368.88,-380 1246.38,-380 1246.38,-336 1368.88,-336 1368.88,-380"/>
<text xml:space="preserve" text-anchor="start" x="1254.38" y="-366.5" font-family="Helvetica,sans-Serif" font-size="10.00">nlohmann::detail::binary</text>
<text xml:space="preserve" text-anchor="start" x="1254.38" y="-354.5" font-family="Helvetica,sans-Serif" font-size="10.00">_writer::calc_bson_entry</text>
<text xml:space="preserve" text-anchor="middle" x="1307.62" y="-342.5" font-family="Helvetica,sans-Serif" font-size="10.00">_header_size</text>
</a>
</g>
</g>
<!-- Node1&#45;&gt;Node16 -->
<g id="edge17" class="edge">
<title>Node1&#45;&gt;Node16</title>
<path fill="none" stroke="#63b8ff" d="M1422.11,-408.99C1402.14,-400.02 1378.81,-389.53 1358.51,-380.41"/>
<polygon fill="#63b8ff" stroke="#63b8ff" points="1420.58,-412.14 1431.13,-413.04 1423.44,-405.75 1420.58,-412.14"/>
</g>
<!-- Node25 -->
<g id="node25" class="node">
<title>Node25</title>
<g id="a_node25"><a xlink:href="a01659.html#a221b943d3228488c14225e55f726cc26" target="_top" xlink:title="remove element from a JSON array given an index">
<polygon fill="white" stroke="#666666" points="1362.88,-318 1252.38,-318 1252.38,-286 1362.88,-286 1362.88,-318"/>
<text xml:space="preserve" text-anchor="start" x="1260.38" y="-304.5" font-family="Helvetica,sans-Serif" font-size="10.00">nlohmann::basic_json</text>
<text xml:space="preserve" text-anchor="middle" x="1307.62" y="-292.5" font-family="Helvetica,sans-Serif" font-size="10.00">::erase</text>
</a>
</g>
</g>
<!-- Node1&#45;&gt;Node25 -->
<g id="edge29" class="edge">
<title>Node1&#45;&gt;Node25</title>
<path fill="none" stroke="#63b8ff" d="M1452.57,-404.18C1436.73,-381.01 1410.69,-347.57 1380.5,-327 1375.15,-323.35 1369.22,-320.19 1363.12,-317.45"/>
<polygon fill="#63b8ff" stroke="#63b8ff" points="1449.62,-406.07 1458.08,-412.46 1455.45,-402.19 1449.62,-406.07"/>
</g>
<!-- Node26 -->
<g id="node26" class="node">
<title>Node26</title>
<g id="a_node26"><a xlink:href="a01663.html#a4b1ee4d511ca195bed896a3da47e264c" target="_top" xlink:title="remove last reference token">
<polygon fill="white" stroke="#666666" points="1365.88,-468 1249.38,-468 1249.38,-436 1365.88,-436 1365.88,-468"/>
<text xml:space="preserve" text-anchor="start" x="1257.38" y="-454.5" font-family="Helvetica,sans-Serif" font-size="10.00">nlohmann::json_pointer</text>
<text xml:space="preserve" text-anchor="middle" x="1307.62" y="-442.5" font-family="Helvetica,sans-Serif" font-size="10.00">::pop_back</text>
</a>
</g>
</g>
<!-- Node1&#45;&gt;Node26 -->
<g id="edge33" class="edge">
<title>Node1&#45;&gt;Node26</title>
<path fill="none" stroke="#63b8ff" d="M1405.26,-438.73C1392.36,-440.5 1378.87,-442.36 1366.2,-444.1"/>
<polygon fill="#63b8ff" stroke="#63b8ff" points="1405.47,-442.24 1414.9,-437.41 1404.52,-435.3 1405.47,-442.24"/>
</g>
<!-- Node28 -->
<g id="node28" class="node">
<title>Node28</title>
<g id="a_node28"><a xlink:href="a01999.html#a678fdebccc8ddd3242c67b6bce2f8f1a" target="_top" xlink:title=" ">
<polygon fill="white" stroke="#666666" points="1367.75,-268 1247.5,-268 1247.5,-236 1367.75,-236 1367.75,-268"/>
<text xml:space="preserve" text-anchor="start" x="1255.5" y="-254.5" font-family="Helvetica,sans-Serif" font-size="10.00">nlohmann::detail::parser</text>
<text xml:space="preserve" text-anchor="middle" x="1307.62" y="-242.5" font-family="Helvetica,sans-Serif" font-size="10.00">::sax_parse_internal</text>
</a>
</g>
</g>
<!-- Node1&#45;&gt;Node28 -->
<g id="edge36" class="edge">
<title>Node1&#45;&gt;Node28</title>
<path fill="none" stroke="#63b8ff" d="M1460.01,-403.08C1447.5,-369.07 1421.49,-310.89 1380.5,-277 1376.53,-273.72 1372.1,-270.85 1367.44,-268.36"/>
<polygon fill="#63b8ff" stroke="#63b8ff" points="1456.6,-403.93 1463.24,-412.19 1463.2,-401.6 1456.6,-403.93"/>
</g>
<!-- Node32 -->
<g id="node32" class="node">
<title>Node32</title>
<g id="a_node32"><a xlink:href="a01967.html#a056b895d011efaf48ea096c024aca0d4" target="_top" xlink:title=" ">
<polygon fill="white" stroke="#666666" points="1380.5,-218 1234.75,-218 1234.75,-186 1380.5,-186 1380.5,-218"/>
<text xml:space="preserve" text-anchor="start" x="1242.75" y="-204.5" font-family="Helvetica,sans-Serif" font-size="10.00">nlohmann::detail::json</text>
<text xml:space="preserve" text-anchor="middle" x="1307.62" y="-192.5" font-family="Helvetica,sans-Serif" font-size="10.00">_sax_dom_parser::start_array</text>
</a>
</g>
</g>
<!-- Node1&#45;&gt;Node32 -->
<g id="edge40" class="edge">
<title>Node1&#45;&gt;Node32</title>
<path fill="none" stroke="#63b8ff" d="M1464.24,-402.72C1455.49,-359.5 1432.55,-275.25 1380.5,-227 1377.01,-223.77 1373.08,-220.95 1368.91,-218.49"/>
<polygon fill="#63b8ff" stroke="#63b8ff" points="1460.75,-403.1 1466.06,-412.27 1467.62,-401.79 1460.75,-403.1"/>
</g>
<!-- Node33 -->
<g id="node33" class="node">
<title>Node33</title>
<g id="a_node33"><a xlink:href="a01971.html#a5255b98ba8282e3625968f91cff9d3d0" target="_top" xlink:title=" ">
<polygon fill="white" stroke="#666666" points="1374.88,-168 1240.38,-168 1240.38,-124 1374.88,-124 1374.88,-168"/>
<text xml:space="preserve" text-anchor="start" x="1248.38" y="-154.5" font-family="Helvetica,sans-Serif" font-size="10.00">nlohmann::detail::json</text>
<text xml:space="preserve" text-anchor="start" x="1248.38" y="-142.5" font-family="Helvetica,sans-Serif" font-size="10.00">_sax_dom_callback_parser</text>
<text xml:space="preserve" text-anchor="middle" x="1307.62" y="-130.5" font-family="Helvetica,sans-Serif" font-size="10.00">::start_array</text>
</a>
</g>
</g>
<!-- Node1&#45;&gt;Node33 -->
<g id="edge41" class="edge">
<title>Node1&#45;&gt;Node33</title>
<path fill="none" stroke="#63b8ff" d="M1466.45,-402.48C1460.59,-351.65 1441.28,-242.27 1380.5,-177 1377.54,-173.82 1374.19,-170.95 1370.6,-168.36"/>
<polygon fill="#63b8ff" stroke="#63b8ff" points="1462.96,-402.72 1467.49,-412.3 1469.92,-401.99 1462.96,-402.72"/>
</g>
<!-- Node34 -->
<g id="node34" class="node">
<title>Node34</title>
<g id="a_node34"><a xlink:href="a01967.html#a9929b4cc92d471c49bd0a92802629f90" target="_top" xlink:title=" ">
<polygon fill="white" stroke="#666666" points="1367,-106 1248.25,-106 1248.25,-62 1367,-62 1367,-106"/>
<text xml:space="preserve" text-anchor="start" x="1256.25" y="-92.5" font-family="Helvetica,sans-Serif" font-size="10.00">nlohmann::detail::json</text>
<text xml:space="preserve" text-anchor="start" x="1256.25" y="-80.5" font-family="Helvetica,sans-Serif" font-size="10.00">_sax_dom_parser::start</text>
<text xml:space="preserve" text-anchor="middle" x="1307.62" y="-68.5" font-family="Helvetica,sans-Serif" font-size="10.00">_object</text>
</a>
</g>
</g>
<!-- Node1&#45;&gt;Node34 -->
<g id="edge42" class="edge">
<title>Node1&#45;&gt;Node34</title>
<path fill="none" stroke="#63b8ff" d="M1468.73,-402.21C1466.96,-342.35 1454.68,-199.82 1380.5,-115 1376.74,-110.7 1372.28,-106.98 1367.45,-103.76"/>
<polygon fill="#63b8ff" stroke="#63b8ff" points="1465.23,-402.24 1468.94,-412.16 1472.23,-402.09 1465.23,-402.24"/>
</g>
<!-- Node35 -->
<g id="node35" class="node">
<title>Node35</title>
<g id="a_node35"><a xlink:href="a01971.html#a040e60243cc7c18a6078c6b83cdb4a81" target="_top" xlink:title=" ">
<polygon fill="white" stroke="#666666" points="1374.88,-44 1240.38,-44 1240.38,0 1374.88,0 1374.88,-44"/>
<text xml:space="preserve" text-anchor="start" x="1248.38" y="-30.5" font-family="Helvetica,sans-Serif" font-size="10.00">nlohmann::detail::json</text>
<text xml:space="preserve" text-anchor="start" x="1248.38" y="-18.5" font-family="Helvetica,sans-Serif" font-size="10.00">_sax_dom_callback_parser</text>
<text xml:space="preserve" text-anchor="middle" x="1307.62" y="-6.5" font-family="Helvetica,sans-Serif" font-size="10.00">::start_object</text>
</a>
</g>
</g>
<!-- Node1&#45;&gt;Node35 -->
<g id="edge43" class="edge">
<title>Node1&#45;&gt;Node35</title>
<path fill="none" stroke="#63b8ff" d="M1465.63,-402.33C1456.05,-324.69 1425.66,-106.95 1380.5,-53 1377.8,-49.77 1374.69,-46.87 1371.33,-44.26"/>
<polygon fill="#63b8ff" stroke="#63b8ff" points="1462.13,-402.53 1466.81,-412.04 1469.08,-401.69 1462.13,-402.53"/>
</g>
<!-- Node36 -->
<g id="node36" class="node">
<title>Node36</title>
<g id="a_node36"><a xlink:href="a01663.html#a00eff109d9a0091e42ada9b16b90c8d9" target="_top" xlink:title=" ">
<polygon fill="white" stroke="#666666" points="1375.62,-506 1239.62,-506 1239.62,-486 1375.62,-486 1375.62,-506"/>
<text xml:space="preserve" text-anchor="middle" x="1307.62" y="-492.5" font-family="Helvetica,sans-Serif" font-size="10.00">nlohmann::json_pointer::top</text>
</a>
</g>
</g>
<!-- Node1&#45;&gt;Node36 -->
<g id="edge44" class="edge">
<title>Node1&#45;&gt;Node36</title>
<path fill="none" stroke="#63b8ff" d="M1432.41,-451.83C1416.81,-460.52 1398.15,-470.08 1380.5,-477 1372.21,-480.25 1363.17,-483.13 1354.38,-485.6"/>
<polygon fill="#63b8ff" stroke="#63b8ff" points="1433.9,-455.01 1440.86,-447.03 1430.44,-448.93 1433.9,-455.01"/>
</g>
<!-- Node37 -->
<g id="node37" class="node">
<title>Node37</title>
<g id="a_node37"><a xlink:href="a02039.html#a5e295ed1be6af6260d2a65f7397c3742" target="_top" xlink:title="Writes a BSON element with key name and unsigned value.">
<polygon fill="white" stroke="#666666" points="822.5,-424 679.75,-424 679.75,-392 822.5,-392 822.5,-424"/>
<text xml:space="preserve" text-anchor="start" x="687.75" y="-410.5" font-family="Helvetica,sans-Serif" font-size="10.00">nlohmann::detail::binary</text>
<text xml:space="preserve" text-anchor="middle" x="751.12" y="-398.5" font-family="Helvetica,sans-Serif" font-size="10.00">_writer::write_bson_unsigned</text>
</a>
</g>
</g>
<!-- Node1&#45;&gt;Node37 -->
<g id="edge46" class="edge">
<title>Node1&#45;&gt;Node37</title>
<path fill="none" stroke="#63b8ff" d="M1404.67,-427.79C1396.53,-427.52 1388.32,-427.25 1380.5,-427 1178.14,-420.51 939.11,-413.45 822.8,-410.05"/>
<polygon fill="#63b8ff" stroke="#63b8ff" points="1404.44,-431.29 1414.56,-428.12 1404.68,-424.29 1404.44,-431.29"/>
</g>
<!-- Node3 -->
<g id="node3" class="node">
<title>Node3</title>
<g id="a_node3"><a xlink:href="a01663.html#a90d38e45e2d3add52d824bc55da8f772" target="_top" xlink:title=" ">
<polygon fill="white" stroke="#666666" points="1177.75,-820 1061.25,-820 1061.25,-788 1177.75,-788 1177.75,-820"/>
<text xml:space="preserve" text-anchor="start" x="1069.25" y="-806.5" font-family="Helvetica,sans-Serif" font-size="10.00">nlohmann::json_pointer</text>
<text xml:space="preserve" text-anchor="middle" x="1119.5" y="-794.5" font-family="Helvetica,sans-Serif" font-size="10.00">::contains</text>
</a>
</g>
</g>
<!-- Node2&#45;&gt;Node3 -->
<g id="edge2" class="edge">
<title>Node2&#45;&gt;Node3</title>
<path fill="none" stroke="#63b8ff" d="M1249.01,-762.01C1232.78,-767.58 1215.09,-773.59 1198.75,-779 1190.22,-781.82 1181.15,-784.77 1172.32,-787.61"/>
<polygon fill="#63b8ff" stroke="#63b8ff" points="1249.69,-765.48 1258.01,-758.92 1247.41,-758.86 1249.69,-765.48"/>
</g>
<!-- Node5 -->
<g id="node5" class="node">
<title>Node5</title>
<g id="a_node5"><a xlink:href="a01663.html#aa2f86764d08ce1fb82327327e7f9a87d" target="_top" xlink:title="create and return a reference to the pointed to value">
<polygon fill="white" stroke="#666666" points="1177.75,-770 1061.25,-770 1061.25,-738 1177.75,-738 1177.75,-770"/>
<text xml:space="preserve" text-anchor="start" x="1069.25" y="-756.5" font-family="Helvetica,sans-Serif" font-size="10.00">nlohmann::json_pointer</text>
<text xml:space="preserve" text-anchor="middle" x="1119.5" y="-744.5" font-family="Helvetica,sans-Serif" font-size="10.00">::get_and_create</text>
</a>
</g>
</g>
<!-- Node2&#45;&gt;Node5 -->
<g id="edge4" class="edge">
<title>Node2&#45;&gt;Node5</title>
<path fill="none" stroke="#63b8ff" d="M1237.69,-746.44C1218.11,-747.71 1197,-749.07 1178.16,-750.28"/>
<polygon fill="#63b8ff" stroke="#63b8ff" points="1237.74,-749.95 1247.5,-745.81 1237.29,-742.96 1237.74,-749.95"/>
</g>
<!-- Node2&#45;&gt;Node8 -->
<g id="edge7" class="edge">
<title>Node2&#45;&gt;Node8</title>
<path fill="none" stroke="#63b8ff" d="M1237.96,-727.98C1218.31,-723.97 1197.09,-719.64 1178.16,-715.77"/>
<polygon fill="#63b8ff" stroke="#63b8ff" points="1237.03,-731.36 1247.53,-729.93 1238.43,-724.5 1237.03,-731.36"/>
</g>
<!-- Node2&#45;&gt;Node11 -->
<g id="edge10" class="edge">
<title>Node2&#45;&gt;Node11</title>
<path fill="none" stroke="#63b8ff" d="M1272.56,-719.5C1251.82,-706.48 1224.46,-690.45 1198.75,-679 1191.84,-675.93 1184.45,-673.05 1177.05,-670.43"/>
<polygon fill="#63b8ff" stroke="#63b8ff" points="1270.58,-722.39 1280.89,-724.81 1274.34,-716.49 1270.58,-722.39"/>
</g>
<!-- Node2&#45;&gt;Node13 -->
<g id="edge12" class="edge">
<title>Node2&#45;&gt;Node13</title>
<path fill="none" stroke="#63b8ff" d="M1284.55,-717.49C1263.21,-694.13 1229.65,-658.28 1198.75,-629 1179.66,-610.92 1156.7,-591.51 1140.6,-578.26"/>
<polygon fill="#63b8ff" stroke="#63b8ff" points="1281.77,-719.63 1291.08,-724.67 1286.95,-714.92 1281.77,-719.63"/>
</g>
<!-- Node4 -->
<g id="node4" class="node">
<title>Node4</title>
<g id="a_node4"><a xlink:href="a01659.html#adb82c1f34c73486e013da71ae369e597" target="_top" xlink:title="check the existence of an element in a JSON object given a JSON pointer">
<polygon fill="white" stroke="#666666" points="986.62,-820 876.12,-820 876.12,-788 986.62,-788 986.62,-820"/>
<text xml:space="preserve" text-anchor="start" x="884.12" y="-806.5" font-family="Helvetica,sans-Serif" font-size="10.00">nlohmann::basic_json</text>
<text xml:space="preserve" text-anchor="middle" x="931.38" y="-794.5" font-family="Helvetica,sans-Serif" font-size="10.00">::contains</text>
</a>
</g>
</g>
<!-- Node3&#45;&gt;Node4 -->
<g id="edge3" class="edge">
<title>Node3&#45;&gt;Node4</title>
<path fill="none" stroke="#63b8ff" d="M1049.59,-804C1028.89,-804 1006.49,-804 986.86,-804"/>
<polygon fill="#63b8ff" stroke="#63b8ff" points="1049.37,-807.5 1059.37,-804 1049.37,-800.5 1049.37,-807.5"/>
</g>
<!-- Node6 -->
<g id="node6" class="node">
<title>Node6</title>
<g id="a_node6"><a xlink:href="a01663.html#a920065221e3c81676c3211c100d024a7" target="_top" xlink:title=" ">
<polygon fill="white" stroke="#666666" points="989.62,-770 873.12,-770 873.12,-738 989.62,-738 989.62,-770"/>
<text xml:space="preserve" text-anchor="start" x="881.12" y="-756.5" font-family="Helvetica,sans-Serif" font-size="10.00">nlohmann::json_pointer</text>
<text xml:space="preserve" text-anchor="middle" x="931.38" y="-744.5" font-family="Helvetica,sans-Serif" font-size="10.00">::unflatten</text>
</a>
</g>
</g>
<!-- Node5&#45;&gt;Node6 -->
<g id="edge5" class="edge">
<title>Node5&#45;&gt;Node6</title>
<path fill="none" stroke="#63b8ff" d="M1049.56,-754C1029.98,-754 1008.87,-754 990.04,-754"/>
<polygon fill="#63b8ff" stroke="#63b8ff" points="1049.37,-757.5 1059.37,-754 1049.37,-750.5 1049.37,-757.5"/>
</g>
<!-- Node7 -->
<g id="node7" class="node">
<title>Node7</title>
<g id="a_node7"><a xlink:href="a01659.html#adea158bff8642202420898f6322da479" target="_top" xlink:title="unflatten a previously flattened JSON value">
<polygon fill="white" stroke="#666666" points="806.38,-770 695.88,-770 695.88,-738 806.38,-738 806.38,-770"/>
<text xml:space="preserve" text-anchor="start" x="703.88" y="-756.5" font-family="Helvetica,sans-Serif" font-size="10.00">nlohmann::basic_json</text>
<text xml:space="preserve" text-anchor="middle" x="751.12" y="-744.5" font-family="Helvetica,sans-Serif" font-size="10.00">::unflatten</text>
</a>
</g>
</g>
<!-- Node6&#45;&gt;Node7 -->
<g id="edge6" class="edge">
<title>Node6&#45;&gt;Node7</title>
<path fill="none" stroke="#63b8ff" d="M861.55,-754C843.36,-754 823.98,-754 806.67,-754"/>
<polygon fill="#63b8ff" stroke="#63b8ff" points="861.48,-757.5 871.48,-754 861.48,-750.5 861.48,-757.5"/>
</g>
<!-- Node9 -->
<g id="node9" class="node">
<title>Node9</title>
<g id="a_node9"><a xlink:href="a01659.html#aa014a978f8b6c085db8825faa8dad320" target="_top" xlink:title="access specified element via JSON Pointer">
<polygon fill="white" stroke="#666666" points="993.75,-720 869,-720 869,-700 993.75,-700 993.75,-720"/>
<text xml:space="preserve" text-anchor="middle" x="931.38" y="-706.5" font-family="Helvetica,sans-Serif" font-size="10.00">nlohmann::basic_json::at</text>
</a>
</g>
</g>
<!-- Node8&#45;&gt;Node9 -->
<g id="edge8" class="edge">
<title>Node8&#45;&gt;Node9</title>
<path fill="none" stroke="#63b8ff" d="M1049.5,-706.22C1031.38,-706.81 1011.96,-707.43 994.24,-708.01"/>
<polygon fill="#63b8ff" stroke="#63b8ff" points="1049.49,-709.73 1059.37,-705.91 1049.26,-702.73 1049.49,-709.73"/>
</g>
<!-- Node10 -->
<g id="node10" class="node">
<title>Node10</title>
<g id="a_node10"><a xlink:href="a01659.html#a36bd6765ccd8aeeeb4e49a766ba639df" target="_top" xlink:title="access specified object element via JSON Pointer with default value">
<polygon fill="white" stroke="#666666" points="986.62,-682 876.12,-682 876.12,-650 986.62,-650 986.62,-682"/>
<text xml:space="preserve" text-anchor="start" x="884.12" y="-668.5" font-family="Helvetica,sans-Serif" font-size="10.00">nlohmann::basic_json</text>
<text xml:space="preserve" text-anchor="middle" x="931.38" y="-656.5" font-family="Helvetica,sans-Serif" font-size="10.00">::value</text>
</a>
</g>
</g>
<!-- Node8&#45;&gt;Node10 -->
<g id="edge9" class="edge">
<title>Node8&#45;&gt;Node10</title>
<path fill="none" stroke="#63b8ff" d="M1049.88,-689.99C1029.1,-685.75 1006.58,-681.15 986.86,-677.12"/>
<polygon fill="#63b8ff" stroke="#63b8ff" points="1048.9,-693.36 1059.4,-691.93 1050.3,-686.5 1048.9,-693.36"/>
</g>
<!-- Node12 -->
<g id="node12" class="node">
<title>Node12</title>
<g id="a_node12"><a xlink:href="a01659.html#a0d3deaa73b3644b4da3f8ef3172cd8d2" target="_top" xlink:title="access specified element via JSON Pointer">
<polygon fill="white" stroke="#666666" points="986.62,-632 876.12,-632 876.12,-600 986.62,-600 986.62,-632"/>
<text xml:space="preserve" text-anchor="start" x="884.12" y="-618.5" font-family="Helvetica,sans-Serif" font-size="10.00">nlohmann::basic_json</text>
<text xml:space="preserve" text-anchor="middle" x="931.38" y="-606.5" font-family="Helvetica,sans-Serif" font-size="10.00">::operator[]</text>
</a>
</g>
</g>
<!-- Node11&#45;&gt;Node12 -->
<g id="edge11" class="edge">
<title>Node11&#45;&gt;Node12</title>
<path fill="none" stroke="#63b8ff" d="M1049.88,-639.99C1029.1,-635.75 1006.58,-631.15 986.86,-627.12"/>
<polygon fill="#63b8ff" stroke="#63b8ff" points="1048.9,-643.36 1059.4,-641.93 1050.3,-636.5 1048.9,-643.36"/>
</g>
<!-- Node14&#45;&gt;Node13 -->
<g id="edge14" class="edge">
<title>Node14&#45;&gt;Node13</title>
<path fill="none" stroke="#63b8ff" d="M1233.62,-575.37C1214.15,-573.07 1193.46,-570.62 1175.17,-568.46"/>
<polygon fill="#63b8ff" stroke="#63b8ff" points="1233.06,-578.83 1243.4,-576.53 1233.88,-571.88 1233.06,-578.83"/>
</g>
<!-- Node15&#45;&gt;Node13 -->
<g id="edge16" class="edge">
<title>Node15&#45;&gt;Node13</title>
<path fill="none" stroke="#63b8ff" d="M1237.72,-548.15C1217.02,-550.59 1194.61,-553.24 1174.98,-555.56"/>
<polygon fill="#63b8ff" stroke="#63b8ff" points="1237.99,-551.64 1247.51,-546.99 1237.16,-544.69 1237.99,-551.64"/>
</g>
<!-- Node17 -->
<g id="node17" class="node">
<title>Node17</title>
<g id="a_node17"><a xlink:href="a02039.html#a1e4372c5984184eb5bcc09af1fcc2ee0" target="_top" xlink:title="Calculates the size necessary to serialize the JSON value j with its name.">
<polygon fill="white" stroke="#666666" points="1198.75,-374 1040.25,-374 1040.25,-342 1198.75,-342 1198.75,-374"/>
<text xml:space="preserve" text-anchor="start" x="1048.25" y="-360.5" font-family="Helvetica,sans-Serif" font-size="10.00">nlohmann::detail::binary</text>
<text xml:space="preserve" text-anchor="middle" x="1119.5" y="-348.5" font-family="Helvetica,sans-Serif" font-size="10.00">_writer::calc_bson_element_size</text>
</a>
</g>
</g>
<!-- Node16&#45;&gt;Node17 -->
<g id="edge18" class="edge">
<title>Node16&#45;&gt;Node17</title>
<path fill="none" stroke="#63b8ff" d="M1234.51,-358C1222.9,-358 1210.83,-358 1199.08,-358"/>
<polygon fill="#63b8ff" stroke="#63b8ff" points="1234.42,-361.5 1244.42,-358 1234.42,-354.5 1234.42,-361.5"/>
</g>
<!-- Node18 -->
<g id="node18" class="node">
<title>Node18</title>
<g id="a_node18"><a xlink:href="a02039.html#af08f9302a02516ff8cf358a99aaa1ddf" target="_top" xlink:title=" ">
<polygon fill="white" stroke="#666666" points="1004.25,-374 858.5,-374 858.5,-342 1004.25,-342 1004.25,-374"/>
<text xml:space="preserve" text-anchor="start" x="866.5" y="-360.5" font-family="Helvetica,sans-Serif" font-size="10.00">nlohmann::detail::binary</text>
<text xml:space="preserve" text-anchor="middle" x="931.38" y="-348.5" font-family="Helvetica,sans-Serif" font-size="10.00">_writer::calc_bson_array_size</text>
</a>
</g>
</g>
<!-- Node17&#45;&gt;Node18 -->
<g id="edge19" class="edge">
<title>Node17&#45;&gt;Node18</title>
<path fill="none" stroke="#63b8ff" d="M1028.52,-351.25C1020.48,-351.24 1012.41,-351.29 1004.54,-351.4"/>
<polygon fill="#63b8ff" stroke="#63b8ff" points="1028.3,-354.75 1038.32,-351.31 1028.34,-347.75 1028.3,-354.75"/>
</g>
<!-- Node18&#45;&gt;Node17 -->
<g id="edge20" class="edge">
<title>Node18&#45;&gt;Node17</title>
<path fill="none" stroke="#63b8ff" d="M1016.05,-364.72C1023.96,-364.77 1031.97,-364.76 1039.84,-364.68"/>
<polygon fill="#63b8ff" stroke="#63b8ff" points="1016.1,-361.22 1006.06,-364.61 1016.02,-368.22 1016.1,-361.22"/>
</g>
<!-- Node19 -->
<g id="node19" class="node">
<title>Node19</title>
<g id="a_node19"><a xlink:href="a02039.html#a025212bd170253638b9f05b3b6aa5bf9" target="_top" xlink:title="Writes a BSON element with key name and array value.">
<polygon fill="white" stroke="#666666" points="813.88,-374 688.38,-374 688.38,-342 813.88,-342 813.88,-374"/>
<text xml:space="preserve" text-anchor="start" x="696.38" y="-360.5" font-family="Helvetica,sans-Serif" font-size="10.00">nlohmann::detail::binary</text>
<text xml:space="preserve" text-anchor="middle" x="751.12" y="-348.5" font-family="Helvetica,sans-Serif" font-size="10.00">_writer::write_bson_array</text>
</a>
</g>
</g>
<!-- Node18&#45;&gt;Node19 -->
<g id="edge21" class="edge">
<title>Node18&#45;&gt;Node19</title>
<path fill="none" stroke="#63b8ff" d="M846.76,-358C835.79,-358 824.7,-358 814.18,-358"/>
<polygon fill="#63b8ff" stroke="#63b8ff" points="846.62,-361.5 856.62,-358 846.62,-354.5 846.62,-361.5"/>
</g>
<!-- Node20 -->
<g id="node20" class="node">
<title>Node20</title>
<g id="a_node20"><a xlink:href="a02039.html#a7ff58bf1a80018148bed860667ffca07" target="_top" xlink:title="Serializes the JSON value j to BSON and associates it with the key name.">
<polygon fill="white" stroke="#666666" points="643.75,-374 505.5,-374 505.5,-342 643.75,-342 643.75,-374"/>
<text xml:space="preserve" text-anchor="start" x="513.5" y="-360.5" font-family="Helvetica,sans-Serif" font-size="10.00">nlohmann::detail::binary</text>
<text xml:space="preserve" text-anchor="middle" x="574.62" y="-348.5" font-family="Helvetica,sans-Serif" font-size="10.00">_writer::write_bson_element</text>
</a>
</g>
</g>
<!-- Node19&#45;&gt;Node20 -->
<g id="edge22" class="edge">
<title>Node19&#45;&gt;Node20</title>
<path fill="none" stroke="#63b8ff" d="M676.88,-351.33C665.97,-351.21 654.76,-351.23 643.96,-351.39"/>
<polygon fill="#63b8ff" stroke="#63b8ff" points="676.54,-354.82 686.6,-351.48 676.66,-347.82 676.54,-354.82"/>
</g>
<!-- Node20&#45;&gt;Node19 -->
<g id="edge23" class="edge">
<title>Node20&#45;&gt;Node19</title>
<path fill="none" stroke="#63b8ff" d="M655.34,-364.73C666.34,-364.79 677.5,-364.71 688.11,-364.49"/>
<polygon fill="#63b8ff" stroke="#63b8ff" points="655.51,-361.23 645.48,-364.62 655.44,-368.23 655.51,-361.23"/>
</g>
<!-- Node21 -->
<g id="node21" class="node">
<title>Node21</title>
<g id="a_node21"><a xlink:href="a02039.html#a29b3e0f83a8e5f2307804023109ba2c9" target="_top" xlink:title=" ">
<polygon fill="white" stroke="#666666" points="469.5,-396 339.5,-396 339.5,-364 469.5,-364 469.5,-396"/>
<text xml:space="preserve" text-anchor="start" x="347.5" y="-382.5" font-family="Helvetica,sans-Serif" font-size="10.00">nlohmann::detail::binary</text>
<text xml:space="preserve" text-anchor="middle" x="404.5" y="-370.5" font-family="Helvetica,sans-Serif" font-size="10.00">_writer::write_bson_object</text>
</a>
</g>
</g>
<!-- Node20&#45;&gt;Node21 -->
<g id="edge24" class="edge">
<title>Node20&#45;&gt;Node21</title>
<path fill="none" stroke="#63b8ff" d="M493.87,-368.44C485.79,-369.49 477.64,-370.56 469.75,-371.59"/>
<polygon fill="#63b8ff" stroke="#63b8ff" points="494.28,-371.91 503.74,-367.14 493.37,-364.97 494.28,-371.91"/>
</g>
<!-- Node22 -->
<g id="node22" class="node">
<title>Node22</title>
<g id="a_node22"><a xlink:href="a02039.html#a9ffc566db5219b473762462234b47db9" target="_top" xlink:title=" ">
<polygon fill="white" stroke="#666666" points="284.75,-402 165.25,-402 165.25,-370 284.75,-370 284.75,-402"/>
<text xml:space="preserve" text-anchor="start" x="173.25" y="-388.5" font-family="Helvetica,sans-Serif" font-size="10.00">nlohmann::detail::binary</text>
<text xml:space="preserve" text-anchor="middle" x="225" y="-376.5" font-family="Helvetica,sans-Serif" font-size="10.00">_writer::write_bson</text>
</a>
</g>
</g>
<!-- Node21&#45;&gt;Node22 -->
<g id="edge25" class="edge">
<title>Node21&#45;&gt;Node22</title>
<path fill="none" stroke="#63b8ff" d="M327.83,-382.56C313.54,-383.04 298.79,-383.54 285.1,-384"/>
<polygon fill="#63b8ff" stroke="#63b8ff" points="327.78,-386.06 337.65,-382.23 327.54,-379.07 327.78,-386.06"/>
</g>
<!-- Node24 -->
<g id="node24" class="node">
<title>Node24</title>
<g id="a_node24"><a xlink:href="a02039.html#a6231302930265eccb3f56c378f7b0661" target="_top" xlink:title="Writes a BSON element with key name and object value.">
<polygon fill="white" stroke="#666666" points="303.5,-352 146.5,-352 146.5,-320 303.5,-320 303.5,-352"/>
<text xml:space="preserve" text-anchor="start" x="154.5" y="-338.5" font-family="Helvetica,sans-Serif" font-size="10.00">nlohmann::detail::binary</text>
<text xml:space="preserve" text-anchor="middle" x="225" y="-326.5" font-family="Helvetica,sans-Serif" font-size="10.00">_writer::write_bson_object_entry</text>
</a>
</g>
</g>
<!-- Node21&#45;&gt;Node24 -->
<g id="edge27" class="edge">
<title>Node21&#45;&gt;Node24</title>
<path fill="none" stroke="#63b8ff" d="M328.35,-361.37C316.44,-358.42 304.19,-355.38 292.5,-352.48"/>
<polygon fill="#63b8ff" stroke="#63b8ff" points="327.15,-364.68 337.7,-363.69 328.83,-357.89 327.15,-364.68"/>
</g>
<!-- Node23 -->
<g id="node23" class="node">
<title>Node23</title>
<g id="a_node23"><a xlink:href="a01659.html#a668e4c2ad9808218a25879700f4aef2b" target="_top" xlink:title="Serializes the given JSON object j to BSON and forwards the corresponding BSON&#45;representation to the ...">
<polygon fill="white" stroke="#666666" points="110.5,-402 0,-402 0,-370 110.5,-370 110.5,-402"/>
<text xml:space="preserve" text-anchor="start" x="8" y="-388.5" font-family="Helvetica,sans-Serif" font-size="10.00">nlohmann::basic_json</text>
<text xml:space="preserve" text-anchor="middle" x="55.25" y="-376.5" font-family="Helvetica,sans-Serif" font-size="10.00">::to_bson</text>
</a>
</g>
</g>
<!-- Node22&#45;&gt;Node23 -->
<g id="edge26" class="edge">
<title>Node22&#45;&gt;Node23</title>
<path fill="none" stroke="#63b8ff" d="M153.58,-386C139.33,-386 124.54,-386 110.93,-386"/>
<polygon fill="#63b8ff" stroke="#63b8ff" points="153.34,-389.5 163.34,-386 153.34,-382.5 153.34,-389.5"/>
</g>
<!-- Node24&#45;&gt;Node20 -->
<g id="edge28" class="edge">
<title>Node24&#45;&gt;Node20</title>
<path fill="none" stroke="#63b8ff" d="M315.04,-341.63C374.28,-345.38 450.93,-350.24 505.36,-353.68"/>
<polygon fill="#63b8ff" stroke="#63b8ff" points="315.52,-338.16 305.32,-341.02 315.08,-345.14 315.52,-338.16"/>
</g>
<!-- Node26&#45;&gt;Node13 -->
<g id="edge35" class="edge">
<title>Node26&#45;&gt;Node13</title>
<path fill="none" stroke="#63b8ff" d="M1243.1,-472.88C1240.24,-474.2 1237.45,-475.57 1234.75,-477 1198.05,-496.44 1160.31,-526.97 1138.71,-545.67"/>
<polygon fill="#63b8ff" stroke="#63b8ff" points="1244.43,-476.11 1252.23,-468.95 1241.67,-469.68 1244.43,-476.11"/>
</g>
<!-- Node27 -->
<g id="node27" class="node">
<title>Node27</title>
<g id="a_node27"><a xlink:href="a01663.html#afdaacce1edb7145e0434e014f0e8685a" target="_top" xlink:title="returns the parent of this JSON pointer">
<polygon fill="white" stroke="#666666" points="1177.75,-468 1061.25,-468 1061.25,-436 1177.75,-436 1177.75,-468"/>
<text xml:space="preserve" text-anchor="start" x="1069.25" y="-454.5" font-family="Helvetica,sans-Serif" font-size="10.00">nlohmann::json_pointer</text>
<text xml:space="preserve" text-anchor="middle" x="1119.5" y="-442.5" font-family="Helvetica,sans-Serif" font-size="10.00">::parent_pointer</text>
</a>
</g>
</g>
<!-- Node26&#45;&gt;Node27 -->
<g id="edge34" class="edge">
<title>Node26&#45;&gt;Node27</title>
<path fill="none" stroke="#63b8ff" d="M1237.69,-452C1218.11,-452 1197,-452 1178.16,-452"/>
<polygon fill="#63b8ff" stroke="#63b8ff" points="1237.5,-455.5 1247.49,-452 1237.49,-448.5 1237.5,-455.5"/>
</g>
<!-- Node29 -->
<g id="node29" class="node">
<title>Node29</title>
<g id="a_node29"><a xlink:href="a01999.html#a75fb9145ea85f1ad9cc14f61981e1111" target="_top" xlink:title="public parser interface">
<polygon fill="white" stroke="#666666" points="1179.62,-293 1059.38,-293 1059.38,-261 1179.62,-261 1179.62,-293"/>
<text xml:space="preserve" text-anchor="start" x="1067.38" y="-279.5" font-family="Helvetica,sans-Serif" font-size="10.00">nlohmann::detail::parser</text>
<text xml:space="preserve" text-anchor="middle" x="1119.5" y="-267.5" font-family="Helvetica,sans-Serif" font-size="10.00">::parse</text>
</a>
</g>
</g>
<!-- Node28&#45;&gt;Node29 -->
<g id="edge37" class="edge">
<title>Node28&#45;&gt;Node29</title>
<path fill="none" stroke="#63b8ff" d="M1235.92,-261.5C1217.47,-263.97 1197.78,-266.62 1179.98,-269.01"/>
<polygon fill="#63b8ff" stroke="#63b8ff" points="1236.28,-264.98 1245.72,-260.18 1235.35,-258.04 1236.28,-264.98"/>
</g>
<!-- Node30 -->
<g id="node30" class="node">
<title>Node30</title>
<g id="a_node30"><a xlink:href="a01999.html#a073b8313a5194aac3a7d5da0d935788c" target="_top" xlink:title=" ">
<polygon fill="white" stroke="#666666" points="1179.62,-243 1059.38,-243 1059.38,-211 1179.62,-211 1179.62,-243"/>
<text xml:space="preserve" text-anchor="start" x="1067.38" y="-229.5" font-family="Helvetica,sans-Serif" font-size="10.00">nlohmann::detail::parser</text>
<text xml:space="preserve" text-anchor="middle" x="1119.5" y="-217.5" font-family="Helvetica,sans-Serif" font-size="10.00">::sax_parse</text>
</a>
</g>
</g>
<!-- Node28&#45;&gt;Node30 -->
<g id="edge38" class="edge">
<title>Node28&#45;&gt;Node30</title>
<path fill="none" stroke="#63b8ff" d="M1235.92,-242.5C1217.47,-240.03 1197.78,-237.38 1179.98,-234.99"/>
<polygon fill="#63b8ff" stroke="#63b8ff" points="1235.35,-245.96 1245.72,-243.82 1236.28,-239.02 1235.35,-245.96"/>
</g>
<!-- Node31 -->
<g id="node31" class="node">
<title>Node31</title>
<g id="a_node31"><a xlink:href="a01999.html#a39784a586867c05388cb0adca0fd72b5" target="_top" xlink:title="public accept interface">
<polygon fill="white" stroke="#666666" points="991.5,-243 871.25,-243 871.25,-211 991.5,-211 991.5,-243"/>
<text xml:space="preserve" text-anchor="start" x="879.25" y="-229.5" font-family="Helvetica,sans-Serif" font-size="10.00">nlohmann::detail::parser</text>
<text xml:space="preserve" text-anchor="middle" x="931.38" y="-217.5" font-family="Helvetica,sans-Serif" font-size="10.00">::accept</text>
</a>
</g>
</g>
<!-- Node30&#45;&gt;Node31 -->
<g id="edge39" class="edge">
<title>Node30&#45;&gt;Node31</title>
<path fill="none" stroke="#63b8ff" d="M1047.8,-227C1029.35,-227 1009.65,-227 991.85,-227"/>
<polygon fill="#63b8ff" stroke="#63b8ff" points="1047.58,-230.5 1057.58,-227 1047.58,-223.5 1047.58,-230.5"/>
</g>
<!-- Node36&#45;&gt;Node13 -->
<g id="edge45" class="edge">
<title>Node36&#45;&gt;Node13</title>
<path fill="none" stroke="#63b8ff" d="M1252.58,-509.46C1246.53,-511.21 1240.48,-513.07 1234.75,-515 1208.32,-523.89 1179.27,-535.87 1157.08,-545.51"/>
<polygon fill="#63b8ff" stroke="#63b8ff" points="1253.26,-512.91 1261.95,-506.84 1251.37,-506.16 1253.26,-512.91"/>
</g>
<!-- Node37&#45;&gt;Node20 -->
<g id="edge47" class="edge">
<title>Node37&#45;&gt;Node20</title>
<path fill="none" stroke="#63b8ff" d="M681.99,-388.48C665.86,-383.85 648.8,-378.97 633.19,-374.49"/>
<polygon fill="#63b8ff" stroke="#63b8ff" points="680.95,-391.82 691.53,-391.21 682.88,-385.09 680.95,-391.82"/>
</g>
</g>
</svg>
