<?xml version="1.0" encoding="UTF-8" standalone="no"?>
<!DOCTYPE svg PUBLIC "-//W3C//DTD SVG 1.1//EN"
 "http://www.w3.org/Graphics/SVG/1.1/DTD/svg11.dtd">
<!-- Generated by graphviz version 13.1.2 (20250808.2320)
 -->
<!-- Title: HF::RayTracer::NanoRTRayTracer Pages: 1 -->
<svg width="1256pt" height="913pt"
 viewBox="0.00 0.00 1256.00 913.00" xmlns="http://www.w3.org/2000/svg" xmlns:xlink="http://www.w3.org/1999/xlink">
<g id="graph0" class="graph" transform="scale(1 1) rotate(0) translate(4 909.47)">
<title>HF::RayTracer::NanoRTRayTracer</title>
<!-- Node1 -->
<g id="node1" class="node">
<title>Node1</title>
<g id="a_node1"><a xlink:title=" ">
<polygon fill="#999999" stroke="#666666" points="1247.5,-457.07 1106.25,-457.07 1106.25,-425.07 1247.5,-425.07 1247.5,-457.07"/>
<text xml:space="preserve" text-anchor="start" x="1114.25" y="-443.57" font-family="Helvetica,sans-Serif" font-size="10.00">HF::RayTracer::NanoRTRay</text>
<text xml:space="preserve" text-anchor="middle" x="1176.88" y="-431.57" font-family="Helvetica,sans-Serif" font-size="10.00">Tracer</text>
</a>
</g>
</g>
<!-- Node2 -->
<g id="node2" class="node">
<title>Node2</title>
<g id="a_node2"><a xlink:title=" ">
<polygon fill="white" stroke="#666666" points="1005.75,-681.07 889.25,-681.07 889.25,-649.07 1005.75,-649.07 1005.75,-681.07"/>
<text xml:space="preserve" text-anchor="start" x="897.25" y="-667.57" font-family="Helvetica,sans-Serif" font-size="10.00">std::unique_ptr&lt; nanort</text>
<text xml:space="preserve" text-anchor="middle" x="947.5" y="-655.57" font-family="Helvetica,sans-Serif" font-size="10.00">::TriangleIntersector &gt;</text>
</a>
</g>
</g>
<!-- Node2&#45;&gt;Node1 -->
<g id="edge1" class="edge">
<title>Node2&#45;&gt;Node1</title>
<path fill="none" stroke="#9a32cd" stroke-dasharray="5,2" d="M1017.17,-660.13C1041.8,-655.4 1068.36,-646.52 1088.25,-630.07 1144.13,-583.86 1166.23,-494.1 1173.18,-457.36"/>
<polygon fill="#9a32cd" stroke="#9a32cd" points="1016.79,-656.65 1007.52,-661.78 1017.96,-663.55 1016.79,-656.65"/>
<text xml:space="preserve" text-anchor="middle" x="1063.88" y="-657.04" font-family="Helvetica,sans-Serif" font-size="10.00"> intersector</text>
</g>
<!-- Node3 -->
<g id="node3" class="node">
<title>Node3</title>
<g id="a_node3"><a xlink:href="a01499.html" target="_top" xlink:title=" ">
<polygon fill="white" stroke="#666666" points="797.75,-689.07 667.75,-689.07 667.75,-657.07 797.75,-657.07 797.75,-689.07"/>
<text xml:space="preserve" text-anchor="start" x="675.75" y="-675.57" font-family="Helvetica,sans-Serif" font-size="10.00">nanort::TriangleIntersector</text>
<text xml:space="preserve" text-anchor="middle" x="732.75" y="-663.57" font-family="Helvetica,sans-Serif" font-size="10.00">&lt; T, H &gt;</text>
</a>
</g>
</g>
<!-- Node3&#45;&gt;Node2 -->
<g id="edge2" class="edge">
<title>Node3&#45;&gt;Node2</title>
<path fill="none" stroke="#9a32cd" stroke-dasharray="5,2" d="M809.54,-670.22C835.63,-669.24 864.41,-668.16 888.82,-667.24"/>
<polygon fill="#9a32cd" stroke="#9a32cd" points="809.53,-666.72 799.67,-670.6 809.8,-673.72 809.53,-666.72"/>
<text xml:space="preserve" text-anchor="middle" x="835.62" y="-672.29" font-family="Helvetica,sans-Serif" font-size="10.00"> ptr</text>
</g>
<!-- Node4 -->
<g id="node4" class="node">
<title>Node4</title>
<g id="a_node4"><a xlink:title=" ">
<polygon fill="white" stroke="#666666" points="202.25,-834.07 167.5,-834.07 167.5,-814.07 202.25,-814.07 202.25,-834.07"/>
<text xml:space="preserve" text-anchor="middle" x="184.88" y="-820.57" font-family="Helvetica,sans-Serif" font-size="10.00">float</text>
</a>
</g>
</g>
<!-- Node4&#45;&gt;Node3 -->
<g id="edge3" class="edge">
<title>Node4&#45;&gt;Node3</title>
<path fill="none" stroke="#9a32cd" stroke-dasharray="5,2" d="M213.5,-829.75C290.19,-843.89 509.27,-873.2 649.75,-780.07 685.06,-756.67 711.43,-712.87 723.85,-689.22"/>
<polygon fill="#9a32cd" stroke="#9a32cd" points="214.42,-826.36 203.94,-827.91 213.1,-833.23 214.42,-826.36"/>
<text xml:space="preserve" text-anchor="middle" x="464.75" y="-895.97" font-family="Helvetica,sans-Serif" font-size="10.00"> t_</text>
<text xml:space="preserve" text-anchor="middle" x="464.75" y="-883.97" font-family="Helvetica,sans-Serif" font-size="10.00">t_min_</text>
<text xml:space="preserve" text-anchor="middle" x="464.75" y="-871.97" font-family="Helvetica,sans-Serif" font-size="10.00">u_</text>
<text xml:space="preserve" text-anchor="middle" x="464.75" y="-859.97" font-family="Helvetica,sans-Serif" font-size="10.00">v_</text>
<text xml:space="preserve" text-anchor="middle" x="464.75" y="-847.97" font-family="Helvetica,sans-Serif" font-size="10.00">vertices_</text>
</g>
<!-- Node7 -->
<g id="node7" class="node">
<title>Node7</title>
<g id="a_node7"><a xlink:href="a01443.html" target="_top" xlink:title=" ">
<polygon fill="white" stroke="#666666" points="518.12,-800.07 411.38,-800.07 411.38,-780.07 518.12,-780.07 518.12,-800.07"/>
<text xml:space="preserve" text-anchor="middle" x="464.75" y="-786.57" font-family="Helvetica,sans-Serif" font-size="10.00">nanort::real3&lt; float &gt;</text>
</a>
</g>
</g>
<!-- Node4&#45;&gt;Node7 -->
<g id="edge7" class="edge">
<title>Node4&#45;&gt;Node7</title>
<path fill="none" stroke="#9a32cd" stroke-dasharray="5,2" d="M213.96,-820.92C250.66,-816.76 316.92,-809.15 373.5,-802.07 385.73,-800.54 398.89,-798.83 411.27,-797.19"/>
<polygon fill="#9a32cd" stroke="#9a32cd" points="213.75,-817.42 204.21,-822.02 214.54,-824.38 213.75,-817.42"/>
<text xml:space="preserve" text-anchor="middle" x="319" y="-817.37" font-family="Helvetica,sans-Serif" font-size="10.00"> v</text>
</g>
<!-- Node22 -->
<g id="node22" class="node">
<title>Node22</title>
<g id="a_node22"><a xlink:href="a01463.html" target="_top" xlink:title="BVH build statistics.">
<polygon fill="white" stroke="#666666" points="531.25,-599.07 398.25,-599.07 398.25,-579.07 531.25,-579.07 531.25,-599.07"/>
<text xml:space="preserve" text-anchor="middle" x="464.75" y="-585.57" font-family="Helvetica,sans-Serif" font-size="10.00">nanort::BVHBuildStatistics</text>
</a>
</g>
</g>
<!-- Node4&#45;&gt;Node22 -->
<g id="edge33" class="edge">
<title>Node4&#45;&gt;Node22</title>
<path fill="none" stroke="#9a32cd" stroke-dasharray="5,2" d="M212.86,-812.58C225.05,-806 238.49,-796.55 246.5,-784.07 274.69,-740.17 232.4,-709.2 264.5,-668.07 296.85,-626.62 328.14,-648.67 373.5,-622.07 382.24,-616.95 382.41,-612.57 391.5,-608.07 398.36,-604.68 405.9,-601.85 413.43,-599.49"/>
<polygon fill="#9a32cd" stroke="#9a32cd" points="211.41,-809.39 203.99,-816.95 214.51,-815.67 211.41,-809.39"/>
<text xml:space="preserve" text-anchor="middle" x="319" y="-670.57" font-family="Helvetica,sans-Serif" font-size="10.00"> build_secs</text>
</g>
<!-- Node5 -->
<g id="node5" class="node">
<title>Node5</title>
<g id="a_node5"><a xlink:title=" ">
<polygon fill="white" stroke="#666666" points="199.28,-546.07 170.47,-546.07 170.47,-526.07 199.28,-526.07 199.28,-546.07"/>
<text xml:space="preserve" text-anchor="middle" x="184.88" y="-532.57" font-family="Helvetica,sans-Serif" font-size="10.00">int</text>
</a>
</g>
</g>
<!-- Node5&#45;&gt;Node3 -->
<g id="edge4" class="edge">
<title>Node5&#45;&gt;Node3</title>
<path fill="none" stroke="#9a32cd" stroke-dasharray="5,2" d="M192.46,-557.36C202.67,-586.26 225.34,-636.86 264.5,-659.07 298.6,-678.42 547.48,-676.54 667.44,-674.45"/>
<polygon fill="#9a32cd" stroke="#9a32cd" points="195.79,-556.27 189.31,-547.88 189.14,-558.47 195.79,-556.27"/>
<text xml:space="preserve" text-anchor="middle" x="464.75" y="-690.21" font-family="Helvetica,sans-Serif" font-size="10.00"> faces_</text>
<text xml:space="preserve" text-anchor="middle" x="464.75" y="-678.21" font-family="Helvetica,sans-Serif" font-size="10.00">prim_id_</text>
</g>
<!-- Node8 -->
<g id="node8" class="node">
<title>Node8</title>
<g id="a_node8"><a xlink:href="a01499.html#a01503" target="_top" xlink:title=" ">
<polygon fill="white" stroke="#666666" points="529.75,-747.07 399.75,-747.07 399.75,-715.07 529.75,-715.07 529.75,-747.07"/>
<text xml:space="preserve" text-anchor="start" x="407.75" y="-733.57" font-family="Helvetica,sans-Serif" font-size="10.00">nanort::TriangleIntersector</text>
<text xml:space="preserve" text-anchor="middle" x="464.75" y="-721.57" font-family="Helvetica,sans-Serif" font-size="10.00">&lt; T, H &gt;::RayCoeff</text>
</a>
</g>
</g>
<!-- Node5&#45;&gt;Node8 -->
<g id="edge10" class="edge">
<title>Node5&#45;&gt;Node8</title>
<path fill="none" stroke="#9a32cd" stroke-dasharray="5,2" d="M190.82,-557.39C199.61,-590.24 221.27,-652.72 264.5,-684.07 304.31,-712.95 325.7,-691.54 373.5,-703.07 387.06,-706.34 401.56,-710.53 414.89,-714.66"/>
<polygon fill="#9a32cd" stroke="#9a32cd" points="194.25,-556.7 188.42,-547.85 187.46,-558.4 194.25,-556.7"/>
<text xml:space="preserve" text-anchor="middle" x="319" y="-729.57" font-family="Helvetica,sans-Serif" font-size="10.00"> kx</text>
<text xml:space="preserve" text-anchor="middle" x="319" y="-717.57" font-family="Helvetica,sans-Serif" font-size="10.00">ky</text>
<text xml:space="preserve" text-anchor="middle" x="319" y="-705.57" font-family="Helvetica,sans-Serif" font-size="10.00">kz</text>
</g>
<!-- Node10 -->
<g id="node10" class="node">
<title>Node10</title>
<g id="a_node10"><a xlink:href="a01467.html" target="_top" xlink:title="BVH trace option.">
<polygon fill="white" stroke="#666666" points="529,-500.07 400.5,-500.07 400.5,-480.07 529,-480.07 529,-500.07"/>
<text xml:space="preserve" text-anchor="middle" x="464.75" y="-486.57" font-family="Helvetica,sans-Serif" font-size="10.00">nanort::BVHTraceOptions</text>
</a>
</g>
</g>
<!-- Node5&#45;&gt;Node10 -->
<g id="edge12" class="edge">
<title>Node5&#45;&gt;Node10</title>
<path fill="none" stroke="#9a32cd" stroke-dasharray="5,2" d="M210.39,-529.03C225.82,-524.81 246.2,-519.58 264.5,-516.07 309.55,-507.44 360.9,-500.81 400.18,-496.41"/>
<polygon fill="#9a32cd" stroke="#9a32cd" points="209.83,-525.56 201.14,-531.62 211.71,-532.3 209.83,-525.56"/>
<text xml:space="preserve" text-anchor="middle" x="319" y="-530.57" font-family="Helvetica,sans-Serif" font-size="10.00"> prim_ids_range</text>
<text xml:space="preserve" text-anchor="middle" x="319" y="-518.57" font-family="Helvetica,sans-Serif" font-size="10.00">skip_prim_id</text>
</g>
<!-- Node13 -->
<g id="node13" class="node">
<title>Node13</title>
<g id="a_node13"><a xlink:href="a01483.html" target="_top" xlink:title=" ">
<polygon fill="white" stroke="#666666" points="1021.5,-451.07 873.5,-451.07 873.5,-431.07 1021.5,-431.07 1021.5,-451.07"/>
<text xml:space="preserve" text-anchor="middle" x="947.5" y="-437.57" font-family="Helvetica,sans-Serif" font-size="10.00">nanort::BVHAccel&lt; vertex_t &gt;</text>
</a>
</g>
</g>
<!-- Node5&#45;&gt;Node13 -->
<g id="edge34" class="edge">
<title>Node5&#45;&gt;Node13</title>
<path fill="none" stroke="#9a32cd" stroke-dasharray="5,2" d="M208.75,-518.97C220.32,-510.06 234.44,-498.82 246.5,-488.07 254.95,-480.55 254.14,-474.63 264.5,-470.07 371.71,-422.97 719.83,-431.31 873.01,-437.56"/>
<polygon fill="#9a32cd" stroke="#9a32cd" points="206.77,-516.08 200.93,-524.92 211.01,-521.65 206.77,-516.08"/>
<text xml:space="preserve" text-anchor="middle" x="602.88" y="-436.17" font-family="Helvetica,sans-Serif" font-size="10.00"> pad0_</text>
</g>
<!-- Node15 -->
<g id="node15" class="node">
<title>Node15</title>
<g id="a_node15"><a xlink:href="a01451.html" target="_top" xlink:title=" ">
<polygon fill="white" stroke="#666666" points="538,-371.07 391.5,-371.07 391.5,-351.07 538,-351.07 538,-371.07"/>
<text xml:space="preserve" text-anchor="middle" x="464.75" y="-357.57" font-family="Helvetica,sans-Serif" font-size="10.00">nanort::BVHNode&lt; vertex_t &gt;</text>
</a>
</g>
</g>
<!-- Node5&#45;&gt;Node15 -->
<g id="edge19" class="edge">
<title>Node5&#45;&gt;Node15</title>
<path fill="none" stroke="#9a32cd" stroke-dasharray="5,2" d="M209.6,-523.38C222.67,-515.11 237.93,-503.06 246.5,-488.07 275.45,-437.44 220.52,-396.39 264.5,-358.07 283.41,-341.6 344.82,-344.75 394.52,-350.58"/>
<polygon fill="#9a32cd" stroke="#9a32cd" points="207.9,-520.32 201.07,-528.42 211.46,-526.35 207.9,-520.32"/>
<text xml:space="preserve" text-anchor="middle" x="319" y="-384.57" font-family="Helvetica,sans-Serif" font-size="10.00"> axis</text>
<text xml:space="preserve" text-anchor="middle" x="319" y="-372.57" font-family="Helvetica,sans-Serif" font-size="10.00">data</text>
<text xml:space="preserve" text-anchor="middle" x="319" y="-360.57" font-family="Helvetica,sans-Serif" font-size="10.00">flag</text>
</g>
<!-- Node17 -->
<g id="node17" class="node">
<title>Node17</title>
<g id="a_node17"><a xlink:title=" ">
<polygon fill="white" stroke="#666666" points="788,-547.07 677.5,-547.07 677.5,-515.07 788,-515.07 788,-547.07"/>
<text xml:space="preserve" text-anchor="start" x="685.5" y="-533.57" font-family="Helvetica,sans-Serif" font-size="10.00">std::vector&lt; unsigned</text>
<text xml:space="preserve" text-anchor="middle" x="732.75" y="-521.57" font-family="Helvetica,sans-Serif" font-size="10.00"> int &gt;</text>
</a>
</g>
</g>
<!-- Node5&#45;&gt;Node17 -->
<g id="edge21" class="edge">
<title>Node5&#45;&gt;Node17</title>
<path fill="none" stroke="#9a32cd" stroke-dasharray="5,2" d="M210.73,-537.66C226.19,-538.57 246.5,-539.62 264.5,-540.07 413.74,-543.87 589.83,-537.56 677.07,-533.71"/>
<polygon fill="#9a32cd" stroke="#9a32cd" points="211.21,-534.19 201.01,-537.07 210.78,-541.17 211.21,-534.19"/>
<text xml:space="preserve" text-anchor="middle" x="464.75" y="-543.67" font-family="Helvetica,sans-Serif" font-size="10.00"> elements</text>
</g>
<!-- Node21 -->
<g id="node21" class="node">
<title>Node21</title>
<g id="a_node21"><a xlink:href="a01459.html" target="_top" xlink:title=" ">
<polygon fill="white" stroke="#666666" points="527.5,-222.07 402,-222.07 402,-190.07 527.5,-190.07 527.5,-222.07"/>
<text xml:space="preserve" text-anchor="start" x="410" y="-208.57" font-family="Helvetica,sans-Serif" font-size="10.00">nanort::BVHBuildOptions</text>
<text xml:space="preserve" text-anchor="middle" x="464.75" y="-196.57" font-family="Helvetica,sans-Serif" font-size="10.00">&lt; vertex_t &gt;</text>
</a>
</g>
</g>
<!-- Node5&#45;&gt;Node21 -->
<g id="edge28" class="edge">
<title>Node5&#45;&gt;Node21</title>
<path fill="none" stroke="#9a32cd" stroke-dasharray="5,2" d="M209.67,-523.7C222.9,-515.49 238.3,-503.39 246.5,-488.07 269.45,-445.23 232.83,-306.95 264.5,-270.07 296.95,-232.29 326.17,-259.57 373.5,-244.07 392.08,-237.99 412.18,-229.71 428.68,-222.42"/>
<polygon fill="#9a32cd" stroke="#9a32cd" points="207.93,-520.67 201.02,-528.7 211.43,-526.73 207.93,-520.67"/>
<text xml:space="preserve" text-anchor="middle" x="319" y="-332.57" font-family="Helvetica,sans-Serif" font-size="10.00"> bin_size</text>
<text xml:space="preserve" text-anchor="middle" x="319" y="-320.57" font-family="Helvetica,sans-Serif" font-size="10.00">max_tree_depth</text>
<text xml:space="preserve" text-anchor="middle" x="319" y="-308.57" font-family="Helvetica,sans-Serif" font-size="10.00">min_leaf_primitives</text>
<text xml:space="preserve" text-anchor="start" x="277" y="-296.57" font-family="Helvetica,sans-Serif" font-size="10.00">min_primitives_for</text>
<text xml:space="preserve" text-anchor="middle" x="319" y="-284.57" font-family="Helvetica,sans-Serif" font-size="10.00">_parallel_build</text>
<text xml:space="preserve" text-anchor="middle" x="319" y="-272.57" font-family="Helvetica,sans-Serif" font-size="10.00">shallow_depth</text>
</g>
<!-- Node5&#45;&gt;Node22 -->
<g id="edge32" class="edge">
<title>Node5&#45;&gt;Node22</title>
<path fill="none" stroke="#9a32cd" stroke-dasharray="5,2" d="M209.94,-546.62C225.27,-552.91 245.72,-560.55 264.5,-565.07 308.36,-575.65 358.84,-581.67 398.01,-585.03"/>
<polygon fill="#9a32cd" stroke="#9a32cd" points="211.74,-543.58 201.16,-542.92 209.02,-550.03 211.74,-543.58"/>
<text xml:space="preserve" text-anchor="middle" x="319" y="-609.06" font-family="Helvetica,sans-Serif" font-size="10.00"> max_tree_depth</text>
<text xml:space="preserve" text-anchor="middle" x="319" y="-597.06" font-family="Helvetica,sans-Serif" font-size="10.00">num_branch_nodes</text>
<text xml:space="preserve" text-anchor="middle" x="319" y="-585.06" font-family="Helvetica,sans-Serif" font-size="10.00">num_leaf_nodes</text>
</g>
<!-- Node6 -->
<g id="node6" class="node">
<title>Node6</title>
<g id="a_node6"><a xlink:title=" ">
<polygon fill="white" stroke="#666666" points="485.88,-637.07 443.62,-637.07 443.62,-617.07 485.88,-617.07 485.88,-637.07"/>
<text xml:space="preserve" text-anchor="middle" x="464.75" y="-623.57" font-family="Helvetica,sans-Serif" font-size="10.00">size_t</text>
</a>
</g>
</g>
<!-- Node6&#45;&gt;Node3 -->
<g id="edge5" class="edge">
<title>Node6&#45;&gt;Node3</title>
<path fill="none" stroke="#9a32cd" stroke-dasharray="5,2" d="M497.59,-628.61C534.52,-630.84 597.07,-635.97 649.75,-647.07 661.44,-649.54 673.83,-653 685.35,-656.6"/>
<polygon fill="#9a32cd" stroke="#9a32cd" points="497.8,-625.12 487.62,-628.05 497.4,-632.11 497.8,-625.12"/>
<text xml:space="preserve" text-anchor="middle" x="602.88" y="-649.57" font-family="Helvetica,sans-Serif" font-size="10.00"> vertex_stride_bytes_</text>
</g>
<!-- Node7&#45;&gt;Node3 -->
<g id="edge6" class="edge">
<title>Node7&#45;&gt;Node3</title>
<path fill="none" stroke="#9a32cd" stroke-dasharray="5,2" d="M516.04,-776.6C553.81,-765.59 606.3,-748.39 649.75,-727.07 671.33,-716.49 694.01,-701.18 710.04,-689.57"/>
<polygon fill="#9a32cd" stroke="#9a32cd" points="515.41,-773.14 506.76,-779.26 517.34,-779.87 515.41,-773.14"/>
<text xml:space="preserve" text-anchor="middle" x="602.88" y="-766.64" font-family="Helvetica,sans-Serif" font-size="10.00"> ray_org_</text>
</g>
<!-- Node8&#45;&gt;Node3 -->
<g id="edge8" class="edge">
<title>Node8&#45;&gt;Node3</title>
<path fill="none" stroke="#9a32cd" stroke-dasharray="5,2" d="M541.14,-714.64C581.01,-705.94 629.43,-695.39 667.49,-687.09"/>
<polygon fill="#9a32cd" stroke="#9a32cd" points="540.64,-711.16 531.62,-716.71 542.14,-718 540.64,-711.16"/>
<text xml:space="preserve" text-anchor="middle" x="602.88" y="-713.16" font-family="Helvetica,sans-Serif" font-size="10.00"> ray_coeff_</text>
</g>
<!-- Node9 -->
<g id="node9" class="node">
<title>Node9</title>
<g id="a_node9"><a xlink:title=" ">
<polygon fill="white" stroke="#666666" points="199.28,-775.07 170.47,-775.07 170.47,-755.07 199.28,-755.07 199.28,-775.07"/>
<text xml:space="preserve" text-anchor="middle" x="184.88" y="-761.57" font-family="Helvetica,sans-Serif" font-size="10.00">T</text>
</a>
</g>
</g>
<!-- Node9&#45;&gt;Node8 -->
<g id="edge9" class="edge">
<title>Node9&#45;&gt;Node8</title>
<path fill="none" stroke="#9a32cd" stroke-dasharray="5,2" d="M210.83,-762.27C246.8,-758.21 315.28,-750.36 373.5,-743.07 381.97,-742.02 390.88,-740.87 399.67,-739.72"/>
<polygon fill="#9a32cd" stroke="#9a32cd" points="210.59,-758.78 201.04,-763.38 211.37,-765.73 210.59,-758.78"/>
<text xml:space="preserve" text-anchor="middle" x="319" y="-782.37" font-family="Helvetica,sans-Serif" font-size="10.00"> Sx</text>
<text xml:space="preserve" text-anchor="middle" x="319" y="-770.37" font-family="Helvetica,sans-Serif" font-size="10.00">Sy</text>
<text xml:space="preserve" text-anchor="middle" x="319" y="-758.37" font-family="Helvetica,sans-Serif" font-size="10.00">Sz</text>
</g>
<!-- Node10&#45;&gt;Node3 -->
<g id="edge11" class="edge">
<title>Node10&#45;&gt;Node3</title>
<path fill="none" stroke="#9a32cd" stroke-dasharray="5,2" d="M502.54,-504.91C514.17,-510.12 526.89,-516.36 538,-523.07 607.17,-564.88 680.39,-627.26 713.55,-656.64"/>
<polygon fill="#9a32cd" stroke="#9a32cd" points="504.19,-501.81 493.62,-501.04 501.4,-508.23 504.19,-501.81"/>
<text xml:space="preserve" text-anchor="middle" x="602.88" y="-602.71" font-family="Helvetica,sans-Serif" font-size="10.00"> trace_options_</text>
</g>
<!-- Node11 -->
<g id="node11" class="node">
<title>Node11</title>
<g id="a_node11"><a xlink:title=" ">
<polygon fill="white" stroke="#666666" points="201.88,-479.07 167.88,-479.07 167.88,-459.07 201.88,-459.07 201.88,-479.07"/>
<text xml:space="preserve" text-anchor="middle" x="184.88" y="-465.57" font-family="Helvetica,sans-Serif" font-size="10.00">bool</text>
</a>
</g>
</g>
<!-- Node11&#45;&gt;Node10 -->
<g id="edge13" class="edge">
<title>Node11&#45;&gt;Node10</title>
<path fill="none" stroke="#9a32cd" stroke-dasharray="5,2" d="M213.4,-470.53C249.99,-472.53 316.65,-476.42 373.5,-481.07 382.13,-481.78 391.22,-482.6 400.17,-483.45"/>
<polygon fill="#9a32cd" stroke="#9a32cd" points="213.89,-467.05 203.71,-470 213.51,-474.04 213.89,-467.05"/>
<text xml:space="preserve" text-anchor="middle" x="319" y="-483.57" font-family="Helvetica,sans-Serif" font-size="10.00"> cull_back_face</text>
</g>
<!-- Node11&#45;&gt;Node21 -->
<g id="edge29" class="edge">
<title>Node11&#45;&gt;Node21</title>
<path fill="none" stroke="#9a32cd" stroke-dasharray="5,2" d="M201.4,-449.88C215.63,-431.2 236.02,-401.4 246.5,-372.07 257.06,-342.54 242.34,-254.28 264.5,-232.07 299.62,-196.89 357.38,-192.82 401.69,-196.13"/>
<polygon fill="#9a32cd" stroke="#9a32cd" points="198.76,-447.59 195.36,-457.62 204.27,-451.9 198.76,-447.59"/>
<text xml:space="preserve" text-anchor="middle" x="319" y="-234.57" font-family="Helvetica,sans-Serif" font-size="10.00"> cache_bbox</text>
</g>
<!-- Node12 -->
<g id="node12" class="node">
<title>Node12</title>
<g id="a_node12"><a xlink:title=" ">
<polygon fill="white" stroke="#666666" points="223.25,-363.07 146.5,-363.07 146.5,-343.07 223.25,-343.07 223.25,-363.07"/>
<text xml:space="preserve" text-anchor="middle" x="184.88" y="-349.57" font-family="Helvetica,sans-Serif" font-size="10.00">unsigned char</text>
</a>
</g>
</g>
<!-- Node12&#45;&gt;Node10 -->
<g id="edge14" class="edge">
<title>Node12&#45;&gt;Node10</title>
<path fill="none" stroke="#9a32cd" stroke-dasharray="5,2" d="M212.8,-369.26C227.83,-378.1 247.01,-389.05 264.5,-398.07 326.47,-430.04 401.66,-463.32 439.5,-479.7"/>
<polygon fill="#9a32cd" stroke="#9a32cd" points="214.81,-366.38 204.42,-364.3 211.24,-372.41 214.81,-366.38"/>
<text xml:space="preserve" text-anchor="middle" x="319" y="-452.27" font-family="Helvetica,sans-Serif" font-size="10.00"> pad</text>
</g>
<!-- Node12&#45;&gt;Node21 -->
<g id="edge30" class="edge">
<title>Node12&#45;&gt;Node21</title>
<path fill="none" stroke="#9a32cd" stroke-dasharray="5,2" d="M201.62,-334.01C215.51,-316.22 235.24,-288.38 246.5,-261.07 261.88,-223.77 233.26,-197.63 264.5,-172.07 314.34,-131.3 395.11,-166.45 436.85,-189.63"/>
<polygon fill="#9a32cd" stroke="#9a32cd" points="199.05,-331.61 195.54,-341.61 204.52,-335.99 199.05,-331.61"/>
<text xml:space="preserve" text-anchor="middle" x="319" y="-174.57" font-family="Helvetica,sans-Serif" font-size="10.00"> pad</text>
</g>
<!-- Node13&#45;&gt;Node1 -->
<g id="edge15" class="edge">
<title>Node13&#45;&gt;Node1</title>
<path fill="none" stroke="#9a32cd" stroke-dasharray="5,2" d="M1032.95,-441.07C1056.97,-441.07 1082.86,-441.07 1105.92,-441.07"/>
<polygon fill="#9a32cd" stroke="#9a32cd" points="1033.21,-437.57 1023.21,-441.07 1033.21,-444.57 1033.21,-437.57"/>
<text xml:space="preserve" text-anchor="middle" x="1063.88" y="-443.57" font-family="Helvetica,sans-Serif" font-size="10.00"> bvh</text>
</g>
<!-- Node14 -->
<g id="node14" class="node">
<title>Node14</title>
<g id="a_node14"><a xlink:title=" ">
<polygon fill="white" stroke="#666666" points="797,-393.07 668.5,-393.07 668.5,-361.07 797,-361.07 797,-393.07"/>
<text xml:space="preserve" text-anchor="start" x="676.5" y="-379.57" font-family="Helvetica,sans-Serif" font-size="10.00">std::vector&lt; nanort</text>
<text xml:space="preserve" text-anchor="middle" x="732.75" y="-367.57" font-family="Helvetica,sans-Serif" font-size="10.00">::BVHNode&lt; vertex_t &gt; &gt;</text>
</a>
</g>
</g>
<!-- Node14&#45;&gt;Node13 -->
<g id="edge16" class="edge">
<title>Node14&#45;&gt;Node13</title>
<path fill="none" stroke="#9a32cd" stroke-dasharray="5,2" d="M799.3,-396.79C836.47,-407.98 881.5,-421.52 911.88,-430.66"/>
<polygon fill="#9a32cd" stroke="#9a32cd" points="800.57,-393.52 789.99,-393.99 798.56,-400.22 800.57,-393.52"/>
<text xml:space="preserve" text-anchor="middle" x="835.62" y="-415.41" font-family="Helvetica,sans-Serif" font-size="10.00"> nodes_</text>
</g>
<!-- Node15&#45;&gt;Node14 -->
<g id="edge17" class="edge">
<title>Node15&#45;&gt;Node14</title>
<path fill="none" stroke="#9a32cd" stroke-dasharray="5,2" d="M549.6,-366.12C587.96,-368.43 632.68,-371.12 668.21,-373.25"/>
<polygon fill="#9a32cd" stroke="#9a32cd" points="550.14,-362.64 539.95,-365.54 549.72,-369.63 550.14,-362.64"/>
<text xml:space="preserve" text-anchor="middle" x="602.88" y="-374.4" font-family="Helvetica,sans-Serif" font-size="10.00"> elements</text>
</g>
<!-- Node16 -->
<g id="node16" class="node">
<title>Node16</title>
<g id="a_node16"><a xlink:href="a00001.html#a02139" target="_top" xlink:title=" ">
<polygon fill="white" stroke="#666666" points="44.5,-104.07 0,-104.07 0,-84.07 44.5,-84.07 44.5,-104.07"/>
<text xml:space="preserve" text-anchor="middle" x="22.25" y="-90.57" font-family="Helvetica,sans-Serif" font-size="10.00">double</text>
</a>
</g>
</g>
<!-- Node16&#45;&gt;Node1 -->
<g id="edge35" class="edge">
<title>Node16&#45;&gt;Node1</title>
<path fill="none" stroke="#9a32cd" stroke-dasharray="5,2" d="M55.47,-81.8C87.53,-70.69 138.38,-56.07 183.88,-56.07 183.88,-56.07 183.88,-56.07 948.5,-56.07 1122.77,-56.07 1166.25,-352.16 1174.31,-425.02"/>
<polygon fill="#9a32cd" stroke="#9a32cd" points="54.62,-78.38 46.37,-85.04 56.97,-84.98 54.62,-78.38"/>
<text xml:space="preserve" text-anchor="middle" x="602.88" y="-58.57" font-family="Helvetica,sans-Serif" font-size="10.00"> min_dist</text>
</g>
<!-- Node16&#45;&gt;Node15 -->
<g id="edge18" class="edge">
<title>Node16&#45;&gt;Node15</title>
<path fill="none" stroke="#9a32cd" stroke-dasharray="5,2" d="M41.13,-112.13C47.53,-118 55.01,-124.24 62.5,-129.07 145.05,-182.42 171.69,-186.73 264.5,-219.07 311.73,-235.53 331.56,-219.82 373.5,-247.07 415.62,-274.45 446.79,-328.15 458.58,-350.71"/>
<polygon fill="#9a32cd" stroke="#9a32cd" points="43.93,-109.96 34.28,-105.58 39.09,-115.02 43.93,-109.96"/>
<text xml:space="preserve" text-anchor="middle" x="184.88" y="-226.5" font-family="Helvetica,sans-Serif" font-size="10.00"> bmax</text>
<text xml:space="preserve" text-anchor="middle" x="184.88" y="-214.5" font-family="Helvetica,sans-Serif" font-size="10.00">bmin</text>
</g>
<!-- Node20 -->
<g id="node20" class="node">
<title>Node20</title>
<g id="a_node20"><a xlink:href="a01443.html" target="_top" xlink:title=" ">
<polygon fill="white" stroke="#666666" points="246.5,-104.07 123.25,-104.07 123.25,-84.07 246.5,-84.07 246.5,-104.07"/>
<text xml:space="preserve" text-anchor="middle" x="184.88" y="-90.57" font-family="Helvetica,sans-Serif" font-size="10.00">nanort::real3&lt; vertex_t &gt;</text>
</a>
</g>
</g>
<!-- Node16&#45;&gt;Node20 -->
<g id="edge25" class="edge">
<title>Node16&#45;&gt;Node20</title>
<path fill="none" stroke="#9a32cd" stroke-dasharray="5,2" d="M56.34,-94.07C75.51,-94.07 100.25,-94.07 122.83,-94.07"/>
<polygon fill="#9a32cd" stroke="#9a32cd" points="56.43,-90.57 46.43,-94.07 56.43,-97.57 56.43,-90.57"/>
<text xml:space="preserve" text-anchor="middle" x="83.88" y="-96.57" font-family="Helvetica,sans-Serif" font-size="10.00"> v</text>
</g>
<!-- Node16&#45;&gt;Node21 -->
<g id="edge27" class="edge">
<title>Node16&#45;&gt;Node21</title>
<path fill="none" stroke="#9a32cd" stroke-dasharray="5,2" d="M55.58,-107.99C57.9,-108.76 60.22,-109.47 62.5,-110.07 197.27,-146.02 241.86,-105.99 373.5,-152.07 398.66,-160.88 424.48,-177.21 442.02,-189.61"/>
<polygon fill="#9a32cd" stroke="#9a32cd" points="56.93,-104.76 46.34,-104.57 54.5,-111.32 56.93,-104.76"/>
<text xml:space="preserve" text-anchor="middle" x="184.88" y="-130.24" font-family="Helvetica,sans-Serif" font-size="10.00"> cost_t_aabb</text>
</g>
<!-- Node23 -->
<g id="node23" class="node">
<title>Node23</title>
<g id="a_node23"><a xlink:title=" ">
<polygon fill="white" stroke="#666666" points="373.5,-27.07 264.5,-27.07 264.5,-7.07 373.5,-7.07 373.5,-27.07"/>
<text xml:space="preserve" text-anchor="middle" x="319" y="-13.57" font-family="Helvetica,sans-Serif" font-size="10.00">std::vector&lt; double &gt;</text>
</a>
</g>
</g>
<!-- Node16&#45;&gt;Node23 -->
<g id="edge37" class="edge">
<title>Node16&#45;&gt;Node23</title>
<path fill="none" stroke="#9a32cd" stroke-dasharray="5,2" d="M30.2,-72.93C36.24,-58.19 46.58,-39.53 62.5,-30.07 125.33,7.22 212.91,1.96 267.49,-6.58"/>
<polygon fill="#9a32cd" stroke="#9a32cd" points="26.94,-71.66 26.76,-82.25 33.51,-74.08 26.94,-71.66"/>
<text xml:space="preserve" text-anchor="middle" x="83.88" y="-32.57" font-family="Helvetica,sans-Serif" font-size="10.00"> elements</text>
</g>
<!-- Node17&#45;&gt;Node1 -->
<g id="edge38" class="edge">
<title>Node17&#45;&gt;Node1</title>
<path fill="none" stroke="#9a32cd" stroke-dasharray="5,2" d="M799.73,-520.21C817.84,-517.08 837.45,-513.57 855.5,-510.07 942.08,-493.29 1041.26,-471.54 1106.05,-456.98"/>
<polygon fill="#9a32cd" stroke="#9a32cd" points="799.14,-516.76 789.88,-521.89 800.32,-523.66 799.14,-516.76"/>
<text xml:space="preserve" text-anchor="middle" x="947.5" y="-508.8" font-family="Helvetica,sans-Serif" font-size="10.00"> indices</text>
</g>
<!-- Node17&#45;&gt;Node13 -->
<g id="edge20" class="edge">
<title>Node17&#45;&gt;Node13</title>
<path fill="none" stroke="#9a32cd" stroke-dasharray="5,2" d="M782.64,-510.39C826.13,-492 887.95,-465.84 921.87,-451.5"/>
<polygon fill="#9a32cd" stroke="#9a32cd" points="781.52,-507.07 773.67,-514.19 784.24,-513.51 781.52,-507.07"/>
<text xml:space="preserve" text-anchor="middle" x="835.62" y="-496.64" font-family="Helvetica,sans-Serif" font-size="10.00"> indices_</text>
</g>
<!-- Node18 -->
<g id="node18" class="node">
<title>Node18</title>
<g id="a_node18"><a xlink:title=" ">
<polygon fill="white" stroke="#666666" points="786.88,-220.07 678.62,-220.07 678.62,-188.07 786.88,-188.07 786.88,-220.07"/>
<text xml:space="preserve" text-anchor="start" x="686.62" y="-206.57" font-family="Helvetica,sans-Serif" font-size="10.00">std::vector&lt; nanort</text>
<text xml:space="preserve" text-anchor="middle" x="732.75" y="-194.57" font-family="Helvetica,sans-Serif" font-size="10.00">::BBox&lt; vertex_t &gt; &gt;</text>
</a>
</g>
</g>
<!-- Node18&#45;&gt;Node13 -->
<g id="edge22" class="edge">
<title>Node18&#45;&gt;Node13</title>
<path fill="none" stroke="#9a32cd" stroke-dasharray="5,2" d="M780.03,-225.84C804.58,-239.02 834.02,-257.63 855.5,-280.07 901.46,-328.08 932.59,-403.72 942.83,-430.91"/>
<polygon fill="#9a32cd" stroke="#9a32cd" points="781.67,-222.74 771.19,-221.22 778.43,-228.95 781.67,-222.74"/>
<text xml:space="preserve" text-anchor="middle" x="835.62" y="-282.57" font-family="Helvetica,sans-Serif" font-size="10.00"> bboxes_</text>
</g>
<!-- Node19 -->
<g id="node19" class="node">
<title>Node19</title>
<g id="a_node19"><a xlink:href="a01471.html" target="_top" xlink:title=" ">
<polygon fill="white" stroke="#666666" points="527.88,-140.07 401.62,-140.07 401.62,-120.07 527.88,-120.07 527.88,-140.07"/>
<text xml:space="preserve" text-anchor="middle" x="464.75" y="-126.57" font-family="Helvetica,sans-Serif" font-size="10.00">nanort::BBox&lt; vertex_t &gt;</text>
</a>
</g>
</g>
<!-- Node19&#45;&gt;Node18 -->
<g id="edge23" class="edge">
<title>Node19&#45;&gt;Node18</title>
<path fill="none" stroke="#9a32cd" stroke-dasharray="5,2" d="M514.26,-143.57C560.63,-156.47 630.37,-175.87 678.31,-189.21"/>
<polygon fill="#9a32cd" stroke="#9a32cd" points="515.33,-140.23 504.76,-140.93 513.45,-146.98 515.33,-140.23"/>
<text xml:space="preserve" text-anchor="middle" x="602.88" y="-182.64" font-family="Helvetica,sans-Serif" font-size="10.00"> elements</text>
</g>
<!-- Node20&#45;&gt;Node19 -->
<g id="edge24" class="edge">
<title>Node20&#45;&gt;Node19</title>
<path fill="none" stroke="#9a32cd" stroke-dasharray="5,2" d="M257.87,-91.54C293,-91.53 335.72,-93.34 373.5,-100.07 396.26,-104.13 421.11,-112.72 438.97,-119.68"/>
<polygon fill="#9a32cd" stroke="#9a32cd" points="258.24,-88.04 248.26,-91.6 258.28,-95.04 258.24,-88.04"/>
<text xml:space="preserve" text-anchor="middle" x="319" y="-114.57" font-family="Helvetica,sans-Serif" font-size="10.00"> bmax</text>
<text xml:space="preserve" text-anchor="middle" x="319" y="-102.57" font-family="Helvetica,sans-Serif" font-size="10.00">bmin</text>
</g>
<!-- Node21&#45;&gt;Node13 -->
<g id="edge26" class="edge">
<title>Node21&#45;&gt;Node13</title>
<path fill="none" stroke="#9a32cd" stroke-dasharray="5,2" d="M526.4,-226.16C594.31,-249.65 706.78,-291.55 797.75,-340.07 850.63,-368.28 907.86,-410.99 933.17,-430.58"/>
<polygon fill="#9a32cd" stroke="#9a32cd" points="527.92,-222.98 517.32,-223.04 525.64,-229.6 527.92,-222.98"/>
<text xml:space="preserve" text-anchor="middle" x="732.75" y="-342.57" font-family="Helvetica,sans-Serif" font-size="10.00"> options_</text>
</g>
<!-- Node22&#45;&gt;Node13 -->
<g id="edge31" class="edge">
<title>Node22&#45;&gt;Node13</title>
<path fill="none" stroke="#9a32cd" stroke-dasharray="5,2" d="M542.95,-594.34C612.42,-596.14 715.86,-591.35 797.75,-556.07 827.89,-543.09 835.12,-535.79 855.5,-510.07 867.11,-495.43 860.02,-485.02 873.5,-472.07 883.04,-462.92 895.68,-456.27 907.77,-451.54"/>
<polygon fill="#9a32cd" stroke="#9a32cd" points="543.29,-590.85 533.18,-594.04 543.07,-597.85 543.29,-590.85"/>
<text xml:space="preserve" text-anchor="middle" x="732.75" y="-590.96" font-family="Helvetica,sans-Serif" font-size="10.00"> stats_</text>
</g>
<!-- Node23&#45;&gt;Node1 -->
<g id="edge36" class="edge">
<title>Node23&#45;&gt;Node1</title>
<path fill="none" stroke="#9a32cd" stroke-dasharray="5,2" d="M385.17,-16.71C442.3,-16.43 527.59,-16.07 601.88,-16.07 601.88,-16.07 601.88,-16.07 948.5,-16.07 1011.68,-16.07 1042.86,1.87 1088.25,-42.07 1144.81,-96.84 1169.17,-356.67 1174.64,-424.73"/>
<polygon fill="#9a32cd" stroke="#9a32cd" points="385.27,-13.21 375.29,-16.76 385.31,-20.21 385.27,-13.21"/>
<text xml:space="preserve" text-anchor="middle" x="732.75" y="-18.57" font-family="Helvetica,sans-Serif" font-size="10.00"> vertices</text>
</g>
</g>
</svg>
