<?xml version="1.0" encoding="UTF-8" standalone="no"?>
<!DOCTYPE svg PUBLIC "-//W3C//DTD SVG 1.1//EN"
 "http://www.w3.org/Graphics/SVG/1.1/DTD/svg11.dtd">
<!-- Generated by graphviz version 13.1.2 (20250808.2320)
 -->
<!-- Title: HF::SpatialStructures::Graph Pages: 1 -->
<svg width="847pt" height="569pt"
 viewBox="0.00 0.00 847.00 569.00" xmlns="http://www.w3.org/2000/svg" xmlns:xlink="http://www.w3.org/1999/xlink">
<g id="graph0" class="graph" transform="scale(1 1) rotate(0) translate(4 565.26)">
<title>HF::SpatialStructures::Graph</title>
<!-- Node1 -->
<g id="node1" class="node">
<title>Node1</title>
<g id="a_node1"><a xlink:title="A Graph of nodes connected by edges that supports both integers and HF::SpatialStructures::Node.">
<polygon fill="#999999" stroke="#666666" points="839,-270 728.5,-270 728.5,-238 839,-238 839,-270"/>
<text xml:space="preserve" text-anchor="start" x="736.5" y="-256.5" font-family="Helvetica,sans-Serif" font-size="10.00">HF::SpatialStructures</text>
<text xml:space="preserve" text-anchor="middle" x="783.75" y="-244.5" font-family="Helvetica,sans-Serif" font-size="10.00">::Graph</text>
</a>
</g>
</g>
<!-- Node2 -->
<g id="node2" class="node">
<title>Node2</title>
<g id="a_node2"><a xlink:title=" ">
<polygon fill="white" stroke="#666666" points="177.53,-531 148.72,-531 148.72,-511 177.53,-511 177.53,-531"/>
<text xml:space="preserve" text-anchor="middle" x="163.12" y="-517.5" font-family="Helvetica,sans-Serif" font-size="10.00">int</text>
</a>
</g>
</g>
<!-- Node2&#45;&gt;Node1 -->
<g id="edge1" class="edge">
<title>Node2&#45;&gt;Node1</title>
<path fill="none" stroke="#9a32cd" stroke-dasharray="5,2" d="M188.72,-526.7C273.24,-544.7 555.08,-591.54 710.5,-456 767.34,-406.43 779.47,-308.89 782.05,-270.28"/>
<polygon fill="#9a32cd" stroke="#9a32cd" points="189.72,-523.33 179.2,-524.6 188.21,-530.17 189.72,-523.33"/>
<text xml:space="preserve" text-anchor="middle" x="425.62" y="-551.76" font-family="Helvetica,sans-Serif" font-size="10.00"> next_id</text>
</g>
<!-- Node4 -->
<g id="node4" class="node">
<title>Node4</title>
<g id="a_node4"><a xlink:href="a02071.html" target="_top" xlink:title="A point in space with an ID.">
<polygon fill="white" stroke="#666666" points="386.25,-473 275.75,-473 275.75,-441 386.25,-441 386.25,-473"/>
<text xml:space="preserve" text-anchor="start" x="283.75" y="-459.5" font-family="Helvetica,sans-Serif" font-size="10.00">HF::SpatialStructures</text>
<text xml:space="preserve" text-anchor="middle" x="331" y="-447.5" font-family="Helvetica,sans-Serif" font-size="10.00">::Node</text>
</a>
</g>
</g>
<!-- Node2&#45;&gt;Node4 -->
<g id="edge6" class="edge">
<title>Node2&#45;&gt;Node4</title>
<path fill="none" stroke="#9a32cd" stroke-dasharray="5,2" d="M188.44,-510.96C201.03,-505.8 216.68,-499.47 230.75,-494 248.4,-487.13 267.92,-479.8 284.94,-473.49"/>
<polygon fill="#9a32cd" stroke="#9a32cd" points="187.18,-507.69 179.26,-514.73 189.84,-514.16 187.18,-507.69"/>
<text xml:space="preserve" text-anchor="middle" x="244.25" y="-496.5" font-family="Helvetica,sans-Serif" font-size="10.00"> id</text>
</g>
<!-- Node3 -->
<g id="node3" class="node">
<title>Node3</title>
<g id="a_node3"><a xlink:title=" ">
<polygon fill="white" stroke="#666666" points="593.5,-470 472.5,-470 472.5,-438 593.5,-438 593.5,-470"/>
<text xml:space="preserve" text-anchor="start" x="480.5" y="-456.5" font-family="Helvetica,sans-Serif" font-size="10.00">std::vector&lt; HF::Spatial</text>
<text xml:space="preserve" text-anchor="middle" x="533" y="-444.5" font-family="Helvetica,sans-Serif" font-size="10.00">Structures::Node &gt;</text>
</a>
</g>
</g>
<!-- Node3&#45;&gt;Node1 -->
<g id="edge2" class="edge">
<title>Node3&#45;&gt;Node1</title>
<path fill="none" stroke="#9a32cd" stroke-dasharray="5,2" d="M604.86,-444.28C639.9,-436.43 680.91,-422.31 710.5,-397 750.87,-362.46 771.22,-299.86 778.95,-270.3"/>
<polygon fill="#9a32cd" stroke="#9a32cd" points="604.26,-440.83 595.19,-446.3 605.7,-447.68 604.26,-440.83"/>
<text xml:space="preserve" text-anchor="middle" x="664.75" y="-442.71" font-family="Helvetica,sans-Serif" font-size="10.00"> ordered_nodes</text>
</g>
<!-- Node4&#45;&gt;Node3 -->
<g id="edge3" class="edge">
<title>Node4&#45;&gt;Node3</title>
<path fill="none" stroke="#9a32cd" stroke-dasharray="5,2" d="M398.12,-456.01C422.01,-455.65 448.82,-455.25 472.15,-454.9"/>
<polygon fill="#9a32cd" stroke="#9a32cd" points="398.11,-452.51 388.16,-456.16 398.22,-459.51 398.11,-452.51"/>
<text xml:space="preserve" text-anchor="middle" x="425.62" y="-458.36" font-family="Helvetica,sans-Serif" font-size="10.00"> elements</text>
</g>
<!-- Node5 -->
<g id="node5" class="node">
<title>Node5</title>
<g id="a_node5"><a xlink:title=" ">
<polygon fill="white" stroke="#666666" points="34.75,-425 0,-425 0,-405 34.75,-405 34.75,-425"/>
<text xml:space="preserve" text-anchor="middle" x="17.38" y="-411.5" font-family="Helvetica,sans-Serif" font-size="10.00">float</text>
</a>
</g>
</g>
<!-- Node5&#45;&gt;Node4 -->
<g id="edge4" class="edge">
<title>Node5&#45;&gt;Node4</title>
<path fill="none" stroke="#9a32cd" stroke-dasharray="5,2" d="M46.41,-419.95C48.56,-420.32 50.69,-420.67 52.75,-421 79.7,-425.35 86.46,-426.31 113.5,-430 168.67,-437.53 231.87,-445.31 275.68,-450.58"/>
<polygon fill="#9a32cd" stroke="#9a32cd" points="47.09,-416.52 36.64,-418.27 45.9,-423.42 47.09,-416.52"/>
<text xml:space="preserve" text-anchor="middle" x="163.12" y="-469.32" font-family="Helvetica,sans-Serif" font-size="10.00"> x</text>
<text xml:space="preserve" text-anchor="middle" x="163.12" y="-457.32" font-family="Helvetica,sans-Serif" font-size="10.00">y</text>
<text xml:space="preserve" text-anchor="middle" x="163.12" y="-445.32" font-family="Helvetica,sans-Serif" font-size="10.00">z</text>
</g>
<!-- Node18 -->
<g id="node18" class="node">
<title>Node18</title>
<g id="a_node18"><a xlink:title=" ">
<polygon fill="white" stroke="#666666" points="212.75,-383 113.5,-383 113.5,-363 212.75,-363 212.75,-383"/>
<text xml:space="preserve" text-anchor="middle" x="163.12" y="-369.5" font-family="Helvetica,sans-Serif" font-size="10.00">std::vector&lt; float &gt;</text>
</a>
</g>
</g>
<!-- Node5&#45;&gt;Node18 -->
<g id="edge20" class="edge">
<title>Node5&#45;&gt;Node18</title>
<path fill="none" stroke="#9a32cd" stroke-dasharray="5,2" d="M46.11,-406.9C68.94,-400.23 101.46,-390.72 126.27,-383.48"/>
<polygon fill="#9a32cd" stroke="#9a32cd" points="45.22,-403.51 36.6,-409.68 47.18,-410.23 45.22,-403.51"/>
<text xml:space="preserve" text-anchor="middle" x="74.12" y="-407.35" font-family="Helvetica,sans-Serif" font-size="10.00"> elements</text>
</g>
<!-- Node6 -->
<g id="node6" class="node">
<title>Node6</title>
<g id="a_node6"><a xlink:title=" ">
<polygon fill="white" stroke="#666666" points="182,-421 144.25,-421 144.25,-401 182,-401 182,-421"/>
<text xml:space="preserve" text-anchor="middle" x="163.12" y="-407.5" font-family="Helvetica,sans-Serif" font-size="10.00">short</text>
</a>
</g>
</g>
<!-- Node6&#45;&gt;Node4 -->
<g id="edge5" class="edge">
<title>Node6&#45;&gt;Node4</title>
<path fill="none" stroke="#9a32cd" stroke-dasharray="5,2" d="M193.52,-416.22C212.09,-419.78 236.51,-424.94 257.75,-431 267.36,-433.74 277.55,-437.11 287.14,-440.5"/>
<polygon fill="#9a32cd" stroke="#9a32cd" points="194.21,-412.79 183.74,-414.4 192.93,-419.67 194.21,-412.79"/>
<text xml:space="preserve" text-anchor="middle" x="244.25" y="-433.5" font-family="Helvetica,sans-Serif" font-size="10.00"> type</text>
</g>
<!-- Node7 -->
<g id="node7" class="node">
<title>Node7</title>
<g id="a_node7"><a xlink:title=" ">
<polygon fill="white" stroke="#666666" points="594.62,-294 471.38,-294 471.38,-250 594.62,-250 594.62,-294"/>
<text xml:space="preserve" text-anchor="start" x="479.38" y="-280.5" font-family="Helvetica,sans-Serif" font-size="10.00">unordered_map&lt; HF::</text>
<text xml:space="preserve" text-anchor="start" x="479.38" y="-268.5" font-family="Helvetica,sans-Serif" font-size="10.00">SpatialStructures::Node,</text>
<text xml:space="preserve" text-anchor="middle" x="533" y="-256.5" font-family="Helvetica,sans-Serif" font-size="10.00"> int &gt;</text>
</a>
</g>
</g>
<!-- Node7&#45;&gt;Node1 -->
<g id="edge7" class="edge">
<title>Node7&#45;&gt;Node1</title>
<path fill="none" stroke="#9a32cd" stroke-dasharray="5,2" d="M606.1,-266.78C644.99,-263.97 692.21,-260.55 728.04,-257.96"/>
<polygon fill="#9a32cd" stroke="#9a32cd" points="606.08,-263.27 596.36,-267.49 606.59,-270.26 606.08,-263.27"/>
<text xml:space="preserve" text-anchor="middle" x="664.75" y="-268.16" font-family="Helvetica,sans-Serif" font-size="10.00"> idmap</text>
</g>
<!-- Node8 -->
<g id="node8" class="node">
<title>Node8</title>
<g id="a_node8"><a xlink:title=" ">
<polygon fill="white" stroke="#666666" points="581.12,-232 484.88,-232 484.88,-200 581.12,-200 581.12,-232"/>
<text xml:space="preserve" text-anchor="start" x="492.88" y="-218.5" font-family="Helvetica,sans-Serif" font-size="10.00">std::vector&lt; Eigen</text>
<text xml:space="preserve" text-anchor="middle" x="533" y="-206.5" font-family="Helvetica,sans-Serif" font-size="10.00">::Triplet&lt; float &gt; &gt;</text>
</a>
</g>
</g>
<!-- Node8&#45;&gt;Node1 -->
<g id="edge8" class="edge">
<title>Node8&#45;&gt;Node1</title>
<path fill="none" stroke="#9a32cd" stroke-dasharray="5,2" d="M592.57,-224.95C633.61,-231.22 688.07,-239.54 728.19,-245.67"/>
<polygon fill="#9a32cd" stroke="#9a32cd" points="593.28,-221.52 582.87,-223.47 592.23,-228.44 593.28,-221.52"/>
<text xml:space="preserve" text-anchor="middle" x="664.75" y="-245.27" font-family="Helvetica,sans-Serif" font-size="10.00"> triplets</text>
</g>
<!-- Node9 -->
<g id="node9" class="node">
<title>Node9</title>
<g id="a_node9"><a xlink:title=" ">
<polygon fill="white" stroke="#666666" points="370.88,-226 291.12,-226 291.12,-206 370.88,-206 370.88,-226"/>
<text xml:space="preserve" text-anchor="middle" x="331" y="-212.5" font-family="Helvetica,sans-Serif" font-size="10.00">Triplet&lt; float &gt;</text>
</a>
</g>
</g>
<!-- Node9&#45;&gt;Node8 -->
<g id="edge9" class="edge">
<title>Node9&#45;&gt;Node8</title>
<path fill="none" stroke="#9a32cd" stroke-dasharray="5,2" d="M382.17,-216C413.56,-216 453.75,-216 484.6,-216"/>
<polygon fill="#9a32cd" stroke="#9a32cd" points="382.55,-212.5 372.55,-216 382.55,-219.5 382.55,-212.5"/>
<text xml:space="preserve" text-anchor="middle" x="425.62" y="-218.5" font-family="Helvetica,sans-Serif" font-size="10.00"> elements</text>
</g>
<!-- Node10 -->
<g id="node10" class="node">
<title>Node10</title>
<g id="a_node10"><a xlink:title=" ">
<polygon fill="white" stroke="#666666" points="550,-182 516,-182 516,-162 550,-162 550,-182"/>
<text xml:space="preserve" text-anchor="middle" x="533" y="-168.5" font-family="Helvetica,sans-Serif" font-size="10.00">bool</text>
</a>
</g>
</g>
<!-- Node10&#45;&gt;Node1 -->
<g id="edge10" class="edge">
<title>Node10&#45;&gt;Node1</title>
<path fill="none" stroke="#9a32cd" stroke-dasharray="5,2" d="M561.45,-169.49C597.33,-167.33 661.38,-167.4 710.5,-189 735.06,-199.8 756.98,-222.26 770.07,-237.73"/>
<polygon fill="#9a32cd" stroke="#9a32cd" points="561.66,-165.97 551.93,-170.17 562.16,-172.95 561.66,-165.97"/>
<text xml:space="preserve" text-anchor="middle" x="664.75" y="-215.5" font-family="Helvetica,sans-Serif" font-size="10.00"> has_cost_arrays</text>
<text xml:space="preserve" text-anchor="middle" x="664.75" y="-203.5" font-family="Helvetica,sans-Serif" font-size="10.00">needs_compression</text>
<text xml:space="preserve" text-anchor="middle" x="664.75" y="-191.5" font-family="Helvetica,sans-Serif" font-size="10.00">nodes_out_of_order</text>
</g>
<!-- Node11 -->
<g id="node11" class="node">
<title>Node11</title>
<g id="a_node11"><a xlink:title=" ">
<polygon fill="white" stroke="#666666" points="601,-144 465,-144 465,-100 601,-100 601,-144"/>
<text xml:space="preserve" text-anchor="start" x="473" y="-130.5" font-family="Helvetica,sans-Serif" font-size="10.00">unordered_map&lt; std</text>
<text xml:space="preserve" text-anchor="start" x="473" y="-118.5" font-family="Helvetica,sans-Serif" font-size="10.00">::string, NodeAttributeValue</text>
<text xml:space="preserve" text-anchor="middle" x="533" y="-106.5" font-family="Helvetica,sans-Serif" font-size="10.00">Map &gt;</text>
</a>
</g>
</g>
<!-- Node11&#45;&gt;Node1 -->
<g id="edge11" class="edge">
<title>Node11&#45;&gt;Node1</title>
<path fill="none" stroke="#9a32cd" stroke-dasharray="5,2" d="M612.44,-123.53C644.84,-127.26 681.51,-135.73 710.5,-154 742.94,-174.44 765.34,-215.19 775.88,-237.85"/>
<polygon fill="#9a32cd" stroke="#9a32cd" points="612.98,-120.07 602.68,-122.55 612.28,-127.03 612.98,-120.07"/>
<text xml:space="preserve" text-anchor="middle" x="664.75" y="-156.5" font-family="Helvetica,sans-Serif" font-size="10.00"> node_attr_map</text>
</g>
<!-- Node12 -->
<g id="node12" class="node">
<title>Node12</title>
<g id="a_node12"><a xlink:title=" ">
<polygon fill="white" stroke="#666666" points="599.88,-82 466.12,-82 466.12,-38 599.88,-38 599.88,-82"/>
<text xml:space="preserve" text-anchor="start" x="474.12" y="-68.5" font-family="Helvetica,sans-Serif" font-size="10.00">unordered_map&lt; std</text>
<text xml:space="preserve" text-anchor="start" x="474.12" y="-56.5" font-family="Helvetica,sans-Serif" font-size="10.00">::string, NodeFloatAttribute</text>
<text xml:space="preserve" text-anchor="middle" x="533" y="-44.5" font-family="Helvetica,sans-Serif" font-size="10.00">ValueMap &gt;</text>
</a>
</g>
</g>
<!-- Node12&#45;&gt;Node1 -->
<g id="edge12" class="edge">
<title>Node12&#45;&gt;Node1</title>
<path fill="none" stroke="#9a32cd" stroke-dasharray="5,2" d="M611.17,-66.75C644.72,-73.04 682.63,-85.07 710.5,-108 752.43,-142.5 772.11,-207.37 779.32,-237.66"/>
<polygon fill="#9a32cd" stroke="#9a32cd" points="611.93,-63.33 601.48,-65.09 610.74,-70.23 611.93,-63.33"/>
<text xml:space="preserve" text-anchor="middle" x="664.75" y="-110.5" font-family="Helvetica,sans-Serif" font-size="10.00"> node_float_attr_map</text>
</g>
<!-- Node13 -->
<g id="node13" class="node">
<title>Node13</title>
<g id="a_node13"><a xlink:title=" ">
<polygon fill="white" stroke="#666666" points="360.75,-340 301.25,-340 301.25,-320 360.75,-320 360.75,-340"/>
<text xml:space="preserve" text-anchor="middle" x="331" y="-326.5" font-family="Helvetica,sans-Serif" font-size="10.00">std::string</text>
</a>
</g>
</g>
<!-- Node13&#45;&gt;Node1 -->
<g id="edge13" class="edge">
<title>Node13&#45;&gt;Node1</title>
<path fill="none" stroke="#9a32cd" stroke-dasharray="5,2" d="M372.46,-328.92C442.6,-326.16 590.73,-316.39 710.5,-282 721.62,-278.81 733.42,-274.6 744.19,-270.42"/>
<polygon fill="#9a32cd" stroke="#9a32cd" points="372.47,-325.42 362.61,-329.28 372.73,-332.41 372.47,-325.42"/>
<text xml:space="preserve" text-anchor="middle" x="533" y="-337.63" font-family="Helvetica,sans-Serif" font-size="10.00"> active_cost_type</text>
<text xml:space="preserve" text-anchor="middle" x="533" y="-325.63" font-family="Helvetica,sans-Serif" font-size="10.00">default_cost</text>
</g>
<!-- Node16 -->
<g id="node16" class="node">
<title>Node16</title>
<g id="a_node16"><a xlink:title=" ">
<polygon fill="white" stroke="#666666" points="600.25,-416 465.75,-416 465.75,-372 600.25,-372 600.25,-416"/>
<text xml:space="preserve" text-anchor="start" x="473.75" y="-402.5" font-family="Helvetica,sans-Serif" font-size="10.00">std::unordered_map</text>
<text xml:space="preserve" text-anchor="start" x="473.75" y="-390.5" font-family="Helvetica,sans-Serif" font-size="10.00">&lt; std::string, HF::Spatial</text>
<text xml:space="preserve" text-anchor="middle" x="533" y="-378.5" font-family="Helvetica,sans-Serif" font-size="10.00">Structures::EdgeCostSet &gt;</text>
</a>
</g>
</g>
<!-- Node13&#45;&gt;Node16 -->
<g id="edge17" class="edge">
<title>Node13&#45;&gt;Node16</title>
<path fill="none" stroke="#9a32cd" stroke-dasharray="5,2" d="M371.96,-342.79C398.74,-351.36 434.64,-362.85 465.66,-372.77"/>
<polygon fill="#9a32cd" stroke="#9a32cd" points="373.11,-339.48 362.52,-339.77 370.98,-346.15 373.11,-339.48"/>
<text xml:space="preserve" text-anchor="middle" x="425.62" y="-368.33" font-family="Helvetica,sans-Serif" font-size="10.00"> keys</text>
</g>
<!-- Node14 -->
<g id="node14" class="node">
<title>Node14</title>
<g id="a_node14"><a xlink:title=" ">
<polygon fill="white" stroke="#666666" points="210.12,-345 116.12,-345 116.12,-313 210.12,-313 210.12,-345"/>
<text xml:space="preserve" text-anchor="start" x="124.12" y="-331.5" font-family="Helvetica,sans-Serif" font-size="10.00">std::basic_string&lt;</text>
<text xml:space="preserve" text-anchor="middle" x="163.12" y="-319.5" font-family="Helvetica,sans-Serif" font-size="10.00"> Char &gt;</text>
</a>
</g>
</g>
<!-- Node14&#45;&gt;Node13 -->
<g id="edge14" class="edge">
<title>Node14&#45;&gt;Node13</title>
<path fill="none" stroke="#63b8ff" d="M221.58,-329.35C248.47,-329.51 279.33,-329.69 301.23,-329.83"/>
<polygon fill="#63b8ff" stroke="#63b8ff" points="221.86,-325.85 211.84,-329.29 221.82,-332.85 221.86,-325.85"/>
</g>
<!-- Node15 -->
<g id="node15" class="node">
<title>Node15</title>
<g id="a_node15"><a xlink:title=" ">
<polygon fill="white" stroke="#666666" points="593.88,-20 472.12,-20 472.12,0 593.88,0 593.88,-20"/>
<text xml:space="preserve" text-anchor="middle" x="533" y="-6.5" font-family="Helvetica,sans-Serif" font-size="10.00">SparseMatrix&lt; float, 1 &gt;</text>
</a>
</g>
</g>
<!-- Node15&#45;&gt;Node1 -->
<g id="edge15" class="edge">
<title>Node15&#45;&gt;Node1</title>
<path fill="none" stroke="#9a32cd" stroke-dasharray="5,2" d="M605.49,-11.93C640.89,-16.42 682.04,-27.41 710.5,-53 766.2,-103.08 778.98,-199.28 781.9,-237.63"/>
<polygon fill="#9a32cd" stroke="#9a32cd" points="606.04,-8.47 595.72,-10.86 605.28,-15.43 606.04,-8.47"/>
<text xml:space="preserve" text-anchor="middle" x="664.75" y="-55.5" font-family="Helvetica,sans-Serif" font-size="10.00"> edge_matrix</text>
</g>
<!-- Node16&#45;&gt;Node1 -->
<g id="edge16" class="edge">
<title>Node16&#45;&gt;Node1</title>
<path fill="none" stroke="#9a32cd" stroke-dasharray="5,2" d="M611.4,-382.83C643.96,-375.51 681.04,-363.52 710.5,-344 739.4,-324.85 762.23,-290.48 774,-270.21"/>
<polygon fill="#9a32cd" stroke="#9a32cd" points="611.09,-379.32 602.03,-384.83 612.54,-386.17 611.09,-379.32"/>
<text xml:space="preserve" text-anchor="middle" x="664.75" y="-383.56" font-family="Helvetica,sans-Serif" font-size="10.00"> edge_cost_maps</text>
</g>
<!-- Node17 -->
<g id="node17" class="node">
<title>Node17</title>
<g id="a_node17"><a xlink:href="a01547.html" target="_top" xlink:title="A set of edge costs for a graph.">
<polygon fill="white" stroke="#666666" points="386.25,-402 275.75,-402 275.75,-370 386.25,-370 386.25,-402"/>
<text xml:space="preserve" text-anchor="start" x="283.75" y="-388.5" font-family="Helvetica,sans-Serif" font-size="10.00">HF::SpatialStructures</text>
<text xml:space="preserve" text-anchor="middle" x="331" y="-376.5" font-family="Helvetica,sans-Serif" font-size="10.00">::EdgeCostSet</text>
</a>
</g>
</g>
<!-- Node17&#45;&gt;Node16 -->
<g id="edge18" class="edge">
<title>Node17&#45;&gt;Node16</title>
<path fill="none" stroke="#9a32cd" stroke-dasharray="5,2" d="M398.04,-388.64C419.64,-389.51 443.65,-390.47 465.3,-391.33"/>
<polygon fill="#9a32cd" stroke="#9a32cd" points="398.3,-385.15 388.16,-388.25 398.02,-392.14 398.3,-385.15"/>
<text xml:space="preserve" text-anchor="middle" x="425.62" y="-392.98" font-family="Helvetica,sans-Serif" font-size="10.00"> elements</text>
</g>
<!-- Node18&#45;&gt;Node17 -->
<g id="edge19" class="edge">
<title>Node18&#45;&gt;Node17</title>
<path fill="none" stroke="#9a32cd" stroke-dasharray="5,2" d="M224.58,-374.86C235.62,-375.41 247.04,-376.11 257.75,-377 263.54,-377.48 269.59,-378.08 275.61,-378.74"/>
<polygon fill="#9a32cd" stroke="#9a32cd" points="224.91,-371.37 214.76,-374.42 224.59,-378.37 224.91,-371.37"/>
<text xml:space="preserve" text-anchor="middle" x="244.25" y="-379.5" font-family="Helvetica,sans-Serif" font-size="10.00"> costs</text>
</g>
</g>
</svg>
