<?xml version="1.0" encoding="UTF-8" standalone="no"?>
<!DOCTYPE svg PUBLIC "-//W3C//DTD SVG 1.1//EN"
 "http://www.w3.org/Graphics/SVG/1.1/DTD/svg11.dtd">
<!-- Generated by graphviz version 13.1.2 (20250808.2320)
 -->
<!-- Title: nlohmann::detail::exception Pages: 1 -->
<svg width="414pt" height="240pt"
 viewBox="0.00 0.00 414.00 240.00" xmlns="http://www.w3.org/2000/svg" xmlns:xlink="http://www.w3.org/1999/xlink">
<g id="graph0" class="graph" transform="scale(1 1) rotate(0) translate(4 236)">
<title>nlohmann::detail::exception</title>
<!-- Node1 -->
<g id="node1" class="node">
<title>Node1</title>
<g id="a_node1"><a xlink:title="general exception of the basic_json class">
<polygon fill="#999999" stroke="#666666" points="248.75,-126 113.5,-126 113.5,-106 248.75,-106 248.75,-126"/>
<text xml:space="preserve" text-anchor="middle" x="181.12" y="-112.5" font-family="Helvetica,sans-Serif" font-size="10.00">nlohmann::detail::exception</text>
</a>
</g>
</g>
<!-- Node3 -->
<g id="node3" class="node">
<title>Node3</title>
<g id="a_node3"><a xlink:href="a01567.html" target="_top" xlink:title="exception indicating errors with iterators">
<polygon fill="white" stroke="#666666" points="405.75,-232 284.75,-232 284.75,-200 405.75,-200 405.75,-232"/>
<text xml:space="preserve" text-anchor="start" x="292.75" y="-218.5" font-family="Helvetica,sans-Serif" font-size="10.00">nlohmann::detail::invalid</text>
<text xml:space="preserve" text-anchor="middle" x="345.25" y="-206.5" font-family="Helvetica,sans-Serif" font-size="10.00">_iterator</text>
</a>
</g>
</g>
<!-- Node1&#45;&gt;Node3 -->
<g id="edge2" class="edge">
<title>Node1&#45;&gt;Node3</title>
<path fill="none" stroke="#63b8ff" d="M203.33,-133.78C223.41,-150.06 254.87,-174.11 284.75,-191 290.11,-194.03 295.92,-196.92 301.73,-199.57"/>
<polygon fill="#63b8ff" stroke="#63b8ff" points="205.55,-131.08 195.6,-127.44 201.11,-136.49 205.55,-131.08"/>
</g>
<!-- Node4 -->
<g id="node4" class="node">
<title>Node4</title>
<g id="a_node4"><a xlink:href="a01579.html" target="_top" xlink:title="exception indicating other library errors">
<polygon fill="white" stroke="#666666" points="402.75,-182 287.75,-182 287.75,-150 402.75,-150 402.75,-182"/>
<text xml:space="preserve" text-anchor="start" x="295.75" y="-168.5" font-family="Helvetica,sans-Serif" font-size="10.00">nlohmann::detail::other</text>
<text xml:space="preserve" text-anchor="middle" x="345.25" y="-156.5" font-family="Helvetica,sans-Serif" font-size="10.00">_error</text>
</a>
</g>
</g>
<!-- Node1&#45;&gt;Node4 -->
<g id="edge3" class="edge">
<title>Node1&#45;&gt;Node4</title>
<path fill="none" stroke="#63b8ff" d="M226.99,-129.84C246.77,-135.94 270.17,-143.15 290.84,-149.53"/>
<polygon fill="#63b8ff" stroke="#63b8ff" points="228.15,-126.53 217.56,-126.93 226.08,-133.22 228.15,-126.53"/>
</g>
<!-- Node5 -->
<g id="node5" class="node">
<title>Node5</title>
<g id="a_node5"><a xlink:href="a01575.html" target="_top" xlink:title="exception indicating access out of the defined range">
<polygon fill="white" stroke="#666666" points="398.62,-132 291.88,-132 291.88,-100 398.62,-100 398.62,-132"/>
<text xml:space="preserve" text-anchor="start" x="299.88" y="-118.5" font-family="Helvetica,sans-Serif" font-size="10.00">nlohmann::detail::out</text>
<text xml:space="preserve" text-anchor="middle" x="345.25" y="-106.5" font-family="Helvetica,sans-Serif" font-size="10.00">_of_range</text>
</a>
</g>
</g>
<!-- Node1&#45;&gt;Node5 -->
<g id="edge4" class="edge">
<title>Node1&#45;&gt;Node5</title>
<path fill="none" stroke="#63b8ff" d="M260.36,-116C270.87,-116 281.45,-116 291.39,-116"/>
<polygon fill="#63b8ff" stroke="#63b8ff" points="260.52,-112.5 250.52,-116 260.52,-119.5 260.52,-112.5"/>
</g>
<!-- Node6 -->
<g id="node6" class="node">
<title>Node6</title>
<g id="a_node6"><a xlink:href="a01563.html" target="_top" xlink:title="exception indicating a parse error">
<polygon fill="white" stroke="#666666" points="403.88,-82 286.62,-82 286.62,-50 403.88,-50 403.88,-82"/>
<text xml:space="preserve" text-anchor="start" x="294.62" y="-68.5" font-family="Helvetica,sans-Serif" font-size="10.00">nlohmann::detail::parse</text>
<text xml:space="preserve" text-anchor="middle" x="345.25" y="-56.5" font-family="Helvetica,sans-Serif" font-size="10.00">_error</text>
</a>
</g>
</g>
<!-- Node1&#45;&gt;Node6 -->
<g id="edge5" class="edge">
<title>Node1&#45;&gt;Node6</title>
<path fill="none" stroke="#63b8ff" d="M226.99,-102.16C246.77,-96.06 270.17,-88.85 290.84,-82.47"/>
<polygon fill="#63b8ff" stroke="#63b8ff" points="226.08,-98.78 217.56,-105.07 228.15,-105.47 226.08,-98.78"/>
</g>
<!-- Node7 -->
<g id="node7" class="node">
<title>Node7</title>
<g id="a_node7"><a xlink:href="a01571.html" target="_top" xlink:title="exception indicating executing a member function with a wrong type">
<polygon fill="white" stroke="#666666" points="401.25,-32 289.25,-32 289.25,0 401.25,0 401.25,-32"/>
<text xml:space="preserve" text-anchor="start" x="297.25" y="-18.5" font-family="Helvetica,sans-Serif" font-size="10.00">nlohmann::detail::type</text>
<text xml:space="preserve" text-anchor="middle" x="345.25" y="-6.5" font-family="Helvetica,sans-Serif" font-size="10.00">_error</text>
</a>
</g>
</g>
<!-- Node1&#45;&gt;Node7 -->
<g id="edge6" class="edge">
<title>Node1&#45;&gt;Node7</title>
<path fill="none" stroke="#63b8ff" d="M203.33,-98.22C223.41,-81.94 254.87,-57.89 284.75,-41 290.11,-37.97 295.92,-35.08 301.73,-32.43"/>
<polygon fill="#63b8ff" stroke="#63b8ff" points="201.11,-95.51 195.6,-104.56 205.55,-100.92 201.11,-95.51"/>
</g>
<!-- Node2 -->
<g id="node2" class="node">
<title>Node2</title>
<g id="a_node2"><a xlink:title=" ">
<polygon fill="white" stroke="#666666" points="77.5,-126 0,-126 0,-106 77.5,-106 77.5,-126"/>
<text xml:space="preserve" text-anchor="middle" x="38.75" y="-112.5" font-family="Helvetica,sans-Serif" font-size="10.00">std::exception</text>
</a>
</g>
</g>
<!-- Node2&#45;&gt;Node1 -->
<g id="edge1" class="edge">
<title>Node2&#45;&gt;Node1</title>
<path fill="none" stroke="#63b8ff" d="M89.18,-116C96.95,-116 105.09,-116 113.17,-116"/>
<polygon fill="#63b8ff" stroke="#63b8ff" points="89.25,-112.5 79.25,-116 89.25,-119.5 89.25,-112.5"/>
</g>
</g>
</svg>
