<?xml version="1.0" encoding="UTF-8" standalone="no"?>
<!DOCTYPE svg PUBLIC "-//W3C//DTD SVG 1.1//EN"
 "http://www.w3.org/Graphics/SVG/1.1/DTD/svg11.dtd">
<!-- Generated by graphviz version 13.1.2 (20250808.2320)
 -->
<!-- Title: HF::SpatialStructures::CSRPtrs Pages: 1 -->
<svg width="122pt" height="156pt"
 viewBox="0.00 0.00 122.00 156.00" xmlns="http://www.w3.org/2000/svg" xmlns:xlink="http://www.w3.org/1999/xlink">
<g id="graph0" class="graph" transform="scale(1 1) rotate(0) translate(4 152)">
<title>HF::SpatialStructures::CSRPtrs</title>
<!-- Node1 -->
<g id="node1" class="node">
<title>Node1</title>
<g id="a_node1"><a xlink:title="A struct to hold all necessary information for a CSR.">
<polygon fill="#999999" stroke="#666666" points="110.5,-32 0,-32 0,0 110.5,0 110.5,-32"/>
<text xml:space="preserve" text-anchor="start" x="8" y="-18.5" font-family="Helvetica,sans-Serif" font-size="10.00">HF::SpatialStructures</text>
<text xml:space="preserve" text-anchor="middle" x="55.25" y="-6.5" font-family="Helvetica,sans-Serif" font-size="10.00">::CSRPtrs</text>
</a>
</g>
</g>
<!-- Node2 -->
<g id="node2" class="node">
<title>Node2</title>
<g id="a_node2"><a xlink:title=" ">
<polygon fill="white" stroke="#666666" points="29.65,-148 0.85,-148 0.85,-128 29.65,-128 29.65,-148"/>
<text xml:space="preserve" text-anchor="middle" x="15.25" y="-134.5" font-family="Helvetica,sans-Serif" font-size="10.00">int</text>
</a>
</g>
</g>
<!-- Node2&#45;&gt;Node1 -->
<g id="edge1" class="edge">
<title>Node2&#45;&gt;Node1</title>
<path fill="none" stroke="#9a32cd" stroke-dasharray="5,2" d="M10.95,-116.44C8.15,-98.1 6.62,-70.99 16.5,-50 19.74,-43.12 25.17,-37.14 30.96,-32.23"/>
<polygon fill="#9a32cd" stroke="#9a32cd" points="7.46,-116.85 12.69,-126.06 14.35,-115.6 7.46,-116.85"/>
<text xml:space="preserve" text-anchor="middle" x="45.38" y="-100.5" font-family="Helvetica,sans-Serif" font-size="10.00"> cols</text>
<text xml:space="preserve" text-anchor="middle" x="45.38" y="-88.5" font-family="Helvetica,sans-Serif" font-size="10.00">inner_indices</text>
<text xml:space="preserve" text-anchor="middle" x="45.38" y="-76.5" font-family="Helvetica,sans-Serif" font-size="10.00">nnz</text>
<text xml:space="preserve" text-anchor="middle" x="45.38" y="-64.5" font-family="Helvetica,sans-Serif" font-size="10.00">outer_indices</text>
<text xml:space="preserve" text-anchor="middle" x="45.38" y="-52.5" font-family="Helvetica,sans-Serif" font-size="10.00">rows</text>
</g>
<!-- Node3 -->
<g id="node3" class="node">
<title>Node3</title>
<g id="a_node3"><a xlink:title=" ">
<polygon fill="white" stroke="#666666" points="113.62,-148 78.88,-148 78.88,-128 113.62,-128 113.62,-148"/>
<text xml:space="preserve" text-anchor="middle" x="96.25" y="-134.5" font-family="Helvetica,sans-Serif" font-size="10.00">float</text>
</a>
</g>
</g>
<!-- Node3&#45;&gt;Node1 -->
<g id="edge2" class="edge">
<title>Node3&#45;&gt;Node1</title>
<path fill="none" stroke="#9a32cd" stroke-dasharray="5,2" d="M92.71,-116.46C89.23,-98.51 83.15,-71.95 74.25,-50 71.82,-44 68.46,-37.75 65.25,-32.33"/>
<polygon fill="#9a32cd" stroke="#9a32cd" points="89.23,-116.89 94.47,-126.1 96.12,-115.64 89.23,-116.89"/>
<text xml:space="preserve" text-anchor="middle" x="102.17" y="-76.5" font-family="Helvetica,sans-Serif" font-size="10.00"> data</text>
</g>
</g>
</svg>
