<?xml version="1.0" encoding="UTF-8" standalone="no"?>
<!DOCTYPE svg PUBLIC "-//W3C//DTD SVG 1.1//EN"
 "http://www.w3.org/Graphics/SVG/1.1/DTD/svg11.dtd">
<!-- Generated by graphviz version 13.1.2 (20250808.2320)
 -->
<!-- Title: nanort::BinBuffer Pages: 1 -->
<svg width="171pt" height="176pt"
 viewBox="0.00 0.00 171.00 176.00" xmlns="http://www.w3.org/2000/svg" xmlns:xlink="http://www.w3.org/1999/xlink">
<g id="graph0" class="graph" transform="scale(1 1) rotate(0) translate(4 172)">
<title>nanort::BinBuffer</title>
<!-- Node1 -->
<g id="node1" class="node">
<title>Node1</title>
<g id="a_node1"><a xlink:title=" ">
<polygon fill="#999999" stroke="#666666" points="140.75,-20 52,-20 52,0 140.75,0 140.75,-20"/>
<text xml:space="preserve" text-anchor="middle" x="96.38" y="-6.5" font-family="Helvetica,sans-Serif" font-size="10.00">nanort::BinBuffer</text>
</a>
</g>
</g>
<!-- Node2 -->
<g id="node2" class="node">
<title>Node2</title>
<g id="a_node2"><a xlink:title=" ">
<polygon fill="white" stroke="#666666" points="106.75,-100 0,-100 0,-80 106.75,-80 106.75,-100"/>
<text xml:space="preserve" text-anchor="middle" x="53.38" y="-86.5" font-family="Helvetica,sans-Serif" font-size="10.00">std::vector&lt; size_t &gt;</text>
</a>
</g>
</g>
<!-- Node2&#45;&gt;Node1 -->
<g id="edge1" class="edge">
<title>Node2&#45;&gt;Node1</title>
<path fill="none" stroke="#9a32cd" stroke-dasharray="5,2" d="M63.87,-69.97C72.57,-54.19 84.56,-32.43 91.28,-20.24"/>
<polygon fill="#9a32cd" stroke="#9a32cd" points="60.97,-67.97 59.21,-78.42 67.1,-71.35 60.97,-67.97"/>
<text xml:space="preserve" text-anchor="middle" x="89.11" y="-46.5" font-family="Helvetica,sans-Serif" font-size="10.00"> bin</text>
</g>
<!-- Node3 -->
<g id="node3" class="node">
<title>Node3</title>
<g id="a_node3"><a xlink:title=" ">
<polygon fill="white" stroke="#666666" points="74.5,-168 32.25,-168 32.25,-148 74.5,-148 74.5,-168"/>
<text xml:space="preserve" text-anchor="middle" x="53.38" y="-154.5" font-family="Helvetica,sans-Serif" font-size="10.00">size_t</text>
</a>
</g>
</g>
<!-- Node3&#45;&gt;Node2 -->
<g id="edge2" class="edge">
<title>Node3&#45;&gt;Node2</title>
<path fill="none" stroke="#9a32cd" stroke-dasharray="5,2" d="M53.38,-136.28C53.38,-124.27 53.38,-109.74 53.38,-100.44"/>
<polygon fill="#9a32cd" stroke="#9a32cd" points="49.88,-136.03 53.38,-146.03 56.88,-136.03 49.88,-136.03"/>
<text xml:space="preserve" text-anchor="middle" x="74.75" y="-120.5" font-family="Helvetica,sans-Serif" font-size="10.00"> elements</text>
</g>
<!-- Node4 -->
<g id="node4" class="node">
<title>Node4</title>
<g id="a_node4"><a xlink:title=" ">
<polygon fill="white" stroke="#666666" points="153.78,-100 124.97,-100 124.97,-80 153.78,-80 153.78,-100"/>
<text xml:space="preserve" text-anchor="middle" x="139.38" y="-86.5" font-family="Helvetica,sans-Serif" font-size="10.00">int</text>
</a>
</g>
</g>
<!-- Node4&#45;&gt;Node1 -->
<g id="edge3" class="edge">
<title>Node4&#45;&gt;Node1</title>
<path fill="none" stroke="#9a32cd" stroke-dasharray="5,2" d="M128.88,-69.97C120.18,-54.19 108.19,-32.43 101.47,-20.24"/>
<polygon fill="#9a32cd" stroke="#9a32cd" points="125.65,-71.35 133.54,-78.42 131.78,-67.97 125.65,-71.35"/>
<text xml:space="preserve" text-anchor="middle" x="143.74" y="-52.5" font-family="Helvetica,sans-Serif" font-size="10.00"> bin_size</text>
<text xml:space="preserve" text-anchor="middle" x="143.74" y="-40.5" font-family="Helvetica,sans-Serif" font-size="10.00">pad0</text>
</g>
</g>
</svg>
