<?xml version="1.0" encoding="UTF-8" standalone="no"?>
<!DOCTYPE svg PUBLIC "-//W3C//DTD SVG 1.1//EN"
 "http://www.w3.org/Graphics/SVG/1.1/DTD/svg11.dtd">
<!-- Generated by graphviz version 13.1.2 (20250808.2320)
 -->
<!-- Title: HF::RayTracer::NanoRTRayTracer::Intersect Pages: 1 -->
<svg width="495pt" height="97pt"
 viewBox="0.00 0.00 495.00 97.00" xmlns="http://www.w3.org/2000/svg" xmlns:xlink="http://www.w3.org/1999/xlink">
<g id="graph0" class="graph" transform="scale(1 1) rotate(0) translate(4 93)">
<title>HF::RayTracer::NanoRTRayTracer::Intersect</title>
<!-- Node1 -->
<g id="node1" class="node">
<title>Node1</title>
<g id="a_node1"><a xlink:title=" ">
<polygon fill="#999999" stroke="#666666" points="141.25,-67 0,-67 0,-35 141.25,-35 141.25,-67"/>
<text xml:space="preserve" text-anchor="start" x="8" y="-53.5" font-family="Helvetica,sans-Serif" font-size="10.00">HF::RayTracer::NanoRTRay</text>
<text xml:space="preserve" text-anchor="middle" x="70.62" y="-41.5" font-family="Helvetica,sans-Serif" font-size="10.00">Tracer::Intersect</text>
</a>
</g>
</g>
<!-- Node2 -->
<g id="node2" class="node">
<title>Node2</title>
<g id="a_node2"><a xlink:href="a01519.html#a7aa768fa79aa76a2a70d2a5e348a2374" target="_top" xlink:title=" ">
<polygon fill="white" stroke="#666666" points="318.5,-89 177.25,-89 177.25,-57 318.5,-57 318.5,-89"/>
<text xml:space="preserve" text-anchor="start" x="185.25" y="-75.5" font-family="Helvetica,sans-Serif" font-size="10.00">HF::RayTracer::NanoRTRay</text>
<text xml:space="preserve" text-anchor="middle" x="247.88" y="-63.5" font-family="Helvetica,sans-Serif" font-size="10.00">Tracer::CreateHit</text>
</a>
</g>
</g>
<!-- Node1&#45;&gt;Node2 -->
<g id="edge1" class="edge">
<title>Node1&#45;&gt;Node2</title>
<path fill="none" stroke="#63b8ff" d="M141.64,-59.79C149.55,-60.78 157.65,-61.8 165.69,-62.81"/>
<polygon fill="#63b8ff" stroke="#63b8ff" points="165.11,-66.26 175.47,-64.04 165.98,-59.32 165.11,-66.26"/>
</g>
<!-- Node3 -->
<g id="node3" class="node">
<title>Node3</title>
<g id="a_node3"><a xlink:href="a01483.html#a4d07d0fc035d860dd1bfbeaa90c14a11" target="_top" xlink:title="Traverse into BVH along ray and find closest hit point &amp; primitive if found.">
<polygon fill="white" stroke="#666666" points="317.38,-39 178.38,-39 178.38,-19 317.38,-19 317.38,-39"/>
<text xml:space="preserve" text-anchor="middle" x="247.88" y="-25.5" font-family="Helvetica,sans-Serif" font-size="10.00">nanort::BVHAccel::Traverse</text>
</a>
</g>
</g>
<!-- Node1&#45;&gt;Node3 -->
<g id="edge2" class="edge">
<title>Node1&#45;&gt;Node3</title>
<path fill="none" stroke="#63b8ff" d="M141.64,-42.21C149.9,-41.17 158.38,-40.11 166.76,-39.06"/>
<polygon fill="#63b8ff" stroke="#63b8ff" points="167.12,-42.54 176.61,-37.82 166.25,-35.59 167.12,-42.54"/>
</g>
<!-- Node4 -->
<g id="node4" class="node">
<title>Node4</title>
<g id="a_node4"><a xlink:href="a00474.html#aa5a9a561d084639fafc84873ab8f3d51" target="_top" xlink:title=" ">
<polygon fill="white" stroke="#666666" points="486.75,-58 354.5,-58 354.5,-38 486.75,-38 486.75,-58"/>
<text xml:space="preserve" text-anchor="middle" x="420.62" y="-44.5" font-family="Helvetica,sans-Serif" font-size="10.00">nanort::IntersectRayAABB</text>
</a>
</g>
</g>
<!-- Node3&#45;&gt;Node4 -->
<g id="edge3" class="edge">
<title>Node3&#45;&gt;Node4</title>
<path fill="none" stroke="#63b8ff" d="M317.83,-36.67C326.04,-37.59 334.46,-38.52 342.77,-39.45"/>
<polygon fill="#63b8ff" stroke="#63b8ff" points="342.18,-42.9 352.5,-40.53 342.95,-35.95 342.18,-42.9"/>
</g>
<!-- Node5 -->
<g id="node5" class="node">
<title>Node5</title>
<g id="a_node5"><a xlink:href="a00474.html#aa6d08ee0bfbbaa13319f31e5412111bc" target="_top" xlink:title=" ">
<polygon fill="white" stroke="#666666" points="475.5,-20 365.75,-20 365.75,0 475.5,0 475.5,-20"/>
<text xml:space="preserve" text-anchor="middle" x="420.62" y="-6.5" font-family="Helvetica,sans-Serif" font-size="10.00">nanort::vsafe_inverse</text>
</a>
</g>
</g>
<!-- Node3&#45;&gt;Node5 -->
<g id="edge4" class="edge">
<title>Node3&#45;&gt;Node5</title>
<path fill="none" stroke="#63b8ff" d="M317.83,-21.33C329.83,-19.99 342.27,-18.61 354.17,-17.28"/>
<polygon fill="#63b8ff" stroke="#63b8ff" points="354.32,-20.79 363.87,-16.2 353.54,-13.83 354.32,-20.79"/>
</g>
</g>
</svg>
