<?xml version="1.0" encoding="UTF-8" standalone="no"?>
<!DOCTYPE svg PUBLIC "-//W3C//DTD SVG 1.1//EN"
 "http://www.w3.org/Graphics/SVG/1.1/DTD/svg11.dtd">
<!-- Generated by graphviz version 13.1.2 (20250808.2320)
 -->
<!-- Title: HF::SpatialStructures::Graph::Compress Pages: 1 -->
<svg width="300pt" height="116pt"
 viewBox="0.00 0.00 300.00 116.00" xmlns="http://www.w3.org/2000/svg" xmlns:xlink="http://www.w3.org/1999/xlink">
<g id="graph0" class="graph" transform="scale(1 1) rotate(0) translate(4 112)">
<title>HF::SpatialStructures::Graph::Compress</title>
<!-- Node1 -->
<g id="node1" class="node">
<title>Node1</title>
<g id="a_node1"><a xlink:title="Compress the graph to a CSR and enable the usage of several functions.">
<polygon fill="#999999" stroke="#666666" points="291.5,-64 181,-64 181,-32 291.5,-32 291.5,-64"/>
<text xml:space="preserve" text-anchor="start" x="189" y="-50.5" font-family="Helvetica,sans-Serif" font-size="10.00">HF::SpatialStructures</text>
<text xml:space="preserve" text-anchor="middle" x="236.25" y="-38.5" font-family="Helvetica,sans-Serif" font-size="10.00">::Graph::Compress</text>
</a>
</g>
</g>
<!-- Node2 -->
<g id="node2" class="node">
<title>Node2</title>
<g id="a_node2"><a xlink:href="a00463.html#a0251caf5a32eb2c1f9d846d88eb7fe22" target="_top" xlink:title=" ">
<polygon fill="white" stroke="#666666" points="145,-108 0,-108 0,-76 145,-76 145,-108"/>
<text xml:space="preserve" text-anchor="start" x="8" y="-94.5" font-family="Helvetica,sans-Serif" font-size="10.00">HF::GraphGenerator</text>
<text xml:space="preserve" text-anchor="middle" x="72.5" y="-82.5" font-family="Helvetica,sans-Serif" font-size="10.00">::CalculateAndStoreStepType</text>
</a>
</g>
</g>
<!-- Node1&#45;&gt;Node2 -->
<g id="edge1" class="edge">
<title>Node1&#45;&gt;Node2</title>
<path fill="none" stroke="#63b8ff" d="M170.16,-65.71C158.24,-68.95 145.85,-72.32 134.07,-75.52"/>
<polygon fill="#63b8ff" stroke="#63b8ff" points="170.75,-69.17 179.48,-63.17 168.91,-62.42 170.75,-69.17"/>
</g>
<!-- Node3 -->
<g id="node3" class="node">
<title>Node3</title>
<g id="a_node3"><a xlink:href="a00454.html#gae7f55e49ba1992471430d0e3d415ebae" target="_top" xlink:title="Query the graph and identify the step types of all edges, adding them to the graph.">
<polygon fill="white" stroke="#666666" points="144.62,-58 0.38,-58 0.38,-38 144.62,-38 144.62,-58"/>
<text xml:space="preserve" text-anchor="middle" x="72.5" y="-44.5" font-family="Helvetica,sans-Serif" font-size="10.00">CalculateAndStoreStepTypes</text>
</a>
</g>
</g>
<!-- Node1&#45;&gt;Node3 -->
<g id="edge2" class="edge">
<title>Node1&#45;&gt;Node3</title>
<path fill="none" stroke="#63b8ff" d="M169.61,-48C161.47,-48 153.12,-48 144.9,-48"/>
<polygon fill="#63b8ff" stroke="#63b8ff" points="169.43,-51.5 179.43,-48 169.43,-44.5 169.43,-51.5"/>
</g>
<!-- Node4 -->
<g id="node4" class="node">
<title>Node4</title>
<g id="a_node4"><a xlink:href="a00458.html#gab7ecc1be5c746ed3f99ab7494316c65d" target="_top" xlink:title="Compress the given graph into a CSR representation.">
<polygon fill="white" stroke="#666666" points="103,-20 42,-20 42,0 103,0 103,-20"/>
<text xml:space="preserve" text-anchor="middle" x="72.5" y="-6.5" font-family="Helvetica,sans-Serif" font-size="10.00">Compress</text>
</a>
</g>
</g>
<!-- Node1&#45;&gt;Node4 -->
<g id="edge3" class="edge">
<title>Node1&#45;&gt;Node4</title>
<path fill="none" stroke="#63b8ff" d="M169.81,-32.63C146.79,-27.22 122.04,-21.4 103.4,-17.02"/>
<polygon fill="#63b8ff" stroke="#63b8ff" points="168.93,-36.01 179.47,-34.89 170.53,-29.2 168.93,-36.01"/>
</g>
</g>
</svg>
