<?xml version="1.0" encoding="UTF-8" standalone="no"?>
<!DOCTYPE svg PUBLIC "-//W3C//DTD SVG 1.1//EN"
 "http://www.w3.org/Graphics/SVG/1.1/DTD/svg11.dtd">
<!-- Generated by graphviz version 13.1.2 (20250808.2320)
 -->
<!-- Title: HF::RayTracer::RayRequest Pages: 1 -->
<svg width="197pt" height="168pt"
 viewBox="0.00 0.00 197.00 168.00" xmlns="http://www.w3.org/2000/svg" xmlns:xlink="http://www.w3.org/1999/xlink">
<g id="graph0" class="graph" transform="scale(1 1) rotate(0) translate(4 164)">
<title>HF::RayTracer::RayRequest</title>
<!-- Node1 -->
<g id="node1" class="node">
<title>Node1</title>
<g id="a_node1"><a xlink:title=" ">
<polygon fill="#999999" stroke="#666666" points="151.38,-20 9.38,-20 9.38,0 151.38,0 151.38,-20"/>
<text xml:space="preserve" text-anchor="middle" x="80.38" y="-6.5" font-family="Helvetica,sans-Serif" font-size="10.00">HF::RayTracer::RayRequest</text>
</a>
</g>
</g>
<!-- Node2 -->
<g id="node2" class="node">
<title>Node2</title>
<g id="a_node2"><a xlink:title=" ">
<polygon fill="white" stroke="#666666" points="34.75,-160 0,-160 0,-140 34.75,-140 34.75,-160"/>
<text xml:space="preserve" text-anchor="middle" x="17.38" y="-146.5" font-family="Helvetica,sans-Serif" font-size="10.00">float</text>
</a>
</g>
</g>
<!-- Node2&#45;&gt;Node1 -->
<g id="edge1" class="edge">
<title>Node2&#45;&gt;Node1</title>
<path fill="none" stroke="#9a32cd" stroke-dasharray="5,2" d="M16.11,-128.28C15.68,-104.47 18.22,-65.2 36.62,-38 41.73,-30.46 49.71,-24.64 57.46,-20.37"/>
<polygon fill="#9a32cd" stroke="#9a32cd" points="12.61,-128.37 16.51,-138.22 19.6,-128.09 12.61,-128.37"/>
<text xml:space="preserve" text-anchor="middle" x="56.5" y="-112.5" font-family="Helvetica,sans-Serif" font-size="10.00"> distance</text>
<text xml:space="preserve" text-anchor="middle" x="56.5" y="-100.5" font-family="Helvetica,sans-Serif" font-size="10.00">dx</text>
<text xml:space="preserve" text-anchor="middle" x="56.5" y="-88.5" font-family="Helvetica,sans-Serif" font-size="10.00">dy</text>
<text xml:space="preserve" text-anchor="middle" x="56.5" y="-76.5" font-family="Helvetica,sans-Serif" font-size="10.00">dz</text>
<text xml:space="preserve" text-anchor="middle" x="56.5" y="-64.5" font-family="Helvetica,sans-Serif" font-size="10.00">x</text>
<text xml:space="preserve" text-anchor="middle" x="56.5" y="-52.5" font-family="Helvetica,sans-Serif" font-size="10.00">y</text>
<text xml:space="preserve" text-anchor="middle" x="56.5" y="-40.5" font-family="Helvetica,sans-Serif" font-size="10.00">z</text>
</g>
<!-- Node3 -->
<g id="node3" class="node">
<title>Node3</title>
<g id="a_node3"><a xlink:title=" ">
<polygon fill="white" stroke="#666666" points="97.38,-160 63.38,-160 63.38,-140 97.38,-140 97.38,-160"/>
<text xml:space="preserve" text-anchor="middle" x="80.38" y="-146.5" font-family="Helvetica,sans-Serif" font-size="10.00">bool</text>
</a>
</g>
</g>
<!-- Node3&#45;&gt;Node1 -->
<g id="edge2" class="edge">
<title>Node3&#45;&gt;Node1</title>
<path fill="none" stroke="#9a32cd" stroke-dasharray="5,2" d="M80.38,-128.14C80.38,-97.62 80.38,-42.05 80.38,-20.19"/>
<polygon fill="#9a32cd" stroke="#9a32cd" points="76.88,-128 80.38,-138 83.88,-128 76.88,-128"/>
<text xml:space="preserve" text-anchor="middle" x="102.88" y="-76.5" font-family="Helvetica,sans-Serif" font-size="10.00"> was_cast</text>
</g>
<!-- Node4 -->
<g id="node4" class="node">
<title>Node4</title>
<g id="a_node4"><a xlink:title=" ">
<polygon fill="white" stroke="#666666" points="162.78,-160 133.97,-160 133.97,-140 162.78,-140 162.78,-160"/>
<text xml:space="preserve" text-anchor="middle" x="148.38" y="-146.5" font-family="Helvetica,sans-Serif" font-size="10.00">int</text>
</a>
</g>
</g>
<!-- Node4&#45;&gt;Node1 -->
<g id="edge3" class="edge">
<title>Node4&#45;&gt;Node1</title>
<path fill="none" stroke="#9a32cd" stroke-dasharray="5,2" d="M149.14,-128.5C149.02,-104.62 145.57,-65.01 126.38,-38 121.01,-30.45 112.82,-24.68 104.83,-20.45"/>
<polygon fill="#9a32cd" stroke="#9a32cd" points="145.65,-128.11 148.98,-138.17 152.65,-128.23 145.65,-128.11"/>
<text xml:space="preserve" text-anchor="middle" x="168.9" y="-76.5" font-family="Helvetica,sans-Serif" font-size="10.00"> mesh_id</text>
</g>
</g>
</svg>
