<?xml version="1.0" encoding="UTF-8" standalone="no"?>
<!DOCTYPE svg PUBLIC "-//W3C//DTD SVG 1.1//EN"
 "http://www.w3.org/Graphics/SVG/1.1/DTD/svg11.dtd">
<!-- Generated by graphviz version 13.1.2 (20250808.2320)
 -->
<!-- Title: HF::SpatialStructures::Graph::Nodes Pages: 1 -->
<svg width="300pt" height="328pt"
 viewBox="0.00 0.00 300.00 328.00" xmlns="http://www.w3.org/2000/svg" xmlns:xlink="http://www.w3.org/1999/xlink">
<g id="graph0" class="graph" transform="scale(1 1) rotate(0) translate(4 324)">
<title>HF::SpatialStructures::Graph::Nodes</title>
<!-- Node1 -->
<g id="node1" class="node">
<title>Node1</title>
<g id="a_node1"><a xlink:title="Get a list of nodes from the graph sorted by ID.">
<polygon fill="#999999" stroke="#666666" points="291.5,-146 181,-146 181,-114 291.5,-114 291.5,-146"/>
<text xml:space="preserve" text-anchor="start" x="189" y="-132.5" font-family="Helvetica,sans-Serif" font-size="10.00">HF::SpatialStructures</text>
<text xml:space="preserve" text-anchor="middle" x="236.25" y="-120.5" font-family="Helvetica,sans-Serif" font-size="10.00">::Graph::Nodes</text>
</a>
</g>
</g>
<!-- Node2 -->
<g id="node2" class="node">
<title>Node2</title>
<g id="a_node2"><a xlink:href="a00475.html#a6d12a3af69887cb335b490304138afc6" target="_top" xlink:title=" ">
<polygon fill="white" stroke="#666666" points="140.88,-320 4.12,-320 4.12,-276 140.88,-276 140.88,-320"/>
<text xml:space="preserve" text-anchor="start" x="12.12" y="-306.5" font-family="Helvetica,sans-Serif" font-size="10.00">HF::SpatialStructures</text>
<text xml:space="preserve" text-anchor="start" x="12.12" y="-294.5" font-family="Helvetica,sans-Serif" font-size="10.00">::CostAlgorithms::Calculate</text>
<text xml:space="preserve" text-anchor="middle" x="72.5" y="-282.5" font-family="Helvetica,sans-Serif" font-size="10.00">CrossSlope</text>
</a>
</g>
</g>
<!-- Node1&#45;&gt;Node2 -->
<g id="edge1" class="edge">
<title>Node1&#45;&gt;Node2</title>
<path fill="none" stroke="#63b8ff" d="M223.66,-156.35C209.16,-186.65 181.71,-236.16 145,-267 141.27,-270.13 137.18,-273 132.89,-275.61"/>
<polygon fill="#63b8ff" stroke="#63b8ff" points="226.73,-158.04 227.77,-147.5 220.39,-155.09 226.73,-158.04"/>
</g>
<!-- Node3 -->
<g id="node3" class="node">
<title>Node3</title>
<g id="a_node3"><a xlink:href="a00475.html#adbe5e58355a884494d6e99bf17fc5f7b" target="_top" xlink:title=" ">
<polygon fill="white" stroke="#666666" points="140.88,-258 4.12,-258 4.12,-214 140.88,-214 140.88,-258"/>
<text xml:space="preserve" text-anchor="start" x="12.12" y="-244.5" font-family="Helvetica,sans-Serif" font-size="10.00">HF::SpatialStructures</text>
<text xml:space="preserve" text-anchor="start" x="12.12" y="-232.5" font-family="Helvetica,sans-Serif" font-size="10.00">::CostAlgorithms::Calculate</text>
<text xml:space="preserve" text-anchor="middle" x="72.5" y="-220.5" font-family="Helvetica,sans-Serif" font-size="10.00">EnergyExpenditure</text>
</a>
</g>
</g>
<!-- Node1&#45;&gt;Node3 -->
<g id="edge2" class="edge">
<title>Node1&#45;&gt;Node3</title>
<path fill="none" stroke="#63b8ff" d="M210.33,-154.04C192.99,-169.9 168.79,-190.37 145,-205 140.04,-208.05 134.74,-210.95 129.33,-213.66"/>
<polygon fill="#63b8ff" stroke="#63b8ff" points="212.69,-156.63 217.62,-147.25 207.92,-151.5 212.69,-156.63"/>
</g>
<!-- Node4 -->
<g id="node4" class="node">
<title>Node4</title>
<g id="a_node4"><a xlink:href="a00463.html#a81398de53e151ae58b206523e555309e" target="_top" xlink:title=" ">
<polygon fill="white" stroke="#666666" points="124.75,-196 20.25,-196 20.25,-164 124.75,-164 124.75,-196"/>
<text xml:space="preserve" text-anchor="start" x="28.25" y="-182.5" font-family="Helvetica,sans-Serif" font-size="10.00">HF::GraphGenerator</text>
<text xml:space="preserve" text-anchor="middle" x="72.5" y="-170.5" font-family="Helvetica,sans-Serif" font-size="10.00">::CalculateStepType</text>
</a>
</g>
</g>
<!-- Node1&#45;&gt;Node4 -->
<g id="edge3" class="edge">
<title>Node1&#45;&gt;Node4</title>
<path fill="none" stroke="#63b8ff" d="M171.33,-149.76C156.03,-154.49 139.87,-159.48 125.2,-164.02"/>
<polygon fill="#63b8ff" stroke="#63b8ff" points="172.32,-153.12 180.84,-146.82 170.25,-146.43 172.32,-153.12"/>
</g>
<!-- Node5 -->
<g id="node5" class="node">
<title>Node5</title>
<g id="a_node5"><a xlink:href="a00463.html#a5d2ad6de2131b1a90a80f901ac8dd185" target="_top" xlink:title=" ">
<polygon fill="white" stroke="#666666" points="145,-146 0,-146 0,-114 145,-114 145,-146"/>
<text xml:space="preserve" text-anchor="start" x="8" y="-132.5" font-family="Helvetica,sans-Serif" font-size="10.00">HF::GraphGenerator</text>
<text xml:space="preserve" text-anchor="middle" x="72.5" y="-120.5" font-family="Helvetica,sans-Serif" font-size="10.00">::CompareCheckConnections</text>
</a>
</g>
</g>
<!-- Node1&#45;&gt;Node5 -->
<g id="edge4" class="edge">
<title>Node1&#45;&gt;Node5</title>
<path fill="none" stroke="#63b8ff" d="M169.52,-130C161.6,-130 153.48,-130 145.48,-130"/>
<polygon fill="#63b8ff" stroke="#63b8ff" points="169.43,-133.5 179.43,-130 169.43,-126.5 169.43,-133.5"/>
</g>
<!-- Node6 -->
<g id="node6" class="node">
<title>Node6</title>
<g id="a_node6"><a xlink:href="a00454.html#ga2df84a732d1edfb70b7bd26d3282e129" target="_top" xlink:title="Construct a graph by performing a breadth&#45;first search of accessible space.">
<polygon fill="white" stroke="#666666" points="113.5,-96 31.5,-96 31.5,-76 113.5,-76 113.5,-96"/>
<text xml:space="preserve" text-anchor="middle" x="72.5" y="-82.5" font-family="Helvetica,sans-Serif" font-size="10.00">GenerateGraph</text>
</a>
</g>
</g>
<!-- Node1&#45;&gt;Node6 -->
<g id="edge5" class="edge">
<title>Node1&#45;&gt;Node6</title>
<path fill="none" stroke="#63b8ff" d="M169.93,-111.82C161.55,-109.51 153.07,-107.19 145,-105 134.71,-102.21 123.58,-99.23 113.23,-96.48"/>
<polygon fill="#63b8ff" stroke="#63b8ff" points="168.84,-115.15 179.41,-114.43 170.7,-108.4 168.84,-115.15"/>
</g>
<!-- Node7 -->
<g id="node7" class="node">
<title>Node7</title>
<g id="a_node7"><a xlink:href="a00454.html#gab9f58e3ecc686fa9bc34519b0faed734" target="_top" xlink:title="Construct a graph by performing a breadth&#45;first search of accessible space, seperating obstacles from...">
<polygon fill="white" stroke="#666666" points="135.62,-58 9.38,-58 9.38,-38 135.62,-38 135.62,-58"/>
<text xml:space="preserve" text-anchor="middle" x="72.5" y="-44.5" font-family="Helvetica,sans-Serif" font-size="10.00">GenerateGraphObstacles</text>
</a>
</g>
</g>
<!-- Node1&#45;&gt;Node7 -->
<g id="edge6" class="edge">
<title>Node1&#45;&gt;Node7</title>
<path fill="none" stroke="#63b8ff" d="M207.2,-106.56C190.13,-93.32 167.37,-77.39 145,-67 137.78,-63.65 129.86,-60.8 122.01,-58.42"/>
<polygon fill="#63b8ff" stroke="#63b8ff" points="204.86,-109.17 214.87,-112.65 209.21,-103.69 204.86,-109.17"/>
</g>
<!-- Node8 -->
<g id="node8" class="node">
<title>Node8</title>
<g id="a_node8"><a xlink:href="a00458.html#ga0cc5b82caab046c65a201e4e7be5e9d4" target="_top" xlink:title="Get a vector of every node in the given graph pointer.">
<polygon fill="white" stroke="#666666" points="132.62,-20 12.38,-20 12.38,0 132.62,0 132.62,-20"/>
<text xml:space="preserve" text-anchor="middle" x="72.5" y="-6.5" font-family="Helvetica,sans-Serif" font-size="10.00">GetAllNodesFromGraph</text>
</a>
</g>
</g>
<!-- Node1&#45;&gt;Node8 -->
<g id="edge7" class="edge">
<title>Node1&#45;&gt;Node8</title>
<path fill="none" stroke="#63b8ff" d="M218.71,-104.17C202.61,-81.1 176.07,-48.08 145,-29 139.42,-25.57 133.22,-22.76 126.88,-20.44"/>
<polygon fill="#63b8ff" stroke="#63b8ff" points="215.8,-106.11 224.31,-112.43 221.6,-102.19 215.8,-106.11"/>
</g>
</g>
</svg>
