<?xml version="1.0" encoding="UTF-8" standalone="no"?>
<!DOCTYPE svg PUBLIC "-//W3C//DTD SVG 1.1//EN"
 "http://www.w3.org/Graphics/SVG/1.1/DTD/svg11.dtd">
<!-- Generated by graphviz version 13.1.2 (20250808.2320)
 -->
<!-- Title: nanort::TriangleIntersector&lt; T, H &gt;::RayCoeff Pages: 1 -->
<svg width="138pt" height="132pt"
 viewBox="0.00 0.00 138.00 132.00" xmlns="http://www.w3.org/2000/svg" xmlns:xlink="http://www.w3.org/1999/xlink">
<g id="graph0" class="graph" transform="scale(1 1) rotate(0) translate(4 128)">
<title>nanort::TriangleIntersector&lt; T, H &gt;::RayCoeff</title>
<!-- Node1 -->
<g id="node1" class="node">
<title>Node1</title>
<g id="a_node1"><a xlink:title=" ">
<polygon fill="#999999" stroke="#666666" points="130,-32 0,-32 0,0 130,0 130,-32"/>
<text xml:space="preserve" text-anchor="start" x="8" y="-18.5" font-family="Helvetica,sans-Serif" font-size="10.00">nanort::TriangleIntersector</text>
<text xml:space="preserve" text-anchor="middle" x="65" y="-6.5" font-family="Helvetica,sans-Serif" font-size="10.00">&lt; T, H &gt;::RayCoeff</text>
</a>
</g>
</g>
<!-- Node2 -->
<g id="node2" class="node">
<title>Node2</title>
<g id="a_node2"><a xlink:title=" ">
<polygon fill="white" stroke="#666666" points="56.4,-124 27.6,-124 27.6,-104 56.4,-104 56.4,-124"/>
<text xml:space="preserve" text-anchor="middle" x="42" y="-110.5" font-family="Helvetica,sans-Serif" font-size="10.00">T</text>
</a>
</g>
</g>
<!-- Node2&#45;&gt;Node1 -->
<g id="edge1" class="edge">
<title>Node2&#45;&gt;Node1</title>
<path fill="none" stroke="#9a32cd" stroke-dasharray="5,2" d="M44.11,-92.51C45.67,-80.07 48.19,-63.96 52,-50 53.62,-44.06 55.96,-37.72 58.21,-32.21"/>
<polygon fill="#9a32cd" stroke="#9a32cd" points="40.63,-92.06 42.99,-102.39 47.59,-92.85 40.63,-92.06"/>
<text xml:space="preserve" text-anchor="middle" x="59.5" y="-76.5" font-family="Helvetica,sans-Serif" font-size="10.00"> Sx</text>
<text xml:space="preserve" text-anchor="middle" x="59.5" y="-64.5" font-family="Helvetica,sans-Serif" font-size="10.00">Sy</text>
<text xml:space="preserve" text-anchor="middle" x="59.5" y="-52.5" font-family="Helvetica,sans-Serif" font-size="10.00">Sz</text>
</g>
<!-- Node3 -->
<g id="node3" class="node">
<title>Node3</title>
<g id="a_node3"><a xlink:title=" ">
<polygon fill="white" stroke="#666666" points="103.4,-124 74.6,-124 74.6,-104 103.4,-104 103.4,-124"/>
<text xml:space="preserve" text-anchor="middle" x="89" y="-110.5" font-family="Helvetica,sans-Serif" font-size="10.00">int</text>
</a>
</g>
</g>
<!-- Node3&#45;&gt;Node1 -->
<g id="edge2" class="edge">
<title>Node3&#45;&gt;Node1</title>
<path fill="none" stroke="#9a32cd" stroke-dasharray="5,2" d="M83.95,-92.79C79.43,-74.73 72.92,-48.67 68.82,-32.29"/>
<polygon fill="#9a32cd" stroke="#9a32cd" points="80.51,-93.47 86.33,-102.33 87.3,-91.78 80.51,-93.47"/>
<text xml:space="preserve" text-anchor="middle" x="88.66" y="-76.5" font-family="Helvetica,sans-Serif" font-size="10.00"> kx</text>
<text xml:space="preserve" text-anchor="middle" x="88.66" y="-64.5" font-family="Helvetica,sans-Serif" font-size="10.00">ky</text>
<text xml:space="preserve" text-anchor="middle" x="88.66" y="-52.5" font-family="Helvetica,sans-Serif" font-size="10.00">kz</text>
</g>
</g>
</svg>
