<?xml version="1.0" encoding="UTF-8" standalone="no"?>
<!DOCTYPE svg PUBLIC "-//W3C//DTD SVG 1.1//EN"
 "http://www.w3.org/Graphics/SVG/1.1/DTD/svg11.dtd">
<!-- Generated by graphviz version 13.1.2 (20250808.2320)
 -->
<!-- Title: nlohmann::detail::exception Pages: 1 -->
<svg width="202pt" height="153pt"
 viewBox="0.00 0.00 202.00 153.00" xmlns="http://www.w3.org/2000/svg" xmlns:xlink="http://www.w3.org/1999/xlink">
<g id="graph0" class="graph" transform="scale(1 1) rotate(0) translate(4 149)">
<title>nlohmann::detail::exception</title>
<!-- Node1 -->
<g id="node1" class="node">
<title>Node1</title>
<g id="a_node1"><a xlink:title="general exception of the basic_json class">
<polygon fill="#999999" stroke="#666666" points="168.38,-20 33.12,-20 33.12,0 168.38,0 168.38,-20"/>
<text xml:space="preserve" text-anchor="middle" x="100.75" y="-6.5" font-family="Helvetica,sans-Serif" font-size="10.00">nlohmann::detail::exception</text>
</a>
</g>
</g>
<!-- Node2 -->
<g id="node2" class="node">
<title>Node2</title>
<g id="a_node2"><a xlink:title=" ">
<polygon fill="white" stroke="#666666" points="77.5,-145 0,-145 0,-125 77.5,-125 77.5,-145"/>
<text xml:space="preserve" text-anchor="middle" x="38.75" y="-131.5" font-family="Helvetica,sans-Serif" font-size="10.00">std::exception</text>
</a>
</g>
</g>
<!-- Node2&#45;&gt;Node1 -->
<g id="edge1" class="edge">
<title>Node2&#45;&gt;Node1</title>
<path fill="none" stroke="#63b8ff" d="M37.55,-113.12C37.59,-99.65 39.18,-82.08 45.75,-68 55.17,-47.81 74.69,-30.35 87.76,-20.25"/>
<polygon fill="#63b8ff" stroke="#63b8ff" points="34.05,-113.12 37.84,-123.02 41.05,-112.92 34.05,-113.12"/>
</g>
<!-- Node4 -->
<g id="node4" class="node">
<title>Node4</title>
<g id="a_node4"><a xlink:title=" ">
<polygon fill="white" stroke="#666666" points="147,-88 54.5,-88 54.5,-68 147,-68 147,-88"/>
<text xml:space="preserve" text-anchor="middle" x="100.75" y="-74.5" font-family="Helvetica,sans-Serif" font-size="10.00">std::runtime_error</text>
</a>
</g>
</g>
<!-- Node2&#45;&gt;Node4 -->
<g id="edge4" class="edge">
<title>Node2&#45;&gt;Node4</title>
<path fill="none" stroke="#63b8ff" d="M57.62,-117.26C68.39,-107.71 81.47,-96.1 90.39,-88.19"/>
<polygon fill="#63b8ff" stroke="#63b8ff" points="55.56,-114.41 50.4,-123.67 60.2,-119.65 55.56,-114.41"/>
</g>
<!-- Node3 -->
<g id="node3" class="node">
<title>Node3</title>
<g id="a_node3"><a xlink:title=" ">
<polygon fill="white" stroke="#666666" points="194.15,-88 165.35,-88 165.35,-68 194.15,-68 194.15,-88"/>
<text xml:space="preserve" text-anchor="middle" x="179.75" y="-74.5" font-family="Helvetica,sans-Serif" font-size="10.00">int</text>
</a>
</g>
</g>
<!-- Node3&#45;&gt;Node1 -->
<g id="edge2" class="edge">
<title>Node3&#45;&gt;Node1</title>
<path fill="none" stroke="#9a32cd" stroke-dasharray="5,2" d="M159.8,-60.33C144.69,-47.71 124.48,-30.82 112.05,-20.44"/>
<polygon fill="#9a32cd" stroke="#9a32cd" points="157.35,-62.85 167.27,-66.57 161.84,-57.48 157.35,-62.85"/>
<text xml:space="preserve" text-anchor="middle" x="152.58" y="-40.5" font-family="Helvetica,sans-Serif" font-size="10.00"> id</text>
</g>
<!-- Node4&#45;&gt;Node1 -->
<g id="edge3" class="edge">
<title>Node4&#45;&gt;Node1</title>
<path fill="none" stroke="#9a32cd" stroke-dasharray="5,2" d="M100.75,-56.28C100.75,-44.27 100.75,-29.74 100.75,-20.44"/>
<polygon fill="#9a32cd" stroke="#9a32cd" points="97.25,-56.03 100.75,-66.03 104.25,-56.03 97.25,-56.03"/>
<text xml:space="preserve" text-anchor="middle" x="106.38" y="-40.5" font-family="Helvetica,sans-Serif" font-size="10.00"> m</text>
</g>
</g>
</svg>
