<?xml version="1.0" encoding="UTF-8" standalone="no"?>
<!DOCTYPE svg PUBLIC "-//W3C//DTD SVG 1.1//EN"
 "http://www.w3.org/Graphics/SVG/1.1/DTD/svg11.dtd">
<!-- Generated by graphviz version 13.1.2 (20250808.2320)
 -->
<!-- Title: nlohmann::basic_json::merge_patch Pages: 1 -->
<svg width="771pt" height="522pt"
 viewBox="0.00 0.00 771.00 522.00" xmlns="http://www.w3.org/2000/svg" xmlns:xlink="http://www.w3.org/1999/xlink">
<g id="graph0" class="graph" transform="scale(1 1) rotate(0) translate(4 518)">
<title>nlohmann::basic_json::merge_patch</title>
<!-- Node1 -->
<g id="node1" class="node">
<title>Node1</title>
<g id="a_node1"><a xlink:title="applies a JSON Merge Patch">
<polygon fill="#999999" stroke="#666666" points="110.5,-232 0,-232 0,-200 110.5,-200 110.5,-232"/>
<text xml:space="preserve" text-anchor="start" x="8" y="-218.5" font-family="Helvetica,sans-Serif" font-size="10.00">nlohmann::basic_json</text>
<text xml:space="preserve" text-anchor="middle" x="55.25" y="-206.5" font-family="Helvetica,sans-Serif" font-size="10.00">::merge_patch</text>
</a>
</g>
</g>
<!-- Node1&#45;&gt;Node1 -->
<g id="edge19" class="edge">
<title>Node1&#45;&gt;Node1</title>
<path fill="none" stroke="#63b8ff" d="M29.1,-232.44C24.21,-241.58 32.93,-250 55.25,-250 67.46,-250 75.59,-247.48 79.66,-243.71"/>
<polygon fill="#63b8ff" stroke="#63b8ff" points="83.1,-244.36 81.17,-233.94 76.19,-243.29 83.1,-244.36"/>
</g>
<!-- Node2 -->
<g id="node2" class="node">
<title>Node2</title>
<g id="a_node2"><a xlink:href="a01659.html#a23b495b4c282e4afacf382f5b49af7c7" target="_top" xlink:title="returns an iterator to the first element">
<polygon fill="white" stroke="#666666" points="257,-438 146.5,-438 146.5,-406 257,-406 257,-438"/>
<text xml:space="preserve" text-anchor="start" x="154.5" y="-424.5" font-family="Helvetica,sans-Serif" font-size="10.00">nlohmann::basic_json</text>
<text xml:space="preserve" text-anchor="middle" x="201.75" y="-412.5" font-family="Helvetica,sans-Serif" font-size="10.00">::begin</text>
</a>
</g>
</g>
<!-- Node1&#45;&gt;Node2 -->
<g id="edge1" class="edge">
<title>Node1&#45;&gt;Node2</title>
<path fill="none" stroke="#63b8ff" d="M65.15,-232.24C80.45,-259.69 113.31,-316.59 146.5,-361 155.87,-373.54 167.26,-386.62 177.17,-397.43"/>
<polygon fill="#63b8ff" stroke="#63b8ff" points="174.34,-399.52 183.71,-404.46 179.46,-394.75 174.34,-399.52"/>
</g>
<!-- Node6 -->
<g id="node6" class="node">
<title>Node6</title>
<g id="a_node6"><a xlink:href="a01659.html#a931267ec3f09eb67e4382f321b2c52bc" target="_top" xlink:title="returns an iterator to one past the last element">
<polygon fill="white" stroke="#666666" points="425.25,-420 293,-420 293,-400 425.25,-400 425.25,-420"/>
<text xml:space="preserve" text-anchor="middle" x="359.12" y="-406.5" font-family="Helvetica,sans-Serif" font-size="10.00">nlohmann::basic_json::end</text>
</a>
</g>
</g>
<!-- Node1&#45;&gt;Node6 -->
<g id="edge5" class="edge">
<title>Node1&#45;&gt;Node6</title>
<path fill="none" stroke="#63b8ff" d="M73.8,-232.48C111.22,-266.76 202.78,-346.28 293,-391 296.43,-392.7 300.03,-394.27 303.72,-395.73"/>
<polygon fill="#63b8ff" stroke="#63b8ff" points="302.21,-398.9 312.8,-398.99 304.58,-392.32 302.21,-398.9"/>
</g>
<!-- Node8 -->
<g id="node8" class="node">
<title>Node8</title>
<g id="a_node8"><a xlink:href="a01659.html#a494632b69bbe1d0153d3bedad0901b8e" target="_top" xlink:title="remove element given an iterator">
<polygon fill="white" stroke="#666666" points="257,-257 146.5,-257 146.5,-225 257,-225 257,-257"/>
<text xml:space="preserve" text-anchor="start" x="154.5" y="-243.5" font-family="Helvetica,sans-Serif" font-size="10.00">nlohmann::basic_json</text>
<text xml:space="preserve" text-anchor="middle" x="201.75" y="-231.5" font-family="Helvetica,sans-Serif" font-size="10.00">::erase</text>
</a>
</g>
</g>
<!-- Node1&#45;&gt;Node8 -->
<g id="edge8" class="edge">
<title>Node1&#45;&gt;Node8</title>
<path fill="none" stroke="#63b8ff" d="M110.88,-225.45C118.7,-226.8 126.82,-228.21 134.83,-229.59"/>
<polygon fill="#63b8ff" stroke="#63b8ff" points="134.1,-233.02 144.55,-231.28 135.3,-226.12 134.1,-233.02"/>
</g>
<!-- Node16 -->
<g id="node16" class="node">
<title>Node16</title>
<g id="a_node16"><a xlink:href="a01659.html#a57e8411a770a6263d6d8f2116c37f3aa" target="_top" xlink:title="return whether value is an object">
<polygon fill="white" stroke="#666666" points="257,-157 146.5,-157 146.5,-125 257,-125 257,-157"/>
<text xml:space="preserve" text-anchor="start" x="154.5" y="-143.5" font-family="Helvetica,sans-Serif" font-size="10.00">nlohmann::basic_json</text>
<text xml:space="preserve" text-anchor="middle" x="201.75" y="-131.5" font-family="Helvetica,sans-Serif" font-size="10.00">::is_object</text>
</a>
</g>
</g>
<!-- Node1&#45;&gt;Node16 -->
<g id="edge18" class="edge">
<title>Node1&#45;&gt;Node16</title>
<path fill="none" stroke="#63b8ff" d="M84.41,-199.69C102.07,-189.64 125.41,-176.68 146.5,-166 148.88,-164.79 151.33,-163.58 153.81,-162.37"/>
<polygon fill="#63b8ff" stroke="#63b8ff" points="155.22,-165.57 162.73,-158.1 152.2,-159.26 155.22,-165.57"/>
</g>
<!-- Node17 -->
<g id="node17" class="node">
<title>Node17</title>
<g id="a_node17"><a xlink:href="a01659.html#a9a4df356e05415438fadf8a15e583903" target="_top" xlink:title="explicitly create an object from an initializer list">
<polygon fill="white" stroke="#666666" points="257,-107 146.5,-107 146.5,-75 257,-75 257,-107"/>
<text xml:space="preserve" text-anchor="start" x="154.5" y="-93.5" font-family="Helvetica,sans-Serif" font-size="10.00">nlohmann::basic_json</text>
<text xml:space="preserve" text-anchor="middle" x="201.75" y="-81.5" font-family="Helvetica,sans-Serif" font-size="10.00">::object</text>
</a>
</g>
</g>
<!-- Node1&#45;&gt;Node17 -->
<g id="edge20" class="edge">
<title>Node1&#45;&gt;Node17</title>
<path fill="none" stroke="#63b8ff" d="M67.74,-199.58C83.46,-178.08 113.53,-140.25 146.5,-116 147.83,-115.02 149.21,-114.07 150.62,-113.14"/>
<polygon fill="#63b8ff" stroke="#63b8ff" points="152.18,-116.28 159,-108.16 148.61,-110.26 152.18,-116.28"/>
</g>
<!-- Node18 -->
<g id="node18" class="node">
<title>Node18</title>
<g id="a_node18"><a xlink:href="a01659.html#a9ea67fc1ef0ccc42e1d5388fe0416ae5" target="_top" xlink:title="access specified array element">
<polygon fill="white" stroke="#666666" points="257,-207 146.5,-207 146.5,-175 257,-175 257,-207"/>
<text xml:space="preserve" text-anchor="start" x="154.5" y="-193.5" font-family="Helvetica,sans-Serif" font-size="10.00">nlohmann::basic_json</text>
<text xml:space="preserve" text-anchor="middle" x="201.75" y="-181.5" font-family="Helvetica,sans-Serif" font-size="10.00">::operator[]</text>
</a>
</g>
</g>
<!-- Node1&#45;&gt;Node18 -->
<g id="edge21" class="edge">
<title>Node1&#45;&gt;Node18</title>
<path fill="none" stroke="#63b8ff" d="M110.88,-206.55C118.7,-205.2 126.82,-203.79 134.83,-202.41"/>
<polygon fill="#63b8ff" stroke="#63b8ff" points="135.3,-205.88 144.55,-200.72 134.1,-198.98 135.3,-205.88"/>
</g>
<!-- Node3 -->
<g id="node3" class="node">
<title>Node3</title>
<g id="a_node3"><a xlink:href="a02011.html#a5d5f92c7f6848814bc82cf7e4e541820" target="_top" xlink:title="set the iterator to the first value">
<polygon fill="white" stroke="#666666" points="412.5,-470 305.75,-470 305.75,-438 412.5,-438 412.5,-470"/>
<text xml:space="preserve" text-anchor="start" x="313.75" y="-456.5" font-family="Helvetica,sans-Serif" font-size="10.00">nlohmann::detail::iter</text>
<text xml:space="preserve" text-anchor="middle" x="359.12" y="-444.5" font-family="Helvetica,sans-Serif" font-size="10.00">_impl::set_begin</text>
</a>
</g>
</g>
<!-- Node2&#45;&gt;Node3 -->
<g id="edge2" class="edge">
<title>Node2&#45;&gt;Node3</title>
<path fill="none" stroke="#63b8ff" d="M257.09,-433.19C269.09,-435.66 281.9,-438.3 294.23,-440.84"/>
<polygon fill="#63b8ff" stroke="#63b8ff" points="293.4,-444.24 303.9,-442.83 294.81,-437.39 293.4,-444.24"/>
</g>
<!-- Node4 -->
<g id="node4" class="node">
<title>Node4</title>
<g id="a_node4"><a xlink:href="a02003.html#a9d9b005906106e12aed738f97d7fee42" target="_top" xlink:title="set iterator to a defined beginning">
<polygon fill="white" stroke="#666666" points="593.88,-514 463.88,-514 463.88,-482 593.88,-482 593.88,-514"/>
<text xml:space="preserve" text-anchor="start" x="471.88" y="-500.5" font-family="Helvetica,sans-Serif" font-size="10.00">nlohmann::detail::primitive</text>
<text xml:space="preserve" text-anchor="middle" x="528.88" y="-488.5" font-family="Helvetica,sans-Serif" font-size="10.00">_iterator_t::set_begin</text>
</a>
</g>
</g>
<!-- Node3&#45;&gt;Node4 -->
<g id="edge3" class="edge">
<title>Node3&#45;&gt;Node4</title>
<path fill="none" stroke="#63b8ff" d="M412.74,-467.8C425.86,-471.24 440.16,-474.99 454.09,-478.65"/>
<polygon fill="#63b8ff" stroke="#63b8ff" points="453.13,-482.01 463.69,-481.16 454.91,-475.24 453.13,-482.01"/>
</g>
<!-- Node5 -->
<g id="node5" class="node">
<title>Node5</title>
<g id="a_node5"><a xlink:href="a02003.html#ad26a823483846a12d890c3feed3097eb" target="_top" xlink:title="set iterator to a defined past the end">
<polygon fill="white" stroke="#666666" points="762.5,-448 632.5,-448 632.5,-416 762.5,-416 762.5,-448"/>
<text xml:space="preserve" text-anchor="start" x="640.5" y="-434.5" font-family="Helvetica,sans-Serif" font-size="10.00">nlohmann::detail::primitive</text>
<text xml:space="preserve" text-anchor="middle" x="697.5" y="-422.5" font-family="Helvetica,sans-Serif" font-size="10.00">_iterator_t::set_end</text>
</a>
</g>
</g>
<!-- Node3&#45;&gt;Node5 -->
<g id="edge4" class="edge">
<title>Node3&#45;&gt;Node5</title>
<path fill="none" stroke="#63b8ff" d="M412.68,-450.56C468.64,-446.9 557.68,-441.08 621.11,-436.93"/>
<polygon fill="#63b8ff" stroke="#63b8ff" points="620.98,-440.45 630.73,-436.3 620.52,-433.46 620.98,-440.45"/>
</g>
<!-- Node7 -->
<g id="node7" class="node">
<title>Node7</title>
<g id="a_node7"><a xlink:href="a02011.html#a23e50ad4c13aa62d9ac7f60a123823ee" target="_top" xlink:title="set the iterator past the last value">
<polygon fill="white" stroke="#666666" points="582.25,-426 475.5,-426 475.5,-394 582.25,-394 582.25,-426"/>
<text xml:space="preserve" text-anchor="start" x="483.5" y="-412.5" font-family="Helvetica,sans-Serif" font-size="10.00">nlohmann::detail::iter</text>
<text xml:space="preserve" text-anchor="middle" x="528.88" y="-400.5" font-family="Helvetica,sans-Serif" font-size="10.00">_impl::set_end</text>
</a>
</g>
</g>
<!-- Node6&#45;&gt;Node7 -->
<g id="edge6" class="edge">
<title>Node6&#45;&gt;Node7</title>
<path fill="none" stroke="#63b8ff" d="M425.46,-410C438.07,-410 451.27,-410 463.83,-410"/>
<polygon fill="#63b8ff" stroke="#63b8ff" points="463.65,-413.5 473.65,-410 463.65,-406.5 463.65,-413.5"/>
</g>
<!-- Node7&#45;&gt;Node5 -->
<g id="edge7" class="edge">
<title>Node7&#45;&gt;Node5</title>
<path fill="none" stroke="#63b8ff" d="M582.6,-416.96C594.76,-418.57 607.94,-420.31 620.87,-422.01"/>
<polygon fill="#63b8ff" stroke="#63b8ff" points="620.27,-425.46 630.64,-423.3 621.18,-418.53 620.27,-425.46"/>
</g>
<!-- Node8&#45;&gt;Node6 -->
<g id="edge14" class="edge">
<title>Node8&#45;&gt;Node6</title>
<path fill="none" stroke="#63b8ff" d="M212.36,-257.32C234.99,-295.71 289.95,-388.65 293,-391 294.54,-392.19 296.15,-393.3 297.82,-394.34"/>
<polygon fill="#63b8ff" stroke="#63b8ff" points="296.05,-397.37 306.54,-398.89 299.29,-391.16 296.05,-397.37"/>
</g>
<!-- Node9 -->
<g id="node9" class="node">
<title>Node9</title>
<g id="a_node9"><a xlink:href="a01659.html#aa7e7b1bdb6e9dbcfa5e284e8a2fb6464" target="_top" xlink:title="checks the class invariants">
<polygon fill="white" stroke="#666666" points="414.38,-232 303.88,-232 303.88,-200 414.38,-200 414.38,-232"/>
<text xml:space="preserve" text-anchor="start" x="311.88" y="-218.5" font-family="Helvetica,sans-Serif" font-size="10.00">nlohmann::basic_json</text>
<text xml:space="preserve" text-anchor="middle" x="359.12" y="-206.5" font-family="Helvetica,sans-Serif" font-size="10.00">::assert_invariant</text>
</a>
</g>
</g>
<!-- Node8&#45;&gt;Node9 -->
<g id="edge9" class="edge">
<title>Node8&#45;&gt;Node9</title>
<path fill="none" stroke="#63b8ff" d="M257.09,-232.26C268.5,-230.42 280.65,-228.47 292.42,-226.57"/>
<polygon fill="#63b8ff" stroke="#63b8ff" points="292.74,-230.07 302.06,-225.02 291.63,-223.15 292.74,-230.07"/>
</g>
<!-- Node10 -->
<g id="node10" class="node">
<title>Node10</title>
<g id="a_node10"><a xlink:href="a01567.html#a4e849260a3caa1b288c7e619130c6c09" target="_top" xlink:title=" ">
<polygon fill="white" stroke="#666666" points="419.62,-382 298.62,-382 298.62,-350 419.62,-350 419.62,-382"/>
<text xml:space="preserve" text-anchor="start" x="306.62" y="-368.5" font-family="Helvetica,sans-Serif" font-size="10.00">nlohmann::detail::invalid</text>
<text xml:space="preserve" text-anchor="middle" x="359.12" y="-356.5" font-family="Helvetica,sans-Serif" font-size="10.00">_iterator::create</text>
</a>
</g>
</g>
<!-- Node8&#45;&gt;Node10 -->
<g id="edge10" class="edge">
<title>Node8&#45;&gt;Node10</title>
<path fill="none" stroke="#63b8ff" d="M213.74,-257.37C229.13,-279.18 259.07,-317.71 293,-341 294.76,-342.21 296.59,-343.37 298.46,-344.48"/>
<polygon fill="#63b8ff" stroke="#63b8ff" points="296.36,-347.33 306.83,-348.95 299.65,-341.15 296.36,-347.33"/>
</g>
<!-- Node12 -->
<g id="node12" class="node">
<title>Node12</title>
<g id="a_node12"><a xlink:href="a01571.html#aecc083aea4b698c33d042670ba50c10f" target="_top" xlink:title=" ">
<polygon fill="white" stroke="#666666" points="415.12,-182 303.12,-182 303.12,-150 415.12,-150 415.12,-182"/>
<text xml:space="preserve" text-anchor="start" x="311.12" y="-168.5" font-family="Helvetica,sans-Serif" font-size="10.00">nlohmann::detail::type</text>
<text xml:space="preserve" text-anchor="middle" x="359.12" y="-156.5" font-family="Helvetica,sans-Serif" font-size="10.00">_error::create</text>
</a>
</g>
</g>
<!-- Node8&#45;&gt;Node12 -->
<g id="edge12" class="edge">
<title>Node8&#45;&gt;Node12</title>
<path fill="none" stroke="#63b8ff" d="M240.54,-224.63C246.14,-221.9 251.78,-218.99 257,-216 273.91,-206.33 275.78,-200.11 293,-191 295.53,-189.66 298.15,-188.36 300.81,-187.09"/>
<polygon fill="#63b8ff" stroke="#63b8ff" points="302.19,-190.31 309.89,-183.04 299.33,-183.92 302.19,-190.31"/>
</g>
<!-- Node13 -->
<g id="node13" class="node">
<title>Node13</title>
<g id="a_node13"><a xlink:href="a01659.html#a9576224f7b3ff812a308e7c1e784ea80" target="_top" xlink:title="return whether value is a binary array">
<polygon fill="white" stroke="#666666" points="414.38,-332 303.88,-332 303.88,-300 414.38,-300 414.38,-332"/>
<text xml:space="preserve" text-anchor="start" x="311.88" y="-318.5" font-family="Helvetica,sans-Serif" font-size="10.00">nlohmann::basic_json</text>
<text xml:space="preserve" text-anchor="middle" x="359.12" y="-306.5" font-family="Helvetica,sans-Serif" font-size="10.00">::is_binary</text>
</a>
</g>
</g>
<!-- Node8&#45;&gt;Node13 -->
<g id="edge15" class="edge">
<title>Node8&#45;&gt;Node13</title>
<path fill="none" stroke="#63b8ff" d="M229.88,-257.33C247.54,-267.63 271.25,-280.86 293,-291 296.08,-292.44 299.28,-293.86 302.51,-295.26"/>
<polygon fill="#63b8ff" stroke="#63b8ff" points="300.96,-298.4 311.54,-299.01 303.65,-291.94 300.96,-298.4"/>
</g>
<!-- Node14 -->
<g id="node14" class="node">
<title>Node14</title>
<g id="a_node14"><a xlink:href="a01659.html#ab303d17366c26fca12242c7f8def1bb7" target="_top" xlink:title="return whether value is a string">
<polygon fill="white" stroke="#666666" points="414.38,-282 303.88,-282 303.88,-250 414.38,-250 414.38,-282"/>
<text xml:space="preserve" text-anchor="start" x="311.88" y="-268.5" font-family="Helvetica,sans-Serif" font-size="10.00">nlohmann::basic_json</text>
<text xml:space="preserve" text-anchor="middle" x="359.12" y="-256.5" font-family="Helvetica,sans-Serif" font-size="10.00">::is_string</text>
</a>
</g>
</g>
<!-- Node8&#45;&gt;Node14 -->
<g id="edge16" class="edge">
<title>Node8&#45;&gt;Node14</title>
<path fill="none" stroke="#63b8ff" d="M257.09,-249.74C268.5,-251.58 280.65,-253.53 292.42,-255.43"/>
<polygon fill="#63b8ff" stroke="#63b8ff" points="291.63,-258.85 302.06,-256.98 292.74,-251.93 291.63,-258.85"/>
</g>
<!-- Node15 -->
<g id="node15" class="node">
<title>Node15</title>
<g id="a_node15"><a xlink:href="a01659.html#ab8811fc4eab6091b32b34b3ac3e90474" target="_top" xlink:title="return the type as string">
<polygon fill="white" stroke="#666666" points="414.38,-132 303.88,-132 303.88,-100 414.38,-100 414.38,-132"/>
<text xml:space="preserve" text-anchor="start" x="311.88" y="-118.5" font-family="Helvetica,sans-Serif" font-size="10.00">nlohmann::basic_json</text>
<text xml:space="preserve" text-anchor="middle" x="359.12" y="-106.5" font-family="Helvetica,sans-Serif" font-size="10.00">::type_name</text>
</a>
</g>
</g>
<!-- Node8&#45;&gt;Node15 -->
<g id="edge17" class="edge">
<title>Node8&#45;&gt;Node15</title>
<path fill="none" stroke="#63b8ff" d="M246.05,-224.55C250.01,-222.04 253.75,-219.2 257,-216 283.35,-190.06 265.82,-166.07 293,-141 293.89,-140.18 294.81,-139.38 295.76,-138.61"/>
<polygon fill="#63b8ff" stroke="#63b8ff" points="297.37,-141.75 303.63,-133.2 293.41,-135.98 297.37,-141.75"/>
</g>
<!-- Node11 -->
<g id="node11" class="node">
<title>Node11</title>
<g id="a_node11"><a xlink:href="a01559.html#abf41a7e9178356314082284e6cfea278" target="_top" xlink:title=" ">
<polygon fill="white" stroke="#666666" points="596.5,-279 461.25,-279 461.25,-247 596.5,-247 596.5,-279"/>
<text xml:space="preserve" text-anchor="start" x="469.25" y="-265.5" font-family="Helvetica,sans-Serif" font-size="10.00">nlohmann::detail::exception</text>
<text xml:space="preserve" text-anchor="middle" x="528.88" y="-253.5" font-family="Helvetica,sans-Serif" font-size="10.00">::name</text>
</a>
</g>
</g>
<!-- Node10&#45;&gt;Node11 -->
<g id="edge11" class="edge">
<title>Node10&#45;&gt;Node11</title>
<path fill="none" stroke="#63b8ff" d="M407.8,-349.51C413.79,-346.92 419.75,-344.06 425.25,-341 452.89,-325.61 481.29,-303.43 501.19,-286.66"/>
<polygon fill="#63b8ff" stroke="#63b8ff" points="503.23,-289.52 508.55,-280.36 498.68,-284.2 503.23,-289.52"/>
</g>
<!-- Node12&#45;&gt;Node11 -->
<g id="edge13" class="edge">
<title>Node12&#45;&gt;Node11</title>
<path fill="none" stroke="#63b8ff" d="M407,-182.39C413.24,-185.04 419.48,-187.93 425.25,-191 451.45,-204.95 478.87,-224.47 498.76,-239.67"/>
<polygon fill="#63b8ff" stroke="#63b8ff" points="496.37,-242.25 506.42,-245.6 500.66,-236.71 496.37,-242.25"/>
</g>
<!-- Node18&#45;&gt;Node9 -->
<g id="edge22" class="edge">
<title>Node18&#45;&gt;Node9</title>
<path fill="none" stroke="#63b8ff" d="M257.09,-199.74C268.5,-201.58 280.65,-203.53 292.42,-205.43"/>
<polygon fill="#63b8ff" stroke="#63b8ff" points="291.63,-208.85 302.06,-206.98 292.74,-201.93 291.63,-208.85"/>
</g>
<!-- Node18&#45;&gt;Node12 -->
<g id="edge23" class="edge">
<title>Node18&#45;&gt;Node12</title>
<path fill="none" stroke="#63b8ff" d="M257.09,-182.26C268.18,-180.47 279.98,-178.57 291.44,-176.73"/>
<polygon fill="#63b8ff" stroke="#63b8ff" points="291.95,-180.19 301.27,-175.15 290.84,-173.28 291.95,-180.19"/>
</g>
<!-- Node18&#45;&gt;Node15 -->
<g id="edge26" class="edge">
<title>Node18&#45;&gt;Node15</title>
<path fill="none" stroke="#63b8ff" d="M240.54,-174.63C246.14,-171.9 251.78,-168.99 257,-166 273.91,-156.33 275.78,-150.11 293,-141 295.53,-139.66 298.15,-138.36 300.81,-137.09"/>
<polygon fill="#63b8ff" stroke="#63b8ff" points="302.19,-140.31 309.89,-133.04 299.33,-133.92 302.19,-140.31"/>
</g>
<!-- Node19 -->
<g id="node19" class="node">
<title>Node19</title>
<g id="a_node19"><a xlink:href="a01659.html#ab5b70d60a636b9c5e10f6c8caac60b9e" target="_top" xlink:title="return whether value is an array">
<polygon fill="white" stroke="#666666" points="414.38,-82 303.88,-82 303.88,-50 414.38,-50 414.38,-82"/>
<text xml:space="preserve" text-anchor="start" x="311.88" y="-68.5" font-family="Helvetica,sans-Serif" font-size="10.00">nlohmann::basic_json</text>
<text xml:space="preserve" text-anchor="middle" x="359.12" y="-56.5" font-family="Helvetica,sans-Serif" font-size="10.00">::is_array</text>
</a>
</g>
</g>
<!-- Node18&#45;&gt;Node19 -->
<g id="edge24" class="edge">
<title>Node18&#45;&gt;Node19</title>
<path fill="none" stroke="#63b8ff" d="M246.05,-174.55C250.01,-172.04 253.75,-169.2 257,-166 283.35,-140.06 265.82,-116.07 293,-91 293.89,-90.18 294.81,-89.38 295.76,-88.61"/>
<polygon fill="#63b8ff" stroke="#63b8ff" points="297.37,-91.75 303.63,-83.2 293.41,-85.98 297.37,-91.75"/>
</g>
<!-- Node20 -->
<g id="node20" class="node">
<title>Node20</title>
<g id="a_node20"><a xlink:href="a01659.html#aedc7afad96292b5ab61a2e0ad3067f5f" target="_top" xlink:title="return whether value is null">
<polygon fill="white" stroke="#666666" points="414.38,-32 303.88,-32 303.88,0 414.38,0 414.38,-32"/>
<text xml:space="preserve" text-anchor="start" x="311.88" y="-18.5" font-family="Helvetica,sans-Serif" font-size="10.00">nlohmann::basic_json</text>
<text xml:space="preserve" text-anchor="middle" x="359.12" y="-6.5" font-family="Helvetica,sans-Serif" font-size="10.00">::is_null</text>
</a>
</g>
</g>
<!-- Node18&#45;&gt;Node20 -->
<g id="edge25" class="edge">
<title>Node18&#45;&gt;Node20</title>
<path fill="none" stroke="#63b8ff" d="M247.41,-174.54C250.95,-172.06 254.23,-169.23 257,-166 294.67,-122.14 253.92,-83.6 293,-41 293.58,-40.36 294.18,-39.74 294.8,-39.14"/>
<polygon fill="#63b8ff" stroke="#63b8ff" points="296.8,-42.03 302.46,-33.07 292.45,-36.54 296.8,-42.03"/>
</g>
</g>
</svg>
