<?xml version="1.0" encoding="UTF-8" standalone="no"?>
<!DOCTYPE svg PUBLIC "-//W3C//DTD SVG 1.1//EN"
 "http://www.w3.org/Graphics/SVG/1.1/DTD/svg11.dtd">
<!-- Generated by graphviz version 13.1.2 (20250808.2320)
 -->
<!-- Title: nlohmann::detail::json_ref&lt; BasicJsonType &gt; Pages: 1 -->
<svg width="241pt" height="108pt"
 viewBox="0.00 0.00 241.00 108.00" xmlns="http://www.w3.org/2000/svg" xmlns:xlink="http://www.w3.org/1999/xlink">
<g id="graph0" class="graph" transform="scale(1 1) rotate(0) translate(4 104)">
<title>nlohmann::detail::json_ref&lt; BasicJsonType &gt;</title>
<!-- Node1 -->
<g id="node1" class="node">
<title>Node1</title>
<g id="a_node1"><a xlink:title=" ">
<polygon fill="#999999" stroke="#666666" points="194,-32 76.75,-32 76.75,0 194,0 194,-32"/>
<text xml:space="preserve" text-anchor="start" x="84.75" y="-18.5" font-family="Helvetica,sans-Serif" font-size="10.00">nlohmann::detail::json</text>
<text xml:space="preserve" text-anchor="middle" x="135.38" y="-6.5" font-family="Helvetica,sans-Serif" font-size="10.00">_ref&lt; BasicJsonType &gt;</text>
</a>
</g>
</g>
<!-- Node2 -->
<g id="node2" class="node">
<title>Node2</title>
<g id="a_node2"><a xlink:title=" ">
<polygon fill="white" stroke="#666666" points="82.75,-100 0,-100 0,-80 82.75,-80 82.75,-100"/>
<text xml:space="preserve" text-anchor="middle" x="41.38" y="-86.5" font-family="Helvetica,sans-Serif" font-size="10.00">BasicJsonType</text>
</a>
</g>
</g>
<!-- Node2&#45;&gt;Node1 -->
<g id="edge1" class="edge">
<title>Node2&#45;&gt;Node1</title>
<path fill="none" stroke="#9a32cd" stroke-dasharray="5,2" d="M53.21,-70.26C58.23,-63.31 64.5,-55.74 71.38,-50 79.53,-43.19 89.33,-37.26 98.78,-32.39"/>
<polygon fill="#9a32cd" stroke="#9a32cd" points="50.38,-68.2 47.69,-78.45 56.19,-72.12 50.38,-68.2"/>
<text xml:space="preserve" text-anchor="middle" x="101.38" y="-52.5" font-family="Helvetica,sans-Serif" font-size="10.00"> owned_value</text>
</g>
<!-- Node3 -->
<g id="node3" class="node">
<title>Node3</title>
<g id="a_node3"><a xlink:title=" ">
<polygon fill="white" stroke="#666666" points="170.38,-100 100.38,-100 100.38,-80 170.38,-80 170.38,-100"/>
<text xml:space="preserve" text-anchor="middle" x="135.38" y="-86.5" font-family="Helvetica,sans-Serif" font-size="10.00">value_type *</text>
</a>
</g>
</g>
<!-- Node3&#45;&gt;Node1 -->
<g id="edge2" class="edge">
<title>Node3&#45;&gt;Node1</title>
<path fill="none" stroke="#9a32cd" stroke-dasharray="5,2" d="M135.38,-68.1C135.38,-56.71 135.38,-42.87 135.38,-32.47"/>
<polygon fill="#9a32cd" stroke="#9a32cd" points="131.88,-68.07 135.38,-78.07 138.88,-68.07 131.88,-68.07"/>
<text xml:space="preserve" text-anchor="middle" x="156.75" y="-52.5" font-family="Helvetica,sans-Serif" font-size="10.00"> value_ref</text>
</g>
<!-- Node4 -->
<g id="node4" class="node">
<title>Node4</title>
<g id="a_node4"><a xlink:title=" ">
<polygon fill="white" stroke="#666666" points="222.38,-100 188.38,-100 188.38,-80 222.38,-80 222.38,-100"/>
<text xml:space="preserve" text-anchor="middle" x="205.38" y="-86.5" font-family="Helvetica,sans-Serif" font-size="10.00">bool</text>
</a>
</g>
</g>
<!-- Node4&#45;&gt;Node1 -->
<g id="edge3" class="edge">
<title>Node4&#45;&gt;Node1</title>
<path fill="none" stroke="#9a32cd" stroke-dasharray="5,2" d="M196.22,-69.85C192.48,-63.14 187.77,-55.84 182.38,-50 176.29,-43.41 168.67,-37.37 161.35,-32.32"/>
<polygon fill="#9a32cd" stroke="#9a32cd" points="192.86,-70.96 200.55,-78.25 199.08,-67.76 192.86,-70.96"/>
<text xml:space="preserve" text-anchor="middle" x="212.39" y="-52.5" font-family="Helvetica,sans-Serif" font-size="10.00"> is_rvalue</text>
</g>
</g>
</svg>
