<?xml version="1.0" encoding="UTF-8" standalone="no"?>
<!DOCTYPE svg PUBLIC "-//W3C//DTD SVG 1.1//EN"
 "http://www.w3.org/Graphics/SVG/1.1/DTD/svg11.dtd">
<!-- Generated by graphviz version 13.1.2 (20250808.2320)
 -->
<!-- Title: nlohmann::basic_json::find Pages: 1 -->
<svg width="422pt" height="183pt"
 viewBox="0.00 0.00 422.00 183.00" xmlns="http://www.w3.org/2000/svg" xmlns:xlink="http://www.w3.org/1999/xlink">
<g id="graph0" class="graph" transform="scale(1 1) rotate(0) translate(4 179)">
<title>nlohmann::basic_json::find</title>
<!-- Node1 -->
<g id="node1" class="node">
<title>Node1</title>
<g id="a_node1"><a xlink:title="find an element in a JSON object">
<polygon fill="#999999" stroke="#666666" points="414,-107 303.5,-107 303.5,-75 414,-75 414,-107"/>
<text xml:space="preserve" text-anchor="start" x="311.5" y="-93.5" font-family="Helvetica,sans-Serif" font-size="10.00">nlohmann::basic_json</text>
<text xml:space="preserve" text-anchor="middle" x="358.75" y="-81.5" font-family="Helvetica,sans-Serif" font-size="10.00">::find</text>
</a>
</g>
</g>
<!-- Node2 -->
<g id="node2" class="node">
<title>Node2</title>
<g id="a_node2"><a xlink:href="a01659.html#a1c1f21327df91a4dd6c5f5a107240385" target="_top" xlink:title="creates a diff as a JSON patch">
<polygon fill="white" stroke="#666666" points="267.5,-157 157,-157 157,-125 267.5,-125 267.5,-157"/>
<text xml:space="preserve" text-anchor="start" x="165" y="-143.5" font-family="Helvetica,sans-Serif" font-size="10.00">nlohmann::basic_json</text>
<text xml:space="preserve" text-anchor="middle" x="212.25" y="-131.5" font-family="Helvetica,sans-Serif" font-size="10.00">::diff</text>
</a>
</g>
</g>
<!-- Node1&#45;&gt;Node2 -->
<g id="edge1" class="edge">
<title>Node1&#45;&gt;Node2</title>
<path fill="none" stroke="#63b8ff" d="M299.73,-111.08C286.76,-115.56 273.15,-120.27 260.67,-124.59"/>
<polygon fill="#63b8ff" stroke="#63b8ff" points="300.7,-114.44 309,-107.87 298.41,-107.83 300.7,-114.44"/>
</g>
<!-- Node3 -->
<g id="node3" class="node">
<title>Node3</title>
<g id="a_node3"><a xlink:href="a01659.html#adcc786998f220a5b3083ee8a37c4553e" target="_top" xlink:title="applies a JSON patch">
<polygon fill="white" stroke="#666666" points="267.5,-107 157,-107 157,-75 267.5,-75 267.5,-107"/>
<text xml:space="preserve" text-anchor="start" x="165" y="-93.5" font-family="Helvetica,sans-Serif" font-size="10.00">nlohmann::basic_json</text>
<text xml:space="preserve" text-anchor="middle" x="212.25" y="-81.5" font-family="Helvetica,sans-Serif" font-size="10.00">::patch</text>
</a>
</g>
</g>
<!-- Node1&#45;&gt;Node3 -->
<g id="edge3" class="edge">
<title>Node1&#45;&gt;Node3</title>
<path fill="none" stroke="#63b8ff" d="M291.63,-91C283.71,-91 275.69,-91 267.96,-91"/>
<polygon fill="#63b8ff" stroke="#63b8ff" points="291.61,-94.5 301.61,-91 291.61,-87.5 291.61,-94.5"/>
</g>
<!-- Node4 -->
<g id="node4" class="node">
<title>Node4</title>
<g id="a_node4"><a xlink:href="a01659.html#a11641b35219676b225d9bd15c7677659" target="_top" xlink:title="access specified object element with default value">
<polygon fill="white" stroke="#666666" points="267.5,-57 157,-57 157,-25 267.5,-25 267.5,-57"/>
<text xml:space="preserve" text-anchor="start" x="165" y="-43.5" font-family="Helvetica,sans-Serif" font-size="10.00">nlohmann::basic_json</text>
<text xml:space="preserve" text-anchor="middle" x="212.25" y="-31.5" font-family="Helvetica,sans-Serif" font-size="10.00">::value</text>
</a>
</g>
</g>
<!-- Node1&#45;&gt;Node4 -->
<g id="edge4" class="edge">
<title>Node1&#45;&gt;Node4</title>
<path fill="none" stroke="#63b8ff" d="M299.73,-70.92C286.76,-66.44 273.15,-61.73 260.67,-57.41"/>
<polygon fill="#63b8ff" stroke="#63b8ff" points="298.41,-74.17 309,-74.13 300.7,-67.56 298.41,-74.17"/>
</g>
<!-- Node2&#45;&gt;Node2 -->
<g id="edge2" class="edge">
<title>Node2&#45;&gt;Node2</title>
<path fill="none" stroke="#63b8ff" d="M236.66,-168.71C232.59,-172.48 224.46,-175 212.25,-175 189.93,-175 181.21,-166.58 186.1,-157.44"/>
<polygon fill="#63b8ff" stroke="#63b8ff" points="240.1,-169.36 238.17,-158.94 233.19,-168.29 240.1,-169.36"/>
</g>
<!-- Node5 -->
<g id="node5" class="node">
<title>Node5</title>
<g id="a_node5"><a xlink:href="a02059.html#ad7f122fa9bfc5aa4d9b65a3059892146" target="_top" xlink:title="constructor for strings">
<polygon fill="white" stroke="#666666" points="121,-82 0,-82 0,-50 121,-50 121,-82"/>
<text xml:space="preserve" text-anchor="start" x="8" y="-68.5" font-family="Helvetica,sans-Serif" font-size="10.00">nlohmann::basic_json</text>
<text xml:space="preserve" text-anchor="middle" x="60.5" y="-56.5" font-family="Helvetica,sans-Serif" font-size="10.00">::json_value::json_value</text>
</a>
</g>
</g>
<!-- Node4&#45;&gt;Node5 -->
<g id="edge5" class="edge">
<title>Node4&#45;&gt;Node5</title>
<path fill="none" stroke="#63b8ff" d="M145.5,-51.98C137.43,-53.32 129.23,-54.69 121.26,-56.02"/>
<polygon fill="#63b8ff" stroke="#63b8ff" points="145.98,-55.44 155.27,-50.35 144.83,-48.54 145.98,-55.44"/>
</g>
<!-- Node6 -->
<g id="node6" class="node">
<title>Node6</title>
<g id="a_node6"><a xlink:href="a01659.html#adcfdefe95d5c2471a5c97e911d46ee88" target="_top" xlink:title="overload for a default value of type const char*">
<polygon fill="white" stroke="#666666" points="115.75,-32 5.25,-32 5.25,0 115.75,0 115.75,-32"/>
<text xml:space="preserve" text-anchor="start" x="13.25" y="-18.5" font-family="Helvetica,sans-Serif" font-size="10.00">nlohmann::basic_json</text>
<text xml:space="preserve" text-anchor="middle" x="60.5" y="-6.5" font-family="Helvetica,sans-Serif" font-size="10.00">::value</text>
</a>
</g>
</g>
<!-- Node4&#45;&gt;Node6 -->
<g id="edge6" class="edge">
<title>Node4&#45;&gt;Node6</title>
<path fill="none" stroke="#63b8ff" d="M145.44,-30.01C135.67,-28.38 125.7,-26.72 116.2,-25.13"/>
<polygon fill="#63b8ff" stroke="#63b8ff" points="144.83,-33.46 155.27,-31.65 145.98,-26.56 144.83,-33.46"/>
</g>
</g>
</svg>
