<?xml version="1.0" encoding="UTF-8" standalone="no"?>
<!DOCTYPE svg PUBLIC "-//W3C//DTD SVG 1.1//EN"
 "http://www.w3.org/Graphics/SVG/1.1/DTD/svg11.dtd">
<!-- Generated by graphviz version 13.1.2 (20250808.2320)
 -->
<!-- Title: nlohmann::basic_json::cbegin Pages: 1 -->
<svg width="412pt" height="258pt"
 viewBox="0.00 0.00 412.00 258.00" xmlns="http://www.w3.org/2000/svg" xmlns:xlink="http://www.w3.org/1999/xlink">
<g id="graph0" class="graph" transform="scale(1 1) rotate(0) translate(4 254)">
<title>nlohmann::basic_json::cbegin</title>
<!-- Node1 -->
<g id="node1" class="node">
<title>Node1</title>
<g id="a_node1"><a xlink:title="returns a const iterator to the first element">
<polygon fill="#999999" stroke="#666666" points="403.5,-132 293,-132 293,-100 403.5,-100 403.5,-132"/>
<text xml:space="preserve" text-anchor="start" x="301" y="-118.5" font-family="Helvetica,sans-Serif" font-size="10.00">nlohmann::basic_json</text>
<text xml:space="preserve" text-anchor="middle" x="348.25" y="-106.5" font-family="Helvetica,sans-Serif" font-size="10.00">::cbegin</text>
</a>
</g>
</g>
<!-- Node2 -->
<g id="node2" class="node">
<title>Node2</title>
<g id="a_node2"><a xlink:href="a01659.html#a4f147be16fcde9f510c4aac89ab511c9" target="_top" xlink:title="returns a const iterator to the first element">
<polygon fill="white" stroke="#666666" points="257,-250 146.5,-250 146.5,-218 257,-218 257,-250"/>
<text xml:space="preserve" text-anchor="start" x="154.5" y="-236.5" font-family="Helvetica,sans-Serif" font-size="10.00">nlohmann::basic_json</text>
<text xml:space="preserve" text-anchor="middle" x="201.75" y="-224.5" font-family="Helvetica,sans-Serif" font-size="10.00">::begin</text>
</a>
</g>
</g>
<!-- Node1&#45;&gt;Node2 -->
<g id="edge1" class="edge">
<title>Node1&#45;&gt;Node2</title>
<path fill="none" stroke="#63b8ff" d="M327.52,-140.94C310.5,-161.24 284.39,-189.61 257,-209 252.6,-212.12 247.75,-215 242.81,-217.61"/>
<polygon fill="#63b8ff" stroke="#63b8ff" points="330.07,-143.36 333.72,-133.41 324.66,-138.91 330.07,-143.36"/>
</g>
<!-- Node3 -->
<g id="node3" class="node">
<title>Node3</title>
<g id="a_node3"><a xlink:href="a01659.html#a223480466a0922267d680ec8f0722d58" target="_top" xlink:title="returns a const reverse iterator to one before the first">
<polygon fill="white" stroke="#666666" points="257,-200 146.5,-200 146.5,-168 257,-168 257,-200"/>
<text xml:space="preserve" text-anchor="start" x="154.5" y="-186.5" font-family="Helvetica,sans-Serif" font-size="10.00">nlohmann::basic_json</text>
<text xml:space="preserve" text-anchor="middle" x="201.75" y="-174.5" font-family="Helvetica,sans-Serif" font-size="10.00">::crend</text>
</a>
</g>
</g>
<!-- Node1&#45;&gt;Node3 -->
<g id="edge2" class="edge">
<title>Node1&#45;&gt;Node3</title>
<path fill="none" stroke="#63b8ff" d="M302.75,-137.34C288.19,-144.29 271.92,-152.01 257,-159 251.08,-161.77 244.79,-164.69 238.67,-167.52"/>
<polygon fill="#63b8ff" stroke="#63b8ff" points="304.13,-140.56 311.65,-133.09 301.12,-134.24 304.13,-140.56"/>
</g>
<!-- Node5 -->
<g id="node5" class="node">
<title>Node5</title>
<g id="a_node5"><a xlink:href="a01659.html#a1c1f21327df91a4dd6c5f5a107240385" target="_top" xlink:title="creates a diff as a JSON patch">
<polygon fill="white" stroke="#666666" points="257,-132 146.5,-132 146.5,-100 257,-100 257,-132"/>
<text xml:space="preserve" text-anchor="start" x="154.5" y="-118.5" font-family="Helvetica,sans-Serif" font-size="10.00">nlohmann::basic_json</text>
<text xml:space="preserve" text-anchor="middle" x="201.75" y="-106.5" font-family="Helvetica,sans-Serif" font-size="10.00">::diff</text>
</a>
</g>
</g>
<!-- Node1&#45;&gt;Node5 -->
<g id="edge4" class="edge">
<title>Node1&#45;&gt;Node5</title>
<path fill="none" stroke="#63b8ff" d="M281.13,-116C273.21,-116 265.19,-116 257.46,-116"/>
<polygon fill="#63b8ff" stroke="#63b8ff" points="281.11,-119.5 291.11,-116 281.11,-112.5 281.11,-119.5"/>
</g>
<!-- Node6 -->
<g id="node6" class="node">
<title>Node6</title>
<g id="a_node6"><a xlink:href="a01659.html#a5ac8f974c178cf9326b6765e22f50eb6" target="_top" xlink:title="access the first element">
<polygon fill="white" stroke="#666666" points="257,-82 146.5,-82 146.5,-50 257,-50 257,-82"/>
<text xml:space="preserve" text-anchor="start" x="154.5" y="-68.5" font-family="Helvetica,sans-Serif" font-size="10.00">nlohmann::basic_json</text>
<text xml:space="preserve" text-anchor="middle" x="201.75" y="-56.5" font-family="Helvetica,sans-Serif" font-size="10.00">::front</text>
</a>
</g>
</g>
<!-- Node1&#45;&gt;Node6 -->
<g id="edge6" class="edge">
<title>Node1&#45;&gt;Node6</title>
<path fill="none" stroke="#63b8ff" d="M289.23,-95.92C276.26,-91.44 262.65,-86.73 250.17,-82.41"/>
<polygon fill="#63b8ff" stroke="#63b8ff" points="287.91,-99.17 298.5,-99.13 290.2,-92.56 287.91,-99.17"/>
</g>
<!-- Node7 -->
<g id="node7" class="node">
<title>Node7</title>
<g id="a_node7"><a xlink:href="a01659.html#a377819905d567f6f523dcbc592cb6356" target="_top" xlink:title="updates a JSON object from another object, overwriting existing keys">
<polygon fill="white" stroke="#666666" points="257,-32 146.5,-32 146.5,0 257,0 257,-32"/>
<text xml:space="preserve" text-anchor="start" x="154.5" y="-18.5" font-family="Helvetica,sans-Serif" font-size="10.00">nlohmann::basic_json</text>
<text xml:space="preserve" text-anchor="middle" x="201.75" y="-6.5" font-family="Helvetica,sans-Serif" font-size="10.00">::update</text>
</a>
</g>
</g>
<!-- Node1&#45;&gt;Node7 -->
<g id="edge7" class="edge">
<title>Node1&#45;&gt;Node7</title>
<path fill="none" stroke="#63b8ff" d="M321.89,-91.84C304.53,-76.1 280.48,-55.81 257,-41 252.18,-37.96 246.92,-35.07 241.64,-32.41"/>
<polygon fill="#63b8ff" stroke="#63b8ff" points="319.49,-94.38 329.21,-98.58 324.23,-89.23 319.49,-94.38"/>
</g>
<!-- Node4 -->
<g id="node4" class="node">
<title>Node4</title>
<g id="a_node4"><a xlink:href="a01659.html#a2e4cbf41d593d41847b90aea55e5e84d" target="_top" xlink:title="returns a const reverse iterator to one before the first">
<polygon fill="white" stroke="#666666" points="110.5,-200 0,-200 0,-168 110.5,-168 110.5,-200"/>
<text xml:space="preserve" text-anchor="start" x="8" y="-186.5" font-family="Helvetica,sans-Serif" font-size="10.00">nlohmann::basic_json</text>
<text xml:space="preserve" text-anchor="middle" x="55.25" y="-174.5" font-family="Helvetica,sans-Serif" font-size="10.00">::rend</text>
</a>
</g>
</g>
<!-- Node3&#45;&gt;Node4 -->
<g id="edge3" class="edge">
<title>Node3&#45;&gt;Node4</title>
<path fill="none" stroke="#63b8ff" d="M134.63,-184C126.71,-184 118.69,-184 110.96,-184"/>
<polygon fill="#63b8ff" stroke="#63b8ff" points="134.61,-187.5 144.61,-184 134.61,-180.5 134.61,-187.5"/>
</g>
<!-- Node5&#45;&gt;Node5 -->
<g id="edge5" class="edge">
<title>Node5&#45;&gt;Node5</title>
<path fill="none" stroke="#63b8ff" d="M226.16,-143.71C222.09,-147.48 213.96,-150 201.75,-150 179.43,-150 170.71,-141.58 175.6,-132.44"/>
<polygon fill="#63b8ff" stroke="#63b8ff" points="229.6,-144.36 227.67,-133.94 222.69,-143.29 229.6,-144.36"/>
</g>
</g>
</svg>
