<?xml version="1.0" encoding="UTF-8" standalone="no"?>
<!DOCTYPE svg PUBLIC "-//W3C//DTD SVG 1.1//EN"
 "http://www.w3.org/Graphics/SVG/1.1/DTD/svg11.dtd">
<!-- Generated by graphviz version 13.1.2 (20250808.2320)
 -->
<!-- Title: nlohmann::basic_json::contains Pages: 1 -->
<svg width="748pt" height="90pt"
 viewBox="0.00 0.00 748.00 90.00" xmlns="http://www.w3.org/2000/svg" xmlns:xlink="http://www.w3.org/1999/xlink">
<g id="graph0" class="graph" transform="scale(1 1) rotate(0) translate(4 86)">
<title>nlohmann::basic_json::contains</title>
<!-- Node1 -->
<g id="node1" class="node">
<title>Node1</title>
<g id="a_node1"><a xlink:title="check the existence of an element in a JSON object given a JSON pointer">
<polygon fill="#999999" stroke="#666666" points="110.5,-57 0,-57 0,-25 110.5,-25 110.5,-57"/>
<text xml:space="preserve" text-anchor="start" x="8" y="-43.5" font-family="Helvetica,sans-Serif" font-size="10.00">nlohmann::basic_json</text>
<text xml:space="preserve" text-anchor="middle" x="55.25" y="-31.5" font-family="Helvetica,sans-Serif" font-size="10.00">::contains</text>
</a>
</g>
</g>
<!-- Node2 -->
<g id="node2" class="node">
<title>Node2</title>
<g id="a_node2"><a xlink:href="a01663.html#a90d38e45e2d3add52d824bc55da8f772" target="_top" xlink:title=" ">
<polygon fill="white" stroke="#666666" points="263,-57 146.5,-57 146.5,-25 263,-25 263,-57"/>
<text xml:space="preserve" text-anchor="start" x="154.5" y="-43.5" font-family="Helvetica,sans-Serif" font-size="10.00">nlohmann::json_pointer</text>
<text xml:space="preserve" text-anchor="middle" x="204.75" y="-31.5" font-family="Helvetica,sans-Serif" font-size="10.00">::contains</text>
</a>
</g>
</g>
<!-- Node1&#45;&gt;Node2 -->
<g id="edge1" class="edge">
<title>Node1&#45;&gt;Node2</title>
<path fill="none" stroke="#63b8ff" d="M110.75,-41C118.56,-41 126.68,-41 134.73,-41"/>
<polygon fill="#63b8ff" stroke="#63b8ff" points="134.49,-44.5 144.49,-41 134.49,-37.5 134.49,-44.5"/>
</g>
<!-- Node3 -->
<g id="node3" class="node">
<title>Node3</title>
<g id="a_node3"><a xlink:href="a01663.html#ae28e4b79b9d4fac9e6dca29f47f946fa" target="_top" xlink:title=" ">
<polygon fill="white" stroke="#666666" points="415.5,-57 299,-57 299,-25 415.5,-25 415.5,-57"/>
<text xml:space="preserve" text-anchor="start" x="307" y="-43.5" font-family="Helvetica,sans-Serif" font-size="10.00">nlohmann::json_pointer</text>
<text xml:space="preserve" text-anchor="middle" x="357.25" y="-31.5" font-family="Helvetica,sans-Serif" font-size="10.00">::array_index</text>
</a>
</g>
</g>
<!-- Node2&#45;&gt;Node3 -->
<g id="edge2" class="edge">
<title>Node2&#45;&gt;Node3</title>
<path fill="none" stroke="#63b8ff" d="M263.08,-41C270.98,-41 279.17,-41 287.25,-41"/>
<polygon fill="#63b8ff" stroke="#63b8ff" points="287.07,-44.5 297.07,-41 287.07,-37.5 287.07,-44.5"/>
</g>
<!-- Node4 -->
<g id="node4" class="node">
<title>Node4</title>
<g id="a_node4"><a xlink:href="a01563.html#a137ea4d27de45d8a844fd13451d40f3d" target="_top" xlink:title="create a parse error exception">
<polygon fill="white" stroke="#666666" points="568.75,-32 451.5,-32 451.5,0 568.75,0 568.75,-32"/>
<text xml:space="preserve" text-anchor="start" x="459.5" y="-18.5" font-family="Helvetica,sans-Serif" font-size="10.00">nlohmann::detail::parse</text>
<text xml:space="preserve" text-anchor="middle" x="510.12" y="-6.5" font-family="Helvetica,sans-Serif" font-size="10.00">_error::create</text>
</a>
</g>
</g>
<!-- Node3&#45;&gt;Node4 -->
<g id="edge3" class="edge">
<title>Node3&#45;&gt;Node4</title>
<path fill="none" stroke="#63b8ff" d="M415.72,-31.48C423.59,-30.17 431.73,-28.82 439.78,-27.49"/>
<polygon fill="#63b8ff" stroke="#63b8ff" points="440.28,-30.96 449.57,-25.87 439.13,-24.05 440.28,-30.96"/>
</g>
<!-- Node7 -->
<g id="node7" class="node">
<title>Node7</title>
<g id="a_node7"><a xlink:href="a01575.html#a3f6d82a6f967c4728a1ec735a7867073" target="_top" xlink:title=" ">
<polygon fill="white" stroke="#666666" points="563.5,-82 456.75,-82 456.75,-50 563.5,-50 563.5,-82"/>
<text xml:space="preserve" text-anchor="start" x="464.75" y="-68.5" font-family="Helvetica,sans-Serif" font-size="10.00">nlohmann::detail::out</text>
<text xml:space="preserve" text-anchor="middle" x="510.12" y="-56.5" font-family="Helvetica,sans-Serif" font-size="10.00">_of_range::create</text>
</a>
</g>
</g>
<!-- Node3&#45;&gt;Node7 -->
<g id="edge6" class="edge">
<title>Node3&#45;&gt;Node7</title>
<path fill="none" stroke="#63b8ff" d="M415.72,-50.52C425.3,-52.11 435.28,-53.76 445.01,-55.38"/>
<polygon fill="#63b8ff" stroke="#63b8ff" points="444.35,-58.81 454.78,-57 445.49,-51.91 444.35,-58.81"/>
</g>
<!-- Node5 -->
<g id="node5" class="node">
<title>Node5</title>
<g id="a_node5"><a xlink:href="a01559.html#abf41a7e9178356314082284e6cfea278" target="_top" xlink:title=" ">
<polygon fill="white" stroke="#666666" points="740,-82 604.75,-82 604.75,-50 740,-50 740,-82"/>
<text xml:space="preserve" text-anchor="start" x="612.75" y="-68.5" font-family="Helvetica,sans-Serif" font-size="10.00">nlohmann::detail::exception</text>
<text xml:space="preserve" text-anchor="middle" x="672.38" y="-56.5" font-family="Helvetica,sans-Serif" font-size="10.00">::name</text>
</a>
</g>
</g>
<!-- Node4&#45;&gt;Node5 -->
<g id="edge4" class="edge">
<title>Node4&#45;&gt;Node5</title>
<path fill="none" stroke="#63b8ff" d="M563.6,-32.37C577.64,-36.75 592.97,-41.54 607.54,-46.08"/>
<polygon fill="#63b8ff" stroke="#63b8ff" points="606.48,-49.42 617.07,-49.05 608.56,-42.74 606.48,-49.42"/>
</g>
<!-- Node6 -->
<g id="node6" class="node">
<title>Node6</title>
<g id="a_node6"><a xlink:href="a01563.html#aefe74adeaa48781464ba2fd2ec63d221" target="_top" xlink:title=" ">
<polygon fill="white" stroke="#666666" points="731,-32 613.75,-32 613.75,0 731,0 731,-32"/>
<text xml:space="preserve" text-anchor="start" x="621.75" y="-18.5" font-family="Helvetica,sans-Serif" font-size="10.00">nlohmann::detail::parse</text>
<text xml:space="preserve" text-anchor="middle" x="672.38" y="-6.5" font-family="Helvetica,sans-Serif" font-size="10.00">_error::position_string</text>
</a>
</g>
</g>
<!-- Node4&#45;&gt;Node6 -->
<g id="edge5" class="edge">
<title>Node4&#45;&gt;Node6</title>
<path fill="none" stroke="#63b8ff" d="M568.98,-16C579.69,-16 590.98,-16 602,-16"/>
<polygon fill="#63b8ff" stroke="#63b8ff" points="601.82,-19.5 611.82,-16 601.82,-12.5 601.82,-19.5"/>
</g>
<!-- Node7&#45;&gt;Node5 -->
<g id="edge7" class="edge">
<title>Node7&#45;&gt;Node5</title>
<path fill="none" stroke="#63b8ff" d="M563.6,-66C573.08,-66 583.15,-66 593.19,-66"/>
<polygon fill="#63b8ff" stroke="#63b8ff" points="592.95,-69.5 602.95,-66 592.95,-62.5 592.95,-69.5"/>
</g>
</g>
</svg>
