<?xml version="1.0" encoding="UTF-8" standalone="no"?>
<!DOCTYPE svg PUBLIC "-//W3C//DTD SVG 1.1//EN"
 "http://www.w3.org/Graphics/SVG/1.1/DTD/svg11.dtd">
<!-- Generated by graphviz version 13.1.2 (20250808.2320)
 -->
<!-- Title: nlohmann::basic_json::rend Pages: 1 -->
<svg width="720pt" height="90pt"
 viewBox="0.00 0.00 720.00 90.00" xmlns="http://www.w3.org/2000/svg" xmlns:xlink="http://www.w3.org/1999/xlink">
<g id="graph0" class="graph" transform="scale(1 1) rotate(0) translate(4 86)">
<title>nlohmann::basic_json::rend</title>
<!-- Node1 -->
<g id="node1" class="node">
<title>Node1</title>
<g id="a_node1"><a xlink:title="returns a const reverse iterator to one before the first">
<polygon fill="#999999" stroke="#666666" points="110.5,-57 0,-57 0,-25 110.5,-25 110.5,-57"/>
<text xml:space="preserve" text-anchor="start" x="8" y="-43.5" font-family="Helvetica,sans-Serif" font-size="10.00">nlohmann::basic_json</text>
<text xml:space="preserve" text-anchor="middle" x="55.25" y="-31.5" font-family="Helvetica,sans-Serif" font-size="10.00">::rend</text>
</a>
</g>
</g>
<!-- Node2 -->
<g id="node2" class="node">
<title>Node2</title>
<g id="a_node2"><a xlink:href="a01659.html#a223480466a0922267d680ec8f0722d58" target="_top" xlink:title="returns a const reverse iterator to one before the first">
<polygon fill="white" stroke="#666666" points="257,-57 146.5,-57 146.5,-25 257,-25 257,-57"/>
<text xml:space="preserve" text-anchor="start" x="154.5" y="-43.5" font-family="Helvetica,sans-Serif" font-size="10.00">nlohmann::basic_json</text>
<text xml:space="preserve" text-anchor="middle" x="201.75" y="-31.5" font-family="Helvetica,sans-Serif" font-size="10.00">::crend</text>
</a>
</g>
</g>
<!-- Node1&#45;&gt;Node2 -->
<g id="edge1" class="edge">
<title>Node1&#45;&gt;Node2</title>
<path fill="none" stroke="#63b8ff" d="M110.88,-41C118.61,-41 126.63,-41 134.55,-41"/>
<polygon fill="#63b8ff" stroke="#63b8ff" points="134.53,-44.5 144.53,-41 134.53,-37.5 134.53,-44.5"/>
</g>
<!-- Node3 -->
<g id="node3" class="node">
<title>Node3</title>
<g id="a_node3"><a xlink:href="a01659.html#ae508c13e3ad6ce445bcaf24a2bc7d039" target="_top" xlink:title="returns a const iterator to the first element">
<polygon fill="white" stroke="#666666" points="403.5,-57 293,-57 293,-25 403.5,-25 403.5,-57"/>
<text xml:space="preserve" text-anchor="start" x="301" y="-43.5" font-family="Helvetica,sans-Serif" font-size="10.00">nlohmann::basic_json</text>
<text xml:space="preserve" text-anchor="middle" x="348.25" y="-31.5" font-family="Helvetica,sans-Serif" font-size="10.00">::cbegin</text>
</a>
</g>
</g>
<!-- Node2&#45;&gt;Node3 -->
<g id="edge2" class="edge">
<title>Node2&#45;&gt;Node3</title>
<path fill="none" stroke="#63b8ff" d="M257.38,-41C265.11,-41 273.13,-41 281.05,-41"/>
<polygon fill="#63b8ff" stroke="#63b8ff" points="281.03,-44.5 291.03,-41 281.03,-37.5 281.03,-44.5"/>
</g>
<!-- Node4 -->
<g id="node4" class="node">
<title>Node4</title>
<g id="a_node4"><a xlink:href="a02011.html#a5d5f92c7f6848814bc82cf7e4e541820" target="_top" xlink:title="set the iterator to the first value">
<polygon fill="white" stroke="#666666" points="546.25,-57 439.5,-57 439.5,-25 546.25,-25 546.25,-57"/>
<text xml:space="preserve" text-anchor="start" x="447.5" y="-43.5" font-family="Helvetica,sans-Serif" font-size="10.00">nlohmann::detail::iter</text>
<text xml:space="preserve" text-anchor="middle" x="492.88" y="-31.5" font-family="Helvetica,sans-Serif" font-size="10.00">_impl::set_begin</text>
</a>
</g>
</g>
<!-- Node3&#45;&gt;Node4 -->
<g id="edge3" class="edge">
<title>Node3&#45;&gt;Node4</title>
<path fill="none" stroke="#63b8ff" d="M403.98,-41C411.89,-41 420.08,-41 428.14,-41"/>
<polygon fill="#63b8ff" stroke="#63b8ff" points="427.89,-44.5 437.89,-41 427.89,-37.5 427.89,-44.5"/>
</g>
<!-- Node5 -->
<g id="node5" class="node">
<title>Node5</title>
<g id="a_node5"><a xlink:href="a02003.html#a9d9b005906106e12aed738f97d7fee42" target="_top" xlink:title="set iterator to a defined beginning">
<polygon fill="white" stroke="#666666" points="712.25,-82 582.25,-82 582.25,-50 712.25,-50 712.25,-82"/>
<text xml:space="preserve" text-anchor="start" x="590.25" y="-68.5" font-family="Helvetica,sans-Serif" font-size="10.00">nlohmann::detail::primitive</text>
<text xml:space="preserve" text-anchor="middle" x="647.25" y="-56.5" font-family="Helvetica,sans-Serif" font-size="10.00">_iterator_t::set_begin</text>
</a>
</g>
</g>
<!-- Node4&#45;&gt;Node5 -->
<g id="edge4" class="edge">
<title>Node4&#45;&gt;Node5</title>
<path fill="none" stroke="#63b8ff" d="M546.74,-49.67C554.45,-50.94 562.52,-52.26 570.57,-53.58"/>
<polygon fill="#63b8ff" stroke="#63b8ff" points="569.99,-57.04 580.43,-55.2 571.13,-50.13 569.99,-57.04"/>
</g>
<!-- Node6 -->
<g id="node6" class="node">
<title>Node6</title>
<g id="a_node6"><a xlink:href="a02003.html#ad26a823483846a12d890c3feed3097eb" target="_top" xlink:title="set iterator to a defined past the end">
<polygon fill="white" stroke="#666666" points="712.25,-32 582.25,-32 582.25,0 712.25,0 712.25,-32"/>
<text xml:space="preserve" text-anchor="start" x="590.25" y="-18.5" font-family="Helvetica,sans-Serif" font-size="10.00">nlohmann::detail::primitive</text>
<text xml:space="preserve" text-anchor="middle" x="647.25" y="-6.5" font-family="Helvetica,sans-Serif" font-size="10.00">_iterator_t::set_end</text>
</a>
</g>
</g>
<!-- Node4&#45;&gt;Node6 -->
<g id="edge5" class="edge">
<title>Node4&#45;&gt;Node6</title>
<path fill="none" stroke="#63b8ff" d="M546.74,-32.33C554.45,-31.06 562.52,-29.74 570.57,-28.42"/>
<polygon fill="#63b8ff" stroke="#63b8ff" points="571.13,-31.87 580.43,-26.8 569.99,-24.96 571.13,-31.87"/>
</g>
</g>
</svg>
