<?xml version="1.0" encoding="UTF-8" standalone="no"?>
<!DOCTYPE svg PUBLIC "-//W3C//DTD SVG 1.1//EN"
 "http://www.w3.org/Graphics/SVG/1.1/DTD/svg11.dtd">
<!-- Generated by graphviz version 13.1.2 (20250808.2320)
 -->
<!-- Title: nlohmann::basic_json::at Pages: 1 -->
<svg width="452pt" height="190pt"
 viewBox="0.00 0.00 452.00 190.00" xmlns="http://www.w3.org/2000/svg" xmlns:xlink="http://www.w3.org/1999/xlink">
<g id="graph0" class="graph" transform="scale(1 1) rotate(0) translate(4 186)">
<title>nlohmann::basic_json::at</title>
<!-- Node1 -->
<g id="node1" class="node">
<title>Node1</title>
<g id="a_node1"><a xlink:title="access specified object element with bounds checking">
<polygon fill="#999999" stroke="#666666" points="124.75,-101 0,-101 0,-81 124.75,-81 124.75,-101"/>
<text xml:space="preserve" text-anchor="middle" x="62.38" y="-87.5" font-family="Helvetica,sans-Serif" font-size="10.00">nlohmann::basic_json::at</text>
</a>
</g>
</g>
<!-- Node2 -->
<g id="node2" class="node">
<title>Node2</title>
<g id="a_node2"><a xlink:href="a01571.html#aecc083aea4b698c33d042670ba50c10f" target="_top" xlink:title=" ">
<polygon fill="white" stroke="#666666" points="272.75,-182 160.75,-182 160.75,-150 272.75,-150 272.75,-182"/>
<text xml:space="preserve" text-anchor="start" x="168.75" y="-168.5" font-family="Helvetica,sans-Serif" font-size="10.00">nlohmann::detail::type</text>
<text xml:space="preserve" text-anchor="middle" x="216.75" y="-156.5" font-family="Helvetica,sans-Serif" font-size="10.00">_error::create</text>
</a>
</g>
</g>
<!-- Node1&#45;&gt;Node2 -->
<g id="edge1" class="edge">
<title>Node1&#45;&gt;Node2</title>
<path fill="none" stroke="#63b8ff" d="M83.01,-101.43C102.57,-111.74 133.55,-127.84 160.75,-141 163.31,-142.24 165.95,-143.5 168.61,-144.75"/>
<polygon fill="#63b8ff" stroke="#63b8ff" points="167.04,-147.88 177.58,-148.93 169.99,-141.53 167.04,-147.88"/>
</g>
<!-- Node4 -->
<g id="node4" class="node">
<title>Node4</title>
<g id="a_node4"><a xlink:href="a01575.html#a3f6d82a6f967c4728a1ec735a7867073" target="_top" xlink:title=" ">
<polygon fill="white" stroke="#666666" points="270.12,-132 163.38,-132 163.38,-100 270.12,-100 270.12,-132"/>
<text xml:space="preserve" text-anchor="start" x="171.38" y="-118.5" font-family="Helvetica,sans-Serif" font-size="10.00">nlohmann::detail::out</text>
<text xml:space="preserve" text-anchor="middle" x="216.75" y="-106.5" font-family="Helvetica,sans-Serif" font-size="10.00">_of_range::create</text>
</a>
</g>
</g>
<!-- Node1&#45;&gt;Node4 -->
<g id="edge3" class="edge">
<title>Node1&#45;&gt;Node4</title>
<path fill="none" stroke="#63b8ff" d="M124.91,-101.1C133.86,-102.56 143.08,-104.08 152.06,-105.55"/>
<polygon fill="#63b8ff" stroke="#63b8ff" points="151.35,-108.98 161.79,-107.15 152.48,-102.07 151.35,-108.98"/>
</g>
<!-- Node5 -->
<g id="node5" class="node">
<title>Node5</title>
<g id="a_node5"><a xlink:href="a01659.html#a57e8411a770a6263d6d8f2116c37f3aa" target="_top" xlink:title="return whether value is an object">
<polygon fill="white" stroke="#666666" points="272,-82 161.5,-82 161.5,-50 272,-50 272,-82"/>
<text xml:space="preserve" text-anchor="start" x="169.5" y="-68.5" font-family="Helvetica,sans-Serif" font-size="10.00">nlohmann::basic_json</text>
<text xml:space="preserve" text-anchor="middle" x="216.75" y="-56.5" font-family="Helvetica,sans-Serif" font-size="10.00">::is_object</text>
</a>
</g>
</g>
<!-- Node1&#45;&gt;Node5 -->
<g id="edge5" class="edge">
<title>Node1&#45;&gt;Node5</title>
<path fill="none" stroke="#63b8ff" d="M124.91,-80.9C133.2,-79.54 141.73,-78.14 150.09,-76.77"/>
<polygon fill="#63b8ff" stroke="#63b8ff" points="150.55,-80.24 159.85,-75.17 149.42,-73.34 150.55,-80.24"/>
</g>
<!-- Node6 -->
<g id="node6" class="node">
<title>Node6</title>
<g id="a_node6"><a xlink:href="a01659.html#ab8811fc4eab6091b32b34b3ac3e90474" target="_top" xlink:title="return the type as string">
<polygon fill="white" stroke="#666666" points="272,-32 161.5,-32 161.5,0 272,0 272,-32"/>
<text xml:space="preserve" text-anchor="start" x="169.5" y="-18.5" font-family="Helvetica,sans-Serif" font-size="10.00">nlohmann::basic_json</text>
<text xml:space="preserve" text-anchor="middle" x="216.75" y="-6.5" font-family="Helvetica,sans-Serif" font-size="10.00">::type_name</text>
</a>
</g>
</g>
<!-- Node1&#45;&gt;Node6 -->
<g id="edge6" class="edge">
<title>Node1&#45;&gt;Node6</title>
<path fill="none" stroke="#63b8ff" d="M83.01,-80.57C102.57,-70.26 133.55,-54.16 160.75,-41 163.31,-39.76 165.95,-38.5 168.61,-37.25"/>
<polygon fill="#63b8ff" stroke="#63b8ff" points="169.99,-40.47 177.58,-33.07 167.04,-34.12 169.99,-40.47"/>
</g>
<!-- Node3 -->
<g id="node3" class="node">
<title>Node3</title>
<g id="a_node3"><a xlink:href="a01559.html#abf41a7e9178356314082284e6cfea278" target="_top" xlink:title=" ">
<polygon fill="white" stroke="#666666" points="444,-157 308.75,-157 308.75,-125 444,-125 444,-157"/>
<text xml:space="preserve" text-anchor="start" x="316.75" y="-143.5" font-family="Helvetica,sans-Serif" font-size="10.00">nlohmann::detail::exception</text>
<text xml:space="preserve" text-anchor="middle" x="376.38" y="-131.5" font-family="Helvetica,sans-Serif" font-size="10.00">::name</text>
</a>
</g>
</g>
<!-- Node2&#45;&gt;Node3 -->
<g id="edge2" class="edge">
<title>Node2&#45;&gt;Node3</title>
<path fill="none" stroke="#63b8ff" d="M272.88,-157.26C280.75,-156.01 288.97,-154.7 297.19,-153.4"/>
<polygon fill="#63b8ff" stroke="#63b8ff" points="297.52,-156.89 306.85,-151.87 296.43,-149.98 297.52,-156.89"/>
</g>
<!-- Node4&#45;&gt;Node3 -->
<g id="edge4" class="edge">
<title>Node4&#45;&gt;Node3</title>
<path fill="none" stroke="#63b8ff" d="M270.24,-124.32C278.9,-125.7 288.03,-127.15 297.16,-128.59"/>
<polygon fill="#63b8ff" stroke="#63b8ff" points="296.34,-132.01 306.76,-130.12 297.43,-125.09 296.34,-132.01"/>
</g>
</g>
</svg>
