<?xml version="1.0" encoding="UTF-8" standalone="no"?>
<!DOCTYPE svg PUBLIC "-//W3C//DTD SVG 1.1//EN"
 "http://www.w3.org/Graphics/SVG/1.1/DTD/svg11.dtd">
<!-- Generated by graphviz version 13.1.2 (20250808.2320)
 -->
<!-- Title: nlohmann::basic_json::insert Pages: 1 -->
<svg width="593pt" height="240pt"
 viewBox="0.00 0.00 593.00 240.00" xmlns="http://www.w3.org/2000/svg" xmlns:xlink="http://www.w3.org/1999/xlink">
<g id="graph0" class="graph" transform="scale(1 1) rotate(0) translate(4 236)">
<title>nlohmann::basic_json::insert</title>
<!-- Node1 -->
<g id="node1" class="node">
<title>Node1</title>
<g id="a_node1"><a xlink:title="inserts element">
<polygon fill="#999999" stroke="#666666" points="110.5,-132 0,-132 0,-100 110.5,-100 110.5,-132"/>
<text xml:space="preserve" text-anchor="start" x="8" y="-118.5" font-family="Helvetica,sans-Serif" font-size="10.00">nlohmann::basic_json</text>
<text xml:space="preserve" text-anchor="middle" x="55.25" y="-106.5" font-family="Helvetica,sans-Serif" font-size="10.00">::insert</text>
</a>
</g>
</g>
<!-- Node2 -->
<g id="node2" class="node">
<title>Node2</title>
<g id="a_node2"><a xlink:href="a01659.html#aeb86e8478e20d95970a8b61ff01dce3b" target="_top" xlink:title="inserts element">
<polygon fill="white" stroke="#666666" points="257,-132 146.5,-132 146.5,-100 257,-100 257,-132"/>
<text xml:space="preserve" text-anchor="start" x="154.5" y="-118.5" font-family="Helvetica,sans-Serif" font-size="10.00">nlohmann::basic_json</text>
<text xml:space="preserve" text-anchor="middle" x="201.75" y="-106.5" font-family="Helvetica,sans-Serif" font-size="10.00">::insert</text>
</a>
</g>
</g>
<!-- Node1&#45;&gt;Node2 -->
<g id="edge1" class="edge">
<title>Node1&#45;&gt;Node2</title>
<path fill="none" stroke="#63b8ff" d="M110.88,-116C118.61,-116 126.63,-116 134.55,-116"/>
<polygon fill="#63b8ff" stroke="#63b8ff" points="134.53,-119.5 144.53,-116 134.53,-112.5 134.53,-119.5"/>
</g>
<!-- Node3 -->
<g id="node3" class="node">
<title>Node3</title>
<g id="a_node3"><a xlink:href="a01567.html#a4e849260a3caa1b288c7e619130c6c09" target="_top" xlink:title=" ">
<polygon fill="white" stroke="#666666" points="414,-232 293,-232 293,-200 414,-200 414,-232"/>
<text xml:space="preserve" text-anchor="start" x="301" y="-218.5" font-family="Helvetica,sans-Serif" font-size="10.00">nlohmann::detail::invalid</text>
<text xml:space="preserve" text-anchor="middle" x="353.5" y="-206.5" font-family="Helvetica,sans-Serif" font-size="10.00">_iterator::create</text>
</a>
</g>
</g>
<!-- Node2&#45;&gt;Node3 -->
<g id="edge2" class="edge">
<title>Node2&#45;&gt;Node3</title>
<path fill="none" stroke="#63b8ff" d="M219.23,-132.29C236.49,-148.7 264.96,-173.98 293,-191 294.98,-192.2 297.03,-193.38 299.13,-194.51"/>
<polygon fill="#63b8ff" stroke="#63b8ff" points="297.32,-197.52 307.82,-198.9 300.47,-191.27 297.32,-197.52"/>
</g>
<!-- Node5 -->
<g id="node5" class="node">
<title>Node5</title>
<g id="a_node5"><a xlink:href="a01571.html#aecc083aea4b698c33d042670ba50c10f" target="_top" xlink:title=" ">
<polygon fill="white" stroke="#666666" points="409.5,-182 297.5,-182 297.5,-150 409.5,-150 409.5,-182"/>
<text xml:space="preserve" text-anchor="start" x="305.5" y="-168.5" font-family="Helvetica,sans-Serif" font-size="10.00">nlohmann::detail::type</text>
<text xml:space="preserve" text-anchor="middle" x="353.5" y="-156.5" font-family="Helvetica,sans-Serif" font-size="10.00">_error::create</text>
</a>
</g>
</g>
<!-- Node2&#45;&gt;Node5 -->
<g id="edge4" class="edge">
<title>Node2&#45;&gt;Node5</title>
<path fill="none" stroke="#63b8ff" d="M251.78,-132.37C264.77,-136.71 278.95,-141.44 292.45,-145.95"/>
<polygon fill="#63b8ff" stroke="#63b8ff" points="291.07,-149.18 301.66,-149.03 293.29,-142.54 291.07,-149.18"/>
</g>
<!-- Node6 -->
<g id="node6" class="node">
<title>Node6</title>
<g id="a_node6"><a xlink:href="a01659.html#ab5c8034e997c5b852b92bdc6a3f70994" target="_top" xlink:title="Helper for insertion of an iterator.">
<polygon fill="white" stroke="#666666" points="408.75,-132 298.25,-132 298.25,-100 408.75,-100 408.75,-132"/>
<text xml:space="preserve" text-anchor="start" x="306.25" y="-118.5" font-family="Helvetica,sans-Serif" font-size="10.00">nlohmann::basic_json</text>
<text xml:space="preserve" text-anchor="middle" x="353.5" y="-106.5" font-family="Helvetica,sans-Serif" font-size="10.00">::insert_iterator</text>
</a>
</g>
</g>
<!-- Node2&#45;&gt;Node6 -->
<g id="edge6" class="edge">
<title>Node2&#45;&gt;Node6</title>
<path fill="none" stroke="#63b8ff" d="M257.24,-116C266.73,-116 276.7,-116 286.47,-116"/>
<polygon fill="#63b8ff" stroke="#63b8ff" points="286.29,-119.5 296.29,-116 286.29,-112.5 286.29,-119.5"/>
</g>
<!-- Node7 -->
<g id="node7" class="node">
<title>Node7</title>
<g id="a_node7"><a xlink:href="a01659.html#ab5b70d60a636b9c5e10f6c8caac60b9e" target="_top" xlink:title="return whether value is an array">
<polygon fill="white" stroke="#666666" points="408.75,-82 298.25,-82 298.25,-50 408.75,-50 408.75,-82"/>
<text xml:space="preserve" text-anchor="start" x="306.25" y="-68.5" font-family="Helvetica,sans-Serif" font-size="10.00">nlohmann::basic_json</text>
<text xml:space="preserve" text-anchor="middle" x="353.5" y="-56.5" font-family="Helvetica,sans-Serif" font-size="10.00">::is_array</text>
</a>
</g>
</g>
<!-- Node2&#45;&gt;Node7 -->
<g id="edge7" class="edge">
<title>Node2&#45;&gt;Node7</title>
<path fill="none" stroke="#63b8ff" d="M251.78,-99.63C264.77,-95.29 278.95,-90.56 292.45,-86.05"/>
<polygon fill="#63b8ff" stroke="#63b8ff" points="293.29,-89.46 301.66,-82.97 291.07,-82.82 293.29,-89.46"/>
</g>
<!-- Node8 -->
<g id="node8" class="node">
<title>Node8</title>
<g id="a_node8"><a xlink:href="a01659.html#ab8811fc4eab6091b32b34b3ac3e90474" target="_top" xlink:title="return the type as string">
<polygon fill="white" stroke="#666666" points="408.75,-32 298.25,-32 298.25,0 408.75,0 408.75,-32"/>
<text xml:space="preserve" text-anchor="start" x="306.25" y="-18.5" font-family="Helvetica,sans-Serif" font-size="10.00">nlohmann::basic_json</text>
<text xml:space="preserve" text-anchor="middle" x="353.5" y="-6.5" font-family="Helvetica,sans-Serif" font-size="10.00">::type_name</text>
</a>
</g>
</g>
<!-- Node2&#45;&gt;Node8 -->
<g id="edge8" class="edge">
<title>Node2&#45;&gt;Node8</title>
<path fill="none" stroke="#63b8ff" d="M219.23,-99.71C236.49,-83.3 264.96,-58.02 293,-41 294.98,-39.8 297.03,-38.62 299.13,-37.49"/>
<polygon fill="#63b8ff" stroke="#63b8ff" points="300.47,-40.73 307.82,-33.1 297.32,-34.48 300.47,-40.73"/>
</g>
<!-- Node4 -->
<g id="node4" class="node">
<title>Node4</title>
<g id="a_node4"><a xlink:href="a01559.html#abf41a7e9178356314082284e6cfea278" target="_top" xlink:title=" ">
<polygon fill="white" stroke="#666666" points="585.25,-207 450,-207 450,-175 585.25,-175 585.25,-207"/>
<text xml:space="preserve" text-anchor="start" x="458" y="-193.5" font-family="Helvetica,sans-Serif" font-size="10.00">nlohmann::detail::exception</text>
<text xml:space="preserve" text-anchor="middle" x="517.62" y="-181.5" font-family="Helvetica,sans-Serif" font-size="10.00">::name</text>
</a>
</g>
</g>
<!-- Node3&#45;&gt;Node4 -->
<g id="edge3" class="edge">
<title>Node3&#45;&gt;Node4</title>
<path fill="none" stroke="#63b8ff" d="M414.41,-206.76C422.19,-205.56 430.26,-204.32 438.29,-203.08"/>
<polygon fill="#63b8ff" stroke="#63b8ff" points="438.74,-206.55 448.09,-201.57 437.68,-199.63 438.74,-206.55"/>
</g>
<!-- Node5&#45;&gt;Node4 -->
<g id="edge5" class="edge">
<title>Node5&#45;&gt;Node4</title>
<path fill="none" stroke="#63b8ff" d="M409.84,-174.53C419.07,-175.96 428.8,-177.46 438.47,-178.95"/>
<polygon fill="#63b8ff" stroke="#63b8ff" points="437.85,-182.39 448.27,-180.46 438.92,-175.48 437.85,-182.39"/>
</g>
</g>
</svg>
