<?xml version="1.0" encoding="UTF-8" standalone="no"?>
<!DOCTYPE svg PUBLIC "-//W3C//DTD SVG 1.1//EN"
 "http://www.w3.org/Graphics/SVG/1.1/DTD/svg11.dtd">
<!-- Generated by graphviz version 13.1.2 (20250808.2320)
 -->
<!-- Title: nlohmann::basic_json::assert_invariant Pages: 1 -->
<svg width="412pt" height="508pt"
 viewBox="0.00 0.00 412.00 508.00" xmlns="http://www.w3.org/2000/svg" xmlns:xlink="http://www.w3.org/1999/xlink">
<g id="graph0" class="graph" transform="scale(1 1) rotate(0) translate(4 504)">
<title>nlohmann::basic_json::assert_invariant</title>
<!-- Node1 -->
<g id="node1" class="node">
<title>Node1</title>
<g id="a_node1"><a xlink:title="checks the class invariants">
<polygon fill="#999999" stroke="#666666" points="403.5,-275 293,-275 293,-243 403.5,-243 403.5,-275"/>
<text xml:space="preserve" text-anchor="start" x="301" y="-261.5" font-family="Helvetica,sans-Serif" font-size="10.00">nlohmann::basic_json</text>
<text xml:space="preserve" text-anchor="middle" x="348.25" y="-249.5" font-family="Helvetica,sans-Serif" font-size="10.00">::assert_invariant</text>
</a>
</g>
</g>
<!-- Node2 -->
<g id="node2" class="node">
<title>Node2</title>
<g id="a_node2"><a xlink:href="a01659.html#a19734fbc9c97d536832892ddacd6b62a" target="_top" xlink:title="create an empty value with a given type">
<polygon fill="white" stroke="#666666" points="257,-500 146.5,-500 146.5,-468 257,-468 257,-500"/>
<text xml:space="preserve" text-anchor="start" x="154.5" y="-486.5" font-family="Helvetica,sans-Serif" font-size="10.00">nlohmann::basic_json</text>
<text xml:space="preserve" text-anchor="middle" x="201.75" y="-474.5" font-family="Helvetica,sans-Serif" font-size="10.00">::basic_json</text>
</a>
</g>
</g>
<!-- Node1&#45;&gt;Node2 -->
<g id="edge1" class="edge">
<title>Node1&#45;&gt;Node2</title>
<path fill="none" stroke="#63b8ff" d="M341.38,-286.53C331.09,-328.68 306.06,-409.54 257,-459 253.79,-462.24 250.07,-465.1 246.13,-467.63"/>
<polygon fill="#63b8ff" stroke="#63b8ff" points="344.75,-287.49 343.61,-276.95 337.93,-285.9 344.75,-287.49"/>
</g>
<!-- Node3 -->
<g id="node3" class="node">
<title>Node3</title>
<g id="a_node3"><a xlink:href="a01659.html#a60b643c02a19fa52f99db8215ff58e0f" target="_top" xlink:title="destructor">
<polygon fill="white" stroke="#666666" points="257,-450 146.5,-450 146.5,-418 257,-418 257,-450"/>
<text xml:space="preserve" text-anchor="start" x="154.5" y="-436.5" font-family="Helvetica,sans-Serif" font-size="10.00">nlohmann::basic_json</text>
<text xml:space="preserve" text-anchor="middle" x="201.75" y="-424.5" font-family="Helvetica,sans-Serif" font-size="10.00">::~basic_json</text>
</a>
</g>
</g>
<!-- Node1&#45;&gt;Node3 -->
<g id="edge2" class="edge">
<title>Node1&#45;&gt;Node3</title>
<path fill="none" stroke="#63b8ff" d="M336.99,-285.73C323.21,-318.56 295.88,-374.17 257,-409 253.45,-412.18 249.42,-415.03 245.2,-417.56"/>
<polygon fill="#63b8ff" stroke="#63b8ff" points="340.2,-287.12 340.73,-276.54 333.72,-284.49 340.2,-287.12"/>
</g>
<!-- Node4 -->
<g id="node4" class="node">
<title>Node4</title>
<g id="a_node4"><a xlink:href="a01659.html#af244c096197a233edba4c83200ae66ac" target="_top" xlink:title="add an object to an object if key does not exist">
<polygon fill="white" stroke="#666666" points="257,-400 146.5,-400 146.5,-368 257,-368 257,-400"/>
<text xml:space="preserve" text-anchor="start" x="154.5" y="-386.5" font-family="Helvetica,sans-Serif" font-size="10.00">nlohmann::basic_json</text>
<text xml:space="preserve" text-anchor="middle" x="201.75" y="-374.5" font-family="Helvetica,sans-Serif" font-size="10.00">::emplace</text>
</a>
</g>
</g>
<!-- Node1&#45;&gt;Node4 -->
<g id="edge3" class="edge">
<title>Node1&#45;&gt;Node4</title>
<path fill="none" stroke="#63b8ff" d="M328.99,-284.48C312.24,-306.45 285.72,-337.88 257,-359 252.74,-362.13 248.02,-365.01 243.2,-367.61"/>
<polygon fill="#63b8ff" stroke="#63b8ff" points="331.68,-286.73 334.86,-276.63 326.07,-282.55 331.68,-286.73"/>
</g>
<!-- Node5 -->
<g id="node5" class="node">
<title>Node5</title>
<g id="a_node5"><a xlink:href="a01659.html#a15c0a5db4fb12d49433801bbe6436bfb" target="_top" xlink:title="add an object to an array">
<polygon fill="white" stroke="#666666" points="257,-350 146.5,-350 146.5,-318 257,-318 257,-350"/>
<text xml:space="preserve" text-anchor="start" x="154.5" y="-336.5" font-family="Helvetica,sans-Serif" font-size="10.00">nlohmann::basic_json</text>
<text xml:space="preserve" text-anchor="middle" x="201.75" y="-324.5" font-family="Helvetica,sans-Serif" font-size="10.00">::emplace_back</text>
</a>
</g>
</g>
<!-- Node1&#45;&gt;Node5 -->
<g id="edge4" class="edge">
<title>Node1&#45;&gt;Node5</title>
<path fill="none" stroke="#63b8ff" d="M309.52,-280.72C293.47,-289.74 274.47,-300.15 257,-309 251.36,-311.86 245.32,-314.77 239.4,-317.56"/>
<polygon fill="#63b8ff" stroke="#63b8ff" points="310.79,-284.02 317.77,-276.05 307.34,-277.93 310.79,-284.02"/>
</g>
<!-- Node6 -->
<g id="node6" class="node">
<title>Node6</title>
<g id="a_node6"><a xlink:href="a01659.html#a494632b69bbe1d0153d3bedad0901b8e" target="_top" xlink:title="remove element given an iterator">
<polygon fill="white" stroke="#666666" points="257,-200 146.5,-200 146.5,-168 257,-168 257,-200"/>
<text xml:space="preserve" text-anchor="start" x="154.5" y="-186.5" font-family="Helvetica,sans-Serif" font-size="10.00">nlohmann::basic_json</text>
<text xml:space="preserve" text-anchor="middle" x="201.75" y="-174.5" font-family="Helvetica,sans-Serif" font-size="10.00">::erase</text>
</a>
</g>
</g>
<!-- Node1&#45;&gt;Node6 -->
<g id="edge5" class="edge">
<title>Node1&#45;&gt;Node6</title>
<path fill="none" stroke="#63b8ff" d="M309.52,-237.28C293.47,-228.26 274.47,-217.85 257,-209 251.36,-206.14 245.32,-203.23 239.4,-200.44"/>
<polygon fill="#63b8ff" stroke="#63b8ff" points="307.34,-240.07 317.77,-241.95 310.79,-233.98 307.34,-240.07"/>
</g>
<!-- Node9 -->
<g id="node9" class="node">
<title>Node9</title>
<g id="a_node9"><a xlink:href="a01659.html#a28f87a769eda285eb4492ac1172d8812" target="_top" xlink:title="copy assignment">
<polygon fill="white" stroke="#666666" points="257,-250 146.5,-250 146.5,-218 257,-218 257,-250"/>
<text xml:space="preserve" text-anchor="start" x="154.5" y="-236.5" font-family="Helvetica,sans-Serif" font-size="10.00">nlohmann::basic_json</text>
<text xml:space="preserve" text-anchor="middle" x="201.75" y="-224.5" font-family="Helvetica,sans-Serif" font-size="10.00">::operator=</text>
</a>
</g>
</g>
<!-- Node1&#45;&gt;Node9 -->
<g id="edge9" class="edge">
<title>Node1&#45;&gt;Node9</title>
<path fill="none" stroke="#63b8ff" d="M281.41,-247.61C273.4,-246.22 265.28,-244.82 257.46,-243.46"/>
<polygon fill="#63b8ff" stroke="#63b8ff" points="280.68,-251.03 291.13,-249.29 281.87,-244.14 280.68,-251.03"/>
</g>
<!-- Node10 -->
<g id="node10" class="node">
<title>Node10</title>
<g id="a_node10"><a xlink:href="a01659.html#a9ea67fc1ef0ccc42e1d5388fe0416ae5" target="_top" xlink:title="access specified array element">
<polygon fill="white" stroke="#666666" points="257,-300 146.5,-300 146.5,-268 257,-268 257,-300"/>
<text xml:space="preserve" text-anchor="start" x="154.5" y="-286.5" font-family="Helvetica,sans-Serif" font-size="10.00">nlohmann::basic_json</text>
<text xml:space="preserve" text-anchor="middle" x="201.75" y="-274.5" font-family="Helvetica,sans-Serif" font-size="10.00">::operator[]</text>
</a>
</g>
</g>
<!-- Node1&#45;&gt;Node10 -->
<g id="edge10" class="edge">
<title>Node1&#45;&gt;Node10</title>
<path fill="none" stroke="#63b8ff" d="M281.41,-270.39C273.4,-271.78 265.28,-273.18 257.46,-274.54"/>
<polygon fill="#63b8ff" stroke="#63b8ff" points="281.87,-273.86 291.13,-268.71 280.68,-266.97 281.87,-273.86"/>
</g>
<!-- Node11 -->
<g id="node11" class="node">
<title>Node11</title>
<g id="a_node11"><a xlink:href="a01659.html#ab9e0253c92736db021840105d374c4c4" target="_top" xlink:title="add an object to an array">
<polygon fill="white" stroke="#666666" points="257,-150 146.5,-150 146.5,-118 257,-118 257,-150"/>
<text xml:space="preserve" text-anchor="start" x="154.5" y="-136.5" font-family="Helvetica,sans-Serif" font-size="10.00">nlohmann::basic_json</text>
<text xml:space="preserve" text-anchor="middle" x="201.75" y="-124.5" font-family="Helvetica,sans-Serif" font-size="10.00">::push_back</text>
</a>
</g>
</g>
<!-- Node1&#45;&gt;Node11 -->
<g id="edge12" class="edge">
<title>Node1&#45;&gt;Node11</title>
<path fill="none" stroke="#63b8ff" d="M328.99,-233.52C312.24,-211.55 285.72,-180.12 257,-159 252.74,-155.87 248.02,-152.99 243.2,-150.39"/>
<polygon fill="#63b8ff" stroke="#63b8ff" points="326.07,-235.45 334.86,-241.37 331.68,-231.27 326.07,-235.45"/>
</g>
<!-- Node15 -->
<g id="node15" class="node">
<title>Node15</title>
<g id="a_node15"><a xlink:href="a01659.html#a94295a06e0e7b3867fe83afbee4cb202" target="_top" xlink:title="exchanges the values">
<polygon fill="white" stroke="#666666" points="257,-100 146.5,-100 146.5,-68 257,-68 257,-100"/>
<text xml:space="preserve" text-anchor="start" x="154.5" y="-86.5" font-family="Helvetica,sans-Serif" font-size="10.00">nlohmann::basic_json</text>
<text xml:space="preserve" text-anchor="middle" x="201.75" y="-74.5" font-family="Helvetica,sans-Serif" font-size="10.00">::swap</text>
</a>
</g>
</g>
<!-- Node1&#45;&gt;Node15 -->
<g id="edge18" class="edge">
<title>Node1&#45;&gt;Node15</title>
<path fill="none" stroke="#63b8ff" d="M336.99,-232.27C323.21,-199.44 295.88,-143.83 257,-109 253.45,-105.82 249.42,-102.97 245.2,-100.44"/>
<polygon fill="#63b8ff" stroke="#63b8ff" points="333.72,-233.51 340.73,-241.46 340.2,-230.88 333.72,-233.51"/>
</g>
<!-- Node16 -->
<g id="node16" class="node">
<title>Node16</title>
<g id="a_node16"><a xlink:href="a01659.html#a377819905d567f6f523dcbc592cb6356" target="_top" xlink:title="updates a JSON object from another object, overwriting existing keys">
<polygon fill="white" stroke="#666666" points="257,-50 146.5,-50 146.5,-18 257,-18 257,-50"/>
<text xml:space="preserve" text-anchor="start" x="154.5" y="-36.5" font-family="Helvetica,sans-Serif" font-size="10.00">nlohmann::basic_json</text>
<text xml:space="preserve" text-anchor="middle" x="201.75" y="-24.5" font-family="Helvetica,sans-Serif" font-size="10.00">::update</text>
</a>
</g>
</g>
<!-- Node1&#45;&gt;Node16 -->
<g id="edge19" class="edge">
<title>Node1&#45;&gt;Node16</title>
<path fill="none" stroke="#63b8ff" d="M341.38,-231.47C331.09,-189.32 306.06,-108.46 257,-59 253.79,-55.76 250.07,-52.9 246.13,-50.37"/>
<polygon fill="#63b8ff" stroke="#63b8ff" points="337.93,-232.1 343.61,-241.05 344.75,-230.51 337.93,-232.1"/>
</g>
<!-- Node7 -->
<g id="node7" class="node">
<title>Node7</title>
<g id="a_node7"><a xlink:href="a01659.html#a844a77cb154752d12118f10af26d54cb" target="_top" xlink:title="applies a JSON Merge Patch">
<polygon fill="white" stroke="#666666" points="110.5,-275 0,-275 0,-243 110.5,-243 110.5,-275"/>
<text xml:space="preserve" text-anchor="start" x="8" y="-261.5" font-family="Helvetica,sans-Serif" font-size="10.00">nlohmann::basic_json</text>
<text xml:space="preserve" text-anchor="middle" x="55.25" y="-249.5" font-family="Helvetica,sans-Serif" font-size="10.00">::merge_patch</text>
</a>
</g>
</g>
<!-- Node6&#45;&gt;Node7 -->
<g id="edge6" class="edge">
<title>Node6&#45;&gt;Node7</title>
<path fill="none" stroke="#63b8ff" d="M153.81,-205.37C151.33,-206.58 148.88,-207.79 146.5,-209 125.41,-219.68 102.07,-232.64 84.41,-242.69"/>
<polygon fill="#63b8ff" stroke="#63b8ff" points="155.22,-208.57 162.73,-201.1 152.2,-202.26 155.22,-208.57"/>
</g>
<!-- Node8 -->
<g id="node8" class="node">
<title>Node8</title>
<g id="a_node8"><a xlink:href="a01659.html#adcc786998f220a5b3083ee8a37c4553e" target="_top" xlink:title="applies a JSON patch">
<polygon fill="white" stroke="#666666" points="110.5,-200 0,-200 0,-168 110.5,-168 110.5,-200"/>
<text xml:space="preserve" text-anchor="start" x="8" y="-186.5" font-family="Helvetica,sans-Serif" font-size="10.00">nlohmann::basic_json</text>
<text xml:space="preserve" text-anchor="middle" x="55.25" y="-174.5" font-family="Helvetica,sans-Serif" font-size="10.00">::patch</text>
</a>
</g>
</g>
<!-- Node6&#45;&gt;Node8 -->
<g id="edge8" class="edge">
<title>Node6&#45;&gt;Node8</title>
<path fill="none" stroke="#63b8ff" d="M134.63,-184C126.71,-184 118.69,-184 110.96,-184"/>
<polygon fill="#63b8ff" stroke="#63b8ff" points="134.61,-187.5 144.61,-184 134.61,-180.5 134.61,-187.5"/>
</g>
<!-- Node7&#45;&gt;Node7 -->
<g id="edge7" class="edge">
<title>Node7&#45;&gt;Node7</title>
<path fill="none" stroke="#63b8ff" d="M79.66,-286.71C75.59,-290.48 67.46,-293 55.25,-293 32.93,-293 24.21,-284.58 29.1,-275.44"/>
<polygon fill="#63b8ff" stroke="#63b8ff" points="83.1,-287.36 81.17,-276.94 76.19,-286.29 83.1,-287.36"/>
</g>
<!-- Node10&#45;&gt;Node7 -->
<g id="edge11" class="edge">
<title>Node10&#45;&gt;Node7</title>
<path fill="none" stroke="#63b8ff" d="M134.91,-272.61C126.9,-271.22 118.78,-269.82 110.96,-268.46"/>
<polygon fill="#63b8ff" stroke="#63b8ff" points="134.18,-276.03 144.63,-274.29 135.37,-269.14 134.18,-276.03"/>
</g>
<!-- Node11&#45;&gt;Node8 -->
<g id="edge16" class="edge">
<title>Node11&#45;&gt;Node8</title>
<path fill="none" stroke="#63b8ff" d="M142.73,-154.08C129.76,-158.56 116.15,-163.27 103.67,-167.59"/>
<polygon fill="#63b8ff" stroke="#63b8ff" points="143.7,-157.44 152,-150.87 141.41,-150.83 143.7,-157.44"/>
</g>
<!-- Node12 -->
<g id="node12" class="node">
<title>Node12</title>
<g id="a_node12"><a xlink:href="a01659.html#a1c1f21327df91a4dd6c5f5a107240385" target="_top" xlink:title="creates a diff as a JSON patch">
<polygon fill="white" stroke="#666666" points="110.5,-32 0,-32 0,0 110.5,0 110.5,-32"/>
<text xml:space="preserve" text-anchor="start" x="8" y="-18.5" font-family="Helvetica,sans-Serif" font-size="10.00">nlohmann::basic_json</text>
<text xml:space="preserve" text-anchor="middle" x="55.25" y="-6.5" font-family="Helvetica,sans-Serif" font-size="10.00">::diff</text>
</a>
</g>
</g>
<!-- Node11&#45;&gt;Node12 -->
<g id="edge13" class="edge">
<title>Node11&#45;&gt;Node12</title>
<path fill="none" stroke="#63b8ff" d="M149.46,-111.32C148.45,-110.56 147.46,-109.79 146.5,-109 125.37,-91.58 129.41,-78.8 110.5,-59 101.29,-49.35 89.86,-39.99 79.88,-32.47"/>
<polygon fill="#63b8ff" stroke="#63b8ff" points="147.55,-114.25 157.84,-116.75 151.36,-108.37 147.55,-114.25"/>
</g>
<!-- Node13 -->
<g id="node13" class="node">
<title>Node13</title>
<g id="a_node13"><a xlink:href="a01659.html#a40226d9c84fcb9cb948ae0c27b842c57" target="_top" xlink:title="add an object to an array">
<polygon fill="white" stroke="#666666" points="110.5,-150 0,-150 0,-118 110.5,-118 110.5,-150"/>
<text xml:space="preserve" text-anchor="start" x="8" y="-136.5" font-family="Helvetica,sans-Serif" font-size="10.00">nlohmann::basic_json</text>
<text xml:space="preserve" text-anchor="middle" x="55.25" y="-124.5" font-family="Helvetica,sans-Serif" font-size="10.00">::operator+=</text>
</a>
</g>
</g>
<!-- Node11&#45;&gt;Node13 -->
<g id="edge15" class="edge">
<title>Node11&#45;&gt;Node13</title>
<path fill="none" stroke="#63b8ff" d="M134.63,-134C126.71,-134 118.69,-134 110.96,-134"/>
<polygon fill="#63b8ff" stroke="#63b8ff" points="134.61,-137.5 144.61,-134 134.61,-130.5 134.61,-137.5"/>
</g>
<!-- Node14 -->
<g id="node14" class="node">
<title>Node14</title>
<g id="a_node14"><a xlink:href="a01659.html#a4567cf75f19b1efca090f75d7a8a350a" target="_top" xlink:title="add an object to an object">
<polygon fill="white" stroke="#666666" points="110.5,-100 0,-100 0,-68 110.5,-68 110.5,-100"/>
<text xml:space="preserve" text-anchor="start" x="8" y="-86.5" font-family="Helvetica,sans-Serif" font-size="10.00">nlohmann::basic_json</text>
<text xml:space="preserve" text-anchor="middle" x="55.25" y="-74.5" font-family="Helvetica,sans-Serif" font-size="10.00">::push_back</text>
</a>
</g>
</g>
<!-- Node11&#45;&gt;Node14 -->
<g id="edge17" class="edge">
<title>Node11&#45;&gt;Node14</title>
<path fill="none" stroke="#63b8ff" d="M142.73,-113.92C129.76,-109.44 116.15,-104.73 103.67,-100.41"/>
<polygon fill="#63b8ff" stroke="#63b8ff" points="141.41,-117.17 152,-117.13 143.7,-110.56 141.41,-117.17"/>
</g>
<!-- Node12&#45;&gt;Node12 -->
<g id="edge14" class="edge">
<title>Node12&#45;&gt;Node12</title>
<path fill="none" stroke="#63b8ff" d="M79.66,-43.71C75.59,-47.48 67.46,-50 55.25,-50 32.93,-50 24.21,-41.58 29.1,-32.44"/>
<polygon fill="#63b8ff" stroke="#63b8ff" points="83.1,-44.36 81.17,-33.94 76.19,-43.29 83.1,-44.36"/>
</g>
</g>
</svg>
