<?xml version="1.0" encoding="UTF-8" standalone="no"?>
<!DOCTYPE svg PUBLIC "-//W3C//DTD SVG 1.1//EN"
 "http://www.w3.org/Graphics/SVG/1.1/DTD/svg11.dtd">
<!-- Generated by graphviz version 13.1.2 (20250808.2320)
 -->
<!-- Title: nlohmann::basic_json::is_array Pages: 1 -->
<svg width="426pt" height="534pt"
 viewBox="0.00 0.00 426.00 534.00" xmlns="http://www.w3.org/2000/svg" xmlns:xlink="http://www.w3.org/1999/xlink">
<g id="graph0" class="graph" transform="scale(1 1) rotate(0) translate(4 530)">
<title>nlohmann::basic_json::is_array</title>
<!-- Node1 -->
<g id="node1" class="node">
<title>Node1</title>
<g id="a_node1"><a xlink:title="return whether value is an array">
<polygon fill="#999999" stroke="#666666" points="417.75,-282 307.25,-282 307.25,-250 417.75,-250 417.75,-282"/>
<text xml:space="preserve" text-anchor="start" x="315.25" y="-268.5" font-family="Helvetica,sans-Serif" font-size="10.00">nlohmann::basic_json</text>
<text xml:space="preserve" text-anchor="middle" x="362.5" y="-256.5" font-family="Helvetica,sans-Serif" font-size="10.00">::is_array</text>
</a>
</g>
</g>
<!-- Node2 -->
<g id="node2" class="node">
<title>Node2</title>
<g id="a_node2"><a xlink:href="a01659.html#a52b18a5b7e68652c65b070900c438c6e" target="_top" xlink:title="access specified array element with bounds checking">
<polygon fill="white" stroke="#666666" points="271.25,-526 146.5,-526 146.5,-506 271.25,-506 271.25,-526"/>
<text xml:space="preserve" text-anchor="middle" x="208.88" y="-512.5" font-family="Helvetica,sans-Serif" font-size="10.00">nlohmann::basic_json::at</text>
</a>
</g>
</g>
<!-- Node1&#45;&gt;Node2 -->
<g id="edge1" class="edge">
<title>Node1&#45;&gt;Node2</title>
<path fill="none" stroke="#63b8ff" d="M357.68,-293.73C349.8,-340.67 327.53,-436.12 271.25,-492 265.4,-497.8 257.99,-502.24 250.36,-505.62"/>
<polygon fill="#63b8ff" stroke="#63b8ff" points="361.13,-294.28 359.22,-283.86 354.22,-293.2 361.13,-294.28"/>
</g>
<!-- Node3 -->
<g id="node3" class="node">
<title>Node3</title>
<g id="a_node3"><a xlink:href="a01659.html#adcc786998f220a5b3083ee8a37c4553e" target="_top" xlink:title="applies a JSON patch">
<polygon fill="white" stroke="#666666" points="110.5,-525 0,-525 0,-493 110.5,-493 110.5,-525"/>
<text xml:space="preserve" text-anchor="start" x="8" y="-511.5" font-family="Helvetica,sans-Serif" font-size="10.00">nlohmann::basic_json</text>
<text xml:space="preserve" text-anchor="middle" x="55.25" y="-499.5" font-family="Helvetica,sans-Serif" font-size="10.00">::patch</text>
</a>
</g>
</g>
<!-- Node1&#45;&gt;Node3 -->
<g id="edge18" class="edge">
<title>Node1&#45;&gt;Node3</title>
<path fill="none" stroke="#63b8ff" d="M356.55,-293.5C347.45,-335.78 323.94,-416.31 271.25,-459 246.95,-478.69 166.21,-493.6 110.89,-501.82"/>
<polygon fill="#63b8ff" stroke="#63b8ff" points="359.94,-294.4 358.49,-283.9 353.08,-293.01 359.94,-294.4"/>
</g>
<!-- Node4 -->
<g id="node4" class="node">
<title>Node4</title>
<g id="a_node4"><a xlink:href="a02059.html#a34d4ecf420c2752268b9b24829cdd393" target="_top" xlink:title=" ">
<polygon fill="white" stroke="#666666" points="264.12,-332 153.62,-332 153.62,-300 264.12,-300 264.12,-332"/>
<text xml:space="preserve" text-anchor="start" x="161.62" y="-318.5" font-family="Helvetica,sans-Serif" font-size="10.00">nlohmann::basic_json</text>
<text xml:space="preserve" text-anchor="middle" x="208.88" y="-306.5" font-family="Helvetica,sans-Serif" font-size="10.00">::json_value::destroy</text>
</a>
</g>
</g>
<!-- Node1&#45;&gt;Node4 -->
<g id="edge3" class="edge">
<title>Node1&#45;&gt;Node4</title>
<path fill="none" stroke="#63b8ff" d="M301.08,-285.92C287.42,-290.43 273.07,-295.16 259.89,-299.51"/>
<polygon fill="#63b8ff" stroke="#63b8ff" points="302.01,-289.3 310.41,-282.85 299.82,-282.65 302.01,-289.3"/>
</g>
<!-- Node6 -->
<g id="node6" class="node">
<title>Node6</title>
<g id="a_node6"><a xlink:href="a01659.html#a15c0a5db4fb12d49433801bbe6436bfb" target="_top" xlink:title="add an object to an array">
<polygon fill="white" stroke="#666666" points="264.12,-282 153.62,-282 153.62,-250 264.12,-250 264.12,-282"/>
<text xml:space="preserve" text-anchor="start" x="161.62" y="-268.5" font-family="Helvetica,sans-Serif" font-size="10.00">nlohmann::basic_json</text>
<text xml:space="preserve" text-anchor="middle" x="208.88" y="-256.5" font-family="Helvetica,sans-Serif" font-size="10.00">::emplace_back</text>
</a>
</g>
</g>
<!-- Node1&#45;&gt;Node6 -->
<g id="edge6" class="edge">
<title>Node1&#45;&gt;Node6</title>
<path fill="none" stroke="#63b8ff" d="M295.3,-266C285.03,-266 274.52,-266 264.53,-266"/>
<polygon fill="#63b8ff" stroke="#63b8ff" points="295.25,-269.5 305.25,-266 295.25,-262.5 295.25,-269.5"/>
</g>
<!-- Node7 -->
<g id="node7" class="node">
<title>Node7</title>
<g id="a_node7"><a xlink:href="a01659.html#a221b943d3228488c14225e55f726cc26" target="_top" xlink:title="remove element from a JSON array given an index">
<polygon fill="white" stroke="#666666" points="264.12,-232 153.62,-232 153.62,-200 264.12,-200 264.12,-232"/>
<text xml:space="preserve" text-anchor="start" x="161.62" y="-218.5" font-family="Helvetica,sans-Serif" font-size="10.00">nlohmann::basic_json</text>
<text xml:space="preserve" text-anchor="middle" x="208.88" y="-206.5" font-family="Helvetica,sans-Serif" font-size="10.00">::erase</text>
</a>
</g>
</g>
<!-- Node1&#45;&gt;Node7 -->
<g id="edge7" class="edge">
<title>Node1&#45;&gt;Node7</title>
<path fill="none" stroke="#63b8ff" d="M301.08,-246.08C287.42,-241.57 273.07,-236.84 259.89,-232.49"/>
<polygon fill="#63b8ff" stroke="#63b8ff" points="299.82,-249.35 310.41,-249.15 302.01,-242.7 299.82,-249.35"/>
</g>
<!-- Node8 -->
<g id="node8" class="node">
<title>Node8</title>
<g id="a_node8"><a xlink:href="a01659.html#a0192ec4b7c513a857215e5fa4323690a" target="_top" xlink:title="get a pointer to the value (array)">
<polygon fill="white" stroke="#666666" points="264.12,-182 153.62,-182 153.62,-150 264.12,-150 264.12,-182"/>
<text xml:space="preserve" text-anchor="start" x="161.62" y="-168.5" font-family="Helvetica,sans-Serif" font-size="10.00">nlohmann::basic_json</text>
<text xml:space="preserve" text-anchor="middle" x="208.88" y="-156.5" font-family="Helvetica,sans-Serif" font-size="10.00">::get_impl_ptr</text>
</a>
</g>
</g>
<!-- Node1&#45;&gt;Node8 -->
<g id="edge8" class="edge">
<title>Node1&#45;&gt;Node8</title>
<path fill="none" stroke="#63b8ff" d="M336.68,-241.79C319.39,-225.85 295.21,-205.36 271.25,-191 266.12,-187.92 260.54,-185.07 254.91,-182.46"/>
<polygon fill="#63b8ff" stroke="#63b8ff" points="334.27,-244.32 343.96,-248.61 339.06,-239.22 334.27,-244.32"/>
</g>
<!-- Node9 -->
<g id="node9" class="node">
<title>Node9</title>
<g id="a_node9"><a xlink:href="a01659.html#aeb86e8478e20d95970a8b61ff01dce3b" target="_top" xlink:title="inserts element">
<polygon fill="white" stroke="#666666" points="264.12,-450 153.62,-450 153.62,-418 264.12,-418 264.12,-450"/>
<text xml:space="preserve" text-anchor="start" x="161.62" y="-436.5" font-family="Helvetica,sans-Serif" font-size="10.00">nlohmann::basic_json</text>
<text xml:space="preserve" text-anchor="middle" x="208.88" y="-424.5" font-family="Helvetica,sans-Serif" font-size="10.00">::insert</text>
</a>
</g>
</g>
<!-- Node1&#45;&gt;Node9 -->
<g id="edge9" class="edge">
<title>Node1&#45;&gt;Node9</title>
<path fill="none" stroke="#63b8ff" d="M350.73,-292.74C336.74,-324.43 309.5,-376.96 271.25,-409 267.37,-412.25 263.01,-415.12 258.45,-417.65"/>
<polygon fill="#63b8ff" stroke="#63b8ff" points="353.81,-294.43 354.53,-283.86 347.38,-291.68 353.81,-294.43"/>
</g>
<!-- Node12 -->
<g id="node12" class="node">
<title>Node12</title>
<g id="a_node12"><a xlink:href="a01659.html#a4e05a7d5deec758f1d830741b68b4249" target="_top" xlink:title="return whether type is structured">
<polygon fill="white" stroke="#666666" points="264.12,-132 153.62,-132 153.62,-100 264.12,-100 264.12,-132"/>
<text xml:space="preserve" text-anchor="start" x="161.62" y="-118.5" font-family="Helvetica,sans-Serif" font-size="10.00">nlohmann::basic_json</text>
<text xml:space="preserve" text-anchor="middle" x="208.88" y="-106.5" font-family="Helvetica,sans-Serif" font-size="10.00">::is_structured</text>
</a>
</g>
</g>
<!-- Node1&#45;&gt;Node12 -->
<g id="edge14" class="edge">
<title>Node1&#45;&gt;Node12</title>
<path fill="none" stroke="#63b8ff" d="M348.29,-239.7C333.11,-211.82 305.77,-168.13 271.25,-141 267.18,-137.8 262.64,-134.95 257.93,-132.43"/>
<polygon fill="#63b8ff" stroke="#63b8ff" points="345.03,-241.01 352.8,-248.21 351.21,-237.74 345.03,-241.01"/>
</g>
<!-- Node13 -->
<g id="node13" class="node">
<title>Node13</title>
<g id="a_node13"><a xlink:href="a01659.html#a9ea67fc1ef0ccc42e1d5388fe0416ae5" target="_top" xlink:title="access specified array element">
<polygon fill="white" stroke="#666666" points="264.12,-82 153.62,-82 153.62,-50 264.12,-50 264.12,-82"/>
<text xml:space="preserve" text-anchor="start" x="161.62" y="-68.5" font-family="Helvetica,sans-Serif" font-size="10.00">nlohmann::basic_json</text>
<text xml:space="preserve" text-anchor="middle" x="208.88" y="-56.5" font-family="Helvetica,sans-Serif" font-size="10.00">::operator[]</text>
</a>
</g>
</g>
<!-- Node1&#45;&gt;Node13 -->
<g id="edge15" class="edge">
<title>Node1&#45;&gt;Node13</title>
<path fill="none" stroke="#63b8ff" d="M354.08,-238.94C342.4,-201.04 316.29,-132.18 271.25,-91 267.68,-87.74 263.64,-84.88 259.36,-82.37"/>
<polygon fill="#63b8ff" stroke="#63b8ff" points="350.63,-239.59 356.82,-248.19 357.34,-237.61 350.63,-239.59"/>
</g>
<!-- Node15 -->
<g id="node15" class="node">
<title>Node15</title>
<g id="a_node15"><a xlink:href="a01659.html#ab9e0253c92736db021840105d374c4c4" target="_top" xlink:title="add an object to an array">
<polygon fill="white" stroke="#666666" points="264.12,-400 153.62,-400 153.62,-368 264.12,-368 264.12,-400"/>
<text xml:space="preserve" text-anchor="start" x="161.62" y="-386.5" font-family="Helvetica,sans-Serif" font-size="10.00">nlohmann::basic_json</text>
<text xml:space="preserve" text-anchor="middle" x="208.88" y="-374.5" font-family="Helvetica,sans-Serif" font-size="10.00">::push_back</text>
</a>
</g>
</g>
<!-- Node1&#45;&gt;Node15 -->
<g id="edge19" class="edge">
<title>Node1&#45;&gt;Node15</title>
<path fill="none" stroke="#63b8ff" d="M342,-291.27C325.11,-311.76 299.07,-340.23 271.25,-359 266.58,-362.15 261.44,-365.02 256.2,-367.58"/>
<polygon fill="#63b8ff" stroke="#63b8ff" points="344.58,-293.64 348.14,-283.65 339.13,-289.24 344.58,-293.64"/>
</g>
<!-- Node18 -->
<g id="node18" class="node">
<title>Node18</title>
<g id="a_node18"><a xlink:href="a01659.html#a76126242de262f6d38cadda19e0d13e1" target="_top" xlink:title="exchanges the values">
<polygon fill="white" stroke="#666666" points="264.12,-32 153.62,-32 153.62,0 264.12,0 264.12,-32"/>
<text xml:space="preserve" text-anchor="start" x="161.62" y="-18.5" font-family="Helvetica,sans-Serif" font-size="10.00">nlohmann::basic_json</text>
<text xml:space="preserve" text-anchor="middle" x="208.88" y="-6.5" font-family="Helvetica,sans-Serif" font-size="10.00">::swap</text>
</a>
</g>
</g>
<!-- Node1&#45;&gt;Node18 -->
<g id="edge24" class="edge">
<title>Node1&#45;&gt;Node18</title>
<path fill="none" stroke="#63b8ff" d="M357.56,-238.48C349.5,-191.87 326.97,-97.02 271.25,-41 268,-37.74 264.27,-34.88 260.29,-32.39"/>
<polygon fill="#63b8ff" stroke="#63b8ff" points="354.09,-238.95 359.14,-248.26 361,-237.83 354.09,-238.95"/>
</g>
<!-- Node2&#45;&gt;Node3 -->
<g id="edge2" class="edge">
<title>Node2&#45;&gt;Node3</title>
<path fill="none" stroke="#63b8ff" d="M134.75,-512.62C126.6,-512.25 118.42,-511.87 110.56,-511.51"/>
<polygon fill="#63b8ff" stroke="#63b8ff" points="134.54,-516.12 144.69,-513.08 134.86,-509.13 134.54,-516.12"/>
</g>
<!-- Node4&#45;&gt;Node4 -->
<g id="edge5" class="edge">
<title>Node4&#45;&gt;Node4</title>
<path fill="none" stroke="#63b8ff" d="M234.48,-343.71C230.21,-347.48 221.67,-350 208.88,-350 185.47,-350 176.33,-341.58 181.45,-332.44"/>
<polygon fill="#63b8ff" stroke="#63b8ff" points="237.91,-344.37 236.06,-333.94 231,-343.25 237.91,-344.37"/>
</g>
<!-- Node5 -->
<g id="node5" class="node">
<title>Node5</title>
<g id="a_node5"><a xlink:href="a01659.html#a60b643c02a19fa52f99db8215ff58e0f" target="_top" xlink:title="destructor">
<polygon fill="white" stroke="#666666" points="110.5,-257 0,-257 0,-225 110.5,-225 110.5,-257"/>
<text xml:space="preserve" text-anchor="start" x="8" y="-243.5" font-family="Helvetica,sans-Serif" font-size="10.00">nlohmann::basic_json</text>
<text xml:space="preserve" text-anchor="middle" x="55.25" y="-231.5" font-family="Helvetica,sans-Serif" font-size="10.00">::~basic_json</text>
</a>
</g>
</g>
<!-- Node4&#45;&gt;Node5 -->
<g id="edge4" class="edge">
<title>Node4&#45;&gt;Node5</title>
<path fill="none" stroke="#63b8ff" d="M153.74,-294.74C151.27,-293.52 148.85,-292.27 146.5,-291 129.38,-281.71 127.41,-275.67 110.5,-266 105.28,-263.01 99.64,-260.1 94.04,-257.37"/>
<polygon fill="#63b8ff" stroke="#63b8ff" points="152.15,-297.86 162.7,-298.91 155.11,-291.51 152.15,-297.86"/>
</g>
<!-- Node9&#45;&gt;Node3 -->
<g id="edge13" class="edge">
<title>Node9&#45;&gt;Node3</title>
<path fill="none" stroke="#63b8ff" d="M163.44,-455.38C157.72,-458.23 151.95,-461.15 146.5,-464 130.27,-472.47 126.82,-475.72 110.5,-484 104.86,-486.86 98.83,-489.78 92.91,-492.56"/>
<polygon fill="#63b8ff" stroke="#63b8ff" points="164.85,-458.58 172.27,-451.02 161.76,-452.31 164.85,-458.58"/>
</g>
<!-- Node10 -->
<g id="node10" class="node">
<title>Node10</title>
<g id="a_node10"><a xlink:href="a01659.html#a1c1f21327df91a4dd6c5f5a107240385" target="_top" xlink:title="creates a diff as a JSON patch">
<polygon fill="white" stroke="#666666" points="110.5,-407 0,-407 0,-375 110.5,-375 110.5,-407"/>
<text xml:space="preserve" text-anchor="start" x="8" y="-393.5" font-family="Helvetica,sans-Serif" font-size="10.00">nlohmann::basic_json</text>
<text xml:space="preserve" text-anchor="middle" x="55.25" y="-381.5" font-family="Helvetica,sans-Serif" font-size="10.00">::diff</text>
</a>
</g>
</g>
<!-- Node9&#45;&gt;Node10 -->
<g id="edge10" class="edge">
<title>Node9&#45;&gt;Node10</title>
<path fill="none" stroke="#63b8ff" d="M142.34,-415.41C131.86,-412.44 121.11,-409.39 110.91,-406.5"/>
<polygon fill="#63b8ff" stroke="#63b8ff" points="141.1,-418.7 151.68,-418.06 143.01,-411.97 141.1,-418.7"/>
</g>
<!-- Node11 -->
<g id="node11" class="node">
<title>Node11</title>
<g id="a_node11"><a xlink:href="a01659.html#a9c5b9de8a4a759861cb600b38a6c81b1" target="_top" xlink:title="inserts element">
<polygon fill="white" stroke="#666666" points="110.5,-475 0,-475 0,-443 110.5,-443 110.5,-475"/>
<text xml:space="preserve" text-anchor="start" x="8" y="-461.5" font-family="Helvetica,sans-Serif" font-size="10.00">nlohmann::basic_json</text>
<text xml:space="preserve" text-anchor="middle" x="55.25" y="-449.5" font-family="Helvetica,sans-Serif" font-size="10.00">::insert</text>
</a>
</g>
</g>
<!-- Node9&#45;&gt;Node11 -->
<g id="edge12" class="edge">
<title>Node9&#45;&gt;Node11</title>
<path fill="none" stroke="#63b8ff" d="M142.01,-444.86C131.63,-446.57 121,-448.32 110.91,-449.99"/>
<polygon fill="#63b8ff" stroke="#63b8ff" points="142.34,-448.35 151.64,-443.27 141.21,-441.45 142.34,-448.35"/>
</g>
<!-- Node10&#45;&gt;Node10 -->
<g id="edge11" class="edge">
<title>Node10&#45;&gt;Node10</title>
<path fill="none" stroke="#63b8ff" d="M80.85,-418.71C76.58,-422.48 68.05,-425 55.25,-425 31.85,-425 22.7,-416.58 27.82,-407.44"/>
<polygon fill="#63b8ff" stroke="#63b8ff" points="84.29,-419.37 82.43,-408.94 77.38,-418.25 84.29,-419.37"/>
</g>
<!-- Node14 -->
<g id="node14" class="node">
<title>Node14</title>
<g id="a_node14"><a xlink:href="a01659.html#a844a77cb154752d12118f10af26d54cb" target="_top" xlink:title="applies a JSON Merge Patch">
<polygon fill="white" stroke="#666666" points="110.5,-82 0,-82 0,-50 110.5,-50 110.5,-82"/>
<text xml:space="preserve" text-anchor="start" x="8" y="-68.5" font-family="Helvetica,sans-Serif" font-size="10.00">nlohmann::basic_json</text>
<text xml:space="preserve" text-anchor="middle" x="55.25" y="-56.5" font-family="Helvetica,sans-Serif" font-size="10.00">::merge_patch</text>
</a>
</g>
</g>
<!-- Node13&#45;&gt;Node14 -->
<g id="edge16" class="edge">
<title>Node13&#45;&gt;Node14</title>
<path fill="none" stroke="#63b8ff" d="M141.68,-66C131.4,-66 120.89,-66 110.91,-66"/>
<polygon fill="#63b8ff" stroke="#63b8ff" points="141.62,-69.5 151.62,-66 141.62,-62.5 141.62,-69.5"/>
</g>
<!-- Node14&#45;&gt;Node14 -->
<g id="edge17" class="edge">
<title>Node14&#45;&gt;Node14</title>
<path fill="none" stroke="#63b8ff" d="M80.85,-93.71C76.58,-97.48 68.05,-100 55.25,-100 31.85,-100 22.7,-91.58 27.82,-82.44"/>
<polygon fill="#63b8ff" stroke="#63b8ff" points="84.29,-94.37 82.43,-83.94 77.38,-93.25 84.29,-94.37"/>
</g>
<!-- Node15&#45;&gt;Node3 -->
<g id="edge22" class="edge">
<title>Node15&#45;&gt;Node3</title>
<path fill="none" stroke="#63b8ff" d="M148.82,-406.93C148.03,-407.6 147.25,-408.29 146.5,-409 119.57,-434.34 136.85,-458.06 110.5,-484 107.25,-487.2 103.51,-490.04 99.55,-492.55"/>
<polygon fill="#63b8ff" stroke="#63b8ff" points="150.62,-409.95 156.75,-401.32 146.57,-404.24 150.62,-409.95"/>
</g>
<!-- Node15&#45;&gt;Node10 -->
<g id="edge20" class="edge">
<title>Node15&#45;&gt;Node10</title>
<path fill="none" stroke="#63b8ff" d="M141.68,-387.06C131.4,-387.53 120.89,-388.02 110.91,-388.48"/>
<polygon fill="#63b8ff" stroke="#63b8ff" points="141.8,-390.55 151.62,-386.6 141.47,-383.56 141.8,-390.55"/>
</g>
<!-- Node16 -->
<g id="node16" class="node">
<title>Node16</title>
<g id="a_node16"><a xlink:href="a01659.html#a40226d9c84fcb9cb948ae0c27b842c57" target="_top" xlink:title="add an object to an array">
<polygon fill="white" stroke="#666666" points="110.5,-307 0,-307 0,-275 110.5,-275 110.5,-307"/>
<text xml:space="preserve" text-anchor="start" x="8" y="-293.5" font-family="Helvetica,sans-Serif" font-size="10.00">nlohmann::basic_json</text>
<text xml:space="preserve" text-anchor="middle" x="55.25" y="-281.5" font-family="Helvetica,sans-Serif" font-size="10.00">::operator+=</text>
</a>
</g>
</g>
<!-- Node15&#45;&gt;Node16 -->
<g id="edge21" class="edge">
<title>Node15&#45;&gt;Node16</title>
<path fill="none" stroke="#63b8ff" d="M150.72,-361.89C149.28,-360.96 147.87,-360 146.5,-359 126.36,-344.31 130.3,-331.14 110.5,-316 106.38,-312.85 101.8,-309.98 97.1,-307.39"/>
<polygon fill="#63b8ff" stroke="#63b8ff" points="148.95,-364.91 159.37,-366.84 152.43,-358.84 148.95,-364.91"/>
</g>
<!-- Node17 -->
<g id="node17" class="node">
<title>Node17</title>
<g id="a_node17"><a xlink:href="a01659.html#a4567cf75f19b1efca090f75d7a8a350a" target="_top" xlink:title="add an object to an object">
<polygon fill="white" stroke="#666666" points="110.5,-357 0,-357 0,-325 110.5,-325 110.5,-357"/>
<text xml:space="preserve" text-anchor="start" x="8" y="-343.5" font-family="Helvetica,sans-Serif" font-size="10.00">nlohmann::basic_json</text>
<text xml:space="preserve" text-anchor="middle" x="55.25" y="-331.5" font-family="Helvetica,sans-Serif" font-size="10.00">::push_back</text>
</a>
</g>
</g>
<!-- Node15&#45;&gt;Node17 -->
<g id="edge23" class="edge">
<title>Node15&#45;&gt;Node17</title>
<path fill="none" stroke="#63b8ff" d="M142.34,-365.41C131.86,-362.44 121.11,-359.39 110.91,-356.5"/>
<polygon fill="#63b8ff" stroke="#63b8ff" points="141.1,-368.7 151.68,-368.06 143.01,-361.97 141.1,-368.7"/>
</g>
</g>
</svg>
