<?xml version="1.0" encoding="UTF-8" standalone="no"?>
<!DOCTYPE svg PUBLIC "-//W3C//DTD SVG 1.1//EN"
 "http://www.w3.org/Graphics/SVG/1.1/DTD/svg11.dtd">
<!-- Generated by graphviz version 13.1.2 (20250808.2320)
 -->
<!-- Title: nlohmann::basic_json::is_object Pages: 1 -->
<svg width="583pt" height="840pt"
 viewBox="0.00 0.00 583.00 840.00" xmlns="http://www.w3.org/2000/svg" xmlns:xlink="http://www.w3.org/1999/xlink">
<g id="graph0" class="graph" transform="scale(1 1) rotate(0) translate(4 836)">
<title>nlohmann::basic_json::is_object</title>
<!-- Node1 -->
<g id="node1" class="node">
<title>Node1</title>
<g id="a_node1"><a xlink:title="return whether value is an object">
<polygon fill="#999999" stroke="#666666" points="574.75,-444 464.25,-444 464.25,-412 574.75,-412 574.75,-444"/>
<text xml:space="preserve" text-anchor="start" x="472.25" y="-430.5" font-family="Helvetica,sans-Serif" font-size="10.00">nlohmann::basic_json</text>
<text xml:space="preserve" text-anchor="middle" x="519.5" y="-418.5" font-family="Helvetica,sans-Serif" font-size="10.00">::is_object</text>
</a>
</g>
</g>
<!-- Node2 -->
<g id="node2" class="node">
<title>Node2</title>
<g id="a_node2"><a xlink:href="a01659.html#a239e942da82f2597d0cf5ec806f5bc0d" target="_top" xlink:title="access specified object element with bounds checking">
<polygon fill="white" stroke="#666666" points="428.25,-832 303.5,-832 303.5,-812 428.25,-812 428.25,-832"/>
<text xml:space="preserve" text-anchor="middle" x="365.88" y="-818.5" font-family="Helvetica,sans-Serif" font-size="10.00">nlohmann::basic_json::at</text>
</a>
</g>
</g>
<!-- Node1&#45;&gt;Node2 -->
<g id="edge1" class="edge">
<title>Node1&#45;&gt;Node2</title>
<path fill="none" stroke="#63b8ff" d="M515.44,-455.25C506.2,-532.69 476.3,-751.77 428.25,-803 425.05,-806.42 421.24,-809.22 417.12,-811.53"/>
<polygon fill="#63b8ff" stroke="#63b8ff" points="518.88,-455.93 516.56,-445.59 511.93,-455.12 518.88,-455.93"/>
</g>
<!-- Node3 -->
<g id="node3" class="node">
<title>Node3</title>
<g id="a_node3"><a xlink:href="a01659.html#a02c9bc4d0f33b7dec20b2798301d6971" target="_top" xlink:title="check the existence of an element in a JSON object">
<polygon fill="white" stroke="#666666" points="421.12,-794 310.62,-794 310.62,-762 421.12,-762 421.12,-794"/>
<text xml:space="preserve" text-anchor="start" x="318.62" y="-780.5" font-family="Helvetica,sans-Serif" font-size="10.00">nlohmann::basic_json</text>
<text xml:space="preserve" text-anchor="middle" x="365.88" y="-768.5" font-family="Helvetica,sans-Serif" font-size="10.00">::contains</text>
</a>
</g>
</g>
<!-- Node1&#45;&gt;Node3 -->
<g id="edge2" class="edge">
<title>Node1&#45;&gt;Node3</title>
<path fill="none" stroke="#63b8ff" d="M518.61,-455.53C517.38,-516.75 506.03,-665.64 428.25,-753 425.34,-756.27 421.95,-759.11 418.27,-761.59"/>
<polygon fill="#63b8ff" stroke="#63b8ff" points="522.11,-455.73 518.72,-445.69 515.11,-455.65 522.11,-455.73"/>
</g>
<!-- Node4 -->
<g id="node4" class="node">
<title>Node4</title>
<g id="a_node4"><a xlink:href="a01659.html#aba5ec6d1e37eda6b11eba491a1e5237e" target="_top" xlink:title="returns the number of occurrences of a key in a JSON object">
<polygon fill="white" stroke="#666666" points="421.12,-744 310.62,-744 310.62,-712 421.12,-712 421.12,-744"/>
<text xml:space="preserve" text-anchor="start" x="318.62" y="-730.5" font-family="Helvetica,sans-Serif" font-size="10.00">nlohmann::basic_json</text>
<text xml:space="preserve" text-anchor="middle" x="365.88" y="-718.5" font-family="Helvetica,sans-Serif" font-size="10.00">::count</text>
</a>
</g>
</g>
<!-- Node1&#45;&gt;Node4 -->
<g id="edge3" class="edge">
<title>Node1&#45;&gt;Node4</title>
<path fill="none" stroke="#63b8ff" d="M516.91,-455.73C512.35,-510.09 494.86,-631.58 428.25,-703 425.19,-706.28 421.64,-709.14 417.81,-711.64"/>
<polygon fill="#63b8ff" stroke="#63b8ff" points="520.39,-456.04 517.64,-445.81 513.41,-455.53 520.39,-456.04"/>
</g>
<!-- Node5 -->
<g id="node5" class="node">
<title>Node5</title>
<g id="a_node5"><a xlink:href="a02059.html#a34d4ecf420c2752268b9b24829cdd393" target="_top" xlink:title=" ">
<polygon fill="white" stroke="#666666" points="421.12,-676 310.62,-676 310.62,-644 421.12,-644 421.12,-676"/>
<text xml:space="preserve" text-anchor="start" x="318.62" y="-662.5" font-family="Helvetica,sans-Serif" font-size="10.00">nlohmann::basic_json</text>
<text xml:space="preserve" text-anchor="middle" x="365.88" y="-650.5" font-family="Helvetica,sans-Serif" font-size="10.00">::json_value::destroy</text>
</a>
</g>
</g>
<!-- Node1&#45;&gt;Node5 -->
<g id="edge4" class="edge">
<title>Node1&#45;&gt;Node5</title>
<path fill="none" stroke="#63b8ff" d="M513.45,-455.5C504.08,-499.13 480.05,-584.44 428.25,-635 424.96,-638.21 421.19,-641.03 417.19,-643.51"/>
<polygon fill="#63b8ff" stroke="#63b8ff" points="516.85,-456.34 515.41,-445.85 509.99,-454.95 516.85,-456.34"/>
</g>
<!-- Node7 -->
<g id="node7" class="node">
<title>Node7</title>
<g id="a_node7"><a xlink:href="a01659.html#af244c096197a233edba4c83200ae66ac" target="_top" xlink:title="add an object to an object if key does not exist">
<polygon fill="white" stroke="#666666" points="421.12,-626 310.62,-626 310.62,-594 421.12,-594 421.12,-626"/>
<text xml:space="preserve" text-anchor="start" x="318.62" y="-612.5" font-family="Helvetica,sans-Serif" font-size="10.00">nlohmann::basic_json</text>
<text xml:space="preserve" text-anchor="middle" x="365.88" y="-600.5" font-family="Helvetica,sans-Serif" font-size="10.00">::emplace</text>
</a>
</g>
</g>
<!-- Node1&#45;&gt;Node7 -->
<g id="edge7" class="edge">
<title>Node1&#45;&gt;Node7</title>
<path fill="none" stroke="#63b8ff" d="M509.4,-454.75C496.43,-489.21 469.52,-548.95 428.25,-585 424.52,-588.25 420.32,-591.12 415.9,-593.64"/>
<polygon fill="#63b8ff" stroke="#63b8ff" points="512.63,-456.12 512.75,-445.53 506.05,-453.73 512.63,-456.12"/>
</g>
<!-- Node8 -->
<g id="node8" class="node">
<title>Node8</title>
<g id="a_node8"><a xlink:href="a01659.html#af72b1c9d1502b02a49a0cb9db9f980ea" target="_top" xlink:title="remove element from a JSON object given a key">
<polygon fill="white" stroke="#666666" points="421.12,-576 310.62,-576 310.62,-544 421.12,-544 421.12,-576"/>
<text xml:space="preserve" text-anchor="start" x="318.62" y="-562.5" font-family="Helvetica,sans-Serif" font-size="10.00">nlohmann::basic_json</text>
<text xml:space="preserve" text-anchor="middle" x="365.88" y="-550.5" font-family="Helvetica,sans-Serif" font-size="10.00">::erase</text>
</a>
</g>
</g>
<!-- Node1&#45;&gt;Node8 -->
<g id="edge8" class="edge">
<title>Node1&#45;&gt;Node8</title>
<path fill="none" stroke="#63b8ff" d="M500.51,-453.47C483.76,-475.8 457.1,-508.05 428.25,-530 421.55,-535.1 413.84,-539.68 406.21,-543.63"/>
<polygon fill="#63b8ff" stroke="#63b8ff" points="503.27,-455.62 506.37,-445.49 497.63,-451.48 503.27,-455.62"/>
</g>
<!-- Node9 -->
<g id="node9" class="node">
<title>Node9</title>
<g id="a_node9"><a xlink:href="a01659.html#acdf9b3aab82dcf443dd91ca5ec06b80c" target="_top" xlink:title="find an element in a JSON object">
<polygon fill="white" stroke="#666666" points="421.12,-488 310.62,-488 310.62,-456 421.12,-456 421.12,-488"/>
<text xml:space="preserve" text-anchor="start" x="318.62" y="-474.5" font-family="Helvetica,sans-Serif" font-size="10.00">nlohmann::basic_json</text>
<text xml:space="preserve" text-anchor="middle" x="365.88" y="-462.5" font-family="Helvetica,sans-Serif" font-size="10.00">::find</text>
</a>
</g>
</g>
<!-- Node1&#45;&gt;Node9 -->
<g id="edge9" class="edge">
<title>Node1&#45;&gt;Node9</title>
<path fill="none" stroke="#63b8ff" d="M452.97,-447.02C442.48,-450.06 431.73,-453.18 421.53,-456.14"/>
<polygon fill="#63b8ff" stroke="#63b8ff" points="453.68,-450.46 462.31,-444.31 451.73,-443.73 453.68,-450.46"/>
</g>
<!-- Node11 -->
<g id="node11" class="node">
<title>Node11</title>
<g id="a_node11"><a xlink:href="a01659.html#adcc786998f220a5b3083ee8a37c4553e" target="_top" xlink:title="applies a JSON patch">
<polygon fill="white" stroke="#666666" points="267.5,-559 157,-559 157,-527 267.5,-527 267.5,-559"/>
<text xml:space="preserve" text-anchor="start" x="165" y="-545.5" font-family="Helvetica,sans-Serif" font-size="10.00">nlohmann::basic_json</text>
<text xml:space="preserve" text-anchor="middle" x="212.25" y="-533.5" font-family="Helvetica,sans-Serif" font-size="10.00">::patch</text>
</a>
</g>
</g>
<!-- Node1&#45;&gt;Node11 -->
<g id="edge23" class="edge">
<title>Node1&#45;&gt;Node11</title>
<path fill="none" stroke="#63b8ff" d="M493.75,-451.79C476.65,-466.93 452.66,-485.75 428.25,-497 376.77,-520.72 312.67,-532.4 267.91,-538.03"/>
<polygon fill="#63b8ff" stroke="#63b8ff" points="495.87,-454.59 500.92,-445.28 491.16,-449.41 495.87,-454.59"/>
</g>
<!-- Node12 -->
<g id="node12" class="node">
<title>Node12</title>
<g id="a_node12"><a xlink:href="a01659.html#a11641b35219676b225d9bd15c7677659" target="_top" xlink:title="access specified object element with default value">
<polygon fill="white" stroke="#666666" points="267.5,-441 157,-441 157,-409 267.5,-409 267.5,-441"/>
<text xml:space="preserve" text-anchor="start" x="165" y="-427.5" font-family="Helvetica,sans-Serif" font-size="10.00">nlohmann::basic_json</text>
<text xml:space="preserve" text-anchor="middle" x="212.25" y="-415.5" font-family="Helvetica,sans-Serif" font-size="10.00">::value</text>
</a>
</g>
</g>
<!-- Node1&#45;&gt;Node12 -->
<g id="edge27" class="edge">
<title>Node1&#45;&gt;Node12</title>
<path fill="none" stroke="#63b8ff" d="M452.51,-427.35C397.34,-426.81 319.59,-426.05 267.86,-425.54"/>
<polygon fill="#63b8ff" stroke="#63b8ff" points="452.38,-430.85 462.41,-427.45 452.45,-423.85 452.38,-430.85"/>
</g>
<!-- Node15 -->
<g id="node15" class="node">
<title>Node15</title>
<g id="a_node15"><a xlink:href="a01659.html#a1b392df4dc99d75751dcd542a8b745ec" target="_top" xlink:title="get a pointer to the value (object)">
<polygon fill="white" stroke="#666666" points="421.12,-400 310.62,-400 310.62,-368 421.12,-368 421.12,-400"/>
<text xml:space="preserve" text-anchor="start" x="318.62" y="-386.5" font-family="Helvetica,sans-Serif" font-size="10.00">nlohmann::basic_json</text>
<text xml:space="preserve" text-anchor="middle" x="365.88" y="-374.5" font-family="Helvetica,sans-Serif" font-size="10.00">::get_impl_ptr</text>
</a>
</g>
</g>
<!-- Node1&#45;&gt;Node15 -->
<g id="edge16" class="edge">
<title>Node1&#45;&gt;Node15</title>
<path fill="none" stroke="#63b8ff" d="M452.97,-408.98C442.48,-405.94 431.73,-402.82 421.53,-399.86"/>
<polygon fill="#63b8ff" stroke="#63b8ff" points="451.73,-412.27 462.31,-411.69 453.68,-405.54 451.73,-412.27"/>
</g>
<!-- Node17 -->
<g id="node17" class="node">
<title>Node17</title>
<g id="a_node17"><a xlink:href="a01659.html#a0181d03c6314bedcbad2e92d3676223c" target="_top" xlink:title="inserts elements">
<polygon fill="white" stroke="#666666" points="421.12,-350 310.62,-350 310.62,-318 421.12,-318 421.12,-350"/>
<text xml:space="preserve" text-anchor="start" x="318.62" y="-336.5" font-family="Helvetica,sans-Serif" font-size="10.00">nlohmann::basic_json</text>
<text xml:space="preserve" text-anchor="middle" x="365.88" y="-324.5" font-family="Helvetica,sans-Serif" font-size="10.00">::insert</text>
</a>
</g>
</g>
<!-- Node1&#45;&gt;Node17 -->
<g id="edge18" class="edge">
<title>Node1&#45;&gt;Node17</title>
<path fill="none" stroke="#63b8ff" d="M491.72,-404.49C474.43,-390.1 450.99,-372.01 428.25,-359 422.86,-355.91 417.01,-353.02 411.14,-350.37"/>
<polygon fill="#63b8ff" stroke="#63b8ff" points="489.12,-406.87 499.01,-410.66 493.64,-401.53 489.12,-406.87"/>
</g>
<!-- Node18 -->
<g id="node18" class="node">
<title>Node18</title>
<g id="a_node18"><a xlink:href="a01659.html#a4e05a7d5deec758f1d830741b68b4249" target="_top" xlink:title="return whether type is structured">
<polygon fill="white" stroke="#666666" points="421.12,-300 310.62,-300 310.62,-268 421.12,-268 421.12,-300"/>
<text xml:space="preserve" text-anchor="start" x="318.62" y="-286.5" font-family="Helvetica,sans-Serif" font-size="10.00">nlohmann::basic_json</text>
<text xml:space="preserve" text-anchor="middle" x="365.88" y="-274.5" font-family="Helvetica,sans-Serif" font-size="10.00">::is_structured</text>
</a>
</g>
</g>
<!-- Node1&#45;&gt;Node18 -->
<g id="edge19" class="edge">
<title>Node1&#45;&gt;Node18</title>
<path fill="none" stroke="#63b8ff" d="M504.28,-401.77C488.72,-375.21 461.49,-334.5 428.25,-309 424.05,-305.78 419.38,-302.91 414.54,-300.37"/>
<polygon fill="#63b8ff" stroke="#63b8ff" points="501.11,-403.27 509.1,-410.22 507.19,-399.8 501.11,-403.27"/>
</g>
<!-- Node19 -->
<g id="node19" class="node">
<title>Node19</title>
<g id="a_node19"><a xlink:href="a01659.html#a844a77cb154752d12118f10af26d54cb" target="_top" xlink:title="applies a JSON Merge Patch">
<polygon fill="white" stroke="#666666" points="421.12,-232 310.62,-232 310.62,-200 421.12,-200 421.12,-232"/>
<text xml:space="preserve" text-anchor="start" x="318.62" y="-218.5" font-family="Helvetica,sans-Serif" font-size="10.00">nlohmann::basic_json</text>
<text xml:space="preserve" text-anchor="middle" x="365.88" y="-206.5" font-family="Helvetica,sans-Serif" font-size="10.00">::merge_patch</text>
</a>
</g>
</g>
<!-- Node1&#45;&gt;Node19 -->
<g id="edge20" class="edge">
<title>Node1&#45;&gt;Node19</title>
<path fill="none" stroke="#63b8ff" d="M508.72,-401.07C494.87,-365.58 466.87,-302.58 428.25,-259 419.1,-248.68 407.01,-239.53 395.98,-232.36"/>
<polygon fill="#63b8ff" stroke="#63b8ff" points="505.35,-402.05 512.18,-410.15 511.89,-399.56 505.35,-402.05"/>
</g>
<!-- Node20 -->
<g id="node20" class="node">
<title>Node20</title>
<g id="a_node20"><a xlink:href="a01659.html#a3f45f3820c456ad2e3f3df2926564151" target="_top" xlink:title="access specified object element">
<polygon fill="white" stroke="#666666" points="421.12,-182 310.62,-182 310.62,-150 421.12,-150 421.12,-182"/>
<text xml:space="preserve" text-anchor="start" x="318.62" y="-168.5" font-family="Helvetica,sans-Serif" font-size="10.00">nlohmann::basic_json</text>
<text xml:space="preserve" text-anchor="middle" x="365.88" y="-156.5" font-family="Helvetica,sans-Serif" font-size="10.00">::operator[]</text>
</a>
</g>
</g>
<!-- Node1&#45;&gt;Node20 -->
<g id="edge22" class="edge">
<title>Node1&#45;&gt;Node20</title>
<path fill="none" stroke="#63b8ff" d="M515.19,-400.37C507.99,-351.81 486.55,-250.65 428.25,-191 425.03,-187.71 421.32,-184.84 417.35,-182.33"/>
<polygon fill="#63b8ff" stroke="#63b8ff" points="511.69,-400.6 516.53,-410.03 518.63,-399.64 511.69,-400.6"/>
</g>
<!-- Node21 -->
<g id="node21" class="node">
<title>Node21</title>
<g id="a_node21"><a xlink:href="a01659.html#ad704839e6a5195e3b76f22e2b9aa63ee" target="_top" xlink:title="add an object to an object">
<polygon fill="white" stroke="#666666" points="421.12,-132 310.62,-132 310.62,-100 421.12,-100 421.12,-132"/>
<text xml:space="preserve" text-anchor="start" x="318.62" y="-118.5" font-family="Helvetica,sans-Serif" font-size="10.00">nlohmann::basic_json</text>
<text xml:space="preserve" text-anchor="middle" x="365.88" y="-106.5" font-family="Helvetica,sans-Serif" font-size="10.00">::push_back</text>
</a>
</g>
</g>
<!-- Node1&#45;&gt;Node21 -->
<g id="edge24" class="edge">
<title>Node1&#45;&gt;Node21</title>
<path fill="none" stroke="#63b8ff" d="M517.36,-400.24C513.61,-344.14 497.5,-216.19 428.25,-141 425.21,-137.7 421.67,-134.82 417.86,-132.32"/>
<polygon fill="#63b8ff" stroke="#63b8ff" points="513.87,-400.39 517.93,-410.18 520.85,-399.99 513.87,-400.39"/>
</g>
<!-- Node22 -->
<g id="node22" class="node">
<title>Node22</title>
<g id="a_node22"><a xlink:href="a01659.html#a57b86bdcfc55557dacc36969adb0417e" target="_top" xlink:title="exchanges the values">
<polygon fill="white" stroke="#666666" points="421.12,-82 310.62,-82 310.62,-50 421.12,-50 421.12,-82"/>
<text xml:space="preserve" text-anchor="start" x="318.62" y="-68.5" font-family="Helvetica,sans-Serif" font-size="10.00">nlohmann::basic_json</text>
<text xml:space="preserve" text-anchor="middle" x="365.88" y="-56.5" font-family="Helvetica,sans-Serif" font-size="10.00">::swap</text>
</a>
</g>
</g>
<!-- Node1&#45;&gt;Node22 -->
<g id="edge25" class="edge">
<title>Node1&#45;&gt;Node22</title>
<path fill="none" stroke="#63b8ff" d="M518.94,-400.31C518.45,-337.4 508.63,-182.13 428.25,-91 425.36,-87.72 421.97,-84.86 418.3,-82.38"/>
<polygon fill="#63b8ff" stroke="#63b8ff" points="515.44,-400.1 518.93,-410.1 522.44,-400.1 515.44,-400.1"/>
</g>
<!-- Node23 -->
<g id="node23" class="node">
<title>Node23</title>
<g id="a_node23"><a xlink:href="a01659.html#a377819905d567f6f523dcbc592cb6356" target="_top" xlink:title="updates a JSON object from another object, overwriting existing keys">
<polygon fill="white" stroke="#666666" points="421.12,-32 310.62,-32 310.62,0 421.12,0 421.12,-32"/>
<text xml:space="preserve" text-anchor="start" x="318.62" y="-18.5" font-family="Helvetica,sans-Serif" font-size="10.00">nlohmann::basic_json</text>
<text xml:space="preserve" text-anchor="middle" x="365.88" y="-6.5" font-family="Helvetica,sans-Serif" font-size="10.00">::update</text>
</a>
</g>
</g>
<!-- Node1&#45;&gt;Node23 -->
<g id="edge26" class="edge">
<title>Node1&#45;&gt;Node23</title>
<path fill="none" stroke="#63b8ff" d="M515.39,-400.58C505.94,-321.67 475.33,-96.15 428.25,-41 425.49,-37.76 422.24,-34.94 418.71,-32.48"/>
<polygon fill="#63b8ff" stroke="#63b8ff" points="511.86,-400.5 516.5,-410.02 518.81,-399.68 511.86,-400.5"/>
</g>
<!-- Node5&#45;&gt;Node5 -->
<g id="edge6" class="edge">
<title>Node5&#45;&gt;Node5</title>
<path fill="none" stroke="#63b8ff" d="M391.48,-687.71C387.21,-691.48 378.67,-694 365.88,-694 342.47,-694 333.33,-685.58 338.45,-676.44"/>
<polygon fill="#63b8ff" stroke="#63b8ff" points="394.91,-688.37 393.06,-677.94 388,-687.25 394.91,-688.37"/>
</g>
<!-- Node6 -->
<g id="node6" class="node">
<title>Node6</title>
<g id="a_node6"><a xlink:href="a01659.html#a60b643c02a19fa52f99db8215ff58e0f" target="_top" xlink:title="destructor">
<polygon fill="white" stroke="#666666" points="267.5,-676 157,-676 157,-644 267.5,-644 267.5,-676"/>
<text xml:space="preserve" text-anchor="start" x="165" y="-662.5" font-family="Helvetica,sans-Serif" font-size="10.00">nlohmann::basic_json</text>
<text xml:space="preserve" text-anchor="middle" x="212.25" y="-650.5" font-family="Helvetica,sans-Serif" font-size="10.00">::~basic_json</text>
</a>
</g>
</g>
<!-- Node5&#45;&gt;Node6 -->
<g id="edge5" class="edge">
<title>Node5&#45;&gt;Node6</title>
<path fill="none" stroke="#63b8ff" d="M298.68,-660C288.4,-660 277.89,-660 267.91,-660"/>
<polygon fill="#63b8ff" stroke="#63b8ff" points="298.62,-663.5 308.62,-660 298.62,-656.5 298.62,-663.5"/>
</g>
<!-- Node10 -->
<g id="node10" class="node">
<title>Node10</title>
<g id="a_node10"><a xlink:href="a01659.html#a1c1f21327df91a4dd6c5f5a107240385" target="_top" xlink:title="creates a diff as a JSON patch">
<polygon fill="white" stroke="#666666" points="267.5,-491 157,-491 157,-459 267.5,-459 267.5,-491"/>
<text xml:space="preserve" text-anchor="start" x="165" y="-477.5" font-family="Helvetica,sans-Serif" font-size="10.00">nlohmann::basic_json</text>
<text xml:space="preserve" text-anchor="middle" x="212.25" y="-465.5" font-family="Helvetica,sans-Serif" font-size="10.00">::diff</text>
</a>
</g>
</g>
<!-- Node9&#45;&gt;Node10 -->
<g id="edge10" class="edge">
<title>Node9&#45;&gt;Node10</title>
<path fill="none" stroke="#63b8ff" d="M298.68,-473.31C288.4,-473.51 277.89,-473.72 267.91,-473.92"/>
<polygon fill="#63b8ff" stroke="#63b8ff" points="298.69,-476.81 308.62,-473.11 298.55,-469.81 298.69,-476.81"/>
</g>
<!-- Node9&#45;&gt;Node11 -->
<g id="edge12" class="edge">
<title>Node9&#45;&gt;Node11</title>
<path fill="none" stroke="#63b8ff" d="M320.25,-493.19C303.7,-501.02 284.76,-509.95 267.5,-518 261.58,-520.76 255.29,-523.68 249.17,-526.51"/>
<polygon fill="#63b8ff" stroke="#63b8ff" points="321.3,-496.56 328.84,-489.12 318.31,-490.24 321.3,-496.56"/>
</g>
<!-- Node9&#45;&gt;Node12 -->
<g id="edge13" class="edge">
<title>Node9&#45;&gt;Node12</title>
<path fill="none" stroke="#63b8ff" d="M300.92,-452.18C289.37,-448.6 277.45,-444.9 266.25,-441.43"/>
<polygon fill="#63b8ff" stroke="#63b8ff" points="299.81,-455.5 310.4,-455.11 301.88,-448.81 299.81,-455.5"/>
</g>
<!-- Node10&#45;&gt;Node10 -->
<g id="edge11" class="edge">
<title>Node10&#45;&gt;Node10</title>
<path fill="none" stroke="#63b8ff" d="M237.54,-502.71C233.32,-506.48 224.89,-509 212.25,-509 189.13,-509 180.1,-500.58 185.16,-491.44"/>
<polygon fill="#63b8ff" stroke="#63b8ff" points="240.98,-503.36 239.1,-492.94 234.07,-502.26 240.98,-503.36"/>
</g>
<!-- Node13 -->
<g id="node13" class="node">
<title>Node13</title>
<g id="a_node13"><a xlink:href="a02059.html#ad7f122fa9bfc5aa4d9b65a3059892146" target="_top" xlink:title="constructor for strings">
<polygon fill="white" stroke="#666666" points="121,-466 0,-466 0,-434 121,-434 121,-466"/>
<text xml:space="preserve" text-anchor="start" x="8" y="-452.5" font-family="Helvetica,sans-Serif" font-size="10.00">nlohmann::basic_json</text>
<text xml:space="preserve" text-anchor="middle" x="60.5" y="-440.5" font-family="Helvetica,sans-Serif" font-size="10.00">::json_value::json_value</text>
</a>
</g>
</g>
<!-- Node12&#45;&gt;Node13 -->
<g id="edge14" class="edge">
<title>Node12&#45;&gt;Node13</title>
<path fill="none" stroke="#63b8ff" d="M145.5,-435.98C137.43,-437.32 129.23,-438.69 121.26,-440.02"/>
<polygon fill="#63b8ff" stroke="#63b8ff" points="145.98,-439.44 155.27,-434.35 144.83,-432.54 145.98,-439.44"/>
</g>
<!-- Node14 -->
<g id="node14" class="node">
<title>Node14</title>
<g id="a_node14"><a xlink:href="a01659.html#adcfdefe95d5c2471a5c97e911d46ee88" target="_top" xlink:title="overload for a default value of type const char*">
<polygon fill="white" stroke="#666666" points="115.75,-416 5.25,-416 5.25,-384 115.75,-384 115.75,-416"/>
<text xml:space="preserve" text-anchor="start" x="13.25" y="-402.5" font-family="Helvetica,sans-Serif" font-size="10.00">nlohmann::basic_json</text>
<text xml:space="preserve" text-anchor="middle" x="60.5" y="-390.5" font-family="Helvetica,sans-Serif" font-size="10.00">::value</text>
</a>
</g>
</g>
<!-- Node12&#45;&gt;Node14 -->
<g id="edge15" class="edge">
<title>Node12&#45;&gt;Node14</title>
<path fill="none" stroke="#63b8ff" d="M145.44,-414.01C135.67,-412.38 125.7,-410.72 116.2,-409.13"/>
<polygon fill="#63b8ff" stroke="#63b8ff" points="144.83,-417.46 155.27,-415.65 145.98,-410.56 144.83,-417.46"/>
</g>
<!-- Node16 -->
<g id="node16" class="node">
<title>Node16</title>
<g id="a_node16"><a xlink:href="a01659.html#a85222410e03d8f5c8ff9c78cf9f6b1b6" target="_top" xlink:title="get a pointer value (implicit)">
<polygon fill="white" stroke="#666666" points="267.5,-391 157,-391 157,-359 267.5,-359 267.5,-391"/>
<text xml:space="preserve" text-anchor="start" x="165" y="-377.5" font-family="Helvetica,sans-Serif" font-size="10.00">nlohmann::basic_json</text>
<text xml:space="preserve" text-anchor="middle" x="212.25" y="-365.5" font-family="Helvetica,sans-Serif" font-size="10.00">::get_ptr</text>
</a>
</g>
</g>
<!-- Node15&#45;&gt;Node16 -->
<g id="edge17" class="edge">
<title>Node15&#45;&gt;Node16</title>
<path fill="none" stroke="#63b8ff" d="M298.68,-380.07C288.4,-379.46 277.89,-378.84 267.91,-378.24"/>
<polygon fill="#63b8ff" stroke="#63b8ff" points="298.43,-383.56 308.62,-380.66 298.85,-376.57 298.43,-383.56"/>
</g>
<!-- Node19&#45;&gt;Node19 -->
<g id="edge21" class="edge">
<title>Node19&#45;&gt;Node19</title>
<path fill="none" stroke="#63b8ff" d="M391.48,-243.71C387.21,-247.48 378.67,-250 365.88,-250 342.47,-250 333.33,-241.58 338.45,-232.44"/>
<polygon fill="#63b8ff" stroke="#63b8ff" points="394.91,-244.37 393.06,-233.94 388,-243.25 394.91,-244.37"/>
</g>
</g>
</svg>
