<?xml version="1.0" encoding="UTF-8" standalone="no"?>
<!DOCTYPE svg PUBLIC "-//W3C//DTD SVG 1.1//EN"
 "http://www.w3.org/Graphics/SVG/1.1/DTD/svg11.dtd">
<!-- Generated by graphviz version 13.1.2 (20250808.2320)
 -->
<!-- Title: nlohmann::basic_json::patch Pages: 1 -->
<svg width="796pt" height="838pt"
 viewBox="0.00 0.00 796.00 838.00" xmlns="http://www.w3.org/2000/svg" xmlns:xlink="http://www.w3.org/1999/xlink">
<g id="graph0" class="graph" transform="scale(1 1) rotate(0) translate(4 833.62)">
<title>nlohmann::basic_json::patch</title>
<!-- Node1 -->
<g id="node1" class="node">
<title>Node1</title>
<g id="a_node1"><a xlink:title="applies a JSON patch">
<polygon fill="#999999" stroke="#666666" points="110.5,-479 0,-479 0,-447 110.5,-447 110.5,-479"/>
<text xml:space="preserve" text-anchor="start" x="8" y="-465.5" font-family="Helvetica,sans-Serif" font-size="10.00">nlohmann::basic_json</text>
<text xml:space="preserve" text-anchor="middle" x="55.25" y="-453.5" font-family="Helvetica,sans-Serif" font-size="10.00">::patch</text>
</a>
</g>
</g>
<!-- Node2 -->
<g id="node2" class="node">
<title>Node2</title>
<g id="a_node2"><a xlink:href="a01663.html#ae28e4b79b9d4fac9e6dca29f47f946fa" target="_top" xlink:title=" ">
<polygon fill="white" stroke="#666666" points="272.75,-797 156.25,-797 156.25,-765 272.75,-765 272.75,-797"/>
<text xml:space="preserve" text-anchor="start" x="164.25" y="-783.5" font-family="Helvetica,sans-Serif" font-size="10.00">nlohmann::json_pointer</text>
<text xml:space="preserve" text-anchor="middle" x="214.5" y="-771.5" font-family="Helvetica,sans-Serif" font-size="10.00">::array_index</text>
</a>
</g>
</g>
<!-- Node1&#45;&gt;Node2 -->
<g id="edge1" class="edge">
<title>Node1&#45;&gt;Node2</title>
<path fill="none" stroke="#63b8ff" d="M56.84,-479.25C59.43,-526.98 73.21,-668.57 146.5,-751 148.84,-753.63 151.45,-756.04 154.25,-758.25"/>
<polygon fill="#63b8ff" stroke="#63b8ff" points="152.23,-761.11 162.48,-763.8 156.14,-755.3 152.23,-761.11"/>
</g>
<!-- Node3 -->
<g id="node3" class="node">
<title>Node3</title>
<g id="a_node3"><a xlink:href="a01563.html#a137ea4d27de45d8a844fd13451d40f3d" target="_top" xlink:title="create a parse error exception">
<polygon fill="white" stroke="#666666" points="443.25,-797 326,-797 326,-765 443.25,-765 443.25,-797"/>
<text xml:space="preserve" text-anchor="start" x="334" y="-783.5" font-family="Helvetica,sans-Serif" font-size="10.00">nlohmann::detail::parse</text>
<text xml:space="preserve" text-anchor="middle" x="384.62" y="-771.5" font-family="Helvetica,sans-Serif" font-size="10.00">_error::create</text>
</a>
</g>
</g>
<!-- Node1&#45;&gt;Node3 -->
<g id="edge20" class="edge">
<title>Node1&#45;&gt;Node3</title>
<path fill="none" stroke="#63b8ff" d="M57.97,-479.41C64.89,-542.07 92.98,-764.74 146.5,-806 202.36,-849.06 288.9,-823.73 340.54,-801.97"/>
<polygon fill="#63b8ff" stroke="#63b8ff" points="341.85,-805.22 349.62,-798.01 339.05,-798.8 341.85,-805.22"/>
</g>
<!-- Node6 -->
<g id="node6" class="node">
<title>Node6</title>
<g id="a_node6"><a xlink:href="a01575.html#a3f6d82a6f967c4728a1ec735a7867073" target="_top" xlink:title=" ">
<polygon fill="white" stroke="#666666" points="438,-708 331.25,-708 331.25,-676 438,-676 438,-708"/>
<text xml:space="preserve" text-anchor="start" x="339.25" y="-694.5" font-family="Helvetica,sans-Serif" font-size="10.00">nlohmann::detail::out</text>
<text xml:space="preserve" text-anchor="middle" x="384.62" y="-682.5" font-family="Helvetica,sans-Serif" font-size="10.00">_of_range::create</text>
</a>
</g>
</g>
<!-- Node1&#45;&gt;Node6 -->
<g id="edge21" class="edge">
<title>Node1&#45;&gt;Node6</title>
<path fill="none" stroke="#63b8ff" d="M56.14,-479.23C56.83,-525.95 65.97,-661.08 146.5,-718 203.8,-758.51 289.14,-734 340.29,-712.8"/>
<polygon fill="#63b8ff" stroke="#63b8ff" points="341.46,-716.1 349.27,-708.94 338.7,-709.67 341.46,-716.1"/>
</g>
<!-- Node7 -->
<g id="node7" class="node">
<title>Node7</title>
<g id="a_node7"><a xlink:href="a01659.html#a52b18a5b7e68652c65b070900c438c6e" target="_top" xlink:title="access specified array element with bounds checking">
<polygon fill="white" stroke="#666666" points="276.88,-495 152.12,-495 152.12,-475 276.88,-475 276.88,-495"/>
<text xml:space="preserve" text-anchor="middle" x="214.5" y="-481.5" font-family="Helvetica,sans-Serif" font-size="10.00">nlohmann::basic_json::at</text>
</a>
</g>
</g>
<!-- Node1&#45;&gt;Node7 -->
<g id="edge7" class="edge">
<title>Node1&#45;&gt;Node7</title>
<path fill="none" stroke="#63b8ff" d="M110.81,-470.63C120.41,-471.98 130.54,-473.39 140.55,-474.79"/>
<polygon fill="#63b8ff" stroke="#63b8ff" points="139.88,-478.23 150.27,-476.15 140.85,-471.3 139.88,-478.23"/>
</g>
<!-- Node9 -->
<g id="node9" class="node">
<title>Node9</title>
<g id="a_node9"><a xlink:href="a01659.html#ab5b70d60a636b9c5e10f6c8caac60b9e" target="_top" xlink:title="return whether value is an array">
<polygon fill="white" stroke="#666666" points="439.88,-608 329.38,-608 329.38,-576 439.88,-576 439.88,-608"/>
<text xml:space="preserve" text-anchor="start" x="337.38" y="-594.5" font-family="Helvetica,sans-Serif" font-size="10.00">nlohmann::basic_json</text>
<text xml:space="preserve" text-anchor="middle" x="384.62" y="-582.5" font-family="Helvetica,sans-Serif" font-size="10.00">::is_array</text>
</a>
</g>
</g>
<!-- Node1&#45;&gt;Node9 -->
<g id="edge46" class="edge">
<title>Node1&#45;&gt;Node9</title>
<path fill="none" stroke="#63b8ff" d="M89.7,-479.36C106.53,-487.29 127.38,-496.66 146.5,-504 205.69,-526.71 224.28,-521.92 282.5,-547 299.31,-554.24 301.92,-559.26 318.5,-567 321.58,-568.44 324.77,-569.86 328.01,-571.26"/>
<polygon fill="#63b8ff" stroke="#63b8ff" points="326.46,-574.41 337.04,-575.02 329.15,-567.94 326.46,-574.41"/>
</g>
<!-- Node11 -->
<g id="node11" class="node">
<title>Node11</title>
<g id="a_node11"><a xlink:href="a01663.html#a58b4e4cd3551787d9c20c67ed5b1dfb8" target="_top" xlink:title="return last reference token">
<polygon fill="white" stroke="#666666" points="272.75,-709 156.25,-709 156.25,-677 272.75,-677 272.75,-709"/>
<text xml:space="preserve" text-anchor="start" x="164.25" y="-695.5" font-family="Helvetica,sans-Serif" font-size="10.00">nlohmann::json_pointer</text>
<text xml:space="preserve" text-anchor="middle" x="214.5" y="-683.5" font-family="Helvetica,sans-Serif" font-size="10.00">::back</text>
</a>
</g>
</g>
<!-- Node1&#45;&gt;Node11 -->
<g id="edge13" class="edge">
<title>Node1&#45;&gt;Node11</title>
<path fill="none" stroke="#63b8ff" d="M58.98,-479.32C66.21,-517.61 89.38,-614.08 146.5,-668 147.25,-668.71 148.02,-669.4 148.81,-670.07"/>
<polygon fill="#63b8ff" stroke="#63b8ff" points="146.53,-672.74 156.72,-675.66 150.58,-667.03 146.53,-672.74"/>
</g>
<!-- Node12 -->
<g id="node12" class="node">
<title>Node12</title>
<g id="a_node12"><a xlink:href="a01663.html#a649252bda4a2e75a0915b11a25d8bcc3" target="_top" xlink:title="return whether pointer points to the root document">
<polygon fill="white" stroke="#666666" points="442.88,-658 326.38,-658 326.38,-626 442.88,-626 442.88,-658"/>
<text xml:space="preserve" text-anchor="start" x="334.38" y="-644.5" font-family="Helvetica,sans-Serif" font-size="10.00">nlohmann::json_pointer</text>
<text xml:space="preserve" text-anchor="middle" x="384.62" y="-632.5" font-family="Helvetica,sans-Serif" font-size="10.00">::empty</text>
</a>
</g>
</g>
<!-- Node1&#45;&gt;Node12 -->
<g id="edge24" class="edge">
<title>Node1&#45;&gt;Node12</title>
<path fill="none" stroke="#63b8ff" d="M71.33,-479.46C88.11,-496.84 116.8,-523.92 146.5,-540 201.91,-570 228.54,-547.47 282.5,-580 302.15,-591.85 299.34,-604.37 318.5,-617 320.32,-618.2 322.21,-619.35 324.14,-620.46"/>
<polygon fill="#63b8ff" stroke="#63b8ff" points="322.29,-623.45 332.78,-624.95 325.51,-617.23 322.29,-623.45"/>
</g>
<!-- Node13 -->
<g id="node13" class="node">
<title>Node13</title>
<g id="a_node13"><a xlink:href="a01659.html#a23b495b4c282e4afacf382f5b49af7c7" target="_top" xlink:title="returns an iterator to the first element">
<polygon fill="white" stroke="#666666" points="269.75,-35 159.25,-35 159.25,-3 269.75,-3 269.75,-35"/>
<text xml:space="preserve" text-anchor="start" x="167.25" y="-21.5" font-family="Helvetica,sans-Serif" font-size="10.00">nlohmann::basic_json</text>
<text xml:space="preserve" text-anchor="middle" x="214.5" y="-9.5" font-family="Helvetica,sans-Serif" font-size="10.00">::begin</text>
</a>
</g>
</g>
<!-- Node1&#45;&gt;Node13 -->
<g id="edge16" class="edge">
<title>Node1&#45;&gt;Node13</title>
<path fill="none" stroke="#63b8ff" d="M56.05,-446.78C56.12,-389.77 62.79,-195.22 146.5,-68 153.16,-57.87 162.68,-49.11 172.46,-41.91"/>
<polygon fill="#63b8ff" stroke="#63b8ff" points="174.31,-44.89 180.58,-36.35 170.35,-39.11 174.31,-44.89"/>
</g>
<!-- Node17 -->
<g id="node17" class="node">
<title>Node17</title>
<g id="a_node17"><a xlink:href="a01579.html#a87e8ab894e8c85c0d97a0919782d3683" target="_top" xlink:title=" ">
<polygon fill="white" stroke="#666666" points="272,-303 157,-303 157,-271 272,-271 272,-303"/>
<text xml:space="preserve" text-anchor="start" x="165" y="-289.5" font-family="Helvetica,sans-Serif" font-size="10.00">nlohmann::detail::other</text>
<text xml:space="preserve" text-anchor="middle" x="214.5" y="-277.5" font-family="Helvetica,sans-Serif" font-size="10.00">_error::create</text>
</a>
</g>
</g>
<!-- Node1&#45;&gt;Node17 -->
<g id="edge22" class="edge">
<title>Node1&#45;&gt;Node17</title>
<path fill="none" stroke="#63b8ff" d="M62.13,-446.93C73.82,-417.07 102.66,-352.64 146.5,-315 148.97,-312.88 151.61,-310.91 154.38,-309.07"/>
<polygon fill="#63b8ff" stroke="#63b8ff" points="156.02,-312.17 162.87,-304.09 152.48,-306.13 156.02,-312.17"/>
</g>
<!-- Node18 -->
<g id="node18" class="node">
<title>Node18</title>
<g id="a_node18"><a xlink:href="a01659.html#a931267ec3f09eb67e4382f321b2c52bc" target="_top" xlink:title="returns an iterator to one past the last element">
<polygon fill="white" stroke="#666666" points="450.75,-120 318.5,-120 318.5,-100 450.75,-100 450.75,-120"/>
<text xml:space="preserve" text-anchor="middle" x="384.62" y="-106.5" font-family="Helvetica,sans-Serif" font-size="10.00">nlohmann::basic_json::end</text>
</a>
</g>
</g>
<!-- Node1&#45;&gt;Node18 -->
<g id="edge25" class="edge">
<title>Node1&#45;&gt;Node18</title>
<path fill="none" stroke="#63b8ff" d="M59.31,-446.56C67.14,-408.9 91.29,-315.51 146.5,-262 193.44,-216.51 234.11,-249.94 282.5,-206 307.82,-183.01 293.36,-161.18 318.5,-138 324.03,-132.9 330.64,-128.64 337.48,-125.1"/>
<polygon fill="#63b8ff" stroke="#63b8ff" points="338.61,-128.44 346.22,-121.07 335.68,-122.08 338.61,-128.44"/>
</g>
<!-- Node20 -->
<g id="node20" class="node">
<title>Node20</title>
<g id="a_node20"><a xlink:href="a01659.html#a494632b69bbe1d0153d3bedad0901b8e" target="_top" xlink:title="remove element given an iterator">
<polygon fill="white" stroke="#666666" points="269.75,-356 159.25,-356 159.25,-324 269.75,-324 269.75,-356"/>
<text xml:space="preserve" text-anchor="start" x="167.25" y="-342.5" font-family="Helvetica,sans-Serif" font-size="10.00">nlohmann::basic_json</text>
<text xml:space="preserve" text-anchor="middle" x="214.5" y="-330.5" font-family="Helvetica,sans-Serif" font-size="10.00">::erase</text>
</a>
</g>
</g>
<!-- Node1&#45;&gt;Node20 -->
<g id="edge28" class="edge">
<title>Node1&#45;&gt;Node20</title>
<path fill="none" stroke="#63b8ff" d="M67.63,-446.8C83.24,-425.62 113.18,-388.59 146.5,-366 148.72,-364.49 151.04,-363.06 153.43,-361.69"/>
<polygon fill="#63b8ff" stroke="#63b8ff" points="154.94,-364.85 162.21,-357.14 151.72,-358.64 154.94,-364.85"/>
</g>
<!-- Node25 -->
<g id="node25" class="node">
<title>Node25</title>
<g id="a_node25"><a xlink:href="a01659.html#acdf9b3aab82dcf443dd91ca5ec06b80c" target="_top" xlink:title="find an element in a JSON object">
<polygon fill="white" stroke="#666666" points="269.75,-197 159.25,-197 159.25,-165 269.75,-165 269.75,-197"/>
<text xml:space="preserve" text-anchor="start" x="167.25" y="-183.5" font-family="Helvetica,sans-Serif" font-size="10.00">nlohmann::basic_json</text>
<text xml:space="preserve" text-anchor="middle" x="214.5" y="-171.5" font-family="Helvetica,sans-Serif" font-size="10.00">::find</text>
</a>
</g>
</g>
<!-- Node1&#45;&gt;Node25 -->
<g id="edge37" class="edge">
<title>Node1&#45;&gt;Node25</title>
<path fill="none" stroke="#63b8ff" d="M58.69,-446.63C65.62,-405.05 88.75,-293.66 146.5,-223 152.62,-215.51 160.44,-208.97 168.57,-203.41"/>
<polygon fill="#63b8ff" stroke="#63b8ff" points="170.31,-206.45 176.89,-198.15 166.57,-200.54 170.31,-206.45"/>
</g>
<!-- Node26 -->
<g id="node26" class="node">
<title>Node26</title>
<g id="a_node26"><a xlink:href="a01659.html#a57e8411a770a6263d6d8f2116c37f3aa" target="_top" xlink:title="return whether value is an object">
<polygon fill="white" stroke="#666666" points="439.88,-82 329.38,-82 329.38,-50 439.88,-50 439.88,-82"/>
<text xml:space="preserve" text-anchor="start" x="337.38" y="-68.5" font-family="Helvetica,sans-Serif" font-size="10.00">nlohmann::basic_json</text>
<text xml:space="preserve" text-anchor="middle" x="384.62" y="-56.5" font-family="Helvetica,sans-Serif" font-size="10.00">::is_object</text>
</a>
</g>
</g>
<!-- Node1&#45;&gt;Node26 -->
<g id="edge47" class="edge">
<title>Node1&#45;&gt;Node26</title>
<path fill="none" stroke="#63b8ff" d="M55.9,-446.6C55.76,-395.71 62.46,-238.91 146.5,-156 191.18,-111.92 226.21,-145.75 282.5,-118 300.44,-109.16 301,-100.68 318.5,-91 320.96,-89.64 323.5,-88.32 326.1,-87.05"/>
<polygon fill="#63b8ff" stroke="#63b8ff" points="327.31,-90.35 334.94,-83 324.39,-83.99 327.31,-90.35"/>
</g>
<!-- Node27 -->
<g id="node27" class="node">
<title>Node27</title>
<g id="a_node27"><a xlink:href="a01659.html#aeb86e8478e20d95970a8b61ff01dce3b" target="_top" xlink:title="inserts element">
<polygon fill="white" stroke="#666666" points="269.75,-457 159.25,-457 159.25,-425 269.75,-425 269.75,-457"/>
<text xml:space="preserve" text-anchor="start" x="167.25" y="-443.5" font-family="Helvetica,sans-Serif" font-size="10.00">nlohmann::basic_json</text>
<text xml:space="preserve" text-anchor="middle" x="214.5" y="-431.5" font-family="Helvetica,sans-Serif" font-size="10.00">::insert</text>
</a>
</g>
</g>
<!-- Node1&#45;&gt;Node27 -->
<g id="edge40" class="edge">
<title>Node1&#45;&gt;Node27</title>
<path fill="none" stroke="#63b8ff" d="M110.81,-455.37C122.69,-453.7 135.39,-451.93 147.66,-450.21"/>
<polygon fill="#63b8ff" stroke="#63b8ff" points="147.86,-453.72 157.27,-448.87 146.89,-446.79 147.86,-453.72"/>
</g>
<!-- Node29 -->
<g id="node29" class="node">
<title>Node29</title>
<g id="a_node29"><a xlink:href="a01663.html#a4b1ee4d511ca195bed896a3da47e264c" target="_top" xlink:title="remove last reference token">
<polygon fill="white" stroke="#666666" points="272.75,-659 156.25,-659 156.25,-627 272.75,-627 272.75,-659"/>
<text xml:space="preserve" text-anchor="start" x="164.25" y="-645.5" font-family="Helvetica,sans-Serif" font-size="10.00">nlohmann::json_pointer</text>
<text xml:space="preserve" text-anchor="middle" x="214.5" y="-633.5" font-family="Helvetica,sans-Serif" font-size="10.00">::pop_back</text>
</a>
</g>
</g>
<!-- Node1&#45;&gt;Node29 -->
<g id="edge48" class="edge">
<title>Node1&#45;&gt;Node29</title>
<path fill="none" stroke="#63b8ff" d="M61.44,-479.02C72.3,-510.13 100.31,-579.07 146.5,-618 147.59,-618.92 148.73,-619.81 149.89,-620.67"/>
<polygon fill="#63b8ff" stroke="#63b8ff" points="147.74,-623.45 158.06,-625.85 151.49,-617.54 147.74,-623.45"/>
</g>
<!-- Node30 -->
<g id="node30" class="node">
<title>Node30</title>
<g id="a_node30"><a xlink:href="a01659.html#ab9e0253c92736db021840105d374c4c4" target="_top" xlink:title="add an object to an array">
<polygon fill="white" stroke="#666666" points="269.75,-407 159.25,-407 159.25,-375 269.75,-375 269.75,-407"/>
<text xml:space="preserve" text-anchor="start" x="167.25" y="-393.5" font-family="Helvetica,sans-Serif" font-size="10.00">nlohmann::basic_json</text>
<text xml:space="preserve" text-anchor="middle" x="214.5" y="-381.5" font-family="Helvetica,sans-Serif" font-size="10.00">::push_back</text>
</a>
</g>
</g>
<!-- Node1&#45;&gt;Node30 -->
<g id="edge51" class="edge">
<title>Node1&#45;&gt;Node30</title>
<path fill="none" stroke="#63b8ff" d="M85.47,-446.62C102.93,-437.13 125.68,-425.26 146.5,-416 149.79,-414.54 153.19,-413.08 156.64,-411.66"/>
<polygon fill="#63b8ff" stroke="#63b8ff" points="157.68,-415.01 165.66,-408.04 155.08,-408.52 157.68,-415.01"/>
</g>
<!-- Node32 -->
<g id="node32" class="node">
<title>Node32</title>
<g id="a_node32"><a xlink:href="a01659.html#a33c7c8638bb0b12e6d1b69d8106dd2e0" target="_top" xlink:title="returns the number of elements">
<polygon fill="white" stroke="#666666" points="269.75,-109 159.25,-109 159.25,-77 269.75,-77 269.75,-109"/>
<text xml:space="preserve" text-anchor="start" x="167.25" y="-95.5" font-family="Helvetica,sans-Serif" font-size="10.00">nlohmann::basic_json</text>
<text xml:space="preserve" text-anchor="middle" x="214.5" y="-83.5" font-family="Helvetica,sans-Serif" font-size="10.00">::size</text>
</a>
</g>
</g>
<!-- Node1&#45;&gt;Node32 -->
<g id="edge57" class="edge">
<title>Node1&#45;&gt;Node32</title>
<path fill="none" stroke="#63b8ff" d="M55.9,-446.59C55.66,-393.26 61.84,-222.57 146.5,-123 148.74,-120.37 151.26,-117.95 153.97,-115.75"/>
<polygon fill="#63b8ff" stroke="#63b8ff" points="155.71,-118.8 161.94,-110.23 151.72,-113.04 155.71,-118.8"/>
</g>
<!-- Node33 -->
<g id="node33" class="node">
<title>Node33</title>
<g id="a_node33"><a xlink:href="a01663.html#a00eff109d9a0091e42ada9b16b90c8d9" target="_top" xlink:title=" ">
<polygon fill="white" stroke="#666666" points="282.5,-609 146.5,-609 146.5,-589 282.5,-589 282.5,-609"/>
<text xml:space="preserve" text-anchor="middle" x="214.5" y="-595.5" font-family="Helvetica,sans-Serif" font-size="10.00">nlohmann::json_pointer::top</text>
</a>
</g>
</g>
<!-- Node1&#45;&gt;Node33 -->
<g id="edge58" class="edge">
<title>Node1&#45;&gt;Node33</title>
<path fill="none" stroke="#63b8ff" d="M65.47,-479.46C79.8,-503.66 109.67,-548.8 146.5,-575 151.47,-578.54 157.02,-581.6 162.73,-584.24"/>
<polygon fill="#63b8ff" stroke="#63b8ff" points="161.14,-587.37 171.71,-587.98 163.82,-580.91 161.14,-587.37"/>
</g>
<!-- Node2&#45;&gt;Node3 -->
<g id="edge2" class="edge">
<title>Node2&#45;&gt;Node3</title>
<path fill="none" stroke="#63b8ff" d="M272.89,-781C286.19,-781 300.49,-781 314.24,-781"/>
<polygon fill="#63b8ff" stroke="#63b8ff" points="314.12,-784.5 324.12,-781 314.12,-777.5 314.12,-784.5"/>
</g>
<!-- Node2&#45;&gt;Node6 -->
<g id="edge5" class="edge">
<title>Node2&#45;&gt;Node6</title>
<path fill="none" stroke="#63b8ff" d="M254.1,-764.56C263.49,-760.34 273.43,-755.66 282.5,-751 304.57,-739.66 328.58,-725.72 347.67,-714.24"/>
<polygon fill="#63b8ff" stroke="#63b8ff" points="349.41,-717.28 356.15,-709.1 345.78,-711.29 349.41,-717.28"/>
</g>
<!-- Node4 -->
<g id="node4" class="node">
<title>Node4</title>
<g id="a_node4"><a xlink:href="a01559.html#abf41a7e9178356314082284e6cfea278" target="_top" xlink:title=" ">
<polygon fill="white" stroke="#666666" points="622,-508 486.75,-508 486.75,-476 622,-476 622,-508"/>
<text xml:space="preserve" text-anchor="start" x="494.75" y="-494.5" font-family="Helvetica,sans-Serif" font-size="10.00">nlohmann::detail::exception</text>
<text xml:space="preserve" text-anchor="middle" x="554.38" y="-482.5" font-family="Helvetica,sans-Serif" font-size="10.00">::name</text>
</a>
</g>
</g>
<!-- Node3&#45;&gt;Node4 -->
<g id="edge3" class="edge">
<title>Node3&#45;&gt;Node4</title>
<path fill="none" stroke="#63b8ff" d="M405.78,-764.68C419.73,-752.61 438.02,-735.18 450.75,-717 496.42,-651.79 529.77,-563 544.69,-519"/>
<polygon fill="#63b8ff" stroke="#63b8ff" points="547.93,-520.36 547.77,-509.76 541.29,-518.15 547.93,-520.36"/>
</g>
<!-- Node5 -->
<g id="node5" class="node">
<title>Node5</title>
<g id="a_node5"><a xlink:href="a01563.html#aefe74adeaa48781464ba2fd2ec63d221" target="_top" xlink:title=" ">
<polygon fill="white" stroke="#666666" points="613,-797 495.75,-797 495.75,-765 613,-765 613,-797"/>
<text xml:space="preserve" text-anchor="start" x="503.75" y="-783.5" font-family="Helvetica,sans-Serif" font-size="10.00">nlohmann::detail::parse</text>
<text xml:space="preserve" text-anchor="middle" x="554.38" y="-771.5" font-family="Helvetica,sans-Serif" font-size="10.00">_error::position_string</text>
</a>
</g>
</g>
<!-- Node3&#45;&gt;Node5 -->
<g id="edge4" class="edge">
<title>Node3&#45;&gt;Node5</title>
<path fill="none" stroke="#63b8ff" d="M443.36,-781C456.46,-781 470.51,-781 484.04,-781"/>
<polygon fill="#63b8ff" stroke="#63b8ff" points="483.74,-784.5 493.74,-781 483.74,-777.5 483.74,-784.5"/>
</g>
<!-- Node6&#45;&gt;Node4 -->
<g id="edge6" class="edge">
<title>Node6&#45;&gt;Node4</title>
<path fill="none" stroke="#63b8ff" d="M438.26,-675.51C442.72,-673.04 446.96,-670.21 450.75,-667 498.7,-626.32 529.68,-557.27 544.04,-519.2"/>
<polygon fill="#63b8ff" stroke="#63b8ff" points="547.31,-520.47 547.45,-509.87 540.73,-518.07 547.31,-520.47"/>
</g>
<!-- Node7&#45;&gt;Node6 -->
<g id="edge10" class="edge">
<title>Node7&#45;&gt;Node6</title>
<path fill="none" stroke="#63b8ff" d="M223.95,-495.32C237.52,-512.25 264.49,-547.29 282.5,-580 302.68,-616.66 288.53,-637.79 318.5,-667 319.52,-668 320.59,-668.96 321.7,-669.88"/>
<polygon fill="#63b8ff" stroke="#63b8ff" points="319.37,-672.53 329.58,-675.37 323.38,-666.78 319.37,-672.53"/>
</g>
<!-- Node8 -->
<g id="node8" class="node">
<title>Node8</title>
<g id="a_node8"><a xlink:href="a01571.html#aecc083aea4b698c33d042670ba50c10f" target="_top" xlink:title=" ">
<polygon fill="white" stroke="#666666" points="440.62,-508 328.62,-508 328.62,-476 440.62,-476 440.62,-508"/>
<text xml:space="preserve" text-anchor="start" x="336.62" y="-494.5" font-family="Helvetica,sans-Serif" font-size="10.00">nlohmann::detail::type</text>
<text xml:space="preserve" text-anchor="middle" x="384.62" y="-482.5" font-family="Helvetica,sans-Serif" font-size="10.00">_error::create</text>
</a>
</g>
</g>
<!-- Node7&#45;&gt;Node8 -->
<g id="edge8" class="edge">
<title>Node7&#45;&gt;Node8</title>
<path fill="none" stroke="#63b8ff" d="M277.15,-487.57C290.12,-488.11 303.87,-488.68 317.01,-489.23"/>
<polygon fill="#63b8ff" stroke="#63b8ff" points="316.73,-492.72 326.87,-489.64 317.02,-485.72 316.73,-492.72"/>
</g>
<!-- Node7&#45;&gt;Node9 -->
<g id="edge11" class="edge">
<title>Node7&#45;&gt;Node9</title>
<path fill="none" stroke="#63b8ff" d="M258.16,-495.43C266.79,-498.82 275.39,-503.25 282.5,-509 306.1,-528.07 295.12,-547.67 318.5,-567 319.6,-567.91 320.74,-568.79 321.91,-569.64"/>
<polygon fill="#63b8ff" stroke="#63b8ff" points="319.79,-572.44 330.12,-574.79 323.51,-566.51 319.79,-572.44"/>
</g>
<!-- Node10 -->
<g id="node10" class="node">
<title>Node10</title>
<g id="a_node10"><a xlink:href="a01659.html#ab8811fc4eab6091b32b34b3ac3e90474" target="_top" xlink:title="return the type as string">
<polygon fill="white" stroke="#666666" points="439.88,-458 329.38,-458 329.38,-426 439.88,-426 439.88,-458"/>
<text xml:space="preserve" text-anchor="start" x="337.38" y="-444.5" font-family="Helvetica,sans-Serif" font-size="10.00">nlohmann::basic_json</text>
<text xml:space="preserve" text-anchor="middle" x="384.62" y="-432.5" font-family="Helvetica,sans-Serif" font-size="10.00">::type_name</text>
</a>
</g>
</g>
<!-- Node7&#45;&gt;Node10 -->
<g id="edge12" class="edge">
<title>Node7&#45;&gt;Node10</title>
<path fill="none" stroke="#63b8ff" d="M256.2,-474.59C274.73,-469.85 297.14,-464.12 317.96,-458.79"/>
<polygon fill="#63b8ff" stroke="#63b8ff" points="318.72,-462.21 327.54,-456.34 316.99,-455.43 318.72,-462.21"/>
</g>
<!-- Node8&#45;&gt;Node4 -->
<g id="edge9" class="edge">
<title>Node8&#45;&gt;Node4</title>
<path fill="none" stroke="#63b8ff" d="M441.02,-492C451.9,-492 463.5,-492 474.97,-492"/>
<polygon fill="#63b8ff" stroke="#63b8ff" points="474.85,-495.5 484.85,-492 474.85,-488.5 474.85,-495.5"/>
</g>
<!-- Node11&#45;&gt;Node6 -->
<g id="edge14" class="edge">
<title>Node11&#45;&gt;Node6</title>
<path fill="none" stroke="#63b8ff" d="M272.89,-692.66C287.9,-692.57 304.17,-692.47 319.51,-692.38"/>
<polygon fill="#63b8ff" stroke="#63b8ff" points="319.52,-695.88 329.5,-692.32 319.48,-688.88 319.52,-695.88"/>
</g>
<!-- Node11&#45;&gt;Node12 -->
<g id="edge15" class="edge">
<title>Node11&#45;&gt;Node12</title>
<path fill="none" stroke="#63b8ff" d="M269.62,-676.58C285.14,-671.87 302.23,-666.69 318.35,-661.8"/>
<polygon fill="#63b8ff" stroke="#63b8ff" points="319.32,-665.17 327.87,-658.91 317.28,-658.47 319.32,-665.17"/>
</g>
<!-- Node14 -->
<g id="node14" class="node">
<title>Node14</title>
<g id="a_node14"><a xlink:href="a02011.html#a5d5f92c7f6848814bc82cf7e4e541820" target="_top" xlink:title="set the iterator to the first value">
<polygon fill="white" stroke="#666666" points="438,-32 331.25,-32 331.25,0 438,0 438,-32"/>
<text xml:space="preserve" text-anchor="start" x="339.25" y="-18.5" font-family="Helvetica,sans-Serif" font-size="10.00">nlohmann::detail::iter</text>
<text xml:space="preserve" text-anchor="middle" x="384.62" y="-6.5" font-family="Helvetica,sans-Serif" font-size="10.00">_impl::set_begin</text>
</a>
</g>
</g>
<!-- Node13&#45;&gt;Node14 -->
<g id="edge17" class="edge">
<title>Node13&#45;&gt;Node14</title>
<path fill="none" stroke="#63b8ff" d="M270.09,-18.03C285.98,-17.74 303.48,-17.43 319.88,-17.14"/>
<polygon fill="#63b8ff" stroke="#63b8ff" points="319.58,-20.64 329.52,-16.97 319.46,-13.64 319.58,-20.64"/>
</g>
<!-- Node15 -->
<g id="node15" class="node">
<title>Node15</title>
<g id="a_node15"><a xlink:href="a02003.html#a9d9b005906106e12aed738f97d7fee42" target="_top" xlink:title="set iterator to a defined beginning">
<polygon fill="white" stroke="#666666" points="619.38,-76 489.38,-76 489.38,-44 619.38,-44 619.38,-76"/>
<text xml:space="preserve" text-anchor="start" x="497.38" y="-62.5" font-family="Helvetica,sans-Serif" font-size="10.00">nlohmann::detail::primitive</text>
<text xml:space="preserve" text-anchor="middle" x="554.38" y="-50.5" font-family="Helvetica,sans-Serif" font-size="10.00">_iterator_t::set_begin</text>
</a>
</g>
</g>
<!-- Node14&#45;&gt;Node15 -->
<g id="edge18" class="edge">
<title>Node14&#45;&gt;Node15</title>
<path fill="none" stroke="#63b8ff" d="M438.24,-29.8C451.36,-33.24 465.66,-36.99 479.59,-40.65"/>
<polygon fill="#63b8ff" stroke="#63b8ff" points="478.63,-44.01 489.19,-43.16 480.41,-37.24 478.63,-44.01"/>
</g>
<!-- Node16 -->
<g id="node16" class="node">
<title>Node16</title>
<g id="a_node16"><a xlink:href="a02003.html#ad26a823483846a12d890c3feed3097eb" target="_top" xlink:title="set iterator to a defined past the end">
<polygon fill="white" stroke="#666666" points="788,-79 658,-79 658,-47 788,-47 788,-79"/>
<text xml:space="preserve" text-anchor="start" x="666" y="-65.5" font-family="Helvetica,sans-Serif" font-size="10.00">nlohmann::detail::primitive</text>
<text xml:space="preserve" text-anchor="middle" x="723" y="-53.5" font-family="Helvetica,sans-Serif" font-size="10.00">_iterator_t::set_end</text>
</a>
</g>
</g>
<!-- Node14&#45;&gt;Node16 -->
<g id="edge19" class="edge">
<title>Node14&#45;&gt;Node16</title>
<path fill="none" stroke="#63b8ff" d="M438.1,-17.32C486.25,-19.22 559.38,-23.82 622,-35 634.35,-37.2 647.38,-40.28 659.81,-43.59"/>
<polygon fill="#63b8ff" stroke="#63b8ff" points="658.51,-46.86 669.08,-46.14 660.37,-40.11 658.51,-46.86"/>
</g>
<!-- Node17&#45;&gt;Node4 -->
<g id="edge23" class="edge">
<title>Node17&#45;&gt;Node4</title>
<path fill="none" stroke="#63b8ff" d="M256.5,-270.59C265.92,-265.39 275.28,-258.89 282.5,-251 309.93,-221.04 284.59,-189.36 318.5,-167 367.57,-134.64 403.34,-132.25 450.75,-167 500.04,-203.12 536.6,-392.53 548.88,-464.35"/>
<polygon fill="#63b8ff" stroke="#63b8ff" points="545.41,-464.81 550.52,-474.09 552.32,-463.65 545.41,-464.81"/>
</g>
<!-- Node19 -->
<g id="node19" class="node">
<title>Node19</title>
<g id="a_node19"><a xlink:href="a02011.html#a23e50ad4c13aa62d9ac7f60a123823ee" target="_top" xlink:title="set the iterator past the last value">
<polygon fill="white" stroke="#666666" points="607.75,-126 501,-126 501,-94 607.75,-94 607.75,-126"/>
<text xml:space="preserve" text-anchor="start" x="509" y="-112.5" font-family="Helvetica,sans-Serif" font-size="10.00">nlohmann::detail::iter</text>
<text xml:space="preserve" text-anchor="middle" x="554.38" y="-100.5" font-family="Helvetica,sans-Serif" font-size="10.00">_impl::set_end</text>
</a>
</g>
</g>
<!-- Node18&#45;&gt;Node19 -->
<g id="edge26" class="edge">
<title>Node18&#45;&gt;Node19</title>
<path fill="none" stroke="#63b8ff" d="M450.96,-110C463.57,-110 476.77,-110 489.33,-110"/>
<polygon fill="#63b8ff" stroke="#63b8ff" points="489.15,-113.5 499.15,-110 489.15,-106.5 489.15,-113.5"/>
</g>
<!-- Node19&#45;&gt;Node16 -->
<g id="edge27" class="edge">
<title>Node19&#45;&gt;Node16</title>
<path fill="none" stroke="#63b8ff" d="M608.1,-95.13C622.29,-91.13 637.86,-86.73 652.8,-82.52"/>
<polygon fill="#63b8ff" stroke="#63b8ff" points="653.42,-85.98 662.09,-79.9 651.52,-79.25 653.42,-85.98"/>
</g>
<!-- Node20&#45;&gt;Node8 -->
<g id="edge32" class="edge">
<title>Node20&#45;&gt;Node8</title>
<path fill="none" stroke="#63b8ff" d="M270.02,-356.25C274.59,-359.02 278.85,-362.24 282.5,-366 315.73,-400.16 285.21,-432.9 318.5,-467 319.1,-467.62 319.72,-468.22 320.36,-468.81"/>
<polygon fill="#63b8ff" stroke="#63b8ff" points="318.09,-471.48 328.17,-474.74 322.32,-465.9 318.09,-471.48"/>
</g>
<!-- Node20&#45;&gt;Node10 -->
<g id="edge36" class="edge">
<title>Node20&#45;&gt;Node10</title>
<path fill="none" stroke="#63b8ff" d="M267.31,-356.47C272.7,-359.23 277.88,-362.39 282.5,-366 304.36,-383.08 296.6,-399.96 318.5,-417 319.66,-417.9 320.85,-418.77 322.07,-419.61"/>
<polygon fill="#63b8ff" stroke="#63b8ff" points="320.26,-422.6 330.63,-424.74 323.85,-416.6 320.26,-422.6"/>
</g>
<!-- Node20&#45;&gt;Node18 -->
<g id="edge33" class="edge">
<title>Node20&#45;&gt;Node18</title>
<path fill="none" stroke="#63b8ff" d="M268.51,-323.68C273.74,-320.45 278.56,-316.59 282.5,-312 325.74,-261.61 283.93,-223.69 318.5,-167 328.26,-151 343.97,-137.06 357.51,-126.97"/>
<polygon fill="#63b8ff" stroke="#63b8ff" points="359.51,-129.85 365.64,-121.21 355.46,-124.14 359.51,-129.85"/>
</g>
<!-- Node21 -->
<g id="node21" class="node">
<title>Node21</title>
<g id="a_node21"><a xlink:href="a01659.html#aa7e7b1bdb6e9dbcfa5e284e8a2fb6464" target="_top" xlink:title="checks the class invariants">
<polygon fill="white" stroke="#666666" points="439.88,-308 329.38,-308 329.38,-276 439.88,-276 439.88,-308"/>
<text xml:space="preserve" text-anchor="start" x="337.38" y="-294.5" font-family="Helvetica,sans-Serif" font-size="10.00">nlohmann::basic_json</text>
<text xml:space="preserve" text-anchor="middle" x="384.62" y="-282.5" font-family="Helvetica,sans-Serif" font-size="10.00">::assert_invariant</text>
</a>
</g>
</g>
<!-- Node20&#45;&gt;Node21 -->
<g id="edge29" class="edge">
<title>Node20&#45;&gt;Node21</title>
<path fill="none" stroke="#63b8ff" d="M270.09,-324.42C285.43,-320.03 302.28,-315.22 318.19,-310.68"/>
<polygon fill="#63b8ff" stroke="#63b8ff" points="318.92,-314.11 327.57,-308 316.99,-307.38 318.92,-314.11"/>
</g>
<!-- Node22 -->
<g id="node22" class="node">
<title>Node22</title>
<g id="a_node22"><a xlink:href="a01567.html#a4e849260a3caa1b288c7e619130c6c09" target="_top" xlink:title=" ">
<polygon fill="white" stroke="#666666" points="445.12,-358 324.12,-358 324.12,-326 445.12,-326 445.12,-358"/>
<text xml:space="preserve" text-anchor="start" x="332.12" y="-344.5" font-family="Helvetica,sans-Serif" font-size="10.00">nlohmann::detail::invalid</text>
<text xml:space="preserve" text-anchor="middle" x="384.62" y="-332.5" font-family="Helvetica,sans-Serif" font-size="10.00">_iterator::create</text>
</a>
</g>
</g>
<!-- Node20&#45;&gt;Node22 -->
<g id="edge30" class="edge">
<title>Node20&#45;&gt;Node22</title>
<path fill="none" stroke="#63b8ff" d="M270.09,-340.65C283.63,-340.81 298.34,-340.99 312.54,-341.15"/>
<polygon fill="#63b8ff" stroke="#63b8ff" points="312.24,-344.65 322.28,-341.27 312.32,-337.65 312.24,-344.65"/>
</g>
<!-- Node23 -->
<g id="node23" class="node">
<title>Node23</title>
<g id="a_node23"><a xlink:href="a01659.html#a9576224f7b3ff812a308e7c1e784ea80" target="_top" xlink:title="return whether value is a binary array">
<polygon fill="white" stroke="#666666" points="439.88,-258 329.38,-258 329.38,-226 439.88,-226 439.88,-258"/>
<text xml:space="preserve" text-anchor="start" x="337.38" y="-244.5" font-family="Helvetica,sans-Serif" font-size="10.00">nlohmann::basic_json</text>
<text xml:space="preserve" text-anchor="middle" x="384.62" y="-232.5" font-family="Helvetica,sans-Serif" font-size="10.00">::is_binary</text>
</a>
</g>
</g>
<!-- Node20&#45;&gt;Node23 -->
<g id="edge34" class="edge">
<title>Node20&#45;&gt;Node23</title>
<path fill="none" stroke="#63b8ff" d="M263.26,-323.56C270.03,-320.25 276.66,-316.4 282.5,-312 302.95,-296.58 297.82,-282.12 318.5,-267 320.01,-265.89 321.58,-264.83 323.19,-263.81"/>
<polygon fill="#63b8ff" stroke="#63b8ff" points="324.48,-267.1 331.48,-259.14 321.05,-261 324.48,-267.1"/>
</g>
<!-- Node24 -->
<g id="node24" class="node">
<title>Node24</title>
<g id="a_node24"><a xlink:href="a01659.html#ab303d17366c26fca12242c7f8def1bb7" target="_top" xlink:title="return whether value is a string">
<polygon fill="white" stroke="#666666" points="439.88,-208 329.38,-208 329.38,-176 439.88,-176 439.88,-208"/>
<text xml:space="preserve" text-anchor="start" x="337.38" y="-194.5" font-family="Helvetica,sans-Serif" font-size="10.00">nlohmann::basic_json</text>
<text xml:space="preserve" text-anchor="middle" x="384.62" y="-182.5" font-family="Helvetica,sans-Serif" font-size="10.00">::is_string</text>
</a>
</g>
</g>
<!-- Node20&#45;&gt;Node24 -->
<g id="edge35" class="edge">
<title>Node20&#45;&gt;Node24</title>
<path fill="none" stroke="#63b8ff" d="M267.32,-323.59C272.89,-320.36 278.12,-316.53 282.5,-312 313.89,-279.54 286.64,-249 318.5,-217 319.11,-216.39 319.73,-215.79 320.37,-215.21"/>
<polygon fill="#63b8ff" stroke="#63b8ff" points="322.33,-218.12 328.23,-209.32 318.13,-212.52 322.33,-218.12"/>
</g>
<!-- Node22&#45;&gt;Node4 -->
<g id="edge31" class="edge">
<title>Node22&#45;&gt;Node4</title>
<path fill="none" stroke="#63b8ff" d="M436.41,-358.46C441.45,-360.97 446.33,-363.81 450.75,-367 488.27,-394.07 520,-438.07 537.86,-466"/>
<polygon fill="#63b8ff" stroke="#63b8ff" points="534.72,-467.59 542.99,-474.22 540.66,-463.88 534.72,-467.59"/>
</g>
<!-- Node25&#45;&gt;Node18 -->
<g id="edge38" class="edge">
<title>Node25&#45;&gt;Node18</title>
<path fill="none" stroke="#63b8ff" d="M252.42,-164.63C262.22,-160.24 272.77,-155.47 282.5,-151 298.58,-143.61 302.18,-140.84 318.5,-134 326.29,-130.73 334.7,-127.45 342.81,-124.42"/>
<polygon fill="#63b8ff" stroke="#63b8ff" points="343.99,-127.71 352.16,-120.97 341.57,-121.14 343.99,-127.71"/>
</g>
<!-- Node25&#45;&gt;Node26 -->
<g id="edge39" class="edge">
<title>Node25&#45;&gt;Node26</title>
<path fill="none" stroke="#63b8ff" d="M262.08,-164.64C269.39,-160.85 276.49,-156.33 282.5,-151 305.76,-130.36 294.68,-111 318.5,-91 319.6,-90.08 320.73,-89.19 321.89,-88.33"/>
<polygon fill="#63b8ff" stroke="#63b8ff" points="323.5,-91.46 330.07,-83.16 319.75,-85.55 323.5,-91.46"/>
</g>
<!-- Node27&#45;&gt;Node8 -->
<g id="edge42" class="edge">
<title>Node27&#45;&gt;Node8</title>
<path fill="none" stroke="#63b8ff" d="M269.62,-457.42C285.14,-462.13 302.23,-467.31 318.35,-472.2"/>
<polygon fill="#63b8ff" stroke="#63b8ff" points="317.28,-475.53 327.87,-475.09 319.32,-468.83 317.28,-475.53"/>
</g>
<!-- Node27&#45;&gt;Node9 -->
<g id="edge44" class="edge">
<title>Node27&#45;&gt;Node9</title>
<path fill="none" stroke="#63b8ff" d="M270.01,-456.42C274.58,-459.12 278.84,-462.29 282.5,-466 315.95,-499.94 285.21,-532.9 318.5,-567 319.1,-567.62 319.72,-568.22 320.36,-568.81"/>
<polygon fill="#63b8ff" stroke="#63b8ff" points="318.09,-571.48 328.17,-574.74 322.32,-565.9 318.09,-571.48"/>
</g>
<!-- Node27&#45;&gt;Node10 -->
<g id="edge45" class="edge">
<title>Node27&#45;&gt;Node10</title>
<path fill="none" stroke="#63b8ff" d="M270.09,-441.32C285.28,-441.42 301.96,-441.51 317.73,-441.61"/>
<polygon fill="#63b8ff" stroke="#63b8ff" points="317.49,-445.11 327.51,-441.67 317.53,-438.11 317.49,-445.11"/>
</g>
<!-- Node27&#45;&gt;Node22 -->
<g id="edge41" class="edge">
<title>Node27&#45;&gt;Node22</title>
<path fill="none" stroke="#63b8ff" d="M268.62,-424.56C273.52,-422.06 278.24,-419.22 282.5,-416 304.06,-399.71 297.02,-383.39 318.5,-367 319.82,-365.99 321.19,-365.02 322.6,-364.08"/>
<polygon fill="#63b8ff" stroke="#63b8ff" points="324.16,-367.22 331.02,-359.15 320.62,-361.18 324.16,-367.22"/>
</g>
<!-- Node28 -->
<g id="node28" class="node">
<title>Node28</title>
<g id="a_node28"><a xlink:href="a01659.html#ab5c8034e997c5b852b92bdc6a3f70994" target="_top" xlink:title="Helper for insertion of an iterator.">
<polygon fill="white" stroke="#666666" points="439.88,-558 329.38,-558 329.38,-526 439.88,-526 439.88,-558"/>
<text xml:space="preserve" text-anchor="start" x="337.38" y="-544.5" font-family="Helvetica,sans-Serif" font-size="10.00">nlohmann::basic_json</text>
<text xml:space="preserve" text-anchor="middle" x="384.62" y="-532.5" font-family="Helvetica,sans-Serif" font-size="10.00">::insert_iterator</text>
</a>
</g>
</g>
<!-- Node27&#45;&gt;Node28 -->
<g id="edge43" class="edge">
<title>Node27&#45;&gt;Node28</title>
<path fill="none" stroke="#63b8ff" d="M268.68,-457.35C273.57,-459.87 278.27,-462.74 282.5,-466 304.48,-482.94 296.6,-499.96 318.5,-517 319.66,-517.9 320.85,-518.77 322.07,-519.61"/>
<polygon fill="#63b8ff" stroke="#63b8ff" points="320.26,-522.6 330.63,-524.74 323.85,-516.6 320.26,-522.6"/>
</g>
<!-- Node29&#45;&gt;Node6 -->
<g id="edge49" class="edge">
<title>Node29&#45;&gt;Node6</title>
<path fill="none" stroke="#63b8ff" d="M271.95,-659.45C287.45,-663.97 304.36,-668.9 320.23,-673.52"/>
<polygon fill="#63b8ff" stroke="#63b8ff" points="318.98,-676.8 329.56,-676.24 320.94,-670.08 318.98,-676.8"/>
</g>
<!-- Node29&#45;&gt;Node12 -->
<g id="edge50" class="edge">
<title>Node29&#45;&gt;Node12</title>
<path fill="none" stroke="#63b8ff" d="M272.89,-642.66C286.27,-642.58 300.65,-642.49 314.47,-642.41"/>
<polygon fill="#63b8ff" stroke="#63b8ff" points="314.43,-645.91 324.41,-642.35 314.39,-638.91 314.43,-645.91"/>
</g>
<!-- Node30&#45;&gt;Node8 -->
<g id="edge53" class="edge">
<title>Node30&#45;&gt;Node8</title>
<path fill="none" stroke="#63b8ff" d="M268.68,-407.35C273.57,-409.87 278.27,-412.74 282.5,-416 304.48,-432.94 296.6,-449.96 318.5,-467 319.66,-467.9 320.85,-468.77 322.07,-469.61"/>
<polygon fill="#63b8ff" stroke="#63b8ff" points="320.26,-472.6 330.63,-474.74 323.85,-466.6 320.26,-472.6"/>
</g>
<!-- Node30&#45;&gt;Node9 -->
<g id="edge54" class="edge">
<title>Node30&#45;&gt;Node9</title>
<path fill="none" stroke="#63b8ff" d="M270.12,-405.81C274.73,-408.64 278.96,-412 282.5,-416 328.19,-467.69 273.05,-515.09 318.5,-567 319.07,-567.65 319.66,-568.28 320.26,-568.9"/>
<polygon fill="#63b8ff" stroke="#63b8ff" points="317.84,-571.44 327.8,-575.06 322.28,-566.02 317.84,-571.44"/>
</g>
<!-- Node30&#45;&gt;Node10 -->
<g id="edge56" class="edge">
<title>Node30&#45;&gt;Node10</title>
<path fill="none" stroke="#63b8ff" d="M269.62,-407.42C285.14,-412.13 302.23,-417.31 318.35,-422.2"/>
<polygon fill="#63b8ff" stroke="#63b8ff" points="317.28,-425.53 327.87,-425.09 319.32,-418.83 317.28,-425.53"/>
</g>
<!-- Node30&#45;&gt;Node21 -->
<g id="edge52" class="edge">
<title>Node30&#45;&gt;Node21</title>
<path fill="none" stroke="#63b8ff" d="M266.87,-374.57C272.39,-371.79 277.73,-368.62 282.5,-365 303.75,-348.89 297.22,-333.07 318.5,-317 319.83,-316 321.2,-315.03 322.61,-314.1"/>
<polygon fill="#63b8ff" stroke="#63b8ff" points="324.16,-317.24 331.05,-309.19 320.65,-311.19 324.16,-317.24"/>
</g>
<!-- Node31 -->
<g id="node31" class="node">
<title>Node31</title>
<g id="a_node31"><a xlink:href="a01659.html#aedc7afad96292b5ab61a2e0ad3067f5f" target="_top" xlink:title="return whether value is null">
<polygon fill="white" stroke="#666666" points="439.88,-408 329.38,-408 329.38,-376 439.88,-376 439.88,-408"/>
<text xml:space="preserve" text-anchor="start" x="337.38" y="-394.5" font-family="Helvetica,sans-Serif" font-size="10.00">nlohmann::basic_json</text>
<text xml:space="preserve" text-anchor="middle" x="384.62" y="-382.5" font-family="Helvetica,sans-Serif" font-size="10.00">::is_null</text>
</a>
</g>
</g>
<!-- Node30&#45;&gt;Node31 -->
<g id="edge55" class="edge">
<title>Node30&#45;&gt;Node31</title>
<path fill="none" stroke="#63b8ff" d="M270.09,-391.32C285.28,-391.42 301.96,-391.51 317.73,-391.61"/>
<polygon fill="#63b8ff" stroke="#63b8ff" points="317.49,-395.11 327.51,-391.67 317.53,-388.11 317.49,-395.11"/>
</g>
<!-- Node33&#45;&gt;Node6 -->
<g id="edge59" class="edge">
<title>Node33&#45;&gt;Node6</title>
<path fill="none" stroke="#63b8ff" d="M266.18,-609.41C271.95,-611.73 277.53,-614.55 282.5,-618 304.7,-633.41 297.02,-650.61 318.5,-667 319.82,-668.01 321.19,-668.98 322.6,-669.92"/>
<polygon fill="#63b8ff" stroke="#63b8ff" points="320.62,-672.82 331.02,-674.85 324.16,-666.78 320.62,-672.82"/>
</g>
<!-- Node33&#45;&gt;Node12 -->
<g id="edge60" class="edge">
<title>Node33&#45;&gt;Node12</title>
<path fill="none" stroke="#63b8ff" d="M256.2,-609.41C273.91,-613.94 295.16,-619.37 315.18,-624.49"/>
<polygon fill="#63b8ff" stroke="#63b8ff" points="314.13,-627.84 324.68,-626.92 315.86,-621.06 314.13,-627.84"/>
</g>
</g>
</svg>
