<?xml version="1.0" encoding="UTF-8" standalone="no"?>
<!DOCTYPE svg PUBLIC "-//W3C//DTD SVG 1.1//EN"
 "http://www.w3.org/Graphics/SVG/1.1/DTD/svg11.dtd">
<!-- Generated by graphviz version 13.1.2 (20250808.2320)
 -->
<!-- Title: nlohmann::basic_json::emplace Pages: 1 -->
<svg width="604pt" height="290pt"
 viewBox="0.00 0.00 604.00 290.00" xmlns="http://www.w3.org/2000/svg" xmlns:xlink="http://www.w3.org/1999/xlink">
<g id="graph0" class="graph" transform="scale(1 1) rotate(0) translate(4 286)">
<title>nlohmann::basic_json::emplace</title>
<!-- Node1 -->
<g id="node1" class="node">
<title>Node1</title>
<g id="a_node1"><a xlink:title="add an object to an object if key does not exist">
<polygon fill="#999999" stroke="#666666" points="110.5,-157 0,-157 0,-125 110.5,-125 110.5,-157"/>
<text xml:space="preserve" text-anchor="start" x="8" y="-143.5" font-family="Helvetica,sans-Serif" font-size="10.00">nlohmann::basic_json</text>
<text xml:space="preserve" text-anchor="middle" x="55.25" y="-131.5" font-family="Helvetica,sans-Serif" font-size="10.00">::emplace</text>
</a>
</g>
</g>
<!-- Node2 -->
<g id="node2" class="node">
<title>Node2</title>
<g id="a_node2"><a xlink:href="a01659.html#aa7e7b1bdb6e9dbcfa5e284e8a2fb6464" target="_top" xlink:title="checks the class invariants">
<polygon fill="white" stroke="#666666" points="257.75,-282 147.25,-282 147.25,-250 257.75,-250 257.75,-282"/>
<text xml:space="preserve" text-anchor="start" x="155.25" y="-268.5" font-family="Helvetica,sans-Serif" font-size="10.00">nlohmann::basic_json</text>
<text xml:space="preserve" text-anchor="middle" x="202.5" y="-256.5" font-family="Helvetica,sans-Serif" font-size="10.00">::assert_invariant</text>
</a>
</g>
</g>
<!-- Node1&#45;&gt;Node2 -->
<g id="edge1" class="edge">
<title>Node1&#45;&gt;Node2</title>
<path fill="none" stroke="#63b8ff" d="M67.72,-157.44C83.42,-178.98 113.47,-216.84 146.5,-241 147.82,-241.97 149.19,-242.91 150.59,-243.83"/>
<polygon fill="#63b8ff" stroke="#63b8ff" points="148.5,-246.66 158.89,-248.73 152.06,-240.63 148.5,-246.66"/>
</g>
<!-- Node3 -->
<g id="node3" class="node">
<title>Node3</title>
<g id="a_node3"><a xlink:href="a01659.html#a23b495b4c282e4afacf382f5b49af7c7" target="_top" xlink:title="returns an iterator to the first element">
<polygon fill="white" stroke="#666666" points="257.75,-232 147.25,-232 147.25,-200 257.75,-200 257.75,-232"/>
<text xml:space="preserve" text-anchor="start" x="155.25" y="-218.5" font-family="Helvetica,sans-Serif" font-size="10.00">nlohmann::basic_json</text>
<text xml:space="preserve" text-anchor="middle" x="202.5" y="-206.5" font-family="Helvetica,sans-Serif" font-size="10.00">::begin</text>
</a>
</g>
</g>
<!-- Node1&#45;&gt;Node3 -->
<g id="edge2" class="edge">
<title>Node1&#45;&gt;Node3</title>
<path fill="none" stroke="#63b8ff" d="M84.39,-157.35C102.05,-167.41 125.38,-180.37 146.5,-191 149,-192.26 151.58,-193.53 154.19,-194.79"/>
<polygon fill="#63b8ff" stroke="#63b8ff" points="152.42,-197.83 162.96,-198.94 155.42,-191.5 152.42,-197.83"/>
</g>
<!-- Node7 -->
<g id="node7" class="node">
<title>Node7</title>
<g id="a_node7"><a xlink:href="a01571.html#aecc083aea4b698c33d042670ba50c10f" target="_top" xlink:title=" ">
<polygon fill="white" stroke="#666666" points="258.5,-182 146.5,-182 146.5,-150 258.5,-150 258.5,-182"/>
<text xml:space="preserve" text-anchor="start" x="154.5" y="-168.5" font-family="Helvetica,sans-Serif" font-size="10.00">nlohmann::detail::type</text>
<text xml:space="preserve" text-anchor="middle" x="202.5" y="-156.5" font-family="Helvetica,sans-Serif" font-size="10.00">_error::create</text>
</a>
</g>
</g>
<!-- Node1&#45;&gt;Node7 -->
<g id="edge6" class="edge">
<title>Node1&#45;&gt;Node7</title>
<path fill="none" stroke="#63b8ff" d="M110.75,-150.38C118.63,-151.74 126.81,-153.14 134.89,-154.54"/>
<polygon fill="#63b8ff" stroke="#63b8ff" points="134.27,-157.98 144.72,-156.23 135.46,-151.08 134.27,-157.98"/>
</g>
<!-- Node9 -->
<g id="node9" class="node">
<title>Node9</title>
<g id="a_node9"><a xlink:href="a01659.html#aedc7afad96292b5ab61a2e0ad3067f5f" target="_top" xlink:title="return whether value is null">
<polygon fill="white" stroke="#666666" points="257.75,-132 147.25,-132 147.25,-100 257.75,-100 257.75,-132"/>
<text xml:space="preserve" text-anchor="start" x="155.25" y="-118.5" font-family="Helvetica,sans-Serif" font-size="10.00">nlohmann::basic_json</text>
<text xml:space="preserve" text-anchor="middle" x="202.5" y="-106.5" font-family="Helvetica,sans-Serif" font-size="10.00">::is_null</text>
</a>
</g>
</g>
<!-- Node1&#45;&gt;Node9 -->
<g id="edge8" class="edge">
<title>Node1&#45;&gt;Node9</title>
<path fill="none" stroke="#63b8ff" d="M110.75,-131.62C118.94,-130.21 127.46,-128.74 135.85,-127.3"/>
<polygon fill="#63b8ff" stroke="#63b8ff" points="136.43,-130.75 145.69,-125.61 135.24,-123.85 136.43,-130.75"/>
</g>
<!-- Node10 -->
<g id="node10" class="node">
<title>Node10</title>
<g id="a_node10"><a xlink:href="a01659.html#a57e8411a770a6263d6d8f2116c37f3aa" target="_top" xlink:title="return whether value is an object">
<polygon fill="white" stroke="#666666" points="257.75,-82 147.25,-82 147.25,-50 257.75,-50 257.75,-82"/>
<text xml:space="preserve" text-anchor="start" x="155.25" y="-68.5" font-family="Helvetica,sans-Serif" font-size="10.00">nlohmann::basic_json</text>
<text xml:space="preserve" text-anchor="middle" x="202.5" y="-56.5" font-family="Helvetica,sans-Serif" font-size="10.00">::is_object</text>
</a>
</g>
</g>
<!-- Node1&#45;&gt;Node10 -->
<g id="edge9" class="edge">
<title>Node1&#45;&gt;Node10</title>
<path fill="none" stroke="#63b8ff" d="M84.39,-124.65C102.05,-114.59 125.38,-101.63 146.5,-91 149,-89.74 151.58,-88.47 154.19,-87.21"/>
<polygon fill="#63b8ff" stroke="#63b8ff" points="155.42,-90.5 162.96,-83.06 152.42,-84.17 155.42,-90.5"/>
</g>
<!-- Node11 -->
<g id="node11" class="node">
<title>Node11</title>
<g id="a_node11"><a xlink:href="a01659.html#ab8811fc4eab6091b32b34b3ac3e90474" target="_top" xlink:title="return the type as string">
<polygon fill="white" stroke="#666666" points="257.75,-32 147.25,-32 147.25,0 257.75,0 257.75,-32"/>
<text xml:space="preserve" text-anchor="start" x="155.25" y="-18.5" font-family="Helvetica,sans-Serif" font-size="10.00">nlohmann::basic_json</text>
<text xml:space="preserve" text-anchor="middle" x="202.5" y="-6.5" font-family="Helvetica,sans-Serif" font-size="10.00">::type_name</text>
</a>
</g>
</g>
<!-- Node1&#45;&gt;Node11 -->
<g id="edge10" class="edge">
<title>Node1&#45;&gt;Node11</title>
<path fill="none" stroke="#63b8ff" d="M67.72,-124.56C83.42,-103.02 113.47,-65.16 146.5,-41 147.82,-40.03 149.19,-39.09 150.59,-38.17"/>
<polygon fill="#63b8ff" stroke="#63b8ff" points="152.06,-41.37 158.89,-33.27 148.5,-35.34 152.06,-41.37"/>
</g>
<!-- Node4 -->
<g id="node4" class="node">
<title>Node4</title>
<g id="a_node4"><a xlink:href="a02011.html#a5d5f92c7f6848814bc82cf7e4e541820" target="_top" xlink:title="set the iterator to the first value">
<polygon fill="white" stroke="#666666" points="415.5,-232 308.75,-232 308.75,-200 415.5,-200 415.5,-232"/>
<text xml:space="preserve" text-anchor="start" x="316.75" y="-218.5" font-family="Helvetica,sans-Serif" font-size="10.00">nlohmann::detail::iter</text>
<text xml:space="preserve" text-anchor="middle" x="362.12" y="-206.5" font-family="Helvetica,sans-Serif" font-size="10.00">_impl::set_begin</text>
</a>
</g>
</g>
<!-- Node3&#45;&gt;Node4 -->
<g id="edge3" class="edge">
<title>Node3&#45;&gt;Node4</title>
<path fill="none" stroke="#63b8ff" d="M258.19,-216C270.77,-216 284.27,-216 297.2,-216"/>
<polygon fill="#63b8ff" stroke="#63b8ff" points="296.88,-219.5 306.88,-216 296.88,-212.5 296.88,-219.5"/>
</g>
<!-- Node5 -->
<g id="node5" class="node">
<title>Node5</title>
<g id="a_node5"><a xlink:href="a02003.html#a9d9b005906106e12aed738f97d7fee42" target="_top" xlink:title="set iterator to a defined beginning">
<polygon fill="white" stroke="#666666" points="595.75,-257 465.75,-257 465.75,-225 595.75,-225 595.75,-257"/>
<text xml:space="preserve" text-anchor="start" x="473.75" y="-243.5" font-family="Helvetica,sans-Serif" font-size="10.00">nlohmann::detail::primitive</text>
<text xml:space="preserve" text-anchor="middle" x="530.75" y="-231.5" font-family="Helvetica,sans-Serif" font-size="10.00">_iterator_t::set_begin</text>
</a>
</g>
</g>
<!-- Node4&#45;&gt;Node5 -->
<g id="edge4" class="edge">
<title>Node4&#45;&gt;Node5</title>
<path fill="none" stroke="#63b8ff" d="M415.85,-223.91C428.01,-225.74 441.19,-227.71 454.12,-229.65"/>
<polygon fill="#63b8ff" stroke="#63b8ff" points="453.48,-233.1 463.89,-231.12 454.52,-226.17 453.48,-233.1"/>
</g>
<!-- Node6 -->
<g id="node6" class="node">
<title>Node6</title>
<g id="a_node6"><a xlink:href="a02003.html#ad26a823483846a12d890c3feed3097eb" target="_top" xlink:title="set iterator to a defined past the end">
<polygon fill="white" stroke="#666666" points="595.75,-207 465.75,-207 465.75,-175 595.75,-175 595.75,-207"/>
<text xml:space="preserve" text-anchor="start" x="473.75" y="-193.5" font-family="Helvetica,sans-Serif" font-size="10.00">nlohmann::detail::primitive</text>
<text xml:space="preserve" text-anchor="middle" x="530.75" y="-181.5" font-family="Helvetica,sans-Serif" font-size="10.00">_iterator_t::set_end</text>
</a>
</g>
</g>
<!-- Node4&#45;&gt;Node6 -->
<g id="edge5" class="edge">
<title>Node4&#45;&gt;Node6</title>
<path fill="none" stroke="#63b8ff" d="M415.85,-208.09C428.01,-206.26 441.19,-204.29 454.12,-202.35"/>
<polygon fill="#63b8ff" stroke="#63b8ff" points="454.52,-205.83 463.89,-200.88 453.48,-198.9 454.52,-205.83"/>
</g>
<!-- Node8 -->
<g id="node8" class="node">
<title>Node8</title>
<g id="a_node8"><a xlink:href="a01559.html#abf41a7e9178356314082284e6cfea278" target="_top" xlink:title=" ">
<polygon fill="white" stroke="#666666" points="429.75,-182 294.5,-182 294.5,-150 429.75,-150 429.75,-182"/>
<text xml:space="preserve" text-anchor="start" x="302.5" y="-168.5" font-family="Helvetica,sans-Serif" font-size="10.00">nlohmann::detail::exception</text>
<text xml:space="preserve" text-anchor="middle" x="362.12" y="-156.5" font-family="Helvetica,sans-Serif" font-size="10.00">::name</text>
</a>
</g>
</g>
<!-- Node7&#45;&gt;Node8 -->
<g id="edge7" class="edge">
<title>Node7&#45;&gt;Node8</title>
<path fill="none" stroke="#63b8ff" d="M258.63,-166C266.41,-166 274.54,-166 282.66,-166"/>
<polygon fill="#63b8ff" stroke="#63b8ff" points="282.58,-169.5 292.58,-166 282.58,-162.5 282.58,-169.5"/>
</g>
</g>
</svg>
