<?xml version="1.0" encoding="UTF-8" standalone="no"?>
<!DOCTYPE svg PUBLIC "-//W3C//DTD SVG 1.1//EN"
 "http://www.w3.org/Graphics/SVG/1.1/DTD/svg11.dtd">
<!-- Generated by graphviz version 13.1.2 (20250808.2320)
 -->
<!-- Title: nlohmann::json_pointer::get_and_create Pages: 1 -->
<svg width="602pt" height="134pt"
 viewBox="0.00 0.00 602.00 134.00" xmlns="http://www.w3.org/2000/svg" xmlns:xlink="http://www.w3.org/1999/xlink">
<g id="graph0" class="graph" transform="scale(1 1) rotate(0) translate(4 130)">
<title>nlohmann::json_pointer::get_and_create</title>
<!-- Node1 -->
<g id="node1" class="node">
<title>Node1</title>
<g id="a_node1"><a xlink:title="create and return a reference to the pointed to value">
<polygon fill="#999999" stroke="#666666" points="116.5,-57 0,-57 0,-25 116.5,-25 116.5,-57"/>
<text xml:space="preserve" text-anchor="start" x="8" y="-43.5" font-family="Helvetica,sans-Serif" font-size="10.00">nlohmann::json_pointer</text>
<text xml:space="preserve" text-anchor="middle" x="58.25" y="-31.5" font-family="Helvetica,sans-Serif" font-size="10.00">::get_and_create</text>
</a>
</g>
</g>
<!-- Node2 -->
<g id="node2" class="node">
<title>Node2</title>
<g id="a_node2"><a xlink:href="a01663.html#ae28e4b79b9d4fac9e6dca29f47f946fa" target="_top" xlink:title=" ">
<polygon fill="white" stroke="#666666" points="269,-82 152.5,-82 152.5,-50 269,-50 269,-82"/>
<text xml:space="preserve" text-anchor="start" x="160.5" y="-68.5" font-family="Helvetica,sans-Serif" font-size="10.00">nlohmann::json_pointer</text>
<text xml:space="preserve" text-anchor="middle" x="210.75" y="-56.5" font-family="Helvetica,sans-Serif" font-size="10.00">::array_index</text>
</a>
</g>
</g>
<!-- Node1&#45;&gt;Node2 -->
<g id="edge1" class="edge">
<title>Node1&#45;&gt;Node2</title>
<path fill="none" stroke="#63b8ff" d="M116.58,-50.52C124.48,-51.84 132.67,-53.2 140.75,-54.54"/>
<polygon fill="#63b8ff" stroke="#63b8ff" points="140.15,-57.99 150.59,-56.17 141.3,-51.08 140.15,-57.99"/>
</g>
<!-- Node7 -->
<g id="node7" class="node">
<title>Node7</title>
<g id="a_node7"><a xlink:href="a01571.html#aecc083aea4b698c33d042670ba50c10f" target="_top" xlink:title=" ">
<polygon fill="white" stroke="#666666" points="266.75,-32 154.75,-32 154.75,0 266.75,0 266.75,-32"/>
<text xml:space="preserve" text-anchor="start" x="162.75" y="-18.5" font-family="Helvetica,sans-Serif" font-size="10.00">nlohmann::detail::type</text>
<text xml:space="preserve" text-anchor="middle" x="210.75" y="-6.5" font-family="Helvetica,sans-Serif" font-size="10.00">_error::create</text>
</a>
</g>
</g>
<!-- Node1&#45;&gt;Node7 -->
<g id="edge7" class="edge">
<title>Node1&#45;&gt;Node7</title>
<path fill="none" stroke="#63b8ff" d="M116.58,-31.48C125.34,-30.02 134.44,-28.51 143.38,-27.03"/>
<polygon fill="#63b8ff" stroke="#63b8ff" points="143.78,-30.51 153.08,-25.41 142.64,-23.6 143.78,-30.51"/>
</g>
<!-- Node3 -->
<g id="node3" class="node">
<title>Node3</title>
<g id="a_node3"><a xlink:href="a01563.html#a137ea4d27de45d8a844fd13451d40f3d" target="_top" xlink:title="create a parse error exception">
<polygon fill="white" stroke="#666666" points="422.25,-126 305,-126 305,-94 422.25,-94 422.25,-126"/>
<text xml:space="preserve" text-anchor="start" x="313" y="-112.5" font-family="Helvetica,sans-Serif" font-size="10.00">nlohmann::detail::parse</text>
<text xml:space="preserve" text-anchor="middle" x="363.62" y="-100.5" font-family="Helvetica,sans-Serif" font-size="10.00">_error::create</text>
</a>
</g>
</g>
<!-- Node2&#45;&gt;Node3 -->
<g id="edge2" class="edge">
<title>Node2&#45;&gt;Node3</title>
<path fill="none" stroke="#63b8ff" d="M267.93,-82.38C276.81,-84.97 286.06,-87.67 295.16,-90.33"/>
<polygon fill="#63b8ff" stroke="#63b8ff" points="294.11,-93.67 304.69,-93.11 296.07,-86.95 294.11,-93.67"/>
</g>
<!-- Node6 -->
<g id="node6" class="node">
<title>Node6</title>
<g id="a_node6"><a xlink:href="a01575.html#a3f6d82a6f967c4728a1ec735a7867073" target="_top" xlink:title=" ">
<polygon fill="white" stroke="#666666" points="417,-76 310.25,-76 310.25,-44 417,-44 417,-76"/>
<text xml:space="preserve" text-anchor="start" x="318.25" y="-62.5" font-family="Helvetica,sans-Serif" font-size="10.00">nlohmann::detail::out</text>
<text xml:space="preserve" text-anchor="middle" x="363.62" y="-50.5" font-family="Helvetica,sans-Serif" font-size="10.00">_of_range::create</text>
</a>
</g>
</g>
<!-- Node2&#45;&gt;Node6 -->
<g id="edge5" class="edge">
<title>Node2&#45;&gt;Node6</title>
<path fill="none" stroke="#63b8ff" d="M269.22,-63.71C278.8,-63.33 288.78,-62.94 298.51,-62.55"/>
<polygon fill="#63b8ff" stroke="#63b8ff" points="298.41,-66.06 308.26,-62.16 298.13,-59.06 298.41,-66.06"/>
</g>
<!-- Node4 -->
<g id="node4" class="node">
<title>Node4</title>
<g id="a_node4"><a xlink:href="a01559.html#abf41a7e9178356314082284e6cfea278" target="_top" xlink:title=" ">
<polygon fill="white" stroke="#666666" points="593.5,-76 458.25,-76 458.25,-44 593.5,-44 593.5,-76"/>
<text xml:space="preserve" text-anchor="start" x="466.25" y="-62.5" font-family="Helvetica,sans-Serif" font-size="10.00">nlohmann::detail::exception</text>
<text xml:space="preserve" text-anchor="middle" x="525.88" y="-50.5" font-family="Helvetica,sans-Serif" font-size="10.00">::name</text>
</a>
</g>
</g>
<!-- Node3&#45;&gt;Node4 -->
<g id="edge3" class="edge">
<title>Node3&#45;&gt;Node4</title>
<path fill="none" stroke="#63b8ff" d="M417.1,-93.63C431.14,-89.25 446.47,-84.46 461.04,-79.92"/>
<polygon fill="#63b8ff" stroke="#63b8ff" points="462.06,-83.26 470.57,-76.95 459.98,-76.58 462.06,-83.26"/>
</g>
<!-- Node5 -->
<g id="node5" class="node">
<title>Node5</title>
<g id="a_node5"><a xlink:href="a01563.html#aefe74adeaa48781464ba2fd2ec63d221" target="_top" xlink:title=" ">
<polygon fill="white" stroke="#666666" points="584.5,-126 467.25,-126 467.25,-94 584.5,-94 584.5,-126"/>
<text xml:space="preserve" text-anchor="start" x="475.25" y="-112.5" font-family="Helvetica,sans-Serif" font-size="10.00">nlohmann::detail::parse</text>
<text xml:space="preserve" text-anchor="middle" x="525.88" y="-100.5" font-family="Helvetica,sans-Serif" font-size="10.00">_error::position_string</text>
</a>
</g>
</g>
<!-- Node3&#45;&gt;Node5 -->
<g id="edge4" class="edge">
<title>Node3&#45;&gt;Node5</title>
<path fill="none" stroke="#63b8ff" d="M422.48,-110C433.19,-110 444.48,-110 455.5,-110"/>
<polygon fill="#63b8ff" stroke="#63b8ff" points="455.32,-113.5 465.32,-110 455.32,-106.5 455.32,-113.5"/>
</g>
<!-- Node6&#45;&gt;Node4 -->
<g id="edge6" class="edge">
<title>Node6&#45;&gt;Node4</title>
<path fill="none" stroke="#63b8ff" d="M417.1,-60C426.58,-60 436.65,-60 446.69,-60"/>
<polygon fill="#63b8ff" stroke="#63b8ff" points="446.45,-63.5 456.45,-60 446.45,-56.5 446.45,-63.5"/>
</g>
<!-- Node7&#45;&gt;Node4 -->
<g id="edge8" class="edge">
<title>Node7&#45;&gt;Node4</title>
<path fill="none" stroke="#63b8ff" d="M266.99,-18.73C309.62,-21.38 369.94,-26.32 422.25,-35 432.21,-36.65 442.64,-38.75 452.87,-41.03"/>
<polygon fill="#63b8ff" stroke="#63b8ff" points="451.86,-44.39 462.39,-43.22 453.42,-37.57 451.86,-44.39"/>
</g>
</g>
</svg>
