<?xml version="1.0" encoding="UTF-8" standalone="no"?>
<!DOCTYPE svg PUBLIC "-//W3C//DTD SVG 1.1//EN"
 "http://www.w3.org/Graphics/SVG/1.1/DTD/svg11.dtd">
<!-- Generated by graphviz version 13.1.2 (20250808.2320)
 -->
<!-- Title: nlohmann::json_pointer::get_checked Pages: 1 -->
<svg width="285pt" height="78pt"
 viewBox="0.00 0.00 285.00 78.00" xmlns="http://www.w3.org/2000/svg" xmlns:xlink="http://www.w3.org/1999/xlink">
<g id="graph0" class="graph" transform="scale(1 1) rotate(0) translate(4 74)">
<title>nlohmann::json_pointer::get_checked</title>
<!-- Node1 -->
<g id="node1" class="node">
<title>Node1</title>
<g id="a_node1"><a xlink:title=" ">
<polygon fill="#999999" stroke="#666666" points="277.25,-54 160.75,-54 160.75,-22 277.25,-22 277.25,-54"/>
<text xml:space="preserve" text-anchor="start" x="168.75" y="-40.5" font-family="Helvetica,sans-Serif" font-size="10.00">nlohmann::json_pointer</text>
<text xml:space="preserve" text-anchor="middle" x="219" y="-28.5" font-family="Helvetica,sans-Serif" font-size="10.00">::get_checked</text>
</a>
</g>
</g>
<!-- Node2 -->
<g id="node2" class="node">
<title>Node2</title>
<g id="a_node2"><a xlink:href="a01659.html#aa014a978f8b6c085db8825faa8dad320" target="_top" xlink:title="access specified element via JSON Pointer">
<polygon fill="white" stroke="#666666" points="124.75,-70 0,-70 0,-50 124.75,-50 124.75,-70"/>
<text xml:space="preserve" text-anchor="middle" x="62.38" y="-56.5" font-family="Helvetica,sans-Serif" font-size="10.00">nlohmann::basic_json::at</text>
</a>
</g>
</g>
<!-- Node1&#45;&gt;Node2 -->
<g id="edge1" class="edge">
<title>Node1&#45;&gt;Node2</title>
<path fill="none" stroke="#63b8ff" d="M149.21,-47.79C141.2,-48.93 133.06,-50.09 125.15,-51.21"/>
<polygon fill="#63b8ff" stroke="#63b8ff" points="149.52,-51.28 158.92,-46.41 148.53,-44.35 149.52,-51.28"/>
</g>
<!-- Node3 -->
<g id="node3" class="node">
<title>Node3</title>
<g id="a_node3"><a xlink:href="a01659.html#a36bd6765ccd8aeeeb4e49a766ba639df" target="_top" xlink:title="access specified object element via JSON Pointer with default value">
<polygon fill="white" stroke="#666666" points="117.62,-32 7.12,-32 7.12,0 117.62,0 117.62,-32"/>
<text xml:space="preserve" text-anchor="start" x="15.12" y="-18.5" font-family="Helvetica,sans-Serif" font-size="10.00">nlohmann::basic_json</text>
<text xml:space="preserve" text-anchor="middle" x="62.38" y="-6.5" font-family="Helvetica,sans-Serif" font-size="10.00">::value</text>
</a>
</g>
</g>
<!-- Node1&#45;&gt;Node3 -->
<g id="edge2" class="edge">
<title>Node1&#45;&gt;Node3</title>
<path fill="none" stroke="#63b8ff" d="M149.18,-28.21C138.71,-26.72 128.03,-25.2 117.92,-23.76"/>
<polygon fill="#63b8ff" stroke="#63b8ff" points="148.53,-31.65 158.92,-29.59 149.52,-24.72 148.53,-31.65"/>
</g>
</g>
</svg>
