<?xml version="1.0" encoding="UTF-8" standalone="no"?>
<!DOCTYPE svg PUBLIC "-//W3C//DTD SVG 1.1//EN"
 "http://www.w3.org/Graphics/SVG/1.1/DTD/svg11.dtd">
<!-- Generated by graphviz version 13.1.2 (20250808.2320)
 -->
<!-- Title: nlohmann::basic_json::type_name Pages: 1 -->
<svg width="436pt" height="611pt"
 viewBox="0.00 0.00 436.00 611.00" xmlns="http://www.w3.org/2000/svg" xmlns:xlink="http://www.w3.org/1999/xlink">
<g id="graph0" class="graph" transform="scale(1 1) rotate(0) translate(4 607)">
<title>nlohmann::basic_json::type_name</title>
<!-- Node1 -->
<g id="node1" class="node">
<title>Node1</title>
<g id="a_node1"><a xlink:title="return the type as string">
<polygon fill="#999999" stroke="#666666" points="428.25,-332 317.75,-332 317.75,-300 428.25,-300 428.25,-332"/>
<text xml:space="preserve" text-anchor="start" x="325.75" y="-318.5" font-family="Helvetica,sans-Serif" font-size="10.00">nlohmann::basic_json</text>
<text xml:space="preserve" text-anchor="middle" x="373" y="-306.5" font-family="Helvetica,sans-Serif" font-size="10.00">::type_name</text>
</a>
</g>
</g>
<!-- Node2 -->
<g id="node2" class="node">
<title>Node2</title>
<g id="a_node2"><a xlink:href="a01659.html#a52b18a5b7e68652c65b070900c438c6e" target="_top" xlink:title="access specified array element with bounds checking">
<polygon fill="white" stroke="#666666" points="281.75,-495 157,-495 157,-475 281.75,-475 281.75,-495"/>
<text xml:space="preserve" text-anchor="middle" x="219.38" y="-481.5" font-family="Helvetica,sans-Serif" font-size="10.00">nlohmann::basic_json::at</text>
</a>
</g>
</g>
<!-- Node1&#45;&gt;Node2 -->
<g id="edge1" class="edge">
<title>Node1&#45;&gt;Node2</title>
<path fill="none" stroke="#63b8ff" d="M362.83,-342.62C349.92,-376.21 323.23,-433.49 281.75,-466 277.36,-469.44 272.34,-472.26 267.11,-474.57"/>
<polygon fill="#63b8ff" stroke="#63b8ff" points="365.97,-344.22 366.16,-333.63 359.4,-341.79 365.97,-344.22"/>
</g>
<!-- Node4 -->
<g id="node4" class="node">
<title>Node4</title>
<g id="a_node4"><a xlink:href="a01659.html#af244c096197a233edba4c83200ae66ac" target="_top" xlink:title="add an object to an object if key does not exist">
<polygon fill="white" stroke="#666666" points="274.62,-357 164.12,-357 164.12,-325 274.62,-325 274.62,-357"/>
<text xml:space="preserve" text-anchor="start" x="172.12" y="-343.5" font-family="Helvetica,sans-Serif" font-size="10.00">nlohmann::basic_json</text>
<text xml:space="preserve" text-anchor="middle" x="219.38" y="-331.5" font-family="Helvetica,sans-Serif" font-size="10.00">::emplace</text>
</a>
</g>
</g>
<!-- Node1&#45;&gt;Node4 -->
<g id="edge3" class="edge">
<title>Node1&#45;&gt;Node4</title>
<path fill="none" stroke="#63b8ff" d="M306.13,-326.86C295.76,-328.57 285.12,-330.32 275.03,-331.99"/>
<polygon fill="#63b8ff" stroke="#63b8ff" points="306.47,-330.35 315.77,-325.27 305.33,-323.45 306.47,-330.35"/>
</g>
<!-- Node5 -->
<g id="node5" class="node">
<title>Node5</title>
<g id="a_node5"><a xlink:href="a01659.html#a15c0a5db4fb12d49433801bbe6436bfb" target="_top" xlink:title="add an object to an array">
<polygon fill="white" stroke="#666666" points="274.62,-307 164.12,-307 164.12,-275 274.62,-275 274.62,-307"/>
<text xml:space="preserve" text-anchor="start" x="172.12" y="-293.5" font-family="Helvetica,sans-Serif" font-size="10.00">nlohmann::basic_json</text>
<text xml:space="preserve" text-anchor="middle" x="219.38" y="-281.5" font-family="Helvetica,sans-Serif" font-size="10.00">::emplace_back</text>
</a>
</g>
</g>
<!-- Node1&#45;&gt;Node5 -->
<g id="edge4" class="edge">
<title>Node1&#45;&gt;Node5</title>
<path fill="none" stroke="#63b8ff" d="M306.13,-305.14C295.76,-303.43 285.12,-301.68 275.03,-300.01"/>
<polygon fill="#63b8ff" stroke="#63b8ff" points="305.33,-308.55 315.77,-306.73 306.47,-301.65 305.33,-308.55"/>
</g>
<!-- Node6 -->
<g id="node6" class="node">
<title>Node6</title>
<g id="a_node6"><a xlink:href="a01659.html#a494632b69bbe1d0153d3bedad0901b8e" target="_top" xlink:title="remove element given an iterator">
<polygon fill="white" stroke="#666666" points="274.62,-545 164.12,-545 164.12,-513 274.62,-513 274.62,-545"/>
<text xml:space="preserve" text-anchor="start" x="172.12" y="-531.5" font-family="Helvetica,sans-Serif" font-size="10.00">nlohmann::basic_json</text>
<text xml:space="preserve" text-anchor="middle" x="219.38" y="-519.5" font-family="Helvetica,sans-Serif" font-size="10.00">::erase</text>
</a>
</g>
</g>
<!-- Node1&#45;&gt;Node6 -->
<g id="edge5" class="edge">
<title>Node1&#45;&gt;Node6</title>
<path fill="none" stroke="#63b8ff" d="M365.54,-343.57C354.75,-383.93 329.4,-459.16 281.75,-504 278.31,-507.23 274.41,-510.07 270.26,-512.56"/>
<polygon fill="#63b8ff" stroke="#63b8ff" points="368.92,-344.49 368,-333.93 362.14,-342.76 368.92,-344.49"/>
</g>
<!-- Node8 -->
<g id="node8" class="node">
<title>Node8</title>
<g id="a_node8"><a xlink:href="a01659.html#a23c2e02101cc62e1aec1d6ddaef0e340" target="_top" xlink:title=" ">
<polygon fill="white" stroke="#666666" points="274.62,-257 164.12,-257 164.12,-225 274.62,-225 274.62,-257"/>
<text xml:space="preserve" text-anchor="start" x="172.12" y="-243.5" font-family="Helvetica,sans-Serif" font-size="10.00">nlohmann::basic_json</text>
<text xml:space="preserve" text-anchor="middle" x="219.38" y="-231.5" font-family="Helvetica,sans-Serif" font-size="10.00">::get_binary</text>
</a>
</g>
</g>
<!-- Node1&#45;&gt;Node8 -->
<g id="edge9" class="edge">
<title>Node1&#45;&gt;Node8</title>
<path fill="none" stroke="#63b8ff" d="M334.82,-294.1C318.73,-284.96 299.55,-274.52 281.75,-266 275.63,-263.07 269.07,-260.16 262.59,-257.42"/>
<polygon fill="#63b8ff" stroke="#63b8ff" points="332.67,-296.9 343.09,-298.83 336.15,-290.82 332.67,-296.9"/>
</g>
<!-- Node9 -->
<g id="node9" class="node">
<title>Node9</title>
<g id="a_node9"><a xlink:href="a01659.html#a462f82051df2a68142c2bbd0a2798f56" target="_top" xlink:title="get a boolean (explicit)">
<polygon fill="white" stroke="#666666" points="274.62,-207 164.12,-207 164.12,-175 274.62,-175 274.62,-207"/>
<text xml:space="preserve" text-anchor="start" x="172.12" y="-193.5" font-family="Helvetica,sans-Serif" font-size="10.00">nlohmann::basic_json</text>
<text xml:space="preserve" text-anchor="middle" x="219.38" y="-181.5" font-family="Helvetica,sans-Serif" font-size="10.00">::get_impl</text>
</a>
</g>
</g>
<!-- Node1&#45;&gt;Node9 -->
<g id="edge10" class="edge">
<title>Node1&#45;&gt;Node9</title>
<path fill="none" stroke="#63b8ff" d="M354.25,-290.58C337.67,-268.38 311.1,-236.59 281.75,-216 277.23,-212.83 272.25,-209.97 267.13,-207.41"/>
<polygon fill="#63b8ff" stroke="#63b8ff" points="351.32,-292.5 360.05,-298.51 356.98,-288.37 351.32,-292.5"/>
</g>
<!-- Node10 -->
<g id="node10" class="node">
<title>Node10</title>
<g id="a_node10"><a xlink:href="a01659.html#aeb86e8478e20d95970a8b61ff01dce3b" target="_top" xlink:title="inserts element">
<polygon fill="white" stroke="#666666" points="274.62,-457 164.12,-457 164.12,-425 274.62,-425 274.62,-457"/>
<text xml:space="preserve" text-anchor="start" x="172.12" y="-443.5" font-family="Helvetica,sans-Serif" font-size="10.00">nlohmann::basic_json</text>
<text xml:space="preserve" text-anchor="middle" x="219.38" y="-431.5" font-family="Helvetica,sans-Serif" font-size="10.00">::insert</text>
</a>
</g>
</g>
<!-- Node1&#45;&gt;Node10 -->
<g id="edge11" class="edge">
<title>Node1&#45;&gt;Node10</title>
<path fill="none" stroke="#63b8ff" d="M354.25,-341.42C337.67,-363.62 311.1,-395.41 281.75,-416 277.23,-419.17 272.25,-422.03 267.13,-424.59"/>
<polygon fill="#63b8ff" stroke="#63b8ff" points="356.98,-343.63 360.05,-333.49 351.32,-339.5 356.98,-343.63"/>
</g>
<!-- Node13 -->
<g id="node13" class="node">
<title>Node13</title>
<g id="a_node13"><a xlink:href="a01659.html#a9ea67fc1ef0ccc42e1d5388fe0416ae5" target="_top" xlink:title="access specified array element">
<polygon fill="white" stroke="#666666" points="274.62,-595 164.12,-595 164.12,-563 274.62,-563 274.62,-595"/>
<text xml:space="preserve" text-anchor="start" x="172.12" y="-581.5" font-family="Helvetica,sans-Serif" font-size="10.00">nlohmann::basic_json</text>
<text xml:space="preserve" text-anchor="middle" x="219.38" y="-569.5" font-family="Helvetica,sans-Serif" font-size="10.00">::operator[]</text>
</a>
</g>
</g>
<!-- Node1&#45;&gt;Node13 -->
<g id="edge16" class="edge">
<title>Node1&#45;&gt;Node13</title>
<path fill="none" stroke="#63b8ff" d="M368.78,-343.39C361.68,-392.02 340.36,-493.94 281.75,-554 278.54,-557.29 274.83,-560.17 270.86,-562.67"/>
<polygon fill="#63b8ff" stroke="#63b8ff" points="372.21,-344.11 370.09,-333.73 365.28,-343.17 372.21,-344.11"/>
</g>
<!-- Node14 -->
<g id="node14" class="node">
<title>Node14</title>
<g id="a_node14"><a xlink:href="a01659.html#ab9e0253c92736db021840105d374c4c4" target="_top" xlink:title="add an object to an array">
<polygon fill="white" stroke="#666666" points="274.62,-407 164.12,-407 164.12,-375 274.62,-375 274.62,-407"/>
<text xml:space="preserve" text-anchor="start" x="172.12" y="-393.5" font-family="Helvetica,sans-Serif" font-size="10.00">nlohmann::basic_json</text>
<text xml:space="preserve" text-anchor="middle" x="219.38" y="-381.5" font-family="Helvetica,sans-Serif" font-size="10.00">::push_back</text>
</a>
</g>
</g>
<!-- Node1&#45;&gt;Node14 -->
<g id="edge18" class="edge">
<title>Node1&#45;&gt;Node14</title>
<path fill="none" stroke="#63b8ff" d="M334.82,-337.9C318.73,-347.04 299.55,-357.48 281.75,-366 275.63,-368.93 269.07,-371.84 262.59,-374.58"/>
<polygon fill="#63b8ff" stroke="#63b8ff" points="336.15,-341.18 343.09,-333.17 332.67,-335.1 336.15,-341.18"/>
</g>
<!-- Node17 -->
<g id="node17" class="node">
<title>Node17</title>
<g id="a_node17"><a xlink:href="a01659.html#a76126242de262f6d38cadda19e0d13e1" target="_top" xlink:title="exchanges the values">
<polygon fill="white" stroke="#666666" points="274.62,-157 164.12,-157 164.12,-125 274.62,-125 274.62,-157"/>
<text xml:space="preserve" text-anchor="start" x="172.12" y="-143.5" font-family="Helvetica,sans-Serif" font-size="10.00">nlohmann::basic_json</text>
<text xml:space="preserve" text-anchor="middle" x="219.38" y="-131.5" font-family="Helvetica,sans-Serif" font-size="10.00">::swap</text>
</a>
</g>
</g>
<!-- Node1&#45;&gt;Node17 -->
<g id="edge23" class="edge">
<title>Node1&#45;&gt;Node17</title>
<path fill="none" stroke="#63b8ff" d="M361.99,-288.98C348.47,-255.86 321.4,-199.94 281.75,-166 277.99,-162.78 273.76,-159.94 269.33,-157.44"/>
<polygon fill="#63b8ff" stroke="#63b8ff" points="358.73,-290.25 365.65,-298.27 365.24,-287.68 358.73,-290.25"/>
</g>
<!-- Node18 -->
<g id="node18" class="node">
<title>Node18</title>
<g id="a_node18"><a xlink:href="a01659.html#a377819905d567f6f523dcbc592cb6356" target="_top" xlink:title="updates a JSON object from another object, overwriting existing keys">
<polygon fill="white" stroke="#666666" points="274.62,-107 164.12,-107 164.12,-75 274.62,-75 274.62,-107"/>
<text xml:space="preserve" text-anchor="start" x="172.12" y="-93.5" font-family="Helvetica,sans-Serif" font-size="10.00">nlohmann::basic_json</text>
<text xml:space="preserve" text-anchor="middle" x="219.38" y="-81.5" font-family="Helvetica,sans-Serif" font-size="10.00">::update</text>
</a>
</g>
</g>
<!-- Node1&#45;&gt;Node18 -->
<g id="edge24" class="edge">
<title>Node1&#45;&gt;Node18</title>
<path fill="none" stroke="#63b8ff" d="M366.47,-288.52C356.59,-246.08 332.04,-164.46 281.75,-116 278.35,-112.73 274.47,-109.86 270.34,-107.36"/>
<polygon fill="#63b8ff" stroke="#63b8ff" points="363.02,-289.14 368.6,-298.15 369.86,-287.63 363.02,-289.14"/>
</g>
<!-- Node19 -->
<g id="node19" class="node">
<title>Node19</title>
<g id="a_node19"><a xlink:href="a01659.html#a11641b35219676b225d9bd15c7677659" target="_top" xlink:title="access specified object element with default value">
<polygon fill="white" stroke="#666666" points="274.62,-57 164.12,-57 164.12,-25 274.62,-25 274.62,-57"/>
<text xml:space="preserve" text-anchor="start" x="172.12" y="-43.5" font-family="Helvetica,sans-Serif" font-size="10.00">nlohmann::basic_json</text>
<text xml:space="preserve" text-anchor="middle" x="219.38" y="-31.5" font-family="Helvetica,sans-Serif" font-size="10.00">::value</text>
</a>
</g>
</g>
<!-- Node1&#45;&gt;Node19 -->
<g id="edge25" class="edge">
<title>Node1&#45;&gt;Node19</title>
<path fill="none" stroke="#63b8ff" d="M369.33,-288.31C363.04,-237.71 342.88,-129.64 281.75,-66 278.64,-62.76 275.06,-59.93 271.21,-57.46"/>
<polygon fill="#63b8ff" stroke="#63b8ff" points="365.84,-288.56 370.45,-298.1 372.79,-287.76 365.84,-288.56"/>
</g>
<!-- Node3 -->
<g id="node3" class="node">
<title>Node3</title>
<g id="a_node3"><a xlink:href="a01659.html#adcc786998f220a5b3083ee8a37c4553e" target="_top" xlink:title="applies a JSON patch">
<polygon fill="white" stroke="#666666" points="115.75,-525 5.25,-525 5.25,-493 115.75,-493 115.75,-525"/>
<text xml:space="preserve" text-anchor="start" x="13.25" y="-511.5" font-family="Helvetica,sans-Serif" font-size="10.00">nlohmann::basic_json</text>
<text xml:space="preserve" text-anchor="middle" x="60.5" y="-499.5" font-family="Helvetica,sans-Serif" font-size="10.00">::patch</text>
</a>
</g>
</g>
<!-- Node2&#45;&gt;Node3 -->
<g id="edge2" class="edge">
<title>Node2&#45;&gt;Node3</title>
<path fill="none" stroke="#63b8ff" d="M145.72,-496.12C135.81,-497.63 125.77,-499.17 116.25,-500.62"/>
<polygon fill="#63b8ff" stroke="#63b8ff" points="145.97,-499.62 155.33,-494.65 144.91,-492.7 145.97,-499.62"/>
</g>
<!-- Node6&#45;&gt;Node3 -->
<g id="edge8" class="edge">
<title>Node6&#45;&gt;Node3</title>
<path fill="none" stroke="#63b8ff" d="M152.87,-520.65C140.63,-519.09 127.96,-517.47 116.1,-515.96"/>
<polygon fill="#63b8ff" stroke="#63b8ff" points="152.08,-524.08 162.45,-521.87 152.97,-517.13 152.08,-524.08"/>
</g>
<!-- Node7 -->
<g id="node7" class="node">
<title>Node7</title>
<g id="a_node7"><a xlink:href="a01659.html#a844a77cb154752d12118f10af26d54cb" target="_top" xlink:title="applies a JSON Merge Patch">
<polygon fill="white" stroke="#666666" points="115.75,-585 5.25,-585 5.25,-553 115.75,-553 115.75,-585"/>
<text xml:space="preserve" text-anchor="start" x="13.25" y="-571.5" font-family="Helvetica,sans-Serif" font-size="10.00">nlohmann::basic_json</text>
<text xml:space="preserve" text-anchor="middle" x="60.5" y="-559.5" font-family="Helvetica,sans-Serif" font-size="10.00">::merge_patch</text>
</a>
</g>
</g>
<!-- Node6&#45;&gt;Node7 -->
<g id="edge6" class="edge">
<title>Node6&#45;&gt;Node7</title>
<path fill="none" stroke="#63b8ff" d="M152.87,-545.7C140.63,-548.82 127.96,-552.05 116.1,-555.08"/>
<polygon fill="#63b8ff" stroke="#63b8ff" points="153.66,-549.11 162.48,-543.25 151.93,-542.33 153.66,-549.11"/>
</g>
<!-- Node7&#45;&gt;Node7 -->
<g id="edge7" class="edge">
<title>Node7&#45;&gt;Node7</title>
<path fill="none" stroke="#63b8ff" d="M86.98,-596.71C82.56,-600.48 73.74,-603 60.5,-603 36.3,-603 26.84,-594.58 32.14,-585.44"/>
<polygon fill="#63b8ff" stroke="#63b8ff" points="90.41,-597.38 88.61,-586.94 83.51,-596.22 90.41,-597.38"/>
</g>
<!-- Node10&#45;&gt;Node3 -->
<g id="edge15" class="edge">
<title>Node10&#45;&gt;Node3</title>
<path fill="none" stroke="#63b8ff" d="M166.53,-461.79C163.3,-463.19 160.1,-464.6 157,-466 140.7,-473.38 137.25,-476.53 121,-484 114.79,-486.85 108.16,-489.77 101.66,-492.55"/>
<polygon fill="#63b8ff" stroke="#63b8ff" points="167.69,-465.1 175.53,-457.97 164.96,-458.65 167.69,-465.1"/>
</g>
<!-- Node11 -->
<g id="node11" class="node">
<title>Node11</title>
<g id="a_node11"><a xlink:href="a01659.html#a1c1f21327df91a4dd6c5f5a107240385" target="_top" xlink:title="creates a diff as a JSON patch">
<polygon fill="white" stroke="#666666" points="115.75,-407 5.25,-407 5.25,-375 115.75,-375 115.75,-407"/>
<text xml:space="preserve" text-anchor="start" x="13.25" y="-393.5" font-family="Helvetica,sans-Serif" font-size="10.00">nlohmann::basic_json</text>
<text xml:space="preserve" text-anchor="middle" x="60.5" y="-381.5" font-family="Helvetica,sans-Serif" font-size="10.00">::diff</text>
</a>
</g>
</g>
<!-- Node10&#45;&gt;Node11 -->
<g id="edge12" class="edge">
<title>Node10&#45;&gt;Node11</title>
<path fill="none" stroke="#63b8ff" d="M156.29,-421.21C142.03,-416.67 127.02,-411.88 113.25,-407.49"/>
<polygon fill="#63b8ff" stroke="#63b8ff" points="154.98,-424.47 165.57,-424.17 157.1,-417.8 154.98,-424.47"/>
</g>
<!-- Node12 -->
<g id="node12" class="node">
<title>Node12</title>
<g id="a_node12"><a xlink:href="a01659.html#a9c5b9de8a4a759861cb600b38a6c81b1" target="_top" xlink:title="inserts element">
<polygon fill="white" stroke="#666666" points="115.75,-475 5.25,-475 5.25,-443 115.75,-443 115.75,-475"/>
<text xml:space="preserve" text-anchor="start" x="13.25" y="-461.5" font-family="Helvetica,sans-Serif" font-size="10.00">nlohmann::basic_json</text>
<text xml:space="preserve" text-anchor="middle" x="60.5" y="-449.5" font-family="Helvetica,sans-Serif" font-size="10.00">::insert</text>
</a>
</g>
</g>
<!-- Node10&#45;&gt;Node12 -->
<g id="edge14" class="edge">
<title>Node10&#45;&gt;Node12</title>
<path fill="none" stroke="#63b8ff" d="M152.87,-448.52C140.63,-449.92 127.96,-451.37 116.1,-452.74"/>
<polygon fill="#63b8ff" stroke="#63b8ff" points="152.91,-452.03 162.44,-447.42 152.11,-445.08 152.91,-452.03"/>
</g>
<!-- Node11&#45;&gt;Node11 -->
<g id="edge13" class="edge">
<title>Node11&#45;&gt;Node11</title>
<path fill="none" stroke="#63b8ff" d="M86.98,-418.71C82.56,-422.48 73.74,-425 60.5,-425 36.3,-425 26.84,-416.58 32.14,-407.44"/>
<polygon fill="#63b8ff" stroke="#63b8ff" points="90.41,-419.38 88.61,-408.94 83.51,-418.22 90.41,-419.38"/>
</g>
<!-- Node13&#45;&gt;Node7 -->
<g id="edge17" class="edge">
<title>Node13&#45;&gt;Node7</title>
<path fill="none" stroke="#63b8ff" d="M152.49,-574.8C140.37,-574.03 127.84,-573.23 116.1,-572.48"/>
<polygon fill="#63b8ff" stroke="#63b8ff" points="152.24,-578.29 162.44,-575.43 152.68,-571.31 152.24,-578.29"/>
</g>
<!-- Node14&#45;&gt;Node3 -->
<g id="edge21" class="edge">
<title>Node14&#45;&gt;Node3</title>
<path fill="none" stroke="#63b8ff" d="M159.77,-413.64C158.82,-414.4 157.9,-415.19 157,-416 131.64,-438.94 146.23,-460.92 121,-484 117.44,-487.25 113.41,-490.12 109.14,-492.63"/>
<polygon fill="#63b8ff" stroke="#63b8ff" points="161.38,-416.78 167.68,-408.26 157.44,-411 161.38,-416.78"/>
</g>
<!-- Node14&#45;&gt;Node11 -->
<g id="edge19" class="edge">
<title>Node14&#45;&gt;Node11</title>
<path fill="none" stroke="#63b8ff" d="M152.49,-391C140.37,-391 127.84,-391 116.1,-391"/>
<polygon fill="#63b8ff" stroke="#63b8ff" points="152.43,-394.5 162.43,-391 152.43,-387.5 152.43,-394.5"/>
</g>
<!-- Node15 -->
<g id="node15" class="node">
<title>Node15</title>
<g id="a_node15"><a xlink:href="a01659.html#a40226d9c84fcb9cb948ae0c27b842c57" target="_top" xlink:title="add an object to an array">
<polygon fill="white" stroke="#666666" points="115.75,-357 5.25,-357 5.25,-325 115.75,-325 115.75,-357"/>
<text xml:space="preserve" text-anchor="start" x="13.25" y="-343.5" font-family="Helvetica,sans-Serif" font-size="10.00">nlohmann::basic_json</text>
<text xml:space="preserve" text-anchor="middle" x="60.5" y="-331.5" font-family="Helvetica,sans-Serif" font-size="10.00">::operator+=</text>
</a>
</g>
</g>
<!-- Node14&#45;&gt;Node15 -->
<g id="edge20" class="edge">
<title>Node14&#45;&gt;Node15</title>
<path fill="none" stroke="#63b8ff" d="M156.29,-371.21C142.03,-366.67 127.02,-361.88 113.25,-357.49"/>
<polygon fill="#63b8ff" stroke="#63b8ff" points="154.98,-374.47 165.57,-374.17 157.1,-367.8 154.98,-374.47"/>
</g>
<!-- Node16 -->
<g id="node16" class="node">
<title>Node16</title>
<g id="a_node16"><a xlink:href="a01659.html#a4567cf75f19b1efca090f75d7a8a350a" target="_top" xlink:title="add an object to an object">
<polygon fill="white" stroke="#666666" points="115.75,-307 5.25,-307 5.25,-275 115.75,-275 115.75,-307"/>
<text xml:space="preserve" text-anchor="start" x="13.25" y="-293.5" font-family="Helvetica,sans-Serif" font-size="10.00">nlohmann::basic_json</text>
<text xml:space="preserve" text-anchor="middle" x="60.5" y="-281.5" font-family="Helvetica,sans-Serif" font-size="10.00">::push_back</text>
</a>
</g>
</g>
<!-- Node14&#45;&gt;Node16 -->
<g id="edge22" class="edge">
<title>Node14&#45;&gt;Node16</title>
<path fill="none" stroke="#63b8ff" d="M160.54,-368.62C159.33,-367.77 158.14,-366.9 157,-366 135.48,-349.06 142.42,-333.05 121,-316 116.97,-312.79 112.46,-309.93 107.79,-307.39"/>
<polygon fill="#63b8ff" stroke="#63b8ff" points="158.66,-371.57 169.02,-373.78 162.3,-365.59 158.66,-371.57"/>
</g>
<!-- Node20 -->
<g id="node20" class="node">
<title>Node20</title>
<g id="a_node20"><a xlink:href="a02059.html#ad7f122fa9bfc5aa4d9b65a3059892146" target="_top" xlink:title="constructor for strings">
<polygon fill="white" stroke="#666666" points="121,-82 0,-82 0,-50 121,-50 121,-82"/>
<text xml:space="preserve" text-anchor="start" x="8" y="-68.5" font-family="Helvetica,sans-Serif" font-size="10.00">nlohmann::basic_json</text>
<text xml:space="preserve" text-anchor="middle" x="60.5" y="-56.5" font-family="Helvetica,sans-Serif" font-size="10.00">::json_value::json_value</text>
</a>
</g>
</g>
<!-- Node19&#45;&gt;Node20 -->
<g id="edge26" class="edge">
<title>Node19&#45;&gt;Node20</title>
<path fill="none" stroke="#63b8ff" d="M152.82,-51.45C142.43,-53.1 131.72,-54.81 121.46,-56.44"/>
<polygon fill="#63b8ff" stroke="#63b8ff" points="153.13,-54.94 162.45,-49.91 152.03,-48.03 153.13,-54.94"/>
</g>
<!-- Node21 -->
<g id="node21" class="node">
<title>Node21</title>
<g id="a_node21"><a xlink:href="a01659.html#adcfdefe95d5c2471a5c97e911d46ee88" target="_top" xlink:title="overload for a default value of type const char*">
<polygon fill="white" stroke="#666666" points="115.75,-32 5.25,-32 5.25,0 115.75,0 115.75,-32"/>
<text xml:space="preserve" text-anchor="start" x="13.25" y="-18.5" font-family="Helvetica,sans-Serif" font-size="10.00">nlohmann::basic_json</text>
<text xml:space="preserve" text-anchor="middle" x="60.5" y="-6.5" font-family="Helvetica,sans-Serif" font-size="10.00">::value</text>
</a>
</g>
</g>
<!-- Node19&#45;&gt;Node21 -->
<g id="edge27" class="edge">
<title>Node19&#45;&gt;Node21</title>
<path fill="none" stroke="#63b8ff" d="M152.87,-30.56C140.63,-28.61 127.96,-26.59 116.1,-24.7"/>
<polygon fill="#63b8ff" stroke="#63b8ff" points="152.03,-33.97 162.45,-32.09 153.13,-27.06 152.03,-33.97"/>
</g>
</g>
</svg>
