<?xml version="1.0" encoding="UTF-8" standalone="no"?>
<!DOCTYPE svg PUBLIC "-//W3C//DTD SVG 1.1//EN"
 "http://www.w3.org/Graphics/SVG/1.1/DTD/svg11.dtd">
<!-- Generated by graphviz version 13.1.2 (20250808.2320)
 -->
<!-- Title: nlohmann::basic_json::to_msgpack Pages: 1 -->
<svg width="804pt" height="156pt"
 viewBox="0.00 0.00 804.00 156.00" xmlns="http://www.w3.org/2000/svg" xmlns:xlink="http://www.w3.org/1999/xlink">
<g id="graph0" class="graph" transform="scale(1 1) rotate(0) translate(4 152.2)">
<title>nlohmann::basic_json::to_msgpack</title>
<!-- Node1 -->
<g id="node1" class="node">
<title>Node1</title>
<g id="a_node1"><a xlink:title=" ">
<polygon fill="#999999" stroke="#666666" points="110.5,-82 0,-82 0,-50 110.5,-50 110.5,-82"/>
<text xml:space="preserve" text-anchor="start" x="8" y="-68.5" font-family="Helvetica,sans-Serif" font-size="10.00">nlohmann::basic_json</text>
<text xml:space="preserve" text-anchor="middle" x="55.25" y="-56.5" font-family="Helvetica,sans-Serif" font-size="10.00">::to_msgpack</text>
</a>
</g>
</g>
<!-- Node2 -->
<g id="node2" class="node">
<title>Node2</title>
<g id="a_node2"><a xlink:href="a02039.html#ae4e0852b64102ce4b07d99f08f828b7c" target="_top" xlink:title=" ">
<polygon fill="white" stroke="#666666" points="266,-82 146.5,-82 146.5,-50 266,-50 266,-82"/>
<text xml:space="preserve" text-anchor="start" x="154.5" y="-68.5" font-family="Helvetica,sans-Serif" font-size="10.00">nlohmann::detail::binary</text>
<text xml:space="preserve" text-anchor="middle" x="206.25" y="-56.5" font-family="Helvetica,sans-Serif" font-size="10.00">_writer::write_msgpack</text>
</a>
</g>
</g>
<!-- Node1&#45;&gt;Node2 -->
<g id="edge1" class="edge">
<title>Node1&#45;&gt;Node2</title>
<path fill="none" stroke="#63b8ff" d="M110.89,-66C118.68,-66 126.78,-66 134.82,-66"/>
<polygon fill="#63b8ff" stroke="#63b8ff" points="134.59,-69.5 144.59,-66 134.59,-62.5 134.59,-69.5"/>
</g>
<!-- Node2&#45;&gt;Node2 -->
<g id="edge9" class="edge">
<title>Node2&#45;&gt;Node2</title>
<path fill="none" stroke="#63b8ff" d="M179.29,-82.44C174.26,-91.58 183.25,-100 206.25,-100 218.83,-100 227.22,-97.48 231.41,-93.71"/>
<polygon fill="#63b8ff" stroke="#63b8ff" points="234.85,-94.36 232.97,-83.94 227.94,-93.26 234.85,-94.36"/>
</g>
<!-- Node3 -->
<g id="node3" class="node">
<title>Node3</title>
<g id="a_node3"><a xlink:href="a02039.html#ab77aa48692bd4e64e4f051ce6aeb6d2d" target="_top" xlink:title=" ">
<polygon fill="white" stroke="#666666" points="795.5,-132 676,-132 676,-100 795.5,-100 795.5,-132"/>
<text xml:space="preserve" text-anchor="start" x="684" y="-118.5" font-family="Helvetica,sans-Serif" font-size="10.00">nlohmann::detail::binary</text>
<text xml:space="preserve" text-anchor="middle" x="735.75" y="-106.5" font-family="Helvetica,sans-Serif" font-size="10.00">_writer::to_char_type</text>
</a>
</g>
</g>
<!-- Node2&#45;&gt;Node3 -->
<g id="edge2" class="edge">
<title>Node2&#45;&gt;Node3</title>
<path fill="none" stroke="#63b8ff" d="M251.81,-82.42C304.66,-100.94 395.85,-129.93 477,-141 548.78,-150.79 568.16,-150.32 640,-141 650.16,-139.68 660.78,-137.6 671.09,-135.19"/>
<polygon fill="#63b8ff" stroke="#63b8ff" points="671.77,-138.62 680.64,-132.82 670.09,-131.83 671.77,-138.62"/>
</g>
<!-- Node4 -->
<g id="node4" class="node">
<title>Node4</title>
<g id="a_node4"><a xlink:href="a02039.html#ae69dc3c5b2e8c1c8e461779cddb87436" target="_top" xlink:title=" ">
<polygon fill="white" stroke="#666666" points="441,-82 302,-82 302,-50 441,-50 441,-82"/>
<text xml:space="preserve" text-anchor="start" x="310" y="-68.5" font-family="Helvetica,sans-Serif" font-size="10.00">nlohmann::detail::binary</text>
<text xml:space="preserve" text-anchor="middle" x="371.5" y="-56.5" font-family="Helvetica,sans-Serif" font-size="10.00">_writer::write_compact_float</text>
</a>
</g>
</g>
<!-- Node2&#45;&gt;Node4 -->
<g id="edge3" class="edge">
<title>Node2&#45;&gt;Node4</title>
<path fill="none" stroke="#63b8ff" d="M266.19,-66C274.01,-66 282.13,-66 290.24,-66"/>
<polygon fill="#63b8ff" stroke="#63b8ff" points="290.14,-69.5 300.14,-66 290.14,-62.5 290.14,-69.5"/>
</g>
<!-- Node7 -->
<g id="node7" class="node">
<title>Node7</title>
<g id="a_node7"><a xlink:href="a02039.html#a6e11b7227fcecc25a548ed45507b7d1c" target="_top" xlink:title=" ">
<polygon fill="white" stroke="#666666" points="618.25,-32 498.75,-32 498.75,0 618.25,0 618.25,-32"/>
<text xml:space="preserve" text-anchor="start" x="506.75" y="-18.5" font-family="Helvetica,sans-Serif" font-size="10.00">nlohmann::detail::binary</text>
<text xml:space="preserve" text-anchor="middle" x="558.5" y="-6.5" font-family="Helvetica,sans-Serif" font-size="10.00">_writer::write_number</text>
</a>
</g>
</g>
<!-- Node2&#45;&gt;Node7 -->
<g id="edge10" class="edge">
<title>Node2&#45;&gt;Node7</title>
<path fill="none" stroke="#63b8ff" d="M263.53,-49.56C276.11,-46.34 289.44,-43.26 302,-41 363.99,-29.86 435.4,-23.4 486.93,-19.85"/>
<polygon fill="#63b8ff" stroke="#63b8ff" points="487.02,-23.35 496.76,-19.2 486.55,-16.37 487.02,-23.35"/>
</g>
<!-- Node5 -->
<g id="node5" class="node">
<title>Node5</title>
<g id="a_node5"><a xlink:href="a02039.html#a2b5cb010077da6241a18bb334736464c" target="_top" xlink:title=" ">
<polygon fill="white" stroke="#666666" points="629.5,-132 487.5,-132 487.5,-100 629.5,-100 629.5,-132"/>
<text xml:space="preserve" text-anchor="start" x="495.5" y="-118.5" font-family="Helvetica,sans-Serif" font-size="10.00">nlohmann::detail::binary</text>
<text xml:space="preserve" text-anchor="middle" x="558.5" y="-106.5" font-family="Helvetica,sans-Serif" font-size="10.00">_writer::get_cbor_float_prefix</text>
</a>
</g>
</g>
<!-- Node4&#45;&gt;Node5 -->
<g id="edge4" class="edge">
<title>Node4&#45;&gt;Node5</title>
<path fill="none" stroke="#63b8ff" d="M433.33,-82.44C450.16,-86.99 468.59,-91.97 485.97,-96.67"/>
<polygon fill="#63b8ff" stroke="#63b8ff" points="484.6,-99.92 495.17,-99.15 486.43,-93.17 484.6,-99.92"/>
</g>
<!-- Node6 -->
<g id="node6" class="node">
<title>Node6</title>
<g id="a_node6"><a xlink:href="a02039.html#ad452d114696407b98abc69b6001c270e" target="_top" xlink:title=" ">
<polygon fill="white" stroke="#666666" points="640,-82 477,-82 477,-50 640,-50 640,-82"/>
<text xml:space="preserve" text-anchor="start" x="485" y="-68.5" font-family="Helvetica,sans-Serif" font-size="10.00">nlohmann::detail::binary</text>
<text xml:space="preserve" text-anchor="middle" x="558.5" y="-56.5" font-family="Helvetica,sans-Serif" font-size="10.00">_writer::get_msgpack_float_prefix</text>
</a>
</g>
</g>
<!-- Node4&#45;&gt;Node6 -->
<g id="edge6" class="edge">
<title>Node4&#45;&gt;Node6</title>
<path fill="none" stroke="#63b8ff" d="M441.39,-66C449.21,-66 457.27,-66 465.33,-66"/>
<polygon fill="#63b8ff" stroke="#63b8ff" points="465.18,-69.5 475.18,-66 465.18,-62.5 465.18,-69.5"/>
</g>
<!-- Node4&#45;&gt;Node7 -->
<g id="edge8" class="edge">
<title>Node4&#45;&gt;Node7</title>
<path fill="none" stroke="#63b8ff" d="M433.33,-49.56C450.69,-44.87 469.73,-39.72 487.59,-34.9"/>
<polygon fill="#63b8ff" stroke="#63b8ff" points="488.32,-38.32 497.06,-32.34 486.49,-31.57 488.32,-38.32"/>
</g>
<!-- Node5&#45;&gt;Node3 -->
<g id="edge5" class="edge">
<title>Node5&#45;&gt;Node3</title>
<path fill="none" stroke="#63b8ff" d="M629.77,-116C641.2,-116 653.04,-116 664.46,-116"/>
<polygon fill="#63b8ff" stroke="#63b8ff" points="664.21,-119.5 674.21,-116 664.21,-112.5 664.21,-119.5"/>
</g>
<!-- Node6&#45;&gt;Node3 -->
<g id="edge7" class="edge">
<title>Node6&#45;&gt;Node3</title>
<path fill="none" stroke="#63b8ff" d="M616.88,-82.37C632.54,-86.84 649.66,-91.72 665.88,-96.35"/>
<polygon fill="#63b8ff" stroke="#63b8ff" points="664.91,-99.71 675.48,-99.09 666.83,-92.98 664.91,-99.71"/>
</g>
</g>
</svg>
