<?xml version="1.0" encoding="UTF-8" standalone="no"?>
<!DOCTYPE svg PUBLIC "-//W3C//DTD SVG 1.1//EN"
 "http://www.w3.org/Graphics/SVG/1.1/DTD/svg11.dtd">
<!-- Generated by graphviz version 13.1.2 (20250808.2320)
 -->
<!-- Title: nlohmann::basic_json::rbegin Pages: 1 -->
<svg width="720pt" height="40pt"
 viewBox="0.00 0.00 720.00 40.00" xmlns="http://www.w3.org/2000/svg" xmlns:xlink="http://www.w3.org/1999/xlink">
<g id="graph0" class="graph" transform="scale(1 1) rotate(0) translate(4 36)">
<title>nlohmann::basic_json::rbegin</title>
<!-- Node1 -->
<g id="node1" class="node">
<title>Node1</title>
<g id="a_node1"><a xlink:title="returns a const reverse iterator to the last element">
<polygon fill="#999999" stroke="#666666" points="110.5,-32 0,-32 0,0 110.5,0 110.5,-32"/>
<text xml:space="preserve" text-anchor="start" x="8" y="-18.5" font-family="Helvetica,sans-Serif" font-size="10.00">nlohmann::basic_json</text>
<text xml:space="preserve" text-anchor="middle" x="55.25" y="-6.5" font-family="Helvetica,sans-Serif" font-size="10.00">::rbegin</text>
</a>
</g>
</g>
<!-- Node2 -->
<g id="node2" class="node">
<title>Node2</title>
<g id="a_node2"><a xlink:href="a01659.html#a044298d189bdf7e4b36492de9811ddd6" target="_top" xlink:title="returns a const reverse iterator to the last element">
<polygon fill="white" stroke="#666666" points="257,-32 146.5,-32 146.5,0 257,0 257,-32"/>
<text xml:space="preserve" text-anchor="start" x="154.5" y="-18.5" font-family="Helvetica,sans-Serif" font-size="10.00">nlohmann::basic_json</text>
<text xml:space="preserve" text-anchor="middle" x="201.75" y="-6.5" font-family="Helvetica,sans-Serif" font-size="10.00">::crbegin</text>
</a>
</g>
</g>
<!-- Node1&#45;&gt;Node2 -->
<g id="edge1" class="edge">
<title>Node1&#45;&gt;Node2</title>
<path fill="none" stroke="#63b8ff" d="M110.88,-16C118.61,-16 126.63,-16 134.55,-16"/>
<polygon fill="#63b8ff" stroke="#63b8ff" points="134.53,-19.5 144.53,-16 134.53,-12.5 134.53,-19.5"/>
</g>
<!-- Node3 -->
<g id="node3" class="node">
<title>Node3</title>
<g id="a_node3"><a xlink:href="a01659.html#a3017cf0f1a4673e904e34cfef62e7758" target="_top" xlink:title="returns a const iterator to one past the last element">
<polygon fill="white" stroke="#666666" points="403.5,-32 293,-32 293,0 403.5,0 403.5,-32"/>
<text xml:space="preserve" text-anchor="start" x="301" y="-18.5" font-family="Helvetica,sans-Serif" font-size="10.00">nlohmann::basic_json</text>
<text xml:space="preserve" text-anchor="middle" x="348.25" y="-6.5" font-family="Helvetica,sans-Serif" font-size="10.00">::cend</text>
</a>
</g>
</g>
<!-- Node2&#45;&gt;Node3 -->
<g id="edge2" class="edge">
<title>Node2&#45;&gt;Node3</title>
<path fill="none" stroke="#63b8ff" d="M257.38,-16C265.11,-16 273.13,-16 281.05,-16"/>
<polygon fill="#63b8ff" stroke="#63b8ff" points="281.03,-19.5 291.03,-16 281.03,-12.5 281.03,-19.5"/>
</g>
<!-- Node4 -->
<g id="node4" class="node">
<title>Node4</title>
<g id="a_node4"><a xlink:href="a02011.html#a23e50ad4c13aa62d9ac7f60a123823ee" target="_top" xlink:title="set the iterator past the last value">
<polygon fill="white" stroke="#666666" points="546.25,-32 439.5,-32 439.5,0 546.25,0 546.25,-32"/>
<text xml:space="preserve" text-anchor="start" x="447.5" y="-18.5" font-family="Helvetica,sans-Serif" font-size="10.00">nlohmann::detail::iter</text>
<text xml:space="preserve" text-anchor="middle" x="492.88" y="-6.5" font-family="Helvetica,sans-Serif" font-size="10.00">_impl::set_end</text>
</a>
</g>
</g>
<!-- Node3&#45;&gt;Node4 -->
<g id="edge3" class="edge">
<title>Node3&#45;&gt;Node4</title>
<path fill="none" stroke="#63b8ff" d="M403.98,-16C411.89,-16 420.08,-16 428.14,-16"/>
<polygon fill="#63b8ff" stroke="#63b8ff" points="427.89,-19.5 437.89,-16 427.89,-12.5 427.89,-19.5"/>
</g>
<!-- Node5 -->
<g id="node5" class="node">
<title>Node5</title>
<g id="a_node5"><a xlink:href="a02003.html#ad26a823483846a12d890c3feed3097eb" target="_top" xlink:title="set iterator to a defined past the end">
<polygon fill="white" stroke="#666666" points="712.25,-32 582.25,-32 582.25,0 712.25,0 712.25,-32"/>
<text xml:space="preserve" text-anchor="start" x="590.25" y="-18.5" font-family="Helvetica,sans-Serif" font-size="10.00">nlohmann::detail::primitive</text>
<text xml:space="preserve" text-anchor="middle" x="647.25" y="-6.5" font-family="Helvetica,sans-Serif" font-size="10.00">_iterator_t::set_end</text>
</a>
</g>
</g>
<!-- Node4&#45;&gt;Node5 -->
<g id="edge4" class="edge">
<title>Node4&#45;&gt;Node5</title>
<path fill="none" stroke="#63b8ff" d="M546.74,-16C554.45,-16 562.52,-16 570.57,-16"/>
<polygon fill="#63b8ff" stroke="#63b8ff" points="570.41,-19.5 580.41,-16 570.41,-12.5 570.41,-19.5"/>
</g>
</g>
</svg>
