<?xml version="1.0" encoding="UTF-8" standalone="no"?>
<!DOCTYPE svg PUBLIC "-//W3C//DTD SVG 1.1//EN"
 "http://www.w3.org/Graphics/SVG/1.1/DTD/svg11.dtd">
<!-- Generated by graphviz version 13.1.2 (20250808.2320)
 -->
<!-- Title: nlohmann::basic_json::end Pages: 1 -->
<svg width="590pt" height="342pt"
 viewBox="0.00 0.00 590.00 342.00" xmlns="http://www.w3.org/2000/svg" xmlns:xlink="http://www.w3.org/1999/xlink">
<g id="graph0" class="graph" transform="scale(1 1) rotate(0) translate(4 338)">
<title>nlohmann::basic_json::end</title>
<!-- Node1 -->
<g id="node1" class="node">
<title>Node1</title>
<g id="a_node1"><a xlink:title="returns an iterator to one past the last element">
<polygon fill="#999999" stroke="#666666" points="582.25,-174 450,-174 450,-154 582.25,-154 582.25,-174"/>
<text xml:space="preserve" text-anchor="middle" x="516.12" y="-160.5" font-family="Helvetica,sans-Serif" font-size="10.00">nlohmann::basic_json::end</text>
</a>
</g>
</g>
<!-- Node2 -->
<g id="node2" class="node">
<title>Node2</title>
<g id="a_node2"><a xlink:href="a01659.html#a30914ad0767ccdc3633f88a906ed7dfa" target="_top" xlink:title="access the last element">
<polygon fill="white" stroke="#666666" points="414,-334 303.5,-334 303.5,-302 414,-302 414,-334"/>
<text xml:space="preserve" text-anchor="start" x="311.5" y="-320.5" font-family="Helvetica,sans-Serif" font-size="10.00">nlohmann::basic_json</text>
<text xml:space="preserve" text-anchor="middle" x="358.75" y="-308.5" font-family="Helvetica,sans-Serif" font-size="10.00">::back</text>
</a>
</g>
</g>
<!-- Node1&#45;&gt;Node2 -->
<g id="edge1" class="edge">
<title>Node1&#45;&gt;Node2</title>
<path fill="none" stroke="#63b8ff" d="M502.34,-184.07C484.83,-210.39 451.29,-256.85 414,-288 407.97,-293.04 400.97,-297.64 394.04,-301.65"/>
<polygon fill="#63b8ff" stroke="#63b8ff" points="505.26,-185.99 507.8,-175.7 499.4,-182.16 505.26,-185.99"/>
</g>
<!-- Node3 -->
<g id="node3" class="node">
<title>Node3</title>
<g id="a_node3"><a xlink:href="a01659.html#a1c1f21327df91a4dd6c5f5a107240385" target="_top" xlink:title="creates a diff as a JSON patch">
<polygon fill="white" stroke="#666666" points="267.5,-271 157,-271 157,-239 267.5,-239 267.5,-271"/>
<text xml:space="preserve" text-anchor="start" x="165" y="-257.5" font-family="Helvetica,sans-Serif" font-size="10.00">nlohmann::basic_json</text>
<text xml:space="preserve" text-anchor="middle" x="212.25" y="-245.5" font-family="Helvetica,sans-Serif" font-size="10.00">::diff</text>
</a>
</g>
</g>
<!-- Node1&#45;&gt;Node3 -->
<g id="edge2" class="edge">
<title>Node1&#45;&gt;Node3</title>
<path fill="none" stroke="#63b8ff" d="M501.2,-183.09C483.73,-205.26 451.46,-240.63 414,-255 367.14,-272.98 309.48,-270.73 268,-265.32"/>
<polygon fill="#63b8ff" stroke="#63b8ff" points="503.77,-185.51 507.04,-175.43 498.2,-181.26 503.77,-185.51"/>
</g>
<!-- Node4 -->
<g id="node4" class="node">
<title>Node4</title>
<g id="a_node4"><a xlink:href="a01659.html#a494632b69bbe1d0153d3bedad0901b8e" target="_top" xlink:title="remove element given an iterator">
<polygon fill="white" stroke="#666666" points="414,-158 303.5,-158 303.5,-126 414,-126 414,-158"/>
<text xml:space="preserve" text-anchor="start" x="311.5" y="-144.5" font-family="Helvetica,sans-Serif" font-size="10.00">nlohmann::basic_json</text>
<text xml:space="preserve" text-anchor="middle" x="358.75" y="-132.5" font-family="Helvetica,sans-Serif" font-size="10.00">::erase</text>
</a>
</g>
</g>
<!-- Node1&#45;&gt;Node4 -->
<g id="edge4" class="edge">
<title>Node1&#45;&gt;Node4</title>
<path fill="none" stroke="#63b8ff" d="M438.28,-153.12C430.19,-151.97 422.08,-150.83 414.32,-149.73"/>
<polygon fill="#63b8ff" stroke="#63b8ff" points="437.79,-156.58 448.18,-154.52 438.77,-149.65 437.79,-156.58"/>
</g>
<!-- Node5 -->
<g id="node5" class="node">
<title>Node5</title>
<g id="a_node5"><a xlink:href="a01659.html#a844a77cb154752d12118f10af26d54cb" target="_top" xlink:title="applies a JSON Merge Patch">
<polygon fill="white" stroke="#666666" points="267.5,-80 157,-80 157,-48 267.5,-48 267.5,-80"/>
<text xml:space="preserve" text-anchor="start" x="165" y="-66.5" font-family="Helvetica,sans-Serif" font-size="10.00">nlohmann::basic_json</text>
<text xml:space="preserve" text-anchor="middle" x="212.25" y="-54.5" font-family="Helvetica,sans-Serif" font-size="10.00">::merge_patch</text>
</a>
</g>
</g>
<!-- Node1&#45;&gt;Node5 -->
<g id="edge14" class="edge">
<title>Node1&#45;&gt;Node5</title>
<path fill="none" stroke="#63b8ff" d="M490.59,-147.37C470.72,-134.61 441.6,-117.46 414,-107 366.17,-88.88 308.88,-77.56 267.77,-71.12"/>
<polygon fill="#63b8ff" stroke="#63b8ff" points="488.53,-150.2 498.81,-152.75 492.36,-144.35 488.53,-150.2"/>
</g>
<!-- Node6 -->
<g id="node6" class="node">
<title>Node6</title>
<g id="a_node6"><a xlink:href="a01659.html#adcc786998f220a5b3083ee8a37c4553e" target="_top" xlink:title="applies a JSON patch">
<polygon fill="white" stroke="#666666" points="267.5,-202 157,-202 157,-170 267.5,-170 267.5,-202"/>
<text xml:space="preserve" text-anchor="start" x="165" y="-188.5" font-family="Helvetica,sans-Serif" font-size="10.00">nlohmann::basic_json</text>
<text xml:space="preserve" text-anchor="middle" x="212.25" y="-176.5" font-family="Helvetica,sans-Serif" font-size="10.00">::patch</text>
</a>
</g>
</g>
<!-- Node1&#45;&gt;Node6 -->
<g id="edge15" class="edge">
<title>Node1&#45;&gt;Node6</title>
<path fill="none" stroke="#63b8ff" d="M438.16,-169.61C384.82,-173.5 315.11,-178.58 267.53,-182.04"/>
<polygon fill="#63b8ff" stroke="#63b8ff" points="438.39,-173.1 448.11,-168.88 437.89,-166.12 438.39,-173.1"/>
</g>
<!-- Node7 -->
<g id="node7" class="node">
<title>Node7</title>
<g id="a_node7"><a xlink:href="a01659.html#acdf9b3aab82dcf443dd91ca5ec06b80c" target="_top" xlink:title="find an element in a JSON object">
<polygon fill="white" stroke="#666666" points="414,-246 303.5,-246 303.5,-214 414,-214 414,-246"/>
<text xml:space="preserve" text-anchor="start" x="311.5" y="-232.5" font-family="Helvetica,sans-Serif" font-size="10.00">nlohmann::basic_json</text>
<text xml:space="preserve" text-anchor="middle" x="358.75" y="-220.5" font-family="Helvetica,sans-Serif" font-size="10.00">::find</text>
</a>
</g>
</g>
<!-- Node1&#45;&gt;Node7 -->
<g id="edge8" class="edge">
<title>Node1&#45;&gt;Node7</title>
<path fill="none" stroke="#63b8ff" d="M479.98,-178.93C455.73,-189.23 423.48,-202.93 398.48,-213.55"/>
<polygon fill="#63b8ff" stroke="#63b8ff" points="481.28,-182.18 489.11,-175.05 478.54,-175.74 481.28,-182.18"/>
</g>
<!-- Node8 -->
<g id="node8" class="node">
<title>Node8</title>
<g id="a_node8"><a xlink:href="a01659.html#a11641b35219676b225d9bd15c7677659" target="_top" xlink:title="access specified object element with default value">
<polygon fill="white" stroke="#666666" points="267.5,-150 157,-150 157,-118 267.5,-118 267.5,-150"/>
<text xml:space="preserve" text-anchor="start" x="165" y="-136.5" font-family="Helvetica,sans-Serif" font-size="10.00">nlohmann::basic_json</text>
<text xml:space="preserve" text-anchor="middle" x="212.25" y="-124.5" font-family="Helvetica,sans-Serif" font-size="10.00">::value</text>
</a>
</g>
</g>
<!-- Node1&#45;&gt;Node8 -->
<g id="edge17" class="edge">
<title>Node1&#45;&gt;Node8</title>
<path fill="none" stroke="#63b8ff" d="M488.96,-147.97C469.18,-136.82 440.92,-122.95 414,-117 365.33,-106.24 308.64,-112.73 267.94,-120.59"/>
<polygon fill="#63b8ff" stroke="#63b8ff" points="487.04,-150.89 497.44,-152.89 490.55,-144.84 487.04,-150.89"/>
</g>
<!-- Node11 -->
<g id="node11" class="node">
<title>Node11</title>
<g id="a_node11"><a xlink:href="a01659.html#aff8e38cd973bc94557fa8d36433c0e4c" target="_top" xlink:title="returns an iterator to the reverse&#45;beginning">
<polygon fill="white" stroke="#666666" points="414,-32 303.5,-32 303.5,0 414,0 414,-32"/>
<text xml:space="preserve" text-anchor="start" x="311.5" y="-18.5" font-family="Helvetica,sans-Serif" font-size="10.00">nlohmann::basic_json</text>
<text xml:space="preserve" text-anchor="middle" x="358.75" y="-6.5" font-family="Helvetica,sans-Serif" font-size="10.00">::rbegin</text>
</a>
</g>
</g>
<!-- Node1&#45;&gt;Node11 -->
<g id="edge16" class="edge">
<title>Node1&#45;&gt;Node11</title>
<path fill="none" stroke="#63b8ff" d="M501.85,-144.57C484.04,-119.52 450.4,-75.66 414,-46 407.91,-41.04 400.88,-36.47 393.94,-32.46"/>
<polygon fill="#63b8ff" stroke="#63b8ff" points="498.82,-146.34 507.41,-152.53 504.56,-142.33 498.82,-146.34"/>
</g>
<!-- Node3&#45;&gt;Node3 -->
<g id="edge3" class="edge">
<title>Node3&#45;&gt;Node3</title>
<path fill="none" stroke="#63b8ff" d="M236.66,-282.71C232.59,-286.48 224.46,-289 212.25,-289 189.93,-289 181.21,-280.58 186.1,-271.44"/>
<polygon fill="#63b8ff" stroke="#63b8ff" points="240.1,-283.36 238.17,-272.94 233.19,-282.29 240.1,-283.36"/>
</g>
<!-- Node4&#45;&gt;Node5 -->
<g id="edge5" class="edge">
<title>Node4&#45;&gt;Node5</title>
<path fill="none" stroke="#63b8ff" d="M317.47,-120.26C294.03,-107.6 264.98,-91.92 243.5,-80.33"/>
<polygon fill="#63b8ff" stroke="#63b8ff" points="315.66,-123.26 326.13,-124.93 318.99,-117.1 315.66,-123.26"/>
</g>
<!-- Node4&#45;&gt;Node6 -->
<g id="edge7" class="edge">
<title>Node4&#45;&gt;Node6</title>
<path fill="none" stroke="#63b8ff" d="M293.07,-161.7C284.39,-164.34 275.57,-167.03 267.1,-169.6"/>
<polygon fill="#63b8ff" stroke="#63b8ff" points="293.95,-165.09 302.5,-158.82 291.91,-158.39 293.95,-165.09"/>
</g>
<!-- Node5&#45;&gt;Node5 -->
<g id="edge6" class="edge">
<title>Node5&#45;&gt;Node5</title>
<path fill="none" stroke="#63b8ff" d="M236.66,-91.71C232.59,-95.48 224.46,-98 212.25,-98 189.93,-98 181.21,-89.58 186.1,-80.44"/>
<polygon fill="#63b8ff" stroke="#63b8ff" points="240.1,-92.36 238.17,-81.94 233.19,-91.29 240.1,-92.36"/>
</g>
<!-- Node7&#45;&gt;Node3 -->
<g id="edge9" class="edge">
<title>Node7&#45;&gt;Node3</title>
<path fill="none" stroke="#63b8ff" d="M291.91,-241.39C283.9,-242.78 275.78,-244.18 267.96,-245.54"/>
<polygon fill="#63b8ff" stroke="#63b8ff" points="292.37,-244.86 301.63,-239.71 291.18,-237.97 292.37,-244.86"/>
</g>
<!-- Node7&#45;&gt;Node6 -->
<g id="edge10" class="edge">
<title>Node7&#45;&gt;Node6</title>
<path fill="none" stroke="#63b8ff" d="M293.07,-210.3C284.39,-207.66 275.57,-204.97 267.1,-202.4"/>
<polygon fill="#63b8ff" stroke="#63b8ff" points="291.91,-213.61 302.5,-213.18 293.95,-206.91 291.91,-213.61"/>
</g>
<!-- Node7&#45;&gt;Node8 -->
<g id="edge11" class="edge">
<title>Node7&#45;&gt;Node8</title>
<path fill="none" stroke="#63b8ff" d="M329.95,-206.53C312.6,-192.45 289.45,-174.68 267.5,-161 261.61,-157.33 255.15,-153.75 248.8,-150.47"/>
<polygon fill="#63b8ff" stroke="#63b8ff" points="327.34,-208.92 337.29,-212.56 331.78,-203.51 327.34,-208.92"/>
</g>
<!-- Node9 -->
<g id="node9" class="node">
<title>Node9</title>
<g id="a_node9"><a xlink:href="a02059.html#ad7f122fa9bfc5aa4d9b65a3059892146" target="_top" xlink:title="constructor for strings">
<polygon fill="white" stroke="#666666" points="121,-175 0,-175 0,-143 121,-143 121,-175"/>
<text xml:space="preserve" text-anchor="start" x="8" y="-161.5" font-family="Helvetica,sans-Serif" font-size="10.00">nlohmann::basic_json</text>
<text xml:space="preserve" text-anchor="middle" x="60.5" y="-149.5" font-family="Helvetica,sans-Serif" font-size="10.00">::json_value::json_value</text>
</a>
</g>
</g>
<!-- Node8&#45;&gt;Node9 -->
<g id="edge12" class="edge">
<title>Node8&#45;&gt;Node9</title>
<path fill="none" stroke="#63b8ff" d="M145.5,-144.98C137.43,-146.32 129.23,-147.69 121.26,-149.02"/>
<polygon fill="#63b8ff" stroke="#63b8ff" points="145.98,-148.44 155.27,-143.35 144.83,-141.54 145.98,-148.44"/>
</g>
<!-- Node10 -->
<g id="node10" class="node">
<title>Node10</title>
<g id="a_node10"><a xlink:href="a01659.html#adcfdefe95d5c2471a5c97e911d46ee88" target="_top" xlink:title="overload for a default value of type const char*">
<polygon fill="white" stroke="#666666" points="115.75,-125 5.25,-125 5.25,-93 115.75,-93 115.75,-125"/>
<text xml:space="preserve" text-anchor="start" x="13.25" y="-111.5" font-family="Helvetica,sans-Serif" font-size="10.00">nlohmann::basic_json</text>
<text xml:space="preserve" text-anchor="middle" x="60.5" y="-99.5" font-family="Helvetica,sans-Serif" font-size="10.00">::value</text>
</a>
</g>
</g>
<!-- Node8&#45;&gt;Node10 -->
<g id="edge13" class="edge">
<title>Node8&#45;&gt;Node10</title>
<path fill="none" stroke="#63b8ff" d="M145.44,-123.01C135.67,-121.38 125.7,-119.72 116.2,-118.13"/>
<polygon fill="#63b8ff" stroke="#63b8ff" points="144.83,-126.46 155.27,-124.65 145.98,-119.56 144.83,-126.46"/>
</g>
</g>
</svg>
