<?xml version="1.0" encoding="UTF-8" standalone="no"?>
<!DOCTYPE svg PUBLIC "-//W3C//DTD SVG 1.1//EN"
 "http://www.w3.org/Graphics/SVG/1.1/DTD/svg11.dtd">
<!-- Generated by graphviz version 13.1.2 (20250808.2320)
 -->
<!-- Title: nlohmann::basic_json::is_string Pages: 1 -->
<svg width="412pt" height="233pt"
 viewBox="0.00 0.00 412.00 233.00" xmlns="http://www.w3.org/2000/svg" xmlns:xlink="http://www.w3.org/1999/xlink">
<g id="graph0" class="graph" transform="scale(1 1) rotate(0) translate(4 229)">
<title>nlohmann::basic_json::is_string</title>
<!-- Node1 -->
<g id="node1" class="node">
<title>Node1</title>
<g id="a_node1"><a xlink:title="return whether value is a string">
<polygon fill="#999999" stroke="#666666" points="403.5,-107 293,-107 293,-75 403.5,-75 403.5,-107"/>
<text xml:space="preserve" text-anchor="start" x="301" y="-93.5" font-family="Helvetica,sans-Serif" font-size="10.00">nlohmann::basic_json</text>
<text xml:space="preserve" text-anchor="middle" x="348.25" y="-81.5" font-family="Helvetica,sans-Serif" font-size="10.00">::is_string</text>
</a>
</g>
</g>
<!-- Node2 -->
<g id="node2" class="node">
<title>Node2</title>
<g id="a_node2"><a xlink:href="a01659.html#a494632b69bbe1d0153d3bedad0901b8e" target="_top" xlink:title="remove element given an iterator">
<polygon fill="white" stroke="#666666" points="257,-182 146.5,-182 146.5,-150 257,-150 257,-182"/>
<text xml:space="preserve" text-anchor="start" x="154.5" y="-168.5" font-family="Helvetica,sans-Serif" font-size="10.00">nlohmann::basic_json</text>
<text xml:space="preserve" text-anchor="middle" x="201.75" y="-156.5" font-family="Helvetica,sans-Serif" font-size="10.00">::erase</text>
</a>
</g>
</g>
<!-- Node1&#45;&gt;Node2 -->
<g id="edge1" class="edge">
<title>Node1&#45;&gt;Node2</title>
<path fill="none" stroke="#63b8ff" d="M309.52,-112.72C293.47,-121.74 274.47,-132.15 257,-141 251.36,-143.86 245.32,-146.77 239.4,-149.56"/>
<polygon fill="#63b8ff" stroke="#63b8ff" points="310.79,-116.02 317.77,-108.05 307.34,-109.93 310.79,-116.02"/>
</g>
<!-- Node5 -->
<g id="node5" class="node">
<title>Node5</title>
<g id="a_node5"><a xlink:href="a01659.html#abea216655066f0f091df1f04d43cf317" target="_top" xlink:title="get a pointer to the value (string)">
<polygon fill="white" stroke="#666666" points="257,-132 146.5,-132 146.5,-100 257,-100 257,-132"/>
<text xml:space="preserve" text-anchor="start" x="154.5" y="-118.5" font-family="Helvetica,sans-Serif" font-size="10.00">nlohmann::basic_json</text>
<text xml:space="preserve" text-anchor="middle" x="201.75" y="-106.5" font-family="Helvetica,sans-Serif" font-size="10.00">::get_impl_ptr</text>
</a>
</g>
</g>
<!-- Node1&#45;&gt;Node5 -->
<g id="edge5" class="edge">
<title>Node1&#45;&gt;Node5</title>
<path fill="none" stroke="#63b8ff" d="M281.41,-102.39C273.4,-103.78 265.28,-105.18 257.46,-106.54"/>
<polygon fill="#63b8ff" stroke="#63b8ff" points="281.87,-105.86 291.13,-100.71 280.68,-98.97 281.87,-105.86"/>
</g>
<!-- Node6 -->
<g id="node6" class="node">
<title>Node6</title>
<g id="a_node6"><a xlink:href="a01659.html#a548d2d4013da24e7d7510d90febc80c4" target="_top" xlink:title="return whether type is primitive">
<polygon fill="white" stroke="#666666" points="257,-82 146.5,-82 146.5,-50 257,-50 257,-82"/>
<text xml:space="preserve" text-anchor="start" x="154.5" y="-68.5" font-family="Helvetica,sans-Serif" font-size="10.00">nlohmann::basic_json</text>
<text xml:space="preserve" text-anchor="middle" x="201.75" y="-56.5" font-family="Helvetica,sans-Serif" font-size="10.00">::is_primitive</text>
</a>
</g>
</g>
<!-- Node1&#45;&gt;Node6 -->
<g id="edge6" class="edge">
<title>Node1&#45;&gt;Node6</title>
<path fill="none" stroke="#63b8ff" d="M281.41,-79.61C273.4,-78.22 265.28,-76.82 257.46,-75.46"/>
<polygon fill="#63b8ff" stroke="#63b8ff" points="280.68,-83.03 291.13,-81.29 281.87,-76.14 280.68,-83.03"/>
</g>
<!-- Node7 -->
<g id="node7" class="node">
<title>Node7</title>
<g id="a_node7"><a xlink:href="a01659.html#aac916df9561daf4eaf2372119fe91899" target="_top" xlink:title="exchanges the values">
<polygon fill="white" stroke="#666666" points="257,-32 146.5,-32 146.5,0 257,0 257,-32"/>
<text xml:space="preserve" text-anchor="start" x="154.5" y="-18.5" font-family="Helvetica,sans-Serif" font-size="10.00">nlohmann::basic_json</text>
<text xml:space="preserve" text-anchor="middle" x="201.75" y="-6.5" font-family="Helvetica,sans-Serif" font-size="10.00">::swap</text>
</a>
</g>
</g>
<!-- Node1&#45;&gt;Node7 -->
<g id="edge7" class="edge">
<title>Node1&#45;&gt;Node7</title>
<path fill="none" stroke="#63b8ff" d="M309.52,-69.28C293.47,-60.26 274.47,-49.85 257,-41 251.36,-38.14 245.32,-35.23 239.4,-32.44"/>
<polygon fill="#63b8ff" stroke="#63b8ff" points="307.34,-72.07 317.77,-73.95 310.79,-65.98 307.34,-72.07"/>
</g>
<!-- Node3 -->
<g id="node3" class="node">
<title>Node3</title>
<g id="a_node3"><a xlink:href="a01659.html#a844a77cb154752d12118f10af26d54cb" target="_top" xlink:title="applies a JSON Merge Patch">
<polygon fill="white" stroke="#666666" points="110.5,-207 0,-207 0,-175 110.5,-175 110.5,-207"/>
<text xml:space="preserve" text-anchor="start" x="8" y="-193.5" font-family="Helvetica,sans-Serif" font-size="10.00">nlohmann::basic_json</text>
<text xml:space="preserve" text-anchor="middle" x="55.25" y="-181.5" font-family="Helvetica,sans-Serif" font-size="10.00">::merge_patch</text>
</a>
</g>
</g>
<!-- Node2&#45;&gt;Node3 -->
<g id="edge2" class="edge">
<title>Node2&#45;&gt;Node3</title>
<path fill="none" stroke="#63b8ff" d="M134.91,-177.39C126.9,-178.78 118.78,-180.18 110.96,-181.54"/>
<polygon fill="#63b8ff" stroke="#63b8ff" points="135.37,-180.86 144.63,-175.71 134.18,-173.97 135.37,-180.86"/>
</g>
<!-- Node4 -->
<g id="node4" class="node">
<title>Node4</title>
<g id="a_node4"><a xlink:href="a01659.html#adcc786998f220a5b3083ee8a37c4553e" target="_top" xlink:title="applies a JSON patch">
<polygon fill="white" stroke="#666666" points="110.5,-157 0,-157 0,-125 110.5,-125 110.5,-157"/>
<text xml:space="preserve" text-anchor="start" x="8" y="-143.5" font-family="Helvetica,sans-Serif" font-size="10.00">nlohmann::basic_json</text>
<text xml:space="preserve" text-anchor="middle" x="55.25" y="-131.5" font-family="Helvetica,sans-Serif" font-size="10.00">::patch</text>
</a>
</g>
</g>
<!-- Node2&#45;&gt;Node4 -->
<g id="edge4" class="edge">
<title>Node2&#45;&gt;Node4</title>
<path fill="none" stroke="#63b8ff" d="M134.91,-154.61C126.9,-153.22 118.78,-151.82 110.96,-150.46"/>
<polygon fill="#63b8ff" stroke="#63b8ff" points="134.18,-158.03 144.63,-156.29 135.37,-151.14 134.18,-158.03"/>
</g>
<!-- Node3&#45;&gt;Node3 -->
<g id="edge3" class="edge">
<title>Node3&#45;&gt;Node3</title>
<path fill="none" stroke="#63b8ff" d="M79.66,-218.71C75.59,-222.48 67.46,-225 55.25,-225 32.93,-225 24.21,-216.58 29.1,-207.44"/>
<polygon fill="#63b8ff" stroke="#63b8ff" points="83.1,-219.36 81.17,-208.94 76.19,-218.29 83.1,-219.36"/>
</g>
</g>
</svg>
