<?xml version="1.0" encoding="UTF-8" standalone="no"?>
<!DOCTYPE svg PUBLIC "-//W3C//DTD SVG 1.1//EN"
 "http://www.w3.org/Graphics/SVG/1.1/DTD/svg11.dtd">
<!-- Generated by graphviz version 13.1.2 (20250808.2320)
 -->
<!-- Title: nlohmann::basic_json::is_null Pages: 1 -->
<svg width="412pt" height="340pt"
 viewBox="0.00 0.00 412.00 340.00" xmlns="http://www.w3.org/2000/svg" xmlns:xlink="http://www.w3.org/1999/xlink">
<g id="graph0" class="graph" transform="scale(1 1) rotate(0) translate(4 336)">
<title>nlohmann::basic_json::is_null</title>
<!-- Node1 -->
<g id="node1" class="node">
<title>Node1</title>
<g id="a_node1"><a xlink:title="return whether value is null">
<polygon fill="#999999" stroke="#666666" points="403.5,-207 293,-207 293,-175 403.5,-175 403.5,-207"/>
<text xml:space="preserve" text-anchor="start" x="301" y="-193.5" font-family="Helvetica,sans-Serif" font-size="10.00">nlohmann::basic_json</text>
<text xml:space="preserve" text-anchor="middle" x="348.25" y="-181.5" font-family="Helvetica,sans-Serif" font-size="10.00">::is_null</text>
</a>
</g>
</g>
<!-- Node2 -->
<g id="node2" class="node">
<title>Node2</title>
<g id="a_node2"><a xlink:href="a01659.html#af244c096197a233edba4c83200ae66ac" target="_top" xlink:title="add an object to an object if key does not exist">
<polygon fill="white" stroke="#666666" points="257,-332 146.5,-332 146.5,-300 257,-300 257,-332"/>
<text xml:space="preserve" text-anchor="start" x="154.5" y="-318.5" font-family="Helvetica,sans-Serif" font-size="10.00">nlohmann::basic_json</text>
<text xml:space="preserve" text-anchor="middle" x="201.75" y="-306.5" font-family="Helvetica,sans-Serif" font-size="10.00">::emplace</text>
</a>
</g>
</g>
<!-- Node1&#45;&gt;Node2 -->
<g id="edge1" class="edge">
<title>Node1&#45;&gt;Node2</title>
<path fill="none" stroke="#63b8ff" d="M328.99,-216.48C312.24,-238.45 285.72,-269.88 257,-291 252.74,-294.13 248.02,-297.01 243.2,-299.61"/>
<polygon fill="#63b8ff" stroke="#63b8ff" points="331.68,-218.73 334.86,-208.63 326.07,-214.55 331.68,-218.73"/>
</g>
<!-- Node3 -->
<g id="node3" class="node">
<title>Node3</title>
<g id="a_node3"><a xlink:href="a01659.html#a15c0a5db4fb12d49433801bbe6436bfb" target="_top" xlink:title="add an object to an array">
<polygon fill="white" stroke="#666666" points="257,-282 146.5,-282 146.5,-250 257,-250 257,-282"/>
<text xml:space="preserve" text-anchor="start" x="154.5" y="-268.5" font-family="Helvetica,sans-Serif" font-size="10.00">nlohmann::basic_json</text>
<text xml:space="preserve" text-anchor="middle" x="201.75" y="-256.5" font-family="Helvetica,sans-Serif" font-size="10.00">::emplace_back</text>
</a>
</g>
</g>
<!-- Node1&#45;&gt;Node3 -->
<g id="edge2" class="edge">
<title>Node1&#45;&gt;Node3</title>
<path fill="none" stroke="#63b8ff" d="M309.52,-212.72C293.47,-221.74 274.47,-232.15 257,-241 251.36,-243.86 245.32,-246.77 239.4,-249.56"/>
<polygon fill="#63b8ff" stroke="#63b8ff" points="310.79,-216.02 317.77,-208.05 307.34,-209.93 310.79,-216.02"/>
</g>
<!-- Node4 -->
<g id="node4" class="node">
<title>Node4</title>
<g id="a_node4"><a xlink:href="a01659.html#a548d2d4013da24e7d7510d90febc80c4" target="_top" xlink:title="return whether type is primitive">
<polygon fill="white" stroke="#666666" points="257,-232 146.5,-232 146.5,-200 257,-200 257,-232"/>
<text xml:space="preserve" text-anchor="start" x="154.5" y="-218.5" font-family="Helvetica,sans-Serif" font-size="10.00">nlohmann::basic_json</text>
<text xml:space="preserve" text-anchor="middle" x="201.75" y="-206.5" font-family="Helvetica,sans-Serif" font-size="10.00">::is_primitive</text>
</a>
</g>
</g>
<!-- Node1&#45;&gt;Node4 -->
<g id="edge3" class="edge">
<title>Node1&#45;&gt;Node4</title>
<path fill="none" stroke="#63b8ff" d="M281.41,-202.39C273.4,-203.78 265.28,-205.18 257.46,-206.54"/>
<polygon fill="#63b8ff" stroke="#63b8ff" points="281.87,-205.86 291.13,-200.71 280.68,-198.97 281.87,-205.86"/>
</g>
<!-- Node5 -->
<g id="node5" class="node">
<title>Node5</title>
<g id="a_node5"><a xlink:href="a01659.html#a9ea67fc1ef0ccc42e1d5388fe0416ae5" target="_top" xlink:title="access specified array element">
<polygon fill="white" stroke="#666666" points="257,-182 146.5,-182 146.5,-150 257,-150 257,-182"/>
<text xml:space="preserve" text-anchor="start" x="154.5" y="-168.5" font-family="Helvetica,sans-Serif" font-size="10.00">nlohmann::basic_json</text>
<text xml:space="preserve" text-anchor="middle" x="201.75" y="-156.5" font-family="Helvetica,sans-Serif" font-size="10.00">::operator[]</text>
</a>
</g>
</g>
<!-- Node1&#45;&gt;Node5 -->
<g id="edge4" class="edge">
<title>Node1&#45;&gt;Node5</title>
<path fill="none" stroke="#63b8ff" d="M281.41,-179.61C273.4,-178.22 265.28,-176.82 257.46,-175.46"/>
<polygon fill="#63b8ff" stroke="#63b8ff" points="280.68,-183.03 291.13,-181.29 281.87,-176.14 280.68,-183.03"/>
</g>
<!-- Node7 -->
<g id="node7" class="node">
<title>Node7</title>
<g id="a_node7"><a xlink:href="a01659.html#ab9e0253c92736db021840105d374c4c4" target="_top" xlink:title="add an object to an array">
<polygon fill="white" stroke="#666666" points="257,-132 146.5,-132 146.5,-100 257,-100 257,-132"/>
<text xml:space="preserve" text-anchor="start" x="154.5" y="-118.5" font-family="Helvetica,sans-Serif" font-size="10.00">nlohmann::basic_json</text>
<text xml:space="preserve" text-anchor="middle" x="201.75" y="-106.5" font-family="Helvetica,sans-Serif" font-size="10.00">::push_back</text>
</a>
</g>
</g>
<!-- Node1&#45;&gt;Node7 -->
<g id="edge7" class="edge">
<title>Node1&#45;&gt;Node7</title>
<path fill="none" stroke="#63b8ff" d="M309.52,-169.28C293.47,-160.26 274.47,-149.85 257,-141 251.36,-138.14 245.32,-135.23 239.4,-132.44"/>
<polygon fill="#63b8ff" stroke="#63b8ff" points="307.34,-172.07 317.77,-173.95 310.79,-165.98 307.34,-172.07"/>
</g>
<!-- Node12 -->
<g id="node12" class="node">
<title>Node12</title>
<g id="a_node12"><a xlink:href="a01659.html#a377819905d567f6f523dcbc592cb6356" target="_top" xlink:title="updates a JSON object from another object, overwriting existing keys">
<polygon fill="white" stroke="#666666" points="257,-82 146.5,-82 146.5,-50 257,-50 257,-82"/>
<text xml:space="preserve" text-anchor="start" x="154.5" y="-68.5" font-family="Helvetica,sans-Serif" font-size="10.00">nlohmann::basic_json</text>
<text xml:space="preserve" text-anchor="middle" x="201.75" y="-56.5" font-family="Helvetica,sans-Serif" font-size="10.00">::update</text>
</a>
</g>
</g>
<!-- Node1&#45;&gt;Node12 -->
<g id="edge13" class="edge">
<title>Node1&#45;&gt;Node12</title>
<path fill="none" stroke="#63b8ff" d="M328.99,-165.52C312.24,-143.55 285.72,-112.12 257,-91 252.74,-87.87 248.02,-84.99 243.2,-82.39"/>
<polygon fill="#63b8ff" stroke="#63b8ff" points="326.07,-167.45 334.86,-173.37 331.68,-163.27 326.07,-167.45"/>
</g>
<!-- Node6 -->
<g id="node6" class="node">
<title>Node6</title>
<g id="a_node6"><a xlink:href="a01659.html#a844a77cb154752d12118f10af26d54cb" target="_top" xlink:title="applies a JSON Merge Patch">
<polygon fill="white" stroke="#666666" points="110.5,-250 0,-250 0,-218 110.5,-218 110.5,-250"/>
<text xml:space="preserve" text-anchor="start" x="8" y="-236.5" font-family="Helvetica,sans-Serif" font-size="10.00">nlohmann::basic_json</text>
<text xml:space="preserve" text-anchor="middle" x="55.25" y="-224.5" font-family="Helvetica,sans-Serif" font-size="10.00">::merge_patch</text>
</a>
</g>
</g>
<!-- Node5&#45;&gt;Node6 -->
<g id="edge5" class="edge">
<title>Node5&#45;&gt;Node6</title>
<path fill="none" stroke="#63b8ff" d="M154.41,-187.24C151.73,-188.5 149.08,-189.76 146.5,-191 130.37,-198.74 126.63,-201.26 110.5,-209 104.61,-211.83 98.33,-214.78 92.22,-217.62"/>
<polygon fill="#63b8ff" stroke="#63b8ff" points="155.84,-190.43 163.41,-183.02 152.87,-184.09 155.84,-190.43"/>
</g>
<!-- Node6&#45;&gt;Node6 -->
<g id="edge6" class="edge">
<title>Node6&#45;&gt;Node6</title>
<path fill="none" stroke="#63b8ff" d="M79.66,-261.71C75.59,-265.48 67.46,-268 55.25,-268 32.93,-268 24.21,-259.58 29.1,-250.44"/>
<polygon fill="#63b8ff" stroke="#63b8ff" points="83.1,-262.36 81.17,-251.94 76.19,-261.29 83.1,-262.36"/>
</g>
<!-- Node8 -->
<g id="node8" class="node">
<title>Node8</title>
<g id="a_node8"><a xlink:href="a01659.html#a1c1f21327df91a4dd6c5f5a107240385" target="_top" xlink:title="creates a diff as a JSON patch">
<polygon fill="white" stroke="#666666" points="110.5,-182 0,-182 0,-150 110.5,-150 110.5,-182"/>
<text xml:space="preserve" text-anchor="start" x="8" y="-168.5" font-family="Helvetica,sans-Serif" font-size="10.00">nlohmann::basic_json</text>
<text xml:space="preserve" text-anchor="middle" x="55.25" y="-156.5" font-family="Helvetica,sans-Serif" font-size="10.00">::diff</text>
</a>
</g>
</g>
<!-- Node7&#45;&gt;Node8 -->
<g id="edge8" class="edge">
<title>Node7&#45;&gt;Node8</title>
<path fill="none" stroke="#63b8ff" d="M142.73,-136.08C129.76,-140.56 116.15,-145.27 103.67,-149.59"/>
<polygon fill="#63b8ff" stroke="#63b8ff" points="143.7,-139.44 152,-132.87 141.41,-132.83 143.7,-139.44"/>
</g>
<!-- Node9 -->
<g id="node9" class="node">
<title>Node9</title>
<g id="a_node9"><a xlink:href="a01659.html#a40226d9c84fcb9cb948ae0c27b842c57" target="_top" xlink:title="add an object to an array">
<polygon fill="white" stroke="#666666" points="110.5,-132 0,-132 0,-100 110.5,-100 110.5,-132"/>
<text xml:space="preserve" text-anchor="start" x="8" y="-118.5" font-family="Helvetica,sans-Serif" font-size="10.00">nlohmann::basic_json</text>
<text xml:space="preserve" text-anchor="middle" x="55.25" y="-106.5" font-family="Helvetica,sans-Serif" font-size="10.00">::operator+=</text>
</a>
</g>
</g>
<!-- Node7&#45;&gt;Node9 -->
<g id="edge10" class="edge">
<title>Node7&#45;&gt;Node9</title>
<path fill="none" stroke="#63b8ff" d="M134.63,-116C126.71,-116 118.69,-116 110.96,-116"/>
<polygon fill="#63b8ff" stroke="#63b8ff" points="134.61,-119.5 144.61,-116 134.61,-112.5 134.61,-119.5"/>
</g>
<!-- Node10 -->
<g id="node10" class="node">
<title>Node10</title>
<g id="a_node10"><a xlink:href="a01659.html#adcc786998f220a5b3083ee8a37c4553e" target="_top" xlink:title="applies a JSON patch">
<polygon fill="white" stroke="#666666" points="110.5,-82 0,-82 0,-50 110.5,-50 110.5,-82"/>
<text xml:space="preserve" text-anchor="start" x="8" y="-68.5" font-family="Helvetica,sans-Serif" font-size="10.00">nlohmann::basic_json</text>
<text xml:space="preserve" text-anchor="middle" x="55.25" y="-56.5" font-family="Helvetica,sans-Serif" font-size="10.00">::patch</text>
</a>
</g>
</g>
<!-- Node7&#45;&gt;Node10 -->
<g id="edge11" class="edge">
<title>Node7&#45;&gt;Node10</title>
<path fill="none" stroke="#63b8ff" d="M142.73,-95.92C129.76,-91.44 116.15,-86.73 103.67,-82.41"/>
<polygon fill="#63b8ff" stroke="#63b8ff" points="141.41,-99.17 152,-99.13 143.7,-92.56 141.41,-99.17"/>
</g>
<!-- Node11 -->
<g id="node11" class="node">
<title>Node11</title>
<g id="a_node11"><a xlink:href="a01659.html#a4567cf75f19b1efca090f75d7a8a350a" target="_top" xlink:title="add an object to an object">
<polygon fill="white" stroke="#666666" points="110.5,-32 0,-32 0,0 110.5,0 110.5,-32"/>
<text xml:space="preserve" text-anchor="start" x="8" y="-18.5" font-family="Helvetica,sans-Serif" font-size="10.00">nlohmann::basic_json</text>
<text xml:space="preserve" text-anchor="middle" x="55.25" y="-6.5" font-family="Helvetica,sans-Serif" font-size="10.00">::push_back</text>
</a>
</g>
</g>
<!-- Node7&#45;&gt;Node11 -->
<g id="edge12" class="edge">
<title>Node7&#45;&gt;Node11</title>
<path fill="none" stroke="#63b8ff" d="M149.46,-93.32C148.45,-92.56 147.46,-91.79 146.5,-91 125.37,-73.58 131.63,-58.42 110.5,-41 106.66,-37.83 102.35,-34.98 97.89,-32.42"/>
<polygon fill="#63b8ff" stroke="#63b8ff" points="147.55,-96.25 157.84,-98.75 151.36,-90.37 147.55,-96.25"/>
</g>
<!-- Node8&#45;&gt;Node8 -->
<g id="edge9" class="edge">
<title>Node8&#45;&gt;Node8</title>
<path fill="none" stroke="#63b8ff" d="M79.66,-193.71C75.59,-197.48 67.46,-200 55.25,-200 32.93,-200 24.21,-191.58 29.1,-182.44"/>
<polygon fill="#63b8ff" stroke="#63b8ff" points="83.1,-194.36 81.17,-183.94 76.19,-193.29 83.1,-194.36"/>
</g>
</g>
</svg>
