<?xml version="1.0" encoding="UTF-8" standalone="no"?>
<!DOCTYPE svg PUBLIC "-//W3C//DTD SVG 1.1//EN"
 "http://www.w3.org/Graphics/SVG/1.1/DTD/svg11.dtd">
<!-- Generated by graphviz version 13.1.2 (20250808.2320)
 -->
<!-- Title: nlohmann::json_pointer::split Pages: 1 -->
<svg width="449pt" height="140pt"
 viewBox="0.00 0.00 449.00 140.00" xmlns="http://www.w3.org/2000/svg" xmlns:xlink="http://www.w3.org/1999/xlink">
<g id="graph0" class="graph" transform="scale(1 1) rotate(0) translate(4 136)">
<title>nlohmann::json_pointer::split</title>
<!-- Node1 -->
<g id="node1" class="node">
<title>Node1</title>
<g id="a_node1"><a xlink:title="split the string input to reference tokens">
<polygon fill="#999999" stroke="#666666" points="116.5,-57 0,-57 0,-25 116.5,-25 116.5,-57"/>
<text xml:space="preserve" text-anchor="start" x="8" y="-43.5" font-family="Helvetica,sans-Serif" font-size="10.00">nlohmann::json_pointer</text>
<text xml:space="preserve" text-anchor="middle" x="58.25" y="-31.5" font-family="Helvetica,sans-Serif" font-size="10.00">::split</text>
</a>
</g>
</g>
<!-- Node2 -->
<g id="node2" class="node">
<title>Node2</title>
<g id="a_node2"><a xlink:href="a01563.html#a137ea4d27de45d8a844fd13451d40f3d" target="_top" xlink:title="create a parse error exception">
<polygon fill="white" stroke="#666666" points="269.75,-82 152.5,-82 152.5,-50 269.75,-50 269.75,-82"/>
<text xml:space="preserve" text-anchor="start" x="160.5" y="-68.5" font-family="Helvetica,sans-Serif" font-size="10.00">nlohmann::detail::parse</text>
<text xml:space="preserve" text-anchor="middle" x="211.12" y="-56.5" font-family="Helvetica,sans-Serif" font-size="10.00">_error::create</text>
</a>
</g>
</g>
<!-- Node1&#45;&gt;Node2 -->
<g id="edge1" class="edge">
<title>Node1&#45;&gt;Node2</title>
<path fill="none" stroke="#63b8ff" d="M116.72,-50.52C124.59,-51.83 132.73,-53.18 140.78,-54.51"/>
<polygon fill="#63b8ff" stroke="#63b8ff" points="140.13,-57.95 150.57,-56.13 141.28,-51.04 140.13,-57.95"/>
</g>
<!-- Node5 -->
<g id="node5" class="node">
<title>Node5</title>
<g id="a_node5"><a xlink:href="a01663.html#ab85442d5fbcc289b79beeefc2175446f" target="_top" xlink:title="unescape &quot;~1&quot; to tilde and &quot;~0&quot; to slash (order is important!)">
<polygon fill="white" stroke="#666666" points="269.38,-32 152.88,-32 152.88,0 269.38,0 269.38,-32"/>
<text xml:space="preserve" text-anchor="start" x="160.88" y="-18.5" font-family="Helvetica,sans-Serif" font-size="10.00">nlohmann::json_pointer</text>
<text xml:space="preserve" text-anchor="middle" x="211.12" y="-6.5" font-family="Helvetica,sans-Serif" font-size="10.00">::unescape</text>
</a>
</g>
</g>
<!-- Node1&#45;&gt;Node5 -->
<g id="edge4" class="edge">
<title>Node1&#45;&gt;Node5</title>
<path fill="none" stroke="#63b8ff" d="M116.72,-31.48C124.85,-30.13 133.27,-28.73 141.59,-27.36"/>
<polygon fill="#63b8ff" stroke="#63b8ff" points="142.03,-30.83 151.32,-25.74 140.88,-23.93 142.03,-30.83"/>
</g>
<!-- Node3 -->
<g id="node3" class="node">
<title>Node3</title>
<g id="a_node3"><a xlink:href="a01559.html#abf41a7e9178356314082284e6cfea278" target="_top" xlink:title=" ">
<polygon fill="white" stroke="#666666" points="441,-132 305.75,-132 305.75,-100 441,-100 441,-132"/>
<text xml:space="preserve" text-anchor="start" x="313.75" y="-118.5" font-family="Helvetica,sans-Serif" font-size="10.00">nlohmann::detail::exception</text>
<text xml:space="preserve" text-anchor="middle" x="373.38" y="-106.5" font-family="Helvetica,sans-Serif" font-size="10.00">::name</text>
</a>
</g>
</g>
<!-- Node2&#45;&gt;Node3 -->
<g id="edge2" class="edge">
<title>Node2&#45;&gt;Node3</title>
<path fill="none" stroke="#63b8ff" d="M264.6,-82.37C278.64,-86.75 293.97,-91.54 308.54,-96.08"/>
<polygon fill="#63b8ff" stroke="#63b8ff" points="307.48,-99.42 318.07,-99.05 309.56,-92.74 307.48,-99.42"/>
</g>
<!-- Node4 -->
<g id="node4" class="node">
<title>Node4</title>
<g id="a_node4"><a xlink:href="a01563.html#aefe74adeaa48781464ba2fd2ec63d221" target="_top" xlink:title=" ">
<polygon fill="white" stroke="#666666" points="432,-82 314.75,-82 314.75,-50 432,-50 432,-82"/>
<text xml:space="preserve" text-anchor="start" x="322.75" y="-68.5" font-family="Helvetica,sans-Serif" font-size="10.00">nlohmann::detail::parse</text>
<text xml:space="preserve" text-anchor="middle" x="373.38" y="-56.5" font-family="Helvetica,sans-Serif" font-size="10.00">_error::position_string</text>
</a>
</g>
</g>
<!-- Node2&#45;&gt;Node4 -->
<g id="edge3" class="edge">
<title>Node2&#45;&gt;Node4</title>
<path fill="none" stroke="#63b8ff" d="M269.98,-66C280.69,-66 291.98,-66 303,-66"/>
<polygon fill="#63b8ff" stroke="#63b8ff" points="302.82,-69.5 312.82,-66 302.82,-62.5 302.82,-69.5"/>
</g>
<!-- Node6 -->
<g id="node6" class="node">
<title>Node6</title>
<g id="a_node6"><a xlink:href="a01663.html#aa7649d30da9fc10b0e20704a27aea2a9" target="_top" xlink:title="replace all occurrences of a substring by another string">
<polygon fill="white" stroke="#666666" points="431.62,-32 315.12,-32 315.12,0 431.62,0 431.62,-32"/>
<text xml:space="preserve" text-anchor="start" x="323.12" y="-18.5" font-family="Helvetica,sans-Serif" font-size="10.00">nlohmann::json_pointer</text>
<text xml:space="preserve" text-anchor="middle" x="373.38" y="-6.5" font-family="Helvetica,sans-Serif" font-size="10.00">::replace_substring</text>
</a>
</g>
</g>
<!-- Node5&#45;&gt;Node6 -->
<g id="edge5" class="edge">
<title>Node5&#45;&gt;Node6</title>
<path fill="none" stroke="#63b8ff" d="M269.53,-16C280.57,-16 292.25,-16 303.61,-16"/>
<polygon fill="#63b8ff" stroke="#63b8ff" points="303.32,-19.5 313.32,-16 303.32,-12.5 303.32,-19.5"/>
</g>
</g>
</svg>
