<?xml version="1.0" encoding="UTF-8" standalone="no"?>
<!DOCTYPE svg PUBLIC "-//W3C//DTD SVG 1.1//EN"
 "http://www.w3.org/Graphics/SVG/1.1/DTD/svg11.dtd">
<!-- Generated by graphviz version 13.1.2 (20250808.2320)
 -->
<!-- Title: nlohmann::basic_json::at Pages: 1 -->
<svg width="762pt" height="90pt"
 viewBox="0.00 0.00 762.00 90.00" xmlns="http://www.w3.org/2000/svg" xmlns:xlink="http://www.w3.org/1999/xlink">
<g id="graph0" class="graph" transform="scale(1 1) rotate(0) translate(4 86)">
<title>nlohmann::basic_json::at</title>
<!-- Node1 -->
<g id="node1" class="node">
<title>Node1</title>
<g id="a_node1"><a xlink:title="access specified element via JSON Pointer">
<polygon fill="#999999" stroke="#666666" points="124.75,-48 0,-48 0,-28 124.75,-28 124.75,-48"/>
<text xml:space="preserve" text-anchor="middle" x="62.38" y="-34.5" font-family="Helvetica,sans-Serif" font-size="10.00">nlohmann::basic_json::at</text>
</a>
</g>
</g>
<!-- Node2 -->
<g id="node2" class="node">
<title>Node2</title>
<g id="a_node2"><a xlink:href="a01663.html#ac97f74aff788336b07bc5ecf85598b14" target="_top" xlink:title=" ">
<polygon fill="white" stroke="#666666" points="277.25,-54 160.75,-54 160.75,-22 277.25,-22 277.25,-54"/>
<text xml:space="preserve" text-anchor="start" x="168.75" y="-40.5" font-family="Helvetica,sans-Serif" font-size="10.00">nlohmann::json_pointer</text>
<text xml:space="preserve" text-anchor="middle" x="219" y="-28.5" font-family="Helvetica,sans-Serif" font-size="10.00">::get_checked</text>
</a>
</g>
</g>
<!-- Node1&#45;&gt;Node2 -->
<g id="edge1" class="edge">
<title>Node1&#45;&gt;Node2</title>
<path fill="none" stroke="#63b8ff" d="M124.93,-38C132.95,-38 141.19,-38 149.32,-38"/>
<polygon fill="#63b8ff" stroke="#63b8ff" points="149.16,-41.5 159.16,-38 149.16,-34.5 149.16,-41.5"/>
</g>
<!-- Node3 -->
<g id="node3" class="node">
<title>Node3</title>
<g id="a_node3"><a xlink:href="a01663.html#ae28e4b79b9d4fac9e6dca29f47f946fa" target="_top" xlink:title=" ">
<polygon fill="white" stroke="#666666" points="429.75,-76 313.25,-76 313.25,-44 429.75,-44 429.75,-76"/>
<text xml:space="preserve" text-anchor="start" x="321.25" y="-62.5" font-family="Helvetica,sans-Serif" font-size="10.00">nlohmann::json_pointer</text>
<text xml:space="preserve" text-anchor="middle" x="371.5" y="-50.5" font-family="Helvetica,sans-Serif" font-size="10.00">::array_index</text>
</a>
</g>
</g>
<!-- Node2&#45;&gt;Node3 -->
<g id="edge2" class="edge">
<title>Node2&#45;&gt;Node3</title>
<path fill="none" stroke="#63b8ff" d="M277.33,-46.38C285.23,-47.54 293.42,-48.73 301.5,-49.91"/>
<polygon fill="#63b8ff" stroke="#63b8ff" points="300.94,-53.37 311.34,-51.35 301.95,-46.44 300.94,-53.37"/>
</g>
<!-- Node7 -->
<g id="node7" class="node">
<title>Node7</title>
<g id="a_node7"><a xlink:href="a01575.html#a3f6d82a6f967c4728a1ec735a7867073" target="_top" xlink:title=" ">
<polygon fill="white" stroke="#666666" points="577.75,-32 471,-32 471,0 577.75,0 577.75,-32"/>
<text xml:space="preserve" text-anchor="start" x="479" y="-18.5" font-family="Helvetica,sans-Serif" font-size="10.00">nlohmann::detail::out</text>
<text xml:space="preserve" text-anchor="middle" x="524.38" y="-6.5" font-family="Helvetica,sans-Serif" font-size="10.00">_of_range::create</text>
</a>
</g>
</g>
<!-- Node2&#45;&gt;Node7 -->
<g id="edge8" class="edge">
<title>Node2&#45;&gt;Node7</title>
<path fill="none" stroke="#63b8ff" d="M277.42,-33.84C329.19,-30.08 405.24,-24.57 459.04,-20.67"/>
<polygon fill="#63b8ff" stroke="#63b8ff" points="459.28,-24.16 469,-19.94 458.77,-17.18 459.28,-24.16"/>
</g>
<!-- Node4 -->
<g id="node4" class="node">
<title>Node4</title>
<g id="a_node4"><a xlink:href="a01563.html#a137ea4d27de45d8a844fd13451d40f3d" target="_top" xlink:title="create a parse error exception">
<polygon fill="white" stroke="#666666" points="583,-82 465.75,-82 465.75,-50 583,-50 583,-82"/>
<text xml:space="preserve" text-anchor="start" x="473.75" y="-68.5" font-family="Helvetica,sans-Serif" font-size="10.00">nlohmann::detail::parse</text>
<text xml:space="preserve" text-anchor="middle" x="524.38" y="-56.5" font-family="Helvetica,sans-Serif" font-size="10.00">_error::create</text>
</a>
</g>
</g>
<!-- Node3&#45;&gt;Node4 -->
<g id="edge3" class="edge">
<title>Node3&#45;&gt;Node4</title>
<path fill="none" stroke="#63b8ff" d="M429.97,-62.29C437.84,-62.6 445.98,-62.92 454.03,-63.24"/>
<polygon fill="#63b8ff" stroke="#63b8ff" points="453.67,-66.73 463.8,-63.63 453.95,-59.74 453.67,-66.73"/>
</g>
<!-- Node3&#45;&gt;Node7 -->
<g id="edge6" class="edge">
<title>Node3&#45;&gt;Node7</title>
<path fill="none" stroke="#63b8ff" d="M428.68,-43.62C438.77,-40.67 449.35,-37.59 459.64,-34.59"/>
<polygon fill="#63b8ff" stroke="#63b8ff" points="460.57,-37.96 469.19,-31.8 458.61,-31.24 460.57,-37.96"/>
</g>
<!-- Node5 -->
<g id="node5" class="node">
<title>Node5</title>
<g id="a_node5"><a xlink:href="a01559.html#abf41a7e9178356314082284e6cfea278" target="_top" xlink:title=" ">
<polygon fill="white" stroke="#666666" points="754.25,-32 619,-32 619,0 754.25,0 754.25,-32"/>
<text xml:space="preserve" text-anchor="start" x="627" y="-18.5" font-family="Helvetica,sans-Serif" font-size="10.00">nlohmann::detail::exception</text>
<text xml:space="preserve" text-anchor="middle" x="686.62" y="-6.5" font-family="Helvetica,sans-Serif" font-size="10.00">::name</text>
</a>
</g>
</g>
<!-- Node4&#45;&gt;Node5 -->
<g id="edge4" class="edge">
<title>Node4&#45;&gt;Node5</title>
<path fill="none" stroke="#63b8ff" d="M577.85,-49.63C591.89,-45.25 607.22,-40.46 621.79,-35.92"/>
<polygon fill="#63b8ff" stroke="#63b8ff" points="622.81,-39.26 631.32,-32.95 620.73,-32.58 622.81,-39.26"/>
</g>
<!-- Node6 -->
<g id="node6" class="node">
<title>Node6</title>
<g id="a_node6"><a xlink:href="a01563.html#aefe74adeaa48781464ba2fd2ec63d221" target="_top" xlink:title=" ">
<polygon fill="white" stroke="#666666" points="745.25,-82 628,-82 628,-50 745.25,-50 745.25,-82"/>
<text xml:space="preserve" text-anchor="start" x="636" y="-68.5" font-family="Helvetica,sans-Serif" font-size="10.00">nlohmann::detail::parse</text>
<text xml:space="preserve" text-anchor="middle" x="686.62" y="-56.5" font-family="Helvetica,sans-Serif" font-size="10.00">_error::position_string</text>
</a>
</g>
</g>
<!-- Node4&#45;&gt;Node6 -->
<g id="edge5" class="edge">
<title>Node4&#45;&gt;Node6</title>
<path fill="none" stroke="#63b8ff" d="M583.23,-66C593.94,-66 605.23,-66 616.25,-66"/>
<polygon fill="#63b8ff" stroke="#63b8ff" points="616.07,-69.5 626.07,-66 616.07,-62.5 616.07,-69.5"/>
</g>
<!-- Node7&#45;&gt;Node5 -->
<g id="edge7" class="edge">
<title>Node7&#45;&gt;Node5</title>
<path fill="none" stroke="#63b8ff" d="M577.85,-16C587.33,-16 597.4,-16 607.44,-16"/>
<polygon fill="#63b8ff" stroke="#63b8ff" points="607.2,-19.5 617.2,-16 607.2,-12.5 607.2,-19.5"/>
</g>
</g>
</svg>
