<?xml version="1.0" encoding="UTF-8" standalone="no"?>
<!DOCTYPE svg PUBLIC "-//W3C//DTD SVG 1.1//EN"
 "http://www.w3.org/Graphics/SVG/1.1/DTD/svg11.dtd">
<!-- Generated by graphviz version 13.1.2 (20250808.2320)
 -->
<!-- Title: nlohmann::basic_json::insert Pages: 1 -->
<svg width="447pt" height="190pt"
 viewBox="0.00 0.00 447.00 190.00" xmlns="http://www.w3.org/2000/svg" xmlns:xlink="http://www.w3.org/1999/xlink">
<g id="graph0" class="graph" transform="scale(1 1) rotate(0) translate(4 186)">
<title>nlohmann::basic_json::insert</title>
<!-- Node1 -->
<g id="node1" class="node">
<title>Node1</title>
<g id="a_node1"><a xlink:title="inserts elements">
<polygon fill="#999999" stroke="#666666" points="110.5,-107 0,-107 0,-75 110.5,-75 110.5,-107"/>
<text xml:space="preserve" text-anchor="start" x="8" y="-93.5" font-family="Helvetica,sans-Serif" font-size="10.00">nlohmann::basic_json</text>
<text xml:space="preserve" text-anchor="middle" x="55.25" y="-81.5" font-family="Helvetica,sans-Serif" font-size="10.00">::insert</text>
</a>
</g>
</g>
<!-- Node2 -->
<g id="node2" class="node">
<title>Node2</title>
<g id="a_node2"><a xlink:href="a01567.html#a4e849260a3caa1b288c7e619130c6c09" target="_top" xlink:title=" ">
<polygon fill="white" stroke="#666666" points="267.5,-182 146.5,-182 146.5,-150 267.5,-150 267.5,-182"/>
<text xml:space="preserve" text-anchor="start" x="154.5" y="-168.5" font-family="Helvetica,sans-Serif" font-size="10.00">nlohmann::detail::invalid</text>
<text xml:space="preserve" text-anchor="middle" x="207" y="-156.5" font-family="Helvetica,sans-Serif" font-size="10.00">_iterator::create</text>
</a>
</g>
</g>
<!-- Node1&#45;&gt;Node2 -->
<g id="edge1" class="edge">
<title>Node1&#45;&gt;Node2</title>
<path fill="none" stroke="#63b8ff" d="M83.89,-107.33C101.55,-117.51 125.07,-130.6 146.5,-141 149.24,-142.33 152.07,-143.66 154.94,-144.97"/>
<polygon fill="#63b8ff" stroke="#63b8ff" points="153.47,-148.15 164.03,-149.02 156.32,-141.76 153.47,-148.15"/>
</g>
<!-- Node4 -->
<g id="node4" class="node">
<title>Node4</title>
<g id="a_node4"><a xlink:href="a01571.html#aecc083aea4b698c33d042670ba50c10f" target="_top" xlink:title=" ">
<polygon fill="white" stroke="#666666" points="263,-132 151,-132 151,-100 263,-100 263,-132"/>
<text xml:space="preserve" text-anchor="start" x="159" y="-118.5" font-family="Helvetica,sans-Serif" font-size="10.00">nlohmann::detail::type</text>
<text xml:space="preserve" text-anchor="middle" x="207" y="-106.5" font-family="Helvetica,sans-Serif" font-size="10.00">_error::create</text>
</a>
</g>
</g>
<!-- Node1&#45;&gt;Node4 -->
<g id="edge3" class="edge">
<title>Node1&#45;&gt;Node4</title>
<path fill="none" stroke="#63b8ff" d="M110.74,-100.1C120.05,-101.65 129.83,-103.28 139.41,-104.88"/>
<polygon fill="#63b8ff" stroke="#63b8ff" points="138.62,-108.3 149.06,-106.49 139.77,-101.39 138.62,-108.3"/>
</g>
<!-- Node5 -->
<g id="node5" class="node">
<title>Node5</title>
<g id="a_node5"><a xlink:href="a01659.html#a57e8411a770a6263d6d8f2116c37f3aa" target="_top" xlink:title="return whether value is an object">
<polygon fill="white" stroke="#666666" points="262.25,-82 151.75,-82 151.75,-50 262.25,-50 262.25,-82"/>
<text xml:space="preserve" text-anchor="start" x="159.75" y="-68.5" font-family="Helvetica,sans-Serif" font-size="10.00">nlohmann::basic_json</text>
<text xml:space="preserve" text-anchor="middle" x="207" y="-56.5" font-family="Helvetica,sans-Serif" font-size="10.00">::is_object</text>
</a>
</g>
</g>
<!-- Node1&#45;&gt;Node5 -->
<g id="edge5" class="edge">
<title>Node1&#45;&gt;Node5</title>
<path fill="none" stroke="#63b8ff" d="M110.74,-81.9C120.23,-80.32 130.2,-78.65 139.97,-77.02"/>
<polygon fill="#63b8ff" stroke="#63b8ff" points="140.52,-80.48 149.81,-75.38 139.37,-73.58 140.52,-80.48"/>
</g>
<!-- Node6 -->
<g id="node6" class="node">
<title>Node6</title>
<g id="a_node6"><a xlink:href="a01659.html#ab8811fc4eab6091b32b34b3ac3e90474" target="_top" xlink:title="return the type as string">
<polygon fill="white" stroke="#666666" points="262.25,-32 151.75,-32 151.75,0 262.25,0 262.25,-32"/>
<text xml:space="preserve" text-anchor="start" x="159.75" y="-18.5" font-family="Helvetica,sans-Serif" font-size="10.00">nlohmann::basic_json</text>
<text xml:space="preserve" text-anchor="middle" x="207" y="-6.5" font-family="Helvetica,sans-Serif" font-size="10.00">::type_name</text>
</a>
</g>
</g>
<!-- Node1&#45;&gt;Node6 -->
<g id="edge6" class="edge">
<title>Node1&#45;&gt;Node6</title>
<path fill="none" stroke="#63b8ff" d="M83.89,-74.67C101.55,-64.49 125.07,-51.4 146.5,-41 149.24,-39.67 152.07,-38.34 154.94,-37.03"/>
<polygon fill="#63b8ff" stroke="#63b8ff" points="156.32,-40.24 164.03,-32.98 153.47,-33.85 156.32,-40.24"/>
</g>
<!-- Node3 -->
<g id="node3" class="node">
<title>Node3</title>
<g id="a_node3"><a xlink:href="a01559.html#abf41a7e9178356314082284e6cfea278" target="_top" xlink:title=" ">
<polygon fill="white" stroke="#666666" points="438.75,-157 303.5,-157 303.5,-125 438.75,-125 438.75,-157"/>
<text xml:space="preserve" text-anchor="start" x="311.5" y="-143.5" font-family="Helvetica,sans-Serif" font-size="10.00">nlohmann::detail::exception</text>
<text xml:space="preserve" text-anchor="middle" x="371.12" y="-131.5" font-family="Helvetica,sans-Serif" font-size="10.00">::name</text>
</a>
</g>
</g>
<!-- Node2&#45;&gt;Node3 -->
<g id="edge2" class="edge">
<title>Node2&#45;&gt;Node3</title>
<path fill="none" stroke="#63b8ff" d="M267.91,-156.76C275.69,-155.56 283.76,-154.32 291.79,-153.08"/>
<polygon fill="#63b8ff" stroke="#63b8ff" points="292.24,-156.55 301.59,-151.57 291.18,-149.63 292.24,-156.55"/>
</g>
<!-- Node4&#45;&gt;Node3 -->
<g id="edge4" class="edge">
<title>Node4&#45;&gt;Node3</title>
<path fill="none" stroke="#63b8ff" d="M263.34,-124.53C272.57,-125.96 282.3,-127.46 291.97,-128.95"/>
<polygon fill="#63b8ff" stroke="#63b8ff" points="291.35,-132.39 301.77,-130.46 292.42,-125.48 291.35,-132.39"/>
</g>
</g>
</svg>
