<?xml version="1.0" encoding="UTF-8" standalone="no"?>
<!DOCTYPE svg PUBLIC "-//W3C//DTD SVG 1.1//EN"
 "http://www.w3.org/Graphics/SVG/1.1/DTD/svg11.dtd">
<!-- Generated by graphviz version 13.1.2 (20250808.2320)
 -->
<!-- Title: nlohmann::basic_json::unflatten Pages: 1 -->
<svg width="901pt" height="134pt"
 viewBox="0.00 0.00 901.00 134.00" xmlns="http://www.w3.org/2000/svg" xmlns:xlink="http://www.w3.org/1999/xlink">
<g id="graph0" class="graph" transform="scale(1 1) rotate(0) translate(4 130)">
<title>nlohmann::basic_json::unflatten</title>
<!-- Node1 -->
<g id="node1" class="node">
<title>Node1</title>
<g id="a_node1"><a xlink:title="unflatten a previously flattened JSON value">
<polygon fill="#999999" stroke="#666666" points="110.5,-104 0,-104 0,-72 110.5,-72 110.5,-104"/>
<text xml:space="preserve" text-anchor="start" x="8" y="-90.5" font-family="Helvetica,sans-Serif" font-size="10.00">nlohmann::basic_json</text>
<text xml:space="preserve" text-anchor="middle" x="55.25" y="-78.5" font-family="Helvetica,sans-Serif" font-size="10.00">::unflatten</text>
</a>
</g>
</g>
<!-- Node2 -->
<g id="node2" class="node">
<title>Node2</title>
<g id="a_node2"><a xlink:href="a01663.html#a920065221e3c81676c3211c100d024a7" target="_top" xlink:title=" ">
<polygon fill="white" stroke="#666666" points="263,-104 146.5,-104 146.5,-72 263,-72 263,-104"/>
<text xml:space="preserve" text-anchor="start" x="154.5" y="-90.5" font-family="Helvetica,sans-Serif" font-size="10.00">nlohmann::json_pointer</text>
<text xml:space="preserve" text-anchor="middle" x="204.75" y="-78.5" font-family="Helvetica,sans-Serif" font-size="10.00">::unflatten</text>
</a>
</g>
</g>
<!-- Node1&#45;&gt;Node2 -->
<g id="edge1" class="edge">
<title>Node1&#45;&gt;Node2</title>
<path fill="none" stroke="#63b8ff" d="M110.75,-88C118.56,-88 126.68,-88 134.73,-88"/>
<polygon fill="#63b8ff" stroke="#63b8ff" points="134.49,-91.5 144.49,-88 134.49,-84.5 134.49,-91.5"/>
</g>
<!-- Node3 -->
<g id="node3" class="node">
<title>Node3</title>
<g id="a_node3"><a xlink:href="a01571.html#aecc083aea4b698c33d042670ba50c10f" target="_top" xlink:title=" ">
<polygon fill="white" stroke="#666666" points="565.75,-126 453.75,-126 453.75,-94 565.75,-94 565.75,-126"/>
<text xml:space="preserve" text-anchor="start" x="461.75" y="-112.5" font-family="Helvetica,sans-Serif" font-size="10.00">nlohmann::detail::type</text>
<text xml:space="preserve" text-anchor="middle" x="509.75" y="-100.5" font-family="Helvetica,sans-Serif" font-size="10.00">_error::create</text>
</a>
</g>
</g>
<!-- Node2&#45;&gt;Node3 -->
<g id="edge2" class="edge">
<title>Node2&#45;&gt;Node3</title>
<path fill="none" stroke="#63b8ff" d="M263.46,-92.19C314.32,-95.88 388.45,-101.27 441.89,-105.15"/>
<polygon fill="#63b8ff" stroke="#63b8ff" points="441.57,-108.63 451.8,-105.86 442.07,-101.65 441.57,-108.63"/>
</g>
<!-- Node5 -->
<g id="node5" class="node">
<title>Node5</title>
<g id="a_node5"><a xlink:href="a01663.html#aa2f86764d08ce1fb82327327e7f9a87d" target="_top" xlink:title="create and return a reference to the pointed to value">
<polygon fill="white" stroke="#666666" points="415.5,-82 299,-82 299,-50 415.5,-50 415.5,-82"/>
<text xml:space="preserve" text-anchor="start" x="307" y="-68.5" font-family="Helvetica,sans-Serif" font-size="10.00">nlohmann::json_pointer</text>
<text xml:space="preserve" text-anchor="middle" x="357.25" y="-56.5" font-family="Helvetica,sans-Serif" font-size="10.00">::get_and_create</text>
</a>
</g>
</g>
<!-- Node2&#45;&gt;Node5 -->
<g id="edge4" class="edge">
<title>Node2&#45;&gt;Node5</title>
<path fill="none" stroke="#63b8ff" d="M263.08,-79.62C270.98,-78.46 279.17,-77.27 287.25,-76.09"/>
<polygon fill="#63b8ff" stroke="#63b8ff" points="287.7,-79.56 297.09,-74.65 286.69,-72.63 287.7,-79.56"/>
</g>
<!-- Node4 -->
<g id="node4" class="node">
<title>Node4</title>
<g id="a_node4"><a xlink:href="a01559.html#abf41a7e9178356314082284e6cfea278" target="_top" xlink:title=" ">
<polygon fill="white" stroke="#666666" points="892.5,-82 757.25,-82 757.25,-50 892.5,-50 892.5,-82"/>
<text xml:space="preserve" text-anchor="start" x="765.25" y="-68.5" font-family="Helvetica,sans-Serif" font-size="10.00">nlohmann::detail::exception</text>
<text xml:space="preserve" text-anchor="middle" x="824.88" y="-56.5" font-family="Helvetica,sans-Serif" font-size="10.00">::name</text>
</a>
</g>
</g>
<!-- Node3&#45;&gt;Node4 -->
<g id="edge3" class="edge">
<title>Node3&#45;&gt;Node4</title>
<path fill="none" stroke="#63b8ff" d="M565.99,-107.27C608.62,-104.62 668.94,-99.68 721.25,-91 731.21,-89.35 741.64,-87.25 751.87,-84.97"/>
<polygon fill="#63b8ff" stroke="#63b8ff" points="752.42,-88.43 761.39,-82.78 750.86,-81.61 752.42,-88.43"/>
</g>
<!-- Node5&#45;&gt;Node3 -->
<g id="edge11" class="edge">
<title>Node5&#45;&gt;Node3</title>
<path fill="none" stroke="#63b8ff" d="M414.29,-82.38C423.54,-85.09 433.21,-87.91 442.68,-90.68"/>
<polygon fill="#63b8ff" stroke="#63b8ff" points="441.63,-94.02 452.21,-93.47 443.6,-87.3 441.63,-94.02"/>
</g>
<!-- Node6 -->
<g id="node6" class="node">
<title>Node6</title>
<g id="a_node6"><a xlink:href="a01663.html#ae28e4b79b9d4fac9e6dca29f47f946fa" target="_top" xlink:title=" ">
<polygon fill="white" stroke="#666666" points="568,-76 451.5,-76 451.5,-44 568,-44 568,-76"/>
<text xml:space="preserve" text-anchor="start" x="459.5" y="-62.5" font-family="Helvetica,sans-Serif" font-size="10.00">nlohmann::json_pointer</text>
<text xml:space="preserve" text-anchor="middle" x="509.75" y="-50.5" font-family="Helvetica,sans-Serif" font-size="10.00">::array_index</text>
</a>
</g>
</g>
<!-- Node5&#45;&gt;Node6 -->
<g id="edge5" class="edge">
<title>Node5&#45;&gt;Node6</title>
<path fill="none" stroke="#63b8ff" d="M415.58,-63.71C423.48,-63.4 431.67,-63.07 439.75,-62.75"/>
<polygon fill="#63b8ff" stroke="#63b8ff" points="439.72,-66.25 449.57,-62.36 439.44,-59.26 439.72,-66.25"/>
</g>
<!-- Node7 -->
<g id="node7" class="node">
<title>Node7</title>
<g id="a_node7"><a xlink:href="a01563.html#a137ea4d27de45d8a844fd13451d40f3d" target="_top" xlink:title="create a parse error exception">
<polygon fill="white" stroke="#666666" points="721.25,-32 604,-32 604,0 721.25,0 721.25,-32"/>
<text xml:space="preserve" text-anchor="start" x="612" y="-18.5" font-family="Helvetica,sans-Serif" font-size="10.00">nlohmann::detail::parse</text>
<text xml:space="preserve" text-anchor="middle" x="662.62" y="-6.5" font-family="Helvetica,sans-Serif" font-size="10.00">_error::create</text>
</a>
</g>
</g>
<!-- Node6&#45;&gt;Node7 -->
<g id="edge6" class="edge">
<title>Node6&#45;&gt;Node7</title>
<path fill="none" stroke="#63b8ff" d="M566.93,-43.62C575.81,-41.03 585.06,-38.33 594.16,-35.67"/>
<polygon fill="#63b8ff" stroke="#63b8ff" points="595.07,-39.05 603.69,-32.89 593.11,-32.33 595.07,-39.05"/>
</g>
<!-- Node9 -->
<g id="node9" class="node">
<title>Node9</title>
<g id="a_node9"><a xlink:href="a01575.html#a3f6d82a6f967c4728a1ec735a7867073" target="_top" xlink:title=" ">
<polygon fill="white" stroke="#666666" points="716,-82 609.25,-82 609.25,-50 716,-50 716,-82"/>
<text xml:space="preserve" text-anchor="start" x="617.25" y="-68.5" font-family="Helvetica,sans-Serif" font-size="10.00">nlohmann::detail::out</text>
<text xml:space="preserve" text-anchor="middle" x="662.62" y="-56.5" font-family="Helvetica,sans-Serif" font-size="10.00">_of_range::create</text>
</a>
</g>
</g>
<!-- Node6&#45;&gt;Node9 -->
<g id="edge9" class="edge">
<title>Node6&#45;&gt;Node9</title>
<path fill="none" stroke="#63b8ff" d="M568.22,-62.29C577.8,-62.67 587.78,-63.06 597.51,-63.45"/>
<polygon fill="#63b8ff" stroke="#63b8ff" points="597.13,-66.94 607.26,-63.84 597.41,-59.94 597.13,-66.94"/>
</g>
<!-- Node7&#45;&gt;Node4 -->
<g id="edge7" class="edge">
<title>Node7&#45;&gt;Node4</title>
<path fill="none" stroke="#63b8ff" d="M716.1,-32.37C730.14,-36.75 745.47,-41.54 760.04,-46.08"/>
<polygon fill="#63b8ff" stroke="#63b8ff" points="758.98,-49.42 769.57,-49.05 761.06,-42.74 758.98,-49.42"/>
</g>
<!-- Node8 -->
<g id="node8" class="node">
<title>Node8</title>
<g id="a_node8"><a xlink:href="a01563.html#aefe74adeaa48781464ba2fd2ec63d221" target="_top" xlink:title=" ">
<polygon fill="white" stroke="#666666" points="883.5,-32 766.25,-32 766.25,0 883.5,0 883.5,-32"/>
<text xml:space="preserve" text-anchor="start" x="774.25" y="-18.5" font-family="Helvetica,sans-Serif" font-size="10.00">nlohmann::detail::parse</text>
<text xml:space="preserve" text-anchor="middle" x="824.88" y="-6.5" font-family="Helvetica,sans-Serif" font-size="10.00">_error::position_string</text>
</a>
</g>
</g>
<!-- Node7&#45;&gt;Node8 -->
<g id="edge8" class="edge">
<title>Node7&#45;&gt;Node8</title>
<path fill="none" stroke="#63b8ff" d="M721.48,-16C732.19,-16 743.48,-16 754.5,-16"/>
<polygon fill="#63b8ff" stroke="#63b8ff" points="754.32,-19.5 764.32,-16 754.32,-12.5 754.32,-19.5"/>
</g>
<!-- Node9&#45;&gt;Node4 -->
<g id="edge10" class="edge">
<title>Node9&#45;&gt;Node4</title>
<path fill="none" stroke="#63b8ff" d="M716.1,-66C725.58,-66 735.65,-66 745.69,-66"/>
<polygon fill="#63b8ff" stroke="#63b8ff" points="745.45,-69.5 755.45,-66 745.45,-62.5 745.45,-69.5"/>
</g>
</g>
</svg>
