<?xml version="1.0" encoding="UTF-8" standalone="no"?>
<!DOCTYPE svg PUBLIC "-//W3C//DTD SVG 1.1//EN"
 "http://www.w3.org/Graphics/SVG/1.1/DTD/svg11.dtd">
<!-- Generated by graphviz version 13.1.2 (20250808.2320)
 -->
<!-- Title: nlohmann::basic_json::value Pages: 1 -->
<svg width="276pt" height="90pt"
 viewBox="0.00 0.00 276.00 90.00" xmlns="http://www.w3.org/2000/svg" xmlns:xlink="http://www.w3.org/1999/xlink">
<g id="graph0" class="graph" transform="scale(1 1) rotate(0) translate(4 86)">
<title>nlohmann::basic_json::value</title>
<!-- Node1 -->
<g id="node1" class="node">
<title>Node1</title>
<g id="a_node1"><a xlink:title="access specified object element with default value">
<polygon fill="#999999" stroke="#666666" points="267.5,-57 157,-57 157,-25 267.5,-25 267.5,-57"/>
<text xml:space="preserve" text-anchor="start" x="165" y="-43.5" font-family="Helvetica,sans-Serif" font-size="10.00">nlohmann::basic_json</text>
<text xml:space="preserve" text-anchor="middle" x="212.25" y="-31.5" font-family="Helvetica,sans-Serif" font-size="10.00">::value</text>
</a>
</g>
</g>
<!-- Node2 -->
<g id="node2" class="node">
<title>Node2</title>
<g id="a_node2"><a xlink:href="a02059.html#ad7f122fa9bfc5aa4d9b65a3059892146" target="_top" xlink:title="constructor for strings">
<polygon fill="white" stroke="#666666" points="121,-82 0,-82 0,-50 121,-50 121,-82"/>
<text xml:space="preserve" text-anchor="start" x="8" y="-68.5" font-family="Helvetica,sans-Serif" font-size="10.00">nlohmann::basic_json</text>
<text xml:space="preserve" text-anchor="middle" x="60.5" y="-56.5" font-family="Helvetica,sans-Serif" font-size="10.00">::json_value::json_value</text>
</a>
</g>
</g>
<!-- Node1&#45;&gt;Node2 -->
<g id="edge1" class="edge">
<title>Node1&#45;&gt;Node2</title>
<path fill="none" stroke="#63b8ff" d="M145.5,-51.98C137.43,-53.32 129.23,-54.69 121.26,-56.02"/>
<polygon fill="#63b8ff" stroke="#63b8ff" points="145.98,-55.44 155.27,-50.35 144.83,-48.54 145.98,-55.44"/>
</g>
<!-- Node3 -->
<g id="node3" class="node">
<title>Node3</title>
<g id="a_node3"><a xlink:href="a01659.html#adcfdefe95d5c2471a5c97e911d46ee88" target="_top" xlink:title="overload for a default value of type const char*">
<polygon fill="white" stroke="#666666" points="115.75,-32 5.25,-32 5.25,0 115.75,0 115.75,-32"/>
<text xml:space="preserve" text-anchor="start" x="13.25" y="-18.5" font-family="Helvetica,sans-Serif" font-size="10.00">nlohmann::basic_json</text>
<text xml:space="preserve" text-anchor="middle" x="60.5" y="-6.5" font-family="Helvetica,sans-Serif" font-size="10.00">::value</text>
</a>
</g>
</g>
<!-- Node1&#45;&gt;Node3 -->
<g id="edge2" class="edge">
<title>Node1&#45;&gt;Node3</title>
<path fill="none" stroke="#63b8ff" d="M145.44,-30.01C135.67,-28.38 125.7,-26.72 116.2,-25.13"/>
<polygon fill="#63b8ff" stroke="#63b8ff" points="144.83,-33.46 155.27,-31.65 145.98,-26.56 144.83,-33.46"/>
</g>
</g>
</svg>
