<?xml version="1.0" encoding="UTF-8" standalone="no"?>
<!DOCTYPE svg PUBLIC "-//W3C//DTD SVG 1.1//EN"
 "http://www.w3.org/Graphics/SVG/1.1/DTD/svg11.dtd">
<!-- Generated by graphviz version 13.1.2 (20250808.2320)
 -->
<!-- Title: nlohmann::basic_json::end Pages: 1 -->
<svg width="449pt" height="40pt"
 viewBox="0.00 0.00 449.00 40.00" xmlns="http://www.w3.org/2000/svg" xmlns:xlink="http://www.w3.org/1999/xlink">
<g id="graph0" class="graph" transform="scale(1 1) rotate(0) translate(4 36)">
<title>nlohmann::basic_json::end</title>
<!-- Node1 -->
<g id="node1" class="node">
<title>Node1</title>
<g id="a_node1"><a xlink:title="returns an iterator to one past the last element">
<polygon fill="#999999" stroke="#666666" points="132.25,-26 0,-26 0,-6 132.25,-6 132.25,-26"/>
<text xml:space="preserve" text-anchor="middle" x="66.12" y="-12.5" font-family="Helvetica,sans-Serif" font-size="10.00">nlohmann::basic_json::end</text>
</a>
</g>
</g>
<!-- Node2 -->
<g id="node2" class="node">
<title>Node2</title>
<g id="a_node2"><a xlink:href="a02011.html#a23e50ad4c13aa62d9ac7f60a123823ee" target="_top" xlink:title="set the iterator past the last value">
<polygon fill="white" stroke="#666666" points="275,-32 168.25,-32 168.25,0 275,0 275,-32"/>
<text xml:space="preserve" text-anchor="start" x="176.25" y="-18.5" font-family="Helvetica,sans-Serif" font-size="10.00">nlohmann::detail::iter</text>
<text xml:space="preserve" text-anchor="middle" x="221.62" y="-6.5" font-family="Helvetica,sans-Serif" font-size="10.00">_impl::set_end</text>
</a>
</g>
</g>
<!-- Node1&#45;&gt;Node2 -->
<g id="edge1" class="edge">
<title>Node1&#45;&gt;Node2</title>
<path fill="none" stroke="#63b8ff" d="M132.67,-16C140.55,-16 148.6,-16 156.46,-16"/>
<polygon fill="#63b8ff" stroke="#63b8ff" points="156.3,-19.5 166.3,-16 156.3,-12.5 156.3,-19.5"/>
</g>
<!-- Node3 -->
<g id="node3" class="node">
<title>Node3</title>
<g id="a_node3"><a xlink:href="a02003.html#ad26a823483846a12d890c3feed3097eb" target="_top" xlink:title="set iterator to a defined past the end">
<polygon fill="white" stroke="#666666" points="441,-32 311,-32 311,0 441,0 441,-32"/>
<text xml:space="preserve" text-anchor="start" x="319" y="-18.5" font-family="Helvetica,sans-Serif" font-size="10.00">nlohmann::detail::primitive</text>
<text xml:space="preserve" text-anchor="middle" x="376" y="-6.5" font-family="Helvetica,sans-Serif" font-size="10.00">_iterator_t::set_end</text>
</a>
</g>
</g>
<!-- Node2&#45;&gt;Node3 -->
<g id="edge2" class="edge">
<title>Node2&#45;&gt;Node3</title>
<path fill="none" stroke="#63b8ff" d="M275.49,-16C283.2,-16 291.27,-16 299.32,-16"/>
<polygon fill="#63b8ff" stroke="#63b8ff" points="299.16,-19.5 309.16,-16 299.16,-12.5 299.16,-19.5"/>
</g>
</g>
</svg>
