<?xml version="1.0" encoding="UTF-8" standalone="no"?>
<!DOCTYPE svg PUBLIC "-//W3C//DTD SVG 1.1//EN"
 "http://www.w3.org/Graphics/SVG/1.1/DTD/svg11.dtd">
<!-- Generated by graphviz version 13.1.2 (20250808.2320)
 -->
<!-- Title: nlohmann::json_pointer::escape Pages: 1 -->
<svg width="424pt" height="126pt"
 viewBox="0.00 0.00 424.00 126.00" xmlns="http://www.w3.org/2000/svg" xmlns:xlink="http://www.w3.org/1999/xlink">
<g id="graph0" class="graph" transform="scale(1 1) rotate(0) translate(4 122)">
<title>nlohmann::json_pointer::escape</title>
<!-- Node1 -->
<g id="node1" class="node">
<title>Node1</title>
<g id="a_node1"><a xlink:title="escape &quot;~&quot; to &quot;~0&quot; and &quot;/&quot; to &quot;~1&quot;">
<polygon fill="#999999" stroke="#666666" points="415.5,-66 299,-66 299,-34 415.5,-34 415.5,-66"/>
<text xml:space="preserve" text-anchor="start" x="307" y="-52.5" font-family="Helvetica,sans-Serif" font-size="10.00">nlohmann::json_pointer</text>
<text xml:space="preserve" text-anchor="middle" x="357.25" y="-40.5" font-family="Helvetica,sans-Serif" font-size="10.00">::escape</text>
</a>
</g>
</g>
<!-- Node2 -->
<g id="node2" class="node">
<title>Node2</title>
<g id="a_node2"><a xlink:href="a01659.html#a1c1f21327df91a4dd6c5f5a107240385" target="_top" xlink:title="creates a diff as a JSON patch">
<polygon fill="white" stroke="#666666" points="260,-100 149.5,-100 149.5,-68 260,-68 260,-100"/>
<text xml:space="preserve" text-anchor="start" x="157.5" y="-86.5" font-family="Helvetica,sans-Serif" font-size="10.00">nlohmann::basic_json</text>
<text xml:space="preserve" text-anchor="middle" x="204.75" y="-74.5" font-family="Helvetica,sans-Serif" font-size="10.00">::diff</text>
</a>
</g>
</g>
<!-- Node1&#45;&gt;Node2 -->
<g id="edge1" class="edge">
<title>Node1&#45;&gt;Node2</title>
<path fill="none" stroke="#63b8ff" d="M287.83,-65.46C278.65,-67.53 269.34,-69.63 260.44,-71.65"/>
<polygon fill="#63b8ff" stroke="#63b8ff" points="288.46,-68.9 297.45,-63.28 286.92,-62.07 288.46,-68.9"/>
</g>
<!-- Node3 -->
<g id="node3" class="node">
<title>Node3</title>
<g id="a_node3"><a xlink:href="a01663.html#ab0d7759d0caa6a0c0187916da28e6ee7" target="_top" xlink:title=" ">
<polygon fill="white" stroke="#666666" points="263,-32 146.5,-32 146.5,0 263,0 263,-32"/>
<text xml:space="preserve" text-anchor="start" x="154.5" y="-18.5" font-family="Helvetica,sans-Serif" font-size="10.00">nlohmann::json_pointer</text>
<text xml:space="preserve" text-anchor="middle" x="204.75" y="-6.5" font-family="Helvetica,sans-Serif" font-size="10.00">::flatten</text>
</a>
</g>
</g>
<!-- Node1&#45;&gt;Node3 -->
<g id="edge3" class="edge">
<title>Node1&#45;&gt;Node3</title>
<path fill="none" stroke="#63b8ff" d="M287.88,-34.55C279.7,-32.71 271.42,-30.84 263.42,-29.03"/>
<polygon fill="#63b8ff" stroke="#63b8ff" points="286.92,-37.93 297.45,-36.72 288.46,-31.1 286.92,-37.93"/>
</g>
<!-- Node2&#45;&gt;Node2 -->
<g id="edge2" class="edge">
<title>Node2&#45;&gt;Node2</title>
<path fill="none" stroke="#63b8ff" d="M229.66,-111.71C225.51,-115.48 217.21,-118 204.75,-118 181.97,-118 173.08,-109.58 178.06,-100.44"/>
<polygon fill="#63b8ff" stroke="#63b8ff" points="233.1,-112.36 231.2,-101.94 226.19,-111.27 233.1,-112.36"/>
</g>
<!-- Node3&#45;&gt;Node3 -->
<g id="edge5" class="edge">
<title>Node3&#45;&gt;Node3</title>
<path fill="none" stroke="#63b8ff" d="M229.66,-43.71C225.51,-47.48 217.21,-50 204.75,-50 181.97,-50 173.08,-41.58 178.06,-32.44"/>
<polygon fill="#63b8ff" stroke="#63b8ff" points="233.1,-44.36 231.2,-33.94 226.19,-43.27 233.1,-44.36"/>
</g>
<!-- Node4 -->
<g id="node4" class="node">
<title>Node4</title>
<g id="a_node4"><a xlink:href="a01659.html#ab7aa6e048e659481a036f2d872c7cba6" target="_top" xlink:title="return flattened JSON value">
<polygon fill="white" stroke="#666666" points="110.5,-32 0,-32 0,0 110.5,0 110.5,-32"/>
<text xml:space="preserve" text-anchor="start" x="8" y="-18.5" font-family="Helvetica,sans-Serif" font-size="10.00">nlohmann::basic_json</text>
<text xml:space="preserve" text-anchor="middle" x="55.25" y="-6.5" font-family="Helvetica,sans-Serif" font-size="10.00">::flatten</text>
</a>
</g>
</g>
<!-- Node3&#45;&gt;Node4 -->
<g id="edge4" class="edge">
<title>Node3&#45;&gt;Node4</title>
<path fill="none" stroke="#63b8ff" d="M134.97,-16C126.89,-16 118.73,-16 110.89,-16"/>
<polygon fill="#63b8ff" stroke="#63b8ff" points="134.79,-19.5 144.79,-16 134.79,-12.5 134.79,-19.5"/>
</g>
</g>
</svg>
