<?xml version="1.0" encoding="UTF-8" standalone="no"?>
<!DOCTYPE svg PUBLIC "-//W3C//DTD SVG 1.1//EN"
 "http://www.w3.org/Graphics/SVG/1.1/DTD/svg11.dtd">
<!-- Generated by graphviz version 13.1.2 (20250808.2320)
 -->
<!-- Title: nlohmann::basic_json::value Pages: 1 -->
<svg width="893pt" height="216pt"
 viewBox="0.00 0.00 893.00 216.00" xmlns="http://www.w3.org/2000/svg" xmlns:xlink="http://www.w3.org/1999/xlink">
<g id="graph0" class="graph" transform="scale(1 1) rotate(0) translate(4 212)">
<title>nlohmann::basic_json::value</title>
<!-- Node1 -->
<g id="node1" class="node">
<title>Node1</title>
<g id="a_node1"><a xlink:title="overload for a default value of type const char*">
<polygon fill="#999999" stroke="#666666" points="110.5,-120 0,-120 0,-88 110.5,-88 110.5,-120"/>
<text xml:space="preserve" text-anchor="start" x="8" y="-106.5" font-family="Helvetica,sans-Serif" font-size="10.00">nlohmann::basic_json</text>
<text xml:space="preserve" text-anchor="middle" x="55.25" y="-94.5" font-family="Helvetica,sans-Serif" font-size="10.00">::value</text>
</a>
</g>
</g>
<!-- Node2 -->
<g id="node2" class="node">
<title>Node2</title>
<g id="a_node2"><a xlink:href="a01659.html#a11641b35219676b225d9bd15c7677659" target="_top" xlink:title="access specified object element with default value">
<polygon fill="white" stroke="#666666" points="257,-120 146.5,-120 146.5,-88 257,-88 257,-120"/>
<text xml:space="preserve" text-anchor="start" x="154.5" y="-106.5" font-family="Helvetica,sans-Serif" font-size="10.00">nlohmann::basic_json</text>
<text xml:space="preserve" text-anchor="middle" x="201.75" y="-94.5" font-family="Helvetica,sans-Serif" font-size="10.00">::value</text>
</a>
</g>
</g>
<!-- Node1&#45;&gt;Node2 -->
<g id="edge1" class="edge">
<title>Node1&#45;&gt;Node2</title>
<path fill="none" stroke="#63b8ff" d="M110.88,-104C118.61,-104 126.63,-104 134.55,-104"/>
<polygon fill="#63b8ff" stroke="#63b8ff" points="134.53,-107.5 144.53,-104 134.53,-100.5 134.53,-107.5"/>
</g>
<!-- Node3 -->
<g id="node3" class="node">
<title>Node3</title>
<g id="a_node3"><a xlink:href="a01571.html#aecc083aea4b698c33d042670ba50c10f" target="_top" xlink:title=" ">
<polygon fill="white" stroke="#666666" points="405,-208 293,-208 293,-176 405,-176 405,-208"/>
<text xml:space="preserve" text-anchor="start" x="301" y="-194.5" font-family="Helvetica,sans-Serif" font-size="10.00">nlohmann::detail::type</text>
<text xml:space="preserve" text-anchor="middle" x="349" y="-182.5" font-family="Helvetica,sans-Serif" font-size="10.00">_error::create</text>
</a>
</g>
</g>
<!-- Node2&#45;&gt;Node3 -->
<g id="edge2" class="edge">
<title>Node2&#45;&gt;Node3</title>
<path fill="none" stroke="#63b8ff" d="M227.35,-120.49C245.33,-132.37 270.41,-148.6 293,-162 297.55,-164.7 302.37,-167.46 307.17,-170.16"/>
<polygon fill="#63b8ff" stroke="#63b8ff" points="305.18,-173.05 315.62,-174.83 308.57,-166.93 305.18,-173.05"/>
</g>
<!-- Node5 -->
<g id="node5" class="node">
<title>Node5</title>
<g id="a_node5"><a xlink:href="a01659.html#a931267ec3f09eb67e4382f321b2c52bc" target="_top" xlink:title="returns an iterator to one past the last element">
<polygon fill="white" stroke="#666666" points="574.75,-147 442.5,-147 442.5,-127 574.75,-127 574.75,-147"/>
<text xml:space="preserve" text-anchor="middle" x="508.62" y="-133.5" font-family="Helvetica,sans-Serif" font-size="10.00">nlohmann::basic_json::end</text>
</a>
</g>
</g>
<!-- Node2&#45;&gt;Node5 -->
<g id="edge4" class="edge">
<title>Node2&#45;&gt;Node5</title>
<path fill="none" stroke="#63b8ff" d="M253.84,-120.38C266.51,-123.82 280.15,-127.01 293,-129 338.47,-136.05 389.97,-138.16 431.13,-138.46"/>
<polygon fill="#63b8ff" stroke="#63b8ff" points="430.92,-141.96 440.93,-138.49 430.94,-134.96 430.92,-141.96"/>
</g>
<!-- Node8 -->
<g id="node8" class="node">
<title>Node8</title>
<g id="a_node8"><a xlink:href="a01659.html#acdf9b3aab82dcf443dd91ca5ec06b80c" target="_top" xlink:title="find an element in a JSON object">
<polygon fill="white" stroke="#666666" points="404.25,-120 293.75,-120 293.75,-88 404.25,-88 404.25,-120"/>
<text xml:space="preserve" text-anchor="start" x="301.75" y="-106.5" font-family="Helvetica,sans-Serif" font-size="10.00">nlohmann::basic_json</text>
<text xml:space="preserve" text-anchor="middle" x="349" y="-94.5" font-family="Helvetica,sans-Serif" font-size="10.00">::find</text>
</a>
</g>
</g>
<!-- Node2&#45;&gt;Node8 -->
<g id="edge7" class="edge">
<title>Node2&#45;&gt;Node8</title>
<path fill="none" stroke="#63b8ff" d="M257.25,-104C265.44,-104 273.96,-104 282.35,-104"/>
<polygon fill="#63b8ff" stroke="#63b8ff" points="282.17,-107.5 292.17,-104 282.17,-100.5 282.17,-107.5"/>
</g>
<!-- Node9 -->
<g id="node9" class="node">
<title>Node9</title>
<g id="a_node9"><a xlink:href="a01659.html#a57e8411a770a6263d6d8f2116c37f3aa" target="_top" xlink:title="return whether value is an object">
<polygon fill="white" stroke="#666666" points="563.88,-87 453.38,-87 453.38,-55 563.88,-55 563.88,-87"/>
<text xml:space="preserve" text-anchor="start" x="461.38" y="-73.5" font-family="Helvetica,sans-Serif" font-size="10.00">nlohmann::basic_json</text>
<text xml:space="preserve" text-anchor="middle" x="508.62" y="-61.5" font-family="Helvetica,sans-Serif" font-size="10.00">::is_object</text>
</a>
</g>
</g>
<!-- Node2&#45;&gt;Node9 -->
<g id="edge10" class="edge">
<title>Node2&#45;&gt;Node9</title>
<path fill="none" stroke="#63b8ff" d="M253.84,-87.62C266.51,-84.18 280.15,-80.99 293,-79 342.45,-71.34 399.03,-69.51 441.68,-69.51"/>
<polygon fill="#63b8ff" stroke="#63b8ff" points="441.52,-73 451.53,-69.54 441.54,-66 441.52,-73"/>
</g>
<!-- Node10 -->
<g id="node10" class="node">
<title>Node10</title>
<g id="a_node10"><a xlink:href="a01659.html#ab8811fc4eab6091b32b34b3ac3e90474" target="_top" xlink:title="return the type as string">
<polygon fill="white" stroke="#666666" points="404.25,-32 293.75,-32 293.75,0 404.25,0 404.25,-32"/>
<text xml:space="preserve" text-anchor="start" x="301.75" y="-18.5" font-family="Helvetica,sans-Serif" font-size="10.00">nlohmann::basic_json</text>
<text xml:space="preserve" text-anchor="middle" x="349" y="-6.5" font-family="Helvetica,sans-Serif" font-size="10.00">::type_name</text>
</a>
</g>
</g>
<!-- Node2&#45;&gt;Node10 -->
<g id="edge11" class="edge">
<title>Node2&#45;&gt;Node10</title>
<path fill="none" stroke="#63b8ff" d="M227.35,-87.51C245.33,-75.63 270.41,-59.4 293,-46 297.55,-43.3 302.37,-40.54 307.17,-37.84"/>
<polygon fill="#63b8ff" stroke="#63b8ff" points="308.57,-41.07 315.62,-33.17 305.18,-34.95 308.57,-41.07"/>
</g>
<!-- Node4 -->
<g id="node4" class="node">
<title>Node4</title>
<g id="a_node4"><a xlink:href="a01559.html#abf41a7e9178356314082284e6cfea278" target="_top" xlink:title=" ">
<polygon fill="white" stroke="#666666" points="576.25,-208 441,-208 441,-176 576.25,-176 576.25,-208"/>
<text xml:space="preserve" text-anchor="start" x="449" y="-194.5" font-family="Helvetica,sans-Serif" font-size="10.00">nlohmann::detail::exception</text>
<text xml:space="preserve" text-anchor="middle" x="508.62" y="-182.5" font-family="Helvetica,sans-Serif" font-size="10.00">::name</text>
</a>
</g>
</g>
<!-- Node3&#45;&gt;Node4 -->
<g id="edge3" class="edge">
<title>Node3&#45;&gt;Node4</title>
<path fill="none" stroke="#63b8ff" d="M405.13,-192C412.91,-192 421.04,-192 429.16,-192"/>
<polygon fill="#63b8ff" stroke="#63b8ff" points="429.08,-195.5 439.08,-192 429.08,-188.5 429.08,-195.5"/>
</g>
<!-- Node6 -->
<g id="node6" class="node">
<title>Node6</title>
<g id="a_node6"><a xlink:href="a02011.html#a23e50ad4c13aa62d9ac7f60a123823ee" target="_top" xlink:title="set the iterator past the last value">
<polygon fill="white" stroke="#666666" points="719,-153 612.25,-153 612.25,-121 719,-121 719,-153"/>
<text xml:space="preserve" text-anchor="start" x="620.25" y="-139.5" font-family="Helvetica,sans-Serif" font-size="10.00">nlohmann::detail::iter</text>
<text xml:space="preserve" text-anchor="middle" x="665.62" y="-127.5" font-family="Helvetica,sans-Serif" font-size="10.00">_impl::set_end</text>
</a>
</g>
</g>
<!-- Node5&#45;&gt;Node6 -->
<g id="edge5" class="edge">
<title>Node5&#45;&gt;Node6</title>
<path fill="none" stroke="#63b8ff" d="M574.91,-137C583.44,-137 592.18,-137 600.69,-137"/>
<polygon fill="#63b8ff" stroke="#63b8ff" points="600.6,-140.5 610.6,-137 600.6,-133.5 600.6,-140.5"/>
</g>
<!-- Node7 -->
<g id="node7" class="node">
<title>Node7</title>
<g id="a_node7"><a xlink:href="a02003.html#ad26a823483846a12d890c3feed3097eb" target="_top" xlink:title="set iterator to a defined past the end">
<polygon fill="white" stroke="#666666" points="885,-153 755,-153 755,-121 885,-121 885,-153"/>
<text xml:space="preserve" text-anchor="start" x="763" y="-139.5" font-family="Helvetica,sans-Serif" font-size="10.00">nlohmann::detail::primitive</text>
<text xml:space="preserve" text-anchor="middle" x="820" y="-127.5" font-family="Helvetica,sans-Serif" font-size="10.00">_iterator_t::set_end</text>
</a>
</g>
</g>
<!-- Node6&#45;&gt;Node7 -->
<g id="edge6" class="edge">
<title>Node6&#45;&gt;Node7</title>
<path fill="none" stroke="#63b8ff" d="M719.49,-137C727.2,-137 735.27,-137 743.32,-137"/>
<polygon fill="#63b8ff" stroke="#63b8ff" points="743.16,-140.5 753.16,-137 743.16,-133.5 743.16,-140.5"/>
</g>
<!-- Node8&#45;&gt;Node5 -->
<g id="edge8" class="edge">
<title>Node8&#45;&gt;Node5</title>
<path fill="none" stroke="#63b8ff" d="M404.69,-115.45C418.23,-118.28 432.82,-121.34 446.64,-124.23"/>
<polygon fill="#63b8ff" stroke="#63b8ff" points="445.54,-127.58 456.04,-126.2 446.97,-120.73 445.54,-127.58"/>
</g>
<!-- Node8&#45;&gt;Node9 -->
<g id="edge9" class="edge">
<title>Node8&#45;&gt;Node9</title>
<path fill="none" stroke="#63b8ff" d="M404.69,-92.55C416.67,-90.04 429.47,-87.36 441.84,-84.77"/>
<polygon fill="#63b8ff" stroke="#63b8ff" points="442.48,-88.21 451.55,-82.74 441.05,-81.36 442.48,-88.21"/>
</g>
</g>
</svg>
