<?xml version="1.0" encoding="UTF-8" standalone="no"?>
<!DOCTYPE svg PUBLIC "-//W3C//DTD SVG 1.1//EN"
 "http://www.w3.org/Graphics/SVG/1.1/DTD/svg11.dtd">
<!-- Generated by graphviz version 13.1.2 (20250808.2320)
 -->
<!-- Title: nlohmann::basic_json::operator+= Pages: 1 -->
<svg width="584pt" height="240pt"
 viewBox="0.00 0.00 584.00 240.00" xmlns="http://www.w3.org/2000/svg" xmlns:xlink="http://www.w3.org/1999/xlink">
<g id="graph0" class="graph" transform="scale(1 1) rotate(0) translate(4 236)">
<title>nlohmann::basic_json::operator+=</title>
<!-- Node1 -->
<g id="node1" class="node">
<title>Node1</title>
<g id="a_node1"><a xlink:title="add an object to an object">
<polygon fill="#999999" stroke="#666666" points="110.5,-132 0,-132 0,-100 110.5,-100 110.5,-132"/>
<text xml:space="preserve" text-anchor="start" x="8" y="-118.5" font-family="Helvetica,sans-Serif" font-size="10.00">nlohmann::basic_json</text>
<text xml:space="preserve" text-anchor="middle" x="55.25" y="-106.5" font-family="Helvetica,sans-Serif" font-size="10.00">::operator+=</text>
</a>
</g>
</g>
<!-- Node2 -->
<g id="node2" class="node">
<title>Node2</title>
<g id="a_node2"><a xlink:href="a01659.html#ab9e0253c92736db021840105d374c4c4" target="_top" xlink:title="add an object to an array">
<polygon fill="white" stroke="#666666" points="257,-132 146.5,-132 146.5,-100 257,-100 257,-132"/>
<text xml:space="preserve" text-anchor="start" x="154.5" y="-118.5" font-family="Helvetica,sans-Serif" font-size="10.00">nlohmann::basic_json</text>
<text xml:space="preserve" text-anchor="middle" x="201.75" y="-106.5" font-family="Helvetica,sans-Serif" font-size="10.00">::push_back</text>
</a>
</g>
</g>
<!-- Node1&#45;&gt;Node2 -->
<g id="edge1" class="edge">
<title>Node1&#45;&gt;Node2</title>
<path fill="none" stroke="#63b8ff" d="M110.88,-116C118.61,-116 126.63,-116 134.55,-116"/>
<polygon fill="#63b8ff" stroke="#63b8ff" points="134.53,-119.5 144.53,-116 134.53,-112.5 134.53,-119.5"/>
</g>
<!-- Node3 -->
<g id="node3" class="node">
<title>Node3</title>
<g id="a_node3"><a xlink:href="a01659.html#aa7e7b1bdb6e9dbcfa5e284e8a2fb6464" target="_top" xlink:title="checks the class invariants">
<polygon fill="white" stroke="#666666" points="404.25,-232 293.75,-232 293.75,-200 404.25,-200 404.25,-232"/>
<text xml:space="preserve" text-anchor="start" x="301.75" y="-218.5" font-family="Helvetica,sans-Serif" font-size="10.00">nlohmann::basic_json</text>
<text xml:space="preserve" text-anchor="middle" x="349" y="-206.5" font-family="Helvetica,sans-Serif" font-size="10.00">::assert_invariant</text>
</a>
</g>
</g>
<!-- Node2&#45;&gt;Node3 -->
<g id="edge2" class="edge">
<title>Node2&#45;&gt;Node3</title>
<path fill="none" stroke="#63b8ff" d="M219.65,-132.43C237.03,-148.72 265.38,-173.69 293,-191 294.83,-192.15 296.73,-193.28 298.66,-194.37"/>
<polygon fill="#63b8ff" stroke="#63b8ff" points="296.75,-197.32 307.23,-198.92 300.04,-191.14 296.75,-197.32"/>
</g>
<!-- Node4 -->
<g id="node4" class="node">
<title>Node4</title>
<g id="a_node4"><a xlink:href="a01571.html#aecc083aea4b698c33d042670ba50c10f" target="_top" xlink:title=" ">
<polygon fill="white" stroke="#666666" points="405,-182 293,-182 293,-150 405,-150 405,-182"/>
<text xml:space="preserve" text-anchor="start" x="301" y="-168.5" font-family="Helvetica,sans-Serif" font-size="10.00">nlohmann::detail::type</text>
<text xml:space="preserve" text-anchor="middle" x="349" y="-156.5" font-family="Helvetica,sans-Serif" font-size="10.00">_error::create</text>
</a>
</g>
</g>
<!-- Node2&#45;&gt;Node4 -->
<g id="edge3" class="edge">
<title>Node2&#45;&gt;Node4</title>
<path fill="none" stroke="#63b8ff" d="M250.31,-132.37C262.85,-136.69 276.53,-141.4 289.57,-145.89"/>
<polygon fill="#63b8ff" stroke="#63b8ff" points="288.31,-149.15 298.9,-149.1 290.59,-142.53 288.31,-149.15"/>
</g>
<!-- Node6 -->
<g id="node6" class="node">
<title>Node6</title>
<g id="a_node6"><a xlink:href="a01659.html#ab5b70d60a636b9c5e10f6c8caac60b9e" target="_top" xlink:title="return whether value is an array">
<polygon fill="white" stroke="#666666" points="404.25,-132 293.75,-132 293.75,-100 404.25,-100 404.25,-132"/>
<text xml:space="preserve" text-anchor="start" x="301.75" y="-118.5" font-family="Helvetica,sans-Serif" font-size="10.00">nlohmann::basic_json</text>
<text xml:space="preserve" text-anchor="middle" x="349" y="-106.5" font-family="Helvetica,sans-Serif" font-size="10.00">::is_array</text>
</a>
</g>
</g>
<!-- Node2&#45;&gt;Node6 -->
<g id="edge5" class="edge">
<title>Node2&#45;&gt;Node6</title>
<path fill="none" stroke="#63b8ff" d="M257.25,-116C265.44,-116 273.96,-116 282.35,-116"/>
<polygon fill="#63b8ff" stroke="#63b8ff" points="282.17,-119.5 292.17,-116 282.17,-112.5 282.17,-119.5"/>
</g>
<!-- Node7 -->
<g id="node7" class="node">
<title>Node7</title>
<g id="a_node7"><a xlink:href="a01659.html#aedc7afad96292b5ab61a2e0ad3067f5f" target="_top" xlink:title="return whether value is null">
<polygon fill="white" stroke="#666666" points="404.25,-82 293.75,-82 293.75,-50 404.25,-50 404.25,-82"/>
<text xml:space="preserve" text-anchor="start" x="301.75" y="-68.5" font-family="Helvetica,sans-Serif" font-size="10.00">nlohmann::basic_json</text>
<text xml:space="preserve" text-anchor="middle" x="349" y="-56.5" font-family="Helvetica,sans-Serif" font-size="10.00">::is_null</text>
</a>
</g>
</g>
<!-- Node2&#45;&gt;Node7 -->
<g id="edge6" class="edge">
<title>Node2&#45;&gt;Node7</title>
<path fill="none" stroke="#63b8ff" d="M250.31,-99.63C262.85,-95.31 276.53,-90.6 289.57,-86.11"/>
<polygon fill="#63b8ff" stroke="#63b8ff" points="290.59,-89.47 298.9,-82.9 288.31,-82.85 290.59,-89.47"/>
</g>
<!-- Node8 -->
<g id="node8" class="node">
<title>Node8</title>
<g id="a_node8"><a xlink:href="a01659.html#ab8811fc4eab6091b32b34b3ac3e90474" target="_top" xlink:title="return the type as string">
<polygon fill="white" stroke="#666666" points="404.25,-32 293.75,-32 293.75,0 404.25,0 404.25,-32"/>
<text xml:space="preserve" text-anchor="start" x="301.75" y="-18.5" font-family="Helvetica,sans-Serif" font-size="10.00">nlohmann::basic_json</text>
<text xml:space="preserve" text-anchor="middle" x="349" y="-6.5" font-family="Helvetica,sans-Serif" font-size="10.00">::type_name</text>
</a>
</g>
</g>
<!-- Node2&#45;&gt;Node8 -->
<g id="edge7" class="edge">
<title>Node2&#45;&gt;Node8</title>
<path fill="none" stroke="#63b8ff" d="M219.65,-99.57C237.03,-83.28 265.38,-58.31 293,-41 294.83,-39.85 296.73,-38.72 298.66,-37.63"/>
<polygon fill="#63b8ff" stroke="#63b8ff" points="300.04,-40.86 307.23,-33.08 296.75,-34.68 300.04,-40.86"/>
</g>
<!-- Node5 -->
<g id="node5" class="node">
<title>Node5</title>
<g id="a_node5"><a xlink:href="a01559.html#abf41a7e9178356314082284e6cfea278" target="_top" xlink:title=" ">
<polygon fill="white" stroke="#666666" points="576.25,-182 441,-182 441,-150 576.25,-150 576.25,-182"/>
<text xml:space="preserve" text-anchor="start" x="449" y="-168.5" font-family="Helvetica,sans-Serif" font-size="10.00">nlohmann::detail::exception</text>
<text xml:space="preserve" text-anchor="middle" x="508.62" y="-156.5" font-family="Helvetica,sans-Serif" font-size="10.00">::name</text>
</a>
</g>
</g>
<!-- Node4&#45;&gt;Node5 -->
<g id="edge4" class="edge">
<title>Node4&#45;&gt;Node5</title>
<path fill="none" stroke="#63b8ff" d="M405.13,-166C412.91,-166 421.04,-166 429.16,-166"/>
<polygon fill="#63b8ff" stroke="#63b8ff" points="429.08,-169.5 439.08,-166 429.08,-162.5 429.08,-169.5"/>
</g>
</g>
</svg>
