<?xml version="1.0" encoding="UTF-8" standalone="no"?>
<!DOCTYPE svg PUBLIC "-//W3C//DTD SVG 1.1//EN"
 "http://www.w3.org/Graphics/SVG/1.1/DTD/svg11.dtd">
<!-- Generated by graphviz version 13.1.2 (20250808.2320)
 -->
<!-- Title: nlohmann::basic_json::push_back Pages: 1 -->
<svg width="438pt" height="240pt"
 viewBox="0.00 0.00 438.00 240.00" xmlns="http://www.w3.org/2000/svg" xmlns:xlink="http://www.w3.org/1999/xlink">
<g id="graph0" class="graph" transform="scale(1 1) rotate(0) translate(4 236)">
<title>nlohmann::basic_json::push_back</title>
<!-- Node1 -->
<g id="node1" class="node">
<title>Node1</title>
<g id="a_node1"><a xlink:title="add an object to an object">
<polygon fill="#999999" stroke="#666666" points="110.5,-132 0,-132 0,-100 110.5,-100 110.5,-132"/>
<text xml:space="preserve" text-anchor="start" x="8" y="-118.5" font-family="Helvetica,sans-Serif" font-size="10.00">nlohmann::basic_json</text>
<text xml:space="preserve" text-anchor="middle" x="55.25" y="-106.5" font-family="Helvetica,sans-Serif" font-size="10.00">::push_back</text>
</a>
</g>
</g>
<!-- Node2 -->
<g id="node2" class="node">
<title>Node2</title>
<g id="a_node2"><a xlink:href="a01659.html#aa7e7b1bdb6e9dbcfa5e284e8a2fb6464" target="_top" xlink:title="checks the class invariants">
<polygon fill="white" stroke="#666666" points="257.75,-232 147.25,-232 147.25,-200 257.75,-200 257.75,-232"/>
<text xml:space="preserve" text-anchor="start" x="155.25" y="-218.5" font-family="Helvetica,sans-Serif" font-size="10.00">nlohmann::basic_json</text>
<text xml:space="preserve" text-anchor="middle" x="202.5" y="-206.5" font-family="Helvetica,sans-Serif" font-size="10.00">::assert_invariant</text>
</a>
</g>
</g>
<!-- Node1&#45;&gt;Node2 -->
<g id="edge1" class="edge">
<title>Node1&#45;&gt;Node2</title>
<path fill="none" stroke="#63b8ff" d="M73.15,-132.43C90.53,-148.72 118.88,-173.69 146.5,-191 148.33,-192.15 150.23,-193.28 152.16,-194.37"/>
<polygon fill="#63b8ff" stroke="#63b8ff" points="150.25,-197.32 160.73,-198.92 153.54,-191.14 150.25,-197.32"/>
</g>
<!-- Node3 -->
<g id="node3" class="node">
<title>Node3</title>
<g id="a_node3"><a xlink:href="a01571.html#aecc083aea4b698c33d042670ba50c10f" target="_top" xlink:title=" ">
<polygon fill="white" stroke="#666666" points="258.5,-182 146.5,-182 146.5,-150 258.5,-150 258.5,-182"/>
<text xml:space="preserve" text-anchor="start" x="154.5" y="-168.5" font-family="Helvetica,sans-Serif" font-size="10.00">nlohmann::detail::type</text>
<text xml:space="preserve" text-anchor="middle" x="202.5" y="-156.5" font-family="Helvetica,sans-Serif" font-size="10.00">_error::create</text>
</a>
</g>
</g>
<!-- Node1&#45;&gt;Node3 -->
<g id="edge2" class="edge">
<title>Node1&#45;&gt;Node3</title>
<path fill="none" stroke="#63b8ff" d="M103.81,-132.37C116.35,-136.69 130.03,-141.4 143.07,-145.89"/>
<polygon fill="#63b8ff" stroke="#63b8ff" points="141.81,-149.15 152.4,-149.1 144.09,-142.53 141.81,-149.15"/>
</g>
<!-- Node5 -->
<g id="node5" class="node">
<title>Node5</title>
<g id="a_node5"><a xlink:href="a01659.html#aedc7afad96292b5ab61a2e0ad3067f5f" target="_top" xlink:title="return whether value is null">
<polygon fill="white" stroke="#666666" points="257.75,-132 147.25,-132 147.25,-100 257.75,-100 257.75,-132"/>
<text xml:space="preserve" text-anchor="start" x="155.25" y="-118.5" font-family="Helvetica,sans-Serif" font-size="10.00">nlohmann::basic_json</text>
<text xml:space="preserve" text-anchor="middle" x="202.5" y="-106.5" font-family="Helvetica,sans-Serif" font-size="10.00">::is_null</text>
</a>
</g>
</g>
<!-- Node1&#45;&gt;Node5 -->
<g id="edge4" class="edge">
<title>Node1&#45;&gt;Node5</title>
<path fill="none" stroke="#63b8ff" d="M110.75,-116C118.94,-116 127.46,-116 135.85,-116"/>
<polygon fill="#63b8ff" stroke="#63b8ff" points="135.67,-119.5 145.67,-116 135.67,-112.5 135.67,-119.5"/>
</g>
<!-- Node6 -->
<g id="node6" class="node">
<title>Node6</title>
<g id="a_node6"><a xlink:href="a01659.html#a57e8411a770a6263d6d8f2116c37f3aa" target="_top" xlink:title="return whether value is an object">
<polygon fill="white" stroke="#666666" points="257.75,-82 147.25,-82 147.25,-50 257.75,-50 257.75,-82"/>
<text xml:space="preserve" text-anchor="start" x="155.25" y="-68.5" font-family="Helvetica,sans-Serif" font-size="10.00">nlohmann::basic_json</text>
<text xml:space="preserve" text-anchor="middle" x="202.5" y="-56.5" font-family="Helvetica,sans-Serif" font-size="10.00">::is_object</text>
</a>
</g>
</g>
<!-- Node1&#45;&gt;Node6 -->
<g id="edge5" class="edge">
<title>Node1&#45;&gt;Node6</title>
<path fill="none" stroke="#63b8ff" d="M103.81,-99.63C116.35,-95.31 130.03,-90.6 143.07,-86.11"/>
<polygon fill="#63b8ff" stroke="#63b8ff" points="144.09,-89.47 152.4,-82.9 141.81,-82.85 144.09,-89.47"/>
</g>
<!-- Node7 -->
<g id="node7" class="node">
<title>Node7</title>
<g id="a_node7"><a xlink:href="a01659.html#ab8811fc4eab6091b32b34b3ac3e90474" target="_top" xlink:title="return the type as string">
<polygon fill="white" stroke="#666666" points="257.75,-32 147.25,-32 147.25,0 257.75,0 257.75,-32"/>
<text xml:space="preserve" text-anchor="start" x="155.25" y="-18.5" font-family="Helvetica,sans-Serif" font-size="10.00">nlohmann::basic_json</text>
<text xml:space="preserve" text-anchor="middle" x="202.5" y="-6.5" font-family="Helvetica,sans-Serif" font-size="10.00">::type_name</text>
</a>
</g>
</g>
<!-- Node1&#45;&gt;Node7 -->
<g id="edge6" class="edge">
<title>Node1&#45;&gt;Node7</title>
<path fill="none" stroke="#63b8ff" d="M73.15,-99.57C90.53,-83.28 118.88,-58.31 146.5,-41 148.33,-39.85 150.23,-38.72 152.16,-37.63"/>
<polygon fill="#63b8ff" stroke="#63b8ff" points="153.54,-40.86 160.73,-33.08 150.25,-34.68 153.54,-40.86"/>
</g>
<!-- Node4 -->
<g id="node4" class="node">
<title>Node4</title>
<g id="a_node4"><a xlink:href="a01559.html#abf41a7e9178356314082284e6cfea278" target="_top" xlink:title=" ">
<polygon fill="white" stroke="#666666" points="429.75,-182 294.5,-182 294.5,-150 429.75,-150 429.75,-182"/>
<text xml:space="preserve" text-anchor="start" x="302.5" y="-168.5" font-family="Helvetica,sans-Serif" font-size="10.00">nlohmann::detail::exception</text>
<text xml:space="preserve" text-anchor="middle" x="362.12" y="-156.5" font-family="Helvetica,sans-Serif" font-size="10.00">::name</text>
</a>
</g>
</g>
<!-- Node3&#45;&gt;Node4 -->
<g id="edge3" class="edge">
<title>Node3&#45;&gt;Node4</title>
<path fill="none" stroke="#63b8ff" d="M258.63,-166C266.41,-166 274.54,-166 282.66,-166"/>
<polygon fill="#63b8ff" stroke="#63b8ff" points="282.58,-169.5 292.58,-166 282.58,-162.5 282.58,-169.5"/>
</g>
</g>
</svg>
