<?xml version="1.0" encoding="UTF-8" standalone="no"?>
<!DOCTYPE svg PUBLIC "-//W3C//DTD SVG 1.1//EN"
 "http://www.w3.org/Graphics/SVG/1.1/DTD/svg11.dtd">
<!-- Generated by graphviz version 13.1.2 (20250808.2320)
 -->
<!-- Title: nlohmann::basic_json::diff Pages: 1 -->
<svg width="777pt" height="600pt"
 viewBox="0.00 0.00 777.00 600.00" xmlns="http://www.w3.org/2000/svg" xmlns:xlink="http://www.w3.org/1999/xlink">
<g id="graph0" class="graph" transform="scale(1 1) rotate(0) translate(4 596)">
<title>nlohmann::basic_json::diff</title>
<!-- Node1 -->
<g id="node1" class="node">
<title>Node1</title>
<g id="a_node1"><a xlink:title="creates a diff as a JSON patch">
<polygon fill="#999999" stroke="#666666" points="110.5,-354 0,-354 0,-322 110.5,-322 110.5,-354"/>
<text xml:space="preserve" text-anchor="start" x="8" y="-340.5" font-family="Helvetica,sans-Serif" font-size="10.00">nlohmann::basic_json</text>
<text xml:space="preserve" text-anchor="middle" x="55.25" y="-328.5" font-family="Helvetica,sans-Serif" font-size="10.00">::diff</text>
</a>
</g>
</g>
<!-- Node1&#45;&gt;Node1 -->
<g id="edge10" class="edge">
<title>Node1&#45;&gt;Node1</title>
<path fill="none" stroke="#63b8ff" d="M28.56,-354.44C23.58,-363.58 32.47,-372 55.25,-372 67.71,-372 76.01,-369.48 80.16,-365.71"/>
<polygon fill="#63b8ff" stroke="#63b8ff" points="83.6,-366.36 81.7,-355.94 76.69,-365.27 83.6,-366.36"/>
</g>
<!-- Node2 -->
<g id="node2" class="node">
<title>Node2</title>
<g id="a_node2"><a xlink:href="a01659.html#a23b495b4c282e4afacf382f5b49af7c7" target="_top" xlink:title="returns an iterator to the first element">
<polygon fill="white" stroke="#666666" points="260,-542 149.5,-542 149.5,-510 260,-510 260,-542"/>
<text xml:space="preserve" text-anchor="start" x="157.5" y="-528.5" font-family="Helvetica,sans-Serif" font-size="10.00">nlohmann::basic_json</text>
<text xml:space="preserve" text-anchor="middle" x="204.75" y="-516.5" font-family="Helvetica,sans-Serif" font-size="10.00">::begin</text>
</a>
</g>
</g>
<!-- Node1&#45;&gt;Node2 -->
<g id="edge1" class="edge">
<title>Node1&#45;&gt;Node2</title>
<path fill="none" stroke="#63b8ff" d="M61.24,-354.12C71.91,-386.19 99.85,-458.54 146.5,-501 147.27,-501.7 148.07,-502.39 148.88,-503.06"/>
<polygon fill="#63b8ff" stroke="#63b8ff" points="146.8,-505.87 157.01,-508.71 150.8,-500.12 146.8,-505.87"/>
</g>
<!-- Node6 -->
<g id="node6" class="node">
<title>Node6</title>
<g id="a_node6"><a xlink:href="a01659.html#ae508c13e3ad6ce445bcaf24a2bc7d039" target="_top" xlink:title="returns a const iterator to the first element">
<polygon fill="white" stroke="#666666" points="260,-592 149.5,-592 149.5,-560 260,-560 260,-592"/>
<text xml:space="preserve" text-anchor="start" x="157.5" y="-578.5" font-family="Helvetica,sans-Serif" font-size="10.00">nlohmann::basic_json</text>
<text xml:space="preserve" text-anchor="middle" x="204.75" y="-566.5" font-family="Helvetica,sans-Serif" font-size="10.00">::cbegin</text>
</a>
</g>
</g>
<!-- Node1&#45;&gt;Node6 -->
<g id="edge5" class="edge">
<title>Node1&#45;&gt;Node6</title>
<path fill="none" stroke="#63b8ff" d="M58.93,-354.44C66.13,-393.56 89.31,-493.18 146.5,-551 147.1,-551.61 147.72,-552.2 148.35,-552.78"/>
<polygon fill="#63b8ff" stroke="#63b8ff" points="146.04,-555.42 156.13,-558.67 150.27,-549.84 146.04,-555.42"/>
</g>
<!-- Node7 -->
<g id="node7" class="node">
<title>Node7</title>
<g id="a_node7"><a xlink:href="a01659.html#a3017cf0f1a4673e904e34cfef62e7758" target="_top" xlink:title="returns a const iterator to one past the last element">
<polygon fill="white" stroke="#666666" points="260,-492 149.5,-492 149.5,-460 260,-460 260,-492"/>
<text xml:space="preserve" text-anchor="start" x="157.5" y="-478.5" font-family="Helvetica,sans-Serif" font-size="10.00">nlohmann::basic_json</text>
<text xml:space="preserve" text-anchor="middle" x="204.75" y="-466.5" font-family="Helvetica,sans-Serif" font-size="10.00">::cend</text>
</a>
</g>
</g>
<!-- Node1&#45;&gt;Node7 -->
<g id="edge7" class="edge">
<title>Node1&#45;&gt;Node7</title>
<path fill="none" stroke="#63b8ff" d="M66.85,-354.36C82.24,-377.15 112.64,-418.7 146.5,-446 149.94,-448.77 153.67,-451.4 157.53,-453.87"/>
<polygon fill="#63b8ff" stroke="#63b8ff" points="155.6,-456.79 165.98,-458.87 159.16,-450.77 155.6,-456.79"/>
</g>
<!-- Node9 -->
<g id="node9" class="node">
<title>Node9</title>
<g id="a_node9"><a xlink:href="a01659.html#a931267ec3f09eb67e4382f321b2c52bc" target="_top" xlink:title="returns an iterator to one past the last element">
<polygon fill="white" stroke="#666666" points="431.25,-470 299,-470 299,-450 431.25,-450 431.25,-470"/>
<text xml:space="preserve" text-anchor="middle" x="365.12" y="-456.5" font-family="Helvetica,sans-Serif" font-size="10.00">nlohmann::basic_json::end</text>
</a>
</g>
</g>
<!-- Node1&#45;&gt;Node9 -->
<g id="edge11" class="edge">
<title>Node1&#45;&gt;Node9</title>
<path fill="none" stroke="#63b8ff" d="M71.2,-354.43C87.87,-371.71 116.46,-398.38 146.5,-413 190.53,-434.43 244.27,-446.16 287.33,-452.54"/>
<polygon fill="#63b8ff" stroke="#63b8ff" points="286.72,-455.99 297.11,-453.92 287.69,-449.06 286.72,-455.99"/>
</g>
<!-- Node10 -->
<g id="node10" class="node">
<title>Node10</title>
<g id="a_node10"><a xlink:href="a01663.html#a8abf3577f9a0087f29a233893cdc73ad" target="_top" xlink:title="escape &quot;~&quot; to &quot;~0&quot; and &quot;/&quot; to &quot;~1&quot;">
<polygon fill="white" stroke="#666666" points="263,-354 146.5,-354 146.5,-322 263,-322 263,-354"/>
<text xml:space="preserve" text-anchor="start" x="154.5" y="-340.5" font-family="Helvetica,sans-Serif" font-size="10.00">nlohmann::json_pointer</text>
<text xml:space="preserve" text-anchor="middle" x="204.75" y="-328.5" font-family="Helvetica,sans-Serif" font-size="10.00">::escape</text>
</a>
</g>
</g>
<!-- Node1&#45;&gt;Node10 -->
<g id="edge13" class="edge">
<title>Node1&#45;&gt;Node10</title>
<path fill="none" stroke="#63b8ff" d="M110.75,-338C118.56,-338 126.68,-338 134.73,-338"/>
<polygon fill="#63b8ff" stroke="#63b8ff" points="134.49,-341.5 144.49,-338 134.49,-334.5 134.49,-341.5"/>
</g>
<!-- Node12 -->
<g id="node12" class="node">
<title>Node12</title>
<g id="a_node12"><a xlink:href="a01659.html#acdf9b3aab82dcf443dd91ca5ec06b80c" target="_top" xlink:title="find an element in a JSON object">
<polygon fill="white" stroke="#666666" points="260,-404 149.5,-404 149.5,-372 260,-372 260,-404"/>
<text xml:space="preserve" text-anchor="start" x="157.5" y="-390.5" font-family="Helvetica,sans-Serif" font-size="10.00">nlohmann::basic_json</text>
<text xml:space="preserve" text-anchor="middle" x="204.75" y="-378.5" font-family="Helvetica,sans-Serif" font-size="10.00">::find</text>
</a>
</g>
</g>
<!-- Node1&#45;&gt;Node12 -->
<g id="edge15" class="edge">
<title>Node1&#45;&gt;Node12</title>
<path fill="none" stroke="#63b8ff" d="M104.55,-354.37C117.22,-358.67 131.03,-363.35 144.21,-367.82"/>
<polygon fill="#63b8ff" stroke="#63b8ff" points="143.06,-371.12 153.66,-371.02 145.31,-364.49 143.06,-371.12"/>
</g>
<!-- Node14 -->
<g id="node14" class="node">
<title>Node14</title>
<g id="a_node14"><a xlink:href="a01659.html#aeb86e8478e20d95970a8b61ff01dce3b" target="_top" xlink:title="inserts element">
<polygon fill="white" stroke="#666666" points="260,-282 149.5,-282 149.5,-250 260,-250 260,-282"/>
<text xml:space="preserve" text-anchor="start" x="157.5" y="-268.5" font-family="Helvetica,sans-Serif" font-size="10.00">nlohmann::basic_json</text>
<text xml:space="preserve" text-anchor="middle" x="204.75" y="-256.5" font-family="Helvetica,sans-Serif" font-size="10.00">::insert</text>
</a>
</g>
</g>
<!-- Node1&#45;&gt;Node14 -->
<g id="edge18" class="edge">
<title>Node1&#45;&gt;Node14</title>
<path fill="none" stroke="#63b8ff" d="M89.72,-321.66C110.49,-311.53 137.4,-298.39 159.86,-287.42"/>
<polygon fill="#63b8ff" stroke="#63b8ff" points="161.35,-290.59 168.8,-283.06 158.28,-284.3 161.35,-290.59"/>
</g>
<!-- Node21 -->
<g id="node21" class="node">
<title>Node21</title>
<g id="a_node21"><a xlink:href="a01659.html#a9a4df356e05415438fadf8a15e583903" target="_top" xlink:title="explicitly create an object from an initializer list">
<polygon fill="white" stroke="#666666" points="260,-182 149.5,-182 149.5,-150 260,-150 260,-182"/>
<text xml:space="preserve" text-anchor="start" x="157.5" y="-168.5" font-family="Helvetica,sans-Serif" font-size="10.00">nlohmann::basic_json</text>
<text xml:space="preserve" text-anchor="middle" x="204.75" y="-156.5" font-family="Helvetica,sans-Serif" font-size="10.00">::object</text>
</a>
</g>
</g>
<!-- Node1&#45;&gt;Node21 -->
<g id="edge26" class="edge">
<title>Node1&#45;&gt;Node21</title>
<path fill="none" stroke="#63b8ff" d="M62.4,-321.64C74.35,-291.89 103.35,-228.54 146.5,-191 147.42,-190.2 148.37,-189.42 149.35,-188.66"/>
<polygon fill="#63b8ff" stroke="#63b8ff" points="151.06,-191.73 157.43,-183.27 147.17,-185.91 151.06,-191.73"/>
</g>
<!-- Node22 -->
<g id="node22" class="node">
<title>Node22</title>
<g id="a_node22"><a xlink:href="a01659.html#ab9e0253c92736db021840105d374c4c4" target="_top" xlink:title="add an object to an array">
<polygon fill="white" stroke="#666666" points="260,-232 149.5,-232 149.5,-200 260,-200 260,-232"/>
<text xml:space="preserve" text-anchor="start" x="157.5" y="-218.5" font-family="Helvetica,sans-Serif" font-size="10.00">nlohmann::basic_json</text>
<text xml:space="preserve" text-anchor="middle" x="204.75" y="-206.5" font-family="Helvetica,sans-Serif" font-size="10.00">::push_back</text>
</a>
</g>
</g>
<!-- Node1&#45;&gt;Node22 -->
<g id="edge27" class="edge">
<title>Node1&#45;&gt;Node22</title>
<path fill="none" stroke="#63b8ff" d="M68.05,-321.64C83.89,-300.64 113.85,-264.14 146.5,-241 148.02,-239.92 149.6,-238.88 151.21,-237.86"/>
<polygon fill="#63b8ff" stroke="#63b8ff" points="152.51,-241.15 159.48,-233.17 149.05,-235.06 152.51,-241.15"/>
</g>
<!-- Node25 -->
<g id="node25" class="node">
<title>Node25</title>
<g id="a_node25"><a xlink:href="a01659.html#a33c7c8638bb0b12e6d1b69d8106dd2e0" target="_top" xlink:title="returns the number of elements">
<polygon fill="white" stroke="#666666" points="260,-132 149.5,-132 149.5,-100 260,-100 260,-132"/>
<text xml:space="preserve" text-anchor="start" x="157.5" y="-118.5" font-family="Helvetica,sans-Serif" font-size="10.00">nlohmann::basic_json</text>
<text xml:space="preserve" text-anchor="middle" x="204.75" y="-106.5" font-family="Helvetica,sans-Serif" font-size="10.00">::size</text>
</a>
</g>
</g>
<!-- Node1&#45;&gt;Node25 -->
<g id="edge33" class="edge">
<title>Node1&#45;&gt;Node25</title>
<path fill="none" stroke="#63b8ff" d="M59.55,-321.69C67.81,-284.76 92.69,-193.86 146.5,-141 147.23,-140.29 147.98,-139.59 148.75,-138.91"/>
<polygon fill="#63b8ff" stroke="#63b8ff" points="150.5,-141.97 156.49,-133.23 146.36,-136.33 150.5,-141.97"/>
</g>
<!-- Node26 -->
<g id="node26" class="node">
<title>Node26</title>
<g id="a_node26"><a xlink:href="a01659.html#a5b7c4b35a0ad9f97474912a08965d7ad" target="_top" xlink:title="return the type of the JSON value (explicit)">
<polygon fill="white" stroke="#666666" points="260,-82 149.5,-82 149.5,-50 260,-50 260,-82"/>
<text xml:space="preserve" text-anchor="start" x="157.5" y="-68.5" font-family="Helvetica,sans-Serif" font-size="10.00">nlohmann::basic_json</text>
<text xml:space="preserve" text-anchor="middle" x="204.75" y="-56.5" font-family="Helvetica,sans-Serif" font-size="10.00">::type</text>
</a>
</g>
</g>
<!-- Node1&#45;&gt;Node26 -->
<g id="edge34" class="edge">
<title>Node1&#45;&gt;Node26</title>
<path fill="none" stroke="#63b8ff" d="M57.82,-321.57C62.8,-278.27 81.91,-159.68 146.5,-91 146.98,-90.49 147.46,-90 147.96,-89.51"/>
<polygon fill="#63b8ff" stroke="#63b8ff" points="150.04,-92.33 155.7,-83.37 145.69,-86.85 150.04,-92.33"/>
</g>
<!-- Node3 -->
<g id="node3" class="node">
<title>Node3</title>
<g id="a_node3"><a xlink:href="a02011.html#a5d5f92c7f6848814bc82cf7e4e541820" target="_top" xlink:title="set the iterator to the first value">
<polygon fill="white" stroke="#666666" points="418.5,-568 311.75,-568 311.75,-536 418.5,-536 418.5,-568"/>
<text xml:space="preserve" text-anchor="start" x="319.75" y="-554.5" font-family="Helvetica,sans-Serif" font-size="10.00">nlohmann::detail::iter</text>
<text xml:space="preserve" text-anchor="middle" x="365.12" y="-542.5" font-family="Helvetica,sans-Serif" font-size="10.00">_impl::set_begin</text>
</a>
</g>
</g>
<!-- Node2&#45;&gt;Node3 -->
<g id="edge2" class="edge">
<title>Node2&#45;&gt;Node3</title>
<path fill="none" stroke="#63b8ff" d="M260.25,-534.95C273.19,-537.07 287.09,-539.35 300.4,-541.54"/>
<polygon fill="#63b8ff" stroke="#63b8ff" points="299.47,-544.93 309.9,-543.1 300.6,-538.02 299.47,-544.93"/>
</g>
<!-- Node4 -->
<g id="node4" class="node">
<title>Node4</title>
<g id="a_node4"><a xlink:href="a02003.html#a9d9b005906106e12aed738f97d7fee42" target="_top" xlink:title="set iterator to a defined beginning">
<polygon fill="white" stroke="#666666" points="599.88,-578 469.88,-578 469.88,-546 599.88,-546 599.88,-578"/>
<text xml:space="preserve" text-anchor="start" x="477.88" y="-564.5" font-family="Helvetica,sans-Serif" font-size="10.00">nlohmann::detail::primitive</text>
<text xml:space="preserve" text-anchor="middle" x="534.88" y="-552.5" font-family="Helvetica,sans-Serif" font-size="10.00">_iterator_t::set_begin</text>
</a>
</g>
</g>
<!-- Node3&#45;&gt;Node4 -->
<g id="edge3" class="edge">
<title>Node3&#45;&gt;Node4</title>
<path fill="none" stroke="#63b8ff" d="M418.74,-555.14C431.35,-555.89 445.06,-556.71 458.48,-557.51"/>
<polygon fill="#63b8ff" stroke="#63b8ff" points="457.95,-560.98 468.14,-558.08 458.37,-553.99 457.95,-560.98"/>
</g>
<!-- Node5 -->
<g id="node5" class="node">
<title>Node5</title>
<g id="a_node5"><a xlink:href="a02003.html#ad26a823483846a12d890c3feed3097eb" target="_top" xlink:title="set iterator to a defined past the end">
<polygon fill="white" stroke="#666666" points="768.5,-512 638.5,-512 638.5,-480 768.5,-480 768.5,-512"/>
<text xml:space="preserve" text-anchor="start" x="646.5" y="-498.5" font-family="Helvetica,sans-Serif" font-size="10.00">nlohmann::detail::primitive</text>
<text xml:space="preserve" text-anchor="middle" x="703.5" y="-486.5" font-family="Helvetica,sans-Serif" font-size="10.00">_iterator_t::set_end</text>
</a>
</g>
</g>
<!-- Node3&#45;&gt;Node5 -->
<g id="edge4" class="edge">
<title>Node3&#45;&gt;Node5</title>
<path fill="none" stroke="#63b8ff" d="M418.68,-543.25C474.64,-533.93 563.68,-519.11 627.11,-508.55"/>
<polygon fill="#63b8ff" stroke="#63b8ff" points="627.46,-512.04 636.75,-506.95 626.31,-505.14 627.46,-512.04"/>
</g>
<!-- Node6&#45;&gt;Node3 -->
<g id="edge6" class="edge">
<title>Node6&#45;&gt;Node3</title>
<path fill="none" stroke="#63b8ff" d="M260.25,-567.74C273.19,-565.78 287.09,-563.67 300.4,-561.66"/>
<polygon fill="#63b8ff" stroke="#63b8ff" points="300.53,-565.18 309.9,-560.22 299.49,-558.26 300.53,-565.18"/>
</g>
<!-- Node8 -->
<g id="node8" class="node">
<title>Node8</title>
<g id="a_node8"><a xlink:href="a02011.html#a23e50ad4c13aa62d9ac7f60a123823ee" target="_top" xlink:title="set the iterator past the last value">
<polygon fill="white" stroke="#666666" points="588.25,-490 481.5,-490 481.5,-458 588.25,-458 588.25,-490"/>
<text xml:space="preserve" text-anchor="start" x="489.5" y="-476.5" font-family="Helvetica,sans-Serif" font-size="10.00">nlohmann::detail::iter</text>
<text xml:space="preserve" text-anchor="middle" x="534.88" y="-464.5" font-family="Helvetica,sans-Serif" font-size="10.00">_impl::set_end</text>
</a>
</g>
</g>
<!-- Node7&#45;&gt;Node8 -->
<g id="edge8" class="edge">
<title>Node7&#45;&gt;Node8</title>
<path fill="none" stroke="#63b8ff" d="M260.48,-478.05C273.12,-478.45 286.53,-478.8 299,-479 357.77,-479.95 372.49,-480.43 431.25,-479 443.67,-478.7 456.94,-478.19 469.66,-477.61"/>
<polygon fill="#63b8ff" stroke="#63b8ff" points="469.82,-481.11 479.65,-477.13 469.49,-474.11 469.82,-481.11"/>
</g>
<!-- Node8&#45;&gt;Node5 -->
<g id="edge9" class="edge">
<title>Node8&#45;&gt;Node5</title>
<path fill="none" stroke="#63b8ff" d="M588.6,-480.96C600.76,-482.57 613.94,-484.31 626.87,-486.01"/>
<polygon fill="#63b8ff" stroke="#63b8ff" points="626.27,-489.46 636.64,-487.3 627.18,-482.53 626.27,-489.46"/>
</g>
<!-- Node9&#45;&gt;Node8 -->
<g id="edge12" class="edge">
<title>Node9&#45;&gt;Node8</title>
<path fill="none" stroke="#63b8ff" d="M431.46,-465.45C444.07,-466.51 457.27,-467.61 469.83,-468.66"/>
<polygon fill="#63b8ff" stroke="#63b8ff" points="469.39,-472.13 479.65,-469.47 469.98,-465.15 469.39,-472.13"/>
</g>
<!-- Node11 -->
<g id="node11" class="node">
<title>Node11</title>
<g id="a_node11"><a xlink:href="a01663.html#aa7649d30da9fc10b0e20704a27aea2a9" target="_top" xlink:title="replace all occurrences of a substring by another string">
<polygon fill="white" stroke="#666666" points="423.38,-382 306.88,-382 306.88,-350 423.38,-350 423.38,-382"/>
<text xml:space="preserve" text-anchor="start" x="314.88" y="-368.5" font-family="Helvetica,sans-Serif" font-size="10.00">nlohmann::json_pointer</text>
<text xml:space="preserve" text-anchor="middle" x="365.12" y="-356.5" font-family="Helvetica,sans-Serif" font-size="10.00">::replace_substring</text>
</a>
</g>
</g>
<!-- Node10&#45;&gt;Node11 -->
<g id="edge14" class="edge">
<title>Node10&#45;&gt;Node11</title>
<path fill="none" stroke="#63b8ff" d="M263.38,-348.19C273.81,-350.03 284.79,-351.97 295.51,-353.87"/>
<polygon fill="#63b8ff" stroke="#63b8ff" points="294.6,-357.26 305.05,-355.56 295.81,-350.37 294.6,-357.26"/>
</g>
<!-- Node12&#45;&gt;Node9 -->
<g id="edge16" class="edge">
<title>Node12&#45;&gt;Node9</title>
<path fill="none" stroke="#63b8ff" d="M238.41,-404.5C246.52,-408.76 255.14,-413.44 263,-418 279.42,-427.53 281.71,-433.15 299,-441 302.82,-442.73 306.83,-444.35 310.92,-445.85"/>
<polygon fill="#63b8ff" stroke="#63b8ff" points="309.77,-449.16 320.36,-449.07 312.02,-442.53 309.77,-449.16"/>
</g>
<!-- Node13 -->
<g id="node13" class="node">
<title>Node13</title>
<g id="a_node13"><a xlink:href="a01659.html#a57e8411a770a6263d6d8f2116c37f3aa" target="_top" xlink:title="return whether value is an object">
<polygon fill="white" stroke="#666666" points="420.38,-432 309.88,-432 309.88,-400 420.38,-400 420.38,-432"/>
<text xml:space="preserve" text-anchor="start" x="317.88" y="-418.5" font-family="Helvetica,sans-Serif" font-size="10.00">nlohmann::basic_json</text>
<text xml:space="preserve" text-anchor="middle" x="365.12" y="-406.5" font-family="Helvetica,sans-Serif" font-size="10.00">::is_object</text>
</a>
</g>
</g>
<!-- Node12&#45;&gt;Node13 -->
<g id="edge17" class="edge">
<title>Node12&#45;&gt;Node13</title>
<path fill="none" stroke="#63b8ff" d="M260.25,-397.64C272.57,-399.81 285.78,-402.15 298.5,-404.4"/>
<polygon fill="#63b8ff" stroke="#63b8ff" points="297.57,-407.79 308.03,-406.08 298.79,-400.9 297.57,-407.79"/>
</g>
<!-- Node15 -->
<g id="node15" class="node">
<title>Node15</title>
<g id="a_node15"><a xlink:href="a01567.html#a4e849260a3caa1b288c7e619130c6c09" target="_top" xlink:title=" ">
<polygon fill="white" stroke="#666666" points="425.62,-332 304.62,-332 304.62,-300 425.62,-300 425.62,-332"/>
<text xml:space="preserve" text-anchor="start" x="312.62" y="-318.5" font-family="Helvetica,sans-Serif" font-size="10.00">nlohmann::detail::invalid</text>
<text xml:space="preserve" text-anchor="middle" x="365.12" y="-306.5" font-family="Helvetica,sans-Serif" font-size="10.00">_iterator::create</text>
</a>
</g>
</g>
<!-- Node14&#45;&gt;Node15 -->
<g id="edge19" class="edge">
<title>Node14&#45;&gt;Node15</title>
<path fill="none" stroke="#63b8ff" d="M257.61,-282.37C271.48,-286.75 286.63,-291.54 301.04,-296.08"/>
<polygon fill="#63b8ff" stroke="#63b8ff" points="299.85,-299.38 310.44,-299.05 301.95,-292.7 299.85,-299.38"/>
</g>
<!-- Node17 -->
<g id="node17" class="node">
<title>Node17</title>
<g id="a_node17"><a xlink:href="a01571.html#aecc083aea4b698c33d042670ba50c10f" target="_top" xlink:title=" ">
<polygon fill="white" stroke="#666666" points="421.12,-232 309.12,-232 309.12,-200 421.12,-200 421.12,-232"/>
<text xml:space="preserve" text-anchor="start" x="317.12" y="-218.5" font-family="Helvetica,sans-Serif" font-size="10.00">nlohmann::detail::type</text>
<text xml:space="preserve" text-anchor="middle" x="365.12" y="-206.5" font-family="Helvetica,sans-Serif" font-size="10.00">_error::create</text>
</a>
</g>
</g>
<!-- Node14&#45;&gt;Node17 -->
<g id="edge21" class="edge">
<title>Node14&#45;&gt;Node17</title>
<path fill="none" stroke="#63b8ff" d="M257.61,-249.63C271.48,-245.25 286.63,-240.46 301.04,-235.92"/>
<polygon fill="#63b8ff" stroke="#63b8ff" points="301.95,-239.3 310.44,-232.95 299.85,-232.62 301.95,-239.3"/>
</g>
<!-- Node18 -->
<g id="node18" class="node">
<title>Node18</title>
<g id="a_node18"><a xlink:href="a01659.html#ab5c8034e997c5b852b92bdc6a3f70994" target="_top" xlink:title="Helper for insertion of an iterator.">
<polygon fill="white" stroke="#666666" points="420.38,-282 309.88,-282 309.88,-250 420.38,-250 420.38,-282"/>
<text xml:space="preserve" text-anchor="start" x="317.88" y="-268.5" font-family="Helvetica,sans-Serif" font-size="10.00">nlohmann::basic_json</text>
<text xml:space="preserve" text-anchor="middle" x="365.12" y="-256.5" font-family="Helvetica,sans-Serif" font-size="10.00">::insert_iterator</text>
</a>
</g>
</g>
<!-- Node14&#45;&gt;Node18 -->
<g id="edge23" class="edge">
<title>Node14&#45;&gt;Node18</title>
<path fill="none" stroke="#63b8ff" d="M260.25,-266C272.45,-266 285.51,-266 298.11,-266"/>
<polygon fill="#63b8ff" stroke="#63b8ff" points="298.01,-269.5 308.01,-266 298.01,-262.5 298.01,-269.5"/>
</g>
<!-- Node19 -->
<g id="node19" class="node">
<title>Node19</title>
<g id="a_node19"><a xlink:href="a01659.html#ab5b70d60a636b9c5e10f6c8caac60b9e" target="_top" xlink:title="return whether value is an array">
<polygon fill="white" stroke="#666666" points="420.38,-182 309.88,-182 309.88,-150 420.38,-150 420.38,-182"/>
<text xml:space="preserve" text-anchor="start" x="317.88" y="-168.5" font-family="Helvetica,sans-Serif" font-size="10.00">nlohmann::basic_json</text>
<text xml:space="preserve" text-anchor="middle" x="365.12" y="-156.5" font-family="Helvetica,sans-Serif" font-size="10.00">::is_array</text>
</a>
</g>
</g>
<!-- Node14&#45;&gt;Node19 -->
<g id="edge24" class="edge">
<title>Node14&#45;&gt;Node19</title>
<path fill="none" stroke="#63b8ff" d="M249.99,-249.62C254.59,-247.07 259.03,-244.2 263,-241 284.31,-223.8 277.31,-207.72 299,-191 300.32,-189.98 301.68,-189 303.09,-188.06"/>
<polygon fill="#63b8ff" stroke="#63b8ff" points="304.65,-191.2 311.49,-183.11 301.1,-185.17 304.65,-191.2"/>
</g>
<!-- Node20 -->
<g id="node20" class="node">
<title>Node20</title>
<g id="a_node20"><a xlink:href="a01659.html#ab8811fc4eab6091b32b34b3ac3e90474" target="_top" xlink:title="return the type as string">
<polygon fill="white" stroke="#666666" points="420.38,-132 309.88,-132 309.88,-100 420.38,-100 420.38,-132"/>
<text xml:space="preserve" text-anchor="start" x="317.88" y="-118.5" font-family="Helvetica,sans-Serif" font-size="10.00">nlohmann::basic_json</text>
<text xml:space="preserve" text-anchor="middle" x="365.12" y="-106.5" font-family="Helvetica,sans-Serif" font-size="10.00">::type_name</text>
</a>
</g>
</g>
<!-- Node14&#45;&gt;Node20 -->
<g id="edge25" class="edge">
<title>Node14&#45;&gt;Node20</title>
<path fill="none" stroke="#63b8ff" d="M252.64,-249.59C256.43,-247.09 259.96,-244.25 263,-241 295.28,-206.51 265.95,-174.75 299,-141 299.6,-140.38 300.22,-139.78 300.86,-139.19"/>
<polygon fill="#63b8ff" stroke="#63b8ff" points="302.82,-142.1 308.68,-133.27 298.59,-136.52 302.82,-142.1"/>
</g>
<!-- Node16 -->
<g id="node16" class="node">
<title>Node16</title>
<g id="a_node16"><a xlink:href="a01559.html#abf41a7e9178356314082284e6cfea278" target="_top" xlink:title=" ">
<polygon fill="white" stroke="#666666" points="602.5,-282 467.25,-282 467.25,-250 602.5,-250 602.5,-282"/>
<text xml:space="preserve" text-anchor="start" x="475.25" y="-268.5" font-family="Helvetica,sans-Serif" font-size="10.00">nlohmann::detail::exception</text>
<text xml:space="preserve" text-anchor="middle" x="534.88" y="-256.5" font-family="Helvetica,sans-Serif" font-size="10.00">::name</text>
</a>
</g>
</g>
<!-- Node15&#45;&gt;Node16 -->
<g id="edge20" class="edge">
<title>Node15&#45;&gt;Node16</title>
<path fill="none" stroke="#63b8ff" d="M421.05,-299.63C435.89,-295.2 452.11,-290.37 467.5,-285.78"/>
<polygon fill="#63b8ff" stroke="#63b8ff" points="468.5,-289.14 477.09,-282.93 466.5,-282.43 468.5,-289.14"/>
</g>
<!-- Node17&#45;&gt;Node16 -->
<g id="edge22" class="edge">
<title>Node17&#45;&gt;Node16</title>
<path fill="none" stroke="#63b8ff" d="M421.05,-232.37C435.89,-236.8 452.11,-241.63 467.5,-246.22"/>
<polygon fill="#63b8ff" stroke="#63b8ff" points="466.5,-249.57 477.09,-249.07 468.5,-242.86 466.5,-249.57"/>
</g>
<!-- Node22&#45;&gt;Node17 -->
<g id="edge29" class="edge">
<title>Node22&#45;&gt;Node17</title>
<path fill="none" stroke="#63b8ff" d="M260.25,-216C272.24,-216 285.07,-216 297.48,-216"/>
<polygon fill="#63b8ff" stroke="#63b8ff" points="297.2,-219.5 307.2,-216 297.2,-212.5 297.2,-219.5"/>
</g>
<!-- Node22&#45;&gt;Node19 -->
<g id="edge30" class="edge">
<title>Node22&#45;&gt;Node19</title>
<path fill="none" stroke="#63b8ff" d="M257.61,-199.63C271.48,-195.25 286.63,-190.46 301.04,-185.92"/>
<polygon fill="#63b8ff" stroke="#63b8ff" points="301.95,-189.3 310.44,-182.95 299.85,-182.62 301.95,-189.3"/>
</g>
<!-- Node22&#45;&gt;Node20 -->
<g id="edge32" class="edge">
<title>Node22&#45;&gt;Node20</title>
<path fill="none" stroke="#63b8ff" d="M249.99,-199.62C254.59,-197.07 259.03,-194.2 263,-191 284.31,-173.8 277.31,-157.72 299,-141 300.32,-139.98 301.68,-139 303.09,-138.06"/>
<polygon fill="#63b8ff" stroke="#63b8ff" points="304.65,-141.2 311.49,-133.11 301.1,-135.17 304.65,-141.2"/>
</g>
<!-- Node23 -->
<g id="node23" class="node">
<title>Node23</title>
<g id="a_node23"><a xlink:href="a01659.html#aa7e7b1bdb6e9dbcfa5e284e8a2fb6464" target="_top" xlink:title="checks the class invariants">
<polygon fill="white" stroke="#666666" points="420.38,-82 309.88,-82 309.88,-50 420.38,-50 420.38,-82"/>
<text xml:space="preserve" text-anchor="start" x="317.88" y="-68.5" font-family="Helvetica,sans-Serif" font-size="10.00">nlohmann::basic_json</text>
<text xml:space="preserve" text-anchor="middle" x="365.12" y="-56.5" font-family="Helvetica,sans-Serif" font-size="10.00">::assert_invariant</text>
</a>
</g>
</g>
<!-- Node22&#45;&gt;Node23 -->
<g id="edge28" class="edge">
<title>Node22&#45;&gt;Node23</title>
<path fill="none" stroke="#63b8ff" d="M252.64,-199.59C256.43,-197.09 259.96,-194.25 263,-191 295.28,-156.51 265.95,-124.75 299,-91 299.6,-90.38 300.22,-89.78 300.86,-89.19"/>
<polygon fill="#63b8ff" stroke="#63b8ff" points="302.82,-92.1 308.68,-83.27 298.59,-86.52 302.82,-92.1"/>
</g>
<!-- Node24 -->
<g id="node24" class="node">
<title>Node24</title>
<g id="a_node24"><a xlink:href="a01659.html#aedc7afad96292b5ab61a2e0ad3067f5f" target="_top" xlink:title="return whether value is null">
<polygon fill="white" stroke="#666666" points="420.38,-32 309.88,-32 309.88,0 420.38,0 420.38,-32"/>
<text xml:space="preserve" text-anchor="start" x="317.88" y="-18.5" font-family="Helvetica,sans-Serif" font-size="10.00">nlohmann::basic_json</text>
<text xml:space="preserve" text-anchor="middle" x="365.12" y="-6.5" font-family="Helvetica,sans-Serif" font-size="10.00">::is_null</text>
</a>
</g>
</g>
<!-- Node22&#45;&gt;Node24 -->
<g id="edge31" class="edge">
<title>Node22&#45;&gt;Node24</title>
<path fill="none" stroke="#63b8ff" d="M253.56,-199.55C257.07,-197.08 260.28,-194.24 263,-191 307.03,-138.44 253.8,-92.55 299,-41 299.57,-40.35 300.16,-39.72 300.76,-39.1"/>
<polygon fill="#63b8ff" stroke="#63b8ff" points="302.78,-41.98 308.31,-32.94 298.35,-36.56 302.78,-41.98"/>
</g>
</g>
</svg>
