<?xml version="1.0" encoding="UTF-8" standalone="no"?>
<!DOCTYPE svg PUBLIC "-//W3C//DTD SVG 1.1//EN"
 "http://www.w3.org/Graphics/SVG/1.1/DTD/svg11.dtd">
<!-- Generated by graphviz version 13.1.2 (20250808.2320)
 -->
<!-- Title: nlohmann::basic_json::erase Pages: 1 -->
<svg width="624pt" height="328pt"
 viewBox="0.00 0.00 624.00 328.00" xmlns="http://www.w3.org/2000/svg" xmlns:xlink="http://www.w3.org/1999/xlink">
<g id="graph0" class="graph" transform="scale(1 1) rotate(0) translate(4 324)">
<title>nlohmann::basic_json::erase</title>
<!-- Node1 -->
<g id="node1" class="node">
<title>Node1</title>
<g id="a_node1"><a xlink:title="remove element given an iterator">
<polygon fill="#999999" stroke="#666666" points="110.5,-176 0,-176 0,-144 110.5,-144 110.5,-176"/>
<text xml:space="preserve" text-anchor="start" x="8" y="-162.5" font-family="Helvetica,sans-Serif" font-size="10.00">nlohmann::basic_json</text>
<text xml:space="preserve" text-anchor="middle" x="55.25" y="-150.5" font-family="Helvetica,sans-Serif" font-size="10.00">::erase</text>
</a>
</g>
</g>
<!-- Node2 -->
<g id="node2" class="node">
<title>Node2</title>
<g id="a_node2"><a xlink:href="a01659.html#aa7e7b1bdb6e9dbcfa5e284e8a2fb6464" target="_top" xlink:title="checks the class invariants">
<polygon fill="white" stroke="#666666" points="267.88,-320 157.38,-320 157.38,-288 267.88,-288 267.88,-320"/>
<text xml:space="preserve" text-anchor="start" x="165.38" y="-306.5" font-family="Helvetica,sans-Serif" font-size="10.00">nlohmann::basic_json</text>
<text xml:space="preserve" text-anchor="middle" x="212.62" y="-294.5" font-family="Helvetica,sans-Serif" font-size="10.00">::assert_invariant</text>
</a>
</g>
</g>
<!-- Node1&#45;&gt;Node2 -->
<g id="edge1" class="edge">
<title>Node1&#45;&gt;Node2</title>
<path fill="none" stroke="#63b8ff" d="M64.6,-176.14C78.42,-201.41 108.35,-250.35 146.5,-279 147.83,-280 149.21,-280.96 150.62,-281.9"/>
<polygon fill="#63b8ff" stroke="#63b8ff" points="148.66,-284.8 159.07,-286.79 152.17,-278.75 148.66,-284.8"/>
</g>
<!-- Node3 -->
<g id="node3" class="node">
<title>Node3</title>
<g id="a_node3"><a xlink:href="a01567.html#a4e849260a3caa1b288c7e619130c6c09" target="_top" xlink:title=" ">
<polygon fill="white" stroke="#666666" points="273.12,-270 152.12,-270 152.12,-238 273.12,-238 273.12,-270"/>
<text xml:space="preserve" text-anchor="start" x="160.12" y="-256.5" font-family="Helvetica,sans-Serif" font-size="10.00">nlohmann::detail::invalid</text>
<text xml:space="preserve" text-anchor="middle" x="212.62" y="-244.5" font-family="Helvetica,sans-Serif" font-size="10.00">_iterator::create</text>
</a>
</g>
</g>
<!-- Node1&#45;&gt;Node3 -->
<g id="edge2" class="edge">
<title>Node1&#45;&gt;Node3</title>
<path fill="none" stroke="#63b8ff" d="M74.51,-176.49C92,-191.65 119.64,-213.99 146.5,-229 148.82,-230.3 151.22,-231.55 153.67,-232.77"/>
<polygon fill="#63b8ff" stroke="#63b8ff" points="152.02,-235.87 162.57,-236.89 154.97,-229.51 152.02,-235.87"/>
</g>
<!-- Node5 -->
<g id="node5" class="node">
<title>Node5</title>
<g id="a_node5"><a xlink:href="a01571.html#aecc083aea4b698c33d042670ba50c10f" target="_top" xlink:title=" ">
<polygon fill="white" stroke="#666666" points="268.62,-220 156.62,-220 156.62,-188 268.62,-188 268.62,-220"/>
<text xml:space="preserve" text-anchor="start" x="164.62" y="-206.5" font-family="Helvetica,sans-Serif" font-size="10.00">nlohmann::detail::type</text>
<text xml:space="preserve" text-anchor="middle" x="212.62" y="-194.5" font-family="Helvetica,sans-Serif" font-size="10.00">_error::create</text>
</a>
</g>
</g>
<!-- Node1&#45;&gt;Node5 -->
<g id="edge4" class="edge">
<title>Node1&#45;&gt;Node5</title>
<path fill="none" stroke="#63b8ff" d="M110.59,-175.39C121.8,-178.56 133.72,-181.94 145.3,-185.22"/>
<polygon fill="#63b8ff" stroke="#63b8ff" points="144.23,-188.55 154.8,-187.91 146.14,-181.82 144.23,-188.55"/>
</g>
<!-- Node6 -->
<g id="node6" class="node">
<title>Node6</title>
<g id="a_node6"><a xlink:href="a01659.html#a931267ec3f09eb67e4382f321b2c52bc" target="_top" xlink:title="returns an iterator to one past the last element">
<polygon fill="white" stroke="#666666" points="278.75,-170 146.5,-170 146.5,-150 278.75,-150 278.75,-170"/>
<text xml:space="preserve" text-anchor="middle" x="212.62" y="-156.5" font-family="Helvetica,sans-Serif" font-size="10.00">nlohmann::basic_json::end</text>
</a>
</g>
</g>
<!-- Node1&#45;&gt;Node6 -->
<g id="edge6" class="edge">
<title>Node1&#45;&gt;Node6</title>
<path fill="none" stroke="#63b8ff" d="M110.59,-160C118.38,-160 126.52,-160 134.65,-160"/>
<polygon fill="#63b8ff" stroke="#63b8ff" points="134.58,-163.5 144.58,-160 134.58,-156.5 134.58,-163.5"/>
</g>
<!-- Node9 -->
<g id="node9" class="node">
<title>Node9</title>
<g id="a_node9"><a xlink:href="a01659.html#a9576224f7b3ff812a308e7c1e784ea80" target="_top" xlink:title="return whether value is a binary array">
<polygon fill="white" stroke="#666666" points="267.88,-132 157.38,-132 157.38,-100 267.88,-100 267.88,-132"/>
<text xml:space="preserve" text-anchor="start" x="165.38" y="-118.5" font-family="Helvetica,sans-Serif" font-size="10.00">nlohmann::basic_json</text>
<text xml:space="preserve" text-anchor="middle" x="212.62" y="-106.5" font-family="Helvetica,sans-Serif" font-size="10.00">::is_binary</text>
</a>
</g>
</g>
<!-- Node1&#45;&gt;Node9 -->
<g id="edge9" class="edge">
<title>Node1&#45;&gt;Node9</title>
<path fill="none" stroke="#63b8ff" d="M110.59,-144.61C122.12,-141.35 134.4,-137.87 146.28,-134.5"/>
<polygon fill="#63b8ff" stroke="#63b8ff" points="146.93,-137.96 155.59,-131.87 145.02,-131.22 146.93,-137.96"/>
</g>
<!-- Node10 -->
<g id="node10" class="node">
<title>Node10</title>
<g id="a_node10"><a xlink:href="a01659.html#ab303d17366c26fca12242c7f8def1bb7" target="_top" xlink:title="return whether value is a string">
<polygon fill="white" stroke="#666666" points="267.88,-82 157.38,-82 157.38,-50 267.88,-50 267.88,-82"/>
<text xml:space="preserve" text-anchor="start" x="165.38" y="-68.5" font-family="Helvetica,sans-Serif" font-size="10.00">nlohmann::basic_json</text>
<text xml:space="preserve" text-anchor="middle" x="212.62" y="-56.5" font-family="Helvetica,sans-Serif" font-size="10.00">::is_string</text>
</a>
</g>
</g>
<!-- Node1&#45;&gt;Node10 -->
<g id="edge10" class="edge">
<title>Node1&#45;&gt;Node10</title>
<path fill="none" stroke="#63b8ff" d="M74.51,-143.51C92,-128.35 119.64,-106.01 146.5,-91 148.82,-89.7 151.22,-88.45 153.67,-87.23"/>
<polygon fill="#63b8ff" stroke="#63b8ff" points="154.97,-90.49 162.57,-83.11 152.02,-84.13 154.97,-90.49"/>
</g>
<!-- Node11 -->
<g id="node11" class="node">
<title>Node11</title>
<g id="a_node11"><a xlink:href="a01659.html#ab8811fc4eab6091b32b34b3ac3e90474" target="_top" xlink:title="return the type as string">
<polygon fill="white" stroke="#666666" points="267.88,-32 157.38,-32 157.38,0 267.88,0 267.88,-32"/>
<text xml:space="preserve" text-anchor="start" x="165.38" y="-18.5" font-family="Helvetica,sans-Serif" font-size="10.00">nlohmann::basic_json</text>
<text xml:space="preserve" text-anchor="middle" x="212.62" y="-6.5" font-family="Helvetica,sans-Serif" font-size="10.00">::type_name</text>
</a>
</g>
</g>
<!-- Node1&#45;&gt;Node11 -->
<g id="edge11" class="edge">
<title>Node1&#45;&gt;Node11</title>
<path fill="none" stroke="#63b8ff" d="M64.6,-143.86C78.42,-118.59 108.35,-69.65 146.5,-41 147.83,-40 149.21,-39.04 150.62,-38.1"/>
<polygon fill="#63b8ff" stroke="#63b8ff" points="152.17,-41.25 159.07,-33.21 148.66,-35.2 152.17,-41.25"/>
</g>
<!-- Node4 -->
<g id="node4" class="node">
<title>Node4</title>
<g id="a_node4"><a xlink:href="a01559.html#abf41a7e9178356314082284e6cfea278" target="_top" xlink:title=" ">
<polygon fill="white" stroke="#666666" points="450,-248 314.75,-248 314.75,-216 450,-216 450,-248"/>
<text xml:space="preserve" text-anchor="start" x="322.75" y="-234.5" font-family="Helvetica,sans-Serif" font-size="10.00">nlohmann::detail::exception</text>
<text xml:space="preserve" text-anchor="middle" x="382.38" y="-222.5" font-family="Helvetica,sans-Serif" font-size="10.00">::name</text>
</a>
</g>
</g>
<!-- Node3&#45;&gt;Node4 -->
<g id="edge3" class="edge">
<title>Node3&#45;&gt;Node4</title>
<path fill="none" stroke="#63b8ff" d="M273.24,-246.18C282.96,-244.91 293.15,-243.57 303.23,-242.25"/>
<polygon fill="#63b8ff" stroke="#63b8ff" points="303.57,-245.73 313.03,-240.96 302.66,-238.79 303.57,-245.73"/>
</g>
<!-- Node5&#45;&gt;Node4 -->
<g id="edge5" class="edge">
<title>Node5&#45;&gt;Node4</title>
<path fill="none" stroke="#63b8ff" d="M269.02,-213.25C280.01,-215.08 291.74,-217.04 303.33,-218.97"/>
<polygon fill="#63b8ff" stroke="#63b8ff" points="302.43,-222.37 312.87,-220.57 303.58,-215.47 302.43,-222.37"/>
</g>
<!-- Node7 -->
<g id="node7" class="node">
<title>Node7</title>
<g id="a_node7"><a xlink:href="a02011.html#a23e50ad4c13aa62d9ac7f60a123823ee" target="_top" xlink:title="set the iterator past the last value">
<polygon fill="white" stroke="#666666" points="435.75,-176 329,-176 329,-144 435.75,-144 435.75,-176"/>
<text xml:space="preserve" text-anchor="start" x="337" y="-162.5" font-family="Helvetica,sans-Serif" font-size="10.00">nlohmann::detail::iter</text>
<text xml:space="preserve" text-anchor="middle" x="382.38" y="-150.5" font-family="Helvetica,sans-Serif" font-size="10.00">_impl::set_end</text>
</a>
</g>
</g>
<!-- Node6&#45;&gt;Node7 -->
<g id="edge7" class="edge">
<title>Node6&#45;&gt;Node7</title>
<path fill="none" stroke="#63b8ff" d="M278.96,-160C291.57,-160 304.77,-160 317.33,-160"/>
<polygon fill="#63b8ff" stroke="#63b8ff" points="317.15,-163.5 327.15,-160 317.15,-156.5 317.15,-163.5"/>
</g>
<!-- Node8 -->
<g id="node8" class="node">
<title>Node8</title>
<g id="a_node8"><a xlink:href="a02003.html#ad26a823483846a12d890c3feed3097eb" target="_top" xlink:title="set iterator to a defined past the end">
<polygon fill="white" stroke="#666666" points="616,-176 486,-176 486,-144 616,-144 616,-176"/>
<text xml:space="preserve" text-anchor="start" x="494" y="-162.5" font-family="Helvetica,sans-Serif" font-size="10.00">nlohmann::detail::primitive</text>
<text xml:space="preserve" text-anchor="middle" x="551" y="-150.5" font-family="Helvetica,sans-Serif" font-size="10.00">_iterator_t::set_end</text>
</a>
</g>
</g>
<!-- Node7&#45;&gt;Node8 -->
<g id="edge8" class="edge">
<title>Node7&#45;&gt;Node8</title>
<path fill="none" stroke="#63b8ff" d="M436.1,-160C448.26,-160 461.44,-160 474.37,-160"/>
<polygon fill="#63b8ff" stroke="#63b8ff" points="474.12,-163.5 484.12,-160 474.12,-156.5 474.12,-163.5"/>
</g>
</g>
</svg>
