<?xml version="1.0" encoding="UTF-8" standalone="no"?>
<!DOCTYPE svg PUBLIC "-//W3C//DTD SVG 1.1//EN"
 "http://www.w3.org/Graphics/SVG/1.1/DTD/svg11.dtd">
<!-- Generated by graphviz version 13.1.2 (20250808.2320)
 -->
<!-- Title: nlohmann::basic_json::sax_parse Pages: 1 -->
<svg width="1875pt" height="2343pt"
 viewBox="0.00 0.00 1875.00 2343.00" xmlns="http://www.w3.org/2000/svg" xmlns:xlink="http://www.w3.org/1999/xlink">
<g id="graph0" class="graph" transform="scale(1 1) rotate(0) translate(4 2338.77)">
<title>nlohmann::basic_json::sax_parse</title>
<!-- Node1 -->
<g id="node1" class="node">
<title>Node1</title>
<g id="a_node1"><a xlink:title="generate SAX events">
<polygon fill="#999999" stroke="#666666" points="110.5,-1365.77 0,-1365.77 0,-1333.77 110.5,-1333.77 110.5,-1365.77"/>
<text xml:space="preserve" text-anchor="start" x="8" y="-1352.27" font-family="Helvetica,sans-Serif" font-size="10.00">nlohmann::basic_json</text>
<text xml:space="preserve" text-anchor="middle" x="55.25" y="-1340.27" font-family="Helvetica,sans-Serif" font-size="10.00">::sax_parse</text>
</a>
</g>
</g>
<!-- Node2 -->
<g id="node2" class="node">
<title>Node2</title>
<g id="a_node2"><a xlink:href="a00477.html#a616a53cc3114fdc113fc44e6af4c3c7f" target="_top" xlink:title=" ">
<polygon fill="white" stroke="#666666" points="1180.75,-1382.77 1066.5,-1382.77 1066.5,-1350.77 1180.75,-1350.77 1180.75,-1382.77"/>
<text xml:space="preserve" text-anchor="start" x="1074.5" y="-1369.27" font-family="Helvetica,sans-Serif" font-size="10.00">nlohmann::detail::input</text>
<text xml:space="preserve" text-anchor="middle" x="1123.62" y="-1357.27" font-family="Helvetica,sans-Serif" font-size="10.00">_adapter</text>
</a>
</g>
</g>
<!-- Node1&#45;&gt;Node2 -->
<g id="edge1" class="edge">
<title>Node1&#45;&gt;Node2</title>
<path fill="none" stroke="#63b8ff" d="M69.59,-1366.05C110.15,-1413.58 237.61,-1548.77 375.38,-1548.77 375.38,-1548.77 375.38,-1548.77 746.12,-1548.77 864.15,-1548.77 920.51,-1605.54 1011,-1529.77 1060.92,-1487.97 1001.48,-1434.32 1047,-1387.77 1049.67,-1385.04 1052.66,-1382.66 1055.86,-1380.58"/>
<polygon fill="#63b8ff" stroke="#63b8ff" points="1057.49,-1383.68 1064.7,-1375.91 1054.23,-1377.49 1057.49,-1383.68"/>
</g>
<!-- Node3 -->
<g id="node3" class="node">
<title>Node3</title>
<g id="a_node3"><a xlink:href="a01995.html#ab4afd9ee276bbb15a0f898061aad94dd" target="_top" xlink:title=" ">
<polygon fill="white" stroke="#666666" points="266,-1207.77 146.5,-1207.77 146.5,-1175.77 266,-1175.77 266,-1207.77"/>
<text xml:space="preserve" text-anchor="start" x="154.5" y="-1194.27" font-family="Helvetica,sans-Serif" font-size="10.00">nlohmann::detail::binary</text>
<text xml:space="preserve" text-anchor="middle" x="206.25" y="-1182.27" font-family="Helvetica,sans-Serif" font-size="10.00">_reader::sax_parse</text>
</a>
</g>
</g>
<!-- Node1&#45;&gt;Node3 -->
<g id="edge2" class="edge">
<title>Node1&#45;&gt;Node3</title>
<path fill="none" stroke="#63b8ff" d="M71.63,-1333.46C97.84,-1305.66 151.3,-1248.98 182.06,-1216.36"/>
<polygon fill="#63b8ff" stroke="#63b8ff" points="184.37,-1219.01 188.69,-1209.33 179.28,-1214.21 184.37,-1219.01"/>
</g>
<!-- Node4 -->
<g id="node4" class="node">
<title>Node4</title>
<g id="a_node4"><a xlink:href="a01563.html#a137ea4d27de45d8a844fd13451d40f3d" target="_top" xlink:title="create a parse error exception">
<polygon fill="white" stroke="#666666" points="1683.25,-1112.77 1566,-1112.77 1566,-1080.77 1683.25,-1080.77 1683.25,-1112.77"/>
<text xml:space="preserve" text-anchor="start" x="1574" y="-1099.27" font-family="Helvetica,sans-Serif" font-size="10.00">nlohmann::detail::parse</text>
<text xml:space="preserve" text-anchor="middle" x="1624.62" y="-1087.27" font-family="Helvetica,sans-Serif" font-size="10.00">_error::create</text>
</a>
</g>
</g>
<!-- Node3&#45;&gt;Node4 -->
<g id="edge3" class="edge">
<title>Node3&#45;&gt;Node4</title>
<path fill="none" stroke="#63b8ff" d="M208.52,-1207.93C219.9,-1346.85 309.46,-2334.77 556.38,-2334.77 556.38,-2334.77 556.38,-2334.77 1300.38,-2334.77 1421.75,-2334.77 1463.44,-2278.2 1518,-2169.77 1614.26,-1978.47 1622.83,-1271.91 1623.56,-1124.02"/>
<polygon fill="#63b8ff" stroke="#63b8ff" points="1627.06,-1124.43 1623.6,-1114.41 1620.06,-1124.4 1627.06,-1124.43"/>
</g>
<!-- Node7 -->
<g id="node7" class="node">
<title>Node7</title>
<g id="a_node7"><a xlink:href="a01995.html#a9c413c9a1bade1ce345740f4d69156f0" target="_top" xlink:title=" ">
<polygon fill="white" stroke="#666666" points="1695.25,-808.77 1554,-808.77 1554,-776.77 1695.25,-776.77 1695.25,-808.77"/>
<text xml:space="preserve" text-anchor="start" x="1562" y="-795.27" font-family="Helvetica,sans-Serif" font-size="10.00">nlohmann::detail::binary</text>
<text xml:space="preserve" text-anchor="middle" x="1624.62" y="-783.27" font-family="Helvetica,sans-Serif" font-size="10.00">_reader::exception_message</text>
</a>
</g>
</g>
<!-- Node3&#45;&gt;Node7 -->
<g id="edge6" class="edge">
<title>Node3&#45;&gt;Node7</title>
<path fill="none" stroke="#63b8ff" d="M207.45,-1175.42C209.24,-1042.79 224.17,-146.06 302,-58.77 378.74,27.29 441.07,-7.77 556.38,-7.77 556.38,-7.77 556.38,-7.77 1300.38,-7.77 1433.25,-7.77 1454.56,-96.01 1518,-212.77 1571.3,-310.87 1610.46,-662.95 1620.88,-764.92"/>
<polygon fill="#63b8ff" stroke="#63b8ff" points="1617.39,-765.23 1621.88,-774.83 1624.35,-764.53 1617.39,-765.23"/>
</g>
<!-- Node8 -->
<g id="node8" class="node">
<title>Node8</title>
<g id="a_node8"><a xlink:href="a01995.html#ad222095c0b21a87824cb10629299629a" target="_top" xlink:title="get next character from the input">
<polygon fill="white" stroke="#666666" points="1518,-1336.77 1398.5,-1336.77 1398.5,-1304.77 1518,-1304.77 1518,-1336.77"/>
<text xml:space="preserve" text-anchor="start" x="1406.5" y="-1323.27" font-family="Helvetica,sans-Serif" font-size="10.00">nlohmann::detail::binary</text>
<text xml:space="preserve" text-anchor="middle" x="1458.25" y="-1311.27" font-family="Helvetica,sans-Serif" font-size="10.00">_reader::get</text>
</a>
</g>
</g>
<!-- Node3&#45;&gt;Node8 -->
<g id="edge7" class="edge">
<title>Node3&#45;&gt;Node8</title>
<path fill="none" stroke="#63b8ff" d="M206.98,-1175.58C205.38,-1062.36 200.27,-388.79 302,-217.77 371.77,-100.48 419.9,-45.77 556.38,-45.77 556.38,-45.77 556.38,-45.77 746.12,-45.77 1027.65,-45.77 1203.38,40.47 1362.5,-191.77 1426.7,-285.47 1452.18,-1129.2 1456.55,-1293.21"/>
<polygon fill="#63b8ff" stroke="#63b8ff" points="1453.05,-1293.21 1456.81,-1303.11 1460.05,-1293.02 1453.05,-1293.21"/>
</g>
<!-- Node9 -->
<g id="node9" class="node">
<title>Node9</title>
<g id="a_node9"><a xlink:href="a01995.html#a252c1179651d22c5343bcf0b538ed26a" target="_top" xlink:title=" ">
<polygon fill="white" stroke="#666666" points="1362.12,-232.77 1236.62,-232.77 1236.62,-200.77 1362.12,-200.77 1362.12,-232.77"/>
<text xml:space="preserve" text-anchor="start" x="1244.62" y="-219.27" font-family="Helvetica,sans-Serif" font-size="10.00">nlohmann::detail::binary</text>
<text xml:space="preserve" text-anchor="middle" x="1299.38" y="-207.27" font-family="Helvetica,sans-Serif" font-size="10.00">_reader::get_ignore_noop</text>
</a>
</g>
</g>
<!-- Node3&#45;&gt;Node9 -->
<g id="edge8" class="edge">
<title>Node3&#45;&gt;Node9</title>
<path fill="none" stroke="#63b8ff" d="M207.58,-1175.67C209.52,-1101.26 222.3,-783.88 302,-539.77 356.47,-372.93 345.92,-295.5 486.75,-190.77 741.41,-1.39 896.73,-70.1 1200.25,-162.77 1223.32,-169.81 1247.07,-182.71 1265.42,-194.13"/>
<polygon fill="#63b8ff" stroke="#63b8ff" points="1263.44,-197.02 1273.75,-199.46 1267.21,-191.12 1263.44,-197.02"/>
</g>
<!-- Node10 -->
<g id="node10" class="node">
<title>Node10</title>
<g id="a_node10"><a xlink:href="a01995.html#a7d323283c60a0b89ee5eeadf5cb9a5ad" target="_top" xlink:title=" ">
<polygon fill="white" stroke="#666666" points="1362.5,-1194.77 1236.25,-1194.77 1236.25,-1162.77 1362.5,-1162.77 1362.5,-1194.77"/>
<text xml:space="preserve" text-anchor="start" x="1244.25" y="-1181.27" font-family="Helvetica,sans-Serif" font-size="10.00">nlohmann::detail::binary</text>
<text xml:space="preserve" text-anchor="middle" x="1299.38" y="-1169.27" font-family="Helvetica,sans-Serif" font-size="10.00">_reader::get_token_string</text>
</a>
</g>
</g>
<!-- Node3&#45;&gt;Node10 -->
<g id="edge10" class="edge">
<title>Node3&#45;&gt;Node10</title>
<path fill="none" stroke="#63b8ff" d="M266.3,-1191.07C451.38,-1188.86 1019.98,-1182.09 1224.3,-1179.65"/>
<polygon fill="#63b8ff" stroke="#63b8ff" points="1224.31,-1183.15 1234.27,-1179.53 1224.22,-1176.15 1224.31,-1183.15"/>
</g>
<!-- Node11 -->
<g id="node11" class="node">
<title>Node11</title>
<g id="a_node11"><a xlink:href="a01995.html#abf2051ba57d9ea9b378a2e7c14e22b34" target="_top" xlink:title="Reads in a BSON&#45;object and passes it to the SAX&#45;parser.">
<polygon fill="white" stroke="#666666" points="628,-1166.77 486.75,-1166.77 486.75,-1134.77 628,-1134.77 628,-1166.77"/>
<text xml:space="preserve" text-anchor="start" x="494.75" y="-1153.27" font-family="Helvetica,sans-Serif" font-size="10.00">nlohmann::detail::binary</text>
<text xml:space="preserve" text-anchor="middle" x="557.38" y="-1141.27" font-family="Helvetica,sans-Serif" font-size="10.00">_reader::parse_bson_internal</text>
</a>
</g>
</g>
<!-- Node3&#45;&gt;Node11 -->
<g id="edge11" class="edge">
<title>Node3&#45;&gt;Node11</title>
<path fill="none" stroke="#63b8ff" d="M266.47,-1184.81C323.83,-1178.08 411.24,-1167.81 475.09,-1160.32"/>
<polygon fill="#63b8ff" stroke="#63b8ff" points="475.3,-1163.82 484.82,-1159.17 474.48,-1156.86 475.3,-1163.82"/>
</g>
<!-- Node21 -->
<g id="node21" class="node">
<title>Node21</title>
<g id="a_node21"><a xlink:href="a01995.html#a4e4accd5a2a41bfb2f18a8a0fcc9421c" target="_top" xlink:title=" ">
<polygon fill="white" stroke="#666666" points="814.62,-1962.77 675.62,-1962.77 675.62,-1930.77 814.62,-1930.77 814.62,-1962.77"/>
<text xml:space="preserve" text-anchor="start" x="683.62" y="-1949.27" font-family="Helvetica,sans-Serif" font-size="10.00">nlohmann::detail::binary</text>
<text xml:space="preserve" text-anchor="middle" x="745.12" y="-1937.27" font-family="Helvetica,sans-Serif" font-size="10.00">_reader::parse_cbor_internal</text>
</a>
</g>
</g>
<!-- Node3&#45;&gt;Node21 -->
<g id="edge41" class="edge">
<title>Node3&#45;&gt;Node21</title>
<path fill="none" stroke="#63b8ff" d="M218.96,-1208.24C288.02,-1305.36 641.88,-1802.99 726.11,-1921.44"/>
<polygon fill="#63b8ff" stroke="#63b8ff" points="723.04,-1923.16 731.69,-1929.28 728.75,-1919.1 723.04,-1923.16"/>
</g>
<!-- Node27 -->
<g id="node27" class="node">
<title>Node27</title>
<g id="a_node27"><a xlink:href="a01995.html#ae020385ce9424271d61f85d3842c02cb" target="_top" xlink:title=" ">
<polygon fill="white" stroke="#666666" points="806.75,-1520.77 683.5,-1520.77 683.5,-1476.77 806.75,-1476.77 806.75,-1520.77"/>
<text xml:space="preserve" text-anchor="start" x="691.5" y="-1507.27" font-family="Helvetica,sans-Serif" font-size="10.00">nlohmann::detail::binary</text>
<text xml:space="preserve" text-anchor="start" x="691.5" y="-1495.27" font-family="Helvetica,sans-Serif" font-size="10.00">_reader::parse_msgpack</text>
<text xml:space="preserve" text-anchor="middle" x="745.12" y="-1483.27" font-family="Helvetica,sans-Serif" font-size="10.00">_internal</text>
</a>
</g>
</g>
<!-- Node3&#45;&gt;Node27 -->
<g id="edge76" class="edge">
<title>Node3&#45;&gt;Node27</title>
<path fill="none" stroke="#63b8ff" d="M235.41,-1208.19C254.24,-1219.16 279.58,-1233.87 302,-1246.77 444.26,-1328.6 612.85,-1424.35 694.66,-1470.74"/>
<polygon fill="#63b8ff" stroke="#63b8ff" points="692.69,-1473.65 703.12,-1475.54 696.14,-1467.56 692.69,-1473.65"/>
</g>
<!-- Node32 -->
<g id="node32" class="node">
<title>Node32</title>
<g id="a_node32"><a xlink:href="a01995.html#a5a79480d661019b0f3fc615ae12f7de7" target="_top" xlink:title=" ">
<polygon fill="white" stroke="#666666" points="450.75,-580.77 302,-580.77 302,-548.77 450.75,-548.77 450.75,-580.77"/>
<text xml:space="preserve" text-anchor="start" x="310" y="-567.27" font-family="Helvetica,sans-Serif" font-size="10.00">nlohmann::detail::binary</text>
<text xml:space="preserve" text-anchor="middle" x="376.38" y="-555.27" font-family="Helvetica,sans-Serif" font-size="10.00">_reader::parse_ubjson_internal</text>
</a>
</g>
</g>
<!-- Node3&#45;&gt;Node32 -->
<g id="edge99" class="edge">
<title>Node3&#45;&gt;Node32</title>
<path fill="none" stroke="#63b8ff" d="M211.66,-1175.32C234.51,-1090.12 339.44,-698.78 368.12,-591.84"/>
<polygon fill="#63b8ff" stroke="#63b8ff" points="371.41,-593.07 370.62,-582.51 364.65,-591.26 371.41,-593.07"/>
</g>
<!-- Node5 -->
<g id="node5" class="node">
<title>Node5</title>
<g id="a_node5"><a xlink:href="a01559.html#abf41a7e9178356314082284e6cfea278" target="_top" xlink:title=" ">
<polygon fill="white" stroke="#666666" points="1866.5,-1137.77 1731.25,-1137.77 1731.25,-1105.77 1866.5,-1105.77 1866.5,-1137.77"/>
<text xml:space="preserve" text-anchor="start" x="1739.25" y="-1124.27" font-family="Helvetica,sans-Serif" font-size="10.00">nlohmann::detail::exception</text>
<text xml:space="preserve" text-anchor="middle" x="1798.88" y="-1112.27" font-family="Helvetica,sans-Serif" font-size="10.00">::name</text>
</a>
</g>
</g>
<!-- Node4&#45;&gt;Node5 -->
<g id="edge4" class="edge">
<title>Node4&#45;&gt;Node5</title>
<path fill="none" stroke="#63b8ff" d="M1683.46,-1105.16C1695.13,-1106.86 1707.59,-1108.67 1719.82,-1110.44"/>
<polygon fill="#63b8ff" stroke="#63b8ff" points="1719.07,-1113.87 1729.47,-1111.84 1720.08,-1106.94 1719.07,-1113.87"/>
</g>
<!-- Node6 -->
<g id="node6" class="node">
<title>Node6</title>
<g id="a_node6"><a xlink:href="a01563.html#aefe74adeaa48781464ba2fd2ec63d221" target="_top" xlink:title=" ">
<polygon fill="white" stroke="#666666" points="1857.5,-1087.77 1740.25,-1087.77 1740.25,-1055.77 1857.5,-1055.77 1857.5,-1087.77"/>
<text xml:space="preserve" text-anchor="start" x="1748.25" y="-1074.27" font-family="Helvetica,sans-Serif" font-size="10.00">nlohmann::detail::parse</text>
<text xml:space="preserve" text-anchor="middle" x="1798.88" y="-1062.27" font-family="Helvetica,sans-Serif" font-size="10.00">_error::position_string</text>
</a>
</g>
</g>
<!-- Node4&#45;&gt;Node6 -->
<g id="edge5" class="edge">
<title>Node4&#45;&gt;Node6</title>
<path fill="none" stroke="#63b8ff" d="M1683.46,-1088.38C1697.95,-1086.27 1713.63,-1084 1728.61,-1081.82"/>
<polygon fill="#63b8ff" stroke="#63b8ff" points="1729.01,-1085.3 1738.4,-1080.4 1728,-1078.37 1729.01,-1085.3"/>
</g>
<!-- Node9&#45;&gt;Node8 -->
<g id="edge9" class="edge">
<title>Node9&#45;&gt;Node8</title>
<path fill="none" stroke="#63b8ff" d="M1309.38,-233.02C1323.36,-259.09 1349.97,-312.26 1362.5,-360.77 1455.37,-720.22 1458.45,-1176.97 1457.61,-1293"/>
<polygon fill="#63b8ff" stroke="#63b8ff" points="1454.11,-1292.76 1457.52,-1302.8 1461.11,-1292.83 1454.11,-1292.76"/>
</g>
<!-- Node12 -->
<g id="node12" class="node">
<title>Node12</title>
<g id="a_node12"><a xlink:href="a01995.html#a4e07b75ccb2579d0e738b894f0fd8cf8" target="_top" xlink:title="Read a BSON element list (as specified in the BSON&#45;spec)">
<polygon fill="white" stroke="#666666" points="826.25,-1166.77 664,-1166.77 664,-1134.77 826.25,-1134.77 826.25,-1166.77"/>
<text xml:space="preserve" text-anchor="start" x="672" y="-1153.27" font-family="Helvetica,sans-Serif" font-size="10.00">nlohmann::detail::binary</text>
<text xml:space="preserve" text-anchor="middle" x="745.12" y="-1141.27" font-family="Helvetica,sans-Serif" font-size="10.00">_reader::parse_bson_element_list</text>
</a>
</g>
</g>
<!-- Node11&#45;&gt;Node12 -->
<g id="edge12" class="edge">
<title>Node11&#45;&gt;Node12</title>
<path fill="none" stroke="#63b8ff" d="M628.33,-1150.77C636.16,-1150.77 644.22,-1150.77 652.27,-1150.77"/>
<polygon fill="#63b8ff" stroke="#63b8ff" points="652.11,-1154.27 662.11,-1150.77 652.11,-1147.27 652.11,-1154.27"/>
</g>
<!-- Node12&#45;&gt;Node8 -->
<g id="edge13" class="edge">
<title>Node12&#45;&gt;Node8</title>
<path fill="none" stroke="#63b8ff" d="M826.69,-1163.19C879.33,-1171.69 949.47,-1183.74 1011,-1196.77 1168.55,-1230.13 1208.85,-1236.53 1362.5,-1284.77 1376.95,-1289.31 1392.39,-1294.86 1406.53,-1300.24"/>
<polygon fill="#63b8ff" stroke="#63b8ff" points="1405.04,-1303.41 1415.63,-1303.75 1407.56,-1296.88 1405.04,-1303.41"/>
</g>
<!-- Node13 -->
<g id="node13" class="node">
<title>Node13</title>
<g id="a_node13"><a xlink:href="a01995.html#a354cbbaaea672c024ac949e1801c4302" target="_top" xlink:title="Parses a C&#45;style string from the BSON input.">
<polygon fill="white" stroke="#666666" points="1359.12,-1396.77 1239.62,-1396.77 1239.62,-1364.77 1359.12,-1364.77 1359.12,-1396.77"/>
<text xml:space="preserve" text-anchor="start" x="1247.62" y="-1383.27" font-family="Helvetica,sans-Serif" font-size="10.00">nlohmann::detail::binary</text>
<text xml:space="preserve" text-anchor="middle" x="1299.38" y="-1371.27" font-family="Helvetica,sans-Serif" font-size="10.00">_reader::get_bson_cstr</text>
</a>
</g>
</g>
<!-- Node12&#45;&gt;Node13 -->
<g id="edge14" class="edge">
<title>Node12&#45;&gt;Node13</title>
<path fill="none" stroke="#63b8ff" d="M791.23,-1167.12C802.7,-1171.42 814.98,-1176.16 826.25,-1180.77 842.46,-1187.4 845.9,-1190.52 862.25,-1196.77 927.14,-1221.58 946.41,-1219.19 1011,-1244.77 1100.67,-1280.28 1201.82,-1330.68 1257,-1359.09"/>
<polygon fill="#63b8ff" stroke="#63b8ff" points="1255.24,-1362.13 1265.73,-1363.61 1258.46,-1355.91 1255.24,-1362.13"/>
</g>
<!-- Node14 -->
<g id="node14" class="node">
<title>Node14</title>
<g id="a_node14"><a xlink:href="a01995.html#a61a0bd8bbe7b560bd429fa990ba3ba1a" target="_top" xlink:title=" ">
<polygon fill="white" stroke="#666666" points="1518,-1471.77 1398.5,-1471.77 1398.5,-1439.77 1518,-1439.77 1518,-1471.77"/>
<text xml:space="preserve" text-anchor="start" x="1406.5" y="-1458.27" font-family="Helvetica,sans-Serif" font-size="10.00">nlohmann::detail::binary</text>
<text xml:space="preserve" text-anchor="middle" x="1458.25" y="-1446.27" font-family="Helvetica,sans-Serif" font-size="10.00">_reader::unexpect_eof</text>
</a>
</g>
</g>
<!-- Node12&#45;&gt;Node14 -->
<g id="edge40" class="edge">
<title>Node12&#45;&gt;Node14</title>
<path fill="none" stroke="#63b8ff" d="M803.66,-1167.24C811.7,-1170.95 819.5,-1175.42 826.25,-1180.77 848.85,-1198.69 839.24,-1217.37 862.25,-1234.77 917.66,-1276.67 961.71,-1233.82 1011,-1282.77 1047.2,-1318.72 1015.17,-1351.9 1047,-1391.77 1108.27,-1468.5 1141.64,-1479.48 1236.25,-1505.77 1290.31,-1520.79 1309.58,-1524.43 1362.5,-1505.77 1379.15,-1499.9 1380.53,-1490.12 1397.59,-1478.25"/>
<polygon fill="#63b8ff" stroke="#63b8ff" points="1399.37,-1481.26 1406.07,-1473.05 1395.71,-1475.29 1399.37,-1481.26"/>
</g>
<!-- Node15 -->
<g id="node15" class="node">
<title>Node15</title>
<g id="a_node15"><a xlink:href="a01995.html#a23bde2450d7a5772bf5051e36ff560a4" target="_top" xlink:title="Read a BSON document element of the given element_type.">
<polygon fill="white" stroke="#666666" points="1008.75,-1022.77 864.5,-1022.77 864.5,-978.77 1008.75,-978.77 1008.75,-1022.77"/>
<text xml:space="preserve" text-anchor="start" x="872.5" y="-1009.27" font-family="Helvetica,sans-Serif" font-size="10.00">nlohmann::detail::binary</text>
<text xml:space="preserve" text-anchor="start" x="872.5" y="-997.27" font-family="Helvetica,sans-Serif" font-size="10.00">_reader::parse_bson_element</text>
<text xml:space="preserve" text-anchor="middle" x="936.62" y="-985.27" font-family="Helvetica,sans-Serif" font-size="10.00">_internal</text>
</a>
</g>
</g>
<!-- Node12&#45;&gt;Node15 -->
<g id="edge19" class="edge">
<title>Node12&#45;&gt;Node15</title>
<path fill="none" stroke="#63b8ff" d="M765.17,-1134.47C787.95,-1115.09 827.4,-1081.96 862.25,-1054.77 872.76,-1046.57 884.31,-1037.91 895.07,-1029.99"/>
<polygon fill="#63b8ff" stroke="#63b8ff" points="897.05,-1032.87 903.05,-1024.14 892.92,-1027.23 897.05,-1032.87"/>
</g>
<!-- Node13&#45;&gt;Node8 -->
<g id="edge15" class="edge">
<title>Node13&#45;&gt;Node8</title>
<path fill="none" stroke="#63b8ff" d="M1343.24,-1364.37C1361.84,-1357.26 1383.83,-1348.85 1403.5,-1341.33"/>
<polygon fill="#63b8ff" stroke="#63b8ff" points="1404.66,-1344.63 1412.75,-1337.79 1402.16,-1338.09 1404.66,-1344.63"/>
</g>
<!-- Node13&#45;&gt;Node14 -->
<g id="edge16" class="edge">
<title>Node13&#45;&gt;Node14</title>
<path fill="none" stroke="#63b8ff" d="M1342.73,-1397.13C1349.4,-1399.9 1356.17,-1402.84 1362.5,-1405.77 1381.09,-1414.39 1401.22,-1424.84 1418.12,-1433.96"/>
<polygon fill="#63b8ff" stroke="#63b8ff" points="1416.41,-1437.01 1426.86,-1438.72 1419.75,-1430.86 1416.41,-1437.01"/>
</g>
<!-- Node14&#45;&gt;Node4 -->
<g id="edge17" class="edge">
<title>Node14&#45;&gt;Node4</title>
<path fill="none" stroke="#63b8ff" d="M1468.47,-1439.6C1480.45,-1418.36 1501.75,-1379.76 1518,-1345.77 1555.99,-1266.29 1595.02,-1169.58 1613.17,-1123.57"/>
<polygon fill="#63b8ff" stroke="#63b8ff" points="1616.37,-1125.01 1616.77,-1114.42 1609.85,-1122.45 1616.37,-1125.01"/>
</g>
<!-- Node14&#45;&gt;Node7 -->
<g id="edge18" class="edge">
<title>Node14&#45;&gt;Node7</title>
<path fill="none" stroke="#63b8ff" d="M1470.4,-1439.46C1484.01,-1418.69 1506.62,-1381.23 1518,-1345.77 1555.54,-1228.82 1531.09,-1192.44 1554,-1071.77 1571.72,-978.43 1601.57,-869.68 1615.72,-820.02"/>
<polygon fill="#63b8ff" stroke="#63b8ff" points="1619.08,-821.01 1618.47,-810.43 1612.35,-819.08 1619.08,-821.01"/>
</g>
<!-- Node15&#45;&gt;Node4 -->
<g id="edge20" class="edge">
<title>Node15&#45;&gt;Node4</title>
<path fill="none" stroke="#63b8ff" d="M945.7,-978.35C969.05,-913.78 1035.75,-731.42 1047,-723.77 1163.05,-644.82 1226.95,-701.35 1362.5,-737.77 1436.23,-757.58 1466.36,-754.54 1518,-810.77 1587.9,-886.88 1612.61,-1013.24 1620.41,-1068.94"/>
<polygon fill="#63b8ff" stroke="#63b8ff" points="1616.93,-1069.35 1621.71,-1078.81 1623.88,-1068.44 1616.93,-1069.35"/>
</g>
<!-- Node15&#45;&gt;Node8 -->
<g id="edge21" class="edge">
<title>Node15&#45;&gt;Node8</title>
<path fill="none" stroke="#63b8ff" d="M960.97,-978.46C981.71,-960.31 1013.79,-936.06 1047,-925.77 1112.06,-905.61 1133.66,-911.48 1200.25,-925.77 1277.56,-942.36 1310.53,-939.17 1362.5,-998.77 1438.81,-1086.29 1453.73,-1232.66 1456.6,-1293.24"/>
<polygon fill="#63b8ff" stroke="#63b8ff" points="1453.09,-1293.12 1456.97,-1302.97 1460.08,-1292.84 1453.09,-1293.12"/>
</g>
<!-- Node15&#45;&gt;Node11 -->
<g id="edge39" class="edge">
<title>Node15&#45;&gt;Node11</title>
<path fill="none" stroke="#63b8ff" d="M879.11,-1023.24C806.29,-1052.19 680.71,-1102.13 610.23,-1130.15"/>
<polygon fill="#63b8ff" stroke="#63b8ff" points="609.23,-1126.78 601.23,-1133.73 611.82,-1133.29 609.23,-1126.78"/>
</g>
<!-- Node16 -->
<g id="node16" class="node">
<title>Node16</title>
<g id="a_node16"><a xlink:href="a01995.html#a9940f56290b9278c58772eda2931e599" target="_top" xlink:title="Parses a byte array input of length len from the BSON input.">
<polygon fill="white" stroke="#666666" points="1186.38,-1016.77 1060.88,-1016.77 1060.88,-984.77 1186.38,-984.77 1186.38,-1016.77"/>
<text xml:space="preserve" text-anchor="start" x="1068.88" y="-1003.27" font-family="Helvetica,sans-Serif" font-size="10.00">nlohmann::detail::binary</text>
<text xml:space="preserve" text-anchor="middle" x="1123.62" y="-991.27" font-family="Helvetica,sans-Serif" font-size="10.00">_reader::get_bson_binary</text>
</a>
</g>
</g>
<!-- Node15&#45;&gt;Node16 -->
<g id="edge22" class="edge">
<title>Node15&#45;&gt;Node16</title>
<path fill="none" stroke="#63b8ff" d="M1009.15,-1000.77C1022.28,-1000.77 1036.01,-1000.77 1049.2,-1000.77"/>
<polygon fill="#63b8ff" stroke="#63b8ff" points="1049.11,-1004.27 1059.11,-1000.77 1049.11,-997.27 1049.11,-1004.27"/>
</g>
<!-- Node18 -->
<g id="node18" class="node">
<title>Node18</title>
<g id="a_node18"><a xlink:href="a01995.html#a23921422802aa472360dd05023e20565" target="_top" xlink:title="Parses a zero&#45;terminated string of length len from the BSON input.">
<polygon fill="white" stroke="#666666" points="1185.25,-966.77 1062,-966.77 1062,-934.77 1185.25,-934.77 1185.25,-966.77"/>
<text xml:space="preserve" text-anchor="start" x="1070" y="-953.27" font-family="Helvetica,sans-Serif" font-size="10.00">nlohmann::detail::binary</text>
<text xml:space="preserve" text-anchor="middle" x="1123.62" y="-941.27" font-family="Helvetica,sans-Serif" font-size="10.00">_reader::get_bson_string</text>
</a>
</g>
</g>
<!-- Node15&#45;&gt;Node18 -->
<g id="edge29" class="edge">
<title>Node15&#45;&gt;Node18</title>
<path fill="none" stroke="#63b8ff" d="M1009.15,-981.44C1022.87,-977.73 1037.24,-973.85 1050.96,-970.14"/>
<polygon fill="#63b8ff" stroke="#63b8ff" points="1051.6,-973.59 1060.34,-967.6 1049.78,-966.83 1051.6,-973.59"/>
</g>
<!-- Node20 -->
<g id="node20" class="node">
<title>Node20</title>
<g id="a_node20"><a xlink:href="a01995.html#a23eb89a222e22533e9fd43e76722f44f" target="_top" xlink:title="Reads an array from the BSON input and passes it to the SAX&#45;parser.">
<polygon fill="white" stroke="#666666" points="1189.38,-1104.77 1057.88,-1104.77 1057.88,-1072.77 1189.38,-1072.77 1189.38,-1104.77"/>
<text xml:space="preserve" text-anchor="start" x="1065.88" y="-1091.27" font-family="Helvetica,sans-Serif" font-size="10.00">nlohmann::detail::binary</text>
<text xml:space="preserve" text-anchor="middle" x="1123.62" y="-1079.27" font-family="Helvetica,sans-Serif" font-size="10.00">_reader::parse_bson_array</text>
</a>
</g>
</g>
<!-- Node15&#45;&gt;Node20 -->
<g id="edge37" class="edge">
<title>Node15&#45;&gt;Node20</title>
<path fill="none" stroke="#63b8ff" d="M977.35,-1023.19C997.88,-1034.42 1023.49,-1047.91 1047,-1058.77 1053.81,-1061.91 1061.04,-1065.04 1068.23,-1068.03"/>
<polygon fill="#63b8ff" stroke="#63b8ff" points="1066.71,-1071.18 1077.29,-1071.72 1069.35,-1064.7 1066.71,-1071.18"/>
</g>
<!-- Node16&#45;&gt;Node4 -->
<g id="edge23" class="edge">
<title>Node16&#45;&gt;Node4</title>
<path fill="none" stroke="#63b8ff" d="M1186.81,-1012.73C1280.43,-1030.74 1456.95,-1064.7 1554.48,-1083.47"/>
<polygon fill="#63b8ff" stroke="#63b8ff" points="1553.72,-1086.89 1564.2,-1085.34 1555.04,-1080.01 1553.72,-1086.89"/>
</g>
<!-- Node16&#45;&gt;Node7 -->
<g id="edge24" class="edge">
<title>Node16&#45;&gt;Node7</title>
<path fill="none" stroke="#63b8ff" d="M1176.5,-984.3C1184.5,-981.56 1192.62,-978.67 1200.25,-975.77 1340.17,-922.52 1501.52,-849.45 1578.38,-813.9"/>
<polygon fill="#63b8ff" stroke="#63b8ff" points="1579.68,-817.16 1587.28,-809.78 1576.74,-810.81 1579.68,-817.16"/>
</g>
<!-- Node16&#45;&gt;Node10 -->
<g id="edge28" class="edge">
<title>Node16&#45;&gt;Node10</title>
<path fill="none" stroke="#63b8ff" d="M1182.3,-1017.06C1188.96,-1020.75 1195.18,-1025.26 1200.25,-1030.77 1237.41,-1071.09 1200.57,-1107.14 1236.25,-1148.77 1238.41,-1151.28 1240.82,-1153.61 1243.41,-1155.75"/>
<polygon fill="#63b8ff" stroke="#63b8ff" points="1241.37,-1158.59 1251.56,-1161.48 1245.39,-1152.86 1241.37,-1158.59"/>
</g>
<!-- Node17 -->
<g id="node17" class="node">
<title>Node17</title>
<g id="a_node17"><a xlink:href="a01995.html#a55e13d567a53234573ab3833c0ca32e9" target="_top" xlink:title="create a byte array by reading bytes from the input">
<polygon fill="white" stroke="#666666" points="1359.12,-1496.77 1239.62,-1496.77 1239.62,-1464.77 1359.12,-1464.77 1359.12,-1496.77"/>
<text xml:space="preserve" text-anchor="start" x="1247.62" y="-1483.27" font-family="Helvetica,sans-Serif" font-size="10.00">nlohmann::detail::binary</text>
<text xml:space="preserve" text-anchor="middle" x="1299.38" y="-1471.27" font-family="Helvetica,sans-Serif" font-size="10.00">_reader::get_binary</text>
</a>
</g>
</g>
<!-- Node16&#45;&gt;Node17 -->
<g id="edge25" class="edge">
<title>Node16&#45;&gt;Node17</title>
<path fill="none" stroke="#63b8ff" d="M1154.04,-1017.24C1170.57,-1028.17 1189.91,-1044.11 1200.25,-1063.77 1240.95,-1141.2 1184.02,-1385.6 1236.25,-1455.77 1236.4,-1455.97 1236.56,-1456.18 1236.71,-1456.38"/>
<polygon fill="#63b8ff" stroke="#63b8ff" points="1234.17,-1458.79 1243.77,-1463.28 1239.07,-1453.79 1234.17,-1458.79"/>
</g>
<!-- Node17&#45;&gt;Node8 -->
<g id="edge26" class="edge">
<title>Node17&#45;&gt;Node8</title>
<path fill="none" stroke="#63b8ff" d="M1349.38,-1464.27C1354.03,-1461.77 1358.49,-1458.95 1362.5,-1455.77 1400.06,-1425.97 1429.02,-1377.4 1444.56,-1347.36"/>
<polygon fill="#63b8ff" stroke="#63b8ff" points="1447.63,-1349.06 1448.99,-1338.55 1441.37,-1345.92 1447.63,-1349.06"/>
</g>
<!-- Node17&#45;&gt;Node14 -->
<g id="edge27" class="edge">
<title>Node17&#45;&gt;Node14</title>
<path fill="none" stroke="#63b8ff" d="M1359.24,-1471.39C1368.26,-1469.95 1377.65,-1468.45 1386.9,-1466.98"/>
<polygon fill="#63b8ff" stroke="#63b8ff" points="1387.24,-1470.47 1396.56,-1465.44 1386.14,-1463.56 1387.24,-1470.47"/>
</g>
<!-- Node18&#45;&gt;Node4 -->
<g id="edge30" class="edge">
<title>Node18&#45;&gt;Node4</title>
<path fill="none" stroke="#63b8ff" d="M1185.49,-963.04C1263.57,-979.5 1402.66,-1011.29 1518,-1050.77 1538.66,-1057.84 1560.91,-1067.25 1579.64,-1075.71"/>
<polygon fill="#63b8ff" stroke="#63b8ff" points="1578,-1078.81 1588.55,-1079.8 1580.92,-1072.45 1578,-1078.81"/>
</g>
<!-- Node18&#45;&gt;Node7 -->
<g id="edge31" class="edge">
<title>Node18&#45;&gt;Node7</title>
<path fill="none" stroke="#63b8ff" d="M1132.58,-934.3C1147.92,-904.64 1184.66,-842.91 1236.25,-816.77 1332.69,-767.9 1460.41,-770.86 1542.32,-779.88"/>
<polygon fill="#63b8ff" stroke="#63b8ff" points="1541.73,-783.33 1552.06,-781.01 1542.54,-776.38 1541.73,-783.33"/>
</g>
<!-- Node18&#45;&gt;Node8 -->
<g id="edge32" class="edge">
<title>Node18&#45;&gt;Node8</title>
<path fill="none" stroke="#63b8ff" d="M1184.21,-967.17C1189.82,-969.68 1195.26,-972.53 1200.25,-975.77 1328.19,-1058.77 1415.54,-1228.85 1445.65,-1294.29"/>
<polygon fill="#63b8ff" stroke="#63b8ff" points="1442.36,-1295.52 1449.68,-1303.18 1448.74,-1292.63 1442.36,-1295.52"/>
</g>
<!-- Node18&#45;&gt;Node10 -->
<g id="edge36" class="edge">
<title>Node18&#45;&gt;Node10</title>
<path fill="none" stroke="#63b8ff" d="M1185.62,-964.26C1191.09,-967.34 1196.11,-971.13 1200.25,-975.77 1252.53,-1034.38 1187.91,-1086.87 1236.25,-1148.77 1238.22,-1151.29 1240.46,-1153.61 1242.88,-1155.75"/>
<polygon fill="#63b8ff" stroke="#63b8ff" points="1240.4,-1158.27 1250.52,-1161.42 1244.58,-1152.65 1240.4,-1158.27"/>
</g>
<!-- Node19 -->
<g id="node19" class="node">
<title>Node19</title>
<g id="a_node19"><a xlink:href="a01995.html#a540919db22df36512f05a88945c13263" target="_top" xlink:title="create a string by reading characters from the input">
<polygon fill="white" stroke="#666666" points="1359.12,-1446.77 1239.62,-1446.77 1239.62,-1414.77 1359.12,-1414.77 1359.12,-1446.77"/>
<text xml:space="preserve" text-anchor="start" x="1247.62" y="-1433.27" font-family="Helvetica,sans-Serif" font-size="10.00">nlohmann::detail::binary</text>
<text xml:space="preserve" text-anchor="middle" x="1299.38" y="-1421.27" font-family="Helvetica,sans-Serif" font-size="10.00">_reader::get_string</text>
</a>
</g>
</g>
<!-- Node18&#45;&gt;Node19 -->
<g id="edge33" class="edge">
<title>Node18&#45;&gt;Node19</title>
<path fill="none" stroke="#63b8ff" d="M1185.49,-963.34C1191.13,-966.59 1196.23,-970.67 1200.25,-975.77 1259.61,-1051.08 1179.3,-1328.62 1236.25,-1405.77 1236.4,-1405.97 1236.55,-1406.18 1236.71,-1406.38"/>
<polygon fill="#63b8ff" stroke="#63b8ff" points="1234.16,-1408.78 1243.74,-1413.3 1239.07,-1403.79 1234.16,-1408.78"/>
</g>
<!-- Node19&#45;&gt;Node8 -->
<g id="edge34" class="edge">
<title>Node19&#45;&gt;Node8</title>
<path fill="none" stroke="#63b8ff" d="M1346.4,-1414.38C1351.97,-1411.78 1357.47,-1408.9 1362.5,-1405.77 1389.71,-1388.83 1416.5,-1363.8 1434.61,-1345.29"/>
<polygon fill="#63b8ff" stroke="#63b8ff" points="1437.08,-1347.77 1441.48,-1338.13 1432.03,-1342.92 1437.08,-1347.77"/>
</g>
<!-- Node19&#45;&gt;Node14 -->
<g id="edge35" class="edge">
<title>Node19&#45;&gt;Node14</title>
<path fill="none" stroke="#63b8ff" d="M1359.24,-1440.15C1368.26,-1441.59 1377.65,-1443.08 1386.9,-1444.56"/>
<polygon fill="#63b8ff" stroke="#63b8ff" points="1386.14,-1447.98 1396.56,-1446.1 1387.24,-1441.07 1386.14,-1447.98"/>
</g>
<!-- Node20&#45;&gt;Node12 -->
<g id="edge38" class="edge">
<title>Node20&#45;&gt;Node12</title>
<path fill="none" stroke="#63b8ff" d="M1057.59,-1099.06C1004.9,-1107.45 928.75,-1119.68 862.25,-1130.77 854.34,-1132.09 846.13,-1133.47 837.9,-1134.87"/>
<polygon fill="#63b8ff" stroke="#63b8ff" points="837.45,-1131.4 828.18,-1136.53 838.63,-1138.3 837.45,-1131.4"/>
</g>
<!-- Node21&#45;&gt;Node4 -->
<g id="edge42" class="edge">
<title>Node21&#45;&gt;Node4</title>
<path fill="none" stroke="#63b8ff" d="M747.6,-1963.11C752.94,-2012.33 775.83,-2160.39 862.25,-2234.77 952.41,-2312.37 1003.67,-2296.77 1122.62,-2296.77 1122.62,-2296.77 1122.62,-2296.77 1300.38,-2296.77 1448.7,-2296.77 1458.78,-2179.75 1518,-2043.77 1592.86,-1871.87 1617.96,-1261.93 1622.73,-1124.44"/>
<polygon fill="#63b8ff" stroke="#63b8ff" points="1626.23,-1124.6 1623.07,-1114.48 1619.23,-1124.36 1626.23,-1124.6"/>
</g>
<!-- Node21&#45;&gt;Node7 -->
<g id="edge43" class="edge">
<title>Node21&#45;&gt;Node7</title>
<path fill="none" stroke="#63b8ff" d="M759.73,-1963.23C779.79,-1986.41 819.55,-2028.46 862.25,-2051.77 936.91,-2092.53 962.68,-2090.56 1047,-2101.77 1278.71,-2132.57 1433.88,-2085.85 1518,-1867.77 1581.72,-1702.56 1528.44,-1246.98 1554,-1071.77 1567.71,-977.79 1599.5,-869.41 1614.92,-819.93"/>
<polygon fill="#63b8ff" stroke="#63b8ff" points="1618.18,-821.24 1617.84,-810.65 1611.5,-819.14 1618.18,-821.24"/>
</g>
<!-- Node21&#45;&gt;Node8 -->
<g id="edge44" class="edge">
<title>Node21&#45;&gt;Node8</title>
<path fill="none" stroke="#63b8ff" d="M768.44,-1930.41C791.24,-1914.17 828.06,-1889.25 862.25,-1871.77 1019.07,-1791.61 1066.93,-1789.26 1236.25,-1740.77 1292,-1724.8 1324.16,-1751.29 1362.5,-1707.77 1403.53,-1661.19 1379.57,-1489.89 1398.5,-1430.77 1408.3,-1400.15 1426.5,-1368.05 1440.05,-1346.48"/>
<polygon fill="#63b8ff" stroke="#63b8ff" points="1442.82,-1348.65 1445.28,-1338.35 1436.93,-1344.87 1442.82,-1348.65"/>
</g>
<!-- Node21&#45;&gt;Node10 -->
<g id="edge73" class="edge">
<title>Node21&#45;&gt;Node10</title>
<path fill="none" stroke="#63b8ff" d="M753.83,-1930.39C770.94,-1894.72 814.4,-1808 862.25,-1742.77 933.63,-1645.46 963.08,-1630.5 1047,-1543.77 1113.7,-1474.82 1145.25,-1470.37 1200.25,-1391.77 1243.03,-1330.64 1274.85,-1247.87 1289.47,-1205.77"/>
<polygon fill="#63b8ff" stroke="#63b8ff" points="1292.73,-1207.06 1292.65,-1196.46 1286.11,-1204.8 1292.73,-1207.06"/>
</g>
<!-- Node21&#45;&gt;Node14 -->
<g id="edge75" class="edge">
<title>Node21&#45;&gt;Node14</title>
<path fill="none" stroke="#63b8ff" d="M770.41,-1963.15C793.19,-1977.77 828.68,-1998.69 862.25,-2010.77 1071.51,-2086.08 1214.06,-2164.38 1362.5,-1998.77 1431.95,-1921.29 1451.78,-1583.66 1456.18,-1483.73"/>
<polygon fill="#63b8ff" stroke="#63b8ff" points="1459.67,-1483.9 1456.59,-1473.76 1452.68,-1483.61 1459.67,-1483.9"/>
</g>
<!-- Node21&#45;&gt;Node21 -->
<g id="edge74" class="edge">
<title>Node21&#45;&gt;Node21</title>
<path fill="none" stroke="#63b8ff" d="M711.61,-1963.21C705.35,-1972.35 716.52,-1980.77 745.12,-1980.77 760.77,-1980.77 771.2,-1978.25 776.41,-1974.48"/>
<polygon fill="#63b8ff" stroke="#63b8ff" points="779.84,-1975.19 778.35,-1964.7 772.97,-1973.83 779.84,-1975.19"/>
</g>
<!-- Node22 -->
<g id="node22" class="node">
<title>Node22</title>
<g id="a_node22"><a xlink:href="a01995.html#a3750658328bf3ec3cf23f1626f9ec3af" target="_top" xlink:title=" ">
<polygon fill="white" stroke="#666666" points="996.38,-1912.77 876.88,-1912.77 876.88,-1880.77 996.38,-1880.77 996.38,-1912.77"/>
<text xml:space="preserve" text-anchor="start" x="884.88" y="-1899.27" font-family="Helvetica,sans-Serif" font-size="10.00">nlohmann::detail::binary</text>
<text xml:space="preserve" text-anchor="middle" x="936.62" y="-1887.27" font-family="Helvetica,sans-Serif" font-size="10.00">_reader::get_cbor_array</text>
</a>
</g>
</g>
<!-- Node21&#45;&gt;Node22 -->
<g id="edge45" class="edge">
<title>Node21&#45;&gt;Node22</title>
<path fill="none" stroke="#63b8ff" d="M786.78,-1930.39C809.71,-1923.29 839,-1915.27 865.53,-1908.72"/>
<polygon fill="#63b8ff" stroke="#63b8ff" points="866.33,-1912.13 875.22,-1906.37 864.68,-1905.33 866.33,-1912.13"/>
</g>
<!-- Node23 -->
<g id="node23" class="node">
<title>Node23</title>
<g id="a_node23"><a xlink:href="a01995.html#acb001d18095dc5bcf7336ae5122b8340" target="_top" xlink:title="reads a CBOR byte array">
<polygon fill="white" stroke="#666666" points="1185.25,-2018.77 1062,-2018.77 1062,-1986.77 1185.25,-1986.77 1185.25,-2018.77"/>
<text xml:space="preserve" text-anchor="start" x="1070" y="-2005.27" font-family="Helvetica,sans-Serif" font-size="10.00">nlohmann::detail::binary</text>
<text xml:space="preserve" text-anchor="middle" x="1123.62" y="-1993.27" font-family="Helvetica,sans-Serif" font-size="10.00">_reader::get_cbor_binary</text>
</a>
</g>
</g>
<!-- Node21&#45;&gt;Node23 -->
<g id="edge48" class="edge">
<title>Node21&#45;&gt;Node23</title>
<path fill="none" stroke="#63b8ff" d="M782.98,-1963.25C805.42,-1972.48 834.94,-1983.22 862.25,-1988.77 924.97,-2001.51 997.82,-2004.45 1050.49,-2004.52"/>
<polygon fill="#63b8ff" stroke="#63b8ff" points="1050.24,-2008.02 1060.23,-2004.5 1050.23,-2001.02 1050.24,-2008.02"/>
</g>
<!-- Node24 -->
<g id="node24" class="node">
<title>Node24</title>
<g id="a_node24"><a xlink:href="a01995.html#ac356c6364fe0273d3303fb7a447f4ef6" target="_top" xlink:title=" ">
<polygon fill="white" stroke="#666666" points="1359.12,-1698.77 1239.62,-1698.77 1239.62,-1666.77 1359.12,-1666.77 1359.12,-1698.77"/>
<text xml:space="preserve" text-anchor="start" x="1247.62" y="-1685.27" font-family="Helvetica,sans-Serif" font-size="10.00">nlohmann::detail::binary</text>
<text xml:space="preserve" text-anchor="middle" x="1299.38" y="-1673.27" font-family="Helvetica,sans-Serif" font-size="10.00">_reader::get_number</text>
</a>
</g>
</g>
<!-- Node21&#45;&gt;Node24 -->
<g id="edge72" class="edge">
<title>Node21&#45;&gt;Node24</title>
<path fill="none" stroke="#63b8ff" d="M754.53,-1930.36C770.95,-1899.97 810.29,-1834.93 862.25,-1800.77 922.47,-1761.18 1120.93,-1717.63 1228.15,-1696.2"/>
<polygon fill="#63b8ff" stroke="#63b8ff" points="1228.57,-1699.69 1237.7,-1694.31 1227.21,-1692.82 1228.57,-1699.69"/>
</g>
<!-- Node25 -->
<g id="node25" class="node">
<title>Node25</title>
<g id="a_node25"><a xlink:href="a01995.html#a47092a2195bf9cd3cdb4dda67cc404ed" target="_top" xlink:title=" ">
<polygon fill="white" stroke="#666666" points="998.25,-1962.77 875,-1962.77 875,-1930.77 998.25,-1930.77 998.25,-1962.77"/>
<text xml:space="preserve" text-anchor="start" x="883" y="-1949.27" font-family="Helvetica,sans-Serif" font-size="10.00">nlohmann::detail::binary</text>
<text xml:space="preserve" text-anchor="middle" x="936.62" y="-1937.27" font-family="Helvetica,sans-Serif" font-size="10.00">_reader::get_cbor_object</text>
</a>
</g>
</g>
<!-- Node21&#45;&gt;Node25 -->
<g id="edge59" class="edge">
<title>Node21&#45;&gt;Node25</title>
<path fill="none" stroke="#63b8ff" d="M815.07,-1940.25C830.74,-1939.96 847.43,-1939.95 863.24,-1940.19"/>
<polygon fill="#63b8ff" stroke="#63b8ff" points="862.99,-1943.69 873.05,-1940.38 863.12,-1936.69 862.99,-1943.69"/>
</g>
<!-- Node26 -->
<g id="node26" class="node">
<title>Node26</title>
<g id="a_node26"><a xlink:href="a01995.html#a545a44ae4b3fa2b7a61d9e8517fb7154" target="_top" xlink:title="reads a CBOR string">
<polygon fill="white" stroke="#666666" points="1184.12,-1950.77 1063.12,-1950.77 1063.12,-1918.77 1184.12,-1918.77 1184.12,-1950.77"/>
<text xml:space="preserve" text-anchor="start" x="1071.12" y="-1937.27" font-family="Helvetica,sans-Serif" font-size="10.00">nlohmann::detail::binary</text>
<text xml:space="preserve" text-anchor="middle" x="1123.62" y="-1925.27" font-family="Helvetica,sans-Serif" font-size="10.00">_reader::get_cbor_string</text>
</a>
</g>
</g>
<!-- Node21&#45;&gt;Node26 -->
<g id="edge71" class="edge">
<title>Node21&#45;&gt;Node26</title>
<path fill="none" stroke="#63b8ff" d="M810.83,-1963.24C827.48,-1966.77 845.43,-1969.98 862.25,-1971.77 927.99,-1978.77 945.73,-1982.3 1011,-1971.77 1031.64,-1968.44 1053.63,-1961.85 1072.58,-1955.15"/>
<polygon fill="#63b8ff" stroke="#63b8ff" points="1073.75,-1958.45 1081.94,-1951.73 1071.35,-1951.87 1073.75,-1958.45"/>
</g>
<!-- Node22&#45;&gt;Node8 -->
<g id="edge46" class="edge">
<title>Node22&#45;&gt;Node8</title>
<path fill="none" stroke="#63b8ff" d="M983.51,-1880.27C1092.75,-1840.96 1359.41,-1744.69 1362.5,-1740.77 1405.42,-1686.29 1377.8,-1496.96 1398.5,-1430.77 1408.09,-1400.09 1426.32,-1367.99 1439.94,-1346.44"/>
<polygon fill="#63b8ff" stroke="#63b8ff" points="1442.71,-1348.62 1445.19,-1338.32 1436.83,-1344.82 1442.71,-1348.62"/>
</g>
<!-- Node22&#45;&gt;Node21 -->
<g id="edge47" class="edge">
<title>Node22&#45;&gt;Node21</title>
<path fill="none" stroke="#63b8ff" d="M894.84,-1913.19C874.78,-1919.4 849.86,-1926.31 826.2,-1932.32"/>
<polygon fill="#63b8ff" stroke="#63b8ff" points="825.4,-1928.91 816.54,-1934.73 827.09,-1935.7 825.4,-1928.91"/>
</g>
<!-- Node23&#45;&gt;Node4 -->
<g id="edge49" class="edge">
<title>Node23&#45;&gt;Node4</title>
<path fill="none" stroke="#63b8ff" d="M1144.06,-2018.98C1165.2,-2035.46 1200.75,-2059.93 1236.25,-2069.77 1290.32,-2084.75 1311.67,-2093.53 1362.5,-2069.77 1460.11,-2024.14 1474.57,-1982.38 1518,-1883.77 1580.18,-1742.59 1614.37,-1246.72 1621.98,-1124.27"/>
<polygon fill="#63b8ff" stroke="#63b8ff" points="1625.46,-1124.71 1622.58,-1114.51 1618.48,-1124.28 1625.46,-1124.71"/>
</g>
<!-- Node23&#45;&gt;Node7 -->
<g id="edge50" class="edge">
<title>Node23&#45;&gt;Node7</title>
<path fill="none" stroke="#63b8ff" d="M1185.68,-2012.66C1236.53,-2017.72 1309,-2017.31 1362.5,-1985.77 1471.67,-1921.41 1478.73,-1867.26 1518,-1746.77 1564.55,-1603.95 1531.71,-1220.32 1554,-1071.77 1568.09,-977.84 1599.69,-869.43 1614.99,-819.94"/>
<polygon fill="#63b8ff" stroke="#63b8ff" points="1618.25,-821.25 1617.89,-810.66 1611.57,-819.16 1618.25,-821.25"/>
</g>
<!-- Node23&#45;&gt;Node8 -->
<g id="edge51" class="edge">
<title>Node23&#45;&gt;Node8</title>
<path fill="none" stroke="#63b8ff" d="M1181.23,-1986.35C1187.78,-1983.78 1194.25,-1980.92 1200.25,-1977.77 1220.27,-1967.24 1351.59,-1874.59 1362.5,-1854.77 1408.12,-1771.94 1371.68,-1521.45 1398.5,-1430.77 1407.62,-1399.94 1425.92,-1367.87 1439.69,-1346.37"/>
<polygon fill="#63b8ff" stroke="#63b8ff" points="1442.45,-1348.54 1445.01,-1338.26 1436.6,-1344.7 1442.45,-1348.54"/>
</g>
<!-- Node23&#45;&gt;Node10 -->
<g id="edge57" class="edge">
<title>Node23&#45;&gt;Node10</title>
<path fill="none" stroke="#63b8ff" d="M1185.63,-1990.3C1191.24,-1987.03 1196.29,-1982.92 1200.25,-1977.77 1242.4,-1922.86 1222.65,-1423.65 1236.25,-1355.77 1247.28,-1300.69 1271.66,-1239.47 1286.38,-1205.4"/>
<polygon fill="#63b8ff" stroke="#63b8ff" points="1289.55,-1206.88 1290.36,-1196.32 1283.14,-1204.07 1289.55,-1206.88"/>
</g>
<!-- Node23&#45;&gt;Node14 -->
<g id="edge58" class="edge">
<title>Node23&#45;&gt;Node14</title>
<path fill="none" stroke="#63b8ff" d="M1185.69,-2009.7C1239.58,-2012.18 1316.52,-2006.26 1362.5,-1960.77 1431.15,-1892.85 1451.45,-1578.6 1456.08,-1483.26"/>
<polygon fill="#63b8ff" stroke="#63b8ff" points="1459.57,-1483.69 1456.53,-1473.54 1452.57,-1483.37 1459.57,-1483.69"/>
</g>
<!-- Node23&#45;&gt;Node17 -->
<g id="edge52" class="edge">
<title>Node23&#45;&gt;Node17</title>
<path fill="none" stroke="#63b8ff" d="M1185.71,-1989.87C1191.23,-1986.68 1196.24,-1982.71 1200.25,-1977.77 1245.35,-1922.21 1220.3,-1727.53 1236.25,-1657.77 1248.77,-1603 1272.63,-1541.68 1286.86,-1507.5"/>
<polygon fill="#63b8ff" stroke="#63b8ff" points="1290.03,-1508.97 1290.69,-1498.39 1283.58,-1506.25 1290.03,-1508.97"/>
</g>
<!-- Node23&#45;&gt;Node23 -->
<g id="edge53" class="edge">
<title>Node23&#45;&gt;Node23</title>
<path fill="none" stroke="#63b8ff" d="M1092.25,-2019.21C1086.39,-2028.35 1096.85,-2036.77 1123.62,-2036.77 1138.27,-2036.77 1148.03,-2034.25 1152.91,-2030.48"/>
<polygon fill="#63b8ff" stroke="#63b8ff" points="1156.34,-2031.17 1154.73,-2020.7 1149.46,-2029.89 1156.34,-2031.17"/>
</g>
<!-- Node23&#45;&gt;Node24 -->
<g id="edge54" class="edge">
<title>Node23&#45;&gt;Node24</title>
<path fill="none" stroke="#63b8ff" d="M1185.51,-1988.63C1190.93,-1985.67 1195.97,-1982.1 1200.25,-1977.77 1237.32,-1940.3 1219.74,-1914.82 1236.25,-1864.77 1254.48,-1809.51 1276.69,-1745.13 1289,-1709.66"/>
<polygon fill="#63b8ff" stroke="#63b8ff" points="1292.3,-1710.83 1292.28,-1700.23 1285.69,-1708.53 1292.3,-1710.83"/>
</g>
<!-- Node24&#45;&gt;Node8 -->
<g id="edge55" class="edge">
<title>Node24&#45;&gt;Node8</title>
<path fill="none" stroke="#63b8ff" d="M1306.03,-1666.27C1320.13,-1625.61 1358.59,-1517.58 1398.5,-1430.77 1411.95,-1401.52 1429.59,-1369.15 1442.02,-1347.14"/>
<polygon fill="#63b8ff" stroke="#63b8ff" points="1445.01,-1348.97 1446.91,-1338.54 1438.92,-1345.5 1445.01,-1348.97"/>
</g>
<!-- Node24&#45;&gt;Node14 -->
<g id="edge56" class="edge">
<title>Node24&#45;&gt;Node14</title>
<path fill="none" stroke="#63b8ff" d="M1311.66,-1666.44C1338.61,-1627.44 1406.94,-1528.57 1439.48,-1481.48"/>
<polygon fill="#63b8ff" stroke="#63b8ff" points="1442.19,-1483.71 1445,-1473.5 1436.43,-1479.73 1442.19,-1483.71"/>
</g>
<!-- Node25&#45;&gt;Node8 -->
<g id="edge60" class="edge">
<title>Node25&#45;&gt;Node8</title>
<path fill="none" stroke="#63b8ff" d="M987.11,-1930.38C995.13,-1927.59 1003.32,-1924.66 1011,-1921.77 1096.15,-1889.75 1121.17,-1888.75 1200.25,-1843.77 1217.63,-1833.88 1218.4,-1825.79 1236.25,-1816.77 1288.55,-1790.34 1325.17,-1823.93 1362.5,-1778.77 1412.03,-1718.85 1375.76,-1505.12 1398.5,-1430.77 1407.9,-1400.03 1426.16,-1367.94 1439.84,-1346.41"/>
<polygon fill="#63b8ff" stroke="#63b8ff" points="1442.6,-1348.59 1445.12,-1338.29 1436.73,-1344.77 1442.6,-1348.59"/>
</g>
<!-- Node25&#45;&gt;Node21 -->
<g id="edge70" class="edge">
<title>Node25&#45;&gt;Node21</title>
<path fill="none" stroke="#63b8ff" d="M874.57,-1953.12C859.15,-1953.5 842.37,-1953.61 826.17,-1953.45"/>
<polygon fill="#63b8ff" stroke="#63b8ff" points="826.64,-1949.95 816.59,-1953.31 826.54,-1956.95 826.64,-1949.95"/>
</g>
<!-- Node25&#45;&gt;Node26 -->
<g id="edge61" class="edge">
<title>Node25&#45;&gt;Node26</title>
<path fill="none" stroke="#63b8ff" d="M998.71,-1942.81C1015.64,-1941.71 1034.15,-1940.51 1051.58,-1939.38"/>
<polygon fill="#63b8ff" stroke="#63b8ff" points="1051.6,-1942.88 1061.35,-1938.74 1051.14,-1935.9 1051.6,-1942.88"/>
</g>
<!-- Node26&#45;&gt;Node4 -->
<g id="edge62" class="edge">
<title>Node26&#45;&gt;Node4</title>
<path fill="none" stroke="#63b8ff" d="M1162.89,-1951.17C1175.85,-1958.04 1189.7,-1966.96 1200.25,-1977.77 1223.87,-2001.96 1207.24,-2027.42 1236.25,-2044.77 1284.41,-2073.56 1316.11,-2076.33 1362.5,-2044.77 1523.47,-1935.24 1604.9,-1268.26 1620.73,-1124.19"/>
<polygon fill="#63b8ff" stroke="#63b8ff" points="1624.19,-1124.77 1621.79,-1114.46 1617.23,-1124.02 1624.19,-1124.77"/>
</g>
<!-- Node26&#45;&gt;Node7 -->
<g id="edge63" class="edge">
<title>Node26&#45;&gt;Node7</title>
<path fill="none" stroke="#63b8ff" d="M1158.05,-1951.25C1207.49,-1973.03 1300.88,-2003.87 1362.5,-1960.77 1527.66,-1845.24 1475.24,-1731.73 1518,-1534.77 1561.79,-1333.07 1520.9,-1275.5 1554,-1071.77 1569.23,-978.02 1600.28,-869.53 1615.22,-819.98"/>
<polygon fill="#63b8ff" stroke="#63b8ff" points="1618.49,-821.27 1618.05,-810.68 1611.79,-819.23 1618.49,-821.27"/>
</g>
<!-- Node26&#45;&gt;Node8 -->
<g id="edge64" class="edge">
<title>Node26&#45;&gt;Node8</title>
<path fill="none" stroke="#63b8ff" d="M1175.51,-1918.35C1184.13,-1914.53 1192.71,-1910.01 1200.25,-1904.77 1219.88,-1891.11 1216.52,-1878.29 1236.25,-1864.77 1285.77,-1830.84 1326.16,-1864.55 1362.5,-1816.77 1414.65,-1748.2 1373.72,-1513.28 1398.5,-1430.77 1407.75,-1399.98 1426.03,-1367.9 1439.76,-1346.39"/>
<polygon fill="#63b8ff" stroke="#63b8ff" points="1442.52,-1348.56 1445.06,-1338.27 1436.66,-1344.73 1442.52,-1348.56"/>
</g>
<!-- Node26&#45;&gt;Node10 -->
<g id="edge68" class="edge">
<title>Node26&#45;&gt;Node10</title>
<path fill="none" stroke="#63b8ff" d="M1129.64,-1918.53C1143.02,-1874.66 1179.92,-1749.89 1200.25,-1643.77 1224.52,-1517.08 1206.72,-1481.34 1236.25,-1355.77 1249.11,-1301.08 1272.85,-1239.73 1286.96,-1205.52"/>
<polygon fill="#63b8ff" stroke="#63b8ff" points="1290.14,-1206.99 1290.77,-1196.41 1283.69,-1204.29 1290.14,-1206.99"/>
</g>
<!-- Node26&#45;&gt;Node14 -->
<g id="edge69" class="edge">
<title>Node26&#45;&gt;Node14</title>
<path fill="none" stroke="#63b8ff" d="M1175.24,-1951.2C1228.77,-1965.07 1312.26,-1976.21 1362.5,-1930.77 1413.28,-1884.84 1383.17,-1691.5 1398.5,-1624.77 1410.32,-1573.32 1432.34,-1515.69 1445.81,-1482.77"/>
<polygon fill="#63b8ff" stroke="#63b8ff" points="1449.01,-1484.18 1449.6,-1473.61 1442.54,-1481.5 1449.01,-1484.18"/>
</g>
<!-- Node26&#45;&gt;Node19 -->
<g id="edge67" class="edge">
<title>Node26&#45;&gt;Node19</title>
<path fill="none" stroke="#63b8ff" d="M1129.26,-1918.45C1141.71,-1874.38 1176.49,-1749.18 1200.25,-1643.77 1218.96,-1560.78 1182.18,-1521.45 1236.25,-1455.77 1236.5,-1455.47 1236.75,-1455.17 1237.01,-1454.87"/>
<polygon fill="#63b8ff" stroke="#63b8ff" points="1239.25,-1457.56 1244.36,-1448.28 1234.58,-1452.35 1239.25,-1457.56"/>
</g>
<!-- Node26&#45;&gt;Node24 -->
<g id="edge66" class="edge">
<title>Node26&#45;&gt;Node24</title>
<path fill="none" stroke="#63b8ff" d="M1135.76,-1918.62C1165.17,-1875.96 1245.13,-1760 1280.79,-1708.27"/>
<polygon fill="#63b8ff" stroke="#63b8ff" points="1283.46,-1710.57 1286.25,-1700.35 1277.69,-1706.6 1283.46,-1710.57"/>
</g>
<!-- Node26&#45;&gt;Node26 -->
<g id="edge65" class="edge">
<title>Node26&#45;&gt;Node26</title>
<path fill="none" stroke="#63b8ff" d="M1092.25,-1951.21C1086.39,-1960.35 1096.85,-1968.77 1123.62,-1968.77 1138.27,-1968.77 1148.03,-1966.25 1152.91,-1962.48"/>
<polygon fill="#63b8ff" stroke="#63b8ff" points="1156.34,-1963.17 1154.73,-1952.7 1149.46,-1961.89 1156.34,-1963.17"/>
</g>
<!-- Node27&#45;&gt;Node4 -->
<g id="edge77" class="edge">
<title>Node27&#45;&gt;Node4</title>
<path fill="none" stroke="#63b8ff" d="M756.97,-1520.97C776.09,-1559.27 817.95,-1639.61 862.25,-1701.77 920.52,-1783.52 966.3,-1781.87 1011,-1871.77 1046.16,-1942.48 991.99,-1989.11 1047,-2045.77 1145.67,-2147.39 1227.52,-2133.69 1362.5,-2090.77 1443.18,-2065.12 1474.69,-2053.51 1518,-1980.77 1607.24,-1830.88 1621.23,-1258.07 1623.29,-1124.66"/>
<polygon fill="#63b8ff" stroke="#63b8ff" points="1626.79,-1124.71 1623.43,-1114.66 1619.79,-1124.61 1626.79,-1124.71"/>
</g>
<!-- Node27&#45;&gt;Node7 -->
<g id="edge78" class="edge">
<title>Node27&#45;&gt;Node7</title>
<path fill="none" stroke="#63b8ff" d="M782.11,-1476.42C804.49,-1463.32 834.24,-1447.34 862.25,-1436.77 925.79,-1412.8 956.15,-1441.82 1011,-1401.77 1036.11,-1383.43 1023.59,-1362.24 1047,-1341.77 1102.83,-1292.95 1132.3,-1305.48 1200.25,-1275.77 1272.54,-1244.17 1302.73,-1255.27 1362.5,-1203.77 1495.33,-1089.32 1584.33,-890.55 1613.33,-819.2"/>
<polygon fill="#63b8ff" stroke="#63b8ff" points="1616.43,-820.87 1616.9,-810.29 1609.93,-818.27 1616.43,-820.87"/>
</g>
<!-- Node27&#45;&gt;Node8 -->
<g id="edge79" class="edge">
<title>Node27&#45;&gt;Node8</title>
<path fill="none" stroke="#63b8ff" d="M807.02,-1486.18C860.97,-1474.63 941.7,-1456.39 1011,-1436.77 1027.23,-1432.18 1030.73,-1429.22 1047,-1424.77 1114.21,-1406.39 1145.87,-1435.32 1200.25,-1391.77 1230.05,-1367.9 1204.09,-1334.35 1236.25,-1313.77 1283.85,-1283.32 1349.77,-1290.2 1397.22,-1301.55"/>
<polygon fill="#63b8ff" stroke="#63b8ff" points="1396.23,-1304.91 1406.78,-1303.98 1397.95,-1298.12 1396.23,-1304.91"/>
</g>
<!-- Node27&#45;&gt;Node10 -->
<g id="edge97" class="edge">
<title>Node27&#45;&gt;Node10</title>
<path fill="none" stroke="#63b8ff" d="M769.2,-1476.55C791.42,-1456.28 826.78,-1426.8 862.25,-1408.77 923.59,-1377.58 955.98,-1407.11 1011,-1365.77 1034.95,-1347.77 1024.92,-1329.03 1047,-1308.77 1103.34,-1257.08 1184.08,-1220.19 1238.73,-1199.21"/>
<polygon fill="#63b8ff" stroke="#63b8ff" points="1239.76,-1202.57 1247.88,-1195.76 1237.29,-1196.02 1239.76,-1202.57"/>
</g>
<!-- Node27&#45;&gt;Node14 -->
<g id="edge98" class="edge">
<title>Node27&#45;&gt;Node14</title>
<path fill="none" stroke="#63b8ff" d="M758.21,-1521.06C776.54,-1552.78 814.37,-1610.66 862.25,-1642.77 1048.46,-1767.65 1188.88,-1849.63 1362.5,-1707.77 1424.66,-1656.98 1364.85,-1603.65 1398.5,-1530.77 1407.03,-1512.29 1420.93,-1494.25 1433.07,-1480.49"/>
<polygon fill="#63b8ff" stroke="#63b8ff" points="1435.55,-1482.98 1439.7,-1473.23 1430.38,-1478.26 1435.55,-1482.98"/>
</g>
<!-- Node27&#45;&gt;Node24 -->
<g id="edge96" class="edge">
<title>Node27&#45;&gt;Node24</title>
<path fill="none" stroke="#63b8ff" d="M770.69,-1521.04C793.36,-1540.9 828.54,-1569.97 862.25,-1590.77 939.33,-1638.33 958.81,-1656.14 1047,-1676.77 1106.97,-1690.8 1177.18,-1691.18 1228.14,-1688.71"/>
<polygon fill="#63b8ff" stroke="#63b8ff" points="1228.05,-1692.22 1237.85,-1688.18 1227.67,-1685.23 1228.05,-1692.22"/>
</g>
<!-- Node28 -->
<g id="node28" class="node">
<title>Node28</title>
<g id="a_node28"><a xlink:href="a01995.html#a0ce1d7066597952efb008aaf578b2bd6" target="_top" xlink:title=" ">
<polygon fill="white" stroke="#666666" points="1006.5,-1356.77 866.75,-1356.77 866.75,-1324.77 1006.5,-1324.77 1006.5,-1356.77"/>
<text xml:space="preserve" text-anchor="start" x="874.75" y="-1343.27" font-family="Helvetica,sans-Serif" font-size="10.00">nlohmann::detail::binary</text>
<text xml:space="preserve" text-anchor="middle" x="936.62" y="-1331.27" font-family="Helvetica,sans-Serif" font-size="10.00">_reader::get_msgpack_array</text>
</a>
</g>
</g>
<!-- Node27&#45;&gt;Node28 -->
<g id="edge80" class="edge">
<title>Node27&#45;&gt;Node28</title>
<path fill="none" stroke="#63b8ff" d="M757.48,-1476.44C775.28,-1448.05 812.13,-1399.71 860.17,-1363.78"/>
<polygon fill="#63b8ff" stroke="#63b8ff" points="861.98,-1366.8 868.04,-1358.11 857.88,-1361.12 861.98,-1366.8"/>
</g>
<!-- Node29 -->
<g id="node29" class="node">
<title>Node29</title>
<g id="a_node29"><a xlink:href="a01995.html#a389e550fd397a48121cb82d92bb7475a" target="_top" xlink:title="reads a MessagePack byte array">
<polygon fill="white" stroke="#666666" points="1195.75,-1634.77 1051.5,-1634.77 1051.5,-1602.77 1195.75,-1602.77 1195.75,-1634.77"/>
<text xml:space="preserve" text-anchor="start" x="1059.5" y="-1621.27" font-family="Helvetica,sans-Serif" font-size="10.00">nlohmann::detail::binary</text>
<text xml:space="preserve" text-anchor="middle" x="1123.62" y="-1609.27" font-family="Helvetica,sans-Serif" font-size="10.00">_reader::get_msgpack_binary</text>
</a>
</g>
</g>
<!-- Node27&#45;&gt;Node29 -->
<g id="edge82" class="edge">
<title>Node27&#45;&gt;Node29</title>
<path fill="none" stroke="#63b8ff" d="M786.29,-1521.19C808.22,-1532.74 836.17,-1546.34 862.25,-1555.77 920.32,-1576.76 988.18,-1592.92 1040.07,-1603.62"/>
<polygon fill="#63b8ff" stroke="#63b8ff" points="1039.24,-1607.02 1049.74,-1605.58 1040.63,-1600.16 1039.24,-1607.02"/>
</g>
<!-- Node30 -->
<g id="node30" class="node">
<title>Node30</title>
<g id="a_node30"><a xlink:href="a01995.html#a8bebd21ceef09b6b2562e87861832700" target="_top" xlink:title=" ">
<polygon fill="white" stroke="#666666" points="1008.75,-1520.77 864.5,-1520.77 864.5,-1488.77 1008.75,-1488.77 1008.75,-1520.77"/>
<text xml:space="preserve" text-anchor="start" x="872.5" y="-1507.27" font-family="Helvetica,sans-Serif" font-size="10.00">nlohmann::detail::binary</text>
<text xml:space="preserve" text-anchor="middle" x="936.62" y="-1495.27" font-family="Helvetica,sans-Serif" font-size="10.00">_reader::get_msgpack_object</text>
</a>
</g>
</g>
<!-- Node27&#45;&gt;Node30 -->
<g id="edge85" class="edge">
<title>Node27&#45;&gt;Node30</title>
<path fill="none" stroke="#63b8ff" d="M807.13,-1494.35C821.75,-1494.45 837.62,-1494.84 853.04,-1495.45"/>
<polygon fill="#63b8ff" stroke="#63b8ff" points="852.51,-1498.93 862.66,-1495.88 852.82,-1491.94 852.51,-1498.93"/>
</g>
<!-- Node31 -->
<g id="node31" class="node">
<title>Node31</title>
<g id="a_node31"><a xlink:href="a01995.html#ad8cba5585327caa550dd5b6dd25a64f8" target="_top" xlink:title="reads a MessagePack string">
<polygon fill="white" stroke="#666666" points="1194.62,-1584.77 1052.62,-1584.77 1052.62,-1552.77 1194.62,-1552.77 1194.62,-1584.77"/>
<text xml:space="preserve" text-anchor="start" x="1060.62" y="-1571.27" font-family="Helvetica,sans-Serif" font-size="10.00">nlohmann::detail::binary</text>
<text xml:space="preserve" text-anchor="middle" x="1123.62" y="-1559.27" font-family="Helvetica,sans-Serif" font-size="10.00">_reader::get_msgpack_string</text>
</a>
</g>
</g>
<!-- Node27&#45;&gt;Node31 -->
<g id="edge95" class="edge">
<title>Node27&#45;&gt;Node31</title>
<path fill="none" stroke="#63b8ff" d="M806.99,-1516.39C824.71,-1521.15 844.17,-1526.01 862.25,-1529.77 921.64,-1542.1 989.43,-1552.13 1040.95,-1558.93"/>
<polygon fill="#63b8ff" stroke="#63b8ff" points="1040.48,-1562.4 1050.85,-1560.22 1041.38,-1555.46 1040.48,-1562.4"/>
</g>
<!-- Node28&#45;&gt;Node27 -->
<g id="edge81" class="edge">
<title>Node28&#45;&gt;Node27</title>
<path fill="none" stroke="#63b8ff" d="M906.95,-1357.22C892.74,-1363.11 875.78,-1370.29 862.25,-1379.77 827.08,-1404.41 794.94,-1441.51 773.43,-1467.86"/>
<polygon fill="#63b8ff" stroke="#63b8ff" points="770.8,-1465.54 767.23,-1475.52 776.24,-1469.94 770.8,-1465.54"/>
</g>
<!-- Node29&#45;&gt;Node17 -->
<g id="edge83" class="edge">
<title>Node29&#45;&gt;Node17</title>
<path fill="none" stroke="#63b8ff" d="M1184.68,-1602.32C1190.13,-1599.82 1195.42,-1596.99 1200.25,-1593.77 1235,-1570.63 1264.78,-1532.02 1282.14,-1506.48"/>
<polygon fill="#63b8ff" stroke="#63b8ff" points="1284.94,-1508.6 1287.55,-1498.33 1279.11,-1504.73 1284.94,-1508.6"/>
</g>
<!-- Node29&#45;&gt;Node24 -->
<g id="edge84" class="edge">
<title>Node29&#45;&gt;Node24</title>
<path fill="none" stroke="#63b8ff" d="M1169.37,-1635.25C1191.87,-1643.54 1219.34,-1653.66 1243.14,-1662.42"/>
<polygon fill="#63b8ff" stroke="#63b8ff" points="1241.77,-1665.65 1252.36,-1665.82 1244.19,-1659.08 1241.77,-1665.65"/>
</g>
<!-- Node30&#45;&gt;Node8 -->
<g id="edge86" class="edge">
<title>Node30&#45;&gt;Node8</title>
<path fill="none" stroke="#63b8ff" d="M1009.14,-1498.17C1066.41,-1489.59 1145.88,-1469.9 1200.25,-1424.77 1226.87,-1402.68 1208.17,-1375.97 1236.25,-1355.77 1279.66,-1324.55 1340.28,-1316.78 1387.06,-1316.28"/>
<polygon fill="#63b8ff" stroke="#63b8ff" points="1386.81,-1319.78 1396.81,-1316.29 1386.82,-1312.78 1386.81,-1319.78"/>
</g>
<!-- Node30&#45;&gt;Node27 -->
<g id="edge94" class="edge">
<title>Node30&#45;&gt;Node27</title>
<path fill="none" stroke="#63b8ff" d="M864.17,-1509.07C849.2,-1508.84 833.41,-1508.34 818.41,-1507.64"/>
<polygon fill="#63b8ff" stroke="#63b8ff" points="818.81,-1504.15 808.64,-1507.13 818.45,-1511.14 818.81,-1504.15"/>
</g>
<!-- Node30&#45;&gt;Node31 -->
<g id="edge87" class="edge">
<title>Node30&#45;&gt;Node31</title>
<path fill="none" stroke="#63b8ff" d="M985.27,-1521.25C1009.44,-1529.61 1039,-1539.84 1064.49,-1548.66"/>
<polygon fill="#63b8ff" stroke="#63b8ff" points="1063.12,-1551.89 1073.71,-1551.85 1065.41,-1545.27 1063.12,-1551.89"/>
</g>
<!-- Node31&#45;&gt;Node4 -->
<g id="edge88" class="edge">
<title>Node31&#45;&gt;Node4</title>
<path fill="none" stroke="#63b8ff" d="M1178.86,-1585.17C1186.14,-1587.81 1193.44,-1590.7 1200.25,-1593.77 1217.14,-1601.38 1218.37,-1609.94 1236.25,-1614.77 1357.13,-1647.45 1421.01,-1693.98 1518,-1614.77 1595.2,-1551.72 1617.44,-1222.75 1622.4,-1124.5"/>
<polygon fill="#63b8ff" stroke="#63b8ff" points="1625.89,-1124.87 1622.87,-1114.71 1618.9,-1124.53 1625.89,-1124.87"/>
</g>
<!-- Node31&#45;&gt;Node7 -->
<g id="edge89" class="edge">
<title>Node31&#45;&gt;Node7</title>
<path fill="none" stroke="#63b8ff" d="M1195.06,-1578.55C1288.88,-1587.02 1450.81,-1584.62 1518,-1480.77 1567.56,-1404.16 1538.91,-1161.75 1554,-1071.77 1569.71,-978.1 1600.52,-869.57 1615.31,-819.99"/>
<polygon fill="#63b8ff" stroke="#63b8ff" points="1618.58,-821.28 1618.11,-810.69 1611.88,-819.26 1618.58,-821.28"/>
</g>
<!-- Node31&#45;&gt;Node10 -->
<g id="edge92" class="edge">
<title>Node31&#45;&gt;Node10</title>
<path fill="none" stroke="#63b8ff" d="M1149.66,-1552.33C1166.4,-1540.05 1187.61,-1521.81 1200.25,-1500.77 1234.44,-1443.85 1217.23,-1419.39 1236.25,-1355.77 1252.34,-1301.94 1274.95,-1240.29 1287.99,-1205.8"/>
<polygon fill="#63b8ff" stroke="#63b8ff" points="1291.21,-1207.2 1291.49,-1196.61 1284.66,-1204.71 1291.21,-1207.2"/>
</g>
<!-- Node31&#45;&gt;Node14 -->
<g id="edge93" class="edge">
<title>Node31&#45;&gt;Node14</title>
<path fill="none" stroke="#63b8ff" d="M1194.94,-1570.57C1243.9,-1569.32 1309.63,-1562.53 1362.5,-1538.77 1391.94,-1525.53 1418.94,-1499.96 1436.51,-1480.69"/>
<polygon fill="#63b8ff" stroke="#63b8ff" points="1439.13,-1483.02 1443.13,-1473.21 1433.88,-1478.38 1439.13,-1483.02"/>
</g>
<!-- Node31&#45;&gt;Node19 -->
<g id="edge91" class="edge">
<title>Node31&#45;&gt;Node19</title>
<path fill="none" stroke="#63b8ff" d="M1144.71,-1552.28C1160.45,-1539 1182.55,-1519.52 1200.25,-1500.77 1217.83,-1482.14 1215.7,-1471.05 1236.25,-1455.77 1237.59,-1454.77 1238.98,-1453.81 1240.4,-1452.88"/>
<polygon fill="#63b8ff" stroke="#63b8ff" points="1242,-1455.99 1248.9,-1447.95 1238.49,-1449.94 1242,-1455.99"/>
</g>
<!-- Node31&#45;&gt;Node24 -->
<g id="edge90" class="edge">
<title>Node31&#45;&gt;Node24</title>
<path fill="none" stroke="#63b8ff" d="M1186.79,-1585.17C1191.58,-1587.65 1196.13,-1590.5 1200.25,-1593.77 1224.31,-1612.87 1213.49,-1632.14 1236.25,-1652.77 1239.31,-1655.55 1242.68,-1658.12 1246.22,-1660.5"/>
<polygon fill="#63b8ff" stroke="#63b8ff" points="1244.2,-1663.37 1254.57,-1665.54 1247.82,-1657.37 1244.2,-1663.37"/>
</g>
<!-- Node32&#45;&gt;Node9 -->
<g id="edge100" class="edge">
<title>Node32&#45;&gt;Node9</title>
<path fill="none" stroke="#63b8ff" d="M382.82,-548.39C409.13,-472.62 530.7,-159.77 744.12,-159.77 744.12,-159.77 744.12,-159.77 937.62,-159.77 1038.34,-159.77 1152.97,-181.72 1225.46,-198.37"/>
<polygon fill="#63b8ff" stroke="#63b8ff" points="1224.27,-201.69 1234.81,-200.55 1225.86,-194.87 1224.27,-201.69"/>
</g>
<!-- Node33 -->
<g id="node33" class="node">
<title>Node33</title>
<g id="a_node33"><a xlink:href="a01995.html#a7e5e0b71548d0649ce4f131280d06c33" target="_top" xlink:title=" ">
<polygon fill="white" stroke="#666666" points="622.38,-624.77 492.38,-624.77 492.38,-592.77 622.38,-592.77 622.38,-624.77"/>
<text xml:space="preserve" text-anchor="start" x="500.38" y="-611.27" font-family="Helvetica,sans-Serif" font-size="10.00">nlohmann::detail::binary</text>
<text xml:space="preserve" text-anchor="middle" x="557.38" y="-599.27" font-family="Helvetica,sans-Serif" font-size="10.00">_reader::get_ubjson_value</text>
</a>
</g>
</g>
<!-- Node32&#45;&gt;Node33 -->
<g id="edge101" class="edge">
<title>Node32&#45;&gt;Node33</title>
<path fill="none" stroke="#63b8ff" d="M444.28,-581.22C456.22,-584.15 468.73,-587.23 480.89,-590.21"/>
<polygon fill="#63b8ff" stroke="#63b8ff" points="479.91,-593.58 490.45,-592.57 481.58,-586.78 479.91,-593.58"/>
</g>
<!-- Node33&#45;&gt;Node4 -->
<g id="edge102" class="edge">
<title>Node33&#45;&gt;Node4</title>
<path fill="none" stroke="#63b8ff" d="M567.33,-624.95C583.08,-651.74 618.43,-704.92 664,-730.77 741.83,-774.91 773.12,-757.96 862.25,-765.77 928.11,-771.54 955.96,-802.4 1011,-765.77 1045.5,-742.81 1012.5,-702.73 1047,-679.77 1222.82,-562.76 1369.37,-592.73 1518,-742.77 1541.77,-766.77 1597.96,-991.03 1617.1,-1069.68"/>
<polygon fill="#63b8ff" stroke="#63b8ff" points="1613.63,-1070.22 1619.39,-1079.12 1620.44,-1068.58 1613.63,-1070.22"/>
</g>
<!-- Node33&#45;&gt;Node7 -->
<g id="edge103" class="edge">
<title>Node33&#45;&gt;Node7</title>
<path fill="none" stroke="#63b8ff" d="M564.74,-592.44C590.53,-528.63 694.07,-294.5 862.25,-191.77 990.92,-113.17 1050.07,-149.45 1200.25,-162.77 1273.22,-169.24 1300.25,-153.16 1362.5,-191.77 1461.19,-252.98 1467.42,-297.23 1518,-401.77 1579.98,-529.88 1609.98,-699.83 1619.82,-765.38"/>
<polygon fill="#63b8ff" stroke="#63b8ff" points="1616.3,-765.48 1621.21,-774.87 1623.23,-764.47 1616.3,-765.48"/>
</g>
<!-- Node33&#45;&gt;Node8 -->
<g id="edge104" class="edge">
<title>Node33&#45;&gt;Node8</title>
<path fill="none" stroke="#63b8ff" d="M622.78,-609.23C677.21,-610.32 757.13,-613.54 826.25,-622.77 1071.44,-655.5 1199.3,-585.88 1362.5,-771.77 1432.03,-850.96 1451.84,-1193.12 1456.2,-1293.19"/>
<polygon fill="#63b8ff" stroke="#63b8ff" points="1452.69,-1293.05 1456.6,-1302.89 1459.68,-1292.76 1452.69,-1293.05"/>
</g>
<!-- Node33&#45;&gt;Node10 -->
<g id="edge106" class="edge">
<title>Node33&#45;&gt;Node10</title>
<path fill="none" stroke="#63b8ff" d="M559.8,-624.99C564.93,-674.75 586.51,-827.53 664,-920.77 785.83,-1067.36 867.01,-1051.03 1047,-1113.77 1079.58,-1125.12 1163.06,-1146.14 1224.93,-1161.2"/>
<polygon fill="#63b8ff" stroke="#63b8ff" points="1223.81,-1164.53 1234.35,-1163.49 1225.46,-1157.73 1223.81,-1164.53"/>
</g>
<!-- Node33&#45;&gt;Node14 -->
<g id="edge145" class="edge">
<title>Node33&#45;&gt;Node14</title>
<path fill="none" stroke="#63b8ff" d="M562.61,-625.25C573.05,-662.42 603.67,-753.1 664,-798.77 761.64,-872.69 1103.6,-850.57 1200.25,-925.77 1227.55,-947.01 1217.41,-965.76 1236.25,-994.77 1285.4,-1070.44 1325.03,-1071.68 1362.5,-1153.77 1398.55,-1232.75 1369.71,-1263.86 1398.5,-1345.77 1409.11,-1375.96 1427.05,-1407.96 1440.33,-1429.61"/>
<polygon fill="#63b8ff" stroke="#63b8ff" points="1437.34,-1431.45 1445.61,-1438.08 1443.28,-1427.74 1437.34,-1431.45"/>
</g>
<!-- Node33&#45;&gt;Node24 -->
<g id="edge105" class="edge">
<title>Node33&#45;&gt;Node24</title>
<path fill="none" stroke="#63b8ff" d="M559.47,-625.19C565.3,-708.63 595.15,-1085.19 664,-1175.77 723.36,-1253.86 770.73,-1237.46 862.25,-1272.77 926.46,-1297.54 966.7,-1263.11 1011,-1315.77 1105.4,-1428 945.64,-1537.78 1047,-1643.77 1059.43,-1656.77 1157.86,-1669.02 1227.79,-1676.21"/>
<polygon fill="#63b8ff" stroke="#63b8ff" points="1227.37,-1679.68 1237.68,-1677.21 1228.08,-1672.72 1227.37,-1679.68"/>
</g>
<!-- Node34 -->
<g id="node34" class="node">
<title>Node34</title>
<g id="a_node34"><a xlink:href="a01995.html#afb36cb588b795efa513fc95e949493b7" target="_top" xlink:title=" ">
<polygon fill="white" stroke="#666666" points="809.38,-530.77 680.88,-530.77 680.88,-498.77 809.38,-498.77 809.38,-530.77"/>
<text xml:space="preserve" text-anchor="start" x="688.88" y="-517.27" font-family="Helvetica,sans-Serif" font-size="10.00">nlohmann::detail::binary</text>
<text xml:space="preserve" text-anchor="middle" x="745.12" y="-505.27" font-family="Helvetica,sans-Serif" font-size="10.00">_reader::get_ubjson_array</text>
</a>
</g>
</g>
<!-- Node33&#45;&gt;Node34 -->
<g id="edge107" class="edge">
<title>Node33&#45;&gt;Node34</title>
<path fill="none" stroke="#63b8ff" d="M571.67,-592.41C591.03,-574.56 628.54,-547.49 664,-530.77 665.98,-529.84 668,-528.93 670.05,-528.05"/>
<polygon fill="#63b8ff" stroke="#63b8ff" points="671.13,-531.38 679.11,-524.42 668.53,-524.88 671.13,-531.38"/>
</g>
<!-- Node37 -->
<g id="node37" class="node">
<title>Node37</title>
<g id="a_node37"><a xlink:href="a01995.html#a26c694413fb860057e1a839d5422b361" target="_top" xlink:title=" ">
<polygon fill="white" stroke="#666666" points="999,-756.77 874.25,-756.77 874.25,-712.77 999,-712.77 999,-756.77"/>
<text xml:space="preserve" text-anchor="start" x="882.25" y="-743.27" font-family="Helvetica,sans-Serif" font-size="10.00">nlohmann::detail::binary</text>
<text xml:space="preserve" text-anchor="start" x="882.25" y="-731.27" font-family="Helvetica,sans-Serif" font-size="10.00">_reader::get_ubjson_high</text>
<text xml:space="preserve" text-anchor="middle" x="936.62" y="-719.27" font-family="Helvetica,sans-Serif" font-size="10.00">_precision_number</text>
</a>
</g>
</g>
<!-- Node33&#45;&gt;Node37 -->
<g id="edge124" class="edge">
<title>Node33&#45;&gt;Node37</title>
<path fill="none" stroke="#63b8ff" d="M571.84,-624.95C590.27,-645.86 625.48,-681.63 664,-698.77 727.12,-726.86 806.05,-734.67 862.54,-736.16"/>
<polygon fill="#63b8ff" stroke="#63b8ff" points="862.3,-739.66 872.36,-736.35 862.44,-732.66 862.3,-739.66"/>
</g>
<!-- Node38 -->
<g id="node38" class="node">
<title>Node38</title>
<g id="a_node38"><a xlink:href="a01995.html#adcf64ad3207f4bf37a5a31c920a385c3" target="_top" xlink:title=" ">
<polygon fill="white" stroke="#666666" points="811.62,-580.77 678.62,-580.77 678.62,-548.77 811.62,-548.77 811.62,-580.77"/>
<text xml:space="preserve" text-anchor="start" x="686.62" y="-567.27" font-family="Helvetica,sans-Serif" font-size="10.00">nlohmann::detail::binary</text>
<text xml:space="preserve" text-anchor="middle" x="745.12" y="-555.27" font-family="Helvetica,sans-Serif" font-size="10.00">_reader::get_ubjson_object</text>
</a>
</g>
</g>
<!-- Node33&#45;&gt;Node38 -->
<g id="edge131" class="edge">
<title>Node33&#45;&gt;Node38</title>
<path fill="none" stroke="#63b8ff" d="M602.87,-592.37C622.15,-587.02 645.29,-581.27 667.21,-576.33"/>
<polygon fill="#63b8ff" stroke="#63b8ff" points="667.7,-579.8 676.71,-574.22 666.19,-572.97 667.7,-579.8"/>
</g>
<!-- Node39 -->
<g id="node39" class="node">
<title>Node39</title>
<g id="a_node39"><a xlink:href="a01995.html#a4ae90db51c102e912b7eac83c78733a6" target="_top" xlink:title="reads a UBJSON string">
<polygon fill="white" stroke="#666666" points="1189,-764.77 1058.25,-764.77 1058.25,-732.77 1189,-732.77 1189,-764.77"/>
<text xml:space="preserve" text-anchor="start" x="1066.25" y="-751.27" font-family="Helvetica,sans-Serif" font-size="10.00">nlohmann::detail::binary</text>
<text xml:space="preserve" text-anchor="middle" x="1123.62" y="-739.27" font-family="Helvetica,sans-Serif" font-size="10.00">_reader::get_ubjson_string</text>
</a>
</g>
</g>
<!-- Node33&#45;&gt;Node39 -->
<g id="edge144" class="edge">
<title>Node33&#45;&gt;Node39</title>
<path fill="none" stroke="#63b8ff" d="M622.61,-618.58C711.17,-632.93 875.21,-662.5 1011,-703.77 1032.76,-710.38 1056.2,-719.51 1075.95,-727.81"/>
<polygon fill="#63b8ff" stroke="#63b8ff" points="1074.54,-731.02 1085.12,-731.73 1077.29,-724.58 1074.54,-731.02"/>
</g>
<!-- Node34&#45;&gt;Node9 -->
<g id="edge108" class="edge">
<title>Node34&#45;&gt;Node9</title>
<path fill="none" stroke="#63b8ff" d="M746.73,-498.34C749.6,-446.79 766.22,-287.81 862.25,-221.77 919.19,-182.61 1116.67,-196.75 1225.32,-208.09"/>
<polygon fill="#63b8ff" stroke="#63b8ff" points="1224.69,-211.55 1235,-209.13 1225.43,-204.59 1224.69,-211.55"/>
</g>
<!-- Node34&#45;&gt;Node32 -->
<g id="edge123" class="edge">
<title>Node34&#45;&gt;Node32</title>
<path fill="none" stroke="#63b8ff" d="M680.56,-523.44C620.2,-531.66 529.05,-544.09 462.45,-553.17"/>
<polygon fill="#63b8ff" stroke="#63b8ff" points="462.09,-549.69 452.65,-554.51 463.03,-556.62 462.09,-549.69"/>
</g>
<!-- Node34&#45;&gt;Node33 -->
<g id="edge122" class="edge">
<title>Node34&#45;&gt;Node33</title>
<path fill="none" stroke="#63b8ff" d="M710.6,-531.24C695.94,-536.15 678.76,-541.81 664,-548.77 641.73,-559.27 618.65,-573.85 599.77,-586.14"/>
<polygon fill="#63b8ff" stroke="#63b8ff" points="598.03,-583.1 591.57,-591.5 601.86,-588.96 598.03,-583.1"/>
</g>
<!-- Node35 -->
<g id="node35" class="node">
<title>Node35</title>
<g id="a_node35"><a xlink:href="a01995.html#a7b6c2d4c95d56751e233e285a5f1fea7" target="_top" xlink:title="determine the type and size for a container">
<polygon fill="white" stroke="#666666" points="1011,-498.77 862.25,-498.77 862.25,-466.77 1011,-466.77 1011,-498.77"/>
<text xml:space="preserve" text-anchor="start" x="870.25" y="-485.27" font-family="Helvetica,sans-Serif" font-size="10.00">nlohmann::detail::binary</text>
<text xml:space="preserve" text-anchor="middle" x="936.62" y="-473.27" font-family="Helvetica,sans-Serif" font-size="10.00">_reader::get_ubjson_size_type</text>
</a>
</g>
</g>
<!-- Node34&#45;&gt;Node35 -->
<g id="edge109" class="edge">
<title>Node34&#45;&gt;Node35</title>
<path fill="none" stroke="#63b8ff" d="M809.75,-504.02C822.99,-501.79 837.14,-499.4 850.99,-497.06"/>
<polygon fill="#63b8ff" stroke="#63b8ff" points="851.25,-500.57 860.52,-495.45 850.08,-493.67 851.25,-500.57"/>
</g>
<!-- Node35&#45;&gt;Node4 -->
<g id="edge110" class="edge">
<title>Node35&#45;&gt;Node4</title>
<path fill="none" stroke="#63b8ff" d="M970.69,-466.41C991.92,-456.84 1020.4,-445.7 1047,-440.77 1098.6,-431.2 1480.98,-438.57 1518,-475.77 1571.91,-529.94 1540.72,-742.51 1554,-817.77 1570.51,-911.3 1600.93,-1019.9 1615.47,-1069.52"/>
<polygon fill="#63b8ff" stroke="#63b8ff" points="1612.03,-1070.22 1618.22,-1078.82 1618.75,-1068.24 1612.03,-1070.22"/>
</g>
<!-- Node35&#45;&gt;Node7 -->
<g id="edge111" class="edge">
<title>Node35&#45;&gt;Node7</title>
<path fill="none" stroke="#63b8ff" d="M949.21,-466.39C975.87,-428.82 1039.82,-339.38 1047,-335.77 1107.86,-305.19 1134.35,-318.57 1200.25,-335.77 1356.87,-376.65 1412.36,-391.12 1518,-513.77 1583.68,-590.02 1610.5,-711.25 1619.62,-765.25"/>
<polygon fill="#63b8ff" stroke="#63b8ff" points="1616.11,-765.49 1621.16,-774.81 1623.03,-764.38 1616.11,-765.49"/>
</g>
<!-- Node35&#45;&gt;Node8 -->
<g id="edge112" class="edge">
<title>Node35&#45;&gt;Node8</title>
<path fill="none" stroke="#63b8ff" d="M985.6,-466.28C1039.42,-450.47 1128.56,-432.44 1200.25,-457.77 1287.64,-488.64 1317.24,-507.89 1362.5,-588.77 1432.23,-713.38 1452.36,-1175.79 1456.4,-1293.41"/>
<polygon fill="#63b8ff" stroke="#63b8ff" points="1452.89,-1293.19 1456.72,-1303.06 1459.89,-1292.95 1452.89,-1293.19"/>
</g>
<!-- Node35&#45;&gt;Node9 -->
<g id="edge113" class="edge">
<title>Node35&#45;&gt;Node9</title>
<path fill="none" stroke="#63b8ff" d="M942.73,-466.47C954.83,-430.53 988.66,-344 1047,-297.77 1102.94,-253.44 1132.37,-271.81 1200.25,-249.77 1212.94,-245.65 1226.52,-241.14 1239.4,-236.82"/>
<polygon fill="#63b8ff" stroke="#63b8ff" points="1240.23,-240.24 1248.59,-233.73 1238,-233.6 1240.23,-240.24"/>
</g>
<!-- Node35&#45;&gt;Node10 -->
<g id="edge114" class="edge">
<title>Node35&#45;&gt;Node10</title>
<path fill="none" stroke="#63b8ff" d="M944.35,-499.07C958.99,-535.23 993.76,-625.19 1011,-703.77 1026.43,-774.1 999.55,-971.62 1047,-1025.77 1093.25,-1078.55 1140.56,-1026.87 1200.25,-1063.77 1236.51,-1086.19 1266.26,-1126.46 1283.17,-1152.9"/>
<polygon fill="#63b8ff" stroke="#63b8ff" points="1280.16,-1154.69 1288.4,-1161.34 1286.1,-1150.99 1280.16,-1154.69"/>
</g>
<!-- Node35&#45;&gt;Node14 -->
<g id="edge121" class="edge">
<title>Node35&#45;&gt;Node14</title>
<path fill="none" stroke="#63b8ff" d="M972.04,-499.15C1056.43,-541.42 1273.21,-663.19 1362.5,-837.77 1414.03,-938.53 1367.15,-1237.03 1398.5,-1345.77 1407.4,-1376.66 1425.74,-1408.72 1439.58,-1430.21"/>
<polygon fill="#63b8ff" stroke="#63b8ff" points="1436.49,-1431.89 1444.92,-1438.31 1442.34,-1428.03 1436.49,-1431.89"/>
</g>
<!-- Node36 -->
<g id="node36" class="node">
<title>Node36</title>
<g id="a_node36"><a xlink:href="a01995.html#aba7ba9ec9a52ad2bee8baff70176aa20" target="_top" xlink:title=" ">
<polygon fill="white" stroke="#666666" points="1200.25,-498.77 1047,-498.77 1047,-466.77 1200.25,-466.77 1200.25,-498.77"/>
<text xml:space="preserve" text-anchor="start" x="1055" y="-485.27" font-family="Helvetica,sans-Serif" font-size="10.00">nlohmann::detail::binary</text>
<text xml:space="preserve" text-anchor="middle" x="1123.62" y="-473.27" font-family="Helvetica,sans-Serif" font-size="10.00">_reader::get_ubjson_size_value</text>
</a>
</g>
</g>
<!-- Node35&#45;&gt;Node36 -->
<g id="edge115" class="edge">
<title>Node35&#45;&gt;Node36</title>
<path fill="none" stroke="#63b8ff" d="M1011.27,-482.77C1019.15,-482.77 1027.22,-482.77 1035.23,-482.77"/>
<polygon fill="#63b8ff" stroke="#63b8ff" points="1034.99,-486.27 1044.99,-482.77 1034.99,-479.27 1034.99,-486.27"/>
</g>
<!-- Node36&#45;&gt;Node4 -->
<g id="edge116" class="edge">
<title>Node36&#45;&gt;Node4</title>
<path fill="none" stroke="#63b8ff" d="M1200.53,-477.63C1301.99,-472.54 1474.14,-470.68 1518,-512.77 1567.25,-560.02 1541.71,-750.64 1554,-817.77 1571.1,-911.22 1601.26,-1019.92 1615.6,-1069.55"/>
<polygon fill="#63b8ff" stroke="#63b8ff" points="1612.24,-1070.5 1618.39,-1079.12 1618.96,-1068.54 1612.24,-1070.5"/>
</g>
<!-- Node36&#45;&gt;Node7 -->
<g id="edge117" class="edge">
<title>Node36&#45;&gt;Node7</title>
<path fill="none" stroke="#63b8ff" d="M1169.09,-499.14C1179.44,-503.3 1190.34,-507.96 1200.25,-512.77 1347.1,-583.94 1386.26,-600.46 1518,-696.77 1548.06,-718.75 1579.23,-748.01 1599.85,-768.43"/>
<polygon fill="#63b8ff" stroke="#63b8ff" points="1597.12,-770.65 1606.67,-775.25 1602.07,-765.7 1597.12,-770.65"/>
</g>
<!-- Node36&#45;&gt;Node9 -->
<g id="edge118" class="edge">
<title>Node36&#45;&gt;Node9</title>
<path fill="none" stroke="#63b8ff" d="M1135.23,-466.53C1164.37,-421.92 1245.84,-297.19 1281.41,-242.75"/>
<polygon fill="#63b8ff" stroke="#63b8ff" points="1284.32,-244.69 1286.86,-234.4 1278.46,-240.86 1284.32,-244.69"/>
</g>
<!-- Node36&#45;&gt;Node10 -->
<g id="edge120" class="edge">
<title>Node36&#45;&gt;Node10</title>
<path fill="none" stroke="#63b8ff" d="M1130.28,-498.98C1143.62,-537.59 1177.63,-638.13 1200.25,-723.77 1242.68,-884.41 1280.25,-1080.51 1293.4,-1151.49"/>
<polygon fill="#63b8ff" stroke="#63b8ff" points="1289.9,-1151.83 1295.16,-1161.03 1296.79,-1150.57 1289.9,-1151.83"/>
</g>
<!-- Node36&#45;&gt;Node24 -->
<g id="edge119" class="edge">
<title>Node36&#45;&gt;Node24</title>
<path fill="none" stroke="#63b8ff" d="M1131.36,-499.06C1146.85,-537.41 1184.86,-636.76 1200.25,-723.77 1260.84,-1066.38 1169.93,-1164.22 1236.25,-1505.77 1246.96,-1560.92 1271.44,-1622.11 1286.28,-1656.16"/>
<polygon fill="#63b8ff" stroke="#63b8ff" points="1283.04,-1657.51 1290.29,-1665.24 1289.45,-1654.68 1283.04,-1657.51"/>
</g>
<!-- Node37&#45;&gt;Node2 -->
<g id="edge129" class="edge">
<title>Node37&#45;&gt;Node2</title>
<path fill="none" stroke="#63b8ff" d="M945.04,-757C958.79,-798.56 988.87,-890.97 1011,-969.77 1028.84,-1033.28 1029.55,-1050.15 1047,-1113.77 1069.7,-1196.53 1099.64,-1293.54 1114.09,-1339.71"/>
<polygon fill="#63b8ff" stroke="#63b8ff" points="1110.71,-1340.63 1117.05,-1349.12 1117.39,-1338.53 1110.71,-1340.63"/>
</g>
<!-- Node37&#45;&gt;Node4 -->
<g id="edge125" class="edge">
<title>Node37&#45;&gt;Node4</title>
<path fill="none" stroke="#63b8ff" d="M943.18,-712.32C954.63,-671.46 985.14,-585.96 1047,-550.77 1137.97,-499.01 1439.2,-481.88 1518,-550.77 1563.07,-590.17 1542.73,-758.97 1554,-817.77 1571.88,-911.08 1601.65,-1019.84 1615.76,-1069.52"/>
<polygon fill="#63b8ff" stroke="#63b8ff" points="1612.38,-1070.45 1618.49,-1079.1 1619.11,-1068.52 1612.38,-1070.45"/>
</g>
<!-- Node37&#45;&gt;Node7 -->
<g id="edge126" class="edge">
<title>Node37&#45;&gt;Node7</title>
<path fill="none" stroke="#63b8ff" d="M943.03,-712.4C958.12,-651.97 1002.54,-488.01 1047,-457.77 1103.32,-419.46 1133.58,-443.82 1200.25,-457.77 1353.86,-489.91 1404.94,-502.93 1518,-611.77 1564.99,-657.01 1597.97,-727.67 1613.52,-765.95"/>
<polygon fill="#63b8ff" stroke="#63b8ff" points="1610.12,-766.86 1617.05,-774.87 1616.62,-764.29 1610.12,-766.86"/>
</g>
<!-- Node37&#45;&gt;Node8 -->
<g id="edge127" class="edge">
<title>Node37&#45;&gt;Node8</title>
<path fill="none" stroke="#63b8ff" d="M993.79,-757.2C1103.39,-801.43 1337.31,-898.24 1362.5,-928.77 1409.44,-985.66 1443.29,-1214.42 1453.81,-1293.62"/>
<polygon fill="#63b8ff" stroke="#63b8ff" points="1450.28,-1293.63 1455.04,-1303.09 1457.22,-1292.72 1450.28,-1293.63"/>
</g>
<!-- Node37&#45;&gt;Node14 -->
<g id="edge130" class="edge">
<title>Node37&#45;&gt;Node14</title>
<path fill="none" stroke="#63b8ff" d="M959.98,-757C981.08,-777.1 1014.27,-806.57 1047,-826.77 1110.11,-865.72 1138.21,-852.15 1200.25,-892.77 1282.92,-946.9 1317.88,-956.61 1362.5,-1044.77 1423.34,-1164.98 1358.07,-1217.25 1398.5,-1345.77 1408.15,-1376.44 1426.37,-1408.53 1439.97,-1430.09"/>
<polygon fill="#63b8ff" stroke="#63b8ff" points="1436.85,-1431.71 1445.21,-1438.21 1442.73,-1427.91 1436.85,-1431.71"/>
</g>
<!-- Node37&#45;&gt;Node36 -->
<g id="edge128" class="edge">
<title>Node37&#45;&gt;Node36</title>
<path fill="none" stroke="#63b8ff" d="M942.9,-712.3C954.36,-668.15 985.59,-569.45 1047,-512.77 1050.09,-509.92 1053.48,-507.33 1057.06,-504.97"/>
<polygon fill="#63b8ff" stroke="#63b8ff" points="1058.7,-508.06 1065.61,-500.03 1055.2,-502.01 1058.7,-508.06"/>
</g>
<!-- Node38&#45;&gt;Node9 -->
<g id="edge132" class="edge">
<title>Node38&#45;&gt;Node9</title>
<path fill="none" stroke="#63b8ff" d="M812.11,-549.5C817.21,-546.77 822.01,-543.56 826.25,-539.77 855.92,-513.23 840.77,-491.28 862.25,-457.77 928.97,-353.67 937.76,-307.69 1047,-249.77 1076.97,-233.88 1162,-225.16 1224.91,-220.74"/>
<polygon fill="#63b8ff" stroke="#63b8ff" points="1225.13,-224.23 1234.87,-220.06 1224.65,-217.25 1225.13,-224.23"/>
</g>
<!-- Node38&#45;&gt;Node32 -->
<g id="edge143" class="edge">
<title>Node38&#45;&gt;Node32</title>
<path fill="none" stroke="#63b8ff" d="M678.16,-564.77C617.76,-564.77 528.04,-564.77 462.31,-564.77"/>
<polygon fill="#63b8ff" stroke="#63b8ff" points="462.66,-561.27 452.66,-564.77 462.66,-568.27 462.66,-561.27"/>
</g>
<!-- Node38&#45;&gt;Node33 -->
<g id="edge142" class="edge">
<title>Node38&#45;&gt;Node33</title>
<path fill="none" stroke="#63b8ff" d="M699.37,-581.24C679.74,-586.68 656.16,-592.53 633.94,-597.51"/>
<polygon fill="#63b8ff" stroke="#63b8ff" points="633.31,-594.07 624.3,-599.64 634.82,-600.91 633.31,-594.07"/>
</g>
<!-- Node38&#45;&gt;Node35 -->
<g id="edge133" class="edge">
<title>Node38&#45;&gt;Node35</title>
<path fill="none" stroke="#63b8ff" d="M803.04,-548.39C810.92,-545.72 818.84,-542.83 826.25,-539.77 850.63,-529.71 876.88,-516.13 897.54,-504.75"/>
<polygon fill="#63b8ff" stroke="#63b8ff" points="899.15,-507.86 906.18,-499.94 895.74,-501.75 899.15,-507.86"/>
</g>
<!-- Node38&#45;&gt;Node39 -->
<g id="edge134" class="edge">
<title>Node38&#45;&gt;Node39</title>
<path fill="none" stroke="#63b8ff" d="M796.97,-581.21C851.47,-599.72 939.75,-632.28 1011,-670.77 1040.35,-686.63 1071.26,-708.7 1093.1,-725.32"/>
<polygon fill="#63b8ff" stroke="#63b8ff" points="1090.9,-728.05 1100.96,-731.38 1095.17,-722.51 1090.9,-728.05"/>
</g>
<!-- Node39&#45;&gt;Node4 -->
<g id="edge135" class="edge">
<title>Node39&#45;&gt;Node4</title>
<path fill="none" stroke="#63b8ff" d="M1189.38,-741.9C1239.56,-739.56 1309.29,-743.03 1362.5,-771.77 1379.33,-780.86 1546.52,-996.67 1604.19,-1071.5"/>
<polygon fill="#63b8ff" stroke="#63b8ff" points="1601.17,-1073.31 1610.04,-1079.1 1606.71,-1069.04 1601.17,-1073.31"/>
</g>
<!-- Node39&#45;&gt;Node7 -->
<g id="edge136" class="edge">
<title>Node39&#45;&gt;Node7</title>
<path fill="none" stroke="#63b8ff" d="M1155.35,-732.27C1177.22,-721.5 1207.67,-708.43 1236.25,-702.77 1360.2,-678.23 1399.24,-697.61 1518,-740.77 1540.8,-749.05 1565.16,-760.83 1584.73,-771.08"/>
<polygon fill="#63b8ff" stroke="#63b8ff" points="1582.98,-774.12 1593.45,-775.72 1586.26,-767.94 1582.98,-774.12"/>
</g>
<!-- Node39&#45;&gt;Node8 -->
<g id="edge137" class="edge">
<title>Node39&#45;&gt;Node8</title>
<path fill="none" stroke="#63b8ff" d="M1189.46,-760.3C1244.11,-773.52 1320,-800.76 1362.5,-854.77 1417.23,-924.33 1446.75,-1204.27 1454.89,-1293.38"/>
<polygon fill="#63b8ff" stroke="#63b8ff" points="1451.39,-1293.49 1455.77,-1303.14 1458.36,-1292.87 1451.39,-1293.49"/>
</g>
<!-- Node39&#45;&gt;Node10 -->
<g id="edge140" class="edge">
<title>Node39&#45;&gt;Node10</title>
<path fill="none" stroke="#63b8ff" d="M1131.69,-764.8C1145.29,-795.77 1175.92,-866.04 1200.25,-925.77 1233.6,-1007.62 1270.76,-1105.37 1288.25,-1151.77"/>
<polygon fill="#63b8ff" stroke="#63b8ff" points="1284.92,-1152.87 1291.72,-1161 1291.47,-1150.41 1284.92,-1152.87"/>
</g>
<!-- Node39&#45;&gt;Node14 -->
<g id="edge141" class="edge">
<title>Node39&#45;&gt;Node14</title>
<path fill="none" stroke="#63b8ff" d="M1147.31,-765.02C1196.48,-801.69 1312.48,-896.33 1362.5,-1006.77 1425.02,-1144.78 1353.99,-1200.94 1398.5,-1345.77 1407.94,-1376.5 1426.2,-1408.59 1439.86,-1430.12"/>
<polygon fill="#63b8ff" stroke="#63b8ff" points="1436.75,-1431.76 1445.13,-1438.24 1442.63,-1427.95 1436.75,-1431.76"/>
</g>
<!-- Node39&#45;&gt;Node19 -->
<g id="edge139" class="edge">
<title>Node39&#45;&gt;Node19</title>
<path fill="none" stroke="#63b8ff" d="M1133.85,-765.22C1150.47,-795.75 1185.12,-863.76 1200.25,-925.77 1225.61,-1029.69 1173.1,-1319.43 1236.25,-1405.77 1236.4,-1405.97 1236.55,-1406.18 1236.71,-1406.38"/>
<polygon fill="#63b8ff" stroke="#63b8ff" points="1234.14,-1408.77 1243.71,-1413.32 1239.07,-1403.8 1234.14,-1408.77"/>
</g>
<!-- Node39&#45;&gt;Node24 -->
<g id="edge138" class="edge">
<title>Node39&#45;&gt;Node24</title>
<path fill="none" stroke="#63b8ff" d="M1133.93,-765.2C1150.67,-795.7 1185.52,-863.67 1200.25,-925.77 1259.86,-1177.07 1185,-1252.63 1236.25,-1505.77 1247.4,-1560.83 1271.73,-1622.05 1286.42,-1656.13"/>
<polygon fill="#63b8ff" stroke="#63b8ff" points="1283.17,-1657.46 1290.39,-1665.22 1289.59,-1654.65 1283.17,-1657.46"/>
</g>
</g>
</svg>
