<?xml version="1.0" encoding="UTF-8" standalone="no"?>
<!DOCTYPE svg PUBLIC "-//W3C//DTD SVG 1.1//EN"
 "http://www.w3.org/Graphics/SVG/1.1/DTD/svg11.dtd">
<!-- Generated by graphviz version 13.1.2 (20250808.2320)
 -->
<!-- Title: nlohmann::json_pointer::back Pages: 1 -->
<svg width="448pt" height="90pt"
 viewBox="0.00 0.00 448.00 90.00" xmlns="http://www.w3.org/2000/svg" xmlns:xlink="http://www.w3.org/1999/xlink">
<g id="graph0" class="graph" transform="scale(1 1) rotate(0) translate(4 86)">
<title>nlohmann::json_pointer::back</title>
<!-- Node1 -->
<g id="node1" class="node">
<title>Node1</title>
<g id="a_node1"><a xlink:title="return last reference token">
<polygon fill="#999999" stroke="#666666" points="116.5,-57 0,-57 0,-25 116.5,-25 116.5,-57"/>
<text xml:space="preserve" text-anchor="start" x="8" y="-43.5" font-family="Helvetica,sans-Serif" font-size="10.00">nlohmann::json_pointer</text>
<text xml:space="preserve" text-anchor="middle" x="58.25" y="-31.5" font-family="Helvetica,sans-Serif" font-size="10.00">::back</text>
</a>
</g>
</g>
<!-- Node2 -->
<g id="node2" class="node">
<title>Node2</title>
<g id="a_node2"><a xlink:href="a01575.html#a3f6d82a6f967c4728a1ec735a7867073" target="_top" xlink:title=" ">
<polygon fill="white" stroke="#666666" points="264.12,-82 157.38,-82 157.38,-50 264.12,-50 264.12,-82"/>
<text xml:space="preserve" text-anchor="start" x="165.38" y="-68.5" font-family="Helvetica,sans-Serif" font-size="10.00">nlohmann::detail::out</text>
<text xml:space="preserve" text-anchor="middle" x="210.75" y="-56.5" font-family="Helvetica,sans-Serif" font-size="10.00">_of_range::create</text>
</a>
</g>
</g>
<!-- Node1&#45;&gt;Node2 -->
<g id="edge1" class="edge">
<title>Node1&#45;&gt;Node2</title>
<path fill="none" stroke="#63b8ff" d="M116.58,-50.52C126.13,-52.11 136.09,-53.76 145.8,-55.38"/>
<polygon fill="#63b8ff" stroke="#63b8ff" points="145.1,-58.81 155.54,-57 146.25,-51.9 145.1,-58.81"/>
</g>
<!-- Node4 -->
<g id="node4" class="node">
<title>Node4</title>
<g id="a_node4"><a xlink:href="a01663.html#a649252bda4a2e75a0915b11a25d8bcc3" target="_top" xlink:title="return whether pointer points to the root document">
<polygon fill="white" stroke="#666666" points="269,-32 152.5,-32 152.5,0 269,0 269,-32"/>
<text xml:space="preserve" text-anchor="start" x="160.5" y="-18.5" font-family="Helvetica,sans-Serif" font-size="10.00">nlohmann::json_pointer</text>
<text xml:space="preserve" text-anchor="middle" x="210.75" y="-6.5" font-family="Helvetica,sans-Serif" font-size="10.00">::empty</text>
</a>
</g>
</g>
<!-- Node1&#45;&gt;Node4 -->
<g id="edge3" class="edge">
<title>Node1&#45;&gt;Node4</title>
<path fill="none" stroke="#63b8ff" d="M116.58,-31.48C124.48,-30.16 132.67,-28.8 140.75,-27.46"/>
<polygon fill="#63b8ff" stroke="#63b8ff" points="141.3,-30.92 150.59,-25.83 140.15,-24.01 141.3,-30.92"/>
</g>
<!-- Node3 -->
<g id="node3" class="node">
<title>Node3</title>
<g id="a_node3"><a xlink:href="a01559.html#abf41a7e9178356314082284e6cfea278" target="_top" xlink:title=" ">
<polygon fill="white" stroke="#666666" points="440.25,-82 305,-82 305,-50 440.25,-50 440.25,-82"/>
<text xml:space="preserve" text-anchor="start" x="313" y="-68.5" font-family="Helvetica,sans-Serif" font-size="10.00">nlohmann::detail::exception</text>
<text xml:space="preserve" text-anchor="middle" x="372.62" y="-56.5" font-family="Helvetica,sans-Serif" font-size="10.00">::name</text>
</a>
</g>
</g>
<!-- Node2&#45;&gt;Node3 -->
<g id="edge2" class="edge">
<title>Node2&#45;&gt;Node3</title>
<path fill="none" stroke="#63b8ff" d="M264.54,-66C273.76,-66 283.52,-66 293.26,-66"/>
<polygon fill="#63b8ff" stroke="#63b8ff" points="293.12,-69.5 303.12,-66 293.12,-62.5 293.12,-69.5"/>
</g>
</g>
</svg>
