<?xml version="1.0" encoding="UTF-8" standalone="no"?>
<!DOCTYPE svg PUBLIC "-//W3C//DTD SVG 1.1//EN"
 "http://www.w3.org/Graphics/SVG/1.1/DTD/svg11.dtd">
<!-- Generated by graphviz version 13.1.2 (20250808.2320)
 -->
<!-- Title: nlohmann::json_pointer::get_unchecked Pages: 1 -->
<svg width="602pt" height="90pt"
 viewBox="0.00 0.00 602.00 90.00" xmlns="http://www.w3.org/2000/svg" xmlns:xlink="http://www.w3.org/1999/xlink">
<g id="graph0" class="graph" transform="scale(1 1) rotate(0) translate(4 86)">
<title>nlohmann::json_pointer::get_unchecked</title>
<!-- Node1 -->
<g id="node1" class="node">
<title>Node1</title>
<g id="a_node1"><a xlink:title="return a const reference to the pointed to value">
<polygon fill="#999999" stroke="#666666" points="116.5,-54 0,-54 0,-22 116.5,-22 116.5,-54"/>
<text xml:space="preserve" text-anchor="start" x="8" y="-40.5" font-family="Helvetica,sans-Serif" font-size="10.00">nlohmann::json_pointer</text>
<text xml:space="preserve" text-anchor="middle" x="58.25" y="-28.5" font-family="Helvetica,sans-Serif" font-size="10.00">::get_unchecked</text>
</a>
</g>
</g>
<!-- Node2 -->
<g id="node2" class="node">
<title>Node2</title>
<g id="a_node2"><a xlink:href="a01663.html#ae28e4b79b9d4fac9e6dca29f47f946fa" target="_top" xlink:title=" ">
<polygon fill="white" stroke="#666666" points="269,-76 152.5,-76 152.5,-44 269,-44 269,-76"/>
<text xml:space="preserve" text-anchor="start" x="160.5" y="-62.5" font-family="Helvetica,sans-Serif" font-size="10.00">nlohmann::json_pointer</text>
<text xml:space="preserve" text-anchor="middle" x="210.75" y="-50.5" font-family="Helvetica,sans-Serif" font-size="10.00">::array_index</text>
</a>
</g>
</g>
<!-- Node1&#45;&gt;Node2 -->
<g id="edge1" class="edge">
<title>Node1&#45;&gt;Node2</title>
<path fill="none" stroke="#63b8ff" d="M116.58,-46.38C124.48,-47.54 132.67,-48.73 140.75,-49.91"/>
<polygon fill="#63b8ff" stroke="#63b8ff" points="140.19,-53.37 150.59,-51.35 141.2,-46.44 140.19,-53.37"/>
</g>
<!-- Node6 -->
<g id="node6" class="node">
<title>Node6</title>
<g id="a_node6"><a xlink:href="a01575.html#a3f6d82a6f967c4728a1ec735a7867073" target="_top" xlink:title=" ">
<polygon fill="white" stroke="#666666" points="417,-32 310.25,-32 310.25,0 417,0 417,-32"/>
<text xml:space="preserve" text-anchor="start" x="318.25" y="-18.5" font-family="Helvetica,sans-Serif" font-size="10.00">nlohmann::detail::out</text>
<text xml:space="preserve" text-anchor="middle" x="363.62" y="-6.5" font-family="Helvetica,sans-Serif" font-size="10.00">_of_range::create</text>
</a>
</g>
</g>
<!-- Node1&#45;&gt;Node6 -->
<g id="edge7" class="edge">
<title>Node1&#45;&gt;Node6</title>
<path fill="none" stroke="#63b8ff" d="M116.67,-33.84C168.44,-30.08 244.49,-24.57 298.29,-20.67"/>
<polygon fill="#63b8ff" stroke="#63b8ff" points="298.53,-24.16 308.25,-19.94 298.02,-17.18 298.53,-24.16"/>
</g>
<!-- Node3 -->
<g id="node3" class="node">
<title>Node3</title>
<g id="a_node3"><a xlink:href="a01563.html#a137ea4d27de45d8a844fd13451d40f3d" target="_top" xlink:title="create a parse error exception">
<polygon fill="white" stroke="#666666" points="422.25,-82 305,-82 305,-50 422.25,-50 422.25,-82"/>
<text xml:space="preserve" text-anchor="start" x="313" y="-68.5" font-family="Helvetica,sans-Serif" font-size="10.00">nlohmann::detail::parse</text>
<text xml:space="preserve" text-anchor="middle" x="363.62" y="-56.5" font-family="Helvetica,sans-Serif" font-size="10.00">_error::create</text>
</a>
</g>
</g>
<!-- Node2&#45;&gt;Node3 -->
<g id="edge2" class="edge">
<title>Node2&#45;&gt;Node3</title>
<path fill="none" stroke="#63b8ff" d="M269.22,-62.29C277.09,-62.6 285.23,-62.92 293.28,-63.24"/>
<polygon fill="#63b8ff" stroke="#63b8ff" points="292.92,-66.73 303.05,-63.63 293.2,-59.74 292.92,-66.73"/>
</g>
<!-- Node2&#45;&gt;Node6 -->
<g id="edge5" class="edge">
<title>Node2&#45;&gt;Node6</title>
<path fill="none" stroke="#63b8ff" d="M267.93,-43.62C278.02,-40.67 288.6,-37.59 298.89,-34.59"/>
<polygon fill="#63b8ff" stroke="#63b8ff" points="299.82,-37.96 308.44,-31.8 297.86,-31.24 299.82,-37.96"/>
</g>
<!-- Node4 -->
<g id="node4" class="node">
<title>Node4</title>
<g id="a_node4"><a xlink:href="a01559.html#abf41a7e9178356314082284e6cfea278" target="_top" xlink:title=" ">
<polygon fill="white" stroke="#666666" points="593.5,-32 458.25,-32 458.25,0 593.5,0 593.5,-32"/>
<text xml:space="preserve" text-anchor="start" x="466.25" y="-18.5" font-family="Helvetica,sans-Serif" font-size="10.00">nlohmann::detail::exception</text>
<text xml:space="preserve" text-anchor="middle" x="525.88" y="-6.5" font-family="Helvetica,sans-Serif" font-size="10.00">::name</text>
</a>
</g>
</g>
<!-- Node3&#45;&gt;Node4 -->
<g id="edge3" class="edge">
<title>Node3&#45;&gt;Node4</title>
<path fill="none" stroke="#63b8ff" d="M417.1,-49.63C431.14,-45.25 446.47,-40.46 461.04,-35.92"/>
<polygon fill="#63b8ff" stroke="#63b8ff" points="462.06,-39.26 470.57,-32.95 459.98,-32.58 462.06,-39.26"/>
</g>
<!-- Node5 -->
<g id="node5" class="node">
<title>Node5</title>
<g id="a_node5"><a xlink:href="a01563.html#aefe74adeaa48781464ba2fd2ec63d221" target="_top" xlink:title=" ">
<polygon fill="white" stroke="#666666" points="584.5,-82 467.25,-82 467.25,-50 584.5,-50 584.5,-82"/>
<text xml:space="preserve" text-anchor="start" x="475.25" y="-68.5" font-family="Helvetica,sans-Serif" font-size="10.00">nlohmann::detail::parse</text>
<text xml:space="preserve" text-anchor="middle" x="525.88" y="-56.5" font-family="Helvetica,sans-Serif" font-size="10.00">_error::position_string</text>
</a>
</g>
</g>
<!-- Node3&#45;&gt;Node5 -->
<g id="edge4" class="edge">
<title>Node3&#45;&gt;Node5</title>
<path fill="none" stroke="#63b8ff" d="M422.48,-66C433.19,-66 444.48,-66 455.5,-66"/>
<polygon fill="#63b8ff" stroke="#63b8ff" points="455.32,-69.5 465.32,-66 455.32,-62.5 455.32,-69.5"/>
</g>
<!-- Node6&#45;&gt;Node4 -->
<g id="edge6" class="edge">
<title>Node6&#45;&gt;Node4</title>
<path fill="none" stroke="#63b8ff" d="M417.1,-16C426.58,-16 436.65,-16 446.69,-16"/>
<polygon fill="#63b8ff" stroke="#63b8ff" points="446.45,-19.5 456.45,-16 446.45,-12.5 446.45,-19.5"/>
</g>
</g>
</svg>
