<?xml version="1.0" encoding="UTF-8" standalone="no"?>
<!DOCTYPE svg PUBLIC "-//W3C//DTD SVG 1.1//EN"
 "http://www.w3.org/Graphics/SVG/1.1/DTD/svg11.dtd">
<!-- Generated by graphviz version 13.1.2 (20250808.2320)
 -->
<!-- Title: nlohmann::basic_json::update Pages: 1 -->
<svg width="447pt" height="290pt"
 viewBox="0.00 0.00 447.00 290.00" xmlns="http://www.w3.org/2000/svg" xmlns:xlink="http://www.w3.org/1999/xlink">
<g id="graph0" class="graph" transform="scale(1 1) rotate(0) translate(4 286)">
<title>nlohmann::basic_json::update</title>
<!-- Node1 -->
<g id="node1" class="node">
<title>Node1</title>
<g id="a_node1"><a xlink:title="updates a JSON object from another object, overwriting existing keys">
<polygon fill="#999999" stroke="#666666" points="110.5,-157 0,-157 0,-125 110.5,-125 110.5,-157"/>
<text xml:space="preserve" text-anchor="start" x="8" y="-143.5" font-family="Helvetica,sans-Serif" font-size="10.00">nlohmann::basic_json</text>
<text xml:space="preserve" text-anchor="middle" x="55.25" y="-131.5" font-family="Helvetica,sans-Serif" font-size="10.00">::update</text>
</a>
</g>
</g>
<!-- Node2 -->
<g id="node2" class="node">
<title>Node2</title>
<g id="a_node2"><a xlink:href="a01659.html#aa7e7b1bdb6e9dbcfa5e284e8a2fb6464" target="_top" xlink:title="checks the class invariants">
<polygon fill="white" stroke="#666666" points="262.25,-282 151.75,-282 151.75,-250 262.25,-250 262.25,-282"/>
<text xml:space="preserve" text-anchor="start" x="159.75" y="-268.5" font-family="Helvetica,sans-Serif" font-size="10.00">nlohmann::basic_json</text>
<text xml:space="preserve" text-anchor="middle" x="207" y="-256.5" font-family="Helvetica,sans-Serif" font-size="10.00">::assert_invariant</text>
</a>
</g>
</g>
<!-- Node1&#45;&gt;Node2 -->
<g id="edge1" class="edge">
<title>Node1&#45;&gt;Node2</title>
<path fill="none" stroke="#63b8ff" d="M67.35,-157.21C82.86,-178.85 112.93,-217.18 146.5,-241 148.04,-242.09 149.63,-243.15 151.27,-244.17"/>
<polygon fill="#63b8ff" stroke="#63b8ff" points="149.23,-247.04 159.67,-248.89 152.66,-240.94 149.23,-247.04"/>
</g>
<!-- Node3 -->
<g id="node3" class="node">
<title>Node3</title>
<g id="a_node3"><a xlink:href="a01567.html#a4e849260a3caa1b288c7e619130c6c09" target="_top" xlink:title=" ">
<polygon fill="white" stroke="#666666" points="267.5,-232 146.5,-232 146.5,-200 267.5,-200 267.5,-232"/>
<text xml:space="preserve" text-anchor="start" x="154.5" y="-218.5" font-family="Helvetica,sans-Serif" font-size="10.00">nlohmann::detail::invalid</text>
<text xml:space="preserve" text-anchor="middle" x="207" y="-206.5" font-family="Helvetica,sans-Serif" font-size="10.00">_iterator::create</text>
</a>
</g>
</g>
<!-- Node1&#45;&gt;Node3 -->
<g id="edge2" class="edge">
<title>Node1&#45;&gt;Node3</title>
<path fill="none" stroke="#63b8ff" d="M83.89,-157.33C101.55,-167.51 125.07,-180.6 146.5,-191 149.24,-192.33 152.07,-193.66 154.94,-194.97"/>
<polygon fill="#63b8ff" stroke="#63b8ff" points="153.47,-198.15 164.03,-199.02 156.32,-191.76 153.47,-198.15"/>
</g>
<!-- Node5 -->
<g id="node5" class="node">
<title>Node5</title>
<g id="a_node5"><a xlink:href="a01571.html#aecc083aea4b698c33d042670ba50c10f" target="_top" xlink:title=" ">
<polygon fill="white" stroke="#666666" points="263,-182 151,-182 151,-150 263,-150 263,-182"/>
<text xml:space="preserve" text-anchor="start" x="159" y="-168.5" font-family="Helvetica,sans-Serif" font-size="10.00">nlohmann::detail::type</text>
<text xml:space="preserve" text-anchor="middle" x="207" y="-156.5" font-family="Helvetica,sans-Serif" font-size="10.00">_error::create</text>
</a>
</g>
</g>
<!-- Node1&#45;&gt;Node5 -->
<g id="edge4" class="edge">
<title>Node1&#45;&gt;Node5</title>
<path fill="none" stroke="#63b8ff" d="M110.74,-150.1C120.05,-151.65 129.83,-153.28 139.41,-154.88"/>
<polygon fill="#63b8ff" stroke="#63b8ff" points="138.62,-158.3 149.06,-156.49 139.77,-151.39 138.62,-158.3"/>
</g>
<!-- Node6 -->
<g id="node6" class="node">
<title>Node6</title>
<g id="a_node6"><a xlink:href="a01659.html#aedc7afad96292b5ab61a2e0ad3067f5f" target="_top" xlink:title="return whether value is null">
<polygon fill="white" stroke="#666666" points="262.25,-132 151.75,-132 151.75,-100 262.25,-100 262.25,-132"/>
<text xml:space="preserve" text-anchor="start" x="159.75" y="-118.5" font-family="Helvetica,sans-Serif" font-size="10.00">nlohmann::basic_json</text>
<text xml:space="preserve" text-anchor="middle" x="207" y="-106.5" font-family="Helvetica,sans-Serif" font-size="10.00">::is_null</text>
</a>
</g>
</g>
<!-- Node1&#45;&gt;Node6 -->
<g id="edge6" class="edge">
<title>Node1&#45;&gt;Node6</title>
<path fill="none" stroke="#63b8ff" d="M110.74,-131.9C120.23,-130.32 130.2,-128.65 139.97,-127.02"/>
<polygon fill="#63b8ff" stroke="#63b8ff" points="140.52,-130.48 149.81,-125.38 139.37,-123.58 140.52,-130.48"/>
</g>
<!-- Node7 -->
<g id="node7" class="node">
<title>Node7</title>
<g id="a_node7"><a xlink:href="a01659.html#a57e8411a770a6263d6d8f2116c37f3aa" target="_top" xlink:title="return whether value is an object">
<polygon fill="white" stroke="#666666" points="262.25,-82 151.75,-82 151.75,-50 262.25,-50 262.25,-82"/>
<text xml:space="preserve" text-anchor="start" x="159.75" y="-68.5" font-family="Helvetica,sans-Serif" font-size="10.00">nlohmann::basic_json</text>
<text xml:space="preserve" text-anchor="middle" x="207" y="-56.5" font-family="Helvetica,sans-Serif" font-size="10.00">::is_object</text>
</a>
</g>
</g>
<!-- Node1&#45;&gt;Node7 -->
<g id="edge7" class="edge">
<title>Node1&#45;&gt;Node7</title>
<path fill="none" stroke="#63b8ff" d="M83.89,-124.67C101.55,-114.49 125.07,-101.4 146.5,-91 149.24,-89.67 152.07,-88.34 154.94,-87.03"/>
<polygon fill="#63b8ff" stroke="#63b8ff" points="156.32,-90.24 164.03,-82.98 153.47,-83.85 156.32,-90.24"/>
</g>
<!-- Node8 -->
<g id="node8" class="node">
<title>Node8</title>
<g id="a_node8"><a xlink:href="a01659.html#ab8811fc4eab6091b32b34b3ac3e90474" target="_top" xlink:title="return the type as string">
<polygon fill="white" stroke="#666666" points="262.25,-32 151.75,-32 151.75,0 262.25,0 262.25,-32"/>
<text xml:space="preserve" text-anchor="start" x="159.75" y="-18.5" font-family="Helvetica,sans-Serif" font-size="10.00">nlohmann::basic_json</text>
<text xml:space="preserve" text-anchor="middle" x="207" y="-6.5" font-family="Helvetica,sans-Serif" font-size="10.00">::type_name</text>
</a>
</g>
</g>
<!-- Node1&#45;&gt;Node8 -->
<g id="edge8" class="edge">
<title>Node1&#45;&gt;Node8</title>
<path fill="none" stroke="#63b8ff" d="M67.35,-124.79C82.86,-103.15 112.93,-64.82 146.5,-41 148.04,-39.91 149.63,-38.85 151.27,-37.83"/>
<polygon fill="#63b8ff" stroke="#63b8ff" points="152.66,-41.06 159.67,-33.11 149.23,-34.96 152.66,-41.06"/>
</g>
<!-- Node4 -->
<g id="node4" class="node">
<title>Node4</title>
<g id="a_node4"><a xlink:href="a01559.html#abf41a7e9178356314082284e6cfea278" target="_top" xlink:title=" ">
<polygon fill="white" stroke="#666666" points="438.75,-207 303.5,-207 303.5,-175 438.75,-175 438.75,-207"/>
<text xml:space="preserve" text-anchor="start" x="311.5" y="-193.5" font-family="Helvetica,sans-Serif" font-size="10.00">nlohmann::detail::exception</text>
<text xml:space="preserve" text-anchor="middle" x="371.12" y="-181.5" font-family="Helvetica,sans-Serif" font-size="10.00">::name</text>
</a>
</g>
</g>
<!-- Node3&#45;&gt;Node4 -->
<g id="edge3" class="edge">
<title>Node3&#45;&gt;Node4</title>
<path fill="none" stroke="#63b8ff" d="M267.91,-206.76C275.69,-205.56 283.76,-204.32 291.79,-203.08"/>
<polygon fill="#63b8ff" stroke="#63b8ff" points="292.24,-206.55 301.59,-201.57 291.18,-199.63 292.24,-206.55"/>
</g>
<!-- Node5&#45;&gt;Node4 -->
<g id="edge5" class="edge">
<title>Node5&#45;&gt;Node4</title>
<path fill="none" stroke="#63b8ff" d="M263.34,-174.53C272.57,-175.96 282.3,-177.46 291.97,-178.95"/>
<polygon fill="#63b8ff" stroke="#63b8ff" points="291.35,-182.39 301.77,-180.46 292.42,-175.48 291.35,-182.39"/>
</g>
</g>
</svg>
