<?xml version="1.0" encoding="UTF-8" standalone="no"?>
<!DOCTYPE svg PUBLIC "-//W3C//DTD SVG 1.1//EN"
 "http://www.w3.org/Graphics/SVG/1.1/DTD/svg11.dtd">
<!-- Generated by graphviz version 13.1.2 (20250808.2320)
 -->
<!-- Title: nlohmann::basic_json::find Pages: 1 -->
<svg width="596pt" height="84pt"
 viewBox="0.00 0.00 596.00 84.00" xmlns="http://www.w3.org/2000/svg" xmlns:xlink="http://www.w3.org/1999/xlink">
<g id="graph0" class="graph" transform="scale(1 1) rotate(0) translate(4 80)">
<title>nlohmann::basic_json::find</title>
<!-- Node1 -->
<g id="node1" class="node">
<title>Node1</title>
<g id="a_node1"><a xlink:title="find an element in a JSON object">
<polygon fill="#999999" stroke="#666666" points="110.5,-54 0,-54 0,-22 110.5,-22 110.5,-54"/>
<text xml:space="preserve" text-anchor="start" x="8" y="-40.5" font-family="Helvetica,sans-Serif" font-size="10.00">nlohmann::basic_json</text>
<text xml:space="preserve" text-anchor="middle" x="55.25" y="-28.5" font-family="Helvetica,sans-Serif" font-size="10.00">::find</text>
</a>
</g>
</g>
<!-- Node2 -->
<g id="node2" class="node">
<title>Node2</title>
<g id="a_node2"><a xlink:href="a01659.html#a931267ec3f09eb67e4382f321b2c52bc" target="_top" xlink:title="returns an iterator to one past the last element">
<polygon fill="white" stroke="#666666" points="278.75,-70 146.5,-70 146.5,-50 278.75,-50 278.75,-70"/>
<text xml:space="preserve" text-anchor="middle" x="212.62" y="-56.5" font-family="Helvetica,sans-Serif" font-size="10.00">nlohmann::basic_json::end</text>
</a>
</g>
</g>
<!-- Node1&#45;&gt;Node2 -->
<g id="edge1" class="edge">
<title>Node1&#45;&gt;Node2</title>
<path fill="none" stroke="#63b8ff" d="M110.59,-45.69C118.47,-46.81 126.71,-47.98 134.93,-49.14"/>
<polygon fill="#63b8ff" stroke="#63b8ff" points="134.2,-52.57 144.6,-50.51 135.19,-45.64 134.2,-52.57"/>
</g>
<!-- Node5 -->
<g id="node5" class="node">
<title>Node5</title>
<g id="a_node5"><a xlink:href="a01659.html#a57e8411a770a6263d6d8f2116c37f3aa" target="_top" xlink:title="return whether value is an object">
<polygon fill="white" stroke="#666666" points="267.88,-32 157.38,-32 157.38,0 267.88,0 267.88,-32"/>
<text xml:space="preserve" text-anchor="start" x="165.38" y="-18.5" font-family="Helvetica,sans-Serif" font-size="10.00">nlohmann::basic_json</text>
<text xml:space="preserve" text-anchor="middle" x="212.62" y="-6.5" font-family="Helvetica,sans-Serif" font-size="10.00">::is_object</text>
</a>
</g>
</g>
<!-- Node1&#45;&gt;Node5 -->
<g id="edge4" class="edge">
<title>Node1&#45;&gt;Node5</title>
<path fill="none" stroke="#63b8ff" d="M110.59,-30.31C122,-28.69 134.15,-26.97 145.92,-25.3"/>
<polygon fill="#63b8ff" stroke="#63b8ff" points="146.14,-28.81 155.55,-23.94 145.16,-21.88 146.14,-28.81"/>
</g>
<!-- Node3 -->
<g id="node3" class="node">
<title>Node3</title>
<g id="a_node3"><a xlink:href="a02011.html#a23e50ad4c13aa62d9ac7f60a123823ee" target="_top" xlink:title="set the iterator past the last value">
<polygon fill="white" stroke="#666666" points="421.5,-76 314.75,-76 314.75,-44 421.5,-44 421.5,-76"/>
<text xml:space="preserve" text-anchor="start" x="322.75" y="-62.5" font-family="Helvetica,sans-Serif" font-size="10.00">nlohmann::detail::iter</text>
<text xml:space="preserve" text-anchor="middle" x="368.12" y="-50.5" font-family="Helvetica,sans-Serif" font-size="10.00">_impl::set_end</text>
</a>
</g>
</g>
<!-- Node2&#45;&gt;Node3 -->
<g id="edge2" class="edge">
<title>Node2&#45;&gt;Node3</title>
<path fill="none" stroke="#63b8ff" d="M279.17,-60C287.05,-60 295.1,-60 302.96,-60"/>
<polygon fill="#63b8ff" stroke="#63b8ff" points="302.8,-63.5 312.8,-60 302.8,-56.5 302.8,-63.5"/>
</g>
<!-- Node4 -->
<g id="node4" class="node">
<title>Node4</title>
<g id="a_node4"><a xlink:href="a02003.html#ad26a823483846a12d890c3feed3097eb" target="_top" xlink:title="set iterator to a defined past the end">
<polygon fill="white" stroke="#666666" points="587.5,-76 457.5,-76 457.5,-44 587.5,-44 587.5,-76"/>
<text xml:space="preserve" text-anchor="start" x="465.5" y="-62.5" font-family="Helvetica,sans-Serif" font-size="10.00">nlohmann::detail::primitive</text>
<text xml:space="preserve" text-anchor="middle" x="522.5" y="-50.5" font-family="Helvetica,sans-Serif" font-size="10.00">_iterator_t::set_end</text>
</a>
</g>
</g>
<!-- Node3&#45;&gt;Node4 -->
<g id="edge3" class="edge">
<title>Node3&#45;&gt;Node4</title>
<path fill="none" stroke="#63b8ff" d="M421.99,-60C429.7,-60 437.77,-60 445.82,-60"/>
<polygon fill="#63b8ff" stroke="#63b8ff" points="445.66,-63.5 455.66,-60 445.66,-56.5 445.66,-63.5"/>
</g>
</g>
</svg>
