<?xml version="1.0" encoding="UTF-8" standalone="no"?>
<!DOCTYPE svg PUBLIC "-//W3C//DTD SVG 1.1//EN"
 "http://www.w3.org/Graphics/SVG/1.1/DTD/svg11.dtd">
<!-- Generated by graphviz version 13.1.2 (20250808.2320)
 -->
<!-- Title: nlohmann::basic_json::is_number_integer Pages: 1 -->
<svg width="412pt" height="90pt"
 viewBox="0.00 0.00 412.00 90.00" xmlns="http://www.w3.org/2000/svg" xmlns:xlink="http://www.w3.org/1999/xlink">
<g id="graph0" class="graph" transform="scale(1 1) rotate(0) translate(4 86)">
<title>nlohmann::basic_json::is_number_integer</title>
<!-- Node1 -->
<g id="node1" class="node">
<title>Node1</title>
<g id="a_node1"><a xlink:title="return whether value is an integer number">
<polygon fill="#999999" stroke="#666666" points="403.5,-57 293,-57 293,-25 403.5,-25 403.5,-57"/>
<text xml:space="preserve" text-anchor="start" x="301" y="-43.5" font-family="Helvetica,sans-Serif" font-size="10.00">nlohmann::basic_json</text>
<text xml:space="preserve" text-anchor="middle" x="348.25" y="-31.5" font-family="Helvetica,sans-Serif" font-size="10.00">::is_number_integer</text>
</a>
</g>
</g>
<!-- Node2 -->
<g id="node2" class="node">
<title>Node2</title>
<g id="a_node2"><a xlink:href="a01659.html#ab39dbbe5013241e5f95edfaf416d7138" target="_top" xlink:title="get a pointer to the value (integer number)">
<polygon fill="white" stroke="#666666" points="257,-82 146.5,-82 146.5,-50 257,-50 257,-82"/>
<text xml:space="preserve" text-anchor="start" x="154.5" y="-68.5" font-family="Helvetica,sans-Serif" font-size="10.00">nlohmann::basic_json</text>
<text xml:space="preserve" text-anchor="middle" x="201.75" y="-56.5" font-family="Helvetica,sans-Serif" font-size="10.00">::get_impl_ptr</text>
</a>
</g>
</g>
<!-- Node1&#45;&gt;Node2 -->
<g id="edge1" class="edge">
<title>Node1&#45;&gt;Node2</title>
<path fill="none" stroke="#63b8ff" d="M281.41,-52.39C273.4,-53.78 265.28,-55.18 257.46,-56.54"/>
<polygon fill="#63b8ff" stroke="#63b8ff" points="281.87,-55.86 291.13,-50.71 280.68,-48.97 281.87,-55.86"/>
</g>
<!-- Node3 -->
<g id="node3" class="node">
<title>Node3</title>
<g id="a_node3"><a xlink:href="a01659.html#abd47ac8eba63833152795280f75b5851" target="_top" xlink:title="return whether value is a number">
<polygon fill="white" stroke="#666666" points="257,-32 146.5,-32 146.5,0 257,0 257,-32"/>
<text xml:space="preserve" text-anchor="start" x="154.5" y="-18.5" font-family="Helvetica,sans-Serif" font-size="10.00">nlohmann::basic_json</text>
<text xml:space="preserve" text-anchor="middle" x="201.75" y="-6.5" font-family="Helvetica,sans-Serif" font-size="10.00">::is_number</text>
</a>
</g>
</g>
<!-- Node1&#45;&gt;Node3 -->
<g id="edge2" class="edge">
<title>Node1&#45;&gt;Node3</title>
<path fill="none" stroke="#63b8ff" d="M281.41,-29.61C273.4,-28.22 265.28,-26.82 257.46,-25.46"/>
<polygon fill="#63b8ff" stroke="#63b8ff" points="280.68,-33.03 291.13,-31.29 281.87,-26.14 280.68,-33.03"/>
</g>
<!-- Node4 -->
<g id="node4" class="node">
<title>Node4</title>
<g id="a_node4"><a xlink:href="a01659.html#a548d2d4013da24e7d7510d90febc80c4" target="_top" xlink:title="return whether type is primitive">
<polygon fill="white" stroke="#666666" points="110.5,-32 0,-32 0,0 110.5,0 110.5,-32"/>
<text xml:space="preserve" text-anchor="start" x="8" y="-18.5" font-family="Helvetica,sans-Serif" font-size="10.00">nlohmann::basic_json</text>
<text xml:space="preserve" text-anchor="middle" x="55.25" y="-6.5" font-family="Helvetica,sans-Serif" font-size="10.00">::is_primitive</text>
</a>
</g>
</g>
<!-- Node3&#45;&gt;Node4 -->
<g id="edge3" class="edge">
<title>Node3&#45;&gt;Node4</title>
<path fill="none" stroke="#63b8ff" d="M134.63,-16C126.71,-16 118.69,-16 110.96,-16"/>
<polygon fill="#63b8ff" stroke="#63b8ff" points="134.61,-19.5 144.61,-16 134.61,-12.5 134.61,-19.5"/>
</g>
</g>
</svg>
