<?xml version="1.0" encoding="UTF-8" standalone="no"?>
<!DOCTYPE svg PUBLIC "-//W3C//DTD SVG 1.1//EN"
 "http://www.w3.org/Graphics/SVG/1.1/DTD/svg11.dtd">
<!-- Generated by graphviz version 13.1.2 (20250808.2320)
 -->
<!-- Title: nlohmann::basic_json::to_bson Pages: 1 -->
<svg width="1711pt" height="560pt"
 viewBox="0.00 0.00 1711.00 560.00" xmlns="http://www.w3.org/2000/svg" xmlns:xlink="http://www.w3.org/1999/xlink">
<g id="graph0" class="graph" transform="scale(1 1) rotate(0) translate(4 555.97)">
<title>nlohmann::basic_json::to_bson</title>
<!-- Node1 -->
<g id="node1" class="node">
<title>Node1</title>
<g id="a_node1"><a xlink:title="Serializes the given JSON object j to BSON and forwards the corresponding BSON&#45;representation to the ...">
<polygon fill="#999999" stroke="#666666" points="110.5,-310.97 0,-310.97 0,-278.97 110.5,-278.97 110.5,-310.97"/>
<text xml:space="preserve" text-anchor="start" x="8" y="-297.47" font-family="Helvetica,sans-Serif" font-size="10.00">nlohmann::basic_json</text>
<text xml:space="preserve" text-anchor="middle" x="55.25" y="-285.47" font-family="Helvetica,sans-Serif" font-size="10.00">::to_bson</text>
</a>
</g>
</g>
<!-- Node2 -->
<g id="node2" class="node">
<title>Node2</title>
<g id="a_node2"><a xlink:href="a02039.html#a9ffc566db5219b473762462234b47db9" target="_top" xlink:title=" ">
<polygon fill="white" stroke="#666666" points="266,-310.97 146.5,-310.97 146.5,-278.97 266,-278.97 266,-310.97"/>
<text xml:space="preserve" text-anchor="start" x="154.5" y="-297.47" font-family="Helvetica,sans-Serif" font-size="10.00">nlohmann::detail::binary</text>
<text xml:space="preserve" text-anchor="middle" x="206.25" y="-285.47" font-family="Helvetica,sans-Serif" font-size="10.00">_writer::write_bson</text>
</a>
</g>
</g>
<!-- Node1&#45;&gt;Node2 -->
<g id="edge1" class="edge">
<title>Node1&#45;&gt;Node2</title>
<path fill="none" stroke="#63b8ff" d="M110.89,-294.97C118.68,-294.97 126.78,-294.97 134.82,-294.97"/>
<polygon fill="#63b8ff" stroke="#63b8ff" points="134.59,-298.47 144.59,-294.97 134.59,-291.47 134.59,-298.47"/>
</g>
<!-- Node3 -->
<g id="node3" class="node">
<title>Node3</title>
<g id="a_node3"><a xlink:href="a01571.html#aecc083aea4b698c33d042670ba50c10f" target="_top" xlink:title=" ">
<polygon fill="white" stroke="#666666" points="593.12,-551.97 481.12,-551.97 481.12,-519.97 593.12,-519.97 593.12,-551.97"/>
<text xml:space="preserve" text-anchor="start" x="489.12" y="-538.47" font-family="Helvetica,sans-Serif" font-size="10.00">nlohmann::detail::type</text>
<text xml:space="preserve" text-anchor="middle" x="537.12" y="-526.47" font-family="Helvetica,sans-Serif" font-size="10.00">_error::create</text>
</a>
</g>
</g>
<!-- Node2&#45;&gt;Node3 -->
<g id="edge2" class="edge">
<title>Node2&#45;&gt;Node3</title>
<path fill="none" stroke="#63b8ff" d="M224.05,-311.28C263.8,-349.23 367.81,-444.88 468,-505.97 473.1,-509.08 478.59,-512.04 484.14,-514.82"/>
<polygon fill="#63b8ff" stroke="#63b8ff" points="482.27,-517.8 492.8,-518.94 485.27,-511.48 482.27,-517.8"/>
</g>
<!-- Node5 -->
<g id="node5" class="node">
<title>Node5</title>
<g id="a_node5"><a xlink:href="a02039.html#a29b3e0f83a8e5f2307804023109ba2c9" target="_top" xlink:title=" ">
<polygon fill="white" stroke="#666666" points="432,-288.97 302,-288.97 302,-256.97 432,-256.97 432,-288.97"/>
<text xml:space="preserve" text-anchor="start" x="310" y="-275.47" font-family="Helvetica,sans-Serif" font-size="10.00">nlohmann::detail::binary</text>
<text xml:space="preserve" text-anchor="middle" x="367" y="-263.47" font-family="Helvetica,sans-Serif" font-size="10.00">_writer::write_bson_object</text>
</a>
</g>
</g>
<!-- Node2&#45;&gt;Node5 -->
<g id="edge4" class="edge">
<title>Node2&#45;&gt;Node5</title>
<path fill="none" stroke="#63b8ff" d="M266.36,-286.77C274.15,-285.69 282.22,-284.58 290.24,-283.46"/>
<polygon fill="#63b8ff" stroke="#63b8ff" points="290.58,-286.95 300.01,-282.11 289.62,-280.02 290.58,-286.95"/>
</g>
<!-- Node4 -->
<g id="node4" class="node">
<title>Node4</title>
<g id="a_node4"><a xlink:href="a01559.html#abf41a7e9178356314082284e6cfea278" target="_top" xlink:title=" ">
<polygon fill="white" stroke="#666666" points="1702.75,-507.97 1567.5,-507.97 1567.5,-475.97 1702.75,-475.97 1702.75,-507.97"/>
<text xml:space="preserve" text-anchor="start" x="1575.5" y="-494.47" font-family="Helvetica,sans-Serif" font-size="10.00">nlohmann::detail::exception</text>
<text xml:space="preserve" text-anchor="middle" x="1635.12" y="-482.47" font-family="Helvetica,sans-Serif" font-size="10.00">::name</text>
</a>
</g>
</g>
<!-- Node3&#45;&gt;Node4 -->
<g id="edge3" class="edge">
<title>Node3&#45;&gt;Node4</title>
<path fill="none" stroke="#63b8ff" d="M593.57,-535.97C666.94,-535.97 800.3,-535.97 914.25,-535.97 914.25,-535.97 914.25,-535.97 1308.25,-535.97 1393.52,-535.97 1490.22,-520.99 1555.98,-508.51"/>
<polygon fill="#63b8ff" stroke="#63b8ff" points="1556.43,-511.99 1565.59,-506.66 1555.11,-505.11 1556.43,-511.99"/>
</g>
<!-- Node6 -->
<g id="node6" class="node">
<title>Node6</title>
<g id="a_node6"><a xlink:href="a02039.html#acc6f1cc1fd370ee84ebc8cf7b8712840" target="_top" xlink:title="Calculates the size of the BSON serialization of the given JSON&#45;object j.">
<polygon fill="white" stroke="#666666" points="1382.38,-507.97 1232.12,-507.97 1232.12,-475.97 1382.38,-475.97 1382.38,-507.97"/>
<text xml:space="preserve" text-anchor="start" x="1240.12" y="-494.47" font-family="Helvetica,sans-Serif" font-size="10.00">nlohmann::detail::binary</text>
<text xml:space="preserve" text-anchor="middle" x="1307.25" y="-482.47" font-family="Helvetica,sans-Serif" font-size="10.00">_writer::calc_bson_object_size</text>
</a>
</g>
</g>
<!-- Node5&#45;&gt;Node6 -->
<g id="edge5" class="edge">
<title>Node5&#45;&gt;Node6</title>
<path fill="none" stroke="#63b8ff" d="M381.47,-289.43C424.77,-340.36 566.53,-491.97 719.75,-491.97 719.75,-491.97 719.75,-491.97 916.25,-491.97 1020.96,-491.97 1141.48,-491.97 1220.5,-491.97"/>
<polygon fill="#63b8ff" stroke="#63b8ff" points="1220.33,-495.47 1230.33,-491.97 1220.33,-488.47 1220.33,-495.47"/>
</g>
<!-- Node7 -->
<g id="node7" class="node">
<title>Node7</title>
<g id="a_node7"><a xlink:href="a02039.html#ab77aa48692bd4e64e4f051ce6aeb6d2d" target="_top" xlink:title=" ">
<polygon fill="white" stroke="#666666" points="1170.25,-285.97 1050.75,-285.97 1050.75,-253.97 1170.25,-253.97 1170.25,-285.97"/>
<text xml:space="preserve" text-anchor="start" x="1058.75" y="-272.47" font-family="Helvetica,sans-Serif" font-size="10.00">nlohmann::detail::binary</text>
<text xml:space="preserve" text-anchor="middle" x="1110.5" y="-260.47" font-family="Helvetica,sans-Serif" font-size="10.00">_writer::to_char_type</text>
</a>
</g>
</g>
<!-- Node5&#45;&gt;Node7 -->
<g id="edge6" class="edge">
<title>Node5&#45;&gt;Node7</title>
<path fill="none" stroke="#63b8ff" d="M372.73,-256.69C383.71,-221.59 414.21,-138.17 468,-90.97 530.49,-36.14 560.55,-38.34 642.25,-22.97 797.97,6.34 868.87,22.62 995.25,-72.97 1053.45,-116.99 1087.12,-199.94 1101.37,-242.8"/>
<polygon fill="#63b8ff" stroke="#63b8ff" points="1097.96,-243.62 1104.35,-252.07 1104.63,-241.48 1097.96,-243.62"/>
</g>
<!-- Node8 -->
<g id="node8" class="node">
<title>Node8</title>
<g id="a_node8"><a xlink:href="a02039.html#a7ff58bf1a80018148bed860667ffca07" target="_top" xlink:title="Serializes the JSON value j to BSON and associates it with the key name.">
<polygon fill="white" stroke="#666666" points="606.25,-288.97 468,-288.97 468,-256.97 606.25,-256.97 606.25,-288.97"/>
<text xml:space="preserve" text-anchor="start" x="476" y="-275.47" font-family="Helvetica,sans-Serif" font-size="10.00">nlohmann::detail::binary</text>
<text xml:space="preserve" text-anchor="middle" x="537.12" y="-263.47" font-family="Helvetica,sans-Serif" font-size="10.00">_writer::write_bson_element</text>
</a>
</g>
</g>
<!-- Node5&#45;&gt;Node8 -->
<g id="edge7" class="edge">
<title>Node5&#45;&gt;Node8</title>
<path fill="none" stroke="#63b8ff" d="M432.04,-272.97C439.92,-272.97 448.06,-272.97 456.14,-272.97"/>
<polygon fill="#63b8ff" stroke="#63b8ff" points="455.99,-276.47 465.99,-272.97 455.99,-269.47 455.99,-276.47"/>
</g>
<!-- Node9 -->
<g id="node9" class="node">
<title>Node9</title>
<g id="a_node9"><a xlink:href="a02039.html#a025212bd170253638b9f05b3b6aa5bf9" target="_top" xlink:title="Writes a BSON element with key name and array value.">
<polygon fill="white" stroke="#666666" points="783.5,-413.97 658,-413.97 658,-381.97 783.5,-381.97 783.5,-413.97"/>
<text xml:space="preserve" text-anchor="start" x="666" y="-400.47" font-family="Helvetica,sans-Serif" font-size="10.00">nlohmann::detail::binary</text>
<text xml:space="preserve" text-anchor="middle" x="720.75" y="-388.47" font-family="Helvetica,sans-Serif" font-size="10.00">_writer::write_bson_array</text>
</a>
</g>
</g>
<!-- Node8&#45;&gt;Node9 -->
<g id="edge8" class="edge">
<title>Node8&#45;&gt;Node9</title>
<path fill="none" stroke="#63b8ff" d="M556.55,-289.13C575.76,-309.48 607.83,-343.4 642.25,-363.97 651.62,-369.56 662.38,-374.06 672.85,-377.85"/>
<polygon fill="#63b8ff" stroke="#63b8ff" points="671.55,-381.11 682.15,-381.08 673.85,-374.49 671.55,-381.11"/>
</g>
<!-- Node19 -->
<g id="node19" class="node">
<title>Node19</title>
<g id="a_node19"><a xlink:href="a02039.html#a97d34d9a70ddc06ae782c55454df42bc" target="_top" xlink:title="Writes a BSON element with key name and binary value value.">
<polygon fill="white" stroke="#666666" points="785.75,-113.97 655.75,-113.97 655.75,-81.97 785.75,-81.97 785.75,-113.97"/>
<text xml:space="preserve" text-anchor="start" x="663.75" y="-100.47" font-family="Helvetica,sans-Serif" font-size="10.00">nlohmann::detail::binary</text>
<text xml:space="preserve" text-anchor="middle" x="720.75" y="-88.47" font-family="Helvetica,sans-Serif" font-size="10.00">_writer::write_bson_binary</text>
</a>
</g>
</g>
<!-- Node8&#45;&gt;Node19 -->
<g id="edge24" class="edge">
<title>Node8&#45;&gt;Node19</title>
<path fill="none" stroke="#63b8ff" d="M545.01,-256.8C558.88,-226.16 593.1,-159.41 642.25,-122.97 643.77,-121.84 645.35,-120.76 646.97,-119.73"/>
<polygon fill="#63b8ff" stroke="#63b8ff" points="648.3,-122.99 655.32,-115.06 644.89,-116.88 648.3,-122.99"/>
</g>
<!-- Node21 -->
<g id="node21" class="node">
<title>Node21</title>
<g id="a_node21"><a xlink:href="a02039.html#ae099435e1df3096e0fc78333282f8f67" target="_top" xlink:title="Writes a BSON element with key name and boolean value value.">
<polygon fill="white" stroke="#666666" points="789.5,-363.97 652,-363.97 652,-331.97 789.5,-331.97 789.5,-363.97"/>
<text xml:space="preserve" text-anchor="start" x="660" y="-350.47" font-family="Helvetica,sans-Serif" font-size="10.00">nlohmann::detail::binary</text>
<text xml:space="preserve" text-anchor="middle" x="720.75" y="-338.47" font-family="Helvetica,sans-Serif" font-size="10.00">_writer::write_bson_boolean</text>
</a>
</g>
</g>
<!-- Node8&#45;&gt;Node21 -->
<g id="edge27" class="edge">
<title>Node8&#45;&gt;Node21</title>
<path fill="none" stroke="#63b8ff" d="M569.53,-289.42C589.93,-299.77 617.29,-313 642.25,-322.97 646.34,-324.6 650.59,-326.21 654.89,-327.77"/>
<polygon fill="#63b8ff" stroke="#63b8ff" points="653.61,-331.03 664.2,-331.05 655.93,-324.43 653.61,-331.03"/>
</g>
<!-- Node22 -->
<g id="node22" class="node">
<title>Node22</title>
<g id="a_node22"><a xlink:href="a02039.html#a263ec18815467bb9919021ef126919ca" target="_top" xlink:title="Writes a BSON element with key name and double value value.">
<polygon fill="white" stroke="#666666" points="786.88,-313.97 654.62,-313.97 654.62,-281.97 786.88,-281.97 786.88,-313.97"/>
<text xml:space="preserve" text-anchor="start" x="662.62" y="-300.47" font-family="Helvetica,sans-Serif" font-size="10.00">nlohmann::detail::binary</text>
<text xml:space="preserve" text-anchor="middle" x="720.75" y="-288.47" font-family="Helvetica,sans-Serif" font-size="10.00">_writer::write_bson_double</text>
</a>
</g>
</g>
<!-- Node8&#45;&gt;Node22 -->
<g id="edge30" class="edge">
<title>Node8&#45;&gt;Node22</title>
<path fill="none" stroke="#63b8ff" d="M606.53,-282.38C618.54,-284.03 631.11,-285.76 643.32,-287.45"/>
<polygon fill="#63b8ff" stroke="#63b8ff" points="642.53,-290.87 652.91,-288.77 643.48,-283.93 642.53,-290.87"/>
</g>
<!-- Node23 -->
<g id="node23" class="node">
<title>Node23</title>
<g id="a_node23"><a xlink:href="a02039.html#a553ad4dbdf27238eef90867e4bf2f3e5" target="_top" xlink:title="Writes a BSON element with key name and integer value.">
<polygon fill="white" stroke="#666666" points="787.25,-163.97 654.25,-163.97 654.25,-131.97 787.25,-131.97 787.25,-163.97"/>
<text xml:space="preserve" text-anchor="start" x="662.25" y="-150.47" font-family="Helvetica,sans-Serif" font-size="10.00">nlohmann::detail::binary</text>
<text xml:space="preserve" text-anchor="middle" x="720.75" y="-138.47" font-family="Helvetica,sans-Serif" font-size="10.00">_writer::write_bson_integer</text>
</a>
</g>
</g>
<!-- Node8&#45;&gt;Node23 -->
<g id="edge32" class="edge">
<title>Node8&#45;&gt;Node23</title>
<path fill="none" stroke="#63b8ff" d="M550.87,-256.78C568.97,-234.81 604.17,-195.72 642.25,-172.97 644.42,-171.67 646.66,-170.43 648.96,-169.25"/>
<polygon fill="#63b8ff" stroke="#63b8ff" points="650.35,-172.47 657.94,-165.08 647.4,-166.12 650.35,-172.47"/>
</g>
<!-- Node24 -->
<g id="node24" class="node">
<title>Node24</title>
<g id="a_node24"><a xlink:href="a02039.html#a9927c1110b18661e0224a76156e5a7a9" target="_top" xlink:title="Writes a BSON element with key name and null value.">
<polygon fill="white" stroke="#666666" points="780.5,-263.97 661,-263.97 661,-231.97 780.5,-231.97 780.5,-263.97"/>
<text xml:space="preserve" text-anchor="start" x="669" y="-250.47" font-family="Helvetica,sans-Serif" font-size="10.00">nlohmann::detail::binary</text>
<text xml:space="preserve" text-anchor="middle" x="720.75" y="-238.47" font-family="Helvetica,sans-Serif" font-size="10.00">_writer::write_bson_null</text>
</a>
</g>
</g>
<!-- Node8&#45;&gt;Node24 -->
<g id="edge34" class="edge">
<title>Node8&#45;&gt;Node24</title>
<path fill="none" stroke="#63b8ff" d="M606.53,-263.55C620.58,-261.62 635.38,-259.58 649.49,-257.64"/>
<polygon fill="#63b8ff" stroke="#63b8ff" points="649.7,-261.14 659.13,-256.31 648.74,-254.21 649.7,-261.14"/>
</g>
<!-- Node25 -->
<g id="node25" class="node">
<title>Node25</title>
<g id="a_node25"><a xlink:href="a02039.html#a6231302930265eccb3f56c378f7b0661" target="_top" xlink:title="Writes a BSON element with key name and object value.">
<polygon fill="white" stroke="#666666" points="799.25,-63.97 642.25,-63.97 642.25,-31.97 799.25,-31.97 799.25,-63.97"/>
<text xml:space="preserve" text-anchor="start" x="650.25" y="-50.47" font-family="Helvetica,sans-Serif" font-size="10.00">nlohmann::detail::binary</text>
<text xml:space="preserve" text-anchor="middle" x="720.75" y="-38.47" font-family="Helvetica,sans-Serif" font-size="10.00">_writer::write_bson_object_entry</text>
</a>
</g>
</g>
<!-- Node8&#45;&gt;Node25 -->
<g id="edge36" class="edge">
<title>Node8&#45;&gt;Node25</title>
<path fill="none" stroke="#63b8ff" d="M546.46,-256.75C570.82,-209.42 640.28,-74.63 642.25,-72.97 643.34,-72.04 644.47,-71.15 645.63,-70.3"/>
<polygon fill="#63b8ff" stroke="#63b8ff" points="647.17,-73.46 653.75,-65.15 643.43,-67.55 647.17,-73.46"/>
</g>
<!-- Node26 -->
<g id="node26" class="node">
<title>Node26</title>
<g id="a_node26"><a xlink:href="a02039.html#a5e6574416915208fc035b57338ae3252" target="_top" xlink:title="Writes a BSON element with key name and string value value.">
<polygon fill="white" stroke="#666666" points="784.62,-213.97 656.88,-213.97 656.88,-181.97 784.62,-181.97 784.62,-213.97"/>
<text xml:space="preserve" text-anchor="start" x="664.88" y="-200.47" font-family="Helvetica,sans-Serif" font-size="10.00">nlohmann::detail::binary</text>
<text xml:space="preserve" text-anchor="middle" x="720.75" y="-188.47" font-family="Helvetica,sans-Serif" font-size="10.00">_writer::write_bson_string</text>
</a>
</g>
</g>
<!-- Node8&#45;&gt;Node26 -->
<g id="edge39" class="edge">
<title>Node8&#45;&gt;Node26</title>
<path fill="none" stroke="#63b8ff" d="M569.53,-256.51C589.93,-246.16 617.29,-232.93 642.25,-222.97 646.34,-221.33 650.59,-219.72 654.89,-218.16"/>
<polygon fill="#63b8ff" stroke="#63b8ff" points="655.93,-221.51 664.2,-214.89 653.61,-214.9 655.93,-221.51"/>
</g>
<!-- Node27 -->
<g id="node27" class="node">
<title>Node27</title>
<g id="a_node27"><a xlink:href="a02039.html#a5e295ed1be6af6260d2a65f7397c3742" target="_top" xlink:title="Writes a BSON element with key name and unsigned value.">
<polygon fill="white" stroke="#666666" points="792.12,-463.97 649.38,-463.97 649.38,-431.97 792.12,-431.97 792.12,-463.97"/>
<text xml:space="preserve" text-anchor="start" x="657.38" y="-450.47" font-family="Helvetica,sans-Serif" font-size="10.00">nlohmann::detail::binary</text>
<text xml:space="preserve" text-anchor="middle" x="720.75" y="-438.47" font-family="Helvetica,sans-Serif" font-size="10.00">_writer::write_bson_unsigned</text>
</a>
</g>
</g>
<!-- Node8&#45;&gt;Node27 -->
<g id="edge41" class="edge">
<title>Node8&#45;&gt;Node27</title>
<path fill="none" stroke="#63b8ff" d="M545.01,-289.13C558.88,-319.77 593.1,-386.52 642.25,-422.97 643.77,-424.09 645.35,-425.17 646.97,-426.21"/>
<polygon fill="#63b8ff" stroke="#63b8ff" points="644.89,-429.05 655.32,-430.87 648.3,-422.94 644.89,-429.05"/>
</g>
<!-- Node9&#45;&gt;Node7 -->
<g id="edge20" class="edge">
<title>Node9&#45;&gt;Node7</title>
<path fill="none" stroke="#63b8ff" d="M778.76,-381.58C785.78,-378.98 792.76,-376.1 799.25,-372.97 816.57,-364.6 817.51,-356.38 835.25,-348.97 902.25,-320.98 925.74,-336.94 995.25,-315.97 1018.09,-309.07 1042.71,-299.45 1063.24,-290.79"/>
<polygon fill="#63b8ff" stroke="#63b8ff" points="1064.36,-294.12 1072.17,-286.96 1061.6,-287.68 1064.36,-294.12"/>
</g>
<!-- Node9&#45;&gt;Node8 -->
<g id="edge21" class="edge">
<title>Node9&#45;&gt;Node8</title>
<path fill="none" stroke="#63b8ff" d="M657.7,-389.77C652.33,-387.47 647.1,-384.87 642.25,-381.97 605.78,-360.17 571.96,-323.4 553.26,-298.43"/>
<polygon fill="#63b8ff" stroke="#63b8ff" points="556.19,-296.5 547.53,-290.4 550.49,-300.57 556.19,-296.5"/>
</g>
<!-- Node10 -->
<g id="node10" class="node">
<title>Node10</title>
<g id="a_node10"><a xlink:href="a02039.html#af08f9302a02516ff8cf358a99aaa1ddf" target="_top" xlink:title=" ">
<polygon fill="white" stroke="#666666" points="988.12,-389.97 842.38,-389.97 842.38,-357.97 988.12,-357.97 988.12,-389.97"/>
<text xml:space="preserve" text-anchor="start" x="850.38" y="-376.47" font-family="Helvetica,sans-Serif" font-size="10.00">nlohmann::detail::binary</text>
<text xml:space="preserve" text-anchor="middle" x="915.25" y="-364.47" font-family="Helvetica,sans-Serif" font-size="10.00">_writer::calc_bson_array_size</text>
</a>
</g>
</g>
<!-- Node9&#45;&gt;Node10 -->
<g id="edge9" class="edge">
<title>Node9&#45;&gt;Node10</title>
<path fill="none" stroke="#63b8ff" d="M783.98,-390.21C798.92,-388.34 815.11,-386.33 830.84,-384.36"/>
<polygon fill="#63b8ff" stroke="#63b8ff" points="831.19,-387.85 840.68,-383.14 830.33,-380.9 831.19,-387.85"/>
</g>
<!-- Node18 -->
<g id="node18" class="node">
<title>Node18</title>
<g id="a_node18"><a xlink:href="a02039.html#a1b5b7f5c03b1f8b1f59ea61db9634108" target="_top" xlink:title="Writes the given element_type and name to the output adapter.">
<polygon fill="white" stroke="#666666" points="995.25,-263.97 835.25,-263.97 835.25,-231.97 995.25,-231.97 995.25,-263.97"/>
<text xml:space="preserve" text-anchor="start" x="843.25" y="-250.47" font-family="Helvetica,sans-Serif" font-size="10.00">nlohmann::detail::binary</text>
<text xml:space="preserve" text-anchor="middle" x="915.25" y="-238.47" font-family="Helvetica,sans-Serif" font-size="10.00">_writer::write_bson_entry_header</text>
</a>
</g>
</g>
<!-- Node9&#45;&gt;Node18 -->
<g id="edge22" class="edge">
<title>Node9&#45;&gt;Node18</title>
<path fill="none" stroke="#63b8ff" d="M783.84,-382.39C789.32,-379.72 794.56,-376.61 799.25,-372.97 822.92,-354.6 815.68,-338.66 835.25,-315.97 849.48,-299.47 867.79,-283.45 883.2,-271.11"/>
<polygon fill="#63b8ff" stroke="#63b8ff" points="884.99,-274.15 890.7,-265.23 880.67,-268.65 884.99,-274.15"/>
</g>
<!-- Node11 -->
<g id="node11" class="node">
<title>Node11</title>
<g id="a_node11"><a xlink:href="a02039.html#a1e4372c5984184eb5bcc09af1fcc2ee0" target="_top" xlink:title="Calculates the size necessary to serialize the JSON value j with its name.">
<polygon fill="white" stroke="#666666" points="1189.75,-376.97 1031.25,-376.97 1031.25,-344.97 1189.75,-344.97 1189.75,-376.97"/>
<text xml:space="preserve" text-anchor="start" x="1039.25" y="-363.47" font-family="Helvetica,sans-Serif" font-size="10.00">nlohmann::detail::binary</text>
<text xml:space="preserve" text-anchor="middle" x="1110.5" y="-351.47" font-family="Helvetica,sans-Serif" font-size="10.00">_writer::calc_bson_element_size</text>
</a>
</g>
</g>
<!-- Node10&#45;&gt;Node11 -->
<g id="edge10" class="edge">
<title>Node10&#45;&gt;Node11</title>
<path fill="none" stroke="#63b8ff" d="M988.48,-362.55C998.64,-361.7 1009.18,-360.93 1019.62,-360.28"/>
<polygon fill="#63b8ff" stroke="#63b8ff" points="1019.59,-363.78 1029.36,-359.7 1019.18,-356.8 1019.59,-363.78"/>
</g>
<!-- Node11&#45;&gt;Node6 -->
<g id="edge17" class="edge">
<title>Node11&#45;&gt;Node6</title>
<path fill="none" stroke="#63b8ff" d="M1135.77,-377.29C1170.27,-400.5 1233.61,-443.11 1272.62,-469.34"/>
<polygon fill="#63b8ff" stroke="#63b8ff" points="1270.47,-472.12 1280.72,-474.8 1274.38,-466.31 1270.47,-472.12"/>
</g>
<!-- Node11&#45;&gt;Node10 -->
<g id="edge11" class="edge">
<title>Node11&#45;&gt;Node10</title>
<path fill="none" stroke="#63b8ff" d="M1030.88,-372.9C1020.69,-373.71 1010.23,-374.43 999.96,-375.03"/>
<polygon fill="#63b8ff" stroke="#63b8ff" points="999.79,-371.53 990,-375.58 1000.17,-378.52 999.79,-371.53"/>
</g>
<!-- Node12 -->
<g id="node12" class="node">
<title>Node12</title>
<g id="a_node12"><a xlink:href="a02039.html#a9dd6062fd249a695e0f93d558dba4685" target="_top" xlink:title=" ">
<polygon fill="white" stroke="#666666" points="1382.38,-307.97 1232.12,-307.97 1232.12,-275.97 1382.38,-275.97 1382.38,-307.97"/>
<text xml:space="preserve" text-anchor="start" x="1240.12" y="-294.47" font-family="Helvetica,sans-Serif" font-size="10.00">nlohmann::detail::binary</text>
<text xml:space="preserve" text-anchor="middle" x="1307.25" y="-282.47" font-family="Helvetica,sans-Serif" font-size="10.00">_writer::calc_bson_binary_size</text>
</a>
</g>
</g>
<!-- Node11&#45;&gt;Node12 -->
<g id="edge12" class="edge">
<title>Node11&#45;&gt;Node12</title>
<path fill="none" stroke="#63b8ff" d="M1152.24,-344.52C1173.94,-335.95 1201.15,-325.51 1225.75,-316.97 1230.67,-315.25 1235.79,-313.54 1240.94,-311.84"/>
<polygon fill="#63b8ff" stroke="#63b8ff" points="1241.65,-315.29 1250.09,-308.89 1239.5,-308.63 1241.65,-315.29"/>
</g>
<!-- Node13 -->
<g id="node13" class="node">
<title>Node13</title>
<g id="a_node13"><a xlink:href="a02039.html#a5bae2f1db2c511b869dffaddf15a1653" target="_top" xlink:title=" ">
<polygon fill="white" stroke="#666666" points="1368.5,-369.97 1246,-369.97 1246,-325.97 1368.5,-325.97 1368.5,-369.97"/>
<text xml:space="preserve" text-anchor="start" x="1254" y="-356.47" font-family="Helvetica,sans-Serif" font-size="10.00">nlohmann::detail::binary</text>
<text xml:space="preserve" text-anchor="start" x="1254" y="-344.47" font-family="Helvetica,sans-Serif" font-size="10.00">_writer::calc_bson_entry</text>
<text xml:space="preserve" text-anchor="middle" x="1307.25" y="-332.47" font-family="Helvetica,sans-Serif" font-size="10.00">_header_size</text>
</a>
</g>
</g>
<!-- Node11&#45;&gt;Node13 -->
<g id="edge13" class="edge">
<title>Node11&#45;&gt;Node13</title>
<path fill="none" stroke="#63b8ff" d="M1190.15,-355.72C1204.73,-354.74 1219.89,-353.73 1234.25,-352.77"/>
<polygon fill="#63b8ff" stroke="#63b8ff" points="1234.33,-356.27 1244.07,-352.12 1233.86,-349.29 1234.33,-356.27"/>
</g>
<!-- Node15 -->
<g id="node15" class="node">
<title>Node15</title>
<g id="a_node15"><a xlink:href="a02039.html#aeab70c895931b96ea598306b37eca271" target="_top" xlink:title=" ">
<polygon fill="white" stroke="#666666" points="1383.88,-257.97 1230.62,-257.97 1230.62,-225.97 1383.88,-225.97 1383.88,-257.97"/>
<text xml:space="preserve" text-anchor="start" x="1238.62" y="-244.47" font-family="Helvetica,sans-Serif" font-size="10.00">nlohmann::detail::binary</text>
<text xml:space="preserve" text-anchor="middle" x="1307.25" y="-232.47" font-family="Helvetica,sans-Serif" font-size="10.00">_writer::calc_bson_integer_size</text>
</a>
</g>
</g>
<!-- Node11&#45;&gt;Node15 -->
<g id="edge16" class="edge">
<title>Node11&#45;&gt;Node15</title>
<path fill="none" stroke="#63b8ff" d="M1131.02,-344.57C1162.25,-318.4 1220.48,-269.81 1225.75,-266.97 1228.43,-265.52 1231.22,-264.14 1234.06,-262.83"/>
<polygon fill="#63b8ff" stroke="#63b8ff" points="1235.33,-266.09 1243.18,-258.97 1232.61,-259.64 1235.33,-266.09"/>
</g>
<!-- Node16 -->
<g id="node16" class="node">
<title>Node16</title>
<g id="a_node16"><a xlink:href="a02039.html#aea44fd97a5cb9b4f175e66e3e4fdf158" target="_top" xlink:title=" ">
<polygon fill="white" stroke="#666666" points="1381.25,-207.97 1233.25,-207.97 1233.25,-175.97 1381.25,-175.97 1381.25,-207.97"/>
<text xml:space="preserve" text-anchor="start" x="1241.25" y="-194.47" font-family="Helvetica,sans-Serif" font-size="10.00">nlohmann::detail::binary</text>
<text xml:space="preserve" text-anchor="middle" x="1307.25" y="-182.47" font-family="Helvetica,sans-Serif" font-size="10.00">_writer::calc_bson_string_size</text>
</a>
</g>
</g>
<!-- Node11&#45;&gt;Node16 -->
<g id="edge18" class="edge">
<title>Node11&#45;&gt;Node16</title>
<path fill="none" stroke="#63b8ff" d="M1136.21,-344.52C1152.99,-332.38 1174.78,-314.61 1189.75,-294.97 1212.89,-264.6 1197.04,-242.13 1225.75,-216.97 1226.69,-216.15 1227.65,-215.35 1228.63,-214.59"/>
<polygon fill="#63b8ff" stroke="#63b8ff" points="1230.39,-217.62 1236.81,-209.19 1226.54,-211.78 1230.39,-217.62"/>
</g>
<!-- Node17 -->
<g id="node17" class="node">
<title>Node17</title>
<g id="a_node17"><a xlink:href="a02039.html#aa1d6bb9f3af16f07ce2440c354b5787b" target="_top" xlink:title=" ">
<polygon fill="white" stroke="#666666" points="1388.75,-419.97 1225.75,-419.97 1225.75,-387.97 1388.75,-387.97 1388.75,-419.97"/>
<text xml:space="preserve" text-anchor="start" x="1233.75" y="-406.47" font-family="Helvetica,sans-Serif" font-size="10.00">nlohmann::detail::binary</text>
<text xml:space="preserve" text-anchor="middle" x="1307.25" y="-394.47" font-family="Helvetica,sans-Serif" font-size="10.00">_writer::calc_bson_unsigned_size</text>
</a>
</g>
</g>
<!-- Node11&#45;&gt;Node17 -->
<g id="edge19" class="edge">
<title>Node11&#45;&gt;Node17</title>
<path fill="none" stroke="#63b8ff" d="M1185.96,-377.41C1197.35,-379.92 1209.19,-382.53 1220.8,-385.1"/>
<polygon fill="#63b8ff" stroke="#63b8ff" points="1219.83,-388.47 1230.35,-387.21 1221.34,-381.63 1219.83,-388.47"/>
</g>
<!-- Node14 -->
<g id="node14" class="node">
<title>Node14</title>
<g id="a_node14"><a xlink:href="a01575.html#a3f6d82a6f967c4728a1ec735a7867073" target="_top" xlink:title=" ">
<polygon fill="white" stroke="#666666" points="1531.5,-463.97 1424.75,-463.97 1424.75,-431.97 1531.5,-431.97 1531.5,-463.97"/>
<text xml:space="preserve" text-anchor="start" x="1432.75" y="-450.47" font-family="Helvetica,sans-Serif" font-size="10.00">nlohmann::detail::out</text>
<text xml:space="preserve" text-anchor="middle" x="1478.12" y="-438.47" font-family="Helvetica,sans-Serif" font-size="10.00">_of_range::create</text>
</a>
</g>
</g>
<!-- Node13&#45;&gt;Node14 -->
<g id="edge14" class="edge">
<title>Node13&#45;&gt;Node14</title>
<path fill="none" stroke="#63b8ff" d="M1368.93,-369.09C1375.76,-372.12 1382.49,-375.42 1388.75,-378.97 1411.4,-391.79 1434.49,-410.04 1451.39,-424.55"/>
<polygon fill="#63b8ff" stroke="#63b8ff" points="1448.66,-426.81 1458.49,-430.75 1453.26,-421.53 1448.66,-426.81"/>
</g>
<!-- Node14&#45;&gt;Node4 -->
<g id="edge15" class="edge">
<title>Node14&#45;&gt;Node4</title>
<path fill="none" stroke="#63b8ff" d="M1531.6,-462.86C1542.45,-465.94 1554.03,-469.23 1565.36,-472.45"/>
<polygon fill="#63b8ff" stroke="#63b8ff" points="1564.08,-475.72 1574.66,-475.08 1565.99,-468.99 1564.08,-475.72"/>
</g>
<!-- Node18&#45;&gt;Node7 -->
<g id="edge23" class="edge">
<title>Node18&#45;&gt;Node7</title>
<path fill="none" stroke="#63b8ff" d="M995.69,-257.01C1010.15,-258.65 1025.13,-260.36 1039.3,-261.97"/>
<polygon fill="#63b8ff" stroke="#63b8ff" points="1038.62,-265.42 1048.96,-263.07 1039.42,-258.46 1038.62,-265.42"/>
</g>
<!-- Node19&#45;&gt;Node18 -->
<g id="edge25" class="edge">
<title>Node19&#45;&gt;Node18</title>
<path fill="none" stroke="#63b8ff" d="M783.19,-114.46C788.8,-116.94 794.25,-119.76 799.25,-122.97 840.57,-149.42 876.76,-194.29 897.03,-222.46"/>
<polygon fill="#63b8ff" stroke="#63b8ff" points="894.03,-224.28 902.65,-230.44 899.75,-220.24 894.03,-224.28"/>
</g>
<!-- Node20 -->
<g id="node20" class="node">
<title>Node20</title>
<g id="a_node20"><a xlink:href="a02039.html#a6e11b7227fcecc25a548ed45507b7d1c" target="_top" xlink:title=" ">
<polygon fill="white" stroke="#666666" points="975,-113.97 855.5,-113.97 855.5,-81.97 975,-81.97 975,-113.97"/>
<text xml:space="preserve" text-anchor="start" x="863.5" y="-100.47" font-family="Helvetica,sans-Serif" font-size="10.00">nlohmann::detail::binary</text>
<text xml:space="preserve" text-anchor="middle" x="915.25" y="-88.47" font-family="Helvetica,sans-Serif" font-size="10.00">_writer::write_number</text>
</a>
</g>
</g>
<!-- Node19&#45;&gt;Node20 -->
<g id="edge26" class="edge">
<title>Node19&#45;&gt;Node20</title>
<path fill="none" stroke="#63b8ff" d="M786.12,-97.97C804.58,-97.97 824.81,-97.97 843.63,-97.97"/>
<polygon fill="#63b8ff" stroke="#63b8ff" points="843.62,-101.47 853.62,-97.97 843.62,-94.47 843.62,-101.47"/>
</g>
<!-- Node21&#45;&gt;Node7 -->
<g id="edge28" class="edge">
<title>Node21&#45;&gt;Node7</title>
<path fill="none" stroke="#63b8ff" d="M775.43,-331.54C794.23,-326.13 815.57,-320.38 835.25,-315.97 904,-300.56 983.5,-287.77 1039.14,-279.62"/>
<polygon fill="#63b8ff" stroke="#63b8ff" points="1039.4,-283.12 1048.79,-278.22 1038.4,-276.19 1039.4,-283.12"/>
</g>
<!-- Node21&#45;&gt;Node18 -->
<g id="edge29" class="edge">
<title>Node21&#45;&gt;Node18</title>
<path fill="none" stroke="#63b8ff" d="M784.22,-331.47C789.5,-329 794.6,-326.18 799.25,-322.97 820.33,-308.42 814.55,-293.04 835.25,-277.97 839.62,-274.79 844.36,-271.9 849.28,-269.29"/>
<polygon fill="#63b8ff" stroke="#63b8ff" points="850.73,-272.48 858.21,-264.97 847.69,-266.17 850.73,-272.48"/>
</g>
<!-- Node22&#45;&gt;Node18 -->
<g id="edge31" class="edge">
<title>Node22&#45;&gt;Node18</title>
<path fill="none" stroke="#63b8ff" d="M785.05,-281.52C802.56,-276.98 821.73,-272 839.82,-267.3"/>
<polygon fill="#63b8ff" stroke="#63b8ff" points="840.65,-270.7 849.45,-264.8 838.89,-263.92 840.65,-270.7"/>
</g>
<!-- Node23&#45;&gt;Node18 -->
<g id="edge33" class="edge">
<title>Node23&#45;&gt;Node18</title>
<path fill="none" stroke="#63b8ff" d="M778.73,-164.41C785.75,-167 792.74,-169.86 799.25,-172.97 829.56,-187.42 861.34,-208.68 883.79,-224.87"/>
<polygon fill="#63b8ff" stroke="#63b8ff" points="881.44,-227.5 891.58,-230.58 885.58,-221.85 881.44,-227.5"/>
</g>
<!-- Node24&#45;&gt;Node18 -->
<g id="edge35" class="edge">
<title>Node24&#45;&gt;Node18</title>
<path fill="none" stroke="#63b8ff" d="M780.81,-247.97C794.47,-247.97 809.3,-247.97 823.94,-247.97"/>
<polygon fill="#63b8ff" stroke="#63b8ff" points="823.57,-251.47 833.57,-247.97 823.57,-244.47 823.57,-251.47"/>
</g>
<!-- Node25&#45;&gt;Node5 -->
<g id="edge38" class="edge">
<title>Node25&#45;&gt;Node5</title>
<path fill="none" stroke="#63b8ff" d="M661.79,-64.4C655.07,-66.97 648.42,-69.82 642.25,-72.97 543.3,-123.36 441.43,-207.93 394.55,-249.06"/>
<polygon fill="#63b8ff" stroke="#63b8ff" points="392.23,-246.43 387.06,-255.68 396.87,-251.68 392.23,-246.43"/>
</g>
<!-- Node25&#45;&gt;Node18 -->
<g id="edge37" class="edge">
<title>Node25&#45;&gt;Node18</title>
<path fill="none" stroke="#63b8ff" d="M785.34,-64.4C790.26,-66.87 794.98,-69.71 799.25,-72.97 806.21,-78.26 867.65,-174.43 897.76,-221.9"/>
<polygon fill="#63b8ff" stroke="#63b8ff" points="894.73,-223.65 903.04,-230.23 900.65,-219.91 894.73,-223.65"/>
</g>
<!-- Node26&#45;&gt;Node18 -->
<g id="edge40" class="edge">
<title>Node26&#45;&gt;Node18</title>
<path fill="none" stroke="#63b8ff" d="M785.05,-214.41C802.56,-218.96 821.73,-223.94 839.82,-228.63"/>
<polygon fill="#63b8ff" stroke="#63b8ff" points="838.89,-232.01 849.45,-231.13 840.65,-225.23 838.89,-232.01"/>
</g>
<!-- Node27&#45;&gt;Node14 -->
<g id="edge42" class="edge">
<title>Node27&#45;&gt;Node14</title>
<path fill="none" stroke="#63b8ff" d="M792.47,-447.97C938.73,-447.97 1272.51,-447.97 1412.96,-447.97"/>
<polygon fill="#63b8ff" stroke="#63b8ff" points="1412.82,-451.47 1422.82,-447.97 1412.82,-444.47 1412.82,-451.47"/>
</g>
<!-- Node27&#45;&gt;Node18 -->
<g id="edge43" class="edge">
<title>Node27&#45;&gt;Node18</title>
<path fill="none" stroke="#63b8ff" d="M786.95,-431.49C791.35,-429.03 795.51,-426.21 799.25,-422.97 826.87,-398.99 815.88,-379.99 835.25,-348.97 852.35,-321.58 875.43,-292.81 892.23,-273.01"/>
<polygon fill="#63b8ff" stroke="#63b8ff" points="894.84,-275.34 898.7,-265.47 889.53,-270.78 894.84,-275.34"/>
</g>
</g>
</svg>
