<?xml version="1.0" encoding="UTF-8" standalone="no"?>
<!DOCTYPE svg PUBLIC "-//W3C//DTD SVG 1.1//EN"
 "http://www.w3.org/Graphics/SVG/1.1/DTD/svg11.dtd">
<!-- Generated by graphviz version 13.1.2 (20250808.2320)
 -->
<!-- Title: nlohmann::basic_json::value Pages: 1 -->
<svg width="748pt" height="184pt"
 viewBox="0.00 0.00 748.00 184.00" xmlns="http://www.w3.org/2000/svg" xmlns:xlink="http://www.w3.org/1999/xlink">
<g id="graph0" class="graph" transform="scale(1 1) rotate(0) translate(4 180)">
<title>nlohmann::basic_json::value</title>
<!-- Node1 -->
<g id="node1" class="node">
<title>Node1</title>
<g id="a_node1"><a xlink:title="access specified object element via JSON Pointer with default value">
<polygon fill="#999999" stroke="#666666" points="110.5,-107 0,-107 0,-75 110.5,-75 110.5,-107"/>
<text xml:space="preserve" text-anchor="start" x="8" y="-93.5" font-family="Helvetica,sans-Serif" font-size="10.00">nlohmann::basic_json</text>
<text xml:space="preserve" text-anchor="middle" x="55.25" y="-81.5" font-family="Helvetica,sans-Serif" font-size="10.00">::value</text>
</a>
</g>
</g>
<!-- Node2 -->
<g id="node2" class="node">
<title>Node2</title>
<g id="a_node2"><a xlink:href="a01571.html#aecc083aea4b698c33d042670ba50c10f" target="_top" xlink:title=" ">
<polygon fill="white" stroke="#666666" points="413.25,-176 301.25,-176 301.25,-144 413.25,-144 413.25,-176"/>
<text xml:space="preserve" text-anchor="start" x="309.25" y="-162.5" font-family="Helvetica,sans-Serif" font-size="10.00">nlohmann::detail::type</text>
<text xml:space="preserve" text-anchor="middle" x="357.25" y="-150.5" font-family="Helvetica,sans-Serif" font-size="10.00">_error::create</text>
</a>
</g>
</g>
<!-- Node1&#45;&gt;Node2 -->
<g id="edge1" class="edge">
<title>Node1&#45;&gt;Node2</title>
<path fill="none" stroke="#63b8ff" d="M79.54,-107.47C97.08,-118.96 122.19,-133.53 146.5,-141 192.98,-155.28 247.78,-159.85 289.71,-160.95"/>
<polygon fill="#63b8ff" stroke="#63b8ff" points="289.59,-164.45 299.66,-161.14 289.73,-157.45 289.59,-164.45"/>
</g>
<!-- Node4 -->
<g id="node4" class="node">
<title>Node4</title>
<g id="a_node4"><a xlink:href="a01663.html#ac97f74aff788336b07bc5ecf85598b14" target="_top" xlink:title=" ">
<polygon fill="white" stroke="#666666" points="263,-132 146.5,-132 146.5,-100 263,-100 263,-132"/>
<text xml:space="preserve" text-anchor="start" x="154.5" y="-118.5" font-family="Helvetica,sans-Serif" font-size="10.00">nlohmann::json_pointer</text>
<text xml:space="preserve" text-anchor="middle" x="204.75" y="-106.5" font-family="Helvetica,sans-Serif" font-size="10.00">::get_checked</text>
</a>
</g>
</g>
<!-- Node1&#45;&gt;Node4 -->
<g id="edge3" class="edge">
<title>Node1&#45;&gt;Node4</title>
<path fill="none" stroke="#63b8ff" d="M110.75,-100.24C118.56,-101.56 126.68,-102.94 134.73,-104.3"/>
<polygon fill="#63b8ff" stroke="#63b8ff" points="134.07,-107.74 144.51,-105.96 135.24,-100.84 134.07,-107.74"/>
</g>
<!-- Node9 -->
<g id="node9" class="node">
<title>Node9</title>
<g id="a_node9"><a xlink:href="a01659.html#a57e8411a770a6263d6d8f2116c37f3aa" target="_top" xlink:title="return whether value is an object">
<polygon fill="white" stroke="#666666" points="260,-82 149.5,-82 149.5,-50 260,-50 260,-82"/>
<text xml:space="preserve" text-anchor="start" x="157.5" y="-68.5" font-family="Helvetica,sans-Serif" font-size="10.00">nlohmann::basic_json</text>
<text xml:space="preserve" text-anchor="middle" x="204.75" y="-56.5" font-family="Helvetica,sans-Serif" font-size="10.00">::is_object</text>
</a>
</g>
</g>
<!-- Node1&#45;&gt;Node9 -->
<g id="edge11" class="edge">
<title>Node1&#45;&gt;Node9</title>
<path fill="none" stroke="#63b8ff" d="M110.75,-81.76C119.74,-80.24 129.13,-78.65 138.35,-77.08"/>
<polygon fill="#63b8ff" stroke="#63b8ff" points="138.7,-80.57 147.98,-75.45 137.53,-73.67 138.7,-80.57"/>
</g>
<!-- Node10 -->
<g id="node10" class="node">
<title>Node10</title>
<g id="a_node10"><a xlink:href="a01659.html#ab8811fc4eab6091b32b34b3ac3e90474" target="_top" xlink:title="return the type as string">
<polygon fill="white" stroke="#666666" points="260,-32 149.5,-32 149.5,0 260,0 260,-32"/>
<text xml:space="preserve" text-anchor="start" x="157.5" y="-18.5" font-family="Helvetica,sans-Serif" font-size="10.00">nlohmann::basic_json</text>
<text xml:space="preserve" text-anchor="middle" x="204.75" y="-6.5" font-family="Helvetica,sans-Serif" font-size="10.00">::type_name</text>
</a>
</g>
</g>
<!-- Node1&#45;&gt;Node10 -->
<g id="edge12" class="edge">
<title>Node1&#45;&gt;Node10</title>
<path fill="none" stroke="#63b8ff" d="M84.34,-74.54C101.97,-64.44 125.3,-51.47 146.5,-41 149.05,-39.74 151.68,-38.47 154.35,-37.22"/>
<polygon fill="#63b8ff" stroke="#63b8ff" points="155.72,-40.44 163.34,-33.09 152.8,-34.08 155.72,-40.44"/>
</g>
<!-- Node3 -->
<g id="node3" class="node">
<title>Node3</title>
<g id="a_node3"><a xlink:href="a01559.html#abf41a7e9178356314082284e6cfea278" target="_top" xlink:title=" ">
<polygon fill="white" stroke="#666666" points="740,-132 604.75,-132 604.75,-100 740,-100 740,-132"/>
<text xml:space="preserve" text-anchor="start" x="612.75" y="-118.5" font-family="Helvetica,sans-Serif" font-size="10.00">nlohmann::detail::exception</text>
<text xml:space="preserve" text-anchor="middle" x="672.38" y="-106.5" font-family="Helvetica,sans-Serif" font-size="10.00">::name</text>
</a>
</g>
</g>
<!-- Node2&#45;&gt;Node3 -->
<g id="edge2" class="edge">
<title>Node2&#45;&gt;Node3</title>
<path fill="none" stroke="#63b8ff" d="M413.49,-157.27C456.12,-154.62 516.44,-149.68 568.75,-141 578.71,-139.35 589.14,-137.25 599.37,-134.97"/>
<polygon fill="#63b8ff" stroke="#63b8ff" points="599.92,-138.43 608.89,-132.78 598.36,-131.61 599.92,-138.43"/>
</g>
<!-- Node5 -->
<g id="node5" class="node">
<title>Node5</title>
<g id="a_node5"><a xlink:href="a01663.html#ae28e4b79b9d4fac9e6dca29f47f946fa" target="_top" xlink:title=" ">
<polygon fill="white" stroke="#666666" points="415.5,-88 299,-88 299,-56 415.5,-56 415.5,-88"/>
<text xml:space="preserve" text-anchor="start" x="307" y="-74.5" font-family="Helvetica,sans-Serif" font-size="10.00">nlohmann::json_pointer</text>
<text xml:space="preserve" text-anchor="middle" x="357.25" y="-62.5" font-family="Helvetica,sans-Serif" font-size="10.00">::array_index</text>
</a>
</g>
</g>
<!-- Node4&#45;&gt;Node5 -->
<g id="edge4" class="edge">
<title>Node4&#45;&gt;Node5</title>
<path fill="none" stroke="#63b8ff" d="M261.79,-99.62C270.64,-97.03 279.88,-94.33 288.95,-91.67"/>
<polygon fill="#63b8ff" stroke="#63b8ff" points="289.84,-95.06 298.46,-88.9 287.88,-88.34 289.84,-95.06"/>
</g>
<!-- Node8 -->
<g id="node8" class="node">
<title>Node8</title>
<g id="a_node8"><a xlink:href="a01575.html#a3f6d82a6f967c4728a1ec735a7867073" target="_top" xlink:title=" ">
<polygon fill="white" stroke="#666666" points="563.5,-132 456.75,-132 456.75,-100 563.5,-100 563.5,-132"/>
<text xml:space="preserve" text-anchor="start" x="464.75" y="-118.5" font-family="Helvetica,sans-Serif" font-size="10.00">nlohmann::detail::out</text>
<text xml:space="preserve" text-anchor="middle" x="510.12" y="-106.5" font-family="Helvetica,sans-Serif" font-size="10.00">_of_range::create</text>
</a>
</g>
</g>
<!-- Node4&#45;&gt;Node8 -->
<g id="edge10" class="edge">
<title>Node4&#45;&gt;Node8</title>
<path fill="none" stroke="#63b8ff" d="M263.17,-116C314.94,-116 390.99,-116 444.79,-116"/>
<polygon fill="#63b8ff" stroke="#63b8ff" points="444.74,-119.5 454.74,-116 444.74,-112.5 444.74,-119.5"/>
</g>
<!-- Node6 -->
<g id="node6" class="node">
<title>Node6</title>
<g id="a_node6"><a xlink:href="a01563.html#a137ea4d27de45d8a844fd13451d40f3d" target="_top" xlink:title="create a parse error exception">
<polygon fill="white" stroke="#666666" points="568.75,-82 451.5,-82 451.5,-50 568.75,-50 568.75,-82"/>
<text xml:space="preserve" text-anchor="start" x="459.5" y="-68.5" font-family="Helvetica,sans-Serif" font-size="10.00">nlohmann::detail::parse</text>
<text xml:space="preserve" text-anchor="middle" x="510.12" y="-56.5" font-family="Helvetica,sans-Serif" font-size="10.00">_error::create</text>
</a>
</g>
</g>
<!-- Node5&#45;&gt;Node6 -->
<g id="edge5" class="edge">
<title>Node5&#45;&gt;Node6</title>
<path fill="none" stroke="#63b8ff" d="M415.72,-69.71C423.59,-69.4 431.73,-69.08 439.78,-68.76"/>
<polygon fill="#63b8ff" stroke="#63b8ff" points="439.7,-72.26 449.55,-68.37 439.42,-65.27 439.7,-72.26"/>
</g>
<!-- Node5&#45;&gt;Node8 -->
<g id="edge8" class="edge">
<title>Node5&#45;&gt;Node8</title>
<path fill="none" stroke="#63b8ff" d="M414.43,-88.38C424.52,-91.33 435.1,-94.41 445.39,-97.41"/>
<polygon fill="#63b8ff" stroke="#63b8ff" points="444.36,-100.76 454.94,-100.2 446.32,-94.04 444.36,-100.76"/>
</g>
<!-- Node6&#45;&gt;Node3 -->
<g id="edge6" class="edge">
<title>Node6&#45;&gt;Node3</title>
<path fill="none" stroke="#63b8ff" d="M563.6,-82.37C577.64,-86.75 592.97,-91.54 607.54,-96.08"/>
<polygon fill="#63b8ff" stroke="#63b8ff" points="606.48,-99.42 617.07,-99.05 608.56,-92.74 606.48,-99.42"/>
</g>
<!-- Node7 -->
<g id="node7" class="node">
<title>Node7</title>
<g id="a_node7"><a xlink:href="a01563.html#aefe74adeaa48781464ba2fd2ec63d221" target="_top" xlink:title=" ">
<polygon fill="white" stroke="#666666" points="731,-82 613.75,-82 613.75,-50 731,-50 731,-82"/>
<text xml:space="preserve" text-anchor="start" x="621.75" y="-68.5" font-family="Helvetica,sans-Serif" font-size="10.00">nlohmann::detail::parse</text>
<text xml:space="preserve" text-anchor="middle" x="672.38" y="-56.5" font-family="Helvetica,sans-Serif" font-size="10.00">_error::position_string</text>
</a>
</g>
</g>
<!-- Node6&#45;&gt;Node7 -->
<g id="edge7" class="edge">
<title>Node6&#45;&gt;Node7</title>
<path fill="none" stroke="#63b8ff" d="M568.98,-66C579.69,-66 590.98,-66 602,-66"/>
<polygon fill="#63b8ff" stroke="#63b8ff" points="601.82,-69.5 611.82,-66 601.82,-62.5 601.82,-69.5"/>
</g>
<!-- Node8&#45;&gt;Node3 -->
<g id="edge9" class="edge">
<title>Node8&#45;&gt;Node3</title>
<path fill="none" stroke="#63b8ff" d="M563.6,-116C573.08,-116 583.15,-116 593.19,-116"/>
<polygon fill="#63b8ff" stroke="#63b8ff" points="592.95,-119.5 602.95,-116 592.95,-112.5 592.95,-119.5"/>
</g>
</g>
</svg>
