<?xml version="1.0" encoding="UTF-8" standalone="no"?>
<!DOCTYPE svg PUBLIC "-//W3C//DTD SVG 1.1//EN"
 "http://www.w3.org/Graphics/SVG/1.1/DTD/svg11.dtd">
<!-- Generated by graphviz version 13.1.2 (20250808.2320)
 -->
<!-- Title: nlohmann::basic_json::from_bson Pages: 1 -->
<svg width="2021pt" height="2343pt"
 viewBox="0.00 0.00 2021.00 2343.00" xmlns="http://www.w3.org/2000/svg" xmlns:xlink="http://www.w3.org/1999/xlink">
<g id="graph0" class="graph" transform="scale(1 1) rotate(0) translate(4 2338.77)">
<title>nlohmann::basic_json::from_bson</title>
<!-- Node1 -->
<g id="node1" class="node">
<title>Node1</title>
<g id="a_node1"><a xlink:title=" ">
<polygon fill="#999999" stroke="#666666" points="110.5,-1365.77 0,-1365.77 0,-1333.77 110.5,-1333.77 110.5,-1365.77"/>
<text xml:space="preserve" text-anchor="start" x="8" y="-1352.27" font-family="Helvetica,sans-Serif" font-size="10.00">nlohmann::basic_json</text>
<text xml:space="preserve" text-anchor="middle" x="55.25" y="-1340.27" font-family="Helvetica,sans-Serif" font-size="10.00">::from_bson</text>
</a>
</g>
</g>
<!-- Node2 -->
<g id="node2" class="node">
<title>Node2</title>
<g id="a_node2"><a xlink:href="a01659.html#a4e02793f2691aa29ab7cb69fddafbf5c" target="_top" xlink:title="Create a JSON value from an input in BSON format.">
<polygon fill="white" stroke="#666666" points="257,-1365.77 146.5,-1365.77 146.5,-1333.77 257,-1333.77 257,-1365.77"/>
<text xml:space="preserve" text-anchor="start" x="154.5" y="-1352.27" font-family="Helvetica,sans-Serif" font-size="10.00">nlohmann::basic_json</text>
<text xml:space="preserve" text-anchor="middle" x="201.75" y="-1340.27" font-family="Helvetica,sans-Serif" font-size="10.00">::from_bson</text>
</a>
</g>
</g>
<!-- Node1&#45;&gt;Node2 -->
<g id="edge1" class="edge">
<title>Node1&#45;&gt;Node2</title>
<path fill="none" stroke="#63b8ff" d="M110.88,-1349.77C118.61,-1349.77 126.63,-1349.77 134.55,-1349.77"/>
<polygon fill="#63b8ff" stroke="#63b8ff" points="134.53,-1353.27 144.53,-1349.77 134.53,-1346.27 134.53,-1353.27"/>
</g>
<!-- Node3 -->
<g id="node3" class="node">
<title>Node3</title>
<g id="a_node3"><a xlink:href="a00477.html#a616a53cc3114fdc113fc44e6af4c3c7f" target="_top" xlink:title=" ">
<polygon fill="white" stroke="#666666" points="1327.25,-1382.77 1213,-1382.77 1213,-1350.77 1327.25,-1350.77 1327.25,-1382.77"/>
<text xml:space="preserve" text-anchor="start" x="1221" y="-1369.27" font-family="Helvetica,sans-Serif" font-size="10.00">nlohmann::detail::input</text>
<text xml:space="preserve" text-anchor="middle" x="1270.12" y="-1357.27" font-family="Helvetica,sans-Serif" font-size="10.00">_adapter</text>
</a>
</g>
</g>
<!-- Node2&#45;&gt;Node3 -->
<g id="edge2" class="edge">
<title>Node2&#45;&gt;Node3</title>
<path fill="none" stroke="#63b8ff" d="M216.09,-1366.05C256.65,-1413.58 384.11,-1548.77 521.88,-1548.77 521.88,-1548.77 521.88,-1548.77 892.62,-1548.77 1010.65,-1548.77 1067.01,-1605.54 1157.5,-1529.77 1207.42,-1487.97 1147.98,-1434.32 1193.5,-1387.77 1196.17,-1385.04 1199.16,-1382.66 1202.36,-1380.58"/>
<polygon fill="#63b8ff" stroke="#63b8ff" points="1203.99,-1383.68 1211.2,-1375.91 1200.73,-1377.49 1203.99,-1383.68"/>
</g>
<!-- Node4 -->
<g id="node4" class="node">
<title>Node4</title>
<g id="a_node4"><a xlink:href="a01995.html#ab4afd9ee276bbb15a0f898061aad94dd" target="_top" xlink:title=" ">
<polygon fill="white" stroke="#666666" points="412.5,-1207.77 293,-1207.77 293,-1175.77 412.5,-1175.77 412.5,-1207.77"/>
<text xml:space="preserve" text-anchor="start" x="301" y="-1194.27" font-family="Helvetica,sans-Serif" font-size="10.00">nlohmann::detail::binary</text>
<text xml:space="preserve" text-anchor="middle" x="352.75" y="-1182.27" font-family="Helvetica,sans-Serif" font-size="10.00">_reader::sax_parse</text>
</a>
</g>
</g>
<!-- Node2&#45;&gt;Node4 -->
<g id="edge3" class="edge">
<title>Node2&#45;&gt;Node4</title>
<path fill="none" stroke="#63b8ff" d="M218.13,-1333.46C244.34,-1305.66 297.8,-1248.98 328.56,-1216.36"/>
<polygon fill="#63b8ff" stroke="#63b8ff" points="330.87,-1219.01 335.19,-1209.33 325.78,-1214.21 330.87,-1219.01"/>
</g>
<!-- Node5 -->
<g id="node5" class="node">
<title>Node5</title>
<g id="a_node5"><a xlink:href="a01563.html#a137ea4d27de45d8a844fd13451d40f3d" target="_top" xlink:title="create a parse error exception">
<polygon fill="white" stroke="#666666" points="1829.75,-1112.77 1712.5,-1112.77 1712.5,-1080.77 1829.75,-1080.77 1829.75,-1112.77"/>
<text xml:space="preserve" text-anchor="start" x="1720.5" y="-1099.27" font-family="Helvetica,sans-Serif" font-size="10.00">nlohmann::detail::parse</text>
<text xml:space="preserve" text-anchor="middle" x="1771.12" y="-1087.27" font-family="Helvetica,sans-Serif" font-size="10.00">_error::create</text>
</a>
</g>
</g>
<!-- Node4&#45;&gt;Node5 -->
<g id="edge4" class="edge">
<title>Node4&#45;&gt;Node5</title>
<path fill="none" stroke="#63b8ff" d="M355.02,-1207.93C366.4,-1346.85 455.96,-2334.77 702.88,-2334.77 702.88,-2334.77 702.88,-2334.77 1446.88,-2334.77 1568.25,-2334.77 1609.94,-2278.2 1664.5,-2169.77 1760.76,-1978.47 1769.33,-1271.91 1770.06,-1124.02"/>
<polygon fill="#63b8ff" stroke="#63b8ff" points="1773.56,-1124.43 1770.1,-1114.41 1766.56,-1124.4 1773.56,-1124.43"/>
</g>
<!-- Node8 -->
<g id="node8" class="node">
<title>Node8</title>
<g id="a_node8"><a xlink:href="a01995.html#a9c413c9a1bade1ce345740f4d69156f0" target="_top" xlink:title=" ">
<polygon fill="white" stroke="#666666" points="1841.75,-808.77 1700.5,-808.77 1700.5,-776.77 1841.75,-776.77 1841.75,-808.77"/>
<text xml:space="preserve" text-anchor="start" x="1708.5" y="-795.27" font-family="Helvetica,sans-Serif" font-size="10.00">nlohmann::detail::binary</text>
<text xml:space="preserve" text-anchor="middle" x="1771.12" y="-783.27" font-family="Helvetica,sans-Serif" font-size="10.00">_reader::exception_message</text>
</a>
</g>
</g>
<!-- Node4&#45;&gt;Node8 -->
<g id="edge7" class="edge">
<title>Node4&#45;&gt;Node8</title>
<path fill="none" stroke="#63b8ff" d="M353.95,-1175.42C355.74,-1042.79 370.67,-146.06 448.5,-58.77 525.24,27.29 587.57,-7.77 702.88,-7.77 702.88,-7.77 702.88,-7.77 1446.88,-7.77 1579.75,-7.77 1601.06,-96.01 1664.5,-212.77 1717.8,-310.87 1756.96,-662.95 1767.38,-764.92"/>
<polygon fill="#63b8ff" stroke="#63b8ff" points="1763.89,-765.23 1768.38,-774.83 1770.85,-764.53 1763.89,-765.23"/>
</g>
<!-- Node9 -->
<g id="node9" class="node">
<title>Node9</title>
<g id="a_node9"><a xlink:href="a01995.html#ad222095c0b21a87824cb10629299629a" target="_top" xlink:title="get next character from the input">
<polygon fill="white" stroke="#666666" points="1664.5,-1336.77 1545,-1336.77 1545,-1304.77 1664.5,-1304.77 1664.5,-1336.77"/>
<text xml:space="preserve" text-anchor="start" x="1553" y="-1323.27" font-family="Helvetica,sans-Serif" font-size="10.00">nlohmann::detail::binary</text>
<text xml:space="preserve" text-anchor="middle" x="1604.75" y="-1311.27" font-family="Helvetica,sans-Serif" font-size="10.00">_reader::get</text>
</a>
</g>
</g>
<!-- Node4&#45;&gt;Node9 -->
<g id="edge8" class="edge">
<title>Node4&#45;&gt;Node9</title>
<path fill="none" stroke="#63b8ff" d="M353.48,-1175.58C351.88,-1062.36 346.77,-388.79 448.5,-217.77 518.27,-100.48 566.4,-45.77 702.88,-45.77 702.88,-45.77 702.88,-45.77 892.62,-45.77 1174.15,-45.77 1349.88,40.47 1509,-191.77 1573.2,-285.47 1598.68,-1129.2 1603.05,-1293.21"/>
<polygon fill="#63b8ff" stroke="#63b8ff" points="1599.55,-1293.21 1603.31,-1303.11 1606.55,-1293.02 1599.55,-1293.21"/>
</g>
<!-- Node10 -->
<g id="node10" class="node">
<title>Node10</title>
<g id="a_node10"><a xlink:href="a01995.html#a252c1179651d22c5343bcf0b538ed26a" target="_top" xlink:title=" ">
<polygon fill="white" stroke="#666666" points="1508.62,-232.77 1383.12,-232.77 1383.12,-200.77 1508.62,-200.77 1508.62,-232.77"/>
<text xml:space="preserve" text-anchor="start" x="1391.12" y="-219.27" font-family="Helvetica,sans-Serif" font-size="10.00">nlohmann::detail::binary</text>
<text xml:space="preserve" text-anchor="middle" x="1445.88" y="-207.27" font-family="Helvetica,sans-Serif" font-size="10.00">_reader::get_ignore_noop</text>
</a>
</g>
</g>
<!-- Node4&#45;&gt;Node10 -->
<g id="edge9" class="edge">
<title>Node4&#45;&gt;Node10</title>
<path fill="none" stroke="#63b8ff" d="M354.08,-1175.67C356.02,-1101.26 368.8,-783.88 448.5,-539.77 502.97,-372.93 492.42,-295.5 633.25,-190.77 887.91,-1.39 1043.23,-70.1 1346.75,-162.77 1369.82,-169.81 1393.57,-182.71 1411.92,-194.13"/>
<polygon fill="#63b8ff" stroke="#63b8ff" points="1409.94,-197.02 1420.25,-199.46 1413.71,-191.12 1409.94,-197.02"/>
</g>
<!-- Node11 -->
<g id="node11" class="node">
<title>Node11</title>
<g id="a_node11"><a xlink:href="a01995.html#a7d323283c60a0b89ee5eeadf5cb9a5ad" target="_top" xlink:title=" ">
<polygon fill="white" stroke="#666666" points="1509,-1194.77 1382.75,-1194.77 1382.75,-1162.77 1509,-1162.77 1509,-1194.77"/>
<text xml:space="preserve" text-anchor="start" x="1390.75" y="-1181.27" font-family="Helvetica,sans-Serif" font-size="10.00">nlohmann::detail::binary</text>
<text xml:space="preserve" text-anchor="middle" x="1445.88" y="-1169.27" font-family="Helvetica,sans-Serif" font-size="10.00">_reader::get_token_string</text>
</a>
</g>
</g>
<!-- Node4&#45;&gt;Node11 -->
<g id="edge11" class="edge">
<title>Node4&#45;&gt;Node11</title>
<path fill="none" stroke="#63b8ff" d="M412.8,-1191.07C597.88,-1188.86 1166.48,-1182.09 1370.8,-1179.65"/>
<polygon fill="#63b8ff" stroke="#63b8ff" points="1370.81,-1183.15 1380.77,-1179.53 1370.72,-1176.15 1370.81,-1183.15"/>
</g>
<!-- Node12 -->
<g id="node12" class="node">
<title>Node12</title>
<g id="a_node12"><a xlink:href="a01995.html#abf2051ba57d9ea9b378a2e7c14e22b34" target="_top" xlink:title="Reads in a BSON&#45;object and passes it to the SAX&#45;parser.">
<polygon fill="white" stroke="#666666" points="774.5,-1166.77 633.25,-1166.77 633.25,-1134.77 774.5,-1134.77 774.5,-1166.77"/>
<text xml:space="preserve" text-anchor="start" x="641.25" y="-1153.27" font-family="Helvetica,sans-Serif" font-size="10.00">nlohmann::detail::binary</text>
<text xml:space="preserve" text-anchor="middle" x="703.88" y="-1141.27" font-family="Helvetica,sans-Serif" font-size="10.00">_reader::parse_bson_internal</text>
</a>
</g>
</g>
<!-- Node4&#45;&gt;Node12 -->
<g id="edge12" class="edge">
<title>Node4&#45;&gt;Node12</title>
<path fill="none" stroke="#63b8ff" d="M412.97,-1184.81C470.33,-1178.08 557.74,-1167.81 621.59,-1160.32"/>
<polygon fill="#63b8ff" stroke="#63b8ff" points="621.8,-1163.82 631.32,-1159.17 620.98,-1156.86 621.8,-1163.82"/>
</g>
<!-- Node22 -->
<g id="node22" class="node">
<title>Node22</title>
<g id="a_node22"><a xlink:href="a01995.html#a4e4accd5a2a41bfb2f18a8a0fcc9421c" target="_top" xlink:title=" ">
<polygon fill="white" stroke="#666666" points="961.12,-1962.77 822.12,-1962.77 822.12,-1930.77 961.12,-1930.77 961.12,-1962.77"/>
<text xml:space="preserve" text-anchor="start" x="830.12" y="-1949.27" font-family="Helvetica,sans-Serif" font-size="10.00">nlohmann::detail::binary</text>
<text xml:space="preserve" text-anchor="middle" x="891.62" y="-1937.27" font-family="Helvetica,sans-Serif" font-size="10.00">_reader::parse_cbor_internal</text>
</a>
</g>
</g>
<!-- Node4&#45;&gt;Node22 -->
<g id="edge42" class="edge">
<title>Node4&#45;&gt;Node22</title>
<path fill="none" stroke="#63b8ff" d="M365.46,-1208.24C434.52,-1305.36 788.38,-1802.99 872.61,-1921.44"/>
<polygon fill="#63b8ff" stroke="#63b8ff" points="869.54,-1923.16 878.19,-1929.28 875.25,-1919.1 869.54,-1923.16"/>
</g>
<!-- Node28 -->
<g id="node28" class="node">
<title>Node28</title>
<g id="a_node28"><a xlink:href="a01995.html#ae020385ce9424271d61f85d3842c02cb" target="_top" xlink:title=" ">
<polygon fill="white" stroke="#666666" points="953.25,-1520.77 830,-1520.77 830,-1476.77 953.25,-1476.77 953.25,-1520.77"/>
<text xml:space="preserve" text-anchor="start" x="838" y="-1507.27" font-family="Helvetica,sans-Serif" font-size="10.00">nlohmann::detail::binary</text>
<text xml:space="preserve" text-anchor="start" x="838" y="-1495.27" font-family="Helvetica,sans-Serif" font-size="10.00">_reader::parse_msgpack</text>
<text xml:space="preserve" text-anchor="middle" x="891.62" y="-1483.27" font-family="Helvetica,sans-Serif" font-size="10.00">_internal</text>
</a>
</g>
</g>
<!-- Node4&#45;&gt;Node28 -->
<g id="edge77" class="edge">
<title>Node4&#45;&gt;Node28</title>
<path fill="none" stroke="#63b8ff" d="M381.91,-1208.19C400.74,-1219.16 426.08,-1233.87 448.5,-1246.77 590.76,-1328.6 759.35,-1424.35 841.16,-1470.74"/>
<polygon fill="#63b8ff" stroke="#63b8ff" points="839.19,-1473.65 849.62,-1475.54 842.64,-1467.56 839.19,-1473.65"/>
</g>
<!-- Node33 -->
<g id="node33" class="node">
<title>Node33</title>
<g id="a_node33"><a xlink:href="a01995.html#a5a79480d661019b0f3fc615ae12f7de7" target="_top" xlink:title=" ">
<polygon fill="white" stroke="#666666" points="597.25,-580.77 448.5,-580.77 448.5,-548.77 597.25,-548.77 597.25,-580.77"/>
<text xml:space="preserve" text-anchor="start" x="456.5" y="-567.27" font-family="Helvetica,sans-Serif" font-size="10.00">nlohmann::detail::binary</text>
<text xml:space="preserve" text-anchor="middle" x="522.88" y="-555.27" font-family="Helvetica,sans-Serif" font-size="10.00">_reader::parse_ubjson_internal</text>
</a>
</g>
</g>
<!-- Node4&#45;&gt;Node33 -->
<g id="edge100" class="edge">
<title>Node4&#45;&gt;Node33</title>
<path fill="none" stroke="#63b8ff" d="M358.16,-1175.32C381.01,-1090.12 485.94,-698.78 514.62,-591.84"/>
<polygon fill="#63b8ff" stroke="#63b8ff" points="517.91,-593.07 517.12,-582.51 511.15,-591.26 517.91,-593.07"/>
</g>
<!-- Node6 -->
<g id="node6" class="node">
<title>Node6</title>
<g id="a_node6"><a xlink:href="a01559.html#abf41a7e9178356314082284e6cfea278" target="_top" xlink:title=" ">
<polygon fill="white" stroke="#666666" points="2013,-1137.77 1877.75,-1137.77 1877.75,-1105.77 2013,-1105.77 2013,-1137.77"/>
<text xml:space="preserve" text-anchor="start" x="1885.75" y="-1124.27" font-family="Helvetica,sans-Serif" font-size="10.00">nlohmann::detail::exception</text>
<text xml:space="preserve" text-anchor="middle" x="1945.38" y="-1112.27" font-family="Helvetica,sans-Serif" font-size="10.00">::name</text>
</a>
</g>
</g>
<!-- Node5&#45;&gt;Node6 -->
<g id="edge5" class="edge">
<title>Node5&#45;&gt;Node6</title>
<path fill="none" stroke="#63b8ff" d="M1829.96,-1105.16C1841.63,-1106.86 1854.09,-1108.67 1866.32,-1110.44"/>
<polygon fill="#63b8ff" stroke="#63b8ff" points="1865.57,-1113.87 1875.97,-1111.84 1866.58,-1106.94 1865.57,-1113.87"/>
</g>
<!-- Node7 -->
<g id="node7" class="node">
<title>Node7</title>
<g id="a_node7"><a xlink:href="a01563.html#aefe74adeaa48781464ba2fd2ec63d221" target="_top" xlink:title=" ">
<polygon fill="white" stroke="#666666" points="2004,-1087.77 1886.75,-1087.77 1886.75,-1055.77 2004,-1055.77 2004,-1087.77"/>
<text xml:space="preserve" text-anchor="start" x="1894.75" y="-1074.27" font-family="Helvetica,sans-Serif" font-size="10.00">nlohmann::detail::parse</text>
<text xml:space="preserve" text-anchor="middle" x="1945.38" y="-1062.27" font-family="Helvetica,sans-Serif" font-size="10.00">_error::position_string</text>
</a>
</g>
</g>
<!-- Node5&#45;&gt;Node7 -->
<g id="edge6" class="edge">
<title>Node5&#45;&gt;Node7</title>
<path fill="none" stroke="#63b8ff" d="M1829.96,-1088.38C1844.45,-1086.27 1860.13,-1084 1875.11,-1081.82"/>
<polygon fill="#63b8ff" stroke="#63b8ff" points="1875.51,-1085.3 1884.9,-1080.4 1874.5,-1078.37 1875.51,-1085.3"/>
</g>
<!-- Node10&#45;&gt;Node9 -->
<g id="edge10" class="edge">
<title>Node10&#45;&gt;Node9</title>
<path fill="none" stroke="#63b8ff" d="M1455.88,-233.02C1469.86,-259.09 1496.47,-312.26 1509,-360.77 1601.87,-720.22 1604.95,-1176.97 1604.11,-1293"/>
<polygon fill="#63b8ff" stroke="#63b8ff" points="1600.61,-1292.76 1604.02,-1302.8 1607.61,-1292.83 1600.61,-1292.76"/>
</g>
<!-- Node13 -->
<g id="node13" class="node">
<title>Node13</title>
<g id="a_node13"><a xlink:href="a01995.html#a4e07b75ccb2579d0e738b894f0fd8cf8" target="_top" xlink:title="Read a BSON element list (as specified in the BSON&#45;spec)">
<polygon fill="white" stroke="#666666" points="972.75,-1166.77 810.5,-1166.77 810.5,-1134.77 972.75,-1134.77 972.75,-1166.77"/>
<text xml:space="preserve" text-anchor="start" x="818.5" y="-1153.27" font-family="Helvetica,sans-Serif" font-size="10.00">nlohmann::detail::binary</text>
<text xml:space="preserve" text-anchor="middle" x="891.62" y="-1141.27" font-family="Helvetica,sans-Serif" font-size="10.00">_reader::parse_bson_element_list</text>
</a>
</g>
</g>
<!-- Node12&#45;&gt;Node13 -->
<g id="edge13" class="edge">
<title>Node12&#45;&gt;Node13</title>
<path fill="none" stroke="#63b8ff" d="M774.83,-1150.77C782.66,-1150.77 790.72,-1150.77 798.77,-1150.77"/>
<polygon fill="#63b8ff" stroke="#63b8ff" points="798.61,-1154.27 808.61,-1150.77 798.61,-1147.27 798.61,-1154.27"/>
</g>
<!-- Node13&#45;&gt;Node9 -->
<g id="edge14" class="edge">
<title>Node13&#45;&gt;Node9</title>
<path fill="none" stroke="#63b8ff" d="M973.19,-1163.19C1025.83,-1171.69 1095.97,-1183.74 1157.5,-1196.77 1315.05,-1230.13 1355.35,-1236.53 1509,-1284.77 1523.45,-1289.31 1538.89,-1294.86 1553.03,-1300.24"/>
<polygon fill="#63b8ff" stroke="#63b8ff" points="1551.54,-1303.41 1562.13,-1303.75 1554.06,-1296.88 1551.54,-1303.41"/>
</g>
<!-- Node14 -->
<g id="node14" class="node">
<title>Node14</title>
<g id="a_node14"><a xlink:href="a01995.html#a354cbbaaea672c024ac949e1801c4302" target="_top" xlink:title="Parses a C&#45;style string from the BSON input.">
<polygon fill="white" stroke="#666666" points="1505.62,-1396.77 1386.12,-1396.77 1386.12,-1364.77 1505.62,-1364.77 1505.62,-1396.77"/>
<text xml:space="preserve" text-anchor="start" x="1394.12" y="-1383.27" font-family="Helvetica,sans-Serif" font-size="10.00">nlohmann::detail::binary</text>
<text xml:space="preserve" text-anchor="middle" x="1445.88" y="-1371.27" font-family="Helvetica,sans-Serif" font-size="10.00">_reader::get_bson_cstr</text>
</a>
</g>
</g>
<!-- Node13&#45;&gt;Node14 -->
<g id="edge15" class="edge">
<title>Node13&#45;&gt;Node14</title>
<path fill="none" stroke="#63b8ff" d="M937.73,-1167.12C949.2,-1171.42 961.48,-1176.16 972.75,-1180.77 988.96,-1187.4 992.4,-1190.52 1008.75,-1196.77 1073.64,-1221.58 1092.91,-1219.19 1157.5,-1244.77 1247.17,-1280.28 1348.32,-1330.68 1403.5,-1359.09"/>
<polygon fill="#63b8ff" stroke="#63b8ff" points="1401.74,-1362.13 1412.23,-1363.61 1404.96,-1355.91 1401.74,-1362.13"/>
</g>
<!-- Node15 -->
<g id="node15" class="node">
<title>Node15</title>
<g id="a_node15"><a xlink:href="a01995.html#a61a0bd8bbe7b560bd429fa990ba3ba1a" target="_top" xlink:title=" ">
<polygon fill="white" stroke="#666666" points="1664.5,-1471.77 1545,-1471.77 1545,-1439.77 1664.5,-1439.77 1664.5,-1471.77"/>
<text xml:space="preserve" text-anchor="start" x="1553" y="-1458.27" font-family="Helvetica,sans-Serif" font-size="10.00">nlohmann::detail::binary</text>
<text xml:space="preserve" text-anchor="middle" x="1604.75" y="-1446.27" font-family="Helvetica,sans-Serif" font-size="10.00">_reader::unexpect_eof</text>
</a>
</g>
</g>
<!-- Node13&#45;&gt;Node15 -->
<g id="edge41" class="edge">
<title>Node13&#45;&gt;Node15</title>
<path fill="none" stroke="#63b8ff" d="M950.16,-1167.24C958.2,-1170.95 966,-1175.42 972.75,-1180.77 995.35,-1198.69 985.74,-1217.37 1008.75,-1234.77 1064.16,-1276.67 1108.21,-1233.82 1157.5,-1282.77 1193.7,-1318.72 1161.67,-1351.9 1193.5,-1391.77 1254.77,-1468.5 1288.14,-1479.48 1382.75,-1505.77 1436.81,-1520.79 1456.08,-1524.43 1509,-1505.77 1525.65,-1499.9 1527.03,-1490.12 1544.09,-1478.25"/>
<polygon fill="#63b8ff" stroke="#63b8ff" points="1545.87,-1481.26 1552.57,-1473.05 1542.21,-1475.29 1545.87,-1481.26"/>
</g>
<!-- Node16 -->
<g id="node16" class="node">
<title>Node16</title>
<g id="a_node16"><a xlink:href="a01995.html#a23bde2450d7a5772bf5051e36ff560a4" target="_top" xlink:title="Read a BSON document element of the given element_type.">
<polygon fill="white" stroke="#666666" points="1155.25,-1022.77 1011,-1022.77 1011,-978.77 1155.25,-978.77 1155.25,-1022.77"/>
<text xml:space="preserve" text-anchor="start" x="1019" y="-1009.27" font-family="Helvetica,sans-Serif" font-size="10.00">nlohmann::detail::binary</text>
<text xml:space="preserve" text-anchor="start" x="1019" y="-997.27" font-family="Helvetica,sans-Serif" font-size="10.00">_reader::parse_bson_element</text>
<text xml:space="preserve" text-anchor="middle" x="1083.12" y="-985.27" font-family="Helvetica,sans-Serif" font-size="10.00">_internal</text>
</a>
</g>
</g>
<!-- Node13&#45;&gt;Node16 -->
<g id="edge20" class="edge">
<title>Node13&#45;&gt;Node16</title>
<path fill="none" stroke="#63b8ff" d="M911.67,-1134.47C934.45,-1115.09 973.9,-1081.96 1008.75,-1054.77 1019.26,-1046.57 1030.81,-1037.91 1041.57,-1029.99"/>
<polygon fill="#63b8ff" stroke="#63b8ff" points="1043.55,-1032.87 1049.55,-1024.14 1039.42,-1027.23 1043.55,-1032.87"/>
</g>
<!-- Node14&#45;&gt;Node9 -->
<g id="edge16" class="edge">
<title>Node14&#45;&gt;Node9</title>
<path fill="none" stroke="#63b8ff" d="M1489.74,-1364.37C1508.34,-1357.26 1530.33,-1348.85 1550,-1341.33"/>
<polygon fill="#63b8ff" stroke="#63b8ff" points="1551.16,-1344.63 1559.25,-1337.79 1548.66,-1338.09 1551.16,-1344.63"/>
</g>
<!-- Node14&#45;&gt;Node15 -->
<g id="edge17" class="edge">
<title>Node14&#45;&gt;Node15</title>
<path fill="none" stroke="#63b8ff" d="M1489.23,-1397.13C1495.9,-1399.9 1502.67,-1402.84 1509,-1405.77 1527.59,-1414.39 1547.72,-1424.84 1564.62,-1433.96"/>
<polygon fill="#63b8ff" stroke="#63b8ff" points="1562.91,-1437.01 1573.36,-1438.72 1566.25,-1430.86 1562.91,-1437.01"/>
</g>
<!-- Node15&#45;&gt;Node5 -->
<g id="edge18" class="edge">
<title>Node15&#45;&gt;Node5</title>
<path fill="none" stroke="#63b8ff" d="M1614.97,-1439.6C1626.95,-1418.36 1648.25,-1379.76 1664.5,-1345.77 1702.49,-1266.29 1741.52,-1169.58 1759.67,-1123.57"/>
<polygon fill="#63b8ff" stroke="#63b8ff" points="1762.87,-1125.01 1763.27,-1114.42 1756.35,-1122.45 1762.87,-1125.01"/>
</g>
<!-- Node15&#45;&gt;Node8 -->
<g id="edge19" class="edge">
<title>Node15&#45;&gt;Node8</title>
<path fill="none" stroke="#63b8ff" d="M1616.9,-1439.46C1630.51,-1418.69 1653.12,-1381.23 1664.5,-1345.77 1702.04,-1228.82 1677.59,-1192.44 1700.5,-1071.77 1718.22,-978.43 1748.07,-869.68 1762.22,-820.02"/>
<polygon fill="#63b8ff" stroke="#63b8ff" points="1765.58,-821.01 1764.97,-810.43 1758.85,-819.08 1765.58,-821.01"/>
</g>
<!-- Node16&#45;&gt;Node5 -->
<g id="edge21" class="edge">
<title>Node16&#45;&gt;Node5</title>
<path fill="none" stroke="#63b8ff" d="M1092.2,-978.35C1115.55,-913.78 1182.25,-731.42 1193.5,-723.77 1309.55,-644.82 1373.45,-701.35 1509,-737.77 1582.73,-757.58 1612.86,-754.54 1664.5,-810.77 1734.4,-886.88 1759.11,-1013.24 1766.91,-1068.94"/>
<polygon fill="#63b8ff" stroke="#63b8ff" points="1763.43,-1069.35 1768.21,-1078.81 1770.38,-1068.44 1763.43,-1069.35"/>
</g>
<!-- Node16&#45;&gt;Node9 -->
<g id="edge22" class="edge">
<title>Node16&#45;&gt;Node9</title>
<path fill="none" stroke="#63b8ff" d="M1107.47,-978.46C1128.21,-960.31 1160.29,-936.06 1193.5,-925.77 1258.56,-905.61 1280.16,-911.48 1346.75,-925.77 1424.06,-942.36 1457.03,-939.17 1509,-998.77 1585.31,-1086.29 1600.23,-1232.66 1603.1,-1293.24"/>
<polygon fill="#63b8ff" stroke="#63b8ff" points="1599.59,-1293.12 1603.47,-1302.97 1606.58,-1292.84 1599.59,-1293.12"/>
</g>
<!-- Node16&#45;&gt;Node12 -->
<g id="edge40" class="edge">
<title>Node16&#45;&gt;Node12</title>
<path fill="none" stroke="#63b8ff" d="M1025.61,-1023.24C952.79,-1052.19 827.21,-1102.13 756.73,-1130.15"/>
<polygon fill="#63b8ff" stroke="#63b8ff" points="755.73,-1126.78 747.73,-1133.73 758.32,-1133.29 755.73,-1126.78"/>
</g>
<!-- Node17 -->
<g id="node17" class="node">
<title>Node17</title>
<g id="a_node17"><a xlink:href="a01995.html#a9940f56290b9278c58772eda2931e599" target="_top" xlink:title="Parses a byte array input of length len from the BSON input.">
<polygon fill="white" stroke="#666666" points="1332.88,-1016.77 1207.38,-1016.77 1207.38,-984.77 1332.88,-984.77 1332.88,-1016.77"/>
<text xml:space="preserve" text-anchor="start" x="1215.38" y="-1003.27" font-family="Helvetica,sans-Serif" font-size="10.00">nlohmann::detail::binary</text>
<text xml:space="preserve" text-anchor="middle" x="1270.12" y="-991.27" font-family="Helvetica,sans-Serif" font-size="10.00">_reader::get_bson_binary</text>
</a>
</g>
</g>
<!-- Node16&#45;&gt;Node17 -->
<g id="edge23" class="edge">
<title>Node16&#45;&gt;Node17</title>
<path fill="none" stroke="#63b8ff" d="M1155.65,-1000.77C1168.78,-1000.77 1182.51,-1000.77 1195.7,-1000.77"/>
<polygon fill="#63b8ff" stroke="#63b8ff" points="1195.61,-1004.27 1205.61,-1000.77 1195.61,-997.27 1195.61,-1004.27"/>
</g>
<!-- Node19 -->
<g id="node19" class="node">
<title>Node19</title>
<g id="a_node19"><a xlink:href="a01995.html#a23921422802aa472360dd05023e20565" target="_top" xlink:title="Parses a zero&#45;terminated string of length len from the BSON input.">
<polygon fill="white" stroke="#666666" points="1331.75,-966.77 1208.5,-966.77 1208.5,-934.77 1331.75,-934.77 1331.75,-966.77"/>
<text xml:space="preserve" text-anchor="start" x="1216.5" y="-953.27" font-family="Helvetica,sans-Serif" font-size="10.00">nlohmann::detail::binary</text>
<text xml:space="preserve" text-anchor="middle" x="1270.12" y="-941.27" font-family="Helvetica,sans-Serif" font-size="10.00">_reader::get_bson_string</text>
</a>
</g>
</g>
<!-- Node16&#45;&gt;Node19 -->
<g id="edge30" class="edge">
<title>Node16&#45;&gt;Node19</title>
<path fill="none" stroke="#63b8ff" d="M1155.65,-981.44C1169.37,-977.73 1183.74,-973.85 1197.46,-970.14"/>
<polygon fill="#63b8ff" stroke="#63b8ff" points="1198.1,-973.59 1206.84,-967.6 1196.28,-966.83 1198.1,-973.59"/>
</g>
<!-- Node21 -->
<g id="node21" class="node">
<title>Node21</title>
<g id="a_node21"><a xlink:href="a01995.html#a23eb89a222e22533e9fd43e76722f44f" target="_top" xlink:title="Reads an array from the BSON input and passes it to the SAX&#45;parser.">
<polygon fill="white" stroke="#666666" points="1335.88,-1104.77 1204.38,-1104.77 1204.38,-1072.77 1335.88,-1072.77 1335.88,-1104.77"/>
<text xml:space="preserve" text-anchor="start" x="1212.38" y="-1091.27" font-family="Helvetica,sans-Serif" font-size="10.00">nlohmann::detail::binary</text>
<text xml:space="preserve" text-anchor="middle" x="1270.12" y="-1079.27" font-family="Helvetica,sans-Serif" font-size="10.00">_reader::parse_bson_array</text>
</a>
</g>
</g>
<!-- Node16&#45;&gt;Node21 -->
<g id="edge38" class="edge">
<title>Node16&#45;&gt;Node21</title>
<path fill="none" stroke="#63b8ff" d="M1123.85,-1023.19C1144.38,-1034.42 1169.99,-1047.91 1193.5,-1058.77 1200.31,-1061.91 1207.54,-1065.04 1214.73,-1068.03"/>
<polygon fill="#63b8ff" stroke="#63b8ff" points="1213.21,-1071.18 1223.79,-1071.72 1215.85,-1064.7 1213.21,-1071.18"/>
</g>
<!-- Node17&#45;&gt;Node5 -->
<g id="edge24" class="edge">
<title>Node17&#45;&gt;Node5</title>
<path fill="none" stroke="#63b8ff" d="M1333.31,-1012.73C1426.93,-1030.74 1603.45,-1064.7 1700.98,-1083.47"/>
<polygon fill="#63b8ff" stroke="#63b8ff" points="1700.22,-1086.89 1710.7,-1085.34 1701.54,-1080.01 1700.22,-1086.89"/>
</g>
<!-- Node17&#45;&gt;Node8 -->
<g id="edge25" class="edge">
<title>Node17&#45;&gt;Node8</title>
<path fill="none" stroke="#63b8ff" d="M1323,-984.3C1331,-981.56 1339.12,-978.67 1346.75,-975.77 1486.67,-922.52 1648.02,-849.45 1724.88,-813.9"/>
<polygon fill="#63b8ff" stroke="#63b8ff" points="1726.18,-817.16 1733.78,-809.78 1723.24,-810.81 1726.18,-817.16"/>
</g>
<!-- Node17&#45;&gt;Node11 -->
<g id="edge29" class="edge">
<title>Node17&#45;&gt;Node11</title>
<path fill="none" stroke="#63b8ff" d="M1328.8,-1017.06C1335.46,-1020.75 1341.68,-1025.26 1346.75,-1030.77 1383.91,-1071.09 1347.07,-1107.14 1382.75,-1148.77 1384.91,-1151.28 1387.32,-1153.61 1389.91,-1155.75"/>
<polygon fill="#63b8ff" stroke="#63b8ff" points="1387.87,-1158.59 1398.06,-1161.48 1391.89,-1152.86 1387.87,-1158.59"/>
</g>
<!-- Node18 -->
<g id="node18" class="node">
<title>Node18</title>
<g id="a_node18"><a xlink:href="a01995.html#a55e13d567a53234573ab3833c0ca32e9" target="_top" xlink:title="create a byte array by reading bytes from the input">
<polygon fill="white" stroke="#666666" points="1505.62,-1496.77 1386.12,-1496.77 1386.12,-1464.77 1505.62,-1464.77 1505.62,-1496.77"/>
<text xml:space="preserve" text-anchor="start" x="1394.12" y="-1483.27" font-family="Helvetica,sans-Serif" font-size="10.00">nlohmann::detail::binary</text>
<text xml:space="preserve" text-anchor="middle" x="1445.88" y="-1471.27" font-family="Helvetica,sans-Serif" font-size="10.00">_reader::get_binary</text>
</a>
</g>
</g>
<!-- Node17&#45;&gt;Node18 -->
<g id="edge26" class="edge">
<title>Node17&#45;&gt;Node18</title>
<path fill="none" stroke="#63b8ff" d="M1300.54,-1017.24C1317.07,-1028.17 1336.41,-1044.11 1346.75,-1063.77 1387.45,-1141.2 1330.52,-1385.6 1382.75,-1455.77 1382.9,-1455.97 1383.06,-1456.18 1383.21,-1456.38"/>
<polygon fill="#63b8ff" stroke="#63b8ff" points="1380.67,-1458.79 1390.27,-1463.28 1385.57,-1453.79 1380.67,-1458.79"/>
</g>
<!-- Node18&#45;&gt;Node9 -->
<g id="edge27" class="edge">
<title>Node18&#45;&gt;Node9</title>
<path fill="none" stroke="#63b8ff" d="M1495.88,-1464.27C1500.53,-1461.77 1504.99,-1458.95 1509,-1455.77 1546.56,-1425.97 1575.52,-1377.4 1591.06,-1347.36"/>
<polygon fill="#63b8ff" stroke="#63b8ff" points="1594.13,-1349.06 1595.49,-1338.55 1587.87,-1345.92 1594.13,-1349.06"/>
</g>
<!-- Node18&#45;&gt;Node15 -->
<g id="edge28" class="edge">
<title>Node18&#45;&gt;Node15</title>
<path fill="none" stroke="#63b8ff" d="M1505.74,-1471.39C1514.76,-1469.95 1524.15,-1468.45 1533.4,-1466.98"/>
<polygon fill="#63b8ff" stroke="#63b8ff" points="1533.74,-1470.47 1543.06,-1465.44 1532.64,-1463.56 1533.74,-1470.47"/>
</g>
<!-- Node19&#45;&gt;Node5 -->
<g id="edge31" class="edge">
<title>Node19&#45;&gt;Node5</title>
<path fill="none" stroke="#63b8ff" d="M1331.99,-963.04C1410.07,-979.5 1549.16,-1011.29 1664.5,-1050.77 1685.16,-1057.84 1707.41,-1067.25 1726.14,-1075.71"/>
<polygon fill="#63b8ff" stroke="#63b8ff" points="1724.5,-1078.81 1735.05,-1079.8 1727.42,-1072.45 1724.5,-1078.81"/>
</g>
<!-- Node19&#45;&gt;Node8 -->
<g id="edge32" class="edge">
<title>Node19&#45;&gt;Node8</title>
<path fill="none" stroke="#63b8ff" d="M1279.08,-934.3C1294.42,-904.64 1331.16,-842.91 1382.75,-816.77 1479.19,-767.9 1606.91,-770.86 1688.82,-779.88"/>
<polygon fill="#63b8ff" stroke="#63b8ff" points="1688.23,-783.33 1698.56,-781.01 1689.04,-776.38 1688.23,-783.33"/>
</g>
<!-- Node19&#45;&gt;Node9 -->
<g id="edge33" class="edge">
<title>Node19&#45;&gt;Node9</title>
<path fill="none" stroke="#63b8ff" d="M1330.71,-967.17C1336.32,-969.68 1341.76,-972.53 1346.75,-975.77 1474.69,-1058.77 1562.04,-1228.85 1592.15,-1294.29"/>
<polygon fill="#63b8ff" stroke="#63b8ff" points="1588.86,-1295.52 1596.18,-1303.18 1595.24,-1292.63 1588.86,-1295.52"/>
</g>
<!-- Node19&#45;&gt;Node11 -->
<g id="edge37" class="edge">
<title>Node19&#45;&gt;Node11</title>
<path fill="none" stroke="#63b8ff" d="M1332.12,-964.26C1337.59,-967.34 1342.61,-971.13 1346.75,-975.77 1399.03,-1034.38 1334.41,-1086.87 1382.75,-1148.77 1384.72,-1151.29 1386.96,-1153.61 1389.38,-1155.75"/>
<polygon fill="#63b8ff" stroke="#63b8ff" points="1386.9,-1158.27 1397.02,-1161.42 1391.08,-1152.65 1386.9,-1158.27"/>
</g>
<!-- Node20 -->
<g id="node20" class="node">
<title>Node20</title>
<g id="a_node20"><a xlink:href="a01995.html#a540919db22df36512f05a88945c13263" target="_top" xlink:title="create a string by reading characters from the input">
<polygon fill="white" stroke="#666666" points="1505.62,-1446.77 1386.12,-1446.77 1386.12,-1414.77 1505.62,-1414.77 1505.62,-1446.77"/>
<text xml:space="preserve" text-anchor="start" x="1394.12" y="-1433.27" font-family="Helvetica,sans-Serif" font-size="10.00">nlohmann::detail::binary</text>
<text xml:space="preserve" text-anchor="middle" x="1445.88" y="-1421.27" font-family="Helvetica,sans-Serif" font-size="10.00">_reader::get_string</text>
</a>
</g>
</g>
<!-- Node19&#45;&gt;Node20 -->
<g id="edge34" class="edge">
<title>Node19&#45;&gt;Node20</title>
<path fill="none" stroke="#63b8ff" d="M1331.99,-963.34C1337.63,-966.59 1342.73,-970.67 1346.75,-975.77 1406.11,-1051.08 1325.8,-1328.62 1382.75,-1405.77 1382.9,-1405.97 1383.05,-1406.18 1383.21,-1406.38"/>
<polygon fill="#63b8ff" stroke="#63b8ff" points="1380.66,-1408.78 1390.24,-1413.3 1385.57,-1403.79 1380.66,-1408.78"/>
</g>
<!-- Node20&#45;&gt;Node9 -->
<g id="edge35" class="edge">
<title>Node20&#45;&gt;Node9</title>
<path fill="none" stroke="#63b8ff" d="M1492.9,-1414.38C1498.47,-1411.78 1503.97,-1408.9 1509,-1405.77 1536.21,-1388.83 1563,-1363.8 1581.11,-1345.29"/>
<polygon fill="#63b8ff" stroke="#63b8ff" points="1583.58,-1347.77 1587.98,-1338.13 1578.53,-1342.92 1583.58,-1347.77"/>
</g>
<!-- Node20&#45;&gt;Node15 -->
<g id="edge36" class="edge">
<title>Node20&#45;&gt;Node15</title>
<path fill="none" stroke="#63b8ff" d="M1505.74,-1440.15C1514.76,-1441.59 1524.15,-1443.08 1533.4,-1444.56"/>
<polygon fill="#63b8ff" stroke="#63b8ff" points="1532.64,-1447.98 1543.06,-1446.1 1533.74,-1441.07 1532.64,-1447.98"/>
</g>
<!-- Node21&#45;&gt;Node13 -->
<g id="edge39" class="edge">
<title>Node21&#45;&gt;Node13</title>
<path fill="none" stroke="#63b8ff" d="M1204.09,-1099.06C1151.4,-1107.45 1075.25,-1119.68 1008.75,-1130.77 1000.84,-1132.09 992.63,-1133.47 984.4,-1134.87"/>
<polygon fill="#63b8ff" stroke="#63b8ff" points="983.95,-1131.4 974.68,-1136.53 985.13,-1138.3 983.95,-1131.4"/>
</g>
<!-- Node22&#45;&gt;Node5 -->
<g id="edge43" class="edge">
<title>Node22&#45;&gt;Node5</title>
<path fill="none" stroke="#63b8ff" d="M894.1,-1963.11C899.44,-2012.33 922.33,-2160.39 1008.75,-2234.77 1098.91,-2312.37 1150.17,-2296.77 1269.12,-2296.77 1269.12,-2296.77 1269.12,-2296.77 1446.88,-2296.77 1595.2,-2296.77 1605.28,-2179.75 1664.5,-2043.77 1739.36,-1871.87 1764.46,-1261.93 1769.23,-1124.44"/>
<polygon fill="#63b8ff" stroke="#63b8ff" points="1772.73,-1124.6 1769.57,-1114.48 1765.73,-1124.36 1772.73,-1124.6"/>
</g>
<!-- Node22&#45;&gt;Node8 -->
<g id="edge44" class="edge">
<title>Node22&#45;&gt;Node8</title>
<path fill="none" stroke="#63b8ff" d="M906.23,-1963.23C926.29,-1986.41 966.05,-2028.46 1008.75,-2051.77 1083.41,-2092.53 1109.18,-2090.56 1193.5,-2101.77 1425.21,-2132.57 1580.38,-2085.85 1664.5,-1867.77 1728.22,-1702.56 1674.94,-1246.98 1700.5,-1071.77 1714.21,-977.79 1746,-869.41 1761.42,-819.93"/>
<polygon fill="#63b8ff" stroke="#63b8ff" points="1764.68,-821.24 1764.34,-810.65 1758,-819.14 1764.68,-821.24"/>
</g>
<!-- Node22&#45;&gt;Node9 -->
<g id="edge45" class="edge">
<title>Node22&#45;&gt;Node9</title>
<path fill="none" stroke="#63b8ff" d="M914.94,-1930.41C937.74,-1914.17 974.56,-1889.25 1008.75,-1871.77 1165.57,-1791.61 1213.43,-1789.26 1382.75,-1740.77 1438.5,-1724.8 1470.66,-1751.29 1509,-1707.77 1550.03,-1661.19 1526.07,-1489.89 1545,-1430.77 1554.8,-1400.15 1573,-1368.05 1586.55,-1346.48"/>
<polygon fill="#63b8ff" stroke="#63b8ff" points="1589.32,-1348.65 1591.78,-1338.35 1583.43,-1344.87 1589.32,-1348.65"/>
</g>
<!-- Node22&#45;&gt;Node11 -->
<g id="edge74" class="edge">
<title>Node22&#45;&gt;Node11</title>
<path fill="none" stroke="#63b8ff" d="M900.33,-1930.39C917.44,-1894.72 960.9,-1808 1008.75,-1742.77 1080.13,-1645.46 1109.58,-1630.5 1193.5,-1543.77 1260.2,-1474.82 1291.75,-1470.37 1346.75,-1391.77 1389.53,-1330.64 1421.35,-1247.87 1435.97,-1205.77"/>
<polygon fill="#63b8ff" stroke="#63b8ff" points="1439.23,-1207.06 1439.15,-1196.46 1432.61,-1204.8 1439.23,-1207.06"/>
</g>
<!-- Node22&#45;&gt;Node15 -->
<g id="edge76" class="edge">
<title>Node22&#45;&gt;Node15</title>
<path fill="none" stroke="#63b8ff" d="M916.91,-1963.15C939.69,-1977.77 975.18,-1998.69 1008.75,-2010.77 1218.01,-2086.08 1360.56,-2164.38 1509,-1998.77 1578.45,-1921.29 1598.28,-1583.66 1602.68,-1483.73"/>
<polygon fill="#63b8ff" stroke="#63b8ff" points="1606.17,-1483.9 1603.09,-1473.76 1599.18,-1483.61 1606.17,-1483.9"/>
</g>
<!-- Node22&#45;&gt;Node22 -->
<g id="edge75" class="edge">
<title>Node22&#45;&gt;Node22</title>
<path fill="none" stroke="#63b8ff" d="M858.11,-1963.21C851.85,-1972.35 863.02,-1980.77 891.62,-1980.77 907.27,-1980.77 917.7,-1978.25 922.91,-1974.48"/>
<polygon fill="#63b8ff" stroke="#63b8ff" points="926.34,-1975.19 924.85,-1964.7 919.47,-1973.83 926.34,-1975.19"/>
</g>
<!-- Node23 -->
<g id="node23" class="node">
<title>Node23</title>
<g id="a_node23"><a xlink:href="a01995.html#a3750658328bf3ec3cf23f1626f9ec3af" target="_top" xlink:title=" ">
<polygon fill="white" stroke="#666666" points="1142.88,-1912.77 1023.38,-1912.77 1023.38,-1880.77 1142.88,-1880.77 1142.88,-1912.77"/>
<text xml:space="preserve" text-anchor="start" x="1031.38" y="-1899.27" font-family="Helvetica,sans-Serif" font-size="10.00">nlohmann::detail::binary</text>
<text xml:space="preserve" text-anchor="middle" x="1083.12" y="-1887.27" font-family="Helvetica,sans-Serif" font-size="10.00">_reader::get_cbor_array</text>
</a>
</g>
</g>
<!-- Node22&#45;&gt;Node23 -->
<g id="edge46" class="edge">
<title>Node22&#45;&gt;Node23</title>
<path fill="none" stroke="#63b8ff" d="M933.28,-1930.39C956.21,-1923.29 985.5,-1915.27 1012.03,-1908.72"/>
<polygon fill="#63b8ff" stroke="#63b8ff" points="1012.83,-1912.13 1021.72,-1906.37 1011.18,-1905.33 1012.83,-1912.13"/>
</g>
<!-- Node24 -->
<g id="node24" class="node">
<title>Node24</title>
<g id="a_node24"><a xlink:href="a01995.html#acb001d18095dc5bcf7336ae5122b8340" target="_top" xlink:title="reads a CBOR byte array">
<polygon fill="white" stroke="#666666" points="1331.75,-2018.77 1208.5,-2018.77 1208.5,-1986.77 1331.75,-1986.77 1331.75,-2018.77"/>
<text xml:space="preserve" text-anchor="start" x="1216.5" y="-2005.27" font-family="Helvetica,sans-Serif" font-size="10.00">nlohmann::detail::binary</text>
<text xml:space="preserve" text-anchor="middle" x="1270.12" y="-1993.27" font-family="Helvetica,sans-Serif" font-size="10.00">_reader::get_cbor_binary</text>
</a>
</g>
</g>
<!-- Node22&#45;&gt;Node24 -->
<g id="edge49" class="edge">
<title>Node22&#45;&gt;Node24</title>
<path fill="none" stroke="#63b8ff" d="M929.48,-1963.25C951.92,-1972.48 981.44,-1983.22 1008.75,-1988.77 1071.47,-2001.51 1144.32,-2004.45 1196.99,-2004.52"/>
<polygon fill="#63b8ff" stroke="#63b8ff" points="1196.74,-2008.02 1206.73,-2004.5 1196.73,-2001.02 1196.74,-2008.02"/>
</g>
<!-- Node25 -->
<g id="node25" class="node">
<title>Node25</title>
<g id="a_node25"><a xlink:href="a01995.html#ac356c6364fe0273d3303fb7a447f4ef6" target="_top" xlink:title=" ">
<polygon fill="white" stroke="#666666" points="1505.62,-1698.77 1386.12,-1698.77 1386.12,-1666.77 1505.62,-1666.77 1505.62,-1698.77"/>
<text xml:space="preserve" text-anchor="start" x="1394.12" y="-1685.27" font-family="Helvetica,sans-Serif" font-size="10.00">nlohmann::detail::binary</text>
<text xml:space="preserve" text-anchor="middle" x="1445.88" y="-1673.27" font-family="Helvetica,sans-Serif" font-size="10.00">_reader::get_number</text>
</a>
</g>
</g>
<!-- Node22&#45;&gt;Node25 -->
<g id="edge73" class="edge">
<title>Node22&#45;&gt;Node25</title>
<path fill="none" stroke="#63b8ff" d="M901.03,-1930.36C917.45,-1899.97 956.79,-1834.93 1008.75,-1800.77 1068.97,-1761.18 1267.43,-1717.63 1374.65,-1696.2"/>
<polygon fill="#63b8ff" stroke="#63b8ff" points="1375.07,-1699.69 1384.2,-1694.31 1373.71,-1692.82 1375.07,-1699.69"/>
</g>
<!-- Node26 -->
<g id="node26" class="node">
<title>Node26</title>
<g id="a_node26"><a xlink:href="a01995.html#a47092a2195bf9cd3cdb4dda67cc404ed" target="_top" xlink:title=" ">
<polygon fill="white" stroke="#666666" points="1144.75,-1962.77 1021.5,-1962.77 1021.5,-1930.77 1144.75,-1930.77 1144.75,-1962.77"/>
<text xml:space="preserve" text-anchor="start" x="1029.5" y="-1949.27" font-family="Helvetica,sans-Serif" font-size="10.00">nlohmann::detail::binary</text>
<text xml:space="preserve" text-anchor="middle" x="1083.12" y="-1937.27" font-family="Helvetica,sans-Serif" font-size="10.00">_reader::get_cbor_object</text>
</a>
</g>
</g>
<!-- Node22&#45;&gt;Node26 -->
<g id="edge60" class="edge">
<title>Node22&#45;&gt;Node26</title>
<path fill="none" stroke="#63b8ff" d="M961.57,-1940.25C977.24,-1939.96 993.93,-1939.95 1009.74,-1940.19"/>
<polygon fill="#63b8ff" stroke="#63b8ff" points="1009.49,-1943.69 1019.55,-1940.38 1009.62,-1936.69 1009.49,-1943.69"/>
</g>
<!-- Node27 -->
<g id="node27" class="node">
<title>Node27</title>
<g id="a_node27"><a xlink:href="a01995.html#a545a44ae4b3fa2b7a61d9e8517fb7154" target="_top" xlink:title="reads a CBOR string">
<polygon fill="white" stroke="#666666" points="1330.62,-1950.77 1209.62,-1950.77 1209.62,-1918.77 1330.62,-1918.77 1330.62,-1950.77"/>
<text xml:space="preserve" text-anchor="start" x="1217.62" y="-1937.27" font-family="Helvetica,sans-Serif" font-size="10.00">nlohmann::detail::binary</text>
<text xml:space="preserve" text-anchor="middle" x="1270.12" y="-1925.27" font-family="Helvetica,sans-Serif" font-size="10.00">_reader::get_cbor_string</text>
</a>
</g>
</g>
<!-- Node22&#45;&gt;Node27 -->
<g id="edge72" class="edge">
<title>Node22&#45;&gt;Node27</title>
<path fill="none" stroke="#63b8ff" d="M957.33,-1963.24C973.98,-1966.77 991.93,-1969.98 1008.75,-1971.77 1074.49,-1978.77 1092.23,-1982.3 1157.5,-1971.77 1178.14,-1968.44 1200.13,-1961.85 1219.08,-1955.15"/>
<polygon fill="#63b8ff" stroke="#63b8ff" points="1220.25,-1958.45 1228.44,-1951.73 1217.85,-1951.87 1220.25,-1958.45"/>
</g>
<!-- Node23&#45;&gt;Node9 -->
<g id="edge47" class="edge">
<title>Node23&#45;&gt;Node9</title>
<path fill="none" stroke="#63b8ff" d="M1130.01,-1880.27C1239.25,-1840.96 1505.91,-1744.69 1509,-1740.77 1551.92,-1686.29 1524.3,-1496.96 1545,-1430.77 1554.59,-1400.09 1572.82,-1367.99 1586.44,-1346.44"/>
<polygon fill="#63b8ff" stroke="#63b8ff" points="1589.21,-1348.62 1591.69,-1338.32 1583.33,-1344.82 1589.21,-1348.62"/>
</g>
<!-- Node23&#45;&gt;Node22 -->
<g id="edge48" class="edge">
<title>Node23&#45;&gt;Node22</title>
<path fill="none" stroke="#63b8ff" d="M1041.34,-1913.19C1021.28,-1919.4 996.36,-1926.31 972.7,-1932.32"/>
<polygon fill="#63b8ff" stroke="#63b8ff" points="971.9,-1928.91 963.04,-1934.73 973.59,-1935.7 971.9,-1928.91"/>
</g>
<!-- Node24&#45;&gt;Node5 -->
<g id="edge50" class="edge">
<title>Node24&#45;&gt;Node5</title>
<path fill="none" stroke="#63b8ff" d="M1290.56,-2018.98C1311.7,-2035.46 1347.25,-2059.93 1382.75,-2069.77 1436.82,-2084.75 1458.17,-2093.53 1509,-2069.77 1606.61,-2024.14 1621.07,-1982.38 1664.5,-1883.77 1726.68,-1742.59 1760.87,-1246.72 1768.48,-1124.27"/>
<polygon fill="#63b8ff" stroke="#63b8ff" points="1771.96,-1124.71 1769.08,-1114.51 1764.98,-1124.28 1771.96,-1124.71"/>
</g>
<!-- Node24&#45;&gt;Node8 -->
<g id="edge51" class="edge">
<title>Node24&#45;&gt;Node8</title>
<path fill="none" stroke="#63b8ff" d="M1332.18,-2012.66C1383.03,-2017.72 1455.5,-2017.31 1509,-1985.77 1618.17,-1921.41 1625.23,-1867.26 1664.5,-1746.77 1711.05,-1603.95 1678.21,-1220.32 1700.5,-1071.77 1714.59,-977.84 1746.19,-869.43 1761.49,-819.94"/>
<polygon fill="#63b8ff" stroke="#63b8ff" points="1764.75,-821.25 1764.39,-810.66 1758.07,-819.16 1764.75,-821.25"/>
</g>
<!-- Node24&#45;&gt;Node9 -->
<g id="edge52" class="edge">
<title>Node24&#45;&gt;Node9</title>
<path fill="none" stroke="#63b8ff" d="M1327.73,-1986.35C1334.28,-1983.78 1340.75,-1980.92 1346.75,-1977.77 1366.77,-1967.24 1498.09,-1874.59 1509,-1854.77 1554.62,-1771.94 1518.18,-1521.45 1545,-1430.77 1554.12,-1399.94 1572.42,-1367.87 1586.19,-1346.37"/>
<polygon fill="#63b8ff" stroke="#63b8ff" points="1588.95,-1348.54 1591.51,-1338.26 1583.1,-1344.7 1588.95,-1348.54"/>
</g>
<!-- Node24&#45;&gt;Node11 -->
<g id="edge58" class="edge">
<title>Node24&#45;&gt;Node11</title>
<path fill="none" stroke="#63b8ff" d="M1332.13,-1990.3C1337.74,-1987.03 1342.79,-1982.92 1346.75,-1977.77 1388.9,-1922.86 1369.15,-1423.65 1382.75,-1355.77 1393.78,-1300.69 1418.16,-1239.47 1432.88,-1205.4"/>
<polygon fill="#63b8ff" stroke="#63b8ff" points="1436.05,-1206.88 1436.86,-1196.32 1429.64,-1204.07 1436.05,-1206.88"/>
</g>
<!-- Node24&#45;&gt;Node15 -->
<g id="edge59" class="edge">
<title>Node24&#45;&gt;Node15</title>
<path fill="none" stroke="#63b8ff" d="M1332.19,-2009.7C1386.08,-2012.18 1463.02,-2006.26 1509,-1960.77 1577.65,-1892.85 1597.95,-1578.6 1602.58,-1483.26"/>
<polygon fill="#63b8ff" stroke="#63b8ff" points="1606.07,-1483.69 1603.03,-1473.54 1599.07,-1483.37 1606.07,-1483.69"/>
</g>
<!-- Node24&#45;&gt;Node18 -->
<g id="edge53" class="edge">
<title>Node24&#45;&gt;Node18</title>
<path fill="none" stroke="#63b8ff" d="M1332.21,-1989.87C1337.73,-1986.68 1342.74,-1982.71 1346.75,-1977.77 1391.85,-1922.21 1366.8,-1727.53 1382.75,-1657.77 1395.27,-1603 1419.13,-1541.68 1433.36,-1507.5"/>
<polygon fill="#63b8ff" stroke="#63b8ff" points="1436.53,-1508.97 1437.19,-1498.39 1430.08,-1506.25 1436.53,-1508.97"/>
</g>
<!-- Node24&#45;&gt;Node24 -->
<g id="edge54" class="edge">
<title>Node24&#45;&gt;Node24</title>
<path fill="none" stroke="#63b8ff" d="M1238.75,-2019.21C1232.89,-2028.35 1243.35,-2036.77 1270.12,-2036.77 1284.77,-2036.77 1294.53,-2034.25 1299.41,-2030.48"/>
<polygon fill="#63b8ff" stroke="#63b8ff" points="1302.84,-2031.17 1301.23,-2020.7 1295.96,-2029.89 1302.84,-2031.17"/>
</g>
<!-- Node24&#45;&gt;Node25 -->
<g id="edge55" class="edge">
<title>Node24&#45;&gt;Node25</title>
<path fill="none" stroke="#63b8ff" d="M1332.01,-1988.63C1337.43,-1985.67 1342.47,-1982.1 1346.75,-1977.77 1383.82,-1940.3 1366.24,-1914.82 1382.75,-1864.77 1400.98,-1809.51 1423.19,-1745.13 1435.5,-1709.66"/>
<polygon fill="#63b8ff" stroke="#63b8ff" points="1438.8,-1710.83 1438.78,-1700.23 1432.19,-1708.53 1438.8,-1710.83"/>
</g>
<!-- Node25&#45;&gt;Node9 -->
<g id="edge56" class="edge">
<title>Node25&#45;&gt;Node9</title>
<path fill="none" stroke="#63b8ff" d="M1452.53,-1666.27C1466.63,-1625.61 1505.09,-1517.58 1545,-1430.77 1558.45,-1401.52 1576.09,-1369.15 1588.52,-1347.14"/>
<polygon fill="#63b8ff" stroke="#63b8ff" points="1591.51,-1348.97 1593.41,-1338.54 1585.42,-1345.5 1591.51,-1348.97"/>
</g>
<!-- Node25&#45;&gt;Node15 -->
<g id="edge57" class="edge">
<title>Node25&#45;&gt;Node15</title>
<path fill="none" stroke="#63b8ff" d="M1458.16,-1666.44C1485.11,-1627.44 1553.44,-1528.57 1585.98,-1481.48"/>
<polygon fill="#63b8ff" stroke="#63b8ff" points="1588.69,-1483.71 1591.5,-1473.5 1582.93,-1479.73 1588.69,-1483.71"/>
</g>
<!-- Node26&#45;&gt;Node9 -->
<g id="edge61" class="edge">
<title>Node26&#45;&gt;Node9</title>
<path fill="none" stroke="#63b8ff" d="M1133.61,-1930.38C1141.63,-1927.59 1149.82,-1924.66 1157.5,-1921.77 1242.65,-1889.75 1267.67,-1888.75 1346.75,-1843.77 1364.13,-1833.88 1364.9,-1825.79 1382.75,-1816.77 1435.05,-1790.34 1471.67,-1823.93 1509,-1778.77 1558.53,-1718.85 1522.26,-1505.12 1545,-1430.77 1554.4,-1400.03 1572.66,-1367.94 1586.34,-1346.41"/>
<polygon fill="#63b8ff" stroke="#63b8ff" points="1589.1,-1348.59 1591.62,-1338.29 1583.23,-1344.77 1589.1,-1348.59"/>
</g>
<!-- Node26&#45;&gt;Node22 -->
<g id="edge71" class="edge">
<title>Node26&#45;&gt;Node22</title>
<path fill="none" stroke="#63b8ff" d="M1021.07,-1953.12C1005.65,-1953.5 988.87,-1953.61 972.67,-1953.45"/>
<polygon fill="#63b8ff" stroke="#63b8ff" points="973.14,-1949.95 963.09,-1953.31 973.04,-1956.95 973.14,-1949.95"/>
</g>
<!-- Node26&#45;&gt;Node27 -->
<g id="edge62" class="edge">
<title>Node26&#45;&gt;Node27</title>
<path fill="none" stroke="#63b8ff" d="M1145.21,-1942.81C1162.14,-1941.71 1180.65,-1940.51 1198.08,-1939.38"/>
<polygon fill="#63b8ff" stroke="#63b8ff" points="1198.1,-1942.88 1207.85,-1938.74 1197.64,-1935.9 1198.1,-1942.88"/>
</g>
<!-- Node27&#45;&gt;Node5 -->
<g id="edge63" class="edge">
<title>Node27&#45;&gt;Node5</title>
<path fill="none" stroke="#63b8ff" d="M1309.39,-1951.17C1322.35,-1958.04 1336.2,-1966.96 1346.75,-1977.77 1370.37,-2001.96 1353.74,-2027.42 1382.75,-2044.77 1430.91,-2073.56 1462.61,-2076.33 1509,-2044.77 1669.97,-1935.24 1751.4,-1268.26 1767.23,-1124.19"/>
<polygon fill="#63b8ff" stroke="#63b8ff" points="1770.69,-1124.77 1768.29,-1114.46 1763.73,-1124.02 1770.69,-1124.77"/>
</g>
<!-- Node27&#45;&gt;Node8 -->
<g id="edge64" class="edge">
<title>Node27&#45;&gt;Node8</title>
<path fill="none" stroke="#63b8ff" d="M1304.55,-1951.25C1353.99,-1973.03 1447.38,-2003.87 1509,-1960.77 1674.16,-1845.24 1621.74,-1731.73 1664.5,-1534.77 1708.29,-1333.07 1667.4,-1275.5 1700.5,-1071.77 1715.73,-978.02 1746.78,-869.53 1761.72,-819.98"/>
<polygon fill="#63b8ff" stroke="#63b8ff" points="1764.99,-821.27 1764.55,-810.68 1758.29,-819.23 1764.99,-821.27"/>
</g>
<!-- Node27&#45;&gt;Node9 -->
<g id="edge65" class="edge">
<title>Node27&#45;&gt;Node9</title>
<path fill="none" stroke="#63b8ff" d="M1322.01,-1918.35C1330.63,-1914.53 1339.21,-1910.01 1346.75,-1904.77 1366.38,-1891.11 1363.02,-1878.29 1382.75,-1864.77 1432.27,-1830.84 1472.66,-1864.55 1509,-1816.77 1561.15,-1748.2 1520.22,-1513.28 1545,-1430.77 1554.25,-1399.98 1572.53,-1367.9 1586.26,-1346.39"/>
<polygon fill="#63b8ff" stroke="#63b8ff" points="1589.02,-1348.56 1591.56,-1338.27 1583.16,-1344.73 1589.02,-1348.56"/>
</g>
<!-- Node27&#45;&gt;Node11 -->
<g id="edge69" class="edge">
<title>Node27&#45;&gt;Node11</title>
<path fill="none" stroke="#63b8ff" d="M1276.14,-1918.53C1289.52,-1874.66 1326.42,-1749.89 1346.75,-1643.77 1371.02,-1517.08 1353.22,-1481.34 1382.75,-1355.77 1395.61,-1301.08 1419.35,-1239.73 1433.46,-1205.52"/>
<polygon fill="#63b8ff" stroke="#63b8ff" points="1436.64,-1206.99 1437.27,-1196.41 1430.19,-1204.29 1436.64,-1206.99"/>
</g>
<!-- Node27&#45;&gt;Node15 -->
<g id="edge70" class="edge">
<title>Node27&#45;&gt;Node15</title>
<path fill="none" stroke="#63b8ff" d="M1321.74,-1951.2C1375.27,-1965.07 1458.76,-1976.21 1509,-1930.77 1559.78,-1884.84 1529.67,-1691.5 1545,-1624.77 1556.82,-1573.32 1578.84,-1515.69 1592.31,-1482.77"/>
<polygon fill="#63b8ff" stroke="#63b8ff" points="1595.51,-1484.18 1596.1,-1473.61 1589.04,-1481.5 1595.51,-1484.18"/>
</g>
<!-- Node27&#45;&gt;Node20 -->
<g id="edge68" class="edge">
<title>Node27&#45;&gt;Node20</title>
<path fill="none" stroke="#63b8ff" d="M1275.76,-1918.45C1288.21,-1874.38 1322.99,-1749.18 1346.75,-1643.77 1365.46,-1560.78 1328.68,-1521.45 1382.75,-1455.77 1383,-1455.47 1383.25,-1455.17 1383.51,-1454.87"/>
<polygon fill="#63b8ff" stroke="#63b8ff" points="1385.75,-1457.56 1390.86,-1448.28 1381.08,-1452.35 1385.75,-1457.56"/>
</g>
<!-- Node27&#45;&gt;Node25 -->
<g id="edge67" class="edge">
<title>Node27&#45;&gt;Node25</title>
<path fill="none" stroke="#63b8ff" d="M1282.26,-1918.62C1311.67,-1875.96 1391.63,-1760 1427.29,-1708.27"/>
<polygon fill="#63b8ff" stroke="#63b8ff" points="1429.96,-1710.57 1432.75,-1700.35 1424.19,-1706.6 1429.96,-1710.57"/>
</g>
<!-- Node27&#45;&gt;Node27 -->
<g id="edge66" class="edge">
<title>Node27&#45;&gt;Node27</title>
<path fill="none" stroke="#63b8ff" d="M1238.75,-1951.21C1232.89,-1960.35 1243.35,-1968.77 1270.12,-1968.77 1284.77,-1968.77 1294.53,-1966.25 1299.41,-1962.48"/>
<polygon fill="#63b8ff" stroke="#63b8ff" points="1302.84,-1963.17 1301.23,-1952.7 1295.96,-1961.89 1302.84,-1963.17"/>
</g>
<!-- Node28&#45;&gt;Node5 -->
<g id="edge78" class="edge">
<title>Node28&#45;&gt;Node5</title>
<path fill="none" stroke="#63b8ff" d="M903.47,-1520.97C922.59,-1559.27 964.45,-1639.61 1008.75,-1701.77 1067.02,-1783.52 1112.8,-1781.87 1157.5,-1871.77 1192.66,-1942.48 1138.49,-1989.11 1193.5,-2045.77 1292.17,-2147.39 1374.02,-2133.69 1509,-2090.77 1589.68,-2065.12 1621.19,-2053.51 1664.5,-1980.77 1753.74,-1830.88 1767.73,-1258.07 1769.79,-1124.66"/>
<polygon fill="#63b8ff" stroke="#63b8ff" points="1773.29,-1124.71 1769.93,-1114.66 1766.29,-1124.61 1773.29,-1124.71"/>
</g>
<!-- Node28&#45;&gt;Node8 -->
<g id="edge79" class="edge">
<title>Node28&#45;&gt;Node8</title>
<path fill="none" stroke="#63b8ff" d="M928.61,-1476.42C950.99,-1463.32 980.74,-1447.34 1008.75,-1436.77 1072.29,-1412.8 1102.65,-1441.82 1157.5,-1401.77 1182.61,-1383.43 1170.09,-1362.24 1193.5,-1341.77 1249.33,-1292.95 1278.8,-1305.48 1346.75,-1275.77 1419.04,-1244.17 1449.23,-1255.27 1509,-1203.77 1641.83,-1089.32 1730.83,-890.55 1759.83,-819.2"/>
<polygon fill="#63b8ff" stroke="#63b8ff" points="1762.93,-820.87 1763.4,-810.29 1756.43,-818.27 1762.93,-820.87"/>
</g>
<!-- Node28&#45;&gt;Node9 -->
<g id="edge80" class="edge">
<title>Node28&#45;&gt;Node9</title>
<path fill="none" stroke="#63b8ff" d="M953.52,-1486.18C1007.47,-1474.63 1088.2,-1456.39 1157.5,-1436.77 1173.73,-1432.18 1177.23,-1429.22 1193.5,-1424.77 1260.71,-1406.39 1292.37,-1435.32 1346.75,-1391.77 1376.55,-1367.9 1350.59,-1334.35 1382.75,-1313.77 1430.35,-1283.32 1496.27,-1290.2 1543.72,-1301.55"/>
<polygon fill="#63b8ff" stroke="#63b8ff" points="1542.73,-1304.91 1553.28,-1303.98 1544.45,-1298.12 1542.73,-1304.91"/>
</g>
<!-- Node28&#45;&gt;Node11 -->
<g id="edge98" class="edge">
<title>Node28&#45;&gt;Node11</title>
<path fill="none" stroke="#63b8ff" d="M915.7,-1476.55C937.92,-1456.28 973.28,-1426.8 1008.75,-1408.77 1070.09,-1377.58 1102.48,-1407.11 1157.5,-1365.77 1181.45,-1347.77 1171.42,-1329.03 1193.5,-1308.77 1249.84,-1257.08 1330.58,-1220.19 1385.23,-1199.21"/>
<polygon fill="#63b8ff" stroke="#63b8ff" points="1386.26,-1202.57 1394.38,-1195.76 1383.79,-1196.02 1386.26,-1202.57"/>
</g>
<!-- Node28&#45;&gt;Node15 -->
<g id="edge99" class="edge">
<title>Node28&#45;&gt;Node15</title>
<path fill="none" stroke="#63b8ff" d="M904.71,-1521.06C923.04,-1552.78 960.87,-1610.66 1008.75,-1642.77 1194.96,-1767.65 1335.38,-1849.63 1509,-1707.77 1571.16,-1656.98 1511.35,-1603.65 1545,-1530.77 1553.53,-1512.29 1567.43,-1494.25 1579.57,-1480.49"/>
<polygon fill="#63b8ff" stroke="#63b8ff" points="1582.05,-1482.98 1586.2,-1473.23 1576.88,-1478.26 1582.05,-1482.98"/>
</g>
<!-- Node28&#45;&gt;Node25 -->
<g id="edge97" class="edge">
<title>Node28&#45;&gt;Node25</title>
<path fill="none" stroke="#63b8ff" d="M917.19,-1521.04C939.86,-1540.9 975.04,-1569.97 1008.75,-1590.77 1085.83,-1638.33 1105.31,-1656.14 1193.5,-1676.77 1253.47,-1690.8 1323.68,-1691.18 1374.64,-1688.71"/>
<polygon fill="#63b8ff" stroke="#63b8ff" points="1374.55,-1692.22 1384.35,-1688.18 1374.17,-1685.23 1374.55,-1692.22"/>
</g>
<!-- Node29 -->
<g id="node29" class="node">
<title>Node29</title>
<g id="a_node29"><a xlink:href="a01995.html#a0ce1d7066597952efb008aaf578b2bd6" target="_top" xlink:title=" ">
<polygon fill="white" stroke="#666666" points="1153,-1356.77 1013.25,-1356.77 1013.25,-1324.77 1153,-1324.77 1153,-1356.77"/>
<text xml:space="preserve" text-anchor="start" x="1021.25" y="-1343.27" font-family="Helvetica,sans-Serif" font-size="10.00">nlohmann::detail::binary</text>
<text xml:space="preserve" text-anchor="middle" x="1083.12" y="-1331.27" font-family="Helvetica,sans-Serif" font-size="10.00">_reader::get_msgpack_array</text>
</a>
</g>
</g>
<!-- Node28&#45;&gt;Node29 -->
<g id="edge81" class="edge">
<title>Node28&#45;&gt;Node29</title>
<path fill="none" stroke="#63b8ff" d="M903.98,-1476.44C921.78,-1448.05 958.63,-1399.71 1006.67,-1363.78"/>
<polygon fill="#63b8ff" stroke="#63b8ff" points="1008.48,-1366.8 1014.54,-1358.11 1004.38,-1361.12 1008.48,-1366.8"/>
</g>
<!-- Node30 -->
<g id="node30" class="node">
<title>Node30</title>
<g id="a_node30"><a xlink:href="a01995.html#a389e550fd397a48121cb82d92bb7475a" target="_top" xlink:title="reads a MessagePack byte array">
<polygon fill="white" stroke="#666666" points="1342.25,-1634.77 1198,-1634.77 1198,-1602.77 1342.25,-1602.77 1342.25,-1634.77"/>
<text xml:space="preserve" text-anchor="start" x="1206" y="-1621.27" font-family="Helvetica,sans-Serif" font-size="10.00">nlohmann::detail::binary</text>
<text xml:space="preserve" text-anchor="middle" x="1270.12" y="-1609.27" font-family="Helvetica,sans-Serif" font-size="10.00">_reader::get_msgpack_binary</text>
</a>
</g>
</g>
<!-- Node28&#45;&gt;Node30 -->
<g id="edge83" class="edge">
<title>Node28&#45;&gt;Node30</title>
<path fill="none" stroke="#63b8ff" d="M932.79,-1521.19C954.72,-1532.74 982.67,-1546.34 1008.75,-1555.77 1066.82,-1576.76 1134.68,-1592.92 1186.57,-1603.62"/>
<polygon fill="#63b8ff" stroke="#63b8ff" points="1185.74,-1607.02 1196.24,-1605.58 1187.13,-1600.16 1185.74,-1607.02"/>
</g>
<!-- Node31 -->
<g id="node31" class="node">
<title>Node31</title>
<g id="a_node31"><a xlink:href="a01995.html#a8bebd21ceef09b6b2562e87861832700" target="_top" xlink:title=" ">
<polygon fill="white" stroke="#666666" points="1155.25,-1520.77 1011,-1520.77 1011,-1488.77 1155.25,-1488.77 1155.25,-1520.77"/>
<text xml:space="preserve" text-anchor="start" x="1019" y="-1507.27" font-family="Helvetica,sans-Serif" font-size="10.00">nlohmann::detail::binary</text>
<text xml:space="preserve" text-anchor="middle" x="1083.12" y="-1495.27" font-family="Helvetica,sans-Serif" font-size="10.00">_reader::get_msgpack_object</text>
</a>
</g>
</g>
<!-- Node28&#45;&gt;Node31 -->
<g id="edge86" class="edge">
<title>Node28&#45;&gt;Node31</title>
<path fill="none" stroke="#63b8ff" d="M953.63,-1494.35C968.25,-1494.45 984.12,-1494.84 999.54,-1495.45"/>
<polygon fill="#63b8ff" stroke="#63b8ff" points="999.01,-1498.93 1009.16,-1495.88 999.32,-1491.94 999.01,-1498.93"/>
</g>
<!-- Node32 -->
<g id="node32" class="node">
<title>Node32</title>
<g id="a_node32"><a xlink:href="a01995.html#ad8cba5585327caa550dd5b6dd25a64f8" target="_top" xlink:title="reads a MessagePack string">
<polygon fill="white" stroke="#666666" points="1341.12,-1584.77 1199.12,-1584.77 1199.12,-1552.77 1341.12,-1552.77 1341.12,-1584.77"/>
<text xml:space="preserve" text-anchor="start" x="1207.12" y="-1571.27" font-family="Helvetica,sans-Serif" font-size="10.00">nlohmann::detail::binary</text>
<text xml:space="preserve" text-anchor="middle" x="1270.12" y="-1559.27" font-family="Helvetica,sans-Serif" font-size="10.00">_reader::get_msgpack_string</text>
</a>
</g>
</g>
<!-- Node28&#45;&gt;Node32 -->
<g id="edge96" class="edge">
<title>Node28&#45;&gt;Node32</title>
<path fill="none" stroke="#63b8ff" d="M953.49,-1516.39C971.21,-1521.15 990.67,-1526.01 1008.75,-1529.77 1068.14,-1542.1 1135.93,-1552.13 1187.45,-1558.93"/>
<polygon fill="#63b8ff" stroke="#63b8ff" points="1186.98,-1562.4 1197.35,-1560.22 1187.88,-1555.46 1186.98,-1562.4"/>
</g>
<!-- Node29&#45;&gt;Node28 -->
<g id="edge82" class="edge">
<title>Node29&#45;&gt;Node28</title>
<path fill="none" stroke="#63b8ff" d="M1053.45,-1357.22C1039.24,-1363.11 1022.28,-1370.29 1008.75,-1379.77 973.58,-1404.41 941.44,-1441.51 919.93,-1467.86"/>
<polygon fill="#63b8ff" stroke="#63b8ff" points="917.3,-1465.54 913.73,-1475.52 922.74,-1469.94 917.3,-1465.54"/>
</g>
<!-- Node30&#45;&gt;Node18 -->
<g id="edge84" class="edge">
<title>Node30&#45;&gt;Node18</title>
<path fill="none" stroke="#63b8ff" d="M1331.18,-1602.32C1336.63,-1599.82 1341.92,-1596.99 1346.75,-1593.77 1381.5,-1570.63 1411.28,-1532.02 1428.64,-1506.48"/>
<polygon fill="#63b8ff" stroke="#63b8ff" points="1431.44,-1508.6 1434.05,-1498.33 1425.61,-1504.73 1431.44,-1508.6"/>
</g>
<!-- Node30&#45;&gt;Node25 -->
<g id="edge85" class="edge">
<title>Node30&#45;&gt;Node25</title>
<path fill="none" stroke="#63b8ff" d="M1315.87,-1635.25C1338.37,-1643.54 1365.84,-1653.66 1389.64,-1662.42"/>
<polygon fill="#63b8ff" stroke="#63b8ff" points="1388.27,-1665.65 1398.86,-1665.82 1390.69,-1659.08 1388.27,-1665.65"/>
</g>
<!-- Node31&#45;&gt;Node9 -->
<g id="edge87" class="edge">
<title>Node31&#45;&gt;Node9</title>
<path fill="none" stroke="#63b8ff" d="M1155.64,-1498.17C1212.91,-1489.59 1292.38,-1469.9 1346.75,-1424.77 1373.37,-1402.68 1354.67,-1375.97 1382.75,-1355.77 1426.16,-1324.55 1486.78,-1316.78 1533.56,-1316.28"/>
<polygon fill="#63b8ff" stroke="#63b8ff" points="1533.31,-1319.78 1543.31,-1316.29 1533.32,-1312.78 1533.31,-1319.78"/>
</g>
<!-- Node31&#45;&gt;Node28 -->
<g id="edge95" class="edge">
<title>Node31&#45;&gt;Node28</title>
<path fill="none" stroke="#63b8ff" d="M1010.67,-1509.07C995.7,-1508.84 979.91,-1508.34 964.91,-1507.64"/>
<polygon fill="#63b8ff" stroke="#63b8ff" points="965.31,-1504.15 955.14,-1507.13 964.95,-1511.14 965.31,-1504.15"/>
</g>
<!-- Node31&#45;&gt;Node32 -->
<g id="edge88" class="edge">
<title>Node31&#45;&gt;Node32</title>
<path fill="none" stroke="#63b8ff" d="M1131.77,-1521.25C1155.94,-1529.61 1185.5,-1539.84 1210.99,-1548.66"/>
<polygon fill="#63b8ff" stroke="#63b8ff" points="1209.62,-1551.89 1220.21,-1551.85 1211.91,-1545.27 1209.62,-1551.89"/>
</g>
<!-- Node32&#45;&gt;Node5 -->
<g id="edge89" class="edge">
<title>Node32&#45;&gt;Node5</title>
<path fill="none" stroke="#63b8ff" d="M1325.36,-1585.17C1332.64,-1587.81 1339.94,-1590.7 1346.75,-1593.77 1363.64,-1601.38 1364.87,-1609.94 1382.75,-1614.77 1503.63,-1647.45 1567.51,-1693.98 1664.5,-1614.77 1741.7,-1551.72 1763.94,-1222.75 1768.9,-1124.5"/>
<polygon fill="#63b8ff" stroke="#63b8ff" points="1772.39,-1124.87 1769.37,-1114.71 1765.4,-1124.53 1772.39,-1124.87"/>
</g>
<!-- Node32&#45;&gt;Node8 -->
<g id="edge90" class="edge">
<title>Node32&#45;&gt;Node8</title>
<path fill="none" stroke="#63b8ff" d="M1341.56,-1578.55C1435.38,-1587.02 1597.31,-1584.62 1664.5,-1480.77 1714.06,-1404.16 1685.41,-1161.75 1700.5,-1071.77 1716.21,-978.1 1747.02,-869.57 1761.81,-819.99"/>
<polygon fill="#63b8ff" stroke="#63b8ff" points="1765.08,-821.28 1764.61,-810.69 1758.38,-819.26 1765.08,-821.28"/>
</g>
<!-- Node32&#45;&gt;Node11 -->
<g id="edge93" class="edge">
<title>Node32&#45;&gt;Node11</title>
<path fill="none" stroke="#63b8ff" d="M1296.16,-1552.33C1312.9,-1540.05 1334.11,-1521.81 1346.75,-1500.77 1380.94,-1443.85 1363.73,-1419.39 1382.75,-1355.77 1398.84,-1301.94 1421.45,-1240.29 1434.49,-1205.8"/>
<polygon fill="#63b8ff" stroke="#63b8ff" points="1437.71,-1207.2 1437.99,-1196.61 1431.16,-1204.71 1437.71,-1207.2"/>
</g>
<!-- Node32&#45;&gt;Node15 -->
<g id="edge94" class="edge">
<title>Node32&#45;&gt;Node15</title>
<path fill="none" stroke="#63b8ff" d="M1341.44,-1570.57C1390.4,-1569.32 1456.13,-1562.53 1509,-1538.77 1538.44,-1525.53 1565.44,-1499.96 1583.01,-1480.69"/>
<polygon fill="#63b8ff" stroke="#63b8ff" points="1585.63,-1483.02 1589.63,-1473.21 1580.38,-1478.38 1585.63,-1483.02"/>
</g>
<!-- Node32&#45;&gt;Node20 -->
<g id="edge92" class="edge">
<title>Node32&#45;&gt;Node20</title>
<path fill="none" stroke="#63b8ff" d="M1291.21,-1552.28C1306.95,-1539 1329.05,-1519.52 1346.75,-1500.77 1364.33,-1482.14 1362.2,-1471.05 1382.75,-1455.77 1384.09,-1454.77 1385.48,-1453.81 1386.9,-1452.88"/>
<polygon fill="#63b8ff" stroke="#63b8ff" points="1388.5,-1455.99 1395.4,-1447.95 1384.99,-1449.94 1388.5,-1455.99"/>
</g>
<!-- Node32&#45;&gt;Node25 -->
<g id="edge91" class="edge">
<title>Node32&#45;&gt;Node25</title>
<path fill="none" stroke="#63b8ff" d="M1333.29,-1585.17C1338.08,-1587.65 1342.63,-1590.5 1346.75,-1593.77 1370.81,-1612.87 1359.99,-1632.14 1382.75,-1652.77 1385.81,-1655.55 1389.18,-1658.12 1392.72,-1660.5"/>
<polygon fill="#63b8ff" stroke="#63b8ff" points="1390.7,-1663.37 1401.07,-1665.54 1394.32,-1657.37 1390.7,-1663.37"/>
</g>
<!-- Node33&#45;&gt;Node10 -->
<g id="edge101" class="edge">
<title>Node33&#45;&gt;Node10</title>
<path fill="none" stroke="#63b8ff" d="M529.32,-548.39C555.63,-472.62 677.2,-159.77 890.62,-159.77 890.62,-159.77 890.62,-159.77 1084.12,-159.77 1184.84,-159.77 1299.47,-181.72 1371.96,-198.37"/>
<polygon fill="#63b8ff" stroke="#63b8ff" points="1370.77,-201.69 1381.31,-200.55 1372.36,-194.87 1370.77,-201.69"/>
</g>
<!-- Node34 -->
<g id="node34" class="node">
<title>Node34</title>
<g id="a_node34"><a xlink:href="a01995.html#a7e5e0b71548d0649ce4f131280d06c33" target="_top" xlink:title=" ">
<polygon fill="white" stroke="#666666" points="768.88,-624.77 638.88,-624.77 638.88,-592.77 768.88,-592.77 768.88,-624.77"/>
<text xml:space="preserve" text-anchor="start" x="646.88" y="-611.27" font-family="Helvetica,sans-Serif" font-size="10.00">nlohmann::detail::binary</text>
<text xml:space="preserve" text-anchor="middle" x="703.88" y="-599.27" font-family="Helvetica,sans-Serif" font-size="10.00">_reader::get_ubjson_value</text>
</a>
</g>
</g>
<!-- Node33&#45;&gt;Node34 -->
<g id="edge102" class="edge">
<title>Node33&#45;&gt;Node34</title>
<path fill="none" stroke="#63b8ff" d="M590.78,-581.22C602.72,-584.15 615.23,-587.23 627.39,-590.21"/>
<polygon fill="#63b8ff" stroke="#63b8ff" points="626.41,-593.58 636.95,-592.57 628.08,-586.78 626.41,-593.58"/>
</g>
<!-- Node34&#45;&gt;Node5 -->
<g id="edge103" class="edge">
<title>Node34&#45;&gt;Node5</title>
<path fill="none" stroke="#63b8ff" d="M713.83,-624.95C729.58,-651.74 764.93,-704.92 810.5,-730.77 888.33,-774.91 919.62,-757.96 1008.75,-765.77 1074.61,-771.54 1102.46,-802.4 1157.5,-765.77 1192,-742.81 1159,-702.73 1193.5,-679.77 1369.32,-562.76 1515.87,-592.73 1664.5,-742.77 1688.27,-766.77 1744.46,-991.03 1763.6,-1069.68"/>
<polygon fill="#63b8ff" stroke="#63b8ff" points="1760.13,-1070.22 1765.89,-1079.12 1766.94,-1068.58 1760.13,-1070.22"/>
</g>
<!-- Node34&#45;&gt;Node8 -->
<g id="edge104" class="edge">
<title>Node34&#45;&gt;Node8</title>
<path fill="none" stroke="#63b8ff" d="M711.24,-592.44C737.03,-528.63 840.57,-294.5 1008.75,-191.77 1137.42,-113.17 1196.57,-149.45 1346.75,-162.77 1419.72,-169.24 1446.75,-153.16 1509,-191.77 1607.69,-252.98 1613.92,-297.23 1664.5,-401.77 1726.48,-529.88 1756.48,-699.83 1766.32,-765.38"/>
<polygon fill="#63b8ff" stroke="#63b8ff" points="1762.8,-765.48 1767.71,-774.87 1769.73,-764.47 1762.8,-765.48"/>
</g>
<!-- Node34&#45;&gt;Node9 -->
<g id="edge105" class="edge">
<title>Node34&#45;&gt;Node9</title>
<path fill="none" stroke="#63b8ff" d="M769.28,-609.23C823.71,-610.32 903.63,-613.54 972.75,-622.77 1217.94,-655.5 1345.8,-585.88 1509,-771.77 1578.53,-850.96 1598.34,-1193.12 1602.7,-1293.19"/>
<polygon fill="#63b8ff" stroke="#63b8ff" points="1599.19,-1293.05 1603.1,-1302.89 1606.18,-1292.76 1599.19,-1293.05"/>
</g>
<!-- Node34&#45;&gt;Node11 -->
<g id="edge107" class="edge">
<title>Node34&#45;&gt;Node11</title>
<path fill="none" stroke="#63b8ff" d="M706.3,-624.99C711.43,-674.75 733.01,-827.53 810.5,-920.77 932.33,-1067.36 1013.51,-1051.03 1193.5,-1113.77 1226.08,-1125.12 1309.56,-1146.14 1371.43,-1161.2"/>
<polygon fill="#63b8ff" stroke="#63b8ff" points="1370.31,-1164.53 1380.85,-1163.49 1371.96,-1157.73 1370.31,-1164.53"/>
</g>
<!-- Node34&#45;&gt;Node15 -->
<g id="edge146" class="edge">
<title>Node34&#45;&gt;Node15</title>
<path fill="none" stroke="#63b8ff" d="M709.11,-625.25C719.55,-662.42 750.17,-753.1 810.5,-798.77 908.14,-872.69 1250.1,-850.57 1346.75,-925.77 1374.05,-947.01 1363.91,-965.76 1382.75,-994.77 1431.9,-1070.44 1471.53,-1071.68 1509,-1153.77 1545.05,-1232.75 1516.21,-1263.86 1545,-1345.77 1555.61,-1375.96 1573.55,-1407.96 1586.83,-1429.61"/>
<polygon fill="#63b8ff" stroke="#63b8ff" points="1583.84,-1431.45 1592.11,-1438.08 1589.78,-1427.74 1583.84,-1431.45"/>
</g>
<!-- Node34&#45;&gt;Node25 -->
<g id="edge106" class="edge">
<title>Node34&#45;&gt;Node25</title>
<path fill="none" stroke="#63b8ff" d="M705.97,-625.19C711.8,-708.63 741.65,-1085.19 810.5,-1175.77 869.86,-1253.86 917.23,-1237.46 1008.75,-1272.77 1072.96,-1297.54 1113.2,-1263.11 1157.5,-1315.77 1251.9,-1428 1092.14,-1537.78 1193.5,-1643.77 1205.93,-1656.77 1304.36,-1669.02 1374.29,-1676.21"/>
<polygon fill="#63b8ff" stroke="#63b8ff" points="1373.87,-1679.68 1384.18,-1677.21 1374.58,-1672.72 1373.87,-1679.68"/>
</g>
<!-- Node35 -->
<g id="node35" class="node">
<title>Node35</title>
<g id="a_node35"><a xlink:href="a01995.html#afb36cb588b795efa513fc95e949493b7" target="_top" xlink:title=" ">
<polygon fill="white" stroke="#666666" points="955.88,-530.77 827.38,-530.77 827.38,-498.77 955.88,-498.77 955.88,-530.77"/>
<text xml:space="preserve" text-anchor="start" x="835.38" y="-517.27" font-family="Helvetica,sans-Serif" font-size="10.00">nlohmann::detail::binary</text>
<text xml:space="preserve" text-anchor="middle" x="891.62" y="-505.27" font-family="Helvetica,sans-Serif" font-size="10.00">_reader::get_ubjson_array</text>
</a>
</g>
</g>
<!-- Node34&#45;&gt;Node35 -->
<g id="edge108" class="edge">
<title>Node34&#45;&gt;Node35</title>
<path fill="none" stroke="#63b8ff" d="M718.17,-592.41C737.53,-574.56 775.04,-547.49 810.5,-530.77 812.48,-529.84 814.5,-528.93 816.55,-528.05"/>
<polygon fill="#63b8ff" stroke="#63b8ff" points="817.63,-531.38 825.61,-524.42 815.03,-524.88 817.63,-531.38"/>
</g>
<!-- Node38 -->
<g id="node38" class="node">
<title>Node38</title>
<g id="a_node38"><a xlink:href="a01995.html#a26c694413fb860057e1a839d5422b361" target="_top" xlink:title=" ">
<polygon fill="white" stroke="#666666" points="1145.5,-756.77 1020.75,-756.77 1020.75,-712.77 1145.5,-712.77 1145.5,-756.77"/>
<text xml:space="preserve" text-anchor="start" x="1028.75" y="-743.27" font-family="Helvetica,sans-Serif" font-size="10.00">nlohmann::detail::binary</text>
<text xml:space="preserve" text-anchor="start" x="1028.75" y="-731.27" font-family="Helvetica,sans-Serif" font-size="10.00">_reader::get_ubjson_high</text>
<text xml:space="preserve" text-anchor="middle" x="1083.12" y="-719.27" font-family="Helvetica,sans-Serif" font-size="10.00">_precision_number</text>
</a>
</g>
</g>
<!-- Node34&#45;&gt;Node38 -->
<g id="edge125" class="edge">
<title>Node34&#45;&gt;Node38</title>
<path fill="none" stroke="#63b8ff" d="M718.34,-624.95C736.77,-645.86 771.98,-681.63 810.5,-698.77 873.62,-726.86 952.55,-734.67 1009.04,-736.16"/>
<polygon fill="#63b8ff" stroke="#63b8ff" points="1008.8,-739.66 1018.86,-736.35 1008.94,-732.66 1008.8,-739.66"/>
</g>
<!-- Node39 -->
<g id="node39" class="node">
<title>Node39</title>
<g id="a_node39"><a xlink:href="a01995.html#adcf64ad3207f4bf37a5a31c920a385c3" target="_top" xlink:title=" ">
<polygon fill="white" stroke="#666666" points="958.12,-580.77 825.12,-580.77 825.12,-548.77 958.12,-548.77 958.12,-580.77"/>
<text xml:space="preserve" text-anchor="start" x="833.12" y="-567.27" font-family="Helvetica,sans-Serif" font-size="10.00">nlohmann::detail::binary</text>
<text xml:space="preserve" text-anchor="middle" x="891.62" y="-555.27" font-family="Helvetica,sans-Serif" font-size="10.00">_reader::get_ubjson_object</text>
</a>
</g>
</g>
<!-- Node34&#45;&gt;Node39 -->
<g id="edge132" class="edge">
<title>Node34&#45;&gt;Node39</title>
<path fill="none" stroke="#63b8ff" d="M749.37,-592.37C768.65,-587.02 791.79,-581.27 813.71,-576.33"/>
<polygon fill="#63b8ff" stroke="#63b8ff" points="814.2,-579.8 823.21,-574.22 812.69,-572.97 814.2,-579.8"/>
</g>
<!-- Node40 -->
<g id="node40" class="node">
<title>Node40</title>
<g id="a_node40"><a xlink:href="a01995.html#a4ae90db51c102e912b7eac83c78733a6" target="_top" xlink:title="reads a UBJSON string">
<polygon fill="white" stroke="#666666" points="1335.5,-764.77 1204.75,-764.77 1204.75,-732.77 1335.5,-732.77 1335.5,-764.77"/>
<text xml:space="preserve" text-anchor="start" x="1212.75" y="-751.27" font-family="Helvetica,sans-Serif" font-size="10.00">nlohmann::detail::binary</text>
<text xml:space="preserve" text-anchor="middle" x="1270.12" y="-739.27" font-family="Helvetica,sans-Serif" font-size="10.00">_reader::get_ubjson_string</text>
</a>
</g>
</g>
<!-- Node34&#45;&gt;Node40 -->
<g id="edge145" class="edge">
<title>Node34&#45;&gt;Node40</title>
<path fill="none" stroke="#63b8ff" d="M769.11,-618.58C857.67,-632.93 1021.71,-662.5 1157.5,-703.77 1179.26,-710.38 1202.7,-719.51 1222.45,-727.81"/>
<polygon fill="#63b8ff" stroke="#63b8ff" points="1221.04,-731.02 1231.62,-731.73 1223.79,-724.58 1221.04,-731.02"/>
</g>
<!-- Node35&#45;&gt;Node10 -->
<g id="edge109" class="edge">
<title>Node35&#45;&gt;Node10</title>
<path fill="none" stroke="#63b8ff" d="M893.23,-498.34C896.1,-446.79 912.72,-287.81 1008.75,-221.77 1065.69,-182.61 1263.17,-196.75 1371.82,-208.09"/>
<polygon fill="#63b8ff" stroke="#63b8ff" points="1371.19,-211.55 1381.5,-209.13 1371.93,-204.59 1371.19,-211.55"/>
</g>
<!-- Node35&#45;&gt;Node33 -->
<g id="edge124" class="edge">
<title>Node35&#45;&gt;Node33</title>
<path fill="none" stroke="#63b8ff" d="M827.06,-523.44C766.7,-531.66 675.55,-544.09 608.95,-553.17"/>
<polygon fill="#63b8ff" stroke="#63b8ff" points="608.59,-549.69 599.15,-554.51 609.53,-556.62 608.59,-549.69"/>
</g>
<!-- Node35&#45;&gt;Node34 -->
<g id="edge123" class="edge">
<title>Node35&#45;&gt;Node34</title>
<path fill="none" stroke="#63b8ff" d="M857.1,-531.24C842.44,-536.15 825.26,-541.81 810.5,-548.77 788.23,-559.27 765.15,-573.85 746.27,-586.14"/>
<polygon fill="#63b8ff" stroke="#63b8ff" points="744.53,-583.1 738.07,-591.5 748.36,-588.96 744.53,-583.1"/>
</g>
<!-- Node36 -->
<g id="node36" class="node">
<title>Node36</title>
<g id="a_node36"><a xlink:href="a01995.html#a7b6c2d4c95d56751e233e285a5f1fea7" target="_top" xlink:title="determine the type and size for a container">
<polygon fill="white" stroke="#666666" points="1157.5,-498.77 1008.75,-498.77 1008.75,-466.77 1157.5,-466.77 1157.5,-498.77"/>
<text xml:space="preserve" text-anchor="start" x="1016.75" y="-485.27" font-family="Helvetica,sans-Serif" font-size="10.00">nlohmann::detail::binary</text>
<text xml:space="preserve" text-anchor="middle" x="1083.12" y="-473.27" font-family="Helvetica,sans-Serif" font-size="10.00">_reader::get_ubjson_size_type</text>
</a>
</g>
</g>
<!-- Node35&#45;&gt;Node36 -->
<g id="edge110" class="edge">
<title>Node35&#45;&gt;Node36</title>
<path fill="none" stroke="#63b8ff" d="M956.25,-504.02C969.49,-501.79 983.64,-499.4 997.49,-497.06"/>
<polygon fill="#63b8ff" stroke="#63b8ff" points="997.75,-500.57 1007.02,-495.45 996.58,-493.67 997.75,-500.57"/>
</g>
<!-- Node36&#45;&gt;Node5 -->
<g id="edge111" class="edge">
<title>Node36&#45;&gt;Node5</title>
<path fill="none" stroke="#63b8ff" d="M1117.19,-466.41C1138.42,-456.84 1166.9,-445.7 1193.5,-440.77 1245.1,-431.2 1627.48,-438.57 1664.5,-475.77 1718.41,-529.94 1687.22,-742.51 1700.5,-817.77 1717.01,-911.3 1747.43,-1019.9 1761.97,-1069.52"/>
<polygon fill="#63b8ff" stroke="#63b8ff" points="1758.53,-1070.22 1764.72,-1078.82 1765.25,-1068.24 1758.53,-1070.22"/>
</g>
<!-- Node36&#45;&gt;Node8 -->
<g id="edge112" class="edge">
<title>Node36&#45;&gt;Node8</title>
<path fill="none" stroke="#63b8ff" d="M1095.71,-466.39C1122.37,-428.82 1186.32,-339.38 1193.5,-335.77 1254.36,-305.19 1280.85,-318.57 1346.75,-335.77 1503.37,-376.65 1558.86,-391.12 1664.5,-513.77 1730.18,-590.02 1757,-711.25 1766.12,-765.25"/>
<polygon fill="#63b8ff" stroke="#63b8ff" points="1762.61,-765.49 1767.66,-774.81 1769.53,-764.38 1762.61,-765.49"/>
</g>
<!-- Node36&#45;&gt;Node9 -->
<g id="edge113" class="edge">
<title>Node36&#45;&gt;Node9</title>
<path fill="none" stroke="#63b8ff" d="M1132.1,-466.28C1185.92,-450.47 1275.06,-432.44 1346.75,-457.77 1434.14,-488.64 1463.74,-507.89 1509,-588.77 1578.73,-713.38 1598.86,-1175.79 1602.9,-1293.41"/>
<polygon fill="#63b8ff" stroke="#63b8ff" points="1599.39,-1293.19 1603.22,-1303.06 1606.39,-1292.95 1599.39,-1293.19"/>
</g>
<!-- Node36&#45;&gt;Node10 -->
<g id="edge114" class="edge">
<title>Node36&#45;&gt;Node10</title>
<path fill="none" stroke="#63b8ff" d="M1089.23,-466.47C1101.33,-430.53 1135.16,-344 1193.5,-297.77 1249.44,-253.44 1278.87,-271.81 1346.75,-249.77 1359.44,-245.65 1373.02,-241.14 1385.9,-236.82"/>
<polygon fill="#63b8ff" stroke="#63b8ff" points="1386.73,-240.24 1395.09,-233.73 1384.5,-233.6 1386.73,-240.24"/>
</g>
<!-- Node36&#45;&gt;Node11 -->
<g id="edge115" class="edge">
<title>Node36&#45;&gt;Node11</title>
<path fill="none" stroke="#63b8ff" d="M1090.85,-499.07C1105.49,-535.23 1140.26,-625.19 1157.5,-703.77 1172.93,-774.1 1146.05,-971.62 1193.5,-1025.77 1239.75,-1078.55 1287.06,-1026.87 1346.75,-1063.77 1383.01,-1086.19 1412.76,-1126.46 1429.67,-1152.9"/>
<polygon fill="#63b8ff" stroke="#63b8ff" points="1426.66,-1154.69 1434.9,-1161.34 1432.6,-1150.99 1426.66,-1154.69"/>
</g>
<!-- Node36&#45;&gt;Node15 -->
<g id="edge122" class="edge">
<title>Node36&#45;&gt;Node15</title>
<path fill="none" stroke="#63b8ff" d="M1118.54,-499.15C1202.93,-541.42 1419.71,-663.19 1509,-837.77 1560.53,-938.53 1513.65,-1237.03 1545,-1345.77 1553.9,-1376.66 1572.24,-1408.72 1586.08,-1430.21"/>
<polygon fill="#63b8ff" stroke="#63b8ff" points="1582.99,-1431.89 1591.42,-1438.31 1588.84,-1428.03 1582.99,-1431.89"/>
</g>
<!-- Node37 -->
<g id="node37" class="node">
<title>Node37</title>
<g id="a_node37"><a xlink:href="a01995.html#aba7ba9ec9a52ad2bee8baff70176aa20" target="_top" xlink:title=" ">
<polygon fill="white" stroke="#666666" points="1346.75,-498.77 1193.5,-498.77 1193.5,-466.77 1346.75,-466.77 1346.75,-498.77"/>
<text xml:space="preserve" text-anchor="start" x="1201.5" y="-485.27" font-family="Helvetica,sans-Serif" font-size="10.00">nlohmann::detail::binary</text>
<text xml:space="preserve" text-anchor="middle" x="1270.12" y="-473.27" font-family="Helvetica,sans-Serif" font-size="10.00">_reader::get_ubjson_size_value</text>
</a>
</g>
</g>
<!-- Node36&#45;&gt;Node37 -->
<g id="edge116" class="edge">
<title>Node36&#45;&gt;Node37</title>
<path fill="none" stroke="#63b8ff" d="M1157.77,-482.77C1165.65,-482.77 1173.72,-482.77 1181.73,-482.77"/>
<polygon fill="#63b8ff" stroke="#63b8ff" points="1181.49,-486.27 1191.49,-482.77 1181.49,-479.27 1181.49,-486.27"/>
</g>
<!-- Node37&#45;&gt;Node5 -->
<g id="edge117" class="edge">
<title>Node37&#45;&gt;Node5</title>
<path fill="none" stroke="#63b8ff" d="M1347.03,-477.63C1448.49,-472.54 1620.64,-470.68 1664.5,-512.77 1713.75,-560.02 1688.21,-750.64 1700.5,-817.77 1717.6,-911.22 1747.76,-1019.92 1762.1,-1069.55"/>
<polygon fill="#63b8ff" stroke="#63b8ff" points="1758.74,-1070.5 1764.89,-1079.12 1765.46,-1068.54 1758.74,-1070.5"/>
</g>
<!-- Node37&#45;&gt;Node8 -->
<g id="edge118" class="edge">
<title>Node37&#45;&gt;Node8</title>
<path fill="none" stroke="#63b8ff" d="M1315.59,-499.14C1325.94,-503.3 1336.84,-507.96 1346.75,-512.77 1493.6,-583.94 1532.76,-600.46 1664.5,-696.77 1694.56,-718.75 1725.73,-748.01 1746.35,-768.43"/>
<polygon fill="#63b8ff" stroke="#63b8ff" points="1743.62,-770.65 1753.17,-775.25 1748.57,-765.7 1743.62,-770.65"/>
</g>
<!-- Node37&#45;&gt;Node10 -->
<g id="edge119" class="edge">
<title>Node37&#45;&gt;Node10</title>
<path fill="none" stroke="#63b8ff" d="M1281.73,-466.53C1310.87,-421.92 1392.34,-297.19 1427.91,-242.75"/>
<polygon fill="#63b8ff" stroke="#63b8ff" points="1430.82,-244.69 1433.36,-234.4 1424.96,-240.86 1430.82,-244.69"/>
</g>
<!-- Node37&#45;&gt;Node11 -->
<g id="edge121" class="edge">
<title>Node37&#45;&gt;Node11</title>
<path fill="none" stroke="#63b8ff" d="M1276.78,-498.98C1290.12,-537.59 1324.13,-638.13 1346.75,-723.77 1389.18,-884.41 1426.75,-1080.51 1439.9,-1151.49"/>
<polygon fill="#63b8ff" stroke="#63b8ff" points="1436.4,-1151.83 1441.66,-1161.03 1443.29,-1150.57 1436.4,-1151.83"/>
</g>
<!-- Node37&#45;&gt;Node25 -->
<g id="edge120" class="edge">
<title>Node37&#45;&gt;Node25</title>
<path fill="none" stroke="#63b8ff" d="M1277.86,-499.06C1293.35,-537.41 1331.36,-636.76 1346.75,-723.77 1407.34,-1066.38 1316.43,-1164.22 1382.75,-1505.77 1393.46,-1560.92 1417.94,-1622.11 1432.78,-1656.16"/>
<polygon fill="#63b8ff" stroke="#63b8ff" points="1429.54,-1657.51 1436.79,-1665.24 1435.95,-1654.68 1429.54,-1657.51"/>
</g>
<!-- Node38&#45;&gt;Node3 -->
<g id="edge130" class="edge">
<title>Node38&#45;&gt;Node3</title>
<path fill="none" stroke="#63b8ff" d="M1091.54,-757C1105.29,-798.56 1135.37,-890.97 1157.5,-969.77 1175.34,-1033.28 1176.05,-1050.15 1193.5,-1113.77 1216.2,-1196.53 1246.14,-1293.54 1260.59,-1339.71"/>
<polygon fill="#63b8ff" stroke="#63b8ff" points="1257.21,-1340.63 1263.55,-1349.12 1263.89,-1338.53 1257.21,-1340.63"/>
</g>
<!-- Node38&#45;&gt;Node5 -->
<g id="edge126" class="edge">
<title>Node38&#45;&gt;Node5</title>
<path fill="none" stroke="#63b8ff" d="M1089.68,-712.32C1101.13,-671.46 1131.64,-585.96 1193.5,-550.77 1284.47,-499.01 1585.7,-481.88 1664.5,-550.77 1709.57,-590.17 1689.23,-758.97 1700.5,-817.77 1718.38,-911.08 1748.15,-1019.84 1762.26,-1069.52"/>
<polygon fill="#63b8ff" stroke="#63b8ff" points="1758.88,-1070.45 1764.99,-1079.1 1765.61,-1068.52 1758.88,-1070.45"/>
</g>
<!-- Node38&#45;&gt;Node8 -->
<g id="edge127" class="edge">
<title>Node38&#45;&gt;Node8</title>
<path fill="none" stroke="#63b8ff" d="M1089.53,-712.4C1104.62,-651.97 1149.04,-488.01 1193.5,-457.77 1249.82,-419.46 1280.08,-443.82 1346.75,-457.77 1500.36,-489.91 1551.44,-502.93 1664.5,-611.77 1711.49,-657.01 1744.47,-727.67 1760.02,-765.95"/>
<polygon fill="#63b8ff" stroke="#63b8ff" points="1756.62,-766.86 1763.55,-774.87 1763.12,-764.29 1756.62,-766.86"/>
</g>
<!-- Node38&#45;&gt;Node9 -->
<g id="edge128" class="edge">
<title>Node38&#45;&gt;Node9</title>
<path fill="none" stroke="#63b8ff" d="M1140.29,-757.2C1249.89,-801.43 1483.81,-898.24 1509,-928.77 1555.94,-985.66 1589.79,-1214.42 1600.31,-1293.62"/>
<polygon fill="#63b8ff" stroke="#63b8ff" points="1596.78,-1293.63 1601.54,-1303.09 1603.72,-1292.72 1596.78,-1293.63"/>
</g>
<!-- Node38&#45;&gt;Node15 -->
<g id="edge131" class="edge">
<title>Node38&#45;&gt;Node15</title>
<path fill="none" stroke="#63b8ff" d="M1106.48,-757C1127.58,-777.1 1160.77,-806.57 1193.5,-826.77 1256.61,-865.72 1284.71,-852.15 1346.75,-892.77 1429.42,-946.9 1464.38,-956.61 1509,-1044.77 1569.84,-1164.98 1504.57,-1217.25 1545,-1345.77 1554.65,-1376.44 1572.87,-1408.53 1586.47,-1430.09"/>
<polygon fill="#63b8ff" stroke="#63b8ff" points="1583.35,-1431.71 1591.71,-1438.21 1589.23,-1427.91 1583.35,-1431.71"/>
</g>
<!-- Node38&#45;&gt;Node37 -->
<g id="edge129" class="edge">
<title>Node38&#45;&gt;Node37</title>
<path fill="none" stroke="#63b8ff" d="M1089.4,-712.3C1100.86,-668.15 1132.09,-569.45 1193.5,-512.77 1196.59,-509.92 1199.98,-507.33 1203.56,-504.97"/>
<polygon fill="#63b8ff" stroke="#63b8ff" points="1205.2,-508.06 1212.11,-500.03 1201.7,-502.01 1205.2,-508.06"/>
</g>
<!-- Node39&#45;&gt;Node10 -->
<g id="edge133" class="edge">
<title>Node39&#45;&gt;Node10</title>
<path fill="none" stroke="#63b8ff" d="M958.61,-549.5C963.71,-546.77 968.51,-543.56 972.75,-539.77 1002.42,-513.23 987.27,-491.28 1008.75,-457.77 1075.47,-353.67 1084.26,-307.69 1193.5,-249.77 1223.47,-233.88 1308.5,-225.16 1371.41,-220.74"/>
<polygon fill="#63b8ff" stroke="#63b8ff" points="1371.63,-224.23 1381.37,-220.06 1371.15,-217.25 1371.63,-224.23"/>
</g>
<!-- Node39&#45;&gt;Node33 -->
<g id="edge144" class="edge">
<title>Node39&#45;&gt;Node33</title>
<path fill="none" stroke="#63b8ff" d="M824.66,-564.77C764.26,-564.77 674.54,-564.77 608.81,-564.77"/>
<polygon fill="#63b8ff" stroke="#63b8ff" points="609.16,-561.27 599.16,-564.77 609.16,-568.27 609.16,-561.27"/>
</g>
<!-- Node39&#45;&gt;Node34 -->
<g id="edge143" class="edge">
<title>Node39&#45;&gt;Node34</title>
<path fill="none" stroke="#63b8ff" d="M845.87,-581.24C826.24,-586.68 802.66,-592.53 780.44,-597.51"/>
<polygon fill="#63b8ff" stroke="#63b8ff" points="779.81,-594.07 770.8,-599.64 781.32,-600.91 779.81,-594.07"/>
</g>
<!-- Node39&#45;&gt;Node36 -->
<g id="edge134" class="edge">
<title>Node39&#45;&gt;Node36</title>
<path fill="none" stroke="#63b8ff" d="M949.54,-548.39C957.42,-545.72 965.34,-542.83 972.75,-539.77 997.13,-529.71 1023.38,-516.13 1044.04,-504.75"/>
<polygon fill="#63b8ff" stroke="#63b8ff" points="1045.65,-507.86 1052.68,-499.94 1042.24,-501.75 1045.65,-507.86"/>
</g>
<!-- Node39&#45;&gt;Node40 -->
<g id="edge135" class="edge">
<title>Node39&#45;&gt;Node40</title>
<path fill="none" stroke="#63b8ff" d="M943.47,-581.21C997.97,-599.72 1086.25,-632.28 1157.5,-670.77 1186.85,-686.63 1217.76,-708.7 1239.6,-725.32"/>
<polygon fill="#63b8ff" stroke="#63b8ff" points="1237.4,-728.05 1247.46,-731.38 1241.67,-722.51 1237.4,-728.05"/>
</g>
<!-- Node40&#45;&gt;Node5 -->
<g id="edge136" class="edge">
<title>Node40&#45;&gt;Node5</title>
<path fill="none" stroke="#63b8ff" d="M1335.88,-741.9C1386.06,-739.56 1455.79,-743.03 1509,-771.77 1525.83,-780.86 1693.02,-996.67 1750.69,-1071.5"/>
<polygon fill="#63b8ff" stroke="#63b8ff" points="1747.67,-1073.31 1756.54,-1079.1 1753.21,-1069.04 1747.67,-1073.31"/>
</g>
<!-- Node40&#45;&gt;Node8 -->
<g id="edge137" class="edge">
<title>Node40&#45;&gt;Node8</title>
<path fill="none" stroke="#63b8ff" d="M1301.85,-732.27C1323.72,-721.5 1354.17,-708.43 1382.75,-702.77 1506.7,-678.23 1545.74,-697.61 1664.5,-740.77 1687.3,-749.05 1711.66,-760.83 1731.23,-771.08"/>
<polygon fill="#63b8ff" stroke="#63b8ff" points="1729.48,-774.12 1739.95,-775.72 1732.76,-767.94 1729.48,-774.12"/>
</g>
<!-- Node40&#45;&gt;Node9 -->
<g id="edge138" class="edge">
<title>Node40&#45;&gt;Node9</title>
<path fill="none" stroke="#63b8ff" d="M1335.96,-760.3C1390.61,-773.52 1466.5,-800.76 1509,-854.77 1563.73,-924.33 1593.25,-1204.27 1601.39,-1293.38"/>
<polygon fill="#63b8ff" stroke="#63b8ff" points="1597.89,-1293.49 1602.27,-1303.14 1604.86,-1292.87 1597.89,-1293.49"/>
</g>
<!-- Node40&#45;&gt;Node11 -->
<g id="edge141" class="edge">
<title>Node40&#45;&gt;Node11</title>
<path fill="none" stroke="#63b8ff" d="M1278.19,-764.8C1291.79,-795.77 1322.42,-866.04 1346.75,-925.77 1380.1,-1007.62 1417.26,-1105.37 1434.75,-1151.77"/>
<polygon fill="#63b8ff" stroke="#63b8ff" points="1431.42,-1152.87 1438.22,-1161 1437.97,-1150.41 1431.42,-1152.87"/>
</g>
<!-- Node40&#45;&gt;Node15 -->
<g id="edge142" class="edge">
<title>Node40&#45;&gt;Node15</title>
<path fill="none" stroke="#63b8ff" d="M1293.81,-765.02C1342.98,-801.69 1458.98,-896.33 1509,-1006.77 1571.52,-1144.78 1500.49,-1200.94 1545,-1345.77 1554.44,-1376.5 1572.7,-1408.59 1586.36,-1430.12"/>
<polygon fill="#63b8ff" stroke="#63b8ff" points="1583.25,-1431.76 1591.63,-1438.24 1589.13,-1427.95 1583.25,-1431.76"/>
</g>
<!-- Node40&#45;&gt;Node20 -->
<g id="edge140" class="edge">
<title>Node40&#45;&gt;Node20</title>
<path fill="none" stroke="#63b8ff" d="M1280.35,-765.22C1296.97,-795.75 1331.62,-863.76 1346.75,-925.77 1372.11,-1029.69 1319.6,-1319.43 1382.75,-1405.77 1382.9,-1405.97 1383.05,-1406.18 1383.21,-1406.38"/>
<polygon fill="#63b8ff" stroke="#63b8ff" points="1380.64,-1408.77 1390.21,-1413.32 1385.57,-1403.8 1380.64,-1408.77"/>
</g>
<!-- Node40&#45;&gt;Node25 -->
<g id="edge139" class="edge">
<title>Node40&#45;&gt;Node25</title>
<path fill="none" stroke="#63b8ff" d="M1280.43,-765.2C1297.17,-795.7 1332.02,-863.67 1346.75,-925.77 1406.36,-1177.07 1331.5,-1252.63 1382.75,-1505.77 1393.9,-1560.83 1418.23,-1622.05 1432.92,-1656.13"/>
<polygon fill="#63b8ff" stroke="#63b8ff" points="1429.67,-1657.46 1436.89,-1665.22 1436.09,-1654.65 1429.67,-1657.46"/>
</g>
</g>
</svg>
