<?xml version="1.0" encoding="UTF-8" standalone="no"?>
<!DOCTYPE svg PUBLIC "-//W3C//DTD SVG 1.1//EN"
 "http://www.w3.org/Graphics/SVG/1.1/DTD/svg11.dtd">
<!-- Generated by graphviz version 13.1.2 (20250808.2320)
 -->
<!-- Title: nlohmann::basic_json::dump Pages: 1 -->
<svg width="795pt" height="249pt"
 viewBox="0.00 0.00 795.00 249.00" xmlns="http://www.w3.org/2000/svg" xmlns:xlink="http://www.w3.org/1999/xlink">
<g id="graph0" class="graph" transform="scale(1 1) rotate(0) translate(4 245)">
<title>nlohmann::basic_json::dump</title>
<!-- Node1 -->
<g id="node1" class="node">
<title>Node1</title>
<g id="a_node1"><a xlink:title="serialization">
<polygon fill="#999999" stroke="#666666" points="110.5,-123 0,-123 0,-91 110.5,-91 110.5,-123"/>
<text xml:space="preserve" text-anchor="start" x="8" y="-109.5" font-family="Helvetica,sans-Serif" font-size="10.00">nlohmann::basic_json</text>
<text xml:space="preserve" text-anchor="middle" x="55.25" y="-97.5" font-family="Helvetica,sans-Serif" font-size="10.00">::dump</text>
</a>
</g>
</g>
<!-- Node2 -->
<g id="node2" class="node">
<title>Node2</title>
<g id="a_node2"><a xlink:href="a02055.html#a95460ebd1a535a543e5a0ec52e00f48b" target="_top" xlink:title="internal implementation of the serialization function">
<polygon fill="white" stroke="#666666" points="278.75,-123 146.5,-123 146.5,-91 278.75,-91 278.75,-123"/>
<text xml:space="preserve" text-anchor="start" x="154.5" y="-109.5" font-family="Helvetica,sans-Serif" font-size="10.00">nlohmann::detail::serializer</text>
<text xml:space="preserve" text-anchor="middle" x="212.62" y="-97.5" font-family="Helvetica,sans-Serif" font-size="10.00">::dump</text>
</a>
</g>
</g>
<!-- Node1&#45;&gt;Node2 -->
<g id="edge1" class="edge">
<title>Node1&#45;&gt;Node2</title>
<path fill="none" stroke="#63b8ff" d="M110.59,-107C118.38,-107 126.52,-107 134.65,-107"/>
<polygon fill="#63b8ff" stroke="#63b8ff" points="134.58,-110.5 144.58,-107 134.58,-103.5 134.58,-110.5"/>
</g>
<!-- Node2&#45;&gt;Node2 -->
<g id="edge2" class="edge">
<title>Node2&#45;&gt;Node2</title>
<path fill="none" stroke="#63b8ff" d="M184.53,-123.44C179.28,-132.58 188.65,-141 212.62,-141 225.74,-141 234.48,-138.48 238.85,-134.71"/>
<polygon fill="#63b8ff" stroke="#63b8ff" points="242.29,-135.37 240.47,-124.94 235.38,-134.23 242.29,-135.37"/>
</g>
<!-- Node3 -->
<g id="node3" class="node">
<title>Node3</title>
<g id="a_node3"><a xlink:href="a02055.html#ac1f8d1165b44149bd8be397dce68ea05" target="_top" xlink:title="dump escaped string">
<polygon fill="white" stroke="#666666" points="447,-191 314.75,-191 314.75,-159 447,-159 447,-191"/>
<text xml:space="preserve" text-anchor="start" x="322.75" y="-177.5" font-family="Helvetica,sans-Serif" font-size="10.00">nlohmann::detail::serializer</text>
<text xml:space="preserve" text-anchor="middle" x="380.88" y="-165.5" font-family="Helvetica,sans-Serif" font-size="10.00">::dump_escaped</text>
</a>
</g>
</g>
<!-- Node2&#45;&gt;Node3 -->
<g id="edge3" class="edge">
<title>Node2&#45;&gt;Node3</title>
<path fill="none" stroke="#63b8ff" d="M251.43,-123.45C270.37,-131.6 293.7,-141.49 314.75,-150 318.34,-151.45 322.05,-152.93 325.79,-154.41"/>
<polygon fill="#63b8ff" stroke="#63b8ff" points="324.35,-157.6 334.94,-157.99 326.9,-151.08 324.35,-157.6"/>
</g>
<!-- Node8 -->
<g id="node8" class="node">
<title>Node8</title>
<g id="a_node8"><a xlink:href="a02055.html#a6d652a3bfa581cf1cd7790d6d11ea52f" target="_top" xlink:title="dump a floating&#45;point number">
<polygon fill="white" stroke="#666666" points="447,-123 314.75,-123 314.75,-91 447,-91 447,-123"/>
<text xml:space="preserve" text-anchor="start" x="322.75" y="-109.5" font-family="Helvetica,sans-Serif" font-size="10.00">nlohmann::detail::serializer</text>
<text xml:space="preserve" text-anchor="middle" x="380.88" y="-97.5" font-family="Helvetica,sans-Serif" font-size="10.00">::dump_float</text>
</a>
</g>
</g>
<!-- Node2&#45;&gt;Node8 -->
<g id="edge8" class="edge">
<title>Node2&#45;&gt;Node8</title>
<path fill="none" stroke="#63b8ff" d="M278.85,-107C286.77,-107 294.91,-107 302.97,-107"/>
<polygon fill="#63b8ff" stroke="#63b8ff" points="302.77,-110.5 312.77,-107 302.77,-103.5 302.77,-110.5"/>
</g>
<!-- Node9 -->
<g id="node9" class="node">
<title>Node9</title>
<g id="a_node9"><a xlink:href="a02055.html#a944f6dea8dbe2961da145d2f62fa2c2f" target="_top" xlink:title="dump an integer">
<polygon fill="white" stroke="#666666" points="447,-73 314.75,-73 314.75,-41 447,-41 447,-73"/>
<text xml:space="preserve" text-anchor="start" x="322.75" y="-59.5" font-family="Helvetica,sans-Serif" font-size="10.00">nlohmann::detail::serializer</text>
<text xml:space="preserve" text-anchor="middle" x="380.88" y="-47.5" font-family="Helvetica,sans-Serif" font-size="10.00">::dump_integer</text>
</a>
</g>
</g>
<!-- Node2&#45;&gt;Node9 -->
<g id="edge10" class="edge">
<title>Node2&#45;&gt;Node9</title>
<path fill="none" stroke="#63b8ff" d="M268.06,-90.63C282.77,-86.2 298.84,-81.37 314.1,-76.78"/>
<polygon fill="#63b8ff" stroke="#63b8ff" points="315.01,-80.16 323.58,-73.93 313,-73.46 315.01,-80.16"/>
</g>
<!-- Node4 -->
<g id="node4" class="node">
<title>Node4</title>
<g id="a_node4"><a xlink:href="a01571.html#aecc083aea4b698c33d042670ba50c10f" target="_top" xlink:title=" ">
<polygon fill="white" stroke="#666666" points="605.12,-241 493.12,-241 493.12,-209 605.12,-209 605.12,-241"/>
<text xml:space="preserve" text-anchor="start" x="501.12" y="-227.5" font-family="Helvetica,sans-Serif" font-size="10.00">nlohmann::detail::type</text>
<text xml:space="preserve" text-anchor="middle" x="549.12" y="-215.5" font-family="Helvetica,sans-Serif" font-size="10.00">_error::create</text>
</a>
</g>
</g>
<!-- Node3&#45;&gt;Node4 -->
<g id="edge4" class="edge">
<title>Node3&#45;&gt;Node4</title>
<path fill="none" stroke="#63b8ff" d="M436.31,-191.37C451.02,-195.8 467.09,-200.63 482.35,-205.22"/>
<polygon fill="#63b8ff" stroke="#63b8ff" points="481.25,-208.54 491.83,-208.07 483.26,-201.84 481.25,-208.54"/>
</g>
<!-- Node6 -->
<g id="node6" class="node">
<title>Node6</title>
<g id="a_node6"><a xlink:href="a02055.html#abdcc4fd1dc5d3afb6c0817e4c89b1242" target="_top" xlink:title="check whether a string is UTF&#45;8 encoded">
<polygon fill="white" stroke="#666666" points="615.25,-191 483,-191 483,-159 615.25,-159 615.25,-191"/>
<text xml:space="preserve" text-anchor="start" x="491" y="-177.5" font-family="Helvetica,sans-Serif" font-size="10.00">nlohmann::detail::serializer</text>
<text xml:space="preserve" text-anchor="middle" x="549.12" y="-165.5" font-family="Helvetica,sans-Serif" font-size="10.00">::decode</text>
</a>
</g>
</g>
<!-- Node3&#45;&gt;Node6 -->
<g id="edge6" class="edge">
<title>Node3&#45;&gt;Node6</title>
<path fill="none" stroke="#63b8ff" d="M447.1,-175C455.02,-175 463.16,-175 471.22,-175"/>
<polygon fill="#63b8ff" stroke="#63b8ff" points="471.02,-178.5 481.02,-175 471.02,-171.5 471.02,-178.5"/>
</g>
<!-- Node7 -->
<g id="node7" class="node">
<title>Node7</title>
<g id="a_node7"><a xlink:href="a02039.html#ab77aa48692bd4e64e4f051ce6aeb6d2d" target="_top" xlink:title=" ">
<polygon fill="white" stroke="#666666" points="608.88,-141 489.38,-141 489.38,-109 608.88,-109 608.88,-141"/>
<text xml:space="preserve" text-anchor="start" x="497.38" y="-127.5" font-family="Helvetica,sans-Serif" font-size="10.00">nlohmann::detail::binary</text>
<text xml:space="preserve" text-anchor="middle" x="549.12" y="-115.5" font-family="Helvetica,sans-Serif" font-size="10.00">_writer::to_char_type</text>
</a>
</g>
</g>
<!-- Node3&#45;&gt;Node7 -->
<g id="edge7" class="edge">
<title>Node3&#45;&gt;Node7</title>
<path fill="none" stroke="#63b8ff" d="M436.31,-158.63C451.02,-154.2 467.09,-149.37 482.35,-144.78"/>
<polygon fill="#63b8ff" stroke="#63b8ff" points="483.26,-148.16 491.83,-141.93 481.25,-141.46 483.26,-148.16"/>
</g>
<!-- Node5 -->
<g id="node5" class="node">
<title>Node5</title>
<g id="a_node5"><a xlink:href="a01559.html#abf41a7e9178356314082284e6cfea278" target="_top" xlink:title=" ">
<polygon fill="white" stroke="#666666" points="786.5,-241 651.25,-241 651.25,-209 786.5,-209 786.5,-241"/>
<text xml:space="preserve" text-anchor="start" x="659.25" y="-227.5" font-family="Helvetica,sans-Serif" font-size="10.00">nlohmann::detail::exception</text>
<text xml:space="preserve" text-anchor="middle" x="718.88" y="-215.5" font-family="Helvetica,sans-Serif" font-size="10.00">::name</text>
</a>
</g>
</g>
<!-- Node4&#45;&gt;Node5 -->
<g id="edge5" class="edge">
<title>Node4&#45;&gt;Node5</title>
<path fill="none" stroke="#63b8ff" d="M605.52,-225C616.4,-225 628,-225 639.47,-225"/>
<polygon fill="#63b8ff" stroke="#63b8ff" points="639.35,-228.5 649.35,-225 639.35,-221.5 639.35,-228.5"/>
</g>
<!-- Node8&#45;&gt;Node8 -->
<g id="edge9" class="edge">
<title>Node8&#45;&gt;Node8</title>
<path fill="none" stroke="#63b8ff" d="M350.84,-123.44C345.23,-132.58 355.24,-141 380.88,-141 394.89,-141 404.24,-138.48 408.91,-134.71"/>
<polygon fill="#63b8ff" stroke="#63b8ff" points="412.35,-135.39 410.65,-124.93 405.45,-134.17 412.35,-135.39"/>
</g>
<!-- Node10 -->
<g id="node10" class="node">
<title>Node10</title>
<g id="a_node10"><a xlink:href="a02055.html#a10692e98ea1f5a64de1d0b8e0e724b99" target="_top" xlink:title="count digits">
<polygon fill="white" stroke="#666666" points="615.25,-82 483,-82 483,-50 615.25,-50 615.25,-82"/>
<text xml:space="preserve" text-anchor="start" x="491" y="-68.5" font-family="Helvetica,sans-Serif" font-size="10.00">nlohmann::detail::serializer</text>
<text xml:space="preserve" text-anchor="middle" x="549.12" y="-56.5" font-family="Helvetica,sans-Serif" font-size="10.00">::count_digits</text>
</a>
</g>
</g>
<!-- Node9&#45;&gt;Node10 -->
<g id="edge11" class="edge">
<title>Node9&#45;&gt;Node10</title>
<path fill="none" stroke="#63b8ff" d="M447.1,-60.53C455.02,-60.96 463.16,-61.4 471.22,-61.84"/>
<polygon fill="#63b8ff" stroke="#63b8ff" points="470.85,-65.32 481.03,-62.37 471.23,-58.33 470.85,-65.32"/>
</g>
<!-- Node11 -->
<g id="node11" class="node">
<title>Node11</title>
<g id="a_node11"><a xlink:href="a02055.html#a45bcb8ea41e4db5461e979d4b1d5e5e7" target="_top" xlink:title=" ">
<polygon fill="white" stroke="#666666" points="615.25,-32 483,-32 483,0 615.25,0 615.25,-32"/>
<text xml:space="preserve" text-anchor="start" x="491" y="-18.5" font-family="Helvetica,sans-Serif" font-size="10.00">nlohmann::detail::serializer</text>
<text xml:space="preserve" text-anchor="middle" x="549.12" y="-6.5" font-family="Helvetica,sans-Serif" font-size="10.00">::remove_sign</text>
</a>
</g>
</g>
<!-- Node9&#45;&gt;Node11 -->
<g id="edge12" class="edge">
<title>Node9&#45;&gt;Node11</title>
<path fill="none" stroke="#63b8ff" d="M447.1,-40.91C455.11,-38.94 463.35,-36.91 471.5,-34.9"/>
<polygon fill="#63b8ff" stroke="#63b8ff" points="472.2,-38.33 481.07,-32.54 470.52,-31.53 472.2,-38.33"/>
</g>
</g>
</svg>
