<?xml version="1.0" encoding="UTF-8" standalone="no"?>
<!DOCTYPE svg PUBLIC "-//W3C//DTD SVG 1.1//EN"
 "http://www.w3.org/Graphics/SVG/1.1/DTD/svg11.dtd">
<!-- Generated by graphviz version 13.1.2 (20250808.2320)
 -->
<!-- Title: nlohmann::basic_json::object Pages: 1 -->
<svg width="265pt" height="176pt"
 viewBox="0.00 0.00 265.00 176.00" xmlns="http://www.w3.org/2000/svg" xmlns:xlink="http://www.w3.org/1999/xlink">
<g id="graph0" class="graph" transform="scale(1 1) rotate(0) translate(4 172)">
<title>nlohmann::basic_json::object</title>
<!-- Node1 -->
<g id="node1" class="node">
<title>Node1</title>
<g id="a_node1"><a xlink:title="explicitly create an object from an initializer list">
<polygon fill="#999999" stroke="#666666" points="257,-100 146.5,-100 146.5,-68 257,-68 257,-100"/>
<text xml:space="preserve" text-anchor="start" x="154.5" y="-86.5" font-family="Helvetica,sans-Serif" font-size="10.00">nlohmann::basic_json</text>
<text xml:space="preserve" text-anchor="middle" x="201.75" y="-74.5" font-family="Helvetica,sans-Serif" font-size="10.00">::object</text>
</a>
</g>
</g>
<!-- Node2 -->
<g id="node2" class="node">
<title>Node2</title>
<g id="a_node2"><a xlink:href="a01659.html#a9a240441a9ebe4b15fe026da9726387c" target="_top" xlink:title="helper for exception&#45;safe object creation">
<polygon fill="white" stroke="#666666" points="110.5,-168 0,-168 0,-136 110.5,-136 110.5,-168"/>
<text xml:space="preserve" text-anchor="start" x="8" y="-154.5" font-family="Helvetica,sans-Serif" font-size="10.00">nlohmann::basic_json</text>
<text xml:space="preserve" text-anchor="middle" x="55.25" y="-142.5" font-family="Helvetica,sans-Serif" font-size="10.00">::create</text>
</a>
</g>
</g>
<!-- Node1&#45;&gt;Node2 -->
<g id="edge1" class="edge">
<title>Node1&#45;&gt;Node2</title>
<path fill="none" stroke="#63b8ff" d="M156.25,-105.34C141.69,-112.29 125.42,-120.01 110.5,-127 104.58,-129.77 98.29,-132.69 92.17,-135.52"/>
<polygon fill="#63b8ff" stroke="#63b8ff" points="157.63,-108.56 165.15,-101.09 154.62,-102.24 157.63,-108.56"/>
</g>
<!-- Node3 -->
<g id="node3" class="node">
<title>Node3</title>
<g id="a_node3"><a xlink:href="a01659.html#a1c1f21327df91a4dd6c5f5a107240385" target="_top" xlink:title="creates a diff as a JSON patch">
<polygon fill="white" stroke="#666666" points="110.5,-100 0,-100 0,-68 110.5,-68 110.5,-100"/>
<text xml:space="preserve" text-anchor="start" x="8" y="-86.5" font-family="Helvetica,sans-Serif" font-size="10.00">nlohmann::basic_json</text>
<text xml:space="preserve" text-anchor="middle" x="55.25" y="-74.5" font-family="Helvetica,sans-Serif" font-size="10.00">::diff</text>
</a>
</g>
</g>
<!-- Node1&#45;&gt;Node3 -->
<g id="edge2" class="edge">
<title>Node1&#45;&gt;Node3</title>
<path fill="none" stroke="#63b8ff" d="M134.63,-84C126.71,-84 118.69,-84 110.96,-84"/>
<polygon fill="#63b8ff" stroke="#63b8ff" points="134.61,-87.5 144.61,-84 134.61,-80.5 134.61,-87.5"/>
</g>
<!-- Node4 -->
<g id="node4" class="node">
<title>Node4</title>
<g id="a_node4"><a xlink:href="a01659.html#a844a77cb154752d12118f10af26d54cb" target="_top" xlink:title="applies a JSON Merge Patch">
<polygon fill="white" stroke="#666666" points="110.5,-32 0,-32 0,0 110.5,0 110.5,-32"/>
<text xml:space="preserve" text-anchor="start" x="8" y="-18.5" font-family="Helvetica,sans-Serif" font-size="10.00">nlohmann::basic_json</text>
<text xml:space="preserve" text-anchor="middle" x="55.25" y="-6.5" font-family="Helvetica,sans-Serif" font-size="10.00">::merge_patch</text>
</a>
</g>
</g>
<!-- Node1&#45;&gt;Node4 -->
<g id="edge4" class="edge">
<title>Node1&#45;&gt;Node4</title>
<path fill="none" stroke="#63b8ff" d="M155.58,-62.74C134.79,-52.96 110.51,-41.53 91.16,-32.43"/>
<polygon fill="#63b8ff" stroke="#63b8ff" points="153.86,-65.8 164.4,-66.89 156.84,-59.47 153.86,-65.8"/>
</g>
<!-- Node3&#45;&gt;Node3 -->
<g id="edge3" class="edge">
<title>Node3&#45;&gt;Node3</title>
<path fill="none" stroke="#63b8ff" d="M79.66,-111.71C75.59,-115.48 67.46,-118 55.25,-118 32.93,-118 24.21,-109.58 29.1,-100.44"/>
<polygon fill="#63b8ff" stroke="#63b8ff" points="83.1,-112.36 81.17,-101.94 76.19,-111.29 83.1,-112.36"/>
</g>
<!-- Node4&#45;&gt;Node4 -->
<g id="edge5" class="edge">
<title>Node4&#45;&gt;Node4</title>
<path fill="none" stroke="#63b8ff" d="M79.66,-43.71C75.59,-47.48 67.46,-50 55.25,-50 32.93,-50 24.21,-41.58 29.1,-32.44"/>
<polygon fill="#63b8ff" stroke="#63b8ff" points="83.1,-44.36 81.17,-33.94 76.19,-43.29 83.1,-44.36"/>
</g>
</g>
</svg>
