<?xml version="1.0" encoding="UTF-8" standalone="no"?>
<!DOCTYPE svg PUBLIC "-//W3C//DTD SVG 1.1//EN"
 "http://www.w3.org/Graphics/SVG/1.1/DTD/svg11.dtd">
<!-- Generated by graphviz version 13.1.2 (20250808.2320)
 -->
<!-- Title: nlohmann::detail::is_compatible_string_type&lt; BasicJsonType, ConstructibleStringType &gt; Pages: 1 -->
<svg width="495pt" height="64pt"
 viewBox="0.00 0.00 495.00 64.00" xmlns="http://www.w3.org/2000/svg" xmlns:xlink="http://www.w3.org/1999/xlink">
<g id="graph0" class="graph" transform="scale(1 1) rotate(0) translate(4 60)">
<title>nlohmann::detail::is_compatible_string_type&lt; BasicJsonType, ConstructibleStringType &gt;</title>
<!-- Node1 -->
<g id="node1" class="node">
<title>Node1</title>
<g id="a_node1"><a xlink:title=" ">
<polygon fill="#999999" stroke="#666666" points="486.75,-56 331.25,-56 331.25,0 486.75,0 486.75,-56"/>
<text xml:space="preserve" text-anchor="start" x="339.25" y="-42.5" font-family="Helvetica,sans-Serif" font-size="10.00">nlohmann::detail::is</text>
<text xml:space="preserve" text-anchor="start" x="339.25" y="-30.5" font-family="Helvetica,sans-Serif" font-size="10.00">_compatible_string_type</text>
<text xml:space="preserve" text-anchor="start" x="339.25" y="-18.5" font-family="Helvetica,sans-Serif" font-size="10.00">&lt; BasicJsonType, Constructible</text>
<text xml:space="preserve" text-anchor="middle" x="409" y="-6.5" font-family="Helvetica,sans-Serif" font-size="10.00">StringType &gt;</text>
</a>
</g>
</g>
<!-- Node2 -->
<g id="node2" class="node">
<title>Node2</title>
<g id="a_node2"><a xlink:href="a01759.html" target="_top" xlink:title=" ">
<polygon fill="white" stroke="#666666" points="295.25,-56 116.5,-56 116.5,0 295.25,0 295.25,-56"/>
<text xml:space="preserve" text-anchor="start" x="124.5" y="-42.5" font-family="Helvetica,sans-Serif" font-size="10.00">nlohmann::detail::is</text>
<text xml:space="preserve" text-anchor="start" x="124.5" y="-30.5" font-family="Helvetica,sans-Serif" font-size="10.00">_compatible_string_type</text>
<text xml:space="preserve" text-anchor="start" x="124.5" y="-18.5" font-family="Helvetica,sans-Serif" font-size="10.00">_impl&lt; BasicJsonType, Constructible</text>
<text xml:space="preserve" text-anchor="middle" x="205.88" y="-6.5" font-family="Helvetica,sans-Serif" font-size="10.00">StringType &gt;</text>
</a>
</g>
</g>
<!-- Node2&#45;&gt;Node1 -->
<g id="edge1" class="edge">
<title>Node2&#45;&gt;Node1</title>
<path fill="none" stroke="#63b8ff" d="M307.05,-28C315.11,-28 323.17,-28 331.03,-28"/>
<polygon fill="#63b8ff" stroke="#63b8ff" points="307.19,-24.5 297.19,-28 307.19,-31.5 307.19,-24.5"/>
</g>
<!-- Node3 -->
<g id="node3" class="node">
<title>Node3</title>
<g id="a_node3"><a xlink:title=" ">
<polygon fill="white" stroke="#666666" points="80.5,-38 0,-38 0,-18 80.5,-18 80.5,-38"/>
<text xml:space="preserve" text-anchor="middle" x="40.25" y="-24.5" font-family="Helvetica,sans-Serif" font-size="10.00">std::false_type</text>
</a>
</g>
</g>
<!-- Node3&#45;&gt;Node2 -->
<g id="edge2" class="edge">
<title>Node3&#45;&gt;Node2</title>
<path fill="none" stroke="#63b8ff" d="M92.14,-28C99.81,-28 107.92,-28 116.11,-28"/>
<polygon fill="#63b8ff" stroke="#63b8ff" points="92.37,-24.5 82.37,-28 92.37,-31.5 92.37,-24.5"/>
</g>
</g>
</svg>
