<?xml version="1.0" encoding="UTF-8" standalone="no"?>
<!DOCTYPE svg PUBLIC "-//W3C//DTD SVG 1.1//EN"
 "http://www.w3.org/Graphics/SVG/1.1/DTD/svg11.dtd">
<!-- Generated by graphviz version 13.1.2 (20250808.2320)
 -->
<!-- Title: nlohmann::detail::is_compatible_type_impl&lt; BasicJsonType, CompatibleType, typename &gt; Pages: 1 -->
<svg width="179pt" height="200pt"
 viewBox="0.00 0.00 179.00 200.00" xmlns="http://www.w3.org/2000/svg" xmlns:xlink="http://www.w3.org/1999/xlink">
<g id="graph0" class="graph" transform="scale(1 1) rotate(0) translate(4 196)">
<title>nlohmann::detail::is_compatible_type_impl&lt; BasicJsonType, CompatibleType, typename &gt;</title>
<!-- Node1 -->
<g id="node1" class="node">
<title>Node1</title>
<g id="a_node1"><a xlink:title=" ">
<polygon fill="#999999" stroke="#666666" points="171.25,-136 0,-136 0,-80 171.25,-80 171.25,-136"/>
<text xml:space="preserve" text-anchor="start" x="8" y="-122.5" font-family="Helvetica,sans-Serif" font-size="10.00">nlohmann::detail::is</text>
<text xml:space="preserve" text-anchor="start" x="8" y="-110.5" font-family="Helvetica,sans-Serif" font-size="10.00">_compatible_type_impl</text>
<text xml:space="preserve" text-anchor="start" x="8" y="-98.5" font-family="Helvetica,sans-Serif" font-size="10.00">&lt; BasicJsonType, CompatibleType,</text>
<text xml:space="preserve" text-anchor="middle" x="85.62" y="-86.5" font-family="Helvetica,sans-Serif" font-size="10.00"> typename &gt;</text>
</a>
</g>
</g>
<!-- Node3 -->
<g id="node3" class="node">
<title>Node3</title>
<g id="a_node3"><a xlink:href="a01831.html" target="_top" xlink:title=" ">
<polygon fill="white" stroke="#666666" points="159.25,-44 12,-44 12,0 159.25,0 159.25,-44"/>
<text xml:space="preserve" text-anchor="start" x="20" y="-30.5" font-family="Helvetica,sans-Serif" font-size="10.00">nlohmann::detail::is</text>
<text xml:space="preserve" text-anchor="start" x="20" y="-18.5" font-family="Helvetica,sans-Serif" font-size="10.00">_compatible_type&lt; BasicJson</text>
<text xml:space="preserve" text-anchor="middle" x="85.62" y="-6.5" font-family="Helvetica,sans-Serif" font-size="10.00">Type, CompatibleType &gt;</text>
</a>
</g>
</g>
<!-- Node1&#45;&gt;Node3 -->
<g id="edge2" class="edge">
<title>Node1&#45;&gt;Node3</title>
<path fill="none" stroke="#63b8ff" d="M85.62,-68.5C85.62,-60.22 85.62,-51.75 85.62,-44.4"/>
<polygon fill="#63b8ff" stroke="#63b8ff" points="82.13,-68.45 85.63,-78.45 89.13,-68.45 82.13,-68.45"/>
</g>
<!-- Node2 -->
<g id="node2" class="node">
<title>Node2</title>
<g id="a_node2"><a xlink:title=" ">
<polygon fill="white" stroke="#666666" points="125.88,-192 45.38,-192 45.38,-172 125.88,-172 125.88,-192"/>
<text xml:space="preserve" text-anchor="middle" x="85.62" y="-178.5" font-family="Helvetica,sans-Serif" font-size="10.00">std::false_type</text>
</a>
</g>
</g>
<!-- Node2&#45;&gt;Node1 -->
<g id="edge1" class="edge">
<title>Node2&#45;&gt;Node1</title>
<path fill="none" stroke="#63b8ff" d="M85.62,-160.09C85.62,-152.7 85.62,-144.28 85.62,-136.43"/>
<polygon fill="#63b8ff" stroke="#63b8ff" points="82.13,-160.07 85.63,-170.07 89.13,-160.07 82.13,-160.07"/>
</g>
</g>
</svg>
