<?xml version="1.0" encoding="UTF-8" standalone="no"?>
<!DOCTYPE svg PUBLIC "-//W3C//DTD SVG 1.1//EN"
 "http://www.w3.org/Graphics/SVG/1.1/DTD/svg11.dtd">
<!-- Generated by graphviz version 13.1.2 (20250808.2320)
 -->
<!-- Title: nlohmann::detail::from_json_fn::operator() Pages: 1 -->
<svg width="612pt" height="40pt"
 viewBox="0.00 0.00 612.00 40.00" xmlns="http://www.w3.org/2000/svg" xmlns:xlink="http://www.w3.org/1999/xlink">
<g id="graph0" class="graph" transform="scale(1 1) rotate(0) translate(4 36)">
<title>nlohmann::detail::from_json_fn::operator()</title>
<!-- Node1 -->
<g id="node1" class="node">
<title>Node1</title>
<g id="a_node1"><a xlink:title=" ">
<polygon fill="#999999" stroke="#666666" points="112.75,-32 0,-32 0,0 112.75,0 112.75,-32"/>
<text xml:space="preserve" text-anchor="start" x="8" y="-18.5" font-family="Helvetica,sans-Serif" font-size="10.00">nlohmann::detail::from</text>
<text xml:space="preserve" text-anchor="middle" x="56.38" y="-6.5" font-family="Helvetica,sans-Serif" font-size="10.00">_json_fn::operator()</text>
</a>
</g>
</g>
<!-- Node2 -->
<g id="node2" class="node">
<title>Node2</title>
<g id="a_node2"><a xlink:href="a00477.html#a1f0395aad0fe853a4539288749d3a603" target="_top" xlink:title=" ">
<polygon fill="white" stroke="#666666" points="284.75,-26 148.75,-26 148.75,-6 284.75,-6 284.75,-26"/>
<text xml:space="preserve" text-anchor="middle" x="216.75" y="-12.5" font-family="Helvetica,sans-Serif" font-size="10.00">nlohmann::detail::from_json</text>
</a>
</g>
</g>
<!-- Node1&#45;&gt;Node2 -->
<g id="edge1" class="edge">
<title>Node1&#45;&gt;Node2</title>
<path fill="none" stroke="#63b8ff" d="M113.21,-16C120.96,-16 129.04,-16 137.1,-16"/>
<polygon fill="#63b8ff" stroke="#63b8ff" points="136.96,-19.5 146.96,-16 136.96,-12.5 136.96,-19.5"/>
</g>
<!-- Node3 -->
<g id="node3" class="node">
<title>Node3</title>
<g id="a_node3"><a xlink:href="a01571.html#aecc083aea4b698c33d042670ba50c10f" target="_top" xlink:title=" ">
<polygon fill="white" stroke="#666666" points="432.75,-32 320.75,-32 320.75,0 432.75,0 432.75,-32"/>
<text xml:space="preserve" text-anchor="start" x="328.75" y="-18.5" font-family="Helvetica,sans-Serif" font-size="10.00">nlohmann::detail::type</text>
<text xml:space="preserve" text-anchor="middle" x="376.75" y="-6.5" font-family="Helvetica,sans-Serif" font-size="10.00">_error::create</text>
</a>
</g>
</g>
<!-- Node2&#45;&gt;Node3 -->
<g id="edge2" class="edge">
<title>Node2&#45;&gt;Node3</title>
<path fill="none" stroke="#63b8ff" d="M285.21,-16C293.1,-16 301.15,-16 309.03,-16"/>
<polygon fill="#63b8ff" stroke="#63b8ff" points="308.9,-19.5 318.9,-16 308.9,-12.5 308.9,-19.5"/>
</g>
<!-- Node4 -->
<g id="node4" class="node">
<title>Node4</title>
<g id="a_node4"><a xlink:href="a01559.html#abf41a7e9178356314082284e6cfea278" target="_top" xlink:title=" ">
<polygon fill="white" stroke="#666666" points="604,-32 468.75,-32 468.75,0 604,0 604,-32"/>
<text xml:space="preserve" text-anchor="start" x="476.75" y="-18.5" font-family="Helvetica,sans-Serif" font-size="10.00">nlohmann::detail::exception</text>
<text xml:space="preserve" text-anchor="middle" x="536.38" y="-6.5" font-family="Helvetica,sans-Serif" font-size="10.00">::name</text>
</a>
</g>
</g>
<!-- Node3&#45;&gt;Node4 -->
<g id="edge3" class="edge">
<title>Node3&#45;&gt;Node4</title>
<path fill="none" stroke="#63b8ff" d="M432.88,-16C440.66,-16 448.79,-16 456.91,-16"/>
<polygon fill="#63b8ff" stroke="#63b8ff" points="456.83,-19.5 466.83,-16 456.83,-12.5 456.83,-19.5"/>
</g>
</g>
</svg>
