<?xml version="1.0" encoding="UTF-8" standalone="no"?>
<!DOCTYPE svg PUBLIC "-//W3C//DTD SVG 1.1//EN"
 "http://www.w3.org/Graphics/SVG/1.1/DTD/svg11.dtd">
<!-- Generated by graphviz version 13.1.2 (20250808.2320)
 -->
<!-- Title: nlohmann::detail::parser::sax_parse Pages: 1 -->
<svg width="612pt" height="190pt"
 viewBox="0.00 0.00 612.00 190.00" xmlns="http://www.w3.org/2000/svg" xmlns:xlink="http://www.w3.org/1999/xlink">
<g id="graph0" class="graph" transform="scale(1 1) rotate(0) translate(4 186)">
<title>nlohmann::detail::parser::sax_parse</title>
<!-- Node1 -->
<g id="node1" class="node">
<title>Node1</title>
<g id="a_node1"><a xlink:title=" ">
<polygon fill="#999999" stroke="#666666" points="120.25,-104 0,-104 0,-72 120.25,-72 120.25,-104"/>
<text xml:space="preserve" text-anchor="start" x="8" y="-90.5" font-family="Helvetica,sans-Serif" font-size="10.00">nlohmann::detail::parser</text>
<text xml:space="preserve" text-anchor="middle" x="60.12" y="-78.5" font-family="Helvetica,sans-Serif" font-size="10.00">::sax_parse</text>
</a>
</g>
</g>
<!-- Node2 -->
<g id="node2" class="node">
<title>Node2</title>
<g id="a_node2"><a xlink:href="a01563.html#a137ea4d27de45d8a844fd13451d40f3d" target="_top" xlink:title="create a parse error exception">
<polygon fill="white" stroke="#666666" points="431.25,-182 314,-182 314,-150 431.25,-150 431.25,-182"/>
<text xml:space="preserve" text-anchor="start" x="322" y="-168.5" font-family="Helvetica,sans-Serif" font-size="10.00">nlohmann::detail::parse</text>
<text xml:space="preserve" text-anchor="middle" x="372.62" y="-156.5" font-family="Helvetica,sans-Serif" font-size="10.00">_error::create</text>
</a>
</g>
</g>
<!-- Node1&#45;&gt;Node2 -->
<g id="edge1" class="edge">
<title>Node1&#45;&gt;Node2</title>
<path fill="none" stroke="#63b8ff" d="M88.46,-104.4C106.97,-114.77 132.32,-127.57 156.25,-135 203.84,-149.77 259.57,-157.55 302.41,-161.62"/>
<polygon fill="#63b8ff" stroke="#63b8ff" points="302.08,-165.1 312.35,-162.51 302.7,-158.13 302.08,-165.1"/>
</g>
<!-- Node5 -->
<g id="node5" class="node">
<title>Node5</title>
<g id="a_node5"><a xlink:href="a01999.html#a94e7f8a0f880c20c8a48f591f56cbd85" target="_top" xlink:title=" ">
<polygon fill="white" stroke="#666666" points="432.75,-82 312.5,-82 312.5,-50 432.75,-50 432.75,-82"/>
<text xml:space="preserve" text-anchor="start" x="320.5" y="-68.5" font-family="Helvetica,sans-Serif" font-size="10.00">nlohmann::detail::parser</text>
<text xml:space="preserve" text-anchor="middle" x="372.62" y="-56.5" font-family="Helvetica,sans-Serif" font-size="10.00">::exception_message</text>
</a>
</g>
</g>
<!-- Node1&#45;&gt;Node5 -->
<g id="edge4" class="edge">
<title>Node1&#45;&gt;Node5</title>
<path fill="none" stroke="#63b8ff" d="M120.63,-83.78C172,-80.14 246.32,-74.88 300.76,-71.02"/>
<polygon fill="#63b8ff" stroke="#63b8ff" points="300.82,-74.53 310.55,-70.33 300.33,-67.54 300.82,-74.53"/>
</g>
<!-- Node6 -->
<g id="node6" class="node">
<title>Node6</title>
<g id="a_node6"><a xlink:href="a01999.html#a1212088ee1e23633a76b2ed80514de79" target="_top" xlink:title="get next token from lexer">
<polygon fill="white" stroke="#666666" points="432.75,-32 312.5,-32 312.5,0 432.75,0 432.75,-32"/>
<text xml:space="preserve" text-anchor="start" x="320.5" y="-18.5" font-family="Helvetica,sans-Serif" font-size="10.00">nlohmann::detail::parser</text>
<text xml:space="preserve" text-anchor="middle" x="372.62" y="-6.5" font-family="Helvetica,sans-Serif" font-size="10.00">::get_token</text>
</a>
</g>
</g>
<!-- Node1&#45;&gt;Node6 -->
<g id="edge5" class="edge">
<title>Node1&#45;&gt;Node6</title>
<path fill="none" stroke="#63b8ff" d="M120.63,-74.2C172.11,-62.27 246.64,-44.98 301.1,-32.35"/>
<polygon fill="#63b8ff" stroke="#63b8ff" points="301.64,-35.82 310.59,-30.15 300.06,-29 301.64,-35.82"/>
</g>
<!-- Node7 -->
<g id="node7" class="node">
<title>Node7</title>
<g id="a_node7"><a xlink:href="a01999.html#a678fdebccc8ddd3242c67b6bce2f8f1a" target="_top" xlink:title=" ">
<polygon fill="white" stroke="#666666" points="276.5,-126 156.25,-126 156.25,-94 276.5,-94 276.5,-126"/>
<text xml:space="preserve" text-anchor="start" x="164.25" y="-112.5" font-family="Helvetica,sans-Serif" font-size="10.00">nlohmann::detail::parser</text>
<text xml:space="preserve" text-anchor="middle" x="216.38" y="-100.5" font-family="Helvetica,sans-Serif" font-size="10.00">::sax_parse_internal</text>
</a>
</g>
</g>
<!-- Node1&#45;&gt;Node7 -->
<g id="edge6" class="edge">
<title>Node1&#45;&gt;Node7</title>
<path fill="none" stroke="#63b8ff" d="M120.32,-96.44C128.23,-97.57 136.41,-98.74 144.5,-99.89"/>
<polygon fill="#63b8ff" stroke="#63b8ff" points="143.94,-103.35 154.33,-101.29 144.92,-96.42 143.94,-103.35"/>
</g>
<!-- Node3 -->
<g id="node3" class="node">
<title>Node3</title>
<g id="a_node3"><a xlink:href="a01559.html#abf41a7e9178356314082284e6cfea278" target="_top" xlink:title=" ">
<polygon fill="white" stroke="#666666" points="604,-132 468.75,-132 468.75,-100 604,-100 604,-132"/>
<text xml:space="preserve" text-anchor="start" x="476.75" y="-118.5" font-family="Helvetica,sans-Serif" font-size="10.00">nlohmann::detail::exception</text>
<text xml:space="preserve" text-anchor="middle" x="536.38" y="-106.5" font-family="Helvetica,sans-Serif" font-size="10.00">::name</text>
</a>
</g>
</g>
<!-- Node2&#45;&gt;Node3 -->
<g id="edge2" class="edge">
<title>Node2&#45;&gt;Node3</title>
<path fill="none" stroke="#63b8ff" d="M426.59,-149.63C440.9,-145.2 456.53,-140.37 471.38,-135.78"/>
<polygon fill="#63b8ff" stroke="#63b8ff" points="472.05,-139.24 480.57,-132.94 469.98,-132.55 472.05,-139.24"/>
</g>
<!-- Node4 -->
<g id="node4" class="node">
<title>Node4</title>
<g id="a_node4"><a xlink:href="a01563.html#aefe74adeaa48781464ba2fd2ec63d221" target="_top" xlink:title=" ">
<polygon fill="white" stroke="#666666" points="595,-182 477.75,-182 477.75,-150 595,-150 595,-182"/>
<text xml:space="preserve" text-anchor="start" x="485.75" y="-168.5" font-family="Helvetica,sans-Serif" font-size="10.00">nlohmann::detail::parse</text>
<text xml:space="preserve" text-anchor="middle" x="536.38" y="-156.5" font-family="Helvetica,sans-Serif" font-size="10.00">_error::position_string</text>
</a>
</g>
</g>
<!-- Node2&#45;&gt;Node4 -->
<g id="edge3" class="edge">
<title>Node2&#45;&gt;Node4</title>
<path fill="none" stroke="#63b8ff" d="M431.56,-166C442.71,-166 454.5,-166 465.97,-166"/>
<polygon fill="#63b8ff" stroke="#63b8ff" points="465.78,-169.5 475.78,-166 465.78,-162.5 465.78,-169.5"/>
</g>
<!-- Node7&#45;&gt;Node2 -->
<g id="edge7" class="edge">
<title>Node7&#45;&gt;Node2</title>
<path fill="none" stroke="#63b8ff" d="M262.82,-126.5C279.38,-132.51 298.3,-139.38 315.66,-145.68"/>
<polygon fill="#63b8ff" stroke="#63b8ff" points="314.22,-148.88 324.82,-149.01 316.61,-142.3 314.22,-148.88"/>
</g>
<!-- Node7&#45;&gt;Node5 -->
<g id="edge10" class="edge">
<title>Node7&#45;&gt;Node5</title>
<path fill="none" stroke="#63b8ff" d="M274.81,-93.62C283.99,-91 293.56,-88.27 302.96,-85.59"/>
<polygon fill="#63b8ff" stroke="#63b8ff" points="303.77,-89 312.43,-82.89 301.85,-82.26 303.77,-89"/>
</g>
<!-- Node7&#45;&gt;Node6 -->
<g id="edge11" class="edge">
<title>Node7&#45;&gt;Node6</title>
<path fill="none" stroke="#63b8ff" d="M237.25,-93.51C255.9,-78.56 284.96,-56.54 312.5,-41 314.67,-39.78 316.91,-38.58 319.19,-37.4"/>
<polygon fill="#63b8ff" stroke="#63b8ff" points="320.55,-40.63 328.03,-33.12 317.5,-34.33 320.55,-40.63"/>
</g>
<!-- Node8 -->
<g id="node8" class="node">
<title>Node8</title>
<g id="a_node8"><a xlink:href="a01575.html#a3f6d82a6f967c4728a1ec735a7867073" target="_top" xlink:title=" ">
<polygon fill="white" stroke="#666666" points="426,-132 319.25,-132 319.25,-100 426,-100 426,-132"/>
<text xml:space="preserve" text-anchor="start" x="327.25" y="-118.5" font-family="Helvetica,sans-Serif" font-size="10.00">nlohmann::detail::out</text>
<text xml:space="preserve" text-anchor="middle" x="372.62" y="-106.5" font-family="Helvetica,sans-Serif" font-size="10.00">_of_range::create</text>
</a>
</g>
</g>
<!-- Node7&#45;&gt;Node8 -->
<g id="edge8" class="edge">
<title>Node7&#45;&gt;Node8</title>
<path fill="none" stroke="#63b8ff" d="M276.57,-112.3C286.69,-112.7 297.25,-113.11 307.5,-113.51"/>
<polygon fill="#63b8ff" stroke="#63b8ff" points="307.25,-117 317.38,-113.89 307.52,-110 307.25,-117"/>
</g>
<!-- Node8&#45;&gt;Node3 -->
<g id="edge9" class="edge">
<title>Node8&#45;&gt;Node3</title>
<path fill="none" stroke="#63b8ff" d="M426.14,-116C436.03,-116 446.57,-116 457.05,-116"/>
<polygon fill="#63b8ff" stroke="#63b8ff" points="456.85,-119.5 466.85,-116 456.85,-112.5 456.85,-119.5"/>
</g>
</g>
</svg>
