<?xml version="1.0" encoding="UTF-8" standalone="no"?>
<!DOCTYPE svg PUBLIC "-//W3C//DTD SVG 1.1//EN"
 "http://www.w3.org/Graphics/SVG/1.1/DTD/svg11.dtd">
<!-- Generated by graphviz version 13.1.2 (20250808.2320)
 -->
<!-- Title: nlohmann::detail::binary_reader::get_msgpack_object Pages: 1 -->
<svg width="1158pt" height="448pt"
 viewBox="0.00 0.00 1158.00 448.00" xmlns="http://www.w3.org/2000/svg" xmlns:xlink="http://www.w3.org/1999/xlink">
<g id="graph0" class="graph" transform="scale(1 1) rotate(0) translate(4 444.38)">
<title>nlohmann::detail::binary_reader::get_msgpack_object</title>
<!-- Node1 -->
<g id="node1" class="node">
<title>Node1</title>
<g id="a_node1"><a xlink:title=" ">
<polygon fill="#999999" stroke="#666666" points="144.25,-306 0,-306 0,-274 144.25,-274 144.25,-306"/>
<text xml:space="preserve" text-anchor="start" x="8" y="-292.5" font-family="Helvetica,sans-Serif" font-size="10.00">nlohmann::detail::binary</text>
<text xml:space="preserve" text-anchor="middle" x="72.12" y="-280.5" font-family="Helvetica,sans-Serif" font-size="10.00">_reader::get_msgpack_object</text>
</a>
</g>
</g>
<!-- Node2 -->
<g id="node2" class="node">
<title>Node2</title>
<g id="a_node2"><a xlink:href="a01995.html#ad222095c0b21a87824cb10629299629a" target="_top" xlink:title="get next character from the input">
<polygon fill="white" stroke="#666666" points="801.5,-340 682,-340 682,-308 801.5,-308 801.5,-340"/>
<text xml:space="preserve" text-anchor="start" x="690" y="-326.5" font-family="Helvetica,sans-Serif" font-size="10.00">nlohmann::detail::binary</text>
<text xml:space="preserve" text-anchor="middle" x="741.75" y="-314.5" font-family="Helvetica,sans-Serif" font-size="10.00">_reader::get</text>
</a>
</g>
</g>
<!-- Node1&#45;&gt;Node2 -->
<g id="edge1" class="edge">
<title>Node1&#45;&gt;Node2</title>
<path fill="none" stroke="#63b8ff" d="M95.9,-306.28C140.2,-336.82 242.18,-401.75 339.5,-425 473.68,-457.06 632.37,-384.17 703.27,-345.76"/>
<polygon fill="#63b8ff" stroke="#63b8ff" points="704.68,-348.98 711.75,-341.09 701.3,-342.84 704.68,-348.98"/>
</g>
<!-- Node3 -->
<g id="node3" class="node">
<title>Node3</title>
<g id="a_node3"><a xlink:href="a01995.html#ad8cba5585327caa550dd5b6dd25a64f8" target="_top" xlink:title="reads a MessagePack string">
<polygon fill="white" stroke="#666666" points="482.62,-155 340.62,-155 340.62,-123 482.62,-123 482.62,-155"/>
<text xml:space="preserve" text-anchor="start" x="348.62" y="-141.5" font-family="Helvetica,sans-Serif" font-size="10.00">nlohmann::detail::binary</text>
<text xml:space="preserve" text-anchor="middle" x="411.62" y="-129.5" font-family="Helvetica,sans-Serif" font-size="10.00">_reader::get_msgpack_string</text>
</a>
</g>
</g>
<!-- Node1&#45;&gt;Node3 -->
<g id="edge2" class="edge">
<title>Node1&#45;&gt;Node3</title>
<path fill="none" stroke="#63b8ff" d="M109.89,-273.55C171.51,-245.98 295.57,-190.48 363.51,-160.08"/>
<polygon fill="#63b8ff" stroke="#63b8ff" points="364.83,-163.32 372.53,-156.04 361.97,-156.93 364.83,-163.32"/>
</g>
<!-- Node12 -->
<g id="node12" class="node">
<title>Node12</title>
<g id="a_node12"><a xlink:href="a01995.html#ae020385ce9424271d61f85d3842c02cb" target="_top" xlink:title=" ">
<polygon fill="white" stroke="#666666" points="303.5,-312 180.25,-312 180.25,-268 303.5,-268 303.5,-312"/>
<text xml:space="preserve" text-anchor="start" x="188.25" y="-298.5" font-family="Helvetica,sans-Serif" font-size="10.00">nlohmann::detail::binary</text>
<text xml:space="preserve" text-anchor="start" x="188.25" y="-286.5" font-family="Helvetica,sans-Serif" font-size="10.00">_reader::parse_msgpack</text>
<text xml:space="preserve" text-anchor="middle" x="241.88" y="-274.5" font-family="Helvetica,sans-Serif" font-size="10.00">_internal</text>
</a>
</g>
</g>
<!-- Node1&#45;&gt;Node12 -->
<g id="edge17" class="edge">
<title>Node1&#45;&gt;Node12</title>
<path fill="none" stroke="#63b8ff" d="M144.27,-283.32C152.34,-283.23 160.57,-283.23 168.66,-283.31"/>
<polygon fill="#63b8ff" stroke="#63b8ff" points="168.39,-286.8 178.45,-283.46 168.5,-279.81 168.39,-286.8"/>
</g>
<!-- Node4 -->
<g id="node4" class="node">
<title>Node4</title>
<g id="a_node4"><a xlink:href="a01563.html#a137ea4d27de45d8a844fd13451d40f3d" target="_top" xlink:title="create a parse error exception">
<polygon fill="white" stroke="#666666" points="966.75,-199 849.5,-199 849.5,-167 966.75,-167 966.75,-199"/>
<text xml:space="preserve" text-anchor="start" x="857.5" y="-185.5" font-family="Helvetica,sans-Serif" font-size="10.00">nlohmann::detail::parse</text>
<text xml:space="preserve" text-anchor="middle" x="908.12" y="-173.5" font-family="Helvetica,sans-Serif" font-size="10.00">_error::create</text>
</a>
</g>
</g>
<!-- Node3&#45;&gt;Node4 -->
<g id="edge3" class="edge">
<title>Node3&#45;&gt;Node4</title>
<path fill="none" stroke="#63b8ff" d="M444.97,-122.65C465.75,-113.08 493.64,-101.93 519.75,-97 645.46,-73.24 792.65,-129.21 863.99,-161.74"/>
<polygon fill="#63b8ff" stroke="#63b8ff" points="862.45,-164.88 872.99,-165.91 865.39,-158.53 862.45,-164.88"/>
</g>
<!-- Node7 -->
<g id="node7" class="node">
<title>Node7</title>
<g id="a_node7"><a xlink:href="a01995.html#a9c413c9a1bade1ce345740f4d69156f0" target="_top" xlink:title=" ">
<polygon fill="white" stroke="#666666" points="978.75,-32 837.5,-32 837.5,0 978.75,0 978.75,-32"/>
<text xml:space="preserve" text-anchor="start" x="845.5" y="-18.5" font-family="Helvetica,sans-Serif" font-size="10.00">nlohmann::detail::binary</text>
<text xml:space="preserve" text-anchor="middle" x="908.12" y="-6.5" font-family="Helvetica,sans-Serif" font-size="10.00">_reader::exception_message</text>
</a>
</g>
</g>
<!-- Node3&#45;&gt;Node7 -->
<g id="edge6" class="edge">
<title>Node3&#45;&gt;Node7</title>
<path fill="none" stroke="#63b8ff" d="M440.84,-122.69C461.94,-111.14 491.85,-96.14 519.75,-87 622.55,-53.32 746.25,-34.15 825.75,-24.42"/>
<polygon fill="#63b8ff" stroke="#63b8ff" points="826.13,-27.9 835.64,-23.23 825.3,-20.95 826.13,-27.9"/>
</g>
<!-- Node8 -->
<g id="node8" class="node">
<title>Node8</title>
<g id="a_node8"><a xlink:href="a01995.html#ac356c6364fe0273d3303fb7a447f4ef6" target="_top" xlink:title=" ">
<polygon fill="white" stroke="#666666" points="642.62,-290 523.12,-290 523.12,-258 642.62,-258 642.62,-290"/>
<text xml:space="preserve" text-anchor="start" x="531.12" y="-276.5" font-family="Helvetica,sans-Serif" font-size="10.00">nlohmann::detail::binary</text>
<text xml:space="preserve" text-anchor="middle" x="582.88" y="-264.5" font-family="Helvetica,sans-Serif" font-size="10.00">_reader::get_number</text>
</a>
</g>
</g>
<!-- Node3&#45;&gt;Node8 -->
<g id="edge7" class="edge">
<title>Node3&#45;&gt;Node8</title>
<path fill="none" stroke="#63b8ff" d="M433.04,-155.28C462.9,-179.1 518.64,-223.56 552.79,-250.8"/>
<polygon fill="#63b8ff" stroke="#63b8ff" points="550.2,-253.21 560.2,-256.71 554.57,-247.74 550.2,-253.21"/>
</g>
<!-- Node9 -->
<g id="node9" class="node">
<title>Node9</title>
<g id="a_node9"><a xlink:href="a01995.html#a61a0bd8bbe7b560bd429fa990ba3ba1a" target="_top" xlink:title=" ">
<polygon fill="white" stroke="#666666" points="801.5,-199 682,-199 682,-167 801.5,-167 801.5,-199"/>
<text xml:space="preserve" text-anchor="start" x="690" y="-185.5" font-family="Helvetica,sans-Serif" font-size="10.00">nlohmann::detail::binary</text>
<text xml:space="preserve" text-anchor="middle" x="741.75" y="-173.5" font-family="Helvetica,sans-Serif" font-size="10.00">_reader::unexpect_eof</text>
</a>
</g>
</g>
<!-- Node3&#45;&gt;Node9 -->
<g id="edge16" class="edge">
<title>Node3&#45;&gt;Node9</title>
<path fill="none" stroke="#63b8ff" d="M456.37,-122.61C504.16,-107.24 582.38,-89.57 646,-111 673.93,-120.41 700.16,-141.69 717.9,-158.69"/>
<polygon fill="#63b8ff" stroke="#63b8ff" points="715.26,-161 724.83,-165.55 720.19,-156.03 715.26,-161"/>
</g>
<!-- Node10 -->
<g id="node10" class="node">
<title>Node10</title>
<g id="a_node10"><a xlink:href="a01995.html#a540919db22df36512f05a88945c13263" target="_top" xlink:title="create a string by reading characters from the input">
<polygon fill="white" stroke="#666666" points="642.62,-152 523.12,-152 523.12,-120 642.62,-120 642.62,-152"/>
<text xml:space="preserve" text-anchor="start" x="531.12" y="-138.5" font-family="Helvetica,sans-Serif" font-size="10.00">nlohmann::detail::binary</text>
<text xml:space="preserve" text-anchor="middle" x="582.88" y="-126.5" font-family="Helvetica,sans-Serif" font-size="10.00">_reader::get_string</text>
</a>
</g>
</g>
<!-- Node3&#45;&gt;Node10 -->
<g id="edge12" class="edge">
<title>Node3&#45;&gt;Node10</title>
<path fill="none" stroke="#63b8ff" d="M482.93,-137.75C492.36,-137.59 502.03,-137.42 511.46,-137.25"/>
<polygon fill="#63b8ff" stroke="#63b8ff" points="511.36,-140.75 521.29,-137.07 511.23,-133.75 511.36,-140.75"/>
</g>
<!-- Node11 -->
<g id="node11" class="node">
<title>Node11</title>
<g id="a_node11"><a xlink:href="a01995.html#a7d323283c60a0b89ee5eeadf5cb9a5ad" target="_top" xlink:title=" ">
<polygon fill="white" stroke="#666666" points="646,-202 519.75,-202 519.75,-170 646,-170 646,-202"/>
<text xml:space="preserve" text-anchor="start" x="527.75" y="-188.5" font-family="Helvetica,sans-Serif" font-size="10.00">nlohmann::detail::binary</text>
<text xml:space="preserve" text-anchor="middle" x="582.88" y="-176.5" font-family="Helvetica,sans-Serif" font-size="10.00">_reader::get_token_string</text>
</a>
</g>
</g>
<!-- Node3&#45;&gt;Node11 -->
<g id="edge15" class="edge">
<title>Node3&#45;&gt;Node11</title>
<path fill="none" stroke="#63b8ff" d="M471.82,-155.44C484.7,-159.02 498.46,-162.83 511.72,-166.52"/>
<polygon fill="#63b8ff" stroke="#63b8ff" points="510.68,-169.86 521.25,-169.17 512.56,-163.12 510.68,-169.86"/>
</g>
<!-- Node5 -->
<g id="node5" class="node">
<title>Node5</title>
<g id="a_node5"><a xlink:href="a01559.html#abf41a7e9178356314082284e6cfea278" target="_top" xlink:title=" ">
<polygon fill="white" stroke="#666666" points="1150,-224 1014.75,-224 1014.75,-192 1150,-192 1150,-224"/>
<text xml:space="preserve" text-anchor="start" x="1022.75" y="-210.5" font-family="Helvetica,sans-Serif" font-size="10.00">nlohmann::detail::exception</text>
<text xml:space="preserve" text-anchor="middle" x="1082.38" y="-198.5" font-family="Helvetica,sans-Serif" font-size="10.00">::name</text>
</a>
</g>
</g>
<!-- Node4&#45;&gt;Node5 -->
<g id="edge4" class="edge">
<title>Node4&#45;&gt;Node5</title>
<path fill="none" stroke="#63b8ff" d="M966.96,-191.39C978.63,-193.09 991.09,-194.9 1003.32,-196.67"/>
<polygon fill="#63b8ff" stroke="#63b8ff" points="1002.57,-200.1 1012.97,-198.07 1003.58,-193.17 1002.57,-200.1"/>
</g>
<!-- Node6 -->
<g id="node6" class="node">
<title>Node6</title>
<g id="a_node6"><a xlink:href="a01563.html#aefe74adeaa48781464ba2fd2ec63d221" target="_top" xlink:title=" ">
<polygon fill="white" stroke="#666666" points="1141,-174 1023.75,-174 1023.75,-142 1141,-142 1141,-174"/>
<text xml:space="preserve" text-anchor="start" x="1031.75" y="-160.5" font-family="Helvetica,sans-Serif" font-size="10.00">nlohmann::detail::parse</text>
<text xml:space="preserve" text-anchor="middle" x="1082.38" y="-148.5" font-family="Helvetica,sans-Serif" font-size="10.00">_error::position_string</text>
</a>
</g>
</g>
<!-- Node4&#45;&gt;Node6 -->
<g id="edge5" class="edge">
<title>Node4&#45;&gt;Node6</title>
<path fill="none" stroke="#63b8ff" d="M966.96,-174.61C981.45,-172.5 997.13,-170.23 1012.11,-168.05"/>
<polygon fill="#63b8ff" stroke="#63b8ff" points="1012.51,-171.53 1021.9,-166.63 1011.5,-164.6 1012.51,-171.53"/>
</g>
<!-- Node8&#45;&gt;Node2 -->
<g id="edge8" class="edge">
<title>Node8&#45;&gt;Node2</title>
<path fill="none" stroke="#63b8ff" d="M635.24,-290.37C648.98,-294.75 663.99,-299.54 678.26,-304.08"/>
<polygon fill="#63b8ff" stroke="#63b8ff" points="676.97,-307.34 687.56,-307.05 679.09,-300.67 676.97,-307.34"/>
</g>
<!-- Node8&#45;&gt;Node9 -->
<g id="edge9" class="edge">
<title>Node8&#45;&gt;Node9</title>
<path fill="none" stroke="#63b8ff" d="M619.74,-257.6C628.44,-253.37 637.64,-248.69 646,-244 667.02,-232.22 689.75,-217.65 707.68,-205.7"/>
<polygon fill="#63b8ff" stroke="#63b8ff" points="709.5,-208.7 715.85,-200.22 705.59,-202.89 709.5,-208.7"/>
</g>
<!-- Node9&#45;&gt;Node4 -->
<g id="edge10" class="edge">
<title>Node9&#45;&gt;Node4</title>
<path fill="none" stroke="#63b8ff" d="M801.63,-183C813.36,-183 825.78,-183 837.82,-183"/>
<polygon fill="#63b8ff" stroke="#63b8ff" points="837.7,-186.5 847.7,-183 837.7,-179.5 837.7,-186.5"/>
</g>
<!-- Node9&#45;&gt;Node7 -->
<g id="edge11" class="edge">
<title>Node9&#45;&gt;Node7</title>
<path fill="none" stroke="#63b8ff" d="M758.81,-166.68C787.85,-137.18 849.24,-74.81 883.23,-40.28"/>
<polygon fill="#63b8ff" stroke="#63b8ff" points="885.66,-42.8 890.18,-33.22 880.67,-37.89 885.66,-42.8"/>
</g>
<!-- Node10&#45;&gt;Node2 -->
<g id="edge13" class="edge">
<title>Node10&#45;&gt;Node2</title>
<path fill="none" stroke="#63b8ff" d="M633.48,-152.33C637.96,-154.85 642.22,-157.73 646,-161 668.78,-180.72 707.81,-256.39 727.92,-297.33"/>
<polygon fill="#63b8ff" stroke="#63b8ff" points="724.76,-298.83 732.29,-306.28 731.05,-295.76 724.76,-298.83"/>
</g>
<!-- Node10&#45;&gt;Node9 -->
<g id="edge14" class="edge">
<title>Node10&#45;&gt;Node9</title>
<path fill="none" stroke="#63b8ff" d="M638.74,-152.44C650.45,-155.94 662.92,-159.68 674.98,-163.3"/>
<polygon fill="#63b8ff" stroke="#63b8ff" points="673.88,-166.62 684.46,-166.14 675.89,-159.91 673.88,-166.62"/>
</g>
<!-- Node12&#45;&gt;Node1 -->
<g id="edge28" class="edge">
<title>Node12&#45;&gt;Node1</title>
<path fill="none" stroke="#63b8ff" d="M179.96,-296.52C172.08,-296.68 163.91,-296.76 155.75,-296.75"/>
<polygon fill="#63b8ff" stroke="#63b8ff" points="155.8,-293.25 145.78,-296.69 155.76,-300.25 155.8,-293.25"/>
</g>
<!-- Node12&#45;&gt;Node2 -->
<g id="edge20" class="edge">
<title>Node12&#45;&gt;Node2</title>
<path fill="none" stroke="#63b8ff" d="M280.11,-312.3C297.54,-321.62 318.95,-331.54 339.5,-337 471.26,-371.99 510.81,-366.54 646,-349 656.16,-347.68 666.78,-345.6 677.09,-343.19"/>
<polygon fill="#63b8ff" stroke="#63b8ff" points="677.77,-346.62 686.64,-340.82 676.09,-339.83 677.77,-346.62"/>
</g>
<!-- Node12&#45;&gt;Node3 -->
<g id="edge29" class="edge">
<title>Node12&#45;&gt;Node3</title>
<path fill="none" stroke="#63b8ff" d="M257.42,-267.78C274.65,-242.75 305.37,-202.05 339.5,-175 346.14,-169.74 353.66,-164.94 361.28,-160.67"/>
<polygon fill="#63b8ff" stroke="#63b8ff" points="362.73,-163.87 369.93,-156.1 359.45,-157.68 362.73,-163.87"/>
</g>
<!-- Node12&#45;&gt;Node4 -->
<g id="edge18" class="edge">
<title>Node12&#45;&gt;Node4</title>
<path fill="none" stroke="#63b8ff" d="M251.17,-312.36C264.33,-344.18 293.36,-401.28 339.5,-425 396.52,-454.31 420.08,-432.51 483.75,-425 627.96,-407.99 683.27,-433.3 801.5,-349 851.03,-313.68 882.76,-247.18 897.49,-209.96"/>
<polygon fill="#63b8ff" stroke="#63b8ff" points="900.68,-211.42 900.98,-200.83 894.14,-208.93 900.68,-211.42"/>
</g>
<!-- Node12&#45;&gt;Node7 -->
<g id="edge19" class="edge">
<title>Node12&#45;&gt;Node7</title>
<path fill="none" stroke="#63b8ff" d="M249.31,-267.71C261.12,-230.61 289.75,-156.12 339.5,-114 477.96,3.21 705.2,3.52 825.88,-6.26"/>
<polygon fill="#63b8ff" stroke="#63b8ff" points="825.45,-9.73 835.71,-7.1 826.05,-2.76 825.45,-9.73"/>
</g>
<!-- Node12&#45;&gt;Node8 -->
<g id="edge30" class="edge">
<title>Node12&#45;&gt;Node8</title>
<path fill="none" stroke="#63b8ff" d="M303.87,-287.12C362.29,-284.36 450.36,-280.21 511.66,-277.31"/>
<polygon fill="#63b8ff" stroke="#63b8ff" points="511.45,-280.83 521.27,-276.86 511.12,-273.84 511.45,-280.83"/>
</g>
<!-- Node12&#45;&gt;Node9 -->
<g id="edge32" class="edge">
<title>Node12&#45;&gt;Node9</title>
<path fill="none" stroke="#63b8ff" d="M303.7,-279.91C382.97,-266.35 525.65,-240.51 646,-211 656.26,-208.48 667.07,-205.56 677.57,-202.56"/>
<polygon fill="#63b8ff" stroke="#63b8ff" points="678.28,-206 686.91,-199.86 676.33,-199.28 678.28,-206"/>
</g>
<!-- Node12&#45;&gt;Node11 -->
<g id="edge31" class="edge">
<title>Node12&#45;&gt;Node11</title>
<path fill="none" stroke="#63b8ff" d="M264.87,-267.57C283.16,-250.42 310.75,-227.76 339.5,-216 393.2,-194.03 458.74,-186.98 508.13,-185.17"/>
<polygon fill="#63b8ff" stroke="#63b8ff" points="507.95,-188.67 517.85,-184.88 507.75,-181.68 507.95,-188.67"/>
</g>
<!-- Node13 -->
<g id="node13" class="node">
<title>Node13</title>
<g id="a_node13"><a xlink:href="a01995.html#a0ce1d7066597952efb008aaf578b2bd6" target="_top" xlink:title=" ">
<polygon fill="white" stroke="#666666" points="481.5,-416 341.75,-416 341.75,-384 481.5,-384 481.5,-416"/>
<text xml:space="preserve" text-anchor="start" x="349.75" y="-402.5" font-family="Helvetica,sans-Serif" font-size="10.00">nlohmann::detail::binary</text>
<text xml:space="preserve" text-anchor="middle" x="411.62" y="-390.5" font-family="Helvetica,sans-Serif" font-size="10.00">_reader::get_msgpack_array</text>
</a>
</g>
</g>
<!-- Node12&#45;&gt;Node13 -->
<g id="edge21" class="edge">
<title>Node12&#45;&gt;Node13</title>
<path fill="none" stroke="#63b8ff" d="M274.6,-312.36C292.64,-327.47 316.23,-346.88 339.5,-361 350.64,-367.76 363.58,-373.71 375.34,-378.99"/>
<polygon fill="#63b8ff" stroke="#63b8ff" points="373.79,-382.13 384.35,-383.03 376.66,-375.74 373.79,-382.13"/>
</g>
<!-- Node14 -->
<g id="node14" class="node">
<title>Node14</title>
<g id="a_node14"><a xlink:href="a01995.html#a389e550fd397a48121cb82d92bb7475a" target="_top" xlink:title="reads a MessagePack byte array">
<polygon fill="white" stroke="#666666" points="483.75,-328 339.5,-328 339.5,-296 483.75,-296 483.75,-328"/>
<text xml:space="preserve" text-anchor="start" x="347.5" y="-314.5" font-family="Helvetica,sans-Serif" font-size="10.00">nlohmann::detail::binary</text>
<text xml:space="preserve" text-anchor="middle" x="411.62" y="-302.5" font-family="Helvetica,sans-Serif" font-size="10.00">_reader::get_msgpack_binary</text>
</a>
</g>
</g>
<!-- Node12&#45;&gt;Node14 -->
<g id="edge23" class="edge">
<title>Node12&#45;&gt;Node14</title>
<path fill="none" stroke="#63b8ff" d="M303.91,-298C311.68,-299.02 319.73,-300.08 327.77,-301.13"/>
<polygon fill="#63b8ff" stroke="#63b8ff" points="327.22,-304.59 337.59,-302.42 328.13,-297.65 327.22,-304.59"/>
</g>
<!-- Node13&#45;&gt;Node12 -->
<g id="edge22" class="edge">
<title>Node13&#45;&gt;Node12</title>
<path fill="none" stroke="#63b8ff" d="M347.67,-383.65C344.87,-382.15 342.14,-380.6 339.5,-379 312.7,-362.74 285.48,-339.47 266.8,-320.61"/>
<polygon fill="#63b8ff" stroke="#63b8ff" points="269.33,-318.2 259.89,-313.4 264.28,-323.04 269.33,-318.2"/>
</g>
<!-- Node14&#45;&gt;Node8 -->
<g id="edge27" class="edge">
<title>Node14&#45;&gt;Node8</title>
<path fill="none" stroke="#63b8ff" d="M483.91,-295.99C493.1,-293.93 502.5,-291.82 511.66,-289.76"/>
<polygon fill="#63b8ff" stroke="#63b8ff" points="512.23,-293.22 521.22,-287.62 510.7,-286.39 512.23,-293.22"/>
</g>
<!-- Node15 -->
<g id="node15" class="node">
<title>Node15</title>
<g id="a_node15"><a xlink:href="a01995.html#a55e13d567a53234573ab3833c0ca32e9" target="_top" xlink:title="create a byte array by reading bytes from the input">
<polygon fill="white" stroke="#666666" points="642.62,-340 523.12,-340 523.12,-308 642.62,-308 642.62,-340"/>
<text xml:space="preserve" text-anchor="start" x="531.12" y="-326.5" font-family="Helvetica,sans-Serif" font-size="10.00">nlohmann::detail::binary</text>
<text xml:space="preserve" text-anchor="middle" x="582.88" y="-314.5" font-family="Helvetica,sans-Serif" font-size="10.00">_reader::get_binary</text>
</a>
</g>
</g>
<!-- Node14&#45;&gt;Node15 -->
<g id="edge24" class="edge">
<title>Node14&#45;&gt;Node15</title>
<path fill="none" stroke="#63b8ff" d="M483.91,-317.05C493,-317.7 502.29,-318.36 511.36,-319"/>
<polygon fill="#63b8ff" stroke="#63b8ff" points="510.97,-322.48 521.19,-319.7 511.46,-315.5 510.97,-322.48"/>
</g>
<!-- Node15&#45;&gt;Node2 -->
<g id="edge25" class="edge">
<title>Node15&#45;&gt;Node2</title>
<path fill="none" stroke="#63b8ff" d="M642.74,-324C651.66,-324 660.95,-324 670.09,-324"/>
<polygon fill="#63b8ff" stroke="#63b8ff" points="670.05,-327.5 680.05,-324 670.05,-320.5 670.05,-327.5"/>
</g>
<!-- Node15&#45;&gt;Node9 -->
<g id="edge26" class="edge">
<title>Node15&#45;&gt;Node9</title>
<path fill="none" stroke="#63b8ff" d="M632.01,-307.53C636.93,-305.01 641.69,-302.17 646,-299 679.65,-274.24 708.39,-234.87 725.12,-208.98"/>
<polygon fill="#63b8ff" stroke="#63b8ff" points="727.95,-211.05 730.32,-200.72 722.03,-207.32 727.95,-211.05"/>
</g>
</g>
</svg>
