<?xml version="1.0" encoding="UTF-8" standalone="no"?>
<!DOCTYPE svg PUBLIC "-//W3C//DTD SVG 1.1//EN"
 "http://www.w3.org/Graphics/SVG/1.1/DTD/svg11.dtd">
<!-- Generated by graphviz version 13.1.2 (20250808.2320)
 -->
<!-- Title: nlohmann::detail::lexer::add Pages: 1 -->
<svg width="595pt" height="122pt"
 viewBox="0.00 0.00 595.00 122.00" xmlns="http://www.w3.org/2000/svg" xmlns:xlink="http://www.w3.org/1999/xlink">
<g id="graph0" class="graph" transform="scale(1 1) rotate(0) translate(4 118)">
<title>nlohmann::detail::lexer::add</title>
<!-- Node1 -->
<g id="node1" class="node">
<title>Node1</title>
<g id="a_node1"><a xlink:title="add a character to token_buffer">
<polygon fill="#999999" stroke="#666666" points="586.75,-64 450.75,-64 450.75,-44 586.75,-44 586.75,-64"/>
<text xml:space="preserve" text-anchor="middle" x="518.75" y="-50.5" font-family="Helvetica,sans-Serif" font-size="10.00">nlohmann::detail::lexer::add</text>
</a>
</g>
</g>
<!-- Node2 -->
<g id="node2" class="node">
<title>Node2</title>
<g id="a_node2"><a xlink:href="a01983.html#af6fe701b8b3ca5f4a1b58db4658bdf87" target="_top" xlink:title="check if the next byte(s) are inside a given range">
<polygon fill="white" stroke="#666666" points="414.75,-114 300.5,-114 300.5,-82 414.75,-82 414.75,-114"/>
<text xml:space="preserve" text-anchor="start" x="308.5" y="-100.5" font-family="Helvetica,sans-Serif" font-size="10.00">nlohmann::detail::lexer</text>
<text xml:space="preserve" text-anchor="middle" x="357.62" y="-88.5" font-family="Helvetica,sans-Serif" font-size="10.00">::next_byte_in_range</text>
</a>
</g>
</g>
<!-- Node1&#45;&gt;Node2 -->
<g id="edge1" class="edge">
<title>Node1&#45;&gt;Node2</title>
<path fill="none" stroke="#63b8ff" d="M469.18,-67.43C452.09,-72.16 432.75,-77.5 415.07,-82.39"/>
<polygon fill="#63b8ff" stroke="#63b8ff" points="469.88,-70.87 478.58,-64.83 468.01,-64.12 469.88,-70.87"/>
</g>
<!-- Node3 -->
<g id="node3" class="node">
<title>Node3</title>
<g id="a_node3"><a xlink:href="a01983.html#ab6352978e03ebcbc3cd618cd17142f26" target="_top" xlink:title="scan a string literal">
<polygon fill="white" stroke="#666666" points="264.5,-82 150.25,-82 150.25,-50 264.5,-50 264.5,-82"/>
<text xml:space="preserve" text-anchor="start" x="158.25" y="-68.5" font-family="Helvetica,sans-Serif" font-size="10.00">nlohmann::detail::lexer</text>
<text xml:space="preserve" text-anchor="middle" x="207.38" y="-56.5" font-family="Helvetica,sans-Serif" font-size="10.00">::scan_string</text>
</a>
</g>
</g>
<!-- Node1&#45;&gt;Node3 -->
<g id="edge6" class="edge">
<title>Node1&#45;&gt;Node3</title>
<path fill="none" stroke="#63b8ff" d="M439.27,-57.04C384.84,-59.16 313.62,-61.92 264.76,-63.81"/>
<polygon fill="#63b8ff" stroke="#63b8ff" points="439.25,-60.55 449.11,-56.66 438.98,-53.55 439.25,-60.55"/>
</g>
<!-- Node5 -->
<g id="node5" class="node">
<title>Node5</title>
<g id="a_node5"><a xlink:href="a01983.html#aab51a28e32c1957329141baff8eda1c4" target="_top" xlink:title="scan a number literal">
<polygon fill="white" stroke="#666666" points="264.5,-32 150.25,-32 150.25,0 264.5,0 264.5,-32"/>
<text xml:space="preserve" text-anchor="start" x="158.25" y="-18.5" font-family="Helvetica,sans-Serif" font-size="10.00">nlohmann::detail::lexer</text>
<text xml:space="preserve" text-anchor="middle" x="207.38" y="-6.5" font-family="Helvetica,sans-Serif" font-size="10.00">::scan_number</text>
</a>
</g>
</g>
<!-- Node1&#45;&gt;Node5 -->
<g id="edge4" class="edge">
<title>Node1&#45;&gt;Node5</title>
<path fill="none" stroke="#63b8ff" d="M439.27,-44.36C384.84,-37.67 313.62,-28.93 264.76,-22.93"/>
<polygon fill="#63b8ff" stroke="#63b8ff" points="438.77,-47.82 449.12,-45.57 439.62,-40.88 438.77,-47.82"/>
</g>
<!-- Node2&#45;&gt;Node3 -->
<g id="edge2" class="edge">
<title>Node2&#45;&gt;Node3</title>
<path fill="none" stroke="#63b8ff" d="M289.12,-83.43C280.95,-81.67 272.67,-79.88 264.69,-78.16"/>
<polygon fill="#63b8ff" stroke="#63b8ff" points="288.16,-86.8 298.68,-85.49 289.64,-79.96 288.16,-86.8"/>
</g>
<!-- Node4 -->
<g id="node4" class="node">
<title>Node4</title>
<g id="a_node4"><a xlink:href="a01983.html#a40320a8fef5f1f03b60c8b2f2f40af4d" target="_top" xlink:title=" ">
<polygon fill="white" stroke="#666666" points="114.25,-57 0,-57 0,-25 114.25,-25 114.25,-57"/>
<text xml:space="preserve" text-anchor="start" x="8" y="-43.5" font-family="Helvetica,sans-Serif" font-size="10.00">nlohmann::detail::lexer</text>
<text xml:space="preserve" text-anchor="middle" x="57.13" y="-31.5" font-family="Helvetica,sans-Serif" font-size="10.00">::scan</text>
</a>
</g>
</g>
<!-- Node3&#45;&gt;Node4 -->
<g id="edge3" class="edge">
<title>Node3&#45;&gt;Node4</title>
<path fill="none" stroke="#63b8ff" d="M138.59,-54.57C130.51,-53.21 122.33,-51.83 114.44,-50.5"/>
<polygon fill="#63b8ff" stroke="#63b8ff" points="137.97,-58.01 148.41,-56.23 139.13,-51.11 137.97,-58.01"/>
</g>
<!-- Node5&#45;&gt;Node4 -->
<g id="edge5" class="edge">
<title>Node5&#45;&gt;Node4</title>
<path fill="none" stroke="#63b8ff" d="M138.59,-27.43C130.51,-28.79 122.33,-30.17 114.44,-31.5"/>
<polygon fill="#63b8ff" stroke="#63b8ff" points="139.13,-30.89 148.41,-25.77 137.97,-23.99 139.13,-30.89"/>
</g>
</g>
</svg>
