<?xml version="1.0" encoding="UTF-8" standalone="no"?>
<!DOCTYPE svg PUBLIC "-//W3C//DTD SVG 1.1//EN"
 "http://www.w3.org/Graphics/SVG/1.1/DTD/svg11.dtd">
<!-- Generated by graphviz version 13.1.2 (20250808.2320)
 -->
<!-- Title: nlohmann::detail::binary_reader::get_bson_binary Pages: 1 -->
<svg width="800pt" height="225pt"
 viewBox="0.00 0.00 800.00 225.00" xmlns="http://www.w3.org/2000/svg" xmlns:xlink="http://www.w3.org/1999/xlink">
<g id="graph0" class="graph" transform="scale(1 1) rotate(0) translate(4 221)">
<title>nlohmann::detail::binary_reader::get_bson_binary</title>
<!-- Node1 -->
<g id="node1" class="node">
<title>Node1</title>
<g id="a_node1"><a xlink:title="Parses a byte array input of length len from the BSON input.">
<polygon fill="#999999" stroke="#666666" points="125.5,-98 0,-98 0,-66 125.5,-66 125.5,-98"/>
<text xml:space="preserve" text-anchor="start" x="8" y="-84.5" font-family="Helvetica,sans-Serif" font-size="10.00">nlohmann::detail::binary</text>
<text xml:space="preserve" text-anchor="middle" x="62.75" y="-72.5" font-family="Helvetica,sans-Serif" font-size="10.00">_reader::get_bson_binary</text>
</a>
</g>
</g>
<!-- Node2 -->
<g id="node2" class="node">
<title>Node2</title>
<g id="a_node2"><a xlink:href="a01563.html#a137ea4d27de45d8a844fd13451d40f3d" target="_top" xlink:title="create a parse error exception">
<polygon fill="white" stroke="#666666" points="608.5,-192 491.25,-192 491.25,-160 608.5,-160 608.5,-192"/>
<text xml:space="preserve" text-anchor="start" x="499.25" y="-178.5" font-family="Helvetica,sans-Serif" font-size="10.00">nlohmann::detail::parse</text>
<text xml:space="preserve" text-anchor="middle" x="549.88" y="-166.5" font-family="Helvetica,sans-Serif" font-size="10.00">_error::create</text>
</a>
</g>
</g>
<!-- Node1&#45;&gt;Node2 -->
<g id="edge1" class="edge">
<title>Node1&#45;&gt;Node2</title>
<path fill="none" stroke="#63b8ff" d="M94.92,-98.46C113.86,-108.09 138.71,-120.07 161.5,-129 231.75,-156.54 249.13,-167.76 323.75,-179 376.27,-186.91 390.14,-179.75 443.25,-179 454.93,-178.83 467.33,-178.57 479.37,-178.26"/>
<polygon fill="#63b8ff" stroke="#63b8ff" points="479.36,-181.76 489.26,-177.99 479.17,-174.76 479.36,-181.76"/>
</g>
<!-- Node5 -->
<g id="node5" class="node">
<title>Node5</title>
<g id="a_node5"><a xlink:href="a01995.html#a9c413c9a1bade1ce345740f4d69156f0" target="_top" xlink:title=" ">
<polygon fill="white" stroke="#666666" points="620.5,-120 479.25,-120 479.25,-88 620.5,-88 620.5,-120"/>
<text xml:space="preserve" text-anchor="start" x="487.25" y="-106.5" font-family="Helvetica,sans-Serif" font-size="10.00">nlohmann::detail::binary</text>
<text xml:space="preserve" text-anchor="middle" x="549.88" y="-94.5" font-family="Helvetica,sans-Serif" font-size="10.00">_reader::exception_message</text>
</a>
</g>
</g>
<!-- Node1&#45;&gt;Node5 -->
<g id="edge4" class="edge">
<title>Node1&#45;&gt;Node5</title>
<path fill="none" stroke="#63b8ff" d="M125.79,-76.81C201.15,-71.6 332,-66.01 443.25,-79 454.88,-80.36 467.09,-82.53 478.91,-85.04"/>
<polygon fill="#63b8ff" stroke="#63b8ff" points="478.09,-88.44 488.61,-87.21 479.62,-81.61 478.09,-88.44"/>
</g>
<!-- Node6 -->
<g id="node6" class="node">
<title>Node6</title>
<g id="a_node6"><a xlink:href="a01995.html#a55e13d567a53234573ab3833c0ca32e9" target="_top" xlink:title="create a byte array by reading bytes from the input">
<polygon fill="white" stroke="#666666" points="284.38,-120 164.88,-120 164.88,-88 284.38,-88 284.38,-120"/>
<text xml:space="preserve" text-anchor="start" x="172.88" y="-106.5" font-family="Helvetica,sans-Serif" font-size="10.00">nlohmann::detail::binary</text>
<text xml:space="preserve" text-anchor="middle" x="224.62" y="-94.5" font-family="Helvetica,sans-Serif" font-size="10.00">_reader::get_binary</text>
</a>
</g>
</g>
<!-- Node1&#45;&gt;Node6 -->
<g id="edge5" class="edge">
<title>Node1&#45;&gt;Node6</title>
<path fill="none" stroke="#63b8ff" d="M125.56,-90.51C134.68,-91.76 144.14,-93.06 153.41,-94.34"/>
<polygon fill="#63b8ff" stroke="#63b8ff" points="152.72,-97.78 163.1,-95.67 153.67,-90.84 152.72,-97.78"/>
</g>
<!-- Node9 -->
<g id="node9" class="node">
<title>Node9</title>
<g id="a_node9"><a xlink:href="a01995.html#a7d323283c60a0b89ee5eeadf5cb9a5ad" target="_top" xlink:title=" ">
<polygon fill="white" stroke="#666666" points="287.75,-32 161.5,-32 161.5,0 287.75,0 287.75,-32"/>
<text xml:space="preserve" text-anchor="start" x="169.5" y="-18.5" font-family="Helvetica,sans-Serif" font-size="10.00">nlohmann::detail::binary</text>
<text xml:space="preserve" text-anchor="middle" x="224.62" y="-6.5" font-family="Helvetica,sans-Serif" font-size="10.00">_reader::get_token_string</text>
</a>
</g>
</g>
<!-- Node1&#45;&gt;Node9 -->
<g id="edge10" class="edge">
<title>Node1&#45;&gt;Node9</title>
<path fill="none" stroke="#63b8ff" d="M103.68,-65.52C124.84,-56.78 151.04,-45.97 173.54,-36.67"/>
<polygon fill="#63b8ff" stroke="#63b8ff" points="174.62,-40.02 182.53,-32.97 171.95,-33.55 174.62,-40.02"/>
</g>
<!-- Node3 -->
<g id="node3" class="node">
<title>Node3</title>
<g id="a_node3"><a xlink:href="a01559.html#abf41a7e9178356314082284e6cfea278" target="_top" xlink:title=" ">
<polygon fill="white" stroke="#666666" points="791.75,-217 656.5,-217 656.5,-185 791.75,-185 791.75,-217"/>
<text xml:space="preserve" text-anchor="start" x="664.5" y="-203.5" font-family="Helvetica,sans-Serif" font-size="10.00">nlohmann::detail::exception</text>
<text xml:space="preserve" text-anchor="middle" x="724.12" y="-191.5" font-family="Helvetica,sans-Serif" font-size="10.00">::name</text>
</a>
</g>
</g>
<!-- Node2&#45;&gt;Node3 -->
<g id="edge2" class="edge">
<title>Node2&#45;&gt;Node3</title>
<path fill="none" stroke="#63b8ff" d="M608.71,-184.39C620.38,-186.09 632.84,-187.9 645.07,-189.67"/>
<polygon fill="#63b8ff" stroke="#63b8ff" points="644.32,-193.1 654.72,-191.07 645.33,-186.17 644.32,-193.1"/>
</g>
<!-- Node4 -->
<g id="node4" class="node">
<title>Node4</title>
<g id="a_node4"><a xlink:href="a01563.html#aefe74adeaa48781464ba2fd2ec63d221" target="_top" xlink:title=" ">
<polygon fill="white" stroke="#666666" points="782.75,-167 665.5,-167 665.5,-135 782.75,-135 782.75,-167"/>
<text xml:space="preserve" text-anchor="start" x="673.5" y="-153.5" font-family="Helvetica,sans-Serif" font-size="10.00">nlohmann::detail::parse</text>
<text xml:space="preserve" text-anchor="middle" x="724.12" y="-141.5" font-family="Helvetica,sans-Serif" font-size="10.00">_error::position_string</text>
</a>
</g>
</g>
<!-- Node2&#45;&gt;Node4 -->
<g id="edge3" class="edge">
<title>Node2&#45;&gt;Node4</title>
<path fill="none" stroke="#63b8ff" d="M608.71,-167.61C623.2,-165.5 638.88,-163.23 653.86,-161.05"/>
<polygon fill="#63b8ff" stroke="#63b8ff" points="654.26,-164.53 663.65,-159.63 653.25,-157.6 654.26,-164.53"/>
</g>
<!-- Node7 -->
<g id="node7" class="node">
<title>Node7</title>
<g id="a_node7"><a xlink:href="a01995.html#ad222095c0b21a87824cb10629299629a" target="_top" xlink:title="get next character from the input">
<polygon fill="white" stroke="#666666" points="443.25,-120 323.75,-120 323.75,-88 443.25,-88 443.25,-120"/>
<text xml:space="preserve" text-anchor="start" x="331.75" y="-106.5" font-family="Helvetica,sans-Serif" font-size="10.00">nlohmann::detail::binary</text>
<text xml:space="preserve" text-anchor="middle" x="383.5" y="-94.5" font-family="Helvetica,sans-Serif" font-size="10.00">_reader::get</text>
</a>
</g>
</g>
<!-- Node6&#45;&gt;Node7 -->
<g id="edge6" class="edge">
<title>Node6&#45;&gt;Node7</title>
<path fill="none" stroke="#63b8ff" d="M284.49,-104C293.41,-104 302.7,-104 311.84,-104"/>
<polygon fill="#63b8ff" stroke="#63b8ff" points="311.8,-107.5 321.8,-104 311.8,-100.5 311.8,-107.5"/>
</g>
<!-- Node8 -->
<g id="node8" class="node">
<title>Node8</title>
<g id="a_node8"><a xlink:href="a01995.html#a61a0bd8bbe7b560bd429fa990ba3ba1a" target="_top" xlink:title=" ">
<polygon fill="white" stroke="#666666" points="443.25,-170 323.75,-170 323.75,-138 443.25,-138 443.25,-170"/>
<text xml:space="preserve" text-anchor="start" x="331.75" y="-156.5" font-family="Helvetica,sans-Serif" font-size="10.00">nlohmann::detail::binary</text>
<text xml:space="preserve" text-anchor="middle" x="383.5" y="-144.5" font-family="Helvetica,sans-Serif" font-size="10.00">_reader::unexpect_eof</text>
</a>
</g>
</g>
<!-- Node6&#45;&gt;Node8 -->
<g id="edge7" class="edge">
<title>Node6&#45;&gt;Node8</title>
<path fill="none" stroke="#63b8ff" d="M276.99,-120.37C290.73,-124.75 305.74,-129.54 320.01,-134.08"/>
<polygon fill="#63b8ff" stroke="#63b8ff" points="318.72,-137.34 329.31,-137.05 320.84,-130.67 318.72,-137.34"/>
</g>
<!-- Node8&#45;&gt;Node2 -->
<g id="edge8" class="edge">
<title>Node8&#45;&gt;Node2</title>
<path fill="none" stroke="#63b8ff" d="M443.38,-161.88C455.11,-163.45 467.53,-165.11 479.57,-166.72"/>
<polygon fill="#63b8ff" stroke="#63b8ff" points="479.08,-170.19 489.46,-168.05 480.01,-163.25 479.08,-170.19"/>
</g>
<!-- Node8&#45;&gt;Node5 -->
<g id="edge9" class="edge">
<title>Node8&#45;&gt;Node5</title>
<path fill="none" stroke="#63b8ff" d="M438.32,-137.63C452.86,-133.2 468.76,-128.37 483.84,-123.78"/>
<polygon fill="#63b8ff" stroke="#63b8ff" points="484.65,-127.19 493.2,-120.93 482.62,-120.5 484.65,-127.19"/>
</g>
</g>
</svg>
