<?xml version="1.0" encoding="UTF-8" standalone="no"?>
<!DOCTYPE svg PUBLIC "-//W3C//DTD SVG 1.1//EN"
 "http://www.w3.org/Graphics/SVG/1.1/DTD/svg11.dtd">
<!-- Generated by graphviz version 13.1.2 (20250808.2320)
 -->
<!-- Title: nlohmann::detail::json_sax_dom_callback_parser&lt; BasicJsonType &gt; Pages: 1 -->
<svg width="565pt" height="227pt"
 viewBox="0.00 0.00 565.00 227.00" xmlns="http://www.w3.org/2000/svg" xmlns:xlink="http://www.w3.org/1999/xlink">
<g id="graph0" class="graph" transform="scale(1 1) rotate(0) translate(4 222.88)">
<title>nlohmann::detail::json_sax_dom_callback_parser&lt; BasicJsonType &gt;</title>
<!-- Node1 -->
<g id="node1" class="node">
<title>Node1</title>
<g id="a_node1"><a xlink:title=" ">
<polygon fill="#999999" stroke="#666666" points="557.25,-116 422.75,-116 422.75,-72 557.25,-72 557.25,-116"/>
<text xml:space="preserve" text-anchor="start" x="430.75" y="-102.5" font-family="Helvetica,sans-Serif" font-size="10.00">nlohmann::detail::json</text>
<text xml:space="preserve" text-anchor="start" x="430.75" y="-90.5" font-family="Helvetica,sans-Serif" font-size="10.00">_sax_dom_callback_parser</text>
<text xml:space="preserve" text-anchor="middle" x="490" y="-78.5" font-family="Helvetica,sans-Serif" font-size="10.00">&lt; BasicJsonType &gt;</text>
</a>
</g>
</g>
<!-- Node2 -->
<g id="node2" class="node">
<title>Node2</title>
<g id="a_node2"><a xlink:title=" ">
<polygon fill="white" stroke="#666666" points="82.75,-188 0,-188 0,-168 82.75,-168 82.75,-188"/>
<text xml:space="preserve" text-anchor="middle" x="41.38" y="-174.5" font-family="Helvetica,sans-Serif" font-size="10.00">BasicJsonType</text>
</a>
</g>
</g>
<!-- Node2&#45;&gt;Node1 -->
<g id="edge1" class="edge">
<title>Node2&#45;&gt;Node1</title>
<path fill="none" stroke="#9a32cd" stroke-dasharray="5,2" d="M94.07,-181.8C166.39,-185.16 300.61,-184.21 404.75,-142 421.76,-135.11 439.55,-125.38 454.39,-116.49"/>
<polygon fill="#9a32cd" stroke="#9a32cd" points="94.68,-178.32 84.52,-181.3 94.32,-185.31 94.68,-178.32"/>
<text xml:space="preserve" text-anchor="middle" x="238.5" y="-209.38" font-family="Helvetica,sans-Serif" font-size="10.00"> discarded</text>
<text xml:space="preserve" text-anchor="middle" x="238.5" y="-197.38" font-family="Helvetica,sans-Serif" font-size="10.00">object_element</text>
<text xml:space="preserve" text-anchor="middle" x="238.5" y="-185.38" font-family="Helvetica,sans-Serif" font-size="10.00">root</text>
</g>
<!-- Node3 -->
<g id="node3" class="node">
<title>Node3</title>
<g id="a_node3"><a xlink:title=" ">
<polygon fill="white" stroke="#666666" points="315.5,-156 161.5,-156 161.5,-136 315.5,-136 315.5,-156"/>
<text xml:space="preserve" text-anchor="middle" x="238.5" y="-142.5" font-family="Helvetica,sans-Serif" font-size="10.00">std::vector&lt; BasicJsonType * &gt;</text>
</a>
</g>
</g>
<!-- Node2&#45;&gt;Node3 -->
<g id="edge3" class="edge">
<title>Node2&#45;&gt;Node3</title>
<path fill="none" stroke="#9a32cd" stroke-dasharray="5,2" d="M94.23,-167.18C96.43,-166.77 98.61,-166.38 100.75,-166 120.25,-162.57 141.38,-159.28 161.07,-156.39"/>
<polygon fill="#9a32cd" stroke="#9a32cd" points="93.79,-163.7 84.63,-169.02 95.11,-170.57 93.79,-163.7"/>
<text xml:space="preserve" text-anchor="middle" x="122.12" y="-168.5" font-family="Helvetica,sans-Serif" font-size="10.00"> elements</text>
</g>
<!-- Node3&#45;&gt;Node1 -->
<g id="edge2" class="edge">
<title>Node3&#45;&gt;Node1</title>
<path fill="none" stroke="#9a32cd" stroke-dasharray="5,2" d="M300.78,-133.23C337.63,-125.55 384.56,-115.77 422.33,-107.9"/>
<polygon fill="#9a32cd" stroke="#9a32cd" points="300.25,-129.76 291.17,-135.23 301.68,-136.62 300.25,-129.76"/>
<text xml:space="preserve" text-anchor="middle" x="369.12" y="-128.69" font-family="Helvetica,sans-Serif" font-size="10.00"> ref_stack</text>
</g>
<!-- Node4 -->
<g id="node4" class="node">
<title>Node4</title>
<g id="a_node4"><a xlink:title=" ">
<polygon fill="white" stroke="#666666" points="287.75,-58 189.25,-58 189.25,-38 287.75,-38 287.75,-58"/>
<text xml:space="preserve" text-anchor="middle" x="238.5" y="-44.5" font-family="Helvetica,sans-Serif" font-size="10.00">std::vector&lt; bool &gt;</text>
</a>
</g>
</g>
<!-- Node4&#45;&gt;Node1 -->
<g id="edge4" class="edge">
<title>Node4&#45;&gt;Node1</title>
<path fill="none" stroke="#9a32cd" stroke-dasharray="5,2" d="M299.22,-45.54C330.97,-45.57 370.43,-47.74 404.75,-56 419.26,-59.49 434.34,-65.46 447.67,-71.65"/>
<polygon fill="#9a32cd" stroke="#9a32cd" points="299.39,-42.04 289.41,-45.61 299.44,-49.04 299.39,-42.04"/>
<text xml:space="preserve" text-anchor="middle" x="369.12" y="-70.5" font-family="Helvetica,sans-Serif" font-size="10.00"> keep_stack</text>
<text xml:space="preserve" text-anchor="middle" x="369.12" y="-58.5" font-family="Helvetica,sans-Serif" font-size="10.00">key_keep_stack</text>
</g>
<!-- Node5 -->
<g id="node5" class="node">
<title>Node5</title>
<g id="a_node5"><a xlink:title=" ">
<polygon fill="white" stroke="#666666" points="58.38,-86 24.38,-86 24.38,-66 58.38,-66 58.38,-86"/>
<text xml:space="preserve" text-anchor="middle" x="41.38" y="-72.5" font-family="Helvetica,sans-Serif" font-size="10.00">bool</text>
</a>
</g>
</g>
<!-- Node5&#45;&gt;Node1 -->
<g id="edge6" class="edge">
<title>Node5&#45;&gt;Node1</title>
<path fill="none" stroke="#9a32cd" stroke-dasharray="5,2" d="M70.15,-78.09C79.83,-78.77 90.76,-79.48 100.75,-80 213.57,-85.9 344.97,-90.07 422.33,-92.25"/>
<polygon fill="#9a32cd" stroke="#9a32cd" points="70.46,-74.6 60.23,-77.37 69.95,-81.58 70.46,-74.6"/>
<text xml:space="preserve" text-anchor="middle" x="238.5" y="-103.32" font-family="Helvetica,sans-Serif" font-size="10.00"> allow_exceptions</text>
<text xml:space="preserve" text-anchor="middle" x="238.5" y="-91.32" font-family="Helvetica,sans-Serif" font-size="10.00">errored</text>
</g>
<!-- Node5&#45;&gt;Node4 -->
<g id="edge5" class="edge">
<title>Node5&#45;&gt;Node4</title>
<path fill="none" stroke="#9a32cd" stroke-dasharray="5,2" d="M69.83,-72.06C100.64,-67.64 151.24,-60.38 188.81,-54.99"/>
<polygon fill="#9a32cd" stroke="#9a32cd" points="69.58,-68.56 60.17,-73.45 70.57,-75.49 69.58,-68.56"/>
<text xml:space="preserve" text-anchor="middle" x="122.12" y="-69.44" font-family="Helvetica,sans-Serif" font-size="10.00"> elements</text>
</g>
<!-- Node6 -->
<g id="node6" class="node">
<title>Node6</title>
<g id="a_node6"><a xlink:title=" ">
<polygon fill="white" stroke="#666666" points="298.25,-20 178.75,-20 178.75,0 298.25,0 298.25,-20"/>
<text xml:space="preserve" text-anchor="middle" x="238.5" y="-6.5" font-family="Helvetica,sans-Serif" font-size="10.00">const parser_callback_t</text>
</a>
</g>
</g>
<!-- Node6&#45;&gt;Node1 -->
<g id="edge7" class="edge">
<title>Node6&#45;&gt;Node1</title>
<path fill="none" stroke="#9a32cd" stroke-dasharray="5,2" d="M309.98,-11.01C340.07,-13.44 375.03,-18.98 404.75,-31 427.78,-40.31 450.12,-57.51 466,-71.59"/>
<polygon fill="#9a32cd" stroke="#9a32cd" points="310.43,-7.53 300.21,-10.33 309.94,-14.51 310.43,-7.53"/>
<text xml:space="preserve" text-anchor="middle" x="369.12" y="-33.5" font-family="Helvetica,sans-Serif" font-size="10.00"> callback</text>
</g>
</g>
</svg>
