<?xml version="1.0" encoding="UTF-8" standalone="no"?>
<!DOCTYPE svg PUBLIC "-//W3C//DTD SVG 1.1//EN"
 "http://www.w3.org/Graphics/SVG/1.1/DTD/svg11.dtd">
<!-- Generated by graphviz version 13.1.2 (20250808.2320)
 -->
<!-- Title: nlohmann::detail::binary_reader::get_ubjson_array Pages: 1 -->
<svg width="1512pt" height="1000pt"
 viewBox="0.00 0.00 1512.00 1000.00" xmlns="http://www.w3.org/2000/svg" xmlns:xlink="http://www.w3.org/1999/xlink">
<g id="graph0" class="graph" transform="scale(1 1) rotate(0) translate(4 995.82)">
<title>nlohmann::detail::binary_reader::get_ubjson_array</title>
<!-- Node1 -->
<g id="node1" class="node">
<title>Node1</title>
<g id="a_node1"><a xlink:title=" ">
<polygon fill="#999999" stroke="#666666" points="128.5,-326.82 0,-326.82 0,-294.82 128.5,-294.82 128.5,-326.82"/>
<text xml:space="preserve" text-anchor="start" x="8" y="-313.32" font-family="Helvetica,sans-Serif" font-size="10.00">nlohmann::detail::binary</text>
<text xml:space="preserve" text-anchor="middle" x="64.25" y="-301.32" font-family="Helvetica,sans-Serif" font-size="10.00">_reader::get_ubjson_array</text>
</a>
</g>
</g>
<!-- Node2 -->
<g id="node2" class="node">
<title>Node2</title>
<g id="a_node2"><a xlink:href="a01995.html#a252c1179651d22c5343bcf0b538ed26a" target="_top" xlink:title=" ">
<polygon fill="white" stroke="#666666" points="999.38,-319.82 873.88,-319.82 873.88,-287.82 999.38,-287.82 999.38,-319.82"/>
<text xml:space="preserve" text-anchor="start" x="881.88" y="-306.32" font-family="Helvetica,sans-Serif" font-size="10.00">nlohmann::detail::binary</text>
<text xml:space="preserve" text-anchor="middle" x="936.62" y="-294.32" font-family="Helvetica,sans-Serif" font-size="10.00">_reader::get_ignore_noop</text>
</a>
</g>
</g>
<!-- Node1&#45;&gt;Node2 -->
<g id="edge1" class="edge">
<title>Node1&#45;&gt;Node2</title>
<path fill="none" stroke="#63b8ff" d="M129,-296.66C236.11,-274.57 459.07,-235.92 648.25,-250.82 721.86,-256.62 804.66,-272.95 862.41,-285.97"/>
<polygon fill="#63b8ff" stroke="#63b8ff" points="861.61,-289.38 872.14,-288.19 863.17,-282.56 861.61,-289.38"/>
</g>
<!-- Node4 -->
<g id="node4" class="node">
<title>Node4</title>
<g id="a_node4"><a xlink:href="a01995.html#a7b6c2d4c95d56751e233e285a5f1fea7" target="_top" xlink:title="determine the type and size for a container">
<polygon fill="white" stroke="#666666" points="648.25,-291.82 499.5,-291.82 499.5,-259.82 648.25,-259.82 648.25,-291.82"/>
<text xml:space="preserve" text-anchor="start" x="507.5" y="-278.32" font-family="Helvetica,sans-Serif" font-size="10.00">nlohmann::detail::binary</text>
<text xml:space="preserve" text-anchor="middle" x="573.88" y="-266.32" font-family="Helvetica,sans-Serif" font-size="10.00">_reader::get_ubjson_size_type</text>
</a>
</g>
</g>
<!-- Node1&#45;&gt;Node4 -->
<g id="edge3" class="edge">
<title>Node1&#45;&gt;Node4</title>
<path fill="none" stroke="#63b8ff" d="M128.77,-306.44C219.45,-300.19 386.23,-288.69 487.59,-281.7"/>
<polygon fill="#63b8ff" stroke="#63b8ff" points="487.76,-285.2 497.5,-281.02 487.28,-278.21 487.76,-285.2"/>
</g>
<!-- Node13 -->
<g id="node13" class="node">
<title>Node13</title>
<g id="a_node13"><a xlink:href="a01995.html#a7e5e0b71548d0649ce4f131280d06c33" target="_top" xlink:title=" ">
<polygon fill="white" stroke="#666666" points="294.5,-452.82 164.5,-452.82 164.5,-420.82 294.5,-420.82 294.5,-452.82"/>
<text xml:space="preserve" text-anchor="start" x="172.5" y="-439.32" font-family="Helvetica,sans-Serif" font-size="10.00">nlohmann::detail::binary</text>
<text xml:space="preserve" text-anchor="middle" x="229.5" y="-427.32" font-family="Helvetica,sans-Serif" font-size="10.00">_reader::get_ubjson_value</text>
</a>
</g>
</g>
<!-- Node1&#45;&gt;Node13 -->
<g id="edge22" class="edge">
<title>Node1&#45;&gt;Node13</title>
<path fill="none" stroke="#63b8ff" d="M93.31,-327.24C124.54,-349.25 174.5,-387.89 204.14,-413.04"/>
<polygon fill="#63b8ff" stroke="#63b8ff" points="201.65,-415.51 211.5,-419.4 206.22,-410.21 201.65,-415.51"/>
</g>
<!-- Node19 -->
<g id="node19" class="node">
<title>Node19</title>
<g id="a_node19"><a xlink:href="a01995.html#a5a79480d661019b0f3fc615ae12f7de7" target="_top" xlink:title=" ">
<polygon fill="white" stroke="#666666" points="648.25,-341.82 499.5,-341.82 499.5,-309.82 648.25,-309.82 648.25,-341.82"/>
<text xml:space="preserve" text-anchor="start" x="507.5" y="-328.32" font-family="Helvetica,sans-Serif" font-size="10.00">nlohmann::detail::binary</text>
<text xml:space="preserve" text-anchor="middle" x="573.88" y="-316.32" font-family="Helvetica,sans-Serif" font-size="10.00">_reader::parse_ubjson_internal</text>
</a>
</g>
</g>
<!-- Node1&#45;&gt;Node19 -->
<g id="edge55" class="edge">
<title>Node1&#45;&gt;Node19</title>
<path fill="none" stroke="#63b8ff" d="M128.77,-312.7C219.45,-315.38 386.23,-320.3 487.59,-323.3"/>
<polygon fill="#63b8ff" stroke="#63b8ff" points="487.39,-326.79 497.49,-323.59 487.6,-319.8 487.39,-326.79"/>
</g>
<!-- Node3 -->
<g id="node3" class="node">
<title>Node3</title>
<g id="a_node3"><a xlink:href="a01995.html#ad222095c0b21a87824cb10629299629a" target="_top" xlink:title="get next character from the input">
<polygon fill="white" stroke="#666666" points="1155.25,-565.82 1035.75,-565.82 1035.75,-533.82 1155.25,-533.82 1155.25,-565.82"/>
<text xml:space="preserve" text-anchor="start" x="1043.75" y="-552.32" font-family="Helvetica,sans-Serif" font-size="10.00">nlohmann::detail::binary</text>
<text xml:space="preserve" text-anchor="middle" x="1095.5" y="-540.32" font-family="Helvetica,sans-Serif" font-size="10.00">_reader::get</text>
</a>
</g>
</g>
<!-- Node2&#45;&gt;Node3 -->
<g id="edge2" class="edge">
<title>Node2&#45;&gt;Node3</title>
<path fill="none" stroke="#63b8ff" d="M988.57,-320.24C992.62,-322.72 996.42,-325.57 999.75,-328.82 1055.65,-383.47 1080.47,-476.43 1089.76,-522.4"/>
<polygon fill="#63b8ff" stroke="#63b8ff" points="1086.29,-522.89 1091.61,-532.05 1093.17,-521.57 1086.29,-522.89"/>
</g>
<!-- Node4&#45;&gt;Node2 -->
<g id="edge9" class="edge">
<title>Node4&#45;&gt;Node2</title>
<path fill="none" stroke="#63b8ff" d="M648.75,-281.55C711.14,-286.4 800.01,-293.29 862.26,-298.12"/>
<polygon fill="#63b8ff" stroke="#63b8ff" points="861.81,-301.6 872.05,-298.88 862.35,-294.62 861.81,-301.6"/>
</g>
<!-- Node4&#45;&gt;Node3 -->
<g id="edge8" class="edge">
<title>Node4&#45;&gt;Node3</title>
<path fill="none" stroke="#63b8ff" d="M625.92,-259.4C633.83,-255.63 641.57,-251.13 648.25,-245.82 669.96,-228.54 659.62,-207.58 684.25,-194.82 746.5,-162.56 944.15,-152.11 999.75,-194.82 1052.58,-235.4 1082.28,-446.09 1091.42,-522.28"/>
<polygon fill="#63b8ff" stroke="#63b8ff" points="1087.94,-522.68 1092.58,-532.2 1094.9,-521.86 1087.94,-522.68"/>
</g>
<!-- Node5 -->
<g id="node5" class="node">
<title>Node5</title>
<g id="a_node5"><a xlink:href="a01563.html#a137ea4d27de45d8a844fd13451d40f3d" target="_top" xlink:title="create a parse error exception">
<polygon fill="white" stroke="#666666" points="1320.5,-749.82 1203.25,-749.82 1203.25,-717.82 1320.5,-717.82 1320.5,-749.82"/>
<text xml:space="preserve" text-anchor="start" x="1211.25" y="-736.32" font-family="Helvetica,sans-Serif" font-size="10.00">nlohmann::detail::parse</text>
<text xml:space="preserve" text-anchor="middle" x="1261.88" y="-724.32" font-family="Helvetica,sans-Serif" font-size="10.00">_error::create</text>
</a>
</g>
</g>
<!-- Node4&#45;&gt;Node5 -->
<g id="edge4" class="edge">
<title>Node4&#45;&gt;Node5</title>
<path fill="none" stroke="#63b8ff" d="M629.17,-259.37C636.13,-255.68 642.74,-251.21 648.25,-245.82 676.98,-217.69 650.63,-184.88 684.25,-162.82 742.87,-124.35 939.59,-126.81 999.75,-162.82 1102.54,-224.33 1221.3,-601.08 1252.85,-706.46"/>
<polygon fill="#63b8ff" stroke="#63b8ff" points="1249.46,-707.36 1255.67,-715.95 1256.17,-705.36 1249.46,-707.36"/>
</g>
<!-- Node8 -->
<g id="node8" class="node">
<title>Node8</title>
<g id="a_node8"><a xlink:href="a01995.html#a9c413c9a1bade1ce345740f4d69156f0" target="_top" xlink:title=" ">
<polygon fill="white" stroke="#666666" points="1332.5,-440.82 1191.25,-440.82 1191.25,-408.82 1332.5,-408.82 1332.5,-440.82"/>
<text xml:space="preserve" text-anchor="start" x="1199.25" y="-427.32" font-family="Helvetica,sans-Serif" font-size="10.00">nlohmann::detail::binary</text>
<text xml:space="preserve" text-anchor="middle" x="1261.88" y="-415.32" font-family="Helvetica,sans-Serif" font-size="10.00">_reader::exception_message</text>
</a>
</g>
</g>
<!-- Node4&#45;&gt;Node8 -->
<g id="edge7" class="edge">
<title>Node4&#45;&gt;Node8</title>
<path fill="none" stroke="#63b8ff" d="M630.95,-259.4C637.4,-255.73 643.39,-251.26 648.25,-245.82 687.35,-202.08 637.45,-154.2 684.25,-118.82 767.74,-55.7 1070.02,-58.07 1155.25,-118.82 1247.07,-184.26 1259.84,-335.07 1261.08,-397.25"/>
<polygon fill="#63b8ff" stroke="#63b8ff" points="1257.57,-396.97 1261.17,-406.94 1264.57,-396.9 1257.57,-396.97"/>
</g>
<!-- Node9 -->
<g id="node9" class="node">
<title>Node9</title>
<g id="a_node9"><a xlink:href="a01995.html#a7d323283c60a0b89ee5eeadf5cb9a5ad" target="_top" xlink:title=" ">
<polygon fill="white" stroke="#666666" points="999.75,-369.82 873.5,-369.82 873.5,-337.82 999.75,-337.82 999.75,-369.82"/>
<text xml:space="preserve" text-anchor="start" x="881.5" y="-356.32" font-family="Helvetica,sans-Serif" font-size="10.00">nlohmann::detail::binary</text>
<text xml:space="preserve" text-anchor="middle" x="936.62" y="-344.32" font-family="Helvetica,sans-Serif" font-size="10.00">_reader::get_token_string</text>
</a>
</g>
</g>
<!-- Node4&#45;&gt;Node9 -->
<g id="edge10" class="edge">
<title>Node4&#45;&gt;Node9</title>
<path fill="none" stroke="#63b8ff" d="M636.63,-292.25C652.13,-296.21 668.77,-300.3 684.25,-303.82 743.85,-317.37 811.86,-330.77 862.1,-340.28"/>
<polygon fill="#63b8ff" stroke="#63b8ff" points="861.22,-343.68 871.7,-342.09 862.52,-336.8 861.22,-343.68"/>
</g>
<!-- Node10 -->
<g id="node10" class="node">
<title>Node10</title>
<g id="a_node10"><a xlink:href="a01995.html#aba7ba9ec9a52ad2bee8baff70176aa20" target="_top" xlink:title=" ">
<polygon fill="white" stroke="#666666" points="837.5,-496.82 684.25,-496.82 684.25,-464.82 837.5,-464.82 837.5,-496.82"/>
<text xml:space="preserve" text-anchor="start" x="692.25" y="-483.32" font-family="Helvetica,sans-Serif" font-size="10.00">nlohmann::detail::binary</text>
<text xml:space="preserve" text-anchor="middle" x="760.88" y="-471.32" font-family="Helvetica,sans-Serif" font-size="10.00">_reader::get_ubjson_size_value</text>
</a>
</g>
</g>
<!-- Node4&#45;&gt;Node10 -->
<g id="edge11" class="edge">
<title>Node4&#45;&gt;Node10</title>
<path fill="none" stroke="#63b8ff" d="M637.48,-292.25C641.39,-294.72 645.04,-297.56 648.25,-300.82 684.9,-338.11 655.83,-368.93 684.25,-412.82 695.38,-430 711.94,-445.57 726.73,-457.46"/>
<polygon fill="#63b8ff" stroke="#63b8ff" points="724.4,-460.08 734.44,-463.44 728.68,-454.55 724.4,-460.08"/>
</g>
<!-- Node12 -->
<g id="node12" class="node">
<title>Node12</title>
<g id="a_node12"><a xlink:href="a01995.html#a61a0bd8bbe7b560bd429fa990ba3ba1a" target="_top" xlink:title=" ">
<polygon fill="white" stroke="#666666" points="1155.25,-689.82 1035.75,-689.82 1035.75,-657.82 1155.25,-657.82 1155.25,-689.82"/>
<text xml:space="preserve" text-anchor="start" x="1043.75" y="-676.32" font-family="Helvetica,sans-Serif" font-size="10.00">nlohmann::detail::binary</text>
<text xml:space="preserve" text-anchor="middle" x="1095.5" y="-664.32" font-family="Helvetica,sans-Serif" font-size="10.00">_reader::unexpect_eof</text>
</a>
</g>
</g>
<!-- Node4&#45;&gt;Node12 -->
<g id="edge21" class="edge">
<title>Node4&#45;&gt;Node12</title>
<path fill="none" stroke="#63b8ff" d="M619.11,-259.39C704.51,-230.83 893.1,-183.68 999.75,-278.82 1049.2,-322.93 1014.38,-512.1 1035.75,-574.82 1044.86,-601.56 1061.82,-628.96 1075.19,-648.13"/>
<polygon fill="#63b8ff" stroke="#63b8ff" points="1072.24,-650.03 1080.91,-656.13 1077.94,-645.96 1072.24,-650.03"/>
</g>
<!-- Node6 -->
<g id="node6" class="node">
<title>Node6</title>
<g id="a_node6"><a xlink:href="a01559.html#abf41a7e9178356314082284e6cfea278" target="_top" xlink:title=" ">
<polygon fill="white" stroke="#666666" points="1503.75,-774.82 1368.5,-774.82 1368.5,-742.82 1503.75,-742.82 1503.75,-774.82"/>
<text xml:space="preserve" text-anchor="start" x="1376.5" y="-761.32" font-family="Helvetica,sans-Serif" font-size="10.00">nlohmann::detail::exception</text>
<text xml:space="preserve" text-anchor="middle" x="1436.12" y="-749.32" font-family="Helvetica,sans-Serif" font-size="10.00">::name</text>
</a>
</g>
</g>
<!-- Node5&#45;&gt;Node6 -->
<g id="edge5" class="edge">
<title>Node5&#45;&gt;Node6</title>
<path fill="none" stroke="#63b8ff" d="M1320.71,-742.21C1332.38,-743.91 1344.84,-745.72 1357.07,-747.49"/>
<polygon fill="#63b8ff" stroke="#63b8ff" points="1356.32,-750.92 1366.72,-748.89 1357.33,-743.99 1356.32,-750.92"/>
</g>
<!-- Node7 -->
<g id="node7" class="node">
<title>Node7</title>
<g id="a_node7"><a xlink:href="a01563.html#aefe74adeaa48781464ba2fd2ec63d221" target="_top" xlink:title=" ">
<polygon fill="white" stroke="#666666" points="1494.75,-724.82 1377.5,-724.82 1377.5,-692.82 1494.75,-692.82 1494.75,-724.82"/>
<text xml:space="preserve" text-anchor="start" x="1385.5" y="-711.32" font-family="Helvetica,sans-Serif" font-size="10.00">nlohmann::detail::parse</text>
<text xml:space="preserve" text-anchor="middle" x="1436.12" y="-699.32" font-family="Helvetica,sans-Serif" font-size="10.00">_error::position_string</text>
</a>
</g>
</g>
<!-- Node5&#45;&gt;Node7 -->
<g id="edge6" class="edge">
<title>Node5&#45;&gt;Node7</title>
<path fill="none" stroke="#63b8ff" d="M1320.71,-725.43C1335.2,-723.32 1350.88,-721.05 1365.86,-718.87"/>
<polygon fill="#63b8ff" stroke="#63b8ff" points="1366.26,-722.35 1375.65,-717.45 1365.25,-715.42 1366.26,-722.35"/>
</g>
<!-- Node10&#45;&gt;Node2 -->
<g id="edge14" class="edge">
<title>Node10&#45;&gt;Node2</title>
<path fill="none" stroke="#63b8ff" d="M773.6,-464.34C800.92,-426.05 866.95,-333.9 873.5,-328.82 874.79,-327.82 876.13,-326.85 877.5,-325.92"/>
<polygon fill="#63b8ff" stroke="#63b8ff" points="878.92,-329.15 885.71,-321.01 875.33,-323.14 878.92,-329.15"/>
</g>
<!-- Node10&#45;&gt;Node5 -->
<g id="edge12" class="edge">
<title>Node10&#45;&gt;Node5</title>
<path fill="none" stroke="#63b8ff" d="M837.87,-464.57C849.74,-462.6 861.92,-460.9 873.5,-459.82 1001.46,-447.89 1061.17,-437.28 1155.25,-524.82 1210.46,-576.19 1241.12,-662.85 1253.82,-706.68"/>
<polygon fill="#63b8ff" stroke="#63b8ff" points="1250.4,-707.45 1256.45,-716.14 1257.14,-705.57 1250.4,-707.45"/>
</g>
<!-- Node10&#45;&gt;Node8 -->
<g id="edge13" class="edge">
<title>Node10&#45;&gt;Node8</title>
<path fill="none" stroke="#63b8ff" d="M809.7,-464.38C819.16,-460.43 828.84,-455.87 837.5,-450.82 855.25,-440.47 854.12,-428.65 873.5,-421.82 974.51,-386.19 1099.76,-396.06 1180,-408.6"/>
<polygon fill="#63b8ff" stroke="#63b8ff" points="1179.09,-411.99 1189.52,-410.14 1180.21,-405.08 1179.09,-411.99"/>
</g>
<!-- Node10&#45;&gt;Node9 -->
<g id="edge20" class="edge">
<title>Node10&#45;&gt;Node9</title>
<path fill="none" stroke="#63b8ff" d="M817.02,-464.33C824.4,-460.63 831.49,-456.17 837.5,-450.82 862.74,-428.33 849.09,-407.2 873.5,-383.82 876.35,-381.09 879.51,-378.56 882.83,-376.23"/>
<polygon fill="#63b8ff" stroke="#63b8ff" points="884.62,-379.24 891.26,-370.98 880.92,-373.29 884.62,-379.24"/>
</g>
<!-- Node11 -->
<g id="node11" class="node">
<title>Node11</title>
<g id="a_node11"><a xlink:href="a01995.html#ac356c6364fe0273d3303fb7a447f4ef6" target="_top" xlink:title=" ">
<polygon fill="white" stroke="#666666" points="996.38,-609.82 876.88,-609.82 876.88,-577.82 996.38,-577.82 996.38,-609.82"/>
<text xml:space="preserve" text-anchor="start" x="884.88" y="-596.32" font-family="Helvetica,sans-Serif" font-size="10.00">nlohmann::detail::binary</text>
<text xml:space="preserve" text-anchor="middle" x="936.62" y="-584.32" font-family="Helvetica,sans-Serif" font-size="10.00">_reader::get_number</text>
</a>
</g>
</g>
<!-- Node10&#45;&gt;Node11 -->
<g id="edge15" class="edge">
<title>Node10&#45;&gt;Node11</title>
<path fill="none" stroke="#63b8ff" d="M787.14,-497.25C817.12,-516.75 867.27,-549.37 900.89,-571.23"/>
<polygon fill="#63b8ff" stroke="#63b8ff" points="898.77,-574.03 909.06,-576.54 902.59,-568.16 898.77,-574.03"/>
</g>
<!-- Node11&#45;&gt;Node3 -->
<g id="edge16" class="edge">
<title>Node11&#45;&gt;Node3</title>
<path fill="none" stroke="#63b8ff" d="M996.04,-577.44C1005.47,-574.79 1015.31,-572.03 1024.98,-569.32"/>
<polygon fill="#63b8ff" stroke="#63b8ff" points="1025.63,-572.77 1034.32,-566.7 1023.74,-566.03 1025.63,-572.77"/>
</g>
<!-- Node11&#45;&gt;Node12 -->
<g id="edge17" class="edge">
<title>Node11&#45;&gt;Node12</title>
<path fill="none" stroke="#63b8ff" d="M980.75,-610.24C987.19,-612.96 993.69,-615.86 999.75,-618.82 1019.75,-628.59 1041.27,-640.92 1058.73,-651.43"/>
<polygon fill="#63b8ff" stroke="#63b8ff" points="1056.85,-654.38 1067.21,-656.59 1060.49,-648.4 1056.85,-654.38"/>
</g>
<!-- Node12&#45;&gt;Node5 -->
<g id="edge18" class="edge">
<title>Node12&#45;&gt;Node5</title>
<path fill="none" stroke="#63b8ff" d="M1141.42,-690.21C1161.09,-697.39 1184.37,-705.89 1205.13,-713.47"/>
<polygon fill="#63b8ff" stroke="#63b8ff" points="1203.71,-716.68 1214.31,-716.82 1206.11,-710.1 1203.71,-716.68"/>
</g>
<!-- Node12&#45;&gt;Node8 -->
<g id="edge19" class="edge">
<title>Node12&#45;&gt;Node8</title>
<path fill="none" stroke="#63b8ff" d="M1107.29,-657.48C1135.21,-615.18 1210.03,-501.84 1243.86,-450.6"/>
<polygon fill="#63b8ff" stroke="#63b8ff" points="1246.63,-452.75 1249.22,-442.48 1240.79,-448.9 1246.63,-452.75"/>
</g>
<!-- Node13&#45;&gt;Node1 -->
<g id="edge28" class="edge">
<title>Node13&#45;&gt;Node1</title>
<path fill="none" stroke="#63b8ff" d="M200.42,-420.39C169.12,-398.33 119.01,-359.56 89.39,-334.41"/>
<polygon fill="#63b8ff" stroke="#63b8ff" points="91.9,-331.96 82.05,-328.07 87.33,-337.25 91.9,-331.96"/>
</g>
<!-- Node13&#45;&gt;Node3 -->
<g id="edge25" class="edge">
<title>Node13&#45;&gt;Node3</title>
<path fill="none" stroke="#63b8ff" d="M294.99,-447.54C382.86,-461.94 545.17,-487.8 684.25,-505.82 803.2,-521.23 942.06,-535.31 1023.89,-543.2"/>
<polygon fill="#63b8ff" stroke="#63b8ff" points="1023.5,-546.68 1033.79,-544.15 1024.17,-539.71 1023.5,-546.68"/>
</g>
<!-- Node13&#45;&gt;Node5 -->
<g id="edge23" class="edge">
<title>Node13&#45;&gt;Node5</title>
<path fill="none" stroke="#63b8ff" d="M232.36,-453.13C243.77,-544.8 312.77,-991.82 572.88,-991.82 572.88,-991.82 572.88,-991.82 937.62,-991.82 1039.64,-991.82 1076.43,-983.59 1155.25,-918.82 1207.01,-876.29 1238.4,-801.34 1252.34,-761.13"/>
<polygon fill="#63b8ff" stroke="#63b8ff" points="1255.62,-762.33 1255.47,-751.74 1248.98,-760.11 1255.62,-762.33"/>
</g>
<!-- Node13&#45;&gt;Node8 -->
<g id="edge24" class="edge">
<title>Node13&#45;&gt;Node8</title>
<path fill="none" stroke="#63b8ff" d="M243.02,-420.5C291.4,-358.99 473.99,-141.18 684.25,-71.82 883.06,-6.24 989.53,51.09 1155.25,-76.82 1207.33,-117.02 1244.61,-322.38 1256.68,-397.37"/>
<polygon fill="#63b8ff" stroke="#63b8ff" points="1253.2,-397.8 1258.22,-407.13 1260.12,-396.71 1253.2,-397.8"/>
</g>
<!-- Node13&#45;&gt;Node9 -->
<g id="edge27" class="edge">
<title>Node13&#45;&gt;Node9</title>
<path fill="none" stroke="#63b8ff" d="M294.87,-432.5C341.7,-429.13 406.61,-423.99 463.5,-417.82 604.8,-402.49 769.13,-378.91 861.9,-365.05"/>
<polygon fill="#63b8ff" stroke="#63b8ff" points="862.26,-368.54 871.63,-363.6 861.23,-361.62 862.26,-368.54"/>
</g>
<!-- Node13&#45;&gt;Node11 -->
<g id="edge26" class="edge">
<title>Node13&#45;&gt;Node11</title>
<path fill="none" stroke="#63b8ff" d="M237.59,-453.28C251.04,-482.36 283.23,-542.41 330.5,-570.82 499.63,-672.47 746.04,-637.43 865.5,-611.49"/>
<polygon fill="#63b8ff" stroke="#63b8ff" points="866.17,-614.93 875.18,-609.34 864.66,-608.09 866.17,-614.93"/>
</g>
<!-- Node13&#45;&gt;Node12 -->
<g id="edge54" class="edge">
<title>Node13&#45;&gt;Node12</title>
<path fill="none" stroke="#63b8ff" d="M233.6,-453.02C242.45,-495.86 271.07,-614.23 330.5,-692.82 439.97,-837.58 506.2,-861.63 684.25,-896.82 751.07,-910.03 773.69,-920.64 837.5,-896.82 945.16,-856.62 1037.6,-748.75 1075.78,-699.26"/>
<polygon fill="#63b8ff" stroke="#63b8ff" points="1078.51,-701.47 1081.77,-691.39 1072.93,-697.23 1078.51,-701.47"/>
</g>
<!-- Node14 -->
<g id="node14" class="node">
<title>Node14</title>
<g id="a_node14"><a xlink:href="a01995.html#a26c694413fb860057e1a839d5422b361" target="_top" xlink:title=" ">
<polygon fill="white" stroke="#666666" points="636.25,-811.82 511.5,-811.82 511.5,-767.82 636.25,-767.82 636.25,-811.82"/>
<text xml:space="preserve" text-anchor="start" x="519.5" y="-798.32" font-family="Helvetica,sans-Serif" font-size="10.00">nlohmann::detail::binary</text>
<text xml:space="preserve" text-anchor="start" x="519.5" y="-786.32" font-family="Helvetica,sans-Serif" font-size="10.00">_reader::get_ubjson_high</text>
<text xml:space="preserve" text-anchor="middle" x="573.88" y="-774.32" font-family="Helvetica,sans-Serif" font-size="10.00">_precision_number</text>
</a>
</g>
</g>
<!-- Node13&#45;&gt;Node14 -->
<g id="edge29" class="edge">
<title>Node13&#45;&gt;Node14</title>
<path fill="none" stroke="#63b8ff" d="M235.98,-453.2C248.34,-488.28 281.19,-571.9 330.5,-626.82 383.81,-686.19 463.16,-734.16 516.39,-762.31"/>
<polygon fill="#63b8ff" stroke="#63b8ff" points="514.52,-765.28 525.01,-766.81 517.76,-759.08 514.52,-765.28"/>
</g>
<!-- Node16 -->
<g id="node16" class="node">
<title>Node16</title>
<g id="a_node16"><a xlink:href="a01995.html#adcf64ad3207f4bf37a5a31c920a385c3" target="_top" xlink:title=" ">
<polygon fill="white" stroke="#666666" points="463.5,-408.82 330.5,-408.82 330.5,-376.82 463.5,-376.82 463.5,-408.82"/>
<text xml:space="preserve" text-anchor="start" x="338.5" y="-395.32" font-family="Helvetica,sans-Serif" font-size="10.00">nlohmann::detail::binary</text>
<text xml:space="preserve" text-anchor="middle" x="397" y="-383.32" font-family="Helvetica,sans-Serif" font-size="10.00">_reader::get_ubjson_object</text>
</a>
</g>
</g>
<!-- Node13&#45;&gt;Node16 -->
<g id="edge36" class="edge">
<title>Node13&#45;&gt;Node16</title>
<path fill="none" stroke="#63b8ff" d="M270.14,-420.42C284.89,-415.83 302.17,-410.94 319.12,-406.52"/>
<polygon fill="#63b8ff" stroke="#63b8ff" points="319.9,-409.94 328.72,-404.07 318.16,-403.16 319.9,-409.94"/>
</g>
<!-- Node17 -->
<g id="node17" class="node">
<title>Node17</title>
<g id="a_node17"><a xlink:href="a01995.html#a4ae90db51c102e912b7eac83c78733a6" target="_top" xlink:title="reads a UBJSON string">
<polygon fill="white" stroke="#666666" points="826.25,-584.82 695.5,-584.82 695.5,-552.82 826.25,-552.82 826.25,-584.82"/>
<text xml:space="preserve" text-anchor="start" x="703.5" y="-571.32" font-family="Helvetica,sans-Serif" font-size="10.00">nlohmann::detail::binary</text>
<text xml:space="preserve" text-anchor="middle" x="760.88" y="-559.32" font-family="Helvetica,sans-Serif" font-size="10.00">_reader::get_ubjson_string</text>
</a>
</g>
</g>
<!-- Node13&#45;&gt;Node17 -->
<g id="edge53" class="edge">
<title>Node13&#45;&gt;Node17</title>
<path fill="none" stroke="#63b8ff" d="M240.73,-453.11C256.63,-476.81 289.75,-520 330.5,-538.82 444.89,-591.63 594.86,-587.89 683.92,-579.18"/>
<polygon fill="#63b8ff" stroke="#63b8ff" points="684.18,-582.67 693.77,-578.17 683.46,-575.71 684.18,-582.67"/>
</g>
<!-- Node14&#45;&gt;Node3 -->
<g id="edge32" class="edge">
<title>Node14&#45;&gt;Node3</title>
<path fill="none" stroke="#63b8ff" d="M607.48,-767.53C628.53,-754.13 656.98,-737.78 684.25,-727.82 751.25,-703.34 938.63,-705.59 999.75,-668.82 1037.07,-646.37 1065.63,-603.45 1081.23,-575.76"/>
<polygon fill="#63b8ff" stroke="#63b8ff" points="1084.13,-577.75 1085.84,-567.29 1077.98,-574.4 1084.13,-577.75"/>
</g>
<!-- Node14&#45;&gt;Node5 -->
<g id="edge30" class="edge">
<title>Node14&#45;&gt;Node5</title>
<path fill="none" stroke="#63b8ff" d="M589.45,-812.16C607.92,-838.18 642.43,-879.77 684.25,-896.82 750.16,-923.7 1067.1,-939.82 1155.25,-891.82 1206.98,-863.65 1237.93,-797.93 1251.92,-760.73"/>
<polygon fill="#63b8ff" stroke="#63b8ff" points="1255.12,-762.19 1255.21,-751.6 1248.53,-759.82 1255.12,-762.19"/>
</g>
<!-- Node14&#45;&gt;Node8 -->
<g id="edge31" class="edge">
<title>Node14&#45;&gt;Node8</title>
<path fill="none" stroke="#63b8ff" d="M636.55,-799.13C752.55,-812.97 1005,-825.19 1155.25,-698.82 1231.6,-634.6 1252.95,-508.44 1258.76,-452.58"/>
<polygon fill="#63b8ff" stroke="#63b8ff" points="1262.24,-452.95 1259.69,-442.67 1255.27,-452.3 1262.24,-452.95"/>
</g>
<!-- Node14&#45;&gt;Node10 -->
<g id="edge33" class="edge">
<title>Node14&#45;&gt;Node10</title>
<path fill="none" stroke="#63b8ff" d="M580.98,-767.66C594.24,-722.28 629.01,-616.9 684.25,-543.82 695.75,-528.61 711.58,-514.69 725.8,-503.83"/>
<polygon fill="#63b8ff" stroke="#63b8ff" points="727.66,-506.81 733.62,-498.05 723.5,-501.18 727.66,-506.81"/>
</g>
<!-- Node14&#45;&gt;Node12 -->
<g id="edge35" class="edge">
<title>Node14&#45;&gt;Node12</title>
<path fill="none" stroke="#63b8ff" d="M636.52,-776.06C733.69,-754.36 921.91,-712.35 1024.2,-689.51"/>
<polygon fill="#63b8ff" stroke="#63b8ff" points="1024.86,-692.95 1033.85,-687.36 1023.33,-686.12 1024.86,-692.95"/>
</g>
<!-- Node15 -->
<g id="node15" class="node">
<title>Node15</title>
<g id="a_node15"><a xlink:href="a00477.html#a616a53cc3114fdc113fc44e6af4c3c7f" target="_top" xlink:title=" ">
<polygon fill="white" stroke="#666666" points="818,-887.82 703.75,-887.82 703.75,-855.82 818,-855.82 818,-887.82"/>
<text xml:space="preserve" text-anchor="start" x="711.75" y="-874.32" font-family="Helvetica,sans-Serif" font-size="10.00">nlohmann::detail::input</text>
<text xml:space="preserve" text-anchor="middle" x="760.88" y="-862.32" font-family="Helvetica,sans-Serif" font-size="10.00">_adapter</text>
</a>
</g>
</g>
<!-- Node14&#45;&gt;Node15 -->
<g id="edge34" class="edge">
<title>Node14&#45;&gt;Node15</title>
<path fill="none" stroke="#63b8ff" d="M620.33,-812.26C639.87,-821.69 663.05,-832.58 684.25,-841.82 691.38,-844.92 698.94,-848.08 706.42,-851.12"/>
<polygon fill="#63b8ff" stroke="#63b8ff" points="704.89,-854.28 715.47,-854.77 707.5,-847.79 704.89,-854.28"/>
</g>
<!-- Node16&#45;&gt;Node2 -->
<g id="edge37" class="edge">
<title>Node16&#45;&gt;Node2</title>
<path fill="none" stroke="#63b8ff" d="M463.89,-385.41C550.17,-375.21 705.93,-355.08 837.5,-328.82 846.11,-327.1 855.09,-325.1 863.97,-323"/>
<polygon fill="#63b8ff" stroke="#63b8ff" points="864.77,-326.41 873.66,-320.65 863.12,-319.6 864.77,-326.41"/>
</g>
<!-- Node16&#45;&gt;Node4 -->
<g id="edge38" class="edge">
<title>Node16&#45;&gt;Node4</title>
<path fill="none" stroke="#63b8ff" d="M411.91,-376.66C430.16,-356.38 464.05,-321.7 499.5,-300.82 501.8,-299.46 504.18,-298.17 506.62,-296.93"/>
<polygon fill="#63b8ff" stroke="#63b8ff" points="507.93,-300.19 515.53,-292.82 504.99,-293.83 507.93,-300.19"/>
</g>
<!-- Node16&#45;&gt;Node13 -->
<g id="edge49" class="edge">
<title>Node16&#45;&gt;Node13</title>
<path fill="none" stroke="#63b8ff" d="M356.33,-409.23C341.11,-413.96 323.2,-419.01 305.74,-423.54"/>
<polygon fill="#63b8ff" stroke="#63b8ff" points="305.26,-420.05 296.43,-425.91 306.98,-426.84 305.26,-420.05"/>
</g>
<!-- Node16&#45;&gt;Node17 -->
<g id="edge39" class="edge">
<title>Node16&#45;&gt;Node17</title>
<path fill="none" stroke="#63b8ff" d="M431.72,-409.22C497.44,-441.18 642.64,-511.8 715.85,-547.41"/>
<polygon fill="#63b8ff" stroke="#63b8ff" points="714.22,-550.51 724.75,-551.74 717.29,-544.21 714.22,-550.51"/>
</g>
<!-- Node16&#45;&gt;Node19 -->
<g id="edge50" class="edge">
<title>Node16&#45;&gt;Node19</title>
<path fill="none" stroke="#63b8ff" d="M440.78,-376.43C464.49,-367.34 494.19,-355.97 519.42,-346.3"/>
<polygon fill="#63b8ff" stroke="#63b8ff" points="520.43,-349.66 528.52,-342.81 517.93,-343.12 520.43,-349.66"/>
</g>
<!-- Node17&#45;&gt;Node3 -->
<g id="edge42" class="edge">
<title>Node17&#45;&gt;Node3</title>
<path fill="none" stroke="#63b8ff" d="M826.4,-565.13C883.17,-561.89 965.64,-557.18 1024.1,-553.84"/>
<polygon fill="#63b8ff" stroke="#63b8ff" points="1024.16,-557.34 1033.94,-553.28 1023.76,-550.35 1024.16,-557.34"/>
</g>
<!-- Node17&#45;&gt;Node5 -->
<g id="edge40" class="edge">
<title>Node17&#45;&gt;Node5</title>
<path fill="none" stroke="#63b8ff" d="M771.09,-585.04C787.63,-612.42 825.19,-667.22 873.5,-691.82 975.12,-743.56 1110.88,-745.37 1191.75,-740.57"/>
<polygon fill="#63b8ff" stroke="#63b8ff" points="1191.52,-744.09 1201.28,-739.95 1191.07,-737.11 1191.52,-744.09"/>
</g>
<!-- Node17&#45;&gt;Node8 -->
<g id="edge41" class="edge">
<title>Node17&#45;&gt;Node8</title>
<path fill="none" stroke="#63b8ff" d="M818.63,-552.44C911.08,-525.76 1093.82,-473.03 1193,-444.41"/>
<polygon fill="#63b8ff" stroke="#63b8ff" points="1193.7,-447.85 1202.33,-441.71 1191.76,-441.12 1193.7,-447.85"/>
</g>
<!-- Node17&#45;&gt;Node9 -->
<g id="edge47" class="edge">
<title>Node17&#45;&gt;Node9</title>
<path fill="none" stroke="#63b8ff" d="M784.96,-552.51C800.81,-540.65 821.75,-523.6 837.5,-505.82 873.05,-465.68 904.82,-411.48 922.04,-379.83"/>
<polygon fill="#63b8ff" stroke="#63b8ff" points="924.95,-381.81 926.6,-371.34 918.78,-378.5 924.95,-381.81"/>
</g>
<!-- Node17&#45;&gt;Node11 -->
<g id="edge43" class="edge">
<title>Node17&#45;&gt;Node11</title>
<path fill="none" stroke="#63b8ff" d="M826.57,-578.13C839.26,-579.95 852.62,-581.88 865.48,-583.73"/>
<polygon fill="#63b8ff" stroke="#63b8ff" points="864.72,-587.15 875.11,-585.11 865.71,-580.22 864.72,-587.15"/>
</g>
<!-- Node17&#45;&gt;Node12 -->
<g id="edge48" class="edge">
<title>Node17&#45;&gt;Node12</title>
<path fill="none" stroke="#63b8ff" d="M773.73,-585.08C792.04,-608.68 829.71,-651.5 873.5,-668.82 921.27,-687.71 979.5,-688.21 1024.2,-684.39"/>
<polygon fill="#63b8ff" stroke="#63b8ff" points="1024.42,-687.89 1034.04,-683.45 1023.75,-680.92 1024.42,-687.89"/>
</g>
<!-- Node18 -->
<g id="node18" class="node">
<title>Node18</title>
<g id="a_node18"><a xlink:href="a01995.html#a540919db22df36512f05a88945c13263" target="_top" xlink:title="create a string by reading characters from the input">
<polygon fill="white" stroke="#666666" points="996.38,-659.82 876.88,-659.82 876.88,-627.82 996.38,-627.82 996.38,-659.82"/>
<text xml:space="preserve" text-anchor="start" x="884.88" y="-646.32" font-family="Helvetica,sans-Serif" font-size="10.00">nlohmann::detail::binary</text>
<text xml:space="preserve" text-anchor="middle" x="936.62" y="-634.32" font-family="Helvetica,sans-Serif" font-size="10.00">_reader::get_string</text>
</a>
</g>
</g>
<!-- Node17&#45;&gt;Node18 -->
<g id="edge44" class="edge">
<title>Node17&#45;&gt;Node18</title>
<path fill="none" stroke="#63b8ff" d="M797.66,-585.27C819.49,-595.2 848,-607.98 873.5,-618.82 876.82,-620.23 880.24,-621.66 883.7,-623.1"/>
<polygon fill="#63b8ff" stroke="#63b8ff" points="882.12,-626.23 892.7,-626.79 884.77,-619.75 882.12,-626.23"/>
</g>
<!-- Node18&#45;&gt;Node3 -->
<g id="edge45" class="edge">
<title>Node18&#45;&gt;Node3</title>
<path fill="none" stroke="#63b8ff" d="M982.37,-627.37C988.32,-624.73 994.26,-621.86 999.75,-618.82 1023.4,-605.72 1048.01,-587.63 1066.23,-573.26"/>
<polygon fill="#63b8ff" stroke="#63b8ff" points="1068.33,-576.06 1073.95,-567.08 1063.96,-570.6 1068.33,-576.06"/>
</g>
<!-- Node18&#45;&gt;Node12 -->
<g id="edge46" class="edge">
<title>Node18&#45;&gt;Node12</title>
<path fill="none" stroke="#63b8ff" d="M996.49,-655.08C1005.51,-656.8 1014.9,-658.6 1024.15,-660.37"/>
<polygon fill="#63b8ff" stroke="#63b8ff" points="1023.34,-663.77 1033.82,-662.22 1024.66,-656.9 1023.34,-663.77"/>
</g>
<!-- Node19&#45;&gt;Node2 -->
<g id="edge51" class="edge">
<title>Node19&#45;&gt;Node2</title>
<path fill="none" stroke="#63b8ff" d="M648.75,-321.31C711.14,-317.51 800.01,-312.09 862.26,-308.29"/>
<polygon fill="#63b8ff" stroke="#63b8ff" points="862.28,-311.8 872.05,-307.7 861.85,-304.81 862.28,-311.8"/>
</g>
<!-- Node19&#45;&gt;Node13 -->
<g id="edge52" class="edge">
<title>Node19&#45;&gt;Node13</title>
<path fill="none" stroke="#63b8ff" d="M499.02,-330.32C449.79,-335.3 384.47,-345.78 330.5,-367.82 303.65,-378.79 276.79,-397.88 257.69,-413.2"/>
<polygon fill="#63b8ff" stroke="#63b8ff" points="255.63,-410.36 250.13,-419.41 260.08,-415.77 255.63,-410.36"/>
</g>
</g>
</svg>
