<?xml version="1.0" encoding="UTF-8" standalone="no"?>
<!DOCTYPE svg PUBLIC "-//W3C//DTD SVG 1.1//EN"
 "http://www.w3.org/Graphics/SVG/1.1/DTD/svg11.dtd">
<!-- Generated by graphviz version 13.1.2 (20250808.2320)
 -->
<!-- Title: nlohmann::detail::lexer::next_byte_in_range Pages: 1 -->
<svg width="294pt" height="66pt"
 viewBox="0.00 0.00 294.00 66.00" xmlns="http://www.w3.org/2000/svg" xmlns:xlink="http://www.w3.org/1999/xlink">
<g id="graph0" class="graph" transform="scale(1 1) rotate(0) translate(4 62)">
<title>nlohmann::detail::lexer::next_byte_in_range</title>
<!-- Node1 -->
<g id="node1" class="node">
<title>Node1</title>
<g id="a_node1"><a xlink:title="check if the next byte(s) are inside a given range">
<polygon fill="#999999" stroke="#666666" points="114.25,-45 0,-45 0,-13 114.25,-13 114.25,-45"/>
<text xml:space="preserve" text-anchor="start" x="8" y="-31.5" font-family="Helvetica,sans-Serif" font-size="10.00">nlohmann::detail::lexer</text>
<text xml:space="preserve" text-anchor="middle" x="57.12" y="-19.5" font-family="Helvetica,sans-Serif" font-size="10.00">::next_byte_in_range</text>
</a>
</g>
</g>
<!-- Node2 -->
<g id="node2" class="node">
<title>Node2</title>
<g id="a_node2"><a xlink:href="a01983.html#a36ffc3c33c3aea18291ead7a30fa7cc6" target="_top" xlink:title="add a character to token_buffer">
<polygon fill="white" stroke="#666666" points="286.25,-58 150.25,-58 150.25,-38 286.25,-38 286.25,-58"/>
<text xml:space="preserve" text-anchor="middle" x="218.25" y="-44.5" font-family="Helvetica,sans-Serif" font-size="10.00">nlohmann::detail::lexer::add</text>
</a>
</g>
</g>
<!-- Node1&#45;&gt;Node2 -->
<g id="edge1" class="edge">
<title>Node1&#45;&gt;Node2</title>
<path fill="none" stroke="#63b8ff" d="M114.67,-35.75C122.45,-36.68 130.54,-37.65 138.62,-38.61"/>
<polygon fill="#63b8ff" stroke="#63b8ff" points="138.15,-42.08 148.49,-39.79 138.98,-35.13 138.15,-42.08"/>
</g>
<!-- Node3 -->
<g id="node3" class="node">
<title>Node3</title>
<g id="a_node3"><a xlink:href="a01983.html#a9cd3e4cf04d19be521beb8868c1a2fc9" target="_top" xlink:title=" ">
<polygon fill="white" stroke="#666666" points="285.12,-20 151.38,-20 151.38,0 285.12,0 285.12,-20"/>
<text xml:space="preserve" text-anchor="middle" x="218.25" y="-6.5" font-family="Helvetica,sans-Serif" font-size="10.00">nlohmann::detail::lexer::get</text>
</a>
</g>
</g>
<!-- Node1&#45;&gt;Node3 -->
<g id="edge2" class="edge">
<title>Node1&#45;&gt;Node3</title>
<path fill="none" stroke="#63b8ff" d="M114.67,-22.25C122.87,-21.27 131.43,-20.25 139.95,-19.23"/>
<polygon fill="#63b8ff" stroke="#63b8ff" points="140.08,-22.74 149.6,-18.08 139.25,-15.79 140.08,-22.74"/>
</g>
</g>
</svg>
