<?xml version="1.0" encoding="UTF-8" standalone="no"?>
<!DOCTYPE svg PUBLIC "-//W3C//DTD SVG 1.1//EN"
 "http://www.w3.org/Graphics/SVG/1.1/DTD/svg11.dtd">
<!-- Generated by graphviz version 13.1.2 (20250808.2320)
 -->
<!-- Title: nlohmann::detail::lexer::reset Pages: 1 -->
<svg width="423pt" height="90pt"
 viewBox="0.00 0.00 423.00 90.00" xmlns="http://www.w3.org/2000/svg" xmlns:xlink="http://www.w3.org/1999/xlink">
<g id="graph0" class="graph" transform="scale(1 1) rotate(0) translate(4 86)">
<title>nlohmann::detail::lexer::reset</title>
<!-- Node1 -->
<g id="node1" class="node">
<title>Node1</title>
<g id="a_node1"><a xlink:title="reset token_buffer; current character is beginning of token">
<polygon fill="#999999" stroke="#666666" points="414.75,-57 300.5,-57 300.5,-25 414.75,-25 414.75,-57"/>
<text xml:space="preserve" text-anchor="start" x="308.5" y="-43.5" font-family="Helvetica,sans-Serif" font-size="10.00">nlohmann::detail::lexer</text>
<text xml:space="preserve" text-anchor="middle" x="357.62" y="-31.5" font-family="Helvetica,sans-Serif" font-size="10.00">::reset</text>
</a>
</g>
</g>
<!-- Node2 -->
<g id="node2" class="node">
<title>Node2</title>
<g id="a_node2"><a xlink:href="a01983.html#aab51a28e32c1957329141baff8eda1c4" target="_top" xlink:title="scan a number literal">
<polygon fill="white" stroke="#666666" points="264.5,-82 150.25,-82 150.25,-50 264.5,-50 264.5,-82"/>
<text xml:space="preserve" text-anchor="start" x="158.25" y="-68.5" font-family="Helvetica,sans-Serif" font-size="10.00">nlohmann::detail::lexer</text>
<text xml:space="preserve" text-anchor="middle" x="207.38" y="-56.5" font-family="Helvetica,sans-Serif" font-size="10.00">::scan_number</text>
</a>
</g>
</g>
<!-- Node1&#45;&gt;Node2 -->
<g id="edge1" class="edge">
<title>Node1&#45;&gt;Node2</title>
<path fill="none" stroke="#63b8ff" d="M288.84,-52.43C280.76,-53.79 272.58,-55.17 264.69,-56.5"/>
<polygon fill="#63b8ff" stroke="#63b8ff" points="289.38,-55.89 298.66,-50.77 288.22,-48.99 289.38,-55.89"/>
</g>
<!-- Node4 -->
<g id="node4" class="node">
<title>Node4</title>
<g id="a_node4"><a xlink:href="a01983.html#ab6352978e03ebcbc3cd618cd17142f26" target="_top" xlink:title="scan a string literal">
<polygon fill="white" stroke="#666666" points="264.5,-32 150.25,-32 150.25,0 264.5,0 264.5,-32"/>
<text xml:space="preserve" text-anchor="start" x="158.25" y="-18.5" font-family="Helvetica,sans-Serif" font-size="10.00">nlohmann::detail::lexer</text>
<text xml:space="preserve" text-anchor="middle" x="207.38" y="-6.5" font-family="Helvetica,sans-Serif" font-size="10.00">::scan_string</text>
</a>
</g>
</g>
<!-- Node1&#45;&gt;Node4 -->
<g id="edge3" class="edge">
<title>Node1&#45;&gt;Node4</title>
<path fill="none" stroke="#63b8ff" d="M288.84,-29.57C280.76,-28.21 272.58,-26.83 264.69,-25.5"/>
<polygon fill="#63b8ff" stroke="#63b8ff" points="288.22,-33.01 298.66,-31.23 289.38,-26.11 288.22,-33.01"/>
</g>
<!-- Node3 -->
<g id="node3" class="node">
<title>Node3</title>
<g id="a_node3"><a xlink:href="a01983.html#a40320a8fef5f1f03b60c8b2f2f40af4d" target="_top" xlink:title=" ">
<polygon fill="white" stroke="#666666" points="114.25,-57 0,-57 0,-25 114.25,-25 114.25,-57"/>
<text xml:space="preserve" text-anchor="start" x="8" y="-43.5" font-family="Helvetica,sans-Serif" font-size="10.00">nlohmann::detail::lexer</text>
<text xml:space="preserve" text-anchor="middle" x="57.13" y="-31.5" font-family="Helvetica,sans-Serif" font-size="10.00">::scan</text>
</a>
</g>
</g>
<!-- Node2&#45;&gt;Node3 -->
<g id="edge2" class="edge">
<title>Node2&#45;&gt;Node3</title>
<path fill="none" stroke="#63b8ff" d="M138.59,-54.57C130.51,-53.21 122.33,-51.83 114.44,-50.5"/>
<polygon fill="#63b8ff" stroke="#63b8ff" points="137.97,-58.01 148.41,-56.23 139.13,-51.11 137.97,-58.01"/>
</g>
<!-- Node4&#45;&gt;Node3 -->
<g id="edge4" class="edge">
<title>Node4&#45;&gt;Node3</title>
<path fill="none" stroke="#63b8ff" d="M138.59,-27.43C130.51,-28.79 122.33,-30.17 114.44,-31.5"/>
<polygon fill="#63b8ff" stroke="#63b8ff" points="139.13,-30.89 148.41,-25.77 137.97,-23.99 139.13,-30.89"/>
</g>
</g>
</svg>
