<?xml version="1.0" encoding="UTF-8" standalone="no"?>
<!DOCTYPE svg PUBLIC "-//W3C//DTD SVG 1.1//EN"
 "http://www.w3.org/Graphics/SVG/1.1/DTD/svg11.dtd">
<!-- Generated by graphviz version 13.1.2 (20250808.2320)
 -->
<!-- Title: nlohmann::detail::binary_reader::parse_bson_array Pages: 1 -->
<svg width="1362pt" height="538pt"
 viewBox="0.00 0.00 1362.00 538.00" xmlns="http://www.w3.org/2000/svg" xmlns:xlink="http://www.w3.org/1999/xlink">
<g id="graph0" class="graph" transform="scale(1 1) rotate(0) translate(4 533.73)">
<title>nlohmann::detail::binary_reader::parse_bson_array</title>
<!-- Node1 -->
<g id="node1" class="node">
<title>Node1</title>
<g id="a_node1"><a xlink:title="Reads an array from the BSON input and passes it to the SAX&#45;parser.">
<polygon fill="#999999" stroke="#666666" points="131.5,-386 0,-386 0,-354 131.5,-354 131.5,-386"/>
<text xml:space="preserve" text-anchor="start" x="8" y="-372.5" font-family="Helvetica,sans-Serif" font-size="10.00">nlohmann::detail::binary</text>
<text xml:space="preserve" text-anchor="middle" x="65.75" y="-360.5" font-family="Helvetica,sans-Serif" font-size="10.00">_reader::parse_bson_array</text>
</a>
</g>
</g>
<!-- Node2 -->
<g id="node2" class="node">
<title>Node2</title>
<g id="a_node2"><a xlink:href="a01995.html#a4e07b75ccb2579d0e738b894f0fd8cf8" target="_top" xlink:title="Read a BSON element list (as specified in the BSON&#45;spec)">
<polygon fill="white" stroke="#666666" points="329.75,-411 167.5,-411 167.5,-379 329.75,-379 329.75,-411"/>
<text xml:space="preserve" text-anchor="start" x="175.5" y="-397.5" font-family="Helvetica,sans-Serif" font-size="10.00">nlohmann::detail::binary</text>
<text xml:space="preserve" text-anchor="middle" x="248.62" y="-385.5" font-family="Helvetica,sans-Serif" font-size="10.00">_reader::parse_bson_element_list</text>
</a>
</g>
</g>
<!-- Node1&#45;&gt;Node2 -->
<g id="edge1" class="edge">
<title>Node1&#45;&gt;Node2</title>
<path fill="none" stroke="#63b8ff" d="M131.79,-379C139.57,-380.07 147.62,-381.18 155.69,-382.3"/>
<polygon fill="#63b8ff" stroke="#63b8ff" points="155.2,-385.76 165.58,-383.67 156.16,-378.83 155.2,-385.76"/>
</g>
<!-- Node3 -->
<g id="node3" class="node">
<title>Node3</title>
<g id="a_node3"><a xlink:href="a01995.html#ad222095c0b21a87824cb10629299629a" target="_top" xlink:title="get next character from the input">
<polygon fill="white" stroke="#666666" points="1005,-329 885.5,-329 885.5,-297 1005,-297 1005,-329"/>
<text xml:space="preserve" text-anchor="start" x="893.5" y="-315.5" font-family="Helvetica,sans-Serif" font-size="10.00">nlohmann::detail::binary</text>
<text xml:space="preserve" text-anchor="middle" x="945.25" y="-303.5" font-family="Helvetica,sans-Serif" font-size="10.00">_reader::get</text>
</a>
</g>
</g>
<!-- Node2&#45;&gt;Node3 -->
<g id="edge2" class="edge">
<title>Node2&#45;&gt;Node3</title>
<path fill="none" stroke="#63b8ff" d="M330.16,-400.43C472.21,-408.68 760.66,-419.12 849.5,-375 870.05,-364.8 866.57,-350.97 885.5,-338 887.07,-336.93 888.7,-335.88 890.36,-334.87"/>
<polygon fill="#63b8ff" stroke="#63b8ff" points="891.84,-338.05 898.9,-330.16 888.46,-331.92 891.84,-338.05"/>
</g>
<!-- Node4 -->
<g id="node4" class="node">
<title>Node4</title>
<g id="a_node4"><a xlink:href="a01995.html#a354cbbaaea672c024ac949e1801c4302" target="_top" xlink:title="Parses a C&#45;style string from the BSON input.">
<polygon fill="white" stroke="#666666" points="846.12,-474 726.62,-474 726.62,-442 846.12,-442 846.12,-474"/>
<text xml:space="preserve" text-anchor="start" x="734.62" y="-460.5" font-family="Helvetica,sans-Serif" font-size="10.00">nlohmann::detail::binary</text>
<text xml:space="preserve" text-anchor="middle" x="786.38" y="-448.5" font-family="Helvetica,sans-Serif" font-size="10.00">_reader::get_bson_cstr</text>
</a>
</g>
</g>
<!-- Node2&#45;&gt;Node4 -->
<g id="edge3" class="edge">
<title>Node2&#45;&gt;Node4</title>
<path fill="none" stroke="#63b8ff" d="M299.12,-411.49C319.53,-417.66 343.56,-424.1 365.75,-428 487.18,-449.37 630.93,-455.6 714.76,-457.37"/>
<polygon fill="#63b8ff" stroke="#63b8ff" points="714.6,-460.87 724.67,-457.56 714.74,-453.87 714.6,-460.87"/>
</g>
<!-- Node5 -->
<g id="node5" class="node">
<title>Node5</title>
<g id="a_node5"><a xlink:href="a01995.html#a61a0bd8bbe7b560bd429fa990ba3ba1a" target="_top" xlink:title=" ">
<polygon fill="white" stroke="#666666" points="1005,-379 885.5,-379 885.5,-347 1005,-347 1005,-379"/>
<text xml:space="preserve" text-anchor="start" x="893.5" y="-365.5" font-family="Helvetica,sans-Serif" font-size="10.00">nlohmann::detail::binary</text>
<text xml:space="preserve" text-anchor="middle" x="945.25" y="-353.5" font-family="Helvetica,sans-Serif" font-size="10.00">_reader::unexpect_eof</text>
</a>
</g>
</g>
<!-- Node2&#45;&gt;Node5 -->
<g id="edge31" class="edge">
<title>Node2&#45;&gt;Node5</title>
<path fill="none" stroke="#63b8ff" d="M276.22,-411.26C299.08,-424.38 333.39,-442.07 365.75,-451 573.45,-508.33 655.6,-576.96 849.5,-483 889.32,-463.71 917.46,-418.66 932.24,-389.58"/>
<polygon fill="#63b8ff" stroke="#63b8ff" points="935.35,-391.18 936.59,-380.66 929.06,-388.12 935.35,-391.18"/>
</g>
<!-- Node10 -->
<g id="node10" class="node">
<title>Node10</title>
<g id="a_node10"><a xlink:href="a01995.html#a23bde2450d7a5772bf5051e36ff560a4" target="_top" xlink:title="Read a BSON document element of the given element_type.">
<polygon fill="white" stroke="#666666" points="510,-348 365.75,-348 365.75,-304 510,-304 510,-348"/>
<text xml:space="preserve" text-anchor="start" x="373.75" y="-334.5" font-family="Helvetica,sans-Serif" font-size="10.00">nlohmann::detail::binary</text>
<text xml:space="preserve" text-anchor="start" x="373.75" y="-322.5" font-family="Helvetica,sans-Serif" font-size="10.00">_reader::parse_bson_element</text>
<text xml:space="preserve" text-anchor="middle" x="437.88" y="-310.5" font-family="Helvetica,sans-Serif" font-size="10.00">_internal</text>
</a>
</g>
</g>
<!-- Node2&#45;&gt;Node10 -->
<g id="edge10" class="edge">
<title>Node2&#45;&gt;Node10</title>
<path fill="none" stroke="#63b8ff" d="M294,-378.65C315.29,-370.81 341.33,-361.21 365.32,-352.37"/>
<polygon fill="#63b8ff" stroke="#63b8ff" points="366.22,-355.77 374.4,-349.03 363.8,-349.2 366.22,-355.77"/>
</g>
<!-- Node4&#45;&gt;Node3 -->
<g id="edge4" class="edge">
<title>Node4&#45;&gt;Node3</title>
<path fill="none" stroke="#63b8ff" d="M831.92,-441.6C838.38,-437.85 844.52,-433.35 849.5,-428 878.89,-396.5 855.37,-368.8 885.5,-338 886.1,-337.4 886.71,-336.8 887.34,-336.22"/>
<polygon fill="#63b8ff" stroke="#63b8ff" points="889.23,-339.18 895.06,-330.33 884.99,-333.61 889.23,-339.18"/>
</g>
<!-- Node4&#45;&gt;Node5 -->
<g id="edge5" class="edge">
<title>Node4&#45;&gt;Node5</title>
<path fill="none" stroke="#63b8ff" d="M823.66,-441.62C832.27,-437.43 841.31,-432.75 849.5,-428 871.54,-415.22 895.18,-399.01 913.33,-385.98"/>
<polygon fill="#63b8ff" stroke="#63b8ff" points="915.01,-389.08 921.06,-380.38 910.91,-383.41 915.01,-389.08"/>
</g>
<!-- Node6 -->
<g id="node6" class="node">
<title>Node6</title>
<g id="a_node6"><a xlink:href="a01563.html#a137ea4d27de45d8a844fd13451d40f3d" target="_top" xlink:title="create a parse error exception">
<polygon fill="white" stroke="#666666" points="1170.25,-121 1053,-121 1053,-89 1170.25,-89 1170.25,-121"/>
<text xml:space="preserve" text-anchor="start" x="1061" y="-107.5" font-family="Helvetica,sans-Serif" font-size="10.00">nlohmann::detail::parse</text>
<text xml:space="preserve" text-anchor="middle" x="1111.62" y="-95.5" font-family="Helvetica,sans-Serif" font-size="10.00">_error::create</text>
</a>
</g>
</g>
<!-- Node5&#45;&gt;Node6 -->
<g id="edge6" class="edge">
<title>Node5&#45;&gt;Node6</title>
<path fill="none" stroke="#63b8ff" d="M994.77,-346.65C998.53,-344.15 1002.02,-341.28 1005,-338 1040.48,-299.03 1019.65,-273.2 1041,-225 1056.03,-191.09 1078.17,-154.56 1093.43,-130.82"/>
<polygon fill="#63b8ff" stroke="#63b8ff" points="1096.16,-133.04 1098.68,-122.75 1090.29,-129.22 1096.16,-133.04"/>
</g>
<!-- Node9 -->
<g id="node9" class="node">
<title>Node9</title>
<g id="a_node9"><a xlink:href="a01995.html#a9c413c9a1bade1ce345740f4d69156f0" target="_top" xlink:title=" ">
<polygon fill="white" stroke="#666666" points="1182.25,-266 1041,-266 1041,-234 1182.25,-234 1182.25,-266"/>
<text xml:space="preserve" text-anchor="start" x="1049" y="-252.5" font-family="Helvetica,sans-Serif" font-size="10.00">nlohmann::detail::binary</text>
<text xml:space="preserve" text-anchor="middle" x="1111.62" y="-240.5" font-family="Helvetica,sans-Serif" font-size="10.00">_reader::exception_message</text>
</a>
</g>
</g>
<!-- Node5&#45;&gt;Node9 -->
<g id="edge9" class="edge">
<title>Node5&#45;&gt;Node9</title>
<path fill="none" stroke="#63b8ff" d="M989.03,-346.55C994.53,-343.93 999.99,-341.07 1005,-338 1035.12,-319.6 1065.68,-293.1 1086.13,-273.99"/>
<polygon fill="#63b8ff" stroke="#63b8ff" points="1088.3,-276.76 1093.15,-267.34 1083.48,-271.68 1088.3,-276.76"/>
</g>
<!-- Node7 -->
<g id="node7" class="node">
<title>Node7</title>
<g id="a_node7"><a xlink:href="a01559.html#abf41a7e9178356314082284e6cfea278" target="_top" xlink:title=" ">
<polygon fill="white" stroke="#666666" points="1353.5,-146 1218.25,-146 1218.25,-114 1353.5,-114 1353.5,-146"/>
<text xml:space="preserve" text-anchor="start" x="1226.25" y="-132.5" font-family="Helvetica,sans-Serif" font-size="10.00">nlohmann::detail::exception</text>
<text xml:space="preserve" text-anchor="middle" x="1285.88" y="-120.5" font-family="Helvetica,sans-Serif" font-size="10.00">::name</text>
</a>
</g>
</g>
<!-- Node6&#45;&gt;Node7 -->
<g id="edge7" class="edge">
<title>Node6&#45;&gt;Node7</title>
<path fill="none" stroke="#63b8ff" d="M1170.46,-113.4C1182.13,-115.09 1194.59,-116.9 1206.82,-118.68"/>
<polygon fill="#63b8ff" stroke="#63b8ff" points="1206.07,-122.1 1216.47,-120.08 1207.08,-115.18 1206.07,-122.1"/>
</g>
<!-- Node8 -->
<g id="node8" class="node">
<title>Node8</title>
<g id="a_node8"><a xlink:href="a01563.html#aefe74adeaa48781464ba2fd2ec63d221" target="_top" xlink:title=" ">
<polygon fill="white" stroke="#666666" points="1344.5,-96 1227.25,-96 1227.25,-64 1344.5,-64 1344.5,-96"/>
<text xml:space="preserve" text-anchor="start" x="1235.25" y="-82.5" font-family="Helvetica,sans-Serif" font-size="10.00">nlohmann::detail::parse</text>
<text xml:space="preserve" text-anchor="middle" x="1285.88" y="-70.5" font-family="Helvetica,sans-Serif" font-size="10.00">_error::position_string</text>
</a>
</g>
</g>
<!-- Node6&#45;&gt;Node8 -->
<g id="edge8" class="edge">
<title>Node6&#45;&gt;Node8</title>
<path fill="none" stroke="#63b8ff" d="M1170.46,-96.61C1184.95,-94.51 1200.63,-92.23 1215.61,-90.06"/>
<polygon fill="#63b8ff" stroke="#63b8ff" points="1216.01,-93.54 1225.4,-88.64 1215,-86.61 1216.01,-93.54"/>
</g>
<!-- Node10&#45;&gt;Node1 -->
<g id="edge28" class="edge">
<title>Node10&#45;&gt;Node1</title>
<path fill="none" stroke="#63b8ff" d="M365.41,-334.5C301.45,-342.1 207.97,-353.22 142.68,-360.98"/>
<polygon fill="#63b8ff" stroke="#63b8ff" points="142.66,-357.46 133.15,-362.11 143.49,-364.41 142.66,-357.46"/>
</g>
<!-- Node10&#45;&gt;Node3 -->
<g id="edge12" class="edge">
<title>Node10&#45;&gt;Node3</title>
<path fill="none" stroke="#63b8ff" d="M510.44,-326.84C560.41,-328.55 628.43,-333.14 687.25,-345 703.78,-348.34 706.6,-354.3 723.25,-357 778.64,-365.99 795.03,-370.5 849.5,-357 867.06,-352.66 869.16,-345.78 885.5,-338 888.36,-336.64 891.32,-335.27 894.31,-333.92"/>
<polygon fill="#63b8ff" stroke="#63b8ff" points="895.45,-337.24 903.16,-329.98 892.6,-330.84 895.45,-337.24"/>
</g>
<!-- Node10&#45;&gt;Node6 -->
<g id="edge11" class="edge">
<title>Node10&#45;&gt;Node6</title>
<path fill="none" stroke="#63b8ff" d="M442.68,-303.64C451.77,-257.17 479.19,-149.83 546,-93 702.18,39.82 806.91,5.85 1005,-47 1031.63,-54.11 1058.82,-69.26 1078.95,-82.3"/>
<polygon fill="#63b8ff" stroke="#63b8ff" points="1076.99,-85.2 1087.25,-87.83 1080.87,-79.37 1076.99,-85.2"/>
</g>
<!-- Node11 -->
<g id="node11" class="node">
<title>Node11</title>
<g id="a_node11"><a xlink:href="a01995.html#a9940f56290b9278c58772eda2931e599" target="_top" xlink:title="Parses a byte array input of length len from the BSON input.">
<polygon fill="white" stroke="#666666" points="679.38,-134 553.88,-134 553.88,-102 679.38,-102 679.38,-134"/>
<text xml:space="preserve" text-anchor="start" x="561.88" y="-120.5" font-family="Helvetica,sans-Serif" font-size="10.00">nlohmann::detail::binary</text>
<text xml:space="preserve" text-anchor="middle" x="616.62" y="-108.5" font-family="Helvetica,sans-Serif" font-size="10.00">_reader::get_bson_binary</text>
</a>
</g>
</g>
<!-- Node10&#45;&gt;Node11 -->
<g id="edge13" class="edge">
<title>Node10&#45;&gt;Node11</title>
<path fill="none" stroke="#63b8ff" d="M457.79,-303.75C490.99,-264.67 559.52,-184.03 594.33,-143.06"/>
<polygon fill="#63b8ff" stroke="#63b8ff" points="596.83,-145.52 600.64,-135.64 591.5,-140.99 596.83,-145.52"/>
</g>
<!-- Node14 -->
<g id="node14" class="node">
<title>Node14</title>
<g id="a_node14"><a xlink:href="a01995.html#a23921422802aa472360dd05023e20565" target="_top" xlink:title="Parses a zero&#45;terminated string of length len from the BSON input.">
<polygon fill="white" stroke="#666666" points="678.25,-282 555,-282 555,-250 678.25,-250 678.25,-282"/>
<text xml:space="preserve" text-anchor="start" x="563" y="-268.5" font-family="Helvetica,sans-Serif" font-size="10.00">nlohmann::detail::binary</text>
<text xml:space="preserve" text-anchor="middle" x="616.62" y="-256.5" font-family="Helvetica,sans-Serif" font-size="10.00">_reader::get_bson_string</text>
</a>
</g>
</g>
<!-- Node10&#45;&gt;Node14 -->
<g id="edge20" class="edge">
<title>Node10&#45;&gt;Node14</title>
<path fill="none" stroke="#63b8ff" d="M504.94,-303.58C521.83,-297.84 539.89,-291.72 556.41,-286.11"/>
<polygon fill="#63b8ff" stroke="#63b8ff" points="557.24,-289.52 565.59,-282.99 554.99,-282.89 557.24,-289.52"/>
</g>
<!-- Node16 -->
<g id="node16" class="node">
<title>Node16</title>
<g id="a_node16"><a xlink:href="a01995.html#abf2051ba57d9ea9b378a2e7c14e22b34" target="_top" xlink:title="Reads in a BSON&#45;object and passes it to the SAX&#45;parser.">
<polygon fill="white" stroke="#666666" points="687.25,-386 546,-386 546,-354 687.25,-354 687.25,-386"/>
<text xml:space="preserve" text-anchor="start" x="554" y="-372.5" font-family="Helvetica,sans-Serif" font-size="10.00">nlohmann::detail::binary</text>
<text xml:space="preserve" text-anchor="middle" x="616.62" y="-360.5" font-family="Helvetica,sans-Serif" font-size="10.00">_reader::parse_bson_internal</text>
</a>
</g>
</g>
<!-- Node10&#45;&gt;Node16 -->
<g id="edge29" class="edge">
<title>Node10&#45;&gt;Node16</title>
<path fill="none" stroke="#63b8ff" d="M510.26,-343.77C519.55,-346.09 529.11,-348.47 538.5,-350.8"/>
<polygon fill="#63b8ff" stroke="#63b8ff" points="537.39,-354.14 547.94,-353.16 539.08,-347.34 537.39,-354.14"/>
</g>
<!-- Node11&#45;&gt;Node6 -->
<g id="edge14" class="edge">
<title>Node11&#45;&gt;Node6</title>
<path fill="none" stroke="#63b8ff" d="M639.7,-101.53C660.16,-87.37 692.04,-68.01 723.25,-60 837.48,-30.7 975.6,-62.11 1052.22,-85.18"/>
<polygon fill="#63b8ff" stroke="#63b8ff" points="1051.03,-88.47 1061.62,-88.07 1053.09,-81.78 1051.03,-88.47"/>
</g>
<!-- Node11&#45;&gt;Node9 -->
<g id="edge15" class="edge">
<title>Node11&#45;&gt;Node9</title>
<path fill="none" stroke="#63b8ff" d="M669.18,-101.57C716.78,-88.93 789.03,-76.22 849.5,-93 943.68,-119.14 1037.94,-189.33 1083.1,-226.37"/>
<polygon fill="#63b8ff" stroke="#63b8ff" points="1080.63,-228.87 1090.56,-232.57 1085.1,-223.48 1080.63,-228.87"/>
</g>
<!-- Node12 -->
<g id="node12" class="node">
<title>Node12</title>
<g id="a_node12"><a xlink:href="a01995.html#a55e13d567a53234573ab3833c0ca32e9" target="_top" xlink:title="create a byte array by reading bytes from the input">
<polygon fill="white" stroke="#666666" points="846.12,-134 726.62,-134 726.62,-102 846.12,-102 846.12,-134"/>
<text xml:space="preserve" text-anchor="start" x="734.62" y="-120.5" font-family="Helvetica,sans-Serif" font-size="10.00">nlohmann::detail::binary</text>
<text xml:space="preserve" text-anchor="middle" x="786.38" y="-108.5" font-family="Helvetica,sans-Serif" font-size="10.00">_reader::get_binary</text>
</a>
</g>
</g>
<!-- Node11&#45;&gt;Node12 -->
<g id="edge16" class="edge">
<title>Node11&#45;&gt;Node12</title>
<path fill="none" stroke="#63b8ff" d="M679.61,-118C691.02,-118 703.01,-118 714.66,-118"/>
<polygon fill="#63b8ff" stroke="#63b8ff" points="714.64,-121.51 724.64,-118 714.64,-114.51 714.64,-121.51"/>
</g>
<!-- Node13 -->
<g id="node13" class="node">
<title>Node13</title>
<g id="a_node13"><a xlink:href="a01995.html#a7d323283c60a0b89ee5eeadf5cb9a5ad" target="_top" xlink:title=" ">
<polygon fill="white" stroke="#666666" points="849.5,-184 723.25,-184 723.25,-152 849.5,-152 849.5,-184"/>
<text xml:space="preserve" text-anchor="start" x="731.25" y="-170.5" font-family="Helvetica,sans-Serif" font-size="10.00">nlohmann::detail::binary</text>
<text xml:space="preserve" text-anchor="middle" x="786.38" y="-158.5" font-family="Helvetica,sans-Serif" font-size="10.00">_reader::get_token_string</text>
</a>
</g>
</g>
<!-- Node11&#45;&gt;Node13 -->
<g id="edge19" class="edge">
<title>Node11&#45;&gt;Node13</title>
<path fill="none" stroke="#63b8ff" d="M672.55,-134.38C687.39,-138.8 703.61,-143.63 719,-148.22"/>
<polygon fill="#63b8ff" stroke="#63b8ff" points="718,-151.58 728.59,-151.08 720,-144.87 718,-151.58"/>
</g>
<!-- Node12&#45;&gt;Node3 -->
<g id="edge17" class="edge">
<title>Node12&#45;&gt;Node3</title>
<path fill="none" stroke="#63b8ff" d="M837.35,-134.44C841.7,-136.93 845.84,-139.78 849.5,-143 894.52,-182.69 922.68,-249.15 935.71,-286.12"/>
<polygon fill="#63b8ff" stroke="#63b8ff" points="932.24,-286.81 938.78,-295.15 938.87,-284.56 932.24,-286.81"/>
</g>
<!-- Node12&#45;&gt;Node5 -->
<g id="edge18" class="edge">
<title>Node12&#45;&gt;Node5</title>
<path fill="none" stroke="#63b8ff" d="M840.29,-134.48C843.72,-136.94 846.85,-139.76 849.5,-143 905.28,-211.23 830.39,-269.23 885.5,-338 885.75,-338.31 886,-338.62 886.25,-338.92"/>
<polygon fill="#63b8ff" stroke="#63b8ff" points="883.86,-341.47 893.61,-345.63 888.58,-336.3 883.86,-341.47"/>
</g>
<!-- Node14&#45;&gt;Node3 -->
<g id="edge23" class="edge">
<title>Node14&#45;&gt;Node3</title>
<path fill="none" stroke="#63b8ff" d="M678.68,-274.79C734.07,-282.76 815.73,-294.51 873.85,-302.87"/>
<polygon fill="#63b8ff" stroke="#63b8ff" points="873.25,-306.32 883.65,-304.28 874.25,-299.4 873.25,-306.32"/>
</g>
<!-- Node14&#45;&gt;Node6 -->
<g id="edge21" class="edge">
<title>Node14&#45;&gt;Node6</title>
<path fill="none" stroke="#63b8ff" d="M670.67,-249.64C717.74,-235.03 788.31,-212.95 849.5,-193 919.35,-170.24 999.37,-143.12 1052.22,-125.06"/>
<polygon fill="#63b8ff" stroke="#63b8ff" points="1053.31,-128.39 1061.64,-121.84 1051.04,-121.76 1053.31,-128.39"/>
</g>
<!-- Node14&#45;&gt;Node9 -->
<g id="edge22" class="edge">
<title>Node14&#45;&gt;Node9</title>
<path fill="none" stroke="#63b8ff" d="M678.57,-264.03C766.92,-261.16 930.73,-255.84 1029.3,-252.64"/>
<polygon fill="#63b8ff" stroke="#63b8ff" points="1029.29,-256.15 1039.18,-252.32 1029.07,-249.15 1029.29,-256.15"/>
</g>
<!-- Node14&#45;&gt;Node13 -->
<g id="edge27" class="edge">
<title>Node14&#45;&gt;Node13</title>
<path fill="none" stroke="#63b8ff" d="M641.03,-249.76C662.1,-235.42 694.14,-214.32 723.25,-198 728.47,-195.08 734.03,-192.15 739.58,-189.33"/>
<polygon fill="#63b8ff" stroke="#63b8ff" points="740.75,-192.66 748.15,-185.08 737.64,-186.39 740.75,-192.66"/>
</g>
<!-- Node15 -->
<g id="node15" class="node">
<title>Node15</title>
<g id="a_node15"><a xlink:href="a01995.html#a540919db22df36512f05a88945c13263" target="_top" xlink:title="create a string by reading characters from the input">
<polygon fill="white" stroke="#666666" points="846.12,-348 726.62,-348 726.62,-316 846.12,-316 846.12,-348"/>
<text xml:space="preserve" text-anchor="start" x="734.62" y="-334.5" font-family="Helvetica,sans-Serif" font-size="10.00">nlohmann::detail::binary</text>
<text xml:space="preserve" text-anchor="middle" x="786.38" y="-322.5" font-family="Helvetica,sans-Serif" font-size="10.00">_reader::get_string</text>
</a>
</g>
</g>
<!-- Node14&#45;&gt;Node15 -->
<g id="edge24" class="edge">
<title>Node14&#45;&gt;Node15</title>
<path fill="none" stroke="#63b8ff" d="M659.52,-282.49C681.82,-291.26 709.46,-302.14 733.15,-311.46"/>
<polygon fill="#63b8ff" stroke="#63b8ff" points="731.73,-314.66 742.31,-315.06 734.29,-308.14 731.73,-314.66"/>
</g>
<!-- Node15&#45;&gt;Node3 -->
<g id="edge25" class="edge">
<title>Node15&#45;&gt;Node3</title>
<path fill="none" stroke="#63b8ff" d="M846.24,-324.88C855.26,-323.78 864.65,-322.65 873.9,-321.53"/>
<polygon fill="#63b8ff" stroke="#63b8ff" points="874.05,-325.03 883.56,-320.36 873.21,-318.08 874.05,-325.03"/>
</g>
<!-- Node15&#45;&gt;Node5 -->
<g id="edge26" class="edge">
<title>Node15&#45;&gt;Node5</title>
<path fill="none" stroke="#63b8ff" d="M846.24,-343.64C855.26,-345.42 864.65,-347.28 873.9,-349.1"/>
<polygon fill="#63b8ff" stroke="#63b8ff" points="873.09,-352.51 883.57,-351.01 874.44,-345.64 873.09,-352.51"/>
</g>
<!-- Node16&#45;&gt;Node2 -->
<g id="edge30" class="edge">
<title>Node16&#45;&gt;Node2</title>
<path fill="none" stroke="#63b8ff" d="M545.67,-374.78C487.58,-378.75 404.51,-384.43 341.14,-388.75"/>
<polygon fill="#63b8ff" stroke="#63b8ff" points="341.19,-385.24 331.46,-389.42 341.67,-392.23 341.19,-385.24"/>
</g>
</g>
</svg>
