<?xml version="1.0" encoding="UTF-8" standalone="no"?>
<!DOCTYPE svg PUBLIC "-//W3C//DTD SVG 1.1//EN"
 "http://www.w3.org/Graphics/SVG/1.1/DTD/svg11.dtd">
<!-- Generated by graphviz version 13.1.2 (20250808.2320)
 -->
<!-- Title: nlohmann::detail::binary_reader::get_ubjson_object Pages: 1 -->
<svg width="1512pt" height="943pt"
 viewBox="0.00 0.00 1512.00 943.00" xmlns="http://www.w3.org/2000/svg" xmlns:xlink="http://www.w3.org/1999/xlink">
<g id="graph0" class="graph" transform="scale(1 1) rotate(0) translate(4 939.4)">
<title>nlohmann::detail::binary_reader::get_ubjson_object</title>
<!-- Node1 -->
<g id="node1" class="node">
<title>Node1</title>
<g id="a_node1"><a xlink:title=" ">
<polygon fill="#999999" stroke="#666666" points="133,-342.4 0,-342.4 0,-310.4 133,-310.4 133,-342.4"/>
<text xml:space="preserve" text-anchor="start" x="8" y="-328.9" font-family="Helvetica,sans-Serif" font-size="10.00">nlohmann::detail::binary</text>
<text xml:space="preserve" text-anchor="middle" x="66.5" y="-316.9" font-family="Helvetica,sans-Serif" font-size="10.00">_reader::get_ubjson_object</text>
</a>
</g>
</g>
<!-- Node2 -->
<g id="node2" class="node">
<title>Node2</title>
<g id="a_node2"><a xlink:href="a01995.html#a252c1179651d22c5343bcf0b538ed26a" target="_top" xlink:title=" ">
<polygon fill="white" stroke="#666666" points="999.38,-263.4 873.88,-263.4 873.88,-231.4 999.38,-231.4 999.38,-263.4"/>
<text xml:space="preserve" text-anchor="start" x="881.88" y="-249.9" font-family="Helvetica,sans-Serif" font-size="10.00">nlohmann::detail::binary</text>
<text xml:space="preserve" text-anchor="middle" x="936.62" y="-237.9" font-family="Helvetica,sans-Serif" font-size="10.00">_reader::get_ignore_noop</text>
</a>
</g>
</g>
<!-- Node1&#45;&gt;Node2 -->
<g id="edge1" class="edge">
<title>Node1&#45;&gt;Node2</title>
<path fill="none" stroke="#63b8ff" d="M75.1,-310.05C105.73,-246.91 226.67,-22.4 398.25,-22.4 398.25,-22.4 398.25,-22.4 574.88,-22.4 724.81,-22.4 863.94,-164.06 915.01,-222.57"/>
<polygon fill="#63b8ff" stroke="#63b8ff" points="912.28,-224.77 921.45,-230.07 917.59,-220.2 912.28,-224.77"/>
</g>
<!-- Node4 -->
<g id="node4" class="node">
<title>Node4</title>
<g id="a_node4"><a xlink:href="a01995.html#a7b6c2d4c95d56751e233e285a5f1fea7" target="_top" xlink:title="determine the type and size for a container">
<polygon fill="white" stroke="#666666" points="648.25,-213.4 499.5,-213.4 499.5,-181.4 648.25,-181.4 648.25,-213.4"/>
<text xml:space="preserve" text-anchor="start" x="507.5" y="-199.9" font-family="Helvetica,sans-Serif" font-size="10.00">nlohmann::detail::binary</text>
<text xml:space="preserve" text-anchor="middle" x="573.88" y="-187.9" font-family="Helvetica,sans-Serif" font-size="10.00">_reader::get_ubjson_size_type</text>
</a>
</g>
</g>
<!-- Node1&#45;&gt;Node4 -->
<g id="edge3" class="edge">
<title>Node1&#45;&gt;Node4</title>
<path fill="none" stroke="#63b8ff" d="M85,-309.95C104.08,-293.04 136.28,-267.41 169,-254.4 273.58,-212.8 403.99,-200.88 487.83,-197.83"/>
<polygon fill="#63b8ff" stroke="#63b8ff" points="487.7,-201.33 497.58,-197.51 487.47,-194.34 487.7,-201.33"/>
</g>
<!-- Node13 -->
<g id="node13" class="node">
<title>Node13</title>
<g id="a_node13"><a xlink:href="a01995.html#a4ae90db51c102e912b7eac83c78733a6" target="_top" xlink:title="reads a UBJSON string">
<polygon fill="white" stroke="#666666" points="826.25,-752.4 695.5,-752.4 695.5,-720.4 826.25,-720.4 826.25,-752.4"/>
<text xml:space="preserve" text-anchor="start" x="703.5" y="-738.9" font-family="Helvetica,sans-Serif" font-size="10.00">nlohmann::detail::binary</text>
<text xml:space="preserve" text-anchor="middle" x="760.88" y="-726.9" font-family="Helvetica,sans-Serif" font-size="10.00">_reader::get_ubjson_string</text>
</a>
</g>
</g>
<!-- Node1&#45;&gt;Node13 -->
<g id="edge22" class="edge">
<title>Node1&#45;&gt;Node13</title>
<path fill="none" stroke="#63b8ff" d="M78.11,-342.81C110.88,-392.44 215.53,-542.96 335,-632.4 399.47,-680.66 421.88,-686.92 499.5,-708.4 560.12,-725.17 631.27,-731.99 683.85,-734.72"/>
<polygon fill="#63b8ff" stroke="#63b8ff" points="683.45,-738.21 693.61,-735.19 683.78,-731.21 683.45,-738.21"/>
</g>
<!-- Node15 -->
<g id="node15" class="node">
<title>Node15</title>
<g id="a_node15"><a xlink:href="a01995.html#a7e5e0b71548d0649ce4f131280d06c33" target="_top" xlink:title=" ">
<polygon fill="white" stroke="#666666" points="299,-430.4 169,-430.4 169,-398.4 299,-398.4 299,-430.4"/>
<text xml:space="preserve" text-anchor="start" x="177" y="-416.9" font-family="Helvetica,sans-Serif" font-size="10.00">nlohmann::detail::binary</text>
<text xml:space="preserve" text-anchor="middle" x="234" y="-404.9" font-family="Helvetica,sans-Serif" font-size="10.00">_reader::get_ubjson_value</text>
</a>
</g>
</g>
<!-- Node1&#45;&gt;Node15 -->
<g id="edge32" class="edge">
<title>Node1&#45;&gt;Node15</title>
<path fill="none" stroke="#63b8ff" d="M109.69,-342.86C138.27,-356.86 175.42,-376.79 201.44,-392.18"/>
<polygon fill="#63b8ff" stroke="#63b8ff" points="199.5,-395.1 209.87,-397.26 203.12,-389.1 199.5,-395.1"/>
</g>
<!-- Node17 -->
<g id="node17" class="node">
<title>Node17</title>
<g id="a_node17"><a xlink:href="a01995.html#a5a79480d661019b0f3fc615ae12f7de7" target="_top" xlink:title=" ">
<polygon fill="white" stroke="#666666" points="648.25,-263.4 499.5,-263.4 499.5,-231.4 648.25,-231.4 648.25,-263.4"/>
<text xml:space="preserve" text-anchor="start" x="507.5" y="-249.9" font-family="Helvetica,sans-Serif" font-size="10.00">nlohmann::detail::binary</text>
<text xml:space="preserve" text-anchor="middle" x="573.88" y="-237.9" font-family="Helvetica,sans-Serif" font-size="10.00">_reader::parse_ubjson_internal</text>
</a>
</g>
</g>
<!-- Node1&#45;&gt;Node17 -->
<g id="edge55" class="edge">
<title>Node1&#45;&gt;Node17</title>
<path fill="none" stroke="#63b8ff" d="M113.14,-310.01C165.8,-292 255.38,-264.06 335,-252.4 385.3,-245.03 442.21,-243.59 487.76,-244.08"/>
<polygon fill="#63b8ff" stroke="#63b8ff" points="487.52,-247.58 497.57,-244.22 487.62,-240.58 487.52,-247.58"/>
</g>
<!-- Node3 -->
<g id="node3" class="node">
<title>Node3</title>
<g id="a_node3"><a xlink:href="a01995.html#ad222095c0b21a87824cb10629299629a" target="_top" xlink:title="get next character from the input">
<polygon fill="white" stroke="#666666" points="1155.25,-515.4 1035.75,-515.4 1035.75,-483.4 1155.25,-483.4 1155.25,-515.4"/>
<text xml:space="preserve" text-anchor="start" x="1043.75" y="-501.9" font-family="Helvetica,sans-Serif" font-size="10.00">nlohmann::detail::binary</text>
<text xml:space="preserve" text-anchor="middle" x="1095.5" y="-489.9" font-family="Helvetica,sans-Serif" font-size="10.00">_reader::get</text>
</a>
</g>
</g>
<!-- Node2&#45;&gt;Node3 -->
<g id="edge2" class="edge">
<title>Node2&#45;&gt;Node3</title>
<path fill="none" stroke="#63b8ff" d="M954.79,-263.66C968.08,-276.81 986.42,-296.23 999.75,-315.4 1036.11,-367.65 1067.52,-435.71 1083.42,-472.67"/>
<polygon fill="#63b8ff" stroke="#63b8ff" points="1080.13,-473.86 1087.26,-481.69 1086.57,-471.12 1080.13,-473.86"/>
</g>
<!-- Node4&#45;&gt;Node2 -->
<g id="edge9" class="edge">
<title>Node4&#45;&gt;Node2</title>
<path fill="none" stroke="#63b8ff" d="M648.75,-207.64C711.14,-216.28 800.01,-228.6 862.26,-237.23"/>
<polygon fill="#63b8ff" stroke="#63b8ff" points="861.67,-240.68 872.06,-238.59 862.64,-233.75 861.67,-240.68"/>
</g>
<!-- Node4&#45;&gt;Node3 -->
<g id="edge8" class="edge">
<title>Node4&#45;&gt;Node3</title>
<path fill="none" stroke="#63b8ff" d="M637.96,-180.96C728.27,-161.47 895.02,-141.02 999.75,-222.4 1078.83,-283.85 1092.31,-414.81 1094.32,-471.87"/>
<polygon fill="#63b8ff" stroke="#63b8ff" points="1090.82,-471.75 1094.56,-481.66 1097.82,-471.58 1090.82,-471.75"/>
</g>
<!-- Node5 -->
<g id="node5" class="node">
<title>Node5</title>
<g id="a_node5"><a xlink:href="a01563.html#a137ea4d27de45d8a844fd13451d40f3d" target="_top" xlink:title="create a parse error exception">
<polygon fill="white" stroke="#666666" points="1320.5,-733.4 1203.25,-733.4 1203.25,-701.4 1320.5,-701.4 1320.5,-733.4"/>
<text xml:space="preserve" text-anchor="start" x="1211.25" y="-719.9" font-family="Helvetica,sans-Serif" font-size="10.00">nlohmann::detail::parse</text>
<text xml:space="preserve" text-anchor="middle" x="1261.88" y="-707.9" font-family="Helvetica,sans-Serif" font-size="10.00">_error::create</text>
</a>
</g>
</g>
<!-- Node4&#45;&gt;Node5 -->
<g id="edge4" class="edge">
<title>Node4&#45;&gt;Node5</title>
<path fill="none" stroke="#63b8ff" d="M614.57,-180.92C693.6,-150.89 873.81,-96.5 999.75,-166.4 1106.68,-225.74 1101.19,-283.7 1155.25,-393.4 1182.02,-447.72 1233.52,-622.34 1253.08,-690.13"/>
<polygon fill="#63b8ff" stroke="#63b8ff" points="1249.7,-691.04 1255.82,-699.68 1256.42,-689.11 1249.7,-691.04"/>
</g>
<!-- Node8 -->
<g id="node8" class="node">
<title>Node8</title>
<g id="a_node8"><a xlink:href="a01995.html#a9c413c9a1bade1ce345740f4d69156f0" target="_top" xlink:title=" ">
<polygon fill="white" stroke="#666666" points="1332.5,-471.4 1191.25,-471.4 1191.25,-439.4 1332.5,-439.4 1332.5,-471.4"/>
<text xml:space="preserve" text-anchor="start" x="1199.25" y="-457.9" font-family="Helvetica,sans-Serif" font-size="10.00">nlohmann::detail::binary</text>
<text xml:space="preserve" text-anchor="middle" x="1261.88" y="-445.9" font-family="Helvetica,sans-Serif" font-size="10.00">_reader::exception_message</text>
</a>
</g>
</g>
<!-- Node4&#45;&gt;Node8 -->
<g id="edge7" class="edge">
<title>Node4&#45;&gt;Node8</title>
<path fill="none" stroke="#63b8ff" d="M591.66,-180.96C611.75,-162.57 647.3,-133.85 684.25,-122.4 784.23,-91.41 1070.79,-60.58 1155.25,-122.4 1206.02,-159.55 1243.87,-355.16 1256.4,-428.02"/>
<polygon fill="#63b8ff" stroke="#63b8ff" points="1252.88,-428.23 1258,-437.51 1259.78,-427.06 1252.88,-428.23"/>
</g>
<!-- Node9 -->
<g id="node9" class="node">
<title>Node9</title>
<g id="a_node9"><a xlink:href="a01995.html#a7d323283c60a0b89ee5eeadf5cb9a5ad" target="_top" xlink:title=" ">
<polygon fill="white" stroke="#666666" points="999.75,-427.4 873.5,-427.4 873.5,-395.4 999.75,-395.4 999.75,-427.4"/>
<text xml:space="preserve" text-anchor="start" x="881.5" y="-413.9" font-family="Helvetica,sans-Serif" font-size="10.00">nlohmann::detail::binary</text>
<text xml:space="preserve" text-anchor="middle" x="936.62" y="-401.9" font-family="Helvetica,sans-Serif" font-size="10.00">_reader::get_token_string</text>
</a>
</g>
</g>
<!-- Node4&#45;&gt;Node9 -->
<g id="edge10" class="edge">
<title>Node4&#45;&gt;Node9</title>
<path fill="none" stroke="#63b8ff" d="M638.21,-213.68C641.91,-216.19 645.31,-219.07 648.25,-222.4 700.26,-281.25 624.93,-343.93 684.25,-395.4 732.15,-436.95 806.44,-436.56 861.85,-428.42"/>
<polygon fill="#63b8ff" stroke="#63b8ff" points="862.21,-431.9 871.53,-426.87 861.1,-424.99 862.21,-431.9"/>
</g>
<!-- Node10 -->
<g id="node10" class="node">
<title>Node10</title>
<g id="a_node10"><a xlink:href="a01995.html#aba7ba9ec9a52ad2bee8baff70176aa20" target="_top" xlink:title=" ">
<polygon fill="white" stroke="#666666" points="837.5,-386.4 684.25,-386.4 684.25,-354.4 837.5,-354.4 837.5,-386.4"/>
<text xml:space="preserve" text-anchor="start" x="692.25" y="-372.9" font-family="Helvetica,sans-Serif" font-size="10.00">nlohmann::detail::binary</text>
<text xml:space="preserve" text-anchor="middle" x="760.88" y="-360.9" font-family="Helvetica,sans-Serif" font-size="10.00">_reader::get_ubjson_size_value</text>
</a>
</g>
</g>
<!-- Node4&#45;&gt;Node10 -->
<g id="edge11" class="edge">
<title>Node4&#45;&gt;Node10</title>
<path fill="none" stroke="#63b8ff" d="M637.53,-213.78C641.44,-216.26 645.07,-219.11 648.25,-222.4 686.39,-261.79 647.09,-300.08 684.25,-340.4 686.79,-343.15 689.61,-345.65 692.63,-347.93"/>
<polygon fill="#63b8ff" stroke="#63b8ff" points="690.63,-350.81 700.93,-353.29 694.42,-344.93 690.63,-350.81"/>
</g>
<!-- Node12 -->
<g id="node12" class="node">
<title>Node12</title>
<g id="a_node12"><a xlink:href="a01995.html#a61a0bd8bbe7b560bd429fa990ba3ba1a" target="_top" xlink:title=" ">
<polygon fill="white" stroke="#666666" points="1155.25,-755.4 1035.75,-755.4 1035.75,-723.4 1155.25,-723.4 1155.25,-755.4"/>
<text xml:space="preserve" text-anchor="start" x="1043.75" y="-741.9" font-family="Helvetica,sans-Serif" font-size="10.00">nlohmann::detail::binary</text>
<text xml:space="preserve" text-anchor="middle" x="1095.5" y="-729.9" font-family="Helvetica,sans-Serif" font-size="10.00">_reader::unexpect_eof</text>
</a>
</g>
</g>
<!-- Node4&#45;&gt;Node12 -->
<g id="edge21" class="edge">
<title>Node4&#45;&gt;Node12</title>
<path fill="none" stroke="#63b8ff" d="M625.27,-213.76C633.02,-216.51 640.88,-219.43 648.25,-222.4 668.24,-230.44 985.96,-369.84 999.75,-386.4 1040.33,-435.09 1019.4,-463.16 1035.75,-524.4 1053.79,-591.94 1075.63,-671.23 1086.92,-712.05"/>
<polygon fill="#63b8ff" stroke="#63b8ff" points="1083.49,-712.8 1089.54,-721.5 1090.24,-710.93 1083.49,-712.8"/>
</g>
<!-- Node6 -->
<g id="node6" class="node">
<title>Node6</title>
<g id="a_node6"><a xlink:href="a01559.html#abf41a7e9178356314082284e6cfea278" target="_top" xlink:title=" ">
<polygon fill="white" stroke="#666666" points="1503.75,-758.4 1368.5,-758.4 1368.5,-726.4 1503.75,-726.4 1503.75,-758.4"/>
<text xml:space="preserve" text-anchor="start" x="1376.5" y="-744.9" font-family="Helvetica,sans-Serif" font-size="10.00">nlohmann::detail::exception</text>
<text xml:space="preserve" text-anchor="middle" x="1436.12" y="-732.9" font-family="Helvetica,sans-Serif" font-size="10.00">::name</text>
</a>
</g>
</g>
<!-- Node5&#45;&gt;Node6 -->
<g id="edge5" class="edge">
<title>Node5&#45;&gt;Node6</title>
<path fill="none" stroke="#63b8ff" d="M1320.71,-725.79C1332.38,-727.49 1344.84,-729.29 1357.07,-731.07"/>
<polygon fill="#63b8ff" stroke="#63b8ff" points="1356.32,-734.5 1366.72,-732.47 1357.33,-727.57 1356.32,-734.5"/>
</g>
<!-- Node7 -->
<g id="node7" class="node">
<title>Node7</title>
<g id="a_node7"><a xlink:href="a01563.html#aefe74adeaa48781464ba2fd2ec63d221" target="_top" xlink:title=" ">
<polygon fill="white" stroke="#666666" points="1494.75,-708.4 1377.5,-708.4 1377.5,-676.4 1494.75,-676.4 1494.75,-708.4"/>
<text xml:space="preserve" text-anchor="start" x="1385.5" y="-694.9" font-family="Helvetica,sans-Serif" font-size="10.00">nlohmann::detail::parse</text>
<text xml:space="preserve" text-anchor="middle" x="1436.12" y="-682.9" font-family="Helvetica,sans-Serif" font-size="10.00">_error::position_string</text>
</a>
</g>
</g>
<!-- Node5&#45;&gt;Node7 -->
<g id="edge6" class="edge">
<title>Node5&#45;&gt;Node7</title>
<path fill="none" stroke="#63b8ff" d="M1320.71,-709C1335.2,-706.9 1350.88,-704.62 1365.86,-702.45"/>
<polygon fill="#63b8ff" stroke="#63b8ff" points="1366.26,-705.93 1375.65,-701.03 1365.25,-699 1366.26,-705.93"/>
</g>
<!-- Node10&#45;&gt;Node2 -->
<g id="edge14" class="edge">
<title>Node10&#45;&gt;Node2</title>
<path fill="none" stroke="#63b8ff" d="M778.63,-354.17C799.62,-334.4 837.24,-300.76 873.5,-277.4 877.98,-274.51 882.79,-271.72 887.66,-269.08"/>
<polygon fill="#63b8ff" stroke="#63b8ff" points="889.08,-272.29 896.35,-264.58 885.86,-266.07 889.08,-272.29"/>
</g>
<!-- Node10&#45;&gt;Node5 -->
<g id="edge12" class="edge">
<title>Node10&#45;&gt;Node5</title>
<path fill="none" stroke="#63b8ff" d="M837.86,-366.99C885.34,-366.93 947.21,-370.66 999.75,-386.4 1075.82,-409.19 1102.12,-415.38 1155.25,-474.4 1213.55,-539.17 1243.41,-641.15 1254.99,-689.8"/>
<polygon fill="#63b8ff" stroke="#63b8ff" points="1251.57,-690.52 1257.21,-699.49 1258.39,-688.96 1251.57,-690.52"/>
</g>
<!-- Node10&#45;&gt;Node8 -->
<g id="edge13" class="edge">
<title>Node10&#45;&gt;Node8</title>
<path fill="none" stroke="#63b8ff" d="M817.76,-353.93C896.32,-333.84 1042.43,-307.82 1155.25,-353.4 1193.23,-368.74 1225.14,-405 1243.64,-429.88"/>
<polygon fill="#63b8ff" stroke="#63b8ff" points="1240.72,-431.81 1249.4,-437.88 1246.4,-427.72 1240.72,-431.81"/>
</g>
<!-- Node10&#45;&gt;Node9 -->
<g id="edge20" class="edge">
<title>Node10&#45;&gt;Node9</title>
<path fill="none" stroke="#63b8ff" d="M831.79,-386.9C841.73,-389.24 851.97,-391.66 861.97,-394.02"/>
<polygon fill="#63b8ff" stroke="#63b8ff" points="861.13,-397.41 871.66,-396.3 862.73,-390.6 861.13,-397.41"/>
</g>
<!-- Node11 -->
<g id="node11" class="node">
<title>Node11</title>
<g id="a_node11"><a xlink:href="a01995.html#ac356c6364fe0273d3303fb7a447f4ef6" target="_top" xlink:title=" ">
<polygon fill="white" stroke="#666666" points="996.38,-515.4 876.88,-515.4 876.88,-483.4 996.38,-483.4 996.38,-515.4"/>
<text xml:space="preserve" text-anchor="start" x="884.88" y="-501.9" font-family="Helvetica,sans-Serif" font-size="10.00">nlohmann::detail::binary</text>
<text xml:space="preserve" text-anchor="middle" x="936.62" y="-489.9" font-family="Helvetica,sans-Serif" font-size="10.00">_reader::get_number</text>
</a>
</g>
</g>
<!-- Node10&#45;&gt;Node11 -->
<g id="edge15" class="edge">
<title>Node10&#45;&gt;Node11</title>
<path fill="none" stroke="#63b8ff" d="M783.88,-386.74C814.35,-409.36 869.54,-450.33 904.3,-476.14"/>
<polygon fill="#63b8ff" stroke="#63b8ff" points="902.19,-478.94 912.31,-482.09 906.37,-473.32 902.19,-478.94"/>
</g>
<!-- Node11&#45;&gt;Node3 -->
<g id="edge16" class="edge">
<title>Node11&#45;&gt;Node3</title>
<path fill="none" stroke="#63b8ff" d="M996.49,-499.4C1005.41,-499.4 1014.7,-499.4 1023.84,-499.4"/>
<polygon fill="#63b8ff" stroke="#63b8ff" points="1023.8,-502.9 1033.8,-499.4 1023.8,-495.9 1023.8,-502.9"/>
</g>
<!-- Node11&#45;&gt;Node12 -->
<g id="edge17" class="edge">
<title>Node11&#45;&gt;Node12</title>
<path fill="none" stroke="#63b8ff" d="M948.41,-515.89C975.28,-557.01 1045.41,-664.29 1077.73,-713.75"/>
<polygon fill="#63b8ff" stroke="#63b8ff" points="1074.62,-715.38 1083.02,-721.84 1080.48,-711.55 1074.62,-715.38"/>
</g>
<!-- Node12&#45;&gt;Node5 -->
<g id="edge18" class="edge">
<title>Node12&#45;&gt;Node5</title>
<path fill="none" stroke="#63b8ff" d="M1155.38,-731.52C1167.11,-729.95 1179.53,-728.29 1191.57,-726.67"/>
<polygon fill="#63b8ff" stroke="#63b8ff" points="1192.01,-730.15 1201.46,-725.35 1191.08,-723.21 1192.01,-730.15"/>
</g>
<!-- Node12&#45;&gt;Node8 -->
<g id="edge19" class="edge">
<title>Node12&#45;&gt;Node8</title>
<path fill="none" stroke="#63b8ff" d="M1112.77,-723.05C1125.35,-709.85 1142.7,-690.4 1155.25,-671.4 1197.4,-607.58 1233.31,-524.48 1250.33,-482.38"/>
<polygon fill="#63b8ff" stroke="#63b8ff" points="1253.51,-483.87 1253.97,-473.29 1247.01,-481.28 1253.51,-483.87"/>
</g>
<!-- Node13&#45;&gt;Node3 -->
<g id="edge25" class="edge">
<title>Node13&#45;&gt;Node3</title>
<path fill="none" stroke="#63b8ff" d="M785,-719.92C843.14,-678.5 995.49,-569.94 1062.31,-522.33"/>
<polygon fill="#63b8ff" stroke="#63b8ff" points="1064.18,-525.3 1070.3,-516.64 1060.12,-519.6 1064.18,-525.3"/>
</g>
<!-- Node13&#45;&gt;Node5 -->
<g id="edge23" class="edge">
<title>Node13&#45;&gt;Node5</title>
<path fill="none" stroke="#63b8ff" d="M793.12,-752.77C814.97,-763.26 845.19,-775.91 873.5,-781.4 996.65,-805.29 1034.14,-797.11 1155.25,-764.4 1177.65,-758.35 1201.36,-748.18 1220.62,-738.84"/>
<polygon fill="#63b8ff" stroke="#63b8ff" points="1222.08,-742.03 1229.48,-734.45 1218.96,-735.76 1222.08,-742.03"/>
</g>
<!-- Node13&#45;&gt;Node8 -->
<g id="edge24" class="edge">
<title>Node13&#45;&gt;Node8</title>
<path fill="none" stroke="#63b8ff" d="M826.46,-722.31C931.14,-699.06 1128.89,-653.26 1155.25,-633.4 1206.99,-594.42 1238.24,-522.07 1252.2,-482.67"/>
<polygon fill="#63b8ff" stroke="#63b8ff" points="1255.5,-483.84 1255.42,-473.24 1248.88,-481.58 1255.5,-483.84"/>
</g>
<!-- Node13&#45;&gt;Node9 -->
<g id="edge30" class="edge">
<title>Node13&#45;&gt;Node9</title>
<path fill="none" stroke="#63b8ff" d="M789.92,-720.09C806.39,-709.03 826.14,-692.89 837.5,-673.4 882.75,-595.74 832.1,-554.18 873.5,-474.4 881.24,-459.48 893.72,-445.8 905.47,-435.03"/>
<polygon fill="#63b8ff" stroke="#63b8ff" points="907.45,-437.94 912.67,-428.72 902.84,-432.67 907.45,-437.94"/>
</g>
<!-- Node13&#45;&gt;Node11 -->
<g id="edge26" class="edge">
<title>Node13&#45;&gt;Node11</title>
<path fill="none" stroke="#63b8ff" d="M788.2,-719.97C804.42,-708.65 824.54,-692.27 837.5,-673.4 865.67,-632.39 848.18,-610.23 873.5,-567.4 883.02,-551.29 896.81,-535.7 908.99,-523.53"/>
<polygon fill="#63b8ff" stroke="#63b8ff" points="911.26,-526.2 916,-516.73 906.38,-521.18 911.26,-526.2"/>
</g>
<!-- Node13&#45;&gt;Node12 -->
<g id="edge31" class="edge">
<title>Node13&#45;&gt;Node12</title>
<path fill="none" stroke="#63b8ff" d="M816.16,-752.86C834.22,-757.57 854.56,-762.06 873.5,-764.4 929.19,-771.28 944.11,-771.62 999.75,-764.4 1009.91,-763.08 1020.53,-761 1030.84,-758.59"/>
<polygon fill="#63b8ff" stroke="#63b8ff" points="1031.52,-762.02 1040.39,-756.22 1029.84,-755.23 1031.52,-762.02"/>
</g>
<!-- Node14 -->
<g id="node14" class="node">
<title>Node14</title>
<g id="a_node14"><a xlink:href="a01995.html#a540919db22df36512f05a88945c13263" target="_top" xlink:title="create a string by reading characters from the input">
<polygon fill="white" stroke="#666666" points="996.38,-755.4 876.88,-755.4 876.88,-723.4 996.38,-723.4 996.38,-755.4"/>
<text xml:space="preserve" text-anchor="start" x="884.88" y="-741.9" font-family="Helvetica,sans-Serif" font-size="10.00">nlohmann::detail::binary</text>
<text xml:space="preserve" text-anchor="middle" x="936.62" y="-729.9" font-family="Helvetica,sans-Serif" font-size="10.00">_reader::get_string</text>
</a>
</g>
</g>
<!-- Node13&#45;&gt;Node14 -->
<g id="edge27" class="edge">
<title>Node13&#45;&gt;Node14</title>
<path fill="none" stroke="#63b8ff" d="M826.57,-737.52C839.26,-737.73 852.62,-737.96 865.48,-738.19"/>
<polygon fill="#63b8ff" stroke="#63b8ff" points="865.04,-741.68 875.1,-738.35 865.16,-734.68 865.04,-741.68"/>
</g>
<!-- Node14&#45;&gt;Node3 -->
<g id="edge28" class="edge">
<title>Node14&#45;&gt;Node3</title>
<path fill="none" stroke="#63b8ff" d="M948.41,-722.9C975.28,-681.78 1045.41,-574.51 1077.73,-525.05"/>
<polygon fill="#63b8ff" stroke="#63b8ff" points="1080.48,-527.24 1083.02,-516.96 1074.62,-523.41 1080.48,-527.24"/>
</g>
<!-- Node14&#45;&gt;Node12 -->
<g id="edge29" class="edge">
<title>Node14&#45;&gt;Node12</title>
<path fill="none" stroke="#63b8ff" d="M996.49,-739.4C1005.41,-739.4 1014.7,-739.4 1023.84,-739.4"/>
<polygon fill="#63b8ff" stroke="#63b8ff" points="1023.8,-742.9 1033.8,-739.4 1023.8,-735.9 1023.8,-742.9"/>
</g>
<!-- Node15&#45;&gt;Node1 -->
<g id="edge52" class="edge">
<title>Node15&#45;&gt;Node1</title>
<path fill="none" stroke="#63b8ff" d="M190.83,-397.94C162.3,-383.97 125.23,-364.08 99.21,-348.71"/>
<polygon fill="#63b8ff" stroke="#63b8ff" points="101.15,-345.79 90.77,-343.62 97.53,-351.78 101.15,-345.79"/>
</g>
<!-- Node15&#45;&gt;Node3 -->
<g id="edge35" class="edge">
<title>Node15&#45;&gt;Node3</title>
<path fill="none" stroke="#63b8ff" d="M299.43,-415.55C431.63,-418.78 742.73,-430.77 999.75,-474.4 1008.91,-475.95 1018.48,-477.98 1027.86,-480.21"/>
<polygon fill="#63b8ff" stroke="#63b8ff" points="1026.73,-483.54 1037.28,-482.55 1028.41,-476.75 1026.73,-483.54"/>
</g>
<!-- Node15&#45;&gt;Node5 -->
<g id="edge33" class="edge">
<title>Node15&#45;&gt;Node5</title>
<path fill="none" stroke="#63b8ff" d="M264.56,-430.82C277.25,-439.43 290.98,-451.16 299,-465.4 360.38,-574.32 273.82,-635.36 335,-744.4 401.34,-862.64 437.29,-935.4 572.88,-935.4 572.88,-935.4 572.88,-935.4 937.62,-935.4 1074.2,-935.4 1196.29,-799.98 1241.89,-742.6"/>
<polygon fill="#63b8ff" stroke="#63b8ff" points="1244.45,-745.01 1247.85,-734.98 1238.93,-740.7 1244.45,-745.01"/>
</g>
<!-- Node15&#45;&gt;Node8 -->
<g id="edge34" class="edge">
<title>Node15&#45;&gt;Node8</title>
<path fill="none" stroke="#63b8ff" d="M241.73,-397.95C255.25,-366.62 288.45,-297.76 335,-255.4 395.57,-200.28 425.5,-207.46 499.5,-172.4 765.18,-46.51 922.28,93.93 1155.25,-85.4 1210.77,-128.14 1246.23,-349.28 1257.22,-427.75"/>
<polygon fill="#63b8ff" stroke="#63b8ff" points="1253.74,-428.14 1258.57,-437.57 1260.67,-427.18 1253.74,-428.14"/>
</g>
<!-- Node15&#45;&gt;Node9 -->
<g id="edge37" class="edge">
<title>Node15&#45;&gt;Node9</title>
<path fill="none" stroke="#63b8ff" d="M299.34,-420.48C409.69,-429.88 642.04,-445.2 837.5,-428.4 845.43,-427.72 853.69,-426.73 861.9,-425.57"/>
<polygon fill="#63b8ff" stroke="#63b8ff" points="862.15,-429.07 871.52,-424.12 861.11,-422.15 862.15,-429.07"/>
</g>
<!-- Node15&#45;&gt;Node11 -->
<g id="edge36" class="edge">
<title>Node15&#45;&gt;Node11</title>
<path fill="none" stroke="#63b8ff" d="M292.69,-430.87C306.5,-434.57 321.23,-438.3 335,-441.4 488.89,-475.99 527.15,-490.34 684.25,-504.4 752.09,-510.47 769.41,-506.13 837.5,-504.4 846.47,-504.17 855.9,-503.82 865.22,-503.42"/>
<polygon fill="#63b8ff" stroke="#63b8ff" points="865.15,-506.93 874.98,-502.97 864.83,-499.93 865.15,-506.93"/>
</g>
<!-- Node15&#45;&gt;Node12 -->
<g id="edge54" class="edge">
<title>Node15&#45;&gt;Node12</title>
<path fill="none" stroke="#63b8ff" d="M263.37,-430.68C276.12,-439.4 290.24,-451.27 299,-465.4 339.02,-529.92 297.9,-566.15 335,-632.4 406.41,-759.9 426.74,-859.4 572.88,-859.4 572.88,-859.4 572.88,-859.4 761.88,-859.4 870.09,-859.4 900.89,-851.41 999.75,-807.4 1024.79,-796.25 1049.85,-777.87 1067.9,-763.03"/>
<polygon fill="#63b8ff" stroke="#63b8ff" points="1070.12,-765.74 1075.51,-756.62 1065.61,-760.39 1070.12,-765.74"/>
</g>
<!-- Node15&#45;&gt;Node13 -->
<g id="edge53" class="edge">
<title>Node15&#45;&gt;Node13</title>
<path fill="none" stroke="#63b8ff" d="M240.62,-430.81C252.71,-463.79 284.28,-538.52 335,-580.4 438.39,-665.77 592.71,-706.64 684.14,-724.41"/>
<polygon fill="#63b8ff" stroke="#63b8ff" points="683.28,-727.81 693.75,-726.23 684.58,-720.93 683.28,-727.81"/>
</g>
<!-- Node16 -->
<g id="node16" class="node">
<title>Node16</title>
<g id="a_node16"><a xlink:href="a01995.html#afb36cb588b795efa513fc95e949493b7" target="_top" xlink:title=" ">
<polygon fill="white" stroke="#666666" points="463.5,-339.4 335,-339.4 335,-307.4 463.5,-307.4 463.5,-339.4"/>
<text xml:space="preserve" text-anchor="start" x="343" y="-325.9" font-family="Helvetica,sans-Serif" font-size="10.00">nlohmann::detail::binary</text>
<text xml:space="preserve" text-anchor="middle" x="399.25" y="-313.9" font-family="Helvetica,sans-Serif" font-size="10.00">_reader::get_ubjson_array</text>
</a>
</g>
</g>
<!-- Node15&#45;&gt;Node16 -->
<g id="edge38" class="edge">
<title>Node15&#45;&gt;Node16</title>
<path fill="none" stroke="#63b8ff" d="M256.01,-397.99C279.14,-383.07 317.16,-361.36 348.07,-345.09"/>
<polygon fill="#63b8ff" stroke="#63b8ff" points="349.65,-348.21 356.91,-340.49 346.42,-342 349.65,-348.21"/>
</g>
<!-- Node18 -->
<g id="node18" class="node">
<title>Node18</title>
<g id="a_node18"><a xlink:href="a01995.html#a26c694413fb860057e1a839d5422b361" target="_top" xlink:title=" ">
<polygon fill="white" stroke="#666666" points="636.25,-626.4 511.5,-626.4 511.5,-582.4 636.25,-582.4 636.25,-626.4"/>
<text xml:space="preserve" text-anchor="start" x="519.5" y="-612.9" font-family="Helvetica,sans-Serif" font-size="10.00">nlohmann::detail::binary</text>
<text xml:space="preserve" text-anchor="start" x="519.5" y="-600.9" font-family="Helvetica,sans-Serif" font-size="10.00">_reader::get_ubjson_high</text>
<text xml:space="preserve" text-anchor="middle" x="573.88" y="-588.9" font-family="Helvetica,sans-Serif" font-size="10.00">_precision_number</text>
</a>
</g>
</g>
<!-- Node15&#45;&gt;Node18 -->
<g id="edge45" class="edge">
<title>Node15&#45;&gt;Node18</title>
<path fill="none" stroke="#63b8ff" d="M243.04,-430.53C257.53,-457.9 290.69,-513.29 335,-542.4 384.39,-574.85 449.94,-590.33 499.72,-597.71"/>
<polygon fill="#63b8ff" stroke="#63b8ff" points="499.17,-601.17 509.55,-599.08 500.13,-594.23 499.17,-601.17"/>
</g>
<!-- Node16&#45;&gt;Node2 -->
<g id="edge39" class="edge">
<title>Node16&#45;&gt;Node2</title>
<path fill="none" stroke="#63b8ff" d="M463.98,-314.38C549.11,-302.33 704.66,-280.29 837.5,-261.4 845.52,-260.26 853.92,-259.06 862.27,-257.87"/>
<polygon fill="#63b8ff" stroke="#63b8ff" points="862.69,-261.35 872.1,-256.47 861.71,-254.42 862.69,-261.35"/>
</g>
<!-- Node16&#45;&gt;Node4 -->
<g id="edge40" class="edge">
<title>Node16&#45;&gt;Node4</title>
<path fill="none" stroke="#63b8ff" d="M415.47,-307.11C440.78,-280.14 489.72,-228.55 499.5,-222.4 501.5,-221.14 503.58,-219.93 505.7,-218.78"/>
<polygon fill="#63b8ff" stroke="#63b8ff" points="507.14,-221.98 514.59,-214.45 504.07,-215.69 507.14,-221.98"/>
</g>
<!-- Node16&#45;&gt;Node15 -->
<g id="edge41" class="edge">
<title>Node16&#45;&gt;Node15</title>
<path fill="none" stroke="#63b8ff" d="M377.17,-339.86C354.01,-354.78 316,-376.49 285.11,-392.75"/>
<polygon fill="#63b8ff" stroke="#63b8ff" points="283.54,-389.62 276.28,-397.34 286.77,-395.83 283.54,-389.62"/>
</g>
<!-- Node16&#45;&gt;Node17 -->
<g id="edge42" class="edge">
<title>Node16&#45;&gt;Node17</title>
<path fill="none" stroke="#63b8ff" d="M434.52,-307.04C453.56,-298.07 477.74,-286.88 499.5,-277.4 506.45,-274.37 513.81,-271.25 521.07,-268.23"/>
<polygon fill="#63b8ff" stroke="#63b8ff" points="522.29,-271.51 530.2,-264.46 519.62,-265.04 522.29,-271.51"/>
</g>
<!-- Node17&#45;&gt;Node2 -->
<g id="edge43" class="edge">
<title>Node17&#45;&gt;Node2</title>
<path fill="none" stroke="#63b8ff" d="M648.75,-247.4C711.14,-247.4 800.01,-247.4 862.26,-247.4"/>
<polygon fill="#63b8ff" stroke="#63b8ff" points="862.05,-250.9 872.05,-247.4 862.05,-243.9 862.05,-250.9"/>
</g>
<!-- Node17&#45;&gt;Node15 -->
<g id="edge44" class="edge">
<title>Node17&#45;&gt;Node15</title>
<path fill="none" stroke="#63b8ff" d="M499.26,-251.02C449.87,-256.26 384.95,-268.78 335,-298.4 297.69,-320.53 267.32,-361.57 250.19,-388.42"/>
<polygon fill="#63b8ff" stroke="#63b8ff" points="247.38,-386.32 245.09,-396.67 253.33,-390.01 247.38,-386.32"/>
</g>
<!-- Node18&#45;&gt;Node3 -->
<g id="edge48" class="edge">
<title>Node18&#45;&gt;Node3</title>
<path fill="none" stroke="#63b8ff" d="M636.73,-594.19C719.69,-580.16 871.44,-553.37 999.75,-524.4 1007.68,-522.61 1015.95,-520.62 1024.16,-518.56"/>
<polygon fill="#63b8ff" stroke="#63b8ff" points="1024.98,-521.96 1033.81,-516.1 1023.25,-515.18 1024.98,-521.96"/>
</g>
<!-- Node18&#45;&gt;Node5 -->
<g id="edge46" class="edge">
<title>Node18&#45;&gt;Node5</title>
<path fill="none" stroke="#63b8ff" d="M601.74,-626.63C622.79,-642.68 653.56,-663.24 684.25,-673.4 731.32,-688.97 1049.04,-706.71 1191.73,-714"/>
<polygon fill="#63b8ff" stroke="#63b8ff" points="1191.25,-717.48 1201.42,-714.49 1191.61,-710.49 1191.25,-717.48"/>
</g>
<!-- Node18&#45;&gt;Node8 -->
<g id="edge47" class="edge">
<title>Node18&#45;&gt;Node8</title>
<path fill="none" stroke="#63b8ff" d="M636.73,-605.69C745.68,-605.86 977.13,-596.72 1155.25,-524.4 1183.28,-513.02 1211.81,-493.83 1232.15,-478.57"/>
<polygon fill="#63b8ff" stroke="#63b8ff" points="1234.15,-481.45 1239.95,-472.59 1229.89,-475.9 1234.15,-481.45"/>
</g>
<!-- Node18&#45;&gt;Node10 -->
<g id="edge49" class="edge">
<title>Node18&#45;&gt;Node10</title>
<path fill="none" stroke="#63b8ff" d="M592.61,-581.96C627.23,-538.18 703.57,-441.61 739.9,-395.66"/>
<polygon fill="#63b8ff" stroke="#63b8ff" points="742.62,-397.86 746.08,-387.85 737.13,-393.52 742.62,-397.86"/>
</g>
<!-- Node18&#45;&gt;Node12 -->
<g id="edge51" class="edge">
<title>Node18&#45;&gt;Node12</title>
<path fill="none" stroke="#63b8ff" d="M583.24,-626.71C597.78,-662.06 631.34,-730.13 684.25,-761.4 805.21,-832.89 862.29,-810.5 999.75,-781.4 1019.14,-777.29 1039.38,-768.95 1056.16,-760.77"/>
<polygon fill="#63b8ff" stroke="#63b8ff" points="1057.42,-764.05 1064.76,-756.42 1054.26,-757.8 1057.42,-764.05"/>
</g>
<!-- Node19 -->
<g id="node19" class="node">
<title>Node19</title>
<g id="a_node19"><a xlink:href="a00477.html#a616a53cc3114fdc113fc44e6af4c3c7f" target="_top" xlink:title=" ">
<polygon fill="white" stroke="#666666" points="818,-664.4 703.75,-664.4 703.75,-632.4 818,-632.4 818,-664.4"/>
<text xml:space="preserve" text-anchor="start" x="711.75" y="-650.9" font-family="Helvetica,sans-Serif" font-size="10.00">nlohmann::detail::input</text>
<text xml:space="preserve" text-anchor="middle" x="760.88" y="-638.9" font-family="Helvetica,sans-Serif" font-size="10.00">_adapter</text>
</a>
</g>
</g>
<!-- Node18&#45;&gt;Node19 -->
<g id="edge50" class="edge">
<title>Node18&#45;&gt;Node19</title>
<path fill="none" stroke="#63b8ff" d="M636.73,-619.11C654.57,-623.35 674.11,-628 692.27,-632.32"/>
<polygon fill="#63b8ff" stroke="#63b8ff" points="691.36,-635.7 701.9,-634.61 692.98,-628.89 691.36,-635.7"/>
</g>
</g>
</svg>
