<?xml version="1.0" encoding="UTF-8" standalone="no"?>
<!DOCTYPE svg PUBLIC "-//W3C//DTD SVG 1.1//EN"
 "http://www.w3.org/Graphics/SVG/1.1/DTD/svg11.dtd">
<!-- Generated by graphviz version 13.1.2 (20250808.2320)
 -->
<!-- Title: nlohmann::detail::binary_reader::get_ubjson_size_type Pages: 1 -->
<svg width="1012pt" height="314pt"
 viewBox="0.00 0.00 1012.00 314.00" xmlns="http://www.w3.org/2000/svg" xmlns:xlink="http://www.w3.org/1999/xlink">
<g id="graph0" class="graph" transform="scale(1 1) rotate(0) translate(4 310.38)">
<title>nlohmann::detail::binary_reader::get_ubjson_size_type</title>
<!-- Node1 -->
<g id="node1" class="node">
<title>Node1</title>
<g id="a_node1"><a xlink:title="determine the type and size for a container">
<polygon fill="#999999" stroke="#666666" points="148.75,-180.81 0,-180.81 0,-148.81 148.75,-148.81 148.75,-180.81"/>
<text xml:space="preserve" text-anchor="start" x="8" y="-167.31" font-family="Helvetica,sans-Serif" font-size="10.00">nlohmann::detail::binary</text>
<text xml:space="preserve" text-anchor="middle" x="74.38" y="-155.31" font-family="Helvetica,sans-Serif" font-size="10.00">_reader::get_ubjson_size_type</text>
</a>
</g>
</g>
<!-- Node2 -->
<g id="node2" class="node">
<title>Node2</title>
<g id="a_node2"><a xlink:href="a01563.html#a137ea4d27de45d8a844fd13451d40f3d" target="_top" xlink:title="create a parse error exception">
<polygon fill="white" stroke="#666666" points="821,-224.81 703.75,-224.81 703.75,-192.81 821,-192.81 821,-224.81"/>
<text xml:space="preserve" text-anchor="start" x="711.75" y="-211.31" font-family="Helvetica,sans-Serif" font-size="10.00">nlohmann::detail::parse</text>
<text xml:space="preserve" text-anchor="middle" x="762.38" y="-199.31" font-family="Helvetica,sans-Serif" font-size="10.00">_error::create</text>
</a>
</g>
</g>
<!-- Node1&#45;&gt;Node2 -->
<g id="edge1" class="edge">
<title>Node1&#45;&gt;Node2</title>
<path fill="none" stroke="#63b8ff" d="M88.63,-181.25C107.49,-203.4 144.28,-242.3 184.75,-261.81 261.66,-298.87 288.94,-287.45 374,-294.81 498.98,-305.62 537.64,-320.09 655.75,-277.81 684.59,-267.48 713.44,-247.85 733.69,-232.15"/>
<polygon fill="#63b8ff" stroke="#63b8ff" points="735.79,-234.95 741.44,-225.99 731.43,-229.47 735.79,-234.95"/>
</g>
<!-- Node5 -->
<g id="node5" class="node">
<title>Node5</title>
<g id="a_node5"><a xlink:href="a01995.html#a9c413c9a1bade1ce345740f4d69156f0" target="_top" xlink:title=" ">
<polygon fill="white" stroke="#666666" points="833,-136.81 691.75,-136.81 691.75,-104.81 833,-104.81 833,-136.81"/>
<text xml:space="preserve" text-anchor="start" x="699.75" y="-123.31" font-family="Helvetica,sans-Serif" font-size="10.00">nlohmann::detail::binary</text>
<text xml:space="preserve" text-anchor="middle" x="762.38" y="-111.31" font-family="Helvetica,sans-Serif" font-size="10.00">_reader::exception_message</text>
</a>
</g>
</g>
<!-- Node1&#45;&gt;Node5 -->
<g id="edge4" class="edge">
<title>Node1&#45;&gt;Node5</title>
<path fill="none" stroke="#63b8ff" d="M83.44,-148.39C98.66,-119.5 134.63,-60.32 184.75,-35.81 368.71,54.17 622.17,-51.23 720.29,-99.34"/>
<polygon fill="#63b8ff" stroke="#63b8ff" points="718.51,-102.36 729.03,-103.68 721.63,-96.1 718.51,-102.36"/>
</g>
<!-- Node6 -->
<g id="node6" class="node">
<title>Node6</title>
<g id="a_node6"><a xlink:href="a01995.html#ad222095c0b21a87824cb10629299629a" target="_top" xlink:title="get next character from the input">
<polygon fill="white" stroke="#666666" points="655.75,-268.81 536.25,-268.81 536.25,-236.81 655.75,-236.81 655.75,-268.81"/>
<text xml:space="preserve" text-anchor="start" x="544.25" y="-255.31" font-family="Helvetica,sans-Serif" font-size="10.00">nlohmann::detail::binary</text>
<text xml:space="preserve" text-anchor="middle" x="596" y="-243.31" font-family="Helvetica,sans-Serif" font-size="10.00">_reader::get</text>
</a>
</g>
</g>
<!-- Node1&#45;&gt;Node6 -->
<g id="edge5" class="edge">
<title>Node1&#45;&gt;Node6</title>
<path fill="none" stroke="#63b8ff" d="M102,-181.29C123.67,-194.18 155.37,-211.86 184.75,-223.81 265.77,-256.76 287.38,-265.69 374,-277.81 429.57,-285.58 444.61,-285.02 500.25,-277.81 510.41,-276.49 521.03,-274.41 531.34,-272"/>
<polygon fill="#63b8ff" stroke="#63b8ff" points="532.02,-275.43 540.89,-269.63 530.34,-268.64 532.02,-275.43"/>
</g>
<!-- Node7 -->
<g id="node7" class="node">
<title>Node7</title>
<g id="a_node7"><a xlink:href="a01995.html#a252c1179651d22c5343bcf0b538ed26a" target="_top" xlink:title=" ">
<polygon fill="white" stroke="#666666" points="499.88,-268.81 374.38,-268.81 374.38,-236.81 499.88,-236.81 499.88,-268.81"/>
<text xml:space="preserve" text-anchor="start" x="382.38" y="-255.31" font-family="Helvetica,sans-Serif" font-size="10.00">nlohmann::detail::binary</text>
<text xml:space="preserve" text-anchor="middle" x="437.12" y="-243.31" font-family="Helvetica,sans-Serif" font-size="10.00">_reader::get_ignore_noop</text>
</a>
</g>
</g>
<!-- Node1&#45;&gt;Node7 -->
<g id="edge6" class="edge">
<title>Node1&#45;&gt;Node7</title>
<path fill="none" stroke="#63b8ff" d="M142.81,-181.26C205.56,-196.56 298.82,-219.31 363.26,-235.03"/>
<polygon fill="#63b8ff" stroke="#63b8ff" points="362.13,-238.36 372.67,-237.33 363.79,-231.56 362.13,-238.36"/>
</g>
<!-- Node8 -->
<g id="node8" class="node">
<title>Node8</title>
<g id="a_node8"><a xlink:href="a01995.html#a7d323283c60a0b89ee5eeadf5cb9a5ad" target="_top" xlink:title=" ">
<polygon fill="white" stroke="#666666" points="500.25,-92.81 374,-92.81 374,-60.81 500.25,-60.81 500.25,-92.81"/>
<text xml:space="preserve" text-anchor="start" x="382" y="-79.31" font-family="Helvetica,sans-Serif" font-size="10.00">nlohmann::detail::binary</text>
<text xml:space="preserve" text-anchor="middle" x="437.12" y="-67.31" font-family="Helvetica,sans-Serif" font-size="10.00">_reader::get_token_string</text>
</a>
</g>
</g>
<!-- Node1&#45;&gt;Node8 -->
<g id="edge8" class="edge">
<title>Node1&#45;&gt;Node8</title>
<path fill="none" stroke="#63b8ff" d="M142.81,-148.36C205.36,-133.1 298.25,-110.44 362.67,-94.73"/>
<polygon fill="#63b8ff" stroke="#63b8ff" points="363.19,-98.2 372.08,-92.43 361.53,-91.4 363.19,-98.2"/>
</g>
<!-- Node9 -->
<g id="node9" class="node">
<title>Node9</title>
<g id="a_node9"><a xlink:href="a01995.html#aba7ba9ec9a52ad2bee8baff70176aa20" target="_top" xlink:title=" ">
<polygon fill="white" stroke="#666666" points="338,-180.81 184.75,-180.81 184.75,-148.81 338,-148.81 338,-180.81"/>
<text xml:space="preserve" text-anchor="start" x="192.75" y="-167.31" font-family="Helvetica,sans-Serif" font-size="10.00">nlohmann::detail::binary</text>
<text xml:space="preserve" text-anchor="middle" x="261.38" y="-155.31" font-family="Helvetica,sans-Serif" font-size="10.00">_reader::get_ubjson_size_value</text>
</a>
</g>
</g>
<!-- Node1&#45;&gt;Node9 -->
<g id="edge9" class="edge">
<title>Node1&#45;&gt;Node9</title>
<path fill="none" stroke="#63b8ff" d="M149.02,-164.81C156.9,-164.81 164.97,-164.81 172.98,-164.81"/>
<polygon fill="#63b8ff" stroke="#63b8ff" points="172.74,-168.31 182.74,-164.81 172.74,-161.31 172.74,-168.31"/>
</g>
<!-- Node11 -->
<g id="node11" class="node">
<title>Node11</title>
<g id="a_node11"><a xlink:href="a01995.html#a61a0bd8bbe7b560bd429fa990ba3ba1a" target="_top" xlink:title=" ">
<polygon fill="white" stroke="#666666" points="655.75,-180.81 536.25,-180.81 536.25,-148.81 655.75,-148.81 655.75,-180.81"/>
<text xml:space="preserve" text-anchor="start" x="544.25" y="-167.31" font-family="Helvetica,sans-Serif" font-size="10.00">nlohmann::detail::binary</text>
<text xml:space="preserve" text-anchor="middle" x="596" y="-155.31" font-family="Helvetica,sans-Serif" font-size="10.00">_reader::unexpect_eof</text>
</a>
</g>
</g>
<!-- Node1&#45;&gt;Node11 -->
<g id="edge19" class="edge">
<title>Node1&#45;&gt;Node11</title>
<path fill="none" stroke="#63b8ff" d="M97.53,-148.61C162.14,-103.49 354.99,15.96 500.25,-51.81 538.35,-69.58 566.55,-111.04 581.88,-138.49"/>
<polygon fill="#63b8ff" stroke="#63b8ff" points="578.78,-140.1 586.59,-147.26 584.94,-136.8 578.78,-140.1"/>
</g>
<!-- Node3 -->
<g id="node3" class="node">
<title>Node3</title>
<g id="a_node3"><a xlink:href="a01559.html#abf41a7e9178356314082284e6cfea278" target="_top" xlink:title=" ">
<polygon fill="white" stroke="#666666" points="1004.25,-249.81 869,-249.81 869,-217.81 1004.25,-217.81 1004.25,-249.81"/>
<text xml:space="preserve" text-anchor="start" x="877" y="-236.31" font-family="Helvetica,sans-Serif" font-size="10.00">nlohmann::detail::exception</text>
<text xml:space="preserve" text-anchor="middle" x="936.62" y="-224.31" font-family="Helvetica,sans-Serif" font-size="10.00">::name</text>
</a>
</g>
</g>
<!-- Node2&#45;&gt;Node3 -->
<g id="edge2" class="edge">
<title>Node2&#45;&gt;Node3</title>
<path fill="none" stroke="#63b8ff" d="M821.21,-217.2C832.88,-218.89 845.34,-220.7 857.57,-222.48"/>
<polygon fill="#63b8ff" stroke="#63b8ff" points="856.82,-225.91 867.22,-223.88 857.83,-218.98 856.82,-225.91"/>
</g>
<!-- Node4 -->
<g id="node4" class="node">
<title>Node4</title>
<g id="a_node4"><a xlink:href="a01563.html#aefe74adeaa48781464ba2fd2ec63d221" target="_top" xlink:title=" ">
<polygon fill="white" stroke="#666666" points="995.25,-199.81 878,-199.81 878,-167.81 995.25,-167.81 995.25,-199.81"/>
<text xml:space="preserve" text-anchor="start" x="886" y="-186.31" font-family="Helvetica,sans-Serif" font-size="10.00">nlohmann::detail::parse</text>
<text xml:space="preserve" text-anchor="middle" x="936.62" y="-174.31" font-family="Helvetica,sans-Serif" font-size="10.00">_error::position_string</text>
</a>
</g>
</g>
<!-- Node2&#45;&gt;Node4 -->
<g id="edge3" class="edge">
<title>Node2&#45;&gt;Node4</title>
<path fill="none" stroke="#63b8ff" d="M821.21,-200.41C835.7,-198.31 851.38,-196.03 866.36,-193.86"/>
<polygon fill="#63b8ff" stroke="#63b8ff" points="866.76,-197.34 876.15,-192.44 865.75,-190.41 866.76,-197.34"/>
</g>
<!-- Node7&#45;&gt;Node6 -->
<g id="edge7" class="edge">
<title>Node7&#45;&gt;Node6</title>
<path fill="none" stroke="#63b8ff" d="M500.13,-252.81C508.1,-252.81 516.31,-252.81 524.41,-252.81"/>
<polygon fill="#63b8ff" stroke="#63b8ff" points="524.24,-256.31 534.24,-252.81 524.24,-249.31 524.24,-256.31"/>
</g>
<!-- Node9&#45;&gt;Node2 -->
<g id="edge10" class="edge">
<title>Node9&#45;&gt;Node2</title>
<path fill="none" stroke="#63b8ff" d="M327.26,-181.31C342.5,-184.63 358.75,-187.74 374,-189.81 484.66,-204.8 614.51,-208.34 692.25,-208.98"/>
<polygon fill="#63b8ff" stroke="#63b8ff" points="691.8,-212.47 701.82,-209.04 691.85,-205.47 691.8,-212.47"/>
</g>
<!-- Node9&#45;&gt;Node5 -->
<g id="edge11" class="edge">
<title>Node9&#45;&gt;Node5</title>
<path fill="none" stroke="#63b8ff" d="M327.26,-148.31C342.5,-144.98 358.75,-141.87 374,-139.81 479.09,-125.57 601.5,-121.66 680.14,-120.76"/>
<polygon fill="#63b8ff" stroke="#63b8ff" points="679.94,-124.26 689.9,-120.66 679.87,-117.26 679.94,-124.26"/>
</g>
<!-- Node9&#45;&gt;Node7 -->
<g id="edge12" class="edge">
<title>Node9&#45;&gt;Node7</title>
<path fill="none" stroke="#63b8ff" d="M293.52,-181.3C315.84,-193.05 346.67,-209.11 374,-222.81 379.55,-225.59 385.41,-228.48 391.21,-231.31"/>
<polygon fill="#63b8ff" stroke="#63b8ff" points="389.65,-234.44 400.17,-235.66 392.71,-228.15 389.65,-234.44"/>
</g>
<!-- Node9&#45;&gt;Node8 -->
<g id="edge18" class="edge">
<title>Node9&#45;&gt;Node8</title>
<path fill="none" stroke="#63b8ff" d="M293.52,-148.31C315.84,-136.57 346.67,-120.5 374,-106.81 379.55,-104.02 385.41,-101.14 391.21,-98.3"/>
<polygon fill="#63b8ff" stroke="#63b8ff" points="392.71,-101.47 400.17,-93.95 389.65,-95.17 392.71,-101.47"/>
</g>
<!-- Node10 -->
<g id="node10" class="node">
<title>Node10</title>
<g id="a_node10"><a xlink:href="a01995.html#ac356c6364fe0273d3303fb7a447f4ef6" target="_top" xlink:title=" ">
<polygon fill="white" stroke="#666666" points="496.88,-180.81 377.38,-180.81 377.38,-148.81 496.88,-148.81 496.88,-180.81"/>
<text xml:space="preserve" text-anchor="start" x="385.38" y="-167.31" font-family="Helvetica,sans-Serif" font-size="10.00">nlohmann::detail::binary</text>
<text xml:space="preserve" text-anchor="middle" x="437.12" y="-155.31" font-family="Helvetica,sans-Serif" font-size="10.00">_reader::get_number</text>
</a>
</g>
</g>
<!-- Node9&#45;&gt;Node10 -->
<g id="edge13" class="edge">
<title>Node9&#45;&gt;Node10</title>
<path fill="none" stroke="#63b8ff" d="M338.33,-164.81C347.45,-164.81 356.73,-164.81 365.76,-164.81"/>
<polygon fill="#63b8ff" stroke="#63b8ff" points="365.53,-168.31 375.53,-164.81 365.53,-161.31 365.53,-168.31"/>
</g>
<!-- Node10&#45;&gt;Node6 -->
<g id="edge14" class="edge">
<title>Node10&#45;&gt;Node6</title>
<path fill="none" stroke="#63b8ff" d="M467.26,-181.15C492.28,-195.19 528.55,-215.53 556.05,-230.96"/>
<polygon fill="#63b8ff" stroke="#63b8ff" points="554,-233.82 564.43,-235.66 557.42,-227.71 554,-233.82"/>
</g>
<!-- Node10&#45;&gt;Node11 -->
<g id="edge15" class="edge">
<title>Node10&#45;&gt;Node11</title>
<path fill="none" stroke="#63b8ff" d="M496.99,-164.81C505.91,-164.81 515.2,-164.81 524.34,-164.81"/>
<polygon fill="#63b8ff" stroke="#63b8ff" points="524.3,-168.31 534.3,-164.81 524.3,-161.31 524.3,-168.31"/>
</g>
<!-- Node11&#45;&gt;Node2 -->
<g id="edge16" class="edge">
<title>Node11&#45;&gt;Node2</title>
<path fill="none" stroke="#63b8ff" d="M655.88,-180.57C667.73,-183.74 680.28,-187.1 692.44,-190.35"/>
<polygon fill="#63b8ff" stroke="#63b8ff" points="691.43,-193.71 702,-192.91 693.24,-186.95 691.43,-193.71"/>
</g>
<!-- Node11&#45;&gt;Node5 -->
<g id="edge17" class="edge">
<title>Node11&#45;&gt;Node5</title>
<path fill="none" stroke="#63b8ff" d="M655.88,-149.05C666.59,-146.18 677.87,-143.16 688.92,-140.2"/>
<polygon fill="#63b8ff" stroke="#63b8ff" points="689.64,-143.63 698.39,-137.67 687.83,-136.87 689.64,-143.63"/>
</g>
</g>
</svg>
