<?xml version="1.0" encoding="UTF-8" standalone="no"?>
<!DOCTYPE svg PUBLIC "-//W3C//DTD SVG 1.1//EN"
 "http://www.w3.org/Graphics/SVG/1.1/DTD/svg11.dtd">
<!-- Generated by graphviz version 13.1.2 (20250808.2320)
 -->
<!-- Title: nlohmann::detail::binary_reader::parse_msgpack_internal Pages: 1 -->
<svg width="1158pt" height="534pt"
 viewBox="0.00 0.00 1158.00 534.00" xmlns="http://www.w3.org/2000/svg" xmlns:xlink="http://www.w3.org/1999/xlink">
<g id="graph0" class="graph" transform="scale(1 1) rotate(0) translate(4 530)">
<title>nlohmann::detail::binary_reader::parse_msgpack_internal</title>
<!-- Node1 -->
<g id="node1" class="node">
<title>Node1</title>
<g id="a_node1"><a xlink:title=" ">
<polygon fill="#999999" stroke="#666666" points="123.25,-288 0,-288 0,-244 123.25,-244 123.25,-288"/>
<text xml:space="preserve" text-anchor="start" x="8" y="-274.5" font-family="Helvetica,sans-Serif" font-size="10.00">nlohmann::detail::binary</text>
<text xml:space="preserve" text-anchor="start" x="8" y="-262.5" font-family="Helvetica,sans-Serif" font-size="10.00">_reader::parse_msgpack</text>
<text xml:space="preserve" text-anchor="middle" x="61.62" y="-250.5" font-family="Helvetica,sans-Serif" font-size="10.00">_internal</text>
</a>
</g>
</g>
<!-- Node2 -->
<g id="node2" class="node">
<title>Node2</title>
<g id="a_node2"><a xlink:href="a01563.html#a137ea4d27de45d8a844fd13451d40f3d" target="_top" xlink:title="create a parse error exception">
<polygon fill="white" stroke="#666666" points="966.75,-303 849.5,-303 849.5,-271 966.75,-271 966.75,-303"/>
<text xml:space="preserve" text-anchor="start" x="857.5" y="-289.5" font-family="Helvetica,sans-Serif" font-size="10.00">nlohmann::detail::parse</text>
<text xml:space="preserve" text-anchor="middle" x="908.12" y="-277.5" font-family="Helvetica,sans-Serif" font-size="10.00">_error::create</text>
</a>
</g>
</g>
<!-- Node1&#45;&gt;Node2 -->
<g id="edge1" class="edge">
<title>Node1&#45;&gt;Node2</title>
<path fill="none" stroke="#63b8ff" d="M68.85,-288.21C80.44,-325.55 108.83,-400.96 159.25,-443 249.61,-518.35 292.97,-526 410.62,-526 410.62,-526 410.62,-526 583.88,-526 689.41,-526 719.09,-496.93 801.5,-431 842.83,-397.94 876,-344.94 893.52,-313.29"/>
<polygon fill="#63b8ff" stroke="#63b8ff" points="896.46,-315.23 898.14,-304.77 890.3,-311.9 896.46,-315.23"/>
</g>
<!-- Node5 -->
<g id="node5" class="node">
<title>Node5</title>
<g id="a_node5"><a xlink:href="a01995.html#a9c413c9a1bade1ce345740f4d69156f0" target="_top" xlink:title=" ">
<polygon fill="white" stroke="#666666" points="978.75,-202 837.5,-202 837.5,-170 978.75,-170 978.75,-202"/>
<text xml:space="preserve" text-anchor="start" x="845.5" y="-188.5" font-family="Helvetica,sans-Serif" font-size="10.00">nlohmann::detail::binary</text>
<text xml:space="preserve" text-anchor="middle" x="908.12" y="-176.5" font-family="Helvetica,sans-Serif" font-size="10.00">_reader::exception_message</text>
</a>
</g>
</g>
<!-- Node1&#45;&gt;Node5 -->
<g id="edge4" class="edge">
<title>Node1&#45;&gt;Node5</title>
<path fill="none" stroke="#63b8ff" d="M71.57,-243.61C85.46,-211.8 115.27,-153.95 159.25,-123 253.44,-56.72 295.45,-60 410.62,-60 410.62,-60 410.62,-60 583.88,-60 696.38,-60 816.8,-127.08 873.69,-163.35"/>
<polygon fill="#63b8ff" stroke="#63b8ff" points="871.66,-166.21 881.96,-168.71 875.47,-160.33 871.66,-166.21"/>
</g>
<!-- Node6 -->
<g id="node6" class="node">
<title>Node6</title>
<g id="a_node6"><a xlink:href="a01995.html#ad222095c0b21a87824cb10629299629a" target="_top" xlink:title="get next character from the input">
<polygon fill="white" stroke="#666666" points="801.5,-422 682,-422 682,-390 801.5,-390 801.5,-422"/>
<text xml:space="preserve" text-anchor="start" x="690" y="-408.5" font-family="Helvetica,sans-Serif" font-size="10.00">nlohmann::detail::binary</text>
<text xml:space="preserve" text-anchor="middle" x="741.75" y="-396.5" font-family="Helvetica,sans-Serif" font-size="10.00">_reader::get</text>
</a>
</g>
</g>
<!-- Node1&#45;&gt;Node6 -->
<g id="edge5" class="edge">
<title>Node1&#45;&gt;Node6</title>
<path fill="none" stroke="#63b8ff" d="M73,-288.3C87.81,-317.5 117.87,-368.02 159.25,-394 343.55,-509.71 432.91,-491.13 646,-447 665.04,-443.06 684.96,-435.09 701.59,-427.22"/>
<polygon fill="#63b8ff" stroke="#63b8ff" points="702.69,-430.58 710.13,-423.04 699.61,-424.3 702.69,-430.58"/>
</g>
<!-- Node7 -->
<g id="node7" class="node">
<title>Node7</title>
<g id="a_node7"><a xlink:href="a01995.html#a0ce1d7066597952efb008aaf578b2bd6" target="_top" xlink:title=" ">
<polygon fill="white" stroke="#666666" points="301.25,-32 161.5,-32 161.5,0 301.25,0 301.25,-32"/>
<text xml:space="preserve" text-anchor="start" x="169.5" y="-18.5" font-family="Helvetica,sans-Serif" font-size="10.00">nlohmann::detail::binary</text>
<text xml:space="preserve" text-anchor="middle" x="231.38" y="-6.5" font-family="Helvetica,sans-Serif" font-size="10.00">_reader::get_msgpack_array</text>
</a>
</g>
</g>
<!-- Node1&#45;&gt;Node7 -->
<g id="edge6" class="edge">
<title>Node1&#45;&gt;Node7</title>
<path fill="none" stroke="#63b8ff" d="M65.76,-243.74C73.56,-200.28 97.32,-104.31 156.59,-40.45"/>
<polygon fill="#63b8ff" stroke="#63b8ff" points="158.87,-43.13 163.34,-33.53 153.85,-38.25 158.87,-43.13"/>
</g>
<!-- Node8 -->
<g id="node8" class="node">
<title>Node8</title>
<g id="a_node8"><a xlink:href="a01995.html#a389e550fd397a48121cb82d92bb7475a" target="_top" xlink:title="reads a MessagePack byte array">
<polygon fill="white" stroke="#666666" points="483.75,-372 339.5,-372 339.5,-340 483.75,-340 483.75,-372"/>
<text xml:space="preserve" text-anchor="start" x="347.5" y="-358.5" font-family="Helvetica,sans-Serif" font-size="10.00">nlohmann::detail::binary</text>
<text xml:space="preserve" text-anchor="middle" x="411.62" y="-346.5" font-family="Helvetica,sans-Serif" font-size="10.00">_reader::get_msgpack_binary</text>
</a>
</g>
</g>
<!-- Node1&#45;&gt;Node8 -->
<g id="edge8" class="edge">
<title>Node1&#45;&gt;Node8</title>
<path fill="none" stroke="#63b8ff" d="M120.72,-288.45C133.32,-292.92 146.65,-297.36 159.25,-301 214.79,-317.06 278.42,-330.94 327.76,-340.74"/>
<polygon fill="#63b8ff" stroke="#63b8ff" points="327.05,-344.16 337.54,-342.66 328.4,-337.29 327.05,-344.16"/>
</g>
<!-- Node10 -->
<g id="node10" class="node">
<title>Node10</title>
<g id="a_node10"><a xlink:href="a01995.html#a61a0bd8bbe7b560bd429fa990ba3ba1a" target="_top" xlink:title=" ">
<polygon fill="white" stroke="#666666" points="801.5,-303 682,-303 682,-271 801.5,-271 801.5,-303"/>
<text xml:space="preserve" text-anchor="start" x="690" y="-289.5" font-family="Helvetica,sans-Serif" font-size="10.00">nlohmann::detail::binary</text>
<text xml:space="preserve" text-anchor="middle" x="741.75" y="-277.5" font-family="Helvetica,sans-Serif" font-size="10.00">_reader::unexpect_eof</text>
</a>
</g>
</g>
<!-- Node1&#45;&gt;Node10 -->
<g id="edge32" class="edge">
<title>Node1&#45;&gt;Node10</title>
<path fill="none" stroke="#63b8ff" d="M92.42,-243.68C182.19,-179.36 455.6,-5.15 646,-117 698.65,-147.93 724.19,-219.92 734.65,-259.58"/>
<polygon fill="#63b8ff" stroke="#63b8ff" points="731.2,-260.21 737.01,-269.07 737.99,-258.52 731.2,-260.21"/>
</g>
<!-- Node11 -->
<g id="node11" class="node">
<title>Node11</title>
<g id="a_node11"><a xlink:href="a01995.html#ac356c6364fe0273d3303fb7a447f4ef6" target="_top" xlink:title=" ">
<polygon fill="white" stroke="#666666" points="642.62,-372 523.12,-372 523.12,-340 642.62,-340 642.62,-372"/>
<text xml:space="preserve" text-anchor="start" x="531.12" y="-358.5" font-family="Helvetica,sans-Serif" font-size="10.00">nlohmann::detail::binary</text>
<text xml:space="preserve" text-anchor="middle" x="582.88" y="-346.5" font-family="Helvetica,sans-Serif" font-size="10.00">_reader::get_number</text>
</a>
</g>
</g>
<!-- Node1&#45;&gt;Node11 -->
<g id="edge30" class="edge">
<title>Node1&#45;&gt;Node11</title>
<path fill="none" stroke="#63b8ff" d="M123.67,-273.32C205.93,-283.65 356.7,-304.29 483.75,-331 492.84,-332.91 502.35,-335.1 511.73,-337.36"/>
<polygon fill="#63b8ff" stroke="#63b8ff" points="510.63,-340.7 521.18,-339.69 512.31,-333.9 510.63,-340.7"/>
</g>
<!-- Node12 -->
<g id="node12" class="node">
<title>Node12</title>
<g id="a_node12"><a xlink:href="a01995.html#a8bebd21ceef09b6b2562e87861832700" target="_top" xlink:title=" ">
<polygon fill="white" stroke="#666666" points="303.5,-385 159.25,-385 159.25,-353 303.5,-353 303.5,-385"/>
<text xml:space="preserve" text-anchor="start" x="167.25" y="-371.5" font-family="Helvetica,sans-Serif" font-size="10.00">nlohmann::detail::binary</text>
<text xml:space="preserve" text-anchor="middle" x="231.38" y="-359.5" font-family="Helvetica,sans-Serif" font-size="10.00">_reader::get_msgpack_object</text>
</a>
</g>
</g>
<!-- Node1&#45;&gt;Node12 -->
<g id="edge17" class="edge">
<title>Node1&#45;&gt;Node12</title>
<path fill="none" stroke="#63b8ff" d="M98.3,-288.18C115.93,-301.41 137.94,-317.71 159.25,-330 170.63,-336.56 183.72,-342.49 195.54,-347.83"/>
<polygon fill="#63b8ff" stroke="#63b8ff" points="194.03,-350.98 204.58,-351.93 196.92,-344.61 194.03,-350.98"/>
</g>
<!-- Node13 -->
<g id="node13" class="node">
<title>Node13</title>
<g id="a_node13"><a xlink:href="a01995.html#ad8cba5585327caa550dd5b6dd25a64f8" target="_top" xlink:title="reads a MessagePack string">
<polygon fill="white" stroke="#666666" points="482.62,-259 340.62,-259 340.62,-227 482.62,-227 482.62,-259"/>
<text xml:space="preserve" text-anchor="start" x="348.62" y="-245.5" font-family="Helvetica,sans-Serif" font-size="10.00">nlohmann::detail::binary</text>
<text xml:space="preserve" text-anchor="middle" x="411.62" y="-233.5" font-family="Helvetica,sans-Serif" font-size="10.00">_reader::get_msgpack_string</text>
</a>
</g>
</g>
<!-- Node1&#45;&gt;Node13 -->
<g id="edge29" class="edge">
<title>Node1&#45;&gt;Node13</title>
<path fill="none" stroke="#63b8ff" d="M123.64,-261.97C180.62,-258.2 266.08,-252.55 328.93,-248.4"/>
<polygon fill="#63b8ff" stroke="#63b8ff" points="329.13,-251.89 338.88,-247.74 328.67,-244.91 329.13,-251.89"/>
</g>
<!-- Node15 -->
<g id="node15" class="node">
<title>Node15</title>
<g id="a_node15"><a xlink:href="a01995.html#a7d323283c60a0b89ee5eeadf5cb9a5ad" target="_top" xlink:title=" ">
<polygon fill="white" stroke="#666666" points="646,-158 519.75,-158 519.75,-126 646,-126 646,-158"/>
<text xml:space="preserve" text-anchor="start" x="527.75" y="-144.5" font-family="Helvetica,sans-Serif" font-size="10.00">nlohmann::detail::binary</text>
<text xml:space="preserve" text-anchor="middle" x="582.88" y="-132.5" font-family="Helvetica,sans-Serif" font-size="10.00">_reader::get_token_string</text>
</a>
</g>
</g>
<!-- Node1&#45;&gt;Node15 -->
<g id="edge31" class="edge">
<title>Node1&#45;&gt;Node15</title>
<path fill="none" stroke="#63b8ff" d="M123.72,-251.41C219.68,-228.49 405.4,-184.14 508.47,-159.53"/>
<polygon fill="#63b8ff" stroke="#63b8ff" points="509.02,-163 517.93,-157.27 507.39,-156.19 509.02,-163"/>
</g>
<!-- Node3 -->
<g id="node3" class="node">
<title>Node3</title>
<g id="a_node3"><a xlink:href="a01559.html#abf41a7e9178356314082284e6cfea278" target="_top" xlink:title=" ">
<polygon fill="white" stroke="#666666" points="1150,-328 1014.75,-328 1014.75,-296 1150,-296 1150,-328"/>
<text xml:space="preserve" text-anchor="start" x="1022.75" y="-314.5" font-family="Helvetica,sans-Serif" font-size="10.00">nlohmann::detail::exception</text>
<text xml:space="preserve" text-anchor="middle" x="1082.38" y="-302.5" font-family="Helvetica,sans-Serif" font-size="10.00">::name</text>
</a>
</g>
</g>
<!-- Node2&#45;&gt;Node3 -->
<g id="edge2" class="edge">
<title>Node2&#45;&gt;Node3</title>
<path fill="none" stroke="#63b8ff" d="M966.96,-295.39C978.63,-297.09 991.09,-298.9 1003.32,-300.67"/>
<polygon fill="#63b8ff" stroke="#63b8ff" points="1002.57,-304.1 1012.97,-302.07 1003.58,-297.17 1002.57,-304.1"/>
</g>
<!-- Node4 -->
<g id="node4" class="node">
<title>Node4</title>
<g id="a_node4"><a xlink:href="a01563.html#aefe74adeaa48781464ba2fd2ec63d221" target="_top" xlink:title=" ">
<polygon fill="white" stroke="#666666" points="1141,-278 1023.75,-278 1023.75,-246 1141,-246 1141,-278"/>
<text xml:space="preserve" text-anchor="start" x="1031.75" y="-264.5" font-family="Helvetica,sans-Serif" font-size="10.00">nlohmann::detail::parse</text>
<text xml:space="preserve" text-anchor="middle" x="1082.38" y="-252.5" font-family="Helvetica,sans-Serif" font-size="10.00">_error::position_string</text>
</a>
</g>
</g>
<!-- Node2&#45;&gt;Node4 -->
<g id="edge3" class="edge">
<title>Node2&#45;&gt;Node4</title>
<path fill="none" stroke="#63b8ff" d="M966.96,-278.61C981.45,-276.5 997.13,-274.23 1012.11,-272.05"/>
<polygon fill="#63b8ff" stroke="#63b8ff" points="1012.51,-275.53 1021.9,-270.63 1011.5,-268.6 1012.51,-275.53"/>
</g>
<!-- Node7&#45;&gt;Node1 -->
<g id="edge7" class="edge">
<title>Node7&#45;&gt;Node1</title>
<path fill="none" stroke="#63b8ff" d="M197.24,-32.48C184.09,-37.79 169.65,-44.75 159.25,-55 108.27,-105.23 82.22,-186.95 70.59,-232.68"/>
<polygon fill="#63b8ff" stroke="#63b8ff" points="67.21,-231.74 68.23,-242.28 74.01,-233.41 67.21,-231.74"/>
</g>
<!-- Node9 -->
<g id="node9" class="node">
<title>Node9</title>
<g id="a_node9"><a xlink:href="a01995.html#a55e13d567a53234573ab3833c0ca32e9" target="_top" xlink:title="create a byte array by reading bytes from the input">
<polygon fill="white" stroke="#666666" points="642.62,-422 523.12,-422 523.12,-390 642.62,-390 642.62,-422"/>
<text xml:space="preserve" text-anchor="start" x="531.12" y="-408.5" font-family="Helvetica,sans-Serif" font-size="10.00">nlohmann::detail::binary</text>
<text xml:space="preserve" text-anchor="middle" x="582.88" y="-396.5" font-family="Helvetica,sans-Serif" font-size="10.00">_reader::get_binary</text>
</a>
</g>
</g>
<!-- Node8&#45;&gt;Node9 -->
<g id="edge9" class="edge">
<title>Node8&#45;&gt;Node9</title>
<path fill="none" stroke="#63b8ff" d="M468.04,-372.37C483.16,-376.84 499.7,-381.72 515.36,-386.35"/>
<polygon fill="#63b8ff" stroke="#63b8ff" points="514.01,-389.6 524.59,-389.08 515.99,-382.89 514.01,-389.6"/>
</g>
<!-- Node8&#45;&gt;Node11 -->
<g id="edge14" class="edge">
<title>Node8&#45;&gt;Node11</title>
<path fill="none" stroke="#63b8ff" d="M483.91,-356C493,-356 502.29,-356 511.36,-356"/>
<polygon fill="#63b8ff" stroke="#63b8ff" points="511.19,-359.5 521.19,-356 511.19,-352.5 511.19,-359.5"/>
</g>
<!-- Node9&#45;&gt;Node6 -->
<g id="edge10" class="edge">
<title>Node9&#45;&gt;Node6</title>
<path fill="none" stroke="#63b8ff" d="M642.74,-406C651.66,-406 660.95,-406 670.09,-406"/>
<polygon fill="#63b8ff" stroke="#63b8ff" points="670.05,-409.5 680.05,-406 670.05,-402.5 670.05,-409.5"/>
</g>
<!-- Node9&#45;&gt;Node10 -->
<g id="edge11" class="edge">
<title>Node9&#45;&gt;Node10</title>
<path fill="none" stroke="#63b8ff" d="M630.71,-389.54C636.03,-386.98 641.24,-384.13 646,-381 675.17,-361.8 702.83,-332.64 720.65,-311.89"/>
<polygon fill="#63b8ff" stroke="#63b8ff" points="723.15,-314.35 726.91,-304.44 717.8,-309.84 723.15,-314.35"/>
</g>
<!-- Node10&#45;&gt;Node2 -->
<g id="edge12" class="edge">
<title>Node10&#45;&gt;Node2</title>
<path fill="none" stroke="#63b8ff" d="M801.63,-287C813.36,-287 825.78,-287 837.82,-287"/>
<polygon fill="#63b8ff" stroke="#63b8ff" points="837.7,-290.5 847.7,-287 837.7,-283.5 837.7,-290.5"/>
</g>
<!-- Node10&#45;&gt;Node5 -->
<g id="edge13" class="edge">
<title>Node10&#45;&gt;Node5</title>
<path fill="none" stroke="#63b8ff" d="M769.53,-270.55C797.11,-253.6 840.27,-227.08 870.9,-208.26"/>
<polygon fill="#63b8ff" stroke="#63b8ff" points="872.38,-211.45 879.07,-203.24 868.72,-205.49 872.38,-211.45"/>
</g>
<!-- Node11&#45;&gt;Node6 -->
<g id="edge15" class="edge">
<title>Node11&#45;&gt;Node6</title>
<path fill="none" stroke="#63b8ff" d="M635.24,-372.37C648.98,-376.75 663.99,-381.54 678.26,-386.08"/>
<polygon fill="#63b8ff" stroke="#63b8ff" points="676.97,-389.34 687.56,-389.05 679.09,-382.67 676.97,-389.34"/>
</g>
<!-- Node11&#45;&gt;Node10 -->
<g id="edge16" class="edge">
<title>Node11&#45;&gt;Node10</title>
<path fill="none" stroke="#63b8ff" d="M625.44,-339.62C632.33,-336.81 639.39,-333.86 646,-331 662.66,-323.79 680.77,-315.49 696.66,-308.06"/>
<polygon fill="#63b8ff" stroke="#63b8ff" points="697.81,-311.38 705.37,-303.96 694.83,-305.05 697.81,-311.38"/>
</g>
<!-- Node12&#45;&gt;Node1 -->
<g id="edge28" class="edge">
<title>Node12&#45;&gt;Node1</title>
<path fill="none" stroke="#63b8ff" d="M167.51,-352.5C164.68,-351.05 161.92,-349.54 159.25,-348 133.94,-333.4 107.63,-313.14 88.87,-296.22"/>
<polygon fill="#63b8ff" stroke="#63b8ff" points="91.36,-293.76 81.66,-289.51 86.59,-298.88 91.36,-293.76"/>
</g>
<!-- Node12&#45;&gt;Node6 -->
<g id="edge18" class="edge">
<title>Node12&#45;&gt;Node6</title>
<path fill="none" stroke="#63b8ff" d="M281.95,-385.42C359.48,-409.07 514.22,-448.09 646,-431 656.16,-429.68 666.78,-427.6 677.09,-425.19"/>
<polygon fill="#63b8ff" stroke="#63b8ff" points="677.77,-428.62 686.64,-422.82 676.09,-421.83 677.77,-428.62"/>
</g>
<!-- Node12&#45;&gt;Node13 -->
<g id="edge19" class="edge">
<title>Node12&#45;&gt;Node13</title>
<path fill="none" stroke="#63b8ff" d="M255.68,-352.53C287.04,-330.36 342.96,-290.83 378.35,-265.81"/>
<polygon fill="#63b8ff" stroke="#63b8ff" points="379.93,-268.98 386.08,-260.35 375.89,-263.26 379.93,-268.98"/>
</g>
<!-- Node13&#45;&gt;Node2 -->
<g id="edge20" class="edge">
<title>Node13&#45;&gt;Node2</title>
<path fill="none" stroke="#63b8ff" d="M482.9,-242.51C561.07,-242.88 690.92,-246.2 801.5,-262 813.43,-263.7 825.98,-266.12 838.11,-268.78"/>
<polygon fill="#63b8ff" stroke="#63b8ff" points="837.1,-272.13 847.62,-270.94 838.65,-265.31 837.1,-272.13"/>
</g>
<!-- Node13&#45;&gt;Node5 -->
<g id="edge21" class="edge">
<title>Node13&#45;&gt;Node5</title>
<path fill="none" stroke="#63b8ff" d="M482.95,-234.89C573.4,-224.47 730.18,-206.4 825.71,-195.38"/>
<polygon fill="#63b8ff" stroke="#63b8ff" points="826.01,-198.87 835.54,-194.25 825.2,-191.92 826.01,-198.87"/>
</g>
<!-- Node13&#45;&gt;Node10 -->
<g id="edge27" class="edge">
<title>Node13&#45;&gt;Node10</title>
<path fill="none" stroke="#63b8ff" d="M483.02,-252.44C538.42,-259.87 615.26,-270.17 670.6,-277.59"/>
<polygon fill="#63b8ff" stroke="#63b8ff" points="669.85,-281.02 680.22,-278.88 670.78,-274.09 669.85,-281.02"/>
</g>
<!-- Node13&#45;&gt;Node11 -->
<g id="edge22" class="edge">
<title>Node13&#45;&gt;Node11</title>
<path fill="none" stroke="#63b8ff" d="M462.74,-259.46C470.24,-263.2 477.54,-267.69 483.75,-273 506.81,-292.71 496.52,-311.48 519.75,-331 520.71,-331.8 521.69,-332.58 522.7,-333.34"/>
<polygon fill="#63b8ff" stroke="#63b8ff" points="520.79,-336.27 531.09,-338.74 524.58,-330.39 520.79,-336.27"/>
</g>
<!-- Node14 -->
<g id="node14" class="node">
<title>Node14</title>
<g id="a_node14"><a xlink:href="a01995.html#a540919db22df36512f05a88945c13263" target="_top" xlink:title="create a string by reading characters from the input">
<polygon fill="white" stroke="#666666" points="642.62,-322 523.12,-322 523.12,-290 642.62,-290 642.62,-322"/>
<text xml:space="preserve" text-anchor="start" x="531.12" y="-308.5" font-family="Helvetica,sans-Serif" font-size="10.00">nlohmann::detail::binary</text>
<text xml:space="preserve" text-anchor="middle" x="582.88" y="-296.5" font-family="Helvetica,sans-Serif" font-size="10.00">_reader::get_string</text>
</a>
</g>
</g>
<!-- Node13&#45;&gt;Node14 -->
<g id="edge23" class="edge">
<title>Node13&#45;&gt;Node14</title>
<path fill="none" stroke="#63b8ff" d="M456.65,-259.39C478.21,-267.41 504.38,-277.15 527.21,-285.65"/>
<polygon fill="#63b8ff" stroke="#63b8ff" points="525.76,-288.85 536.36,-289.06 528.21,-282.29 525.76,-288.85"/>
</g>
<!-- Node13&#45;&gt;Node15 -->
<g id="edge26" class="edge">
<title>Node13&#45;&gt;Node15</title>
<path fill="none" stroke="#63b8ff" d="M436.59,-226.56C462.91,-208.62 503.56,-181.22 519.75,-172 524.76,-169.15 530.08,-166.31 535.42,-163.57"/>
<polygon fill="#63b8ff" stroke="#63b8ff" points="536.9,-166.75 544.29,-159.15 533.77,-160.49 536.9,-166.75"/>
</g>
<!-- Node14&#45;&gt;Node6 -->
<g id="edge24" class="edge">
<title>Node14&#45;&gt;Node6</title>
<path fill="none" stroke="#63b8ff" d="M629.06,-322.39C634.89,-325.02 640.67,-327.91 646,-331 670.99,-345.51 696.51,-366.12 714.77,-382.06"/>
<polygon fill="#63b8ff" stroke="#63b8ff" points="712.42,-384.66 722.23,-388.68 717.07,-379.43 712.42,-384.66"/>
</g>
<!-- Node14&#45;&gt;Node10 -->
<g id="edge25" class="edge">
<title>Node14&#45;&gt;Node10</title>
<path fill="none" stroke="#63b8ff" d="M642.74,-298.87C651.76,-297.78 661.15,-296.64 670.4,-295.52"/>
<polygon fill="#63b8ff" stroke="#63b8ff" points="670.55,-299.03 680.06,-294.35 669.71,-292.08 670.55,-299.03"/>
</g>
</g>
</svg>
