<?xml version="1.0" encoding="UTF-8" standalone="no"?>
<!DOCTYPE svg PUBLIC "-//W3C//DTD SVG 1.1//EN"
 "http://www.w3.org/Graphics/SVG/1.1/DTD/svg11.dtd">
<!-- Generated by graphviz version 13.1.2 (20250808.2320)
 -->
<!-- Title: nlohmann::detail::lexer::scan_number Pages: 1 -->
<svg width="294pt" height="216pt"
 viewBox="0.00 0.00 294.00 216.00" xmlns="http://www.w3.org/2000/svg" xmlns:xlink="http://www.w3.org/1999/xlink">
<g id="graph0" class="graph" transform="scale(1 1) rotate(0) translate(4 212)">
<title>nlohmann::detail::lexer::scan_number</title>
<!-- Node1 -->
<g id="node1" class="node">
<title>Node1</title>
<g id="a_node1"><a xlink:title="scan a number literal">
<polygon fill="#999999" stroke="#666666" points="114.25,-132 0,-132 0,-100 114.25,-100 114.25,-132"/>
<text xml:space="preserve" text-anchor="start" x="8" y="-118.5" font-family="Helvetica,sans-Serif" font-size="10.00">nlohmann::detail::lexer</text>
<text xml:space="preserve" text-anchor="middle" x="57.12" y="-106.5" font-family="Helvetica,sans-Serif" font-size="10.00">::scan_number</text>
</a>
</g>
</g>
<!-- Node2 -->
<g id="node2" class="node">
<title>Node2</title>
<g id="a_node2"><a xlink:href="a01983.html#a36ffc3c33c3aea18291ead7a30fa7cc6" target="_top" xlink:title="add a character to token_buffer">
<polygon fill="white" stroke="#666666" points="286.25,-208 150.25,-208 150.25,-188 286.25,-188 286.25,-208"/>
<text xml:space="preserve" text-anchor="middle" x="218.25" y="-194.5" font-family="Helvetica,sans-Serif" font-size="10.00">nlohmann::detail::lexer::add</text>
</a>
</g>
</g>
<!-- Node1&#45;&gt;Node2 -->
<g id="edge1" class="edge">
<title>Node1&#45;&gt;Node2</title>
<path fill="none" stroke="#63b8ff" d="M77.83,-132.28C95.74,-146.38 123.4,-166.42 150.25,-179 153.97,-180.74 157.89,-182.36 161.88,-183.85"/>
<polygon fill="#63b8ff" stroke="#63b8ff" points="160.52,-187.08 171.11,-187.02 162.79,-180.46 160.52,-187.08"/>
</g>
<!-- Node3 -->
<g id="node3" class="node">
<title>Node3</title>
<g id="a_node3"><a xlink:href="a01983.html#a9cd3e4cf04d19be521beb8868c1a2fc9" target="_top" xlink:title=" ">
<polygon fill="white" stroke="#666666" points="285.12,-170 151.38,-170 151.38,-150 285.12,-150 285.12,-170"/>
<text xml:space="preserve" text-anchor="middle" x="218.25" y="-156.5" font-family="Helvetica,sans-Serif" font-size="10.00">nlohmann::detail::lexer::get</text>
</a>
</g>
</g>
<!-- Node1&#45;&gt;Node3 -->
<g id="edge2" class="edge">
<title>Node1&#45;&gt;Node3</title>
<path fill="none" stroke="#63b8ff" d="M114.67,-131.64C132.26,-136.5 151.49,-141.82 168.5,-146.52"/>
<polygon fill="#63b8ff" stroke="#63b8ff" points="167.28,-149.81 177.85,-149.11 169.15,-143.07 167.28,-149.81"/>
</g>
<!-- Node4 -->
<g id="node4" class="node">
<title>Node4</title>
<g id="a_node4"><a xlink:href="a01983.html#a3bda093837339813916d11fb6e396606" target="_top" xlink:title="reset token_buffer; current character is beginning of token">
<polygon fill="white" stroke="#666666" points="275.38,-132 161.12,-132 161.12,-100 275.38,-100 275.38,-132"/>
<text xml:space="preserve" text-anchor="start" x="169.12" y="-118.5" font-family="Helvetica,sans-Serif" font-size="10.00">nlohmann::detail::lexer</text>
<text xml:space="preserve" text-anchor="middle" x="218.25" y="-106.5" font-family="Helvetica,sans-Serif" font-size="10.00">::reset</text>
</a>
</g>
</g>
<!-- Node1&#45;&gt;Node4 -->
<g id="edge3" class="edge">
<title>Node1&#45;&gt;Node4</title>
<path fill="none" stroke="#63b8ff" d="M114.67,-116C125.93,-116 137.86,-116 149.45,-116"/>
<polygon fill="#63b8ff" stroke="#63b8ff" points="149.37,-119.5 159.37,-116 149.37,-112.5 149.37,-119.5"/>
</g>
<!-- Node5 -->
<g id="node5" class="node">
<title>Node5</title>
<g id="a_node5"><a xlink:href="a01983.html#a6d3dffb7bb247a7fd7276d49d3a00dc8" target="_top" xlink:title=" ">
<polygon fill="white" stroke="#666666" points="275.38,-82 161.12,-82 161.12,-50 275.38,-50 275.38,-82"/>
<text xml:space="preserve" text-anchor="start" x="169.12" y="-68.5" font-family="Helvetica,sans-Serif" font-size="10.00">nlohmann::detail::lexer</text>
<text xml:space="preserve" text-anchor="middle" x="218.25" y="-56.5" font-family="Helvetica,sans-Serif" font-size="10.00">::strtof</text>
</a>
</g>
</g>
<!-- Node1&#45;&gt;Node5 -->
<g id="edge4" class="edge">
<title>Node1&#45;&gt;Node5</title>
<path fill="none" stroke="#63b8ff" d="M110.23,-99.63C124.17,-95.25 139.39,-90.46 153.87,-85.92"/>
<polygon fill="#63b8ff" stroke="#63b8ff" points="154.82,-89.28 163.31,-82.95 152.72,-82.61 154.82,-89.28"/>
</g>
<!-- Node6 -->
<g id="node6" class="node">
<title>Node6</title>
<g id="a_node6"><a xlink:href="a01983.html#ab5811afe1c3efb0b769f7733b8373c6f" target="_top" xlink:title="unget current character (read it again on next get)">
<polygon fill="white" stroke="#666666" points="275.38,-32 161.12,-32 161.12,0 275.38,0 275.38,-32"/>
<text xml:space="preserve" text-anchor="start" x="169.12" y="-18.5" font-family="Helvetica,sans-Serif" font-size="10.00">nlohmann::detail::lexer</text>
<text xml:space="preserve" text-anchor="middle" x="218.25" y="-6.5" font-family="Helvetica,sans-Serif" font-size="10.00">::unget</text>
</a>
</g>
</g>
<!-- Node1&#45;&gt;Node6 -->
<g id="edge5" class="edge">
<title>Node1&#45;&gt;Node6</title>
<path fill="none" stroke="#63b8ff" d="M74.54,-99.81C92.07,-83.23 121.26,-57.61 150.25,-41 152.57,-39.67 154.97,-38.39 157.42,-37.16"/>
<polygon fill="#63b8ff" stroke="#63b8ff" points="158.77,-40.39 166.36,-33 155.82,-34.04 158.77,-40.39"/>
</g>
</g>
</svg>
