<?xml version="1.0" encoding="UTF-8" standalone="no"?>
<!DOCTYPE svg PUBLIC "-//W3C//DTD SVG 1.1//EN"
 "http://www.w3.org/Graphics/SVG/1.1/DTD/svg11.dtd">
<!-- Generated by graphviz version 13.1.2 (20250808.2320)
 -->
<!-- Title: nlohmann::detail::binary_reader::parse_bson_internal Pages: 1 -->
<svg width="695pt" height="328pt"
 viewBox="0.00 0.00 695.00 328.00" xmlns="http://www.w3.org/2000/svg" xmlns:xlink="http://www.w3.org/1999/xlink">
<g id="graph0" class="graph" transform="scale(1 1) rotate(0) translate(4 324)">
<title>nlohmann::detail::binary_reader::parse_bson_internal</title>
<!-- Node1 -->
<g id="node1" class="node">
<title>Node1</title>
<g id="a_node1"><a xlink:title="Reads in a BSON&#45;object and passes it to the SAX&#45;parser.">
<polygon fill="#999999" stroke="#666666" points="687.25,-273 546,-273 546,-241 687.25,-241 687.25,-273"/>
<text xml:space="preserve" text-anchor="start" x="554" y="-259.5" font-family="Helvetica,sans-Serif" font-size="10.00">nlohmann::detail::binary</text>
<text xml:space="preserve" text-anchor="middle" x="616.62" y="-247.5" font-family="Helvetica,sans-Serif" font-size="10.00">_reader::parse_bson_internal</text>
</a>
</g>
</g>
<!-- Node2 -->
<g id="node2" class="node">
<title>Node2</title>
<g id="a_node2"><a xlink:href="a01995.html#a23bde2450d7a5772bf5051e36ff560a4" target="_top" xlink:title="Read a BSON document element of the given element_type.">
<polygon fill="white" stroke="#666666" points="510,-279 365.75,-279 365.75,-235 510,-235 510,-279"/>
<text xml:space="preserve" text-anchor="start" x="373.75" y="-265.5" font-family="Helvetica,sans-Serif" font-size="10.00">nlohmann::detail::binary</text>
<text xml:space="preserve" text-anchor="start" x="373.75" y="-253.5" font-family="Helvetica,sans-Serif" font-size="10.00">_reader::parse_bson_element</text>
<text xml:space="preserve" text-anchor="middle" x="437.88" y="-241.5" font-family="Helvetica,sans-Serif" font-size="10.00">_internal</text>
</a>
</g>
</g>
<!-- Node1&#45;&gt;Node2 -->
<g id="edge1" class="edge">
<title>Node1&#45;&gt;Node2</title>
<path fill="none" stroke="#63b8ff" d="M534.02,-257C526.12,-257 518.14,-257 510.35,-257"/>
<polygon fill="#63b8ff" stroke="#63b8ff" points="534,-260.5 544,-257 534,-253.5 534,-260.5"/>
</g>
<!-- Node5 -->
<g id="node5" class="node">
<title>Node5</title>
<g id="a_node5"><a xlink:href="a01995.html#ab4afd9ee276bbb15a0f898061aad94dd" target="_top" xlink:title=" ">
<polygon fill="white" stroke="#666666" points="497.62,-157 378.12,-157 378.12,-125 497.62,-125 497.62,-157"/>
<text xml:space="preserve" text-anchor="start" x="386.12" y="-143.5" font-family="Helvetica,sans-Serif" font-size="10.00">nlohmann::detail::binary</text>
<text xml:space="preserve" text-anchor="middle" x="437.88" y="-131.5" font-family="Helvetica,sans-Serif" font-size="10.00">_reader::sax_parse</text>
</a>
</g>
</g>
<!-- Node1&#45;&gt;Node5 -->
<g id="edge6" class="edge">
<title>Node1&#45;&gt;Node5</title>
<path fill="none" stroke="#63b8ff" d="M581.48,-234.59C547.06,-212 494.76,-177.68 463.98,-157.48"/>
<polygon fill="#63b8ff" stroke="#63b8ff" points="579.13,-237.23 589.41,-239.8 582.97,-231.38 579.13,-237.23"/>
</g>
<!-- Node3 -->
<g id="node3" class="node">
<title>Node3</title>
<g id="a_node3"><a xlink:href="a01995.html#a4e07b75ccb2579d0e738b894f0fd8cf8" target="_top" xlink:title="Read a BSON element list (as specified in the BSON&#45;spec)">
<polygon fill="white" stroke="#666666" points="329.75,-320 167.5,-320 167.5,-288 329.75,-288 329.75,-320"/>
<text xml:space="preserve" text-anchor="start" x="175.5" y="-306.5" font-family="Helvetica,sans-Serif" font-size="10.00">nlohmann::detail::binary</text>
<text xml:space="preserve" text-anchor="middle" x="248.62" y="-294.5" font-family="Helvetica,sans-Serif" font-size="10.00">_reader::parse_bson_element_list</text>
</a>
</g>
</g>
<!-- Node2&#45;&gt;Node3 -->
<g id="edge2" class="edge">
<title>Node2&#45;&gt;Node3</title>
<path fill="none" stroke="#63b8ff" d="M354.39,-277.7C341.32,-280.98 327.96,-284.34 315.34,-287.51"/>
<polygon fill="#63b8ff" stroke="#63b8ff" points="354.97,-281.17 363.81,-275.34 353.26,-274.38 354.97,-281.17"/>
</g>
<!-- Node3&#45;&gt;Node1 -->
<g id="edge5" class="edge">
<title>Node3&#45;&gt;Node1</title>
<path fill="none" stroke="#63b8ff" d="M341.69,-303.36C391.78,-301.75 454.65,-297.7 510,-288 529.3,-284.62 550.07,-278.98 568.05,-273.42"/>
<polygon fill="#63b8ff" stroke="#63b8ff" points="341.63,-299.86 331.74,-303.65 341.84,-306.85 341.63,-299.86"/>
</g>
<!-- Node4 -->
<g id="node4" class="node">
<title>Node4</title>
<g id="a_node4"><a xlink:href="a01995.html#a23eb89a222e22533e9fd43e76722f44f" target="_top" xlink:title="Reads an array from the BSON input and passes it to the SAX&#45;parser.">
<polygon fill="white" stroke="#666666" points="131.5,-301 0,-301 0,-269 131.5,-269 131.5,-301"/>
<text xml:space="preserve" text-anchor="start" x="8" y="-287.5" font-family="Helvetica,sans-Serif" font-size="10.00">nlohmann::detail::binary</text>
<text xml:space="preserve" text-anchor="middle" x="65.75" y="-275.5" font-family="Helvetica,sans-Serif" font-size="10.00">_reader::parse_bson_array</text>
</a>
</g>
</g>
<!-- Node3&#45;&gt;Node4 -->
<g id="edge3" class="edge">
<title>Node3&#45;&gt;Node4</title>
<path fill="none" stroke="#63b8ff" d="M155.86,-294.36C147.8,-293.51 139.75,-292.67 131.98,-291.85"/>
<polygon fill="#63b8ff" stroke="#63b8ff" points="155.42,-297.83 165.73,-295.4 156.15,-290.87 155.42,-297.83"/>
</g>
<!-- Node4&#45;&gt;Node2 -->
<g id="edge4" class="edge">
<title>Node4&#45;&gt;Node2</title>
<path fill="none" stroke="#63b8ff" d="M143.14,-279.22C208.45,-274.28 301.7,-267.23 365.51,-262.4"/>
<polygon fill="#63b8ff" stroke="#63b8ff" points="142.91,-275.73 133.21,-279.97 143.44,-282.71 142.91,-275.73"/>
</g>
<!-- Node6 -->
<g id="node6" class="node">
<title>Node6</title>
<g id="a_node6"><a xlink:href="a01659.html#a4e02793f2691aa29ab7cb69fddafbf5c" target="_top" xlink:title="Create a JSON value from an input in BSON format.">
<polygon fill="white" stroke="#666666" points="303.88,-232 193.38,-232 193.38,-200 303.88,-200 303.88,-232"/>
<text xml:space="preserve" text-anchor="start" x="201.38" y="-218.5" font-family="Helvetica,sans-Serif" font-size="10.00">nlohmann::basic_json</text>
<text xml:space="preserve" text-anchor="middle" x="248.62" y="-206.5" font-family="Helvetica,sans-Serif" font-size="10.00">::from_bson</text>
</a>
</g>
</g>
<!-- Node5&#45;&gt;Node6 -->
<g id="edge7" class="edge">
<title>Node5&#45;&gt;Node6</title>
<path fill="none" stroke="#63b8ff" d="M394.22,-162.52C374.81,-171.89 351.39,-182.62 329.75,-191 321.6,-194.16 312.86,-197.21 304.27,-200.03"/>
<polygon fill="#63b8ff" stroke="#63b8ff" points="395.74,-165.67 403.19,-158.14 392.67,-159.38 395.74,-165.67"/>
</g>
<!-- Node8 -->
<g id="node8" class="node">
<title>Node8</title>
<g id="a_node8"><a xlink:href="a01659.html#a44dd5635fb2da4710f6cd6e42b72773f" target="_top" xlink:title="create a JSON value from an input in CBOR format">
<polygon fill="white" stroke="#666666" points="303.88,-182 193.38,-182 193.38,-150 303.88,-150 303.88,-182"/>
<text xml:space="preserve" text-anchor="start" x="201.38" y="-168.5" font-family="Helvetica,sans-Serif" font-size="10.00">nlohmann::basic_json</text>
<text xml:space="preserve" text-anchor="middle" x="248.62" y="-156.5" font-family="Helvetica,sans-Serif" font-size="10.00">::from_cbor</text>
</a>
</g>
</g>
<!-- Node5&#45;&gt;Node8 -->
<g id="edge9" class="edge">
<title>Node5&#45;&gt;Node8</title>
<path fill="none" stroke="#63b8ff" d="M366.41,-150.41C345.88,-153.15 323.76,-156.1 304.35,-158.69"/>
<polygon fill="#63b8ff" stroke="#63b8ff" points="366.68,-153.9 376.13,-149.11 365.75,-146.96 366.68,-153.9"/>
</g>
<!-- Node10 -->
<g id="node10" class="node">
<title>Node10</title>
<g id="a_node10"><a xlink:href="a01659.html#adbcab52fca1e25b3311ef14e71a57590" target="_top" xlink:title="create a JSON value from an input in MessagePack format">
<polygon fill="white" stroke="#666666" points="303.88,-132 193.38,-132 193.38,-100 303.88,-100 303.88,-132"/>
<text xml:space="preserve" text-anchor="start" x="201.38" y="-118.5" font-family="Helvetica,sans-Serif" font-size="10.00">nlohmann::basic_json</text>
<text xml:space="preserve" text-anchor="middle" x="248.62" y="-106.5" font-family="Helvetica,sans-Serif" font-size="10.00">::from_msgpack</text>
</a>
</g>
</g>
<!-- Node5&#45;&gt;Node10 -->
<g id="edge11" class="edge">
<title>Node5&#45;&gt;Node10</title>
<path fill="none" stroke="#63b8ff" d="M366.41,-131.59C345.88,-128.85 323.76,-125.9 304.35,-123.31"/>
<polygon fill="#63b8ff" stroke="#63b8ff" points="365.75,-135.04 376.13,-132.89 366.68,-128.1 365.75,-135.04"/>
</g>
<!-- Node12 -->
<g id="node12" class="node">
<title>Node12</title>
<g id="a_node12"><a xlink:href="a01659.html#aa81f62db69978b90ff701f05c72e03a7" target="_top" xlink:title="create a JSON value from an input in UBJSON format">
<polygon fill="white" stroke="#666666" points="303.88,-82 193.38,-82 193.38,-50 303.88,-50 303.88,-82"/>
<text xml:space="preserve" text-anchor="start" x="201.38" y="-68.5" font-family="Helvetica,sans-Serif" font-size="10.00">nlohmann::basic_json</text>
<text xml:space="preserve" text-anchor="middle" x="248.62" y="-56.5" font-family="Helvetica,sans-Serif" font-size="10.00">::from_ubjson</text>
</a>
</g>
</g>
<!-- Node5&#45;&gt;Node12 -->
<g id="edge13" class="edge">
<title>Node5&#45;&gt;Node12</title>
<path fill="none" stroke="#63b8ff" d="M394.22,-119.48C374.81,-110.11 351.39,-99.38 329.75,-91 321.6,-87.84 312.86,-84.79 304.27,-81.97"/>
<polygon fill="#63b8ff" stroke="#63b8ff" points="392.67,-122.62 403.19,-123.86 395.74,-116.33 392.67,-122.62"/>
</g>
<!-- Node14 -->
<g id="node14" class="node">
<title>Node14</title>
<g id="a_node14"><a xlink:href="a01659.html#a12b382c6407da5543827ce4b24bb5008" target="_top" xlink:title="generate SAX events">
<polygon fill="white" stroke="#666666" points="303.88,-32 193.38,-32 193.38,0 303.88,0 303.88,-32"/>
<text xml:space="preserve" text-anchor="start" x="201.38" y="-18.5" font-family="Helvetica,sans-Serif" font-size="10.00">nlohmann::basic_json</text>
<text xml:space="preserve" text-anchor="middle" x="248.62" y="-6.5" font-family="Helvetica,sans-Serif" font-size="10.00">::sax_parse</text>
</a>
</g>
</g>
<!-- Node5&#45;&gt;Node14 -->
<g id="edge15" class="edge">
<title>Node5&#45;&gt;Node14</title>
<path fill="none" stroke="#63b8ff" d="M416.15,-116.09C396.15,-93.54 363.96,-60.9 329.75,-41 321.81,-36.38 312.93,-32.53 304.05,-29.33"/>
<polygon fill="#63b8ff" stroke="#63b8ff" points="413.5,-118.38 422.7,-123.63 418.78,-113.79 413.5,-118.38"/>
</g>
<!-- Node7 -->
<g id="node7" class="node">
<title>Node7</title>
<g id="a_node7"><a xlink:href="a01659.html#ae2612581e4788ddffc2f45d5e4cc04fc" target="_top" xlink:title=" ">
<polygon fill="white" stroke="#666666" points="121,-232 10.5,-232 10.5,-200 121,-200 121,-232"/>
<text xml:space="preserve" text-anchor="start" x="18.5" y="-218.5" font-family="Helvetica,sans-Serif" font-size="10.00">nlohmann::basic_json</text>
<text xml:space="preserve" text-anchor="middle" x="65.75" y="-206.5" font-family="Helvetica,sans-Serif" font-size="10.00">::from_bson</text>
</a>
</g>
</g>
<!-- Node6&#45;&gt;Node7 -->
<g id="edge8" class="edge">
<title>Node6&#45;&gt;Node7</title>
<path fill="none" stroke="#63b8ff" d="M181.88,-216C161.98,-216 140.37,-216 121.29,-216"/>
<polygon fill="#63b8ff" stroke="#63b8ff" points="181.84,-219.5 191.84,-216 181.84,-212.5 181.84,-219.5"/>
</g>
<!-- Node9 -->
<g id="node9" class="node">
<title>Node9</title>
<g id="a_node9"><a xlink:href="a01659.html#a188755c8cda27e2afb03c016c14125d8" target="_top" xlink:title=" ">
<polygon fill="white" stroke="#666666" points="121,-182 10.5,-182 10.5,-150 121,-150 121,-182"/>
<text xml:space="preserve" text-anchor="start" x="18.5" y="-168.5" font-family="Helvetica,sans-Serif" font-size="10.00">nlohmann::basic_json</text>
<text xml:space="preserve" text-anchor="middle" x="65.75" y="-156.5" font-family="Helvetica,sans-Serif" font-size="10.00">::from_cbor</text>
</a>
</g>
</g>
<!-- Node8&#45;&gt;Node9 -->
<g id="edge10" class="edge">
<title>Node8&#45;&gt;Node9</title>
<path fill="none" stroke="#63b8ff" d="M181.88,-166C161.98,-166 140.37,-166 121.29,-166"/>
<polygon fill="#63b8ff" stroke="#63b8ff" points="181.84,-169.5 191.84,-166 181.84,-162.5 181.84,-169.5"/>
</g>
<!-- Node11 -->
<g id="node11" class="node">
<title>Node11</title>
<g id="a_node11"><a xlink:href="a01659.html#a0d69d3102639759d5202a6f764760d23" target="_top" xlink:title=" ">
<polygon fill="white" stroke="#666666" points="121,-132 10.5,-132 10.5,-100 121,-100 121,-132"/>
<text xml:space="preserve" text-anchor="start" x="18.5" y="-118.5" font-family="Helvetica,sans-Serif" font-size="10.00">nlohmann::basic_json</text>
<text xml:space="preserve" text-anchor="middle" x="65.75" y="-106.5" font-family="Helvetica,sans-Serif" font-size="10.00">::from_msgpack</text>
</a>
</g>
</g>
<!-- Node10&#45;&gt;Node11 -->
<g id="edge12" class="edge">
<title>Node10&#45;&gt;Node11</title>
<path fill="none" stroke="#63b8ff" d="M181.88,-116C161.98,-116 140.37,-116 121.29,-116"/>
<polygon fill="#63b8ff" stroke="#63b8ff" points="181.84,-119.5 191.84,-116 181.84,-112.5 181.84,-119.5"/>
</g>
<!-- Node13 -->
<g id="node13" class="node">
<title>Node13</title>
<g id="a_node13"><a xlink:href="a01659.html#ab6eeda23c34cee79d8d72f1a8691a8de" target="_top" xlink:title=" ">
<polygon fill="white" stroke="#666666" points="121,-82 10.5,-82 10.5,-50 121,-50 121,-82"/>
<text xml:space="preserve" text-anchor="start" x="18.5" y="-68.5" font-family="Helvetica,sans-Serif" font-size="10.00">nlohmann::basic_json</text>
<text xml:space="preserve" text-anchor="middle" x="65.75" y="-56.5" font-family="Helvetica,sans-Serif" font-size="10.00">::from_ubjson</text>
</a>
</g>
</g>
<!-- Node12&#45;&gt;Node13 -->
<g id="edge14" class="edge">
<title>Node12&#45;&gt;Node13</title>
<path fill="none" stroke="#63b8ff" d="M181.88,-66C161.98,-66 140.37,-66 121.29,-66"/>
<polygon fill="#63b8ff" stroke="#63b8ff" points="181.84,-69.5 191.84,-66 181.84,-62.5 181.84,-69.5"/>
</g>
</g>
</svg>
