<?xml version="1.0" encoding="UTF-8" standalone="no"?>
<!DOCTYPE svg PUBLIC "-//W3C//DTD SVG 1.1//EN"
 "http://www.w3.org/Graphics/SVG/1.1/DTD/svg11.dtd">
<!-- Generated by graphviz version 13.1.2 (20250808.2320)
 -->
<!-- Title: nlohmann::detail::binary_reader::unexpect_eof Pages: 1 -->
<svg width="476pt" height="115pt"
 viewBox="0.00 0.00 476.00 115.00" xmlns="http://www.w3.org/2000/svg" xmlns:xlink="http://www.w3.org/1999/xlink">
<g id="graph0" class="graph" transform="scale(1 1) rotate(0) translate(4 111)">
<title>nlohmann::detail::binary_reader::unexpect_eof</title>
<!-- Node1 -->
<g id="node1" class="node">
<title>Node1</title>
<g id="a_node1"><a xlink:title=" ">
<polygon fill="#999999" stroke="#666666" points="119.5,-57 0,-57 0,-25 119.5,-25 119.5,-57"/>
<text xml:space="preserve" text-anchor="start" x="8" y="-43.5" font-family="Helvetica,sans-Serif" font-size="10.00">nlohmann::detail::binary</text>
<text xml:space="preserve" text-anchor="middle" x="59.75" y="-31.5" font-family="Helvetica,sans-Serif" font-size="10.00">_reader::unexpect_eof</text>
</a>
</g>
</g>
<!-- Node2 -->
<g id="node2" class="node">
<title>Node2</title>
<g id="a_node2"><a xlink:href="a01563.html#a137ea4d27de45d8a844fd13451d40f3d" target="_top" xlink:title="create a parse error exception">
<polygon fill="white" stroke="#666666" points="284.75,-82 167.5,-82 167.5,-50 284.75,-50 284.75,-82"/>
<text xml:space="preserve" text-anchor="start" x="175.5" y="-68.5" font-family="Helvetica,sans-Serif" font-size="10.00">nlohmann::detail::parse</text>
<text xml:space="preserve" text-anchor="middle" x="226.12" y="-56.5" font-family="Helvetica,sans-Serif" font-size="10.00">_error::create</text>
</a>
</g>
</g>
<!-- Node1&#45;&gt;Node2 -->
<g id="edge1" class="edge">
<title>Node1&#45;&gt;Node2</title>
<path fill="none" stroke="#63b8ff" d="M119.63,-49.95C131.48,-51.76 144.03,-53.67 156.19,-55.52"/>
<polygon fill="#63b8ff" stroke="#63b8ff" points="155.3,-58.92 165.71,-56.96 156.35,-52 155.3,-58.92"/>
</g>
<!-- Node5 -->
<g id="node5" class="node">
<title>Node5</title>
<g id="a_node5"><a xlink:href="a01995.html#a9c413c9a1bade1ce345740f4d69156f0" target="_top" xlink:title=" ">
<polygon fill="white" stroke="#666666" points="296.75,-32 155.5,-32 155.5,0 296.75,0 296.75,-32"/>
<text xml:space="preserve" text-anchor="start" x="163.5" y="-18.5" font-family="Helvetica,sans-Serif" font-size="10.00">nlohmann::detail::binary</text>
<text xml:space="preserve" text-anchor="middle" x="226.12" y="-6.5" font-family="Helvetica,sans-Serif" font-size="10.00">_reader::exception_message</text>
</a>
</g>
</g>
<!-- Node1&#45;&gt;Node5 -->
<g id="edge4" class="edge">
<title>Node1&#45;&gt;Node5</title>
<path fill="none" stroke="#63b8ff" d="M119.63,-32.05C127.55,-30.84 135.78,-29.59 143.99,-28.34"/>
<polygon fill="#63b8ff" stroke="#63b8ff" points="144.3,-31.83 153.66,-26.87 143.25,-24.91 144.3,-31.83"/>
</g>
<!-- Node3 -->
<g id="node3" class="node">
<title>Node3</title>
<g id="a_node3"><a xlink:href="a01559.html#abf41a7e9178356314082284e6cfea278" target="_top" xlink:title=" ">
<polygon fill="white" stroke="#666666" points="468,-107 332.75,-107 332.75,-75 468,-75 468,-107"/>
<text xml:space="preserve" text-anchor="start" x="340.75" y="-93.5" font-family="Helvetica,sans-Serif" font-size="10.00">nlohmann::detail::exception</text>
<text xml:space="preserve" text-anchor="middle" x="400.38" y="-81.5" font-family="Helvetica,sans-Serif" font-size="10.00">::name</text>
</a>
</g>
</g>
<!-- Node2&#45;&gt;Node3 -->
<g id="edge2" class="edge">
<title>Node2&#45;&gt;Node3</title>
<path fill="none" stroke="#63b8ff" d="M284.96,-74.39C296.63,-76.09 309.09,-77.9 321.32,-79.67"/>
<polygon fill="#63b8ff" stroke="#63b8ff" points="320.57,-83.1 330.97,-81.07 321.58,-76.17 320.57,-83.1"/>
</g>
<!-- Node4 -->
<g id="node4" class="node">
<title>Node4</title>
<g id="a_node4"><a xlink:href="a01563.html#aefe74adeaa48781464ba2fd2ec63d221" target="_top" xlink:title=" ">
<polygon fill="white" stroke="#666666" points="459,-57 341.75,-57 341.75,-25 459,-25 459,-57"/>
<text xml:space="preserve" text-anchor="start" x="349.75" y="-43.5" font-family="Helvetica,sans-Serif" font-size="10.00">nlohmann::detail::parse</text>
<text xml:space="preserve" text-anchor="middle" x="400.38" y="-31.5" font-family="Helvetica,sans-Serif" font-size="10.00">_error::position_string</text>
</a>
</g>
</g>
<!-- Node2&#45;&gt;Node4 -->
<g id="edge3" class="edge">
<title>Node2&#45;&gt;Node4</title>
<path fill="none" stroke="#63b8ff" d="M284.96,-57.61C299.45,-55.5 315.13,-53.23 330.11,-51.05"/>
<polygon fill="#63b8ff" stroke="#63b8ff" points="330.51,-54.53 339.9,-49.63 329.5,-47.6 330.51,-54.53"/>
</g>
</g>
</svg>
