<?xml version="1.0" encoding="UTF-8" standalone="no"?>
<!DOCTYPE svg PUBLIC "-//W3C//DTD SVG 1.1//EN"
 "http://www.w3.org/Graphics/SVG/1.1/DTD/svg11.dtd">
<!-- Generated by graphviz version 13.1.2 (20250808.2320)
 -->
<!-- Title: nlohmann::detail::binary_reader::get_string Pages: 1 -->
<svg width="1326pt" height="369pt"
 viewBox="0.00 0.00 1326.00 369.00" xmlns="http://www.w3.org/2000/svg" xmlns:xlink="http://www.w3.org/1999/xlink">
<g id="graph0" class="graph" transform="scale(1 1) rotate(0) translate(4 365)">
<title>nlohmann::detail::binary_reader::get_string</title>
<!-- Node1 -->
<g id="node1" class="node">
<title>Node1</title>
<g id="a_node1"><a xlink:title="create a string by reading characters from the input">
<polygon fill="#999999" stroke="#666666" points="1318.25,-201 1198.75,-201 1198.75,-169 1318.25,-169 1318.25,-201"/>
<text xml:space="preserve" text-anchor="start" x="1206.75" y="-187.5" font-family="Helvetica,sans-Serif" font-size="10.00">nlohmann::detail::binary</text>
<text xml:space="preserve" text-anchor="middle" x="1258.5" y="-175.5" font-family="Helvetica,sans-Serif" font-size="10.00">_reader::get_string</text>
</a>
</g>
</g>
<!-- Node2 -->
<g id="node2" class="node">
<title>Node2</title>
<g id="a_node2"><a xlink:href="a01995.html#a23921422802aa472360dd05023e20565" target="_top" xlink:title="Parses a zero&#45;terminated string of length len from the BSON input.">
<polygon fill="white" stroke="#666666" points="1153.38,-311 1030.12,-311 1030.12,-279 1153.38,-279 1153.38,-311"/>
<text xml:space="preserve" text-anchor="start" x="1038.12" y="-297.5" font-family="Helvetica,sans-Serif" font-size="10.00">nlohmann::detail::binary</text>
<text xml:space="preserve" text-anchor="middle" x="1091.75" y="-285.5" font-family="Helvetica,sans-Serif" font-size="10.00">_reader::get_bson_string</text>
</a>
</g>
</g>
<!-- Node1&#45;&gt;Node2 -->
<g id="edge1" class="edge">
<title>Node1&#45;&gt;Node2</title>
<path fill="none" stroke="#63b8ff" d="M1226.62,-208.14C1208.31,-221.61 1184.51,-238.7 1162.75,-253 1149.37,-261.8 1134.16,-271.01 1121.35,-278.56"/>
<polygon fill="#63b8ff" stroke="#63b8ff" points="1228.48,-211.12 1234.43,-202.36 1224.31,-205.49 1228.48,-211.12"/>
</g>
<!-- Node17 -->
<g id="node17" class="node">
<title>Node17</title>
<g id="a_node17"><a xlink:href="a01995.html#a545a44ae4b3fa2b7a61d9e8517fb7154" target="_top" xlink:title="reads a CBOR string">
<polygon fill="white" stroke="#666666" points="1152.25,-226 1031.25,-226 1031.25,-194 1152.25,-194 1152.25,-226"/>
<text xml:space="preserve" text-anchor="start" x="1039.25" y="-212.5" font-family="Helvetica,sans-Serif" font-size="10.00">nlohmann::detail::binary</text>
<text xml:space="preserve" text-anchor="middle" x="1091.75" y="-200.5" font-family="Helvetica,sans-Serif" font-size="10.00">_reader::get_cbor_string</text>
</a>
</g>
</g>
<!-- Node1&#45;&gt;Node17 -->
<g id="edge18" class="edge">
<title>Node1&#45;&gt;Node17</title>
<path fill="none" stroke="#63b8ff" d="M1187.16,-195.67C1175.7,-197.41 1163.92,-199.2 1152.74,-200.9"/>
<polygon fill="#63b8ff" stroke="#63b8ff" points="1187.63,-199.14 1196.99,-194.18 1186.58,-192.22 1187.63,-199.14"/>
</g>
<!-- Node21 -->
<g id="node21" class="node">
<title>Node21</title>
<g id="a_node21"><a xlink:href="a01995.html#ad8cba5585327caa550dd5b6dd25a64f8" target="_top" xlink:title="reads a MessagePack string">
<polygon fill="white" stroke="#666666" points="1162.75,-176 1020.75,-176 1020.75,-144 1162.75,-144 1162.75,-176"/>
<text xml:space="preserve" text-anchor="start" x="1028.75" y="-162.5" font-family="Helvetica,sans-Serif" font-size="10.00">nlohmann::detail::binary</text>
<text xml:space="preserve" text-anchor="middle" x="1091.75" y="-150.5" font-family="Helvetica,sans-Serif" font-size="10.00">_reader::get_msgpack_string</text>
</a>
</g>
</g>
<!-- Node1&#45;&gt;Node21 -->
<g id="edge28" class="edge">
<title>Node1&#45;&gt;Node21</title>
<path fill="none" stroke="#63b8ff" d="M1187.32,-174.35C1179.32,-173.14 1171.16,-171.9 1163.16,-170.68"/>
<polygon fill="#63b8ff" stroke="#63b8ff" points="1186.58,-177.78 1196.99,-175.82 1187.63,-170.86 1186.58,-177.78"/>
</g>
<!-- Node25 -->
<g id="node25" class="node">
<title>Node25</title>
<g id="a_node25"><a xlink:href="a01995.html#a4ae90db51c102e912b7eac83c78733a6" target="_top" xlink:title="reads a UBJSON string">
<polygon fill="white" stroke="#666666" points="1157.12,-85 1026.38,-85 1026.38,-53 1157.12,-53 1157.12,-85"/>
<text xml:space="preserve" text-anchor="start" x="1034.38" y="-71.5" font-family="Helvetica,sans-Serif" font-size="10.00">nlohmann::detail::binary</text>
<text xml:space="preserve" text-anchor="middle" x="1091.75" y="-59.5" font-family="Helvetica,sans-Serif" font-size="10.00">_reader::get_ubjson_string</text>
</a>
</g>
</g>
<!-- Node1&#45;&gt;Node25 -->
<g id="edge36" class="edge">
<title>Node1&#45;&gt;Node25</title>
<path fill="none" stroke="#63b8ff" d="M1224.84,-162.01C1192.76,-139.42 1144.6,-105.51 1116.15,-85.48"/>
<polygon fill="#63b8ff" stroke="#63b8ff" points="1222.82,-164.86 1233.01,-167.75 1226.85,-159.14 1222.82,-164.86"/>
</g>
<!-- Node3 -->
<g id="node3" class="node">
<title>Node3</title>
<g id="a_node3"><a xlink:href="a01995.html#a23bde2450d7a5772bf5051e36ff560a4" target="_top" xlink:title="Read a BSON document element of the given element_type.">
<polygon fill="white" stroke="#666666" points="984.75,-329 840.5,-329 840.5,-285 984.75,-285 984.75,-329"/>
<text xml:space="preserve" text-anchor="start" x="848.5" y="-315.5" font-family="Helvetica,sans-Serif" font-size="10.00">nlohmann::detail::binary</text>
<text xml:space="preserve" text-anchor="start" x="848.5" y="-303.5" font-family="Helvetica,sans-Serif" font-size="10.00">_reader::parse_bson_element</text>
<text xml:space="preserve" text-anchor="middle" x="912.62" y="-291.5" font-family="Helvetica,sans-Serif" font-size="10.00">_internal</text>
</a>
</g>
</g>
<!-- Node2&#45;&gt;Node3 -->
<g id="edge2" class="edge">
<title>Node2&#45;&gt;Node3</title>
<path fill="none" stroke="#63b8ff" d="M1018.46,-299.9C1007.44,-300.64 996.07,-301.41 985.06,-302.16"/>
<polygon fill="#63b8ff" stroke="#63b8ff" points="1018.54,-303.4 1028.28,-299.23 1018.07,-296.42 1018.54,-303.4"/>
</g>
<!-- Node4 -->
<g id="node4" class="node">
<title>Node4</title>
<g id="a_node4"><a xlink:href="a01995.html#a4e07b75ccb2579d0e738b894f0fd8cf8" target="_top" xlink:title="Read a BSON element list (as specified in the BSON&#45;spec)">
<polygon fill="white" stroke="#666666" points="804.5,-329 642.25,-329 642.25,-297 804.5,-297 804.5,-329"/>
<text xml:space="preserve" text-anchor="start" x="650.25" y="-315.5" font-family="Helvetica,sans-Serif" font-size="10.00">nlohmann::detail::binary</text>
<text xml:space="preserve" text-anchor="middle" x="723.38" y="-303.5" font-family="Helvetica,sans-Serif" font-size="10.00">_reader::parse_bson_element_list</text>
</a>
</g>
</g>
<!-- Node3&#45;&gt;Node4 -->
<g id="edge3" class="edge">
<title>Node3&#45;&gt;Node4</title>
<path fill="none" stroke="#63b8ff" d="M828.63,-309.66C820.77,-309.91 812.82,-310.17 804.99,-310.42"/>
<polygon fill="#63b8ff" stroke="#63b8ff" points="828.64,-313.16 838.52,-309.34 828.41,-306.16 828.64,-313.16"/>
</g>
<!-- Node5 -->
<g id="node5" class="node">
<title>Node5</title>
<g id="a_node5"><a xlink:href="a01995.html#a23eb89a222e22533e9fd43e76722f44f" target="_top" xlink:title="Reads an array from the BSON input and passes it to the SAX&#45;parser.">
<polygon fill="white" stroke="#666666" points="597.62,-311 466.12,-311 466.12,-279 597.62,-279 597.62,-311"/>
<text xml:space="preserve" text-anchor="start" x="474.12" y="-297.5" font-family="Helvetica,sans-Serif" font-size="10.00">nlohmann::detail::binary</text>
<text xml:space="preserve" text-anchor="middle" x="531.88" y="-285.5" font-family="Helvetica,sans-Serif" font-size="10.00">_reader::parse_bson_array</text>
</a>
</g>
</g>
<!-- Node4&#45;&gt;Node5 -->
<g id="edge4" class="edge">
<title>Node4&#45;&gt;Node5</title>
<path fill="none" stroke="#63b8ff" d="M630.55,-304.28C619.51,-303.23 608.42,-302.18 597.87,-301.17"/>
<polygon fill="#63b8ff" stroke="#63b8ff" points="630.22,-307.76 640.5,-305.22 630.88,-300.79 630.22,-307.76"/>
</g>
<!-- Node6 -->
<g id="node6" class="node">
<title>Node6</title>
<g id="a_node6"><a xlink:href="a01995.html#abf2051ba57d9ea9b378a2e7c14e22b34" target="_top" xlink:title="Reads in a BSON&#45;object and passes it to the SAX&#45;parser.">
<polygon fill="white" stroke="#666666" points="602.5,-361 461.25,-361 461.25,-329 602.5,-329 602.5,-361"/>
<text xml:space="preserve" text-anchor="start" x="469.25" y="-347.5" font-family="Helvetica,sans-Serif" font-size="10.00">nlohmann::detail::binary</text>
<text xml:space="preserve" text-anchor="middle" x="531.88" y="-335.5" font-family="Helvetica,sans-Serif" font-size="10.00">_reader::parse_bson_internal</text>
</a>
</g>
</g>
<!-- Node4&#45;&gt;Node6 -->
<g id="edge6" class="edge">
<title>Node4&#45;&gt;Node6</title>
<path fill="none" stroke="#63b8ff" d="M630.96,-328.44C621.52,-330.03 612.03,-331.63 602.87,-333.18"/>
<polygon fill="#63b8ff" stroke="#63b8ff" points="631.24,-331.94 640.52,-326.82 630.07,-325.04 631.24,-331.94"/>
</g>
<!-- Node5&#45;&gt;Node3 -->
<g id="edge5" class="edge">
<title>Node5&#45;&gt;Node3</title>
<path fill="none" stroke="#63b8ff" d="M609.35,-288.41C663.85,-284.84 738.8,-282.22 804.5,-288 816.07,-289.02 828.27,-290.64 840.12,-292.53"/>
<polygon fill="#63b8ff" stroke="#63b8ff" points="609.29,-284.91 599.55,-289.08 609.77,-291.89 609.29,-284.91"/>
</g>
<!-- Node6&#45;&gt;Node3 -->
<g id="edge7" class="edge">
<title>Node6&#45;&gt;Node3</title>
<path fill="none" stroke="#63b8ff" d="M614.1,-348.3C668.33,-349.19 741.07,-347.83 804.5,-338 817.32,-336.01 830.77,-332.94 843.63,-329.49"/>
<polygon fill="#63b8ff" stroke="#63b8ff" points="614.39,-344.81 604.33,-348.11 614.26,-351.81 614.39,-344.81"/>
</g>
<!-- Node7 -->
<g id="node7" class="node">
<title>Node7</title>
<g id="a_node7"><a xlink:href="a01995.html#ab4afd9ee276bbb15a0f898061aad94dd" target="_top" xlink:title=" ">
<polygon fill="white" stroke="#666666" points="417,-223 297.5,-223 297.5,-191 417,-191 417,-223"/>
<text xml:space="preserve" text-anchor="start" x="305.5" y="-209.5" font-family="Helvetica,sans-Serif" font-size="10.00">nlohmann::detail::binary</text>
<text xml:space="preserve" text-anchor="middle" x="357.25" y="-197.5" font-family="Helvetica,sans-Serif" font-size="10.00">_reader::sax_parse</text>
</a>
</g>
</g>
<!-- Node6&#45;&gt;Node7 -->
<g id="edge8" class="edge">
<title>Node6&#45;&gt;Node7</title>
<path fill="none" stroke="#63b8ff" d="M463.09,-323.46C461.17,-322.36 459.3,-321.21 457.5,-320 417.99,-293.59 384.5,-247.62 368.43,-223.25"/>
<polygon fill="#63b8ff" stroke="#63b8ff" points="461.17,-326.41 471.66,-327.87 464.37,-320.18 461.17,-326.41"/>
</g>
<!-- Node8 -->
<g id="node8" class="node">
<title>Node8</title>
<g id="a_node8"><a xlink:href="a01659.html#a4e02793f2691aa29ab7cb69fddafbf5c" target="_top" xlink:title="Create a JSON value from an input in BSON format.">
<polygon fill="white" stroke="#666666" points="257,-323 146.5,-323 146.5,-291 257,-291 257,-323"/>
<text xml:space="preserve" text-anchor="start" x="154.5" y="-309.5" font-family="Helvetica,sans-Serif" font-size="10.00">nlohmann::basic_json</text>
<text xml:space="preserve" text-anchor="middle" x="201.75" y="-297.5" font-family="Helvetica,sans-Serif" font-size="10.00">::from_bson</text>
</a>
</g>
</g>
<!-- Node7&#45;&gt;Node8 -->
<g id="edge9" class="edge">
<title>Node7&#45;&gt;Node8</title>
<path fill="none" stroke="#63b8ff" d="M328.52,-230.53C309.22,-246.24 282.48,-266.75 257,-282 252.02,-284.98 246.62,-287.86 241.22,-290.53"/>
<polygon fill="#63b8ff" stroke="#63b8ff" points="330.7,-233.27 336.19,-224.2 326.24,-227.87 330.7,-233.27"/>
</g>
<!-- Node10 -->
<g id="node10" class="node">
<title>Node10</title>
<g id="a_node10"><a xlink:href="a01659.html#a44dd5635fb2da4710f6cd6e42b72773f" target="_top" xlink:title="create a JSON value from an input in CBOR format">
<polygon fill="white" stroke="#666666" points="257,-273 146.5,-273 146.5,-241 257,-241 257,-273"/>
<text xml:space="preserve" text-anchor="start" x="154.5" y="-259.5" font-family="Helvetica,sans-Serif" font-size="10.00">nlohmann::basic_json</text>
<text xml:space="preserve" text-anchor="middle" x="201.75" y="-247.5" font-family="Helvetica,sans-Serif" font-size="10.00">::from_cbor</text>
</a>
</g>
</g>
<!-- Node7&#45;&gt;Node10 -->
<g id="edge11" class="edge">
<title>Node7&#45;&gt;Node10</title>
<path fill="none" stroke="#63b8ff" d="M295.09,-226.92C281.26,-231.43 266.73,-236.16 253.39,-240.51"/>
<polygon fill="#63b8ff" stroke="#63b8ff" points="296.12,-230.27 304.55,-223.84 293.96,-223.61 296.12,-230.27"/>
</g>
<!-- Node12 -->
<g id="node12" class="node">
<title>Node12</title>
<g id="a_node12"><a xlink:href="a01659.html#adbcab52fca1e25b3311ef14e71a57590" target="_top" xlink:title="create a JSON value from an input in MessagePack format">
<polygon fill="white" stroke="#666666" points="257,-223 146.5,-223 146.5,-191 257,-191 257,-223"/>
<text xml:space="preserve" text-anchor="start" x="154.5" y="-209.5" font-family="Helvetica,sans-Serif" font-size="10.00">nlohmann::basic_json</text>
<text xml:space="preserve" text-anchor="middle" x="201.75" y="-197.5" font-family="Helvetica,sans-Serif" font-size="10.00">::from_msgpack</text>
</a>
</g>
</g>
<!-- Node7&#45;&gt;Node12 -->
<g id="edge13" class="edge">
<title>Node7&#45;&gt;Node12</title>
<path fill="none" stroke="#63b8ff" d="M285.83,-207C276.31,-207 266.66,-207 257.47,-207"/>
<polygon fill="#63b8ff" stroke="#63b8ff" points="285.83,-210.5 295.83,-207 285.83,-203.5 285.83,-210.5"/>
</g>
<!-- Node14 -->
<g id="node14" class="node">
<title>Node14</title>
<g id="a_node14"><a xlink:href="a01659.html#aa81f62db69978b90ff701f05c72e03a7" target="_top" xlink:title="create a JSON value from an input in UBJSON format">
<polygon fill="white" stroke="#666666" points="257,-173 146.5,-173 146.5,-141 257,-141 257,-173"/>
<text xml:space="preserve" text-anchor="start" x="154.5" y="-159.5" font-family="Helvetica,sans-Serif" font-size="10.00">nlohmann::basic_json</text>
<text xml:space="preserve" text-anchor="middle" x="201.75" y="-147.5" font-family="Helvetica,sans-Serif" font-size="10.00">::from_ubjson</text>
</a>
</g>
</g>
<!-- Node7&#45;&gt;Node14 -->
<g id="edge15" class="edge">
<title>Node7&#45;&gt;Node14</title>
<path fill="none" stroke="#63b8ff" d="M295.09,-187.08C281.26,-182.57 266.73,-177.84 253.39,-173.49"/>
<polygon fill="#63b8ff" stroke="#63b8ff" points="293.96,-190.39 304.55,-190.16 296.12,-183.73 293.96,-190.39"/>
</g>
<!-- Node16 -->
<g id="node16" class="node">
<title>Node16</title>
<g id="a_node16"><a xlink:href="a01659.html#a12b382c6407da5543827ce4b24bb5008" target="_top" xlink:title="generate SAX events">
<polygon fill="white" stroke="#666666" points="257,-123 146.5,-123 146.5,-91 257,-91 257,-123"/>
<text xml:space="preserve" text-anchor="start" x="154.5" y="-109.5" font-family="Helvetica,sans-Serif" font-size="10.00">nlohmann::basic_json</text>
<text xml:space="preserve" text-anchor="middle" x="201.75" y="-97.5" font-family="Helvetica,sans-Serif" font-size="10.00">::sax_parse</text>
</a>
</g>
</g>
<!-- Node7&#45;&gt;Node16 -->
<g id="edge17" class="edge">
<title>Node7&#45;&gt;Node16</title>
<path fill="none" stroke="#63b8ff" d="M328.52,-183.47C309.22,-167.76 282.48,-147.25 257,-132 252.02,-129.02 246.62,-126.14 241.22,-123.47"/>
<polygon fill="#63b8ff" stroke="#63b8ff" points="326.24,-186.13 336.19,-189.8 330.7,-180.73 326.24,-186.13"/>
</g>
<!-- Node9 -->
<g id="node9" class="node">
<title>Node9</title>
<g id="a_node9"><a xlink:href="a01659.html#ae2612581e4788ddffc2f45d5e4cc04fc" target="_top" xlink:title=" ">
<polygon fill="white" stroke="#666666" points="110.5,-323 0,-323 0,-291 110.5,-291 110.5,-323"/>
<text xml:space="preserve" text-anchor="start" x="8" y="-309.5" font-family="Helvetica,sans-Serif" font-size="10.00">nlohmann::basic_json</text>
<text xml:space="preserve" text-anchor="middle" x="55.25" y="-297.5" font-family="Helvetica,sans-Serif" font-size="10.00">::from_bson</text>
</a>
</g>
</g>
<!-- Node8&#45;&gt;Node9 -->
<g id="edge10" class="edge">
<title>Node8&#45;&gt;Node9</title>
<path fill="none" stroke="#63b8ff" d="M134.63,-307C126.71,-307 118.69,-307 110.96,-307"/>
<polygon fill="#63b8ff" stroke="#63b8ff" points="134.61,-310.5 144.61,-307 134.61,-303.5 134.61,-310.5"/>
</g>
<!-- Node11 -->
<g id="node11" class="node">
<title>Node11</title>
<g id="a_node11"><a xlink:href="a01659.html#a188755c8cda27e2afb03c016c14125d8" target="_top" xlink:title=" ">
<polygon fill="white" stroke="#666666" points="110.5,-273 0,-273 0,-241 110.5,-241 110.5,-273"/>
<text xml:space="preserve" text-anchor="start" x="8" y="-259.5" font-family="Helvetica,sans-Serif" font-size="10.00">nlohmann::basic_json</text>
<text xml:space="preserve" text-anchor="middle" x="55.25" y="-247.5" font-family="Helvetica,sans-Serif" font-size="10.00">::from_cbor</text>
</a>
</g>
</g>
<!-- Node10&#45;&gt;Node11 -->
<g id="edge12" class="edge">
<title>Node10&#45;&gt;Node11</title>
<path fill="none" stroke="#63b8ff" d="M134.63,-257C126.71,-257 118.69,-257 110.96,-257"/>
<polygon fill="#63b8ff" stroke="#63b8ff" points="134.61,-260.5 144.61,-257 134.61,-253.5 134.61,-260.5"/>
</g>
<!-- Node13 -->
<g id="node13" class="node">
<title>Node13</title>
<g id="a_node13"><a xlink:href="a01659.html#a0d69d3102639759d5202a6f764760d23" target="_top" xlink:title=" ">
<polygon fill="white" stroke="#666666" points="110.5,-223 0,-223 0,-191 110.5,-191 110.5,-223"/>
<text xml:space="preserve" text-anchor="start" x="8" y="-209.5" font-family="Helvetica,sans-Serif" font-size="10.00">nlohmann::basic_json</text>
<text xml:space="preserve" text-anchor="middle" x="55.25" y="-197.5" font-family="Helvetica,sans-Serif" font-size="10.00">::from_msgpack</text>
</a>
</g>
</g>
<!-- Node12&#45;&gt;Node13 -->
<g id="edge14" class="edge">
<title>Node12&#45;&gt;Node13</title>
<path fill="none" stroke="#63b8ff" d="M134.63,-207C126.71,-207 118.69,-207 110.96,-207"/>
<polygon fill="#63b8ff" stroke="#63b8ff" points="134.61,-210.5 144.61,-207 134.61,-203.5 134.61,-210.5"/>
</g>
<!-- Node15 -->
<g id="node15" class="node">
<title>Node15</title>
<g id="a_node15"><a xlink:href="a01659.html#ab6eeda23c34cee79d8d72f1a8691a8de" target="_top" xlink:title=" ">
<polygon fill="white" stroke="#666666" points="110.5,-173 0,-173 0,-141 110.5,-141 110.5,-173"/>
<text xml:space="preserve" text-anchor="start" x="8" y="-159.5" font-family="Helvetica,sans-Serif" font-size="10.00">nlohmann::basic_json</text>
<text xml:space="preserve" text-anchor="middle" x="55.25" y="-147.5" font-family="Helvetica,sans-Serif" font-size="10.00">::from_ubjson</text>
</a>
</g>
</g>
<!-- Node14&#45;&gt;Node15 -->
<g id="edge16" class="edge">
<title>Node14&#45;&gt;Node15</title>
<path fill="none" stroke="#63b8ff" d="M134.63,-157C126.71,-157 118.69,-157 110.96,-157"/>
<polygon fill="#63b8ff" stroke="#63b8ff" points="134.61,-160.5 144.61,-157 134.61,-153.5 134.61,-160.5"/>
</g>
<!-- Node17&#45;&gt;Node17 -->
<g id="edge26" class="edge">
<title>Node17&#45;&gt;Node17</title>
<path fill="none" stroke="#63b8ff" d="M1119.54,-237.71C1114.91,-241.48 1105.64,-244 1091.75,-244 1066.35,-244 1056.42,-235.58 1061.98,-226.44"/>
<polygon fill="#63b8ff" stroke="#63b8ff" points="1122.97,-238.39 1121.26,-227.93 1116.08,-237.18 1122.97,-238.39"/>
</g>
<!-- Node18 -->
<g id="node18" class="node">
<title>Node18</title>
<g id="a_node18"><a xlink:href="a01995.html#a47092a2195bf9cd3cdb4dda67cc404ed" target="_top" xlink:title=" ">
<polygon fill="white" stroke="#666666" points="974.25,-223 851,-223 851,-191 974.25,-191 974.25,-223"/>
<text xml:space="preserve" text-anchor="start" x="859" y="-209.5" font-family="Helvetica,sans-Serif" font-size="10.00">nlohmann::detail::binary</text>
<text xml:space="preserve" text-anchor="middle" x="912.62" y="-197.5" font-family="Helvetica,sans-Serif" font-size="10.00">_reader::get_cbor_object</text>
</a>
</g>
</g>
<!-- Node17&#45;&gt;Node18 -->
<g id="edge19" class="edge">
<title>Node17&#45;&gt;Node18</title>
<path fill="none" stroke="#63b8ff" d="M1019.58,-208.79C1004.73,-208.54 989.19,-208.28 974.74,-208.04"/>
<polygon fill="#63b8ff" stroke="#63b8ff" points="1019.21,-212.29 1029.27,-208.96 1019.33,-205.29 1019.21,-212.29"/>
</g>
<!-- Node19 -->
<g id="node19" class="node">
<title>Node19</title>
<g id="a_node19"><a xlink:href="a01995.html#a4e4accd5a2a41bfb2f18a8a0fcc9421c" target="_top" xlink:title=" ">
<polygon fill="white" stroke="#666666" points="792.88,-223 653.88,-223 653.88,-191 792.88,-191 792.88,-223"/>
<text xml:space="preserve" text-anchor="start" x="661.88" y="-209.5" font-family="Helvetica,sans-Serif" font-size="10.00">nlohmann::detail::binary</text>
<text xml:space="preserve" text-anchor="middle" x="723.38" y="-197.5" font-family="Helvetica,sans-Serif" font-size="10.00">_reader::parse_cbor_internal</text>
</a>
</g>
</g>
<!-- Node17&#45;&gt;Node19 -->
<g id="edge27" class="edge">
<title>Node17&#45;&gt;Node19</title>
<path fill="none" stroke="#63b8ff" d="M1019.79,-226.81C1008.14,-228.97 996.16,-230.83 984.75,-232 920.97,-238.55 904.25,-238.78 840.5,-232 823.68,-230.21 805.73,-227 789.08,-223.47"/>
<polygon fill="#63b8ff" stroke="#63b8ff" points="1020.19,-230.3 1029.34,-224.95 1018.85,-223.43 1020.19,-230.3"/>
</g>
<!-- Node18&#45;&gt;Node19 -->
<g id="edge20" class="edge">
<title>Node18&#45;&gt;Node19</title>
<path fill="none" stroke="#63b8ff" d="M839.18,-200.41C824.04,-200.18 808.13,-200.2 793.13,-200.47"/>
<polygon fill="#63b8ff" stroke="#63b8ff" points="838.99,-203.9 849.06,-200.6 839.13,-196.9 838.99,-203.9"/>
</g>
<!-- Node19&#45;&gt;Node7 -->
<g id="edge25" class="edge">
<title>Node19&#45;&gt;Node7</title>
<path fill="none" stroke="#63b8ff" d="M646.58,-225.73C633.22,-228.34 619.39,-230.6 606.25,-232 540.51,-239 523.11,-240.14 457.5,-232 443.04,-230.21 427.66,-227 413.43,-223.46"/>
<polygon fill="#63b8ff" stroke="#63b8ff" points="647.08,-229.2 656.18,-223.77 645.68,-222.34 647.08,-229.2"/>
</g>
<!-- Node19&#45;&gt;Node18 -->
<g id="edge23" class="edge">
<title>Node19&#45;&gt;Node18</title>
<path fill="none" stroke="#63b8ff" d="M804.3,-213.69C819.79,-213.83 835.8,-213.73 850.57,-213.37"/>
<polygon fill="#63b8ff" stroke="#63b8ff" points="804.69,-210.19 794.64,-213.55 804.59,-217.19 804.69,-210.19"/>
</g>
<!-- Node19&#45;&gt;Node19 -->
<g id="edge24" class="edge">
<title>Node19&#45;&gt;Node19</title>
<path fill="none" stroke="#63b8ff" d="M754.91,-234.71C749.65,-238.48 739.14,-241 723.38,-241 694.54,-241 683.28,-232.58 689.59,-223.44"/>
<polygon fill="#63b8ff" stroke="#63b8ff" points="758.34,-235.42 756.87,-224.93 751.48,-234.05 758.34,-235.42"/>
</g>
<!-- Node20 -->
<g id="node20" class="node">
<title>Node20</title>
<g id="a_node20"><a xlink:href="a01995.html#a3750658328bf3ec3cf23f1626f9ec3af" target="_top" xlink:title=" ">
<polygon fill="white" stroke="#666666" points="591.62,-223 472.12,-223 472.12,-191 591.62,-191 591.62,-223"/>
<text xml:space="preserve" text-anchor="start" x="480.12" y="-209.5" font-family="Helvetica,sans-Serif" font-size="10.00">nlohmann::detail::binary</text>
<text xml:space="preserve" text-anchor="middle" x="531.88" y="-197.5" font-family="Helvetica,sans-Serif" font-size="10.00">_reader::get_cbor_array</text>
</a>
</g>
</g>
<!-- Node19&#45;&gt;Node20 -->
<g id="edge21" class="edge">
<title>Node19&#45;&gt;Node20</title>
<path fill="none" stroke="#63b8ff" d="M641.96,-200.32C625.23,-200.16 607.89,-200.28 592.08,-200.69"/>
<polygon fill="#63b8ff" stroke="#63b8ff" points="641.86,-203.82 651.91,-200.46 641.96,-196.82 641.86,-203.82"/>
</g>
<!-- Node20&#45;&gt;Node19 -->
<g id="edge22" class="edge">
<title>Node20&#45;&gt;Node19</title>
<path fill="none" stroke="#63b8ff" d="M603.24,-213.55C619.64,-213.83 637.09,-213.82 653.43,-213.52"/>
<polygon fill="#63b8ff" stroke="#63b8ff" points="603.67,-210.06 593.6,-213.34 603.52,-217.05 603.67,-210.06"/>
</g>
<!-- Node22 -->
<g id="node22" class="node">
<title>Node22</title>
<g id="a_node22"><a xlink:href="a01995.html#a8bebd21ceef09b6b2562e87861832700" target="_top" xlink:title=" ">
<polygon fill="white" stroke="#666666" points="984.75,-135 840.5,-135 840.5,-103 984.75,-103 984.75,-135"/>
<text xml:space="preserve" text-anchor="start" x="848.5" y="-121.5" font-family="Helvetica,sans-Serif" font-size="10.00">nlohmann::detail::binary</text>
<text xml:space="preserve" text-anchor="middle" x="912.62" y="-109.5" font-family="Helvetica,sans-Serif" font-size="10.00">_reader::get_msgpack_object</text>
</a>
</g>
</g>
<!-- Node21&#45;&gt;Node22 -->
<g id="edge29" class="edge">
<title>Node21&#45;&gt;Node22</title>
<path fill="none" stroke="#63b8ff" d="M1009.34,-141.16C1001.1,-139.25 992.78,-137.32 984.67,-135.44"/>
<polygon fill="#63b8ff" stroke="#63b8ff" points="1008.48,-144.55 1019.02,-143.4 1010.06,-137.73 1008.48,-144.55"/>
</g>
<!-- Node23 -->
<g id="node23" class="node">
<title>Node23</title>
<g id="a_node23"><a xlink:href="a01995.html#ae020385ce9424271d61f85d3842c02cb" target="_top" xlink:title=" ">
<polygon fill="white" stroke="#666666" points="785,-141 661.75,-141 661.75,-97 785,-97 785,-141"/>
<text xml:space="preserve" text-anchor="start" x="669.75" y="-127.5" font-family="Helvetica,sans-Serif" font-size="10.00">nlohmann::detail::binary</text>
<text xml:space="preserve" text-anchor="start" x="669.75" y="-115.5" font-family="Helvetica,sans-Serif" font-size="10.00">_reader::parse_msgpack</text>
<text xml:space="preserve" text-anchor="middle" x="723.38" y="-103.5" font-family="Helvetica,sans-Serif" font-size="10.00">_internal</text>
</a>
</g>
</g>
<!-- Node21&#45;&gt;Node23 -->
<g id="edge35" class="edge">
<title>Node21&#45;&gt;Node23</title>
<path fill="none" stroke="#63b8ff" d="M1008.85,-157.82C959.83,-155.76 896.39,-151.76 840.5,-144 822.42,-141.49 802.97,-137.73 785.24,-133.88"/>
<polygon fill="#63b8ff" stroke="#63b8ff" points="1008.71,-161.32 1018.84,-158.22 1008.99,-154.33 1008.71,-161.32"/>
</g>
<!-- Node22&#45;&gt;Node23 -->
<g id="edge30" class="edge">
<title>Node22&#45;&gt;Node23</title>
<path fill="none" stroke="#63b8ff" d="M828.9,-112.29C814.22,-112.18 799.18,-112.29 785.25,-112.63"/>
<polygon fill="#63b8ff" stroke="#63b8ff" points="828.48,-115.79 838.52,-112.4 828.56,-108.79 828.48,-115.79"/>
</g>
<!-- Node23&#45;&gt;Node7 -->
<g id="edge34" class="edge">
<title>Node23&#45;&gt;Node7</title>
<path fill="none" stroke="#63b8ff" d="M650.26,-135.88C596.96,-148.42 522.65,-166.05 457.5,-182 444.47,-185.19 430.49,-188.67 417.26,-192"/>
<polygon fill="#63b8ff" stroke="#63b8ff" points="650.89,-139.33 659.83,-133.63 649.29,-132.51 650.89,-139.33"/>
</g>
<!-- Node23&#45;&gt;Node22 -->
<g id="edge33" class="edge">
<title>Node23&#45;&gt;Node22</title>
<path fill="none" stroke="#63b8ff" d="M796.52,-125.59C810.8,-125.81 825.78,-125.8 840.03,-125.58"/>
<polygon fill="#63b8ff" stroke="#63b8ff" points="796.83,-122.1 786.76,-125.4 796.69,-129.09 796.83,-122.1"/>
</g>
<!-- Node24 -->
<g id="node24" class="node">
<title>Node24</title>
<g id="a_node24"><a xlink:href="a01995.html#a0ce1d7066597952efb008aaf578b2bd6" target="_top" xlink:title=" ">
<polygon fill="white" stroke="#666666" points="601.75,-135 462,-135 462,-103 601.75,-103 601.75,-135"/>
<text xml:space="preserve" text-anchor="start" x="470" y="-121.5" font-family="Helvetica,sans-Serif" font-size="10.00">nlohmann::detail::binary</text>
<text xml:space="preserve" text-anchor="middle" x="531.88" y="-109.5" font-family="Helvetica,sans-Serif" font-size="10.00">_reader::get_msgpack_array</text>
</a>
</g>
</g>
<!-- Node23&#45;&gt;Node24 -->
<g id="edge31" class="edge">
<title>Node23&#45;&gt;Node24</title>
<path fill="none" stroke="#63b8ff" d="M650.07,-112.42C634.29,-112.18 617.64,-112.19 601.99,-112.47"/>
<polygon fill="#63b8ff" stroke="#63b8ff" points="649.79,-115.92 659.86,-112.62 649.93,-108.92 649.79,-115.92"/>
</g>
<!-- Node24&#45;&gt;Node23 -->
<g id="edge32" class="edge">
<title>Node24&#45;&gt;Node23</title>
<path fill="none" stroke="#63b8ff" d="M613.07,-125.68C629.24,-125.84 645.99,-125.73 661.37,-125.35"/>
<polygon fill="#63b8ff" stroke="#63b8ff" points="613.55,-122.19 603.5,-125.55 613.45,-129.18 613.55,-122.19"/>
</g>
<!-- Node26 -->
<g id="node26" class="node">
<title>Node26</title>
<g id="a_node26"><a xlink:href="a01995.html#adcf64ad3207f4bf37a5a31c920a385c3" target="_top" xlink:title=" ">
<polygon fill="white" stroke="#666666" points="979.12,-85 846.12,-85 846.12,-53 979.12,-53 979.12,-85"/>
<text xml:space="preserve" text-anchor="start" x="854.12" y="-71.5" font-family="Helvetica,sans-Serif" font-size="10.00">nlohmann::detail::binary</text>
<text xml:space="preserve" text-anchor="middle" x="912.62" y="-59.5" font-family="Helvetica,sans-Serif" font-size="10.00">_reader::get_ubjson_object</text>
</a>
</g>
</g>
<!-- Node25&#45;&gt;Node26 -->
<g id="edge37" class="edge">
<title>Node25&#45;&gt;Node26</title>
<path fill="none" stroke="#63b8ff" d="M1014.84,-69C1003.03,-69 990.9,-69 979.33,-69"/>
<polygon fill="#63b8ff" stroke="#63b8ff" points="1014.54,-72.5 1024.54,-69 1014.54,-65.5 1014.54,-72.5"/>
</g>
<!-- Node27 -->
<g id="node27" class="node">
<title>Node27</title>
<g id="a_node27"><a xlink:href="a01995.html#a7e5e0b71548d0649ce4f131280d06c33" target="_top" xlink:title=" ">
<polygon fill="white" stroke="#666666" points="788.38,-41 658.38,-41 658.38,-9 788.38,-9 788.38,-41"/>
<text xml:space="preserve" text-anchor="start" x="666.38" y="-27.5" font-family="Helvetica,sans-Serif" font-size="10.00">nlohmann::detail::binary</text>
<text xml:space="preserve" text-anchor="middle" x="723.38" y="-15.5" font-family="Helvetica,sans-Serif" font-size="10.00">_reader::get_ubjson_value</text>
</a>
</g>
</g>
<!-- Node25&#45;&gt;Node27 -->
<g id="edge46" class="edge">
<title>Node25&#45;&gt;Node27</title>
<path fill="none" stroke="#63b8ff" d="M1017.14,-50.06C1006.33,-47.74 995.29,-45.62 984.75,-44 918.33,-33.81 841.52,-29.05 788.63,-26.85"/>
<polygon fill="#63b8ff" stroke="#63b8ff" points="1016.3,-53.45 1026.82,-52.21 1017.82,-46.62 1016.3,-53.45"/>
</g>
<!-- Node26&#45;&gt;Node27 -->
<g id="edge38" class="edge">
<title>Node26&#45;&gt;Node27</title>
<path fill="none" stroke="#63b8ff" d="M855.73,-49.63C834.65,-44.07 810.49,-38.32 788.69,-33.67"/>
<polygon fill="#63b8ff" stroke="#63b8ff" points="854.75,-52.99 865.31,-52.21 856.57,-46.23 854.75,-52.99"/>
</g>
<!-- Node27&#45;&gt;Node26 -->
<g id="edge41" class="edge">
<title>Node27&#45;&gt;Node26</title>
<path fill="none" stroke="#63b8ff" d="M780.5,-44.43C801.07,-49.85 824.53,-55.44 845.87,-60.03"/>
<polygon fill="#63b8ff" stroke="#63b8ff" points="781.42,-41.06 770.86,-41.84 779.61,-47.82 781.42,-41.06"/>
</g>
<!-- Node28 -->
<g id="node28" class="node">
<title>Node28</title>
<g id="a_node28"><a xlink:href="a01995.html#afb36cb588b795efa513fc95e949493b7" target="_top" xlink:title=" ">
<polygon fill="white" stroke="#666666" points="421.5,-32 293,-32 293,0 421.5,0 421.5,-32"/>
<text xml:space="preserve" text-anchor="start" x="301" y="-18.5" font-family="Helvetica,sans-Serif" font-size="10.00">nlohmann::detail::binary</text>
<text xml:space="preserve" text-anchor="middle" x="357.25" y="-6.5" font-family="Helvetica,sans-Serif" font-size="10.00">_reader::get_ubjson_array</text>
</a>
</g>
</g>
<!-- Node27&#45;&gt;Node28 -->
<g id="edge39" class="edge">
<title>Node27&#45;&gt;Node28</title>
<path fill="none" stroke="#63b8ff" d="M646.88,-17.54C580.36,-14.25 484.56,-11.99 421.87,-12.3"/>
<polygon fill="#63b8ff" stroke="#63b8ff" points="646.44,-21.02 656.6,-18.04 646.8,-14.03 646.44,-21.02"/>
</g>
<!-- Node29 -->
<g id="node29" class="node">
<title>Node29</title>
<g id="a_node29"><a xlink:href="a01995.html#a5a79480d661019b0f3fc615ae12f7de7" target="_top" xlink:title=" ">
<polygon fill="white" stroke="#666666" points="606.25,-85 457.5,-85 457.5,-53 606.25,-53 606.25,-85"/>
<text xml:space="preserve" text-anchor="start" x="465.5" y="-71.5" font-family="Helvetica,sans-Serif" font-size="10.00">nlohmann::detail::binary</text>
<text xml:space="preserve" text-anchor="middle" x="531.88" y="-59.5" font-family="Helvetica,sans-Serif" font-size="10.00">_reader::parse_ubjson_internal</text>
</a>
</g>
</g>
<!-- Node27&#45;&gt;Node29 -->
<g id="edge42" class="edge">
<title>Node27&#45;&gt;Node29</title>
<path fill="none" stroke="#63b8ff" d="M647.13,-42.47C632.78,-45.8 617.81,-49.28 603.62,-52.57"/>
<polygon fill="#63b8ff" stroke="#63b8ff" points="647.53,-45.97 656.48,-40.3 645.95,-39.15 647.53,-45.97"/>
</g>
<!-- Node28&#45;&gt;Node27 -->
<g id="edge40" class="edge">
<title>Node28&#45;&gt;Node27</title>
<path fill="none" stroke="#63b8ff" d="M433.07,-23.43C499.38,-26.72 595.2,-28.99 658.11,-28.7"/>
<polygon fill="#63b8ff" stroke="#63b8ff" points="433.55,-19.95 423.38,-22.92 433.18,-26.94 433.55,-19.95"/>
</g>
<!-- Node29&#45;&gt;Node7 -->
<g id="edge45" class="edge">
<title>Node29&#45;&gt;Node7</title>
<path fill="none" stroke="#63b8ff" d="M463.09,-90.54C461.17,-91.64 459.3,-92.79 457.5,-94 417.99,-120.41 384.5,-166.38 368.43,-190.75"/>
<polygon fill="#63b8ff" stroke="#63b8ff" points="464.37,-93.82 471.66,-86.13 461.17,-87.59 464.37,-93.82"/>
</g>
<!-- Node29&#45;&gt;Node26 -->
<g id="edge44" class="edge">
<title>Node29&#45;&gt;Node26</title>
<path fill="none" stroke="#63b8ff" d="M617.75,-69C686.65,-69 782.41,-69 845.65,-69"/>
<polygon fill="#63b8ff" stroke="#63b8ff" points="618.02,-65.5 608.02,-69 618.02,-72.5 618.02,-65.5"/>
</g>
<!-- Node29&#45;&gt;Node28 -->
<g id="edge43" class="edge">
<title>Node29&#45;&gt;Node28</title>
<path fill="none" stroke="#63b8ff" d="M466.25,-49.16C448.34,-43.66 429.1,-37.75 411.89,-32.47"/>
<polygon fill="#63b8ff" stroke="#63b8ff" points="465.17,-52.49 475.75,-52.08 467.22,-45.8 465.17,-52.49"/>
</g>
</g>
</svg>
