<?xml version="1.0" encoding="UTF-8" standalone="no"?>
<!DOCTYPE svg PUBLIC "-//W3C//DTD SVG 1.1//EN"
 "http://www.w3.org/Graphics/SVG/1.1/DTD/svg11.dtd">
<!-- Generated by graphviz version 13.1.2 (20250808.2320)
 -->
<!-- Title: nlohmann::detail::binary_reader::get_ignore_noop Pages: 1 -->
<svg width="1485pt" height="307pt"
 viewBox="0.00 0.00 1485.00 307.00" xmlns="http://www.w3.org/2000/svg" xmlns:xlink="http://www.w3.org/1999/xlink">
<g id="graph0" class="graph" transform="scale(1 1) rotate(0) translate(4 303)">
<title>nlohmann::detail::binary_reader::get_ignore_noop</title>
<!-- Node1 -->
<g id="node1" class="node">
<title>Node1</title>
<g id="a_node1"><a xlink:title=" ">
<polygon fill="#999999" stroke="#666666" points="1476.75,-138 1351.25,-138 1351.25,-106 1476.75,-106 1476.75,-138"/>
<text xml:space="preserve" text-anchor="start" x="1359.25" y="-124.5" font-family="Helvetica,sans-Serif" font-size="10.00">nlohmann::detail::binary</text>
<text xml:space="preserve" text-anchor="middle" x="1414" y="-112.5" font-family="Helvetica,sans-Serif" font-size="10.00">_reader::get_ignore_noop</text>
</a>
</g>
</g>
<!-- Node2 -->
<g id="node2" class="node">
<title>Node2</title>
<g id="a_node2"><a xlink:href="a01995.html#afb36cb588b795efa513fc95e949493b7" target="_top" xlink:title=" ">
<polygon fill="white" stroke="#666666" points="941.25,-160 812.75,-160 812.75,-128 941.25,-128 941.25,-160"/>
<text xml:space="preserve" text-anchor="start" x="820.75" y="-146.5" font-family="Helvetica,sans-Serif" font-size="10.00">nlohmann::detail::binary</text>
<text xml:space="preserve" text-anchor="middle" x="877" y="-134.5" font-family="Helvetica,sans-Serif" font-size="10.00">_reader::get_ubjson_array</text>
</a>
</g>
</g>
<!-- Node1&#45;&gt;Node2 -->
<g id="edge1" class="edge">
<title>Node1&#45;&gt;Node2</title>
<path fill="none" stroke="#63b8ff" d="M1339.66,-125.02C1234.08,-129.36 1041.04,-137.3 941.33,-141.4"/>
<polygon fill="#63b8ff" stroke="#63b8ff" points="1339.48,-128.53 1349.33,-124.62 1339.2,-121.53 1339.48,-128.53"/>
</g>
<!-- Node4 -->
<g id="node4" class="node">
<title>Node4</title>
<g id="a_node4"><a xlink:href="a01995.html#adcf64ad3207f4bf37a5a31c920a385c3" target="_top" xlink:title=" ">
<polygon fill="white" stroke="#666666" points="426,-113 293,-113 293,-81 426,-81 426,-113"/>
<text xml:space="preserve" text-anchor="start" x="301" y="-99.5" font-family="Helvetica,sans-Serif" font-size="10.00">nlohmann::detail::binary</text>
<text xml:space="preserve" text-anchor="middle" x="359.5" y="-87.5" font-family="Helvetica,sans-Serif" font-size="10.00">_reader::get_ubjson_object</text>
</a>
</g>
</g>
<!-- Node1&#45;&gt;Node4 -->
<g id="edge19" class="edge">
<title>Node1&#45;&gt;Node4</title>
<path fill="none" stroke="#63b8ff" d="M1387.25,-98.42C1368.59,-82.62 1342.03,-62.64 1315.25,-51 1206.2,-3.6 1171.53,0 1052.62,0 1052.62,0 1052.62,0 710.75,0 591.5,0 457.42,-52.87 395.41,-80.55"/>
<polygon fill="#63b8ff" stroke="#63b8ff" points="1384.76,-100.89 1394.6,-104.8 1389.34,-95.6 1384.76,-100.89"/>
</g>
<!-- Node5 -->
<g id="node5" class="node">
<title>Node5</title>
<g id="a_node5"><a xlink:href="a01995.html#a5a79480d661019b0f3fc615ae12f7de7" target="_top" xlink:title=" ">
<polygon fill="white" stroke="#666666" points="610.75,-166 462,-166 462,-134 610.75,-134 610.75,-166"/>
<text xml:space="preserve" text-anchor="start" x="470" y="-152.5" font-family="Helvetica,sans-Serif" font-size="10.00">nlohmann::detail::binary</text>
<text xml:space="preserve" text-anchor="middle" x="536.38" y="-140.5" font-family="Helvetica,sans-Serif" font-size="10.00">_reader::parse_ubjson_internal</text>
</a>
</g>
</g>
<!-- Node1&#45;&gt;Node5 -->
<g id="edge27" class="edge">
<title>Node1&#45;&gt;Node5</title>
<path fill="none" stroke="#63b8ff" d="M1347.34,-141.42C1275.61,-160.89 1156.99,-188 1052.62,-188 1052.62,-188 1052.62,-188 876,-188 784.3,-188 679.51,-174.07 611.09,-163.08"/>
<polygon fill="#63b8ff" stroke="#63b8ff" points="1347.84,-144.91 1356.55,-138.89 1345.98,-138.16 1347.84,-144.91"/>
</g>
<!-- Node6 -->
<g id="node6" class="node">
<title>Node6</title>
<g id="a_node6"><a xlink:href="a01995.html#ab4afd9ee276bbb15a0f898061aad94dd" target="_top" xlink:title=" ">
<polygon fill="white" stroke="#666666" points="419.25,-199 299.75,-199 299.75,-167 419.25,-167 419.25,-199"/>
<text xml:space="preserve" text-anchor="start" x="307.75" y="-185.5" font-family="Helvetica,sans-Serif" font-size="10.00">nlohmann::detail::binary</text>
<text xml:space="preserve" text-anchor="middle" x="359.5" y="-173.5" font-family="Helvetica,sans-Serif" font-size="10.00">_reader::sax_parse</text>
</a>
</g>
</g>
<!-- Node1&#45;&gt;Node6 -->
<g id="edge28" class="edge">
<title>Node1&#45;&gt;Node6</title>
<path fill="none" stroke="#63b8ff" d="M1381.08,-144.47C1362.64,-156.45 1338.54,-170.43 1315.25,-179 1203.96,-219.94 1171.2,-226 1052.62,-226 1052.62,-226 1052.62,-226 710.75,-226 607.83,-226 489.15,-207.48 419.72,-194.75"/>
<polygon fill="#63b8ff" stroke="#63b8ff" points="1382.79,-147.54 1389.18,-139.09 1378.92,-141.71 1382.79,-147.54"/>
</g>
<!-- Node16 -->
<g id="node16" class="node">
<title>Node16</title>
<g id="a_node16"><a xlink:href="a01995.html#a7b6c2d4c95d56751e233e285a5f1fea7" target="_top" xlink:title="determine the type and size for a container">
<polygon fill="white" stroke="#666666" points="1126,-72 977.25,-72 977.25,-40 1126,-40 1126,-72"/>
<text xml:space="preserve" text-anchor="start" x="985.25" y="-58.5" font-family="Helvetica,sans-Serif" font-size="10.00">nlohmann::detail::binary</text>
<text xml:space="preserve" text-anchor="middle" x="1051.62" y="-46.5" font-family="Helvetica,sans-Serif" font-size="10.00">_reader::get_ubjson_size_type</text>
</a>
</g>
</g>
<!-- Node1&#45;&gt;Node16 -->
<g id="edge20" class="edge">
<title>Node1&#45;&gt;Node16</title>
<path fill="none" stroke="#63b8ff" d="M1375.92,-100.09C1358.16,-90.68 1336.24,-80.59 1315.25,-75 1252.96,-58.42 1179.62,-54.34 1126.29,-54.02"/>
<polygon fill="#63b8ff" stroke="#63b8ff" points="1374.06,-103.07 1384.52,-104.78 1377.42,-96.92 1374.06,-103.07"/>
</g>
<!-- Node17 -->
<g id="node17" class="node">
<title>Node17</title>
<g id="a_node17"><a xlink:href="a01995.html#aba7ba9ec9a52ad2bee8baff70176aa20" target="_top" xlink:title=" ">
<polygon fill="white" stroke="#666666" points="1315.25,-116 1162,-116 1162,-84 1315.25,-84 1315.25,-116"/>
<text xml:space="preserve" text-anchor="start" x="1170" y="-102.5" font-family="Helvetica,sans-Serif" font-size="10.00">nlohmann::detail::binary</text>
<text xml:space="preserve" text-anchor="middle" x="1238.62" y="-90.5" font-family="Helvetica,sans-Serif" font-size="10.00">_reader::get_ubjson_size_value</text>
</a>
</g>
</g>
<!-- Node1&#45;&gt;Node17 -->
<g id="edge23" class="edge">
<title>Node1&#45;&gt;Node17</title>
<path fill="none" stroke="#63b8ff" d="M1339.72,-112.7C1331.71,-111.69 1323.56,-110.65 1315.52,-109.63"/>
<polygon fill="#63b8ff" stroke="#63b8ff" points="1339.03,-116.14 1349.4,-113.93 1339.92,-109.2 1339.03,-116.14"/>
</g>
<!-- Node3 -->
<g id="node3" class="node">
<title>Node3</title>
<g id="a_node3"><a xlink:href="a01995.html#a7e5e0b71548d0649ce4f131280d06c33" target="_top" xlink:title=" ">
<polygon fill="white" stroke="#666666" points="776.75,-117 646.75,-117 646.75,-85 776.75,-85 776.75,-117"/>
<text xml:space="preserve" text-anchor="start" x="654.75" y="-103.5" font-family="Helvetica,sans-Serif" font-size="10.00">nlohmann::detail::binary</text>
<text xml:space="preserve" text-anchor="middle" x="711.75" y="-91.5" font-family="Helvetica,sans-Serif" font-size="10.00">_reader::get_ubjson_value</text>
</a>
</g>
</g>
<!-- Node2&#45;&gt;Node3 -->
<g id="edge2" class="edge">
<title>Node2&#45;&gt;Node3</title>
<path fill="none" stroke="#63b8ff" d="M825.29,-124.34C810.04,-119.86 793.09,-115.29 777.08,-111.33"/>
<polygon fill="#63b8ff" stroke="#63b8ff" points="824.03,-127.62 834.62,-127.15 826.05,-120.92 824.03,-127.62"/>
</g>
<!-- Node3&#45;&gt;Node2 -->
<g id="edge3" class="edge">
<title>Node3&#45;&gt;Node2</title>
<path fill="none" stroke="#63b8ff" d="M763.73,-120.74C779.15,-125.26 796.28,-129.87 812.42,-133.85"/>
<polygon fill="#63b8ff" stroke="#63b8ff" points="764.88,-117.43 754.29,-117.9 762.86,-124.13 764.88,-117.43"/>
</g>
<!-- Node3&#45;&gt;Node4 -->
<g id="edge4" class="edge">
<title>Node3&#45;&gt;Node4</title>
<path fill="none" stroke="#63b8ff" d="M635.2,-94.47C573.04,-92.24 485.79,-91.32 426.41,-92.34"/>
<polygon fill="#63b8ff" stroke="#63b8ff" points="634.87,-97.96 645,-94.84 635.14,-90.96 634.87,-97.96"/>
</g>
<!-- Node3&#45;&gt;Node5 -->
<g id="edge6" class="edge">
<title>Node3&#45;&gt;Node5</title>
<path fill="none" stroke="#63b8ff" d="M641.63,-120.54C626.42,-124.83 610.46,-129.34 595.73,-133.51"/>
<polygon fill="#63b8ff" stroke="#63b8ff" points="642.41,-123.95 651.08,-117.86 640.5,-117.22 642.41,-123.95"/>
</g>
<!-- Node4&#45;&gt;Node3 -->
<g id="edge5" class="edge">
<title>Node4&#45;&gt;Node3</title>
<path fill="none" stroke="#63b8ff" d="M437.81,-103.59C500.45,-105.8 587.67,-106.68 646.51,-105.63"/>
<polygon fill="#63b8ff" stroke="#63b8ff" points="438.05,-100.1 427.93,-103.22 437.79,-107.09 438.05,-100.1"/>
</g>
<!-- Node5&#45;&gt;Node2 -->
<g id="edge7" class="edge">
<title>Node5&#45;&gt;Node2</title>
<path fill="none" stroke="#63b8ff" d="M622.25,-148.5C681.23,-147.45 758.58,-146.08 812.31,-145.13"/>
<polygon fill="#63b8ff" stroke="#63b8ff" points="622.54,-144.99 612.6,-148.67 622.67,-151.99 622.54,-144.99"/>
</g>
<!-- Node5&#45;&gt;Node4 -->
<g id="edge8" class="edge">
<title>Node5&#45;&gt;Node4</title>
<path fill="none" stroke="#63b8ff" d="M470.17,-130.24C451.95,-124.72 432.36,-118.78 414.84,-113.47"/>
<polygon fill="#63b8ff" stroke="#63b8ff" points="468.97,-133.53 479.55,-133.08 471,-126.83 468.97,-133.53"/>
</g>
<!-- Node5&#45;&gt;Node6 -->
<g id="edge9" class="edge">
<title>Node5&#45;&gt;Node6</title>
<path fill="none" stroke="#63b8ff" d="M450.49,-166.02C440.09,-167.98 429.65,-169.95 419.75,-171.82"/>
<polygon fill="#63b8ff" stroke="#63b8ff" points="451.05,-169.47 460.23,-164.18 449.76,-162.6 451.05,-169.47"/>
</g>
<!-- Node7 -->
<g id="node7" class="node">
<title>Node7</title>
<g id="a_node7"><a xlink:href="a01659.html#a4e02793f2691aa29ab7cb69fddafbf5c" target="_top" xlink:title="Create a JSON value from an input in BSON format.">
<polygon fill="white" stroke="#666666" points="257,-299 146.5,-299 146.5,-267 257,-267 257,-299"/>
<text xml:space="preserve" text-anchor="start" x="154.5" y="-285.5" font-family="Helvetica,sans-Serif" font-size="10.00">nlohmann::basic_json</text>
<text xml:space="preserve" text-anchor="middle" x="201.75" y="-273.5" font-family="Helvetica,sans-Serif" font-size="10.00">::from_bson</text>
</a>
</g>
</g>
<!-- Node6&#45;&gt;Node7 -->
<g id="edge10" class="edge">
<title>Node6&#45;&gt;Node7</title>
<path fill="none" stroke="#63b8ff" d="M330.33,-206.26C310.54,-221.98 283.05,-242.59 257,-258 251.91,-261.01 246.4,-263.92 240.91,-266.62"/>
<polygon fill="#63b8ff" stroke="#63b8ff" points="332.33,-209.14 337.93,-200.15 327.95,-203.68 332.33,-209.14"/>
</g>
<!-- Node9 -->
<g id="node9" class="node">
<title>Node9</title>
<g id="a_node9"><a xlink:href="a01659.html#a44dd5635fb2da4710f6cd6e42b72773f" target="_top" xlink:title="create a JSON value from an input in CBOR format">
<polygon fill="white" stroke="#666666" points="257,-249 146.5,-249 146.5,-217 257,-217 257,-249"/>
<text xml:space="preserve" text-anchor="start" x="154.5" y="-235.5" font-family="Helvetica,sans-Serif" font-size="10.00">nlohmann::basic_json</text>
<text xml:space="preserve" text-anchor="middle" x="201.75" y="-223.5" font-family="Helvetica,sans-Serif" font-size="10.00">::from_cbor</text>
</a>
</g>
</g>
<!-- Node6&#45;&gt;Node9 -->
<g id="edge12" class="edge">
<title>Node6&#45;&gt;Node9</title>
<path fill="none" stroke="#63b8ff" d="M296.86,-202.79C282.7,-207.33 267.8,-212.12 254.13,-216.51"/>
<polygon fill="#63b8ff" stroke="#63b8ff" points="297.61,-206.22 306.06,-199.83 295.47,-199.56 297.61,-206.22"/>
</g>
<!-- Node11 -->
<g id="node11" class="node">
<title>Node11</title>
<g id="a_node11"><a xlink:href="a01659.html#adbcab52fca1e25b3311ef14e71a57590" target="_top" xlink:title="create a JSON value from an input in MessagePack format">
<polygon fill="white" stroke="#666666" points="257,-199 146.5,-199 146.5,-167 257,-167 257,-199"/>
<text xml:space="preserve" text-anchor="start" x="154.5" y="-185.5" font-family="Helvetica,sans-Serif" font-size="10.00">nlohmann::basic_json</text>
<text xml:space="preserve" text-anchor="middle" x="201.75" y="-173.5" font-family="Helvetica,sans-Serif" font-size="10.00">::from_msgpack</text>
</a>
</g>
</g>
<!-- Node6&#45;&gt;Node11 -->
<g id="edge14" class="edge">
<title>Node6&#45;&gt;Node11</title>
<path fill="none" stroke="#63b8ff" d="M288.42,-183C278,-183 267.39,-183 257.35,-183"/>
<polygon fill="#63b8ff" stroke="#63b8ff" points="288.1,-186.5 298.1,-183 288.1,-179.5 288.1,-186.5"/>
</g>
<!-- Node13 -->
<g id="node13" class="node">
<title>Node13</title>
<g id="a_node13"><a xlink:href="a01659.html#aa81f62db69978b90ff701f05c72e03a7" target="_top" xlink:title="create a JSON value from an input in UBJSON format">
<polygon fill="white" stroke="#666666" points="257,-149 146.5,-149 146.5,-117 257,-117 257,-149"/>
<text xml:space="preserve" text-anchor="start" x="154.5" y="-135.5" font-family="Helvetica,sans-Serif" font-size="10.00">nlohmann::basic_json</text>
<text xml:space="preserve" text-anchor="middle" x="201.75" y="-123.5" font-family="Helvetica,sans-Serif" font-size="10.00">::from_ubjson</text>
</a>
</g>
</g>
<!-- Node6&#45;&gt;Node13 -->
<g id="edge16" class="edge">
<title>Node6&#45;&gt;Node13</title>
<path fill="none" stroke="#63b8ff" d="M296.86,-163.21C282.7,-158.67 267.8,-153.88 254.13,-149.49"/>
<polygon fill="#63b8ff" stroke="#63b8ff" points="295.47,-166.44 306.06,-166.17 297.61,-159.78 295.47,-166.44"/>
</g>
<!-- Node15 -->
<g id="node15" class="node">
<title>Node15</title>
<g id="a_node15"><a xlink:href="a01659.html#a12b382c6407da5543827ce4b24bb5008" target="_top" xlink:title="generate SAX events">
<polygon fill="white" stroke="#666666" points="257,-99 146.5,-99 146.5,-67 257,-67 257,-99"/>
<text xml:space="preserve" text-anchor="start" x="154.5" y="-85.5" font-family="Helvetica,sans-Serif" font-size="10.00">nlohmann::basic_json</text>
<text xml:space="preserve" text-anchor="middle" x="201.75" y="-73.5" font-family="Helvetica,sans-Serif" font-size="10.00">::sax_parse</text>
</a>
</g>
</g>
<!-- Node6&#45;&gt;Node15 -->
<g id="edge18" class="edge">
<title>Node6&#45;&gt;Node15</title>
<path fill="none" stroke="#63b8ff" d="M330.33,-159.74C310.54,-144.02 283.05,-123.41 257,-108 251.91,-104.99 246.4,-102.08 240.91,-99.38"/>
<polygon fill="#63b8ff" stroke="#63b8ff" points="327.95,-162.32 337.93,-165.85 332.33,-156.86 327.95,-162.32"/>
</g>
<!-- Node8 -->
<g id="node8" class="node">
<title>Node8</title>
<g id="a_node8"><a xlink:href="a01659.html#ae2612581e4788ddffc2f45d5e4cc04fc" target="_top" xlink:title=" ">
<polygon fill="white" stroke="#666666" points="110.5,-299 0,-299 0,-267 110.5,-267 110.5,-299"/>
<text xml:space="preserve" text-anchor="start" x="8" y="-285.5" font-family="Helvetica,sans-Serif" font-size="10.00">nlohmann::basic_json</text>
<text xml:space="preserve" text-anchor="middle" x="55.25" y="-273.5" font-family="Helvetica,sans-Serif" font-size="10.00">::from_bson</text>
</a>
</g>
</g>
<!-- Node7&#45;&gt;Node8 -->
<g id="edge11" class="edge">
<title>Node7&#45;&gt;Node8</title>
<path fill="none" stroke="#63b8ff" d="M134.63,-283C126.71,-283 118.69,-283 110.96,-283"/>
<polygon fill="#63b8ff" stroke="#63b8ff" points="134.61,-286.5 144.61,-283 134.61,-279.5 134.61,-286.5"/>
</g>
<!-- Node10 -->
<g id="node10" class="node">
<title>Node10</title>
<g id="a_node10"><a xlink:href="a01659.html#a188755c8cda27e2afb03c016c14125d8" target="_top" xlink:title=" ">
<polygon fill="white" stroke="#666666" points="110.5,-249 0,-249 0,-217 110.5,-217 110.5,-249"/>
<text xml:space="preserve" text-anchor="start" x="8" y="-235.5" font-family="Helvetica,sans-Serif" font-size="10.00">nlohmann::basic_json</text>
<text xml:space="preserve" text-anchor="middle" x="55.25" y="-223.5" font-family="Helvetica,sans-Serif" font-size="10.00">::from_cbor</text>
</a>
</g>
</g>
<!-- Node9&#45;&gt;Node10 -->
<g id="edge13" class="edge">
<title>Node9&#45;&gt;Node10</title>
<path fill="none" stroke="#63b8ff" d="M134.63,-233C126.71,-233 118.69,-233 110.96,-233"/>
<polygon fill="#63b8ff" stroke="#63b8ff" points="134.61,-236.5 144.61,-233 134.61,-229.5 134.61,-236.5"/>
</g>
<!-- Node12 -->
<g id="node12" class="node">
<title>Node12</title>
<g id="a_node12"><a xlink:href="a01659.html#a0d69d3102639759d5202a6f764760d23" target="_top" xlink:title=" ">
<polygon fill="white" stroke="#666666" points="110.5,-199 0,-199 0,-167 110.5,-167 110.5,-199"/>
<text xml:space="preserve" text-anchor="start" x="8" y="-185.5" font-family="Helvetica,sans-Serif" font-size="10.00">nlohmann::basic_json</text>
<text xml:space="preserve" text-anchor="middle" x="55.25" y="-173.5" font-family="Helvetica,sans-Serif" font-size="10.00">::from_msgpack</text>
</a>
</g>
</g>
<!-- Node11&#45;&gt;Node12 -->
<g id="edge15" class="edge">
<title>Node11&#45;&gt;Node12</title>
<path fill="none" stroke="#63b8ff" d="M134.63,-183C126.71,-183 118.69,-183 110.96,-183"/>
<polygon fill="#63b8ff" stroke="#63b8ff" points="134.61,-186.5 144.61,-183 134.61,-179.5 134.61,-186.5"/>
</g>
<!-- Node14 -->
<g id="node14" class="node">
<title>Node14</title>
<g id="a_node14"><a xlink:href="a01659.html#ab6eeda23c34cee79d8d72f1a8691a8de" target="_top" xlink:title=" ">
<polygon fill="white" stroke="#666666" points="110.5,-149 0,-149 0,-117 110.5,-117 110.5,-149"/>
<text xml:space="preserve" text-anchor="start" x="8" y="-135.5" font-family="Helvetica,sans-Serif" font-size="10.00">nlohmann::basic_json</text>
<text xml:space="preserve" text-anchor="middle" x="55.25" y="-123.5" font-family="Helvetica,sans-Serif" font-size="10.00">::from_ubjson</text>
</a>
</g>
</g>
<!-- Node13&#45;&gt;Node14 -->
<g id="edge17" class="edge">
<title>Node13&#45;&gt;Node14</title>
<path fill="none" stroke="#63b8ff" d="M134.63,-133C126.71,-133 118.69,-133 110.96,-133"/>
<polygon fill="#63b8ff" stroke="#63b8ff" points="134.61,-136.5 144.61,-133 134.61,-129.5 134.61,-136.5"/>
</g>
<!-- Node16&#45;&gt;Node2 -->
<g id="edge21" class="edge">
<title>Node16&#45;&gt;Node2</title>
<path fill="none" stroke="#63b8ff" d="M1014.91,-78.35C993.88,-91.05 966.52,-106.81 941.25,-119 935.08,-121.98 928.46,-124.89 921.91,-127.61"/>
<polygon fill="#63b8ff" stroke="#63b8ff" points="1016.68,-81.36 1023.4,-73.17 1013.04,-75.39 1016.68,-81.36"/>
</g>
<!-- Node16&#45;&gt;Node4 -->
<g id="edge22" class="edge">
<title>Node16&#45;&gt;Node4</title>
<path fill="none" stroke="#63b8ff" d="M965.63,-54.63C920.24,-54.33 863.43,-54.66 812.75,-57 674.96,-63.37 514.22,-79.72 426.29,-89.43"/>
<polygon fill="#63b8ff" stroke="#63b8ff" points="965.38,-58.13 975.4,-54.7 965.43,-51.13 965.38,-58.13"/>
</g>
<!-- Node17&#45;&gt;Node16 -->
<g id="edge26" class="edge">
<title>Node17&#45;&gt;Node16</title>
<path fill="none" stroke="#63b8ff" d="M1157.31,-80.9C1145.55,-78.1 1133.52,-75.24 1122,-72.5"/>
<polygon fill="#63b8ff" stroke="#63b8ff" points="1156.46,-84.29 1167,-83.2 1158.08,-77.48 1156.46,-84.29"/>
</g>
<!-- Node18 -->
<g id="node18" class="node">
<title>Node18</title>
<g id="a_node18"><a xlink:href="a01995.html#a26c694413fb860057e1a839d5422b361" target="_top" xlink:title=" ">
<polygon fill="white" stroke="#666666" points="939.38,-110 814.62,-110 814.62,-66 939.38,-66 939.38,-110"/>
<text xml:space="preserve" text-anchor="start" x="822.62" y="-96.5" font-family="Helvetica,sans-Serif" font-size="10.00">nlohmann::detail::binary</text>
<text xml:space="preserve" text-anchor="start" x="822.62" y="-84.5" font-family="Helvetica,sans-Serif" font-size="10.00">_reader::get_ubjson_high</text>
<text xml:space="preserve" text-anchor="middle" x="877" y="-72.5" font-family="Helvetica,sans-Serif" font-size="10.00">_precision_number</text>
</a>
</g>
</g>
<!-- Node17&#45;&gt;Node18 -->
<g id="edge24" class="edge">
<title>Node17&#45;&gt;Node18</title>
<path fill="none" stroke="#63b8ff" d="M1150.31,-97.09C1085.14,-94.91 997.7,-91.99 939.69,-90.06"/>
<polygon fill="#63b8ff" stroke="#63b8ff" points="1150.17,-100.58 1160.28,-97.42 1150.41,-93.59 1150.17,-100.58"/>
</g>
<!-- Node18&#45;&gt;Node3 -->
<g id="edge25" class="edge">
<title>Node18&#45;&gt;Node3</title>
<path fill="none" stroke="#63b8ff" d="M803,-93.81C794.33,-94.5 785.53,-95.2 777,-95.88"/>
<polygon fill="#63b8ff" stroke="#63b8ff" points="803.08,-97.32 812.77,-93.03 802.53,-90.34 803.08,-97.32"/>
</g>
</g>
</svg>
