<?xml version="1.0" encoding="UTF-8" standalone="no"?>
<!DOCTYPE svg PUBLIC "-//W3C//DTD SVG 1.1//EN"
 "http://www.w3.org/Graphics/SVG/1.1/DTD/svg11.dtd">
<!-- Generated by graphviz version 13.1.2 (20250808.2320)
 -->
<!-- Title: nlohmann::detail::binary_reader::get_ubjson_array Pages: 1 -->
<svg width="949pt" height="240pt"
 viewBox="0.00 0.00 949.00 240.00" xmlns="http://www.w3.org/2000/svg" xmlns:xlink="http://www.w3.org/1999/xlink">
<g id="graph0" class="graph" transform="scale(1 1) rotate(0) translate(4 236)">
<title>nlohmann::detail::binary_reader::get_ubjson_array</title>
<!-- Node1 -->
<g id="node1" class="node">
<title>Node1</title>
<g id="a_node1"><a xlink:title=" ">
<polygon fill="#999999" stroke="#666666" points="941.25,-182 812.75,-182 812.75,-150 941.25,-150 941.25,-182"/>
<text xml:space="preserve" text-anchor="start" x="820.75" y="-168.5" font-family="Helvetica,sans-Serif" font-size="10.00">nlohmann::detail::binary</text>
<text xml:space="preserve" text-anchor="middle" x="877" y="-156.5" font-family="Helvetica,sans-Serif" font-size="10.00">_reader::get_ubjson_array</text>
</a>
</g>
</g>
<!-- Node2 -->
<g id="node2" class="node">
<title>Node2</title>
<g id="a_node2"><a xlink:href="a01995.html#a7e5e0b71548d0649ce4f131280d06c33" target="_top" xlink:title=" ">
<polygon fill="white" stroke="#666666" points="776.75,-182 646.75,-182 646.75,-150 776.75,-150 776.75,-182"/>
<text xml:space="preserve" text-anchor="start" x="654.75" y="-168.5" font-family="Helvetica,sans-Serif" font-size="10.00">nlohmann::detail::binary</text>
<text xml:space="preserve" text-anchor="middle" x="711.75" y="-156.5" font-family="Helvetica,sans-Serif" font-size="10.00">_reader::get_ubjson_value</text>
</a>
</g>
</g>
<!-- Node1&#45;&gt;Node2 -->
<g id="edge1" class="edge">
<title>Node1&#45;&gt;Node2</title>
<path fill="none" stroke="#63b8ff" d="M800.92,-159.27C793.01,-159.22 785.01,-159.26 777.24,-159.38"/>
<polygon fill="#63b8ff" stroke="#63b8ff" points="800.86,-162.77 810.9,-159.38 800.94,-155.77 800.86,-162.77"/>
</g>
<!-- Node2&#45;&gt;Node1 -->
<g id="edge2" class="edge">
<title>Node2&#45;&gt;Node1</title>
<path fill="none" stroke="#63b8ff" d="M788.47,-172.73C796.48,-172.78 804.57,-172.73 812.42,-172.6"/>
<polygon fill="#63b8ff" stroke="#63b8ff" points="788.79,-169.24 778.75,-172.63 788.71,-176.24 788.79,-169.24"/>
</g>
<!-- Node3 -->
<g id="node3" class="node">
<title>Node3</title>
<g id="a_node3"><a xlink:href="a01995.html#adcf64ad3207f4bf37a5a31c920a385c3" target="_top" xlink:title=" ">
<polygon fill="white" stroke="#666666" points="426,-185 293,-185 293,-153 426,-153 426,-185"/>
<text xml:space="preserve" text-anchor="start" x="301" y="-171.5" font-family="Helvetica,sans-Serif" font-size="10.00">nlohmann::detail::binary</text>
<text xml:space="preserve" text-anchor="middle" x="359.5" y="-159.5" font-family="Helvetica,sans-Serif" font-size="10.00">_reader::get_ubjson_object</text>
</a>
</g>
</g>
<!-- Node2&#45;&gt;Node3 -->
<g id="edge3" class="edge">
<title>Node2&#45;&gt;Node3</title>
<path fill="none" stroke="#63b8ff" d="M635.2,-160.98C573.04,-159.99 485.79,-160.82 426.41,-163.02"/>
<polygon fill="#63b8ff" stroke="#63b8ff" points="634.93,-164.48 645,-161.16 635.06,-157.48 634.93,-164.48"/>
</g>
<!-- Node4 -->
<g id="node4" class="node">
<title>Node4</title>
<g id="a_node4"><a xlink:href="a01995.html#a5a79480d661019b0f3fc615ae12f7de7" target="_top" xlink:title=" ">
<polygon fill="white" stroke="#666666" points="610.75,-132 462,-132 462,-100 610.75,-100 610.75,-132"/>
<text xml:space="preserve" text-anchor="start" x="470" y="-118.5" font-family="Helvetica,sans-Serif" font-size="10.00">nlohmann::detail::binary</text>
<text xml:space="preserve" text-anchor="middle" x="536.38" y="-106.5" font-family="Helvetica,sans-Serif" font-size="10.00">_reader::parse_ubjson_internal</text>
</a>
</g>
</g>
<!-- Node2&#45;&gt;Node4 -->
<g id="edge5" class="edge">
<title>Node2&#45;&gt;Node4</title>
<path fill="none" stroke="#63b8ff" d="M643.06,-146.48C627.02,-141.85 610.08,-136.97 594.57,-132.49"/>
<polygon fill="#63b8ff" stroke="#63b8ff" points="641.95,-149.8 652.53,-149.21 643.89,-143.07 641.95,-149.8"/>
</g>
<!-- Node3&#45;&gt;Node2 -->
<g id="edge4" class="edge">
<title>Node3&#45;&gt;Node2</title>
<path fill="none" stroke="#63b8ff" d="M437.81,-174.05C500.45,-175 587.67,-174.14 646.51,-171.91"/>
<polygon fill="#63b8ff" stroke="#63b8ff" points="437.99,-170.55 427.93,-173.87 437.87,-177.55 437.99,-170.55"/>
</g>
<!-- Node4&#45;&gt;Node1 -->
<g id="edge6" class="edge">
<title>Node4&#45;&gt;Node1</title>
<path fill="none" stroke="#63b8ff" d="M622.5,-121.92C668.41,-125.86 725.93,-131.99 776.75,-141 789.7,-143.29 803.45,-146.35 816.47,-149.54"/>
<polygon fill="#63b8ff" stroke="#63b8ff" points="622.86,-118.44 612.6,-121.09 622.27,-125.41 622.86,-118.44"/>
</g>
<!-- Node4&#45;&gt;Node3 -->
<g id="edge7" class="edge">
<title>Node4&#45;&gt;Node3</title>
<path fill="none" stroke="#63b8ff" d="M470.17,-135.76C451.95,-141.28 432.36,-147.22 414.84,-152.53"/>
<polygon fill="#63b8ff" stroke="#63b8ff" points="471,-139.17 479.55,-132.92 468.97,-132.47 471,-139.17"/>
</g>
<!-- Node5 -->
<g id="node5" class="node">
<title>Node5</title>
<g id="a_node5"><a xlink:href="a01995.html#ab4afd9ee276bbb15a0f898061aad94dd" target="_top" xlink:title=" ">
<polygon fill="white" stroke="#666666" points="419.25,-132 299.75,-132 299.75,-100 419.25,-100 419.25,-132"/>
<text xml:space="preserve" text-anchor="start" x="307.75" y="-118.5" font-family="Helvetica,sans-Serif" font-size="10.00">nlohmann::detail::binary</text>
<text xml:space="preserve" text-anchor="middle" x="359.5" y="-106.5" font-family="Helvetica,sans-Serif" font-size="10.00">_reader::sax_parse</text>
</a>
</g>
</g>
<!-- Node4&#45;&gt;Node5 -->
<g id="edge8" class="edge">
<title>Node4&#45;&gt;Node5</title>
<path fill="none" stroke="#63b8ff" d="M450.49,-116C440.09,-116 429.65,-116 419.75,-116"/>
<polygon fill="#63b8ff" stroke="#63b8ff" points="450.21,-119.5 460.21,-116 450.21,-112.5 450.21,-119.5"/>
</g>
<!-- Node6 -->
<g id="node6" class="node">
<title>Node6</title>
<g id="a_node6"><a xlink:href="a01659.html#a4e02793f2691aa29ab7cb69fddafbf5c" target="_top" xlink:title="Create a JSON value from an input in BSON format.">
<polygon fill="white" stroke="#666666" points="257,-232 146.5,-232 146.5,-200 257,-200 257,-232"/>
<text xml:space="preserve" text-anchor="start" x="154.5" y="-218.5" font-family="Helvetica,sans-Serif" font-size="10.00">nlohmann::basic_json</text>
<text xml:space="preserve" text-anchor="middle" x="201.75" y="-206.5" font-family="Helvetica,sans-Serif" font-size="10.00">::from_bson</text>
</a>
</g>
</g>
<!-- Node5&#45;&gt;Node6 -->
<g id="edge9" class="edge">
<title>Node5&#45;&gt;Node6</title>
<path fill="none" stroke="#63b8ff" d="M301.72,-137.99C298.67,-139.87 295.74,-141.87 293,-144 272.22,-160.14 277.55,-174.57 257,-191 253.03,-194.17 248.59,-197.05 244.01,-199.62"/>
<polygon fill="#63b8ff" stroke="#63b8ff" points="303.36,-141.09 310.4,-133.18 299.96,-134.96 303.36,-141.09"/>
</g>
<!-- Node8 -->
<g id="node8" class="node">
<title>Node8</title>
<g id="a_node8"><a xlink:href="a01659.html#a44dd5635fb2da4710f6cd6e42b72773f" target="_top" xlink:title="create a JSON value from an input in CBOR format">
<polygon fill="white" stroke="#666666" points="257,-182 146.5,-182 146.5,-150 257,-150 257,-182"/>
<text xml:space="preserve" text-anchor="start" x="154.5" y="-168.5" font-family="Helvetica,sans-Serif" font-size="10.00">nlohmann::basic_json</text>
<text xml:space="preserve" text-anchor="middle" x="201.75" y="-156.5" font-family="Helvetica,sans-Serif" font-size="10.00">::from_cbor</text>
</a>
</g>
</g>
<!-- Node5&#45;&gt;Node8 -->
<g id="edge11" class="edge">
<title>Node5&#45;&gt;Node8</title>
<path fill="none" stroke="#63b8ff" d="M296.86,-135.79C282.7,-140.33 267.8,-145.12 254.13,-149.51"/>
<polygon fill="#63b8ff" stroke="#63b8ff" points="297.61,-139.22 306.06,-132.83 295.47,-132.56 297.61,-139.22"/>
</g>
<!-- Node10 -->
<g id="node10" class="node">
<title>Node10</title>
<g id="a_node10"><a xlink:href="a01659.html#adbcab52fca1e25b3311ef14e71a57590" target="_top" xlink:title="create a JSON value from an input in MessagePack format">
<polygon fill="white" stroke="#666666" points="257,-132 146.5,-132 146.5,-100 257,-100 257,-132"/>
<text xml:space="preserve" text-anchor="start" x="154.5" y="-118.5" font-family="Helvetica,sans-Serif" font-size="10.00">nlohmann::basic_json</text>
<text xml:space="preserve" text-anchor="middle" x="201.75" y="-106.5" font-family="Helvetica,sans-Serif" font-size="10.00">::from_msgpack</text>
</a>
</g>
</g>
<!-- Node5&#45;&gt;Node10 -->
<g id="edge13" class="edge">
<title>Node5&#45;&gt;Node10</title>
<path fill="none" stroke="#63b8ff" d="M288.42,-116C278,-116 267.39,-116 257.35,-116"/>
<polygon fill="#63b8ff" stroke="#63b8ff" points="288.1,-119.5 298.1,-116 288.1,-112.5 288.1,-119.5"/>
</g>
<!-- Node12 -->
<g id="node12" class="node">
<title>Node12</title>
<g id="a_node12"><a xlink:href="a01659.html#aa81f62db69978b90ff701f05c72e03a7" target="_top" xlink:title="create a JSON value from an input in UBJSON format">
<polygon fill="white" stroke="#666666" points="257,-82 146.5,-82 146.5,-50 257,-50 257,-82"/>
<text xml:space="preserve" text-anchor="start" x="154.5" y="-68.5" font-family="Helvetica,sans-Serif" font-size="10.00">nlohmann::basic_json</text>
<text xml:space="preserve" text-anchor="middle" x="201.75" y="-56.5" font-family="Helvetica,sans-Serif" font-size="10.00">::from_ubjson</text>
</a>
</g>
</g>
<!-- Node5&#45;&gt;Node12 -->
<g id="edge15" class="edge">
<title>Node5&#45;&gt;Node12</title>
<path fill="none" stroke="#63b8ff" d="M296.86,-96.21C282.7,-91.67 267.8,-86.88 254.13,-82.49"/>
<polygon fill="#63b8ff" stroke="#63b8ff" points="295.47,-99.44 306.06,-99.17 297.61,-92.78 295.47,-99.44"/>
</g>
<!-- Node14 -->
<g id="node14" class="node">
<title>Node14</title>
<g id="a_node14"><a xlink:href="a01659.html#a12b382c6407da5543827ce4b24bb5008" target="_top" xlink:title="generate SAX events">
<polygon fill="white" stroke="#666666" points="257,-32 146.5,-32 146.5,0 257,0 257,-32"/>
<text xml:space="preserve" text-anchor="start" x="154.5" y="-18.5" font-family="Helvetica,sans-Serif" font-size="10.00">nlohmann::basic_json</text>
<text xml:space="preserve" text-anchor="middle" x="201.75" y="-6.5" font-family="Helvetica,sans-Serif" font-size="10.00">::sax_parse</text>
</a>
</g>
</g>
<!-- Node5&#45;&gt;Node14 -->
<g id="edge17" class="edge">
<title>Node5&#45;&gt;Node14</title>
<path fill="none" stroke="#63b8ff" d="M330.33,-92.74C310.54,-77.02 283.05,-56.41 257,-41 251.91,-37.99 246.4,-35.08 240.91,-32.38"/>
<polygon fill="#63b8ff" stroke="#63b8ff" points="327.95,-95.32 337.93,-98.85 332.33,-89.86 327.95,-95.32"/>
</g>
<!-- Node7 -->
<g id="node7" class="node">
<title>Node7</title>
<g id="a_node7"><a xlink:href="a01659.html#ae2612581e4788ddffc2f45d5e4cc04fc" target="_top" xlink:title=" ">
<polygon fill="white" stroke="#666666" points="110.5,-232 0,-232 0,-200 110.5,-200 110.5,-232"/>
<text xml:space="preserve" text-anchor="start" x="8" y="-218.5" font-family="Helvetica,sans-Serif" font-size="10.00">nlohmann::basic_json</text>
<text xml:space="preserve" text-anchor="middle" x="55.25" y="-206.5" font-family="Helvetica,sans-Serif" font-size="10.00">::from_bson</text>
</a>
</g>
</g>
<!-- Node6&#45;&gt;Node7 -->
<g id="edge10" class="edge">
<title>Node6&#45;&gt;Node7</title>
<path fill="none" stroke="#63b8ff" d="M134.63,-216C126.71,-216 118.69,-216 110.96,-216"/>
<polygon fill="#63b8ff" stroke="#63b8ff" points="134.61,-219.5 144.61,-216 134.61,-212.5 134.61,-219.5"/>
</g>
<!-- Node9 -->
<g id="node9" class="node">
<title>Node9</title>
<g id="a_node9"><a xlink:href="a01659.html#a188755c8cda27e2afb03c016c14125d8" target="_top" xlink:title=" ">
<polygon fill="white" stroke="#666666" points="110.5,-182 0,-182 0,-150 110.5,-150 110.5,-182"/>
<text xml:space="preserve" text-anchor="start" x="8" y="-168.5" font-family="Helvetica,sans-Serif" font-size="10.00">nlohmann::basic_json</text>
<text xml:space="preserve" text-anchor="middle" x="55.25" y="-156.5" font-family="Helvetica,sans-Serif" font-size="10.00">::from_cbor</text>
</a>
</g>
</g>
<!-- Node8&#45;&gt;Node9 -->
<g id="edge12" class="edge">
<title>Node8&#45;&gt;Node9</title>
<path fill="none" stroke="#63b8ff" d="M134.63,-166C126.71,-166 118.69,-166 110.96,-166"/>
<polygon fill="#63b8ff" stroke="#63b8ff" points="134.61,-169.5 144.61,-166 134.61,-162.5 134.61,-169.5"/>
</g>
<!-- Node11 -->
<g id="node11" class="node">
<title>Node11</title>
<g id="a_node11"><a xlink:href="a01659.html#a0d69d3102639759d5202a6f764760d23" target="_top" xlink:title=" ">
<polygon fill="white" stroke="#666666" points="110.5,-132 0,-132 0,-100 110.5,-100 110.5,-132"/>
<text xml:space="preserve" text-anchor="start" x="8" y="-118.5" font-family="Helvetica,sans-Serif" font-size="10.00">nlohmann::basic_json</text>
<text xml:space="preserve" text-anchor="middle" x="55.25" y="-106.5" font-family="Helvetica,sans-Serif" font-size="10.00">::from_msgpack</text>
</a>
</g>
</g>
<!-- Node10&#45;&gt;Node11 -->
<g id="edge14" class="edge">
<title>Node10&#45;&gt;Node11</title>
<path fill="none" stroke="#63b8ff" d="M134.63,-116C126.71,-116 118.69,-116 110.96,-116"/>
<polygon fill="#63b8ff" stroke="#63b8ff" points="134.61,-119.5 144.61,-116 134.61,-112.5 134.61,-119.5"/>
</g>
<!-- Node13 -->
<g id="node13" class="node">
<title>Node13</title>
<g id="a_node13"><a xlink:href="a01659.html#ab6eeda23c34cee79d8d72f1a8691a8de" target="_top" xlink:title=" ">
<polygon fill="white" stroke="#666666" points="110.5,-82 0,-82 0,-50 110.5,-50 110.5,-82"/>
<text xml:space="preserve" text-anchor="start" x="8" y="-68.5" font-family="Helvetica,sans-Serif" font-size="10.00">nlohmann::basic_json</text>
<text xml:space="preserve" text-anchor="middle" x="55.25" y="-56.5" font-family="Helvetica,sans-Serif" font-size="10.00">::from_ubjson</text>
</a>
</g>
</g>
<!-- Node12&#45;&gt;Node13 -->
<g id="edge16" class="edge">
<title>Node12&#45;&gt;Node13</title>
<path fill="none" stroke="#63b8ff" d="M134.63,-66C126.71,-66 118.69,-66 110.96,-66"/>
<polygon fill="#63b8ff" stroke="#63b8ff" points="134.61,-69.5 144.61,-66 134.61,-62.5 134.61,-69.5"/>
</g>
</g>
</svg>
