<?xml version="1.0" encoding="UTF-8" standalone="no"?>
<!DOCTYPE svg PUBLIC "-//W3C//DTD SVG 1.1//EN"
 "http://www.w3.org/Graphics/SVG/1.1/DTD/svg11.dtd">
<!-- Generated by graphviz version 13.1.2 (20250808.2320)
 -->
<!-- Title: nlohmann::detail::binary_reader::get_msgpack_object Pages: 1 -->
<svg width="780pt" height="240pt"
 viewBox="0.00 0.00 780.00 240.00" xmlns="http://www.w3.org/2000/svg" xmlns:xlink="http://www.w3.org/1999/xlink">
<g id="graph0" class="graph" transform="scale(1 1) rotate(0) translate(4 236)">
<title>nlohmann::detail::binary_reader::get_msgpack_object</title>
<!-- Node1 -->
<g id="node1" class="node">
<title>Node1</title>
<g id="a_node1"><a xlink:title=" ">
<polygon fill="#999999" stroke="#666666" points="772.25,-182 628,-182 628,-150 772.25,-150 772.25,-182"/>
<text xml:space="preserve" text-anchor="start" x="636" y="-168.5" font-family="Helvetica,sans-Serif" font-size="10.00">nlohmann::detail::binary</text>
<text xml:space="preserve" text-anchor="middle" x="700.12" y="-156.5" font-family="Helvetica,sans-Serif" font-size="10.00">_reader::get_msgpack_object</text>
</a>
</g>
</g>
<!-- Node2 -->
<g id="node2" class="node">
<title>Node2</title>
<g id="a_node2"><a xlink:href="a01995.html#ae020385ce9424271d61f85d3842c02cb" target="_top" xlink:title=" ">
<polygon fill="white" stroke="#666666" points="592,-188 468.75,-188 468.75,-144 592,-144 592,-188"/>
<text xml:space="preserve" text-anchor="start" x="476.75" y="-174.5" font-family="Helvetica,sans-Serif" font-size="10.00">nlohmann::detail::binary</text>
<text xml:space="preserve" text-anchor="start" x="476.75" y="-162.5" font-family="Helvetica,sans-Serif" font-size="10.00">_reader::parse_msgpack</text>
<text xml:space="preserve" text-anchor="middle" x="530.38" y="-150.5" font-family="Helvetica,sans-Serif" font-size="10.00">_internal</text>
</a>
</g>
</g>
<!-- Node1&#45;&gt;Node2 -->
<g id="edge1" class="edge">
<title>Node1&#45;&gt;Node2</title>
<path fill="none" stroke="#63b8ff" d="M616.5,-159.25C608.34,-159.24 600.17,-159.32 592.29,-159.48"/>
<polygon fill="#63b8ff" stroke="#63b8ff" points="616.45,-162.75 626.47,-159.31 616.49,-155.75 616.45,-162.75"/>
</g>
<!-- Node2&#45;&gt;Node1 -->
<g id="edge4" class="edge">
<title>Node2&#45;&gt;Node1</title>
<path fill="none" stroke="#63b8ff" d="M603.59,-172.69C611.68,-172.77 619.91,-172.77 627.98,-172.68"/>
<polygon fill="#63b8ff" stroke="#63b8ff" points="603.86,-169.2 593.8,-172.54 603.75,-176.19 603.86,-169.2"/>
</g>
<!-- Node3 -->
<g id="node3" class="node">
<title>Node3</title>
<g id="a_node3"><a xlink:href="a01995.html#a0ce1d7066597952efb008aaf578b2bd6" target="_top" xlink:title=" ">
<polygon fill="white" stroke="#666666" points="432.75,-182 293,-182 293,-150 432.75,-150 432.75,-182"/>
<text xml:space="preserve" text-anchor="start" x="301" y="-168.5" font-family="Helvetica,sans-Serif" font-size="10.00">nlohmann::detail::binary</text>
<text xml:space="preserve" text-anchor="middle" x="362.88" y="-156.5" font-family="Helvetica,sans-Serif" font-size="10.00">_reader::get_msgpack_array</text>
</a>
</g>
</g>
<!-- Node2&#45;&gt;Node3 -->
<g id="edge2" class="edge">
<title>Node2&#45;&gt;Node3</title>
<path fill="none" stroke="#63b8ff" d="M457.45,-159.3C449.41,-159.22 441.24,-159.23 433.23,-159.33"/>
<polygon fill="#63b8ff" stroke="#63b8ff" points="457.12,-162.8 467.18,-159.45 457.23,-155.8 457.12,-162.8"/>
</g>
<!-- Node4 -->
<g id="node4" class="node">
<title>Node4</title>
<g id="a_node4"><a xlink:href="a01995.html#ab4afd9ee276bbb15a0f898061aad94dd" target="_top" xlink:title=" ">
<polygon fill="white" stroke="#666666" points="422.62,-132 303.12,-132 303.12,-100 422.62,-100 422.62,-132"/>
<text xml:space="preserve" text-anchor="start" x="311.12" y="-118.5" font-family="Helvetica,sans-Serif" font-size="10.00">nlohmann::detail::binary</text>
<text xml:space="preserve" text-anchor="middle" x="362.88" y="-106.5" font-family="Helvetica,sans-Serif" font-size="10.00">_reader::sax_parse</text>
</a>
</g>
</g>
<!-- Node2&#45;&gt;Node4 -->
<g id="edge5" class="edge">
<title>Node2&#45;&gt;Node4</title>
<path fill="none" stroke="#63b8ff" d="M457.7,-144.35C444.48,-140.35 430.87,-136.24 418.26,-132.43"/>
<polygon fill="#63b8ff" stroke="#63b8ff" points="456.65,-147.69 467.24,-147.23 458.68,-140.99 456.65,-147.69"/>
</g>
<!-- Node3&#45;&gt;Node2 -->
<g id="edge3" class="edge">
<title>Node3&#45;&gt;Node2</title>
<path fill="none" stroke="#63b8ff" d="M444.63,-172.75C452.73,-172.76 460.85,-172.69 468.69,-172.53"/>
<polygon fill="#63b8ff" stroke="#63b8ff" points="444.77,-169.25 434.75,-172.68 444.72,-176.25 444.77,-169.25"/>
</g>
<!-- Node5 -->
<g id="node5" class="node">
<title>Node5</title>
<g id="a_node5"><a xlink:href="a01659.html#a4e02793f2691aa29ab7cb69fddafbf5c" target="_top" xlink:title="Create a JSON value from an input in BSON format.">
<polygon fill="white" stroke="#666666" points="257,-232 146.5,-232 146.5,-200 257,-200 257,-232"/>
<text xml:space="preserve" text-anchor="start" x="154.5" y="-218.5" font-family="Helvetica,sans-Serif" font-size="10.00">nlohmann::basic_json</text>
<text xml:space="preserve" text-anchor="middle" x="201.75" y="-206.5" font-family="Helvetica,sans-Serif" font-size="10.00">::from_bson</text>
</a>
</g>
</g>
<!-- Node4&#45;&gt;Node5 -->
<g id="edge6" class="edge">
<title>Node4&#45;&gt;Node5</title>
<path fill="none" stroke="#63b8ff" d="M297.12,-138.09C295.71,-139.02 294.33,-139.99 293,-141 271.16,-157.52 278.13,-173.58 257,-191 253.16,-194.17 248.85,-197.02 244.39,-199.58"/>
<polygon fill="#63b8ff" stroke="#63b8ff" points="298.67,-141.24 305.58,-133.2 295.17,-135.18 298.67,-141.24"/>
</g>
<!-- Node7 -->
<g id="node7" class="node">
<title>Node7</title>
<g id="a_node7"><a xlink:href="a01659.html#a44dd5635fb2da4710f6cd6e42b72773f" target="_top" xlink:title="create a JSON value from an input in CBOR format">
<polygon fill="white" stroke="#666666" points="257,-182 146.5,-182 146.5,-150 257,-150 257,-182"/>
<text xml:space="preserve" text-anchor="start" x="154.5" y="-168.5" font-family="Helvetica,sans-Serif" font-size="10.00">nlohmann::basic_json</text>
<text xml:space="preserve" text-anchor="middle" x="201.75" y="-156.5" font-family="Helvetica,sans-Serif" font-size="10.00">::from_cbor</text>
</a>
</g>
</g>
<!-- Node4&#45;&gt;Node7 -->
<g id="edge8" class="edge">
<title>Node4&#45;&gt;Node7</title>
<path fill="none" stroke="#63b8ff" d="M298.9,-135.79C284.43,-140.33 269.21,-145.12 255.24,-149.51"/>
<polygon fill="#63b8ff" stroke="#63b8ff" points="299.84,-139.16 308.33,-132.83 297.74,-132.48 299.84,-139.16"/>
</g>
<!-- Node9 -->
<g id="node9" class="node">
<title>Node9</title>
<g id="a_node9"><a xlink:href="a01659.html#adbcab52fca1e25b3311ef14e71a57590" target="_top" xlink:title="create a JSON value from an input in MessagePack format">
<polygon fill="white" stroke="#666666" points="257,-132 146.5,-132 146.5,-100 257,-100 257,-132"/>
<text xml:space="preserve" text-anchor="start" x="154.5" y="-118.5" font-family="Helvetica,sans-Serif" font-size="10.00">nlohmann::basic_json</text>
<text xml:space="preserve" text-anchor="middle" x="201.75" y="-106.5" font-family="Helvetica,sans-Serif" font-size="10.00">::from_msgpack</text>
</a>
</g>
</g>
<!-- Node4&#45;&gt;Node9 -->
<g id="edge10" class="edge">
<title>Node4&#45;&gt;Node9</title>
<path fill="none" stroke="#63b8ff" d="M291.69,-116C280.18,-116 268.41,-116 257.35,-116"/>
<polygon fill="#63b8ff" stroke="#63b8ff" points="291.56,-119.5 301.56,-116 291.56,-112.5 291.56,-119.5"/>
</g>
<!-- Node11 -->
<g id="node11" class="node">
<title>Node11</title>
<g id="a_node11"><a xlink:href="a01659.html#aa81f62db69978b90ff701f05c72e03a7" target="_top" xlink:title="create a JSON value from an input in UBJSON format">
<polygon fill="white" stroke="#666666" points="257,-82 146.5,-82 146.5,-50 257,-50 257,-82"/>
<text xml:space="preserve" text-anchor="start" x="154.5" y="-68.5" font-family="Helvetica,sans-Serif" font-size="10.00">nlohmann::basic_json</text>
<text xml:space="preserve" text-anchor="middle" x="201.75" y="-56.5" font-family="Helvetica,sans-Serif" font-size="10.00">::from_ubjson</text>
</a>
</g>
</g>
<!-- Node4&#45;&gt;Node11 -->
<g id="edge12" class="edge">
<title>Node4&#45;&gt;Node11</title>
<path fill="none" stroke="#63b8ff" d="M298.9,-96.21C284.43,-91.67 269.21,-86.88 255.24,-82.49"/>
<polygon fill="#63b8ff" stroke="#63b8ff" points="297.74,-99.52 308.33,-99.17 299.84,-92.84 297.74,-99.52"/>
</g>
<!-- Node13 -->
<g id="node13" class="node">
<title>Node13</title>
<g id="a_node13"><a xlink:href="a01659.html#a12b382c6407da5543827ce4b24bb5008" target="_top" xlink:title="generate SAX events">
<polygon fill="white" stroke="#666666" points="257,-32 146.5,-32 146.5,0 257,0 257,-32"/>
<text xml:space="preserve" text-anchor="start" x="154.5" y="-18.5" font-family="Helvetica,sans-Serif" font-size="10.00">nlohmann::basic_json</text>
<text xml:space="preserve" text-anchor="middle" x="201.75" y="-6.5" font-family="Helvetica,sans-Serif" font-size="10.00">::sax_parse</text>
</a>
</g>
</g>
<!-- Node4&#45;&gt;Node13 -->
<g id="edge14" class="edge">
<title>Node4&#45;&gt;Node13</title>
<path fill="none" stroke="#63b8ff" d="M332.26,-92.52C311.79,-76.88 283.57,-56.43 257,-41 251.89,-38.03 246.36,-35.14 240.86,-32.45"/>
<polygon fill="#63b8ff" stroke="#63b8ff" points="330.12,-95.29 340.17,-98.63 334.4,-89.75 330.12,-95.29"/>
</g>
<!-- Node6 -->
<g id="node6" class="node">
<title>Node6</title>
<g id="a_node6"><a xlink:href="a01659.html#ae2612581e4788ddffc2f45d5e4cc04fc" target="_top" xlink:title=" ">
<polygon fill="white" stroke="#666666" points="110.5,-232 0,-232 0,-200 110.5,-200 110.5,-232"/>
<text xml:space="preserve" text-anchor="start" x="8" y="-218.5" font-family="Helvetica,sans-Serif" font-size="10.00">nlohmann::basic_json</text>
<text xml:space="preserve" text-anchor="middle" x="55.25" y="-206.5" font-family="Helvetica,sans-Serif" font-size="10.00">::from_bson</text>
</a>
</g>
</g>
<!-- Node5&#45;&gt;Node6 -->
<g id="edge7" class="edge">
<title>Node5&#45;&gt;Node6</title>
<path fill="none" stroke="#63b8ff" d="M134.63,-216C126.71,-216 118.69,-216 110.96,-216"/>
<polygon fill="#63b8ff" stroke="#63b8ff" points="134.61,-219.5 144.61,-216 134.61,-212.5 134.61,-219.5"/>
</g>
<!-- Node8 -->
<g id="node8" class="node">
<title>Node8</title>
<g id="a_node8"><a xlink:href="a01659.html#a188755c8cda27e2afb03c016c14125d8" target="_top" xlink:title=" ">
<polygon fill="white" stroke="#666666" points="110.5,-182 0,-182 0,-150 110.5,-150 110.5,-182"/>
<text xml:space="preserve" text-anchor="start" x="8" y="-168.5" font-family="Helvetica,sans-Serif" font-size="10.00">nlohmann::basic_json</text>
<text xml:space="preserve" text-anchor="middle" x="55.25" y="-156.5" font-family="Helvetica,sans-Serif" font-size="10.00">::from_cbor</text>
</a>
</g>
</g>
<!-- Node7&#45;&gt;Node8 -->
<g id="edge9" class="edge">
<title>Node7&#45;&gt;Node8</title>
<path fill="none" stroke="#63b8ff" d="M134.63,-166C126.71,-166 118.69,-166 110.96,-166"/>
<polygon fill="#63b8ff" stroke="#63b8ff" points="134.61,-169.5 144.61,-166 134.61,-162.5 134.61,-169.5"/>
</g>
<!-- Node10 -->
<g id="node10" class="node">
<title>Node10</title>
<g id="a_node10"><a xlink:href="a01659.html#a0d69d3102639759d5202a6f764760d23" target="_top" xlink:title=" ">
<polygon fill="white" stroke="#666666" points="110.5,-132 0,-132 0,-100 110.5,-100 110.5,-132"/>
<text xml:space="preserve" text-anchor="start" x="8" y="-118.5" font-family="Helvetica,sans-Serif" font-size="10.00">nlohmann::basic_json</text>
<text xml:space="preserve" text-anchor="middle" x="55.25" y="-106.5" font-family="Helvetica,sans-Serif" font-size="10.00">::from_msgpack</text>
</a>
</g>
</g>
<!-- Node9&#45;&gt;Node10 -->
<g id="edge11" class="edge">
<title>Node9&#45;&gt;Node10</title>
<path fill="none" stroke="#63b8ff" d="M134.63,-116C126.71,-116 118.69,-116 110.96,-116"/>
<polygon fill="#63b8ff" stroke="#63b8ff" points="134.61,-119.5 144.61,-116 134.61,-112.5 134.61,-119.5"/>
</g>
<!-- Node12 -->
<g id="node12" class="node">
<title>Node12</title>
<g id="a_node12"><a xlink:href="a01659.html#ab6eeda23c34cee79d8d72f1a8691a8de" target="_top" xlink:title=" ">
<polygon fill="white" stroke="#666666" points="110.5,-82 0,-82 0,-50 110.5,-50 110.5,-82"/>
<text xml:space="preserve" text-anchor="start" x="8" y="-68.5" font-family="Helvetica,sans-Serif" font-size="10.00">nlohmann::basic_json</text>
<text xml:space="preserve" text-anchor="middle" x="55.25" y="-56.5" font-family="Helvetica,sans-Serif" font-size="10.00">::from_ubjson</text>
</a>
</g>
</g>
<!-- Node11&#45;&gt;Node12 -->
<g id="edge13" class="edge">
<title>Node11&#45;&gt;Node12</title>
<path fill="none" stroke="#63b8ff" d="M134.63,-66C126.71,-66 118.69,-66 110.96,-66"/>
<polygon fill="#63b8ff" stroke="#63b8ff" points="134.61,-69.5 144.61,-66 134.61,-62.5 134.61,-69.5"/>
</g>
</g>
</svg>
