<?xml version="1.0" encoding="UTF-8" standalone="no"?>
<!DOCTYPE svg PUBLIC "-//W3C//DTD SVG 1.1//EN"
 "http://www.w3.org/Graphics/SVG/1.1/DTD/svg11.dtd">
<!-- Generated by graphviz version 13.1.2 (20250808.2320)
 -->
<!-- Title: nlohmann::detail::binary_reader::get_cbor_array Pages: 1 -->
<svg width="1287pt" height="682pt"
 viewBox="0.00 0.00 1287.00 682.00" xmlns="http://www.w3.org/2000/svg" xmlns:xlink="http://www.w3.org/1999/xlink">
<g id="graph0" class="graph" transform="scale(1 1) rotate(0) translate(4 677.88)">
<title>nlohmann::detail::binary_reader::get_cbor_array</title>
<!-- Node1 -->
<g id="node1" class="node">
<title>Node1</title>
<g id="a_node1"><a xlink:title=" ">
<polygon fill="#999999" stroke="#666666" points="119.5,-314.88 0,-314.88 0,-282.88 119.5,-282.88 119.5,-314.88"/>
<text xml:space="preserve" text-anchor="start" x="8" y="-301.38" font-family="Helvetica,sans-Serif" font-size="10.00">nlohmann::detail::binary</text>
<text xml:space="preserve" text-anchor="middle" x="59.75" y="-289.38" font-family="Helvetica,sans-Serif" font-size="10.00">_reader::get_cbor_array</text>
</a>
</g>
</g>
<!-- Node2 -->
<g id="node2" class="node">
<title>Node2</title>
<g id="a_node2"><a xlink:href="a01995.html#ad222095c0b21a87824cb10629299629a" target="_top" xlink:title="get next character from the input">
<polygon fill="white" stroke="#666666" points="930.75,-245.88 811.25,-245.88 811.25,-213.88 930.75,-213.88 930.75,-245.88"/>
<text xml:space="preserve" text-anchor="start" x="819.25" y="-232.38" font-family="Helvetica,sans-Serif" font-size="10.00">nlohmann::detail::binary</text>
<text xml:space="preserve" text-anchor="middle" x="871" y="-220.38" font-family="Helvetica,sans-Serif" font-size="10.00">_reader::get</text>
</a>
</g>
</g>
<!-- Node1&#45;&gt;Node2 -->
<g id="edge1" class="edge">
<title>Node1&#45;&gt;Node2</title>
<path fill="none" stroke="#63b8ff" d="M91.62,-282.41C140.64,-257.19 239.99,-209.84 330.5,-189.88 523.53,-147.3 582.54,-145.9 775.25,-189.88 793.39,-194.02 812.45,-201.41 828.69,-208.73"/>
<polygon fill="#63b8ff" stroke="#63b8ff" points="827,-211.8 837.54,-212.85 829.95,-205.45 827,-211.8"/>
</g>
<!-- Node3 -->
<g id="node3" class="node">
<title>Node3</title>
<g id="a_node3"><a xlink:href="a01995.html#a4e4accd5a2a41bfb2f18a8a0fcc9421c" target="_top" xlink:title=" ">
<polygon fill="white" stroke="#666666" points="294.5,-314.88 155.5,-314.88 155.5,-282.88 294.5,-282.88 294.5,-314.88"/>
<text xml:space="preserve" text-anchor="start" x="163.5" y="-301.38" font-family="Helvetica,sans-Serif" font-size="10.00">nlohmann::detail::binary</text>
<text xml:space="preserve" text-anchor="middle" x="225" y="-289.38" font-family="Helvetica,sans-Serif" font-size="10.00">_reader::parse_cbor_internal</text>
</a>
</g>
</g>
<!-- Node1&#45;&gt;Node3 -->
<g id="edge2" class="edge">
<title>Node1&#45;&gt;Node3</title>
<path fill="none" stroke="#63b8ff" d="M119.69,-292.36C127.51,-292.2 135.63,-292.12 143.74,-292.13"/>
<polygon fill="#63b8ff" stroke="#63b8ff" points="143.62,-295.63 153.64,-292.19 143.66,-288.63 143.62,-295.63"/>
</g>
<!-- Node3&#45;&gt;Node1 -->
<g id="edge8" class="edge">
<title>Node3&#45;&gt;Node1</title>
<path fill="none" stroke="#63b8ff" d="M155.15,-305.55C147.23,-305.65 139.14,-305.65 131.19,-305.57"/>
<polygon fill="#63b8ff" stroke="#63b8ff" points="131.25,-302.07 121.2,-305.41 131.14,-309.07 131.25,-302.07"/>
</g>
<!-- Node3&#45;&gt;Node2 -->
<g id="edge7" class="edge">
<title>Node3&#45;&gt;Node2</title>
<path fill="none" stroke="#63b8ff" d="M244.93,-282.44C264.8,-266.18 297.67,-242.02 330.5,-229.88 516.1,-161.23 578.54,-187.34 775.25,-208.88 783.25,-209.75 791.57,-211.03 799.8,-212.54"/>
<polygon fill="#63b8ff" stroke="#63b8ff" points="798.97,-215.94 809.46,-214.42 800.31,-209.07 798.97,-215.94"/>
</g>
<!-- Node3&#45;&gt;Node3 -->
<g id="edge41" class="edge">
<title>Node3&#45;&gt;Node3</title>
<path fill="none" stroke="#63b8ff" d="M195.5,-315.32C189.99,-324.46 199.83,-332.88 225,-332.88 238.77,-332.88 247.95,-330.36 252.54,-326.58"/>
<polygon fill="#63b8ff" stroke="#63b8ff" points="255.97,-327.26 254.24,-316.81 249.08,-326.06 255.97,-327.26"/>
</g>
<!-- Node4 -->
<g id="node4" class="node">
<title>Node4</title>
<g id="a_node4"><a xlink:href="a01563.html#a137ea4d27de45d8a844fd13451d40f3d" target="_top" xlink:title="create a parse error exception">
<polygon fill="white" stroke="#666666" points="1096,-535.88 978.75,-535.88 978.75,-503.88 1096,-503.88 1096,-535.88"/>
<text xml:space="preserve" text-anchor="start" x="986.75" y="-522.38" font-family="Helvetica,sans-Serif" font-size="10.00">nlohmann::detail::parse</text>
<text xml:space="preserve" text-anchor="middle" x="1037.38" y="-510.38" font-family="Helvetica,sans-Serif" font-size="10.00">_error::create</text>
</a>
</g>
</g>
<!-- Node3&#45;&gt;Node4 -->
<g id="edge3" class="edge">
<title>Node3&#45;&gt;Node4</title>
<path fill="none" stroke="#63b8ff" d="M230.9,-314.99C253.82,-386.77 357.55,-673.88 550.38,-673.88 550.38,-673.88 550.38,-673.88 713.12,-673.88 815,-673.88 840.85,-649.81 930.75,-601.88 960.55,-585.99 990.59,-561.68 1010.97,-543.65"/>
<polygon fill="#63b8ff" stroke="#63b8ff" points="1013.14,-546.41 1018.23,-537.12 1008.46,-541.2 1013.14,-546.41"/>
</g>
<!-- Node7 -->
<g id="node7" class="node">
<title>Node7</title>
<g id="a_node7"><a xlink:href="a01995.html#a9c413c9a1bade1ce345740f4d69156f0" target="_top" xlink:title=" ">
<polygon fill="white" stroke="#666666" points="1108,-362.88 966.75,-362.88 966.75,-330.88 1108,-330.88 1108,-362.88"/>
<text xml:space="preserve" text-anchor="start" x="974.75" y="-349.38" font-family="Helvetica,sans-Serif" font-size="10.00">nlohmann::detail::binary</text>
<text xml:space="preserve" text-anchor="middle" x="1037.38" y="-337.38" font-family="Helvetica,sans-Serif" font-size="10.00">_reader::exception_message</text>
</a>
</g>
</g>
<!-- Node3&#45;&gt;Node7 -->
<g id="edge6" class="edge">
<title>Node3&#45;&gt;Node7</title>
<path fill="none" stroke="#63b8ff" d="M237.1,-282.44C254.24,-258.36 289.5,-213.76 330.5,-189.88 565.73,-52.84 706.75,86.83 930.75,-67.88 1015.1,-126.13 1032.16,-261.08 1035.56,-319.31"/>
<polygon fill="#63b8ff" stroke="#63b8ff" points="1032.05,-319.18 1036.02,-329 1039.04,-318.85 1032.05,-319.18"/>
</g>
<!-- Node8 -->
<g id="node8" class="node">
<title>Node8</title>
<g id="a_node8"><a xlink:href="a01995.html#acb001d18095dc5bcf7336ae5122b8340" target="_top" xlink:title="reads a CBOR byte array">
<polygon fill="white" stroke="#666666" points="613,-478.88 489.75,-478.88 489.75,-446.88 613,-446.88 613,-478.88"/>
<text xml:space="preserve" text-anchor="start" x="497.75" y="-465.38" font-family="Helvetica,sans-Serif" font-size="10.00">nlohmann::detail::binary</text>
<text xml:space="preserve" text-anchor="middle" x="551.38" y="-453.38" font-family="Helvetica,sans-Serif" font-size="10.00">_reader::get_cbor_binary</text>
</a>
</g>
</g>
<!-- Node3&#45;&gt;Node8 -->
<g id="edge9" class="edge">
<title>Node3&#45;&gt;Node8</title>
<path fill="none" stroke="#63b8ff" d="M238.76,-315.03C256.89,-336.92 292.18,-375.79 330.5,-397.88 376.28,-424.27 433.71,-440.77 478.39,-450.54"/>
<polygon fill="#63b8ff" stroke="#63b8ff" points="477.47,-453.92 487.98,-452.56 478.92,-447.07 477.47,-453.92"/>
</g>
<!-- Node10 -->
<g id="node10" class="node">
<title>Node10</title>
<g id="a_node10"><a xlink:href="a01995.html#a61a0bd8bbe7b560bd429fa990ba3ba1a" target="_top" xlink:title=" ">
<polygon fill="white" stroke="#666666" points="930.75,-449.88 811.25,-449.88 811.25,-417.88 930.75,-417.88 930.75,-449.88"/>
<text xml:space="preserve" text-anchor="start" x="819.25" y="-436.38" font-family="Helvetica,sans-Serif" font-size="10.00">nlohmann::detail::binary</text>
<text xml:space="preserve" text-anchor="middle" x="871" y="-424.38" font-family="Helvetica,sans-Serif" font-size="10.00">_reader::unexpect_eof</text>
</a>
</g>
</g>
<!-- Node3&#45;&gt;Node10 -->
<g id="edge42" class="edge">
<title>Node3&#45;&gt;Node10</title>
<path fill="none" stroke="#63b8ff" d="M234.9,-315.23C250.79,-343.12 286.54,-400.22 330.5,-434.88 391.36,-482.85 414.86,-485.97 489.75,-505.88 612.57,-538.52 656.96,-568.34 775.25,-521.88 807.29,-509.29 834.93,-480.22 851.96,-458.92"/>
<polygon fill="#63b8ff" stroke="#63b8ff" points="854.54,-461.31 857.87,-451.25 848.99,-457.03 854.54,-461.31"/>
</g>
<!-- Node11 -->
<g id="node11" class="node">
<title>Node11</title>
<g id="a_node11"><a xlink:href="a01995.html#ac356c6364fe0273d3303fb7a447f4ef6" target="_top" xlink:title=" ">
<polygon fill="white" stroke="#666666" points="771.88,-405.88 652.38,-405.88 652.38,-373.88 771.88,-373.88 771.88,-405.88"/>
<text xml:space="preserve" text-anchor="start" x="660.38" y="-392.38" font-family="Helvetica,sans-Serif" font-size="10.00">nlohmann::detail::binary</text>
<text xml:space="preserve" text-anchor="middle" x="712.12" y="-380.38" font-family="Helvetica,sans-Serif" font-size="10.00">_reader::get_number</text>
</a>
</g>
</g>
<!-- Node3&#45;&gt;Node11 -->
<g id="edge39" class="edge">
<title>Node3&#45;&gt;Node11</title>
<path fill="none" stroke="#63b8ff" d="M283.52,-315.37C298.72,-319.43 315.17,-323.56 330.5,-326.88 438.14,-350.15 564.51,-369.51 641.16,-380.39"/>
<polygon fill="#63b8ff" stroke="#63b8ff" points="640.21,-383.79 650.6,-381.72 641.19,-376.86 640.21,-383.79"/>
</g>
<!-- Node12 -->
<g id="node12" class="node">
<title>Node12</title>
<g id="a_node12"><a xlink:href="a01995.html#a7d323283c60a0b89ee5eeadf5cb9a5ad" target="_top" xlink:title=" ">
<polygon fill="white" stroke="#666666" points="775.25,-355.88 649,-355.88 649,-323.88 775.25,-323.88 775.25,-355.88"/>
<text xml:space="preserve" text-anchor="start" x="657" y="-342.38" font-family="Helvetica,sans-Serif" font-size="10.00">nlohmann::detail::binary</text>
<text xml:space="preserve" text-anchor="middle" x="712.12" y="-330.38" font-family="Helvetica,sans-Serif" font-size="10.00">_reader::get_token_string</text>
</a>
</g>
</g>
<!-- Node3&#45;&gt;Node12 -->
<g id="edge40" class="edge">
<title>Node3&#45;&gt;Node12</title>
<path fill="none" stroke="#63b8ff" d="M294.99,-304.71C385.64,-312.37 544.22,-325.77 637.24,-333.63"/>
<polygon fill="#63b8ff" stroke="#63b8ff" points="636.76,-337.1 647.02,-334.46 637.35,-330.13 636.76,-337.1"/>
</g>
<!-- Node13 -->
<g id="node13" class="node">
<title>Node13</title>
<g id="a_node13"><a xlink:href="a01995.html#a47092a2195bf9cd3cdb4dda67cc404ed" target="_top" xlink:title=" ">
<polygon fill="white" stroke="#666666" points="453.75,-270.88 330.5,-270.88 330.5,-238.88 453.75,-238.88 453.75,-270.88"/>
<text xml:space="preserve" text-anchor="start" x="338.5" y="-257.38" font-family="Helvetica,sans-Serif" font-size="10.00">nlohmann::detail::binary</text>
<text xml:space="preserve" text-anchor="middle" x="392.12" y="-245.38" font-family="Helvetica,sans-Serif" font-size="10.00">_reader::get_cbor_object</text>
</a>
</g>
</g>
<!-- Node3&#45;&gt;Node13 -->
<g id="edge24" class="edge">
<title>Node3&#45;&gt;Node13</title>
<path fill="none" stroke="#63b8ff" d="M265.55,-282.48C281.67,-277.45 300.82,-272.07 319.24,-267.33"/>
<polygon fill="#63b8ff" stroke="#63b8ff" points="319.97,-270.76 328.81,-264.92 318.26,-263.97 319.97,-270.76"/>
</g>
<!-- Node14 -->
<g id="node14" class="node">
<title>Node14</title>
<g id="a_node14"><a xlink:href="a01995.html#a545a44ae4b3fa2b7a61d9e8517fb7154" target="_top" xlink:title="reads a CBOR string">
<polygon fill="white" stroke="#666666" points="611.88,-270.88 490.88,-270.88 490.88,-238.88 611.88,-238.88 611.88,-270.88"/>
<text xml:space="preserve" text-anchor="start" x="498.88" y="-257.38" font-family="Helvetica,sans-Serif" font-size="10.00">nlohmann::detail::binary</text>
<text xml:space="preserve" text-anchor="middle" x="551.38" y="-245.38" font-family="Helvetica,sans-Serif" font-size="10.00">_reader::get_cbor_string</text>
</a>
</g>
</g>
<!-- Node3&#45;&gt;Node14 -->
<g id="edge38" class="edge">
<title>Node3&#45;&gt;Node14</title>
<path fill="none" stroke="#63b8ff" d="M294.9,-296.18C340.27,-293.66 400.84,-288.86 453.75,-279.88 463.02,-278.3 472.7,-276.27 482.2,-274.05"/>
<polygon fill="#63b8ff" stroke="#63b8ff" points="482.88,-277.49 491.77,-271.73 481.23,-270.69 482.88,-277.49"/>
</g>
<!-- Node5 -->
<g id="node5" class="node">
<title>Node5</title>
<g id="a_node5"><a xlink:href="a01559.html#abf41a7e9178356314082284e6cfea278" target="_top" xlink:title=" ">
<polygon fill="white" stroke="#666666" points="1279.25,-560.88 1144,-560.88 1144,-528.88 1279.25,-528.88 1279.25,-560.88"/>
<text xml:space="preserve" text-anchor="start" x="1152" y="-547.38" font-family="Helvetica,sans-Serif" font-size="10.00">nlohmann::detail::exception</text>
<text xml:space="preserve" text-anchor="middle" x="1211.62" y="-535.38" font-family="Helvetica,sans-Serif" font-size="10.00">::name</text>
</a>
</g>
</g>
<!-- Node4&#45;&gt;Node5 -->
<g id="edge4" class="edge">
<title>Node4&#45;&gt;Node5</title>
<path fill="none" stroke="#63b8ff" d="M1096.21,-528.27C1107.88,-529.97 1120.34,-531.77 1132.57,-533.55"/>
<polygon fill="#63b8ff" stroke="#63b8ff" points="1131.82,-536.98 1142.22,-534.95 1132.83,-530.05 1131.82,-536.98"/>
</g>
<!-- Node6 -->
<g id="node6" class="node">
<title>Node6</title>
<g id="a_node6"><a xlink:href="a01563.html#aefe74adeaa48781464ba2fd2ec63d221" target="_top" xlink:title=" ">
<polygon fill="white" stroke="#666666" points="1270.25,-510.88 1153,-510.88 1153,-478.88 1270.25,-478.88 1270.25,-510.88"/>
<text xml:space="preserve" text-anchor="start" x="1161" y="-497.38" font-family="Helvetica,sans-Serif" font-size="10.00">nlohmann::detail::parse</text>
<text xml:space="preserve" text-anchor="middle" x="1211.62" y="-485.38" font-family="Helvetica,sans-Serif" font-size="10.00">_error::position_string</text>
</a>
</g>
</g>
<!-- Node4&#45;&gt;Node6 -->
<g id="edge5" class="edge">
<title>Node4&#45;&gt;Node6</title>
<path fill="none" stroke="#63b8ff" d="M1096.21,-511.48C1110.7,-509.38 1126.38,-507.1 1141.36,-504.93"/>
<polygon fill="#63b8ff" stroke="#63b8ff" points="1141.76,-508.41 1151.15,-503.51 1140.75,-501.48 1141.76,-508.41"/>
</g>
<!-- Node8&#45;&gt;Node2 -->
<g id="edge12" class="edge">
<title>Node8&#45;&gt;Node2</title>
<path fill="none" stroke="#63b8ff" d="M613.37,-455.68C670.36,-447.92 750.29,-434.04 775.25,-414.88 827.35,-374.87 853.26,-298.22 863.89,-257.27"/>
<polygon fill="#63b8ff" stroke="#63b8ff" points="867.25,-258.27 866.24,-247.72 860.45,-256.6 867.25,-258.27"/>
</g>
<!-- Node8&#45;&gt;Node4 -->
<g id="edge10" class="edge">
<title>Node8&#45;&gt;Node4</title>
<path fill="none" stroke="#63b8ff" d="M560.62,-479.24C574.68,-505.04 605.98,-554.29 649,-573.88 762.97,-625.77 809.01,-603.19 930.75,-573.88 956.44,-567.69 982.92,-554.14 1002.93,-542.16"/>
<polygon fill="#63b8ff" stroke="#63b8ff" points="1004.53,-545.29 1011.2,-537.06 1000.85,-539.33 1004.53,-545.29"/>
</g>
<!-- Node8&#45;&gt;Node7 -->
<g id="edge11" class="edge">
<title>Node8&#45;&gt;Node7</title>
<path fill="none" stroke="#63b8ff" d="M571.93,-479.33C590.44,-493.74 619.67,-513.63 649,-521.88 703.02,-537.06 720.17,-532.61 775.25,-521.88 848.44,-507.61 869.2,-500.97 930.75,-458.88 966.16,-434.66 998.69,-396.79 1018.03,-371.9"/>
<polygon fill="#63b8ff" stroke="#63b8ff" points="1020.57,-374.33 1023.85,-364.26 1015.01,-370.09 1020.57,-374.33"/>
</g>
<!-- Node8&#45;&gt;Node8 -->
<g id="edge18" class="edge">
<title>Node8&#45;&gt;Node8</title>
<path fill="none" stroke="#63b8ff" d="M522.94,-479.32C517.64,-488.46 527.11,-496.88 551.38,-496.88 564.64,-496.88 573.49,-494.36 577.91,-490.58"/>
<polygon fill="#63b8ff" stroke="#63b8ff" points="581.35,-491.25 579.55,-480.81 574.45,-490.09 581.35,-491.25"/>
</g>
<!-- Node9 -->
<g id="node9" class="node">
<title>Node9</title>
<g id="a_node9"><a xlink:href="a01995.html#a55e13d567a53234573ab3833c0ca32e9" target="_top" xlink:title="create a byte array by reading bytes from the input">
<polygon fill="white" stroke="#666666" points="771.88,-493.88 652.38,-493.88 652.38,-461.88 771.88,-461.88 771.88,-493.88"/>
<text xml:space="preserve" text-anchor="start" x="660.38" y="-480.38" font-family="Helvetica,sans-Serif" font-size="10.00">nlohmann::detail::binary</text>
<text xml:space="preserve" text-anchor="middle" x="712.12" y="-468.38" font-family="Helvetica,sans-Serif" font-size="10.00">_reader::get_binary</text>
</a>
</g>
</g>
<!-- Node8&#45;&gt;Node9 -->
<g id="edge13" class="edge">
<title>Node8&#45;&gt;Node9</title>
<path fill="none" stroke="#63b8ff" d="M613.3,-468.63C622.21,-469.48 631.46,-470.35 640.54,-471.21"/>
<polygon fill="#63b8ff" stroke="#63b8ff" points="640.14,-474.69 650.43,-472.14 640.8,-467.72 640.14,-474.69"/>
</g>
<!-- Node8&#45;&gt;Node10 -->
<g id="edge23" class="edge">
<title>Node8&#45;&gt;Node10</title>
<path fill="none" stroke="#63b8ff" d="M583.16,-479.27C601.67,-488.19 626.03,-498.31 649,-502.88 704.03,-513.82 721.89,-520.25 775.25,-502.88 802.52,-494 828.48,-473.98 846.31,-457.78"/>
<polygon fill="#63b8ff" stroke="#63b8ff" points="848.38,-460.64 853.28,-451.24 843.59,-455.54 848.38,-460.64"/>
</g>
<!-- Node8&#45;&gt;Node11 -->
<g id="edge19" class="edge">
<title>Node8&#45;&gt;Node11</title>
<path fill="none" stroke="#63b8ff" d="M588,-446.49C610.8,-436.01 640.6,-422.31 665.17,-411.01"/>
<polygon fill="#63b8ff" stroke="#63b8ff" points="666.34,-414.32 673.97,-406.96 663.42,-407.96 666.34,-414.32"/>
</g>
<!-- Node8&#45;&gt;Node12 -->
<g id="edge22" class="edge">
<title>Node8&#45;&gt;Node12</title>
<path fill="none" stroke="#63b8ff" d="M564.82,-446.61C581.82,-425.34 614.2,-388.05 649,-364.88 650.78,-363.69 652.62,-362.55 654.51,-361.45"/>
<polygon fill="#63b8ff" stroke="#63b8ff" points="655.72,-364.77 662.92,-356.99 652.44,-358.58 655.72,-364.77"/>
</g>
<!-- Node9&#45;&gt;Node2 -->
<g id="edge14" class="edge">
<title>Node9&#45;&gt;Node2</title>
<path fill="none" stroke="#63b8ff" d="M757.22,-461.53C763.81,-457.75 770.1,-453.23 775.25,-447.88 828.42,-392.54 854.34,-302.58 864.54,-257.48"/>
<polygon fill="#63b8ff" stroke="#63b8ff" points="867.95,-258.27 866.64,-247.75 861.11,-256.79 867.95,-258.27"/>
</g>
<!-- Node9&#45;&gt;Node10 -->
<g id="edge15" class="edge">
<title>Node9&#45;&gt;Node10</title>
<path fill="none" stroke="#63b8ff" d="M771.54,-461.49C780.97,-458.85 790.81,-456.09 800.48,-453.38"/>
<polygon fill="#63b8ff" stroke="#63b8ff" points="801.13,-456.83 809.82,-450.76 799.24,-450.09 801.13,-456.83"/>
</g>
<!-- Node10&#45;&gt;Node4 -->
<g id="edge16" class="edge">
<title>Node10&#45;&gt;Node4</title>
<path fill="none" stroke="#63b8ff" d="M903.3,-450.26C929.27,-463.84 966.41,-483.27 994.86,-498.15"/>
<polygon fill="#63b8ff" stroke="#63b8ff" points="993.08,-501.18 1003.57,-502.71 996.33,-494.97 993.08,-501.18"/>
</g>
<!-- Node10&#45;&gt;Node7 -->
<g id="edge17" class="edge">
<title>Node10&#45;&gt;Node7</title>
<path fill="none" stroke="#63b8ff" d="M902.92,-417.51C929.01,-403.7 966.58,-383.82 995.21,-368.66"/>
<polygon fill="#63b8ff" stroke="#63b8ff" points="996.78,-371.79 1003.98,-364.02 993.5,-365.61 996.78,-371.79"/>
</g>
<!-- Node11&#45;&gt;Node2 -->
<g id="edge20" class="edge">
<title>Node11&#45;&gt;Node2</title>
<path fill="none" stroke="#63b8ff" d="M762.13,-373.38C766.78,-370.88 771.24,-368.06 775.25,-364.88 812.81,-335.08 841.77,-286.51 857.31,-256.47"/>
<polygon fill="#63b8ff" stroke="#63b8ff" points="860.38,-258.17 861.74,-247.66 854.12,-255.02 860.38,-258.17"/>
</g>
<!-- Node11&#45;&gt;Node10 -->
<g id="edge21" class="edge">
<title>Node11&#45;&gt;Node10</title>
<path fill="none" stroke="#63b8ff" d="M771.54,-406.26C780.97,-408.91 790.81,-411.67 800.48,-414.38"/>
<polygon fill="#63b8ff" stroke="#63b8ff" points="799.24,-417.67 809.82,-417 801.13,-410.93 799.24,-417.67"/>
</g>
<!-- Node13&#45;&gt;Node2 -->
<g id="edge25" class="edge">
<title>Node13&#45;&gt;Node2</title>
<path fill="none" stroke="#63b8ff" d="M449.73,-238.44C462.78,-235.15 476.67,-232.04 489.75,-229.88 615.04,-209.12 648.5,-209.88 775.25,-217.88 783.21,-218.38 791.53,-219.12 799.79,-219.98"/>
<polygon fill="#63b8ff" stroke="#63b8ff" points="799.14,-223.43 809.47,-221.07 799.92,-216.48 799.14,-223.43"/>
</g>
<!-- Node13&#45;&gt;Node3 -->
<g id="edge37" class="edge">
<title>Node13&#45;&gt;Node3</title>
<path fill="none" stroke="#63b8ff" d="M351.3,-271.36C337.47,-275.67 321.43,-280.24 305.54,-284.43"/>
<polygon fill="#63b8ff" stroke="#63b8ff" points="304.86,-280.99 296.06,-286.88 306.62,-287.76 304.86,-280.99"/>
</g>
<!-- Node13&#45;&gt;Node14 -->
<g id="edge26" class="edge">
<title>Node13&#45;&gt;Node14</title>
<path fill="none" stroke="#63b8ff" d="M453.92,-254.88C462.18,-254.88 470.72,-254.88 479.14,-254.88"/>
<polygon fill="#63b8ff" stroke="#63b8ff" points="479,-258.38 489,-254.88 479,-251.38 479,-258.38"/>
</g>
<!-- Node14&#45;&gt;Node2 -->
<g id="edge29" class="edge">
<title>Node14&#45;&gt;Node2</title>
<path fill="none" stroke="#63b8ff" d="M598.97,-238.5C614.66,-233.76 632.4,-229.23 649,-226.88 699.04,-219.77 756.1,-220.77 799.71,-223.42"/>
<polygon fill="#63b8ff" stroke="#63b8ff" points="799.34,-226.9 809.55,-224.06 799.8,-219.92 799.34,-226.9"/>
</g>
<!-- Node14&#45;&gt;Node4 -->
<g id="edge27" class="edge">
<title>Node14&#45;&gt;Node4</title>
<path fill="none" stroke="#63b8ff" d="M580.86,-238.47C649.49,-201.33 826.09,-120.38 930.75,-204.88 989.83,-252.57 942.43,-299.95 966.75,-371.88 981.73,-416.2 1006.27,-464.78 1021.86,-493.77"/>
<polygon fill="#63b8ff" stroke="#63b8ff" points="1018.59,-495.08 1026.44,-502.19 1024.74,-491.74 1018.59,-495.08"/>
</g>
<!-- Node14&#45;&gt;Node7 -->
<g id="edge28" class="edge">
<title>Node14&#45;&gt;Node7</title>
<path fill="none" stroke="#63b8ff" d="M557.99,-238.77C569.54,-208.47 599.13,-143.73 649,-117.88 760.17,-60.24 825.28,-50.38 930.75,-117.88 1001.44,-163.12 1025.49,-269.01 1033.11,-319.35"/>
<polygon fill="#63b8ff" stroke="#63b8ff" points="1029.62,-319.69 1034.47,-329.11 1036.56,-318.72 1029.62,-319.69"/>
</g>
<!-- Node14&#45;&gt;Node10 -->
<g id="edge36" class="edge">
<title>Node14&#45;&gt;Node10</title>
<path fill="none" stroke="#63b8ff" d="M612.16,-268.93C673.37,-283.64 761.47,-305.84 775.25,-314.88 811.31,-338.54 839.92,-380.44 855.92,-407.68"/>
<polygon fill="#63b8ff" stroke="#63b8ff" points="852.87,-409.4 860.86,-416.36 858.95,-405.94 852.87,-409.4"/>
</g>
<!-- Node14&#45;&gt;Node11 -->
<g id="edge31" class="edge">
<title>Node14&#45;&gt;Node11</title>
<path fill="none" stroke="#63b8ff" d="M562.99,-271.21C579.06,-294.79 611.66,-338.43 649,-364.88 650.53,-365.96 652.12,-367.01 653.75,-368.02"/>
<polygon fill="#63b8ff" stroke="#63b8ff" points="651.67,-370.87 662.11,-372.67 655.07,-364.75 651.67,-370.87"/>
</g>
<!-- Node14&#45;&gt;Node12 -->
<g id="edge35" class="edge">
<title>Node14&#45;&gt;Node12</title>
<path fill="none" stroke="#63b8ff" d="M580.01,-271.27C599.18,-282.48 625.42,-297.49 649,-309.88 654.43,-312.73 660.18,-315.65 665.9,-318.48"/>
<polygon fill="#63b8ff" stroke="#63b8ff" points="664.21,-321.55 674.73,-322.8 667.29,-315.26 664.21,-321.55"/>
</g>
<!-- Node14&#45;&gt;Node14 -->
<g id="edge30" class="edge">
<title>Node14&#45;&gt;Node14</title>
<path fill="none" stroke="#63b8ff" d="M522.94,-271.32C517.64,-280.46 527.11,-288.88 551.38,-288.88 564.64,-288.88 573.49,-286.36 577.91,-282.58"/>
<polygon fill="#63b8ff" stroke="#63b8ff" points="581.35,-283.25 579.55,-272.81 574.45,-282.09 581.35,-283.25"/>
</g>
<!-- Node15 -->
<g id="node15" class="node">
<title>Node15</title>
<g id="a_node15"><a xlink:href="a01995.html#a540919db22df36512f05a88945c13263" target="_top" xlink:title="create a string by reading characters from the input">
<polygon fill="white" stroke="#666666" points="771.88,-267.88 652.38,-267.88 652.38,-235.88 771.88,-235.88 771.88,-267.88"/>
<text xml:space="preserve" text-anchor="start" x="660.38" y="-254.38" font-family="Helvetica,sans-Serif" font-size="10.00">nlohmann::detail::binary</text>
<text xml:space="preserve" text-anchor="middle" x="712.12" y="-242.38" font-family="Helvetica,sans-Serif" font-size="10.00">_reader::get_string</text>
</a>
</g>
</g>
<!-- Node14&#45;&gt;Node15 -->
<g id="edge32" class="edge">
<title>Node14&#45;&gt;Node15</title>
<path fill="none" stroke="#63b8ff" d="M611.94,-253.75C621.36,-253.57 631.18,-253.39 640.82,-253.21"/>
<polygon fill="#63b8ff" stroke="#63b8ff" points="640.57,-256.71 650.51,-253.02 640.44,-249.71 640.57,-256.71"/>
</g>
<!-- Node15&#45;&gt;Node2 -->
<g id="edge33" class="edge">
<title>Node15&#45;&gt;Node2</title>
<path fill="none" stroke="#63b8ff" d="M771.99,-243.62C781.01,-242.36 790.4,-241.04 799.65,-239.74"/>
<polygon fill="#63b8ff" stroke="#63b8ff" points="799.89,-243.24 809.31,-238.39 798.92,-236.31 799.89,-243.24"/>
</g>
<!-- Node15&#45;&gt;Node10 -->
<g id="edge34" class="edge">
<title>Node15&#45;&gt;Node10</title>
<path fill="none" stroke="#63b8ff" d="M755.59,-268.37C762.6,-272.18 769.46,-276.68 775.25,-281.88 815.16,-317.71 844.31,-374.27 859.07,-407.35"/>
<polygon fill="#63b8ff" stroke="#63b8ff" points="855.73,-408.44 862.92,-416.22 862.15,-405.65 855.73,-408.44"/>
</g>
</g>
</svg>
