<?xml version="1.0" encoding="UTF-8" standalone="no"?>
<!DOCTYPE svg PUBLIC "-//W3C//DTD SVG 1.1//EN"
 "http://www.w3.org/Graphics/SVG/1.1/DTD/svg11.dtd">
<!-- Generated by graphviz version 13.1.2 (20250808.2320)
 -->
<!-- Title: nlohmann::detail::lexer::unget Pages: 1 -->
<svg width="423pt" height="140pt"
 viewBox="0.00 0.00 423.00 140.00" xmlns="http://www.w3.org/2000/svg" xmlns:xlink="http://www.w3.org/1999/xlink">
<g id="graph0" class="graph" transform="scale(1 1) rotate(0) translate(4 136)">
<title>nlohmann::detail::lexer::unget</title>
<!-- Node1 -->
<g id="node1" class="node">
<title>Node1</title>
<g id="a_node1"><a xlink:title="unget current character (read it again on next get)">
<polygon fill="#999999" stroke="#666666" points="414.75,-82 300.5,-82 300.5,-50 414.75,-50 414.75,-82"/>
<text xml:space="preserve" text-anchor="start" x="308.5" y="-68.5" font-family="Helvetica,sans-Serif" font-size="10.00">nlohmann::detail::lexer</text>
<text xml:space="preserve" text-anchor="middle" x="357.62" y="-56.5" font-family="Helvetica,sans-Serif" font-size="10.00">::unget</text>
</a>
</g>
</g>
<!-- Node2 -->
<g id="node2" class="node">
<title>Node2</title>
<g id="a_node2"><a xlink:href="a01983.html#afdc68706ad20be93977cd0f97043ea7f" target="_top" xlink:title="scan a comment">
<polygon fill="white" stroke="#666666" points="264.5,-132 150.25,-132 150.25,-100 264.5,-100 264.5,-132"/>
<text xml:space="preserve" text-anchor="start" x="158.25" y="-118.5" font-family="Helvetica,sans-Serif" font-size="10.00">nlohmann::detail::lexer</text>
<text xml:space="preserve" text-anchor="middle" x="207.38" y="-106.5" font-family="Helvetica,sans-Serif" font-size="10.00">::scan_comment</text>
</a>
</g>
</g>
<!-- Node1&#45;&gt;Node2 -->
<g id="edge1" class="edge">
<title>Node1&#45;&gt;Node2</title>
<path fill="none" stroke="#63b8ff" d="M297.55,-85.92C284.2,-90.43 270.16,-95.16 257.28,-99.51"/>
<polygon fill="#63b8ff" stroke="#63b8ff" points="298.29,-89.37 306.65,-82.86 296.05,-82.73 298.29,-89.37"/>
</g>
<!-- Node4 -->
<g id="node4" class="node">
<title>Node4</title>
<g id="a_node4"><a xlink:href="a01983.html#aab51a28e32c1957329141baff8eda1c4" target="_top" xlink:title="scan a number literal">
<polygon fill="white" stroke="#666666" points="264.5,-82 150.25,-82 150.25,-50 264.5,-50 264.5,-82"/>
<text xml:space="preserve" text-anchor="start" x="158.25" y="-68.5" font-family="Helvetica,sans-Serif" font-size="10.00">nlohmann::detail::lexer</text>
<text xml:space="preserve" text-anchor="middle" x="207.38" y="-56.5" font-family="Helvetica,sans-Serif" font-size="10.00">::scan_number</text>
</a>
</g>
</g>
<!-- Node1&#45;&gt;Node4 -->
<g id="edge3" class="edge">
<title>Node1&#45;&gt;Node4</title>
<path fill="none" stroke="#63b8ff" d="M288.84,-66C280.76,-66 272.58,-66 264.69,-66"/>
<polygon fill="#63b8ff" stroke="#63b8ff" points="288.64,-69.5 298.64,-66 288.64,-62.5 288.64,-69.5"/>
</g>
<!-- Node5 -->
<g id="node5" class="node">
<title>Node5</title>
<g id="a_node5"><a xlink:href="a01983.html#a7cd7d55de2cd398660bc243c7229caf9" target="_top" xlink:title="skip the UTF&#45;8 byte order mark">
<polygon fill="white" stroke="#666666" points="264.5,-32 150.25,-32 150.25,0 264.5,0 264.5,-32"/>
<text xml:space="preserve" text-anchor="start" x="158.25" y="-18.5" font-family="Helvetica,sans-Serif" font-size="10.00">nlohmann::detail::lexer</text>
<text xml:space="preserve" text-anchor="middle" x="207.38" y="-6.5" font-family="Helvetica,sans-Serif" font-size="10.00">::skip_bom</text>
</a>
</g>
</g>
<!-- Node1&#45;&gt;Node5 -->
<g id="edge5" class="edge">
<title>Node1&#45;&gt;Node5</title>
<path fill="none" stroke="#63b8ff" d="M297.55,-46.08C284.2,-41.57 270.16,-36.84 257.28,-32.49"/>
<polygon fill="#63b8ff" stroke="#63b8ff" points="296.05,-49.27 306.65,-49.14 298.29,-42.63 296.05,-49.27"/>
</g>
<!-- Node3 -->
<g id="node3" class="node">
<title>Node3</title>
<g id="a_node3"><a xlink:href="a01983.html#a40320a8fef5f1f03b60c8b2f2f40af4d" target="_top" xlink:title=" ">
<polygon fill="white" stroke="#666666" points="114.25,-82 0,-82 0,-50 114.25,-50 114.25,-82"/>
<text xml:space="preserve" text-anchor="start" x="8" y="-68.5" font-family="Helvetica,sans-Serif" font-size="10.00">nlohmann::detail::lexer</text>
<text xml:space="preserve" text-anchor="middle" x="57.13" y="-56.5" font-family="Helvetica,sans-Serif" font-size="10.00">::scan</text>
</a>
</g>
</g>
<!-- Node2&#45;&gt;Node3 -->
<g id="edge2" class="edge">
<title>Node2&#45;&gt;Node3</title>
<path fill="none" stroke="#63b8ff" d="M147.3,-96.08C133.95,-91.57 119.91,-86.84 107.03,-82.49"/>
<polygon fill="#63b8ff" stroke="#63b8ff" points="145.8,-99.27 156.4,-99.14 148.04,-92.63 145.8,-99.27"/>
</g>
<!-- Node4&#45;&gt;Node3 -->
<g id="edge4" class="edge">
<title>Node4&#45;&gt;Node3</title>
<path fill="none" stroke="#63b8ff" d="M138.59,-66C130.51,-66 122.33,-66 114.44,-66"/>
<polygon fill="#63b8ff" stroke="#63b8ff" points="138.39,-69.5 148.39,-66 138.39,-62.5 138.39,-69.5"/>
</g>
<!-- Node5&#45;&gt;Node3 -->
<g id="edge6" class="edge">
<title>Node5&#45;&gt;Node3</title>
<path fill="none" stroke="#63b8ff" d="M147.3,-35.92C133.95,-40.43 119.91,-45.16 107.03,-49.51"/>
<polygon fill="#63b8ff" stroke="#63b8ff" points="148.04,-39.37 156.4,-32.86 145.8,-32.73 148.04,-39.37"/>
</g>
</g>
</svg>
