<?xml version="1.0" encoding="UTF-8" standalone="no"?>
<!DOCTYPE svg PUBLIC "-//W3C//DTD SVG 1.1//EN"
 "http://www.w3.org/Graphics/SVG/1.1/DTD/svg11.dtd">
<!-- Generated by graphviz version 13.1.2 (20250808.2320)
 -->
<!-- Title: nlohmann::detail::binary_reader::get_bson_string Pages: 1 -->
<svg width="798pt" height="225pt"
 viewBox="0.00 0.00 798.00 225.00" xmlns="http://www.w3.org/2000/svg" xmlns:xlink="http://www.w3.org/1999/xlink">
<g id="graph0" class="graph" transform="scale(1 1) rotate(0) translate(4 221)">
<title>nlohmann::detail::binary_reader::get_bson_string</title>
<!-- Node1 -->
<g id="node1" class="node">
<title>Node1</title>
<g id="a_node1"><a xlink:title="Parses a zero&#45;terminated string of length len from the BSON input.">
<polygon fill="#999999" stroke="#666666" points="123.25,-117 0,-117 0,-85 123.25,-85 123.25,-117"/>
<text xml:space="preserve" text-anchor="start" x="8" y="-103.5" font-family="Helvetica,sans-Serif" font-size="10.00">nlohmann::detail::binary</text>
<text xml:space="preserve" text-anchor="middle" x="61.62" y="-91.5" font-family="Helvetica,sans-Serif" font-size="10.00">_reader::get_bson_string</text>
</a>
</g>
</g>
<!-- Node2 -->
<g id="node2" class="node">
<title>Node2</title>
<g id="a_node2"><a xlink:href="a01563.html#a137ea4d27de45d8a844fd13451d40f3d" target="_top" xlink:title="create a parse error exception">
<polygon fill="white" stroke="#666666" points="606.25,-192 489,-192 489,-160 606.25,-160 606.25,-192"/>
<text xml:space="preserve" text-anchor="start" x="497" y="-178.5" font-family="Helvetica,sans-Serif" font-size="10.00">nlohmann::detail::parse</text>
<text xml:space="preserve" text-anchor="middle" x="547.62" y="-166.5" font-family="Helvetica,sans-Serif" font-size="10.00">_error::create</text>
</a>
</g>
</g>
<!-- Node1&#45;&gt;Node2 -->
<g id="edge1" class="edge">
<title>Node1&#45;&gt;Node2</title>
<path fill="none" stroke="#63b8ff" d="M79.06,-117.29C97.04,-133.94 127.55,-158.87 159.25,-170 265.25,-207.23 397.84,-198.43 477.2,-187.82"/>
<polygon fill="#63b8ff" stroke="#63b8ff" points="477.59,-191.3 487.01,-186.45 476.62,-184.36 477.59,-191.3"/>
</g>
<!-- Node5 -->
<g id="node5" class="node">
<title>Node5</title>
<g id="a_node5"><a xlink:href="a01995.html#a9c413c9a1bade1ce345740f4d69156f0" target="_top" xlink:title=" ">
<polygon fill="white" stroke="#666666" points="618.25,-120 477,-120 477,-88 618.25,-88 618.25,-120"/>
<text xml:space="preserve" text-anchor="start" x="485" y="-106.5" font-family="Helvetica,sans-Serif" font-size="10.00">nlohmann::detail::binary</text>
<text xml:space="preserve" text-anchor="middle" x="547.62" y="-94.5" font-family="Helvetica,sans-Serif" font-size="10.00">_reader::exception_message</text>
</a>
</g>
</g>
<!-- Node1&#45;&gt;Node5 -->
<g id="edge4" class="edge">
<title>Node1&#45;&gt;Node5</title>
<path fill="none" stroke="#63b8ff" d="M123.43,-90.97C198.34,-80.11 329.4,-65.97 441,-79 452.63,-80.36 464.84,-82.53 476.66,-85.04"/>
<polygon fill="#63b8ff" stroke="#63b8ff" points="475.84,-88.44 486.36,-87.21 477.37,-81.61 475.84,-88.44"/>
</g>
<!-- Node6 -->
<g id="node6" class="node">
<title>Node6</title>
<g id="a_node6"><a xlink:href="a01995.html#ad222095c0b21a87824cb10629299629a" target="_top" xlink:title="get next character from the input">
<polygon fill="white" stroke="#666666" points="441,-120 321.5,-120 321.5,-88 441,-88 441,-120"/>
<text xml:space="preserve" text-anchor="start" x="329.5" y="-106.5" font-family="Helvetica,sans-Serif" font-size="10.00">nlohmann::detail::binary</text>
<text xml:space="preserve" text-anchor="middle" x="381.25" y="-94.5" font-family="Helvetica,sans-Serif" font-size="10.00">_reader::get</text>
</a>
</g>
</g>
<!-- Node1&#45;&gt;Node6 -->
<g id="edge5" class="edge">
<title>Node1&#45;&gt;Node6</title>
<path fill="none" stroke="#63b8ff" d="M123.49,-101.57C176.74,-102.08 254.1,-102.81 309.98,-103.34"/>
<polygon fill="#63b8ff" stroke="#63b8ff" points="309.66,-106.83 319.69,-103.43 309.72,-99.83 309.66,-106.83"/>
</g>
<!-- Node7 -->
<g id="node7" class="node">
<title>Node7</title>
<g id="a_node7"><a xlink:href="a01995.html#a540919db22df36512f05a88945c13263" target="_top" xlink:title="create a string by reading characters from the input">
<polygon fill="white" stroke="#666666" points="282.12,-161 162.62,-161 162.62,-129 282.12,-129 282.12,-161"/>
<text xml:space="preserve" text-anchor="start" x="170.62" y="-147.5" font-family="Helvetica,sans-Serif" font-size="10.00">nlohmann::detail::binary</text>
<text xml:space="preserve" text-anchor="middle" x="222.38" y="-135.5" font-family="Helvetica,sans-Serif" font-size="10.00">_reader::get_string</text>
</a>
</g>
</g>
<!-- Node1&#45;&gt;Node7 -->
<g id="edge6" class="edge">
<title>Node1&#45;&gt;Node7</title>
<path fill="none" stroke="#63b8ff" d="M121.74,-117.38C131.35,-120.05 141.38,-122.83 151.22,-125.55"/>
<polygon fill="#63b8ff" stroke="#63b8ff" points="150.18,-128.9 160.75,-128.2 152.05,-122.15 150.18,-128.9"/>
</g>
<!-- Node9 -->
<g id="node9" class="node">
<title>Node9</title>
<g id="a_node9"><a xlink:href="a01995.html#a7d323283c60a0b89ee5eeadf5cb9a5ad" target="_top" xlink:title=" ">
<polygon fill="white" stroke="#666666" points="285.5,-32 159.25,-32 159.25,0 285.5,0 285.5,-32"/>
<text xml:space="preserve" text-anchor="start" x="167.25" y="-18.5" font-family="Helvetica,sans-Serif" font-size="10.00">nlohmann::detail::binary</text>
<text xml:space="preserve" text-anchor="middle" x="222.38" y="-6.5" font-family="Helvetica,sans-Serif" font-size="10.00">_reader::get_token_string</text>
</a>
</g>
</g>
<!-- Node1&#45;&gt;Node9 -->
<g id="edge11" class="edge">
<title>Node1&#45;&gt;Node9</title>
<path fill="none" stroke="#63b8ff" d="M90.26,-84.61C109.43,-73.4 135.67,-58.39 159.25,-46 164.68,-43.15 170.43,-40.23 176.15,-37.4"/>
<polygon fill="#63b8ff" stroke="#63b8ff" points="177.54,-40.61 184.98,-33.07 174.46,-34.33 177.54,-40.61"/>
</g>
<!-- Node3 -->
<g id="node3" class="node">
<title>Node3</title>
<g id="a_node3"><a xlink:href="a01559.html#abf41a7e9178356314082284e6cfea278" target="_top" xlink:title=" ">
<polygon fill="white" stroke="#666666" points="789.5,-217 654.25,-217 654.25,-185 789.5,-185 789.5,-217"/>
<text xml:space="preserve" text-anchor="start" x="662.25" y="-203.5" font-family="Helvetica,sans-Serif" font-size="10.00">nlohmann::detail::exception</text>
<text xml:space="preserve" text-anchor="middle" x="721.88" y="-191.5" font-family="Helvetica,sans-Serif" font-size="10.00">::name</text>
</a>
</g>
</g>
<!-- Node2&#45;&gt;Node3 -->
<g id="edge2" class="edge">
<title>Node2&#45;&gt;Node3</title>
<path fill="none" stroke="#63b8ff" d="M606.46,-184.39C618.13,-186.09 630.59,-187.9 642.82,-189.67"/>
<polygon fill="#63b8ff" stroke="#63b8ff" points="642.07,-193.1 652.47,-191.07 643.08,-186.17 642.07,-193.1"/>
</g>
<!-- Node4 -->
<g id="node4" class="node">
<title>Node4</title>
<g id="a_node4"><a xlink:href="a01563.html#aefe74adeaa48781464ba2fd2ec63d221" target="_top" xlink:title=" ">
<polygon fill="white" stroke="#666666" points="780.5,-167 663.25,-167 663.25,-135 780.5,-135 780.5,-167"/>
<text xml:space="preserve" text-anchor="start" x="671.25" y="-153.5" font-family="Helvetica,sans-Serif" font-size="10.00">nlohmann::detail::parse</text>
<text xml:space="preserve" text-anchor="middle" x="721.88" y="-141.5" font-family="Helvetica,sans-Serif" font-size="10.00">_error::position_string</text>
</a>
</g>
</g>
<!-- Node2&#45;&gt;Node4 -->
<g id="edge3" class="edge">
<title>Node2&#45;&gt;Node4</title>
<path fill="none" stroke="#63b8ff" d="M606.46,-167.61C620.95,-165.5 636.63,-163.23 651.61,-161.05"/>
<polygon fill="#63b8ff" stroke="#63b8ff" points="652.01,-164.53 661.4,-159.63 651,-157.6 652.01,-164.53"/>
</g>
<!-- Node7&#45;&gt;Node6 -->
<g id="edge7" class="edge">
<title>Node7&#45;&gt;Node6</title>
<path fill="none" stroke="#63b8ff" d="M282.24,-129.62C291.36,-127.23 300.86,-124.75 310.2,-122.31"/>
<polygon fill="#63b8ff" stroke="#63b8ff" points="310.8,-125.77 319.59,-119.85 309.03,-118.99 310.8,-125.77"/>
</g>
<!-- Node8 -->
<g id="node8" class="node">
<title>Node8</title>
<g id="a_node8"><a xlink:href="a01995.html#a61a0bd8bbe7b560bd429fa990ba3ba1a" target="_top" xlink:title=" ">
<polygon fill="white" stroke="#666666" points="441,-170 321.5,-170 321.5,-138 441,-138 441,-170"/>
<text xml:space="preserve" text-anchor="start" x="329.5" y="-156.5" font-family="Helvetica,sans-Serif" font-size="10.00">nlohmann::detail::binary</text>
<text xml:space="preserve" text-anchor="middle" x="381.25" y="-144.5" font-family="Helvetica,sans-Serif" font-size="10.00">_reader::unexpect_eof</text>
</a>
</g>
</g>
<!-- Node7&#45;&gt;Node8 -->
<g id="edge8" class="edge">
<title>Node7&#45;&gt;Node8</title>
<path fill="none" stroke="#63b8ff" d="M282.24,-148.38C291.16,-148.89 300.45,-149.42 309.59,-149.95"/>
<polygon fill="#63b8ff" stroke="#63b8ff" points="309.36,-153.44 319.55,-150.52 309.77,-146.45 309.36,-153.44"/>
</g>
<!-- Node8&#45;&gt;Node2 -->
<g id="edge9" class="edge">
<title>Node8&#45;&gt;Node2</title>
<path fill="none" stroke="#63b8ff" d="M441.13,-161.88C452.86,-163.45 465.28,-165.11 477.32,-166.72"/>
<polygon fill="#63b8ff" stroke="#63b8ff" points="476.83,-170.19 487.21,-168.05 477.76,-163.25 476.83,-170.19"/>
</g>
<!-- Node8&#45;&gt;Node5 -->
<g id="edge10" class="edge">
<title>Node8&#45;&gt;Node5</title>
<path fill="none" stroke="#63b8ff" d="M436.07,-137.63C450.61,-133.2 466.51,-128.37 481.59,-123.78"/>
<polygon fill="#63b8ff" stroke="#63b8ff" points="482.4,-127.19 490.95,-120.93 480.37,-120.5 482.4,-127.19"/>
</g>
</g>
</svg>
