<?xml version="1.0" encoding="UTF-8" standalone="no"?>
<!DOCTYPE svg PUBLIC "-//W3C//DTD SVG 1.1//EN"
 "http://www.w3.org/Graphics/SVG/1.1/DTD/svg11.dtd">
<!-- Generated by graphviz version 13.1.2 (20250808.2320)
 -->
<!-- Title: nlohmann::detail::binary_reader::parse_bson_element_list Pages: 1 -->
<svg width="1194pt" height="599pt"
 viewBox="0.00 0.00 1194.00 599.00" xmlns="http://www.w3.org/2000/svg" xmlns:xlink="http://www.w3.org/1999/xlink">
<g id="graph0" class="graph" transform="scale(1 1) rotate(0) translate(4 594.94)">
<title>nlohmann::detail::binary_reader::parse_bson_element_list</title>
<!-- Node1 -->
<g id="node1" class="node">
<title>Node1</title>
<g id="a_node1"><a xlink:title="Read a BSON element list (as specified in the BSON&#45;spec)">
<polygon fill="#999999" stroke="#666666" points="162.25,-318 0,-318 0,-286 162.25,-286 162.25,-318"/>
<text xml:space="preserve" text-anchor="start" x="8" y="-304.5" font-family="Helvetica,sans-Serif" font-size="10.00">nlohmann::detail::binary</text>
<text xml:space="preserve" text-anchor="middle" x="81.12" y="-292.5" font-family="Helvetica,sans-Serif" font-size="10.00">_reader::parse_bson_element_list</text>
</a>
</g>
</g>
<!-- Node2 -->
<g id="node2" class="node">
<title>Node2</title>
<g id="a_node2"><a xlink:href="a01995.html#ad222095c0b21a87824cb10629299629a" target="_top" xlink:title="get next character from the input">
<polygon fill="white" stroke="#666666" points="837.5,-365 718,-365 718,-333 837.5,-333 837.5,-365"/>
<text xml:space="preserve" text-anchor="start" x="726" y="-351.5" font-family="Helvetica,sans-Serif" font-size="10.00">nlohmann::detail::binary</text>
<text xml:space="preserve" text-anchor="middle" x="777.75" y="-339.5" font-family="Helvetica,sans-Serif" font-size="10.00">_reader::get</text>
</a>
</g>
</g>
<!-- Node1&#45;&gt;Node2 -->
<g id="edge1" class="edge">
<title>Node1&#45;&gt;Node2</title>
<path fill="none" stroke="#63b8ff" d="M135.06,-318.48C221.86,-344.56 400.39,-394.2 555.75,-412 611.5,-418.39 630.45,-434.17 682,-412 703.37,-402.81 698.9,-387.28 718,-374 719.56,-372.91 721.18,-371.86 722.84,-370.84"/>
<polygon fill="#63b8ff" stroke="#63b8ff" points="724.33,-374.02 731.37,-366.1 720.92,-367.9 724.33,-374.02"/>
</g>
<!-- Node3 -->
<g id="node3" class="node">
<title>Node3</title>
<g id="a_node3"><a xlink:href="a01995.html#a354cbbaaea672c024ac949e1801c4302" target="_top" xlink:title="Parses a C&#45;style string from the BSON input.">
<polygon fill="white" stroke="#666666" points="678.62,-510 559.12,-510 559.12,-478 678.62,-478 678.62,-510"/>
<text xml:space="preserve" text-anchor="start" x="567.12" y="-496.5" font-family="Helvetica,sans-Serif" font-size="10.00">nlohmann::detail::binary</text>
<text xml:space="preserve" text-anchor="middle" x="618.88" y="-484.5" font-family="Helvetica,sans-Serif" font-size="10.00">_reader::get_bson_cstr</text>
</a>
</g>
</g>
<!-- Node1&#45;&gt;Node3 -->
<g id="edge2" class="edge">
<title>Node1&#45;&gt;Node3</title>
<path fill="none" stroke="#63b8ff" d="M88.2,-318.28C101.88,-352.33 138.61,-430.63 198.25,-464 308.01,-525.41 459.98,-517.78 547.71,-506.2"/>
<polygon fill="#63b8ff" stroke="#63b8ff" points="547.94,-509.7 557.36,-504.87 546.98,-502.77 547.94,-509.7"/>
</g>
<!-- Node4 -->
<g id="node4" class="node">
<title>Node4</title>
<g id="a_node4"><a xlink:href="a01995.html#a61a0bd8bbe7b560bd429fa990ba3ba1a" target="_top" xlink:title=" ">
<polygon fill="white" stroke="#666666" points="837.5,-415 718,-415 718,-383 837.5,-383 837.5,-415"/>
<text xml:space="preserve" text-anchor="start" x="726" y="-401.5" font-family="Helvetica,sans-Serif" font-size="10.00">nlohmann::detail::binary</text>
<text xml:space="preserve" text-anchor="middle" x="777.75" y="-389.5" font-family="Helvetica,sans-Serif" font-size="10.00">_reader::unexpect_eof</text>
</a>
</g>
</g>
<!-- Node1&#45;&gt;Node4 -->
<g id="edge31" class="edge">
<title>Node1&#45;&gt;Node4</title>
<path fill="none" stroke="#63b8ff" d="M86.41,-318.48C97.49,-357.45 131.03,-455.35 198.25,-500 377.47,-619.06 489.84,-615.8 682,-519 721.52,-499.09 749.75,-454.23 764.63,-425.35"/>
<polygon fill="#63b8ff" stroke="#63b8ff" points="767.71,-427.02 769.01,-416.51 761.44,-423.92 767.71,-427.02"/>
</g>
<!-- Node9 -->
<g id="node9" class="node">
<title>Node9</title>
<g id="a_node9"><a xlink:href="a01995.html#a23bde2450d7a5772bf5051e36ff560a4" target="_top" xlink:title="Read a BSON document element of the given element_type.">
<polygon fill="white" stroke="#666666" points="342.5,-176 198.25,-176 198.25,-132 342.5,-132 342.5,-176"/>
<text xml:space="preserve" text-anchor="start" x="206.25" y="-162.5" font-family="Helvetica,sans-Serif" font-size="10.00">nlohmann::detail::binary</text>
<text xml:space="preserve" text-anchor="start" x="206.25" y="-150.5" font-family="Helvetica,sans-Serif" font-size="10.00">_reader::parse_bson_element</text>
<text xml:space="preserve" text-anchor="middle" x="270.38" y="-138.5" font-family="Helvetica,sans-Serif" font-size="10.00">_internal</text>
</a>
</g>
</g>
<!-- Node1&#45;&gt;Node9 -->
<g id="edge9" class="edge">
<title>Node1&#45;&gt;Node9</title>
<path fill="none" stroke="#63b8ff" d="M102.88,-285.6C134.09,-260.93 193.56,-213.92 232.33,-183.28"/>
<polygon fill="#63b8ff" stroke="#63b8ff" points="234.36,-186.13 240.04,-177.19 230.02,-180.64 234.36,-186.13"/>
</g>
<!-- Node3&#45;&gt;Node2 -->
<g id="edge3" class="edge">
<title>Node3&#45;&gt;Node2</title>
<path fill="none" stroke="#63b8ff" d="M664.42,-477.6C670.88,-473.84 677.02,-469.34 682,-464 711.39,-432.5 687.87,-404.79 718,-374 718.6,-373.39 719.21,-372.8 719.84,-372.21"/>
<polygon fill="#63b8ff" stroke="#63b8ff" points="721.73,-375.17 727.56,-366.33 717.49,-369.61 721.73,-375.17"/>
</g>
<!-- Node3&#45;&gt;Node4 -->
<g id="edge4" class="edge">
<title>Node3&#45;&gt;Node4</title>
<path fill="none" stroke="#63b8ff" d="M656.16,-477.62C664.77,-473.42 673.81,-468.75 682,-464 704.04,-451.22 727.68,-435.01 745.83,-421.97"/>
<polygon fill="#63b8ff" stroke="#63b8ff" points="747.51,-425.07 753.56,-416.37 743.41,-419.41 747.51,-425.07"/>
</g>
<!-- Node5 -->
<g id="node5" class="node">
<title>Node5</title>
<g id="a_node5"><a xlink:href="a01563.html#a137ea4d27de45d8a844fd13451d40f3d" target="_top" xlink:title="create a parse error exception">
<polygon fill="white" stroke="#666666" points="1002.75,-132 885.5,-132 885.5,-100 1002.75,-100 1002.75,-132"/>
<text xml:space="preserve" text-anchor="start" x="893.5" y="-118.5" font-family="Helvetica,sans-Serif" font-size="10.00">nlohmann::detail::parse</text>
<text xml:space="preserve" text-anchor="middle" x="944.12" y="-106.5" font-family="Helvetica,sans-Serif" font-size="10.00">_error::create</text>
</a>
</g>
</g>
<!-- Node4&#45;&gt;Node5 -->
<g id="edge5" class="edge">
<title>Node4&#45;&gt;Node5</title>
<path fill="none" stroke="#63b8ff" d="M827.27,-382.64C831.03,-380.14 834.52,-377.28 837.5,-374 872.98,-335.02 854.05,-309.99 873.5,-261 890.41,-218.43 914.24,-170.87 929.17,-142.21"/>
<polygon fill="#63b8ff" stroke="#63b8ff" points="932.18,-144.01 933.73,-133.53 925.98,-140.76 932.18,-144.01"/>
</g>
<!-- Node8 -->
<g id="node8" class="node">
<title>Node8</title>
<g id="a_node8"><a xlink:href="a01995.html#a9c413c9a1bade1ce345740f4d69156f0" target="_top" xlink:title=" ">
<polygon fill="white" stroke="#666666" points="1014.75,-302 873.5,-302 873.5,-270 1014.75,-270 1014.75,-302"/>
<text xml:space="preserve" text-anchor="start" x="881.5" y="-288.5" font-family="Helvetica,sans-Serif" font-size="10.00">nlohmann::detail::binary</text>
<text xml:space="preserve" text-anchor="middle" x="944.12" y="-276.5" font-family="Helvetica,sans-Serif" font-size="10.00">_reader::exception_message</text>
</a>
</g>
</g>
<!-- Node4&#45;&gt;Node8 -->
<g id="edge8" class="edge">
<title>Node4&#45;&gt;Node8</title>
<path fill="none" stroke="#63b8ff" d="M821.53,-382.55C827.03,-379.93 832.49,-377.06 837.5,-374 867.62,-355.6 898.18,-329.09 918.63,-309.99"/>
<polygon fill="#63b8ff" stroke="#63b8ff" points="920.8,-312.76 925.65,-303.34 915.98,-307.68 920.8,-312.76"/>
</g>
<!-- Node6 -->
<g id="node6" class="node">
<title>Node6</title>
<g id="a_node6"><a xlink:href="a01559.html#abf41a7e9178356314082284e6cfea278" target="_top" xlink:title=" ">
<polygon fill="white" stroke="#666666" points="1186,-157 1050.75,-157 1050.75,-125 1186,-125 1186,-157"/>
<text xml:space="preserve" text-anchor="start" x="1058.75" y="-143.5" font-family="Helvetica,sans-Serif" font-size="10.00">nlohmann::detail::exception</text>
<text xml:space="preserve" text-anchor="middle" x="1118.38" y="-131.5" font-family="Helvetica,sans-Serif" font-size="10.00">::name</text>
</a>
</g>
</g>
<!-- Node5&#45;&gt;Node6 -->
<g id="edge6" class="edge">
<title>Node5&#45;&gt;Node6</title>
<path fill="none" stroke="#63b8ff" d="M1002.96,-124.39C1014.63,-126.09 1027.09,-127.9 1039.32,-129.67"/>
<polygon fill="#63b8ff" stroke="#63b8ff" points="1038.57,-133.1 1048.97,-131.07 1039.58,-126.17 1038.57,-133.1"/>
</g>
<!-- Node7 -->
<g id="node7" class="node">
<title>Node7</title>
<g id="a_node7"><a xlink:href="a01563.html#aefe74adeaa48781464ba2fd2ec63d221" target="_top" xlink:title=" ">
<polygon fill="white" stroke="#666666" points="1177,-107 1059.75,-107 1059.75,-75 1177,-75 1177,-107"/>
<text xml:space="preserve" text-anchor="start" x="1067.75" y="-93.5" font-family="Helvetica,sans-Serif" font-size="10.00">nlohmann::detail::parse</text>
<text xml:space="preserve" text-anchor="middle" x="1118.38" y="-81.5" font-family="Helvetica,sans-Serif" font-size="10.00">_error::position_string</text>
</a>
</g>
</g>
<!-- Node5&#45;&gt;Node7 -->
<g id="edge7" class="edge">
<title>Node5&#45;&gt;Node7</title>
<path fill="none" stroke="#63b8ff" d="M1002.96,-107.61C1017.45,-105.5 1033.13,-103.23 1048.11,-101.05"/>
<polygon fill="#63b8ff" stroke="#63b8ff" points="1048.51,-104.53 1057.9,-99.63 1047.5,-97.6 1048.51,-104.53"/>
</g>
<!-- Node9&#45;&gt;Node2 -->
<g id="edge11" class="edge">
<title>Node9&#45;&gt;Node2</title>
<path fill="none" stroke="#63b8ff" d="M284.72,-176.26C303.06,-205.51 338.4,-257.23 378.5,-292 447,-351.4 468.1,-369.78 555.75,-393 609.99,-407.37 627.53,-406.49 682,-393 699.56,-388.65 701.66,-381.77 718,-374 720.86,-372.64 723.82,-371.27 726.81,-369.91"/>
<polygon fill="#63b8ff" stroke="#63b8ff" points="727.95,-373.24 735.66,-365.98 725.1,-366.84 727.95,-373.24"/>
</g>
<!-- Node9&#45;&gt;Node5 -->
<g id="edge10" class="edge">
<title>Node9&#45;&gt;Node5</title>
<path fill="none" stroke="#63b8ff" d="M342.96,-136.76C410.27,-120.4 503.14,-97.39 519.75,-91 536.64,-84.51 538.19,-76.35 555.75,-72 677.3,-41.89 714.71,-47.45 837.5,-72 859.85,-76.47 883.39,-85.77 902.56,-94.68"/>
<polygon fill="#63b8ff" stroke="#63b8ff" points="900.83,-97.73 911.36,-98.9 903.85,-91.42 900.83,-97.73"/>
</g>
<!-- Node10 -->
<g id="node10" class="node">
<title>Node10</title>
<g id="a_node10"><a xlink:href="a01995.html#a9940f56290b9278c58772eda2931e599" target="_top" xlink:title="Parses a byte array input of length len from the BSON input.">
<polygon fill="white" stroke="#666666" points="511.88,-170 386.38,-170 386.38,-138 511.88,-138 511.88,-170"/>
<text xml:space="preserve" text-anchor="start" x="394.38" y="-156.5" font-family="Helvetica,sans-Serif" font-size="10.00">nlohmann::detail::binary</text>
<text xml:space="preserve" text-anchor="middle" x="449.12" y="-144.5" font-family="Helvetica,sans-Serif" font-size="10.00">_reader::get_bson_binary</text>
</a>
</g>
</g>
<!-- Node9&#45;&gt;Node10 -->
<g id="edge12" class="edge">
<title>Node9&#45;&gt;Node10</title>
<path fill="none" stroke="#63b8ff" d="M342.76,-154C353.31,-154 364.2,-154 374.79,-154"/>
<polygon fill="#63b8ff" stroke="#63b8ff" points="374.63,-157.5 384.63,-154 374.63,-150.5 374.63,-157.5"/>
</g>
<!-- Node13 -->
<g id="node13" class="node">
<title>Node13</title>
<g id="a_node13"><a xlink:href="a01995.html#a23921422802aa472360dd05023e20565" target="_top" xlink:title="Parses a zero&#45;terminated string of length len from the BSON input.">
<polygon fill="white" stroke="#666666" points="510.75,-283 387.5,-283 387.5,-251 510.75,-251 510.75,-283"/>
<text xml:space="preserve" text-anchor="start" x="395.5" y="-269.5" font-family="Helvetica,sans-Serif" font-size="10.00">nlohmann::detail::binary</text>
<text xml:space="preserve" text-anchor="middle" x="449.12" y="-257.5" font-family="Helvetica,sans-Serif" font-size="10.00">_reader::get_bson_string</text>
</a>
</g>
</g>
<!-- Node9&#45;&gt;Node13 -->
<g id="edge19" class="edge">
<title>Node9&#45;&gt;Node13</title>
<path fill="none" stroke="#63b8ff" d="M306.3,-176.33C337.16,-196.06 381.96,-224.7 412.91,-244.49"/>
<polygon fill="#63b8ff" stroke="#63b8ff" points="410.86,-247.33 421.17,-249.76 414.63,-241.43 410.86,-247.33"/>
</g>
<!-- Node15 -->
<g id="node15" class="node">
<title>Node15</title>
<g id="a_node15"><a xlink:href="a01995.html#a23eb89a222e22533e9fd43e76722f44f" target="_top" xlink:title="Reads an array from the BSON input and passes it to the SAX&#45;parser.">
<polygon fill="white" stroke="#666666" points="514.88,-82 383.38,-82 383.38,-50 514.88,-50 514.88,-82"/>
<text xml:space="preserve" text-anchor="start" x="391.38" y="-68.5" font-family="Helvetica,sans-Serif" font-size="10.00">nlohmann::detail::binary</text>
<text xml:space="preserve" text-anchor="middle" x="449.12" y="-56.5" font-family="Helvetica,sans-Serif" font-size="10.00">_reader::parse_bson_array</text>
</a>
</g>
</g>
<!-- Node9&#45;&gt;Node15 -->
<g id="edge27" class="edge">
<title>Node9&#45;&gt;Node15</title>
<path fill="none" stroke="#63b8ff" d="M310.87,-131.52C330.91,-120.4 355.76,-107.03 378.5,-96 384.8,-92.95 391.48,-89.87 398.12,-86.91"/>
<polygon fill="#63b8ff" stroke="#63b8ff" points="399.31,-90.2 407.06,-82.98 396.5,-83.79 399.31,-90.2"/>
</g>
<!-- Node16 -->
<g id="node16" class="node">
<title>Node16</title>
<g id="a_node16"><a xlink:href="a01995.html#abf2051ba57d9ea9b378a2e7c14e22b34" target="_top" xlink:title="Reads in a BSON&#45;object and passes it to the SAX&#45;parser.">
<polygon fill="white" stroke="#666666" points="519.75,-32 378.5,-32 378.5,0 519.75,0 519.75,-32"/>
<text xml:space="preserve" text-anchor="start" x="386.5" y="-18.5" font-family="Helvetica,sans-Serif" font-size="10.00">nlohmann::detail::binary</text>
<text xml:space="preserve" text-anchor="middle" x="449.12" y="-6.5" font-family="Helvetica,sans-Serif" font-size="10.00">_reader::parse_bson_internal</text>
</a>
</g>
</g>
<!-- Node9&#45;&gt;Node16 -->
<g id="edge29" class="edge">
<title>Node9&#45;&gt;Node16</title>
<path fill="none" stroke="#63b8ff" d="M287.17,-131.92C306.22,-106.73 340.47,-65.83 378.5,-41 380.36,-39.79 382.28,-38.63 384.25,-37.51"/>
<polygon fill="#63b8ff" stroke="#63b8ff" points="385.74,-40.68 393.07,-33.03 382.57,-34.44 385.74,-40.68"/>
</g>
<!-- Node10&#45;&gt;Node5 -->
<g id="edge13" class="edge">
<title>Node10&#45;&gt;Node5</title>
<path fill="none" stroke="#63b8ff" d="M492.95,-137.59C502.01,-133.55 511.37,-128.96 519.75,-124 537.2,-113.68 536.58,-102.58 555.75,-96 662.36,-59.42 795.16,-79.22 874.33,-97.32"/>
<polygon fill="#63b8ff" stroke="#63b8ff" points="873.12,-100.63 883.66,-99.51 874.72,-93.82 873.12,-100.63"/>
</g>
<!-- Node10&#45;&gt;Node8 -->
<g id="edge14" class="edge">
<title>Node10&#45;&gt;Node8</title>
<path fill="none" stroke="#63b8ff" d="M501.68,-137.56C549.28,-124.92 621.53,-112.22 682,-129 776.18,-155.13 870.44,-225.33 915.6,-262.37"/>
<polygon fill="#63b8ff" stroke="#63b8ff" points="913.13,-264.86 923.06,-268.56 917.6,-259.48 913.13,-264.86"/>
</g>
<!-- Node11 -->
<g id="node11" class="node">
<title>Node11</title>
<g id="a_node11"><a xlink:href="a01995.html#a55e13d567a53234573ab3833c0ca32e9" target="_top" xlink:title="create a byte array by reading bytes from the input">
<polygon fill="white" stroke="#666666" points="678.62,-170 559.12,-170 559.12,-138 678.62,-138 678.62,-170"/>
<text xml:space="preserve" text-anchor="start" x="567.12" y="-156.5" font-family="Helvetica,sans-Serif" font-size="10.00">nlohmann::detail::binary</text>
<text xml:space="preserve" text-anchor="middle" x="618.88" y="-144.5" font-family="Helvetica,sans-Serif" font-size="10.00">_reader::get_binary</text>
</a>
</g>
</g>
<!-- Node10&#45;&gt;Node11 -->
<g id="edge15" class="edge">
<title>Node10&#45;&gt;Node11</title>
<path fill="none" stroke="#63b8ff" d="M512.11,-154C523.52,-154 535.51,-154 547.16,-154"/>
<polygon fill="#63b8ff" stroke="#63b8ff" points="547.14,-157.5 557.14,-154 547.14,-150.5 547.14,-157.5"/>
</g>
<!-- Node12 -->
<g id="node12" class="node">
<title>Node12</title>
<g id="a_node12"><a xlink:href="a01995.html#a7d323283c60a0b89ee5eeadf5cb9a5ad" target="_top" xlink:title=" ">
<polygon fill="white" stroke="#666666" points="682,-220 555.75,-220 555.75,-188 682,-188 682,-220"/>
<text xml:space="preserve" text-anchor="start" x="563.75" y="-206.5" font-family="Helvetica,sans-Serif" font-size="10.00">nlohmann::detail::binary</text>
<text xml:space="preserve" text-anchor="middle" x="618.88" y="-194.5" font-family="Helvetica,sans-Serif" font-size="10.00">_reader::get_token_string</text>
</a>
</g>
</g>
<!-- Node10&#45;&gt;Node12 -->
<g id="edge18" class="edge">
<title>Node10&#45;&gt;Node12</title>
<path fill="none" stroke="#63b8ff" d="M505.05,-170.37C519.89,-174.8 536.11,-179.63 551.5,-184.22"/>
<polygon fill="#63b8ff" stroke="#63b8ff" points="550.5,-187.57 561.09,-187.07 552.5,-180.86 550.5,-187.57"/>
</g>
<!-- Node11&#45;&gt;Node2 -->
<g id="edge16" class="edge">
<title>Node11&#45;&gt;Node2</title>
<path fill="none" stroke="#63b8ff" d="M669.85,-170.43C674.2,-172.93 678.34,-175.77 682,-179 727.02,-218.68 755.18,-285.14 768.21,-322.11"/>
<polygon fill="#63b8ff" stroke="#63b8ff" points="764.74,-322.8 771.28,-331.15 771.37,-320.55 764.74,-322.8"/>
</g>
<!-- Node11&#45;&gt;Node4 -->
<g id="edge17" class="edge">
<title>Node11&#45;&gt;Node4</title>
<path fill="none" stroke="#63b8ff" d="M672.79,-170.48C676.22,-172.94 679.35,-175.76 682,-179 737.78,-247.23 662.89,-305.22 718,-374 718.25,-374.31 718.5,-374.61 718.75,-374.91"/>
<polygon fill="#63b8ff" stroke="#63b8ff" points="716.36,-377.47 726.11,-381.62 721.08,-372.3 716.36,-377.47"/>
</g>
<!-- Node13&#45;&gt;Node2 -->
<g id="edge22" class="edge">
<title>Node13&#45;&gt;Node2</title>
<path fill="none" stroke="#63b8ff" d="M499.84,-283.48C517.41,-289.06 537.37,-295.1 555.75,-300 605.88,-313.36 663.07,-325.97 706.72,-335.05"/>
<polygon fill="#63b8ff" stroke="#63b8ff" points="705.81,-338.44 716.31,-337.04 707.23,-331.59 705.81,-338.44"/>
</g>
<!-- Node13&#45;&gt;Node5 -->
<g id="edge20" class="edge">
<title>Node13&#45;&gt;Node5</title>
<path fill="none" stroke="#63b8ff" d="M511.09,-261.16C558.39,-255.63 625.24,-245.65 682,-229 762.76,-205.3 851.69,-163.09 902.14,-137.51"/>
<polygon fill="#63b8ff" stroke="#63b8ff" points="903.64,-140.67 910.95,-133.01 900.46,-134.44 903.64,-140.67"/>
</g>
<!-- Node13&#45;&gt;Node8 -->
<g id="edge21" class="edge">
<title>Node13&#45;&gt;Node8</title>
<path fill="none" stroke="#63b8ff" d="M511.07,-269.35C599.42,-272.75 763.23,-279.07 861.8,-282.87"/>
<polygon fill="#63b8ff" stroke="#63b8ff" points="861.55,-286.36 871.68,-283.25 861.82,-279.36 861.55,-286.36"/>
</g>
<!-- Node13&#45;&gt;Node12 -->
<g id="edge26" class="edge">
<title>Node13&#45;&gt;Node12</title>
<path fill="none" stroke="#63b8ff" d="M493.76,-250.61C515.04,-242.62 540.83,-232.93 563.39,-224.46"/>
<polygon fill="#63b8ff" stroke="#63b8ff" points="564.62,-227.74 572.75,-220.95 562.16,-221.19 564.62,-227.74"/>
</g>
<!-- Node14 -->
<g id="node14" class="node">
<title>Node14</title>
<g id="a_node14"><a xlink:href="a01995.html#a540919db22df36512f05a88945c13263" target="_top" xlink:title="create a string by reading characters from the input">
<polygon fill="white" stroke="#666666" points="678.62,-384 559.12,-384 559.12,-352 678.62,-352 678.62,-384"/>
<text xml:space="preserve" text-anchor="start" x="567.12" y="-370.5" font-family="Helvetica,sans-Serif" font-size="10.00">nlohmann::detail::binary</text>
<text xml:space="preserve" text-anchor="middle" x="618.88" y="-358.5" font-family="Helvetica,sans-Serif" font-size="10.00">_reader::get_string</text>
</a>
</g>
</g>
<!-- Node13&#45;&gt;Node14 -->
<g id="edge23" class="edge">
<title>Node13&#45;&gt;Node14</title>
<path fill="none" stroke="#63b8ff" d="M472.6,-283.48C493.59,-298.52 526.04,-320.96 555.75,-338 560.75,-340.87 566.07,-343.72 571.41,-346.46"/>
<polygon fill="#63b8ff" stroke="#63b8ff" points="569.75,-349.55 580.26,-350.88 572.88,-343.28 569.75,-349.55"/>
</g>
<!-- Node14&#45;&gt;Node2 -->
<g id="edge24" class="edge">
<title>Node14&#45;&gt;Node2</title>
<path fill="none" stroke="#63b8ff" d="M678.74,-360.87C687.76,-359.78 697.15,-358.64 706.4,-357.52"/>
<polygon fill="#63b8ff" stroke="#63b8ff" points="706.55,-361.03 716.06,-356.35 705.71,-354.08 706.55,-361.03"/>
</g>
<!-- Node14&#45;&gt;Node4 -->
<g id="edge25" class="edge">
<title>Node14&#45;&gt;Node4</title>
<path fill="none" stroke="#63b8ff" d="M678.74,-379.63C687.76,-381.41 697.15,-383.27 706.4,-385.1"/>
<polygon fill="#63b8ff" stroke="#63b8ff" points="705.59,-388.5 716.07,-387.01 706.94,-381.64 705.59,-388.5"/>
</g>
<!-- Node15&#45;&gt;Node1 -->
<g id="edge28" class="edge">
<title>Node15&#45;&gt;Node1</title>
<path fill="none" stroke="#63b8ff" d="M382.95,-67.59C329.09,-71.82 252.87,-84.84 198.25,-123 143.25,-161.42 107.95,-235.08 92,-274.88"/>
<polygon fill="#63b8ff" stroke="#63b8ff" points="88.74,-273.61 88.39,-284.2 95.27,-276.14 88.74,-273.61"/>
</g>
<!-- Node16&#45;&gt;Node1 -->
<g id="edge30" class="edge">
<title>Node16&#45;&gt;Node1</title>
<path fill="none" stroke="#63b8ff" d="M378,-14.98C323.78,-17.66 249.54,-29.3 198.25,-69 130.07,-121.78 99.02,-225.28 87.62,-274.61"/>
<polygon fill="#63b8ff" stroke="#63b8ff" points="84.25,-273.65 85.52,-284.16 91.09,-275.15 84.25,-273.65"/>
</g>
</g>
</svg>
