<?xml version="1.0" encoding="UTF-8" standalone="no"?>
<!DOCTYPE svg PUBLIC "-//W3C//DTD SVG 1.1//EN"
 "http://www.w3.org/Graphics/SVG/1.1/DTD/svg11.dtd">
<!-- Generated by graphviz version 13.1.2 (20250808.2320)
 -->
<!-- Title: nlohmann::detail::binary_reader::get_ubjson_string Pages: 1 -->
<svg width="805pt" height="282pt"
 viewBox="0.00 0.00 805.00 282.00" xmlns="http://www.w3.org/2000/svg" xmlns:xlink="http://www.w3.org/1999/xlink">
<g id="graph0" class="graph" transform="scale(1 1) rotate(0) translate(4 278)">
<title>nlohmann::detail::binary_reader::get_ubjson_string</title>
<!-- Node1 -->
<g id="node1" class="node">
<title>Node1</title>
<g id="a_node1"><a xlink:title="reads a UBJSON string">
<polygon fill="#999999" stroke="#666666" points="130.75,-158 0,-158 0,-126 130.75,-126 130.75,-158"/>
<text xml:space="preserve" text-anchor="start" x="8" y="-144.5" font-family="Helvetica,sans-Serif" font-size="10.00">nlohmann::detail::binary</text>
<text xml:space="preserve" text-anchor="middle" x="65.38" y="-132.5" font-family="Helvetica,sans-Serif" font-size="10.00">_reader::get_ubjson_string</text>
</a>
</g>
</g>
<!-- Node2 -->
<g id="node2" class="node">
<title>Node2</title>
<g id="a_node2"><a xlink:href="a01563.html#a137ea4d27de45d8a844fd13451d40f3d" target="_top" xlink:title="create a parse error exception">
<polygon fill="white" stroke="#666666" points="613.75,-249 496.5,-249 496.5,-217 613.75,-217 613.75,-249"/>
<text xml:space="preserve" text-anchor="start" x="504.5" y="-235.5" font-family="Helvetica,sans-Serif" font-size="10.00">nlohmann::detail::parse</text>
<text xml:space="preserve" text-anchor="middle" x="555.12" y="-223.5" font-family="Helvetica,sans-Serif" font-size="10.00">_error::create</text>
</a>
</g>
</g>
<!-- Node1&#45;&gt;Node2 -->
<g id="edge1" class="edge">
<title>Node1&#45;&gt;Node2</title>
<path fill="none" stroke="#63b8ff" d="M77.37,-158.13C93.77,-180.6 127,-220.3 166.75,-236 271.74,-277.49 405.59,-263.28 485.32,-248.58"/>
<polygon fill="#63b8ff" stroke="#63b8ff" points="485.54,-252.1 494.71,-246.79 484.23,-245.22 485.54,-252.1"/>
</g>
<!-- Node5 -->
<g id="node5" class="node">
<title>Node5</title>
<g id="a_node5"><a xlink:href="a01995.html#a9c413c9a1bade1ce345740f4d69156f0" target="_top" xlink:title=" ">
<polygon fill="white" stroke="#666666" points="625.75,-158 484.5,-158 484.5,-126 625.75,-126 625.75,-158"/>
<text xml:space="preserve" text-anchor="start" x="492.5" y="-144.5" font-family="Helvetica,sans-Serif" font-size="10.00">nlohmann::detail::binary</text>
<text xml:space="preserve" text-anchor="middle" x="555.12" y="-132.5" font-family="Helvetica,sans-Serif" font-size="10.00">_reader::exception_message</text>
</a>
</g>
</g>
<!-- Node1&#45;&gt;Node5 -->
<g id="edge4" class="edge">
<title>Node1&#45;&gt;Node5</title>
<path fill="none" stroke="#63b8ff" d="M105.18,-125.55C123.5,-118.65 145.87,-111.44 166.75,-108 290.37,-87.63 324.53,-98.88 448.5,-117 459.27,-118.57 470.55,-120.71 481.57,-123.07"/>
<polygon fill="#63b8ff" stroke="#63b8ff" points="480.48,-126.42 491,-125.17 482,-119.58 480.48,-126.42"/>
</g>
<!-- Node6 -->
<g id="node6" class="node">
<title>Node6</title>
<g id="a_node6"><a xlink:href="a01995.html#ad222095c0b21a87824cb10629299629a" target="_top" xlink:title="get next character from the input">
<polygon fill="white" stroke="#666666" points="448.5,-158 329,-158 329,-126 448.5,-126 448.5,-158"/>
<text xml:space="preserve" text-anchor="start" x="337" y="-144.5" font-family="Helvetica,sans-Serif" font-size="10.00">nlohmann::detail::binary</text>
<text xml:space="preserve" text-anchor="middle" x="388.75" y="-132.5" font-family="Helvetica,sans-Serif" font-size="10.00">_reader::get</text>
</a>
</g>
</g>
<!-- Node1&#45;&gt;Node6 -->
<g id="edge5" class="edge">
<title>Node1&#45;&gt;Node6</title>
<path fill="none" stroke="#63b8ff" d="M122.19,-125.54C136.58,-122 152.13,-118.79 166.75,-117 222.44,-110.17 237.36,-109.78 293,-117 303.16,-118.32 313.78,-120.4 324.09,-122.81"/>
<polygon fill="#63b8ff" stroke="#63b8ff" points="323.09,-126.17 333.64,-125.18 324.77,-119.38 323.09,-126.17"/>
</g>
<!-- Node7 -->
<g id="node7" class="node">
<title>Node7</title>
<g id="a_node7"><a xlink:href="a01995.html#ac356c6364fe0273d3303fb7a447f4ef6" target="_top" xlink:title=" ">
<polygon fill="white" stroke="#666666" points="289.62,-158 170.12,-158 170.12,-126 289.62,-126 289.62,-158"/>
<text xml:space="preserve" text-anchor="start" x="178.12" y="-144.5" font-family="Helvetica,sans-Serif" font-size="10.00">nlohmann::detail::binary</text>
<text xml:space="preserve" text-anchor="middle" x="229.88" y="-132.5" font-family="Helvetica,sans-Serif" font-size="10.00">_reader::get_number</text>
</a>
</g>
</g>
<!-- Node1&#45;&gt;Node7 -->
<g id="edge6" class="edge">
<title>Node1&#45;&gt;Node7</title>
<path fill="none" stroke="#63b8ff" d="M131.07,-142C140.03,-142 149.27,-142 158.33,-142"/>
<polygon fill="#63b8ff" stroke="#63b8ff" points="158.16,-145.5 168.16,-142 158.16,-138.5 158.16,-145.5"/>
</g>
<!-- Node8 -->
<g id="node8" class="node">
<title>Node8</title>
<g id="a_node8"><a xlink:href="a01995.html#a61a0bd8bbe7b560bd429fa990ba3ba1a" target="_top" xlink:title=" ">
<polygon fill="white" stroke="#666666" points="448.5,-208 329,-208 329,-176 448.5,-176 448.5,-208"/>
<text xml:space="preserve" text-anchor="start" x="337" y="-194.5" font-family="Helvetica,sans-Serif" font-size="10.00">nlohmann::detail::binary</text>
<text xml:space="preserve" text-anchor="middle" x="388.75" y="-182.5" font-family="Helvetica,sans-Serif" font-size="10.00">_reader::unexpect_eof</text>
</a>
</g>
</g>
<!-- Node1&#45;&gt;Node8 -->
<g id="edge15" class="edge">
<title>Node1&#45;&gt;Node8</title>
<path fill="none" stroke="#63b8ff" d="M81.51,-158.41C99.68,-176.78 132.07,-205.47 166.75,-217 220.57,-234.89 285.39,-224.02 330.86,-211.5"/>
<polygon fill="#63b8ff" stroke="#63b8ff" points="331.6,-214.93 340.25,-208.81 329.67,-208.2 331.6,-214.93"/>
</g>
<!-- Node9 -->
<g id="node9" class="node">
<title>Node9</title>
<g id="a_node9"><a xlink:href="a01995.html#a540919db22df36512f05a88945c13263" target="_top" xlink:title="create a string by reading characters from the input">
<polygon fill="white" stroke="#666666" points="289.62,-208 170.12,-208 170.12,-176 289.62,-176 289.62,-208"/>
<text xml:space="preserve" text-anchor="start" x="178.12" y="-194.5" font-family="Helvetica,sans-Serif" font-size="10.00">nlohmann::detail::binary</text>
<text xml:space="preserve" text-anchor="middle" x="229.88" y="-182.5" font-family="Helvetica,sans-Serif" font-size="10.00">_reader::get_string</text>
</a>
</g>
</g>
<!-- Node1&#45;&gt;Node9 -->
<g id="edge11" class="edge">
<title>Node1&#45;&gt;Node9</title>
<path fill="none" stroke="#63b8ff" d="M119.58,-158.37C133.96,-162.8 149.67,-167.63 164.58,-172.22"/>
<polygon fill="#63b8ff" stroke="#63b8ff" points="163.24,-175.46 173.82,-175.06 165.29,-168.77 163.24,-175.46"/>
</g>
<!-- Node10 -->
<g id="node10" class="node">
<title>Node10</title>
<g id="a_node10"><a xlink:href="a01995.html#a7d323283c60a0b89ee5eeadf5cb9a5ad" target="_top" xlink:title=" ">
<polygon fill="white" stroke="#666666" points="293,-32 166.75,-32 166.75,0 293,0 293,-32"/>
<text xml:space="preserve" text-anchor="start" x="174.75" y="-18.5" font-family="Helvetica,sans-Serif" font-size="10.00">nlohmann::detail::binary</text>
<text xml:space="preserve" text-anchor="middle" x="229.88" y="-6.5" font-family="Helvetica,sans-Serif" font-size="10.00">_reader::get_token_string</text>
</a>
</g>
</g>
<!-- Node1&#45;&gt;Node10 -->
<g id="edge14" class="edge">
<title>Node1&#45;&gt;Node10</title>
<path fill="none" stroke="#63b8ff" d="M80.38,-125.77C98.68,-105.26 132.47,-69.78 166.75,-46 170.9,-43.12 175.38,-40.37 179.95,-37.79"/>
<polygon fill="#63b8ff" stroke="#63b8ff" points="181.51,-40.93 188.7,-33.14 178.23,-34.75 181.51,-40.93"/>
</g>
<!-- Node3 -->
<g id="node3" class="node">
<title>Node3</title>
<g id="a_node3"><a xlink:href="a01559.html#abf41a7e9178356314082284e6cfea278" target="_top" xlink:title=" ">
<polygon fill="white" stroke="#666666" points="797,-274 661.75,-274 661.75,-242 797,-242 797,-274"/>
<text xml:space="preserve" text-anchor="start" x="669.75" y="-260.5" font-family="Helvetica,sans-Serif" font-size="10.00">nlohmann::detail::exception</text>
<text xml:space="preserve" text-anchor="middle" x="729.38" y="-248.5" font-family="Helvetica,sans-Serif" font-size="10.00">::name</text>
</a>
</g>
</g>
<!-- Node2&#45;&gt;Node3 -->
<g id="edge2" class="edge">
<title>Node2&#45;&gt;Node3</title>
<path fill="none" stroke="#63b8ff" d="M613.96,-241.39C625.63,-243.09 638.09,-244.9 650.32,-246.67"/>
<polygon fill="#63b8ff" stroke="#63b8ff" points="649.57,-250.1 659.97,-248.07 650.58,-243.17 649.57,-250.1"/>
</g>
<!-- Node4 -->
<g id="node4" class="node">
<title>Node4</title>
<g id="a_node4"><a xlink:href="a01563.html#aefe74adeaa48781464ba2fd2ec63d221" target="_top" xlink:title=" ">
<polygon fill="white" stroke="#666666" points="788,-224 670.75,-224 670.75,-192 788,-192 788,-224"/>
<text xml:space="preserve" text-anchor="start" x="678.75" y="-210.5" font-family="Helvetica,sans-Serif" font-size="10.00">nlohmann::detail::parse</text>
<text xml:space="preserve" text-anchor="middle" x="729.38" y="-198.5" font-family="Helvetica,sans-Serif" font-size="10.00">_error::position_string</text>
</a>
</g>
</g>
<!-- Node2&#45;&gt;Node4 -->
<g id="edge3" class="edge">
<title>Node2&#45;&gt;Node4</title>
<path fill="none" stroke="#63b8ff" d="M613.96,-224.61C628.45,-222.5 644.13,-220.23 659.11,-218.05"/>
<polygon fill="#63b8ff" stroke="#63b8ff" points="659.51,-221.53 668.9,-216.63 658.5,-214.6 659.51,-221.53"/>
</g>
<!-- Node7&#45;&gt;Node6 -->
<g id="edge7" class="edge">
<title>Node7&#45;&gt;Node6</title>
<path fill="none" stroke="#63b8ff" d="M289.74,-142C298.66,-142 307.95,-142 317.09,-142"/>
<polygon fill="#63b8ff" stroke="#63b8ff" points="317.05,-145.5 327.05,-142 317.05,-138.5 317.05,-145.5"/>
</g>
<!-- Node7&#45;&gt;Node8 -->
<g id="edge8" class="edge">
<title>Node7&#45;&gt;Node8</title>
<path fill="none" stroke="#63b8ff" d="M282.24,-158.37C295.98,-162.75 310.99,-167.54 325.26,-172.08"/>
<polygon fill="#63b8ff" stroke="#63b8ff" points="323.97,-175.34 334.56,-175.05 326.09,-168.67 323.97,-175.34"/>
</g>
<!-- Node8&#45;&gt;Node2 -->
<g id="edge9" class="edge">
<title>Node8&#45;&gt;Node2</title>
<path fill="none" stroke="#63b8ff" d="M448.63,-206.69C460.48,-209.64 473.03,-212.77 485.19,-215.81"/>
<polygon fill="#63b8ff" stroke="#63b8ff" points="484.19,-219.16 494.74,-218.19 485.88,-212.37 484.19,-219.16"/>
</g>
<!-- Node8&#45;&gt;Node5 -->
<g id="edge10" class="edge">
<title>Node8&#45;&gt;Node5</title>
<path fill="none" stroke="#63b8ff" d="M443.57,-175.63C458.11,-171.2 474.01,-166.37 489.09,-161.78"/>
<polygon fill="#63b8ff" stroke="#63b8ff" points="489.9,-165.19 498.45,-158.93 487.87,-158.5 489.9,-165.19"/>
</g>
<!-- Node9&#45;&gt;Node6 -->
<g id="edge12" class="edge">
<title>Node9&#45;&gt;Node6</title>
<path fill="none" stroke="#63b8ff" d="M282.24,-175.63C295.98,-171.25 310.99,-166.46 325.26,-161.92"/>
<polygon fill="#63b8ff" stroke="#63b8ff" points="326.09,-165.33 334.56,-158.95 323.97,-158.66 326.09,-165.33"/>
</g>
<!-- Node9&#45;&gt;Node8 -->
<g id="edge13" class="edge">
<title>Node9&#45;&gt;Node8</title>
<path fill="none" stroke="#63b8ff" d="M289.74,-192C298.66,-192 307.95,-192 317.09,-192"/>
<polygon fill="#63b8ff" stroke="#63b8ff" points="317.05,-195.5 327.05,-192 317.05,-188.5 317.05,-195.5"/>
</g>
</g>
</svg>
