<?xml version="1.0" encoding="UTF-8" standalone="no"?>
<!DOCTYPE svg PUBLIC "-//W3C//DTD SVG 1.1//EN"
 "http://www.w3.org/Graphics/SVG/1.1/DTD/svg11.dtd">
<!-- Generated by graphviz version 13.1.2 (20250808.2320)
 -->
<!-- Title: nlohmann::detail::binary_reader::parse_ubjson_internal Pages: 1 -->
<svg width="656pt" height="366pt"
 viewBox="0.00 0.00 656.00 366.00" xmlns="http://www.w3.org/2000/svg" xmlns:xlink="http://www.w3.org/1999/xlink">
<g id="graph0" class="graph" transform="scale(1 1) rotate(0) translate(4 362)">
<title>nlohmann::detail::binary_reader::parse_ubjson_internal</title>
<!-- Node1 -->
<g id="node1" class="node">
<title>Node1</title>
<g id="a_node1"><a xlink:title=" ">
<polygon fill="#999999" stroke="#666666" points="648.25,-295 499.5,-295 499.5,-263 648.25,-263 648.25,-295"/>
<text xml:space="preserve" text-anchor="start" x="507.5" y="-281.5" font-family="Helvetica,sans-Serif" font-size="10.00">nlohmann::detail::binary</text>
<text xml:space="preserve" text-anchor="middle" x="573.88" y="-269.5" font-family="Helvetica,sans-Serif" font-size="10.00">_reader::parse_ubjson_internal</text>
</a>
</g>
</g>
<!-- Node2 -->
<g id="node2" class="node">
<title>Node2</title>
<g id="a_node2"><a xlink:href="a01995.html#afb36cb588b795efa513fc95e949493b7" target="_top" xlink:title=" ">
<polygon fill="white" stroke="#666666" points="463.5,-358 335,-358 335,-326 463.5,-326 463.5,-358"/>
<text xml:space="preserve" text-anchor="start" x="343" y="-344.5" font-family="Helvetica,sans-Serif" font-size="10.00">nlohmann::detail::binary</text>
<text xml:space="preserve" text-anchor="middle" x="399.25" y="-332.5" font-family="Helvetica,sans-Serif" font-size="10.00">_reader::get_ubjson_array</text>
</a>
</g>
</g>
<!-- Node1&#45;&gt;Node2 -->
<g id="edge1" class="edge">
<title>Node1&#45;&gt;Node2</title>
<path fill="none" stroke="#63b8ff" d="M517.2,-299.32C493.92,-307.81 467.23,-317.56 445.23,-325.58"/>
<polygon fill="#63b8ff" stroke="#63b8ff" points="518.35,-302.62 526.55,-295.91 515.95,-296.05 518.35,-302.62"/>
</g>
<!-- Node4 -->
<g id="node4" class="node">
<title>Node4</title>
<g id="a_node4"><a xlink:href="a01995.html#adcf64ad3207f4bf37a5a31c920a385c3" target="_top" xlink:title=" ">
<polygon fill="white" stroke="#666666" points="133,-339 0,-339 0,-307 133,-307 133,-339"/>
<text xml:space="preserve" text-anchor="start" x="8" y="-325.5" font-family="Helvetica,sans-Serif" font-size="10.00">nlohmann::detail::binary</text>
<text xml:space="preserve" text-anchor="middle" x="66.5" y="-313.5" font-family="Helvetica,sans-Serif" font-size="10.00">_reader::get_ubjson_object</text>
</a>
</g>
</g>
<!-- Node1&#45;&gt;Node4 -->
<g id="edge7" class="edge">
<title>Node1&#45;&gt;Node4</title>
<path fill="none" stroke="#63b8ff" d="M487.86,-278.19C405.81,-278.54 278.29,-282.06 169,-298 154.99,-300.04 140.1,-303.16 126.16,-306.51"/>
<polygon fill="#63b8ff" stroke="#63b8ff" points="487.63,-281.69 497.62,-278.16 487.61,-274.69 487.63,-281.69"/>
</g>
<!-- Node5 -->
<g id="node5" class="node">
<title>Node5</title>
<g id="a_node5"><a xlink:href="a01995.html#ab4afd9ee276bbb15a0f898061aad94dd" target="_top" xlink:title=" ">
<polygon fill="white" stroke="#666666" points="459,-157 339.5,-157 339.5,-125 459,-125 459,-157"/>
<text xml:space="preserve" text-anchor="start" x="347.5" y="-143.5" font-family="Helvetica,sans-Serif" font-size="10.00">nlohmann::detail::binary</text>
<text xml:space="preserve" text-anchor="middle" x="399.25" y="-131.5" font-family="Helvetica,sans-Serif" font-size="10.00">_reader::sax_parse</text>
</a>
</g>
</g>
<!-- Node1&#45;&gt;Node5 -->
<g id="edge8" class="edge">
<title>Node1&#45;&gt;Node5</title>
<path fill="none" stroke="#63b8ff" d="M543.61,-255.6C508.68,-227.68 451.19,-181.72 420.7,-157.35"/>
<polygon fill="#63b8ff" stroke="#63b8ff" points="541.22,-258.17 551.21,-261.68 545.59,-252.7 541.22,-258.17"/>
</g>
<!-- Node3 -->
<g id="node3" class="node">
<title>Node3</title>
<g id="a_node3"><a xlink:href="a01995.html#a7e5e0b71548d0649ce4f131280d06c33" target="_top" xlink:title=" ">
<polygon fill="white" stroke="#666666" points="299,-339 169,-339 169,-307 299,-307 299,-339"/>
<text xml:space="preserve" text-anchor="start" x="177" y="-325.5" font-family="Helvetica,sans-Serif" font-size="10.00">nlohmann::detail::binary</text>
<text xml:space="preserve" text-anchor="middle" x="234" y="-313.5" font-family="Helvetica,sans-Serif" font-size="10.00">_reader::get_ubjson_value</text>
</a>
</g>
</g>
<!-- Node2&#45;&gt;Node3 -->
<g id="edge2" class="edge">
<title>Node2&#45;&gt;Node3</title>
<path fill="none" stroke="#63b8ff" d="M323.44,-326.56C315.44,-325.58 307.35,-324.68 299.49,-323.89"/>
<polygon fill="#63b8ff" stroke="#63b8ff" points="322.8,-330.01 333.16,-327.81 323.69,-323.07 322.8,-330.01"/>
</g>
<!-- Node3&#45;&gt;Node1 -->
<g id="edge6" class="edge">
<title>Node3&#45;&gt;Node1</title>
<path fill="none" stroke="#63b8ff" d="M310.79,-313.13C367.05,-305.8 443.38,-295.86 499.14,-288.6"/>
<polygon fill="#63b8ff" stroke="#63b8ff" points="310.42,-309.65 300.96,-314.41 311.33,-316.59 310.42,-309.65"/>
</g>
<!-- Node3&#45;&gt;Node2 -->
<g id="edge3" class="edge">
<title>Node3&#45;&gt;Node2</title>
<path fill="none" stroke="#63b8ff" d="M310.72,-338.55C318.73,-339.52 326.82,-340.42 334.67,-341.2"/>
<polygon fill="#63b8ff" stroke="#63b8ff" points="311.35,-335.1 300.99,-337.31 310.47,-342.04 311.35,-335.1"/>
</g>
<!-- Node3&#45;&gt;Node4 -->
<g id="edge4" class="edge">
<title>Node3&#45;&gt;Node4</title>
<path fill="none" stroke="#63b8ff" d="M157.07,-316.27C149.17,-316.22 141.19,-316.26 133.42,-316.38"/>
<polygon fill="#63b8ff" stroke="#63b8ff" points="156.99,-319.77 167.03,-316.38 157.07,-312.77 156.99,-319.77"/>
</g>
<!-- Node4&#45;&gt;Node3 -->
<g id="edge5" class="edge">
<title>Node4&#45;&gt;Node3</title>
<path fill="none" stroke="#63b8ff" d="M144.92,-329.74C152.83,-329.77 160.8,-329.73 168.54,-329.6"/>
<polygon fill="#63b8ff" stroke="#63b8ff" points="144.97,-326.24 134.93,-329.64 144.9,-333.24 144.97,-326.24"/>
</g>
<!-- Node6 -->
<g id="node6" class="node">
<title>Node6</title>
<g id="a_node6"><a xlink:href="a01659.html#a4e02793f2691aa29ab7cb69fddafbf5c" target="_top" xlink:title="Create a JSON value from an input in BSON format.">
<polygon fill="white" stroke="#666666" points="289.25,-232 178.75,-232 178.75,-200 289.25,-200 289.25,-232"/>
<text xml:space="preserve" text-anchor="start" x="186.75" y="-218.5" font-family="Helvetica,sans-Serif" font-size="10.00">nlohmann::basic_json</text>
<text xml:space="preserve" text-anchor="middle" x="234" y="-206.5" font-family="Helvetica,sans-Serif" font-size="10.00">::from_bson</text>
</a>
</g>
</g>
<!-- Node5&#45;&gt;Node6 -->
<g id="edge9" class="edge">
<title>Node5&#45;&gt;Node6</title>
<path fill="none" stroke="#63b8ff" d="M357.71,-162.51C339.88,-171.68 318.59,-182.26 299,-191 292.46,-193.92 285.48,-196.84 278.61,-199.6"/>
<polygon fill="#63b8ff" stroke="#63b8ff" points="359.15,-165.7 366.42,-157.99 355.93,-159.49 359.15,-165.7"/>
</g>
<!-- Node8 -->
<g id="node8" class="node">
<title>Node8</title>
<g id="a_node8"><a xlink:href="a01659.html#a44dd5635fb2da4710f6cd6e42b72773f" target="_top" xlink:title="create a JSON value from an input in CBOR format">
<polygon fill="white" stroke="#666666" points="289.25,-182 178.75,-182 178.75,-150 289.25,-150 289.25,-182"/>
<text xml:space="preserve" text-anchor="start" x="186.75" y="-168.5" font-family="Helvetica,sans-Serif" font-size="10.00">nlohmann::basic_json</text>
<text xml:space="preserve" text-anchor="middle" x="234" y="-156.5" font-family="Helvetica,sans-Serif" font-size="10.00">::from_cbor</text>
</a>
</g>
</g>
<!-- Node5&#45;&gt;Node8 -->
<g id="edge11" class="edge">
<title>Node5&#45;&gt;Node8</title>
<path fill="none" stroke="#63b8ff" d="M328.1,-151.74C315.18,-153.72 301.87,-155.76 289.5,-157.65"/>
<polygon fill="#63b8ff" stroke="#63b8ff" points="328.46,-155.23 337.82,-150.25 327.4,-148.31 328.46,-155.23"/>
</g>
<!-- Node10 -->
<g id="node10" class="node">
<title>Node10</title>
<g id="a_node10"><a xlink:href="a01659.html#adbcab52fca1e25b3311ef14e71a57590" target="_top" xlink:title="create a JSON value from an input in MessagePack format">
<polygon fill="white" stroke="#666666" points="289.25,-132 178.75,-132 178.75,-100 289.25,-100 289.25,-132"/>
<text xml:space="preserve" text-anchor="start" x="186.75" y="-118.5" font-family="Helvetica,sans-Serif" font-size="10.00">nlohmann::basic_json</text>
<text xml:space="preserve" text-anchor="middle" x="234" y="-106.5" font-family="Helvetica,sans-Serif" font-size="10.00">::from_msgpack</text>
</a>
</g>
</g>
<!-- Node5&#45;&gt;Node10 -->
<g id="edge13" class="edge">
<title>Node5&#45;&gt;Node10</title>
<path fill="none" stroke="#63b8ff" d="M328.1,-130.26C315.18,-128.28 301.87,-126.24 289.5,-124.35"/>
<polygon fill="#63b8ff" stroke="#63b8ff" points="327.4,-133.69 337.82,-131.75 328.46,-126.77 327.4,-133.69"/>
</g>
<!-- Node12 -->
<g id="node12" class="node">
<title>Node12</title>
<g id="a_node12"><a xlink:href="a01659.html#aa81f62db69978b90ff701f05c72e03a7" target="_top" xlink:title="create a JSON value from an input in UBJSON format">
<polygon fill="white" stroke="#666666" points="289.25,-82 178.75,-82 178.75,-50 289.25,-50 289.25,-82"/>
<text xml:space="preserve" text-anchor="start" x="186.75" y="-68.5" font-family="Helvetica,sans-Serif" font-size="10.00">nlohmann::basic_json</text>
<text xml:space="preserve" text-anchor="middle" x="234" y="-56.5" font-family="Helvetica,sans-Serif" font-size="10.00">::from_ubjson</text>
</a>
</g>
</g>
<!-- Node5&#45;&gt;Node12 -->
<g id="edge15" class="edge">
<title>Node5&#45;&gt;Node12</title>
<path fill="none" stroke="#63b8ff" d="M357.71,-119.49C339.88,-110.32 318.59,-99.74 299,-91 292.46,-88.08 285.48,-85.16 278.61,-82.4"/>
<polygon fill="#63b8ff" stroke="#63b8ff" points="355.93,-122.51 366.42,-124.01 359.15,-116.3 355.93,-122.51"/>
</g>
<!-- Node14 -->
<g id="node14" class="node">
<title>Node14</title>
<g id="a_node14"><a xlink:href="a01659.html#a12b382c6407da5543827ce4b24bb5008" target="_top" xlink:title="generate SAX events">
<polygon fill="white" stroke="#666666" points="289.25,-32 178.75,-32 178.75,0 289.25,0 289.25,-32"/>
<text xml:space="preserve" text-anchor="start" x="186.75" y="-18.5" font-family="Helvetica,sans-Serif" font-size="10.00">nlohmann::basic_json</text>
<text xml:space="preserve" text-anchor="middle" x="234" y="-6.5" font-family="Helvetica,sans-Serif" font-size="10.00">::sax_parse</text>
</a>
</g>
</g>
<!-- Node5&#45;&gt;Node14 -->
<g id="edge17" class="edge">
<title>Node5&#45;&gt;Node14</title>
<path fill="none" stroke="#63b8ff" d="M378.54,-115.87C360.01,-93.66 330.49,-61.67 299,-41 294.21,-37.86 288.97,-35.02 283.61,-32.47"/>
<polygon fill="#63b8ff" stroke="#63b8ff" points="375.78,-118.03 384.82,-123.55 381.2,-113.6 375.78,-118.03"/>
</g>
<!-- Node7 -->
<g id="node7" class="node">
<title>Node7</title>
<g id="a_node7"><a xlink:href="a01659.html#ae2612581e4788ddffc2f45d5e4cc04fc" target="_top" xlink:title=" ">
<polygon fill="white" stroke="#666666" points="121.75,-232 11.25,-232 11.25,-200 121.75,-200 121.75,-232"/>
<text xml:space="preserve" text-anchor="start" x="19.25" y="-218.5" font-family="Helvetica,sans-Serif" font-size="10.00">nlohmann::basic_json</text>
<text xml:space="preserve" text-anchor="middle" x="66.5" y="-206.5" font-family="Helvetica,sans-Serif" font-size="10.00">::from_bson</text>
</a>
</g>
</g>
<!-- Node6&#45;&gt;Node7 -->
<g id="edge10" class="edge">
<title>Node6&#45;&gt;Node7</title>
<path fill="none" stroke="#63b8ff" d="M167.12,-216C152.19,-216 136.49,-216 122.09,-216"/>
<polygon fill="#63b8ff" stroke="#63b8ff" points="166.84,-219.5 176.84,-216 166.84,-212.5 166.84,-219.5"/>
</g>
<!-- Node9 -->
<g id="node9" class="node">
<title>Node9</title>
<g id="a_node9"><a xlink:href="a01659.html#a188755c8cda27e2afb03c016c14125d8" target="_top" xlink:title=" ">
<polygon fill="white" stroke="#666666" points="121.75,-182 11.25,-182 11.25,-150 121.75,-150 121.75,-182"/>
<text xml:space="preserve" text-anchor="start" x="19.25" y="-168.5" font-family="Helvetica,sans-Serif" font-size="10.00">nlohmann::basic_json</text>
<text xml:space="preserve" text-anchor="middle" x="66.5" y="-156.5" font-family="Helvetica,sans-Serif" font-size="10.00">::from_cbor</text>
</a>
</g>
</g>
<!-- Node8&#45;&gt;Node9 -->
<g id="edge12" class="edge">
<title>Node8&#45;&gt;Node9</title>
<path fill="none" stroke="#63b8ff" d="M167.12,-166C152.19,-166 136.49,-166 122.09,-166"/>
<polygon fill="#63b8ff" stroke="#63b8ff" points="166.84,-169.5 176.84,-166 166.84,-162.5 166.84,-169.5"/>
</g>
<!-- Node11 -->
<g id="node11" class="node">
<title>Node11</title>
<g id="a_node11"><a xlink:href="a01659.html#a0d69d3102639759d5202a6f764760d23" target="_top" xlink:title=" ">
<polygon fill="white" stroke="#666666" points="121.75,-132 11.25,-132 11.25,-100 121.75,-100 121.75,-132"/>
<text xml:space="preserve" text-anchor="start" x="19.25" y="-118.5" font-family="Helvetica,sans-Serif" font-size="10.00">nlohmann::basic_json</text>
<text xml:space="preserve" text-anchor="middle" x="66.5" y="-106.5" font-family="Helvetica,sans-Serif" font-size="10.00">::from_msgpack</text>
</a>
</g>
</g>
<!-- Node10&#45;&gt;Node11 -->
<g id="edge14" class="edge">
<title>Node10&#45;&gt;Node11</title>
<path fill="none" stroke="#63b8ff" d="M167.12,-116C152.19,-116 136.49,-116 122.09,-116"/>
<polygon fill="#63b8ff" stroke="#63b8ff" points="166.84,-119.5 176.84,-116 166.84,-112.5 166.84,-119.5"/>
</g>
<!-- Node13 -->
<g id="node13" class="node">
<title>Node13</title>
<g id="a_node13"><a xlink:href="a01659.html#ab6eeda23c34cee79d8d72f1a8691a8de" target="_top" xlink:title=" ">
<polygon fill="white" stroke="#666666" points="121.75,-82 11.25,-82 11.25,-50 121.75,-50 121.75,-82"/>
<text xml:space="preserve" text-anchor="start" x="19.25" y="-68.5" font-family="Helvetica,sans-Serif" font-size="10.00">nlohmann::basic_json</text>
<text xml:space="preserve" text-anchor="middle" x="66.5" y="-56.5" font-family="Helvetica,sans-Serif" font-size="10.00">::from_ubjson</text>
</a>
</g>
</g>
<!-- Node12&#45;&gt;Node13 -->
<g id="edge16" class="edge">
<title>Node12&#45;&gt;Node13</title>
<path fill="none" stroke="#63b8ff" d="M167.12,-66C152.19,-66 136.49,-66 122.09,-66"/>
<polygon fill="#63b8ff" stroke="#63b8ff" points="166.84,-69.5 176.84,-66 166.84,-62.5 166.84,-69.5"/>
</g>
</g>
</svg>
