<?xml version="1.0" encoding="UTF-8" standalone="no"?>
<!DOCTYPE svg PUBLIC "-//W3C//DTD SVG 1.1//EN"
 "http://www.w3.org/Graphics/SVG/1.1/DTD/svg11.dtd">
<!-- Generated by graphviz version 13.1.2 (20250808.2320)
 -->
<!-- Title: nlohmann::detail::binary_reader::get_token_string Pages: 1 -->
<svg width="1531pt" height="622pt"
 viewBox="0.00 0.00 1531.00 622.00" xmlns="http://www.w3.org/2000/svg" xmlns:xlink="http://www.w3.org/1999/xlink">
<g id="graph0" class="graph" transform="scale(1 1) rotate(0) translate(4 618.45)">
<title>nlohmann::detail::binary_reader::get_token_string</title>
<!-- Node1 -->
<g id="node1" class="node">
<title>Node1</title>
<g id="a_node1"><a xlink:title=" ">
<polygon fill="#999999" stroke="#666666" points="1522.5,-310.45 1396.25,-310.45 1396.25,-278.45 1522.5,-278.45 1522.5,-310.45"/>
<text xml:space="preserve" text-anchor="start" x="1404.25" y="-296.95" font-family="Helvetica,sans-Serif" font-size="10.00">nlohmann::detail::binary</text>
<text xml:space="preserve" text-anchor="middle" x="1459.38" y="-284.95" font-family="Helvetica,sans-Serif" font-size="10.00">_reader::get_token_string</text>
</a>
</g>
</g>
<!-- Node2 -->
<g id="node2" class="node">
<title>Node2</title>
<g id="a_node2"><a xlink:href="a01995.html#a9940f56290b9278c58772eda2931e599" target="_top" xlink:title="Parses a byte array input of length len from the BSON input.">
<polygon fill="white" stroke="#666666" points="1346.38,-597.45 1220.88,-597.45 1220.88,-565.45 1346.38,-565.45 1346.38,-597.45"/>
<text xml:space="preserve" text-anchor="start" x="1228.88" y="-583.95" font-family="Helvetica,sans-Serif" font-size="10.00">nlohmann::detail::binary</text>
<text xml:space="preserve" text-anchor="middle" x="1283.62" y="-571.95" font-family="Helvetica,sans-Serif" font-size="10.00">_reader::get_bson_binary</text>
</a>
</g>
</g>
<!-- Node1&#45;&gt;Node2 -->
<g id="edge1" class="edge">
<title>Node1&#45;&gt;Node2</title>
<path fill="none" stroke="#63b8ff" d="M1455.79,-322.08C1449.37,-375.03 1427.97,-491.32 1360.25,-556.45 1356.26,-560.28 1351.68,-563.53 1346.77,-566.27"/>
<polygon fill="#63b8ff" stroke="#63b8ff" points="1459.24,-322.74 1456.87,-312.41 1452.28,-321.96 1459.24,-322.74"/>
</g>
<!-- Node7 -->
<g id="node7" class="node">
<title>Node7</title>
<g id="a_node7"><a xlink:href="a01995.html#ab4afd9ee276bbb15a0f898061aad94dd" target="_top" xlink:title=" ">
<polygon fill="white" stroke="#666666" points="419.25,-458.45 299.75,-458.45 299.75,-426.45 419.25,-426.45 419.25,-458.45"/>
<text xml:space="preserve" text-anchor="start" x="307.75" y="-444.95" font-family="Helvetica,sans-Serif" font-size="10.00">nlohmann::detail::binary</text>
<text xml:space="preserve" text-anchor="middle" x="359.5" y="-432.95" font-family="Helvetica,sans-Serif" font-size="10.00">_reader::sax_parse</text>
</a>
</g>
</g>
<!-- Node1&#45;&gt;Node7 -->
<g id="edge62" class="edge">
<title>Node1&#45;&gt;Node7</title>
<path fill="none" stroke="#63b8ff" d="M1451.73,-321.72C1440.43,-361.63 1413.33,-434.81 1360.25,-468.45 1261.4,-531.08 1214.65,-487.45 1097.62,-487.45 1097.62,-487.45 1097.62,-487.45 716.38,-487.45 611.28,-487.45 490.11,-467.89 419.71,-454.56"/>
<polygon fill="#63b8ff" stroke="#63b8ff" points="1455.08,-322.75 1454.29,-312.18 1448.32,-320.93 1455.08,-322.75"/>
</g>
<!-- Node17 -->
<g id="node17" class="node">
<title>Node17</title>
<g id="a_node17"><a xlink:href="a01995.html#a23921422802aa472360dd05023e20565" target="_top" xlink:title="Parses a zero&#45;terminated string of length len from the BSON input.">
<polygon fill="white" stroke="#666666" points="1345.25,-547.45 1222,-547.45 1222,-515.45 1345.25,-515.45 1345.25,-547.45"/>
<text xml:space="preserve" text-anchor="start" x="1230" y="-533.95" font-family="Helvetica,sans-Serif" font-size="10.00">nlohmann::detail::binary</text>
<text xml:space="preserve" text-anchor="middle" x="1283.62" y="-521.95" font-family="Helvetica,sans-Serif" font-size="10.00">_reader::get_bson_string</text>
</a>
</g>
</g>
<!-- Node1&#45;&gt;Node17 -->
<g id="edge18" class="edge">
<title>Node1&#45;&gt;Node17</title>
<path fill="none" stroke="#63b8ff" d="M1452.24,-322.03C1441.17,-365.77 1413.83,-451.24 1360.25,-501.45 1354.48,-506.85 1347.61,-511.33 1340.41,-515.03"/>
<polygon fill="#63b8ff" stroke="#63b8ff" points="1455.64,-322.87 1454.59,-312.33 1448.84,-321.23 1455.64,-322.87"/>
</g>
<!-- Node18 -->
<g id="node18" class="node">
<title>Node18</title>
<g id="a_node18"><a xlink:href="a01995.html#acb001d18095dc5bcf7336ae5122b8340" target="_top" xlink:title="reads a CBOR byte array">
<polygon fill="white" stroke="#666666" points="1345.25,-441.45 1222,-441.45 1222,-409.45 1345.25,-409.45 1345.25,-441.45"/>
<text xml:space="preserve" text-anchor="start" x="1230" y="-427.95" font-family="Helvetica,sans-Serif" font-size="10.00">nlohmann::detail::binary</text>
<text xml:space="preserve" text-anchor="middle" x="1283.62" y="-415.95" font-family="Helvetica,sans-Serif" font-size="10.00">_reader::get_cbor_binary</text>
</a>
</g>
</g>
<!-- Node1&#45;&gt;Node18 -->
<g id="edge20" class="edge">
<title>Node1&#45;&gt;Node18</title>
<path fill="none" stroke="#63b8ff" d="M1438.97,-319.81C1420.71,-342.24 1391.56,-374.54 1360.25,-395.45 1352.5,-400.62 1343.72,-405.12 1334.95,-408.95"/>
<polygon fill="#63b8ff" stroke="#63b8ff" points="1441.66,-322.05 1445.16,-312.05 1436.18,-317.69 1441.66,-322.05"/>
</g>
<!-- Node19 -->
<g id="node19" class="node">
<title>Node19</title>
<g id="a_node19"><a xlink:href="a01995.html#a4e4accd5a2a41bfb2f18a8a0fcc9421c" target="_top" xlink:title=" ">
<polygon fill="white" stroke="#666666" points="1166.12,-412.45 1027.12,-412.45 1027.12,-380.45 1166.12,-380.45 1166.12,-412.45"/>
<text xml:space="preserve" text-anchor="start" x="1035.12" y="-398.95" font-family="Helvetica,sans-Serif" font-size="10.00">nlohmann::detail::binary</text>
<text xml:space="preserve" text-anchor="middle" x="1096.62" y="-386.95" font-family="Helvetica,sans-Serif" font-size="10.00">_reader::parse_cbor_internal</text>
</a>
</g>
</g>
<!-- Node1&#45;&gt;Node19 -->
<g id="edge60" class="edge">
<title>Node1&#45;&gt;Node19</title>
<path fill="none" stroke="#63b8ff" d="M1431.61,-318.3C1412.94,-333.52 1386.73,-352.26 1360.25,-362.45 1297.5,-386.6 1220.73,-394.25 1166.44,-396.37"/>
<polygon fill="#63b8ff" stroke="#63b8ff" points="1433.81,-321.02 1439.22,-311.91 1429.31,-315.65 1433.81,-321.02"/>
</g>
<!-- Node22 -->
<g id="node22" class="node">
<title>Node22</title>
<g id="a_node22"><a xlink:href="a01995.html#a545a44ae4b3fa2b7a61d9e8517fb7154" target="_top" xlink:title="reads a CBOR string">
<polygon fill="white" stroke="#666666" points="1344.12,-335.45 1223.12,-335.45 1223.12,-303.45 1344.12,-303.45 1344.12,-335.45"/>
<text xml:space="preserve" text-anchor="start" x="1231.12" y="-321.95" font-family="Helvetica,sans-Serif" font-size="10.00">nlohmann::detail::binary</text>
<text xml:space="preserve" text-anchor="middle" x="1283.62" y="-309.95" font-family="Helvetica,sans-Serif" font-size="10.00">_reader::get_cbor_string</text>
</a>
</g>
</g>
<!-- Node1&#45;&gt;Node22 -->
<g id="edge29" class="edge">
<title>Node1&#45;&gt;Node22</title>
<path fill="none" stroke="#63b8ff" d="M1384.92,-305.01C1371.4,-306.96 1357.44,-308.97 1344.39,-310.85"/>
<polygon fill="#63b8ff" stroke="#63b8ff" points="1385.24,-308.5 1394.64,-303.62 1384.24,-301.58 1385.24,-308.5"/>
</g>
<!-- Node23 -->
<g id="node23" class="node">
<title>Node23</title>
<g id="a_node23"><a xlink:href="a01995.html#ad8cba5585327caa550dd5b6dd25a64f8" target="_top" xlink:title="reads a MessagePack string">
<polygon fill="white" stroke="#666666" points="1354.62,-285.45 1212.62,-285.45 1212.62,-253.45 1354.62,-253.45 1354.62,-285.45"/>
<text xml:space="preserve" text-anchor="start" x="1220.62" y="-271.95" font-family="Helvetica,sans-Serif" font-size="10.00">nlohmann::detail::binary</text>
<text xml:space="preserve" text-anchor="middle" x="1283.62" y="-259.95" font-family="Helvetica,sans-Serif" font-size="10.00">_reader::get_msgpack_string</text>
</a>
</g>
</g>
<!-- Node1&#45;&gt;Node23 -->
<g id="edge33" class="edge">
<title>Node1&#45;&gt;Node23</title>
<path fill="none" stroke="#63b8ff" d="M1385.03,-283.89C1375.08,-282.46 1364.89,-280.99 1354.99,-279.57"/>
<polygon fill="#63b8ff" stroke="#63b8ff" points="1384.24,-287.32 1394.64,-285.28 1385.24,-280.39 1384.24,-287.32"/>
</g>
<!-- Node25 -->
<g id="node25" class="node">
<title>Node25</title>
<g id="a_node25"><a xlink:href="a01995.html#ae020385ce9424271d61f85d3842c02cb" target="_top" xlink:title=" ">
<polygon fill="white" stroke="#666666" points="966.75,-291.45 843.5,-291.45 843.5,-247.45 966.75,-247.45 966.75,-291.45"/>
<text xml:space="preserve" text-anchor="start" x="851.5" y="-277.95" font-family="Helvetica,sans-Serif" font-size="10.00">nlohmann::detail::binary</text>
<text xml:space="preserve" text-anchor="start" x="851.5" y="-265.95" font-family="Helvetica,sans-Serif" font-size="10.00">_reader::parse_msgpack</text>
<text xml:space="preserve" text-anchor="middle" x="905.12" y="-253.95" font-family="Helvetica,sans-Serif" font-size="10.00">_internal</text>
</a>
</g>
</g>
<!-- Node1&#45;&gt;Node25 -->
<g id="edge61" class="edge">
<title>Node1&#45;&gt;Node25</title>
<path fill="none" stroke="#63b8ff" d="M1424.41,-272.11C1406.19,-261.46 1382.89,-249.88 1360.25,-244.45 1214.18,-209.38 1171.63,-228.55 1022.25,-244.45 1004.2,-246.37 984.84,-249.92 967.2,-253.76"/>
<polygon fill="#63b8ff" stroke="#63b8ff" points="1422.57,-275.09 1432.94,-277.26 1426.19,-269.1 1422.57,-275.09"/>
</g>
<!-- Node27 -->
<g id="node27" class="node">
<title>Node27</title>
<g id="a_node27"><a xlink:href="a01995.html#a7b6c2d4c95d56751e233e285a5f1fea7" target="_top" xlink:title="determine the type and size for a container">
<polygon fill="white" stroke="#666666" points="1171,-197.45 1022.25,-197.45 1022.25,-165.45 1171,-165.45 1171,-197.45"/>
<text xml:space="preserve" text-anchor="start" x="1030.25" y="-183.95" font-family="Helvetica,sans-Serif" font-size="10.00">nlohmann::detail::binary</text>
<text xml:space="preserve" text-anchor="middle" x="1096.62" y="-171.95" font-family="Helvetica,sans-Serif" font-size="10.00">_reader::get_ubjson_size_type</text>
</a>
</g>
</g>
<!-- Node1&#45;&gt;Node27 -->
<g id="edge41" class="edge">
<title>Node1&#45;&gt;Node27</title>
<path fill="none" stroke="#63b8ff" d="M1437.01,-269.7C1418.73,-250.34 1390.62,-224.57 1360.25,-211.45 1300.22,-185.5 1225.65,-179.15 1171.32,-178.61"/>
<polygon fill="#63b8ff" stroke="#63b8ff" points="1434.33,-271.96 1443.67,-276.96 1439.49,-267.22 1434.33,-271.96"/>
</g>
<!-- Node29 -->
<g id="node29" class="node">
<title>Node29</title>
<g id="a_node29"><a xlink:href="a01995.html#a7e5e0b71548d0649ce4f131280d06c33" target="_top" xlink:title=" ">
<polygon fill="white" stroke="#666666" points="782.38,-125.45 652.38,-125.45 652.38,-93.45 782.38,-93.45 782.38,-125.45"/>
<text xml:space="preserve" text-anchor="start" x="660.38" y="-111.95" font-family="Helvetica,sans-Serif" font-size="10.00">nlohmann::detail::binary</text>
<text xml:space="preserve" text-anchor="middle" x="717.38" y="-99.95" font-family="Helvetica,sans-Serif" font-size="10.00">_reader::get_ubjson_value</text>
</a>
</g>
</g>
<!-- Node1&#45;&gt;Node29 -->
<g id="edge59" class="edge">
<title>Node1&#45;&gt;Node29</title>
<path fill="none" stroke="#63b8ff" d="M1451.5,-266.93C1439.96,-226.98 1412.64,-153.84 1360.25,-118.45 1267.67,-55.9 926.38,-85.81 782.75,-101.71"/>
<polygon fill="#63b8ff" stroke="#63b8ff" points="1448.11,-267.77 1454.13,-276.49 1454.86,-265.92 1448.11,-267.77"/>
</g>
<!-- Node32 -->
<g id="node32" class="node">
<title>Node32</title>
<g id="a_node32"><a xlink:href="a01995.html#aba7ba9ec9a52ad2bee8baff70176aa20" target="_top" xlink:title=" ">
<polygon fill="white" stroke="#666666" points="1360.25,-159.45 1207,-159.45 1207,-127.45 1360.25,-127.45 1360.25,-159.45"/>
<text xml:space="preserve" text-anchor="start" x="1215" y="-145.95" font-family="Helvetica,sans-Serif" font-size="10.00">nlohmann::detail::binary</text>
<text xml:space="preserve" text-anchor="middle" x="1283.62" y="-133.95" font-family="Helvetica,sans-Serif" font-size="10.00">_reader::get_ubjson_size_value</text>
</a>
</g>
</g>
<!-- Node1&#45;&gt;Node32 -->
<g id="edge52" class="edge">
<title>Node1&#45;&gt;Node32</title>
<path fill="none" stroke="#63b8ff" d="M1443.05,-268.55C1425.9,-241.54 1395.81,-199.57 1360.25,-173.45 1353.08,-168.18 1344.86,-163.69 1336.54,-159.91"/>
<polygon fill="#63b8ff" stroke="#63b8ff" points="1439.93,-270.16 1448.18,-276.82 1445.88,-266.48 1439.93,-270.16"/>
</g>
<!-- Node34 -->
<g id="node34" class="node">
<title>Node34</title>
<g id="a_node34"><a xlink:href="a01995.html#a4ae90db51c102e912b7eac83c78733a6" target="_top" xlink:title="reads a UBJSON string">
<polygon fill="white" stroke="#666666" points="970.5,-47.45 839.75,-47.45 839.75,-15.45 970.5,-15.45 970.5,-47.45"/>
<text xml:space="preserve" text-anchor="start" x="847.75" y="-33.95" font-family="Helvetica,sans-Serif" font-size="10.00">nlohmann::detail::binary</text>
<text xml:space="preserve" text-anchor="middle" x="905.12" y="-21.95" font-family="Helvetica,sans-Serif" font-size="10.00">_reader::get_ubjson_string</text>
</a>
</g>
</g>
<!-- Node1&#45;&gt;Node34 -->
<g id="edge56" class="edge">
<title>Node1&#45;&gt;Node34</title>
<path fill="none" stroke="#63b8ff" d="M1455.88,-266.97C1449.7,-216.62 1428.77,-110.27 1360.25,-61.45 1243.94,21.43 1065.48,2.23 970.62,-16.22"/>
<polygon fill="#63b8ff" stroke="#63b8ff" points="1452.38,-267.16 1456.96,-276.71 1459.34,-266.39 1452.38,-267.16"/>
</g>
<!-- Node3 -->
<g id="node3" class="node">
<title>Node3</title>
<g id="a_node3"><a xlink:href="a01995.html#a23bde2450d7a5772bf5051e36ff560a4" target="_top" xlink:title="Read a BSON document element of the given element_type.">
<polygon fill="white" stroke="#666666" points="1168.75,-594.45 1024.5,-594.45 1024.5,-550.45 1168.75,-550.45 1168.75,-594.45"/>
<text xml:space="preserve" text-anchor="start" x="1032.5" y="-580.95" font-family="Helvetica,sans-Serif" font-size="10.00">nlohmann::detail::binary</text>
<text xml:space="preserve" text-anchor="start" x="1032.5" y="-568.95" font-family="Helvetica,sans-Serif" font-size="10.00">_reader::parse_bson_element</text>
<text xml:space="preserve" text-anchor="middle" x="1096.62" y="-556.95" font-family="Helvetica,sans-Serif" font-size="10.00">_internal</text>
</a>
</g>
</g>
<!-- Node2&#45;&gt;Node3 -->
<g id="edge2" class="edge">
<title>Node2&#45;&gt;Node3</title>
<path fill="none" stroke="#63b8ff" d="M1209.11,-577.87C1195.96,-577.23 1182.26,-576.56 1169.16,-575.93"/>
<polygon fill="#63b8ff" stroke="#63b8ff" points="1208.84,-581.36 1219,-578.35 1209.18,-574.37 1208.84,-581.36"/>
</g>
<!-- Node4 -->
<g id="node4" class="node">
<title>Node4</title>
<g id="a_node4"><a xlink:href="a01995.html#a4e07b75ccb2579d0e738b894f0fd8cf8" target="_top" xlink:title="Read a BSON element list (as specified in the BSON&#45;spec)">
<polygon fill="white" stroke="#666666" points="986.25,-588.45 824,-588.45 824,-556.45 986.25,-556.45 986.25,-588.45"/>
<text xml:space="preserve" text-anchor="start" x="832" y="-574.95" font-family="Helvetica,sans-Serif" font-size="10.00">nlohmann::detail::binary</text>
<text xml:space="preserve" text-anchor="middle" x="905.12" y="-562.95" font-family="Helvetica,sans-Serif" font-size="10.00">_reader::parse_bson_element_list</text>
</a>
</g>
</g>
<!-- Node3&#45;&gt;Node4 -->
<g id="edge3" class="edge">
<title>Node3&#45;&gt;Node4</title>
<path fill="none" stroke="#63b8ff" d="M1012.9,-572.45C1004.19,-572.45 995.34,-572.45 986.65,-572.45"/>
<polygon fill="#63b8ff" stroke="#63b8ff" points="1012.74,-575.95 1022.74,-572.45 1012.74,-568.95 1012.74,-575.95"/>
</g>
<!-- Node5 -->
<g id="node5" class="node">
<title>Node5</title>
<g id="a_node5"><a xlink:href="a01995.html#a23eb89a222e22533e9fd43e76722f44f" target="_top" xlink:title="Reads an array from the BSON input and passes it to the SAX&#45;parser.">
<polygon fill="white" stroke="#666666" points="783.12,-614.45 651.62,-614.45 651.62,-582.45 783.12,-582.45 783.12,-614.45"/>
<text xml:space="preserve" text-anchor="start" x="659.62" y="-600.95" font-family="Helvetica,sans-Serif" font-size="10.00">nlohmann::detail::binary</text>
<text xml:space="preserve" text-anchor="middle" x="717.38" y="-588.95" font-family="Helvetica,sans-Serif" font-size="10.00">_reader::parse_bson_array</text>
</a>
</g>
</g>
<!-- Node4&#45;&gt;Node5 -->
<g id="edge4" class="edge">
<title>Node4&#45;&gt;Node5</title>
<path fill="none" stroke="#63b8ff" d="M812.34,-585.29C802.61,-586.66 792.86,-588.02 783.52,-589.33"/>
<polygon fill="#63b8ff" stroke="#63b8ff" points="812.82,-588.76 822.23,-583.91 811.85,-581.83 812.82,-588.76"/>
</g>
<!-- Node6 -->
<g id="node6" class="node">
<title>Node6</title>
<g id="a_node6"><a xlink:href="a01995.html#abf2051ba57d9ea9b378a2e7c14e22b34" target="_top" xlink:title="Reads in a BSON&#45;object and passes it to the SAX&#45;parser.">
<polygon fill="white" stroke="#666666" points="788,-547.45 646.75,-547.45 646.75,-515.45 788,-515.45 788,-547.45"/>
<text xml:space="preserve" text-anchor="start" x="654.75" y="-533.95" font-family="Helvetica,sans-Serif" font-size="10.00">nlohmann::detail::binary</text>
<text xml:space="preserve" text-anchor="middle" x="717.38" y="-521.95" font-family="Helvetica,sans-Serif" font-size="10.00">_reader::parse_bson_internal</text>
</a>
</g>
</g>
<!-- Node4&#45;&gt;Node6 -->
<g id="edge6" class="edge">
<title>Node4&#45;&gt;Node6</title>
<path fill="none" stroke="#63b8ff" d="M818.2,-553.48C808.24,-551.28 798.17,-549.06 788.46,-546.91"/>
<polygon fill="#63b8ff" stroke="#63b8ff" points="817.38,-556.88 827.9,-555.62 818.89,-550.05 817.38,-556.88"/>
</g>
<!-- Node5&#45;&gt;Node3 -->
<g id="edge5" class="edge">
<title>Node5&#45;&gt;Node3</title>
<path fill="none" stroke="#63b8ff" d="M795.06,-602.63C848.77,-604.48 922.11,-604.8 986.25,-597.45 998.63,-596.02 1011.66,-593.75 1024.24,-591.14"/>
<polygon fill="#63b8ff" stroke="#63b8ff" points="795.2,-599.14 785.08,-602.26 794.94,-606.13 795.2,-599.14"/>
</g>
<!-- Node6&#45;&gt;Node3 -->
<g id="edge7" class="edge">
<title>Node6&#45;&gt;Node3</title>
<path fill="none" stroke="#63b8ff" d="M799.78,-532.82C853.05,-534.58 924.06,-538.54 986.25,-547.45 998.59,-549.21 1011.6,-551.66 1024.16,-554.33"/>
<polygon fill="#63b8ff" stroke="#63b8ff" points="799.97,-529.33 789.86,-532.52 799.75,-536.32 799.97,-529.33"/>
</g>
<!-- Node6&#45;&gt;Node7 -->
<g id="edge8" class="edge">
<title>Node6&#45;&gt;Node7</title>
<path fill="none" stroke="#63b8ff" d="M635.16,-530.27C584.28,-527.5 517.98,-520.12 462,-501.45 432.61,-491.64 402.34,-472.68 382.59,-458.89"/>
<polygon fill="#63b8ff" stroke="#63b8ff" points="634.76,-533.75 644.92,-530.75 635.1,-526.76 634.76,-533.75"/>
</g>
<!-- Node8 -->
<g id="node8" class="node">
<title>Node8</title>
<g id="a_node8"><a xlink:href="a01659.html#a4e02793f2691aa29ab7cb69fddafbf5c" target="_top" xlink:title="Create a JSON value from an input in BSON format.">
<polygon fill="white" stroke="#666666" points="257,-558.45 146.5,-558.45 146.5,-526.45 257,-526.45 257,-558.45"/>
<text xml:space="preserve" text-anchor="start" x="154.5" y="-544.95" font-family="Helvetica,sans-Serif" font-size="10.00">nlohmann::basic_json</text>
<text xml:space="preserve" text-anchor="middle" x="201.75" y="-532.95" font-family="Helvetica,sans-Serif" font-size="10.00">::from_bson</text>
</a>
</g>
</g>
<!-- Node7&#45;&gt;Node8 -->
<g id="edge9" class="edge">
<title>Node7&#45;&gt;Node8</title>
<path fill="none" stroke="#63b8ff" d="M330.33,-465.71C310.54,-481.42 283.05,-502.04 257,-517.45 251.91,-520.45 246.4,-523.36 240.91,-526.07"/>
<polygon fill="#63b8ff" stroke="#63b8ff" points="332.33,-468.59 337.93,-459.6 327.95,-463.13 332.33,-468.59"/>
</g>
<!-- Node10 -->
<g id="node10" class="node">
<title>Node10</title>
<g id="a_node10"><a xlink:href="a01659.html#a44dd5635fb2da4710f6cd6e42b72773f" target="_top" xlink:title="create a JSON value from an input in CBOR format">
<polygon fill="white" stroke="#666666" points="257,-508.45 146.5,-508.45 146.5,-476.45 257,-476.45 257,-508.45"/>
<text xml:space="preserve" text-anchor="start" x="154.5" y="-494.95" font-family="Helvetica,sans-Serif" font-size="10.00">nlohmann::basic_json</text>
<text xml:space="preserve" text-anchor="middle" x="201.75" y="-482.95" font-family="Helvetica,sans-Serif" font-size="10.00">::from_cbor</text>
</a>
</g>
</g>
<!-- Node7&#45;&gt;Node10 -->
<g id="edge11" class="edge">
<title>Node7&#45;&gt;Node10</title>
<path fill="none" stroke="#63b8ff" d="M296.86,-462.24C282.7,-466.78 267.8,-471.56 254.13,-475.95"/>
<polygon fill="#63b8ff" stroke="#63b8ff" points="297.61,-465.67 306.06,-459.28 295.47,-459 297.61,-465.67"/>
</g>
<!-- Node12 -->
<g id="node12" class="node">
<title>Node12</title>
<g id="a_node12"><a xlink:href="a01659.html#adbcab52fca1e25b3311ef14e71a57590" target="_top" xlink:title="create a JSON value from an input in MessagePack format">
<polygon fill="white" stroke="#666666" points="257,-458.45 146.5,-458.45 146.5,-426.45 257,-426.45 257,-458.45"/>
<text xml:space="preserve" text-anchor="start" x="154.5" y="-444.95" font-family="Helvetica,sans-Serif" font-size="10.00">nlohmann::basic_json</text>
<text xml:space="preserve" text-anchor="middle" x="201.75" y="-432.95" font-family="Helvetica,sans-Serif" font-size="10.00">::from_msgpack</text>
</a>
</g>
</g>
<!-- Node7&#45;&gt;Node12 -->
<g id="edge13" class="edge">
<title>Node7&#45;&gt;Node12</title>
<path fill="none" stroke="#63b8ff" d="M288.42,-442.45C278,-442.45 267.39,-442.45 257.35,-442.45"/>
<polygon fill="#63b8ff" stroke="#63b8ff" points="288.1,-445.95 298.1,-442.45 288.1,-438.95 288.1,-445.95"/>
</g>
<!-- Node14 -->
<g id="node14" class="node">
<title>Node14</title>
<g id="a_node14"><a xlink:href="a01659.html#aa81f62db69978b90ff701f05c72e03a7" target="_top" xlink:title="create a JSON value from an input in UBJSON format">
<polygon fill="white" stroke="#666666" points="257,-408.45 146.5,-408.45 146.5,-376.45 257,-376.45 257,-408.45"/>
<text xml:space="preserve" text-anchor="start" x="154.5" y="-394.95" font-family="Helvetica,sans-Serif" font-size="10.00">nlohmann::basic_json</text>
<text xml:space="preserve" text-anchor="middle" x="201.75" y="-382.95" font-family="Helvetica,sans-Serif" font-size="10.00">::from_ubjson</text>
</a>
</g>
</g>
<!-- Node7&#45;&gt;Node14 -->
<g id="edge15" class="edge">
<title>Node7&#45;&gt;Node14</title>
<path fill="none" stroke="#63b8ff" d="M296.86,-422.66C282.7,-418.11 267.8,-413.33 254.13,-408.94"/>
<polygon fill="#63b8ff" stroke="#63b8ff" points="295.47,-425.89 306.06,-425.61 297.61,-419.22 295.47,-425.89"/>
</g>
<!-- Node16 -->
<g id="node16" class="node">
<title>Node16</title>
<g id="a_node16"><a xlink:href="a01659.html#a12b382c6407da5543827ce4b24bb5008" target="_top" xlink:title="generate SAX events">
<polygon fill="white" stroke="#666666" points="257,-358.45 146.5,-358.45 146.5,-326.45 257,-326.45 257,-358.45"/>
<text xml:space="preserve" text-anchor="start" x="154.5" y="-344.95" font-family="Helvetica,sans-Serif" font-size="10.00">nlohmann::basic_json</text>
<text xml:space="preserve" text-anchor="middle" x="201.75" y="-332.95" font-family="Helvetica,sans-Serif" font-size="10.00">::sax_parse</text>
</a>
</g>
</g>
<!-- Node7&#45;&gt;Node16 -->
<g id="edge17" class="edge">
<title>Node7&#45;&gt;Node16</title>
<path fill="none" stroke="#63b8ff" d="M330.33,-419.18C310.54,-403.47 283.05,-382.85 257,-367.45 251.91,-364.44 246.4,-361.53 240.91,-358.82"/>
<polygon fill="#63b8ff" stroke="#63b8ff" points="327.95,-421.76 337.93,-425.3 332.33,-416.3 327.95,-421.76"/>
</g>
<!-- Node9 -->
<g id="node9" class="node">
<title>Node9</title>
<g id="a_node9"><a xlink:href="a01659.html#ae2612581e4788ddffc2f45d5e4cc04fc" target="_top" xlink:title=" ">
<polygon fill="white" stroke="#666666" points="110.5,-558.45 0,-558.45 0,-526.45 110.5,-526.45 110.5,-558.45"/>
<text xml:space="preserve" text-anchor="start" x="8" y="-544.95" font-family="Helvetica,sans-Serif" font-size="10.00">nlohmann::basic_json</text>
<text xml:space="preserve" text-anchor="middle" x="55.25" y="-532.95" font-family="Helvetica,sans-Serif" font-size="10.00">::from_bson</text>
</a>
</g>
</g>
<!-- Node8&#45;&gt;Node9 -->
<g id="edge10" class="edge">
<title>Node8&#45;&gt;Node9</title>
<path fill="none" stroke="#63b8ff" d="M134.63,-542.45C126.71,-542.45 118.69,-542.45 110.96,-542.45"/>
<polygon fill="#63b8ff" stroke="#63b8ff" points="134.61,-545.95 144.61,-542.45 134.61,-538.95 134.61,-545.95"/>
</g>
<!-- Node11 -->
<g id="node11" class="node">
<title>Node11</title>
<g id="a_node11"><a xlink:href="a01659.html#a188755c8cda27e2afb03c016c14125d8" target="_top" xlink:title=" ">
<polygon fill="white" stroke="#666666" points="110.5,-508.45 0,-508.45 0,-476.45 110.5,-476.45 110.5,-508.45"/>
<text xml:space="preserve" text-anchor="start" x="8" y="-494.95" font-family="Helvetica,sans-Serif" font-size="10.00">nlohmann::basic_json</text>
<text xml:space="preserve" text-anchor="middle" x="55.25" y="-482.95" font-family="Helvetica,sans-Serif" font-size="10.00">::from_cbor</text>
</a>
</g>
</g>
<!-- Node10&#45;&gt;Node11 -->
<g id="edge12" class="edge">
<title>Node10&#45;&gt;Node11</title>
<path fill="none" stroke="#63b8ff" d="M134.63,-492.45C126.71,-492.45 118.69,-492.45 110.96,-492.45"/>
<polygon fill="#63b8ff" stroke="#63b8ff" points="134.61,-495.95 144.61,-492.45 134.61,-488.95 134.61,-495.95"/>
</g>
<!-- Node13 -->
<g id="node13" class="node">
<title>Node13</title>
<g id="a_node13"><a xlink:href="a01659.html#a0d69d3102639759d5202a6f764760d23" target="_top" xlink:title=" ">
<polygon fill="white" stroke="#666666" points="110.5,-458.45 0,-458.45 0,-426.45 110.5,-426.45 110.5,-458.45"/>
<text xml:space="preserve" text-anchor="start" x="8" y="-444.95" font-family="Helvetica,sans-Serif" font-size="10.00">nlohmann::basic_json</text>
<text xml:space="preserve" text-anchor="middle" x="55.25" y="-432.95" font-family="Helvetica,sans-Serif" font-size="10.00">::from_msgpack</text>
</a>
</g>
</g>
<!-- Node12&#45;&gt;Node13 -->
<g id="edge14" class="edge">
<title>Node12&#45;&gt;Node13</title>
<path fill="none" stroke="#63b8ff" d="M134.63,-442.45C126.71,-442.45 118.69,-442.45 110.96,-442.45"/>
<polygon fill="#63b8ff" stroke="#63b8ff" points="134.61,-445.95 144.61,-442.45 134.61,-438.95 134.61,-445.95"/>
</g>
<!-- Node15 -->
<g id="node15" class="node">
<title>Node15</title>
<g id="a_node15"><a xlink:href="a01659.html#ab6eeda23c34cee79d8d72f1a8691a8de" target="_top" xlink:title=" ">
<polygon fill="white" stroke="#666666" points="110.5,-408.45 0,-408.45 0,-376.45 110.5,-376.45 110.5,-408.45"/>
<text xml:space="preserve" text-anchor="start" x="8" y="-394.95" font-family="Helvetica,sans-Serif" font-size="10.00">nlohmann::basic_json</text>
<text xml:space="preserve" text-anchor="middle" x="55.25" y="-382.95" font-family="Helvetica,sans-Serif" font-size="10.00">::from_ubjson</text>
</a>
</g>
</g>
<!-- Node14&#45;&gt;Node15 -->
<g id="edge16" class="edge">
<title>Node14&#45;&gt;Node15</title>
<path fill="none" stroke="#63b8ff" d="M134.63,-392.45C126.71,-392.45 118.69,-392.45 110.96,-392.45"/>
<polygon fill="#63b8ff" stroke="#63b8ff" points="134.61,-395.95 144.61,-392.45 134.61,-388.95 134.61,-395.95"/>
</g>
<!-- Node17&#45;&gt;Node3 -->
<g id="edge19" class="edge">
<title>Node17&#45;&gt;Node3</title>
<path fill="none" stroke="#63b8ff" d="M1210.36,-547.46C1196.85,-550.46 1182.73,-553.58 1169.24,-556.57"/>
<polygon fill="#63b8ff" stroke="#63b8ff" points="1211.05,-550.89 1220.06,-545.31 1209.54,-544.06 1211.05,-550.89"/>
</g>
<!-- Node18&#45;&gt;Node18 -->
<g id="edge21" class="edge">
<title>Node18&#45;&gt;Node18</title>
<path fill="none" stroke="#63b8ff" d="M1312.91,-453.15C1308.03,-456.93 1298.27,-459.45 1283.62,-459.45 1256.85,-459.45 1246.39,-451.03 1252.25,-441.89"/>
<polygon fill="#63b8ff" stroke="#63b8ff" points="1316.34,-453.85 1314.73,-443.38 1309.46,-452.57 1316.34,-453.85"/>
</g>
<!-- Node18&#45;&gt;Node19 -->
<g id="edge22" class="edge">
<title>Node18&#45;&gt;Node19</title>
<path fill="none" stroke="#63b8ff" d="M1210.57,-414.15C1196.02,-411.87 1180.76,-409.48 1166.32,-407.21"/>
<polygon fill="#63b8ff" stroke="#63b8ff" points="1209.62,-417.54 1220.04,-415.64 1210.7,-410.63 1209.62,-417.54"/>
</g>
<!-- Node19&#45;&gt;Node7 -->
<g id="edge28" class="edge">
<title>Node19&#45;&gt;Node7</title>
<path fill="none" stroke="#63b8ff" d="M1027.93,-415.52C1014.23,-418.71 999.86,-421.58 986.25,-423.45 779.5,-451.78 530.89,-448.3 419.51,-444.79"/>
<polygon fill="#63b8ff" stroke="#63b8ff" points="1028.36,-419.01 1037.26,-413.26 1026.72,-412.21 1028.36,-419.01"/>
</g>
<!-- Node19&#45;&gt;Node19 -->
<g id="edge27" class="edge">
<title>Node19&#45;&gt;Node19</title>
<path fill="none" stroke="#63b8ff" d="M1127.79,-424.15C1122.59,-427.93 1112.2,-430.45 1096.62,-430.45 1068.14,-430.45 1057.01,-422.03 1063.24,-412.89"/>
<polygon fill="#63b8ff" stroke="#63b8ff" points="1131.22,-424.86 1129.72,-414.37 1124.35,-423.51 1131.22,-424.86"/>
</g>
<!-- Node20 -->
<g id="node20" class="node">
<title>Node20</title>
<g id="a_node20"><a xlink:href="a01995.html#a3750658328bf3ec3cf23f1626f9ec3af" target="_top" xlink:title=" ">
<polygon fill="white" stroke="#666666" points="964.88,-414.45 845.38,-414.45 845.38,-382.45 964.88,-382.45 964.88,-414.45"/>
<text xml:space="preserve" text-anchor="start" x="853.38" y="-400.95" font-family="Helvetica,sans-Serif" font-size="10.00">nlohmann::detail::binary</text>
<text xml:space="preserve" text-anchor="middle" x="905.12" y="-388.95" font-family="Helvetica,sans-Serif" font-size="10.00">_reader::get_cbor_array</text>
</a>
</g>
</g>
<!-- Node19&#45;&gt;Node20 -->
<g id="edge23" class="edge">
<title>Node19&#45;&gt;Node20</title>
<path fill="none" stroke="#63b8ff" d="M1015.21,-390.61C998.48,-390.63 981.14,-390.93 965.33,-391.51"/>
<polygon fill="#63b8ff" stroke="#63b8ff" points="1015.15,-394.11 1025.16,-390.65 1015.17,-387.11 1015.15,-394.11"/>
</g>
<!-- Node21 -->
<g id="node21" class="node">
<title>Node21</title>
<g id="a_node21"><a xlink:href="a01995.html#a47092a2195bf9cd3cdb4dda67cc404ed" target="_top" xlink:title=" ">
<polygon fill="white" stroke="#666666" points="966.75,-364.45 843.5,-364.45 843.5,-332.45 966.75,-332.45 966.75,-364.45"/>
<text xml:space="preserve" text-anchor="start" x="851.5" y="-350.95" font-family="Helvetica,sans-Serif" font-size="10.00">nlohmann::detail::binary</text>
<text xml:space="preserve" text-anchor="middle" x="905.12" y="-338.95" font-family="Helvetica,sans-Serif" font-size="10.00">_reader::get_cbor_object</text>
</a>
</g>
</g>
<!-- Node19&#45;&gt;Node21 -->
<g id="edge25" class="edge">
<title>Node19&#45;&gt;Node21</title>
<path fill="none" stroke="#63b8ff" d="M1042.76,-376.93C1019.27,-370.23 991.49,-363.12 967.12,-357.54"/>
<polygon fill="#63b8ff" stroke="#63b8ff" points="1041.54,-380.22 1052.12,-379.65 1043.49,-373.5 1041.54,-380.22"/>
</g>
<!-- Node20&#45;&gt;Node19 -->
<g id="edge24" class="edge">
<title>Node20&#45;&gt;Node19</title>
<path fill="none" stroke="#63b8ff" d="M976.49,-404.25C992.89,-404.36 1010.34,-404.16 1026.68,-403.7"/>
<polygon fill="#63b8ff" stroke="#63b8ff" points="976.89,-400.75 966.85,-404.15 976.81,-407.75 976.89,-400.75"/>
</g>
<!-- Node21&#45;&gt;Node19 -->
<g id="edge26" class="edge">
<title>Node21&#45;&gt;Node19</title>
<path fill="none" stroke="#63b8ff" d="M959.46,-368.1C980.32,-374.04 1004.52,-380.29 1026.68,-385.5"/>
<polygon fill="#63b8ff" stroke="#63b8ff" points="960.6,-364.78 950.02,-365.36 958.65,-371.51 960.6,-364.78"/>
</g>
<!-- Node22&#45;&gt;Node19 -->
<g id="edge32" class="edge">
<title>Node22&#45;&gt;Node19</title>
<path fill="none" stroke="#63b8ff" d="M1233.11,-340.06C1203.04,-352.57 1165.17,-368.33 1137.12,-380.01"/>
<polygon fill="#63b8ff" stroke="#63b8ff" points="1234.11,-343.43 1241.99,-336.36 1231.42,-336.97 1234.11,-343.43"/>
</g>
<!-- Node22&#45;&gt;Node21 -->
<g id="edge30" class="edge">
<title>Node22&#45;&gt;Node21</title>
<path fill="none" stroke="#63b8ff" d="M1211.53,-324.92C1140.94,-330.36 1033.87,-338.61 967.06,-343.75"/>
<polygon fill="#63b8ff" stroke="#63b8ff" points="1211.76,-328.41 1221.46,-324.16 1211.22,-321.44 1211.76,-328.41"/>
</g>
<!-- Node22&#45;&gt;Node22 -->
<g id="edge31" class="edge">
<title>Node22&#45;&gt;Node22</title>
<path fill="none" stroke="#63b8ff" d="M1312.91,-347.15C1308.03,-350.93 1298.27,-353.45 1283.62,-353.45 1256.85,-353.45 1246.39,-345.03 1252.25,-335.89"/>
<polygon fill="#63b8ff" stroke="#63b8ff" points="1316.34,-347.85 1314.73,-337.38 1309.46,-346.57 1316.34,-347.85"/>
</g>
<!-- Node24 -->
<g id="node24" class="node">
<title>Node24</title>
<g id="a_node24"><a xlink:href="a01995.html#a8bebd21ceef09b6b2562e87861832700" target="_top" xlink:title=" ">
<polygon fill="white" stroke="#666666" points="1168.75,-285.45 1024.5,-285.45 1024.5,-253.45 1168.75,-253.45 1168.75,-285.45"/>
<text xml:space="preserve" text-anchor="start" x="1032.5" y="-271.95" font-family="Helvetica,sans-Serif" font-size="10.00">nlohmann::detail::binary</text>
<text xml:space="preserve" text-anchor="middle" x="1096.62" y="-259.95" font-family="Helvetica,sans-Serif" font-size="10.00">_reader::get_msgpack_object</text>
</a>
</g>
</g>
<!-- Node23&#45;&gt;Node24 -->
<g id="edge34" class="edge">
<title>Node23&#45;&gt;Node24</title>
<path fill="none" stroke="#63b8ff" d="M1200.8,-269.45C1190.24,-269.45 1179.5,-269.45 1169.12,-269.45"/>
<polygon fill="#63b8ff" stroke="#63b8ff" points="1200.64,-272.95 1210.64,-269.45 1200.64,-265.95 1200.64,-272.95"/>
</g>
<!-- Node23&#45;&gt;Node25 -->
<g id="edge40" class="edge">
<title>Node23&#45;&gt;Node25</title>
<path fill="none" stroke="#63b8ff" d="M1209.41,-288.25C1196.69,-290.83 1183.52,-293.06 1171,-294.45 1105.29,-301.71 1087.99,-301.44 1022.25,-294.45 1004.2,-292.53 984.84,-288.97 967.2,-285.13"/>
<polygon fill="#63b8ff" stroke="#63b8ff" points="1209.92,-291.72 1218.97,-286.23 1208.46,-284.87 1209.92,-291.72"/>
</g>
<!-- Node24&#45;&gt;Node25 -->
<g id="edge35" class="edge">
<title>Node24&#45;&gt;Node25</title>
<path fill="none" stroke="#63b8ff" d="M1013.12,-262.75C997.7,-262.62 981.83,-262.73 967.2,-263.09"/>
<polygon fill="#63b8ff" stroke="#63b8ff" points="1012.7,-266.24 1022.74,-262.86 1012.78,-259.24 1012.7,-266.24"/>
</g>
<!-- Node25&#45;&gt;Node7 -->
<g id="edge39" class="edge">
<title>Node25&#45;&gt;Node7</title>
<path fill="none" stroke="#63b8ff" d="M832.3,-292.3C720.97,-327.73 509.43,-395.05 411.99,-426.06"/>
<polygon fill="#63b8ff" stroke="#63b8ff" points="833.17,-295.7 841.64,-289.33 831.05,-289.03 833.17,-295.7"/>
</g>
<!-- Node25&#45;&gt;Node24 -->
<g id="edge38" class="edge">
<title>Node25&#45;&gt;Node24</title>
<path fill="none" stroke="#63b8ff" d="M978.49,-276.03C993.49,-276.26 1009.29,-276.25 1024.25,-276.01"/>
<polygon fill="#63b8ff" stroke="#63b8ff" points="978.78,-272.53 968.71,-275.83 978.64,-279.53 978.78,-272.53"/>
</g>
<!-- Node26 -->
<g id="node26" class="node">
<title>Node26</title>
<g id="a_node26"><a xlink:href="a01995.html#a0ce1d7066597952efb008aaf578b2bd6" target="_top" xlink:title=" ">
<polygon fill="white" stroke="#666666" points="787.25,-285.45 647.5,-285.45 647.5,-253.45 787.25,-253.45 787.25,-285.45"/>
<text xml:space="preserve" text-anchor="start" x="655.5" y="-271.95" font-family="Helvetica,sans-Serif" font-size="10.00">nlohmann::detail::binary</text>
<text xml:space="preserve" text-anchor="middle" x="717.38" y="-259.95" font-family="Helvetica,sans-Serif" font-size="10.00">_reader::get_msgpack_array</text>
</a>
</g>
</g>
<!-- Node25&#45;&gt;Node26 -->
<g id="edge36" class="edge">
<title>Node25&#45;&gt;Node26</title>
<path fill="none" stroke="#63b8ff" d="M831.6,-262.84C817.1,-262.63 801.91,-262.65 787.53,-262.9"/>
<polygon fill="#63b8ff" stroke="#63b8ff" points="831.47,-266.34 841.53,-263.03 831.6,-259.34 831.47,-266.34"/>
</g>
<!-- Node26&#45;&gt;Node25 -->
<g id="edge37" class="edge">
<title>Node26&#45;&gt;Node25</title>
<path fill="none" stroke="#63b8ff" d="M798.77,-276.14C813.61,-276.27 828.89,-276.17 843.05,-275.83"/>
<polygon fill="#63b8ff" stroke="#63b8ff" points="799.09,-272.65 789.04,-276.02 799,-279.64 799.09,-272.65"/>
</g>
<!-- Node28 -->
<g id="node28" class="node">
<title>Node28</title>
<g id="a_node28"><a xlink:href="a01995.html#afb36cb588b795efa513fc95e949493b7" target="_top" xlink:title=" ">
<polygon fill="white" stroke="#666666" points="969.38,-173.45 840.88,-173.45 840.88,-141.45 969.38,-141.45 969.38,-173.45"/>
<text xml:space="preserve" text-anchor="start" x="848.88" y="-159.95" font-family="Helvetica,sans-Serif" font-size="10.00">nlohmann::detail::binary</text>
<text xml:space="preserve" text-anchor="middle" x="905.12" y="-147.95" font-family="Helvetica,sans-Serif" font-size="10.00">_reader::get_ubjson_array</text>
</a>
</g>
</g>
<!-- Node27&#45;&gt;Node28 -->
<g id="edge42" class="edge">
<title>Node27&#45;&gt;Node28</title>
<path fill="none" stroke="#63b8ff" d="M1010.79,-170.7C996.94,-168.95 982.81,-167.16 969.58,-165.48"/>
<polygon fill="#63b8ff" stroke="#63b8ff" points="1009.95,-174.12 1020.32,-171.91 1010.83,-167.18 1009.95,-174.12"/>
</g>
<!-- Node30 -->
<g id="node30" class="node">
<title>Node30</title>
<g id="a_node30"><a xlink:href="a01995.html#adcf64ad3207f4bf37a5a31c920a385c3" target="_top" xlink:title=" ">
<polygon fill="white" stroke="#666666" points="426,-120.45 293,-120.45 293,-88.45 426,-88.45 426,-120.45"/>
<text xml:space="preserve" text-anchor="start" x="301" y="-106.95" font-family="Helvetica,sans-Serif" font-size="10.00">nlohmann::detail::binary</text>
<text xml:space="preserve" text-anchor="middle" x="359.5" y="-94.95" font-family="Helvetica,sans-Serif" font-size="10.00">_reader::get_ubjson_object</text>
</a>
</g>
</g>
<!-- Node27&#45;&gt;Node30 -->
<g id="edge51" class="edge">
<title>Node27&#45;&gt;Node30</title>
<path fill="none" stroke="#63b8ff" d="M1010.58,-198.55C886.26,-219.82 649.36,-246.12 462,-182.45 426.23,-170.29 393.21,-139.88 375.06,-120.82"/>
<polygon fill="#63b8ff" stroke="#63b8ff" points="1011.15,-202 1020.4,-196.83 1009.94,-195.1 1011.15,-202"/>
</g>
<!-- Node28&#45;&gt;Node29 -->
<g id="edge43" class="edge">
<title>Node28&#45;&gt;Node29</title>
<path fill="none" stroke="#63b8ff" d="M852.03,-137.85C830.56,-131.61 805.45,-125.01 782.84,-119.64"/>
<polygon fill="#63b8ff" stroke="#63b8ff" points="850.87,-141.15 861.45,-140.64 852.86,-134.44 850.87,-141.15"/>
</g>
<!-- Node29&#45;&gt;Node28 -->
<g id="edge44" class="edge">
<title>Node29&#45;&gt;Node28</title>
<path fill="none" stroke="#63b8ff" d="M770.77,-129.13C792.43,-135.42 817.74,-142.06 840.46,-147.44"/>
<polygon fill="#63b8ff" stroke="#63b8ff" points="771.85,-125.8 761.26,-126.31 769.86,-132.51 771.85,-125.8"/>
</g>
<!-- Node29&#45;&gt;Node30 -->
<g id="edge45" class="edge">
<title>Node29&#45;&gt;Node30</title>
<path fill="none" stroke="#63b8ff" d="M640.76,-102.74C577.11,-100.29 486.98,-99.11 426.27,-99.99"/>
<polygon fill="#63b8ff" stroke="#63b8ff" points="640.28,-106.23 650.42,-103.14 640.57,-99.23 640.28,-106.23"/>
</g>
<!-- Node31 -->
<g id="node31" class="node">
<title>Node31</title>
<g id="a_node31"><a xlink:href="a01995.html#a5a79480d661019b0f3fc615ae12f7de7" target="_top" xlink:title=" ">
<polygon fill="white" stroke="#666666" points="610.75,-173.45 462,-173.45 462,-141.45 610.75,-141.45 610.75,-173.45"/>
<text xml:space="preserve" text-anchor="start" x="470" y="-159.95" font-family="Helvetica,sans-Serif" font-size="10.00">nlohmann::detail::binary</text>
<text xml:space="preserve" text-anchor="middle" x="536.38" y="-147.95" font-family="Helvetica,sans-Serif" font-size="10.00">_reader::parse_ubjson_internal</text>
</a>
</g>
</g>
<!-- Node29&#45;&gt;Node31 -->
<g id="edge47" class="edge">
<title>Node29&#45;&gt;Node31</title>
<path fill="none" stroke="#63b8ff" d="M644.18,-128.81C629.08,-132.85 613.3,-137.09 598.65,-141.02"/>
<polygon fill="#63b8ff" stroke="#63b8ff" points="644.81,-132.26 653.56,-126.29 643,-125.5 644.81,-132.26"/>
</g>
<!-- Node30&#45;&gt;Node29 -->
<g id="edge46" class="edge">
<title>Node30&#45;&gt;Node29</title>
<path fill="none" stroke="#63b8ff" d="M437.51,-111.2C501.56,-113.64 591.65,-114.79 651.93,-113.88"/>
<polygon fill="#63b8ff" stroke="#63b8ff" points="437.92,-107.71 427.79,-110.81 437.64,-114.71 437.92,-107.71"/>
</g>
<!-- Node31&#45;&gt;Node7 -->
<g id="edge50" class="edge">
<title>Node31&#45;&gt;Node7</title>
<path fill="none" stroke="#63b8ff" d="M519.45,-183.39C484.03,-241.12 399.56,-378.79 370.51,-426.13"/>
<polygon fill="#63b8ff" stroke="#63b8ff" points="522.43,-185.23 524.68,-174.88 516.47,-181.57 522.43,-185.23"/>
</g>
<!-- Node31&#45;&gt;Node28 -->
<g id="edge48" class="edge">
<title>Node31&#45;&gt;Node28</title>
<path fill="none" stroke="#63b8ff" d="M622.4,-157.45C689.04,-157.45 780.29,-157.45 840.66,-157.45"/>
<polygon fill="#63b8ff" stroke="#63b8ff" points="622.61,-153.95 612.61,-157.45 622.61,-160.95 622.61,-153.95"/>
</g>
<!-- Node31&#45;&gt;Node30 -->
<g id="edge49" class="edge">
<title>Node31&#45;&gt;Node30</title>
<path fill="none" stroke="#63b8ff" d="M470.17,-137.68C451.95,-132.16 432.36,-126.22 414.84,-120.91"/>
<polygon fill="#63b8ff" stroke="#63b8ff" points="468.97,-140.98 479.55,-140.53 471,-134.28 468.97,-140.98"/>
</g>
<!-- Node32&#45;&gt;Node27 -->
<g id="edge55" class="edge">
<title>Node32&#45;&gt;Node27</title>
<path fill="none" stroke="#63b8ff" d="M1195.56,-161.33C1187.44,-163 1179.27,-164.68 1171.29,-166.31"/>
<polygon fill="#63b8ff" stroke="#63b8ff" points="1196,-164.81 1205.09,-159.37 1194.6,-157.95 1196,-164.81"/>
</g>
<!-- Node33 -->
<g id="node33" class="node">
<title>Node33</title>
<g id="a_node33"><a xlink:href="a01995.html#a26c694413fb860057e1a839d5422b361" target="_top" xlink:title=" ">
<polygon fill="white" stroke="#666666" points="1159,-147.45 1034.25,-147.45 1034.25,-103.45 1159,-103.45 1159,-147.45"/>
<text xml:space="preserve" text-anchor="start" x="1042.25" y="-133.95" font-family="Helvetica,sans-Serif" font-size="10.00">nlohmann::detail::binary</text>
<text xml:space="preserve" text-anchor="start" x="1042.25" y="-121.95" font-family="Helvetica,sans-Serif" font-size="10.00">_reader::get_ubjson_high</text>
<text xml:space="preserve" text-anchor="middle" x="1096.62" y="-109.95" font-family="Helvetica,sans-Serif" font-size="10.00">_precision_number</text>
</a>
</g>
</g>
<!-- Node32&#45;&gt;Node33 -->
<g id="edge53" class="edge">
<title>Node32&#45;&gt;Node33</title>
<path fill="none" stroke="#63b8ff" d="M1195.42,-134.96C1183.21,-133.77 1170.88,-132.57 1159.27,-131.44"/>
<polygon fill="#63b8ff" stroke="#63b8ff" points="1194.78,-138.42 1205.07,-135.9 1195.46,-131.45 1194.78,-138.42"/>
</g>
<!-- Node33&#45;&gt;Node29 -->
<g id="edge54" class="edge">
<title>Node33&#45;&gt;Node29</title>
<path fill="none" stroke="#63b8ff" d="M1022.47,-122.34C952.91,-119.39 849.32,-115 782.81,-112.18"/>
<polygon fill="#63b8ff" stroke="#63b8ff" points="1022.1,-125.83 1032.24,-122.76 1022.4,-118.84 1022.1,-125.83"/>
</g>
<!-- Node34&#45;&gt;Node29 -->
<g id="edge58" class="edge">
<title>Node34&#45;&gt;Node29</title>
<path fill="none" stroke="#63b8ff" d="M848.04,-51.89C839.94,-55 831.73,-58.25 824,-61.45 799.99,-71.38 773.36,-83.49 752.84,-93.06"/>
<polygon fill="#63b8ff" stroke="#63b8ff" points="849.05,-55.25 857.16,-48.42 846.57,-48.7 849.05,-55.25"/>
</g>
<!-- Node34&#45;&gt;Node30 -->
<g id="edge57" class="edge">
<title>Node34&#45;&gt;Node30</title>
<path fill="none" stroke="#63b8ff" d="M828,-41.67C720.82,-56.06 527.27,-82.05 426.11,-95.64"/>
<polygon fill="#63b8ff" stroke="#63b8ff" points="828.42,-45.14 837.86,-40.34 827.48,-38.21 828.42,-45.14"/>
</g>
</g>
</svg>
