<?xml version="1.0" encoding="UTF-8" standalone="no"?>
<!DOCTYPE svg PUBLIC "-//W3C//DTD SVG 1.1//EN"
 "http://www.w3.org/Graphics/SVG/1.1/DTD/svg11.dtd">
<!-- Generated by graphviz version 13.1.2 (20250808.2320)
 -->
<!-- Title: nlohmann::detail::binary_reader::get_ubjson_value Pages: 1 -->
<svg width="1347pt" height="935pt"
 viewBox="0.00 0.00 1347.00 935.00" xmlns="http://www.w3.org/2000/svg" xmlns:xlink="http://www.w3.org/1999/xlink">
<g id="graph0" class="graph" transform="scale(1 1) rotate(0) translate(4 931.42)">
<title>nlohmann::detail::binary_reader::get_ubjson_value</title>
<!-- Node1 -->
<g id="node1" class="node">
<title>Node1</title>
<g id="a_node1"><a xlink:title=" ">
<polygon fill="#999999" stroke="#666666" points="130,-513.42 0,-513.42 0,-481.42 130,-481.42 130,-513.42"/>
<text xml:space="preserve" text-anchor="start" x="8" y="-499.92" font-family="Helvetica,sans-Serif" font-size="10.00">nlohmann::detail::binary</text>
<text xml:space="preserve" text-anchor="middle" x="65" y="-487.92" font-family="Helvetica,sans-Serif" font-size="10.00">_reader::get_ubjson_value</text>
</a>
</g>
</g>
<!-- Node2 -->
<g id="node2" class="node">
<title>Node2</title>
<g id="a_node2"><a xlink:href="a01563.html#a137ea4d27de45d8a844fd13451d40f3d" target="_top" xlink:title="create a parse error exception">
<polygon fill="white" stroke="#666666" points="1156,-570.42 1038.75,-570.42 1038.75,-538.42 1156,-538.42 1156,-570.42"/>
<text xml:space="preserve" text-anchor="start" x="1046.75" y="-556.92" font-family="Helvetica,sans-Serif" font-size="10.00">nlohmann::detail::parse</text>
<text xml:space="preserve" text-anchor="middle" x="1097.38" y="-544.92" font-family="Helvetica,sans-Serif" font-size="10.00">_error::create</text>
</a>
</g>
</g>
<!-- Node1&#45;&gt;Node2 -->
<g id="edge1" class="edge">
<title>Node1&#45;&gt;Node2</title>
<path fill="none" stroke="#63b8ff" d="M70.12,-513.76C91,-592.3 192.71,-927.42 408.38,-927.42 408.38,-927.42 408.38,-927.42 773.12,-927.42 956.45,-927.42 1059.12,-666.93 1087.91,-581.32"/>
<polygon fill="#63b8ff" stroke="#63b8ff" points="1091.21,-582.48 1091.01,-571.89 1084.56,-580.3 1091.21,-582.48"/>
</g>
<!-- Node5 -->
<g id="node5" class="node">
<title>Node5</title>
<g id="a_node5"><a xlink:href="a01995.html#a9c413c9a1bade1ce345740f4d69156f0" target="_top" xlink:title=" ">
<polygon fill="white" stroke="#666666" points="1168,-245.42 1026.75,-245.42 1026.75,-213.42 1168,-213.42 1168,-245.42"/>
<text xml:space="preserve" text-anchor="start" x="1034.75" y="-231.92" font-family="Helvetica,sans-Serif" font-size="10.00">nlohmann::detail::binary</text>
<text xml:space="preserve" text-anchor="middle" x="1097.38" y="-219.92" font-family="Helvetica,sans-Serif" font-size="10.00">_reader::exception_message</text>
</a>
</g>
</g>
<!-- Node1&#45;&gt;Node5 -->
<g id="edge4" class="edge">
<title>Node1&#45;&gt;Node5</title>
<path fill="none" stroke="#63b8ff" d="M65.97,-481.03C66.7,-425.25 76.11,-240.22 166,-129.42 242.24,-35.46 287.37,-5.42 408.38,-5.42 408.38,-5.42 408.38,-5.42 773.12,-5.42 870.89,-5.42 910.45,18.33 990.75,-37.42 1048.31,-77.39 1077.72,-159.23 1089.69,-202.01"/>
<polygon fill="#63b8ff" stroke="#63b8ff" points="1086.26,-202.75 1092.22,-211.51 1093.03,-200.94 1086.26,-202.75"/>
</g>
<!-- Node6 -->
<g id="node6" class="node">
<title>Node6</title>
<g id="a_node6"><a xlink:href="a01995.html#ad222095c0b21a87824cb10629299629a" target="_top" xlink:title="get next character from the input">
<polygon fill="white" stroke="#666666" points="990.75,-469.42 871.25,-469.42 871.25,-437.42 990.75,-437.42 990.75,-469.42"/>
<text xml:space="preserve" text-anchor="start" x="879.25" y="-455.92" font-family="Helvetica,sans-Serif" font-size="10.00">nlohmann::detail::binary</text>
<text xml:space="preserve" text-anchor="middle" x="931" y="-443.92" font-family="Helvetica,sans-Serif" font-size="10.00">_reader::get</text>
</a>
</g>
</g>
<!-- Node1&#45;&gt;Node6 -->
<g id="edge5" class="edge">
<title>Node1&#45;&gt;Node6</title>
<path fill="none" stroke="#63b8ff" d="M130.36,-496.7C302.75,-494.62 766.56,-488.2 835.25,-478.42 845.04,-477.03 855.27,-474.98 865.23,-472.65"/>
<polygon fill="#63b8ff" stroke="#63b8ff" points="865.99,-476.06 874.86,-470.27 864.32,-469.27 865.99,-476.06"/>
</g>
<!-- Node7 -->
<g id="node7" class="node">
<title>Node7</title>
<g id="a_node7"><a xlink:href="a01995.html#ac356c6364fe0273d3303fb7a447f4ef6" target="_top" xlink:title=" ">
<polygon fill="white" stroke="#666666" points="831.88,-469.42 712.38,-469.42 712.38,-437.42 831.88,-437.42 831.88,-469.42"/>
<text xml:space="preserve" text-anchor="start" x="720.38" y="-455.92" font-family="Helvetica,sans-Serif" font-size="10.00">nlohmann::detail::binary</text>
<text xml:space="preserve" text-anchor="middle" x="772.12" y="-443.92" font-family="Helvetica,sans-Serif" font-size="10.00">_reader::get_number</text>
</a>
</g>
</g>
<!-- Node1&#45;&gt;Node7 -->
<g id="edge6" class="edge">
<title>Node1&#45;&gt;Node7</title>
<path fill="none" stroke="#63b8ff" d="M89.36,-481.14C108.84,-468.61 137.87,-452.3 166,-445.42 354.71,-399.29 586.5,-423.97 700.69,-441.24"/>
<polygon fill="#63b8ff" stroke="#63b8ff" points="700.12,-444.69 710.54,-442.76 701.19,-437.78 700.12,-444.69"/>
</g>
<!-- Node8 -->
<g id="node8" class="node">
<title>Node8</title>
<g id="a_node8"><a xlink:href="a01995.html#a61a0bd8bbe7b560bd429fa990ba3ba1a" target="_top" xlink:title=" ">
<polygon fill="white" stroke="#666666" points="990.75,-283.42 871.25,-283.42 871.25,-251.42 990.75,-251.42 990.75,-283.42"/>
<text xml:space="preserve" text-anchor="start" x="879.25" y="-269.92" font-family="Helvetica,sans-Serif" font-size="10.00">nlohmann::detail::binary</text>
<text xml:space="preserve" text-anchor="middle" x="931" y="-257.92" font-family="Helvetica,sans-Serif" font-size="10.00">_reader::unexpect_eof</text>
</a>
</g>
</g>
<!-- Node1&#45;&gt;Node8 -->
<g id="edge55" class="edge">
<title>Node1&#45;&gt;Node8</title>
<path fill="none" stroke="#63b8ff" d="M68.4,-481.2C75.59,-437.84 100.62,-317.66 166,-245.42 284.78,-114.18 347.76,-104.28 519.75,-62.42 585.93,-46.32 608.71,-39.92 673,-62.42 776.78,-98.75 869.91,-196.5 909.64,-242.65"/>
<polygon fill="#63b8ff" stroke="#63b8ff" points="906.75,-244.65 915.89,-250.01 912.08,-240.12 906.75,-244.65"/>
</g>
<!-- Node9 -->
<g id="node9" class="node">
<title>Node9</title>
<g id="a_node9"><a xlink:href="a01995.html#a7d323283c60a0b89ee5eeadf5cb9a5ad" target="_top" xlink:title=" ">
<polygon fill="white" stroke="#666666" points="835.25,-557.42 709,-557.42 709,-525.42 835.25,-525.42 835.25,-557.42"/>
<text xml:space="preserve" text-anchor="start" x="717" y="-543.92" font-family="Helvetica,sans-Serif" font-size="10.00">nlohmann::detail::binary</text>
<text xml:space="preserve" text-anchor="middle" x="772.12" y="-531.92" font-family="Helvetica,sans-Serif" font-size="10.00">_reader::get_token_string</text>
</a>
</g>
</g>
<!-- Node1&#45;&gt;Node9 -->
<g id="edge11" class="edge">
<title>Node1&#45;&gt;Node9</title>
<path fill="none" stroke="#63b8ff" d="M130.36,-499.01C241.32,-502.11 475.71,-510.35 673,-528.42 680.94,-529.15 689.23,-530.04 697.47,-531.01"/>
<polygon fill="#63b8ff" stroke="#63b8ff" points="696.8,-534.46 707.15,-532.2 697.65,-527.51 696.8,-534.46"/>
</g>
<!-- Node10 -->
<g id="node10" class="node">
<title>Node10</title>
<g id="a_node10"><a xlink:href="a01995.html#afb36cb588b795efa513fc95e949493b7" target="_top" xlink:title=" ">
<polygon fill="white" stroke="#666666" points="296.75,-658.42 168.25,-658.42 168.25,-626.42 296.75,-626.42 296.75,-658.42"/>
<text xml:space="preserve" text-anchor="start" x="176.25" y="-644.92" font-family="Helvetica,sans-Serif" font-size="10.00">nlohmann::detail::binary</text>
<text xml:space="preserve" text-anchor="middle" x="232.5" y="-632.92" font-family="Helvetica,sans-Serif" font-size="10.00">_reader::get_ubjson_array</text>
</a>
</g>
</g>
<!-- Node1&#45;&gt;Node10 -->
<g id="edge12" class="edge">
<title>Node1&#45;&gt;Node10</title>
<path fill="none" stroke="#63b8ff" d="M89.18,-513.62C109.03,-531.51 138.66,-560.12 166,-583.42 180.02,-595.37 196.5,-607.95 209.43,-618.65"/>
<polygon fill="#63b8ff" stroke="#63b8ff" points="207.09,-621.25 216.97,-625.08 211.64,-615.93 207.09,-621.25"/>
</g>
<!-- Node15 -->
<g id="node15" class="node">
<title>Node15</title>
<g id="a_node15"><a xlink:href="a01995.html#a26c694413fb860057e1a839d5422b361" target="_top" xlink:title=" ">
<polygon fill="white" stroke="#666666" points="471.75,-229.42 347,-229.42 347,-185.42 471.75,-185.42 471.75,-229.42"/>
<text xml:space="preserve" text-anchor="start" x="355" y="-215.92" font-family="Helvetica,sans-Serif" font-size="10.00">nlohmann::detail::binary</text>
<text xml:space="preserve" text-anchor="start" x="355" y="-203.92" font-family="Helvetica,sans-Serif" font-size="10.00">_reader::get_ubjson_high</text>
<text xml:space="preserve" text-anchor="middle" x="409.38" y="-191.92" font-family="Helvetica,sans-Serif" font-size="10.00">_precision_number</text>
</a>
</g>
</g>
<!-- Node1&#45;&gt;Node15 -->
<g id="edge32" class="edge">
<title>Node1&#45;&gt;Node15</title>
<path fill="none" stroke="#63b8ff" d="M72.16,-481.26C85.12,-449.07 118.03,-376.18 166,-331.42 215.06,-285.65 284.25,-252.51 336.15,-232.07"/>
<polygon fill="#63b8ff" stroke="#63b8ff" points="337.14,-235.44 345.21,-228.57 334.62,-228.91 337.14,-235.44"/>
</g>
<!-- Node17 -->
<g id="node17" class="node">
<title>Node17</title>
<g id="a_node17"><a xlink:href="a01995.html#adcf64ad3207f4bf37a5a31c920a385c3" target="_top" xlink:title=" ">
<polygon fill="white" stroke="#666666" points="299,-583.42 166,-583.42 166,-551.42 299,-551.42 299,-583.42"/>
<text xml:space="preserve" text-anchor="start" x="174" y="-569.92" font-family="Helvetica,sans-Serif" font-size="10.00">nlohmann::detail::binary</text>
<text xml:space="preserve" text-anchor="middle" x="232.5" y="-557.92" font-family="Helvetica,sans-Serif" font-size="10.00">_reader::get_ubjson_object</text>
</a>
</g>
</g>
<!-- Node1&#45;&gt;Node17 -->
<g id="edge39" class="edge">
<title>Node1&#45;&gt;Node17</title>
<path fill="none" stroke="#63b8ff" d="M119.73,-513.78C144.23,-523.47 172.61,-535.69 194.64,-546.11"/>
<polygon fill="#63b8ff" stroke="#63b8ff" points="193.01,-549.21 203.54,-550.4 196.05,-542.9 193.01,-549.21"/>
</g>
<!-- Node18 -->
<g id="node18" class="node">
<title>Node18</title>
<g id="a_node18"><a xlink:href="a01995.html#a4ae90db51c102e912b7eac83c78733a6" target="_top" xlink:title="reads a UBJSON string">
<polygon fill="white" stroke="#666666" points="661.75,-393.42 531,-393.42 531,-361.42 661.75,-361.42 661.75,-393.42"/>
<text xml:space="preserve" text-anchor="start" x="539" y="-379.92" font-family="Helvetica,sans-Serif" font-size="10.00">nlohmann::detail::binary</text>
<text xml:space="preserve" text-anchor="middle" x="596.38" y="-367.92" font-family="Helvetica,sans-Serif" font-size="10.00">_reader::get_ubjson_string</text>
</a>
</g>
</g>
<!-- Node1&#45;&gt;Node18 -->
<g id="edge54" class="edge">
<title>Node1&#45;&gt;Node18</title>
<path fill="none" stroke="#63b8ff" d="M78.11,-481.25C95.08,-460 128.16,-423.48 166,-407.42 281.66,-358.35 430.6,-360.8 519.22,-368.26"/>
<polygon fill="#63b8ff" stroke="#63b8ff" points="518.74,-371.73 529.01,-369.13 519.36,-364.76 518.74,-371.73"/>
</g>
<!-- Node3 -->
<g id="node3" class="node">
<title>Node3</title>
<g id="a_node3"><a xlink:href="a01559.html#abf41a7e9178356314082284e6cfea278" target="_top" xlink:title=" ">
<polygon fill="white" stroke="#666666" points="1339.25,-595.42 1204,-595.42 1204,-563.42 1339.25,-563.42 1339.25,-595.42"/>
<text xml:space="preserve" text-anchor="start" x="1212" y="-581.92" font-family="Helvetica,sans-Serif" font-size="10.00">nlohmann::detail::exception</text>
<text xml:space="preserve" text-anchor="middle" x="1271.62" y="-569.92" font-family="Helvetica,sans-Serif" font-size="10.00">::name</text>
</a>
</g>
</g>
<!-- Node2&#45;&gt;Node3 -->
<g id="edge2" class="edge">
<title>Node2&#45;&gt;Node3</title>
<path fill="none" stroke="#63b8ff" d="M1156.21,-562.82C1167.88,-564.51 1180.34,-566.32 1192.57,-568.1"/>
<polygon fill="#63b8ff" stroke="#63b8ff" points="1191.82,-571.52 1202.22,-569.5 1192.83,-564.6 1191.82,-571.52"/>
</g>
<!-- Node4 -->
<g id="node4" class="node">
<title>Node4</title>
<g id="a_node4"><a xlink:href="a01563.html#aefe74adeaa48781464ba2fd2ec63d221" target="_top" xlink:title=" ">
<polygon fill="white" stroke="#666666" points="1330.25,-545.42 1213,-545.42 1213,-513.42 1330.25,-513.42 1330.25,-545.42"/>
<text xml:space="preserve" text-anchor="start" x="1221" y="-531.92" font-family="Helvetica,sans-Serif" font-size="10.00">nlohmann::detail::parse</text>
<text xml:space="preserve" text-anchor="middle" x="1271.62" y="-519.92" font-family="Helvetica,sans-Serif" font-size="10.00">_error::position_string</text>
</a>
</g>
</g>
<!-- Node2&#45;&gt;Node4 -->
<g id="edge3" class="edge">
<title>Node2&#45;&gt;Node4</title>
<path fill="none" stroke="#63b8ff" d="M1156.21,-546.03C1170.7,-543.93 1186.38,-541.65 1201.36,-539.48"/>
<polygon fill="#63b8ff" stroke="#63b8ff" points="1201.76,-542.96 1211.15,-538.06 1200.75,-536.03 1201.76,-542.96"/>
</g>
<!-- Node7&#45;&gt;Node6 -->
<g id="edge7" class="edge">
<title>Node7&#45;&gt;Node6</title>
<path fill="none" stroke="#63b8ff" d="M831.99,-453.42C840.91,-453.42 850.2,-453.42 859.34,-453.42"/>
<polygon fill="#63b8ff" stroke="#63b8ff" points="859.3,-456.92 869.3,-453.42 859.3,-449.92 859.3,-456.92"/>
</g>
<!-- Node7&#45;&gt;Node8 -->
<g id="edge8" class="edge">
<title>Node7&#45;&gt;Node8</title>
<path fill="none" stroke="#63b8ff" d="M786.77,-437.24C814.24,-404.68 876.35,-331.04 909.02,-292.3"/>
<polygon fill="#63b8ff" stroke="#63b8ff" points="911.53,-294.76 915.3,-284.86 906.17,-290.24 911.53,-294.76"/>
</g>
<!-- Node8&#45;&gt;Node2 -->
<g id="edge9" class="edge">
<title>Node8&#45;&gt;Node2</title>
<path fill="none" stroke="#63b8ff" d="M943.26,-283.74C955.42,-301.57 975.14,-331.1 990.75,-357.42 1026.3,-417.38 1063.96,-490.18 1083.27,-528.29"/>
<polygon fill="#63b8ff" stroke="#63b8ff" points="1079.9,-529.37 1087.53,-536.72 1086.15,-526.22 1079.9,-529.37"/>
</g>
<!-- Node8&#45;&gt;Node5 -->
<g id="edge10" class="edge">
<title>Node8&#45;&gt;Node5</title>
<path fill="none" stroke="#63b8ff" d="M990.88,-253.81C998.8,-251.98 1007.03,-250.08 1015.24,-248.18"/>
<polygon fill="#63b8ff" stroke="#63b8ff" points="1015.98,-251.6 1024.93,-245.94 1014.4,-244.78 1015.98,-251.6"/>
</g>
<!-- Node10&#45;&gt;Node1 -->
<g id="edge28" class="edge">
<title>Node10&#45;&gt;Node1</title>
<path fill="none" stroke="#63b8ff" d="M197.29,-626.01C187.05,-618.63 175.91,-609.87 166,-601.42 136.21,-576.03 103.69,-544.33 84.07,-522.39"/>
<polygon fill="#63b8ff" stroke="#63b8ff" points="86.92,-520.33 77.73,-515.06 81.63,-524.91 86.92,-520.33"/>
</g>
<!-- Node11 -->
<g id="node11" class="node">
<title>Node11</title>
<g id="a_node11"><a xlink:href="a01995.html#a252c1179651d22c5343bcf0b538ed26a" target="_top" xlink:title=" ">
<polygon fill="white" stroke="#666666" points="834.88,-835.42 709.38,-835.42 709.38,-803.42 834.88,-803.42 834.88,-835.42"/>
<text xml:space="preserve" text-anchor="start" x="717.38" y="-821.92" font-family="Helvetica,sans-Serif" font-size="10.00">nlohmann::detail::binary</text>
<text xml:space="preserve" text-anchor="middle" x="772.12" y="-809.92" font-family="Helvetica,sans-Serif" font-size="10.00">_reader::get_ignore_noop</text>
</a>
</g>
</g>
<!-- Node10&#45;&gt;Node11 -->
<g id="edge13" class="edge">
<title>Node10&#45;&gt;Node11</title>
<path fill="none" stroke="#63b8ff" d="M234.96,-658.92C239.84,-702.65 259.78,-821.57 335,-870.42 459.33,-951.17 646.45,-879.8 729.21,-840.84"/>
<polygon fill="#63b8ff" stroke="#63b8ff" points="730.6,-844.05 738.11,-836.57 727.58,-837.74 730.6,-844.05"/>
</g>
<!-- Node12 -->
<g id="node12" class="node">
<title>Node12</title>
<g id="a_node12"><a xlink:href="a01995.html#a7b6c2d4c95d56751e233e285a5f1fea7" target="_top" xlink:title="determine the type and size for a container">
<polygon fill="white" stroke="#666666" points="483.75,-658.42 335,-658.42 335,-626.42 483.75,-626.42 483.75,-658.42"/>
<text xml:space="preserve" text-anchor="start" x="343" y="-644.92" font-family="Helvetica,sans-Serif" font-size="10.00">nlohmann::detail::binary</text>
<text xml:space="preserve" text-anchor="middle" x="409.38" y="-632.92" font-family="Helvetica,sans-Serif" font-size="10.00">_reader::get_ubjson_size_type</text>
</a>
</g>
</g>
<!-- Node10&#45;&gt;Node12 -->
<g id="edge15" class="edge">
<title>Node10&#45;&gt;Node12</title>
<path fill="none" stroke="#63b8ff" d="M297.13,-642.42C305.62,-642.42 314.43,-642.42 323.21,-642.42"/>
<polygon fill="#63b8ff" stroke="#63b8ff" points="323.19,-645.92 333.19,-642.42 323.19,-638.92 323.19,-645.92"/>
</g>
<!-- Node14 -->
<g id="node14" class="node">
<title>Node14</title>
<g id="a_node14"><a xlink:href="a01995.html#a5a79480d661019b0f3fc615ae12f7de7" target="_top" xlink:title=" ">
<polygon fill="white" stroke="#666666" points="483.75,-861.42 335,-861.42 335,-829.42 483.75,-829.42 483.75,-861.42"/>
<text xml:space="preserve" text-anchor="start" x="343" y="-847.92" font-family="Helvetica,sans-Serif" font-size="10.00">nlohmann::detail::binary</text>
<text xml:space="preserve" text-anchor="middle" x="409.38" y="-835.92" font-family="Helvetica,sans-Serif" font-size="10.00">_reader::parse_ubjson_internal</text>
</a>
</g>
</g>
<!-- Node10&#45;&gt;Node14 -->
<g id="edge29" class="edge">
<title>Node10&#45;&gt;Node14</title>
<path fill="none" stroke="#63b8ff" d="M243.36,-658.77C256.26,-680.21 279.51,-719.02 299,-752.42 315.25,-780.28 310.75,-794.16 335,-815.42 338.34,-818.35 342,-821.02 345.85,-823.44"/>
<polygon fill="#63b8ff" stroke="#63b8ff" points="343.99,-826.41 354.42,-828.24 347.41,-820.3 343.99,-826.41"/>
</g>
<!-- Node11&#45;&gt;Node6 -->
<g id="edge14" class="edge">
<title>Node11&#45;&gt;Node6</title>
<path fill="none" stroke="#63b8ff" d="M780.23,-803.02C791.79,-776.3 815.39,-721.71 835.25,-675.42 865.45,-605.05 900.82,-522.02 918.58,-480.27"/>
<polygon fill="#63b8ff" stroke="#63b8ff" points="921.72,-481.83 922.42,-471.26 915.28,-479.09 921.72,-481.83"/>
</g>
<!-- Node12&#45;&gt;Node2 -->
<g id="edge16" class="edge">
<title>Node12&#45;&gt;Node2</title>
<path fill="none" stroke="#63b8ff" d="M476.24,-658.78C478.85,-660.2 481.37,-661.75 483.75,-663.42 506.15,-679.17 495.38,-700.94 519.75,-713.42 580.37,-744.48 605.59,-723.19 673,-713.42 818.75,-692.32 856.26,-679.43 990.75,-619.42 1016.77,-607.81 1044.12,-590.84 1064.47,-577.14"/>
<polygon fill="#63b8ff" stroke="#63b8ff" points="1066.33,-580.11 1072.61,-571.58 1062.37,-574.33 1066.33,-580.11"/>
</g>
<!-- Node12&#45;&gt;Node5 -->
<g id="edge17" class="edge">
<title>Node12&#45;&gt;Node5</title>
<path fill="none" stroke="#63b8ff" d="M472.45,-658.89C476.32,-660.31 480.11,-661.83 483.75,-663.42 500.92,-670.96 501.7,-680.35 519.75,-685.42 587.3,-704.43 770.9,-700.4 835.25,-672.42 921.08,-635.12 939.14,-608.5 990.75,-530.42 1050.5,-440.04 1080.62,-312 1091.49,-256.66"/>
<polygon fill="#63b8ff" stroke="#63b8ff" points="1094.87,-257.66 1093.3,-247.18 1087.99,-256.35 1094.87,-257.66"/>
</g>
<!-- Node12&#45;&gt;Node6 -->
<g id="edge18" class="edge">
<title>Node12&#45;&gt;Node6</title>
<path fill="none" stroke="#63b8ff" d="M466.66,-658.84C553.1,-680.53 720.57,-708.29 835.25,-637.42 891.43,-602.71 915.78,-523 925.05,-480.8"/>
<polygon fill="#63b8ff" stroke="#63b8ff" points="928.43,-481.7 927.02,-471.2 921.58,-480.29 928.43,-481.7"/>
</g>
<!-- Node12&#45;&gt;Node8 -->
<g id="edge27" class="edge">
<title>Node12&#45;&gt;Node8</title>
<path fill="none" stroke="#63b8ff" d="M484.09,-652.01C578.7,-659.86 741.77,-657.59 835.25,-566.42 880.63,-522.17 852.36,-488.93 871.25,-428.42 886.17,-380.61 906.87,-326.07 919.3,-294.32"/>
<polygon fill="#63b8ff" stroke="#63b8ff" points="922.52,-295.7 922.92,-285.11 916,-293.14 922.52,-295.7"/>
</g>
<!-- Node12&#45;&gt;Node9 -->
<g id="edge20" class="edge">
<title>Node12&#45;&gt;Node9</title>
<path fill="none" stroke="#63b8ff" d="M424.33,-626.14C443.42,-605.17 479.9,-569.63 519.75,-554.42 576.59,-532.73 645.95,-530.79 697.41,-533.53"/>
<polygon fill="#63b8ff" stroke="#63b8ff" points="697.05,-537.01 707.25,-534.13 697.48,-530.03 697.05,-537.01"/>
</g>
<!-- Node12&#45;&gt;Node11 -->
<g id="edge19" class="edge">
<title>Node12&#45;&gt;Node11</title>
<path fill="none" stroke="#63b8ff" d="M422.22,-658.76C440.46,-682.71 477.74,-727.15 519.75,-751.42 549.94,-768.87 635,-789.98 697.85,-804"/>
<polygon fill="#63b8ff" stroke="#63b8ff" points="696.92,-807.38 707.44,-806.12 698.43,-800.54 696.92,-807.38"/>
</g>
<!-- Node13 -->
<g id="node13" class="node">
<title>Node13</title>
<g id="a_node13"><a xlink:href="a01995.html#aba7ba9ec9a52ad2bee8baff70176aa20" target="_top" xlink:title=" ">
<polygon fill="white" stroke="#666666" points="673,-595.42 519.75,-595.42 519.75,-563.42 673,-563.42 673,-595.42"/>
<text xml:space="preserve" text-anchor="start" x="527.75" y="-581.92" font-family="Helvetica,sans-Serif" font-size="10.00">nlohmann::detail::binary</text>
<text xml:space="preserve" text-anchor="middle" x="596.38" y="-569.92" font-family="Helvetica,sans-Serif" font-size="10.00">_reader::get_ubjson_size_value</text>
</a>
</g>
</g>
<!-- Node12&#45;&gt;Node13 -->
<g id="edge21" class="edge">
<title>Node12&#45;&gt;Node13</title>
<path fill="none" stroke="#63b8ff" d="M458.5,-626.04C482.28,-617.94 511.19,-608.09 536.3,-599.54"/>
<polygon fill="#63b8ff" stroke="#63b8ff" points="537.4,-602.86 545.74,-596.33 535.14,-596.24 537.4,-602.86"/>
</g>
<!-- Node13&#45;&gt;Node2 -->
<g id="edge22" class="edge">
<title>Node13&#45;&gt;Node2</title>
<path fill="none" stroke="#63b8ff" d="M673.27,-594.43C753.12,-607.64 882.04,-621.62 990.75,-599.42 1013.49,-594.78 1037.4,-585.05 1056.7,-575.83"/>
<polygon fill="#63b8ff" stroke="#63b8ff" points="1058.14,-579.02 1065.56,-571.46 1055.04,-572.74 1058.14,-579.02"/>
</g>
<!-- Node13&#45;&gt;Node5 -->
<g id="edge23" class="edge">
<title>Node13&#45;&gt;Node5</title>
<path fill="none" stroke="#63b8ff" d="M673.32,-584.02C720.78,-584.76 782.66,-581.82 835.25,-566.42 911.46,-544.11 937.88,-537.68 990.75,-478.42 1050.39,-411.58 1079.8,-306.09 1090.91,-256.67"/>
<polygon fill="#63b8ff" stroke="#63b8ff" points="1094.29,-257.63 1092.98,-247.12 1087.44,-256.15 1094.29,-257.63"/>
</g>
<!-- Node13&#45;&gt;Node7 -->
<g id="edge25" class="edge">
<title>Node13&#45;&gt;Node7</title>
<path fill="none" stroke="#63b8ff" d="M620.09,-562.95C650.53,-540.88 704.71,-501.59 739.23,-476.56"/>
<polygon fill="#63b8ff" stroke="#63b8ff" points="741.14,-479.49 747.18,-470.79 737.03,-473.83 741.14,-479.49"/>
</g>
<!-- Node13&#45;&gt;Node9 -->
<g id="edge26" class="edge">
<title>Node13&#45;&gt;Node9</title>
<path fill="none" stroke="#63b8ff" d="M672.57,-562.98C680.83,-561.17 689.24,-559.33 697.48,-557.53"/>
<polygon fill="#63b8ff" stroke="#63b8ff" points="698.09,-560.98 707.11,-555.43 696.59,-554.14 698.09,-560.98"/>
</g>
<!-- Node13&#45;&gt;Node11 -->
<g id="edge24" class="edge">
<title>Node13&#45;&gt;Node11</title>
<path fill="none" stroke="#63b8ff" d="M606.7,-595.67C624.88,-626.91 666.99,-697.06 709,-751.42 720.68,-766.54 734.98,-782.35 746.92,-794.92"/>
<polygon fill="#63b8ff" stroke="#63b8ff" points="744.24,-797.18 753.7,-801.96 749.29,-792.33 744.24,-797.18"/>
</g>
<!-- Node14&#45;&gt;Node1 -->
<g id="edge31" class="edge">
<title>Node14&#45;&gt;Node1</title>
<path fill="none" stroke="#63b8ff" d="M361.44,-828.95C352.39,-825.03 343.19,-820.49 335,-815.42 250.08,-762.93 229.68,-744.32 166,-667.42 127.77,-621.26 95.06,-558.74 78.2,-523.82"/>
<polygon fill="#63b8ff" stroke="#63b8ff" points="81.41,-522.4 73.95,-514.87 75.08,-525.41 81.41,-522.4"/>
</g>
<!-- Node14&#45;&gt;Node11 -->
<g id="edge30" class="edge">
<title>Node14&#45;&gt;Node11</title>
<path fill="none" stroke="#63b8ff" d="M483.98,-840.64C536.63,-837.15 609.2,-832.21 673,-827.42 681.03,-826.82 689.42,-826.17 697.78,-825.51"/>
<polygon fill="#63b8ff" stroke="#63b8ff" points="697.91,-829.01 707.6,-824.72 697.35,-822.03 697.91,-829.01"/>
</g>
<!-- Node15&#45;&gt;Node2 -->
<g id="edge33" class="edge">
<title>Node15&#45;&gt;Node2</title>
<path fill="none" stroke="#63b8ff" d="M471.96,-190.18C587.81,-161.8 840.02,-119.79 990.75,-242.42 1079.56,-314.68 1094.06,-464.74 1096.17,-526.72"/>
<polygon fill="#63b8ff" stroke="#63b8ff" points="1092.67,-526.8 1096.41,-536.71 1099.66,-526.63 1092.67,-526.8"/>
</g>
<!-- Node15&#45;&gt;Node5 -->
<g id="edge34" class="edge">
<title>Node15&#45;&gt;Node5</title>
<path fill="none" stroke="#63b8ff" d="M453.28,-184.94C473.16,-175.07 497.31,-163.84 519.75,-155.42 585.99,-130.59 611.18,-146.82 673,-112.42 691.97,-101.87 688.77,-87.29 709,-79.42 825.7,-34.03 879.6,-21.75 990.75,-79.42 1040.62,-105.3 1071.92,-166.74 1086.56,-202.45"/>
<polygon fill="#63b8ff" stroke="#63b8ff" points="1083.26,-203.62 1090.17,-211.65 1089.77,-201.06 1083.26,-203.62"/>
</g>
<!-- Node15&#45;&gt;Node6 -->
<g id="edge35" class="edge">
<title>Node15&#45;&gt;Node6</title>
<path fill="none" stroke="#63b8ff" d="M466.74,-229.9C549.11,-263.32 706.54,-329.4 835.25,-396.42 855.65,-407.05 877.71,-420.21 895.41,-431.21"/>
<polygon fill="#63b8ff" stroke="#63b8ff" points="893.14,-433.92 903.47,-436.27 896.85,-427.99 893.14,-433.92"/>
</g>
<!-- Node15&#45;&gt;Node8 -->
<g id="edge38" class="edge">
<title>Node15&#45;&gt;Node8</title>
<path fill="none" stroke="#63b8ff" d="M471.95,-209.86C554.92,-213.81 707.02,-223.4 835.25,-244.42 843.23,-245.73 851.53,-247.35 859.76,-249.13"/>
<polygon fill="#63b8ff" stroke="#63b8ff" points="858.89,-252.52 869.42,-251.29 860.42,-245.69 858.89,-252.52"/>
</g>
<!-- Node15&#45;&gt;Node13 -->
<g id="edge36" class="edge">
<title>Node15&#45;&gt;Node13</title>
<path fill="none" stroke="#63b8ff" d="M421.53,-229.86C453.86,-294.87 547.51,-483.18 582.23,-552.98"/>
<polygon fill="#63b8ff" stroke="#63b8ff" points="579.01,-554.38 586.6,-561.78 585.28,-551.26 579.01,-554.38"/>
</g>
<!-- Node16 -->
<g id="node16" class="node">
<title>Node16</title>
<g id="a_node16"><a xlink:href="a00477.html#a616a53cc3114fdc113fc44e6af4c3c7f" target="_top" xlink:title=" ">
<polygon fill="white" stroke="#666666" points="653.5,-103.42 539.25,-103.42 539.25,-71.42 653.5,-71.42 653.5,-103.42"/>
<text xml:space="preserve" text-anchor="start" x="547.25" y="-89.92" font-family="Helvetica,sans-Serif" font-size="10.00">nlohmann::detail::input</text>
<text xml:space="preserve" text-anchor="middle" x="596.38" y="-77.92" font-family="Helvetica,sans-Serif" font-size="10.00">_adapter</text>
</a>
</g>
</g>
<!-- Node15&#45;&gt;Node16 -->
<g id="edge37" class="edge">
<title>Node15&#45;&gt;Node16</title>
<path fill="none" stroke="#63b8ff" d="M433.1,-185.11C454.18,-165.33 487.13,-136.67 519.75,-117.42 525.28,-114.16 531.24,-111.11 537.29,-108.3"/>
<polygon fill="#63b8ff" stroke="#63b8ff" points="538.38,-111.64 546.12,-104.41 535.56,-105.23 538.38,-111.64"/>
</g>
<!-- Node17&#45;&gt;Node1 -->
<g id="edge52" class="edge">
<title>Node17&#45;&gt;Node1</title>
<path fill="none" stroke="#63b8ff" d="M177.55,-550.98C153.09,-541.3 124.8,-529.12 102.82,-518.72"/>
<polygon fill="#63b8ff" stroke="#63b8ff" points="104.48,-515.64 93.95,-514.44 101.44,-521.94 104.48,-515.64"/>
</g>
<!-- Node17&#45;&gt;Node11 -->
<g id="edge40" class="edge">
<title>Node17&#45;&gt;Node11</title>
<path fill="none" stroke="#63b8ff" d="M258.55,-583.9C271.39,-592.97 286.83,-604.91 299,-617.42 318.09,-637.06 315.21,-648.49 335,-667.42 405.92,-735.28 427.59,-754.65 519.75,-788.42 577.23,-809.49 646.54,-816.81 697.81,-819.11"/>
<polygon fill="#63b8ff" stroke="#63b8ff" points="697.47,-822.6 707.6,-819.49 697.75,-815.6 697.47,-822.6"/>
</g>
<!-- Node17&#45;&gt;Node12 -->
<g id="edge41" class="edge">
<title>Node17&#45;&gt;Node12</title>
<path fill="none" stroke="#63b8ff" d="M271.88,-583.88C297.73,-594.97 332.05,-609.69 359.8,-621.59"/>
<polygon fill="#63b8ff" stroke="#63b8ff" points="358.13,-624.68 368.7,-625.41 360.89,-618.25 358.13,-624.68"/>
</g>
<!-- Node17&#45;&gt;Node14 -->
<g id="edge53" class="edge">
<title>Node17&#45;&gt;Node14</title>
<path fill="none" stroke="#63b8ff" d="M264.08,-583.89C276.81,-592.28 290.56,-603.64 299,-617.42 345.7,-693.71 278.67,-745.95 335,-815.42 337.07,-817.98 339.4,-820.32 341.91,-822.46"/>
<polygon fill="#63b8ff" stroke="#63b8ff" points="339.68,-825.17 349.85,-828.13 343.74,-819.47 339.68,-825.17"/>
</g>
<!-- Node17&#45;&gt;Node18 -->
<g id="edge42" class="edge">
<title>Node17&#45;&gt;Node18</title>
<path fill="none" stroke="#63b8ff" d="M264.67,-551.06C330,-516.76 481.28,-437.33 554.38,-398.95"/>
<polygon fill="#63b8ff" stroke="#63b8ff" points="555.59,-402.27 562.82,-394.52 552.33,-396.07 555.59,-402.27"/>
</g>
<!-- Node18&#45;&gt;Node2 -->
<g id="edge43" class="edge">
<title>Node18&#45;&gt;Node2</title>
<path fill="none" stroke="#63b8ff" d="M661.99,-370.8C744.35,-365.54 888.3,-367.28 990.75,-428.42 1031.79,-452.92 1064.33,-499.27 1081.93,-528.41"/>
<polygon fill="#63b8ff" stroke="#63b8ff" points="1078.89,-530.14 1086.96,-536.99 1084.93,-526.6 1078.89,-530.14"/>
</g>
<!-- Node18&#45;&gt;Node5 -->
<g id="edge44" class="edge">
<title>Node18&#45;&gt;Node5</title>
<path fill="none" stroke="#63b8ff" d="M605.31,-360.96C620.61,-331.33 657.3,-269.76 709,-244.42 805.97,-196.91 933.56,-203.06 1015.3,-214.28"/>
<polygon fill="#63b8ff" stroke="#63b8ff" points="1014.62,-217.71 1025.02,-215.67 1015.62,-210.79 1014.62,-217.71"/>
</g>
<!-- Node18&#45;&gt;Node6 -->
<g id="edge45" class="edge">
<title>Node18&#45;&gt;Node6</title>
<path fill="none" stroke="#63b8ff" d="M662.17,-390.46C710.11,-400.32 776.92,-414.48 835.25,-428.42 843.3,-430.35 851.72,-432.45 860.07,-434.58"/>
<polygon fill="#63b8ff" stroke="#63b8ff" points="858.95,-437.9 869.51,-437.02 860.7,-431.13 858.95,-437.9"/>
</g>
<!-- Node18&#45;&gt;Node7 -->
<g id="edge46" class="edge">
<title>Node18&#45;&gt;Node7</title>
<path fill="none" stroke="#63b8ff" d="M639.96,-393.79C650.79,-398.1 662.37,-402.83 673,-407.42 690.88,-415.15 710.34,-424.15 727.18,-432.13"/>
<polygon fill="#63b8ff" stroke="#63b8ff" points="725.4,-435.16 735.93,-436.3 728.41,-428.84 725.4,-435.16"/>
</g>
<!-- Node18&#45;&gt;Node8 -->
<g id="edge51" class="edge">
<title>Node18&#45;&gt;Node8</title>
<path fill="none" stroke="#63b8ff" d="M607.23,-361.13C624.19,-334.89 661.67,-284.2 709,-264.42 756.39,-244.62 814.64,-246.35 859.44,-252.5"/>
<polygon fill="#63b8ff" stroke="#63b8ff" points="858.91,-255.96 869.32,-253.98 859.94,-249.04 858.91,-255.96"/>
</g>
<!-- Node18&#45;&gt;Node9 -->
<g id="edge50" class="edge">
<title>Node18&#45;&gt;Node9</title>
<path fill="none" stroke="#63b8ff" d="M614.67,-393.75C645.5,-422.85 710.08,-483.8 745.88,-517.59"/>
<polygon fill="#63b8ff" stroke="#63b8ff" points="743.12,-519.81 752.8,-524.13 747.93,-514.72 743.12,-519.81"/>
</g>
<!-- Node19 -->
<g id="node19" class="node">
<title>Node19</title>
<g id="a_node19"><a xlink:href="a01995.html#a540919db22df36512f05a88945c13263" target="_top" xlink:title="create a string by reading characters from the input">
<polygon fill="white" stroke="#666666" points="831.88,-305.42 712.38,-305.42 712.38,-273.42 831.88,-273.42 831.88,-305.42"/>
<text xml:space="preserve" text-anchor="start" x="720.38" y="-291.92" font-family="Helvetica,sans-Serif" font-size="10.00">nlohmann::detail::binary</text>
<text xml:space="preserve" text-anchor="middle" x="772.12" y="-279.92" font-family="Helvetica,sans-Serif" font-size="10.00">_reader::get_string</text>
</a>
</g>
</g>
<!-- Node18&#45;&gt;Node19 -->
<g id="edge47" class="edge">
<title>Node18&#45;&gt;Node19</title>
<path fill="none" stroke="#63b8ff" d="M629.65,-361.08C657.6,-346.92 698.23,-326.34 728.79,-310.87"/>
<polygon fill="#63b8ff" stroke="#63b8ff" points="730.04,-314.16 737.38,-306.52 726.88,-307.91 730.04,-314.16"/>
</g>
<!-- Node19&#45;&gt;Node6 -->
<g id="edge48" class="edge">
<title>Node19&#45;&gt;Node6</title>
<path fill="none" stroke="#63b8ff" d="M814.7,-305.86C821.95,-309.71 829.13,-314.24 835.25,-319.42 871.46,-350.09 900.66,-397.57 916.64,-427.01"/>
<polygon fill="#63b8ff" stroke="#63b8ff" points="913.44,-428.44 921.21,-435.63 919.63,-425.16 913.44,-428.44"/>
</g>
<!-- Node19&#45;&gt;Node8 -->
<g id="edge49" class="edge">
<title>Node19&#45;&gt;Node8</title>
<path fill="none" stroke="#63b8ff" d="M831.99,-281.17C841.01,-279.9 850.4,-278.59 859.65,-277.29"/>
<polygon fill="#63b8ff" stroke="#63b8ff" points="859.89,-280.79 869.31,-275.94 858.92,-273.86 859.89,-280.79"/>
</g>
</g>
</svg>
