<?xml version="1.0" encoding="UTF-8" standalone="no"?>
<!DOCTYPE svg PUBLIC "-//W3C//DTD SVG 1.1//EN"
 "http://www.w3.org/Graphics/SVG/1.1/DTD/svg11.dtd">
<!-- Generated by graphviz version 13.1.2 (20250808.2320)
 -->
<!-- Title: nlohmann::detail::binary_reader::parse_bson_internal Pages: 1 -->
<svg width="1362pt" height="536pt"
 viewBox="0.00 0.00 1362.00 536.00" xmlns="http://www.w3.org/2000/svg" xmlns:xlink="http://www.w3.org/1999/xlink">
<g id="graph0" class="graph" transform="scale(1 1) rotate(0) translate(4 532.06)">
<title>nlohmann::detail::binary_reader::parse_bson_internal</title>
<!-- Node1 -->
<g id="node1" class="node">
<title>Node1</title>
<g id="a_node1"><a xlink:title="Reads in a BSON&#45;object and passes it to the SAX&#45;parser.">
<polygon fill="#999999" stroke="#666666" points="141.25,-385.38 0,-385.38 0,-353.38 141.25,-353.38 141.25,-385.38"/>
<text xml:space="preserve" text-anchor="start" x="8" y="-371.88" font-family="Helvetica,sans-Serif" font-size="10.00">nlohmann::detail::binary</text>
<text xml:space="preserve" text-anchor="middle" x="70.62" y="-359.88" font-family="Helvetica,sans-Serif" font-size="10.00">_reader::parse_bson_internal</text>
</a>
</g>
</g>
<!-- Node2 -->
<g id="node2" class="node">
<title>Node2</title>
<g id="a_node2"><a xlink:href="a01995.html#a4e07b75ccb2579d0e738b894f0fd8cf8" target="_top" xlink:title="Read a BSON element list (as specified in the BSON&#45;spec)">
<polygon fill="white" stroke="#666666" points="339.5,-410.38 177.25,-410.38 177.25,-378.38 339.5,-378.38 339.5,-410.38"/>
<text xml:space="preserve" text-anchor="start" x="185.25" y="-396.88" font-family="Helvetica,sans-Serif" font-size="10.00">nlohmann::detail::binary</text>
<text xml:space="preserve" text-anchor="middle" x="258.38" y="-384.88" font-family="Helvetica,sans-Serif" font-size="10.00">_reader::parse_bson_element_list</text>
</a>
</g>
</g>
<!-- Node1&#45;&gt;Node2 -->
<g id="edge1" class="edge">
<title>Node1&#45;&gt;Node2</title>
<path fill="none" stroke="#63b8ff" d="M141.58,-378.8C149.41,-379.85 157.47,-380.93 165.52,-382.02"/>
<polygon fill="#63b8ff" stroke="#63b8ff" points="165,-385.48 175.37,-383.34 165.93,-378.54 165,-385.48"/>
</g>
<!-- Node3 -->
<g id="node3" class="node">
<title>Node3</title>
<g id="a_node3"><a xlink:href="a01995.html#ad222095c0b21a87824cb10629299629a" target="_top" xlink:title="get next character from the input">
<polygon fill="white" stroke="#666666" points="1005,-328.38 885.5,-328.38 885.5,-296.38 1005,-296.38 1005,-328.38"/>
<text xml:space="preserve" text-anchor="start" x="893.5" y="-314.88" font-family="Helvetica,sans-Serif" font-size="10.00">nlohmann::detail::binary</text>
<text xml:space="preserve" text-anchor="middle" x="945.25" y="-302.88" font-family="Helvetica,sans-Serif" font-size="10.00">_reader::get</text>
</a>
</g>
</g>
<!-- Node2&#45;&gt;Node3 -->
<g id="edge2" class="edge">
<title>Node2&#45;&gt;Node3</title>
<path fill="none" stroke="#63b8ff" d="M339.98,-399.74C480.2,-407.75 762.39,-417.63 849.5,-374.38 870.05,-364.18 866.57,-350.35 885.5,-337.38 887.07,-336.3 888.7,-335.26 890.36,-334.25"/>
<polygon fill="#63b8ff" stroke="#63b8ff" points="891.84,-337.43 898.9,-329.54 888.46,-331.3 891.84,-337.43"/>
</g>
<!-- Node4 -->
<g id="node4" class="node">
<title>Node4</title>
<g id="a_node4"><a xlink:href="a01995.html#a354cbbaaea672c024ac949e1801c4302" target="_top" xlink:title="Parses a C&#45;style string from the BSON input.">
<polygon fill="white" stroke="#666666" points="846.12,-473.38 726.62,-473.38 726.62,-441.38 846.12,-441.38 846.12,-473.38"/>
<text xml:space="preserve" text-anchor="start" x="734.62" y="-459.88" font-family="Helvetica,sans-Serif" font-size="10.00">nlohmann::detail::binary</text>
<text xml:space="preserve" text-anchor="middle" x="786.38" y="-447.88" font-family="Helvetica,sans-Serif" font-size="10.00">_reader::get_bson_cstr</text>
</a>
</g>
</g>
<!-- Node2&#45;&gt;Node4 -->
<g id="edge3" class="edge">
<title>Node2&#45;&gt;Node4</title>
<path fill="none" stroke="#63b8ff" d="M308.87,-410.85C329.28,-417.01 353.31,-423.46 375.5,-427.38 493.31,-448.21 632.64,-454.62 714.75,-456.57"/>
<polygon fill="#63b8ff" stroke="#63b8ff" points="714.61,-460.07 724.68,-456.79 714.76,-453.07 714.61,-460.07"/>
</g>
<!-- Node5 -->
<g id="node5" class="node">
<title>Node5</title>
<g id="a_node5"><a xlink:href="a01995.html#a61a0bd8bbe7b560bd429fa990ba3ba1a" target="_top" xlink:title=" ">
<polygon fill="white" stroke="#666666" points="1005,-378.38 885.5,-378.38 885.5,-346.38 1005,-346.38 1005,-378.38"/>
<text xml:space="preserve" text-anchor="start" x="893.5" y="-364.88" font-family="Helvetica,sans-Serif" font-size="10.00">nlohmann::detail::binary</text>
<text xml:space="preserve" text-anchor="middle" x="945.25" y="-352.88" font-family="Helvetica,sans-Serif" font-size="10.00">_reader::unexpect_eof</text>
</a>
</g>
</g>
<!-- Node2&#45;&gt;Node5 -->
<g id="edge31" class="edge">
<title>Node2&#45;&gt;Node5</title>
<path fill="none" stroke="#63b8ff" d="M286.43,-410.88C309.3,-423.96 343.36,-441.47 375.5,-450.38 578.97,-506.81 659.49,-574.45 849.5,-482.38 889.32,-463.08 917.46,-418.03 932.24,-388.95"/>
<polygon fill="#63b8ff" stroke="#63b8ff" points="935.35,-390.56 936.59,-380.04 929.06,-387.49 935.35,-390.56"/>
</g>
<!-- Node10 -->
<g id="node10" class="node">
<title>Node10</title>
<g id="a_node10"><a xlink:href="a01995.html#a23bde2450d7a5772bf5051e36ff560a4" target="_top" xlink:title="Read a BSON document element of the given element_type.">
<polygon fill="white" stroke="#666666" points="519.75,-347.38 375.5,-347.38 375.5,-303.38 519.75,-303.38 519.75,-347.38"/>
<text xml:space="preserve" text-anchor="start" x="383.5" y="-333.88" font-family="Helvetica,sans-Serif" font-size="10.00">nlohmann::detail::binary</text>
<text xml:space="preserve" text-anchor="start" x="383.5" y="-321.88" font-family="Helvetica,sans-Serif" font-size="10.00">_reader::parse_bson_element</text>
<text xml:space="preserve" text-anchor="middle" x="447.62" y="-309.88" font-family="Helvetica,sans-Serif" font-size="10.00">_internal</text>
</a>
</g>
</g>
<!-- Node2&#45;&gt;Node10 -->
<g id="edge10" class="edge">
<title>Node2&#45;&gt;Node10</title>
<path fill="none" stroke="#63b8ff" d="M303.75,-378.03C325.04,-370.18 351.08,-360.59 375.07,-351.75"/>
<polygon fill="#63b8ff" stroke="#63b8ff" points="375.97,-355.14 384.15,-348.4 373.55,-348.58 375.97,-355.14"/>
</g>
<!-- Node4&#45;&gt;Node3 -->
<g id="edge4" class="edge">
<title>Node4&#45;&gt;Node3</title>
<path fill="none" stroke="#63b8ff" d="M831.92,-440.98C838.38,-437.22 844.52,-432.72 849.5,-427.38 878.89,-395.88 855.37,-368.17 885.5,-337.38 886.1,-336.77 886.71,-336.18 887.34,-335.59"/>
<polygon fill="#63b8ff" stroke="#63b8ff" points="889.23,-338.55 895.06,-329.71 884.99,-332.99 889.23,-338.55"/>
</g>
<!-- Node4&#45;&gt;Node5 -->
<g id="edge5" class="edge">
<title>Node4&#45;&gt;Node5</title>
<path fill="none" stroke="#63b8ff" d="M823.66,-441C832.27,-436.8 841.31,-432.13 849.5,-427.38 871.54,-414.6 895.18,-398.39 913.33,-385.35"/>
<polygon fill="#63b8ff" stroke="#63b8ff" points="915.01,-388.45 921.06,-379.75 910.91,-382.79 915.01,-388.45"/>
</g>
<!-- Node6 -->
<g id="node6" class="node">
<title>Node6</title>
<g id="a_node6"><a xlink:href="a01563.html#a137ea4d27de45d8a844fd13451d40f3d" target="_top" xlink:title="create a parse error exception">
<polygon fill="white" stroke="#666666" points="1170.25,-120.38 1053,-120.38 1053,-88.38 1170.25,-88.38 1170.25,-120.38"/>
<text xml:space="preserve" text-anchor="start" x="1061" y="-106.88" font-family="Helvetica,sans-Serif" font-size="10.00">nlohmann::detail::parse</text>
<text xml:space="preserve" text-anchor="middle" x="1111.62" y="-94.88" font-family="Helvetica,sans-Serif" font-size="10.00">_error::create</text>
</a>
</g>
</g>
<!-- Node5&#45;&gt;Node6 -->
<g id="edge6" class="edge">
<title>Node5&#45;&gt;Node6</title>
<path fill="none" stroke="#63b8ff" d="M994.77,-346.02C998.53,-343.52 1002.02,-340.66 1005,-337.38 1040.48,-298.4 1019.65,-272.57 1041,-224.38 1056.03,-190.47 1078.17,-153.93 1093.43,-130.2"/>
<polygon fill="#63b8ff" stroke="#63b8ff" points="1096.16,-132.42 1098.68,-122.13 1090.29,-128.6 1096.16,-132.42"/>
</g>
<!-- Node9 -->
<g id="node9" class="node">
<title>Node9</title>
<g id="a_node9"><a xlink:href="a01995.html#a9c413c9a1bade1ce345740f4d69156f0" target="_top" xlink:title=" ">
<polygon fill="white" stroke="#666666" points="1182.25,-265.38 1041,-265.38 1041,-233.38 1182.25,-233.38 1182.25,-265.38"/>
<text xml:space="preserve" text-anchor="start" x="1049" y="-251.88" font-family="Helvetica,sans-Serif" font-size="10.00">nlohmann::detail::binary</text>
<text xml:space="preserve" text-anchor="middle" x="1111.62" y="-239.88" font-family="Helvetica,sans-Serif" font-size="10.00">_reader::exception_message</text>
</a>
</g>
</g>
<!-- Node5&#45;&gt;Node9 -->
<g id="edge9" class="edge">
<title>Node5&#45;&gt;Node9</title>
<path fill="none" stroke="#63b8ff" d="M989.03,-345.93C994.53,-343.31 999.99,-340.44 1005,-337.38 1035.12,-318.98 1065.68,-292.47 1086.13,-273.37"/>
<polygon fill="#63b8ff" stroke="#63b8ff" points="1088.3,-276.14 1093.15,-266.72 1083.48,-271.06 1088.3,-276.14"/>
</g>
<!-- Node7 -->
<g id="node7" class="node">
<title>Node7</title>
<g id="a_node7"><a xlink:href="a01559.html#abf41a7e9178356314082284e6cfea278" target="_top" xlink:title=" ">
<polygon fill="white" stroke="#666666" points="1353.5,-145.38 1218.25,-145.38 1218.25,-113.38 1353.5,-113.38 1353.5,-145.38"/>
<text xml:space="preserve" text-anchor="start" x="1226.25" y="-131.88" font-family="Helvetica,sans-Serif" font-size="10.00">nlohmann::detail::exception</text>
<text xml:space="preserve" text-anchor="middle" x="1285.88" y="-119.88" font-family="Helvetica,sans-Serif" font-size="10.00">::name</text>
</a>
</g>
</g>
<!-- Node6&#45;&gt;Node7 -->
<g id="edge7" class="edge">
<title>Node6&#45;&gt;Node7</title>
<path fill="none" stroke="#63b8ff" d="M1170.46,-112.77C1182.13,-114.47 1194.59,-116.28 1206.82,-118.05"/>
<polygon fill="#63b8ff" stroke="#63b8ff" points="1206.07,-121.48 1216.47,-119.45 1207.08,-114.55 1206.07,-121.48"/>
</g>
<!-- Node8 -->
<g id="node8" class="node">
<title>Node8</title>
<g id="a_node8"><a xlink:href="a01563.html#aefe74adeaa48781464ba2fd2ec63d221" target="_top" xlink:title=" ">
<polygon fill="white" stroke="#666666" points="1344.5,-95.38 1227.25,-95.38 1227.25,-63.38 1344.5,-63.38 1344.5,-95.38"/>
<text xml:space="preserve" text-anchor="start" x="1235.25" y="-81.88" font-family="Helvetica,sans-Serif" font-size="10.00">nlohmann::detail::parse</text>
<text xml:space="preserve" text-anchor="middle" x="1285.88" y="-69.88" font-family="Helvetica,sans-Serif" font-size="10.00">_error::position_string</text>
</a>
</g>
</g>
<!-- Node6&#45;&gt;Node8 -->
<g id="edge8" class="edge">
<title>Node6&#45;&gt;Node8</title>
<path fill="none" stroke="#63b8ff" d="M1170.46,-95.99C1184.95,-93.88 1200.63,-91.61 1215.61,-89.43"/>
<polygon fill="#63b8ff" stroke="#63b8ff" points="1216.01,-92.91 1225.4,-88.01 1215,-85.98 1216.01,-92.91"/>
</g>
<!-- Node10&#45;&gt;Node1 -->
<g id="edge30" class="edge">
<title>Node10&#45;&gt;Node1</title>
<path fill="none" stroke="#63b8ff" d="M375.28,-333.75C311.87,-341.19 219.21,-352.06 152.94,-359.84"/>
<polygon fill="#63b8ff" stroke="#63b8ff" points="152.75,-356.34 143.22,-360.98 153.56,-363.29 152.75,-356.34"/>
</g>
<!-- Node10&#45;&gt;Node3 -->
<g id="edge12" class="edge">
<title>Node10&#45;&gt;Node3</title>
<path fill="none" stroke="#63b8ff" d="M519.99,-326.56C567.74,-328.44 631.76,-333.1 687.25,-344.38 703.78,-347.74 706.6,-353.68 723.25,-356.38 778.64,-365.37 795.03,-369.87 849.5,-356.38 867.06,-352.03 869.16,-345.15 885.5,-337.38 888.36,-336.02 891.32,-334.65 894.31,-333.29"/>
<polygon fill="#63b8ff" stroke="#63b8ff" points="895.45,-336.62 903.16,-329.36 892.6,-330.22 895.45,-336.62"/>
</g>
<!-- Node10&#45;&gt;Node6 -->
<g id="edge11" class="edge">
<title>Node10&#45;&gt;Node6</title>
<path fill="none" stroke="#63b8ff" d="M452.52,-303.12C461.79,-256.86 489.52,-149.88 555.75,-92.38 707.31,39.21 811.24,5.98 1005,-46.38 1031.61,-53.57 1058.8,-68.72 1078.93,-81.73"/>
<polygon fill="#63b8ff" stroke="#63b8ff" points="1076.97,-84.63 1087.23,-87.26 1080.85,-78.8 1076.97,-84.63"/>
</g>
<!-- Node11 -->
<g id="node11" class="node">
<title>Node11</title>
<g id="a_node11"><a xlink:href="a01995.html#a9940f56290b9278c58772eda2931e599" target="_top" xlink:title="Parses a byte array input of length len from the BSON input.">
<polygon fill="white" stroke="#666666" points="684.25,-133.38 558.75,-133.38 558.75,-101.38 684.25,-101.38 684.25,-133.38"/>
<text xml:space="preserve" text-anchor="start" x="566.75" y="-119.88" font-family="Helvetica,sans-Serif" font-size="10.00">nlohmann::detail::binary</text>
<text xml:space="preserve" text-anchor="middle" x="621.5" y="-107.88" font-family="Helvetica,sans-Serif" font-size="10.00">_reader::get_bson_binary</text>
</a>
</g>
</g>
<!-- Node10&#45;&gt;Node11 -->
<g id="edge13" class="edge">
<title>Node10&#45;&gt;Node11</title>
<path fill="none" stroke="#63b8ff" d="M467.02,-303.12C499.24,-264.13 565.67,-183.74 599.58,-142.7"/>
<polygon fill="#63b8ff" stroke="#63b8ff" points="602.25,-144.96 605.92,-135.03 596.85,-140.5 602.25,-144.96"/>
</g>
<!-- Node14 -->
<g id="node14" class="node">
<title>Node14</title>
<g id="a_node14"><a xlink:href="a01995.html#a23921422802aa472360dd05023e20565" target="_top" xlink:title="Parses a zero&#45;terminated string of length len from the BSON input.">
<polygon fill="white" stroke="#666666" points="683.12,-281.38 559.88,-281.38 559.88,-249.38 683.12,-249.38 683.12,-281.38"/>
<text xml:space="preserve" text-anchor="start" x="567.88" y="-267.88" font-family="Helvetica,sans-Serif" font-size="10.00">nlohmann::detail::binary</text>
<text xml:space="preserve" text-anchor="middle" x="621.5" y="-255.88" font-family="Helvetica,sans-Serif" font-size="10.00">_reader::get_bson_string</text>
</a>
</g>
</g>
<!-- Node10&#45;&gt;Node14 -->
<g id="edge20" class="edge">
<title>Node10&#45;&gt;Node14</title>
<path fill="none" stroke="#63b8ff" d="M512.62,-303.04C528.99,-297.33 546.49,-291.22 562.53,-285.62"/>
<polygon fill="#63b8ff" stroke="#63b8ff" points="563.65,-288.93 571.94,-282.33 561.34,-282.32 563.65,-288.93"/>
</g>
<!-- Node16 -->
<g id="node16" class="node">
<title>Node16</title>
<g id="a_node16"><a xlink:href="a01995.html#a23eb89a222e22533e9fd43e76722f44f" target="_top" xlink:title="Reads an array from the BSON input and passes it to the SAX&#45;parser.">
<polygon fill="white" stroke="#666666" points="687.25,-385.38 555.75,-385.38 555.75,-353.38 687.25,-353.38 687.25,-385.38"/>
<text xml:space="preserve" text-anchor="start" x="563.75" y="-371.88" font-family="Helvetica,sans-Serif" font-size="10.00">nlohmann::detail::binary</text>
<text xml:space="preserve" text-anchor="middle" x="621.5" y="-359.88" font-family="Helvetica,sans-Serif" font-size="10.00">_reader::parse_bson_array</text>
</a>
</g>
</g>
<!-- Node10&#45;&gt;Node16 -->
<g id="edge28" class="edge">
<title>Node10&#45;&gt;Node16</title>
<path fill="none" stroke="#63b8ff" d="M520.02,-343.66C528.36,-345.79 536.88,-347.97 545.27,-350.12"/>
<polygon fill="#63b8ff" stroke="#63b8ff" points="544.17,-353.45 554.72,-352.54 545.9,-346.67 544.17,-353.45"/>
</g>
<!-- Node11&#45;&gt;Node6 -->
<g id="edge14" class="edge">
<title>Node11&#45;&gt;Node6</title>
<path fill="none" stroke="#63b8ff" d="M643.44,-100.92C662.86,-86.76 693.22,-67.41 723.25,-59.38 837.8,-28.76 976.92,-61.1 1053.38,-84.58"/>
<polygon fill="#63b8ff" stroke="#63b8ff" points="1052.16,-87.87 1062.75,-87.52 1054.26,-81.19 1052.16,-87.87"/>
</g>
<!-- Node11&#45;&gt;Node9 -->
<g id="edge15" class="edge">
<title>Node11&#45;&gt;Node9</title>
<path fill="none" stroke="#63b8ff" d="M673.42,-100.98C720.01,-88.5 790.47,-76 849.5,-92.38 943.68,-118.51 1037.94,-188.71 1083.1,-225.75"/>
<polygon fill="#63b8ff" stroke="#63b8ff" points="1080.63,-228.24 1090.56,-231.94 1085.1,-222.86 1080.63,-228.24"/>
</g>
<!-- Node12 -->
<g id="node12" class="node">
<title>Node12</title>
<g id="a_node12"><a xlink:href="a01995.html#a55e13d567a53234573ab3833c0ca32e9" target="_top" xlink:title="create a byte array by reading bytes from the input">
<polygon fill="white" stroke="#666666" points="846.12,-133.38 726.62,-133.38 726.62,-101.38 846.12,-101.38 846.12,-133.38"/>
<text xml:space="preserve" text-anchor="start" x="734.62" y="-119.88" font-family="Helvetica,sans-Serif" font-size="10.00">nlohmann::detail::binary</text>
<text xml:space="preserve" text-anchor="middle" x="786.38" y="-107.88" font-family="Helvetica,sans-Serif" font-size="10.00">_reader::get_binary</text>
</a>
</g>
</g>
<!-- Node11&#45;&gt;Node12 -->
<g id="edge16" class="edge">
<title>Node11&#45;&gt;Node12</title>
<path fill="none" stroke="#63b8ff" d="M684.54,-117.38C694.47,-117.38 704.81,-117.38 714.91,-117.38"/>
<polygon fill="#63b8ff" stroke="#63b8ff" points="714.68,-120.88 724.68,-117.38 714.68,-113.88 714.68,-120.88"/>
</g>
<!-- Node13 -->
<g id="node13" class="node">
<title>Node13</title>
<g id="a_node13"><a xlink:href="a01995.html#a7d323283c60a0b89ee5eeadf5cb9a5ad" target="_top" xlink:title=" ">
<polygon fill="white" stroke="#666666" points="849.5,-183.38 723.25,-183.38 723.25,-151.38 849.5,-151.38 849.5,-183.38"/>
<text xml:space="preserve" text-anchor="start" x="731.25" y="-169.88" font-family="Helvetica,sans-Serif" font-size="10.00">nlohmann::detail::binary</text>
<text xml:space="preserve" text-anchor="middle" x="786.38" y="-157.88" font-family="Helvetica,sans-Serif" font-size="10.00">_reader::get_token_string</text>
</a>
</g>
</g>
<!-- Node11&#45;&gt;Node13 -->
<g id="edge19" class="edge">
<title>Node11&#45;&gt;Node13</title>
<path fill="none" stroke="#63b8ff" d="M675.83,-133.75C690.24,-138.17 705.99,-143.01 720.93,-147.6"/>
<polygon fill="#63b8ff" stroke="#63b8ff" points="719.61,-150.85 730.2,-150.44 721.67,-144.16 719.61,-150.85"/>
</g>
<!-- Node12&#45;&gt;Node3 -->
<g id="edge17" class="edge">
<title>Node12&#45;&gt;Node3</title>
<path fill="none" stroke="#63b8ff" d="M837.35,-133.81C841.7,-136.31 845.84,-139.15 849.5,-142.38 894.52,-182.06 922.68,-248.52 935.71,-285.49"/>
<polygon fill="#63b8ff" stroke="#63b8ff" points="932.24,-286.18 938.78,-294.53 938.87,-283.93 932.24,-286.18"/>
</g>
<!-- Node12&#45;&gt;Node5 -->
<g id="edge18" class="edge">
<title>Node12&#45;&gt;Node5</title>
<path fill="none" stroke="#63b8ff" d="M840.29,-133.86C843.72,-136.32 846.85,-139.14 849.5,-142.38 905.28,-210.61 830.39,-268.6 885.5,-337.38 885.75,-337.69 886,-337.99 886.25,-338.29"/>
<polygon fill="#63b8ff" stroke="#63b8ff" points="883.86,-340.85 893.61,-345 888.58,-335.68 883.86,-340.85"/>
</g>
<!-- Node14&#45;&gt;Node3 -->
<g id="edge23" class="edge">
<title>Node14&#45;&gt;Node3</title>
<path fill="none" stroke="#63b8ff" d="M683.4,-274.28C737.71,-282.21 817.21,-293.82 874.16,-302.14"/>
<polygon fill="#63b8ff" stroke="#63b8ff" points="873.33,-305.56 883.73,-303.54 874.34,-298.63 873.33,-305.56"/>
</g>
<!-- Node14&#45;&gt;Node6 -->
<g id="edge21" class="edge">
<title>Node14&#45;&gt;Node6</title>
<path fill="none" stroke="#63b8ff" d="M674.41,-248.91C720.46,-234.25 789.54,-212.12 849.5,-192.38 919.07,-169.47 998.83,-142.49 1051.7,-124.5"/>
<polygon fill="#63b8ff" stroke="#63b8ff" points="1052.79,-127.82 1061.13,-121.29 1050.54,-121.2 1052.79,-127.82"/>
</g>
<!-- Node14&#45;&gt;Node9 -->
<g id="edge22" class="edge">
<title>Node14&#45;&gt;Node9</title>
<path fill="none" stroke="#63b8ff" d="M683.33,-263.39C770.73,-260.52 931.99,-255.23 1029.46,-252.04"/>
<polygon fill="#63b8ff" stroke="#63b8ff" points="1029.34,-255.55 1039.22,-251.72 1029.11,-248.55 1029.34,-255.55"/>
</g>
<!-- Node14&#45;&gt;Node13 -->
<g id="edge27" class="edge">
<title>Node14&#45;&gt;Node13</title>
<path fill="none" stroke="#63b8ff" d="M644.71,-249.03C664.74,-234.62 695.26,-213.47 723.25,-197.38 728.25,-194.51 733.56,-191.65 738.9,-188.91"/>
<polygon fill="#63b8ff" stroke="#63b8ff" points="740.38,-192.09 747.76,-184.49 737.25,-185.83 740.38,-192.09"/>
</g>
<!-- Node15 -->
<g id="node15" class="node">
<title>Node15</title>
<g id="a_node15"><a xlink:href="a01995.html#a540919db22df36512f05a88945c13263" target="_top" xlink:title="create a string by reading characters from the input">
<polygon fill="white" stroke="#666666" points="846.12,-347.38 726.62,-347.38 726.62,-315.38 846.12,-315.38 846.12,-347.38"/>
<text xml:space="preserve" text-anchor="start" x="734.62" y="-333.88" font-family="Helvetica,sans-Serif" font-size="10.00">nlohmann::detail::binary</text>
<text xml:space="preserve" text-anchor="middle" x="786.38" y="-321.88" font-family="Helvetica,sans-Serif" font-size="10.00">_reader::get_string</text>
</a>
</g>
</g>
<!-- Node14&#45;&gt;Node15 -->
<g id="edge24" class="edge">
<title>Node14&#45;&gt;Node15</title>
<path fill="none" stroke="#63b8ff" d="M663.18,-281.86C684.74,-290.6 711.42,-301.41 734.35,-310.71"/>
<polygon fill="#63b8ff" stroke="#63b8ff" points="732.95,-313.91 743.53,-314.42 735.58,-307.42 732.95,-313.91"/>
</g>
<!-- Node15&#45;&gt;Node3 -->
<g id="edge25" class="edge">
<title>Node15&#45;&gt;Node3</title>
<path fill="none" stroke="#63b8ff" d="M846.24,-324.25C855.26,-323.16 864.65,-322.02 873.9,-320.9"/>
<polygon fill="#63b8ff" stroke="#63b8ff" points="874.05,-324.41 883.56,-319.73 873.21,-317.46 874.05,-324.41"/>
</g>
<!-- Node15&#45;&gt;Node5 -->
<g id="edge26" class="edge">
<title>Node15&#45;&gt;Node5</title>
<path fill="none" stroke="#63b8ff" d="M846.24,-343.01C855.26,-344.79 864.65,-346.65 873.9,-348.48"/>
<polygon fill="#63b8ff" stroke="#63b8ff" points="873.09,-351.88 883.57,-350.39 874.44,-345.02 873.09,-351.88"/>
</g>
<!-- Node16&#45;&gt;Node2 -->
<g id="edge29" class="edge">
<title>Node16&#45;&gt;Node2</title>
<path fill="none" stroke="#63b8ff" d="M555.5,-373.88C498.52,-377.82 415.05,-383.6 351.24,-388.02"/>
<polygon fill="#63b8ff" stroke="#63b8ff" points="351.21,-384.51 341.48,-388.7 351.7,-391.5 351.21,-384.51"/>
</g>
</g>
</svg>
