<?xml version="1.0" encoding="UTF-8" standalone="no"?>
<!DOCTYPE svg PUBLIC "-//W3C//DTD SVG 1.1//EN"
 "http://www.w3.org/Graphics/SVG/1.1/DTD/svg11.dtd">
<!-- Generated by graphviz version 13.1.2 (20250808.2320)
 -->
<!-- Title: nlohmann::detail::lexer::scan Pages: 1 -->
<svg width="595pt" height="556pt"
 viewBox="0.00 0.00 595.00 556.00" xmlns="http://www.w3.org/2000/svg" xmlns:xlink="http://www.w3.org/1999/xlink">
<g id="graph0" class="graph" transform="scale(1 1) rotate(0) translate(4 552)">
<title>nlohmann::detail::lexer::scan</title>
<!-- Node1 -->
<g id="node1" class="node">
<title>Node1</title>
<g id="a_node1"><a xlink:title=" ">
<polygon fill="#999999" stroke="#666666" points="114.25,-414 0,-414 0,-382 114.25,-382 114.25,-414"/>
<text xml:space="preserve" text-anchor="start" x="8" y="-400.5" font-family="Helvetica,sans-Serif" font-size="10.00">nlohmann::detail::lexer</text>
<text xml:space="preserve" text-anchor="middle" x="57.12" y="-388.5" font-family="Helvetica,sans-Serif" font-size="10.00">::scan</text>
</a>
</g>
</g>
<!-- Node2 -->
<g id="node2" class="node">
<title>Node2</title>
<g id="a_node2"><a xlink:href="a01983.html#afdc68706ad20be93977cd0f97043ea7f" target="_top" xlink:title="scan a comment">
<polygon fill="white" stroke="#666666" points="264.5,-389 150.25,-389 150.25,-357 264.5,-357 264.5,-389"/>
<text xml:space="preserve" text-anchor="start" x="158.25" y="-375.5" font-family="Helvetica,sans-Serif" font-size="10.00">nlohmann::detail::lexer</text>
<text xml:space="preserve" text-anchor="middle" x="207.38" y="-363.5" font-family="Helvetica,sans-Serif" font-size="10.00">::scan_comment</text>
</a>
</g>
</g>
<!-- Node1&#45;&gt;Node2 -->
<g id="edge1" class="edge">
<title>Node1&#45;&gt;Node2</title>
<path fill="none" stroke="#63b8ff" d="M114.59,-388.48C122.49,-387.15 130.67,-385.77 138.75,-384.4"/>
<polygon fill="#63b8ff" stroke="#63b8ff" points="139.29,-387.86 148.57,-382.75 138.13,-380.96 139.29,-387.86"/>
</g>
<!-- Node5 -->
<g id="node5" class="node">
<title>Node5</title>
<g id="a_node5"><a xlink:href="a01983.html#ad89dec0ac0f4e851925a0499e043b18b" target="_top" xlink:title=" ">
<polygon fill="white" stroke="#666666" points="414.75,-548 300.5,-548 300.5,-516 414.75,-516 414.75,-548"/>
<text xml:space="preserve" text-anchor="start" x="308.5" y="-534.5" font-family="Helvetica,sans-Serif" font-size="10.00">nlohmann::detail::lexer</text>
<text xml:space="preserve" text-anchor="middle" x="357.62" y="-522.5" font-family="Helvetica,sans-Serif" font-size="10.00">::scan_literal</text>
</a>
</g>
</g>
<!-- Node1&#45;&gt;Node5 -->
<g id="edge4" class="edge">
<title>Node1&#45;&gt;Node5</title>
<path fill="none" stroke="#63b8ff" d="M66.54,-414.45C80.29,-439.45 110.13,-486.36 150.25,-508 192.56,-530.82 246.75,-536.39 288.99,-536.48"/>
<polygon fill="#63b8ff" stroke="#63b8ff" points="288.8,-539.98 298.77,-536.39 288.74,-532.98 288.8,-539.98"/>
</g>
<!-- Node6 -->
<g id="node6" class="node">
<title>Node6</title>
<g id="a_node6"><a xlink:href="a01983.html#aab51a28e32c1957329141baff8eda1c4" target="_top" xlink:title="scan a number literal">
<polygon fill="white" stroke="#666666" points="264.5,-136 150.25,-136 150.25,-104 264.5,-104 264.5,-136"/>
<text xml:space="preserve" text-anchor="start" x="158.25" y="-122.5" font-family="Helvetica,sans-Serif" font-size="10.00">nlohmann::detail::lexer</text>
<text xml:space="preserve" text-anchor="middle" x="207.38" y="-110.5" font-family="Helvetica,sans-Serif" font-size="10.00">::scan_number</text>
</a>
</g>
</g>
<!-- Node1&#45;&gt;Node6 -->
<g id="edge6" class="edge">
<title>Node1&#45;&gt;Node6</title>
<path fill="none" stroke="#63b8ff" d="M66.74,-381.85C91.35,-335.69 162.18,-202.87 192.42,-146.16"/>
<polygon fill="#63b8ff" stroke="#63b8ff" points="195.41,-148 197.03,-137.53 189.23,-144.7 195.41,-148"/>
</g>
<!-- Node10 -->
<g id="node10" class="node">
<title>Node10</title>
<g id="a_node10"><a xlink:href="a01983.html#ab6352978e03ebcbc3cd618cd17142f26" target="_top" xlink:title="scan a string literal">
<polygon fill="white" stroke="#666666" points="264.5,-271 150.25,-271 150.25,-239 264.5,-239 264.5,-271"/>
<text xml:space="preserve" text-anchor="start" x="158.25" y="-257.5" font-family="Helvetica,sans-Serif" font-size="10.00">nlohmann::detail::lexer</text>
<text xml:space="preserve" text-anchor="middle" x="207.38" y="-245.5" font-family="Helvetica,sans-Serif" font-size="10.00">::scan_string</text>
</a>
</g>
</g>
<!-- Node1&#45;&gt;Node10 -->
<g id="edge12" class="edge">
<title>Node1&#45;&gt;Node10</title>
<path fill="none" stroke="#63b8ff" d="M75.13,-381.6C101.27,-356.38 151.46,-307.98 181.63,-278.87"/>
<polygon fill="#63b8ff" stroke="#63b8ff" points="183.71,-281.72 188.48,-272.26 178.85,-276.69 183.71,-281.72"/>
</g>
<!-- Node13 -->
<g id="node13" class="node">
<title>Node13</title>
<g id="a_node13"><a xlink:href="a01983.html#a7cd7d55de2cd398660bc243c7229caf9" target="_top" xlink:title="skip the UTF&#45;8 byte order mark">
<polygon fill="white" stroke="#666666" points="264.5,-439 150.25,-439 150.25,-407 264.5,-407 264.5,-439"/>
<text xml:space="preserve" text-anchor="start" x="158.25" y="-425.5" font-family="Helvetica,sans-Serif" font-size="10.00">nlohmann::detail::lexer</text>
<text xml:space="preserve" text-anchor="middle" x="207.38" y="-413.5" font-family="Helvetica,sans-Serif" font-size="10.00">::skip_bom</text>
</a>
</g>
</g>
<!-- Node1&#45;&gt;Node13 -->
<g id="edge21" class="edge">
<title>Node1&#45;&gt;Node13</title>
<path fill="none" stroke="#63b8ff" d="M114.59,-407.52C122.49,-408.85 130.67,-410.23 138.75,-411.6"/>
<polygon fill="#63b8ff" stroke="#63b8ff" points="138.13,-415.04 148.57,-413.25 139.29,-408.14 138.13,-415.04"/>
</g>
<!-- Node14 -->
<g id="node14" class="node">
<title>Node14</title>
<g id="a_node14"><a xlink:href="a01983.html#a449f3f3703dfbf8b757e12f002668604" target="_top" xlink:title=" ">
<polygon fill="white" stroke="#666666" points="264.5,-499 150.25,-499 150.25,-467 264.5,-467 264.5,-499"/>
<text xml:space="preserve" text-anchor="start" x="158.25" y="-485.5" font-family="Helvetica,sans-Serif" font-size="10.00">nlohmann::detail::lexer</text>
<text xml:space="preserve" text-anchor="middle" x="207.38" y="-473.5" font-family="Helvetica,sans-Serif" font-size="10.00">::skip_whitespace</text>
</a>
</g>
</g>
<!-- Node1&#45;&gt;Node14 -->
<g id="edge24" class="edge">
<title>Node1&#45;&gt;Node14</title>
<path fill="none" stroke="#63b8ff" d="M86.71,-414.39C109.81,-427.63 142.55,-446.4 167.94,-460.96"/>
<polygon fill="#63b8ff" stroke="#63b8ff" points="165.9,-463.83 176.31,-465.76 169.38,-457.75 165.9,-463.83"/>
</g>
<!-- Node3 -->
<g id="node3" class="node">
<title>Node3</title>
<g id="a_node3"><a xlink:href="a01983.html#a9cd3e4cf04d19be521beb8868c1a2fc9" target="_top" xlink:title=" ">
<polygon fill="white" stroke="#666666" points="585.62,-378 451.88,-378 451.88,-358 585.62,-358 585.62,-378"/>
<text xml:space="preserve" text-anchor="middle" x="518.75" y="-364.5" font-family="Helvetica,sans-Serif" font-size="10.00">nlohmann::detail::lexer::get</text>
</a>
</g>
</g>
<!-- Node2&#45;&gt;Node3 -->
<g id="edge2" class="edge">
<title>Node2&#45;&gt;Node3</title>
<path fill="none" stroke="#63b8ff" d="M264.58,-387.2C276.37,-389.61 288.78,-391.74 300.5,-393 350.99,-398.42 364.33,-399.03 414.75,-393 434.03,-390.69 454.91,-386.04 472.8,-381.37"/>
<polygon fill="#63b8ff" stroke="#63b8ff" points="473.59,-384.78 482.33,-378.8 471.76,-378.03 473.59,-384.78"/>
</g>
<!-- Node4 -->
<g id="node4" class="node">
<title>Node4</title>
<g id="a_node4"><a xlink:href="a01983.html#ab5811afe1c3efb0b769f7733b8373c6f" target="_top" xlink:title="unget current character (read it again on next get)">
<polygon fill="white" stroke="#666666" points="414.75,-384 300.5,-384 300.5,-352 414.75,-352 414.75,-384"/>
<text xml:space="preserve" text-anchor="start" x="308.5" y="-370.5" font-family="Helvetica,sans-Serif" font-size="10.00">nlohmann::detail::lexer</text>
<text xml:space="preserve" text-anchor="middle" x="357.62" y="-358.5" font-family="Helvetica,sans-Serif" font-size="10.00">::unget</text>
</a>
</g>
</g>
<!-- Node2&#45;&gt;Node4 -->
<g id="edge3" class="edge">
<title>Node2&#45;&gt;Node4</title>
<path fill="none" stroke="#63b8ff" d="M264.84,-371.1C272.74,-370.83 280.92,-370.55 289,-370.28"/>
<polygon fill="#63b8ff" stroke="#63b8ff" points="288.92,-373.79 298.8,-369.95 288.69,-366.79 288.92,-373.79"/>
</g>
<!-- Node5&#45;&gt;Node3 -->
<g id="edge5" class="edge">
<title>Node5&#45;&gt;Node3</title>
<path fill="none" stroke="#63b8ff" d="M394.82,-515.59C401.78,-511.64 408.77,-507.07 414.75,-502 454.84,-468.01 489.25,-415.99 506.31,-387.8"/>
<polygon fill="#63b8ff" stroke="#63b8ff" points="509.11,-389.94 511.2,-379.56 503.09,-386.37 509.11,-389.94"/>
</g>
<!-- Node6&#45;&gt;Node3 -->
<g id="edge8" class="edge">
<title>Node6&#45;&gt;Node3</title>
<path fill="none" stroke="#63b8ff" d="M261.82,-103.58C306.52,-93.26 369.98,-86.94 414.75,-117 449.83,-140.55 434.72,-165.9 450.75,-205 471.75,-256.21 496.52,-316.43 509.25,-347.36"/>
<polygon fill="#63b8ff" stroke="#63b8ff" points="505.89,-348.39 512.93,-356.3 512.37,-345.73 505.89,-348.39"/>
</g>
<!-- Node6&#45;&gt;Node4 -->
<g id="edge11" class="edge">
<title>Node6&#45;&gt;Node4</title>
<path fill="none" stroke="#63b8ff" d="M216.87,-136.34C227.97,-157.77 247.95,-196.57 264.5,-230 280.9,-263.14 280,-274.23 300.5,-305 309.62,-318.7 321.55,-332.51 332.06,-343.69"/>
<polygon fill="#63b8ff" stroke="#63b8ff" points="329.25,-345.82 338.71,-350.6 334.3,-340.96 329.25,-345.82"/>
</g>
<!-- Node7 -->
<g id="node7" class="node">
<title>Node7</title>
<g id="a_node7"><a xlink:href="a01983.html#a36ffc3c33c3aea18291ead7a30fa7cc6" target="_top" xlink:title="add a character to token_buffer">
<polygon fill="white" stroke="#666666" points="586.75,-196 450.75,-196 450.75,-176 586.75,-176 586.75,-196"/>
<text xml:space="preserve" text-anchor="middle" x="518.75" y="-182.5" font-family="Helvetica,sans-Serif" font-size="10.00">nlohmann::detail::lexer::add</text>
</a>
</g>
</g>
<!-- Node6&#45;&gt;Node7 -->
<g id="edge7" class="edge">
<title>Node6&#45;&gt;Node7</title>
<path fill="none" stroke="#63b8ff" d="M241.04,-103.55C282.77,-84.92 356.56,-60.06 414.75,-84 455.07,-100.59 487.99,-141.44 505.06,-166.12"/>
<polygon fill="#63b8ff" stroke="#63b8ff" points="502.08,-167.95 510.54,-174.33 507.9,-164.07 502.08,-167.95"/>
</g>
<!-- Node8 -->
<g id="node8" class="node">
<title>Node8</title>
<g id="a_node8"><a xlink:href="a01983.html#a3bda093837339813916d11fb6e396606" target="_top" xlink:title="reset token_buffer; current character is beginning of token">
<polygon fill="white" stroke="#666666" points="414.75,-158 300.5,-158 300.5,-126 414.75,-126 414.75,-158"/>
<text xml:space="preserve" text-anchor="start" x="308.5" y="-144.5" font-family="Helvetica,sans-Serif" font-size="10.00">nlohmann::detail::lexer</text>
<text xml:space="preserve" text-anchor="middle" x="357.62" y="-132.5" font-family="Helvetica,sans-Serif" font-size="10.00">::reset</text>
</a>
</g>
</g>
<!-- Node6&#45;&gt;Node8 -->
<g id="edge9" class="edge">
<title>Node6&#45;&gt;Node8</title>
<path fill="none" stroke="#63b8ff" d="M264.84,-128.38C272.74,-129.55 280.92,-130.77 289,-131.96"/>
<polygon fill="#63b8ff" stroke="#63b8ff" points="288.41,-135.42 298.81,-133.42 289.44,-128.49 288.41,-135.42"/>
</g>
<!-- Node9 -->
<g id="node9" class="node">
<title>Node9</title>
<g id="a_node9"><a xlink:href="a01983.html#a6d3dffb7bb247a7fd7276d49d3a00dc8" target="_top" xlink:title=" ">
<polygon fill="white" stroke="#666666" points="414.75,-32 300.5,-32 300.5,0 414.75,0 414.75,-32"/>
<text xml:space="preserve" text-anchor="start" x="308.5" y="-18.5" font-family="Helvetica,sans-Serif" font-size="10.00">nlohmann::detail::lexer</text>
<text xml:space="preserve" text-anchor="middle" x="357.62" y="-6.5" font-family="Helvetica,sans-Serif" font-size="10.00">::strtof</text>
</a>
</g>
</g>
<!-- Node6&#45;&gt;Node9 -->
<g id="edge10" class="edge">
<title>Node6&#45;&gt;Node9</title>
<path fill="none" stroke="#63b8ff" d="M226.65,-103.62C244.7,-87.87 273.46,-63.87 300.5,-46 304.66,-43.25 309.09,-40.54 313.58,-37.94"/>
<polygon fill="#63b8ff" stroke="#63b8ff" points="315.05,-41.13 322.06,-33.19 311.63,-35.02 315.05,-41.13"/>
</g>
<!-- Node10&#45;&gt;Node3 -->
<g id="edge14" class="edge">
<title>Node10&#45;&gt;Node3</title>
<path fill="none" stroke="#63b8ff" d="M235.03,-271.46C253.04,-282.07 277.61,-295.6 300.5,-305 330.6,-317.36 412.76,-340.12 466.97,-354.63"/>
<polygon fill="#63b8ff" stroke="#63b8ff" points="466.06,-358.01 476.63,-357.21 467.87,-351.25 466.06,-358.01"/>
</g>
<!-- Node10&#45;&gt;Node7 -->
<g id="edge13" class="edge">
<title>Node10&#45;&gt;Node7</title>
<path fill="none" stroke="#63b8ff" d="M232.19,-238.51C250.12,-227.01 275.75,-212.44 300.5,-205 345.17,-191.56 397.16,-186.66 439.08,-185.19"/>
<polygon fill="#63b8ff" stroke="#63b8ff" points="438.94,-188.69 448.83,-184.91 438.74,-181.69 438.94,-188.69"/>
</g>
<!-- Node10&#45;&gt;Node8 -->
<g id="edge20" class="edge">
<title>Node10&#45;&gt;Node8</title>
<path fill="none" stroke="#63b8ff" d="M224,-238.73C241.56,-220.99 271.43,-192.41 300.5,-172 304.37,-169.29 308.51,-166.64 312.72,-164.12"/>
<polygon fill="#63b8ff" stroke="#63b8ff" points="314.33,-167.23 321.28,-159.23 310.86,-161.15 314.33,-167.23"/>
</g>
<!-- Node11 -->
<g id="node11" class="node">
<title>Node11</title>
<g id="a_node11"><a xlink:href="a01983.html#adcf663a9878f58544790f1b6faad2e42" target="_top" xlink:title="get codepoint from 4 hex characters following \u">
<polygon fill="white" stroke="#666666" points="414.75,-296 300.5,-296 300.5,-264 414.75,-264 414.75,-296"/>
<text xml:space="preserve" text-anchor="start" x="308.5" y="-282.5" font-family="Helvetica,sans-Serif" font-size="10.00">nlohmann::detail::lexer</text>
<text xml:space="preserve" text-anchor="middle" x="357.62" y="-270.5" font-family="Helvetica,sans-Serif" font-size="10.00">::get_codepoint</text>
</a>
</g>
</g>
<!-- Node10&#45;&gt;Node11 -->
<g id="edge15" class="edge">
<title>Node10&#45;&gt;Node11</title>
<path fill="none" stroke="#63b8ff" d="M264.84,-264.52C272.74,-265.85 280.92,-267.23 289,-268.6"/>
<polygon fill="#63b8ff" stroke="#63b8ff" points="288.38,-272.04 298.82,-270.25 289.54,-265.14 288.38,-272.04"/>
</g>
<!-- Node12 -->
<g id="node12" class="node">
<title>Node12</title>
<g id="a_node12"><a xlink:href="a01983.html#af6fe701b8b3ca5f4a1b58db4658bdf87" target="_top" xlink:title="check if the next byte(s) are inside a given range">
<polygon fill="white" stroke="#666666" points="414.75,-246 300.5,-246 300.5,-214 414.75,-214 414.75,-246"/>
<text xml:space="preserve" text-anchor="start" x="308.5" y="-232.5" font-family="Helvetica,sans-Serif" font-size="10.00">nlohmann::detail::lexer</text>
<text xml:space="preserve" text-anchor="middle" x="357.62" y="-220.5" font-family="Helvetica,sans-Serif" font-size="10.00">::next_byte_in_range</text>
</a>
</g>
</g>
<!-- Node10&#45;&gt;Node12 -->
<g id="edge17" class="edge">
<title>Node10&#45;&gt;Node12</title>
<path fill="none" stroke="#63b8ff" d="M264.84,-245.48C272.74,-244.15 280.92,-242.77 289,-241.4"/>
<polygon fill="#63b8ff" stroke="#63b8ff" points="289.54,-244.86 298.82,-239.75 288.38,-237.96 289.54,-244.86"/>
</g>
<!-- Node11&#45;&gt;Node3 -->
<g id="edge16" class="edge">
<title>Node11&#45;&gt;Node3</title>
<path fill="none" stroke="#63b8ff" d="M389.57,-296.38C397.77,-300.77 406.61,-305.54 414.75,-310 440.18,-323.96 468.93,-340.18 489.58,-351.92"/>
<polygon fill="#63b8ff" stroke="#63b8ff" points="487.85,-354.96 498.27,-356.86 491.31,-348.87 487.85,-354.96"/>
</g>
<!-- Node12&#45;&gt;Node3 -->
<g id="edge19" class="edge">
<title>Node12&#45;&gt;Node3</title>
<path fill="none" stroke="#63b8ff" d="M400.76,-246.45C405.65,-249.02 410.43,-251.88 414.75,-255 452.01,-281.9 485.99,-324.11 504.08,-348.61"/>
<polygon fill="#63b8ff" stroke="#63b8ff" points="501.03,-350.36 509.73,-356.41 506.7,-346.26 501.03,-350.36"/>
</g>
<!-- Node12&#45;&gt;Node7 -->
<g id="edge18" class="edge">
<title>Node12&#45;&gt;Node7</title>
<path fill="none" stroke="#63b8ff" d="M415.17,-214.36C432.76,-209.5 451.99,-204.18 469,-199.48"/>
<polygon fill="#63b8ff" stroke="#63b8ff" points="469.65,-202.93 478.35,-196.89 467.78,-196.19 469.65,-202.93"/>
</g>
<!-- Node13&#45;&gt;Node3 -->
<g id="edge22" class="edge">
<title>Node13&#45;&gt;Node3</title>
<path fill="none" stroke="#63b8ff" d="M264.68,-423.87C306.55,-423.39 364.85,-420.33 414.75,-409 439.77,-403.32 466.66,-392.44 486.69,-383.31"/>
<polygon fill="#63b8ff" stroke="#63b8ff" points="488.11,-386.51 495.69,-379.11 485.15,-380.17 488.11,-386.51"/>
</g>
<!-- Node13&#45;&gt;Node4 -->
<g id="edge23" class="edge">
<title>Node13&#45;&gt;Node4</title>
<path fill="none" stroke="#63b8ff" d="M252.45,-406.65C267.93,-400.91 285.5,-394.39 301.75,-388.36"/>
<polygon fill="#63b8ff" stroke="#63b8ff" points="302.63,-391.77 310.78,-385.01 300.19,-385.2 302.63,-391.77"/>
</g>
<!-- Node14&#45;&gt;Node3 -->
<g id="edge25" class="edge">
<title>Node14&#45;&gt;Node3</title>
<path fill="none" stroke="#63b8ff" d="M264.99,-473.08C307.28,-464.58 365.96,-450.43 414.75,-430 443.57,-417.93 473.91,-398.77 494.13,-384.95"/>
<polygon fill="#63b8ff" stroke="#63b8ff" points="496.01,-387.91 502.22,-379.32 492.01,-382.16 496.01,-387.91"/>
</g>
</g>
</svg>
