<?xml version="1.0" encoding="UTF-8" standalone="no"?>
<!DOCTYPE svg PUBLIC "-//W3C//DTD SVG 1.1//EN"
 "http://www.w3.org/Graphics/SVG/1.1/DTD/svg11.dtd">
<!-- Generated by graphviz version 13.1.2 (20250808.2320)
 -->
<!-- Title: nlohmann::detail::binary_reader::get_msgpack_string Pages: 1 -->
<svg width="816pt" height="239pt"
 viewBox="0.00 0.00 816.00 239.00" xmlns="http://www.w3.org/2000/svg" xmlns:xlink="http://www.w3.org/1999/xlink">
<g id="graph0" class="graph" transform="scale(1 1) rotate(0) translate(4 235)">
<title>nlohmann::detail::binary_reader::get_msgpack_string</title>
<!-- Node1 -->
<g id="node1" class="node">
<title>Node1</title>
<g id="a_node1"><a xlink:title="reads a MessagePack string">
<polygon fill="#999999" stroke="#666666" points="142,-145 0,-145 0,-113 142,-113 142,-145"/>
<text xml:space="preserve" text-anchor="start" x="8" y="-131.5" font-family="Helvetica,sans-Serif" font-size="10.00">nlohmann::detail::binary</text>
<text xml:space="preserve" text-anchor="middle" x="71" y="-119.5" font-family="Helvetica,sans-Serif" font-size="10.00">_reader::get_msgpack_string</text>
</a>
</g>
</g>
<!-- Node2 -->
<g id="node2" class="node">
<title>Node2</title>
<g id="a_node2"><a xlink:href="a01563.html#a137ea4d27de45d8a844fd13451d40f3d" target="_top" xlink:title="create a parse error exception">
<polygon fill="white" stroke="#666666" points="625,-206 507.75,-206 507.75,-174 625,-174 625,-206"/>
<text xml:space="preserve" text-anchor="start" x="515.75" y="-192.5" font-family="Helvetica,sans-Serif" font-size="10.00">nlohmann::detail::parse</text>
<text xml:space="preserve" text-anchor="middle" x="566.38" y="-180.5" font-family="Helvetica,sans-Serif" font-size="10.00">_error::create</text>
</a>
</g>
</g>
<!-- Node1&#45;&gt;Node2 -->
<g id="edge1" class="edge">
<title>Node1&#45;&gt;Node2</title>
<path fill="none" stroke="#63b8ff" d="M90.26,-145.43C110.18,-162.15 143.8,-186.97 178,-197 285.66,-228.56 417.48,-216.03 496.27,-203.45"/>
<polygon fill="#63b8ff" stroke="#63b8ff" points="496.71,-206.93 506,-201.85 495.57,-200.02 496.71,-206.93"/>
</g>
<!-- Node5 -->
<g id="node5" class="node">
<title>Node5</title>
<g id="a_node5"><a xlink:href="a01995.html#a9c413c9a1bade1ce345740f4d69156f0" target="_top" xlink:title=" ">
<polygon fill="white" stroke="#666666" points="637,-134 495.75,-134 495.75,-102 637,-102 637,-134"/>
<text xml:space="preserve" text-anchor="start" x="503.75" y="-120.5" font-family="Helvetica,sans-Serif" font-size="10.00">nlohmann::detail::binary</text>
<text xml:space="preserve" text-anchor="middle" x="566.38" y="-108.5" font-family="Helvetica,sans-Serif" font-size="10.00">_reader::exception_message</text>
</a>
</g>
</g>
<!-- Node1&#45;&gt;Node5 -->
<g id="edge4" class="edge">
<title>Node1&#45;&gt;Node5</title>
<path fill="none" stroke="#63b8ff" d="M98.27,-112.59C119.03,-100.63 149.21,-85.45 178,-79 300.19,-51.63 336.48,-56.97 459.75,-79 480.08,-82.63 501.63,-89.91 519.92,-97.21"/>
<polygon fill="#63b8ff" stroke="#63b8ff" points="518.58,-100.44 529.16,-101.02 521.25,-93.97 518.58,-100.44"/>
</g>
<!-- Node6 -->
<g id="node6" class="node">
<title>Node6</title>
<g id="a_node6"><a xlink:href="a01995.html#ac356c6364fe0273d3303fb7a447f4ef6" target="_top" xlink:title=" ">
<polygon fill="white" stroke="#666666" points="300.88,-170 181.38,-170 181.38,-138 300.88,-138 300.88,-170"/>
<text xml:space="preserve" text-anchor="start" x="189.38" y="-156.5" font-family="Helvetica,sans-Serif" font-size="10.00">nlohmann::detail::binary</text>
<text xml:space="preserve" text-anchor="middle" x="241.12" y="-144.5" font-family="Helvetica,sans-Serif" font-size="10.00">_reader::get_number</text>
</a>
</g>
</g>
<!-- Node1&#45;&gt;Node6 -->
<g id="edge5" class="edge">
<title>Node1&#45;&gt;Node6</title>
<path fill="none" stroke="#63b8ff" d="M142.33,-139.46C151.37,-140.8 160.64,-142.18 169.69,-143.53"/>
<polygon fill="#63b8ff" stroke="#63b8ff" points="169.1,-146.98 179.5,-144.99 170.13,-140.05 169.1,-146.98"/>
</g>
<!-- Node8 -->
<g id="node8" class="node">
<title>Node8</title>
<g id="a_node8"><a xlink:href="a01995.html#a61a0bd8bbe7b560bd429fa990ba3ba1a" target="_top" xlink:title=" ">
<polygon fill="white" stroke="#666666" points="459.75,-170 340.25,-170 340.25,-138 459.75,-138 459.75,-170"/>
<text xml:space="preserve" text-anchor="start" x="348.25" y="-156.5" font-family="Helvetica,sans-Serif" font-size="10.00">nlohmann::detail::binary</text>
<text xml:space="preserve" text-anchor="middle" x="400" y="-144.5" font-family="Helvetica,sans-Serif" font-size="10.00">_reader::unexpect_eof</text>
</a>
</g>
</g>
<!-- Node1&#45;&gt;Node8 -->
<g id="edge14" class="edge">
<title>Node1&#45;&gt;Node8</title>
<path fill="none" stroke="#63b8ff" d="M98.27,-145.41C119.03,-157.37 149.21,-172.55 178,-179 232.75,-191.27 248.61,-186.22 304.25,-179 314.41,-177.68 325.03,-175.6 335.34,-173.19"/>
<polygon fill="#63b8ff" stroke="#63b8ff" points="336.02,-176.62 344.89,-170.82 334.34,-169.83 336.02,-176.62"/>
</g>
<!-- Node9 -->
<g id="node9" class="node">
<title>Node9</title>
<g id="a_node9"><a xlink:href="a01995.html#a540919db22df36512f05a88945c13263" target="_top" xlink:title="create a string by reading characters from the input">
<polygon fill="white" stroke="#666666" points="300.88,-120 181.38,-120 181.38,-88 300.88,-88 300.88,-120"/>
<text xml:space="preserve" text-anchor="start" x="189.38" y="-106.5" font-family="Helvetica,sans-Serif" font-size="10.00">nlohmann::detail::binary</text>
<text xml:space="preserve" text-anchor="middle" x="241.12" y="-94.5" font-family="Helvetica,sans-Serif" font-size="10.00">_reader::get_string</text>
</a>
</g>
</g>
<!-- Node1&#45;&gt;Node9 -->
<g id="edge10" class="edge">
<title>Node1&#45;&gt;Node9</title>
<path fill="none" stroke="#63b8ff" d="M142.33,-118.54C151.37,-117.2 160.64,-115.82 169.69,-114.47"/>
<polygon fill="#63b8ff" stroke="#63b8ff" points="170.13,-117.95 179.5,-113.01 169.1,-111.02 170.13,-117.95"/>
</g>
<!-- Node10 -->
<g id="node10" class="node">
<title>Node10</title>
<g id="a_node10"><a xlink:href="a01995.html#a7d323283c60a0b89ee5eeadf5cb9a5ad" target="_top" xlink:title=" ">
<polygon fill="white" stroke="#666666" points="304.25,-32 178,-32 178,0 304.25,0 304.25,-32"/>
<text xml:space="preserve" text-anchor="start" x="186" y="-18.5" font-family="Helvetica,sans-Serif" font-size="10.00">nlohmann::detail::binary</text>
<text xml:space="preserve" text-anchor="middle" x="241.12" y="-6.5" font-family="Helvetica,sans-Serif" font-size="10.00">_reader::get_token_string</text>
</a>
</g>
</g>
<!-- Node1&#45;&gt;Node10 -->
<g id="edge13" class="edge">
<title>Node1&#45;&gt;Node10</title>
<path fill="none" stroke="#63b8ff" d="M90.25,-112.72C110.69,-94.98 145.27,-66.39 178,-46 182.59,-43.14 187.49,-40.36 192.45,-37.72"/>
<polygon fill="#63b8ff" stroke="#63b8ff" points="193.98,-40.86 201.29,-33.19 190.79,-34.63 193.98,-40.86"/>
</g>
<!-- Node3 -->
<g id="node3" class="node">
<title>Node3</title>
<g id="a_node3"><a xlink:href="a01559.html#abf41a7e9178356314082284e6cfea278" target="_top" xlink:title=" ">
<polygon fill="white" stroke="#666666" points="808.25,-231 673,-231 673,-199 808.25,-199 808.25,-231"/>
<text xml:space="preserve" text-anchor="start" x="681" y="-217.5" font-family="Helvetica,sans-Serif" font-size="10.00">nlohmann::detail::exception</text>
<text xml:space="preserve" text-anchor="middle" x="740.62" y="-205.5" font-family="Helvetica,sans-Serif" font-size="10.00">::name</text>
</a>
</g>
</g>
<!-- Node2&#45;&gt;Node3 -->
<g id="edge2" class="edge">
<title>Node2&#45;&gt;Node3</title>
<path fill="none" stroke="#63b8ff" d="M625.21,-198.39C636.88,-200.09 649.34,-201.9 661.57,-203.67"/>
<polygon fill="#63b8ff" stroke="#63b8ff" points="660.82,-207.1 671.22,-205.07 661.83,-200.17 660.82,-207.1"/>
</g>
<!-- Node4 -->
<g id="node4" class="node">
<title>Node4</title>
<g id="a_node4"><a xlink:href="a01563.html#aefe74adeaa48781464ba2fd2ec63d221" target="_top" xlink:title=" ">
<polygon fill="white" stroke="#666666" points="799.25,-181 682,-181 682,-149 799.25,-149 799.25,-181"/>
<text xml:space="preserve" text-anchor="start" x="690" y="-167.5" font-family="Helvetica,sans-Serif" font-size="10.00">nlohmann::detail::parse</text>
<text xml:space="preserve" text-anchor="middle" x="740.62" y="-155.5" font-family="Helvetica,sans-Serif" font-size="10.00">_error::position_string</text>
</a>
</g>
</g>
<!-- Node2&#45;&gt;Node4 -->
<g id="edge3" class="edge">
<title>Node2&#45;&gt;Node4</title>
<path fill="none" stroke="#63b8ff" d="M625.21,-181.61C639.7,-179.5 655.38,-177.23 670.36,-175.05"/>
<polygon fill="#63b8ff" stroke="#63b8ff" points="670.76,-178.53 680.15,-173.63 669.75,-171.6 670.76,-178.53"/>
</g>
<!-- Node7 -->
<g id="node7" class="node">
<title>Node7</title>
<g id="a_node7"><a xlink:href="a01995.html#ad222095c0b21a87824cb10629299629a" target="_top" xlink:title="get next character from the input">
<polygon fill="white" stroke="#666666" points="459.75,-120 340.25,-120 340.25,-88 459.75,-88 459.75,-120"/>
<text xml:space="preserve" text-anchor="start" x="348.25" y="-106.5" font-family="Helvetica,sans-Serif" font-size="10.00">nlohmann::detail::binary</text>
<text xml:space="preserve" text-anchor="middle" x="400" y="-94.5" font-family="Helvetica,sans-Serif" font-size="10.00">_reader::get</text>
</a>
</g>
</g>
<!-- Node6&#45;&gt;Node7 -->
<g id="edge6" class="edge">
<title>Node6&#45;&gt;Node7</title>
<path fill="none" stroke="#63b8ff" d="M293.49,-137.63C307.23,-133.25 322.24,-128.46 336.51,-123.92"/>
<polygon fill="#63b8ff" stroke="#63b8ff" points="337.34,-127.33 345.81,-120.95 335.22,-120.66 337.34,-127.33"/>
</g>
<!-- Node6&#45;&gt;Node8 -->
<g id="edge7" class="edge">
<title>Node6&#45;&gt;Node8</title>
<path fill="none" stroke="#63b8ff" d="M300.99,-154C309.91,-154 319.2,-154 328.34,-154"/>
<polygon fill="#63b8ff" stroke="#63b8ff" points="328.3,-157.5 338.3,-154 328.3,-150.5 328.3,-157.5"/>
</g>
<!-- Node8&#45;&gt;Node2 -->
<g id="edge8" class="edge">
<title>Node8&#45;&gt;Node2</title>
<path fill="none" stroke="#63b8ff" d="M459.88,-166.9C471.73,-169.49 484.28,-172.24 496.44,-174.9"/>
<polygon fill="#63b8ff" stroke="#63b8ff" points="495.46,-178.27 505.98,-176.99 496.96,-171.43 495.46,-178.27"/>
</g>
<!-- Node8&#45;&gt;Node5 -->
<g id="edge9" class="edge">
<title>Node8&#45;&gt;Node5</title>
<path fill="none" stroke="#63b8ff" d="M459.88,-141.1C467.8,-139.37 476.03,-137.57 484.24,-135.77"/>
<polygon fill="#63b8ff" stroke="#63b8ff" points="484.91,-139.21 493.93,-133.65 483.41,-132.37 484.91,-139.21"/>
</g>
<!-- Node9&#45;&gt;Node7 -->
<g id="edge11" class="edge">
<title>Node9&#45;&gt;Node7</title>
<path fill="none" stroke="#63b8ff" d="M300.99,-104C309.91,-104 319.2,-104 328.34,-104"/>
<polygon fill="#63b8ff" stroke="#63b8ff" points="328.3,-107.5 338.3,-104 328.3,-100.5 328.3,-107.5"/>
</g>
<!-- Node9&#45;&gt;Node8 -->
<g id="edge12" class="edge">
<title>Node9&#45;&gt;Node8</title>
<path fill="none" stroke="#63b8ff" d="M293.49,-120.37C307.23,-124.75 322.24,-129.54 336.51,-134.08"/>
<polygon fill="#63b8ff" stroke="#63b8ff" points="335.22,-137.34 345.81,-137.05 337.34,-130.67 335.22,-137.34"/>
</g>
</g>
</svg>
