<?xml version="1.0" encoding="UTF-8" standalone="no"?>
<!DOCTYPE svg PUBLIC "-//W3C//DTD SVG 1.1//EN"
 "http://www.w3.org/Graphics/SVG/1.1/DTD/svg11.dtd">
<!-- Generated by graphviz version 13.1.2 (20250808.2320)
 -->
<!-- Title: nlohmann::detail::binary_reader::get_number Pages: 1 -->
<svg width="1319pt" height="490pt"
 viewBox="0.00 0.00 1319.00 490.00" xmlns="http://www.w3.org/2000/svg" xmlns:xlink="http://www.w3.org/1999/xlink">
<g id="graph0" class="graph" transform="scale(1 1) rotate(0) translate(4 486)">
<title>nlohmann::detail::binary_reader::get_number</title>
<!-- Node1 -->
<g id="node1" class="node">
<title>Node1</title>
<g id="a_node1"><a xlink:title=" ">
<polygon fill="#999999" stroke="#666666" points="1310.75,-264 1191.25,-264 1191.25,-232 1310.75,-232 1310.75,-264"/>
<text xml:space="preserve" text-anchor="start" x="1199.25" y="-250.5" font-family="Helvetica,sans-Serif" font-size="10.00">nlohmann::detail::binary</text>
<text xml:space="preserve" text-anchor="middle" x="1251" y="-238.5" font-family="Helvetica,sans-Serif" font-size="10.00">_reader::get_number</text>
</a>
</g>
</g>
<!-- Node2 -->
<g id="node2" class="node">
<title>Node2</title>
<g id="a_node2"><a xlink:href="a01995.html#acb001d18095dc5bcf7336ae5122b8340" target="_top" xlink:title="reads a CBOR byte array">
<polygon fill="white" stroke="#666666" points="1140.25,-464 1017,-464 1017,-432 1140.25,-432 1140.25,-464"/>
<text xml:space="preserve" text-anchor="start" x="1025" y="-450.5" font-family="Helvetica,sans-Serif" font-size="10.00">nlohmann::detail::binary</text>
<text xml:space="preserve" text-anchor="middle" x="1078.62" y="-438.5" font-family="Helvetica,sans-Serif" font-size="10.00">_reader::get_cbor_binary</text>
</a>
</g>
</g>
<!-- Node1&#45;&gt;Node2 -->
<g id="edge1" class="edge">
<title>Node1&#45;&gt;Node2</title>
<path fill="none" stroke="#63b8ff" d="M1241.48,-274.92C1228.49,-311.93 1200.37,-378.43 1155.25,-418 1149.09,-423.4 1141.84,-427.9 1134.31,-431.62"/>
<polygon fill="#63b8ff" stroke="#63b8ff" points="1244.65,-276.47 1244.54,-265.88 1238.02,-274.22 1244.65,-276.47"/>
</g>
<!-- Node3 -->
<g id="node3" class="node">
<title>Node3</title>
<g id="a_node3"><a xlink:href="a01995.html#a4e4accd5a2a41bfb2f18a8a0fcc9421c" target="_top" xlink:title=" ">
<polygon fill="white" stroke="#666666" points="966,-411 827,-411 827,-379 966,-379 966,-411"/>
<text xml:space="preserve" text-anchor="start" x="835" y="-397.5" font-family="Helvetica,sans-Serif" font-size="10.00">nlohmann::detail::binary</text>
<text xml:space="preserve" text-anchor="middle" x="896.5" y="-385.5" font-family="Helvetica,sans-Serif" font-size="10.00">_reader::parse_cbor_internal</text>
</a>
</g>
</g>
<!-- Node1&#45;&gt;Node3 -->
<g id="edge51" class="edge">
<title>Node1&#45;&gt;Node3</title>
<path fill="none" stroke="#63b8ff" d="M1240.11,-274.98C1226.55,-307.6 1198.78,-361.09 1155.25,-385 1097.45,-416.74 1020.87,-415.28 966.23,-408.31"/>
<polygon fill="#63b8ff" stroke="#63b8ff" points="1243.32,-276.39 1243.76,-265.8 1236.82,-273.8 1243.32,-276.39"/>
</g>
<!-- Node16 -->
<g id="node16" class="node">
<title>Node16</title>
<g id="a_node16"><a xlink:href="a01995.html#a545a44ae4b3fa2b7a61d9e8517fb7154" target="_top" xlink:title="reads a CBOR string">
<polygon fill="white" stroke="#666666" points="1139.12,-358 1018.12,-358 1018.12,-326 1139.12,-326 1139.12,-358"/>
<text xml:space="preserve" text-anchor="start" x="1026.12" y="-344.5" font-family="Helvetica,sans-Serif" font-size="10.00">nlohmann::detail::binary</text>
<text xml:space="preserve" text-anchor="middle" x="1078.62" y="-332.5" font-family="Helvetica,sans-Serif" font-size="10.00">_reader::get_cbor_string</text>
</a>
</g>
</g>
<!-- Node1&#45;&gt;Node16 -->
<g id="edge19" class="edge">
<title>Node1&#45;&gt;Node16</title>
<path fill="none" stroke="#63b8ff" d="M1222.36,-271.69C1204.22,-286.31 1179.45,-304.57 1155.25,-317 1149.1,-320.16 1142.47,-323.04 1135.77,-325.62"/>
<polygon fill="#63b8ff" stroke="#63b8ff" points="1224.52,-274.44 1230.03,-265.39 1220.08,-269.03 1224.52,-274.44"/>
</g>
<!-- Node17 -->
<g id="node17" class="node">
<title>Node17</title>
<g id="a_node17"><a xlink:href="a01995.html#a389e550fd397a48121cb82d92bb7475a" target="_top" xlink:title="reads a MessagePack byte array">
<polygon fill="white" stroke="#666666" points="1150.75,-308 1006.5,-308 1006.5,-276 1150.75,-276 1150.75,-308"/>
<text xml:space="preserve" text-anchor="start" x="1014.5" y="-294.5" font-family="Helvetica,sans-Serif" font-size="10.00">nlohmann::detail::binary</text>
<text xml:space="preserve" text-anchor="middle" x="1078.62" y="-282.5" font-family="Helvetica,sans-Serif" font-size="10.00">_reader::get_msgpack_binary</text>
</a>
</g>
</g>
<!-- Node1&#45;&gt;Node17 -->
<g id="edge23" class="edge">
<title>Node1&#45;&gt;Node17</title>
<path fill="none" stroke="#63b8ff" d="M1179.9,-266.1C1167.77,-269.24 1155.22,-272.48 1143.28,-275.56"/>
<polygon fill="#63b8ff" stroke="#63b8ff" points="1180.62,-269.53 1189.42,-263.64 1178.87,-262.76 1180.62,-269.53"/>
</g>
<!-- Node18 -->
<g id="node18" class="node">
<title>Node18</title>
<g id="a_node18"><a xlink:href="a01995.html#ae020385ce9424271d61f85d3842c02cb" target="_top" xlink:title=" ">
<polygon fill="white" stroke="#666666" points="958.12,-273 834.88,-273 834.88,-229 958.12,-229 958.12,-273"/>
<text xml:space="preserve" text-anchor="start" x="842.88" y="-259.5" font-family="Helvetica,sans-Serif" font-size="10.00">nlohmann::detail::binary</text>
<text xml:space="preserve" text-anchor="start" x="842.88" y="-247.5" font-family="Helvetica,sans-Serif" font-size="10.00">_reader::parse_msgpack</text>
<text xml:space="preserve" text-anchor="middle" x="896.5" y="-235.5" font-family="Helvetica,sans-Serif" font-size="10.00">_internal</text>
</a>
</g>
</g>
<!-- Node1&#45;&gt;Node18 -->
<g id="edge52" class="edge">
<title>Node1&#45;&gt;Node18</title>
<path fill="none" stroke="#63b8ff" d="M1179.69,-248.6C1114.99,-249.15 1020.02,-249.96 958.47,-250.48"/>
<polygon fill="#63b8ff" stroke="#63b8ff" points="1179.52,-252.1 1189.49,-248.52 1179.46,-245.1 1179.52,-252.1"/>
</g>
<!-- Node21 -->
<g id="node21" class="node">
<title>Node21</title>
<g id="a_node21"><a xlink:href="a01995.html#ad8cba5585327caa550dd5b6dd25a64f8" target="_top" xlink:title="reads a MessagePack string">
<polygon fill="white" stroke="#666666" points="1149.62,-220 1007.62,-220 1007.62,-188 1149.62,-188 1149.62,-220"/>
<text xml:space="preserve" text-anchor="start" x="1015.62" y="-206.5" font-family="Helvetica,sans-Serif" font-size="10.00">nlohmann::detail::binary</text>
<text xml:space="preserve" text-anchor="middle" x="1078.62" y="-194.5" font-family="Helvetica,sans-Serif" font-size="10.00">_reader::get_msgpack_string</text>
</a>
</g>
</g>
<!-- Node1&#45;&gt;Node21 -->
<g id="edge30" class="edge">
<title>Node1&#45;&gt;Node21</title>
<path fill="none" stroke="#63b8ff" d="M1179.9,-229.9C1167.77,-226.76 1155.22,-223.52 1143.28,-220.44"/>
<polygon fill="#63b8ff" stroke="#63b8ff" points="1178.87,-233.24 1189.42,-232.36 1180.62,-226.47 1178.87,-233.24"/>
</g>
<!-- Node22 -->
<g id="node22" class="node">
<title>Node22</title>
<g id="a_node22"><a xlink:href="a01995.html#aba7ba9ec9a52ad2bee8baff70176aa20" target="_top" xlink:title=" ">
<polygon fill="white" stroke="#666666" points="1155.25,-126 1002,-126 1002,-94 1155.25,-94 1155.25,-126"/>
<text xml:space="preserve" text-anchor="start" x="1010" y="-112.5" font-family="Helvetica,sans-Serif" font-size="10.00">nlohmann::detail::binary</text>
<text xml:space="preserve" text-anchor="middle" x="1078.62" y="-100.5" font-family="Helvetica,sans-Serif" font-size="10.00">_reader::get_ubjson_size_value</text>
</a>
</g>
</g>
<!-- Node1&#45;&gt;Node22 -->
<g id="edge33" class="edge">
<title>Node1&#45;&gt;Node22</title>
<path fill="none" stroke="#63b8ff" d="M1231.15,-222.82C1213.45,-200.46 1185.25,-168.03 1155.25,-146 1144.94,-138.43 1132.78,-131.81 1121.26,-126.38"/>
<polygon fill="#63b8ff" stroke="#63b8ff" points="1228.24,-224.78 1237.14,-230.52 1233.77,-220.48 1228.24,-224.78"/>
</g>
<!-- Node24 -->
<g id="node24" class="node">
<title>Node24</title>
<g id="a_node24"><a xlink:href="a01995.html#a7e5e0b71548d0649ce4f131280d06c33" target="_top" xlink:title=" ">
<polygon fill="white" stroke="#666666" points="783.88,-145 653.88,-145 653.88,-113 783.88,-113 783.88,-145"/>
<text xml:space="preserve" text-anchor="start" x="661.88" y="-131.5" font-family="Helvetica,sans-Serif" font-size="10.00">nlohmann::detail::binary</text>
<text xml:space="preserve" text-anchor="middle" x="718.88" y="-119.5" font-family="Helvetica,sans-Serif" font-size="10.00">_reader::get_ubjson_value</text>
</a>
</g>
</g>
<!-- Node1&#45;&gt;Node24 -->
<g id="edge50" class="edge">
<title>Node1&#45;&gt;Node24</title>
<path fill="none" stroke="#63b8ff" d="M1225.31,-224.45C1207.35,-208.8 1181.64,-189.29 1155.25,-179 1153.1,-178.16 904.82,-149.95 784.2,-136.28"/>
<polygon fill="#63b8ff" stroke="#63b8ff" points="1222.57,-226.69 1232.35,-230.76 1227.24,-221.48 1222.57,-226.69"/>
</g>
<!-- Node29 -->
<g id="node29" class="node">
<title>Node29</title>
<g id="a_node29"><a xlink:href="a01995.html#a4ae90db51c102e912b7eac83c78733a6" target="_top" xlink:title="reads a UBJSON string">
<polygon fill="white" stroke="#666666" points="961.88,-32 831.12,-32 831.12,0 961.88,0 961.88,-32"/>
<text xml:space="preserve" text-anchor="start" x="839.12" y="-18.5" font-family="Helvetica,sans-Serif" font-size="10.00">nlohmann::detail::binary</text>
<text xml:space="preserve" text-anchor="middle" x="896.5" y="-6.5" font-family="Helvetica,sans-Serif" font-size="10.00">_reader::get_ubjson_string</text>
</a>
</g>
</g>
<!-- Node1&#45;&gt;Node29 -->
<g id="edge47" class="edge">
<title>Node1&#45;&gt;Node29</title>
<path fill="none" stroke="#63b8ff" d="M1241.52,-220.7C1228.76,-184.21 1201.12,-120.08 1155.25,-85 1099.14,-42.08 1018.41,-25.81 962.31,-19.67"/>
<polygon fill="#63b8ff" stroke="#63b8ff" points="1238.16,-221.7 1244.66,-230.07 1244.8,-219.48 1238.16,-221.7"/>
</g>
<!-- Node2&#45;&gt;Node2 -->
<g id="edge2" class="edge">
<title>Node2&#45;&gt;Node2</title>
<path fill="none" stroke="#63b8ff" d="M1107.35,-475.71C1102.56,-479.48 1092.99,-482 1078.62,-482 1052.36,-482 1042.11,-473.58 1047.85,-464.44"/>
<polygon fill="#63b8ff" stroke="#63b8ff" points="1110.78,-476.4 1109.13,-465.93 1103.9,-475.14 1110.78,-476.4"/>
</g>
<!-- Node2&#45;&gt;Node3 -->
<g id="edge3" class="edge">
<title>Node2&#45;&gt;Node3</title>
<path fill="none" stroke="#63b8ff" d="M1010.72,-428.31C991.89,-422.77 971.6,-416.8 953.47,-411.47"/>
<polygon fill="#63b8ff" stroke="#63b8ff" points="1009.59,-431.63 1020.17,-431.09 1011.56,-424.91 1009.59,-431.63"/>
</g>
<!-- Node3&#45;&gt;Node3 -->
<g id="edge8" class="edge">
<title>Node3&#45;&gt;Node3</title>
<path fill="none" stroke="#63b8ff" d="M926.1,-422.71C921.17,-426.48 911.3,-429 896.5,-429 869.44,-429 858.87,-420.58 864.79,-411.44"/>
<polygon fill="#63b8ff" stroke="#63b8ff" points="929.53,-423.4 927.93,-412.93 922.65,-422.11 929.53,-423.4"/>
</g>
<!-- Node4 -->
<g id="node4" class="node">
<title>Node4</title>
<g id="a_node4"><a xlink:href="a01995.html#a3750658328bf3ec3cf23f1626f9ec3af" target="_top" xlink:title=" ">
<polygon fill="white" stroke="#666666" points="778.62,-446 659.12,-446 659.12,-414 778.62,-414 778.62,-446"/>
<text xml:space="preserve" text-anchor="start" x="667.12" y="-432.5" font-family="Helvetica,sans-Serif" font-size="10.00">nlohmann::detail::binary</text>
<text xml:space="preserve" text-anchor="middle" x="718.88" y="-420.5" font-family="Helvetica,sans-Serif" font-size="10.00">_reader::get_cbor_array</text>
</a>
</g>
</g>
<!-- Node3&#45;&gt;Node4 -->
<g id="edge4" class="edge">
<title>Node3&#45;&gt;Node4</title>
<path fill="none" stroke="#63b8ff" d="M815.29,-404.26C800.4,-407.14 785.22,-410.33 771.48,-413.51"/>
<polygon fill="#63b8ff" stroke="#63b8ff" points="815.93,-407.7 825.11,-402.4 814.63,-400.82 815.93,-407.7"/>
</g>
<!-- Node5 -->
<g id="node5" class="node">
<title>Node5</title>
<g id="a_node5"><a xlink:href="a01995.html#a47092a2195bf9cd3cdb4dda67cc404ed" target="_top" xlink:title=" ">
<polygon fill="white" stroke="#666666" points="780.5,-358 657.25,-358 657.25,-326 780.5,-326 780.5,-358"/>
<text xml:space="preserve" text-anchor="start" x="665.25" y="-344.5" font-family="Helvetica,sans-Serif" font-size="10.00">nlohmann::detail::binary</text>
<text xml:space="preserve" text-anchor="middle" x="718.88" y="-332.5" font-family="Helvetica,sans-Serif" font-size="10.00">_reader::get_cbor_object</text>
</a>
</g>
</g>
<!-- Node3&#45;&gt;Node5 -->
<g id="edge6" class="edge">
<title>Node3&#45;&gt;Node5</title>
<path fill="none" stroke="#63b8ff" d="M848.71,-374.83C827.84,-367.76 802.98,-360.13 780.69,-353.9"/>
<polygon fill="#63b8ff" stroke="#63b8ff" points="847.51,-378.12 858.11,-378.08 849.8,-371.51 847.51,-378.12"/>
</g>
<!-- Node6 -->
<g id="node6" class="node">
<title>Node6</title>
<g id="a_node6"><a xlink:href="a01995.html#ab4afd9ee276bbb15a0f898061aad94dd" target="_top" xlink:title=" ">
<polygon fill="white" stroke="#666666" points="419.25,-311 299.75,-311 299.75,-279 419.25,-279 419.25,-311"/>
<text xml:space="preserve" text-anchor="start" x="307.75" y="-297.5" font-family="Helvetica,sans-Serif" font-size="10.00">nlohmann::detail::binary</text>
<text xml:space="preserve" text-anchor="middle" x="359.5" y="-285.5" font-family="Helvetica,sans-Serif" font-size="10.00">_reader::sax_parse</text>
</a>
</g>
</g>
<!-- Node3&#45;&gt;Node6 -->
<g id="edge9" class="edge">
<title>Node3&#45;&gt;Node6</title>
<path fill="none" stroke="#63b8ff" d="M815.35,-388.73C766.41,-384.22 702.69,-377.14 646.75,-367 565.82,-352.34 473.85,-327.76 416.5,-311.46"/>
<polygon fill="#63b8ff" stroke="#63b8ff" points="814.73,-392.19 825,-389.6 815.36,-385.22 814.73,-392.19"/>
</g>
<!-- Node4&#45;&gt;Node3 -->
<g id="edge5" class="edge">
<title>Node4&#45;&gt;Node3</title>
<path fill="none" stroke="#63b8ff" d="M790.05,-422.64C808.15,-419.29 827.29,-415.33 844.23,-411.42"/>
<polygon fill="#63b8ff" stroke="#63b8ff" points="789.65,-419.16 780.43,-424.38 790.89,-426.05 789.65,-419.16"/>
</g>
<!-- Node5&#45;&gt;Node3 -->
<g id="edge7" class="edge">
<title>Node5&#45;&gt;Node3</title>
<path fill="none" stroke="#63b8ff" d="M766.48,-362.11C784.9,-368.35 806.44,-375.04 826.59,-380.81"/>
<polygon fill="#63b8ff" stroke="#63b8ff" points="767.77,-358.85 757.18,-358.89 765.49,-365.46 767.77,-358.85"/>
</g>
<!-- Node7 -->
<g id="node7" class="node">
<title>Node7</title>
<g id="a_node7"><a xlink:href="a01659.html#a4e02793f2691aa29ab7cb69fddafbf5c" target="_top" xlink:title="Create a JSON value from an input in BSON format.">
<polygon fill="white" stroke="#666666" points="257,-411 146.5,-411 146.5,-379 257,-379 257,-411"/>
<text xml:space="preserve" text-anchor="start" x="154.5" y="-397.5" font-family="Helvetica,sans-Serif" font-size="10.00">nlohmann::basic_json</text>
<text xml:space="preserve" text-anchor="middle" x="201.75" y="-385.5" font-family="Helvetica,sans-Serif" font-size="10.00">::from_bson</text>
</a>
</g>
</g>
<!-- Node6&#45;&gt;Node7 -->
<g id="edge10" class="edge">
<title>Node6&#45;&gt;Node7</title>
<path fill="none" stroke="#63b8ff" d="M330.33,-318.26C310.54,-333.98 283.05,-354.59 257,-370 251.91,-373.01 246.4,-375.92 240.91,-378.62"/>
<polygon fill="#63b8ff" stroke="#63b8ff" points="332.33,-321.14 337.93,-312.15 327.95,-315.68 332.33,-321.14"/>
</g>
<!-- Node9 -->
<g id="node9" class="node">
<title>Node9</title>
<g id="a_node9"><a xlink:href="a01659.html#a44dd5635fb2da4710f6cd6e42b72773f" target="_top" xlink:title="create a JSON value from an input in CBOR format">
<polygon fill="white" stroke="#666666" points="257,-361 146.5,-361 146.5,-329 257,-329 257,-361"/>
<text xml:space="preserve" text-anchor="start" x="154.5" y="-347.5" font-family="Helvetica,sans-Serif" font-size="10.00">nlohmann::basic_json</text>
<text xml:space="preserve" text-anchor="middle" x="201.75" y="-335.5" font-family="Helvetica,sans-Serif" font-size="10.00">::from_cbor</text>
</a>
</g>
</g>
<!-- Node6&#45;&gt;Node9 -->
<g id="edge12" class="edge">
<title>Node6&#45;&gt;Node9</title>
<path fill="none" stroke="#63b8ff" d="M296.86,-314.79C282.7,-319.33 267.8,-324.12 254.13,-328.51"/>
<polygon fill="#63b8ff" stroke="#63b8ff" points="297.61,-318.22 306.06,-311.83 295.47,-311.56 297.61,-318.22"/>
</g>
<!-- Node11 -->
<g id="node11" class="node">
<title>Node11</title>
<g id="a_node11"><a xlink:href="a01659.html#adbcab52fca1e25b3311ef14e71a57590" target="_top" xlink:title="create a JSON value from an input in MessagePack format">
<polygon fill="white" stroke="#666666" points="257,-311 146.5,-311 146.5,-279 257,-279 257,-311"/>
<text xml:space="preserve" text-anchor="start" x="154.5" y="-297.5" font-family="Helvetica,sans-Serif" font-size="10.00">nlohmann::basic_json</text>
<text xml:space="preserve" text-anchor="middle" x="201.75" y="-285.5" font-family="Helvetica,sans-Serif" font-size="10.00">::from_msgpack</text>
</a>
</g>
</g>
<!-- Node6&#45;&gt;Node11 -->
<g id="edge14" class="edge">
<title>Node6&#45;&gt;Node11</title>
<path fill="none" stroke="#63b8ff" d="M288.42,-295C278,-295 267.39,-295 257.35,-295"/>
<polygon fill="#63b8ff" stroke="#63b8ff" points="288.1,-298.5 298.1,-295 288.1,-291.5 288.1,-298.5"/>
</g>
<!-- Node13 -->
<g id="node13" class="node">
<title>Node13</title>
<g id="a_node13"><a xlink:href="a01659.html#aa81f62db69978b90ff701f05c72e03a7" target="_top" xlink:title="create a JSON value from an input in UBJSON format">
<polygon fill="white" stroke="#666666" points="257,-261 146.5,-261 146.5,-229 257,-229 257,-261"/>
<text xml:space="preserve" text-anchor="start" x="154.5" y="-247.5" font-family="Helvetica,sans-Serif" font-size="10.00">nlohmann::basic_json</text>
<text xml:space="preserve" text-anchor="middle" x="201.75" y="-235.5" font-family="Helvetica,sans-Serif" font-size="10.00">::from_ubjson</text>
</a>
</g>
</g>
<!-- Node6&#45;&gt;Node13 -->
<g id="edge16" class="edge">
<title>Node6&#45;&gt;Node13</title>
<path fill="none" stroke="#63b8ff" d="M296.86,-275.21C282.7,-270.67 267.8,-265.88 254.13,-261.49"/>
<polygon fill="#63b8ff" stroke="#63b8ff" points="295.47,-278.44 306.06,-278.17 297.61,-271.78 295.47,-278.44"/>
</g>
<!-- Node15 -->
<g id="node15" class="node">
<title>Node15</title>
<g id="a_node15"><a xlink:href="a01659.html#a12b382c6407da5543827ce4b24bb5008" target="_top" xlink:title="generate SAX events">
<polygon fill="white" stroke="#666666" points="257,-211 146.5,-211 146.5,-179 257,-179 257,-211"/>
<text xml:space="preserve" text-anchor="start" x="154.5" y="-197.5" font-family="Helvetica,sans-Serif" font-size="10.00">nlohmann::basic_json</text>
<text xml:space="preserve" text-anchor="middle" x="201.75" y="-185.5" font-family="Helvetica,sans-Serif" font-size="10.00">::sax_parse</text>
</a>
</g>
</g>
<!-- Node6&#45;&gt;Node15 -->
<g id="edge18" class="edge">
<title>Node6&#45;&gt;Node15</title>
<path fill="none" stroke="#63b8ff" d="M330.33,-271.74C310.54,-256.02 283.05,-235.41 257,-220 251.91,-216.99 246.4,-214.08 240.91,-211.38"/>
<polygon fill="#63b8ff" stroke="#63b8ff" points="327.95,-274.32 337.93,-277.85 332.33,-268.86 327.95,-274.32"/>
</g>
<!-- Node8 -->
<g id="node8" class="node">
<title>Node8</title>
<g id="a_node8"><a xlink:href="a01659.html#ae2612581e4788ddffc2f45d5e4cc04fc" target="_top" xlink:title=" ">
<polygon fill="white" stroke="#666666" points="110.5,-411 0,-411 0,-379 110.5,-379 110.5,-411"/>
<text xml:space="preserve" text-anchor="start" x="8" y="-397.5" font-family="Helvetica,sans-Serif" font-size="10.00">nlohmann::basic_json</text>
<text xml:space="preserve" text-anchor="middle" x="55.25" y="-385.5" font-family="Helvetica,sans-Serif" font-size="10.00">::from_bson</text>
</a>
</g>
</g>
<!-- Node7&#45;&gt;Node8 -->
<g id="edge11" class="edge">
<title>Node7&#45;&gt;Node8</title>
<path fill="none" stroke="#63b8ff" d="M134.63,-395C126.71,-395 118.69,-395 110.96,-395"/>
<polygon fill="#63b8ff" stroke="#63b8ff" points="134.61,-398.5 144.61,-395 134.61,-391.5 134.61,-398.5"/>
</g>
<!-- Node10 -->
<g id="node10" class="node">
<title>Node10</title>
<g id="a_node10"><a xlink:href="a01659.html#a188755c8cda27e2afb03c016c14125d8" target="_top" xlink:title=" ">
<polygon fill="white" stroke="#666666" points="110.5,-361 0,-361 0,-329 110.5,-329 110.5,-361"/>
<text xml:space="preserve" text-anchor="start" x="8" y="-347.5" font-family="Helvetica,sans-Serif" font-size="10.00">nlohmann::basic_json</text>
<text xml:space="preserve" text-anchor="middle" x="55.25" y="-335.5" font-family="Helvetica,sans-Serif" font-size="10.00">::from_cbor</text>
</a>
</g>
</g>
<!-- Node9&#45;&gt;Node10 -->
<g id="edge13" class="edge">
<title>Node9&#45;&gt;Node10</title>
<path fill="none" stroke="#63b8ff" d="M134.63,-345C126.71,-345 118.69,-345 110.96,-345"/>
<polygon fill="#63b8ff" stroke="#63b8ff" points="134.61,-348.5 144.61,-345 134.61,-341.5 134.61,-348.5"/>
</g>
<!-- Node12 -->
<g id="node12" class="node">
<title>Node12</title>
<g id="a_node12"><a xlink:href="a01659.html#a0d69d3102639759d5202a6f764760d23" target="_top" xlink:title=" ">
<polygon fill="white" stroke="#666666" points="110.5,-311 0,-311 0,-279 110.5,-279 110.5,-311"/>
<text xml:space="preserve" text-anchor="start" x="8" y="-297.5" font-family="Helvetica,sans-Serif" font-size="10.00">nlohmann::basic_json</text>
<text xml:space="preserve" text-anchor="middle" x="55.25" y="-285.5" font-family="Helvetica,sans-Serif" font-size="10.00">::from_msgpack</text>
</a>
</g>
</g>
<!-- Node11&#45;&gt;Node12 -->
<g id="edge15" class="edge">
<title>Node11&#45;&gt;Node12</title>
<path fill="none" stroke="#63b8ff" d="M134.63,-295C126.71,-295 118.69,-295 110.96,-295"/>
<polygon fill="#63b8ff" stroke="#63b8ff" points="134.61,-298.5 144.61,-295 134.61,-291.5 134.61,-298.5"/>
</g>
<!-- Node14 -->
<g id="node14" class="node">
<title>Node14</title>
<g id="a_node14"><a xlink:href="a01659.html#ab6eeda23c34cee79d8d72f1a8691a8de" target="_top" xlink:title=" ">
<polygon fill="white" stroke="#666666" points="110.5,-261 0,-261 0,-229 110.5,-229 110.5,-261"/>
<text xml:space="preserve" text-anchor="start" x="8" y="-247.5" font-family="Helvetica,sans-Serif" font-size="10.00">nlohmann::basic_json</text>
<text xml:space="preserve" text-anchor="middle" x="55.25" y="-235.5" font-family="Helvetica,sans-Serif" font-size="10.00">::from_ubjson</text>
</a>
</g>
</g>
<!-- Node13&#45;&gt;Node14 -->
<g id="edge17" class="edge">
<title>Node13&#45;&gt;Node14</title>
<path fill="none" stroke="#63b8ff" d="M134.63,-245C126.71,-245 118.69,-245 110.96,-245"/>
<polygon fill="#63b8ff" stroke="#63b8ff" points="134.61,-248.5 144.61,-245 134.61,-241.5 134.61,-248.5"/>
</g>
<!-- Node16&#45;&gt;Node3 -->
<g id="edge22" class="edge">
<title>Node16&#45;&gt;Node3</title>
<path fill="none" stroke="#63b8ff" d="M1010.72,-361.69C991.89,-367.23 971.6,-373.2 953.47,-378.53"/>
<polygon fill="#63b8ff" stroke="#63b8ff" points="1011.56,-365.09 1020.17,-358.91 1009.59,-358.37 1011.56,-365.09"/>
</g>
<!-- Node16&#45;&gt;Node5 -->
<g id="edge20" class="edge">
<title>Node16&#45;&gt;Node5</title>
<path fill="none" stroke="#63b8ff" d="M1006.62,-342C940.64,-342 843.4,-342 780.85,-342"/>
<polygon fill="#63b8ff" stroke="#63b8ff" points="1006.23,-345.5 1016.23,-342 1006.23,-338.5 1006.23,-345.5"/>
</g>
<!-- Node16&#45;&gt;Node16 -->
<g id="edge21" class="edge">
<title>Node16&#45;&gt;Node16</title>
<path fill="none" stroke="#63b8ff" d="M1107.35,-369.71C1102.56,-373.48 1092.99,-376 1078.62,-376 1052.36,-376 1042.11,-367.58 1047.85,-358.44"/>
<polygon fill="#63b8ff" stroke="#63b8ff" points="1110.78,-370.4 1109.13,-359.93 1103.9,-369.14 1110.78,-370.4"/>
</g>
<!-- Node17&#45;&gt;Node18 -->
<g id="edge24" class="edge">
<title>Node17&#45;&gt;Node18</title>
<path fill="none" stroke="#63b8ff" d="M994.95,-273.18C982.64,-270.38 970.15,-267.54 958.4,-264.86"/>
<polygon fill="#63b8ff" stroke="#63b8ff" points="994.17,-276.59 1004.7,-275.4 995.73,-269.77 994.17,-276.59"/>
</g>
<!-- Node18&#45;&gt;Node6 -->
<g id="edge29" class="edge">
<title>Node18&#45;&gt;Node6</title>
<path fill="none" stroke="#63b8ff" d="M823.41,-270.14C812.61,-272.45 801.56,-274.52 791,-276 659.31,-294.49 502.95,-296.46 419.67,-295.94"/>
<polygon fill="#63b8ff" stroke="#63b8ff" points="824.07,-273.58 833.06,-267.98 822.54,-266.74 824.07,-273.58"/>
</g>
<!-- Node19 -->
<g id="node19" class="node">
<title>Node19</title>
<g id="a_node19"><a xlink:href="a01995.html#a0ce1d7066597952efb008aaf578b2bd6" target="_top" xlink:title=" ">
<polygon fill="white" stroke="#666666" points="788.75,-267 649,-267 649,-235 788.75,-235 788.75,-267"/>
<text xml:space="preserve" text-anchor="start" x="657" y="-253.5" font-family="Helvetica,sans-Serif" font-size="10.00">nlohmann::detail::binary</text>
<text xml:space="preserve" text-anchor="middle" x="718.88" y="-241.5" font-family="Helvetica,sans-Serif" font-size="10.00">_reader::get_msgpack_array</text>
</a>
</g>
</g>
<!-- Node18&#45;&gt;Node19 -->
<g id="edge25" class="edge">
<title>Node18&#45;&gt;Node19</title>
<path fill="none" stroke="#63b8ff" d="M823.39,-244.35C812.07,-244.21 800.38,-244.22 789.13,-244.39"/>
<polygon fill="#63b8ff" stroke="#63b8ff" points="823,-247.84 833.05,-244.51 823.12,-240.84 823,-247.84"/>
</g>
<!-- Node20 -->
<g id="node20" class="node">
<title>Node20</title>
<g id="a_node20"><a xlink:href="a01995.html#a8bebd21ceef09b6b2562e87861832700" target="_top" xlink:title=" ">
<polygon fill="white" stroke="#666666" points="791,-217 646.75,-217 646.75,-185 791,-185 791,-217"/>
<text xml:space="preserve" text-anchor="start" x="654.75" y="-203.5" font-family="Helvetica,sans-Serif" font-size="10.00">nlohmann::detail::binary</text>
<text xml:space="preserve" text-anchor="middle" x="718.88" y="-191.5" font-family="Helvetica,sans-Serif" font-size="10.00">_reader::get_msgpack_object</text>
</a>
</g>
</g>
<!-- Node18&#45;&gt;Node20 -->
<g id="edge27" class="edge">
<title>Node18&#45;&gt;Node20</title>
<path fill="none" stroke="#63b8ff" d="M828.11,-225.23C816.1,-221.61 803.54,-218.02 791.42,-214.72"/>
<polygon fill="#63b8ff" stroke="#63b8ff" points="826.93,-228.53 837.52,-228.11 828.98,-221.83 826.93,-228.53"/>
</g>
<!-- Node19&#45;&gt;Node18 -->
<g id="edge26" class="edge">
<title>Node19&#45;&gt;Node18</title>
<path fill="none" stroke="#63b8ff" d="M800.5,-257.73C811.95,-257.79 823.57,-257.7 834.57,-257.46"/>
<polygon fill="#63b8ff" stroke="#63b8ff" points="800.67,-254.23 790.64,-257.63 800.6,-261.23 800.67,-254.23"/>
</g>
<!-- Node20&#45;&gt;Node18 -->
<g id="edge28" class="edge">
<title>Node20&#45;&gt;Node18</title>
<path fill="none" stroke="#63b8ff" d="M768.62,-220.99C789.04,-227.52 813,-234.45 834.57,-240.11"/>
<polygon fill="#63b8ff" stroke="#63b8ff" points="769.71,-217.67 759.12,-217.9 767.54,-224.32 769.71,-217.67"/>
</g>
<!-- Node21&#45;&gt;Node18 -->
<g id="edge32" class="edge">
<title>Node21&#45;&gt;Node18</title>
<path fill="none" stroke="#63b8ff" d="M1003.76,-223.27C988.66,-227.21 972.93,-231.32 958.34,-235.12"/>
<polygon fill="#63b8ff" stroke="#63b8ff" points="1004.37,-226.73 1013.16,-220.82 1002.6,-219.96 1004.37,-226.73"/>
</g>
<!-- Node21&#45;&gt;Node20 -->
<g id="edge31" class="edge">
<title>Node21&#45;&gt;Node20</title>
<path fill="none" stroke="#63b8ff" d="M996.13,-203.32C934.47,-202.8 850.6,-202.1 791.5,-201.6"/>
<polygon fill="#63b8ff" stroke="#63b8ff" points="995.83,-206.81 1005.86,-203.4 995.89,-199.81 995.83,-206.81"/>
</g>
<!-- Node23 -->
<g id="node23" class="node">
<title>Node23</title>
<g id="a_node23"><a xlink:href="a01995.html#a26c694413fb860057e1a839d5422b361" target="_top" xlink:title=" ">
<polygon fill="white" stroke="#666666" points="958.88,-132 834.12,-132 834.12,-88 958.88,-88 958.88,-132"/>
<text xml:space="preserve" text-anchor="start" x="842.12" y="-118.5" font-family="Helvetica,sans-Serif" font-size="10.00">nlohmann::detail::binary</text>
<text xml:space="preserve" text-anchor="start" x="842.12" y="-106.5" font-family="Helvetica,sans-Serif" font-size="10.00">_reader::get_ubjson_high</text>
<text xml:space="preserve" text-anchor="middle" x="896.5" y="-94.5" font-family="Helvetica,sans-Serif" font-size="10.00">_precision_number</text>
</a>
</g>
</g>
<!-- Node22&#45;&gt;Node23 -->
<g id="edge34" class="edge">
<title>Node22&#45;&gt;Node23</title>
<path fill="none" stroke="#63b8ff" d="M990.42,-110C979.93,-110 969.39,-110 959.36,-110"/>
<polygon fill="#63b8ff" stroke="#63b8ff" points="990.24,-113.5 1000.24,-110 990.24,-106.5 990.24,-113.5"/>
</g>
<!-- Node28 -->
<g id="node28" class="node">
<title>Node28</title>
<g id="a_node28"><a xlink:href="a01995.html#a7b6c2d4c95d56751e233e285a5f1fea7" target="_top" xlink:title="determine the type and size for a container">
<polygon fill="white" stroke="#666666" points="610.75,-126 462,-126 462,-94 610.75,-94 610.75,-126"/>
<text xml:space="preserve" text-anchor="start" x="470" y="-112.5" font-family="Helvetica,sans-Serif" font-size="10.00">nlohmann::detail::binary</text>
<text xml:space="preserve" text-anchor="middle" x="536.38" y="-100.5" font-family="Helvetica,sans-Serif" font-size="10.00">_reader::get_ubjson_size_type</text>
</a>
</g>
</g>
<!-- Node22&#45;&gt;Node28 -->
<g id="edge44" class="edge">
<title>Node22&#45;&gt;Node28</title>
<path fill="none" stroke="#63b8ff" d="M1018.55,-90.39C1001.76,-85.7 983.33,-81.36 966,-79 842.18,-62.13 696.89,-80.6 611.24,-95.4"/>
<polygon fill="#63b8ff" stroke="#63b8ff" points="1017.29,-93.67 1027.87,-93.09 1019.24,-86.94 1017.29,-93.67"/>
</g>
<!-- Node23&#45;&gt;Node24 -->
<g id="edge35" class="edge">
<title>Node23&#45;&gt;Node24</title>
<path fill="none" stroke="#63b8ff" d="M822.94,-117.85C810.11,-119.24 796.83,-120.67 784.25,-122.04"/>
<polygon fill="#63b8ff" stroke="#63b8ff" points="823,-121.36 832.57,-116.81 822.25,-114.4 823,-121.36"/>
</g>
<!-- Node25 -->
<g id="node25" class="node">
<title>Node25</title>
<g id="a_node25"><a xlink:href="a01995.html#afb36cb588b795efa513fc95e949493b7" target="_top" xlink:title=" ">
<polygon fill="white" stroke="#666666" points="423.75,-203 295.25,-203 295.25,-171 423.75,-171 423.75,-203"/>
<text xml:space="preserve" text-anchor="start" x="303.25" y="-189.5" font-family="Helvetica,sans-Serif" font-size="10.00">nlohmann::detail::binary</text>
<text xml:space="preserve" text-anchor="middle" x="359.5" y="-177.5" font-family="Helvetica,sans-Serif" font-size="10.00">_reader::get_ubjson_array</text>
</a>
</g>
</g>
<!-- Node24&#45;&gt;Node25 -->
<g id="edge36" class="edge">
<title>Node24&#45;&gt;Node25</title>
<path fill="none" stroke="#63b8ff" d="M671.89,-150.75C653.63,-160.45 631.95,-170.7 610.75,-176 548.68,-191.51 475.22,-189.84 424.01,-187.33"/>
<polygon fill="#63b8ff" stroke="#63b8ff" points="673.49,-153.87 680.61,-146.03 670.15,-147.72 673.49,-153.87"/>
</g>
<!-- Node26 -->
<g id="node26" class="node">
<title>Node26</title>
<g id="a_node26"><a xlink:href="a01995.html#adcf64ad3207f4bf37a5a31c920a385c3" target="_top" xlink:title=" ">
<polygon fill="white" stroke="#666666" points="426,-73 293,-73 293,-41 426,-41 426,-73"/>
<text xml:space="preserve" text-anchor="start" x="301" y="-59.5" font-family="Helvetica,sans-Serif" font-size="10.00">nlohmann::detail::binary</text>
<text xml:space="preserve" text-anchor="middle" x="359.5" y="-47.5" font-family="Helvetica,sans-Serif" font-size="10.00">_reader::get_ubjson_object</text>
</a>
</g>
</g>
<!-- Node24&#45;&gt;Node26 -->
<g id="edge38" class="edge">
<title>Node24&#45;&gt;Node26</title>
<path fill="none" stroke="#63b8ff" d="M688.75,-106.93C667.63,-95.54 638.08,-82.99 610.75,-76 549.45,-60.31 477.46,-53.41 426.47,-52"/>
<polygon fill="#63b8ff" stroke="#63b8ff" points="686.95,-109.93 697.37,-111.82 690.41,-103.84 686.95,-109.93"/>
</g>
<!-- Node27 -->
<g id="node27" class="node">
<title>Node27</title>
<g id="a_node27"><a xlink:href="a01995.html#a5a79480d661019b0f3fc615ae12f7de7" target="_top" xlink:title=" ">
<polygon fill="white" stroke="#666666" points="610.75,-176 462,-176 462,-144 610.75,-144 610.75,-176"/>
<text xml:space="preserve" text-anchor="start" x="470" y="-162.5" font-family="Helvetica,sans-Serif" font-size="10.00">nlohmann::detail::binary</text>
<text xml:space="preserve" text-anchor="middle" x="536.38" y="-150.5" font-family="Helvetica,sans-Serif" font-size="10.00">_reader::parse_ubjson_internal</text>
</a>
</g>
</g>
<!-- Node24&#45;&gt;Node27 -->
<g id="edge40" class="edge">
<title>Node24&#45;&gt;Node27</title>
<path fill="none" stroke="#63b8ff" d="M642.34,-141.97C631.96,-143.75 621.32,-145.58 610.97,-147.36"/>
<polygon fill="#63b8ff" stroke="#63b8ff" points="642.72,-145.46 651.98,-140.32 641.53,-138.56 642.72,-145.46"/>
</g>
<!-- Node25&#45;&gt;Node24 -->
<g id="edge37" class="edge">
<title>Node25&#45;&gt;Node24</title>
<path fill="none" stroke="#63b8ff" d="M435.45,-203.12C485.78,-207.99 553.17,-208.39 610.75,-194 646.58,-185.05 683.78,-161.94 703.53,-145.44"/>
<polygon fill="#63b8ff" stroke="#63b8ff" points="435.83,-199.64 425.51,-202.07 435.09,-206.6 435.83,-199.64"/>
</g>
<!-- Node26&#45;&gt;Node24 -->
<g id="edge39" class="edge">
<title>Node26&#45;&gt;Node24</title>
<path fill="none" stroke="#63b8ff" d="M437.84,-67.8C487.81,-72.45 553.88,-79.44 610.75,-94 628.96,-98.66 648.16,-105.79 665.2,-112.52"/>
<polygon fill="#63b8ff" stroke="#63b8ff" points="438.26,-64.32 427.98,-66.89 437.62,-71.29 438.26,-64.32"/>
</g>
<!-- Node27&#45;&gt;Node6 -->
<g id="edge43" class="edge">
<title>Node27&#45;&gt;Node6</title>
<path fill="none" stroke="#63b8ff" d="M505.4,-183.14C470.16,-210.34 412.57,-254.81 381.67,-278.66"/>
<polygon fill="#63b8ff" stroke="#63b8ff" points="507.31,-186.09 513.08,-177.21 503.03,-180.55 507.31,-186.09"/>
</g>
<!-- Node27&#45;&gt;Node25 -->
<g id="edge41" class="edge">
<title>Node27&#45;&gt;Node25</title>
<path fill="none" stroke="#63b8ff" d="M450.5,-173.1C441.61,-174.48 432.69,-175.85 424.1,-177.18"/>
<polygon fill="#63b8ff" stroke="#63b8ff" points="450.87,-176.59 460.22,-171.6 449.81,-169.67 450.87,-176.59"/>
</g>
<!-- Node27&#45;&gt;Node26 -->
<g id="edge42" class="edge">
<title>Node27&#45;&gt;Node26</title>
<path fill="none" stroke="#63b8ff" d="M470.15,-139.06C467.36,-137.77 464.63,-136.41 462,-135 429.87,-117.79 397.25,-90.62 377.96,-73.31"/>
<polygon fill="#63b8ff" stroke="#63b8ff" points="468.48,-142.15 479.05,-142.9 471.26,-135.73 468.48,-142.15"/>
</g>
<!-- Node28&#45;&gt;Node25 -->
<g id="edge45" class="edge">
<title>Node28&#45;&gt;Node25</title>
<path fill="none" stroke="#63b8ff" d="M473.59,-130.32C469.64,-131.85 465.75,-133.41 462,-135 437.03,-145.59 409.71,-159.73 389.72,-170.6"/>
<polygon fill="#63b8ff" stroke="#63b8ff" points="474.53,-133.71 482.68,-126.94 472.09,-127.15 474.53,-133.71"/>
</g>
<!-- Node28&#45;&gt;Node26 -->
<g id="edge46" class="edge">
<title>Node28&#45;&gt;Node26</title>
<path fill="none" stroke="#63b8ff" d="M470.17,-90.24C451.95,-84.72 432.36,-78.78 414.84,-73.47"/>
<polygon fill="#63b8ff" stroke="#63b8ff" points="468.97,-93.53 479.55,-93.08 471,-86.83 468.97,-93.53"/>
</g>
<!-- Node29&#45;&gt;Node24 -->
<g id="edge49" class="edge">
<title>Node29&#45;&gt;Node24</title>
<path fill="none" stroke="#63b8ff" d="M860.43,-38.57C826.46,-60.42 775.76,-93.04 745.44,-112.55"/>
<polygon fill="#63b8ff" stroke="#63b8ff" points="862.17,-41.6 868.69,-33.25 858.39,-35.72 862.17,-41.6"/>
</g>
<!-- Node29&#45;&gt;Node26 -->
<g id="edge48" class="edge">
<title>Node29&#45;&gt;Node26</title>
<path fill="none" stroke="#63b8ff" d="M819.22,-21.85C713.96,-29.91 525.94,-44.32 426.44,-51.95"/>
<polygon fill="#63b8ff" stroke="#63b8ff" points="819.49,-25.34 829.19,-21.08 818.95,-18.36 819.49,-25.34"/>
</g>
</g>
</svg>
