<?xml version="1.0" encoding="UTF-8" standalone="no"?>
<!DOCTYPE svg PUBLIC "-//W3C//DTD SVG 1.1//EN"
 "http://www.w3.org/Graphics/SVG/1.1/DTD/svg11.dtd">
<!-- Generated by graphviz version 13.1.2 (20250808.2320)
 -->
<!-- Title: nlohmann::detail::binary_reader::get_ubjson_size_value Pages: 1 -->
<svg width="1135pt" height="246pt"
 viewBox="0.00 0.00 1135.00 246.00" xmlns="http://www.w3.org/2000/svg" xmlns:xlink="http://www.w3.org/1999/xlink">
<g id="graph0" class="graph" transform="scale(1 1) rotate(0) translate(4 242)">
<title>nlohmann::detail::binary_reader::get_ubjson_size_value</title>
<!-- Node1 -->
<g id="node1" class="node">
<title>Node1</title>
<g id="a_node1"><a xlink:title=" ">
<polygon fill="#999999" stroke="#666666" points="1126.75,-192 973.5,-192 973.5,-160 1126.75,-160 1126.75,-192"/>
<text xml:space="preserve" text-anchor="start" x="981.5" y="-178.5" font-family="Helvetica,sans-Serif" font-size="10.00">nlohmann::detail::binary</text>
<text xml:space="preserve" text-anchor="middle" x="1050.12" y="-166.5" font-family="Helvetica,sans-Serif" font-size="10.00">_reader::get_ubjson_size_value</text>
</a>
</g>
</g>
<!-- Node2 -->
<g id="node2" class="node">
<title>Node2</title>
<g id="a_node2"><a xlink:href="a01995.html#a26c694413fb860057e1a839d5422b361" target="_top" xlink:title=" ">
<polygon fill="white" stroke="#666666" points="937.5,-173 812.75,-173 812.75,-129 937.5,-129 937.5,-173"/>
<text xml:space="preserve" text-anchor="start" x="820.75" y="-159.5" font-family="Helvetica,sans-Serif" font-size="10.00">nlohmann::detail::binary</text>
<text xml:space="preserve" text-anchor="start" x="820.75" y="-147.5" font-family="Helvetica,sans-Serif" font-size="10.00">_reader::get_ubjson_high</text>
<text xml:space="preserve" text-anchor="middle" x="875.12" y="-135.5" font-family="Helvetica,sans-Serif" font-size="10.00">_precision_number</text>
</a>
</g>
</g>
<!-- Node1&#45;&gt;Node2 -->
<g id="edge1" class="edge">
<title>Node1&#45;&gt;Node2</title>
<path fill="none" stroke="#63b8ff" d="M961.85,-163.39C953.77,-162.22 945.71,-161.06 937.93,-159.93"/>
<polygon fill="#63b8ff" stroke="#63b8ff" points="961.35,-166.85 971.75,-164.82 962.35,-159.92 961.35,-166.85"/>
</g>
<!-- Node17 -->
<g id="node17" class="node">
<title>Node17</title>
<g id="a_node17"><a xlink:href="a01995.html#a7b6c2d4c95d56751e233e285a5f1fea7" target="_top" xlink:title="determine the type and size for a container">
<polygon fill="white" stroke="#666666" points="610.75,-238 462,-238 462,-206 610.75,-206 610.75,-238"/>
<text xml:space="preserve" text-anchor="start" x="470" y="-224.5" font-family="Helvetica,sans-Serif" font-size="10.00">nlohmann::detail::binary</text>
<text xml:space="preserve" text-anchor="middle" x="536.38" y="-212.5" font-family="Helvetica,sans-Serif" font-size="10.00">_reader::get_ubjson_size_type</text>
</a>
</g>
</g>
<!-- Node1&#45;&gt;Node17 -->
<g id="edge20" class="edge">
<title>Node1&#45;&gt;Node17</title>
<path fill="none" stroke="#63b8ff" d="M961.61,-183.87C862.77,-192.75 703.65,-207.05 610.95,-215.39"/>
<polygon fill="#63b8ff" stroke="#63b8ff" points="961.91,-187.35 971.56,-182.97 961.28,-180.38 961.91,-187.35"/>
</g>
<!-- Node3 -->
<g id="node3" class="node">
<title>Node3</title>
<g id="a_node3"><a xlink:href="a01995.html#a7e5e0b71548d0649ce4f131280d06c33" target="_top" xlink:title=" ">
<polygon fill="white" stroke="#666666" points="776.75,-139 646.75,-139 646.75,-107 776.75,-107 776.75,-139"/>
<text xml:space="preserve" text-anchor="start" x="654.75" y="-125.5" font-family="Helvetica,sans-Serif" font-size="10.00">nlohmann::detail::binary</text>
<text xml:space="preserve" text-anchor="middle" x="711.75" y="-113.5" font-family="Helvetica,sans-Serif" font-size="10.00">_reader::get_ubjson_value</text>
</a>
</g>
</g>
<!-- Node2&#45;&gt;Node3 -->
<g id="edge2" class="edge">
<title>Node2&#45;&gt;Node3</title>
<path fill="none" stroke="#63b8ff" d="M801.58,-138.41C793.39,-136.99 785.08,-135.55 777,-134.15"/>
<polygon fill="#63b8ff" stroke="#63b8ff" points="800.71,-141.81 811.16,-140.08 801.91,-134.92 800.71,-141.81"/>
</g>
<!-- Node4 -->
<g id="node4" class="node">
<title>Node4</title>
<g id="a_node4"><a xlink:href="a01995.html#afb36cb588b795efa513fc95e949493b7" target="_top" xlink:title=" ">
<polygon fill="white" stroke="#666666" points="423.75,-185 295.25,-185 295.25,-153 423.75,-153 423.75,-185"/>
<text xml:space="preserve" text-anchor="start" x="303.25" y="-171.5" font-family="Helvetica,sans-Serif" font-size="10.00">nlohmann::detail::binary</text>
<text xml:space="preserve" text-anchor="middle" x="359.5" y="-159.5" font-family="Helvetica,sans-Serif" font-size="10.00">_reader::get_ubjson_array</text>
</a>
</g>
</g>
<!-- Node3&#45;&gt;Node4 -->
<g id="edge3" class="edge">
<title>Node3&#45;&gt;Node4</title>
<path fill="none" stroke="#63b8ff" d="M635.15,-128.21C626.92,-129.53 618.67,-130.85 610.75,-132 547.48,-141.22 474.83,-149.05 424.16,-155.74"/>
<polygon fill="#63b8ff" stroke="#63b8ff" points="635.49,-131.7 644.81,-126.65 634.38,-124.79 635.49,-131.7"/>
</g>
<!-- Node5 -->
<g id="node5" class="node">
<title>Node5</title>
<g id="a_node5"><a xlink:href="a01995.html#adcf64ad3207f4bf37a5a31c920a385c3" target="_top" xlink:title=" ">
<polygon fill="white" stroke="#666666" points="426,-80 293,-80 293,-48 426,-48 426,-80"/>
<text xml:space="preserve" text-anchor="start" x="301" y="-66.5" font-family="Helvetica,sans-Serif" font-size="10.00">nlohmann::detail::binary</text>
<text xml:space="preserve" text-anchor="middle" x="359.5" y="-54.5" font-family="Helvetica,sans-Serif" font-size="10.00">_reader::get_ubjson_object</text>
</a>
</g>
</g>
<!-- Node3&#45;&gt;Node5 -->
<g id="edge5" class="edge">
<title>Node3&#45;&gt;Node5</title>
<path fill="none" stroke="#63b8ff" d="M676.3,-102.11C657.23,-94.4 632.96,-86.7 610.75,-82 548.97,-68.92 477.21,-62.01 426.41,-60.08"/>
<polygon fill="#63b8ff" stroke="#63b8ff" points="674.91,-105.32 685.48,-106.03 677.66,-98.88 674.91,-105.32"/>
</g>
<!-- Node6 -->
<g id="node6" class="node">
<title>Node6</title>
<g id="a_node6"><a xlink:href="a01995.html#a5a79480d661019b0f3fc615ae12f7de7" target="_top" xlink:title=" ">
<polygon fill="white" stroke="#666666" points="610.75,-132 462,-132 462,-100 610.75,-100 610.75,-132"/>
<text xml:space="preserve" text-anchor="start" x="470" y="-118.5" font-family="Helvetica,sans-Serif" font-size="10.00">nlohmann::detail::binary</text>
<text xml:space="preserve" text-anchor="middle" x="536.38" y="-106.5" font-family="Helvetica,sans-Serif" font-size="10.00">_reader::parse_ubjson_internal</text>
</a>
</g>
</g>
<!-- Node3&#45;&gt;Node6 -->
<g id="edge7" class="edge">
<title>Node3&#45;&gt;Node6</title>
<path fill="none" stroke="#63b8ff" d="M635.41,-119.96C627.36,-119.63 619.17,-119.3 611.13,-118.98"/>
<polygon fill="#63b8ff" stroke="#63b8ff" points="635.04,-123.45 645.17,-120.35 635.32,-116.45 635.04,-123.45"/>
</g>
<!-- Node4&#45;&gt;Node3 -->
<g id="edge4" class="edge">
<title>Node4&#45;&gt;Node3</title>
<path fill="none" stroke="#63b8ff" d="M435.48,-169.59C485.28,-165.91 552.05,-158.56 610.75,-150 629.95,-147.2 651.11,-143.48 669.01,-139.44"/>
<polygon fill="#63b8ff" stroke="#63b8ff" points="435.4,-166.09 425.67,-170.28 435.89,-173.07 435.4,-166.09"/>
</g>
<!-- Node5&#45;&gt;Node3 -->
<g id="edge6" class="edge">
<title>Node5&#45;&gt;Node3</title>
<path fill="none" stroke="#63b8ff" d="M437.74,-75.99C487.53,-81.04 553.44,-87.87 610.75,-100 622.43,-102.47 634.68,-105.77 646.44,-109.17"/>
<polygon fill="#63b8ff" stroke="#63b8ff" points="438.22,-72.52 427.91,-75 437.51,-79.49 438.22,-72.52"/>
</g>
<!-- Node6&#45;&gt;Node4 -->
<g id="edge8" class="edge">
<title>Node6&#45;&gt;Node4</title>
<path fill="none" stroke="#63b8ff" d="M470.17,-135.76C451.95,-141.28 432.36,-147.22 414.84,-152.53"/>
<polygon fill="#63b8ff" stroke="#63b8ff" points="471,-139.17 479.55,-132.92 468.97,-132.47 471,-139.17"/>
</g>
<!-- Node6&#45;&gt;Node5 -->
<g id="edge9" class="edge">
<title>Node6&#45;&gt;Node5</title>
<path fill="none" stroke="#63b8ff" d="M469.25,-96.34C451.62,-91.09 432.75,-85.49 415.77,-80.44"/>
<polygon fill="#63b8ff" stroke="#63b8ff" points="468.01,-99.62 478.59,-99.12 470.01,-92.91 468.01,-99.62"/>
</g>
<!-- Node7 -->
<g id="node7" class="node">
<title>Node7</title>
<g id="a_node7"><a xlink:href="a01995.html#ab4afd9ee276bbb15a0f898061aad94dd" target="_top" xlink:title=" ">
<polygon fill="white" stroke="#666666" points="419.25,-132 299.75,-132 299.75,-100 419.25,-100 419.25,-132"/>
<text xml:space="preserve" text-anchor="start" x="307.75" y="-118.5" font-family="Helvetica,sans-Serif" font-size="10.00">nlohmann::detail::binary</text>
<text xml:space="preserve" text-anchor="middle" x="359.5" y="-106.5" font-family="Helvetica,sans-Serif" font-size="10.00">_reader::sax_parse</text>
</a>
</g>
</g>
<!-- Node6&#45;&gt;Node7 -->
<g id="edge10" class="edge">
<title>Node6&#45;&gt;Node7</title>
<path fill="none" stroke="#63b8ff" d="M450.49,-116C440.09,-116 429.65,-116 419.75,-116"/>
<polygon fill="#63b8ff" stroke="#63b8ff" points="450.21,-119.5 460.21,-116 450.21,-112.5 450.21,-119.5"/>
</g>
<!-- Node8 -->
<g id="node8" class="node">
<title>Node8</title>
<g id="a_node8"><a xlink:href="a01659.html#a4e02793f2691aa29ab7cb69fddafbf5c" target="_top" xlink:title="Create a JSON value from an input in BSON format.">
<polygon fill="white" stroke="#666666" points="257,-232 146.5,-232 146.5,-200 257,-200 257,-232"/>
<text xml:space="preserve" text-anchor="start" x="154.5" y="-218.5" font-family="Helvetica,sans-Serif" font-size="10.00">nlohmann::basic_json</text>
<text xml:space="preserve" text-anchor="middle" x="201.75" y="-206.5" font-family="Helvetica,sans-Serif" font-size="10.00">::from_bson</text>
</a>
</g>
</g>
<!-- Node7&#45;&gt;Node8 -->
<g id="edge11" class="edge">
<title>Node7&#45;&gt;Node8</title>
<path fill="none" stroke="#63b8ff" d="M301.72,-137.99C298.67,-139.87 295.74,-141.87 293,-144 272.22,-160.14 277.55,-174.57 257,-191 253.03,-194.17 248.59,-197.05 244.01,-199.62"/>
<polygon fill="#63b8ff" stroke="#63b8ff" points="303.36,-141.09 310.4,-133.18 299.96,-134.96 303.36,-141.09"/>
</g>
<!-- Node10 -->
<g id="node10" class="node">
<title>Node10</title>
<g id="a_node10"><a xlink:href="a01659.html#a44dd5635fb2da4710f6cd6e42b72773f" target="_top" xlink:title="create a JSON value from an input in CBOR format">
<polygon fill="white" stroke="#666666" points="257,-182 146.5,-182 146.5,-150 257,-150 257,-182"/>
<text xml:space="preserve" text-anchor="start" x="154.5" y="-168.5" font-family="Helvetica,sans-Serif" font-size="10.00">nlohmann::basic_json</text>
<text xml:space="preserve" text-anchor="middle" x="201.75" y="-156.5" font-family="Helvetica,sans-Serif" font-size="10.00">::from_cbor</text>
</a>
</g>
</g>
<!-- Node7&#45;&gt;Node10 -->
<g id="edge13" class="edge">
<title>Node7&#45;&gt;Node10</title>
<path fill="none" stroke="#63b8ff" d="M296.86,-135.79C282.7,-140.33 267.8,-145.12 254.13,-149.51"/>
<polygon fill="#63b8ff" stroke="#63b8ff" points="297.61,-139.22 306.06,-132.83 295.47,-132.56 297.61,-139.22"/>
</g>
<!-- Node12 -->
<g id="node12" class="node">
<title>Node12</title>
<g id="a_node12"><a xlink:href="a01659.html#adbcab52fca1e25b3311ef14e71a57590" target="_top" xlink:title="create a JSON value from an input in MessagePack format">
<polygon fill="white" stroke="#666666" points="257,-132 146.5,-132 146.5,-100 257,-100 257,-132"/>
<text xml:space="preserve" text-anchor="start" x="154.5" y="-118.5" font-family="Helvetica,sans-Serif" font-size="10.00">nlohmann::basic_json</text>
<text xml:space="preserve" text-anchor="middle" x="201.75" y="-106.5" font-family="Helvetica,sans-Serif" font-size="10.00">::from_msgpack</text>
</a>
</g>
</g>
<!-- Node7&#45;&gt;Node12 -->
<g id="edge15" class="edge">
<title>Node7&#45;&gt;Node12</title>
<path fill="none" stroke="#63b8ff" d="M288.42,-116C278,-116 267.39,-116 257.35,-116"/>
<polygon fill="#63b8ff" stroke="#63b8ff" points="288.1,-119.5 298.1,-116 288.1,-112.5 288.1,-119.5"/>
</g>
<!-- Node14 -->
<g id="node14" class="node">
<title>Node14</title>
<g id="a_node14"><a xlink:href="a01659.html#aa81f62db69978b90ff701f05c72e03a7" target="_top" xlink:title="create a JSON value from an input in UBJSON format">
<polygon fill="white" stroke="#666666" points="257,-82 146.5,-82 146.5,-50 257,-50 257,-82"/>
<text xml:space="preserve" text-anchor="start" x="154.5" y="-68.5" font-family="Helvetica,sans-Serif" font-size="10.00">nlohmann::basic_json</text>
<text xml:space="preserve" text-anchor="middle" x="201.75" y="-56.5" font-family="Helvetica,sans-Serif" font-size="10.00">::from_ubjson</text>
</a>
</g>
</g>
<!-- Node7&#45;&gt;Node14 -->
<g id="edge17" class="edge">
<title>Node7&#45;&gt;Node14</title>
<path fill="none" stroke="#63b8ff" d="M296.86,-96.21C282.7,-91.67 267.8,-86.88 254.13,-82.49"/>
<polygon fill="#63b8ff" stroke="#63b8ff" points="295.47,-99.44 306.06,-99.17 297.61,-92.78 295.47,-99.44"/>
</g>
<!-- Node16 -->
<g id="node16" class="node">
<title>Node16</title>
<g id="a_node16"><a xlink:href="a01659.html#a12b382c6407da5543827ce4b24bb5008" target="_top" xlink:title="generate SAX events">
<polygon fill="white" stroke="#666666" points="257,-32 146.5,-32 146.5,0 257,0 257,-32"/>
<text xml:space="preserve" text-anchor="start" x="154.5" y="-18.5" font-family="Helvetica,sans-Serif" font-size="10.00">nlohmann::basic_json</text>
<text xml:space="preserve" text-anchor="middle" x="201.75" y="-6.5" font-family="Helvetica,sans-Serif" font-size="10.00">::sax_parse</text>
</a>
</g>
</g>
<!-- Node7&#45;&gt;Node16 -->
<g id="edge19" class="edge">
<title>Node7&#45;&gt;Node16</title>
<path fill="none" stroke="#63b8ff" d="M300.11,-93.96C297.64,-92.4 295.25,-90.75 293,-89 271.92,-72.67 277.74,-57.76 257,-41 253.13,-37.87 248.8,-35.04 244.33,-32.5"/>
<polygon fill="#63b8ff" stroke="#63b8ff" points="298.23,-96.92 308.66,-98.78 301.67,-90.82 298.23,-96.92"/>
</g>
<!-- Node9 -->
<g id="node9" class="node">
<title>Node9</title>
<g id="a_node9"><a xlink:href="a01659.html#ae2612581e4788ddffc2f45d5e4cc04fc" target="_top" xlink:title=" ">
<polygon fill="white" stroke="#666666" points="110.5,-232 0,-232 0,-200 110.5,-200 110.5,-232"/>
<text xml:space="preserve" text-anchor="start" x="8" y="-218.5" font-family="Helvetica,sans-Serif" font-size="10.00">nlohmann::basic_json</text>
<text xml:space="preserve" text-anchor="middle" x="55.25" y="-206.5" font-family="Helvetica,sans-Serif" font-size="10.00">::from_bson</text>
</a>
</g>
</g>
<!-- Node8&#45;&gt;Node9 -->
<g id="edge12" class="edge">
<title>Node8&#45;&gt;Node9</title>
<path fill="none" stroke="#63b8ff" d="M134.63,-216C126.71,-216 118.69,-216 110.96,-216"/>
<polygon fill="#63b8ff" stroke="#63b8ff" points="134.61,-219.5 144.61,-216 134.61,-212.5 134.61,-219.5"/>
</g>
<!-- Node11 -->
<g id="node11" class="node">
<title>Node11</title>
<g id="a_node11"><a xlink:href="a01659.html#a188755c8cda27e2afb03c016c14125d8" target="_top" xlink:title=" ">
<polygon fill="white" stroke="#666666" points="110.5,-182 0,-182 0,-150 110.5,-150 110.5,-182"/>
<text xml:space="preserve" text-anchor="start" x="8" y="-168.5" font-family="Helvetica,sans-Serif" font-size="10.00">nlohmann::basic_json</text>
<text xml:space="preserve" text-anchor="middle" x="55.25" y="-156.5" font-family="Helvetica,sans-Serif" font-size="10.00">::from_cbor</text>
</a>
</g>
</g>
<!-- Node10&#45;&gt;Node11 -->
<g id="edge14" class="edge">
<title>Node10&#45;&gt;Node11</title>
<path fill="none" stroke="#63b8ff" d="M134.63,-166C126.71,-166 118.69,-166 110.96,-166"/>
<polygon fill="#63b8ff" stroke="#63b8ff" points="134.61,-169.5 144.61,-166 134.61,-162.5 134.61,-169.5"/>
</g>
<!-- Node13 -->
<g id="node13" class="node">
<title>Node13</title>
<g id="a_node13"><a xlink:href="a01659.html#a0d69d3102639759d5202a6f764760d23" target="_top" xlink:title=" ">
<polygon fill="white" stroke="#666666" points="110.5,-132 0,-132 0,-100 110.5,-100 110.5,-132"/>
<text xml:space="preserve" text-anchor="start" x="8" y="-118.5" font-family="Helvetica,sans-Serif" font-size="10.00">nlohmann::basic_json</text>
<text xml:space="preserve" text-anchor="middle" x="55.25" y="-106.5" font-family="Helvetica,sans-Serif" font-size="10.00">::from_msgpack</text>
</a>
</g>
</g>
<!-- Node12&#45;&gt;Node13 -->
<g id="edge16" class="edge">
<title>Node12&#45;&gt;Node13</title>
<path fill="none" stroke="#63b8ff" d="M134.63,-116C126.71,-116 118.69,-116 110.96,-116"/>
<polygon fill="#63b8ff" stroke="#63b8ff" points="134.61,-119.5 144.61,-116 134.61,-112.5 134.61,-119.5"/>
</g>
<!-- Node15 -->
<g id="node15" class="node">
<title>Node15</title>
<g id="a_node15"><a xlink:href="a01659.html#ab6eeda23c34cee79d8d72f1a8691a8de" target="_top" xlink:title=" ">
<polygon fill="white" stroke="#666666" points="110.5,-82 0,-82 0,-50 110.5,-50 110.5,-82"/>
<text xml:space="preserve" text-anchor="start" x="8" y="-68.5" font-family="Helvetica,sans-Serif" font-size="10.00">nlohmann::basic_json</text>
<text xml:space="preserve" text-anchor="middle" x="55.25" y="-56.5" font-family="Helvetica,sans-Serif" font-size="10.00">::from_ubjson</text>
</a>
</g>
</g>
<!-- Node14&#45;&gt;Node15 -->
<g id="edge18" class="edge">
<title>Node14&#45;&gt;Node15</title>
<path fill="none" stroke="#63b8ff" d="M134.63,-66C126.71,-66 118.69,-66 110.96,-66"/>
<polygon fill="#63b8ff" stroke="#63b8ff" points="134.61,-69.5 144.61,-66 134.61,-62.5 134.61,-69.5"/>
</g>
<!-- Node17&#45;&gt;Node4 -->
<g id="edge21" class="edge">
<title>Node17&#45;&gt;Node4</title>
<path fill="none" stroke="#63b8ff" d="M470.17,-202.24C451.95,-196.72 432.36,-190.78 414.84,-185.47"/>
<polygon fill="#63b8ff" stroke="#63b8ff" points="468.97,-205.53 479.55,-205.08 471,-198.83 468.97,-205.53"/>
</g>
<!-- Node17&#45;&gt;Node5 -->
<g id="edge22" class="edge">
<title>Node17&#45;&gt;Node5</title>
<path fill="none" stroke="#63b8ff" d="M511.93,-197.57C497.14,-181.82 477.91,-160.67 462,-141 444.78,-119.71 447.48,-107.98 426,-91 420.89,-86.96 415.08,-83.43 409.09,-80.38"/>
<polygon fill="#63b8ff" stroke="#63b8ff" points="509.18,-199.76 518.6,-204.63 514.27,-194.95 509.18,-199.76"/>
</g>
</g>
</svg>
