<?xml version="1.0" encoding="UTF-8" standalone="no"?>
<!DOCTYPE svg PUBLIC "-//W3C//DTD SVG 1.1//EN"
 "http://www.w3.org/Graphics/SVG/1.1/DTD/svg11.dtd">
<!-- Generated by graphviz version 13.1.2 (20250808.2320)
 -->
<!-- Title: nlohmann::detail::parser::accept Pages: 1 -->
<svg width="768pt" height="190pt"
 viewBox="0.00 0.00 768.00 190.00" xmlns="http://www.w3.org/2000/svg" xmlns:xlink="http://www.w3.org/1999/xlink">
<g id="graph0" class="graph" transform="scale(1 1) rotate(0) translate(4 186)">
<title>nlohmann::detail::parser::accept</title>
<!-- Node1 -->
<g id="node1" class="node">
<title>Node1</title>
<g id="a_node1"><a xlink:title="public accept interface">
<polygon fill="#999999" stroke="#666666" points="120.25,-104 0,-104 0,-72 120.25,-72 120.25,-104"/>
<text xml:space="preserve" text-anchor="start" x="8" y="-90.5" font-family="Helvetica,sans-Serif" font-size="10.00">nlohmann::detail::parser</text>
<text xml:space="preserve" text-anchor="middle" x="60.12" y="-78.5" font-family="Helvetica,sans-Serif" font-size="10.00">::accept</text>
</a>
</g>
</g>
<!-- Node2 -->
<g id="node2" class="node">
<title>Node2</title>
<g id="a_node2"><a xlink:href="a01999.html#a073b8313a5194aac3a7d5da0d935788c" target="_top" xlink:title=" ">
<polygon fill="white" stroke="#666666" points="276.5,-104 156.25,-104 156.25,-72 276.5,-72 276.5,-104"/>
<text xml:space="preserve" text-anchor="start" x="164.25" y="-90.5" font-family="Helvetica,sans-Serif" font-size="10.00">nlohmann::detail::parser</text>
<text xml:space="preserve" text-anchor="middle" x="216.38" y="-78.5" font-family="Helvetica,sans-Serif" font-size="10.00">::sax_parse</text>
</a>
</g>
</g>
<!-- Node1&#45;&gt;Node2 -->
<g id="edge1" class="edge">
<title>Node1&#45;&gt;Node2</title>
<path fill="none" stroke="#63b8ff" d="M120.32,-88C128.23,-88 136.41,-88 144.5,-88"/>
<polygon fill="#63b8ff" stroke="#63b8ff" points="144.31,-91.5 154.31,-88 144.31,-84.5 144.31,-91.5"/>
</g>
<!-- Node3 -->
<g id="node3" class="node">
<title>Node3</title>
<g id="a_node3"><a xlink:href="a01563.html#a137ea4d27de45d8a844fd13451d40f3d" target="_top" xlink:title="create a parse error exception">
<polygon fill="white" stroke="#666666" points="587.5,-182 470.25,-182 470.25,-150 587.5,-150 587.5,-182"/>
<text xml:space="preserve" text-anchor="start" x="478.25" y="-168.5" font-family="Helvetica,sans-Serif" font-size="10.00">nlohmann::detail::parse</text>
<text xml:space="preserve" text-anchor="middle" x="528.88" y="-156.5" font-family="Helvetica,sans-Serif" font-size="10.00">_error::create</text>
</a>
</g>
</g>
<!-- Node2&#45;&gt;Node3 -->
<g id="edge2" class="edge">
<title>Node2&#45;&gt;Node3</title>
<path fill="none" stroke="#63b8ff" d="M244.71,-104.4C263.22,-114.77 288.57,-127.57 312.5,-135 360.09,-149.77 415.82,-157.55 458.66,-161.62"/>
<polygon fill="#63b8ff" stroke="#63b8ff" points="458.33,-165.1 468.6,-162.51 458.95,-158.13 458.33,-165.1"/>
</g>
<!-- Node6 -->
<g id="node6" class="node">
<title>Node6</title>
<g id="a_node6"><a xlink:href="a01999.html#a94e7f8a0f880c20c8a48f591f56cbd85" target="_top" xlink:title=" ">
<polygon fill="white" stroke="#666666" points="589,-82 468.75,-82 468.75,-50 589,-50 589,-82"/>
<text xml:space="preserve" text-anchor="start" x="476.75" y="-68.5" font-family="Helvetica,sans-Serif" font-size="10.00">nlohmann::detail::parser</text>
<text xml:space="preserve" text-anchor="middle" x="528.88" y="-56.5" font-family="Helvetica,sans-Serif" font-size="10.00">::exception_message</text>
</a>
</g>
</g>
<!-- Node2&#45;&gt;Node6 -->
<g id="edge5" class="edge">
<title>Node2&#45;&gt;Node6</title>
<path fill="none" stroke="#63b8ff" d="M276.88,-83.78C328.25,-80.14 402.57,-74.88 457.01,-71.02"/>
<polygon fill="#63b8ff" stroke="#63b8ff" points="457.07,-74.53 466.8,-70.33 456.58,-67.54 457.07,-74.53"/>
</g>
<!-- Node7 -->
<g id="node7" class="node">
<title>Node7</title>
<g id="a_node7"><a xlink:href="a01999.html#a1212088ee1e23633a76b2ed80514de79" target="_top" xlink:title="get next token from lexer">
<polygon fill="white" stroke="#666666" points="589,-32 468.75,-32 468.75,0 589,0 589,-32"/>
<text xml:space="preserve" text-anchor="start" x="476.75" y="-18.5" font-family="Helvetica,sans-Serif" font-size="10.00">nlohmann::detail::parser</text>
<text xml:space="preserve" text-anchor="middle" x="528.88" y="-6.5" font-family="Helvetica,sans-Serif" font-size="10.00">::get_token</text>
</a>
</g>
</g>
<!-- Node2&#45;&gt;Node7 -->
<g id="edge6" class="edge">
<title>Node2&#45;&gt;Node7</title>
<path fill="none" stroke="#63b8ff" d="M276.88,-74.2C328.36,-62.27 402.89,-44.98 457.35,-32.35"/>
<polygon fill="#63b8ff" stroke="#63b8ff" points="457.89,-35.82 466.84,-30.15 456.31,-29 457.89,-35.82"/>
</g>
<!-- Node8 -->
<g id="node8" class="node">
<title>Node8</title>
<g id="a_node8"><a xlink:href="a01999.html#a678fdebccc8ddd3242c67b6bce2f8f1a" target="_top" xlink:title=" ">
<polygon fill="white" stroke="#666666" points="432.75,-126 312.5,-126 312.5,-94 432.75,-94 432.75,-126"/>
<text xml:space="preserve" text-anchor="start" x="320.5" y="-112.5" font-family="Helvetica,sans-Serif" font-size="10.00">nlohmann::detail::parser</text>
<text xml:space="preserve" text-anchor="middle" x="372.62" y="-100.5" font-family="Helvetica,sans-Serif" font-size="10.00">::sax_parse_internal</text>
</a>
</g>
</g>
<!-- Node2&#45;&gt;Node8 -->
<g id="edge7" class="edge">
<title>Node2&#45;&gt;Node8</title>
<path fill="none" stroke="#63b8ff" d="M276.57,-96.44C284.48,-97.57 292.66,-98.74 300.75,-99.89"/>
<polygon fill="#63b8ff" stroke="#63b8ff" points="300.19,-103.35 310.58,-101.29 301.17,-96.42 300.19,-103.35"/>
</g>
<!-- Node4 -->
<g id="node4" class="node">
<title>Node4</title>
<g id="a_node4"><a xlink:href="a01559.html#abf41a7e9178356314082284e6cfea278" target="_top" xlink:title=" ">
<polygon fill="white" stroke="#666666" points="760.25,-132 625,-132 625,-100 760.25,-100 760.25,-132"/>
<text xml:space="preserve" text-anchor="start" x="633" y="-118.5" font-family="Helvetica,sans-Serif" font-size="10.00">nlohmann::detail::exception</text>
<text xml:space="preserve" text-anchor="middle" x="692.62" y="-106.5" font-family="Helvetica,sans-Serif" font-size="10.00">::name</text>
</a>
</g>
</g>
<!-- Node3&#45;&gt;Node4 -->
<g id="edge3" class="edge">
<title>Node3&#45;&gt;Node4</title>
<path fill="none" stroke="#63b8ff" d="M582.84,-149.63C597.15,-145.2 612.78,-140.37 627.63,-135.78"/>
<polygon fill="#63b8ff" stroke="#63b8ff" points="628.3,-139.24 636.82,-132.94 626.23,-132.55 628.3,-139.24"/>
</g>
<!-- Node5 -->
<g id="node5" class="node">
<title>Node5</title>
<g id="a_node5"><a xlink:href="a01563.html#aefe74adeaa48781464ba2fd2ec63d221" target="_top" xlink:title=" ">
<polygon fill="white" stroke="#666666" points="751.25,-182 634,-182 634,-150 751.25,-150 751.25,-182"/>
<text xml:space="preserve" text-anchor="start" x="642" y="-168.5" font-family="Helvetica,sans-Serif" font-size="10.00">nlohmann::detail::parse</text>
<text xml:space="preserve" text-anchor="middle" x="692.62" y="-156.5" font-family="Helvetica,sans-Serif" font-size="10.00">_error::position_string</text>
</a>
</g>
</g>
<!-- Node3&#45;&gt;Node5 -->
<g id="edge4" class="edge">
<title>Node3&#45;&gt;Node5</title>
<path fill="none" stroke="#63b8ff" d="M587.81,-166C598.96,-166 610.75,-166 622.22,-166"/>
<polygon fill="#63b8ff" stroke="#63b8ff" points="622.03,-169.5 632.03,-166 622.03,-162.5 622.03,-169.5"/>
</g>
<!-- Node8&#45;&gt;Node3 -->
<g id="edge8" class="edge">
<title>Node8&#45;&gt;Node3</title>
<path fill="none" stroke="#63b8ff" d="M419.07,-126.5C435.63,-132.51 454.55,-139.38 471.91,-145.68"/>
<polygon fill="#63b8ff" stroke="#63b8ff" points="470.47,-148.88 481.07,-149.01 472.86,-142.3 470.47,-148.88"/>
</g>
<!-- Node8&#45;&gt;Node6 -->
<g id="edge11" class="edge">
<title>Node8&#45;&gt;Node6</title>
<path fill="none" stroke="#63b8ff" d="M431.06,-93.62C440.24,-91 449.81,-88.27 459.21,-85.59"/>
<polygon fill="#63b8ff" stroke="#63b8ff" points="460.02,-89 468.68,-82.89 458.1,-82.26 460.02,-89"/>
</g>
<!-- Node8&#45;&gt;Node7 -->
<g id="edge12" class="edge">
<title>Node8&#45;&gt;Node7</title>
<path fill="none" stroke="#63b8ff" d="M393.5,-93.51C412.15,-78.56 441.21,-56.54 468.75,-41 470.92,-39.78 473.16,-38.58 475.44,-37.4"/>
<polygon fill="#63b8ff" stroke="#63b8ff" points="476.8,-40.63 484.28,-33.12 473.75,-34.33 476.8,-40.63"/>
</g>
<!-- Node9 -->
<g id="node9" class="node">
<title>Node9</title>
<g id="a_node9"><a xlink:href="a01575.html#a3f6d82a6f967c4728a1ec735a7867073" target="_top" xlink:title=" ">
<polygon fill="white" stroke="#666666" points="582.25,-132 475.5,-132 475.5,-100 582.25,-100 582.25,-132"/>
<text xml:space="preserve" text-anchor="start" x="483.5" y="-118.5" font-family="Helvetica,sans-Serif" font-size="10.00">nlohmann::detail::out</text>
<text xml:space="preserve" text-anchor="middle" x="528.88" y="-106.5" font-family="Helvetica,sans-Serif" font-size="10.00">_of_range::create</text>
</a>
</g>
</g>
<!-- Node8&#45;&gt;Node9 -->
<g id="edge9" class="edge">
<title>Node8&#45;&gt;Node9</title>
<path fill="none" stroke="#63b8ff" d="M432.82,-112.3C442.94,-112.7 453.5,-113.11 463.75,-113.51"/>
<polygon fill="#63b8ff" stroke="#63b8ff" points="463.5,-117 473.63,-113.89 463.77,-110 463.5,-117"/>
</g>
<!-- Node9&#45;&gt;Node4 -->
<g id="edge10" class="edge">
<title>Node9&#45;&gt;Node4</title>
<path fill="none" stroke="#63b8ff" d="M582.39,-116C592.28,-116 602.82,-116 613.3,-116"/>
<polygon fill="#63b8ff" stroke="#63b8ff" points="613.1,-119.5 623.1,-116 613.1,-112.5 613.1,-119.5"/>
</g>
</g>
</svg>
