<?xml version="1.0" encoding="UTF-8" standalone="no"?>
<!DOCTYPE svg PUBLIC "-//W3C//DTD SVG 1.1//EN"
 "http://www.w3.org/Graphics/SVG/1.1/DTD/svg11.dtd">
<!-- Generated by graphviz version 13.1.2 (20250808.2320)
 -->
<!-- Title: nlohmann::detail::binary_reader::get_cbor_string Pages: 1 -->
<svg width="795pt" height="282pt"
 viewBox="0.00 0.00 795.00 282.00" xmlns="http://www.w3.org/2000/svg" xmlns:xlink="http://www.w3.org/1999/xlink">
<g id="graph0" class="graph" transform="scale(1 1) rotate(0) translate(4 278)">
<title>nlohmann::detail::binary_reader::get_cbor_string</title>
<!-- Node1 -->
<g id="node1" class="node">
<title>Node1</title>
<g id="a_node1"><a xlink:title="reads a CBOR string">
<polygon fill="#999999" stroke="#666666" points="121,-158 0,-158 0,-126 121,-126 121,-158"/>
<text xml:space="preserve" text-anchor="start" x="8" y="-144.5" font-family="Helvetica,sans-Serif" font-size="10.00">nlohmann::detail::binary</text>
<text xml:space="preserve" text-anchor="middle" x="60.5" y="-132.5" font-family="Helvetica,sans-Serif" font-size="10.00">_reader::get_cbor_string</text>
</a>
</g>
</g>
<!-- Node1&#45;&gt;Node1 -->
<g id="edge6" class="edge">
<title>Node1&#45;&gt;Node1</title>
<path fill="none" stroke="#63b8ff" d="M32,-158.44C26.68,-167.58 36.18,-176 60.5,-176 73.8,-176 82.67,-173.48 87.1,-169.71"/>
<polygon fill="#63b8ff" stroke="#63b8ff" points="90.54,-170.38 88.75,-159.94 83.63,-169.22 90.54,-170.38"/>
</g>
<!-- Node2 -->
<g id="node2" class="node">
<title>Node2</title>
<g id="a_node2"><a xlink:href="a01563.html#a137ea4d27de45d8a844fd13451d40f3d" target="_top" xlink:title="create a parse error exception">
<polygon fill="white" stroke="#666666" points="604,-249 486.75,-249 486.75,-217 604,-217 604,-249"/>
<text xml:space="preserve" text-anchor="start" x="494.75" y="-235.5" font-family="Helvetica,sans-Serif" font-size="10.00">nlohmann::detail::parse</text>
<text xml:space="preserve" text-anchor="middle" x="545.38" y="-223.5" font-family="Helvetica,sans-Serif" font-size="10.00">_error::create</text>
</a>
</g>
</g>
<!-- Node1&#45;&gt;Node2 -->
<g id="edge1" class="edge">
<title>Node1&#45;&gt;Node2</title>
<path fill="none" stroke="#63b8ff" d="M72.02,-158.49C87.48,-180.99 118.68,-220.3 157,-236 261.47,-278.79 395.48,-264.18 475.38,-249.04"/>
<polygon fill="#63b8ff" stroke="#63b8ff" points="475.66,-252.55 484.8,-247.2 474.32,-245.68 475.66,-252.55"/>
</g>
<!-- Node5 -->
<g id="node5" class="node">
<title>Node5</title>
<g id="a_node5"><a xlink:href="a01995.html#a9c413c9a1bade1ce345740f4d69156f0" target="_top" xlink:title=" ">
<polygon fill="white" stroke="#666666" points="616,-158 474.75,-158 474.75,-126 616,-126 616,-158"/>
<text xml:space="preserve" text-anchor="start" x="482.75" y="-144.5" font-family="Helvetica,sans-Serif" font-size="10.00">nlohmann::detail::binary</text>
<text xml:space="preserve" text-anchor="middle" x="545.38" y="-132.5" font-family="Helvetica,sans-Serif" font-size="10.00">_reader::exception_message</text>
</a>
</g>
</g>
<!-- Node1&#45;&gt;Node5 -->
<g id="edge4" class="edge">
<title>Node1&#45;&gt;Node5</title>
<path fill="none" stroke="#63b8ff" d="M98.35,-125.55C115.76,-118.66 137.06,-111.44 157,-108 280.46,-86.68 314.78,-98.88 438.75,-117 449.52,-118.57 460.8,-120.71 471.82,-123.07"/>
<polygon fill="#63b8ff" stroke="#63b8ff" points="470.73,-126.42 481.25,-125.17 472.25,-119.58 470.73,-126.42"/>
</g>
<!-- Node6 -->
<g id="node6" class="node">
<title>Node6</title>
<g id="a_node6"><a xlink:href="a01995.html#ad222095c0b21a87824cb10629299629a" target="_top" xlink:title="get next character from the input">
<polygon fill="white" stroke="#666666" points="438.75,-158 319.25,-158 319.25,-126 438.75,-126 438.75,-158"/>
<text xml:space="preserve" text-anchor="start" x="327.25" y="-144.5" font-family="Helvetica,sans-Serif" font-size="10.00">nlohmann::detail::binary</text>
<text xml:space="preserve" text-anchor="middle" x="379" y="-132.5" font-family="Helvetica,sans-Serif" font-size="10.00">_reader::get</text>
</a>
</g>
</g>
<!-- Node1&#45;&gt;Node6 -->
<g id="edge5" class="edge">
<title>Node1&#45;&gt;Node6</title>
<path fill="none" stroke="#63b8ff" d="M114.56,-125.54C128.25,-122 143.06,-118.79 157,-117 212.65,-109.84 227.61,-109.78 283.25,-117 293.41,-118.32 304.03,-120.4 314.34,-122.81"/>
<polygon fill="#63b8ff" stroke="#63b8ff" points="313.34,-126.17 323.89,-125.18 315.02,-119.38 313.34,-126.17"/>
</g>
<!-- Node7 -->
<g id="node7" class="node">
<title>Node7</title>
<g id="a_node7"><a xlink:href="a01995.html#ac356c6364fe0273d3303fb7a447f4ef6" target="_top" xlink:title=" ">
<polygon fill="white" stroke="#666666" points="279.88,-158 160.38,-158 160.38,-126 279.88,-126 279.88,-158"/>
<text xml:space="preserve" text-anchor="start" x="168.38" y="-144.5" font-family="Helvetica,sans-Serif" font-size="10.00">nlohmann::detail::binary</text>
<text xml:space="preserve" text-anchor="middle" x="220.12" y="-132.5" font-family="Helvetica,sans-Serif" font-size="10.00">_reader::get_number</text>
</a>
</g>
</g>
<!-- Node1&#45;&gt;Node7 -->
<g id="edge7" class="edge">
<title>Node1&#45;&gt;Node7</title>
<path fill="none" stroke="#63b8ff" d="M121.09,-142C130.04,-142 139.34,-142 148.5,-142"/>
<polygon fill="#63b8ff" stroke="#63b8ff" points="148.46,-145.5 158.46,-142 148.46,-138.5 148.46,-145.5"/>
</g>
<!-- Node8 -->
<g id="node8" class="node">
<title>Node8</title>
<g id="a_node8"><a xlink:href="a01995.html#a61a0bd8bbe7b560bd429fa990ba3ba1a" target="_top" xlink:title=" ">
<polygon fill="white" stroke="#666666" points="438.75,-208 319.25,-208 319.25,-176 438.75,-176 438.75,-208"/>
<text xml:space="preserve" text-anchor="start" x="327.25" y="-194.5" font-family="Helvetica,sans-Serif" font-size="10.00">nlohmann::detail::binary</text>
<text xml:space="preserve" text-anchor="middle" x="379" y="-182.5" font-family="Helvetica,sans-Serif" font-size="10.00">_reader::unexpect_eof</text>
</a>
</g>
</g>
<!-- Node1&#45;&gt;Node8 -->
<g id="edge16" class="edge">
<title>Node1&#45;&gt;Node8</title>
<path fill="none" stroke="#63b8ff" d="M75.73,-158.39C92.86,-176.74 123.53,-205.43 157,-217 210.94,-235.65 276.27,-224.43 321.85,-211.61"/>
<polygon fill="#63b8ff" stroke="#63b8ff" points="322.65,-215.03 331.25,-208.85 320.67,-208.31 322.65,-215.03"/>
</g>
<!-- Node9 -->
<g id="node9" class="node">
<title>Node9</title>
<g id="a_node9"><a xlink:href="a01995.html#a540919db22df36512f05a88945c13263" target="_top" xlink:title="create a string by reading characters from the input">
<polygon fill="white" stroke="#666666" points="279.88,-208 160.38,-208 160.38,-176 279.88,-176 279.88,-208"/>
<text xml:space="preserve" text-anchor="start" x="168.38" y="-194.5" font-family="Helvetica,sans-Serif" font-size="10.00">nlohmann::detail::binary</text>
<text xml:space="preserve" text-anchor="middle" x="220.12" y="-182.5" font-family="Helvetica,sans-Serif" font-size="10.00">_reader::get_string</text>
</a>
</g>
</g>
<!-- Node1&#45;&gt;Node9 -->
<g id="edge12" class="edge">
<title>Node1&#45;&gt;Node9</title>
<path fill="none" stroke="#63b8ff" d="M113.11,-158.37C126.92,-162.75 142,-167.54 156.34,-172.08"/>
<polygon fill="#63b8ff" stroke="#63b8ff" points="155.09,-175.36 165.68,-175.05 157.21,-168.69 155.09,-175.36"/>
</g>
<!-- Node10 -->
<g id="node10" class="node">
<title>Node10</title>
<g id="a_node10"><a xlink:href="a01995.html#a7d323283c60a0b89ee5eeadf5cb9a5ad" target="_top" xlink:title=" ">
<polygon fill="white" stroke="#666666" points="283.25,-32 157,-32 157,0 283.25,0 283.25,-32"/>
<text xml:space="preserve" text-anchor="start" x="165" y="-18.5" font-family="Helvetica,sans-Serif" font-size="10.00">nlohmann::detail::binary</text>
<text xml:space="preserve" text-anchor="middle" x="220.12" y="-6.5" font-family="Helvetica,sans-Serif" font-size="10.00">_reader::get_token_string</text>
</a>
</g>
</g>
<!-- Node1&#45;&gt;Node10 -->
<g id="edge15" class="edge">
<title>Node1&#45;&gt;Node10</title>
<path fill="none" stroke="#63b8ff" d="M74.66,-125.71C91.91,-105.14 123.87,-69.6 157,-46 161.06,-43.11 165.44,-40.36 169.94,-37.79"/>
<polygon fill="#63b8ff" stroke="#63b8ff" points="171.38,-40.99 178.53,-33.18 168.06,-34.83 171.38,-40.99"/>
</g>
<!-- Node3 -->
<g id="node3" class="node">
<title>Node3</title>
<g id="a_node3"><a xlink:href="a01559.html#abf41a7e9178356314082284e6cfea278" target="_top" xlink:title=" ">
<polygon fill="white" stroke="#666666" points="787.25,-274 652,-274 652,-242 787.25,-242 787.25,-274"/>
<text xml:space="preserve" text-anchor="start" x="660" y="-260.5" font-family="Helvetica,sans-Serif" font-size="10.00">nlohmann::detail::exception</text>
<text xml:space="preserve" text-anchor="middle" x="719.62" y="-248.5" font-family="Helvetica,sans-Serif" font-size="10.00">::name</text>
</a>
</g>
</g>
<!-- Node2&#45;&gt;Node3 -->
<g id="edge2" class="edge">
<title>Node2&#45;&gt;Node3</title>
<path fill="none" stroke="#63b8ff" d="M604.21,-241.39C615.88,-243.09 628.34,-244.9 640.57,-246.67"/>
<polygon fill="#63b8ff" stroke="#63b8ff" points="639.82,-250.1 650.22,-248.07 640.83,-243.17 639.82,-250.1"/>
</g>
<!-- Node4 -->
<g id="node4" class="node">
<title>Node4</title>
<g id="a_node4"><a xlink:href="a01563.html#aefe74adeaa48781464ba2fd2ec63d221" target="_top" xlink:title=" ">
<polygon fill="white" stroke="#666666" points="778.25,-224 661,-224 661,-192 778.25,-192 778.25,-224"/>
<text xml:space="preserve" text-anchor="start" x="669" y="-210.5" font-family="Helvetica,sans-Serif" font-size="10.00">nlohmann::detail::parse</text>
<text xml:space="preserve" text-anchor="middle" x="719.62" y="-198.5" font-family="Helvetica,sans-Serif" font-size="10.00">_error::position_string</text>
</a>
</g>
</g>
<!-- Node2&#45;&gt;Node4 -->
<g id="edge3" class="edge">
<title>Node2&#45;&gt;Node4</title>
<path fill="none" stroke="#63b8ff" d="M604.21,-224.61C618.7,-222.5 634.38,-220.23 649.36,-218.05"/>
<polygon fill="#63b8ff" stroke="#63b8ff" points="649.76,-221.53 659.15,-216.63 648.75,-214.6 649.76,-221.53"/>
</g>
<!-- Node7&#45;&gt;Node6 -->
<g id="edge8" class="edge">
<title>Node7&#45;&gt;Node6</title>
<path fill="none" stroke="#63b8ff" d="M279.99,-142C288.91,-142 298.2,-142 307.34,-142"/>
<polygon fill="#63b8ff" stroke="#63b8ff" points="307.3,-145.5 317.3,-142 307.3,-138.5 307.3,-145.5"/>
</g>
<!-- Node7&#45;&gt;Node8 -->
<g id="edge9" class="edge">
<title>Node7&#45;&gt;Node8</title>
<path fill="none" stroke="#63b8ff" d="M272.49,-158.37C286.23,-162.75 301.24,-167.54 315.51,-172.08"/>
<polygon fill="#63b8ff" stroke="#63b8ff" points="314.22,-175.34 324.81,-175.05 316.34,-168.67 314.22,-175.34"/>
</g>
<!-- Node8&#45;&gt;Node2 -->
<g id="edge10" class="edge">
<title>Node8&#45;&gt;Node2</title>
<path fill="none" stroke="#63b8ff" d="M438.88,-206.69C450.73,-209.64 463.28,-212.77 475.44,-215.81"/>
<polygon fill="#63b8ff" stroke="#63b8ff" points="474.44,-219.16 484.99,-218.19 476.13,-212.37 474.44,-219.16"/>
</g>
<!-- Node8&#45;&gt;Node5 -->
<g id="edge11" class="edge">
<title>Node8&#45;&gt;Node5</title>
<path fill="none" stroke="#63b8ff" d="M433.82,-175.63C448.36,-171.2 464.26,-166.37 479.34,-161.78"/>
<polygon fill="#63b8ff" stroke="#63b8ff" points="480.15,-165.19 488.7,-158.93 478.12,-158.5 480.15,-165.19"/>
</g>
<!-- Node9&#45;&gt;Node6 -->
<g id="edge13" class="edge">
<title>Node9&#45;&gt;Node6</title>
<path fill="none" stroke="#63b8ff" d="M272.49,-175.63C286.23,-171.25 301.24,-166.46 315.51,-161.92"/>
<polygon fill="#63b8ff" stroke="#63b8ff" points="316.34,-165.33 324.81,-158.95 314.22,-158.66 316.34,-165.33"/>
</g>
<!-- Node9&#45;&gt;Node8 -->
<g id="edge14" class="edge">
<title>Node9&#45;&gt;Node8</title>
<path fill="none" stroke="#63b8ff" d="M279.99,-192C288.91,-192 298.2,-192 307.34,-192"/>
<polygon fill="#63b8ff" stroke="#63b8ff" points="307.3,-195.5 317.3,-192 307.3,-188.5 307.3,-195.5"/>
</g>
</g>
</svg>
