<?xml version="1.0" encoding="UTF-8" standalone="no"?>
<!DOCTYPE svg PUBLIC "-//W3C//DTD SVG 1.1//EN"
 "http://www.w3.org/Graphics/SVG/1.1/DTD/svg11.dtd">
<!-- Generated by graphviz version 13.1.2 (20250808.2320)
 -->
<!-- Title: nlohmann::detail::binary_reader::get_ubjson_high_precision_number Pages: 1 -->
<svg width="988pt" height="381pt"
 viewBox="0.00 0.00 988.00 381.00" xmlns="http://www.w3.org/2000/svg" xmlns:xlink="http://www.w3.org/1999/xlink">
<g id="graph0" class="graph" transform="scale(1 1) rotate(0) translate(4 377.19)">
<title>nlohmann::detail::binary_reader::get_ubjson_high_precision_number</title>
<!-- Node1 -->
<g id="node1" class="node">
<title>Node1</title>
<g id="a_node1"><a xlink:title=" ">
<polygon fill="#999999" stroke="#666666" points="124.75,-161 0,-161 0,-117 124.75,-117 124.75,-161"/>
<text xml:space="preserve" text-anchor="start" x="8" y="-147.5" font-family="Helvetica,sans-Serif" font-size="10.00">nlohmann::detail::binary</text>
<text xml:space="preserve" text-anchor="start" x="8" y="-135.5" font-family="Helvetica,sans-Serif" font-size="10.00">_reader::get_ubjson_high</text>
<text xml:space="preserve" text-anchor="middle" x="62.38" y="-123.5" font-family="Helvetica,sans-Serif" font-size="10.00">_precision_number</text>
</a>
</g>
</g>
<!-- Node2 -->
<g id="node2" class="node">
<title>Node2</title>
<g id="a_node2"><a xlink:href="a01563.html#a137ea4d27de45d8a844fd13451d40f3d" target="_top" xlink:title="create a parse error exception">
<polygon fill="white" stroke="#666666" points="797,-340 679.75,-340 679.75,-308 797,-308 797,-340"/>
<text xml:space="preserve" text-anchor="start" x="687.75" y="-326.5" font-family="Helvetica,sans-Serif" font-size="10.00">nlohmann::detail::parse</text>
<text xml:space="preserve" text-anchor="middle" x="738.38" y="-314.5" font-family="Helvetica,sans-Serif" font-size="10.00">_error::create</text>
</a>
</g>
</g>
<!-- Node1&#45;&gt;Node2 -->
<g id="edge1" class="edge">
<title>Node1&#45;&gt;Node2</title>
<path fill="none" stroke="#63b8ff" d="M72.76,-161.41C87.02,-192.6 117.17,-248.56 160.75,-278 336.4,-396.65 421.68,-381.31 631.75,-353 646.69,-350.99 662.51,-347.44 677.23,-343.5"/>
<polygon fill="#63b8ff" stroke="#63b8ff" points="678.09,-346.89 686.78,-340.84 676.21,-340.15 678.09,-346.89"/>
</g>
<!-- Node5 -->
<g id="node5" class="node">
<title>Node5</title>
<g id="a_node5"><a xlink:href="a01995.html#a9c413c9a1bade1ce345740f4d69156f0" target="_top" xlink:title=" ">
<polygon fill="white" stroke="#666666" points="809,-152 667.75,-152 667.75,-120 809,-120 809,-152"/>
<text xml:space="preserve" text-anchor="start" x="675.75" y="-138.5" font-family="Helvetica,sans-Serif" font-size="10.00">nlohmann::detail::binary</text>
<text xml:space="preserve" text-anchor="middle" x="738.38" y="-126.5" font-family="Helvetica,sans-Serif" font-size="10.00">_reader::exception_message</text>
</a>
</g>
</g>
<!-- Node1&#45;&gt;Node5 -->
<g id="edge4" class="edge">
<title>Node1&#45;&gt;Node5</title>
<path fill="none" stroke="#63b8ff" d="M125.23,-134.75C229.67,-128.21 447.63,-117.3 631.75,-126 639.57,-126.37 647.7,-126.89 655.82,-127.51"/>
<polygon fill="#63b8ff" stroke="#63b8ff" points="655.52,-130.99 665.76,-128.31 656.08,-124.01 655.52,-130.99"/>
</g>
<!-- Node6 -->
<g id="node6" class="node">
<title>Node6</title>
<g id="a_node6"><a xlink:href="a01995.html#ad222095c0b21a87824cb10629299629a" target="_top" xlink:title="get next character from the input">
<polygon fill="white" stroke="#666666" points="631.75,-196 512.25,-196 512.25,-164 631.75,-164 631.75,-196"/>
<text xml:space="preserve" text-anchor="start" x="520.25" y="-182.5" font-family="Helvetica,sans-Serif" font-size="10.00">nlohmann::detail::binary</text>
<text xml:space="preserve" text-anchor="middle" x="572" y="-170.5" font-family="Helvetica,sans-Serif" font-size="10.00">_reader::get</text>
</a>
</g>
</g>
<!-- Node1&#45;&gt;Node6 -->
<g id="edge5" class="edge">
<title>Node1&#45;&gt;Node6</title>
<path fill="none" stroke="#63b8ff" d="M124.97,-137.2C206.01,-135.79 352.63,-136.52 476.25,-155 485.91,-156.44 496,-158.5 505.84,-160.81"/>
<polygon fill="#63b8ff" stroke="#63b8ff" points="504.8,-164.16 515.34,-163.16 506.47,-157.36 504.8,-164.16"/>
</g>
<!-- Node7 -->
<g id="node7" class="node">
<title>Node7</title>
<g id="a_node7"><a xlink:href="a01995.html#aba7ba9ec9a52ad2bee8baff70176aa20" target="_top" xlink:title=" ">
<polygon fill="white" stroke="#666666" points="314,-221 160.75,-221 160.75,-189 314,-189 314,-221"/>
<text xml:space="preserve" text-anchor="start" x="168.75" y="-207.5" font-family="Helvetica,sans-Serif" font-size="10.00">nlohmann::detail::binary</text>
<text xml:space="preserve" text-anchor="middle" x="237.38" y="-195.5" font-family="Helvetica,sans-Serif" font-size="10.00">_reader::get_ubjson_size_value</text>
</a>
</g>
</g>
<!-- Node1&#45;&gt;Node7 -->
<g id="edge6" class="edge">
<title>Node1&#45;&gt;Node7</title>
<path fill="none" stroke="#63b8ff" d="M121.94,-161.34C141.54,-168.82 163.27,-177.11 182.49,-184.44"/>
<polygon fill="#63b8ff" stroke="#63b8ff" points="181.18,-187.69 191.77,-187.98 183.67,-181.15 181.18,-187.69"/>
</g>
<!-- Node10 -->
<g id="node10" class="node">
<title>Node10</title>
<g id="a_node10"><a xlink:href="a01995.html#a61a0bd8bbe7b560bd429fa990ba3ba1a" target="_top" xlink:title=" ">
<polygon fill="white" stroke="#666666" points="631.75,-296 512.25,-296 512.25,-264 631.75,-264 631.75,-296"/>
<text xml:space="preserve" text-anchor="start" x="520.25" y="-282.5" font-family="Helvetica,sans-Serif" font-size="10.00">nlohmann::detail::binary</text>
<text xml:space="preserve" text-anchor="middle" x="572" y="-270.5" font-family="Helvetica,sans-Serif" font-size="10.00">_reader::unexpect_eof</text>
</a>
</g>
</g>
<!-- Node1&#45;&gt;Node10 -->
<g id="edge18" class="edge">
<title>Node1&#45;&gt;Node10</title>
<path fill="none" stroke="#63b8ff" d="M82.74,-161.36C101.14,-181.5 130.45,-210.81 160.75,-230 237.19,-278.4 261.13,-288.03 350,-305 405.12,-315.52 420.61,-312.22 476.25,-305 486.41,-303.68 497.03,-301.6 507.34,-299.19"/>
<polygon fill="#63b8ff" stroke="#63b8ff" points="508.02,-302.62 516.89,-296.82 506.34,-295.83 508.02,-302.62"/>
</g>
<!-- Node12 -->
<g id="node12" class="node">
<title>Node12</title>
<g id="a_node12"><a xlink:href="a00477.html#a616a53cc3114fdc113fc44e6af4c3c7f" target="_top" xlink:title=" ">
<polygon fill="white" stroke="#666666" points="294.5,-32 180.25,-32 180.25,0 294.5,0 294.5,-32"/>
<text xml:space="preserve" text-anchor="start" x="188.25" y="-18.5" font-family="Helvetica,sans-Serif" font-size="10.00">nlohmann::detail::input</text>
<text xml:space="preserve" text-anchor="middle" x="237.38" y="-6.5" font-family="Helvetica,sans-Serif" font-size="10.00">_adapter</text>
</a>
</g>
</g>
<!-- Node1&#45;&gt;Node12 -->
<g id="edge17" class="edge">
<title>Node1&#45;&gt;Node12</title>
<path fill="none" stroke="#63b8ff" d="M82.29,-116.52C100.61,-95.91 130.05,-65.68 160.75,-46 165.8,-42.76 171.26,-39.77 176.86,-37.03"/>
<polygon fill="#63b8ff" stroke="#63b8ff" points="177.99,-40.36 185.63,-33.02 175.08,-34 177.99,-40.36"/>
</g>
<!-- Node3 -->
<g id="node3" class="node">
<title>Node3</title>
<g id="a_node3"><a xlink:href="a01559.html#abf41a7e9178356314082284e6cfea278" target="_top" xlink:title=" ">
<polygon fill="white" stroke="#666666" points="980.25,-365 845,-365 845,-333 980.25,-333 980.25,-365"/>
<text xml:space="preserve" text-anchor="start" x="853" y="-351.5" font-family="Helvetica,sans-Serif" font-size="10.00">nlohmann::detail::exception</text>
<text xml:space="preserve" text-anchor="middle" x="912.62" y="-339.5" font-family="Helvetica,sans-Serif" font-size="10.00">::name</text>
</a>
</g>
</g>
<!-- Node2&#45;&gt;Node3 -->
<g id="edge2" class="edge">
<title>Node2&#45;&gt;Node3</title>
<path fill="none" stroke="#63b8ff" d="M797.21,-332.39C808.88,-334.09 821.34,-335.9 833.57,-337.67"/>
<polygon fill="#63b8ff" stroke="#63b8ff" points="832.82,-341.1 843.22,-339.07 833.83,-334.17 832.82,-341.1"/>
</g>
<!-- Node4 -->
<g id="node4" class="node">
<title>Node4</title>
<g id="a_node4"><a xlink:href="a01563.html#aefe74adeaa48781464ba2fd2ec63d221" target="_top" xlink:title=" ">
<polygon fill="white" stroke="#666666" points="971.25,-315 854,-315 854,-283 971.25,-283 971.25,-315"/>
<text xml:space="preserve" text-anchor="start" x="862" y="-301.5" font-family="Helvetica,sans-Serif" font-size="10.00">nlohmann::detail::parse</text>
<text xml:space="preserve" text-anchor="middle" x="912.62" y="-289.5" font-family="Helvetica,sans-Serif" font-size="10.00">_error::position_string</text>
</a>
</g>
</g>
<!-- Node2&#45;&gt;Node4 -->
<g id="edge3" class="edge">
<title>Node2&#45;&gt;Node4</title>
<path fill="none" stroke="#63b8ff" d="M797.21,-315.61C811.7,-313.5 827.38,-311.23 842.36,-309.05"/>
<polygon fill="#63b8ff" stroke="#63b8ff" points="842.76,-312.53 852.15,-307.63 841.75,-305.6 842.76,-312.53"/>
</g>
<!-- Node7&#45;&gt;Node2 -->
<g id="edge7" class="edge">
<title>Node7&#45;&gt;Node2</title>
<path fill="none" stroke="#63b8ff" d="M250.29,-221.11C268.68,-244.53 306.44,-287.11 350,-305 454.33,-347.86 587.99,-342.76 667.92,-334.12"/>
<polygon fill="#63b8ff" stroke="#63b8ff" points="668.27,-337.6 677.81,-333 667.48,-330.65 668.27,-337.6"/>
</g>
<!-- Node7&#45;&gt;Node5 -->
<g id="edge8" class="edge">
<title>Node7&#45;&gt;Node5</title>
<path fill="none" stroke="#63b8ff" d="M267.16,-188.51C289.1,-176.85 320.47,-162.07 350,-155 453.45,-130.22 576.74,-128.79 655.99,-131.33"/>
<polygon fill="#63b8ff" stroke="#63b8ff" points="655.73,-134.82 665.84,-131.67 655.97,-127.82 655.73,-134.82"/>
</g>
<!-- Node8 -->
<g id="node8" class="node">
<title>Node8</title>
<g id="a_node8"><a xlink:href="a01995.html#a252c1179651d22c5343bcf0b538ed26a" target="_top" xlink:title=" ">
<polygon fill="white" stroke="#666666" points="475.88,-196 350.38,-196 350.38,-164 475.88,-164 475.88,-196"/>
<text xml:space="preserve" text-anchor="start" x="358.38" y="-182.5" font-family="Helvetica,sans-Serif" font-size="10.00">nlohmann::detail::binary</text>
<text xml:space="preserve" text-anchor="middle" x="413.12" y="-170.5" font-family="Helvetica,sans-Serif" font-size="10.00">_reader::get_ignore_noop</text>
</a>
</g>
</g>
<!-- Node7&#45;&gt;Node8 -->
<g id="edge9" class="edge">
<title>Node7&#45;&gt;Node8</title>
<path fill="none" stroke="#63b8ff" d="M314.33,-194.07C322.46,-192.9 330.72,-191.71 338.82,-190.55"/>
<polygon fill="#63b8ff" stroke="#63b8ff" points="339.24,-194.02 348.64,-189.14 338.24,-187.1 339.24,-194.02"/>
</g>
<!-- Node9 -->
<g id="node9" class="node">
<title>Node9</title>
<g id="a_node9"><a xlink:href="a01995.html#ac356c6364fe0273d3303fb7a447f4ef6" target="_top" xlink:title=" ">
<polygon fill="white" stroke="#666666" points="472.88,-296 353.38,-296 353.38,-264 472.88,-264 472.88,-296"/>
<text xml:space="preserve" text-anchor="start" x="361.38" y="-282.5" font-family="Helvetica,sans-Serif" font-size="10.00">nlohmann::detail::binary</text>
<text xml:space="preserve" text-anchor="middle" x="413.12" y="-270.5" font-family="Helvetica,sans-Serif" font-size="10.00">_reader::get_number</text>
</a>
</g>
</g>
<!-- Node7&#45;&gt;Node9 -->
<g id="edge11" class="edge">
<title>Node7&#45;&gt;Node9</title>
<path fill="none" stroke="#63b8ff" d="M274.16,-221.45C295.99,-231.38 324.5,-244.16 350,-255 353.32,-256.41 356.74,-257.84 360.2,-259.28"/>
<polygon fill="#63b8ff" stroke="#63b8ff" points="358.62,-262.41 369.2,-262.97 361.27,-255.94 358.62,-262.41"/>
</g>
<!-- Node11 -->
<g id="node11" class="node">
<title>Node11</title>
<g id="a_node11"><a xlink:href="a01995.html#a7d323283c60a0b89ee5eeadf5cb9a5ad" target="_top" xlink:title=" ">
<polygon fill="white" stroke="#666666" points="476.25,-246 350,-246 350,-214 476.25,-214 476.25,-246"/>
<text xml:space="preserve" text-anchor="start" x="358" y="-232.5" font-family="Helvetica,sans-Serif" font-size="10.00">nlohmann::detail::binary</text>
<text xml:space="preserve" text-anchor="middle" x="413.12" y="-220.5" font-family="Helvetica,sans-Serif" font-size="10.00">_reader::get_token_string</text>
</a>
</g>
</g>
<!-- Node7&#45;&gt;Node11 -->
<g id="edge16" class="edge">
<title>Node7&#45;&gt;Node11</title>
<path fill="none" stroke="#63b8ff" d="M314.33,-215.93C322.34,-217.08 330.47,-218.25 338.45,-219.4"/>
<polygon fill="#63b8ff" stroke="#63b8ff" points="337.71,-222.83 348.1,-220.79 338.7,-215.9 337.71,-222.83"/>
</g>
<!-- Node8&#45;&gt;Node6 -->
<g id="edge10" class="edge">
<title>Node8&#45;&gt;Node6</title>
<path fill="none" stroke="#63b8ff" d="M476.13,-180C484.1,-180 492.31,-180 500.41,-180"/>
<polygon fill="#63b8ff" stroke="#63b8ff" points="500.24,-183.5 510.24,-180 500.24,-176.5 500.24,-183.5"/>
</g>
<!-- Node9&#45;&gt;Node6 -->
<g id="edge12" class="edge">
<title>Node9&#45;&gt;Node6</title>
<path fill="none" stroke="#63b8ff" d="M459.31,-263.61C465.14,-260.98 470.92,-258.09 476.25,-255 501.24,-240.49 526.76,-219.88 545.02,-203.94"/>
<polygon fill="#63b8ff" stroke="#63b8ff" points="547.32,-206.57 552.48,-197.32 542.67,-201.34 547.32,-206.57"/>
</g>
<!-- Node9&#45;&gt;Node10 -->
<g id="edge13" class="edge">
<title>Node9&#45;&gt;Node10</title>
<path fill="none" stroke="#63b8ff" d="M472.99,-280C481.91,-280 491.2,-280 500.34,-280"/>
<polygon fill="#63b8ff" stroke="#63b8ff" points="500.3,-283.5 510.3,-280 500.3,-276.5 500.3,-283.5"/>
</g>
<!-- Node10&#45;&gt;Node2 -->
<g id="edge14" class="edge">
<title>Node10&#45;&gt;Node2</title>
<path fill="none" stroke="#63b8ff" d="M631.88,-295.76C643.73,-298.93 656.28,-302.29 668.44,-305.55"/>
<polygon fill="#63b8ff" stroke="#63b8ff" points="667.43,-308.9 678,-308.11 669.24,-302.14 667.43,-308.9"/>
</g>
<!-- Node10&#45;&gt;Node5 -->
<g id="edge15" class="edge">
<title>Node10&#45;&gt;Node5</title>
<path fill="none" stroke="#63b8ff" d="M591.54,-263.76C620.52,-238.37 676.7,-189.15 710.24,-159.77"/>
<polygon fill="#63b8ff" stroke="#63b8ff" points="712.3,-162.62 717.52,-153.4 707.69,-157.35 712.3,-162.62"/>
</g>
</g>
</svg>
