<?xml version="1.0" encoding="UTF-8" standalone="no"?>
<!DOCTYPE svg PUBLIC "-//W3C//DTD SVG 1.1//EN"
 "http://www.w3.org/Graphics/SVG/1.1/DTD/svg11.dtd">
<!-- Generated by graphviz version 13.1.2 (20250808.2320)
 -->
<!-- Title: nlohmann::detail::binary_reader::get_msgpack_array Pages: 1 -->
<svg width="1334pt" height="474pt"
 viewBox="0.00 0.00 1334.00 474.00" xmlns="http://www.w3.org/2000/svg" xmlns:xlink="http://www.w3.org/1999/xlink">
<g id="graph0" class="graph" transform="scale(1 1) rotate(0) translate(4 470)">
<title>nlohmann::detail::binary_reader::get_msgpack_array</title>
<!-- Node1 -->
<g id="node1" class="node">
<title>Node1</title>
<g id="a_node1"><a xlink:title=" ">
<polygon fill="#999999" stroke="#666666" points="139.75,-286 0,-286 0,-254 139.75,-254 139.75,-286"/>
<text xml:space="preserve" text-anchor="start" x="8" y="-272.5" font-family="Helvetica,sans-Serif" font-size="10.00">nlohmann::detail::binary</text>
<text xml:space="preserve" text-anchor="middle" x="69.88" y="-260.5" font-family="Helvetica,sans-Serif" font-size="10.00">_reader::get_msgpack_array</text>
</a>
</g>
</g>
<!-- Node2 -->
<g id="node2" class="node">
<title>Node2</title>
<g id="a_node2"><a xlink:href="a01995.html#ae020385ce9424271d61f85d3842c02cb" target="_top" xlink:title=" ">
<polygon fill="white" stroke="#666666" points="299,-292 175.75,-292 175.75,-248 299,-248 299,-292"/>
<text xml:space="preserve" text-anchor="start" x="183.75" y="-278.5" font-family="Helvetica,sans-Serif" font-size="10.00">nlohmann::detail::binary</text>
<text xml:space="preserve" text-anchor="start" x="183.75" y="-266.5" font-family="Helvetica,sans-Serif" font-size="10.00">_reader::parse_msgpack</text>
<text xml:space="preserve" text-anchor="middle" x="237.38" y="-254.5" font-family="Helvetica,sans-Serif" font-size="10.00">_internal</text>
</a>
</g>
</g>
<!-- Node1&#45;&gt;Node2 -->
<g id="edge1" class="edge">
<title>Node1&#45;&gt;Node2</title>
<path fill="none" stroke="#63b8ff" d="M140.1,-263.33C147.96,-263.24 155.98,-263.22 163.88,-263.3"/>
<polygon fill="#63b8ff" stroke="#63b8ff" points="163.76,-266.79 173.81,-263.44 163.86,-259.8 163.76,-266.79"/>
</g>
<!-- Node2&#45;&gt;Node1 -->
<g id="edge7" class="edge">
<title>Node2&#45;&gt;Node1</title>
<path fill="none" stroke="#63b8ff" d="M175.32,-276.54C167.53,-276.69 159.46,-276.76 151.42,-276.75"/>
<polygon fill="#63b8ff" stroke="#63b8ff" points="151.64,-273.25 141.62,-276.68 151.59,-280.25 151.64,-273.25"/>
</g>
<!-- Node3 -->
<g id="node3" class="node">
<title>Node3</title>
<g id="a_node3"><a xlink:href="a01563.html#a137ea4d27de45d8a844fd13451d40f3d" target="_top" xlink:title="create a parse error exception">
<polygon fill="white" stroke="#666666" points="1142.5,-243 1025.25,-243 1025.25,-211 1142.5,-211 1142.5,-243"/>
<text xml:space="preserve" text-anchor="start" x="1033.25" y="-229.5" font-family="Helvetica,sans-Serif" font-size="10.00">nlohmann::detail::parse</text>
<text xml:space="preserve" text-anchor="middle" x="1083.88" y="-217.5" font-family="Helvetica,sans-Serif" font-size="10.00">_error::create</text>
</a>
</g>
</g>
<!-- Node2&#45;&gt;Node3 -->
<g id="edge2" class="edge">
<title>Node2&#45;&gt;Node3</title>
<path fill="none" stroke="#63b8ff" d="M249.15,-292.14C264.3,-320.92 294.63,-370.72 335,-398 430.9,-462.79 470.64,-466 586.38,-466 586.38,-466 586.38,-466 759.62,-466 865.16,-466 894.84,-436.93 977.25,-371 1018.58,-337.94 1051.75,-284.94 1069.27,-253.29"/>
<polygon fill="#63b8ff" stroke="#63b8ff" points="1072.21,-255.23 1073.89,-244.77 1066.05,-251.9 1072.21,-255.23"/>
</g>
<!-- Node6 -->
<g id="node6" class="node">
<title>Node6</title>
<g id="a_node6"><a xlink:href="a01995.html#a9c413c9a1bade1ce345740f4d69156f0" target="_top" xlink:title=" ">
<polygon fill="white" stroke="#666666" points="1154.5,-142 1013.25,-142 1013.25,-110 1154.5,-110 1154.5,-142"/>
<text xml:space="preserve" text-anchor="start" x="1021.25" y="-128.5" font-family="Helvetica,sans-Serif" font-size="10.00">nlohmann::detail::binary</text>
<text xml:space="preserve" text-anchor="middle" x="1083.88" y="-116.5" font-family="Helvetica,sans-Serif" font-size="10.00">_reader::exception_message</text>
</a>
</g>
</g>
<!-- Node2&#45;&gt;Node6 -->
<g id="edge5" class="edge">
<title>Node2&#45;&gt;Node6</title>
<path fill="none" stroke="#63b8ff" d="M243.78,-247.53C254.42,-208.07 281.81,-126.25 335,-81 424.4,-4.94 469,0 586.38,0 586.38,0 586.38,0 759.62,0 872.13,0 992.55,-67.08 1049.44,-103.35"/>
<polygon fill="#63b8ff" stroke="#63b8ff" points="1047.41,-106.21 1057.71,-108.71 1051.22,-100.33 1047.41,-106.21"/>
</g>
<!-- Node7 -->
<g id="node7" class="node">
<title>Node7</title>
<g id="a_node7"><a xlink:href="a01995.html#ad222095c0b21a87824cb10629299629a" target="_top" xlink:title="get next character from the input">
<polygon fill="white" stroke="#666666" points="977.25,-362 857.75,-362 857.75,-330 977.25,-330 977.25,-362"/>
<text xml:space="preserve" text-anchor="start" x="865.75" y="-348.5" font-family="Helvetica,sans-Serif" font-size="10.00">nlohmann::detail::binary</text>
<text xml:space="preserve" text-anchor="middle" x="917.5" y="-336.5" font-family="Helvetica,sans-Serif" font-size="10.00">_reader::get</text>
</a>
</g>
</g>
<!-- Node2&#45;&gt;Node7 -->
<g id="edge6" class="edge">
<title>Node2&#45;&gt;Node7</title>
<path fill="none" stroke="#63b8ff" d="M255.67,-292.28C273.21,-313.1 302.37,-343.14 335,-358 532.25,-447.83 609.71,-432.89 821.75,-388 841.14,-383.9 861.38,-375.55 878.16,-367.37"/>
<polygon fill="#63b8ff" stroke="#63b8ff" points="879.42,-370.65 886.76,-363.02 876.26,-364.41 879.42,-370.65"/>
</g>
<!-- Node8 -->
<g id="node8" class="node">
<title>Node8</title>
<g id="a_node8"><a xlink:href="a01995.html#a389e550fd397a48121cb82d92bb7475a" target="_top" xlink:title="reads a MessagePack byte array">
<polygon fill="white" stroke="#666666" points="659.5,-312 515.25,-312 515.25,-280 659.5,-280 659.5,-312"/>
<text xml:space="preserve" text-anchor="start" x="523.25" y="-298.5" font-family="Helvetica,sans-Serif" font-size="10.00">nlohmann::detail::binary</text>
<text xml:space="preserve" text-anchor="middle" x="587.38" y="-286.5" font-family="Helvetica,sans-Serif" font-size="10.00">_reader::get_msgpack_binary</text>
</a>
</g>
</g>
<!-- Node2&#45;&gt;Node8 -->
<g id="edge8" class="edge">
<title>Node2&#45;&gt;Node8</title>
<path fill="none" stroke="#63b8ff" d="M299.39,-274.56C356,-278.79 440.73,-285.12 503.46,-289.81"/>
<polygon fill="#63b8ff" stroke="#63b8ff" points="503.16,-293.29 513.4,-290.55 503.68,-286.31 503.16,-293.29"/>
</g>
<!-- Node10 -->
<g id="node10" class="node">
<title>Node10</title>
<g id="a_node10"><a xlink:href="a01995.html#a61a0bd8bbe7b560bd429fa990ba3ba1a" target="_top" xlink:title=" ">
<polygon fill="white" stroke="#666666" points="977.25,-243 857.75,-243 857.75,-211 977.25,-211 977.25,-243"/>
<text xml:space="preserve" text-anchor="start" x="865.75" y="-229.5" font-family="Helvetica,sans-Serif" font-size="10.00">nlohmann::detail::binary</text>
<text xml:space="preserve" text-anchor="middle" x="917.5" y="-217.5" font-family="Helvetica,sans-Serif" font-size="10.00">_reader::unexpect_eof</text>
</a>
</g>
</g>
<!-- Node2&#45;&gt;Node10 -->
<g id="edge32" class="edge">
<title>Node2&#45;&gt;Node10</title>
<path fill="none" stroke="#63b8ff" d="M251.08,-247.58C267.23,-221.1 297.56,-177.57 335,-153 473.63,-62.04 530.88,-76.8 695.5,-57 751.21,-50.3 773.37,-28.58 821.75,-57 874.4,-87.93 899.94,-159.92 910.4,-199.58"/>
<polygon fill="#63b8ff" stroke="#63b8ff" points="906.95,-200.21 912.76,-209.07 913.74,-198.52 906.95,-200.21"/>
</g>
<!-- Node11 -->
<g id="node11" class="node">
<title>Node11</title>
<g id="a_node11"><a xlink:href="a01995.html#ac356c6364fe0273d3303fb7a447f4ef6" target="_top" xlink:title=" ">
<polygon fill="white" stroke="#666666" points="818.38,-312 698.88,-312 698.88,-280 818.38,-280 818.38,-312"/>
<text xml:space="preserve" text-anchor="start" x="706.88" y="-298.5" font-family="Helvetica,sans-Serif" font-size="10.00">nlohmann::detail::binary</text>
<text xml:space="preserve" text-anchor="middle" x="758.62" y="-286.5" font-family="Helvetica,sans-Serif" font-size="10.00">_reader::get_number</text>
</a>
</g>
</g>
<!-- Node2&#45;&gt;Node11 -->
<g id="edge30" class="edge">
<title>Node2&#45;&gt;Node11</title>
<path fill="none" stroke="#63b8ff" d="M299.35,-265.45C381.52,-260.4 532.2,-254.89 659.5,-271 670.11,-272.34 681.23,-274.46 692,-276.91"/>
<polygon fill="#63b8ff" stroke="#63b8ff" points="691.06,-280.28 701.6,-279.21 692.69,-273.48 691.06,-280.28"/>
</g>
<!-- Node12 -->
<g id="node12" class="node">
<title>Node12</title>
<g id="a_node12"><a xlink:href="a01995.html#a8bebd21ceef09b6b2562e87861832700" target="_top" xlink:title=" ">
<polygon fill="white" stroke="#666666" points="479.25,-349 335,-349 335,-317 479.25,-317 479.25,-349"/>
<text xml:space="preserve" text-anchor="start" x="343" y="-335.5" font-family="Helvetica,sans-Serif" font-size="10.00">nlohmann::detail::binary</text>
<text xml:space="preserve" text-anchor="middle" x="407.12" y="-323.5" font-family="Helvetica,sans-Serif" font-size="10.00">_reader::get_msgpack_object</text>
</a>
</g>
</g>
<!-- Node2&#45;&gt;Node12 -->
<g id="edge17" class="edge">
<title>Node2&#45;&gt;Node12</title>
<path fill="none" stroke="#63b8ff" d="M299.41,-286.4C321.54,-294.26 345.97,-303.65 365.86,-312.02"/>
<polygon fill="#63b8ff" stroke="#63b8ff" points="364.45,-315.22 375.02,-315.94 367.21,-308.78 364.45,-315.22"/>
</g>
<!-- Node13 -->
<g id="node13" class="node">
<title>Node13</title>
<g id="a_node13"><a xlink:href="a01995.html#ad8cba5585327caa550dd5b6dd25a64f8" target="_top" xlink:title="reads a MessagePack string">
<polygon fill="white" stroke="#666666" points="658.38,-221 516.38,-221 516.38,-189 658.38,-189 658.38,-221"/>
<text xml:space="preserve" text-anchor="start" x="524.38" y="-207.5" font-family="Helvetica,sans-Serif" font-size="10.00">nlohmann::detail::binary</text>
<text xml:space="preserve" text-anchor="middle" x="587.38" y="-195.5" font-family="Helvetica,sans-Serif" font-size="10.00">_reader::get_msgpack_string</text>
</a>
</g>
</g>
<!-- Node2&#45;&gt;Node13 -->
<g id="edge29" class="edge">
<title>Node2&#45;&gt;Node13</title>
<path fill="none" stroke="#63b8ff" d="M297.88,-247.58C310.03,-243.59 322.83,-239.82 335,-237 390.96,-224.02 455.24,-215.96 504.78,-211.17"/>
<polygon fill="#63b8ff" stroke="#63b8ff" points="504.95,-214.67 514.57,-210.25 504.29,-207.7 504.95,-214.67"/>
</g>
<!-- Node15 -->
<g id="node15" class="node">
<title>Node15</title>
<g id="a_node15"><a xlink:href="a01995.html#a7d323283c60a0b89ee5eeadf5cb9a5ad" target="_top" xlink:title=" ">
<polygon fill="white" stroke="#666666" points="821.75,-98 695.5,-98 695.5,-66 821.75,-66 821.75,-98"/>
<text xml:space="preserve" text-anchor="start" x="703.5" y="-84.5" font-family="Helvetica,sans-Serif" font-size="10.00">nlohmann::detail::binary</text>
<text xml:space="preserve" text-anchor="middle" x="758.62" y="-72.5" font-family="Helvetica,sans-Serif" font-size="10.00">_reader::get_token_string</text>
</a>
</g>
</g>
<!-- Node2&#45;&gt;Node15 -->
<g id="edge31" class="edge">
<title>Node2&#45;&gt;Node15</title>
<path fill="none" stroke="#63b8ff" d="M269.85,-247.52C288.19,-235.18 312.15,-220.34 335,-210 452.6,-156.79 598.32,-118.2 684.31,-98.02"/>
<polygon fill="#63b8ff" stroke="#63b8ff" points="684.84,-101.49 693.79,-95.82 683.25,-94.67 684.84,-101.49"/>
</g>
<!-- Node4 -->
<g id="node4" class="node">
<title>Node4</title>
<g id="a_node4"><a xlink:href="a01559.html#abf41a7e9178356314082284e6cfea278" target="_top" xlink:title=" ">
<polygon fill="white" stroke="#666666" points="1325.75,-268 1190.5,-268 1190.5,-236 1325.75,-236 1325.75,-268"/>
<text xml:space="preserve" text-anchor="start" x="1198.5" y="-254.5" font-family="Helvetica,sans-Serif" font-size="10.00">nlohmann::detail::exception</text>
<text xml:space="preserve" text-anchor="middle" x="1258.12" y="-242.5" font-family="Helvetica,sans-Serif" font-size="10.00">::name</text>
</a>
</g>
</g>
<!-- Node3&#45;&gt;Node4 -->
<g id="edge3" class="edge">
<title>Node3&#45;&gt;Node4</title>
<path fill="none" stroke="#63b8ff" d="M1142.71,-235.39C1154.38,-237.09 1166.84,-238.9 1179.07,-240.67"/>
<polygon fill="#63b8ff" stroke="#63b8ff" points="1178.32,-244.1 1188.72,-242.07 1179.33,-237.17 1178.32,-244.1"/>
</g>
<!-- Node5 -->
<g id="node5" class="node">
<title>Node5</title>
<g id="a_node5"><a xlink:href="a01563.html#aefe74adeaa48781464ba2fd2ec63d221" target="_top" xlink:title=" ">
<polygon fill="white" stroke="#666666" points="1316.75,-218 1199.5,-218 1199.5,-186 1316.75,-186 1316.75,-218"/>
<text xml:space="preserve" text-anchor="start" x="1207.5" y="-204.5" font-family="Helvetica,sans-Serif" font-size="10.00">nlohmann::detail::parse</text>
<text xml:space="preserve" text-anchor="middle" x="1258.12" y="-192.5" font-family="Helvetica,sans-Serif" font-size="10.00">_error::position_string</text>
</a>
</g>
</g>
<!-- Node3&#45;&gt;Node5 -->
<g id="edge4" class="edge">
<title>Node3&#45;&gt;Node5</title>
<path fill="none" stroke="#63b8ff" d="M1142.71,-218.61C1157.2,-216.5 1172.88,-214.23 1187.86,-212.05"/>
<polygon fill="#63b8ff" stroke="#63b8ff" points="1188.26,-215.53 1197.65,-210.63 1187.25,-208.6 1188.26,-215.53"/>
</g>
<!-- Node9 -->
<g id="node9" class="node">
<title>Node9</title>
<g id="a_node9"><a xlink:href="a01995.html#a55e13d567a53234573ab3833c0ca32e9" target="_top" xlink:title="create a byte array by reading bytes from the input">
<polygon fill="white" stroke="#666666" points="818.38,-362 698.88,-362 698.88,-330 818.38,-330 818.38,-362"/>
<text xml:space="preserve" text-anchor="start" x="706.88" y="-348.5" font-family="Helvetica,sans-Serif" font-size="10.00">nlohmann::detail::binary</text>
<text xml:space="preserve" text-anchor="middle" x="758.62" y="-336.5" font-family="Helvetica,sans-Serif" font-size="10.00">_reader::get_binary</text>
</a>
</g>
</g>
<!-- Node8&#45;&gt;Node9 -->
<g id="edge9" class="edge">
<title>Node8&#45;&gt;Node9</title>
<path fill="none" stroke="#63b8ff" d="M643.79,-312.37C658.91,-316.84 675.45,-321.72 691.11,-326.35"/>
<polygon fill="#63b8ff" stroke="#63b8ff" points="689.76,-329.6 700.34,-329.08 691.74,-322.89 689.76,-329.6"/>
</g>
<!-- Node8&#45;&gt;Node11 -->
<g id="edge14" class="edge">
<title>Node8&#45;&gt;Node11</title>
<path fill="none" stroke="#63b8ff" d="M659.66,-296C668.75,-296 678.04,-296 687.11,-296"/>
<polygon fill="#63b8ff" stroke="#63b8ff" points="686.94,-299.5 696.94,-296 686.94,-292.5 686.94,-299.5"/>
</g>
<!-- Node9&#45;&gt;Node7 -->
<g id="edge10" class="edge">
<title>Node9&#45;&gt;Node7</title>
<path fill="none" stroke="#63b8ff" d="M818.49,-346C827.41,-346 836.7,-346 845.84,-346"/>
<polygon fill="#63b8ff" stroke="#63b8ff" points="845.8,-349.5 855.8,-346 845.8,-342.5 845.8,-349.5"/>
</g>
<!-- Node9&#45;&gt;Node10 -->
<g id="edge11" class="edge">
<title>Node9&#45;&gt;Node10</title>
<path fill="none" stroke="#63b8ff" d="M806.46,-329.54C811.78,-326.98 816.99,-324.13 821.75,-321 850.92,-301.8 878.58,-272.64 896.4,-251.89"/>
<polygon fill="#63b8ff" stroke="#63b8ff" points="898.9,-254.35 902.66,-244.44 893.55,-249.84 898.9,-254.35"/>
</g>
<!-- Node10&#45;&gt;Node3 -->
<g id="edge12" class="edge">
<title>Node10&#45;&gt;Node3</title>
<path fill="none" stroke="#63b8ff" d="M977.38,-227C989.11,-227 1001.53,-227 1013.57,-227"/>
<polygon fill="#63b8ff" stroke="#63b8ff" points="1013.45,-230.5 1023.45,-227 1013.45,-223.5 1013.45,-230.5"/>
</g>
<!-- Node10&#45;&gt;Node6 -->
<g id="edge13" class="edge">
<title>Node10&#45;&gt;Node6</title>
<path fill="none" stroke="#63b8ff" d="M945.28,-210.55C972.86,-193.6 1016.02,-167.08 1046.65,-148.26"/>
<polygon fill="#63b8ff" stroke="#63b8ff" points="1048.13,-151.45 1054.82,-143.24 1044.47,-145.49 1048.13,-151.45"/>
</g>
<!-- Node11&#45;&gt;Node7 -->
<g id="edge15" class="edge">
<title>Node11&#45;&gt;Node7</title>
<path fill="none" stroke="#63b8ff" d="M810.99,-312.37C824.73,-316.75 839.74,-321.54 854.01,-326.08"/>
<polygon fill="#63b8ff" stroke="#63b8ff" points="852.72,-329.34 863.31,-329.05 854.84,-322.67 852.72,-329.34"/>
</g>
<!-- Node11&#45;&gt;Node10 -->
<g id="edge16" class="edge">
<title>Node11&#45;&gt;Node10</title>
<path fill="none" stroke="#63b8ff" d="M801.19,-279.62C808.08,-276.81 815.14,-273.86 821.75,-271 838.41,-263.79 856.52,-255.49 872.41,-248.06"/>
<polygon fill="#63b8ff" stroke="#63b8ff" points="873.56,-251.38 881.12,-243.96 870.58,-245.05 873.56,-251.38"/>
</g>
<!-- Node12&#45;&gt;Node2 -->
<g id="edge28" class="edge">
<title>Node12&#45;&gt;Node2</title>
<path fill="none" stroke="#63b8ff" d="M345.03,-316.58C327.74,-310.44 309.05,-303.36 292.22,-296.57"/>
<polygon fill="#63b8ff" stroke="#63b8ff" points="293.99,-293.52 283.41,-292.97 291.34,-299.99 293.99,-293.52"/>
</g>
<!-- Node12&#45;&gt;Node7 -->
<g id="edge18" class="edge">
<title>Node12&#45;&gt;Node7</title>
<path fill="none" stroke="#63b8ff" d="M479.67,-349.13C562.27,-365.54 702.14,-386.51 821.75,-371 831.91,-369.68 842.53,-367.6 852.84,-365.19"/>
<polygon fill="#63b8ff" stroke="#63b8ff" points="853.52,-368.62 862.39,-362.82 851.84,-361.83 853.52,-368.62"/>
</g>
<!-- Node12&#45;&gt;Node13 -->
<g id="edge19" class="edge">
<title>Node12&#45;&gt;Node13</title>
<path fill="none" stroke="#63b8ff" d="M431.06,-316.53C462.48,-293.97 519.04,-253.35 554.54,-227.86"/>
<polygon fill="#63b8ff" stroke="#63b8ff" points="556.21,-230.97 562.3,-222.29 552.13,-225.28 556.21,-230.97"/>
</g>
<!-- Node13&#45;&gt;Node3 -->
<g id="edge20" class="edge">
<title>Node13&#45;&gt;Node3</title>
<path fill="none" stroke="#63b8ff" d="M658.56,-199.26C736.65,-194.08 866.43,-189.06 977.25,-202 989.22,-203.4 1001.79,-205.66 1013.93,-208.26"/>
<polygon fill="#63b8ff" stroke="#63b8ff" points="1012.92,-211.62 1023.44,-210.4 1014.45,-204.79 1012.92,-211.62"/>
</g>
<!-- Node13&#45;&gt;Node6 -->
<g id="edge21" class="edge">
<title>Node13&#45;&gt;Node6</title>
<path fill="none" stroke="#63b8ff" d="M658.7,-193.77C749.15,-179.32 905.93,-154.27 1001.46,-139.01"/>
<polygon fill="#63b8ff" stroke="#63b8ff" points="1001.98,-142.47 1011.3,-137.43 1000.87,-135.56 1001.98,-142.47"/>
</g>
<!-- Node13&#45;&gt;Node10 -->
<g id="edge27" class="edge">
<title>Node13&#45;&gt;Node10</title>
<path fill="none" stroke="#63b8ff" d="M658.77,-209.72C714.06,-213.43 790.69,-218.56 846.01,-222.27"/>
<polygon fill="#63b8ff" stroke="#63b8ff" points="845.75,-225.76 855.96,-222.94 846.22,-218.78 845.75,-225.76"/>
</g>
<!-- Node13&#45;&gt;Node11 -->
<g id="edge22" class="edge">
<title>Node13&#45;&gt;Node11</title>
<path fill="none" stroke="#63b8ff" d="M630.99,-221.38C640.69,-225.86 650.72,-231.13 659.5,-237 677.79,-249.24 676.97,-259.13 695.5,-271 697.34,-272.18 699.24,-273.31 701.18,-274.41"/>
<polygon fill="#63b8ff" stroke="#63b8ff" points="699.36,-277.41 709.85,-278.89 702.57,-271.19 699.36,-277.41"/>
</g>
<!-- Node14 -->
<g id="node14" class="node">
<title>Node14</title>
<g id="a_node14"><a xlink:href="a01995.html#a540919db22df36512f05a88945c13263" target="_top" xlink:title="create a string by reading characters from the input">
<polygon fill="white" stroke="#666666" points="818.38,-262 698.88,-262 698.88,-230 818.38,-230 818.38,-262"/>
<text xml:space="preserve" text-anchor="start" x="706.88" y="-248.5" font-family="Helvetica,sans-Serif" font-size="10.00">nlohmann::detail::binary</text>
<text xml:space="preserve" text-anchor="middle" x="758.62" y="-236.5" font-family="Helvetica,sans-Serif" font-size="10.00">_reader::get_string</text>
</a>
</g>
</g>
<!-- Node13&#45;&gt;Node14 -->
<g id="edge23" class="edge">
<title>Node13&#45;&gt;Node14</title>
<path fill="none" stroke="#63b8ff" d="M656.24,-221.44C666.51,-223.93 677.11,-226.5 687.43,-229"/>
<polygon fill="#63b8ff" stroke="#63b8ff" points="686.46,-232.36 697,-231.31 688.11,-225.56 686.46,-232.36"/>
</g>
<!-- Node13&#45;&gt;Node15 -->
<g id="edge26" class="edge">
<title>Node13&#45;&gt;Node15</title>
<path fill="none" stroke="#63b8ff" d="M604.33,-188.71C624.35,-168.88 660.33,-135.16 695.5,-112 699.95,-109.07 704.74,-106.25 709.6,-103.59"/>
<polygon fill="#63b8ff" stroke="#63b8ff" points="711.02,-106.79 718.28,-99.07 707.79,-100.58 711.02,-106.79"/>
</g>
<!-- Node14&#45;&gt;Node7 -->
<g id="edge24" class="edge">
<title>Node14&#45;&gt;Node7</title>
<path fill="none" stroke="#63b8ff" d="M804.81,-262.39C810.64,-265.02 816.42,-267.91 821.75,-271 846.74,-285.51 872.26,-306.12 890.52,-322.06"/>
<polygon fill="#63b8ff" stroke="#63b8ff" points="888.17,-324.66 897.98,-328.68 892.82,-319.43 888.17,-324.66"/>
</g>
<!-- Node14&#45;&gt;Node10 -->
<g id="edge25" class="edge">
<title>Node14&#45;&gt;Node10</title>
<path fill="none" stroke="#63b8ff" d="M818.49,-238.87C827.51,-237.78 836.9,-236.64 846.15,-235.52"/>
<polygon fill="#63b8ff" stroke="#63b8ff" points="846.3,-239.03 855.81,-234.35 845.46,-232.08 846.3,-239.03"/>
</g>
</g>
</svg>
