<?xml version="1.0" encoding="UTF-8" standalone="no"?>
<!DOCTYPE svg PUBLIC "-//W3C//DTD SVG 1.1//EN"
 "http://www.w3.org/Graphics/SVG/1.1/DTD/svg11.dtd">
<!-- Generated by graphviz version 13.1.2 (20250808.2320)
 -->
<!-- Title: nlohmann::detail::binary_reader::get_binary Pages: 1 -->
<svg width="1312pt" height="382pt"
 viewBox="0.00 0.00 1312.00 382.00" xmlns="http://www.w3.org/2000/svg" xmlns:xlink="http://www.w3.org/1999/xlink">
<g id="graph0" class="graph" transform="scale(1 1) rotate(0) translate(4 378)">
<title>nlohmann::detail::binary_reader::get_binary</title>
<!-- Node1 -->
<g id="node1" class="node">
<title>Node1</title>
<g id="a_node1"><a xlink:title="create a byte array by reading bytes from the input">
<polygon fill="#999999" stroke="#666666" points="1304,-220 1184.5,-220 1184.5,-188 1304,-188 1304,-220"/>
<text xml:space="preserve" text-anchor="start" x="1192.5" y="-206.5" font-family="Helvetica,sans-Serif" font-size="10.00">nlohmann::detail::binary</text>
<text xml:space="preserve" text-anchor="middle" x="1244.25" y="-194.5" font-family="Helvetica,sans-Serif" font-size="10.00">_reader::get_binary</text>
</a>
</g>
</g>
<!-- Node2 -->
<g id="node2" class="node">
<title>Node2</title>
<g id="a_node2"><a xlink:href="a01995.html#a9940f56290b9278c58772eda2931e599" target="_top" xlink:title="Parses a byte array input of length len from the BSON input.">
<polygon fill="white" stroke="#666666" points="1139.12,-295 1013.62,-295 1013.62,-263 1139.12,-263 1139.12,-295"/>
<text xml:space="preserve" text-anchor="start" x="1021.62" y="-281.5" font-family="Helvetica,sans-Serif" font-size="10.00">nlohmann::detail::binary</text>
<text xml:space="preserve" text-anchor="middle" x="1076.38" y="-269.5" font-family="Helvetica,sans-Serif" font-size="10.00">_reader::get_bson_binary</text>
</a>
</g>
</g>
<!-- Node1&#45;&gt;Node2 -->
<g id="edge1" class="edge">
<title>Node1&#45;&gt;Node2</title>
<path fill="none" stroke="#63b8ff" d="M1196.94,-225.05C1181.53,-232.05 1164.28,-239.87 1148.5,-247 1137.27,-252.07 1125.04,-257.58 1113.93,-262.58"/>
<polygon fill="#63b8ff" stroke="#63b8ff" points="1198.23,-228.31 1205.89,-220.99 1195.34,-221.94 1198.23,-228.31"/>
</g>
<!-- Node17 -->
<g id="node17" class="node">
<title>Node17</title>
<g id="a_node17"><a xlink:href="a01995.html#acb001d18095dc5bcf7336ae5122b8340" target="_top" xlink:title="reads a CBOR byte array">
<polygon fill="white" stroke="#666666" points="1138,-220 1014.75,-220 1014.75,-188 1138,-188 1138,-220"/>
<text xml:space="preserve" text-anchor="start" x="1022.75" y="-206.5" font-family="Helvetica,sans-Serif" font-size="10.00">nlohmann::detail::binary</text>
<text xml:space="preserve" text-anchor="middle" x="1076.38" y="-194.5" font-family="Helvetica,sans-Serif" font-size="10.00">_reader::get_cbor_binary</text>
</a>
</g>
</g>
<!-- Node1&#45;&gt;Node17 -->
<g id="edge18" class="edge">
<title>Node1&#45;&gt;Node17</title>
<path fill="none" stroke="#63b8ff" d="M1172.95,-204C1161.45,-204 1149.62,-204 1138.38,-204"/>
<polygon fill="#63b8ff" stroke="#63b8ff" points="1172.79,-207.5 1182.79,-204 1172.79,-200.5 1172.79,-207.5"/>
</g>
<!-- Node21 -->
<g id="node21" class="node">
<title>Node21</title>
<g id="a_node21"><a xlink:href="a01995.html#a389e550fd397a48121cb82d92bb7475a" target="_top" xlink:title="reads a MessagePack byte array">
<polygon fill="white" stroke="#666666" points="1148.5,-126 1004.25,-126 1004.25,-94 1148.5,-94 1148.5,-126"/>
<text xml:space="preserve" text-anchor="start" x="1012.25" y="-112.5" font-family="Helvetica,sans-Serif" font-size="10.00">nlohmann::detail::binary</text>
<text xml:space="preserve" text-anchor="middle" x="1076.38" y="-100.5" font-family="Helvetica,sans-Serif" font-size="10.00">_reader::get_msgpack_binary</text>
</a>
</g>
</g>
<!-- Node1&#45;&gt;Node21 -->
<g id="edge27" class="edge">
<title>Node1&#45;&gt;Node21</title>
<path fill="none" stroke="#63b8ff" d="M1204.62,-182.11C1174.54,-165.06 1133.47,-141.79 1106.21,-126.34"/>
<polygon fill="#63b8ff" stroke="#63b8ff" points="1202.61,-184.99 1213.04,-186.88 1206.07,-178.9 1202.61,-184.99"/>
</g>
<!-- Node3 -->
<g id="node3" class="node">
<title>Node3</title>
<g id="a_node3"><a xlink:href="a01995.html#a23bde2450d7a5772bf5051e36ff560a4" target="_top" xlink:title="Read a BSON document element of the given element_type.">
<polygon fill="white" stroke="#666666" points="968.25,-330 824,-330 824,-286 968.25,-286 968.25,-330"/>
<text xml:space="preserve" text-anchor="start" x="832" y="-316.5" font-family="Helvetica,sans-Serif" font-size="10.00">nlohmann::detail::binary</text>
<text xml:space="preserve" text-anchor="start" x="832" y="-304.5" font-family="Helvetica,sans-Serif" font-size="10.00">_reader::parse_bson_element</text>
<text xml:space="preserve" text-anchor="middle" x="896.12" y="-292.5" font-family="Helvetica,sans-Serif" font-size="10.00">_internal</text>
</a>
</g>
</g>
<!-- Node2&#45;&gt;Node3 -->
<g id="edge2" class="edge">
<title>Node2&#45;&gt;Node3</title>
<path fill="none" stroke="#63b8ff" d="M1002.5,-290.86C991.32,-292.67 979.79,-294.55 968.65,-296.36"/>
<polygon fill="#63b8ff" stroke="#63b8ff" points="1002.73,-294.36 1012.04,-289.3 1001.61,-287.46 1002.73,-294.36"/>
</g>
<!-- Node4 -->
<g id="node4" class="node">
<title>Node4</title>
<g id="a_node4"><a xlink:href="a01995.html#a4e07b75ccb2579d0e738b894f0fd8cf8" target="_top" xlink:title="Read a BSON element list (as specified in the BSON&#45;spec)">
<polygon fill="white" stroke="#666666" points="788,-346 625.75,-346 625.75,-314 788,-314 788,-346"/>
<text xml:space="preserve" text-anchor="start" x="633.75" y="-332.5" font-family="Helvetica,sans-Serif" font-size="10.00">nlohmann::detail::binary</text>
<text xml:space="preserve" text-anchor="middle" x="706.88" y="-320.5" font-family="Helvetica,sans-Serif" font-size="10.00">_reader::parse_bson_element_list</text>
</a>
</g>
</g>
<!-- Node3&#45;&gt;Node4 -->
<g id="edge3" class="edge">
<title>Node3&#45;&gt;Node4</title>
<path fill="none" stroke="#63b8ff" d="M812.13,-317.75C804.27,-318.67 796.32,-319.61 788.49,-320.53"/>
<polygon fill="#63b8ff" stroke="#63b8ff" points="812.51,-321.23 822.03,-316.59 811.69,-314.28 812.51,-321.23"/>
</g>
<!-- Node5 -->
<g id="node5" class="node">
<title>Node5</title>
<g id="a_node5"><a xlink:href="a01995.html#a23eb89a222e22533e9fd43e76722f44f" target="_top" xlink:title="Reads an array from the BSON input and passes it to the SAX&#45;parser.">
<polygon fill="white" stroke="#666666" points="584.88,-374 453.38,-374 453.38,-342 584.88,-342 584.88,-374"/>
<text xml:space="preserve" text-anchor="start" x="461.38" y="-360.5" font-family="Helvetica,sans-Serif" font-size="10.00">nlohmann::detail::binary</text>
<text xml:space="preserve" text-anchor="middle" x="519.12" y="-348.5" font-family="Helvetica,sans-Serif" font-size="10.00">_reader::parse_bson_array</text>
</a>
</g>
</g>
<!-- Node4&#45;&gt;Node5 -->
<g id="edge4" class="edge">
<title>Node4&#45;&gt;Node5</title>
<path fill="none" stroke="#63b8ff" d="M614.41,-343.79C604.57,-345.27 594.71,-346.76 585.27,-348.18"/>
<polygon fill="#63b8ff" stroke="#63b8ff" points="614.62,-347.3 623.99,-342.34 613.58,-340.37 614.62,-347.3"/>
</g>
<!-- Node6 -->
<g id="node6" class="node">
<title>Node6</title>
<g id="a_node6"><a xlink:href="a01995.html#abf2051ba57d9ea9b378a2e7c14e22b34" target="_top" xlink:title="Reads in a BSON&#45;object and passes it to the SAX&#45;parser.">
<polygon fill="white" stroke="#666666" points="589.75,-308 448.5,-308 448.5,-276 589.75,-276 589.75,-308"/>
<text xml:space="preserve" text-anchor="start" x="456.5" y="-294.5" font-family="Helvetica,sans-Serif" font-size="10.00">nlohmann::detail::binary</text>
<text xml:space="preserve" text-anchor="middle" x="519.12" y="-282.5" font-family="Helvetica,sans-Serif" font-size="10.00">_reader::parse_bson_internal</text>
</a>
</g>
</g>
<!-- Node4&#45;&gt;Node6 -->
<g id="edge6" class="edge">
<title>Node4&#45;&gt;Node6</title>
<path fill="none" stroke="#63b8ff" d="M614.4,-311.29C606.24,-309.62 598.07,-307.95 590.14,-306.32"/>
<polygon fill="#63b8ff" stroke="#63b8ff" points="613.5,-314.67 624,-313.25 614.9,-307.82 613.5,-314.67"/>
</g>
<!-- Node5&#45;&gt;Node3 -->
<g id="edge5" class="edge">
<title>Node5&#45;&gt;Node3</title>
<path fill="none" stroke="#63b8ff" d="M596.57,-365.19C650.66,-368.33 724.54,-368.68 788,-355 810.93,-350.06 834.98,-340.01 854.46,-330.46"/>
<polygon fill="#63b8ff" stroke="#63b8ff" points="597.05,-361.71 586.85,-364.58 596.61,-368.7 597.05,-361.71"/>
</g>
<!-- Node6&#45;&gt;Node3 -->
<g id="edge7" class="edge">
<title>Node6&#45;&gt;Node3</title>
<path fill="none" stroke="#63b8ff" d="M601.23,-295.46C667.48,-298.29 760.23,-302.24 823.71,-304.95"/>
<polygon fill="#63b8ff" stroke="#63b8ff" points="601.66,-291.98 591.52,-295.05 601.36,-298.97 601.66,-291.98"/>
</g>
<!-- Node7 -->
<g id="node7" class="node">
<title>Node7</title>
<g id="a_node7"><a xlink:href="a01995.html#ab4afd9ee276bbb15a0f898061aad94dd" target="_top" xlink:title=" ">
<polygon fill="white" stroke="#666666" points="412.5,-264 293,-264 293,-232 412.5,-232 412.5,-264"/>
<text xml:space="preserve" text-anchor="start" x="301" y="-250.5" font-family="Helvetica,sans-Serif" font-size="10.00">nlohmann::detail::binary</text>
<text xml:space="preserve" text-anchor="middle" x="352.75" y="-238.5" font-family="Helvetica,sans-Serif" font-size="10.00">_reader::sax_parse</text>
</a>
</g>
</g>
<!-- Node6&#45;&gt;Node7 -->
<g id="edge8" class="edge">
<title>Node6&#45;&gt;Node7</title>
<path fill="none" stroke="#63b8ff" d="M445.96,-272.68C434.89,-269.72 423.57,-266.69 412.82,-263.81"/>
<polygon fill="#63b8ff" stroke="#63b8ff" points="444.89,-276.02 455.46,-275.22 446.7,-269.26 444.89,-276.02"/>
</g>
<!-- Node8 -->
<g id="node8" class="node">
<title>Node8</title>
<g id="a_node8"><a xlink:href="a01659.html#a4e02793f2691aa29ab7cb69fddafbf5c" target="_top" xlink:title="Create a JSON value from an input in BSON format.">
<polygon fill="white" stroke="#666666" points="257,-364 146.5,-364 146.5,-332 257,-332 257,-364"/>
<text xml:space="preserve" text-anchor="start" x="154.5" y="-350.5" font-family="Helvetica,sans-Serif" font-size="10.00">nlohmann::basic_json</text>
<text xml:space="preserve" text-anchor="middle" x="201.75" y="-338.5" font-family="Helvetica,sans-Serif" font-size="10.00">::from_bson</text>
</a>
</g>
</g>
<!-- Node7&#45;&gt;Node8 -->
<g id="edge9" class="edge">
<title>Node7&#45;&gt;Node8</title>
<path fill="none" stroke="#63b8ff" d="M325.19,-271.85C306.86,-287.58 281.47,-307.97 257,-323 252.05,-326.04 246.67,-328.94 241.29,-331.63"/>
<polygon fill="#63b8ff" stroke="#63b8ff" points="327.45,-274.52 332.7,-265.31 322.85,-269.24 327.45,-274.52"/>
</g>
<!-- Node10 -->
<g id="node10" class="node">
<title>Node10</title>
<g id="a_node10"><a xlink:href="a01659.html#a44dd5635fb2da4710f6cd6e42b72773f" target="_top" xlink:title="create a JSON value from an input in CBOR format">
<polygon fill="white" stroke="#666666" points="257,-314 146.5,-314 146.5,-282 257,-282 257,-314"/>
<text xml:space="preserve" text-anchor="start" x="154.5" y="-300.5" font-family="Helvetica,sans-Serif" font-size="10.00">nlohmann::basic_json</text>
<text xml:space="preserve" text-anchor="middle" x="201.75" y="-288.5" font-family="Helvetica,sans-Serif" font-size="10.00">::from_cbor</text>
</a>
</g>
</g>
<!-- Node7&#45;&gt;Node10 -->
<g id="edge11" class="edge">
<title>Node7&#45;&gt;Node10</title>
<path fill="none" stroke="#63b8ff" d="M292.38,-267.92C278.96,-272.43 264.85,-277.16 251.9,-281.51"/>
<polygon fill="#63b8ff" stroke="#63b8ff" points="293.16,-271.35 301.53,-264.85 290.93,-264.72 293.16,-271.35"/>
</g>
<!-- Node12 -->
<g id="node12" class="node">
<title>Node12</title>
<g id="a_node12"><a xlink:href="a01659.html#adbcab52fca1e25b3311ef14e71a57590" target="_top" xlink:title="create a JSON value from an input in MessagePack format">
<polygon fill="white" stroke="#666666" points="257,-264 146.5,-264 146.5,-232 257,-232 257,-264"/>
<text xml:space="preserve" text-anchor="start" x="154.5" y="-250.5" font-family="Helvetica,sans-Serif" font-size="10.00">nlohmann::basic_json</text>
<text xml:space="preserve" text-anchor="middle" x="201.75" y="-238.5" font-family="Helvetica,sans-Serif" font-size="10.00">::from_msgpack</text>
</a>
</g>
</g>
<!-- Node7&#45;&gt;Node12 -->
<g id="edge13" class="edge">
<title>Node7&#45;&gt;Node12</title>
<path fill="none" stroke="#63b8ff" d="M281.48,-248C273.37,-248 265.19,-248 257.33,-248"/>
<polygon fill="#63b8ff" stroke="#63b8ff" points="281.35,-251.5 291.35,-248 281.35,-244.5 281.35,-251.5"/>
</g>
<!-- Node14 -->
<g id="node14" class="node">
<title>Node14</title>
<g id="a_node14"><a xlink:href="a01659.html#aa81f62db69978b90ff701f05c72e03a7" target="_top" xlink:title="create a JSON value from an input in UBJSON format">
<polygon fill="white" stroke="#666666" points="257,-214 146.5,-214 146.5,-182 257,-182 257,-214"/>
<text xml:space="preserve" text-anchor="start" x="154.5" y="-200.5" font-family="Helvetica,sans-Serif" font-size="10.00">nlohmann::basic_json</text>
<text xml:space="preserve" text-anchor="middle" x="201.75" y="-188.5" font-family="Helvetica,sans-Serif" font-size="10.00">::from_ubjson</text>
</a>
</g>
</g>
<!-- Node7&#45;&gt;Node14 -->
<g id="edge15" class="edge">
<title>Node7&#45;&gt;Node14</title>
<path fill="none" stroke="#63b8ff" d="M292.38,-228.08C278.96,-223.57 264.85,-218.84 251.9,-214.49"/>
<polygon fill="#63b8ff" stroke="#63b8ff" points="290.93,-231.28 301.53,-231.15 293.16,-224.65 290.93,-231.28"/>
</g>
<!-- Node16 -->
<g id="node16" class="node">
<title>Node16</title>
<g id="a_node16"><a xlink:href="a01659.html#a12b382c6407da5543827ce4b24bb5008" target="_top" xlink:title="generate SAX events">
<polygon fill="white" stroke="#666666" points="257,-164 146.5,-164 146.5,-132 257,-132 257,-164"/>
<text xml:space="preserve" text-anchor="start" x="154.5" y="-150.5" font-family="Helvetica,sans-Serif" font-size="10.00">nlohmann::basic_json</text>
<text xml:space="preserve" text-anchor="middle" x="201.75" y="-138.5" font-family="Helvetica,sans-Serif" font-size="10.00">::sax_parse</text>
</a>
</g>
</g>
<!-- Node7&#45;&gt;Node16 -->
<g id="edge17" class="edge">
<title>Node7&#45;&gt;Node16</title>
<path fill="none" stroke="#63b8ff" d="M325.19,-224.15C306.86,-208.42 281.47,-188.03 257,-173 252.05,-169.96 246.67,-167.06 241.29,-164.37"/>
<polygon fill="#63b8ff" stroke="#63b8ff" points="322.85,-226.76 332.7,-230.69 327.45,-221.48 322.85,-226.76"/>
</g>
<!-- Node9 -->
<g id="node9" class="node">
<title>Node9</title>
<g id="a_node9"><a xlink:href="a01659.html#ae2612581e4788ddffc2f45d5e4cc04fc" target="_top" xlink:title=" ">
<polygon fill="white" stroke="#666666" points="110.5,-364 0,-364 0,-332 110.5,-332 110.5,-364"/>
<text xml:space="preserve" text-anchor="start" x="8" y="-350.5" font-family="Helvetica,sans-Serif" font-size="10.00">nlohmann::basic_json</text>
<text xml:space="preserve" text-anchor="middle" x="55.25" y="-338.5" font-family="Helvetica,sans-Serif" font-size="10.00">::from_bson</text>
</a>
</g>
</g>
<!-- Node8&#45;&gt;Node9 -->
<g id="edge10" class="edge">
<title>Node8&#45;&gt;Node9</title>
<path fill="none" stroke="#63b8ff" d="M134.63,-348C126.71,-348 118.69,-348 110.96,-348"/>
<polygon fill="#63b8ff" stroke="#63b8ff" points="134.61,-351.5 144.61,-348 134.61,-344.5 134.61,-351.5"/>
</g>
<!-- Node11 -->
<g id="node11" class="node">
<title>Node11</title>
<g id="a_node11"><a xlink:href="a01659.html#a188755c8cda27e2afb03c016c14125d8" target="_top" xlink:title=" ">
<polygon fill="white" stroke="#666666" points="110.5,-314 0,-314 0,-282 110.5,-282 110.5,-314"/>
<text xml:space="preserve" text-anchor="start" x="8" y="-300.5" font-family="Helvetica,sans-Serif" font-size="10.00">nlohmann::basic_json</text>
<text xml:space="preserve" text-anchor="middle" x="55.25" y="-288.5" font-family="Helvetica,sans-Serif" font-size="10.00">::from_cbor</text>
</a>
</g>
</g>
<!-- Node10&#45;&gt;Node11 -->
<g id="edge12" class="edge">
<title>Node10&#45;&gt;Node11</title>
<path fill="none" stroke="#63b8ff" d="M134.63,-298C126.71,-298 118.69,-298 110.96,-298"/>
<polygon fill="#63b8ff" stroke="#63b8ff" points="134.61,-301.5 144.61,-298 134.61,-294.5 134.61,-301.5"/>
</g>
<!-- Node13 -->
<g id="node13" class="node">
<title>Node13</title>
<g id="a_node13"><a xlink:href="a01659.html#a0d69d3102639759d5202a6f764760d23" target="_top" xlink:title=" ">
<polygon fill="white" stroke="#666666" points="110.5,-264 0,-264 0,-232 110.5,-232 110.5,-264"/>
<text xml:space="preserve" text-anchor="start" x="8" y="-250.5" font-family="Helvetica,sans-Serif" font-size="10.00">nlohmann::basic_json</text>
<text xml:space="preserve" text-anchor="middle" x="55.25" y="-238.5" font-family="Helvetica,sans-Serif" font-size="10.00">::from_msgpack</text>
</a>
</g>
</g>
<!-- Node12&#45;&gt;Node13 -->
<g id="edge14" class="edge">
<title>Node12&#45;&gt;Node13</title>
<path fill="none" stroke="#63b8ff" d="M134.63,-248C126.71,-248 118.69,-248 110.96,-248"/>
<polygon fill="#63b8ff" stroke="#63b8ff" points="134.61,-251.5 144.61,-248 134.61,-244.5 134.61,-251.5"/>
</g>
<!-- Node15 -->
<g id="node15" class="node">
<title>Node15</title>
<g id="a_node15"><a xlink:href="a01659.html#ab6eeda23c34cee79d8d72f1a8691a8de" target="_top" xlink:title=" ">
<polygon fill="white" stroke="#666666" points="110.5,-214 0,-214 0,-182 110.5,-182 110.5,-214"/>
<text xml:space="preserve" text-anchor="start" x="8" y="-200.5" font-family="Helvetica,sans-Serif" font-size="10.00">nlohmann::basic_json</text>
<text xml:space="preserve" text-anchor="middle" x="55.25" y="-188.5" font-family="Helvetica,sans-Serif" font-size="10.00">::from_ubjson</text>
</a>
</g>
</g>
<!-- Node14&#45;&gt;Node15 -->
<g id="edge16" class="edge">
<title>Node14&#45;&gt;Node15</title>
<path fill="none" stroke="#63b8ff" d="M134.63,-198C126.71,-198 118.69,-198 110.96,-198"/>
<polygon fill="#63b8ff" stroke="#63b8ff" points="134.61,-201.5 144.61,-198 134.61,-194.5 134.61,-201.5"/>
</g>
<!-- Node17&#45;&gt;Node17 -->
<g id="edge19" class="edge">
<title>Node17&#45;&gt;Node17</title>
<path fill="none" stroke="#63b8ff" d="M1104.35,-231.71C1099.69,-235.48 1090.36,-238 1076.38,-238 1050.8,-238 1040.81,-229.58 1046.4,-220.44"/>
<polygon fill="#63b8ff" stroke="#63b8ff" points="1107.78,-232.39 1106.08,-221.93 1100.89,-231.17 1107.78,-232.39"/>
</g>
<!-- Node18 -->
<g id="node18" class="node">
<title>Node18</title>
<g id="a_node18"><a xlink:href="a01995.html#a4e4accd5a2a41bfb2f18a8a0fcc9421c" target="_top" xlink:title=" ">
<polygon fill="white" stroke="#666666" points="965.62,-220 826.62,-220 826.62,-188 965.62,-188 965.62,-220"/>
<text xml:space="preserve" text-anchor="start" x="834.62" y="-206.5" font-family="Helvetica,sans-Serif" font-size="10.00">nlohmann::detail::binary</text>
<text xml:space="preserve" text-anchor="middle" x="896.12" y="-194.5" font-family="Helvetica,sans-Serif" font-size="10.00">_reader::parse_cbor_internal</text>
</a>
</g>
</g>
<!-- Node17&#45;&gt;Node18 -->
<g id="edge20" class="edge">
<title>Node17&#45;&gt;Node18</title>
<path fill="none" stroke="#63b8ff" d="M1003.35,-204C991.01,-204 978.22,-204 965.96,-204"/>
<polygon fill="#63b8ff" stroke="#63b8ff" points="1003.02,-207.5 1013.02,-204 1003.02,-200.5 1003.02,-207.5"/>
</g>
<!-- Node18&#45;&gt;Node7 -->
<g id="edge26" class="edge">
<title>Node18&#45;&gt;Node7</title>
<path fill="none" stroke="#63b8ff" d="M822.56,-222.84C811.06,-225.28 799.26,-227.45 788,-229 654.74,-247.3 496.52,-249.33 412.71,-248.87"/>
<polygon fill="#63b8ff" stroke="#63b8ff" points="822.97,-226.34 831.98,-220.77 821.46,-219.5 822.97,-226.34"/>
</g>
<!-- Node18&#45;&gt;Node18 -->
<g id="edge25" class="edge">
<title>Node18&#45;&gt;Node18</title>
<path fill="none" stroke="#63b8ff" d="M926.16,-231.71C921.15,-235.48 911.14,-238 896.12,-238 868.67,-238 857.94,-229.58 863.95,-220.44"/>
<polygon fill="#63b8ff" stroke="#63b8ff" points="929.59,-232.41 928.02,-221.93 922.72,-231.1 929.59,-232.41"/>
</g>
<!-- Node19 -->
<g id="node19" class="node">
<title>Node19</title>
<g id="a_node19"><a xlink:href="a01995.html#a3750658328bf3ec3cf23f1626f9ec3af" target="_top" xlink:title=" ">
<polygon fill="white" stroke="#666666" points="766.62,-220 647.12,-220 647.12,-188 766.62,-188 766.62,-220"/>
<text xml:space="preserve" text-anchor="start" x="655.12" y="-206.5" font-family="Helvetica,sans-Serif" font-size="10.00">nlohmann::detail::binary</text>
<text xml:space="preserve" text-anchor="middle" x="706.88" y="-194.5" font-family="Helvetica,sans-Serif" font-size="10.00">_reader::get_cbor_array</text>
</a>
</g>
</g>
<!-- Node18&#45;&gt;Node19 -->
<g id="edge21" class="edge">
<title>Node18&#45;&gt;Node19</title>
<path fill="none" stroke="#63b8ff" d="M814.69,-197.31C798.71,-197.16 782.22,-197.28 767.11,-197.67"/>
<polygon fill="#63b8ff" stroke="#63b8ff" points="814.64,-200.81 824.68,-197.44 814.73,-193.81 814.64,-200.81"/>
</g>
<!-- Node20 -->
<g id="node20" class="node">
<title>Node20</title>
<g id="a_node20"><a xlink:href="a01995.html#a47092a2195bf9cd3cdb4dda67cc404ed" target="_top" xlink:title=" ">
<polygon fill="white" stroke="#666666" points="768.5,-170 645.25,-170 645.25,-138 768.5,-138 768.5,-170"/>
<text xml:space="preserve" text-anchor="start" x="653.25" y="-156.5" font-family="Helvetica,sans-Serif" font-size="10.00">nlohmann::detail::binary</text>
<text xml:space="preserve" text-anchor="middle" x="706.88" y="-144.5" font-family="Helvetica,sans-Serif" font-size="10.00">_reader::get_cbor_object</text>
</a>
</g>
</g>
<!-- Node18&#45;&gt;Node20 -->
<g id="edge23" class="edge">
<title>Node18&#45;&gt;Node20</title>
<path fill="none" stroke="#63b8ff" d="M843.97,-184.25C820.81,-177.29 793.24,-169.84 768.99,-163.95"/>
<polygon fill="#63b8ff" stroke="#63b8ff" points="842.92,-187.59 853.51,-187.17 844.97,-180.9 842.92,-187.59"/>
</g>
<!-- Node19&#45;&gt;Node18 -->
<g id="edge22" class="edge">
<title>Node19&#45;&gt;Node18</title>
<path fill="none" stroke="#63b8ff" d="M778.33,-210.56C794,-210.82 810.59,-210.81 826.2,-210.54"/>
<polygon fill="#63b8ff" stroke="#63b8ff" points="778.69,-207.07 768.62,-210.36 778.54,-214.07 778.69,-207.07"/>
</g>
<!-- Node20&#45;&gt;Node18 -->
<g id="edge24" class="edge">
<title>Node20&#45;&gt;Node18</title>
<path fill="none" stroke="#63b8ff" d="M759.15,-173.79C779.83,-179.99 804.01,-186.6 826.2,-192.13"/>
<polygon fill="#63b8ff" stroke="#63b8ff" points="760.4,-170.51 749.81,-170.93 758.35,-177.2 760.4,-170.51"/>
</g>
<!-- Node22 -->
<g id="node22" class="node">
<title>Node22</title>
<g id="a_node22"><a xlink:href="a01995.html#ae020385ce9424271d61f85d3842c02cb" target="_top" xlink:title=" ">
<polygon fill="white" stroke="#666666" points="957.75,-88 834.5,-88 834.5,-44 957.75,-44 957.75,-88"/>
<text xml:space="preserve" text-anchor="start" x="842.5" y="-74.5" font-family="Helvetica,sans-Serif" font-size="10.00">nlohmann::detail::binary</text>
<text xml:space="preserve" text-anchor="start" x="842.5" y="-62.5" font-family="Helvetica,sans-Serif" font-size="10.00">_reader::parse_msgpack</text>
<text xml:space="preserve" text-anchor="middle" x="896.12" y="-50.5" font-family="Helvetica,sans-Serif" font-size="10.00">_internal</text>
</a>
</g>
</g>
<!-- Node21&#45;&gt;Node22 -->
<g id="edge28" class="edge">
<title>Node21&#45;&gt;Node22</title>
<path fill="none" stroke="#63b8ff" d="M997.71,-90.83C984.45,-87.55 970.84,-84.2 958.08,-81.05"/>
<polygon fill="#63b8ff" stroke="#63b8ff" points="996.73,-94.19 1007.28,-93.19 998.41,-87.4 996.73,-94.19"/>
</g>
<!-- Node22&#45;&gt;Node7 -->
<g id="edge33" class="edge">
<title>Node22&#45;&gt;Node7</title>
<path fill="none" stroke="#63b8ff" d="M823.09,-82.81C743.7,-101.33 626.95,-128.6 625.75,-129 536.49,-158.69 436.26,-206.52 386.07,-231.55"/>
<polygon fill="#63b8ff" stroke="#63b8ff" points="823.61,-86.28 832.55,-80.6 822.02,-79.46 823.61,-86.28"/>
</g>
<!-- Node23 -->
<g id="node23" class="node">
<title>Node23</title>
<g id="a_node23"><a xlink:href="a01995.html#a0ce1d7066597952efb008aaf578b2bd6" target="_top" xlink:title=" ">
<polygon fill="white" stroke="#666666" points="776.75,-82 637,-82 637,-50 776.75,-50 776.75,-82"/>
<text xml:space="preserve" text-anchor="start" x="645" y="-68.5" font-family="Helvetica,sans-Serif" font-size="10.00">nlohmann::detail::binary</text>
<text xml:space="preserve" text-anchor="middle" x="706.88" y="-56.5" font-family="Helvetica,sans-Serif" font-size="10.00">_reader::get_msgpack_array</text>
</a>
</g>
</g>
<!-- Node22&#45;&gt;Node23 -->
<g id="edge29" class="edge">
<title>Node22&#45;&gt;Node23</title>
<path fill="none" stroke="#63b8ff" d="M822.74,-59.41C807.7,-59.18 791.88,-59.2 776.96,-59.46"/>
<polygon fill="#63b8ff" stroke="#63b8ff" points="822.49,-62.9 832.56,-59.6 822.63,-55.9 822.49,-62.9"/>
</g>
<!-- Node24 -->
<g id="node24" class="node">
<title>Node24</title>
<g id="a_node24"><a xlink:href="a01995.html#a8bebd21ceef09b6b2562e87861832700" target="_top" xlink:title=" ">
<polygon fill="white" stroke="#666666" points="779,-32 634.75,-32 634.75,0 779,0 779,-32"/>
<text xml:space="preserve" text-anchor="start" x="642.75" y="-18.5" font-family="Helvetica,sans-Serif" font-size="10.00">nlohmann::detail::binary</text>
<text xml:space="preserve" text-anchor="middle" x="706.88" y="-6.5" font-family="Helvetica,sans-Serif" font-size="10.00">_reader::get_msgpack_object</text>
</a>
</g>
</g>
<!-- Node22&#45;&gt;Node24 -->
<g id="edge31" class="edge">
<title>Node22&#45;&gt;Node24</title>
<path fill="none" stroke="#63b8ff" d="M823.9,-40.41C809.35,-36.29 794.04,-32.2 779.48,-28.54"/>
<polygon fill="#63b8ff" stroke="#63b8ff" points="822.81,-43.74 833.39,-43.13 824.75,-37.01 822.81,-43.74"/>
</g>
<!-- Node23&#45;&gt;Node22 -->
<g id="edge30" class="edge">
<title>Node23&#45;&gt;Node22</title>
<path fill="none" stroke="#63b8ff" d="M788.07,-72.69C803.48,-72.83 819.39,-72.73 834.07,-72.37"/>
<polygon fill="#63b8ff" stroke="#63b8ff" points="788.52,-69.19 778.47,-72.56 788.42,-76.19 788.52,-69.19"/>
</g>
<!-- Node24&#45;&gt;Node22 -->
<g id="edge32" class="edge">
<title>Node24&#45;&gt;Node22</title>
<path fill="none" stroke="#63b8ff" d="M759.17,-35.79C782.32,-42.74 809.86,-50.19 834.07,-56.07"/>
<polygon fill="#63b8ff" stroke="#63b8ff" points="760.22,-32.45 749.63,-32.87 758.17,-39.15 760.22,-32.45"/>
</g>
</g>
</svg>
