<?xml version="1.0" encoding="UTF-8" standalone="no"?>
<!DOCTYPE svg PUBLIC "-//W3C//DTD SVG 1.1//EN"
 "http://www.w3.org/Graphics/SVG/1.1/DTD/svg11.dtd">
<!-- Generated by graphviz version 13.1.2 (20250808.2320)
 -->
<!-- Title: nlohmann::detail::binary_reader::get_cbor_binary Pages: 1 -->
<svg width="798pt" height="282pt"
 viewBox="0.00 0.00 798.00 282.00" xmlns="http://www.w3.org/2000/svg" xmlns:xlink="http://www.w3.org/1999/xlink">
<g id="graph0" class="graph" transform="scale(1 1) rotate(0) translate(4 278)">
<title>nlohmann::detail::binary_reader::get_cbor_binary</title>
<!-- Node1 -->
<g id="node1" class="node">
<title>Node1</title>
<g id="a_node1"><a xlink:title="reads a CBOR byte array">
<polygon fill="#999999" stroke="#666666" points="123.25,-158 0,-158 0,-126 123.25,-126 123.25,-158"/>
<text xml:space="preserve" text-anchor="start" x="8" y="-144.5" font-family="Helvetica,sans-Serif" font-size="10.00">nlohmann::detail::binary</text>
<text xml:space="preserve" text-anchor="middle" x="61.62" y="-132.5" font-family="Helvetica,sans-Serif" font-size="10.00">_reader::get_cbor_binary</text>
</a>
</g>
</g>
<!-- Node1&#45;&gt;Node1 -->
<g id="edge11" class="edge">
<title>Node1&#45;&gt;Node1</title>
<path fill="none" stroke="#63b8ff" d="M32.93,-158.44C27.57,-167.58 37.14,-176 61.62,-176 75.02,-176 83.95,-173.48 88.41,-169.71"/>
<polygon fill="#63b8ff" stroke="#63b8ff" points="91.85,-170.38 90.07,-159.93 84.95,-169.21 91.85,-170.38"/>
</g>
<!-- Node2 -->
<g id="node2" class="node">
<title>Node2</title>
<g id="a_node2"><a xlink:href="a01563.html#a137ea4d27de45d8a844fd13451d40f3d" target="_top" xlink:title="create a parse error exception">
<polygon fill="white" stroke="#666666" points="606.25,-249 489,-249 489,-217 606.25,-217 606.25,-249"/>
<text xml:space="preserve" text-anchor="start" x="497" y="-235.5" font-family="Helvetica,sans-Serif" font-size="10.00">nlohmann::detail::parse</text>
<text xml:space="preserve" text-anchor="middle" x="547.62" y="-223.5" font-family="Helvetica,sans-Serif" font-size="10.00">_error::create</text>
</a>
</g>
</g>
<!-- Node1&#45;&gt;Node2 -->
<g id="edge1" class="edge">
<title>Node1&#45;&gt;Node2</title>
<path fill="none" stroke="#63b8ff" d="M73.32,-158.5C89.02,-181 120.65,-220.32 159.25,-236 263.84,-278.48 397.82,-263.96 477.68,-248.93"/>
<polygon fill="#63b8ff" stroke="#63b8ff" points="477.94,-252.45 487.09,-247.1 476.61,-245.57 477.94,-252.45"/>
</g>
<!-- Node5 -->
<g id="node5" class="node">
<title>Node5</title>
<g id="a_node5"><a xlink:href="a01995.html#a9c413c9a1bade1ce345740f4d69156f0" target="_top" xlink:title=" ">
<polygon fill="white" stroke="#666666" points="618.25,-158 477,-158 477,-126 618.25,-126 618.25,-158"/>
<text xml:space="preserve" text-anchor="start" x="485" y="-144.5" font-family="Helvetica,sans-Serif" font-size="10.00">nlohmann::detail::binary</text>
<text xml:space="preserve" text-anchor="middle" x="547.62" y="-132.5" font-family="Helvetica,sans-Serif" font-size="10.00">_reader::exception_message</text>
</a>
</g>
</g>
<!-- Node1&#45;&gt;Node5 -->
<g id="edge4" class="edge">
<title>Node1&#45;&gt;Node5</title>
<path fill="none" stroke="#63b8ff" d="M99.93,-125.55C117.54,-118.65 139.09,-111.44 159.25,-108 282.75,-86.91 317.03,-98.88 441,-117 451.77,-118.57 463.05,-120.71 474.07,-123.07"/>
<polygon fill="#63b8ff" stroke="#63b8ff" points="472.98,-126.42 483.5,-125.17 474.5,-119.58 472.98,-126.42"/>
</g>
<!-- Node6 -->
<g id="node6" class="node">
<title>Node6</title>
<g id="a_node6"><a xlink:href="a01995.html#ad222095c0b21a87824cb10629299629a" target="_top" xlink:title="get next character from the input">
<polygon fill="white" stroke="#666666" points="441,-158 321.5,-158 321.5,-126 441,-126 441,-158"/>
<text xml:space="preserve" text-anchor="start" x="329.5" y="-144.5" font-family="Helvetica,sans-Serif" font-size="10.00">nlohmann::detail::binary</text>
<text xml:space="preserve" text-anchor="middle" x="381.25" y="-132.5" font-family="Helvetica,sans-Serif" font-size="10.00">_reader::get</text>
</a>
</g>
</g>
<!-- Node1&#45;&gt;Node6 -->
<g id="edge5" class="edge">
<title>Node1&#45;&gt;Node6</title>
<path fill="none" stroke="#63b8ff" d="M116.33,-125.54C130.18,-122 145.16,-118.79 159.25,-117 214.91,-109.92 229.86,-109.78 285.5,-117 295.66,-118.32 306.28,-120.4 316.59,-122.81"/>
<polygon fill="#63b8ff" stroke="#63b8ff" points="315.59,-126.17 326.14,-125.18 317.27,-119.38 315.59,-126.17"/>
</g>
<!-- Node7 -->
<g id="node7" class="node">
<title>Node7</title>
<g id="a_node7"><a xlink:href="a01995.html#a55e13d567a53234573ab3833c0ca32e9" target="_top" xlink:title="create a byte array by reading bytes from the input">
<polygon fill="white" stroke="#666666" points="282.12,-158 162.62,-158 162.62,-126 282.12,-126 282.12,-158"/>
<text xml:space="preserve" text-anchor="start" x="170.62" y="-144.5" font-family="Helvetica,sans-Serif" font-size="10.00">nlohmann::detail::binary</text>
<text xml:space="preserve" text-anchor="middle" x="222.38" y="-132.5" font-family="Helvetica,sans-Serif" font-size="10.00">_reader::get_binary</text>
</a>
</g>
</g>
<!-- Node1&#45;&gt;Node7 -->
<g id="edge6" class="edge">
<title>Node1&#45;&gt;Node7</title>
<path fill="none" stroke="#63b8ff" d="M123.55,-142C132.46,-142 141.71,-142 150.79,-142"/>
<polygon fill="#63b8ff" stroke="#63b8ff" points="150.67,-145.5 160.67,-142 150.67,-138.5 150.67,-145.5"/>
</g>
<!-- Node8 -->
<g id="node8" class="node">
<title>Node8</title>
<g id="a_node8"><a xlink:href="a01995.html#a61a0bd8bbe7b560bd429fa990ba3ba1a" target="_top" xlink:title=" ">
<polygon fill="white" stroke="#666666" points="441,-208 321.5,-208 321.5,-176 441,-176 441,-208"/>
<text xml:space="preserve" text-anchor="start" x="329.5" y="-194.5" font-family="Helvetica,sans-Serif" font-size="10.00">nlohmann::detail::binary</text>
<text xml:space="preserve" text-anchor="middle" x="381.25" y="-182.5" font-family="Helvetica,sans-Serif" font-size="10.00">_reader::unexpect_eof</text>
</a>
</g>
</g>
<!-- Node1&#45;&gt;Node8 -->
<g id="edge16" class="edge">
<title>Node1&#45;&gt;Node8</title>
<path fill="none" stroke="#63b8ff" d="M77.06,-158.4C94.43,-176.75 125.5,-205.44 159.25,-217 213.08,-235.44 278.16,-224.37 323.7,-211.65"/>
<polygon fill="#63b8ff" stroke="#63b8ff" points="324.48,-215.07 333.1,-208.91 322.52,-208.35 324.48,-215.07"/>
</g>
<!-- Node9 -->
<g id="node9" class="node">
<title>Node9</title>
<g id="a_node9"><a xlink:href="a01995.html#ac356c6364fe0273d3303fb7a447f4ef6" target="_top" xlink:title=" ">
<polygon fill="white" stroke="#666666" points="282.12,-208 162.62,-208 162.62,-176 282.12,-176 282.12,-208"/>
<text xml:space="preserve" text-anchor="start" x="170.62" y="-194.5" font-family="Helvetica,sans-Serif" font-size="10.00">nlohmann::detail::binary</text>
<text xml:space="preserve" text-anchor="middle" x="222.38" y="-182.5" font-family="Helvetica,sans-Serif" font-size="10.00">_reader::get_number</text>
</a>
</g>
</g>
<!-- Node1&#45;&gt;Node9 -->
<g id="edge12" class="edge">
<title>Node1&#45;&gt;Node9</title>
<path fill="none" stroke="#63b8ff" d="M114.61,-158.37C128.51,-162.75 143.7,-167.54 158.14,-172.08"/>
<polygon fill="#63b8ff" stroke="#63b8ff" points="156.97,-175.39 167.56,-175.05 159.08,-168.71 156.97,-175.39"/>
</g>
<!-- Node10 -->
<g id="node10" class="node">
<title>Node10</title>
<g id="a_node10"><a xlink:href="a01995.html#a7d323283c60a0b89ee5eeadf5cb9a5ad" target="_top" xlink:title=" ">
<polygon fill="white" stroke="#666666" points="285.5,-32 159.25,-32 159.25,0 285.5,0 285.5,-32"/>
<text xml:space="preserve" text-anchor="start" x="167.25" y="-18.5" font-family="Helvetica,sans-Serif" font-size="10.00">nlohmann::detail::binary</text>
<text xml:space="preserve" text-anchor="middle" x="222.38" y="-6.5" font-family="Helvetica,sans-Serif" font-size="10.00">_reader::get_token_string</text>
</a>
</g>
</g>
<!-- Node1&#45;&gt;Node10 -->
<g id="edge15" class="edge">
<title>Node1&#45;&gt;Node10</title>
<path fill="none" stroke="#63b8ff" d="M75.98,-125.72C93.47,-105.17 125.86,-69.64 159.25,-46 163.32,-43.12 167.71,-40.38 172.2,-37.82"/>
<polygon fill="#63b8ff" stroke="#63b8ff" points="173.64,-41.02 180.8,-33.21 170.34,-34.85 173.64,-41.02"/>
</g>
<!-- Node3 -->
<g id="node3" class="node">
<title>Node3</title>
<g id="a_node3"><a xlink:href="a01559.html#abf41a7e9178356314082284e6cfea278" target="_top" xlink:title=" ">
<polygon fill="white" stroke="#666666" points="789.5,-274 654.25,-274 654.25,-242 789.5,-242 789.5,-274"/>
<text xml:space="preserve" text-anchor="start" x="662.25" y="-260.5" font-family="Helvetica,sans-Serif" font-size="10.00">nlohmann::detail::exception</text>
<text xml:space="preserve" text-anchor="middle" x="721.88" y="-248.5" font-family="Helvetica,sans-Serif" font-size="10.00">::name</text>
</a>
</g>
</g>
<!-- Node2&#45;&gt;Node3 -->
<g id="edge2" class="edge">
<title>Node2&#45;&gt;Node3</title>
<path fill="none" stroke="#63b8ff" d="M606.46,-241.39C618.13,-243.09 630.59,-244.9 642.82,-246.67"/>
<polygon fill="#63b8ff" stroke="#63b8ff" points="642.07,-250.1 652.47,-248.07 643.08,-243.17 642.07,-250.1"/>
</g>
<!-- Node4 -->
<g id="node4" class="node">
<title>Node4</title>
<g id="a_node4"><a xlink:href="a01563.html#aefe74adeaa48781464ba2fd2ec63d221" target="_top" xlink:title=" ">
<polygon fill="white" stroke="#666666" points="780.5,-224 663.25,-224 663.25,-192 780.5,-192 780.5,-224"/>
<text xml:space="preserve" text-anchor="start" x="671.25" y="-210.5" font-family="Helvetica,sans-Serif" font-size="10.00">nlohmann::detail::parse</text>
<text xml:space="preserve" text-anchor="middle" x="721.88" y="-198.5" font-family="Helvetica,sans-Serif" font-size="10.00">_error::position_string</text>
</a>
</g>
</g>
<!-- Node2&#45;&gt;Node4 -->
<g id="edge3" class="edge">
<title>Node2&#45;&gt;Node4</title>
<path fill="none" stroke="#63b8ff" d="M606.46,-224.61C620.95,-222.5 636.63,-220.23 651.61,-218.05"/>
<polygon fill="#63b8ff" stroke="#63b8ff" points="652.01,-221.53 661.4,-216.63 651,-214.6 652.01,-221.53"/>
</g>
<!-- Node7&#45;&gt;Node6 -->
<g id="edge7" class="edge">
<title>Node7&#45;&gt;Node6</title>
<path fill="none" stroke="#63b8ff" d="M282.24,-142C291.16,-142 300.45,-142 309.59,-142"/>
<polygon fill="#63b8ff" stroke="#63b8ff" points="309.55,-145.5 319.55,-142 309.55,-138.5 309.55,-145.5"/>
</g>
<!-- Node7&#45;&gt;Node8 -->
<g id="edge8" class="edge">
<title>Node7&#45;&gt;Node8</title>
<path fill="none" stroke="#63b8ff" d="M274.74,-158.37C288.48,-162.75 303.49,-167.54 317.76,-172.08"/>
<polygon fill="#63b8ff" stroke="#63b8ff" points="316.47,-175.34 327.06,-175.05 318.59,-168.67 316.47,-175.34"/>
</g>
<!-- Node8&#45;&gt;Node2 -->
<g id="edge9" class="edge">
<title>Node8&#45;&gt;Node2</title>
<path fill="none" stroke="#63b8ff" d="M441.13,-206.69C452.98,-209.64 465.53,-212.77 477.69,-215.81"/>
<polygon fill="#63b8ff" stroke="#63b8ff" points="476.69,-219.16 487.24,-218.19 478.38,-212.37 476.69,-219.16"/>
</g>
<!-- Node8&#45;&gt;Node5 -->
<g id="edge10" class="edge">
<title>Node8&#45;&gt;Node5</title>
<path fill="none" stroke="#63b8ff" d="M436.07,-175.63C450.61,-171.2 466.51,-166.37 481.59,-161.78"/>
<polygon fill="#63b8ff" stroke="#63b8ff" points="482.4,-165.19 490.95,-158.93 480.37,-158.5 482.4,-165.19"/>
</g>
<!-- Node9&#45;&gt;Node6 -->
<g id="edge13" class="edge">
<title>Node9&#45;&gt;Node6</title>
<path fill="none" stroke="#63b8ff" d="M274.74,-175.63C288.48,-171.25 303.49,-166.46 317.76,-161.92"/>
<polygon fill="#63b8ff" stroke="#63b8ff" points="318.59,-165.33 327.06,-158.95 316.47,-158.66 318.59,-165.33"/>
</g>
<!-- Node9&#45;&gt;Node8 -->
<g id="edge14" class="edge">
<title>Node9&#45;&gt;Node8</title>
<path fill="none" stroke="#63b8ff" d="M282.24,-192C291.16,-192 300.45,-192 309.59,-192"/>
<polygon fill="#63b8ff" stroke="#63b8ff" points="309.55,-195.5 319.55,-192 309.55,-188.5 309.55,-195.5"/>
</g>
</g>
</svg>
