<?xml version="1.0" encoding="UTF-8" standalone="no"?>
<!DOCTYPE svg PUBLIC "-//W3C//DTD SVG 1.1//EN"
 "http://www.w3.org/Graphics/SVG/1.1/DTD/svg11.dtd">
<!-- Generated by graphviz version 13.1.2 (20250808.2320)
 -->
<!-- Title: nlohmann::detail::parser::get_token Pages: 1 -->
<svg width="597pt" height="153pt"
 viewBox="0.00 0.00 597.00 153.00" xmlns="http://www.w3.org/2000/svg" xmlns:xlink="http://www.w3.org/1999/xlink">
<g id="graph0" class="graph" transform="scale(1 1) rotate(0) translate(4 149)">
<title>nlohmann::detail::parser::get_token</title>
<!-- Node1 -->
<g id="node1" class="node">
<title>Node1</title>
<g id="a_node1"><a xlink:title="get next token from lexer">
<polygon fill="#999999" stroke="#666666" points="589,-79 468.75,-79 468.75,-47 589,-47 589,-79"/>
<text xml:space="preserve" text-anchor="start" x="476.75" y="-65.5" font-family="Helvetica,sans-Serif" font-size="10.00">nlohmann::detail::parser</text>
<text xml:space="preserve" text-anchor="middle" x="528.88" y="-53.5" font-family="Helvetica,sans-Serif" font-size="10.00">::get_token</text>
</a>
</g>
</g>
<!-- Node2 -->
<g id="node2" class="node">
<title>Node2</title>
<g id="a_node2"><a xlink:href="a01999.html#a33b852bf63cba58310d9c0d1242cfb12" target="_top" xlink:title="a parser reading from an input adapter">
<polygon fill="white" stroke="#666666" points="432.75,-145 312.5,-145 312.5,-113 432.75,-113 432.75,-145"/>
<text xml:space="preserve" text-anchor="start" x="320.5" y="-131.5" font-family="Helvetica,sans-Serif" font-size="10.00">nlohmann::detail::parser</text>
<text xml:space="preserve" text-anchor="middle" x="372.62" y="-119.5" font-family="Helvetica,sans-Serif" font-size="10.00">::parser</text>
</a>
</g>
</g>
<!-- Node1&#45;&gt;Node2 -->
<g id="edge1" class="edge">
<title>Node1&#45;&gt;Node2</title>
<path fill="none" stroke="#63b8ff" d="M479.02,-83.9C457.35,-93.18 432.21,-103.93 411.93,-112.61"/>
<polygon fill="#63b8ff" stroke="#63b8ff" points="480.14,-87.23 487.96,-80.08 477.39,-80.8 480.14,-87.23"/>
</g>
<!-- Node3 -->
<g id="node3" class="node">
<title>Node3</title>
<g id="a_node3"><a xlink:href="a01999.html#a75fb9145ea85f1ad9cc14f61981e1111" target="_top" xlink:title="public parser interface">
<polygon fill="white" stroke="#666666" points="276.5,-91 156.25,-91 156.25,-59 276.5,-59 276.5,-91"/>
<text xml:space="preserve" text-anchor="start" x="164.25" y="-77.5" font-family="Helvetica,sans-Serif" font-size="10.00">nlohmann::detail::parser</text>
<text xml:space="preserve" text-anchor="middle" x="216.38" y="-65.5" font-family="Helvetica,sans-Serif" font-size="10.00">::parse</text>
</a>
</g>
</g>
<!-- Node1&#45;&gt;Node3 -->
<g id="edge2" class="edge">
<title>Node1&#45;&gt;Node3</title>
<path fill="none" stroke="#63b8ff" d="M457.08,-65.74C402.66,-67.84 328.33,-70.71 276.94,-72.7"/>
<polygon fill="#63b8ff" stroke="#63b8ff" points="457.01,-69.24 466.86,-65.36 456.73,-62.25 457.01,-69.24"/>
</g>
<!-- Node4 -->
<g id="node4" class="node">
<title>Node4</title>
<g id="a_node4"><a xlink:href="a01999.html#a073b8313a5194aac3a7d5da0d935788c" target="_top" xlink:title=" ">
<polygon fill="white" stroke="#666666" points="276.5,-32 156.25,-32 156.25,0 276.5,0 276.5,-32"/>
<text xml:space="preserve" text-anchor="start" x="164.25" y="-18.5" font-family="Helvetica,sans-Serif" font-size="10.00">nlohmann::detail::parser</text>
<text xml:space="preserve" text-anchor="middle" x="216.38" y="-6.5" font-family="Helvetica,sans-Serif" font-size="10.00">::sax_parse</text>
</a>
</g>
</g>
<!-- Node1&#45;&gt;Node4 -->
<g id="edge3" class="edge">
<title>Node1&#45;&gt;Node4</title>
<path fill="none" stroke="#63b8ff" d="M493.14,-41.03C475.73,-31.29 453.89,-20.94 432.75,-16 381.05,-3.92 320.43,-5.24 276.71,-8.82"/>
<polygon fill="#63b8ff" stroke="#63b8ff" points="491.13,-43.91 501.54,-45.89 494.63,-37.85 491.13,-43.91"/>
</g>
<!-- Node6 -->
<g id="node6" class="node">
<title>Node6</title>
<g id="a_node6"><a xlink:href="a01999.html#a678fdebccc8ddd3242c67b6bce2f8f1a" target="_top" xlink:title=" ">
<polygon fill="white" stroke="#666666" points="432.75,-57 312.5,-57 312.5,-25 432.75,-25 432.75,-57"/>
<text xml:space="preserve" text-anchor="start" x="320.5" y="-43.5" font-family="Helvetica,sans-Serif" font-size="10.00">nlohmann::detail::parser</text>
<text xml:space="preserve" text-anchor="middle" x="372.62" y="-31.5" font-family="Helvetica,sans-Serif" font-size="10.00">::sax_parse_internal</text>
</a>
</g>
</g>
<!-- Node1&#45;&gt;Node6 -->
<g id="edge5" class="edge">
<title>Node1&#45;&gt;Node6</title>
<path fill="none" stroke="#63b8ff" d="M457.35,-52.94C449.27,-51.79 441.09,-50.62 433.17,-49.49"/>
<polygon fill="#63b8ff" stroke="#63b8ff" points="456.79,-56.4 467.18,-54.34 457.78,-49.47 456.79,-56.4"/>
</g>
<!-- Node5 -->
<g id="node5" class="node">
<title>Node5</title>
<g id="a_node5"><a xlink:href="a01999.html#a39784a586867c05388cb0adca0fd72b5" target="_top" xlink:title="public accept interface">
<polygon fill="white" stroke="#666666" points="120.25,-32 0,-32 0,0 120.25,0 120.25,-32"/>
<text xml:space="preserve" text-anchor="start" x="8" y="-18.5" font-family="Helvetica,sans-Serif" font-size="10.00">nlohmann::detail::parser</text>
<text xml:space="preserve" text-anchor="middle" x="60.12" y="-6.5" font-family="Helvetica,sans-Serif" font-size="10.00">::accept</text>
</a>
</g>
</g>
<!-- Node4&#45;&gt;Node5 -->
<g id="edge4" class="edge">
<title>Node4&#45;&gt;Node5</title>
<path fill="none" stroke="#63b8ff" d="M144.85,-16C136.77,-16 128.59,-16 120.67,-16"/>
<polygon fill="#63b8ff" stroke="#63b8ff" points="144.67,-19.5 154.67,-16 144.67,-12.5 144.67,-19.5"/>
</g>
<!-- Node6&#45;&gt;Node3 -->
<g id="edge6" class="edge">
<title>Node6&#45;&gt;Node3</title>
<path fill="none" stroke="#63b8ff" d="M301.38,-56.48C293.21,-58.28 284.93,-60.11 276.92,-61.87"/>
<polygon fill="#63b8ff" stroke="#63b8ff" points="301.94,-59.94 310.95,-54.37 300.43,-53.11 301.94,-59.94"/>
</g>
<!-- Node6&#45;&gt;Node4 -->
<g id="edge7" class="edge">
<title>Node6&#45;&gt;Node4</title>
<path fill="none" stroke="#63b8ff" d="M301.1,-29.57C293.02,-28.26 284.84,-26.93 276.92,-25.65"/>
<polygon fill="#63b8ff" stroke="#63b8ff" points="300.5,-33.02 310.94,-31.16 301.62,-26.11 300.5,-33.02"/>
</g>
</g>
</svg>
