<?xml version="1.0" encoding="UTF-8" standalone="no"?>
<!DOCTYPE svg PUBLIC "-//W3C//DTD SVG 1.1//EN"
 "http://www.w3.org/Graphics/SVG/1.1/DTD/svg11.dtd">
<!-- Generated by graphviz version 13.1.2 (20250808.2320)
 -->
<!-- Title: nlohmann::detail::json_sax_dom_parser::start_array Pages: 1 -->
<svg width="517pt" height="90pt"
 viewBox="0.00 0.00 517.00 90.00" xmlns="http://www.w3.org/2000/svg" xmlns:xlink="http://www.w3.org/1999/xlink">
<g id="graph0" class="graph" transform="scale(1 1) rotate(0) translate(4 86)">
<title>nlohmann::detail::json_sax_dom_parser::start_array</title>
<!-- Node1 -->
<g id="node1" class="node">
<title>Node1</title>
<g id="a_node1"><a xlink:title=" ">
<polygon fill="#999999" stroke="#666666" points="145.75,-57 0,-57 0,-25 145.75,-25 145.75,-57"/>
<text xml:space="preserve" text-anchor="start" x="8" y="-43.5" font-family="Helvetica,sans-Serif" font-size="10.00">nlohmann::detail::json</text>
<text xml:space="preserve" text-anchor="middle" x="72.88" y="-31.5" font-family="Helvetica,sans-Serif" font-size="10.00">_sax_dom_parser::start_array</text>
</a>
</g>
</g>
<!-- Node2 -->
<g id="node2" class="node">
<title>Node2</title>
<g id="a_node2"><a xlink:href="a01575.html#a3f6d82a6f967c4728a1ec735a7867073" target="_top" xlink:title=" ">
<polygon fill="white" stroke="#666666" points="313.25,-82 206.5,-82 206.5,-50 313.25,-50 313.25,-82"/>
<text xml:space="preserve" text-anchor="start" x="214.5" y="-68.5" font-family="Helvetica,sans-Serif" font-size="10.00">nlohmann::detail::out</text>
<text xml:space="preserve" text-anchor="middle" x="259.88" y="-56.5" font-family="Helvetica,sans-Serif" font-size="10.00">_of_range::create</text>
</a>
</g>
</g>
<!-- Node1&#45;&gt;Node2 -->
<g id="edge1" class="edge">
<title>Node1&#45;&gt;Node2</title>
<path fill="none" stroke="#63b8ff" d="M146.2,-50.77C162.26,-52.94 179.18,-55.23 194.88,-57.35"/>
<polygon fill="#63b8ff" stroke="#63b8ff" points="194.2,-60.79 204.57,-58.66 195.13,-53.85 194.2,-60.79"/>
</g>
<!-- Node4 -->
<g id="node4" class="node">
<title>Node4</title>
<g id="a_node4"><a xlink:href="a01967.html#a7e85f4268a41583d533893c15873abdb" target="_top" xlink:title=" ">
<polygon fill="white" stroke="#666666" points="338,-32 181.75,-32 181.75,0 338,0 338,-32"/>
<text xml:space="preserve" text-anchor="start" x="189.75" y="-18.5" font-family="Helvetica,sans-Serif" font-size="10.00">nlohmann::detail::json</text>
<text xml:space="preserve" text-anchor="middle" x="259.88" y="-6.5" font-family="Helvetica,sans-Serif" font-size="10.00">_sax_dom_parser::handle_value</text>
</a>
</g>
</g>
<!-- Node1&#45;&gt;Node4 -->
<g id="edge3" class="edge">
<title>Node1&#45;&gt;Node4</title>
<path fill="none" stroke="#63b8ff" d="M146.2,-31.23C154.05,-30.17 162.1,-29.08 170.12,-27.99"/>
<polygon fill="#63b8ff" stroke="#63b8ff" points="170.47,-31.48 179.91,-26.67 169.53,-24.54 170.47,-31.48"/>
</g>
<!-- Node3 -->
<g id="node3" class="node">
<title>Node3</title>
<g id="a_node3"><a xlink:href="a01559.html#abf41a7e9178356314082284e6cfea278" target="_top" xlink:title=" ">
<polygon fill="white" stroke="#666666" points="509.25,-82 374,-82 374,-50 509.25,-50 509.25,-82"/>
<text xml:space="preserve" text-anchor="start" x="382" y="-68.5" font-family="Helvetica,sans-Serif" font-size="10.00">nlohmann::detail::exception</text>
<text xml:space="preserve" text-anchor="middle" x="441.62" y="-56.5" font-family="Helvetica,sans-Serif" font-size="10.00">::name</text>
</a>
</g>
</g>
<!-- Node2&#45;&gt;Node3 -->
<g id="edge2" class="edge">
<title>Node2&#45;&gt;Node3</title>
<path fill="none" stroke="#63b8ff" d="M313.35,-66C328.67,-66 345.76,-66 362.32,-66"/>
<polygon fill="#63b8ff" stroke="#63b8ff" points="362.15,-69.5 372.15,-66 362.15,-62.5 362.15,-69.5"/>
</g>
</g>
</svg>
