<?xml version="1.0" encoding="UTF-8" standalone="no"?>
<!DOCTYPE svg PUBLIC "-//W3C//DTD SVG 1.1//EN"
 "http://www.w3.org/Graphics/SVG/1.1/DTD/svg11.dtd">
<!-- Generated by graphviz version 13.1.2 (20250808.2320)
 -->
<!-- Title: nlohmann::detail::binary_reader::get_cbor_binary Pages: 1 -->
<svg width="759pt" height="240pt"
 viewBox="0.00 0.00 759.00 240.00" xmlns="http://www.w3.org/2000/svg" xmlns:xlink="http://www.w3.org/1999/xlink">
<g id="graph0" class="graph" transform="scale(1 1) rotate(0) translate(4 236)">
<title>nlohmann::detail::binary_reader::get_cbor_binary</title>
<!-- Node1 -->
<g id="node1" class="node">
<title>Node1</title>
<g id="a_node1"><a xlink:title="reads a CBOR byte array">
<polygon fill="#999999" stroke="#666666" points="750.5,-182 627.25,-182 627.25,-150 750.5,-150 750.5,-182"/>
<text xml:space="preserve" text-anchor="start" x="635.25" y="-168.5" font-family="Helvetica,sans-Serif" font-size="10.00">nlohmann::detail::binary</text>
<text xml:space="preserve" text-anchor="middle" x="688.88" y="-156.5" font-family="Helvetica,sans-Serif" font-size="10.00">_reader::get_cbor_binary</text>
</a>
</g>
</g>
<!-- Node1&#45;&gt;Node1 -->
<g id="edge1" class="edge">
<title>Node1&#45;&gt;Node1</title>
<path fill="none" stroke="#63b8ff" d="M716.73,-193.71C712.08,-197.48 702.8,-200 688.88,-200 663.41,-200 653.47,-191.58 659.04,-182.44"/>
<polygon fill="#63b8ff" stroke="#63b8ff" points="720.16,-194.39 718.45,-183.93 713.27,-193.17 720.16,-194.39"/>
</g>
<!-- Node2 -->
<g id="node2" class="node">
<title>Node2</title>
<g id="a_node2"><a xlink:href="a01995.html#a4e4accd5a2a41bfb2f18a8a0fcc9421c" target="_top" xlink:title=" ">
<polygon fill="white" stroke="#666666" points="591.25,-182 452.25,-182 452.25,-150 591.25,-150 591.25,-182"/>
<text xml:space="preserve" text-anchor="start" x="460.25" y="-168.5" font-family="Helvetica,sans-Serif" font-size="10.00">nlohmann::detail::binary</text>
<text xml:space="preserve" text-anchor="middle" x="521.75" y="-156.5" font-family="Helvetica,sans-Serif" font-size="10.00">_reader::parse_cbor_internal</text>
</a>
</g>
</g>
<!-- Node1&#45;&gt;Node2 -->
<g id="edge2" class="edge">
<title>Node1&#45;&gt;Node2</title>
<path fill="none" stroke="#63b8ff" d="M615.39,-166C607.49,-166 599.45,-166 591.59,-166"/>
<polygon fill="#63b8ff" stroke="#63b8ff" points="615.34,-169.5 625.34,-166 615.34,-162.5 615.34,-169.5"/>
</g>
<!-- Node2&#45;&gt;Node2 -->
<g id="edge7" class="edge">
<title>Node2&#45;&gt;Node2</title>
<path fill="none" stroke="#63b8ff" d="M549.6,-193.71C544.96,-197.48 535.67,-200 521.75,-200 496.29,-200 486.34,-191.58 491.91,-182.44"/>
<polygon fill="#63b8ff" stroke="#63b8ff" points="553.03,-194.39 551.32,-183.93 546.14,-193.17 553.03,-194.39"/>
</g>
<!-- Node3 -->
<g id="node3" class="node">
<title>Node3</title>
<g id="a_node3"><a xlink:href="a01995.html#a3750658328bf3ec3cf23f1626f9ec3af" target="_top" xlink:title=" ">
<polygon fill="white" stroke="#666666" points="414.38,-232 294.88,-232 294.88,-200 414.38,-200 414.38,-232"/>
<text xml:space="preserve" text-anchor="start" x="302.88" y="-218.5" font-family="Helvetica,sans-Serif" font-size="10.00">nlohmann::detail::binary</text>
<text xml:space="preserve" text-anchor="middle" x="354.62" y="-206.5" font-family="Helvetica,sans-Serif" font-size="10.00">_reader::get_cbor_array</text>
</a>
</g>
</g>
<!-- Node2&#45;&gt;Node3 -->
<g id="edge3" class="edge">
<title>Node2&#45;&gt;Node3</title>
<path fill="none" stroke="#63b8ff" d="M441.29,-183.31C423.76,-188.57 406.04,-194.3 391.31,-199.53"/>
<polygon fill="#63b8ff" stroke="#63b8ff" points="442.11,-186.72 450.71,-180.54 440.12,-180.01 442.11,-186.72"/>
</g>
<!-- Node4 -->
<g id="node4" class="node">
<title>Node4</title>
<g id="a_node4"><a xlink:href="a01995.html#a47092a2195bf9cd3cdb4dda67cc404ed" target="_top" xlink:title=" ">
<polygon fill="white" stroke="#666666" points="416.25,-182 293,-182 293,-150 416.25,-150 416.25,-182"/>
<text xml:space="preserve" text-anchor="start" x="301" y="-168.5" font-family="Helvetica,sans-Serif" font-size="10.00">nlohmann::detail::binary</text>
<text xml:space="preserve" text-anchor="middle" x="354.62" y="-156.5" font-family="Helvetica,sans-Serif" font-size="10.00">_reader::get_cbor_object</text>
</a>
</g>
</g>
<!-- Node2&#45;&gt;Node4 -->
<g id="edge5" class="edge">
<title>Node2&#45;&gt;Node4</title>
<path fill="none" stroke="#63b8ff" d="M440.74,-159.25C432.63,-159.23 424.49,-159.3 416.63,-159.46"/>
<polygon fill="#63b8ff" stroke="#63b8ff" points="440.62,-162.75 450.64,-159.33 440.67,-155.75 440.62,-162.75"/>
</g>
<!-- Node5 -->
<g id="node5" class="node">
<title>Node5</title>
<g id="a_node5"><a xlink:href="a01995.html#ab4afd9ee276bbb15a0f898061aad94dd" target="_top" xlink:title=" ">
<polygon fill="white" stroke="#666666" points="414.38,-132 294.88,-132 294.88,-100 414.38,-100 414.38,-132"/>
<text xml:space="preserve" text-anchor="start" x="302.88" y="-118.5" font-family="Helvetica,sans-Serif" font-size="10.00">nlohmann::detail::binary</text>
<text xml:space="preserve" text-anchor="middle" x="354.62" y="-106.5" font-family="Helvetica,sans-Serif" font-size="10.00">_reader::sax_parse</text>
</a>
</g>
</g>
<!-- Node2&#45;&gt;Node5 -->
<g id="edge8" class="edge">
<title>Node2&#45;&gt;Node5</title>
<path fill="none" stroke="#63b8ff" d="M455.84,-146.34C440.7,-141.76 424.73,-136.92 410.1,-132.49"/>
<polygon fill="#63b8ff" stroke="#63b8ff" points="454.65,-149.64 465.23,-149.19 456.68,-142.94 454.65,-149.64"/>
</g>
<!-- Node3&#45;&gt;Node2 -->
<g id="edge4" class="edge">
<title>Node3&#45;&gt;Node2</title>
<path fill="none" stroke="#63b8ff" d="M425.67,-201.47C446.25,-195.47 467.9,-188.57 485.33,-182.38"/>
<polygon fill="#63b8ff" stroke="#63b8ff" points="424.81,-198.08 416.16,-204.2 426.73,-204.81 424.81,-198.08"/>
</g>
<!-- Node4&#45;&gt;Node2 -->
<g id="edge6" class="edge">
<title>Node4&#45;&gt;Node2</title>
<path fill="none" stroke="#63b8ff" d="M427.9,-172.7C435.96,-172.78 444.15,-172.76 452.16,-172.66"/>
<polygon fill="#63b8ff" stroke="#63b8ff" points="428.19,-169.21 418.14,-172.56 428.09,-176.21 428.19,-169.21"/>
</g>
<!-- Node6 -->
<g id="node6" class="node">
<title>Node6</title>
<g id="a_node6"><a xlink:href="a01659.html#a4e02793f2691aa29ab7cb69fddafbf5c" target="_top" xlink:title="Create a JSON value from an input in BSON format.">
<polygon fill="white" stroke="#666666" points="257,-232 146.5,-232 146.5,-200 257,-200 257,-232"/>
<text xml:space="preserve" text-anchor="start" x="154.5" y="-218.5" font-family="Helvetica,sans-Serif" font-size="10.00">nlohmann::basic_json</text>
<text xml:space="preserve" text-anchor="middle" x="201.75" y="-206.5" font-family="Helvetica,sans-Serif" font-size="10.00">::from_bson</text>
</a>
</g>
</g>
<!-- Node5&#45;&gt;Node6 -->
<g id="edge9" class="edge">
<title>Node5&#45;&gt;Node6</title>
<path fill="none" stroke="#63b8ff" d="M296.49,-138.4C295.3,-139.24 294.13,-140.11 293,-141 271.52,-157.98 278.13,-173.58 257,-191 253.16,-194.17 248.85,-197.02 244.39,-199.58"/>
<polygon fill="#63b8ff" stroke="#63b8ff" points="298.17,-141.48 304.86,-133.27 294.51,-135.51 298.17,-141.48"/>
</g>
<!-- Node8 -->
<g id="node8" class="node">
<title>Node8</title>
<g id="a_node8"><a xlink:href="a01659.html#a44dd5635fb2da4710f6cd6e42b72773f" target="_top" xlink:title="create a JSON value from an input in CBOR format">
<polygon fill="white" stroke="#666666" points="257,-182 146.5,-182 146.5,-150 257,-150 257,-182"/>
<text xml:space="preserve" text-anchor="start" x="154.5" y="-168.5" font-family="Helvetica,sans-Serif" font-size="10.00">nlohmann::basic_json</text>
<text xml:space="preserve" text-anchor="middle" x="201.75" y="-156.5" font-family="Helvetica,sans-Serif" font-size="10.00">::from_cbor</text>
</a>
</g>
</g>
<!-- Node5&#45;&gt;Node8 -->
<g id="edge11" class="edge">
<title>Node5&#45;&gt;Node8</title>
<path fill="none" stroke="#63b8ff" d="M293.51,-135.92C279.92,-140.43 265.63,-145.16 252.52,-149.51"/>
<polygon fill="#63b8ff" stroke="#63b8ff" points="294.39,-139.32 302.79,-132.85 292.19,-132.67 294.39,-139.32"/>
</g>
<!-- Node10 -->
<g id="node10" class="node">
<title>Node10</title>
<g id="a_node10"><a xlink:href="a01659.html#adbcab52fca1e25b3311ef14e71a57590" target="_top" xlink:title="create a JSON value from an input in MessagePack format">
<polygon fill="white" stroke="#666666" points="257,-132 146.5,-132 146.5,-100 257,-100 257,-132"/>
<text xml:space="preserve" text-anchor="start" x="154.5" y="-118.5" font-family="Helvetica,sans-Serif" font-size="10.00">nlohmann::basic_json</text>
<text xml:space="preserve" text-anchor="middle" x="201.75" y="-106.5" font-family="Helvetica,sans-Serif" font-size="10.00">::from_msgpack</text>
</a>
</g>
</g>
<!-- Node5&#45;&gt;Node10 -->
<g id="edge13" class="edge">
<title>Node5&#45;&gt;Node10</title>
<path fill="none" stroke="#63b8ff" d="M283.13,-116C274.47,-116 265.72,-116 257.35,-116"/>
<polygon fill="#63b8ff" stroke="#63b8ff" points="282.91,-119.5 292.91,-116 282.91,-112.5 282.91,-119.5"/>
</g>
<!-- Node12 -->
<g id="node12" class="node">
<title>Node12</title>
<g id="a_node12"><a xlink:href="a01659.html#aa81f62db69978b90ff701f05c72e03a7" target="_top" xlink:title="create a JSON value from an input in UBJSON format">
<polygon fill="white" stroke="#666666" points="257,-82 146.5,-82 146.5,-50 257,-50 257,-82"/>
<text xml:space="preserve" text-anchor="start" x="154.5" y="-68.5" font-family="Helvetica,sans-Serif" font-size="10.00">nlohmann::basic_json</text>
<text xml:space="preserve" text-anchor="middle" x="201.75" y="-56.5" font-family="Helvetica,sans-Serif" font-size="10.00">::from_ubjson</text>
</a>
</g>
</g>
<!-- Node5&#45;&gt;Node12 -->
<g id="edge15" class="edge">
<title>Node5&#45;&gt;Node12</title>
<path fill="none" stroke="#63b8ff" d="M293.51,-96.08C279.92,-91.57 265.63,-86.84 252.52,-82.49"/>
<polygon fill="#63b8ff" stroke="#63b8ff" points="292.19,-99.33 302.79,-99.15 294.39,-92.68 292.19,-99.33"/>
</g>
<!-- Node14 -->
<g id="node14" class="node">
<title>Node14</title>
<g id="a_node14"><a xlink:href="a01659.html#a12b382c6407da5543827ce4b24bb5008" target="_top" xlink:title="generate SAX events">
<polygon fill="white" stroke="#666666" points="257,-32 146.5,-32 146.5,0 257,0 257,-32"/>
<text xml:space="preserve" text-anchor="start" x="154.5" y="-18.5" font-family="Helvetica,sans-Serif" font-size="10.00">nlohmann::basic_json</text>
<text xml:space="preserve" text-anchor="middle" x="201.75" y="-6.5" font-family="Helvetica,sans-Serif" font-size="10.00">::sax_parse</text>
</a>
</g>
</g>
<!-- Node5&#45;&gt;Node14 -->
<g id="edge17" class="edge">
<title>Node5&#45;&gt;Node14</title>
<path fill="none" stroke="#63b8ff" d="M326.72,-92.41C307.98,-76.67 281.95,-56.16 257,-41 252.04,-37.98 246.65,-35.09 241.26,-32.41"/>
<polygon fill="#63b8ff" stroke="#63b8ff" points="324.27,-94.92 334.15,-98.73 328.8,-89.59 324.27,-94.92"/>
</g>
<!-- Node7 -->
<g id="node7" class="node">
<title>Node7</title>
<g id="a_node7"><a xlink:href="a01659.html#ae2612581e4788ddffc2f45d5e4cc04fc" target="_top" xlink:title=" ">
<polygon fill="white" stroke="#666666" points="110.5,-232 0,-232 0,-200 110.5,-200 110.5,-232"/>
<text xml:space="preserve" text-anchor="start" x="8" y="-218.5" font-family="Helvetica,sans-Serif" font-size="10.00">nlohmann::basic_json</text>
<text xml:space="preserve" text-anchor="middle" x="55.25" y="-206.5" font-family="Helvetica,sans-Serif" font-size="10.00">::from_bson</text>
</a>
</g>
</g>
<!-- Node6&#45;&gt;Node7 -->
<g id="edge10" class="edge">
<title>Node6&#45;&gt;Node7</title>
<path fill="none" stroke="#63b8ff" d="M134.63,-216C126.71,-216 118.69,-216 110.96,-216"/>
<polygon fill="#63b8ff" stroke="#63b8ff" points="134.61,-219.5 144.61,-216 134.61,-212.5 134.61,-219.5"/>
</g>
<!-- Node9 -->
<g id="node9" class="node">
<title>Node9</title>
<g id="a_node9"><a xlink:href="a01659.html#a188755c8cda27e2afb03c016c14125d8" target="_top" xlink:title=" ">
<polygon fill="white" stroke="#666666" points="110.5,-182 0,-182 0,-150 110.5,-150 110.5,-182"/>
<text xml:space="preserve" text-anchor="start" x="8" y="-168.5" font-family="Helvetica,sans-Serif" font-size="10.00">nlohmann::basic_json</text>
<text xml:space="preserve" text-anchor="middle" x="55.25" y="-156.5" font-family="Helvetica,sans-Serif" font-size="10.00">::from_cbor</text>
</a>
</g>
</g>
<!-- Node8&#45;&gt;Node9 -->
<g id="edge12" class="edge">
<title>Node8&#45;&gt;Node9</title>
<path fill="none" stroke="#63b8ff" d="M134.63,-166C126.71,-166 118.69,-166 110.96,-166"/>
<polygon fill="#63b8ff" stroke="#63b8ff" points="134.61,-169.5 144.61,-166 134.61,-162.5 134.61,-169.5"/>
</g>
<!-- Node11 -->
<g id="node11" class="node">
<title>Node11</title>
<g id="a_node11"><a xlink:href="a01659.html#a0d69d3102639759d5202a6f764760d23" target="_top" xlink:title=" ">
<polygon fill="white" stroke="#666666" points="110.5,-132 0,-132 0,-100 110.5,-100 110.5,-132"/>
<text xml:space="preserve" text-anchor="start" x="8" y="-118.5" font-family="Helvetica,sans-Serif" font-size="10.00">nlohmann::basic_json</text>
<text xml:space="preserve" text-anchor="middle" x="55.25" y="-106.5" font-family="Helvetica,sans-Serif" font-size="10.00">::from_msgpack</text>
</a>
</g>
</g>
<!-- Node10&#45;&gt;Node11 -->
<g id="edge14" class="edge">
<title>Node10&#45;&gt;Node11</title>
<path fill="none" stroke="#63b8ff" d="M134.63,-116C126.71,-116 118.69,-116 110.96,-116"/>
<polygon fill="#63b8ff" stroke="#63b8ff" points="134.61,-119.5 144.61,-116 134.61,-112.5 134.61,-119.5"/>
</g>
<!-- Node13 -->
<g id="node13" class="node">
<title>Node13</title>
<g id="a_node13"><a xlink:href="a01659.html#ab6eeda23c34cee79d8d72f1a8691a8de" target="_top" xlink:title=" ">
<polygon fill="white" stroke="#666666" points="110.5,-82 0,-82 0,-50 110.5,-50 110.5,-82"/>
<text xml:space="preserve" text-anchor="start" x="8" y="-68.5" font-family="Helvetica,sans-Serif" font-size="10.00">nlohmann::basic_json</text>
<text xml:space="preserve" text-anchor="middle" x="55.25" y="-56.5" font-family="Helvetica,sans-Serif" font-size="10.00">::from_ubjson</text>
</a>
</g>
</g>
<!-- Node12&#45;&gt;Node13 -->
<g id="edge16" class="edge">
<title>Node12&#45;&gt;Node13</title>
<path fill="none" stroke="#63b8ff" d="M134.63,-66C126.71,-66 118.69,-66 110.96,-66"/>
<polygon fill="#63b8ff" stroke="#63b8ff" points="134.61,-69.5 144.61,-66 134.61,-62.5 134.61,-69.5"/>
</g>
</g>
</svg>
