<?xml version="1.0" encoding="UTF-8" standalone="no"?>
<!DOCTYPE svg PUBLIC "-//W3C//DTD SVG 1.1//EN"
 "http://www.w3.org/Graphics/SVG/1.1/DTD/svg11.dtd">
<!-- Generated by graphviz version 13.1.2 (20250808.2320)
 -->
<!-- Title: nlohmann::detail::wide_string_input_adapter&lt; BaseInputAdapter, WideCharType &gt; Pages: 1 -->
<svg width="316pt" height="224pt"
 viewBox="0.00 0.00 316.00 224.00" xmlns="http://www.w3.org/2000/svg" xmlns:xlink="http://www.w3.org/1999/xlink">
<g id="graph0" class="graph" transform="scale(1 1) rotate(0) translate(4 220)">
<title>nlohmann::detail::wide_string_input_adapter&lt; BaseInputAdapter, WideCharType &gt;</title>
<!-- Node1 -->
<g id="node1" class="node">
<title>Node1</title>
<g id="a_node1"><a xlink:title=" ">
<polygon fill="#999999" stroke="#666666" points="255.25,-44 72.75,-44 72.75,0 255.25,0 255.25,-44"/>
<text xml:space="preserve" text-anchor="start" x="80.75" y="-30.5" font-family="Helvetica,sans-Serif" font-size="10.00">nlohmann::detail::wide</text>
<text xml:space="preserve" text-anchor="start" x="80.75" y="-18.5" font-family="Helvetica,sans-Serif" font-size="10.00">_string_input_adapter</text>
<text xml:space="preserve" text-anchor="middle" x="164" y="-6.5" font-family="Helvetica,sans-Serif" font-size="10.00">&lt; BaseInputAdapter, WideCharType &gt;</text>
</a>
</g>
</g>
<!-- Node2 -->
<g id="node2" class="node">
<title>Node2</title>
<g id="a_node2"><a xlink:title=" ">
<polygon fill="white" stroke="#666666" points="94,-136 0,-136 0,-116 94,-116 94,-136"/>
<text xml:space="preserve" text-anchor="middle" x="47" y="-122.5" font-family="Helvetica,sans-Serif" font-size="10.00">BaseInputAdapter</text>
</a>
</g>
</g>
<!-- Node2&#45;&gt;Node1 -->
<g id="edge1" class="edge">
<title>Node2&#45;&gt;Node1</title>
<path fill="none" stroke="#9a32cd" stroke-dasharray="5,2" d="M59.53,-106.39C69.15,-93.01 83.32,-75.08 98.5,-62 105.92,-55.61 114.52,-49.65 123,-44.41"/>
<polygon fill="#9a32cd" stroke="#9a32cd" points="56.84,-104.14 53.99,-114.35 62.58,-108.15 56.84,-104.14"/>
<text xml:space="preserve" text-anchor="middle" x="129.25" y="-70.5" font-family="Helvetica,sans-Serif" font-size="10.00"> base_adapter</text>
</g>
<!-- Node3 -->
<g id="node3" class="node">
<title>Node3</title>
<g id="a_node3"><a xlink:title=" ">
<polygon fill="white" stroke="#666666" points="216.25,-148 111.75,-148 111.75,-104 216.25,-104 216.25,-148"/>
<text xml:space="preserve" text-anchor="start" x="119.75" y="-134.5" font-family="Helvetica,sans-Serif" font-size="10.00">std::array&lt; std::char</text>
<text xml:space="preserve" text-anchor="start" x="119.75" y="-122.5" font-family="Helvetica,sans-Serif" font-size="10.00">_traits&lt; char &gt;::int</text>
<text xml:space="preserve" text-anchor="middle" x="164" y="-110.5" font-family="Helvetica,sans-Serif" font-size="10.00">_type, 4 &gt;</text>
</a>
</g>
</g>
<!-- Node3&#45;&gt;Node1 -->
<g id="edge2" class="edge">
<title>Node3&#45;&gt;Node1</title>
<path fill="none" stroke="#9a32cd" stroke-dasharray="5,2" d="M164,-92.5C164,-76.8 164,-58.39 164,-44.46"/>
<polygon fill="#9a32cd" stroke="#9a32cd" points="160.5,-92.35 164,-102.35 167.5,-92.35 160.5,-92.35"/>
<text xml:space="preserve" text-anchor="middle" x="188.38" y="-70.5" font-family="Helvetica,sans-Serif" font-size="10.00"> utf8_bytes</text>
</g>
<!-- Node4 -->
<g id="node4" class="node">
<title>Node4</title>
<g id="a_node4"><a xlink:title=" ">
<polygon fill="white" stroke="#666666" points="189.25,-216 138.75,-216 138.75,-196 189.25,-196 189.25,-216"/>
<text xml:space="preserve" text-anchor="middle" x="164" y="-202.5" font-family="Helvetica,sans-Serif" font-size="10.00">int_type</text>
</a>
</g>
</g>
<!-- Node4&#45;&gt;Node3 -->
<g id="edge3" class="edge">
<title>Node4&#45;&gt;Node3</title>
<path fill="none" stroke="#9a32cd" stroke-dasharray="5,2" d="M164,-184.54C164,-173.38 164,-159.58 164,-148.29"/>
<polygon fill="#9a32cd" stroke="#9a32cd" points="160.5,-184.23 164,-194.23 167.5,-184.23 160.5,-184.23"/>
<text xml:space="preserve" text-anchor="middle" x="185.38" y="-168.5" font-family="Helvetica,sans-Serif" font-size="10.00"> elements</text>
</g>
<!-- Node5 -->
<g id="node5" class="node">
<title>Node5</title>
<g id="a_node5"><a xlink:title=" ">
<polygon fill="white" stroke="#666666" points="276.12,-136 233.88,-136 233.88,-116 276.12,-116 276.12,-136"/>
<text xml:space="preserve" text-anchor="middle" x="255" y="-122.5" font-family="Helvetica,sans-Serif" font-size="10.00">size_t</text>
</a>
</g>
</g>
<!-- Node5&#45;&gt;Node1 -->
<g id="edge4" class="edge">
<title>Node5&#45;&gt;Node1</title>
<path fill="none" stroke="#9a32cd" stroke-dasharray="5,2" d="M245.75,-105.39C238.95,-92.23 228.85,-74.99 217,-62 211.23,-55.67 204.29,-49.7 197.36,-44.43"/>
<polygon fill="#9a32cd" stroke="#9a32cd" points="242.6,-106.92 250.16,-114.34 248.88,-103.82 242.6,-106.92"/>
<text xml:space="preserve" text-anchor="middle" x="270.99" y="-76.5" font-family="Helvetica,sans-Serif" font-size="10.00"> utf8_bytes_filled</text>
<text xml:space="preserve" text-anchor="middle" x="270.99" y="-64.5" font-family="Helvetica,sans-Serif" font-size="10.00">utf8_bytes_index</text>
</g>
</g>
</svg>
