<?xml version="1.0" encoding="UTF-8" standalone="no"?>
<!DOCTYPE svg PUBLIC "-//W3C//DTD SVG 1.1//EN"
 "http://www.w3.org/Graphics/SVG/1.1/DTD/svg11.dtd">
<!-- Generated by graphviz version 13.1.2 (20250808.2320)
 -->
<!-- Title: nlohmann::detail::parser::sax_parse_internal Pages: 1 -->
<svg width="441pt" height="90pt"
 viewBox="0.00 0.00 441.00 90.00" xmlns="http://www.w3.org/2000/svg" xmlns:xlink="http://www.w3.org/1999/xlink">
<g id="graph0" class="graph" transform="scale(1 1) rotate(0) translate(4 86)">
<title>nlohmann::detail::parser::sax_parse_internal</title>
<!-- Node1 -->
<g id="node1" class="node">
<title>Node1</title>
<g id="a_node1"><a xlink:title=" ">
<polygon fill="#999999" stroke="#666666" points="432.75,-57 312.5,-57 312.5,-25 432.75,-25 432.75,-57"/>
<text xml:space="preserve" text-anchor="start" x="320.5" y="-43.5" font-family="Helvetica,sans-Serif" font-size="10.00">nlohmann::detail::parser</text>
<text xml:space="preserve" text-anchor="middle" x="372.62" y="-31.5" font-family="Helvetica,sans-Serif" font-size="10.00">::sax_parse_internal</text>
</a>
</g>
</g>
<!-- Node2 -->
<g id="node2" class="node">
<title>Node2</title>
<g id="a_node2"><a xlink:href="a01999.html#a75fb9145ea85f1ad9cc14f61981e1111" target="_top" xlink:title="public parser interface">
<polygon fill="white" stroke="#666666" points="276.5,-82 156.25,-82 156.25,-50 276.5,-50 276.5,-82"/>
<text xml:space="preserve" text-anchor="start" x="164.25" y="-68.5" font-family="Helvetica,sans-Serif" font-size="10.00">nlohmann::detail::parser</text>
<text xml:space="preserve" text-anchor="middle" x="216.38" y="-56.5" font-family="Helvetica,sans-Serif" font-size="10.00">::parse</text>
</a>
</g>
</g>
<!-- Node1&#45;&gt;Node2 -->
<g id="edge1" class="edge">
<title>Node1&#45;&gt;Node2</title>
<path fill="none" stroke="#63b8ff" d="M301.1,-52.43C293.02,-53.74 284.84,-55.07 276.92,-56.35"/>
<polygon fill="#63b8ff" stroke="#63b8ff" points="301.62,-55.89 310.94,-50.84 300.5,-48.98 301.62,-55.89"/>
</g>
<!-- Node3 -->
<g id="node3" class="node">
<title>Node3</title>
<g id="a_node3"><a xlink:href="a01999.html#a073b8313a5194aac3a7d5da0d935788c" target="_top" xlink:title=" ">
<polygon fill="white" stroke="#666666" points="276.5,-32 156.25,-32 156.25,0 276.5,0 276.5,-32"/>
<text xml:space="preserve" text-anchor="start" x="164.25" y="-18.5" font-family="Helvetica,sans-Serif" font-size="10.00">nlohmann::detail::parser</text>
<text xml:space="preserve" text-anchor="middle" x="216.38" y="-6.5" font-family="Helvetica,sans-Serif" font-size="10.00">::sax_parse</text>
</a>
</g>
</g>
<!-- Node1&#45;&gt;Node3 -->
<g id="edge2" class="edge">
<title>Node1&#45;&gt;Node3</title>
<path fill="none" stroke="#63b8ff" d="M301.1,-29.57C293.02,-28.26 284.84,-26.93 276.92,-25.65"/>
<polygon fill="#63b8ff" stroke="#63b8ff" points="300.5,-33.02 310.94,-31.16 301.62,-26.11 300.5,-33.02"/>
</g>
<!-- Node4 -->
<g id="node4" class="node">
<title>Node4</title>
<g id="a_node4"><a xlink:href="a01999.html#a39784a586867c05388cb0adca0fd72b5" target="_top" xlink:title="public accept interface">
<polygon fill="white" stroke="#666666" points="120.25,-32 0,-32 0,0 120.25,0 120.25,-32"/>
<text xml:space="preserve" text-anchor="start" x="8" y="-18.5" font-family="Helvetica,sans-Serif" font-size="10.00">nlohmann::detail::parser</text>
<text xml:space="preserve" text-anchor="middle" x="60.12" y="-6.5" font-family="Helvetica,sans-Serif" font-size="10.00">::accept</text>
</a>
</g>
</g>
<!-- Node3&#45;&gt;Node4 -->
<g id="edge3" class="edge">
<title>Node3&#45;&gt;Node4</title>
<path fill="none" stroke="#63b8ff" d="M144.85,-16C136.77,-16 128.59,-16 120.67,-16"/>
<polygon fill="#63b8ff" stroke="#63b8ff" points="144.67,-19.5 154.67,-16 144.67,-12.5 144.67,-19.5"/>
</g>
</g>
</svg>
