<?xml version="1.0" encoding="UTF-8" standalone="no"?>
<!DOCTYPE svg PUBLIC "-//W3C//DTD SVG 1.1//EN"
 "http://www.w3.org/Graphics/SVG/1.1/DTD/svg11.dtd">
<!-- Generated by graphviz version 13.1.2 (20250808.2320)
 -->
<!-- Title: nlohmann::detail::binary_reader::get_cbor_object Pages: 1 -->
<svg width="1132pt" height="671pt"
 viewBox="0.00 0.00 1132.00 671.00" xmlns="http://www.w3.org/2000/svg" xmlns:xlink="http://www.w3.org/1999/xlink">
<g id="graph0" class="graph" transform="scale(1 1) rotate(0) translate(4 667.37)">
<title>nlohmann::detail::binary_reader::get_cbor_object</title>
<!-- Node1 -->
<g id="node1" class="node">
<title>Node1</title>
<g id="a_node1"><a xlink:title=" ">
<polygon fill="#999999" stroke="#666666" points="123.25,-386.57 0,-386.57 0,-354.57 123.25,-354.57 123.25,-386.57"/>
<text xml:space="preserve" text-anchor="start" x="8" y="-373.07" font-family="Helvetica,sans-Serif" font-size="10.00">nlohmann::detail::binary</text>
<text xml:space="preserve" text-anchor="middle" x="61.62" y="-361.07" font-family="Helvetica,sans-Serif" font-size="10.00">_reader::get_cbor_object</text>
</a>
</g>
</g>
<!-- Node2 -->
<g id="node2" class="node">
<title>Node2</title>
<g id="a_node2"><a xlink:href="a01995.html#ad222095c0b21a87824cb10629299629a" target="_top" xlink:title="get next character from the input">
<polygon fill="white" stroke="#666666" points="775.25,-446.57 655.75,-446.57 655.75,-414.57 775.25,-414.57 775.25,-446.57"/>
<text xml:space="preserve" text-anchor="start" x="663.75" y="-433.07" font-family="Helvetica,sans-Serif" font-size="10.00">nlohmann::detail::binary</text>
<text xml:space="preserve" text-anchor="middle" x="715.5" y="-421.07" font-family="Helvetica,sans-Serif" font-size="10.00">_reader::get</text>
</a>
</g>
</g>
<!-- Node1&#45;&gt;Node2 -->
<g id="edge1" class="edge">
<title>Node1&#45;&gt;Node2</title>
<path fill="none" stroke="#63b8ff" d="M73.07,-386.84C105.05,-434.92 207.17,-576.12 334.25,-626.57 452.35,-673.45 514.19,-682.3 619.75,-611.57 673.52,-575.54 698.78,-498.9 708.85,-457.86"/>
<polygon fill="#63b8ff" stroke="#63b8ff" points="712.22,-458.83 711.06,-448.3 705.4,-457.25 712.22,-458.83"/>
</g>
<!-- Node3 -->
<g id="node3" class="node">
<title>Node3</title>
<g id="a_node3"><a xlink:href="a01995.html#a545a44ae4b3fa2b7a61d9e8517fb7154" target="_top" xlink:title="reads a CBOR string">
<polygon fill="white" stroke="#666666" points="456.38,-245.57 335.38,-245.57 335.38,-213.57 456.38,-213.57 456.38,-245.57"/>
<text xml:space="preserve" text-anchor="start" x="343.38" y="-232.07" font-family="Helvetica,sans-Serif" font-size="10.00">nlohmann::detail::binary</text>
<text xml:space="preserve" text-anchor="middle" x="395.88" y="-220.07" font-family="Helvetica,sans-Serif" font-size="10.00">_reader::get_cbor_string</text>
</a>
</g>
</g>
<!-- Node1&#45;&gt;Node3 -->
<g id="edge2" class="edge">
<title>Node1&#45;&gt;Node3</title>
<path fill="none" stroke="#63b8ff" d="M101.39,-354.12C162.08,-328.36 279.44,-278.56 345.89,-250.36"/>
<polygon fill="#63b8ff" stroke="#63b8ff" points="346.87,-253.74 354.71,-246.62 344.14,-247.3 346.87,-253.74"/>
</g>
<!-- Node12 -->
<g id="node12" class="node">
<title>Node12</title>
<g id="a_node12"><a xlink:href="a01995.html#a4e4accd5a2a41bfb2f18a8a0fcc9421c" target="_top" xlink:title=" ">
<polygon fill="white" stroke="#666666" points="298.25,-386.57 159.25,-386.57 159.25,-354.57 298.25,-354.57 298.25,-386.57"/>
<text xml:space="preserve" text-anchor="start" x="167.25" y="-373.07" font-family="Helvetica,sans-Serif" font-size="10.00">nlohmann::detail::binary</text>
<text xml:space="preserve" text-anchor="middle" x="228.75" y="-361.07" font-family="Helvetica,sans-Serif" font-size="10.00">_reader::parse_cbor_internal</text>
</a>
</g>
</g>
<!-- Node1&#45;&gt;Node12 -->
<g id="edge19" class="edge">
<title>Node1&#45;&gt;Node12</title>
<path fill="none" stroke="#63b8ff" d="M123.64,-364.03C131.45,-363.87 139.53,-363.81 147.58,-363.82"/>
<polygon fill="#63b8ff" stroke="#63b8ff" points="147.37,-367.32 157.4,-363.89 147.42,-360.32 147.37,-367.32"/>
</g>
<!-- Node3&#45;&gt;Node2 -->
<g id="edge7" class="edge">
<title>Node3&#45;&gt;Node2</title>
<path fill="none" stroke="#63b8ff" d="M456.87,-219.84C504.91,-215.32 571.93,-216.69 619.75,-248.57 673.84,-284.62 698.96,-361.76 708.93,-403.08"/>
<polygon fill="#63b8ff" stroke="#63b8ff" points="705.49,-403.75 711.12,-412.73 712.32,-402.2 705.49,-403.75"/>
</g>
<!-- Node3&#45;&gt;Node3 -->
<g id="edge8" class="edge">
<title>Node3&#45;&gt;Node3</title>
<path fill="none" stroke="#63b8ff" d="M367.18,-246.01C361.82,-255.15 371.39,-263.57 395.88,-263.57 409.27,-263.57 418.2,-261.05 422.66,-257.28"/>
<polygon fill="#63b8ff" stroke="#63b8ff" points="426.1,-257.95 424.32,-247.5 419.2,-256.78 426.1,-257.95"/>
</g>
<!-- Node4 -->
<g id="node4" class="node">
<title>Node4</title>
<g id="a_node4"><a xlink:href="a01563.html#a137ea4d27de45d8a844fd13451d40f3d" target="_top" xlink:title="create a parse error exception">
<polygon fill="white" stroke="#666666" points="940.5,-201.57 823.25,-201.57 823.25,-169.57 940.5,-169.57 940.5,-201.57"/>
<text xml:space="preserve" text-anchor="start" x="831.25" y="-188.07" font-family="Helvetica,sans-Serif" font-size="10.00">nlohmann::detail::parse</text>
<text xml:space="preserve" text-anchor="middle" x="881.88" y="-176.07" font-family="Helvetica,sans-Serif" font-size="10.00">_error::create</text>
</a>
</g>
</g>
<!-- Node3&#45;&gt;Node4 -->
<g id="edge3" class="edge">
<title>Node3&#45;&gt;Node4</title>
<path fill="none" stroke="#63b8ff" d="M399.99,-213.18C407.96,-176.39 432.91,-87.62 493.5,-51.57 601.11,12.46 662.58,3.08 775.25,-51.57 821.23,-73.87 853.2,-126.96 869.17,-159.22"/>
<polygon fill="#63b8ff" stroke="#63b8ff" points="865.85,-160.4 873.31,-167.92 872.17,-157.39 865.85,-160.4"/>
</g>
<!-- Node7 -->
<g id="node7" class="node">
<title>Node7</title>
<g id="a_node7"><a xlink:href="a01995.html#a9c413c9a1bade1ce345740f4d69156f0" target="_top" xlink:title=" ">
<polygon fill="white" stroke="#666666" points="952.5,-339.57 811.25,-339.57 811.25,-307.57 952.5,-307.57 952.5,-339.57"/>
<text xml:space="preserve" text-anchor="start" x="819.25" y="-326.07" font-family="Helvetica,sans-Serif" font-size="10.00">nlohmann::detail::binary</text>
<text xml:space="preserve" text-anchor="middle" x="881.88" y="-314.07" font-family="Helvetica,sans-Serif" font-size="10.00">_reader::exception_message</text>
</a>
</g>
</g>
<!-- Node3&#45;&gt;Node7 -->
<g id="edge6" class="edge">
<title>Node3&#45;&gt;Node7</title>
<path fill="none" stroke="#63b8ff" d="M408.7,-213.2C425.01,-192.18 456.62,-156.73 493.5,-142.57 545.88,-122.46 565.45,-128.41 619.75,-142.57 721.12,-169 815.8,-255.83 857.92,-298.9"/>
<polygon fill="#63b8ff" stroke="#63b8ff" points="855.36,-301.28 864.81,-306.05 860.4,-296.42 855.36,-301.28"/>
</g>
<!-- Node8 -->
<g id="node8" class="node">
<title>Node8</title>
<g id="a_node8"><a xlink:href="a01995.html#ac356c6364fe0273d3303fb7a447f4ef6" target="_top" xlink:title=" ">
<polygon fill="white" stroke="#666666" points="616.38,-339.57 496.88,-339.57 496.88,-307.57 616.38,-307.57 616.38,-339.57"/>
<text xml:space="preserve" text-anchor="start" x="504.88" y="-326.07" font-family="Helvetica,sans-Serif" font-size="10.00">nlohmann::detail::binary</text>
<text xml:space="preserve" text-anchor="middle" x="556.62" y="-314.07" font-family="Helvetica,sans-Serif" font-size="10.00">_reader::get_number</text>
</a>
</g>
</g>
<!-- Node3&#45;&gt;Node8 -->
<g id="edge9" class="edge">
<title>Node3&#45;&gt;Node8</title>
<path fill="none" stroke="#63b8ff" d="M416.68,-245.86C435.59,-260.87 465.3,-283.11 493.5,-298.57 495.82,-299.84 498.22,-301.09 500.67,-302.3"/>
<polygon fill="#63b8ff" stroke="#63b8ff" points="499,-305.38 509.54,-306.43 501.96,-299.03 499,-305.38"/>
</g>
<!-- Node9 -->
<g id="node9" class="node">
<title>Node9</title>
<g id="a_node9"><a xlink:href="a01995.html#a61a0bd8bbe7b560bd429fa990ba3ba1a" target="_top" xlink:title=" ">
<polygon fill="white" stroke="#666666" points="775.25,-270.57 655.75,-270.57 655.75,-238.57 775.25,-238.57 775.25,-270.57"/>
<text xml:space="preserve" text-anchor="start" x="663.75" y="-257.07" font-family="Helvetica,sans-Serif" font-size="10.00">nlohmann::detail::binary</text>
<text xml:space="preserve" text-anchor="middle" x="715.5" y="-245.07" font-family="Helvetica,sans-Serif" font-size="10.00">_reader::unexpect_eof</text>
</a>
</g>
</g>
<!-- Node3&#45;&gt;Node9 -->
<g id="edge18" class="edge">
<title>Node3&#45;&gt;Node9</title>
<path fill="none" stroke="#63b8ff" d="M412.87,-213.24C430.71,-196.3 461.31,-170.88 493.5,-160.57 546.94,-143.45 567.87,-139.2 619.75,-160.57 653.12,-174.31 680.96,-206.13 697.64,-228.94"/>
<polygon fill="#63b8ff" stroke="#63b8ff" points="694.6,-230.69 703.22,-236.85 700.32,-226.66 694.6,-230.69"/>
</g>
<!-- Node10 -->
<g id="node10" class="node">
<title>Node10</title>
<g id="a_node10"><a xlink:href="a01995.html#a540919db22df36512f05a88945c13263" target="_top" xlink:title="create a string by reading characters from the input">
<polygon fill="white" stroke="#666666" points="616.38,-201.57 496.88,-201.57 496.88,-169.57 616.38,-169.57 616.38,-201.57"/>
<text xml:space="preserve" text-anchor="start" x="504.88" y="-188.07" font-family="Helvetica,sans-Serif" font-size="10.00">nlohmann::detail::binary</text>
<text xml:space="preserve" text-anchor="middle" x="556.62" y="-176.07" font-family="Helvetica,sans-Serif" font-size="10.00">_reader::get_string</text>
</a>
</g>
</g>
<!-- Node3&#45;&gt;Node10 -->
<g id="edge14" class="edge">
<title>Node3&#45;&gt;Node10</title>
<path fill="none" stroke="#63b8ff" d="M455.99,-213.19C465.6,-210.52 475.63,-207.74 485.47,-205.02"/>
<polygon fill="#63b8ff" stroke="#63b8ff" points="486.3,-208.42 495,-202.37 484.43,-201.67 486.3,-208.42"/>
</g>
<!-- Node11 -->
<g id="node11" class="node">
<title>Node11</title>
<g id="a_node11"><a xlink:href="a01995.html#a7d323283c60a0b89ee5eeadf5cb9a5ad" target="_top" xlink:title=" ">
<polygon fill="white" stroke="#666666" points="619.75,-289.57 493.5,-289.57 493.5,-257.57 619.75,-257.57 619.75,-289.57"/>
<text xml:space="preserve" text-anchor="start" x="501.5" y="-276.07" font-family="Helvetica,sans-Serif" font-size="10.00">nlohmann::detail::binary</text>
<text xml:space="preserve" text-anchor="middle" x="556.62" y="-264.07" font-family="Helvetica,sans-Serif" font-size="10.00">_reader::get_token_string</text>
</a>
</g>
</g>
<!-- Node3&#45;&gt;Node11 -->
<g id="edge17" class="edge">
<title>Node3&#45;&gt;Node11</title>
<path fill="none" stroke="#63b8ff" d="M455.99,-245.95C465.53,-248.6 475.49,-251.36 485.27,-254.07"/>
<polygon fill="#63b8ff" stroke="#63b8ff" points="484.17,-257.4 494.74,-256.69 486.04,-250.65 484.17,-257.4"/>
</g>
<!-- Node5 -->
<g id="node5" class="node">
<title>Node5</title>
<g id="a_node5"><a xlink:href="a01559.html#abf41a7e9178356314082284e6cfea278" target="_top" xlink:title=" ">
<polygon fill="white" stroke="#666666" points="1123.75,-226.57 988.5,-226.57 988.5,-194.57 1123.75,-194.57 1123.75,-226.57"/>
<text xml:space="preserve" text-anchor="start" x="996.5" y="-213.07" font-family="Helvetica,sans-Serif" font-size="10.00">nlohmann::detail::exception</text>
<text xml:space="preserve" text-anchor="middle" x="1056.12" y="-201.07" font-family="Helvetica,sans-Serif" font-size="10.00">::name</text>
</a>
</g>
</g>
<!-- Node4&#45;&gt;Node5 -->
<g id="edge4" class="edge">
<title>Node4&#45;&gt;Node5</title>
<path fill="none" stroke="#63b8ff" d="M940.71,-193.96C952.38,-195.66 964.84,-197.47 977.07,-199.24"/>
<polygon fill="#63b8ff" stroke="#63b8ff" points="976.32,-202.67 986.72,-200.64 977.33,-195.74 976.32,-202.67"/>
</g>
<!-- Node6 -->
<g id="node6" class="node">
<title>Node6</title>
<g id="a_node6"><a xlink:href="a01563.html#aefe74adeaa48781464ba2fd2ec63d221" target="_top" xlink:title=" ">
<polygon fill="white" stroke="#666666" points="1114.75,-176.57 997.5,-176.57 997.5,-144.57 1114.75,-144.57 1114.75,-176.57"/>
<text xml:space="preserve" text-anchor="start" x="1005.5" y="-163.07" font-family="Helvetica,sans-Serif" font-size="10.00">nlohmann::detail::parse</text>
<text xml:space="preserve" text-anchor="middle" x="1056.12" y="-151.07" font-family="Helvetica,sans-Serif" font-size="10.00">_error::position_string</text>
</a>
</g>
</g>
<!-- Node4&#45;&gt;Node6 -->
<g id="edge5" class="edge">
<title>Node4&#45;&gt;Node6</title>
<path fill="none" stroke="#63b8ff" d="M940.71,-177.18C955.2,-175.07 970.88,-172.8 985.86,-170.62"/>
<polygon fill="#63b8ff" stroke="#63b8ff" points="986.26,-174.1 995.65,-169.2 985.25,-167.17 986.26,-174.1"/>
</g>
<!-- Node8&#45;&gt;Node2 -->
<g id="edge10" class="edge">
<title>Node8&#45;&gt;Node2</title>
<path fill="none" stroke="#63b8ff" d="M581.79,-340.05C608.47,-358.25 651.58,-387.65 681.39,-407.99"/>
<polygon fill="#63b8ff" stroke="#63b8ff" points="679.08,-410.65 689.31,-413.39 683.02,-404.86 679.08,-410.65"/>
</g>
<!-- Node8&#45;&gt;Node9 -->
<g id="edge11" class="edge">
<title>Node8&#45;&gt;Node9</title>
<path fill="none" stroke="#63b8ff" d="M599.19,-307.19C606.08,-304.38 613.14,-301.43 619.75,-298.57 636.41,-291.36 654.52,-283.06 670.41,-275.63"/>
<polygon fill="#63b8ff" stroke="#63b8ff" points="671.56,-278.95 679.12,-271.53 668.58,-272.62 671.56,-278.95"/>
</g>
<!-- Node9&#45;&gt;Node4 -->
<g id="edge12" class="edge">
<title>Node9&#45;&gt;Node4</title>
<path fill="none" stroke="#63b8ff" d="M755.45,-238.22C778.11,-228.71 806.9,-216.62 831.18,-206.43"/>
<polygon fill="#63b8ff" stroke="#63b8ff" points="832.37,-209.73 840.23,-202.63 829.66,-203.27 832.37,-209.73"/>
</g>
<!-- Node9&#45;&gt;Node7 -->
<g id="edge13" class="edge">
<title>Node9&#45;&gt;Node7</title>
<path fill="none" stroke="#63b8ff" d="M755.45,-270.92C778.11,-280.43 806.9,-292.52 831.18,-302.71"/>
<polygon fill="#63b8ff" stroke="#63b8ff" points="829.66,-305.87 840.23,-306.51 832.37,-299.41 829.66,-305.87"/>
</g>
<!-- Node10&#45;&gt;Node2 -->
<g id="edge15" class="edge">
<title>Node10&#45;&gt;Node2</title>
<path fill="none" stroke="#63b8ff" d="M601.7,-201.94C608.29,-205.71 614.59,-210.23 619.75,-215.57 633.67,-229.98 682.06,-348.97 703.79,-403.48"/>
<polygon fill="#63b8ff" stroke="#63b8ff" points="700.49,-404.67 707.44,-412.67 707,-402.08 700.49,-404.67"/>
</g>
<!-- Node10&#45;&gt;Node9 -->
<g id="edge16" class="edge">
<title>Node10&#45;&gt;Node9</title>
<path fill="none" stroke="#63b8ff" d="M594.8,-201.92C616.33,-211.39 643.66,-223.41 666.76,-233.57"/>
<polygon fill="#63b8ff" stroke="#63b8ff" points="665.1,-236.66 675.66,-237.49 667.92,-230.26 665.1,-236.66"/>
</g>
<!-- Node12&#45;&gt;Node1 -->
<g id="edge37" class="edge">
<title>Node12&#45;&gt;Node1</title>
<path fill="none" stroke="#63b8ff" d="M158.91,-377.24C151.05,-377.33 143.01,-377.35 135.11,-377.27"/>
<polygon fill="#63b8ff" stroke="#63b8ff" points="135.2,-373.78 125.16,-377.13 135.1,-380.78 135.2,-373.78"/>
</g>
<!-- Node12&#45;&gt;Node2 -->
<g id="edge22" class="edge">
<title>Node12&#45;&gt;Node2</title>
<path fill="none" stroke="#63b8ff" d="M249.96,-386.94C270.06,-402.25 302.4,-424.39 334.25,-435.57 454.24,-477.69 493.56,-470.3 619.75,-454.57 629.01,-453.42 638.66,-451.65 648.11,-449.59"/>
<polygon fill="#63b8ff" stroke="#63b8ff" points="648.65,-453.06 657.6,-447.39 647.07,-446.24 648.65,-453.06"/>
</g>
<!-- Node12&#45;&gt;Node3 -->
<g id="edge38" class="edge">
<title>Node12&#45;&gt;Node3</title>
<path fill="none" stroke="#63b8ff" d="M249.02,-354.12C278.22,-329.18 333.84,-281.68 367.32,-253.1"/>
<polygon fill="#63b8ff" stroke="#63b8ff" points="369.25,-256.05 374.58,-246.9 364.7,-250.73 369.25,-256.05"/>
</g>
<!-- Node12&#45;&gt;Node4 -->
<g id="edge20" class="edge">
<title>Node12&#45;&gt;Node4</title>
<path fill="none" stroke="#63b8ff" d="M234.36,-354.49C253.35,-291.9 332.2,-65.04 493.5,-3.57 510.6,2.95 767.27,-0.93 775.25,-5.57 832.68,-38.95 862.03,-116.84 874.06,-158.36"/>
<polygon fill="#63b8ff" stroke="#63b8ff" points="870.63,-159.11 876.66,-167.82 877.38,-157.25 870.63,-159.11"/>
</g>
<!-- Node12&#45;&gt;Node7 -->
<g id="edge21" class="edge">
<title>Node12&#45;&gt;Node7</title>
<path fill="none" stroke="#63b8ff" d="M230.55,-386.95C233.86,-434.1 250.57,-570.35 334.25,-626.57 379.72,-657.12 402.78,-629.09 457.5,-626.57 603.42,-619.84 670.33,-644.21 775.25,-542.57 831.89,-487.7 862.11,-396.3 874.31,-350.89"/>
<polygon fill="#63b8ff" stroke="#63b8ff" points="877.66,-351.91 876.78,-341.35 870.89,-350.15 877.66,-351.91"/>
</g>
<!-- Node12&#45;&gt;Node8 -->
<g id="edge39" class="edge">
<title>Node12&#45;&gt;Node8</title>
<path fill="none" stroke="#63b8ff" d="M298.46,-360.66C353.4,-352.74 430.13,-341.67 485.45,-333.69"/>
<polygon fill="#63b8ff" stroke="#63b8ff" points="485.67,-337.2 495.07,-332.3 484.67,-330.27 485.67,-337.2"/>
</g>
<!-- Node12&#45;&gt;Node9 -->
<g id="edge42" class="edge">
<title>Node12&#45;&gt;Node9</title>
<path fill="none" stroke="#63b8ff" d="M235.9,-354.24C249.04,-321.41 282.91,-246.95 334.25,-204.57 392.82,-156.22 418.85,-156.59 493.5,-142.57 548.65,-132.21 568.85,-118.96 619.75,-142.57 657.48,-160.07 685.64,-200.83 701.07,-228.04"/>
<polygon fill="#63b8ff" stroke="#63b8ff" points="697.96,-229.64 705.82,-236.75 704.11,-226.29 697.96,-229.64"/>
</g>
<!-- Node12&#45;&gt;Node11 -->
<g id="edge40" class="edge">
<title>Node12&#45;&gt;Node11</title>
<path fill="none" stroke="#63b8ff" d="M275.58,-354.08C293.77,-347.73 314.91,-340.56 334.25,-334.57 383.29,-319.38 439.02,-304.04 482.29,-292.54"/>
<polygon fill="#63b8ff" stroke="#63b8ff" points="483.06,-295.95 491.83,-290.01 481.27,-289.19 483.06,-295.95"/>
</g>
<!-- Node12&#45;&gt;Node12 -->
<g id="edge41" class="edge">
<title>Node12&#45;&gt;Node12</title>
<path fill="none" stroke="#63b8ff" d="M198.91,-387.01C193.34,-396.15 203.29,-404.57 228.75,-404.57 242.67,-404.57 251.96,-402.05 256.6,-398.28"/>
<polygon fill="#63b8ff" stroke="#63b8ff" points="260.03,-398.96 258.32,-388.5 253.14,-397.74 260.03,-398.96"/>
</g>
<!-- Node13 -->
<g id="node13" class="node">
<title>Node13</title>
<g id="a_node13"><a xlink:href="a01995.html#a3750658328bf3ec3cf23f1626f9ec3af" target="_top" xlink:title=" ">
<polygon fill="white" stroke="#666666" points="455.62,-617.57 336.12,-617.57 336.12,-585.57 455.62,-585.57 455.62,-617.57"/>
<text xml:space="preserve" text-anchor="start" x="344.12" y="-604.07" font-family="Helvetica,sans-Serif" font-size="10.00">nlohmann::detail::binary</text>
<text xml:space="preserve" text-anchor="middle" x="395.88" y="-592.07" font-family="Helvetica,sans-Serif" font-size="10.00">_reader::get_cbor_array</text>
</a>
</g>
</g>
<!-- Node12&#45;&gt;Node13 -->
<g id="edge23" class="edge">
<title>Node12&#45;&gt;Node13</title>
<path fill="none" stroke="#63b8ff" d="M235.97,-386.86C248.51,-423.08 280.32,-509.71 334.25,-562.57 341.44,-569.62 350.61,-575.31 359.64,-580.1"/>
<polygon fill="#63b8ff" stroke="#63b8ff" points="357.79,-583.09 368.29,-584.47 360.94,-576.84 357.79,-583.09"/>
</g>
<!-- Node14 -->
<g id="node14" class="node">
<title>Node14</title>
<g id="a_node14"><a xlink:href="a01995.html#acb001d18095dc5bcf7336ae5122b8340" target="_top" xlink:title="reads a CBOR byte array">
<polygon fill="white" stroke="#666666" points="457.5,-408.57 334.25,-408.57 334.25,-376.57 457.5,-376.57 457.5,-408.57"/>
<text xml:space="preserve" text-anchor="start" x="342.25" y="-395.07" font-family="Helvetica,sans-Serif" font-size="10.00">nlohmann::detail::binary</text>
<text xml:space="preserve" text-anchor="middle" x="395.88" y="-383.07" font-family="Helvetica,sans-Serif" font-size="10.00">_reader::get_cbor_binary</text>
</a>
</g>
</g>
<!-- Node12&#45;&gt;Node14 -->
<g id="edge26" class="edge">
<title>Node12&#45;&gt;Node14</title>
<path fill="none" stroke="#63b8ff" d="M298.34,-379.71C306.35,-380.78 314.54,-381.87 322.6,-382.94"/>
<polygon fill="#63b8ff" stroke="#63b8ff" points="322,-386.39 332.37,-384.24 322.92,-379.45 322,-386.39"/>
</g>
<!-- Node13&#45;&gt;Node2 -->
<g id="edge24" class="edge">
<title>Node13&#45;&gt;Node2</title>
<path fill="none" stroke="#63b8ff" d="M455.75,-610.61C503.44,-614.87 570.56,-613.63 619.75,-583.57 666.78,-554.83 693.99,-493.05 706.36,-457.41"/>
<polygon fill="#63b8ff" stroke="#63b8ff" points="709.56,-458.86 709.38,-448.27 702.92,-456.66 709.56,-458.86"/>
</g>
<!-- Node13&#45;&gt;Node12 -->
<g id="edge25" class="edge">
<title>Node13&#45;&gt;Node12</title>
<path fill="none" stroke="#63b8ff" d="M339.58,-585.28C337.71,-583.78 335.93,-582.21 334.25,-580.57 280.61,-527.99 248.84,-441.99 236.17,-397.96"/>
<polygon fill="#63b8ff" stroke="#63b8ff" points="239.57,-397.15 233.56,-388.43 232.82,-399 239.57,-397.15"/>
</g>
<!-- Node14&#45;&gt;Node2 -->
<g id="edge29" class="edge">
<title>Node14&#45;&gt;Node2</title>
<path fill="none" stroke="#63b8ff" d="M424.52,-409.01C443.26,-419.17 469,-431.25 493.5,-436.57 543.08,-447.33 600.38,-445.38 644.21,-440.97"/>
<polygon fill="#63b8ff" stroke="#63b8ff" points="644.56,-444.46 654.12,-439.9 643.8,-437.5 644.56,-444.46"/>
</g>
<!-- Node14&#45;&gt;Node4 -->
<g id="edge27" class="edge">
<title>Node14&#45;&gt;Node4</title>
<path fill="none" stroke="#63b8ff" d="M415.24,-408.93C433.58,-424.1 463.31,-445.62 493.5,-454.57 613.55,-490.18 677.31,-533.6 775.25,-455.57 831.24,-410.96 784.11,-364.82 811.25,-298.57 824.35,-266.58 846.01,-233.28 861.7,-211.19"/>
<polygon fill="#63b8ff" stroke="#63b8ff" points="864.52,-213.25 867.54,-203.1 858.85,-209.15 864.52,-213.25"/>
</g>
<!-- Node14&#45;&gt;Node7 -->
<g id="edge28" class="edge">
<title>Node14&#45;&gt;Node7</title>
<path fill="none" stroke="#63b8ff" d="M404.74,-409.07C418.45,-435.66 449.53,-487.09 493.5,-507.57 607.01,-560.45 666.88,-570.32 775.25,-507.57 833.96,-473.58 862.87,-393.25 874.46,-350.86"/>
<polygon fill="#63b8ff" stroke="#63b8ff" points="877.78,-352 876.9,-341.45 871.01,-350.25 877.78,-352"/>
</g>
<!-- Node14&#45;&gt;Node8 -->
<g id="edge34" class="edge">
<title>Node14&#45;&gt;Node8</title>
<path fill="none" stroke="#63b8ff" d="M434.5,-376.22C456.28,-366.75 483.94,-354.73 507.32,-344.57"/>
<polygon fill="#63b8ff" stroke="#63b8ff" points="508.56,-347.84 516.34,-340.65 505.77,-341.42 508.56,-347.84"/>
</g>
<!-- Node14&#45;&gt;Node9 -->
<g id="edge36" class="edge">
<title>Node14&#45;&gt;Node9</title>
<path fill="none" stroke="#63b8ff" d="M457.76,-390.05C504.45,-385.95 569.24,-375.39 619.75,-348.57 651.13,-331.91 678.9,-301.49 696.14,-279.77"/>
<polygon fill="#63b8ff" stroke="#63b8ff" points="698.82,-282.02 702.15,-271.97 693.28,-277.75 698.82,-282.02"/>
</g>
<!-- Node14&#45;&gt;Node11 -->
<g id="edge35" class="edge">
<title>Node14&#45;&gt;Node11</title>
<path fill="none" stroke="#63b8ff" d="M410.06,-376.3C427.37,-355.82 459.57,-320.66 493.5,-298.57 495.33,-297.38 497.22,-296.23 499.16,-295.12"/>
<polygon fill="#63b8ff" stroke="#63b8ff" points="500.55,-298.34 507.8,-290.62 497.32,-292.13 500.55,-298.34"/>
</g>
<!-- Node14&#45;&gt;Node14 -->
<g id="edge33" class="edge">
<title>Node14&#45;&gt;Node14</title>
<path fill="none" stroke="#63b8ff" d="M367.18,-409.01C361.82,-418.15 371.39,-426.57 395.88,-426.57 409.27,-426.57 418.2,-424.05 422.66,-420.28"/>
<polygon fill="#63b8ff" stroke="#63b8ff" points="426.1,-420.95 424.32,-410.5 419.2,-419.78 426.1,-420.95"/>
</g>
<!-- Node15 -->
<g id="node15" class="node">
<title>Node15</title>
<g id="a_node15"><a xlink:href="a01995.html#a55e13d567a53234573ab3833c0ca32e9" target="_top" xlink:title="create a byte array by reading bytes from the input">
<polygon fill="white" stroke="#666666" points="616.38,-427.57 496.88,-427.57 496.88,-395.57 616.38,-395.57 616.38,-427.57"/>
<text xml:space="preserve" text-anchor="start" x="504.88" y="-414.07" font-family="Helvetica,sans-Serif" font-size="10.00">nlohmann::detail::binary</text>
<text xml:space="preserve" text-anchor="middle" x="556.62" y="-402.07" font-family="Helvetica,sans-Serif" font-size="10.00">_reader::get_binary</text>
</a>
</g>
</g>
<!-- Node14&#45;&gt;Node15 -->
<g id="edge30" class="edge">
<title>Node14&#45;&gt;Node15</title>
<path fill="none" stroke="#63b8ff" d="M457.8,-399.86C466.71,-400.93 475.96,-402.03 485.04,-403.12"/>
<polygon fill="#63b8ff" stroke="#63b8ff" points="484.59,-406.59 494.93,-404.31 485.42,-399.64 484.59,-406.59"/>
</g>
<!-- Node15&#45;&gt;Node2 -->
<g id="edge31" class="edge">
<title>Node15&#45;&gt;Node2</title>
<path fill="none" stroke="#63b8ff" d="M616.49,-418.7C625.51,-419.79 634.9,-420.93 644.15,-422.05"/>
<polygon fill="#63b8ff" stroke="#63b8ff" points="643.46,-425.49 653.81,-423.22 644.3,-418.54 643.46,-425.49"/>
</g>
<!-- Node15&#45;&gt;Node9 -->
<g id="edge32" class="edge">
<title>Node15&#45;&gt;Node9</title>
<path fill="none" stroke="#63b8ff" d="M598.76,-395.18C606.14,-391.3 613.47,-386.75 619.75,-381.57 654.56,-352.85 683.66,-308.79 700.08,-280.84"/>
<polygon fill="#63b8ff" stroke="#63b8ff" points="703.04,-282.71 704.98,-272.3 696.97,-279.23 703.04,-282.71"/>
</g>
</g>
</svg>
