<?xml version="1.0" encoding="UTF-8" standalone="no"?>
<!DOCTYPE svg PUBLIC "-//W3C//DTD SVG 1.1//EN"
 "http://www.w3.org/Graphics/SVG/1.1/DTD/svg11.dtd">
<!-- Generated by graphviz version 13.1.2 (20250808.2320)
 -->
<!-- Title: nlohmann::detail::binary_reader::parse_bson_element_internal Pages: 1 -->
<svg width="1194pt" height="534pt"
 viewBox="0.00 0.00 1194.00 534.00" xmlns="http://www.w3.org/2000/svg" xmlns:xlink="http://www.w3.org/1999/xlink">
<g id="graph0" class="graph" transform="scale(1 1) rotate(0) translate(4 530.1)">
<title>nlohmann::detail::binary_reader::parse_bson_element_internal</title>
<!-- Node1 -->
<g id="node1" class="node">
<title>Node1</title>
<g id="a_node1"><a xlink:title="Read a BSON document element of the given element_type.">
<polygon fill="#999999" stroke="#666666" points="144.25,-290.1 0,-290.1 0,-246.1 144.25,-246.1 144.25,-290.1"/>
<text xml:space="preserve" text-anchor="start" x="8" y="-276.6" font-family="Helvetica,sans-Serif" font-size="10.00">nlohmann::detail::binary</text>
<text xml:space="preserve" text-anchor="start" x="8" y="-264.6" font-family="Helvetica,sans-Serif" font-size="10.00">_reader::parse_bson_element</text>
<text xml:space="preserve" text-anchor="middle" x="72.12" y="-252.6" font-family="Helvetica,sans-Serif" font-size="10.00">_internal</text>
</a>
</g>
</g>
<!-- Node2 -->
<g id="node2" class="node">
<title>Node2</title>
<g id="a_node2"><a xlink:href="a01563.html#a137ea4d27de45d8a844fd13451d40f3d" target="_top" xlink:title="create a parse error exception">
<polygon fill="white" stroke="#666666" points="1002.75,-466.1 885.5,-466.1 885.5,-434.1 1002.75,-434.1 1002.75,-466.1"/>
<text xml:space="preserve" text-anchor="start" x="893.5" y="-452.6" font-family="Helvetica,sans-Serif" font-size="10.00">nlohmann::detail::parse</text>
<text xml:space="preserve" text-anchor="middle" x="944.12" y="-440.6" font-family="Helvetica,sans-Serif" font-size="10.00">_error::create</text>
</a>
</g>
</g>
<!-- Node1&#45;&gt;Node2 -->
<g id="edge1" class="edge">
<title>Node1&#45;&gt;Node2</title>
<path fill="none" stroke="#63b8ff" d="M88.76,-290.55C134.51,-353.32 275.2,-526.1 437.62,-526.1 437.62,-526.1 437.62,-526.1 619.88,-526.1 718.06,-526.1 742.59,-513.26 837.5,-488.1 855.6,-483.31 874.98,-476.76 892.15,-470.45"/>
<polygon fill="#63b8ff" stroke="#63b8ff" points="892.96,-473.88 901.1,-467.1 890.5,-467.33 892.96,-473.88"/>
</g>
<!-- Node5 -->
<g id="node5" class="node">
<title>Node5</title>
<g id="a_node5"><a xlink:href="a01995.html#ad222095c0b21a87824cb10629299629a" target="_top" xlink:title="get next character from the input">
<polygon fill="white" stroke="#666666" points="837.5,-218.1 718,-218.1 718,-186.1 837.5,-186.1 837.5,-218.1"/>
<text xml:space="preserve" text-anchor="start" x="726" y="-204.6" font-family="Helvetica,sans-Serif" font-size="10.00">nlohmann::detail::binary</text>
<text xml:space="preserve" text-anchor="middle" x="777.75" y="-192.6" font-family="Helvetica,sans-Serif" font-size="10.00">_reader::get</text>
</a>
</g>
</g>
<!-- Node1&#45;&gt;Node5 -->
<g id="edge4" class="edge">
<title>Node1&#45;&gt;Node5</title>
<path fill="none" stroke="#63b8ff" d="M98.39,-245.93C119.16,-228.67 149.99,-205.19 180.25,-190.1 253.95,-153.36 276.05,-148.24 357.5,-136.1 500.17,-114.85 544.26,-98.28 682,-141.1 706.98,-148.87 731.71,-165.16 749.64,-178.95"/>
<polygon fill="#63b8ff" stroke="#63b8ff" points="747.17,-181.46 757.17,-184.94 751.52,-175.98 747.17,-181.46"/>
</g>
<!-- Node6 -->
<g id="node6" class="node">
<title>Node6</title>
<g id="a_node6"><a xlink:href="a01995.html#a9940f56290b9278c58772eda2931e599" target="_top" xlink:title="Parses a byte array input of length len from the BSON input.">
<polygon fill="white" stroke="#666666" points="501.38,-422.1 375.88,-422.1 375.88,-390.1 501.38,-390.1 501.38,-422.1"/>
<text xml:space="preserve" text-anchor="start" x="383.88" y="-408.6" font-family="Helvetica,sans-Serif" font-size="10.00">nlohmann::detail::binary</text>
<text xml:space="preserve" text-anchor="middle" x="438.62" y="-396.6" font-family="Helvetica,sans-Serif" font-size="10.00">_reader::get_bson_binary</text>
</a>
</g>
</g>
<!-- Node1&#45;&gt;Node6 -->
<g id="edge5" class="edge">
<title>Node1&#45;&gt;Node6</title>
<path fill="none" stroke="#63b8ff" d="M99.17,-290.51C119.88,-307.26 150.26,-329.52 180.25,-343.1 239.29,-369.86 311.32,-386.25 364.14,-395.57"/>
<polygon fill="#63b8ff" stroke="#63b8ff" points="363.51,-399.02 373.96,-397.26 364.69,-392.12 363.51,-399.02"/>
</g>
<!-- Node11 -->
<g id="node11" class="node">
<title>Node11</title>
<g id="a_node11"><a xlink:href="a01995.html#a23921422802aa472360dd05023e20565" target="_top" xlink:title="Parses a zero&#45;terminated string of length len from the BSON input.">
<polygon fill="white" stroke="#666666" points="500.25,-177.1 377,-177.1 377,-145.1 500.25,-145.1 500.25,-177.1"/>
<text xml:space="preserve" text-anchor="start" x="385" y="-163.6" font-family="Helvetica,sans-Serif" font-size="10.00">nlohmann::detail::binary</text>
<text xml:space="preserve" text-anchor="middle" x="438.62" y="-151.6" font-family="Helvetica,sans-Serif" font-size="10.00">_reader::get_bson_string</text>
</a>
</g>
</g>
<!-- Node1&#45;&gt;Node11 -->
<g id="edge14" class="edge">
<title>Node1&#45;&gt;Node11</title>
<path fill="none" stroke="#63b8ff" d="M142.75,-245.66C155.22,-241.74 168.1,-237.75 180.25,-234.1 243.03,-215.24 314.82,-194.99 366.6,-180.61"/>
<polygon fill="#63b8ff" stroke="#63b8ff" points="367.51,-183.99 376.21,-177.95 365.64,-177.25 367.51,-183.99"/>
</g>
<!-- Node13 -->
<g id="node13" class="node">
<title>Node13</title>
<g id="a_node13"><a xlink:href="a01995.html#a23eb89a222e22533e9fd43e76722f44f" target="_top" xlink:title="Reads an array from the BSON input and passes it to the SAX&#45;parser.">
<polygon fill="white" stroke="#666666" points="316.62,-284.1 185.12,-284.1 185.12,-252.1 316.62,-252.1 316.62,-284.1"/>
<text xml:space="preserve" text-anchor="start" x="193.12" y="-270.6" font-family="Helvetica,sans-Serif" font-size="10.00">nlohmann::detail::binary</text>
<text xml:space="preserve" text-anchor="middle" x="250.88" y="-258.6" font-family="Helvetica,sans-Serif" font-size="10.00">_reader::parse_bson_array</text>
</a>
</g>
</g>
<!-- Node1&#45;&gt;Node13 -->
<g id="edge22" class="edge">
<title>Node1&#45;&gt;Node13</title>
<path fill="none" stroke="#63b8ff" d="M144.51,-268.1C154.08,-268.1 163.93,-268.1 173.58,-268.1"/>
<polygon fill="#63b8ff" stroke="#63b8ff" points="173.28,-271.6 183.28,-268.1 173.28,-264.6 173.28,-271.6"/>
</g>
<!-- Node16 -->
<g id="node16" class="node">
<title>Node16</title>
<g id="a_node16"><a xlink:href="a01995.html#abf2051ba57d9ea9b378a2e7c14e22b34" target="_top" xlink:title="Reads in a BSON&#45;object and passes it to the SAX&#45;parser.">
<polygon fill="white" stroke="#666666" points="321.5,-334.1 180.25,-334.1 180.25,-302.1 321.5,-302.1 321.5,-334.1"/>
<text xml:space="preserve" text-anchor="start" x="188.25" y="-320.6" font-family="Helvetica,sans-Serif" font-size="10.00">nlohmann::detail::binary</text>
<text xml:space="preserve" text-anchor="middle" x="250.88" y="-308.6" font-family="Helvetica,sans-Serif" font-size="10.00">_reader::parse_bson_internal</text>
</a>
</g>
</g>
<!-- Node1&#45;&gt;Node16 -->
<g id="edge30" class="edge">
<title>Node1&#45;&gt;Node16</title>
<path fill="none" stroke="#63b8ff" d="M144.51,-288.3C156.54,-291.7 169,-295.23 180.97,-298.61"/>
<polygon fill="#63b8ff" stroke="#63b8ff" points="179.76,-301.91 190.33,-301.26 181.66,-295.17 179.76,-301.91"/>
</g>
<!-- Node3 -->
<g id="node3" class="node">
<title>Node3</title>
<g id="a_node3"><a xlink:href="a01559.html#abf41a7e9178356314082284e6cfea278" target="_top" xlink:title=" ">
<polygon fill="white" stroke="#666666" points="1186,-491.1 1050.75,-491.1 1050.75,-459.1 1186,-459.1 1186,-491.1"/>
<text xml:space="preserve" text-anchor="start" x="1058.75" y="-477.6" font-family="Helvetica,sans-Serif" font-size="10.00">nlohmann::detail::exception</text>
<text xml:space="preserve" text-anchor="middle" x="1118.38" y="-465.6" font-family="Helvetica,sans-Serif" font-size="10.00">::name</text>
</a>
</g>
</g>
<!-- Node2&#45;&gt;Node3 -->
<g id="edge2" class="edge">
<title>Node2&#45;&gt;Node3</title>
<path fill="none" stroke="#63b8ff" d="M1002.96,-458.5C1014.63,-460.19 1027.09,-462 1039.32,-463.78"/>
<polygon fill="#63b8ff" stroke="#63b8ff" points="1038.57,-467.2 1048.97,-465.18 1039.58,-460.28 1038.57,-467.2"/>
</g>
<!-- Node4 -->
<g id="node4" class="node">
<title>Node4</title>
<g id="a_node4"><a xlink:href="a01563.html#aefe74adeaa48781464ba2fd2ec63d221" target="_top" xlink:title=" ">
<polygon fill="white" stroke="#666666" points="1177,-441.1 1059.75,-441.1 1059.75,-409.1 1177,-409.1 1177,-441.1"/>
<text xml:space="preserve" text-anchor="start" x="1067.75" y="-427.6" font-family="Helvetica,sans-Serif" font-size="10.00">nlohmann::detail::parse</text>
<text xml:space="preserve" text-anchor="middle" x="1118.38" y="-415.6" font-family="Helvetica,sans-Serif" font-size="10.00">_error::position_string</text>
</a>
</g>
</g>
<!-- Node2&#45;&gt;Node4 -->
<g id="edge3" class="edge">
<title>Node2&#45;&gt;Node4</title>
<path fill="none" stroke="#63b8ff" d="M1002.96,-441.71C1017.45,-439.61 1033.13,-437.33 1048.11,-435.16"/>
<polygon fill="#63b8ff" stroke="#63b8ff" points="1048.51,-438.64 1057.9,-433.74 1047.5,-431.71 1048.51,-438.64"/>
</g>
<!-- Node6&#45;&gt;Node2 -->
<g id="edge6" class="edge">
<title>Node6&#45;&gt;Node2</title>
<path fill="none" stroke="#63b8ff" d="M464.15,-422.6C486.81,-436.77 521.97,-456.14 555.75,-464.1 664.69,-489.8 795.58,-476.2 873.92,-463.51"/>
<polygon fill="#63b8ff" stroke="#63b8ff" points="874.31,-467 883.6,-461.9 873.16,-460.09 874.31,-467"/>
</g>
<!-- Node7 -->
<g id="node7" class="node">
<title>Node7</title>
<g id="a_node7"><a xlink:href="a01995.html#a9c413c9a1bade1ce345740f4d69156f0" target="_top" xlink:title=" ">
<polygon fill="white" stroke="#666666" points="1014.75,-378.1 873.5,-378.1 873.5,-346.1 1014.75,-346.1 1014.75,-378.1"/>
<text xml:space="preserve" text-anchor="start" x="881.5" y="-364.6" font-family="Helvetica,sans-Serif" font-size="10.00">nlohmann::detail::binary</text>
<text xml:space="preserve" text-anchor="middle" x="944.12" y="-352.6" font-family="Helvetica,sans-Serif" font-size="10.00">_reader::exception_message</text>
</a>
</g>
</g>
<!-- Node6&#45;&gt;Node7 -->
<g id="edge7" class="edge">
<title>Node6&#45;&gt;Node7</title>
<path fill="none" stroke="#63b8ff" d="M501.61,-421.99C519,-425.75 538.01,-429.22 555.75,-431.1 611.55,-437.04 626.36,-438.33 682,-431.1 753.2,-421.86 832.63,-398.99 884.99,-382.1"/>
<polygon fill="#63b8ff" stroke="#63b8ff" points="885.88,-385.49 894.3,-379.06 883.71,-378.84 885.88,-385.49"/>
</g>
<!-- Node8 -->
<g id="node8" class="node">
<title>Node8</title>
<g id="a_node8"><a xlink:href="a01995.html#a55e13d567a53234573ab3833c0ca32e9" target="_top" xlink:title="create a byte array by reading bytes from the input">
<polygon fill="white" stroke="#666666" points="678.62,-422.1 559.12,-422.1 559.12,-390.1 678.62,-390.1 678.62,-422.1"/>
<text xml:space="preserve" text-anchor="start" x="567.12" y="-408.6" font-family="Helvetica,sans-Serif" font-size="10.00">nlohmann::detail::binary</text>
<text xml:space="preserve" text-anchor="middle" x="618.88" y="-396.6" font-family="Helvetica,sans-Serif" font-size="10.00">_reader::get_binary</text>
</a>
</g>
</g>
<!-- Node6&#45;&gt;Node8 -->
<g id="edge8" class="edge">
<title>Node6&#45;&gt;Node8</title>
<path fill="none" stroke="#63b8ff" d="M501.47,-406.1C516.29,-406.1 532.23,-406.1 547.41,-406.1"/>
<polygon fill="#63b8ff" stroke="#63b8ff" points="547.33,-409.6 557.33,-406.1 547.33,-402.6 547.33,-409.6"/>
</g>
<!-- Node10 -->
<g id="node10" class="node">
<title>Node10</title>
<g id="a_node10"><a xlink:href="a01995.html#a7d323283c60a0b89ee5eeadf5cb9a5ad" target="_top" xlink:title=" ">
<polygon fill="white" stroke="#666666" points="682,-334.1 555.75,-334.1 555.75,-302.1 682,-302.1 682,-334.1"/>
<text xml:space="preserve" text-anchor="start" x="563.75" y="-320.6" font-family="Helvetica,sans-Serif" font-size="10.00">nlohmann::detail::binary</text>
<text xml:space="preserve" text-anchor="middle" x="618.88" y="-308.6" font-family="Helvetica,sans-Serif" font-size="10.00">_reader::get_token_string</text>
</a>
</g>
</g>
<!-- Node6&#45;&gt;Node10 -->
<g id="edge13" class="edge">
<title>Node6&#45;&gt;Node10</title>
<path fill="none" stroke="#63b8ff" d="M472.73,-389.76C501.41,-375.6 543.09,-355.02 574.44,-339.55"/>
<polygon fill="#63b8ff" stroke="#63b8ff" points="575.87,-342.75 583.28,-335.18 572.77,-336.47 575.87,-342.75"/>
</g>
<!-- Node8&#45;&gt;Node5 -->
<g id="edge9" class="edge">
<title>Node8&#45;&gt;Node5</title>
<path fill="none" stroke="#63b8ff" d="M637.65,-389.8C650.59,-377.53 668.2,-360 682,-343.1 712.91,-305.27 743.49,-257.36 761.23,-228.25"/>
<polygon fill="#63b8ff" stroke="#63b8ff" points="764.2,-230.1 766.37,-219.73 758.21,-226.48 764.2,-230.1"/>
</g>
<!-- Node9 -->
<g id="node9" class="node">
<title>Node9</title>
<g id="a_node9"><a xlink:href="a01995.html#a61a0bd8bbe7b560bd429fa990ba3ba1a" target="_top" xlink:title=" ">
<polygon fill="white" stroke="#666666" points="837.5,-378.1 718,-378.1 718,-346.1 837.5,-346.1 837.5,-378.1"/>
<text xml:space="preserve" text-anchor="start" x="726" y="-364.6" font-family="Helvetica,sans-Serif" font-size="10.00">nlohmann::detail::binary</text>
<text xml:space="preserve" text-anchor="middle" x="777.75" y="-352.6" font-family="Helvetica,sans-Serif" font-size="10.00">_reader::unexpect_eof</text>
</a>
</g>
</g>
<!-- Node8&#45;&gt;Node9 -->
<g id="edge10" class="edge">
<title>Node8&#45;&gt;Node9</title>
<path fill="none" stroke="#63b8ff" d="M678.29,-389.72C687.72,-387.07 697.56,-384.31 707.23,-381.6"/>
<polygon fill="#63b8ff" stroke="#63b8ff" points="707.88,-385.05 716.57,-378.98 705.99,-378.31 707.88,-385.05"/>
</g>
<!-- Node9&#45;&gt;Node2 -->
<g id="edge11" class="edge">
<title>Node9&#45;&gt;Node2</title>
<path fill="none" stroke="#63b8ff" d="M809.28,-378.45C835.61,-392.54 873.83,-413.01 902.69,-428.46"/>
<polygon fill="#63b8ff" stroke="#63b8ff" points="900.68,-431.35 911.14,-432.98 903.98,-425.18 900.68,-431.35"/>
</g>
<!-- Node9&#45;&gt;Node7 -->
<g id="edge12" class="edge">
<title>Node9&#45;&gt;Node7</title>
<path fill="none" stroke="#63b8ff" d="M837.63,-362.1C845.46,-362.1 853.59,-362.1 861.71,-362.1"/>
<polygon fill="#63b8ff" stroke="#63b8ff" points="861.65,-365.6 871.65,-362.1 861.65,-358.6 861.65,-365.6"/>
</g>
<!-- Node11&#45;&gt;Node2 -->
<g id="edge15" class="edge">
<title>Node11&#45;&gt;Node2</title>
<path fill="none" stroke="#63b8ff" d="M487.35,-144.7C571.85,-119.04 747.34,-81.58 837.5,-177.1 902.5,-245.97 827.89,-304.12 873.5,-387.1 881.98,-402.54 895.71,-416.17 908.74,-426.77"/>
<polygon fill="#63b8ff" stroke="#63b8ff" points="906.34,-429.33 916.39,-432.68 910.62,-423.79 906.34,-429.33"/>
</g>
<!-- Node11&#45;&gt;Node5 -->
<g id="edge17" class="edge">
<title>Node11&#45;&gt;Node5</title>
<path fill="none" stroke="#63b8ff" d="M500.51,-151.18C550.06,-145.1 621.45,-140.91 682,-155.1 703.07,-160.04 724.83,-170.4 742.17,-180.13"/>
<polygon fill="#63b8ff" stroke="#63b8ff" points="740.11,-182.99 750.52,-184.99 743.63,-176.94 740.11,-182.99"/>
</g>
<!-- Node11&#45;&gt;Node7 -->
<g id="edge16" class="edge">
<title>Node11&#45;&gt;Node7</title>
<path fill="none" stroke="#63b8ff" d="M449.69,-144.94C467.34,-118.35 506.68,-66.29 555.75,-46.1 671.56,1.53 735.88,27.07 837.5,-46.1 932.11,-114.24 943.22,-270.98 943.66,-334.56"/>
<polygon fill="#63b8ff" stroke="#63b8ff" points="940.16,-334.45 943.64,-344.46 947.16,-334.47 940.16,-334.45"/>
</g>
<!-- Node11&#45;&gt;Node10 -->
<g id="edge21" class="edge">
<title>Node11&#45;&gt;Node10</title>
<path fill="none" stroke="#63b8ff" d="M456.97,-177.37C473.74,-193.44 499.52,-219.03 519.75,-243.1 537.37,-264.07 534.2,-276.21 555.75,-293.1 557.04,-294.11 558.37,-295.09 559.74,-296.02"/>
<polygon fill="#63b8ff" stroke="#63b8ff" points="557.56,-298.79 567.93,-300.95 561.16,-292.79 557.56,-298.79"/>
</g>
<!-- Node12 -->
<g id="node12" class="node">
<title>Node12</title>
<g id="a_node12"><a xlink:href="a01995.html#a540919db22df36512f05a88945c13263" target="_top" xlink:title="create a string by reading characters from the input">
<polygon fill="white" stroke="#666666" points="678.62,-196.1 559.12,-196.1 559.12,-164.1 678.62,-164.1 678.62,-196.1"/>
<text xml:space="preserve" text-anchor="start" x="567.12" y="-182.6" font-family="Helvetica,sans-Serif" font-size="10.00">nlohmann::detail::binary</text>
<text xml:space="preserve" text-anchor="middle" x="618.88" y="-170.6" font-family="Helvetica,sans-Serif" font-size="10.00">_reader::get_string</text>
</a>
</g>
</g>
<!-- Node11&#45;&gt;Node12 -->
<g id="edge18" class="edge">
<title>Node11&#45;&gt;Node12</title>
<path fill="none" stroke="#63b8ff" d="M500.47,-167.59C515.65,-169.21 532.04,-170.95 547.63,-172.62"/>
<polygon fill="#63b8ff" stroke="#63b8ff" points="546.99,-176.07 557.31,-173.65 547.73,-169.11 546.99,-176.07"/>
</g>
<!-- Node12&#45;&gt;Node5 -->
<g id="edge19" class="edge">
<title>Node12&#45;&gt;Node5</title>
<path fill="none" stroke="#63b8ff" d="M678.74,-188.36C687.76,-189.62 697.15,-190.94 706.4,-192.24"/>
<polygon fill="#63b8ff" stroke="#63b8ff" points="705.67,-195.67 716.06,-193.59 706.64,-188.74 705.67,-195.67"/>
</g>
<!-- Node12&#45;&gt;Node9 -->
<g id="edge20" class="edge">
<title>Node12&#45;&gt;Node9</title>
<path fill="none" stroke="#63b8ff" d="M636.98,-196.49C649.75,-208.94 667.43,-226.67 682,-243.1 709.69,-274.33 739.3,-312.35 757.9,-336.88"/>
<polygon fill="#63b8ff" stroke="#63b8ff" points="754.97,-338.8 763.79,-344.67 760.56,-334.58 754.97,-338.8"/>
</g>
<!-- Node14 -->
<g id="node14" class="node">
<title>Node14</title>
<g id="a_node14"><a xlink:href="a01995.html#a4e07b75ccb2579d0e738b894f0fd8cf8" target="_top" xlink:title="Read a BSON element list (as specified in the BSON&#45;spec)">
<polygon fill="white" stroke="#666666" points="519.75,-284.1 357.5,-284.1 357.5,-252.1 519.75,-252.1 519.75,-284.1"/>
<text xml:space="preserve" text-anchor="start" x="365.5" y="-270.6" font-family="Helvetica,sans-Serif" font-size="10.00">nlohmann::detail::binary</text>
<text xml:space="preserve" text-anchor="middle" x="438.62" y="-258.6" font-family="Helvetica,sans-Serif" font-size="10.00">_reader::parse_bson_element_list</text>
</a>
</g>
</g>
<!-- Node13&#45;&gt;Node14 -->
<g id="edge23" class="edge">
<title>Node13&#45;&gt;Node14</title>
<path fill="none" stroke="#63b8ff" d="M317.1,-268.1C326.42,-268.1 336.14,-268.1 345.85,-268.1"/>
<polygon fill="#63b8ff" stroke="#63b8ff" points="345.7,-271.6 355.7,-268.1 345.7,-264.6 345.7,-271.6"/>
</g>
<!-- Node14&#45;&gt;Node1 -->
<g id="edge28" class="edge">
<title>Node14&#45;&gt;Node1</title>
<path fill="none" stroke="#63b8ff" d="M372.92,-251.64C356.27,-248.1 338.32,-244.89 321.5,-243.1 259.07,-236.46 242.62,-235.92 180.25,-243.1 172.23,-244.03 163.93,-245.33 155.68,-246.86"/>
<polygon fill="#63b8ff" stroke="#63b8ff" points="155.09,-243.4 145.95,-248.77 156.44,-250.27 155.09,-243.4"/>
</g>
<!-- Node14&#45;&gt;Node5 -->
<g id="edge24" class="edge">
<title>Node14&#45;&gt;Node5</title>
<path fill="none" stroke="#63b8ff" d="M514.52,-251.65C528.22,-248.73 542.4,-245.78 555.75,-243.1 605.98,-233.04 662.8,-222.52 706.25,-214.65"/>
<polygon fill="#63b8ff" stroke="#63b8ff" points="706.86,-218.1 716.08,-212.88 705.61,-211.21 706.86,-218.1"/>
</g>
<!-- Node14&#45;&gt;Node9 -->
<g id="edge29" class="edge">
<title>Node14&#45;&gt;Node9</title>
<path fill="none" stroke="#63b8ff" d="M458.22,-284.29C479.96,-302.17 517.83,-330.13 555.75,-343.1 604.35,-359.73 662.31,-364.19 706.67,-364.65"/>
<polygon fill="#63b8ff" stroke="#63b8ff" points="706.41,-368.14 716.42,-364.67 706.43,-361.14 706.41,-368.14"/>
</g>
<!-- Node15 -->
<g id="node15" class="node">
<title>Node15</title>
<g id="a_node15"><a xlink:href="a01995.html#a354cbbaaea672c024ac949e1801c4302" target="_top" xlink:title="Parses a C&#45;style string from the BSON input.">
<polygon fill="white" stroke="#666666" points="678.62,-284.1 559.12,-284.1 559.12,-252.1 678.62,-252.1 678.62,-284.1"/>
<text xml:space="preserve" text-anchor="start" x="567.12" y="-270.6" font-family="Helvetica,sans-Serif" font-size="10.00">nlohmann::detail::binary</text>
<text xml:space="preserve" text-anchor="middle" x="618.88" y="-258.6" font-family="Helvetica,sans-Serif" font-size="10.00">_reader::get_bson_cstr</text>
</a>
</g>
</g>
<!-- Node14&#45;&gt;Node15 -->
<g id="edge25" class="edge">
<title>Node14&#45;&gt;Node15</title>
<path fill="none" stroke="#63b8ff" d="M520.15,-268.1C529.29,-268.1 538.56,-268.1 547.56,-268.1"/>
<polygon fill="#63b8ff" stroke="#63b8ff" points="547.28,-271.6 557.28,-268.1 547.28,-264.6 547.28,-271.6"/>
</g>
<!-- Node15&#45;&gt;Node5 -->
<g id="edge26" class="edge">
<title>Node15&#45;&gt;Node5</title>
<path fill="none" stroke="#63b8ff" d="M659.06,-251.62C679.72,-242.92 705.29,-232.17 727.31,-222.9"/>
<polygon fill="#63b8ff" stroke="#63b8ff" points="728.54,-226.18 736.4,-219.08 725.83,-219.73 728.54,-226.18"/>
</g>
<!-- Node15&#45;&gt;Node9 -->
<g id="edge27" class="edge">
<title>Node15&#45;&gt;Node9</title>
<path fill="none" stroke="#63b8ff" d="M664.62,-284.55C670.57,-287.19 676.51,-290.06 682,-293.1 705.65,-306.21 730.26,-324.29 748.48,-338.66"/>
<polygon fill="#63b8ff" stroke="#63b8ff" points="746.21,-341.32 756.2,-344.84 750.58,-335.86 746.21,-341.32"/>
</g>
<!-- Node16&#45;&gt;Node14 -->
<g id="edge31" class="edge">
<title>Node16&#45;&gt;Node14</title>
<path fill="none" stroke="#63b8ff" d="M312.95,-301.66C329.85,-297.11 348.35,-292.13 365.8,-287.44"/>
<polygon fill="#63b8ff" stroke="#63b8ff" points="366.3,-290.93 375.05,-284.95 364.48,-284.17 366.3,-290.93"/>
</g>
</g>
</svg>
