<?xml version="1.0" encoding="UTF-8" standalone="no"?>
<!DOCTYPE svg PUBLIC "-//W3C//DTD SVG 1.1//EN"
 "http://www.w3.org/Graphics/SVG/1.1/DTD/svg11.dtd">
<!-- Generated by graphviz version 13.1.2 (20250808.2320)
 -->
<!-- Title: nlohmann::detail::serializer::dump_escaped Pages: 1 -->
<svg width="480pt" height="140pt"
 viewBox="0.00 0.00 480.00 140.00" xmlns="http://www.w3.org/2000/svg" xmlns:xlink="http://www.w3.org/1999/xlink">
<g id="graph0" class="graph" transform="scale(1 1) rotate(0) translate(4 136)">
<title>nlohmann::detail::serializer::dump_escaped</title>
<!-- Node1 -->
<g id="node1" class="node">
<title>Node1</title>
<g id="a_node1"><a xlink:title="dump escaped string">
<polygon fill="#999999" stroke="#666666" points="132.25,-82 0,-82 0,-50 132.25,-50 132.25,-82"/>
<text xml:space="preserve" text-anchor="start" x="8" y="-68.5" font-family="Helvetica,sans-Serif" font-size="10.00">nlohmann::detail::serializer</text>
<text xml:space="preserve" text-anchor="middle" x="66.12" y="-56.5" font-family="Helvetica,sans-Serif" font-size="10.00">::dump_escaped</text>
</a>
</g>
</g>
<!-- Node2 -->
<g id="node2" class="node">
<title>Node2</title>
<g id="a_node2"><a xlink:href="a01571.html#aecc083aea4b698c33d042670ba50c10f" target="_top" xlink:title=" ">
<polygon fill="white" stroke="#666666" points="290.38,-132 178.38,-132 178.38,-100 290.38,-100 290.38,-132"/>
<text xml:space="preserve" text-anchor="start" x="186.38" y="-118.5" font-family="Helvetica,sans-Serif" font-size="10.00">nlohmann::detail::type</text>
<text xml:space="preserve" text-anchor="middle" x="234.38" y="-106.5" font-family="Helvetica,sans-Serif" font-size="10.00">_error::create</text>
</a>
</g>
</g>
<!-- Node1&#45;&gt;Node2 -->
<g id="edge1" class="edge">
<title>Node1&#45;&gt;Node2</title>
<path fill="none" stroke="#63b8ff" d="M121.56,-82.37C136.27,-86.8 152.34,-91.63 167.6,-96.22"/>
<polygon fill="#63b8ff" stroke="#63b8ff" points="166.5,-99.54 177.08,-99.07 168.51,-92.84 166.5,-99.54"/>
</g>
<!-- Node4 -->
<g id="node4" class="node">
<title>Node4</title>
<g id="a_node4"><a xlink:href="a02055.html#abdcc4fd1dc5d3afb6c0817e4c89b1242" target="_top" xlink:title="check whether a string is UTF&#45;8 encoded">
<polygon fill="white" stroke="#666666" points="300.5,-82 168.25,-82 168.25,-50 300.5,-50 300.5,-82"/>
<text xml:space="preserve" text-anchor="start" x="176.25" y="-68.5" font-family="Helvetica,sans-Serif" font-size="10.00">nlohmann::detail::serializer</text>
<text xml:space="preserve" text-anchor="middle" x="234.38" y="-56.5" font-family="Helvetica,sans-Serif" font-size="10.00">::decode</text>
</a>
</g>
</g>
<!-- Node1&#45;&gt;Node4 -->
<g id="edge3" class="edge">
<title>Node1&#45;&gt;Node4</title>
<path fill="none" stroke="#63b8ff" d="M132.35,-66C140.27,-66 148.41,-66 156.47,-66"/>
<polygon fill="#63b8ff" stroke="#63b8ff" points="156.27,-69.5 166.27,-66 156.27,-62.5 156.27,-69.5"/>
</g>
<!-- Node5 -->
<g id="node5" class="node">
<title>Node5</title>
<g id="a_node5"><a xlink:href="a02039.html#ab77aa48692bd4e64e4f051ce6aeb6d2d" target="_top" xlink:title=" ">
<polygon fill="white" stroke="#666666" points="294.12,-32 174.62,-32 174.62,0 294.12,0 294.12,-32"/>
<text xml:space="preserve" text-anchor="start" x="182.62" y="-18.5" font-family="Helvetica,sans-Serif" font-size="10.00">nlohmann::detail::binary</text>
<text xml:space="preserve" text-anchor="middle" x="234.38" y="-6.5" font-family="Helvetica,sans-Serif" font-size="10.00">_writer::to_char_type</text>
</a>
</g>
</g>
<!-- Node1&#45;&gt;Node5 -->
<g id="edge4" class="edge">
<title>Node1&#45;&gt;Node5</title>
<path fill="none" stroke="#63b8ff" d="M121.56,-49.63C136.27,-45.2 152.34,-40.37 167.6,-35.78"/>
<polygon fill="#63b8ff" stroke="#63b8ff" points="168.51,-39.16 177.08,-32.93 166.5,-32.46 168.51,-39.16"/>
</g>
<!-- Node3 -->
<g id="node3" class="node">
<title>Node3</title>
<g id="a_node3"><a xlink:href="a01559.html#abf41a7e9178356314082284e6cfea278" target="_top" xlink:title=" ">
<polygon fill="white" stroke="#666666" points="471.75,-132 336.5,-132 336.5,-100 471.75,-100 471.75,-132"/>
<text xml:space="preserve" text-anchor="start" x="344.5" y="-118.5" font-family="Helvetica,sans-Serif" font-size="10.00">nlohmann::detail::exception</text>
<text xml:space="preserve" text-anchor="middle" x="404.12" y="-106.5" font-family="Helvetica,sans-Serif" font-size="10.00">::name</text>
</a>
</g>
</g>
<!-- Node2&#45;&gt;Node3 -->
<g id="edge2" class="edge">
<title>Node2&#45;&gt;Node3</title>
<path fill="none" stroke="#63b8ff" d="M290.77,-116C301.65,-116 313.25,-116 324.72,-116"/>
<polygon fill="#63b8ff" stroke="#63b8ff" points="324.6,-119.5 334.6,-116 324.6,-112.5 324.6,-119.5"/>
</g>
</g>
</svg>
