<?xml version="1.0" encoding="UTF-8" standalone="no"?>
<!DOCTYPE svg PUBLIC "-//W3C//DTD SVG 1.1//EN"
 "http://www.w3.org/Graphics/SVG/1.1/DTD/svg11.dtd">
<!-- Generated by graphviz version 13.1.2 (20250808.2320)
 -->
<!-- Title: nlohmann::detail::output_vector_adapter&lt; CharType &gt; Pages: 1 -->
<svg width="302pt" height="188pt"
 viewBox="0.00 0.00 302.00 188.00" xmlns="http://www.w3.org/2000/svg" xmlns:xlink="http://www.w3.org/1999/xlink">
<g id="graph0" class="graph" transform="scale(1 1) rotate(0) translate(4 184)">
<title>nlohmann::detail::output_vector_adapter&lt; CharType &gt;</title>
<!-- Node1 -->
<g id="node1" class="node">
<title>Node1</title>
<g id="a_node1"><a xlink:title="output adapter for byte vectors">
<polygon fill="#999999" stroke="#666666" points="165.5,-32 19.75,-32 19.75,0 165.5,0 165.5,-32"/>
<text xml:space="preserve" text-anchor="start" x="27.75" y="-18.5" font-family="Helvetica,sans-Serif" font-size="10.00">nlohmann::detail::output</text>
<text xml:space="preserve" text-anchor="middle" x="92.62" y="-6.5" font-family="Helvetica,sans-Serif" font-size="10.00">_vector_adapter&lt; CharType &gt;</text>
</a>
</g>
</g>
<!-- Node2 -->
<g id="node2" class="node">
<title>Node2</title>
<g id="a_node2"><a xlink:href="a02019.html" target="_top" xlink:title="abstract output adapter interface">
<polygon fill="white" stroke="#666666" points="153.25,-112 0,-112 0,-80 153.25,-80 153.25,-112"/>
<text xml:space="preserve" text-anchor="start" x="8" y="-98.5" font-family="Helvetica,sans-Serif" font-size="10.00">nlohmann::detail::output</text>
<text xml:space="preserve" text-anchor="middle" x="76.62" y="-86.5" font-family="Helvetica,sans-Serif" font-size="10.00">_adapter_protocol&lt; CharType &gt;</text>
</a>
</g>
</g>
<!-- Node2&#45;&gt;Node1 -->
<g id="edge1" class="edge">
<title>Node2&#45;&gt;Node1</title>
<path fill="none" stroke="#63b8ff" d="M82.09,-68.37C84.55,-56.37 87.37,-42.63 89.47,-32.38"/>
<polygon fill="#63b8ff" stroke="#63b8ff" points="78.67,-67.61 80.09,-78.11 85.53,-69.01 78.67,-67.61"/>
</g>
<!-- Node3 -->
<g id="node3" class="node">
<title>Node3</title>
<g id="a_node3"><a xlink:title=" ">
<polygon fill="white" stroke="#666666" points="293.88,-106 171.38,-106 171.38,-86 293.88,-86 293.88,-106"/>
<text xml:space="preserve" text-anchor="middle" x="232.62" y="-92.5" font-family="Helvetica,sans-Serif" font-size="10.00">std::vector&lt; CharType &gt;</text>
</a>
</g>
</g>
<!-- Node3&#45;&gt;Node1 -->
<g id="edge2" class="edge">
<title>Node3&#45;&gt;Node1</title>
<path fill="none" stroke="#9a32cd" stroke-dasharray="5,2" d="M205.69,-80C181.2,-66.35 145.2,-46.29 120.44,-32.5"/>
<polygon fill="#9a32cd" stroke="#9a32cd" points="203.98,-83.05 214.42,-84.85 207.38,-76.93 203.98,-83.05"/>
<text xml:space="preserve" text-anchor="middle" x="175.13" y="-52.5" font-family="Helvetica,sans-Serif" font-size="10.00"> v</text>
</g>
<!-- Node4 -->
<g id="node4" class="node">
<title>Node4</title>
<g id="a_node4"><a xlink:title=" ">
<polygon fill="white" stroke="#666666" points="261.62,-180 203.62,-180 203.62,-160 261.62,-160 261.62,-180"/>
<text xml:space="preserve" text-anchor="middle" x="232.62" y="-166.5" font-family="Helvetica,sans-Serif" font-size="10.00">CharType</text>
</a>
</g>
</g>
<!-- Node4&#45;&gt;Node3 -->
<g id="edge3" class="edge">
<title>Node4&#45;&gt;Node3</title>
<path fill="none" stroke="#9a32cd" stroke-dasharray="5,2" d="M232.62,-148.18C232.62,-134.29 232.62,-116.71 232.62,-106.19"/>
<polygon fill="#9a32cd" stroke="#9a32cd" points="229.13,-148.07 232.63,-158.07 236.13,-148.07 229.13,-148.07"/>
<text xml:space="preserve" text-anchor="middle" x="254" y="-132.5" font-family="Helvetica,sans-Serif" font-size="10.00"> elements</text>
</g>
</g>
</svg>
