<?xml version="1.0" encoding="UTF-8" standalone="no"?>
<!DOCTYPE svg PUBLIC "-//W3C//DTD SVG 1.1//EN"
 "http://www.w3.org/Graphics/SVG/1.1/DTD/svg11.dtd">
<!-- Generated by graphviz version 13.1.2 (20250808.2320)
 -->
<!-- Title: nlohmann::detail::iter_impl::set_end Pages: 1 -->
<svg width="755pt" height="610pt"
 viewBox="0.00 0.00 755.00 610.00" xmlns="http://www.w3.org/2000/svg" xmlns:xlink="http://www.w3.org/1999/xlink">
<g id="graph0" class="graph" transform="scale(1 1) rotate(0) translate(4 605.89)">
<title>nlohmann::detail::iter_impl::set_end</title>
<!-- Node1 -->
<g id="node1" class="node">
<title>Node1</title>
<g id="a_node1"><a xlink:title="set the iterator past the last value">
<polygon fill="#999999" stroke="#666666" points="746.75,-331.89 640,-331.89 640,-299.89 746.75,-299.89 746.75,-331.89"/>
<text xml:space="preserve" text-anchor="start" x="648" y="-318.39" font-family="Helvetica,sans-Serif" font-size="10.00">nlohmann::detail::iter</text>
<text xml:space="preserve" text-anchor="middle" x="693.38" y="-306.39" font-family="Helvetica,sans-Serif" font-size="10.00">_impl::set_end</text>
</a>
</g>
</g>
<!-- Node2 -->
<g id="node2" class="node">
<title>Node2</title>
<g id="a_node2"><a xlink:href="a01659.html#a3017cf0f1a4673e904e34cfef62e7758" target="_top" xlink:title="returns a const iterator to one past the last element">
<polygon fill="white" stroke="#666666" points="593.12,-463.89 482.62,-463.89 482.62,-431.89 593.12,-431.89 593.12,-463.89"/>
<text xml:space="preserve" text-anchor="start" x="490.62" y="-450.39" font-family="Helvetica,sans-Serif" font-size="10.00">nlohmann::basic_json</text>
<text xml:space="preserve" text-anchor="middle" x="537.88" y="-438.39" font-family="Helvetica,sans-Serif" font-size="10.00">::cend</text>
</a>
</g>
</g>
<!-- Node1&#45;&gt;Node2 -->
<g id="edge1" class="edge">
<title>Node1&#45;&gt;Node2</title>
<path fill="none" stroke="#63b8ff" d="M664.66,-339.72C633.74,-366.31 584.55,-408.62 557.76,-431.65"/>
<polygon fill="#63b8ff" stroke="#63b8ff" points="666.8,-342.5 672.1,-333.33 662.23,-337.2 666.8,-342.5"/>
</g>
<!-- Node10 -->
<g id="node10" class="node">
<title>Node10</title>
<g id="a_node10"><a xlink:href="a01659.html#a931267ec3f09eb67e4382f321b2c52bc" target="_top" xlink:title="returns an iterator to one past the last element">
<polygon fill="white" stroke="#666666" points="604,-193.89 471.75,-193.89 471.75,-173.89 604,-173.89 604,-193.89"/>
<text xml:space="preserve" text-anchor="middle" x="537.88" y="-180.39" font-family="Helvetica,sans-Serif" font-size="10.00">nlohmann::basic_json::end</text>
</a>
</g>
</g>
<!-- Node1&#45;&gt;Node10 -->
<g id="edge10" class="edge">
<title>Node1&#45;&gt;Node10</title>
<path fill="none" stroke="#63b8ff" d="M664.73,-292.12C630.86,-262.99 575,-214.96 550.74,-194.09"/>
<polygon fill="#63b8ff" stroke="#63b8ff" points="662.23,-294.59 672.1,-298.45 666.8,-289.28 662.23,-294.59"/>
</g>
<!-- Node3 -->
<g id="node3" class="node">
<title>Node3</title>
<g id="a_node3"><a xlink:href="a01659.html#aac965b84ea43ccd8aef9caefef02794a" target="_top" xlink:title="access the last element">
<polygon fill="white" stroke="#666666" points="424.88,-601.89 314.38,-601.89 314.38,-569.89 424.88,-569.89 424.88,-601.89"/>
<text xml:space="preserve" text-anchor="start" x="322.38" y="-588.39" font-family="Helvetica,sans-Serif" font-size="10.00">nlohmann::basic_json</text>
<text xml:space="preserve" text-anchor="middle" x="369.62" y="-576.39" font-family="Helvetica,sans-Serif" font-size="10.00">::back</text>
</a>
</g>
</g>
<!-- Node2&#45;&gt;Node3 -->
<g id="edge2" class="edge">
<title>Node2&#45;&gt;Node3</title>
<path fill="none" stroke="#63b8ff" d="M519.44,-473.66C501.18,-498.92 470.38,-537.01 435.75,-560.89 431.16,-564.05 426.12,-566.89 420.94,-569.41"/>
<polygon fill="#63b8ff" stroke="#63b8ff" points="522.23,-475.76 525.15,-465.58 516.52,-471.72 522.23,-475.76"/>
</g>
<!-- Node4 -->
<g id="node4" class="node">
<title>Node4</title>
<g id="a_node4"><a xlink:href="a01659.html#a044298d189bdf7e4b36492de9811ddd6" target="_top" xlink:title="returns a const reverse iterator to the last element">
<polygon fill="white" stroke="#666666" points="424.88,-551.89 314.38,-551.89 314.38,-519.89 424.88,-519.89 424.88,-551.89"/>
<text xml:space="preserve" text-anchor="start" x="322.38" y="-538.39" font-family="Helvetica,sans-Serif" font-size="10.00">nlohmann::basic_json</text>
<text xml:space="preserve" text-anchor="middle" x="369.62" y="-526.39" font-family="Helvetica,sans-Serif" font-size="10.00">::crbegin</text>
</a>
</g>
</g>
<!-- Node2&#45;&gt;Node4 -->
<g id="edge3" class="edge">
<title>Node2&#45;&gt;Node4</title>
<path fill="none" stroke="#63b8ff" d="M503.97,-470.62C484.63,-483.41 459.4,-499.12 435.75,-510.89 429.68,-513.91 423.15,-516.81 416.65,-519.49"/>
<polygon fill="#63b8ff" stroke="#63b8ff" points="505.89,-473.55 512.25,-465.08 501.99,-467.74 505.89,-473.55"/>
</g>
<!-- Node6 -->
<g id="node6" class="node">
<title>Node6</title>
<g id="a_node6"><a xlink:href="a01659.html#a1c1f21327df91a4dd6c5f5a107240385" target="_top" xlink:title="creates a diff as a JSON patch">
<polygon fill="white" stroke="#666666" points="267.5,-331.89 157,-331.89 157,-299.89 267.5,-299.89 267.5,-331.89"/>
<text xml:space="preserve" text-anchor="start" x="165" y="-318.39" font-family="Helvetica,sans-Serif" font-size="10.00">nlohmann::basic_json</text>
<text xml:space="preserve" text-anchor="middle" x="212.25" y="-306.39" font-family="Helvetica,sans-Serif" font-size="10.00">::diff</text>
</a>
</g>
</g>
<!-- Node2&#45;&gt;Node6 -->
<g id="edge5" class="edge">
<title>Node2&#45;&gt;Node6</title>
<path fill="none" stroke="#63b8ff" d="M510.72,-424.01C491.31,-407.46 463.52,-386.12 435.75,-372.89 381.57,-347.09 314.19,-331.92 267.86,-323.81"/>
<polygon fill="#63b8ff" stroke="#63b8ff" points="508.29,-426.53 518.13,-430.46 512.88,-421.25 508.29,-426.53"/>
</g>
<!-- Node7 -->
<g id="node7" class="node">
<title>Node7</title>
<g id="a_node7"><a xlink:href="a01659.html#a82b5b96f86879a3bac0c713d33178551" target="_top" xlink:title="returns a const iterator to one past the last element">
<polygon fill="white" stroke="#666666" points="435.75,-501.89 303.5,-501.89 303.5,-481.89 435.75,-481.89 435.75,-501.89"/>
<text xml:space="preserve" text-anchor="middle" x="369.62" y="-488.39" font-family="Helvetica,sans-Serif" font-size="10.00">nlohmann::basic_json::end</text>
</a>
</g>
</g>
<!-- Node2&#45;&gt;Node7 -->
<g id="edge7" class="edge">
<title>Node2&#45;&gt;Node7</title>
<path fill="none" stroke="#63b8ff" d="M471.45,-465.21C450.73,-470.69 428.48,-476.58 410.16,-481.43"/>
<polygon fill="#63b8ff" stroke="#63b8ff" points="472.2,-468.63 480.98,-462.69 470.41,-461.86 472.2,-468.63"/>
</g>
<!-- Node8 -->
<g id="node8" class="node">
<title>Node8</title>
<g id="a_node8"><a xlink:href="a01659.html#a17a516671c29a69bb2e11ca12030316b" target="_top" xlink:title="find an element in a JSON object">
<polygon fill="white" stroke="#666666" points="424.88,-463.89 314.38,-463.89 314.38,-431.89 424.88,-431.89 424.88,-463.89"/>
<text xml:space="preserve" text-anchor="start" x="322.38" y="-450.39" font-family="Helvetica,sans-Serif" font-size="10.00">nlohmann::basic_json</text>
<text xml:space="preserve" text-anchor="middle" x="369.62" y="-438.39" font-family="Helvetica,sans-Serif" font-size="10.00">::find</text>
</a>
</g>
</g>
<!-- Node2&#45;&gt;Node8 -->
<g id="edge8" class="edge">
<title>Node2&#45;&gt;Node8</title>
<path fill="none" stroke="#63b8ff" d="M471.02,-447.89C455.83,-447.89 439.83,-447.89 425.18,-447.89"/>
<polygon fill="#63b8ff" stroke="#63b8ff" points="470.93,-451.39 480.92,-447.89 470.92,-444.39 470.93,-451.39"/>
</g>
<!-- Node9 -->
<g id="node9" class="node">
<title>Node9</title>
<g id="a_node9"><a xlink:href="a01659.html#a377819905d567f6f523dcbc592cb6356" target="_top" xlink:title="updates a JSON object from another object, overwriting existing keys">
<polygon fill="white" stroke="#666666" points="424.88,-413.89 314.38,-413.89 314.38,-381.89 424.88,-381.89 424.88,-413.89"/>
<text xml:space="preserve" text-anchor="start" x="322.38" y="-400.39" font-family="Helvetica,sans-Serif" font-size="10.00">nlohmann::basic_json</text>
<text xml:space="preserve" text-anchor="middle" x="369.62" y="-388.39" font-family="Helvetica,sans-Serif" font-size="10.00">::update</text>
</a>
</g>
</g>
<!-- Node2&#45;&gt;Node9 -->
<g id="edge9" class="edge">
<title>Node2&#45;&gt;Node9</title>
<path fill="none" stroke="#63b8ff" d="M471.46,-428.22C456.14,-423.61 439.97,-418.75 425.18,-414.3"/>
<polygon fill="#63b8ff" stroke="#63b8ff" points="470.4,-431.56 480.99,-431.08 472.42,-424.85 470.4,-431.56"/>
</g>
<!-- Node5 -->
<g id="node5" class="node">
<title>Node5</title>
<g id="a_node5"><a xlink:href="a01659.html#aab1329f44c8301b7679962726a043549" target="_top" xlink:title="returns a const reverse iterator to the last element">
<polygon fill="white" stroke="#666666" points="267.5,-551.89 157,-551.89 157,-519.89 267.5,-519.89 267.5,-551.89"/>
<text xml:space="preserve" text-anchor="start" x="165" y="-538.39" font-family="Helvetica,sans-Serif" font-size="10.00">nlohmann::basic_json</text>
<text xml:space="preserve" text-anchor="middle" x="212.25" y="-526.39" font-family="Helvetica,sans-Serif" font-size="10.00">::rbegin</text>
</a>
</g>
</g>
<!-- Node4&#45;&gt;Node5 -->
<g id="edge4" class="edge">
<title>Node4&#45;&gt;Node5</title>
<path fill="none" stroke="#63b8ff" d="M302.79,-535.89C291.14,-535.89 279.12,-535.89 267.82,-535.89"/>
<polygon fill="#63b8ff" stroke="#63b8ff" points="302.77,-539.39 312.77,-535.89 302.77,-532.39 302.77,-539.39"/>
</g>
<!-- Node6&#45;&gt;Node6 -->
<g id="edge6" class="edge">
<title>Node6&#45;&gt;Node6</title>
<path fill="none" stroke="#63b8ff" d="M237.54,-343.6C233.32,-347.37 224.89,-349.89 212.25,-349.89 189.13,-349.89 180.1,-341.47 185.16,-332.33"/>
<polygon fill="#63b8ff" stroke="#63b8ff" points="240.98,-344.26 239.1,-333.83 234.07,-343.15 240.98,-344.26"/>
</g>
<!-- Node10&#45;&gt;Node6 -->
<g id="edge12" class="edge">
<title>Node10&#45;&gt;Node6</title>
<path fill="none" stroke="#63b8ff" d="M525.51,-204.14C509.38,-230.66 477.16,-276.22 435.75,-296.89 383.2,-323.12 314.92,-324.96 267.94,-322.09"/>
<polygon fill="#63b8ff" stroke="#63b8ff" points="528.43,-206.07 530.47,-195.68 522.39,-202.53 528.43,-206.07"/>
</g>
<!-- Node11 -->
<g id="node11" class="node">
<title>Node11</title>
<g id="a_node11"><a xlink:href="a01659.html#a30914ad0767ccdc3633f88a906ed7dfa" target="_top" xlink:title="access the last element">
<polygon fill="white" stroke="#666666" points="424.88,-111.89 314.38,-111.89 314.38,-79.89 424.88,-79.89 424.88,-111.89"/>
<text xml:space="preserve" text-anchor="start" x="322.38" y="-98.39" font-family="Helvetica,sans-Serif" font-size="10.00">nlohmann::basic_json</text>
<text xml:space="preserve" text-anchor="middle" x="369.62" y="-86.39" font-family="Helvetica,sans-Serif" font-size="10.00">::back</text>
</a>
</g>
</g>
<!-- Node10&#45;&gt;Node11 -->
<g id="edge11" class="edge">
<title>Node10&#45;&gt;Node11</title>
<path fill="none" stroke="#63b8ff" d="M510.22,-167.74C490.04,-155.72 461.48,-139.17 435.75,-125.89 426.79,-121.27 416.98,-116.57 407.75,-112.3"/>
<polygon fill="#63b8ff" stroke="#63b8ff" points="508.28,-170.65 518.66,-172.79 511.88,-164.65 508.28,-170.65"/>
</g>
<!-- Node12 -->
<g id="node12" class="node">
<title>Node12</title>
<g id="a_node12"><a xlink:href="a01659.html#a494632b69bbe1d0153d3bedad0901b8e" target="_top" xlink:title="remove element given an iterator">
<polygon fill="white" stroke="#666666" points="424.88,-61.89 314.38,-61.89 314.38,-29.89 424.88,-29.89 424.88,-61.89"/>
<text xml:space="preserve" text-anchor="start" x="322.38" y="-48.39" font-family="Helvetica,sans-Serif" font-size="10.00">nlohmann::basic_json</text>
<text xml:space="preserve" text-anchor="middle" x="369.62" y="-36.39" font-family="Helvetica,sans-Serif" font-size="10.00">::erase</text>
</a>
</g>
</g>
<!-- Node10&#45;&gt;Node12 -->
<g id="edge13" class="edge">
<title>Node10&#45;&gt;Node12</title>
<path fill="none" stroke="#63b8ff" d="M523.78,-164.22C506.34,-139.38 473.3,-96.78 435.75,-70.89 431.16,-67.73 426.12,-64.9 420.94,-62.38"/>
<polygon fill="#63b8ff" stroke="#63b8ff" points="520.86,-166.16 529.41,-172.43 526.64,-162.2 520.86,-166.16"/>
</g>
<!-- Node13 -->
<g id="node13" class="node">
<title>Node13</title>
<g id="a_node13"><a xlink:href="a01659.html#a844a77cb154752d12118f10af26d54cb" target="_top" xlink:title="applies a JSON Merge Patch">
<polygon fill="white" stroke="#666666" points="267.5,-39.89 157,-39.89 157,-7.89 267.5,-7.89 267.5,-39.89"/>
<text xml:space="preserve" text-anchor="start" x="165" y="-26.39" font-family="Helvetica,sans-Serif" font-size="10.00">nlohmann::basic_json</text>
<text xml:space="preserve" text-anchor="middle" x="212.25" y="-14.39" font-family="Helvetica,sans-Serif" font-size="10.00">::merge_patch</text>
</a>
</g>
</g>
<!-- Node10&#45;&gt;Node13 -->
<g id="edge23" class="edge">
<title>Node10&#45;&gt;Node13</title>
<path fill="none" stroke="#63b8ff" d="M531.12,-162.86C519.83,-126.2 490.92,-51.59 435.75,-20.89 384.27,7.75 315.17,1.21 267.7,-8.77"/>
<polygon fill="#63b8ff" stroke="#63b8ff" points="527.71,-163.65 533.87,-172.27 534.43,-161.69 527.71,-163.65"/>
</g>
<!-- Node14 -->
<g id="node14" class="node">
<title>Node14</title>
<g id="a_node14"><a xlink:href="a01659.html#adcc786998f220a5b3083ee8a37c4553e" target="_top" xlink:title="applies a JSON patch">
<polygon fill="white" stroke="#666666" points="267.5,-155.89 157,-155.89 157,-123.89 267.5,-123.89 267.5,-155.89"/>
<text xml:space="preserve" text-anchor="start" x="165" y="-142.39" font-family="Helvetica,sans-Serif" font-size="10.00">nlohmann::basic_json</text>
<text xml:space="preserve" text-anchor="middle" x="212.25" y="-130.39" font-family="Helvetica,sans-Serif" font-size="10.00">::patch</text>
</a>
</g>
</g>
<!-- Node10&#45;&gt;Node14 -->
<g id="edge24" class="edge">
<title>Node10&#45;&gt;Node14</title>
<path fill="none" stroke="#63b8ff" d="M489.9,-170.65C472.96,-166.31 453.61,-161.84 435.75,-158.89 378.95,-149.51 313.18,-144.62 267.95,-142.16"/>
<polygon fill="#63b8ff" stroke="#63b8ff" points="488.63,-173.93 499.19,-173.09 490.4,-167.16 488.63,-173.93"/>
</g>
<!-- Node15 -->
<g id="node15" class="node">
<title>Node15</title>
<g id="a_node15"><a xlink:href="a01659.html#acdf9b3aab82dcf443dd91ca5ec06b80c" target="_top" xlink:title="find an element in a JSON object">
<polygon fill="white" stroke="#666666" points="424.88,-199.89 314.38,-199.89 314.38,-167.89 424.88,-167.89 424.88,-199.89"/>
<text xml:space="preserve" text-anchor="start" x="322.38" y="-186.39" font-family="Helvetica,sans-Serif" font-size="10.00">nlohmann::basic_json</text>
<text xml:space="preserve" text-anchor="middle" x="369.62" y="-174.39" font-family="Helvetica,sans-Serif" font-size="10.00">::find</text>
</a>
</g>
</g>
<!-- Node10&#45;&gt;Node15 -->
<g id="edge17" class="edge">
<title>Node10&#45;&gt;Node15</title>
<path fill="none" stroke="#63b8ff" d="M460.36,-183.89C448.49,-183.89 436.45,-183.89 425.19,-183.89"/>
<polygon fill="#63b8ff" stroke="#63b8ff" points="460.13,-187.39 470.13,-183.89 460.13,-180.39 460.13,-187.39"/>
</g>
<!-- Node16 -->
<g id="node16" class="node">
<title>Node16</title>
<g id="a_node16"><a xlink:href="a01659.html#a11641b35219676b225d9bd15c7677659" target="_top" xlink:title="access specified object element with default value">
<polygon fill="white" stroke="#666666" points="267.5,-224.89 157,-224.89 157,-192.89 267.5,-192.89 267.5,-224.89"/>
<text xml:space="preserve" text-anchor="start" x="165" y="-211.39" font-family="Helvetica,sans-Serif" font-size="10.00">nlohmann::basic_json</text>
<text xml:space="preserve" text-anchor="middle" x="212.25" y="-199.39" font-family="Helvetica,sans-Serif" font-size="10.00">::value</text>
</a>
</g>
</g>
<!-- Node10&#45;&gt;Node16 -->
<g id="edge26" class="edge">
<title>Node10&#45;&gt;Node16</title>
<path fill="none" stroke="#63b8ff" d="M492.51,-197.33C475,-201.98 454.6,-206.6 435.75,-208.89 378.81,-215.83 313.06,-214.72 267.88,-212.56"/>
<polygon fill="#63b8ff" stroke="#63b8ff" points="493.37,-200.72 502.09,-194.69 491.52,-193.97 493.37,-200.72"/>
</g>
<!-- Node19 -->
<g id="node19" class="node">
<title>Node19</title>
<g id="a_node19"><a xlink:href="a01659.html#aff8e38cd973bc94557fa8d36433c0e4c" target="_top" xlink:title="returns an iterator to the reverse&#45;beginning">
<polygon fill="white" stroke="#666666" points="424.88,-287.89 314.38,-287.89 314.38,-255.89 424.88,-255.89 424.88,-287.89"/>
<text xml:space="preserve" text-anchor="start" x="322.38" y="-274.39" font-family="Helvetica,sans-Serif" font-size="10.00">nlohmann::basic_json</text>
<text xml:space="preserve" text-anchor="middle" x="369.62" y="-262.39" font-family="Helvetica,sans-Serif" font-size="10.00">::rbegin</text>
</a>
</g>
</g>
<!-- Node10&#45;&gt;Node19 -->
<g id="edge25" class="edge">
<title>Node10&#45;&gt;Node19</title>
<path fill="none" stroke="#63b8ff" d="M510.22,-200.05C490.04,-212.07 461.48,-228.62 435.75,-241.89 426.79,-246.51 416.98,-251.21 407.75,-255.48"/>
<polygon fill="#63b8ff" stroke="#63b8ff" points="511.88,-203.14 518.66,-194.99 508.28,-197.13 511.88,-203.14"/>
</g>
<!-- Node12&#45;&gt;Node13 -->
<g id="edge14" class="edge">
<title>Node12&#45;&gt;Node13</title>
<path fill="none" stroke="#63b8ff" d="M303.16,-36.62C291.39,-34.96 279.24,-33.24 267.82,-31.62"/>
<polygon fill="#63b8ff" stroke="#63b8ff" points="302.39,-40.05 312.78,-37.99 303.37,-33.12 302.39,-40.05"/>
</g>
<!-- Node12&#45;&gt;Node14 -->
<g id="edge16" class="edge">
<title>Node12&#45;&gt;Node14</title>
<path fill="none" stroke="#63b8ff" d="M310.67,-67.12C308.22,-68.34 305.82,-69.6 303.5,-70.89 276.64,-85.9 249,-108.24 231.51,-123.4"/>
<polygon fill="#63b8ff" stroke="#63b8ff" points="311.97,-70.38 319.57,-63 309.02,-64.03 311.97,-70.38"/>
</g>
<!-- Node13&#45;&gt;Node13 -->
<g id="edge15" class="edge">
<title>Node13&#45;&gt;Node13</title>
<path fill="none" stroke="#63b8ff" d="M237.54,-51.6C233.32,-55.37 224.89,-57.89 212.25,-57.89 189.13,-57.89 180.1,-49.47 185.16,-40.33"/>
<polygon fill="#63b8ff" stroke="#63b8ff" points="240.98,-52.26 239.1,-41.83 234.07,-51.15 240.98,-52.26"/>
</g>
<!-- Node15&#45;&gt;Node6 -->
<g id="edge18" class="edge">
<title>Node15&#45;&gt;Node6</title>
<path fill="none" stroke="#63b8ff" d="M340.57,-207.72C309.27,-234.31 259.48,-276.62 232.37,-299.65"/>
<polygon fill="#63b8ff" stroke="#63b8ff" points="342.75,-210.46 348.11,-201.32 338.22,-205.13 342.75,-210.46"/>
</g>
<!-- Node15&#45;&gt;Node14 -->
<g id="edge19" class="edge">
<title>Node15&#45;&gt;Node14</title>
<path fill="none" stroke="#63b8ff" d="M303.52,-165.45C291.64,-162.09 279.36,-158.61 267.82,-155.35"/>
<polygon fill="#63b8ff" stroke="#63b8ff" points="302.25,-168.73 312.83,-168.09 304.16,-162 302.25,-168.73"/>
</g>
<!-- Node15&#45;&gt;Node16 -->
<g id="edge20" class="edge">
<title>Node15&#45;&gt;Node16</title>
<path fill="none" stroke="#63b8ff" d="M303.16,-194.43C291.39,-196.32 279.24,-198.27 267.82,-200.11"/>
<polygon fill="#63b8ff" stroke="#63b8ff" points="303.47,-197.92 312.79,-192.88 302.36,-191.01 303.47,-197.92"/>
</g>
<!-- Node17 -->
<g id="node17" class="node">
<title>Node17</title>
<g id="a_node17"><a xlink:href="a02059.html#ad7f122fa9bfc5aa4d9b65a3059892146" target="_top" xlink:title="constructor for strings">
<polygon fill="white" stroke="#666666" points="121,-249.89 0,-249.89 0,-217.89 121,-217.89 121,-249.89"/>
<text xml:space="preserve" text-anchor="start" x="8" y="-236.39" font-family="Helvetica,sans-Serif" font-size="10.00">nlohmann::basic_json</text>
<text xml:space="preserve" text-anchor="middle" x="60.5" y="-224.39" font-family="Helvetica,sans-Serif" font-size="10.00">::json_value::json_value</text>
</a>
</g>
</g>
<!-- Node16&#45;&gt;Node17 -->
<g id="edge21" class="edge">
<title>Node16&#45;&gt;Node17</title>
<path fill="none" stroke="#63b8ff" d="M145.5,-219.87C137.43,-221.22 129.23,-222.59 121.26,-223.92"/>
<polygon fill="#63b8ff" stroke="#63b8ff" points="145.98,-223.34 155.27,-218.24 144.83,-216.43 145.98,-223.34"/>
</g>
<!-- Node18 -->
<g id="node18" class="node">
<title>Node18</title>
<g id="a_node18"><a xlink:href="a01659.html#adcfdefe95d5c2471a5c97e911d46ee88" target="_top" xlink:title="overload for a default value of type const char*">
<polygon fill="white" stroke="#666666" points="115.75,-199.89 5.25,-199.89 5.25,-167.89 115.75,-167.89 115.75,-199.89"/>
<text xml:space="preserve" text-anchor="start" x="13.25" y="-186.39" font-family="Helvetica,sans-Serif" font-size="10.00">nlohmann::basic_json</text>
<text xml:space="preserve" text-anchor="middle" x="60.5" y="-174.39" font-family="Helvetica,sans-Serif" font-size="10.00">::value</text>
</a>
</g>
</g>
<!-- Node16&#45;&gt;Node18 -->
<g id="edge22" class="edge">
<title>Node16&#45;&gt;Node18</title>
<path fill="none" stroke="#63b8ff" d="M145.44,-197.9C135.67,-196.27 125.7,-194.61 116.2,-193.02"/>
<polygon fill="#63b8ff" stroke="#63b8ff" points="144.83,-201.35 155.27,-199.55 145.98,-194.45 144.83,-201.35"/>
</g>
</g>
</svg>
