<?xml version="1.0" encoding="UTF-8" standalone="no"?>
<!DOCTYPE svg PUBLIC "-//W3C//DTD SVG 1.1//EN"
 "http://www.w3.org/Graphics/SVG/1.1/DTD/svg11.dtd">
<!-- Generated by graphviz version 13.1.2 (20250808.2320)
 -->
<!-- Title: nlohmann::detail::binary_writer::write_bson_object_entry Pages: 1 -->
<svg width="807pt" height="90pt"
 viewBox="0.00 0.00 807.00 90.00" xmlns="http://www.w3.org/2000/svg" xmlns:xlink="http://www.w3.org/1999/xlink">
<g id="graph0" class="graph" transform="scale(1 1) rotate(0) translate(4 86)">
<title>nlohmann::detail::binary_writer::write_bson_object_entry</title>
<!-- Node1 -->
<g id="node1" class="node">
<title>Node1</title>
<g id="a_node1"><a xlink:title="Writes a BSON element with key name and object value.">
<polygon fill="#999999" stroke="#666666" points="799.25,-57 642.25,-57 642.25,-25 799.25,-25 799.25,-57"/>
<text xml:space="preserve" text-anchor="start" x="650.25" y="-43.5" font-family="Helvetica,sans-Serif" font-size="10.00">nlohmann::detail::binary</text>
<text xml:space="preserve" text-anchor="middle" x="720.75" y="-31.5" font-family="Helvetica,sans-Serif" font-size="10.00">_writer::write_bson_object_entry</text>
</a>
</g>
</g>
<!-- Node2 -->
<g id="node2" class="node">
<title>Node2</title>
<g id="a_node2"><a xlink:href="a02039.html#a7ff58bf1a80018148bed860667ffca07" target="_top" xlink:title="Serializes the JSON value j to BSON and associates it with the key name.">
<polygon fill="white" stroke="#666666" points="606.25,-80 468,-80 468,-48 606.25,-48 606.25,-80"/>
<text xml:space="preserve" text-anchor="start" x="476" y="-66.5" font-family="Helvetica,sans-Serif" font-size="10.00">nlohmann::detail::binary</text>
<text xml:space="preserve" text-anchor="middle" x="537.12" y="-54.5" font-family="Helvetica,sans-Serif" font-size="10.00">_writer::write_bson_element</text>
</a>
</g>
</g>
<!-- Node1&#45;&gt;Node2 -->
<g id="edge1" class="edge">
<title>Node1&#45;&gt;Node2</title>
<path fill="none" stroke="#63b8ff" d="M630.58,-52.29C622.53,-53.31 614.45,-54.33 606.61,-55.33"/>
<polygon fill="#63b8ff" stroke="#63b8ff" points="630.95,-55.77 640.43,-51.04 630.07,-48.83 630.95,-55.77"/>
</g>
<!-- Node3 -->
<g id="node3" class="node">
<title>Node3</title>
<g id="a_node3"><a xlink:href="a02039.html#a025212bd170253638b9f05b3b6aa5bf9" target="_top" xlink:title="Writes a BSON element with key name and array value.">
<polygon fill="white" stroke="#666666" points="429.75,-82 304.25,-82 304.25,-50 429.75,-50 429.75,-82"/>
<text xml:space="preserve" text-anchor="start" x="312.25" y="-68.5" font-family="Helvetica,sans-Serif" font-size="10.00">nlohmann::detail::binary</text>
<text xml:space="preserve" text-anchor="middle" x="367" y="-56.5" font-family="Helvetica,sans-Serif" font-size="10.00">_writer::write_bson_array</text>
</a>
</g>
</g>
<!-- Node2&#45;&gt;Node3 -->
<g id="edge2" class="edge">
<title>Node2&#45;&gt;Node3</title>
<path fill="none" stroke="#63b8ff" d="M456.26,-58.21C447.47,-58.28 438.62,-58.45 430.1,-58.72"/>
<polygon fill="#63b8ff" stroke="#63b8ff" points="456.24,-61.71 466.23,-58.17 456.22,-54.71 456.24,-61.71"/>
</g>
<!-- Node4 -->
<g id="node4" class="node">
<title>Node4</title>
<g id="a_node4"><a xlink:href="a02039.html#a29b3e0f83a8e5f2307804023109ba2c9" target="_top" xlink:title=" ">
<polygon fill="white" stroke="#666666" points="432,-32 302,-32 302,0 432,0 432,-32"/>
<text xml:space="preserve" text-anchor="start" x="310" y="-18.5" font-family="Helvetica,sans-Serif" font-size="10.00">nlohmann::detail::binary</text>
<text xml:space="preserve" text-anchor="middle" x="367" y="-6.5" font-family="Helvetica,sans-Serif" font-size="10.00">_writer::write_bson_object</text>
</a>
</g>
</g>
<!-- Node2&#45;&gt;Node4 -->
<g id="edge4" class="edge">
<title>Node2&#45;&gt;Node4</title>
<path fill="none" stroke="#63b8ff" d="M467.71,-44.47C453.77,-40.49 439.23,-36.34 425.7,-32.47"/>
<polygon fill="#63b8ff" stroke="#63b8ff" points="466.7,-47.82 477.28,-47.2 468.63,-41.09 466.7,-47.82"/>
</g>
<!-- Node3&#45;&gt;Node2 -->
<g id="edge3" class="edge">
<title>Node3&#45;&gt;Node2</title>
<path fill="none" stroke="#63b8ff" d="M441.46,-71.83C450.19,-71.8 459.08,-71.68 467.74,-71.46"/>
<polygon fill="#63b8ff" stroke="#63b8ff" points="441.62,-68.33 431.61,-71.81 441.6,-75.33 441.62,-68.33"/>
</g>
<!-- Node4&#45;&gt;Node1 -->
<g id="edge7" class="edge">
<title>Node4&#45;&gt;Node1</title>
<path fill="none" stroke="#63b8ff" d="M443.88,-21.39C502.43,-25.55 583.13,-31.29 642.12,-35.48"/>
<polygon fill="#63b8ff" stroke="#63b8ff" points="444.21,-17.91 433.99,-20.69 443.72,-24.89 444.21,-17.91"/>
</g>
<!-- Node5 -->
<g id="node5" class="node">
<title>Node5</title>
<g id="a_node5"><a xlink:href="a02039.html#a9ffc566db5219b473762462234b47db9" target="_top" xlink:title=" ">
<polygon fill="white" stroke="#666666" points="266,-32 146.5,-32 146.5,0 266,0 266,-32"/>
<text xml:space="preserve" text-anchor="start" x="154.5" y="-18.5" font-family="Helvetica,sans-Serif" font-size="10.00">nlohmann::detail::binary</text>
<text xml:space="preserve" text-anchor="middle" x="206.25" y="-6.5" font-family="Helvetica,sans-Serif" font-size="10.00">_writer::write_bson</text>
</a>
</g>
</g>
<!-- Node4&#45;&gt;Node5 -->
<g id="edge5" class="edge">
<title>Node4&#45;&gt;Node5</title>
<path fill="none" stroke="#63b8ff" d="M290.54,-16C282.46,-16 274.32,-16 266.47,-16"/>
<polygon fill="#63b8ff" stroke="#63b8ff" points="290.37,-19.5 300.37,-16 290.37,-12.5 290.37,-19.5"/>
</g>
<!-- Node6 -->
<g id="node6" class="node">
<title>Node6</title>
<g id="a_node6"><a xlink:href="a01659.html#a668e4c2ad9808218a25879700f4aef2b" target="_top" xlink:title="Serializes the given JSON object j to BSON and forwards the corresponding BSON&#45;representation to the ...">
<polygon fill="white" stroke="#666666" points="110.5,-32 0,-32 0,0 110.5,0 110.5,-32"/>
<text xml:space="preserve" text-anchor="start" x="8" y="-18.5" font-family="Helvetica,sans-Serif" font-size="10.00">nlohmann::basic_json</text>
<text xml:space="preserve" text-anchor="middle" x="55.25" y="-6.5" font-family="Helvetica,sans-Serif" font-size="10.00">::to_bson</text>
</a>
</g>
</g>
<!-- Node5&#45;&gt;Node6 -->
<g id="edge6" class="edge">
<title>Node5&#45;&gt;Node6</title>
<path fill="none" stroke="#63b8ff" d="M134.98,-16C126.87,-16 118.69,-16 110.83,-16"/>
<polygon fill="#63b8ff" stroke="#63b8ff" points="134.85,-19.5 144.85,-16 134.85,-12.5 134.85,-19.5"/>
</g>
</g>
</svg>
