<?xml version="1.0" encoding="UTF-8" standalone="no"?>
<!DOCTYPE svg PUBLIC "-//W3C//DTD SVG 1.1//EN"
 "http://www.w3.org/Graphics/SVG/1.1/DTD/svg11.dtd">
<!-- Generated by graphviz version 13.1.2 (20250808.2320)
 -->
<!-- Title: nlohmann::detail::binary_writer::to_char_type Pages: 1 -->
<svg width="1185pt" height="760pt"
 viewBox="0.00 0.00 1185.00 760.00" xmlns="http://www.w3.org/2000/svg" xmlns:xlink="http://www.w3.org/1999/xlink">
<g id="graph0" class="graph" transform="scale(1 1) rotate(0) translate(4 756)">
<title>nlohmann::detail::binary_writer::to_char_type</title>
<!-- Node1 -->
<g id="node1" class="node">
<title>Node1</title>
<g id="a_node1"><a xlink:title=" ">
<polygon fill="#999999" stroke="#666666" points="1177,-514 1057.5,-514 1057.5,-482 1177,-482 1177,-514"/>
<text xml:space="preserve" text-anchor="start" x="1065.5" y="-500.5" font-family="Helvetica,sans-Serif" font-size="10.00">nlohmann::detail::binary</text>
<text xml:space="preserve" text-anchor="middle" x="1117.25" y="-488.5" font-family="Helvetica,sans-Serif" font-size="10.00">_writer::to_char_type</text>
</a>
</g>
</g>
<!-- Node2 -->
<g id="node2" class="node">
<title>Node2</title>
<g id="a_node2"><a xlink:href="a02055.html#ac1f8d1165b44149bd8be397dce68ea05" target="_top" xlink:title="dump escaped string">
<polygon fill="white" stroke="#666666" points="1006.12,-734 873.88,-734 873.88,-702 1006.12,-702 1006.12,-734"/>
<text xml:space="preserve" text-anchor="start" x="881.88" y="-720.5" font-family="Helvetica,sans-Serif" font-size="10.00">nlohmann::detail::serializer</text>
<text xml:space="preserve" text-anchor="middle" x="940" y="-708.5" font-family="Helvetica,sans-Serif" font-size="10.00">::dump_escaped</text>
</a>
</g>
</g>
<!-- Node1&#45;&gt;Node2 -->
<g id="edge1" class="edge">
<title>Node1&#45;&gt;Node2</title>
<path fill="none" stroke="#63b8ff" d="M1109.5,-525.49C1098.1,-566.39 1071.26,-643.24 1021.5,-688 1015.51,-693.39 1008.47,-697.83 1001.08,-701.5"/>
<polygon fill="#63b8ff" stroke="#63b8ff" points="1112.85,-526.52 1112.04,-515.96 1106.08,-524.72 1112.85,-526.52"/>
</g>
<!-- Node5 -->
<g id="node5" class="node">
<title>Node5</title>
<g id="a_node5"><a xlink:href="a02039.html#a2b5cb010077da6241a18bb334736464c" target="_top" xlink:title=" ">
<polygon fill="white" stroke="#666666" points="1011,-596 869,-596 869,-564 1011,-564 1011,-596"/>
<text xml:space="preserve" text-anchor="start" x="877" y="-582.5" font-family="Helvetica,sans-Serif" font-size="10.00">nlohmann::detail::binary</text>
<text xml:space="preserve" text-anchor="middle" x="940" y="-570.5" font-family="Helvetica,sans-Serif" font-size="10.00">_writer::get_cbor_float_prefix</text>
</a>
</g>
</g>
<!-- Node1&#45;&gt;Node5 -->
<g id="edge5" class="edge">
<title>Node1&#45;&gt;Node5</title>
<path fill="none" stroke="#63b8ff" d="M1079.32,-519.9C1062.06,-529.71 1041.04,-541.05 1021.5,-550 1011.06,-554.78 999.61,-559.4 988.72,-563.52"/>
<polygon fill="#63b8ff" stroke="#63b8ff" points="1080.78,-523.1 1087.7,-515.08 1077.29,-517.03 1080.78,-523.1"/>
</g>
<!-- Node7 -->
<g id="node7" class="node">
<title>Node7</title>
<g id="a_node7"><a xlink:href="a02039.html#aa0ab8d27fd88a33a2f801413ac4c7fbc" target="_top" xlink:title=" ">
<polygon fill="white" stroke="#666666" points="634.38,-656 514.88,-656 514.88,-624 634.38,-624 634.38,-656"/>
<text xml:space="preserve" text-anchor="start" x="522.88" y="-642.5" font-family="Helvetica,sans-Serif" font-size="10.00">nlohmann::detail::binary</text>
<text xml:space="preserve" text-anchor="middle" x="574.62" y="-630.5" font-family="Helvetica,sans-Serif" font-size="10.00">_writer::write_cbor</text>
</a>
</g>
</g>
<!-- Node1&#45;&gt;Node7 -->
<g id="edge42" class="edge">
<title>Node1&#45;&gt;Node7</title>
<path fill="none" stroke="#63b8ff" d="M1108.92,-525.23C1097.31,-562.3 1070.78,-627.18 1021.5,-655 957.09,-691.36 740.59,-665.11 634.8,-649.44"/>
<polygon fill="#63b8ff" stroke="#63b8ff" points="1112.26,-526.29 1111.74,-515.71 1105.54,-524.3 1112.26,-526.29"/>
</g>
<!-- Node9 -->
<g id="node9" class="node">
<title>Node9</title>
<g id="a_node9"><a xlink:href="a02039.html#ae4e0852b64102ce4b07d99f08f828b7c" target="_top" xlink:title=" ">
<polygon fill="white" stroke="#666666" points="634.38,-568 514.88,-568 514.88,-536 634.38,-536 634.38,-568"/>
<text xml:space="preserve" text-anchor="start" x="522.88" y="-554.5" font-family="Helvetica,sans-Serif" font-size="10.00">nlohmann::detail::binary</text>
<text xml:space="preserve" text-anchor="middle" x="574.62" y="-542.5" font-family="Helvetica,sans-Serif" font-size="10.00">_writer::write_msgpack</text>
</a>
</g>
</g>
<!-- Node1&#45;&gt;Node9 -->
<g id="edge43" class="edge">
<title>Node1&#45;&gt;Node9</title>
<path fill="none" stroke="#63b8ff" d="M1046.01,-508.84C1037.75,-509.97 1029.45,-511.06 1021.5,-512 883.16,-528.41 719.95,-541.45 634.52,-547.8"/>
<polygon fill="#63b8ff" stroke="#63b8ff" points="1046.27,-512.33 1055.69,-507.47 1045.29,-505.4 1046.27,-512.33"/>
</g>
<!-- Node11 -->
<g id="node11" class="node">
<title>Node11</title>
<g id="a_node11"><a xlink:href="a02039.html#ad452d114696407b98abc69b6001c270e" target="_top" xlink:title=" ">
<polygon fill="white" stroke="#666666" points="1021.5,-646 858.5,-646 858.5,-614 1021.5,-614 1021.5,-646"/>
<text xml:space="preserve" text-anchor="start" x="866.5" y="-632.5" font-family="Helvetica,sans-Serif" font-size="10.00">nlohmann::detail::binary</text>
<text xml:space="preserve" text-anchor="middle" x="940" y="-620.5" font-family="Helvetica,sans-Serif" font-size="10.00">_writer::get_msgpack_float_prefix</text>
</a>
</g>
</g>
<!-- Node1&#45;&gt;Node11 -->
<g id="edge13" class="edge">
<title>Node1&#45;&gt;Node11</title>
<path fill="none" stroke="#63b8ff" d="M1099.77,-523.59C1082.88,-547.86 1054.47,-583.7 1021.5,-605 1016.46,-608.26 1010.97,-611.11 1005.3,-613.61"/>
<polygon fill="#63b8ff" stroke="#63b8ff" points="1102.51,-525.78 1105.23,-515.54 1096.72,-521.85 1102.51,-525.78"/>
</g>
<!-- Node12 -->
<g id="node12" class="node">
<title>Node12</title>
<g id="a_node12"><a xlink:href="a02039.html#a025212bd170253638b9f05b3b6aa5bf9" target="_top" xlink:title="Writes a BSON element with key name and array value.">
<polygon fill="white" stroke="#666666" points="813.88,-120 688.38,-120 688.38,-88 813.88,-88 813.88,-120"/>
<text xml:space="preserve" text-anchor="start" x="696.38" y="-106.5" font-family="Helvetica,sans-Serif" font-size="10.00">nlohmann::detail::binary</text>
<text xml:space="preserve" text-anchor="middle" x="751.12" y="-94.5" font-family="Helvetica,sans-Serif" font-size="10.00">_writer::write_bson_array</text>
</a>
</g>
</g>
<!-- Node1&#45;&gt;Node12 -->
<g id="edge15" class="edge">
<title>Node1&#45;&gt;Node12</title>
<path fill="none" stroke="#63b8ff" d="M1112.36,-470.21C1104.29,-423.35 1081.19,-328.85 1021.5,-279 964.4,-231.32 913.21,-291.4 858.5,-241 820.04,-205.57 858.91,-166.53 822.5,-129 819.34,-125.74 815.73,-122.91 811.85,-120.44"/>
<polygon fill="#63b8ff" stroke="#63b8ff" points="1108.91,-470.76 1113.94,-480.08 1115.82,-469.65 1108.91,-470.76"/>
</g>
<!-- Node14 -->
<g id="node14" class="node">
<title>Node14</title>
<g id="a_node14"><a xlink:href="a02039.html#a29b3e0f83a8e5f2307804023109ba2c9" target="_top" xlink:title=" ">
<polygon fill="white" stroke="#666666" points="469.5,-292 339.5,-292 339.5,-260 469.5,-260 469.5,-292"/>
<text xml:space="preserve" text-anchor="start" x="347.5" y="-278.5" font-family="Helvetica,sans-Serif" font-size="10.00">nlohmann::detail::binary</text>
<text xml:space="preserve" text-anchor="middle" x="404.5" y="-266.5" font-family="Helvetica,sans-Serif" font-size="10.00">_writer::write_bson_object</text>
</a>
</g>
</g>
<!-- Node1&#45;&gt;Node14 -->
<g id="edge41" class="edge">
<title>Node1&#45;&gt;Node14</title>
<path fill="none" stroke="#63b8ff" d="M1046.11,-499.9C940.28,-501.92 745.2,-502.18 679.75,-479 565.56,-438.56 458.8,-333.19 420.47,-292.43"/>
<polygon fill="#63b8ff" stroke="#63b8ff" points="1045.87,-503.4 1055.8,-499.7 1045.73,-496.4 1045.87,-503.4"/>
</g>
<!-- Node18 -->
<g id="node18" class="node">
<title>Node18</title>
<g id="a_node18"><a xlink:href="a02039.html#ae099435e1df3096e0fc78333282f8f67" target="_top" xlink:title="Writes a BSON element with key name and boolean value value.">
<polygon fill="white" stroke="#666666" points="819.88,-470 682.38,-470 682.38,-438 819.88,-438 819.88,-470"/>
<text xml:space="preserve" text-anchor="start" x="690.38" y="-456.5" font-family="Helvetica,sans-Serif" font-size="10.00">nlohmann::detail::binary</text>
<text xml:space="preserve" text-anchor="middle" x="751.12" y="-444.5" font-family="Helvetica,sans-Serif" font-size="10.00">_writer::write_bson_boolean</text>
</a>
</g>
</g>
<!-- Node1&#45;&gt;Node18 -->
<g id="edge23" class="edge">
<title>Node1&#45;&gt;Node18</title>
<path fill="none" stroke="#63b8ff" d="M1045.98,-487.33C1037.74,-486.16 1029.44,-485.03 1021.5,-484 953.13,-475.15 874.8,-466.6 820.29,-460.91"/>
<polygon fill="#63b8ff" stroke="#63b8ff" points="1045.27,-490.76 1055.66,-488.72 1046.26,-483.84 1045.27,-490.76"/>
</g>
<!-- Node19 -->
<g id="node19" class="node">
<title>Node19</title>
<g id="a_node19"><a xlink:href="a02039.html#a1b5b7f5c03b1f8b1f59ea61db9634108" target="_top" xlink:title="Writes the given element_type and name to the output adapter.">
<polygon fill="white" stroke="#666666" points="1020,-320 860,-320 860,-288 1020,-288 1020,-320"/>
<text xml:space="preserve" text-anchor="start" x="868" y="-306.5" font-family="Helvetica,sans-Serif" font-size="10.00">nlohmann::detail::binary</text>
<text xml:space="preserve" text-anchor="middle" x="940" y="-294.5" font-family="Helvetica,sans-Serif" font-size="10.00">_writer::write_bson_entry_header</text>
</a>
</g>
</g>
<!-- Node1&#45;&gt;Node19 -->
<g id="edge25" class="edge">
<title>Node1&#45;&gt;Node19</title>
<path fill="none" stroke="#63b8ff" d="M1093.99,-473.36C1057.63,-433.1 986.46,-354.33 955.72,-320.3"/>
<polygon fill="#63b8ff" stroke="#63b8ff" points="1091.29,-475.6 1100.6,-480.67 1096.49,-470.9 1091.29,-475.6"/>
</g>
<!-- Node26 -->
<g id="node26" class="node">
<title>Node26</title>
<g id="a_node26"><a xlink:href="a02039.html#a0ea6745f944c0c61672146886b4ee90f" target="_top" xlink:title=" ">
<polygon fill="white" stroke="#666666" points="1006.5,-232 873.5,-232 873.5,-188 1006.5,-188 1006.5,-232"/>
<text xml:space="preserve" text-anchor="start" x="881.5" y="-218.5" font-family="Helvetica,sans-Serif" font-size="10.00">nlohmann::detail::binary</text>
<text xml:space="preserve" text-anchor="start" x="881.5" y="-206.5" font-family="Helvetica,sans-Serif" font-size="10.00">_writer::write_number_with</text>
<text xml:space="preserve" text-anchor="middle" x="940" y="-194.5" font-family="Helvetica,sans-Serif" font-size="10.00">_ubjson_prefix</text>
</a>
</g>
</g>
<!-- Node1&#45;&gt;Node26 -->
<g id="edge44" class="edge">
<title>Node1&#45;&gt;Node26</title>
<path fill="none" stroke="#63b8ff" d="M1112.89,-470.27C1105.36,-419.56 1082.75,-311.1 1021.5,-246 1016.57,-240.76 1010.74,-236.23 1004.5,-232.33"/>
<polygon fill="#63b8ff" stroke="#63b8ff" points="1109.41,-470.66 1114.24,-480.08 1116.34,-469.7 1109.41,-470.66"/>
</g>
<!-- Node27 -->
<g id="node27" class="node">
<title>Node27</title>
<g id="a_node27"><a xlink:href="a02039.html#a0f6c65053d859269f88eb4ebb0cd7060" target="_top" xlink:title=" ">
<polygon fill="white" stroke="#666666" points="999.75,-92 880.25,-92 880.25,-60 999.75,-60 999.75,-92"/>
<text xml:space="preserve" text-anchor="start" x="888.25" y="-78.5" font-family="Helvetica,sans-Serif" font-size="10.00">nlohmann::detail::binary</text>
<text xml:space="preserve" text-anchor="middle" x="940" y="-66.5" font-family="Helvetica,sans-Serif" font-size="10.00">_writer::write_ubjson</text>
</a>
</g>
</g>
<!-- Node1&#45;&gt;Node27 -->
<g id="edge45" class="edge">
<title>Node1&#45;&gt;Node27</title>
<path fill="none" stroke="#63b8ff" d="M1111.64,-470.33C1101.4,-413.32 1073.42,-279.7 1021.5,-179 1004.13,-145.31 975.17,-111.75 957.13,-92.48"/>
<polygon fill="#63b8ff" stroke="#63b8ff" points="1108.18,-470.86 1113.36,-480.1 1115.08,-469.65 1108.18,-470.86"/>
</g>
<!-- Node3 -->
<g id="node3" class="node">
<title>Node3</title>
<g id="a_node3"><a xlink:href="a02055.html#a95460ebd1a535a543e5a0ec52e00f48b" target="_top" xlink:title="internal implementation of the serialization function">
<polygon fill="white" stroke="#666666" points="817.25,-734 685,-734 685,-702 817.25,-702 817.25,-734"/>
<text xml:space="preserve" text-anchor="start" x="693" y="-720.5" font-family="Helvetica,sans-Serif" font-size="10.00">nlohmann::detail::serializer</text>
<text xml:space="preserve" text-anchor="middle" x="751.12" y="-708.5" font-family="Helvetica,sans-Serif" font-size="10.00">::dump</text>
</a>
</g>
</g>
<!-- Node2&#45;&gt;Node3 -->
<g id="edge2" class="edge">
<title>Node2&#45;&gt;Node3</title>
<path fill="none" stroke="#63b8ff" d="M862.19,-718C847.38,-718 832,-718 817.59,-718"/>
<polygon fill="#63b8ff" stroke="#63b8ff" points="861.86,-721.5 871.86,-718 861.86,-714.5 861.86,-721.5"/>
</g>
<!-- Node3&#45;&gt;Node3 -->
<g id="edge3" class="edge">
<title>Node3&#45;&gt;Node3</title>
<path fill="none" stroke="#63b8ff" d="M780.54,-745.71C775.63,-749.48 765.83,-752 751.12,-752 724.24,-752 713.73,-743.58 719.61,-734.44"/>
<polygon fill="#63b8ff" stroke="#63b8ff" points="783.97,-746.4 782.36,-735.93 777.09,-745.12 783.97,-746.4"/>
</g>
<!-- Node4 -->
<g id="node4" class="node">
<title>Node4</title>
<g id="a_node4"><a xlink:href="a01659.html#a476756fb08e7f2416aad116d137977f4" target="_top" xlink:title="serialization">
<polygon fill="white" stroke="#666666" points="629.88,-734 519.38,-734 519.38,-702 629.88,-702 629.88,-734"/>
<text xml:space="preserve" text-anchor="start" x="527.38" y="-720.5" font-family="Helvetica,sans-Serif" font-size="10.00">nlohmann::basic_json</text>
<text xml:space="preserve" text-anchor="middle" x="574.62" y="-708.5" font-family="Helvetica,sans-Serif" font-size="10.00">::dump</text>
</a>
</g>
</g>
<!-- Node3&#45;&gt;Node4 -->
<g id="edge4" class="edge">
<title>Node3&#45;&gt;Node4</title>
<path fill="none" stroke="#63b8ff" d="M673.19,-718C658.75,-718 643.93,-718 630.34,-718"/>
<polygon fill="#63b8ff" stroke="#63b8ff" points="673.14,-721.5 683.14,-718 673.14,-714.5 673.14,-721.5"/>
</g>
<!-- Node6 -->
<g id="node6" class="node">
<title>Node6</title>
<g id="a_node6"><a xlink:href="a02039.html#ae69dc3c5b2e8c1c8e461779cddb87436" target="_top" xlink:title=" ">
<polygon fill="white" stroke="#666666" points="820.62,-622 681.62,-622 681.62,-590 820.62,-590 820.62,-622"/>
<text xml:space="preserve" text-anchor="start" x="689.62" y="-608.5" font-family="Helvetica,sans-Serif" font-size="10.00">nlohmann::detail::binary</text>
<text xml:space="preserve" text-anchor="middle" x="751.12" y="-596.5" font-family="Helvetica,sans-Serif" font-size="10.00">_writer::write_compact_float</text>
</a>
</g>
</g>
<!-- Node5&#45;&gt;Node6 -->
<g id="edge6" class="edge">
<title>Node5&#45;&gt;Node6</title>
<path fill="none" stroke="#63b8ff" d="M857.51,-591.34C845.29,-593.04 832.81,-594.77 820.9,-596.43"/>
<polygon fill="#63b8ff" stroke="#63b8ff" points="857.7,-594.85 867.12,-590 856.73,-587.91 857.7,-594.85"/>
</g>
<!-- Node6&#45;&gt;Node7 -->
<g id="edge7" class="edge">
<title>Node6&#45;&gt;Node7</title>
<path fill="none" stroke="#63b8ff" d="M669.9,-621.63C658.08,-623.93 646.08,-626.27 634.79,-628.47"/>
<polygon fill="#63b8ff" stroke="#63b8ff" points="670.53,-625.08 679.67,-619.73 669.19,-618.2 670.53,-625.08"/>
</g>
<!-- Node6&#45;&gt;Node9 -->
<g id="edge10" class="edge">
<title>Node6&#45;&gt;Node9</title>
<path fill="none" stroke="#63b8ff" d="M685.98,-586.15C667.22,-580.34 646.91,-574.06 628.9,-568.49"/>
<polygon fill="#63b8ff" stroke="#63b8ff" points="684.79,-589.44 695.38,-589.06 686.86,-582.76 684.79,-589.44"/>
</g>
<!-- Node7&#45;&gt;Node7 -->
<g id="edge9" class="edge">
<title>Node7&#45;&gt;Node7</title>
<path fill="none" stroke="#63b8ff" d="M602.98,-667.71C598.25,-671.48 588.8,-674 574.62,-674 548.71,-674 538.58,-665.58 544.25,-656.44"/>
<polygon fill="#63b8ff" stroke="#63b8ff" points="606.41,-668.39 604.73,-657.93 599.52,-667.16 606.41,-668.39"/>
</g>
<!-- Node8 -->
<g id="node8" class="node">
<title>Node8</title>
<g id="a_node8"><a xlink:href="a01659.html#a2becf604016783e5644eaa7782a08683" target="_top" xlink:title=" ">
<polygon fill="white" stroke="#666666" points="459.75,-656 349.25,-656 349.25,-624 459.75,-624 459.75,-656"/>
<text xml:space="preserve" text-anchor="start" x="357.25" y="-642.5" font-family="Helvetica,sans-Serif" font-size="10.00">nlohmann::basic_json</text>
<text xml:space="preserve" text-anchor="middle" x="404.5" y="-630.5" font-family="Helvetica,sans-Serif" font-size="10.00">::to_cbor</text>
</a>
</g>
</g>
<!-- Node7&#45;&gt;Node8 -->
<g id="edge8" class="edge">
<title>Node7&#45;&gt;Node8</title>
<path fill="none" stroke="#63b8ff" d="M503.37,-640C488.89,-640 473.86,-640 460.04,-640"/>
<polygon fill="#63b8ff" stroke="#63b8ff" points="503.31,-643.5 513.31,-640 503.31,-636.5 503.31,-643.5"/>
</g>
<!-- Node9&#45;&gt;Node9 -->
<g id="edge12" class="edge">
<title>Node9&#45;&gt;Node9</title>
<path fill="none" stroke="#63b8ff" d="M602.98,-579.71C598.25,-583.48 588.8,-586 574.62,-586 548.71,-586 538.58,-577.58 544.25,-568.44"/>
<polygon fill="#63b8ff" stroke="#63b8ff" points="606.41,-580.39 604.73,-569.93 599.52,-579.16 606.41,-580.39"/>
</g>
<!-- Node10 -->
<g id="node10" class="node">
<title>Node10</title>
<g id="a_node10"><a xlink:href="a01659.html#aa8fe46eda86f6f92c5599c20b6c81819" target="_top" xlink:title=" ">
<polygon fill="white" stroke="#666666" points="459.75,-568 349.25,-568 349.25,-536 459.75,-536 459.75,-568"/>
<text xml:space="preserve" text-anchor="start" x="357.25" y="-554.5" font-family="Helvetica,sans-Serif" font-size="10.00">nlohmann::basic_json</text>
<text xml:space="preserve" text-anchor="middle" x="404.5" y="-542.5" font-family="Helvetica,sans-Serif" font-size="10.00">::to_msgpack</text>
</a>
</g>
</g>
<!-- Node9&#45;&gt;Node10 -->
<g id="edge11" class="edge">
<title>Node9&#45;&gt;Node10</title>
<path fill="none" stroke="#63b8ff" d="M503.37,-552C488.89,-552 473.86,-552 460.04,-552"/>
<polygon fill="#63b8ff" stroke="#63b8ff" points="503.31,-555.5 513.31,-552 503.31,-548.5 503.31,-555.5"/>
</g>
<!-- Node11&#45;&gt;Node6 -->
<g id="edge14" class="edge">
<title>Node11&#45;&gt;Node6</title>
<path fill="none" stroke="#63b8ff" d="M846.79,-618.16C838.15,-617.05 829.49,-615.94 821.12,-614.86"/>
<polygon fill="#63b8ff" stroke="#63b8ff" points="846.26,-621.62 856.62,-619.42 847.15,-614.67 846.26,-621.62"/>
</g>
<!-- Node13 -->
<g id="node13" class="node">
<title>Node13</title>
<g id="a_node13"><a xlink:href="a02039.html#a7ff58bf1a80018148bed860667ffca07" target="_top" xlink:title="Serializes the JSON value j to BSON and associates it with the key name.">
<polygon fill="white" stroke="#666666" points="643.75,-270 505.5,-270 505.5,-238 643.75,-238 643.75,-270"/>
<text xml:space="preserve" text-anchor="start" x="513.5" y="-256.5" font-family="Helvetica,sans-Serif" font-size="10.00">nlohmann::detail::binary</text>
<text xml:space="preserve" text-anchor="middle" x="574.62" y="-244.5" font-family="Helvetica,sans-Serif" font-size="10.00">_writer::write_bson_element</text>
</a>
</g>
</g>
<!-- Node12&#45;&gt;Node13 -->
<g id="edge16" class="edge">
<title>Node12&#45;&gt;Node13</title>
<path fill="none" stroke="#63b8ff" d="M679.07,-121.31C629.73,-158.38 595.85,-210.88 582.17,-237.75"/>
<polygon fill="#63b8ff" stroke="#63b8ff" points="680.82,-124.37 686.9,-115.69 676.73,-118.68 680.82,-124.37"/>
</g>
<!-- Node13&#45;&gt;Node12 -->
<g id="edge17" class="edge">
<title>Node13&#45;&gt;Node12</title>
<path fill="none" stroke="#63b8ff" d="M595.59,-228.41C614.22,-202.28 644.41,-162.63 679.75,-138 690.6,-130.44 703.98,-124.93 716.14,-120.48"/>
<polygon fill="#63b8ff" stroke="#63b8ff" points="592.81,-226.28 589.9,-236.46 598.53,-230.32 592.81,-226.28"/>
</g>
<!-- Node13&#45;&gt;Node14 -->
<g id="edge18" class="edge">
<title>Node13&#45;&gt;Node14</title>
<path fill="none" stroke="#63b8ff" d="M493.87,-264.44C485.79,-265.49 477.64,-266.56 469.75,-267.59"/>
<polygon fill="#63b8ff" stroke="#63b8ff" points="494.28,-267.91 503.74,-263.14 493.37,-260.97 494.28,-267.91"/>
</g>
<!-- Node15 -->
<g id="node15" class="node">
<title>Node15</title>
<g id="a_node15"><a xlink:href="a02039.html#a9ffc566db5219b473762462234b47db9" target="_top" xlink:title=" ">
<polygon fill="white" stroke="#666666" points="284.75,-295 165.25,-295 165.25,-263 284.75,-263 284.75,-295"/>
<text xml:space="preserve" text-anchor="start" x="173.25" y="-281.5" font-family="Helvetica,sans-Serif" font-size="10.00">nlohmann::detail::binary</text>
<text xml:space="preserve" text-anchor="middle" x="225" y="-269.5" font-family="Helvetica,sans-Serif" font-size="10.00">_writer::write_bson</text>
</a>
</g>
</g>
<!-- Node14&#45;&gt;Node15 -->
<g id="edge19" class="edge">
<title>Node14&#45;&gt;Node15</title>
<path fill="none" stroke="#63b8ff" d="M327.83,-277.28C313.54,-277.52 298.79,-277.77 285.1,-278"/>
<polygon fill="#63b8ff" stroke="#63b8ff" points="327.71,-280.78 337.65,-277.11 327.6,-273.78 327.71,-280.78"/>
</g>
<!-- Node17 -->
<g id="node17" class="node">
<title>Node17</title>
<g id="a_node17"><a xlink:href="a02039.html#a6231302930265eccb3f56c378f7b0661" target="_top" xlink:title="Writes a BSON element with key name and object value.">
<polygon fill="white" stroke="#666666" points="303.5,-245 146.5,-245 146.5,-213 303.5,-213 303.5,-245"/>
<text xml:space="preserve" text-anchor="start" x="154.5" y="-231.5" font-family="Helvetica,sans-Serif" font-size="10.00">nlohmann::detail::binary</text>
<text xml:space="preserve" text-anchor="middle" x="225" y="-219.5" font-family="Helvetica,sans-Serif" font-size="10.00">_writer::write_bson_object_entry</text>
</a>
</g>
</g>
<!-- Node14&#45;&gt;Node17 -->
<g id="edge21" class="edge">
<title>Node14&#45;&gt;Node17</title>
<path fill="none" stroke="#63b8ff" d="M330.3,-256.62C316.27,-252.9 301.69,-249.04 288.05,-245.43"/>
<polygon fill="#63b8ff" stroke="#63b8ff" points="329.39,-260 339.96,-259.17 331.19,-253.23 329.39,-260"/>
</g>
<!-- Node16 -->
<g id="node16" class="node">
<title>Node16</title>
<g id="a_node16"><a xlink:href="a01659.html#a668e4c2ad9808218a25879700f4aef2b" target="_top" xlink:title="Serializes the given JSON object j to BSON and forwards the corresponding BSON&#45;representation to the ...">
<polygon fill="white" stroke="#666666" points="110.5,-295 0,-295 0,-263 110.5,-263 110.5,-295"/>
<text xml:space="preserve" text-anchor="start" x="8" y="-281.5" font-family="Helvetica,sans-Serif" font-size="10.00">nlohmann::basic_json</text>
<text xml:space="preserve" text-anchor="middle" x="55.25" y="-269.5" font-family="Helvetica,sans-Serif" font-size="10.00">::to_bson</text>
</a>
</g>
</g>
<!-- Node15&#45;&gt;Node16 -->
<g id="edge20" class="edge">
<title>Node15&#45;&gt;Node16</title>
<path fill="none" stroke="#63b8ff" d="M153.58,-279C139.33,-279 124.54,-279 110.93,-279"/>
<polygon fill="#63b8ff" stroke="#63b8ff" points="153.34,-282.5 163.34,-279 153.34,-275.5 153.34,-282.5"/>
</g>
<!-- Node17&#45;&gt;Node13 -->
<g id="edge22" class="edge">
<title>Node17&#45;&gt;Node13</title>
<path fill="none" stroke="#63b8ff" d="M315.04,-235.4C374.28,-239.66 450.93,-245.18 505.36,-249.09"/>
<polygon fill="#63b8ff" stroke="#63b8ff" points="315.55,-231.93 305.32,-234.7 315.04,-238.91 315.55,-231.93"/>
</g>
<!-- Node18&#45;&gt;Node13 -->
<g id="edge24" class="edge">
<title>Node18&#45;&gt;Node13</title>
<path fill="none" stroke="#63b8ff" d="M683.24,-431.68C682.04,-430.82 680.88,-429.93 679.75,-429 625.8,-384.68 593.12,-304.59 581,-270.3"/>
<polygon fill="#63b8ff" stroke="#63b8ff" points="681.29,-434.59 691.64,-436.88 684.97,-428.64 681.29,-434.59"/>
</g>
<!-- Node19&#45;&gt;Node12 -->
<g id="edge26" class="edge">
<title>Node19&#45;&gt;Node12</title>
<path fill="none" stroke="#63b8ff" d="M866.27,-281.25C863.47,-279.05 860.86,-276.64 858.5,-274 814.28,-224.46 867.1,-178.2 822.5,-129 819.54,-125.73 816.12,-122.89 812.43,-120.43"/>
<polygon fill="#63b8ff" stroke="#63b8ff" points="864.24,-284.1 874.5,-286.73 868.12,-278.28 864.24,-284.1"/>
</g>
<!-- Node19&#45;&gt;Node17 -->
<g id="edge36" class="edge">
<title>Node19&#45;&gt;Node17</title>
<path fill="none" stroke="#63b8ff" d="M899.85,-281.57C884.79,-271.08 868.77,-257.28 858.5,-241 819.15,-178.62 880.03,-125.15 822.5,-79 733.27,-7.42 375.59,-160.72 261.3,-212.62"/>
<polygon fill="#63b8ff" stroke="#63b8ff" points="897.51,-284.22 907.77,-286.83 901.38,-278.39 897.51,-284.22"/>
</g>
<!-- Node19&#45;&gt;Node18 -->
<g id="edge29" class="edge">
<title>Node19&#45;&gt;Node18</title>
<path fill="none" stroke="#63b8ff" d="M921.33,-329.27C900.6,-357.23 863.76,-401.91 822.5,-429 817.62,-432.2 812.29,-435.05 806.8,-437.57"/>
<polygon fill="#63b8ff" stroke="#63b8ff" points="924.04,-331.5 927.09,-321.36 918.38,-327.39 924.04,-331.5"/>
</g>
<!-- Node20 -->
<g id="node20" class="node">
<title>Node20</title>
<g id="a_node20"><a xlink:href="a02039.html#a97d34d9a70ddc06ae782c55454df42bc" target="_top" xlink:title="Writes a BSON element with key name and binary value value.">
<polygon fill="white" stroke="#666666" points="816.12,-420 686.12,-420 686.12,-388 816.12,-388 816.12,-420"/>
<text xml:space="preserve" text-anchor="start" x="694.12" y="-406.5" font-family="Helvetica,sans-Serif" font-size="10.00">nlohmann::detail::binary</text>
<text xml:space="preserve" text-anchor="middle" x="751.12" y="-394.5" font-family="Helvetica,sans-Serif" font-size="10.00">_writer::write_bson_binary</text>
</a>
</g>
</g>
<!-- Node19&#45;&gt;Node20 -->
<g id="edge27" class="edge">
<title>Node19&#45;&gt;Node20</title>
<path fill="none" stroke="#63b8ff" d="M907.96,-326.8C885.13,-342.85 852.91,-364.06 822.5,-379 816.22,-382.09 809.45,-384.98 802.69,-387.63"/>
<polygon fill="#63b8ff" stroke="#63b8ff" points="909.79,-329.79 915.9,-321.14 905.73,-324.09 909.79,-329.79"/>
</g>
<!-- Node21 -->
<g id="node21" class="node">
<title>Node21</title>
<g id="a_node21"><a xlink:href="a02039.html#a263ec18815467bb9919021ef126919ca" target="_top" xlink:title="Writes a BSON element with key name and double value value.">
<polygon fill="white" stroke="#666666" points="817.25,-370 685,-370 685,-338 817.25,-338 817.25,-370"/>
<text xml:space="preserve" text-anchor="start" x="693" y="-356.5" font-family="Helvetica,sans-Serif" font-size="10.00">nlohmann::detail::binary</text>
<text xml:space="preserve" text-anchor="middle" x="751.12" y="-344.5" font-family="Helvetica,sans-Serif" font-size="10.00">_writer::write_bson_double</text>
</a>
</g>
</g>
<!-- Node19&#45;&gt;Node21 -->
<g id="edge30" class="edge">
<title>Node19&#45;&gt;Node21</title>
<path fill="none" stroke="#63b8ff" d="M866.78,-323.32C849.23,-328.02 830.62,-333 813.61,-337.55"/>
<polygon fill="#63b8ff" stroke="#63b8ff" points="867.33,-326.8 876.09,-320.83 865.52,-320.04 867.33,-326.8"/>
</g>
<!-- Node22 -->
<g id="node22" class="node">
<title>Node22</title>
<g id="a_node22"><a xlink:href="a02039.html#a553ad4dbdf27238eef90867e4bf2f3e5" target="_top" xlink:title="Writes a BSON element with key name and integer value.">
<polygon fill="white" stroke="#666666" points="817.62,-320 684.62,-320 684.62,-288 817.62,-288 817.62,-320"/>
<text xml:space="preserve" text-anchor="start" x="692.62" y="-306.5" font-family="Helvetica,sans-Serif" font-size="10.00">nlohmann::detail::binary</text>
<text xml:space="preserve" text-anchor="middle" x="751.12" y="-294.5" font-family="Helvetica,sans-Serif" font-size="10.00">_writer::write_bson_integer</text>
</a>
</g>
</g>
<!-- Node19&#45;&gt;Node22 -->
<g id="edge32" class="edge">
<title>Node19&#45;&gt;Node22</title>
<path fill="none" stroke="#63b8ff" d="M848.25,-304C838.03,-304 827.77,-304 817.95,-304"/>
<polygon fill="#63b8ff" stroke="#63b8ff" points="848.23,-307.5 858.23,-304 848.23,-300.5 848.23,-307.5"/>
</g>
<!-- Node23 -->
<g id="node23" class="node">
<title>Node23</title>
<g id="a_node23"><a xlink:href="a02039.html#a9927c1110b18661e0224a76156e5a7a9" target="_top" xlink:title="Writes a BSON element with key name and null value.">
<polygon fill="white" stroke="#666666" points="810.88,-270 691.38,-270 691.38,-238 810.88,-238 810.88,-270"/>
<text xml:space="preserve" text-anchor="start" x="699.38" y="-256.5" font-family="Helvetica,sans-Serif" font-size="10.00">nlohmann::detail::binary</text>
<text xml:space="preserve" text-anchor="middle" x="751.12" y="-244.5" font-family="Helvetica,sans-Serif" font-size="10.00">_writer::write_bson_null</text>
</a>
</g>
</g>
<!-- Node19&#45;&gt;Node23 -->
<g id="edge34" class="edge">
<title>Node19&#45;&gt;Node23</title>
<path fill="none" stroke="#63b8ff" d="M866.59,-284.63C848.21,-279.71 828.69,-274.49 811.07,-269.77"/>
<polygon fill="#63b8ff" stroke="#63b8ff" points="865.52,-287.96 876.09,-287.17 867.33,-281.2 865.52,-287.96"/>
</g>
<!-- Node24 -->
<g id="node24" class="node">
<title>Node24</title>
<g id="a_node24"><a xlink:href="a02039.html#a5e6574416915208fc035b57338ae3252" target="_top" xlink:title="Writes a BSON element with key name and string value value.">
<polygon fill="white" stroke="#666666" points="815,-220 687.25,-220 687.25,-188 815,-188 815,-220"/>
<text xml:space="preserve" text-anchor="start" x="695.25" y="-206.5" font-family="Helvetica,sans-Serif" font-size="10.00">nlohmann::detail::binary</text>
<text xml:space="preserve" text-anchor="middle" x="751.12" y="-194.5" font-family="Helvetica,sans-Serif" font-size="10.00">_writer::write_bson_string</text>
</a>
</g>
</g>
<!-- Node19&#45;&gt;Node24 -->
<g id="edge37" class="edge">
<title>Node19&#45;&gt;Node24</title>
<path fill="none" stroke="#63b8ff" d="M872.55,-282.63C867.63,-280.04 862.88,-277.17 858.5,-274 837.75,-258.99 843.36,-243.85 822.5,-229 817.96,-225.77 812.96,-222.91 807.78,-220.41"/>
<polygon fill="#63b8ff" stroke="#63b8ff" points="870.97,-285.75 881.5,-286.93 874,-279.44 870.97,-285.75"/>
</g>
<!-- Node25 -->
<g id="node25" class="node">
<title>Node25</title>
<g id="a_node25"><a xlink:href="a02039.html#a5e295ed1be6af6260d2a65f7397c3742" target="_top" xlink:title="Writes a BSON element with key name and unsigned value.">
<polygon fill="white" stroke="#666666" points="822.5,-170 679.75,-170 679.75,-138 822.5,-138 822.5,-170"/>
<text xml:space="preserve" text-anchor="start" x="687.75" y="-156.5" font-family="Helvetica,sans-Serif" font-size="10.00">nlohmann::detail::binary</text>
<text xml:space="preserve" text-anchor="middle" x="751.12" y="-144.5" font-family="Helvetica,sans-Serif" font-size="10.00">_writer::write_bson_unsigned</text>
</a>
</g>
</g>
<!-- Node19&#45;&gt;Node25 -->
<g id="edge39" class="edge">
<title>Node19&#45;&gt;Node25</title>
<path fill="none" stroke="#63b8ff" d="M867.78,-281.7C864.46,-279.38 861.34,-276.82 858.5,-274 826.48,-242.16 854.76,-210.59 822.5,-179 819.17,-175.73 815.38,-172.89 811.33,-170.42"/>
<polygon fill="#63b8ff" stroke="#63b8ff" points="865.93,-284.67 876.3,-286.85 869.55,-278.68 865.93,-284.67"/>
</g>
<!-- Node20&#45;&gt;Node13 -->
<g id="edge28" class="edge">
<title>Node20&#45;&gt;Node13</title>
<path fill="none" stroke="#63b8ff" d="M684.61,-382.16C682.95,-381.15 681.32,-380.1 679.75,-379 636.65,-348.96 601.22,-296.58 585.06,-270.19"/>
<polygon fill="#63b8ff" stroke="#63b8ff" points="682.74,-385.13 693.21,-386.78 686.06,-378.96 682.74,-385.13"/>
</g>
<!-- Node21&#45;&gt;Node13 -->
<g id="edge31" class="edge">
<title>Node21&#45;&gt;Node13</title>
<path fill="none" stroke="#63b8ff" d="M688.12,-333.1C685.26,-331.79 682.46,-330.42 679.75,-329 647.98,-312.35 614.99,-286.98 594.88,-270.44"/>
<polygon fill="#63b8ff" stroke="#63b8ff" points="686.7,-336.3 697.27,-337.04 689.47,-329.87 686.7,-336.3"/>
</g>
<!-- Node22&#45;&gt;Node13 -->
<g id="edge33" class="edge">
<title>Node22&#45;&gt;Node13</title>
<path fill="none" stroke="#63b8ff" d="M681.99,-284.48C665.86,-279.85 648.8,-274.97 633.19,-270.49"/>
<polygon fill="#63b8ff" stroke="#63b8ff" points="680.95,-287.82 691.53,-287.21 682.88,-281.09 680.95,-287.82"/>
</g>
<!-- Node23&#45;&gt;Node13 -->
<g id="edge35" class="edge">
<title>Node23&#45;&gt;Node13</title>
<path fill="none" stroke="#63b8ff" d="M679.86,-254C668.03,-254 655.76,-254 643.97,-254"/>
<polygon fill="#63b8ff" stroke="#63b8ff" points="679.53,-257.5 689.53,-254 679.53,-250.5 679.53,-257.5"/>
</g>
<!-- Node24&#45;&gt;Node13 -->
<g id="edge38" class="edge">
<title>Node24&#45;&gt;Node13</title>
<path fill="none" stroke="#63b8ff" d="M681.99,-223.52C665.86,-228.15 648.8,-233.03 633.19,-237.51"/>
<polygon fill="#63b8ff" stroke="#63b8ff" points="682.88,-226.91 691.53,-220.79 680.95,-220.18 682.88,-226.91"/>
</g>
<!-- Node25&#45;&gt;Node13 -->
<g id="edge40" class="edge">
<title>Node25&#45;&gt;Node13</title>
<path fill="none" stroke="#63b8ff" d="M688.12,-174.9C685.26,-176.21 682.46,-177.58 679.75,-179 647.98,-195.65 614.99,-221.02 594.88,-237.56"/>
<polygon fill="#63b8ff" stroke="#63b8ff" points="689.47,-178.13 697.27,-170.96 686.7,-171.7 689.47,-178.13"/>
</g>
<!-- Node27&#45;&gt;Node27 -->
<g id="edge47" class="edge">
<title>Node27&#45;&gt;Node27</title>
<path fill="none" stroke="#63b8ff" d="M969.54,-103.71C964.61,-107.48 954.77,-110 940,-110 913,-110 902.45,-101.58 908.36,-92.44"/>
<polygon fill="#63b8ff" stroke="#63b8ff" points="972.97,-104.4 971.37,-93.93 966.09,-103.12 972.97,-104.4"/>
</g>
<!-- Node28 -->
<g id="node28" class="node">
<title>Node28</title>
<g id="a_node28"><a xlink:href="a01659.html#a19dad92c4fe9e6a289a93195e1230e97" target="_top" xlink:title=" ">
<polygon fill="white" stroke="#666666" points="806.38,-32 695.88,-32 695.88,0 806.38,0 806.38,-32"/>
<text xml:space="preserve" text-anchor="start" x="703.88" y="-18.5" font-family="Helvetica,sans-Serif" font-size="10.00">nlohmann::basic_json</text>
<text xml:space="preserve" text-anchor="middle" x="751.12" y="-6.5" font-family="Helvetica,sans-Serif" font-size="10.00">::to_ubjson</text>
</a>
</g>
</g>
<!-- Node27&#45;&gt;Node28 -->
<g id="edge46" class="edge">
<title>Node27&#45;&gt;Node28</title>
<path fill="none" stroke="#63b8ff" d="M877.2,-56.16C853.29,-48.48 826.26,-39.8 803.45,-32.48"/>
<polygon fill="#63b8ff" stroke="#63b8ff" points="875.9,-59.42 886.49,-59.14 878.04,-52.75 875.9,-59.42"/>
</g>
</g>
</svg>
