<?xml version="1.0" encoding="UTF-8" standalone="no"?>
<!DOCTYPE svg PUBLIC "-//W3C//DTD SVG 1.1//EN"
 "http://www.w3.org/Graphics/SVG/1.1/DTD/svg11.dtd">
<!-- Generated by graphviz version 13.1.2 (20250808.2320)
 -->
<!-- Title: nlohmann::detail::binary_writer::calc_bson_entry_header_size Pages: 1 -->
<svg width="445pt" height="52pt"
 viewBox="0.00 0.00 445.00 52.00" xmlns="http://www.w3.org/2000/svg" xmlns:xlink="http://www.w3.org/1999/xlink">
<g id="graph0" class="graph" transform="scale(1 1) rotate(0) translate(4 48)">
<title>nlohmann::detail::binary_writer::calc_bson_entry_header_size</title>
<!-- Node1 -->
<g id="node1" class="node">
<title>Node1</title>
<g id="a_node1"><a xlink:title=" ">
<polygon fill="#999999" stroke="#666666" points="122.5,-44 0,-44 0,0 122.5,0 122.5,-44"/>
<text xml:space="preserve" text-anchor="start" x="8" y="-30.5" font-family="Helvetica,sans-Serif" font-size="10.00">nlohmann::detail::binary</text>
<text xml:space="preserve" text-anchor="start" x="8" y="-18.5" font-family="Helvetica,sans-Serif" font-size="10.00">_writer::calc_bson_entry</text>
<text xml:space="preserve" text-anchor="middle" x="61.25" y="-6.5" font-family="Helvetica,sans-Serif" font-size="10.00">_header_size</text>
</a>
</g>
</g>
<!-- Node2 -->
<g id="node2" class="node">
<title>Node2</title>
<g id="a_node2"><a xlink:href="a01575.html#a3f6d82a6f967c4728a1ec735a7867073" target="_top" xlink:title=" ">
<polygon fill="white" stroke="#666666" points="265.25,-38 158.5,-38 158.5,-6 265.25,-6 265.25,-38"/>
<text xml:space="preserve" text-anchor="start" x="166.5" y="-24.5" font-family="Helvetica,sans-Serif" font-size="10.00">nlohmann::detail::out</text>
<text xml:space="preserve" text-anchor="middle" x="211.88" y="-12.5" font-family="Helvetica,sans-Serif" font-size="10.00">_of_range::create</text>
</a>
</g>
</g>
<!-- Node1&#45;&gt;Node2 -->
<g id="edge1" class="edge">
<title>Node1&#45;&gt;Node2</title>
<path fill="none" stroke="#63b8ff" d="M122.7,-22C130.58,-22 138.68,-22 146.63,-22"/>
<polygon fill="#63b8ff" stroke="#63b8ff" points="146.6,-25.5 156.6,-22 146.6,-18.5 146.6,-25.5"/>
</g>
<!-- Node3 -->
<g id="node3" class="node">
<title>Node3</title>
<g id="a_node3"><a xlink:href="a01559.html#abf41a7e9178356314082284e6cfea278" target="_top" xlink:title=" ">
<polygon fill="white" stroke="#666666" points="436.5,-38 301.25,-38 301.25,-6 436.5,-6 436.5,-38"/>
<text xml:space="preserve" text-anchor="start" x="309.25" y="-24.5" font-family="Helvetica,sans-Serif" font-size="10.00">nlohmann::detail::exception</text>
<text xml:space="preserve" text-anchor="middle" x="368.88" y="-12.5" font-family="Helvetica,sans-Serif" font-size="10.00">::name</text>
</a>
</g>
</g>
<!-- Node2&#45;&gt;Node3 -->
<g id="edge2" class="edge">
<title>Node2&#45;&gt;Node3</title>
<path fill="none" stroke="#63b8ff" d="M265.35,-22C273.11,-22 281.25,-22 289.4,-22"/>
<polygon fill="#63b8ff" stroke="#63b8ff" points="289.38,-25.5 299.38,-22 289.38,-18.5 289.38,-25.5"/>
</g>
</g>
</svg>
