<?xml version="1.0" encoding="UTF-8" standalone="no"?>
<!DOCTYPE svg PUBLIC "-//W3C//DTD SVG 1.1//EN"
 "http://www.w3.org/Graphics/SVG/1.1/DTD/svg11.dtd">
<!-- Generated by graphviz version 13.1.2 (20250808.2320)
 -->
<!-- Title: nlohmann::detail::iter_impl::operator* Pages: 1 -->
<svg width="452pt" height="90pt"
 viewBox="0.00 0.00 452.00 90.00" xmlns="http://www.w3.org/2000/svg" xmlns:xlink="http://www.w3.org/1999/xlink">
<g id="graph0" class="graph" transform="scale(1 1) rotate(0) translate(4 86)">
<title>nlohmann::detail::iter_impl::operator*</title>
<!-- Node1 -->
<g id="node1" class="node">
<title>Node1</title>
<g id="a_node1"><a xlink:title="return a reference to the value pointed to by the iterator">
<polygon fill="#999999" stroke="#666666" points="106.75,-57 0,-57 0,-25 106.75,-25 106.75,-57"/>
<text xml:space="preserve" text-anchor="start" x="8" y="-43.5" font-family="Helvetica,sans-Serif" font-size="10.00">nlohmann::detail::iter</text>
<text xml:space="preserve" text-anchor="middle" x="53.38" y="-31.5" font-family="Helvetica,sans-Serif" font-size="10.00">_impl::operator*</text>
</a>
</g>
</g>
<!-- Node2 -->
<g id="node2" class="node">
<title>Node2</title>
<g id="a_node2"><a xlink:href="a01567.html#a4e849260a3caa1b288c7e619130c6c09" target="_top" xlink:title=" ">
<polygon fill="white" stroke="#666666" points="268.25,-82 147.25,-82 147.25,-50 268.25,-50 268.25,-82"/>
<text xml:space="preserve" text-anchor="start" x="155.25" y="-68.5" font-family="Helvetica,sans-Serif" font-size="10.00">nlohmann::detail::invalid</text>
<text xml:space="preserve" text-anchor="middle" x="207.75" y="-56.5" font-family="Helvetica,sans-Serif" font-size="10.00">_iterator::create</text>
</a>
</g>
</g>
<!-- Node1&#45;&gt;Node2 -->
<g id="edge1" class="edge">
<title>Node1&#45;&gt;Node2</title>
<path fill="none" stroke="#63b8ff" d="M107.24,-49.67C116.45,-51.18 126.15,-52.78 135.75,-54.35"/>
<polygon fill="#63b8ff" stroke="#63b8ff" points="135,-57.78 145.44,-55.94 136.14,-50.87 135,-57.78"/>
</g>
<!-- Node4 -->
<g id="node4" class="node">
<title>Node4</title>
<g id="a_node4"><a xlink:href="a02003.html#a8d1a7d46b3fcd06edd034f04ededb5e4" target="_top" xlink:title="return whether the iterator can be dereferenced">
<polygon fill="white" stroke="#666666" points="272.75,-32 142.75,-32 142.75,0 272.75,0 272.75,-32"/>
<text xml:space="preserve" text-anchor="start" x="150.75" y="-18.5" font-family="Helvetica,sans-Serif" font-size="10.00">nlohmann::detail::primitive</text>
<text xml:space="preserve" text-anchor="middle" x="207.75" y="-6.5" font-family="Helvetica,sans-Serif" font-size="10.00">_iterator_t::is_begin</text>
</a>
</g>
</g>
<!-- Node1&#45;&gt;Node4 -->
<g id="edge3" class="edge">
<title>Node1&#45;&gt;Node4</title>
<path fill="none" stroke="#63b8ff" d="M107.24,-32.33C114.95,-31.06 123.02,-29.74 131.07,-28.42"/>
<polygon fill="#63b8ff" stroke="#63b8ff" points="131.63,-31.87 140.93,-26.8 130.49,-24.96 131.63,-31.87"/>
</g>
<!-- Node3 -->
<g id="node3" class="node">
<title>Node3</title>
<g id="a_node3"><a xlink:href="a01559.html#abf41a7e9178356314082284e6cfea278" target="_top" xlink:title=" ">
<polygon fill="white" stroke="#666666" points="444,-82 308.75,-82 308.75,-50 444,-50 444,-82"/>
<text xml:space="preserve" text-anchor="start" x="316.75" y="-68.5" font-family="Helvetica,sans-Serif" font-size="10.00">nlohmann::detail::exception</text>
<text xml:space="preserve" text-anchor="middle" x="376.38" y="-56.5" font-family="Helvetica,sans-Serif" font-size="10.00">::name</text>
</a>
</g>
</g>
<!-- Node2&#45;&gt;Node3 -->
<g id="edge2" class="edge">
<title>Node2&#45;&gt;Node3</title>
<path fill="none" stroke="#63b8ff" d="M268.43,-66C277.76,-66 287.52,-66 297.19,-66"/>
<polygon fill="#63b8ff" stroke="#63b8ff" points="296.95,-69.5 306.95,-66 296.95,-62.5 296.95,-69.5"/>
</g>
</g>
</svg>
