<?xml version="1.0" encoding="UTF-8" standalone="no"?>
<!DOCTYPE svg PUBLIC "-//W3C//DTD SVG 1.1//EN"
 "http://www.w3.org/Graphics/SVG/1.1/DTD/svg11.dtd">
<!-- Generated by graphviz version 13.1.2 (20250808.2320)
 -->
<!-- Title: nlohmann::detail::binary_writer::get_ubjson_float_prefix Pages: 1 -->
<svg width="631pt" height="120pt"
 viewBox="0.00 0.00 631.00 120.00" xmlns="http://www.w3.org/2000/svg" xmlns:xlink="http://www.w3.org/1999/xlink">
<g id="graph0" class="graph" transform="scale(1 1) rotate(0) translate(4 116)">
<title>nlohmann::detail::binary_writer::get_ubjson_float_prefix</title>
<!-- Node1 -->
<g id="node1" class="node">
<title>Node1</title>
<g id="a_node1"><a xlink:title=" ">
<polygon fill="#999999" stroke="#666666" points="622.75,-75 471,-75 471,-43 622.75,-43 622.75,-75"/>
<text xml:space="preserve" text-anchor="start" x="479" y="-61.5" font-family="Helvetica,sans-Serif" font-size="10.00">nlohmann::detail::binary</text>
<text xml:space="preserve" text-anchor="middle" x="546.88" y="-49.5" font-family="Helvetica,sans-Serif" font-size="10.00">_writer::get_ubjson_float_prefix</text>
</a>
</g>
</g>
<!-- Node2 -->
<g id="node2" class="node">
<title>Node2</title>
<g id="a_node2"><a xlink:href="a02039.html#a4c129249a5aee8e4ec8add6c6184e4f7" target="_top" xlink:title="determine the type prefix of container values">
<polygon fill="white" stroke="#666666" points="428.25,-112 308.75,-112 308.75,-80 428.25,-80 428.25,-112"/>
<text xml:space="preserve" text-anchor="start" x="316.75" y="-98.5" font-family="Helvetica,sans-Serif" font-size="10.00">nlohmann::detail::binary</text>
<text xml:space="preserve" text-anchor="middle" x="368.5" y="-86.5" font-family="Helvetica,sans-Serif" font-size="10.00">_writer::ubjson_prefix</text>
</a>
</g>
</g>
<!-- Node1&#45;&gt;Node2 -->
<g id="edge1" class="edge">
<title>Node1&#45;&gt;Node2</title>
<path fill="none" stroke="#63b8ff" d="M459.31,-77.16C448.89,-79.34 438.45,-81.54 428.56,-83.61"/>
<polygon fill="#63b8ff" stroke="#63b8ff" points="460.01,-80.59 469.08,-75.11 458.58,-73.74 460.01,-80.59"/>
</g>
<!-- Node5 -->
<g id="node5" class="node">
<title>Node5</title>
<g id="a_node5"><a xlink:href="a02039.html#a0ea6745f944c0c61672146886b4ee90f" target="_top" xlink:title=" ">
<polygon fill="white" stroke="#666666" points="435,-44 302,-44 302,0 435,0 435,-44"/>
<text xml:space="preserve" text-anchor="start" x="310" y="-30.5" font-family="Helvetica,sans-Serif" font-size="10.00">nlohmann::detail::binary</text>
<text xml:space="preserve" text-anchor="start" x="310" y="-18.5" font-family="Helvetica,sans-Serif" font-size="10.00">_writer::write_number_with</text>
<text xml:space="preserve" text-anchor="middle" x="368.5" y="-6.5" font-family="Helvetica,sans-Serif" font-size="10.00">_ubjson_prefix</text>
</a>
</g>
</g>
<!-- Node1&#45;&gt;Node5 -->
<g id="edge5" class="edge">
<title>Node1&#45;&gt;Node5</title>
<path fill="none" stroke="#63b8ff" d="M459.53,-40.89C451.41,-39.18 443.26,-37.47 435.37,-35.82"/>
<polygon fill="#63b8ff" stroke="#63b8ff" points="458.58,-44.26 469.08,-42.89 460.01,-37.41 458.58,-44.26"/>
</g>
<!-- Node3 -->
<g id="node3" class="node">
<title>Node3</title>
<g id="a_node3"><a xlink:href="a02039.html#a0f6c65053d859269f88eb4ebb0cd7060" target="_top" xlink:title=" ">
<polygon fill="white" stroke="#666666" points="266,-75 146.5,-75 146.5,-43 266,-43 266,-75"/>
<text xml:space="preserve" text-anchor="start" x="154.5" y="-61.5" font-family="Helvetica,sans-Serif" font-size="10.00">nlohmann::detail::binary</text>
<text xml:space="preserve" text-anchor="middle" x="206.25" y="-49.5" font-family="Helvetica,sans-Serif" font-size="10.00">_writer::write_ubjson</text>
</a>
</g>
</g>
<!-- Node2&#45;&gt;Node3 -->
<g id="edge2" class="edge">
<title>Node2&#45;&gt;Node3</title>
<path fill="none" stroke="#63b8ff" d="M297.26,-79.78C287,-77.41 276.51,-74.99 266.49,-72.68"/>
<polygon fill="#63b8ff" stroke="#63b8ff" points="296.28,-83.15 306.81,-81.99 297.85,-76.33 296.28,-83.15"/>
</g>
<!-- Node3&#45;&gt;Node3 -->
<g id="edge4" class="edge">
<title>Node3&#45;&gt;Node3</title>
<path fill="none" stroke="#63b8ff" d="M231.41,-86.71C227.22,-90.48 218.83,-93 206.25,-93 183.25,-93 174.26,-84.58 179.29,-75.44"/>
<polygon fill="#63b8ff" stroke="#63b8ff" points="234.85,-87.36 232.97,-76.94 227.94,-86.26 234.85,-87.36"/>
</g>
<!-- Node4 -->
<g id="node4" class="node">
<title>Node4</title>
<g id="a_node4"><a xlink:href="a01659.html#a19dad92c4fe9e6a289a93195e1230e97" target="_top" xlink:title=" ">
<polygon fill="white" stroke="#666666" points="110.5,-75 0,-75 0,-43 110.5,-43 110.5,-75"/>
<text xml:space="preserve" text-anchor="start" x="8" y="-61.5" font-family="Helvetica,sans-Serif" font-size="10.00">nlohmann::basic_json</text>
<text xml:space="preserve" text-anchor="middle" x="55.25" y="-49.5" font-family="Helvetica,sans-Serif" font-size="10.00">::to_ubjson</text>
</a>
</g>
</g>
<!-- Node3&#45;&gt;Node4 -->
<g id="edge3" class="edge">
<title>Node3&#45;&gt;Node4</title>
<path fill="none" stroke="#63b8ff" d="M134.98,-59C126.87,-59 118.69,-59 110.83,-59"/>
<polygon fill="#63b8ff" stroke="#63b8ff" points="134.85,-62.5 144.85,-59 134.85,-55.5 134.85,-62.5"/>
</g>
<!-- Node5&#45;&gt;Node3 -->
<g id="edge7" class="edge">
<title>Node5&#45;&gt;Node3</title>
<path fill="none" stroke="#63b8ff" d="M290.74,-39.72C282.55,-41.61 274.31,-43.52 266.36,-45.35"/>
<polygon fill="#63b8ff" stroke="#63b8ff" points="291.43,-43.16 300.38,-37.5 289.85,-36.34 291.43,-43.16"/>
</g>
<!-- Node5&#45;&gt;Node5 -->
<g id="edge6" class="edge">
<title>Node5&#45;&gt;Node5</title>
<path fill="none" stroke="#63b8ff" d="M395.01,-55.09C390.34,-59.26 381.51,-62 368.5,-62 346,-62 335.98,-53.8 338.44,-44.21"/>
<polygon fill="#63b8ff" stroke="#63b8ff" points="398.31,-56.24 398.09,-45.65 391.66,-54.07 398.31,-56.24"/>
</g>
</g>
</svg>
