<?xml version="1.0" encoding="UTF-8" standalone="no"?>
<!DOCTYPE svg PUBLIC "-//W3C//DTD SVG 1.1//EN"
 "http://www.w3.org/Graphics/SVG/1.1/DTD/svg11.dtd">
<!-- Generated by graphviz version 13.1.2 (20250808.2320)
 -->
<!-- Title: HF::SpatialStructures::Path::size Pages: 1 -->
<svg width="766pt" height="281pt"
 viewBox="0.00 0.00 766.00 281.00" xmlns="http://www.w3.org/2000/svg" xmlns:xlink="http://www.w3.org/1999/xlink">
<g id="graph0" class="graph" transform="scale(1 1) rotate(0) translate(4 276.79)">
<title>HF::SpatialStructures::Path::size</title>
<!-- Node1 -->
<g id="node1" class="node">
<title>Node1</title>
<g id="a_node1"><a xlink:title="Determine how many nodes are in this path.">
<polygon fill="#999999" stroke="#666666" points="758,-133 647.5,-133 647.5,-101 758,-101 758,-133"/>
<text xml:space="preserve" text-anchor="start" x="655.5" y="-119.5" font-family="Helvetica,sans-Serif" font-size="10.00">HF::SpatialStructures</text>
<text xml:space="preserve" text-anchor="middle" x="702.75" y="-107.5" font-family="Helvetica,sans-Serif" font-size="10.00">::Path::size</text>
</a>
</g>
</g>
<!-- Node2 -->
<g id="node2" class="node">
<title>Node2</title>
<g id="a_node2"><a xlink:href="a00472.html#a977e4c93a977ab4e9e784d1e6fec79f4" target="_top" xlink:title="Construct the shortest path from start to end using the given predecessor and distance vectors.">
<polygon fill="white" stroke="#666666" points="611.5,-196 478.5,-196 478.5,-164 611.5,-164 611.5,-196"/>
<text xml:space="preserve" text-anchor="start" x="486.5" y="-182.5" font-family="Helvetica,sans-Serif" font-size="10.00">HF::Pathfinding::Construct</text>
<text xml:space="preserve" text-anchor="middle" x="545" y="-170.5" font-family="Helvetica,sans-Serif" font-size="10.00">ShortestPathFromPred</text>
</a>
</g>
</g>
<!-- Node1&#45;&gt;Node2 -->
<g id="edge1" class="edge">
<title>Node1&#45;&gt;Node2</title>
<path fill="none" stroke="#63b8ff" d="M650.66,-137.67C629.86,-146.08 606.16,-155.66 586.58,-163.58"/>
<polygon fill="#63b8ff" stroke="#63b8ff" points="651.87,-140.95 659.83,-133.96 649.25,-134.46 651.87,-140.95"/>
</g>
<!-- Node5 -->
<g id="node5" class="node">
<title>Node5</title>
<g id="a_node5"><a xlink:href="a00456.html#ga3dc85450e989a996a3c3fcfad0a5944e" target="_top" xlink:title="Find the shortest path from start to end.">
<polygon fill="white" stroke="#666666" points="235.62,-242 170.12,-242 170.12,-222 235.62,-222 235.62,-242"/>
<text xml:space="preserve" text-anchor="middle" x="202.88" y="-228.5" font-family="Helvetica,sans-Serif" font-size="10.00">CreatePath</text>
</a>
</g>
</g>
<!-- Node1&#45;&gt;Node5 -->
<g id="edge10" class="edge">
<title>Node1&#45;&gt;Node5</title>
<path fill="none" stroke="#63b8ff" d="M681.37,-142.12C664.43,-161.59 638.76,-188.02 611.5,-205 543.84,-247.13 521.05,-251.47 442.5,-265 380.96,-275.6 363.62,-275.08 302,-265 275.75,-260.7 247.05,-250.35 227.52,-242.37"/>
<polygon fill="#63b8ff" stroke="#63b8ff" points="683.94,-144.5 687.75,-134.62 678.61,-139.97 683.94,-144.5"/>
</g>
<!-- Node7 -->
<g id="node7" class="node">
<title>Node7</title>
<g id="a_node7"><a xlink:href="a00472.html#a417084c97d0672af2da7739157a9d8c0" target="_top" xlink:title="A special version of FindPaths optimized for the C_Interface.">
<polygon fill="white" stroke="#666666" points="442.5,-130 302,-130 302,-98 442.5,-98 442.5,-130"/>
<text xml:space="preserve" text-anchor="start" x="310" y="-116.5" font-family="Helvetica,sans-Serif" font-size="10.00">HF::Pathfinding::InsertPaths</text>
<text xml:space="preserve" text-anchor="middle" x="372.25" y="-104.5" font-family="Helvetica,sans-Serif" font-size="10.00">IntoArray</text>
</a>
</g>
</g>
<!-- Node1&#45;&gt;Node7 -->
<g id="edge12" class="edge">
<title>Node1&#45;&gt;Node7</title>
<path fill="none" stroke="#63b8ff" d="M635.91,-117.49C591.45,-117.7 531.44,-117.75 478.5,-117 466.98,-116.84 454.76,-116.57 442.88,-116.26"/>
<polygon fill="#63b8ff" stroke="#63b8ff" points="635.66,-120.99 645.64,-117.44 635.62,-113.99 635.66,-120.99"/>
</g>
<!-- Node11 -->
<g id="node11" class="node">
<title>Node11</title>
<g id="a_node11"><a xlink:href="a00456.html#gaac725d282f4fecd3aba1b3273c26e7e1" target="_top" xlink:title="Get the size of a path">
<polygon fill="white" stroke="#666666" points="579.25,-108 510.75,-108 510.75,-88 579.25,-88 579.25,-108"/>
<text xml:space="preserve" text-anchor="middle" x="545" y="-94.5" font-family="Helvetica,sans-Serif" font-size="10.00">GetPathInfo</text>
</a>
</g>
</g>
<!-- Node1&#45;&gt;Node11 -->
<g id="edge11" class="edge">
<title>Node1&#45;&gt;Node11</title>
<path fill="none" stroke="#63b8ff" d="M635.94,-108.97C616.42,-106.59 595.86,-104.08 579.33,-102.07"/>
<polygon fill="#63b8ff" stroke="#63b8ff" points="635.42,-112.43 645.77,-110.17 636.27,-105.49 635.42,-112.43"/>
</g>
<!-- Node12 -->
<g id="node12" class="node">
<title>Node12</title>
<g id="a_node12"><a xlink:href="a00461.html#a1b5caf7fed4cdba0be8940df1e5bb17c" target="_top" xlink:title="String representation of all the members contained by path p.">
<polygon fill="white" stroke="#666666" points="586.38,-70 503.62,-70 503.62,-50 586.38,-50 586.38,-70"/>
<text xml:space="preserve" text-anchor="middle" x="545" y="-56.5" font-family="Helvetica,sans-Serif" font-size="10.00">std::operator&lt;&lt;</text>
</a>
</g>
</g>
<!-- Node1&#45;&gt;Node12 -->
<g id="edge13" class="edge">
<title>Node1&#45;&gt;Node12</title>
<path fill="none" stroke="#63b8ff" d="M655.34,-96.24C641.37,-90.33 625.93,-84.11 611.5,-79 602.91,-75.96 593.56,-73.02 584.68,-70.41"/>
<polygon fill="#63b8ff" stroke="#63b8ff" points="653.72,-99.36 664.29,-100.08 656.48,-92.92 653.72,-99.36"/>
</g>
<!-- Node13 -->
<g id="node13" class="node">
<title>Node13</title>
<g id="a_node13"><a xlink:href="a02083.html#ac8cd7f5bcbaf0f399ce196c8967ae87e" target="_top" xlink:title="Determine if this path is identical to p2.">
<polygon fill="white" stroke="#666666" points="600.25,-32 489.75,-32 489.75,0 600.25,0 600.25,-32"/>
<text xml:space="preserve" text-anchor="start" x="497.75" y="-18.5" font-family="Helvetica,sans-Serif" font-size="10.00">HF::SpatialStructures</text>
<text xml:space="preserve" text-anchor="middle" x="545" y="-6.5" font-family="Helvetica,sans-Serif" font-size="10.00">::Path::operator==</text>
</a>
</g>
</g>
<!-- Node1&#45;&gt;Node13 -->
<g id="edge14" class="edge">
<title>Node1&#45;&gt;Node13</title>
<path fill="none" stroke="#63b8ff" d="M677.88,-93.02C660.61,-76.68 636.07,-55.47 611.5,-41 606.15,-37.85 600.33,-34.96 594.45,-32.36"/>
<polygon fill="#63b8ff" stroke="#63b8ff" points="675.03,-95.13 684.66,-99.55 679.89,-90.09 675.03,-95.13"/>
</g>
<!-- Node3 -->
<g id="node3" class="node">
<title>Node3</title>
<g id="a_node3"><a xlink:href="a00472.html#a322ac32effd41c99359b82df0890e34a" target="_top" xlink:title="Overload to call this with a distPred instead of the raw arrays.">
<polygon fill="white" stroke="#666666" points="438.75,-218 305.75,-218 305.75,-186 438.75,-186 438.75,-218"/>
<text xml:space="preserve" text-anchor="start" x="313.75" y="-204.5" font-family="Helvetica,sans-Serif" font-size="10.00">HF::Pathfinding::Construct</text>
<text xml:space="preserve" text-anchor="middle" x="372.25" y="-192.5" font-family="Helvetica,sans-Serif" font-size="10.00">ShortestPathFromPred</text>
</a>
</g>
</g>
<!-- Node2&#45;&gt;Node3 -->
<g id="edge2" class="edge">
<title>Node2&#45;&gt;Node3</title>
<path fill="none" stroke="#63b8ff" d="M467.17,-189.9C457.82,-191.1 448.34,-192.33 439.17,-193.51"/>
<polygon fill="#63b8ff" stroke="#63b8ff" points="467.5,-193.39 476.97,-188.64 466.61,-186.44 467.5,-193.39"/>
</g>
<!-- Node4 -->
<g id="node4" class="node">
<title>Node4</title>
<g id="a_node4"><a xlink:href="a00472.html#a47d06b1c4bd84f4d0a7519ea0e96ff02" target="_top" xlink:title="Find a path between points A and B using Dijkstra&#39;s Shortest Path algorithm.">
<polygon fill="white" stroke="#666666" points="436.88,-168 307.62,-168 307.62,-148 436.88,-148 436.88,-168"/>
<text xml:space="preserve" text-anchor="middle" x="372.25" y="-154.5" font-family="Helvetica,sans-Serif" font-size="10.00">HF::Pathfinding::FindPath</text>
</a>
</g>
</g>
<!-- Node2&#45;&gt;Node4 -->
<g id="edge3" class="edge">
<title>Node2&#45;&gt;Node4</title>
<path fill="none" stroke="#63b8ff" d="M467.23,-170.11C457.19,-168.82 446.99,-167.5 437.2,-166.24"/>
<polygon fill="#63b8ff" stroke="#63b8ff" points="466.61,-173.56 476.97,-171.36 467.5,-166.61 466.61,-173.56"/>
</g>
<!-- Node6 -->
<g id="node6" class="node">
<title>Node6</title>
<g id="a_node6"><a xlink:href="a00472.html#a15badb9d0a17849de7b21105605c9c91" target="_top" xlink:title="Find a path from every id in start_ids to the matching end node in end_ids.">
<polygon fill="white" stroke="#666666" points="439.5,-256 305,-256 305,-236 439.5,-236 439.5,-256"/>
<text xml:space="preserve" text-anchor="middle" x="372.25" y="-242.5" font-family="Helvetica,sans-Serif" font-size="10.00">HF::Pathfinding::FindPaths</text>
</a>
</g>
</g>
<!-- Node2&#45;&gt;Node6 -->
<g id="edge5" class="edge">
<title>Node2&#45;&gt;Node6</title>
<path fill="none" stroke="#63b8ff" d="M501.95,-201.38C483.93,-210.04 462.47,-219.69 442.5,-227 433.95,-230.13 424.65,-233.02 415.72,-235.55"/>
<polygon fill="#63b8ff" stroke="#63b8ff" points="503.3,-204.61 510.76,-197.09 500.24,-198.32 503.3,-204.61"/>
</g>
<!-- Node2&#45;&gt;Node7 -->
<g id="edge6" class="edge">
<title>Node2&#45;&gt;Node7</title>
<path fill="none" stroke="#63b8ff" d="M494.15,-159.43C477.75,-152.78 459.39,-145.46 442.5,-139 435.1,-136.17 427.22,-133.24 419.53,-130.44"/>
<polygon fill="#63b8ff" stroke="#63b8ff" points="492.63,-162.59 503.21,-163.12 495.27,-156.11 492.63,-162.59"/>
</g>
<!-- Node4&#45;&gt;Node5 -->
<g id="edge4" class="edge">
<title>Node4&#45;&gt;Node5</title>
<path fill="none" stroke="#63b8ff" d="M316.14,-171.8C311.31,-173.4 306.53,-175.14 302,-177 271.47,-189.53 238.48,-209.48 219.59,-221.6"/>
<polygon fill="#63b8ff" stroke="#63b8ff" points="316.8,-175.26 325.31,-168.94 314.72,-168.57 316.8,-175.26"/>
</g>
<!-- Node8 -->
<g id="node8" class="node">
<title>Node8</title>
<g id="a_node8"><a xlink:href="a00456.html#gae1ac2805c3b86883bb88269ed3868367" target="_top" xlink:title="Find multiple shortest paths in paralllel.">
<polygon fill="white" stroke="#666666" points="238.25,-102 167.5,-102 167.5,-82 238.25,-82 238.25,-102"/>
<text xml:space="preserve" text-anchor="middle" x="202.88" y="-88.5" font-family="Helvetica,sans-Serif" font-size="10.00">CreatePaths</text>
</a>
</g>
</g>
<!-- Node7&#45;&gt;Node8 -->
<g id="edge7" class="edge">
<title>Node7&#45;&gt;Node8</title>
<path fill="none" stroke="#63b8ff" d="M290.43,-103.38C272.2,-100.98 253.8,-98.56 238.67,-96.57"/>
<polygon fill="#63b8ff" stroke="#63b8ff" points="289.85,-106.83 300.22,-104.66 290.76,-99.89 289.85,-106.83"/>
</g>
<!-- Node9 -->
<g id="node9" class="node">
<title>Node9</title>
<g id="a_node9"><a xlink:href="a00472.html#a69bd3efcc13788e7c4be43b67d6002e5" target="_top" xlink:title="A special version of FindPaths optimized for the C_Interface, such that all paths possible from each ...">
<polygon fill="white" stroke="#666666" points="266,-152 139.75,-152 139.75,-120 266,-120 266,-152"/>
<text xml:space="preserve" text-anchor="start" x="147.75" y="-138.5" font-family="Helvetica,sans-Serif" font-size="10.00">HF::Pathfinding::InsertAll</text>
<text xml:space="preserve" text-anchor="middle" x="202.88" y="-126.5" font-family="Helvetica,sans-Serif" font-size="10.00">ToAllPathsIntoArray</text>
</a>
</g>
</g>
<!-- Node7&#45;&gt;Node9 -->
<g id="edge8" class="edge">
<title>Node7&#45;&gt;Node9</title>
<path fill="none" stroke="#63b8ff" d="M290.33,-124.64C282.23,-125.7 274.1,-126.77 266.24,-127.8"/>
<polygon fill="#63b8ff" stroke="#63b8ff" points="290.76,-128.11 300.22,-123.34 289.85,-121.17 290.76,-128.11"/>
</g>
<!-- Node10 -->
<g id="node10" class="node">
<title>Node10</title>
<g id="a_node10"><a xlink:href="a00456.html#gaba6ec6ce84974dd6a311d7d65dd34221" target="_top" xlink:title="Find a path from every node in a graph to every other node.">
<polygon fill="white" stroke="#666666" points="103.75,-146 0,-146 0,-126 103.75,-126 103.75,-146"/>
<text xml:space="preserve" text-anchor="middle" x="51.88" y="-132.5" font-family="Helvetica,sans-Serif" font-size="10.00">CreateAllToAllPaths</text>
</a>
</g>
</g>
<!-- Node9&#45;&gt;Node10 -->
<g id="edge9" class="edge">
<title>Node9&#45;&gt;Node10</title>
<path fill="none" stroke="#63b8ff" d="M128.12,-136C120,-136 111.87,-136 104.11,-136"/>
<polygon fill="#63b8ff" stroke="#63b8ff" points="128.04,-139.5 138.04,-136 128.04,-132.5 128.04,-139.5"/>
</g>
</g>
</svg>
