<?xml version="1.0" encoding="UTF-8" standalone="no"?>
<!DOCTYPE svg PUBLIC "-//W3C//DTD SVG 1.1//EN"
 "http://www.w3.org/Graphics/SVG/1.1/DTD/svg11.dtd">
<!-- Generated by graphviz version 13.1.2 (20250808.2320)
 -->
<!-- Title: nlohmann::detail::binary_writer::get_cbor_float_prefix Pages: 1 -->
<svg width="627pt" height="126pt"
 viewBox="0.00 0.00 627.00 126.00" xmlns="http://www.w3.org/2000/svg" xmlns:xlink="http://www.w3.org/1999/xlink">
<g id="graph0" class="graph" transform="scale(1 1) rotate(0) translate(4 122)">
<title>nlohmann::detail::binary_writer::get_cbor_float_prefix</title>
<!-- Node1 -->
<g id="node1" class="node">
<title>Node1</title>
<g id="a_node1"><a xlink:title=" ">
<polygon fill="#999999" stroke="#666666" points="619,-66 477,-66 477,-34 619,-34 619,-66"/>
<text xml:space="preserve" text-anchor="start" x="485" y="-52.5" font-family="Helvetica,sans-Serif" font-size="10.00">nlohmann::detail::binary</text>
<text xml:space="preserve" text-anchor="middle" x="548" y="-40.5" font-family="Helvetica,sans-Serif" font-size="10.00">_writer::get_cbor_float_prefix</text>
</a>
</g>
</g>
<!-- Node2 -->
<g id="node2" class="node">
<title>Node2</title>
<g id="a_node2"><a xlink:href="a02039.html#ae69dc3c5b2e8c1c8e461779cddb87436" target="_top" xlink:title=" ">
<polygon fill="white" stroke="#666666" points="441,-66 302,-66 302,-34 441,-34 441,-66"/>
<text xml:space="preserve" text-anchor="start" x="310" y="-52.5" font-family="Helvetica,sans-Serif" font-size="10.00">nlohmann::detail::binary</text>
<text xml:space="preserve" text-anchor="middle" x="371.5" y="-40.5" font-family="Helvetica,sans-Serif" font-size="10.00">_writer::write_compact_float</text>
</a>
</g>
</g>
<!-- Node1&#45;&gt;Node2 -->
<g id="edge1" class="edge">
<title>Node1&#45;&gt;Node2</title>
<path fill="none" stroke="#63b8ff" d="M465.25,-50C457.22,-50 449.13,-50 441.25,-50"/>
<polygon fill="#63b8ff" stroke="#63b8ff" points="465.01,-53.5 475.01,-50 465.01,-46.5 465.01,-53.5"/>
</g>
<!-- Node3 -->
<g id="node3" class="node">
<title>Node3</title>
<g id="a_node3"><a xlink:href="a02039.html#aa0ab8d27fd88a33a2f801413ac4c7fbc" target="_top" xlink:title=" ">
<polygon fill="white" stroke="#666666" points="266,-100 146.5,-100 146.5,-68 266,-68 266,-100"/>
<text xml:space="preserve" text-anchor="start" x="154.5" y="-86.5" font-family="Helvetica,sans-Serif" font-size="10.00">nlohmann::detail::binary</text>
<text xml:space="preserve" text-anchor="middle" x="206.25" y="-74.5" font-family="Helvetica,sans-Serif" font-size="10.00">_writer::write_cbor</text>
</a>
</g>
</g>
<!-- Node2&#45;&gt;Node3 -->
<g id="edge2" class="edge">
<title>Node2&#45;&gt;Node3</title>
<path fill="none" stroke="#63b8ff" d="M290.64,-66.63C282.46,-68.34 274.26,-70.04 266.36,-71.69"/>
<polygon fill="#63b8ff" stroke="#63b8ff" points="291.18,-70.09 300.26,-64.63 289.76,-63.24 291.18,-70.09"/>
</g>
<!-- Node5 -->
<g id="node5" class="node">
<title>Node5</title>
<g id="a_node5"><a xlink:href="a02039.html#ae4e0852b64102ce4b07d99f08f828b7c" target="_top" xlink:title=" ">
<polygon fill="white" stroke="#666666" points="266,-32 146.5,-32 146.5,0 266,0 266,-32"/>
<text xml:space="preserve" text-anchor="start" x="154.5" y="-18.5" font-family="Helvetica,sans-Serif" font-size="10.00">nlohmann::detail::binary</text>
<text xml:space="preserve" text-anchor="middle" x="206.25" y="-6.5" font-family="Helvetica,sans-Serif" font-size="10.00">_writer::write_msgpack</text>
</a>
</g>
</g>
<!-- Node2&#45;&gt;Node5 -->
<g id="edge5" class="edge">
<title>Node2&#45;&gt;Node5</title>
<path fill="none" stroke="#63b8ff" d="M290.64,-33.37C282.46,-31.66 274.26,-29.96 266.36,-28.31"/>
<polygon fill="#63b8ff" stroke="#63b8ff" points="289.76,-36.76 300.26,-35.37 291.18,-29.91 289.76,-36.76"/>
</g>
<!-- Node3&#45;&gt;Node3 -->
<g id="edge4" class="edge">
<title>Node3&#45;&gt;Node3</title>
<path fill="none" stroke="#63b8ff" d="M231.41,-111.71C227.22,-115.48 218.83,-118 206.25,-118 183.25,-118 174.26,-109.58 179.29,-100.44"/>
<polygon fill="#63b8ff" stroke="#63b8ff" points="234.85,-112.36 232.97,-101.94 227.94,-111.26 234.85,-112.36"/>
</g>
<!-- Node4 -->
<g id="node4" class="node">
<title>Node4</title>
<g id="a_node4"><a xlink:href="a01659.html#a2becf604016783e5644eaa7782a08683" target="_top" xlink:title=" ">
<polygon fill="white" stroke="#666666" points="110.5,-100 0,-100 0,-68 110.5,-68 110.5,-100"/>
<text xml:space="preserve" text-anchor="start" x="8" y="-86.5" font-family="Helvetica,sans-Serif" font-size="10.00">nlohmann::basic_json</text>
<text xml:space="preserve" text-anchor="middle" x="55.25" y="-74.5" font-family="Helvetica,sans-Serif" font-size="10.00">::to_cbor</text>
</a>
</g>
</g>
<!-- Node3&#45;&gt;Node4 -->
<g id="edge3" class="edge">
<title>Node3&#45;&gt;Node4</title>
<path fill="none" stroke="#63b8ff" d="M134.98,-84C126.87,-84 118.69,-84 110.83,-84"/>
<polygon fill="#63b8ff" stroke="#63b8ff" points="134.85,-87.5 144.85,-84 134.85,-80.5 134.85,-87.5"/>
</g>
<!-- Node5&#45;&gt;Node5 -->
<g id="edge7" class="edge">
<title>Node5&#45;&gt;Node5</title>
<path fill="none" stroke="#63b8ff" d="M231.41,-43.71C227.22,-47.48 218.83,-50 206.25,-50 183.25,-50 174.26,-41.58 179.29,-32.44"/>
<polygon fill="#63b8ff" stroke="#63b8ff" points="234.85,-44.36 232.97,-33.94 227.94,-43.26 234.85,-44.36"/>
</g>
<!-- Node6 -->
<g id="node6" class="node">
<title>Node6</title>
<g id="a_node6"><a xlink:href="a01659.html#aa8fe46eda86f6f92c5599c20b6c81819" target="_top" xlink:title=" ">
<polygon fill="white" stroke="#666666" points="110.5,-32 0,-32 0,0 110.5,0 110.5,-32"/>
<text xml:space="preserve" text-anchor="start" x="8" y="-18.5" font-family="Helvetica,sans-Serif" font-size="10.00">nlohmann::basic_json</text>
<text xml:space="preserve" text-anchor="middle" x="55.25" y="-6.5" font-family="Helvetica,sans-Serif" font-size="10.00">::to_msgpack</text>
</a>
</g>
</g>
<!-- Node5&#45;&gt;Node6 -->
<g id="edge6" class="edge">
<title>Node5&#45;&gt;Node6</title>
<path fill="none" stroke="#63b8ff" d="M134.98,-16C126.87,-16 118.69,-16 110.83,-16"/>
<polygon fill="#63b8ff" stroke="#63b8ff" points="134.85,-19.5 144.85,-16 134.85,-12.5 134.85,-19.5"/>
</g>
</g>
</svg>
