<?xml version="1.0" encoding="UTF-8" standalone="no"?>
<!DOCTYPE svg PUBLIC "-//W3C//DTD SVG 1.1//EN"
 "http://www.w3.org/Graphics/SVG/1.1/DTD/svg11.dtd">
<!-- Generated by graphviz version 13.1.2 (20250808.2320)
 -->
<!-- Title: nlohmann::detail::binary_writer::write_bson_boolean Pages: 1 -->
<svg width="497pt" height="62pt"
 viewBox="0.00 0.00 497.00 62.00" xmlns="http://www.w3.org/2000/svg" xmlns:xlink="http://www.w3.org/1999/xlink">
<g id="graph0" class="graph" transform="scale(1 1) rotate(0) translate(4 58)">
<title>nlohmann::detail::binary_writer::write_bson_boolean</title>
<!-- Node1 -->
<g id="node1" class="node">
<title>Node1</title>
<g id="a_node1"><a xlink:title="Writes a BSON element with key name and boolean value value.">
<polygon fill="#999999" stroke="#666666" points="137.5,-54 0,-54 0,-22 137.5,-22 137.5,-54"/>
<text xml:space="preserve" text-anchor="start" x="8" y="-40.5" font-family="Helvetica,sans-Serif" font-size="10.00">nlohmann::detail::binary</text>
<text xml:space="preserve" text-anchor="middle" x="68.75" y="-28.5" font-family="Helvetica,sans-Serif" font-size="10.00">_writer::write_bson_boolean</text>
</a>
</g>
</g>
<!-- Node2 -->
<g id="node2" class="node">
<title>Node2</title>
<g id="a_node2"><a xlink:href="a02039.html#ab77aa48692bd4e64e4f051ce6aeb6d2d" target="_top" xlink:title=" ">
<polygon fill="white" stroke="#666666" points="489,-54 369.5,-54 369.5,-22 489,-22 489,-54"/>
<text xml:space="preserve" text-anchor="start" x="377.5" y="-40.5" font-family="Helvetica,sans-Serif" font-size="10.00">nlohmann::detail::binary</text>
<text xml:space="preserve" text-anchor="middle" x="429.25" y="-28.5" font-family="Helvetica,sans-Serif" font-size="10.00">_writer::to_char_type</text>
</a>
</g>
</g>
<!-- Node1&#45;&gt;Node2 -->
<g id="edge1" class="edge">
<title>Node1&#45;&gt;Node2</title>
<path fill="none" stroke="#63b8ff" d="M137.83,-40.25C149.72,-40.56 161.97,-40.83 173.5,-41 244.6,-42.03 262.4,-42.13 333.5,-41 341.33,-40.88 349.52,-40.69 357.67,-40.48"/>
<polygon fill="#63b8ff" stroke="#63b8ff" points="357.71,-43.98 367.61,-40.2 357.51,-36.98 357.71,-43.98"/>
</g>
<!-- Node3 -->
<g id="node3" class="node">
<title>Node3</title>
<g id="a_node3"><a xlink:href="a02039.html#a1b5b7f5c03b1f8b1f59ea61db9634108" target="_top" xlink:title="Writes the given element_type and name to the output adapter.">
<polygon fill="white" stroke="#666666" points="333.5,-32 173.5,-32 173.5,0 333.5,0 333.5,-32"/>
<text xml:space="preserve" text-anchor="start" x="181.5" y="-18.5" font-family="Helvetica,sans-Serif" font-size="10.00">nlohmann::detail::binary</text>
<text xml:space="preserve" text-anchor="middle" x="253.5" y="-6.5" font-family="Helvetica,sans-Serif" font-size="10.00">_writer::write_bson_entry_header</text>
</a>
</g>
</g>
<!-- Node1&#45;&gt;Node3 -->
<g id="edge2" class="edge">
<title>Node1&#45;&gt;Node3</title>
<path fill="none" stroke="#63b8ff" d="M137.8,-29.81C145.66,-28.86 153.77,-27.89 161.88,-26.91"/>
<polygon fill="#63b8ff" stroke="#63b8ff" points="162.29,-30.39 171.8,-25.72 161.45,-23.44 162.29,-30.39"/>
</g>
<!-- Node3&#45;&gt;Node2 -->
<g id="edge3" class="edge">
<title>Node3&#45;&gt;Node2</title>
<path fill="none" stroke="#63b8ff" d="M333.75,-26.03C341.75,-27.05 349.83,-28.07 357.73,-29.07"/>
<polygon fill="#63b8ff" stroke="#63b8ff" points="357.27,-32.54 367.63,-30.32 358.15,-25.6 357.27,-32.54"/>
</g>
</g>
</svg>
