<?xml version="1.0" encoding="UTF-8" standalone="no"?>
<!DOCTYPE svg PUBLIC "-//W3C//DTD SVG 1.1//EN"
 "http://www.w3.org/Graphics/SVG/1.1/DTD/svg11.dtd">
<!-- Generated by graphviz version 13.1.2 (20250808.2320)
 -->
<!-- Title: nlohmann::detail::binary_writer::write_bson_object Pages: 1 -->
<svg width="667pt" height="112pt"
 viewBox="0.00 0.00 667.00 112.00" xmlns="http://www.w3.org/2000/svg" xmlns:xlink="http://www.w3.org/1999/xlink">
<g id="graph0" class="graph" transform="scale(1 1) rotate(0) translate(4 108)">
<title>nlohmann::detail::binary_writer::write_bson_object</title>
<!-- Node1 -->
<g id="node1" class="node">
<title>Node1</title>
<g id="a_node1"><a xlink:title=" ">
<polygon fill="#999999" stroke="#666666" points="658.75,-54 528.75,-54 528.75,-22 658.75,-22 658.75,-54"/>
<text xml:space="preserve" text-anchor="start" x="536.75" y="-40.5" font-family="Helvetica,sans-Serif" font-size="10.00">nlohmann::detail::binary</text>
<text xml:space="preserve" text-anchor="middle" x="593.75" y="-28.5" font-family="Helvetica,sans-Serif" font-size="10.00">_writer::write_bson_object</text>
</a>
</g>
</g>
<!-- Node2 -->
<g id="node2" class="node">
<title>Node2</title>
<g id="a_node2"><a xlink:href="a02039.html#a9ffc566db5219b473762462234b47db9" target="_top" xlink:title=" ">
<polygon fill="white" stroke="#666666" points="474,-104 354.5,-104 354.5,-72 474,-72 474,-104"/>
<text xml:space="preserve" text-anchor="start" x="362.5" y="-90.5" font-family="Helvetica,sans-Serif" font-size="10.00">nlohmann::detail::binary</text>
<text xml:space="preserve" text-anchor="middle" x="414.25" y="-78.5" font-family="Helvetica,sans-Serif" font-size="10.00">_writer::write_bson</text>
</a>
</g>
</g>
<!-- Node1&#45;&gt;Node2 -->
<g id="edge1" class="edge">
<title>Node1&#45;&gt;Node2</title>
<path fill="none" stroke="#63b8ff" d="M523.92,-57.39C507.37,-62.05 489.84,-66.99 473.8,-71.51"/>
<polygon fill="#63b8ff" stroke="#63b8ff" points="524.5,-60.86 533.17,-54.78 522.6,-54.12 524.5,-60.86"/>
</g>
<!-- Node4 -->
<g id="node4" class="node">
<title>Node4</title>
<g id="a_node4"><a xlink:href="a02039.html#a6231302930265eccb3f56c378f7b0661" target="_top" xlink:title="Writes a BSON element with key name and object value.">
<polygon fill="white" stroke="#666666" points="492.75,-54 335.75,-54 335.75,-22 492.75,-22 492.75,-54"/>
<text xml:space="preserve" text-anchor="start" x="343.75" y="-40.5" font-family="Helvetica,sans-Serif" font-size="10.00">nlohmann::detail::binary</text>
<text xml:space="preserve" text-anchor="middle" x="414.25" y="-28.5" font-family="Helvetica,sans-Serif" font-size="10.00">_writer::write_bson_object_entry</text>
</a>
</g>
</g>
<!-- Node1&#45;&gt;Node4 -->
<g id="edge3" class="edge">
<title>Node1&#45;&gt;Node4</title>
<path fill="none" stroke="#63b8ff" d="M516.93,-38C508.99,-38 500.92,-38 492.97,-38"/>
<polygon fill="#63b8ff" stroke="#63b8ff" points="516.9,-41.5 526.9,-38 516.9,-34.5 516.9,-41.5"/>
</g>
<!-- Node3 -->
<g id="node3" class="node">
<title>Node3</title>
<g id="a_node3"><a xlink:href="a01659.html#a668e4c2ad9808218a25879700f4aef2b" target="_top" xlink:title="Serializes the given JSON object j to BSON and forwards the corresponding BSON&#45;representation to the ...">
<polygon fill="white" stroke="#666666" points="285.88,-104 175.38,-104 175.38,-72 285.88,-72 285.88,-104"/>
<text xml:space="preserve" text-anchor="start" x="183.38" y="-90.5" font-family="Helvetica,sans-Serif" font-size="10.00">nlohmann::basic_json</text>
<text xml:space="preserve" text-anchor="middle" x="230.62" y="-78.5" font-family="Helvetica,sans-Serif" font-size="10.00">::to_bson</text>
</a>
</g>
</g>
<!-- Node2&#45;&gt;Node3 -->
<g id="edge2" class="edge">
<title>Node2&#45;&gt;Node3</title>
<path fill="none" stroke="#63b8ff" d="M342.55,-88C323.82,-88 303.88,-88 286.15,-88"/>
<polygon fill="#63b8ff" stroke="#63b8ff" points="342.52,-91.5 352.52,-88 342.52,-84.5 342.52,-91.5"/>
</g>
<!-- Node5 -->
<g id="node5" class="node">
<title>Node5</title>
<g id="a_node5"><a xlink:href="a02039.html#a7ff58bf1a80018148bed860667ffca07" target="_top" xlink:title="Serializes the JSON value j to BSON and associates it with the key name.">
<polygon fill="white" stroke="#666666" points="299.75,-32 161.5,-32 161.5,0 299.75,0 299.75,-32"/>
<text xml:space="preserve" text-anchor="start" x="169.5" y="-18.5" font-family="Helvetica,sans-Serif" font-size="10.00">nlohmann::detail::binary</text>
<text xml:space="preserve" text-anchor="middle" x="230.62" y="-6.5" font-family="Helvetica,sans-Serif" font-size="10.00">_writer::write_bson_element</text>
</a>
</g>
</g>
<!-- Node4&#45;&gt;Node5 -->
<g id="edge4" class="edge">
<title>Node4&#45;&gt;Node5</title>
<path fill="none" stroke="#63b8ff" d="M324.08,-27.2C316.03,-26.22 307.95,-25.25 300.11,-24.3"/>
<polygon fill="#63b8ff" stroke="#63b8ff" points="323.58,-30.66 333.93,-28.39 324.43,-23.72 323.58,-30.66"/>
</g>
<!-- Node5&#45;&gt;Node1 -->
<g id="edge7" class="edge">
<title>Node5&#45;&gt;Node1</title>
<path fill="none" stroke="#63b8ff" d="M311.54,-9.57C363.39,-6.75 432.3,-5.56 492.75,-13 507.31,-14.79 522.81,-18 537.14,-21.54"/>
<polygon fill="#63b8ff" stroke="#63b8ff" points="311.37,-6.07 301.59,-10.15 311.77,-13.06 311.37,-6.07"/>
</g>
<!-- Node6 -->
<g id="node6" class="node">
<title>Node6</title>
<g id="a_node6"><a xlink:href="a02039.html#a025212bd170253638b9f05b3b6aa5bf9" target="_top" xlink:title="Writes a BSON element with key name and array value.">
<polygon fill="white" stroke="#666666" points="125.5,-32 0,-32 0,0 125.5,0 125.5,-32"/>
<text xml:space="preserve" text-anchor="start" x="8" y="-18.5" font-family="Helvetica,sans-Serif" font-size="10.00">nlohmann::detail::binary</text>
<text xml:space="preserve" text-anchor="middle" x="62.75" y="-6.5" font-family="Helvetica,sans-Serif" font-size="10.00">_writer::write_bson_array</text>
</a>
</g>
</g>
<!-- Node5&#45;&gt;Node6 -->
<g id="edge5" class="edge">
<title>Node5&#45;&gt;Node6</title>
<path fill="none" stroke="#63b8ff" d="M149.88,-9.25C141.82,-9.23 133.73,-9.29 125.9,-9.44"/>
<polygon fill="#63b8ff" stroke="#63b8ff" points="149.66,-12.75 159.69,-9.33 149.71,-5.75 149.66,-12.75"/>
</g>
<!-- Node6&#45;&gt;Node5 -->
<g id="edge6" class="edge">
<title>Node6&#45;&gt;Node5</title>
<path fill="none" stroke="#63b8ff" d="M137.39,-22.71C145.31,-22.78 153.34,-22.76 161.2,-22.66"/>
<polygon fill="#63b8ff" stroke="#63b8ff" points="137.46,-19.21 127.42,-22.58 137.37,-26.21 137.46,-19.21"/>
</g>
</g>
</svg>
