<?xml version="1.0" encoding="UTF-8" standalone="no"?>
<!DOCTYPE svg PUBLIC "-//W3C//DTD SVG 1.1//EN"
 "http://www.w3.org/Graphics/SVG/1.1/DTD/svg11.dtd">
<!-- Generated by graphviz version 13.1.2 (20250808.2320)
 -->
<!-- Title: nlohmann::detail::binary_writer&lt; BasicJsonType, CharType &gt; Pages: 1 -->
<svg width="208pt" height="120pt"
 viewBox="0.00 0.00 208.00 120.00" xmlns="http://www.w3.org/2000/svg" xmlns:xlink="http://www.w3.org/1999/xlink">
<g id="graph0" class="graph" transform="scale(1 1) rotate(0) translate(4 116)">
<title>nlohmann::detail::binary_writer&lt; BasicJsonType, CharType &gt;</title>
<!-- Node1 -->
<g id="node1" class="node">
<title>Node1</title>
<g id="a_node1"><a xlink:title="serialization to CBOR and MessagePack values">
<polygon fill="#999999" stroke="#666666" points="133,-44 9,-44 9,0 133,0 133,-44"/>
<text xml:space="preserve" text-anchor="start" x="17" y="-30.5" font-family="Helvetica,sans-Serif" font-size="10.00">nlohmann::detail::binary</text>
<text xml:space="preserve" text-anchor="start" x="17" y="-18.5" font-family="Helvetica,sans-Serif" font-size="10.00">_writer&lt; BasicJsonType,</text>
<text xml:space="preserve" text-anchor="middle" x="71" y="-6.5" font-family="Helvetica,sans-Serif" font-size="10.00"> CharType &gt;</text>
</a>
</g>
</g>
<!-- Node2 -->
<g id="node2" class="node">
<title>Node2</title>
<g id="a_node2"><a xlink:title=" ">
<polygon fill="white" stroke="#666666" points="34,-112 0,-112 0,-92 34,-92 34,-112"/>
<text xml:space="preserve" text-anchor="middle" x="17" y="-98.5" font-family="Helvetica,sans-Serif" font-size="10.00">bool</text>
</a>
</g>
</g>
<!-- Node2&#45;&gt;Node1 -->
<g id="edge1" class="edge">
<title>Node2&#45;&gt;Node1</title>
<path fill="none" stroke="#9a32cd" stroke-dasharray="5,2" d="M25.66,-81.2C28.75,-74.87 32.48,-67.96 36.5,-62 40.55,-56.01 45.43,-49.95 50.24,-44.46"/>
<polygon fill="#9a32cd" stroke="#9a32cd" points="22.49,-79.72 21.48,-90.27 28.85,-82.65 22.49,-79.72"/>
<text xml:space="preserve" text-anchor="middle" x="70.25" y="-64.5" font-family="Helvetica,sans-Serif" font-size="10.00"> is_little_endian</text>
</g>
<!-- Node3 -->
<g id="node3" class="node">
<title>Node3</title>
<g id="a_node3"><a xlink:title=" ">
<polygon fill="white" stroke="#666666" points="200.38,-112 51.62,-112 51.62,-92 200.38,-92 200.38,-112"/>
<text xml:space="preserve" text-anchor="middle" x="126" y="-98.5" font-family="Helvetica,sans-Serif" font-size="10.00">output_adapter_t&lt; CharType &gt;</text>
</a>
</g>
</g>
<!-- Node3&#45;&gt;Node1 -->
<g id="edge2" class="edge">
<title>Node3&#45;&gt;Node1</title>
<path fill="none" stroke="#9a32cd" stroke-dasharray="5,2" d="M116.11,-81.79C112.54,-75.34 108.32,-68.21 104,-62 99.85,-56.03 94.97,-49.88 90.25,-44.29"/>
<polygon fill="#9a32cd" stroke="#9a32cd" points="112.9,-83.21 120.69,-90.39 119.07,-79.92 112.9,-83.21"/>
<text xml:space="preserve" text-anchor="middle" x="118.04" y="-64.5" font-family="Helvetica,sans-Serif" font-size="10.00"> oa</text>
</g>
</g>
</svg>
