<?xml version="1.0" encoding="UTF-8" standalone="no"?>
<!DOCTYPE svg PUBLIC "-//W3C//DTD SVG 1.1//EN"
 "http://www.w3.org/Graphics/SVG/1.1/DTD/svg11.dtd">
<!-- Generated by graphviz version 13.1.2 (20250808.2320)
 -->
<!-- Title: nlohmann::detail::serializer::dump_float Pages: 1 -->
<svg width="455pt" height="58pt"
 viewBox="0.00 0.00 455.00 58.00" xmlns="http://www.w3.org/2000/svg" xmlns:xlink="http://www.w3.org/1999/xlink">
<g id="graph0" class="graph" transform="scale(1 1) rotate(0) translate(4 54)">
<title>nlohmann::detail::serializer::dump_float</title>
<!-- Node1 -->
<g id="node1" class="node">
<title>Node1</title>
<g id="a_node1"><a xlink:title="dump a floating&#45;point number">
<polygon fill="#999999" stroke="#666666" points="447,-32 314.75,-32 314.75,0 447,0 447,-32"/>
<text xml:space="preserve" text-anchor="start" x="322.75" y="-18.5" font-family="Helvetica,sans-Serif" font-size="10.00">nlohmann::detail::serializer</text>
<text xml:space="preserve" text-anchor="middle" x="380.88" y="-6.5" font-family="Helvetica,sans-Serif" font-size="10.00">::dump_float</text>
</a>
</g>
</g>
<!-- Node1&#45;&gt;Node1 -->
<g id="edge4" class="edge">
<title>Node1&#45;&gt;Node1</title>
<path fill="none" stroke="#63b8ff" d="M408.91,-43.71C404.24,-47.48 394.89,-50 380.88,-50 355.24,-50 345.23,-41.58 350.84,-32.44"/>
<polygon fill="#63b8ff" stroke="#63b8ff" points="412.35,-44.39 410.65,-33.93 405.45,-43.17 412.35,-44.39"/>
</g>
<!-- Node2 -->
<g id="node2" class="node">
<title>Node2</title>
<g id="a_node2"><a xlink:href="a02055.html#a95460ebd1a535a543e5a0ec52e00f48b" target="_top" xlink:title="internal implementation of the serialization function">
<polygon fill="white" stroke="#666666" points="278.75,-32 146.5,-32 146.5,0 278.75,0 278.75,-32"/>
<text xml:space="preserve" text-anchor="start" x="154.5" y="-18.5" font-family="Helvetica,sans-Serif" font-size="10.00">nlohmann::detail::serializer</text>
<text xml:space="preserve" text-anchor="middle" x="212.62" y="-6.5" font-family="Helvetica,sans-Serif" font-size="10.00">::dump</text>
</a>
</g>
</g>
<!-- Node1&#45;&gt;Node2 -->
<g id="edge1" class="edge">
<title>Node1&#45;&gt;Node2</title>
<path fill="none" stroke="#63b8ff" d="M303.34,-16C295.28,-16 287.13,-16 279.21,-16"/>
<polygon fill="#63b8ff" stroke="#63b8ff" points="303.13,-19.5 313.13,-16 303.13,-12.5 303.13,-19.5"/>
</g>
<!-- Node2&#45;&gt;Node2 -->
<g id="edge2" class="edge">
<title>Node2&#45;&gt;Node2</title>
<path fill="none" stroke="#63b8ff" d="M238.85,-43.71C234.48,-47.48 225.74,-50 212.62,-50 188.65,-50 179.28,-41.58 184.53,-32.44"/>
<polygon fill="#63b8ff" stroke="#63b8ff" points="242.29,-44.37 240.47,-33.94 235.38,-43.23 242.29,-44.37"/>
</g>
<!-- Node3 -->
<g id="node3" class="node">
<title>Node3</title>
<g id="a_node3"><a xlink:href="a01659.html#a476756fb08e7f2416aad116d137977f4" target="_top" xlink:title="serialization">
<polygon fill="white" stroke="#666666" points="110.5,-32 0,-32 0,0 110.5,0 110.5,-32"/>
<text xml:space="preserve" text-anchor="start" x="8" y="-18.5" font-family="Helvetica,sans-Serif" font-size="10.00">nlohmann::basic_json</text>
<text xml:space="preserve" text-anchor="middle" x="55.25" y="-6.5" font-family="Helvetica,sans-Serif" font-size="10.00">::dump</text>
</a>
</g>
</g>
<!-- Node2&#45;&gt;Node3 -->
<g id="edge3" class="edge">
<title>Node2&#45;&gt;Node3</title>
<path fill="none" stroke="#63b8ff" d="M134.78,-16C126.69,-16 118.58,-16 110.82,-16"/>
<polygon fill="#63b8ff" stroke="#63b8ff" points="134.67,-19.5 144.67,-16 134.67,-12.5 134.67,-19.5"/>
</g>
</g>
</svg>
