<?xml version="1.0" encoding="UTF-8" standalone="no"?>
<!DOCTYPE svg PUBLIC "-//W3C//DTD SVG 1.1//EN"
 "http://www.w3.org/Graphics/SVG/1.1/DTD/svg11.dtd">
<!-- Generated by graphviz version 13.1.2 (20250808.2320)
 -->
<!-- Title: nlohmann::detail::binary_writer::write_compact_float Pages: 1 -->
<svg width="502pt" height="140pt"
 viewBox="0.00 0.00 502.00 140.00" xmlns="http://www.w3.org/2000/svg" xmlns:xlink="http://www.w3.org/1999/xlink">
<g id="graph0" class="graph" transform="scale(1 1) rotate(0) translate(4 136)">
<title>nlohmann::detail::binary_writer::write_compact_float</title>
<!-- Node1 -->
<g id="node1" class="node">
<title>Node1</title>
<g id="a_node1"><a xlink:title=" ">
<polygon fill="#999999" stroke="#666666" points="139,-82 0,-82 0,-50 139,-50 139,-82"/>
<text xml:space="preserve" text-anchor="start" x="8" y="-68.5" font-family="Helvetica,sans-Serif" font-size="10.00">nlohmann::detail::binary</text>
<text xml:space="preserve" text-anchor="middle" x="69.5" y="-56.5" font-family="Helvetica,sans-Serif" font-size="10.00">_writer::write_compact_float</text>
</a>
</g>
</g>
<!-- Node2 -->
<g id="node2" class="node">
<title>Node2</title>
<g id="a_node2"><a xlink:href="a02039.html#a2b5cb010077da6241a18bb334736464c" target="_top" xlink:title=" ">
<polygon fill="white" stroke="#666666" points="327.5,-132 185.5,-132 185.5,-100 327.5,-100 327.5,-132"/>
<text xml:space="preserve" text-anchor="start" x="193.5" y="-118.5" font-family="Helvetica,sans-Serif" font-size="10.00">nlohmann::detail::binary</text>
<text xml:space="preserve" text-anchor="middle" x="256.5" y="-106.5" font-family="Helvetica,sans-Serif" font-size="10.00">_writer::get_cbor_float_prefix</text>
</a>
</g>
</g>
<!-- Node1&#45;&gt;Node2 -->
<g id="edge1" class="edge">
<title>Node1&#45;&gt;Node2</title>
<path fill="none" stroke="#63b8ff" d="M131.33,-82.44C148.16,-86.99 166.59,-91.97 183.97,-96.67"/>
<polygon fill="#63b8ff" stroke="#63b8ff" points="182.6,-99.92 193.17,-99.15 184.43,-93.17 182.6,-99.92"/>
</g>
<!-- Node4 -->
<g id="node4" class="node">
<title>Node4</title>
<g id="a_node4"><a xlink:href="a02039.html#ad452d114696407b98abc69b6001c270e" target="_top" xlink:title=" ">
<polygon fill="white" stroke="#666666" points="338,-82 175,-82 175,-50 338,-50 338,-82"/>
<text xml:space="preserve" text-anchor="start" x="183" y="-68.5" font-family="Helvetica,sans-Serif" font-size="10.00">nlohmann::detail::binary</text>
<text xml:space="preserve" text-anchor="middle" x="256.5" y="-56.5" font-family="Helvetica,sans-Serif" font-size="10.00">_writer::get_msgpack_float_prefix</text>
</a>
</g>
</g>
<!-- Node1&#45;&gt;Node4 -->
<g id="edge3" class="edge">
<title>Node1&#45;&gt;Node4</title>
<path fill="none" stroke="#63b8ff" d="M139.39,-66C147.21,-66 155.27,-66 163.33,-66"/>
<polygon fill="#63b8ff" stroke="#63b8ff" points="163.18,-69.5 173.18,-66 163.18,-62.5 163.18,-69.5"/>
</g>
<!-- Node5 -->
<g id="node5" class="node">
<title>Node5</title>
<g id="a_node5"><a xlink:href="a02039.html#a6e11b7227fcecc25a548ed45507b7d1c" target="_top" xlink:title=" ">
<polygon fill="white" stroke="#666666" points="316.25,-32 196.75,-32 196.75,0 316.25,0 316.25,-32"/>
<text xml:space="preserve" text-anchor="start" x="204.75" y="-18.5" font-family="Helvetica,sans-Serif" font-size="10.00">nlohmann::detail::binary</text>
<text xml:space="preserve" text-anchor="middle" x="256.5" y="-6.5" font-family="Helvetica,sans-Serif" font-size="10.00">_writer::write_number</text>
</a>
</g>
</g>
<!-- Node1&#45;&gt;Node5 -->
<g id="edge5" class="edge">
<title>Node1&#45;&gt;Node5</title>
<path fill="none" stroke="#63b8ff" d="M131.33,-49.56C148.69,-44.87 167.73,-39.72 185.59,-34.9"/>
<polygon fill="#63b8ff" stroke="#63b8ff" points="186.32,-38.32 195.06,-32.34 184.49,-31.57 186.32,-38.32"/>
</g>
<!-- Node3 -->
<g id="node3" class="node">
<title>Node3</title>
<g id="a_node3"><a xlink:href="a02039.html#ab77aa48692bd4e64e4f051ce6aeb6d2d" target="_top" xlink:title=" ">
<polygon fill="white" stroke="#666666" points="493.5,-107 374,-107 374,-75 493.5,-75 493.5,-107"/>
<text xml:space="preserve" text-anchor="start" x="382" y="-93.5" font-family="Helvetica,sans-Serif" font-size="10.00">nlohmann::detail::binary</text>
<text xml:space="preserve" text-anchor="middle" x="433.75" y="-81.5" font-family="Helvetica,sans-Serif" font-size="10.00">_writer::to_char_type</text>
</a>
</g>
</g>
<!-- Node2&#45;&gt;Node3 -->
<g id="edge2" class="edge">
<title>Node2&#45;&gt;Node3</title>
<path fill="none" stroke="#63b8ff" d="M327.77,-105.98C339.2,-104.35 351.04,-102.66 362.46,-101.03"/>
<polygon fill="#63b8ff" stroke="#63b8ff" points="362.82,-104.51 372.23,-99.63 361.83,-97.58 362.82,-104.51"/>
</g>
<!-- Node4&#45;&gt;Node3 -->
<g id="edge4" class="edge">
<title>Node4&#45;&gt;Node3</title>
<path fill="none" stroke="#63b8ff" d="M338.46,-77.55C346.41,-78.68 354.44,-79.83 362.27,-80.95"/>
<polygon fill="#63b8ff" stroke="#63b8ff" points="361.7,-84.4 372.09,-82.35 362.69,-77.47 361.7,-84.4"/>
</g>
</g>
</svg>
