<?xml version="1.0" encoding="UTF-8" standalone="no"?>
<!DOCTYPE svg PUBLIC "-//W3C//DTD SVG 1.1//EN"
 "http://www.w3.org/Graphics/SVG/1.1/DTD/svg11.dtd">
<!-- Generated by graphviz version 13.1.2 (20250808.2320)
 -->
<!-- Title: std::hash&lt; nlohmann::json &gt;::operator() Pages: 1 -->
<svg width="432pt" height="52pt"
 viewBox="0.00 0.00 432.00 52.00" xmlns="http://www.w3.org/2000/svg" xmlns:xlink="http://www.w3.org/1999/xlink">
<g id="graph0" class="graph" transform="scale(1 1) rotate(0) translate(4 48)">
<title>std::hash&lt; nlohmann::json &gt;::operator()</title>
<!-- Node1 -->
<g id="node1" class="node">
<title>Node1</title>
<g id="a_node1"><a xlink:title="return a hash value for a JSON object">
<polygon fill="#999999" stroke="#666666" points="107.5,-32 0,-32 0,0 107.5,0 107.5,-32"/>
<text xml:space="preserve" text-anchor="start" x="8" y="-18.5" font-family="Helvetica,sans-Serif" font-size="10.00">std::hash&lt; nlohmann</text>
<text xml:space="preserve" text-anchor="middle" x="53.75" y="-6.5" font-family="Helvetica,sans-Serif" font-size="10.00">::json &gt;::operator()</text>
</a>
</g>
</g>
<!-- Node2 -->
<g id="node2" class="node">
<title>Node2</title>
<g id="a_node2"><a xlink:href="a00477.html#a679e5e522ac6afa5d5923292fab450b8" target="_top" xlink:title="hash a JSON value">
<polygon fill="white" stroke="#666666" points="257.75,-26 143.5,-26 143.5,-6 257.75,-6 257.75,-26"/>
<text xml:space="preserve" text-anchor="middle" x="200.62" y="-12.5" font-family="Helvetica,sans-Serif" font-size="10.00">nlohmann::detail::hash</text>
</a>
</g>
</g>
<!-- Node1&#45;&gt;Node2 -->
<g id="edge1" class="edge">
<title>Node1&#45;&gt;Node2</title>
<path fill="none" stroke="#63b8ff" d="M107.87,-16C115.67,-16 123.78,-16 131.82,-16"/>
<polygon fill="#63b8ff" stroke="#63b8ff" points="131.58,-19.5 141.58,-16 131.58,-12.5 131.58,-19.5"/>
</g>
<!-- Node2&#45;&gt;Node2 -->
<g id="edge3" class="edge">
<title>Node2&#45;&gt;Node2</title>
<path fill="none" stroke="#63b8ff" d="M177.29,-26.34C167.32,-34.98 175.09,-44 200.62,-44 214.59,-44 223.24,-41.3 226.58,-37.44"/>
<polygon fill="#63b8ff" stroke="#63b8ff" points="230.01,-36.74 224.31,-27.81 223.2,-38.35 230.01,-36.74"/>
</g>
<!-- Node3 -->
<g id="node3" class="node">
<title>Node3</title>
<g id="a_node3"><a xlink:href="a00477.html#a66eb4d912b6f872d6983f7d0826f32c6" target="_top" xlink:title=" ">
<polygon fill="white" stroke="#666666" points="423.75,-26 293.75,-26 293.75,-6 423.75,-6 423.75,-26"/>
<text xml:space="preserve" text-anchor="middle" x="358.75" y="-12.5" font-family="Helvetica,sans-Serif" font-size="10.00">nlohmann::detail::combine</text>
</a>
</g>
</g>
<!-- Node2&#45;&gt;Node3 -->
<g id="edge2" class="edge">
<title>Node2&#45;&gt;Node3</title>
<path fill="none" stroke="#63b8ff" d="M257.99,-16C265.83,-16 273.98,-16 282.1,-16"/>
<polygon fill="#63b8ff" stroke="#63b8ff" points="282,-19.5 292,-16 282,-12.5 282,-19.5"/>
</g>
</g>
</svg>
