<?xml version="1.0" encoding="UTF-8" standalone="no"?>
<!DOCTYPE svg PUBLIC "-//W3C//DTD SVG 1.1//EN"
 "http://www.w3.org/Graphics/SVG/1.1/DTD/svg11.dtd">
<!-- Generated by graphviz version 13.1.2 (20250808.2320)
 -->
<!-- Title: nlohmann::detail::output_stream_adapter&lt; CharType &gt; Pages: 1 -->
<svg width="643pt" height="90pt"
 viewBox="0.00 0.00 643.00 90.00" xmlns="http://www.w3.org/2000/svg" xmlns:xlink="http://www.w3.org/1999/xlink">
<g id="graph0" class="graph" transform="scale(1 1) rotate(0) translate(4 86)">
<title>nlohmann::detail::output_stream_adapter&lt; CharType &gt;</title>
<!-- Node1 -->
<g id="node1" class="node">
<title>Node1</title>
<g id="a_node1"><a xlink:title="output adapter for output streams">
<polygon fill="#999999" stroke="#666666" points="635.25,-57 486.5,-57 486.5,-25 635.25,-25 635.25,-57"/>
<text xml:space="preserve" text-anchor="start" x="494.5" y="-43.5" font-family="Helvetica,sans-Serif" font-size="10.00">nlohmann::detail::output</text>
<text xml:space="preserve" text-anchor="middle" x="560.88" y="-31.5" font-family="Helvetica,sans-Serif" font-size="10.00">_stream_adapter&lt; CharType &gt;</text>
</a>
</g>
</g>
<!-- Node2 -->
<g id="node2" class="node">
<title>Node2</title>
<g id="a_node2"><a xlink:href="a02019.html" target="_top" xlink:title="abstract output adapter interface">
<polygon fill="white" stroke="#666666" points="417.5,-82 264.25,-82 264.25,-50 417.5,-50 417.5,-82"/>
<text xml:space="preserve" text-anchor="start" x="272.25" y="-68.5" font-family="Helvetica,sans-Serif" font-size="10.00">nlohmann::detail::output</text>
<text xml:space="preserve" text-anchor="middle" x="340.88" y="-56.5" font-family="Helvetica,sans-Serif" font-size="10.00">_adapter_protocol&lt; CharType &gt;</text>
</a>
</g>
</g>
<!-- Node2&#45;&gt;Node1 -->
<g id="edge1" class="edge">
<title>Node2&#45;&gt;Node1</title>
<path fill="none" stroke="#63b8ff" d="M429.11,-56C447.98,-53.83 467.75,-51.56 486.04,-49.47"/>
<polygon fill="#63b8ff" stroke="#63b8ff" points="428.85,-52.5 419.32,-57.12 429.65,-59.46 428.85,-52.5"/>
</g>
<!-- Node3 -->
<g id="node3" class="node">
<title>Node3</title>
<g id="a_node3"><a xlink:title=" ">
<polygon fill="white" stroke="#666666" points="390.5,-32 291.25,-32 291.25,0 390.5,0 390.5,-32"/>
<text xml:space="preserve" text-anchor="start" x="299.25" y="-18.5" font-family="Helvetica,sans-Serif" font-size="10.00">std::basic_ostream</text>
<text xml:space="preserve" text-anchor="middle" x="340.88" y="-6.5" font-family="Helvetica,sans-Serif" font-size="10.00">&lt; CharType &gt;</text>
</a>
</g>
</g>
<!-- Node3&#45;&gt;Node1 -->
<g id="edge2" class="edge">
<title>Node3&#45;&gt;Node1</title>
<path fill="none" stroke="#9a32cd" stroke-dasharray="5,2" d="M402.03,-22.9C428.09,-25.89 458.85,-29.41 486.26,-32.56"/>
<polygon fill="#9a32cd" stroke="#9a32cd" points="402.64,-19.45 392.3,-21.78 401.84,-26.4 402.64,-19.45"/>
<text xml:space="preserve" text-anchor="middle" x="452" y="-32.5" font-family="Helvetica,sans-Serif" font-size="10.00"> stream</text>
</g>
<!-- Node4 -->
<g id="node4" class="node">
<title>Node4</title>
<g id="a_node4"><a xlink:title=" ">
<polygon fill="white" stroke="#666666" points="227.25,-26 111.5,-26 111.5,-6 227.25,-6 227.25,-26"/>
<text xml:space="preserve" text-anchor="middle" x="169.38" y="-12.5" font-family="Helvetica,sans-Serif" font-size="10.00">std::basic_ios&lt; Char &gt;</text>
</a>
</g>
</g>
<!-- Node4&#45;&gt;Node3 -->
<g id="edge3" class="edge">
<title>Node4&#45;&gt;Node3</title>
<path fill="none" stroke="#63b8ff" d="M238.59,-16C256.05,-16 274.48,-16 290.77,-16"/>
<polygon fill="#63b8ff" stroke="#63b8ff" points="238.8,-12.5 228.8,-16 238.8,-19.5 238.8,-12.5"/>
</g>
<!-- Node5 -->
<g id="node5" class="node">
<title>Node5</title>
<g id="a_node5"><a xlink:title=" ">
<polygon fill="white" stroke="#666666" points="74.5,-26 0,-26 0,-6 74.5,-6 74.5,-26"/>
<text xml:space="preserve" text-anchor="middle" x="37.25" y="-12.5" font-family="Helvetica,sans-Serif" font-size="10.00">std::ios_base</text>
</a>
</g>
</g>
<!-- Node5&#45;&gt;Node4 -->
<g id="edge4" class="edge">
<title>Node5&#45;&gt;Node4</title>
<path fill="none" stroke="#63b8ff" d="M86.34,-16C94.41,-16 102.86,-16 111.13,-16"/>
<polygon fill="#63b8ff" stroke="#63b8ff" points="86.36,-12.5 76.36,-16 86.36,-19.5 86.36,-12.5"/>
</g>
</g>
</svg>
