<?xml version="1.0" encoding="UTF-8" standalone="no"?>
<!DOCTYPE svg PUBLIC "-//W3C//DTD SVG 1.1//EN"
 "http://www.w3.org/Graphics/SVG/1.1/DTD/svg11.dtd">
<!-- Generated by graphviz version 13.1.2 (20250808.2320)
 -->
<!-- Title: HF::SpatialStructures::Node::distanceTo Pages: 1 -->
<svg width="678pt" height="257pt"
 viewBox="0.00 0.00 678.00 257.00" xmlns="http://www.w3.org/2000/svg" xmlns:xlink="http://www.w3.org/1999/xlink">
<g id="graph0" class="graph" transform="scale(1 1) rotate(0) translate(4 253)">
<title>HF::SpatialStructures::Node::distanceTo</title>
<!-- Node1 -->
<g id="node1" class="node">
<title>Node1</title>
<g id="a_node1"><a xlink:title="Calculate the distance between this node and n2.">
<polygon fill="#999999" stroke="#666666" points="670,-168 559.5,-168 559.5,-136 670,-136 670,-168"/>
<text xml:space="preserve" text-anchor="start" x="567.5" y="-154.5" font-family="Helvetica,sans-Serif" font-size="10.00">HF::SpatialStructures</text>
<text xml:space="preserve" text-anchor="middle" x="614.75" y="-142.5" font-family="Helvetica,sans-Serif" font-size="10.00">::Node::distanceTo</text>
</a>
</g>
</g>
<!-- Node2 -->
<g id="node2" class="node">
<title>Node2</title>
<g id="a_node2"><a xlink:href="a00467.html#a12eb1e4c06400c4625cd22d925927b03" target="_top" xlink:title="Generate a Visibility Graph between every node in a set of nodes in parallel.">
<polygon fill="white" stroke="#666666" points="309.88,-249 211.38,-249 211.38,-217 309.88,-217 309.88,-249"/>
<text xml:space="preserve" text-anchor="start" x="219.38" y="-235.5" font-family="Helvetica,sans-Serif" font-size="10.00">HF::VisibilityGraph</text>
<text xml:space="preserve" text-anchor="middle" x="260.62" y="-223.5" font-family="Helvetica,sans-Serif" font-size="10.00">::AllToAll</text>
</a>
</g>
</g>
<!-- Node1&#45;&gt;Node2 -->
<g id="edge1" class="edge">
<title>Node1&#45;&gt;Node2</title>
<path fill="none" stroke="#63b8ff" d="M575.16,-173.53C559.54,-181.4 541.08,-189.67 523.5,-195 451.18,-216.93 363.67,-226.36 310.36,-230.31"/>
<polygon fill="#63b8ff" stroke="#63b8ff" points="576.36,-176.85 583.63,-169.15 573.14,-170.64 576.36,-176.85"/>
</g>
<!-- Node4 -->
<g id="node4" class="node">
<title>Node4</title>
<g id="a_node4"><a xlink:href="a00467.html#ab1db87927118f70786a664c3b3cc7905" target="_top" xlink:title="Generate a Visibility Graph with every edge stored twice.">
<polygon fill="white" stroke="#666666" points="311.75,-197 209.5,-197 209.5,-165 311.75,-165 311.75,-197"/>
<text xml:space="preserve" text-anchor="start" x="217.5" y="-183.5" font-family="Helvetica,sans-Serif" font-size="10.00">HF::VisibilityGraph</text>
<text xml:space="preserve" text-anchor="middle" x="260.62" y="-171.5" font-family="Helvetica,sans-Serif" font-size="10.00">::AllToAllUndirected</text>
</a>
</g>
</g>
<!-- Node1&#45;&gt;Node4 -->
<g id="edge3" class="edge">
<title>Node1&#45;&gt;Node4</title>
<path fill="none" stroke="#63b8ff" d="M552.16,-171.3C542.64,-173.63 532.87,-175.65 523.5,-177 450.59,-187.48 365.09,-186.3 312.13,-184.02"/>
<polygon fill="#63b8ff" stroke="#63b8ff" points="552.89,-174.72 561.7,-168.83 551.14,-167.95 552.89,-174.72"/>
</g>
<!-- Node6 -->
<g id="node6" class="node">
<title>Node6</title>
<g id="a_node6"><a xlink:href="a00475.html#ac51f2e76c00356f8a6145bee865cd922" target="_top" xlink:title=" ">
<polygon fill="white" stroke="#666666" points="523.5,-80 386.75,-80 386.75,-36 523.5,-36 523.5,-80"/>
<text xml:space="preserve" text-anchor="start" x="394.75" y="-66.5" font-family="Helvetica,sans-Serif" font-size="10.00">HF::SpatialStructures</text>
<text xml:space="preserve" text-anchor="start" x="394.75" y="-54.5" font-family="Helvetica,sans-Serif" font-size="10.00">::CostAlgorithms::Calculate</text>
<text xml:space="preserve" text-anchor="middle" x="455.12" y="-42.5" font-family="Helvetica,sans-Serif" font-size="10.00">EnergyExpenditure</text>
</a>
</g>
</g>
<!-- Node1&#45;&gt;Node6 -->
<g id="edge5" class="edge">
<title>Node1&#45;&gt;Node6</title>
<path fill="none" stroke="#63b8ff" d="M580.17,-129.51C563.35,-118.48 542.56,-105.19 523.5,-94 515.72,-89.43 507.32,-84.75 499.18,-80.34"/>
<polygon fill="#63b8ff" stroke="#63b8ff" points="578.03,-132.29 588.3,-134.87 581.88,-126.44 578.03,-132.29"/>
</g>
<!-- Node9 -->
<g id="node9" class="node">
<title>Node9</title>
<g id="a_node9"><a xlink:href="a00467.html#ae42a5aafdfcc29b6a668355c07602efb" target="_top" xlink:title="Generate a Visibility Graph from a set of nodes to another set of nodes.">
<polygon fill="white" stroke="#666666" points="309.88,-142 211.38,-142 211.38,-110 309.88,-110 309.88,-142"/>
<text xml:space="preserve" text-anchor="start" x="219.38" y="-128.5" font-family="Helvetica,sans-Serif" font-size="10.00">HF::VisibilityGraph</text>
<text xml:space="preserve" text-anchor="middle" x="260.62" y="-116.5" font-family="Helvetica,sans-Serif" font-size="10.00">::GroupToGroup</text>
</a>
</g>
</g>
<!-- Node1&#45;&gt;Node9 -->
<g id="edge8" class="edge">
<title>Node1&#45;&gt;Node9</title>
<path fill="none" stroke="#63b8ff" d="M552.52,-132.69C542.9,-130.34 532.99,-128.31 523.5,-127 449.64,-116.82 362.94,-119.27 310.16,-122.35"/>
<polygon fill="#63b8ff" stroke="#63b8ff" points="551.63,-136.08 562.19,-135.2 553.38,-129.3 551.63,-136.08"/>
</g>
<!-- Node11 -->
<g id="node11" class="node">
<title>Node11</title>
<g id="a_node11"><a xlink:href="a00467.html#a4d9cf77879eb78075f7f7b0a7e31119a" target="_top" xlink:title="Perform a line of sight check between two nodes.">
<polygon fill="white" stroke="#666666" points="511.12,-168 399.12,-168 399.12,-136 511.12,-136 511.12,-168"/>
<text xml:space="preserve" text-anchor="start" x="407.12" y="-154.5" font-family="Helvetica,sans-Serif" font-size="10.00">HF::VisibilityGraph</text>
<text xml:space="preserve" text-anchor="middle" x="455.12" y="-142.5" font-family="Helvetica,sans-Serif" font-size="10.00">::IsOcclusionBetween</text>
</a>
</g>
</g>
<!-- Node1&#45;&gt;Node11 -->
<g id="edge10" class="edge">
<title>Node1&#45;&gt;Node11</title>
<path fill="none" stroke="#63b8ff" d="M547.69,-152C535.65,-152 523.2,-152 511.52,-152"/>
<polygon fill="#63b8ff" stroke="#63b8ff" points="547.55,-155.5 557.55,-152 547.55,-148.5 547.55,-155.5"/>
</g>
<!-- Node3 -->
<g id="node3" class="node">
<title>Node3</title>
<g id="a_node3"><a xlink:href="a00460.html#ga0255e6c4811298e61110adc64c0f8acd" target="_top" xlink:title="Create a new directed visibility graph between all nodes in parameter nodes.">
<polygon fill="white" stroke="#666666" points="127,-249 7.5,-249 7.5,-217 127,-217 127,-249"/>
<text xml:space="preserve" text-anchor="start" x="15.5" y="-235.5" font-family="Helvetica,sans-Serif" font-size="10.00">CreateVisibilityGraphAll</text>
<text xml:space="preserve" text-anchor="middle" x="67.25" y="-223.5" font-family="Helvetica,sans-Serif" font-size="10.00">ToAll</text>
</a>
</g>
</g>
<!-- Node2&#45;&gt;Node3 -->
<g id="edge2" class="edge">
<title>Node2&#45;&gt;Node3</title>
<path fill="none" stroke="#63b8ff" d="M199.95,-233C176.87,-233 150.51,-233 127.48,-233"/>
<polygon fill="#63b8ff" stroke="#63b8ff" points="199.82,-236.5 209.82,-233 199.82,-229.5 199.82,-236.5"/>
</g>
<!-- Node5 -->
<g id="node5" class="node">
<title>Node5</title>
<g id="a_node5"><a xlink:href="a00460.html#ga9b0664a60bcdf276b0fe0a2023b3d9b8" target="_top" xlink:title="Create a new undirected visibility graph between all nodes in nodes.">
<polygon fill="white" stroke="#666666" points="127,-197 7.5,-197 7.5,-165 127,-165 127,-197"/>
<text xml:space="preserve" text-anchor="start" x="15.5" y="-183.5" font-family="Helvetica,sans-Serif" font-size="10.00">CreateVisibilityGraphAll</text>
<text xml:space="preserve" text-anchor="middle" x="67.25" y="-171.5" font-family="Helvetica,sans-Serif" font-size="10.00">ToAllUndirected</text>
</a>
</g>
</g>
<!-- Node4&#45;&gt;Node5 -->
<g id="edge4" class="edge">
<title>Node4&#45;&gt;Node5</title>
<path fill="none" stroke="#63b8ff" d="M197.88,-181C175.22,-181 149.64,-181 127.22,-181"/>
<polygon fill="#63b8ff" stroke="#63b8ff" points="197.58,-184.5 207.58,-181 197.58,-177.5 197.58,-184.5"/>
</g>
<!-- Node7 -->
<g id="node7" class="node">
<title>Node7</title>
<g id="a_node7"><a xlink:href="a00458.html#ga76d98cf2df63a766a74137dfa815d9a9" target="_top" xlink:title="Calculates energy expenditure for all subgraphs in *g and stores them in the graph at AlgorithmCostTi...">
<polygon fill="white" stroke="#666666" points="350.75,-20 170.5,-20 170.5,0 350.75,0 350.75,-20"/>
<text xml:space="preserve" text-anchor="middle" x="260.62" y="-6.5" font-family="Helvetica,sans-Serif" font-size="10.00">CalculateAndStoreEnergyExpenditure</text>
</a>
</g>
</g>
<!-- Node6&#45;&gt;Node7 -->
<g id="edge6" class="edge">
<title>Node6&#45;&gt;Node7</title>
<path fill="none" stroke="#63b8ff" d="M375.53,-35.39C367.18,-33.16 358.8,-30.99 350.75,-29 338.77,-26.05 325.81,-23.13 313.59,-20.5"/>
<polygon fill="#63b8ff" stroke="#63b8ff" points="374.42,-38.72 384.99,-37.96 376.25,-31.96 374.42,-38.72"/>
</g>
<!-- Node8 -->
<g id="node8" class="node">
<title>Node8</title>
<g id="a_node8"><a xlink:href="a00475.html#adbe5e58355a884494d6e99bf17fc5f7b" target="_top" xlink:title=" ">
<polygon fill="white" stroke="#666666" points="329,-82 192.25,-82 192.25,-38 329,-38 329,-82"/>
<text xml:space="preserve" text-anchor="start" x="200.25" y="-68.5" font-family="Helvetica,sans-Serif" font-size="10.00">HF::SpatialStructures</text>
<text xml:space="preserve" text-anchor="start" x="200.25" y="-56.5" font-family="Helvetica,sans-Serif" font-size="10.00">::CostAlgorithms::Calculate</text>
<text xml:space="preserve" text-anchor="middle" x="260.62" y="-44.5" font-family="Helvetica,sans-Serif" font-size="10.00">EnergyExpenditure</text>
</a>
</g>
</g>
<!-- Node6&#45;&gt;Node8 -->
<g id="edge7" class="edge">
<title>Node6&#45;&gt;Node8</title>
<path fill="none" stroke="#63b8ff" d="M374.81,-58.82C359.67,-58.98 343.94,-59.14 329.2,-59.3"/>
<polygon fill="#63b8ff" stroke="#63b8ff" points="374.78,-62.32 384.74,-58.72 374.71,-55.33 374.78,-62.32"/>
</g>
<!-- Node10 -->
<g id="node10" class="node">
<title>Node10</title>
<g id="a_node10"><a xlink:href="a00460.html#gaf2e404cb696aee3473cac0d1507576d8" target="_top" xlink:title="Create a new visibility graph from the nodes in group_a, into the nodes of group_b.">
<polygon fill="white" stroke="#666666" points="134.5,-142 0,-142 0,-110 134.5,-110 134.5,-142"/>
<text xml:space="preserve" text-anchor="start" x="8" y="-128.5" font-family="Helvetica,sans-Serif" font-size="10.00">CreateVisibilityGraphGroup</text>
<text xml:space="preserve" text-anchor="middle" x="67.25" y="-116.5" font-family="Helvetica,sans-Serif" font-size="10.00">ToGroup</text>
</a>
</g>
</g>
<!-- Node9&#45;&gt;Node10 -->
<g id="edge9" class="edge">
<title>Node9&#45;&gt;Node10</title>
<path fill="none" stroke="#63b8ff" d="M199.87,-126C179.27,-126 156.07,-126 134.96,-126"/>
<polygon fill="#63b8ff" stroke="#63b8ff" points="199.82,-129.5 209.82,-126 199.82,-122.5 199.82,-129.5"/>
</g>
<!-- Node11&#45;&gt;Node2 -->
<g id="edge11" class="edge">
<title>Node11&#45;&gt;Node2</title>
<path fill="none" stroke="#63b8ff" d="M416.41,-173.88C397.17,-184.47 373.15,-196.85 350.75,-206 337.88,-211.26 323.6,-216.03 310.3,-220.05"/>
<polygon fill="#63b8ff" stroke="#63b8ff" points="417.94,-177.03 424.96,-169.1 414.53,-170.92 417.94,-177.03"/>
</g>
<!-- Node11&#45;&gt;Node4 -->
<g id="edge12" class="edge">
<title>Node11&#45;&gt;Node4</title>
<path fill="none" stroke="#63b8ff" d="M387.56,-162.03C362.8,-165.76 335.13,-169.93 312.05,-173.4"/>
<polygon fill="#63b8ff" stroke="#63b8ff" points="387.84,-165.53 397.21,-160.57 386.8,-158.6 387.84,-165.53"/>
</g>
<!-- Node11&#45;&gt;Node9 -->
<g id="edge13" class="edge">
<title>Node11&#45;&gt;Node9</title>
<path fill="none" stroke="#63b8ff" d="M387.62,-143.02C362.15,-139.58 333.6,-135.72 310.12,-132.55"/>
<polygon fill="#63b8ff" stroke="#63b8ff" points="386.83,-146.44 397.2,-144.31 387.76,-139.5 386.83,-146.44"/>
</g>
</g>
</svg>
