<?xml version="1.0" encoding="UTF-8" standalone="no"?>
<!DOCTYPE svg PUBLIC "-//W3C//DTD SVG 1.1//EN"
 "http://www.w3.org/Graphics/SVG/1.1/DTD/svg11.dtd">
<!-- Generated by graphviz version 13.1.2 (20250808.2320)
 -->
<!-- Title: nlohmann::basic_json::json_value::json_value Pages: 1 -->
<svg width="904pt" height="216pt"
 viewBox="0.00 0.00 904.00 216.00" xmlns="http://www.w3.org/2000/svg" xmlns:xlink="http://www.w3.org/1999/xlink">
<g id="graph0" class="graph" transform="scale(1 1) rotate(0) translate(4 212)">
<title>nlohmann::basic_json::json_value::json_value</title>
<!-- Node1 -->
<g id="node1" class="node">
<title>Node1</title>
<g id="a_node1"><a xlink:title="constructor for rvalue objects">
<polygon fill="#999999" stroke="#666666" points="121,-120 0,-120 0,-88 121,-88 121,-120"/>
<text xml:space="preserve" text-anchor="start" x="8" y="-106.5" font-family="Helvetica,sans-Serif" font-size="10.00">nlohmann::basic_json</text>
<text xml:space="preserve" text-anchor="middle" x="60.5" y="-94.5" font-family="Helvetica,sans-Serif" font-size="10.00">::json_value::json_value</text>
</a>
</g>
</g>
<!-- Node2 -->
<g id="node2" class="node">
<title>Node2</title>
<g id="a_node2"><a xlink:href="a01659.html#a11641b35219676b225d9bd15c7677659" target="_top" xlink:title="access specified object element with default value">
<polygon fill="white" stroke="#666666" points="267.5,-120 157,-120 157,-88 267.5,-88 267.5,-120"/>
<text xml:space="preserve" text-anchor="start" x="165" y="-106.5" font-family="Helvetica,sans-Serif" font-size="10.00">nlohmann::basic_json</text>
<text xml:space="preserve" text-anchor="middle" x="212.25" y="-94.5" font-family="Helvetica,sans-Serif" font-size="10.00">::value</text>
</a>
</g>
</g>
<!-- Node1&#45;&gt;Node2 -->
<g id="edge1" class="edge">
<title>Node1&#45;&gt;Node2</title>
<path fill="none" stroke="#63b8ff" d="M121.12,-104C129.1,-104 137.32,-104 145.41,-104"/>
<polygon fill="#63b8ff" stroke="#63b8ff" points="145.18,-107.5 155.18,-104 145.18,-100.5 145.18,-107.5"/>
</g>
<!-- Node3 -->
<g id="node3" class="node">
<title>Node3</title>
<g id="a_node3"><a xlink:href="a01571.html#aecc083aea4b698c33d042670ba50c10f" target="_top" xlink:title=" ">
<polygon fill="white" stroke="#666666" points="415.5,-208 303.5,-208 303.5,-176 415.5,-176 415.5,-208"/>
<text xml:space="preserve" text-anchor="start" x="311.5" y="-194.5" font-family="Helvetica,sans-Serif" font-size="10.00">nlohmann::detail::type</text>
<text xml:space="preserve" text-anchor="middle" x="359.5" y="-182.5" font-family="Helvetica,sans-Serif" font-size="10.00">_error::create</text>
</a>
</g>
</g>
<!-- Node2&#45;&gt;Node3 -->
<g id="edge2" class="edge">
<title>Node2&#45;&gt;Node3</title>
<path fill="none" stroke="#63b8ff" d="M237.85,-120.49C255.83,-132.37 280.91,-148.6 303.5,-162 308.05,-164.7 312.87,-167.46 317.67,-170.16"/>
<polygon fill="#63b8ff" stroke="#63b8ff" points="315.68,-173.05 326.12,-174.83 319.07,-166.93 315.68,-173.05"/>
</g>
<!-- Node5 -->
<g id="node5" class="node">
<title>Node5</title>
<g id="a_node5"><a xlink:href="a01659.html#a931267ec3f09eb67e4382f321b2c52bc" target="_top" xlink:title="returns an iterator to one past the last element">
<polygon fill="white" stroke="#666666" points="585.25,-147 453,-147 453,-127 585.25,-127 585.25,-147"/>
<text xml:space="preserve" text-anchor="middle" x="519.12" y="-133.5" font-family="Helvetica,sans-Serif" font-size="10.00">nlohmann::basic_json::end</text>
</a>
</g>
</g>
<!-- Node2&#45;&gt;Node5 -->
<g id="edge4" class="edge">
<title>Node2&#45;&gt;Node5</title>
<path fill="none" stroke="#63b8ff" d="M264.34,-120.38C277.01,-123.82 290.65,-127.01 303.5,-129 348.97,-136.05 400.47,-138.16 441.63,-138.46"/>
<polygon fill="#63b8ff" stroke="#63b8ff" points="441.42,-141.96 451.43,-138.49 441.44,-134.96 441.42,-141.96"/>
</g>
<!-- Node8 -->
<g id="node8" class="node">
<title>Node8</title>
<g id="a_node8"><a xlink:href="a01659.html#acdf9b3aab82dcf443dd91ca5ec06b80c" target="_top" xlink:title="find an element in a JSON object">
<polygon fill="white" stroke="#666666" points="414.75,-120 304.25,-120 304.25,-88 414.75,-88 414.75,-120"/>
<text xml:space="preserve" text-anchor="start" x="312.25" y="-106.5" font-family="Helvetica,sans-Serif" font-size="10.00">nlohmann::basic_json</text>
<text xml:space="preserve" text-anchor="middle" x="359.5" y="-94.5" font-family="Helvetica,sans-Serif" font-size="10.00">::find</text>
</a>
</g>
</g>
<!-- Node2&#45;&gt;Node8 -->
<g id="edge7" class="edge">
<title>Node2&#45;&gt;Node8</title>
<path fill="none" stroke="#63b8ff" d="M267.75,-104C275.94,-104 284.46,-104 292.85,-104"/>
<polygon fill="#63b8ff" stroke="#63b8ff" points="292.67,-107.5 302.67,-104 292.67,-100.5 292.67,-107.5"/>
</g>
<!-- Node9 -->
<g id="node9" class="node">
<title>Node9</title>
<g id="a_node9"><a xlink:href="a01659.html#a57e8411a770a6263d6d8f2116c37f3aa" target="_top" xlink:title="return whether value is an object">
<polygon fill="white" stroke="#666666" points="574.38,-87 463.88,-87 463.88,-55 574.38,-55 574.38,-87"/>
<text xml:space="preserve" text-anchor="start" x="471.88" y="-73.5" font-family="Helvetica,sans-Serif" font-size="10.00">nlohmann::basic_json</text>
<text xml:space="preserve" text-anchor="middle" x="519.12" y="-61.5" font-family="Helvetica,sans-Serif" font-size="10.00">::is_object</text>
</a>
</g>
</g>
<!-- Node2&#45;&gt;Node9 -->
<g id="edge10" class="edge">
<title>Node2&#45;&gt;Node9</title>
<path fill="none" stroke="#63b8ff" d="M264.34,-87.62C277.01,-84.18 290.65,-80.99 303.5,-79 352.95,-71.34 409.53,-69.51 452.18,-69.51"/>
<polygon fill="#63b8ff" stroke="#63b8ff" points="452.02,-73 462.03,-69.54 452.04,-66 452.02,-73"/>
</g>
<!-- Node10 -->
<g id="node10" class="node">
<title>Node10</title>
<g id="a_node10"><a xlink:href="a01659.html#ab8811fc4eab6091b32b34b3ac3e90474" target="_top" xlink:title="return the type as string">
<polygon fill="white" stroke="#666666" points="414.75,-32 304.25,-32 304.25,0 414.75,0 414.75,-32"/>
<text xml:space="preserve" text-anchor="start" x="312.25" y="-18.5" font-family="Helvetica,sans-Serif" font-size="10.00">nlohmann::basic_json</text>
<text xml:space="preserve" text-anchor="middle" x="359.5" y="-6.5" font-family="Helvetica,sans-Serif" font-size="10.00">::type_name</text>
</a>
</g>
</g>
<!-- Node2&#45;&gt;Node10 -->
<g id="edge11" class="edge">
<title>Node2&#45;&gt;Node10</title>
<path fill="none" stroke="#63b8ff" d="M237.85,-87.51C255.83,-75.63 280.91,-59.4 303.5,-46 308.05,-43.3 312.87,-40.54 317.67,-37.84"/>
<polygon fill="#63b8ff" stroke="#63b8ff" points="319.07,-41.07 326.12,-33.17 315.68,-34.95 319.07,-41.07"/>
</g>
<!-- Node4 -->
<g id="node4" class="node">
<title>Node4</title>
<g id="a_node4"><a xlink:href="a01559.html#abf41a7e9178356314082284e6cfea278" target="_top" xlink:title=" ">
<polygon fill="white" stroke="#666666" points="586.75,-208 451.5,-208 451.5,-176 586.75,-176 586.75,-208"/>
<text xml:space="preserve" text-anchor="start" x="459.5" y="-194.5" font-family="Helvetica,sans-Serif" font-size="10.00">nlohmann::detail::exception</text>
<text xml:space="preserve" text-anchor="middle" x="519.12" y="-182.5" font-family="Helvetica,sans-Serif" font-size="10.00">::name</text>
</a>
</g>
</g>
<!-- Node3&#45;&gt;Node4 -->
<g id="edge3" class="edge">
<title>Node3&#45;&gt;Node4</title>
<path fill="none" stroke="#63b8ff" d="M415.63,-192C423.41,-192 431.54,-192 439.66,-192"/>
<polygon fill="#63b8ff" stroke="#63b8ff" points="439.58,-195.5 449.58,-192 439.58,-188.5 439.58,-195.5"/>
</g>
<!-- Node6 -->
<g id="node6" class="node">
<title>Node6</title>
<g id="a_node6"><a xlink:href="a02011.html#a23e50ad4c13aa62d9ac7f60a123823ee" target="_top" xlink:title="set the iterator past the last value">
<polygon fill="white" stroke="#666666" points="729.5,-153 622.75,-153 622.75,-121 729.5,-121 729.5,-153"/>
<text xml:space="preserve" text-anchor="start" x="630.75" y="-139.5" font-family="Helvetica,sans-Serif" font-size="10.00">nlohmann::detail::iter</text>
<text xml:space="preserve" text-anchor="middle" x="676.12" y="-127.5" font-family="Helvetica,sans-Serif" font-size="10.00">_impl::set_end</text>
</a>
</g>
</g>
<!-- Node5&#45;&gt;Node6 -->
<g id="edge5" class="edge">
<title>Node5&#45;&gt;Node6</title>
<path fill="none" stroke="#63b8ff" d="M585.41,-137C593.94,-137 602.68,-137 611.19,-137"/>
<polygon fill="#63b8ff" stroke="#63b8ff" points="611.1,-140.5 621.1,-137 611.1,-133.5 611.1,-140.5"/>
</g>
<!-- Node7 -->
<g id="node7" class="node">
<title>Node7</title>
<g id="a_node7"><a xlink:href="a02003.html#ad26a823483846a12d890c3feed3097eb" target="_top" xlink:title="set iterator to a defined past the end">
<polygon fill="white" stroke="#666666" points="895.5,-153 765.5,-153 765.5,-121 895.5,-121 895.5,-153"/>
<text xml:space="preserve" text-anchor="start" x="773.5" y="-139.5" font-family="Helvetica,sans-Serif" font-size="10.00">nlohmann::detail::primitive</text>
<text xml:space="preserve" text-anchor="middle" x="830.5" y="-127.5" font-family="Helvetica,sans-Serif" font-size="10.00">_iterator_t::set_end</text>
</a>
</g>
</g>
<!-- Node6&#45;&gt;Node7 -->
<g id="edge6" class="edge">
<title>Node6&#45;&gt;Node7</title>
<path fill="none" stroke="#63b8ff" d="M729.99,-137C737.7,-137 745.77,-137 753.82,-137"/>
<polygon fill="#63b8ff" stroke="#63b8ff" points="753.66,-140.5 763.66,-137 753.66,-133.5 753.66,-140.5"/>
</g>
<!-- Node8&#45;&gt;Node5 -->
<g id="edge8" class="edge">
<title>Node8&#45;&gt;Node5</title>
<path fill="none" stroke="#63b8ff" d="M415.19,-115.45C428.73,-118.28 443.32,-121.34 457.14,-124.23"/>
<polygon fill="#63b8ff" stroke="#63b8ff" points="456.04,-127.58 466.54,-126.2 457.47,-120.73 456.04,-127.58"/>
</g>
<!-- Node8&#45;&gt;Node9 -->
<g id="edge9" class="edge">
<title>Node8&#45;&gt;Node9</title>
<path fill="none" stroke="#63b8ff" d="M415.19,-92.55C427.17,-90.04 439.97,-87.36 452.34,-84.77"/>
<polygon fill="#63b8ff" stroke="#63b8ff" points="452.98,-88.21 462.05,-82.74 451.55,-81.36 452.98,-88.21"/>
</g>
</g>
</svg>
