<?xml version="1.0" encoding="UTF-8" standalone="no"?>
<!DOCTYPE svg PUBLIC "-//W3C//DTD SVG 1.1//EN"
 "http://www.w3.org/Graphics/SVG/1.1/DTD/svg11.dtd">
<!-- Generated by graphviz version 13.1.2 (20250808.2320)
 -->
<!-- Title: nlohmann::detail::binary_writer::write_bson_element Pages: 1 -->
<svg width="1243pt" height="510pt"
 viewBox="0.00 0.00 1243.00 510.00" xmlns="http://www.w3.org/2000/svg" xmlns:xlink="http://www.w3.org/1999/xlink">
<g id="graph0" class="graph" transform="scale(1 1) rotate(0) translate(4 506)">
<title>nlohmann::detail::binary_writer::write_bson_element</title>
<!-- Node1 -->
<g id="node1" class="node">
<title>Node1</title>
<g id="a_node1"><a xlink:title="Serializes the JSON value j to BSON and associates it with the key name.">
<polygon fill="#999999" stroke="#666666" points="138.25,-270 0,-270 0,-238 138.25,-238 138.25,-270"/>
<text xml:space="preserve" text-anchor="start" x="8" y="-256.5" font-family="Helvetica,sans-Serif" font-size="10.00">nlohmann::detail::binary</text>
<text xml:space="preserve" text-anchor="middle" x="69.12" y="-244.5" font-family="Helvetica,sans-Serif" font-size="10.00">_writer::write_bson_element</text>
</a>
</g>
</g>
<!-- Node2 -->
<g id="node2" class="node">
<title>Node2</title>
<g id="a_node2"><a xlink:href="a02039.html#a025212bd170253638b9f05b3b6aa5bf9" target="_top" xlink:title="Writes a BSON element with key name and array value.">
<polygon fill="white" stroke="#666666" points="315.5,-470 190,-470 190,-438 315.5,-438 315.5,-470"/>
<text xml:space="preserve" text-anchor="start" x="198" y="-456.5" font-family="Helvetica,sans-Serif" font-size="10.00">nlohmann::detail::binary</text>
<text xml:space="preserve" text-anchor="middle" x="252.75" y="-444.5" font-family="Helvetica,sans-Serif" font-size="10.00">_writer::write_bson_array</text>
</a>
</g>
</g>
<!-- Node1&#45;&gt;Node2 -->
<g id="edge1" class="edge">
<title>Node1&#45;&gt;Node2</title>
<path fill="none" stroke="#63b8ff" d="M77.26,-270.28C90.49,-303.61 122.28,-378.57 174.25,-420 181.4,-425.7 189.89,-430.12 198.58,-433.68"/>
<polygon fill="#63b8ff" stroke="#63b8ff" points="197.19,-436.9 207.78,-437.1 199.63,-430.34 197.19,-436.9"/>
</g>
<!-- Node15 -->
<g id="node15" class="node">
<title>Node15</title>
<g id="a_node15"><a xlink:href="a02039.html#a97d34d9a70ddc06ae782c55454df42bc" target="_top" xlink:title="Writes a BSON element with key name and binary value value.">
<polygon fill="white" stroke="#666666" points="317.75,-370 187.75,-370 187.75,-338 317.75,-338 317.75,-370"/>
<text xml:space="preserve" text-anchor="start" x="195.75" y="-356.5" font-family="Helvetica,sans-Serif" font-size="10.00">nlohmann::detail::binary</text>
<text xml:space="preserve" text-anchor="middle" x="252.75" y="-344.5" font-family="Helvetica,sans-Serif" font-size="10.00">_writer::write_bson_binary</text>
</a>
</g>
</g>
<!-- Node1&#45;&gt;Node15 -->
<g id="edge17" class="edge">
<title>Node1&#45;&gt;Node15</title>
<path fill="none" stroke="#63b8ff" d="M88.9,-270.32C108.9,-287.01 142.04,-312.72 174.25,-329 177.15,-330.47 180.15,-331.87 183.21,-333.21"/>
<polygon fill="#63b8ff" stroke="#63b8ff" points="181.82,-336.42 192.41,-336.96 184.47,-329.94 181.82,-336.42"/>
</g>
<!-- Node17 -->
<g id="node17" class="node">
<title>Node17</title>
<g id="a_node17"><a xlink:href="a02039.html#ae099435e1df3096e0fc78333282f8f67" target="_top" xlink:title="Writes a BSON element with key name and boolean value value.">
<polygon fill="white" stroke="#666666" points="321.5,-420 184,-420 184,-388 321.5,-388 321.5,-420"/>
<text xml:space="preserve" text-anchor="start" x="192" y="-406.5" font-family="Helvetica,sans-Serif" font-size="10.00">nlohmann::detail::binary</text>
<text xml:space="preserve" text-anchor="middle" x="252.75" y="-394.5" font-family="Helvetica,sans-Serif" font-size="10.00">_writer::write_bson_boolean</text>
</a>
</g>
</g>
<!-- Node1&#45;&gt;Node17 -->
<g id="edge20" class="edge">
<title>Node1&#45;&gt;Node17</title>
<path fill="none" stroke="#63b8ff" d="M79.46,-270.33C95.48,-296.93 130.72,-349.59 174.25,-379 176.05,-380.22 177.92,-381.38 179.83,-382.48"/>
<polygon fill="#63b8ff" stroke="#63b8ff" points="177.9,-385.43 188.39,-386.89 181.1,-379.2 177.9,-385.43"/>
</g>
<!-- Node18 -->
<g id="node18" class="node">
<title>Node18</title>
<g id="a_node18"><a xlink:href="a02039.html#a263ec18815467bb9919021ef126919ca" target="_top" xlink:title="Writes a BSON element with key name and double value value.">
<polygon fill="white" stroke="#666666" points="318.88,-270 186.62,-270 186.62,-238 318.88,-238 318.88,-270"/>
<text xml:space="preserve" text-anchor="start" x="194.62" y="-256.5" font-family="Helvetica,sans-Serif" font-size="10.00">nlohmann::detail::binary</text>
<text xml:space="preserve" text-anchor="middle" x="252.75" y="-244.5" font-family="Helvetica,sans-Serif" font-size="10.00">_writer::write_bson_double</text>
</a>
</g>
</g>
<!-- Node1&#45;&gt;Node18 -->
<g id="edge23" class="edge">
<title>Node1&#45;&gt;Node18</title>
<path fill="none" stroke="#63b8ff" d="M138.53,-254C150.42,-254 162.85,-254 174.95,-254"/>
<polygon fill="#63b8ff" stroke="#63b8ff" points="174.9,-257.5 184.9,-254 174.9,-250.5 174.9,-257.5"/>
</g>
<!-- Node19 -->
<g id="node19" class="node">
<title>Node19</title>
<g id="a_node19"><a xlink:href="a02039.html#a553ad4dbdf27238eef90867e4bf2f3e5" target="_top" xlink:title="Writes a BSON element with key name and integer value.">
<polygon fill="white" stroke="#666666" points="319.25,-220 186.25,-220 186.25,-188 319.25,-188 319.25,-220"/>
<text xml:space="preserve" text-anchor="start" x="194.25" y="-206.5" font-family="Helvetica,sans-Serif" font-size="10.00">nlohmann::detail::binary</text>
<text xml:space="preserve" text-anchor="middle" x="252.75" y="-194.5" font-family="Helvetica,sans-Serif" font-size="10.00">_writer::write_bson_integer</text>
</a>
</g>
</g>
<!-- Node1&#45;&gt;Node19 -->
<g id="edge25" class="edge">
<title>Node1&#45;&gt;Node19</title>
<path fill="none" stroke="#63b8ff" d="M129.85,-237.56C146.22,-233.05 164.12,-228.12 181.04,-223.47"/>
<polygon fill="#63b8ff" stroke="#63b8ff" points="181.82,-226.88 190.53,-220.85 179.96,-220.13 181.82,-226.88"/>
</g>
<!-- Node20 -->
<g id="node20" class="node">
<title>Node20</title>
<g id="a_node20"><a xlink:href="a02039.html#a9927c1110b18661e0224a76156e5a7a9" target="_top" xlink:title="Writes a BSON element with key name and null value.">
<polygon fill="white" stroke="#666666" points="312.5,-170 193,-170 193,-138 312.5,-138 312.5,-170"/>
<text xml:space="preserve" text-anchor="start" x="201" y="-156.5" font-family="Helvetica,sans-Serif" font-size="10.00">nlohmann::detail::binary</text>
<text xml:space="preserve" text-anchor="middle" x="252.75" y="-144.5" font-family="Helvetica,sans-Serif" font-size="10.00">_writer::write_bson_null</text>
</a>
</g>
</g>
<!-- Node1&#45;&gt;Node20 -->
<g id="edge27" class="edge">
<title>Node1&#45;&gt;Node20</title>
<path fill="none" stroke="#63b8ff" d="M88.9,-237.68C108.9,-220.99 142.04,-195.28 174.25,-179 177.15,-177.53 180.15,-176.13 183.21,-174.79"/>
<polygon fill="#63b8ff" stroke="#63b8ff" points="184.47,-178.06 192.41,-171.04 181.82,-171.58 184.47,-178.06"/>
</g>
<!-- Node21 -->
<g id="node21" class="node">
<title>Node21</title>
<g id="a_node21"><a xlink:href="a02039.html#a6231302930265eccb3f56c378f7b0661" target="_top" xlink:title="Writes a BSON element with key name and object value.">
<polygon fill="white" stroke="#666666" points="331.25,-120 174.25,-120 174.25,-88 331.25,-88 331.25,-120"/>
<text xml:space="preserve" text-anchor="start" x="182.25" y="-106.5" font-family="Helvetica,sans-Serif" font-size="10.00">nlohmann::detail::binary</text>
<text xml:space="preserve" text-anchor="middle" x="252.75" y="-94.5" font-family="Helvetica,sans-Serif" font-size="10.00">_writer::write_bson_object_entry</text>
</a>
</g>
</g>
<!-- Node1&#45;&gt;Node21 -->
<g id="edge29" class="edge">
<title>Node1&#45;&gt;Node21</title>
<path fill="none" stroke="#63b8ff" d="M79.46,-237.67C95.48,-211.07 130.72,-158.41 174.25,-129 176.05,-127.78 177.92,-126.62 179.83,-125.52"/>
<polygon fill="#63b8ff" stroke="#63b8ff" points="181.1,-128.8 188.39,-121.11 177.9,-122.57 181.1,-128.8"/>
</g>
<!-- Node23 -->
<g id="node23" class="node">
<title>Node23</title>
<g id="a_node23"><a xlink:href="a02039.html#a5e6574416915208fc035b57338ae3252" target="_top" xlink:title="Writes a BSON element with key name and string value value.">
<polygon fill="white" stroke="#666666" points="316.62,-320 188.88,-320 188.88,-288 316.62,-288 316.62,-320"/>
<text xml:space="preserve" text-anchor="start" x="196.88" y="-306.5" font-family="Helvetica,sans-Serif" font-size="10.00">nlohmann::detail::binary</text>
<text xml:space="preserve" text-anchor="middle" x="252.75" y="-294.5" font-family="Helvetica,sans-Serif" font-size="10.00">_writer::write_bson_string</text>
</a>
</g>
</g>
<!-- Node1&#45;&gt;Node23 -->
<g id="edge35" class="edge">
<title>Node1&#45;&gt;Node23</title>
<path fill="none" stroke="#63b8ff" d="M129.85,-270.44C146.22,-274.95 164.12,-279.88 181.04,-284.53"/>
<polygon fill="#63b8ff" stroke="#63b8ff" points="179.96,-287.87 190.53,-287.15 181.82,-281.12 179.96,-287.87"/>
</g>
<!-- Node24 -->
<g id="node24" class="node">
<title>Node24</title>
<g id="a_node24"><a xlink:href="a02039.html#a5e295ed1be6af6260d2a65f7397c3742" target="_top" xlink:title="Writes a BSON element with key name and unsigned value.">
<polygon fill="white" stroke="#666666" points="324.12,-32 181.38,-32 181.38,0 324.12,0 324.12,-32"/>
<text xml:space="preserve" text-anchor="start" x="189.38" y="-18.5" font-family="Helvetica,sans-Serif" font-size="10.00">nlohmann::detail::binary</text>
<text xml:space="preserve" text-anchor="middle" x="252.75" y="-6.5" font-family="Helvetica,sans-Serif" font-size="10.00">_writer::write_bson_unsigned</text>
</a>
</g>
</g>
<!-- Node1&#45;&gt;Node24 -->
<g id="edge37" class="edge">
<title>Node1&#45;&gt;Node24</title>
<path fill="none" stroke="#63b8ff" d="M73.94,-237.75C83.81,-199.14 113.75,-101.02 174.25,-46 177.52,-43.03 181.11,-40.34 184.91,-37.9"/>
<polygon fill="#63b8ff" stroke="#63b8ff" points="186.4,-41.08 193.38,-33.11 182.95,-34.99 186.4,-41.08"/>
</g>
<!-- Node2&#45;&gt;Node1 -->
<g id="edge14" class="edge">
<title>Node2&#45;&gt;Node1</title>
<path fill="none" stroke="#63b8ff" d="M189.56,-447.52C184.1,-444.86 178.89,-441.7 174.25,-438 122.29,-396.58 90.5,-321.65 77.27,-281.18"/>
<polygon fill="#63b8ff" stroke="#63b8ff" points="80.64,-280.23 74.34,-271.72 73.96,-282.3 80.64,-280.23"/>
</g>
<!-- Node3 -->
<g id="node3" class="node">
<title>Node3</title>
<g id="a_node3"><a xlink:href="a02039.html#af08f9302a02516ff8cf358a99aaa1ddf" target="_top" xlink:title=" ">
<polygon fill="white" stroke="#666666" points="520.12,-464 374.38,-464 374.38,-432 520.12,-432 520.12,-464"/>
<text xml:space="preserve" text-anchor="start" x="382.38" y="-450.5" font-family="Helvetica,sans-Serif" font-size="10.00">nlohmann::detail::binary</text>
<text xml:space="preserve" text-anchor="middle" x="447.25" y="-438.5" font-family="Helvetica,sans-Serif" font-size="10.00">_writer::calc_bson_array_size</text>
</a>
</g>
</g>
<!-- Node2&#45;&gt;Node3 -->
<g id="edge2" class="edge">
<title>Node2&#45;&gt;Node3</title>
<path fill="none" stroke="#63b8ff" d="M315.98,-452.06C330.92,-451.59 347.11,-451.09 362.84,-450.6"/>
<polygon fill="#63b8ff" stroke="#63b8ff" points="362.79,-454.1 372.67,-450.29 362.57,-447.11 362.79,-454.1"/>
</g>
<!-- Node13 -->
<g id="node13" class="node">
<title>Node13</title>
<g id="a_node13"><a xlink:href="a02039.html#ab77aa48692bd4e64e4f051ce6aeb6d2d" target="_top" xlink:title=" ">
<polygon fill="white" stroke="#666666" points="702.25,-329 582.75,-329 582.75,-297 702.25,-297 702.25,-329"/>
<text xml:space="preserve" text-anchor="start" x="590.75" y="-315.5" font-family="Helvetica,sans-Serif" font-size="10.00">nlohmann::detail::binary</text>
<text xml:space="preserve" text-anchor="middle" x="642.5" y="-303.5" font-family="Helvetica,sans-Serif" font-size="10.00">_writer::to_char_type</text>
</a>
</g>
</g>
<!-- Node2&#45;&gt;Node13 -->
<g id="edge13" class="edge">
<title>Node2&#45;&gt;Node13</title>
<path fill="none" stroke="#63b8ff" d="M313.7,-437.54C392.67,-415.82 522.2,-380.1 527.25,-378 555.39,-366.3 585.26,-349.11 607.4,-335.36"/>
<polygon fill="#63b8ff" stroke="#63b8ff" points="609.12,-338.41 615.71,-330.11 605.39,-332.49 609.12,-338.41"/>
</g>
<!-- Node14 -->
<g id="node14" class="node">
<title>Node14</title>
<g id="a_node14"><a xlink:href="a02039.html#a1b5b7f5c03b1f8b1f59ea61db9634108" target="_top" xlink:title="Writes the given element_type and name to the output adapter.">
<polygon fill="white" stroke="#666666" points="527.25,-282 367.25,-282 367.25,-250 527.25,-250 527.25,-282"/>
<text xml:space="preserve" text-anchor="start" x="375.25" y="-268.5" font-family="Helvetica,sans-Serif" font-size="10.00">nlohmann::detail::binary</text>
<text xml:space="preserve" text-anchor="middle" x="447.25" y="-256.5" font-family="Helvetica,sans-Serif" font-size="10.00">_writer::write_bson_entry_header</text>
</a>
</g>
</g>
<!-- Node2&#45;&gt;Node14 -->
<g id="edge15" class="edge">
<title>Node2&#45;&gt;Node14</title>
<path fill="none" stroke="#63b8ff" d="M315.95,-440.42C321.61,-437.36 326.86,-433.6 331.25,-429 373.25,-385.03 326.63,-342.25 367.25,-297 370.07,-293.85 373.26,-291.03 376.68,-288.48"/>
<polygon fill="#63b8ff" stroke="#63b8ff" points="378.41,-291.53 384.96,-283.2 374.65,-285.62 378.41,-291.53"/>
</g>
<!-- Node4 -->
<g id="node4" class="node">
<title>Node4</title>
<g id="a_node4"><a xlink:href="a02039.html#a1e4372c5984184eb5bcc09af1fcc2ee0" target="_top" xlink:title="Calculates the size necessary to serialize the JSON value j with its name.">
<polygon fill="white" stroke="#666666" points="721.75,-418 563.25,-418 563.25,-386 721.75,-386 721.75,-418"/>
<text xml:space="preserve" text-anchor="start" x="571.25" y="-404.5" font-family="Helvetica,sans-Serif" font-size="10.00">nlohmann::detail::binary</text>
<text xml:space="preserve" text-anchor="middle" x="642.5" y="-392.5" font-family="Helvetica,sans-Serif" font-size="10.00">_writer::calc_bson_element_size</text>
</a>
</g>
</g>
<!-- Node3&#45;&gt;Node4 -->
<g id="edge3" class="edge">
<title>Node3&#45;&gt;Node4</title>
<path fill="none" stroke="#63b8ff" d="M493.07,-431.53C510.65,-426.63 531.48,-421.36 551.89,-416.6"/>
<polygon fill="#63b8ff" stroke="#63b8ff" points="552.39,-420.07 561.35,-414.42 550.82,-413.25 552.39,-420.07"/>
</g>
<!-- Node4&#45;&gt;Node3 -->
<g id="edge4" class="edge">
<title>Node4&#45;&gt;Node3</title>
<path fill="none" stroke="#63b8ff" d="M596.83,-418.43C577.36,-423.86 553.89,-429.74 531.42,-434.89"/>
<polygon fill="#63b8ff" stroke="#63b8ff" points="530.95,-431.41 521.96,-437.03 532.49,-438.24 530.95,-431.41"/>
</g>
<!-- Node5 -->
<g id="node5" class="node">
<title>Node5</title>
<g id="a_node5"><a xlink:href="a02039.html#a9dd6062fd249a695e0f93d558dba4685" target="_top" xlink:title=" ">
<polygon fill="white" stroke="#666666" points="914.38,-290 764.12,-290 764.12,-258 914.38,-258 914.38,-290"/>
<text xml:space="preserve" text-anchor="start" x="772.12" y="-276.5" font-family="Helvetica,sans-Serif" font-size="10.00">nlohmann::detail::binary</text>
<text xml:space="preserve" text-anchor="middle" x="839.25" y="-264.5" font-family="Helvetica,sans-Serif" font-size="10.00">_writer::calc_bson_binary_size</text>
</a>
</g>
</g>
<!-- Node4&#45;&gt;Node5 -->
<g id="edge5" class="edge">
<title>Node4&#45;&gt;Node5</title>
<path fill="none" stroke="#63b8ff" d="M665.1,-385.66C681.21,-373.16 703.48,-355.21 721.75,-338 738.92,-321.83 737.8,-311.6 757.75,-299 759.86,-297.67 762.05,-296.4 764.29,-295.2"/>
<polygon fill="#63b8ff" stroke="#63b8ff" points="765.57,-298.47 773.07,-290.98 762.54,-292.16 765.57,-298.47"/>
</g>
<!-- Node6 -->
<g id="node6" class="node">
<title>Node6</title>
<g id="a_node6"><a xlink:href="a02039.html#a5bae2f1db2c511b869dffaddf15a1653" target="_top" xlink:title=" ">
<polygon fill="white" stroke="#666666" points="900.5,-452 778,-452 778,-408 900.5,-408 900.5,-452"/>
<text xml:space="preserve" text-anchor="start" x="786" y="-438.5" font-family="Helvetica,sans-Serif" font-size="10.00">nlohmann::detail::binary</text>
<text xml:space="preserve" text-anchor="start" x="786" y="-426.5" font-family="Helvetica,sans-Serif" font-size="10.00">_writer::calc_bson_entry</text>
<text xml:space="preserve" text-anchor="middle" x="839.25" y="-414.5" font-family="Helvetica,sans-Serif" font-size="10.00">_header_size</text>
</a>
</g>
</g>
<!-- Node4&#45;&gt;Node6 -->
<g id="edge6" class="edge">
<title>Node4&#45;&gt;Node6</title>
<path fill="none" stroke="#63b8ff" d="M722.15,-413.31C736.73,-415.4 751.89,-417.58 766.25,-419.65"/>
<polygon fill="#63b8ff" stroke="#63b8ff" points="765.69,-423.1 776.08,-421.06 766.68,-416.17 765.69,-423.1"/>
</g>
<!-- Node9 -->
<g id="node9" class="node">
<title>Node9</title>
<g id="a_node9"><a xlink:href="a02039.html#aeab70c895931b96ea598306b37eca271" target="_top" xlink:title=" ">
<polygon fill="white" stroke="#666666" points="915.88,-502 762.62,-502 762.62,-470 915.88,-470 915.88,-502"/>
<text xml:space="preserve" text-anchor="start" x="770.62" y="-488.5" font-family="Helvetica,sans-Serif" font-size="10.00">nlohmann::detail::binary</text>
<text xml:space="preserve" text-anchor="middle" x="839.25" y="-476.5" font-family="Helvetica,sans-Serif" font-size="10.00">_writer::calc_bson_integer_size</text>
</a>
</g>
</g>
<!-- Node4&#45;&gt;Node9 -->
<g id="edge9" class="edge">
<title>Node4&#45;&gt;Node9</title>
<path fill="none" stroke="#63b8ff" d="M671.95,-418.47C694.67,-431.19 727.59,-448.64 757.75,-461 761.82,-462.67 766.05,-464.29 770.34,-465.85"/>
<polygon fill="#63b8ff" stroke="#63b8ff" points="769.05,-469.11 779.65,-469.11 771.36,-462.5 769.05,-469.11"/>
</g>
<!-- Node10 -->
<g id="node10" class="node">
<title>Node10</title>
<g id="a_node10"><a xlink:href="a02039.html#acc6f1cc1fd370ee84ebc8cf7b8712840" target="_top" xlink:title="Calculates the size of the BSON serialization of the given JSON&#45;object j.">
<polygon fill="white" stroke="#666666" points="914.38,-192 764.12,-192 764.12,-160 914.38,-160 914.38,-192"/>
<text xml:space="preserve" text-anchor="start" x="772.12" y="-178.5" font-family="Helvetica,sans-Serif" font-size="10.00">nlohmann::detail::binary</text>
<text xml:space="preserve" text-anchor="middle" x="839.25" y="-166.5" font-family="Helvetica,sans-Serif" font-size="10.00">_writer::calc_bson_object_size</text>
</a>
</g>
</g>
<!-- Node4&#45;&gt;Node10 -->
<g id="edge10" class="edge">
<title>Node4&#45;&gt;Node10</title>
<path fill="none" stroke="#63b8ff" d="M669.63,-385.66C686.4,-374.08 707.6,-357.22 721.75,-338 747.05,-303.64 733.33,-283.99 757.75,-249 771.05,-229.94 790.19,-212.32 806.47,-199.17"/>
<polygon fill="#63b8ff" stroke="#63b8ff" points="808.27,-202.2 813.98,-193.27 803.95,-196.7 808.27,-202.2"/>
</g>
<!-- Node11 -->
<g id="node11" class="node">
<title>Node11</title>
<g id="a_node11"><a xlink:href="a02039.html#aea44fd97a5cb9b4f175e66e3e4fdf158" target="_top" xlink:title=" ">
<polygon fill="white" stroke="#666666" points="913.25,-390 765.25,-390 765.25,-358 913.25,-358 913.25,-390"/>
<text xml:space="preserve" text-anchor="start" x="773.25" y="-376.5" font-family="Helvetica,sans-Serif" font-size="10.00">nlohmann::detail::binary</text>
<text xml:space="preserve" text-anchor="middle" x="839.25" y="-364.5" font-family="Helvetica,sans-Serif" font-size="10.00">_writer::calc_bson_string_size</text>
</a>
</g>
</g>
<!-- Node4&#45;&gt;Node11 -->
<g id="edge11" class="edge">
<title>Node4&#45;&gt;Node11</title>
<path fill="none" stroke="#63b8ff" d="M722.15,-390.69C732.54,-389.2 743.22,-387.66 753.71,-386.16"/>
<polygon fill="#63b8ff" stroke="#63b8ff" points="754.08,-389.64 763.48,-384.75 753.08,-382.71 754.08,-389.64"/>
</g>
<!-- Node12 -->
<g id="node12" class="node">
<title>Node12</title>
<g id="a_node12"><a xlink:href="a02039.html#aa1d6bb9f3af16f07ce2440c354b5787b" target="_top" xlink:title=" ">
<polygon fill="white" stroke="#666666" points="920.75,-340 757.75,-340 757.75,-308 920.75,-308 920.75,-340"/>
<text xml:space="preserve" text-anchor="start" x="765.75" y="-326.5" font-family="Helvetica,sans-Serif" font-size="10.00">nlohmann::detail::binary</text>
<text xml:space="preserve" text-anchor="middle" x="839.25" y="-314.5" font-family="Helvetica,sans-Serif" font-size="10.00">_writer::calc_bson_unsigned_size</text>
</a>
</g>
</g>
<!-- Node4&#45;&gt;Node12 -->
<g id="edge12" class="edge">
<title>Node4&#45;&gt;Node12</title>
<path fill="none" stroke="#63b8ff" d="M676,-385.51C698.59,-374.4 729.59,-359.85 757.75,-349 762.13,-347.31 766.67,-345.66 771.27,-344.05"/>
<polygon fill="#63b8ff" stroke="#63b8ff" points="772.27,-347.41 780.62,-340.88 770.03,-340.78 772.27,-347.41"/>
</g>
<!-- Node7 -->
<g id="node7" class="node">
<title>Node7</title>
<g id="a_node7"><a xlink:href="a01575.html#a3f6d82a6f967c4728a1ec735a7867073" target="_top" xlink:title=" ">
<polygon fill="white" stroke="#666666" points="1063.5,-250 956.75,-250 956.75,-218 1063.5,-218 1063.5,-250"/>
<text xml:space="preserve" text-anchor="start" x="964.75" y="-236.5" font-family="Helvetica,sans-Serif" font-size="10.00">nlohmann::detail::out</text>
<text xml:space="preserve" text-anchor="middle" x="1010.12" y="-224.5" font-family="Helvetica,sans-Serif" font-size="10.00">_of_range::create</text>
</a>
</g>
</g>
<!-- Node6&#45;&gt;Node7 -->
<g id="edge7" class="edge">
<title>Node6&#45;&gt;Node7</title>
<path fill="none" stroke="#63b8ff" d="M900.6,-412.35C907.86,-408.66 914.8,-404.25 920.75,-399 963.61,-361.15 989.3,-297.38 1001.18,-261.21"/>
<polygon fill="#63b8ff" stroke="#63b8ff" points="1004.43,-262.53 1004.1,-251.94 997.76,-260.43 1004.43,-262.53"/>
</g>
<!-- Node8 -->
<g id="node8" class="node">
<title>Node8</title>
<g id="a_node8"><a xlink:href="a01559.html#abf41a7e9178356314082284e6cfea278" target="_top" xlink:title=" ">
<polygon fill="white" stroke="#666666" points="1234.75,-250 1099.5,-250 1099.5,-218 1234.75,-218 1234.75,-250"/>
<text xml:space="preserve" text-anchor="start" x="1107.5" y="-236.5" font-family="Helvetica,sans-Serif" font-size="10.00">nlohmann::detail::exception</text>
<text xml:space="preserve" text-anchor="middle" x="1167.12" y="-224.5" font-family="Helvetica,sans-Serif" font-size="10.00">::name</text>
</a>
</g>
</g>
<!-- Node7&#45;&gt;Node8 -->
<g id="edge8" class="edge">
<title>Node7&#45;&gt;Node8</title>
<path fill="none" stroke="#63b8ff" d="M1063.6,-234C1071.36,-234 1079.5,-234 1087.65,-234"/>
<polygon fill="#63b8ff" stroke="#63b8ff" points="1087.63,-237.5 1097.63,-234 1087.63,-230.5 1087.63,-237.5"/>
</g>
<!-- Node14&#45;&gt;Node13 -->
<g id="edge16" class="edge">
<title>Node14&#45;&gt;Node13</title>
<path fill="none" stroke="#63b8ff" d="M515.84,-282.44C533.78,-286.8 553.19,-291.52 571.26,-295.92"/>
<polygon fill="#63b8ff" stroke="#63b8ff" points="570.3,-299.29 580.85,-298.25 571.96,-292.48 570.3,-299.29"/>
</g>
<!-- Node15&#45;&gt;Node14 -->
<g id="edge18" class="edge">
<title>Node15&#45;&gt;Node14</title>
<path fill="none" stroke="#63b8ff" d="M313.24,-337.65C319.49,-335.1 325.6,-332.23 331.25,-329 349.83,-318.38 349,-308.19 367.25,-297 373.18,-293.36 379.62,-290.01 386.17,-286.96"/>
<polygon fill="#63b8ff" stroke="#63b8ff" points="387.36,-290.26 395.11,-283.03 384.55,-283.85 387.36,-290.26"/>
</g>
<!-- Node16 -->
<g id="node16" class="node">
<title>Node16</title>
<g id="a_node16"><a xlink:href="a02039.html#a6e11b7227fcecc25a548ed45507b7d1c" target="_top" xlink:title=" ">
<polygon fill="white" stroke="#666666" points="507,-338 387.5,-338 387.5,-306 507,-306 507,-338"/>
<text xml:space="preserve" text-anchor="start" x="395.5" y="-324.5" font-family="Helvetica,sans-Serif" font-size="10.00">nlohmann::detail::binary</text>
<text xml:space="preserve" text-anchor="middle" x="447.25" y="-312.5" font-family="Helvetica,sans-Serif" font-size="10.00">_writer::write_number</text>
</a>
</g>
</g>
<!-- Node15&#45;&gt;Node16 -->
<g id="edge19" class="edge">
<title>Node15&#45;&gt;Node16</title>
<path fill="none" stroke="#63b8ff" d="M318.12,-343.3C336.67,-340.22 357,-336.84 375.9,-333.69"/>
<polygon fill="#63b8ff" stroke="#63b8ff" points="376.35,-337.17 385.65,-332.07 375.21,-330.26 376.35,-337.17"/>
</g>
<!-- Node17&#45;&gt;Node13 -->
<g id="edge21" class="edge">
<title>Node17&#45;&gt;Node13</title>
<path fill="none" stroke="#63b8ff" d="M321.83,-391.46C377.39,-380.83 457.77,-364.55 527.25,-347 544.04,-342.76 562.06,-337.66 578.71,-332.71"/>
<polygon fill="#63b8ff" stroke="#63b8ff" points="579.41,-336.16 587.98,-329.93 577.39,-329.46 579.41,-336.16"/>
</g>
<!-- Node17&#45;&gt;Node14 -->
<g id="edge22" class="edge">
<title>Node17&#45;&gt;Node14</title>
<path fill="none" stroke="#63b8ff" d="M319.09,-387.69C323.46,-385.19 327.58,-382.32 331.25,-379 360.79,-352.32 338.55,-324.58 367.25,-297 370.72,-293.67 374.58,-290.68 378.69,-288.01"/>
<polygon fill="#63b8ff" stroke="#63b8ff" points="380.38,-291.08 387.32,-283.07 376.9,-285 380.38,-291.08"/>
</g>
<!-- Node18&#45;&gt;Node14 -->
<g id="edge24" class="edge">
<title>Node18&#45;&gt;Node14</title>
<path fill="none" stroke="#63b8ff" d="M319.19,-258.08C330.96,-258.81 343.41,-259.59 355.74,-260.36"/>
<polygon fill="#63b8ff" stroke="#63b8ff" points="355.29,-263.84 365.49,-260.97 355.73,-256.85 355.29,-263.84"/>
</g>
<!-- Node19&#45;&gt;Node14 -->
<g id="edge26" class="edge">
<title>Node19&#45;&gt;Node14</title>
<path fill="none" stroke="#63b8ff" d="M304.83,-220.45C329.29,-228.33 358.79,-237.83 384.5,-246.11"/>
<polygon fill="#63b8ff" stroke="#63b8ff" points="383.23,-249.38 393.82,-249.11 385.38,-242.72 383.23,-249.38"/>
</g>
<!-- Node20&#45;&gt;Node14 -->
<g id="edge28" class="edge">
<title>Node20&#45;&gt;Node14</title>
<path fill="none" stroke="#63b8ff" d="M312.18,-170.49C318.74,-173.03 325.23,-175.87 331.25,-179 364.43,-196.27 398.05,-223.02 420.3,-242.29"/>
<polygon fill="#63b8ff" stroke="#63b8ff" points="417.86,-244.81 427.68,-248.79 422.49,-239.56 417.86,-244.81"/>
</g>
<!-- Node21&#45;&gt;Node14 -->
<g id="edge30" class="edge">
<title>Node21&#45;&gt;Node14</title>
<path fill="none" stroke="#63b8ff" d="M315.75,-120.43C321.18,-122.92 326.44,-125.76 331.25,-129 354.27,-144.49 401.19,-205.11 427.42,-240.31"/>
<polygon fill="#63b8ff" stroke="#63b8ff" points="424.57,-242.33 433.34,-248.29 430.19,-238.17 424.57,-242.33"/>
</g>
<!-- Node22 -->
<g id="node22" class="node">
<title>Node22</title>
<g id="a_node22"><a xlink:href="a02039.html#a29b3e0f83a8e5f2307804023109ba2c9" target="_top" xlink:title=" ">
<polygon fill="white" stroke="#666666" points="512.25,-155 382.25,-155 382.25,-123 512.25,-123 512.25,-155"/>
<text xml:space="preserve" text-anchor="start" x="390.25" y="-141.5" font-family="Helvetica,sans-Serif" font-size="10.00">nlohmann::detail::binary</text>
<text xml:space="preserve" text-anchor="middle" x="447.25" y="-129.5" font-family="Helvetica,sans-Serif" font-size="10.00">_writer::write_bson_object</text>
</a>
</g>
</g>
<!-- Node21&#45;&gt;Node22 -->
<g id="edge31" class="edge">
<title>Node21&#45;&gt;Node22</title>
<path fill="none" stroke="#63b8ff" d="M331.49,-118.13C344.41,-120.48 357.78,-122.91 370.64,-125.25"/>
<polygon fill="#63b8ff" stroke="#63b8ff" points="369.83,-128.66 380.29,-127.01 371.08,-121.78 369.83,-128.66"/>
</g>
<!-- Node22&#45;&gt;Node1 -->
<g id="edge34" class="edge">
<title>Node22&#45;&gt;Node1</title>
<path fill="none" stroke="#63b8ff" d="M421.63,-122.7C371.72,-91.9 256.43,-32.27 174.25,-79 118.31,-110.81 89.28,-185.86 77.17,-226.58"/>
<polygon fill="#63b8ff" stroke="#63b8ff" points="73.83,-225.53 74.48,-236.1 80.57,-227.43 73.83,-225.53"/>
</g>
<!-- Node22&#45;&gt;Node10 -->
<g id="edge32" class="edge">
<title>Node22&#45;&gt;Node10</title>
<path fill="none" stroke="#63b8ff" d="M512.65,-145.11C578.16,-151.32 680.07,-160.99 752.41,-167.86"/>
<polygon fill="#63b8ff" stroke="#63b8ff" points="751.96,-171.33 762.25,-168.79 752.62,-164.36 751.96,-171.33"/>
</g>
<!-- Node22&#45;&gt;Node13 -->
<g id="edge33" class="edge">
<title>Node22&#45;&gt;Node13</title>
<path fill="none" stroke="#63b8ff" d="M466.43,-155.37C500.67,-186.2 574.87,-253 614.79,-288.95"/>
<polygon fill="#63b8ff" stroke="#63b8ff" points="612.33,-291.44 622.1,-295.53 617.01,-286.24 612.33,-291.44"/>
</g>
<!-- Node23&#45;&gt;Node14 -->
<g id="edge36" class="edge">
<title>Node23&#45;&gt;Node14</title>
<path fill="none" stroke="#63b8ff" d="M317.05,-291.5C329.46,-289.05 342.71,-286.44 355.81,-283.85"/>
<polygon fill="#63b8ff" stroke="#63b8ff" points="356.14,-287.36 365.27,-281.98 354.78,-280.49 356.14,-287.36"/>
</g>
<!-- Node24&#45;&gt;Node7 -->
<g id="edge38" class="edge">
<title>Node24&#45;&gt;Node7</title>
<path fill="none" stroke="#63b8ff" d="M324.62,-17.77C451.22,-23.57 721.58,-48.1 920.75,-151 948.07,-165.11 972.99,-190.15 989.35,-209.05"/>
<polygon fill="#63b8ff" stroke="#63b8ff" points="986.58,-211.19 995.69,-216.59 991.94,-206.69 986.58,-211.19"/>
</g>
<!-- Node24&#45;&gt;Node14 -->
<g id="edge39" class="edge">
<title>Node24&#45;&gt;Node14</title>
<path fill="none" stroke="#63b8ff" d="M279.9,-32.38C296.4,-43.79 317.19,-60.29 331.25,-79 355.9,-111.8 346.52,-128.6 367.25,-164 383.74,-192.16 407.05,-221.3 424.07,-241.19"/>
<polygon fill="#63b8ff" stroke="#63b8ff" points="421.21,-243.24 430.41,-248.5 426.5,-238.65 421.21,-243.24"/>
</g>
</g>
</svg>
