<?xml version="1.0" encoding="UTF-8" standalone="no"?>
<!DOCTYPE svg PUBLIC "-//W3C//DTD SVG 1.1//EN"
 "http://www.w3.org/Graphics/SVG/1.1/DTD/svg11.dtd">
<!-- Generated by graphviz version 13.1.2 (20250808.2320)
 -->
<!-- Title: nlohmann::detail::binary_writer::write_bson_unsigned Pages: 1 -->
<svg width="831pt" height="134pt"
 viewBox="0.00 0.00 831.00 134.00" xmlns="http://www.w3.org/2000/svg" xmlns:xlink="http://www.w3.org/1999/xlink">
<g id="graph0" class="graph" transform="scale(1 1) rotate(0) translate(4 130)">
<title>nlohmann::detail::binary_writer::write_bson_unsigned</title>
<!-- Node1 -->
<g id="node1" class="node">
<title>Node1</title>
<g id="a_node1"><a xlink:title="Writes a BSON element with key name and unsigned value.">
<polygon fill="#999999" stroke="#666666" points="822.5,-101 679.75,-101 679.75,-69 822.5,-69 822.5,-101"/>
<text xml:space="preserve" text-anchor="start" x="687.75" y="-87.5" font-family="Helvetica,sans-Serif" font-size="10.00">nlohmann::detail::binary</text>
<text xml:space="preserve" text-anchor="middle" x="751.12" y="-75.5" font-family="Helvetica,sans-Serif" font-size="10.00">_writer::write_bson_unsigned</text>
</a>
</g>
</g>
<!-- Node2 -->
<g id="node2" class="node">
<title>Node2</title>
<g id="a_node2"><a xlink:href="a02039.html#a7ff58bf1a80018148bed860667ffca07" target="_top" xlink:title="Serializes the JSON value j to BSON and associates it with the key name.">
<polygon fill="white" stroke="#666666" points="643.75,-101 505.5,-101 505.5,-69 643.75,-69 643.75,-101"/>
<text xml:space="preserve" text-anchor="start" x="513.5" y="-87.5" font-family="Helvetica,sans-Serif" font-size="10.00">nlohmann::detail::binary</text>
<text xml:space="preserve" text-anchor="middle" x="574.62" y="-75.5" font-family="Helvetica,sans-Serif" font-size="10.00">_writer::write_bson_element</text>
</a>
</g>
</g>
<!-- Node1&#45;&gt;Node2 -->
<g id="edge1" class="edge">
<title>Node1&#45;&gt;Node2</title>
<path fill="none" stroke="#63b8ff" d="M668.14,-85C660.12,-85 652.05,-85 644.19,-85"/>
<polygon fill="#63b8ff" stroke="#63b8ff" points="667.89,-88.5 677.89,-85 667.89,-81.5 667.89,-88.5"/>
</g>
<!-- Node3 -->
<g id="node3" class="node">
<title>Node3</title>
<g id="a_node3"><a xlink:href="a02039.html#a025212bd170253638b9f05b3b6aa5bf9" target="_top" xlink:title="Writes a BSON element with key name and array value.">
<polygon fill="white" stroke="#666666" points="467.25,-126 341.75,-126 341.75,-94 467.25,-94 467.25,-126"/>
<text xml:space="preserve" text-anchor="start" x="349.75" y="-112.5" font-family="Helvetica,sans-Serif" font-size="10.00">nlohmann::detail::binary</text>
<text xml:space="preserve" text-anchor="middle" x="404.5" y="-100.5" font-family="Helvetica,sans-Serif" font-size="10.00">_writer::write_bson_array</text>
</a>
</g>
</g>
<!-- Node2&#45;&gt;Node3 -->
<g id="edge2" class="edge">
<title>Node2&#45;&gt;Node3</title>
<path fill="none" stroke="#63b8ff" d="M494.05,-90.09C485.17,-91.38 476.22,-92.78 467.6,-94.23"/>
<polygon fill="#63b8ff" stroke="#63b8ff" points="494.33,-93.59 503.74,-88.73 493.35,-86.65 494.33,-93.59"/>
</g>
<!-- Node4 -->
<g id="node4" class="node">
<title>Node4</title>
<g id="a_node4"><a xlink:href="a02039.html#a29b3e0f83a8e5f2307804023109ba2c9" target="_top" xlink:title=" ">
<polygon fill="white" stroke="#666666" points="469.5,-76 339.5,-76 339.5,-44 469.5,-44 469.5,-76"/>
<text xml:space="preserve" text-anchor="start" x="347.5" y="-62.5" font-family="Helvetica,sans-Serif" font-size="10.00">nlohmann::detail::binary</text>
<text xml:space="preserve" text-anchor="middle" x="404.5" y="-50.5" font-family="Helvetica,sans-Serif" font-size="10.00">_writer::write_bson_object</text>
</a>
</g>
</g>
<!-- Node2&#45;&gt;Node4 -->
<g id="edge4" class="edge">
<title>Node2&#45;&gt;Node4</title>
<path fill="none" stroke="#63b8ff" d="M493.87,-73.14C485.79,-71.94 477.64,-70.73 469.75,-69.55"/>
<polygon fill="#63b8ff" stroke="#63b8ff" points="493.34,-76.6 503.75,-74.61 494.37,-69.68 493.34,-76.6"/>
</g>
<!-- Node3&#45;&gt;Node2 -->
<g id="edge3" class="edge">
<title>Node3&#45;&gt;Node2</title>
<path fill="none" stroke="#63b8ff" d="M478.96,-105.78C488.35,-104.47 497.91,-103.02 507.18,-101.5"/>
<polygon fill="#63b8ff" stroke="#63b8ff" points="478.58,-102.3 469.13,-107.1 479.51,-109.24 478.58,-102.3"/>
</g>
<!-- Node5 -->
<g id="node5" class="node">
<title>Node5</title>
<g id="a_node5"><a xlink:href="a02039.html#a9ffc566db5219b473762462234b47db9" target="_top" xlink:title=" ">
<polygon fill="white" stroke="#666666" points="284.75,-82 165.25,-82 165.25,-50 284.75,-50 284.75,-82"/>
<text xml:space="preserve" text-anchor="start" x="173.25" y="-68.5" font-family="Helvetica,sans-Serif" font-size="10.00">nlohmann::detail::binary</text>
<text xml:space="preserve" text-anchor="middle" x="225" y="-56.5" font-family="Helvetica,sans-Serif" font-size="10.00">_writer::write_bson</text>
</a>
</g>
</g>
<!-- Node4&#45;&gt;Node5 -->
<g id="edge5" class="edge">
<title>Node4&#45;&gt;Node5</title>
<path fill="none" stroke="#63b8ff" d="M327.83,-62.56C313.54,-63.04 298.79,-63.54 285.1,-64"/>
<polygon fill="#63b8ff" stroke="#63b8ff" points="327.78,-66.06 337.65,-62.23 327.54,-59.07 327.78,-66.06"/>
</g>
<!-- Node7 -->
<g id="node7" class="node">
<title>Node7</title>
<g id="a_node7"><a xlink:href="a02039.html#a6231302930265eccb3f56c378f7b0661" target="_top" xlink:title="Writes a BSON element with key name and object value.">
<polygon fill="white" stroke="#666666" points="303.5,-32 146.5,-32 146.5,0 303.5,0 303.5,-32"/>
<text xml:space="preserve" text-anchor="start" x="154.5" y="-18.5" font-family="Helvetica,sans-Serif" font-size="10.00">nlohmann::detail::binary</text>
<text xml:space="preserve" text-anchor="middle" x="225" y="-6.5" font-family="Helvetica,sans-Serif" font-size="10.00">_writer::write_bson_object_entry</text>
</a>
</g>
</g>
<!-- Node4&#45;&gt;Node7 -->
<g id="edge7" class="edge">
<title>Node4&#45;&gt;Node7</title>
<path fill="none" stroke="#63b8ff" d="M328.35,-41.37C316.44,-38.42 304.19,-35.38 292.5,-32.48"/>
<polygon fill="#63b8ff" stroke="#63b8ff" points="327.15,-44.68 337.7,-43.69 328.83,-37.89 327.15,-44.68"/>
</g>
<!-- Node6 -->
<g id="node6" class="node">
<title>Node6</title>
<g id="a_node6"><a xlink:href="a01659.html#a668e4c2ad9808218a25879700f4aef2b" target="_top" xlink:title="Serializes the given JSON object j to BSON and forwards the corresponding BSON&#45;representation to the ...">
<polygon fill="white" stroke="#666666" points="110.5,-82 0,-82 0,-50 110.5,-50 110.5,-82"/>
<text xml:space="preserve" text-anchor="start" x="8" y="-68.5" font-family="Helvetica,sans-Serif" font-size="10.00">nlohmann::basic_json</text>
<text xml:space="preserve" text-anchor="middle" x="55.25" y="-56.5" font-family="Helvetica,sans-Serif" font-size="10.00">::to_bson</text>
</a>
</g>
</g>
<!-- Node5&#45;&gt;Node6 -->
<g id="edge6" class="edge">
<title>Node5&#45;&gt;Node6</title>
<path fill="none" stroke="#63b8ff" d="M153.58,-66C139.33,-66 124.54,-66 110.93,-66"/>
<polygon fill="#63b8ff" stroke="#63b8ff" points="153.34,-69.5 163.34,-66 153.34,-62.5 153.34,-69.5"/>
</g>
<!-- Node7&#45;&gt;Node2 -->
<g id="edge8" class="edge">
<title>Node7&#45;&gt;Node2</title>
<path fill="none" stroke="#63b8ff" d="M315.04,-15.12C361.73,-16.6 419.47,-21.54 469.5,-35 497.19,-42.45 526.44,-57.18 546.86,-68.73"/>
<polygon fill="#63b8ff" stroke="#63b8ff" points="315.33,-11.62 305.24,-14.86 315.14,-18.62 315.33,-11.62"/>
</g>
</g>
</svg>
