<?xml version="1.0" encoding="UTF-8" standalone="no"?>
<!DOCTYPE svg PUBLIC "-//W3C//DTD SVG 1.1//EN"
 "http://www.w3.org/Graphics/SVG/1.1/DTD/svg11.dtd">
<!-- Generated by graphviz version 13.1.2 (20250808.2320)
 -->
<!-- Title: nlohmann::detail::primitive_iterator_t::set_end Pages: 1 -->
<svg width="921pt" height="875pt"
 viewBox="0.00 0.00 921.00 875.00" xmlns="http://www.w3.org/2000/svg" xmlns:xlink="http://www.w3.org/1999/xlink">
<g id="graph0" class="graph" transform="scale(1 1) rotate(0) translate(4 871)">
<title>nlohmann::detail::primitive_iterator_t::set_end</title>
<!-- Node1 -->
<g id="node1" class="node">
<title>Node1</title>
<g id="a_node1"><a xlink:title="set iterator to a defined past the end">
<polygon fill="#999999" stroke="#666666" points="912.75,-455 782.75,-455 782.75,-423 912.75,-423 912.75,-455"/>
<text xml:space="preserve" text-anchor="start" x="790.75" y="-441.5" font-family="Helvetica,sans-Serif" font-size="10.00">nlohmann::detail::primitive</text>
<text xml:space="preserve" text-anchor="middle" x="847.75" y="-429.5" font-family="Helvetica,sans-Serif" font-size="10.00">_iterator_t::set_end</text>
</a>
</g>
</g>
<!-- Node2 -->
<g id="node2" class="node">
<title>Node2</title>
<g id="a_node2"><a xlink:href="a02011.html#a5d5f92c7f6848814bc82cf7e4e541820" target="_top" xlink:title="set the iterator to the first value">
<polygon fill="white" stroke="#666666" points="591.25,-477 484.5,-477 484.5,-445 591.25,-445 591.25,-477"/>
<text xml:space="preserve" text-anchor="start" x="492.5" y="-463.5" font-family="Helvetica,sans-Serif" font-size="10.00">nlohmann::detail::iter</text>
<text xml:space="preserve" text-anchor="middle" x="537.88" y="-451.5" font-family="Helvetica,sans-Serif" font-size="10.00">_impl::set_begin</text>
</a>
</g>
</g>
<!-- Node1&#45;&gt;Node2 -->
<g id="edge1" class="edge">
<title>Node1&#45;&gt;Node2</title>
<path fill="none" stroke="#63b8ff" d="M771.35,-444.39C715.64,-448.37 641.17,-453.69 591.7,-457.23"/>
<polygon fill="#63b8ff" stroke="#63b8ff" points="771.35,-447.9 781.07,-443.69 770.85,-440.91 771.35,-447.9"/>
</g>
<!-- Node16 -->
<g id="node16" class="node">
<title>Node16</title>
<g id="a_node16"><a xlink:href="a02011.html#a23e50ad4c13aa62d9ac7f60a123823ee" target="_top" xlink:title="set the iterator past the last value">
<polygon fill="white" stroke="#666666" points="746.75,-433 640,-433 640,-401 746.75,-401 746.75,-433"/>
<text xml:space="preserve" text-anchor="start" x="648" y="-419.5" font-family="Helvetica,sans-Serif" font-size="10.00">nlohmann::detail::iter</text>
<text xml:space="preserve" text-anchor="middle" x="693.38" y="-407.5" font-family="Helvetica,sans-Serif" font-size="10.00">_impl::set_end</text>
</a>
</g>
</g>
<!-- Node1&#45;&gt;Node16 -->
<g id="edge18" class="edge">
<title>Node1&#45;&gt;Node16</title>
<path fill="none" stroke="#63b8ff" d="M771.36,-428.11C763.1,-426.92 754.83,-425.73 746.94,-424.59"/>
<polygon fill="#63b8ff" stroke="#63b8ff" points="770.68,-431.55 781.07,-429.52 771.68,-424.62 770.68,-431.55"/>
</g>
<!-- Node3 -->
<g id="node3" class="node">
<title>Node3</title>
<g id="a_node3"><a xlink:href="a01659.html#a23b495b4c282e4afacf382f5b49af7c7" target="_top" xlink:title="returns an iterator to the first element">
<polygon fill="white" stroke="#666666" points="435.75,-361 325.25,-361 325.25,-329 435.75,-329 435.75,-361"/>
<text xml:space="preserve" text-anchor="start" x="333.25" y="-347.5" font-family="Helvetica,sans-Serif" font-size="10.00">nlohmann::basic_json</text>
<text xml:space="preserve" text-anchor="middle" x="380.5" y="-335.5" font-family="Helvetica,sans-Serif" font-size="10.00">::begin</text>
</a>
</g>
</g>
<!-- Node2&#45;&gt;Node3 -->
<g id="edge2" class="edge">
<title>Node2&#45;&gt;Node3</title>
<path fill="none" stroke="#63b8ff" d="M506.05,-437.99C475.7,-415.33 430.1,-381.29 403.32,-361.29"/>
<polygon fill="#63b8ff" stroke="#63b8ff" points="503.62,-440.54 513.73,-443.72 507.81,-434.93 503.62,-440.54"/>
</g>
<!-- Node10 -->
<g id="node10" class="node">
<title>Node10</title>
<g id="a_node10"><a xlink:href="a01659.html#ae508c13e3ad6ce445bcaf24a2bc7d039" target="_top" xlink:title="returns a const iterator to the first element">
<polygon fill="white" stroke="#666666" points="435.75,-742 325.25,-742 325.25,-710 435.75,-710 435.75,-742"/>
<text xml:space="preserve" text-anchor="start" x="333.25" y="-728.5" font-family="Helvetica,sans-Serif" font-size="10.00">nlohmann::basic_json</text>
<text xml:space="preserve" text-anchor="middle" x="380.5" y="-716.5" font-family="Helvetica,sans-Serif" font-size="10.00">::cbegin</text>
</a>
</g>
</g>
<!-- Node2&#45;&gt;Node10 -->
<g id="edge11" class="edge">
<title>Node2&#45;&gt;Node10</title>
<path fill="none" stroke="#63b8ff" d="M521.59,-487.06C489.76,-541.35 417.15,-665.2 391.06,-709.7"/>
<polygon fill="#63b8ff" stroke="#63b8ff" points="524.59,-488.88 526.62,-478.48 518.55,-485.34 524.59,-488.88"/>
</g>
<!-- Node4 -->
<g id="node4" class="node">
<title>Node4</title>
<g id="a_node4"><a xlink:href="a01659.html#a1c1f21327df91a4dd6c5f5a107240385" target="_top" xlink:title="creates a diff as a JSON patch">
<polygon fill="white" stroke="#666666" points="278.38,-649 167.88,-649 167.88,-617 278.38,-617 278.38,-649"/>
<text xml:space="preserve" text-anchor="start" x="175.88" y="-635.5" font-family="Helvetica,sans-Serif" font-size="10.00">nlohmann::basic_json</text>
<text xml:space="preserve" text-anchor="middle" x="223.12" y="-623.5" font-family="Helvetica,sans-Serif" font-size="10.00">::diff</text>
</a>
</g>
</g>
<!-- Node3&#45;&gt;Node4 -->
<g id="edge3" class="edge">
<title>Node3&#45;&gt;Node4</title>
<path fill="none" stroke="#63b8ff" d="M370.6,-371.91C348.68,-438.05 293.54,-603.55 289.25,-608 286.05,-611.31 282.37,-614.19 278.42,-616.69"/>
<polygon fill="#63b8ff" stroke="#63b8ff" points="373.87,-373.15 373.7,-362.56 367.23,-370.95 373.87,-373.15"/>
</g>
<!-- Node5 -->
<g id="node5" class="node">
<title>Node5</title>
<g id="a_node5"><a xlink:href="a01659.html#af244c096197a233edba4c83200ae66ac" target="_top" xlink:title="add an object to an object if key does not exist">
<polygon fill="white" stroke="#666666" points="278.38,-411 167.88,-411 167.88,-379 278.38,-379 278.38,-411"/>
<text xml:space="preserve" text-anchor="start" x="175.88" y="-397.5" font-family="Helvetica,sans-Serif" font-size="10.00">nlohmann::basic_json</text>
<text xml:space="preserve" text-anchor="middle" x="223.12" y="-385.5" font-family="Helvetica,sans-Serif" font-size="10.00">::emplace</text>
</a>
</g>
</g>
<!-- Node3&#45;&gt;Node5 -->
<g id="edge5" class="edge">
<title>Node3&#45;&gt;Node5</title>
<path fill="none" stroke="#63b8ff" d="M318,-364.79C303.88,-369.33 289.02,-374.12 275.38,-378.51"/>
<polygon fill="#63b8ff" stroke="#63b8ff" points="318.74,-368.23 327.18,-361.84 316.59,-361.57 318.74,-368.23"/>
</g>
<!-- Node6 -->
<g id="node6" class="node">
<title>Node6</title>
<g id="a_node6"><a xlink:href="a01659.html#a5417ca43ae5e7a3a2f82eee2d915c6ed" target="_top" xlink:title="access the first element">
<polygon fill="white" stroke="#666666" points="278.38,-361 167.88,-361 167.88,-329 278.38,-329 278.38,-361"/>
<text xml:space="preserve" text-anchor="start" x="175.88" y="-347.5" font-family="Helvetica,sans-Serif" font-size="10.00">nlohmann::basic_json</text>
<text xml:space="preserve" text-anchor="middle" x="223.12" y="-335.5" font-family="Helvetica,sans-Serif" font-size="10.00">::front</text>
</a>
</g>
</g>
<!-- Node3&#45;&gt;Node6 -->
<g id="edge6" class="edge">
<title>Node3&#45;&gt;Node6</title>
<path fill="none" stroke="#63b8ff" d="M313.67,-345C302.01,-345 290,-345 278.7,-345"/>
<polygon fill="#63b8ff" stroke="#63b8ff" points="313.64,-348.5 323.64,-345 313.64,-341.5 313.64,-348.5"/>
</g>
<!-- Node7 -->
<g id="node7" class="node">
<title>Node7</title>
<g id="a_node7"><a xlink:href="a01659.html#a844a77cb154752d12118f10af26d54cb" target="_top" xlink:title="applies a JSON Merge Patch">
<polygon fill="white" stroke="#666666" points="278.38,-243 167.88,-243 167.88,-211 278.38,-211 278.38,-243"/>
<text xml:space="preserve" text-anchor="start" x="175.88" y="-229.5" font-family="Helvetica,sans-Serif" font-size="10.00">nlohmann::basic_json</text>
<text xml:space="preserve" text-anchor="middle" x="223.12" y="-217.5" font-family="Helvetica,sans-Serif" font-size="10.00">::merge_patch</text>
</a>
</g>
</g>
<!-- Node3&#45;&gt;Node7 -->
<g id="edge7" class="edge">
<title>Node3&#45;&gt;Node7</title>
<path fill="none" stroke="#63b8ff" d="M351.01,-321.39C342.7,-314.5 333.61,-306.95 325.25,-300 309.23,-286.68 305.97,-282.42 289.25,-270 276.74,-260.71 262.33,-251.08 250.25,-243.31"/>
<polygon fill="#63b8ff" stroke="#63b8ff" points="348.55,-323.9 358.49,-327.59 353.02,-318.51 348.55,-323.9"/>
</g>
<!-- Node8 -->
<g id="node8" class="node">
<title>Node8</title>
<g id="a_node8"><a xlink:href="a01659.html#adcc786998f220a5b3083ee8a37c4553e" target="_top" xlink:title="applies a JSON patch">
<polygon fill="white" stroke="#666666" points="278.38,-193 167.88,-193 167.88,-161 278.38,-161 278.38,-193"/>
<text xml:space="preserve" text-anchor="start" x="175.88" y="-179.5" font-family="Helvetica,sans-Serif" font-size="10.00">nlohmann::basic_json</text>
<text xml:space="preserve" text-anchor="middle" x="223.12" y="-167.5" font-family="Helvetica,sans-Serif" font-size="10.00">::patch</text>
</a>
</g>
</g>
<!-- Node3&#45;&gt;Node8 -->
<g id="edge9" class="edge">
<title>Node3&#45;&gt;Node8</title>
<path fill="none" stroke="#63b8ff" d="M360.73,-319.43C349.96,-304.42 336.4,-284.92 325.25,-267 307.8,-238.96 314.17,-223.67 289.25,-202 285.5,-198.74 281.29,-195.89 276.85,-193.39"/>
<polygon fill="#63b8ff" stroke="#63b8ff" points="357.78,-321.31 366.47,-327.37 363.45,-317.21 357.78,-321.31"/>
</g>
<!-- Node9 -->
<g id="node9" class="node">
<title>Node9</title>
<g id="a_node9"><a xlink:href="a01659.html#a7a328b29b290cc300345376c54f618cb" target="_top" xlink:title="returns an iterator to the reverse&#45;end">
<polygon fill="white" stroke="#666666" points="278.38,-311 167.88,-311 167.88,-279 278.38,-279 278.38,-311"/>
<text xml:space="preserve" text-anchor="start" x="175.88" y="-297.5" font-family="Helvetica,sans-Serif" font-size="10.00">nlohmann::basic_json</text>
<text xml:space="preserve" text-anchor="middle" x="223.12" y="-285.5" font-family="Helvetica,sans-Serif" font-size="10.00">::rend</text>
</a>
</g>
</g>
<!-- Node3&#45;&gt;Node9 -->
<g id="edge10" class="edge">
<title>Node3&#45;&gt;Node9</title>
<path fill="none" stroke="#63b8ff" d="M318,-325.21C303.88,-320.67 289.02,-315.88 275.38,-311.49"/>
<polygon fill="#63b8ff" stroke="#63b8ff" points="316.59,-328.43 327.18,-328.16 318.74,-321.77 316.59,-328.43"/>
</g>
<!-- Node4&#45;&gt;Node4 -->
<g id="edge4" class="edge">
<title>Node4&#45;&gt;Node4</title>
<path fill="none" stroke="#63b8ff" d="M249.35,-660.71C244.98,-664.48 236.24,-667 223.12,-667 199.15,-667 189.78,-658.58 195.03,-649.44"/>
<polygon fill="#63b8ff" stroke="#63b8ff" points="252.79,-661.37 250.97,-650.94 245.88,-660.23 252.79,-661.37"/>
</g>
<!-- Node7&#45;&gt;Node7 -->
<g id="edge8" class="edge">
<title>Node7&#45;&gt;Node7</title>
<path fill="none" stroke="#63b8ff" d="M249.35,-254.71C244.98,-258.48 236.24,-261 223.12,-261 199.15,-261 189.78,-252.58 195.03,-243.44"/>
<polygon fill="#63b8ff" stroke="#63b8ff" points="252.79,-255.37 250.97,-244.94 245.88,-254.23 252.79,-255.37"/>
</g>
<!-- Node10&#45;&gt;Node4 -->
<g id="edge15" class="edge">
<title>Node10&#45;&gt;Node4</title>
<path fill="none" stroke="#63b8ff" d="M342.27,-703.72C314.34,-687 276.74,-664.5 251.53,-649.4"/>
<polygon fill="#63b8ff" stroke="#63b8ff" points="340.4,-706.68 350.78,-708.81 344,-700.67 340.4,-706.68"/>
</g>
<!-- Node11 -->
<g id="node11" class="node">
<title>Node11</title>
<g id="a_node11"><a xlink:href="a01659.html#a4f147be16fcde9f510c4aac89ab511c9" target="_top" xlink:title="returns a const iterator to the first element">
<polygon fill="white" stroke="#666666" points="278.38,-867 167.88,-867 167.88,-835 278.38,-835 278.38,-867"/>
<text xml:space="preserve" text-anchor="start" x="175.88" y="-853.5" font-family="Helvetica,sans-Serif" font-size="10.00">nlohmann::basic_json</text>
<text xml:space="preserve" text-anchor="middle" x="223.12" y="-841.5" font-family="Helvetica,sans-Serif" font-size="10.00">::begin</text>
</a>
</g>
</g>
<!-- Node10&#45;&gt;Node11 -->
<g id="edge12" class="edge">
<title>Node10&#45;&gt;Node11</title>
<path fill="none" stroke="#63b8ff" d="M361.85,-751.57C345.33,-773.86 318.81,-805.71 289.25,-826 284.56,-829.22 279.39,-832.1 274.09,-834.66"/>
<polygon fill="#63b8ff" stroke="#63b8ff" points="364.6,-753.75 367.62,-743.6 358.92,-749.65 364.6,-753.75"/>
</g>
<!-- Node12 -->
<g id="node12" class="node">
<title>Node12</title>
<g id="a_node12"><a xlink:href="a01659.html#a223480466a0922267d680ec8f0722d58" target="_top" xlink:title="returns a const reverse iterator to one before the first">
<polygon fill="white" stroke="#666666" points="278.38,-817 167.88,-817 167.88,-785 278.38,-785 278.38,-817"/>
<text xml:space="preserve" text-anchor="start" x="175.88" y="-803.5" font-family="Helvetica,sans-Serif" font-size="10.00">nlohmann::basic_json</text>
<text xml:space="preserve" text-anchor="middle" x="223.12" y="-791.5" font-family="Helvetica,sans-Serif" font-size="10.00">::crend</text>
</a>
</g>
</g>
<!-- Node10&#45;&gt;Node12 -->
<g id="edge13" class="edge">
<title>Node10&#45;&gt;Node12</title>
<path fill="none" stroke="#63b8ff" d="M342.77,-747.87C326.62,-757.09 307.27,-767.6 289.25,-776 282.88,-778.97 276.06,-781.87 269.31,-784.59"/>
<polygon fill="#63b8ff" stroke="#63b8ff" points="344.15,-751.12 351.06,-743.09 340.65,-745.06 344.15,-751.12"/>
</g>
<!-- Node14 -->
<g id="node14" class="node">
<title>Node14</title>
<g id="a_node14"><a xlink:href="a01659.html#a5ac8f974c178cf9326b6765e22f50eb6" target="_top" xlink:title="access the first element">
<polygon fill="white" stroke="#666666" points="278.38,-767 167.88,-767 167.88,-735 278.38,-735 278.38,-767"/>
<text xml:space="preserve" text-anchor="start" x="175.88" y="-753.5" font-family="Helvetica,sans-Serif" font-size="10.00">nlohmann::basic_json</text>
<text xml:space="preserve" text-anchor="middle" x="223.12" y="-741.5" font-family="Helvetica,sans-Serif" font-size="10.00">::front</text>
</a>
</g>
</g>
<!-- Node10&#45;&gt;Node14 -->
<g id="edge16" class="edge">
<title>Node10&#45;&gt;Node14</title>
<path fill="none" stroke="#63b8ff" d="M314.03,-736.53C302.27,-738.43 290.12,-740.38 278.7,-742.22"/>
<polygon fill="#63b8ff" stroke="#63b8ff" points="314.35,-740.03 323.66,-734.98 313.23,-733.12 314.35,-740.03"/>
</g>
<!-- Node15 -->
<g id="node15" class="node">
<title>Node15</title>
<g id="a_node15"><a xlink:href="a01659.html#a377819905d567f6f523dcbc592cb6356" target="_top" xlink:title="updates a JSON object from another object, overwriting existing keys">
<polygon fill="white" stroke="#666666" points="278.38,-717 167.88,-717 167.88,-685 278.38,-685 278.38,-717"/>
<text xml:space="preserve" text-anchor="start" x="175.88" y="-703.5" font-family="Helvetica,sans-Serif" font-size="10.00">nlohmann::basic_json</text>
<text xml:space="preserve" text-anchor="middle" x="223.12" y="-691.5" font-family="Helvetica,sans-Serif" font-size="10.00">::update</text>
</a>
</g>
</g>
<!-- Node10&#45;&gt;Node15 -->
<g id="edge17" class="edge">
<title>Node10&#45;&gt;Node15</title>
<path fill="none" stroke="#63b8ff" d="M314.03,-715.47C302.27,-713.57 290.12,-711.62 278.7,-709.78"/>
<polygon fill="#63b8ff" stroke="#63b8ff" points="313.23,-718.88 323.66,-717.02 314.35,-711.97 313.23,-718.88"/>
</g>
<!-- Node13 -->
<g id="node13" class="node">
<title>Node13</title>
<g id="a_node13"><a xlink:href="a01659.html#a2e4cbf41d593d41847b90aea55e5e84d" target="_top" xlink:title="returns a const reverse iterator to one before the first">
<polygon fill="white" stroke="#666666" points="115.75,-817 5.25,-817 5.25,-785 115.75,-785 115.75,-817"/>
<text xml:space="preserve" text-anchor="start" x="13.25" y="-803.5" font-family="Helvetica,sans-Serif" font-size="10.00">nlohmann::basic_json</text>
<text xml:space="preserve" text-anchor="middle" x="60.5" y="-791.5" font-family="Helvetica,sans-Serif" font-size="10.00">::rend</text>
</a>
</g>
</g>
<!-- Node12&#45;&gt;Node13 -->
<g id="edge14" class="edge">
<title>Node12&#45;&gt;Node13</title>
<path fill="none" stroke="#63b8ff" d="M156.61,-801C143.15,-801 129.12,-801 116.1,-801"/>
<polygon fill="#63b8ff" stroke="#63b8ff" points="156.23,-804.5 166.23,-801 156.23,-797.5 156.23,-804.5"/>
</g>
<!-- Node17 -->
<g id="node17" class="node">
<title>Node17</title>
<g id="a_node17"><a xlink:href="a01659.html#a3017cf0f1a4673e904e34cfef62e7758" target="_top" xlink:title="returns a const iterator to one past the last element">
<polygon fill="white" stroke="#666666" points="435.75,-549 325.25,-549 325.25,-517 435.75,-517 435.75,-549"/>
<text xml:space="preserve" text-anchor="start" x="333.25" y="-535.5" font-family="Helvetica,sans-Serif" font-size="10.00">nlohmann::basic_json</text>
<text xml:space="preserve" text-anchor="middle" x="380.5" y="-523.5" font-family="Helvetica,sans-Serif" font-size="10.00">::cend</text>
</a>
</g>
</g>
<!-- Node16&#45;&gt;Node17 -->
<g id="edge19" class="edge">
<title>Node16&#45;&gt;Node17</title>
<path fill="none" stroke="#63b8ff" d="M628.35,-410.68C582.5,-408.89 520.49,-412.23 471.75,-436 434.74,-454.05 405.36,-494.28 391.04,-516.85"/>
<polygon fill="#63b8ff" stroke="#63b8ff" points="627.97,-414.16 638.13,-411.16 628.32,-407.17 627.97,-414.16"/>
</g>
<!-- Node23 -->
<g id="node23" class="node">
<title>Node23</title>
<g id="a_node23"><a xlink:href="a01659.html#a931267ec3f09eb67e4382f321b2c52bc" target="_top" xlink:title="returns an iterator to one past the last element">
<polygon fill="white" stroke="#666666" points="604,-202 471.75,-202 471.75,-182 604,-182 604,-202"/>
<text xml:space="preserve" text-anchor="middle" x="537.88" y="-188.5" font-family="Helvetica,sans-Serif" font-size="10.00">nlohmann::basic_json::end</text>
</a>
</g>
</g>
<!-- Node16&#45;&gt;Node23 -->
<g id="edge27" class="edge">
<title>Node16&#45;&gt;Node23</title>
<path fill="none" stroke="#63b8ff" d="M674.95,-391.46C641.22,-342.02 568.33,-235.17 545.71,-202.02"/>
<polygon fill="#63b8ff" stroke="#63b8ff" points="671.96,-393.28 680.48,-399.57 677.74,-389.34 671.96,-393.28"/>
</g>
<!-- Node17&#45;&gt;Node4 -->
<g id="edge23" class="edge">
<title>Node17&#45;&gt;Node4</title>
<path fill="none" stroke="#63b8ff" d="M354.78,-557.37C337.52,-573.37 313.35,-593.88 289.25,-608 283.92,-611.12 278.13,-613.99 272.27,-616.59"/>
<polygon fill="#63b8ff" stroke="#63b8ff" points="357.17,-559.92 362.03,-550.51 352.36,-554.84 357.17,-559.92"/>
</g>
<!-- Node17&#45;&gt;Node15 -->
<g id="edge26" class="edge">
<title>Node17&#45;&gt;Node15</title>
<path fill="none" stroke="#63b8ff" d="M369.06,-559.37C355.24,-591.14 328.02,-644.18 289.25,-676 285.32,-679.23 280.92,-682.07 276.32,-684.56"/>
<polygon fill="#63b8ff" stroke="#63b8ff" points="372.14,-561.07 372.8,-550.49 365.69,-558.35 372.14,-561.07"/>
</g>
<!-- Node18 -->
<g id="node18" class="node">
<title>Node18</title>
<g id="a_node18"><a xlink:href="a01659.html#aac965b84ea43ccd8aef9caefef02794a" target="_top" xlink:title="access the last element">
<polygon fill="white" stroke="#666666" points="278.38,-599 167.88,-599 167.88,-567 278.38,-567 278.38,-599"/>
<text xml:space="preserve" text-anchor="start" x="175.88" y="-585.5" font-family="Helvetica,sans-Serif" font-size="10.00">nlohmann::basic_json</text>
<text xml:space="preserve" text-anchor="middle" x="223.12" y="-573.5" font-family="Helvetica,sans-Serif" font-size="10.00">::back</text>
</a>
</g>
</g>
<!-- Node17&#45;&gt;Node18 -->
<g id="edge20" class="edge">
<title>Node17&#45;&gt;Node18</title>
<path fill="none" stroke="#63b8ff" d="M318,-552.79C303.88,-557.33 289.02,-562.12 275.38,-566.51"/>
<polygon fill="#63b8ff" stroke="#63b8ff" points="318.74,-556.23 327.18,-549.84 316.59,-549.57 318.74,-556.23"/>
</g>
<!-- Node19 -->
<g id="node19" class="node">
<title>Node19</title>
<g id="a_node19"><a xlink:href="a01659.html#a044298d189bdf7e4b36492de9811ddd6" target="_top" xlink:title="returns a const reverse iterator to the last element">
<polygon fill="white" stroke="#666666" points="278.38,-549 167.88,-549 167.88,-517 278.38,-517 278.38,-549"/>
<text xml:space="preserve" text-anchor="start" x="175.88" y="-535.5" font-family="Helvetica,sans-Serif" font-size="10.00">nlohmann::basic_json</text>
<text xml:space="preserve" text-anchor="middle" x="223.12" y="-523.5" font-family="Helvetica,sans-Serif" font-size="10.00">::crbegin</text>
</a>
</g>
</g>
<!-- Node17&#45;&gt;Node19 -->
<g id="edge21" class="edge">
<title>Node17&#45;&gt;Node19</title>
<path fill="none" stroke="#63b8ff" d="M313.67,-533C302.01,-533 290,-533 278.7,-533"/>
<polygon fill="#63b8ff" stroke="#63b8ff" points="313.64,-536.5 323.64,-533 313.64,-529.5 313.64,-536.5"/>
</g>
<!-- Node21 -->
<g id="node21" class="node">
<title>Node21</title>
<g id="a_node21"><a xlink:href="a01659.html#a82b5b96f86879a3bac0c713d33178551" target="_top" xlink:title="returns a const iterator to one past the last element">
<polygon fill="white" stroke="#666666" points="289.25,-499 157,-499 157,-479 289.25,-479 289.25,-499"/>
<text xml:space="preserve" text-anchor="middle" x="223.12" y="-485.5" font-family="Helvetica,sans-Serif" font-size="10.00">nlohmann::basic_json::end</text>
</a>
</g>
</g>
<!-- Node17&#45;&gt;Node21 -->
<g id="edge24" class="edge">
<title>Node17&#45;&gt;Node21</title>
<path fill="none" stroke="#63b8ff" d="M314.3,-514.54C296.14,-509.39 277.04,-503.98 261.11,-499.47"/>
<polygon fill="#63b8ff" stroke="#63b8ff" points="313.13,-517.84 323.7,-517.2 315.03,-511.11 313.13,-517.84"/>
</g>
<!-- Node22 -->
<g id="node22" class="node">
<title>Node22</title>
<g id="a_node22"><a xlink:href="a01659.html#a17a516671c29a69bb2e11ca12030316b" target="_top" xlink:title="find an element in a JSON object">
<polygon fill="white" stroke="#666666" points="278.38,-461 167.88,-461 167.88,-429 278.38,-429 278.38,-461"/>
<text xml:space="preserve" text-anchor="start" x="175.88" y="-447.5" font-family="Helvetica,sans-Serif" font-size="10.00">nlohmann::basic_json</text>
<text xml:space="preserve" text-anchor="middle" x="223.12" y="-435.5" font-family="Helvetica,sans-Serif" font-size="10.00">::find</text>
</a>
</g>
</g>
<!-- Node17&#45;&gt;Node22 -->
<g id="edge25" class="edge">
<title>Node17&#45;&gt;Node22</title>
<path fill="none" stroke="#63b8ff" d="M350.34,-509.92C333.21,-497.07 310.75,-481.41 289.25,-470 283.47,-466.93 277.24,-464.05 270.99,-461.41"/>
<polygon fill="#63b8ff" stroke="#63b8ff" points="347.99,-512.53 358.07,-515.81 352.23,-506.96 347.99,-512.53"/>
</g>
<!-- Node20 -->
<g id="node20" class="node">
<title>Node20</title>
<g id="a_node20"><a xlink:href="a01659.html#aab1329f44c8301b7679962726a043549" target="_top" xlink:title="returns a const reverse iterator to the last element">
<polygon fill="white" stroke="#666666" points="115.75,-549 5.25,-549 5.25,-517 115.75,-517 115.75,-549"/>
<text xml:space="preserve" text-anchor="start" x="13.25" y="-535.5" font-family="Helvetica,sans-Serif" font-size="10.00">nlohmann::basic_json</text>
<text xml:space="preserve" text-anchor="middle" x="60.5" y="-523.5" font-family="Helvetica,sans-Serif" font-size="10.00">::rbegin</text>
</a>
</g>
</g>
<!-- Node19&#45;&gt;Node20 -->
<g id="edge22" class="edge">
<title>Node19&#45;&gt;Node20</title>
<path fill="none" stroke="#63b8ff" d="M156.61,-533C143.15,-533 129.12,-533 116.1,-533"/>
<polygon fill="#63b8ff" stroke="#63b8ff" points="156.23,-536.5 166.23,-533 156.23,-529.5 156.23,-536.5"/>
</g>
<!-- Node23&#45;&gt;Node4 -->
<g id="edge29" class="edge">
<title>Node23&#45;&gt;Node4</title>
<path fill="none" stroke="#63b8ff" d="M531.35,-213.02C511.1,-289.87 441.88,-551.42 435.75,-558 394.84,-601.93 326.57,-620.14 278.66,-627.69"/>
<polygon fill="#63b8ff" stroke="#63b8ff" points="534.61,-214.37 533.77,-203.81 527.84,-212.59 534.61,-214.37"/>
</g>
<!-- Node23&#45;&gt;Node7 -->
<g id="edge39" class="edge">
<title>Node23&#45;&gt;Node7</title>
<path fill="none" stroke="#63b8ff" d="M519.69,-210.32C501.05,-228.71 469.43,-255.87 435.75,-267 389.12,-282.41 373.49,-276.19 325.25,-267 301.33,-262.44 275.83,-252.32 256.43,-243.4"/>
<polygon fill="#63b8ff" stroke="#63b8ff" points="521.95,-213 526.46,-203.42 516.96,-208.1 521.95,-213"/>
</g>
<!-- Node23&#45;&gt;Node8 -->
<g id="edge40" class="edge">
<title>Node23&#45;&gt;Node8</title>
<path fill="none" stroke="#63b8ff" d="M492.51,-178.56C475,-173.91 454.6,-169.3 435.75,-167 382.63,-160.53 321.53,-164.65 278.68,-169.4"/>
<polygon fill="#63b8ff" stroke="#63b8ff" points="491.52,-181.92 502.09,-181.2 493.37,-175.17 491.52,-181.92"/>
</g>
<!-- Node24 -->
<g id="node24" class="node">
<title>Node24</title>
<g id="a_node24"><a xlink:href="a01659.html#a30914ad0767ccdc3633f88a906ed7dfa" target="_top" xlink:title="access the last element">
<polygon fill="white" stroke="#666666" points="435.75,-82 325.25,-82 325.25,-50 435.75,-50 435.75,-82"/>
<text xml:space="preserve" text-anchor="start" x="333.25" y="-68.5" font-family="Helvetica,sans-Serif" font-size="10.00">nlohmann::basic_json</text>
<text xml:space="preserve" text-anchor="middle" x="380.5" y="-56.5" font-family="Helvetica,sans-Serif" font-size="10.00">::back</text>
</a>
</g>
</g>
<!-- Node23&#45;&gt;Node24 -->
<g id="edge28" class="edge">
<title>Node23&#45;&gt;Node24</title>
<path fill="none" stroke="#63b8ff" d="M520.02,-173.37C500.87,-152.87 468.07,-119.68 435.75,-96 429.15,-91.17 421.69,-86.56 414.46,-82.47"/>
<polygon fill="#63b8ff" stroke="#63b8ff" points="517.2,-175.48 526.55,-180.45 522.34,-170.73 517.2,-175.48"/>
</g>
<!-- Node25 -->
<g id="node25" class="node">
<title>Node25</title>
<g id="a_node25"><a xlink:href="a01659.html#a494632b69bbe1d0153d3bedad0901b8e" target="_top" xlink:title="remove element given an iterator">
<polygon fill="white" stroke="#666666" points="435.75,-258 325.25,-258 325.25,-226 435.75,-226 435.75,-258"/>
<text xml:space="preserve" text-anchor="start" x="333.25" y="-244.5" font-family="Helvetica,sans-Serif" font-size="10.00">nlohmann::basic_json</text>
<text xml:space="preserve" text-anchor="middle" x="380.5" y="-232.5" font-family="Helvetica,sans-Serif" font-size="10.00">::erase</text>
</a>
</g>
</g>
<!-- Node23&#45;&gt;Node25 -->
<g id="edge30" class="edge">
<title>Node23&#45;&gt;Node25</title>
<path fill="none" stroke="#63b8ff" d="M493.35,-206.01C474.5,-212.07 452.31,-219.21 432.68,-225.53"/>
<polygon fill="#63b8ff" stroke="#63b8ff" points="494.42,-209.34 502.86,-202.95 492.27,-202.68 494.42,-209.34"/>
</g>
<!-- Node26 -->
<g id="node26" class="node">
<title>Node26</title>
<g id="a_node26"><a xlink:href="a01659.html#acdf9b3aab82dcf443dd91ca5ec06b80c" target="_top" xlink:title="find an element in a JSON object">
<polygon fill="white" stroke="#666666" points="435.75,-208 325.25,-208 325.25,-176 435.75,-176 435.75,-208"/>
<text xml:space="preserve" text-anchor="start" x="333.25" y="-194.5" font-family="Helvetica,sans-Serif" font-size="10.00">nlohmann::basic_json</text>
<text xml:space="preserve" text-anchor="middle" x="380.5" y="-182.5" font-family="Helvetica,sans-Serif" font-size="10.00">::find</text>
</a>
</g>
</g>
<!-- Node23&#45;&gt;Node26 -->
<g id="edge33" class="edge">
<title>Node23&#45;&gt;Node26</title>
<path fill="none" stroke="#63b8ff" d="M460.03,-192C451.94,-192 443.83,-192 436.07,-192"/>
<polygon fill="#63b8ff" stroke="#63b8ff" points="459.92,-195.5 469.92,-192 459.92,-188.5 459.92,-195.5"/>
</g>
<!-- Node27 -->
<g id="node27" class="node">
<title>Node27</title>
<g id="a_node27"><a xlink:href="a01659.html#a11641b35219676b225d9bd15c7677659" target="_top" xlink:title="access specified object element with default value">
<polygon fill="white" stroke="#666666" points="278.38,-142 167.88,-142 167.88,-110 278.38,-110 278.38,-142"/>
<text xml:space="preserve" text-anchor="start" x="175.88" y="-128.5" font-family="Helvetica,sans-Serif" font-size="10.00">nlohmann::basic_json</text>
<text xml:space="preserve" text-anchor="middle" x="223.12" y="-116.5" font-family="Helvetica,sans-Serif" font-size="10.00">::value</text>
</a>
</g>
</g>
<!-- Node23&#45;&gt;Node27 -->
<g id="edge42" class="edge">
<title>Node23&#45;&gt;Node27</title>
<path fill="none" stroke="#63b8ff" d="M497.3,-177.99C478.78,-171.82 456.32,-164.88 435.75,-160 382.89,-147.46 321.49,-138.17 278.48,-132.49"/>
<polygon fill="#63b8ff" stroke="#63b8ff" points="495.96,-181.23 506.55,-181.12 498.2,-174.6 495.96,-181.23"/>
</g>
<!-- Node30 -->
<g id="node30" class="node">
<title>Node30</title>
<g id="a_node30"><a xlink:href="a01659.html#aff8e38cd973bc94557fa8d36433c0e4c" target="_top" xlink:title="returns an iterator to the reverse&#45;beginning">
<polygon fill="white" stroke="#666666" points="435.75,-32 325.25,-32 325.25,0 435.75,0 435.75,-32"/>
<text xml:space="preserve" text-anchor="start" x="333.25" y="-18.5" font-family="Helvetica,sans-Serif" font-size="10.00">nlohmann::basic_json</text>
<text xml:space="preserve" text-anchor="middle" x="380.5" y="-6.5" font-family="Helvetica,sans-Serif" font-size="10.00">::rbegin</text>
</a>
</g>
</g>
<!-- Node23&#45;&gt;Node30 -->
<g id="edge41" class="edge">
<title>Node23&#45;&gt;Node30</title>
<path fill="none" stroke="#63b8ff" d="M527.73,-171.55C512.65,-139.84 479.79,-78.57 435.75,-41 432.04,-37.84 427.87,-34.99 423.52,-32.46"/>
<polygon fill="#63b8ff" stroke="#63b8ff" points="524.46,-172.82 531.83,-180.42 530.81,-169.88 524.46,-172.82"/>
</g>
<!-- Node25&#45;&gt;Node7 -->
<g id="edge31" class="edge">
<title>Node25&#45;&gt;Node7</title>
<path fill="none" stroke="#63b8ff" d="M314.03,-235.68C302.27,-234.54 290.12,-233.37 278.7,-232.27"/>
<polygon fill="#63b8ff" stroke="#63b8ff" points="313.36,-239.13 323.65,-236.61 314.03,-232.16 313.36,-239.13"/>
</g>
<!-- Node25&#45;&gt;Node8 -->
<g id="edge32" class="edge">
<title>Node25&#45;&gt;Node8</title>
<path fill="none" stroke="#63b8ff" d="M333.24,-220.96C319.18,-214.71 303.64,-207.95 289.25,-202 282.31,-199.13 274.91,-196.19 267.68,-193.37"/>
<polygon fill="#63b8ff" stroke="#63b8ff" points="331.73,-224.12 342.29,-225 334.59,-217.73 331.73,-224.12"/>
</g>
<!-- Node26&#45;&gt;Node4 -->
<g id="edge34" class="edge">
<title>Node26&#45;&gt;Node4</title>
<path fill="none" stroke="#63b8ff" d="M325.94,-216.06C325.7,-216.37 325.47,-216.68 325.25,-217 224.51,-359.5 394.59,-468.87 289.25,-608 286.33,-611.86 282.73,-615.13 278.73,-617.89"/>
<polygon fill="#63b8ff" stroke="#63b8ff" points="328.22,-218.72 332.85,-209.19 323.29,-213.76 328.22,-218.72"/>
</g>
<!-- Node26&#45;&gt;Node8 -->
<g id="edge35" class="edge">
<title>Node26&#45;&gt;Node8</title>
<path fill="none" stroke="#63b8ff" d="M314.03,-185.68C302.27,-184.54 290.12,-183.37 278.7,-182.27"/>
<polygon fill="#63b8ff" stroke="#63b8ff" points="313.36,-189.13 323.65,-186.61 314.03,-182.16 313.36,-189.13"/>
</g>
<!-- Node26&#45;&gt;Node27 -->
<g id="edge36" class="edge">
<title>Node26&#45;&gt;Node27</title>
<path fill="none" stroke="#63b8ff" d="M332.82,-170.92C318.86,-164.71 303.47,-157.99 289.25,-152 281.73,-148.83 273.69,-145.55 265.91,-142.41"/>
<polygon fill="#63b8ff" stroke="#63b8ff" points="331.25,-174.04 341.8,-174.92 334.1,-167.65 331.25,-174.04"/>
</g>
<!-- Node28 -->
<g id="node28" class="node">
<title>Node28</title>
<g id="a_node28"><a xlink:href="a02059.html#ad7f122fa9bfc5aa4d9b65a3059892146" target="_top" xlink:title="constructor for strings">
<polygon fill="white" stroke="#666666" points="121,-167 0,-167 0,-135 121,-135 121,-167"/>
<text xml:space="preserve" text-anchor="start" x="8" y="-153.5" font-family="Helvetica,sans-Serif" font-size="10.00">nlohmann::basic_json</text>
<text xml:space="preserve" text-anchor="middle" x="60.5" y="-141.5" font-family="Helvetica,sans-Serif" font-size="10.00">::json_value::json_value</text>
</a>
</g>
</g>
<!-- Node27&#45;&gt;Node28 -->
<g id="edge37" class="edge">
<title>Node27&#45;&gt;Node28</title>
<path fill="none" stroke="#63b8ff" d="M156.7,-136.18C145,-138 132.87,-139.89 121.34,-141.69"/>
<polygon fill="#63b8ff" stroke="#63b8ff" points="156.91,-139.69 166.25,-134.7 155.83,-132.78 156.91,-139.69"/>
</g>
<!-- Node29 -->
<g id="node29" class="node">
<title>Node29</title>
<g id="a_node29"><a xlink:href="a01659.html#adcfdefe95d5c2471a5c97e911d46ee88" target="_top" xlink:title="overload for a default value of type const char*">
<polygon fill="white" stroke="#666666" points="115.75,-117 5.25,-117 5.25,-85 115.75,-85 115.75,-117"/>
<text xml:space="preserve" text-anchor="start" x="13.25" y="-103.5" font-family="Helvetica,sans-Serif" font-size="10.00">nlohmann::basic_json</text>
<text xml:space="preserve" text-anchor="middle" x="60.5" y="-91.5" font-family="Helvetica,sans-Serif" font-size="10.00">::value</text>
</a>
</g>
</g>
<!-- Node27&#45;&gt;Node29 -->
<g id="edge38" class="edge">
<title>Node27&#45;&gt;Node29</title>
<path fill="none" stroke="#63b8ff" d="M156.61,-115.8C143.15,-113.71 129.12,-111.52 116.1,-109.5"/>
<polygon fill="#63b8ff" stroke="#63b8ff" points="155.83,-119.22 166.25,-117.3 156.91,-112.31 155.83,-119.22"/>
</g>
</g>
</svg>
