<?xml version="1.0" encoding="UTF-8" standalone="no"?>
<!DOCTYPE svg PUBLIC "-//W3C//DTD SVG 1.1//EN"
 "http://www.w3.org/Graphics/SVG/1.1/DTD/svg11.dtd">
<!-- Generated by graphviz version 13.1.2 (20250808.2320)
 -->
<!-- Title: nlohmann::detail::primitive_iterator_t Pages: 1 -->
<svg width="230pt" height="120pt"
 viewBox="0.00 0.00 230.00 120.00" xmlns="http://www.w3.org/2000/svg" xmlns:xlink="http://www.w3.org/1999/xlink">
<g id="graph0" class="graph" transform="scale(1 1) rotate(0) translate(4 116)">
<title>nlohmann::detail::primitive_iterator_t</title>
<!-- Node1 -->
<g id="node1" class="node">
<title>Node1</title>
<g id="a_node1"><a xlink:title=" ">
<polygon fill="#999999" stroke="#666666" points="202.38,-32 72.38,-32 72.38,0 202.38,0 202.38,-32"/>
<text xml:space="preserve" text-anchor="start" x="80.38" y="-18.5" font-family="Helvetica,sans-Serif" font-size="10.00">nlohmann::detail::primitive</text>
<text xml:space="preserve" text-anchor="middle" x="137.38" y="-6.5" font-family="Helvetica,sans-Serif" font-size="10.00">_iterator_t</text>
</a>
</g>
</g>
<!-- Node2 -->
<g id="node2" class="node">
<title>Node2</title>
<g id="a_node2"><a xlink:title=" ">
<polygon fill="white" stroke="#666666" points="154.75,-112 0,-112 0,-92 154.75,-92 154.75,-112"/>
<text xml:space="preserve" text-anchor="middle" x="77.38" y="-98.5" font-family="Helvetica,sans-Serif" font-size="10.00">static constexpr difference_type</text>
</a>
</g>
</g>
<!-- Node2&#45;&gt;Node1 -->
<g id="edge1" class="edge">
<title>Node2&#45;&gt;Node1</title>
<path fill="none" stroke="#9a32cd" stroke-dasharray="5,2" d="M90.68,-82.37C101.43,-67.32 116.37,-46.41 126.43,-32.32"/>
<polygon fill="#9a32cd" stroke="#9a32cd" points="87.87,-80.29 84.91,-90.46 93.57,-84.35 87.87,-80.29"/>
<text xml:space="preserve" text-anchor="middle" x="140.12" y="-64.5" font-family="Helvetica,sans-Serif" font-size="10.00"> begin_value</text>
<text xml:space="preserve" text-anchor="middle" x="140.12" y="-52.5" font-family="Helvetica,sans-Serif" font-size="10.00">end_value</text>
</g>
<!-- Node3 -->
<g id="node3" class="node">
<title>Node3</title>
<g id="a_node3"><a xlink:title=" ">
<polygon fill="white" stroke="#666666" points="221.5,-112 173.25,-112 173.25,-92 221.5,-92 221.5,-112"/>
<text xml:space="preserve" text-anchor="middle" x="197.38" y="-98.5" font-family="Helvetica,sans-Serif" font-size="10.00">ptrdiff_t</text>
</a>
</g>
</g>
<!-- Node3&#45;&gt;Node1 -->
<g id="edge2" class="edge">
<title>Node3&#45;&gt;Node1</title>
<path fill="none" stroke="#9a32cd" stroke-dasharray="5,2" d="M189.24,-81.42C184.69,-71.55 178.5,-59.65 171.38,-50 166.78,-43.78 160.98,-37.68 155.47,-32.45"/>
<polygon fill="#9a32cd" stroke="#9a32cd" points="185.97,-82.68 193.18,-90.44 192.38,-79.87 185.97,-82.68"/>
<text xml:space="preserve" text-anchor="middle" x="195.94" y="-58.5" font-family="Helvetica,sans-Serif" font-size="10.00"> m_it</text>
</g>
</g>
</svg>
