<?xml version="1.0" encoding="UTF-8" standalone="no"?>
<!DOCTYPE svg PUBLIC "-//W3C//DTD SVG 1.1//EN"
 "http://www.w3.org/Graphics/SVG/1.1/DTD/svg11.dtd">
<!-- Generated by graphviz version 13.1.2 (20250808.2320)
 -->
<!-- Title: nlohmann::detail::binary_writer::write_bson_array Pages: 1 -->
<svg width="1066pt" height="717pt"
 viewBox="0.00 0.00 1066.00 717.00" xmlns="http://www.w3.org/2000/svg" xmlns:xlink="http://www.w3.org/1999/xlink">
<g id="graph0" class="graph" transform="scale(1 1) rotate(0) translate(4 712.67)">
<title>nlohmann::detail::binary_writer::write_bson_array</title>
<!-- Node1 -->
<g id="node1" class="node">
<title>Node1</title>
<g id="a_node1"><a xlink:title="Writes a BSON element with key name and array value.">
<polygon fill="#999999" stroke="#666666" points="125.5,-245.67 0,-245.67 0,-213.67 125.5,-213.67 125.5,-245.67"/>
<text xml:space="preserve" text-anchor="start" x="8" y="-232.17" font-family="Helvetica,sans-Serif" font-size="10.00">nlohmann::detail::binary</text>
<text xml:space="preserve" text-anchor="middle" x="62.75" y="-220.17" font-family="Helvetica,sans-Serif" font-size="10.00">_writer::write_bson_array</text>
</a>
</g>
</g>
<!-- Node2 -->
<g id="node2" class="node">
<title>Node2</title>
<g id="a_node2"><a xlink:href="a02039.html#af08f9302a02516ff8cf358a99aaa1ddf" target="_top" xlink:title=" ">
<polygon fill="white" stroke="#666666" points="307.25,-546.67 161.5,-546.67 161.5,-514.67 307.25,-514.67 307.25,-546.67"/>
<text xml:space="preserve" text-anchor="start" x="169.5" y="-533.17" font-family="Helvetica,sans-Serif" font-size="10.00">nlohmann::detail::binary</text>
<text xml:space="preserve" text-anchor="middle" x="234.38" y="-521.17" font-family="Helvetica,sans-Serif" font-size="10.00">_writer::calc_bson_array_size</text>
</a>
</g>
</g>
<!-- Node1&#45;&gt;Node2 -->
<g id="edge1" class="edge">
<title>Node1&#45;&gt;Node2</title>
<path fill="none" stroke="#63b8ff" d="M72.87,-245.85C100.65,-295.15 184.43,-443.82 218.61,-504.47"/>
<polygon fill="#63b8ff" stroke="#63b8ff" points="215.51,-506.09 223.47,-513.09 221.61,-502.66 215.51,-506.09"/>
</g>
<!-- Node12 -->
<g id="node12" class="node">
<title>Node12</title>
<g id="a_node12"><a xlink:href="a02039.html#ab77aa48692bd4e64e4f051ce6aeb6d2d" target="_top" xlink:title=" ">
<polygon fill="white" stroke="#666666" points="871.62,-173.67 752.12,-173.67 752.12,-141.67 871.62,-141.67 871.62,-173.67"/>
<text xml:space="preserve" text-anchor="start" x="760.12" y="-160.17" font-family="Helvetica,sans-Serif" font-size="10.00">nlohmann::detail::binary</text>
<text xml:space="preserve" text-anchor="middle" x="811.88" y="-148.17" font-family="Helvetica,sans-Serif" font-size="10.00">_writer::to_char_type</text>
</a>
</g>
</g>
<!-- Node1&#45;&gt;Node12 -->
<g id="edge12" class="edge">
<title>Node1&#45;&gt;Node12</title>
<path fill="none" stroke="#63b8ff" d="M67.07,-213.29C75.55,-175.94 101.71,-84.21 161.5,-39.67 227.4,9.43 261.42,-13.26 343.25,-5.67 504.9,9.32 557.15,-4.94 700.75,-80.67 729.87,-96.02 760.35,-117.85 781.84,-134.34"/>
<polygon fill="#63b8ff" stroke="#63b8ff" points="779.52,-136.97 789.56,-140.35 783.82,-131.45 779.52,-136.97"/>
</g>
<!-- Node13 -->
<g id="node13" class="node">
<title>Node13</title>
<g id="a_node13"><a xlink:href="a02039.html#a7ff58bf1a80018148bed860667ffca07" target="_top" xlink:title="Serializes the JSON value j to BSON and associates it with the key name.">
<polygon fill="white" stroke="#666666" points="303.5,-245.67 165.25,-245.67 165.25,-213.67 303.5,-213.67 303.5,-245.67"/>
<text xml:space="preserve" text-anchor="start" x="173.25" y="-232.17" font-family="Helvetica,sans-Serif" font-size="10.00">nlohmann::detail::binary</text>
<text xml:space="preserve" text-anchor="middle" x="234.38" y="-220.17" font-family="Helvetica,sans-Serif" font-size="10.00">_writer::write_bson_element</text>
</a>
</g>
</g>
<!-- Node1&#45;&gt;Node13 -->
<g id="edge13" class="edge">
<title>Node1&#45;&gt;Node13</title>
<path fill="none" stroke="#63b8ff" d="M125.95,-223.14C134.96,-222.96 144.33,-222.89 153.62,-222.93"/>
<polygon fill="#63b8ff" stroke="#63b8ff" points="153.35,-226.43 163.38,-223.02 153.41,-219.43 153.35,-226.43"/>
</g>
<!-- Node15 -->
<g id="node15" class="node">
<title>Node15</title>
<g id="a_node15"><a xlink:href="a02039.html#a1b5b7f5c03b1f8b1f59ea61db9634108" target="_top" xlink:title="Writes the given element_type and name to the output adapter.">
<polygon fill="white" stroke="#666666" points="699.25,-195.67 539.25,-195.67 539.25,-163.67 699.25,-163.67 699.25,-195.67"/>
<text xml:space="preserve" text-anchor="start" x="547.25" y="-182.17" font-family="Helvetica,sans-Serif" font-size="10.00">nlohmann::detail::binary</text>
<text xml:space="preserve" text-anchor="middle" x="619.25" y="-170.17" font-family="Helvetica,sans-Serif" font-size="10.00">_writer::write_bson_entry_header</text>
</a>
</g>
</g>
<!-- Node1&#45;&gt;Node15 -->
<g id="edge39" class="edge">
<title>Node1&#45;&gt;Node15</title>
<path fill="none" stroke="#63b8ff" d="M79.03,-213.17C118.15,-172.29 227.07,-66.95 343.25,-29.67 410.32,-8.14 438.48,1.3 501.75,-29.67 554.22,-55.35 589.86,-117.33 606.84,-153.06"/>
<polygon fill="#63b8ff" stroke="#63b8ff" points="603.53,-154.24 610.88,-161.87 609.89,-151.32 603.53,-154.24"/>
</g>
<!-- Node3 -->
<g id="node3" class="node">
<title>Node3</title>
<g id="a_node3"><a xlink:href="a02039.html#a1e4372c5984184eb5bcc09af1fcc2ee0" target="_top" xlink:title="Calculates the size necessary to serialize the JSON value j with its name.">
<polygon fill="white" stroke="#666666" points="501.75,-546.67 343.25,-546.67 343.25,-514.67 501.75,-514.67 501.75,-546.67"/>
<text xml:space="preserve" text-anchor="start" x="351.25" y="-533.17" font-family="Helvetica,sans-Serif" font-size="10.00">nlohmann::detail::binary</text>
<text xml:space="preserve" text-anchor="middle" x="422.5" y="-521.17" font-family="Helvetica,sans-Serif" font-size="10.00">_writer::calc_bson_element_size</text>
</a>
</g>
</g>
<!-- Node2&#45;&gt;Node3 -->
<g id="edge2" class="edge">
<title>Node2&#45;&gt;Node3</title>
<path fill="none" stroke="#63b8ff" d="M307.6,-524.07C315.45,-523.95 323.51,-523.9 331.53,-523.92"/>
<polygon fill="#63b8ff" stroke="#63b8ff" points="331.3,-527.42 341.32,-523.98 331.34,-520.42 331.3,-527.42"/>
</g>
<!-- Node3&#45;&gt;Node2 -->
<g id="edge3" class="edge">
<title>Node3&#45;&gt;Node2</title>
<path fill="none" stroke="#63b8ff" d="M342.83,-537.34C334.98,-537.42 326.99,-537.44 319.09,-537.39"/>
<polygon fill="#63b8ff" stroke="#63b8ff" points="319.15,-533.89 309.12,-537.28 319.08,-540.89 319.15,-533.89"/>
</g>
<!-- Node4 -->
<g id="node4" class="node">
<title>Node4</title>
<g id="a_node4"><a xlink:href="a02039.html#a9dd6062fd249a695e0f93d558dba4685" target="_top" xlink:title=" ">
<polygon fill="white" stroke="#666666" points="694.38,-708.67 544.12,-708.67 544.12,-676.67 694.38,-676.67 694.38,-708.67"/>
<text xml:space="preserve" text-anchor="start" x="552.12" y="-695.17" font-family="Helvetica,sans-Serif" font-size="10.00">nlohmann::detail::binary</text>
<text xml:space="preserve" text-anchor="middle" x="619.25" y="-683.17" font-family="Helvetica,sans-Serif" font-size="10.00">_writer::calc_bson_binary_size</text>
</a>
</g>
</g>
<!-- Node3&#45;&gt;Node4 -->
<g id="edge4" class="edge">
<title>Node3&#45;&gt;Node4</title>
<path fill="none" stroke="#63b8ff" d="M432.61,-546.78C449.58,-575.36 488.8,-635.01 537.75,-667.67 539.58,-668.89 541.46,-670.05 543.4,-671.15"/>
<polygon fill="#63b8ff" stroke="#63b8ff" points="541.58,-674.15 552.08,-675.56 544.75,-667.91 541.58,-674.15"/>
</g>
<!-- Node5 -->
<g id="node5" class="node">
<title>Node5</title>
<g id="a_node5"><a xlink:href="a02039.html#a5bae2f1db2c511b869dffaddf15a1653" target="_top" xlink:title=" ">
<polygon fill="white" stroke="#666666" points="680.5,-658.67 558,-658.67 558,-614.67 680.5,-614.67 680.5,-658.67"/>
<text xml:space="preserve" text-anchor="start" x="566" y="-645.17" font-family="Helvetica,sans-Serif" font-size="10.00">nlohmann::detail::binary</text>
<text xml:space="preserve" text-anchor="start" x="566" y="-633.17" font-family="Helvetica,sans-Serif" font-size="10.00">_writer::calc_bson_entry</text>
<text xml:space="preserve" text-anchor="middle" x="619.25" y="-621.17" font-family="Helvetica,sans-Serif" font-size="10.00">_header_size</text>
</a>
</g>
</g>
<!-- Node3&#45;&gt;Node5 -->
<g id="edge5" class="edge">
<title>Node3&#45;&gt;Node5</title>
<path fill="none" stroke="#63b8ff" d="M445.4,-547.08C467.79,-563.37 503.98,-588.33 537.75,-605.67 540.95,-607.31 544.25,-608.91 547.62,-610.48"/>
<polygon fill="#63b8ff" stroke="#63b8ff" points="545.9,-613.54 556.46,-614.41 548.75,-607.15 545.9,-613.54"/>
</g>
<!-- Node8 -->
<g id="node8" class="node">
<title>Node8</title>
<g id="a_node8"><a xlink:href="a02039.html#aeab70c895931b96ea598306b37eca271" target="_top" xlink:title=" ">
<polygon fill="white" stroke="#666666" points="695.88,-596.67 542.62,-596.67 542.62,-564.67 695.88,-564.67 695.88,-596.67"/>
<text xml:space="preserve" text-anchor="start" x="550.62" y="-583.17" font-family="Helvetica,sans-Serif" font-size="10.00">nlohmann::detail::binary</text>
<text xml:space="preserve" text-anchor="middle" x="619.25" y="-571.17" font-family="Helvetica,sans-Serif" font-size="10.00">_writer::calc_bson_integer_size</text>
</a>
</g>
</g>
<!-- Node3&#45;&gt;Node8 -->
<g id="edge8" class="edge">
<title>Node3&#45;&gt;Node8</title>
<path fill="none" stroke="#63b8ff" d="M487.54,-547.11C505.34,-551.68 524.83,-556.68 543.21,-561.4"/>
<polygon fill="#63b8ff" stroke="#63b8ff" points="542.15,-564.74 552.71,-563.84 543.89,-557.96 542.15,-564.74"/>
</g>
<!-- Node9 -->
<g id="node9" class="node">
<title>Node9</title>
<g id="a_node9"><a xlink:href="a02039.html#acc6f1cc1fd370ee84ebc8cf7b8712840" target="_top" xlink:title="Calculates the size of the BSON serialization of the given JSON&#45;object j.">
<polygon fill="white" stroke="#666666" points="887,-411.67 736.75,-411.67 736.75,-379.67 887,-379.67 887,-411.67"/>
<text xml:space="preserve" text-anchor="start" x="744.75" y="-398.17" font-family="Helvetica,sans-Serif" font-size="10.00">nlohmann::detail::binary</text>
<text xml:space="preserve" text-anchor="middle" x="811.88" y="-386.17" font-family="Helvetica,sans-Serif" font-size="10.00">_writer::calc_bson_object_size</text>
</a>
</g>
</g>
<!-- Node3&#45;&gt;Node9 -->
<g id="edge9" class="edge">
<title>Node3&#45;&gt;Node9</title>
<path fill="none" stroke="#63b8ff" d="M443.27,-514.42C465.09,-497.3 501.89,-470.77 537.75,-455.67 597.92,-430.33 670.25,-415.05 725.35,-406.26"/>
<polygon fill="#63b8ff" stroke="#63b8ff" points="725.65,-409.76 734.99,-404.77 724.57,-402.84 725.65,-409.76"/>
</g>
<!-- Node10 -->
<g id="node10" class="node">
<title>Node10</title>
<g id="a_node10"><a xlink:href="a02039.html#aea44fd97a5cb9b4f175e66e3e4fdf158" target="_top" xlink:title=" ">
<polygon fill="white" stroke="#666666" points="693.25,-546.67 545.25,-546.67 545.25,-514.67 693.25,-514.67 693.25,-546.67"/>
<text xml:space="preserve" text-anchor="start" x="553.25" y="-533.17" font-family="Helvetica,sans-Serif" font-size="10.00">nlohmann::detail::binary</text>
<text xml:space="preserve" text-anchor="middle" x="619.25" y="-521.17" font-family="Helvetica,sans-Serif" font-size="10.00">_writer::calc_bson_string_size</text>
</a>
</g>
</g>
<!-- Node3&#45;&gt;Node10 -->
<g id="edge10" class="edge">
<title>Node3&#45;&gt;Node10</title>
<path fill="none" stroke="#63b8ff" d="M502.15,-530.67C512.54,-530.67 523.22,-530.67 533.71,-530.67"/>
<polygon fill="#63b8ff" stroke="#63b8ff" points="533.46,-534.17 543.46,-530.67 533.46,-527.17 533.46,-534.17"/>
</g>
<!-- Node11 -->
<g id="node11" class="node">
<title>Node11</title>
<g id="a_node11"><a xlink:href="a02039.html#aa1d6bb9f3af16f07ce2440c354b5787b" target="_top" xlink:title=" ">
<polygon fill="white" stroke="#666666" points="700.75,-496.67 537.75,-496.67 537.75,-464.67 700.75,-464.67 700.75,-496.67"/>
<text xml:space="preserve" text-anchor="start" x="545.75" y="-483.17" font-family="Helvetica,sans-Serif" font-size="10.00">nlohmann::detail::binary</text>
<text xml:space="preserve" text-anchor="middle" x="619.25" y="-471.17" font-family="Helvetica,sans-Serif" font-size="10.00">_writer::calc_bson_unsigned_size</text>
</a>
</g>
</g>
<!-- Node3&#45;&gt;Node11 -->
<g id="edge11" class="edge">
<title>Node3&#45;&gt;Node11</title>
<path fill="none" stroke="#63b8ff" d="M487.54,-514.23C505.34,-509.66 524.83,-504.65 543.21,-499.93"/>
<polygon fill="#63b8ff" stroke="#63b8ff" points="543.89,-503.37 552.71,-497.49 542.15,-496.59 543.89,-503.37"/>
</g>
<!-- Node6 -->
<g id="node6" class="node">
<title>Node6</title>
<g id="a_node6"><a xlink:href="a01575.html#a3f6d82a6f967c4728a1ec735a7867073" target="_top" xlink:title=" ">
<polygon fill="white" stroke="#666666" points="865.25,-556.67 758.5,-556.67 758.5,-524.67 865.25,-524.67 865.25,-556.67"/>
<text xml:space="preserve" text-anchor="start" x="766.5" y="-543.17" font-family="Helvetica,sans-Serif" font-size="10.00">nlohmann::detail::out</text>
<text xml:space="preserve" text-anchor="middle" x="811.88" y="-531.17" font-family="Helvetica,sans-Serif" font-size="10.00">_of_range::create</text>
</a>
</g>
</g>
<!-- Node5&#45;&gt;Node6 -->
<g id="edge6" class="edge">
<title>Node5&#45;&gt;Node6</title>
<path fill="none" stroke="#63b8ff" d="M680.94,-614.55C687.69,-611.72 694.41,-608.73 700.75,-605.67 726.8,-593.07 754.88,-576.45 776.16,-563.17"/>
<polygon fill="#63b8ff" stroke="#63b8ff" points="777.85,-566.24 784.44,-557.94 774.12,-560.32 777.85,-566.24"/>
</g>
<!-- Node7 -->
<g id="node7" class="node">
<title>Node7</title>
<g id="a_node7"><a xlink:href="a01559.html#abf41a7e9178356314082284e6cfea278" target="_top" xlink:title=" ">
<polygon fill="white" stroke="#666666" points="1058.25,-556.67 923,-556.67 923,-524.67 1058.25,-524.67 1058.25,-556.67"/>
<text xml:space="preserve" text-anchor="start" x="931" y="-543.17" font-family="Helvetica,sans-Serif" font-size="10.00">nlohmann::detail::exception</text>
<text xml:space="preserve" text-anchor="middle" x="990.62" y="-531.17" font-family="Helvetica,sans-Serif" font-size="10.00">::name</text>
</a>
</g>
</g>
<!-- Node6&#45;&gt;Node7 -->
<g id="edge7" class="edge">
<title>Node6&#45;&gt;Node7</title>
<path fill="none" stroke="#63b8ff" d="M865.43,-540.67C879.84,-540.67 895.78,-540.67 911.3,-540.67"/>
<polygon fill="#63b8ff" stroke="#63b8ff" points="910.99,-544.17 920.99,-540.67 910.99,-537.17 910.99,-544.17"/>
</g>
<!-- Node13&#45;&gt;Node1 -->
<g id="edge14" class="edge">
<title>Node13&#45;&gt;Node1</title>
<path fill="none" stroke="#63b8ff" d="M164.89,-236.3C155.84,-236.43 146.53,-236.45 137.39,-236.36"/>
<polygon fill="#63b8ff" stroke="#63b8ff" points="137.51,-232.87 127.46,-236.22 137.41,-239.87 137.51,-232.87"/>
</g>
<!-- Node14 -->
<g id="node14" class="node">
<title>Node14</title>
<g id="a_node14"><a xlink:href="a02039.html#a97d34d9a70ddc06ae782c55454df42bc" target="_top" xlink:title="Writes a BSON element with key name and binary value value.">
<polygon fill="white" stroke="#666666" points="487.5,-320.67 357.5,-320.67 357.5,-288.67 487.5,-288.67 487.5,-320.67"/>
<text xml:space="preserve" text-anchor="start" x="365.5" y="-307.17" font-family="Helvetica,sans-Serif" font-size="10.00">nlohmann::detail::binary</text>
<text xml:space="preserve" text-anchor="middle" x="422.5" y="-295.17" font-family="Helvetica,sans-Serif" font-size="10.00">_writer::write_bson_binary</text>
</a>
</g>
</g>
<!-- Node13&#45;&gt;Node14 -->
<g id="edge15" class="edge">
<title>Node13&#45;&gt;Node14</title>
<path fill="none" stroke="#63b8ff" d="M267.96,-246.07C289.13,-256.39 317.48,-269.62 343.25,-279.67 347.39,-281.28 351.69,-282.87 356.03,-284.42"/>
<polygon fill="#63b8ff" stroke="#63b8ff" points="354.87,-287.72 365.46,-287.69 357.16,-281.11 354.87,-287.72"/>
</g>
<!-- Node17 -->
<g id="node17" class="node">
<title>Node17</title>
<g id="a_node17"><a xlink:href="a02039.html#ae099435e1df3096e0fc78333282f8f67" target="_top" xlink:title="Writes a BSON element with key name and boolean value value.">
<polygon fill="white" stroke="#666666" points="491.25,-70.67 353.75,-70.67 353.75,-38.67 491.25,-38.67 491.25,-70.67"/>
<text xml:space="preserve" text-anchor="start" x="361.75" y="-57.17" font-family="Helvetica,sans-Serif" font-size="10.00">nlohmann::detail::binary</text>
<text xml:space="preserve" text-anchor="middle" x="422.5" y="-45.17" font-family="Helvetica,sans-Serif" font-size="10.00">_writer::write_bson_boolean</text>
</a>
</g>
</g>
<!-- Node13&#45;&gt;Node17 -->
<g id="edge19" class="edge">
<title>Node13&#45;&gt;Node17</title>
<path fill="none" stroke="#63b8ff" d="M242.66,-213.5C257.28,-182.83 293.16,-116.05 343.25,-79.67 344.8,-78.54 346.4,-77.47 348.04,-76.44"/>
<polygon fill="#63b8ff" stroke="#63b8ff" points="349.44,-79.67 356.52,-71.79 346.07,-73.53 349.44,-79.67"/>
</g>
<!-- Node18 -->
<g id="node18" class="node">
<title>Node18</title>
<g id="a_node18"><a xlink:href="a02039.html#a263ec18815467bb9919021ef126919ca" target="_top" xlink:title="Writes a BSON element with key name and double value value.">
<polygon fill="white" stroke="#666666" points="488.62,-120.67 356.38,-120.67 356.38,-88.67 488.62,-88.67 488.62,-120.67"/>
<text xml:space="preserve" text-anchor="start" x="364.38" y="-107.17" font-family="Helvetica,sans-Serif" font-size="10.00">nlohmann::detail::binary</text>
<text xml:space="preserve" text-anchor="middle" x="422.5" y="-95.17" font-family="Helvetica,sans-Serif" font-size="10.00">_writer::write_bson_double</text>
</a>
</g>
</g>
<!-- Node13&#45;&gt;Node18 -->
<g id="edge22" class="edge">
<title>Node13&#45;&gt;Node18</title>
<path fill="none" stroke="#63b8ff" d="M248.7,-213.49C267.59,-191.54 304.21,-152.45 343.25,-129.67 345.59,-128.3 348.01,-127 350.49,-125.77"/>
<polygon fill="#63b8ff" stroke="#63b8ff" points="351.91,-128.97 359.57,-121.65 349.02,-122.59 351.91,-128.97"/>
</g>
<!-- Node19 -->
<g id="node19" class="node">
<title>Node19</title>
<g id="a_node19"><a xlink:href="a02039.html#a553ad4dbdf27238eef90867e4bf2f3e5" target="_top" xlink:title="Writes a BSON element with key name and integer value.">
<polygon fill="white" stroke="#666666" points="489,-270.67 356,-270.67 356,-238.67 489,-238.67 489,-270.67"/>
<text xml:space="preserve" text-anchor="start" x="364" y="-257.17" font-family="Helvetica,sans-Serif" font-size="10.00">nlohmann::detail::binary</text>
<text xml:space="preserve" text-anchor="middle" x="422.5" y="-245.17" font-family="Helvetica,sans-Serif" font-size="10.00">_writer::write_bson_integer</text>
</a>
</g>
</g>
<!-- Node13&#45;&gt;Node19 -->
<g id="edge24" class="edge">
<title>Node13&#45;&gt;Node19</title>
<path fill="none" stroke="#63b8ff" d="M303.89,-238.87C317.09,-240.64 331,-242.51 344.45,-244.32"/>
<polygon fill="#63b8ff" stroke="#63b8ff" points="343.73,-247.75 354.11,-245.62 344.66,-240.82 343.73,-247.75"/>
</g>
<!-- Node20 -->
<g id="node20" class="node">
<title>Node20</title>
<g id="a_node20"><a xlink:href="a02039.html#a9927c1110b18661e0224a76156e5a7a9" target="_top" xlink:title="Writes a BSON element with key name and null value.">
<polygon fill="white" stroke="#666666" points="482.25,-220.67 362.75,-220.67 362.75,-188.67 482.25,-188.67 482.25,-220.67"/>
<text xml:space="preserve" text-anchor="start" x="370.75" y="-207.17" font-family="Helvetica,sans-Serif" font-size="10.00">nlohmann::detail::binary</text>
<text xml:space="preserve" text-anchor="middle" x="422.5" y="-195.17" font-family="Helvetica,sans-Serif" font-size="10.00">_writer::write_bson_null</text>
</a>
</g>
</g>
<!-- Node13&#45;&gt;Node20 -->
<g id="edge26" class="edge">
<title>Node13&#45;&gt;Node20</title>
<path fill="none" stroke="#63b8ff" d="M303.89,-220.46C319.32,-218.39 335.72,-216.19 351.22,-214.11"/>
<polygon fill="#63b8ff" stroke="#63b8ff" points="351.38,-217.62 360.82,-212.82 350.45,-210.68 351.38,-217.62"/>
</g>
<!-- Node21 -->
<g id="node21" class="node">
<title>Node21</title>
<g id="a_node21"><a xlink:href="a02039.html#a6231302930265eccb3f56c378f7b0661" target="_top" xlink:title="Writes a BSON element with key name and object value.">
<polygon fill="white" stroke="#666666" points="501,-370.67 344,-370.67 344,-338.67 501,-338.67 501,-370.67"/>
<text xml:space="preserve" text-anchor="start" x="352" y="-357.17" font-family="Helvetica,sans-Serif" font-size="10.00">nlohmann::detail::binary</text>
<text xml:space="preserve" text-anchor="middle" x="422.5" y="-345.17" font-family="Helvetica,sans-Serif" font-size="10.00">_writer::write_bson_object_entry</text>
</a>
</g>
</g>
<!-- Node13&#45;&gt;Node21 -->
<g id="edge28" class="edge">
<title>Node13&#45;&gt;Node21</title>
<path fill="none" stroke="#63b8ff" d="M248.7,-245.85C267.59,-267.8 304.21,-306.88 343.25,-329.67 345.59,-331.03 348.01,-332.33 350.49,-333.57"/>
<polygon fill="#63b8ff" stroke="#63b8ff" points="349.02,-336.74 359.57,-337.68 351.91,-330.37 349.02,-336.74"/>
</g>
<!-- Node23 -->
<g id="node23" class="node">
<title>Node23</title>
<g id="a_node23"><a xlink:href="a02039.html#a5e6574416915208fc035b57338ae3252" target="_top" xlink:title="Writes a BSON element with key name and string value value.">
<polygon fill="white" stroke="#666666" points="486.38,-170.67 358.62,-170.67 358.62,-138.67 486.38,-138.67 486.38,-170.67"/>
<text xml:space="preserve" text-anchor="start" x="366.62" y="-157.17" font-family="Helvetica,sans-Serif" font-size="10.00">nlohmann::detail::binary</text>
<text xml:space="preserve" text-anchor="middle" x="422.5" y="-145.17" font-family="Helvetica,sans-Serif" font-size="10.00">_writer::write_bson_string</text>
</a>
</g>
</g>
<!-- Node13&#45;&gt;Node23 -->
<g id="edge34" class="edge">
<title>Node13&#45;&gt;Node23</title>
<path fill="none" stroke="#63b8ff" d="M267.96,-213.27C289.13,-202.94 317.48,-189.71 343.25,-179.67 347.39,-178.05 351.69,-176.46 356.03,-174.91"/>
<polygon fill="#63b8ff" stroke="#63b8ff" points="357.16,-178.22 365.46,-171.64 354.87,-171.61 357.16,-178.22"/>
</g>
<!-- Node24 -->
<g id="node24" class="node">
<title>Node24</title>
<g id="a_node24"><a xlink:href="a02039.html#a5e295ed1be6af6260d2a65f7397c3742" target="_top" xlink:title="Writes a BSON element with key name and unsigned value.">
<polygon fill="white" stroke="#666666" points="493.88,-458.67 351.12,-458.67 351.12,-426.67 493.88,-426.67 493.88,-458.67"/>
<text xml:space="preserve" text-anchor="start" x="359.12" y="-445.17" font-family="Helvetica,sans-Serif" font-size="10.00">nlohmann::detail::binary</text>
<text xml:space="preserve" text-anchor="middle" x="422.5" y="-433.17" font-family="Helvetica,sans-Serif" font-size="10.00">_writer::write_bson_unsigned</text>
</a>
</g>
</g>
<!-- Node13&#45;&gt;Node24 -->
<g id="edge36" class="edge">
<title>Node13&#45;&gt;Node24</title>
<path fill="none" stroke="#63b8ff" d="M240.8,-246.06C253.28,-281.4 287.36,-365.39 343.25,-412.67 346.81,-415.68 350.71,-418.41 354.8,-420.88"/>
<polygon fill="#63b8ff" stroke="#63b8ff" points="352.84,-423.8 363.31,-425.46 356.16,-417.63 352.84,-423.8"/>
</g>
<!-- Node14&#45;&gt;Node15 -->
<g id="edge16" class="edge">
<title>Node14&#45;&gt;Node15</title>
<path fill="none" stroke="#63b8ff" d="M483.52,-288.26C489.83,-285.72 496.02,-282.87 501.75,-279.67 538.07,-259.39 573.4,-226.67 595.45,-204.22"/>
<polygon fill="#63b8ff" stroke="#63b8ff" points="597.75,-206.87 602.18,-197.25 592.72,-202.01 597.75,-206.87"/>
</g>
<!-- Node16 -->
<g id="node16" class="node">
<title>Node16</title>
<g id="a_node16"><a xlink:href="a02039.html#a6e11b7227fcecc25a548ed45507b7d1c" target="_top" xlink:title=" ">
<polygon fill="white" stroke="#666666" points="679,-320.67 559.5,-320.67 559.5,-288.67 679,-288.67 679,-320.67"/>
<text xml:space="preserve" text-anchor="start" x="567.5" y="-307.17" font-family="Helvetica,sans-Serif" font-size="10.00">nlohmann::detail::binary</text>
<text xml:space="preserve" text-anchor="middle" x="619.25" y="-295.17" font-family="Helvetica,sans-Serif" font-size="10.00">_writer::write_number</text>
</a>
</g>
</g>
<!-- Node14&#45;&gt;Node16 -->
<g id="edge18" class="edge">
<title>Node14&#45;&gt;Node16</title>
<path fill="none" stroke="#63b8ff" d="M487.81,-304.67C507.07,-304.67 528.3,-304.67 547.93,-304.67"/>
<polygon fill="#63b8ff" stroke="#63b8ff" points="547.76,-308.17 557.76,-304.67 547.76,-301.17 547.76,-308.17"/>
</g>
<!-- Node15&#45;&gt;Node12 -->
<g id="edge17" class="edge">
<title>Node15&#45;&gt;Node12</title>
<path fill="none" stroke="#63b8ff" d="M699.71,-170.5C713.36,-168.92 727.45,-167.29 740.83,-165.75"/>
<polygon fill="#63b8ff" stroke="#63b8ff" points="740.84,-169.27 750.37,-164.65 740.04,-162.32 740.84,-169.27"/>
</g>
<!-- Node17&#45;&gt;Node12 -->
<g id="edge20" class="edge">
<title>Node17&#45;&gt;Node12</title>
<path fill="none" stroke="#63b8ff" d="M485.31,-71.1C555,-89.63 668.07,-119.7 740.93,-139.07"/>
<polygon fill="#63b8ff" stroke="#63b8ff" points="739.8,-142.39 750.36,-141.58 741.6,-135.63 739.8,-142.39"/>
</g>
<!-- Node17&#45;&gt;Node15 -->
<g id="edge21" class="edge">
<title>Node17&#45;&gt;Node15</title>
<path fill="none" stroke="#63b8ff" d="M486.06,-71.11C491.56,-73.6 496.88,-76.43 501.75,-79.67 522.24,-93.26 519.65,-105.03 537.75,-121.67 551.69,-134.48 568.5,-146.98 583.15,-157.08"/>
<polygon fill="#63b8ff" stroke="#63b8ff" points="580.91,-159.79 591.15,-162.5 584.83,-153.99 580.91,-159.79"/>
</g>
<!-- Node18&#45;&gt;Node15 -->
<g id="edge23" class="edge">
<title>Node18&#45;&gt;Node15</title>
<path fill="none" stroke="#63b8ff" d="M477.19,-121.07C485.46,-123.81 493.87,-126.72 501.75,-129.67 525.21,-138.43 550.83,-149.28 572.05,-158.63"/>
<polygon fill="#63b8ff" stroke="#63b8ff" points="570.46,-161.75 581.02,-162.61 573.3,-155.35 570.46,-161.75"/>
</g>
<!-- Node19&#45;&gt;Node15 -->
<g id="edge25" class="edge">
<title>Node19&#45;&gt;Node15</title>
<path fill="none" stroke="#63b8ff" d="M477.19,-238.27C485.46,-235.52 493.87,-232.61 501.75,-229.67 525.21,-220.91 550.83,-210.06 572.05,-200.71"/>
<polygon fill="#63b8ff" stroke="#63b8ff" points="573.3,-203.98 581.02,-196.73 570.46,-197.58 573.3,-203.98"/>
</g>
<!-- Node20&#45;&gt;Node15 -->
<g id="edge27" class="edge">
<title>Node20&#45;&gt;Node15</title>
<path fill="none" stroke="#63b8ff" d="M482.72,-197.06C496.95,-195.24 512.47,-193.25 527.76,-191.28"/>
<polygon fill="#63b8ff" stroke="#63b8ff" points="527.86,-194.8 537.33,-190.05 526.97,-187.86 527.86,-194.8"/>
</g>
<!-- Node21&#45;&gt;Node15 -->
<g id="edge29" class="edge">
<title>Node21&#45;&gt;Node15</title>
<path fill="none" stroke="#63b8ff" d="M487.15,-338.28C492.3,-335.79 497.25,-332.93 501.75,-329.67 523.91,-313.58 521.16,-301.45 537.75,-279.67 557.45,-253.8 580.84,-224.94 597.32,-204.89"/>
<polygon fill="#63b8ff" stroke="#63b8ff" points="599.96,-207.19 603.62,-197.25 594.56,-202.74 599.96,-207.19"/>
</g>
<!-- Node22 -->
<g id="node22" class="node">
<title>Node22</title>
<g id="a_node22"><a xlink:href="a02039.html#a29b3e0f83a8e5f2307804023109ba2c9" target="_top" xlink:title=" ">
<polygon fill="white" stroke="#666666" points="684.25,-370.67 554.25,-370.67 554.25,-338.67 684.25,-338.67 684.25,-370.67"/>
<text xml:space="preserve" text-anchor="start" x="562.25" y="-357.17" font-family="Helvetica,sans-Serif" font-size="10.00">nlohmann::detail::binary</text>
<text xml:space="preserve" text-anchor="middle" x="619.25" y="-345.17" font-family="Helvetica,sans-Serif" font-size="10.00">_writer::write_bson_object</text>
</a>
</g>
</g>
<!-- Node21&#45;&gt;Node22 -->
<g id="edge30" class="edge">
<title>Node21&#45;&gt;Node22</title>
<path fill="none" stroke="#63b8ff" d="M501.31,-354.67C514.97,-354.67 529.16,-354.67 542.75,-354.67"/>
<polygon fill="#63b8ff" stroke="#63b8ff" points="542.49,-358.17 552.49,-354.67 542.49,-351.17 542.49,-358.17"/>
</g>
<!-- Node22&#45;&gt;Node9 -->
<g id="edge31" class="edge">
<title>Node22&#45;&gt;Node9</title>
<path fill="none" stroke="#63b8ff" d="M684.52,-368.49C697.66,-371.32 711.67,-374.33 725.41,-377.29"/>
<polygon fill="#63b8ff" stroke="#63b8ff" points="724.36,-380.64 734.87,-379.32 725.83,-373.8 724.36,-380.64"/>
</g>
<!-- Node22&#45;&gt;Node12 -->
<g id="edge32" class="edge">
<title>Node22&#45;&gt;Node12</title>
<path fill="none" stroke="#63b8ff" d="M684.71,-339.28C690.41,-336.57 695.86,-333.39 700.75,-329.67 751.31,-291.13 785.07,-222.2 800.76,-184.36"/>
<polygon fill="#63b8ff" stroke="#63b8ff" points="803.83,-186.11 804.31,-175.52 797.33,-183.49 803.83,-186.11"/>
</g>
<!-- Node22&#45;&gt;Node13 -->
<g id="edge33" class="edge">
<title>Node22&#45;&gt;Node13</title>
<path fill="none" stroke="#63b8ff" d="M578.37,-371.06C522.48,-391.3 419.19,-418.59 343.25,-379.67 292.89,-353.86 260.71,-292.39 245.57,-256.66"/>
<polygon fill="#63b8ff" stroke="#63b8ff" points="248.83,-255.39 241.82,-247.45 242.35,-258.03 248.83,-255.39"/>
</g>
<!-- Node23&#45;&gt;Node15 -->
<g id="edge35" class="edge">
<title>Node23&#45;&gt;Node15</title>
<path fill="none" stroke="#63b8ff" d="M486.73,-162.78C499.88,-164.47 513.97,-166.28 527.88,-168.07"/>
<polygon fill="#63b8ff" stroke="#63b8ff" points="527.1,-171.49 537.46,-169.3 527.99,-164.55 527.1,-171.49"/>
</g>
<!-- Node24&#45;&gt;Node6 -->
<g id="edge37" class="edge">
<title>Node24&#45;&gt;Node6</title>
<path fill="none" stroke="#63b8ff" d="M494.16,-434.52C551.6,-430.57 633.81,-431.07 700.75,-455.67 735.22,-468.33 767.59,-495.94 788.2,-516.27"/>
<polygon fill="#63b8ff" stroke="#63b8ff" points="785.44,-518.46 794.96,-523.12 790.43,-513.54 785.44,-518.46"/>
</g>
<!-- Node24&#45;&gt;Node15 -->
<g id="edge38" class="edge">
<title>Node24&#45;&gt;Node15</title>
<path fill="none" stroke="#63b8ff" d="M450.63,-426.35C467.38,-415.07 488.19,-398.7 501.75,-379.67 529.17,-341.2 514.62,-320.85 537.75,-279.67 553.46,-251.69 576.96,-223.56 594.51,-204.29"/>
<polygon fill="#63b8ff" stroke="#63b8ff" points="596.85,-206.92 601.08,-197.2 591.72,-202.16 596.85,-206.92"/>
</g>
</g>
</svg>
