<?xml version="1.0" encoding="UTF-8" standalone="no"?>
<!DOCTYPE svg PUBLIC "-//W3C//DTD SVG 1.1//EN"
 "http://www.w3.org/Graphics/SVG/1.1/DTD/svg11.dtd">
<!-- Generated by graphviz version 13.1.2 (20250808.2320)
 -->
<!-- Title: nlohmann::detail::serializer::dump_float Pages: 1 -->
<svg width="754pt" height="202pt"
 viewBox="0.00 0.00 754.00 202.00" xmlns="http://www.w3.org/2000/svg" xmlns:xlink="http://www.w3.org/1999/xlink">
<g id="graph0" class="graph" transform="scale(1 1) rotate(0) translate(4 198)">
<title>nlohmann::detail::serializer::dump_float</title>
<!-- Node1 -->
<g id="node1" class="node">
<title>Node1</title>
<g id="a_node1"><a xlink:title=" ">
<polygon fill="#999999" stroke="#666666" points="132.25,-135 0,-135 0,-103 132.25,-103 132.25,-135"/>
<text xml:space="preserve" text-anchor="start" x="8" y="-121.5" font-family="Helvetica,sans-Serif" font-size="10.00">nlohmann::detail::serializer</text>
<text xml:space="preserve" text-anchor="middle" x="66.12" y="-109.5" font-family="Helvetica,sans-Serif" font-size="10.00">::dump_float</text>
</a>
</g>
</g>
<!-- Node2 -->
<g id="node2" class="node">
<title>Node2</title>
<g id="a_node2"><a xlink:href="a00477.html#a4ceeb4ec7f2cd493dd9cf328044c1e3c" target="_top" xlink:title="generates a decimal representation of the floating&#45;point number value in [first, last).">
<polygon fill="white" stroke="#666666" points="269.75,-135 168.25,-135 168.25,-103 269.75,-103 269.75,-135"/>
<text xml:space="preserve" text-anchor="start" x="176.25" y="-121.5" font-family="Helvetica,sans-Serif" font-size="10.00">nlohmann::detail::to</text>
<text xml:space="preserve" text-anchor="middle" x="219" y="-109.5" font-family="Helvetica,sans-Serif" font-size="10.00">_chars</text>
</a>
</g>
</g>
<!-- Node1&#45;&gt;Node2 -->
<g id="edge1" class="edge">
<title>Node1&#45;&gt;Node2</title>
<path fill="none" stroke="#63b8ff" d="M132.42,-119C140.45,-119 148.63,-119 156.6,-119"/>
<polygon fill="#63b8ff" stroke="#63b8ff" points="156.56,-122.5 166.56,-119 156.56,-115.5 156.56,-122.5"/>
</g>
<!-- Node3 -->
<g id="node3" class="node">
<title>Node3</title>
<g id="a_node3"><a xlink:href="a00479.html#a0986c3e015db045df89506436f19e07c" target="_top" xlink:title="prettify v = buf * 10^decimal_exponent">
<polygon fill="white" stroke="#666666" points="417.75,-177 305.75,-177 305.75,-145 417.75,-145 417.75,-177"/>
<text xml:space="preserve" text-anchor="start" x="313.75" y="-163.5" font-family="Helvetica,sans-Serif" font-size="10.00">nlohmann::detail::dtoa</text>
<text xml:space="preserve" text-anchor="middle" x="361.75" y="-151.5" font-family="Helvetica,sans-Serif" font-size="10.00">_impl::format_buffer</text>
</a>
</g>
</g>
<!-- Node2&#45;&gt;Node3 -->
<g id="edge2" class="edge">
<title>Node2&#45;&gt;Node3</title>
<path fill="none" stroke="#63b8ff" d="M270.02,-133.93C278.04,-136.32 286.45,-138.83 294.77,-141.31"/>
<polygon fill="#63b8ff" stroke="#63b8ff" points="293.6,-144.61 304.18,-144.12 295.6,-137.91 293.6,-144.61"/>
</g>
<!-- Node5 -->
<g id="node5" class="node">
<title>Node5</title>
<g id="a_node5"><a xlink:href="a00479.html#a05b681dcb8569b9784c6dccfadb01633" target="_top" xlink:title=" ">
<polygon fill="white" stroke="#666666" points="417.75,-110 305.75,-110 305.75,-78 417.75,-78 417.75,-110"/>
<text xml:space="preserve" text-anchor="start" x="313.75" y="-96.5" font-family="Helvetica,sans-Serif" font-size="10.00">nlohmann::detail::dtoa</text>
<text xml:space="preserve" text-anchor="middle" x="361.75" y="-84.5" font-family="Helvetica,sans-Serif" font-size="10.00">_impl::grisu2</text>
</a>
</g>
</g>
<!-- Node2&#45;&gt;Node5 -->
<g id="edge4" class="edge">
<title>Node2&#45;&gt;Node5</title>
<path fill="none" stroke="#63b8ff" d="M270.02,-110.12C277.95,-108.71 286.26,-107.23 294.49,-105.77"/>
<polygon fill="#63b8ff" stroke="#63b8ff" points="294.91,-109.25 304.14,-104.06 293.68,-102.36 294.91,-109.25"/>
</g>
<!-- Node4 -->
<g id="node4" class="node">
<title>Node4</title>
<g id="a_node4"><a xlink:href="a00479.html#a78ad745d14b79fc65714c9938981faf6" target="_top" xlink:title="appends a decimal representation of e to buf">
<polygon fill="white" stroke="#666666" points="578.12,-194 456.38,-194 456.38,-162 578.12,-162 578.12,-194"/>
<text xml:space="preserve" text-anchor="start" x="464.38" y="-180.5" font-family="Helvetica,sans-Serif" font-size="10.00">nlohmann::detail::dtoa</text>
<text xml:space="preserve" text-anchor="middle" x="517.25" y="-168.5" font-family="Helvetica,sans-Serif" font-size="10.00">_impl::append_exponent</text>
</a>
</g>
</g>
<!-- Node3&#45;&gt;Node4 -->
<g id="edge3" class="edge">
<title>Node3&#45;&gt;Node4</title>
<path fill="none" stroke="#63b8ff" d="M418.17,-167.14C426.8,-168.09 435.83,-169.09 444.76,-170.08"/>
<polygon fill="#63b8ff" stroke="#63b8ff" points="444.15,-173.54 454.48,-171.16 444.92,-166.58 444.15,-173.54"/>
</g>
<!-- Node6 -->
<g id="node6" class="node">
<title>Node6</title>
<g id="a_node6"><a xlink:href="a00479.html#adbf329a18c5cf854a3477327afd2200b" target="_top" xlink:title=" ">
<polygon fill="white" stroke="#666666" points="580.75,-144 453.75,-144 453.75,-100 580.75,-100 580.75,-144"/>
<text xml:space="preserve" text-anchor="start" x="461.75" y="-130.5" font-family="Helvetica,sans-Serif" font-size="10.00">nlohmann::detail::dtoa</text>
<text xml:space="preserve" text-anchor="start" x="461.75" y="-118.5" font-family="Helvetica,sans-Serif" font-size="10.00">_impl::get_cached_power</text>
<text xml:space="preserve" text-anchor="middle" x="517.25" y="-106.5" font-family="Helvetica,sans-Serif" font-size="10.00">_for_binary_exponent</text>
</a>
</g>
</g>
<!-- Node5&#45;&gt;Node6 -->
<g id="edge5" class="edge">
<title>Node5&#45;&gt;Node6</title>
<path fill="none" stroke="#63b8ff" d="M418.17,-104.11C425.93,-105.52 434.01,-107 442.05,-108.47"/>
<polygon fill="#63b8ff" stroke="#63b8ff" points="441.4,-111.91 451.87,-110.26 442.66,-105.02 441.4,-111.91"/>
</g>
<!-- Node7 -->
<g id="node7" class="node">
<title>Node7</title>
<g id="a_node7"><a xlink:href="a00479.html#a9b899c72b0e1e3dd46d75c2b4e6bcdfb" target="_top" xlink:title=" ">
<polygon fill="white" stroke="#666666" points="575.12,-82 459.38,-82 459.38,-50 575.12,-50 575.12,-82"/>
<text xml:space="preserve" text-anchor="start" x="467.38" y="-68.5" font-family="Helvetica,sans-Serif" font-size="10.00">nlohmann::detail::dtoa</text>
<text xml:space="preserve" text-anchor="middle" x="517.25" y="-56.5" font-family="Helvetica,sans-Serif" font-size="10.00">_impl::grisu2_digit_gen</text>
</a>
</g>
</g>
<!-- Node5&#45;&gt;Node7 -->
<g id="edge6" class="edge">
<title>Node5&#45;&gt;Node7</title>
<path fill="none" stroke="#63b8ff" d="M418.17,-83.89C427.84,-82.13 438,-80.27 447.97,-78.46"/>
<polygon fill="#63b8ff" stroke="#63b8ff" points="448.41,-81.93 457.62,-76.7 447.15,-75.05 448.41,-81.93"/>
</g>
<!-- Node11 -->
<g id="node11" class="node">
<title>Node11</title>
<g id="a_node11"><a xlink:href="a02043.html#aa5f250d12ce89c81fdb08900c6a823e8" target="_top" xlink:title="returns x * y">
<polygon fill="white" stroke="#666666" points="573.25,-32 461.25,-32 461.25,0 573.25,0 573.25,-32"/>
<text xml:space="preserve" text-anchor="start" x="469.25" y="-18.5" font-family="Helvetica,sans-Serif" font-size="10.00">nlohmann::detail::dtoa</text>
<text xml:space="preserve" text-anchor="middle" x="517.25" y="-6.5" font-family="Helvetica,sans-Serif" font-size="10.00">_impl::diyfp::mul</text>
</a>
</g>
</g>
<!-- Node5&#45;&gt;Node11 -->
<g id="edge10" class="edge">
<title>Node5&#45;&gt;Node11</title>
<path fill="none" stroke="#63b8ff" d="M388.48,-77.65C406.4,-66.6 431.07,-52.06 453.75,-41 456.61,-39.61 459.56,-38.23 462.56,-36.87"/>
<polygon fill="#63b8ff" stroke="#63b8ff" points="463.69,-40.2 471.47,-33 460.9,-33.78 463.69,-40.2"/>
</g>
<!-- Node8 -->
<g id="node8" class="node">
<title>Node8</title>
<g id="a_node8"><a xlink:href="a00479.html#a36ded358763b5dbcea9867660fbe4e28" target="_top" xlink:title=" ">
<polygon fill="white" stroke="#666666" points="746,-132 616.75,-132 616.75,-100 746,-100 746,-132"/>
<text xml:space="preserve" text-anchor="start" x="624.75" y="-118.5" font-family="Helvetica,sans-Serif" font-size="10.00">nlohmann::detail::dtoa</text>
<text xml:space="preserve" text-anchor="middle" x="681.38" y="-106.5" font-family="Helvetica,sans-Serif" font-size="10.00">_impl::find_largest_pow10</text>
</a>
</g>
</g>
<!-- Node7&#45;&gt;Node8 -->
<g id="edge7" class="edge">
<title>Node7&#45;&gt;Node8</title>
<path fill="none" stroke="#63b8ff" d="M571.34,-82.37C585.68,-86.8 601.35,-91.63 616.23,-96.22"/>
<polygon fill="#63b8ff" stroke="#63b8ff" points="614.86,-99.46 625.45,-99.06 616.92,-92.77 614.86,-99.46"/>
</g>
<!-- Node9 -->
<g id="node9" class="node">
<title>Node9</title>
<g id="a_node9"><a xlink:href="a00479.html#a5bc841e0bee12fd6489d49cf7bd07bb4" target="_top" xlink:title=" ">
<polygon fill="white" stroke="#666666" points="737.38,-82 625.38,-82 625.38,-50 737.38,-50 737.38,-82"/>
<text xml:space="preserve" text-anchor="start" x="633.38" y="-68.5" font-family="Helvetica,sans-Serif" font-size="10.00">nlohmann::detail::dtoa</text>
<text xml:space="preserve" text-anchor="middle" x="681.38" y="-56.5" font-family="Helvetica,sans-Serif" font-size="10.00">_impl::grisu2_round</text>
</a>
</g>
</g>
<!-- Node7&#45;&gt;Node9 -->
<g id="edge8" class="edge">
<title>Node7&#45;&gt;Node9</title>
<path fill="none" stroke="#63b8ff" d="M575.41,-66C587.76,-66 600.93,-66 613.62,-66"/>
<polygon fill="#63b8ff" stroke="#63b8ff" points="613.58,-69.5 623.58,-66 613.58,-62.5 613.58,-69.5"/>
</g>
<!-- Node10 -->
<g id="node10" class="node">
<title>Node10</title>
<g id="a_node10"><a xlink:href="a02043.html#aeb26771af54ad73598c1a0430d65d884" target="_top" xlink:title="returns x &#45; y">
<polygon fill="white" stroke="#666666" points="737.38,-32 625.38,-32 625.38,0 737.38,0 737.38,-32"/>
<text xml:space="preserve" text-anchor="start" x="633.38" y="-18.5" font-family="Helvetica,sans-Serif" font-size="10.00">nlohmann::detail::dtoa</text>
<text xml:space="preserve" text-anchor="middle" x="681.38" y="-6.5" font-family="Helvetica,sans-Serif" font-size="10.00">_impl::diyfp::sub</text>
</a>
</g>
</g>
<!-- Node7&#45;&gt;Node10 -->
<g id="edge9" class="edge">
<title>Node7&#45;&gt;Node10</title>
<path fill="none" stroke="#63b8ff" d="M571.34,-49.63C585.68,-45.2 601.35,-40.37 616.23,-35.78"/>
<polygon fill="#63b8ff" stroke="#63b8ff" points="616.92,-39.23 625.45,-32.94 614.86,-32.54 616.92,-39.23"/>
</g>
</g>
</svg>
