<?xml version="1.0" encoding="UTF-8" standalone="no"?>
<!DOCTYPE svg PUBLIC "-//W3C//DTD SVG 1.1//EN"
 "http://www.w3.org/Graphics/SVG/1.1/DTD/svg11.dtd">
<!-- Generated by graphviz version 13.1.2 (20250808.2320)
 -->
<!-- Title: nlohmann::basic_json&lt; ObjectType, ArrayType, StringType, BooleanType, NumberIntegerType, NumberUnsignedType, NumberFloatType, AllocatorType, JSONSerializer, BinaryType &gt;::json_value Pages: 1 -->
<svg width="645pt" height="306pt"
 viewBox="0.00 0.00 645.00 306.00" xmlns="http://www.w3.org/2000/svg" xmlns:xlink="http://www.w3.org/1999/xlink">
<g id="graph0" class="graph" transform="scale(1 1) rotate(0) translate(4 302)">
<title>nlohmann::basic_json&lt; ObjectType, ArrayType, StringType, BooleanType, NumberIntegerType, NumberUnsignedType, NumberFloatType, AllocatorType, JSONSerializer, BinaryType &gt;::json_value</title>
<!-- Node1 -->
<g id="node1" class="node">
<title>Node1</title>
<g id="a_node1"><a xlink:title="a JSON value">
<polygon fill="#999999" stroke="#666666" points="636.75,-186 434,-186 434,-106 636.75,-106 636.75,-186"/>
<text xml:space="preserve" text-anchor="start" x="442" y="-172.5" font-family="Helvetica,sans-Serif" font-size="10.00">nlohmann::basic_json</text>
<text xml:space="preserve" text-anchor="start" x="442" y="-160.5" font-family="Helvetica,sans-Serif" font-size="10.00">&lt; ObjectType, ArrayType,</text>
<text xml:space="preserve" text-anchor="start" x="442" y="-148.5" font-family="Helvetica,sans-Serif" font-size="10.00"> StringType, BooleanType,</text>
<text xml:space="preserve" text-anchor="start" x="442" y="-136.5" font-family="Helvetica,sans-Serif" font-size="10.00"> NumberIntegerType, NumberUnsigned</text>
<text xml:space="preserve" text-anchor="start" x="442" y="-124.5" font-family="Helvetica,sans-Serif" font-size="10.00">Type, NumberFloatType, AllocatorType,</text>
<text xml:space="preserve" text-anchor="middle" x="535.38" y="-112.5" font-family="Helvetica,sans-Serif" font-size="10.00"> JSONSerializer, BinaryType &gt;::json_value</text>
</a>
</g>
</g>
<!-- Node2 -->
<g id="node2" class="node">
<title>Node2</title>
<g id="a_node2"><a xlink:title=" ">
<polygon fill="white" stroke="#666666" points="274.25,-298 217,-298 217,-278 274.25,-278 274.25,-298"/>
<text xml:space="preserve" text-anchor="middle" x="245.62" y="-284.5" font-family="Helvetica,sans-Serif" font-size="10.00">object_t *</text>
</a>
</g>
</g>
<!-- Node2&#45;&gt;Node1 -->
<g id="edge1" class="edge">
<title>Node2&#45;&gt;Node1</title>
<path fill="none" stroke="#9a32cd" stroke-dasharray="5,2" d="M286.09,-284.41C321.66,-279.93 374.57,-270.11 416,-249 446.71,-233.36 475.97,-208.02 497.72,-186.4"/>
<polygon fill="#9a32cd" stroke="#9a32cd" points="285.76,-280.93 276.24,-285.56 286.57,-287.88 285.76,-280.93"/>
<text xml:space="preserve" text-anchor="middle" x="376.25" y="-277.54" font-family="Helvetica,sans-Serif" font-size="10.00"> object</text>
</g>
<!-- Node3 -->
<g id="node3" class="node">
<title>Node3</title>
<g id="a_node3"><a xlink:title=" ">
<polygon fill="white" stroke="#666666" points="272,-260 219.25,-260 219.25,-240 272,-240 272,-260"/>
<text xml:space="preserve" text-anchor="middle" x="245.62" y="-246.5" font-family="Helvetica,sans-Serif" font-size="10.00">array_t *</text>
</a>
</g>
</g>
<!-- Node3&#45;&gt;Node1 -->
<g id="edge2" class="edge">
<title>Node3&#45;&gt;Node1</title>
<path fill="none" stroke="#9a32cd" stroke-dasharray="5,2" d="M283.28,-244.23C318.16,-238.07 371.73,-226.85 416,-210 433.03,-203.52 450.67,-195.04 466.97,-186.39"/>
<polygon fill="#9a32cd" stroke="#9a32cd" points="282.97,-240.73 273.7,-245.87 284.15,-247.63 282.97,-240.73"/>
<text xml:space="preserve" text-anchor="middle" x="376.25" y="-235.46" font-family="Helvetica,sans-Serif" font-size="10.00"> array</text>
</g>
<!-- Node4 -->
<g id="node4" class="node">
<title>Node4</title>
<g id="a_node4"><a xlink:title=" ">
<polygon fill="white" stroke="#666666" points="273.12,-222 218.12,-222 218.12,-202 273.12,-202 273.12,-222"/>
<text xml:space="preserve" text-anchor="middle" x="245.62" y="-208.5" font-family="Helvetica,sans-Serif" font-size="10.00">string_t *</text>
</a>
</g>
</g>
<!-- Node4&#45;&gt;Node1 -->
<g id="edge3" class="edge">
<title>Node4&#45;&gt;Node1</title>
<path fill="none" stroke="#9a32cd" stroke-dasharray="5,2" d="M284.37,-204.79C318.77,-198.08 370.95,-187.55 416,-177 421.79,-175.64 427.73,-174.21 433.72,-172.74"/>
<polygon fill="#9a32cd" stroke="#9a32cd" points="284.05,-201.28 274.9,-206.63 285.38,-208.16 284.05,-201.28"/>
<text xml:space="preserve" text-anchor="middle" x="376.25" y="-196.67" font-family="Helvetica,sans-Serif" font-size="10.00"> string</text>
</g>
<!-- Node5 -->
<g id="node5" class="node">
<title>Node5</title>
<g id="a_node5"><a xlink:href="a01915.html" target="_top" xlink:title="an internal type for a backed binary type">
<polygon fill="white" stroke="#666666" points="318.5,-184 172.75,-184 172.75,-152 318.5,-152 318.5,-184"/>
<text xml:space="preserve" text-anchor="start" x="180.75" y="-170.5" font-family="Helvetica,sans-Serif" font-size="10.00">nlohmann::byte_container</text>
<text xml:space="preserve" text-anchor="middle" x="245.62" y="-158.5" font-family="Helvetica,sans-Serif" font-size="10.00">_with_subtype&lt; BinaryType &gt;</text>
</a>
</g>
</g>
<!-- Node5&#45;&gt;Node1 -->
<g id="edge4" class="edge">
<title>Node5&#45;&gt;Node1</title>
<path fill="none" stroke="#9a32cd" stroke-dasharray="5,2" d="M330.08,-161.62C362.42,-159.15 399.74,-156.29 433.56,-153.71"/>
<polygon fill="#9a32cd" stroke="#9a32cd" points="330.08,-158.11 320.37,-162.36 330.61,-165.09 330.08,-158.11"/>
<text xml:space="preserve" text-anchor="middle" x="376.25" y="-163.38" font-family="Helvetica,sans-Serif" font-size="10.00"> binary</text>
</g>
<!-- Node6 -->
<g id="node6" class="node">
<title>Node6</title>
<g id="a_node6"><a xlink:href="a03507.html" target="_top" xlink:title=" ">
<polygon fill="white" stroke="#666666" points="64.75,-216 0,-216 0,-196 64.75,-196 64.75,-216"/>
<text xml:space="preserve" text-anchor="middle" x="32.38" y="-202.5" font-family="Helvetica,sans-Serif" font-size="10.00">BinaryType</text>
</a>
</g>
</g>
<!-- Node6&#45;&gt;Node5 -->
<g id="edge5" class="edge">
<title>Node6&#45;&gt;Node5</title>
<path fill="none" stroke="#63b8ff" d="M76.25,-198.29C103.87,-193.32 140.46,-186.74 172.48,-180.98"/>
<polygon fill="#63b8ff" stroke="#63b8ff" points="75.71,-194.83 66.49,-200.04 76.95,-201.72 75.71,-194.83"/>
</g>
<!-- Node7 -->
<g id="node7" class="node">
<title>Node7</title>
<g id="a_node7"><a xlink:title=" ">
<polygon fill="white" stroke="#666666" points="55,-178 9.75,-178 9.75,-158 55,-158 55,-178"/>
<text xml:space="preserve" text-anchor="middle" x="32.38" y="-164.5" font-family="Helvetica,sans-Serif" font-size="10.00">uint8_t</text>
</a>
</g>
</g>
<!-- Node7&#45;&gt;Node5 -->
<g id="edge6" class="edge">
<title>Node7&#45;&gt;Node5</title>
<path fill="none" stroke="#9a32cd" stroke-dasharray="5,2" d="M66.44,-168C94.76,-168 136.53,-168 172.52,-168"/>
<polygon fill="#9a32cd" stroke="#9a32cd" points="66.7,-164.5 56.7,-168 66.7,-171.5 66.7,-164.5"/>
<text xml:space="preserve" text-anchor="middle" x="118.75" y="-170.5" font-family="Helvetica,sans-Serif" font-size="10.00"> m_subtype</text>
</g>
<!-- Node8 -->
<g id="node8" class="node">
<title>Node8</title>
<g id="a_node8"><a xlink:title=" ">
<polygon fill="white" stroke="#666666" points="49.38,-140 15.38,-140 15.38,-120 49.38,-120 49.38,-140"/>
<text xml:space="preserve" text-anchor="middle" x="32.38" y="-126.5" font-family="Helvetica,sans-Serif" font-size="10.00">bool</text>
</a>
</g>
</g>
<!-- Node8&#45;&gt;Node5 -->
<g id="edge7" class="edge">
<title>Node8&#45;&gt;Node5</title>
<path fill="none" stroke="#9a32cd" stroke-dasharray="5,2" d="M60.57,-134.89C88.75,-139.96 134.01,-148.1 172.59,-155.04"/>
<polygon fill="#9a32cd" stroke="#9a32cd" points="61.55,-131.51 51.09,-133.19 60.31,-138.4 61.55,-131.51"/>
<text xml:space="preserve" text-anchor="middle" x="118.75" y="-153.78" font-family="Helvetica,sans-Serif" font-size="10.00"> m_has_subtype</text>
</g>
<!-- Node9 -->
<g id="node9" class="node">
<title>Node9</title>
<g id="a_node9"><a xlink:title=" ">
<polygon fill="white" stroke="#666666" points="281.75,-134 209.5,-134 209.5,-114 281.75,-114 281.75,-134"/>
<text xml:space="preserve" text-anchor="middle" x="245.62" y="-120.5" font-family="Helvetica,sans-Serif" font-size="10.00">BooleanType</text>
</a>
</g>
</g>
<!-- Node9&#45;&gt;Node1 -->
<g id="edge8" class="edge">
<title>Node9&#45;&gt;Node1</title>
<path fill="none" stroke="#9a32cd" stroke-dasharray="5,2" d="M293.38,-127.58C331.26,-130.47 385.98,-134.65 433.7,-138.3"/>
<polygon fill="#9a32cd" stroke="#9a32cd" points="293.94,-124.11 283.71,-126.84 293.41,-131.09 293.94,-124.11"/>
<text xml:space="preserve" text-anchor="middle" x="376.25" y="-138.82" font-family="Helvetica,sans-Serif" font-size="10.00"> boolean</text>
</g>
<!-- Node10 -->
<g id="node10" class="node">
<title>Node10</title>
<g id="a_node10"><a xlink:title=" ">
<polygon fill="white" stroke="#666666" points="296.38,-96 194.88,-96 194.88,-76 296.38,-76 296.38,-96"/>
<text xml:space="preserve" text-anchor="middle" x="245.62" y="-82.5" font-family="Helvetica,sans-Serif" font-size="10.00">NumberIntegerType</text>
</a>
</g>
</g>
<!-- Node10&#45;&gt;Node1 -->
<g id="edge9" class="edge">
<title>Node10&#45;&gt;Node1</title>
<path fill="none" stroke="#9a32cd" stroke-dasharray="5,2" d="M307.94,-95.19C340.22,-100.35 380.39,-107.3 416,-115 421.81,-116.26 427.77,-117.61 433.77,-119.02"/>
<polygon fill="#9a32cd" stroke="#9a32cd" points="308.79,-91.78 298.36,-93.67 307.69,-98.69 308.79,-91.78"/>
<text xml:space="preserve" text-anchor="middle" x="376.25" y="-117.5" font-family="Helvetica,sans-Serif" font-size="10.00"> number_integer</text>
</g>
<!-- Node11 -->
<g id="node11" class="node">
<title>Node11</title>
<g id="a_node11"><a xlink:title=" ">
<polygon fill="white" stroke="#666666" points="302,-58 189.25,-58 189.25,-38 302,-38 302,-58"/>
<text xml:space="preserve" text-anchor="middle" x="245.62" y="-44.5" font-family="Helvetica,sans-Serif" font-size="10.00">NumberUnsignedType</text>
</a>
</g>
</g>
<!-- Node11&#45;&gt;Node1 -->
<g id="edge10" class="edge">
<title>Node11&#45;&gt;Node1</title>
<path fill="none" stroke="#9a32cd" stroke-dasharray="5,2" d="M313.15,-57.8C344.86,-63.57 382.99,-72.1 416,-84 432.26,-89.86 449.08,-97.56 464.76,-105.53"/>
<polygon fill="#9a32cd" stroke="#9a32cd" points="314.17,-54.43 303.71,-56.14 312.95,-61.32 314.17,-54.43"/>
<text xml:space="preserve" text-anchor="middle" x="376.25" y="-86.5" font-family="Helvetica,sans-Serif" font-size="10.00"> number_unsigned</text>
</g>
<!-- Node12 -->
<g id="node12" class="node">
<title>Node12</title>
<g id="a_node12"><a xlink:title=" ">
<polygon fill="white" stroke="#666666" points="292.25,-20 199,-20 199,0 292.25,0 292.25,-20"/>
<text xml:space="preserve" text-anchor="middle" x="245.62" y="-6.5" font-family="Helvetica,sans-Serif" font-size="10.00">NumberFloatType</text>
</a>
</g>
</g>
<!-- Node12&#45;&gt;Node1 -->
<g id="edge11" class="edge">
<title>Node12&#45;&gt;Node1</title>
<path fill="none" stroke="#9a32cd" stroke-dasharray="5,2" d="M303.58,-15.52C337.56,-20.47 380.79,-29.74 416,-47 445.71,-61.56 474.3,-85.12 495.94,-105.6"/>
<polygon fill="#9a32cd" stroke="#9a32cd" points="304.32,-12.09 293.94,-14.21 303.37,-19.02 304.32,-12.09"/>
<text xml:space="preserve" text-anchor="middle" x="376.25" y="-49.5" font-family="Helvetica,sans-Serif" font-size="10.00"> number_float</text>
</g>
</g>
</svg>
