<?xml version="1.0" encoding="UTF-8" standalone="no"?>
<!DOCTYPE svg PUBLIC "-//W3C//DTD SVG 1.1//EN"
 "http://www.w3.org/Graphics/SVG/1.1/DTD/svg11.dtd">
<!-- Generated by graphviz version 13.1.2 (20250808.2320)
 -->
<!-- Title: nlohmann::detail::binary_writer::write_number_with_ubjson_prefix Pages: 1 -->
<svg width="443pt" height="70pt"
 viewBox="0.00 0.00 443.00 70.00" xmlns="http://www.w3.org/2000/svg" xmlns:xlink="http://www.w3.org/1999/xlink">
<g id="graph0" class="graph" transform="scale(1 1) rotate(0) translate(4 66)">
<title>nlohmann::detail::binary_writer::write_number_with_ubjson_prefix</title>
<!-- Node1 -->
<g id="node1" class="node">
<title>Node1</title>
<g id="a_node1"><a xlink:title=" ">
<polygon fill="#999999" stroke="#666666" points="435,-44 302,-44 302,0 435,0 435,-44"/>
<text xml:space="preserve" text-anchor="start" x="310" y="-30.5" font-family="Helvetica,sans-Serif" font-size="10.00">nlohmann::detail::binary</text>
<text xml:space="preserve" text-anchor="start" x="310" y="-18.5" font-family="Helvetica,sans-Serif" font-size="10.00">_writer::write_number_with</text>
<text xml:space="preserve" text-anchor="middle" x="368.5" y="-6.5" font-family="Helvetica,sans-Serif" font-size="10.00">_ubjson_prefix</text>
</a>
</g>
</g>
<!-- Node1&#45;&gt;Node1 -->
<g id="edge1" class="edge">
<title>Node1&#45;&gt;Node1</title>
<path fill="none" stroke="#63b8ff" d="M395.01,-55.09C390.34,-59.26 381.51,-62 368.5,-62 346,-62 335.98,-53.8 338.44,-44.21"/>
<polygon fill="#63b8ff" stroke="#63b8ff" points="398.31,-56.24 398.09,-45.65 391.66,-54.07 398.31,-56.24"/>
</g>
<!-- Node2 -->
<g id="node2" class="node">
<title>Node2</title>
<g id="a_node2"><a xlink:href="a02039.html#a0f6c65053d859269f88eb4ebb0cd7060" target="_top" xlink:title=" ">
<polygon fill="white" stroke="#666666" points="266,-38 146.5,-38 146.5,-6 266,-6 266,-38"/>
<text xml:space="preserve" text-anchor="start" x="154.5" y="-24.5" font-family="Helvetica,sans-Serif" font-size="10.00">nlohmann::detail::binary</text>
<text xml:space="preserve" text-anchor="middle" x="206.25" y="-12.5" font-family="Helvetica,sans-Serif" font-size="10.00">_writer::write_ubjson</text>
</a>
</g>
</g>
<!-- Node1&#45;&gt;Node2 -->
<g id="edge2" class="edge">
<title>Node1&#45;&gt;Node2</title>
<path fill="none" stroke="#63b8ff" d="M290.46,-22C282.36,-22 274.21,-22 266.36,-22"/>
<polygon fill="#63b8ff" stroke="#63b8ff" points="290.34,-25.5 300.34,-22 290.34,-18.5 290.34,-25.5"/>
</g>
<!-- Node2&#45;&gt;Node2 -->
<g id="edge4" class="edge">
<title>Node2&#45;&gt;Node2</title>
<path fill="none" stroke="#63b8ff" d="M231.41,-49.71C227.22,-53.48 218.83,-56 206.25,-56 183.25,-56 174.26,-47.58 179.29,-38.44"/>
<polygon fill="#63b8ff" stroke="#63b8ff" points="234.85,-50.36 232.97,-39.94 227.94,-49.26 234.85,-50.36"/>
</g>
<!-- Node3 -->
<g id="node3" class="node">
<title>Node3</title>
<g id="a_node3"><a xlink:href="a01659.html#a19dad92c4fe9e6a289a93195e1230e97" target="_top" xlink:title=" ">
<polygon fill="white" stroke="#666666" points="110.5,-38 0,-38 0,-6 110.5,-6 110.5,-38"/>
<text xml:space="preserve" text-anchor="start" x="8" y="-24.5" font-family="Helvetica,sans-Serif" font-size="10.00">nlohmann::basic_json</text>
<text xml:space="preserve" text-anchor="middle" x="55.25" y="-12.5" font-family="Helvetica,sans-Serif" font-size="10.00">::to_ubjson</text>
</a>
</g>
</g>
<!-- Node2&#45;&gt;Node3 -->
<g id="edge3" class="edge">
<title>Node2&#45;&gt;Node3</title>
<path fill="none" stroke="#63b8ff" d="M134.98,-22C126.87,-22 118.69,-22 110.83,-22"/>
<polygon fill="#63b8ff" stroke="#63b8ff" points="134.85,-25.5 144.85,-22 134.85,-18.5 134.85,-25.5"/>
</g>
</g>
</svg>
