<?xml version="1.0" encoding="UTF-8" standalone="no"?>
<!DOCTYPE svg PUBLIC "-//W3C//DTD SVG 1.1//EN"
 "http://www.w3.org/Graphics/SVG/1.1/DTD/svg11.dtd">
<!-- Generated by graphviz version 13.1.2 (20250808.2320)
 -->
<!-- Title: nlohmann::detail::binary_writer::write_ubjson Pages: 1 -->
<svg width="484pt" height="152pt"
 viewBox="0.00 0.00 484.00 152.00" xmlns="http://www.w3.org/2000/svg" xmlns:xlink="http://www.w3.org/1999/xlink">
<g id="graph0" class="graph" transform="scale(1 1) rotate(0) translate(4 148)">
<title>nlohmann::detail::binary_writer::write_ubjson</title>
<!-- Node1 -->
<g id="node1" class="node">
<title>Node1</title>
<g id="a_node1"><a xlink:title=" ">
<polygon fill="#999999" stroke="#666666" points="119.5,-94 0,-94 0,-62 119.5,-62 119.5,-94"/>
<text xml:space="preserve" text-anchor="start" x="8" y="-80.5" font-family="Helvetica,sans-Serif" font-size="10.00">nlohmann::detail::binary</text>
<text xml:space="preserve" text-anchor="middle" x="59.75" y="-68.5" font-family="Helvetica,sans-Serif" font-size="10.00">_writer::write_ubjson</text>
</a>
</g>
</g>
<!-- Node1&#45;&gt;Node1 -->
<g id="edge7" class="edge">
<title>Node1&#45;&gt;Node1</title>
<path fill="none" stroke="#63b8ff" d="M30.78,-94.44C25.38,-103.58 35.03,-112 59.75,-112 73.27,-112 82.28,-109.48 86.79,-105.71"/>
<polygon fill="#63b8ff" stroke="#63b8ff" points="90.22,-106.38 88.46,-95.93 83.32,-105.2 90.22,-106.38"/>
</g>
<!-- Node2 -->
<g id="node2" class="node">
<title>Node2</title>
<g id="a_node2"><a xlink:href="a02039.html#ab77aa48692bd4e64e4f051ce6aeb6d2d" target="_top" xlink:title=" ">
<polygon fill="white" stroke="#666666" points="281.75,-144 162.25,-144 162.25,-112 281.75,-112 281.75,-144"/>
<text xml:space="preserve" text-anchor="start" x="170.25" y="-130.5" font-family="Helvetica,sans-Serif" font-size="10.00">nlohmann::detail::binary</text>
<text xml:space="preserve" text-anchor="middle" x="222" y="-118.5" font-family="Helvetica,sans-Serif" font-size="10.00">_writer::to_char_type</text>
</a>
</g>
</g>
<!-- Node1&#45;&gt;Node2 -->
<g id="edge1" class="edge">
<title>Node1&#45;&gt;Node2</title>
<path fill="none" stroke="#63b8ff" d="M113.22,-94.37C127.26,-98.75 142.59,-103.54 157.17,-108.08"/>
<polygon fill="#63b8ff" stroke="#63b8ff" points="156.1,-111.42 166.69,-111.05 158.19,-104.74 156.1,-111.42"/>
</g>
<!-- Node3 -->
<g id="node3" class="node">
<title>Node3</title>
<g id="a_node3"><a xlink:href="a02039.html#a4c129249a5aee8e4ec8add6c6184e4f7" target="_top" xlink:title="determine the type prefix of container values">
<polygon fill="white" stroke="#666666" points="281.75,-94 162.25,-94 162.25,-62 281.75,-62 281.75,-94"/>
<text xml:space="preserve" text-anchor="start" x="170.25" y="-80.5" font-family="Helvetica,sans-Serif" font-size="10.00">nlohmann::detail::binary</text>
<text xml:space="preserve" text-anchor="middle" x="222" y="-68.5" font-family="Helvetica,sans-Serif" font-size="10.00">_writer::ubjson_prefix</text>
</a>
</g>
</g>
<!-- Node1&#45;&gt;Node3 -->
<g id="edge2" class="edge">
<title>Node1&#45;&gt;Node3</title>
<path fill="none" stroke="#63b8ff" d="M119.97,-78C129.88,-78 140.25,-78 150.41,-78"/>
<polygon fill="#63b8ff" stroke="#63b8ff" points="150.25,-81.5 160.25,-78 150.25,-74.5 150.25,-81.5"/>
</g>
<!-- Node5 -->
<g id="node5" class="node">
<title>Node5</title>
<g id="a_node5"><a xlink:href="a02039.html#a0ea6745f944c0c61672146886b4ee90f" target="_top" xlink:title=" ">
<polygon fill="white" stroke="#666666" points="288.5,-44 155.5,-44 155.5,0 288.5,0 288.5,-44"/>
<text xml:space="preserve" text-anchor="start" x="163.5" y="-30.5" font-family="Helvetica,sans-Serif" font-size="10.00">nlohmann::detail::binary</text>
<text xml:space="preserve" text-anchor="start" x="163.5" y="-18.5" font-family="Helvetica,sans-Serif" font-size="10.00">_writer::write_number_with</text>
<text xml:space="preserve" text-anchor="middle" x="222" y="-6.5" font-family="Helvetica,sans-Serif" font-size="10.00">_ubjson_prefix</text>
</a>
</g>
</g>
<!-- Node1&#45;&gt;Node5 -->
<g id="edge4" class="edge">
<title>Node1&#45;&gt;Node5</title>
<path fill="none" stroke="#63b8ff" d="M107.96,-61.5C119.94,-57.32 133.1,-52.72 146.07,-48.18"/>
<polygon fill="#63b8ff" stroke="#63b8ff" points="147.19,-51.5 155.47,-44.9 144.88,-44.89 147.19,-51.5"/>
</g>
<!-- Node4 -->
<g id="node4" class="node">
<title>Node4</title>
<g id="a_node4"><a xlink:href="a02039.html#a6837b20574152f7f645d0f6cd9fafdeb" target="_top" xlink:title=" ">
<polygon fill="white" stroke="#666666" points="476.25,-91 324.5,-91 324.5,-59 476.25,-59 476.25,-91"/>
<text xml:space="preserve" text-anchor="start" x="332.5" y="-77.5" font-family="Helvetica,sans-Serif" font-size="10.00">nlohmann::detail::binary</text>
<text xml:space="preserve" text-anchor="middle" x="400.38" y="-65.5" font-family="Helvetica,sans-Serif" font-size="10.00">_writer::get_ubjson_float_prefix</text>
</a>
</g>
</g>
<!-- Node3&#45;&gt;Node4 -->
<g id="edge3" class="edge">
<title>Node3&#45;&gt;Node4</title>
<path fill="none" stroke="#63b8ff" d="M282.22,-76.99C292.07,-76.83 302.46,-76.65 312.82,-76.47"/>
<polygon fill="#63b8ff" stroke="#63b8ff" points="312.57,-79.98 322.51,-76.31 312.45,-72.98 312.57,-79.98"/>
</g>
<!-- Node5&#45;&gt;Node4 -->
<g id="edge5" class="edge">
<title>Node5&#45;&gt;Node4</title>
<path fill="none" stroke="#63b8ff" d="M288.93,-41.81C303.51,-46.19 318.96,-50.83 333.53,-55.21"/>
<polygon fill="#63b8ff" stroke="#63b8ff" points="332.45,-58.54 343.03,-58.07 334.46,-51.84 332.45,-58.54"/>
</g>
<!-- Node6 -->
<g id="node6" class="node">
<title>Node6</title>
<g id="a_node6"><a xlink:href="a02039.html#a6e11b7227fcecc25a548ed45507b7d1c" target="_top" xlink:title=" ">
<polygon fill="white" stroke="#666666" points="460.12,-38 340.62,-38 340.62,-6 460.12,-6 460.12,-38"/>
<text xml:space="preserve" text-anchor="start" x="348.62" y="-24.5" font-family="Helvetica,sans-Serif" font-size="10.00">nlohmann::detail::binary</text>
<text xml:space="preserve" text-anchor="middle" x="400.38" y="-12.5" font-family="Helvetica,sans-Serif" font-size="10.00">_writer::write_number</text>
</a>
</g>
</g>
<!-- Node5&#45;&gt;Node6 -->
<g id="edge6" class="edge">
<title>Node5&#45;&gt;Node6</title>
<path fill="none" stroke="#63b8ff" d="M288.93,-22C301.94,-22 315.65,-22 328.81,-22"/>
<polygon fill="#63b8ff" stroke="#63b8ff" points="328.7,-25.5 338.7,-22 328.7,-18.5 328.7,-25.5"/>
</g>
</g>
</svg>
