<?xml version="1.0" encoding="UTF-8" standalone="no"?>
<!DOCTYPE svg PUBLIC "-//W3C//DTD SVG 1.1//EN"
 "http://www.w3.org/Graphics/SVG/1.1/DTD/svg11.dtd">
<!-- Generated by graphviz version 13.1.2 (20250808.2320)
 -->
<!-- Title: nlohmann::detail::iter_impl&lt; BasicJsonType &gt; Pages: 1 -->
<svg width="906pt" height="225pt"
 viewBox="0.00 0.00 906.00 225.00" xmlns="http://www.w3.org/2000/svg" xmlns:xlink="http://www.w3.org/1999/xlink">
<g id="graph0" class="graph" transform="scale(1 1) rotate(0) translate(4 220.8)">
<title>nlohmann::detail::iter_impl&lt; BasicJsonType &gt;</title>
<!-- Node1 -->
<g id="node1" class="node">
<title>Node1</title>
<g id="a_node1"><a xlink:title="a template for a bidirectional iterator for the basic_json class This class implements a both iterato...">
<polygon fill="#999999" stroke="#666666" points="898,-145 774,-145 774,-113 898,-113 898,-145"/>
<text xml:space="preserve" text-anchor="start" x="782" y="-131.5" font-family="Helvetica,sans-Serif" font-size="10.00">nlohmann::detail::iter</text>
<text xml:space="preserve" text-anchor="middle" x="836" y="-119.5" font-family="Helvetica,sans-Serif" font-size="10.00">_impl&lt; BasicJsonType &gt;</text>
</a>
</g>
</g>
<!-- Node2 -->
<g id="node2" class="node">
<title>Node2</title>
<g id="a_node2"><a xlink:title=" ">
<polygon fill="white" stroke="#666666" points="586.12,-177 546.12,-177 546.12,-157 586.12,-157 586.12,-177"/>
<text xml:space="preserve" text-anchor="middle" x="566.12" y="-163.5" font-family="Helvetica,sans-Serif" font-size="10.00">friend</text>
</a>
</g>
</g>
<!-- Node2&#45;&gt;Node1 -->
<g id="edge1" class="edge">
<title>Node2&#45;&gt;Node1</title>
<path fill="none" stroke="#9a32cd" stroke-dasharray="5,2" d="M597.63,-164.24C635.06,-160.67 700.4,-153.85 756,-145 761.8,-144.08 767.83,-143.02 773.85,-141.91"/>
<polygon fill="#9a32cd" stroke="#9a32cd" points="597.64,-160.72 588.01,-165.14 598.29,-167.69 597.64,-160.72"/>
<text xml:space="preserve" text-anchor="middle" x="709.88" y="-207.3" font-family="Helvetica,sans-Serif" font-size="10.00"> BasicJsonType</text>
<text xml:space="preserve" text-anchor="start" x="663.75" y="-195.3" font-family="Helvetica,sans-Serif" font-size="10.00">iteration_proxy&lt;</text>
<text xml:space="preserve" text-anchor="middle" x="709.88" y="-183.3" font-family="Helvetica,sans-Serif" font-size="10.00"> iter_impl &gt;</text>
<text xml:space="preserve" text-anchor="start" x="663.75" y="-171.3" font-family="Helvetica,sans-Serif" font-size="10.00">iteration_proxy_value</text>
<text xml:space="preserve" text-anchor="middle" x="709.88" y="-159.3" font-family="Helvetica,sans-Serif" font-size="10.00">&lt; iter_impl &gt;</text>
</g>
<!-- Node3 -->
<g id="node3" class="node">
<title>Node3</title>
<g id="a_node3"><a xlink:title=" ">
<polygon fill="white" stroke="#666666" points="583.5,-139 548.75,-139 548.75,-119 583.5,-119 583.5,-139"/>
<text xml:space="preserve" text-anchor="middle" x="566.12" y="-125.5" font-family="Helvetica,sans-Serif" font-size="10.00">type</text>
</a>
</g>
</g>
<!-- Node3&#45;&gt;Node1 -->
<g id="edge2" class="edge">
<title>Node3&#45;&gt;Node1</title>
<path fill="none" stroke="#9a32cd" stroke-dasharray="5,2" d="M595.14,-129C637.15,-129 717.51,-129 773.59,-129"/>
<polygon fill="#9a32cd" stroke="#9a32cd" points="595.4,-125.5 585.4,-129 595.4,-132.5 595.4,-125.5"/>
<text xml:space="preserve" text-anchor="middle" x="709.88" y="-131.5" font-family="Helvetica,sans-Serif" font-size="10.00"> m_object</text>
</g>
<!-- Node4 -->
<g id="node4" class="node">
<title>Node4</title>
<g id="a_node4"><a xlink:href="a00477.html#a00477" target="_top" xlink:title=" ">
<polygon fill="white" stroke="#666666" points="645.75,-101 486.5,-101 486.5,-45 645.75,-45 645.75,-101"/>
<text xml:space="preserve" text-anchor="start" x="494.5" y="-87.5" font-family="Helvetica,sans-Serif" font-size="10.00">nlohmann::detail::internal</text>
<text xml:space="preserve" text-anchor="start" x="494.5" y="-75.5" font-family="Helvetica,sans-Serif" font-size="10.00">_iterator&lt; typename std</text>
<text xml:space="preserve" text-anchor="start" x="494.5" y="-63.5" font-family="Helvetica,sans-Serif" font-size="10.00">::remove_const&lt; BasicJsonType</text>
<text xml:space="preserve" text-anchor="middle" x="566.12" y="-51.5" font-family="Helvetica,sans-Serif" font-size="10.00"> &gt;::type &gt;</text>
</a>
</g>
</g>
<!-- Node4&#45;&gt;Node1 -->
<g id="edge3" class="edge">
<title>Node4&#45;&gt;Node1</title>
<path fill="none" stroke="#9a32cd" stroke-dasharray="5,2" d="M657.21,-91.83C695.5,-99.84 739.16,-108.96 773.63,-116.17"/>
<polygon fill="#9a32cd" stroke="#9a32cd" points="658.03,-88.43 647.53,-89.81 656.6,-95.28 658.03,-88.43"/>
<text xml:space="preserve" text-anchor="middle" x="709.88" y="-114.95" font-family="Helvetica,sans-Serif" font-size="10.00"> m_it</text>
</g>
<!-- Node5 -->
<g id="node5" class="node">
<title>Node5</title>
<g id="a_node5"><a xlink:title=" ">
<polygon fill="white" stroke="#666666" points="333.5,-121 287.5,-121 287.5,-101 333.5,-101 333.5,-121"/>
<text xml:space="preserve" text-anchor="middle" x="310.5" y="-107.5" font-family="Helvetica,sans-Serif" font-size="10.00">iterator</text>
</a>
</g>
</g>
<!-- Node5&#45;&gt;Node4 -->
<g id="edge4" class="edge">
<title>Node5&#45;&gt;Node4</title>
<path fill="none" stroke="#9a32cd" stroke-dasharray="5,2" d="M345.19,-106.53C377,-102.24 426.04,-95.49 468.5,-89 474.21,-88.13 480.12,-87.2 486.05,-86.26"/>
<polygon fill="#9a32cd" stroke="#9a32cd" points="344.83,-103.04 335.38,-107.84 345.76,-109.98 344.83,-103.04"/>
<text xml:space="preserve" text-anchor="middle" x="431" y="-102.13" font-family="Helvetica,sans-Serif" font-size="10.00"> object_iterator</text>
</g>
<!-- Node6 -->
<g id="node6" class="node">
<title>Node6</title>
<g id="a_node6"><a xlink:title=" ">
<polygon fill="white" stroke="#666666" points="333.5,-83 287.5,-83 287.5,-63 333.5,-63 333.5,-83"/>
<text xml:space="preserve" text-anchor="middle" x="310.5" y="-69.5" font-family="Helvetica,sans-Serif" font-size="10.00">iterator</text>
</a>
</g>
</g>
<!-- Node6&#45;&gt;Node4 -->
<g id="edge5" class="edge">
<title>Node6&#45;&gt;Node4</title>
<path fill="none" stroke="#9a32cd" stroke-dasharray="5,2" d="M344.78,-73C380.5,-73 438.54,-73 486.08,-73"/>
<polygon fill="#9a32cd" stroke="#9a32cd" points="345.08,-69.5 335.08,-73 345.08,-76.5 345.08,-69.5"/>
<text xml:space="preserve" text-anchor="middle" x="431" y="-75.5" font-family="Helvetica,sans-Serif" font-size="10.00"> array_iterator</text>
</g>
<!-- Node7 -->
<g id="node7" class="node">
<title>Node7</title>
<g id="a_node7"><a xlink:href="a02003.html" target="_top" xlink:title=" ">
<polygon fill="white" stroke="#666666" points="375.5,-45 245.5,-45 245.5,-13 375.5,-13 375.5,-45"/>
<text xml:space="preserve" text-anchor="start" x="253.5" y="-31.5" font-family="Helvetica,sans-Serif" font-size="10.00">nlohmann::detail::primitive</text>
<text xml:space="preserve" text-anchor="middle" x="310.5" y="-19.5" font-family="Helvetica,sans-Serif" font-size="10.00">_iterator_t</text>
</a>
</g>
</g>
<!-- Node7&#45;&gt;Node4 -->
<g id="edge6" class="edge">
<title>Node7&#45;&gt;Node4</title>
<path fill="none" stroke="#9a32cd" stroke-dasharray="5,2" d="M387.12,-42.12C418.42,-47.55 454.73,-53.85 486.36,-59.34"/>
<polygon fill="#9a32cd" stroke="#9a32cd" points="387.77,-38.68 377.32,-40.42 386.57,-45.58 387.77,-38.68"/>
<text xml:space="preserve" text-anchor="middle" x="431" y="-58.73" font-family="Helvetica,sans-Serif" font-size="10.00"> primitive_iterator</text>
</g>
<!-- Node8 -->
<g id="node8" class="node">
<title>Node8</title>
<g id="a_node8"><a xlink:title=" ">
<polygon fill="white" stroke="#666666" points="154.75,-58 0,-58 0,-38 154.75,-38 154.75,-58"/>
<text xml:space="preserve" text-anchor="middle" x="77.38" y="-44.5" font-family="Helvetica,sans-Serif" font-size="10.00">static constexpr difference_type</text>
</a>
</g>
</g>
<!-- Node8&#45;&gt;Node7 -->
<g id="edge7" class="edge">
<title>Node8&#45;&gt;Node7</title>
<path fill="none" stroke="#9a32cd" stroke-dasharray="5,2" d="M166.46,-40.76C192.59,-38.61 220.71,-36.3 245.04,-34.3"/>
<polygon fill="#9a32cd" stroke="#9a32cd" points="166.2,-37.27 156.52,-41.58 166.78,-44.24 166.2,-37.27"/>
<text xml:space="preserve" text-anchor="middle" x="200.12" y="-54.7" font-family="Helvetica,sans-Serif" font-size="10.00"> begin_value</text>
<text xml:space="preserve" text-anchor="middle" x="200.12" y="-42.7" font-family="Helvetica,sans-Serif" font-size="10.00">end_value</text>
</g>
<!-- Node9 -->
<g id="node9" class="node">
<title>Node9</title>
<g id="a_node9"><a xlink:title=" ">
<polygon fill="white" stroke="#666666" points="101.5,-20 53.25,-20 53.25,0 101.5,0 101.5,-20"/>
<text xml:space="preserve" text-anchor="middle" x="77.38" y="-6.5" font-family="Helvetica,sans-Serif" font-size="10.00">ptrdiff_t</text>
</a>
</g>
</g>
<!-- Node9&#45;&gt;Node7 -->
<g id="edge8" class="edge">
<title>Node9&#45;&gt;Node7</title>
<path fill="none" stroke="#9a32cd" stroke-dasharray="5,2" d="M113.12,-11.91C143.36,-13.68 188.37,-16.54 227.5,-20 233.21,-20.5 239.13,-21.07 245.07,-21.67"/>
<polygon fill="#9a32cd" stroke="#9a32cd" points="113.6,-8.43 103.41,-11.36 113.2,-15.42 113.6,-8.43"/>
<text xml:space="preserve" text-anchor="middle" x="200.12" y="-22.5" font-family="Helvetica,sans-Serif" font-size="10.00"> m_it</text>
</g>
</g>
</svg>
