<?xml version="1.0" encoding="UTF-8" standalone="no"?>
<!DOCTYPE svg PUBLIC "-//W3C//DTD SVG 1.1//EN"
 "http://www.w3.org/Graphics/SVG/1.1/DTD/svg11.dtd">
<!-- Generated by graphviz version 13.1.2 (20250808.2320)
 -->
<!-- Title: nlohmann::detail::binary_writer::write_bson_entry_header Pages: 1 -->
<svg width="1027pt" height="433pt"
 viewBox="0.00 0.00 1027.00 433.00" xmlns="http://www.w3.org/2000/svg" xmlns:xlink="http://www.w3.org/1999/xlink">
<g id="graph0" class="graph" transform="scale(1 1) rotate(0) translate(4 429.34)">
<title>nlohmann::detail::binary_writer::write_bson_entry_header</title>
<!-- Node1 -->
<g id="node1" class="node">
<title>Node1</title>
<g id="a_node1"><a xlink:title="Writes the given element_type and name to the output adapter.">
<polygon fill="#999999" stroke="#666666" points="1018.5,-225.34 858.5,-225.34 858.5,-193.34 1018.5,-193.34 1018.5,-225.34"/>
<text xml:space="preserve" text-anchor="start" x="866.5" y="-211.84" font-family="Helvetica,sans-Serif" font-size="10.00">nlohmann::detail::binary</text>
<text xml:space="preserve" text-anchor="middle" x="938.5" y="-199.84" font-family="Helvetica,sans-Serif" font-size="10.00">_writer::write_bson_entry_header</text>
</a>
</g>
</g>
<!-- Node2 -->
<g id="node2" class="node">
<title>Node2</title>
<g id="a_node2"><a xlink:href="a02039.html#a025212bd170253638b9f05b3b6aa5bf9" target="_top" xlink:title="Writes a BSON element with key name and array value.">
<polygon fill="white" stroke="#666666" points="813.88,-425.34 688.38,-425.34 688.38,-393.34 813.88,-393.34 813.88,-425.34"/>
<text xml:space="preserve" text-anchor="start" x="696.38" y="-411.84" font-family="Helvetica,sans-Serif" font-size="10.00">nlohmann::detail::binary</text>
<text xml:space="preserve" text-anchor="middle" x="751.12" y="-399.84" font-family="Helvetica,sans-Serif" font-size="10.00">_writer::write_bson_array</text>
</a>
</g>
</g>
<!-- Node1&#45;&gt;Node2 -->
<g id="edge1" class="edge">
<title>Node1&#45;&gt;Node2</title>
<path fill="none" stroke="#63b8ff" d="M926.65,-235.93C909.82,-274.03 873.91,-344 822.5,-384.34 818.32,-387.62 813.67,-390.49 808.81,-393"/>
<polygon fill="#63b8ff" stroke="#63b8ff" points="929.75,-237.59 930.48,-227.03 923.32,-234.83 929.75,-237.59"/>
</g>
<!-- Node7 -->
<g id="node7" class="node">
<title>Node7</title>
<g id="a_node7"><a xlink:href="a02039.html#a6231302930265eccb3f56c378f7b0661" target="_top" xlink:title="Writes a BSON element with key name and object value.">
<polygon fill="white" stroke="#666666" points="303.5,-203.34 146.5,-203.34 146.5,-171.34 303.5,-171.34 303.5,-203.34"/>
<text xml:space="preserve" text-anchor="start" x="154.5" y="-189.84" font-family="Helvetica,sans-Serif" font-size="10.00">nlohmann::detail::binary</text>
<text xml:space="preserve" text-anchor="middle" x="225" y="-177.84" font-family="Helvetica,sans-Serif" font-size="10.00">_writer::write_bson_object_entry</text>
</a>
</g>
</g>
<!-- Node1&#45;&gt;Node7 -->
<g id="edge19" class="edge">
<title>Node1&#45;&gt;Node7</title>
<path fill="none" stroke="#63b8ff" d="M929.03,-182.39C914.61,-141.68 881.01,-65.91 822.5,-34.34 617.38,76.31 329.05,-112.44 247.97,-170.91"/>
<polygon fill="#63b8ff" stroke="#63b8ff" points="925.66,-183.33 932.19,-191.68 932.29,-181.08 925.66,-183.33"/>
</g>
<!-- Node8 -->
<g id="node8" class="node">
<title>Node8</title>
<g id="a_node8"><a xlink:href="a02039.html#a97d34d9a70ddc06ae782c55454df42bc" target="_top" xlink:title="Writes a BSON element with key name and binary value value.">
<polygon fill="white" stroke="#666666" points="816.12,-375.34 686.12,-375.34 686.12,-343.34 816.12,-343.34 816.12,-375.34"/>
<text xml:space="preserve" text-anchor="start" x="694.12" y="-361.84" font-family="Helvetica,sans-Serif" font-size="10.00">nlohmann::detail::binary</text>
<text xml:space="preserve" text-anchor="middle" x="751.12" y="-349.84" font-family="Helvetica,sans-Serif" font-size="10.00">_writer::write_bson_binary</text>
</a>
</g>
</g>
<!-- Node1&#45;&gt;Node8 -->
<g id="edge9" class="edge">
<title>Node1&#45;&gt;Node8</title>
<path fill="none" stroke="#63b8ff" d="M920.13,-234.62C899.73,-262.59 863.43,-307.28 822.5,-334.34 817.63,-337.56 812.3,-340.42 806.82,-342.94"/>
<polygon fill="#63b8ff" stroke="#63b8ff" points="922.82,-236.88 925.79,-226.71 917.13,-232.81 922.82,-236.88"/>
</g>
<!-- Node9 -->
<g id="node9" class="node">
<title>Node9</title>
<g id="a_node9"><a xlink:href="a02039.html#ae099435e1df3096e0fc78333282f8f67" target="_top" xlink:title="Writes a BSON element with key name and boolean value value.">
<polygon fill="white" stroke="#666666" points="819.88,-325.34 682.38,-325.34 682.38,-293.34 819.88,-293.34 819.88,-325.34"/>
<text xml:space="preserve" text-anchor="start" x="690.38" y="-311.84" font-family="Helvetica,sans-Serif" font-size="10.00">nlohmann::detail::binary</text>
<text xml:space="preserve" text-anchor="middle" x="751.12" y="-299.84" font-family="Helvetica,sans-Serif" font-size="10.00">_writer::write_bson_boolean</text>
</a>
</g>
</g>
<!-- Node1&#45;&gt;Node9 -->
<g id="edge11" class="edge">
<title>Node1&#45;&gt;Node9</title>
<path fill="none" stroke="#63b8ff" d="M906.9,-232.16C884.39,-248.23 852.59,-269.44 822.5,-284.34 816.34,-287.39 809.72,-290.25 803.08,-292.86"/>
<polygon fill="#63b8ff" stroke="#63b8ff" points="908.67,-235.21 914.73,-226.51 904.57,-229.53 908.67,-235.21"/>
</g>
<!-- Node10 -->
<g id="node10" class="node">
<title>Node10</title>
<g id="a_node10"><a xlink:href="a02039.html#a263ec18815467bb9919021ef126919ca" target="_top" xlink:title="Writes a BSON element with key name and double value value.">
<polygon fill="white" stroke="#666666" points="817.25,-275.34 685,-275.34 685,-243.34 817.25,-243.34 817.25,-275.34"/>
<text xml:space="preserve" text-anchor="start" x="693" y="-261.84" font-family="Helvetica,sans-Serif" font-size="10.00">nlohmann::detail::binary</text>
<text xml:space="preserve" text-anchor="middle" x="751.12" y="-249.84" font-family="Helvetica,sans-Serif" font-size="10.00">_writer::write_bson_double</text>
</a>
</g>
</g>
<!-- Node1&#45;&gt;Node10 -->
<g id="edge13" class="edge">
<title>Node1&#45;&gt;Node10</title>
<path fill="none" stroke="#63b8ff" d="M865.86,-228.66C848.45,-233.36 829.99,-238.34 813.12,-242.89"/>
<polygon fill="#63b8ff" stroke="#63b8ff" points="866.34,-232.16 875.08,-226.18 864.52,-225.4 866.34,-232.16"/>
</g>
<!-- Node11 -->
<g id="node11" class="node">
<title>Node11</title>
<g id="a_node11"><a xlink:href="a02039.html#a553ad4dbdf27238eef90867e4bf2f3e5" target="_top" xlink:title="Writes a BSON element with key name and integer value.">
<polygon fill="white" stroke="#666666" points="817.62,-225.34 684.62,-225.34 684.62,-193.34 817.62,-193.34 817.62,-225.34"/>
<text xml:space="preserve" text-anchor="start" x="692.62" y="-211.84" font-family="Helvetica,sans-Serif" font-size="10.00">nlohmann::detail::binary</text>
<text xml:space="preserve" text-anchor="middle" x="751.12" y="-199.84" font-family="Helvetica,sans-Serif" font-size="10.00">_writer::write_bson_integer</text>
</a>
</g>
</g>
<!-- Node1&#45;&gt;Node11 -->
<g id="edge15" class="edge">
<title>Node1&#45;&gt;Node11</title>
<path fill="none" stroke="#63b8ff" d="M846.74,-209.34C837.04,-209.34 827.32,-209.34 818,-209.34"/>
<polygon fill="#63b8ff" stroke="#63b8ff" points="846.56,-212.84 856.56,-209.34 846.56,-205.84 846.56,-212.84"/>
</g>
<!-- Node12 -->
<g id="node12" class="node">
<title>Node12</title>
<g id="a_node12"><a xlink:href="a02039.html#a9927c1110b18661e0224a76156e5a7a9" target="_top" xlink:title="Writes a BSON element with key name and null value.">
<polygon fill="white" stroke="#666666" points="810.88,-175.34 691.38,-175.34 691.38,-143.34 810.88,-143.34 810.88,-175.34"/>
<text xml:space="preserve" text-anchor="start" x="699.38" y="-161.84" font-family="Helvetica,sans-Serif" font-size="10.00">nlohmann::detail::binary</text>
<text xml:space="preserve" text-anchor="middle" x="751.12" y="-149.84" font-family="Helvetica,sans-Serif" font-size="10.00">_writer::write_bson_null</text>
</a>
</g>
</g>
<!-- Node1&#45;&gt;Node12 -->
<g id="edge17" class="edge">
<title>Node1&#45;&gt;Node12</title>
<path fill="none" stroke="#63b8ff" d="M865.52,-189.93C847.55,-185.08 828.49,-179.94 811.22,-175.28"/>
<polygon fill="#63b8ff" stroke="#63b8ff" points="864.52,-193.28 875.08,-192.5 866.34,-186.52 864.52,-193.28"/>
</g>
<!-- Node13 -->
<g id="node13" class="node">
<title>Node13</title>
<g id="a_node13"><a xlink:href="a02039.html#a5e6574416915208fc035b57338ae3252" target="_top" xlink:title="Writes a BSON element with key name and string value value.">
<polygon fill="white" stroke="#666666" points="815,-125.34 687.25,-125.34 687.25,-93.34 815,-93.34 815,-125.34"/>
<text xml:space="preserve" text-anchor="start" x="695.25" y="-111.84" font-family="Helvetica,sans-Serif" font-size="10.00">nlohmann::detail::binary</text>
<text xml:space="preserve" text-anchor="middle" x="751.12" y="-99.84" font-family="Helvetica,sans-Serif" font-size="10.00">_writer::write_bson_string</text>
</a>
</g>
</g>
<!-- Node1&#45;&gt;Node13 -->
<g id="edge20" class="edge">
<title>Node1&#45;&gt;Node13</title>
<path fill="none" stroke="#63b8ff" d="M906.9,-186.52C884.39,-170.45 852.59,-149.24 822.5,-134.34 816.34,-131.29 809.72,-128.43 803.08,-125.82"/>
<polygon fill="#63b8ff" stroke="#63b8ff" points="904.57,-189.15 914.73,-192.17 908.67,-183.47 904.57,-189.15"/>
</g>
<!-- Node14 -->
<g id="node14" class="node">
<title>Node14</title>
<g id="a_node14"><a xlink:href="a02039.html#a5e295ed1be6af6260d2a65f7397c3742" target="_top" xlink:title="Writes a BSON element with key name and unsigned value.">
<polygon fill="white" stroke="#666666" points="822.5,-75.34 679.75,-75.34 679.75,-43.34 822.5,-43.34 822.5,-75.34"/>
<text xml:space="preserve" text-anchor="start" x="687.75" y="-61.84" font-family="Helvetica,sans-Serif" font-size="10.00">nlohmann::detail::binary</text>
<text xml:space="preserve" text-anchor="middle" x="751.12" y="-49.84" font-family="Helvetica,sans-Serif" font-size="10.00">_writer::write_bson_unsigned</text>
</a>
</g>
</g>
<!-- Node1&#45;&gt;Node14 -->
<g id="edge22" class="edge">
<title>Node1&#45;&gt;Node14</title>
<path fill="none" stroke="#63b8ff" d="M920.13,-184.06C899.73,-156.09 863.43,-111.4 822.5,-84.34 817.63,-81.12 812.3,-78.26 806.82,-75.74"/>
<polygon fill="#63b8ff" stroke="#63b8ff" points="917.13,-185.87 925.79,-191.97 922.82,-181.8 917.13,-185.87"/>
</g>
<!-- Node3 -->
<g id="node3" class="node">
<title>Node3</title>
<g id="a_node3"><a xlink:href="a02039.html#a7ff58bf1a80018148bed860667ffca07" target="_top" xlink:title="Serializes the JSON value j to BSON and associates it with the key name.">
<polygon fill="white" stroke="#666666" points="643.75,-250.34 505.5,-250.34 505.5,-218.34 643.75,-218.34 643.75,-250.34"/>
<text xml:space="preserve" text-anchor="start" x="513.5" y="-236.84" font-family="Helvetica,sans-Serif" font-size="10.00">nlohmann::detail::binary</text>
<text xml:space="preserve" text-anchor="middle" x="574.62" y="-224.84" font-family="Helvetica,sans-Serif" font-size="10.00">_writer::write_bson_element</text>
</a>
</g>
</g>
<!-- Node2&#45;&gt;Node3 -->
<g id="edge2" class="edge">
<title>Node2&#45;&gt;Node3</title>
<path fill="none" stroke="#63b8ff" d="M703.67,-388.67C695.22,-385.08 686.85,-380.77 679.75,-375.34 634.16,-340.49 600.99,-279.94 585.46,-250.63"/>
<polygon fill="#63b8ff" stroke="#63b8ff" points="702.33,-391.9 712.92,-392.3 704.89,-385.39 702.33,-391.9"/>
</g>
<!-- Node3&#45;&gt;Node2 -->
<g id="edge3" class="edge">
<title>Node3&#45;&gt;Node2</title>
<path fill="none" stroke="#63b8ff" d="M584.91,-260.99C600.19,-296.48 633.62,-358.07 679.75,-393.34 682.33,-395.31 685.07,-397.13 687.92,-398.81"/>
<polygon fill="#63b8ff" stroke="#63b8ff" points="588.2,-259.78 581.17,-251.85 581.72,-262.43 588.2,-259.78"/>
</g>
<!-- Node4 -->
<g id="node4" class="node">
<title>Node4</title>
<g id="a_node4"><a xlink:href="a02039.html#a29b3e0f83a8e5f2307804023109ba2c9" target="_top" xlink:title=" ">
<polygon fill="white" stroke="#666666" points="469.5,-250.34 339.5,-250.34 339.5,-218.34 469.5,-218.34 469.5,-250.34"/>
<text xml:space="preserve" text-anchor="start" x="347.5" y="-236.84" font-family="Helvetica,sans-Serif" font-size="10.00">nlohmann::detail::binary</text>
<text xml:space="preserve" text-anchor="middle" x="404.5" y="-224.84" font-family="Helvetica,sans-Serif" font-size="10.00">_writer::write_bson_object</text>
</a>
</g>
</g>
<!-- Node3&#45;&gt;Node4 -->
<g id="edge4" class="edge">
<title>Node3&#45;&gt;Node4</title>
<path fill="none" stroke="#63b8ff" d="M493.87,-234.34C485.79,-234.34 477.64,-234.34 469.75,-234.34"/>
<polygon fill="#63b8ff" stroke="#63b8ff" points="493.73,-237.84 503.73,-234.34 493.73,-230.84 493.73,-237.84"/>
</g>
<!-- Node5 -->
<g id="node5" class="node">
<title>Node5</title>
<g id="a_node5"><a xlink:href="a02039.html#a9ffc566db5219b473762462234b47db9" target="_top" xlink:title=" ">
<polygon fill="white" stroke="#666666" points="284.75,-253.34 165.25,-253.34 165.25,-221.34 284.75,-221.34 284.75,-253.34"/>
<text xml:space="preserve" text-anchor="start" x="173.25" y="-239.84" font-family="Helvetica,sans-Serif" font-size="10.00">nlohmann::detail::binary</text>
<text xml:space="preserve" text-anchor="middle" x="225" y="-227.84" font-family="Helvetica,sans-Serif" font-size="10.00">_writer::write_bson</text>
</a>
</g>
</g>
<!-- Node4&#45;&gt;Node5 -->
<g id="edge5" class="edge">
<title>Node4&#45;&gt;Node5</title>
<path fill="none" stroke="#63b8ff" d="M327.83,-235.62C313.54,-235.86 298.79,-236.11 285.1,-236.34"/>
<polygon fill="#63b8ff" stroke="#63b8ff" points="327.71,-239.12 337.65,-235.45 327.6,-232.12 327.71,-239.12"/>
</g>
<!-- Node4&#45;&gt;Node7 -->
<g id="edge7" class="edge">
<title>Node4&#45;&gt;Node7</title>
<path fill="none" stroke="#63b8ff" d="M330.3,-214.96C316.27,-211.24 301.69,-207.38 288.05,-203.77"/>
<polygon fill="#63b8ff" stroke="#63b8ff" points="329.39,-218.34 339.96,-217.51 331.19,-211.57 329.39,-218.34"/>
</g>
<!-- Node6 -->
<g id="node6" class="node">
<title>Node6</title>
<g id="a_node6"><a xlink:href="a01659.html#a668e4c2ad9808218a25879700f4aef2b" target="_top" xlink:title="Serializes the given JSON object j to BSON and forwards the corresponding BSON&#45;representation to the ...">
<polygon fill="white" stroke="#666666" points="110.5,-253.34 0,-253.34 0,-221.34 110.5,-221.34 110.5,-253.34"/>
<text xml:space="preserve" text-anchor="start" x="8" y="-239.84" font-family="Helvetica,sans-Serif" font-size="10.00">nlohmann::basic_json</text>
<text xml:space="preserve" text-anchor="middle" x="55.25" y="-227.84" font-family="Helvetica,sans-Serif" font-size="10.00">::to_bson</text>
</a>
</g>
</g>
<!-- Node5&#45;&gt;Node6 -->
<g id="edge6" class="edge">
<title>Node5&#45;&gt;Node6</title>
<path fill="none" stroke="#63b8ff" d="M153.58,-237.34C139.33,-237.34 124.54,-237.34 110.93,-237.34"/>
<polygon fill="#63b8ff" stroke="#63b8ff" points="153.34,-240.84 163.34,-237.34 153.34,-233.84 153.34,-240.84"/>
</g>
<!-- Node7&#45;&gt;Node3 -->
<g id="edge8" class="edge">
<title>Node7&#45;&gt;Node3</title>
<path fill="none" stroke="#63b8ff" d="M315.16,-192.27C361.41,-195.62 418.71,-200.99 469.5,-209.34 483.17,-211.59 497.7,-214.64 511.43,-217.85"/>
<polygon fill="#63b8ff" stroke="#63b8ff" points="315.68,-188.8 305.46,-191.59 315.19,-195.78 315.68,-188.8"/>
</g>
<!-- Node8&#45;&gt;Node3 -->
<g id="edge10" class="edge">
<title>Node8&#45;&gt;Node3</title>
<path fill="none" stroke="#63b8ff" d="M686.02,-337.94C683.87,-336.79 681.78,-335.59 679.75,-334.34 642.22,-311.16 607.08,-272.59 588.78,-250.74"/>
<polygon fill="#63b8ff" stroke="#63b8ff" points="684.48,-341.08 695,-342.3 687.53,-334.79 684.48,-341.08"/>
</g>
<!-- Node9&#45;&gt;Node3 -->
<g id="edge12" class="edge">
<title>Node9&#45;&gt;Node3</title>
<path fill="none" stroke="#63b8ff" d="M691.32,-288.98C687.39,-287.46 683.5,-285.9 679.75,-284.34 655.13,-274.09 627.98,-260.99 607.59,-250.78"/>
<polygon fill="#63b8ff" stroke="#63b8ff" points="689.78,-292.14 700.37,-292.4 692.25,-285.59 689.78,-292.14"/>
</g>
<!-- Node10&#45;&gt;Node3 -->
<g id="edge14" class="edge">
<title>Node10&#45;&gt;Node3</title>
<path fill="none" stroke="#63b8ff" d="M673.33,-248.34C663.6,-246.94 653.68,-245.52 644.09,-244.15"/>
<polygon fill="#63b8ff" stroke="#63b8ff" points="672.76,-251.79 683.15,-249.75 673.75,-244.86 672.76,-251.79"/>
</g>
<!-- Node11&#45;&gt;Node3 -->
<g id="edge16" class="edge">
<title>Node11&#45;&gt;Node3</title>
<path fill="none" stroke="#63b8ff" d="M672.95,-220.4C663.31,-221.78 653.5,-223.18 644.01,-224.54"/>
<polygon fill="#63b8ff" stroke="#63b8ff" points="673.25,-223.89 682.66,-219.01 672.26,-216.96 673.25,-223.89"/>
</g>
<!-- Node12&#45;&gt;Node3 -->
<g id="edge18" class="edge">
<title>Node12&#45;&gt;Node3</title>
<path fill="none" stroke="#63b8ff" d="M691.32,-179.7C687.39,-181.22 683.5,-182.78 679.75,-184.34 655.13,-194.59 627.98,-207.69 607.59,-217.9"/>
<polygon fill="#63b8ff" stroke="#63b8ff" points="692.25,-183.09 700.37,-176.28 689.78,-176.54 692.25,-183.09"/>
</g>
<!-- Node13&#45;&gt;Node3 -->
<g id="edge21" class="edge">
<title>Node13&#45;&gt;Node3</title>
<path fill="none" stroke="#63b8ff" d="M686.02,-130.74C683.87,-131.89 681.78,-133.09 679.75,-134.34 642.22,-157.52 607.08,-196.09 588.78,-217.94"/>
<polygon fill="#63b8ff" stroke="#63b8ff" points="687.53,-133.89 695,-126.38 684.48,-127.6 687.53,-133.89"/>
</g>
<!-- Node14&#45;&gt;Node3 -->
<g id="edge23" class="edge">
<title>Node14&#45;&gt;Node3</title>
<path fill="none" stroke="#63b8ff" d="M683.83,-81.43C682.43,-82.36 681.07,-83.33 679.75,-84.34 631.14,-121.5 596.64,-187.88 582.61,-218.31"/>
<polygon fill="#63b8ff" stroke="#63b8ff" points="685.33,-84.61 692.22,-76.55 681.81,-78.55 685.33,-84.61"/>
</g>
</g>
</svg>
