<?xml version="1.0" encoding="UTF-8" standalone="no"?>
<!DOCTYPE svg PUBLIC "-//W3C//DTD SVG 1.1//EN"
 "http://www.w3.org/Graphics/SVG/1.1/DTD/svg11.dtd">
<!-- Generated by graphviz version 13.1.2 (20250808.2320)
 -->
<!-- Title: nlohmann::detail::binary_writer::write_bson_object Pages: 1 -->
<svg width="1409pt" height="602pt"
 viewBox="0.00 0.00 1409.00 602.00" xmlns="http://www.w3.org/2000/svg" xmlns:xlink="http://www.w3.org/1999/xlink">
<g id="graph0" class="graph" transform="scale(1 1) rotate(0) translate(4 598)">
<title>nlohmann::detail::binary_writer::write_bson_object</title>
<!-- Node1 -->
<g id="node1" class="node">
<title>Node1</title>
<g id="a_node1"><a xlink:title=" ">
<polygon fill="#999999" stroke="#666666" points="130,-379 0,-379 0,-347 130,-347 130,-379"/>
<text xml:space="preserve" text-anchor="start" x="8" y="-365.5" font-family="Helvetica,sans-Serif" font-size="10.00">nlohmann::detail::binary</text>
<text xml:space="preserve" text-anchor="middle" x="65" y="-353.5" font-family="Helvetica,sans-Serif" font-size="10.00">_writer::write_bson_object</text>
</a>
</g>
</g>
<!-- Node2 -->
<g id="node2" class="node">
<title>Node2</title>
<g id="a_node2"><a xlink:href="a02039.html#acc6f1cc1fd370ee84ebc8cf7b8712840" target="_top" xlink:title="Calculates the size of the BSON serialization of the given JSON&#45;object j.">
<polygon fill="white" stroke="#666666" points="1080.38,-594 930.12,-594 930.12,-562 1080.38,-562 1080.38,-594"/>
<text xml:space="preserve" text-anchor="start" x="938.12" y="-580.5" font-family="Helvetica,sans-Serif" font-size="10.00">nlohmann::detail::binary</text>
<text xml:space="preserve" text-anchor="middle" x="1005.25" y="-568.5" font-family="Helvetica,sans-Serif" font-size="10.00">_writer::calc_bson_object_size</text>
</a>
</g>
</g>
<!-- Node1&#45;&gt;Node2 -->
<g id="edge1" class="edge">
<title>Node1&#45;&gt;Node2</title>
<path fill="none" stroke="#63b8ff" d="M80.27,-379.32C124.82,-428.36 267.35,-571 417.75,-571 417.75,-571 417.75,-571 614.25,-571 718.97,-571 839.49,-573.55 918.5,-575.58"/>
<polygon fill="#63b8ff" stroke="#63b8ff" points="918.25,-579.07 928.34,-575.83 918.44,-572.07 918.25,-579.07"/>
</g>
<!-- Node3 -->
<g id="node3" class="node">
<title>Node3</title>
<g id="a_node3"><a xlink:href="a02039.html#ab77aa48692bd4e64e4f051ce6aeb6d2d" target="_top" xlink:title=" ">
<polygon fill="white" stroke="#666666" points="868.25,-409 748.75,-409 748.75,-377 868.25,-377 868.25,-409"/>
<text xml:space="preserve" text-anchor="start" x="756.75" y="-395.5" font-family="Helvetica,sans-Serif" font-size="10.00">nlohmann::detail::binary</text>
<text xml:space="preserve" text-anchor="middle" x="808.5" y="-383.5" font-family="Helvetica,sans-Serif" font-size="10.00">_writer::to_char_type</text>
</a>
</g>
</g>
<!-- Node1&#45;&gt;Node3 -->
<g id="edge2" class="edge">
<title>Node1&#45;&gt;Node3</title>
<path fill="none" stroke="#63b8ff" d="M109.37,-379.39C162.76,-398.62 256.66,-429.34 340.25,-441 480.58,-460.57 645.67,-431.46 737.26,-410.74"/>
<polygon fill="#63b8ff" stroke="#63b8ff" points="737.89,-414.19 746.85,-408.53 736.32,-407.36 737.89,-414.19"/>
</g>
<!-- Node4 -->
<g id="node4" class="node">
<title>Node4</title>
<g id="a_node4"><a xlink:href="a02039.html#a7ff58bf1a80018148bed860667ffca07" target="_top" xlink:title="Serializes the JSON value j to BSON and associates it with the key name.">
<polygon fill="white" stroke="#666666" points="304.25,-282 166,-282 166,-250 304.25,-250 304.25,-282"/>
<text xml:space="preserve" text-anchor="start" x="174" y="-268.5" font-family="Helvetica,sans-Serif" font-size="10.00">nlohmann::detail::binary</text>
<text xml:space="preserve" text-anchor="middle" x="235.12" y="-256.5" font-family="Helvetica,sans-Serif" font-size="10.00">_writer::write_bson_element</text>
</a>
</g>
</g>
<!-- Node1&#45;&gt;Node4 -->
<g id="edge3" class="edge">
<title>Node1&#45;&gt;Node4</title>
<path fill="none" stroke="#63b8ff" d="M94.52,-346.55C122.38,-330.47 164.97,-305.9 195.79,-288.12"/>
<polygon fill="#63b8ff" stroke="#63b8ff" points="197.52,-291.16 204.44,-283.13 194.02,-285.1 197.52,-291.16"/>
</g>
<!-- Node5 -->
<g id="node5" class="node">
<title>Node5</title>
<g id="a_node5"><a xlink:href="a02039.html#a025212bd170253638b9f05b3b6aa5bf9" target="_top" xlink:title="Writes a BSON element with key name and array value.">
<polygon fill="white" stroke="#666666" points="481.5,-432 356,-432 356,-400 481.5,-400 481.5,-432"/>
<text xml:space="preserve" text-anchor="start" x="364" y="-418.5" font-family="Helvetica,sans-Serif" font-size="10.00">nlohmann::detail::binary</text>
<text xml:space="preserve" text-anchor="middle" x="418.75" y="-406.5" font-family="Helvetica,sans-Serif" font-size="10.00">_writer::write_bson_array</text>
</a>
</g>
</g>
<!-- Node4&#45;&gt;Node5 -->
<g id="edge4" class="edge">
<title>Node4&#45;&gt;Node5</title>
<path fill="none" stroke="#63b8ff" d="M249.4,-282.49C266.83,-307.73 300,-354.8 340.25,-382 348.59,-387.64 358.29,-392.07 367.94,-395.73"/>
<polygon fill="#63b8ff" stroke="#63b8ff" points="366.72,-399.01 377.32,-399.05 369.06,-392.41 366.72,-399.01"/>
</g>
<!-- Node16 -->
<g id="node16" class="node">
<title>Node16</title>
<g id="a_node16"><a xlink:href="a02039.html#a97d34d9a70ddc06ae782c55454df42bc" target="_top" xlink:title="Writes a BSON element with key name and binary value value.">
<polygon fill="white" stroke="#666666" points="483.75,-82 353.75,-82 353.75,-50 483.75,-50 483.75,-82"/>
<text xml:space="preserve" text-anchor="start" x="361.75" y="-68.5" font-family="Helvetica,sans-Serif" font-size="10.00">nlohmann::detail::binary</text>
<text xml:space="preserve" text-anchor="middle" x="418.75" y="-56.5" font-family="Helvetica,sans-Serif" font-size="10.00">_writer::write_bson_binary</text>
</a>
</g>
</g>
<!-- Node4&#45;&gt;Node16 -->
<g id="edge20" class="edge">
<title>Node4&#45;&gt;Node16</title>
<path fill="none" stroke="#63b8ff" d="M243.92,-249.77C262.92,-210.78 312.12,-113.42 340.25,-91 341.4,-90.08 342.59,-89.2 343.8,-88.35"/>
<polygon fill="#63b8ff" stroke="#63b8ff" points="345.57,-91.37 352.32,-83.21 341.95,-85.37 345.57,-91.37"/>
</g>
<!-- Node18 -->
<g id="node18" class="node">
<title>Node18</title>
<g id="a_node18"><a xlink:href="a02039.html#ae099435e1df3096e0fc78333282f8f67" target="_top" xlink:title="Writes a BSON element with key name and boolean value value.">
<polygon fill="white" stroke="#666666" points="487.5,-382 350,-382 350,-350 487.5,-350 487.5,-382"/>
<text xml:space="preserve" text-anchor="start" x="358" y="-368.5" font-family="Helvetica,sans-Serif" font-size="10.00">nlohmann::detail::binary</text>
<text xml:space="preserve" text-anchor="middle" x="418.75" y="-356.5" font-family="Helvetica,sans-Serif" font-size="10.00">_writer::write_bson_boolean</text>
</a>
</g>
</g>
<!-- Node4&#45;&gt;Node18 -->
<g id="edge23" class="edge">
<title>Node4&#45;&gt;Node18</title>
<path fill="none" stroke="#63b8ff" d="M254.9,-282.32C274.9,-299.01 308.04,-324.72 340.25,-341 343.15,-342.47 346.15,-343.87 349.21,-345.21"/>
<polygon fill="#63b8ff" stroke="#63b8ff" points="347.82,-348.42 358.41,-348.96 350.47,-341.94 347.82,-348.42"/>
</g>
<!-- Node19 -->
<g id="node19" class="node">
<title>Node19</title>
<g id="a_node19"><a xlink:href="a02039.html#a263ec18815467bb9919021ef126919ca" target="_top" xlink:title="Writes a BSON element with key name and double value value.">
<polygon fill="white" stroke="#666666" points="484.88,-232 352.62,-232 352.62,-200 484.88,-200 484.88,-232"/>
<text xml:space="preserve" text-anchor="start" x="360.62" y="-218.5" font-family="Helvetica,sans-Serif" font-size="10.00">nlohmann::detail::binary</text>
<text xml:space="preserve" text-anchor="middle" x="418.75" y="-206.5" font-family="Helvetica,sans-Serif" font-size="10.00">_writer::write_bson_double</text>
</a>
</g>
</g>
<!-- Node4&#45;&gt;Node19 -->
<g id="edge26" class="edge">
<title>Node4&#45;&gt;Node19</title>
<path fill="none" stroke="#63b8ff" d="M295.85,-249.56C312.22,-245.05 330.12,-240.12 347.04,-235.47"/>
<polygon fill="#63b8ff" stroke="#63b8ff" points="347.82,-238.88 356.53,-232.85 345.96,-232.13 347.82,-238.88"/>
</g>
<!-- Node20 -->
<g id="node20" class="node">
<title>Node20</title>
<g id="a_node20"><a xlink:href="a02039.html#a553ad4dbdf27238eef90867e4bf2f3e5" target="_top" xlink:title="Writes a BSON element with key name and integer value.">
<polygon fill="white" stroke="#666666" points="485.25,-182 352.25,-182 352.25,-150 485.25,-150 485.25,-182"/>
<text xml:space="preserve" text-anchor="start" x="360.25" y="-168.5" font-family="Helvetica,sans-Serif" font-size="10.00">nlohmann::detail::binary</text>
<text xml:space="preserve" text-anchor="middle" x="418.75" y="-156.5" font-family="Helvetica,sans-Serif" font-size="10.00">_writer::write_bson_integer</text>
</a>
</g>
</g>
<!-- Node4&#45;&gt;Node20 -->
<g id="edge28" class="edge">
<title>Node4&#45;&gt;Node20</title>
<path fill="none" stroke="#63b8ff" d="M254.9,-249.68C274.9,-232.99 308.04,-207.28 340.25,-191 343.15,-189.53 346.15,-188.13 349.21,-186.79"/>
<polygon fill="#63b8ff" stroke="#63b8ff" points="350.47,-190.06 358.41,-183.04 347.82,-183.58 350.47,-190.06"/>
</g>
<!-- Node21 -->
<g id="node21" class="node">
<title>Node21</title>
<g id="a_node21"><a xlink:href="a02039.html#a9927c1110b18661e0224a76156e5a7a9" target="_top" xlink:title="Writes a BSON element with key name and null value.">
<polygon fill="white" stroke="#666666" points="478.5,-332 359,-332 359,-300 478.5,-300 478.5,-332"/>
<text xml:space="preserve" text-anchor="start" x="367" y="-318.5" font-family="Helvetica,sans-Serif" font-size="10.00">nlohmann::detail::binary</text>
<text xml:space="preserve" text-anchor="middle" x="418.75" y="-306.5" font-family="Helvetica,sans-Serif" font-size="10.00">_writer::write_bson_null</text>
</a>
</g>
</g>
<!-- Node4&#45;&gt;Node21 -->
<g id="edge30" class="edge">
<title>Node4&#45;&gt;Node21</title>
<path fill="none" stroke="#63b8ff" d="M295.85,-282.44C312.39,-286.99 330.49,-291.98 347.57,-296.68"/>
<polygon fill="#63b8ff" stroke="#63b8ff" points="346.58,-300.04 357.15,-299.32 348.44,-293.29 346.58,-300.04"/>
</g>
<!-- Node22 -->
<g id="node22" class="node">
<title>Node22</title>
<g id="a_node22"><a xlink:href="a02039.html#a6231302930265eccb3f56c378f7b0661" target="_top" xlink:title="Writes a BSON element with key name and object value.">
<polygon fill="white" stroke="#666666" points="497.25,-32 340.25,-32 340.25,0 497.25,0 497.25,-32"/>
<text xml:space="preserve" text-anchor="start" x="348.25" y="-18.5" font-family="Helvetica,sans-Serif" font-size="10.00">nlohmann::detail::binary</text>
<text xml:space="preserve" text-anchor="middle" x="418.75" y="-6.5" font-family="Helvetica,sans-Serif" font-size="10.00">_writer::write_bson_object_entry</text>
</a>
</g>
</g>
<!-- Node4&#45;&gt;Node22 -->
<g id="edge32" class="edge">
<title>Node4&#45;&gt;Node22</title>
<path fill="none" stroke="#63b8ff" d="M245.05,-249.88C258.61,-225.11 284.86,-176.05 304.25,-133 322.28,-92.97 308.27,-71.09 340.25,-41 341.02,-40.28 341.8,-39.58 342.61,-38.9"/>
<polygon fill="#63b8ff" stroke="#63b8ff" points="344.49,-41.86 350.65,-33.24 340.46,-36.13 344.49,-41.86"/>
</g>
<!-- Node23 -->
<g id="node23" class="node">
<title>Node23</title>
<g id="a_node23"><a xlink:href="a02039.html#a5e6574416915208fc035b57338ae3252" target="_top" xlink:title="Writes a BSON element with key name and string value value.">
<polygon fill="white" stroke="#666666" points="482.62,-282 354.88,-282 354.88,-250 482.62,-250 482.62,-282"/>
<text xml:space="preserve" text-anchor="start" x="362.88" y="-268.5" font-family="Helvetica,sans-Serif" font-size="10.00">nlohmann::detail::binary</text>
<text xml:space="preserve" text-anchor="middle" x="418.75" y="-256.5" font-family="Helvetica,sans-Serif" font-size="10.00">_writer::write_bson_string</text>
</a>
</g>
</g>
<!-- Node4&#45;&gt;Node23 -->
<g id="edge35" class="edge">
<title>Node4&#45;&gt;Node23</title>
<path fill="none" stroke="#63b8ff" d="M304.53,-266C317.21,-266 330.51,-266 343.35,-266"/>
<polygon fill="#63b8ff" stroke="#63b8ff" points="342.98,-269.5 352.98,-266 342.98,-262.5 342.98,-269.5"/>
</g>
<!-- Node24 -->
<g id="node24" class="node">
<title>Node24</title>
<g id="a_node24"><a xlink:href="a02039.html#a5e295ed1be6af6260d2a65f7397c3742" target="_top" xlink:title="Writes a BSON element with key name and unsigned value.">
<polygon fill="white" stroke="#666666" points="490.12,-132 347.38,-132 347.38,-100 490.12,-100 490.12,-132"/>
<text xml:space="preserve" text-anchor="start" x="355.38" y="-118.5" font-family="Helvetica,sans-Serif" font-size="10.00">nlohmann::detail::binary</text>
<text xml:space="preserve" text-anchor="middle" x="418.75" y="-106.5" font-family="Helvetica,sans-Serif" font-size="10.00">_writer::write_bson_unsigned</text>
</a>
</g>
</g>
<!-- Node4&#45;&gt;Node24 -->
<g id="edge37" class="edge">
<title>Node4&#45;&gt;Node24</title>
<path fill="none" stroke="#63b8ff" d="M245.46,-249.67C261.48,-223.07 296.72,-170.41 340.25,-141 342.05,-139.78 343.92,-138.62 345.83,-137.52"/>
<polygon fill="#63b8ff" stroke="#63b8ff" points="347.1,-140.8 354.39,-133.11 343.9,-134.57 347.1,-140.8"/>
</g>
<!-- Node5&#45;&gt;Node3 -->
<g id="edge16" class="edge">
<title>Node5&#45;&gt;Node3</title>
<path fill="none" stroke="#63b8ff" d="M481.62,-412.33C551.23,-408.2 664.09,-401.51 737.04,-397.18"/>
<polygon fill="#63b8ff" stroke="#63b8ff" points="737.11,-400.68 746.88,-396.6 736.69,-393.69 737.11,-400.68"/>
</g>
<!-- Node5&#45;&gt;Node4 -->
<g id="edge17" class="edge">
<title>Node5&#45;&gt;Node4</title>
<path fill="none" stroke="#63b8ff" d="M355.74,-408.55C350.31,-406.09 345.05,-403.24 340.25,-400 298.8,-372 264.86,-322.91 247.88,-292.33"/>
<polygon fill="#63b8ff" stroke="#63b8ff" points="251.08,-290.89 243.31,-283.69 244.9,-294.17 251.08,-290.89"/>
</g>
<!-- Node6 -->
<g id="node6" class="node">
<title>Node6</title>
<g id="a_node6"><a xlink:href="a02039.html#af08f9302a02516ff8cf358a99aaa1ddf" target="_top" xlink:title=" ">
<polygon fill="white" stroke="#666666" points="686.12,-515 540.38,-515 540.38,-483 686.12,-483 686.12,-515"/>
<text xml:space="preserve" text-anchor="start" x="548.38" y="-501.5" font-family="Helvetica,sans-Serif" font-size="10.00">nlohmann::detail::binary</text>
<text xml:space="preserve" text-anchor="middle" x="613.25" y="-489.5" font-family="Helvetica,sans-Serif" font-size="10.00">_writer::calc_bson_array_size</text>
</a>
</g>
</g>
<!-- Node5&#45;&gt;Node6 -->
<g id="edge5" class="edge">
<title>Node5&#45;&gt;Node6</title>
<path fill="none" stroke="#63b8ff" d="M457.78,-432.4C488.23,-445.53 531.14,-464.03 564.01,-478.2"/>
<polygon fill="#63b8ff" stroke="#63b8ff" points="562.34,-481.29 572.91,-482.04 565.11,-474.86 562.34,-481.29"/>
</g>
<!-- Node15 -->
<g id="node15" class="node">
<title>Node15</title>
<g id="a_node15"><a xlink:href="a02039.html#a1b5b7f5c03b1f8b1f59ea61db9634108" target="_top" xlink:title="Writes the given element_type and name to the output adapter.">
<polygon fill="white" stroke="#666666" points="693.25,-257 533.25,-257 533.25,-225 693.25,-225 693.25,-257"/>
<text xml:space="preserve" text-anchor="start" x="541.25" y="-243.5" font-family="Helvetica,sans-Serif" font-size="10.00">nlohmann::detail::binary</text>
<text xml:space="preserve" text-anchor="middle" x="613.25" y="-231.5" font-family="Helvetica,sans-Serif" font-size="10.00">_writer::write_bson_entry_header</text>
</a>
</g>
</g>
<!-- Node5&#45;&gt;Node15 -->
<g id="edge18" class="edge">
<title>Node5&#45;&gt;Node15</title>
<path fill="none" stroke="#63b8ff" d="M481.9,-399.79C487.31,-397.25 492.51,-394.34 497.25,-391 543.95,-358.06 580.33,-300.52 598.82,-267.09"/>
<polygon fill="#63b8ff" stroke="#63b8ff" points="601.8,-268.94 603.47,-258.48 595.64,-265.62 601.8,-268.94"/>
</g>
<!-- Node7 -->
<g id="node7" class="node">
<title>Node7</title>
<g id="a_node7"><a xlink:href="a02039.html#a1e4372c5984184eb5bcc09af1fcc2ee0" target="_top" xlink:title="Calculates the size necessary to serialize the JSON value j with its name.">
<polygon fill="white" stroke="#666666" points="887.75,-501 729.25,-501 729.25,-469 887.75,-469 887.75,-501"/>
<text xml:space="preserve" text-anchor="start" x="737.25" y="-487.5" font-family="Helvetica,sans-Serif" font-size="10.00">nlohmann::detail::binary</text>
<text xml:space="preserve" text-anchor="middle" x="808.5" y="-475.5" font-family="Helvetica,sans-Serif" font-size="10.00">_writer::calc_bson_element_size</text>
</a>
</g>
</g>
<!-- Node6&#45;&gt;Node7 -->
<g id="edge6" class="edge">
<title>Node6&#45;&gt;Node7</title>
<path fill="none" stroke="#63b8ff" d="M686.48,-487.21C696.64,-486.31 707.18,-485.49 717.62,-484.78"/>
<polygon fill="#63b8ff" stroke="#63b8ff" points="717.61,-488.28 727.37,-484.15 717.16,-481.3 717.61,-488.28"/>
</g>
<!-- Node7&#45;&gt;Node2 -->
<g id="edge13" class="edge">
<title>Node7&#45;&gt;Node2</title>
<path fill="none" stroke="#63b8ff" d="M833.12,-501.32C855.63,-516.3 890.86,-538.35 923.75,-553 927.33,-554.6 931.05,-556.13 934.83,-557.6"/>
<polygon fill="#63b8ff" stroke="#63b8ff" points="933.59,-560.88 944.19,-561.05 936.01,-554.31 933.59,-560.88"/>
</g>
<!-- Node7&#45;&gt;Node6 -->
<g id="edge7" class="edge">
<title>Node7&#45;&gt;Node6</title>
<path fill="none" stroke="#63b8ff" d="M728.88,-497.34C718.69,-498.2 708.23,-498.97 697.96,-499.63"/>
<polygon fill="#63b8ff" stroke="#63b8ff" points="697.77,-496.14 687.99,-500.23 698.19,-503.12 697.77,-496.14"/>
</g>
<!-- Node8 -->
<g id="node8" class="node">
<title>Node8</title>
<g id="a_node8"><a xlink:href="a02039.html#a9dd6062fd249a695e0f93d558dba4685" target="_top" xlink:title=" ">
<polygon fill="white" stroke="#666666" points="1080.38,-444 930.12,-444 930.12,-412 1080.38,-412 1080.38,-444"/>
<text xml:space="preserve" text-anchor="start" x="938.12" y="-430.5" font-family="Helvetica,sans-Serif" font-size="10.00">nlohmann::detail::binary</text>
<text xml:space="preserve" text-anchor="middle" x="1005.25" y="-418.5" font-family="Helvetica,sans-Serif" font-size="10.00">_writer::calc_bson_binary_size</text>
</a>
</g>
</g>
<!-- Node7&#45;&gt;Node8 -->
<g id="edge8" class="edge">
<title>Node7&#45;&gt;Node8</title>
<path fill="none" stroke="#63b8ff" d="M865.83,-468.51C888.14,-461.98 913.96,-454.43 937.21,-447.62"/>
<polygon fill="#63b8ff" stroke="#63b8ff" points="937.98,-451.04 946.59,-444.87 936.01,-444.32 937.98,-451.04"/>
</g>
<!-- Node9 -->
<g id="node9" class="node">
<title>Node9</title>
<g id="a_node9"><a xlink:href="a02039.html#a5bae2f1db2c511b869dffaddf15a1653" target="_top" xlink:title=" ">
<polygon fill="white" stroke="#666666" points="1066.5,-394 944,-394 944,-350 1066.5,-350 1066.5,-394"/>
<text xml:space="preserve" text-anchor="start" x="952" y="-380.5" font-family="Helvetica,sans-Serif" font-size="10.00">nlohmann::detail::binary</text>
<text xml:space="preserve" text-anchor="start" x="952" y="-368.5" font-family="Helvetica,sans-Serif" font-size="10.00">_writer::calc_bson_entry</text>
<text xml:space="preserve" text-anchor="middle" x="1005.25" y="-356.5" font-family="Helvetica,sans-Serif" font-size="10.00">_header_size</text>
</a>
</g>
</g>
<!-- Node7&#45;&gt;Node9 -->
<g id="edge9" class="edge">
<title>Node7&#45;&gt;Node9</title>
<path fill="none" stroke="#63b8ff" d="M829.11,-468.54C851.09,-450.67 888.3,-422.14 923.75,-403 926.91,-401.29 930.19,-399.63 933.53,-398.03"/>
<polygon fill="#63b8ff" stroke="#63b8ff" points="934.69,-401.35 942.33,-394 931.78,-394.98 934.69,-401.35"/>
</g>
<!-- Node12 -->
<g id="node12" class="node">
<title>Node12</title>
<g id="a_node12"><a xlink:href="a02039.html#aeab70c895931b96ea598306b37eca271" target="_top" xlink:title=" ">
<polygon fill="white" stroke="#666666" points="1081.88,-332 928.62,-332 928.62,-300 1081.88,-300 1081.88,-332"/>
<text xml:space="preserve" text-anchor="start" x="936.62" y="-318.5" font-family="Helvetica,sans-Serif" font-size="10.00">nlohmann::detail::binary</text>
<text xml:space="preserve" text-anchor="middle" x="1005.25" y="-306.5" font-family="Helvetica,sans-Serif" font-size="10.00">_writer::calc_bson_integer_size</text>
</a>
</g>
</g>
<!-- Node7&#45;&gt;Node12 -->
<g id="edge12" class="edge">
<title>Node7&#45;&gt;Node12</title>
<path fill="none" stroke="#63b8ff" d="M833.45,-468.74C850.3,-456.36 872.49,-438.07 887.75,-418 910.61,-387.93 895.28,-365.83 923.75,-341 924.69,-340.18 925.65,-339.39 926.64,-338.63"/>
<polygon fill="#63b8ff" stroke="#63b8ff" points="928.39,-341.66 934.83,-333.25 924.55,-335.81 928.39,-341.66"/>
</g>
<!-- Node13 -->
<g id="node13" class="node">
<title>Node13</title>
<g id="a_node13"><a xlink:href="a02039.html#aea44fd97a5cb9b4f175e66e3e4fdf158" target="_top" xlink:title=" ">
<polygon fill="white" stroke="#666666" points="1079.25,-544 931.25,-544 931.25,-512 1079.25,-512 1079.25,-544"/>
<text xml:space="preserve" text-anchor="start" x="939.25" y="-530.5" font-family="Helvetica,sans-Serif" font-size="10.00">nlohmann::detail::binary</text>
<text xml:space="preserve" text-anchor="middle" x="1005.25" y="-518.5" font-family="Helvetica,sans-Serif" font-size="10.00">_writer::calc_bson_string_size</text>
</a>
</g>
</g>
<!-- Node7&#45;&gt;Node13 -->
<g id="edge14" class="edge">
<title>Node7&#45;&gt;Node13</title>
<path fill="none" stroke="#63b8ff" d="M883.96,-501.44C895.72,-504.04 907.95,-506.74 919.91,-509.38"/>
<polygon fill="#63b8ff" stroke="#63b8ff" points="918.8,-512.72 929.32,-511.46 920.31,-505.88 918.8,-512.72"/>
</g>
<!-- Node14 -->
<g id="node14" class="node">
<title>Node14</title>
<g id="a_node14"><a xlink:href="a02039.html#aa1d6bb9f3af16f07ce2440c354b5787b" target="_top" xlink:title=" ">
<polygon fill="white" stroke="#666666" points="1086.75,-494 923.75,-494 923.75,-462 1086.75,-462 1086.75,-494"/>
<text xml:space="preserve" text-anchor="start" x="931.75" y="-480.5" font-family="Helvetica,sans-Serif" font-size="10.00">nlohmann::detail::binary</text>
<text xml:space="preserve" text-anchor="middle" x="1005.25" y="-468.5" font-family="Helvetica,sans-Serif" font-size="10.00">_writer::calc_bson_unsigned_size</text>
</a>
</g>
</g>
<!-- Node7&#45;&gt;Node14 -->
<g id="edge15" class="edge">
<title>Node7&#45;&gt;Node14</title>
<path fill="none" stroke="#63b8ff" d="M888.15,-482.17C896.04,-481.89 904.11,-481.6 912.12,-481.31"/>
<polygon fill="#63b8ff" stroke="#63b8ff" points="912.02,-484.82 921.89,-480.96 911.77,-477.82 912.02,-484.82"/>
</g>
<!-- Node10 -->
<g id="node10" class="node">
<title>Node10</title>
<g id="a_node10"><a xlink:href="a01575.html#a3f6d82a6f967c4728a1ec735a7867073" target="_top" xlink:title=" ">
<polygon fill="white" stroke="#666666" points="1229.5,-271 1122.75,-271 1122.75,-239 1229.5,-239 1229.5,-271"/>
<text xml:space="preserve" text-anchor="start" x="1130.75" y="-257.5" font-family="Helvetica,sans-Serif" font-size="10.00">nlohmann::detail::out</text>
<text xml:space="preserve" text-anchor="middle" x="1176.12" y="-245.5" font-family="Helvetica,sans-Serif" font-size="10.00">_of_range::create</text>
</a>
</g>
</g>
<!-- Node9&#45;&gt;Node10 -->
<g id="edge10" class="edge">
<title>Node9&#45;&gt;Node10</title>
<path fill="none" stroke="#63b8ff" d="M1066.91,-351.74C1073.81,-348.54 1080.57,-344.96 1086.75,-341 1112.93,-324.23 1137.85,-298.81 1154.51,-279.95"/>
<polygon fill="#63b8ff" stroke="#63b8ff" points="1157.12,-282.29 1161.01,-272.43 1151.82,-277.71 1157.12,-282.29"/>
</g>
<!-- Node11 -->
<g id="node11" class="node">
<title>Node11</title>
<g id="a_node11"><a xlink:href="a01559.html#abf41a7e9178356314082284e6cfea278" target="_top" xlink:title=" ">
<polygon fill="white" stroke="#666666" points="1400.75,-271 1265.5,-271 1265.5,-239 1400.75,-239 1400.75,-271"/>
<text xml:space="preserve" text-anchor="start" x="1273.5" y="-257.5" font-family="Helvetica,sans-Serif" font-size="10.00">nlohmann::detail::exception</text>
<text xml:space="preserve" text-anchor="middle" x="1333.12" y="-245.5" font-family="Helvetica,sans-Serif" font-size="10.00">::name</text>
</a>
</g>
</g>
<!-- Node10&#45;&gt;Node11 -->
<g id="edge11" class="edge">
<title>Node10&#45;&gt;Node11</title>
<path fill="none" stroke="#63b8ff" d="M1229.6,-255C1237.36,-255 1245.5,-255 1253.65,-255"/>
<polygon fill="#63b8ff" stroke="#63b8ff" points="1253.63,-258.5 1263.63,-255 1253.63,-251.5 1253.63,-258.5"/>
</g>
<!-- Node15&#45;&gt;Node3 -->
<g id="edge19" class="edge">
<title>Node15&#45;&gt;Node3</title>
<path fill="none" stroke="#63b8ff" d="M634.93,-257.27C669.28,-284.28 738.2,-338.49 777.76,-369.61"/>
<polygon fill="#63b8ff" stroke="#63b8ff" points="775.46,-372.25 785.49,-375.68 779.79,-366.75 775.46,-372.25"/>
</g>
<!-- Node16&#45;&gt;Node15 -->
<g id="edge21" class="edge">
<title>Node16&#45;&gt;Node15</title>
<path fill="none" stroke="#63b8ff" d="M482.3,-82.4C487.56,-84.89 492.63,-87.74 497.25,-91 543.95,-123.94 580.33,-181.48 598.82,-214.91"/>
<polygon fill="#63b8ff" stroke="#63b8ff" points="595.64,-216.38 603.47,-223.52 601.8,-213.06 595.64,-216.38"/>
</g>
<!-- Node17 -->
<g id="node17" class="node">
<title>Node17</title>
<g id="a_node17"><a xlink:href="a02039.html#a6e11b7227fcecc25a548ed45507b7d1c" target="_top" xlink:title=" ">
<polygon fill="white" stroke="#666666" points="673,-82 553.5,-82 553.5,-50 673,-50 673,-82"/>
<text xml:space="preserve" text-anchor="start" x="561.5" y="-68.5" font-family="Helvetica,sans-Serif" font-size="10.00">nlohmann::detail::binary</text>
<text xml:space="preserve" text-anchor="middle" x="613.25" y="-56.5" font-family="Helvetica,sans-Serif" font-size="10.00">_writer::write_number</text>
</a>
</g>
</g>
<!-- Node16&#45;&gt;Node17 -->
<g id="edge22" class="edge">
<title>Node16&#45;&gt;Node17</title>
<path fill="none" stroke="#63b8ff" d="M484.12,-66C502.58,-66 522.81,-66 541.63,-66"/>
<polygon fill="#63b8ff" stroke="#63b8ff" points="541.62,-69.5 551.62,-66 541.62,-62.5 541.62,-69.5"/>
</g>
<!-- Node18&#45;&gt;Node3 -->
<g id="edge24" class="edge">
<title>Node18&#45;&gt;Node3</title>
<path fill="none" stroke="#63b8ff" d="M487.73,-370.73C557.69,-375.6 666.16,-383.16 737.02,-388.09"/>
<polygon fill="#63b8ff" stroke="#63b8ff" points="736.76,-391.58 746.98,-388.79 737.24,-384.6 736.76,-391.58"/>
</g>
<!-- Node18&#45;&gt;Node15 -->
<g id="edge25" class="edge">
<title>Node18&#45;&gt;Node15</title>
<path fill="none" stroke="#63b8ff" d="M479.21,-349.59C485.46,-347.05 491.59,-344.2 497.25,-341 533.21,-320.7 568.06,-287.99 589.8,-265.54"/>
<polygon fill="#63b8ff" stroke="#63b8ff" points="592.06,-268.24 596.41,-258.58 586.99,-263.42 592.06,-268.24"/>
</g>
<!-- Node19&#45;&gt;Node15 -->
<g id="edge27" class="edge">
<title>Node19&#45;&gt;Node15</title>
<path fill="none" stroke="#63b8ff" d="M485.19,-224.5C496.96,-226.03 509.41,-227.64 521.74,-229.25"/>
<polygon fill="#63b8ff" stroke="#63b8ff" points="521.13,-232.7 531.5,-230.51 522.03,-225.75 521.13,-232.7"/>
</g>
<!-- Node20&#45;&gt;Node15 -->
<g id="edge29" class="edge">
<title>Node20&#45;&gt;Node15</title>
<path fill="none" stroke="#63b8ff" d="M472.94,-182.39C481.12,-185.14 489.45,-188.05 497.25,-191 520.42,-199.75 545.71,-210.6 566.66,-219.95"/>
<polygon fill="#63b8ff" stroke="#63b8ff" points="564.94,-223.02 575.5,-223.93 567.81,-216.63 564.94,-223.02"/>
</g>
<!-- Node21&#45;&gt;Node15 -->
<g id="edge31" class="edge">
<title>Node21&#45;&gt;Node15</title>
<path fill="none" stroke="#63b8ff" d="M472.94,-299.61C481.12,-296.86 489.45,-293.95 497.25,-291 520.42,-282.25 545.71,-271.4 566.66,-262.05"/>
<polygon fill="#63b8ff" stroke="#63b8ff" points="567.81,-265.37 575.5,-258.07 564.94,-258.98 567.81,-265.37"/>
</g>
<!-- Node22&#45;&gt;Node1 -->
<g id="edge34" class="edge">
<title>Node22&#45;&gt;Node1</title>
<path fill="none" stroke="#63b8ff" d="M356.21,-32.35C350.62,-34.86 345.21,-37.73 340.25,-41 216.25,-122.79 116.97,-276.39 80.77,-337.23"/>
<polygon fill="#63b8ff" stroke="#63b8ff" points="77.95,-335.13 75.9,-345.52 83.98,-338.68 77.95,-335.13"/>
</g>
<!-- Node22&#45;&gt;Node15 -->
<g id="edge33" class="edge">
<title>Node22&#45;&gt;Node15</title>
<path fill="none" stroke="#63b8ff" d="M483.93,-32.36C488.67,-34.85 493.18,-37.71 497.25,-41 512.44,-53.29 571.28,-163.03 598.41,-214.53"/>
<polygon fill="#63b8ff" stroke="#63b8ff" points="595.24,-216.02 602.99,-223.24 601.43,-212.76 595.24,-216.02"/>
</g>
<!-- Node23&#45;&gt;Node15 -->
<g id="edge36" class="edge">
<title>Node23&#45;&gt;Node15</title>
<path fill="none" stroke="#63b8ff" d="M483.05,-257.78C495.34,-256.18 508.44,-254.48 521.42,-252.8"/>
<polygon fill="#63b8ff" stroke="#63b8ff" points="521.79,-256.28 531.26,-251.52 520.89,-249.34 521.79,-256.28"/>
</g>
<!-- Node24&#45;&gt;Node10 -->
<g id="edge38" class="edge">
<title>Node24&#45;&gt;Node10</title>
<path fill="none" stroke="#63b8ff" d="M490.47,-129.01C636.88,-155.96 971.18,-217.47 1111.38,-243.27"/>
<polygon fill="#63b8ff" stroke="#63b8ff" points="1110.38,-246.64 1120.85,-245.01 1111.65,-239.76 1110.38,-246.64"/>
</g>
<!-- Node24&#45;&gt;Node15 -->
<g id="edge39" class="edge">
<title>Node24&#45;&gt;Node15</title>
<path fill="none" stroke="#63b8ff" d="M479.21,-132.41C485.46,-134.95 491.59,-137.8 497.25,-141 502.23,-143.81 552.86,-188.37 585.26,-217.05"/>
<polygon fill="#63b8ff" stroke="#63b8ff" points="582.92,-219.65 592.73,-223.66 587.56,-214.41 582.92,-219.65"/>
</g>
</g>
</svg>
