<?xml version="1.0" encoding="UTF-8" standalone="no"?>
<!DOCTYPE svg PUBLIC "-//W3C//DTD SVG 1.1//EN"
 "http://www.w3.org/Graphics/SVG/1.1/DTD/svg11.dtd">
<!-- Generated by graphviz version 13.1.2 (20250808.2320)
 -->
<!-- Title: nlohmann::detail::iter_impl::set_begin Pages: 1 -->
<svg width="281pt" height="90pt"
 viewBox="0.00 0.00 281.00 90.00" xmlns="http://www.w3.org/2000/svg" xmlns:xlink="http://www.w3.org/1999/xlink">
<g id="graph0" class="graph" transform="scale(1 1) rotate(0) translate(4 86)">
<title>nlohmann::detail::iter_impl::set_begin</title>
<!-- Node1 -->
<g id="node1" class="node">
<title>Node1</title>
<g id="a_node1"><a xlink:title="set the iterator to the first value">
<polygon fill="#999999" stroke="#666666" points="106.75,-57 0,-57 0,-25 106.75,-25 106.75,-57"/>
<text xml:space="preserve" text-anchor="start" x="8" y="-43.5" font-family="Helvetica,sans-Serif" font-size="10.00">nlohmann::detail::iter</text>
<text xml:space="preserve" text-anchor="middle" x="53.38" y="-31.5" font-family="Helvetica,sans-Serif" font-size="10.00">_impl::set_begin</text>
</a>
</g>
</g>
<!-- Node2 -->
<g id="node2" class="node">
<title>Node2</title>
<g id="a_node2"><a xlink:href="a02003.html#a9d9b005906106e12aed738f97d7fee42" target="_top" xlink:title="set iterator to a defined beginning">
<polygon fill="white" stroke="#666666" points="272.75,-82 142.75,-82 142.75,-50 272.75,-50 272.75,-82"/>
<text xml:space="preserve" text-anchor="start" x="150.75" y="-68.5" font-family="Helvetica,sans-Serif" font-size="10.00">nlohmann::detail::primitive</text>
<text xml:space="preserve" text-anchor="middle" x="207.75" y="-56.5" font-family="Helvetica,sans-Serif" font-size="10.00">_iterator_t::set_begin</text>
</a>
</g>
</g>
<!-- Node1&#45;&gt;Node2 -->
<g id="edge1" class="edge">
<title>Node1&#45;&gt;Node2</title>
<path fill="none" stroke="#63b8ff" d="M107.24,-49.67C114.95,-50.94 123.02,-52.26 131.07,-53.58"/>
<polygon fill="#63b8ff" stroke="#63b8ff" points="130.49,-57.04 140.93,-55.2 131.63,-50.13 130.49,-57.04"/>
</g>
<!-- Node3 -->
<g id="node3" class="node">
<title>Node3</title>
<g id="a_node3"><a xlink:href="a02003.html#ad26a823483846a12d890c3feed3097eb" target="_top" xlink:title="set iterator to a defined past the end">
<polygon fill="white" stroke="#666666" points="272.75,-32 142.75,-32 142.75,0 272.75,0 272.75,-32"/>
<text xml:space="preserve" text-anchor="start" x="150.75" y="-18.5" font-family="Helvetica,sans-Serif" font-size="10.00">nlohmann::detail::primitive</text>
<text xml:space="preserve" text-anchor="middle" x="207.75" y="-6.5" font-family="Helvetica,sans-Serif" font-size="10.00">_iterator_t::set_end</text>
</a>
</g>
</g>
<!-- Node1&#45;&gt;Node3 -->
<g id="edge2" class="edge">
<title>Node1&#45;&gt;Node3</title>
<path fill="none" stroke="#63b8ff" d="M107.24,-32.33C114.95,-31.06 123.02,-29.74 131.07,-28.42"/>
<polygon fill="#63b8ff" stroke="#63b8ff" points="131.63,-31.87 140.93,-26.8 130.49,-24.96 131.63,-31.87"/>
</g>
</g>
</svg>
