<?xml version="1.0" encoding="UTF-8" standalone="no"?>
<!DOCTYPE svg PUBLIC "-//W3C//DTD SVG 1.1//EN"
 "http://www.w3.org/Graphics/SVG/1.1/DTD/svg11.dtd">
<!-- Generated by graphviz version 13.1.2 (20250808.2320)
 -->
<!-- Title: nlohmann::detail::internal_iterator&lt; BasicJsonType &gt; Pages: 1 -->
<svg width="309pt" height="200pt"
 viewBox="0.00 0.00 309.00 200.00" xmlns="http://www.w3.org/2000/svg" xmlns:xlink="http://www.w3.org/1999/xlink">
<g id="graph0" class="graph" transform="scale(1 1) rotate(0) translate(4 196)">
<title>nlohmann::detail::internal_iterator&lt; BasicJsonType &gt;</title>
<!-- Node1 -->
<g id="node1" class="node">
<title>Node1</title>
<g id="a_node1"><a xlink:title="an iterator value">
<polygon fill="#999999" stroke="#666666" points="179,-32 43,-32 43,0 179,0 179,-32"/>
<text xml:space="preserve" text-anchor="start" x="51" y="-18.5" font-family="Helvetica,sans-Serif" font-size="10.00">nlohmann::detail::internal</text>
<text xml:space="preserve" text-anchor="middle" x="111" y="-6.5" font-family="Helvetica,sans-Serif" font-size="10.00">_iterator&lt; BasicJsonType &gt;</text>
</a>
</g>
</g>
<!-- Node2 -->
<g id="node2" class="node">
<title>Node2</title>
<g id="a_node2"><a xlink:title=" ">
<polygon fill="white" stroke="#666666" points="46,-106 0,-106 0,-86 46,-86 46,-106"/>
<text xml:space="preserve" text-anchor="middle" x="23" y="-92.5" font-family="Helvetica,sans-Serif" font-size="10.00">iterator</text>
</a>
</g>
</g>
<!-- Node2&#45;&gt;Node1 -->
<g id="edge1" class="edge">
<title>Node2&#45;&gt;Node1</title>
<path fill="none" stroke="#9a32cd" stroke-dasharray="5,2" d="M28.34,-74.71C31.38,-66.26 35.92,-56.84 42.5,-50 49.36,-42.86 58.08,-37.07 66.98,-32.46"/>
<polygon fill="#9a32cd" stroke="#9a32cd" points="25.02,-73.61 25.44,-84.2 31.71,-75.66 25.02,-73.61"/>
<text xml:space="preserve" text-anchor="middle" x="74.75" y="-52.5" font-family="Helvetica,sans-Serif" font-size="10.00"> object_iterator</text>
</g>
<!-- Node3 -->
<g id="node3" class="node">
<title>Node3</title>
<g id="a_node3"><a xlink:title=" ">
<polygon fill="white" stroke="#666666" points="134,-106 88,-106 88,-86 134,-86 134,-106"/>
<text xml:space="preserve" text-anchor="middle" x="111" y="-92.5" font-family="Helvetica,sans-Serif" font-size="10.00">iterator</text>
</a>
</g>
</g>
<!-- Node3&#45;&gt;Node1 -->
<g id="edge2" class="edge">
<title>Node3&#45;&gt;Node1</title>
<path fill="none" stroke="#9a32cd" stroke-dasharray="5,2" d="M111,-74.51C111,-61.32 111,-44.47 111,-32.42"/>
<polygon fill="#9a32cd" stroke="#9a32cd" points="107.5,-74.23 111,-84.23 114.5,-74.23 107.5,-74.23"/>
<text xml:space="preserve" text-anchor="middle" x="141" y="-52.5" font-family="Helvetica,sans-Serif" font-size="10.00"> array_iterator</text>
</g>
<!-- Node4 -->
<g id="node4" class="node">
<title>Node4</title>
<g id="a_node4"><a xlink:href="a02003.html" target="_top" xlink:title=" ">
<polygon fill="white" stroke="#666666" points="282,-112 152,-112 152,-80 282,-80 282,-112"/>
<text xml:space="preserve" text-anchor="start" x="160" y="-98.5" font-family="Helvetica,sans-Serif" font-size="10.00">nlohmann::detail::primitive</text>
<text xml:space="preserve" text-anchor="middle" x="217" y="-86.5" font-family="Helvetica,sans-Serif" font-size="10.00">_iterator_t</text>
</a>
</g>
</g>
<!-- Node4&#45;&gt;Node1 -->
<g id="edge3" class="edge">
<title>Node4&#45;&gt;Node1</title>
<path fill="none" stroke="#9a32cd" stroke-dasharray="5,2" d="M197.64,-71.23C190.94,-63.88 183.08,-56.12 175,-50 166.23,-43.36 155.93,-37.39 146.18,-32.4"/>
<polygon fill="#9a32cd" stroke="#9a32cd" points="194.69,-73.18 203.9,-78.41 199.96,-68.57 194.69,-73.18"/>
<text xml:space="preserve" text-anchor="middle" x="225.24" y="-52.5" font-family="Helvetica,sans-Serif" font-size="10.00"> primitive_iterator</text>
</g>
<!-- Node5 -->
<g id="node5" class="node">
<title>Node5</title>
<g id="a_node5"><a xlink:title=" ">
<polygon fill="white" stroke="#666666" points="234.38,-192 79.62,-192 79.62,-172 234.38,-172 234.38,-192"/>
<text xml:space="preserve" text-anchor="middle" x="157" y="-178.5" font-family="Helvetica,sans-Serif" font-size="10.00">static constexpr difference_type</text>
</a>
</g>
</g>
<!-- Node5&#45;&gt;Node4 -->
<g id="edge4" class="edge">
<title>Node5&#45;&gt;Node4</title>
<path fill="none" stroke="#9a32cd" stroke-dasharray="5,2" d="M170.31,-162.37C181.06,-147.32 196,-126.41 206.06,-112.32"/>
<polygon fill="#9a32cd" stroke="#9a32cd" points="167.49,-160.29 164.53,-170.46 173.19,-164.35 167.49,-160.29"/>
<text xml:space="preserve" text-anchor="middle" x="219.75" y="-144.5" font-family="Helvetica,sans-Serif" font-size="10.00"> begin_value</text>
<text xml:space="preserve" text-anchor="middle" x="219.75" y="-132.5" font-family="Helvetica,sans-Serif" font-size="10.00">end_value</text>
</g>
<!-- Node6 -->
<g id="node6" class="node">
<title>Node6</title>
<g id="a_node6"><a xlink:title=" ">
<polygon fill="white" stroke="#666666" points="301.12,-192 252.88,-192 252.88,-172 301.12,-172 301.12,-192"/>
<text xml:space="preserve" text-anchor="middle" x="277" y="-178.5" font-family="Helvetica,sans-Serif" font-size="10.00">ptrdiff_t</text>
</a>
</g>
</g>
<!-- Node6&#45;&gt;Node4 -->
<g id="edge5" class="edge">
<title>Node6&#45;&gt;Node4</title>
<path fill="none" stroke="#9a32cd" stroke-dasharray="5,2" d="M268.86,-161.42C264.32,-151.55 258.13,-139.65 251,-130 246.41,-123.78 240.6,-117.68 235.1,-112.45"/>
<polygon fill="#9a32cd" stroke="#9a32cd" points="265.59,-162.68 272.8,-170.44 272.01,-159.87 265.59,-162.68"/>
<text xml:space="preserve" text-anchor="middle" x="275.56" y="-138.5" font-family="Helvetica,sans-Serif" font-size="10.00"> m_it</text>
</g>
</g>
</svg>
