<?xml version="1.0" encoding="UTF-8" standalone="no"?>
<!DOCTYPE svg PUBLIC "-//W3C//DTD SVG 1.1//EN"
 "http://www.w3.org/Graphics/SVG/1.1/DTD/svg11.dtd">
<!-- Generated by graphviz version 13.1.2 (20250808.2320)
 -->
<!-- Title: nlohmann::detail::primitive_iterator_t::set_begin Pages: 1 -->
<svg width="720pt" height="526pt"
 viewBox="0.00 0.00 720.00 526.00" xmlns="http://www.w3.org/2000/svg" xmlns:xlink="http://www.w3.org/1999/xlink">
<g id="graph0" class="graph" transform="scale(1 1) rotate(0) translate(4 522)">
<title>nlohmann::detail::primitive_iterator_t::set_begin</title>
<!-- Node1 -->
<g id="node1" class="node">
<title>Node1</title>
<g id="a_node1"><a xlink:title="set iterator to a defined beginning">
<polygon fill="#999999" stroke="#666666" points="712.25,-241 582.25,-241 582.25,-209 712.25,-209 712.25,-241"/>
<text xml:space="preserve" text-anchor="start" x="590.25" y="-227.5" font-family="Helvetica,sans-Serif" font-size="10.00">nlohmann::detail::primitive</text>
<text xml:space="preserve" text-anchor="middle" x="647.25" y="-215.5" font-family="Helvetica,sans-Serif" font-size="10.00">_iterator_t::set_begin</text>
</a>
</g>
</g>
<!-- Node2 -->
<g id="node2" class="node">
<title>Node2</title>
<g id="a_node2"><a xlink:href="a02011.html#a5d5f92c7f6848814bc82cf7e4e541820" target="_top" xlink:title="set the iterator to the first value">
<polygon fill="white" stroke="#666666" points="546.25,-241 439.5,-241 439.5,-209 546.25,-209 546.25,-241"/>
<text xml:space="preserve" text-anchor="start" x="447.5" y="-227.5" font-family="Helvetica,sans-Serif" font-size="10.00">nlohmann::detail::iter</text>
<text xml:space="preserve" text-anchor="middle" x="492.88" y="-215.5" font-family="Helvetica,sans-Serif" font-size="10.00">_impl::set_begin</text>
</a>
</g>
</g>
<!-- Node1&#45;&gt;Node2 -->
<g id="edge1" class="edge">
<title>Node1&#45;&gt;Node2</title>
<path fill="none" stroke="#63b8ff" d="M570.58,-225C562.41,-225 554.24,-225 546.44,-225"/>
<polygon fill="#63b8ff" stroke="#63b8ff" points="570.56,-228.5 580.56,-225 570.56,-221.5 570.56,-228.5"/>
</g>
<!-- Node3 -->
<g id="node3" class="node">
<title>Node3</title>
<g id="a_node3"><a xlink:href="a01659.html#a23b495b4c282e4afacf382f5b49af7c7" target="_top" xlink:title="returns an iterator to the first element">
<polygon fill="white" stroke="#666666" points="403.5,-350 293,-350 293,-318 403.5,-318 403.5,-350"/>
<text xml:space="preserve" text-anchor="start" x="301" y="-336.5" font-family="Helvetica,sans-Serif" font-size="10.00">nlohmann::basic_json</text>
<text xml:space="preserve" text-anchor="middle" x="348.25" y="-324.5" font-family="Helvetica,sans-Serif" font-size="10.00">::begin</text>
</a>
</g>
</g>
<!-- Node2&#45;&gt;Node3 -->
<g id="edge2" class="edge">
<title>Node2&#45;&gt;Node3</title>
<path fill="none" stroke="#63b8ff" d="M461.42,-248.27C434.16,-269.11 394.86,-299.14 370.75,-317.57"/>
<polygon fill="#63b8ff" stroke="#63b8ff" points="463.5,-251.09 469.32,-242.24 459.25,-245.53 463.5,-251.09"/>
</g>
<!-- Node10 -->
<g id="node10" class="node">
<title>Node10</title>
<g id="a_node10"><a xlink:href="a01659.html#ae508c13e3ad6ce445bcaf24a2bc7d039" target="_top" xlink:title="returns a const iterator to the first element">
<polygon fill="white" stroke="#666666" points="403.5,-157 293,-157 293,-125 403.5,-125 403.5,-157"/>
<text xml:space="preserve" text-anchor="start" x="301" y="-143.5" font-family="Helvetica,sans-Serif" font-size="10.00">nlohmann::basic_json</text>
<text xml:space="preserve" text-anchor="middle" x="348.25" y="-131.5" font-family="Helvetica,sans-Serif" font-size="10.00">::cbegin</text>
</a>
</g>
</g>
<!-- Node2&#45;&gt;Node10 -->
<g id="edge11" class="edge">
<title>Node2&#45;&gt;Node10</title>
<path fill="none" stroke="#63b8ff" d="M454.44,-202.95C430.17,-188.66 399.09,-170.35 377.02,-157.35"/>
<polygon fill="#63b8ff" stroke="#63b8ff" points="452.34,-205.78 462.73,-207.84 455.89,-199.75 452.34,-205.78"/>
</g>
<!-- Node4 -->
<g id="node4" class="node">
<title>Node4</title>
<g id="a_node4"><a xlink:href="a01659.html#a1c1f21327df91a4dd6c5f5a107240385" target="_top" xlink:title="creates a diff as a JSON patch">
<polygon fill="white" stroke="#666666" points="257,-232 146.5,-232 146.5,-200 257,-200 257,-232"/>
<text xml:space="preserve" text-anchor="start" x="154.5" y="-218.5" font-family="Helvetica,sans-Serif" font-size="10.00">nlohmann::basic_json</text>
<text xml:space="preserve" text-anchor="middle" x="201.75" y="-206.5" font-family="Helvetica,sans-Serif" font-size="10.00">::diff</text>
</a>
</g>
</g>
<!-- Node3&#45;&gt;Node4 -->
<g id="edge3" class="edge">
<title>Node3&#45;&gt;Node4</title>
<path fill="none" stroke="#63b8ff" d="M319.27,-310.47C301.52,-295.61 278.01,-276.06 257,-259 246.08,-250.14 233.81,-240.4 223.71,-232.43"/>
<polygon fill="#63b8ff" stroke="#63b8ff" points="316.92,-313.06 326.83,-316.8 321.42,-307.7 316.92,-313.06"/>
</g>
<!-- Node5 -->
<g id="node5" class="node">
<title>Node5</title>
<g id="a_node5"><a xlink:href="a01659.html#af244c096197a233edba4c83200ae66ac" target="_top" xlink:title="add an object to an object if key does not exist">
<polygon fill="white" stroke="#666666" points="257,-518 146.5,-518 146.5,-486 257,-486 257,-518"/>
<text xml:space="preserve" text-anchor="start" x="154.5" y="-504.5" font-family="Helvetica,sans-Serif" font-size="10.00">nlohmann::basic_json</text>
<text xml:space="preserve" text-anchor="middle" x="201.75" y="-492.5" font-family="Helvetica,sans-Serif" font-size="10.00">::emplace</text>
</a>
</g>
</g>
<!-- Node3&#45;&gt;Node5 -->
<g id="edge5" class="edge">
<title>Node3&#45;&gt;Node5</title>
<path fill="none" stroke="#63b8ff" d="M336.23,-360.45C322,-391.86 294.52,-444.11 257,-477 253.34,-480.21 249.19,-483.09 244.86,-485.64"/>
<polygon fill="#63b8ff" stroke="#63b8ff" points="339.28,-362.23 340.1,-351.67 332.87,-359.41 339.28,-362.23"/>
</g>
<!-- Node6 -->
<g id="node6" class="node">
<title>Node6</title>
<g id="a_node6"><a xlink:href="a01659.html#a5417ca43ae5e7a3a2f82eee2d915c6ed" target="_top" xlink:title="access the first element">
<polygon fill="white" stroke="#666666" points="257,-468 146.5,-468 146.5,-436 257,-436 257,-468"/>
<text xml:space="preserve" text-anchor="start" x="154.5" y="-454.5" font-family="Helvetica,sans-Serif" font-size="10.00">nlohmann::basic_json</text>
<text xml:space="preserve" text-anchor="middle" x="201.75" y="-442.5" font-family="Helvetica,sans-Serif" font-size="10.00">::front</text>
</a>
</g>
</g>
<!-- Node3&#45;&gt;Node6 -->
<g id="edge6" class="edge">
<title>Node3&#45;&gt;Node6</title>
<path fill="none" stroke="#63b8ff" d="M327.52,-358.94C310.5,-379.24 284.39,-407.61 257,-427 252.6,-430.12 247.75,-433 242.81,-435.61"/>
<polygon fill="#63b8ff" stroke="#63b8ff" points="330.07,-361.36 333.72,-351.41 324.66,-356.91 330.07,-361.36"/>
</g>
<!-- Node7 -->
<g id="node7" class="node">
<title>Node7</title>
<g id="a_node7"><a xlink:href="a01659.html#a844a77cb154752d12118f10af26d54cb" target="_top" xlink:title="applies a JSON Merge Patch">
<polygon fill="white" stroke="#666666" points="257,-400 146.5,-400 146.5,-368 257,-368 257,-400"/>
<text xml:space="preserve" text-anchor="start" x="154.5" y="-386.5" font-family="Helvetica,sans-Serif" font-size="10.00">nlohmann::basic_json</text>
<text xml:space="preserve" text-anchor="middle" x="201.75" y="-374.5" font-family="Helvetica,sans-Serif" font-size="10.00">::merge_patch</text>
</a>
</g>
</g>
<!-- Node3&#45;&gt;Node7 -->
<g id="edge7" class="edge">
<title>Node3&#45;&gt;Node7</title>
<path fill="none" stroke="#63b8ff" d="M289.23,-354.08C276.26,-358.56 262.65,-363.27 250.17,-367.59"/>
<polygon fill="#63b8ff" stroke="#63b8ff" points="290.2,-357.44 298.5,-350.87 287.91,-350.83 290.2,-357.44"/>
</g>
<!-- Node8 -->
<g id="node8" class="node">
<title>Node8</title>
<g id="a_node8"><a xlink:href="a01659.html#adcc786998f220a5b3083ee8a37c4553e" target="_top" xlink:title="applies a JSON patch">
<polygon fill="white" stroke="#666666" points="257,-350 146.5,-350 146.5,-318 257,-318 257,-350"/>
<text xml:space="preserve" text-anchor="start" x="154.5" y="-336.5" font-family="Helvetica,sans-Serif" font-size="10.00">nlohmann::basic_json</text>
<text xml:space="preserve" text-anchor="middle" x="201.75" y="-324.5" font-family="Helvetica,sans-Serif" font-size="10.00">::patch</text>
</a>
</g>
</g>
<!-- Node3&#45;&gt;Node8 -->
<g id="edge9" class="edge">
<title>Node3&#45;&gt;Node8</title>
<path fill="none" stroke="#63b8ff" d="M281.13,-334C273.21,-334 265.19,-334 257.46,-334"/>
<polygon fill="#63b8ff" stroke="#63b8ff" points="281.11,-337.5 291.11,-334 281.11,-330.5 281.11,-337.5"/>
</g>
<!-- Node9 -->
<g id="node9" class="node">
<title>Node9</title>
<g id="a_node9"><a xlink:href="a01659.html#a7a328b29b290cc300345376c54f618cb" target="_top" xlink:title="returns an iterator to the reverse&#45;end">
<polygon fill="white" stroke="#666666" points="257,-300 146.5,-300 146.5,-268 257,-268 257,-300"/>
<text xml:space="preserve" text-anchor="start" x="154.5" y="-286.5" font-family="Helvetica,sans-Serif" font-size="10.00">nlohmann::basic_json</text>
<text xml:space="preserve" text-anchor="middle" x="201.75" y="-274.5" font-family="Helvetica,sans-Serif" font-size="10.00">::rend</text>
</a>
</g>
</g>
<!-- Node3&#45;&gt;Node9 -->
<g id="edge10" class="edge">
<title>Node3&#45;&gt;Node9</title>
<path fill="none" stroke="#63b8ff" d="M289.23,-313.92C276.26,-309.44 262.65,-304.73 250.17,-300.41"/>
<polygon fill="#63b8ff" stroke="#63b8ff" points="287.91,-317.17 298.5,-317.13 290.2,-310.56 287.91,-317.17"/>
</g>
<!-- Node4&#45;&gt;Node4 -->
<g id="edge4" class="edge">
<title>Node4&#45;&gt;Node4</title>
<path fill="none" stroke="#63b8ff" d="M226.16,-243.71C222.09,-247.48 213.96,-250 201.75,-250 179.43,-250 170.71,-241.58 175.6,-232.44"/>
<polygon fill="#63b8ff" stroke="#63b8ff" points="229.6,-244.36 227.67,-233.94 222.69,-243.29 229.6,-244.36"/>
</g>
<!-- Node7&#45;&gt;Node7 -->
<g id="edge8" class="edge">
<title>Node7&#45;&gt;Node7</title>
<path fill="none" stroke="#63b8ff" d="M226.16,-411.71C222.09,-415.48 213.96,-418 201.75,-418 179.43,-418 170.71,-409.58 175.6,-400.44"/>
<polygon fill="#63b8ff" stroke="#63b8ff" points="229.6,-412.36 227.67,-401.94 222.69,-411.29 229.6,-412.36"/>
</g>
<!-- Node10&#45;&gt;Node4 -->
<g id="edge15" class="edge">
<title>Node10&#45;&gt;Node4</title>
<path fill="none" stroke="#63b8ff" d="M309.52,-162.72C293.47,-171.74 274.47,-182.15 257,-191 251.36,-193.86 245.32,-196.77 239.4,-199.56"/>
<polygon fill="#63b8ff" stroke="#63b8ff" points="310.79,-166.02 317.77,-158.05 307.34,-159.93 310.79,-166.02"/>
</g>
<!-- Node11 -->
<g id="node11" class="node">
<title>Node11</title>
<g id="a_node11"><a xlink:href="a01659.html#a4f147be16fcde9f510c4aac89ab511c9" target="_top" xlink:title="returns a const iterator to the first element">
<polygon fill="white" stroke="#666666" points="257,-182 146.5,-182 146.5,-150 257,-150 257,-182"/>
<text xml:space="preserve" text-anchor="start" x="154.5" y="-168.5" font-family="Helvetica,sans-Serif" font-size="10.00">nlohmann::basic_json</text>
<text xml:space="preserve" text-anchor="middle" x="201.75" y="-156.5" font-family="Helvetica,sans-Serif" font-size="10.00">::begin</text>
</a>
</g>
</g>
<!-- Node10&#45;&gt;Node11 -->
<g id="edge12" class="edge">
<title>Node10&#45;&gt;Node11</title>
<path fill="none" stroke="#63b8ff" d="M281.41,-152.39C273.4,-153.78 265.28,-155.18 257.46,-156.54"/>
<polygon fill="#63b8ff" stroke="#63b8ff" points="281.87,-155.86 291.13,-150.71 280.68,-148.97 281.87,-155.86"/>
</g>
<!-- Node12 -->
<g id="node12" class="node">
<title>Node12</title>
<g id="a_node12"><a xlink:href="a01659.html#a223480466a0922267d680ec8f0722d58" target="_top" xlink:title="returns a const reverse iterator to one before the first">
<polygon fill="white" stroke="#666666" points="257,-132 146.5,-132 146.5,-100 257,-100 257,-132"/>
<text xml:space="preserve" text-anchor="start" x="154.5" y="-118.5" font-family="Helvetica,sans-Serif" font-size="10.00">nlohmann::basic_json</text>
<text xml:space="preserve" text-anchor="middle" x="201.75" y="-106.5" font-family="Helvetica,sans-Serif" font-size="10.00">::crend</text>
</a>
</g>
</g>
<!-- Node10&#45;&gt;Node12 -->
<g id="edge13" class="edge">
<title>Node10&#45;&gt;Node12</title>
<path fill="none" stroke="#63b8ff" d="M281.41,-129.61C273.4,-128.22 265.28,-126.82 257.46,-125.46"/>
<polygon fill="#63b8ff" stroke="#63b8ff" points="280.68,-133.03 291.13,-131.29 281.87,-126.14 280.68,-133.03"/>
</g>
<!-- Node14 -->
<g id="node14" class="node">
<title>Node14</title>
<g id="a_node14"><a xlink:href="a01659.html#a5ac8f974c178cf9326b6765e22f50eb6" target="_top" xlink:title="access the first element">
<polygon fill="white" stroke="#666666" points="257,-82 146.5,-82 146.5,-50 257,-50 257,-82"/>
<text xml:space="preserve" text-anchor="start" x="154.5" y="-68.5" font-family="Helvetica,sans-Serif" font-size="10.00">nlohmann::basic_json</text>
<text xml:space="preserve" text-anchor="middle" x="201.75" y="-56.5" font-family="Helvetica,sans-Serif" font-size="10.00">::front</text>
</a>
</g>
</g>
<!-- Node10&#45;&gt;Node14 -->
<g id="edge16" class="edge">
<title>Node10&#45;&gt;Node14</title>
<path fill="none" stroke="#63b8ff" d="M309.52,-119.28C293.47,-110.26 274.47,-99.85 257,-91 251.36,-88.14 245.32,-85.23 239.4,-82.44"/>
<polygon fill="#63b8ff" stroke="#63b8ff" points="307.34,-122.07 317.77,-123.95 310.79,-115.98 307.34,-122.07"/>
</g>
<!-- Node15 -->
<g id="node15" class="node">
<title>Node15</title>
<g id="a_node15"><a xlink:href="a01659.html#a377819905d567f6f523dcbc592cb6356" target="_top" xlink:title="updates a JSON object from another object, overwriting existing keys">
<polygon fill="white" stroke="#666666" points="257,-32 146.5,-32 146.5,0 257,0 257,-32"/>
<text xml:space="preserve" text-anchor="start" x="154.5" y="-18.5" font-family="Helvetica,sans-Serif" font-size="10.00">nlohmann::basic_json</text>
<text xml:space="preserve" text-anchor="middle" x="201.75" y="-6.5" font-family="Helvetica,sans-Serif" font-size="10.00">::update</text>
</a>
</g>
</g>
<!-- Node10&#45;&gt;Node15 -->
<g id="edge17" class="edge">
<title>Node10&#45;&gt;Node15</title>
<path fill="none" stroke="#63b8ff" d="M328.99,-115.52C312.24,-93.55 285.72,-62.12 257,-41 252.74,-37.87 248.02,-34.99 243.2,-32.39"/>
<polygon fill="#63b8ff" stroke="#63b8ff" points="326.07,-117.45 334.86,-123.37 331.68,-113.27 326.07,-117.45"/>
</g>
<!-- Node13 -->
<g id="node13" class="node">
<title>Node13</title>
<g id="a_node13"><a xlink:href="a01659.html#a2e4cbf41d593d41847b90aea55e5e84d" target="_top" xlink:title="returns a const reverse iterator to one before the first">
<polygon fill="white" stroke="#666666" points="110.5,-132 0,-132 0,-100 110.5,-100 110.5,-132"/>
<text xml:space="preserve" text-anchor="start" x="8" y="-118.5" font-family="Helvetica,sans-Serif" font-size="10.00">nlohmann::basic_json</text>
<text xml:space="preserve" text-anchor="middle" x="55.25" y="-106.5" font-family="Helvetica,sans-Serif" font-size="10.00">::rend</text>
</a>
</g>
</g>
<!-- Node12&#45;&gt;Node13 -->
<g id="edge14" class="edge">
<title>Node12&#45;&gt;Node13</title>
<path fill="none" stroke="#63b8ff" d="M134.63,-116C126.71,-116 118.69,-116 110.96,-116"/>
<polygon fill="#63b8ff" stroke="#63b8ff" points="134.61,-119.5 144.61,-116 134.61,-112.5 134.61,-119.5"/>
</g>
</g>
</svg>
