<?xml version="1.0" encoding="UTF-8" standalone="no"?>
<!DOCTYPE svg PUBLIC "-//W3C//DTD SVG 1.1//EN"
 "http://www.w3.org/Graphics/SVG/1.1/DTD/svg11.dtd">
<!-- Generated by graphviz version 13.1.2 (20250808.2320)
 -->
<!-- Title: nlohmann::detail::binary_writer::calc_bson_array_size Pages: 1 -->
<svg width="1028pt" height="112pt"
 viewBox="0.00 0.00 1028.00 112.00" xmlns="http://www.w3.org/2000/svg" xmlns:xlink="http://www.w3.org/1999/xlink">
<g id="graph0" class="graph" transform="scale(1 1) rotate(0) translate(4 108)">
<title>nlohmann::detail::binary_writer::calc_bson_array_size</title>
<!-- Node1 -->
<g id="node1" class="node">
<title>Node1</title>
<g id="a_node1"><a xlink:title=" ">
<polygon fill="#999999" stroke="#666666" points="1020,-104 874.25,-104 874.25,-72 1020,-72 1020,-104"/>
<text xml:space="preserve" text-anchor="start" x="882.25" y="-90.5" font-family="Helvetica,sans-Serif" font-size="10.00">nlohmann::detail::binary</text>
<text xml:space="preserve" text-anchor="middle" x="947.12" y="-78.5" font-family="Helvetica,sans-Serif" font-size="10.00">_writer::calc_bson_array_size</text>
</a>
</g>
</g>
<!-- Node2 -->
<g id="node2" class="node">
<title>Node2</title>
<g id="a_node2"><a xlink:href="a02039.html#a1e4372c5984184eb5bcc09af1fcc2ee0" target="_top" xlink:title="Calculates the size necessary to serialize the JSON value j with its name.">
<polygon fill="white" stroke="#666666" points="838.25,-104 679.75,-104 679.75,-72 838.25,-72 838.25,-104"/>
<text xml:space="preserve" text-anchor="start" x="687.75" y="-90.5" font-family="Helvetica,sans-Serif" font-size="10.00">nlohmann::detail::binary</text>
<text xml:space="preserve" text-anchor="middle" x="759" y="-78.5" font-family="Helvetica,sans-Serif" font-size="10.00">_writer::calc_bson_element_size</text>
</a>
</g>
</g>
<!-- Node1&#45;&gt;Node2 -->
<g id="edge1" class="edge">
<title>Node1&#45;&gt;Node2</title>
<path fill="none" stroke="#63b8ff" d="M862.41,-81.28C854.51,-81.23 846.52,-81.24 838.67,-81.32"/>
<polygon fill="#63b8ff" stroke="#63b8ff" points="862.35,-84.78 872.38,-81.39 862.42,-77.78 862.35,-84.78"/>
</g>
<!-- Node3 -->
<g id="node3" class="node">
<title>Node3</title>
<g id="a_node3"><a xlink:href="a02039.html#a025212bd170253638b9f05b3b6aa5bf9" target="_top" xlink:title="Writes a BSON element with key name and array value.">
<polygon fill="white" stroke="#666666" points="821.75,-54 696.25,-54 696.25,-22 821.75,-22 821.75,-54"/>
<text xml:space="preserve" text-anchor="start" x="704.25" y="-40.5" font-family="Helvetica,sans-Serif" font-size="10.00">nlohmann::detail::binary</text>
<text xml:space="preserve" text-anchor="middle" x="759" y="-28.5" font-family="Helvetica,sans-Serif" font-size="10.00">_writer::write_bson_array</text>
</a>
</g>
</g>
<!-- Node1&#45;&gt;Node3 -->
<g id="edge3" class="edge">
<title>Node1&#45;&gt;Node3</title>
<path fill="none" stroke="#63b8ff" d="M874.2,-68.68C856.71,-63.98 838.18,-59 821.24,-54.45"/>
<polygon fill="#63b8ff" stroke="#63b8ff" points="872.9,-71.95 883.46,-71.17 874.71,-65.19 872.9,-71.95"/>
</g>
<!-- Node2&#45;&gt;Node1 -->
<g id="edge2" class="edge">
<title>Node2&#45;&gt;Node1</title>
<path fill="none" stroke="#63b8ff" d="M849.97,-94.75C857.99,-94.76 866.05,-94.71 873.9,-94.6"/>
<polygon fill="#63b8ff" stroke="#63b8ff" points="850.2,-91.25 840.18,-94.69 850.16,-98.25 850.2,-91.25"/>
</g>
<!-- Node4 -->
<g id="node4" class="node">
<title>Node4</title>
<g id="a_node4"><a xlink:href="a02039.html#a7ff58bf1a80018148bed860667ffca07" target="_top" xlink:title="Serializes the JSON value j to BSON and associates it with the key name.">
<polygon fill="white" stroke="#666666" points="643.75,-54 505.5,-54 505.5,-22 643.75,-22 643.75,-54"/>
<text xml:space="preserve" text-anchor="start" x="513.5" y="-40.5" font-family="Helvetica,sans-Serif" font-size="10.00">nlohmann::detail::binary</text>
<text xml:space="preserve" text-anchor="middle" x="574.62" y="-28.5" font-family="Helvetica,sans-Serif" font-size="10.00">_writer::write_bson_element</text>
</a>
</g>
</g>
<!-- Node3&#45;&gt;Node4 -->
<g id="edge4" class="edge">
<title>Node3&#45;&gt;Node4</title>
<path fill="none" stroke="#63b8ff" d="M684.84,-31.37C671.37,-31.19 657.35,-31.21 644.02,-31.44"/>
<polygon fill="#63b8ff" stroke="#63b8ff" points="684.43,-34.86 694.49,-31.54 684.55,-27.86 684.43,-34.86"/>
</g>
<!-- Node4&#45;&gt;Node3 -->
<g id="edge5" class="edge">
<title>Node4&#45;&gt;Node3</title>
<path fill="none" stroke="#63b8ff" d="M655.35,-44.7C668.97,-44.82 682.93,-44.73 696,-44.43"/>
<polygon fill="#63b8ff" stroke="#63b8ff" points="655.58,-41.21 645.54,-44.58 655.49,-48.2 655.58,-41.21"/>
</g>
<!-- Node5 -->
<g id="node5" class="node">
<title>Node5</title>
<g id="a_node5"><a xlink:href="a02039.html#a29b3e0f83a8e5f2307804023109ba2c9" target="_top" xlink:title=" ">
<polygon fill="white" stroke="#666666" points="469.5,-76 339.5,-76 339.5,-44 469.5,-44 469.5,-76"/>
<text xml:space="preserve" text-anchor="start" x="347.5" y="-62.5" font-family="Helvetica,sans-Serif" font-size="10.00">nlohmann::detail::binary</text>
<text xml:space="preserve" text-anchor="middle" x="404.5" y="-50.5" font-family="Helvetica,sans-Serif" font-size="10.00">_writer::write_bson_object</text>
</a>
</g>
</g>
<!-- Node4&#45;&gt;Node5 -->
<g id="edge6" class="edge">
<title>Node4&#45;&gt;Node5</title>
<path fill="none" stroke="#63b8ff" d="M493.87,-48.44C485.79,-49.49 477.64,-50.56 469.75,-51.59"/>
<polygon fill="#63b8ff" stroke="#63b8ff" points="494.28,-51.91 503.74,-47.14 493.37,-44.97 494.28,-51.91"/>
</g>
<!-- Node6 -->
<g id="node6" class="node">
<title>Node6</title>
<g id="a_node6"><a xlink:href="a02039.html#a9ffc566db5219b473762462234b47db9" target="_top" xlink:title=" ">
<polygon fill="white" stroke="#666666" points="284.75,-82 165.25,-82 165.25,-50 284.75,-50 284.75,-82"/>
<text xml:space="preserve" text-anchor="start" x="173.25" y="-68.5" font-family="Helvetica,sans-Serif" font-size="10.00">nlohmann::detail::binary</text>
<text xml:space="preserve" text-anchor="middle" x="225" y="-56.5" font-family="Helvetica,sans-Serif" font-size="10.00">_writer::write_bson</text>
</a>
</g>
</g>
<!-- Node5&#45;&gt;Node6 -->
<g id="edge7" class="edge">
<title>Node5&#45;&gt;Node6</title>
<path fill="none" stroke="#63b8ff" d="M327.83,-62.56C313.54,-63.04 298.79,-63.54 285.1,-64"/>
<polygon fill="#63b8ff" stroke="#63b8ff" points="327.78,-66.06 337.65,-62.23 327.54,-59.07 327.78,-66.06"/>
</g>
<!-- Node8 -->
<g id="node8" class="node">
<title>Node8</title>
<g id="a_node8"><a xlink:href="a02039.html#a6231302930265eccb3f56c378f7b0661" target="_top" xlink:title="Writes a BSON element with key name and object value.">
<polygon fill="white" stroke="#666666" points="303.5,-32 146.5,-32 146.5,0 303.5,0 303.5,-32"/>
<text xml:space="preserve" text-anchor="start" x="154.5" y="-18.5" font-family="Helvetica,sans-Serif" font-size="10.00">nlohmann::detail::binary</text>
<text xml:space="preserve" text-anchor="middle" x="225" y="-6.5" font-family="Helvetica,sans-Serif" font-size="10.00">_writer::write_bson_object_entry</text>
</a>
</g>
</g>
<!-- Node5&#45;&gt;Node8 -->
<g id="edge9" class="edge">
<title>Node5&#45;&gt;Node8</title>
<path fill="none" stroke="#63b8ff" d="M328.35,-41.37C316.44,-38.42 304.19,-35.38 292.5,-32.48"/>
<polygon fill="#63b8ff" stroke="#63b8ff" points="327.15,-44.68 337.7,-43.69 328.83,-37.89 327.15,-44.68"/>
</g>
<!-- Node7 -->
<g id="node7" class="node">
<title>Node7</title>
<g id="a_node7"><a xlink:href="a01659.html#a668e4c2ad9808218a25879700f4aef2b" target="_top" xlink:title="Serializes the given JSON object j to BSON and forwards the corresponding BSON&#45;representation to the ...">
<polygon fill="white" stroke="#666666" points="110.5,-82 0,-82 0,-50 110.5,-50 110.5,-82"/>
<text xml:space="preserve" text-anchor="start" x="8" y="-68.5" font-family="Helvetica,sans-Serif" font-size="10.00">nlohmann::basic_json</text>
<text xml:space="preserve" text-anchor="middle" x="55.25" y="-56.5" font-family="Helvetica,sans-Serif" font-size="10.00">::to_bson</text>
</a>
</g>
</g>
<!-- Node6&#45;&gt;Node7 -->
<g id="edge8" class="edge">
<title>Node6&#45;&gt;Node7</title>
<path fill="none" stroke="#63b8ff" d="M153.58,-66C139.33,-66 124.54,-66 110.93,-66"/>
<polygon fill="#63b8ff" stroke="#63b8ff" points="153.34,-69.5 163.34,-66 153.34,-62.5 153.34,-69.5"/>
</g>
<!-- Node8&#45;&gt;Node4 -->
<g id="edge10" class="edge">
<title>Node8&#45;&gt;Node4</title>
<path fill="none" stroke="#63b8ff" d="M315.04,-21.63C374.28,-25.38 450.93,-30.24 505.36,-33.68"/>
<polygon fill="#63b8ff" stroke="#63b8ff" points="315.52,-18.16 305.32,-21.02 315.08,-25.14 315.52,-18.16"/>
</g>
</g>
</svg>
