<?xml version="1.0" encoding="UTF-8" standalone="no"?>
<!DOCTYPE svg PUBLIC "-//W3C//DTD SVG 1.1//EN"
 "http://www.w3.org/Graphics/SVG/1.1/DTD/svg11.dtd">
<!-- Generated by graphviz version 13.1.2 (20250808.2320)
 -->
<!-- Title: nlohmann::detail::binary_writer::write_bson Pages: 1 -->
<svg width="1564pt" height="560pt"
 viewBox="0.00 0.00 1564.00 560.00" xmlns="http://www.w3.org/2000/svg" xmlns:xlink="http://www.w3.org/1999/xlink">
<g id="graph0" class="graph" transform="scale(1 1) rotate(0) translate(4 555.97)">
<title>nlohmann::detail::binary_writer::write_bson</title>
<!-- Node1 -->
<g id="node1" class="node">
<title>Node1</title>
<g id="a_node1"><a xlink:title=" ">
<polygon fill="#999999" stroke="#666666" points="119.5,-310.97 0,-310.97 0,-278.97 119.5,-278.97 119.5,-310.97"/>
<text xml:space="preserve" text-anchor="start" x="8" y="-297.47" font-family="Helvetica,sans-Serif" font-size="10.00">nlohmann::detail::binary</text>
<text xml:space="preserve" text-anchor="middle" x="59.75" y="-285.47" font-family="Helvetica,sans-Serif" font-size="10.00">_writer::write_bson</text>
</a>
</g>
</g>
<!-- Node2 -->
<g id="node2" class="node">
<title>Node2</title>
<g id="a_node2"><a xlink:href="a01571.html#aecc083aea4b698c33d042670ba50c10f" target="_top" xlink:title=" ">
<polygon fill="white" stroke="#666666" points="446.62,-551.97 334.62,-551.97 334.62,-519.97 446.62,-519.97 446.62,-551.97"/>
<text xml:space="preserve" text-anchor="start" x="342.62" y="-538.47" font-family="Helvetica,sans-Serif" font-size="10.00">nlohmann::detail::type</text>
<text xml:space="preserve" text-anchor="middle" x="390.62" y="-526.47" font-family="Helvetica,sans-Serif" font-size="10.00">_error::create</text>
</a>
</g>
</g>
<!-- Node1&#45;&gt;Node2 -->
<g id="edge1" class="edge">
<title>Node1&#45;&gt;Node2</title>
<path fill="none" stroke="#63b8ff" d="M77.55,-311.28C117.3,-349.23 221.31,-444.88 321.5,-505.97 326.6,-509.08 332.09,-512.04 337.64,-514.82"/>
<polygon fill="#63b8ff" stroke="#63b8ff" points="335.77,-517.8 346.3,-518.94 338.77,-511.48 335.77,-517.8"/>
</g>
<!-- Node4 -->
<g id="node4" class="node">
<title>Node4</title>
<g id="a_node4"><a xlink:href="a02039.html#a29b3e0f83a8e5f2307804023109ba2c9" target="_top" xlink:title=" ">
<polygon fill="white" stroke="#666666" points="285.5,-288.97 155.5,-288.97 155.5,-256.97 285.5,-256.97 285.5,-288.97"/>
<text xml:space="preserve" text-anchor="start" x="163.5" y="-275.47" font-family="Helvetica,sans-Serif" font-size="10.00">nlohmann::detail::binary</text>
<text xml:space="preserve" text-anchor="middle" x="220.5" y="-263.47" font-family="Helvetica,sans-Serif" font-size="10.00">_writer::write_bson_object</text>
</a>
</g>
</g>
<!-- Node1&#45;&gt;Node4 -->
<g id="edge3" class="edge">
<title>Node1&#45;&gt;Node4</title>
<path fill="none" stroke="#63b8ff" d="M119.86,-286.77C127.65,-285.69 135.72,-284.58 143.74,-283.46"/>
<polygon fill="#63b8ff" stroke="#63b8ff" points="144.08,-286.95 153.51,-282.11 143.12,-280.02 144.08,-286.95"/>
</g>
<!-- Node3 -->
<g id="node3" class="node">
<title>Node3</title>
<g id="a_node3"><a xlink:href="a01559.html#abf41a7e9178356314082284e6cfea278" target="_top" xlink:title=" ">
<polygon fill="white" stroke="#666666" points="1556.25,-507.97 1421,-507.97 1421,-475.97 1556.25,-475.97 1556.25,-507.97"/>
<text xml:space="preserve" text-anchor="start" x="1429" y="-494.47" font-family="Helvetica,sans-Serif" font-size="10.00">nlohmann::detail::exception</text>
<text xml:space="preserve" text-anchor="middle" x="1488.62" y="-482.47" font-family="Helvetica,sans-Serif" font-size="10.00">::name</text>
</a>
</g>
</g>
<!-- Node2&#45;&gt;Node3 -->
<g id="edge2" class="edge">
<title>Node2&#45;&gt;Node3</title>
<path fill="none" stroke="#63b8ff" d="M447.07,-535.97C520.44,-535.97 653.8,-535.97 767.75,-535.97 767.75,-535.97 767.75,-535.97 1161.75,-535.97 1247.02,-535.97 1343.72,-520.99 1409.48,-508.51"/>
<polygon fill="#63b8ff" stroke="#63b8ff" points="1409.93,-511.99 1419.09,-506.66 1408.61,-505.11 1409.93,-511.99"/>
</g>
<!-- Node5 -->
<g id="node5" class="node">
<title>Node5</title>
<g id="a_node5"><a xlink:href="a02039.html#acc6f1cc1fd370ee84ebc8cf7b8712840" target="_top" xlink:title="Calculates the size of the BSON serialization of the given JSON&#45;object j.">
<polygon fill="white" stroke="#666666" points="1235.88,-507.97 1085.62,-507.97 1085.62,-475.97 1235.88,-475.97 1235.88,-507.97"/>
<text xml:space="preserve" text-anchor="start" x="1093.62" y="-494.47" font-family="Helvetica,sans-Serif" font-size="10.00">nlohmann::detail::binary</text>
<text xml:space="preserve" text-anchor="middle" x="1160.75" y="-482.47" font-family="Helvetica,sans-Serif" font-size="10.00">_writer::calc_bson_object_size</text>
</a>
</g>
</g>
<!-- Node4&#45;&gt;Node5 -->
<g id="edge4" class="edge">
<title>Node4&#45;&gt;Node5</title>
<path fill="none" stroke="#63b8ff" d="M234.97,-289.43C278.27,-340.36 420.03,-491.97 573.25,-491.97 573.25,-491.97 573.25,-491.97 769.75,-491.97 874.46,-491.97 994.98,-491.97 1074,-491.97"/>
<polygon fill="#63b8ff" stroke="#63b8ff" points="1073.83,-495.47 1083.83,-491.97 1073.83,-488.47 1073.83,-495.47"/>
</g>
<!-- Node6 -->
<g id="node6" class="node">
<title>Node6</title>
<g id="a_node6"><a xlink:href="a02039.html#ab77aa48692bd4e64e4f051ce6aeb6d2d" target="_top" xlink:title=" ">
<polygon fill="white" stroke="#666666" points="1023.75,-285.97 904.25,-285.97 904.25,-253.97 1023.75,-253.97 1023.75,-285.97"/>
<text xml:space="preserve" text-anchor="start" x="912.25" y="-272.47" font-family="Helvetica,sans-Serif" font-size="10.00">nlohmann::detail::binary</text>
<text xml:space="preserve" text-anchor="middle" x="964" y="-260.47" font-family="Helvetica,sans-Serif" font-size="10.00">_writer::to_char_type</text>
</a>
</g>
</g>
<!-- Node4&#45;&gt;Node6 -->
<g id="edge5" class="edge">
<title>Node4&#45;&gt;Node6</title>
<path fill="none" stroke="#63b8ff" d="M226.23,-256.69C237.21,-221.59 267.71,-138.17 321.5,-90.97 383.99,-36.14 414.05,-38.34 495.75,-22.97 651.47,6.34 722.37,22.62 848.75,-72.97 906.95,-116.99 940.62,-199.94 954.87,-242.8"/>
<polygon fill="#63b8ff" stroke="#63b8ff" points="951.46,-243.62 957.85,-252.07 958.13,-241.48 951.46,-243.62"/>
</g>
<!-- Node7 -->
<g id="node7" class="node">
<title>Node7</title>
<g id="a_node7"><a xlink:href="a02039.html#a7ff58bf1a80018148bed860667ffca07" target="_top" xlink:title="Serializes the JSON value j to BSON and associates it with the key name.">
<polygon fill="white" stroke="#666666" points="459.75,-288.97 321.5,-288.97 321.5,-256.97 459.75,-256.97 459.75,-288.97"/>
<text xml:space="preserve" text-anchor="start" x="329.5" y="-275.47" font-family="Helvetica,sans-Serif" font-size="10.00">nlohmann::detail::binary</text>
<text xml:space="preserve" text-anchor="middle" x="390.62" y="-263.47" font-family="Helvetica,sans-Serif" font-size="10.00">_writer::write_bson_element</text>
</a>
</g>
</g>
<!-- Node4&#45;&gt;Node7 -->
<g id="edge6" class="edge">
<title>Node4&#45;&gt;Node7</title>
<path fill="none" stroke="#63b8ff" d="M285.54,-272.97C293.42,-272.97 301.56,-272.97 309.64,-272.97"/>
<polygon fill="#63b8ff" stroke="#63b8ff" points="309.49,-276.47 319.49,-272.97 309.49,-269.47 309.49,-276.47"/>
</g>
<!-- Node8 -->
<g id="node8" class="node">
<title>Node8</title>
<g id="a_node8"><a xlink:href="a02039.html#a025212bd170253638b9f05b3b6aa5bf9" target="_top" xlink:title="Writes a BSON element with key name and array value.">
<polygon fill="white" stroke="#666666" points="637,-413.97 511.5,-413.97 511.5,-381.97 637,-381.97 637,-413.97"/>
<text xml:space="preserve" text-anchor="start" x="519.5" y="-400.47" font-family="Helvetica,sans-Serif" font-size="10.00">nlohmann::detail::binary</text>
<text xml:space="preserve" text-anchor="middle" x="574.25" y="-388.47" font-family="Helvetica,sans-Serif" font-size="10.00">_writer::write_bson_array</text>
</a>
</g>
</g>
<!-- Node7&#45;&gt;Node8 -->
<g id="edge7" class="edge">
<title>Node7&#45;&gt;Node8</title>
<path fill="none" stroke="#63b8ff" d="M410.05,-289.13C429.26,-309.48 461.33,-343.4 495.75,-363.97 505.12,-369.56 515.88,-374.06 526.35,-377.85"/>
<polygon fill="#63b8ff" stroke="#63b8ff" points="525.05,-381.11 535.65,-381.08 527.35,-374.49 525.05,-381.11"/>
</g>
<!-- Node18 -->
<g id="node18" class="node">
<title>Node18</title>
<g id="a_node18"><a xlink:href="a02039.html#a97d34d9a70ddc06ae782c55454df42bc" target="_top" xlink:title="Writes a BSON element with key name and binary value value.">
<polygon fill="white" stroke="#666666" points="639.25,-113.97 509.25,-113.97 509.25,-81.97 639.25,-81.97 639.25,-113.97"/>
<text xml:space="preserve" text-anchor="start" x="517.25" y="-100.47" font-family="Helvetica,sans-Serif" font-size="10.00">nlohmann::detail::binary</text>
<text xml:space="preserve" text-anchor="middle" x="574.25" y="-88.47" font-family="Helvetica,sans-Serif" font-size="10.00">_writer::write_bson_binary</text>
</a>
</g>
</g>
<!-- Node7&#45;&gt;Node18 -->
<g id="edge23" class="edge">
<title>Node7&#45;&gt;Node18</title>
<path fill="none" stroke="#63b8ff" d="M398.51,-256.8C412.38,-226.16 446.6,-159.41 495.75,-122.97 497.27,-121.84 498.85,-120.76 500.47,-119.73"/>
<polygon fill="#63b8ff" stroke="#63b8ff" points="501.8,-122.99 508.82,-115.06 498.39,-116.88 501.8,-122.99"/>
</g>
<!-- Node20 -->
<g id="node20" class="node">
<title>Node20</title>
<g id="a_node20"><a xlink:href="a02039.html#ae099435e1df3096e0fc78333282f8f67" target="_top" xlink:title="Writes a BSON element with key name and boolean value value.">
<polygon fill="white" stroke="#666666" points="643,-363.97 505.5,-363.97 505.5,-331.97 643,-331.97 643,-363.97"/>
<text xml:space="preserve" text-anchor="start" x="513.5" y="-350.47" font-family="Helvetica,sans-Serif" font-size="10.00">nlohmann::detail::binary</text>
<text xml:space="preserve" text-anchor="middle" x="574.25" y="-338.47" font-family="Helvetica,sans-Serif" font-size="10.00">_writer::write_bson_boolean</text>
</a>
</g>
</g>
<!-- Node7&#45;&gt;Node20 -->
<g id="edge26" class="edge">
<title>Node7&#45;&gt;Node20</title>
<path fill="none" stroke="#63b8ff" d="M423.03,-289.42C443.43,-299.77 470.79,-313 495.75,-322.97 499.84,-324.6 504.09,-326.21 508.39,-327.77"/>
<polygon fill="#63b8ff" stroke="#63b8ff" points="507.11,-331.03 517.7,-331.05 509.43,-324.43 507.11,-331.03"/>
</g>
<!-- Node21 -->
<g id="node21" class="node">
<title>Node21</title>
<g id="a_node21"><a xlink:href="a02039.html#a263ec18815467bb9919021ef126919ca" target="_top" xlink:title="Writes a BSON element with key name and double value value.">
<polygon fill="white" stroke="#666666" points="640.38,-313.97 508.12,-313.97 508.12,-281.97 640.38,-281.97 640.38,-313.97"/>
<text xml:space="preserve" text-anchor="start" x="516.12" y="-300.47" font-family="Helvetica,sans-Serif" font-size="10.00">nlohmann::detail::binary</text>
<text xml:space="preserve" text-anchor="middle" x="574.25" y="-288.47" font-family="Helvetica,sans-Serif" font-size="10.00">_writer::write_bson_double</text>
</a>
</g>
</g>
<!-- Node7&#45;&gt;Node21 -->
<g id="edge29" class="edge">
<title>Node7&#45;&gt;Node21</title>
<path fill="none" stroke="#63b8ff" d="M460.03,-282.38C472.04,-284.03 484.61,-285.76 496.82,-287.45"/>
<polygon fill="#63b8ff" stroke="#63b8ff" points="496.03,-290.87 506.41,-288.77 496.98,-283.93 496.03,-290.87"/>
</g>
<!-- Node22 -->
<g id="node22" class="node">
<title>Node22</title>
<g id="a_node22"><a xlink:href="a02039.html#a553ad4dbdf27238eef90867e4bf2f3e5" target="_top" xlink:title="Writes a BSON element with key name and integer value.">
<polygon fill="white" stroke="#666666" points="640.75,-163.97 507.75,-163.97 507.75,-131.97 640.75,-131.97 640.75,-163.97"/>
<text xml:space="preserve" text-anchor="start" x="515.75" y="-150.47" font-family="Helvetica,sans-Serif" font-size="10.00">nlohmann::detail::binary</text>
<text xml:space="preserve" text-anchor="middle" x="574.25" y="-138.47" font-family="Helvetica,sans-Serif" font-size="10.00">_writer::write_bson_integer</text>
</a>
</g>
</g>
<!-- Node7&#45;&gt;Node22 -->
<g id="edge31" class="edge">
<title>Node7&#45;&gt;Node22</title>
<path fill="none" stroke="#63b8ff" d="M404.37,-256.78C422.47,-234.81 457.67,-195.72 495.75,-172.97 497.92,-171.67 500.16,-170.43 502.46,-169.25"/>
<polygon fill="#63b8ff" stroke="#63b8ff" points="503.85,-172.47 511.44,-165.08 500.9,-166.12 503.85,-172.47"/>
</g>
<!-- Node23 -->
<g id="node23" class="node">
<title>Node23</title>
<g id="a_node23"><a xlink:href="a02039.html#a9927c1110b18661e0224a76156e5a7a9" target="_top" xlink:title="Writes a BSON element with key name and null value.">
<polygon fill="white" stroke="#666666" points="634,-263.97 514.5,-263.97 514.5,-231.97 634,-231.97 634,-263.97"/>
<text xml:space="preserve" text-anchor="start" x="522.5" y="-250.47" font-family="Helvetica,sans-Serif" font-size="10.00">nlohmann::detail::binary</text>
<text xml:space="preserve" text-anchor="middle" x="574.25" y="-238.47" font-family="Helvetica,sans-Serif" font-size="10.00">_writer::write_bson_null</text>
</a>
</g>
</g>
<!-- Node7&#45;&gt;Node23 -->
<g id="edge33" class="edge">
<title>Node7&#45;&gt;Node23</title>
<path fill="none" stroke="#63b8ff" d="M460.03,-263.55C474.08,-261.62 488.88,-259.58 502.99,-257.64"/>
<polygon fill="#63b8ff" stroke="#63b8ff" points="503.2,-261.14 512.63,-256.31 502.24,-254.21 503.2,-261.14"/>
</g>
<!-- Node24 -->
<g id="node24" class="node">
<title>Node24</title>
<g id="a_node24"><a xlink:href="a02039.html#a6231302930265eccb3f56c378f7b0661" target="_top" xlink:title="Writes a BSON element with key name and object value.">
<polygon fill="white" stroke="#666666" points="652.75,-63.97 495.75,-63.97 495.75,-31.97 652.75,-31.97 652.75,-63.97"/>
<text xml:space="preserve" text-anchor="start" x="503.75" y="-50.47" font-family="Helvetica,sans-Serif" font-size="10.00">nlohmann::detail::binary</text>
<text xml:space="preserve" text-anchor="middle" x="574.25" y="-38.47" font-family="Helvetica,sans-Serif" font-size="10.00">_writer::write_bson_object_entry</text>
</a>
</g>
</g>
<!-- Node7&#45;&gt;Node24 -->
<g id="edge35" class="edge">
<title>Node7&#45;&gt;Node24</title>
<path fill="none" stroke="#63b8ff" d="M399.96,-256.75C424.32,-209.42 493.78,-74.63 495.75,-72.97 496.84,-72.04 497.97,-71.15 499.13,-70.3"/>
<polygon fill="#63b8ff" stroke="#63b8ff" points="500.67,-73.46 507.25,-65.15 496.93,-67.55 500.67,-73.46"/>
</g>
<!-- Node25 -->
<g id="node25" class="node">
<title>Node25</title>
<g id="a_node25"><a xlink:href="a02039.html#a5e6574416915208fc035b57338ae3252" target="_top" xlink:title="Writes a BSON element with key name and string value value.">
<polygon fill="white" stroke="#666666" points="638.12,-213.97 510.38,-213.97 510.38,-181.97 638.12,-181.97 638.12,-213.97"/>
<text xml:space="preserve" text-anchor="start" x="518.38" y="-200.47" font-family="Helvetica,sans-Serif" font-size="10.00">nlohmann::detail::binary</text>
<text xml:space="preserve" text-anchor="middle" x="574.25" y="-188.47" font-family="Helvetica,sans-Serif" font-size="10.00">_writer::write_bson_string</text>
</a>
</g>
</g>
<!-- Node7&#45;&gt;Node25 -->
<g id="edge38" class="edge">
<title>Node7&#45;&gt;Node25</title>
<path fill="none" stroke="#63b8ff" d="M423.03,-256.51C443.43,-246.16 470.79,-232.93 495.75,-222.97 499.84,-221.33 504.09,-219.72 508.39,-218.16"/>
<polygon fill="#63b8ff" stroke="#63b8ff" points="509.43,-221.51 517.7,-214.89 507.11,-214.9 509.43,-221.51"/>
</g>
<!-- Node26 -->
<g id="node26" class="node">
<title>Node26</title>
<g id="a_node26"><a xlink:href="a02039.html#a5e295ed1be6af6260d2a65f7397c3742" target="_top" xlink:title="Writes a BSON element with key name and unsigned value.">
<polygon fill="white" stroke="#666666" points="645.62,-463.97 502.88,-463.97 502.88,-431.97 645.62,-431.97 645.62,-463.97"/>
<text xml:space="preserve" text-anchor="start" x="510.88" y="-450.47" font-family="Helvetica,sans-Serif" font-size="10.00">nlohmann::detail::binary</text>
<text xml:space="preserve" text-anchor="middle" x="574.25" y="-438.47" font-family="Helvetica,sans-Serif" font-size="10.00">_writer::write_bson_unsigned</text>
</a>
</g>
</g>
<!-- Node7&#45;&gt;Node26 -->
<g id="edge40" class="edge">
<title>Node7&#45;&gt;Node26</title>
<path fill="none" stroke="#63b8ff" d="M398.51,-289.13C412.38,-319.77 446.6,-386.52 495.75,-422.97 497.27,-424.09 498.85,-425.17 500.47,-426.21"/>
<polygon fill="#63b8ff" stroke="#63b8ff" points="498.39,-429.05 508.82,-430.87 501.8,-422.94 498.39,-429.05"/>
</g>
<!-- Node8&#45;&gt;Node6 -->
<g id="edge19" class="edge">
<title>Node8&#45;&gt;Node6</title>
<path fill="none" stroke="#63b8ff" d="M632.26,-381.58C639.28,-378.98 646.26,-376.1 652.75,-372.97 670.07,-364.6 671.01,-356.38 688.75,-348.97 755.75,-320.98 779.24,-336.94 848.75,-315.97 871.59,-309.07 896.21,-299.45 916.74,-290.79"/>
<polygon fill="#63b8ff" stroke="#63b8ff" points="917.86,-294.12 925.67,-286.96 915.1,-287.68 917.86,-294.12"/>
</g>
<!-- Node8&#45;&gt;Node7 -->
<g id="edge20" class="edge">
<title>Node8&#45;&gt;Node7</title>
<path fill="none" stroke="#63b8ff" d="M511.2,-389.77C505.83,-387.47 500.6,-384.87 495.75,-381.97 459.28,-360.17 425.46,-323.4 406.76,-298.43"/>
<polygon fill="#63b8ff" stroke="#63b8ff" points="409.69,-296.5 401.03,-290.4 403.99,-300.57 409.69,-296.5"/>
</g>
<!-- Node9 -->
<g id="node9" class="node">
<title>Node9</title>
<g id="a_node9"><a xlink:href="a02039.html#af08f9302a02516ff8cf358a99aaa1ddf" target="_top" xlink:title=" ">
<polygon fill="white" stroke="#666666" points="841.62,-389.97 695.88,-389.97 695.88,-357.97 841.62,-357.97 841.62,-389.97"/>
<text xml:space="preserve" text-anchor="start" x="703.88" y="-376.47" font-family="Helvetica,sans-Serif" font-size="10.00">nlohmann::detail::binary</text>
<text xml:space="preserve" text-anchor="middle" x="768.75" y="-364.47" font-family="Helvetica,sans-Serif" font-size="10.00">_writer::calc_bson_array_size</text>
</a>
</g>
</g>
<!-- Node8&#45;&gt;Node9 -->
<g id="edge8" class="edge">
<title>Node8&#45;&gt;Node9</title>
<path fill="none" stroke="#63b8ff" d="M637.48,-390.21C652.42,-388.34 668.61,-386.33 684.34,-384.36"/>
<polygon fill="#63b8ff" stroke="#63b8ff" points="684.69,-387.85 694.18,-383.14 683.83,-380.9 684.69,-387.85"/>
</g>
<!-- Node17 -->
<g id="node17" class="node">
<title>Node17</title>
<g id="a_node17"><a xlink:href="a02039.html#a1b5b7f5c03b1f8b1f59ea61db9634108" target="_top" xlink:title="Writes the given element_type and name to the output adapter.">
<polygon fill="white" stroke="#666666" points="848.75,-263.97 688.75,-263.97 688.75,-231.97 848.75,-231.97 848.75,-263.97"/>
<text xml:space="preserve" text-anchor="start" x="696.75" y="-250.47" font-family="Helvetica,sans-Serif" font-size="10.00">nlohmann::detail::binary</text>
<text xml:space="preserve" text-anchor="middle" x="768.75" y="-238.47" font-family="Helvetica,sans-Serif" font-size="10.00">_writer::write_bson_entry_header</text>
</a>
</g>
</g>
<!-- Node8&#45;&gt;Node17 -->
<g id="edge21" class="edge">
<title>Node8&#45;&gt;Node17</title>
<path fill="none" stroke="#63b8ff" d="M637.34,-382.39C642.82,-379.72 648.06,-376.61 652.75,-372.97 676.42,-354.6 669.18,-338.66 688.75,-315.97 702.98,-299.47 721.29,-283.45 736.7,-271.11"/>
<polygon fill="#63b8ff" stroke="#63b8ff" points="738.49,-274.15 744.2,-265.23 734.17,-268.65 738.49,-274.15"/>
</g>
<!-- Node10 -->
<g id="node10" class="node">
<title>Node10</title>
<g id="a_node10"><a xlink:href="a02039.html#a1e4372c5984184eb5bcc09af1fcc2ee0" target="_top" xlink:title="Calculates the size necessary to serialize the JSON value j with its name.">
<polygon fill="white" stroke="#666666" points="1043.25,-376.97 884.75,-376.97 884.75,-344.97 1043.25,-344.97 1043.25,-376.97"/>
<text xml:space="preserve" text-anchor="start" x="892.75" y="-363.47" font-family="Helvetica,sans-Serif" font-size="10.00">nlohmann::detail::binary</text>
<text xml:space="preserve" text-anchor="middle" x="964" y="-351.47" font-family="Helvetica,sans-Serif" font-size="10.00">_writer::calc_bson_element_size</text>
</a>
</g>
</g>
<!-- Node9&#45;&gt;Node10 -->
<g id="edge9" class="edge">
<title>Node9&#45;&gt;Node10</title>
<path fill="none" stroke="#63b8ff" d="M841.98,-362.55C852.14,-361.7 862.68,-360.93 873.12,-360.28"/>
<polygon fill="#63b8ff" stroke="#63b8ff" points="873.09,-363.78 882.86,-359.7 872.68,-356.8 873.09,-363.78"/>
</g>
<!-- Node10&#45;&gt;Node5 -->
<g id="edge16" class="edge">
<title>Node10&#45;&gt;Node5</title>
<path fill="none" stroke="#63b8ff" d="M989.27,-377.29C1023.77,-400.5 1087.11,-443.11 1126.12,-469.34"/>
<polygon fill="#63b8ff" stroke="#63b8ff" points="1123.97,-472.12 1134.22,-474.8 1127.88,-466.31 1123.97,-472.12"/>
</g>
<!-- Node10&#45;&gt;Node9 -->
<g id="edge10" class="edge">
<title>Node10&#45;&gt;Node9</title>
<path fill="none" stroke="#63b8ff" d="M884.38,-372.9C874.19,-373.71 863.73,-374.43 853.46,-375.03"/>
<polygon fill="#63b8ff" stroke="#63b8ff" points="853.29,-371.53 843.5,-375.58 853.67,-378.52 853.29,-371.53"/>
</g>
<!-- Node11 -->
<g id="node11" class="node">
<title>Node11</title>
<g id="a_node11"><a xlink:href="a02039.html#a9dd6062fd249a695e0f93d558dba4685" target="_top" xlink:title=" ">
<polygon fill="white" stroke="#666666" points="1235.88,-307.97 1085.62,-307.97 1085.62,-275.97 1235.88,-275.97 1235.88,-307.97"/>
<text xml:space="preserve" text-anchor="start" x="1093.62" y="-294.47" font-family="Helvetica,sans-Serif" font-size="10.00">nlohmann::detail::binary</text>
<text xml:space="preserve" text-anchor="middle" x="1160.75" y="-282.47" font-family="Helvetica,sans-Serif" font-size="10.00">_writer::calc_bson_binary_size</text>
</a>
</g>
</g>
<!-- Node10&#45;&gt;Node11 -->
<g id="edge11" class="edge">
<title>Node10&#45;&gt;Node11</title>
<path fill="none" stroke="#63b8ff" d="M1005.74,-344.52C1027.44,-335.95 1054.65,-325.51 1079.25,-316.97 1084.17,-315.25 1089.29,-313.54 1094.44,-311.84"/>
<polygon fill="#63b8ff" stroke="#63b8ff" points="1095.15,-315.29 1103.59,-308.89 1093,-308.63 1095.15,-315.29"/>
</g>
<!-- Node12 -->
<g id="node12" class="node">
<title>Node12</title>
<g id="a_node12"><a xlink:href="a02039.html#a5bae2f1db2c511b869dffaddf15a1653" target="_top" xlink:title=" ">
<polygon fill="white" stroke="#666666" points="1222,-369.97 1099.5,-369.97 1099.5,-325.97 1222,-325.97 1222,-369.97"/>
<text xml:space="preserve" text-anchor="start" x="1107.5" y="-356.47" font-family="Helvetica,sans-Serif" font-size="10.00">nlohmann::detail::binary</text>
<text xml:space="preserve" text-anchor="start" x="1107.5" y="-344.47" font-family="Helvetica,sans-Serif" font-size="10.00">_writer::calc_bson_entry</text>
<text xml:space="preserve" text-anchor="middle" x="1160.75" y="-332.47" font-family="Helvetica,sans-Serif" font-size="10.00">_header_size</text>
</a>
</g>
</g>
<!-- Node10&#45;&gt;Node12 -->
<g id="edge12" class="edge">
<title>Node10&#45;&gt;Node12</title>
<path fill="none" stroke="#63b8ff" d="M1043.65,-355.72C1058.23,-354.74 1073.39,-353.73 1087.75,-352.77"/>
<polygon fill="#63b8ff" stroke="#63b8ff" points="1087.83,-356.27 1097.57,-352.12 1087.36,-349.29 1087.83,-356.27"/>
</g>
<!-- Node14 -->
<g id="node14" class="node">
<title>Node14</title>
<g id="a_node14"><a xlink:href="a02039.html#aeab70c895931b96ea598306b37eca271" target="_top" xlink:title=" ">
<polygon fill="white" stroke="#666666" points="1237.38,-257.97 1084.12,-257.97 1084.12,-225.97 1237.38,-225.97 1237.38,-257.97"/>
<text xml:space="preserve" text-anchor="start" x="1092.12" y="-244.47" font-family="Helvetica,sans-Serif" font-size="10.00">nlohmann::detail::binary</text>
<text xml:space="preserve" text-anchor="middle" x="1160.75" y="-232.47" font-family="Helvetica,sans-Serif" font-size="10.00">_writer::calc_bson_integer_size</text>
</a>
</g>
</g>
<!-- Node10&#45;&gt;Node14 -->
<g id="edge15" class="edge">
<title>Node10&#45;&gt;Node14</title>
<path fill="none" stroke="#63b8ff" d="M984.52,-344.57C1015.75,-318.4 1073.98,-269.81 1079.25,-266.97 1081.93,-265.52 1084.72,-264.14 1087.56,-262.83"/>
<polygon fill="#63b8ff" stroke="#63b8ff" points="1088.83,-266.09 1096.68,-258.97 1086.11,-259.64 1088.83,-266.09"/>
</g>
<!-- Node15 -->
<g id="node15" class="node">
<title>Node15</title>
<g id="a_node15"><a xlink:href="a02039.html#aea44fd97a5cb9b4f175e66e3e4fdf158" target="_top" xlink:title=" ">
<polygon fill="white" stroke="#666666" points="1234.75,-207.97 1086.75,-207.97 1086.75,-175.97 1234.75,-175.97 1234.75,-207.97"/>
<text xml:space="preserve" text-anchor="start" x="1094.75" y="-194.47" font-family="Helvetica,sans-Serif" font-size="10.00">nlohmann::detail::binary</text>
<text xml:space="preserve" text-anchor="middle" x="1160.75" y="-182.47" font-family="Helvetica,sans-Serif" font-size="10.00">_writer::calc_bson_string_size</text>
</a>
</g>
</g>
<!-- Node10&#45;&gt;Node15 -->
<g id="edge17" class="edge">
<title>Node10&#45;&gt;Node15</title>
<path fill="none" stroke="#63b8ff" d="M989.71,-344.52C1006.49,-332.38 1028.28,-314.61 1043.25,-294.97 1066.39,-264.6 1050.54,-242.13 1079.25,-216.97 1080.19,-216.15 1081.15,-215.35 1082.13,-214.59"/>
<polygon fill="#63b8ff" stroke="#63b8ff" points="1083.89,-217.62 1090.31,-209.19 1080.04,-211.78 1083.89,-217.62"/>
</g>
<!-- Node16 -->
<g id="node16" class="node">
<title>Node16</title>
<g id="a_node16"><a xlink:href="a02039.html#aa1d6bb9f3af16f07ce2440c354b5787b" target="_top" xlink:title=" ">
<polygon fill="white" stroke="#666666" points="1242.25,-419.97 1079.25,-419.97 1079.25,-387.97 1242.25,-387.97 1242.25,-419.97"/>
<text xml:space="preserve" text-anchor="start" x="1087.25" y="-406.47" font-family="Helvetica,sans-Serif" font-size="10.00">nlohmann::detail::binary</text>
<text xml:space="preserve" text-anchor="middle" x="1160.75" y="-394.47" font-family="Helvetica,sans-Serif" font-size="10.00">_writer::calc_bson_unsigned_size</text>
</a>
</g>
</g>
<!-- Node10&#45;&gt;Node16 -->
<g id="edge18" class="edge">
<title>Node10&#45;&gt;Node16</title>
<path fill="none" stroke="#63b8ff" d="M1039.46,-377.41C1050.85,-379.92 1062.69,-382.53 1074.3,-385.1"/>
<polygon fill="#63b8ff" stroke="#63b8ff" points="1073.33,-388.47 1083.85,-387.21 1074.84,-381.63 1073.33,-388.47"/>
</g>
<!-- Node13 -->
<g id="node13" class="node">
<title>Node13</title>
<g id="a_node13"><a xlink:href="a01575.html#a3f6d82a6f967c4728a1ec735a7867073" target="_top" xlink:title=" ">
<polygon fill="white" stroke="#666666" points="1385,-463.97 1278.25,-463.97 1278.25,-431.97 1385,-431.97 1385,-463.97"/>
<text xml:space="preserve" text-anchor="start" x="1286.25" y="-450.47" font-family="Helvetica,sans-Serif" font-size="10.00">nlohmann::detail::out</text>
<text xml:space="preserve" text-anchor="middle" x="1331.62" y="-438.47" font-family="Helvetica,sans-Serif" font-size="10.00">_of_range::create</text>
</a>
</g>
</g>
<!-- Node12&#45;&gt;Node13 -->
<g id="edge13" class="edge">
<title>Node12&#45;&gt;Node13</title>
<path fill="none" stroke="#63b8ff" d="M1222.43,-369.09C1229.26,-372.12 1235.99,-375.42 1242.25,-378.97 1264.9,-391.79 1287.99,-410.04 1304.89,-424.55"/>
<polygon fill="#63b8ff" stroke="#63b8ff" points="1302.16,-426.81 1311.99,-430.75 1306.76,-421.53 1302.16,-426.81"/>
</g>
<!-- Node13&#45;&gt;Node3 -->
<g id="edge14" class="edge">
<title>Node13&#45;&gt;Node3</title>
<path fill="none" stroke="#63b8ff" d="M1385.1,-462.86C1395.95,-465.94 1407.53,-469.23 1418.86,-472.45"/>
<polygon fill="#63b8ff" stroke="#63b8ff" points="1417.58,-475.72 1428.16,-475.08 1419.49,-468.99 1417.58,-475.72"/>
</g>
<!-- Node17&#45;&gt;Node6 -->
<g id="edge22" class="edge">
<title>Node17&#45;&gt;Node6</title>
<path fill="none" stroke="#63b8ff" d="M849.19,-257.01C863.65,-258.65 878.63,-260.36 892.8,-261.97"/>
<polygon fill="#63b8ff" stroke="#63b8ff" points="892.12,-265.42 902.46,-263.07 892.92,-258.46 892.12,-265.42"/>
</g>
<!-- Node18&#45;&gt;Node17 -->
<g id="edge24" class="edge">
<title>Node18&#45;&gt;Node17</title>
<path fill="none" stroke="#63b8ff" d="M636.69,-114.46C642.3,-116.94 647.75,-119.76 652.75,-122.97 694.07,-149.42 730.26,-194.29 750.53,-222.46"/>
<polygon fill="#63b8ff" stroke="#63b8ff" points="747.53,-224.28 756.15,-230.44 753.25,-220.24 747.53,-224.28"/>
</g>
<!-- Node19 -->
<g id="node19" class="node">
<title>Node19</title>
<g id="a_node19"><a xlink:href="a02039.html#a6e11b7227fcecc25a548ed45507b7d1c" target="_top" xlink:title=" ">
<polygon fill="white" stroke="#666666" points="828.5,-113.97 709,-113.97 709,-81.97 828.5,-81.97 828.5,-113.97"/>
<text xml:space="preserve" text-anchor="start" x="717" y="-100.47" font-family="Helvetica,sans-Serif" font-size="10.00">nlohmann::detail::binary</text>
<text xml:space="preserve" text-anchor="middle" x="768.75" y="-88.47" font-family="Helvetica,sans-Serif" font-size="10.00">_writer::write_number</text>
</a>
</g>
</g>
<!-- Node18&#45;&gt;Node19 -->
<g id="edge25" class="edge">
<title>Node18&#45;&gt;Node19</title>
<path fill="none" stroke="#63b8ff" d="M639.62,-97.97C658.08,-97.97 678.31,-97.97 697.13,-97.97"/>
<polygon fill="#63b8ff" stroke="#63b8ff" points="697.12,-101.47 707.12,-97.97 697.12,-94.47 697.12,-101.47"/>
</g>
<!-- Node20&#45;&gt;Node6 -->
<g id="edge27" class="edge">
<title>Node20&#45;&gt;Node6</title>
<path fill="none" stroke="#63b8ff" d="M628.93,-331.54C647.73,-326.13 669.07,-320.38 688.75,-315.97 757.5,-300.56 837,-287.77 892.64,-279.62"/>
<polygon fill="#63b8ff" stroke="#63b8ff" points="892.9,-283.12 902.29,-278.22 891.9,-276.19 892.9,-283.12"/>
</g>
<!-- Node20&#45;&gt;Node17 -->
<g id="edge28" class="edge">
<title>Node20&#45;&gt;Node17</title>
<path fill="none" stroke="#63b8ff" d="M637.72,-331.47C643,-329 648.1,-326.18 652.75,-322.97 673.83,-308.42 668.05,-293.04 688.75,-277.97 693.12,-274.79 697.86,-271.9 702.78,-269.29"/>
<polygon fill="#63b8ff" stroke="#63b8ff" points="704.23,-272.48 711.71,-264.97 701.19,-266.17 704.23,-272.48"/>
</g>
<!-- Node21&#45;&gt;Node17 -->
<g id="edge30" class="edge">
<title>Node21&#45;&gt;Node17</title>
<path fill="none" stroke="#63b8ff" d="M638.55,-281.52C656.06,-276.98 675.23,-272 693.32,-267.3"/>
<polygon fill="#63b8ff" stroke="#63b8ff" points="694.15,-270.7 702.95,-264.8 692.39,-263.92 694.15,-270.7"/>
</g>
<!-- Node22&#45;&gt;Node17 -->
<g id="edge32" class="edge">
<title>Node22&#45;&gt;Node17</title>
<path fill="none" stroke="#63b8ff" d="M632.23,-164.41C639.25,-167 646.24,-169.86 652.75,-172.97 683.06,-187.42 714.84,-208.68 737.29,-224.87"/>
<polygon fill="#63b8ff" stroke="#63b8ff" points="734.94,-227.5 745.08,-230.58 739.08,-221.85 734.94,-227.5"/>
</g>
<!-- Node23&#45;&gt;Node17 -->
<g id="edge34" class="edge">
<title>Node23&#45;&gt;Node17</title>
<path fill="none" stroke="#63b8ff" d="M634.31,-247.97C647.97,-247.97 662.8,-247.97 677.44,-247.97"/>
<polygon fill="#63b8ff" stroke="#63b8ff" points="677.07,-251.47 687.07,-247.97 677.07,-244.47 677.07,-251.47"/>
</g>
<!-- Node24&#45;&gt;Node4 -->
<g id="edge37" class="edge">
<title>Node24&#45;&gt;Node4</title>
<path fill="none" stroke="#63b8ff" d="M515.29,-64.4C508.57,-66.97 501.92,-69.82 495.75,-72.97 396.8,-123.36 294.93,-207.93 248.05,-249.06"/>
<polygon fill="#63b8ff" stroke="#63b8ff" points="245.73,-246.43 240.56,-255.68 250.37,-251.68 245.73,-246.43"/>
</g>
<!-- Node24&#45;&gt;Node17 -->
<g id="edge36" class="edge">
<title>Node24&#45;&gt;Node17</title>
<path fill="none" stroke="#63b8ff" d="M638.84,-64.4C643.76,-66.87 648.48,-69.71 652.75,-72.97 659.71,-78.26 721.15,-174.43 751.26,-221.9"/>
<polygon fill="#63b8ff" stroke="#63b8ff" points="748.23,-223.65 756.54,-230.23 754.15,-219.91 748.23,-223.65"/>
</g>
<!-- Node25&#45;&gt;Node17 -->
<g id="edge39" class="edge">
<title>Node25&#45;&gt;Node17</title>
<path fill="none" stroke="#63b8ff" d="M638.55,-214.41C656.06,-218.96 675.23,-223.94 693.32,-228.63"/>
<polygon fill="#63b8ff" stroke="#63b8ff" points="692.39,-232.01 702.95,-231.13 694.15,-225.23 692.39,-232.01"/>
</g>
<!-- Node26&#45;&gt;Node13 -->
<g id="edge41" class="edge">
<title>Node26&#45;&gt;Node13</title>
<path fill="none" stroke="#63b8ff" d="M645.97,-447.97C792.23,-447.97 1126.01,-447.97 1266.46,-447.97"/>
<polygon fill="#63b8ff" stroke="#63b8ff" points="1266.32,-451.47 1276.32,-447.97 1266.32,-444.47 1266.32,-451.47"/>
</g>
<!-- Node26&#45;&gt;Node17 -->
<g id="edge42" class="edge">
<title>Node26&#45;&gt;Node17</title>
<path fill="none" stroke="#63b8ff" d="M640.45,-431.49C644.85,-429.03 649.01,-426.21 652.75,-422.97 680.37,-398.99 669.38,-379.99 688.75,-348.97 705.85,-321.58 728.93,-292.81 745.73,-273.01"/>
<polygon fill="#63b8ff" stroke="#63b8ff" points="748.34,-275.34 752.2,-265.47 743.03,-270.78 748.34,-275.34"/>
</g>
</g>
</svg>
