<?xml version="1.0" encoding="UTF-8" standalone="no"?>
<!DOCTYPE svg PUBLIC "-//W3C//DTD SVG 1.1//EN"
 "http://www.w3.org/Graphics/SVG/1.1/DTD/svg11.dtd">
<!-- Generated by graphviz version 13.1.2 (20250808.2320)
 -->
<!-- Title: RayResult Pages: 1 -->
<svg width="110pt" height="96pt"
 viewBox="0.00 0.00 110.00 96.00" xmlns="http://www.w3.org/2000/svg" xmlns:xlink="http://www.w3.org/1999/xlink">
<g id="graph0" class="graph" transform="scale(1 1) rotate(0) translate(4 92)">
<title>RayResult</title>
<!-- Node1 -->
<g id="node1" class="node">
<title>Node1</title>
<g id="a_node1"><a xlink:title="The result of casting a ray at an object. Contains distance to the hitpoint and the ID of the mesh.">
<polygon fill="#999999" stroke="#666666" points="79.62,-20 17.12,-20 17.12,0 79.62,0 79.62,-20"/>
<text xml:space="preserve" text-anchor="middle" x="48.38" y="-6.5" font-family="Helvetica,sans-Serif" font-size="10.00">RayResult</text>
</a>
</g>
</g>
<!-- Node2 -->
<g id="node2" class="node">
<title>Node2</title>
<g id="a_node2"><a xlink:title=" ">
<polygon fill="white" stroke="#666666" points="34.75,-88 0,-88 0,-68 34.75,-68 34.75,-88"/>
<text xml:space="preserve" text-anchor="middle" x="17.38" y="-74.5" font-family="Helvetica,sans-Serif" font-size="10.00">float</text>
</a>
</g>
</g>
<!-- Node2&#45;&gt;Node1 -->
<g id="edge1" class="edge">
<title>Node2&#45;&gt;Node1</title>
<path fill="none" stroke="#9a32cd" stroke-dasharray="5,2" d="M15.04,-56.1C15.15,-50.03 16.06,-43.55 18.62,-38 21.9,-30.91 28.01,-24.85 33.84,-20.29"/>
<polygon fill="#9a32cd" stroke="#9a32cd" points="11.55,-56.25 15.6,-66.04 18.53,-55.86 11.55,-56.25"/>
<text xml:space="preserve" text-anchor="middle" x="38.5" y="-40.5" font-family="Helvetica,sans-Serif" font-size="10.00"> distance</text>
</g>
<!-- Node3 -->
<g id="node3" class="node">
<title>Node3</title>
<g id="a_node3"><a xlink:title=" ">
<polygon fill="white" stroke="#666666" points="94.78,-88 65.97,-88 65.97,-68 94.78,-68 94.78,-88"/>
<text xml:space="preserve" text-anchor="middle" x="80.38" y="-74.5" font-family="Helvetica,sans-Serif" font-size="10.00">int</text>
</a>
</g>
</g>
<!-- Node3&#45;&gt;Node1 -->
<g id="edge2" class="edge">
<title>Node3&#45;&gt;Node1</title>
<path fill="none" stroke="#9a32cd" stroke-dasharray="5,2" d="M70.87,-57.4C64.95,-45.2 57.61,-30.04 52.95,-20.44"/>
<polygon fill="#9a32cd" stroke="#9a32cd" points="67.62,-58.71 75.13,-66.18 73.92,-55.66 67.62,-58.71"/>
<text xml:space="preserve" text-anchor="middle" x="84.49" y="-40.5" font-family="Helvetica,sans-Serif" font-size="10.00"> meshid</text>
</g>
</g>
</svg>
