<?xml version="1.0" encoding="UTF-8" standalone="no"?>
<!DOCTYPE svg PUBLIC "-//W3C//DTD SVG 1.1//EN"
 "http://www.w3.org/Graphics/SVG/1.1/DTD/svg11.dtd">
<!-- Generated by graphviz version 13.1.2 (20250808.2320)
 -->
<!-- Title: nlohmann::detail::iter_impl::operator!= Pages: 1 -->
<svg width="586pt" height="40pt"
 viewBox="0.00 0.00 586.00 40.00" xmlns="http://www.w3.org/2000/svg" xmlns:xlink="http://www.w3.org/1999/xlink">
<g id="graph0" class="graph" transform="scale(1 1) rotate(0) translate(4 36)">
<title>nlohmann::detail::iter_impl::operator!=</title>
<!-- Node1 -->
<g id="node1" class="node">
<title>Node1</title>
<g id="a_node1"><a xlink:title="comparison: not equal">
<polygon fill="#999999" stroke="#666666" points="106.75,-32 0,-32 0,0 106.75,0 106.75,-32"/>
<text xml:space="preserve" text-anchor="start" x="8" y="-18.5" font-family="Helvetica,sans-Serif" font-size="10.00">nlohmann::detail::iter</text>
<text xml:space="preserve" text-anchor="middle" x="53.38" y="-6.5" font-family="Helvetica,sans-Serif" font-size="10.00">_impl::operator!=</text>
</a>
</g>
</g>
<!-- Node2 -->
<g id="node2" class="node">
<title>Node2</title>
<g id="a_node2"><a xlink:href="a02011.html#a2b592605b63ae7f5401996ffa3b14393" target="_top" xlink:title="comparison: equal">
<polygon fill="white" stroke="#666666" points="249.5,-32 142.75,-32 142.75,0 249.5,0 249.5,-32"/>
<text xml:space="preserve" text-anchor="start" x="150.75" y="-18.5" font-family="Helvetica,sans-Serif" font-size="10.00">nlohmann::detail::iter</text>
<text xml:space="preserve" text-anchor="middle" x="196.12" y="-6.5" font-family="Helvetica,sans-Serif" font-size="10.00">_impl::operator==</text>
</a>
</g>
</g>
<!-- Node1&#45;&gt;Node2 -->
<g id="edge1" class="edge">
<title>Node1&#45;&gt;Node2</title>
<path fill="none" stroke="#63b8ff" d="M107.19,-16C115.03,-16 123.19,-16 131.23,-16"/>
<polygon fill="#63b8ff" stroke="#63b8ff" points="130.97,-19.5 140.97,-16 130.97,-12.5 130.97,-19.5"/>
</g>
<!-- Node3 -->
<g id="node3" class="node">
<title>Node3</title>
<g id="a_node3"><a xlink:href="a01567.html#a4e849260a3caa1b288c7e619130c6c09" target="_top" xlink:title=" ">
<polygon fill="white" stroke="#666666" points="406.5,-32 285.5,-32 285.5,0 406.5,0 406.5,-32"/>
<text xml:space="preserve" text-anchor="start" x="293.5" y="-18.5" font-family="Helvetica,sans-Serif" font-size="10.00">nlohmann::detail::invalid</text>
<text xml:space="preserve" text-anchor="middle" x="346" y="-6.5" font-family="Helvetica,sans-Serif" font-size="10.00">_iterator::create</text>
</a>
</g>
</g>
<!-- Node2&#45;&gt;Node3 -->
<g id="edge2" class="edge">
<title>Node2&#45;&gt;Node3</title>
<path fill="none" stroke="#63b8ff" d="M249.68,-16C257.46,-16 265.6,-16 273.69,-16"/>
<polygon fill="#63b8ff" stroke="#63b8ff" points="273.54,-19.5 283.54,-16 273.54,-12.5 273.54,-19.5"/>
</g>
<!-- Node4 -->
<g id="node4" class="node">
<title>Node4</title>
<g id="a_node4"><a xlink:href="a01559.html#abf41a7e9178356314082284e6cfea278" target="_top" xlink:title=" ">
<polygon fill="white" stroke="#666666" points="577.75,-32 442.5,-32 442.5,0 577.75,0 577.75,-32"/>
<text xml:space="preserve" text-anchor="start" x="450.5" y="-18.5" font-family="Helvetica,sans-Serif" font-size="10.00">nlohmann::detail::exception</text>
<text xml:space="preserve" text-anchor="middle" x="510.12" y="-6.5" font-family="Helvetica,sans-Serif" font-size="10.00">::name</text>
</a>
</g>
</g>
<!-- Node3&#45;&gt;Node4 -->
<g id="edge3" class="edge">
<title>Node3&#45;&gt;Node4</title>
<path fill="none" stroke="#63b8ff" d="M406.91,-16C414.69,-16 422.76,-16 430.79,-16"/>
<polygon fill="#63b8ff" stroke="#63b8ff" points="430.57,-19.5 440.57,-16 430.57,-12.5 430.57,-19.5"/>
</g>
</g>
</svg>
