<?xml version="1.0" encoding="UTF-8" standalone="no"?>
<!DOCTYPE svg PUBLIC "-//W3C//DTD SVG 1.1//EN"
 "http://www.w3.org/Graphics/SVG/1.1/DTD/svg11.dtd">
<!-- Generated by graphviz version 13.1.2 (20250808.2320)
 -->
<!-- Title: HF::SpatialStructures::Path::GetPMPointer Pages: 1 -->
<svg width="597pt" height="138pt"
 viewBox="0.00 0.00 597.00 138.00" xmlns="http://www.w3.org/2000/svg" xmlns:xlink="http://www.w3.org/1999/xlink">
<g id="graph0" class="graph" transform="scale(1 1) rotate(0) translate(4 134)">
<title>HF::SpatialStructures::Path::GetPMPointer</title>
<!-- Node1 -->
<g id="node1" class="node">
<title>Node1</title>
<g id="a_node1"><a xlink:title="Get a pointer to the path&#39;s underlying path members vector.">
<polygon fill="#999999" stroke="#666666" points="589,-98 478.5,-98 478.5,-66 589,-66 589,-98"/>
<text xml:space="preserve" text-anchor="start" x="486.5" y="-84.5" font-family="Helvetica,sans-Serif" font-size="10.00">HF::SpatialStructures</text>
<text xml:space="preserve" text-anchor="middle" x="533.75" y="-72.5" font-family="Helvetica,sans-Serif" font-size="10.00">::Path::GetPMPointer</text>
</a>
</g>
</g>
<!-- Node2 -->
<g id="node2" class="node">
<title>Node2</title>
<g id="a_node2"><a xlink:href="a00456.html#ga3dc85450e989a996a3c3fcfad0a5944e" target="_top" xlink:title="Find the shortest path from start to end.">
<polygon fill="white" stroke="#666666" points="405,-130 339.5,-130 339.5,-110 405,-110 405,-130"/>
<text xml:space="preserve" text-anchor="middle" x="372.25" y="-116.5" font-family="Helvetica,sans-Serif" font-size="10.00">CreatePath</text>
</a>
</g>
</g>
<!-- Node1&#45;&gt;Node2 -->
<g id="edge1" class="edge">
<title>Node1&#45;&gt;Node2</title>
<path fill="none" stroke="#63b8ff" d="M467.26,-97.6C445.81,-102.71 422.95,-108.16 405.14,-112.4"/>
<polygon fill="#63b8ff" stroke="#63b8ff" points="467.92,-101.04 476.83,-95.32 466.29,-94.23 467.92,-101.04"/>
</g>
<!-- Node3 -->
<g id="node3" class="node">
<title>Node3</title>
<g id="a_node3"><a xlink:href="a00456.html#gaac725d282f4fecd3aba1b3273c26e7e1" target="_top" xlink:title="Get the size of a path">
<polygon fill="white" stroke="#666666" points="406.5,-92 338,-92 338,-72 406.5,-72 406.5,-92"/>
<text xml:space="preserve" text-anchor="middle" x="372.25" y="-78.5" font-family="Helvetica,sans-Serif" font-size="10.00">GetPathInfo</text>
</a>
</g>
</g>
<!-- Node1&#45;&gt;Node3 -->
<g id="edge2" class="edge">
<title>Node1&#45;&gt;Node3</title>
<path fill="none" stroke="#63b8ff" d="M466.93,-82C446.14,-82 424.05,-82 406.55,-82"/>
<polygon fill="#63b8ff" stroke="#63b8ff" points="466.79,-85.5 476.79,-82 466.79,-78.5 466.79,-85.5"/>
</g>
<!-- Node4 -->
<g id="node4" class="node">
<title>Node4</title>
<g id="a_node4"><a xlink:href="a00472.html#a417084c97d0672af2da7739157a9d8c0" target="_top" xlink:title="A special version of FindPaths optimized for the C_Interface.">
<polygon fill="white" stroke="#666666" points="442.5,-54 302,-54 302,-22 442.5,-22 442.5,-54"/>
<text xml:space="preserve" text-anchor="start" x="310" y="-40.5" font-family="Helvetica,sans-Serif" font-size="10.00">HF::Pathfinding::InsertPaths</text>
<text xml:space="preserve" text-anchor="middle" x="372.25" y="-28.5" font-family="Helvetica,sans-Serif" font-size="10.00">IntoArray</text>
</a>
</g>
</g>
<!-- Node1&#45;&gt;Node4 -->
<g id="edge3" class="edge">
<title>Node1&#45;&gt;Node4</title>
<path fill="none" stroke="#63b8ff" d="M467.49,-64C456.05,-60.84 444.19,-57.57 432.91,-54.46"/>
<polygon fill="#63b8ff" stroke="#63b8ff" points="466.28,-67.29 476.85,-66.58 468.14,-60.54 466.28,-67.29"/>
</g>
<!-- Node5 -->
<g id="node5" class="node">
<title>Node5</title>
<g id="a_node5"><a xlink:href="a00456.html#gae1ac2805c3b86883bb88269ed3868367" target="_top" xlink:title="Find multiple shortest paths in paralllel.">
<polygon fill="white" stroke="#666666" points="238.25,-70 167.5,-70 167.5,-50 238.25,-50 238.25,-70"/>
<text xml:space="preserve" text-anchor="middle" x="202.88" y="-56.5" font-family="Helvetica,sans-Serif" font-size="10.00">CreatePaths</text>
</a>
</g>
</g>
<!-- Node4&#45;&gt;Node5 -->
<g id="edge4" class="edge">
<title>Node4&#45;&gt;Node5</title>
<path fill="none" stroke="#63b8ff" d="M290.43,-48.62C272.2,-51.02 253.8,-53.44 238.67,-55.43"/>
<polygon fill="#63b8ff" stroke="#63b8ff" points="290.76,-52.11 300.22,-47.34 289.85,-45.17 290.76,-52.11"/>
</g>
<!-- Node6 -->
<g id="node6" class="node">
<title>Node6</title>
<g id="a_node6"><a xlink:href="a00472.html#a69bd3efcc13788e7c4be43b67d6002e5" target="_top" xlink:title="A special version of FindPaths optimized for the C_Interface, such that all paths possible from each ...">
<polygon fill="white" stroke="#666666" points="266,-32 139.75,-32 139.75,0 266,0 266,-32"/>
<text xml:space="preserve" text-anchor="start" x="147.75" y="-18.5" font-family="Helvetica,sans-Serif" font-size="10.00">HF::Pathfinding::InsertAll</text>
<text xml:space="preserve" text-anchor="middle" x="202.88" y="-6.5" font-family="Helvetica,sans-Serif" font-size="10.00">ToAllPathsIntoArray</text>
</a>
</g>
</g>
<!-- Node4&#45;&gt;Node6 -->
<g id="edge5" class="edge">
<title>Node4&#45;&gt;Node6</title>
<path fill="none" stroke="#63b8ff" d="M290.33,-27.36C282.23,-26.3 274.1,-25.23 266.24,-24.2"/>
<polygon fill="#63b8ff" stroke="#63b8ff" points="289.85,-30.83 300.22,-28.66 290.76,-23.89 289.85,-30.83"/>
</g>
<!-- Node7 -->
<g id="node7" class="node">
<title>Node7</title>
<g id="a_node7"><a xlink:href="a00456.html#gaba6ec6ce84974dd6a311d7d65dd34221" target="_top" xlink:title="Find a path from every node in a graph to every other node.">
<polygon fill="white" stroke="#666666" points="103.75,-26 0,-26 0,-6 103.75,-6 103.75,-26"/>
<text xml:space="preserve" text-anchor="middle" x="51.88" y="-12.5" font-family="Helvetica,sans-Serif" font-size="10.00">CreateAllToAllPaths</text>
</a>
</g>
</g>
<!-- Node6&#45;&gt;Node7 -->
<g id="edge6" class="edge">
<title>Node6&#45;&gt;Node7</title>
<path fill="none" stroke="#63b8ff" d="M128.12,-16C120,-16 111.87,-16 104.11,-16"/>
<polygon fill="#63b8ff" stroke="#63b8ff" points="128.04,-19.5 138.04,-16 128.04,-12.5 128.04,-19.5"/>
</g>
</g>
</svg>
