<?xml version="1.0" encoding="UTF-8" standalone="no"?>
<!DOCTYPE svg PUBLIC "-//W3C//DTD SVG 1.1//EN"
 "http://www.w3.org/Graphics/SVG/1.1/DTD/svg11.dtd">
<!-- Generated by graphviz version 13.1.2 (20250808.2320)
 -->
<!-- Title: nlohmann::detail::binary_writer::calc_bson_element_size Pages: 1 -->
<svg width="680pt" height="352pt"
 viewBox="0.00 0.00 680.00 352.00" xmlns="http://www.w3.org/2000/svg" xmlns:xlink="http://www.w3.org/1999/xlink">
<g id="graph0" class="graph" transform="scale(1 1) rotate(0) translate(4 348)">
<title>nlohmann::detail::binary_writer::calc_bson_element_size</title>
<!-- Node1 -->
<g id="node1" class="node">
<title>Node1</title>
<g id="a_node1"><a xlink:title="Calculates the size necessary to serialize the JSON value j with its name.">
<polygon fill="#999999" stroke="#666666" points="158.5,-210 0,-210 0,-178 158.5,-178 158.5,-210"/>
<text xml:space="preserve" text-anchor="start" x="8" y="-196.5" font-family="Helvetica,sans-Serif" font-size="10.00">nlohmann::detail::binary</text>
<text xml:space="preserve" text-anchor="middle" x="79.25" y="-184.5" font-family="Helvetica,sans-Serif" font-size="10.00">_writer::calc_bson_element_size</text>
</a>
</g>
</g>
<!-- Node2 -->
<g id="node2" class="node">
<title>Node2</title>
<g id="a_node2"><a xlink:href="a02039.html#af08f9302a02516ff8cf358a99aaa1ddf" target="_top" xlink:title=" ">
<polygon fill="white" stroke="#666666" points="348.88,-344 203.12,-344 203.12,-312 348.88,-312 348.88,-344"/>
<text xml:space="preserve" text-anchor="start" x="211.12" y="-330.5" font-family="Helvetica,sans-Serif" font-size="10.00">nlohmann::detail::binary</text>
<text xml:space="preserve" text-anchor="middle" x="276" y="-318.5" font-family="Helvetica,sans-Serif" font-size="10.00">_writer::calc_bson_array_size</text>
</a>
</g>
</g>
<!-- Node1&#45;&gt;Node2 -->
<g id="edge1" class="edge">
<title>Node1&#45;&gt;Node2</title>
<path fill="none" stroke="#63b8ff" d="M98.51,-210.25C119.32,-232.42 155.51,-271.07 194.5,-294 204.15,-299.67 215.22,-304.19 226,-307.97"/>
<polygon fill="#63b8ff" stroke="#63b8ff" points="224.6,-311.19 235.19,-311.05 226.82,-304.55 224.6,-311.19"/>
</g>
<!-- Node3 -->
<g id="node3" class="node">
<title>Node3</title>
<g id="a_node3"><a xlink:href="a02039.html#a9dd6062fd249a695e0f93d558dba4685" target="_top" xlink:title=" ">
<polygon fill="white" stroke="#666666" points="351.12,-294 200.88,-294 200.88,-262 351.12,-262 351.12,-294"/>
<text xml:space="preserve" text-anchor="start" x="208.88" y="-280.5" font-family="Helvetica,sans-Serif" font-size="10.00">nlohmann::detail::binary</text>
<text xml:space="preserve" text-anchor="middle" x="276" y="-268.5" font-family="Helvetica,sans-Serif" font-size="10.00">_writer::calc_bson_binary_size</text>
</a>
</g>
</g>
<!-- Node1&#45;&gt;Node3 -->
<g id="edge3" class="edge">
<title>Node1&#45;&gt;Node3</title>
<path fill="none" stroke="#63b8ff" d="M108.7,-210.47C131.42,-223.19 164.34,-240.64 194.5,-253 198.57,-254.67 202.8,-256.29 207.09,-257.85"/>
<polygon fill="#63b8ff" stroke="#63b8ff" points="205.8,-261.11 216.4,-261.11 208.11,-254.5 205.8,-261.11"/>
</g>
<!-- Node4 -->
<g id="node4" class="node">
<title>Node4</title>
<g id="a_node4"><a xlink:href="a02039.html#a5bae2f1db2c511b869dffaddf15a1653" target="_top" xlink:title=" ">
<polygon fill="white" stroke="#666666" points="337.25,-244 214.75,-244 214.75,-200 337.25,-200 337.25,-244"/>
<text xml:space="preserve" text-anchor="start" x="222.75" y="-230.5" font-family="Helvetica,sans-Serif" font-size="10.00">nlohmann::detail::binary</text>
<text xml:space="preserve" text-anchor="start" x="222.75" y="-218.5" font-family="Helvetica,sans-Serif" font-size="10.00">_writer::calc_bson_entry</text>
<text xml:space="preserve" text-anchor="middle" x="276" y="-206.5" font-family="Helvetica,sans-Serif" font-size="10.00">_header_size</text>
</a>
</g>
</g>
<!-- Node1&#45;&gt;Node4 -->
<g id="edge4" class="edge">
<title>Node1&#45;&gt;Node4</title>
<path fill="none" stroke="#63b8ff" d="M158.9,-205.31C173.48,-207.4 188.64,-209.58 203,-211.65"/>
<polygon fill="#63b8ff" stroke="#63b8ff" points="202.44,-215.1 212.83,-213.06 203.43,-208.17 202.44,-215.1"/>
</g>
<!-- Node7 -->
<g id="node7" class="node">
<title>Node7</title>
<g id="a_node7"><a xlink:href="a02039.html#aeab70c895931b96ea598306b37eca271" target="_top" xlink:title=" ">
<polygon fill="white" stroke="#666666" points="352.62,-182 199.38,-182 199.38,-150 352.62,-150 352.62,-182"/>
<text xml:space="preserve" text-anchor="start" x="207.38" y="-168.5" font-family="Helvetica,sans-Serif" font-size="10.00">nlohmann::detail::binary</text>
<text xml:space="preserve" text-anchor="middle" x="276" y="-156.5" font-family="Helvetica,sans-Serif" font-size="10.00">_writer::calc_bson_integer_size</text>
</a>
</g>
</g>
<!-- Node1&#45;&gt;Node7 -->
<g id="edge7" class="edge">
<title>Node1&#45;&gt;Node7</title>
<path fill="none" stroke="#63b8ff" d="M158.9,-182.69C168.39,-181.33 178.12,-179.93 187.71,-178.55"/>
<polygon fill="#63b8ff" stroke="#63b8ff" points="188,-182.04 197.4,-177.16 187,-175.12 188,-182.04"/>
</g>
<!-- Node8 -->
<g id="node8" class="node">
<title>Node8</title>
<g id="a_node8"><a xlink:href="a02039.html#acc6f1cc1fd370ee84ebc8cf7b8712840" target="_top" xlink:title="Calculates the size of the BSON serialization of the given JSON&#45;object j.">
<polygon fill="white" stroke="#666666" points="351.12,-132 200.88,-132 200.88,-100 351.12,-100 351.12,-132"/>
<text xml:space="preserve" text-anchor="start" x="208.88" y="-118.5" font-family="Helvetica,sans-Serif" font-size="10.00">nlohmann::detail::binary</text>
<text xml:space="preserve" text-anchor="middle" x="276" y="-106.5" font-family="Helvetica,sans-Serif" font-size="10.00">_writer::calc_bson_object_size</text>
</a>
</g>
</g>
<!-- Node1&#45;&gt;Node8 -->
<g id="edge8" class="edge">
<title>Node1&#45;&gt;Node8</title>
<path fill="none" stroke="#63b8ff" d="M112.75,-177.51C135.34,-166.4 166.34,-151.85 194.5,-141 198.88,-139.31 203.42,-137.66 208.02,-136.05"/>
<polygon fill="#63b8ff" stroke="#63b8ff" points="209.02,-139.41 217.37,-132.88 206.78,-132.78 209.02,-139.41"/>
</g>
<!-- Node9 -->
<g id="node9" class="node">
<title>Node9</title>
<g id="a_node9"><a xlink:href="a02039.html#aea44fd97a5cb9b4f175e66e3e4fdf158" target="_top" xlink:title=" ">
<polygon fill="white" stroke="#666666" points="350,-82 202,-82 202,-50 350,-50 350,-82"/>
<text xml:space="preserve" text-anchor="start" x="210" y="-68.5" font-family="Helvetica,sans-Serif" font-size="10.00">nlohmann::detail::binary</text>
<text xml:space="preserve" text-anchor="middle" x="276" y="-56.5" font-family="Helvetica,sans-Serif" font-size="10.00">_writer::calc_bson_string_size</text>
</a>
</g>
</g>
<!-- Node1&#45;&gt;Node9 -->
<g id="edge9" class="edge">
<title>Node1&#45;&gt;Node9</title>
<path fill="none" stroke="#63b8ff" d="M94.1,-177.69C114.09,-155.12 153.19,-114.51 194.5,-91 196.95,-89.61 199.48,-88.28 202.08,-87.02"/>
<polygon fill="#63b8ff" stroke="#63b8ff" points="203.22,-90.35 210.95,-83.1 200.39,-83.94 203.22,-90.35"/>
</g>
<!-- Node10 -->
<g id="node10" class="node">
<title>Node10</title>
<g id="a_node10"><a xlink:href="a02039.html#aa1d6bb9f3af16f07ce2440c354b5787b" target="_top" xlink:title=" ">
<polygon fill="white" stroke="#666666" points="357.5,-32 194.5,-32 194.5,0 357.5,0 357.5,-32"/>
<text xml:space="preserve" text-anchor="start" x="202.5" y="-18.5" font-family="Helvetica,sans-Serif" font-size="10.00">nlohmann::detail::binary</text>
<text xml:space="preserve" text-anchor="middle" x="276" y="-6.5" font-family="Helvetica,sans-Serif" font-size="10.00">_writer::calc_bson_unsigned_size</text>
</a>
</g>
</g>
<!-- Node1&#45;&gt;Node10 -->
<g id="edge10" class="edge">
<title>Node1&#45;&gt;Node10</title>
<path fill="none" stroke="#63b8ff" d="M87.87,-177.96C103.45,-146.84 141.98,-78.12 194.5,-41 196.1,-39.87 197.76,-38.79 199.46,-37.75"/>
<polygon fill="#63b8ff" stroke="#63b8ff" points="201.08,-40.85 208.25,-33.05 197.78,-34.68 201.08,-40.85"/>
</g>
<!-- Node2&#45;&gt;Node1 -->
<g id="edge2" class="edge">
<title>Node2&#45;&gt;Node1</title>
<path fill="none" stroke="#63b8ff" d="M202.73,-316.41C199.91,-315.03 197.15,-313.56 194.5,-312 153.67,-287.99 115.91,-246.74 95.68,-219.69"/>
<polygon fill="#63b8ff" stroke="#63b8ff" points="98.59,-217.75 89.92,-211.65 92.9,-221.82 98.59,-217.75"/>
</g>
<!-- Node5 -->
<g id="node5" class="node">
<title>Node5</title>
<g id="a_node5"><a xlink:href="a01575.html#a3f6d82a6f967c4728a1ec735a7867073" target="_top" xlink:title=" ">
<polygon fill="white" stroke="#666666" points="500.25,-238 393.5,-238 393.5,-206 500.25,-206 500.25,-238"/>
<text xml:space="preserve" text-anchor="start" x="401.5" y="-224.5" font-family="Helvetica,sans-Serif" font-size="10.00">nlohmann::detail::out</text>
<text xml:space="preserve" text-anchor="middle" x="446.88" y="-212.5" font-family="Helvetica,sans-Serif" font-size="10.00">_of_range::create</text>
</a>
</g>
</g>
<!-- Node4&#45;&gt;Node5 -->
<g id="edge5" class="edge">
<title>Node4&#45;&gt;Node5</title>
<path fill="none" stroke="#63b8ff" d="M337.49,-222C351.83,-222 367.17,-222 381.67,-222"/>
<polygon fill="#63b8ff" stroke="#63b8ff" points="381.57,-225.5 391.57,-222 381.57,-218.5 381.57,-225.5"/>
</g>
<!-- Node6 -->
<g id="node6" class="node">
<title>Node6</title>
<g id="a_node6"><a xlink:href="a01559.html#abf41a7e9178356314082284e6cfea278" target="_top" xlink:title=" ">
<polygon fill="white" stroke="#666666" points="671.5,-238 536.25,-238 536.25,-206 671.5,-206 671.5,-238"/>
<text xml:space="preserve" text-anchor="start" x="544.25" y="-224.5" font-family="Helvetica,sans-Serif" font-size="10.00">nlohmann::detail::exception</text>
<text xml:space="preserve" text-anchor="middle" x="603.88" y="-212.5" font-family="Helvetica,sans-Serif" font-size="10.00">::name</text>
</a>
</g>
</g>
<!-- Node5&#45;&gt;Node6 -->
<g id="edge6" class="edge">
<title>Node5&#45;&gt;Node6</title>
<path fill="none" stroke="#63b8ff" d="M500.35,-222C508.11,-222 516.25,-222 524.4,-222"/>
<polygon fill="#63b8ff" stroke="#63b8ff" points="524.38,-225.5 534.38,-222 524.38,-218.5 524.38,-225.5"/>
</g>
</g>
</svg>
