<?xml version="1.0" encoding="UTF-8" standalone="no"?>
<!DOCTYPE svg PUBLIC "-//W3C//DTD SVG 1.1//EN"
 "http://www.w3.org/Graphics/SVG/1.1/DTD/svg11.dtd">
<!-- Generated by graphviz version 13.1.2 (20250808.2320)
 -->
<!-- Title: nlohmann::detail::output_string_adapter&lt; CharType, StringType &gt; Pages: 1 -->
<svg width="348pt" height="90pt"
 viewBox="0.00 0.00 348.00 90.00" xmlns="http://www.w3.org/2000/svg" xmlns:xlink="http://www.w3.org/1999/xlink">
<g id="graph0" class="graph" transform="scale(1 1) rotate(0) translate(4 86)">
<title>nlohmann::detail::output_string_adapter&lt; CharType, StringType &gt;</title>
<!-- Node1 -->
<g id="node1" class="node">
<title>Node1</title>
<g id="a_node1"><a xlink:title="output adapter for basic_string">
<polygon fill="#999999" stroke="#666666" points="340.25,-63 203.5,-63 203.5,-19 340.25,-19 340.25,-63"/>
<text xml:space="preserve" text-anchor="start" x="211.5" y="-49.5" font-family="Helvetica,sans-Serif" font-size="10.00">nlohmann::detail::output</text>
<text xml:space="preserve" text-anchor="start" x="211.5" y="-37.5" font-family="Helvetica,sans-Serif" font-size="10.00">_string_adapter&lt; CharType,</text>
<text xml:space="preserve" text-anchor="middle" x="271.88" y="-25.5" font-family="Helvetica,sans-Serif" font-size="10.00"> StringType &gt;</text>
</a>
</g>
</g>
<!-- Node2 -->
<g id="node2" class="node">
<title>Node2</title>
<g id="a_node2"><a xlink:href="a02019.html" target="_top" xlink:title="abstract output adapter interface">
<polygon fill="white" stroke="#666666" points="153.25,-82 0,-82 0,-50 153.25,-50 153.25,-82"/>
<text xml:space="preserve" text-anchor="start" x="8" y="-68.5" font-family="Helvetica,sans-Serif" font-size="10.00">nlohmann::detail::output</text>
<text xml:space="preserve" text-anchor="middle" x="76.62" y="-56.5" font-family="Helvetica,sans-Serif" font-size="10.00">_adapter_protocol&lt; CharType &gt;</text>
</a>
</g>
</g>
<!-- Node2&#45;&gt;Node1 -->
<g id="edge1" class="edge">
<title>Node2&#45;&gt;Node1</title>
<path fill="none" stroke="#63b8ff" d="M164.88,-54.71C177.67,-53.06 190.68,-51.37 203,-49.78"/>
<polygon fill="#63b8ff" stroke="#63b8ff" points="164.69,-51.21 155.23,-55.96 165.59,-58.15 164.69,-51.21"/>
</g>
<!-- Node3 -->
<g id="node3" class="node">
<title>Node3</title>
<g id="a_node3"><a xlink:title=" ">
<polygon fill="white" stroke="#666666" points="123.62,-32 29.62,-32 29.62,0 123.62,0 123.62,-32"/>
<text xml:space="preserve" text-anchor="start" x="37.62" y="-18.5" font-family="Helvetica,sans-Serif" font-size="10.00">std::basic_string&lt;</text>
<text xml:space="preserve" text-anchor="middle" x="76.62" y="-6.5" font-family="Helvetica,sans-Serif" font-size="10.00"> CharType &gt;</text>
</a>
</g>
</g>
<!-- Node3&#45;&gt;Node1 -->
<g id="edge2" class="edge">
<title>Node3&#45;&gt;Node1</title>
<path fill="none" stroke="#9a32cd" stroke-dasharray="5,2" d="M135.09,-23.43C156.43,-26.19 180.84,-29.35 203.02,-32.22"/>
<polygon fill="#9a32cd" stroke="#9a32cd" points="135.78,-19.99 125.41,-22.18 134.88,-26.94 135.78,-19.99"/>
<text xml:space="preserve" text-anchor="middle" x="178.38" y="-31.75" font-family="Helvetica,sans-Serif" font-size="10.00"> str</text>
</g>
</g>
</svg>
