<?xml version="1.0" encoding="UTF-8" standalone="no"?>
<!DOCTYPE svg PUBLIC "-//W3C//DTD SVG 1.1//EN"
 "http://www.w3.org/Graphics/SVG/1.1/DTD/svg11.dtd">
<!-- Generated by graphviz version 13.1.2 (20250808.2320)
 -->
<!-- Title: nlohmann::detail::binary_writer::calc_bson_object_size Pages: 1 -->
<svg width="1376pt" height="90pt"
 viewBox="0.00 0.00 1376.00 90.00" xmlns="http://www.w3.org/2000/svg" xmlns:xlink="http://www.w3.org/1999/xlink">
<g id="graph0" class="graph" transform="scale(1 1) rotate(0) translate(4 86)">
<title>nlohmann::detail::binary_writer::calc_bson_object_size</title>
<!-- Node1 -->
<g id="node1" class="node">
<title>Node1</title>
<g id="a_node1"><a xlink:title="Calculates the size of the BSON serialization of the given JSON&#45;object j.">
<polygon fill="#999999" stroke="#666666" points="1367.75,-60 1217.5,-60 1217.5,-28 1367.75,-28 1367.75,-60"/>
<text xml:space="preserve" text-anchor="start" x="1225.5" y="-46.5" font-family="Helvetica,sans-Serif" font-size="10.00">nlohmann::detail::binary</text>
<text xml:space="preserve" text-anchor="middle" x="1292.62" y="-34.5" font-family="Helvetica,sans-Serif" font-size="10.00">_writer::calc_bson_object_size</text>
</a>
</g>
</g>
<!-- Node2 -->
<g id="node2" class="node">
<title>Node2</title>
<g id="a_node2"><a xlink:href="a02039.html#a1e4372c5984184eb5bcc09af1fcc2ee0" target="_top" xlink:title="Calculates the size necessary to serialize the JSON value j with its name.">
<polygon fill="white" stroke="#666666" points="1181.5,-82 1023,-82 1023,-50 1181.5,-50 1181.5,-82"/>
<text xml:space="preserve" text-anchor="start" x="1031" y="-68.5" font-family="Helvetica,sans-Serif" font-size="10.00">nlohmann::detail::binary</text>
<text xml:space="preserve" text-anchor="middle" x="1102.25" y="-56.5" font-family="Helvetica,sans-Serif" font-size="10.00">_writer::calc_bson_element_size</text>
</a>
</g>
</g>
<!-- Node1&#45;&gt;Node2 -->
<g id="edge1" class="edge">
<title>Node1&#45;&gt;Node2</title>
<path fill="none" stroke="#63b8ff" d="M1205.9,-54.01C1197.87,-54.95 1189.76,-55.9 1181.8,-56.83"/>
<polygon fill="#63b8ff" stroke="#63b8ff" points="1206.14,-57.51 1215.67,-52.87 1205.33,-50.55 1206.14,-57.51"/>
</g>
<!-- Node6 -->
<g id="node6" class="node">
<title>Node6</title>
<g id="a_node6"><a xlink:href="a02039.html#a29b3e0f83a8e5f2307804023109ba2c9" target="_top" xlink:title=" ">
<polygon fill="white" stroke="#666666" points="469.5,-38 339.5,-38 339.5,-6 469.5,-6 469.5,-38"/>
<text xml:space="preserve" text-anchor="start" x="347.5" y="-24.5" font-family="Helvetica,sans-Serif" font-size="10.00">nlohmann::detail::binary</text>
<text xml:space="preserve" text-anchor="middle" x="404.5" y="-12.5" font-family="Helvetica,sans-Serif" font-size="10.00">_writer::write_bson_object</text>
</a>
</g>
</g>
<!-- Node1&#45;&gt;Node6 -->
<g id="edge12" class="edge">
<title>Node1&#45;&gt;Node6</title>
<path fill="none" stroke="#63b8ff" d="M1205.61,-36.11C1129.36,-29.8 1014.93,-22 915.12,-22 915.12,-22 915.12,-22 741.5,-22 647,-22 537.55,-22 469.91,-22"/>
<polygon fill="#63b8ff" stroke="#63b8ff" points="1205.28,-39.59 1215.54,-36.94 1205.87,-32.62 1205.28,-39.59"/>
</g>
<!-- Node3 -->
<g id="node3" class="node">
<title>Node3</title>
<g id="a_node3"><a xlink:href="a02039.html#af08f9302a02516ff8cf358a99aaa1ddf" target="_top" xlink:title=" ">
<polygon fill="white" stroke="#666666" points="987,-82 841.25,-82 841.25,-50 987,-50 987,-82"/>
<text xml:space="preserve" text-anchor="start" x="849.25" y="-68.5" font-family="Helvetica,sans-Serif" font-size="10.00">nlohmann::detail::binary</text>
<text xml:space="preserve" text-anchor="middle" x="914.12" y="-56.5" font-family="Helvetica,sans-Serif" font-size="10.00">_writer::calc_bson_array_size</text>
</a>
</g>
</g>
<!-- Node2&#45;&gt;Node3 -->
<g id="edge2" class="edge">
<title>Node2&#45;&gt;Node3</title>
<path fill="none" stroke="#63b8ff" d="M1011.27,-59.25C1003.23,-59.24 995.16,-59.29 987.29,-59.4"/>
<polygon fill="#63b8ff" stroke="#63b8ff" points="1011.05,-62.75 1021.07,-59.31 1011.09,-55.75 1011.05,-62.75"/>
</g>
<!-- Node3&#45;&gt;Node2 -->
<g id="edge3" class="edge">
<title>Node3&#45;&gt;Node2</title>
<path fill="none" stroke="#63b8ff" d="M998.8,-72.72C1006.71,-72.77 1014.72,-72.76 1022.59,-72.68"/>
<polygon fill="#63b8ff" stroke="#63b8ff" points="998.85,-69.22 988.81,-72.61 998.77,-76.22 998.85,-69.22"/>
</g>
<!-- Node4 -->
<g id="node4" class="node">
<title>Node4</title>
<g id="a_node4"><a xlink:href="a02039.html#a025212bd170253638b9f05b3b6aa5bf9" target="_top" xlink:title="Writes a BSON element with key name and array value.">
<polygon fill="white" stroke="#666666" points="805.25,-82 679.75,-82 679.75,-50 805.25,-50 805.25,-82"/>
<text xml:space="preserve" text-anchor="start" x="687.75" y="-68.5" font-family="Helvetica,sans-Serif" font-size="10.00">nlohmann::detail::binary</text>
<text xml:space="preserve" text-anchor="middle" x="742.5" y="-56.5" font-family="Helvetica,sans-Serif" font-size="10.00">_writer::write_bson_array</text>
</a>
</g>
</g>
<!-- Node3&#45;&gt;Node4 -->
<g id="edge4" class="edge">
<title>Node3&#45;&gt;Node4</title>
<path fill="none" stroke="#63b8ff" d="M829.75,-66C821.63,-66 813.49,-66 805.63,-66"/>
<polygon fill="#63b8ff" stroke="#63b8ff" points="829.68,-69.5 839.68,-66 829.68,-62.5 829.68,-69.5"/>
</g>
<!-- Node5 -->
<g id="node5" class="node">
<title>Node5</title>
<g id="a_node5"><a xlink:href="a02039.html#a7ff58bf1a80018148bed860667ffca07" target="_top" xlink:title="Serializes the JSON value j to BSON and associates it with the key name.">
<polygon fill="white" stroke="#666666" points="643.75,-82 505.5,-82 505.5,-50 643.75,-50 643.75,-82"/>
<text xml:space="preserve" text-anchor="start" x="513.5" y="-68.5" font-family="Helvetica,sans-Serif" font-size="10.00">nlohmann::detail::binary</text>
<text xml:space="preserve" text-anchor="middle" x="574.62" y="-56.5" font-family="Helvetica,sans-Serif" font-size="10.00">_writer::write_bson_element</text>
</a>
</g>
</g>
<!-- Node4&#45;&gt;Node5 -->
<g id="edge5" class="edge">
<title>Node4&#45;&gt;Node5</title>
<path fill="none" stroke="#63b8ff" d="M667.8,-59.29C659.9,-59.22 651.89,-59.24 644.05,-59.34"/>
<polygon fill="#63b8ff" stroke="#63b8ff" points="667.7,-62.79 677.75,-59.42 667.8,-55.79 667.7,-62.79"/>
</g>
<!-- Node5&#45;&gt;Node4 -->
<g id="edge6" class="edge">
<title>Node5&#45;&gt;Node4</title>
<path fill="none" stroke="#63b8ff" d="M655.35,-72.75C663.38,-72.77 671.45,-72.71 679.26,-72.56"/>
<polygon fill="#63b8ff" stroke="#63b8ff" points="655.59,-69.25 645.56,-72.67 655.54,-76.25 655.59,-69.25"/>
</g>
<!-- Node5&#45;&gt;Node6 -->
<g id="edge7" class="edge">
<title>Node5&#45;&gt;Node6</title>
<path fill="none" stroke="#63b8ff" d="M500.12,-46.76C489.56,-44 478.77,-41.18 468.44,-38.47"/>
<polygon fill="#63b8ff" stroke="#63b8ff" points="499,-50.09 509.56,-49.23 500.77,-43.31 499,-50.09"/>
</g>
<!-- Node7 -->
<g id="node7" class="node">
<title>Node7</title>
<g id="a_node7"><a xlink:href="a02039.html#a9ffc566db5219b473762462234b47db9" target="_top" xlink:title=" ">
<polygon fill="white" stroke="#666666" points="284.75,-32 165.25,-32 165.25,0 284.75,0 284.75,-32"/>
<text xml:space="preserve" text-anchor="start" x="173.25" y="-18.5" font-family="Helvetica,sans-Serif" font-size="10.00">nlohmann::detail::binary</text>
<text xml:space="preserve" text-anchor="middle" x="225" y="-6.5" font-family="Helvetica,sans-Serif" font-size="10.00">_writer::write_bson</text>
</a>
</g>
</g>
<!-- Node6&#45;&gt;Node7 -->
<g id="edge8" class="edge">
<title>Node6&#45;&gt;Node7</title>
<path fill="none" stroke="#63b8ff" d="M327.83,-19.44C313.54,-18.96 298.79,-18.46 285.1,-18"/>
<polygon fill="#63b8ff" stroke="#63b8ff" points="327.54,-22.93 337.65,-19.77 327.78,-15.94 327.54,-22.93"/>
</g>
<!-- Node9 -->
<g id="node9" class="node">
<title>Node9</title>
<g id="a_node9"><a xlink:href="a02039.html#a6231302930265eccb3f56c378f7b0661" target="_top" xlink:title="Writes a BSON element with key name and object value.">
<polygon fill="white" stroke="#666666" points="303.5,-82 146.5,-82 146.5,-50 303.5,-50 303.5,-82"/>
<text xml:space="preserve" text-anchor="start" x="154.5" y="-68.5" font-family="Helvetica,sans-Serif" font-size="10.00">nlohmann::detail::binary</text>
<text xml:space="preserve" text-anchor="middle" x="225" y="-56.5" font-family="Helvetica,sans-Serif" font-size="10.00">_writer::write_bson_object_entry</text>
</a>
</g>
</g>
<!-- Node6&#45;&gt;Node9 -->
<g id="edge10" class="edge">
<title>Node6&#45;&gt;Node9</title>
<path fill="none" stroke="#63b8ff" d="M328.35,-40.63C316.44,-43.58 304.19,-46.62 292.5,-49.52"/>
<polygon fill="#63b8ff" stroke="#63b8ff" points="328.83,-44.11 337.7,-38.31 327.15,-37.32 328.83,-44.11"/>
</g>
<!-- Node8 -->
<g id="node8" class="node">
<title>Node8</title>
<g id="a_node8"><a xlink:href="a01659.html#a668e4c2ad9808218a25879700f4aef2b" target="_top" xlink:title="Serializes the given JSON object j to BSON and forwards the corresponding BSON&#45;representation to the ...">
<polygon fill="white" stroke="#666666" points="110.5,-32 0,-32 0,0 110.5,0 110.5,-32"/>
<text xml:space="preserve" text-anchor="start" x="8" y="-18.5" font-family="Helvetica,sans-Serif" font-size="10.00">nlohmann::basic_json</text>
<text xml:space="preserve" text-anchor="middle" x="55.25" y="-6.5" font-family="Helvetica,sans-Serif" font-size="10.00">::to_bson</text>
</a>
</g>
</g>
<!-- Node7&#45;&gt;Node8 -->
<g id="edge9" class="edge">
<title>Node7&#45;&gt;Node8</title>
<path fill="none" stroke="#63b8ff" d="M153.58,-16C139.33,-16 124.54,-16 110.93,-16"/>
<polygon fill="#63b8ff" stroke="#63b8ff" points="153.34,-19.5 163.34,-16 153.34,-12.5 153.34,-19.5"/>
</g>
<!-- Node9&#45;&gt;Node5 -->
<g id="edge11" class="edge">
<title>Node9&#45;&gt;Node5</title>
<path fill="none" stroke="#63b8ff" d="M315.04,-66C374.28,-66 450.93,-66 505.36,-66"/>
<polygon fill="#63b8ff" stroke="#63b8ff" points="315.32,-62.5 305.32,-66 315.32,-69.5 315.32,-62.5"/>
</g>
</g>
</svg>
