<?xml version="1.0" encoding="UTF-8" standalone="no"?>
<!DOCTYPE svg PUBLIC "-//W3C//DTD SVG 1.1//EN"
 "http://www.w3.org/Graphics/SVG/1.1/DTD/svg11.dtd">
<!-- Generated by graphviz version 13.1.2 (20250808.2320)
 -->
<!-- Title: Cpp/spatialstructures/src/node.cpp Pages: 1 -->
<svg width="276pt" height="152pt"
 viewBox="0.00 0.00 276.00 152.00" xmlns="http://www.w3.org/2000/svg" xmlns:xlink="http://www.w3.org/1999/xlink">
<g id="graph0" class="graph" transform="scale(1 1) rotate(0) translate(4 148)">
<title>Cpp/spatialstructures/src/node.cpp</title>
<!-- Node1 -->
<g id="node1" class="node">
<title>Node1</title>
<g id="a_node1"><a xlink:title="Contains implementation for the Node structure.">
<polygon fill="#999999" stroke="#666666" points="205.38,-144 96.38,-144 96.38,-112 205.38,-112 205.38,-144"/>
<text xml:space="preserve" text-anchor="start" x="104.38" y="-130.5" font-family="Helvetica,sans-Serif" font-size="10.00">Cpp/spatialstructures</text>
<text xml:space="preserve" text-anchor="middle" x="150.88" y="-118.5" font-family="Helvetica,sans-Serif" font-size="10.00">/src/node.cpp</text>
</a>
</g>
</g>
<!-- Node2 -->
<g id="node2" class="node">
<title>Node2</title>
<g id="a_node2"><a xlink:href="a00275.html" target="_top" xlink:title="Contains definitions for the Node structure.">
<polygon fill="white" stroke="#666666" points="68.5,-76 23.25,-76 23.25,-56 68.5,-56 68.5,-76"/>
<text xml:space="preserve" text-anchor="middle" x="45.88" y="-62.5" font-family="Helvetica,sans-Serif" font-size="10.00">node.h</text>
</a>
</g>
</g>
<!-- Node1&#45;&gt;Node2 -->
<g id="edge1" class="edge">
<title>Node1&#45;&gt;Node2</title>
<path fill="none" stroke="#63b8ff" d="M123.83,-111.55C107.88,-102.43 87.8,-90.96 72.01,-81.93"/>
<polygon fill="#63b8ff" stroke="#63b8ff" points="74.07,-79.08 63.65,-77.16 70.6,-85.16 74.07,-79.08"/>
</g>
<!-- Node5 -->
<g id="node5" class="node">
<title>Node5</title>
<g id="a_node5"><a xlink:href="a00251.html" target="_top" xlink:title="Contains definitions for the HF::SpatialStructures namespace.">
<polygon fill="white" stroke="#666666" points="153.38,-76 86.38,-76 86.38,-56 153.38,-56 153.38,-76"/>
<text xml:space="preserve" text-anchor="middle" x="119.88" y="-62.5" font-family="Helvetica,sans-Serif" font-size="10.00">constants.h</text>
</a>
</g>
</g>
<!-- Node1&#45;&gt;Node5 -->
<g id="edge4" class="edge">
<title>Node1&#45;&gt;Node5</title>
<path fill="none" stroke="#63b8ff" d="M142.89,-111.55C138.95,-103.91 134.14,-94.61 129.94,-86.49"/>
<polygon fill="#63b8ff" stroke="#63b8ff" points="133.13,-85.03 125.43,-77.75 126.91,-88.24 133.13,-85.03"/>
</g>
<!-- Node6 -->
<g id="node6" class="node">
<title>Node6</title>
<g id="a_node6"><a xlink:title=" ">
<polygon fill="#e0e0e0" stroke="#999999" points="185.38,-20 142.38,-20 142.38,0 185.38,0 185.38,-20"/>
<text xml:space="preserve" text-anchor="middle" x="163.88" y="-6.5" font-family="Helvetica,sans-Serif" font-size="10.00">cmath</text>
</a>
</g>
</g>
<!-- Node1&#45;&gt;Node6 -->
<g id="edge7" class="edge">
<title>Node1&#45;&gt;Node6</title>
<path fill="none" stroke="#63b8ff" d="M155.43,-111.53C158.16,-101.5 161.38,-88.1 162.88,-76 164.71,-61.22 164.91,-44.4 164.69,-31.57"/>
<polygon fill="#63b8ff" stroke="#63b8ff" points="168.19,-31.71 164.4,-21.81 161.2,-31.91 168.19,-31.71"/>
</g>
<!-- Node7 -->
<g id="node7" class="node">
<title>Node7</title>
<g id="a_node7"><a xlink:title=" ">
<polygon fill="#e0e0e0" stroke="#999999" points="267.88,-76 209.88,-76 209.88,-56 267.88,-56 267.88,-76"/>
<text xml:space="preserve" text-anchor="middle" x="238.88" y="-62.5" font-family="Helvetica,sans-Serif" font-size="10.00">exception</text>
</a>
</g>
</g>
<!-- Node1&#45;&gt;Node7 -->
<g id="edge6" class="edge">
<title>Node1&#45;&gt;Node7</title>
<path fill="none" stroke="#63b8ff" d="M173.54,-111.55C186.52,-102.69 202.78,-91.61 215.83,-82.71"/>
<polygon fill="#63b8ff" stroke="#63b8ff" points="217.54,-85.79 223.83,-77.26 213.59,-80 217.54,-85.79"/>
</g>
<!-- Node3 -->
<g id="node3" class="node">
<title>Node3</title>
<g id="a_node3"><a xlink:title=" ">
<polygon fill="#e0e0e0" stroke="#999999" points="37.75,-20 0,-20 0,0 37.75,0 37.75,-20"/>
<text xml:space="preserve" text-anchor="middle" x="18.88" y="-6.5" font-family="Helvetica,sans-Serif" font-size="10.00">array</text>
</a>
</g>
</g>
<!-- Node2&#45;&gt;Node3 -->
<g id="edge2" class="edge">
<title>Node2&#45;&gt;Node3</title>
<path fill="none" stroke="#63b8ff" d="M41.17,-55.59C37.73,-48.7 32.93,-39.1 28.66,-30.57"/>
<polygon fill="#63b8ff" stroke="#63b8ff" points="31.8,-29.03 24.2,-21.65 25.54,-32.16 31.8,-29.03"/>
</g>
<!-- Node4 -->
<g id="node4" class="node">
<title>Node4</title>
<g id="a_node4"><a xlink:title=" ">
<polygon fill="#e0e0e0" stroke="#999999" points="107.5,-20 56.25,-20 56.25,0 107.5,0 107.5,-20"/>
<text xml:space="preserve" text-anchor="middle" x="81.88" y="-6.5" font-family="Helvetica,sans-Serif" font-size="10.00">ostream</text>
</a>
</g>
</g>
<!-- Node2&#45;&gt;Node4 -->
<g id="edge3" class="edge">
<title>Node2&#45;&gt;Node4</title>
<path fill="none" stroke="#63b8ff" d="M52.15,-55.59C56.89,-48.47 63.57,-38.45 69.4,-29.72"/>
<polygon fill="#63b8ff" stroke="#63b8ff" points="72.2,-31.82 74.84,-21.56 66.38,-27.94 72.2,-31.82"/>
</g>
<!-- Node5&#45;&gt;Node6 -->
<g id="edge5" class="edge">
<title>Node5&#45;&gt;Node6</title>
<path fill="none" stroke="#63b8ff" d="M127.54,-55.59C133.47,-48.32 141.86,-38.02 149.09,-29.15"/>
<polygon fill="#63b8ff" stroke="#63b8ff" points="151.74,-31.43 155.34,-21.47 146.31,-27.01 151.74,-31.43"/>
</g>
</g>
</svg>
