<?xml version="1.0" encoding="UTF-8" standalone="no"?>
<!DOCTYPE svg PUBLIC "-//W3C//DTD SVG 1.1//EN"
 "http://www.w3.org/Graphics/SVG/1.1/DTD/svg11.dtd">
<!-- Generated by graphviz version 13.1.2 (20250808.2320)
 -->
<!-- Title: Cpp Pages: 1 -->
<svg width="450pt" height="228pt"
 viewBox="0.00 0.00 450.00 228.00" xmlns="http://www.w3.org/2000/svg" xmlns:xlink="http://www.w3.org/1999/xlink">
<g id="graph0" class="graph" transform="scale(1 1) rotate(0) translate(4 224)">
<title>Cpp</title>
<g id="clust1" class="cluster">
<title>clusterdir_882abde7eca0231e2bae1ceefe5e858a</title>
<g id="a_clust1"><a xlink:href="dir_882abde7eca0231e2bae1ceefe5e858a.html" target="_top">
<polygon fill="#edf0f7" stroke="#404040" stroke-width="2" points="8,-8 8,-212 372,-212 372,-8 8,-8"/>
</a>
</g>
</g>
<!-- dir_882abde7eca0231e2bae1ceefe5e858a -->
<g id="node1" class="node">
<title>dir_882abde7eca0231e2bae1ceefe5e858a</title>
<text xml:space="preserve" text-anchor="middle" x="33" y="-190.5" font-family="Helvetica,sans-Serif" font-size="10.00">Cpp</text>
</g>
<!-- dir_a6a5abadf54e8736d34f0c270b4b3bd4 -->
<g id="node2" class="node">
<title>dir_a6a5abadf54e8736d34f0c270b4b3bd4</title>
<g id="a_node2"><a xlink:href="dir_a6a5abadf54e8736d34f0c270b4b3bd4.html" target="_top" xlink:title="analysismethods">
<polygon fill="#a2b4d6" stroke="#404040" points="157.75,-204 68.25,-204 68.25,-184 157.75,-184 157.75,-204"/>
<text xml:space="preserve" text-anchor="middle" x="113" y="-190.5" font-family="Helvetica,sans-Serif" font-size="10.00">analysismethods</text>
</a>
</g>
</g>
<!-- dir_1061d284018fbd45bbbfc991ca095c8e -->
<g id="node7" class="node">
<title>dir_1061d284018fbd45bbbfc991ca095c8e</title>
<g id="a_node7"><a xlink:href="dir_1061d284018fbd45bbbfc991ca095c8e.html" target="_top" xlink:title="raytracer">
<polygon fill="#a2b4d6" stroke="#404040" points="147.12,-148 92.88,-148 92.88,-128 147.12,-128 147.12,-148"/>
<text xml:space="preserve" text-anchor="middle" x="120" y="-134.5" font-family="Helvetica,sans-Serif" font-size="10.00">raytracer</text>
</a>
</g>
</g>
<!-- dir_a6a5abadf54e8736d34f0c270b4b3bd4&#45;&gt;dir_1061d284018fbd45bbbfc991ca095c8e -->
<g id="edge2" class="edge">
<title>dir_a6a5abadf54e8736d34f0c270b4b3bd4&#45;&gt;dir_1061d284018fbd45bbbfc991ca095c8e</title>
<path fill="none" stroke="#63b8ff" d="M114.22,-183.59C115.08,-176.93 116.27,-167.75 117.35,-159.44"/>
<polygon fill="#63b8ff" stroke="#63b8ff" points="120.79,-160.17 118.6,-149.8 113.84,-159.27 120.79,-160.17"/>
<g id="a_edge2&#45;headlabel"><a xlink:href="dir_000000_000008.html" target="_top" xlink:title="7">
<text xml:space="preserve" text-anchor="middle" x="123.33" y="-159.1" font-family="Helvetica,sans-Serif" font-size="10.00" fill="#63b8ff">7</text>
</a>
</g>
</g>
<!-- dir_66731bdf74d76a38b2c500ac62cfdf48 -->
<g id="node9" class="node">
<title>dir_66731bdf74d76a38b2c500ac62cfdf48</title>
<g id="a_node9"><a xlink:href="dir_66731bdf74d76a38b2c500ac62cfdf48.html" target="_top" xlink:title="spatialstructures">
<polygon fill="#a2b4d6" stroke="#404040" points="299,-148 211,-148 211,-128 299,-128 299,-148"/>
<text xml:space="preserve" text-anchor="middle" x="255" y="-134.5" font-family="Helvetica,sans-Serif" font-size="10.00">spatialstructures</text>
</a>
</g>
</g>
<!-- dir_a6a5abadf54e8736d34f0c270b4b3bd4&#45;&gt;dir_66731bdf74d76a38b2c500ac62cfdf48 -->
<g id="edge1" class="edge">
<title>dir_a6a5abadf54e8736d34f0c270b4b3bd4&#45;&gt;dir_66731bdf74d76a38b2c500ac62cfdf48</title>
<path fill="none" stroke="#63b8ff" d="M137.73,-183.59C160.3,-175.01 193.91,-162.23 219.37,-152.55"/>
<polygon fill="#63b8ff" stroke="#63b8ff" points="220.55,-155.84 228.66,-149.02 218.07,-149.3 220.55,-155.84"/>
<g id="a_edge1&#45;headlabel"><a xlink:href="dir_000000_000011.html" target="_top" xlink:title="14">
<text xml:space="preserve" text-anchor="middle" x="219.62" y="-155.74" font-family="Helvetica,sans-Serif" font-size="10.00" fill="#63b8ff">14</text>
</a>
</g>
</g>
<!-- dir_c7be9ada14d58aa1fdadc5ff6104682e -->
<g id="node3" class="node">
<title>dir_c7be9ada14d58aa1fdadc5ff6104682e</title>
<g id="a_node3"><a xlink:href="dir_c7be9ada14d58aa1fdadc5ff6104682e.html" target="_top" xlink:title="docs">
<polygon fill="#a2b4d6" stroke="#404040" points="212.5,-204 175.5,-204 175.5,-184 212.5,-184 212.5,-204"/>
<text xml:space="preserve" text-anchor="middle" x="194" y="-190.5" font-family="Helvetica,sans-Serif" font-size="10.00">docs</text>
</a>
</g>
</g>
<!-- dir_7900dd791a76306ff53b19fea9f7cb39 -->
<g id="node4" class="node">
<title>dir_7900dd791a76306ff53b19fea9f7cb39</title>
<g id="a_node4"><a xlink:href="dir_7900dd791a76306ff53b19fea9f7cb39.html" target="_top" xlink:title="exceptions">
<polygon fill="#a2b4d6" stroke="#404040" points="198.62,-36 135.38,-36 135.38,-16 198.62,-16 198.62,-36"/>
<text xml:space="preserve" text-anchor="middle" x="167" y="-22.5" font-family="Helvetica,sans-Serif" font-size="10.00">exceptions</text>
</a>
</g>
</g>
<!-- dir_46f038d98c29b85ae873c4d3a30697d6 -->
<g id="node5" class="node">
<title>dir_46f038d98c29b85ae873c4d3a30697d6</title>
<g id="a_node5"><a xlink:href="dir_46f038d98c29b85ae873c4d3a30697d6.html" target="_top" xlink:title="objloader">
<polygon fill="#a2b4d6" stroke="#404040" points="194.5,-92 139.5,-92 139.5,-72 194.5,-72 194.5,-92"/>
<text xml:space="preserve" text-anchor="middle" x="167" y="-78.5" font-family="Helvetica,sans-Serif" font-size="10.00">objloader</text>
</a>
</g>
</g>
<!-- dir_46f038d98c29b85ae873c4d3a30697d6&#45;&gt;dir_7900dd791a76306ff53b19fea9f7cb39 -->
<g id="edge3" class="edge">
<title>dir_46f038d98c29b85ae873c4d3a30697d6&#45;&gt;dir_7900dd791a76306ff53b19fea9f7cb39</title>
<path fill="none" stroke="#63b8ff" d="M167,-71.59C167,-65.01 167,-55.96 167,-47.73"/>
<polygon fill="#63b8ff" stroke="#63b8ff" points="170.5,-47.81 167,-37.81 163.5,-47.81 170.5,-47.81"/>
<g id="a_edge3&#45;headlabel"><a xlink:href="dir_000006_000004.html" target="_top" xlink:title="2">
<text xml:space="preserve" text-anchor="middle" x="173.34" y="-46.39" font-family="Helvetica,sans-Serif" font-size="10.00" fill="#63b8ff">2</text>
</a>
</g>
</g>
<!-- dir_0e02576f053bf9c676481922c38373d1 -->
<g id="node6" class="node">
<title>dir_0e02576f053bf9c676481922c38373d1</title>
<g id="a_node6"><a xlink:href="dir_0e02576f053bf9c676481922c38373d1.html" target="_top" xlink:title="pathfinding">
<polygon fill="#a2b4d6" stroke="#404040" points="293.62,-204 230.38,-204 230.38,-184 293.62,-184 293.62,-204"/>
<text xml:space="preserve" text-anchor="middle" x="262" y="-190.5" font-family="Helvetica,sans-Serif" font-size="10.00">pathfinding</text>
</a>
</g>
</g>
<!-- dir_0e02576f053bf9c676481922c38373d1&#45;&gt;dir_66731bdf74d76a38b2c500ac62cfdf48 -->
<g id="edge4" class="edge">
<title>dir_0e02576f053bf9c676481922c38373d1&#45;&gt;dir_66731bdf74d76a38b2c500ac62cfdf48</title>
<path fill="none" stroke="#63b8ff" d="M260.78,-183.59C259.92,-176.93 258.73,-167.75 257.65,-159.44"/>
<polygon fill="#63b8ff" stroke="#63b8ff" points="261.16,-159.27 256.4,-149.8 254.21,-160.17 261.16,-159.27"/>
<g id="a_edge4&#45;headlabel"><a xlink:href="dir_000007_000011.html" target="_top" xlink:title="4">
<text xml:space="preserve" text-anchor="middle" x="264.24" y="-157.47" font-family="Helvetica,sans-Serif" font-size="10.00" fill="#63b8ff">4</text>
</a>
</g>
</g>
<!-- dir_1061d284018fbd45bbbfc991ca095c8e&#45;&gt;dir_7900dd791a76306ff53b19fea9f7cb39 -->
<g id="edge6" class="edge">
<title>dir_1061d284018fbd45bbbfc991ca095c8e&#45;&gt;dir_7900dd791a76306ff53b19fea9f7cb39</title>
<path fill="none" stroke="#63b8ff" d="M120.12,-127.75C120.61,-114.75 122.67,-90.59 131,-72 135.47,-62.02 142.68,-52.37 149.48,-44.57"/>
<polygon fill="#63b8ff" stroke="#63b8ff" points="151.82,-47.2 156.05,-37.48 146.69,-42.44 151.82,-47.2"/>
<g id="a_edge6&#45;headlabel"><a xlink:href="dir_000008_000004.html" target="_top" xlink:title="1">
<text xml:space="preserve" text-anchor="middle" x="152.49" y="-47.15" font-family="Helvetica,sans-Serif" font-size="10.00" fill="#63b8ff">1</text>
</a>
</g>
</g>
<!-- dir_1061d284018fbd45bbbfc991ca095c8e&#45;&gt;dir_46f038d98c29b85ae873c4d3a30697d6 -->
<g id="edge5" class="edge">
<title>dir_1061d284018fbd45bbbfc991ca095c8e&#45;&gt;dir_46f038d98c29b85ae873c4d3a30697d6</title>
<path fill="none" stroke="#63b8ff" d="M128.19,-127.59C134.59,-120.24 143.68,-109.8 151.45,-100.87"/>
<polygon fill="#63b8ff" stroke="#63b8ff" points="153.99,-103.28 157.91,-93.44 148.71,-98.69 153.99,-103.28"/>
<g id="a_edge5&#45;headlabel"><a xlink:href="dir_000008_000006.html" target="_top" xlink:title="2">
<text xml:space="preserve" text-anchor="middle" x="154.76" y="-103.21" font-family="Helvetica,sans-Serif" font-size="10.00" fill="#63b8ff">2</text>
</a>
</g>
</g>
<!-- dir_f07d1d5eed6d32fd9119c46008b53704 -->
<g id="node8" class="node">
<title>dir_f07d1d5eed6d32fd9119c46008b53704</title>
<g id="a_node8"><a xlink:href="dir_f07d1d5eed6d32fd9119c46008b53704.html" target="_top" xlink:title="snippets">
<polygon fill="#a2b4d6" stroke="#404040" points="364.38,-204 311.62,-204 311.62,-184 364.38,-184 364.38,-204"/>
<text xml:space="preserve" text-anchor="middle" x="338" y="-190.5" font-family="Helvetica,sans-Serif" font-size="10.00">snippets</text>
</a>
</g>
</g>
<!-- dir_66731bdf74d76a38b2c500ac62cfdf48&#45;&gt;dir_7900dd791a76306ff53b19fea9f7cb39 -->
<g id="edge8" class="edge">
<title>dir_66731bdf74d76a38b2c500ac62cfdf48&#45;&gt;dir_7900dd791a76306ff53b19fea9f7cb39</title>
<path fill="none" stroke="#63b8ff" d="M247.8,-127.69C237.99,-115.02 219.81,-91.68 204,-72 196.81,-63.05 188.71,-53.18 181.94,-44.97"/>
<polygon fill="#63b8ff" stroke="#63b8ff" points="184.76,-42.89 175.68,-37.42 179.37,-47.36 184.76,-42.89"/>
<g id="a_edge8&#45;headlabel"><a xlink:href="dir_000011_000004.html" target="_top" xlink:title="2">
<text xml:space="preserve" text-anchor="middle" x="188.27" y="-39.18" font-family="Helvetica,sans-Serif" font-size="10.00" fill="#63b8ff">2</text>
</a>
</g>
</g>
<!-- dir_37600e7aa46d6eb08a97d98a1c09ffb1 -->
<g id="node10" class="node">
<title>dir_37600e7aa46d6eb08a97d98a1c09ffb1</title>
<g id="a_node10"><a xlink:href="dir_37600e7aa46d6eb08a97d98a1c09ffb1.html" target="_top" xlink:title="Cinterface">
<polygon fill="#edf0f7" stroke="#404040" points="441.5,-92 380.5,-92 380.5,-72 441.5,-72 441.5,-92"/>
<text xml:space="preserve" text-anchor="middle" x="411" y="-78.5" font-family="Helvetica,sans-Serif" font-size="10.00">Cinterface</text>
</a>
</g>
</g>
<!-- dir_66731bdf74d76a38b2c500ac62cfdf48&#45;&gt;dir_37600e7aa46d6eb08a97d98a1c09ffb1 -->
<g id="edge7" class="edge">
<title>dir_66731bdf74d76a38b2c500ac62cfdf48&#45;&gt;dir_37600e7aa46d6eb08a97d98a1c09ffb1</title>
<path fill="none" stroke="#63b8ff" d="M282.17,-127.59C307.3,-118.9 344.88,-105.89 372.98,-96.16"/>
<polygon fill="#63b8ff" stroke="#63b8ff" points="373.88,-99.55 382.18,-92.97 371.59,-92.94 373.88,-99.55"/>
<g id="a_edge7&#45;headlabel"><a xlink:href="dir_000011_000001.html" target="_top" xlink:title="1">
<text xml:space="preserve" text-anchor="middle" x="372.84" y="-99.42" font-family="Helvetica,sans-Serif" font-size="10.00" fill="#63b8ff">1</text>
</a>
</g>
</g>
</g>
</svg>
