<?xml version="1.0" encoding="UTF-8" standalone="no"?>
<!DOCTYPE svg PUBLIC "-//W3C//DTD SVG 1.1//EN"
 "http://www.w3.org/Graphics/SVG/1.1/DTD/svg11.dtd">
<!-- Generated by graphviz version 13.1.2 (20250808.2320)
 -->
<!-- Title: Graphical Class Hierarchy Pages: 1 -->
<svg width="489pt" height="386pt"
 viewBox="0.00 0.00 489.00 386.00" xmlns="http://www.w3.org/2000/svg" xmlns:xlink="http://www.w3.org/1999/xlink">
<g id="graph0" class="graph" transform="scale(1 1) rotate(0) translate(4 382)">
<title>Graphical Class Hierarchy</title>
<!-- Node0 -->
<g id="node1" class="node">
<title>Node0</title>
<g id="a_node1"><a xlink:title=" ">
<polygon fill="#e0e0e0" stroke="#999999" points="76,-223 0,-223 0,-203 76,-203 76,-223"/>
<text xml:space="preserve" text-anchor="middle" x="38" y="-209.5" font-family="Helvetica,sans-Serif" font-size="10.00">std::true_type</text>
</a>
</g>
</g>
<!-- Node1 -->
<g id="node2" class="node">
<title>Node1</title>
<g id="a_node2"><a xlink:href="a01835.html" target="_top" xlink:title=" ">
<polygon fill="white" stroke="#666666" points="281,-378 138.25,-378 138.25,-334 281,-334 281,-378"/>
<text xml:space="preserve" text-anchor="start" x="146.25" y="-364.5" font-family="Helvetica,sans-Serif" font-size="10.00">nlohmann::detail::conjunction</text>
<text xml:space="preserve" text-anchor="start" x="146.25" y="-352.5" font-family="Helvetica,sans-Serif" font-size="10.00">&lt; std::is_constructible&lt;</text>
<text xml:space="preserve" text-anchor="middle" x="209.62" y="-340.5" font-family="Helvetica,sans-Serif" font-size="10.00"> T1, Args &gt;... &gt;</text>
</a>
</g>
</g>
<!-- Node0&#45;&gt;Node1 -->
<g id="edge1" class="edge">
<title>Node0&#45;&gt;Node1</title>
<path fill="none" stroke="#63b8ff" d="M47.38,-233.91C58.49,-259.07 80.46,-300.93 112,-325 119.84,-330.98 128.88,-335.83 138.21,-339.76"/>
<polygon fill="#63b8ff" stroke="#63b8ff" points="50.62,-232.59 43.51,-224.74 44.17,-235.32 50.62,-232.59"/>
</g>
<!-- Node3 -->
<g id="node4" class="node">
<title>Node3</title>
<g id="a_node4"><a xlink:href="a01835.html" target="_top" xlink:title=" ">
<polygon fill="white" stroke="#666666" points="281,-316 138.25,-316 138.25,-284 281,-284 281,-316"/>
<text xml:space="preserve" text-anchor="start" x="146.25" y="-302.5" font-family="Helvetica,sans-Serif" font-size="10.00">nlohmann::detail::conjunction</text>
<text xml:space="preserve" text-anchor="middle" x="209.62" y="-290.5" font-family="Helvetica,sans-Serif" font-size="10.00">&lt;... &gt;</text>
</a>
</g>
</g>
<!-- Node0&#45;&gt;Node3 -->
<g id="edge3" class="edge">
<title>Node0&#45;&gt;Node3</title>
<path fill="none" stroke="#63b8ff" d="M55.99,-231.38C69.81,-245.29 90.49,-263.84 112,-275 120.07,-279.19 128.9,-282.71 137.83,-285.67"/>
<polygon fill="#63b8ff" stroke="#63b8ff" points="58.83,-229.29 49.37,-224.52 53.79,-234.15 58.83,-229.29"/>
</g>
<!-- Node4 -->
<g id="node5" class="node">
<title>Node4</title>
<g id="a_node5"><a xlink:href="a01675.html" target="_top" xlink:title=" ">
<polygon fill="white" stroke="#666666" points="276.88,-266 142.38,-266 142.38,-222 276.88,-222 276.88,-266"/>
<text xml:space="preserve" text-anchor="start" x="150.38" y="-252.5" font-family="Helvetica,sans-Serif" font-size="10.00">nlohmann::detail::is</text>
<text xml:space="preserve" text-anchor="start" x="150.38" y="-240.5" font-family="Helvetica,sans-Serif" font-size="10.00">_basic_json&lt; NLOHMANN</text>
<text xml:space="preserve" text-anchor="middle" x="209.62" y="-228.5" font-family="Helvetica,sans-Serif" font-size="10.00">_BASIC_JSON_TPL &gt;</text>
</a>
</g>
</g>
<!-- Node0&#45;&gt;Node4 -->
<g id="edge4" class="edge">
<title>Node0&#45;&gt;Node4</title>
<path fill="none" stroke="#63b8ff" d="M87.07,-221.78C104.16,-224.91 123.73,-228.49 142.1,-231.84"/>
<polygon fill="#63b8ff" stroke="#63b8ff" points="88.18,-218.43 77.71,-220.08 86.92,-225.32 88.18,-218.43"/>
</g>
<!-- Node5 -->
<g id="node6" class="node">
<title>Node5</title>
<g id="a_node6"><a xlink:href="a01731.html" target="_top" xlink:title=" ">
<polygon fill="white" stroke="#666666" points="280.25,-204 139,-204 139,-160 280.25,-160 280.25,-204"/>
<text xml:space="preserve" text-anchor="start" x="147" y="-190.5" font-family="Helvetica,sans-Serif" font-size="10.00">nlohmann::detail::is</text>
<text xml:space="preserve" text-anchor="start" x="147" y="-178.5" font-family="Helvetica,sans-Serif" font-size="10.00">_complete_type&lt; T, decltype</text>
<text xml:space="preserve" text-anchor="middle" x="209.62" y="-166.5" font-family="Helvetica,sans-Serif" font-size="10.00">(void(sizeof(T)))&gt;</text>
</a>
</g>
</g>
<!-- Node0&#45;&gt;Node5 -->
<g id="edge5" class="edge">
<title>Node0&#45;&gt;Node5</title>
<path fill="none" stroke="#63b8ff" d="M87.43,-204.15C103.38,-201.23 121.46,-197.93 138.69,-194.78"/>
<polygon fill="#63b8ff" stroke="#63b8ff" points="86.92,-200.68 77.71,-205.92 88.18,-207.57 86.92,-200.68"/>
</g>
<!-- Node6 -->
<g id="node7" class="node">
<title>Node6</title>
<g id="a_node7"><a xlink:href="a01799.html" target="_top" xlink:title=" ">
<polygon fill="white" stroke="#666666" points="307.25,-142 112,-142 112,-50 307.25,-50 307.25,-142"/>
<text xml:space="preserve" text-anchor="start" x="120" y="-128.5" font-family="Helvetica,sans-Serif" font-size="10.00">nlohmann::detail::is</text>
<text xml:space="preserve" text-anchor="start" x="120" y="-116.5" font-family="Helvetica,sans-Serif" font-size="10.00">_constructible_array</text>
<text xml:space="preserve" text-anchor="start" x="120" y="-104.5" font-family="Helvetica,sans-Serif" font-size="10.00">_type_impl&lt; BasicJsonType,</text>
<text xml:space="preserve" text-anchor="start" x="120" y="-92.5" font-family="Helvetica,sans-Serif" font-size="10.00"> ConstructibleArrayType,</text>
<text xml:space="preserve" text-anchor="start" x="120" y="-80.5" font-family="Helvetica,sans-Serif" font-size="10.00"> enable_if_t&lt; std::is_same</text>
<text xml:space="preserve" text-anchor="start" x="120" y="-68.5" font-family="Helvetica,sans-Serif" font-size="10.00">&lt; ConstructibleArrayType, typename</text>
<text xml:space="preserve" text-anchor="middle" x="209.62" y="-56.5" font-family="Helvetica,sans-Serif" font-size="10.00"> BasicJsonType::value_type &gt;::value &gt; &gt;</text>
</a>
</g>
</g>
<!-- Node0&#45;&gt;Node6 -->
<g id="edge6" class="edge">
<title>Node0&#45;&gt;Node6</title>
<path fill="none" stroke="#63b8ff" d="M58.3,-194.87C72.57,-181.91 92.78,-164.45 112,-151 116.11,-148.12 120.38,-145.26 124.74,-142.44"/>
<polygon fill="#63b8ff" stroke="#63b8ff" points="55.95,-192.28 50.97,-201.63 60.69,-197.43 55.95,-192.28"/>
</g>
<!-- Node7 -->
<g id="node8" class="node">
<title>Node7</title>
<g id="a_node8"><a xlink:href="a01687.html" target="_top" xlink:title=" ">
<polygon fill="white" stroke="#666666" points="275.38,-32 143.88,-32 143.88,0 275.38,0 275.38,-32"/>
<text xml:space="preserve" text-anchor="start" x="151.88" y="-18.5" font-family="Helvetica,sans-Serif" font-size="10.00">nlohmann::detail::is</text>
<text xml:space="preserve" text-anchor="middle" x="209.62" y="-6.5" font-family="Helvetica,sans-Serif" font-size="10.00">_json_ref&lt; json_ref&lt; T &gt; &gt;</text>
</a>
</g>
</g>
<!-- Node0&#45;&gt;Node7 -->
<g id="edge7" class="edge">
<title>Node0&#45;&gt;Node7</title>
<path fill="none" stroke="#63b8ff" d="M41.95,-191.38C48.12,-154.79 65.84,-80.78 112,-41 120.99,-33.25 132.09,-27.86 143.52,-24.12"/>
<polygon fill="#63b8ff" stroke="#63b8ff" points="38.51,-190.73 40.45,-201.15 45.43,-191.79 38.51,-190.73"/>
</g>
<!-- Node2 -->
<g id="node3" class="node">
<title>Node2</title>
<g id="a_node3"><a xlink:href="a01851.html" target="_top" xlink:title=" ">
<polygon fill="white" stroke="#666666" points="480.75,-378 343.25,-378 343.25,-334 480.75,-334 480.75,-378"/>
<text xml:space="preserve" text-anchor="start" x="351.25" y="-364.5" font-family="Helvetica,sans-Serif" font-size="10.00">nlohmann::detail::is</text>
<text xml:space="preserve" text-anchor="start" x="351.25" y="-352.5" font-family="Helvetica,sans-Serif" font-size="10.00">_constructible_tuple</text>
<text xml:space="preserve" text-anchor="middle" x="412" y="-340.5" font-family="Helvetica,sans-Serif" font-size="10.00">&lt; T1, std::tuple&lt; Args... &gt; &gt;</text>
</a>
</g>
</g>
<!-- Node1&#45;&gt;Node2 -->
<g id="edge2" class="edge">
<title>Node1&#45;&gt;Node2</title>
<path fill="none" stroke="#63b8ff" d="M292.71,-356C309.43,-356 326.85,-356 343.01,-356"/>
<polygon fill="#63b8ff" stroke="#63b8ff" points="292.78,-352.5 282.78,-356 292.78,-359.5 292.78,-352.5"/>
</g>
</g>
</svg>
