<?xml version="1.0" encoding="UTF-8" standalone="no"?>
<!DOCTYPE svg PUBLIC "-//W3C//DTD SVG 1.1//EN"
 "http://www.w3.org/Graphics/SVG/1.1/DTD/svg11.dtd">
<!-- Generated by graphviz version 13.1.2 (20250808.2320)
 -->
<!-- Title: Graphical Class Hierarchy Pages: 1 -->
<svg width="526pt" height="1164pt"
 viewBox="0.00 0.00 526.00 1164.00" xmlns="http://www.w3.org/2000/svg" xmlns:xlink="http://www.w3.org/1999/xlink">
<g id="graph0" class="graph" transform="scale(1 1) rotate(0) translate(4 1160)">
<title>Graphical Class Hierarchy</title>
<!-- Node0 -->
<g id="node1" class="node">
<title>Node0</title>
<g id="a_node1"><a xlink:title=" ">
<polygon fill="#e0e0e0" stroke="#999999" points="80.5,-594 0,-594 0,-574 80.5,-574 80.5,-594"/>
<text xml:space="preserve" text-anchor="middle" x="40.25" y="-580.5" font-family="Helvetica,sans-Serif" font-size="10.00">std::false_type</text>
</a>
</g>
</g>
<!-- Node1 -->
<g id="node2" class="node">
<title>Node1</title>
<g id="a_node2"><a xlink:href="a01759.html" target="_top" xlink:title=" ">
<polygon fill="white" stroke="#666666" points="295.25,-1156 116.5,-1156 116.5,-1100 295.25,-1100 295.25,-1156"/>
<text xml:space="preserve" text-anchor="start" x="124.5" y="-1142.5" font-family="Helvetica,sans-Serif" font-size="10.00">nlohmann::detail::is</text>
<text xml:space="preserve" text-anchor="start" x="124.5" y="-1130.5" font-family="Helvetica,sans-Serif" font-size="10.00">_compatible_string_type</text>
<text xml:space="preserve" text-anchor="start" x="124.5" y="-1118.5" font-family="Helvetica,sans-Serif" font-size="10.00">_impl&lt; BasicJsonType, Constructible</text>
<text xml:space="preserve" text-anchor="middle" x="205.88" y="-1106.5" font-family="Helvetica,sans-Serif" font-size="10.00">StringType &gt;</text>
</a>
</g>
</g>
<!-- Node0&#45;&gt;Node1 -->
<g id="edge1" class="edge">
<title>Node0&#45;&gt;Node1</title>
<path fill="none" stroke="#63b8ff" d="M41.71,-605.87C43.95,-692.88 56.24,-1013.49 116.5,-1091 118.95,-1094.15 121.72,-1097.04 124.72,-1099.68"/>
<polygon fill="#63b8ff" stroke="#63b8ff" points="45.21,-605.81 41.48,-595.9 38.21,-605.98 45.21,-605.81"/>
</g>
<!-- Node3 -->
<g id="node4" class="node">
<title>Node3</title>
<g id="a_node4"><a xlink:href="a01691.html" target="_top" xlink:title=" ">
<polygon fill="white" stroke="#666666" points="277.25,-1082 134.5,-1082 134.5,-1038 277.25,-1038 277.25,-1082"/>
<text xml:space="preserve" text-anchor="start" x="142.5" y="-1068.5" font-family="Helvetica,sans-Serif" font-size="10.00">nlohmann::detail::has</text>
<text xml:space="preserve" text-anchor="start" x="142.5" y="-1056.5" font-family="Helvetica,sans-Serif" font-size="10.00">_from_json&lt; BasicJsonType,</text>
<text xml:space="preserve" text-anchor="middle" x="205.88" y="-1044.5" font-family="Helvetica,sans-Serif" font-size="10.00"> T, typename &gt;</text>
</a>
</g>
</g>
<!-- Node0&#45;&gt;Node3 -->
<g id="edge3" class="edge">
<title>Node0&#45;&gt;Node3</title>
<path fill="none" stroke="#63b8ff" d="M42.08,-605.81C45.54,-686.04 61.36,-963.6 116.5,-1029 121.43,-1034.84 127.52,-1039.58 134.19,-1043.43"/>
<polygon fill="#63b8ff" stroke="#63b8ff" points="45.57,-605.67 41.67,-595.82 38.58,-605.96 45.57,-605.67"/>
</g>
<!-- Node4 -->
<g id="node5" class="node">
<title>Node4</title>
<g id="a_node5"><a xlink:href="a01703.html" target="_top" xlink:title=" ">
<polygon fill="white" stroke="#666666" points="285.88,-1020 125.88,-1020 125.88,-976 285.88,-976 285.88,-1020"/>
<text xml:space="preserve" text-anchor="start" x="133.88" y="-1006.5" font-family="Helvetica,sans-Serif" font-size="10.00">nlohmann::detail::has</text>
<text xml:space="preserve" text-anchor="start" x="133.88" y="-994.5" font-family="Helvetica,sans-Serif" font-size="10.00">_non_default_from_json</text>
<text xml:space="preserve" text-anchor="middle" x="205.88" y="-982.5" font-family="Helvetica,sans-Serif" font-size="10.00">&lt; BasicJsonType, T, typename &gt;</text>
</a>
</g>
</g>
<!-- Node0&#45;&gt;Node4 -->
<g id="edge4" class="edge">
<title>Node0&#45;&gt;Node4</title>
<path fill="none" stroke="#63b8ff" d="M42.71,-605.52C48.04,-678.01 68.69,-911.79 116.5,-967 119.27,-970.2 122.38,-973.06 125.75,-975.63"/>
<polygon fill="#63b8ff" stroke="#63b8ff" points="46.22,-605.52 42.02,-595.79 39.24,-606.02 46.22,-605.52"/>
</g>
<!-- Node5 -->
<g id="node6" class="node">
<title>Node5</title>
<g id="a_node6"><a xlink:href="a01711.html" target="_top" xlink:title=" ">
<polygon fill="white" stroke="#666666" points="271.62,-958 140.12,-958 140.12,-914 271.62,-914 271.62,-958"/>
<text xml:space="preserve" text-anchor="start" x="148.12" y="-944.5" font-family="Helvetica,sans-Serif" font-size="10.00">nlohmann::detail::has</text>
<text xml:space="preserve" text-anchor="start" x="148.12" y="-932.5" font-family="Helvetica,sans-Serif" font-size="10.00">_to_json&lt; BasicJsonType,</text>
<text xml:space="preserve" text-anchor="middle" x="205.88" y="-920.5" font-family="Helvetica,sans-Serif" font-size="10.00"> T, typename &gt;</text>
</a>
</g>
</g>
<!-- Node0&#45;&gt;Node5 -->
<g id="edge5" class="edge">
<title>Node0&#45;&gt;Node5</title>
<path fill="none" stroke="#63b8ff" d="M43.57,-605.3C50.99,-669.57 75.98,-859.89 116.5,-905 122.91,-912.14 131.06,-917.63 139.81,-921.86"/>
<polygon fill="#63b8ff" stroke="#63b8ff" points="47.09,-605.26 42.5,-595.71 40.14,-606.04 47.09,-605.26"/>
</g>
<!-- Node6 -->
<g id="node7" class="node">
<title>Node6</title>
<g id="a_node7"><a xlink:href="a01671.html" target="_top" xlink:title=" ">
<polygon fill="white" stroke="#666666" points="270.12,-896 141.62,-896 141.62,-864 270.12,-864 270.12,-896"/>
<text xml:space="preserve" text-anchor="start" x="149.62" y="-882.5" font-family="Helvetica,sans-Serif" font-size="10.00">nlohmann::detail::is</text>
<text xml:space="preserve" text-anchor="middle" x="205.88" y="-870.5" font-family="Helvetica,sans-Serif" font-size="10.00">_basic_json&lt; typename &gt;</text>
</a>
</g>
</g>
<!-- Node0&#45;&gt;Node6 -->
<g id="edge6" class="edge">
<title>Node0&#45;&gt;Node6</title>
<path fill="none" stroke="#63b8ff" d="M40.59,-605.81C40.3,-656.87 46.95,-785.11 116.5,-855 123.47,-862.01 132.25,-867.09 141.55,-870.76"/>
<polygon fill="#63b8ff" stroke="#63b8ff" points="44.09,-605.9 40.77,-595.84 37.09,-605.77 44.09,-605.9"/>
</g>
<!-- Node7 -->
<g id="node8" class="node">
<title>Node7</title>
<g id="a_node8"><a xlink:href="a01783.html" target="_top" xlink:title=" ">
<polygon fill="white" stroke="#666666" points="291.12,-846 120.62,-846 120.62,-790 291.12,-790 291.12,-846"/>
<text xml:space="preserve" text-anchor="start" x="128.62" y="-832.5" font-family="Helvetica,sans-Serif" font-size="10.00">nlohmann::detail::is</text>
<text xml:space="preserve" text-anchor="start" x="128.62" y="-820.5" font-family="Helvetica,sans-Serif" font-size="10.00">_compatible_array_type</text>
<text xml:space="preserve" text-anchor="start" x="128.62" y="-808.5" font-family="Helvetica,sans-Serif" font-size="10.00">_impl&lt; BasicJsonType, Compatible</text>
<text xml:space="preserve" text-anchor="middle" x="205.88" y="-796.5" font-family="Helvetica,sans-Serif" font-size="10.00">ArrayType, typename &gt;</text>
</a>
</g>
</g>
<!-- Node0&#45;&gt;Node7 -->
<g id="edge7" class="edge">
<title>Node0&#45;&gt;Node7</title>
<path fill="none" stroke="#63b8ff" d="M43.86,-605.45C49.76,-645.14 67.64,-730.57 116.5,-781 119.51,-784.11 122.82,-786.96 126.34,-789.59"/>
<polygon fill="#63b8ff" stroke="#63b8ff" points="47.33,-605.01 42.52,-595.57 40.39,-605.95 47.33,-605.01"/>
</g>
<!-- Node9 -->
<g id="node10" class="node">
<title>Node9</title>
<g id="a_node10"><a xlink:href="a01811.html" target="_top" xlink:title=" ">
<polygon fill="white" stroke="#666666" points="284.38,-772 127.38,-772 127.38,-704 284.38,-704 284.38,-772"/>
<text xml:space="preserve" text-anchor="start" x="135.38" y="-758.5" font-family="Helvetica,sans-Serif" font-size="10.00">nlohmann::detail::is</text>
<text xml:space="preserve" text-anchor="start" x="135.38" y="-746.5" font-family="Helvetica,sans-Serif" font-size="10.00">_compatible_integer_type</text>
<text xml:space="preserve" text-anchor="start" x="135.38" y="-734.5" font-family="Helvetica,sans-Serif" font-size="10.00">_impl&lt; RealIntegerType,</text>
<text xml:space="preserve" text-anchor="start" x="135.38" y="-722.5" font-family="Helvetica,sans-Serif" font-size="10.00"> CompatibleNumberIntegerType,</text>
<text xml:space="preserve" text-anchor="middle" x="205.88" y="-710.5" font-family="Helvetica,sans-Serif" font-size="10.00"> typename &gt;</text>
</a>
</g>
</g>
<!-- Node0&#45;&gt;Node9 -->
<g id="edge9" class="edge">
<title>Node0&#45;&gt;Node9</title>
<path fill="none" stroke="#63b8ff" d="M50.88,-604.36C63.2,-628.61 86.58,-669.07 116.5,-695 119.98,-698.02 123.71,-700.88 127.6,-703.58"/>
<polygon fill="#63b8ff" stroke="#63b8ff" points="54.1,-602.97 46.54,-595.54 47.81,-606.06 54.1,-602.97"/>
</g>
<!-- Node11 -->
<g id="node12" class="node">
<title>Node11</title>
<g id="a_node12"><a xlink:href="a01735.html" target="_top" xlink:title=" ">
<polygon fill="white" stroke="#666666" points="291.12,-686 120.62,-686 120.62,-630 291.12,-630 291.12,-686"/>
<text xml:space="preserve" text-anchor="start" x="128.62" y="-672.5" font-family="Helvetica,sans-Serif" font-size="10.00">nlohmann::detail::is</text>
<text xml:space="preserve" text-anchor="start" x="128.62" y="-660.5" font-family="Helvetica,sans-Serif" font-size="10.00">_compatible_object_type</text>
<text xml:space="preserve" text-anchor="start" x="128.62" y="-648.5" font-family="Helvetica,sans-Serif" font-size="10.00">_impl&lt; BasicJsonType, Compatible</text>
<text xml:space="preserve" text-anchor="middle" x="205.88" y="-636.5" font-family="Helvetica,sans-Serif" font-size="10.00">ObjectType, typename &gt;</text>
</a>
</g>
</g>
<!-- Node0&#45;&gt;Node11 -->
<g id="edge11" class="edge">
<title>Node0&#45;&gt;Node11</title>
<path fill="none" stroke="#63b8ff" d="M71.79,-599.54C85.38,-606.32 101.65,-614.25 116.5,-621 122.71,-623.82 129.19,-626.69 135.71,-629.52"/>
<polygon fill="#63b8ff" stroke="#63b8ff" points="73.39,-596.43 62.88,-595.07 70.25,-602.68 73.39,-596.43"/>
</g>
<!-- Node13 -->
<g id="node14" class="node">
<title>Node13</title>
<g id="a_node14"><a xlink:href="a01759.html" target="_top" xlink:title=" ">
<polygon fill="white" stroke="#666666" points="291.12,-612 120.62,-612 120.62,-556 291.12,-556 291.12,-612"/>
<text xml:space="preserve" text-anchor="start" x="128.62" y="-598.5" font-family="Helvetica,sans-Serif" font-size="10.00">nlohmann::detail::is</text>
<text xml:space="preserve" text-anchor="start" x="128.62" y="-586.5" font-family="Helvetica,sans-Serif" font-size="10.00">_compatible_string_type</text>
<text xml:space="preserve" text-anchor="start" x="128.62" y="-574.5" font-family="Helvetica,sans-Serif" font-size="10.00">_impl&lt; BasicJsonType, Compatible</text>
<text xml:space="preserve" text-anchor="middle" x="205.88" y="-562.5" font-family="Helvetica,sans-Serif" font-size="10.00">StringType, typename &gt;</text>
</a>
</g>
</g>
<!-- Node0&#45;&gt;Node13 -->
<g id="edge13" class="edge">
<title>Node0&#45;&gt;Node13</title>
<path fill="none" stroke="#63b8ff" d="M92.26,-584C101.22,-584 110.75,-584 120.34,-584"/>
<polygon fill="#63b8ff" stroke="#63b8ff" points="92.37,-580.5 82.37,-584 92.37,-587.5 92.37,-580.5"/>
</g>
<!-- Node14 -->
<g id="node15" class="node">
<title>Node14</title>
<g id="a_node15"><a xlink:href="a01823.html" target="_top" xlink:title=" ">
<polygon fill="white" stroke="#666666" points="291.5,-538 120.25,-538 120.25,-482 291.5,-482 291.5,-538"/>
<text xml:space="preserve" text-anchor="start" x="128.25" y="-524.5" font-family="Helvetica,sans-Serif" font-size="10.00">nlohmann::detail::is</text>
<text xml:space="preserve" text-anchor="start" x="128.25" y="-512.5" font-family="Helvetica,sans-Serif" font-size="10.00">_compatible_type_impl</text>
<text xml:space="preserve" text-anchor="start" x="128.25" y="-500.5" font-family="Helvetica,sans-Serif" font-size="10.00">&lt; BasicJsonType, CompatibleType,</text>
<text xml:space="preserve" text-anchor="middle" x="205.88" y="-488.5" font-family="Helvetica,sans-Serif" font-size="10.00"> typename &gt;</text>
</a>
</g>
</g>
<!-- Node0&#45;&gt;Node14 -->
<g id="edge14" class="edge">
<title>Node0&#45;&gt;Node14</title>
<path fill="none" stroke="#63b8ff" d="M71.79,-568.46C85.38,-561.68 101.65,-553.75 116.5,-547 122.71,-544.18 129.19,-541.31 135.71,-538.48"/>
<polygon fill="#63b8ff" stroke="#63b8ff" points="70.25,-565.32 62.88,-572.93 73.39,-571.57 70.25,-565.32"/>
</g>
<!-- Node16 -->
<g id="node17" class="node">
<title>Node16</title>
<g id="a_node17"><a xlink:href="a01727.html" target="_top" xlink:title=" ">
<polygon fill="white" stroke="#666666" points="284,-464 127.75,-464 127.75,-432 284,-432 284,-464"/>
<text xml:space="preserve" text-anchor="start" x="135.75" y="-450.5" font-family="Helvetica,sans-Serif" font-size="10.00">nlohmann::detail::is</text>
<text xml:space="preserve" text-anchor="middle" x="205.88" y="-438.5" font-family="Helvetica,sans-Serif" font-size="10.00">_complete_type&lt; T, typename &gt;</text>
</a>
</g>
</g>
<!-- Node0&#45;&gt;Node16 -->
<g id="edge16" class="edge">
<title>Node0&#45;&gt;Node16</title>
<path fill="none" stroke="#63b8ff" d="M49.81,-563.43C61.3,-538.35 84.09,-496.4 116.5,-473 121.02,-469.73 125.96,-466.89 131.12,-464.42"/>
<polygon fill="#63b8ff" stroke="#63b8ff" points="46.75,-561.69 45.94,-572.26 53.16,-564.51 46.75,-561.69"/>
</g>
<!-- Node17 -->
<g id="node18" class="node">
<title>Node17</title>
<g id="a_node18"><a xlink:href="a01795.html" target="_top" xlink:title=" ">
<polygon fill="white" stroke="#666666" points="276.88,-414 134.88,-414 134.88,-346 276.88,-346 276.88,-414"/>
<text xml:space="preserve" text-anchor="start" x="142.88" y="-400.5" font-family="Helvetica,sans-Serif" font-size="10.00">nlohmann::detail::is</text>
<text xml:space="preserve" text-anchor="start" x="142.88" y="-388.5" font-family="Helvetica,sans-Serif" font-size="10.00">_constructible_array</text>
<text xml:space="preserve" text-anchor="start" x="142.88" y="-376.5" font-family="Helvetica,sans-Serif" font-size="10.00">_type_impl&lt; BasicJsonType,</text>
<text xml:space="preserve" text-anchor="start" x="142.88" y="-364.5" font-family="Helvetica,sans-Serif" font-size="10.00"> ConstructibleArrayType,</text>
<text xml:space="preserve" text-anchor="middle" x="205.88" y="-352.5" font-family="Helvetica,sans-Serif" font-size="10.00"> typename &gt;</text>
</a>
</g>
</g>
<!-- Node0&#45;&gt;Node17 -->
<g id="edge17" class="edge">
<title>Node0&#45;&gt;Node17</title>
<path fill="none" stroke="#63b8ff" d="M46.26,-562.75C55.14,-529.18 76.59,-463.53 116.5,-423 121.89,-417.53 128.11,-412.65 134.71,-408.33"/>
<polygon fill="#63b8ff" stroke="#63b8ff" points="42.95,-561.55 43.91,-572.1 49.74,-563.25 42.95,-561.55"/>
</g>
<!-- Node19 -->
<g id="node20" class="node">
<title>Node19</title>
<g id="a_node20"><a xlink:href="a01747.html" target="_top" xlink:title=" ">
<polygon fill="white" stroke="#666666" points="276.88,-328 134.88,-328 134.88,-260 276.88,-260 276.88,-328"/>
<text xml:space="preserve" text-anchor="start" x="142.88" y="-314.5" font-family="Helvetica,sans-Serif" font-size="10.00">nlohmann::detail::is</text>
<text xml:space="preserve" text-anchor="start" x="142.88" y="-302.5" font-family="Helvetica,sans-Serif" font-size="10.00">_constructible_object</text>
<text xml:space="preserve" text-anchor="start" x="142.88" y="-290.5" font-family="Helvetica,sans-Serif" font-size="10.00">_type_impl&lt; BasicJsonType,</text>
<text xml:space="preserve" text-anchor="start" x="142.88" y="-278.5" font-family="Helvetica,sans-Serif" font-size="10.00"> ConstructibleObjectType,</text>
<text xml:space="preserve" text-anchor="middle" x="205.88" y="-266.5" font-family="Helvetica,sans-Serif" font-size="10.00"> typename &gt;</text>
</a>
</g>
</g>
<!-- Node0&#45;&gt;Node19 -->
<g id="edge19" class="edge">
<title>Node0&#45;&gt;Node19</title>
<path fill="none" stroke="#63b8ff" d="M42.19,-562.35C45.32,-515.73 58.75,-404.61 116.5,-337 121.71,-330.9 127.98,-325.59 134.76,-320.99"/>
<polygon fill="#63b8ff" stroke="#63b8ff" points="38.71,-562.01 41.64,-572.19 45.7,-562.4 38.71,-562.01"/>
</g>
<!-- Node21 -->
<g id="node22" class="node">
<title>Node21</title>
<g id="a_node22"><a xlink:href="a01771.html" target="_top" xlink:title=" ">
<polygon fill="white" stroke="#666666" points="276.88,-242 134.88,-242 134.88,-174 276.88,-174 276.88,-242"/>
<text xml:space="preserve" text-anchor="start" x="142.88" y="-228.5" font-family="Helvetica,sans-Serif" font-size="10.00">nlohmann::detail::is</text>
<text xml:space="preserve" text-anchor="start" x="142.88" y="-216.5" font-family="Helvetica,sans-Serif" font-size="10.00">_constructible_string</text>
<text xml:space="preserve" text-anchor="start" x="142.88" y="-204.5" font-family="Helvetica,sans-Serif" font-size="10.00">_type_impl&lt; BasicJsonType,</text>
<text xml:space="preserve" text-anchor="start" x="142.88" y="-192.5" font-family="Helvetica,sans-Serif" font-size="10.00"> ConstructibleStringType,</text>
<text xml:space="preserve" text-anchor="middle" x="205.88" y="-180.5" font-family="Helvetica,sans-Serif" font-size="10.00"> typename &gt;</text>
</a>
</g>
</g>
<!-- Node0&#45;&gt;Node21 -->
<g id="edge21" class="edge">
<title>Node0&#45;&gt;Node21</title>
<path fill="none" stroke="#63b8ff" d="M43.71,-562.12C51.51,-496.06 77.5,-300.21 116.5,-251 121.59,-244.58 127.87,-239.06 134.73,-234.32"/>
<polygon fill="#63b8ff" stroke="#63b8ff" points="40.24,-561.68 42.57,-572.01 47.19,-562.48 40.24,-561.68"/>
</g>
<!-- Node23 -->
<g id="node24" class="node">
<title>Node23</title>
<g id="a_node24"><a xlink:href="a01847.html" target="_top" xlink:title=" ">
<polygon fill="white" stroke="#666666" points="257.38,-156 154.38,-156 154.38,-112 257.38,-112 257.38,-156"/>
<text xml:space="preserve" text-anchor="start" x="162.38" y="-142.5" font-family="Helvetica,sans-Serif" font-size="10.00">nlohmann::detail::is</text>
<text xml:space="preserve" text-anchor="start" x="162.38" y="-130.5" font-family="Helvetica,sans-Serif" font-size="10.00">_constructible_tuple</text>
<text xml:space="preserve" text-anchor="middle" x="205.88" y="-118.5" font-family="Helvetica,sans-Serif" font-size="10.00">&lt; T1, T2 &gt;</text>
</a>
</g>
</g>
<!-- Node0&#45;&gt;Node23 -->
<g id="edge23" class="edge">
<title>Node0&#45;&gt;Node23</title>
<path fill="none" stroke="#63b8ff" d="M42.31,-562.46C46.52,-485.61 64.41,-226.16 116.5,-165 126.09,-153.74 140.04,-146.56 154.02,-142"/>
<polygon fill="#63b8ff" stroke="#63b8ff" points="38.84,-561.85 41.81,-572.02 45.83,-562.22 38.84,-561.85"/>
</g>
<!-- Node24 -->
<g id="node25" class="node">
<title>Node24</title>
<g id="a_node25"><a xlink:href="a01719.html" target="_top" xlink:title=" ">
<polygon fill="white" stroke="#666666" points="256.25,-94 155.5,-94 155.5,-50 256.25,-50 256.25,-94"/>
<text xml:space="preserve" text-anchor="start" x="163.5" y="-80.5" font-family="Helvetica,sans-Serif" font-size="10.00">nlohmann::detail::is</text>
<text xml:space="preserve" text-anchor="start" x="163.5" y="-68.5" font-family="Helvetica,sans-Serif" font-size="10.00">_iterator_traits&lt; T,</text>
<text xml:space="preserve" text-anchor="middle" x="205.88" y="-56.5" font-family="Helvetica,sans-Serif" font-size="10.00"> typename &gt;</text>
</a>
</g>
</g>
<!-- Node0&#45;&gt;Node24 -->
<g id="edge24" class="edge">
<title>Node0&#45;&gt;Node24</title>
<path fill="none" stroke="#63b8ff" d="M41.77,-562.34C44.2,-478.24 57.02,-174.44 116.5,-103 126.28,-91.25 140.79,-83.95 155.24,-79.42"/>
<polygon fill="#63b8ff" stroke="#63b8ff" points="38.27,-562.09 41.51,-572.18 45.27,-562.28 38.27,-562.09"/>
</g>
<!-- Node25 -->
<g id="node26" class="node">
<title>Node25</title>
<g id="a_node26"><a xlink:href="a01683.html" target="_top" xlink:title=" ">
<polygon fill="white" stroke="#666666" points="264.12,-32 147.62,-32 147.62,0 264.12,0 264.12,-32"/>
<text xml:space="preserve" text-anchor="start" x="155.62" y="-18.5" font-family="Helvetica,sans-Serif" font-size="10.00">nlohmann::detail::is</text>
<text xml:space="preserve" text-anchor="middle" x="205.88" y="-6.5" font-family="Helvetica,sans-Serif" font-size="10.00">_json_ref&lt; typename &gt;</text>
</a>
</g>
</g>
<!-- Node0&#45;&gt;Node25 -->
<g id="edge25" class="edge">
<title>Node0&#45;&gt;Node25</title>
<path fill="none" stroke="#63b8ff" d="M41.21,-562.4C41.47,-471.47 47.03,-120.78 116.5,-41 124.56,-31.74 135.77,-25.79 147.5,-21.99"/>
<polygon fill="#63b8ff" stroke="#63b8ff" points="37.71,-562.15 41.2,-572.15 44.71,-562.15 37.71,-562.15"/>
</g>
<!-- Node2 -->
<g id="node3" class="node">
<title>Node2</title>
<g id="a_node3"><a xlink:href="a01767.html" target="_top" xlink:title=" ">
<polygon fill="white" stroke="#666666" points="502.12,-1156 346.62,-1156 346.62,-1100 502.12,-1100 502.12,-1156"/>
<text xml:space="preserve" text-anchor="start" x="354.62" y="-1142.5" font-family="Helvetica,sans-Serif" font-size="10.00">nlohmann::detail::is</text>
<text xml:space="preserve" text-anchor="start" x="354.62" y="-1130.5" font-family="Helvetica,sans-Serif" font-size="10.00">_compatible_string_type</text>
<text xml:space="preserve" text-anchor="start" x="354.62" y="-1118.5" font-family="Helvetica,sans-Serif" font-size="10.00">&lt; BasicJsonType, Constructible</text>
<text xml:space="preserve" text-anchor="middle" x="424.38" y="-1106.5" font-family="Helvetica,sans-Serif" font-size="10.00">StringType &gt;</text>
</a>
</g>
</g>
<!-- Node1&#45;&gt;Node2 -->
<g id="edge2" class="edge">
<title>Node1&#45;&gt;Node2</title>
<path fill="none" stroke="#63b8ff" d="M307.07,-1128C320.24,-1128 333.56,-1128 346.26,-1128"/>
<polygon fill="#63b8ff" stroke="#63b8ff" points="307.07,-1124.5 297.07,-1128 307.07,-1131.5 307.07,-1124.5"/>
</g>
<!-- Node8 -->
<g id="node9" class="node">
<title>Node8</title>
<g id="a_node9"><a xlink:href="a01791.html" target="_top" xlink:title=" ">
<polygon fill="white" stroke="#666666" points="509.62,-846 339.12,-846 339.12,-790 509.62,-790 509.62,-846"/>
<text xml:space="preserve" text-anchor="start" x="347.12" y="-832.5" font-family="Helvetica,sans-Serif" font-size="10.00">nlohmann::detail::is</text>
<text xml:space="preserve" text-anchor="start" x="347.12" y="-820.5" font-family="Helvetica,sans-Serif" font-size="10.00">_compatible_array_type</text>
<text xml:space="preserve" text-anchor="start" x="347.12" y="-808.5" font-family="Helvetica,sans-Serif" font-size="10.00">&lt; BasicJsonType, CompatibleArray</text>
<text xml:space="preserve" text-anchor="middle" x="424.38" y="-796.5" font-family="Helvetica,sans-Serif" font-size="10.00">Type &gt;</text>
</a>
</g>
</g>
<!-- Node7&#45;&gt;Node8 -->
<g id="edge8" class="edge">
<title>Node7&#45;&gt;Node8</title>
<path fill="none" stroke="#63b8ff" d="M302.9,-818C314.86,-818 327.03,-818 338.8,-818"/>
<polygon fill="#63b8ff" stroke="#63b8ff" points="303.02,-814.5 293.02,-818 303.02,-821.5 303.02,-814.5"/>
</g>
<!-- Node10 -->
<g id="node11" class="node">
<title>Node10</title>
<g id="a_node11"><a xlink:href="a01819.html" target="_top" xlink:title=" ">
<polygon fill="white" stroke="#666666" points="517.5,-766 331.25,-766 331.25,-710 517.5,-710 517.5,-766"/>
<text xml:space="preserve" text-anchor="start" x="339.25" y="-752.5" font-family="Helvetica,sans-Serif" font-size="10.00">nlohmann::detail::is</text>
<text xml:space="preserve" text-anchor="start" x="339.25" y="-740.5" font-family="Helvetica,sans-Serif" font-size="10.00">_compatible_integer_type</text>
<text xml:space="preserve" text-anchor="start" x="339.25" y="-728.5" font-family="Helvetica,sans-Serif" font-size="10.00">&lt; RealIntegerType, CompatibleNumber</text>
<text xml:space="preserve" text-anchor="middle" x="424.38" y="-716.5" font-family="Helvetica,sans-Serif" font-size="10.00">IntegerType &gt;</text>
</a>
</g>
</g>
<!-- Node9&#45;&gt;Node10 -->
<g id="edge10" class="edge">
<title>Node9&#45;&gt;Node10</title>
<path fill="none" stroke="#63b8ff" d="M296.14,-738C307.68,-738 319.51,-738 331.09,-738"/>
<polygon fill="#63b8ff" stroke="#63b8ff" points="296.24,-734.5 286.24,-738 296.24,-741.5 296.24,-734.5"/>
</g>
<!-- Node12 -->
<g id="node13" class="node">
<title>Node12</title>
<g id="a_node13"><a xlink:href="a01743.html" target="_top" xlink:title=" ">
<polygon fill="white" stroke="#666666" points="512.25,-686 336.5,-686 336.5,-630 512.25,-630 512.25,-686"/>
<text xml:space="preserve" text-anchor="start" x="344.5" y="-672.5" font-family="Helvetica,sans-Serif" font-size="10.00">nlohmann::detail::is</text>
<text xml:space="preserve" text-anchor="start" x="344.5" y="-660.5" font-family="Helvetica,sans-Serif" font-size="10.00">_compatible_object_type</text>
<text xml:space="preserve" text-anchor="start" x="344.5" y="-648.5" font-family="Helvetica,sans-Serif" font-size="10.00">&lt; BasicJsonType, CompatibleObject</text>
<text xml:space="preserve" text-anchor="middle" x="424.38" y="-636.5" font-family="Helvetica,sans-Serif" font-size="10.00">Type &gt;</text>
</a>
</g>
</g>
<!-- Node11&#45;&gt;Node12 -->
<g id="edge12" class="edge">
<title>Node11&#45;&gt;Node12</title>
<path fill="none" stroke="#63b8ff" d="M302.99,-658C314.08,-658 325.34,-658 336.3,-658"/>
<polygon fill="#63b8ff" stroke="#63b8ff" points="303.02,-654.5 293.02,-658 303.02,-661.5 303.02,-654.5"/>
</g>
<!-- Node15 -->
<g id="node16" class="node">
<title>Node15</title>
<g id="a_node16"><a xlink:href="a01831.html" target="_top" xlink:title=" ">
<polygon fill="white" stroke="#666666" points="498,-532 350.75,-532 350.75,-488 498,-488 498,-532"/>
<text xml:space="preserve" text-anchor="start" x="358.75" y="-518.5" font-family="Helvetica,sans-Serif" font-size="10.00">nlohmann::detail::is</text>
<text xml:space="preserve" text-anchor="start" x="358.75" y="-506.5" font-family="Helvetica,sans-Serif" font-size="10.00">_compatible_type&lt; BasicJson</text>
<text xml:space="preserve" text-anchor="middle" x="424.38" y="-494.5" font-family="Helvetica,sans-Serif" font-size="10.00">Type, CompatibleType &gt;</text>
</a>
</g>
</g>
<!-- Node14&#45;&gt;Node15 -->
<g id="edge15" class="edge">
<title>Node14&#45;&gt;Node15</title>
<path fill="none" stroke="#63b8ff" d="M303.3,-510C319.19,-510 335.41,-510 350.59,-510"/>
<polygon fill="#63b8ff" stroke="#63b8ff" points="303.33,-506.5 293.33,-510 303.33,-513.5 303.33,-506.5"/>
</g>
<!-- Node18 -->
<g id="node19" class="node">
<title>Node18</title>
<g id="a_node19"><a xlink:href="a01807.html" target="_top" xlink:title=" ">
<polygon fill="white" stroke="#666666" points="489.38,-408 359.38,-408 359.38,-352 489.38,-352 489.38,-408"/>
<text xml:space="preserve" text-anchor="start" x="367.38" y="-394.5" font-family="Helvetica,sans-Serif" font-size="10.00">nlohmann::detail::is</text>
<text xml:space="preserve" text-anchor="start" x="367.38" y="-382.5" font-family="Helvetica,sans-Serif" font-size="10.00">_constructible_array</text>
<text xml:space="preserve" text-anchor="start" x="367.38" y="-370.5" font-family="Helvetica,sans-Serif" font-size="10.00">_type&lt; BasicJsonType,</text>
<text xml:space="preserve" text-anchor="middle" x="424.38" y="-358.5" font-family="Helvetica,sans-Serif" font-size="10.00"> ConstructibleArrayType &gt;</text>
</a>
</g>
</g>
<!-- Node17&#45;&gt;Node18 -->
<g id="edge18" class="edge">
<title>Node17&#45;&gt;Node18</title>
<path fill="none" stroke="#63b8ff" d="M288.44,-380C311.75,-380 336.81,-380 358.93,-380"/>
<polygon fill="#63b8ff" stroke="#63b8ff" points="288.68,-376.5 278.68,-380 288.68,-383.5 288.68,-376.5"/>
</g>
<!-- Node20 -->
<g id="node21" class="node">
<title>Node20</title>
<g id="a_node21"><a xlink:href="a01755.html" target="_top" xlink:title=" ">
<polygon fill="white" stroke="#666666" points="492,-322 356.75,-322 356.75,-266 492,-266 492,-322"/>
<text xml:space="preserve" text-anchor="start" x="364.75" y="-308.5" font-family="Helvetica,sans-Serif" font-size="10.00">nlohmann::detail::is</text>
<text xml:space="preserve" text-anchor="start" x="364.75" y="-296.5" font-family="Helvetica,sans-Serif" font-size="10.00">_constructible_object</text>
<text xml:space="preserve" text-anchor="start" x="364.75" y="-284.5" font-family="Helvetica,sans-Serif" font-size="10.00">_type&lt; BasicJsonType,</text>
<text xml:space="preserve" text-anchor="middle" x="424.38" y="-272.5" font-family="Helvetica,sans-Serif" font-size="10.00"> ConstructibleObjectType &gt;</text>
</a>
</g>
</g>
<!-- Node19&#45;&gt;Node20 -->
<g id="edge20" class="edge">
<title>Node19&#45;&gt;Node20</title>
<path fill="none" stroke="#63b8ff" d="M288.38,-294C310.81,-294 334.87,-294 356.38,-294"/>
<polygon fill="#63b8ff" stroke="#63b8ff" points="288.68,-290.5 278.68,-294 288.68,-297.5 288.68,-290.5"/>
</g>
<!-- Node22 -->
<g id="node23" class="node">
<title>Node22</title>
<g id="a_node23"><a xlink:href="a01779.html" target="_top" xlink:title=" ">
<polygon fill="white" stroke="#666666" points="490.5,-236 358.25,-236 358.25,-180 490.5,-180 490.5,-236"/>
<text xml:space="preserve" text-anchor="start" x="366.25" y="-222.5" font-family="Helvetica,sans-Serif" font-size="10.00">nlohmann::detail::is</text>
<text xml:space="preserve" text-anchor="start" x="366.25" y="-210.5" font-family="Helvetica,sans-Serif" font-size="10.00">_constructible_string</text>
<text xml:space="preserve" text-anchor="start" x="366.25" y="-198.5" font-family="Helvetica,sans-Serif" font-size="10.00">_type&lt; BasicJsonType,</text>
<text xml:space="preserve" text-anchor="middle" x="424.38" y="-186.5" font-family="Helvetica,sans-Serif" font-size="10.00"> ConstructibleStringType &gt;</text>
</a>
</g>
</g>
<!-- Node21&#45;&gt;Node22 -->
<g id="edge22" class="edge">
<title>Node21&#45;&gt;Node22</title>
<path fill="none" stroke="#63b8ff" d="M288.6,-208C311.47,-208 336.03,-208 357.84,-208"/>
<polygon fill="#63b8ff" stroke="#63b8ff" points="288.68,-204.5 278.68,-208 288.68,-211.5 288.68,-204.5"/>
</g>
</g>
</svg>
