<?xml version="1.0" encoding="UTF-8" standalone="no"?>
<!DOCTYPE svg PUBLIC "-//W3C//DTD SVG 1.1//EN"
 "http://www.w3.org/Graphics/SVG/1.1/DTD/svg11.dtd">
<!-- Generated by graphviz version 13.1.2 (20250808.2320)
 -->
<!-- Title: Graphical Class Hierarchy Pages: 1 -->
<svg width="499pt" height="299pt"
 viewBox="0.00 0.00 499.00 299.00" xmlns="http://www.w3.org/2000/svg" xmlns:xlink="http://www.w3.org/1999/xlink">
<g id="graph0" class="graph" transform="scale(1 1) rotate(0) translate(4 295)">
<title>Graphical Class Hierarchy</title>
<!-- Node0 -->
<g id="node1" class="node">
<title>Node0</title>
<g id="a_node1"><a xlink:title=" ">
<polygon fill="#e0e0e0" stroke="#999999" points="77.5,-196 0,-196 0,-176 77.5,-176 77.5,-196"/>
<text xml:space="preserve" text-anchor="middle" x="38.75" y="-182.5" font-family="Helvetica,sans-Serif" font-size="10.00">std::exception</text>
</a>
</g>
</g>
<!-- Node1 -->
<g id="node2" class="node">
<title>Node1</title>
<g id="a_node2"><a xlink:href="a01319.html" target="_top" xlink:title="Thrown when desired file is not found.">
<polygon fill="white" stroke="#666666" points="277.25,-291 128.5,-291 128.5,-271 277.25,-271 277.25,-291"/>
<text xml:space="preserve" text-anchor="middle" x="202.88" y="-277.5" font-family="Helvetica,sans-Serif" font-size="10.00">HF::Exceptions::FileNotFound</text>
</a>
</g>
</g>
<!-- Node0&#45;&gt;Node1 -->
<g id="edge1" class="edge">
<title>Node0&#45;&gt;Node1</title>
<path fill="none" stroke="#63b8ff" d="M53.21,-205.33C66.49,-222.89 88.4,-248.09 113.5,-262 119.68,-265.42 126.41,-268.23 133.32,-270.53"/>
<polygon fill="#63b8ff" stroke="#63b8ff" points="56.37,-203.73 47.65,-197.71 50.72,-207.85 56.37,-203.73"/>
</g>
<!-- Node2 -->
<g id="node3" class="node">
<title>Node2</title>
<g id="a_node3"><a xlink:href="a01323.html" target="_top" xlink:title="The OBJ file was not valid.">
<polygon fill="white" stroke="#666666" points="272,-253 133.75,-253 133.75,-233 272,-233 272,-253"/>
<text xml:space="preserve" text-anchor="middle" x="202.88" y="-239.5" font-family="Helvetica,sans-Serif" font-size="10.00">HF::Exceptions::InvalidOBJ</text>
</a>
</g>
</g>
<!-- Node0&#45;&gt;Node2 -->
<g id="edge2" class="edge">
<title>Node0&#45;&gt;Node2</title>
<path fill="none" stroke="#63b8ff" d="M66.46,-201.94C80.14,-209.53 97.29,-218.2 113.5,-224 122.81,-227.33 132.89,-230.18 142.79,-232.57"/>
<polygon fill="#63b8ff" stroke="#63b8ff" points="68.49,-199.06 58.06,-197.15 65.02,-205.14 68.49,-199.06"/>
</g>
<!-- Node3 -->
<g id="node4" class="node">
<title>Node3</title>
<g id="a_node4"><a xlink:href="a01327.html" target="_top" xlink:title="Thrown when a dependency is missing such as Embree.">
<polygon fill="white" stroke="#666666" points="292.25,-215 113.5,-215 113.5,-195 292.25,-195 292.25,-215"/>
<text xml:space="preserve" text-anchor="middle" x="202.88" y="-201.5" font-family="Helvetica,sans-Serif" font-size="10.00">HF::Exceptions::MissingDependency</text>
</a>
</g>
</g>
<!-- Node0&#45;&gt;Node3 -->
<g id="edge3" class="edge">
<title>Node0&#45;&gt;Node3</title>
<path fill="none" stroke="#63b8ff" d="M89.05,-191.78C96.74,-192.68 104.89,-193.63 113.15,-194.6"/>
<polygon fill="#63b8ff" stroke="#63b8ff" points="89.6,-188.32 79.26,-190.63 88.79,-195.27 89.6,-188.32"/>
</g>
<!-- Node4 -->
<g id="node5" class="node">
<title>Node4</title>
<g id="a_node5"><a xlink:href="a01335.html" target="_top" xlink:title="Thrown when a dependency is missing such as Embree.">
<polygon fill="white" stroke="#666666" points="264.88,-177 140.88,-177 140.88,-157 264.88,-157 264.88,-177"/>
<text xml:space="preserve" text-anchor="middle" x="202.88" y="-163.5" font-family="Helvetica,sans-Serif" font-size="10.00">HF::Exceptions::NoCost</text>
</a>
</g>
</g>
<!-- Node0&#45;&gt;Node4 -->
<g id="edge4" class="edge">
<title>Node0&#45;&gt;Node4</title>
<path fill="none" stroke="#63b8ff" d="M89.18,-180.21C105.4,-178.31 123.64,-176.17 140.63,-174.18"/>
<polygon fill="#63b8ff" stroke="#63b8ff" points="88.79,-176.73 79.26,-181.37 89.6,-183.68 88.79,-176.73"/>
</g>
<!-- Node5 -->
<g id="node6" class="node">
<title>Node5</title>
<g id="a_node6"><a xlink:href="a01559.html" target="_top" xlink:title="general exception of the basic_json class">
<polygon fill="white" stroke="#666666" points="270.5,-139 135.25,-139 135.25,-119 270.5,-119 270.5,-139"/>
<text xml:space="preserve" text-anchor="middle" x="202.88" y="-125.5" font-family="Helvetica,sans-Serif" font-size="10.00">nlohmann::detail::exception</text>
</a>
</g>
</g>
<!-- Node0&#45;&gt;Node5 -->
<g id="edge5" class="edge">
<title>Node0&#45;&gt;Node5</title>
<path fill="none" stroke="#63b8ff" d="M66.46,-170.06C80.14,-162.47 97.29,-153.8 113.5,-148 122.81,-144.67 132.89,-141.82 142.79,-139.43"/>
<polygon fill="#63b8ff" stroke="#63b8ff" points="65.02,-166.86 58.06,-174.85 68.49,-172.94 65.02,-166.86"/>
</g>
<!-- Node11 -->
<g id="node12" class="node">
<title>Node11</title>
<g id="a_node12"><a xlink:title=" ">
<polygon fill="#e0e0e0" stroke="#999999" points="243.12,-73 162.62,-73 162.62,-53 243.12,-53 243.12,-73"/>
<text xml:space="preserve" text-anchor="middle" x="202.88" y="-59.5" font-family="Helvetica,sans-Serif" font-size="10.00">std::logic_error</text>
</a>
</g>
</g>
<!-- Node0&#45;&gt;Node11 -->
<g id="edge11" class="edge">
<title>Node0&#45;&gt;Node11</title>
<path fill="none" stroke="#63b8ff" d="M55.28,-166.92C69.31,-150.48 91.14,-126.81 113.5,-110 133.5,-94.96 158.96,-81.97 177.42,-73.48"/>
<polygon fill="#63b8ff" stroke="#63b8ff" points="52.67,-164.58 48.94,-174.5 58.04,-169.07 52.67,-164.58"/>
</g>
<!-- Node6 -->
<g id="node7" class="node">
<title>Node6</title>
<g id="a_node7"><a xlink:href="a01567.html" target="_top" xlink:title="exception indicating errors with iterators">
<polygon fill="white" stroke="#666666" points="469.88,-270 348.88,-270 348.88,-238 469.88,-238 469.88,-270"/>
<text xml:space="preserve" text-anchor="start" x="356.88" y="-256.5" font-family="Helvetica,sans-Serif" font-size="10.00">nlohmann::detail::invalid</text>
<text xml:space="preserve" text-anchor="middle" x="409.38" y="-244.5" font-family="Helvetica,sans-Serif" font-size="10.00">_iterator</text>
</a>
</g>
</g>
<!-- Node5&#45;&gt;Node6 -->
<g id="edge6" class="edge">
<title>Node5&#45;&gt;Node6</title>
<path fill="none" stroke="#63b8ff" d="M281.01,-140.68C285,-142.76 288.79,-145.19 292.25,-148 322.83,-172.84 298.83,-202.8 328.25,-229 334.13,-234.23 341.09,-238.37 348.42,-241.64"/>
<polygon fill="#63b8ff" stroke="#63b8ff" points="282.67,-137.59 272.11,-136.77 279.86,-144 282.67,-137.59"/>
</g>
<!-- Node7 -->
<g id="node8" class="node">
<title>Node7</title>
<g id="a_node8"><a xlink:href="a01579.html" target="_top" xlink:title="exception indicating other library errors">
<polygon fill="white" stroke="#666666" points="466.88,-220 351.88,-220 351.88,-188 466.88,-188 466.88,-220"/>
<text xml:space="preserve" text-anchor="start" x="359.88" y="-206.5" font-family="Helvetica,sans-Serif" font-size="10.00">nlohmann::detail::other</text>
<text xml:space="preserve" text-anchor="middle" x="409.38" y="-194.5" font-family="Helvetica,sans-Serif" font-size="10.00">_error</text>
</a>
</g>
</g>
<!-- Node5&#45;&gt;Node7 -->
<g id="edge7" class="edge">
<title>Node5&#45;&gt;Node7</title>
<path fill="none" stroke="#63b8ff" d="M280.84,-143.05C284.76,-144.54 288.59,-146.18 292.25,-148 311.16,-157.4 309.79,-168.75 328.25,-179 335.51,-183.03 343.51,-186.51 351.56,-189.47"/>
<polygon fill="#63b8ff" stroke="#63b8ff" points="282.3,-139.85 271.7,-139.95 280.05,-146.48 282.3,-139.85"/>
</g>
<!-- Node8 -->
<g id="node9" class="node">
<title>Node8</title>
<g id="a_node9"><a xlink:href="a01575.html" target="_top" xlink:title="exception indicating access out of the defined range">
<polygon fill="white" stroke="#666666" points="462.75,-170 356,-170 356,-138 462.75,-138 462.75,-170"/>
<text xml:space="preserve" text-anchor="start" x="364" y="-156.5" font-family="Helvetica,sans-Serif" font-size="10.00">nlohmann::detail::out</text>
<text xml:space="preserve" text-anchor="middle" x="409.38" y="-144.5" font-family="Helvetica,sans-Serif" font-size="10.00">_of_range</text>
</a>
</g>
</g>
<!-- Node5&#45;&gt;Node8 -->
<g id="edge8" class="edge">
<title>Node5&#45;&gt;Node8</title>
<path fill="none" stroke="#63b8ff" d="M281.97,-138.55C306.56,-141.55 333.13,-144.8 355.53,-147.54"/>
<polygon fill="#63b8ff" stroke="#63b8ff" points="282.69,-135.11 272.34,-137.37 281.84,-142.06 282.69,-135.11"/>
</g>
<!-- Node9 -->
<g id="node10" class="node">
<title>Node9</title>
<g id="a_node10"><a xlink:href="a01563.html" target="_top" xlink:title="exception indicating a parse error">
<polygon fill="white" stroke="#666666" points="468,-120 350.75,-120 350.75,-88 468,-88 468,-120"/>
<text xml:space="preserve" text-anchor="start" x="358.75" y="-106.5" font-family="Helvetica,sans-Serif" font-size="10.00">nlohmann::detail::parse</text>
<text xml:space="preserve" text-anchor="middle" x="409.38" y="-94.5" font-family="Helvetica,sans-Serif" font-size="10.00">_error</text>
</a>
</g>
</g>
<!-- Node5&#45;&gt;Node9 -->
<g id="edge9" class="edge">
<title>Node5&#45;&gt;Node9</title>
<path fill="none" stroke="#63b8ff" d="M282.19,-119.43C304.91,-116.65 329.31,-113.67 350.54,-111.07"/>
<polygon fill="#63b8ff" stroke="#63b8ff" points="281.84,-115.94 272.34,-120.63 282.69,-122.89 281.84,-115.94"/>
</g>
<!-- Node10 -->
<g id="node11" class="node">
<title>Node10</title>
<g id="a_node11"><a xlink:href="a01571.html" target="_top" xlink:title="exception indicating executing a member function with a wrong type">
<polygon fill="white" stroke="#666666" points="465.38,-70 353.38,-70 353.38,-38 465.38,-38 465.38,-70"/>
<text xml:space="preserve" text-anchor="start" x="361.38" y="-56.5" font-family="Helvetica,sans-Serif" font-size="10.00">nlohmann::detail::type</text>
<text xml:space="preserve" text-anchor="middle" x="409.38" y="-44.5" font-family="Helvetica,sans-Serif" font-size="10.00">_error</text>
</a>
</g>
</g>
<!-- Node5&#45;&gt;Node10 -->
<g id="edge10" class="edge">
<title>Node5&#45;&gt;Node10</title>
<path fill="none" stroke="#63b8ff" d="M238.31,-114.3C263.12,-103.91 297.51,-89.96 328.25,-79 336.49,-76.06 345.26,-73.13 353.87,-70.36"/>
<polygon fill="#63b8ff" stroke="#63b8ff" points="237.22,-110.96 229.36,-118.06 239.93,-117.41 237.22,-110.96"/>
</g>
<!-- Node12 -->
<g id="node13" class="node">
<title>Node12</title>
<g id="a_node13"><a xlink:href="a01331.html" target="_top" xlink:title=" ">
<polygon fill="white" stroke="#666666" points="490.5,-20 328.25,-20 328.25,0 490.5,0 490.5,-20"/>
<text xml:space="preserve" text-anchor="middle" x="409.38" y="-6.5" font-family="Helvetica,sans-Serif" font-size="10.00">HF::Exceptions::NotImplemented</text>
</a>
</g>
</g>
<!-- Node11&#45;&gt;Node12 -->
<g id="edge12" class="edge">
<title>Node11&#45;&gt;Node12</title>
<path fill="none" stroke="#63b8ff" d="M251.69,-49.52C274.77,-43.12 302.9,-35.47 328.25,-29 339.47,-26.14 351.61,-23.18 362.97,-20.48"/>
<polygon fill="#63b8ff" stroke="#63b8ff" points="250.95,-46.09 242.25,-52.15 252.83,-52.84 250.95,-46.09"/>
</g>
</g>
</svg>
