<?xml version="1.0" encoding="UTF-8" standalone="no"?>
<!DOCTYPE svg PUBLIC "-//W3C//DTD SVG 1.1//EN"
 "http://www.w3.org/Graphics/SVG/1.1/DTD/svg11.dtd">
<!-- Generated by graphviz version 13.1.2 (20250808.2320)
 -->
<!-- Title: Graphical Class Hierarchy Pages: 1 -->
<svg width="346pt" height="152pt"
 viewBox="0.00 0.00 346.00 152.00" xmlns="http://www.w3.org/2000/svg" xmlns:xlink="http://www.w3.org/1999/xlink">
<g id="graph0" class="graph" transform="scale(1 1) rotate(0) translate(4 148)">
<title>Graphical Class Hierarchy</title>
<!-- Node0 -->
<g id="node1" class="node">
<title>Node0</title>
<g id="a_node1"><a xlink:href="a02019.html" target="_top" xlink:title="abstract output adapter interface">
<polygon fill="white" stroke="#666666" points="153.25,-88 0,-88 0,-56 153.25,-56 153.25,-88"/>
<text xml:space="preserve" text-anchor="start" x="8" y="-74.5" font-family="Helvetica,sans-Serif" font-size="10.00">nlohmann::detail::output</text>
<text xml:space="preserve" text-anchor="middle" x="76.62" y="-62.5" font-family="Helvetica,sans-Serif" font-size="10.00">_adapter_protocol&lt; CharType &gt;</text>
</a>
</g>
</g>
<!-- Node1 -->
<g id="node2" class="node">
<title>Node1</title>
<g id="a_node2"><a xlink:href="a02027.html" target="_top" xlink:title="output adapter for output streams">
<polygon fill="white" stroke="#666666" points="338,-144 189.25,-144 189.25,-112 338,-112 338,-144"/>
<text xml:space="preserve" text-anchor="start" x="197.25" y="-130.5" font-family="Helvetica,sans-Serif" font-size="10.00">nlohmann::detail::output</text>
<text xml:space="preserve" text-anchor="middle" x="263.62" y="-118.5" font-family="Helvetica,sans-Serif" font-size="10.00">_stream_adapter&lt; CharType &gt;</text>
</a>
</g>
</g>
<!-- Node0&#45;&gt;Node1 -->
<g id="edge1" class="edge">
<title>Node0&#45;&gt;Node1</title>
<path fill="none" stroke="#63b8ff" d="M143.06,-91.81C164.36,-98.26 187.78,-105.34 208.19,-111.52"/>
<polygon fill="#63b8ff" stroke="#63b8ff" points="144.16,-88.48 133.58,-88.94 142.14,-95.18 144.16,-88.48"/>
</g>
<!-- Node2 -->
<g id="node3" class="node">
<title>Node2</title>
<g id="a_node3"><a xlink:href="a02031.html" target="_top" xlink:title="output adapter for basic_string">
<polygon fill="white" stroke="#666666" points="332,-94 195.25,-94 195.25,-50 332,-50 332,-94"/>
<text xml:space="preserve" text-anchor="start" x="203.25" y="-80.5" font-family="Helvetica,sans-Serif" font-size="10.00">nlohmann::detail::output</text>
<text xml:space="preserve" text-anchor="start" x="203.25" y="-68.5" font-family="Helvetica,sans-Serif" font-size="10.00">_string_adapter&lt; CharType,</text>
<text xml:space="preserve" text-anchor="middle" x="263.62" y="-56.5" font-family="Helvetica,sans-Serif" font-size="10.00"> StringType &gt;</text>
</a>
</g>
</g>
<!-- Node0&#45;&gt;Node2 -->
<g id="edge2" class="edge">
<title>Node0&#45;&gt;Node2</title>
<path fill="none" stroke="#63b8ff" d="M164.96,-72C175.01,-72 185.14,-72 194.87,-72"/>
<polygon fill="#63b8ff" stroke="#63b8ff" points="165.19,-68.5 155.19,-72 165.19,-75.5 165.19,-68.5"/>
</g>
<!-- Node3 -->
<g id="node4" class="node">
<title>Node3</title>
<g id="a_node4"><a xlink:href="a02023.html" target="_top" xlink:title="output adapter for byte vectors">
<polygon fill="white" stroke="#666666" points="336.5,-32 190.75,-32 190.75,0 336.5,0 336.5,-32"/>
<text xml:space="preserve" text-anchor="start" x="198.75" y="-18.5" font-family="Helvetica,sans-Serif" font-size="10.00">nlohmann::detail::output</text>
<text xml:space="preserve" text-anchor="middle" x="263.62" y="-6.5" font-family="Helvetica,sans-Serif" font-size="10.00">_vector_adapter&lt; CharType &gt;</text>
</a>
</g>
</g>
<!-- Node0&#45;&gt;Node3 -->
<g id="edge3" class="edge">
<title>Node0&#45;&gt;Node3</title>
<path fill="none" stroke="#63b8ff" d="M143.06,-52.19C164.36,-45.74 187.78,-38.66 208.19,-32.48"/>
<polygon fill="#63b8ff" stroke="#63b8ff" points="142.14,-48.82 133.58,-55.06 144.16,-55.52 142.14,-48.82"/>
</g>
</g>
</svg>
