<?xml version="1.0" encoding="UTF-8" standalone="no"?>
<!DOCTYPE svg PUBLIC "-//W3C//DTD SVG 1.1//EN"
 "http://www.w3.org/Graphics/SVG/1.1/DTD/svg11.dtd">
<!-- Generated by graphviz version 13.1.2 (20250808.2320)
 -->
<!-- Title: Graphical Class Hierarchy Pages: 1 -->
<svg width="260pt" height="102pt"
 viewBox="0.00 0.00 260.00 102.00" xmlns="http://www.w3.org/2000/svg" xmlns:xlink="http://www.w3.org/1999/xlink">
<g id="graph0" class="graph" transform="scale(1 1) rotate(0) translate(4 98)">
<title>Graphical Class Hierarchy</title>
<!-- Node0 -->
<g id="node1" class="node">
<title>Node0</title>
<g id="a_node1"><a xlink:title=" ">
<polygon fill="#e0e0e0" stroke="#999999" points="95.5,-54 0,-54 0,-34 95.5,-34 95.5,-54"/>
<text xml:space="preserve" text-anchor="middle" x="47.75" y="-40.5" font-family="Helvetica,sans-Serif" font-size="10.00">std::allocator&lt; T &gt;</text>
</a>
</g>
</g>
<!-- Node1 -->
<g id="node2" class="node">
<title>Node1</title>
<g id="a_node2"><a xlink:href="a01423.html" target="_top" xlink:title=" ">
<polygon fill="white" stroke="#666666" points="251.75,-94 131.5,-94 131.5,-50 251.75,-50 251.75,-94"/>
<text xml:space="preserve" text-anchor="start" x="139.5" y="-80.5" font-family="Helvetica,sans-Serif" font-size="10.00">nanort::StackAllocator</text>
<text xml:space="preserve" text-anchor="start" x="139.5" y="-68.5" font-family="Helvetica,sans-Serif" font-size="10.00">&lt; ContainedType, stack</text>
<text xml:space="preserve" text-anchor="middle" x="191.62" y="-56.5" font-family="Helvetica,sans-Serif" font-size="10.00">_capacity &gt;</text>
</a>
</g>
</g>
<!-- Node0&#45;&gt;Node1 -->
<g id="edge1" class="edge">
<title>Node0&#45;&gt;Node1</title>
<path fill="none" stroke="#63b8ff" d="M107.07,-55.51C115.04,-57.08 123.23,-58.7 131.22,-60.28"/>
<polygon fill="#63b8ff" stroke="#63b8ff" points="107.97,-52.12 97.48,-53.62 106.61,-58.99 107.97,-52.12"/>
</g>
<!-- Node2 -->
<g id="node3" class="node">
<title>Node2</title>
<g id="a_node3"><a xlink:href="a01423.html" target="_top" xlink:title=" ">
<polygon fill="white" stroke="#666666" points="248,-32 135.25,-32 135.25,0 248,0 248,-32"/>
<text xml:space="preserve" text-anchor="start" x="143.25" y="-18.5" font-family="Helvetica,sans-Serif" font-size="10.00">nanort::StackAllocator</text>
<text xml:space="preserve" text-anchor="middle" x="191.62" y="-6.5" font-family="Helvetica,sans-Serif" font-size="10.00">&lt; T, stack_capacity &gt;</text>
</a>
</g>
</g>
<!-- Node0&#45;&gt;Node2 -->
<g id="edge2" class="edge">
<title>Node0&#45;&gt;Node2</title>
<path fill="none" stroke="#63b8ff" d="M107.13,-32.48C116.43,-30.64 126.01,-28.75 135.23,-26.93"/>
<polygon fill="#63b8ff" stroke="#63b8ff" points="106.61,-29.01 97.48,-34.38 107.97,-35.88 106.61,-29.01"/>
</g>
</g>
</svg>
